<svg xmlns="http://www.w3.org/2000/svg" xmlns:xlink="http://www.w3.org/1999/xlink" id="body_148" preserveAspectRatio="xMinYMin meet" viewBox="0 0 793 1121"><defs><clipPath id="1"><path d="M0 841L0 -0.9199829L0 -0.9199829L595.32 -0.9199829L595.32 -0.9199829L595.32 841L595.32 841L0 841z" /></clipPath><clipPath id="2"><path d="M0.00125 841.0914L595.4112 841.0914L595.4112 841.0914L595.4112 -0.9186401L595.4112 -0.9186401L0.00125 -0.9186401z" /></clipPath><clipPath id="3"><path d="M288.05 781.211L316.01 781.211L316.01 781.211L316.01 762.011L316.01 762.011L288.05 762.011z" /></clipPath><clipPath id="4"><path d="M288.05 781.216L316.01 781.216L316.01 781.216L316.01 762.016L316.01 762.016L288.05 762.016z" /></clipPath><clipPath id="5"><path d="M288.05 781.216L316.01 781.216L316.01 781.216L316.01 762.016L316.01 762.016L288.05 762.016z" /></clipPath><clipPath id="6"><path d="M84.751 110.23L510.691 110.23L510.691 110.23L510.691 89.44L510.691 89.44L84.751 89.44z" /></clipPath><clipPath id="7"><path d="M84.744 110.22L510.694 110.22L510.694 110.22L510.694 89.43597L510.694 89.43597L84.744 89.43597z" /></clipPath><clipPath id="8"><path d="M84.744 110.22L510.694 110.22L510.694 110.22L510.694 89.43597L510.694 89.43597L84.744 89.43597z" /></clipPath><clipPath id="9"><path d="M84.744 110.22L510.694 110.22L510.694 110.22L510.694 89.43597L510.694 89.43597L84.744 89.43597z" /></clipPath><clipPath id="10"><path d="M84.744 110.22L510.694 110.22L510.694 110.22L510.694 89.43597L510.694 89.43597L84.744 89.43597z" /></clipPath><clipPath id="11"><path d="M84.744 110.22L510.694 110.22L510.694 110.22L510.694 89.43597L510.694 89.43597L84.744 89.43597z" /></clipPath><clipPath id="12"><path d="M84.744 110.22L510.694 110.22L510.694 110.22L510.694 89.43597L510.694 89.43597L84.744 89.43597z" /></clipPath><clipPath id="13"><path d="M84.744 110.22L510.694 110.22L510.694 110.22L510.694 89.43597L510.694 89.43597L84.744 89.43597z" /></clipPath><clipPath id="14"><path d="M84.744 110.22L510.694 110.22L510.694 110.22L510.694 89.43597L510.694 89.43597L84.744 89.43597z" /></clipPath><clipPath id="15"><path d="M84.751 491.76L510.691 491.76L510.691 491.76L510.691 110.71L510.691 110.71L84.751 110.71z" /></clipPath><clipPath id="16"><path d="M84.744 491.75L510.694 491.75L510.694 491.75L510.694 110.7L510.694 110.7L84.744 110.7z" /></clipPath><clipPath id="17"><path d="M84.744 491.75L510.694 491.75L510.694 491.75L510.694 110.7L510.694 110.7L84.744 110.7z" /></clipPath><clipPath id="18"><path d="M84.744 491.75L510.694 491.75L510.694 491.75L510.694 110.7L510.694 110.7L84.744 110.7z" /></clipPath><clipPath id="19"><path d="M84.744 491.75L510.694 491.75L510.694 491.75L510.694 110.7L510.694 110.7L84.744 110.7z" /></clipPath><clipPath id="20"><path d="M84.744 491.75L510.694 491.75L510.694 491.75L510.694 110.7L510.694 110.7L84.744 110.7z" /></clipPath><clipPath id="21"><path d="M84.744 491.75L510.694 491.75L510.694 491.75L510.694 110.7L510.694 110.7L84.744 110.7z" /></clipPath><clipPath id="22"><path d="M84.744 491.75L510.694 491.75L510.694 491.75L510.694 110.7L510.694 110.7L84.744 110.7z" /></clipPath><clipPath id="23"><path d="M84.744 491.75L510.694 491.75L510.694 491.75L510.694 110.7L510.694 110.7L84.744 110.7z" /></clipPath><clipPath id="24"><path d="M84.744 491.75L510.694 491.75L510.694 491.75L510.694 110.7L510.694 110.7L84.744 110.7z" /></clipPath><clipPath id="25"><path d="M84.744 491.75L510.694 491.75L510.694 491.75L510.694 110.7L510.694 110.7L84.744 110.7z" /></clipPath><clipPath id="26"><path d="M84.744 491.75L510.694 491.75L510.694 491.75L510.694 110.7L510.694 110.7L84.744 110.7z" /></clipPath><clipPath id="27"><path d="M84.744 491.75L510.694 491.75L510.694 491.75L510.694 110.7L510.694 110.7L84.744 110.7z" /></clipPath><clipPath id="28"><path d="M84.744 491.75L510.694 491.75L510.694 491.75L510.694 110.7L510.694 110.7L84.744 110.7z" /></clipPath><clipPath id="29"><path d="M84.744 491.75L510.694 491.75L510.694 491.75L510.694 110.7L510.694 110.7L84.744 110.7z" /></clipPath><clipPath id="30"><path d="M84.744 491.75L510.694 491.75L510.694 491.75L510.694 110.7L510.694 110.7L84.744 110.7z" /></clipPath><clipPath id="31"><path d="M84.744 491.75L510.694 491.75L510.694 491.75L510.694 110.7L510.694 110.7L84.744 110.7z" /></clipPath><clipPath id="32"><path d="M84.744 491.75L510.694 491.75L510.694 491.75L510.694 110.7L510.694 110.7L84.744 110.7z" /></clipPath><clipPath id="33"><path d="M84.744 491.75L510.694 491.75L510.694 491.75L510.694 110.7L510.694 110.7L84.744 110.7z" /></clipPath><clipPath id="34"><path d="M84.744 491.75L510.694 491.75L510.694 491.75L510.694 110.7L510.694 110.7L84.744 110.7z" /></clipPath><clipPath id="35"><path d="M84.744 491.75L510.694 491.75L510.694 491.75L510.694 110.7L510.694 110.7L84.744 110.7z" /></clipPath><clipPath id="36"><path d="M84.744 491.75L510.694 491.75L510.694 491.75L510.694 110.7L510.694 110.7L84.744 110.7z" /></clipPath><clipPath id="37"><path d="M84.744 491.75L510.694 491.75L510.694 491.75L510.694 110.7L510.694 110.7L84.744 110.7z" /></clipPath><clipPath id="38"><path d="M84.744 491.75L510.694 491.75L510.694 491.75L510.694 110.7L510.694 110.7L84.744 110.7z" /></clipPath><clipPath id="39"><path d="M84.744 491.75L510.694 491.75L510.694 491.75L510.694 110.7L510.694 110.7L84.744 110.7z" /></clipPath><clipPath id="40"><path d="M84.744 491.75L510.694 491.75L510.694 491.75L510.694 110.7L510.694 110.7L84.744 110.7z" /></clipPath><clipPath id="41"><path d="M84.744 491.75L510.694 491.75L510.694 491.75L510.694 110.7L510.694 110.7L84.744 110.7z" /></clipPath><clipPath id="42"><path d="M84.744 491.75L510.694 491.75L510.694 491.75L510.694 110.7L510.694 110.7L84.744 110.7z" /></clipPath><clipPath id="43"><path d="M84.744 491.75L510.694 491.75L510.694 491.75L510.694 110.7L510.694 110.7L84.744 110.7z" /></clipPath><clipPath id="44"><path d="M84.744 491.75L510.694 491.75L510.694 491.75L510.694 110.7L510.694 110.7L84.744 110.7z" /></clipPath><clipPath id="45"><path d="M84.744 491.75L510.694 491.75L510.694 491.75L510.694 110.7L510.694 110.7L84.744 110.7z" /></clipPath><clipPath id="46"><path d="M84.744 491.75L510.694 491.75L510.694 491.75L510.694 110.7L510.694 110.7L84.744 110.7z" /></clipPath><clipPath id="47"><path d="M84.744 491.75L510.694 491.75L510.694 491.75L510.694 110.7L510.694 110.7L84.744 110.7z" /></clipPath><clipPath id="48"><path d="M84.744 491.75L510.694 491.75L510.694 491.75L510.694 110.7L510.694 110.7L84.744 110.7z" /></clipPath><clipPath id="49"><path d="M84.744 491.75L510.694 491.75L510.694 491.75L510.694 110.7L510.694 110.7L84.744 110.7z" /></clipPath><clipPath id="50"><path d="M84.744 491.75L510.694 491.75L510.694 491.75L510.694 110.7L510.694 110.7L84.744 110.7z" /></clipPath><clipPath id="51"><path d="M84.744 491.75L510.694 491.75L510.694 491.75L510.694 110.7L510.694 110.7L84.744 110.7z" /></clipPath><clipPath id="52"><path d="M84.744 491.75L510.694 491.75L510.694 491.75L510.694 110.7L510.694 110.7L84.744 110.7z" /></clipPath><clipPath id="53"><path d="M84.744 491.75L510.694 491.75L510.694 491.75L510.694 110.7L510.694 110.7L84.744 110.7z" /></clipPath><clipPath id="54"><path d="M84.744 491.75L510.694 491.75L510.694 491.75L510.694 110.7L510.694 110.7L84.744 110.7z" /></clipPath><clipPath id="55"><path d="M84.744 491.75L510.694 491.75L510.694 491.75L510.694 110.7L510.694 110.7L84.744 110.7z" /></clipPath><clipPath id="56"><path d="M84.744 491.75L510.694 491.75L510.694 491.75L510.694 110.7L510.694 110.7L84.744 110.7z" /></clipPath><clipPath id="57"><path d="M84.744 491.75L510.694 491.75L510.694 491.75L510.694 110.7L510.694 110.7L84.744 110.7z" /></clipPath><clipPath id="58"><path d="M84.744 491.75L510.694 491.75L510.694 491.75L510.694 110.7L510.694 110.7L84.744 110.7z" /></clipPath><clipPath id="59"><path d="M84.744 491.75L510.694 491.75L510.694 491.75L510.694 110.7L510.694 110.7L84.744 110.7z" /></clipPath><clipPath id="60"><path d="M84.744 491.75L510.694 491.75L510.694 491.75L510.694 110.7L510.694 110.7L84.744 110.7z" /></clipPath><clipPath id="61"><path d="M84.744 491.75L510.694 491.75L510.694 491.75L510.694 110.7L510.694 110.7L84.744 110.7z" /></clipPath><clipPath id="62"><path d="M84.744 491.75L510.694 491.75L510.694 491.75L510.694 110.7L510.694 110.7L84.744 110.7z" /></clipPath><clipPath id="63"><path d="M84.744 491.75L510.694 491.75L510.694 491.75L510.694 110.7L510.694 110.7L84.744 110.7z" /></clipPath><clipPath id="64"><path d="M84.744 491.75L510.694 491.75L510.694 491.75L510.694 110.7L510.694 110.7L84.744 110.7z" /></clipPath><clipPath id="65"><path d="M84.744 491.75L510.694 491.75L510.694 491.75L510.694 110.7L510.694 110.7L84.744 110.7z" /></clipPath><clipPath id="66"><path d="M84.744 491.75L510.694 491.75L510.694 491.75L510.694 110.7L510.694 110.7L84.744 110.7z" /></clipPath><clipPath id="67"><path d="M84.744 491.75L510.694 491.75L510.694 491.75L510.694 110.7L510.694 110.7L84.744 110.7z" /></clipPath><clipPath id="68"><path d="M84.744 491.75L510.694 491.75L510.694 491.75L510.694 110.7L510.694 110.7L84.744 110.7z" /></clipPath><clipPath id="69"><path d="M84.744 491.75L510.694 491.75L510.694 491.75L510.694 110.7L510.694 110.7L84.744 110.7z" /></clipPath><clipPath id="70"><path d="M84.744 491.75L510.694 491.75L510.694 491.75L510.694 110.7L510.694 110.7L84.744 110.7z" /></clipPath><clipPath id="71"><path d="M84.744 491.75L510.694 491.75L510.694 491.75L510.694 110.7L510.694 110.7L84.744 110.7z" /></clipPath><clipPath id="72"><path d="M84.744 491.75L510.694 491.75L510.694 491.75L510.694 110.7L510.694 110.7L84.744 110.7z" /></clipPath><clipPath id="73"><path d="M84.744 491.75L510.694 491.75L510.694 491.75L510.694 110.7L510.694 110.7L84.744 110.7z" /></clipPath><clipPath id="74"><path d="M84.744 491.75L510.694 491.75L510.694 491.75L510.694 110.7L510.694 110.7L84.744 110.7z" /></clipPath><clipPath id="75"><path d="M84.744 491.75L510.694 491.75L510.694 491.75L510.694 110.7L510.694 110.7L84.744 110.7z" /></clipPath><clipPath id="76"><path d="M84.744 491.75L510.694 491.75L510.694 491.75L510.694 110.7L510.694 110.7L84.744 110.7z" /></clipPath><clipPath id="77"><path d="M84.744 491.75L510.694 491.75L510.694 491.75L510.694 110.7L510.694 110.7L84.744 110.7z" /></clipPath><clipPath id="78"><path d="M84.744 491.75L510.694 491.75L510.694 491.75L510.694 110.7L510.694 110.7L84.744 110.7z" /></clipPath><clipPath id="79"><path d="M84.744 491.75L510.694 491.75L510.694 491.75L510.694 110.7L510.694 110.7L84.744 110.7z" /></clipPath><clipPath id="80"><path d="M84.744 491.75L510.694 491.75L510.694 491.75L510.694 110.7L510.694 110.7L84.744 110.7z" /></clipPath><clipPath id="81"><path d="M84.744 491.75L510.694 491.75L510.694 491.75L510.694 110.7L510.694 110.7L84.744 110.7z" /></clipPath><clipPath id="82"><path d="M84.744 491.75L510.694 491.75L510.694 491.75L510.694 110.7L510.694 110.7L84.744 110.7z" /></clipPath><clipPath id="83"><path d="M84.744 491.75L510.694 491.75L510.694 491.75L510.694 110.7L510.694 110.7L84.744 110.7z" /></clipPath><clipPath id="84"><path d="M84.744 491.75L510.694 491.75L510.694 491.75L510.694 110.7L510.694 110.7L84.744 110.7z" /></clipPath><clipPath id="85"><path d="M84.744 491.75L510.694 491.75L510.694 491.75L510.694 110.7L510.694 110.7L84.744 110.7z" /></clipPath><clipPath id="86"><path d="M84.744 491.75L510.694 491.75L510.694 491.75L510.694 110.7L510.694 110.7L84.744 110.7z" /></clipPath><clipPath id="87"><path d="M84.744 491.75L510.694 491.75L510.694 491.75L510.694 110.7L510.694 110.7L84.744 110.7z" /></clipPath><clipPath id="88"><path d="M84.744 491.75L510.694 491.75L510.694 491.75L510.694 110.7L510.694 110.7L84.744 110.7z" /></clipPath><clipPath id="89"><path d="M84.744 491.75L510.694 491.75L510.694 491.75L510.694 110.7L510.694 110.7L84.744 110.7z" /></clipPath><clipPath id="90"><path d="M84.744 491.75L510.694 491.75L510.694 491.75L510.694 110.7L510.694 110.7L84.744 110.7z" /></clipPath><clipPath id="91"><path d="M84.744 491.75L510.694 491.75L510.694 491.75L510.694 110.7L510.694 110.7L84.744 110.7z" /></clipPath><clipPath id="92"><path d="M84.744 491.75L510.694 491.75L510.694 491.75L510.694 110.7L510.694 110.7L84.744 110.7z" /></clipPath><clipPath id="93"><path d="M84.744 491.75L510.694 491.75L510.694 491.75L510.694 110.7L510.694 110.7L84.744 110.7z" /></clipPath><clipPath id="94"><path d="M84.744 491.75L510.694 491.75L510.694 491.75L510.694 110.7L510.694 110.7L84.744 110.7z" /></clipPath><clipPath id="95"><path d="M84.744 491.75L510.694 491.75L510.694 491.75L510.694 110.7L510.694 110.7L84.744 110.7z" /></clipPath><clipPath id="96"><path d="M84.744 491.75L510.694 491.75L510.694 491.75L510.694 110.7L510.694 110.7L84.744 110.7z" /></clipPath><clipPath id="97"><path d="M84.744 491.75L510.694 491.75L510.694 491.75L510.694 110.7L510.694 110.7L84.744 110.7z" /></clipPath><clipPath id="98"><path d="M84.744 491.75L510.694 491.75L510.694 491.75L510.694 110.7L510.694 110.7L84.744 110.7z" /></clipPath><clipPath id="99"><path d="M84.744 491.75L510.694 491.75L510.694 491.75L510.694 110.7L510.694 110.7L84.744 110.7z" /></clipPath><clipPath id="100"><path d="M84.744 491.75L510.694 491.75L510.694 491.75L510.694 110.7L510.694 110.7L84.744 110.7z" /></clipPath><clipPath id="101"><path d="M84.744 491.75L510.694 491.75L510.694 491.75L510.694 110.7L510.694 110.7L84.744 110.7z" /></clipPath><clipPath id="102"><path d="M84.744 491.75L510.694 491.75L510.694 491.75L510.694 110.7L510.694 110.7L84.744 110.7z" /></clipPath><clipPath id="103"><path d="M84.744 491.75L510.694 491.75L510.694 491.75L510.694 110.7L510.694 110.7L84.744 110.7z" /></clipPath><clipPath id="104"><path d="M84.744 491.75L510.694 491.75L510.694 491.75L510.694 110.7L510.694 110.7L84.744 110.7z" /></clipPath><clipPath id="105"><path d="M84.744 491.75L510.694 491.75L510.694 491.75L510.694 110.7L510.694 110.7L84.744 110.7z" /></clipPath><clipPath id="106"><path d="M84.744 491.75L510.694 491.75L510.694 491.75L510.694 110.7L510.694 110.7L84.744 110.7z" /></clipPath><clipPath id="107"><path d="M84.744 491.75L510.694 491.75L510.694 491.75L510.694 110.7L510.694 110.7L84.744 110.7z" /></clipPath><clipPath id="108"><path d="M84.744 491.75L510.694 491.75L510.694 491.75L510.694 110.7L510.694 110.7L84.744 110.7z" /></clipPath><clipPath id="109"><path d="M84.744 491.75L510.694 491.75L510.694 491.75L510.694 110.7L510.694 110.7L84.744 110.7z" /></clipPath><clipPath id="110"><path d="M84.744 491.75L510.694 491.75L510.694 491.75L510.694 110.7L510.694 110.7L84.744 110.7z" /></clipPath><clipPath id="111"><path d="M84.744 491.75L510.694 491.75L510.694 491.75L510.694 110.7L510.694 110.7L84.744 110.7z" /></clipPath><clipPath id="112"><path d="M84.744 491.75L510.694 491.75L510.694 491.75L510.694 110.7L510.694 110.7L84.744 110.7z" /></clipPath><clipPath id="113"><path d="M84.744 491.75L510.694 491.75L510.694 491.75L510.694 110.7L510.694 110.7L84.744 110.7z" /></clipPath><clipPath id="114"><path d="M84.744 491.75L510.694 491.75L510.694 491.75L510.694 110.7L510.694 110.7L84.744 110.7z" /></clipPath><clipPath id="115"><path d="M84.744 491.75L510.694 491.75L510.694 491.75L510.694 110.7L510.694 110.7L84.744 110.7z" /></clipPath><clipPath id="116"><path d="M84.744 491.75L510.694 491.75L510.694 491.75L510.694 110.7L510.694 110.7L84.744 110.7z" /></clipPath><clipPath id="117"><path d="M84.744 491.75L510.694 491.75L510.694 491.75L510.694 110.7L510.694 110.7L84.744 110.7z" /></clipPath><clipPath id="118"><path d="M84.744 491.75L510.694 491.75L510.694 491.75L510.694 110.7L510.694 110.7L84.744 110.7z" /></clipPath><clipPath id="119"><path d="M84.744 491.75L510.694 491.75L510.694 491.75L510.694 110.7L510.694 110.7L84.744 110.7z" /></clipPath><clipPath id="120"><path d="M84.744 491.75L510.694 491.75L510.694 491.75L510.694 110.7L510.694 110.7L84.744 110.7z" /></clipPath><clipPath id="121"><path d="M84.744 491.75L510.694 491.75L510.694 491.75L510.694 110.7L510.694 110.7L84.744 110.7z" /></clipPath><clipPath id="122"><path d="M84.751 535.92L510.691 535.92L510.691 535.92L510.691 511.8L510.691 511.8L84.751 511.8z" /></clipPath><clipPath id="123"><path d="M84.744 535.91L510.694 535.91L510.694 535.91L510.694 511.79L510.694 511.79L84.744 511.79z" /></clipPath><clipPath id="124"><path d="M84.744 535.91L510.694 535.91L510.694 535.91L510.694 511.79L510.694 511.79L84.744 511.79z" /></clipPath><clipPath id="125"><path d="M84.744 535.91L510.694 535.91L510.694 535.91L510.694 511.79L510.694 511.79L84.744 511.79z" /></clipPath><clipPath id="126"><path d="M84.744 535.91L510.694 535.91L510.694 535.91L510.694 511.79L510.694 511.79L84.744 511.79z" /></clipPath><clipPath id="127"><path d="M84.744 535.91L510.694 535.91L510.694 535.91L510.694 511.79L510.694 511.79L84.744 511.79z" /></clipPath><clipPath id="128"><path d="M84.751 650.76L510.691 650.76L510.691 650.76L510.691 536.4L510.691 536.4L84.751 536.4z" /></clipPath><clipPath id="129"><path d="M84.744 650.75L510.694 650.75L510.694 650.75L510.694 536.39L510.694 536.39L84.744 536.39z" /></clipPath><clipPath id="130"><path d="M84.744 650.75L510.694 650.75L510.694 650.75L510.694 536.39L510.694 536.39L84.744 536.39z" /></clipPath><clipPath id="131"><path d="M84.744 650.75L510.694 650.75L510.694 650.75L510.694 536.39L510.694 536.39L84.744 536.39z" /></clipPath><clipPath id="132"><path d="M84.744 650.75L510.694 650.75L510.694 650.75L510.694 536.39L510.694 536.39L84.744 536.39z" /></clipPath><clipPath id="133"><path d="M84.744 650.75L510.694 650.75L510.694 650.75L510.694 536.39L510.694 536.39L84.744 536.39z" /></clipPath><clipPath id="134"><path d="M84.744 650.75L510.694 650.75L510.694 650.75L510.694 536.39L510.694 536.39L84.744 536.39z" /></clipPath><clipPath id="135"><path d="M84.744 650.75L510.694 650.75L510.694 650.75L510.694 536.39L510.694 536.39L84.744 536.39z" /></clipPath><clipPath id="136"><path d="M84.744 650.75L510.694 650.75L510.694 650.75L510.694 536.39L510.694 536.39L84.744 536.39z" /></clipPath><clipPath id="137"><path d="M84.744 650.75L510.694 650.75L510.694 650.75L510.694 536.39L510.694 536.39L84.744 536.39z" /></clipPath><clipPath id="138"><path d="M84.744 650.75L510.694 650.75L510.694 650.75L510.694 536.39L510.694 536.39L84.744 536.39z" /></clipPath><clipPath id="139"><path d="M84.744 650.75L510.694 650.75L510.694 650.75L510.694 536.39L510.694 536.39L84.744 536.39z" /></clipPath><clipPath id="140"><path d="M84.744 650.75L510.694 650.75L510.694 650.75L510.694 536.39L510.694 536.39L84.744 536.39z" /></clipPath><clipPath id="141"><path d="M84.744 650.75L510.694 650.75L510.694 650.75L510.694 536.39L510.694 536.39L84.744 536.39z" /></clipPath><clipPath id="142"><path d="M84.744 650.75L510.694 650.75L510.694 650.75L510.694 536.39L510.694 536.39L84.744 536.39z" /></clipPath><clipPath id="143"><path d="M84.744 650.75L510.694 650.75L510.694 650.75L510.694 536.39L510.694 536.39L84.744 536.39z" /></clipPath><clipPath id="144"><path d="M84.744 650.75L510.694 650.75L510.694 650.75L510.694 536.39L510.694 536.39L84.744 536.39z" /></clipPath><clipPath id="145"><path d="M84.744 650.75L510.694 650.75L510.694 650.75L510.694 536.39L510.694 536.39L84.744 536.39z" /></clipPath><clipPath id="146"><path d="M84.744 650.75L510.694 650.75L510.694 650.75L510.694 536.39L510.694 536.39L84.744 536.39z" /></clipPath><clipPath id="147"><path d="M84.744 650.75L510.694 650.75L510.694 650.75L510.694 536.39L510.694 536.39L84.744 536.39z" /></clipPath><clipPath id="148"><path d="M84.744 650.75L510.694 650.75L510.694 650.75L510.694 536.39L510.694 536.39L84.744 536.39z" /></clipPath><clipPath id="149"><path d="M84.744 650.75L510.694 650.75L510.694 650.75L510.694 536.39L510.694 536.39L84.744 536.39z" /></clipPath><clipPath id="150"><path d="M84.751 694.93L510.691 694.93L510.691 694.93L510.691 670.81L510.691 670.81L84.751 670.81z" /></clipPath><clipPath id="151"><path d="M84.744 694.94L510.694 694.94L510.694 694.94L510.694 670.82L510.694 670.82L84.744 670.82z" /></clipPath><clipPath id="152"><path d="M84.744 694.94L510.694 694.94L510.694 694.94L510.694 670.82L510.694 670.82L84.744 670.82z" /></clipPath><clipPath id="153"><path d="M84.744 694.94L510.694 694.94L510.694 694.94L510.694 670.82L510.694 670.82L84.744 670.82z" /></clipPath><clipPath id="154"><path d="M84.744 694.94L510.694 694.94L510.694 694.94L510.694 670.82L510.694 670.82L84.744 670.82z" /></clipPath><clipPath id="155"><path d="M84.744 694.94L510.694 694.94L510.694 694.94L510.694 670.82L510.694 670.82L84.744 670.82z" /></clipPath><clipPath id="156"><path d="M84.744 694.94L510.694 694.94L510.694 694.94L510.694 670.82L510.694 670.82L84.744 670.82z" /></clipPath><clipPath id="157"><path d="M84.744 694.94L510.694 694.94L510.694 694.94L510.694 670.82L510.694 670.82L84.744 670.82z" /></clipPath><clipPath id="158"><path d="M84.751 733.57L510.691 733.57L510.691 733.57L510.691 695.41L510.691 695.41L84.751 695.41z" /></clipPath><clipPath id="159"><path d="M84.744 733.58L510.694 733.58L510.694 733.58L510.694 695.42L510.694 695.42L84.744 695.42z" /></clipPath><clipPath id="160"><path d="M84.744 733.58L510.694 733.58L510.694 733.58L510.694 695.42L510.694 695.42L84.744 695.42z" /></clipPath><clipPath id="161"><path d="M84.744 733.58L510.694 733.58L510.694 733.58L510.694 695.42L510.694 695.42L84.744 695.42z" /></clipPath><clipPath id="162"><path d="M84.744 733.58L510.694 733.58L510.694 733.58L510.694 695.42L510.694 695.42L84.744 695.42z" /></clipPath><clipPath id="163"><path d="M84.744 733.58L510.694 733.58L510.694 733.58L510.694 695.42L510.694 695.42L84.744 695.42z" /></clipPath></defs><g transform="matrix(1.333333 0 0 1.333333 0 0)"><g><g clip-path="url(#1)"><path transform="matrix(1 0 0 -1 0 841)" d="M457.51 53.304L505.534 53.304L505.534 53.304L505.534 53.90404L505.534 53.90404L457.51 53.90404z" stroke="none" fill="#000000" fill-rule="evenodd" /><g clip-path="url(#2)"><path transform="matrix(1 0 0 -1 0 841)" d="M88.464 77.904L506.974 77.904L506.974 77.904L506.974 80.904L506.974 80.904L88.464 80.904z" stroke="none" fill="#000000" fill-rule="evenodd" /><path transform="matrix(1 0 0 -1 0 841)" d="M88.464 76.464L506.974 76.464L506.974 76.464L506.974 77.18397L506.974 77.18397L88.464 77.18397z" stroke="none" fill="#000000" fill-rule="evenodd" /></g><g clip-path="url(#3)"><g clip-path="url(#4)"></g><g clip-path="url(#5)"></g></g><path transform="matrix(1 0 0 -1 0 841)" d="M84.744 730.78L510.694 730.78L510.694 730.78L510.694 751.564L510.694 751.564L84.744 751.564z" stroke="none" fill="#0070C0" fill-rule="evenodd" /><g clip-path="url(#6)"><path transform="matrix(1 0 0 -1 0 841)" d="M89.904 732.46L505.534 732.46L505.534 732.46L505.534 751.564L505.534 751.564L89.904 751.564z" stroke="none" fill="#0070C0" fill-rule="evenodd" /><g clip-path="url(#7)"></g><g clip-path="url(#8)"></g><g clip-path="url(#9)"></g><g clip-path="url(#10)"></g><g clip-path="url(#11)"></g><g clip-path="url(#12)"></g><g clip-path="url(#13)"></g><g clip-path="url(#14)"></g></g><path transform="matrix(1 0 0 -1 0 841)" d="M84.264 751.56L84.744 751.56L84.744 751.56L84.744 752.04L84.744 752.04L84.264 752.04z" stroke="none" fill="#000000" fill-rule="evenodd" /><path transform="matrix(1 0 0 -1 0 841)" d="M84.264 751.56L84.744 751.56L84.744 751.56L84.744 752.04L84.744 752.04L84.264 752.04z" stroke="none" fill="#000000" fill-rule="evenodd" /><path transform="matrix(1 0 0 -1 0 841)" d="M84.744 751.56L510.694 751.56L510.694 751.56L510.694 752.04L510.694 752.04L84.744 752.04z" stroke="none" fill="#000000" fill-rule="evenodd" /><path transform="matrix(1 0 0 -1 0 841)" d="M510.7 751.56L511.18 751.56L511.18 751.56L511.18 752.04L511.18 752.04L510.7 752.04z" stroke="none" fill="#000000" fill-rule="evenodd" /><path transform="matrix(1 0 0 -1 0 841)" d="M510.7 751.56L511.18 751.56L511.18 751.56L511.18 752.04L511.18 752.04L510.7 752.04z" stroke="none" fill="#000000" fill-rule="evenodd" /><path transform="matrix(1 0 0 -1 0 841)" d="M84.264 730.78L84.744 730.78L84.744 730.78L84.744 751.564L84.744 751.564L84.264 751.564z" stroke="none" fill="#000000" fill-rule="evenodd" /><path transform="matrix(1 0 0 -1 0 841)" d="M510.7 730.78L511.18 730.78L511.18 730.78L511.18 751.564L511.18 751.564L510.7 751.564z" stroke="none" fill="#000000" fill-rule="evenodd" /><path transform="matrix(1 0 0 -1 0 841)" d="M84.744 349.25L510.694 349.25L510.694 349.25L510.694 730.3L510.694 730.3L84.744 730.3z" stroke="none" fill="#DAEEF3" fill-rule="evenodd" /><g clip-path="url(#15)"><path transform="matrix(1 0 0 -1 0 841)" d="M89.904 711.22L505.534 711.22L505.534 711.22L505.534 730.3L505.534 730.3L89.904 730.3z" stroke="none" fill="#DAEEF3" fill-rule="evenodd" /><g clip-path="url(#16)"></g><g clip-path="url(#17)"></g><g clip-path="url(#18)"></g><g clip-path="url(#19)"></g><path transform="matrix(1 0 0 -1 0 841)" d="M89.904 692.26L505.534 692.26L505.534 692.26L505.534 711.22L505.534 711.22L89.904 711.22z" stroke="none" fill="#DAEEF3" fill-rule="evenodd" /><g clip-path="url(#20)"></g><g clip-path="url(#21)"></g><g clip-path="url(#22)"></g><g clip-path="url(#23)"></g><path transform="matrix(1 0 0 -1 0 841)" d="M89.904 673.18L505.534 673.18L505.534 673.18L505.534 692.26L505.534 692.26L89.904 692.26z" stroke="none" fill="#DAEEF3" fill-rule="evenodd" /><g clip-path="url(#24)"></g><g clip-path="url(#25)"></g><g clip-path="url(#26)"></g><g clip-path="url(#27)"></g><path transform="matrix(1 0 0 -1 0 841)" d="M89.904 654.1L505.534 654.1L505.534 654.1L505.534 673.18L505.534 673.18L89.904 673.18z" stroke="none" fill="#DAEEF3" fill-rule="evenodd" /><g clip-path="url(#28)"></g><g clip-path="url(#29)"></g><g clip-path="url(#30)"></g><g clip-path="url(#31)"></g><g clip-path="url(#32)"></g><g clip-path="url(#33)"></g><g clip-path="url(#34)"></g><g clip-path="url(#35)"></g><g clip-path="url(#36)"></g><g clip-path="url(#37)"></g><g clip-path="url(#38)"></g><g clip-path="url(#39)"></g><g clip-path="url(#40)"></g><g clip-path="url(#41)"></g><g clip-path="url(#42)"></g><g clip-path="url(#43)"></g><g clip-path="url(#44)"></g><g clip-path="url(#45)"></g><g clip-path="url(#46)"></g><g clip-path="url(#47)"></g><g clip-path="url(#48)"></g><path transform="matrix(1 0 0 -1 0 841)" d="M89.904 635.02L505.534 635.02L505.534 635.02L505.534 654.1L505.534 654.1L89.904 654.1z" stroke="none" fill="#DAEEF3" fill-rule="evenodd" /><g clip-path="url(#49)"></g><g clip-path="url(#50)"></g><g clip-path="url(#51)"></g><g clip-path="url(#52)"></g><g clip-path="url(#53)"></g><g clip-path="url(#54)"></g><g clip-path="url(#55)"></g><g clip-path="url(#56)"></g><g clip-path="url(#57)"></g><g clip-path="url(#58)"></g><g clip-path="url(#59)"></g><path transform="matrix(1 0 0 -1 0 841)" d="M89.904 616.06L505.534 616.06L505.534 616.06L505.534 635.02L505.534 635.02L89.904 635.02z" stroke="none" fill="#DAEEF3" fill-rule="evenodd" /><g clip-path="url(#60)"></g><g clip-path="url(#61)"></g><g clip-path="url(#62)"></g><g clip-path="url(#63)"></g><g clip-path="url(#64)"></g><g clip-path="url(#65)"></g><path transform="matrix(1 0 0 -1 0 841)" d="M89.904 596.98L505.534 596.98L505.534 596.98L505.534 616.06L505.534 616.06L89.904 616.06z" stroke="none" fill="#DAEEF3" fill-rule="evenodd" /><g clip-path="url(#66)"></g><g clip-path="url(#67)"></g><g clip-path="url(#68)"></g><g clip-path="url(#69)"></g><path transform="matrix(1 0 0 -1 0 841)" d="M89.904 577.9L505.534 577.9L505.534 577.9L505.534 596.98L505.534 596.98L89.904 596.98z" stroke="none" fill="#DAEEF3" fill-rule="evenodd" /><g clip-path="url(#70)"></g><g clip-path="url(#71)"></g><g clip-path="url(#72)"></g><g clip-path="url(#73)"></g><path transform="matrix(1 0 0 -1 0 841)" d="M89.904 558.79L505.534 558.79L505.534 558.79L505.534 577.894L505.534 577.894L89.904 577.894z" stroke="none" fill="#DAEEF3" fill-rule="evenodd" /><g clip-path="url(#74)"></g><g clip-path="url(#75)"></g><g clip-path="url(#76)"></g><g clip-path="url(#77)"></g><path transform="matrix(1 0 0 -1 0 841)" d="M89.904 539.83L505.534 539.83L505.534 539.83L505.534 558.79L505.534 558.79L89.904 558.79z" stroke="none" fill="#DAEEF3" fill-rule="evenodd" /><g clip-path="url(#78)"></g><g clip-path="url(#79)"></g><g clip-path="url(#80)"></g><g clip-path="url(#81)"></g><path transform="matrix(1 0 0 -1 0 841)" d="M89.904 520.75L505.534 520.75L505.534 520.75L505.534 539.83L505.534 539.83L89.904 539.83z" stroke="none" fill="#DAEEF3" fill-rule="evenodd" /><g clip-path="url(#82)"></g><g clip-path="url(#83)"></g><g clip-path="url(#84)"></g><g clip-path="url(#85)"></g><g clip-path="url(#86)"></g><g clip-path="url(#87)"></g><path transform="matrix(1 0 0 -1 0 841)" d="M89.904 501.67L505.534 501.67L505.534 501.67L505.534 520.75L505.534 520.75L89.904 520.75z" stroke="none" fill="#DAEEF3" fill-rule="evenodd" /><g clip-path="url(#88)"></g><g clip-path="url(#89)"></g><g clip-path="url(#90)"></g><path transform="matrix(1 0 0 -1 0 841)" d="M89.904 482.59L505.534 482.59L505.534 482.59L505.534 501.67L505.534 501.67L89.904 501.67z" stroke="none" fill="#DAEEF3" fill-rule="evenodd" /><g clip-path="url(#91)"></g><g clip-path="url(#92)"></g><g clip-path="url(#93)"></g><g clip-path="url(#94)"></g><g clip-path="url(#95)"></g><path transform="matrix(1 0 0 -1 0 841)" d="M89.904 463.63L505.534 463.63L505.534 463.63L505.534 482.59L505.534 482.59L89.904 482.59z" stroke="none" fill="#DAEEF3" fill-rule="evenodd" /><g clip-path="url(#96)"></g><g clip-path="url(#97)"></g><g clip-path="url(#98)"></g><g clip-path="url(#99)"></g><path transform="matrix(1 0 0 -1 0 841)" d="M89.904 444.55L505.534 444.55L505.534 444.55L505.534 463.63L505.534 463.63L89.904 463.63z" stroke="none" fill="#DAEEF3" fill-rule="evenodd" /><g clip-path="url(#100)"></g><g clip-path="url(#101)"></g><g clip-path="url(#102)"></g><g clip-path="url(#103)"></g><path transform="matrix(1 0 0 -1 0 841)" d="M89.904 425.47L505.534 425.47L505.534 425.47L505.534 444.55L505.534 444.55L89.904 444.55z" stroke="none" fill="#DAEEF3" fill-rule="evenodd" /><g clip-path="url(#104)"></g><g clip-path="url(#105)"></g><g clip-path="url(#106)"></g><g clip-path="url(#107)"></g><path transform="matrix(1 0 0 -1 0 841)" d="M89.904 406.39L505.534 406.39L505.534 406.39L505.534 425.47L505.534 425.47L89.904 425.47z" stroke="none" fill="#DAEEF3" fill-rule="evenodd" /><g clip-path="url(#108)"></g><g clip-path="url(#109)"></g><g clip-path="url(#110)"></g><g clip-path="url(#111)"></g><path transform="matrix(1 0 0 -1 0 841)" d="M89.904 387.43L505.534 387.43L505.534 387.43L505.534 406.39L505.534 406.39L89.904 406.39z" stroke="none" fill="#DAEEF3" fill-rule="evenodd" /><g clip-path="url(#112)"></g><g clip-path="url(#113)"></g><g clip-path="url(#114)"></g><g clip-path="url(#115)"></g><path transform="matrix(1 0 0 -1 0 841)" d="M89.904 368.33L505.534 368.33L505.534 368.33L505.534 387.434L505.534 387.434L89.904 387.434z" stroke="none" fill="#DAEEF3" fill-rule="evenodd" /><g clip-path="url(#116)"></g><g clip-path="url(#117)"></g><g clip-path="url(#118)"></g><path transform="matrix(1 0 0 -1 0 841)" d="M89.904 349.25L505.534 349.25L505.534 349.25L505.534 368.33L505.534 368.33L89.904 368.33z" stroke="none" fill="#DAEEF3" fill-rule="evenodd" /><g clip-path="url(#119)"></g><g clip-path="url(#120)"></g><g clip-path="url(#121)"></g></g><path transform="matrix(1 0 0 -1 0 841)" d="M84.264 730.3L84.744 730.3L84.744 730.3L84.744 730.78L84.744 730.78L84.264 730.78z" stroke="none" fill="#000000" fill-rule="evenodd" /><path transform="matrix(1 0 0 -1 0 841)" d="M84.744 730.3L510.694 730.3L510.694 730.3L510.694 730.78L510.694 730.78L84.744 730.78z" stroke="none" fill="#000000" fill-rule="evenodd" /><path transform="matrix(1 0 0 -1 0 841)" d="M510.7 730.3L511.18 730.3L511.18 730.3L511.18 730.78L511.18 730.78L510.7 730.78z" stroke="none" fill="#000000" fill-rule="evenodd" /><path transform="matrix(1 0 0 -1 0 841)" d="M84.264 349.25L84.744 349.25L84.744 349.25L84.744 730.3L84.744 730.3L84.264 730.3z" stroke="none" fill="#000000" fill-rule="evenodd" /><path transform="matrix(1 0 0 -1 0 841)" d="M84.264 348.77L84.744 348.77L84.744 348.77L84.744 349.25L84.744 349.25L84.264 349.25z" stroke="none" fill="#000000" fill-rule="evenodd" /><path transform="matrix(1 0 0 -1 0 841)" d="M84.264 348.77L84.744 348.77L84.744 348.77L84.744 349.25L84.744 349.25L84.264 349.25z" stroke="none" fill="#000000" fill-rule="evenodd" /><path transform="matrix(1 0 0 -1 0 841)" d="M84.744 348.77L510.694 348.77L510.694 348.77L510.694 349.25L510.694 349.25L84.744 349.25z" stroke="none" fill="#000000" fill-rule="evenodd" /><path transform="matrix(1 0 0 -1 0 841)" d="M510.7 349.25L511.18 349.25L511.18 349.25L511.18 730.3L511.18 730.3L510.7 730.3z" stroke="none" fill="#000000" fill-rule="evenodd" /><path transform="matrix(1 0 0 -1 0 841)" d="M510.7 348.77L511.18 348.77L511.18 348.77L511.18 349.25L511.18 349.25L510.7 349.25z" stroke="none" fill="#000000" fill-rule="evenodd" /><path transform="matrix(1 0 0 -1 0 841)" d="M510.7 348.77L511.18 348.77L511.18 348.77L511.18 349.25L511.18 349.25L510.7 349.25z" stroke="none" fill="#000000" fill-rule="evenodd" /><path transform="matrix(1 0 0 -1 0 841)" d="M84.744 305.09L510.694 305.09L510.694 305.09L510.694 329.21L510.694 329.21L84.744 329.21z" stroke="none" fill="#0070C0" fill-rule="evenodd" /><g clip-path="url(#122)"><path transform="matrix(1 0 0 -1 0 841)" d="M89.904 305.09L505.534 305.09L505.534 305.09L505.534 329.21L505.534 329.21L89.904 329.21z" stroke="none" fill="#0070C0" fill-rule="evenodd" /><g clip-path="url(#123)"></g><g clip-path="url(#124)"></g><g clip-path="url(#125)"></g><g clip-path="url(#126)"></g><g clip-path="url(#127)"></g></g><path transform="matrix(1 0 0 -1 0 841)" d="M84.264 329.21L84.744 329.21L84.744 329.21L84.744 329.69L84.744 329.69L84.264 329.69z" stroke="none" fill="#000000" fill-rule="evenodd" /><path transform="matrix(1 0 0 -1 0 841)" d="M84.264 329.21L84.744 329.21L84.744 329.21L84.744 329.69L84.744 329.69L84.264 329.69z" stroke="none" fill="#000000" fill-rule="evenodd" /><path transform="matrix(1 0 0 -1 0 841)" d="M84.744 329.21L510.694 329.21L510.694 329.21L510.694 329.69L510.694 329.69L84.744 329.69z" stroke="none" fill="#000000" fill-rule="evenodd" /><path transform="matrix(1 0 0 -1 0 841)" d="M510.7 329.21L511.18 329.21L511.18 329.21L511.18 329.69L511.18 329.69L510.7 329.69z" stroke="none" fill="#000000" fill-rule="evenodd" /><path transform="matrix(1 0 0 -1 0 841)" d="M510.7 329.21L511.18 329.21L511.18 329.21L511.18 329.69L511.18 329.69L510.7 329.69z" stroke="none" fill="#000000" fill-rule="evenodd" /><path transform="matrix(1 0 0 -1 0 841)" d="M84.264 305.09L84.744 305.09L84.744 305.09L84.744 329.21L84.744 329.21L84.264 329.21z" stroke="none" fill="#000000" fill-rule="evenodd" /><path transform="matrix(1 0 0 -1 0 841)" d="M510.7 305.09L511.18 305.09L511.18 305.09L511.18 329.21L511.18 329.21L510.7 329.21z" stroke="none" fill="#000000" fill-rule="evenodd" /><path transform="matrix(1 0 0 -1 0 841)" d="M84.744 190.25L510.694 190.25L510.694 190.25L510.694 304.61L510.694 304.61L84.744 304.61z" stroke="none" fill="#DAEEF3" fill-rule="evenodd" /><g clip-path="url(#128)"><path transform="matrix(1 0 0 -1 0 841)" d="M89.904 285.53L505.534 285.53L505.534 285.53L505.534 304.61L505.534 304.61L89.904 304.61z" stroke="none" fill="#DAEEF3" fill-rule="evenodd" /><g clip-path="url(#129)"></g><g clip-path="url(#130)"></g><g clip-path="url(#131)"></g><path transform="matrix(1 0 0 -1 0 841)" d="M89.904 266.45L505.534 266.45L505.534 266.45L505.534 285.53L505.534 285.53L89.904 285.53z" stroke="none" fill="#DAEEF3" fill-rule="evenodd" /><g clip-path="url(#132)"></g><g clip-path="url(#133)"></g><g clip-path="url(#134)"></g><g clip-path="url(#135)"></g><path transform="matrix(1 0 0 -1 0 841)" d="M89.904 247.37L505.534 247.37L505.534 247.37L505.534 266.45L505.534 266.45L89.904 266.45z" stroke="none" fill="#DAEEF3" fill-rule="evenodd" /><g clip-path="url(#136)"></g><g clip-path="url(#137)"></g><g clip-path="url(#138)"></g><g clip-path="url(#139)"></g><path transform="matrix(1 0 0 -1 0 841)" d="M89.904 228.41L505.534 228.41L505.534 228.41L505.534 247.37L505.534 247.37L89.904 247.37z" stroke="none" fill="#DAEEF3" fill-rule="evenodd" /><g clip-path="url(#140)"></g><g clip-path="url(#141)"></g><g clip-path="url(#142)"></g><g clip-path="url(#143)"></g><path transform="matrix(1 0 0 -1 0 841)" d="M89.904 209.33L505.534 209.33L505.534 209.33L505.534 228.41L505.534 228.41L89.904 228.41z" stroke="none" fill="#DAEEF3" fill-rule="evenodd" /><g clip-path="url(#144)"></g><g clip-path="url(#145)"></g><g clip-path="url(#146)"></g><g clip-path="url(#147)"></g><path transform="matrix(1 0 0 -1 0 841)" d="M89.904 190.25L505.534 190.25L505.534 190.25L505.534 209.33L505.534 209.33L89.904 209.33z" stroke="none" fill="#DAEEF3" fill-rule="evenodd" /><g clip-path="url(#148)"></g><g clip-path="url(#149)"></g></g><path transform="matrix(1 0 0 -1 0 841)" d="M84.264 304.61L84.744 304.61L84.744 304.61L84.744 305.09L84.744 305.09L84.264 305.09z" stroke="none" fill="#000000" fill-rule="evenodd" /><path transform="matrix(1 0 0 -1 0 841)" d="M84.744 304.61L510.694 304.61L510.694 304.61L510.694 305.09L510.694 305.09L84.744 305.09z" stroke="none" fill="#000000" fill-rule="evenodd" /><path transform="matrix(1 0 0 -1 0 841)" d="M510.7 304.61L511.18 304.61L511.18 304.61L511.18 305.09L511.18 305.09L510.7 305.09z" stroke="none" fill="#000000" fill-rule="evenodd" /><path transform="matrix(1 0 0 -1 0 841)" d="M84.264 190.25L84.744 190.25L84.744 190.25L84.744 304.61L84.744 304.61L84.264 304.61z" stroke="none" fill="#000000" fill-rule="evenodd" /><path transform="matrix(1 0 0 -1 0 841)" d="M84.264 189.77L84.744 189.77L84.744 189.77L84.744 190.25L84.744 190.25L84.264 190.25z" stroke="none" fill="#000000" fill-rule="evenodd" /><path transform="matrix(1 0 0 -1 0 841)" d="M84.264 189.77L84.744 189.77L84.744 189.77L84.744 190.25L84.744 190.25L84.264 190.25z" stroke="none" fill="#000000" fill-rule="evenodd" /><path transform="matrix(1 0 0 -1 0 841)" d="M84.744 189.77L510.694 189.77L510.694 189.77L510.694 190.25L510.694 190.25L84.744 190.25z" stroke="none" fill="#000000" fill-rule="evenodd" /><path transform="matrix(1 0 0 -1 0 841)" d="M510.7 190.25L511.18 190.25L511.18 190.25L511.18 304.61L511.18 304.61L510.7 304.61z" stroke="none" fill="#000000" fill-rule="evenodd" /><path transform="matrix(1 0 0 -1 0 841)" d="M510.7 189.77L511.18 189.77L511.18 189.77L511.18 190.25L511.18 190.25L510.7 190.25z" stroke="none" fill="#000000" fill-rule="evenodd" /><path transform="matrix(1 0 0 -1 0 841)" d="M510.7 189.77L511.18 189.77L511.18 189.77L511.18 190.25L511.18 190.25L510.7 190.25z" stroke="none" fill="#000000" fill-rule="evenodd" /><path transform="matrix(1 0 0 -1 0 841)" d="M84.744 146.06L510.694 146.06L510.694 146.06L510.694 170.18L510.694 170.18L84.744 170.18z" stroke="none" fill="#0070C0" fill-rule="evenodd" /><g clip-path="url(#150)"><path transform="matrix(1 0 0 -1 0 841)" d="M89.904 146.06L505.534 146.06L505.534 146.06L505.534 170.18L505.534 170.18L89.904 170.18z" stroke="none" fill="#0070C0" fill-rule="evenodd" /><g clip-path="url(#151)"></g><g clip-path="url(#152)"></g><g clip-path="url(#153)"></g><g clip-path="url(#154)"></g><g clip-path="url(#155)"></g><g clip-path="url(#156)"></g><g clip-path="url(#157)"></g></g><path transform="matrix(1 0 0 -1 0 841)" d="M84.264 170.18L84.744 170.18L84.744 170.18L84.744 170.66L84.744 170.66L84.264 170.66z" stroke="none" fill="#000000" fill-rule="evenodd" /><path transform="matrix(1 0 0 -1 0 841)" d="M84.264 170.18L84.744 170.18L84.744 170.18L84.744 170.66L84.744 170.66L84.264 170.66z" stroke="none" fill="#000000" fill-rule="evenodd" /><path transform="matrix(1 0 0 -1 0 841)" d="M84.744 170.18L510.694 170.18L510.694 170.18L510.694 170.66L510.694 170.66L84.744 170.66z" stroke="none" fill="#000000" fill-rule="evenodd" /><path transform="matrix(1 0 0 -1 0 841)" d="M510.7 170.18L511.18 170.18L511.18 170.18L511.18 170.66L511.18 170.66L510.7 170.66z" stroke="none" fill="#000000" fill-rule="evenodd" /><path transform="matrix(1 0 0 -1 0 841)" d="M510.7 170.18L511.18 170.18L511.18 170.18L511.18 170.66L511.18 170.66L510.7 170.66z" stroke="none" fill="#000000" fill-rule="evenodd" /><path transform="matrix(1 0 0 -1 0 841)" d="M84.264 146.06L84.744 146.06L84.744 146.06L84.744 170.18L84.744 170.18L84.264 170.18z" stroke="none" fill="#000000" fill-rule="evenodd" /><path transform="matrix(1 0 0 -1 0 841)" d="M510.7 146.06L511.18 146.06L511.18 146.06L511.18 170.18L511.18 170.18L510.7 170.18z" stroke="none" fill="#000000" fill-rule="evenodd" /><path transform="matrix(1 0 0 -1 0 841)" d="M84.744 107.42L510.694 107.42L510.694 107.42L510.694 145.58L510.694 145.58L84.744 145.58z" stroke="none" fill="#DAEEF3" fill-rule="evenodd" /><g clip-path="url(#158)"><path transform="matrix(1 0 0 -1 0 841)" d="M89.904 126.5L505.534 126.5L505.534 126.5L505.534 145.58L505.534 145.58L89.904 145.58z" stroke="none" fill="#DAEEF3" fill-rule="evenodd" /><g clip-path="url(#159)"></g><g clip-path="url(#160)"></g><path transform="matrix(1 0 0 -1 0 841)" d="M89.904 107.42L505.534 107.42L505.534 107.42L505.534 126.5L505.534 126.5L89.904 126.5z" stroke="none" fill="#DAEEF3" fill-rule="evenodd" /><g clip-path="url(#161)"></g><g clip-path="url(#162)"></g><g clip-path="url(#163)"></g></g><path transform="matrix(1 0 0 -1 0 841)" d="M84.264 145.58L84.744 145.58L84.744 145.58L84.744 146.06L84.744 146.06L84.264 146.06z" stroke="none" fill="#000000" fill-rule="evenodd" /><path transform="matrix(1 0 0 -1 0 841)" d="M84.744 145.58L510.694 145.58L510.694 145.58L510.694 146.06L510.694 146.06L84.744 146.06z" stroke="none" fill="#000000" fill-rule="evenodd" /><path transform="matrix(1 0 0 -1 0 841)" d="M510.7 145.58L511.18 145.58L511.18 145.58L511.18 146.06L511.18 146.06L510.7 146.06z" stroke="none" fill="#000000" fill-rule="evenodd" /><path transform="matrix(1 0 0 -1 0 841)" d="M84.264 107.42L84.744 107.42L84.744 107.42L84.744 145.58L84.744 145.58L84.264 145.58z" stroke="none" fill="#000000" fill-rule="evenodd" /><path transform="matrix(1 0 0 -1 0 841)" d="M84.264 106.94L84.744 106.94L84.744 106.94L84.744 107.42L84.744 107.42L84.264 107.42z" stroke="none" fill="#000000" fill-rule="evenodd" /><path transform="matrix(1 0 0 -1 0 841)" d="M84.264 106.94L84.744 106.94L84.744 106.94L84.744 107.42L84.744 107.42L84.264 107.42z" stroke="none" fill="#000000" fill-rule="evenodd" /><path transform="matrix(1 0 0 -1 0 841)" d="M84.744 106.94L510.694 106.94L510.694 106.94L510.694 107.42L510.694 107.42L84.744 107.42z" stroke="none" fill="#000000" fill-rule="evenodd" /><path transform="matrix(1 0 0 -1 0 841)" d="M510.7 107.42L511.18 107.42L511.18 107.42L511.18 145.58L511.18 145.58L510.7 145.58z" stroke="none" fill="#000000" fill-rule="evenodd" /><path transform="matrix(1 0 0 -1 0 841)" d="M510.7 106.94L511.18 106.94L511.18 106.94L511.18 107.42L511.18 107.42L510.7 107.42z" stroke="none" fill="#000000" fill-rule="evenodd" /><path transform="matrix(1 0 0 -1 0 841)" d="M510.7 106.94L511.18 106.94L511.18 106.94L511.18 107.42L511.18 107.42L510.7 107.42z" stroke="none" fill="#000000" fill-rule="evenodd" /></g></g></g></svg>