<svg xmlns="http://www.w3.org/2000/svg" xmlns:xlink="http://www.w3.org/1999/xlink" id="body_131" preserveAspectRatio="xMinYMin meet" viewBox="0 0 793 1121"><defs><clipPath id="1"><path d="M0 841L0 -0.9199829L0 -0.9199829L595.32 -0.9199829L595.32 -0.9199829L595.32 841L595.32 841L0 841z" /></clipPath><clipPath id="2"><path d="M0.00125 841.0914L595.4112 841.0914L595.4112 841.0914L595.4112 -0.9186401L595.4112 -0.9186401L0.00125 -0.9186401z" /></clipPath><clipPath id="3"><path d="M288.05 781.211L316.01 781.211L316.01 781.211L316.01 762.011L316.01 762.011L288.05 762.011z" /></clipPath><clipPath id="4"><path d="M288.05 781.216L316.01 781.216L316.01 781.216L316.01 762.016L316.01 762.016L288.05 762.016z" /></clipPath><clipPath id="5"><path d="M288.05 781.216L316.01 781.216L316.01 781.216L316.01 762.016L316.01 762.016L288.05 762.016z" /></clipPath><clipPath id="6"><path d="M84.751 109.51L162.031 109.51L162.031 109.51L162.031 89.44L162.031 89.44L84.751 89.44z" /></clipPath><clipPath id="7"><path d="M84.744 109.5L162.024 109.5L162.024 109.5L162.024 89.43597L162.024 89.43597L84.744 89.43597z" /></clipPath><clipPath id="8"><path d="M84.744 109.5L162.024 109.5L162.024 109.5L162.024 89.43597L162.024 89.43597L84.744 89.43597z" /></clipPath><clipPath id="9"><path d="M162.51 109.51L211.245 109.51L211.245 109.51L211.245 89.44L211.245 89.44L162.51 89.44z" /></clipPath><clipPath id="10"><path d="M162.5 109.5L211.244 109.5L211.244 109.5L211.244 89.43597L211.244 89.43597L162.5 89.43597z" /></clipPath><clipPath id="11"><path d="M162.5 109.5L211.244 109.5L211.244 109.5L211.244 89.43597L211.244 89.43597L162.5 89.43597z" /></clipPath><clipPath id="12"><path d="M211.85 109.51L256.97 109.51L256.97 109.51L256.97 89.44L256.97 89.44L211.85 89.44z" /></clipPath><clipPath id="13"><path d="M211.85 109.5L256.97 109.5L256.97 109.5L256.97 89.43597L256.97 89.43597L211.85 89.43597z" /></clipPath><clipPath id="14"><path d="M211.85 109.5L256.97 109.5L256.97 109.5L256.97 89.43597L256.97 89.43597L211.85 89.43597z" /></clipPath><clipPath id="15"><path d="M257.45 109.51L360.44 109.51L360.44 109.51L360.44 89.44L360.44 89.44L257.45 89.44z" /></clipPath><clipPath id="16"><path d="M257.45 109.5L360.43 109.5L360.43 109.5L360.43 89.43597L360.43 89.43597L257.45 89.43597z" /></clipPath><clipPath id="17"><path d="M257.45 109.5L360.43 109.5L360.43 109.5L360.43 89.43597L360.43 89.43597L257.45 89.43597z" /></clipPath><clipPath id="18"><path d="M361.04 109.51L516.46 109.51L516.46 109.51L516.46 89.44L516.46 89.44L361.04 89.44z" /></clipPath><clipPath id="19"><path d="M361.03 109.5L516.45 109.5L516.45 109.5L516.45 89.43597L516.45 89.43597L361.03 89.43597z" /></clipPath><clipPath id="20"><path d="M361.03 109.5L516.45 109.5L516.45 109.5L516.45 89.43597L516.45 89.43597L361.03 89.43597z" /></clipPath><clipPath id="21"><path d="M84.751 158.11L162.031 158.11L162.031 158.11L162.031 110.11L162.031 110.11L84.751 110.11z" /></clipPath><clipPath id="22"><path d="M84.744 158.1L162.024 158.1L162.024 158.1L162.024 110.1L162.024 110.1L84.744 110.1z" /></clipPath><clipPath id="23"><path d="M84.744 158.1L162.024 158.1L162.024 158.1L162.024 110.1L162.024 110.1L84.744 110.1z" /></clipPath><clipPath id="24"><path d="M162.51 158.11L211.245 158.11L211.245 158.11L211.245 110.11L211.245 110.11L162.51 110.11z" /></clipPath><clipPath id="25"><path d="M162.5 158.1L211.244 158.1L211.244 158.1L211.244 110.1L211.244 110.1L162.5 110.1z" /></clipPath><clipPath id="26"><path d="M162.5 158.1L211.244 158.1L211.244 158.1L211.244 110.1L211.244 110.1L162.5 110.1z" /></clipPath><clipPath id="27"><path d="M211.85 158.11L256.97 158.11L256.97 158.11L256.97 110.11L256.97 110.11L211.85 110.11z" /></clipPath><clipPath id="28"><path d="M211.85 158.1L256.97 158.1L256.97 158.1L256.97 110.1L256.97 110.1L211.85 110.1z" /></clipPath><clipPath id="29"><path d="M211.85 158.1L256.97 158.1L256.97 158.1L256.97 110.1L256.97 110.1L211.85 110.1z" /></clipPath><clipPath id="30"><path d="M257.45 158.11L360.44 158.11L360.44 158.11L360.44 110.11L360.44 110.11L257.45 110.11z" /></clipPath><clipPath id="31"><path d="M257.45 158.1L360.43 158.1L360.43 158.1L360.43 110.1L360.43 110.1L257.45 110.1z" /></clipPath><clipPath id="32"><path d="M257.45 158.1L360.43 158.1L360.43 158.1L360.43 110.1L360.43 110.1L257.45 110.1z" /></clipPath><clipPath id="33"><path d="M257.45 158.1L360.43 158.1L360.43 158.1L360.43 110.1L360.43 110.1L257.45 110.1z" /></clipPath><clipPath id="34"><path d="M361.04 158.11L516.46 158.11L516.46 158.11L516.46 110.11L516.46 110.11L361.04 110.11z" /></clipPath><clipPath id="35"><path d="M361.03 158.1L516.45 158.1L516.45 158.1L516.45 110.1L516.45 110.1L361.03 110.1z" /></clipPath><clipPath id="36"><path d="M361.03 158.1L516.45 158.1L516.45 158.1L516.45 110.1L516.45 110.1L361.03 110.1z" /></clipPath><clipPath id="37"><path d="M84.751 253.87L162.031 253.87L162.031 253.87L162.031 158.71L162.031 158.71L84.751 158.71z" /></clipPath><clipPath id="38"><path d="M84.744 253.86L162.024 253.86L162.024 253.86L162.024 158.7L162.024 158.7L84.744 158.7z" /></clipPath><clipPath id="39"><path d="M84.744 253.86L162.024 253.86L162.024 253.86L162.024 158.7L162.024 158.7L84.744 158.7z" /></clipPath><clipPath id="40"><path d="M162.51 253.87L211.245 253.87L211.245 253.87L211.245 158.71L211.245 158.71L162.51 158.71z" /></clipPath><clipPath id="41"><path d="M162.5 253.86L211.244 253.86L211.244 253.86L211.244 158.7L211.244 158.7L162.5 158.7z" /></clipPath><clipPath id="42"><path d="M162.5 253.86L211.244 253.86L211.244 253.86L211.244 158.7L211.244 158.7L162.5 158.7z" /></clipPath><clipPath id="43"><path d="M211.85 253.87L256.97 253.87L256.97 253.87L256.97 158.71L256.97 158.71L211.85 158.71z" /></clipPath><clipPath id="44"><path d="M211.85 253.86L256.97 253.86L256.97 253.86L256.97 158.7L256.97 158.7L211.85 158.7z" /></clipPath><clipPath id="45"><path d="M211.85 253.86L256.97 253.86L256.97 253.86L256.97 158.7L256.97 158.7L211.85 158.7z" /></clipPath><clipPath id="46"><path d="M257.45 253.87L360.44 253.87L360.44 253.87L360.44 158.71L360.44 158.71L257.45 158.71z" /></clipPath><clipPath id="47"><path d="M257.45 253.86L360.43 253.86L360.43 253.86L360.43 158.7L360.43 158.7L257.45 158.7z" /></clipPath><clipPath id="48"><path d="M257.45 253.86L360.43 253.86L360.43 253.86L360.43 158.7L360.43 158.7L257.45 158.7z" /></clipPath><clipPath id="49"><path d="M361.04 253.87L516.46 253.87L516.46 253.87L516.46 158.71L516.46 158.71L361.04 158.71z" /></clipPath><clipPath id="50"><path d="M361.03 253.86L516.45 253.86L516.45 253.86L516.45 158.7L516.45 158.7L361.03 158.7z" /></clipPath><clipPath id="51"><path d="M361.03 253.86L516.45 253.86L516.45 253.86L516.45 158.7L516.45 158.7L361.03 158.7z" /></clipPath><clipPath id="52"><path d="M361.03 253.86L516.45 253.86L516.45 253.86L516.45 158.7L516.45 158.7L361.03 158.7z" /></clipPath><clipPath id="53"><path d="M361.03 253.86L516.45 253.86L516.45 253.86L516.45 158.7L516.45 158.7L361.03 158.7z" /></clipPath><clipPath id="54"><path d="M361.03 253.86L516.45 253.86L516.45 253.86L516.45 158.7L516.45 158.7L361.03 158.7z" /></clipPath><clipPath id="55"><path d="M361.03 253.86L516.45 253.86L516.45 253.86L516.45 158.7L516.45 158.7L361.03 158.7z" /></clipPath><clipPath id="56"><path d="M361.03 253.86L516.45 253.86L516.45 253.86L516.45 158.7L516.45 158.7L361.03 158.7z" /></clipPath><clipPath id="57"><path d="M361.03 253.86L516.45 253.86L516.45 253.86L516.45 158.7L516.45 158.7L361.03 158.7z" /></clipPath><clipPath id="58"><path d="M361.03 253.86L516.45 253.86L516.45 253.86L516.45 158.7L516.45 158.7L361.03 158.7z" /></clipPath><clipPath id="59"><path d="M361.03 253.86L516.45 253.86L516.45 253.86L516.45 158.7L516.45 158.7L361.03 158.7z" /></clipPath><clipPath id="60"><path d="M361.03 253.86L516.45 253.86L516.45 253.86L516.45 158.7L516.45 158.7L361.03 158.7z" /></clipPath><clipPath id="61"><path d="M361.03 253.86L516.45 253.86L516.45 253.86L516.45 158.7L516.45 158.7L361.03 158.7z" /></clipPath><clipPath id="62"><path d="M361.03 253.86L516.45 253.86L516.45 253.86L516.45 158.7L516.45 158.7L361.03 158.7z" /></clipPath><clipPath id="63"><path d="M361.03 253.86L516.45 253.86L516.45 253.86L516.45 158.7L516.45 158.7L361.03 158.7z" /></clipPath><clipPath id="64"><path d="M361.03 253.86L516.45 253.86L516.45 253.86L516.45 158.7L516.45 158.7L361.03 158.7z" /></clipPath><clipPath id="65"><path d="M361.03 253.86L516.45 253.86L516.45 253.86L516.45 158.7L516.45 158.7L361.03 158.7z" /></clipPath><clipPath id="66"><path d="M361.03 253.86L516.45 253.86L516.45 253.86L516.45 158.7L516.45 158.7L361.03 158.7z" /></clipPath><clipPath id="67"><path d="M84.751 293.01L502.531 293.01L502.531 293.01L502.531 273.915L502.531 273.915L84.751 273.915z" /></clipPath><clipPath id="68"><path d="M84.744 293.01L502.534 293.01L502.534 293.01L502.534 273.906L502.534 273.906L84.744 273.906z" /></clipPath><clipPath id="69"><path d="M84.744 293.01L502.534 293.01L502.534 293.01L502.534 273.906L502.534 273.906L84.744 273.906z" /></clipPath><clipPath id="70"><path d="M84.744 293.01L502.534 293.01L502.534 293.01L502.534 273.906L502.534 273.906L84.744 273.906z" /></clipPath><clipPath id="71"><path d="M84.751 731.77L502.531 731.77L502.531 731.77L502.531 293.48L502.531 293.48L84.751 293.48z" /></clipPath><clipPath id="72"><path d="M84.744 731.78L502.534 731.78L502.534 731.78L502.534 293.49L502.534 293.49L84.744 293.49z" /></clipPath><clipPath id="73"><path d="M84.744 731.78L502.534 731.78L502.534 731.78L502.534 293.49L502.534 293.49L84.744 293.49z" /></clipPath><clipPath id="74"><path d="M84.744 731.78L502.534 731.78L502.534 731.78L502.534 293.49L502.534 293.49L84.744 293.49z" /></clipPath><clipPath id="75"><path d="M84.744 731.78L502.534 731.78L502.534 731.78L502.534 293.49L502.534 293.49L84.744 293.49z" /></clipPath><clipPath id="76"><path d="M84.744 731.78L502.534 731.78L502.534 731.78L502.534 293.49L502.534 293.49L84.744 293.49z" /></clipPath><clipPath id="77"><path d="M84.744 731.78L502.534 731.78L502.534 731.78L502.534 293.49L502.534 293.49L84.744 293.49z" /></clipPath><clipPath id="78"><path d="M84.744 731.78L502.534 731.78L502.534 731.78L502.534 293.49L502.534 293.49L84.744 293.49z" /></clipPath><clipPath id="79"><path d="M84.744 731.78L502.534 731.78L502.534 731.78L502.534 293.49L502.534 293.49L84.744 293.49z" /></clipPath><clipPath id="80"><path d="M84.744 731.78L502.534 731.78L502.534 731.78L502.534 293.49L502.534 293.49L84.744 293.49z" /></clipPath><clipPath id="81"><path d="M84.744 731.78L502.534 731.78L502.534 731.78L502.534 293.49L502.534 293.49L84.744 293.49z" /></clipPath><clipPath id="82"><path d="M84.744 731.78L502.534 731.78L502.534 731.78L502.534 293.49L502.534 293.49L84.744 293.49z" /></clipPath><clipPath id="83"><path d="M84.744 731.78L502.534 731.78L502.534 731.78L502.534 293.49L502.534 293.49L84.744 293.49z" /></clipPath><clipPath id="84"><path d="M84.744 731.78L502.534 731.78L502.534 731.78L502.534 293.49L502.534 293.49L84.744 293.49z" /></clipPath><clipPath id="85"><path d="M84.744 731.78L502.534 731.78L502.534 731.78L502.534 293.49L502.534 293.49L84.744 293.49z" /></clipPath><clipPath id="86"><path d="M84.744 731.78L502.534 731.78L502.534 731.78L502.534 293.49L502.534 293.49L84.744 293.49z" /></clipPath><clipPath id="87"><path d="M84.744 731.78L502.534 731.78L502.534 731.78L502.534 293.49L502.534 293.49L84.744 293.49z" /></clipPath><clipPath id="88"><path d="M84.744 731.78L502.534 731.78L502.534 731.78L502.534 293.49L502.534 293.49L84.744 293.49z" /></clipPath><clipPath id="89"><path d="M84.744 731.78L502.534 731.78L502.534 731.78L502.534 293.49L502.534 293.49L84.744 293.49z" /></clipPath><clipPath id="90"><path d="M84.744 731.78L502.534 731.78L502.534 731.78L502.534 293.49L502.534 293.49L84.744 293.49z" /></clipPath><clipPath id="91"><path d="M84.744 731.78L502.534 731.78L502.534 731.78L502.534 293.49L502.534 293.49L84.744 293.49z" /></clipPath><clipPath id="92"><path d="M84.744 731.78L502.534 731.78L502.534 731.78L502.534 293.49L502.534 293.49L84.744 293.49z" /></clipPath><clipPath id="93"><path d="M84.744 731.78L502.534 731.78L502.534 731.78L502.534 293.49L502.534 293.49L84.744 293.49z" /></clipPath><clipPath id="94"><path d="M84.744 731.78L502.534 731.78L502.534 731.78L502.534 293.49L502.534 293.49L84.744 293.49z" /></clipPath><clipPath id="95"><path d="M84.744 731.78L502.534 731.78L502.534 731.78L502.534 293.49L502.534 293.49L84.744 293.49z" /></clipPath><clipPath id="96"><path d="M84.744 731.78L502.534 731.78L502.534 731.78L502.534 293.49L502.534 293.49L84.744 293.49z" /></clipPath><clipPath id="97"><path d="M84.744 731.78L502.534 731.78L502.534 731.78L502.534 293.49L502.534 293.49L84.744 293.49z" /></clipPath><clipPath id="98"><path d="M84.744 731.78L502.534 731.78L502.534 731.78L502.534 293.49L502.534 293.49L84.744 293.49z" /></clipPath><clipPath id="99"><path d="M84.744 731.78L502.534 731.78L502.534 731.78L502.534 293.49L502.534 293.49L84.744 293.49z" /></clipPath><clipPath id="100"><path d="M84.744 731.78L502.534 731.78L502.534 731.78L502.534 293.49L502.534 293.49L84.744 293.49z" /></clipPath><clipPath id="101"><path d="M84.744 731.78L502.534 731.78L502.534 731.78L502.534 293.49L502.534 293.49L84.744 293.49z" /></clipPath><clipPath id="102"><path d="M84.744 731.78L502.534 731.78L502.534 731.78L502.534 293.49L502.534 293.49L84.744 293.49z" /></clipPath><clipPath id="103"><path d="M84.744 731.78L502.534 731.78L502.534 731.78L502.534 293.49L502.534 293.49L84.744 293.49z" /></clipPath><clipPath id="104"><path d="M84.744 731.78L502.534 731.78L502.534 731.78L502.534 293.49L502.534 293.49L84.744 293.49z" /></clipPath><clipPath id="105"><path d="M84.744 731.78L502.534 731.78L502.534 731.78L502.534 293.49L502.534 293.49L84.744 293.49z" /></clipPath><clipPath id="106"><path d="M84.744 731.78L502.534 731.78L502.534 731.78L502.534 293.49L502.534 293.49L84.744 293.49z" /></clipPath><clipPath id="107"><path d="M84.744 731.78L502.534 731.78L502.534 731.78L502.534 293.49L502.534 293.49L84.744 293.49z" /></clipPath><clipPath id="108"><path d="M84.744 731.78L502.534 731.78L502.534 731.78L502.534 293.49L502.534 293.49L84.744 293.49z" /></clipPath><clipPath id="109"><path d="M84.744 731.78L502.534 731.78L502.534 731.78L502.534 293.49L502.534 293.49L84.744 293.49z" /></clipPath><clipPath id="110"><path d="M84.744 731.78L502.534 731.78L502.534 731.78L502.534 293.49L502.534 293.49L84.744 293.49z" /></clipPath><clipPath id="111"><path d="M84.744 731.78L502.534 731.78L502.534 731.78L502.534 293.49L502.534 293.49L84.744 293.49z" /></clipPath><clipPath id="112"><path d="M84.744 731.78L502.534 731.78L502.534 731.78L502.534 293.49L502.534 293.49L84.744 293.49z" /></clipPath><clipPath id="113"><path d="M84.744 731.78L502.534 731.78L502.534 731.78L502.534 293.49L502.534 293.49L84.744 293.49z" /></clipPath><clipPath id="114"><path d="M84.744 731.78L502.534 731.78L502.534 731.78L502.534 293.49L502.534 293.49L84.744 293.49z" /></clipPath><clipPath id="115"><path d="M84.744 731.78L502.534 731.78L502.534 731.78L502.534 293.49L502.534 293.49L84.744 293.49z" /></clipPath><clipPath id="116"><path d="M84.744 731.78L502.534 731.78L502.534 731.78L502.534 293.49L502.534 293.49L84.744 293.49z" /></clipPath><clipPath id="117"><path d="M84.744 731.78L502.534 731.78L502.534 731.78L502.534 293.49L502.534 293.49L84.744 293.49z" /></clipPath><clipPath id="118"><path d="M84.744 731.78L502.534 731.78L502.534 731.78L502.534 293.49L502.534 293.49L84.744 293.49z" /></clipPath><clipPath id="119"><path d="M84.744 731.78L502.534 731.78L502.534 731.78L502.534 293.49L502.534 293.49L84.744 293.49z" /></clipPath><clipPath id="120"><path d="M84.744 731.78L502.534 731.78L502.534 731.78L502.534 293.49L502.534 293.49L84.744 293.49z" /></clipPath><clipPath id="121"><path d="M84.744 731.78L502.534 731.78L502.534 731.78L502.534 293.49L502.534 293.49L84.744 293.49z" /></clipPath><clipPath id="122"><path d="M84.744 731.78L502.534 731.78L502.534 731.78L502.534 293.49L502.534 293.49L84.744 293.49z" /></clipPath><clipPath id="123"><path d="M84.744 731.78L502.534 731.78L502.534 731.78L502.534 293.49L502.534 293.49L84.744 293.49z" /></clipPath><clipPath id="124"><path d="M84.744 731.78L502.534 731.78L502.534 731.78L502.534 293.49L502.534 293.49L84.744 293.49z" /></clipPath><clipPath id="125"><path d="M84.744 731.78L502.534 731.78L502.534 731.78L502.534 293.49L502.534 293.49L84.744 293.49z" /></clipPath><clipPath id="126"><path d="M84.744 731.78L502.534 731.78L502.534 731.78L502.534 293.49L502.534 293.49L84.744 293.49z" /></clipPath><clipPath id="127"><path d="M84.744 731.78L502.534 731.78L502.534 731.78L502.534 293.49L502.534 293.49L84.744 293.49z" /></clipPath><clipPath id="128"><path d="M84.744 731.78L502.534 731.78L502.534 731.78L502.534 293.49L502.534 293.49L84.744 293.49z" /></clipPath><clipPath id="129"><path d="M84.744 731.78L502.534 731.78L502.534 731.78L502.534 293.49L502.534 293.49L84.744 293.49z" /></clipPath><clipPath id="130"><path d="M84.744 731.78L502.534 731.78L502.534 731.78L502.534 293.49L502.534 293.49L84.744 293.49z" /></clipPath><clipPath id="131"><path d="M84.744 731.78L502.534 731.78L502.534 731.78L502.534 293.49L502.534 293.49L84.744 293.49z" /></clipPath><clipPath id="132"><path d="M84.744 731.78L502.534 731.78L502.534 731.78L502.534 293.49L502.534 293.49L84.744 293.49z" /></clipPath><clipPath id="133"><path d="M84.744 731.78L502.534 731.78L502.534 731.78L502.534 293.49L502.534 293.49L84.744 293.49z" /></clipPath><clipPath id="134"><path d="M84.744 731.78L502.534 731.78L502.534 731.78L502.534 293.49L502.534 293.49L84.744 293.49z" /></clipPath><clipPath id="135"><path d="M84.744 731.78L502.534 731.78L502.534 731.78L502.534 293.49L502.534 293.49L84.744 293.49z" /></clipPath><clipPath id="136"><path d="M84.744 731.78L502.534 731.78L502.534 731.78L502.534 293.49L502.534 293.49L84.744 293.49z" /></clipPath><clipPath id="137"><path d="M84.744 731.78L502.534 731.78L502.534 731.78L502.534 293.49L502.534 293.49L84.744 293.49z" /></clipPath><clipPath id="138"><path d="M84.744 731.78L502.534 731.78L502.534 731.78L502.534 293.49L502.534 293.49L84.744 293.49z" /></clipPath><clipPath id="139"><path d="M84.744 731.78L502.534 731.78L502.534 731.78L502.534 293.49L502.534 293.49L84.744 293.49z" /></clipPath><clipPath id="140"><path d="M84.744 731.78L502.534 731.78L502.534 731.78L502.534 293.49L502.534 293.49L84.744 293.49z" /></clipPath></defs><g transform="matrix(1.333333 0 0 1.333333 0 0)"><g><g clip-path="url(#1)"><path transform="matrix(1 0 0 -1 0 841)" d="M457.51 53.304L505.534 53.304L505.534 53.304L505.534 53.90404L505.534 53.90404L457.51 53.90404z" stroke="none" fill="#000000" fill-rule="evenodd" /><g clip-path="url(#2)"><path transform="matrix(1 0 0 -1 0 841)" d="M88.464 77.904L506.974 77.904L506.974 77.904L506.974 80.904L506.974 80.904L88.464 80.904z" stroke="none" fill="#000000" fill-rule="evenodd" /><path transform="matrix(1 0 0 -1 0 841)" d="M88.464 76.464L506.974 76.464L506.974 76.464L506.974 77.18397L506.974 77.18397L88.464 77.18397z" stroke="none" fill="#000000" fill-rule="evenodd" /></g><g clip-path="url(#3)"><g clip-path="url(#4)"></g><g clip-path="url(#5)"></g></g><path transform="matrix(1 0 0 -1 0 841)" d="M84.744 731.5L162.024 731.5L162.024 731.5L162.024 751.564L162.024 751.564L84.744 751.564z" stroke="none" fill="#0070C0" fill-rule="evenodd" /><g clip-path="url(#6)"><path transform="matrix(1 0 0 -1 0 841)" d="M89.904 732.46L156.864 732.46L156.864 732.46L156.864 751.564L156.864 751.564L89.904 751.564z" stroke="none" fill="#0070C0" fill-rule="evenodd" /><g clip-path="url(#7)"></g><g clip-path="url(#8)"></g></g><path transform="matrix(1 0 0 -1 0 841)" d="M162.5 731.5L211.244 731.5L211.244 731.5L211.244 751.564L211.244 751.564L162.5 751.564z" stroke="none" fill="#0070C0" fill-rule="evenodd" /><g clip-path="url(#9)"><path transform="matrix(1 0 0 -1 0 841)" d="M167.66 732.46L206.204 732.46L206.204 732.46L206.204 751.564L206.204 751.564L167.66 751.564z" stroke="none" fill="#0070C0" fill-rule="evenodd" /><g clip-path="url(#10)"></g><g clip-path="url(#11)"></g></g><path transform="matrix(1 0 0 -1 0 841)" d="M211.85 731.5L256.97 731.5L256.97 731.5L256.97 751.564L256.97 751.564L211.85 751.564z" stroke="none" fill="#0070C0" fill-rule="evenodd" /><g clip-path="url(#12)"><path transform="matrix(1 0 0 -1 0 841)" d="M216.89 732.46L251.81 732.46L251.81 732.46L251.81 751.564L251.81 751.564L216.89 751.564z" stroke="none" fill="#0070C0" fill-rule="evenodd" /><g clip-path="url(#13)"></g><g clip-path="url(#14)"></g></g><path transform="matrix(1 0 0 -1 0 841)" d="M257.45 731.5L360.43 731.5L360.43 731.5L360.43 751.564L360.43 751.564L257.45 751.564z" stroke="none" fill="#0070C0" fill-rule="evenodd" /><g clip-path="url(#15)"><path transform="matrix(1 0 0 -1 0 841)" d="M262.61 732.46L355.274 732.46L355.274 732.46L355.274 751.564L355.274 751.564L262.61 751.564z" stroke="none" fill="#0070C0" fill-rule="evenodd" /><g clip-path="url(#16)"></g><g clip-path="url(#17)"></g></g><path transform="matrix(1 0 0 -1 0 841)" d="M361.03 731.5L516.45 731.5L516.45 731.5L516.45 751.564L516.45 751.564L361.03 751.564z" stroke="none" fill="#0070C0" fill-rule="evenodd" /><g clip-path="url(#18)"><path transform="matrix(1 0 0 -1 0 841)" d="M366.07 732.46L511.29 732.46L511.29 732.46L511.29 751.564L511.29 751.564L366.07 751.564z" stroke="none" fill="#0070C0" fill-rule="evenodd" /><g clip-path="url(#19)"></g><g clip-path="url(#20)"></g></g><path transform="matrix(1 0 0 -1 0 841)" d="M84.264 751.56L84.744 751.56L84.744 751.56L84.744 752.04L84.744 752.04L84.264 752.04z" stroke="none" fill="#000000" fill-rule="evenodd" /><path transform="matrix(1 0 0 -1 0 841)" d="M84.264 751.56L84.744 751.56L84.744 751.56L84.744 752.04L84.744 752.04L84.264 752.04z" stroke="none" fill="#000000" fill-rule="evenodd" /><path transform="matrix(1 0 0 -1 0 841)" d="M84.744 751.56L162.024 751.56L162.024 751.56L162.024 752.04L162.024 752.04L84.744 752.04z" stroke="none" fill="#000000" fill-rule="evenodd" /><path transform="matrix(1 0 0 -1 0 841)" d="M162.02 751.56L162.5 751.56L162.5 751.56L162.5 752.04L162.5 752.04L162.02 752.04z" stroke="none" fill="#000000" fill-rule="evenodd" /><path transform="matrix(1 0 0 -1 0 841)" d="M162.5 751.56L211.364 751.56L211.364 751.56L211.364 752.04L211.364 752.04L162.5 752.04z" stroke="none" fill="#000000" fill-rule="evenodd" /><path transform="matrix(1 0 0 -1 0 841)" d="M211.37 751.56L211.85 751.56L211.85 751.56L211.85 752.04L211.85 752.04L211.37 752.04z" stroke="none" fill="#000000" fill-rule="evenodd" /><path transform="matrix(1 0 0 -1 0 841)" d="M211.85 751.56L257.09 751.56L257.09 751.56L257.09 752.04L257.09 752.04L211.85 752.04z" stroke="none" fill="#000000" fill-rule="evenodd" /><path transform="matrix(1 0 0 -1 0 841)" d="M257.09 751.56L257.57 751.56L257.57 751.56L257.57 752.04L257.57 752.04L257.09 752.04z" stroke="none" fill="#000000" fill-rule="evenodd" /><path transform="matrix(1 0 0 -1 0 841)" d="M257.57 751.56L360.55 751.56L360.55 751.56L360.55 752.04L360.55 752.04L257.57 752.04z" stroke="none" fill="#000000" fill-rule="evenodd" /><path transform="matrix(1 0 0 -1 0 841)" d="M360.55 751.56L361.03 751.56L361.03 751.56L361.03 752.04L361.03 752.04L360.55 752.04z" stroke="none" fill="#000000" fill-rule="evenodd" /><path transform="matrix(1 0 0 -1 0 841)" d="M361.03 751.56L516.45 751.56L516.45 751.56L516.45 752.04L516.45 752.04L361.03 752.04z" stroke="none" fill="#000000" fill-rule="evenodd" /><path transform="matrix(1 0 0 -1 0 841)" d="M516.46 751.56L516.94 751.56L516.94 751.56L516.94 752.04L516.94 752.04L516.46 752.04z" stroke="none" fill="#000000" fill-rule="evenodd" /><path transform="matrix(1 0 0 -1 0 841)" d="M516.46 751.56L516.94 751.56L516.94 751.56L516.94 752.04L516.94 752.04L516.46 752.04z" stroke="none" fill="#000000" fill-rule="evenodd" /><path transform="matrix(1 0 0 -1 0 841)" d="M84.264 731.5L84.744 731.5L84.744 731.5L84.744 751.564L84.744 751.564L84.264 751.564z" stroke="none" fill="#000000" fill-rule="evenodd" /><path transform="matrix(1 0 0 -1 0 841)" d="M162.02 731.5L162.5 731.5L162.5 731.5L162.5 751.564L162.5 751.564L162.02 751.564z" stroke="none" fill="#000000" fill-rule="evenodd" /><path transform="matrix(1 0 0 -1 0 841)" d="M211.37 731.5L211.85 731.5L211.85 731.5L211.85 751.564L211.85 751.564L211.37 751.564z" stroke="none" fill="#000000" fill-rule="evenodd" /><path transform="matrix(1 0 0 -1 0 841)" d="M257.09 731.5L257.57 731.5L257.57 731.5L257.57 751.564L257.57 751.564L257.09 751.564z" stroke="none" fill="#000000" fill-rule="evenodd" /><path transform="matrix(1 0 0 -1 0 841)" d="M360.55 731.5L361.03 731.5L361.03 731.5L361.03 751.564L361.03 751.564L360.55 751.564z" stroke="none" fill="#000000" fill-rule="evenodd" /><path transform="matrix(1 0 0 -1 0 841)" d="M516.46 731.5L516.94 731.5L516.94 731.5L516.94 751.564L516.94 751.564L516.46 751.564z" stroke="none" fill="#000000" fill-rule="evenodd" /><path transform="matrix(1 0 0 -1 0 841)" d="M84.744 682.9L162.024 682.9L162.024 682.9L162.024 730.9L162.024 730.9L84.744 730.9z" stroke="none" fill="#DAEEF3" fill-rule="evenodd" /><g clip-path="url(#21)"><path transform="matrix(1 0 0 -1 0 841)" d="M89.904 711.94L156.864 711.94L156.864 711.94L156.864 730.9L156.864 730.9L89.904 730.9z" stroke="none" fill="#DAEEF3" fill-rule="evenodd" /><g clip-path="url(#22)"></g><g clip-path="url(#23)"></g></g><path transform="matrix(1 0 0 -1 0 841)" d="M162.5 682.9L211.244 682.9L211.244 682.9L211.244 730.9L211.244 730.9L162.5 730.9z" stroke="none" fill="#DAEEF3" fill-rule="evenodd" /><g clip-path="url(#24)"><path transform="matrix(1 0 0 -1 0 841)" d="M167.66 711.94L206.204 711.94L206.204 711.94L206.204 730.9L206.204 730.9L167.66 730.9z" stroke="none" fill="#DAEEF3" fill-rule="evenodd" /><g clip-path="url(#25)"></g><g clip-path="url(#26)"></g></g><path transform="matrix(1 0 0 -1 0 841)" d="M211.85 682.9L256.97 682.9L256.97 682.9L256.97 730.9L256.97 730.9L211.85 730.9z" stroke="none" fill="#DAEEF3" fill-rule="evenodd" /><g clip-path="url(#27)"><path transform="matrix(1 0 0 -1 0 841)" d="M216.89 711.94L251.81 711.94L251.81 711.94L251.81 730.9L251.81 730.9L216.89 730.9z" stroke="none" fill="#DAEEF3" fill-rule="evenodd" /><g clip-path="url(#28)"></g><g clip-path="url(#29)"></g></g><path transform="matrix(1 0 0 -1 0 841)" d="M257.45 682.9L360.43 682.9L360.43 682.9L360.43 730.9L360.43 730.9L257.45 730.9z" stroke="none" fill="#DAEEF3" fill-rule="evenodd" /><g clip-path="url(#30)"><path transform="matrix(1 0 0 -1 0 841)" d="M262.61 706.9L355.274 706.9L355.274 706.9L355.274 730.9L355.274 730.9L262.61 730.9z" stroke="none" fill="#DAEEF3" fill-rule="evenodd" /><g clip-path="url(#31)"></g><path transform="matrix(1 0 0 -1 0 841)" d="M262.61 682.9L355.274 682.9L355.274 682.9L355.274 706.9L355.274 706.9L262.61 706.9z" stroke="none" fill="#DAEEF3" fill-rule="evenodd" /><g clip-path="url(#32)"></g><g clip-path="url(#33)"></g></g><path transform="matrix(1 0 0 -1 0 841)" d="M361.03 682.9L516.45 682.9L516.45 682.9L516.45 730.9L516.45 730.9L361.03 730.9z" stroke="none" fill="#DAEEF3" fill-rule="evenodd" /><g clip-path="url(#34)"><path transform="matrix(1 0 0 -1 0 841)" d="M366.07 711.94L511.29 711.94L511.29 711.94L511.29 730.9L511.29 730.9L366.07 730.9z" stroke="none" fill="#DAEEF3" fill-rule="evenodd" /><g clip-path="url(#35)"></g><g clip-path="url(#36)"></g></g><path transform="matrix(1 0 0 -1 0 841)" d="M84.264 731.02L84.744 731.02L84.744 731.02L84.744 731.5L84.744 731.5L84.264 731.5z" stroke="none" fill="#000000" fill-rule="evenodd" /><path transform="matrix(1 0 0 -1 0 841)" d="M84.744 731.02L162.024 731.02L162.024 731.02L162.024 731.5L162.024 731.5L84.744 731.5z" stroke="none" fill="#000000" fill-rule="evenodd" /><path transform="matrix(1 0 0 -1 0 841)" d="M162.02 731.02L162.5 731.02L162.5 731.02L162.5 731.5L162.5 731.5L162.02 731.5z" stroke="none" fill="#000000" fill-rule="evenodd" /><path transform="matrix(1 0 0 -1 0 841)" d="M162.5 731.02L211.364 731.02L211.364 731.02L211.364 731.5L211.364 731.5L162.5 731.5z" stroke="none" fill="#000000" fill-rule="evenodd" /><path transform="matrix(1 0 0 -1 0 841)" d="M211.37 731.02L211.85 731.02L211.85 731.02L211.85 731.5L211.85 731.5L211.37 731.5z" stroke="none" fill="#000000" fill-rule="evenodd" /><path transform="matrix(1 0 0 -1 0 841)" d="M211.85 731.02L257.09 731.02L257.09 731.02L257.09 731.5L257.09 731.5L211.85 731.5z" stroke="none" fill="#000000" fill-rule="evenodd" /><path transform="matrix(1 0 0 -1 0 841)" d="M257.09 731.02L257.57 731.02L257.57 731.02L257.57 731.5L257.57 731.5L257.09 731.5z" stroke="none" fill="#000000" fill-rule="evenodd" /><path transform="matrix(1 0 0 -1 0 841)" d="M257.57 731.02L360.55 731.02L360.55 731.02L360.55 731.5L360.55 731.5L257.57 731.5z" stroke="none" fill="#000000" fill-rule="evenodd" /><path transform="matrix(1 0 0 -1 0 841)" d="M360.55 731.02L361.03 731.02L361.03 731.02L361.03 731.5L361.03 731.5L360.55 731.5z" stroke="none" fill="#000000" fill-rule="evenodd" /><path transform="matrix(1 0 0 -1 0 841)" d="M361.03 731.02L516.45 731.02L516.45 731.02L516.45 731.5L516.45 731.5L361.03 731.5z" stroke="none" fill="#000000" fill-rule="evenodd" /><path transform="matrix(1 0 0 -1 0 841)" d="M516.46 731.02L516.94 731.02L516.94 731.02L516.94 731.5L516.94 731.5L516.46 731.5z" stroke="none" fill="#000000" fill-rule="evenodd" /><path transform="matrix(1 0 0 -1 0 841)" d="M84.264 682.9L84.744 682.9L84.744 682.9L84.744 731.02L84.744 731.02L84.264 731.02z" stroke="none" fill="#000000" fill-rule="evenodd" /><path transform="matrix(1 0 0 -1 0 841)" d="M162.02 682.9L162.5 682.9L162.5 682.9L162.5 731.02L162.5 731.02L162.02 731.02z" stroke="none" fill="#000000" fill-rule="evenodd" /><path transform="matrix(1 0 0 -1 0 841)" d="M211.37 682.9L211.85 682.9L211.85 682.9L211.85 731.02L211.85 731.02L211.37 731.02z" stroke="none" fill="#000000" fill-rule="evenodd" /><path transform="matrix(1 0 0 -1 0 841)" d="M257.09 682.9L257.57 682.9L257.57 682.9L257.57 731.02L257.57 731.02L257.09 731.02z" stroke="none" fill="#000000" fill-rule="evenodd" /><path transform="matrix(1 0 0 -1 0 841)" d="M360.55 682.9L361.03 682.9L361.03 682.9L361.03 731.02L361.03 731.02L360.55 731.02z" stroke="none" fill="#000000" fill-rule="evenodd" /><path transform="matrix(1 0 0 -1 0 841)" d="M516.46 682.9L516.94 682.9L516.94 682.9L516.94 731.02L516.94 731.02L516.46 731.02z" stroke="none" fill="#000000" fill-rule="evenodd" /><g clip-path="url(#37)"><g clip-path="url(#38)"></g><g clip-path="url(#39)"></g></g><g clip-path="url(#40)"><g clip-path="url(#41)"></g><g clip-path="url(#42)"></g></g><g clip-path="url(#43)"><g clip-path="url(#44)"></g><g clip-path="url(#45)"></g></g><g clip-path="url(#46)"><g clip-path="url(#47)"></g><g clip-path="url(#48)"></g></g><g clip-path="url(#49)"><g clip-path="url(#50)"></g><g clip-path="url(#51)"></g><g clip-path="url(#52)"></g><g clip-path="url(#53)"></g><g clip-path="url(#54)"></g><g clip-path="url(#55)"></g><g clip-path="url(#56)"></g><g clip-path="url(#57)"></g><g clip-path="url(#58)"></g><g clip-path="url(#59)"></g><g clip-path="url(#60)"></g><g clip-path="url(#61)"></g><g clip-path="url(#62)"></g><g clip-path="url(#63)"></g><g clip-path="url(#64)"></g><g clip-path="url(#65)"></g><g clip-path="url(#66)"></g></g><path transform="matrix(1 0 0 -1 0 841)" d="M84.264 682.42L84.744 682.42L84.744 682.42L84.744 682.9L84.744 682.9L84.264 682.9z" stroke="none" fill="#000000" fill-rule="evenodd" /><path transform="matrix(1 0 0 -1 0 841)" d="M84.744 682.42L162.024 682.42L162.024 682.42L162.024 682.9L162.024 682.9L84.744 682.9z" stroke="none" fill="#000000" fill-rule="evenodd" /><path transform="matrix(1 0 0 -1 0 841)" d="M162.02 682.42L162.5 682.42L162.5 682.42L162.5 682.9L162.5 682.9L162.02 682.9z" stroke="none" fill="#000000" fill-rule="evenodd" /><path transform="matrix(1 0 0 -1 0 841)" d="M162.5 682.42L211.364 682.42L211.364 682.42L211.364 682.9L211.364 682.9L162.5 682.9z" stroke="none" fill="#000000" fill-rule="evenodd" /><path transform="matrix(1 0 0 -1 0 841)" d="M211.37 682.42L211.85 682.42L211.85 682.42L211.85 682.9L211.85 682.9L211.37 682.9z" stroke="none" fill="#000000" fill-rule="evenodd" /><path transform="matrix(1 0 0 -1 0 841)" d="M211.85 682.42L257.09 682.42L257.09 682.42L257.09 682.9L257.09 682.9L211.85 682.9z" stroke="none" fill="#000000" fill-rule="evenodd" /><path transform="matrix(1 0 0 -1 0 841)" d="M257.09 682.42L257.57 682.42L257.57 682.42L257.57 682.9L257.57 682.9L257.09 682.9z" stroke="none" fill="#000000" fill-rule="evenodd" /><path transform="matrix(1 0 0 -1 0 841)" d="M257.57 682.42L360.55 682.42L360.55 682.42L360.55 682.9L360.55 682.9L257.57 682.9z" stroke="none" fill="#000000" fill-rule="evenodd" /><path transform="matrix(1 0 0 -1 0 841)" d="M360.55 682.42L361.03 682.42L361.03 682.42L361.03 682.9L361.03 682.9L360.55 682.9z" stroke="none" fill="#000000" fill-rule="evenodd" /><path transform="matrix(1 0 0 -1 0 841)" d="M361.03 682.42L516.45 682.42L516.45 682.42L516.45 682.9L516.45 682.9L361.03 682.9z" stroke="none" fill="#000000" fill-rule="evenodd" /><path transform="matrix(1 0 0 -1 0 841)" d="M516.46 682.42L516.94 682.42L516.94 682.42L516.94 682.9L516.94 682.9L516.46 682.9z" stroke="none" fill="#000000" fill-rule="evenodd" /><path transform="matrix(1 0 0 -1 0 841)" d="M84.264 587.14L84.744 587.14L84.744 587.14L84.744 682.42L84.744 682.42L84.264 682.42z" stroke="none" fill="#000000" fill-rule="evenodd" /><path transform="matrix(1 0 0 -1 0 841)" d="M84.264 586.66L84.744 586.66L84.744 586.66L84.744 587.14L84.744 587.14L84.264 587.14z" stroke="none" fill="#000000" fill-rule="evenodd" /><path transform="matrix(1 0 0 -1 0 841)" d="M84.264 586.66L84.744 586.66L84.744 586.66L84.744 587.14L84.744 587.14L84.264 587.14z" stroke="none" fill="#000000" fill-rule="evenodd" /><path transform="matrix(1 0 0 -1 0 841)" d="M84.744 586.66L162.024 586.66L162.024 586.66L162.024 587.14L162.024 587.14L84.744 587.14z" stroke="none" fill="#000000" fill-rule="evenodd" /><path transform="matrix(1 0 0 -1 0 841)" d="M162.02 587.14L162.5 587.14L162.5 587.14L162.5 682.42L162.5 682.42L162.02 682.42z" stroke="none" fill="#000000" fill-rule="evenodd" /><path transform="matrix(1 0 0 -1 0 841)" d="M162.02 586.66L162.5 586.66L162.5 586.66L162.5 587.14L162.5 587.14L162.02 587.14z" stroke="none" fill="#000000" fill-rule="evenodd" /><path transform="matrix(1 0 0 -1 0 841)" d="M162.5 586.66L211.364 586.66L211.364 586.66L211.364 587.14L211.364 587.14L162.5 587.14z" stroke="none" fill="#000000" fill-rule="evenodd" /><path transform="matrix(1 0 0 -1 0 841)" d="M211.37 587.14L211.85 587.14L211.85 587.14L211.85 682.42L211.85 682.42L211.37 682.42z" stroke="none" fill="#000000" fill-rule="evenodd" /><path transform="matrix(1 0 0 -1 0 841)" d="M211.37 586.66L211.85 586.66L211.85 586.66L211.85 587.14L211.85 587.14L211.37 587.14z" stroke="none" fill="#000000" fill-rule="evenodd" /><path transform="matrix(1 0 0 -1 0 841)" d="M211.85 586.66L257.09 586.66L257.09 586.66L257.09 587.14L257.09 587.14L211.85 587.14z" stroke="none" fill="#000000" fill-rule="evenodd" /><path transform="matrix(1 0 0 -1 0 841)" d="M257.09 587.14L257.57 587.14L257.57 587.14L257.57 682.42L257.57 682.42L257.09 682.42z" stroke="none" fill="#000000" fill-rule="evenodd" /><path transform="matrix(1 0 0 -1 0 841)" d="M257.09 586.66L257.57 586.66L257.57 586.66L257.57 587.14L257.57 587.14L257.09 587.14z" stroke="none" fill="#000000" fill-rule="evenodd" /><path transform="matrix(1 0 0 -1 0 841)" d="M257.57 586.66L360.55 586.66L360.55 586.66L360.55 587.14L360.55 587.14L257.57 587.14z" stroke="none" fill="#000000" fill-rule="evenodd" /><path transform="matrix(1 0 0 -1 0 841)" d="M360.55 587.14L361.03 587.14L361.03 587.14L361.03 682.42L361.03 682.42L360.55 682.42z" stroke="none" fill="#000000" fill-rule="evenodd" /><path transform="matrix(1 0 0 -1 0 841)" d="M360.55 586.66L361.03 586.66L361.03 586.66L361.03 587.14L361.03 587.14L360.55 587.14z" stroke="none" fill="#000000" fill-rule="evenodd" /><path transform="matrix(1 0 0 -1 0 841)" d="M361.03 586.66L516.45 586.66L516.45 586.66L516.45 587.14L516.45 587.14L361.03 587.14z" stroke="none" fill="#000000" fill-rule="evenodd" /><path transform="matrix(1 0 0 -1 0 841)" d="M516.46 587.14L516.94 587.14L516.94 587.14L516.94 682.42L516.94 682.42L516.46 682.42z" stroke="none" fill="#000000" fill-rule="evenodd" /><path transform="matrix(1 0 0 -1 0 841)" d="M516.46 586.66L516.94 586.66L516.94 586.66L516.94 587.14L516.94 587.14L516.46 587.14z" stroke="none" fill="#000000" fill-rule="evenodd" /><path transform="matrix(1 0 0 -1 0 841)" d="M516.46 586.66L516.94 586.66L516.94 586.66L516.94 587.14L516.94 587.14L516.46 587.14z" stroke="none" fill="#000000" fill-rule="evenodd" /><path transform="matrix(1 0 0 -1 0 841)" d="M84.744 547.99L502.534 547.99L502.534 547.99L502.534 567.094L502.534 567.094L84.744 567.094z" stroke="none" fill="#0070C0" fill-rule="evenodd" /><g clip-path="url(#67)"><path transform="matrix(1 0 0 -1 0 841)" d="M89.904 547.99L497.374 547.99L497.374 547.99L497.374 567.094L497.374 567.094L89.904 567.094z" stroke="none" fill="#0070C0" fill-rule="evenodd" /><g clip-path="url(#68)"></g><g clip-path="url(#69)"></g><g clip-path="url(#70)"></g></g><path transform="matrix(1 0 0 -1 0 841)" d="M84.264 567.1L84.744 567.1L84.744 567.1L84.744 567.58L84.744 567.58L84.264 567.58z" stroke="none" fill="#000000" fill-rule="evenodd" /><path transform="matrix(1 0 0 -1 0 841)" d="M84.264 567.1L84.744 567.1L84.744 567.1L84.744 567.58L84.744 567.58L84.264 567.58z" stroke="none" fill="#000000" fill-rule="evenodd" /><path transform="matrix(1 0 0 -1 0 841)" d="M84.744 567.1L502.534 567.1L502.534 567.1L502.534 567.58L502.534 567.58L84.744 567.58z" stroke="none" fill="#000000" fill-rule="evenodd" /><path transform="matrix(1 0 0 -1 0 841)" d="M502.54 567.1L503.02 567.1L503.02 567.1L503.02 567.58L503.02 567.58L502.54 567.58z" stroke="none" fill="#000000" fill-rule="evenodd" /><path transform="matrix(1 0 0 -1 0 841)" d="M502.54 567.1L503.02 567.1L503.02 567.1L503.02 567.58L503.02 567.58L502.54 567.58z" stroke="none" fill="#000000" fill-rule="evenodd" /><path transform="matrix(1 0 0 -1 0 841)" d="M84.264 547.99L84.744 547.99L84.744 547.99L84.744 567.094L84.744 567.094L84.264 567.094z" stroke="none" fill="#000000" fill-rule="evenodd" /><path transform="matrix(1 0 0 -1 0 841)" d="M502.54 547.99L503.02 547.99L503.02 547.99L503.02 567.094L503.02 567.094L502.54 567.094z" stroke="none" fill="#000000" fill-rule="evenodd" /><path transform="matrix(1 0 0 -1 0 841)" d="M84.744 109.22L502.534 109.22L502.534 109.22L502.534 547.51L502.534 547.51L84.744 547.51z" stroke="none" fill="#DAEEF3" fill-rule="evenodd" /><g clip-path="url(#71)"><path transform="matrix(1 0 0 -1 0 841)" d="M89.904 528.43L497.374 528.43L497.374 528.43L497.374 547.51L497.374 547.51L89.904 547.51z" stroke="none" fill="#DAEEF3" fill-rule="evenodd" /><g clip-path="url(#72)"></g><g clip-path="url(#73)"></g><path transform="matrix(1 0 0 -1 0 841)" d="M89.904 509.35L497.374 509.35L497.374 509.35L497.374 528.43L497.374 528.43L89.904 528.43z" stroke="none" fill="#DAEEF3" fill-rule="evenodd" /><g clip-path="url(#74)"></g><g clip-path="url(#75)"></g><g clip-path="url(#76)"></g><path transform="matrix(1 0 0 -1 0 841)" d="M89.904 490.27L497.374 490.27L497.374 490.27L497.374 509.35L497.374 509.35L89.904 509.35z" stroke="none" fill="#DAEEF3" fill-rule="evenodd" /><g clip-path="url(#77)"></g><g clip-path="url(#78)"></g><g clip-path="url(#79)"></g><g clip-path="url(#80)"></g><g clip-path="url(#81)"></g><path transform="matrix(1 0 0 -1 0 841)" d="M89.904 471.31L497.374 471.31L497.374 471.31L497.374 490.27L497.374 490.27L89.904 490.27z" stroke="none" fill="#DAEEF3" fill-rule="evenodd" /><g clip-path="url(#82)"></g><g clip-path="url(#83)"></g><g clip-path="url(#84)"></g><path transform="matrix(1 0 0 -1 0 841)" d="M89.904 452.23L497.374 452.23L497.374 452.23L497.374 471.31L497.374 471.31L89.904 471.31z" stroke="none" fill="#DAEEF3" fill-rule="evenodd" /><g clip-path="url(#85)"></g><g clip-path="url(#86)"></g><g clip-path="url(#87)"></g><path transform="matrix(1 0 0 -1 0 841)" d="M89.904 433.15L497.374 433.15L497.374 433.15L497.374 452.23L497.374 452.23L89.904 452.23z" stroke="none" fill="#DAEEF3" fill-rule="evenodd" /><g clip-path="url(#88)"></g><g clip-path="url(#89)"></g><g clip-path="url(#90)"></g><path transform="matrix(1 0 0 -1 0 841)" d="M89.904 414.07L497.374 414.07L497.374 414.07L497.374 433.15L497.374 433.15L89.904 433.15z" stroke="none" fill="#DAEEF3" fill-rule="evenodd" /><g clip-path="url(#91)"></g><g clip-path="url(#92)"></g><g clip-path="url(#93)"></g><path transform="matrix(1 0 0 -1 0 841)" d="M89.904 395.11L497.374 395.11L497.374 395.11L497.374 414.07L497.374 414.07L89.904 414.07z" stroke="none" fill="#DAEEF3" fill-rule="evenodd" /><g clip-path="url(#94)"></g><g clip-path="url(#95)"></g><g clip-path="url(#96)"></g><path transform="matrix(1 0 0 -1 0 841)" d="M89.904 376.03L497.374 376.03L497.374 376.03L497.374 395.11L497.374 395.11L89.904 395.11z" stroke="none" fill="#DAEEF3" fill-rule="evenodd" /><g clip-path="url(#97)"></g><g clip-path="url(#98)"></g><g clip-path="url(#99)"></g><path transform="matrix(1 0 0 -1 0 841)" d="M89.904 356.93L497.374 356.93L497.374 356.93L497.374 376.034L497.374 376.034L89.904 376.034z" stroke="none" fill="#DAEEF3" fill-rule="evenodd" /><g clip-path="url(#100)"></g><g clip-path="url(#101)"></g><g clip-path="url(#102)"></g><path transform="matrix(1 0 0 -1 0 841)" d="M89.904 337.85L497.374 337.85L497.374 337.85L497.374 356.93L497.374 356.93L89.904 356.93z" stroke="none" fill="#DAEEF3" fill-rule="evenodd" /><g clip-path="url(#103)"></g><g clip-path="url(#104)"></g><g clip-path="url(#105)"></g><path transform="matrix(1 0 0 -1 0 841)" d="M89.904 318.89L497.374 318.89L497.374 318.89L497.374 337.85L497.374 337.85L89.904 337.85z" stroke="none" fill="#DAEEF3" fill-rule="evenodd" /><g clip-path="url(#106)"></g><g clip-path="url(#107)"></g><g clip-path="url(#108)"></g><path transform="matrix(1 0 0 -1 0 841)" d="M89.904 299.81L497.374 299.81L497.374 299.81L497.374 318.89L497.374 318.89L89.904 318.89z" stroke="none" fill="#DAEEF3" fill-rule="evenodd" /><g clip-path="url(#109)"></g><g clip-path="url(#110)"></g><g clip-path="url(#111)"></g><path transform="matrix(1 0 0 -1 0 841)" d="M89.904 280.73L497.374 280.73L497.374 280.73L497.374 299.81L497.374 299.81L89.904 299.81z" stroke="none" fill="#DAEEF3" fill-rule="evenodd" /><g clip-path="url(#112)"></g><g clip-path="url(#113)"></g><g clip-path="url(#114)"></g><path transform="matrix(1 0 0 -1 0 841)" d="M89.904 261.65L497.374 261.65L497.374 261.65L497.374 280.73L497.374 280.73L89.904 280.73z" stroke="none" fill="#DAEEF3" fill-rule="evenodd" /><g clip-path="url(#115)"></g><g clip-path="url(#116)"></g><g clip-path="url(#117)"></g><path transform="matrix(1 0 0 -1 0 841)" d="M89.904 242.69L497.374 242.69L497.374 242.69L497.374 261.65L497.374 261.65L89.904 261.65z" stroke="none" fill="#DAEEF3" fill-rule="evenodd" /><g clip-path="url(#118)"></g><g clip-path="url(#119)"></g><g clip-path="url(#120)"></g><path transform="matrix(1 0 0 -1 0 841)" d="M89.904 223.61L497.374 223.61L497.374 223.61L497.374 242.69L497.374 242.69L89.904 242.69z" stroke="none" fill="#DAEEF3" fill-rule="evenodd" /><g clip-path="url(#121)"></g><g clip-path="url(#122)"></g><g clip-path="url(#123)"></g><path transform="matrix(1 0 0 -1 0 841)" d="M89.904 204.53L497.374 204.53L497.374 204.53L497.374 223.61L497.374 223.61L89.904 223.61z" stroke="none" fill="#DAEEF3" fill-rule="evenodd" /><g clip-path="url(#124)"></g><g clip-path="url(#125)"></g><g clip-path="url(#126)"></g><path transform="matrix(1 0 0 -1 0 841)" d="M89.904 185.45L497.374 185.45L497.374 185.45L497.374 204.53L497.374 204.53L89.904 204.53z" stroke="none" fill="#DAEEF3" fill-rule="evenodd" /><g clip-path="url(#127)"></g><g clip-path="url(#128)"></g><g clip-path="url(#129)"></g><path transform="matrix(1 0 0 -1 0 841)" d="M89.904 166.46L497.374 166.46L497.374 166.46L497.374 185.444L497.374 185.444L89.904 185.444z" stroke="none" fill="#DAEEF3" fill-rule="evenodd" /><g clip-path="url(#130)"></g><g clip-path="url(#131)"></g><g clip-path="url(#132)"></g><path transform="matrix(1 0 0 -1 0 841)" d="M89.904 147.38L497.374 147.38L497.374 147.38L497.374 166.46L497.374 166.46L89.904 166.46z" stroke="none" fill="#DAEEF3" fill-rule="evenodd" /><g clip-path="url(#133)"></g><g clip-path="url(#134)"></g><g clip-path="url(#135)"></g><path transform="matrix(1 0 0 -1 0 841)" d="M89.904 128.3L497.374 128.3L497.374 128.3L497.374 147.38L497.374 147.38L89.904 147.38z" stroke="none" fill="#DAEEF3" fill-rule="evenodd" /><g clip-path="url(#136)"></g><g clip-path="url(#137)"></g><g clip-path="url(#138)"></g><path transform="matrix(1 0 0 -1 0 841)" d="M89.904 109.22L497.374 109.22L497.374 109.22L497.374 128.3L497.374 128.3L89.904 128.3z" stroke="none" fill="#DAEEF3" fill-rule="evenodd" /><g clip-path="url(#139)"></g><g clip-path="url(#140)"></g></g><path transform="matrix(1 0 0 -1 0 841)" d="M84.264 547.51L84.744 547.51L84.744 547.51L84.744 547.99L84.744 547.99L84.264 547.99z" stroke="none" fill="#000000" fill-rule="evenodd" /><path transform="matrix(1 0 0 -1 0 841)" d="M84.744 547.51L502.534 547.51L502.534 547.51L502.534 547.99L502.534 547.99L84.744 547.99z" stroke="none" fill="#000000" fill-rule="evenodd" /><path transform="matrix(1 0 0 -1 0 841)" d="M502.54 547.51L503.02 547.51L503.02 547.51L503.02 547.99L503.02 547.99L502.54 547.99z" stroke="none" fill="#000000" fill-rule="evenodd" /><path transform="matrix(1 0 0 -1 0 841)" d="M84.264 109.22L84.744 109.22L84.744 109.22L84.744 547.51L84.744 547.51L84.264 547.51z" stroke="none" fill="#000000" fill-rule="evenodd" /><path transform="matrix(1 0 0 -1 0 841)" d="M84.264 108.74L84.744 108.74L84.744 108.74L84.744 109.22L84.744 109.22L84.264 109.22z" stroke="none" fill="#000000" fill-rule="evenodd" /><path transform="matrix(1 0 0 -1 0 841)" d="M84.264 108.74L84.744 108.74L84.744 108.74L84.744 109.22L84.744 109.22L84.264 109.22z" stroke="none" fill="#000000" fill-rule="evenodd" /><path transform="matrix(1 0 0 -1 0 841)" d="M84.744 108.74L502.534 108.74L502.534 108.74L502.534 109.22L502.534 109.22L84.744 109.22z" stroke="none" fill="#000000" fill-rule="evenodd" /><path transform="matrix(1 0 0 -1 0 841)" d="M502.54 109.22L503.02 109.22L503.02 109.22L503.02 547.51L503.02 547.51L502.54 547.51z" stroke="none" fill="#000000" fill-rule="evenodd" /><path transform="matrix(1 0 0 -1 0 841)" d="M502.54 108.74L503.02 108.74L503.02 108.74L503.02 109.22L503.02 109.22L502.54 109.22z" stroke="none" fill="#000000" fill-rule="evenodd" /><path transform="matrix(1 0 0 -1 0 841)" d="M502.54 108.74L503.02 108.74L503.02 108.74L503.02 109.22L503.02 109.22L502.54 109.22z" stroke="none" fill="#000000" fill-rule="evenodd" /></g></g></g></svg>