<svg xmlns="http://www.w3.org/2000/svg" xmlns:xlink="http://www.w3.org/1999/xlink" id="body_58" preserveAspectRatio="xMinYMin meet" viewBox="0 0 793 1121"><defs><clipPath id="1"><path d="M0 841L0 -0.9199829L0 -0.9199829L595.32 -0.9199829L595.32 -0.9199829L595.32 841L595.32 841L0 841z" /></clipPath><clipPath id="2"><path d="M0.00125 841.0914L595.4112 841.0914L595.4112 841.0914L595.4112 -0.9186401L595.4112 -0.9186401L0.00125 -0.9186401z" /></clipPath><clipPath id="3"><path d="M295.13 780.251L305.21 780.251L305.21 780.251L305.21 768.011L305.21 768.011L295.13 768.011z" /></clipPath><clipPath id="4"><path d="M295.13 780.256L305.21 780.256L305.21 780.256L305.21 768.016L305.21 768.016L295.13 768.016z" /></clipPath><clipPath id="5"><path d="M295.13 780.256L305.21 780.256L305.21 780.256L305.21 768.016L305.21 768.016L295.13 768.016z" /></clipPath><clipPath id="6"><path d="M84.751 203.71L510.691 203.71L510.691 203.71L510.691 89.44L510.691 89.44L84.751 89.44z" /></clipPath><clipPath id="7"><path d="M84.744 203.7L510.694 203.7L510.694 203.7L510.694 89.44L510.694 89.44L84.744 89.44z" /></clipPath><clipPath id="8"><path d="M84.744 203.7L510.694 203.7L510.694 203.7L510.694 89.44L510.694 89.44L84.744 89.44z" /></clipPath><clipPath id="9"><path d="M84.744 203.7L510.694 203.7L510.694 203.7L510.694 89.44L510.694 89.44L84.744 89.44z" /></clipPath><clipPath id="10"><path d="M84.744 203.7L510.694 203.7L510.694 203.7L510.694 89.44L510.694 89.44L84.744 89.44z" /></clipPath><clipPath id="11"><path d="M84.744 203.7L510.694 203.7L510.694 203.7L510.694 89.44L510.694 89.44L84.744 89.44z" /></clipPath><clipPath id="12"><path d="M84.744 203.7L510.694 203.7L510.694 203.7L510.694 89.44L510.694 89.44L84.744 89.44z" /></clipPath><clipPath id="13"><path d="M84.744 203.7L510.694 203.7L510.694 203.7L510.694 89.44L510.694 89.44L84.744 89.44z" /></clipPath><clipPath id="14"><path d="M84.744 203.7L510.694 203.7L510.694 203.7L510.694 89.44L510.694 89.44L84.744 89.44z" /></clipPath><clipPath id="15"><path d="M84.744 203.7L510.694 203.7L510.694 203.7L510.694 89.44L510.694 89.44L84.744 89.44z" /></clipPath><clipPath id="16"><path d="M84.744 203.7L510.694 203.7L510.694 203.7L510.694 89.44L510.694 89.44L84.744 89.44z" /></clipPath><clipPath id="17"><path d="M84.744 203.7L510.694 203.7L510.694 203.7L510.694 89.44L510.694 89.44L84.744 89.44z" /></clipPath><clipPath id="18"><path d="M84.744 203.7L510.694 203.7L510.694 203.7L510.694 89.44L510.694 89.44L84.744 89.44z" /></clipPath><clipPath id="19"><path d="M84.751 735.01L169.591 735.01L169.591 735.01L169.591 707.29L169.591 707.29L84.751 707.29z" /></clipPath><clipPath id="20"><path d="M84.744 735.02L169.584 735.02L169.584 735.02L169.584 707.3L169.584 707.3L84.744 707.3z" /></clipPath><clipPath id="21"><path d="M84.744 735.02L169.584 735.02L169.584 735.02L169.584 707.3L169.584 707.3L84.744 707.3z" /></clipPath><clipPath id="22"><path d="M170.19 735.01L224.325 735.01L224.325 735.01L224.325 707.29L224.325 707.29L170.19 707.29z" /></clipPath><clipPath id="23"><path d="M170.18 735.02L224.324 735.02L224.324 735.02L224.324 707.3L224.324 707.3L170.18 707.3z" /></clipPath><clipPath id="24"><path d="M170.18 735.02L224.324 735.02L224.324 735.02L224.324 707.3L224.324 707.3L170.18 707.3z" /></clipPath><clipPath id="25"><path d="M224.81 735.01L274.01 735.01L274.01 735.01L274.01 707.29L274.01 707.29L224.81 707.29z" /></clipPath><clipPath id="26"><path d="M224.81 735.02L274.01 735.02L274.01 735.02L274.01 707.3L274.01 707.3L224.81 707.3z" /></clipPath><clipPath id="27"><path d="M224.81 735.02L274.01 735.02L274.01 735.02L274.01 707.3L274.01 707.3L224.81 707.3z" /></clipPath><clipPath id="28"><path d="M274.49 735.01L387.2 735.01L387.2 735.01L387.2 707.29L387.2 707.29L274.49 707.29z" /></clipPath><clipPath id="29"><path d="M274.49 735.02L387.19 735.02L387.19 735.02L387.19 707.3L387.19 707.3L274.49 707.3z" /></clipPath><clipPath id="30"><path d="M274.49 735.02L387.19 735.02L387.19 735.02L387.19 707.3L387.19 707.3L274.49 707.3z" /></clipPath><clipPath id="31"><path d="M387.68 735.01L510.7 735.01L510.7 735.01L510.7 707.29L510.7 707.29L387.68 707.29z" /></clipPath><clipPath id="32"><path d="M387.67 735.02L510.69 735.02L510.69 735.02L510.69 707.3L510.69 707.3L387.67 707.3z" /></clipPath><clipPath id="33"><path d="M387.67 735.02L510.69 735.02L510.69 735.02L510.69 707.3L510.69 707.3L387.67 707.3z" /></clipPath><clipPath id="34"><path d="M-1.174E-06 580L595.32 580L595.32 580L595.32 315.28L595.32 315.28L-1.174E-06 315.28z" /></clipPath></defs><g transform="matrix(1.333333 0 0 1.333333 0 0)"><g><g clip-path="url(#1)"><path transform="matrix(1 0 0 -1 0 841)" d="M457.63 53.424L505.534 53.424L505.534 53.424L505.534 54.02404L505.534 54.02404L457.63 54.02404z" stroke="none" fill="#000000" fill-rule="evenodd" /><g clip-path="url(#2)"><path transform="matrix(1 0 0 -1 0 841)" d="M88.464 78.984L506.974 78.984L506.974 78.984L506.974 81.984L506.974 81.984L88.464 81.984z" stroke="none" fill="#000000" fill-rule="evenodd" /><path transform="matrix(1 0 0 -1 0 841)" d="M88.464 77.544L506.974 77.544L506.974 77.544L506.974 78.26397L506.974 78.26397L88.464 78.26397z" stroke="none" fill="#000000" fill-rule="evenodd" /></g><g clip-path="url(#3)"><g clip-path="url(#4)"></g><g clip-path="url(#5)"></g></g><path transform="matrix(1 0 0 -1 0 841)" d="M84.744 637.3L510.694 637.3L510.694 637.3L510.694 751.56L510.694 751.56L84.744 751.56z" stroke="none" fill="#DAEEF3" fill-rule="evenodd" /><g clip-path="url(#6)"><path transform="matrix(1 0 0 -1 0 841)" d="M89.904 732.46L505.534 732.46L505.534 732.46L505.534 751.564L505.534 751.564L89.904 751.564z" stroke="none" fill="#DAEEF3" fill-rule="evenodd" /><g clip-path="url(#7)"></g><g clip-path="url(#8)"></g><path transform="matrix(1 0 0 -1 0 841)" d="M89.904 713.5L505.534 713.5L505.534 713.5L505.534 732.46L505.534 732.46L89.904 732.46z" stroke="none" fill="#DAEEF3" fill-rule="evenodd" /><g clip-path="url(#9)"></g><g clip-path="url(#10)"></g><path transform="matrix(1 0 0 -1 0 841)" d="M89.904 694.42L505.534 694.42L505.534 694.42L505.534 713.5L505.534 713.5L89.904 713.5z" stroke="none" fill="#DAEEF3" fill-rule="evenodd" /><g clip-path="url(#11)"></g><g clip-path="url(#12)"></g><path transform="matrix(1 0 0 -1 0 841)" d="M89.904 675.34L505.534 675.34L505.534 675.34L505.534 694.42L505.534 694.42L89.904 694.42z" stroke="none" fill="#DAEEF3" fill-rule="evenodd" /><g clip-path="url(#13)"></g><g clip-path="url(#14)"></g><path transform="matrix(1 0 0 -1 0 841)" d="M89.904 656.26L505.534 656.26L505.534 656.26L505.534 675.34L505.534 675.34L89.904 675.34z" stroke="none" fill="#DAEEF3" fill-rule="evenodd" /><g clip-path="url(#15)"></g><g clip-path="url(#16)"></g><path transform="matrix(1 0 0 -1 0 841)" d="M89.904 637.3L505.534 637.3L505.534 637.3L505.534 656.26L505.534 656.26L89.904 656.26z" stroke="none" fill="#DAEEF3" fill-rule="evenodd" /><g clip-path="url(#17)"></g><g clip-path="url(#18)"></g></g><path transform="matrix(1 0 0 -1 0 841)" d="M84.264 751.56L84.744 751.56L84.744 751.56L84.744 752.04L84.744 752.04L84.264 752.04z" stroke="none" fill="#000000" fill-rule="evenodd" /><path transform="matrix(1 0 0 -1 0 841)" d="M84.264 751.56L84.744 751.56L84.744 751.56L84.744 752.04L84.744 752.04L84.264 752.04z" stroke="none" fill="#000000" fill-rule="evenodd" /><path transform="matrix(1 0 0 -1 0 841)" d="M84.744 751.56L510.694 751.56L510.694 751.56L510.694 752.04L510.694 752.04L84.744 752.04z" stroke="none" fill="#000000" fill-rule="evenodd" /><path transform="matrix(1 0 0 -1 0 841)" d="M510.7 751.56L511.18 751.56L511.18 751.56L511.18 752.04L511.18 752.04L510.7 752.04z" stroke="none" fill="#000000" fill-rule="evenodd" /><path transform="matrix(1 0 0 -1 0 841)" d="M510.7 751.56L511.18 751.56L511.18 751.56L511.18 752.04L511.18 752.04L510.7 752.04z" stroke="none" fill="#000000" fill-rule="evenodd" /><path transform="matrix(1 0 0 -1 0 841)" d="M84.264 637.18L84.744 637.18L84.744 637.18L84.744 751.56L84.744 751.56L84.264 751.56z" stroke="none" fill="#000000" fill-rule="evenodd" /><path transform="matrix(1 0 0 -1 0 841)" d="M84.264 636.7L84.744 636.7L84.744 636.7L84.744 637.18L84.744 637.18L84.264 637.18z" stroke="none" fill="#000000" fill-rule="evenodd" /><path transform="matrix(1 0 0 -1 0 841)" d="M84.264 636.7L84.744 636.7L84.744 636.7L84.744 637.18L84.744 637.18L84.264 637.18z" stroke="none" fill="#000000" fill-rule="evenodd" /><path transform="matrix(1 0 0 -1 0 841)" d="M84.744 636.7L510.694 636.7L510.694 636.7L510.694 637.18L510.694 637.18L84.744 637.18z" stroke="none" fill="#000000" fill-rule="evenodd" /><path transform="matrix(1 0 0 -1 0 841)" d="M510.7 637.18L511.18 637.18L511.18 637.18L511.18 751.56L511.18 751.56L510.7 751.56z" stroke="none" fill="#000000" fill-rule="evenodd" /><path transform="matrix(1 0 0 -1 0 841)" d="M510.7 636.7L511.18 636.7L511.18 636.7L511.18 637.18L511.18 637.18L510.7 637.18z" stroke="none" fill="#000000" fill-rule="evenodd" /><path transform="matrix(1 0 0 -1 0 841)" d="M510.7 636.7L511.18 636.7L511.18 636.7L511.18 637.18L511.18 637.18L510.7 637.18z" stroke="none" fill="#000000" fill-rule="evenodd" /><path transform="matrix(1 0 0 -1 0 841)" d="M187.94 590.98L257.924 590.98L257.924 590.98L257.924 591.7L257.924 591.7L187.94 591.7z" stroke="none" fill="#000000" fill-rule="evenodd" /><path transform="matrix(1 0 0 -1 0 841)" d="M271.85 590.98L313.97 590.98L313.97 590.98L313.97 591.7L313.97 591.7L271.85 591.7z" stroke="none" fill="#000000" fill-rule="evenodd" /><path transform="matrix(1 0 0 -1 0 841)" d="M185.66 198.41L266.084 198.41L266.084 198.41L266.084 199.25L266.084 199.25L185.66 199.25z" stroke="none" fill="#000000" fill-rule="evenodd" /><path transform="matrix(1 0 0 -1 0 841)" d="M282.17 198.41L330.29 198.41L330.29 198.41L330.29 199.25L330.29 199.25L282.17 199.25z" stroke="none" fill="#000000" fill-rule="evenodd" /><path transform="matrix(1 0 0 -1 0 841)" d="M84.744 105.98L169.584 105.98L169.584 105.98L169.584 133.7L169.584 133.7L84.744 133.7z" stroke="none" fill="#0070C0" fill-rule="evenodd" /><g clip-path="url(#19)"><path transform="matrix(1 0 0 -1 0 841)" d="M89.904 105.98L164.424 105.98L164.424 105.98L164.424 133.7L164.424 133.7L89.904 133.7z" stroke="none" fill="#0070C0" fill-rule="evenodd" /><g clip-path="url(#20)"></g><g clip-path="url(#21)"></g></g><path transform="matrix(1 0 0 -1 0 841)" d="M170.18 105.98L224.324 105.98L224.324 105.98L224.324 133.7L224.324 133.7L170.18 133.7z" stroke="none" fill="#0070C0" fill-rule="evenodd" /><g clip-path="url(#22)"><path transform="matrix(1 0 0 -1 0 841)" d="M175.22 105.98L219.164 105.98L219.164 105.98L219.164 133.7L219.164 133.7L175.22 133.7z" stroke="none" fill="#0070C0" fill-rule="evenodd" /><g clip-path="url(#23)"></g><g clip-path="url(#24)"></g></g><path transform="matrix(1 0 0 -1 0 841)" d="M224.81 105.98L274.01 105.98L274.01 105.98L274.01 133.7L274.01 133.7L224.81 133.7z" stroke="none" fill="#0070C0" fill-rule="evenodd" /><g clip-path="url(#25)"><path transform="matrix(1 0 0 -1 0 841)" d="M229.97 105.98L268.85 105.98L268.85 105.98L268.85 133.7L268.85 133.7L229.97 133.7z" stroke="none" fill="#0070C0" fill-rule="evenodd" /><g clip-path="url(#26)"></g><g clip-path="url(#27)"></g></g><path transform="matrix(1 0 0 -1 0 841)" d="M274.49 105.98L387.19 105.98L387.19 105.98L387.19 133.7L387.19 133.7L274.49 133.7z" stroke="none" fill="#0070C0" fill-rule="evenodd" /><g clip-path="url(#28)"><path transform="matrix(1 0 0 -1 0 841)" d="M279.65 105.98L382.03 105.98L382.03 105.98L382.03 133.7L382.03 133.7L279.65 133.7z" stroke="none" fill="#0070C0" fill-rule="evenodd" /><g clip-path="url(#29)"></g><g clip-path="url(#30)"></g></g><path transform="matrix(1 0 0 -1 0 841)" d="M387.67 105.98L510.69 105.98L510.69 105.98L510.69 133.7L510.69 133.7L387.67 133.7z" stroke="none" fill="#0070C0" fill-rule="evenodd" /><g clip-path="url(#31)"><path transform="matrix(1 0 0 -1 0 841)" d="M392.83 105.98L505.53 105.98L505.53 105.98L505.53 133.7L505.53 133.7L392.83 133.7z" stroke="none" fill="#0070C0" fill-rule="evenodd" /><g clip-path="url(#32)"></g><g clip-path="url(#33)"></g></g><path transform="matrix(1 0 0 -1 0 841)" d="M84.264 133.7L84.744 133.7L84.744 133.7L84.744 134.18L84.744 134.18L84.264 134.18z" stroke="none" fill="#000000" fill-rule="evenodd" /><path transform="matrix(1 0 0 -1 0 841)" d="M84.264 133.7L84.744 133.7L84.744 133.7L84.744 134.18L84.744 134.18L84.264 134.18z" stroke="none" fill="#000000" fill-rule="evenodd" /><path transform="matrix(1 0 0 -1 0 841)" d="M84.744 133.7L169.704 133.7L169.704 133.7L169.704 134.18L169.704 134.18L84.744 134.18z" stroke="none" fill="#000000" fill-rule="evenodd" /><path transform="matrix(1 0 0 -1 0 841)" d="M169.7 133.7L170.18 133.7L170.18 133.7L170.18 134.18L170.18 134.18L169.7 134.18z" stroke="none" fill="#000000" fill-rule="evenodd" /><path transform="matrix(1 0 0 -1 0 841)" d="M170.18 133.7L224.324 133.7L224.324 133.7L224.324 134.18L224.324 134.18L170.18 134.18z" stroke="none" fill="#000000" fill-rule="evenodd" /><path transform="matrix(1 0 0 -1 0 841)" d="M224.33 133.7L224.81 133.7L224.81 133.7L224.81 134.18L224.81 134.18L224.33 134.18z" stroke="none" fill="#000000" fill-rule="evenodd" /><path transform="matrix(1 0 0 -1 0 841)" d="M224.81 133.7L274.01 133.7L274.01 133.7L274.01 134.18L274.01 134.18L224.81 134.18z" stroke="none" fill="#000000" fill-rule="evenodd" /><path transform="matrix(1 0 0 -1 0 841)" d="M274.01 133.7L274.49 133.7L274.49 133.7L274.49 134.18L274.49 134.18L274.01 134.18z" stroke="none" fill="#000000" fill-rule="evenodd" /><path transform="matrix(1 0 0 -1 0 841)" d="M274.49 133.7L387.19 133.7L387.19 133.7L387.19 134.18L387.19 134.18L274.49 134.18z" stroke="none" fill="#000000" fill-rule="evenodd" /><path transform="matrix(1 0 0 -1 0 841)" d="M387.19 133.7L387.67 133.7L387.67 133.7L387.67 134.18L387.67 134.18L387.19 134.18z" stroke="none" fill="#000000" fill-rule="evenodd" /><path transform="matrix(1 0 0 -1 0 841)" d="M387.67 133.7L510.69 133.7L510.69 133.7L510.69 134.18L510.69 134.18L387.67 134.18z" stroke="none" fill="#000000" fill-rule="evenodd" /><path transform="matrix(1 0 0 -1 0 841)" d="M510.7 133.7L511.18 133.7L511.18 133.7L511.18 134.18L511.18 134.18L510.7 134.18z" stroke="none" fill="#000000" fill-rule="evenodd" /><path transform="matrix(1 0 0 -1 0 841)" d="M510.7 133.7L511.18 133.7L511.18 133.7L511.18 134.18L511.18 134.18L510.7 134.18z" stroke="none" fill="#000000" fill-rule="evenodd" /><path transform="matrix(1 0 0 -1 0 841)" d="M84.264 105.98L84.744 105.98L84.744 105.98L84.744 133.7L84.744 133.7L84.264 133.7z" stroke="none" fill="#000000" fill-rule="evenodd" /><path transform="matrix(1 0 0 -1 0 841)" d="M84.264 105.5L84.744 105.5L84.744 105.5L84.744 105.98L84.744 105.98L84.264 105.98z" stroke="none" fill="#000000" fill-rule="evenodd" /><path transform="matrix(1 0 0 -1 0 841)" d="M84.264 105.5L84.744 105.5L84.744 105.5L84.744 105.98L84.744 105.98L84.264 105.98z" stroke="none" fill="#000000" fill-rule="evenodd" /><path transform="matrix(1 0 0 -1 0 841)" d="M84.744 105.5L169.704 105.5L169.704 105.5L169.704 105.98L169.704 105.98L84.744 105.98z" stroke="none" fill="#000000" fill-rule="evenodd" /><path transform="matrix(1 0 0 -1 0 841)" d="M169.7 105.98L170.18 105.98L170.18 105.98L170.18 133.7L170.18 133.7L169.7 133.7z" stroke="none" fill="#000000" fill-rule="evenodd" /><path transform="matrix(1 0 0 -1 0 841)" d="M169.7 105.5L170.18 105.5L170.18 105.5L170.18 105.98L170.18 105.98L169.7 105.98z" stroke="none" fill="#000000" fill-rule="evenodd" /><path transform="matrix(1 0 0 -1 0 841)" d="M170.18 105.5L224.324 105.5L224.324 105.5L224.324 105.98L224.324 105.98L170.18 105.98z" stroke="none" fill="#000000" fill-rule="evenodd" /><path transform="matrix(1 0 0 -1 0 841)" d="M224.33 105.98L224.81 105.98L224.81 105.98L224.81 133.7L224.81 133.7L224.33 133.7z" stroke="none" fill="#000000" fill-rule="evenodd" /><path transform="matrix(1 0 0 -1 0 841)" d="M224.33 105.5L224.81 105.5L224.81 105.5L224.81 105.98L224.81 105.98L224.33 105.98z" stroke="none" fill="#000000" fill-rule="evenodd" /><path transform="matrix(1 0 0 -1 0 841)" d="M224.81 105.5L274.01 105.5L274.01 105.5L274.01 105.98L274.01 105.98L224.81 105.98z" stroke="none" fill="#000000" fill-rule="evenodd" /><path transform="matrix(1 0 0 -1 0 841)" d="M274.01 105.98L274.49 105.98L274.49 105.98L274.49 133.7L274.49 133.7L274.01 133.7z" stroke="none" fill="#000000" fill-rule="evenodd" /><path transform="matrix(1 0 0 -1 0 841)" d="M274.01 105.5L274.49 105.5L274.49 105.5L274.49 105.98L274.49 105.98L274.01 105.98z" stroke="none" fill="#000000" fill-rule="evenodd" /><path transform="matrix(1 0 0 -1 0 841)" d="M274.49 105.5L387.19 105.5L387.19 105.5L387.19 105.98L387.19 105.98L274.49 105.98z" stroke="none" fill="#000000" fill-rule="evenodd" /><path transform="matrix(1 0 0 -1 0 841)" d="M387.19 105.98L387.67 105.98L387.67 105.98L387.67 133.7L387.67 133.7L387.19 133.7z" stroke="none" fill="#000000" fill-rule="evenodd" /><path transform="matrix(1 0 0 -1 0 841)" d="M387.19 105.5L387.67 105.5L387.67 105.5L387.67 105.98L387.67 105.98L387.19 105.98z" stroke="none" fill="#000000" fill-rule="evenodd" /><path transform="matrix(1 0 0 -1 0 841)" d="M387.67 105.5L510.69 105.5L510.69 105.5L510.69 105.98L510.69 105.98L387.67 105.98z" stroke="none" fill="#000000" fill-rule="evenodd" /><path transform="matrix(1 0 0 -1 0 841)" d="M510.7 105.98L511.18 105.98L511.18 105.98L511.18 133.7L511.18 133.7L510.7 133.7z" stroke="none" fill="#000000" fill-rule="evenodd" /><path transform="matrix(1 0 0 -1 0 841)" d="M510.7 105.5L511.18 105.5L511.18 105.5L511.18 105.98L511.18 105.98L510.7 105.98z" stroke="none" fill="#000000" fill-rule="evenodd" /><path transform="matrix(1 0 0 -1 0 841)" d="M510.7 105.5L511.18 105.5L511.18 105.5L511.18 105.98L511.18 105.98L510.7 105.98z" stroke="none" fill="#000000" fill-rule="evenodd" /><g clip-path="url(#34)"><g transform="matrix(0.330415 0 0 0.3299457 170.28 329.23)"><g transform="matrix(1 0 0 1 0 0)"><image x="0" y="0" xlink:href="img_69.png" width="771" height="736" /></g></g></g></g></g></g></svg>