<svg xmlns="http://www.w3.org/2000/svg" xmlns:xlink="http://www.w3.org/1999/xlink" id="body_110" preserveAspectRatio="xMinYMin meet" viewBox="0 0 793 1121"><defs><clipPath id="1"><path d="M0 841L0 -0.9199829L0 -0.9199829L595.32 -0.9199829L595.32 -0.9199829L595.32 841L595.32 841L0 841z" /></clipPath><clipPath id="2"><path d="M0.00125 841.0914L595.4112 841.0914L595.4112 841.0914L595.4112 -0.9186401L595.4112 -0.9186401L0.00125 -0.9186401z" /></clipPath><clipPath id="3"><path d="M288.05 779.771L316.01 779.771L316.01 779.771L316.01 760.691L316.01 760.691L288.05 760.691z" /></clipPath><clipPath id="4"><path d="M288.05 779.776L316.01 779.776L316.01 779.776L316.01 760.696L316.01 760.696L288.05 760.696z" /></clipPath><clipPath id="5"><path d="M288.05 779.776L316.01 779.776L316.01 779.776L316.01 760.696L316.01 760.696L288.05 760.696z" /></clipPath><clipPath id="6"><path d="M388.28 146.59L510.7 146.59L510.7 146.59L510.7 89.44L510.7 89.44L388.28 89.44z" /></clipPath><clipPath id="7"><path d="M388.27 146.58L510.69 146.58L510.69 146.58L510.69 89.43604L510.69 89.43604L388.27 89.43604z" /></clipPath><clipPath id="8"><path d="M388.27 146.58L510.69 146.58L510.69 146.58L510.69 89.43604L510.69 89.43604L388.27 89.43604z" /></clipPath><clipPath id="9"><path d="M388.27 146.58L510.69 146.58L510.69 146.58L510.69 89.43604L510.69 89.43604L388.27 89.43604z" /></clipPath><clipPath id="10"><path d="M388.27 146.58L510.69 146.58L510.69 146.58L510.69 89.43604L510.69 89.43604L388.27 89.43604z" /></clipPath><clipPath id="11"><path d="M388.27 146.58L510.69 146.58L510.69 146.58L510.69 89.43604L510.69 89.43604L388.27 89.43604z" /></clipPath><clipPath id="12"><path d="M388.27 146.58L510.69 146.58L510.69 146.58L510.69 89.43604L510.69 89.43604L388.27 89.43604z" /></clipPath><clipPath id="13"><path d="M388.27 146.58L510.69 146.58L510.69 146.58L510.69 89.43604L510.69 89.43604L388.27 89.43604z" /></clipPath><clipPath id="14"><path d="M388.27 146.58L510.69 146.58L510.69 146.58L510.69 89.43604L510.69 89.43604L388.27 89.43604z" /></clipPath><clipPath id="15"><path d="M388.27 146.58L510.69 146.58L510.69 146.58L510.69 89.43604L510.69 89.43604L388.27 89.43604z" /></clipPath><clipPath id="16"><path d="M388.27 146.58L510.69 146.58L510.69 146.58L510.69 89.43604L510.69 89.43604L388.27 89.43604z" /></clipPath><clipPath id="17"><path d="M388.27 146.58L510.69 146.58L510.69 146.58L510.69 89.43604L510.69 89.43604L388.27 89.43604z" /></clipPath><clipPath id="18"><path d="M388.27 146.58L510.69 146.58L510.69 146.58L510.69 89.43604L510.69 89.43604L388.27 89.43604z" /></clipPath><clipPath id="19"><path d="M388.27 146.58L510.69 146.58L510.69 146.58L510.69 89.43604L510.69 89.43604L388.27 89.43604z" /></clipPath><clipPath id="20"><path d="M388.27 146.58L510.69 146.58L510.69 146.58L510.69 89.43604L510.69 89.43604L388.27 89.43604z" /></clipPath><clipPath id="21"><path d="M388.27 146.58L510.69 146.58L510.69 146.58L510.69 89.43604L510.69 89.43604L388.27 89.43604z" /></clipPath><clipPath id="22"><path d="M84.751 166.15L164.191 166.15L164.191 166.15L164.191 147.07L164.191 147.07L84.751 147.07z" /></clipPath><clipPath id="23"><path d="M84.744 166.14L164.184 166.14L164.184 166.14L164.184 147.06L164.184 147.06L84.744 147.06z" /></clipPath><clipPath id="24"><path d="M84.744 166.14L164.184 166.14L164.184 166.14L164.184 147.06L164.184 147.06L84.744 147.06z" /></clipPath><clipPath id="25"><path d="M164.67 166.15L222.405 166.15L222.405 166.15L222.405 147.07L222.405 147.07L164.67 147.07z" /></clipPath><clipPath id="26"><path d="M164.66 166.14L222.404 166.14L222.404 166.14L222.404 147.06L222.404 147.06L164.66 147.06z" /></clipPath><clipPath id="27"><path d="M164.66 166.14L222.404 166.14L222.404 166.14L222.404 147.06L222.404 147.06L164.66 147.06z" /></clipPath><clipPath id="28"><path d="M223.01 166.15L266.09 166.15L266.09 166.15L266.09 147.07L266.09 147.07L223.01 147.07z" /></clipPath><clipPath id="29"><path d="M223.01 166.14L266.09 166.14L266.09 166.14L266.09 147.06L266.09 147.06L223.01 147.06z" /></clipPath><clipPath id="30"><path d="M223.01 166.14L266.09 166.14L266.09 166.14L266.09 147.06L266.09 147.06L223.01 147.06z" /></clipPath><clipPath id="31"><path d="M266.57 166.15L387.68 166.15L387.68 166.15L387.68 147.07L387.68 147.07L266.57 147.07z" /></clipPath><clipPath id="32"><path d="M266.57 166.14L387.67 166.14L387.67 166.14L387.67 147.06L387.67 147.06L266.57 147.06z" /></clipPath><clipPath id="33"><path d="M266.57 166.14L387.67 166.14L387.67 166.14L387.67 147.06L387.67 147.06L266.57 147.06z" /></clipPath><clipPath id="34"><path d="M388.28 166.15L510.7 166.15L510.7 166.15L510.7 147.07L510.7 147.07L388.28 147.07z" /></clipPath><clipPath id="35"><path d="M388.27 166.14L510.69 166.14L510.69 166.14L510.69 147.06L510.69 147.06L388.27 147.06z" /></clipPath><clipPath id="36"><path d="M388.27 166.14L510.69 166.14L510.69 166.14L510.69 147.06L510.69 147.06L388.27 147.06z" /></clipPath><clipPath id="37"><path d="M84.751 205.27L510.691 205.27L510.691 205.27L510.691 186.19L510.691 186.19L84.751 186.19z" /></clipPath><clipPath id="38"><path d="M84.744 205.26L510.694 205.26L510.694 205.26L510.694 186.18L510.694 186.18L84.744 186.18z" /></clipPath><clipPath id="39"><path d="M84.744 205.26L510.694 205.26L510.694 205.26L510.694 186.18L510.694 186.18L84.744 186.18z" /></clipPath><clipPath id="40"><path d="M84.744 205.26L510.694 205.26L510.694 205.26L510.694 186.18L510.694 186.18L84.744 186.18z" /></clipPath><clipPath id="41"><path d="M84.751 358.17L510.691 358.17L510.691 358.17L510.691 205.75L510.691 205.75L84.751 205.75z" /></clipPath><clipPath id="42"><path d="M84.744 358.17L510.694 358.17L510.694 358.17L510.694 205.75L510.694 205.75L84.744 205.75z" /></clipPath><clipPath id="43"><path d="M84.744 358.17L510.694 358.17L510.694 358.17L510.694 205.75L510.694 205.75L84.744 205.75z" /></clipPath><clipPath id="44"><path d="M84.744 358.17L510.694 358.17L510.694 358.17L510.694 205.75L510.694 205.75L84.744 205.75z" /></clipPath><clipPath id="45"><path d="M84.744 358.17L510.694 358.17L510.694 358.17L510.694 205.75L510.694 205.75L84.744 205.75z" /></clipPath><clipPath id="46"><path d="M84.744 358.17L510.694 358.17L510.694 358.17L510.694 205.75L510.694 205.75L84.744 205.75z" /></clipPath><clipPath id="47"><path d="M84.744 358.17L510.694 358.17L510.694 358.17L510.694 205.75L510.694 205.75L84.744 205.75z" /></clipPath><clipPath id="48"><path d="M84.744 358.17L510.694 358.17L510.694 358.17L510.694 205.75L510.694 205.75L84.744 205.75z" /></clipPath><clipPath id="49"><path d="M84.744 358.17L510.694 358.17L510.694 358.17L510.694 205.75L510.694 205.75L84.744 205.75z" /></clipPath><clipPath id="50"><path d="M84.744 358.17L510.694 358.17L510.694 358.17L510.694 205.75L510.694 205.75L84.744 205.75z" /></clipPath><clipPath id="51"><path d="M84.744 358.17L510.694 358.17L510.694 358.17L510.694 205.75L510.694 205.75L84.744 205.75z" /></clipPath><clipPath id="52"><path d="M84.744 358.17L510.694 358.17L510.694 358.17L510.694 205.75L510.694 205.75L84.744 205.75z" /></clipPath><clipPath id="53"><path d="M84.744 358.17L510.694 358.17L510.694 358.17L510.694 205.75L510.694 205.75L84.744 205.75z" /></clipPath><clipPath id="54"><path d="M84.744 358.17L510.694 358.17L510.694 358.17L510.694 205.75L510.694 205.75L84.744 205.75z" /></clipPath><clipPath id="55"><path d="M84.744 358.17L510.694 358.17L510.694 358.17L510.694 205.75L510.694 205.75L84.744 205.75z" /></clipPath><clipPath id="56"><path d="M84.744 358.17L510.694 358.17L510.694 358.17L510.694 205.75L510.694 205.75L84.744 205.75z" /></clipPath><clipPath id="57"><path d="M84.744 358.17L510.694 358.17L510.694 358.17L510.694 205.75L510.694 205.75L84.744 205.75z" /></clipPath><clipPath id="58"><path d="M84.744 358.17L510.694 358.17L510.694 358.17L510.694 205.75L510.694 205.75L84.744 205.75z" /></clipPath><clipPath id="59"><path d="M84.744 358.17L510.694 358.17L510.694 358.17L510.694 205.75L510.694 205.75L84.744 205.75z" /></clipPath><clipPath id="60"><path d="M84.744 358.17L510.694 358.17L510.694 358.17L510.694 205.75L510.694 205.75L84.744 205.75z" /></clipPath></defs><g transform="matrix(1.333333 0 0 1.333333 0 0)"><g><g clip-path="url(#1)"><path transform="matrix(1 0 0 -1 0 841)" d="M457.51 53.304L505.534 53.304L505.534 53.304L505.534 53.90404L505.534 53.90404L457.51 53.90404z" stroke="none" fill="#000000" fill-rule="evenodd" /><g clip-path="url(#2)"><path transform="matrix(1 0 0 -1 0 841)" d="M88.464 77.904L506.974 77.904L506.974 77.904L506.974 80.904L506.974 80.904L88.464 80.904z" stroke="none" fill="#000000" fill-rule="evenodd" /><path transform="matrix(1 0 0 -1 0 841)" d="M88.464 76.464L506.974 76.464L506.974 76.464L506.974 77.18397L506.974 77.18397L88.464 77.18397z" stroke="none" fill="#000000" fill-rule="evenodd" /></g><g clip-path="url(#3)"><g clip-path="url(#4)"></g><g clip-path="url(#5)"></g></g><path transform="matrix(1 0 0 -1 0 841)" d="M84.744 694.42L164.184 694.42L164.184 694.42L164.184 751.564L164.184 751.564L84.744 751.564z" stroke="none" fill="#DAEEF3" fill-rule="evenodd" /><path transform="matrix(1 0 0 -1 0 841)" d="M164.66 694.42L222.404 694.42L222.404 694.42L222.404 751.564L222.404 751.564L164.66 751.564z" stroke="none" fill="#DAEEF3" fill-rule="evenodd" /><path transform="matrix(1 0 0 -1 0 841)" d="M223.01 694.42L266.09 694.42L266.09 694.42L266.09 751.564L266.09 751.564L223.01 751.564z" stroke="none" fill="#DAEEF3" fill-rule="evenodd" /><path transform="matrix(1 0 0 -1 0 841)" d="M266.57 694.42L387.67 694.42L387.67 694.42L387.67 751.564L387.67 751.564L266.57 751.564z" stroke="none" fill="#DAEEF3" fill-rule="evenodd" /><path transform="matrix(1 0 0 -1 0 841)" d="M388.27 694.42L510.69 694.42L510.69 694.42L510.69 751.564L510.69 751.564L388.27 751.564z" stroke="none" fill="#DAEEF3" fill-rule="evenodd" /><g clip-path="url(#6)"><path transform="matrix(1 0 0 -1 0 841)" d="M393.43 732.46L505.53 732.46L505.53 732.46L505.53 751.564L505.53 751.564L393.43 751.564z" stroke="none" fill="#DAEEF3" fill-rule="evenodd" /><g clip-path="url(#7)"></g><g clip-path="url(#8)"></g><g clip-path="url(#9)"></g><g clip-path="url(#10)"></g><g clip-path="url(#11)"></g><g clip-path="url(#12)"></g><path transform="matrix(1 0 0 -1 0 841)" d="M393.43 713.5L505.53 713.5L505.53 713.5L505.53 732.46L505.53 732.46L393.43 732.46z" stroke="none" fill="#DAEEF3" fill-rule="evenodd" /><g clip-path="url(#13)"></g><g clip-path="url(#14)"></g><g clip-path="url(#15)"></g><g clip-path="url(#16)"></g><g clip-path="url(#17)"></g><path transform="matrix(1 0 0 -1 0 841)" d="M393.43 694.42L505.53 694.42L505.53 694.42L505.53 713.5L505.53 713.5L393.43 713.5z" stroke="none" fill="#DAEEF3" fill-rule="evenodd" /><g clip-path="url(#18)"></g><g clip-path="url(#19)"></g><g clip-path="url(#20)"></g><g clip-path="url(#21)"></g></g><path transform="matrix(1 0 0 -1 0 841)" d="M84.264 751.56L84.744 751.56L84.744 751.56L84.744 752.04L84.744 752.04L84.264 752.04z" stroke="none" fill="#000000" fill-rule="evenodd" /><path transform="matrix(1 0 0 -1 0 841)" d="M84.264 751.56L84.744 751.56L84.744 751.56L84.744 752.04L84.744 752.04L84.264 752.04z" stroke="none" fill="#000000" fill-rule="evenodd" /><path transform="matrix(1 0 0 -1 0 841)" d="M84.744 751.56L164.184 751.56L164.184 751.56L164.184 752.04L164.184 752.04L84.744 752.04z" stroke="none" fill="#000000" fill-rule="evenodd" /><path transform="matrix(1 0 0 -1 0 841)" d="M164.18 751.56L164.66 751.56L164.66 751.56L164.66 752.04L164.66 752.04L164.18 752.04z" stroke="none" fill="#000000" fill-rule="evenodd" /><path transform="matrix(1 0 0 -1 0 841)" d="M164.66 751.56L222.524 751.56L222.524 751.56L222.524 752.04L222.524 752.04L164.66 752.04z" stroke="none" fill="#000000" fill-rule="evenodd" /><path transform="matrix(1 0 0 -1 0 841)" d="M222.53 751.56L223.01 751.56L223.01 751.56L223.01 752.04L223.01 752.04L222.53 752.04z" stroke="none" fill="#000000" fill-rule="evenodd" /><path transform="matrix(1 0 0 -1 0 841)" d="M223.01 751.56L266.09 751.56L266.09 751.56L266.09 752.04L266.09 752.04L223.01 752.04z" stroke="none" fill="#000000" fill-rule="evenodd" /><path transform="matrix(1 0 0 -1 0 841)" d="M266.09 751.56L266.57 751.56L266.57 751.56L266.57 752.04L266.57 752.04L266.09 752.04z" stroke="none" fill="#000000" fill-rule="evenodd" /><path transform="matrix(1 0 0 -1 0 841)" d="M266.57 751.56L387.79 751.56L387.79 751.56L387.79 752.04L387.79 752.04L266.57 752.04z" stroke="none" fill="#000000" fill-rule="evenodd" /><path transform="matrix(1 0 0 -1 0 841)" d="M387.79 751.56L388.27 751.56L388.27 751.56L388.27 752.04L388.27 752.04L387.79 752.04z" stroke="none" fill="#000000" fill-rule="evenodd" /><path transform="matrix(1 0 0 -1 0 841)" d="M388.27 751.56L510.69 751.56L510.69 751.56L510.69 752.04L510.69 752.04L388.27 752.04z" stroke="none" fill="#000000" fill-rule="evenodd" /><path transform="matrix(1 0 0 -1 0 841)" d="M510.7 751.56L511.18 751.56L511.18 751.56L511.18 752.04L511.18 752.04L510.7 752.04z" stroke="none" fill="#000000" fill-rule="evenodd" /><path transform="matrix(1 0 0 -1 0 841)" d="M510.7 751.56L511.18 751.56L511.18 751.56L511.18 752.04L511.18 752.04L510.7 752.04z" stroke="none" fill="#000000" fill-rule="evenodd" /><path transform="matrix(1 0 0 -1 0 841)" d="M84.264 694.42L84.744 694.42L84.744 694.42L84.744 751.564L84.744 751.564L84.264 751.564z" stroke="none" fill="#000000" fill-rule="evenodd" /><path transform="matrix(1 0 0 -1 0 841)" d="M164.18 694.42L164.66 694.42L164.66 694.42L164.66 751.564L164.66 751.564L164.18 751.564z" stroke="none" fill="#000000" fill-rule="evenodd" /><path transform="matrix(1 0 0 -1 0 841)" d="M222.53 694.42L223.01 694.42L223.01 694.42L223.01 751.564L223.01 751.564L222.53 751.564z" stroke="none" fill="#000000" fill-rule="evenodd" /><path transform="matrix(1 0 0 -1 0 841)" d="M266.09 694.42L266.57 694.42L266.57 694.42L266.57 751.564L266.57 751.564L266.09 751.564z" stroke="none" fill="#000000" fill-rule="evenodd" /><path transform="matrix(1 0 0 -1 0 841)" d="M387.79 694.42L388.27 694.42L388.27 694.42L388.27 751.564L388.27 751.564L387.79 751.564z" stroke="none" fill="#000000" fill-rule="evenodd" /><path transform="matrix(1 0 0 -1 0 841)" d="M510.7 694.42L511.18 694.42L511.18 694.42L511.18 751.564L511.18 751.564L510.7 751.564z" stroke="none" fill="#000000" fill-rule="evenodd" /><g clip-path="url(#22)"><g clip-path="url(#23)"></g><g clip-path="url(#24)"></g></g><g clip-path="url(#25)"><g clip-path="url(#26)"></g><g clip-path="url(#27)"></g></g><g clip-path="url(#28)"><g clip-path="url(#29)"></g><g clip-path="url(#30)"></g></g><g clip-path="url(#31)"><g clip-path="url(#32)"></g><g clip-path="url(#33)"></g></g><g clip-path="url(#34)"><g clip-path="url(#35)"></g><g clip-path="url(#36)"></g></g><path transform="matrix(1 0 0 -1 0 841)" d="M84.264 693.94L84.744 693.94L84.744 693.94L84.744 694.42L84.744 694.42L84.264 694.42z" stroke="none" fill="#000000" fill-rule="evenodd" /><path transform="matrix(1 0 0 -1 0 841)" d="M84.744 693.94L164.184 693.94L164.184 693.94L164.184 694.42L164.184 694.42L84.744 694.42z" stroke="none" fill="#000000" fill-rule="evenodd" /><path transform="matrix(1 0 0 -1 0 841)" d="M164.18 693.94L164.66 693.94L164.66 693.94L164.66 694.42L164.66 694.42L164.18 694.42z" stroke="none" fill="#000000" fill-rule="evenodd" /><path transform="matrix(1 0 0 -1 0 841)" d="M164.66 693.94L222.524 693.94L222.524 693.94L222.524 694.42L222.524 694.42L164.66 694.42z" stroke="none" fill="#000000" fill-rule="evenodd" /><path transform="matrix(1 0 0 -1 0 841)" d="M222.53 693.94L223.01 693.94L223.01 693.94L223.01 694.42L223.01 694.42L222.53 694.42z" stroke="none" fill="#000000" fill-rule="evenodd" /><path transform="matrix(1 0 0 -1 0 841)" d="M223.01 693.94L266.09 693.94L266.09 693.94L266.09 694.42L266.09 694.42L223.01 694.42z" stroke="none" fill="#000000" fill-rule="evenodd" /><path transform="matrix(1 0 0 -1 0 841)" d="M266.09 693.94L266.57 693.94L266.57 693.94L266.57 694.42L266.57 694.42L266.09 694.42z" stroke="none" fill="#000000" fill-rule="evenodd" /><path transform="matrix(1 0 0 -1 0 841)" d="M266.57 693.94L387.79 693.94L387.79 693.94L387.79 694.42L387.79 694.42L266.57 694.42z" stroke="none" fill="#000000" fill-rule="evenodd" /><path transform="matrix(1 0 0 -1 0 841)" d="M387.79 693.94L388.27 693.94L388.27 693.94L388.27 694.42L388.27 694.42L387.79 694.42z" stroke="none" fill="#000000" fill-rule="evenodd" /><path transform="matrix(1 0 0 -1 0 841)" d="M388.27 693.94L510.69 693.94L510.69 693.94L510.69 694.42L510.69 694.42L388.27 694.42z" stroke="none" fill="#000000" fill-rule="evenodd" /><path transform="matrix(1 0 0 -1 0 841)" d="M510.7 693.94L511.18 693.94L511.18 693.94L511.18 694.42L511.18 694.42L510.7 694.42z" stroke="none" fill="#000000" fill-rule="evenodd" /><path transform="matrix(1 0 0 -1 0 841)" d="M84.264 674.86L84.744 674.86L84.744 674.86L84.744 693.94L84.744 693.94L84.264 693.94z" stroke="none" fill="#000000" fill-rule="evenodd" /><path transform="matrix(1 0 0 -1 0 841)" d="M84.264 674.38L84.744 674.38L84.744 674.38L84.744 674.86L84.744 674.86L84.264 674.86z" stroke="none" fill="#000000" fill-rule="evenodd" /><path transform="matrix(1 0 0 -1 0 841)" d="M84.264 674.38L84.744 674.38L84.744 674.38L84.744 674.86L84.744 674.86L84.264 674.86z" stroke="none" fill="#000000" fill-rule="evenodd" /><path transform="matrix(1 0 0 -1 0 841)" d="M84.744 674.38L164.184 674.38L164.184 674.38L164.184 674.86L164.184 674.86L84.744 674.86z" stroke="none" fill="#000000" fill-rule="evenodd" /><path transform="matrix(1 0 0 -1 0 841)" d="M164.18 674.86L164.66 674.86L164.66 674.86L164.66 693.94L164.66 693.94L164.18 693.94z" stroke="none" fill="#000000" fill-rule="evenodd" /><path transform="matrix(1 0 0 -1 0 841)" d="M164.18 674.38L164.66 674.38L164.66 674.38L164.66 674.86L164.66 674.86L164.18 674.86z" stroke="none" fill="#000000" fill-rule="evenodd" /><path transform="matrix(1 0 0 -1 0 841)" d="M164.66 674.38L222.524 674.38L222.524 674.38L222.524 674.86L222.524 674.86L164.66 674.86z" stroke="none" fill="#000000" fill-rule="evenodd" /><path transform="matrix(1 0 0 -1 0 841)" d="M222.53 674.86L223.01 674.86L223.01 674.86L223.01 693.94L223.01 693.94L222.53 693.94z" stroke="none" fill="#000000" fill-rule="evenodd" /><path transform="matrix(1 0 0 -1 0 841)" d="M222.53 674.38L223.01 674.38L223.01 674.38L223.01 674.86L223.01 674.86L222.53 674.86z" stroke="none" fill="#000000" fill-rule="evenodd" /><path transform="matrix(1 0 0 -1 0 841)" d="M223.01 674.38L266.09 674.38L266.09 674.38L266.09 674.86L266.09 674.86L223.01 674.86z" stroke="none" fill="#000000" fill-rule="evenodd" /><path transform="matrix(1 0 0 -1 0 841)" d="M266.09 674.86L266.57 674.86L266.57 674.86L266.57 693.94L266.57 693.94L266.09 693.94z" stroke="none" fill="#000000" fill-rule="evenodd" /><path transform="matrix(1 0 0 -1 0 841)" d="M266.09 674.38L266.57 674.38L266.57 674.38L266.57 674.86L266.57 674.86L266.09 674.86z" stroke="none" fill="#000000" fill-rule="evenodd" /><path transform="matrix(1 0 0 -1 0 841)" d="M266.57 674.38L387.79 674.38L387.79 674.38L387.79 674.86L387.79 674.86L266.57 674.86z" stroke="none" fill="#000000" fill-rule="evenodd" /><path transform="matrix(1 0 0 -1 0 841)" d="M387.79 674.86L388.27 674.86L388.27 674.86L388.27 693.94L388.27 693.94L387.79 693.94z" stroke="none" fill="#000000" fill-rule="evenodd" /><path transform="matrix(1 0 0 -1 0 841)" d="M387.79 674.38L388.27 674.38L388.27 674.38L388.27 674.86L388.27 674.86L387.79 674.86z" stroke="none" fill="#000000" fill-rule="evenodd" /><path transform="matrix(1 0 0 -1 0 841)" d="M388.27 674.38L510.69 674.38L510.69 674.38L510.69 674.86L510.69 674.86L388.27 674.86z" stroke="none" fill="#000000" fill-rule="evenodd" /><path transform="matrix(1 0 0 -1 0 841)" d="M510.7 674.86L511.18 674.86L511.18 674.86L511.18 693.94L511.18 693.94L510.7 693.94z" stroke="none" fill="#000000" fill-rule="evenodd" /><path transform="matrix(1 0 0 -1 0 841)" d="M510.7 674.38L511.18 674.38L511.18 674.38L511.18 674.86L511.18 674.86L510.7 674.86z" stroke="none" fill="#000000" fill-rule="evenodd" /><path transform="matrix(1 0 0 -1 0 841)" d="M510.7 674.38L511.18 674.38L511.18 674.38L511.18 674.86L511.18 674.86L510.7 674.86z" stroke="none" fill="#000000" fill-rule="evenodd" /><path transform="matrix(1 0 0 -1 0 841)" d="M84.744 635.74L510.694 635.74L510.694 635.74L510.694 654.82L510.694 654.82L84.744 654.82z" stroke="none" fill="#0070C0" fill-rule="evenodd" /><g clip-path="url(#37)"><path transform="matrix(1 0 0 -1 0 841)" d="M89.904 635.74L505.534 635.74L505.534 635.74L505.534 654.82L505.534 654.82L89.904 654.82z" stroke="none" fill="#0070C0" fill-rule="evenodd" /><g clip-path="url(#38)"></g><g clip-path="url(#39)"></g><g clip-path="url(#40)"></g></g><path transform="matrix(1 0 0 -1 0 841)" d="M84.264 654.82L84.744 654.82L84.744 654.82L84.744 655.3L84.744 655.3L84.264 655.3z" stroke="none" fill="#000000" fill-rule="evenodd" /><path transform="matrix(1 0 0 -1 0 841)" d="M84.264 654.82L84.744 654.82L84.744 654.82L84.744 655.3L84.744 655.3L84.264 655.3z" stroke="none" fill="#000000" fill-rule="evenodd" /><path transform="matrix(1 0 0 -1 0 841)" d="M84.744 654.82L510.694 654.82L510.694 654.82L510.694 655.3L510.694 655.3L84.744 655.3z" stroke="none" fill="#000000" fill-rule="evenodd" /><path transform="matrix(1 0 0 -1 0 841)" d="M510.7 654.82L511.18 654.82L511.18 654.82L511.18 655.3L511.18 655.3L510.7 655.3z" stroke="none" fill="#000000" fill-rule="evenodd" /><path transform="matrix(1 0 0 -1 0 841)" d="M510.7 654.82L511.18 654.82L511.18 654.82L511.18 655.3L511.18 655.3L510.7 655.3z" stroke="none" fill="#000000" fill-rule="evenodd" /><path transform="matrix(1 0 0 -1 0 841)" d="M84.264 635.74L84.744 635.74L84.744 635.74L84.744 654.82L84.744 654.82L84.264 654.82z" stroke="none" fill="#000000" fill-rule="evenodd" /><path transform="matrix(1 0 0 -1 0 841)" d="M510.7 635.74L511.18 635.74L511.18 635.74L511.18 654.82L511.18 654.82L510.7 654.82z" stroke="none" fill="#000000" fill-rule="evenodd" /><path transform="matrix(1 0 0 -1 0 841)" d="M84.744 482.83L510.694 482.83L510.694 482.83L510.694 635.25L510.694 635.25L84.744 635.25z" stroke="none" fill="#DAEEF3" fill-rule="evenodd" /><g clip-path="url(#41)"><path transform="matrix(1 0 0 -1 0 841)" d="M89.904 616.18L505.534 616.18L505.534 616.18L505.534 635.26L505.534 635.26L89.904 635.26z" stroke="none" fill="#DAEEF3" fill-rule="evenodd" /><g clip-path="url(#42)"></g><g clip-path="url(#43)"></g><path transform="matrix(1 0 0 -1 0 841)" d="M89.904 597.1L505.534 597.1L505.534 597.1L505.534 616.18L505.534 616.18L89.904 616.18z" stroke="none" fill="#DAEEF3" fill-rule="evenodd" /><g clip-path="url(#44)"></g><g clip-path="url(#45)"></g><path transform="matrix(1 0 0 -1 0 841)" d="M89.904 578.14L505.534 578.14L505.534 578.14L505.534 597.1L505.534 597.1L89.904 597.1z" stroke="none" fill="#DAEEF3" fill-rule="evenodd" /><g clip-path="url(#46)"></g><g clip-path="url(#47)"></g><g clip-path="url(#48)"></g><g clip-path="url(#49)"></g><g clip-path="url(#50)"></g><path transform="matrix(1 0 0 -1 0 841)" d="M89.904 559.06L505.534 559.06L505.534 559.06L505.534 578.14L505.534 578.14L89.904 578.14z" stroke="none" fill="#DAEEF3" fill-rule="evenodd" /><g clip-path="url(#51)"></g><g clip-path="url(#52)"></g><path transform="matrix(1 0 0 -1 0 841)" d="M89.904 539.95L505.534 539.95L505.534 539.95L505.534 559.054L505.534 559.054L89.904 559.054z" stroke="none" fill="#DAEEF3" fill-rule="evenodd" /><g clip-path="url(#53)"></g><g clip-path="url(#54)"></g><path transform="matrix(1 0 0 -1 0 841)" d="M89.904 520.87L505.534 520.87L505.534 520.87L505.534 539.95L505.534 539.95L89.904 539.95z" stroke="none" fill="#DAEEF3" fill-rule="evenodd" /><g clip-path="url(#55)"></g><g clip-path="url(#56)"></g><path transform="matrix(1 0 0 -1 0 841)" d="M89.904 501.91L505.534 501.91L505.534 501.91L505.534 520.87L505.534 520.87L89.904 520.87z" stroke="none" fill="#DAEEF3" fill-rule="evenodd" /><g clip-path="url(#57)"></g><g clip-path="url(#58)"></g><path transform="matrix(1 0 0 -1 0 841)" d="M89.904 482.83L505.534 482.83L505.534 482.83L505.534 501.91L505.534 501.91L89.904 501.91z" stroke="none" fill="#DAEEF3" fill-rule="evenodd" /><g clip-path="url(#59)"></g><g clip-path="url(#60)"></g></g><path transform="matrix(1 0 0 -1 0 841)" d="M84.264 635.26L84.744 635.26L84.744 635.26L84.744 635.74L84.744 635.74L84.264 635.74z" stroke="none" fill="#000000" fill-rule="evenodd" /><path transform="matrix(1 0 0 -1 0 841)" d="M84.744 635.26L510.694 635.26L510.694 635.26L510.694 635.74L510.694 635.74L84.744 635.74z" stroke="none" fill="#000000" fill-rule="evenodd" /><path transform="matrix(1 0 0 -1 0 841)" d="M510.7 635.26L511.18 635.26L511.18 635.26L511.18 635.74L511.18 635.74L510.7 635.74z" stroke="none" fill="#000000" fill-rule="evenodd" /><path transform="matrix(1 0 0 -1 0 841)" d="M84.264 482.83L84.744 482.83L84.744 482.83L84.744 635.25L84.744 635.25L84.264 635.25z" stroke="none" fill="#000000" fill-rule="evenodd" /><path transform="matrix(1 0 0 -1 0 841)" d="M84.264 482.35L84.744 482.35L84.744 482.35L84.744 482.83L84.744 482.83L84.264 482.83z" stroke="none" fill="#000000" fill-rule="evenodd" /><path transform="matrix(1 0 0 -1 0 841)" d="M84.264 482.35L84.744 482.35L84.744 482.35L84.744 482.83L84.744 482.83L84.264 482.83z" stroke="none" fill="#000000" fill-rule="evenodd" /><path transform="matrix(1 0 0 -1 0 841)" d="M84.744 482.35L510.694 482.35L510.694 482.35L510.694 482.83L510.694 482.83L84.744 482.83z" stroke="none" fill="#000000" fill-rule="evenodd" /><path transform="matrix(1 0 0 -1 0 841)" d="M510.7 482.83L511.18 482.83L511.18 482.83L511.18 635.25L511.18 635.25L510.7 635.25z" stroke="none" fill="#000000" fill-rule="evenodd" /><path transform="matrix(1 0 0 -1 0 841)" d="M510.7 482.35L511.18 482.35L511.18 482.35L511.18 482.83L511.18 482.83L510.7 482.83z" stroke="none" fill="#000000" fill-rule="evenodd" /><path transform="matrix(1 0 0 -1 0 841)" d="M510.7 482.35L511.18 482.35L511.18 482.35L511.18 482.83L511.18 482.83L510.7 482.83z" stroke="none" fill="#000000" fill-rule="evenodd" /></g></g></g></svg>