<svg xmlns="http://www.w3.org/2000/svg" xmlns:xlink="http://www.w3.org/1999/xlink" id="body_157" preserveAspectRatio="xMinYMin meet" viewBox="0 0 793 1121"><defs><clipPath id="1"><path d="M0 841L0 -0.9199829L0 -0.9199829L595.32 -0.9199829L595.32 -0.9199829L595.32 841L595.32 841L0 841z" /></clipPath><clipPath id="2"><path d="M0.00125 841.0914L595.4112 841.0914L595.4112 841.0914L595.4112 -0.9186401L595.4112 -0.9186401L0.00125 -0.9186401z" /></clipPath><clipPath id="3"><path d="M288.05 781.211L316.01 781.211L316.01 781.211L316.01 762.011L316.01 762.011L288.05 762.011z" /></clipPath><clipPath id="4"><path d="M288.05 781.216L316.01 781.216L316.01 781.216L316.01 762.016L316.01 762.016L288.05 762.016z" /></clipPath><clipPath id="5"><path d="M288.05 781.216L316.01 781.216L316.01 781.216L316.01 762.016L316.01 762.016L288.05 762.016z" /></clipPath><clipPath id="6"><path d="M84.751 113.59L510.691 113.59L510.691 113.59L510.691 89.44L510.691 89.44L84.751 89.44z" /></clipPath><clipPath id="7"><path d="M84.744 113.58L510.694 113.58L510.694 113.58L510.694 89.43604L510.694 89.43604L84.744 89.43604z" /></clipPath><clipPath id="8"><path d="M84.744 113.58L510.694 113.58L510.694 113.58L510.694 89.43604L510.694 89.43604L84.744 89.43604z" /></clipPath><clipPath id="9"><path d="M84.744 113.58L510.694 113.58L510.694 113.58L510.694 89.43604L510.694 89.43604L84.744 89.43604z" /></clipPath><clipPath id="10"><path d="M84.744 113.58L510.694 113.58L510.694 113.58L510.694 89.43604L510.694 89.43604L84.744 89.43604z" /></clipPath><clipPath id="11"><path d="M84.744 113.58L510.694 113.58L510.694 113.58L510.694 89.43604L510.694 89.43604L84.744 89.43604z" /></clipPath><clipPath id="12"><path d="M84.744 113.58L510.694 113.58L510.694 113.58L510.694 89.43604L510.694 89.43604L84.744 89.43604z" /></clipPath><clipPath id="13"><path d="M84.744 113.58L510.694 113.58L510.694 113.58L510.694 89.43604L510.694 89.43604L84.744 89.43604z" /></clipPath><clipPath id="14"><path d="M84.751 209.35L510.691 209.35L510.691 209.35L510.691 114.0699L510.691 114.0699L84.751 114.0699z" /></clipPath><clipPath id="15"><path d="M84.744 209.34L510.694 209.34L510.694 209.34L510.694 114.0601L510.694 114.0601L84.744 114.0601z" /></clipPath><clipPath id="16"><path d="M84.744 209.34L510.694 209.34L510.694 209.34L510.694 114.0601L510.694 114.0601L84.744 114.0601z" /></clipPath><clipPath id="17"><path d="M84.744 209.34L510.694 209.34L510.694 209.34L510.694 114.0601L510.694 114.0601L84.744 114.0601z" /></clipPath><clipPath id="18"><path d="M84.744 209.34L510.694 209.34L510.694 209.34L510.694 114.0601L510.694 114.0601L84.744 114.0601z" /></clipPath><clipPath id="19"><path d="M84.744 209.34L510.694 209.34L510.694 209.34L510.694 114.0601L510.694 114.0601L84.744 114.0601z" /></clipPath><clipPath id="20"><path d="M84.744 209.34L510.694 209.34L510.694 209.34L510.694 114.0601L510.694 114.0601L84.744 114.0601z" /></clipPath><clipPath id="21"><path d="M84.744 209.34L510.694 209.34L510.694 209.34L510.694 114.0601L510.694 114.0601L84.744 114.0601z" /></clipPath><clipPath id="22"><path d="M84.744 209.34L510.694 209.34L510.694 209.34L510.694 114.0601L510.694 114.0601L84.744 114.0601z" /></clipPath><clipPath id="23"><path d="M84.744 209.34L510.694 209.34L510.694 209.34L510.694 114.0601L510.694 114.0601L84.744 114.0601z" /></clipPath><clipPath id="24"><path d="M84.744 209.34L510.694 209.34L510.694 209.34L510.694 114.0601L510.694 114.0601L84.744 114.0601z" /></clipPath><clipPath id="25"><path d="M84.744 209.34L510.694 209.34L510.694 209.34L510.694 114.0601L510.694 114.0601L84.744 114.0601z" /></clipPath><clipPath id="26"><path d="M84.744 209.34L510.694 209.34L510.694 209.34L510.694 114.0601L510.694 114.0601L84.744 114.0601z" /></clipPath><clipPath id="27"><path d="M84.751 253.51L510.691 253.51L510.691 253.51L510.691 229.39L510.691 229.39L84.751 229.39z" /></clipPath><clipPath id="28"><path d="M84.744 253.5L510.694 253.5L510.694 253.5L510.694 229.38L510.694 229.38L84.744 229.38z" /></clipPath><clipPath id="29"><path d="M84.744 253.5L510.694 253.5L510.694 253.5L510.694 229.38L510.694 229.38L84.744 229.38z" /></clipPath><clipPath id="30"><path d="M84.744 253.5L510.694 253.5L510.694 253.5L510.694 229.38L510.694 229.38L84.744 229.38z" /></clipPath><clipPath id="31"><path d="M84.744 253.5L510.694 253.5L510.694 253.5L510.694 229.38L510.694 229.38L84.744 229.38z" /></clipPath><clipPath id="32"><path d="M84.744 253.5L510.694 253.5L510.694 253.5L510.694 229.38L510.694 229.38L84.744 229.38z" /></clipPath><clipPath id="33"><path d="M84.744 253.5L510.694 253.5L510.694 253.5L510.694 229.38L510.694 229.38L84.744 229.38z" /></clipPath><clipPath id="34"><path d="M84.744 253.5L510.694 253.5L510.694 253.5L510.694 229.38L510.694 229.38L84.744 229.38z" /></clipPath><clipPath id="35"><path d="M84.744 253.5L510.694 253.5L510.694 253.5L510.694 229.38L510.694 229.38L84.744 229.38z" /></clipPath><clipPath id="36"><path d="M84.744 253.5L510.694 253.5L510.694 253.5L510.694 229.38L510.694 229.38L84.744 229.38z" /></clipPath><clipPath id="37"><path d="M84.751 387.45L510.691 387.45L510.691 387.45L510.691 254.11L510.691 254.11L84.751 254.11z" /></clipPath><clipPath id="38"><path d="M84.744 387.45L510.694 387.45L510.694 387.45L510.694 254.11L510.694 254.11L84.744 254.11z" /></clipPath><clipPath id="39"><path d="M84.744 387.45L510.694 387.45L510.694 387.45L510.694 254.11L510.694 254.11L84.744 254.11z" /></clipPath><clipPath id="40"><path d="M84.744 387.45L510.694 387.45L510.694 387.45L510.694 254.11L510.694 254.11L84.744 254.11z" /></clipPath><clipPath id="41"><path d="M84.744 387.45L510.694 387.45L510.694 387.45L510.694 254.11L510.694 254.11L84.744 254.11z" /></clipPath><clipPath id="42"><path d="M84.744 387.45L510.694 387.45L510.694 387.45L510.694 254.11L510.694 254.11L84.744 254.11z" /></clipPath><clipPath id="43"><path d="M84.744 387.45L510.694 387.45L510.694 387.45L510.694 254.11L510.694 254.11L84.744 254.11z" /></clipPath><clipPath id="44"><path d="M84.744 387.45L510.694 387.45L510.694 387.45L510.694 254.11L510.694 254.11L84.744 254.11z" /></clipPath><clipPath id="45"><path d="M84.744 387.45L510.694 387.45L510.694 387.45L510.694 254.11L510.694 254.11L84.744 254.11z" /></clipPath><clipPath id="46"><path d="M84.744 387.45L510.694 387.45L510.694 387.45L510.694 254.11L510.694 254.11L84.744 254.11z" /></clipPath><clipPath id="47"><path d="M84.744 387.45L510.694 387.45L510.694 387.45L510.694 254.11L510.694 254.11L84.744 254.11z" /></clipPath><clipPath id="48"><path d="M84.744 387.45L510.694 387.45L510.694 387.45L510.694 254.11L510.694 254.11L84.744 254.11z" /></clipPath><clipPath id="49"><path d="M84.744 387.45L510.694 387.45L510.694 387.45L510.694 254.11L510.694 254.11L84.744 254.11z" /></clipPath><clipPath id="50"><path d="M84.744 387.45L510.694 387.45L510.694 387.45L510.694 254.11L510.694 254.11L84.744 254.11z" /></clipPath><clipPath id="51"><path d="M84.744 387.45L510.694 387.45L510.694 387.45L510.694 254.11L510.694 254.11L84.744 254.11z" /></clipPath><clipPath id="52"><path d="M84.744 387.45L510.694 387.45L510.694 387.45L510.694 254.11L510.694 254.11L84.744 254.11z" /></clipPath><clipPath id="53"><path d="M84.744 387.45L510.694 387.45L510.694 387.45L510.694 254.11L510.694 254.11L84.744 254.11z" /></clipPath><clipPath id="54"><path d="M84.744 387.45L510.694 387.45L510.694 387.45L510.694 254.11L510.694 254.11L84.744 254.11z" /></clipPath><clipPath id="55"><path d="M84.744 387.45L510.694 387.45L510.694 387.45L510.694 254.11L510.694 254.11L84.744 254.11z" /></clipPath><clipPath id="56"><path d="M84.744 387.45L510.694 387.45L510.694 387.45L510.694 254.11L510.694 254.11L84.744 254.11z" /></clipPath><clipPath id="57"><path d="M84.744 387.45L510.694 387.45L510.694 387.45L510.694 254.11L510.694 254.11L84.744 254.11z" /></clipPath><clipPath id="58"><path d="M84.751 431.61L510.691 431.61L510.691 431.61L510.691 407.49L510.691 407.49L84.751 407.49z" /></clipPath><clipPath id="59"><path d="M84.744 431.61L510.694 431.61L510.694 431.61L510.694 407.49L510.694 407.49L84.744 407.49z" /></clipPath><clipPath id="60"><path d="M84.744 431.61L510.694 431.61L510.694 431.61L510.694 407.49L510.694 407.49L84.744 407.49z" /></clipPath><clipPath id="61"><path d="M84.744 431.61L510.694 431.61L510.694 431.61L510.694 407.49L510.694 407.49L84.744 407.49z" /></clipPath><clipPath id="62"><path d="M84.744 431.61L510.694 431.61L510.694 431.61L510.694 407.49L510.694 407.49L84.744 407.49z" /></clipPath><clipPath id="63"><path d="M84.744 431.61L510.694 431.61L510.694 431.61L510.694 407.49L510.694 407.49L84.744 407.49z" /></clipPath><clipPath id="64"><path d="M84.744 431.61L510.694 431.61L510.694 431.61L510.694 407.49L510.694 407.49L84.744 407.49z" /></clipPath><clipPath id="65"><path d="M84.744 431.61L510.694 431.61L510.694 431.61L510.694 407.49L510.694 407.49L84.744 407.49z" /></clipPath><clipPath id="66"><path d="M84.744 431.61L510.694 431.61L510.694 431.61L510.694 407.49L510.694 407.49L84.744 407.49z" /></clipPath><clipPath id="67"><path d="M84.751 736.93L510.691 736.93L510.691 736.93L510.691 432.08L510.691 432.08L84.751 432.08z" /></clipPath><clipPath id="68"><path d="M84.744 736.94L510.694 736.94L510.694 736.94L510.694 432.09L510.694 432.09L84.744 432.09z" /></clipPath><clipPath id="69"><path d="M84.744 736.94L510.694 736.94L510.694 736.94L510.694 432.09L510.694 432.09L84.744 432.09z" /></clipPath><clipPath id="70"><path d="M84.744 736.94L510.694 736.94L510.694 736.94L510.694 432.09L510.694 432.09L84.744 432.09z" /></clipPath><clipPath id="71"><path d="M84.744 736.94L510.694 736.94L510.694 736.94L510.694 432.09L510.694 432.09L84.744 432.09z" /></clipPath><clipPath id="72"><path d="M84.744 736.94L510.694 736.94L510.694 736.94L510.694 432.09L510.694 432.09L84.744 432.09z" /></clipPath><clipPath id="73"><path d="M84.744 736.94L510.694 736.94L510.694 736.94L510.694 432.09L510.694 432.09L84.744 432.09z" /></clipPath><clipPath id="74"><path d="M84.744 736.94L510.694 736.94L510.694 736.94L510.694 432.09L510.694 432.09L84.744 432.09z" /></clipPath><clipPath id="75"><path d="M84.744 736.94L510.694 736.94L510.694 736.94L510.694 432.09L510.694 432.09L84.744 432.09z" /></clipPath><clipPath id="76"><path d="M84.744 736.94L510.694 736.94L510.694 736.94L510.694 432.09L510.694 432.09L84.744 432.09z" /></clipPath><clipPath id="77"><path d="M84.744 736.94L510.694 736.94L510.694 736.94L510.694 432.09L510.694 432.09L84.744 432.09z" /></clipPath><clipPath id="78"><path d="M84.744 736.94L510.694 736.94L510.694 736.94L510.694 432.09L510.694 432.09L84.744 432.09z" /></clipPath><clipPath id="79"><path d="M84.744 736.94L510.694 736.94L510.694 736.94L510.694 432.09L510.694 432.09L84.744 432.09z" /></clipPath><clipPath id="80"><path d="M84.744 736.94L510.694 736.94L510.694 736.94L510.694 432.09L510.694 432.09L84.744 432.09z" /></clipPath><clipPath id="81"><path d="M84.744 736.94L510.694 736.94L510.694 736.94L510.694 432.09L510.694 432.09L84.744 432.09z" /></clipPath><clipPath id="82"><path d="M84.744 736.94L510.694 736.94L510.694 736.94L510.694 432.09L510.694 432.09L84.744 432.09z" /></clipPath><clipPath id="83"><path d="M84.744 736.94L510.694 736.94L510.694 736.94L510.694 432.09L510.694 432.09L84.744 432.09z" /></clipPath><clipPath id="84"><path d="M84.744 736.94L510.694 736.94L510.694 736.94L510.694 432.09L510.694 432.09L84.744 432.09z" /></clipPath><clipPath id="85"><path d="M84.744 736.94L510.694 736.94L510.694 736.94L510.694 432.09L510.694 432.09L84.744 432.09z" /></clipPath><clipPath id="86"><path d="M84.744 736.94L510.694 736.94L510.694 736.94L510.694 432.09L510.694 432.09L84.744 432.09z" /></clipPath><clipPath id="87"><path d="M84.744 736.94L510.694 736.94L510.694 736.94L510.694 432.09L510.694 432.09L84.744 432.09z" /></clipPath><clipPath id="88"><path d="M84.744 736.94L510.694 736.94L510.694 736.94L510.694 432.09L510.694 432.09L84.744 432.09z" /></clipPath><clipPath id="89"><path d="M84.744 736.94L510.694 736.94L510.694 736.94L510.694 432.09L510.694 432.09L84.744 432.09z" /></clipPath><clipPath id="90"><path d="M84.744 736.94L510.694 736.94L510.694 736.94L510.694 432.09L510.694 432.09L84.744 432.09z" /></clipPath><clipPath id="91"><path d="M84.744 736.94L510.694 736.94L510.694 736.94L510.694 432.09L510.694 432.09L84.744 432.09z" /></clipPath><clipPath id="92"><path d="M84.744 736.94L510.694 736.94L510.694 736.94L510.694 432.09L510.694 432.09L84.744 432.09z" /></clipPath><clipPath id="93"><path d="M84.744 736.94L510.694 736.94L510.694 736.94L510.694 432.09L510.694 432.09L84.744 432.09z" /></clipPath><clipPath id="94"><path d="M84.744 736.94L510.694 736.94L510.694 736.94L510.694 432.09L510.694 432.09L84.744 432.09z" /></clipPath><clipPath id="95"><path d="M84.744 736.94L510.694 736.94L510.694 736.94L510.694 432.09L510.694 432.09L84.744 432.09z" /></clipPath><clipPath id="96"><path d="M84.744 736.94L510.694 736.94L510.694 736.94L510.694 432.09L510.694 432.09L84.744 432.09z" /></clipPath><clipPath id="97"><path d="M84.744 736.94L510.694 736.94L510.694 736.94L510.694 432.09L510.694 432.09L84.744 432.09z" /></clipPath><clipPath id="98"><path d="M84.744 736.94L510.694 736.94L510.694 736.94L510.694 432.09L510.694 432.09L84.744 432.09z" /></clipPath><clipPath id="99"><path d="M84.744 736.94L510.694 736.94L510.694 736.94L510.694 432.09L510.694 432.09L84.744 432.09z" /></clipPath><clipPath id="100"><path d="M84.744 736.94L510.694 736.94L510.694 736.94L510.694 432.09L510.694 432.09L84.744 432.09z" /></clipPath><clipPath id="101"><path d="M84.744 736.94L510.694 736.94L510.694 736.94L510.694 432.09L510.694 432.09L84.744 432.09z" /></clipPath><clipPath id="102"><path d="M84.744 736.94L510.694 736.94L510.694 736.94L510.694 432.09L510.694 432.09L84.744 432.09z" /></clipPath><clipPath id="103"><path d="M84.744 736.94L510.694 736.94L510.694 736.94L510.694 432.09L510.694 432.09L84.744 432.09z" /></clipPath><clipPath id="104"><path d="M84.744 736.94L510.694 736.94L510.694 736.94L510.694 432.09L510.694 432.09L84.744 432.09z" /></clipPath><clipPath id="105"><path d="M84.744 736.94L510.694 736.94L510.694 736.94L510.694 432.09L510.694 432.09L84.744 432.09z" /></clipPath><clipPath id="106"><path d="M84.744 736.94L510.694 736.94L510.694 736.94L510.694 432.09L510.694 432.09L84.744 432.09z" /></clipPath><clipPath id="107"><path d="M84.744 736.94L510.694 736.94L510.694 736.94L510.694 432.09L510.694 432.09L84.744 432.09z" /></clipPath><clipPath id="108"><path d="M84.744 736.94L510.694 736.94L510.694 736.94L510.694 432.09L510.694 432.09L84.744 432.09z" /></clipPath><clipPath id="109"><path d="M84.744 736.94L510.694 736.94L510.694 736.94L510.694 432.09L510.694 432.09L84.744 432.09z" /></clipPath><clipPath id="110"><path d="M84.744 736.94L510.694 736.94L510.694 736.94L510.694 432.09L510.694 432.09L84.744 432.09z" /></clipPath><clipPath id="111"><path d="M84.744 736.94L510.694 736.94L510.694 736.94L510.694 432.09L510.694 432.09L84.744 432.09z" /></clipPath><clipPath id="112"><path d="M84.744 736.94L510.694 736.94L510.694 736.94L510.694 432.09L510.694 432.09L84.744 432.09z" /></clipPath><clipPath id="113"><path d="M84.744 736.94L510.694 736.94L510.694 736.94L510.694 432.09L510.694 432.09L84.744 432.09z" /></clipPath><clipPath id="114"><path d="M84.744 736.94L510.694 736.94L510.694 736.94L510.694 432.09L510.694 432.09L84.744 432.09z" /></clipPath><clipPath id="115"><path d="M84.744 736.94L510.694 736.94L510.694 736.94L510.694 432.09L510.694 432.09L84.744 432.09z" /></clipPath><clipPath id="116"><path d="M84.744 736.94L510.694 736.94L510.694 736.94L510.694 432.09L510.694 432.09L84.744 432.09z" /></clipPath><clipPath id="117"><path d="M84.744 736.94L510.694 736.94L510.694 736.94L510.694 432.09L510.694 432.09L84.744 432.09z" /></clipPath></defs><g transform="matrix(1.333333 0 0 1.333333 0 0)"><g><g clip-path="url(#1)"><path transform="matrix(1 0 0 -1 0 841)" d="M457.51 53.304L505.534 53.304L505.534 53.304L505.534 53.90404L505.534 53.90404L457.51 53.90404z" stroke="none" fill="#000000" fill-rule="evenodd" /><g clip-path="url(#2)"><path transform="matrix(1 0 0 -1 0 841)" d="M88.464 77.904L506.974 77.904L506.974 77.904L506.974 80.904L506.974 80.904L88.464 80.904z" stroke="none" fill="#000000" fill-rule="evenodd" /><path transform="matrix(1 0 0 -1 0 841)" d="M88.464 76.464L506.974 76.464L506.974 76.464L506.974 77.18397L506.974 77.18397L88.464 77.18397z" stroke="none" fill="#000000" fill-rule="evenodd" /></g><g clip-path="url(#3)"><g clip-path="url(#4)"></g><g clip-path="url(#5)"></g></g><path transform="matrix(1 0 0 -1 0 841)" d="M84.744 727.42L510.694 727.42L510.694 727.42L510.694 751.564L510.694 751.564L84.744 751.564z" stroke="none" fill="#0070C0" fill-rule="evenodd" /><g clip-path="url(#6)"><path transform="matrix(1 0 0 -1 0 841)" d="M89.904 727.42L505.534 727.42L505.534 727.42L505.534 751.564L505.534 751.564L89.904 751.564z" stroke="none" fill="#0070C0" fill-rule="evenodd" /><g clip-path="url(#7)"></g><g clip-path="url(#8)"></g><g clip-path="url(#9)"></g><g clip-path="url(#10)"></g><g clip-path="url(#11)"></g><g clip-path="url(#12)"></g><g clip-path="url(#13)"></g></g><path transform="matrix(1 0 0 -1 0 841)" d="M84.264 751.56L84.744 751.56L84.744 751.56L84.744 752.04L84.744 752.04L84.264 752.04z" stroke="none" fill="#000000" fill-rule="evenodd" /><path transform="matrix(1 0 0 -1 0 841)" d="M84.264 751.56L84.744 751.56L84.744 751.56L84.744 752.04L84.744 752.04L84.264 752.04z" stroke="none" fill="#000000" fill-rule="evenodd" /><path transform="matrix(1 0 0 -1 0 841)" d="M84.744 751.56L510.694 751.56L510.694 751.56L510.694 752.04L510.694 752.04L84.744 752.04z" stroke="none" fill="#000000" fill-rule="evenodd" /><path transform="matrix(1 0 0 -1 0 841)" d="M510.7 751.56L511.18 751.56L511.18 751.56L511.18 752.04L511.18 752.04L510.7 752.04z" stroke="none" fill="#000000" fill-rule="evenodd" /><path transform="matrix(1 0 0 -1 0 841)" d="M510.7 751.56L511.18 751.56L511.18 751.56L511.18 752.04L511.18 752.04L510.7 752.04z" stroke="none" fill="#000000" fill-rule="evenodd" /><path transform="matrix(1 0 0 -1 0 841)" d="M84.264 727.42L84.744 727.42L84.744 727.42L84.744 751.564L84.744 751.564L84.264 751.564z" stroke="none" fill="#000000" fill-rule="evenodd" /><path transform="matrix(1 0 0 -1 0 841)" d="M510.7 727.42L511.18 727.42L511.18 727.42L511.18 751.564L511.18 751.564L510.7 751.564z" stroke="none" fill="#000000" fill-rule="evenodd" /><path transform="matrix(1 0 0 -1 0 841)" d="M84.744 631.66L510.694 631.66L510.694 631.66L510.694 726.9399L510.694 726.9399L84.744 726.9399z" stroke="none" fill="#DAEEF3" fill-rule="evenodd" /><g clip-path="url(#14)"><path transform="matrix(1 0 0 -1 0 841)" d="M89.904 707.86L505.534 707.86L505.534 707.86L505.534 726.94L505.534 726.94L89.904 726.94z" stroke="none" fill="#DAEEF3" fill-rule="evenodd" /><g clip-path="url(#15)"></g><g clip-path="url(#16)"></g><g clip-path="url(#17)"></g><g clip-path="url(#18)"></g><path transform="matrix(1 0 0 -1 0 841)" d="M89.904 688.78L505.534 688.78L505.534 688.78L505.534 707.86L505.534 707.86L89.904 707.86z" stroke="none" fill="#DAEEF3" fill-rule="evenodd" /><g clip-path="url(#19)"></g><g clip-path="url(#20)"></g><g clip-path="url(#21)"></g><path transform="matrix(1 0 0 -1 0 841)" d="M89.904 669.7L505.534 669.7L505.534 669.7L505.534 688.78L505.534 688.78L89.904 688.78z" stroke="none" fill="#DAEEF3" fill-rule="evenodd" /><g clip-path="url(#22)"></g><g clip-path="url(#23)"></g><path transform="matrix(1 0 0 -1 0 841)" d="M89.904 650.74L505.534 650.74L505.534 650.74L505.534 669.7L505.534 669.7L89.904 669.7z" stroke="none" fill="#DAEEF3" fill-rule="evenodd" /><g clip-path="url(#24)"></g><path transform="matrix(1 0 0 -1 0 841)" d="M89.904 631.66L505.534 631.66L505.534 631.66L505.534 650.74L505.534 650.74L89.904 650.74z" stroke="none" fill="#DAEEF3" fill-rule="evenodd" /><g clip-path="url(#25)"></g><g clip-path="url(#26)"></g></g><path transform="matrix(1 0 0 -1 0 841)" d="M84.264 726.94L84.744 726.94L84.744 726.94L84.744 727.42L84.744 727.42L84.264 727.42z" stroke="none" fill="#000000" fill-rule="evenodd" /><path transform="matrix(1 0 0 -1 0 841)" d="M84.744 726.94L510.694 726.94L510.694 726.94L510.694 727.42L510.694 727.42L84.744 727.42z" stroke="none" fill="#000000" fill-rule="evenodd" /><path transform="matrix(1 0 0 -1 0 841)" d="M510.7 726.94L511.18 726.94L511.18 726.94L511.18 727.42L511.18 727.42L510.7 727.42z" stroke="none" fill="#000000" fill-rule="evenodd" /><path transform="matrix(1 0 0 -1 0 841)" d="M84.264 631.66L84.744 631.66L84.744 631.66L84.744 726.9399L84.744 726.9399L84.264 726.9399z" stroke="none" fill="#000000" fill-rule="evenodd" /><path transform="matrix(1 0 0 -1 0 841)" d="M84.264 631.18L84.744 631.18L84.744 631.18L84.744 631.66L84.744 631.66L84.264 631.66z" stroke="none" fill="#000000" fill-rule="evenodd" /><path transform="matrix(1 0 0 -1 0 841)" d="M84.264 631.18L84.744 631.18L84.744 631.18L84.744 631.66L84.744 631.66L84.264 631.66z" stroke="none" fill="#000000" fill-rule="evenodd" /><path transform="matrix(1 0 0 -1 0 841)" d="M84.744 631.18L510.694 631.18L510.694 631.18L510.694 631.66L510.694 631.66L84.744 631.66z" stroke="none" fill="#000000" fill-rule="evenodd" /><path transform="matrix(1 0 0 -1 0 841)" d="M510.7 631.66L511.18 631.66L511.18 631.66L511.18 726.9399L511.18 726.9399L510.7 726.9399z" stroke="none" fill="#000000" fill-rule="evenodd" /><path transform="matrix(1 0 0 -1 0 841)" d="M510.7 631.18L511.18 631.18L511.18 631.18L511.18 631.66L511.18 631.66L510.7 631.66z" stroke="none" fill="#000000" fill-rule="evenodd" /><path transform="matrix(1 0 0 -1 0 841)" d="M510.7 631.18L511.18 631.18L511.18 631.18L511.18 631.66L511.18 631.66L510.7 631.66z" stroke="none" fill="#000000" fill-rule="evenodd" /><path transform="matrix(1 0 0 -1 0 841)" d="M84.744 587.5L510.694 587.5L510.694 587.5L510.694 611.62L510.694 611.62L84.744 611.62z" stroke="none" fill="#0070C0" fill-rule="evenodd" /><g clip-path="url(#27)"><path transform="matrix(1 0 0 -1 0 841)" d="M89.904 587.5L505.534 587.5L505.534 587.5L505.534 611.62L505.534 611.62L89.904 611.62z" stroke="none" fill="#0070C0" fill-rule="evenodd" /><g clip-path="url(#28)"></g><g clip-path="url(#29)"></g><g clip-path="url(#30)"></g><g clip-path="url(#31)"></g><g clip-path="url(#32)"></g><g clip-path="url(#33)"></g><g clip-path="url(#34)"></g><g clip-path="url(#35)"></g><g clip-path="url(#36)"></g></g><path transform="matrix(1 0 0 -1 0 841)" d="M84.264 611.62L84.744 611.62L84.744 611.62L84.744 612.1L84.744 612.1L84.264 612.1z" stroke="none" fill="#000000" fill-rule="evenodd" /><path transform="matrix(1 0 0 -1 0 841)" d="M84.264 611.62L84.744 611.62L84.744 611.62L84.744 612.1L84.744 612.1L84.264 612.1z" stroke="none" fill="#000000" fill-rule="evenodd" /><path transform="matrix(1 0 0 -1 0 841)" d="M84.744 611.62L510.694 611.62L510.694 611.62L510.694 612.1L510.694 612.1L84.744 612.1z" stroke="none" fill="#000000" fill-rule="evenodd" /><path transform="matrix(1 0 0 -1 0 841)" d="M510.7 611.62L511.18 611.62L511.18 611.62L511.18 612.1L511.18 612.1L510.7 612.1z" stroke="none" fill="#000000" fill-rule="evenodd" /><path transform="matrix(1 0 0 -1 0 841)" d="M510.7 611.62L511.18 611.62L511.18 611.62L511.18 612.1L511.18 612.1L510.7 612.1z" stroke="none" fill="#000000" fill-rule="evenodd" /><path transform="matrix(1 0 0 -1 0 841)" d="M84.264 587.5L84.744 587.5L84.744 587.5L84.744 611.62L84.744 611.62L84.264 611.62z" stroke="none" fill="#000000" fill-rule="evenodd" /><path transform="matrix(1 0 0 -1 0 841)" d="M510.7 587.5L511.18 587.5L511.18 587.5L511.18 611.62L511.18 611.62L510.7 611.62z" stroke="none" fill="#000000" fill-rule="evenodd" /><path transform="matrix(1 0 0 -1 0 841)" d="M84.744 453.55L510.694 453.55L510.694 453.55L510.694 586.89L510.694 586.89L84.744 586.89z" stroke="none" fill="#DAEEF3" fill-rule="evenodd" /><g clip-path="url(#37)"><path transform="matrix(1 0 0 -1 0 841)" d="M89.904 567.94L505.534 567.94L505.534 567.94L505.534 586.9L505.534 586.9L89.904 586.9z" stroke="none" fill="#DAEEF3" fill-rule="evenodd" /><g clip-path="url(#38)"></g><g clip-path="url(#39)"></g><path transform="matrix(1 0 0 -1 0 841)" d="M89.904 548.83L505.534 548.83L505.534 548.83L505.534 567.934L505.534 567.934L89.904 567.934z" stroke="none" fill="#DAEEF3" fill-rule="evenodd" /><g clip-path="url(#40)"></g><g clip-path="url(#41)"></g><g clip-path="url(#42)"></g><path transform="matrix(1 0 0 -1 0 841)" d="M89.904 529.75L505.534 529.75L505.534 529.75L505.534 548.83L505.534 548.83L89.904 548.83z" stroke="none" fill="#DAEEF3" fill-rule="evenodd" /><g clip-path="url(#43)"></g><g clip-path="url(#44)"></g><g clip-path="url(#45)"></g><path transform="matrix(1 0 0 -1 0 841)" d="M89.904 510.67L505.534 510.67L505.534 510.67L505.534 529.75L505.534 529.75L89.904 529.75z" stroke="none" fill="#DAEEF3" fill-rule="evenodd" /><g clip-path="url(#46)"></g><g clip-path="url(#47)"></g><g clip-path="url(#48)"></g><path transform="matrix(1 0 0 -1 0 841)" d="M89.904 491.71L505.534 491.71L505.534 491.71L505.534 510.67L505.534 510.67L89.904 510.67z" stroke="none" fill="#DAEEF3" fill-rule="evenodd" /><g clip-path="url(#49)"></g><g clip-path="url(#50)"></g><g clip-path="url(#51)"></g><path transform="matrix(1 0 0 -1 0 841)" d="M89.904 472.63L505.534 472.63L505.534 472.63L505.534 491.71L505.534 491.71L89.904 491.71z" stroke="none" fill="#DAEEF3" fill-rule="evenodd" /><g clip-path="url(#52)"></g><g clip-path="url(#53)"></g><g clip-path="url(#54)"></g><path transform="matrix(1 0 0 -1 0 841)" d="M89.904 453.55L505.534 453.55L505.534 453.55L505.534 472.63L505.534 472.63L89.904 472.63z" stroke="none" fill="#DAEEF3" fill-rule="evenodd" /><g clip-path="url(#55)"></g><g clip-path="url(#56)"></g><g clip-path="url(#57)"></g></g><path transform="matrix(1 0 0 -1 0 841)" d="M84.264 587.02L84.744 587.02L84.744 587.02L84.744 587.5L84.744 587.5L84.264 587.5z" stroke="none" fill="#000000" fill-rule="evenodd" /><path transform="matrix(1 0 0 -1 0 841)" d="M84.744 587.02L510.694 587.02L510.694 587.02L510.694 587.5L510.694 587.5L84.744 587.5z" stroke="none" fill="#000000" fill-rule="evenodd" /><path transform="matrix(1 0 0 -1 0 841)" d="M510.7 587.02L511.18 587.02L511.18 587.02L511.18 587.5L511.18 587.5L510.7 587.5z" stroke="none" fill="#000000" fill-rule="evenodd" /><path transform="matrix(1 0 0 -1 0 841)" d="M84.264 453.55L84.744 453.55L84.744 453.55L84.744 587.01L84.744 587.01L84.264 587.01z" stroke="none" fill="#000000" fill-rule="evenodd" /><path transform="matrix(1 0 0 -1 0 841)" d="M84.264 453.07L84.744 453.07L84.744 453.07L84.744 453.55L84.744 453.55L84.264 453.55z" stroke="none" fill="#000000" fill-rule="evenodd" /><path transform="matrix(1 0 0 -1 0 841)" d="M84.264 453.07L84.744 453.07L84.744 453.07L84.744 453.55L84.744 453.55L84.264 453.55z" stroke="none" fill="#000000" fill-rule="evenodd" /><path transform="matrix(1 0 0 -1 0 841)" d="M84.744 453.07L510.694 453.07L510.694 453.07L510.694 453.55L510.694 453.55L84.744 453.55z" stroke="none" fill="#000000" fill-rule="evenodd" /><path transform="matrix(1 0 0 -1 0 841)" d="M510.7 453.55L511.18 453.55L511.18 453.55L511.18 587.01L511.18 587.01L510.7 587.01z" stroke="none" fill="#000000" fill-rule="evenodd" /><path transform="matrix(1 0 0 -1 0 841)" d="M510.7 453.07L511.18 453.07L511.18 453.07L511.18 453.55L511.18 453.55L510.7 453.55z" stroke="none" fill="#000000" fill-rule="evenodd" /><path transform="matrix(1 0 0 -1 0 841)" d="M510.7 453.07L511.18 453.07L511.18 453.07L511.18 453.55L511.18 453.55L510.7 453.55z" stroke="none" fill="#000000" fill-rule="evenodd" /><path transform="matrix(1 0 0 -1 0 841)" d="M84.744 409.39L510.694 409.39L510.694 409.39L510.694 433.51L510.694 433.51L84.744 433.51z" stroke="none" fill="#0070C0" fill-rule="evenodd" /><g clip-path="url(#58)"><path transform="matrix(1 0 0 -1 0 841)" d="M89.904 409.39L505.534 409.39L505.534 409.39L505.534 433.51L505.534 433.51L89.904 433.51z" stroke="none" fill="#0070C0" fill-rule="evenodd" /><g clip-path="url(#59)"></g><g clip-path="url(#60)"></g><g clip-path="url(#61)"></g><g clip-path="url(#62)"></g><g clip-path="url(#63)"></g><g clip-path="url(#64)"></g><g clip-path="url(#65)"></g><g clip-path="url(#66)"></g></g><path transform="matrix(1 0 0 -1 0 841)" d="M84.264 433.51L84.744 433.51L84.744 433.51L84.744 433.99L84.744 433.99L84.264 433.99z" stroke="none" fill="#000000" fill-rule="evenodd" /><path transform="matrix(1 0 0 -1 0 841)" d="M84.264 433.51L84.744 433.51L84.744 433.51L84.744 433.99L84.744 433.99L84.264 433.99z" stroke="none" fill="#000000" fill-rule="evenodd" /><path transform="matrix(1 0 0 -1 0 841)" d="M84.744 433.51L510.694 433.51L510.694 433.51L510.694 433.99L510.694 433.99L84.744 433.99z" stroke="none" fill="#000000" fill-rule="evenodd" /><path transform="matrix(1 0 0 -1 0 841)" d="M510.7 433.51L511.18 433.51L511.18 433.51L511.18 433.99L511.18 433.99L510.7 433.99z" stroke="none" fill="#000000" fill-rule="evenodd" /><path transform="matrix(1 0 0 -1 0 841)" d="M510.7 433.51L511.18 433.51L511.18 433.51L511.18 433.99L511.18 433.99L510.7 433.99z" stroke="none" fill="#000000" fill-rule="evenodd" /><path transform="matrix(1 0 0 -1 0 841)" d="M84.264 409.39L84.744 409.39L84.744 409.39L84.744 433.51L84.744 433.51L84.264 433.51z" stroke="none" fill="#000000" fill-rule="evenodd" /><path transform="matrix(1 0 0 -1 0 841)" d="M510.7 409.39L511.18 409.39L511.18 409.39L511.18 433.51L511.18 433.51L510.7 433.51z" stroke="none" fill="#000000" fill-rule="evenodd" /><path transform="matrix(1 0 0 -1 0 841)" d="M84.744 104.06L510.694 104.06L510.694 104.06L510.694 408.91L510.694 408.91L84.744 408.91z" stroke="none" fill="#DAEEF3" fill-rule="evenodd" /><g clip-path="url(#67)"><path transform="matrix(1 0 0 -1 0 841)" d="M89.904 389.83L505.534 389.83L505.534 389.83L505.534 408.91L505.534 408.91L89.904 408.91z" stroke="none" fill="#DAEEF3" fill-rule="evenodd" /><g clip-path="url(#68)"></g><g clip-path="url(#69)"></g><path transform="matrix(1 0 0 -1 0 841)" d="M89.904 370.75L505.534 370.75L505.534 370.75L505.534 389.83L505.534 389.83L89.904 389.83z" stroke="none" fill="#DAEEF3" fill-rule="evenodd" /><g clip-path="url(#70)"></g><g clip-path="url(#71)"></g><g clip-path="url(#72)"></g><path transform="matrix(1 0 0 -1 0 841)" d="M89.904 351.65L505.534 351.65L505.534 351.65L505.534 370.754L505.534 370.754L89.904 370.754z" stroke="none" fill="#DAEEF3" fill-rule="evenodd" /><g clip-path="url(#73)"></g><g clip-path="url(#74)"></g><g clip-path="url(#75)"></g><path transform="matrix(1 0 0 -1 0 841)" d="M89.904 332.69L505.534 332.69L505.534 332.69L505.534 351.65L505.534 351.65L89.904 351.65z" stroke="none" fill="#DAEEF3" fill-rule="evenodd" /><g clip-path="url(#76)"></g><g clip-path="url(#77)"></g><g clip-path="url(#78)"></g><path transform="matrix(1 0 0 -1 0 841)" d="M89.904 313.61L505.534 313.61L505.534 313.61L505.534 332.69L505.534 332.69L89.904 332.69z" stroke="none" fill="#DAEEF3" fill-rule="evenodd" /><g clip-path="url(#79)"></g><g clip-path="url(#80)"></g><g clip-path="url(#81)"></g><path transform="matrix(1 0 0 -1 0 841)" d="M89.904 294.53L505.534 294.53L505.534 294.53L505.534 313.61L505.534 313.61L89.904 313.61z" stroke="none" fill="#DAEEF3" fill-rule="evenodd" /><g clip-path="url(#82)"></g><g clip-path="url(#83)"></g><g clip-path="url(#84)"></g><path transform="matrix(1 0 0 -1 0 841)" d="M89.904 275.45L505.534 275.45L505.534 275.45L505.534 294.53L505.534 294.53L89.904 294.53z" stroke="none" fill="#DAEEF3" fill-rule="evenodd" /><g clip-path="url(#85)"></g><g clip-path="url(#86)"></g><g clip-path="url(#87)"></g><path transform="matrix(1 0 0 -1 0 841)" d="M89.904 256.49L505.534 256.49L505.534 256.49L505.534 275.45L505.534 275.45L89.904 275.45z" stroke="none" fill="#DAEEF3" fill-rule="evenodd" /><g clip-path="url(#88)"></g><g clip-path="url(#89)"></g><g clip-path="url(#90)"></g><path transform="matrix(1 0 0 -1 0 841)" d="M89.904 237.41L505.534 237.41L505.534 237.41L505.534 256.49L505.534 256.49L89.904 256.49z" stroke="none" fill="#DAEEF3" fill-rule="evenodd" /><g clip-path="url(#91)"></g><g clip-path="url(#92)"></g><g clip-path="url(#93)"></g><path transform="matrix(1 0 0 -1 0 841)" d="M89.904 218.33L505.534 218.33L505.534 218.33L505.534 237.41L505.534 237.41L89.904 237.41z" stroke="none" fill="#DAEEF3" fill-rule="evenodd" /><g clip-path="url(#94)"></g><g clip-path="url(#95)"></g><g clip-path="url(#96)"></g><path transform="matrix(1 0 0 -1 0 841)" d="M89.904 199.25L505.534 199.25L505.534 199.25L505.534 218.33L505.534 218.33L89.904 218.33z" stroke="none" fill="#DAEEF3" fill-rule="evenodd" /><g clip-path="url(#97)"></g><g clip-path="url(#98)"></g><g clip-path="url(#99)"></g><path transform="matrix(1 0 0 -1 0 841)" d="M89.904 180.26L505.534 180.26L505.534 180.26L505.534 199.244L505.534 199.244L89.904 199.244z" stroke="none" fill="#DAEEF3" fill-rule="evenodd" /><g clip-path="url(#100)"></g><g clip-path="url(#101)"></g><g clip-path="url(#102)"></g><g clip-path="url(#103)"></g><path transform="matrix(1 0 0 -1 0 841)" d="M89.904 161.18L505.534 161.18L505.534 161.18L505.534 180.26L505.534 180.26L89.904 180.26z" stroke="none" fill="#DAEEF3" fill-rule="evenodd" /><g clip-path="url(#104)"></g><g clip-path="url(#105)"></g><g clip-path="url(#106)"></g><g clip-path="url(#107)"></g><g clip-path="url(#108)"></g><path transform="matrix(1 0 0 -1 0 841)" d="M89.904 142.1L505.534 142.1L505.534 142.1L505.534 161.18L505.534 161.18L89.904 161.18z" stroke="none" fill="#DAEEF3" fill-rule="evenodd" /><g clip-path="url(#109)"></g><g clip-path="url(#110)"></g><g clip-path="url(#111)"></g><path transform="matrix(1 0 0 -1 0 841)" d="M89.904 123.14L505.534 123.14L505.534 123.14L505.534 142.1L505.534 142.1L89.904 142.1z" stroke="none" fill="#DAEEF3" fill-rule="evenodd" /><g clip-path="url(#112)"></g><g clip-path="url(#113)"></g><g clip-path="url(#114)"></g><path transform="matrix(1 0 0 -1 0 841)" d="M89.904 104.06L505.534 104.06L505.534 104.06L505.534 123.14L505.534 123.14L89.904 123.14z" stroke="none" fill="#DAEEF3" fill-rule="evenodd" /><g clip-path="url(#115)"></g><g clip-path="url(#116)"></g><g clip-path="url(#117)"></g></g><path transform="matrix(1 0 0 -1 0 841)" d="M84.264 408.91L84.744 408.91L84.744 408.91L84.744 409.39L84.744 409.39L84.264 409.39z" stroke="none" fill="#000000" fill-rule="evenodd" /><path transform="matrix(1 0 0 -1 0 841)" d="M84.744 408.91L510.694 408.91L510.694 408.91L510.694 409.39L510.694 409.39L84.744 409.39z" stroke="none" fill="#000000" fill-rule="evenodd" /><path transform="matrix(1 0 0 -1 0 841)" d="M510.7 408.91L511.18 408.91L511.18 408.91L511.18 409.39L511.18 409.39L510.7 409.39z" stroke="none" fill="#000000" fill-rule="evenodd" /><path transform="matrix(1 0 0 -1 0 841)" d="M84.264 104.06L84.744 104.06L84.744 104.06L84.744 408.91L84.744 408.91L84.264 408.91z" stroke="none" fill="#000000" fill-rule="evenodd" /><path transform="matrix(1 0 0 -1 0 841)" d="M84.264 103.58L84.744 103.58L84.744 103.58L84.744 104.06L84.744 104.06L84.264 104.06z" stroke="none" fill="#000000" fill-rule="evenodd" /><path transform="matrix(1 0 0 -1 0 841)" d="M84.264 103.58L84.744 103.58L84.744 103.58L84.744 104.06L84.744 104.06L84.264 104.06z" stroke="none" fill="#000000" fill-rule="evenodd" /><path transform="matrix(1 0 0 -1 0 841)" d="M84.744 103.58L510.694 103.58L510.694 103.58L510.694 104.06L510.694 104.06L84.744 104.06z" stroke="none" fill="#000000" fill-rule="evenodd" /><path transform="matrix(1 0 0 -1 0 841)" d="M510.7 104.06L511.18 104.06L511.18 104.06L511.18 408.91L511.18 408.91L510.7 408.91z" stroke="none" fill="#000000" fill-rule="evenodd" /><path transform="matrix(1 0 0 -1 0 841)" d="M510.7 103.58L511.18 103.58L511.18 103.58L511.18 104.06L511.18 104.06L510.7 104.06z" stroke="none" fill="#000000" fill-rule="evenodd" /><path transform="matrix(1 0 0 -1 0 841)" d="M510.7 103.58L511.18 103.58L511.18 103.58L511.18 104.06L511.18 104.06L510.7 104.06z" stroke="none" fill="#000000" fill-rule="evenodd" /></g></g></g></svg>