<svg xmlns="http://www.w3.org/2000/svg" xmlns:xlink="http://www.w3.org/1999/xlink" id="body_215" preserveAspectRatio="xMinYMin meet" viewBox="0 0 793 1121"><defs><clipPath id="1"><path d="M0 841L0 -0.9199829L0 -0.9199829L595.32 -0.9199829L595.32 -0.9199829L595.32 841L595.32 841L0 841z" /></clipPath><clipPath id="2"><path d="M0.00125 841.0914L595.4112 841.0914L595.4112 841.0914L595.4112 -0.9186401L595.4112 -0.9186401L0.00125 -0.9186401z" /></clipPath><clipPath id="3"><path d="M288.05 781.211L316.01 781.211L316.01 781.211L316.01 762.011L316.01 762.011L288.05 762.011z" /></clipPath><clipPath id="4"><path d="M288.05 781.216L316.01 781.216L316.01 781.216L316.01 762.016L316.01 762.016L288.05 762.016z" /></clipPath><clipPath id="5"><path d="M288.05 781.216L316.01 781.216L316.01 781.216L316.01 762.016L316.01 762.016L288.05 762.016z" /></clipPath><clipPath id="6"><path d="M84.751 110.95L126.511 110.95L126.511 110.95L126.511 89.44L126.511 89.44L84.751 89.44z" /></clipPath><clipPath id="7"><path d="M84.744 110.94L126.504 110.94L126.504 110.94L126.504 89.43597L126.504 89.43597L84.744 89.43597z" /></clipPath><clipPath id="8"><path d="M84.744 110.94L126.504 110.94L126.504 110.94L126.504 89.43597L126.504 89.43597L84.744 89.43597z" /></clipPath><clipPath id="9"><path d="M126.99 110.95L274.13 110.95L274.13 110.95L274.13 89.44L274.13 89.44L126.99 89.44z" /></clipPath><clipPath id="10"><path d="M126.98 110.94L274.12 110.94L274.12 110.94L274.12 89.43597L274.12 89.43597L126.98 89.43597z" /></clipPath><clipPath id="11"><path d="M126.98 110.94L274.12 110.94L274.12 110.94L274.12 89.43597L274.12 89.43597L126.98 89.43597z" /></clipPath><clipPath id="12"><path d="M84.751 130.51L126.511 130.51L126.511 130.51L126.511 111.43L126.511 111.43L84.751 111.43z" /></clipPath><clipPath id="13"><path d="M84.744 130.5L126.504 130.5L126.504 130.5L126.504 111.42L126.504 111.42L84.744 111.42z" /></clipPath><clipPath id="14"><path d="M84.744 130.5L126.504 130.5L126.504 130.5L126.504 111.42L126.504 111.42L84.744 111.42z" /></clipPath><clipPath id="15"><path d="M126.99 130.51L274.13 130.51L274.13 130.51L274.13 111.43L274.13 111.43L126.99 111.43z" /></clipPath><clipPath id="16"><path d="M126.98 130.5L274.12 130.5L274.12 130.5L274.12 111.42L274.12 111.42L126.98 111.42z" /></clipPath><clipPath id="17"><path d="M126.98 130.5L274.12 130.5L274.12 130.5L274.12 111.42L274.12 111.42L126.98 111.42z" /></clipPath><clipPath id="18"><path d="M84.751 149.95L126.511 149.95L126.511 149.95L126.511 130.99L126.511 130.99L84.751 130.99z" /></clipPath><clipPath id="19"><path d="M84.744 149.94L126.504 149.94L126.504 149.94L126.504 130.98L126.504 130.98L84.744 130.98z" /></clipPath><clipPath id="20"><path d="M84.744 149.94L126.504 149.94L126.504 149.94L126.504 130.98L126.504 130.98L84.744 130.98z" /></clipPath><clipPath id="21"><path d="M126.99 149.95L274.13 149.95L274.13 149.95L274.13 130.99L274.13 130.99L126.99 130.99z" /></clipPath><clipPath id="22"><path d="M126.98 149.94L274.12 149.94L274.12 149.94L274.12 130.98L274.12 130.98L126.98 130.98z" /></clipPath><clipPath id="23"><path d="M126.98 149.94L274.12 149.94L274.12 149.94L274.12 130.98L274.12 130.98L126.98 130.98z" /></clipPath><clipPath id="24"><path d="M84.751 169.51L126.511 169.51L126.511 169.51L126.511 150.55L126.511 150.55L84.751 150.55z" /></clipPath><clipPath id="25"><path d="M84.744 169.5L126.504 169.5L126.504 169.5L126.504 150.54L126.504 150.54L84.744 150.54z" /></clipPath><clipPath id="26"><path d="M84.744 169.5L126.504 169.5L126.504 169.5L126.504 150.54L126.504 150.54L84.744 150.54z" /></clipPath><clipPath id="27"><path d="M126.99 169.51L274.13 169.51L274.13 169.51L274.13 150.55L274.13 150.55L126.99 150.55z" /></clipPath><clipPath id="28"><path d="M126.98 169.5L274.12 169.5L274.12 169.5L274.12 150.54L274.12 150.54L126.98 150.54z" /></clipPath><clipPath id="29"><path d="M126.98 169.5L274.12 169.5L274.12 169.5L274.12 150.54L274.12 150.54L126.98 150.54z" /></clipPath><clipPath id="30"><path d="M84.751 213.79L510.691 213.79L510.691 213.79L510.691 189.55L510.691 189.55L84.751 189.55z" /></clipPath><clipPath id="31"><path d="M84.744 213.78L510.694 213.78L510.694 213.78L510.694 189.54L510.694 189.54L84.744 189.54z" /></clipPath><clipPath id="32"><path d="M84.744 213.78L510.694 213.78L510.694 213.78L510.694 189.54L510.694 189.54L84.744 189.54z" /></clipPath><clipPath id="33"><path d="M84.751 742.811L510.691 742.811L510.691 742.811L510.691 214.271L510.691 214.271L84.751 214.271z" /></clipPath><clipPath id="34"><path d="M84.744 742.816L510.694 742.816L510.694 742.816L510.694 214.266L510.694 214.266L84.744 214.266z" /></clipPath><clipPath id="35"><path d="M84.744 742.816L510.694 742.816L510.694 742.816L510.694 214.266L510.694 214.266L84.744 214.266z" /></clipPath><clipPath id="36"><path d="M84.744 742.816L510.694 742.816L510.694 742.816L510.694 214.266L510.694 214.266L84.744 214.266z" /></clipPath><clipPath id="37"><path d="M84.744 742.816L510.694 742.816L510.694 742.816L510.694 214.266L510.694 214.266L84.744 214.266z" /></clipPath><clipPath id="38"><path d="M84.744 742.816L510.694 742.816L510.694 742.816L510.694 214.266L510.694 214.266L84.744 214.266z" /></clipPath><clipPath id="39"><path d="M84.744 742.816L510.694 742.816L510.694 742.816L510.694 214.266L510.694 214.266L84.744 214.266z" /></clipPath><clipPath id="40"><path d="M84.744 742.816L510.694 742.816L510.694 742.816L510.694 214.266L510.694 214.266L84.744 214.266z" /></clipPath><clipPath id="41"><path d="M84.744 742.816L510.694 742.816L510.694 742.816L510.694 214.266L510.694 214.266L84.744 214.266z" /></clipPath><clipPath id="42"><path d="M84.744 742.816L510.694 742.816L510.694 742.816L510.694 214.266L510.694 214.266L84.744 214.266z" /></clipPath><clipPath id="43"><path d="M84.744 742.816L510.694 742.816L510.694 742.816L510.694 214.266L510.694 214.266L84.744 214.266z" /></clipPath><clipPath id="44"><path d="M84.744 742.816L510.694 742.816L510.694 742.816L510.694 214.266L510.694 214.266L84.744 214.266z" /></clipPath><clipPath id="45"><path d="M84.744 742.816L510.694 742.816L510.694 742.816L510.694 214.266L510.694 214.266L84.744 214.266z" /></clipPath><clipPath id="46"><path d="M84.744 742.816L510.694 742.816L510.694 742.816L510.694 214.266L510.694 214.266L84.744 214.266z" /></clipPath><clipPath id="47"><path d="M84.744 742.816L510.694 742.816L510.694 742.816L510.694 214.266L510.694 214.266L84.744 214.266z" /></clipPath><clipPath id="48"><path d="M84.744 742.816L510.694 742.816L510.694 742.816L510.694 214.266L510.694 214.266L84.744 214.266z" /></clipPath><clipPath id="49"><path d="M84.744 742.816L510.694 742.816L510.694 742.816L510.694 214.266L510.694 214.266L84.744 214.266z" /></clipPath><clipPath id="50"><path d="M84.744 742.816L510.694 742.816L510.694 742.816L510.694 214.266L510.694 214.266L84.744 214.266z" /></clipPath><clipPath id="51"><path d="M84.744 742.816L510.694 742.816L510.694 742.816L510.694 214.266L510.694 214.266L84.744 214.266z" /></clipPath><clipPath id="52"><path d="M84.744 742.816L510.694 742.816L510.694 742.816L510.694 214.266L510.694 214.266L84.744 214.266z" /></clipPath><clipPath id="53"><path d="M84.744 742.816L510.694 742.816L510.694 742.816L510.694 214.266L510.694 214.266L84.744 214.266z" /></clipPath><clipPath id="54"><path d="M84.744 742.816L510.694 742.816L510.694 742.816L510.694 214.266L510.694 214.266L84.744 214.266z" /></clipPath><clipPath id="55"><path d="M84.744 742.816L510.694 742.816L510.694 742.816L510.694 214.266L510.694 214.266L84.744 214.266z" /></clipPath><clipPath id="56"><path d="M84.744 742.816L510.694 742.816L510.694 742.816L510.694 214.266L510.694 214.266L84.744 214.266z" /></clipPath><clipPath id="57"><path d="M84.744 742.816L510.694 742.816L510.694 742.816L510.694 214.266L510.694 214.266L84.744 214.266z" /></clipPath><clipPath id="58"><path d="M84.744 742.816L510.694 742.816L510.694 742.816L510.694 214.266L510.694 214.266L84.744 214.266z" /></clipPath><clipPath id="59"><path d="M84.744 742.816L510.694 742.816L510.694 742.816L510.694 214.266L510.694 214.266L84.744 214.266z" /></clipPath><clipPath id="60"><path d="M84.744 742.816L510.694 742.816L510.694 742.816L510.694 214.266L510.694 214.266L84.744 214.266z" /></clipPath><clipPath id="61"><path d="M84.744 742.816L510.694 742.816L510.694 742.816L510.694 214.266L510.694 214.266L84.744 214.266z" /></clipPath><clipPath id="62"><path d="M84.744 742.816L510.694 742.816L510.694 742.816L510.694 214.266L510.694 214.266L84.744 214.266z" /></clipPath><clipPath id="63"><path d="M84.744 742.816L510.694 742.816L510.694 742.816L510.694 214.266L510.694 214.266L84.744 214.266z" /></clipPath><clipPath id="64"><path d="M84.744 742.816L510.694 742.816L510.694 742.816L510.694 214.266L510.694 214.266L84.744 214.266z" /></clipPath><clipPath id="65"><path d="M84.744 742.816L510.694 742.816L510.694 742.816L510.694 214.266L510.694 214.266L84.744 214.266z" /></clipPath><clipPath id="66"><path d="M84.744 742.816L510.694 742.816L510.694 742.816L510.694 214.266L510.694 214.266L84.744 214.266z" /></clipPath><clipPath id="67"><path d="M84.744 742.816L510.694 742.816L510.694 742.816L510.694 214.266L510.694 214.266L84.744 214.266z" /></clipPath><clipPath id="68"><path d="M84.744 742.816L510.694 742.816L510.694 742.816L510.694 214.266L510.694 214.266L84.744 214.266z" /></clipPath><clipPath id="69"><path d="M84.744 742.816L510.694 742.816L510.694 742.816L510.694 214.266L510.694 214.266L84.744 214.266z" /></clipPath><clipPath id="70"><path d="M84.744 742.816L510.694 742.816L510.694 742.816L510.694 214.266L510.694 214.266L84.744 214.266z" /></clipPath><clipPath id="71"><path d="M84.744 742.816L510.694 742.816L510.694 742.816L510.694 214.266L510.694 214.266L84.744 214.266z" /></clipPath><clipPath id="72"><path d="M84.744 742.816L510.694 742.816L510.694 742.816L510.694 214.266L510.694 214.266L84.744 214.266z" /></clipPath><clipPath id="73"><path d="M84.744 742.816L510.694 742.816L510.694 742.816L510.694 214.266L510.694 214.266L84.744 214.266z" /></clipPath><clipPath id="74"><path d="M84.744 742.816L510.694 742.816L510.694 742.816L510.694 214.266L510.694 214.266L84.744 214.266z" /></clipPath><clipPath id="75"><path d="M84.744 742.816L510.694 742.816L510.694 742.816L510.694 214.266L510.694 214.266L84.744 214.266z" /></clipPath><clipPath id="76"><path d="M84.744 742.816L510.694 742.816L510.694 742.816L510.694 214.266L510.694 214.266L84.744 214.266z" /></clipPath><clipPath id="77"><path d="M84.744 742.816L510.694 742.816L510.694 742.816L510.694 214.266L510.694 214.266L84.744 214.266z" /></clipPath><clipPath id="78"><path d="M84.744 742.816L510.694 742.816L510.694 742.816L510.694 214.266L510.694 214.266L84.744 214.266z" /></clipPath><clipPath id="79"><path d="M84.744 742.816L510.694 742.816L510.694 742.816L510.694 214.266L510.694 214.266L84.744 214.266z" /></clipPath><clipPath id="80"><path d="M84.744 742.816L510.694 742.816L510.694 742.816L510.694 214.266L510.694 214.266L84.744 214.266z" /></clipPath><clipPath id="81"><path d="M84.744 742.816L510.694 742.816L510.694 742.816L510.694 214.266L510.694 214.266L84.744 214.266z" /></clipPath><clipPath id="82"><path d="M84.744 742.816L510.694 742.816L510.694 742.816L510.694 214.266L510.694 214.266L84.744 214.266z" /></clipPath><clipPath id="83"><path d="M84.744 742.816L510.694 742.816L510.694 742.816L510.694 214.266L510.694 214.266L84.744 214.266z" /></clipPath><clipPath id="84"><path d="M84.744 742.816L510.694 742.816L510.694 742.816L510.694 214.266L510.694 214.266L84.744 214.266z" /></clipPath><clipPath id="85"><path d="M84.744 742.816L510.694 742.816L510.694 742.816L510.694 214.266L510.694 214.266L84.744 214.266z" /></clipPath><clipPath id="86"><path d="M84.744 742.816L510.694 742.816L510.694 742.816L510.694 214.266L510.694 214.266L84.744 214.266z" /></clipPath><clipPath id="87"><path d="M84.744 742.816L510.694 742.816L510.694 742.816L510.694 214.266L510.694 214.266L84.744 214.266z" /></clipPath><clipPath id="88"><path d="M84.744 742.816L510.694 742.816L510.694 742.816L510.694 214.266L510.694 214.266L84.744 214.266z" /></clipPath><clipPath id="89"><path d="M84.744 742.816L510.694 742.816L510.694 742.816L510.694 214.266L510.694 214.266L84.744 214.266z" /></clipPath><clipPath id="90"><path d="M84.744 742.816L510.694 742.816L510.694 742.816L510.694 214.266L510.694 214.266L84.744 214.266z" /></clipPath><clipPath id="91"><path d="M84.744 742.816L510.694 742.816L510.694 742.816L510.694 214.266L510.694 214.266L84.744 214.266z" /></clipPath><clipPath id="92"><path d="M84.744 742.816L510.694 742.816L510.694 742.816L510.694 214.266L510.694 214.266L84.744 214.266z" /></clipPath><clipPath id="93"><path d="M84.744 742.816L510.694 742.816L510.694 742.816L510.694 214.266L510.694 214.266L84.744 214.266z" /></clipPath><clipPath id="94"><path d="M84.744 742.816L510.694 742.816L510.694 742.816L510.694 214.266L510.694 214.266L84.744 214.266z" /></clipPath><clipPath id="95"><path d="M84.744 742.816L510.694 742.816L510.694 742.816L510.694 214.266L510.694 214.266L84.744 214.266z" /></clipPath><clipPath id="96"><path d="M84.744 742.816L510.694 742.816L510.694 742.816L510.694 214.266L510.694 214.266L84.744 214.266z" /></clipPath><clipPath id="97"><path d="M84.744 742.816L510.694 742.816L510.694 742.816L510.694 214.266L510.694 214.266L84.744 214.266z" /></clipPath><clipPath id="98"><path d="M84.744 742.816L510.694 742.816L510.694 742.816L510.694 214.266L510.694 214.266L84.744 214.266z" /></clipPath><clipPath id="99"><path d="M84.744 742.816L510.694 742.816L510.694 742.816L510.694 214.266L510.694 214.266L84.744 214.266z" /></clipPath><clipPath id="100"><path d="M84.744 742.816L510.694 742.816L510.694 742.816L510.694 214.266L510.694 214.266L84.744 214.266z" /></clipPath><clipPath id="101"><path d="M84.744 742.816L510.694 742.816L510.694 742.816L510.694 214.266L510.694 214.266L84.744 214.266z" /></clipPath><clipPath id="102"><path d="M84.744 742.816L510.694 742.816L510.694 742.816L510.694 214.266L510.694 214.266L84.744 214.266z" /></clipPath><clipPath id="103"><path d="M84.744 742.816L510.694 742.816L510.694 742.816L510.694 214.266L510.694 214.266L84.744 214.266z" /></clipPath><clipPath id="104"><path d="M84.744 742.816L510.694 742.816L510.694 742.816L510.694 214.266L510.694 214.266L84.744 214.266z" /></clipPath><clipPath id="105"><path d="M84.744 742.816L510.694 742.816L510.694 742.816L510.694 214.266L510.694 214.266L84.744 214.266z" /></clipPath><clipPath id="106"><path d="M84.744 742.816L510.694 742.816L510.694 742.816L510.694 214.266L510.694 214.266L84.744 214.266z" /></clipPath><clipPath id="107"><path d="M84.744 742.816L510.694 742.816L510.694 742.816L510.694 214.266L510.694 214.266L84.744 214.266z" /></clipPath><clipPath id="108"><path d="M84.744 742.816L510.694 742.816L510.694 742.816L510.694 214.266L510.694 214.266L84.744 214.266z" /></clipPath><clipPath id="109"><path d="M84.744 742.816L510.694 742.816L510.694 742.816L510.694 214.266L510.694 214.266L84.744 214.266z" /></clipPath><clipPath id="110"><path d="M84.744 742.816L510.694 742.816L510.694 742.816L510.694 214.266L510.694 214.266L84.744 214.266z" /></clipPath><clipPath id="111"><path d="M84.744 742.816L510.694 742.816L510.694 742.816L510.694 214.266L510.694 214.266L84.744 214.266z" /></clipPath><clipPath id="112"><path d="M84.744 742.816L510.694 742.816L510.694 742.816L510.694 214.266L510.694 214.266L84.744 214.266z" /></clipPath><clipPath id="113"><path d="M84.744 742.816L510.694 742.816L510.694 742.816L510.694 214.266L510.694 214.266L84.744 214.266z" /></clipPath><clipPath id="114"><path d="M84.744 742.816L510.694 742.816L510.694 742.816L510.694 214.266L510.694 214.266L84.744 214.266z" /></clipPath></defs><g transform="matrix(1.333333 0 0 1.333333 0 0)"><g><g clip-path="url(#1)"><path transform="matrix(1 0 0 -1 0 841)" d="M457.51 53.304L505.534 53.304L505.534 53.304L505.534 53.90404L505.534 53.90404L457.51 53.90404z" stroke="none" fill="#000000" fill-rule="evenodd" /><g clip-path="url(#2)"><path transform="matrix(1 0 0 -1 0 841)" d="M88.464 77.904L506.974 77.904L506.974 77.904L506.974 80.904L506.974 80.904L88.464 80.904z" stroke="none" fill="#000000" fill-rule="evenodd" /><path transform="matrix(1 0 0 -1 0 841)" d="M88.464 76.464L506.974 76.464L506.974 76.464L506.974 77.18397L506.974 77.18397L88.464 77.18397z" stroke="none" fill="#000000" fill-rule="evenodd" /></g><g clip-path="url(#3)"><g clip-path="url(#4)"></g><g clip-path="url(#5)"></g></g><path transform="matrix(1 0 0 -1 0 841)" d="M84.744 730.06L126.504 730.06L126.504 730.06L126.504 751.564L126.504 751.564L84.744 751.564z" stroke="none" fill="#DAEEF3" fill-rule="evenodd" /><g clip-path="url(#6)"><path transform="matrix(1 0 0 -1 0 841)" d="M89.904 732.46L121.344 732.46L121.344 732.46L121.344 751.564L121.344 751.564L89.904 751.564z" stroke="none" fill="#DAEEF3" fill-rule="evenodd" /><g clip-path="url(#7)"></g><g clip-path="url(#8)"></g></g><path transform="matrix(1 0 0 -1 0 841)" d="M126.98 730.06L274.12 730.06L274.12 730.06L274.12 751.564L274.12 751.564L126.98 751.564z" stroke="none" fill="#DAEEF3" fill-rule="evenodd" /><g clip-path="url(#9)"><path transform="matrix(1 0 0 -1 0 841)" d="M132.14 732.46L268.96 732.46L268.96 732.46L268.96 751.564L268.96 751.564L132.14 751.564z" stroke="none" fill="#DAEEF3" fill-rule="evenodd" /><g clip-path="url(#10)"></g><g clip-path="url(#11)"></g></g><path transform="matrix(1 0 0 -1 0 841)" d="M84.264 751.56L84.744 751.56L84.744 751.56L84.744 752.04L84.744 752.04L84.264 752.04z" stroke="none" fill="#000000" fill-rule="evenodd" /><path transform="matrix(1 0 0 -1 0 841)" d="M84.264 751.56L84.744 751.56L84.744 751.56L84.744 752.04L84.744 752.04L84.264 752.04z" stroke="none" fill="#000000" fill-rule="evenodd" /><path transform="matrix(1 0 0 -1 0 841)" d="M84.744 751.56L126.624 751.56L126.624 751.56L126.624 752.04L126.624 752.04L84.744 752.04z" stroke="none" fill="#000000" fill-rule="evenodd" /><path transform="matrix(1 0 0 -1 0 841)" d="M126.62 751.56L127.1 751.56L127.1 751.56L127.1 752.04L127.1 752.04L126.62 752.04z" stroke="none" fill="#000000" fill-rule="evenodd" /><path transform="matrix(1 0 0 -1 0 841)" d="M127.1 751.56L274.24 751.56L274.24 751.56L274.24 752.04L274.24 752.04L127.1 752.04z" stroke="none" fill="#000000" fill-rule="evenodd" /><path transform="matrix(1 0 0 -1 0 841)" d="M274.25 751.56L274.73 751.56L274.73 751.56L274.73 752.04L274.73 752.04L274.25 752.04z" stroke="none" fill="#000000" fill-rule="evenodd" /><path transform="matrix(1 0 0 -1 0 841)" d="M274.25 751.56L274.73 751.56L274.73 751.56L274.73 752.04L274.73 752.04L274.25 752.04z" stroke="none" fill="#000000" fill-rule="evenodd" /><path transform="matrix(1 0 0 -1 0 841)" d="M84.264 730.06L84.744 730.06L84.744 730.06L84.744 751.564L84.744 751.564L84.264 751.564z" stroke="none" fill="#000000" fill-rule="evenodd" /><path transform="matrix(1 0 0 -1 0 841)" d="M126.62 730.06L127.1 730.06L127.1 730.06L127.1 751.564L127.1 751.564L126.62 751.564z" stroke="none" fill="#000000" fill-rule="evenodd" /><path transform="matrix(1 0 0 -1 0 841)" d="M274.25 730.06L274.73 730.06L274.73 730.06L274.73 751.564L274.73 751.564L274.25 751.564z" stroke="none" fill="#000000" fill-rule="evenodd" /><g clip-path="url(#12)"><g clip-path="url(#13)"></g><g clip-path="url(#14)"></g></g><g clip-path="url(#15)"><g clip-path="url(#16)"></g><g clip-path="url(#17)"></g></g><path transform="matrix(1 0 0 -1 0 841)" d="M84.264 729.58L84.744 729.58L84.744 729.58L84.744 730.06L84.744 730.06L84.264 730.06z" stroke="none" fill="#000000" fill-rule="evenodd" /><path transform="matrix(1 0 0 -1 0 841)" d="M84.744 729.58L126.624 729.58L126.624 729.58L126.624 730.06L126.624 730.06L84.744 730.06z" stroke="none" fill="#000000" fill-rule="evenodd" /><path transform="matrix(1 0 0 -1 0 841)" d="M126.62 729.58L127.1 729.58L127.1 729.58L127.1 730.06L127.1 730.06L126.62 730.06z" stroke="none" fill="#000000" fill-rule="evenodd" /><path transform="matrix(1 0 0 -1 0 841)" d="M127.1 729.58L274.24 729.58L274.24 729.58L274.24 730.06L274.24 730.06L127.1 730.06z" stroke="none" fill="#000000" fill-rule="evenodd" /><path transform="matrix(1 0 0 -1 0 841)" d="M274.25 729.58L274.73 729.58L274.73 729.58L274.73 730.06L274.73 730.06L274.25 730.06z" stroke="none" fill="#000000" fill-rule="evenodd" /><path transform="matrix(1 0 0 -1 0 841)" d="M84.264 710.5L84.744 710.5L84.744 710.5L84.744 729.58L84.744 729.58L84.264 729.58z" stroke="none" fill="#000000" fill-rule="evenodd" /><path transform="matrix(1 0 0 -1 0 841)" d="M126.62 710.5L127.1 710.5L127.1 710.5L127.1 729.58L127.1 729.58L126.62 729.58z" stroke="none" fill="#000000" fill-rule="evenodd" /><path transform="matrix(1 0 0 -1 0 841)" d="M274.25 710.5L274.73 710.5L274.73 710.5L274.73 729.58L274.73 729.58L274.25 729.58z" stroke="none" fill="#000000" fill-rule="evenodd" /><path transform="matrix(1 0 0 -1 0 841)" d="M84.744 691.06L126.504 691.06L126.504 691.06L126.504 710.02L126.504 710.02L84.744 710.02z" stroke="none" fill="#DAEEF3" fill-rule="evenodd" /><g clip-path="url(#18)"><path transform="matrix(1 0 0 -1 0 841)" d="M89.904 691.06L121.344 691.06L121.344 691.06L121.344 710.02L121.344 710.02L89.904 710.02z" stroke="none" fill="#DAEEF3" fill-rule="evenodd" /><g clip-path="url(#19)"></g><g clip-path="url(#20)"></g></g><path transform="matrix(1 0 0 -1 0 841)" d="M126.98 691.06L274.12 691.06L274.12 691.06L274.12 710.02L274.12 710.02L126.98 710.02z" stroke="none" fill="#DAEEF3" fill-rule="evenodd" /><g clip-path="url(#21)"><path transform="matrix(1 0 0 -1 0 841)" d="M132.14 691.06L268.96 691.06L268.96 691.06L268.96 710.02L268.96 710.02L132.14 710.02z" stroke="none" fill="#DAEEF3" fill-rule="evenodd" /><g clip-path="url(#22)"></g><g clip-path="url(#23)"></g></g><path transform="matrix(1 0 0 -1 0 841)" d="M84.264 710.02L84.744 710.02L84.744 710.02L84.744 710.5L84.744 710.5L84.264 710.5z" stroke="none" fill="#000000" fill-rule="evenodd" /><path transform="matrix(1 0 0 -1 0 841)" d="M84.744 710.02L126.624 710.02L126.624 710.02L126.624 710.5L126.624 710.5L84.744 710.5z" stroke="none" fill="#000000" fill-rule="evenodd" /><path transform="matrix(1 0 0 -1 0 841)" d="M126.62 710.02L127.1 710.02L127.1 710.02L127.1 710.5L127.1 710.5L126.62 710.5z" stroke="none" fill="#000000" fill-rule="evenodd" /><path transform="matrix(1 0 0 -1 0 841)" d="M127.1 710.02L274.24 710.02L274.24 710.02L274.24 710.5L274.24 710.5L127.1 710.5z" stroke="none" fill="#000000" fill-rule="evenodd" /><path transform="matrix(1 0 0 -1 0 841)" d="M274.25 710.02L274.73 710.02L274.73 710.02L274.73 710.5L274.73 710.5L274.25 710.5z" stroke="none" fill="#000000" fill-rule="evenodd" /><path transform="matrix(1 0 0 -1 0 841)" d="M84.264 691.06L84.744 691.06L84.744 691.06L84.744 710.02L84.744 710.02L84.264 710.02z" stroke="none" fill="#000000" fill-rule="evenodd" /><path transform="matrix(1 0 0 -1 0 841)" d="M126.62 691.06L127.1 691.06L127.1 691.06L127.1 710.02L127.1 710.02L126.62 710.02z" stroke="none" fill="#000000" fill-rule="evenodd" /><path transform="matrix(1 0 0 -1 0 841)" d="M274.25 691.06L274.73 691.06L274.73 691.06L274.73 710.02L274.73 710.02L274.25 710.02z" stroke="none" fill="#000000" fill-rule="evenodd" /><g clip-path="url(#24)"><g clip-path="url(#25)"></g><g clip-path="url(#26)"></g></g><g clip-path="url(#27)"><g clip-path="url(#28)"></g><g clip-path="url(#29)"></g></g><path transform="matrix(1 0 0 -1 0 841)" d="M84.264 690.58L84.744 690.58L84.744 690.58L84.744 691.06L84.744 691.06L84.264 691.06z" stroke="none" fill="#000000" fill-rule="evenodd" /><path transform="matrix(1 0 0 -1 0 841)" d="M84.744 690.58L126.624 690.58L126.624 690.58L126.624 691.06L126.624 691.06L84.744 691.06z" stroke="none" fill="#000000" fill-rule="evenodd" /><path transform="matrix(1 0 0 -1 0 841)" d="M126.62 690.58L127.1 690.58L127.1 690.58L127.1 691.06L127.1 691.06L126.62 691.06z" stroke="none" fill="#000000" fill-rule="evenodd" /><path transform="matrix(1 0 0 -1 0 841)" d="M127.1 690.58L274.24 690.58L274.24 690.58L274.24 691.06L274.24 691.06L127.1 691.06z" stroke="none" fill="#000000" fill-rule="evenodd" /><path transform="matrix(1 0 0 -1 0 841)" d="M274.25 690.58L274.73 690.58L274.73 690.58L274.73 691.06L274.73 691.06L274.25 691.06z" stroke="none" fill="#000000" fill-rule="evenodd" /><path transform="matrix(1 0 0 -1 0 841)" d="M84.264 671.38L84.744 671.38L84.744 671.38L84.744 690.58L84.744 690.58L84.264 690.58z" stroke="none" fill="#000000" fill-rule="evenodd" /><path transform="matrix(1 0 0 -1 0 841)" d="M84.264 670.9L84.744 670.9L84.744 670.9L84.744 671.38L84.744 671.38L84.264 671.38z" stroke="none" fill="#000000" fill-rule="evenodd" /><path transform="matrix(1 0 0 -1 0 841)" d="M84.264 670.9L84.744 670.9L84.744 670.9L84.744 671.38L84.744 671.38L84.264 671.38z" stroke="none" fill="#000000" fill-rule="evenodd" /><path transform="matrix(1 0 0 -1 0 841)" d="M84.744 670.9L126.624 670.9L126.624 670.9L126.624 671.38L126.624 671.38L84.744 671.38z" stroke="none" fill="#000000" fill-rule="evenodd" /><path transform="matrix(1 0 0 -1 0 841)" d="M126.62 671.38L127.1 671.38L127.1 671.38L127.1 690.58L127.1 690.58L126.62 690.58z" stroke="none" fill="#000000" fill-rule="evenodd" /><path transform="matrix(1 0 0 -1 0 841)" d="M126.62 670.9L127.1 670.9L127.1 670.9L127.1 671.38L127.1 671.38L126.62 671.38z" stroke="none" fill="#000000" fill-rule="evenodd" /><path transform="matrix(1 0 0 -1 0 841)" d="M127.1 670.9L274.24 670.9L274.24 670.9L274.24 671.38L274.24 671.38L127.1 671.38z" stroke="none" fill="#000000" fill-rule="evenodd" /><path transform="matrix(1 0 0 -1 0 841)" d="M274.25 671.38L274.73 671.38L274.73 671.38L274.73 690.58L274.73 690.58L274.25 690.58z" stroke="none" fill="#000000" fill-rule="evenodd" /><path transform="matrix(1 0 0 -1 0 841)" d="M274.25 670.9L274.73 670.9L274.73 670.9L274.73 671.38L274.73 671.38L274.25 671.38z" stroke="none" fill="#000000" fill-rule="evenodd" /><path transform="matrix(1 0 0 -1 0 841)" d="M274.25 670.9L274.73 670.9L274.73 670.9L274.73 671.38L274.73 671.38L274.25 671.38z" stroke="none" fill="#000000" fill-rule="evenodd" /><path transform="matrix(1 0 0 -1 0 841)" d="M84.744 627.22L510.694 627.22L510.694 627.22L510.694 651.46L510.694 651.46L84.744 651.46z" stroke="none" fill="#0070C0" fill-rule="evenodd" /><g clip-path="url(#30)"><path transform="matrix(1 0 0 -1 0 841)" d="M89.904 627.22L505.534 627.22L505.534 627.22L505.534 651.46L505.534 651.46L89.904 651.46z" stroke="none" fill="#0070C0" fill-rule="evenodd" /><g clip-path="url(#31)"></g><g clip-path="url(#32)"></g></g><path transform="matrix(1 0 0 -1 0 841)" d="M84.264 651.46L84.744 651.46L84.744 651.46L84.744 651.94L84.744 651.94L84.264 651.94z" stroke="none" fill="#000000" fill-rule="evenodd" /><path transform="matrix(1 0 0 -1 0 841)" d="M84.264 651.46L84.744 651.46L84.744 651.46L84.744 651.94L84.744 651.94L84.264 651.94z" stroke="none" fill="#000000" fill-rule="evenodd" /><path transform="matrix(1 0 0 -1 0 841)" d="M84.744 651.46L510.694 651.46L510.694 651.46L510.694 651.94L510.694 651.94L84.744 651.94z" stroke="none" fill="#000000" fill-rule="evenodd" /><path transform="matrix(1 0 0 -1 0 841)" d="M510.7 651.46L511.18 651.46L511.18 651.46L511.18 651.94L511.18 651.94L510.7 651.94z" stroke="none" fill="#000000" fill-rule="evenodd" /><path transform="matrix(1 0 0 -1 0 841)" d="M510.7 651.46L511.18 651.46L511.18 651.46L511.18 651.94L511.18 651.94L510.7 651.94z" stroke="none" fill="#000000" fill-rule="evenodd" /><path transform="matrix(1 0 0 -1 0 841)" d="M84.264 627.22L84.744 627.22L84.744 627.22L84.744 651.46L84.744 651.46L84.264 651.46z" stroke="none" fill="#000000" fill-rule="evenodd" /><path transform="matrix(1 0 0 -1 0 841)" d="M510.7 627.22L511.18 627.22L511.18 627.22L511.18 651.46L511.18 651.46L510.7 651.46z" stroke="none" fill="#000000" fill-rule="evenodd" /><path transform="matrix(1 0 0 -1 0 841)" d="M84.744 98.184L510.694 98.184L510.694 98.184L510.694 626.734L510.694 626.734L84.744 626.734z" stroke="none" fill="#DAEEF3" fill-rule="evenodd" /><g clip-path="url(#33)"><path transform="matrix(1 0 0 -1 0 841)" d="M89.904 602.62L505.534 602.62L505.534 602.62L505.534 626.74L505.534 626.74L89.904 626.74z" stroke="none" fill="#DAEEF3" fill-rule="evenodd" /><g clip-path="url(#34)"></g><g clip-path="url(#35)"></g><path transform="matrix(1 0 0 -1 0 841)" d="M89.904 583.18L505.534 583.18L505.534 583.18L505.534 602.62L505.534 602.62L89.904 602.62z" stroke="none" fill="#DAEEF3" fill-rule="evenodd" /><g clip-path="url(#36)"></g><g clip-path="url(#37)"></g><g clip-path="url(#38)"></g><path transform="matrix(1 0 0 -1 0 841)" d="M89.904 563.86L505.534 563.86L505.534 563.86L505.534 583.18L505.534 583.18L89.904 583.18z" stroke="none" fill="#DAEEF3" fill-rule="evenodd" /><g clip-path="url(#39)"></g><g clip-path="url(#40)"></g><g clip-path="url(#41)"></g><path transform="matrix(1 0 0 -1 0 841)" d="M89.904 544.39L505.534 544.39L505.534 544.39L505.534 563.854L505.534 563.854L89.904 563.854z" stroke="none" fill="#DAEEF3" fill-rule="evenodd" /><g clip-path="url(#42)"></g><g clip-path="url(#43)"></g><g clip-path="url(#44)"></g><path transform="matrix(1 0 0 -1 0 841)" d="M89.904 524.95L505.534 524.95L505.534 524.95L505.534 544.39L505.534 544.39L89.904 544.39z" stroke="none" fill="#DAEEF3" fill-rule="evenodd" /><g clip-path="url(#45)"></g><g clip-path="url(#46)"></g><g clip-path="url(#47)"></g><path transform="matrix(1 0 0 -1 0 841)" d="M89.904 505.63L505.534 505.63L505.534 505.63L505.534 524.95L505.534 524.95L89.904 524.95z" stroke="none" fill="#DAEEF3" fill-rule="evenodd" /><g clip-path="url(#48)"></g><g clip-path="url(#49)"></g><g clip-path="url(#50)"></g><path transform="matrix(1 0 0 -1 0 841)" d="M89.904 486.19L505.534 486.19L505.534 486.19L505.534 505.63L505.534 505.63L89.904 505.63z" stroke="none" fill="#DAEEF3" fill-rule="evenodd" /><g clip-path="url(#51)"></g><g clip-path="url(#52)"></g><g clip-path="url(#53)"></g><path transform="matrix(1 0 0 -1 0 841)" d="M89.904 466.75L505.534 466.75L505.534 466.75L505.534 486.19L505.534 486.19L89.904 486.19z" stroke="none" fill="#DAEEF3" fill-rule="evenodd" /><g clip-path="url(#54)"></g><g clip-path="url(#55)"></g><g clip-path="url(#56)"></g><path transform="matrix(1 0 0 -1 0 841)" d="M89.904 447.43L505.534 447.43L505.534 447.43L505.534 466.75L505.534 466.75L89.904 466.75z" stroke="none" fill="#DAEEF3" fill-rule="evenodd" /><g clip-path="url(#57)"></g><g clip-path="url(#58)"></g><g clip-path="url(#59)"></g><path transform="matrix(1 0 0 -1 0 841)" d="M89.904 427.99L505.534 427.99L505.534 427.99L505.534 447.43L505.534 447.43L89.904 447.43z" stroke="none" fill="#DAEEF3" fill-rule="evenodd" /><g clip-path="url(#60)"></g><g clip-path="url(#61)"></g><g clip-path="url(#62)"></g><path transform="matrix(1 0 0 -1 0 841)" d="M89.904 408.55L505.534 408.55L505.534 408.55L505.534 427.99L505.534 427.99L89.904 427.99z" stroke="none" fill="#DAEEF3" fill-rule="evenodd" /><g clip-path="url(#63)"></g><g clip-path="url(#64)"></g><g clip-path="url(#65)"></g><path transform="matrix(1 0 0 -1 0 841)" d="M89.904 389.23L505.534 389.23L505.534 389.23L505.534 408.55L505.534 408.55L89.904 408.55z" stroke="none" fill="#DAEEF3" fill-rule="evenodd" /><g clip-path="url(#66)"></g><g clip-path="url(#67)"></g><g clip-path="url(#68)"></g><path transform="matrix(1 0 0 -1 0 841)" d="M89.904 369.77L505.534 369.77L505.534 369.77L505.534 389.234L505.534 389.234L89.904 389.234z" stroke="none" fill="#DAEEF3" fill-rule="evenodd" /><g clip-path="url(#69)"></g><g clip-path="url(#70)"></g><g clip-path="url(#71)"></g><path transform="matrix(1 0 0 -1 0 841)" d="M89.904 350.33L505.534 350.33L505.534 350.33L505.534 369.77L505.534 369.77L89.904 369.77z" stroke="none" fill="#DAEEF3" fill-rule="evenodd" /><g clip-path="url(#72)"></g><g clip-path="url(#73)"></g><g clip-path="url(#74)"></g><path transform="matrix(1 0 0 -1 0 841)" d="M89.904 331.01L505.534 331.01L505.534 331.01L505.534 350.33L505.534 350.33L89.904 350.33z" stroke="none" fill="#DAEEF3" fill-rule="evenodd" /><g clip-path="url(#75)"></g><g clip-path="url(#76)"></g><g clip-path="url(#77)"></g><path transform="matrix(1 0 0 -1 0 841)" d="M89.904 311.57L505.534 311.57L505.534 311.57L505.534 331.01L505.534 331.01L89.904 331.01z" stroke="none" fill="#DAEEF3" fill-rule="evenodd" /><g clip-path="url(#78)"></g><g clip-path="url(#79)"></g><g clip-path="url(#80)"></g><path transform="matrix(1 0 0 -1 0 841)" d="M89.904 292.13L505.534 292.13L505.534 292.13L505.534 311.57L505.534 311.57L89.904 311.57z" stroke="none" fill="#DAEEF3" fill-rule="evenodd" /><g clip-path="url(#81)"></g><g clip-path="url(#82)"></g><g clip-path="url(#83)"></g><path transform="matrix(1 0 0 -1 0 841)" d="M89.904 272.81L505.534 272.81L505.534 272.81L505.534 292.13L505.534 292.13L89.904 292.13z" stroke="none" fill="#DAEEF3" fill-rule="evenodd" /><g clip-path="url(#84)"></g><g clip-path="url(#85)"></g><g clip-path="url(#86)"></g><path transform="matrix(1 0 0 -1 0 841)" d="M89.904 253.37L505.534 253.37L505.534 253.37L505.534 272.81L505.534 272.81L89.904 272.81z" stroke="none" fill="#DAEEF3" fill-rule="evenodd" /><g clip-path="url(#87)"></g><g clip-path="url(#88)"></g><g clip-path="url(#89)"></g><path transform="matrix(1 0 0 -1 0 841)" d="M89.904 233.93L505.534 233.93L505.534 233.93L505.534 253.37L505.534 253.37L89.904 253.37z" stroke="none" fill="#DAEEF3" fill-rule="evenodd" /><g clip-path="url(#90)"></g><g clip-path="url(#91)"></g><g clip-path="url(#92)"></g><path transform="matrix(1 0 0 -1 0 841)" d="M89.904 214.61L505.534 214.61L505.534 214.61L505.534 233.93L505.534 233.93L89.904 233.93z" stroke="none" fill="#DAEEF3" fill-rule="evenodd" /><g clip-path="url(#93)"></g><g clip-path="url(#94)"></g><g clip-path="url(#95)"></g><g clip-path="url(#96)"></g><path transform="matrix(1 0 0 -1 0 841)" d="M89.904 195.17L505.534 195.17L505.534 195.17L505.534 214.61L505.534 214.61L89.904 214.61z" stroke="none" fill="#DAEEF3" fill-rule="evenodd" /><g clip-path="url(#97)"></g><g clip-path="url(#98)"></g><g clip-path="url(#99)"></g><path transform="matrix(1 0 0 -1 0 841)" d="M89.904 175.7L505.534 175.7L505.534 175.7L505.534 195.164L505.534 195.164L89.904 195.164z" stroke="none" fill="#DAEEF3" fill-rule="evenodd" /><g clip-path="url(#100)"></g><g clip-path="url(#101)"></g><g clip-path="url(#102)"></g><path transform="matrix(1 0 0 -1 0 841)" d="M89.904 156.38L505.534 156.38L505.534 156.38L505.534 175.7L505.534 175.7L89.904 175.7z" stroke="none" fill="#DAEEF3" fill-rule="evenodd" /><g clip-path="url(#103)"></g><g clip-path="url(#104)"></g><g clip-path="url(#105)"></g><path transform="matrix(1 0 0 -1 0 841)" d="M89.904 136.94L505.534 136.94L505.534 136.94L505.534 156.38L505.534 156.38L89.904 156.38z" stroke="none" fill="#DAEEF3" fill-rule="evenodd" /><g clip-path="url(#106)"></g><g clip-path="url(#107)"></g><g clip-path="url(#108)"></g><path transform="matrix(1 0 0 -1 0 841)" d="M89.904 117.62L505.534 117.62L505.534 117.62L505.534 136.94L505.534 136.94L89.904 136.94z" stroke="none" fill="#DAEEF3" fill-rule="evenodd" /><g clip-path="url(#109)"></g><g clip-path="url(#110)"></g><g clip-path="url(#111)"></g><path transform="matrix(1 0 0 -1 0 841)" d="M89.904 98.184L505.534 98.184L505.534 98.184L505.534 117.624L505.534 117.624L89.904 117.624z" stroke="none" fill="#DAEEF3" fill-rule="evenodd" /><g clip-path="url(#112)"></g><g clip-path="url(#113)"></g><g clip-path="url(#114)"></g></g><path transform="matrix(1 0 0 -1 0 841)" d="M84.264 626.74L84.744 626.74L84.744 626.74L84.744 627.22L84.744 627.22L84.264 627.22z" stroke="none" fill="#000000" fill-rule="evenodd" /><path transform="matrix(1 0 0 -1 0 841)" d="M84.744 626.74L510.694 626.74L510.694 626.74L510.694 627.22L510.694 627.22L84.744 627.22z" stroke="none" fill="#000000" fill-rule="evenodd" /><path transform="matrix(1 0 0 -1 0 841)" d="M510.7 626.74L511.18 626.74L511.18 626.74L511.18 627.22L511.18 627.22L510.7 627.22z" stroke="none" fill="#000000" fill-rule="evenodd" /><path transform="matrix(1 0 0 -1 0 841)" d="M84.264 98.184L84.744 98.184L84.744 98.184L84.744 626.734L84.744 626.734L84.264 626.734z" stroke="none" fill="#000000" fill-rule="evenodd" /><path transform="matrix(1 0 0 -1 0 841)" d="M84.264 97.704L84.744 97.704L84.744 97.704L84.744 98.18398L84.744 98.18398L84.264 98.18398z" stroke="none" fill="#000000" fill-rule="evenodd" /><path transform="matrix(1 0 0 -1 0 841)" d="M84.264 97.704L84.744 97.704L84.744 97.704L84.744 98.18398L84.744 98.18398L84.264 98.18398z" stroke="none" fill="#000000" fill-rule="evenodd" /><path transform="matrix(1 0 0 -1 0 841)" d="M84.744 97.704L510.694 97.704L510.694 97.704L510.694 98.18398L510.694 98.18398L84.744 98.18398z" stroke="none" fill="#000000" fill-rule="evenodd" /><path transform="matrix(1 0 0 -1 0 841)" d="M510.7 98.184L511.18 98.184L511.18 98.184L511.18 626.734L511.18 626.734L510.7 626.734z" stroke="none" fill="#000000" fill-rule="evenodd" /><path transform="matrix(1 0 0 -1 0 841)" d="M510.7 97.704L511.18 97.704L511.18 97.704L511.18 98.18398L511.18 98.18398L510.7 98.18398z" stroke="none" fill="#000000" fill-rule="evenodd" /><path transform="matrix(1 0 0 -1 0 841)" d="M510.7 97.704L511.18 97.704L511.18 97.704L511.18 98.18398L511.18 98.18398L510.7 98.18398z" stroke="none" fill="#000000" fill-rule="evenodd" /></g></g></g></svg>