<svg xmlns="http://www.w3.org/2000/svg" xmlns:xlink="http://www.w3.org/1999/xlink" id="body_22" preserveAspectRatio="xMinYMin meet" viewBox="0 0 793 1121"><defs><clipPath id="1"><path d="M0 841L0 -0.9199829L0 -0.9199829L595.32 -0.9199829L595.32 -0.9199829L595.32 841L595.32 841L0 841z" /></clipPath><clipPath id="2"><path d="M0.00125 841.0914L595.4112 841.0914L595.4112 841.0914L595.4112 -0.9186401L595.4112 -0.9186401L0.00125 -0.9186401z" /></clipPath><clipPath id="3"><path d="M295.13 780.251L305.21 780.251L305.21 780.251L305.21 768.011L305.21 768.011L295.13 768.011z" /></clipPath><clipPath id="4"><path d="M295.13 780.256L305.21 780.256L305.21 780.256L305.21 768.016L305.21 768.016L295.13 768.016z" /></clipPath><clipPath id="5"><path d="M295.13 780.256L305.21 780.256L305.21 780.256L305.21 768.016L305.21 768.016L295.13 768.016z" /></clipPath><clipPath id="6"><path d="M84.751 296.37L171.991 296.37L171.991 296.37L171.991 250.515L171.991 250.515L84.751 250.515z" /></clipPath><clipPath id="7"><path d="M84.744 296.37L171.984 296.37L171.984 296.37L171.984 250.506L171.984 250.506L84.744 250.506z" /></clipPath><clipPath id="8"><path d="M84.744 296.37L171.984 296.37L171.984 296.37L171.984 250.506L171.984 250.506L84.744 250.506z" /></clipPath><clipPath id="9"><path d="M172.59 296.37L221.205 296.37L221.205 296.37L221.205 250.515L221.205 250.515L172.59 250.515z" /></clipPath><clipPath id="10"><path d="M172.58 296.37L221.204 296.37L221.204 296.37L221.204 250.506L221.204 250.506L172.58 250.506z" /></clipPath><clipPath id="11"><path d="M172.58 296.37L221.204 296.37L221.204 296.37L221.204 250.506L221.204 250.506L172.58 250.506z" /></clipPath><clipPath id="12"><path d="M221.69 296.37L256.85 296.37L256.85 296.37L256.85 250.515L256.85 250.515L221.69 250.515z" /></clipPath><clipPath id="13"><path d="M221.69 296.37L256.85 296.37L256.85 296.37L256.85 250.506L256.85 250.506L221.69 250.506z" /></clipPath><clipPath id="14"><path d="M221.69 296.37L256.85 296.37L256.85 296.37L256.85 250.506L256.85 250.506L221.69 250.506z" /></clipPath><clipPath id="15"><path d="M221.69 296.37L256.85 296.37L256.85 296.37L256.85 250.506L256.85 250.506L221.69 250.506z" /></clipPath><clipPath id="16"><path d="M257.33 296.37L338.6 296.37L338.6 296.37L338.6 250.515L338.6 250.515L257.33 250.515z" /></clipPath><clipPath id="17"><path d="M257.33 296.37L338.594 296.37L338.594 296.37L338.594 250.506L338.594 250.506L257.33 250.506z" /></clipPath><clipPath id="18"><path d="M257.33 296.37L338.594 296.37L338.594 296.37L338.594 250.506L338.594 250.506L257.33 250.506z" /></clipPath><clipPath id="19"><path d="M339.08 296.37L510.7 296.37L510.7 296.37L510.7 250.515L510.7 250.515L339.08 250.515z" /></clipPath><clipPath id="20"><path d="M339.07 296.37L510.69 296.37L510.69 296.37L510.69 250.506L510.69 250.506L339.07 250.506z" /></clipPath><clipPath id="21"><path d="M339.07 296.37L510.69 296.37L510.69 296.37L510.69 250.506L510.69 250.506L339.07 250.506z" /></clipPath><clipPath id="22"><path d="M84.751 324.45L171.991 324.45L171.991 324.45L171.991 296.85L171.991 296.85L84.751 296.85z" /></clipPath><clipPath id="23"><path d="M84.744 324.45L171.984 324.45L171.984 324.45L171.984 296.85L171.984 296.85L84.744 296.85z" /></clipPath><clipPath id="24"><path d="M84.744 324.45L171.984 324.45L171.984 324.45L171.984 296.85L171.984 296.85L84.744 296.85z" /></clipPath><clipPath id="25"><path d="M172.59 324.45L221.205 324.45L221.205 324.45L221.205 296.85L221.205 296.85L172.59 296.85z" /></clipPath><clipPath id="26"><path d="M172.58 324.45L221.204 324.45L221.204 324.45L221.204 296.85L221.204 296.85L172.58 296.85z" /></clipPath><clipPath id="27"><path d="M172.58 324.45L221.204 324.45L221.204 324.45L221.204 296.85L221.204 296.85L172.58 296.85z" /></clipPath><clipPath id="28"><path d="M221.69 324.45L256.85 324.45L256.85 324.45L256.85 296.85L256.85 296.85L221.69 296.85z" /></clipPath><clipPath id="29"><path d="M221.69 324.45L256.85 324.45L256.85 324.45L256.85 296.85L256.85 296.85L221.69 296.85z" /></clipPath><clipPath id="30"><path d="M221.69 324.45L256.85 324.45L256.85 324.45L256.85 296.85L256.85 296.85L221.69 296.85z" /></clipPath><clipPath id="31"><path d="M257.33 324.45L338.6 324.45L338.6 324.45L338.6 296.85L338.6 296.85L257.33 296.85z" /></clipPath><clipPath id="32"><path d="M257.33 324.45L338.594 324.45L338.594 324.45L338.594 296.85L338.594 296.85L257.33 296.85z" /></clipPath><clipPath id="33"><path d="M339.08 324.45L510.7 324.45L510.7 324.45L510.7 296.85L510.7 296.85L339.08 296.85z" /></clipPath><clipPath id="34"><path d="M339.07 324.45L510.69 324.45L510.69 324.45L510.69 296.85L510.69 296.85L339.07 296.85z" /></clipPath><clipPath id="35"><path d="M339.07 324.45L510.69 324.45L510.69 324.45L510.69 296.85L510.69 296.85L339.07 296.85z" /></clipPath><clipPath id="36"><path d="M339.07 324.45L510.69 324.45L510.69 324.45L510.69 296.85L510.69 296.85L339.07 296.85z" /></clipPath><clipPath id="37"><path d="M84.751 361.29L171.991 361.29L171.991 361.29L171.991 324.93L171.991 324.93L84.751 324.93z" /></clipPath><clipPath id="38"><path d="M84.744 361.29L171.984 361.29L171.984 361.29L171.984 324.93L171.984 324.93L84.744 324.93z" /></clipPath><clipPath id="39"><path d="M84.744 361.29L171.984 361.29L171.984 361.29L171.984 324.93L171.984 324.93L84.744 324.93z" /></clipPath><clipPath id="40"><path d="M172.59 361.29L221.205 361.29L221.205 361.29L221.205 324.93L221.205 324.93L172.59 324.93z" /></clipPath><clipPath id="41"><path d="M172.58 361.29L221.204 361.29L221.204 361.29L221.204 324.93L221.204 324.93L172.58 324.93z" /></clipPath><clipPath id="42"><path d="M172.58 361.29L221.204 361.29L221.204 361.29L221.204 324.93L221.204 324.93L172.58 324.93z" /></clipPath><clipPath id="43"><path d="M221.69 361.29L256.85 361.29L256.85 361.29L256.85 324.93L256.85 324.93L221.69 324.93z" /></clipPath><clipPath id="44"><path d="M221.69 361.29L256.85 361.29L256.85 361.29L256.85 324.93L256.85 324.93L221.69 324.93z" /></clipPath><clipPath id="45"><path d="M221.69 361.29L256.85 361.29L256.85 361.29L256.85 324.93L256.85 324.93L221.69 324.93z" /></clipPath><clipPath id="46"><path d="M257.33 361.29L338.6 361.29L338.6 361.29L338.6 324.93L338.6 324.93L257.33 324.93z" /></clipPath><clipPath id="47"><path d="M257.33 361.29L338.594 361.29L338.594 361.29L338.594 324.93L338.594 324.93L257.33 324.93z" /></clipPath><clipPath id="48"><path d="M257.33 361.29L338.594 361.29L338.594 361.29L338.594 324.93L338.594 324.93L257.33 324.93z" /></clipPath><clipPath id="49"><path d="M339.08 361.29L510.7 361.29L510.7 361.29L510.7 324.93L510.7 324.93L339.08 324.93z" /></clipPath><clipPath id="50"><path d="M339.07 361.29L510.69 361.29L510.69 361.29L510.69 324.93L510.69 324.93L339.07 324.93z" /></clipPath><clipPath id="51"><path d="M339.07 361.29L510.69 361.29L510.69 361.29L510.69 324.93L510.69 324.93L339.07 324.93z" /></clipPath><clipPath id="52"><path d="M339.07 361.29L510.69 361.29L510.69 361.29L510.69 324.93L510.69 324.93L339.07 324.93z" /></clipPath><clipPath id="53"><path d="M339.07 361.29L510.69 361.29L510.69 361.29L510.69 324.93L510.69 324.93L339.07 324.93z" /></clipPath><clipPath id="54"><path d="M339.07 361.29L510.69 361.29L510.69 361.29L510.69 324.93L510.69 324.93L339.07 324.93z" /></clipPath><clipPath id="55"><path d="M84.751 389.49L171.991 389.49L171.991 389.49L171.991 361.77L171.991 361.77L84.751 361.77z" /></clipPath><clipPath id="56"><path d="M84.744 389.49L171.984 389.49L171.984 389.49L171.984 361.77L171.984 361.77L84.744 361.77z" /></clipPath><clipPath id="57"><path d="M84.744 389.49L171.984 389.49L171.984 389.49L171.984 361.77L171.984 361.77L84.744 361.77z" /></clipPath><clipPath id="58"><path d="M172.59 389.49L221.205 389.49L221.205 389.49L221.205 361.77L221.205 361.77L172.59 361.77z" /></clipPath><clipPath id="59"><path d="M172.58 389.49L221.204 389.49L221.204 389.49L221.204 361.77L221.204 361.77L172.58 361.77z" /></clipPath><clipPath id="60"><path d="M172.58 389.49L221.204 389.49L221.204 389.49L221.204 361.77L221.204 361.77L172.58 361.77z" /></clipPath><clipPath id="61"><path d="M221.69 389.49L256.85 389.49L256.85 389.49L256.85 361.77L256.85 361.77L221.69 361.77z" /></clipPath><clipPath id="62"><path d="M221.69 389.49L256.85 389.49L256.85 389.49L256.85 361.77L256.85 361.77L221.69 361.77z" /></clipPath><clipPath id="63"><path d="M221.69 389.49L256.85 389.49L256.85 389.49L256.85 361.77L256.85 361.77L221.69 361.77z" /></clipPath><clipPath id="64"><path d="M257.33 389.49L338.6 389.49L338.6 389.49L338.6 361.77L338.6 361.77L257.33 361.77z" /></clipPath><clipPath id="65"><path d="M257.33 389.49L338.594 389.49L338.594 389.49L338.594 361.77L338.594 361.77L257.33 361.77z" /></clipPath><clipPath id="66"><path d="M257.33 389.49L338.594 389.49L338.594 389.49L338.594 361.77L338.594 361.77L257.33 361.77z" /></clipPath><clipPath id="67"><path d="M257.33 389.49L338.594 389.49L338.594 389.49L338.594 361.77L338.594 361.77L257.33 361.77z" /></clipPath><clipPath id="68"><path d="M339.08 389.49L510.7 389.49L510.7 389.49L510.7 361.77L510.7 361.77L339.08 361.77z" /></clipPath><clipPath id="69"><path d="M339.07 389.49L510.69 389.49L510.69 389.49L510.69 361.77L510.69 361.77L339.07 361.77z" /></clipPath><clipPath id="70"><path d="M339.07 389.49L510.69 389.49L510.69 389.49L510.69 361.77L510.69 361.77L339.07 361.77z" /></clipPath><clipPath id="71"><path d="M339.07 389.49L510.69 389.49L510.69 389.49L510.69 361.77L510.69 361.77L339.07 361.77z" /></clipPath><clipPath id="72"><path d="M339.07 389.49L510.69 389.49L510.69 389.49L510.69 361.77L510.69 361.77L339.07 361.77z" /></clipPath><clipPath id="73"><path d="M84.751 417.57L171.991 417.57L171.991 417.57L171.991 389.97L171.991 389.97L84.751 389.97z" /></clipPath><clipPath id="74"><path d="M84.744 417.57L171.984 417.57L171.984 417.57L171.984 389.97L171.984 389.97L84.744 389.97z" /></clipPath><clipPath id="75"><path d="M84.744 417.57L171.984 417.57L171.984 417.57L171.984 389.97L171.984 389.97L84.744 389.97z" /></clipPath><clipPath id="76"><path d="M172.59 417.57L221.205 417.57L221.205 417.57L221.205 389.97L221.205 389.97L172.59 389.97z" /></clipPath><clipPath id="77"><path d="M172.58 417.57L221.204 417.57L221.204 417.57L221.204 389.97L221.204 389.97L172.58 389.97z" /></clipPath><clipPath id="78"><path d="M172.58 417.57L221.204 417.57L221.204 417.57L221.204 389.97L221.204 389.97L172.58 389.97z" /></clipPath><clipPath id="79"><path d="M221.69 417.57L256.85 417.57L256.85 417.57L256.85 389.97L256.85 389.97L221.69 389.97z" /></clipPath><clipPath id="80"><path d="M221.69 417.57L256.85 417.57L256.85 417.57L256.85 389.97L256.85 389.97L221.69 389.97z" /></clipPath><clipPath id="81"><path d="M221.69 417.57L256.85 417.57L256.85 417.57L256.85 389.97L256.85 389.97L221.69 389.97z" /></clipPath><clipPath id="82"><path d="M257.33 417.57L338.6 417.57L338.6 417.57L338.6 389.97L338.6 389.97L257.33 389.97z" /></clipPath><clipPath id="83"><path d="M257.33 417.57L338.594 417.57L338.594 417.57L338.594 389.97L338.594 389.97L257.33 389.97z" /></clipPath><clipPath id="84"><path d="M257.33 417.57L338.594 417.57L338.594 417.57L338.594 389.97L338.594 389.97L257.33 389.97z" /></clipPath><clipPath id="85"><path d="M339.08 417.57L510.7 417.57L510.7 417.57L510.7 389.97L510.7 389.97L339.08 389.97z" /></clipPath><clipPath id="86"><path d="M339.07 417.57L510.69 417.57L510.69 417.57L510.69 389.97L510.69 389.97L339.07 389.97z" /></clipPath><clipPath id="87"><path d="M339.07 417.57L510.69 417.57L510.69 417.57L510.69 389.97L510.69 389.97L339.07 389.97z" /></clipPath><clipPath id="88"><path d="M84.751 445.77L171.991 445.77L171.991 445.77L171.991 418.17L171.991 418.17L84.751 418.17z" /></clipPath><clipPath id="89"><path d="M84.744 445.77L171.984 445.77L171.984 445.77L171.984 418.17L171.984 418.17L84.744 418.17z" /></clipPath><clipPath id="90"><path d="M84.744 445.77L171.984 445.77L171.984 445.77L171.984 418.17L171.984 418.17L84.744 418.17z" /></clipPath><clipPath id="91"><path d="M172.59 445.77L221.205 445.77L221.205 445.77L221.205 418.17L221.205 418.17L172.59 418.17z" /></clipPath><clipPath id="92"><path d="M172.58 445.77L221.204 445.77L221.204 445.77L221.204 418.17L221.204 418.17L172.58 418.17z" /></clipPath><clipPath id="93"><path d="M172.58 445.77L221.204 445.77L221.204 445.77L221.204 418.17L221.204 418.17L172.58 418.17z" /></clipPath><clipPath id="94"><path d="M221.69 445.77L256.85 445.77L256.85 445.77L256.85 418.17L256.85 418.17L221.69 418.17z" /></clipPath><clipPath id="95"><path d="M221.69 445.77L256.85 445.77L256.85 445.77L256.85 418.17L256.85 418.17L221.69 418.17z" /></clipPath><clipPath id="96"><path d="M221.69 445.77L256.85 445.77L256.85 445.77L256.85 418.17L256.85 418.17L221.69 418.17z" /></clipPath><clipPath id="97"><path d="M257.33 445.77L338.6 445.77L338.6 445.77L338.6 418.17L338.6 418.17L257.33 418.17z" /></clipPath><clipPath id="98"><path d="M257.33 445.77L338.594 445.77L338.594 445.77L338.594 418.17L338.594 418.17L257.33 418.17z" /></clipPath><clipPath id="99"><path d="M257.33 445.77L338.594 445.77L338.594 445.77L338.594 418.17L338.594 418.17L257.33 418.17z" /></clipPath><clipPath id="100"><path d="M339.08 445.77L510.7 445.77L510.7 445.77L510.7 418.17L510.7 418.17L339.08 418.17z" /></clipPath><clipPath id="101"><path d="M339.07 445.77L510.69 445.77L510.69 445.77L510.69 418.17L510.69 418.17L339.07 418.17z" /></clipPath><clipPath id="102"><path d="M339.07 445.77L510.69 445.77L510.69 445.77L510.69 418.17L510.69 418.17L339.07 418.17z" /></clipPath><clipPath id="103"><path d="M84.751 500.52L171.991 500.52L171.991 500.52L171.991 446.25L171.991 446.25L84.751 446.25z" /></clipPath><clipPath id="104"><path d="M84.744 500.51L171.984 500.51L171.984 500.51L171.984 446.246L171.984 446.246L84.744 446.246z" /></clipPath><clipPath id="105"><path d="M84.744 500.51L171.984 500.51L171.984 500.51L171.984 446.246L171.984 446.246L84.744 446.246z" /></clipPath><clipPath id="106"><path d="M172.59 500.52L221.205 500.52L221.205 500.52L221.205 446.25L221.205 446.25L172.59 446.25z" /></clipPath><clipPath id="107"><path d="M172.58 500.51L221.204 500.51L221.204 500.51L221.204 446.246L221.204 446.246L172.58 446.246z" /></clipPath><clipPath id="108"><path d="M172.58 500.51L221.204 500.51L221.204 500.51L221.204 446.246L221.204 446.246L172.58 446.246z" /></clipPath><clipPath id="109"><path d="M221.69 500.52L256.85 500.52L256.85 500.52L256.85 446.25L256.85 446.25L221.69 446.25z" /></clipPath><clipPath id="110"><path d="M221.69 500.51L256.85 500.51L256.85 500.51L256.85 446.246L256.85 446.246L221.69 446.246z" /></clipPath><clipPath id="111"><path d="M221.69 500.51L256.85 500.51L256.85 500.51L256.85 446.246L256.85 446.246L221.69 446.246z" /></clipPath><clipPath id="112"><path d="M257.33 500.52L338.6 500.52L338.6 500.52L338.6 446.25L338.6 446.25L257.33 446.25z" /></clipPath><clipPath id="113"><path d="M257.33 500.51L338.594 500.51L338.594 500.51L338.594 446.246L338.594 446.246L257.33 446.246z" /></clipPath><clipPath id="114"><path d="M339.08 500.52L510.7 500.52L510.7 500.52L510.7 446.25L510.7 446.25L339.08 446.25z" /></clipPath><clipPath id="115"><path d="M339.07 500.51L510.69 500.51L510.69 500.51L510.69 446.246L510.69 446.246L339.07 446.246z" /></clipPath><clipPath id="116"><path d="M339.07 500.51L510.69 500.51L510.69 500.51L510.69 446.246L510.69 446.246L339.07 446.246z" /></clipPath><clipPath id="117"><path d="M339.07 500.51L510.69 500.51L510.69 500.51L510.69 446.246L510.69 446.246L339.07 446.246z" /></clipPath><clipPath id="118"><path d="M339.07 500.51L510.69 500.51L510.69 500.51L510.69 446.246L510.69 446.246L339.07 446.246z" /></clipPath><clipPath id="119"><path d="M339.07 500.51L510.69 500.51L510.69 500.51L510.69 446.246L510.69 446.246L339.07 446.246z" /></clipPath><clipPath id="120"><path d="M339.07 500.51L510.69 500.51L510.69 500.51L510.69 446.246L510.69 446.246L339.07 446.246z" /></clipPath><clipPath id="121"><path d="M339.07 500.51L510.69 500.51L510.69 500.51L510.69 446.246L510.69 446.246L339.07 446.246z" /></clipPath><clipPath id="122"><path d="M339.07 500.51L510.69 500.51L510.69 500.51L510.69 446.246L510.69 446.246L339.07 446.246z" /></clipPath><clipPath id="123"><path d="M339.07 500.51L510.69 500.51L510.69 500.51L510.69 446.246L510.69 446.246L339.07 446.246z" /></clipPath><clipPath id="124"><path d="M339.07 500.51L510.69 500.51L510.69 500.51L510.69 446.246L510.69 446.246L339.07 446.246z" /></clipPath><clipPath id="125"><path d="M339.07 500.51L510.69 500.51L510.69 500.51L510.69 446.246L510.69 446.246L339.07 446.246z" /></clipPath><clipPath id="126"><path d="M339.07 500.51L510.69 500.51L510.69 500.51L510.69 446.246L510.69 446.246L339.07 446.246z" /></clipPath><clipPath id="127"><path d="M339.07 500.51L510.69 500.51L510.69 500.51L510.69 446.246L510.69 446.246L339.07 446.246z" /></clipPath><clipPath id="128"><path d="M339.07 500.51L510.69 500.51L510.69 500.51L510.69 446.246L510.69 446.246L339.07 446.246z" /></clipPath><clipPath id="129"><path d="M84.751 528.72L171.991 528.72L171.991 528.72L171.991 501L171.991 501L84.751 501z" /></clipPath><clipPath id="130"><path d="M84.744 528.71L171.984 528.71L171.984 528.71L171.984 500.99L171.984 500.99L84.744 500.99z" /></clipPath><clipPath id="131"><path d="M84.744 528.71L171.984 528.71L171.984 528.71L171.984 500.99L171.984 500.99L84.744 500.99z" /></clipPath><clipPath id="132"><path d="M172.59 528.72L221.205 528.72L221.205 528.72L221.205 501L221.205 501L172.59 501z" /></clipPath><clipPath id="133"><path d="M172.58 528.71L221.204 528.71L221.204 528.71L221.204 500.99L221.204 500.99L172.58 500.99z" /></clipPath><clipPath id="134"><path d="M172.58 528.71L221.204 528.71L221.204 528.71L221.204 500.99L221.204 500.99L172.58 500.99z" /></clipPath><clipPath id="135"><path d="M221.69 528.72L256.85 528.72L256.85 528.72L256.85 501L256.85 501L221.69 501z" /></clipPath><clipPath id="136"><path d="M221.69 528.71L256.85 528.71L256.85 528.71L256.85 500.99L256.85 500.99L221.69 500.99z" /></clipPath><clipPath id="137"><path d="M221.69 528.71L256.85 528.71L256.85 528.71L256.85 500.99L256.85 500.99L221.69 500.99z" /></clipPath><clipPath id="138"><path d="M257.33 528.72L338.6 528.72L338.6 528.72L338.6 501L338.6 501L257.33 501z" /></clipPath><clipPath id="139"><path d="M257.33 528.71L338.594 528.71L338.594 528.71L338.594 500.99L338.594 500.99L257.33 500.99z" /></clipPath><clipPath id="140"><path d="M257.33 528.71L338.594 528.71L338.594 528.71L338.594 500.99L338.594 500.99L257.33 500.99z" /></clipPath><clipPath id="141"><path d="M339.08 528.72L510.7 528.72L510.7 528.72L510.7 501L510.7 501L339.08 501z" /></clipPath><clipPath id="142"><path d="M339.07 528.71L510.69 528.71L510.69 528.71L510.69 500.99L510.69 500.99L339.07 500.99z" /></clipPath><clipPath id="143"><path d="M339.07 528.71L510.69 528.71L510.69 528.71L510.69 500.99L510.69 500.99L339.07 500.99z" /></clipPath><clipPath id="144"><path d="M339.07 528.71L510.69 528.71L510.69 528.71L510.69 500.99L510.69 500.99L339.07 500.99z" /></clipPath><clipPath id="145"><path d="M84.751 556.92L171.991 556.92L171.991 556.92L171.991 529.2L171.991 529.2L84.751 529.2z" /></clipPath><clipPath id="146"><path d="M84.744 556.91L171.984 556.91L171.984 556.91L171.984 529.19L171.984 529.19L84.744 529.19z" /></clipPath><clipPath id="147"><path d="M84.744 556.91L171.984 556.91L171.984 556.91L171.984 529.19L171.984 529.19L84.744 529.19z" /></clipPath><clipPath id="148"><path d="M172.59 556.92L221.205 556.92L221.205 556.92L221.205 529.2L221.205 529.2L172.59 529.2z" /></clipPath><clipPath id="149"><path d="M172.58 556.91L221.204 556.91L221.204 556.91L221.204 529.19L221.204 529.19L172.58 529.19z" /></clipPath><clipPath id="150"><path d="M172.58 556.91L221.204 556.91L221.204 556.91L221.204 529.19L221.204 529.19L172.58 529.19z" /></clipPath><clipPath id="151"><path d="M221.69 556.92L256.85 556.92L256.85 556.92L256.85 529.2L256.85 529.2L221.69 529.2z" /></clipPath><clipPath id="152"><path d="M221.69 556.91L256.85 556.91L256.85 556.91L256.85 529.19L256.85 529.19L221.69 529.19z" /></clipPath><clipPath id="153"><path d="M221.69 556.91L256.85 556.91L256.85 556.91L256.85 529.19L256.85 529.19L221.69 529.19z" /></clipPath><clipPath id="154"><path d="M257.33 556.92L338.6 556.92L338.6 556.92L338.6 529.2L338.6 529.2L257.33 529.2z" /></clipPath><clipPath id="155"><path d="M257.33 556.91L338.594 556.91L338.594 556.91L338.594 529.19L338.594 529.19L257.33 529.19z" /></clipPath><clipPath id="156"><path d="M257.33 556.91L338.594 556.91L338.594 556.91L338.594 529.19L338.594 529.19L257.33 529.19z" /></clipPath><clipPath id="157"><path d="M339.08 556.92L510.7 556.92L510.7 556.92L510.7 529.2L510.7 529.2L339.08 529.2z" /></clipPath><clipPath id="158"><path d="M339.07 556.91L510.69 556.91L510.69 556.91L510.69 529.19L510.69 529.19L339.07 529.19z" /></clipPath><clipPath id="159"><path d="M339.07 556.91L510.69 556.91L510.69 556.91L510.69 529.19L510.69 529.19L339.07 529.19z" /></clipPath><clipPath id="160"><path d="M339.07 556.91L510.69 556.91L510.69 556.91L510.69 529.19L510.69 529.19L339.07 529.19z" /></clipPath><clipPath id="161"><path d="M339.07 556.91L510.69 556.91L510.69 556.91L510.69 529.19L510.69 529.19L339.07 529.19z" /></clipPath><clipPath id="162"><path d="M84.751 593.64L171.991 593.64L171.991 593.64L171.991 557.4L171.991 557.4L84.751 557.4z" /></clipPath><clipPath id="163"><path d="M84.744 593.63L171.984 593.63L171.984 593.63L171.984 557.39L171.984 557.39L84.744 557.39z" /></clipPath><clipPath id="164"><path d="M84.744 593.63L171.984 593.63L171.984 593.63L171.984 557.39L171.984 557.39L84.744 557.39z" /></clipPath><clipPath id="165"><path d="M172.59 593.64L221.205 593.64L221.205 593.64L221.205 557.4L221.205 557.4L172.59 557.4z" /></clipPath><clipPath id="166"><path d="M172.58 593.63L221.204 593.63L221.204 593.63L221.204 557.39L221.204 557.39L172.58 557.39z" /></clipPath><clipPath id="167"><path d="M172.58 593.63L221.204 593.63L221.204 593.63L221.204 557.39L221.204 557.39L172.58 557.39z" /></clipPath><clipPath id="168"><path d="M221.69 593.64L256.85 593.64L256.85 593.64L256.85 557.4L256.85 557.4L221.69 557.4z" /></clipPath><clipPath id="169"><path d="M221.69 593.63L256.85 593.63L256.85 593.63L256.85 557.39L256.85 557.39L221.69 557.39z" /></clipPath><clipPath id="170"><path d="M221.69 593.63L256.85 593.63L256.85 593.63L256.85 557.39L256.85 557.39L221.69 557.39z" /></clipPath><clipPath id="171"><path d="M257.33 593.64L338.6 593.64L338.6 593.64L338.6 557.4L338.6 557.4L257.33 557.4z" /></clipPath><clipPath id="172"><path d="M257.33 593.63L338.594 593.63L338.594 593.63L338.594 557.39L338.594 557.39L257.33 557.39z" /></clipPath><clipPath id="173"><path d="M339.08 593.64L510.7 593.64L510.7 593.64L510.7 557.4L510.7 557.4L339.08 557.4z" /></clipPath><clipPath id="174"><path d="M339.07 593.63L510.69 593.63L510.69 593.63L510.69 557.39L510.69 557.39L339.07 557.39z" /></clipPath><clipPath id="175"><path d="M339.07 593.63L510.69 593.63L510.69 593.63L510.69 557.39L510.69 557.39L339.07 557.39z" /></clipPath><clipPath id="176"><path d="M339.07 593.63L510.69 593.63L510.69 593.63L510.69 557.39L510.69 557.39L339.07 557.39z" /></clipPath><clipPath id="177"><path d="M339.07 593.63L510.69 593.63L510.69 593.63L510.69 557.39L510.69 557.39L339.07 557.39z" /></clipPath><clipPath id="178"><path d="M339.07 593.63L510.69 593.63L510.69 593.63L510.69 557.39L510.69 557.39L339.07 557.39z" /></clipPath><clipPath id="179"><path d="M339.07 593.63L510.69 593.63L510.69 593.63L510.69 557.39L510.69 557.39L339.07 557.39z" /></clipPath></defs><g transform="matrix(1.333333 0 0 1.333333 0 0)"><g><g clip-path="url(#1)"><path transform="matrix(1 0 0 -1 0 841)" d="M457.63 53.424L505.534 53.424L505.534 53.424L505.534 54.02404L505.534 54.02404L457.63 54.02404z" stroke="none" fill="#000000" fill-rule="evenodd" /><g clip-path="url(#2)"><path transform="matrix(1 0 0 -1 0 841)" d="M88.464 78.984L506.974 78.984L506.974 78.984L506.974 81.984L506.974 81.984L88.464 81.984z" stroke="none" fill="#000000" fill-rule="evenodd" /><path transform="matrix(1 0 0 -1 0 841)" d="M88.464 77.544L506.974 77.544L506.974 77.544L506.974 78.26397L506.974 78.26397L88.464 78.26397z" stroke="none" fill="#000000" fill-rule="evenodd" /></g><g clip-path="url(#3)"><g clip-path="url(#4)"></g><g clip-path="url(#5)"></g></g><path transform="matrix(1 0 0 -1 0 841)" d="M280.73 688.18L351.554 688.18L351.554 688.18L351.554 689.02L351.554 689.02L280.73 689.02z" stroke="none" fill="#000000" fill-rule="evenodd" /><path transform="matrix(1 0 0 -1 0 841)" d="M166.22 660.94L263.084 660.94L263.084 660.94L263.084 661.66L263.084 661.66L166.22 661.66z" stroke="none" fill="#000000" fill-rule="evenodd" /><path transform="matrix(1 0 0 -1 0 841)" d="M84.744 544.63L171.984 544.63L171.984 544.63L171.984 590.494L171.984 590.494L84.744 590.494z" stroke="none" fill="#0070C0" fill-rule="evenodd" /><g clip-path="url(#6)"><path transform="matrix(1 0 0 -1 0 841)" d="M89.904 562.9L166.824 562.9L166.824 562.9L166.824 590.5L166.824 590.5L89.904 590.5z" stroke="none" fill="#0070C0" fill-rule="evenodd" /><g clip-path="url(#7)"></g><g clip-path="url(#8)"></g></g><path transform="matrix(1 0 0 -1 0 841)" d="M172.58 544.63L221.204 544.63L221.204 544.63L221.204 590.494L221.204 590.494L172.58 590.494z" stroke="none" fill="#0070C0" fill-rule="evenodd" /><g clip-path="url(#9)"><path transform="matrix(1 0 0 -1 0 841)" d="M177.62 562.9L216.044 562.9L216.044 562.9L216.044 590.5L216.044 590.5L177.62 590.5z" stroke="none" fill="#0070C0" fill-rule="evenodd" /><g clip-path="url(#10)"></g><g clip-path="url(#11)"></g></g><path transform="matrix(1 0 0 -1 0 841)" d="M221.69 544.63L256.85 544.63L256.85 544.63L256.85 590.494L256.85 590.494L221.69 590.494z" stroke="none" fill="#0070C0" fill-rule="evenodd" /><g clip-path="url(#12)"><path transform="matrix(1 0 0 -1 0 841)" d="M226.85 567.58L251.69 567.58L251.69 567.58L251.69 590.5L251.69 590.5L226.85 590.5z" stroke="none" fill="#0070C0" fill-rule="evenodd" /><g clip-path="url(#13)"></g><path transform="matrix(1 0 0 -1 0 841)" d="M226.85 544.63L251.69 544.63L251.69 544.63L251.69 567.574L251.69 567.574L226.85 567.574z" stroke="none" fill="#0070C0" fill-rule="evenodd" /><g clip-path="url(#14)"></g><g clip-path="url(#15)"></g></g><path transform="matrix(1 0 0 -1 0 841)" d="M257.33 544.63L338.594 544.63L338.594 544.63L338.594 590.494L338.594 590.494L257.33 590.494z" stroke="none" fill="#0070C0" fill-rule="evenodd" /><g clip-path="url(#16)"><path transform="matrix(1 0 0 -1 0 841)" d="M262.49 562.9L333.41 562.9L333.41 562.9L333.41 590.5L333.41 590.5L262.49 590.5z" stroke="none" fill="#0070C0" fill-rule="evenodd" /><g clip-path="url(#17)"></g><g clip-path="url(#18)"></g></g><path transform="matrix(1 0 0 -1 0 841)" d="M339.07 544.63L510.69 544.63L510.69 544.63L510.69 590.494L510.69 590.494L339.07 590.494z" stroke="none" fill="#0070C0" fill-rule="evenodd" /><g clip-path="url(#19)"><path transform="matrix(1 0 0 -1 0 841)" d="M344.23 562.9L505.53 562.9L505.53 562.9L505.53 590.5L505.53 590.5L344.23 590.5z" stroke="none" fill="#0070C0" fill-rule="evenodd" /><g clip-path="url(#20)"></g><g clip-path="url(#21)"></g></g><path transform="matrix(1 0 0 -1 0 841)" d="M84.264 590.5L84.744 590.5L84.744 590.5L84.744 590.98L84.744 590.98L84.264 590.98z" stroke="none" fill="#000000" fill-rule="evenodd" /><path transform="matrix(1 0 0 -1 0 841)" d="M84.264 590.5L84.744 590.5L84.744 590.5L84.744 590.98L84.744 590.98L84.264 590.98z" stroke="none" fill="#000000" fill-rule="evenodd" /><path transform="matrix(1 0 0 -1 0 841)" d="M84.744 590.5L172.104 590.5L172.104 590.5L172.104 590.98L172.104 590.98L84.744 590.98z" stroke="none" fill="#000000" fill-rule="evenodd" /><path transform="matrix(1 0 0 -1 0 841)" d="M172.1 590.5L172.58 590.5L172.58 590.5L172.58 590.98L172.58 590.98L172.1 590.98z" stroke="none" fill="#000000" fill-rule="evenodd" /><path transform="matrix(1 0 0 -1 0 841)" d="M172.58 590.5L221.204 590.5L221.204 590.5L221.204 590.98L221.204 590.98L172.58 590.98z" stroke="none" fill="#000000" fill-rule="evenodd" /><path transform="matrix(1 0 0 -1 0 841)" d="M221.21 590.5L221.69 590.5L221.69 590.5L221.69 590.98L221.69 590.98L221.21 590.98z" stroke="none" fill="#000000" fill-rule="evenodd" /><path transform="matrix(1 0 0 -1 0 841)" d="M221.69 590.5L256.85 590.5L256.85 590.5L256.85 590.98L256.85 590.98L221.69 590.98z" stroke="none" fill="#000000" fill-rule="evenodd" /><path transform="matrix(1 0 0 -1 0 841)" d="M256.85 590.5L257.33 590.5L257.33 590.5L257.33 590.98L257.33 590.98L256.85 590.98z" stroke="none" fill="#000000" fill-rule="evenodd" /><path transform="matrix(1 0 0 -1 0 841)" d="M257.33 590.5L338.714 590.5L338.714 590.5L338.714 590.98L338.714 590.98L257.33 590.98z" stroke="none" fill="#000000" fill-rule="evenodd" /><path transform="matrix(1 0 0 -1 0 841)" d="M338.71 590.5L339.19 590.5L339.19 590.5L339.19 590.98L339.19 590.98L338.71 590.98z" stroke="none" fill="#000000" fill-rule="evenodd" /><path transform="matrix(1 0 0 -1 0 841)" d="M339.19 590.5L510.69 590.5L510.69 590.5L510.69 590.98L510.69 590.98L339.19 590.98z" stroke="none" fill="#000000" fill-rule="evenodd" /><path transform="matrix(1 0 0 -1 0 841)" d="M510.7 590.5L511.18 590.5L511.18 590.5L511.18 590.98L511.18 590.98L510.7 590.98z" stroke="none" fill="#000000" fill-rule="evenodd" /><path transform="matrix(1 0 0 -1 0 841)" d="M510.7 590.5L511.18 590.5L511.18 590.5L511.18 590.98L511.18 590.98L510.7 590.98z" stroke="none" fill="#000000" fill-rule="evenodd" /><path transform="matrix(1 0 0 -1 0 841)" d="M84.264 544.63L84.744 544.63L84.744 544.63L84.744 590.494L84.744 590.494L84.264 590.494z" stroke="none" fill="#000000" fill-rule="evenodd" /><path transform="matrix(1 0 0 -1 0 841)" d="M172.1 544.63L172.58 544.63L172.58 544.63L172.58 590.494L172.58 590.494L172.1 590.494z" stroke="none" fill="#000000" fill-rule="evenodd" /><path transform="matrix(1 0 0 -1 0 841)" d="M221.21 544.63L221.69 544.63L221.69 544.63L221.69 590.494L221.69 590.494L221.21 590.494z" stroke="none" fill="#000000" fill-rule="evenodd" /><path transform="matrix(1 0 0 -1 0 841)" d="M256.85 544.63L257.33 544.63L257.33 544.63L257.33 590.494L257.33 590.494L256.85 590.494z" stroke="none" fill="#000000" fill-rule="evenodd" /><path transform="matrix(1 0 0 -1 0 841)" d="M338.71 544.63L339.19 544.63L339.19 544.63L339.19 590.494L339.19 590.494L338.71 590.494z" stroke="none" fill="#000000" fill-rule="evenodd" /><path transform="matrix(1 0 0 -1 0 841)" d="M510.7 544.63L511.18 544.63L511.18 544.63L511.18 590.494L511.18 590.494L510.7 590.494z" stroke="none" fill="#000000" fill-rule="evenodd" /><path transform="matrix(1 0 0 -1 0 841)" d="M84.744 516.55L171.984 516.55L171.984 516.55L171.984 544.15L171.984 544.15L84.744 544.15z" stroke="none" fill="#DAEEF3" fill-rule="evenodd" /><g clip-path="url(#22)"><path transform="matrix(1 0 0 -1 0 841)" d="M89.904 517.63L166.824 517.63L166.824 517.63L166.824 544.15L166.824 544.15L89.904 544.15z" stroke="none" fill="#DAEEF3" fill-rule="evenodd" /><g clip-path="url(#23)"></g><g clip-path="url(#24)"></g></g><path transform="matrix(1 0 0 -1 0 841)" d="M172.58 516.55L221.204 516.55L221.204 516.55L221.204 544.15L221.204 544.15L172.58 544.15z" stroke="none" fill="#DAEEF3" fill-rule="evenodd" /><g clip-path="url(#25)"><path transform="matrix(1 0 0 -1 0 841)" d="M177.62 517.63L216.044 517.63L216.044 517.63L216.044 544.15L216.044 544.15L177.62 544.15z" stroke="none" fill="#DAEEF3" fill-rule="evenodd" /><g clip-path="url(#26)"></g><g clip-path="url(#27)"></g></g><path transform="matrix(1 0 0 -1 0 841)" d="M221.69 516.55L256.85 516.55L256.85 516.55L256.85 544.15L256.85 544.15L221.69 544.15z" stroke="none" fill="#DAEEF3" fill-rule="evenodd" /><g clip-path="url(#28)"><path transform="matrix(1 0 0 -1 0 841)" d="M226.85 516.55L251.69 516.55L251.69 516.55L251.69 544.15L251.69 544.15L226.85 544.15z" stroke="none" fill="#DAEEF3" fill-rule="evenodd" /><g clip-path="url(#29)"></g><g clip-path="url(#30)"></g></g><path transform="matrix(1 0 0 -1 0 841)" d="M257.33 516.55L338.594 516.55L338.594 516.55L338.594 544.15L338.594 544.15L257.33 544.15z" stroke="none" fill="#DAEEF3" fill-rule="evenodd" /><g clip-path="url(#31)"><path transform="matrix(1 0 0 -1 0 841)" d="M262.49 517.63L333.41 517.63L333.41 517.63L333.41 544.15L333.41 544.15L262.49 544.15z" stroke="none" fill="#DAEEF3" fill-rule="evenodd" /><g clip-path="url(#32)"></g></g><path transform="matrix(1 0 0 -1 0 841)" d="M339.07 516.55L510.69 516.55L510.69 516.55L510.69 544.15L510.69 544.15L339.07 544.15z" stroke="none" fill="#DAEEF3" fill-rule="evenodd" /><g clip-path="url(#33)"><path transform="matrix(1 0 0 -1 0 841)" d="M344.23 516.55L505.53 516.55L505.53 516.55L505.53 544.15L505.53 544.15L344.23 544.15z" stroke="none" fill="#DAEEF3" fill-rule="evenodd" /><g clip-path="url(#34)"></g><g clip-path="url(#35)"></g><g clip-path="url(#36)"></g></g><path transform="matrix(1 0 0 -1 0 841)" d="M84.264 544.15L84.744 544.15L84.744 544.15L84.744 544.63L84.744 544.63L84.264 544.63z" stroke="none" fill="#000000" fill-rule="evenodd" /><path transform="matrix(1 0 0 -1 0 841)" d="M84.744 544.15L172.104 544.15L172.104 544.15L172.104 544.63L172.104 544.63L84.744 544.63z" stroke="none" fill="#000000" fill-rule="evenodd" /><path transform="matrix(1 0 0 -1 0 841)" d="M172.1 544.15L172.58 544.15L172.58 544.15L172.58 544.63L172.58 544.63L172.1 544.63z" stroke="none" fill="#000000" fill-rule="evenodd" /><path transform="matrix(1 0 0 -1 0 841)" d="M172.58 544.15L221.204 544.15L221.204 544.15L221.204 544.63L221.204 544.63L172.58 544.63z" stroke="none" fill="#000000" fill-rule="evenodd" /><path transform="matrix(1 0 0 -1 0 841)" d="M221.21 544.15L221.69 544.15L221.69 544.15L221.69 544.63L221.69 544.63L221.21 544.63z" stroke="none" fill="#000000" fill-rule="evenodd" /><path transform="matrix(1 0 0 -1 0 841)" d="M221.69 544.15L256.85 544.15L256.85 544.15L256.85 544.63L256.85 544.63L221.69 544.63z" stroke="none" fill="#000000" fill-rule="evenodd" /><path transform="matrix(1 0 0 -1 0 841)" d="M256.85 544.15L257.33 544.15L257.33 544.15L257.33 544.63L257.33 544.63L256.85 544.63z" stroke="none" fill="#000000" fill-rule="evenodd" /><path transform="matrix(1 0 0 -1 0 841)" d="M257.33 544.15L338.714 544.15L338.714 544.15L338.714 544.63L338.714 544.63L257.33 544.63z" stroke="none" fill="#000000" fill-rule="evenodd" /><path transform="matrix(1 0 0 -1 0 841)" d="M338.71 544.15L339.19 544.15L339.19 544.15L339.19 544.63L339.19 544.63L338.71 544.63z" stroke="none" fill="#000000" fill-rule="evenodd" /><path transform="matrix(1 0 0 -1 0 841)" d="M339.19 544.15L510.69 544.15L510.69 544.15L510.69 544.63L510.69 544.63L339.19 544.63z" stroke="none" fill="#000000" fill-rule="evenodd" /><path transform="matrix(1 0 0 -1 0 841)" d="M510.7 544.15L511.18 544.15L511.18 544.15L511.18 544.63L511.18 544.63L510.7 544.63z" stroke="none" fill="#000000" fill-rule="evenodd" /><path transform="matrix(1 0 0 -1 0 841)" d="M84.264 516.55L84.744 516.55L84.744 516.55L84.744 544.15L84.744 544.15L84.264 544.15z" stroke="none" fill="#000000" fill-rule="evenodd" /><path transform="matrix(1 0 0 -1 0 841)" d="M172.1 516.55L172.58 516.55L172.58 516.55L172.58 544.15L172.58 544.15L172.1 544.15z" stroke="none" fill="#000000" fill-rule="evenodd" /><path transform="matrix(1 0 0 -1 0 841)" d="M221.21 516.55L221.69 516.55L221.69 516.55L221.69 544.15L221.69 544.15L221.21 544.15z" stroke="none" fill="#000000" fill-rule="evenodd" /><path transform="matrix(1 0 0 -1 0 841)" d="M256.85 516.55L257.33 516.55L257.33 516.55L257.33 544.15L257.33 544.15L256.85 544.15z" stroke="none" fill="#000000" fill-rule="evenodd" /><path transform="matrix(1 0 0 -1 0 841)" d="M338.71 516.55L339.19 516.55L339.19 516.55L339.19 544.15L339.19 544.15L338.71 544.15z" stroke="none" fill="#000000" fill-rule="evenodd" /><path transform="matrix(1 0 0 -1 0 841)" d="M510.7 516.55L511.18 516.55L511.18 516.55L511.18 544.15L511.18 544.15L510.7 544.15z" stroke="none" fill="#000000" fill-rule="evenodd" /><g clip-path="url(#37)"><g clip-path="url(#38)"></g><g clip-path="url(#39)"></g></g><g clip-path="url(#40)"><g clip-path="url(#41)"></g><g clip-path="url(#42)"></g></g><g clip-path="url(#43)"><g clip-path="url(#44)"></g><g clip-path="url(#45)"></g></g><g clip-path="url(#46)"><g clip-path="url(#47)"></g><g clip-path="url(#48)"></g></g><g clip-path="url(#49)"><g clip-path="url(#50)"></g><g clip-path="url(#51)"></g><g clip-path="url(#52)"></g><g clip-path="url(#53)"></g><g clip-path="url(#54)"></g></g><path transform="matrix(1 0 0 -1 0 841)" d="M84.264 516.07L84.744 516.07L84.744 516.07L84.744 516.55L84.744 516.55L84.264 516.55z" stroke="none" fill="#000000" fill-rule="evenodd" /><path transform="matrix(1 0 0 -1 0 841)" d="M84.744 516.07L172.104 516.07L172.104 516.07L172.104 516.55L172.104 516.55L84.744 516.55z" stroke="none" fill="#000000" fill-rule="evenodd" /><path transform="matrix(1 0 0 -1 0 841)" d="M172.1 516.07L172.58 516.07L172.58 516.07L172.58 516.55L172.58 516.55L172.1 516.55z" stroke="none" fill="#000000" fill-rule="evenodd" /><path transform="matrix(1 0 0 -1 0 841)" d="M172.58 516.07L221.204 516.07L221.204 516.07L221.204 516.55L221.204 516.55L172.58 516.55z" stroke="none" fill="#000000" fill-rule="evenodd" /><path transform="matrix(1 0 0 -1 0 841)" d="M221.21 516.07L221.69 516.07L221.69 516.07L221.69 516.55L221.69 516.55L221.21 516.55z" stroke="none" fill="#000000" fill-rule="evenodd" /><path transform="matrix(1 0 0 -1 0 841)" d="M221.69 516.07L256.85 516.07L256.85 516.07L256.85 516.55L256.85 516.55L221.69 516.55z" stroke="none" fill="#000000" fill-rule="evenodd" /><path transform="matrix(1 0 0 -1 0 841)" d="M256.85 516.07L257.33 516.07L257.33 516.07L257.33 516.55L257.33 516.55L256.85 516.55z" stroke="none" fill="#000000" fill-rule="evenodd" /><path transform="matrix(1 0 0 -1 0 841)" d="M257.33 516.07L338.714 516.07L338.714 516.07L338.714 516.55L338.714 516.55L257.33 516.55z" stroke="none" fill="#000000" fill-rule="evenodd" /><path transform="matrix(1 0 0 -1 0 841)" d="M338.71 516.07L339.19 516.07L339.19 516.07L339.19 516.55L339.19 516.55L338.71 516.55z" stroke="none" fill="#000000" fill-rule="evenodd" /><path transform="matrix(1 0 0 -1 0 841)" d="M339.19 516.07L510.69 516.07L510.69 516.07L510.69 516.55L510.69 516.55L339.19 516.55z" stroke="none" fill="#000000" fill-rule="evenodd" /><path transform="matrix(1 0 0 -1 0 841)" d="M510.7 516.07L511.18 516.07L511.18 516.07L511.18 516.55L511.18 516.55L510.7 516.55z" stroke="none" fill="#000000" fill-rule="evenodd" /><path transform="matrix(1 0 0 -1 0 841)" d="M84.264 479.71L84.744 479.71L84.744 479.71L84.744 516.07L84.744 516.07L84.264 516.07z" stroke="none" fill="#000000" fill-rule="evenodd" /><path transform="matrix(1 0 0 -1 0 841)" d="M172.1 479.71L172.58 479.71L172.58 479.71L172.58 516.07L172.58 516.07L172.1 516.07z" stroke="none" fill="#000000" fill-rule="evenodd" /><path transform="matrix(1 0 0 -1 0 841)" d="M221.21 479.71L221.69 479.71L221.69 479.71L221.69 516.07L221.69 516.07L221.21 516.07z" stroke="none" fill="#000000" fill-rule="evenodd" /><path transform="matrix(1 0 0 -1 0 841)" d="M256.85 479.71L257.33 479.71L257.33 479.71L257.33 516.07L257.33 516.07L256.85 516.07z" stroke="none" fill="#000000" fill-rule="evenodd" /><path transform="matrix(1 0 0 -1 0 841)" d="M338.71 479.71L339.19 479.71L339.19 479.71L339.19 516.07L339.19 516.07L338.71 516.07z" stroke="none" fill="#000000" fill-rule="evenodd" /><path transform="matrix(1 0 0 -1 0 841)" d="M510.7 479.71L511.18 479.71L511.18 479.71L511.18 516.07L511.18 516.07L510.7 516.07z" stroke="none" fill="#000000" fill-rule="evenodd" /><path transform="matrix(1 0 0 -1 0 841)" d="M84.744 451.51L171.984 451.51L171.984 451.51L171.984 479.23L171.984 479.23L84.744 479.23z" stroke="none" fill="#DAEEF3" fill-rule="evenodd" /><g clip-path="url(#55)"><path transform="matrix(1 0 0 -1 0 841)" d="M89.904 452.59L166.824 452.59L166.824 452.59L166.824 479.23L166.824 479.23L89.904 479.23z" stroke="none" fill="#DAEEF3" fill-rule="evenodd" /><g clip-path="url(#56)"></g><g clip-path="url(#57)"></g></g><path transform="matrix(1 0 0 -1 0 841)" d="M172.58 451.51L221.204 451.51L221.204 451.51L221.204 479.23L221.204 479.23L172.58 479.23z" stroke="none" fill="#DAEEF3" fill-rule="evenodd" /><g clip-path="url(#58)"><path transform="matrix(1 0 0 -1 0 841)" d="M177.62 452.59L216.044 452.59L216.044 452.59L216.044 479.23L216.044 479.23L177.62 479.23z" stroke="none" fill="#DAEEF3" fill-rule="evenodd" /><g clip-path="url(#59)"></g><g clip-path="url(#60)"></g></g><path transform="matrix(1 0 0 -1 0 841)" d="M221.69 451.51L256.85 451.51L256.85 451.51L256.85 479.23L256.85 479.23L221.69 479.23z" stroke="none" fill="#DAEEF3" fill-rule="evenodd" /><g clip-path="url(#61)"><path transform="matrix(1 0 0 -1 0 841)" d="M226.85 451.51L251.69 451.51L251.69 451.51L251.69 479.23L251.69 479.23L226.85 479.23z" stroke="none" fill="#DAEEF3" fill-rule="evenodd" /><g clip-path="url(#62)"></g><g clip-path="url(#63)"></g></g><path transform="matrix(1 0 0 -1 0 841)" d="M257.33 451.51L338.594 451.51L338.594 451.51L338.594 479.23L338.594 479.23L257.33 479.23z" stroke="none" fill="#DAEEF3" fill-rule="evenodd" /><g clip-path="url(#64)"><path transform="matrix(1 0 0 -1 0 841)" d="M262.49 452.59L333.41 452.59L333.41 452.59L333.41 479.23L333.41 479.23L262.49 479.23z" stroke="none" fill="#DAEEF3" fill-rule="evenodd" /><g clip-path="url(#65)"></g><g clip-path="url(#66)"></g><g clip-path="url(#67)"></g></g><path transform="matrix(1 0 0 -1 0 841)" d="M339.07 451.51L510.69 451.51L510.69 451.51L510.69 479.23L510.69 479.23L339.07 479.23z" stroke="none" fill="#DAEEF3" fill-rule="evenodd" /><g clip-path="url(#68)"><path transform="matrix(1 0 0 -1 0 841)" d="M344.23 451.51L505.53 451.51L505.53 451.51L505.53 479.23L505.53 479.23L344.23 479.23z" stroke="none" fill="#DAEEF3" fill-rule="evenodd" /><g clip-path="url(#69)"></g><g clip-path="url(#70)"></g><g clip-path="url(#71)"></g><g clip-path="url(#72)"></g></g><path transform="matrix(1 0 0 -1 0 841)" d="M84.264 479.23L84.744 479.23L84.744 479.23L84.744 479.71L84.744 479.71L84.264 479.71z" stroke="none" fill="#000000" fill-rule="evenodd" /><path transform="matrix(1 0 0 -1 0 841)" d="M84.744 479.23L172.104 479.23L172.104 479.23L172.104 479.71L172.104 479.71L84.744 479.71z" stroke="none" fill="#000000" fill-rule="evenodd" /><path transform="matrix(1 0 0 -1 0 841)" d="M172.1 479.23L172.58 479.23L172.58 479.23L172.58 479.71L172.58 479.71L172.1 479.71z" stroke="none" fill="#000000" fill-rule="evenodd" /><path transform="matrix(1 0 0 -1 0 841)" d="M172.58 479.23L221.204 479.23L221.204 479.23L221.204 479.71L221.204 479.71L172.58 479.71z" stroke="none" fill="#000000" fill-rule="evenodd" /><path transform="matrix(1 0 0 -1 0 841)" d="M221.21 479.23L221.69 479.23L221.69 479.23L221.69 479.71L221.69 479.71L221.21 479.71z" stroke="none" fill="#000000" fill-rule="evenodd" /><path transform="matrix(1 0 0 -1 0 841)" d="M221.69 479.23L256.85 479.23L256.85 479.23L256.85 479.71L256.85 479.71L221.69 479.71z" stroke="none" fill="#000000" fill-rule="evenodd" /><path transform="matrix(1 0 0 -1 0 841)" d="M256.85 479.23L257.33 479.23L257.33 479.23L257.33 479.71L257.33 479.71L256.85 479.71z" stroke="none" fill="#000000" fill-rule="evenodd" /><path transform="matrix(1 0 0 -1 0 841)" d="M257.33 479.23L338.714 479.23L338.714 479.23L338.714 479.71L338.714 479.71L257.33 479.71z" stroke="none" fill="#000000" fill-rule="evenodd" /><path transform="matrix(1 0 0 -1 0 841)" d="M338.71 479.23L339.19 479.23L339.19 479.23L339.19 479.71L339.19 479.71L338.71 479.71z" stroke="none" fill="#000000" fill-rule="evenodd" /><path transform="matrix(1 0 0 -1 0 841)" d="M339.19 479.23L510.69 479.23L510.69 479.23L510.69 479.71L510.69 479.71L339.19 479.71z" stroke="none" fill="#000000" fill-rule="evenodd" /><path transform="matrix(1 0 0 -1 0 841)" d="M510.7 479.23L511.18 479.23L511.18 479.23L511.18 479.71L511.18 479.71L510.7 479.71z" stroke="none" fill="#000000" fill-rule="evenodd" /><path transform="matrix(1 0 0 -1 0 841)" d="M84.264 451.51L84.744 451.51L84.744 451.51L84.744 479.23L84.744 479.23L84.264 479.23z" stroke="none" fill="#000000" fill-rule="evenodd" /><path transform="matrix(1 0 0 -1 0 841)" d="M172.1 451.51L172.58 451.51L172.58 451.51L172.58 479.23L172.58 479.23L172.1 479.23z" stroke="none" fill="#000000" fill-rule="evenodd" /><path transform="matrix(1 0 0 -1 0 841)" d="M221.21 451.51L221.69 451.51L221.69 451.51L221.69 479.23L221.69 479.23L221.21 479.23z" stroke="none" fill="#000000" fill-rule="evenodd" /><path transform="matrix(1 0 0 -1 0 841)" d="M256.85 451.51L257.33 451.51L257.33 451.51L257.33 479.23L257.33 479.23L256.85 479.23z" stroke="none" fill="#000000" fill-rule="evenodd" /><path transform="matrix(1 0 0 -1 0 841)" d="M338.71 451.51L339.19 451.51L339.19 451.51L339.19 479.23L339.19 479.23L338.71 479.23z" stroke="none" fill="#000000" fill-rule="evenodd" /><path transform="matrix(1 0 0 -1 0 841)" d="M510.7 451.51L511.18 451.51L511.18 451.51L511.18 479.23L511.18 479.23L510.7 479.23z" stroke="none" fill="#000000" fill-rule="evenodd" /><g clip-path="url(#73)"><g clip-path="url(#74)"></g><g clip-path="url(#75)"></g></g><g clip-path="url(#76)"><g clip-path="url(#77)"></g><g clip-path="url(#78)"></g></g><g clip-path="url(#79)"><g clip-path="url(#80)"></g><g clip-path="url(#81)"></g></g><g clip-path="url(#82)"><g clip-path="url(#83)"></g><g clip-path="url(#84)"></g></g><g clip-path="url(#85)"><g clip-path="url(#86)"></g><g clip-path="url(#87)"></g></g><path transform="matrix(1 0 0 -1 0 841)" d="M84.264 451.03L84.744 451.03L84.744 451.03L84.744 451.51L84.744 451.51L84.264 451.51z" stroke="none" fill="#000000" fill-rule="evenodd" /><path transform="matrix(1 0 0 -1 0 841)" d="M84.744 451.03L172.104 451.03L172.104 451.03L172.104 451.51L172.104 451.51L84.744 451.51z" stroke="none" fill="#000000" fill-rule="evenodd" /><path transform="matrix(1 0 0 -1 0 841)" d="M172.1 451.03L172.58 451.03L172.58 451.03L172.58 451.51L172.58 451.51L172.1 451.51z" stroke="none" fill="#000000" fill-rule="evenodd" /><path transform="matrix(1 0 0 -1 0 841)" d="M172.58 451.03L221.204 451.03L221.204 451.03L221.204 451.51L221.204 451.51L172.58 451.51z" stroke="none" fill="#000000" fill-rule="evenodd" /><path transform="matrix(1 0 0 -1 0 841)" d="M221.21 451.03L221.69 451.03L221.69 451.03L221.69 451.51L221.69 451.51L221.21 451.51z" stroke="none" fill="#000000" fill-rule="evenodd" /><path transform="matrix(1 0 0 -1 0 841)" d="M221.69 451.03L256.85 451.03L256.85 451.03L256.85 451.51L256.85 451.51L221.69 451.51z" stroke="none" fill="#000000" fill-rule="evenodd" /><path transform="matrix(1 0 0 -1 0 841)" d="M256.85 451.03L257.33 451.03L257.33 451.03L257.33 451.51L257.33 451.51L256.85 451.51z" stroke="none" fill="#000000" fill-rule="evenodd" /><path transform="matrix(1 0 0 -1 0 841)" d="M257.33 451.03L338.714 451.03L338.714 451.03L338.714 451.51L338.714 451.51L257.33 451.51z" stroke="none" fill="#000000" fill-rule="evenodd" /><path transform="matrix(1 0 0 -1 0 841)" d="M338.71 451.03L339.19 451.03L339.19 451.03L339.19 451.51L339.19 451.51L338.71 451.51z" stroke="none" fill="#000000" fill-rule="evenodd" /><path transform="matrix(1 0 0 -1 0 841)" d="M339.19 451.03L510.69 451.03L510.69 451.03L510.69 451.51L510.69 451.51L339.19 451.51z" stroke="none" fill="#000000" fill-rule="evenodd" /><path transform="matrix(1 0 0 -1 0 841)" d="M510.7 451.03L511.18 451.03L511.18 451.03L511.18 451.51L511.18 451.51L510.7 451.51z" stroke="none" fill="#000000" fill-rule="evenodd" /><path transform="matrix(1 0 0 -1 0 841)" d="M84.264 423.43L84.744 423.43L84.744 423.43L84.744 451.03L84.744 451.03L84.264 451.03z" stroke="none" fill="#000000" fill-rule="evenodd" /><path transform="matrix(1 0 0 -1 0 841)" d="M172.1 423.43L172.58 423.43L172.58 423.43L172.58 451.03L172.58 451.03L172.1 451.03z" stroke="none" fill="#000000" fill-rule="evenodd" /><path transform="matrix(1 0 0 -1 0 841)" d="M221.21 423.43L221.69 423.43L221.69 423.43L221.69 451.03L221.69 451.03L221.21 451.03z" stroke="none" fill="#000000" fill-rule="evenodd" /><path transform="matrix(1 0 0 -1 0 841)" d="M256.85 423.43L257.33 423.43L257.33 423.43L257.33 451.03L257.33 451.03L256.85 451.03z" stroke="none" fill="#000000" fill-rule="evenodd" /><path transform="matrix(1 0 0 -1 0 841)" d="M338.71 423.43L339.19 423.43L339.19 423.43L339.19 451.03L339.19 451.03L338.71 451.03z" stroke="none" fill="#000000" fill-rule="evenodd" /><path transform="matrix(1 0 0 -1 0 841)" d="M510.7 423.43L511.18 423.43L511.18 423.43L511.18 451.03L511.18 451.03L510.7 451.03z" stroke="none" fill="#000000" fill-rule="evenodd" /><path transform="matrix(1 0 0 -1 0 841)" d="M84.744 395.23L171.984 395.23L171.984 395.23L171.984 422.83L171.984 422.83L84.744 422.83z" stroke="none" fill="#DAEEF3" fill-rule="evenodd" /><g clip-path="url(#88)"><path transform="matrix(1 0 0 -1 0 841)" d="M89.904 396.31L166.824 396.31L166.824 396.31L166.824 422.83L166.824 422.83L89.904 422.83z" stroke="none" fill="#DAEEF3" fill-rule="evenodd" /><g clip-path="url(#89)"></g><g clip-path="url(#90)"></g></g><path transform="matrix(1 0 0 -1 0 841)" d="M172.58 395.23L221.204 395.23L221.204 395.23L221.204 422.83L221.204 422.83L172.58 422.83z" stroke="none" fill="#DAEEF3" fill-rule="evenodd" /><g clip-path="url(#91)"><path transform="matrix(1 0 0 -1 0 841)" d="M177.62 396.31L216.044 396.31L216.044 396.31L216.044 422.83L216.044 422.83L177.62 422.83z" stroke="none" fill="#DAEEF3" fill-rule="evenodd" /><g clip-path="url(#92)"></g><g clip-path="url(#93)"></g></g><path transform="matrix(1 0 0 -1 0 841)" d="M221.69 395.23L256.85 395.23L256.85 395.23L256.85 422.83L256.85 422.83L221.69 422.83z" stroke="none" fill="#DAEEF3" fill-rule="evenodd" /><g clip-path="url(#94)"><path transform="matrix(1 0 0 -1 0 841)" d="M226.85 395.23L251.69 395.23L251.69 395.23L251.69 422.83L251.69 422.83L226.85 422.83z" stroke="none" fill="#DAEEF3" fill-rule="evenodd" /><g clip-path="url(#95)"></g><g clip-path="url(#96)"></g></g><path transform="matrix(1 0 0 -1 0 841)" d="M257.33 395.23L338.594 395.23L338.594 395.23L338.594 422.83L338.594 422.83L257.33 422.83z" stroke="none" fill="#DAEEF3" fill-rule="evenodd" /><g clip-path="url(#97)"><path transform="matrix(1 0 0 -1 0 841)" d="M262.49 396.31L333.41 396.31L333.41 396.31L333.41 422.83L333.41 422.83L262.49 422.83z" stroke="none" fill="#DAEEF3" fill-rule="evenodd" /><g clip-path="url(#98)"></g><g clip-path="url(#99)"></g></g><path transform="matrix(1 0 0 -1 0 841)" d="M339.07 395.23L510.69 395.23L510.69 395.23L510.69 422.83L510.69 422.83L339.07 422.83z" stroke="none" fill="#DAEEF3" fill-rule="evenodd" /><g clip-path="url(#100)"><path transform="matrix(1 0 0 -1 0 841)" d="M344.23 395.23L505.53 395.23L505.53 395.23L505.53 422.83L505.53 422.83L344.23 422.83z" stroke="none" fill="#DAEEF3" fill-rule="evenodd" /><g clip-path="url(#101)"></g><g clip-path="url(#102)"></g></g><path transform="matrix(1 0 0 -1 0 841)" d="M84.264 422.95L84.744 422.95L84.744 422.95L84.744 423.43L84.744 423.43L84.264 423.43z" stroke="none" fill="#000000" fill-rule="evenodd" /><path transform="matrix(1 0 0 -1 0 841)" d="M84.744 422.95L172.104 422.95L172.104 422.95L172.104 423.43L172.104 423.43L84.744 423.43z" stroke="none" fill="#000000" fill-rule="evenodd" /><path transform="matrix(1 0 0 -1 0 841)" d="M172.1 422.95L172.58 422.95L172.58 422.95L172.58 423.43L172.58 423.43L172.1 423.43z" stroke="none" fill="#000000" fill-rule="evenodd" /><path transform="matrix(1 0 0 -1 0 841)" d="M172.58 422.95L221.204 422.95L221.204 422.95L221.204 423.43L221.204 423.43L172.58 423.43z" stroke="none" fill="#000000" fill-rule="evenodd" /><path transform="matrix(1 0 0 -1 0 841)" d="M221.21 422.95L221.69 422.95L221.69 422.95L221.69 423.43L221.69 423.43L221.21 423.43z" stroke="none" fill="#000000" fill-rule="evenodd" /><path transform="matrix(1 0 0 -1 0 841)" d="M221.69 422.95L256.85 422.95L256.85 422.95L256.85 423.43L256.85 423.43L221.69 423.43z" stroke="none" fill="#000000" fill-rule="evenodd" /><path transform="matrix(1 0 0 -1 0 841)" d="M256.85 422.95L257.33 422.95L257.33 422.95L257.33 423.43L257.33 423.43L256.85 423.43z" stroke="none" fill="#000000" fill-rule="evenodd" /><path transform="matrix(1 0 0 -1 0 841)" d="M257.33 422.95L338.714 422.95L338.714 422.95L338.714 423.43L338.714 423.43L257.33 423.43z" stroke="none" fill="#000000" fill-rule="evenodd" /><path transform="matrix(1 0 0 -1 0 841)" d="M338.71 422.95L339.19 422.95L339.19 422.95L339.19 423.43L339.19 423.43L338.71 423.43z" stroke="none" fill="#000000" fill-rule="evenodd" /><path transform="matrix(1 0 0 -1 0 841)" d="M339.19 422.95L510.69 422.95L510.69 422.95L510.69 423.43L510.69 423.43L339.19 423.43z" stroke="none" fill="#000000" fill-rule="evenodd" /><path transform="matrix(1 0 0 -1 0 841)" d="M510.7 422.95L511.18 422.95L511.18 422.95L511.18 423.43L511.18 423.43L510.7 423.43z" stroke="none" fill="#000000" fill-rule="evenodd" /><path transform="matrix(1 0 0 -1 0 841)" d="M84.264 395.23L84.744 395.23L84.744 395.23L84.744 422.95L84.744 422.95L84.264 422.95z" stroke="none" fill="#000000" fill-rule="evenodd" /><path transform="matrix(1 0 0 -1 0 841)" d="M172.1 395.23L172.58 395.23L172.58 395.23L172.58 422.95L172.58 422.95L172.1 422.95z" stroke="none" fill="#000000" fill-rule="evenodd" /><path transform="matrix(1 0 0 -1 0 841)" d="M221.21 395.23L221.69 395.23L221.69 395.23L221.69 422.95L221.69 422.95L221.21 422.95z" stroke="none" fill="#000000" fill-rule="evenodd" /><path transform="matrix(1 0 0 -1 0 841)" d="M256.85 395.23L257.33 395.23L257.33 395.23L257.33 422.95L257.33 422.95L256.85 422.95z" stroke="none" fill="#000000" fill-rule="evenodd" /><path transform="matrix(1 0 0 -1 0 841)" d="M338.71 395.23L339.19 395.23L339.19 395.23L339.19 422.95L339.19 422.95L338.71 422.95z" stroke="none" fill="#000000" fill-rule="evenodd" /><path transform="matrix(1 0 0 -1 0 841)" d="M510.7 395.23L511.18 395.23L511.18 395.23L511.18 422.95L511.18 422.95L510.7 422.95z" stroke="none" fill="#000000" fill-rule="evenodd" /><g clip-path="url(#103)"><g clip-path="url(#104)"></g><g clip-path="url(#105)"></g></g><g clip-path="url(#106)"><g clip-path="url(#107)"></g><g clip-path="url(#108)"></g></g><g clip-path="url(#109)"><g clip-path="url(#110)"></g><g clip-path="url(#111)"></g></g><g clip-path="url(#112)"><g clip-path="url(#113)"></g></g><g clip-path="url(#114)"><g clip-path="url(#115)"></g><g clip-path="url(#116)"></g><g clip-path="url(#117)"></g><g clip-path="url(#118)"></g><g clip-path="url(#119)"></g><g clip-path="url(#120)"></g><g clip-path="url(#121)"></g><g clip-path="url(#122)"></g><g clip-path="url(#123)"></g><g clip-path="url(#124)"></g><g clip-path="url(#125)"></g><g clip-path="url(#126)"></g><g clip-path="url(#127)"></g><g clip-path="url(#128)"></g><path transform="matrix(1 0 0 -1 0 841)" d="M435.19 342.41L491.134 342.41L491.134 342.41L491.134 343.13L491.134 343.13L435.19 343.13z" stroke="none" fill="#548DD4" fill-rule="evenodd" /></g><path transform="matrix(1 0 0 -1 0 841)" d="M84.264 394.75L84.744 394.75L84.744 394.75L84.744 395.23L84.744 395.23L84.264 395.23z" stroke="none" fill="#000000" fill-rule="evenodd" /><path transform="matrix(1 0 0 -1 0 841)" d="M84.744 394.75L172.104 394.75L172.104 394.75L172.104 395.23L172.104 395.23L84.744 395.23z" stroke="none" fill="#000000" fill-rule="evenodd" /><path transform="matrix(1 0 0 -1 0 841)" d="M172.1 394.75L172.58 394.75L172.58 394.75L172.58 395.23L172.58 395.23L172.1 395.23z" stroke="none" fill="#000000" fill-rule="evenodd" /><path transform="matrix(1 0 0 -1 0 841)" d="M172.58 394.75L221.204 394.75L221.204 394.75L221.204 395.23L221.204 395.23L172.58 395.23z" stroke="none" fill="#000000" fill-rule="evenodd" /><path transform="matrix(1 0 0 -1 0 841)" d="M221.21 394.75L221.69 394.75L221.69 394.75L221.69 395.23L221.69 395.23L221.21 395.23z" stroke="none" fill="#000000" fill-rule="evenodd" /><path transform="matrix(1 0 0 -1 0 841)" d="M221.69 394.75L256.85 394.75L256.85 394.75L256.85 395.23L256.85 395.23L221.69 395.23z" stroke="none" fill="#000000" fill-rule="evenodd" /><path transform="matrix(1 0 0 -1 0 841)" d="M256.85 394.75L257.33 394.75L257.33 394.75L257.33 395.23L257.33 395.23L256.85 395.23z" stroke="none" fill="#000000" fill-rule="evenodd" /><path transform="matrix(1 0 0 -1 0 841)" d="M257.33 394.75L338.714 394.75L338.714 394.75L338.714 395.23L338.714 395.23L257.33 395.23z" stroke="none" fill="#000000" fill-rule="evenodd" /><path transform="matrix(1 0 0 -1 0 841)" d="M338.71 394.75L339.19 394.75L339.19 394.75L339.19 395.23L339.19 395.23L338.71 395.23z" stroke="none" fill="#000000" fill-rule="evenodd" /><path transform="matrix(1 0 0 -1 0 841)" d="M339.19 394.75L510.69 394.75L510.69 394.75L510.69 395.23L510.69 395.23L339.19 395.23z" stroke="none" fill="#000000" fill-rule="evenodd" /><path transform="matrix(1 0 0 -1 0 841)" d="M510.7 394.75L511.18 394.75L511.18 394.75L511.18 395.23L511.18 395.23L510.7 395.23z" stroke="none" fill="#000000" fill-rule="evenodd" /><path transform="matrix(1 0 0 -1 0 841)" d="M84.264 340.49L84.744 340.49L84.744 340.49L84.744 394.754L84.744 394.754L84.264 394.754z" stroke="none" fill="#000000" fill-rule="evenodd" /><path transform="matrix(1 0 0 -1 0 841)" d="M172.1 340.49L172.58 340.49L172.58 340.49L172.58 394.754L172.58 394.754L172.1 394.754z" stroke="none" fill="#000000" fill-rule="evenodd" /><path transform="matrix(1 0 0 -1 0 841)" d="M221.21 340.49L221.69 340.49L221.69 340.49L221.69 394.754L221.69 394.754L221.21 394.754z" stroke="none" fill="#000000" fill-rule="evenodd" /><path transform="matrix(1 0 0 -1 0 841)" d="M256.85 340.49L257.33 340.49L257.33 340.49L257.33 394.754L257.33 394.754L256.85 394.754z" stroke="none" fill="#000000" fill-rule="evenodd" /><path transform="matrix(1 0 0 -1 0 841)" d="M338.71 340.49L339.19 340.49L339.19 340.49L339.19 394.754L339.19 394.754L338.71 394.754z" stroke="none" fill="#000000" fill-rule="evenodd" /><path transform="matrix(1 0 0 -1 0 841)" d="M510.7 340.49L511.18 340.49L511.18 340.49L511.18 394.754L511.18 394.754L510.7 394.754z" stroke="none" fill="#000000" fill-rule="evenodd" /><path transform="matrix(1 0 0 -1 0 841)" d="M84.744 312.29L171.984 312.29L171.984 312.29L171.984 340.01L171.984 340.01L84.744 340.01z" stroke="none" fill="#DAEEF3" fill-rule="evenodd" /><g clip-path="url(#129)"><path transform="matrix(1 0 0 -1 0 841)" d="M89.904 313.37L166.824 313.37L166.824 313.37L166.824 340.01L166.824 340.01L89.904 340.01z" stroke="none" fill="#DAEEF3" fill-rule="evenodd" /><g clip-path="url(#130)"></g><g clip-path="url(#131)"></g></g><path transform="matrix(1 0 0 -1 0 841)" d="M172.58 312.29L221.204 312.29L221.204 312.29L221.204 340.01L221.204 340.01L172.58 340.01z" stroke="none" fill="#DAEEF3" fill-rule="evenodd" /><g clip-path="url(#132)"><path transform="matrix(1 0 0 -1 0 841)" d="M177.62 313.37L216.044 313.37L216.044 313.37L216.044 340.01L216.044 340.01L177.62 340.01z" stroke="none" fill="#DAEEF3" fill-rule="evenodd" /><g clip-path="url(#133)"></g><g clip-path="url(#134)"></g></g><path transform="matrix(1 0 0 -1 0 841)" d="M221.69 312.29L256.85 312.29L256.85 312.29L256.85 340.01L256.85 340.01L221.69 340.01z" stroke="none" fill="#DAEEF3" fill-rule="evenodd" /><g clip-path="url(#135)"><path transform="matrix(1 0 0 -1 0 841)" d="M226.85 312.29L251.69 312.29L251.69 312.29L251.69 340.01L251.69 340.01L226.85 340.01z" stroke="none" fill="#DAEEF3" fill-rule="evenodd" /><g clip-path="url(#136)"></g><g clip-path="url(#137)"></g></g><path transform="matrix(1 0 0 -1 0 841)" d="M257.33 312.29L338.594 312.29L338.594 312.29L338.594 340.01L338.594 340.01L257.33 340.01z" stroke="none" fill="#DAEEF3" fill-rule="evenodd" /><g clip-path="url(#138)"><path transform="matrix(1 0 0 -1 0 841)" d="M262.49 313.37L333.41 313.37L333.41 313.37L333.41 340.01L333.41 340.01L262.49 340.01z" stroke="none" fill="#DAEEF3" fill-rule="evenodd" /><g clip-path="url(#139)"></g><g clip-path="url(#140)"></g></g><path transform="matrix(1 0 0 -1 0 841)" d="M339.07 312.29L510.69 312.29L510.69 312.29L510.69 340.01L510.69 340.01L339.07 340.01z" stroke="none" fill="#DAEEF3" fill-rule="evenodd" /><g clip-path="url(#141)"><path transform="matrix(1 0 0 -1 0 841)" d="M344.23 312.29L505.53 312.29L505.53 312.29L505.53 340.01L505.53 340.01L344.23 340.01z" stroke="none" fill="#DAEEF3" fill-rule="evenodd" /><g clip-path="url(#142)"></g><g clip-path="url(#143)"></g><g clip-path="url(#144)"></g></g><path transform="matrix(1 0 0 -1 0 841)" d="M84.264 340.01L84.744 340.01L84.744 340.01L84.744 340.49L84.744 340.49L84.264 340.49z" stroke="none" fill="#000000" fill-rule="evenodd" /><path transform="matrix(1 0 0 -1 0 841)" d="M84.744 340.01L172.104 340.01L172.104 340.01L172.104 340.49L172.104 340.49L84.744 340.49z" stroke="none" fill="#000000" fill-rule="evenodd" /><path transform="matrix(1 0 0 -1 0 841)" d="M172.1 340.01L172.58 340.01L172.58 340.01L172.58 340.49L172.58 340.49L172.1 340.49z" stroke="none" fill="#000000" fill-rule="evenodd" /><path transform="matrix(1 0 0 -1 0 841)" d="M172.58 340.01L221.204 340.01L221.204 340.01L221.204 340.49L221.204 340.49L172.58 340.49z" stroke="none" fill="#000000" fill-rule="evenodd" /><path transform="matrix(1 0 0 -1 0 841)" d="M221.21 340.01L221.69 340.01L221.69 340.01L221.69 340.49L221.69 340.49L221.21 340.49z" stroke="none" fill="#000000" fill-rule="evenodd" /><path transform="matrix(1 0 0 -1 0 841)" d="M221.69 340.01L256.85 340.01L256.85 340.01L256.85 340.49L256.85 340.49L221.69 340.49z" stroke="none" fill="#000000" fill-rule="evenodd" /><path transform="matrix(1 0 0 -1 0 841)" d="M256.85 340.01L257.33 340.01L257.33 340.01L257.33 340.49L257.33 340.49L256.85 340.49z" stroke="none" fill="#000000" fill-rule="evenodd" /><path transform="matrix(1 0 0 -1 0 841)" d="M257.33 340.01L338.714 340.01L338.714 340.01L338.714 340.49L338.714 340.49L257.33 340.49z" stroke="none" fill="#000000" fill-rule="evenodd" /><path transform="matrix(1 0 0 -1 0 841)" d="M338.71 340.01L339.19 340.01L339.19 340.01L339.19 340.49L339.19 340.49L338.71 340.49z" stroke="none" fill="#000000" fill-rule="evenodd" /><path transform="matrix(1 0 0 -1 0 841)" d="M339.19 340.01L510.69 340.01L510.69 340.01L510.69 340.49L510.69 340.49L339.19 340.49z" stroke="none" fill="#000000" fill-rule="evenodd" /><path transform="matrix(1 0 0 -1 0 841)" d="M510.7 340.01L511.18 340.01L511.18 340.01L511.18 340.49L511.18 340.49L510.7 340.49z" stroke="none" fill="#000000" fill-rule="evenodd" /><path transform="matrix(1 0 0 -1 0 841)" d="M84.264 312.29L84.744 312.29L84.744 312.29L84.744 340.01L84.744 340.01L84.264 340.01z" stroke="none" fill="#000000" fill-rule="evenodd" /><path transform="matrix(1 0 0 -1 0 841)" d="M172.1 312.29L172.58 312.29L172.58 312.29L172.58 340.01L172.58 340.01L172.1 340.01z" stroke="none" fill="#000000" fill-rule="evenodd" /><path transform="matrix(1 0 0 -1 0 841)" d="M221.21 312.29L221.69 312.29L221.69 312.29L221.69 340.01L221.69 340.01L221.21 340.01z" stroke="none" fill="#000000" fill-rule="evenodd" /><path transform="matrix(1 0 0 -1 0 841)" d="M256.85 312.29L257.33 312.29L257.33 312.29L257.33 340.01L257.33 340.01L256.85 340.01z" stroke="none" fill="#000000" fill-rule="evenodd" /><path transform="matrix(1 0 0 -1 0 841)" d="M338.71 312.29L339.19 312.29L339.19 312.29L339.19 340.01L339.19 340.01L338.71 340.01z" stroke="none" fill="#000000" fill-rule="evenodd" /><path transform="matrix(1 0 0 -1 0 841)" d="M510.7 312.29L511.18 312.29L511.18 312.29L511.18 340.01L511.18 340.01L510.7 340.01z" stroke="none" fill="#000000" fill-rule="evenodd" /><g clip-path="url(#145)"><g clip-path="url(#146)"></g><g clip-path="url(#147)"></g></g><g clip-path="url(#148)"><g clip-path="url(#149)"></g><g clip-path="url(#150)"></g></g><g clip-path="url(#151)"><g clip-path="url(#152)"></g><g clip-path="url(#153)"></g></g><g clip-path="url(#154)"><g clip-path="url(#155)"></g><g clip-path="url(#156)"></g></g><g clip-path="url(#157)"><g clip-path="url(#158)"></g><g clip-path="url(#159)"></g><g clip-path="url(#160)"></g><g clip-path="url(#161)"></g></g><path transform="matrix(1 0 0 -1 0 841)" d="M84.264 311.81L84.744 311.81L84.744 311.81L84.744 312.29L84.744 312.29L84.264 312.29z" stroke="none" fill="#000000" fill-rule="evenodd" /><path transform="matrix(1 0 0 -1 0 841)" d="M84.744 311.81L172.104 311.81L172.104 311.81L172.104 312.29L172.104 312.29L84.744 312.29z" stroke="none" fill="#000000" fill-rule="evenodd" /><path transform="matrix(1 0 0 -1 0 841)" d="M172.1 311.81L172.58 311.81L172.58 311.81L172.58 312.29L172.58 312.29L172.1 312.29z" stroke="none" fill="#000000" fill-rule="evenodd" /><path transform="matrix(1 0 0 -1 0 841)" d="M172.58 311.81L221.204 311.81L221.204 311.81L221.204 312.29L221.204 312.29L172.58 312.29z" stroke="none" fill="#000000" fill-rule="evenodd" /><path transform="matrix(1 0 0 -1 0 841)" d="M221.21 311.81L221.69 311.81L221.69 311.81L221.69 312.29L221.69 312.29L221.21 312.29z" stroke="none" fill="#000000" fill-rule="evenodd" /><path transform="matrix(1 0 0 -1 0 841)" d="M221.69 311.81L256.85 311.81L256.85 311.81L256.85 312.29L256.85 312.29L221.69 312.29z" stroke="none" fill="#000000" fill-rule="evenodd" /><path transform="matrix(1 0 0 -1 0 841)" d="M256.85 311.81L257.33 311.81L257.33 311.81L257.33 312.29L257.33 312.29L256.85 312.29z" stroke="none" fill="#000000" fill-rule="evenodd" /><path transform="matrix(1 0 0 -1 0 841)" d="M257.33 311.81L338.714 311.81L338.714 311.81L338.714 312.29L338.714 312.29L257.33 312.29z" stroke="none" fill="#000000" fill-rule="evenodd" /><path transform="matrix(1 0 0 -1 0 841)" d="M338.71 311.81L339.19 311.81L339.19 311.81L339.19 312.29L339.19 312.29L338.71 312.29z" stroke="none" fill="#000000" fill-rule="evenodd" /><path transform="matrix(1 0 0 -1 0 841)" d="M339.19 311.81L510.69 311.81L510.69 311.81L510.69 312.29L510.69 312.29L339.19 312.29z" stroke="none" fill="#000000" fill-rule="evenodd" /><path transform="matrix(1 0 0 -1 0 841)" d="M510.7 311.81L511.18 311.81L511.18 311.81L511.18 312.29L511.18 312.29L510.7 312.29z" stroke="none" fill="#000000" fill-rule="evenodd" /><path transform="matrix(1 0 0 -1 0 841)" d="M84.264 284.09L84.744 284.09L84.744 284.09L84.744 311.81L84.744 311.81L84.264 311.81z" stroke="none" fill="#000000" fill-rule="evenodd" /><path transform="matrix(1 0 0 -1 0 841)" d="M172.1 284.09L172.58 284.09L172.58 284.09L172.58 311.81L172.58 311.81L172.1 311.81z" stroke="none" fill="#000000" fill-rule="evenodd" /><path transform="matrix(1 0 0 -1 0 841)" d="M221.21 284.09L221.69 284.09L221.69 284.09L221.69 311.81L221.69 311.81L221.21 311.81z" stroke="none" fill="#000000" fill-rule="evenodd" /><path transform="matrix(1 0 0 -1 0 841)" d="M256.85 284.09L257.33 284.09L257.33 284.09L257.33 311.81L257.33 311.81L256.85 311.81z" stroke="none" fill="#000000" fill-rule="evenodd" /><path transform="matrix(1 0 0 -1 0 841)" d="M338.71 284.09L339.19 284.09L339.19 284.09L339.19 311.81L339.19 311.81L338.71 311.81z" stroke="none" fill="#000000" fill-rule="evenodd" /><path transform="matrix(1 0 0 -1 0 841)" d="M510.7 284.09L511.18 284.09L511.18 284.09L511.18 311.81L511.18 311.81L510.7 311.81z" stroke="none" fill="#000000" fill-rule="evenodd" /><path transform="matrix(1 0 0 -1 0 841)" d="M84.744 247.37L171.984 247.37L171.984 247.37L171.984 283.61L171.984 283.61L84.744 283.61z" stroke="none" fill="#DAEEF3" fill-rule="evenodd" /><g clip-path="url(#162)"><path transform="matrix(1 0 0 -1 0 841)" d="M89.904 257.09L166.824 257.09L166.824 257.09L166.824 283.61L166.824 283.61L89.904 283.61z" stroke="none" fill="#DAEEF3" fill-rule="evenodd" /><g clip-path="url(#163)"></g><g clip-path="url(#164)"></g></g><path transform="matrix(1 0 0 -1 0 841)" d="M172.58 247.37L221.204 247.37L221.204 247.37L221.204 283.61L221.204 283.61L172.58 283.61z" stroke="none" fill="#DAEEF3" fill-rule="evenodd" /><g clip-path="url(#165)"><path transform="matrix(1 0 0 -1 0 841)" d="M177.62 257.09L216.044 257.09L216.044 257.09L216.044 283.61L216.044 283.61L177.62 283.61z" stroke="none" fill="#DAEEF3" fill-rule="evenodd" /><g clip-path="url(#166)"></g><g clip-path="url(#167)"></g></g><path transform="matrix(1 0 0 -1 0 841)" d="M221.69 247.37L256.85 247.37L256.85 247.37L256.85 283.61L256.85 283.61L221.69 283.61z" stroke="none" fill="#DAEEF3" fill-rule="evenodd" /><g clip-path="url(#168)"><path transform="matrix(1 0 0 -1 0 841)" d="M226.85 256.01L251.69 256.01L251.69 256.01L251.69 283.61L251.69 283.61L226.85 283.61z" stroke="none" fill="#DAEEF3" fill-rule="evenodd" /><g clip-path="url(#169)"></g><g clip-path="url(#170)"></g></g><path transform="matrix(1 0 0 -1 0 841)" d="M257.33 247.37L338.594 247.37L338.594 247.37L338.594 283.61L338.594 283.61L257.33 283.61z" stroke="none" fill="#DAEEF3" fill-rule="evenodd" /><g clip-path="url(#171)"><path transform="matrix(1 0 0 -1 0 841)" d="M262.49 257.09L333.41 257.09L333.41 257.09L333.41 283.61L333.41 283.61L262.49 283.61z" stroke="none" fill="#DAEEF3" fill-rule="evenodd" /><g clip-path="url(#172)"></g></g><path transform="matrix(1 0 0 -1 0 841)" d="M339.07 247.37L510.69 247.37L510.69 247.37L510.69 283.61L510.69 283.61L339.07 283.61z" stroke="none" fill="#DAEEF3" fill-rule="evenodd" /><g clip-path="url(#173)"><path transform="matrix(1 0 0 -1 0 841)" d="M344.23 265.49L505.53 265.49L505.53 265.49L505.53 283.61L505.53 283.61L344.23 283.61z" stroke="none" fill="#DAEEF3" fill-rule="evenodd" /><g clip-path="url(#174)"></g><g clip-path="url(#175)"></g><g clip-path="url(#176)"></g><g clip-path="url(#177)"></g><path transform="matrix(1 0 0 -1 0 841)" d="M344.23 247.37L505.53 247.37L505.53 247.37L505.53 265.49L505.53 265.49L344.23 265.49z" stroke="none" fill="#DAEEF3" fill-rule="evenodd" /><g clip-path="url(#178)"></g><g clip-path="url(#179)"></g></g><path transform="matrix(1 0 0 -1 0 841)" d="M84.264 283.61L84.744 283.61L84.744 283.61L84.744 284.09L84.744 284.09L84.264 284.09z" stroke="none" fill="#000000" fill-rule="evenodd" /><path transform="matrix(1 0 0 -1 0 841)" d="M84.744 283.61L172.104 283.61L172.104 283.61L172.104 284.09L172.104 284.09L84.744 284.09z" stroke="none" fill="#000000" fill-rule="evenodd" /><path transform="matrix(1 0 0 -1 0 841)" d="M172.1 283.61L172.58 283.61L172.58 283.61L172.58 284.09L172.58 284.09L172.1 284.09z" stroke="none" fill="#000000" fill-rule="evenodd" /><path transform="matrix(1 0 0 -1 0 841)" d="M172.58 283.61L221.204 283.61L221.204 283.61L221.204 284.09L221.204 284.09L172.58 284.09z" stroke="none" fill="#000000" fill-rule="evenodd" /><path transform="matrix(1 0 0 -1 0 841)" d="M221.21 283.61L221.69 283.61L221.69 283.61L221.69 284.09L221.69 284.09L221.21 284.09z" stroke="none" fill="#000000" fill-rule="evenodd" /><path transform="matrix(1 0 0 -1 0 841)" d="M221.69 283.61L256.85 283.61L256.85 283.61L256.85 284.09L256.85 284.09L221.69 284.09z" stroke="none" fill="#000000" fill-rule="evenodd" /><path transform="matrix(1 0 0 -1 0 841)" d="M256.85 283.61L257.33 283.61L257.33 283.61L257.33 284.09L257.33 284.09L256.85 284.09z" stroke="none" fill="#000000" fill-rule="evenodd" /><path transform="matrix(1 0 0 -1 0 841)" d="M257.33 283.61L338.714 283.61L338.714 283.61L338.714 284.09L338.714 284.09L257.33 284.09z" stroke="none" fill="#000000" fill-rule="evenodd" /><path transform="matrix(1 0 0 -1 0 841)" d="M338.71 283.61L339.19 283.61L339.19 283.61L339.19 284.09L339.19 284.09L338.71 284.09z" stroke="none" fill="#000000" fill-rule="evenodd" /><path transform="matrix(1 0 0 -1 0 841)" d="M339.19 283.61L510.69 283.61L510.69 283.61L510.69 284.09L510.69 284.09L339.19 284.09z" stroke="none" fill="#000000" fill-rule="evenodd" /><path transform="matrix(1 0 0 -1 0 841)" d="M510.7 283.61L511.18 283.61L511.18 283.61L511.18 284.09L511.18 284.09L510.7 284.09z" stroke="none" fill="#000000" fill-rule="evenodd" /><path transform="matrix(1 0 0 -1 0 841)" d="M84.264 247.37L84.744 247.37L84.744 247.37L84.744 283.61L84.744 283.61L84.264 283.61z" stroke="none" fill="#000000" fill-rule="evenodd" /><path transform="matrix(1 0 0 -1 0 841)" d="M84.264 246.89L84.744 246.89L84.744 246.89L84.744 247.37L84.744 247.37L84.264 247.37z" stroke="none" fill="#000000" fill-rule="evenodd" /><path transform="matrix(1 0 0 -1 0 841)" d="M84.264 246.89L84.744 246.89L84.744 246.89L84.744 247.37L84.744 247.37L84.264 247.37z" stroke="none" fill="#000000" fill-rule="evenodd" /><path transform="matrix(1 0 0 -1 0 841)" d="M84.744 246.89L172.104 246.89L172.104 246.89L172.104 247.37L172.104 247.37L84.744 247.37z" stroke="none" fill="#000000" fill-rule="evenodd" /><path transform="matrix(1 0 0 -1 0 841)" d="M172.1 247.37L172.58 247.37L172.58 247.37L172.58 283.61L172.58 283.61L172.1 283.61z" stroke="none" fill="#000000" fill-rule="evenodd" /><path transform="matrix(1 0 0 -1 0 841)" d="M172.1 246.89L172.58 246.89L172.58 246.89L172.58 247.37L172.58 247.37L172.1 247.37z" stroke="none" fill="#000000" fill-rule="evenodd" /><path transform="matrix(1 0 0 -1 0 841)" d="M172.58 246.89L221.204 246.89L221.204 246.89L221.204 247.37L221.204 247.37L172.58 247.37z" stroke="none" fill="#000000" fill-rule="evenodd" /><path transform="matrix(1 0 0 -1 0 841)" d="M221.21 247.37L221.69 247.37L221.69 247.37L221.69 283.61L221.69 283.61L221.21 283.61z" stroke="none" fill="#000000" fill-rule="evenodd" /><path transform="matrix(1 0 0 -1 0 841)" d="M221.21 246.89L221.69 246.89L221.69 246.89L221.69 247.37L221.69 247.37L221.21 247.37z" stroke="none" fill="#000000" fill-rule="evenodd" /><path transform="matrix(1 0 0 -1 0 841)" d="M221.69 246.89L256.85 246.89L256.85 246.89L256.85 247.37L256.85 247.37L221.69 247.37z" stroke="none" fill="#000000" fill-rule="evenodd" /><path transform="matrix(1 0 0 -1 0 841)" d="M256.85 247.37L257.33 247.37L257.33 247.37L257.33 283.61L257.33 283.61L256.85 283.61z" stroke="none" fill="#000000" fill-rule="evenodd" /><path transform="matrix(1 0 0 -1 0 841)" d="M256.85 246.89L257.33 246.89L257.33 246.89L257.33 247.37L257.33 247.37L256.85 247.37z" stroke="none" fill="#000000" fill-rule="evenodd" /><path transform="matrix(1 0 0 -1 0 841)" d="M257.33 246.89L338.714 246.89L338.714 246.89L338.714 247.37L338.714 247.37L257.33 247.37z" stroke="none" fill="#000000" fill-rule="evenodd" /><path transform="matrix(1 0 0 -1 0 841)" d="M338.71 247.37L339.19 247.37L339.19 247.37L339.19 283.61L339.19 283.61L338.71 283.61z" stroke="none" fill="#000000" fill-rule="evenodd" /><path transform="matrix(1 0 0 -1 0 841)" d="M338.71 246.89L339.19 246.89L339.19 246.89L339.19 247.37L339.19 247.37L338.71 247.37z" stroke="none" fill="#000000" fill-rule="evenodd" /><path transform="matrix(1 0 0 -1 0 841)" d="M339.19 246.89L510.69 246.89L510.69 246.89L510.69 247.37L510.69 247.37L339.19 247.37z" stroke="none" fill="#000000" fill-rule="evenodd" /><path transform="matrix(1 0 0 -1 0 841)" d="M510.7 247.37L511.18 247.37L511.18 247.37L511.18 283.61L511.18 283.61L510.7 283.61z" stroke="none" fill="#000000" fill-rule="evenodd" /><path transform="matrix(1 0 0 -1 0 841)" d="M510.7 246.89L511.18 246.89L511.18 246.89L511.18 247.37L511.18 247.37L510.7 247.37z" stroke="none" fill="#000000" fill-rule="evenodd" /><path transform="matrix(1 0 0 -1 0 841)" d="M510.7 246.89L511.18 246.89L511.18 246.89L511.18 247.37L511.18 247.37L510.7 247.37z" stroke="none" fill="#000000" fill-rule="evenodd" /></g></g></g></svg>