<svg xmlns="http://www.w3.org/2000/svg" xmlns:xlink="http://www.w3.org/1999/xlink" id="body_52" preserveAspectRatio="xMinYMin meet" viewBox="0 0 793 1121"><defs><clipPath id="1"><path d="M0 841L0 -0.9199829L0 -0.9199829L595.32 -0.9199829L595.32 -0.9199829L595.32 841L595.32 841L0 841z" /></clipPath><clipPath id="2"><path d="M0.00125 841.0914L595.4112 841.0914L595.4112 841.0914L595.4112 -0.9186401L595.4112 -0.9186401L0.00125 -0.9186401z" /></clipPath><clipPath id="3"><path d="M295.13 780.251L305.21 780.251L305.21 780.251L305.21 768.011L305.21 768.011L295.13 768.011z" /></clipPath><clipPath id="4"><path d="M295.13 780.256L305.21 780.256L305.21 780.256L305.21 768.016L305.21 768.016L295.13 768.016z" /></clipPath><clipPath id="5"><path d="M295.13 780.256L305.21 780.256L305.21 780.256L305.21 768.016L305.21 768.016L295.13 768.016z" /></clipPath><clipPath id="6"><path d="M84.751 108.55L510.691 108.55L510.691 108.55L510.691 89.44L510.691 89.44L84.751 89.44z" /></clipPath><clipPath id="7"><path d="M84.744 108.54L510.694 108.54L510.694 108.54L510.694 89.43597L510.694 89.43597L84.744 89.43597z" /></clipPath><clipPath id="8"><path d="M84.744 108.54L510.694 108.54L510.694 108.54L510.694 89.43597L510.694 89.43597L84.744 89.43597z" /></clipPath><clipPath id="9"><path d="M84.744 108.54L510.694 108.54L510.694 108.54L510.694 89.43597L510.694 89.43597L84.744 89.43597z" /></clipPath><clipPath id="10"><path d="M84.751 394.77L510.691 394.77L510.691 394.77L510.691 109.03L510.691 109.03L84.751 109.03z" /></clipPath><clipPath id="11"><path d="M84.744 394.77L510.694 394.77L510.694 394.77L510.694 109.03L510.694 109.03L84.744 109.03z" /></clipPath><clipPath id="12"><path d="M84.744 394.77L510.694 394.77L510.694 394.77L510.694 109.03L510.694 109.03L84.744 109.03z" /></clipPath><clipPath id="13"><path d="M84.744 394.77L510.694 394.77L510.694 394.77L510.694 109.03L510.694 109.03L84.744 109.03z" /></clipPath><clipPath id="14"><path d="M84.744 394.77L510.694 394.77L510.694 394.77L510.694 109.03L510.694 109.03L84.744 109.03z" /></clipPath><clipPath id="15"><path d="M84.744 394.77L510.694 394.77L510.694 394.77L510.694 109.03L510.694 109.03L84.744 109.03z" /></clipPath><clipPath id="16"><path d="M84.744 394.77L510.694 394.77L510.694 394.77L510.694 109.03L510.694 109.03L84.744 109.03z" /></clipPath><clipPath id="17"><path d="M84.744 394.77L510.694 394.77L510.694 394.77L510.694 109.03L510.694 109.03L84.744 109.03z" /></clipPath><clipPath id="18"><path d="M84.744 394.77L510.694 394.77L510.694 394.77L510.694 109.03L510.694 109.03L84.744 109.03z" /></clipPath><clipPath id="19"><path d="M84.744 394.77L510.694 394.77L510.694 394.77L510.694 109.03L510.694 109.03L84.744 109.03z" /></clipPath><clipPath id="20"><path d="M84.744 394.77L510.694 394.77L510.694 394.77L510.694 109.03L510.694 109.03L84.744 109.03z" /></clipPath><clipPath id="21"><path d="M84.744 394.77L510.694 394.77L510.694 394.77L510.694 109.03L510.694 109.03L84.744 109.03z" /></clipPath><clipPath id="22"><path d="M84.744 394.77L510.694 394.77L510.694 394.77L510.694 109.03L510.694 109.03L84.744 109.03z" /></clipPath><clipPath id="23"><path d="M84.744 394.77L510.694 394.77L510.694 394.77L510.694 109.03L510.694 109.03L84.744 109.03z" /></clipPath><clipPath id="24"><path d="M84.744 394.77L510.694 394.77L510.694 394.77L510.694 109.03L510.694 109.03L84.744 109.03z" /></clipPath><clipPath id="25"><path d="M84.744 394.77L510.694 394.77L510.694 394.77L510.694 109.03L510.694 109.03L84.744 109.03z" /></clipPath><clipPath id="26"><path d="M84.744 394.77L510.694 394.77L510.694 394.77L510.694 109.03L510.694 109.03L84.744 109.03z" /></clipPath><clipPath id="27"><path d="M84.744 394.77L510.694 394.77L510.694 394.77L510.694 109.03L510.694 109.03L84.744 109.03z" /></clipPath><clipPath id="28"><path d="M84.744 394.77L510.694 394.77L510.694 394.77L510.694 109.03L510.694 109.03L84.744 109.03z" /></clipPath><clipPath id="29"><path d="M84.744 394.77L510.694 394.77L510.694 394.77L510.694 109.03L510.694 109.03L84.744 109.03z" /></clipPath><clipPath id="30"><path d="M84.744 394.77L510.694 394.77L510.694 394.77L510.694 109.03L510.694 109.03L84.744 109.03z" /></clipPath><clipPath id="31"><path d="M84.744 394.77L510.694 394.77L510.694 394.77L510.694 109.03L510.694 109.03L84.744 109.03z" /></clipPath><clipPath id="32"><path d="M84.744 394.77L510.694 394.77L510.694 394.77L510.694 109.03L510.694 109.03L84.744 109.03z" /></clipPath><clipPath id="33"><path d="M84.744 394.77L510.694 394.77L510.694 394.77L510.694 109.03L510.694 109.03L84.744 109.03z" /></clipPath><clipPath id="34"><path d="M84.744 394.77L510.694 394.77L510.694 394.77L510.694 109.03L510.694 109.03L84.744 109.03z" /></clipPath><clipPath id="35"><path d="M84.744 394.77L510.694 394.77L510.694 394.77L510.694 109.03L510.694 109.03L84.744 109.03z" /></clipPath><clipPath id="36"><path d="M84.744 394.77L510.694 394.77L510.694 394.77L510.694 109.03L510.694 109.03L84.744 109.03z" /></clipPath><clipPath id="37"><path d="M84.744 394.77L510.694 394.77L510.694 394.77L510.694 109.03L510.694 109.03L84.744 109.03z" /></clipPath><clipPath id="38"><path d="M84.744 394.77L510.694 394.77L510.694 394.77L510.694 109.03L510.694 109.03L84.744 109.03z" /></clipPath><clipPath id="39"><path d="M84.744 394.77L510.694 394.77L510.694 394.77L510.694 109.03L510.694 109.03L84.744 109.03z" /></clipPath><clipPath id="40"><path d="M84.744 394.77L510.694 394.77L510.694 394.77L510.694 109.03L510.694 109.03L84.744 109.03z" /></clipPath><clipPath id="41"><path d="M84.744 394.77L510.694 394.77L510.694 394.77L510.694 109.03L510.694 109.03L84.744 109.03z" /></clipPath><clipPath id="42"><path d="M84.744 394.77L510.694 394.77L510.694 394.77L510.694 109.03L510.694 109.03L84.744 109.03z" /></clipPath><clipPath id="43"><path d="M84.744 394.77L510.694 394.77L510.694 394.77L510.694 109.03L510.694 109.03L84.744 109.03z" /></clipPath><clipPath id="44"><path d="M84.744 394.77L510.694 394.77L510.694 394.77L510.694 109.03L510.694 109.03L84.744 109.03z" /></clipPath><clipPath id="45"><path d="M84.744 394.77L510.694 394.77L510.694 394.77L510.694 109.03L510.694 109.03L84.744 109.03z" /></clipPath><clipPath id="46"><path d="M84.744 394.77L510.694 394.77L510.694 394.77L510.694 109.03L510.694 109.03L84.744 109.03z" /></clipPath><clipPath id="47"><path d="M84.744 394.77L510.694 394.77L510.694 394.77L510.694 109.03L510.694 109.03L84.744 109.03z" /></clipPath><clipPath id="48"><path d="M84.744 394.77L510.694 394.77L510.694 394.77L510.694 109.03L510.694 109.03L84.744 109.03z" /></clipPath><clipPath id="49"><path d="M84.744 394.77L510.694 394.77L510.694 394.77L510.694 109.03L510.694 109.03L84.744 109.03z" /></clipPath><clipPath id="50"><path d="M84.744 394.77L510.694 394.77L510.694 394.77L510.694 109.03L510.694 109.03L84.744 109.03z" /></clipPath><clipPath id="51"><path d="M84.744 394.77L510.694 394.77L510.694 394.77L510.694 109.03L510.694 109.03L84.744 109.03z" /></clipPath><clipPath id="52"><path d="M84.744 394.77L510.694 394.77L510.694 394.77L510.694 109.03L510.694 109.03L84.744 109.03z" /></clipPath><clipPath id="53"><path d="M84.744 394.77L510.694 394.77L510.694 394.77L510.694 109.03L510.694 109.03L84.744 109.03z" /></clipPath><clipPath id="54"><path d="M84.744 394.77L510.694 394.77L510.694 394.77L510.694 109.03L510.694 109.03L84.744 109.03z" /></clipPath><clipPath id="55"><path d="M84.744 394.77L510.694 394.77L510.694 394.77L510.694 109.03L510.694 109.03L84.744 109.03z" /></clipPath><clipPath id="56"><path d="M84.744 394.77L510.694 394.77L510.694 394.77L510.694 109.03L510.694 109.03L84.744 109.03z" /></clipPath><clipPath id="57"><path d="M84.744 394.77L510.694 394.77L510.694 394.77L510.694 109.03L510.694 109.03L84.744 109.03z" /></clipPath><clipPath id="58"><path d="M84.744 394.77L510.694 394.77L510.694 394.77L510.694 109.03L510.694 109.03L84.744 109.03z" /></clipPath><clipPath id="59"><path d="M84.744 394.77L510.694 394.77L510.694 394.77L510.694 109.03L510.694 109.03L84.744 109.03z" /></clipPath><clipPath id="60"><path d="M84.744 394.77L510.694 394.77L510.694 394.77L510.694 109.03L510.694 109.03L84.744 109.03z" /></clipPath><clipPath id="61"><path d="M84.744 394.77L510.694 394.77L510.694 394.77L510.694 109.03L510.694 109.03L84.744 109.03z" /></clipPath><clipPath id="62"><path d="M84.744 394.77L510.694 394.77L510.694 394.77L510.694 109.03L510.694 109.03L84.744 109.03z" /></clipPath><clipPath id="63"><path d="M84.744 394.77L510.694 394.77L510.694 394.77L510.694 109.03L510.694 109.03L84.744 109.03z" /></clipPath><clipPath id="64"><path d="M84.744 394.77L510.694 394.77L510.694 394.77L510.694 109.03L510.694 109.03L84.744 109.03z" /></clipPath><clipPath id="65"><path d="M84.751 516L162.031 516L162.031 516L162.031 488.4L162.031 488.4L84.751 488.4z" /></clipPath><clipPath id="66"><path d="M84.744 515.99L162.024 515.99L162.024 515.99L162.024 488.39L162.024 488.39L84.744 488.39z" /></clipPath><clipPath id="67"><path d="M84.744 515.99L162.024 515.99L162.024 515.99L162.024 488.39L162.024 488.39L84.744 488.39z" /></clipPath><clipPath id="68"><path d="M162.51 516L222.885 516L222.885 516L222.885 488.4L222.885 488.4L162.51 488.4z" /></clipPath><clipPath id="69"><path d="M162.5 515.99L222.884 515.99L222.884 515.99L222.884 488.39L222.884 488.39L162.5 488.39z" /></clipPath><clipPath id="70"><path d="M162.5 515.99L222.884 515.99L222.884 515.99L222.884 488.39L222.884 488.39L162.5 488.39z" /></clipPath><clipPath id="71"><path d="M223.37 516L268.25 516L268.25 516L268.25 488.4L268.25 488.4L223.37 488.4z" /></clipPath><clipPath id="72"><path d="M223.37 515.99L268.25 515.99L268.25 515.99L268.25 488.39L268.25 488.39L223.37 488.39z" /></clipPath><clipPath id="73"><path d="M223.37 515.99L268.25 515.99L268.25 515.99L268.25 488.39L268.25 488.39L223.37 488.39z" /></clipPath><clipPath id="74"><path d="M268.85 516L374.6 516L374.6 516L374.6 488.4L374.6 488.4L268.85 488.4z" /></clipPath><clipPath id="75"><path d="M268.85 515.99L374.59 515.99L374.59 515.99L374.59 488.39L374.59 488.39L268.85 488.39z" /></clipPath><clipPath id="76"><path d="M268.85 515.99L374.59 515.99L374.59 515.99L374.59 488.39L374.59 488.39L268.85 488.39z" /></clipPath><clipPath id="77"><path d="M375.08 516L530.62 516L530.62 516L530.62 488.4L530.62 488.4L375.08 488.4z" /></clipPath><clipPath id="78"><path d="M375.07 515.99L530.61 515.99L530.61 515.99L530.61 488.39L530.61 488.39L375.07 488.39z" /></clipPath><clipPath id="79"><path d="M375.07 515.99L530.61 515.99L530.61 515.99L530.61 488.39L530.61 488.39L375.07 488.39z" /></clipPath><clipPath id="80"><path d="M84.751 577.32L162.031 577.32L162.031 577.32L162.031 516.48L162.031 516.48L84.751 516.48z" /></clipPath><clipPath id="81"><path d="M84.744 577.31L162.024 577.31L162.024 577.31L162.024 516.47L162.024 516.47L84.744 516.47z" /></clipPath><clipPath id="82"><path d="M84.744 577.31L162.024 577.31L162.024 577.31L162.024 516.47L162.024 516.47L84.744 516.47z" /></clipPath><clipPath id="83"><path d="M162.51 577.32L222.885 577.32L222.885 577.32L222.885 516.48L222.885 516.48L162.51 516.48z" /></clipPath><clipPath id="84"><path d="M162.5 577.31L222.884 577.31L222.884 577.31L222.884 516.47L222.884 516.47L162.5 516.47z" /></clipPath><clipPath id="85"><path d="M162.5 577.31L222.884 577.31L222.884 577.31L222.884 516.47L222.884 516.47L162.5 516.47z" /></clipPath><clipPath id="86"><path d="M223.37 577.32L268.25 577.32L268.25 577.32L268.25 516.48L268.25 516.48L223.37 516.48z" /></clipPath><clipPath id="87"><path d="M223.37 577.31L268.25 577.31L268.25 577.31L268.25 516.47L268.25 516.47L223.37 516.47z" /></clipPath><clipPath id="88"><path d="M223.37 577.31L268.25 577.31L268.25 577.31L268.25 516.47L268.25 516.47L223.37 516.47z" /></clipPath><clipPath id="89"><path d="M268.85 577.32L374.6 577.32L374.6 577.32L374.6 516.48L374.6 516.48L268.85 516.48z" /></clipPath><clipPath id="90"><path d="M268.85 577.31L374.59 577.31L374.59 577.31L374.59 516.47L374.59 516.47L268.85 516.47z" /></clipPath><clipPath id="91"><path d="M268.85 577.31L374.59 577.31L374.59 577.31L374.59 516.47L374.59 516.47L268.85 516.47z" /></clipPath><clipPath id="92"><path d="M268.85 577.31L374.59 577.31L374.59 577.31L374.59 516.47L374.59 516.47L268.85 516.47z" /></clipPath><clipPath id="93"><path d="M268.85 577.31L374.59 577.31L374.59 577.31L374.59 516.47L374.59 516.47L268.85 516.47z" /></clipPath><clipPath id="94"><path d="M375.08 577.32L530.62 577.32L530.62 577.32L530.62 516.48L530.62 516.48L375.08 516.48z" /></clipPath><clipPath id="95"><path d="M375.07 577.31L530.61 577.31L530.61 577.31L530.61 516.47L530.61 516.47L375.07 516.47z" /></clipPath><clipPath id="96"><path d="M375.07 577.31L530.61 577.31L530.61 577.31L530.61 516.47L530.61 516.47L375.07 516.47z" /></clipPath><clipPath id="97"><path d="M375.07 577.31L530.61 577.31L530.61 577.31L530.61 516.47L530.61 516.47L375.07 516.47z" /></clipPath><clipPath id="98"><path d="M84.751 605.4L162.031 605.4L162.031 605.4L162.031 577.8L162.031 577.8L84.751 577.8z" /></clipPath><clipPath id="99"><path d="M84.744 605.39L162.024 605.39L162.024 605.39L162.024 577.79L162.024 577.79L84.744 577.79z" /></clipPath><clipPath id="100"><path d="M84.744 605.39L162.024 605.39L162.024 605.39L162.024 577.79L162.024 577.79L84.744 577.79z" /></clipPath><clipPath id="101"><path d="M162.51 605.4L222.885 605.4L222.885 605.4L222.885 577.8L222.885 577.8L162.51 577.8z" /></clipPath><clipPath id="102"><path d="M162.5 605.39L222.884 605.39L222.884 605.39L222.884 577.79L222.884 577.79L162.5 577.79z" /></clipPath><clipPath id="103"><path d="M162.5 605.39L222.884 605.39L222.884 605.39L222.884 577.79L222.884 577.79L162.5 577.79z" /></clipPath><clipPath id="104"><path d="M223.37 605.4L268.25 605.4L268.25 605.4L268.25 577.8L268.25 577.8L223.37 577.8z" /></clipPath><clipPath id="105"><path d="M223.37 605.39L268.25 605.39L268.25 605.39L268.25 577.79L268.25 577.79L223.37 577.79z" /></clipPath><clipPath id="106"><path d="M223.37 605.39L268.25 605.39L268.25 605.39L268.25 577.79L268.25 577.79L223.37 577.79z" /></clipPath><clipPath id="107"><path d="M268.85 605.4L374.6 605.4L374.6 605.4L374.6 577.8L374.6 577.8L268.85 577.8z" /></clipPath><clipPath id="108"><path d="M268.85 605.39L374.59 605.39L374.59 605.39L374.59 577.79L374.59 577.79L268.85 577.79z" /></clipPath><clipPath id="109"><path d="M268.85 605.39L374.59 605.39L374.59 605.39L374.59 577.79L374.59 577.79L268.85 577.79z" /></clipPath><clipPath id="110"><path d="M375.08 605.4L530.62 605.4L530.62 605.4L530.62 577.8L530.62 577.8L375.08 577.8z" /></clipPath><clipPath id="111"><path d="M375.07 605.39L530.61 605.39L530.61 605.39L530.61 577.79L530.61 577.79L375.07 577.79z" /></clipPath><clipPath id="112"><path d="M375.07 605.39L530.61 605.39L530.61 605.39L530.61 577.79L530.61 577.79L375.07 577.79z" /></clipPath><clipPath id="113"><path d="M84.751 649.68L162.031 649.68L162.031 649.68L162.031 606L162.031 606L84.751 606z" /></clipPath><clipPath id="114"><path d="M84.744 649.67L162.024 649.67L162.024 649.67L162.024 605.99L162.024 605.99L84.744 605.99z" /></clipPath><clipPath id="115"><path d="M84.744 649.67L162.024 649.67L162.024 649.67L162.024 605.99L162.024 605.99L84.744 605.99z" /></clipPath><clipPath id="116"><path d="M84.744 649.67L162.024 649.67L162.024 649.67L162.024 605.99L162.024 605.99L84.744 605.99z" /></clipPath><clipPath id="117"><path d="M162.51 649.68L222.885 649.68L222.885 649.68L222.885 606L222.885 606L162.51 606z" /></clipPath><clipPath id="118"><path d="M162.5 649.67L222.884 649.67L222.884 649.67L222.884 605.99L222.884 605.99L162.5 605.99z" /></clipPath><clipPath id="119"><path d="M162.5 649.67L222.884 649.67L222.884 649.67L222.884 605.99L222.884 605.99L162.5 605.99z" /></clipPath><clipPath id="120"><path d="M223.37 649.68L268.25 649.68L268.25 649.68L268.25 606L268.25 606L223.37 606z" /></clipPath><clipPath id="121"><path d="M223.37 649.67L268.25 649.67L268.25 649.67L268.25 605.99L268.25 605.99L223.37 605.99z" /></clipPath><clipPath id="122"><path d="M223.37 649.67L268.25 649.67L268.25 649.67L268.25 605.99L268.25 605.99L223.37 605.99z" /></clipPath><clipPath id="123"><path d="M268.85 649.68L374.6 649.68L374.6 649.68L374.6 606L374.6 606L268.85 606z" /></clipPath><clipPath id="124"><path d="M268.85 649.67L374.59 649.67L374.59 649.67L374.59 605.99L374.59 605.99L268.85 605.99z" /></clipPath><clipPath id="125"><path d="M268.85 649.67L374.59 649.67L374.59 649.67L374.59 605.99L374.59 605.99L268.85 605.99z" /></clipPath><clipPath id="126"><path d="M268.85 649.67L374.59 649.67L374.59 649.67L374.59 605.99L374.59 605.99L268.85 605.99z" /></clipPath><clipPath id="127"><path d="M375.08 649.68L530.62 649.68L530.62 649.68L530.62 606L530.62 606L375.08 606z" /></clipPath><clipPath id="128"><path d="M375.07 649.67L530.61 649.67L530.61 649.67L530.61 605.99L530.61 605.99L375.07 605.99z" /></clipPath><clipPath id="129"><path d="M375.07 649.67L530.61 649.67L530.61 649.67L530.61 605.99L530.61 605.99L375.07 605.99z" /></clipPath><clipPath id="130"><path d="M84.751 677.77L162.031 677.77L162.031 677.77L162.031 650.155L162.031 650.155L84.751 650.155z" /></clipPath><clipPath id="131"><path d="M84.744 677.78L162.024 677.78L162.024 677.78L162.024 650.156L162.024 650.156L84.744 650.156z" /></clipPath><clipPath id="132"><path d="M84.744 677.78L162.024 677.78L162.024 677.78L162.024 650.156L162.024 650.156L84.744 650.156z" /></clipPath><clipPath id="133"><path d="M162.51 677.77L222.885 677.77L222.885 677.77L222.885 650.155L222.885 650.155L162.51 650.155z" /></clipPath><clipPath id="134"><path d="M162.5 677.78L222.884 677.78L222.884 677.78L222.884 650.156L222.884 650.156L162.5 650.156z" /></clipPath><clipPath id="135"><path d="M162.5 677.78L222.884 677.78L222.884 677.78L222.884 650.156L222.884 650.156L162.5 650.156z" /></clipPath><clipPath id="136"><path d="M223.37 677.77L268.25 677.77L268.25 677.77L268.25 650.155L268.25 650.155L223.37 650.155z" /></clipPath><clipPath id="137"><path d="M223.37 677.78L268.25 677.78L268.25 677.78L268.25 650.156L268.25 650.156L223.37 650.156z" /></clipPath><clipPath id="138"><path d="M223.37 677.78L268.25 677.78L268.25 677.78L268.25 650.156L268.25 650.156L223.37 650.156z" /></clipPath><clipPath id="139"><path d="M268.85 677.77L374.6 677.77L374.6 677.77L374.6 650.155L374.6 650.155L268.85 650.155z" /></clipPath><clipPath id="140"><path d="M268.85 677.78L374.59 677.78L374.59 677.78L374.59 650.156L374.59 650.156L268.85 650.156z" /></clipPath><clipPath id="141"><path d="M268.85 677.78L374.59 677.78L374.59 677.78L374.59 650.156L374.59 650.156L268.85 650.156z" /></clipPath><clipPath id="142"><path d="M375.08 677.77L530.62 677.77L530.62 677.77L530.62 650.155L530.62 650.155L375.08 650.155z" /></clipPath><clipPath id="143"><path d="M375.07 677.78L530.61 677.78L530.61 677.78L530.61 650.156L530.61 650.156L375.07 650.156z" /></clipPath><clipPath id="144"><path d="M375.07 677.78L530.61 677.78L530.61 677.78L530.61 650.156L530.61 650.156L375.07 650.156z" /></clipPath><clipPath id="145"><path d="M84.751 743.171L162.031 743.171L162.031 743.171L162.031 678.251L162.031 678.251L84.751 678.251z" /></clipPath><clipPath id="146"><path d="M84.744 743.176L162.024 743.176L162.024 743.176L162.024 678.256L162.024 678.256L84.744 678.256z" /></clipPath><clipPath id="147"><path d="M84.744 743.176L162.024 743.176L162.024 743.176L162.024 678.256L162.024 678.256L84.744 678.256z" /></clipPath><clipPath id="148"><path d="M162.51 743.171L222.885 743.171L222.885 743.171L222.885 678.251L222.885 678.251L162.51 678.251z" /></clipPath><clipPath id="149"><path d="M162.5 743.176L222.884 743.176L222.884 743.176L222.884 678.256L222.884 678.256L162.5 678.256z" /></clipPath><clipPath id="150"><path d="M162.5 743.176L222.884 743.176L222.884 743.176L222.884 678.256L222.884 678.256L162.5 678.256z" /></clipPath><clipPath id="151"><path d="M223.37 743.171L268.25 743.171L268.25 743.171L268.25 678.251L268.25 678.251L223.37 678.251z" /></clipPath><clipPath id="152"><path d="M223.37 743.176L268.25 743.176L268.25 743.176L268.25 678.256L268.25 678.256L223.37 678.256z" /></clipPath><clipPath id="153"><path d="M223.37 743.176L268.25 743.176L268.25 743.176L268.25 678.256L268.25 678.256L223.37 678.256z" /></clipPath><clipPath id="154"><path d="M268.85 743.171L374.6 743.171L374.6 743.171L374.6 678.251L374.6 678.251L268.85 678.251z" /></clipPath><clipPath id="155"><path d="M268.85 743.176L374.59 743.176L374.59 743.176L374.59 678.256L374.59 678.256L268.85 678.256z" /></clipPath><clipPath id="156"><path d="M375.08 743.171L530.62 743.171L530.62 743.171L530.62 678.251L530.62 678.251L375.08 678.251z" /></clipPath><clipPath id="157"><path d="M375.07 743.176L530.61 743.176L530.61 743.176L530.61 678.256L530.61 678.256L375.07 678.256z" /></clipPath><clipPath id="158"><path d="M375.07 743.176L530.61 743.176L530.61 743.176L530.61 678.256L530.61 678.256L375.07 678.256z" /></clipPath><clipPath id="159"><path d="M375.07 743.176L530.61 743.176L530.61 743.176L530.61 678.256L530.61 678.256L375.07 678.256z" /></clipPath><clipPath id="160"><path d="M375.07 743.176L530.61 743.176L530.61 743.176L530.61 678.256L530.61 678.256L375.07 678.256z" /></clipPath><clipPath id="161"><path d="M375.07 743.176L530.61 743.176L530.61 743.176L530.61 678.256L530.61 678.256L375.07 678.256z" /></clipPath><clipPath id="162"><path d="M375.07 743.176L530.61 743.176L530.61 743.176L530.61 678.256L530.61 678.256L375.07 678.256z" /></clipPath><clipPath id="163"><path d="M375.07 743.176L530.61 743.176L530.61 743.176L530.61 678.256L530.61 678.256L375.07 678.256z" /></clipPath></defs><g transform="matrix(1.333333 0 0 1.333333 0 0)"><g><g clip-path="url(#1)"><path transform="matrix(1 0 0 -1 0 841)" d="M457.63 53.424L505.534 53.424L505.534 53.424L505.534 54.02404L505.534 54.02404L457.63 54.02404z" stroke="none" fill="#000000" fill-rule="evenodd" /><g clip-path="url(#2)"><path transform="matrix(1 0 0 -1 0 841)" d="M88.464 78.984L506.974 78.984L506.974 78.984L506.974 81.984L506.974 81.984L88.464 81.984z" stroke="none" fill="#000000" fill-rule="evenodd" /><path transform="matrix(1 0 0 -1 0 841)" d="M88.464 77.544L506.974 77.544L506.974 77.544L506.974 78.26397L506.974 78.26397L88.464 78.26397z" stroke="none" fill="#000000" fill-rule="evenodd" /></g><g clip-path="url(#3)"><g clip-path="url(#4)"></g><g clip-path="url(#5)"></g></g><path transform="matrix(1 0 0 -1 0 841)" d="M84.744 732.46L510.694 732.46L510.694 732.46L510.694 751.564L510.694 751.564L84.744 751.564z" stroke="none" fill="#0070C0" fill-rule="evenodd" /><g clip-path="url(#6)"><path transform="matrix(1 0 0 -1 0 841)" d="M89.904 732.46L505.534 732.46L505.534 732.46L505.534 751.564L505.534 751.564L89.904 751.564z" stroke="none" fill="#0070C0" fill-rule="evenodd" /><g clip-path="url(#7)"></g><g clip-path="url(#8)"></g><g clip-path="url(#9)"></g></g><path transform="matrix(1 0 0 -1 0 841)" d="M84.264 751.56L84.744 751.56L84.744 751.56L84.744 752.04L84.744 752.04L84.264 752.04z" stroke="none" fill="#000000" fill-rule="evenodd" /><path transform="matrix(1 0 0 -1 0 841)" d="M84.264 751.56L84.744 751.56L84.744 751.56L84.744 752.04L84.744 752.04L84.264 752.04z" stroke="none" fill="#000000" fill-rule="evenodd" /><path transform="matrix(1 0 0 -1 0 841)" d="M84.744 751.56L510.694 751.56L510.694 751.56L510.694 752.04L510.694 752.04L84.744 752.04z" stroke="none" fill="#000000" fill-rule="evenodd" /><path transform="matrix(1 0 0 -1 0 841)" d="M510.7 751.56L511.18 751.56L511.18 751.56L511.18 752.04L511.18 752.04L510.7 752.04z" stroke="none" fill="#000000" fill-rule="evenodd" /><path transform="matrix(1 0 0 -1 0 841)" d="M510.7 751.56L511.18 751.56L511.18 751.56L511.18 752.04L511.18 752.04L510.7 752.04z" stroke="none" fill="#000000" fill-rule="evenodd" /><path transform="matrix(1 0 0 -1 0 841)" d="M84.264 732.46L84.744 732.46L84.744 732.46L84.744 751.564L84.744 751.564L84.264 751.564z" stroke="none" fill="#000000" fill-rule="evenodd" /><path transform="matrix(1 0 0 -1 0 841)" d="M510.7 732.46L511.18 732.46L511.18 732.46L511.18 751.564L511.18 751.564L510.7 751.564z" stroke="none" fill="#000000" fill-rule="evenodd" /><path transform="matrix(1 0 0 -1 0 841)" d="M84.744 446.23L510.694 446.23L510.694 446.23L510.694 731.97L510.694 731.97L84.744 731.97z" stroke="none" fill="#DAEEF3" fill-rule="evenodd" /><g clip-path="url(#10)"><path transform="matrix(1 0 0 -1 0 841)" d="M89.904 712.9L505.534 712.9L505.534 712.9L505.534 731.98L505.534 731.98L89.904 731.98z" stroke="none" fill="#DAEEF3" fill-rule="evenodd" /><g clip-path="url(#11)"></g><g clip-path="url(#12)"></g><g clip-path="url(#13)"></g><path transform="matrix(1 0 0 -1 0 841)" d="M89.904 693.94L505.534 693.94L505.534 693.94L505.534 712.9L505.534 712.9L89.904 712.9z" stroke="none" fill="#DAEEF3" fill-rule="evenodd" /><g clip-path="url(#14)"></g><g clip-path="url(#15)"></g><g clip-path="url(#16)"></g><path transform="matrix(1 0 0 -1 0 841)" d="M89.904 674.86L505.534 674.86L505.534 674.86L505.534 693.94L505.534 693.94L89.904 693.94z" stroke="none" fill="#DAEEF3" fill-rule="evenodd" /><g clip-path="url(#17)"></g><g clip-path="url(#18)"></g><g clip-path="url(#19)"></g><g clip-path="url(#20)"></g><path transform="matrix(1 0 0 -1 0 841)" d="M89.904 655.78L505.534 655.78L505.534 655.78L505.534 674.86L505.534 674.86L89.904 674.86z" stroke="none" fill="#DAEEF3" fill-rule="evenodd" /><g clip-path="url(#21)"></g><g clip-path="url(#22)"></g><g clip-path="url(#23)"></g><g clip-path="url(#24)"></g><g clip-path="url(#25)"></g><g clip-path="url(#26)"></g><path transform="matrix(1 0 0 -1 0 841)" d="M89.904 636.7L505.534 636.7L505.534 636.7L505.534 655.78L505.534 655.78L89.904 655.78z" stroke="none" fill="#DAEEF3" fill-rule="evenodd" /><g clip-path="url(#27)"></g><g clip-path="url(#28)"></g><g clip-path="url(#29)"></g><g clip-path="url(#30)"></g><path transform="matrix(1 0 0 -1 0 841)" d="M89.904 617.74L505.534 617.74L505.534 617.74L505.534 636.7L505.534 636.7L89.904 636.7z" stroke="none" fill="#DAEEF3" fill-rule="evenodd" /><g clip-path="url(#31)"></g><g clip-path="url(#32)"></g><g clip-path="url(#33)"></g><g clip-path="url(#34)"></g><g clip-path="url(#35)"></g><g clip-path="url(#36)"></g><path transform="matrix(1 0 0 -1 0 841)" d="M89.904 598.66L505.534 598.66L505.534 598.66L505.534 617.74L505.534 617.74L89.904 617.74z" stroke="none" fill="#DAEEF3" fill-rule="evenodd" /><g clip-path="url(#37)"></g><g clip-path="url(#38)"></g><g clip-path="url(#39)"></g><g clip-path="url(#40)"></g><path transform="matrix(1 0 0 -1 0 841)" d="M89.904 579.58L505.534 579.58L505.534 579.58L505.534 598.66L505.534 598.66L89.904 598.66z" stroke="none" fill="#DAEEF3" fill-rule="evenodd" /><g clip-path="url(#41)"></g><g clip-path="url(#42)"></g><g clip-path="url(#43)"></g><g clip-path="url(#44)"></g><path transform="matrix(1 0 0 -1 0 841)" d="M89.904 560.5L505.534 560.5L505.534 560.5L505.534 579.58L505.534 579.58L89.904 579.58z" stroke="none" fill="#DAEEF3" fill-rule="evenodd" /><g clip-path="url(#45)"></g><g clip-path="url(#46)"></g><g clip-path="url(#47)"></g><g clip-path="url(#48)"></g><path transform="matrix(1 0 0 -1 0 841)" d="M89.904 541.51L505.534 541.51L505.534 541.51L505.534 560.494L505.534 560.494L89.904 560.494z" stroke="none" fill="#DAEEF3" fill-rule="evenodd" /><g clip-path="url(#49)"></g><g clip-path="url(#50)"></g><g clip-path="url(#51)"></g><g clip-path="url(#52)"></g><path transform="matrix(1 0 0 -1 0 841)" d="M89.904 522.43L505.534 522.43L505.534 522.43L505.534 541.51L505.534 541.51L89.904 541.51z" stroke="none" fill="#DAEEF3" fill-rule="evenodd" /><g clip-path="url(#53)"></g><g clip-path="url(#54)"></g><g clip-path="url(#55)"></g><g clip-path="url(#56)"></g><path transform="matrix(1 0 0 -1 0 841)" d="M89.904 503.35L505.534 503.35L505.534 503.35L505.534 522.43L505.534 522.43L89.904 522.43z" stroke="none" fill="#DAEEF3" fill-rule="evenodd" /><g clip-path="url(#57)"></g><g clip-path="url(#58)"></g><g clip-path="url(#59)"></g><g clip-path="url(#60)"></g><path transform="matrix(1 0 0 -1 0 841)" d="M89.904 484.27L505.534 484.27L505.534 484.27L505.534 503.35L505.534 503.35L89.904 503.35z" stroke="none" fill="#DAEEF3" fill-rule="evenodd" /><g clip-path="url(#61)"></g><path transform="matrix(1 0 0 -1 0 841)" d="M89.904 465.31L505.534 465.31L505.534 465.31L505.534 484.27L505.534 484.27L89.904 484.27z" stroke="none" fill="#DAEEF3" fill-rule="evenodd" /><g clip-path="url(#62)"></g><path transform="matrix(1 0 0 -1 0 841)" d="M89.904 446.23L505.534 446.23L505.534 446.23L505.534 465.31L505.534 465.31L89.904 465.31z" stroke="none" fill="#DAEEF3" fill-rule="evenodd" /><g clip-path="url(#63)"></g><g clip-path="url(#64)"></g></g><path transform="matrix(1 0 0 -1 0 841)" d="M84.264 731.98L84.744 731.98L84.744 731.98L84.744 732.46L84.744 732.46L84.264 732.46z" stroke="none" fill="#000000" fill-rule="evenodd" /><path transform="matrix(1 0 0 -1 0 841)" d="M84.744 731.98L510.694 731.98L510.694 731.98L510.694 732.46L510.694 732.46L84.744 732.46z" stroke="none" fill="#000000" fill-rule="evenodd" /><path transform="matrix(1 0 0 -1 0 841)" d="M510.7 731.98L511.18 731.98L511.18 731.98L511.18 732.46L511.18 732.46L510.7 732.46z" stroke="none" fill="#000000" fill-rule="evenodd" /><path transform="matrix(1 0 0 -1 0 841)" d="M84.264 446.23L84.744 446.23L84.744 446.23L84.744 731.97L84.744 731.97L84.264 731.97z" stroke="none" fill="#000000" fill-rule="evenodd" /><path transform="matrix(1 0 0 -1 0 841)" d="M84.264 445.75L84.744 445.75L84.744 445.75L84.744 446.23L84.744 446.23L84.264 446.23z" stroke="none" fill="#000000" fill-rule="evenodd" /><path transform="matrix(1 0 0 -1 0 841)" d="M84.264 445.75L84.744 445.75L84.744 445.75L84.744 446.23L84.744 446.23L84.264 446.23z" stroke="none" fill="#000000" fill-rule="evenodd" /><path transform="matrix(1 0 0 -1 0 841)" d="M84.744 445.75L510.694 445.75L510.694 445.75L510.694 446.23L510.694 446.23L84.744 446.23z" stroke="none" fill="#000000" fill-rule="evenodd" /><path transform="matrix(1 0 0 -1 0 841)" d="M510.7 446.23L511.18 446.23L511.18 446.23L511.18 731.97L511.18 731.97L510.7 731.97z" stroke="none" fill="#000000" fill-rule="evenodd" /><path transform="matrix(1 0 0 -1 0 841)" d="M510.7 445.75L511.18 445.75L511.18 445.75L511.18 446.23L511.18 446.23L510.7 446.23z" stroke="none" fill="#000000" fill-rule="evenodd" /><path transform="matrix(1 0 0 -1 0 841)" d="M510.7 445.75L511.18 445.75L511.18 445.75L511.18 446.23L511.18 446.23L510.7 446.23z" stroke="none" fill="#000000" fill-rule="evenodd" /><path transform="matrix(1 0 0 -1 0 841)" d="M269.81 409.03L311.69 409.03L311.69 409.03L311.69 409.75L311.69 409.75L269.81 409.75z" stroke="none" fill="#000000" fill-rule="evenodd" /><path transform="matrix(1 0 0 -1 0 841)" d="M84.744 325.01L162.024 325.01L162.024 325.01L162.024 352.61L162.024 352.61L84.744 352.61z" stroke="none" fill="#0070C0" fill-rule="evenodd" /><g clip-path="url(#65)"><path transform="matrix(1 0 0 -1 0 841)" d="M89.904 325.01L156.864 325.01L156.864 325.01L156.864 352.61L156.864 352.61L89.904 352.61z" stroke="none" fill="#0070C0" fill-rule="evenodd" /><g clip-path="url(#66)"></g><g clip-path="url(#67)"></g></g><path transform="matrix(1 0 0 -1 0 841)" d="M162.5 325.01L222.884 325.01L222.884 325.01L222.884 352.61L222.884 352.61L162.5 352.61z" stroke="none" fill="#0070C0" fill-rule="evenodd" /><g clip-path="url(#68)"><path transform="matrix(1 0 0 -1 0 841)" d="M167.66 325.01L217.724 325.01L217.724 325.01L217.724 352.61L217.724 352.61L167.66 352.61z" stroke="none" fill="#0070C0" fill-rule="evenodd" /><g clip-path="url(#69)"></g><g clip-path="url(#70)"></g></g><path transform="matrix(1 0 0 -1 0 841)" d="M223.37 325.01L268.25 325.01L268.25 325.01L268.25 352.61L268.25 352.61L223.37 352.61z" stroke="none" fill="#0070C0" fill-rule="evenodd" /><g clip-path="url(#71)"><path transform="matrix(1 0 0 -1 0 841)" d="M228.53 325.01L263.09 325.01L263.09 325.01L263.09 352.61L263.09 352.61L228.53 352.61z" stroke="none" fill="#0070C0" fill-rule="evenodd" /><g clip-path="url(#72)"></g><g clip-path="url(#73)"></g></g><path transform="matrix(1 0 0 -1 0 841)" d="M268.85 325.01L374.59 325.01L374.59 325.01L374.59 352.61L374.59 352.61L268.85 352.61z" stroke="none" fill="#0070C0" fill-rule="evenodd" /><g clip-path="url(#74)"><path transform="matrix(1 0 0 -1 0 841)" d="M273.89 325.01L369.434 325.01L369.434 325.01L369.434 352.61L369.434 352.61L273.89 352.61z" stroke="none" fill="#0070C0" fill-rule="evenodd" /><g clip-path="url(#75)"></g><g clip-path="url(#76)"></g></g><path transform="matrix(1 0 0 -1 0 841)" d="M375.07 325.01L530.61 325.01L530.61 325.01L530.61 352.61L530.61 352.61L375.07 352.61z" stroke="none" fill="#0070C0" fill-rule="evenodd" /><g clip-path="url(#77)"><path transform="matrix(1 0 0 -1 0 841)" d="M380.23 325.01L525.45 325.01L525.45 325.01L525.45 352.61L525.45 352.61L380.23 352.61z" stroke="none" fill="#0070C0" fill-rule="evenodd" /><g clip-path="url(#78)"></g><g clip-path="url(#79)"></g></g><path transform="matrix(1 0 0 -1 0 841)" d="M84.264 352.61L84.744 352.61L84.744 352.61L84.744 353.09L84.744 353.09L84.264 353.09z" stroke="none" fill="#000000" fill-rule="evenodd" /><path transform="matrix(1 0 0 -1 0 841)" d="M84.264 352.61L84.744 352.61L84.744 352.61L84.744 353.09L84.744 353.09L84.264 353.09z" stroke="none" fill="#000000" fill-rule="evenodd" /><path transform="matrix(1 0 0 -1 0 841)" d="M84.744 352.61L162.024 352.61L162.024 352.61L162.024 353.09L162.024 353.09L84.744 353.09z" stroke="none" fill="#000000" fill-rule="evenodd" /><path transform="matrix(1 0 0 -1 0 841)" d="M162.02 352.61L162.5 352.61L162.5 352.61L162.5 353.09L162.5 353.09L162.02 353.09z" stroke="none" fill="#000000" fill-rule="evenodd" /><path transform="matrix(1 0 0 -1 0 841)" d="M162.5 352.61L222.884 352.61L222.884 352.61L222.884 353.09L222.884 353.09L162.5 353.09z" stroke="none" fill="#000000" fill-rule="evenodd" /><path transform="matrix(1 0 0 -1 0 841)" d="M222.89 352.61L223.37 352.61L223.37 352.61L223.37 353.09L223.37 353.09L222.89 353.09z" stroke="none" fill="#000000" fill-rule="evenodd" /><path transform="matrix(1 0 0 -1 0 841)" d="M223.37 352.61L268.37 352.61L268.37 352.61L268.37 353.09L268.37 353.09L223.37 353.09z" stroke="none" fill="#000000" fill-rule="evenodd" /><path transform="matrix(1 0 0 -1 0 841)" d="M268.37 352.61L268.85 352.61L268.85 352.61L268.85 353.09L268.85 353.09L268.37 353.09z" stroke="none" fill="#000000" fill-rule="evenodd" /><path transform="matrix(1 0 0 -1 0 841)" d="M268.85 352.61L374.71 352.61L374.71 352.61L374.71 353.09L374.71 353.09L268.85 353.09z" stroke="none" fill="#000000" fill-rule="evenodd" /><path transform="matrix(1 0 0 -1 0 841)" d="M374.71 352.61L375.19 352.61L375.19 352.61L375.19 353.09L375.19 353.09L374.71 353.09z" stroke="none" fill="#000000" fill-rule="evenodd" /><path transform="matrix(1 0 0 -1 0 841)" d="M375.19 352.61L530.61 352.61L530.61 352.61L530.61 353.09L530.61 353.09L375.19 353.09z" stroke="none" fill="#000000" fill-rule="evenodd" /><path transform="matrix(1 0 0 -1 0 841)" d="M530.62 352.61L531.1 352.61L531.1 352.61L531.1 353.09L531.1 353.09L530.62 353.09z" stroke="none" fill="#000000" fill-rule="evenodd" /><path transform="matrix(1 0 0 -1 0 841)" d="M530.62 352.61L531.1 352.61L531.1 352.61L531.1 353.09L531.1 353.09L530.62 353.09z" stroke="none" fill="#000000" fill-rule="evenodd" /><path transform="matrix(1 0 0 -1 0 841)" d="M84.264 325.01L84.744 325.01L84.744 325.01L84.744 352.61L84.744 352.61L84.264 352.61z" stroke="none" fill="#000000" fill-rule="evenodd" /><path transform="matrix(1 0 0 -1 0 841)" d="M162.02 325.01L162.5 325.01L162.5 325.01L162.5 352.61L162.5 352.61L162.02 352.61z" stroke="none" fill="#000000" fill-rule="evenodd" /><path transform="matrix(1 0 0 -1 0 841)" d="M222.89 325.01L223.37 325.01L223.37 325.01L223.37 352.61L223.37 352.61L222.89 352.61z" stroke="none" fill="#000000" fill-rule="evenodd" /><path transform="matrix(1 0 0 -1 0 841)" d="M268.37 325.01L268.85 325.01L268.85 325.01L268.85 352.61L268.85 352.61L268.37 352.61z" stroke="none" fill="#000000" fill-rule="evenodd" /><path transform="matrix(1 0 0 -1 0 841)" d="M374.71 325.01L375.19 325.01L375.19 325.01L375.19 352.61L375.19 352.61L374.71 352.61z" stroke="none" fill="#000000" fill-rule="evenodd" /><path transform="matrix(1 0 0 -1 0 841)" d="M530.62 325.01L531.1 325.01L531.1 325.01L531.1 352.61L531.1 352.61L530.62 352.61z" stroke="none" fill="#000000" fill-rule="evenodd" /><path transform="matrix(1 0 0 -1 0 841)" d="M84.744 263.69L162.024 263.69L162.024 263.69L162.024 324.53L162.024 324.53L84.744 324.53z" stroke="none" fill="#DAEEF3" fill-rule="evenodd" /><g clip-path="url(#80)"><path transform="matrix(1 0 0 -1 0 841)" d="M89.904 297.89L156.864 297.89L156.864 297.89L156.864 324.53L156.864 324.53L89.904 324.53z" stroke="none" fill="#DAEEF3" fill-rule="evenodd" /><g clip-path="url(#81)"></g><g clip-path="url(#82)"></g></g><path transform="matrix(1 0 0 -1 0 841)" d="M162.5 263.69L222.884 263.69L222.884 263.69L222.884 324.53L222.884 324.53L162.5 324.53z" stroke="none" fill="#DAEEF3" fill-rule="evenodd" /><g clip-path="url(#83)"><path transform="matrix(1 0 0 -1 0 841)" d="M167.66 297.89L217.724 297.89L217.724 297.89L217.724 324.53L217.724 324.53L167.66 324.53z" stroke="none" fill="#DAEEF3" fill-rule="evenodd" /><g clip-path="url(#84)"></g><g clip-path="url(#85)"></g></g><path transform="matrix(1 0 0 -1 0 841)" d="M223.37 263.69L268.25 263.69L268.25 263.69L268.25 324.53L268.25 324.53L223.37 324.53z" stroke="none" fill="#DAEEF3" fill-rule="evenodd" /><g clip-path="url(#86)"><path transform="matrix(1 0 0 -1 0 841)" d="M228.53 296.81L263.09 296.81L263.09 296.81L263.09 324.53L263.09 324.53L228.53 324.53z" stroke="none" fill="#DAEEF3" fill-rule="evenodd" /><g clip-path="url(#87)"></g><g clip-path="url(#88)"></g></g><path transform="matrix(1 0 0 -1 0 841)" d="M268.85 263.69L374.59 263.69L374.59 263.69L374.59 324.53L374.59 324.53L268.85 324.53z" stroke="none" fill="#DAEEF3" fill-rule="evenodd" /><g clip-path="url(#89)"><path transform="matrix(1 0 0 -1 0 841)" d="M273.89 302.69L369.434 302.69L369.434 302.69L369.434 324.53L369.434 324.53L273.89 324.53z" stroke="none" fill="#DAEEF3" fill-rule="evenodd" /><g clip-path="url(#90)"></g><path transform="matrix(1 0 0 -1 0 841)" d="M273.89 285.53L369.434 285.53L369.434 285.53L369.434 302.69L369.434 302.69L273.89 302.69z" stroke="none" fill="#DAEEF3" fill-rule="evenodd" /><g clip-path="url(#91)"></g><path transform="matrix(1 0 0 -1 0 841)" d="M273.89 263.69L369.434 263.69L369.434 263.69L369.434 285.53L369.434 285.53L273.89 285.53z" stroke="none" fill="#DAEEF3" fill-rule="evenodd" /><g clip-path="url(#92)"></g><g clip-path="url(#93)"></g></g><path transform="matrix(1 0 0 -1 0 841)" d="M375.07 263.69L530.61 263.69L530.61 263.69L530.61 324.53L530.61 324.53L375.07 324.53z" stroke="none" fill="#DAEEF3" fill-rule="evenodd" /><g clip-path="url(#94)"><path transform="matrix(1 0 0 -1 0 841)" d="M380.23 301.61L525.45 301.61L525.45 301.61L525.45 324.53L525.45 324.53L380.23 324.53z" stroke="none" fill="#DAEEF3" fill-rule="evenodd" /><g clip-path="url(#95)"></g><path transform="matrix(1 0 0 -1 0 841)" d="M380.23 279.77L525.45 279.77L525.45 279.77L525.45 301.61L525.45 301.61L380.23 301.61z" stroke="none" fill="#DAEEF3" fill-rule="evenodd" /><g clip-path="url(#96)"></g><g clip-path="url(#97)"></g></g><path transform="matrix(1 0 0 -1 0 841)" d="M84.264 324.53L84.744 324.53L84.744 324.53L84.744 325.01L84.744 325.01L84.264 325.01z" stroke="none" fill="#000000" fill-rule="evenodd" /><path transform="matrix(1 0 0 -1 0 841)" d="M84.744 324.53L162.024 324.53L162.024 324.53L162.024 325.01L162.024 325.01L84.744 325.01z" stroke="none" fill="#000000" fill-rule="evenodd" /><path transform="matrix(1 0 0 -1 0 841)" d="M162.02 324.53L162.5 324.53L162.5 324.53L162.5 325.01L162.5 325.01L162.02 325.01z" stroke="none" fill="#000000" fill-rule="evenodd" /><path transform="matrix(1 0 0 -1 0 841)" d="M162.5 324.53L222.884 324.53L222.884 324.53L222.884 325.01L222.884 325.01L162.5 325.01z" stroke="none" fill="#000000" fill-rule="evenodd" /><path transform="matrix(1 0 0 -1 0 841)" d="M222.89 324.53L223.37 324.53L223.37 324.53L223.37 325.01L223.37 325.01L222.89 325.01z" stroke="none" fill="#000000" fill-rule="evenodd" /><path transform="matrix(1 0 0 -1 0 841)" d="M223.37 324.53L268.37 324.53L268.37 324.53L268.37 325.01L268.37 325.01L223.37 325.01z" stroke="none" fill="#000000" fill-rule="evenodd" /><path transform="matrix(1 0 0 -1 0 841)" d="M268.37 324.53L268.85 324.53L268.85 324.53L268.85 325.01L268.85 325.01L268.37 325.01z" stroke="none" fill="#000000" fill-rule="evenodd" /><path transform="matrix(1 0 0 -1 0 841)" d="M268.85 324.53L374.71 324.53L374.71 324.53L374.71 325.01L374.71 325.01L268.85 325.01z" stroke="none" fill="#000000" fill-rule="evenodd" /><path transform="matrix(1 0 0 -1 0 841)" d="M374.71 324.53L375.19 324.53L375.19 324.53L375.19 325.01L375.19 325.01L374.71 325.01z" stroke="none" fill="#000000" fill-rule="evenodd" /><path transform="matrix(1 0 0 -1 0 841)" d="M375.19 324.53L530.61 324.53L530.61 324.53L530.61 325.01L530.61 325.01L375.19 325.01z" stroke="none" fill="#000000" fill-rule="evenodd" /><path transform="matrix(1 0 0 -1 0 841)" d="M530.62 324.53L531.1 324.53L531.1 324.53L531.1 325.01L531.1 325.01L530.62 325.01z" stroke="none" fill="#000000" fill-rule="evenodd" /><path transform="matrix(1 0 0 -1 0 841)" d="M84.264 263.69L84.744 263.69L84.744 263.69L84.744 324.53L84.744 324.53L84.264 324.53z" stroke="none" fill="#000000" fill-rule="evenodd" /><path transform="matrix(1 0 0 -1 0 841)" d="M162.02 263.69L162.5 263.69L162.5 263.69L162.5 324.53L162.5 324.53L162.02 324.53z" stroke="none" fill="#000000" fill-rule="evenodd" /><path transform="matrix(1 0 0 -1 0 841)" d="M222.89 263.69L223.37 263.69L223.37 263.69L223.37 324.53L223.37 324.53L222.89 324.53z" stroke="none" fill="#000000" fill-rule="evenodd" /><path transform="matrix(1 0 0 -1 0 841)" d="M268.37 263.69L268.85 263.69L268.85 263.69L268.85 324.53L268.85 324.53L268.37 324.53z" stroke="none" fill="#000000" fill-rule="evenodd" /><path transform="matrix(1 0 0 -1 0 841)" d="M374.71 263.69L375.19 263.69L375.19 263.69L375.19 324.53L375.19 324.53L374.71 324.53z" stroke="none" fill="#000000" fill-rule="evenodd" /><path transform="matrix(1 0 0 -1 0 841)" d="M530.62 263.69L531.1 263.69L531.1 263.69L531.1 324.53L531.1 324.53L530.62 324.53z" stroke="none" fill="#000000" fill-rule="evenodd" /><g clip-path="url(#98)"><g clip-path="url(#99)"></g><g clip-path="url(#100)"></g></g><g clip-path="url(#101)"><g clip-path="url(#102)"></g><g clip-path="url(#103)"></g></g><g clip-path="url(#104)"><g clip-path="url(#105)"></g><g clip-path="url(#106)"></g></g><g clip-path="url(#107)"><g clip-path="url(#108)"></g><g clip-path="url(#109)"></g></g><g clip-path="url(#110)"><g clip-path="url(#111)"></g><g clip-path="url(#112)"></g></g><path transform="matrix(1 0 0 -1 0 841)" d="M84.264 263.21L84.744 263.21L84.744 263.21L84.744 263.69L84.744 263.69L84.264 263.69z" stroke="none" fill="#000000" fill-rule="evenodd" /><path transform="matrix(1 0 0 -1 0 841)" d="M84.744 263.21L162.024 263.21L162.024 263.21L162.024 263.69L162.024 263.69L84.744 263.69z" stroke="none" fill="#000000" fill-rule="evenodd" /><path transform="matrix(1 0 0 -1 0 841)" d="M162.02 263.21L162.5 263.21L162.5 263.21L162.5 263.69L162.5 263.69L162.02 263.69z" stroke="none" fill="#000000" fill-rule="evenodd" /><path transform="matrix(1 0 0 -1 0 841)" d="M162.5 263.21L222.884 263.21L222.884 263.21L222.884 263.69L222.884 263.69L162.5 263.69z" stroke="none" fill="#000000" fill-rule="evenodd" /><path transform="matrix(1 0 0 -1 0 841)" d="M222.89 263.21L223.37 263.21L223.37 263.21L223.37 263.69L223.37 263.69L222.89 263.69z" stroke="none" fill="#000000" fill-rule="evenodd" /><path transform="matrix(1 0 0 -1 0 841)" d="M223.37 263.21L268.37 263.21L268.37 263.21L268.37 263.69L268.37 263.69L223.37 263.69z" stroke="none" fill="#000000" fill-rule="evenodd" /><path transform="matrix(1 0 0 -1 0 841)" d="M268.37 263.21L268.85 263.21L268.85 263.21L268.85 263.69L268.85 263.69L268.37 263.69z" stroke="none" fill="#000000" fill-rule="evenodd" /><path transform="matrix(1 0 0 -1 0 841)" d="M268.85 263.21L374.71 263.21L374.71 263.21L374.71 263.69L374.71 263.69L268.85 263.69z" stroke="none" fill="#000000" fill-rule="evenodd" /><path transform="matrix(1 0 0 -1 0 841)" d="M374.71 263.21L375.19 263.21L375.19 263.21L375.19 263.69L375.19 263.69L374.71 263.69z" stroke="none" fill="#000000" fill-rule="evenodd" /><path transform="matrix(1 0 0 -1 0 841)" d="M375.19 263.21L530.61 263.21L530.61 263.21L530.61 263.69L530.61 263.69L375.19 263.69z" stroke="none" fill="#000000" fill-rule="evenodd" /><path transform="matrix(1 0 0 -1 0 841)" d="M530.62 263.21L531.1 263.21L531.1 263.21L531.1 263.69L531.1 263.69L530.62 263.69z" stroke="none" fill="#000000" fill-rule="evenodd" /><path transform="matrix(1 0 0 -1 0 841)" d="M84.264 235.61L84.744 235.61L84.744 235.61L84.744 263.21L84.744 263.21L84.264 263.21z" stroke="none" fill="#000000" fill-rule="evenodd" /><path transform="matrix(1 0 0 -1 0 841)" d="M162.02 235.61L162.5 235.61L162.5 235.61L162.5 263.21L162.5 263.21L162.02 263.21z" stroke="none" fill="#000000" fill-rule="evenodd" /><path transform="matrix(1 0 0 -1 0 841)" d="M222.89 235.61L223.37 235.61L223.37 235.61L223.37 263.21L223.37 263.21L222.89 263.21z" stroke="none" fill="#000000" fill-rule="evenodd" /><path transform="matrix(1 0 0 -1 0 841)" d="M268.37 235.61L268.85 235.61L268.85 235.61L268.85 263.21L268.85 263.21L268.37 263.21z" stroke="none" fill="#000000" fill-rule="evenodd" /><path transform="matrix(1 0 0 -1 0 841)" d="M374.71 235.61L375.19 235.61L375.19 235.61L375.19 263.21L375.19 263.21L374.71 263.21z" stroke="none" fill="#000000" fill-rule="evenodd" /><path transform="matrix(1 0 0 -1 0 841)" d="M530.62 235.61L531.1 235.61L531.1 235.61L531.1 263.21L531.1 263.21L530.62 263.21z" stroke="none" fill="#000000" fill-rule="evenodd" /><path transform="matrix(1 0 0 -1 0 841)" d="M84.744 191.33L162.024 191.33L162.024 191.33L162.024 235.01L162.024 235.01L84.744 235.01z" stroke="none" fill="#DAEEF3" fill-rule="evenodd" /><g clip-path="url(#113)"><path transform="matrix(1 0 0 -1 0 841)" d="M89.904 213.17L156.864 213.17L156.864 213.17L156.864 235.01L156.864 235.01L89.904 235.01z" stroke="none" fill="#DAEEF3" fill-rule="evenodd" /><g clip-path="url(#114)"></g><path transform="matrix(1 0 0 -1 0 841)" d="M89.904 191.33L156.864 191.33L156.864 191.33L156.864 213.17L156.864 213.17L89.904 213.17z" stroke="none" fill="#DAEEF3" fill-rule="evenodd" /><g clip-path="url(#115)"></g><g clip-path="url(#116)"></g></g><path transform="matrix(1 0 0 -1 0 841)" d="M162.5 191.33L222.884 191.33L222.884 191.33L222.884 235.01L222.884 235.01L162.5 235.01z" stroke="none" fill="#DAEEF3" fill-rule="evenodd" /><g clip-path="url(#117)"><path transform="matrix(1 0 0 -1 0 841)" d="M167.66 208.49L217.724 208.49L217.724 208.49L217.724 235.01L217.724 235.01L167.66 235.01z" stroke="none" fill="#DAEEF3" fill-rule="evenodd" /><g clip-path="url(#118)"></g><g clip-path="url(#119)"></g></g><path transform="matrix(1 0 0 -1 0 841)" d="M223.37 191.33L268.25 191.33L268.25 191.33L268.25 235.01L268.25 235.01L223.37 235.01z" stroke="none" fill="#DAEEF3" fill-rule="evenodd" /><g clip-path="url(#120)"><path transform="matrix(1 0 0 -1 0 841)" d="M228.53 207.41L263.09 207.41L263.09 207.41L263.09 235.01L263.09 235.01L228.53 235.01z" stroke="none" fill="#DAEEF3" fill-rule="evenodd" /><g clip-path="url(#121)"></g><g clip-path="url(#122)"></g></g><path transform="matrix(1 0 0 -1 0 841)" d="M268.85 191.33L374.59 191.33L374.59 191.33L374.59 235.01L374.59 235.01L268.85 235.01z" stroke="none" fill="#DAEEF3" fill-rule="evenodd" /><g clip-path="url(#123)"><path transform="matrix(1 0 0 -1 0 841)" d="M273.89 213.17L369.434 213.17L369.434 213.17L369.434 235.01L369.434 235.01L273.89 235.01z" stroke="none" fill="#DAEEF3" fill-rule="evenodd" /><g clip-path="url(#124)"></g><path transform="matrix(1 0 0 -1 0 841)" d="M273.89 191.33L369.434 191.33L369.434 191.33L369.434 213.17L369.434 213.17L273.89 213.17z" stroke="none" fill="#DAEEF3" fill-rule="evenodd" /><g clip-path="url(#125)"></g><g clip-path="url(#126)"></g></g><path transform="matrix(1 0 0 -1 0 841)" d="M375.07 191.33L530.61 191.33L530.61 191.33L530.61 235.01L530.61 235.01L375.07 235.01z" stroke="none" fill="#DAEEF3" fill-rule="evenodd" /><g clip-path="url(#127)"><path transform="matrix(1 0 0 -1 0 841)" d="M380.23 207.41L525.45 207.41L525.45 207.41L525.45 235.01L525.45 235.01L380.23 235.01z" stroke="none" fill="#DAEEF3" fill-rule="evenodd" /><g clip-path="url(#128)"></g><g clip-path="url(#129)"></g></g><path transform="matrix(1 0 0 -1 0 841)" d="M84.264 235.13L84.744 235.13L84.744 235.13L84.744 235.61L84.744 235.61L84.264 235.61z" stroke="none" fill="#000000" fill-rule="evenodd" /><path transform="matrix(1 0 0 -1 0 841)" d="M84.744 235.13L162.024 235.13L162.024 235.13L162.024 235.61L162.024 235.61L84.744 235.61z" stroke="none" fill="#000000" fill-rule="evenodd" /><path transform="matrix(1 0 0 -1 0 841)" d="M162.02 235.13L162.5 235.13L162.5 235.13L162.5 235.61L162.5 235.61L162.02 235.61z" stroke="none" fill="#000000" fill-rule="evenodd" /><path transform="matrix(1 0 0 -1 0 841)" d="M162.5 235.13L222.884 235.13L222.884 235.13L222.884 235.61L222.884 235.61L162.5 235.61z" stroke="none" fill="#000000" fill-rule="evenodd" /><path transform="matrix(1 0 0 -1 0 841)" d="M222.89 235.13L223.37 235.13L223.37 235.13L223.37 235.61L223.37 235.61L222.89 235.61z" stroke="none" fill="#000000" fill-rule="evenodd" /><path transform="matrix(1 0 0 -1 0 841)" d="M223.37 235.13L268.37 235.13L268.37 235.13L268.37 235.61L268.37 235.61L223.37 235.61z" stroke="none" fill="#000000" fill-rule="evenodd" /><path transform="matrix(1 0 0 -1 0 841)" d="M268.37 235.13L268.85 235.13L268.85 235.13L268.85 235.61L268.85 235.61L268.37 235.61z" stroke="none" fill="#000000" fill-rule="evenodd" /><path transform="matrix(1 0 0 -1 0 841)" d="M268.85 235.13L374.71 235.13L374.71 235.13L374.71 235.61L374.71 235.61L268.85 235.61z" stroke="none" fill="#000000" fill-rule="evenodd" /><path transform="matrix(1 0 0 -1 0 841)" d="M374.71 235.13L375.19 235.13L375.19 235.13L375.19 235.61L375.19 235.61L374.71 235.61z" stroke="none" fill="#000000" fill-rule="evenodd" /><path transform="matrix(1 0 0 -1 0 841)" d="M375.19 235.13L530.61 235.13L530.61 235.13L530.61 235.61L530.61 235.61L375.19 235.61z" stroke="none" fill="#000000" fill-rule="evenodd" /><path transform="matrix(1 0 0 -1 0 841)" d="M530.62 235.13L531.1 235.13L531.1 235.13L531.1 235.61L531.1 235.61L530.62 235.61z" stroke="none" fill="#000000" fill-rule="evenodd" /><path transform="matrix(1 0 0 -1 0 841)" d="M84.264 191.33L84.744 191.33L84.744 191.33L84.744 235.13L84.744 235.13L84.264 235.13z" stroke="none" fill="#000000" fill-rule="evenodd" /><path transform="matrix(1 0 0 -1 0 841)" d="M162.02 191.33L162.5 191.33L162.5 191.33L162.5 235.13L162.5 235.13L162.02 235.13z" stroke="none" fill="#000000" fill-rule="evenodd" /><path transform="matrix(1 0 0 -1 0 841)" d="M222.89 191.33L223.37 191.33L223.37 191.33L223.37 235.13L223.37 235.13L222.89 235.13z" stroke="none" fill="#000000" fill-rule="evenodd" /><path transform="matrix(1 0 0 -1 0 841)" d="M268.37 191.33L268.85 191.33L268.85 191.33L268.85 235.13L268.85 235.13L268.37 235.13z" stroke="none" fill="#000000" fill-rule="evenodd" /><path transform="matrix(1 0 0 -1 0 841)" d="M374.71 191.33L375.19 191.33L375.19 191.33L375.19 235.13L375.19 235.13L374.71 235.13z" stroke="none" fill="#000000" fill-rule="evenodd" /><path transform="matrix(1 0 0 -1 0 841)" d="M530.62 191.33L531.1 191.33L531.1 191.33L531.1 235.13L531.1 235.13L530.62 235.13z" stroke="none" fill="#000000" fill-rule="evenodd" /><g clip-path="url(#130)"><g clip-path="url(#131)"></g><g clip-path="url(#132)"></g></g><g clip-path="url(#133)"><g clip-path="url(#134)"></g><g clip-path="url(#135)"></g></g><g clip-path="url(#136)"><g clip-path="url(#137)"></g><g clip-path="url(#138)"></g></g><g clip-path="url(#139)"><g clip-path="url(#140)"></g><g clip-path="url(#141)"></g></g><g clip-path="url(#142)"><g clip-path="url(#143)"></g><g clip-path="url(#144)"></g></g><path transform="matrix(1 0 0 -1 0 841)" d="M84.264 190.85L84.744 190.85L84.744 190.85L84.744 191.33L84.744 191.33L84.264 191.33z" stroke="none" fill="#000000" fill-rule="evenodd" /><path transform="matrix(1 0 0 -1 0 841)" d="M84.744 190.85L162.024 190.85L162.024 190.85L162.024 191.33L162.024 191.33L84.744 191.33z" stroke="none" fill="#000000" fill-rule="evenodd" /><path transform="matrix(1 0 0 -1 0 841)" d="M162.02 190.85L162.5 190.85L162.5 190.85L162.5 191.33L162.5 191.33L162.02 191.33z" stroke="none" fill="#000000" fill-rule="evenodd" /><path transform="matrix(1 0 0 -1 0 841)" d="M162.5 190.85L222.884 190.85L222.884 190.85L222.884 191.33L222.884 191.33L162.5 191.33z" stroke="none" fill="#000000" fill-rule="evenodd" /><path transform="matrix(1 0 0 -1 0 841)" d="M222.89 190.85L223.37 190.85L223.37 190.85L223.37 191.33L223.37 191.33L222.89 191.33z" stroke="none" fill="#000000" fill-rule="evenodd" /><path transform="matrix(1 0 0 -1 0 841)" d="M223.37 190.85L268.37 190.85L268.37 190.85L268.37 191.33L268.37 191.33L223.37 191.33z" stroke="none" fill="#000000" fill-rule="evenodd" /><path transform="matrix(1 0 0 -1 0 841)" d="M268.37 190.85L268.85 190.85L268.85 190.85L268.85 191.33L268.85 191.33L268.37 191.33z" stroke="none" fill="#000000" fill-rule="evenodd" /><path transform="matrix(1 0 0 -1 0 841)" d="M268.85 190.85L374.71 190.85L374.71 190.85L374.71 191.33L374.71 191.33L268.85 191.33z" stroke="none" fill="#000000" fill-rule="evenodd" /><path transform="matrix(1 0 0 -1 0 841)" d="M374.71 190.85L375.19 190.85L375.19 190.85L375.19 191.33L375.19 191.33L374.71 191.33z" stroke="none" fill="#000000" fill-rule="evenodd" /><path transform="matrix(1 0 0 -1 0 841)" d="M375.19 190.85L530.61 190.85L530.61 190.85L530.61 191.33L530.61 191.33L375.19 191.33z" stroke="none" fill="#000000" fill-rule="evenodd" /><path transform="matrix(1 0 0 -1 0 841)" d="M530.62 190.85L531.1 190.85L531.1 190.85L531.1 191.33L531.1 191.33L530.62 191.33z" stroke="none" fill="#000000" fill-rule="evenodd" /><path transform="matrix(1 0 0 -1 0 841)" d="M84.264 163.22L84.744 163.22L84.744 163.22L84.744 190.844L84.744 190.844L84.264 190.844z" stroke="none" fill="#000000" fill-rule="evenodd" /><path transform="matrix(1 0 0 -1 0 841)" d="M162.02 163.22L162.5 163.22L162.5 163.22L162.5 190.844L162.5 190.844L162.02 190.844z" stroke="none" fill="#000000" fill-rule="evenodd" /><path transform="matrix(1 0 0 -1 0 841)" d="M222.89 163.22L223.37 163.22L223.37 163.22L223.37 190.844L223.37 190.844L222.89 190.844z" stroke="none" fill="#000000" fill-rule="evenodd" /><path transform="matrix(1 0 0 -1 0 841)" d="M268.37 163.22L268.85 163.22L268.85 163.22L268.85 190.844L268.85 190.844L268.37 190.844z" stroke="none" fill="#000000" fill-rule="evenodd" /><path transform="matrix(1 0 0 -1 0 841)" d="M374.71 163.22L375.19 163.22L375.19 163.22L375.19 190.844L375.19 190.844L374.71 190.844z" stroke="none" fill="#000000" fill-rule="evenodd" /><path transform="matrix(1 0 0 -1 0 841)" d="M530.62 163.22L531.1 163.22L531.1 163.22L531.1 190.844L531.1 190.844L530.62 190.844z" stroke="none" fill="#000000" fill-rule="evenodd" /><path transform="matrix(1 0 0 -1 0 841)" d="M84.744 97.824L162.024 97.824L162.024 97.824L162.024 162.744L162.024 162.744L84.744 162.744z" stroke="none" fill="#DAEEF3" fill-rule="evenodd" /><g clip-path="url(#145)"><path transform="matrix(1 0 0 -1 0 841)" d="M89.904 136.1L156.864 136.1L156.864 136.1L156.864 162.74L156.864 162.74L89.904 162.74z" stroke="none" fill="#DAEEF3" fill-rule="evenodd" /><g clip-path="url(#146)"></g><g clip-path="url(#147)"></g></g><path transform="matrix(1 0 0 -1 0 841)" d="M162.5 97.824L222.884 97.824L222.884 97.824L222.884 162.744L222.884 162.744L162.5 162.744z" stroke="none" fill="#DAEEF3" fill-rule="evenodd" /><g clip-path="url(#148)"><path transform="matrix(1 0 0 -1 0 841)" d="M167.66 136.1L217.724 136.1L217.724 136.1L217.724 162.74L217.724 162.74L167.66 162.74z" stroke="none" fill="#DAEEF3" fill-rule="evenodd" /><g clip-path="url(#149)"></g><g clip-path="url(#150)"></g></g><path transform="matrix(1 0 0 -1 0 841)" d="M223.37 97.824L268.25 97.824L268.25 97.824L268.25 162.744L268.25 162.744L223.37 162.744z" stroke="none" fill="#DAEEF3" fill-rule="evenodd" /><g clip-path="url(#151)"><path transform="matrix(1 0 0 -1 0 841)" d="M228.53 135.02L263.09 135.02L263.09 135.02L263.09 162.74L263.09 162.74L228.53 162.74z" stroke="none" fill="#DAEEF3" fill-rule="evenodd" /><g clip-path="url(#152)"></g><g clip-path="url(#153)"></g></g><path transform="matrix(1 0 0 -1 0 841)" d="M268.85 97.824L374.59 97.824L374.59 97.824L374.59 162.744L374.59 162.744L268.85 162.744z" stroke="none" fill="#DAEEF3" fill-rule="evenodd" /><g clip-path="url(#154)"><path transform="matrix(1 0 0 -1 0 841)" d="M273.89 136.1L369.434 136.1L369.434 136.1L369.434 162.74L369.434 162.74L273.89 162.74z" stroke="none" fill="#DAEEF3" fill-rule="evenodd" /><g clip-path="url(#155)"></g></g><path transform="matrix(1 0 0 -1 0 841)" d="M375.07 97.824L530.61 97.824L530.61 97.824L530.61 162.744L530.61 162.744L375.07 162.744z" stroke="none" fill="#DAEEF3" fill-rule="evenodd" /><g clip-path="url(#156)"><path transform="matrix(1 0 0 -1 0 841)" d="M380.23 143.66L525.45 143.66L525.45 143.66L525.45 162.74L525.45 162.74L380.23 162.74z" stroke="none" fill="#DAEEF3" fill-rule="evenodd" /><g clip-path="url(#157)"></g><g clip-path="url(#158)"></g><g clip-path="url(#159)"></g><path transform="matrix(1 0 0 -1 0 841)" d="M380.23 120.74L525.45 120.74L525.45 120.74L525.45 143.66L525.45 143.66L380.23 143.66z" stroke="none" fill="#DAEEF3" fill-rule="evenodd" /><g clip-path="url(#160)"></g><path transform="matrix(1 0 0 -1 0 841)" d="M380.23 97.824L525.45 97.824L525.45 97.824L525.45 120.744L525.45 120.744L380.23 120.744z" stroke="none" fill="#DAEEF3" fill-rule="evenodd" /><g clip-path="url(#161)"></g><g clip-path="url(#162)"></g><g clip-path="url(#163)"></g></g><path transform="matrix(1 0 0 -1 0 841)" d="M84.264 162.74L84.744 162.74L84.744 162.74L84.744 163.22L84.744 163.22L84.264 163.22z" stroke="none" fill="#000000" fill-rule="evenodd" /><path transform="matrix(1 0 0 -1 0 841)" d="M84.744 162.74L162.024 162.74L162.024 162.74L162.024 163.22L162.024 163.22L84.744 163.22z" stroke="none" fill="#000000" fill-rule="evenodd" /><path transform="matrix(1 0 0 -1 0 841)" d="M162.02 162.74L162.5 162.74L162.5 162.74L162.5 163.22L162.5 163.22L162.02 163.22z" stroke="none" fill="#000000" fill-rule="evenodd" /><path transform="matrix(1 0 0 -1 0 841)" d="M162.5 162.74L222.884 162.74L222.884 162.74L222.884 163.22L222.884 163.22L162.5 163.22z" stroke="none" fill="#000000" fill-rule="evenodd" /><path transform="matrix(1 0 0 -1 0 841)" d="M222.89 162.74L223.37 162.74L223.37 162.74L223.37 163.22L223.37 163.22L222.89 163.22z" stroke="none" fill="#000000" fill-rule="evenodd" /><path transform="matrix(1 0 0 -1 0 841)" d="M223.37 162.74L268.37 162.74L268.37 162.74L268.37 163.22L268.37 163.22L223.37 163.22z" stroke="none" fill="#000000" fill-rule="evenodd" /><path transform="matrix(1 0 0 -1 0 841)" d="M268.37 162.74L268.85 162.74L268.85 162.74L268.85 163.22L268.85 163.22L268.37 163.22z" stroke="none" fill="#000000" fill-rule="evenodd" /><path transform="matrix(1 0 0 -1 0 841)" d="M268.85 162.74L374.71 162.74L374.71 162.74L374.71 163.22L374.71 163.22L268.85 163.22z" stroke="none" fill="#000000" fill-rule="evenodd" /><path transform="matrix(1 0 0 -1 0 841)" d="M374.71 162.74L375.19 162.74L375.19 162.74L375.19 163.22L375.19 163.22L374.71 163.22z" stroke="none" fill="#000000" fill-rule="evenodd" /><path transform="matrix(1 0 0 -1 0 841)" d="M375.19 162.74L530.61 162.74L530.61 162.74L530.61 163.22L530.61 163.22L375.19 163.22z" stroke="none" fill="#000000" fill-rule="evenodd" /><path transform="matrix(1 0 0 -1 0 841)" d="M530.62 162.74L531.1 162.74L531.1 162.74L531.1 163.22L531.1 163.22L530.62 163.22z" stroke="none" fill="#000000" fill-rule="evenodd" /><path transform="matrix(1 0 0 -1 0 841)" d="M84.264 97.824L84.744 97.824L84.744 97.824L84.744 162.744L84.744 162.744L84.264 162.744z" stroke="none" fill="#000000" fill-rule="evenodd" /><path transform="matrix(1 0 0 -1 0 841)" d="M84.264 97.344L84.744 97.344L84.744 97.344L84.744 97.82398L84.744 97.82398L84.264 97.82398z" stroke="none" fill="#000000" fill-rule="evenodd" /><path transform="matrix(1 0 0 -1 0 841)" d="M84.264 97.344L84.744 97.344L84.744 97.344L84.744 97.82398L84.744 97.82398L84.264 97.82398z" stroke="none" fill="#000000" fill-rule="evenodd" /><path transform="matrix(1 0 0 -1 0 841)" d="M84.744 97.344L162.024 97.344L162.024 97.344L162.024 97.82398L162.024 97.82398L84.744 97.82398z" stroke="none" fill="#000000" fill-rule="evenodd" /><path transform="matrix(1 0 0 -1 0 841)" d="M162.02 97.824L162.5 97.824L162.5 97.824L162.5 162.744L162.5 162.744L162.02 162.744z" stroke="none" fill="#000000" fill-rule="evenodd" /><path transform="matrix(1 0 0 -1 0 841)" d="M162.02 97.344L162.5 97.344L162.5 97.344L162.5 97.82398L162.5 97.82398L162.02 97.82398z" stroke="none" fill="#000000" fill-rule="evenodd" /><path transform="matrix(1 0 0 -1 0 841)" d="M162.5 97.344L222.884 97.344L222.884 97.344L222.884 97.82398L222.884 97.82398L162.5 97.82398z" stroke="none" fill="#000000" fill-rule="evenodd" /><path transform="matrix(1 0 0 -1 0 841)" d="M222.89 97.824L223.37 97.824L223.37 97.824L223.37 162.744L223.37 162.744L222.89 162.744z" stroke="none" fill="#000000" fill-rule="evenodd" /><path transform="matrix(1 0 0 -1 0 841)" d="M222.89 97.344L223.37 97.344L223.37 97.344L223.37 97.82398L223.37 97.82398L222.89 97.82398z" stroke="none" fill="#000000" fill-rule="evenodd" /><path transform="matrix(1 0 0 -1 0 841)" d="M223.37 97.344L268.37 97.344L268.37 97.344L268.37 97.82398L268.37 97.82398L223.37 97.82398z" stroke="none" fill="#000000" fill-rule="evenodd" /><path transform="matrix(1 0 0 -1 0 841)" d="M268.37 97.824L268.85 97.824L268.85 97.824L268.85 162.744L268.85 162.744L268.37 162.744z" stroke="none" fill="#000000" fill-rule="evenodd" /><path transform="matrix(1 0 0 -1 0 841)" d="M268.37 97.344L268.85 97.344L268.85 97.344L268.85 97.82398L268.85 97.82398L268.37 97.82398z" stroke="none" fill="#000000" fill-rule="evenodd" /><path transform="matrix(1 0 0 -1 0 841)" d="M268.85 97.344L374.71 97.344L374.71 97.344L374.71 97.82398L374.71 97.82398L268.85 97.82398z" stroke="none" fill="#000000" fill-rule="evenodd" /><path transform="matrix(1 0 0 -1 0 841)" d="M374.71 97.824L375.19 97.824L375.19 97.824L375.19 162.744L375.19 162.744L374.71 162.744z" stroke="none" fill="#000000" fill-rule="evenodd" /><path transform="matrix(1 0 0 -1 0 841)" d="M374.71 97.344L375.19 97.344L375.19 97.344L375.19 97.82398L375.19 97.82398L374.71 97.82398z" stroke="none" fill="#000000" fill-rule="evenodd" /><path transform="matrix(1 0 0 -1 0 841)" d="M375.19 97.344L530.61 97.344L530.61 97.344L530.61 97.82398L530.61 97.82398L375.19 97.82398z" stroke="none" fill="#000000" fill-rule="evenodd" /><path transform="matrix(1 0 0 -1 0 841)" d="M530.62 97.824L531.1 97.824L531.1 97.824L531.1 162.744L531.1 162.744L530.62 162.744z" stroke="none" fill="#000000" fill-rule="evenodd" /><path transform="matrix(1 0 0 -1 0 841)" d="M530.62 97.344L531.1 97.344L531.1 97.344L531.1 97.82398L531.1 97.82398L530.62 97.82398z" stroke="none" fill="#000000" fill-rule="evenodd" /><path transform="matrix(1 0 0 -1 0 841)" d="M530.62 97.344L531.1 97.344L531.1 97.344L531.1 97.82398L531.1 97.82398L530.62 97.82398z" stroke="none" fill="#000000" fill-rule="evenodd" /></g></g></g></svg>