<svg xmlns="http://www.w3.org/2000/svg" xmlns:xlink="http://www.w3.org/1999/xlink" id="body_80" preserveAspectRatio="xMinYMin meet" viewBox="0 0 793 1121"><defs><clipPath id="1"><path d="M0 841L0 -0.9199829L0 -0.9199829L595.32 -0.9199829L595.32 -0.9199829L595.32 841L595.32 841L0 841z" /></clipPath><clipPath id="2"><path d="M0.00125 841.0914L595.4112 841.0914L595.4112 841.0914L595.4112 -0.9186401L595.4112 -0.9186401L0.00125 -0.9186401z" /></clipPath><clipPath id="3"><path d="M288.05 779.771L316.01 779.771L316.01 779.771L316.01 760.691L316.01 760.691L288.05 760.691z" /></clipPath><clipPath id="4"><path d="M288.05 779.776L316.01 779.776L316.01 779.776L316.01 760.696L316.01 760.696L288.05 760.696z" /></clipPath><clipPath id="5"><path d="M288.05 779.776L316.01 779.776L316.01 779.776L316.01 760.696L316.01 760.696L288.05 760.696z" /></clipPath><clipPath id="6"><path d="M84.751 108.55L510.691 108.55L510.691 108.55L510.691 89.44L510.691 89.44L84.751 89.44z" /></clipPath><clipPath id="7"><path d="M84.744 108.54L510.694 108.54L510.694 108.54L510.694 89.43597L510.694 89.43597L84.744 89.43597z" /></clipPath><clipPath id="8"><path d="M84.744 108.54L510.694 108.54L510.694 108.54L510.694 89.43597L510.694 89.43597L84.744 89.43597z" /></clipPath><clipPath id="9"><path d="M84.744 108.54L510.694 108.54L510.694 108.54L510.694 89.43597L510.694 89.43597L84.744 89.43597z" /></clipPath><clipPath id="10"><path d="M84.744 108.54L510.694 108.54L510.694 108.54L510.694 89.43597L510.694 89.43597L84.744 89.43597z" /></clipPath><clipPath id="11"><path d="M84.744 108.54L510.694 108.54L510.694 108.54L510.694 89.43597L510.694 89.43597L84.744 89.43597z" /></clipPath><clipPath id="12"><path d="M84.744 108.54L510.694 108.54L510.694 108.54L510.694 89.43597L510.694 89.43597L84.744 89.43597z" /></clipPath><clipPath id="13"><path d="M84.744 108.54L510.694 108.54L510.694 108.54L510.694 89.43597L510.694 89.43597L84.744 89.43597z" /></clipPath><clipPath id="14"><path d="M84.744 108.54L510.694 108.54L510.694 108.54L510.694 89.43597L510.694 89.43597L84.744 89.43597z" /></clipPath><clipPath id="15"><path d="M84.751 490.08L510.691 490.08L510.691 490.08L510.691 109.03L510.691 109.03L84.751 109.03z" /></clipPath><clipPath id="16"><path d="M84.744 490.07L510.694 490.07L510.694 490.07L510.694 109.02L510.694 109.02L84.744 109.02z" /></clipPath><clipPath id="17"><path d="M84.744 490.07L510.694 490.07L510.694 490.07L510.694 109.02L510.694 109.02L84.744 109.02z" /></clipPath><clipPath id="18"><path d="M84.744 490.07L510.694 490.07L510.694 490.07L510.694 109.02L510.694 109.02L84.744 109.02z" /></clipPath><clipPath id="19"><path d="M84.744 490.07L510.694 490.07L510.694 490.07L510.694 109.02L510.694 109.02L84.744 109.02z" /></clipPath><clipPath id="20"><path d="M84.744 490.07L510.694 490.07L510.694 490.07L510.694 109.02L510.694 109.02L84.744 109.02z" /></clipPath><clipPath id="21"><path d="M84.744 490.07L510.694 490.07L510.694 490.07L510.694 109.02L510.694 109.02L84.744 109.02z" /></clipPath><clipPath id="22"><path d="M84.744 490.07L510.694 490.07L510.694 490.07L510.694 109.02L510.694 109.02L84.744 109.02z" /></clipPath><clipPath id="23"><path d="M84.744 490.07L510.694 490.07L510.694 490.07L510.694 109.02L510.694 109.02L84.744 109.02z" /></clipPath><clipPath id="24"><path d="M84.744 490.07L510.694 490.07L510.694 490.07L510.694 109.02L510.694 109.02L84.744 109.02z" /></clipPath><clipPath id="25"><path d="M84.744 490.07L510.694 490.07L510.694 490.07L510.694 109.02L510.694 109.02L84.744 109.02z" /></clipPath><clipPath id="26"><path d="M84.744 490.07L510.694 490.07L510.694 490.07L510.694 109.02L510.694 109.02L84.744 109.02z" /></clipPath><clipPath id="27"><path d="M84.744 490.07L510.694 490.07L510.694 490.07L510.694 109.02L510.694 109.02L84.744 109.02z" /></clipPath><clipPath id="28"><path d="M84.744 490.07L510.694 490.07L510.694 490.07L510.694 109.02L510.694 109.02L84.744 109.02z" /></clipPath><clipPath id="29"><path d="M84.744 490.07L510.694 490.07L510.694 490.07L510.694 109.02L510.694 109.02L84.744 109.02z" /></clipPath><clipPath id="30"><path d="M84.744 490.07L510.694 490.07L510.694 490.07L510.694 109.02L510.694 109.02L84.744 109.02z" /></clipPath><clipPath id="31"><path d="M84.744 490.07L510.694 490.07L510.694 490.07L510.694 109.02L510.694 109.02L84.744 109.02z" /></clipPath><clipPath id="32"><path d="M84.744 490.07L510.694 490.07L510.694 490.07L510.694 109.02L510.694 109.02L84.744 109.02z" /></clipPath><clipPath id="33"><path d="M84.744 490.07L510.694 490.07L510.694 490.07L510.694 109.02L510.694 109.02L84.744 109.02z" /></clipPath><clipPath id="34"><path d="M84.744 490.07L510.694 490.07L510.694 490.07L510.694 109.02L510.694 109.02L84.744 109.02z" /></clipPath><clipPath id="35"><path d="M84.744 490.07L510.694 490.07L510.694 490.07L510.694 109.02L510.694 109.02L84.744 109.02z" /></clipPath><clipPath id="36"><path d="M84.744 490.07L510.694 490.07L510.694 490.07L510.694 109.02L510.694 109.02L84.744 109.02z" /></clipPath><clipPath id="37"><path d="M84.744 490.07L510.694 490.07L510.694 490.07L510.694 109.02L510.694 109.02L84.744 109.02z" /></clipPath><clipPath id="38"><path d="M84.744 490.07L510.694 490.07L510.694 490.07L510.694 109.02L510.694 109.02L84.744 109.02z" /></clipPath><clipPath id="39"><path d="M84.744 490.07L510.694 490.07L510.694 490.07L510.694 109.02L510.694 109.02L84.744 109.02z" /></clipPath><clipPath id="40"><path d="M84.744 490.07L510.694 490.07L510.694 490.07L510.694 109.02L510.694 109.02L84.744 109.02z" /></clipPath><clipPath id="41"><path d="M84.744 490.07L510.694 490.07L510.694 490.07L510.694 109.02L510.694 109.02L84.744 109.02z" /></clipPath><clipPath id="42"><path d="M84.744 490.07L510.694 490.07L510.694 490.07L510.694 109.02L510.694 109.02L84.744 109.02z" /></clipPath><clipPath id="43"><path d="M84.744 490.07L510.694 490.07L510.694 490.07L510.694 109.02L510.694 109.02L84.744 109.02z" /></clipPath><clipPath id="44"><path d="M84.744 490.07L510.694 490.07L510.694 490.07L510.694 109.02L510.694 109.02L84.744 109.02z" /></clipPath><clipPath id="45"><path d="M84.744 490.07L510.694 490.07L510.694 490.07L510.694 109.02L510.694 109.02L84.744 109.02z" /></clipPath><clipPath id="46"><path d="M84.744 490.07L510.694 490.07L510.694 490.07L510.694 109.02L510.694 109.02L84.744 109.02z" /></clipPath><clipPath id="47"><path d="M84.744 490.07L510.694 490.07L510.694 490.07L510.694 109.02L510.694 109.02L84.744 109.02z" /></clipPath><clipPath id="48"><path d="M84.744 490.07L510.694 490.07L510.694 490.07L510.694 109.02L510.694 109.02L84.744 109.02z" /></clipPath><clipPath id="49"><path d="M84.744 490.07L510.694 490.07L510.694 490.07L510.694 109.02L510.694 109.02L84.744 109.02z" /></clipPath><clipPath id="50"><path d="M84.744 490.07L510.694 490.07L510.694 490.07L510.694 109.02L510.694 109.02L84.744 109.02z" /></clipPath><clipPath id="51"><path d="M84.744 490.07L510.694 490.07L510.694 490.07L510.694 109.02L510.694 109.02L84.744 109.02z" /></clipPath><clipPath id="52"><path d="M84.744 490.07L510.694 490.07L510.694 490.07L510.694 109.02L510.694 109.02L84.744 109.02z" /></clipPath><clipPath id="53"><path d="M84.744 490.07L510.694 490.07L510.694 490.07L510.694 109.02L510.694 109.02L84.744 109.02z" /></clipPath><clipPath id="54"><path d="M84.744 490.07L510.694 490.07L510.694 490.07L510.694 109.02L510.694 109.02L84.744 109.02z" /></clipPath><clipPath id="55"><path d="M84.744 490.07L510.694 490.07L510.694 490.07L510.694 109.02L510.694 109.02L84.744 109.02z" /></clipPath><clipPath id="56"><path d="M84.744 490.07L510.694 490.07L510.694 490.07L510.694 109.02L510.694 109.02L84.744 109.02z" /></clipPath><clipPath id="57"><path d="M84.744 490.07L510.694 490.07L510.694 490.07L510.694 109.02L510.694 109.02L84.744 109.02z" /></clipPath><clipPath id="58"><path d="M84.744 490.07L510.694 490.07L510.694 490.07L510.694 109.02L510.694 109.02L84.744 109.02z" /></clipPath><clipPath id="59"><path d="M84.744 490.07L510.694 490.07L510.694 490.07L510.694 109.02L510.694 109.02L84.744 109.02z" /></clipPath><clipPath id="60"><path d="M84.744 490.07L510.694 490.07L510.694 490.07L510.694 109.02L510.694 109.02L84.744 109.02z" /></clipPath><clipPath id="61"><path d="M84.744 490.07L510.694 490.07L510.694 490.07L510.694 109.02L510.694 109.02L84.744 109.02z" /></clipPath><clipPath id="62"><path d="M84.744 490.07L510.694 490.07L510.694 490.07L510.694 109.02L510.694 109.02L84.744 109.02z" /></clipPath><clipPath id="63"><path d="M84.744 490.07L510.694 490.07L510.694 490.07L510.694 109.02L510.694 109.02L84.744 109.02z" /></clipPath><clipPath id="64"><path d="M84.744 490.07L510.694 490.07L510.694 490.07L510.694 109.02L510.694 109.02L84.744 109.02z" /></clipPath><clipPath id="65"><path d="M84.744 490.07L510.694 490.07L510.694 490.07L510.694 109.02L510.694 109.02L84.744 109.02z" /></clipPath><clipPath id="66"><path d="M84.744 490.07L510.694 490.07L510.694 490.07L510.694 109.02L510.694 109.02L84.744 109.02z" /></clipPath><clipPath id="67"><path d="M84.744 490.07L510.694 490.07L510.694 490.07L510.694 109.02L510.694 109.02L84.744 109.02z" /></clipPath><clipPath id="68"><path d="M84.744 490.07L510.694 490.07L510.694 490.07L510.694 109.02L510.694 109.02L84.744 109.02z" /></clipPath><clipPath id="69"><path d="M84.744 490.07L510.694 490.07L510.694 490.07L510.694 109.02L510.694 109.02L84.744 109.02z" /></clipPath><clipPath id="70"><path d="M84.744 490.07L510.694 490.07L510.694 490.07L510.694 109.02L510.694 109.02L84.744 109.02z" /></clipPath><clipPath id="71"><path d="M84.744 490.07L510.694 490.07L510.694 490.07L510.694 109.02L510.694 109.02L84.744 109.02z" /></clipPath><clipPath id="72"><path d="M84.744 490.07L510.694 490.07L510.694 490.07L510.694 109.02L510.694 109.02L84.744 109.02z" /></clipPath><clipPath id="73"><path d="M84.744 490.07L510.694 490.07L510.694 490.07L510.694 109.02L510.694 109.02L84.744 109.02z" /></clipPath><clipPath id="74"><path d="M84.744 490.07L510.694 490.07L510.694 490.07L510.694 109.02L510.694 109.02L84.744 109.02z" /></clipPath><clipPath id="75"><path d="M84.744 490.07L510.694 490.07L510.694 490.07L510.694 109.02L510.694 109.02L84.744 109.02z" /></clipPath><clipPath id="76"><path d="M84.744 490.07L510.694 490.07L510.694 490.07L510.694 109.02L510.694 109.02L84.744 109.02z" /></clipPath><clipPath id="77"><path d="M84.744 490.07L510.694 490.07L510.694 490.07L510.694 109.02L510.694 109.02L84.744 109.02z" /></clipPath><clipPath id="78"><path d="M84.744 490.07L510.694 490.07L510.694 490.07L510.694 109.02L510.694 109.02L84.744 109.02z" /></clipPath><clipPath id="79"><path d="M84.744 490.07L510.694 490.07L510.694 490.07L510.694 109.02L510.694 109.02L84.744 109.02z" /></clipPath><clipPath id="80"><path d="M84.744 490.07L510.694 490.07L510.694 490.07L510.694 109.02L510.694 109.02L84.744 109.02z" /></clipPath><clipPath id="81"><path d="M84.744 490.07L510.694 490.07L510.694 490.07L510.694 109.02L510.694 109.02L84.744 109.02z" /></clipPath><clipPath id="82"><path d="M84.744 490.07L510.694 490.07L510.694 490.07L510.694 109.02L510.694 109.02L84.744 109.02z" /></clipPath><clipPath id="83"><path d="M84.744 490.07L510.694 490.07L510.694 490.07L510.694 109.02L510.694 109.02L84.744 109.02z" /></clipPath><clipPath id="84"><path d="M84.744 490.07L510.694 490.07L510.694 490.07L510.694 109.02L510.694 109.02L84.744 109.02z" /></clipPath><clipPath id="85"><path d="M84.744 490.07L510.694 490.07L510.694 490.07L510.694 109.02L510.694 109.02L84.744 109.02z" /></clipPath><clipPath id="86"><path d="M84.744 490.07L510.694 490.07L510.694 490.07L510.694 109.02L510.694 109.02L84.744 109.02z" /></clipPath><clipPath id="87"><path d="M84.744 490.07L510.694 490.07L510.694 490.07L510.694 109.02L510.694 109.02L84.744 109.02z" /></clipPath><clipPath id="88"><path d="M84.744 490.07L510.694 490.07L510.694 490.07L510.694 109.02L510.694 109.02L84.744 109.02z" /></clipPath><clipPath id="89"><path d="M84.744 490.07L510.694 490.07L510.694 490.07L510.694 109.02L510.694 109.02L84.744 109.02z" /></clipPath><clipPath id="90"><path d="M84.744 490.07L510.694 490.07L510.694 490.07L510.694 109.02L510.694 109.02L84.744 109.02z" /></clipPath><clipPath id="91"><path d="M84.744 490.07L510.694 490.07L510.694 490.07L510.694 109.02L510.694 109.02L84.744 109.02z" /></clipPath><clipPath id="92"><path d="M84.744 490.07L510.694 490.07L510.694 490.07L510.694 109.02L510.694 109.02L84.744 109.02z" /></clipPath><clipPath id="93"><path d="M84.744 490.07L510.694 490.07L510.694 490.07L510.694 109.02L510.694 109.02L84.744 109.02z" /></clipPath><clipPath id="94"><path d="M84.744 490.07L510.694 490.07L510.694 490.07L510.694 109.02L510.694 109.02L84.744 109.02z" /></clipPath><clipPath id="95"><path d="M84.744 490.07L510.694 490.07L510.694 490.07L510.694 109.02L510.694 109.02L84.744 109.02z" /></clipPath><clipPath id="96"><path d="M84.744 490.07L510.694 490.07L510.694 490.07L510.694 109.02L510.694 109.02L84.744 109.02z" /></clipPath><clipPath id="97"><path d="M84.744 490.07L510.694 490.07L510.694 490.07L510.694 109.02L510.694 109.02L84.744 109.02z" /></clipPath><clipPath id="98"><path d="M84.744 490.07L510.694 490.07L510.694 490.07L510.694 109.02L510.694 109.02L84.744 109.02z" /></clipPath><clipPath id="99"><path d="M84.744 490.07L510.694 490.07L510.694 490.07L510.694 109.02L510.694 109.02L84.744 109.02z" /></clipPath><clipPath id="100"><path d="M84.744 490.07L510.694 490.07L510.694 490.07L510.694 109.02L510.694 109.02L84.744 109.02z" /></clipPath><clipPath id="101"><path d="M84.744 490.07L510.694 490.07L510.694 490.07L510.694 109.02L510.694 109.02L84.744 109.02z" /></clipPath><clipPath id="102"><path d="M84.744 490.07L510.694 490.07L510.694 490.07L510.694 109.02L510.694 109.02L84.744 109.02z" /></clipPath><clipPath id="103"><path d="M84.744 490.07L510.694 490.07L510.694 490.07L510.694 109.02L510.694 109.02L84.744 109.02z" /></clipPath><clipPath id="104"><path d="M84.744 490.07L510.694 490.07L510.694 490.07L510.694 109.02L510.694 109.02L84.744 109.02z" /></clipPath><clipPath id="105"><path d="M84.744 490.07L510.694 490.07L510.694 490.07L510.694 109.02L510.694 109.02L84.744 109.02z" /></clipPath><clipPath id="106"><path d="M84.744 490.07L510.694 490.07L510.694 490.07L510.694 109.02L510.694 109.02L84.744 109.02z" /></clipPath><clipPath id="107"><path d="M84.744 490.07L510.694 490.07L510.694 490.07L510.694 109.02L510.694 109.02L84.744 109.02z" /></clipPath><clipPath id="108"><path d="M84.744 490.07L510.694 490.07L510.694 490.07L510.694 109.02L510.694 109.02L84.744 109.02z" /></clipPath><clipPath id="109"><path d="M84.744 490.07L510.694 490.07L510.694 490.07L510.694 109.02L510.694 109.02L84.744 109.02z" /></clipPath><clipPath id="110"><path d="M84.744 490.07L510.694 490.07L510.694 490.07L510.694 109.02L510.694 109.02L84.744 109.02z" /></clipPath><clipPath id="111"><path d="M84.744 490.07L510.694 490.07L510.694 490.07L510.694 109.02L510.694 109.02L84.744 109.02z" /></clipPath><clipPath id="112"><path d="M84.744 490.07L510.694 490.07L510.694 490.07L510.694 109.02L510.694 109.02L84.744 109.02z" /></clipPath><clipPath id="113"><path d="M84.744 490.07L510.694 490.07L510.694 490.07L510.694 109.02L510.694 109.02L84.744 109.02z" /></clipPath><clipPath id="114"><path d="M84.744 490.07L510.694 490.07L510.694 490.07L510.694 109.02L510.694 109.02L84.744 109.02z" /></clipPath><clipPath id="115"><path d="M84.744 490.07L510.694 490.07L510.694 490.07L510.694 109.02L510.694 109.02L84.744 109.02z" /></clipPath><clipPath id="116"><path d="M84.744 490.07L510.694 490.07L510.694 490.07L510.694 109.02L510.694 109.02L84.744 109.02z" /></clipPath><clipPath id="117"><path d="M84.744 490.07L510.694 490.07L510.694 490.07L510.694 109.02L510.694 109.02L84.744 109.02z" /></clipPath><clipPath id="118"><path d="M84.744 490.07L510.694 490.07L510.694 490.07L510.694 109.02L510.694 109.02L84.744 109.02z" /></clipPath><clipPath id="119"><path d="M84.744 490.07L510.694 490.07L510.694 490.07L510.694 109.02L510.694 109.02L84.744 109.02z" /></clipPath><clipPath id="120"><path d="M84.744 490.07L510.694 490.07L510.694 490.07L510.694 109.02L510.694 109.02L84.744 109.02z" /></clipPath><clipPath id="121"><path d="M84.744 490.07L510.694 490.07L510.694 490.07L510.694 109.02L510.694 109.02L84.744 109.02z" /></clipPath><clipPath id="122"><path d="M84.744 490.07L510.694 490.07L510.694 490.07L510.694 109.02L510.694 109.02L84.744 109.02z" /></clipPath><clipPath id="123"><path d="M84.744 490.07L510.694 490.07L510.694 490.07L510.694 109.02L510.694 109.02L84.744 109.02z" /></clipPath><clipPath id="124"><path d="M84.744 490.07L510.694 490.07L510.694 490.07L510.694 109.02L510.694 109.02L84.744 109.02z" /></clipPath><clipPath id="125"><path d="M84.744 490.07L510.694 490.07L510.694 490.07L510.694 109.02L510.694 109.02L84.744 109.02z" /></clipPath><clipPath id="126"><path d="M84.744 490.07L510.694 490.07L510.694 490.07L510.694 109.02L510.694 109.02L84.744 109.02z" /></clipPath><clipPath id="127"><path d="M84.744 490.07L510.694 490.07L510.694 490.07L510.694 109.02L510.694 109.02L84.744 109.02z" /></clipPath><clipPath id="128"><path d="M84.744 490.07L510.694 490.07L510.694 490.07L510.694 109.02L510.694 109.02L84.744 109.02z" /></clipPath><clipPath id="129"><path d="M84.744 490.07L510.694 490.07L510.694 490.07L510.694 109.02L510.694 109.02L84.744 109.02z" /></clipPath><clipPath id="130"><path d="M84.744 490.07L510.694 490.07L510.694 490.07L510.694 109.02L510.694 109.02L84.744 109.02z" /></clipPath><clipPath id="131"><path d="M84.744 490.07L510.694 490.07L510.694 490.07L510.694 109.02L510.694 109.02L84.744 109.02z" /></clipPath><clipPath id="132"><path d="M84.744 490.07L510.694 490.07L510.694 490.07L510.694 109.02L510.694 109.02L84.744 109.02z" /></clipPath><clipPath id="133"><path d="M84.744 490.07L510.694 490.07L510.694 490.07L510.694 109.02L510.694 109.02L84.744 109.02z" /></clipPath><clipPath id="134"><path d="M84.744 490.07L510.694 490.07L510.694 490.07L510.694 109.02L510.694 109.02L84.744 109.02z" /></clipPath><clipPath id="135"><path d="M84.744 490.07L510.694 490.07L510.694 490.07L510.694 109.02L510.694 109.02L84.744 109.02z" /></clipPath><clipPath id="136"><path d="M84.744 490.07L510.694 490.07L510.694 490.07L510.694 109.02L510.694 109.02L84.744 109.02z" /></clipPath><clipPath id="137"><path d="M84.744 490.07L510.694 490.07L510.694 490.07L510.694 109.02L510.694 109.02L84.744 109.02z" /></clipPath><clipPath id="138"><path d="M84.744 490.07L510.694 490.07L510.694 490.07L510.694 109.02L510.694 109.02L84.744 109.02z" /></clipPath><clipPath id="139"><path d="M84.744 490.07L510.694 490.07L510.694 490.07L510.694 109.02L510.694 109.02L84.744 109.02z" /></clipPath><clipPath id="140"><path d="M84.744 490.07L510.694 490.07L510.694 490.07L510.694 109.02L510.694 109.02L84.744 109.02z" /></clipPath><clipPath id="141"><path d="M84.744 490.07L510.694 490.07L510.694 490.07L510.694 109.02L510.694 109.02L84.744 109.02z" /></clipPath><clipPath id="142"><path d="M84.744 490.07L510.694 490.07L510.694 490.07L510.694 109.02L510.694 109.02L84.744 109.02z" /></clipPath><clipPath id="143"><path d="M84.744 490.07L510.694 490.07L510.694 490.07L510.694 109.02L510.694 109.02L84.744 109.02z" /></clipPath><clipPath id="144"><path d="M84.744 490.07L510.694 490.07L510.694 490.07L510.694 109.02L510.694 109.02L84.744 109.02z" /></clipPath><clipPath id="145"><path d="M84.744 490.07L510.694 490.07L510.694 490.07L510.694 109.02L510.694 109.02L84.744 109.02z" /></clipPath><clipPath id="146"><path d="M84.744 490.07L510.694 490.07L510.694 490.07L510.694 109.02L510.694 109.02L84.744 109.02z" /></clipPath><clipPath id="147"><path d="M84.744 490.07L510.694 490.07L510.694 490.07L510.694 109.02L510.694 109.02L84.744 109.02z" /></clipPath><clipPath id="148"><path d="M84.744 490.07L510.694 490.07L510.694 490.07L510.694 109.02L510.694 109.02L84.744 109.02z" /></clipPath><clipPath id="149"><path d="M84.744 490.07L510.694 490.07L510.694 490.07L510.694 109.02L510.694 109.02L84.744 109.02z" /></clipPath><clipPath id="150"><path d="M84.744 490.07L510.694 490.07L510.694 490.07L510.694 109.02L510.694 109.02L84.744 109.02z" /></clipPath><clipPath id="151"><path d="M84.744 490.07L510.694 490.07L510.694 490.07L510.694 109.02L510.694 109.02L84.744 109.02z" /></clipPath><clipPath id="152"><path d="M84.744 490.07L510.694 490.07L510.694 490.07L510.694 109.02L510.694 109.02L84.744 109.02z" /></clipPath><clipPath id="153"><path d="M84.744 490.07L510.694 490.07L510.694 490.07L510.694 109.02L510.694 109.02L84.744 109.02z" /></clipPath><clipPath id="154"><path d="M84.744 490.07L510.694 490.07L510.694 490.07L510.694 109.02L510.694 109.02L84.744 109.02z" /></clipPath><clipPath id="155"><path d="M84.744 490.07L510.694 490.07L510.694 490.07L510.694 109.02L510.694 109.02L84.744 109.02z" /></clipPath><clipPath id="156"><path d="M84.744 490.07L510.694 490.07L510.694 490.07L510.694 109.02L510.694 109.02L84.744 109.02z" /></clipPath><clipPath id="157"><path d="M84.744 490.07L510.694 490.07L510.694 490.07L510.694 109.02L510.694 109.02L84.744 109.02z" /></clipPath><clipPath id="158"><path d="M84.744 490.07L510.694 490.07L510.694 490.07L510.694 109.02L510.694 109.02L84.744 109.02z" /></clipPath><clipPath id="159"><path d="M84.744 490.07L510.694 490.07L510.694 490.07L510.694 109.02L510.694 109.02L84.744 109.02z" /></clipPath><clipPath id="160"><path d="M84.744 490.07L510.694 490.07L510.694 490.07L510.694 109.02L510.694 109.02L84.744 109.02z" /></clipPath><clipPath id="161"><path d="M84.744 490.07L510.694 490.07L510.694 490.07L510.694 109.02L510.694 109.02L84.744 109.02z" /></clipPath><clipPath id="162"><path d="M84.744 490.07L510.694 490.07L510.694 490.07L510.694 109.02L510.694 109.02L84.744 109.02z" /></clipPath><clipPath id="163"><path d="M84.744 490.07L510.694 490.07L510.694 490.07L510.694 109.02L510.694 109.02L84.744 109.02z" /></clipPath><clipPath id="164"><path d="M84.744 490.07L510.694 490.07L510.694 490.07L510.694 109.02L510.694 109.02L84.744 109.02z" /></clipPath><clipPath id="165"><path d="M84.744 490.07L510.694 490.07L510.694 490.07L510.694 109.02L510.694 109.02L84.744 109.02z" /></clipPath><clipPath id="166"><path d="M84.744 490.07L510.694 490.07L510.694 490.07L510.694 109.02L510.694 109.02L84.744 109.02z" /></clipPath><clipPath id="167"><path d="M84.744 490.07L510.694 490.07L510.694 490.07L510.694 109.02L510.694 109.02L84.744 109.02z" /></clipPath><clipPath id="168"><path d="M84.744 490.07L510.694 490.07L510.694 490.07L510.694 109.02L510.694 109.02L84.744 109.02z" /></clipPath><clipPath id="169"><path d="M84.744 490.07L510.694 490.07L510.694 490.07L510.694 109.02L510.694 109.02L84.744 109.02z" /></clipPath><clipPath id="170"><path d="M84.744 490.07L510.694 490.07L510.694 490.07L510.694 109.02L510.694 109.02L84.744 109.02z" /></clipPath><clipPath id="171"><path d="M84.744 490.07L510.694 490.07L510.694 490.07L510.694 109.02L510.694 109.02L84.744 109.02z" /></clipPath><clipPath id="172"><path d="M84.744 490.07L510.694 490.07L510.694 490.07L510.694 109.02L510.694 109.02L84.744 109.02z" /></clipPath><clipPath id="173"><path d="M84.744 490.07L510.694 490.07L510.694 490.07L510.694 109.02L510.694 109.02L84.744 109.02z" /></clipPath><clipPath id="174"><path d="M84.744 490.07L510.694 490.07L510.694 490.07L510.694 109.02L510.694 109.02L84.744 109.02z" /></clipPath><clipPath id="175"><path d="M84.744 490.07L510.694 490.07L510.694 490.07L510.694 109.02L510.694 109.02L84.744 109.02z" /></clipPath><clipPath id="176"><path d="M84.744 490.07L510.694 490.07L510.694 490.07L510.694 109.02L510.694 109.02L84.744 109.02z" /></clipPath><clipPath id="177"><path d="M84.744 490.07L510.694 490.07L510.694 490.07L510.694 109.02L510.694 109.02L84.744 109.02z" /></clipPath><clipPath id="178"><path d="M84.744 490.07L510.694 490.07L510.694 490.07L510.694 109.02L510.694 109.02L84.744 109.02z" /></clipPath><clipPath id="179"><path d="M84.744 490.07L510.694 490.07L510.694 490.07L510.694 109.02L510.694 109.02L84.744 109.02z" /></clipPath><clipPath id="180"><path d="M84.744 490.07L510.694 490.07L510.694 490.07L510.694 109.02L510.694 109.02L84.744 109.02z" /></clipPath><clipPath id="181"><path d="M84.744 490.07L510.694 490.07L510.694 490.07L510.694 109.02L510.694 109.02L84.744 109.02z" /></clipPath><clipPath id="182"><path d="M84.744 490.07L510.694 490.07L510.694 490.07L510.694 109.02L510.694 109.02L84.744 109.02z" /></clipPath><clipPath id="183"><path d="M84.744 490.07L510.694 490.07L510.694 490.07L510.694 109.02L510.694 109.02L84.744 109.02z" /></clipPath><clipPath id="184"><path d="M84.744 490.07L510.694 490.07L510.694 490.07L510.694 109.02L510.694 109.02L84.744 109.02z" /></clipPath><clipPath id="185"><path d="M84.744 490.07L510.694 490.07L510.694 490.07L510.694 109.02L510.694 109.02L84.744 109.02z" /></clipPath><clipPath id="186"><path d="M84.744 490.07L510.694 490.07L510.694 490.07L510.694 109.02L510.694 109.02L84.744 109.02z" /></clipPath><clipPath id="187"><path d="M84.744 490.07L510.694 490.07L510.694 490.07L510.694 109.02L510.694 109.02L84.744 109.02z" /></clipPath><clipPath id="188"><path d="M84.744 490.07L510.694 490.07L510.694 490.07L510.694 109.02L510.694 109.02L84.744 109.02z" /></clipPath><clipPath id="189"><path d="M84.744 490.07L510.694 490.07L510.694 490.07L510.694 109.02L510.694 109.02L84.744 109.02z" /></clipPath><clipPath id="190"><path d="M84.744 490.07L510.694 490.07L510.694 490.07L510.694 109.02L510.694 109.02L84.744 109.02z" /></clipPath><clipPath id="191"><path d="M84.751 529.2L499.411 529.2L499.411 529.2L499.411 510.12L499.411 510.12L84.751 510.12z" /></clipPath><clipPath id="192"><path d="M84.744 529.19L499.414 529.19L499.414 529.19L499.414 510.11L499.414 510.11L84.744 510.11z" /></clipPath><clipPath id="193"><path d="M84.744 529.19L499.414 529.19L499.414 529.19L499.414 510.11L499.414 510.11L84.744 510.11z" /></clipPath><clipPath id="194"><path d="M84.744 529.19L499.414 529.19L499.414 529.19L499.414 510.11L499.414 510.11L84.744 510.11z" /></clipPath><clipPath id="195"><path d="M84.744 529.19L499.414 529.19L499.414 529.19L499.414 510.11L499.414 510.11L84.744 510.11z" /></clipPath><clipPath id="196"><path d="M84.744 529.19L499.414 529.19L499.414 529.19L499.414 510.11L499.414 510.11L84.744 510.11z" /></clipPath><clipPath id="197"><path d="M84.744 529.19L499.414 529.19L499.414 529.19L499.414 510.11L499.414 510.11L84.744 510.11z" /></clipPath><clipPath id="198"><path d="M84.744 529.19L499.414 529.19L499.414 529.19L499.414 510.11L499.414 510.11L84.744 510.11z" /></clipPath><clipPath id="199"><path d="M84.744 529.19L499.414 529.19L499.414 529.19L499.414 510.11L499.414 510.11L84.744 510.11z" /></clipPath><clipPath id="200"><path d="M84.751 739.21L499.411 739.21L499.411 739.21L499.411 529.67L499.411 529.67L84.751 529.67z" /></clipPath><clipPath id="201"><path d="M84.744 739.22L499.414 739.22L499.414 739.22L499.414 529.68L499.414 529.68L84.744 529.68z" /></clipPath><clipPath id="202"><path d="M84.744 739.22L499.414 739.22L499.414 739.22L499.414 529.68L499.414 529.68L84.744 529.68z" /></clipPath><clipPath id="203"><path d="M84.744 739.22L499.414 739.22L499.414 739.22L499.414 529.68L499.414 529.68L84.744 529.68z" /></clipPath><clipPath id="204"><path d="M84.744 739.22L499.414 739.22L499.414 739.22L499.414 529.68L499.414 529.68L84.744 529.68z" /></clipPath><clipPath id="205"><path d="M84.744 739.22L499.414 739.22L499.414 739.22L499.414 529.68L499.414 529.68L84.744 529.68z" /></clipPath><clipPath id="206"><path d="M84.744 739.22L499.414 739.22L499.414 739.22L499.414 529.68L499.414 529.68L84.744 529.68z" /></clipPath><clipPath id="207"><path d="M84.744 739.22L499.414 739.22L499.414 739.22L499.414 529.68L499.414 529.68L84.744 529.68z" /></clipPath><clipPath id="208"><path d="M84.744 739.22L499.414 739.22L499.414 739.22L499.414 529.68L499.414 529.68L84.744 529.68z" /></clipPath><clipPath id="209"><path d="M84.744 739.22L499.414 739.22L499.414 739.22L499.414 529.68L499.414 529.68L84.744 529.68z" /></clipPath><clipPath id="210"><path d="M84.744 739.22L499.414 739.22L499.414 739.22L499.414 529.68L499.414 529.68L84.744 529.68z" /></clipPath><clipPath id="211"><path d="M84.744 739.22L499.414 739.22L499.414 739.22L499.414 529.68L499.414 529.68L84.744 529.68z" /></clipPath><clipPath id="212"><path d="M84.744 739.22L499.414 739.22L499.414 739.22L499.414 529.68L499.414 529.68L84.744 529.68z" /></clipPath><clipPath id="213"><path d="M84.744 739.22L499.414 739.22L499.414 739.22L499.414 529.68L499.414 529.68L84.744 529.68z" /></clipPath><clipPath id="214"><path d="M84.744 739.22L499.414 739.22L499.414 739.22L499.414 529.68L499.414 529.68L84.744 529.68z" /></clipPath><clipPath id="215"><path d="M84.744 739.22L499.414 739.22L499.414 739.22L499.414 529.68L499.414 529.68L84.744 529.68z" /></clipPath><clipPath id="216"><path d="M84.744 739.22L499.414 739.22L499.414 739.22L499.414 529.68L499.414 529.68L84.744 529.68z" /></clipPath><clipPath id="217"><path d="M84.744 739.22L499.414 739.22L499.414 739.22L499.414 529.68L499.414 529.68L84.744 529.68z" /></clipPath><clipPath id="218"><path d="M84.744 739.22L499.414 739.22L499.414 739.22L499.414 529.68L499.414 529.68L84.744 529.68z" /></clipPath><clipPath id="219"><path d="M84.744 739.22L499.414 739.22L499.414 739.22L499.414 529.68L499.414 529.68L84.744 529.68z" /></clipPath><clipPath id="220"><path d="M84.744 739.22L499.414 739.22L499.414 739.22L499.414 529.68L499.414 529.68L84.744 529.68z" /></clipPath><clipPath id="221"><path d="M84.744 739.22L499.414 739.22L499.414 739.22L499.414 529.68L499.414 529.68L84.744 529.68z" /></clipPath><clipPath id="222"><path d="M84.744 739.22L499.414 739.22L499.414 739.22L499.414 529.68L499.414 529.68L84.744 529.68z" /></clipPath><clipPath id="223"><path d="M84.744 739.22L499.414 739.22L499.414 739.22L499.414 529.68L499.414 529.68L84.744 529.68z" /></clipPath><clipPath id="224"><path d="M84.744 739.22L499.414 739.22L499.414 739.22L499.414 529.68L499.414 529.68L84.744 529.68z" /></clipPath><clipPath id="225"><path d="M84.744 739.22L499.414 739.22L499.414 739.22L499.414 529.68L499.414 529.68L84.744 529.68z" /></clipPath><clipPath id="226"><path d="M84.744 739.22L499.414 739.22L499.414 739.22L499.414 529.68L499.414 529.68L84.744 529.68z" /></clipPath><clipPath id="227"><path d="M84.744 739.22L499.414 739.22L499.414 739.22L499.414 529.68L499.414 529.68L84.744 529.68z" /></clipPath><clipPath id="228"><path d="M84.744 739.22L499.414 739.22L499.414 739.22L499.414 529.68L499.414 529.68L84.744 529.68z" /></clipPath><clipPath id="229"><path d="M84.744 739.22L499.414 739.22L499.414 739.22L499.414 529.68L499.414 529.68L84.744 529.68z" /></clipPath><clipPath id="230"><path d="M84.744 739.22L499.414 739.22L499.414 739.22L499.414 529.68L499.414 529.68L84.744 529.68z" /></clipPath><clipPath id="231"><path d="M84.744 739.22L499.414 739.22L499.414 739.22L499.414 529.68L499.414 529.68L84.744 529.68z" /></clipPath><clipPath id="232"><path d="M84.744 739.22L499.414 739.22L499.414 739.22L499.414 529.68L499.414 529.68L84.744 529.68z" /></clipPath><clipPath id="233"><path d="M84.744 739.22L499.414 739.22L499.414 739.22L499.414 529.68L499.414 529.68L84.744 529.68z" /></clipPath><clipPath id="234"><path d="M84.744 739.22L499.414 739.22L499.414 739.22L499.414 529.68L499.414 529.68L84.744 529.68z" /></clipPath><clipPath id="235"><path d="M84.744 739.22L499.414 739.22L499.414 739.22L499.414 529.68L499.414 529.68L84.744 529.68z" /></clipPath><clipPath id="236"><path d="M84.744 739.22L499.414 739.22L499.414 739.22L499.414 529.68L499.414 529.68L84.744 529.68z" /></clipPath><clipPath id="237"><path d="M84.744 739.22L499.414 739.22L499.414 739.22L499.414 529.68L499.414 529.68L84.744 529.68z" /></clipPath><clipPath id="238"><path d="M84.744 739.22L499.414 739.22L499.414 739.22L499.414 529.68L499.414 529.68L84.744 529.68z" /></clipPath><clipPath id="239"><path d="M84.744 739.22L499.414 739.22L499.414 739.22L499.414 529.68L499.414 529.68L84.744 529.68z" /></clipPath><clipPath id="240"><path d="M84.744 739.22L499.414 739.22L499.414 739.22L499.414 529.68L499.414 529.68L84.744 529.68z" /></clipPath><clipPath id="241"><path d="M84.744 739.22L499.414 739.22L499.414 739.22L499.414 529.68L499.414 529.68L84.744 529.68z" /></clipPath><clipPath id="242"><path d="M84.744 739.22L499.414 739.22L499.414 739.22L499.414 529.68L499.414 529.68L84.744 529.68z" /></clipPath><clipPath id="243"><path d="M84.744 739.22L499.414 739.22L499.414 739.22L499.414 529.68L499.414 529.68L84.744 529.68z" /></clipPath><clipPath id="244"><path d="M84.744 739.22L499.414 739.22L499.414 739.22L499.414 529.68L499.414 529.68L84.744 529.68z" /></clipPath><clipPath id="245"><path d="M84.744 739.22L499.414 739.22L499.414 739.22L499.414 529.68L499.414 529.68L84.744 529.68z" /></clipPath><clipPath id="246"><path d="M84.744 739.22L499.414 739.22L499.414 739.22L499.414 529.68L499.414 529.68L84.744 529.68z" /></clipPath><clipPath id="247"><path d="M84.744 739.22L499.414 739.22L499.414 739.22L499.414 529.68L499.414 529.68L84.744 529.68z" /></clipPath><clipPath id="248"><path d="M84.744 739.22L499.414 739.22L499.414 739.22L499.414 529.68L499.414 529.68L84.744 529.68z" /></clipPath><clipPath id="249"><path d="M84.744 739.22L499.414 739.22L499.414 739.22L499.414 529.68L499.414 529.68L84.744 529.68z" /></clipPath><clipPath id="250"><path d="M84.744 739.22L499.414 739.22L499.414 739.22L499.414 529.68L499.414 529.68L84.744 529.68z" /></clipPath><clipPath id="251"><path d="M84.744 739.22L499.414 739.22L499.414 739.22L499.414 529.68L499.414 529.68L84.744 529.68z" /></clipPath><clipPath id="252"><path d="M84.744 739.22L499.414 739.22L499.414 739.22L499.414 529.68L499.414 529.68L84.744 529.68z" /></clipPath><clipPath id="253"><path d="M84.744 739.22L499.414 739.22L499.414 739.22L499.414 529.68L499.414 529.68L84.744 529.68z" /></clipPath><clipPath id="254"><path d="M84.744 739.22L499.414 739.22L499.414 739.22L499.414 529.68L499.414 529.68L84.744 529.68z" /></clipPath><clipPath id="255"><path d="M84.744 739.22L499.414 739.22L499.414 739.22L499.414 529.68L499.414 529.68L84.744 529.68z" /></clipPath><clipPath id="256"><path d="M84.744 739.22L499.414 739.22L499.414 739.22L499.414 529.68L499.414 529.68L84.744 529.68z" /></clipPath><clipPath id="257"><path d="M84.744 739.22L499.414 739.22L499.414 739.22L499.414 529.68L499.414 529.68L84.744 529.68z" /></clipPath><clipPath id="258"><path d="M84.744 739.22L499.414 739.22L499.414 739.22L499.414 529.68L499.414 529.68L84.744 529.68z" /></clipPath><clipPath id="259"><path d="M84.744 739.22L499.414 739.22L499.414 739.22L499.414 529.68L499.414 529.68L84.744 529.68z" /></clipPath><clipPath id="260"><path d="M84.744 739.22L499.414 739.22L499.414 739.22L499.414 529.68L499.414 529.68L84.744 529.68z" /></clipPath><clipPath id="261"><path d="M84.744 739.22L499.414 739.22L499.414 739.22L499.414 529.68L499.414 529.68L84.744 529.68z" /></clipPath><clipPath id="262"><path d="M84.744 739.22L499.414 739.22L499.414 739.22L499.414 529.68L499.414 529.68L84.744 529.68z" /></clipPath><clipPath id="263"><path d="M84.744 739.22L499.414 739.22L499.414 739.22L499.414 529.68L499.414 529.68L84.744 529.68z" /></clipPath><clipPath id="264"><path d="M84.744 739.22L499.414 739.22L499.414 739.22L499.414 529.68L499.414 529.68L84.744 529.68z" /></clipPath><clipPath id="265"><path d="M84.744 739.22L499.414 739.22L499.414 739.22L499.414 529.68L499.414 529.68L84.744 529.68z" /></clipPath><clipPath id="266"><path d="M84.744 739.22L499.414 739.22L499.414 739.22L499.414 529.68L499.414 529.68L84.744 529.68z" /></clipPath><clipPath id="267"><path d="M84.744 739.22L499.414 739.22L499.414 739.22L499.414 529.68L499.414 529.68L84.744 529.68z" /></clipPath><clipPath id="268"><path d="M84.744 739.22L499.414 739.22L499.414 739.22L499.414 529.68L499.414 529.68L84.744 529.68z" /></clipPath><clipPath id="269"><path d="M84.744 739.22L499.414 739.22L499.414 739.22L499.414 529.68L499.414 529.68L84.744 529.68z" /></clipPath><clipPath id="270"><path d="M84.744 739.22L499.414 739.22L499.414 739.22L499.414 529.68L499.414 529.68L84.744 529.68z" /></clipPath><clipPath id="271"><path d="M84.744 739.22L499.414 739.22L499.414 739.22L499.414 529.68L499.414 529.68L84.744 529.68z" /></clipPath><clipPath id="272"><path d="M84.744 739.22L499.414 739.22L499.414 739.22L499.414 529.68L499.414 529.68L84.744 529.68z" /></clipPath><clipPath id="273"><path d="M84.744 739.22L499.414 739.22L499.414 739.22L499.414 529.68L499.414 529.68L84.744 529.68z" /></clipPath><clipPath id="274"><path d="M84.744 739.22L499.414 739.22L499.414 739.22L499.414 529.68L499.414 529.68L84.744 529.68z" /></clipPath><clipPath id="275"><path d="M84.744 739.22L499.414 739.22L499.414 739.22L499.414 529.68L499.414 529.68L84.744 529.68z" /></clipPath><clipPath id="276"><path d="M84.744 739.22L499.414 739.22L499.414 739.22L499.414 529.68L499.414 529.68L84.744 529.68z" /></clipPath><clipPath id="277"><path d="M84.744 739.22L499.414 739.22L499.414 739.22L499.414 529.68L499.414 529.68L84.744 529.68z" /></clipPath><clipPath id="278"><path d="M84.744 739.22L499.414 739.22L499.414 739.22L499.414 529.68L499.414 529.68L84.744 529.68z" /></clipPath><clipPath id="279"><path d="M84.744 739.22L499.414 739.22L499.414 739.22L499.414 529.68L499.414 529.68L84.744 529.68z" /></clipPath><clipPath id="280"><path d="M84.744 739.22L499.414 739.22L499.414 739.22L499.414 529.68L499.414 529.68L84.744 529.68z" /></clipPath><clipPath id="281"><path d="M84.744 739.22L499.414 739.22L499.414 739.22L499.414 529.68L499.414 529.68L84.744 529.68z" /></clipPath><clipPath id="282"><path d="M84.744 739.22L499.414 739.22L499.414 739.22L499.414 529.68L499.414 529.68L84.744 529.68z" /></clipPath><clipPath id="283"><path d="M84.744 739.22L499.414 739.22L499.414 739.22L499.414 529.68L499.414 529.68L84.744 529.68z" /></clipPath><clipPath id="284"><path d="M84.744 739.22L499.414 739.22L499.414 739.22L499.414 529.68L499.414 529.68L84.744 529.68z" /></clipPath><clipPath id="285"><path d="M84.744 739.22L499.414 739.22L499.414 739.22L499.414 529.68L499.414 529.68L84.744 529.68z" /></clipPath><clipPath id="286"><path d="M84.744 739.22L499.414 739.22L499.414 739.22L499.414 529.68L499.414 529.68L84.744 529.68z" /></clipPath><clipPath id="287"><path d="M84.744 739.22L499.414 739.22L499.414 739.22L499.414 529.68L499.414 529.68L84.744 529.68z" /></clipPath><clipPath id="288"><path d="M84.744 739.22L499.414 739.22L499.414 739.22L499.414 529.68L499.414 529.68L84.744 529.68z" /></clipPath><clipPath id="289"><path d="M84.744 739.22L499.414 739.22L499.414 739.22L499.414 529.68L499.414 529.68L84.744 529.68z" /></clipPath><clipPath id="290"><path d="M84.744 739.22L499.414 739.22L499.414 739.22L499.414 529.68L499.414 529.68L84.744 529.68z" /></clipPath><clipPath id="291"><path d="M84.744 739.22L499.414 739.22L499.414 739.22L499.414 529.68L499.414 529.68L84.744 529.68z" /></clipPath><clipPath id="292"><path d="M84.744 739.22L499.414 739.22L499.414 739.22L499.414 529.68L499.414 529.68L84.744 529.68z" /></clipPath><clipPath id="293"><path d="M84.744 739.22L499.414 739.22L499.414 739.22L499.414 529.68L499.414 529.68L84.744 529.68z" /></clipPath><clipPath id="294"><path d="M84.744 739.22L499.414 739.22L499.414 739.22L499.414 529.68L499.414 529.68L84.744 529.68z" /></clipPath><clipPath id="295"><path d="M84.744 739.22L499.414 739.22L499.414 739.22L499.414 529.68L499.414 529.68L84.744 529.68z" /></clipPath><clipPath id="296"><path d="M84.744 739.22L499.414 739.22L499.414 739.22L499.414 529.68L499.414 529.68L84.744 529.68z" /></clipPath><clipPath id="297"><path d="M84.744 739.22L499.414 739.22L499.414 739.22L499.414 529.68L499.414 529.68L84.744 529.68z" /></clipPath><clipPath id="298"><path d="M84.744 739.22L499.414 739.22L499.414 739.22L499.414 529.68L499.414 529.68L84.744 529.68z" /></clipPath><clipPath id="299"><path d="M84.744 739.22L499.414 739.22L499.414 739.22L499.414 529.68L499.414 529.68L84.744 529.68z" /></clipPath><clipPath id="300"><path d="M84.744 739.22L499.414 739.22L499.414 739.22L499.414 529.68L499.414 529.68L84.744 529.68z" /></clipPath><clipPath id="301"><path d="M84.744 739.22L499.414 739.22L499.414 739.22L499.414 529.68L499.414 529.68L84.744 529.68z" /></clipPath><clipPath id="302"><path d="M84.744 739.22L499.414 739.22L499.414 739.22L499.414 529.68L499.414 529.68L84.744 529.68z" /></clipPath><clipPath id="303"><path d="M84.744 739.22L499.414 739.22L499.414 739.22L499.414 529.68L499.414 529.68L84.744 529.68z" /></clipPath><clipPath id="304"><path d="M84.744 739.22L499.414 739.22L499.414 739.22L499.414 529.68L499.414 529.68L84.744 529.68z" /></clipPath><clipPath id="305"><path d="M84.744 739.22L499.414 739.22L499.414 739.22L499.414 529.68L499.414 529.68L84.744 529.68z" /></clipPath><clipPath id="306"><path d="M84.744 739.22L499.414 739.22L499.414 739.22L499.414 529.68L499.414 529.68L84.744 529.68z" /></clipPath><clipPath id="307"><path d="M84.744 739.22L499.414 739.22L499.414 739.22L499.414 529.68L499.414 529.68L84.744 529.68z" /></clipPath><clipPath id="308"><path d="M84.744 739.22L499.414 739.22L499.414 739.22L499.414 529.68L499.414 529.68L84.744 529.68z" /></clipPath><clipPath id="309"><path d="M84.744 739.22L499.414 739.22L499.414 739.22L499.414 529.68L499.414 529.68L84.744 529.68z" /></clipPath></defs><g transform="matrix(1.333333 0 0 1.333333 0 0)"><g><g clip-path="url(#1)"><path transform="matrix(1 0 0 -1 0 841)" d="M457.51 53.304L505.534 53.304L505.534 53.304L505.534 53.90404L505.534 53.90404L457.51 53.90404z" stroke="none" fill="#000000" fill-rule="evenodd" /><g clip-path="url(#2)"><path transform="matrix(1 0 0 -1 0 841)" d="M88.464 77.904L506.974 77.904L506.974 77.904L506.974 80.904L506.974 80.904L88.464 80.904z" stroke="none" fill="#000000" fill-rule="evenodd" /><path transform="matrix(1 0 0 -1 0 841)" d="M88.464 76.464L506.974 76.464L506.974 76.464L506.974 77.18397L506.974 77.18397L88.464 77.18397z" stroke="none" fill="#000000" fill-rule="evenodd" /></g><g clip-path="url(#3)"><g clip-path="url(#4)"></g><g clip-path="url(#5)"></g></g><path transform="matrix(1 0 0 -1 0 841)" d="M84.744 732.46L510.694 732.46L510.694 732.46L510.694 751.564L510.694 751.564L84.744 751.564z" stroke="none" fill="#0070C0" fill-rule="evenodd" /><g clip-path="url(#6)"><path transform="matrix(1 0 0 -1 0 841)" d="M89.904 732.46L505.534 732.46L505.534 732.46L505.534 751.564L505.534 751.564L89.904 751.564z" stroke="none" fill="#0070C0" fill-rule="evenodd" /><g clip-path="url(#7)"></g><g clip-path="url(#8)"></g><g clip-path="url(#9)"></g><g clip-path="url(#10)"></g><g clip-path="url(#11)"></g><g clip-path="url(#12)"></g><g clip-path="url(#13)"></g><g clip-path="url(#14)"></g></g><path transform="matrix(1 0 0 -1 0 841)" d="M84.264 751.56L84.744 751.56L84.744 751.56L84.744 752.04L84.744 752.04L84.264 752.04z" stroke="none" fill="#000000" fill-rule="evenodd" /><path transform="matrix(1 0 0 -1 0 841)" d="M84.264 751.56L84.744 751.56L84.744 751.56L84.744 752.04L84.744 752.04L84.264 752.04z" stroke="none" fill="#000000" fill-rule="evenodd" /><path transform="matrix(1 0 0 -1 0 841)" d="M84.744 751.56L510.694 751.56L510.694 751.56L510.694 752.04L510.694 752.04L84.744 752.04z" stroke="none" fill="#000000" fill-rule="evenodd" /><path transform="matrix(1 0 0 -1 0 841)" d="M510.7 751.56L511.18 751.56L511.18 751.56L511.18 752.04L511.18 752.04L510.7 752.04z" stroke="none" fill="#000000" fill-rule="evenodd" /><path transform="matrix(1 0 0 -1 0 841)" d="M510.7 751.56L511.18 751.56L511.18 751.56L511.18 752.04L511.18 752.04L510.7 752.04z" stroke="none" fill="#000000" fill-rule="evenodd" /><path transform="matrix(1 0 0 -1 0 841)" d="M84.264 732.46L84.744 732.46L84.744 732.46L84.744 751.564L84.744 751.564L84.264 751.564z" stroke="none" fill="#000000" fill-rule="evenodd" /><path transform="matrix(1 0 0 -1 0 841)" d="M510.7 732.46L511.18 732.46L511.18 732.46L511.18 751.564L511.18 751.564L510.7 751.564z" stroke="none" fill="#000000" fill-rule="evenodd" /><path transform="matrix(1 0 0 -1 0 841)" d="M84.744 350.93L510.694 350.93L510.694 350.93L510.694 731.98L510.694 731.98L84.744 731.98z" stroke="none" fill="#DAEEF3" fill-rule="evenodd" /><g clip-path="url(#15)"><path transform="matrix(1 0 0 -1 0 841)" d="M89.904 712.9L505.534 712.9L505.534 712.9L505.534 731.98L505.534 731.98L89.904 731.98z" stroke="none" fill="#DAEEF3" fill-rule="evenodd" /><g clip-path="url(#16)"></g><g clip-path="url(#17)"></g><path transform="matrix(1 0 0 -1 0 841)" d="M89.904 693.94L505.534 693.94L505.534 693.94L505.534 712.9L505.534 712.9L89.904 712.9z" stroke="none" fill="#DAEEF3" fill-rule="evenodd" /><g clip-path="url(#18)"></g><g clip-path="url(#19)"></g><g clip-path="url(#20)"></g><g clip-path="url(#21)"></g><g clip-path="url(#22)"></g><g clip-path="url(#23)"></g><path transform="matrix(1 0 0 -1 0 841)" d="M89.904 674.86L505.534 674.86L505.534 674.86L505.534 693.94L505.534 693.94L89.904 693.94z" stroke="none" fill="#DAEEF3" fill-rule="evenodd" /><g clip-path="url(#24)"></g><g clip-path="url(#25)"></g><g clip-path="url(#26)"></g><g clip-path="url(#27)"></g><g clip-path="url(#28)"></g><g clip-path="url(#29)"></g><path transform="matrix(1 0 0 -1 0 841)" d="M89.904 655.78L505.534 655.78L505.534 655.78L505.534 674.86L505.534 674.86L89.904 674.86z" stroke="none" fill="#DAEEF3" fill-rule="evenodd" /><g clip-path="url(#30)"></g><g clip-path="url(#31)"></g><g clip-path="url(#32)"></g><g clip-path="url(#33)"></g><g clip-path="url(#34)"></g><g clip-path="url(#35)"></g><path transform="matrix(1 0 0 -1 0 841)" d="M89.904 636.7L505.534 636.7L505.534 636.7L505.534 655.78L505.534 655.78L89.904 655.78z" stroke="none" fill="#DAEEF3" fill-rule="evenodd" /><g clip-path="url(#36)"></g><g clip-path="url(#37)"></g><g clip-path="url(#38)"></g><g clip-path="url(#39)"></g><g clip-path="url(#40)"></g><g clip-path="url(#41)"></g><path transform="matrix(1 0 0 -1 0 841)" d="M89.904 617.74L505.534 617.74L505.534 617.74L505.534 636.7L505.534 636.7L89.904 636.7z" stroke="none" fill="#DAEEF3" fill-rule="evenodd" /><g clip-path="url(#42)"></g><g clip-path="url(#43)"></g><g clip-path="url(#44)"></g><g clip-path="url(#45)"></g><g clip-path="url(#46)"></g><g clip-path="url(#47)"></g><path transform="matrix(1 0 0 -1 0 841)" d="M89.904 598.66L505.534 598.66L505.534 598.66L505.534 617.74L505.534 617.74L89.904 617.74z" stroke="none" fill="#DAEEF3" fill-rule="evenodd" /><g clip-path="url(#48)"></g><g clip-path="url(#49)"></g><g clip-path="url(#50)"></g><g clip-path="url(#51)"></g><g clip-path="url(#52)"></g><g clip-path="url(#53)"></g><path transform="matrix(1 0 0 -1 0 841)" d="M89.904 579.58L505.534 579.58L505.534 579.58L505.534 598.66L505.534 598.66L89.904 598.66z" stroke="none" fill="#DAEEF3" fill-rule="evenodd" /><g clip-path="url(#54)"></g><g clip-path="url(#55)"></g><g clip-path="url(#56)"></g><path transform="matrix(1 0 0 -1 0 841)" d="M89.904 560.5L505.534 560.5L505.534 560.5L505.534 579.58L505.534 579.58L89.904 579.58z" stroke="none" fill="#DAEEF3" fill-rule="evenodd" /><g clip-path="url(#57)"></g><g clip-path="url(#58)"></g><g clip-path="url(#59)"></g><g clip-path="url(#60)"></g><g clip-path="url(#61)"></g><g clip-path="url(#62)"></g><g clip-path="url(#63)"></g><g clip-path="url(#64)"></g><g clip-path="url(#65)"></g><g clip-path="url(#66)"></g><g clip-path="url(#67)"></g><g clip-path="url(#68)"></g><g clip-path="url(#69)"></g><g clip-path="url(#70)"></g><path transform="matrix(1 0 0 -1 0 841)" d="M89.904 541.51L505.534 541.51L505.534 541.51L505.534 560.494L505.534 560.494L89.904 560.494z" stroke="none" fill="#DAEEF3" fill-rule="evenodd" /><g clip-path="url(#71)"></g><g clip-path="url(#72)"></g><g clip-path="url(#73)"></g><g clip-path="url(#74)"></g><g clip-path="url(#75)"></g><g clip-path="url(#76)"></g><g clip-path="url(#77)"></g><g clip-path="url(#78)"></g><g clip-path="url(#79)"></g><g clip-path="url(#80)"></g><g clip-path="url(#81)"></g><g clip-path="url(#82)"></g><g clip-path="url(#83)"></g><g clip-path="url(#84)"></g><path transform="matrix(1 0 0 -1 0 841)" d="M89.904 522.43L505.534 522.43L505.534 522.43L505.534 541.51L505.534 541.51L89.904 541.51z" stroke="none" fill="#DAEEF3" fill-rule="evenodd" /><g clip-path="url(#85)"></g><g clip-path="url(#86)"></g><g clip-path="url(#87)"></g><g clip-path="url(#88)"></g><g clip-path="url(#89)"></g><g clip-path="url(#90)"></g><g clip-path="url(#91)"></g><g clip-path="url(#92)"></g><g clip-path="url(#93)"></g><g clip-path="url(#94)"></g><g clip-path="url(#95)"></g><g clip-path="url(#96)"></g><path transform="matrix(1 0 0 -1 0 841)" d="M89.904 503.35L505.534 503.35L505.534 503.35L505.534 522.43L505.534 522.43L89.904 522.43z" stroke="none" fill="#DAEEF3" fill-rule="evenodd" /><g clip-path="url(#97)"></g><g clip-path="url(#98)"></g><g clip-path="url(#99)"></g><g clip-path="url(#100)"></g><g clip-path="url(#101)"></g><g clip-path="url(#102)"></g><g clip-path="url(#103)"></g><g clip-path="url(#104)"></g><g clip-path="url(#105)"></g><g clip-path="url(#106)"></g><g clip-path="url(#107)"></g><g clip-path="url(#108)"></g><g clip-path="url(#109)"></g><g clip-path="url(#110)"></g><g clip-path="url(#111)"></g><g clip-path="url(#112)"></g><path transform="matrix(1 0 0 -1 0 841)" d="M89.904 484.27L505.534 484.27L505.534 484.27L505.534 503.35L505.534 503.35L89.904 503.35z" stroke="none" fill="#DAEEF3" fill-rule="evenodd" /><g clip-path="url(#113)"></g><g clip-path="url(#114)"></g><g clip-path="url(#115)"></g><g clip-path="url(#116)"></g><g clip-path="url(#117)"></g><g clip-path="url(#118)"></g><g clip-path="url(#119)"></g><g clip-path="url(#120)"></g><g clip-path="url(#121)"></g><g clip-path="url(#122)"></g><g clip-path="url(#123)"></g><g clip-path="url(#124)"></g><g clip-path="url(#125)"></g><g clip-path="url(#126)"></g><path transform="matrix(1 0 0 -1 0 841)" d="M89.904 465.31L505.534 465.31L505.534 465.31L505.534 484.27L505.534 484.27L89.904 484.27z" stroke="none" fill="#DAEEF3" fill-rule="evenodd" /><g clip-path="url(#127)"></g><g clip-path="url(#128)"></g><g clip-path="url(#129)"></g><g clip-path="url(#130)"></g><g clip-path="url(#131)"></g><g clip-path="url(#132)"></g><g clip-path="url(#133)"></g><g clip-path="url(#134)"></g><g clip-path="url(#135)"></g><g clip-path="url(#136)"></g><g clip-path="url(#137)"></g><g clip-path="url(#138)"></g><g clip-path="url(#139)"></g><g clip-path="url(#140)"></g><path transform="matrix(1 0 0 -1 0 841)" d="M89.904 446.23L505.534 446.23L505.534 446.23L505.534 465.31L505.534 465.31L89.904 465.31z" stroke="none" fill="#DAEEF3" fill-rule="evenodd" /><g clip-path="url(#141)"></g><g clip-path="url(#142)"></g><g clip-path="url(#143)"></g><g clip-path="url(#144)"></g><g clip-path="url(#145)"></g><g clip-path="url(#146)"></g><g clip-path="url(#147)"></g><g clip-path="url(#148)"></g><g clip-path="url(#149)"></g><g clip-path="url(#150)"></g><g clip-path="url(#151)"></g><g clip-path="url(#152)"></g><path transform="matrix(1 0 0 -1 0 841)" d="M89.904 427.15L505.534 427.15L505.534 427.15L505.534 446.23L505.534 446.23L89.904 446.23z" stroke="none" fill="#DAEEF3" fill-rule="evenodd" /><g clip-path="url(#153)"></g><g clip-path="url(#154)"></g><g clip-path="url(#155)"></g><g clip-path="url(#156)"></g><g clip-path="url(#157)"></g><g clip-path="url(#158)"></g><g clip-path="url(#159)"></g><g clip-path="url(#160)"></g><g clip-path="url(#161)"></g><g clip-path="url(#162)"></g><g clip-path="url(#163)"></g><g clip-path="url(#164)"></g><path transform="matrix(1 0 0 -1 0 841)" d="M89.904 408.07L505.534 408.07L505.534 408.07L505.534 427.15L505.534 427.15L89.904 427.15z" stroke="none" fill="#DAEEF3" fill-rule="evenodd" /><g clip-path="url(#165)"></g><g clip-path="url(#166)"></g><g clip-path="url(#167)"></g><g clip-path="url(#168)"></g><g clip-path="url(#169)"></g><g clip-path="url(#170)"></g><g clip-path="url(#171)"></g><g clip-path="url(#172)"></g><g clip-path="url(#173)"></g><g clip-path="url(#174)"></g><g clip-path="url(#175)"></g><path transform="matrix(1 0 0 -1 0 841)" d="M89.904 389.11L505.534 389.11L505.534 389.11L505.534 408.07L505.534 408.07L89.904 408.07z" stroke="none" fill="#DAEEF3" fill-rule="evenodd" /><g clip-path="url(#176)"></g><g clip-path="url(#177)"></g><g clip-path="url(#178)"></g><g clip-path="url(#179)"></g><g clip-path="url(#180)"></g><g clip-path="url(#181)"></g><g clip-path="url(#182)"></g><path transform="matrix(1 0 0 -1 0 841)" d="M89.904 370.01L505.534 370.01L505.534 370.01L505.534 389.114L505.534 389.114L89.904 389.114z" stroke="none" fill="#DAEEF3" fill-rule="evenodd" /><g clip-path="url(#183)"></g><g clip-path="url(#184)"></g><g clip-path="url(#185)"></g><g clip-path="url(#186)"></g><g clip-path="url(#187)"></g><g clip-path="url(#188)"></g><path transform="matrix(1 0 0 -1 0 841)" d="M89.904 350.93L505.534 350.93L505.534 350.93L505.534 370.01L505.534 370.01L89.904 370.01z" stroke="none" fill="#DAEEF3" fill-rule="evenodd" /><g clip-path="url(#189)"></g><g clip-path="url(#190)"></g></g><path transform="matrix(1 0 0 -1 0 841)" d="M84.264 731.98L84.744 731.98L84.744 731.98L84.744 732.46L84.744 732.46L84.264 732.46z" stroke="none" fill="#000000" fill-rule="evenodd" /><path transform="matrix(1 0 0 -1 0 841)" d="M84.744 731.98L510.694 731.98L510.694 731.98L510.694 732.46L510.694 732.46L84.744 732.46z" stroke="none" fill="#000000" fill-rule="evenodd" /><path transform="matrix(1 0 0 -1 0 841)" d="M510.7 731.98L511.18 731.98L511.18 731.98L511.18 732.46L511.18 732.46L510.7 732.46z" stroke="none" fill="#000000" fill-rule="evenodd" /><path transform="matrix(1 0 0 -1 0 841)" d="M84.264 350.93L84.744 350.93L84.744 350.93L84.744 731.98L84.744 731.98L84.264 731.98z" stroke="none" fill="#000000" fill-rule="evenodd" /><path transform="matrix(1 0 0 -1 0 841)" d="M84.264 350.45L84.744 350.45L84.744 350.45L84.744 350.93L84.744 350.93L84.264 350.93z" stroke="none" fill="#000000" fill-rule="evenodd" /><path transform="matrix(1 0 0 -1 0 841)" d="M84.264 350.45L84.744 350.45L84.744 350.45L84.744 350.93L84.744 350.93L84.264 350.93z" stroke="none" fill="#000000" fill-rule="evenodd" /><path transform="matrix(1 0 0 -1 0 841)" d="M84.744 350.45L510.694 350.45L510.694 350.45L510.694 350.93L510.694 350.93L84.744 350.93z" stroke="none" fill="#000000" fill-rule="evenodd" /><path transform="matrix(1 0 0 -1 0 841)" d="M510.7 350.93L511.18 350.93L511.18 350.93L511.18 731.98L511.18 731.98L510.7 731.98z" stroke="none" fill="#000000" fill-rule="evenodd" /><path transform="matrix(1 0 0 -1 0 841)" d="M510.7 350.45L511.18 350.45L511.18 350.45L511.18 350.93L511.18 350.93L510.7 350.93z" stroke="none" fill="#000000" fill-rule="evenodd" /><path transform="matrix(1 0 0 -1 0 841)" d="M510.7 350.45L511.18 350.45L511.18 350.45L511.18 350.93L511.18 350.93L510.7 350.93z" stroke="none" fill="#000000" fill-rule="evenodd" /><path transform="matrix(1 0 0 -1 0 841)" d="M84.744 311.81L499.414 311.81L499.414 311.81L499.414 330.89L499.414 330.89L84.744 330.89z" stroke="none" fill="#0070C0" fill-rule="evenodd" /><g clip-path="url(#191)"><path transform="matrix(1 0 0 -1 0 841)" d="M89.904 311.81L494.254 311.81L494.254 311.81L494.254 330.89L494.254 330.89L89.904 330.89z" stroke="none" fill="#0070C0" fill-rule="evenodd" /><g clip-path="url(#192)"></g><g clip-path="url(#193)"></g><g clip-path="url(#194)"></g><g clip-path="url(#195)"></g><g clip-path="url(#196)"></g><g clip-path="url(#197)"></g><g clip-path="url(#198)"></g><g clip-path="url(#199)"></g></g><path transform="matrix(1 0 0 -1 0 841)" d="M84.264 330.89L84.744 330.89L84.744 330.89L84.744 331.37L84.744 331.37L84.264 331.37z" stroke="none" fill="#000000" fill-rule="evenodd" /><path transform="matrix(1 0 0 -1 0 841)" d="M84.264 330.89L84.744 330.89L84.744 330.89L84.744 331.37L84.744 331.37L84.264 331.37z" stroke="none" fill="#000000" fill-rule="evenodd" /><path transform="matrix(1 0 0 -1 0 841)" d="M84.744 330.89L499.414 330.89L499.414 330.89L499.414 331.37L499.414 331.37L84.744 331.37z" stroke="none" fill="#000000" fill-rule="evenodd" /><path transform="matrix(1 0 0 -1 0 841)" d="M499.42 330.89L499.9 330.89L499.9 330.89L499.9 331.37L499.9 331.37L499.42 331.37z" stroke="none" fill="#000000" fill-rule="evenodd" /><path transform="matrix(1 0 0 -1 0 841)" d="M499.42 330.89L499.9 330.89L499.9 330.89L499.9 331.37L499.9 331.37L499.42 331.37z" stroke="none" fill="#000000" fill-rule="evenodd" /><path transform="matrix(1 0 0 -1 0 841)" d="M84.264 311.81L84.744 311.81L84.744 311.81L84.744 330.89L84.744 330.89L84.264 330.89z" stroke="none" fill="#000000" fill-rule="evenodd" /><path transform="matrix(1 0 0 -1 0 841)" d="M499.42 311.81L499.9 311.81L499.9 311.81L499.9 330.89L499.9 330.89L499.42 330.89z" stroke="none" fill="#000000" fill-rule="evenodd" /><path transform="matrix(1 0 0 -1 0 841)" d="M84.744 101.78L499.414 101.78L499.414 101.78L499.414 311.32L499.414 311.32L84.744 311.32z" stroke="none" fill="#DAEEF3" fill-rule="evenodd" /><g clip-path="url(#200)"><path transform="matrix(1 0 0 -1 0 841)" d="M89.904 292.25L494.254 292.25L494.254 292.25L494.254 311.33L494.254 311.33L89.904 311.33z" stroke="none" fill="#DAEEF3" fill-rule="evenodd" /><g clip-path="url(#201)"></g><g clip-path="url(#202)"></g><path transform="matrix(1 0 0 -1 0 841)" d="M89.904 273.29L494.254 273.29L494.254 273.29L494.254 292.25L494.254 292.25L89.904 292.25z" stroke="none" fill="#DAEEF3" fill-rule="evenodd" /><g clip-path="url(#203)"></g><g clip-path="url(#204)"></g><g clip-path="url(#205)"></g><g clip-path="url(#206)"></g><g clip-path="url(#207)"></g><g clip-path="url(#208)"></g><g clip-path="url(#209)"></g><path transform="matrix(1 0 0 -1 0 841)" d="M89.904 254.21L494.254 254.21L494.254 254.21L494.254 273.29L494.254 273.29L89.904 273.29z" stroke="none" fill="#DAEEF3" fill-rule="evenodd" /><g clip-path="url(#210)"></g><g clip-path="url(#211)"></g><g clip-path="url(#212)"></g><g clip-path="url(#213)"></g><g clip-path="url(#214)"></g><g clip-path="url(#215)"></g><g clip-path="url(#216)"></g><path transform="matrix(1 0 0 -1 0 841)" d="M89.904 235.13L494.254 235.13L494.254 235.13L494.254 254.21L494.254 254.21L89.904 254.21z" stroke="none" fill="#DAEEF3" fill-rule="evenodd" /><g clip-path="url(#217)"></g><g clip-path="url(#218)"></g><g clip-path="url(#219)"></g><g clip-path="url(#220)"></g><g clip-path="url(#221)"></g><g clip-path="url(#222)"></g><g clip-path="url(#223)"></g><path transform="matrix(1 0 0 -1 0 841)" d="M89.904 216.05L494.254 216.05L494.254 216.05L494.254 235.13L494.254 235.13L89.904 235.13z" stroke="none" fill="#DAEEF3" fill-rule="evenodd" /><g clip-path="url(#224)"></g><g clip-path="url(#225)"></g><g clip-path="url(#226)"></g><g clip-path="url(#227)"></g><g clip-path="url(#228)"></g><g clip-path="url(#229)"></g><g clip-path="url(#230)"></g><path transform="matrix(1 0 0 -1 0 841)" d="M89.904 197.09L494.254 197.09L494.254 197.09L494.254 216.05L494.254 216.05L89.904 216.05z" stroke="none" fill="#DAEEF3" fill-rule="evenodd" /><g clip-path="url(#231)"></g><g clip-path="url(#232)"></g><g clip-path="url(#233)"></g><g clip-path="url(#234)"></g><g clip-path="url(#235)"></g><g clip-path="url(#236)"></g><g clip-path="url(#237)"></g><path transform="matrix(1 0 0 -1 0 841)" d="M89.904 177.98L494.254 177.98L494.254 177.98L494.254 197.084L494.254 197.084L89.904 197.084z" stroke="none" fill="#DAEEF3" fill-rule="evenodd" /><g clip-path="url(#238)"></g><g clip-path="url(#239)"></g><g clip-path="url(#240)"></g><g clip-path="url(#241)"></g><g clip-path="url(#242)"></g><g clip-path="url(#243)"></g><g clip-path="url(#244)"></g><g clip-path="url(#245)"></g><path transform="matrix(1 0 0 -1 0 841)" d="M89.904 158.9L494.254 158.9L494.254 158.9L494.254 177.98L494.254 177.98L89.904 177.98z" stroke="none" fill="#DAEEF3" fill-rule="evenodd" /><g clip-path="url(#246)"></g><g clip-path="url(#247)"></g><g clip-path="url(#248)"></g><g clip-path="url(#249)"></g><g clip-path="url(#250)"></g><g clip-path="url(#251)"></g><g clip-path="url(#252)"></g><g clip-path="url(#253)"></g><g clip-path="url(#254)"></g><g clip-path="url(#255)"></g><g clip-path="url(#256)"></g><g clip-path="url(#257)"></g><g clip-path="url(#258)"></g><g clip-path="url(#259)"></g><g clip-path="url(#260)"></g><g clip-path="url(#261)"></g><path transform="matrix(1 0 0 -1 0 841)" d="M89.904 139.82L494.254 139.82L494.254 139.82L494.254 158.9L494.254 158.9L89.904 158.9z" stroke="none" fill="#DAEEF3" fill-rule="evenodd" /><g clip-path="url(#262)"></g><g clip-path="url(#263)"></g><g clip-path="url(#264)"></g><g clip-path="url(#265)"></g><g clip-path="url(#266)"></g><g clip-path="url(#267)"></g><g clip-path="url(#268)"></g><g clip-path="url(#269)"></g><g clip-path="url(#270)"></g><g clip-path="url(#271)"></g><g clip-path="url(#272)"></g><g clip-path="url(#273)"></g><g clip-path="url(#274)"></g><g clip-path="url(#275)"></g><g clip-path="url(#276)"></g><g clip-path="url(#277)"></g><path transform="matrix(1 0 0 -1 0 841)" d="M89.904 120.86L494.254 120.86L494.254 120.86L494.254 139.82L494.254 139.82L89.904 139.82z" stroke="none" fill="#DAEEF3" fill-rule="evenodd" /><g clip-path="url(#278)"></g><g clip-path="url(#279)"></g><g clip-path="url(#280)"></g><g clip-path="url(#281)"></g><g clip-path="url(#282)"></g><g clip-path="url(#283)"></g><g clip-path="url(#284)"></g><g clip-path="url(#285)"></g><g clip-path="url(#286)"></g><g clip-path="url(#287)"></g><g clip-path="url(#288)"></g><g clip-path="url(#289)"></g><g clip-path="url(#290)"></g><g clip-path="url(#291)"></g><path transform="matrix(1 0 0 -1 0 841)" d="M89.904 101.78L494.254 101.78L494.254 101.78L494.254 120.86L494.254 120.86L89.904 120.86z" stroke="none" fill="#DAEEF3" fill-rule="evenodd" /><g clip-path="url(#292)"></g><g clip-path="url(#293)"></g><g clip-path="url(#294)"></g><g clip-path="url(#295)"></g><g clip-path="url(#296)"></g><g clip-path="url(#297)"></g><g clip-path="url(#298)"></g><g clip-path="url(#299)"></g><g clip-path="url(#300)"></g><g clip-path="url(#301)"></g><g clip-path="url(#302)"></g><g clip-path="url(#303)"></g><g clip-path="url(#304)"></g><g clip-path="url(#305)"></g><g clip-path="url(#306)"></g><g clip-path="url(#307)"></g><g clip-path="url(#308)"></g><g clip-path="url(#309)"></g></g><path transform="matrix(1 0 0 -1 0 841)" d="M84.264 311.33L84.744 311.33L84.744 311.33L84.744 311.81L84.744 311.81L84.264 311.81z" stroke="none" fill="#000000" fill-rule="evenodd" /><path transform="matrix(1 0 0 -1 0 841)" d="M84.744 311.33L499.414 311.33L499.414 311.33L499.414 311.81L499.414 311.81L84.744 311.81z" stroke="none" fill="#000000" fill-rule="evenodd" /><path transform="matrix(1 0 0 -1 0 841)" d="M499.42 311.33L499.9 311.33L499.9 311.33L499.9 311.81L499.9 311.81L499.42 311.81z" stroke="none" fill="#000000" fill-rule="evenodd" /><path transform="matrix(1 0 0 -1 0 841)" d="M84.264 101.78L84.744 101.78L84.744 101.78L84.744 311.32L84.744 311.32L84.264 311.32z" stroke="none" fill="#000000" fill-rule="evenodd" /><path transform="matrix(1 0 0 -1 0 841)" d="M84.264 101.3L84.744 101.3L84.744 101.3L84.744 101.78L84.744 101.78L84.264 101.78z" stroke="none" fill="#000000" fill-rule="evenodd" /><path transform="matrix(1 0 0 -1 0 841)" d="M84.264 101.3L84.744 101.3L84.744 101.3L84.744 101.78L84.744 101.78L84.264 101.78z" stroke="none" fill="#000000" fill-rule="evenodd" /><path transform="matrix(1 0 0 -1 0 841)" d="M84.744 101.3L499.414 101.3L499.414 101.3L499.414 101.78L499.414 101.78L84.744 101.78z" stroke="none" fill="#000000" fill-rule="evenodd" /><path transform="matrix(1 0 0 -1 0 841)" d="M499.42 101.78L499.9 101.78L499.9 101.78L499.9 311.32L499.9 311.32L499.42 311.32z" stroke="none" fill="#000000" fill-rule="evenodd" /><path transform="matrix(1 0 0 -1 0 841)" d="M499.42 101.3L499.9 101.3L499.9 101.3L499.9 101.78L499.9 101.78L499.42 101.78z" stroke="none" fill="#000000" fill-rule="evenodd" /><path transform="matrix(1 0 0 -1 0 841)" d="M499.42 101.3L499.9 101.3L499.9 101.3L499.9 101.78L499.9 101.78L499.42 101.78z" stroke="none" fill="#000000" fill-rule="evenodd" /></g></g></g></svg>