<svg xmlns="http://www.w3.org/2000/svg" xmlns:xlink="http://www.w3.org/1999/xlink" id="body_206" preserveAspectRatio="xMinYMin meet" viewBox="0 0 793 1121"><defs><clipPath id="1"><path d="M0 841L0 -0.9199829L0 -0.9199829L595.32 -0.9199829L595.32 -0.9199829L595.32 841L595.32 841L0 841z" /></clipPath><clipPath id="2"><path d="M0.00125 841.0914L595.4112 841.0914L595.4112 841.0914L595.4112 -0.9186401L595.4112 -0.9186401L0.00125 -0.9186401z" /></clipPath><clipPath id="3"><path d="M288.05 781.211L316.01 781.211L316.01 781.211L316.01 762.011L316.01 762.011L288.05 762.011z" /></clipPath><clipPath id="4"><path d="M288.05 781.216L316.01 781.216L316.01 781.216L316.01 762.016L316.01 762.016L288.05 762.016z" /></clipPath><clipPath id="5"><path d="M288.05 781.216L316.01 781.216L316.01 781.216L316.01 762.016L316.01 762.016L288.05 762.016z" /></clipPath><clipPath id="6"><path d="M337.64 109.75L523.54 109.75L523.54 109.75L523.54 89.44L523.54 89.44L337.64 89.44z" /></clipPath><clipPath id="7"><path d="M337.63 109.74L523.53 109.74L523.53 109.74L523.53 89.43597L523.53 89.43597L337.63 89.43597z" /></clipPath><clipPath id="8"><path d="M337.63 109.74L523.53 109.74L523.53 109.74L523.53 89.43597L523.53 89.43597L337.63 89.43597z" /></clipPath><clipPath id="9"><path d="M84.751 140.71L168.991 140.71L168.991 140.71L168.991 110.23L168.991 110.23L84.751 110.23z" /></clipPath><clipPath id="10"><path d="M84.744 140.7L168.984 140.7L168.984 140.7L168.984 110.22L168.984 110.22L84.744 110.22z" /></clipPath><clipPath id="11"><path d="M84.744 140.7L168.984 140.7L168.984 140.7L168.984 110.22L168.984 110.22L84.744 110.22z" /></clipPath><clipPath id="12"><path d="M169.47 140.71L217.845 140.71L217.845 140.71L217.845 110.23L217.845 110.23L169.47 110.23z" /></clipPath><clipPath id="13"><path d="M169.46 140.7L217.844 140.7L217.844 140.7L217.844 110.22L217.844 110.22L169.46 110.22z" /></clipPath><clipPath id="14"><path d="M169.46 140.7L217.844 140.7L217.844 140.7L217.844 110.22L217.844 110.22L169.46 110.22z" /></clipPath><clipPath id="15"><path d="M169.46 140.7L217.844 140.7L217.844 140.7L217.844 110.22L217.844 110.22L169.46 110.22z" /></clipPath><clipPath id="16"><path d="M218.33 140.71L259.49 140.71L259.49 140.71L259.49 110.23L259.49 110.23L218.33 110.23z" /></clipPath><clipPath id="17"><path d="M218.33 140.7L259.49 140.7L259.49 140.7L259.49 110.22L259.49 110.22L218.33 110.22z" /></clipPath><clipPath id="18"><path d="M218.33 140.7L259.49 140.7L259.49 140.7L259.49 110.22L259.49 110.22L218.33 110.22z" /></clipPath><clipPath id="19"><path d="M218.33 140.7L259.49 140.7L259.49 140.7L259.49 110.22L259.49 110.22L218.33 110.22z" /></clipPath><clipPath id="20"><path d="M259.97 140.71L337.16 140.71L337.16 140.71L337.16 110.23L337.16 110.23L259.97 110.23z" /></clipPath><clipPath id="21"><path d="M259.97 140.7L337.154 140.7L337.154 140.7L337.154 110.22L337.154 110.22L259.97 110.22z" /></clipPath><clipPath id="22"><path d="M337.64 140.71L523.54 140.71L523.54 140.71L523.54 110.23L523.54 110.23L337.64 110.23z" /></clipPath><clipPath id="23"><path d="M337.63 140.7L523.53 140.7L523.53 140.7L523.53 110.22L523.53 110.22L337.63 110.22z" /></clipPath><clipPath id="24"><path d="M337.63 140.7L523.53 140.7L523.53 140.7L523.53 110.22L523.53 110.22L337.63 110.22z" /></clipPath><clipPath id="25"><path d="M337.63 140.7L523.53 140.7L523.53 140.7L523.53 110.22L523.53 110.22L337.63 110.22z" /></clipPath><clipPath id="26"><path d="M337.63 140.7L523.53 140.7L523.53 140.7L523.53 110.22L523.53 110.22L337.63 110.22z" /></clipPath><clipPath id="27"><path d="M84.751 290.37L178.111 290.37L178.111 290.37L178.111 265.275L178.111 265.275L84.751 265.275z" /></clipPath><clipPath id="28"><path d="M84.744 290.37L178.104 290.37L178.104 290.37L178.104 265.266L178.104 265.266L84.744 265.266z" /></clipPath><clipPath id="29"><path d="M84.744 290.37L178.104 290.37L178.104 290.37L178.104 265.266L178.104 265.266L84.744 265.266z" /></clipPath><clipPath id="30"><path d="M178.59 290.37L254.565 290.37L254.565 290.37L254.565 265.275L254.565 265.275L178.59 265.275z" /></clipPath><clipPath id="31"><path d="M178.58 290.37L254.564 290.37L254.564 290.37L254.564 265.266L254.564 265.266L178.58 265.266z" /></clipPath><clipPath id="32"><path d="M178.58 290.37L254.564 290.37L254.564 290.37L254.564 265.266L254.564 265.266L178.58 265.266z" /></clipPath><clipPath id="33"><path d="M255.05 290.37L303.05 290.37L303.05 290.37L303.05 265.275L303.05 265.275L255.05 265.275z" /></clipPath><clipPath id="34"><path d="M255.05 290.37L303.05 290.37L303.05 290.37L303.05 265.266L303.05 265.266L255.05 265.266z" /></clipPath><clipPath id="35"><path d="M255.05 290.37L303.05 290.37L303.05 290.37L303.05 265.266L303.05 265.266L255.05 265.266z" /></clipPath><clipPath id="36"><path d="M303.53 290.37L360.44 290.37L360.44 290.37L360.44 265.275L360.44 265.275L303.53 265.275z" /></clipPath><clipPath id="37"><path d="M303.53 290.37L360.434 290.37L360.434 290.37L360.434 265.266L360.434 265.266L303.53 265.266z" /></clipPath><clipPath id="38"><path d="M303.53 290.37L360.434 290.37L360.434 290.37L360.434 265.266L360.434 265.266L303.53 265.266z" /></clipPath><clipPath id="39"><path d="M361.04 290.37L530.62 290.37L530.62 290.37L530.62 265.275L530.62 265.275L361.04 265.275z" /></clipPath><clipPath id="40"><path d="M361.03 290.37L530.61 290.37L530.61 290.37L530.61 265.266L530.61 265.266L361.03 265.266z" /></clipPath><clipPath id="41"><path d="M361.03 290.37L530.61 290.37L530.61 290.37L530.61 265.266L530.61 265.266L361.03 265.266z" /></clipPath><clipPath id="42"><path d="M84.751 315.93L178.111 315.93L178.111 315.93L178.111 290.85L178.111 290.85L84.751 290.85z" /></clipPath><clipPath id="43"><path d="M84.744 315.93L178.104 315.93L178.104 315.93L178.104 290.85L178.104 290.85L84.744 290.85z" /></clipPath><clipPath id="44"><path d="M84.744 315.93L178.104 315.93L178.104 315.93L178.104 290.85L178.104 290.85L84.744 290.85z" /></clipPath><clipPath id="45"><path d="M178.59 315.93L254.565 315.93L254.565 315.93L254.565 290.85L254.565 290.85L178.59 290.85z" /></clipPath><clipPath id="46"><path d="M178.58 315.93L254.564 315.93L254.564 315.93L254.564 290.85L254.564 290.85L178.58 290.85z" /></clipPath><clipPath id="47"><path d="M178.58 315.93L254.564 315.93L254.564 315.93L254.564 290.85L254.564 290.85L178.58 290.85z" /></clipPath><clipPath id="48"><path d="M255.05 315.93L303.05 315.93L303.05 315.93L303.05 290.85L303.05 290.85L255.05 290.85z" /></clipPath><clipPath id="49"><path d="M255.05 315.93L303.05 315.93L303.05 315.93L303.05 290.85L303.05 290.85L255.05 290.85z" /></clipPath><clipPath id="50"><path d="M255.05 315.93L303.05 315.93L303.05 315.93L303.05 290.85L303.05 290.85L255.05 290.85z" /></clipPath><clipPath id="51"><path d="M303.53 315.93L360.44 315.93L360.44 315.93L360.44 290.85L360.44 290.85L303.53 290.85z" /></clipPath><clipPath id="52"><path d="M303.53 315.93L360.434 315.93L360.434 315.93L360.434 290.85L360.434 290.85L303.53 290.85z" /></clipPath><clipPath id="53"><path d="M361.04 315.93L530.62 315.93L530.62 315.93L530.62 290.85L530.62 290.85L361.04 290.85z" /></clipPath><clipPath id="54"><path d="M361.03 315.93L530.61 315.93L530.61 315.93L530.61 290.85L530.61 290.85L361.03 290.85z" /></clipPath><clipPath id="55"><path d="M361.03 315.93L530.61 315.93L530.61 315.93L530.61 290.85L530.61 290.85L361.03 290.85z" /></clipPath><clipPath id="56"><path d="M84.751 483.72L178.111 483.72L178.111 483.72L178.111 316.41L178.111 316.41L84.751 316.41z" /></clipPath><clipPath id="57"><path d="M84.744 483.71L178.104 483.71L178.104 483.71L178.104 316.41L178.104 316.41L84.744 316.41z" /></clipPath><clipPath id="58"><path d="M84.744 483.71L178.104 483.71L178.104 483.71L178.104 316.41L178.104 316.41L84.744 316.41z" /></clipPath><clipPath id="59"><path d="M178.59 483.72L254.565 483.72L254.565 483.72L254.565 316.41L254.565 316.41L178.59 316.41z" /></clipPath><clipPath id="60"><path d="M178.58 483.71L254.564 483.71L254.564 483.71L254.564 316.41L254.564 316.41L178.58 316.41z" /></clipPath><clipPath id="61"><path d="M178.58 483.71L254.564 483.71L254.564 483.71L254.564 316.41L254.564 316.41L178.58 316.41z" /></clipPath><clipPath id="62"><path d="M255.05 483.72L303.05 483.72L303.05 483.72L303.05 316.41L303.05 316.41L255.05 316.41z" /></clipPath><clipPath id="63"><path d="M255.05 483.71L303.05 483.71L303.05 483.71L303.05 316.41L303.05 316.41L255.05 316.41z" /></clipPath><clipPath id="64"><path d="M255.05 483.71L303.05 483.71L303.05 483.71L303.05 316.41L303.05 316.41L255.05 316.41z" /></clipPath><clipPath id="65"><path d="M303.53 483.72L360.44 483.72L360.44 483.72L360.44 316.41L360.44 316.41L303.53 316.41z" /></clipPath><clipPath id="66"><path d="M303.53 483.71L360.434 483.71L360.434 483.71L360.434 316.41L360.434 316.41L303.53 316.41z" /></clipPath><clipPath id="67"><path d="M303.53 483.71L360.434 483.71L360.434 483.71L360.434 316.41L360.434 316.41L303.53 316.41z" /></clipPath><clipPath id="68"><path d="M361.04 483.72L530.62 483.72L530.62 483.72L530.62 316.41L530.62 316.41L361.04 316.41z" /></clipPath><clipPath id="69"><path d="M361.03 483.71L530.61 483.71L530.61 483.71L530.61 316.41L530.61 316.41L361.03 316.41z" /></clipPath><clipPath id="70"><path d="M361.03 483.71L530.61 483.71L530.61 483.71L530.61 316.41L530.61 316.41L361.03 316.41z" /></clipPath><clipPath id="71"><path d="M361.03 483.71L530.61 483.71L530.61 483.71L530.61 316.41L530.61 316.41L361.03 316.41z" /></clipPath><clipPath id="72"><path d="M361.03 483.71L530.61 483.71L530.61 483.71L530.61 316.41L530.61 316.41L361.03 316.41z" /></clipPath><clipPath id="73"><path d="M361.03 483.71L530.61 483.71L530.61 483.71L530.61 316.41L530.61 316.41L361.03 316.41z" /></clipPath><clipPath id="74"><path d="M361.03 483.71L530.61 483.71L530.61 483.71L530.61 316.41L530.61 316.41L361.03 316.41z" /></clipPath><clipPath id="75"><path d="M361.03 483.71L530.61 483.71L530.61 483.71L530.61 316.41L530.61 316.41L361.03 316.41z" /></clipPath><clipPath id="76"><path d="M361.03 483.71L530.61 483.71L530.61 483.71L530.61 316.41L530.61 316.41L361.03 316.41z" /></clipPath><clipPath id="77"><path d="M361.03 483.71L530.61 483.71L530.61 483.71L530.61 316.41L530.61 316.41L361.03 316.41z" /></clipPath><clipPath id="78"><path d="M361.03 483.71L530.61 483.71L530.61 483.71L530.61 316.41L530.61 316.41L361.03 316.41z" /></clipPath><clipPath id="79"><path d="M361.03 483.71L530.61 483.71L530.61 483.71L530.61 316.41L530.61 316.41L361.03 316.41z" /></clipPath><clipPath id="80"><path d="M361.03 483.71L530.61 483.71L530.61 483.71L530.61 316.41L530.61 316.41L361.03 316.41z" /></clipPath><clipPath id="81"><path d="M361.03 483.71L530.61 483.71L530.61 483.71L530.61 316.41L530.61 316.41L361.03 316.41z" /></clipPath><clipPath id="82"><path d="M361.03 483.71L530.61 483.71L530.61 483.71L530.61 316.41L530.61 316.41L361.03 316.41z" /></clipPath><clipPath id="83"><path d="M361.03 483.71L530.61 483.71L530.61 483.71L530.61 316.41L530.61 316.41L361.03 316.41z" /></clipPath><clipPath id="84"><path d="M361.03 483.71L530.61 483.71L530.61 483.71L530.61 316.41L530.61 316.41L361.03 316.41z" /></clipPath><clipPath id="85"><path d="M361.03 483.71L530.61 483.71L530.61 483.71L530.61 316.41L530.61 316.41L361.03 316.41z" /></clipPath><clipPath id="86"><path d="M361.03 483.71L530.61 483.71L530.61 483.71L530.61 316.41L530.61 316.41L361.03 316.41z" /></clipPath><clipPath id="87"><path d="M361.03 483.71L530.61 483.71L530.61 483.71L530.61 316.41L530.61 316.41L361.03 316.41z" /></clipPath><clipPath id="88"><path d="M361.03 483.71L530.61 483.71L530.61 483.71L530.61 316.41L530.61 316.41L361.03 316.41z" /></clipPath><clipPath id="89"><path d="M361.03 483.71L530.61 483.71L530.61 483.71L530.61 316.41L530.61 316.41L361.03 316.41z" /></clipPath><clipPath id="90"><path d="M361.03 483.71L530.61 483.71L530.61 483.71L530.61 316.41L530.61 316.41L361.03 316.41z" /></clipPath><clipPath id="91"><path d="M361.03 483.71L530.61 483.71L530.61 483.71L530.61 316.41L530.61 316.41L361.03 316.41z" /></clipPath><clipPath id="92"><path d="M361.03 483.71L530.61 483.71L530.61 483.71L530.61 316.41L530.61 316.41L361.03 316.41z" /></clipPath><clipPath id="93"><path d="M84.751 509.28L178.111 509.28L178.111 509.28L178.111 484.2L178.111 484.2L84.751 484.2z" /></clipPath><clipPath id="94"><path d="M84.744 509.27L178.104 509.27L178.104 509.27L178.104 484.19L178.104 484.19L84.744 484.19z" /></clipPath><clipPath id="95"><path d="M84.744 509.27L178.104 509.27L178.104 509.27L178.104 484.19L178.104 484.19L84.744 484.19z" /></clipPath><clipPath id="96"><path d="M178.59 509.28L254.565 509.28L254.565 509.28L254.565 484.2L254.565 484.2L178.59 484.2z" /></clipPath><clipPath id="97"><path d="M178.58 509.27L254.564 509.27L254.564 509.27L254.564 484.19L254.564 484.19L178.58 484.19z" /></clipPath><clipPath id="98"><path d="M178.58 509.27L254.564 509.27L254.564 509.27L254.564 484.19L254.564 484.19L178.58 484.19z" /></clipPath><clipPath id="99"><path d="M255.05 509.28L303.05 509.28L303.05 509.28L303.05 484.2L303.05 484.2L255.05 484.2z" /></clipPath><clipPath id="100"><path d="M255.05 509.27L303.05 509.27L303.05 509.27L303.05 484.19L303.05 484.19L255.05 484.19z" /></clipPath><clipPath id="101"><path d="M255.05 509.27L303.05 509.27L303.05 509.27L303.05 484.19L303.05 484.19L255.05 484.19z" /></clipPath><clipPath id="102"><path d="M303.53 509.28L360.44 509.28L360.44 509.28L360.44 484.2L360.44 484.2L303.53 484.2z" /></clipPath><clipPath id="103"><path d="M303.53 509.27L360.434 509.27L360.434 509.27L360.434 484.19L360.434 484.19L303.53 484.19z" /></clipPath><clipPath id="104"><path d="M361.04 509.28L530.62 509.28L530.62 509.28L530.62 484.2L530.62 484.2L361.04 484.2z" /></clipPath><clipPath id="105"><path d="M361.03 509.27L530.61 509.27L530.61 509.27L530.61 484.19L530.61 484.19L361.03 484.19z" /></clipPath><clipPath id="106"><path d="M361.03 509.27L530.61 509.27L530.61 509.27L530.61 484.19L530.61 484.19L361.03 484.19z" /></clipPath><clipPath id="107"><path d="M361.03 509.27L530.61 509.27L530.61 509.27L530.61 484.19L530.61 484.19L361.03 484.19z" /></clipPath><clipPath id="108"><path d="M361.03 509.27L530.61 509.27L530.61 509.27L530.61 484.19L530.61 484.19L361.03 484.19z" /></clipPath><clipPath id="109"><path d="M361.03 509.27L530.61 509.27L530.61 509.27L530.61 484.19L530.61 484.19L361.03 484.19z" /></clipPath><clipPath id="110"><path d="M84.751 534.84L178.111 534.84L178.111 534.84L178.111 509.76L178.111 509.76L84.751 509.76z" /></clipPath><clipPath id="111"><path d="M84.744 534.83L178.104 534.83L178.104 534.83L178.104 509.75L178.104 509.75L84.744 509.75z" /></clipPath><clipPath id="112"><path d="M84.744 534.83L178.104 534.83L178.104 534.83L178.104 509.75L178.104 509.75L84.744 509.75z" /></clipPath><clipPath id="113"><path d="M178.59 534.84L254.565 534.84L254.565 534.84L254.565 509.76L254.565 509.76L178.59 509.76z" /></clipPath><clipPath id="114"><path d="M178.58 534.83L254.564 534.83L254.564 534.83L254.564 509.75L254.564 509.75L178.58 509.75z" /></clipPath><clipPath id="115"><path d="M178.58 534.83L254.564 534.83L254.564 534.83L254.564 509.75L254.564 509.75L178.58 509.75z" /></clipPath><clipPath id="116"><path d="M255.05 534.84L303.05 534.84L303.05 534.84L303.05 509.76L303.05 509.76L255.05 509.76z" /></clipPath><clipPath id="117"><path d="M255.05 534.83L303.05 534.83L303.05 534.83L303.05 509.75L303.05 509.75L255.05 509.75z" /></clipPath><clipPath id="118"><path d="M255.05 534.83L303.05 534.83L303.05 534.83L303.05 509.75L303.05 509.75L255.05 509.75z" /></clipPath><clipPath id="119"><path d="M303.53 534.84L360.44 534.84L360.44 534.84L360.44 509.76L360.44 509.76L303.53 509.76z" /></clipPath><clipPath id="120"><path d="M303.53 534.83L360.434 534.83L360.434 534.83L360.434 509.75L360.434 509.75L303.53 509.75z" /></clipPath><clipPath id="121"><path d="M361.04 534.84L530.62 534.84L530.62 534.84L530.62 509.76L530.62 509.76L361.04 509.76z" /></clipPath><clipPath id="122"><path d="M361.03 534.83L530.61 534.83L530.61 534.83L530.61 509.75L530.61 509.75L361.03 509.75z" /></clipPath><clipPath id="123"><path d="M361.03 534.83L530.61 534.83L530.61 534.83L530.61 509.75L530.61 509.75L361.03 509.75z" /></clipPath><clipPath id="124"><path d="M361.03 534.83L530.61 534.83L530.61 534.83L530.61 509.75L530.61 509.75L361.03 509.75z" /></clipPath><clipPath id="125"><path d="M84.751 560.4L178.111 560.4L178.111 560.4L178.111 535.32L178.111 535.32L84.751 535.32z" /></clipPath><clipPath id="126"><path d="M84.744 560.39L178.104 560.39L178.104 560.39L178.104 535.3101L178.104 535.3101L84.744 535.3101z" /></clipPath><clipPath id="127"><path d="M84.744 560.39L178.104 560.39L178.104 560.39L178.104 535.3101L178.104 535.3101L84.744 535.3101z" /></clipPath><clipPath id="128"><path d="M178.59 560.4L254.565 560.4L254.565 560.4L254.565 535.32L254.565 535.32L178.59 535.32z" /></clipPath><clipPath id="129"><path d="M178.58 560.39L254.564 560.39L254.564 560.39L254.564 535.3101L254.564 535.3101L178.58 535.3101z" /></clipPath><clipPath id="130"><path d="M178.58 560.39L254.564 560.39L254.564 560.39L254.564 535.3101L254.564 535.3101L178.58 535.3101z" /></clipPath><clipPath id="131"><path d="M255.05 560.4L303.05 560.4L303.05 560.4L303.05 535.32L303.05 535.32L255.05 535.32z" /></clipPath><clipPath id="132"><path d="M255.05 560.39L303.05 560.39L303.05 560.39L303.05 535.3101L303.05 535.3101L255.05 535.3101z" /></clipPath><clipPath id="133"><path d="M255.05 560.39L303.05 560.39L303.05 560.39L303.05 535.3101L303.05 535.3101L255.05 535.3101z" /></clipPath><clipPath id="134"><path d="M303.53 560.4L360.44 560.4L360.44 560.4L360.44 535.32L360.44 535.32L303.53 535.32z" /></clipPath><clipPath id="135"><path d="M303.53 560.39L360.434 560.39L360.434 560.39L360.434 535.3101L360.434 535.3101L303.53 535.3101z" /></clipPath><clipPath id="136"><path d="M303.53 560.39L360.434 560.39L360.434 560.39L360.434 535.3101L360.434 535.3101L303.53 535.3101z" /></clipPath><clipPath id="137"><path d="M361.04 560.4L530.62 560.4L530.62 560.4L530.62 535.32L530.62 535.32L361.04 535.32z" /></clipPath><clipPath id="138"><path d="M361.03 560.39L530.61 560.39L530.61 560.39L530.61 535.3101L530.61 535.3101L361.03 535.3101z" /></clipPath><clipPath id="139"><path d="M361.03 560.39L530.61 560.39L530.61 560.39L530.61 535.3101L530.61 535.3101L361.03 535.3101z" /></clipPath><clipPath id="140"><path d="M361.03 560.39L530.61 560.39L530.61 560.39L530.61 535.3101L530.61 535.3101L361.03 535.3101z" /></clipPath><clipPath id="141"><path d="M84.751 644.52L198.391 644.52L198.391 644.52L198.391 619.44L198.391 619.44L84.751 619.44z" /></clipPath><clipPath id="142"><path d="M84.744 644.51L198.384 644.51L198.384 644.51L198.384 619.43L198.384 619.43L84.744 619.43z" /></clipPath><clipPath id="143"><path d="M84.744 644.51L198.384 644.51L198.384 644.51L198.384 619.43L198.384 619.43L84.744 619.43z" /></clipPath><clipPath id="144"><path d="M198.87 644.52L249.165 644.52L249.165 644.52L249.165 619.44L249.165 619.44L198.87 619.44z" /></clipPath><clipPath id="145"><path d="M198.86 644.51L249.164 644.51L249.164 644.51L249.164 619.43L249.164 619.43L198.86 619.43z" /></clipPath><clipPath id="146"><path d="M198.86 644.51L249.164 644.51L249.164 644.51L249.164 619.43L249.164 619.43L198.86 619.43z" /></clipPath><clipPath id="147"><path d="M249.65 644.52L296.69 644.52L296.69 644.52L296.69 619.44L296.69 619.44L249.65 619.44z" /></clipPath><clipPath id="148"><path d="M249.65 644.51L296.69 644.51L296.69 644.51L296.69 619.43L296.69 619.43L249.65 619.43z" /></clipPath><clipPath id="149"><path d="M249.65 644.51L296.69 644.51L296.69 644.51L296.69 619.43L296.69 619.43L249.65 619.43z" /></clipPath><clipPath id="150"><path d="M297.17 644.52L353.36 644.52L353.36 644.52L353.36 619.44L353.36 619.44L297.17 619.44z" /></clipPath><clipPath id="151"><path d="M297.17 644.51L353.354 644.51L353.354 644.51L353.354 619.43L353.354 619.43L297.17 619.43z" /></clipPath><clipPath id="152"><path d="M297.17 644.51L353.354 644.51L353.354 644.51L353.354 619.43L353.354 619.43L297.17 619.43z" /></clipPath><clipPath id="153"><path d="M353.84 644.52L541.42 644.52L541.42 644.52L541.42 619.44L541.42 619.44L353.84 619.44z" /></clipPath><clipPath id="154"><path d="M353.83 644.51L541.41 644.51L541.41 644.51L541.41 619.43L541.41 619.43L353.83 619.43z" /></clipPath><clipPath id="155"><path d="M353.83 644.51L541.41 644.51L541.41 644.51L541.41 619.43L541.41 619.43L353.83 619.43z" /></clipPath><clipPath id="156"><path d="M84.751 670.09L198.391 670.09L198.391 670.09L198.391 644.995L198.391 644.995L84.751 644.995z" /></clipPath><clipPath id="157"><path d="M84.744 670.1L198.384 670.1L198.384 670.1L198.384 644.996L198.384 644.996L84.744 644.996z" /></clipPath><clipPath id="158"><path d="M84.744 670.1L198.384 670.1L198.384 670.1L198.384 644.996L198.384 644.996L84.744 644.996z" /></clipPath><clipPath id="159"><path d="M198.87 670.09L249.165 670.09L249.165 670.09L249.165 644.995L249.165 644.995L198.87 644.995z" /></clipPath><clipPath id="160"><path d="M198.86 670.1L249.164 670.1L249.164 670.1L249.164 644.996L249.164 644.996L198.86 644.996z" /></clipPath><clipPath id="161"><path d="M198.86 670.1L249.164 670.1L249.164 670.1L249.164 644.996L249.164 644.996L198.86 644.996z" /></clipPath><clipPath id="162"><path d="M249.65 670.09L296.69 670.09L296.69 670.09L296.69 644.995L296.69 644.995L249.65 644.995z" /></clipPath><clipPath id="163"><path d="M249.65 670.1L296.69 670.1L296.69 670.1L296.69 644.996L296.69 644.996L249.65 644.996z" /></clipPath><clipPath id="164"><path d="M249.65 670.1L296.69 670.1L296.69 670.1L296.69 644.996L296.69 644.996L249.65 644.996z" /></clipPath><clipPath id="165"><path d="M297.17 670.09L353.36 670.09L353.36 670.09L353.36 644.995L353.36 644.995L297.17 644.995z" /></clipPath><clipPath id="166"><path d="M297.17 670.1L353.354 670.1L353.354 670.1L353.354 644.996L353.354 644.996L297.17 644.996z" /></clipPath><clipPath id="167"><path d="M353.84 670.09L541.42 670.09L541.42 670.09L541.42 644.995L541.42 644.995L353.84 644.995z" /></clipPath><clipPath id="168"><path d="M353.83 670.1L541.41 670.1L541.41 670.1L541.41 644.996L541.41 644.996L353.83 644.996z" /></clipPath><clipPath id="169"><path d="M353.83 670.1L541.41 670.1L541.41 670.1L541.41 644.996L541.41 644.996L353.83 644.996z" /></clipPath><clipPath id="170"><path d="M84.751 695.65L198.391 695.65L198.391 695.65L198.391 670.57L198.391 670.57L84.751 670.57z" /></clipPath><clipPath id="171"><path d="M84.744 695.66L198.384 695.66L198.384 695.66L198.384 670.58L198.384 670.58L84.744 670.58z" /></clipPath><clipPath id="172"><path d="M84.744 695.66L198.384 695.66L198.384 695.66L198.384 670.58L198.384 670.58L84.744 670.58z" /></clipPath><clipPath id="173"><path d="M198.87 695.65L249.165 695.65L249.165 695.65L249.165 670.57L249.165 670.57L198.87 670.57z" /></clipPath><clipPath id="174"><path d="M198.86 695.66L249.164 695.66L249.164 695.66L249.164 670.58L249.164 670.58L198.86 670.58z" /></clipPath><clipPath id="175"><path d="M198.86 695.66L249.164 695.66L249.164 695.66L249.164 670.58L249.164 670.58L198.86 670.58z" /></clipPath><clipPath id="176"><path d="M249.65 695.65L296.69 695.65L296.69 695.65L296.69 670.57L296.69 670.57L249.65 670.57z" /></clipPath><clipPath id="177"><path d="M249.65 695.66L296.69 695.66L296.69 695.66L296.69 670.58L296.69 670.58L249.65 670.58z" /></clipPath><clipPath id="178"><path d="M249.65 695.66L296.69 695.66L296.69 695.66L296.69 670.58L296.69 670.58L249.65 670.58z" /></clipPath><clipPath id="179"><path d="M297.17 695.65L353.36 695.65L353.36 695.65L353.36 670.57L353.36 670.57L297.17 670.57z" /></clipPath><clipPath id="180"><path d="M297.17 695.66L353.354 695.66L353.354 695.66L353.354 670.58L353.354 670.58L297.17 670.58z" /></clipPath><clipPath id="181"><path d="M353.84 695.65L541.42 695.65L541.42 695.65L541.42 670.57L541.42 670.57L353.84 670.57z" /></clipPath><clipPath id="182"><path d="M353.83 695.66L541.41 695.66L541.41 695.66L541.41 670.58L541.41 670.58L353.83 670.58z" /></clipPath><clipPath id="183"><path d="M353.83 695.66L541.41 695.66L541.41 695.66L541.41 670.58L541.41 670.58L353.83 670.58z" /></clipPath><clipPath id="184"><path d="M353.83 695.66L541.41 695.66L541.41 695.66L541.41 670.58L541.41 670.58L353.83 670.58z" /></clipPath><clipPath id="185"><path d="M353.83 695.66L541.41 695.66L541.41 695.66L541.41 670.58L541.41 670.58L353.83 670.58z" /></clipPath><clipPath id="186"><path d="M84.751 721.21L198.391 721.21L198.391 721.21L198.391 696.13L198.391 696.13L84.751 696.13z" /></clipPath><clipPath id="187"><path d="M84.744 721.22L198.384 721.22L198.384 721.22L198.384 696.14L198.384 696.14L84.744 696.14z" /></clipPath><clipPath id="188"><path d="M84.744 721.22L198.384 721.22L198.384 721.22L198.384 696.14L198.384 696.14L84.744 696.14z" /></clipPath><clipPath id="189"><path d="M198.87 721.21L249.165 721.21L249.165 721.21L249.165 696.13L249.165 696.13L198.87 696.13z" /></clipPath><clipPath id="190"><path d="M198.86 721.22L249.164 721.22L249.164 721.22L249.164 696.14L249.164 696.14L198.86 696.14z" /></clipPath><clipPath id="191"><path d="M198.86 721.22L249.164 721.22L249.164 721.22L249.164 696.14L249.164 696.14L198.86 696.14z" /></clipPath><clipPath id="192"><path d="M249.65 721.21L296.69 721.21L296.69 721.21L296.69 696.13L296.69 696.13L249.65 696.13z" /></clipPath><clipPath id="193"><path d="M249.65 721.22L296.69 721.22L296.69 721.22L296.69 696.14L296.69 696.14L249.65 696.14z" /></clipPath><clipPath id="194"><path d="M249.65 721.22L296.69 721.22L296.69 721.22L296.69 696.14L296.69 696.14L249.65 696.14z" /></clipPath><clipPath id="195"><path d="M297.17 721.21L353.36 721.21L353.36 721.21L353.36 696.13L353.36 696.13L297.17 696.13z" /></clipPath><clipPath id="196"><path d="M297.17 721.22L353.354 721.22L353.354 721.22L353.354 696.14L353.354 696.14L297.17 696.14z" /></clipPath><clipPath id="197"><path d="M353.84 721.21L541.42 721.21L541.42 721.21L541.42 696.13L541.42 696.13L353.84 696.13z" /></clipPath><clipPath id="198"><path d="M353.83 721.22L541.41 721.22L541.41 721.22L541.41 696.14L541.41 696.14L353.83 696.14z" /></clipPath><clipPath id="199"><path d="M353.83 721.22L541.41 721.22L541.41 721.22L541.41 696.14L541.41 696.14L353.83 696.14z" /></clipPath><clipPath id="200"><path d="M84.751 746.771L198.391 746.771L198.391 746.771L198.391 721.691L198.391 721.691L84.751 721.691z" /></clipPath><clipPath id="201"><path d="M84.744 746.776L198.384 746.776L198.384 746.776L198.384 721.696L198.384 721.696L84.744 721.696z" /></clipPath><clipPath id="202"><path d="M84.744 746.776L198.384 746.776L198.384 746.776L198.384 721.696L198.384 721.696L84.744 721.696z" /></clipPath><clipPath id="203"><path d="M198.87 746.771L249.165 746.771L249.165 746.771L249.165 721.691L249.165 721.691L198.87 721.691z" /></clipPath><clipPath id="204"><path d="M198.86 746.776L249.164 746.776L249.164 746.776L249.164 721.696L249.164 721.696L198.86 721.696z" /></clipPath><clipPath id="205"><path d="M198.86 746.776L249.164 746.776L249.164 746.776L249.164 721.696L249.164 721.696L198.86 721.696z" /></clipPath><clipPath id="206"><path d="M249.65 746.771L296.69 746.771L296.69 746.771L296.69 721.691L296.69 721.691L249.65 721.691z" /></clipPath><clipPath id="207"><path d="M249.65 746.776L296.69 746.776L296.69 746.776L296.69 721.696L296.69 721.696L249.65 721.696z" /></clipPath><clipPath id="208"><path d="M249.65 746.776L296.69 746.776L296.69 746.776L296.69 721.696L296.69 721.696L249.65 721.696z" /></clipPath><clipPath id="209"><path d="M297.17 746.771L353.36 746.771L353.36 746.771L353.36 721.691L353.36 721.691L297.17 721.691z" /></clipPath><clipPath id="210"><path d="M297.17 746.776L353.354 746.776L353.354 746.776L353.354 721.696L353.354 721.696L297.17 721.696z" /></clipPath><clipPath id="211"><path d="M353.84 746.771L541.42 746.771L541.42 746.771L541.42 721.691L541.42 721.691L353.84 721.691z" /></clipPath><clipPath id="212"><path d="M353.83 746.776L541.41 746.776L541.41 746.776L541.41 721.696L541.41 721.696L353.83 721.696z" /></clipPath><clipPath id="213"><path d="M353.83 746.776L541.41 746.776L541.41 746.776L541.41 721.696L541.41 721.696L353.83 721.696z" /></clipPath><clipPath id="214"><path d="M353.83 746.776L541.41 746.776L541.41 746.776L541.41 721.696L541.41 721.696L353.83 721.696z" /></clipPath><clipPath id="215"><path d="M353.83 746.776L541.41 746.776L541.41 746.776L541.41 721.696L541.41 721.696L353.83 721.696z" /></clipPath></defs><g transform="matrix(1.333333 0 0 1.333333 0 0)"><g><g clip-path="url(#1)"><path transform="matrix(1 0 0 -1 0 841)" d="M457.51 53.304L505.534 53.304L505.534 53.304L505.534 53.90404L505.534 53.90404L457.51 53.90404z" stroke="none" fill="#000000" fill-rule="evenodd" /><g clip-path="url(#2)"><path transform="matrix(1 0 0 -1 0 841)" d="M88.464 77.904L506.974 77.904L506.974 77.904L506.974 80.904L506.974 80.904L88.464 80.904z" stroke="none" fill="#000000" fill-rule="evenodd" /><path transform="matrix(1 0 0 -1 0 841)" d="M88.464 76.464L506.974 76.464L506.974 76.464L506.974 77.18397L506.974 77.18397L88.464 77.18397z" stroke="none" fill="#000000" fill-rule="evenodd" /></g><g clip-path="url(#3)"><g clip-path="url(#4)"></g><g clip-path="url(#5)"></g></g><g clip-path="url(#6)"><g clip-path="url(#7)"></g><g clip-path="url(#8)"></g><path transform="matrix(1 0 0 -1 0 841)" d="M348.79 737.26L396.79 737.26L396.79 737.26L396.79 737.86L396.79 737.86L348.79 737.86z" stroke="none" fill="#000000" fill-rule="evenodd" /></g><path transform="matrix(1 0 0 -1 0 841)" d="M84.264 751.56L84.744 751.56L84.744 751.56L84.744 752.04L84.744 752.04L84.264 752.04z" stroke="none" fill="#000000" fill-rule="evenodd" /><path transform="matrix(1 0 0 -1 0 841)" d="M84.264 751.56L84.744 751.56L84.744 751.56L84.744 752.04L84.744 752.04L84.264 752.04z" stroke="none" fill="#000000" fill-rule="evenodd" /><path transform="matrix(1 0 0 -1 0 841)" d="M84.744 751.56L168.984 751.56L168.984 751.56L168.984 752.04L168.984 752.04L84.744 752.04z" stroke="none" fill="#000000" fill-rule="evenodd" /><path transform="matrix(1 0 0 -1 0 841)" d="M168.98 751.56L169.46 751.56L169.46 751.56L169.46 752.04L169.46 752.04L168.98 752.04z" stroke="none" fill="#000000" fill-rule="evenodd" /><path transform="matrix(1 0 0 -1 0 841)" d="M169.46 751.56L217.844 751.56L217.844 751.56L217.844 752.04L217.844 752.04L169.46 752.04z" stroke="none" fill="#000000" fill-rule="evenodd" /><path transform="matrix(1 0 0 -1 0 841)" d="M217.85 751.56L218.33 751.56L218.33 751.56L218.33 752.04L218.33 752.04L217.85 752.04z" stroke="none" fill="#000000" fill-rule="evenodd" /><path transform="matrix(1 0 0 -1 0 841)" d="M218.33 751.56L259.49 751.56L259.49 751.56L259.49 752.04L259.49 752.04L218.33 752.04z" stroke="none" fill="#000000" fill-rule="evenodd" /><path transform="matrix(1 0 0 -1 0 841)" d="M259.49 751.56L259.97 751.56L259.97 751.56L259.97 752.04L259.97 752.04L259.49 752.04z" stroke="none" fill="#000000" fill-rule="evenodd" /><path transform="matrix(1 0 0 -1 0 841)" d="M259.97 751.56L337.154 751.56L337.154 751.56L337.154 752.04L337.154 752.04L259.97 752.04z" stroke="none" fill="#000000" fill-rule="evenodd" /><path transform="matrix(1 0 0 -1 0 841)" d="M337.15 751.56L337.63 751.56L337.63 751.56L337.63 752.04L337.63 752.04L337.15 752.04z" stroke="none" fill="#000000" fill-rule="evenodd" /><path transform="matrix(1 0 0 -1 0 841)" d="M337.63 751.56L523.53 751.56L523.53 751.56L523.53 752.04L523.53 752.04L337.63 752.04z" stroke="none" fill="#000000" fill-rule="evenodd" /><path transform="matrix(1 0 0 -1 0 841)" d="M523.54 751.56L524.02 751.56L524.02 751.56L524.02 752.04L524.02 752.04L523.54 752.04z" stroke="none" fill="#000000" fill-rule="evenodd" /><path transform="matrix(1 0 0 -1 0 841)" d="M523.54 751.56L524.02 751.56L524.02 751.56L524.02 752.04L524.02 752.04L523.54 752.04z" stroke="none" fill="#000000" fill-rule="evenodd" /><path transform="matrix(1 0 0 -1 0 841)" d="M84.264 731.26L84.744 731.26L84.744 731.26L84.744 751.564L84.744 751.564L84.264 751.564z" stroke="none" fill="#000000" fill-rule="evenodd" /><path transform="matrix(1 0 0 -1 0 841)" d="M168.98 731.26L169.46 731.26L169.46 731.26L169.46 751.564L169.46 751.564L168.98 751.564z" stroke="none" fill="#000000" fill-rule="evenodd" /><path transform="matrix(1 0 0 -1 0 841)" d="M217.85 731.26L218.33 731.26L218.33 731.26L218.33 751.564L218.33 751.564L217.85 751.564z" stroke="none" fill="#000000" fill-rule="evenodd" /><path transform="matrix(1 0 0 -1 0 841)" d="M259.49 731.26L259.97 731.26L259.97 731.26L259.97 751.564L259.97 751.564L259.49 751.564z" stroke="none" fill="#000000" fill-rule="evenodd" /><path transform="matrix(1 0 0 -1 0 841)" d="M337.15 731.26L337.63 731.26L337.63 731.26L337.63 751.564L337.63 751.564L337.15 751.564z" stroke="none" fill="#000000" fill-rule="evenodd" /><path transform="matrix(1 0 0 -1 0 841)" d="M523.54 731.26L524.02 731.26L524.02 731.26L524.02 751.564L524.02 751.564L523.54 751.564z" stroke="none" fill="#000000" fill-rule="evenodd" /><path transform="matrix(1 0 0 -1 0 841)" d="M84.744 700.3L168.984 700.3L168.984 700.3L168.984 730.78L168.984 730.78L84.744 730.78z" stroke="none" fill="#DAEEF3" fill-rule="evenodd" /><g clip-path="url(#9)"><path transform="matrix(1 0 0 -1 0 841)" d="M89.904 706.54L163.824 706.54L163.824 706.54L163.824 730.78L163.824 730.78L89.904 730.78z" stroke="none" fill="#DAEEF3" fill-rule="evenodd" /><g clip-path="url(#10)"></g><g clip-path="url(#11)"></g></g><path transform="matrix(1 0 0 -1 0 841)" d="M169.46 700.3L217.844 700.3L217.844 700.3L217.844 730.78L217.844 730.78L169.46 730.78z" stroke="none" fill="#DAEEF3" fill-rule="evenodd" /><g clip-path="url(#12)"><path transform="matrix(1 0 0 -1 0 841)" d="M174.62 706.54L212.684 706.54L212.684 706.54L212.684 730.78L212.684 730.78L174.62 730.78z" stroke="none" fill="#DAEEF3" fill-rule="evenodd" /><g clip-path="url(#13)"></g><g clip-path="url(#14)"></g><g clip-path="url(#15)"></g></g><path transform="matrix(1 0 0 -1 0 841)" d="M218.33 700.3L259.49 700.3L259.49 700.3L259.49 730.78L259.49 730.78L218.33 730.78z" stroke="none" fill="#DAEEF3" fill-rule="evenodd" /><g clip-path="url(#16)"><path transform="matrix(1 0 0 -1 0 841)" d="M223.49 705.7L254.33 705.7L254.33 705.7L254.33 730.78L254.33 730.78L223.49 730.78z" stroke="none" fill="#DAEEF3" fill-rule="evenodd" /><g clip-path="url(#17)"></g><g clip-path="url(#18)"></g><g clip-path="url(#19)"></g></g><path transform="matrix(1 0 0 -1 0 841)" d="M259.97 700.3L337.154 700.3L337.154 700.3L337.154 730.78L337.154 730.78L259.97 730.78z" stroke="none" fill="#DAEEF3" fill-rule="evenodd" /><g clip-path="url(#20)"><path transform="matrix(1 0 0 -1 0 841)" d="M265.13 706.54L331.97 706.54L331.97 706.54L331.97 730.78L331.97 730.78L265.13 730.78z" stroke="none" fill="#DAEEF3" fill-rule="evenodd" /><g clip-path="url(#21)"></g></g><path transform="matrix(1 0 0 -1 0 841)" d="M337.63 700.3L523.53 700.3L523.53 700.3L523.53 730.78L523.53 730.78L337.63 730.78z" stroke="none" fill="#DAEEF3" fill-rule="evenodd" /><g clip-path="url(#22)"><path transform="matrix(1 0 0 -1 0 841)" d="M342.79 700.3L518.37 700.3L518.37 700.3L518.37 730.78L518.37 730.78L342.79 730.78z" stroke="none" fill="#DAEEF3" fill-rule="evenodd" /><g clip-path="url(#23)"></g><g clip-path="url(#24)"></g><g clip-path="url(#25)"></g><g clip-path="url(#26)"></g><path transform="matrix(1 0 0 -1 0 841)" d="M351.19 707.98L399.19 707.98L399.19 707.98L399.19 708.58L399.19 708.58L351.19 708.58z" stroke="none" fill="#000000" fill-rule="evenodd" /></g><path transform="matrix(1 0 0 -1 0 841)" d="M84.264 730.78L84.744 730.78L84.744 730.78L84.744 731.26L84.744 731.26L84.264 731.26z" stroke="none" fill="#000000" fill-rule="evenodd" /><path transform="matrix(1 0 0 -1 0 841)" d="M84.744 730.78L168.984 730.78L168.984 730.78L168.984 731.26L168.984 731.26L84.744 731.26z" stroke="none" fill="#000000" fill-rule="evenodd" /><path transform="matrix(1 0 0 -1 0 841)" d="M168.98 730.78L169.46 730.78L169.46 730.78L169.46 731.26L169.46 731.26L168.98 731.26z" stroke="none" fill="#000000" fill-rule="evenodd" /><path transform="matrix(1 0 0 -1 0 841)" d="M169.46 730.78L217.844 730.78L217.844 730.78L217.844 731.26L217.844 731.26L169.46 731.26z" stroke="none" fill="#000000" fill-rule="evenodd" /><path transform="matrix(1 0 0 -1 0 841)" d="M217.85 730.78L218.33 730.78L218.33 730.78L218.33 731.26L218.33 731.26L217.85 731.26z" stroke="none" fill="#000000" fill-rule="evenodd" /><path transform="matrix(1 0 0 -1 0 841)" d="M218.33 730.78L259.49 730.78L259.49 730.78L259.49 731.26L259.49 731.26L218.33 731.26z" stroke="none" fill="#000000" fill-rule="evenodd" /><path transform="matrix(1 0 0 -1 0 841)" d="M259.49 730.78L259.97 730.78L259.97 730.78L259.97 731.26L259.97 731.26L259.49 731.26z" stroke="none" fill="#000000" fill-rule="evenodd" /><path transform="matrix(1 0 0 -1 0 841)" d="M259.97 730.78L337.154 730.78L337.154 730.78L337.154 731.26L337.154 731.26L259.97 731.26z" stroke="none" fill="#000000" fill-rule="evenodd" /><path transform="matrix(1 0 0 -1 0 841)" d="M337.15 730.78L337.63 730.78L337.63 730.78L337.63 731.26L337.63 731.26L337.15 731.26z" stroke="none" fill="#000000" fill-rule="evenodd" /><path transform="matrix(1 0 0 -1 0 841)" d="M337.63 730.78L523.53 730.78L523.53 730.78L523.53 731.26L523.53 731.26L337.63 731.26z" stroke="none" fill="#000000" fill-rule="evenodd" /><path transform="matrix(1 0 0 -1 0 841)" d="M523.54 730.78L524.02 730.78L524.02 730.78L524.02 731.26L524.02 731.26L523.54 731.26z" stroke="none" fill="#000000" fill-rule="evenodd" /><path transform="matrix(1 0 0 -1 0 841)" d="M84.264 700.3L84.744 700.3L84.744 700.3L84.744 730.78L84.744 730.78L84.264 730.78z" stroke="none" fill="#000000" fill-rule="evenodd" /><path transform="matrix(1 0 0 -1 0 841)" d="M84.264 699.82L84.744 699.82L84.744 699.82L84.744 700.3L84.744 700.3L84.264 700.3z" stroke="none" fill="#000000" fill-rule="evenodd" /><path transform="matrix(1 0 0 -1 0 841)" d="M84.264 699.82L84.744 699.82L84.744 699.82L84.744 700.3L84.744 700.3L84.264 700.3z" stroke="none" fill="#000000" fill-rule="evenodd" /><path transform="matrix(1 0 0 -1 0 841)" d="M84.744 699.82L168.984 699.82L168.984 699.82L168.984 700.3L168.984 700.3L84.744 700.3z" stroke="none" fill="#000000" fill-rule="evenodd" /><path transform="matrix(1 0 0 -1 0 841)" d="M168.98 700.3L169.46 700.3L169.46 700.3L169.46 730.78L169.46 730.78L168.98 730.78z" stroke="none" fill="#000000" fill-rule="evenodd" /><path transform="matrix(1 0 0 -1 0 841)" d="M168.98 699.82L169.46 699.82L169.46 699.82L169.46 700.3L169.46 700.3L168.98 700.3z" stroke="none" fill="#000000" fill-rule="evenodd" /><path transform="matrix(1 0 0 -1 0 841)" d="M169.46 699.82L217.844 699.82L217.844 699.82L217.844 700.3L217.844 700.3L169.46 700.3z" stroke="none" fill="#000000" fill-rule="evenodd" /><path transform="matrix(1 0 0 -1 0 841)" d="M217.85 700.3L218.33 700.3L218.33 700.3L218.33 730.78L218.33 730.78L217.85 730.78z" stroke="none" fill="#000000" fill-rule="evenodd" /><path transform="matrix(1 0 0 -1 0 841)" d="M217.85 699.82L218.33 699.82L218.33 699.82L218.33 700.3L218.33 700.3L217.85 700.3z" stroke="none" fill="#000000" fill-rule="evenodd" /><path transform="matrix(1 0 0 -1 0 841)" d="M218.33 699.82L259.49 699.82L259.49 699.82L259.49 700.3L259.49 700.3L218.33 700.3z" stroke="none" fill="#000000" fill-rule="evenodd" /><path transform="matrix(1 0 0 -1 0 841)" d="M259.49 700.3L259.97 700.3L259.97 700.3L259.97 730.78L259.97 730.78L259.49 730.78z" stroke="none" fill="#000000" fill-rule="evenodd" /><path transform="matrix(1 0 0 -1 0 841)" d="M259.49 699.82L259.97 699.82L259.97 699.82L259.97 700.3L259.97 700.3L259.49 700.3z" stroke="none" fill="#000000" fill-rule="evenodd" /><path transform="matrix(1 0 0 -1 0 841)" d="M259.97 699.82L337.154 699.82L337.154 699.82L337.154 700.3L337.154 700.3L259.97 700.3z" stroke="none" fill="#000000" fill-rule="evenodd" /><path transform="matrix(1 0 0 -1 0 841)" d="M337.15 700.3L337.63 700.3L337.63 700.3L337.63 730.78L337.63 730.78L337.15 730.78z" stroke="none" fill="#000000" fill-rule="evenodd" /><path transform="matrix(1 0 0 -1 0 841)" d="M337.15 699.82L337.63 699.82L337.63 699.82L337.63 700.3L337.63 700.3L337.15 700.3z" stroke="none" fill="#000000" fill-rule="evenodd" /><path transform="matrix(1 0 0 -1 0 841)" d="M337.63 699.82L523.53 699.82L523.53 699.82L523.53 700.3L523.53 700.3L337.63 700.3z" stroke="none" fill="#000000" fill-rule="evenodd" /><path transform="matrix(1 0 0 -1 0 841)" d="M523.54 700.3L524.02 700.3L524.02 700.3L524.02 730.78L524.02 730.78L523.54 730.78z" stroke="none" fill="#000000" fill-rule="evenodd" /><path transform="matrix(1 0 0 -1 0 841)" d="M523.54 699.82L524.02 699.82L524.02 699.82L524.02 700.3L524.02 700.3L523.54 700.3z" stroke="none" fill="#000000" fill-rule="evenodd" /><path transform="matrix(1 0 0 -1 0 841)" d="M523.54 699.82L524.02 699.82L524.02 699.82L524.02 700.3L524.02 700.3L523.54 700.3z" stroke="none" fill="#000000" fill-rule="evenodd" /><path transform="matrix(1 0 0 -1 0 841)" d="M84.744 550.63L178.104 550.63L178.104 550.63L178.104 575.734L178.104 575.734L84.744 575.734z" stroke="none" fill="#0070C0" fill-rule="evenodd" /><g clip-path="url(#27)"><path transform="matrix(1 0 0 -1 0 841)" d="M89.904 550.63L172.944 550.63L172.944 550.63L172.944 575.734L172.944 575.734L89.904 575.734z" stroke="none" fill="#0070C0" fill-rule="evenodd" /><g clip-path="url(#28)"></g><g clip-path="url(#29)"></g></g><path transform="matrix(1 0 0 -1 0 841)" d="M178.58 550.63L254.564 550.63L254.564 550.63L254.564 575.734L254.564 575.734L178.58 575.734z" stroke="none" fill="#0070C0" fill-rule="evenodd" /><g clip-path="url(#30)"><path transform="matrix(1 0 0 -1 0 841)" d="M183.74 550.63L249.404 550.63L249.404 550.63L249.404 575.734L249.404 575.734L183.74 575.734z" stroke="none" fill="#0070C0" fill-rule="evenodd" /><g clip-path="url(#31)"></g><g clip-path="url(#32)"></g></g><path transform="matrix(1 0 0 -1 0 841)" d="M255.05 550.63L303.05 550.63L303.05 550.63L303.05 575.734L303.05 575.734L255.05 575.734z" stroke="none" fill="#0070C0" fill-rule="evenodd" /><g clip-path="url(#33)"><path transform="matrix(1 0 0 -1 0 841)" d="M260.21 550.63L297.89 550.63L297.89 550.63L297.89 575.734L297.89 575.734L260.21 575.734z" stroke="none" fill="#0070C0" fill-rule="evenodd" /><g clip-path="url(#34)"></g><g clip-path="url(#35)"></g></g><path transform="matrix(1 0 0 -1 0 841)" d="M303.53 550.63L360.434 550.63L360.434 550.63L360.434 575.734L360.434 575.734L303.53 575.734z" stroke="none" fill="#0070C0" fill-rule="evenodd" /><g clip-path="url(#36)"><path transform="matrix(1 0 0 -1 0 841)" d="M308.69 550.63L355.274 550.63L355.274 550.63L355.274 575.734L355.274 575.734L308.69 575.734z" stroke="none" fill="#0070C0" fill-rule="evenodd" /><g clip-path="url(#37)"></g><g clip-path="url(#38)"></g></g><path transform="matrix(1 0 0 -1 0 841)" d="M361.03 550.63L530.61 550.63L530.61 550.63L530.61 575.734L530.61 575.734L361.03 575.734z" stroke="none" fill="#0070C0" fill-rule="evenodd" /><g clip-path="url(#39)"><path transform="matrix(1 0 0 -1 0 841)" d="M366.07 550.63L525.45 550.63L525.45 550.63L525.45 575.734L525.45 575.734L366.07 575.734z" stroke="none" fill="#0070C0" fill-rule="evenodd" /><g clip-path="url(#40)"></g><g clip-path="url(#41)"></g></g><path transform="matrix(1 0 0 -1 0 841)" d="M84.264 575.74L84.744 575.74L84.744 575.74L84.744 576.22L84.744 576.22L84.264 576.22z" stroke="none" fill="#000000" fill-rule="evenodd" /><path transform="matrix(1 0 0 -1 0 841)" d="M84.264 575.74L84.744 575.74L84.744 575.74L84.744 576.22L84.744 576.22L84.264 576.22z" stroke="none" fill="#000000" fill-rule="evenodd" /><path transform="matrix(1 0 0 -1 0 841)" d="M84.744 575.74L178.104 575.74L178.104 575.74L178.104 576.22L178.104 576.22L84.744 576.22z" stroke="none" fill="#000000" fill-rule="evenodd" /><path transform="matrix(1 0 0 -1 0 841)" d="M178.1 575.74L178.58 575.74L178.58 575.74L178.58 576.22L178.58 576.22L178.1 576.22z" stroke="none" fill="#000000" fill-rule="evenodd" /><path transform="matrix(1 0 0 -1 0 841)" d="M178.58 575.74L254.564 575.74L254.564 575.74L254.564 576.22L254.564 576.22L178.58 576.22z" stroke="none" fill="#000000" fill-rule="evenodd" /><path transform="matrix(1 0 0 -1 0 841)" d="M254.57 575.74L255.05 575.74L255.05 575.74L255.05 576.22L255.05 576.22L254.57 576.22z" stroke="none" fill="#000000" fill-rule="evenodd" /><path transform="matrix(1 0 0 -1 0 841)" d="M255.05 575.74L303.05 575.74L303.05 575.74L303.05 576.22L303.05 576.22L255.05 576.22z" stroke="none" fill="#000000" fill-rule="evenodd" /><path transform="matrix(1 0 0 -1 0 841)" d="M303.05 575.74L303.53 575.74L303.53 575.74L303.53 576.22L303.53 576.22L303.05 576.22z" stroke="none" fill="#000000" fill-rule="evenodd" /><path transform="matrix(1 0 0 -1 0 841)" d="M303.53 575.74L360.554 575.74L360.554 575.74L360.554 576.22L360.554 576.22L303.53 576.22z" stroke="none" fill="#000000" fill-rule="evenodd" /><path transform="matrix(1 0 0 -1 0 841)" d="M360.55 575.74L361.03 575.74L361.03 575.74L361.03 576.22L361.03 576.22L360.55 576.22z" stroke="none" fill="#000000" fill-rule="evenodd" /><path transform="matrix(1 0 0 -1 0 841)" d="M361.03 575.74L530.61 575.74L530.61 575.74L530.61 576.22L530.61 576.22L361.03 576.22z" stroke="none" fill="#000000" fill-rule="evenodd" /><path transform="matrix(1 0 0 -1 0 841)" d="M530.62 575.74L531.1 575.74L531.1 575.74L531.1 576.22L531.1 576.22L530.62 576.22z" stroke="none" fill="#000000" fill-rule="evenodd" /><path transform="matrix(1 0 0 -1 0 841)" d="M530.62 575.74L531.1 575.74L531.1 575.74L531.1 576.22L531.1 576.22L530.62 576.22z" stroke="none" fill="#000000" fill-rule="evenodd" /><path transform="matrix(1 0 0 -1 0 841)" d="M84.264 550.63L84.744 550.63L84.744 550.63L84.744 575.734L84.744 575.734L84.264 575.734z" stroke="none" fill="#000000" fill-rule="evenodd" /><path transform="matrix(1 0 0 -1 0 841)" d="M178.1 550.63L178.58 550.63L178.58 550.63L178.58 575.734L178.58 575.734L178.1 575.734z" stroke="none" fill="#000000" fill-rule="evenodd" /><path transform="matrix(1 0 0 -1 0 841)" d="M254.57 550.63L255.05 550.63L255.05 550.63L255.05 575.734L255.05 575.734L254.57 575.734z" stroke="none" fill="#000000" fill-rule="evenodd" /><path transform="matrix(1 0 0 -1 0 841)" d="M303.05 550.63L303.53 550.63L303.53 550.63L303.53 575.734L303.53 575.734L303.05 575.734z" stroke="none" fill="#000000" fill-rule="evenodd" /><path transform="matrix(1 0 0 -1 0 841)" d="M360.55 550.63L361.03 550.63L361.03 550.63L361.03 575.734L361.03 575.734L360.55 575.734z" stroke="none" fill="#000000" fill-rule="evenodd" /><path transform="matrix(1 0 0 -1 0 841)" d="M530.62 550.63L531.1 550.63L531.1 550.63L531.1 575.734L531.1 575.734L530.62 575.734z" stroke="none" fill="#000000" fill-rule="evenodd" /><path transform="matrix(1 0 0 -1 0 841)" d="M84.744 525.07L178.104 525.07L178.104 525.07L178.104 550.15L178.104 550.15L84.744 550.15z" stroke="none" fill="#DAEEF3" fill-rule="evenodd" /><g clip-path="url(#42)"><path transform="matrix(1 0 0 -1 0 841)" d="M89.904 526.03L172.944 526.03L172.944 526.03L172.944 550.15L172.944 550.15L89.904 550.15z" stroke="none" fill="#DAEEF3" fill-rule="evenodd" /><g clip-path="url(#43)"></g><g clip-path="url(#44)"></g></g><path transform="matrix(1 0 0 -1 0 841)" d="M178.58 525.07L254.564 525.07L254.564 525.07L254.564 550.15L254.564 550.15L178.58 550.15z" stroke="none" fill="#DAEEF3" fill-rule="evenodd" /><g clip-path="url(#45)"><path transform="matrix(1 0 0 -1 0 841)" d="M183.74 526.03L249.404 526.03L249.404 526.03L249.404 550.15L249.404 550.15L183.74 550.15z" stroke="none" fill="#DAEEF3" fill-rule="evenodd" /><g clip-path="url(#46)"></g><g clip-path="url(#47)"></g></g><path transform="matrix(1 0 0 -1 0 841)" d="M255.05 525.07L303.05 525.07L303.05 525.07L303.05 550.15L303.05 550.15L255.05 550.15z" stroke="none" fill="#DAEEF3" fill-rule="evenodd" /><g clip-path="url(#48)"><path transform="matrix(1 0 0 -1 0 841)" d="M260.21 525.07L297.89 525.07L297.89 525.07L297.89 550.15L297.89 550.15L260.21 550.15z" stroke="none" fill="#DAEEF3" fill-rule="evenodd" /><g clip-path="url(#49)"></g><g clip-path="url(#50)"></g></g><path transform="matrix(1 0 0 -1 0 841)" d="M303.53 525.07L360.434 525.07L360.434 525.07L360.434 550.15L360.434 550.15L303.53 550.15z" stroke="none" fill="#DAEEF3" fill-rule="evenodd" /><g clip-path="url(#51)"><path transform="matrix(1 0 0 -1 0 841)" d="M308.69 526.03L355.274 526.03L355.274 526.03L355.274 550.15L355.274 550.15L308.69 550.15z" stroke="none" fill="#DAEEF3" fill-rule="evenodd" /><g clip-path="url(#52)"></g></g><path transform="matrix(1 0 0 -1 0 841)" d="M361.03 525.07L530.61 525.07L530.61 525.07L530.61 550.15L530.61 550.15L361.03 550.15z" stroke="none" fill="#DAEEF3" fill-rule="evenodd" /><g clip-path="url(#53)"><path transform="matrix(1 0 0 -1 0 841)" d="M366.07 525.07L525.45 525.07L525.45 525.07L525.45 550.15L525.45 550.15L366.07 550.15z" stroke="none" fill="#DAEEF3" fill-rule="evenodd" /><g clip-path="url(#54)"></g><g clip-path="url(#55)"></g></g><path transform="matrix(1 0 0 -1 0 841)" d="M84.264 550.15L84.744 550.15L84.744 550.15L84.744 550.63L84.744 550.63L84.264 550.63z" stroke="none" fill="#000000" fill-rule="evenodd" /><path transform="matrix(1 0 0 -1 0 841)" d="M84.744 550.15L178.104 550.15L178.104 550.15L178.104 550.63L178.104 550.63L84.744 550.63z" stroke="none" fill="#000000" fill-rule="evenodd" /><path transform="matrix(1 0 0 -1 0 841)" d="M178.1 550.15L178.58 550.15L178.58 550.15L178.58 550.63L178.58 550.63L178.1 550.63z" stroke="none" fill="#000000" fill-rule="evenodd" /><path transform="matrix(1 0 0 -1 0 841)" d="M178.58 550.15L254.564 550.15L254.564 550.15L254.564 550.63L254.564 550.63L178.58 550.63z" stroke="none" fill="#000000" fill-rule="evenodd" /><path transform="matrix(1 0 0 -1 0 841)" d="M254.57 550.15L255.05 550.15L255.05 550.15L255.05 550.63L255.05 550.63L254.57 550.63z" stroke="none" fill="#000000" fill-rule="evenodd" /><path transform="matrix(1 0 0 -1 0 841)" d="M255.05 550.15L303.05 550.15L303.05 550.15L303.05 550.63L303.05 550.63L255.05 550.63z" stroke="none" fill="#000000" fill-rule="evenodd" /><path transform="matrix(1 0 0 -1 0 841)" d="M303.05 550.15L303.53 550.15L303.53 550.15L303.53 550.63L303.53 550.63L303.05 550.63z" stroke="none" fill="#000000" fill-rule="evenodd" /><path transform="matrix(1 0 0 -1 0 841)" d="M303.53 550.15L360.554 550.15L360.554 550.15L360.554 550.63L360.554 550.63L303.53 550.63z" stroke="none" fill="#000000" fill-rule="evenodd" /><path transform="matrix(1 0 0 -1 0 841)" d="M360.55 550.15L361.03 550.15L361.03 550.15L361.03 550.63L361.03 550.63L360.55 550.63z" stroke="none" fill="#000000" fill-rule="evenodd" /><path transform="matrix(1 0 0 -1 0 841)" d="M361.03 550.15L530.61 550.15L530.61 550.15L530.61 550.63L530.61 550.63L361.03 550.63z" stroke="none" fill="#000000" fill-rule="evenodd" /><path transform="matrix(1 0 0 -1 0 841)" d="M530.62 550.15L531.1 550.15L531.1 550.15L531.1 550.63L531.1 550.63L530.62 550.63z" stroke="none" fill="#000000" fill-rule="evenodd" /><path transform="matrix(1 0 0 -1 0 841)" d="M84.264 525.07L84.744 525.07L84.744 525.07L84.744 550.15L84.744 550.15L84.264 550.15z" stroke="none" fill="#000000" fill-rule="evenodd" /><path transform="matrix(1 0 0 -1 0 841)" d="M178.1 525.07L178.58 525.07L178.58 525.07L178.58 550.15L178.58 550.15L178.1 550.15z" stroke="none" fill="#000000" fill-rule="evenodd" /><path transform="matrix(1 0 0 -1 0 841)" d="M254.57 525.07L255.05 525.07L255.05 525.07L255.05 550.15L255.05 550.15L254.57 550.15z" stroke="none" fill="#000000" fill-rule="evenodd" /><path transform="matrix(1 0 0 -1 0 841)" d="M303.05 525.07L303.53 525.07L303.53 525.07L303.53 550.15L303.53 550.15L303.05 550.15z" stroke="none" fill="#000000" fill-rule="evenodd" /><path transform="matrix(1 0 0 -1 0 841)" d="M360.55 525.07L361.03 525.07L361.03 525.07L361.03 550.15L361.03 550.15L360.55 550.15z" stroke="none" fill="#000000" fill-rule="evenodd" /><path transform="matrix(1 0 0 -1 0 841)" d="M530.62 525.07L531.1 525.07L531.1 525.07L531.1 550.15L531.1 550.15L530.62 550.15z" stroke="none" fill="#000000" fill-rule="evenodd" /><g clip-path="url(#56)"><g clip-path="url(#57)"></g><g clip-path="url(#58)"></g></g><g clip-path="url(#59)"><g clip-path="url(#60)"></g><g clip-path="url(#61)"></g></g><g clip-path="url(#62)"><g clip-path="url(#63)"></g><g clip-path="url(#64)"></g></g><g clip-path="url(#65)"><g clip-path="url(#66)"></g><g clip-path="url(#67)"></g></g><g clip-path="url(#68)"><g clip-path="url(#69)"></g><g clip-path="url(#70)"></g><g clip-path="url(#71)"></g><g clip-path="url(#72)"></g><g clip-path="url(#73)"></g><g clip-path="url(#74)"></g><g clip-path="url(#75)"></g><g clip-path="url(#76)"></g><g clip-path="url(#77)"></g><g clip-path="url(#78)"></g><g clip-path="url(#79)"></g><g clip-path="url(#80)"></g><g clip-path="url(#81)"></g><g clip-path="url(#82)"></g><g clip-path="url(#83)"></g><g clip-path="url(#84)"></g><g clip-path="url(#85)"></g><g clip-path="url(#86)"></g><g clip-path="url(#87)"></g><g clip-path="url(#88)"></g><g clip-path="url(#89)"></g><g clip-path="url(#90)"></g><g clip-path="url(#91)"></g><g clip-path="url(#92)"></g></g><path transform="matrix(1 0 0 -1 0 841)" d="M84.264 524.59L84.744 524.59L84.744 524.59L84.744 525.07L84.744 525.07L84.264 525.07z" stroke="none" fill="#000000" fill-rule="evenodd" /><path transform="matrix(1 0 0 -1 0 841)" d="M84.744 524.59L178.104 524.59L178.104 524.59L178.104 525.07L178.104 525.07L84.744 525.07z" stroke="none" fill="#000000" fill-rule="evenodd" /><path transform="matrix(1 0 0 -1 0 841)" d="M178.1 524.59L178.58 524.59L178.58 524.59L178.58 525.07L178.58 525.07L178.1 525.07z" stroke="none" fill="#000000" fill-rule="evenodd" /><path transform="matrix(1 0 0 -1 0 841)" d="M178.58 524.59L254.564 524.59L254.564 524.59L254.564 525.07L254.564 525.07L178.58 525.07z" stroke="none" fill="#000000" fill-rule="evenodd" /><path transform="matrix(1 0 0 -1 0 841)" d="M254.57 524.59L255.05 524.59L255.05 524.59L255.05 525.07L255.05 525.07L254.57 525.07z" stroke="none" fill="#000000" fill-rule="evenodd" /><path transform="matrix(1 0 0 -1 0 841)" d="M255.05 524.59L303.05 524.59L303.05 524.59L303.05 525.07L303.05 525.07L255.05 525.07z" stroke="none" fill="#000000" fill-rule="evenodd" /><path transform="matrix(1 0 0 -1 0 841)" d="M303.05 524.59L303.53 524.59L303.53 524.59L303.53 525.07L303.53 525.07L303.05 525.07z" stroke="none" fill="#000000" fill-rule="evenodd" /><path transform="matrix(1 0 0 -1 0 841)" d="M303.53 524.59L360.554 524.59L360.554 524.59L360.554 525.07L360.554 525.07L303.53 525.07z" stroke="none" fill="#000000" fill-rule="evenodd" /><path transform="matrix(1 0 0 -1 0 841)" d="M360.55 524.59L361.03 524.59L361.03 524.59L361.03 525.07L361.03 525.07L360.55 525.07z" stroke="none" fill="#000000" fill-rule="evenodd" /><path transform="matrix(1 0 0 -1 0 841)" d="M361.03 524.59L530.61 524.59L530.61 524.59L530.61 525.07L530.61 525.07L361.03 525.07z" stroke="none" fill="#000000" fill-rule="evenodd" /><path transform="matrix(1 0 0 -1 0 841)" d="M530.62 524.59L531.1 524.59L531.1 524.59L531.1 525.07L531.1 525.07L530.62 525.07z" stroke="none" fill="#000000" fill-rule="evenodd" /><path transform="matrix(1 0 0 -1 0 841)" d="M84.264 357.29L84.744 357.29L84.744 357.29L84.744 524.59L84.744 524.59L84.264 524.59z" stroke="none" fill="#000000" fill-rule="evenodd" /><path transform="matrix(1 0 0 -1 0 841)" d="M178.1 357.29L178.58 357.29L178.58 357.29L178.58 524.59L178.58 524.59L178.1 524.59z" stroke="none" fill="#000000" fill-rule="evenodd" /><path transform="matrix(1 0 0 -1 0 841)" d="M254.57 357.29L255.05 357.29L255.05 357.29L255.05 524.59L255.05 524.59L254.57 524.59z" stroke="none" fill="#000000" fill-rule="evenodd" /><path transform="matrix(1 0 0 -1 0 841)" d="M303.05 357.29L303.53 357.29L303.53 357.29L303.53 524.59L303.53 524.59L303.05 524.59z" stroke="none" fill="#000000" fill-rule="evenodd" /><path transform="matrix(1 0 0 -1 0 841)" d="M360.55 357.29L361.03 357.29L361.03 357.29L361.03 524.59L361.03 524.59L360.55 524.59z" stroke="none" fill="#000000" fill-rule="evenodd" /><path transform="matrix(1 0 0 -1 0 841)" d="M530.62 357.29L531.1 357.29L531.1 357.29L531.1 524.59L531.1 524.59L530.62 524.59z" stroke="none" fill="#000000" fill-rule="evenodd" /><path transform="matrix(1 0 0 -1 0 841)" d="M84.744 331.73L178.104 331.73L178.104 331.73L178.104 356.81L178.104 356.81L84.744 356.81z" stroke="none" fill="#DAEEF3" fill-rule="evenodd" /><g clip-path="url(#93)"><path transform="matrix(1 0 0 -1 0 841)" d="M89.904 332.69L172.944 332.69L172.944 332.69L172.944 356.81L172.944 356.81L89.904 356.81z" stroke="none" fill="#DAEEF3" fill-rule="evenodd" /><g clip-path="url(#94)"></g><g clip-path="url(#95)"></g></g><path transform="matrix(1 0 0 -1 0 841)" d="M178.58 331.73L254.564 331.73L254.564 331.73L254.564 356.81L254.564 356.81L178.58 356.81z" stroke="none" fill="#DAEEF3" fill-rule="evenodd" /><g clip-path="url(#96)"><path transform="matrix(1 0 0 -1 0 841)" d="M183.74 332.69L249.404 332.69L249.404 332.69L249.404 356.81L249.404 356.81L183.74 356.81z" stroke="none" fill="#DAEEF3" fill-rule="evenodd" /><g clip-path="url(#97)"></g><g clip-path="url(#98)"></g></g><path transform="matrix(1 0 0 -1 0 841)" d="M255.05 331.73L303.05 331.73L303.05 331.73L303.05 356.81L303.05 356.81L255.05 356.81z" stroke="none" fill="#DAEEF3" fill-rule="evenodd" /><g clip-path="url(#99)"><path transform="matrix(1 0 0 -1 0 841)" d="M260.21 331.73L297.89 331.73L297.89 331.73L297.89 356.81L297.89 356.81L260.21 356.81z" stroke="none" fill="#DAEEF3" fill-rule="evenodd" /><g clip-path="url(#100)"></g><g clip-path="url(#101)"></g></g><path transform="matrix(1 0 0 -1 0 841)" d="M303.53 331.73L360.434 331.73L360.434 331.73L360.434 356.81L360.434 356.81L303.53 356.81z" stroke="none" fill="#DAEEF3" fill-rule="evenodd" /><g clip-path="url(#102)"><path transform="matrix(1 0 0 -1 0 841)" d="M308.69 332.69L355.274 332.69L355.274 332.69L355.274 356.81L355.274 356.81L308.69 356.81z" stroke="none" fill="#DAEEF3" fill-rule="evenodd" /><g clip-path="url(#103)"></g></g><path transform="matrix(1 0 0 -1 0 841)" d="M361.03 331.73L530.61 331.73L530.61 331.73L530.61 356.81L530.61 356.81L361.03 356.81z" stroke="none" fill="#DAEEF3" fill-rule="evenodd" /><g clip-path="url(#104)"><path transform="matrix(1 0 0 -1 0 841)" d="M366.07 331.73L525.45 331.73L525.45 331.73L525.45 356.81L525.45 356.81L366.07 356.81z" stroke="none" fill="#DAEEF3" fill-rule="evenodd" /><g clip-path="url(#105)"></g><g clip-path="url(#106)"></g><g clip-path="url(#107)"></g><g clip-path="url(#108)"></g><g clip-path="url(#109)"></g></g><path transform="matrix(1 0 0 -1 0 841)" d="M84.264 356.81L84.744 356.81L84.744 356.81L84.744 357.29L84.744 357.29L84.264 357.29z" stroke="none" fill="#000000" fill-rule="evenodd" /><path transform="matrix(1 0 0 -1 0 841)" d="M84.744 356.81L178.104 356.81L178.104 356.81L178.104 357.29L178.104 357.29L84.744 357.29z" stroke="none" fill="#000000" fill-rule="evenodd" /><path transform="matrix(1 0 0 -1 0 841)" d="M178.1 356.81L178.58 356.81L178.58 356.81L178.58 357.29L178.58 357.29L178.1 357.29z" stroke="none" fill="#000000" fill-rule="evenodd" /><path transform="matrix(1 0 0 -1 0 841)" d="M178.58 356.81L254.564 356.81L254.564 356.81L254.564 357.29L254.564 357.29L178.58 357.29z" stroke="none" fill="#000000" fill-rule="evenodd" /><path transform="matrix(1 0 0 -1 0 841)" d="M254.57 356.81L255.05 356.81L255.05 356.81L255.05 357.29L255.05 357.29L254.57 357.29z" stroke="none" fill="#000000" fill-rule="evenodd" /><path transform="matrix(1 0 0 -1 0 841)" d="M255.05 356.81L303.05 356.81L303.05 356.81L303.05 357.29L303.05 357.29L255.05 357.29z" stroke="none" fill="#000000" fill-rule="evenodd" /><path transform="matrix(1 0 0 -1 0 841)" d="M303.05 356.81L303.53 356.81L303.53 356.81L303.53 357.29L303.53 357.29L303.05 357.29z" stroke="none" fill="#000000" fill-rule="evenodd" /><path transform="matrix(1 0 0 -1 0 841)" d="M303.53 356.81L360.554 356.81L360.554 356.81L360.554 357.29L360.554 357.29L303.53 357.29z" stroke="none" fill="#000000" fill-rule="evenodd" /><path transform="matrix(1 0 0 -1 0 841)" d="M360.55 356.81L361.03 356.81L361.03 356.81L361.03 357.29L361.03 357.29L360.55 357.29z" stroke="none" fill="#000000" fill-rule="evenodd" /><path transform="matrix(1 0 0 -1 0 841)" d="M361.03 356.81L530.61 356.81L530.61 356.81L530.61 357.29L530.61 357.29L361.03 357.29z" stroke="none" fill="#000000" fill-rule="evenodd" /><path transform="matrix(1 0 0 -1 0 841)" d="M530.62 356.81L531.1 356.81L531.1 356.81L531.1 357.29L531.1 357.29L530.62 357.29z" stroke="none" fill="#000000" fill-rule="evenodd" /><path transform="matrix(1 0 0 -1 0 841)" d="M84.264 331.73L84.744 331.73L84.744 331.73L84.744 356.81L84.744 356.81L84.264 356.81z" stroke="none" fill="#000000" fill-rule="evenodd" /><path transform="matrix(1 0 0 -1 0 841)" d="M178.1 331.73L178.58 331.73L178.58 331.73L178.58 356.81L178.58 356.81L178.1 356.81z" stroke="none" fill="#000000" fill-rule="evenodd" /><path transform="matrix(1 0 0 -1 0 841)" d="M254.57 331.73L255.05 331.73L255.05 331.73L255.05 356.81L255.05 356.81L254.57 356.81z" stroke="none" fill="#000000" fill-rule="evenodd" /><path transform="matrix(1 0 0 -1 0 841)" d="M303.05 331.73L303.53 331.73L303.53 331.73L303.53 356.81L303.53 356.81L303.05 356.81z" stroke="none" fill="#000000" fill-rule="evenodd" /><path transform="matrix(1 0 0 -1 0 841)" d="M360.55 331.73L361.03 331.73L361.03 331.73L361.03 356.81L361.03 356.81L360.55 356.81z" stroke="none" fill="#000000" fill-rule="evenodd" /><path transform="matrix(1 0 0 -1 0 841)" d="M530.62 331.73L531.1 331.73L531.1 331.73L531.1 356.81L531.1 356.81L530.62 356.81z" stroke="none" fill="#000000" fill-rule="evenodd" /><g clip-path="url(#110)"><g clip-path="url(#111)"></g><g clip-path="url(#112)"></g></g><g clip-path="url(#113)"><g clip-path="url(#114)"></g><g clip-path="url(#115)"></g></g><g clip-path="url(#116)"><g clip-path="url(#117)"></g><g clip-path="url(#118)"></g></g><g clip-path="url(#119)"><g clip-path="url(#120)"></g></g><g clip-path="url(#121)"><g clip-path="url(#122)"></g><g clip-path="url(#123)"></g><g clip-path="url(#124)"></g></g><path transform="matrix(1 0 0 -1 0 841)" d="M84.264 331.25L84.744 331.25L84.744 331.25L84.744 331.73L84.744 331.73L84.264 331.73z" stroke="none" fill="#000000" fill-rule="evenodd" /><path transform="matrix(1 0 0 -1 0 841)" d="M84.744 331.25L178.104 331.25L178.104 331.25L178.104 331.73L178.104 331.73L84.744 331.73z" stroke="none" fill="#000000" fill-rule="evenodd" /><path transform="matrix(1 0 0 -1 0 841)" d="M178.1 331.25L178.58 331.25L178.58 331.25L178.58 331.73L178.58 331.73L178.1 331.73z" stroke="none" fill="#000000" fill-rule="evenodd" /><path transform="matrix(1 0 0 -1 0 841)" d="M178.58 331.25L254.564 331.25L254.564 331.25L254.564 331.73L254.564 331.73L178.58 331.73z" stroke="none" fill="#000000" fill-rule="evenodd" /><path transform="matrix(1 0 0 -1 0 841)" d="M254.57 331.25L255.05 331.25L255.05 331.25L255.05 331.73L255.05 331.73L254.57 331.73z" stroke="none" fill="#000000" fill-rule="evenodd" /><path transform="matrix(1 0 0 -1 0 841)" d="M255.05 331.25L303.05 331.25L303.05 331.25L303.05 331.73L303.05 331.73L255.05 331.73z" stroke="none" fill="#000000" fill-rule="evenodd" /><path transform="matrix(1 0 0 -1 0 841)" d="M303.05 331.25L303.53 331.25L303.53 331.25L303.53 331.73L303.53 331.73L303.05 331.73z" stroke="none" fill="#000000" fill-rule="evenodd" /><path transform="matrix(1 0 0 -1 0 841)" d="M303.53 331.25L360.554 331.25L360.554 331.25L360.554 331.73L360.554 331.73L303.53 331.73z" stroke="none" fill="#000000" fill-rule="evenodd" /><path transform="matrix(1 0 0 -1 0 841)" d="M360.55 331.25L361.03 331.25L361.03 331.25L361.03 331.73L361.03 331.73L360.55 331.73z" stroke="none" fill="#000000" fill-rule="evenodd" /><path transform="matrix(1 0 0 -1 0 841)" d="M361.03 331.25L530.61 331.25L530.61 331.25L530.61 331.73L530.61 331.73L361.03 331.73z" stroke="none" fill="#000000" fill-rule="evenodd" /><path transform="matrix(1 0 0 -1 0 841)" d="M530.62 331.25L531.1 331.25L531.1 331.25L531.1 331.73L531.1 331.73L530.62 331.73z" stroke="none" fill="#000000" fill-rule="evenodd" /><path transform="matrix(1 0 0 -1 0 841)" d="M84.264 306.17L84.744 306.17L84.744 306.17L84.744 331.25L84.744 331.25L84.264 331.25z" stroke="none" fill="#000000" fill-rule="evenodd" /><path transform="matrix(1 0 0 -1 0 841)" d="M178.1 306.17L178.58 306.17L178.58 306.17L178.58 331.25L178.58 331.25L178.1 331.25z" stroke="none" fill="#000000" fill-rule="evenodd" /><path transform="matrix(1 0 0 -1 0 841)" d="M254.57 306.17L255.05 306.17L255.05 306.17L255.05 331.25L255.05 331.25L254.57 331.25z" stroke="none" fill="#000000" fill-rule="evenodd" /><path transform="matrix(1 0 0 -1 0 841)" d="M303.05 306.17L303.53 306.17L303.53 306.17L303.53 331.25L303.53 331.25L303.05 331.25z" stroke="none" fill="#000000" fill-rule="evenodd" /><path transform="matrix(1 0 0 -1 0 841)" d="M360.55 306.17L361.03 306.17L361.03 306.17L361.03 331.25L361.03 331.25L360.55 331.25z" stroke="none" fill="#000000" fill-rule="evenodd" /><path transform="matrix(1 0 0 -1 0 841)" d="M530.62 306.17L531.1 306.17L531.1 306.17L531.1 331.25L531.1 331.25L530.62 331.25z" stroke="none" fill="#000000" fill-rule="evenodd" /><path transform="matrix(1 0 0 -1 0 841)" d="M84.744 280.61L178.104 280.61L178.104 280.61L178.104 305.69L178.104 305.69L84.744 305.69z" stroke="none" fill="#DAEEF3" fill-rule="evenodd" /><g clip-path="url(#125)"><path transform="matrix(1 0 0 -1 0 841)" d="M89.904 281.57L172.944 281.57L172.944 281.57L172.944 305.69L172.944 305.69L89.904 305.69z" stroke="none" fill="#DAEEF3" fill-rule="evenodd" /><g clip-path="url(#126)"></g><g clip-path="url(#127)"></g></g><path transform="matrix(1 0 0 -1 0 841)" d="M178.58 280.61L254.564 280.61L254.564 280.61L254.564 305.69L254.564 305.69L178.58 305.69z" stroke="none" fill="#DAEEF3" fill-rule="evenodd" /><g clip-path="url(#128)"><path transform="matrix(1 0 0 -1 0 841)" d="M183.74 281.57L249.404 281.57L249.404 281.57L249.404 305.69L249.404 305.69L183.74 305.69z" stroke="none" fill="#DAEEF3" fill-rule="evenodd" /><g clip-path="url(#129)"></g><g clip-path="url(#130)"></g></g><path transform="matrix(1 0 0 -1 0 841)" d="M255.05 280.61L303.05 280.61L303.05 280.61L303.05 305.69L303.05 305.69L255.05 305.69z" stroke="none" fill="#DAEEF3" fill-rule="evenodd" /><g clip-path="url(#131)"><path transform="matrix(1 0 0 -1 0 841)" d="M260.21 280.61L297.89 280.61L297.89 280.61L297.89 305.69L297.89 305.69L260.21 305.69z" stroke="none" fill="#DAEEF3" fill-rule="evenodd" /><g clip-path="url(#132)"></g><g clip-path="url(#133)"></g></g><path transform="matrix(1 0 0 -1 0 841)" d="M303.53 280.61L360.434 280.61L360.434 280.61L360.434 305.69L360.434 305.69L303.53 305.69z" stroke="none" fill="#DAEEF3" fill-rule="evenodd" /><g clip-path="url(#134)"><path transform="matrix(1 0 0 -1 0 841)" d="M308.69 281.57L355.274 281.57L355.274 281.57L355.274 305.69L355.274 305.69L308.69 305.69z" stroke="none" fill="#DAEEF3" fill-rule="evenodd" /><g clip-path="url(#135)"></g><g clip-path="url(#136)"></g></g><path transform="matrix(1 0 0 -1 0 841)" d="M361.03 280.61L530.61 280.61L530.61 280.61L530.61 305.69L530.61 305.69L361.03 305.69z" stroke="none" fill="#DAEEF3" fill-rule="evenodd" /><g clip-path="url(#137)"><path transform="matrix(1 0 0 -1 0 841)" d="M366.07 280.61L525.45 280.61L525.45 280.61L525.45 305.69L525.45 305.69L366.07 305.69z" stroke="none" fill="#DAEEF3" fill-rule="evenodd" /><g clip-path="url(#138)"></g><g clip-path="url(#139)"></g><g clip-path="url(#140)"></g></g><path transform="matrix(1 0 0 -1 0 841)" d="M84.264 305.69L84.744 305.69L84.744 305.69L84.744 306.17L84.744 306.17L84.264 306.17z" stroke="none" fill="#000000" fill-rule="evenodd" /><path transform="matrix(1 0 0 -1 0 841)" d="M84.744 305.69L178.104 305.69L178.104 305.69L178.104 306.17L178.104 306.17L84.744 306.17z" stroke="none" fill="#000000" fill-rule="evenodd" /><path transform="matrix(1 0 0 -1 0 841)" d="M178.1 305.69L178.58 305.69L178.58 305.69L178.58 306.17L178.58 306.17L178.1 306.17z" stroke="none" fill="#000000" fill-rule="evenodd" /><path transform="matrix(1 0 0 -1 0 841)" d="M178.58 305.69L254.564 305.69L254.564 305.69L254.564 306.17L254.564 306.17L178.58 306.17z" stroke="none" fill="#000000" fill-rule="evenodd" /><path transform="matrix(1 0 0 -1 0 841)" d="M254.57 305.69L255.05 305.69L255.05 305.69L255.05 306.17L255.05 306.17L254.57 306.17z" stroke="none" fill="#000000" fill-rule="evenodd" /><path transform="matrix(1 0 0 -1 0 841)" d="M255.05 305.69L303.05 305.69L303.05 305.69L303.05 306.17L303.05 306.17L255.05 306.17z" stroke="none" fill="#000000" fill-rule="evenodd" /><path transform="matrix(1 0 0 -1 0 841)" d="M303.05 305.69L303.53 305.69L303.53 305.69L303.53 306.17L303.53 306.17L303.05 306.17z" stroke="none" fill="#000000" fill-rule="evenodd" /><path transform="matrix(1 0 0 -1 0 841)" d="M303.53 305.69L360.554 305.69L360.554 305.69L360.554 306.17L360.554 306.17L303.53 306.17z" stroke="none" fill="#000000" fill-rule="evenodd" /><path transform="matrix(1 0 0 -1 0 841)" d="M360.55 305.69L361.03 305.69L361.03 305.69L361.03 306.17L361.03 306.17L360.55 306.17z" stroke="none" fill="#000000" fill-rule="evenodd" /><path transform="matrix(1 0 0 -1 0 841)" d="M361.03 305.69L530.61 305.69L530.61 305.69L530.61 306.17L530.61 306.17L361.03 306.17z" stroke="none" fill="#000000" fill-rule="evenodd" /><path transform="matrix(1 0 0 -1 0 841)" d="M530.62 305.69L531.1 305.69L531.1 305.69L531.1 306.17L531.1 306.17L530.62 306.17z" stroke="none" fill="#000000" fill-rule="evenodd" /><path transform="matrix(1 0 0 -1 0 841)" d="M84.264 280.61L84.744 280.61L84.744 280.61L84.744 305.69L84.744 305.69L84.264 305.69z" stroke="none" fill="#000000" fill-rule="evenodd" /><path transform="matrix(1 0 0 -1 0 841)" d="M84.264 280.13L84.744 280.13L84.744 280.13L84.744 280.61L84.744 280.61L84.264 280.61z" stroke="none" fill="#000000" fill-rule="evenodd" /><path transform="matrix(1 0 0 -1 0 841)" d="M84.264 280.13L84.744 280.13L84.744 280.13L84.744 280.61L84.744 280.61L84.264 280.61z" stroke="none" fill="#000000" fill-rule="evenodd" /><path transform="matrix(1 0 0 -1 0 841)" d="M84.744 280.13L178.104 280.13L178.104 280.13L178.104 280.61L178.104 280.61L84.744 280.61z" stroke="none" fill="#000000" fill-rule="evenodd" /><path transform="matrix(1 0 0 -1 0 841)" d="M178.1 280.61L178.58 280.61L178.58 280.61L178.58 305.69L178.58 305.69L178.1 305.69z" stroke="none" fill="#000000" fill-rule="evenodd" /><path transform="matrix(1 0 0 -1 0 841)" d="M178.1 280.13L178.58 280.13L178.58 280.13L178.58 280.61L178.58 280.61L178.1 280.61z" stroke="none" fill="#000000" fill-rule="evenodd" /><path transform="matrix(1 0 0 -1 0 841)" d="M178.58 280.13L254.564 280.13L254.564 280.13L254.564 280.61L254.564 280.61L178.58 280.61z" stroke="none" fill="#000000" fill-rule="evenodd" /><path transform="matrix(1 0 0 -1 0 841)" d="M254.57 280.61L255.05 280.61L255.05 280.61L255.05 305.69L255.05 305.69L254.57 305.69z" stroke="none" fill="#000000" fill-rule="evenodd" /><path transform="matrix(1 0 0 -1 0 841)" d="M254.57 280.13L255.05 280.13L255.05 280.13L255.05 280.61L255.05 280.61L254.57 280.61z" stroke="none" fill="#000000" fill-rule="evenodd" /><path transform="matrix(1 0 0 -1 0 841)" d="M255.05 280.13L303.05 280.13L303.05 280.13L303.05 280.61L303.05 280.61L255.05 280.61z" stroke="none" fill="#000000" fill-rule="evenodd" /><path transform="matrix(1 0 0 -1 0 841)" d="M303.05 280.61L303.53 280.61L303.53 280.61L303.53 305.69L303.53 305.69L303.05 305.69z" stroke="none" fill="#000000" fill-rule="evenodd" /><path transform="matrix(1 0 0 -1 0 841)" d="M303.05 280.13L303.53 280.13L303.53 280.13L303.53 280.61L303.53 280.61L303.05 280.61z" stroke="none" fill="#000000" fill-rule="evenodd" /><path transform="matrix(1 0 0 -1 0 841)" d="M303.53 280.13L360.554 280.13L360.554 280.13L360.554 280.61L360.554 280.61L303.53 280.61z" stroke="none" fill="#000000" fill-rule="evenodd" /><path transform="matrix(1 0 0 -1 0 841)" d="M360.55 280.61L361.03 280.61L361.03 280.61L361.03 305.69L361.03 305.69L360.55 305.69z" stroke="none" fill="#000000" fill-rule="evenodd" /><path transform="matrix(1 0 0 -1 0 841)" d="M360.55 280.13L361.03 280.13L361.03 280.13L361.03 280.61L361.03 280.61L360.55 280.61z" stroke="none" fill="#000000" fill-rule="evenodd" /><path transform="matrix(1 0 0 -1 0 841)" d="M361.03 280.13L530.61 280.13L530.61 280.13L530.61 280.61L530.61 280.61L361.03 280.61z" stroke="none" fill="#000000" fill-rule="evenodd" /><path transform="matrix(1 0 0 -1 0 841)" d="M530.62 280.61L531.1 280.61L531.1 280.61L531.1 305.69L531.1 305.69L530.62 305.69z" stroke="none" fill="#000000" fill-rule="evenodd" /><path transform="matrix(1 0 0 -1 0 841)" d="M530.62 280.13L531.1 280.13L531.1 280.13L531.1 280.61L531.1 280.61L530.62 280.61z" stroke="none" fill="#000000" fill-rule="evenodd" /><path transform="matrix(1 0 0 -1 0 841)" d="M530.62 280.13L531.1 280.13L531.1 280.13L531.1 280.61L531.1 280.61L530.62 280.61z" stroke="none" fill="#000000" fill-rule="evenodd" /><path transform="matrix(1 0 0 -1 0 841)" d="M84.744 196.49L198.384 196.49L198.384 196.49L198.384 221.57L198.384 221.57L84.744 221.57z" stroke="none" fill="#0070C0" fill-rule="evenodd" /><g clip-path="url(#141)"><path transform="matrix(1 0 0 -1 0 841)" d="M89.904 196.49L193.224 196.49L193.224 196.49L193.224 221.57L193.224 221.57L89.904 221.57z" stroke="none" fill="#0070C0" fill-rule="evenodd" /><g clip-path="url(#142)"></g><g clip-path="url(#143)"></g></g><path transform="matrix(1 0 0 -1 0 841)" d="M198.86 196.49L249.164 196.49L249.164 196.49L249.164 221.57L249.164 221.57L198.86 221.57z" stroke="none" fill="#0070C0" fill-rule="evenodd" /><g clip-path="url(#144)"><path transform="matrix(1 0 0 -1 0 841)" d="M204.05 196.49L244.01 196.49L244.01 196.49L244.01 221.57L244.01 221.57L204.05 221.57z" stroke="none" fill="#0070C0" fill-rule="evenodd" /><g clip-path="url(#145)"></g><g clip-path="url(#146)"></g></g><path transform="matrix(1 0 0 -1 0 841)" d="M249.65 196.49L296.69 196.49L296.69 196.49L296.69 221.57L296.69 221.57L249.65 221.57z" stroke="none" fill="#0070C0" fill-rule="evenodd" /><g clip-path="url(#147)"><path transform="matrix(1 0 0 -1 0 841)" d="M254.81 196.49L291.53 196.49L291.53 196.49L291.53 221.57L291.53 221.57L254.81 221.57z" stroke="none" fill="#0070C0" fill-rule="evenodd" /><g clip-path="url(#148)"></g><g clip-path="url(#149)"></g></g><path transform="matrix(1 0 0 -1 0 841)" d="M297.17 196.49L353.354 196.49L353.354 196.49L353.354 221.57L353.354 221.57L297.17 221.57z" stroke="none" fill="#0070C0" fill-rule="evenodd" /><g clip-path="url(#150)"><path transform="matrix(1 0 0 -1 0 841)" d="M302.33 196.49L348.194 196.49L348.194 196.49L348.194 221.57L348.194 221.57L302.33 221.57z" stroke="none" fill="#0070C0" fill-rule="evenodd" /><g clip-path="url(#151)"></g><g clip-path="url(#152)"></g></g><path transform="matrix(1 0 0 -1 0 841)" d="M353.83 196.49L541.41 196.49L541.41 196.49L541.41 221.57L541.41 221.57L353.83 221.57z" stroke="none" fill="#0070C0" fill-rule="evenodd" /><g clip-path="url(#153)"><path transform="matrix(1 0 0 -1 0 841)" d="M358.99 196.49L536.25 196.49L536.25 196.49L536.25 221.57L536.25 221.57L358.99 221.57z" stroke="none" fill="#0070C0" fill-rule="evenodd" /><g clip-path="url(#154)"></g><g clip-path="url(#155)"></g></g><path transform="matrix(1 0 0 -1 0 841)" d="M84.264 221.57L84.744 221.57L84.744 221.57L84.744 222.05L84.744 222.05L84.264 222.05z" stroke="none" fill="#000000" fill-rule="evenodd" /><path transform="matrix(1 0 0 -1 0 841)" d="M84.264 221.57L84.744 221.57L84.744 221.57L84.744 222.05L84.744 222.05L84.264 222.05z" stroke="none" fill="#000000" fill-rule="evenodd" /><path transform="matrix(1 0 0 -1 0 841)" d="M84.744 221.57L198.384 221.57L198.384 221.57L198.384 222.05L198.384 222.05L84.744 222.05z" stroke="none" fill="#000000" fill-rule="evenodd" /><path transform="matrix(1 0 0 -1 0 841)" d="M198.38 221.57L198.86 221.57L198.86 221.57L198.86 222.05L198.86 222.05L198.38 222.05z" stroke="none" fill="#000000" fill-rule="evenodd" /><path transform="matrix(1 0 0 -1 0 841)" d="M198.86 221.57L249.164 221.57L249.164 221.57L249.164 222.05L249.164 222.05L198.86 222.05z" stroke="none" fill="#000000" fill-rule="evenodd" /><path transform="matrix(1 0 0 -1 0 841)" d="M249.17 221.57L249.65 221.57L249.65 221.57L249.65 222.05L249.65 222.05L249.17 222.05z" stroke="none" fill="#000000" fill-rule="evenodd" /><path transform="matrix(1 0 0 -1 0 841)" d="M249.65 221.57L296.69 221.57L296.69 221.57L296.69 222.05L296.69 222.05L249.65 222.05z" stroke="none" fill="#000000" fill-rule="evenodd" /><path transform="matrix(1 0 0 -1 0 841)" d="M296.69 221.57L297.17 221.57L297.17 221.57L297.17 222.05L297.17 222.05L296.69 222.05z" stroke="none" fill="#000000" fill-rule="evenodd" /><path transform="matrix(1 0 0 -1 0 841)" d="M297.17 221.57L353.474 221.57L353.474 221.57L353.474 222.05L353.474 222.05L297.17 222.05z" stroke="none" fill="#000000" fill-rule="evenodd" /><path transform="matrix(1 0 0 -1 0 841)" d="M353.47 221.57L353.95 221.57L353.95 221.57L353.95 222.05L353.95 222.05L353.47 222.05z" stroke="none" fill="#000000" fill-rule="evenodd" /><path transform="matrix(1 0 0 -1 0 841)" d="M353.95 221.57L541.41 221.57L541.41 221.57L541.41 222.05L541.41 222.05L353.95 222.05z" stroke="none" fill="#000000" fill-rule="evenodd" /><path transform="matrix(1 0 0 -1 0 841)" d="M541.42 221.57L541.9 221.57L541.9 221.57L541.9 222.05L541.9 222.05L541.42 222.05z" stroke="none" fill="#000000" fill-rule="evenodd" /><path transform="matrix(1 0 0 -1 0 841)" d="M541.42 221.57L541.9 221.57L541.9 221.57L541.9 222.05L541.9 222.05L541.42 222.05z" stroke="none" fill="#000000" fill-rule="evenodd" /><path transform="matrix(1 0 0 -1 0 841)" d="M84.264 196.49L84.744 196.49L84.744 196.49L84.744 221.57L84.744 221.57L84.264 221.57z" stroke="none" fill="#000000" fill-rule="evenodd" /><path transform="matrix(1 0 0 -1 0 841)" d="M198.38 196.49L198.86 196.49L198.86 196.49L198.86 221.57L198.86 221.57L198.38 221.57z" stroke="none" fill="#000000" fill-rule="evenodd" /><path transform="matrix(1 0 0 -1 0 841)" d="M249.17 196.49L249.65 196.49L249.65 196.49L249.65 221.57L249.65 221.57L249.17 221.57z" stroke="none" fill="#000000" fill-rule="evenodd" /><path transform="matrix(1 0 0 -1 0 841)" d="M296.69 196.49L297.17 196.49L297.17 196.49L297.17 221.57L297.17 221.57L296.69 221.57z" stroke="none" fill="#000000" fill-rule="evenodd" /><path transform="matrix(1 0 0 -1 0 841)" d="M353.47 196.49L353.95 196.49L353.95 196.49L353.95 221.57L353.95 221.57L353.47 221.57z" stroke="none" fill="#000000" fill-rule="evenodd" /><path transform="matrix(1 0 0 -1 0 841)" d="M541.42 196.49L541.9 196.49L541.9 196.49L541.9 221.57L541.9 221.57L541.42 221.57z" stroke="none" fill="#000000" fill-rule="evenodd" /><path transform="matrix(1 0 0 -1 0 841)" d="M84.744 170.9L198.384 170.9L198.384 170.9L198.384 196.004L198.384 196.004L84.744 196.004z" stroke="none" fill="#DAEEF3" fill-rule="evenodd" /><g clip-path="url(#156)"><path transform="matrix(1 0 0 -1 0 841)" d="M89.904 171.74L193.224 171.74L193.224 171.74L193.224 196.004L193.224 196.004L89.904 196.004z" stroke="none" fill="#DAEEF3" fill-rule="evenodd" /><g clip-path="url(#157)"></g><g clip-path="url(#158)"></g></g><path transform="matrix(1 0 0 -1 0 841)" d="M198.86 170.9L249.164 170.9L249.164 170.9L249.164 196.004L249.164 196.004L198.86 196.004z" stroke="none" fill="#DAEEF3" fill-rule="evenodd" /><g clip-path="url(#159)"><path transform="matrix(1 0 0 -1 0 841)" d="M204.05 171.74L244.01 171.74L244.01 171.74L244.01 196.004L244.01 196.004L204.05 196.004z" stroke="none" fill="#DAEEF3" fill-rule="evenodd" /><g clip-path="url(#160)"></g><g clip-path="url(#161)"></g></g><path transform="matrix(1 0 0 -1 0 841)" d="M249.65 170.9L296.69 170.9L296.69 170.9L296.69 196.004L296.69 196.004L249.65 196.004z" stroke="none" fill="#DAEEF3" fill-rule="evenodd" /><g clip-path="url(#162)"><path transform="matrix(1 0 0 -1 0 841)" d="M254.81 170.9L291.53 170.9L291.53 170.9L291.53 196.004L291.53 196.004L254.81 196.004z" stroke="none" fill="#DAEEF3" fill-rule="evenodd" /><g clip-path="url(#163)"></g><g clip-path="url(#164)"></g></g><path transform="matrix(1 0 0 -1 0 841)" d="M297.17 170.9L353.354 170.9L353.354 170.9L353.354 196.004L353.354 196.004L297.17 196.004z" stroke="none" fill="#DAEEF3" fill-rule="evenodd" /><g clip-path="url(#165)"><path transform="matrix(1 0 0 -1 0 841)" d="M302.33 171.74L348.194 171.74L348.194 171.74L348.194 196.004L348.194 196.004L302.33 196.004z" stroke="none" fill="#DAEEF3" fill-rule="evenodd" /><g clip-path="url(#166)"></g></g><path transform="matrix(1 0 0 -1 0 841)" d="M353.83 170.9L541.41 170.9L541.41 170.9L541.41 196.004L541.41 196.004L353.83 196.004z" stroke="none" fill="#DAEEF3" fill-rule="evenodd" /><g clip-path="url(#167)"><path transform="matrix(1 0 0 -1 0 841)" d="M358.99 170.9L536.25 170.9L536.25 170.9L536.25 196.004L536.25 196.004L358.99 196.004z" stroke="none" fill="#DAEEF3" fill-rule="evenodd" /><g clip-path="url(#168)"></g><g clip-path="url(#169)"></g></g><path transform="matrix(1 0 0 -1 0 841)" d="M84.264 196.01L84.744 196.01L84.744 196.01L84.744 196.49L84.744 196.49L84.264 196.49z" stroke="none" fill="#000000" fill-rule="evenodd" /><path transform="matrix(1 0 0 -1 0 841)" d="M84.744 196.01L198.384 196.01L198.384 196.01L198.384 196.49L198.384 196.49L84.744 196.49z" stroke="none" fill="#000000" fill-rule="evenodd" /><path transform="matrix(1 0 0 -1 0 841)" d="M198.38 196.01L198.86 196.01L198.86 196.01L198.86 196.49L198.86 196.49L198.38 196.49z" stroke="none" fill="#000000" fill-rule="evenodd" /><path transform="matrix(1 0 0 -1 0 841)" d="M198.86 196.01L249.164 196.01L249.164 196.01L249.164 196.49L249.164 196.49L198.86 196.49z" stroke="none" fill="#000000" fill-rule="evenodd" /><path transform="matrix(1 0 0 -1 0 841)" d="M249.17 196.01L249.65 196.01L249.65 196.01L249.65 196.49L249.65 196.49L249.17 196.49z" stroke="none" fill="#000000" fill-rule="evenodd" /><path transform="matrix(1 0 0 -1 0 841)" d="M249.65 196.01L296.69 196.01L296.69 196.01L296.69 196.49L296.69 196.49L249.65 196.49z" stroke="none" fill="#000000" fill-rule="evenodd" /><path transform="matrix(1 0 0 -1 0 841)" d="M296.69 196.01L297.17 196.01L297.17 196.01L297.17 196.49L297.17 196.49L296.69 196.49z" stroke="none" fill="#000000" fill-rule="evenodd" /><path transform="matrix(1 0 0 -1 0 841)" d="M297.17 196.01L353.474 196.01L353.474 196.01L353.474 196.49L353.474 196.49L297.17 196.49z" stroke="none" fill="#000000" fill-rule="evenodd" /><path transform="matrix(1 0 0 -1 0 841)" d="M353.47 196.01L353.95 196.01L353.95 196.01L353.95 196.49L353.95 196.49L353.47 196.49z" stroke="none" fill="#000000" fill-rule="evenodd" /><path transform="matrix(1 0 0 -1 0 841)" d="M353.95 196.01L541.41 196.01L541.41 196.01L541.41 196.49L541.41 196.49L353.95 196.49z" stroke="none" fill="#000000" fill-rule="evenodd" /><path transform="matrix(1 0 0 -1 0 841)" d="M541.42 196.01L541.9 196.01L541.9 196.01L541.9 196.49L541.9 196.49L541.42 196.49z" stroke="none" fill="#000000" fill-rule="evenodd" /><path transform="matrix(1 0 0 -1 0 841)" d="M84.264 170.9L84.744 170.9L84.744 170.9L84.744 196.004L84.744 196.004L84.264 196.004z" stroke="none" fill="#000000" fill-rule="evenodd" /><path transform="matrix(1 0 0 -1 0 841)" d="M198.38 170.9L198.86 170.9L198.86 170.9L198.86 196.004L198.86 196.004L198.38 196.004z" stroke="none" fill="#000000" fill-rule="evenodd" /><path transform="matrix(1 0 0 -1 0 841)" d="M249.17 170.9L249.65 170.9L249.65 170.9L249.65 196.004L249.65 196.004L249.17 196.004z" stroke="none" fill="#000000" fill-rule="evenodd" /><path transform="matrix(1 0 0 -1 0 841)" d="M296.69 170.9L297.17 170.9L297.17 170.9L297.17 196.004L297.17 196.004L296.69 196.004z" stroke="none" fill="#000000" fill-rule="evenodd" /><path transform="matrix(1 0 0 -1 0 841)" d="M353.47 170.9L353.95 170.9L353.95 170.9L353.95 196.004L353.95 196.004L353.47 196.004z" stroke="none" fill="#000000" fill-rule="evenodd" /><path transform="matrix(1 0 0 -1 0 841)" d="M541.42 170.9L541.9 170.9L541.9 170.9L541.9 196.004L541.9 196.004L541.42 196.004z" stroke="none" fill="#000000" fill-rule="evenodd" /><g clip-path="url(#170)"><g clip-path="url(#171)"></g><g clip-path="url(#172)"></g></g><g clip-path="url(#173)"><g clip-path="url(#174)"></g><g clip-path="url(#175)"></g></g><g clip-path="url(#176)"><g clip-path="url(#177)"></g><g clip-path="url(#178)"></g></g><g clip-path="url(#179)"><g clip-path="url(#180)"></g></g><g clip-path="url(#181)"><g clip-path="url(#182)"></g><g clip-path="url(#183)"></g><g clip-path="url(#184)"></g><g clip-path="url(#185)"></g></g><path transform="matrix(1 0 0 -1 0 841)" d="M84.264 170.42L84.744 170.42L84.744 170.42L84.744 170.9L84.744 170.9L84.264 170.9z" stroke="none" fill="#000000" fill-rule="evenodd" /><path transform="matrix(1 0 0 -1 0 841)" d="M84.744 170.42L198.384 170.42L198.384 170.42L198.384 170.9L198.384 170.9L84.744 170.9z" stroke="none" fill="#000000" fill-rule="evenodd" /><path transform="matrix(1 0 0 -1 0 841)" d="M198.38 170.42L198.86 170.42L198.86 170.42L198.86 170.9L198.86 170.9L198.38 170.9z" stroke="none" fill="#000000" fill-rule="evenodd" /><path transform="matrix(1 0 0 -1 0 841)" d="M198.86 170.42L249.164 170.42L249.164 170.42L249.164 170.9L249.164 170.9L198.86 170.9z" stroke="none" fill="#000000" fill-rule="evenodd" /><path transform="matrix(1 0 0 -1 0 841)" d="M249.17 170.42L249.65 170.42L249.65 170.42L249.65 170.9L249.65 170.9L249.17 170.9z" stroke="none" fill="#000000" fill-rule="evenodd" /><path transform="matrix(1 0 0 -1 0 841)" d="M249.65 170.42L296.69 170.42L296.69 170.42L296.69 170.9L296.69 170.9L249.65 170.9z" stroke="none" fill="#000000" fill-rule="evenodd" /><path transform="matrix(1 0 0 -1 0 841)" d="M296.69 170.42L297.17 170.42L297.17 170.42L297.17 170.9L297.17 170.9L296.69 170.9z" stroke="none" fill="#000000" fill-rule="evenodd" /><path transform="matrix(1 0 0 -1 0 841)" d="M297.17 170.42L353.474 170.42L353.474 170.42L353.474 170.9L353.474 170.9L297.17 170.9z" stroke="none" fill="#000000" fill-rule="evenodd" /><path transform="matrix(1 0 0 -1 0 841)" d="M353.47 170.42L353.95 170.42L353.95 170.42L353.95 170.9L353.95 170.9L353.47 170.9z" stroke="none" fill="#000000" fill-rule="evenodd" /><path transform="matrix(1 0 0 -1 0 841)" d="M353.95 170.42L541.41 170.42L541.41 170.42L541.41 170.9L541.41 170.9L353.95 170.9z" stroke="none" fill="#000000" fill-rule="evenodd" /><path transform="matrix(1 0 0 -1 0 841)" d="M541.42 170.42L541.9 170.42L541.9 170.42L541.9 170.9L541.9 170.9L541.42 170.9z" stroke="none" fill="#000000" fill-rule="evenodd" /><path transform="matrix(1 0 0 -1 0 841)" d="M84.264 145.34L84.744 145.34L84.744 145.34L84.744 170.42L84.744 170.42L84.264 170.42z" stroke="none" fill="#000000" fill-rule="evenodd" /><path transform="matrix(1 0 0 -1 0 841)" d="M198.38 145.34L198.86 145.34L198.86 145.34L198.86 170.42L198.86 170.42L198.38 170.42z" stroke="none" fill="#000000" fill-rule="evenodd" /><path transform="matrix(1 0 0 -1 0 841)" d="M249.17 145.34L249.65 145.34L249.65 145.34L249.65 170.42L249.65 170.42L249.17 170.42z" stroke="none" fill="#000000" fill-rule="evenodd" /><path transform="matrix(1 0 0 -1 0 841)" d="M296.69 145.34L297.17 145.34L297.17 145.34L297.17 170.42L297.17 170.42L296.69 170.42z" stroke="none" fill="#000000" fill-rule="evenodd" /><path transform="matrix(1 0 0 -1 0 841)" d="M353.47 145.34L353.95 145.34L353.95 145.34L353.95 170.42L353.95 170.42L353.47 170.42z" stroke="none" fill="#000000" fill-rule="evenodd" /><path transform="matrix(1 0 0 -1 0 841)" d="M541.42 145.34L541.9 145.34L541.9 145.34L541.9 170.42L541.9 170.42L541.42 170.42z" stroke="none" fill="#000000" fill-rule="evenodd" /><path transform="matrix(1 0 0 -1 0 841)" d="M84.744 119.78L198.384 119.78L198.384 119.78L198.384 144.86L198.384 144.86L84.744 144.86z" stroke="none" fill="#DAEEF3" fill-rule="evenodd" /><g clip-path="url(#186)"><path transform="matrix(1 0 0 -1 0 841)" d="M89.904 120.62L193.224 120.62L193.224 120.62L193.224 144.86L193.224 144.86L89.904 144.86z" stroke="none" fill="#DAEEF3" fill-rule="evenodd" /><g clip-path="url(#187)"></g><g clip-path="url(#188)"></g></g><path transform="matrix(1 0 0 -1 0 841)" d="M198.86 119.78L249.164 119.78L249.164 119.78L249.164 144.86L249.164 144.86L198.86 144.86z" stroke="none" fill="#DAEEF3" fill-rule="evenodd" /><g clip-path="url(#189)"><path transform="matrix(1 0 0 -1 0 841)" d="M204.05 120.62L244.01 120.62L244.01 120.62L244.01 144.86L244.01 144.86L204.05 144.86z" stroke="none" fill="#DAEEF3" fill-rule="evenodd" /><g clip-path="url(#190)"></g><g clip-path="url(#191)"></g></g><path transform="matrix(1 0 0 -1 0 841)" d="M249.65 119.78L296.69 119.78L296.69 119.78L296.69 144.86L296.69 144.86L249.65 144.86z" stroke="none" fill="#DAEEF3" fill-rule="evenodd" /><g clip-path="url(#192)"><path transform="matrix(1 0 0 -1 0 841)" d="M254.81 119.78L291.53 119.78L291.53 119.78L291.53 144.86L291.53 144.86L254.81 144.86z" stroke="none" fill="#DAEEF3" fill-rule="evenodd" /><g clip-path="url(#193)"></g><g clip-path="url(#194)"></g></g><path transform="matrix(1 0 0 -1 0 841)" d="M297.17 119.78L353.354 119.78L353.354 119.78L353.354 144.86L353.354 144.86L297.17 144.86z" stroke="none" fill="#DAEEF3" fill-rule="evenodd" /><g clip-path="url(#195)"><path transform="matrix(1 0 0 -1 0 841)" d="M302.33 120.62L348.194 120.62L348.194 120.62L348.194 144.86L348.194 144.86L302.33 144.86z" stroke="none" fill="#DAEEF3" fill-rule="evenodd" /><g clip-path="url(#196)"></g></g><path transform="matrix(1 0 0 -1 0 841)" d="M353.83 119.78L541.41 119.78L541.41 119.78L541.41 144.86L541.41 144.86L353.83 144.86z" stroke="none" fill="#DAEEF3" fill-rule="evenodd" /><g clip-path="url(#197)"><path transform="matrix(1 0 0 -1 0 841)" d="M358.99 119.78L536.25 119.78L536.25 119.78L536.25 144.86L536.25 144.86L358.99 144.86z" stroke="none" fill="#DAEEF3" fill-rule="evenodd" /><g clip-path="url(#198)"></g><g clip-path="url(#199)"></g></g><path transform="matrix(1 0 0 -1 0 841)" d="M84.264 144.86L84.744 144.86L84.744 144.86L84.744 145.34L84.744 145.34L84.264 145.34z" stroke="none" fill="#000000" fill-rule="evenodd" /><path transform="matrix(1 0 0 -1 0 841)" d="M84.744 144.86L198.384 144.86L198.384 144.86L198.384 145.34L198.384 145.34L84.744 145.34z" stroke="none" fill="#000000" fill-rule="evenodd" /><path transform="matrix(1 0 0 -1 0 841)" d="M198.38 144.86L198.86 144.86L198.86 144.86L198.86 145.34L198.86 145.34L198.38 145.34z" stroke="none" fill="#000000" fill-rule="evenodd" /><path transform="matrix(1 0 0 -1 0 841)" d="M198.86 144.86L249.164 144.86L249.164 144.86L249.164 145.34L249.164 145.34L198.86 145.34z" stroke="none" fill="#000000" fill-rule="evenodd" /><path transform="matrix(1 0 0 -1 0 841)" d="M249.17 144.86L249.65 144.86L249.65 144.86L249.65 145.34L249.65 145.34L249.17 145.34z" stroke="none" fill="#000000" fill-rule="evenodd" /><path transform="matrix(1 0 0 -1 0 841)" d="M249.65 144.86L296.69 144.86L296.69 144.86L296.69 145.34L296.69 145.34L249.65 145.34z" stroke="none" fill="#000000" fill-rule="evenodd" /><path transform="matrix(1 0 0 -1 0 841)" d="M296.69 144.86L297.17 144.86L297.17 144.86L297.17 145.34L297.17 145.34L296.69 145.34z" stroke="none" fill="#000000" fill-rule="evenodd" /><path transform="matrix(1 0 0 -1 0 841)" d="M297.17 144.86L353.474 144.86L353.474 144.86L353.474 145.34L353.474 145.34L297.17 145.34z" stroke="none" fill="#000000" fill-rule="evenodd" /><path transform="matrix(1 0 0 -1 0 841)" d="M353.47 144.86L353.95 144.86L353.95 144.86L353.95 145.34L353.95 145.34L353.47 145.34z" stroke="none" fill="#000000" fill-rule="evenodd" /><path transform="matrix(1 0 0 -1 0 841)" d="M353.95 144.86L541.41 144.86L541.41 144.86L541.41 145.34L541.41 145.34L353.95 145.34z" stroke="none" fill="#000000" fill-rule="evenodd" /><path transform="matrix(1 0 0 -1 0 841)" d="M541.42 144.86L541.9 144.86L541.9 144.86L541.9 145.34L541.9 145.34L541.42 145.34z" stroke="none" fill="#000000" fill-rule="evenodd" /><path transform="matrix(1 0 0 -1 0 841)" d="M84.264 119.78L84.744 119.78L84.744 119.78L84.744 144.86L84.744 144.86L84.264 144.86z" stroke="none" fill="#000000" fill-rule="evenodd" /><path transform="matrix(1 0 0 -1 0 841)" d="M198.38 119.78L198.86 119.78L198.86 119.78L198.86 144.86L198.86 144.86L198.38 144.86z" stroke="none" fill="#000000" fill-rule="evenodd" /><path transform="matrix(1 0 0 -1 0 841)" d="M249.17 119.78L249.65 119.78L249.65 119.78L249.65 144.86L249.65 144.86L249.17 144.86z" stroke="none" fill="#000000" fill-rule="evenodd" /><path transform="matrix(1 0 0 -1 0 841)" d="M296.69 119.78L297.17 119.78L297.17 119.78L297.17 144.86L297.17 144.86L296.69 144.86z" stroke="none" fill="#000000" fill-rule="evenodd" /><path transform="matrix(1 0 0 -1 0 841)" d="M353.47 119.78L353.95 119.78L353.95 119.78L353.95 144.86L353.95 144.86L353.47 144.86z" stroke="none" fill="#000000" fill-rule="evenodd" /><path transform="matrix(1 0 0 -1 0 841)" d="M541.42 119.78L541.9 119.78L541.9 119.78L541.9 144.86L541.9 144.86L541.42 144.86z" stroke="none" fill="#000000" fill-rule="evenodd" /><g clip-path="url(#200)"><g clip-path="url(#201)"></g><g clip-path="url(#202)"></g></g><g clip-path="url(#203)"><g clip-path="url(#204)"></g><g clip-path="url(#205)"></g></g><g clip-path="url(#206)"><g clip-path="url(#207)"></g><g clip-path="url(#208)"></g></g><g clip-path="url(#209)"><g clip-path="url(#210)"></g></g><g clip-path="url(#211)"><g clip-path="url(#212)"></g><g clip-path="url(#213)"></g><g clip-path="url(#214)"></g><g clip-path="url(#215)"></g></g><path transform="matrix(1 0 0 -1 0 841)" d="M84.264 119.3L84.744 119.3L84.744 119.3L84.744 119.78L84.744 119.78L84.264 119.78z" stroke="none" fill="#000000" fill-rule="evenodd" /><path transform="matrix(1 0 0 -1 0 841)" d="M84.744 119.3L198.384 119.3L198.384 119.3L198.384 119.78L198.384 119.78L84.744 119.78z" stroke="none" fill="#000000" fill-rule="evenodd" /><path transform="matrix(1 0 0 -1 0 841)" d="M198.38 119.3L198.86 119.3L198.86 119.3L198.86 119.78L198.86 119.78L198.38 119.78z" stroke="none" fill="#000000" fill-rule="evenodd" /><path transform="matrix(1 0 0 -1 0 841)" d="M198.86 119.3L249.164 119.3L249.164 119.3L249.164 119.78L249.164 119.78L198.86 119.78z" stroke="none" fill="#000000" fill-rule="evenodd" /><path transform="matrix(1 0 0 -1 0 841)" d="M249.17 119.3L249.65 119.3L249.65 119.3L249.65 119.78L249.65 119.78L249.17 119.78z" stroke="none" fill="#000000" fill-rule="evenodd" /><path transform="matrix(1 0 0 -1 0 841)" d="M249.65 119.3L296.69 119.3L296.69 119.3L296.69 119.78L296.69 119.78L249.65 119.78z" stroke="none" fill="#000000" fill-rule="evenodd" /><path transform="matrix(1 0 0 -1 0 841)" d="M296.69 119.3L297.17 119.3L297.17 119.3L297.17 119.78L297.17 119.78L296.69 119.78z" stroke="none" fill="#000000" fill-rule="evenodd" /><path transform="matrix(1 0 0 -1 0 841)" d="M297.17 119.3L353.474 119.3L353.474 119.3L353.474 119.78L353.474 119.78L297.17 119.78z" stroke="none" fill="#000000" fill-rule="evenodd" /><path transform="matrix(1 0 0 -1 0 841)" d="M353.47 119.3L353.95 119.3L353.95 119.3L353.95 119.78L353.95 119.78L353.47 119.78z" stroke="none" fill="#000000" fill-rule="evenodd" /><path transform="matrix(1 0 0 -1 0 841)" d="M353.95 119.3L541.41 119.3L541.41 119.3L541.41 119.78L541.41 119.78L353.95 119.78z" stroke="none" fill="#000000" fill-rule="evenodd" /><path transform="matrix(1 0 0 -1 0 841)" d="M541.42 119.3L541.9 119.3L541.9 119.3L541.9 119.78L541.9 119.78L541.42 119.78z" stroke="none" fill="#000000" fill-rule="evenodd" /><path transform="matrix(1 0 0 -1 0 841)" d="M84.264 94.224L84.744 94.224L84.744 94.224L84.744 119.304L84.744 119.304L84.264 119.304z" stroke="none" fill="#000000" fill-rule="evenodd" /><path transform="matrix(1 0 0 -1 0 841)" d="M84.264 93.744L84.744 93.744L84.744 93.744L84.744 94.22404L84.744 94.22404L84.264 94.22404z" stroke="none" fill="#000000" fill-rule="evenodd" /><path transform="matrix(1 0 0 -1 0 841)" d="M84.264 93.744L84.744 93.744L84.744 93.744L84.744 94.22404L84.744 94.22404L84.264 94.22404z" stroke="none" fill="#000000" fill-rule="evenodd" /><path transform="matrix(1 0 0 -1 0 841)" d="M84.744 93.744L198.384 93.744L198.384 93.744L198.384 94.22404L198.384 94.22404L84.744 94.22404z" stroke="none" fill="#000000" fill-rule="evenodd" /><path transform="matrix(1 0 0 -1 0 841)" d="M198.38 94.224L198.86 94.224L198.86 94.224L198.86 119.304L198.86 119.304L198.38 119.304z" stroke="none" fill="#000000" fill-rule="evenodd" /><path transform="matrix(1 0 0 -1 0 841)" d="M198.38 93.744L198.86 93.744L198.86 93.744L198.86 94.22404L198.86 94.22404L198.38 94.22404z" stroke="none" fill="#000000" fill-rule="evenodd" /><path transform="matrix(1 0 0 -1 0 841)" d="M198.86 93.744L249.164 93.744L249.164 93.744L249.164 94.22404L249.164 94.22404L198.86 94.22404z" stroke="none" fill="#000000" fill-rule="evenodd" /><path transform="matrix(1 0 0 -1 0 841)" d="M249.17 94.224L249.65 94.224L249.65 94.224L249.65 119.304L249.65 119.304L249.17 119.304z" stroke="none" fill="#000000" fill-rule="evenodd" /><path transform="matrix(1 0 0 -1 0 841)" d="M249.17 93.744L249.65 93.744L249.65 93.744L249.65 94.22404L249.65 94.22404L249.17 94.22404z" stroke="none" fill="#000000" fill-rule="evenodd" /><path transform="matrix(1 0 0 -1 0 841)" d="M249.65 93.744L296.69 93.744L296.69 93.744L296.69 94.22404L296.69 94.22404L249.65 94.22404z" stroke="none" fill="#000000" fill-rule="evenodd" /><path transform="matrix(1 0 0 -1 0 841)" d="M296.69 94.224L297.17 94.224L297.17 94.224L297.17 119.304L297.17 119.304L296.69 119.304z" stroke="none" fill="#000000" fill-rule="evenodd" /><path transform="matrix(1 0 0 -1 0 841)" d="M296.69 93.744L297.17 93.744L297.17 93.744L297.17 94.22404L297.17 94.22404L296.69 94.22404z" stroke="none" fill="#000000" fill-rule="evenodd" /><path transform="matrix(1 0 0 -1 0 841)" d="M297.17 93.744L353.474 93.744L353.474 93.744L353.474 94.22404L353.474 94.22404L297.17 94.22404z" stroke="none" fill="#000000" fill-rule="evenodd" /><path transform="matrix(1 0 0 -1 0 841)" d="M353.47 94.224L353.95 94.224L353.95 94.224L353.95 119.304L353.95 119.304L353.47 119.304z" stroke="none" fill="#000000" fill-rule="evenodd" /><path transform="matrix(1 0 0 -1 0 841)" d="M353.47 93.744L353.95 93.744L353.95 93.744L353.95 94.22404L353.95 94.22404L353.47 94.22404z" stroke="none" fill="#000000" fill-rule="evenodd" /><path transform="matrix(1 0 0 -1 0 841)" d="M353.95 93.744L541.41 93.744L541.41 93.744L541.41 94.22404L541.41 94.22404L353.95 94.22404z" stroke="none" fill="#000000" fill-rule="evenodd" /><path transform="matrix(1 0 0 -1 0 841)" d="M541.42 94.224L541.9 94.224L541.9 94.224L541.9 119.304L541.9 119.304L541.42 119.304z" stroke="none" fill="#000000" fill-rule="evenodd" /><path transform="matrix(1 0 0 -1 0 841)" d="M541.42 93.744L541.9 93.744L541.9 93.744L541.9 94.22404L541.9 94.22404L541.42 94.22404z" stroke="none" fill="#000000" fill-rule="evenodd" /><path transform="matrix(1 0 0 -1 0 841)" d="M541.42 93.744L541.9 93.744L541.9 93.744L541.9 94.22404L541.9 94.22404L541.42 94.22404z" stroke="none" fill="#000000" fill-rule="evenodd" /></g></g></g></svg>