<svg xmlns="http://www.w3.org/2000/svg" xmlns:xlink="http://www.w3.org/1999/xlink" id="body_112" preserveAspectRatio="xMinYMin meet" viewBox="0 0 1121 793"><defs><clipPath id="1"><path d="M0 595L0 -0.3200073L0 -0.3200073L841.92 -0.3200073L841.92 -0.3200073L841.92 595L841.92 595L0 595z" /></clipPath><clipPath id="2"><path d="M0.00125 595.0913L842.0112 595.0913L842.0112 595.0913L842.0112 -0.3186646L842.0112 -0.3186646L0.00125 -0.3186646z" /></clipPath><clipPath id="3"><path d="M288.05 535.211L316.01 535.211L316.01 535.211L316.01 516.011L316.01 516.011L288.05 516.011z" /></clipPath><clipPath id="4"><path d="M288.05 535.216L316.01 535.216L316.01 535.216L316.01 516.016L316.01 516.016L288.05 516.016z" /></clipPath><clipPath id="5"><path d="M288.05 535.216L316.01 535.216L316.01 535.216L316.01 516.016L316.01 516.016L288.05 516.016z" /></clipPath><clipPath id="6"><path d="M75.841 501.011L762.811 501.011L762.811 501.011L762.811 189.551L762.811 189.551L75.841 189.551z" /></clipPath><clipPath id="7"><path d="M85.32 229.77L185.66 229.77L185.66 229.77L185.66 190.026L185.66 190.026L85.32 190.026z" /></clipPath><clipPath id="8"><path d="M85.32 229.77L185.66 229.77L185.66 229.77L185.66 190.026L185.66 190.026L85.32 190.026z" /></clipPath><clipPath id="9"><path d="M85.32 229.77L185.66 229.77L185.66 229.77L185.66 190.026L185.66 190.026L85.32 190.026z" /></clipPath><clipPath id="10"><path d="M186.14 229.77L254.3 229.77L254.3 229.77L254.3 190.026L254.3 190.026L186.14 190.026z" /></clipPath><clipPath id="11"><path d="M186.14 229.77L254.3 229.77L254.3 229.77L254.3 190.026L254.3 190.026L186.14 190.026z" /></clipPath><clipPath id="12"><path d="M186.14 229.77L254.3 229.77L254.3 229.77L254.3 190.026L254.3 190.026L186.14 190.026z" /></clipPath><clipPath id="13"><path d="M254.78 229.77L305.924 229.77L305.924 229.77L305.924 190.026L305.924 190.026L254.78 190.026z" /></clipPath><clipPath id="14"><path d="M254.78 229.77L305.924 229.77L305.924 229.77L305.924 190.026L305.924 190.026L254.78 190.026z" /></clipPath><clipPath id="15"><path d="M254.78 229.77L305.924 229.77L305.924 229.77L305.924 190.026L305.924 190.026L254.78 190.026z" /></clipPath><clipPath id="16"><path d="M306.41 229.77L504.19 229.77L504.19 229.77L504.19 190.026L504.19 190.026L306.41 190.026z" /></clipPath><clipPath id="17"><path d="M306.41 229.77L504.19 229.77L504.19 229.77L504.19 190.026L504.19 190.026L306.41 190.026z" /></clipPath><clipPath id="18"><path d="M306.41 229.77L504.19 229.77L504.19 229.77L504.19 190.026L504.19 190.026L306.41 190.026z" /></clipPath><clipPath id="19"><path d="M504.67 229.77L753.33 229.77L753.33 229.77L753.33 190.026L753.33 190.026L504.67 190.026z" /></clipPath><clipPath id="20"><path d="M504.67 229.77L753.33 229.77L753.33 229.77L753.33 190.026L753.33 190.026L504.67 190.026z" /></clipPath><clipPath id="21"><path d="M504.67 229.77L753.33 229.77L753.33 229.77L753.33 190.026L753.33 190.026L504.67 190.026z" /></clipPath><clipPath id="22"><path d="M85.32 268.41L185.66 268.41L185.66 268.41L185.66 230.25L185.66 230.25L85.32 230.25z" /></clipPath><clipPath id="23"><path d="M85.32 268.41L185.66 268.41L185.66 268.41L185.66 230.25L185.66 230.25L85.32 230.25z" /></clipPath><clipPath id="24"><path d="M85.32 268.41L185.66 268.41L185.66 268.41L185.66 230.25L185.66 230.25L85.32 230.25z" /></clipPath><clipPath id="25"><path d="M186.14 268.41L254.3 268.41L254.3 268.41L254.3 230.25L254.3 230.25L186.14 230.25z" /></clipPath><clipPath id="26"><path d="M186.14 268.41L254.3 268.41L254.3 268.41L254.3 230.25L254.3 230.25L186.14 230.25z" /></clipPath><clipPath id="27"><path d="M186.14 268.41L254.3 268.41L254.3 268.41L254.3 230.25L254.3 230.25L186.14 230.25z" /></clipPath><clipPath id="28"><path d="M254.78 268.41L305.924 268.41L305.924 268.41L305.924 230.25L305.924 230.25L254.78 230.25z" /></clipPath><clipPath id="29"><path d="M254.78 268.41L305.924 268.41L305.924 268.41L305.924 230.25L305.924 230.25L254.78 230.25z" /></clipPath><clipPath id="30"><path d="M254.78 268.41L305.924 268.41L305.924 268.41L305.924 230.25L305.924 230.25L254.78 230.25z" /></clipPath><clipPath id="31"><path d="M306.41 268.41L504.19 268.41L504.19 268.41L504.19 230.25L504.19 230.25L306.41 230.25z" /></clipPath><clipPath id="32"><path d="M306.41 268.41L504.19 268.41L504.19 268.41L504.19 230.25L504.19 230.25L306.41 230.25z" /></clipPath><clipPath id="33"><path d="M306.41 268.41L504.19 268.41L504.19 268.41L504.19 230.25L504.19 230.25L306.41 230.25z" /></clipPath><clipPath id="34"><path d="M306.41 268.41L504.19 268.41L504.19 268.41L504.19 230.25L504.19 230.25L306.41 230.25z" /></clipPath><clipPath id="35"><path d="M504.67 268.41L753.33 268.41L753.33 268.41L753.33 230.25L753.33 230.25L504.67 230.25z" /></clipPath><clipPath id="36"><path d="M504.67 268.41L753.33 268.41L753.33 268.41L753.33 230.25L753.33 230.25L504.67 230.25z" /></clipPath><clipPath id="37"><path d="M504.67 268.41L753.33 268.41L753.33 268.41L753.33 230.25L753.33 230.25L504.67 230.25z" /></clipPath><clipPath id="38"><path d="M504.67 268.41L753.33 268.41L753.33 268.41L753.33 230.25L753.33 230.25L504.67 230.25z" /></clipPath><clipPath id="39"><path d="M504.67 268.41L753.33 268.41L753.33 268.41L753.33 230.25L753.33 230.25L504.67 230.25z" /></clipPath><clipPath id="40"><path d="M85.32 287.97L185.66 287.97L185.66 287.97L185.66 268.89L185.66 268.89L85.32 268.89z" /></clipPath><clipPath id="41"><path d="M85.32 287.97L185.66 287.97L185.66 287.97L185.66 268.89L185.66 268.89L85.32 268.89z" /></clipPath><clipPath id="42"><path d="M85.32 287.97L185.66 287.97L185.66 287.97L185.66 268.89L185.66 268.89L85.32 268.89z" /></clipPath><clipPath id="43"><path d="M186.14 287.97L254.3 287.97L254.3 287.97L254.3 268.89L254.3 268.89L186.14 268.89z" /></clipPath><clipPath id="44"><path d="M186.14 287.97L254.3 287.97L254.3 287.97L254.3 268.89L254.3 268.89L186.14 268.89z" /></clipPath><clipPath id="45"><path d="M186.14 287.97L254.3 287.97L254.3 287.97L254.3 268.89L254.3 268.89L186.14 268.89z" /></clipPath><clipPath id="46"><path d="M254.78 287.97L305.924 287.97L305.924 287.97L305.924 268.89L305.924 268.89L254.78 268.89z" /></clipPath><clipPath id="47"><path d="M254.78 287.97L305.924 287.97L305.924 287.97L305.924 268.89L305.924 268.89L254.78 268.89z" /></clipPath><clipPath id="48"><path d="M254.78 287.97L305.924 287.97L305.924 287.97L305.924 268.89L305.924 268.89L254.78 268.89z" /></clipPath><clipPath id="49"><path d="M306.41 287.97L504.19 287.97L504.19 287.97L504.19 268.89L504.19 268.89L306.41 268.89z" /></clipPath><clipPath id="50"><path d="M306.41 287.97L504.19 287.97L504.19 287.97L504.19 268.89L504.19 268.89L306.41 268.89z" /></clipPath><clipPath id="51"><path d="M306.41 287.97L504.19 287.97L504.19 287.97L504.19 268.89L504.19 268.89L306.41 268.89z" /></clipPath><clipPath id="52"><path d="M306.41 287.97L504.19 287.97L504.19 287.97L504.19 268.89L504.19 268.89L306.41 268.89z" /></clipPath><clipPath id="53"><path d="M504.67 287.97L753.33 287.97L753.33 287.97L753.33 268.89L753.33 268.89L504.67 268.89z" /></clipPath><clipPath id="54"><path d="M504.67 287.97L753.33 287.97L753.33 287.97L753.33 268.89L753.33 268.89L504.67 268.89z" /></clipPath><clipPath id="55"><path d="M504.67 287.97L753.33 287.97L753.33 287.97L753.33 268.89L753.33 268.89L504.67 268.89z" /></clipPath><clipPath id="56"><path d="M85.32 307.53L185.66 307.53L185.66 307.53L185.66 288.45L185.66 288.45L85.32 288.45z" /></clipPath><clipPath id="57"><path d="M85.32 307.53L185.66 307.53L185.66 307.53L185.66 288.45L185.66 288.45L85.32 288.45z" /></clipPath><clipPath id="58"><path d="M85.32 307.53L185.66 307.53L185.66 307.53L185.66 288.45L185.66 288.45L85.32 288.45z" /></clipPath><clipPath id="59"><path d="M186.14 307.53L254.3 307.53L254.3 307.53L254.3 288.45L254.3 288.45L186.14 288.45z" /></clipPath><clipPath id="60"><path d="M186.14 307.53L254.3 307.53L254.3 307.53L254.3 288.45L254.3 288.45L186.14 288.45z" /></clipPath><clipPath id="61"><path d="M186.14 307.53L254.3 307.53L254.3 307.53L254.3 288.45L254.3 288.45L186.14 288.45z" /></clipPath><clipPath id="62"><path d="M254.78 307.53L305.924 307.53L305.924 307.53L305.924 288.45L305.924 288.45L254.78 288.45z" /></clipPath><clipPath id="63"><path d="M254.78 307.53L305.924 307.53L305.924 307.53L305.924 288.45L305.924 288.45L254.78 288.45z" /></clipPath><clipPath id="64"><path d="M254.78 307.53L305.924 307.53L305.924 307.53L305.924 288.45L305.924 288.45L254.78 288.45z" /></clipPath><clipPath id="65"><path d="M306.41 307.53L504.19 307.53L504.19 307.53L504.19 288.45L504.19 288.45L306.41 288.45z" /></clipPath><clipPath id="66"><path d="M306.41 307.53L504.19 307.53L504.19 307.53L504.19 288.45L504.19 288.45L306.41 288.45z" /></clipPath><clipPath id="67"><path d="M306.41 307.53L504.19 307.53L504.19 307.53L504.19 288.45L504.19 288.45L306.41 288.45z" /></clipPath><clipPath id="68"><path d="M504.67 307.53L753.33 307.53L753.33 307.53L753.33 288.45L753.33 288.45L504.67 288.45z" /></clipPath><clipPath id="69"><path d="M504.67 307.53L753.33 307.53L753.33 307.53L753.33 288.45L753.33 288.45L504.67 288.45z" /></clipPath><clipPath id="70"><path d="M504.67 307.53L753.33 307.53L753.33 307.53L753.33 288.45L753.33 288.45L504.67 288.45z" /></clipPath><clipPath id="71"><path d="M504.67 307.53L753.33 307.53L753.33 307.53L753.33 288.45L753.33 288.45L504.67 288.45z" /></clipPath><clipPath id="72"><path d="M85.32 327.09L185.66 327.09L185.66 327.09L185.66 308.01L185.66 308.01L85.32 308.01z" /></clipPath><clipPath id="73"><path d="M85.32 327.09L185.66 327.09L185.66 327.09L185.66 308.01L185.66 308.01L85.32 308.01z" /></clipPath><clipPath id="74"><path d="M85.32 327.09L185.66 327.09L185.66 327.09L185.66 308.01L185.66 308.01L85.32 308.01z" /></clipPath><clipPath id="75"><path d="M186.14 327.09L254.3 327.09L254.3 327.09L254.3 308.01L254.3 308.01L186.14 308.01z" /></clipPath><clipPath id="76"><path d="M186.14 327.09L254.3 327.09L254.3 327.09L254.3 308.01L254.3 308.01L186.14 308.01z" /></clipPath><clipPath id="77"><path d="M186.14 327.09L254.3 327.09L254.3 327.09L254.3 308.01L254.3 308.01L186.14 308.01z" /></clipPath><clipPath id="78"><path d="M254.78 327.09L305.924 327.09L305.924 327.09L305.924 308.01L305.924 308.01L254.78 308.01z" /></clipPath><clipPath id="79"><path d="M254.78 327.09L305.924 327.09L305.924 327.09L305.924 308.01L305.924 308.01L254.78 308.01z" /></clipPath><clipPath id="80"><path d="M254.78 327.09L305.924 327.09L305.924 327.09L305.924 308.01L305.924 308.01L254.78 308.01z" /></clipPath><clipPath id="81"><path d="M306.41 327.09L504.19 327.09L504.19 327.09L504.19 308.01L504.19 308.01L306.41 308.01z" /></clipPath><clipPath id="82"><path d="M306.41 327.09L504.19 327.09L504.19 327.09L504.19 308.01L504.19 308.01L306.41 308.01z" /></clipPath><clipPath id="83"><path d="M306.41 327.09L504.19 327.09L504.19 327.09L504.19 308.01L504.19 308.01L306.41 308.01z" /></clipPath><clipPath id="84"><path d="M504.67 327.09L753.33 327.09L753.33 327.09L753.33 308.01L753.33 308.01L504.67 308.01z" /></clipPath><clipPath id="85"><path d="M504.67 327.09L753.33 327.09L753.33 327.09L753.33 308.01L753.33 308.01L504.67 308.01z" /></clipPath><clipPath id="86"><path d="M504.67 327.09L753.33 327.09L753.33 327.09L753.33 308.01L753.33 308.01L504.67 308.01z" /></clipPath><clipPath id="87"><path d="M85.32 346.67L185.66 346.67L185.66 346.67L185.66 327.566L185.66 327.566L85.32 327.566z" /></clipPath><clipPath id="88"><path d="M85.32 346.67L185.66 346.67L185.66 346.67L185.66 327.566L185.66 327.566L85.32 327.566z" /></clipPath><clipPath id="89"><path d="M85.32 346.67L185.66 346.67L185.66 346.67L185.66 327.566L185.66 327.566L85.32 327.566z" /></clipPath><clipPath id="90"><path d="M186.14 346.67L254.3 346.67L254.3 346.67L254.3 327.566L254.3 327.566L186.14 327.566z" /></clipPath><clipPath id="91"><path d="M186.14 346.67L254.3 346.67L254.3 346.67L254.3 327.566L254.3 327.566L186.14 327.566z" /></clipPath><clipPath id="92"><path d="M186.14 346.67L254.3 346.67L254.3 346.67L254.3 327.566L254.3 327.566L186.14 327.566z" /></clipPath><clipPath id="93"><path d="M254.78 346.67L305.924 346.67L305.924 346.67L305.924 327.566L305.924 327.566L254.78 327.566z" /></clipPath><clipPath id="94"><path d="M254.78 346.67L305.924 346.67L305.924 346.67L305.924 327.566L305.924 327.566L254.78 327.566z" /></clipPath><clipPath id="95"><path d="M254.78 346.67L305.924 346.67L305.924 346.67L305.924 327.566L305.924 327.566L254.78 327.566z" /></clipPath><clipPath id="96"><path d="M306.41 346.67L504.19 346.67L504.19 346.67L504.19 327.566L504.19 327.566L306.41 327.566z" /></clipPath><clipPath id="97"><path d="M306.41 346.67L504.19 346.67L504.19 346.67L504.19 327.566L504.19 327.566L306.41 327.566z" /></clipPath><clipPath id="98"><path d="M306.41 346.67L504.19 346.67L504.19 346.67L504.19 327.566L504.19 327.566L306.41 327.566z" /></clipPath><clipPath id="99"><path d="M504.67 346.67L753.33 346.67L753.33 346.67L753.33 327.566L753.33 327.566L504.67 327.566z" /></clipPath><clipPath id="100"><path d="M504.67 346.67L753.33 346.67L753.33 346.67L753.33 327.566L753.33 327.566L504.67 327.566z" /></clipPath><clipPath id="101"><path d="M504.67 346.67L753.33 346.67L753.33 346.67L753.33 327.566L753.33 327.566L504.67 327.566z" /></clipPath><clipPath id="102"><path d="M85.32 385.19L185.66 385.19L185.66 385.19L185.66 347.15L185.66 347.15L85.32 347.15z" /></clipPath><clipPath id="103"><path d="M85.32 385.19L185.66 385.19L185.66 385.19L185.66 347.15L185.66 347.15L85.32 347.15z" /></clipPath><clipPath id="104"><path d="M85.32 385.19L185.66 385.19L185.66 385.19L185.66 347.15L185.66 347.15L85.32 347.15z" /></clipPath><clipPath id="105"><path d="M186.14 385.19L254.3 385.19L254.3 385.19L254.3 347.15L254.3 347.15L186.14 347.15z" /></clipPath><clipPath id="106"><path d="M186.14 385.19L254.3 385.19L254.3 385.19L254.3 347.15L254.3 347.15L186.14 347.15z" /></clipPath><clipPath id="107"><path d="M186.14 385.19L254.3 385.19L254.3 385.19L254.3 347.15L254.3 347.15L186.14 347.15z" /></clipPath><clipPath id="108"><path d="M254.78 385.19L305.924 385.19L305.924 385.19L305.924 347.15L305.924 347.15L254.78 347.15z" /></clipPath><clipPath id="109"><path d="M254.78 385.19L305.924 385.19L305.924 385.19L305.924 347.15L305.924 347.15L254.78 347.15z" /></clipPath><clipPath id="110"><path d="M254.78 385.19L305.924 385.19L305.924 385.19L305.924 347.15L305.924 347.15L254.78 347.15z" /></clipPath><clipPath id="111"><path d="M306.41 385.19L504.19 385.19L504.19 385.19L504.19 347.15L504.19 347.15L306.41 347.15z" /></clipPath><clipPath id="112"><path d="M306.41 385.19L504.19 385.19L504.19 385.19L504.19 347.15L504.19 347.15L306.41 347.15z" /></clipPath><clipPath id="113"><path d="M306.41 385.19L504.19 385.19L504.19 385.19L504.19 347.15L504.19 347.15L306.41 347.15z" /></clipPath><clipPath id="114"><path d="M504.67 385.19L753.33 385.19L753.33 385.19L753.33 347.15L753.33 347.15L504.67 347.15z" /></clipPath><clipPath id="115"><path d="M504.67 385.19L753.33 385.19L753.33 385.19L753.33 347.15L753.33 347.15L504.67 347.15z" /></clipPath><clipPath id="116"><path d="M504.67 385.19L753.33 385.19L753.33 385.19L753.33 347.15L753.33 347.15L504.67 347.15z" /></clipPath><clipPath id="117"><path d="M504.67 385.19L753.33 385.19L753.33 385.19L753.33 347.15L753.33 347.15L504.67 347.15z" /></clipPath><clipPath id="118"><path d="M504.67 385.19L753.33 385.19L753.33 385.19L753.33 347.15L753.33 347.15L504.67 347.15z" /></clipPath><clipPath id="119"><path d="M504.67 385.19L753.33 385.19L753.33 385.19L753.33 347.15L753.33 347.15L504.67 347.15z" /></clipPath><clipPath id="120"><path d="M85.32 423.83L185.66 423.83L185.66 423.83L185.66 385.67L185.66 385.67L85.32 385.67z" /></clipPath><clipPath id="121"><path d="M85.32 423.83L185.66 423.83L185.66 423.83L185.66 385.67L185.66 385.67L85.32 385.67z" /></clipPath><clipPath id="122"><path d="M85.32 423.83L185.66 423.83L185.66 423.83L185.66 385.67L185.66 385.67L85.32 385.67z" /></clipPath><clipPath id="123"><path d="M186.14 423.83L254.3 423.83L254.3 423.83L254.3 385.67L254.3 385.67L186.14 385.67z" /></clipPath><clipPath id="124"><path d="M186.14 423.83L254.3 423.83L254.3 423.83L254.3 385.67L254.3 385.67L186.14 385.67z" /></clipPath><clipPath id="125"><path d="M186.14 423.83L254.3 423.83L254.3 423.83L254.3 385.67L254.3 385.67L186.14 385.67z" /></clipPath><clipPath id="126"><path d="M254.78 423.83L305.924 423.83L305.924 423.83L305.924 385.67L305.924 385.67L254.78 385.67z" /></clipPath><clipPath id="127"><path d="M254.78 423.83L305.924 423.83L305.924 423.83L305.924 385.67L305.924 385.67L254.78 385.67z" /></clipPath><clipPath id="128"><path d="M254.78 423.83L305.924 423.83L305.924 423.83L305.924 385.67L305.924 385.67L254.78 385.67z" /></clipPath><clipPath id="129"><path d="M306.41 423.83L504.19 423.83L504.19 423.83L504.19 385.67L504.19 385.67L306.41 385.67z" /></clipPath><clipPath id="130"><path d="M306.41 423.83L504.19 423.83L504.19 423.83L504.19 385.67L504.19 385.67L306.41 385.67z" /></clipPath><clipPath id="131"><path d="M306.41 423.83L504.19 423.83L504.19 423.83L504.19 385.67L504.19 385.67L306.41 385.67z" /></clipPath><clipPath id="132"><path d="M306.41 423.83L504.19 423.83L504.19 423.83L504.19 385.67L504.19 385.67L306.41 385.67z" /></clipPath><clipPath id="133"><path d="M504.67 423.83L753.33 423.83L753.33 423.83L753.33 385.67L753.33 385.67L504.67 385.67z" /></clipPath><clipPath id="134"><path d="M504.67 423.83L753.33 423.83L753.33 423.83L753.33 385.67L753.33 385.67L504.67 385.67z" /></clipPath><clipPath id="135"><path d="M504.67 423.83L753.33 423.83L753.33 423.83L753.33 385.67L753.33 385.67L504.67 385.67z" /></clipPath><clipPath id="136"><path d="M504.67 423.83L753.33 423.83L753.33 423.83L753.33 385.67L753.33 385.67L504.67 385.67z" /></clipPath><clipPath id="137"><path d="M504.67 423.83L753.33 423.83L753.33 423.83L753.33 385.67L753.33 385.67L504.67 385.67z" /></clipPath><clipPath id="138"><path d="M504.67 423.83L753.33 423.83L753.33 423.83L753.33 385.67L753.33 385.67L504.67 385.67z" /></clipPath><clipPath id="139"><path d="M85.32 500.536L185.66 500.536L185.66 500.536L185.66 424.312L185.66 424.312L85.32 424.312z" /></clipPath><clipPath id="140"><path d="M85.32 500.536L185.66 500.536L185.66 500.536L185.66 424.312L185.66 424.312L85.32 424.312z" /></clipPath><clipPath id="141"><path d="M85.32 500.536L185.66 500.536L185.66 500.536L185.66 424.312L185.66 424.312L85.32 424.312z" /></clipPath><clipPath id="142"><path d="M186.14 500.536L254.3 500.536L254.3 500.536L254.3 424.312L254.3 424.312L186.14 424.312z" /></clipPath><clipPath id="143"><path d="M186.14 500.536L254.3 500.536L254.3 500.536L254.3 424.312L254.3 424.312L186.14 424.312z" /></clipPath><clipPath id="144"><path d="M186.14 500.536L254.3 500.536L254.3 500.536L254.3 424.312L254.3 424.312L186.14 424.312z" /></clipPath><clipPath id="145"><path d="M254.78 500.536L305.924 500.536L305.924 500.536L305.924 424.312L305.924 424.312L254.78 424.312z" /></clipPath><clipPath id="146"><path d="M254.78 500.536L305.924 500.536L305.924 500.536L305.924 424.312L305.924 424.312L254.78 424.312z" /></clipPath><clipPath id="147"><path d="M254.78 500.536L305.924 500.536L305.924 500.536L305.924 424.312L305.924 424.312L254.78 424.312z" /></clipPath><clipPath id="148"><path d="M306.41 500.536L504.19 500.536L504.19 500.536L504.19 424.312L504.19 424.312L306.41 424.312z" /></clipPath><clipPath id="149"><path d="M306.41 500.536L504.19 500.536L504.19 500.536L504.19 424.312L504.19 424.312L306.41 424.312z" /></clipPath><clipPath id="150"><path d="M306.41 500.536L504.19 500.536L504.19 500.536L504.19 424.312L504.19 424.312L306.41 424.312z" /></clipPath><clipPath id="151"><path d="M306.41 500.536L504.19 500.536L504.19 500.536L504.19 424.312L504.19 424.312L306.41 424.312z" /></clipPath><clipPath id="152"><path d="M306.41 500.536L504.19 500.536L504.19 500.536L504.19 424.312L504.19 424.312L306.41 424.312z" /></clipPath><clipPath id="153"><path d="M306.41 500.536L504.19 500.536L504.19 500.536L504.19 424.312L504.19 424.312L306.41 424.312z" /></clipPath><clipPath id="154"><path d="M504.67 500.536L753.33 500.536L753.33 500.536L753.33 424.312L753.33 424.312L504.67 424.312z" /></clipPath><clipPath id="155"><path d="M504.67 500.536L753.33 500.536L753.33 500.536L753.33 424.312L753.33 424.312L504.67 424.312z" /></clipPath><clipPath id="156"><path d="M504.67 500.536L753.33 500.536L753.33 500.536L753.33 424.312L753.33 424.312L504.67 424.312z" /></clipPath><clipPath id="157"><path d="M504.67 500.536L753.33 500.536L753.33 500.536L753.33 424.312L753.33 424.312L504.67 424.312z" /></clipPath><clipPath id="158"><path d="M504.67 500.536L753.33 500.536L753.33 500.536L753.33 424.312L753.33 424.312L504.67 424.312z" /></clipPath><clipPath id="159"><path d="M504.67 500.536L753.33 500.536L753.33 500.536L753.33 424.312L753.33 424.312L504.67 424.312z" /></clipPath><clipPath id="160"><path d="M504.67 500.536L753.33 500.536L753.33 500.536L753.33 424.312L753.33 424.312L504.67 424.312z" /></clipPath><clipPath id="161"><path d="M504.67 500.536L753.33 500.536L753.33 500.536L753.33 424.312L753.33 424.312L504.67 424.312z" /></clipPath><clipPath id="162"><path d="M504.67 500.536L753.33 500.536L753.33 500.536L753.33 424.312L753.33 424.312L504.67 424.312z" /></clipPath><clipPath id="163"><path d="M504.67 500.536L753.33 500.536L753.33 500.536L753.33 424.312L753.33 424.312L504.67 424.312z" /></clipPath><clipPath id="164"><path d="M504.67 500.536L753.33 500.536L753.33 500.536L753.33 424.312L753.33 424.312L504.67 424.312z" /></clipPath><clipPath id="165"><path d="M504.67 500.536L753.33 500.536L753.33 500.536L753.33 424.312L753.33 424.312L504.67 424.312z" /></clipPath></defs><g transform="matrix(1.333333 0 0 1.333333 0 0)"><g><g clip-path="url(#1)"><path transform="matrix(1 0 0 -1 0 595)" d="M704.14 53.304L752.14 53.304L752.14 53.304L752.14 53.90398L752.14 53.90398L704.14 53.90398z" stroke="none" fill="#000000" fill-rule="evenodd" /><g clip-path="url(#2)"><path transform="matrix(1 0 0 -1 0 595)" d="M88.44 77.904L753.58 77.904L753.58 77.904L753.58 80.904L753.58 80.904L88.44 80.904z" stroke="none" fill="#000000" fill-rule="evenodd" /><path transform="matrix(1 0 0 -1 0 595)" d="M88.44 76.464L753.58 76.464L753.58 76.464L753.58 77.18403L753.58 77.18403L88.44 77.18403z" stroke="none" fill="#000000" fill-rule="evenodd" /></g><g clip-path="url(#3)"><g clip-path="url(#4)"></g><g clip-path="url(#5)"></g></g><path transform="matrix(1 0 0 -1 0 595)" d="M185.66 482.74L255.98 482.74L255.98 482.74L255.98 483.46L255.98 483.46L185.66 483.46z" stroke="none" fill="#000000" fill-rule="evenodd" /><path transform="matrix(1 0 0 -1 0 595)" d="M270.02 482.74L312.164 482.74L312.164 482.74L312.164 483.46L312.164 483.46L270.02 483.46z" stroke="none" fill="#000000" fill-rule="evenodd" /><g clip-path="url(#6)"><path transform="matrix(1 0 0 -1 0 595)" d="M85.32 365.23L185.66 365.23L185.66 365.23L185.66 404.974L185.66 404.974L85.32 404.974z" stroke="none" fill="#0070C0" fill-rule="evenodd" /><g clip-path="url(#7)"><path transform="matrix(1 0 0 -1 0 595)" d="M90.48 385.87L180.504 385.87L180.504 385.87L180.504 404.974L180.504 404.974L90.48 404.974z" stroke="none" fill="#0070C0" fill-rule="evenodd" /><g clip-path="url(#8)"></g><g clip-path="url(#9)"></g></g><path transform="matrix(1 0 0 -1 0 595)" d="M186.14 365.23L254.3 365.23L254.3 365.23L254.3 404.974L254.3 404.974L186.14 404.974z" stroke="none" fill="#0070C0" fill-rule="evenodd" /><g clip-path="url(#10)"><path transform="matrix(1 0 0 -1 0 595)" d="M191.3 385.87L249.14 385.87L249.14 385.87L249.14 404.974L249.14 404.974L191.3 404.974z" stroke="none" fill="#0070C0" fill-rule="evenodd" /><g clip-path="url(#11)"></g><g clip-path="url(#12)"></g></g><path transform="matrix(1 0 0 -1 0 595)" d="M254.78 365.23L305.924 365.23L305.924 365.23L305.924 404.974L305.924 404.974L254.78 404.974z" stroke="none" fill="#0070C0" fill-rule="evenodd" /><g clip-path="url(#13)"><path transform="matrix(1 0 0 -1 0 595)" d="M259.94 385.87L300.764 385.87L300.764 385.87L300.764 404.974L300.764 404.974L259.94 404.974z" stroke="none" fill="#0070C0" fill-rule="evenodd" /><g clip-path="url(#14)"></g><g clip-path="url(#15)"></g></g><path transform="matrix(1 0 0 -1 0 595)" d="M306.41 365.23L504.19 365.23L504.19 365.23L504.19 404.974L504.19 404.974L306.41 404.974z" stroke="none" fill="#0070C0" fill-rule="evenodd" /><g clip-path="url(#16)"><path transform="matrix(1 0 0 -1 0 595)" d="M311.57 385.87L499.03 385.87L499.03 385.87L499.03 404.974L499.03 404.974L311.57 404.974z" stroke="none" fill="#0070C0" fill-rule="evenodd" /><g clip-path="url(#17)"></g><g clip-path="url(#18)"></g></g><path transform="matrix(1 0 0 -1 0 595)" d="M504.67 365.23L753.33 365.23L753.33 365.23L753.33 404.974L753.33 404.974L504.67 404.974z" stroke="none" fill="#0070C0" fill-rule="evenodd" /><g clip-path="url(#19)"><path transform="matrix(1 0 0 -1 0 595)" d="M509.83 385.87L748.17 385.87L748.17 385.87L748.17 404.974L748.17 404.974L509.83 404.974z" stroke="none" fill="#0070C0" fill-rule="evenodd" /><g clip-path="url(#20)"></g><g clip-path="url(#21)"></g></g><path transform="matrix(1 0 0 -1 0 595)" d="M84.84 404.98L85.32 404.98L85.32 404.98L85.32 405.46L85.32 405.46L84.84 405.46z" stroke="none" fill="#000000" fill-rule="evenodd" /><path transform="matrix(1 0 0 -1 0 595)" d="M84.84 404.98L85.32 404.98L85.32 404.98L85.32 405.46L85.32 405.46L84.84 405.46z" stroke="none" fill="#000000" fill-rule="evenodd" /><path transform="matrix(1 0 0 -1 0 595)" d="M85.32 404.98L185.66 404.98L185.66 404.98L185.66 405.46L185.66 405.46L85.32 405.46z" stroke="none" fill="#000000" fill-rule="evenodd" /><path transform="matrix(1 0 0 -1 0 595)" d="M185.66 404.98L186.14 404.98L186.14 404.98L186.14 405.46L186.14 405.46L185.66 405.46z" stroke="none" fill="#000000" fill-rule="evenodd" /><path transform="matrix(1 0 0 -1 0 595)" d="M186.14 404.98L254.42 404.98L254.42 404.98L254.42 405.46L254.42 405.46L186.14 405.46z" stroke="none" fill="#000000" fill-rule="evenodd" /><path transform="matrix(1 0 0 -1 0 595)" d="M254.42 404.98L254.9 404.98L254.9 404.98L254.9 405.46L254.9 405.46L254.42 405.46z" stroke="none" fill="#000000" fill-rule="evenodd" /><path transform="matrix(1 0 0 -1 0 595)" d="M254.9 404.98L306.044 404.98L306.044 404.98L306.044 405.46L306.044 405.46L254.9 405.46z" stroke="none" fill="#000000" fill-rule="evenodd" /><path transform="matrix(1 0 0 -1 0 595)" d="M306.05 404.98L306.53 404.98L306.53 404.98L306.53 405.46L306.53 405.46L306.05 405.46z" stroke="none" fill="#000000" fill-rule="evenodd" /><path transform="matrix(1 0 0 -1 0 595)" d="M306.53 404.98L504.31 404.98L504.31 404.98L504.31 405.46L504.31 405.46L306.53 405.46z" stroke="none" fill="#000000" fill-rule="evenodd" /><path transform="matrix(1 0 0 -1 0 595)" d="M504.31 404.98L504.79 404.98L504.79 404.98L504.79 405.46L504.79 405.46L504.31 405.46z" stroke="none" fill="#000000" fill-rule="evenodd" /><path transform="matrix(1 0 0 -1 0 595)" d="M504.79 404.98L753.33 404.98L753.33 404.98L753.33 405.46L753.33 405.46L504.79 405.46z" stroke="none" fill="#000000" fill-rule="evenodd" /><path transform="matrix(1 0 0 -1 0 595)" d="M753.34 404.98L753.82 404.98L753.82 404.98L753.82 405.46L753.82 405.46L753.34 405.46z" stroke="none" fill="#000000" fill-rule="evenodd" /><path transform="matrix(1 0 0 -1 0 595)" d="M753.34 404.98L753.82 404.98L753.82 404.98L753.82 405.46L753.82 405.46L753.34 405.46z" stroke="none" fill="#000000" fill-rule="evenodd" /><path transform="matrix(1 0 0 -1 0 595)" d="M84.84 365.23L85.32 365.23L85.32 365.23L85.32 404.974L85.32 404.974L84.84 404.974z" stroke="none" fill="#000000" fill-rule="evenodd" /><path transform="matrix(1 0 0 -1 0 595)" d="M185.66 365.23L186.14 365.23L186.14 365.23L186.14 404.974L186.14 404.974L185.66 404.974z" stroke="none" fill="#000000" fill-rule="evenodd" /><path transform="matrix(1 0 0 -1 0 595)" d="M254.42 365.23L254.9 365.23L254.9 365.23L254.9 404.974L254.9 404.974L254.42 404.974z" stroke="none" fill="#000000" fill-rule="evenodd" /><path transform="matrix(1 0 0 -1 0 595)" d="M306.05 365.23L306.53 365.23L306.53 365.23L306.53 404.974L306.53 404.974L306.05 404.974z" stroke="none" fill="#000000" fill-rule="evenodd" /><path transform="matrix(1 0 0 -1 0 595)" d="M504.31 365.23L504.79 365.23L504.79 365.23L504.79 404.974L504.79 404.974L504.31 404.974z" stroke="none" fill="#000000" fill-rule="evenodd" /><path transform="matrix(1 0 0 -1 0 595)" d="M753.34 365.23L753.82 365.23L753.82 365.23L753.82 404.974L753.82 404.974L753.34 404.974z" stroke="none" fill="#000000" fill-rule="evenodd" /><path transform="matrix(1 0 0 -1 0 595)" d="M85.32 326.59L185.66 326.59L185.66 326.59L185.66 364.75L185.66 364.75L85.32 364.75z" stroke="none" fill="#DAEEF3" fill-rule="evenodd" /><g clip-path="url(#22)"><path transform="matrix(1 0 0 -1 0 595)" d="M90.48 345.67L180.504 345.67L180.504 345.67L180.504 364.75L180.504 364.75L90.48 364.75z" stroke="none" fill="#DAEEF3" fill-rule="evenodd" /><g clip-path="url(#23)"></g><g clip-path="url(#24)"></g></g><path transform="matrix(1 0 0 -1 0 595)" d="M186.14 326.59L254.3 326.59L254.3 326.59L254.3 364.75L254.3 364.75L186.14 364.75z" stroke="none" fill="#DAEEF3" fill-rule="evenodd" /><g clip-path="url(#25)"><path transform="matrix(1 0 0 -1 0 595)" d="M191.3 345.67L249.14 345.67L249.14 345.67L249.14 364.75L249.14 364.75L191.3 364.75z" stroke="none" fill="#DAEEF3" fill-rule="evenodd" /><g clip-path="url(#26)"></g><g clip-path="url(#27)"></g></g><path transform="matrix(1 0 0 -1 0 595)" d="M254.78 326.59L305.924 326.59L305.924 326.59L305.924 364.75L305.924 364.75L254.78 364.75z" stroke="none" fill="#DAEEF3" fill-rule="evenodd" /><g clip-path="url(#28)"><path transform="matrix(1 0 0 -1 0 595)" d="M259.94 345.67L300.764 345.67L300.764 345.67L300.764 364.75L300.764 364.75L259.94 364.75z" stroke="none" fill="#DAEEF3" fill-rule="evenodd" /><g clip-path="url(#29)"></g><g clip-path="url(#30)"></g></g><path transform="matrix(1 0 0 -1 0 595)" d="M306.41 326.59L504.19 326.59L504.19 326.59L504.19 364.75L504.19 364.75L306.41 364.75z" stroke="none" fill="#DAEEF3" fill-rule="evenodd" /><g clip-path="url(#31)"><path transform="matrix(1 0 0 -1 0 595)" d="M311.57 345.67L499.03 345.67L499.03 345.67L499.03 364.75L499.03 364.75L311.57 364.75z" stroke="none" fill="#DAEEF3" fill-rule="evenodd" /><g clip-path="url(#32)"></g><path transform="matrix(1 0 0 -1 0 595)" d="M311.57 326.59L499.03 326.59L499.03 326.59L499.03 345.67L499.03 345.67L311.57 345.67z" stroke="none" fill="#DAEEF3" fill-rule="evenodd" /><g clip-path="url(#33)"></g><g clip-path="url(#34)"></g></g><path transform="matrix(1 0 0 -1 0 595)" d="M504.67 326.59L753.33 326.59L753.33 326.59L753.33 364.75L753.33 364.75L504.67 364.75z" stroke="none" fill="#DAEEF3" fill-rule="evenodd" /><g clip-path="url(#35)"><path transform="matrix(1 0 0 -1 0 595)" d="M509.83 345.67L748.17 345.67L748.17 345.67L748.17 364.75L748.17 364.75L509.83 364.75z" stroke="none" fill="#DAEEF3" fill-rule="evenodd" /><g clip-path="url(#36)"></g><g clip-path="url(#37)"></g><g clip-path="url(#38)"></g><g clip-path="url(#39)"></g></g><path transform="matrix(1 0 0 -1 0 595)" d="M84.84 364.75L85.32 364.75L85.32 364.75L85.32 365.23L85.32 365.23L84.84 365.23z" stroke="none" fill="#000000" fill-rule="evenodd" /><path transform="matrix(1 0 0 -1 0 595)" d="M85.32 364.75L185.66 364.75L185.66 364.75L185.66 365.23L185.66 365.23L85.32 365.23z" stroke="none" fill="#000000" fill-rule="evenodd" /><path transform="matrix(1 0 0 -1 0 595)" d="M185.66 364.75L186.14 364.75L186.14 364.75L186.14 365.23L186.14 365.23L185.66 365.23z" stroke="none" fill="#000000" fill-rule="evenodd" /><path transform="matrix(1 0 0 -1 0 595)" d="M186.14 364.75L254.42 364.75L254.42 364.75L254.42 365.23L254.42 365.23L186.14 365.23z" stroke="none" fill="#000000" fill-rule="evenodd" /><path transform="matrix(1 0 0 -1 0 595)" d="M254.42 364.75L254.9 364.75L254.9 364.75L254.9 365.23L254.9 365.23L254.42 365.23z" stroke="none" fill="#000000" fill-rule="evenodd" /><path transform="matrix(1 0 0 -1 0 595)" d="M254.9 364.75L306.044 364.75L306.044 364.75L306.044 365.23L306.044 365.23L254.9 365.23z" stroke="none" fill="#000000" fill-rule="evenodd" /><path transform="matrix(1 0 0 -1 0 595)" d="M306.05 364.75L306.53 364.75L306.53 364.75L306.53 365.23L306.53 365.23L306.05 365.23z" stroke="none" fill="#000000" fill-rule="evenodd" /><path transform="matrix(1 0 0 -1 0 595)" d="M306.53 364.75L504.31 364.75L504.31 364.75L504.31 365.23L504.31 365.23L306.53 365.23z" stroke="none" fill="#000000" fill-rule="evenodd" /><path transform="matrix(1 0 0 -1 0 595)" d="M504.31 364.75L504.79 364.75L504.79 364.75L504.79 365.23L504.79 365.23L504.31 365.23z" stroke="none" fill="#000000" fill-rule="evenodd" /><path transform="matrix(1 0 0 -1 0 595)" d="M504.79 364.75L753.33 364.75L753.33 364.75L753.33 365.23L753.33 365.23L504.79 365.23z" stroke="none" fill="#000000" fill-rule="evenodd" /><path transform="matrix(1 0 0 -1 0 595)" d="M753.34 364.75L753.82 364.75L753.82 364.75L753.82 365.23L753.82 365.23L753.34 365.23z" stroke="none" fill="#000000" fill-rule="evenodd" /><path transform="matrix(1 0 0 -1 0 595)" d="M84.84 326.59L85.32 326.59L85.32 326.59L85.32 364.75L85.32 364.75L84.84 364.75z" stroke="none" fill="#000000" fill-rule="evenodd" /><path transform="matrix(1 0 0 -1 0 595)" d="M185.66 326.59L186.14 326.59L186.14 326.59L186.14 364.75L186.14 364.75L185.66 364.75z" stroke="none" fill="#000000" fill-rule="evenodd" /><path transform="matrix(1 0 0 -1 0 595)" d="M254.42 326.59L254.9 326.59L254.9 326.59L254.9 364.75L254.9 364.75L254.42 364.75z" stroke="none" fill="#000000" fill-rule="evenodd" /><path transform="matrix(1 0 0 -1 0 595)" d="M306.05 326.59L306.53 326.59L306.53 326.59L306.53 364.75L306.53 364.75L306.05 364.75z" stroke="none" fill="#000000" fill-rule="evenodd" /><path transform="matrix(1 0 0 -1 0 595)" d="M504.31 326.59L504.79 326.59L504.79 326.59L504.79 364.75L504.79 364.75L504.31 364.75z" stroke="none" fill="#000000" fill-rule="evenodd" /><path transform="matrix(1 0 0 -1 0 595)" d="M753.34 326.59L753.82 326.59L753.82 326.59L753.82 364.75L753.82 364.75L753.34 364.75z" stroke="none" fill="#000000" fill-rule="evenodd" /><g clip-path="url(#40)"><g clip-path="url(#41)"></g><g clip-path="url(#42)"></g></g><g clip-path="url(#43)"><g clip-path="url(#44)"></g><g clip-path="url(#45)"></g></g><g clip-path="url(#46)"><g clip-path="url(#47)"></g><g clip-path="url(#48)"></g></g><g clip-path="url(#49)"><g clip-path="url(#50)"></g><g clip-path="url(#51)"></g><g clip-path="url(#52)"></g></g><g clip-path="url(#53)"><g clip-path="url(#54)"></g><g clip-path="url(#55)"></g></g><path transform="matrix(1 0 0 -1 0 595)" d="M84.84 326.11L85.32 326.11L85.32 326.11L85.32 326.59L85.32 326.59L84.84 326.59z" stroke="none" fill="#000000" fill-rule="evenodd" /><path transform="matrix(1 0 0 -1 0 595)" d="M85.32 326.11L185.66 326.11L185.66 326.11L185.66 326.59L185.66 326.59L85.32 326.59z" stroke="none" fill="#000000" fill-rule="evenodd" /><path transform="matrix(1 0 0 -1 0 595)" d="M185.66 326.11L186.14 326.11L186.14 326.11L186.14 326.59L186.14 326.59L185.66 326.59z" stroke="none" fill="#000000" fill-rule="evenodd" /><path transform="matrix(1 0 0 -1 0 595)" d="M186.14 326.11L254.42 326.11L254.42 326.11L254.42 326.59L254.42 326.59L186.14 326.59z" stroke="none" fill="#000000" fill-rule="evenodd" /><path transform="matrix(1 0 0 -1 0 595)" d="M254.42 326.11L254.9 326.11L254.9 326.11L254.9 326.59L254.9 326.59L254.42 326.59z" stroke="none" fill="#000000" fill-rule="evenodd" /><path transform="matrix(1 0 0 -1 0 595)" d="M254.9 326.11L306.044 326.11L306.044 326.11L306.044 326.59L306.044 326.59L254.9 326.59z" stroke="none" fill="#000000" fill-rule="evenodd" /><path transform="matrix(1 0 0 -1 0 595)" d="M306.05 326.11L306.53 326.11L306.53 326.11L306.53 326.59L306.53 326.59L306.05 326.59z" stroke="none" fill="#000000" fill-rule="evenodd" /><path transform="matrix(1 0 0 -1 0 595)" d="M306.53 326.11L504.31 326.11L504.31 326.11L504.31 326.59L504.31 326.59L306.53 326.59z" stroke="none" fill="#000000" fill-rule="evenodd" /><path transform="matrix(1 0 0 -1 0 595)" d="M504.31 326.11L504.79 326.11L504.79 326.11L504.79 326.59L504.79 326.59L504.31 326.59z" stroke="none" fill="#000000" fill-rule="evenodd" /><path transform="matrix(1 0 0 -1 0 595)" d="M504.79 326.11L753.33 326.11L753.33 326.11L753.33 326.59L753.33 326.59L504.79 326.59z" stroke="none" fill="#000000" fill-rule="evenodd" /><path transform="matrix(1 0 0 -1 0 595)" d="M753.34 326.11L753.82 326.11L753.82 326.11L753.82 326.59L753.82 326.59L753.34 326.59z" stroke="none" fill="#000000" fill-rule="evenodd" /><path transform="matrix(1 0 0 -1 0 595)" d="M84.84 307.03L85.32 307.03L85.32 307.03L85.32 326.11L85.32 326.11L84.84 326.11z" stroke="none" fill="#000000" fill-rule="evenodd" /><path transform="matrix(1 0 0 -1 0 595)" d="M185.66 307.03L186.14 307.03L186.14 307.03L186.14 326.11L186.14 326.11L185.66 326.11z" stroke="none" fill="#000000" fill-rule="evenodd" /><path transform="matrix(1 0 0 -1 0 595)" d="M254.42 307.03L254.9 307.03L254.9 307.03L254.9 326.11L254.9 326.11L254.42 326.11z" stroke="none" fill="#000000" fill-rule="evenodd" /><path transform="matrix(1 0 0 -1 0 595)" d="M306.05 307.03L306.53 307.03L306.53 307.03L306.53 326.11L306.53 326.11L306.05 326.11z" stroke="none" fill="#000000" fill-rule="evenodd" /><path transform="matrix(1 0 0 -1 0 595)" d="M504.31 307.03L504.79 307.03L504.79 307.03L504.79 326.11L504.79 326.11L504.31 326.11z" stroke="none" fill="#000000" fill-rule="evenodd" /><path transform="matrix(1 0 0 -1 0 595)" d="M753.34 307.03L753.82 307.03L753.82 307.03L753.82 326.11L753.82 326.11L753.34 326.11z" stroke="none" fill="#000000" fill-rule="evenodd" /><path transform="matrix(1 0 0 -1 0 595)" d="M85.32 287.47L185.66 287.47L185.66 287.47L185.66 306.55L185.66 306.55L85.32 306.55z" stroke="none" fill="#DAEEF3" fill-rule="evenodd" /><g clip-path="url(#56)"><path transform="matrix(1 0 0 -1 0 595)" d="M90.48 287.47L180.504 287.47L180.504 287.47L180.504 306.55L180.504 306.55L90.48 306.55z" stroke="none" fill="#DAEEF3" fill-rule="evenodd" /><g clip-path="url(#57)"></g><g clip-path="url(#58)"></g></g><path transform="matrix(1 0 0 -1 0 595)" d="M186.14 287.47L254.3 287.47L254.3 287.47L254.3 306.55L254.3 306.55L186.14 306.55z" stroke="none" fill="#DAEEF3" fill-rule="evenodd" /><g clip-path="url(#59)"><path transform="matrix(1 0 0 -1 0 595)" d="M191.3 287.47L249.14 287.47L249.14 287.47L249.14 306.55L249.14 306.55L191.3 306.55z" stroke="none" fill="#DAEEF3" fill-rule="evenodd" /><g clip-path="url(#60)"></g><g clip-path="url(#61)"></g></g><path transform="matrix(1 0 0 -1 0 595)" d="M254.78 287.47L305.924 287.47L305.924 287.47L305.924 306.55L305.924 306.55L254.78 306.55z" stroke="none" fill="#DAEEF3" fill-rule="evenodd" /><g clip-path="url(#62)"><path transform="matrix(1 0 0 -1 0 595)" d="M259.94 287.47L300.764 287.47L300.764 287.47L300.764 306.55L300.764 306.55L259.94 306.55z" stroke="none" fill="#DAEEF3" fill-rule="evenodd" /><g clip-path="url(#63)"></g><g clip-path="url(#64)"></g></g><path transform="matrix(1 0 0 -1 0 595)" d="M306.41 287.47L504.19 287.47L504.19 287.47L504.19 306.55L504.19 306.55L306.41 306.55z" stroke="none" fill="#DAEEF3" fill-rule="evenodd" /><g clip-path="url(#65)"><path transform="matrix(1 0 0 -1 0 595)" d="M311.57 287.47L499.03 287.47L499.03 287.47L499.03 306.55L499.03 306.55L311.57 306.55z" stroke="none" fill="#DAEEF3" fill-rule="evenodd" /><g clip-path="url(#66)"></g><g clip-path="url(#67)"></g></g><path transform="matrix(1 0 0 -1 0 595)" d="M504.67 287.47L753.33 287.47L753.33 287.47L753.33 306.55L753.33 306.55L504.67 306.55z" stroke="none" fill="#DAEEF3" fill-rule="evenodd" /><g clip-path="url(#68)"><path transform="matrix(1 0 0 -1 0 595)" d="M509.83 287.47L748.17 287.47L748.17 287.47L748.17 306.55L748.17 306.55L509.83 306.55z" stroke="none" fill="#DAEEF3" fill-rule="evenodd" /><g clip-path="url(#69)"></g><g clip-path="url(#70)"></g><g clip-path="url(#71)"></g></g><path transform="matrix(1 0 0 -1 0 595)" d="M84.84 306.55L85.32 306.55L85.32 306.55L85.32 307.03L85.32 307.03L84.84 307.03z" stroke="none" fill="#000000" fill-rule="evenodd" /><path transform="matrix(1 0 0 -1 0 595)" d="M85.32 306.55L185.66 306.55L185.66 306.55L185.66 307.03L185.66 307.03L85.32 307.03z" stroke="none" fill="#000000" fill-rule="evenodd" /><path transform="matrix(1 0 0 -1 0 595)" d="M185.66 306.55L186.14 306.55L186.14 306.55L186.14 307.03L186.14 307.03L185.66 307.03z" stroke="none" fill="#000000" fill-rule="evenodd" /><path transform="matrix(1 0 0 -1 0 595)" d="M186.14 306.55L254.42 306.55L254.42 306.55L254.42 307.03L254.42 307.03L186.14 307.03z" stroke="none" fill="#000000" fill-rule="evenodd" /><path transform="matrix(1 0 0 -1 0 595)" d="M254.42 306.55L254.9 306.55L254.9 306.55L254.9 307.03L254.9 307.03L254.42 307.03z" stroke="none" fill="#000000" fill-rule="evenodd" /><path transform="matrix(1 0 0 -1 0 595)" d="M254.9 306.55L306.044 306.55L306.044 306.55L306.044 307.03L306.044 307.03L254.9 307.03z" stroke="none" fill="#000000" fill-rule="evenodd" /><path transform="matrix(1 0 0 -1 0 595)" d="M306.05 306.55L306.53 306.55L306.53 306.55L306.53 307.03L306.53 307.03L306.05 307.03z" stroke="none" fill="#000000" fill-rule="evenodd" /><path transform="matrix(1 0 0 -1 0 595)" d="M306.53 306.55L504.31 306.55L504.31 306.55L504.31 307.03L504.31 307.03L306.53 307.03z" stroke="none" fill="#000000" fill-rule="evenodd" /><path transform="matrix(1 0 0 -1 0 595)" d="M504.31 306.55L504.79 306.55L504.79 306.55L504.79 307.03L504.79 307.03L504.31 307.03z" stroke="none" fill="#000000" fill-rule="evenodd" /><path transform="matrix(1 0 0 -1 0 595)" d="M504.79 306.55L753.33 306.55L753.33 306.55L753.33 307.03L753.33 307.03L504.79 307.03z" stroke="none" fill="#000000" fill-rule="evenodd" /><path transform="matrix(1 0 0 -1 0 595)" d="M753.34 306.55L753.82 306.55L753.82 306.55L753.82 307.03L753.82 307.03L753.34 307.03z" stroke="none" fill="#000000" fill-rule="evenodd" /><path transform="matrix(1 0 0 -1 0 595)" d="M84.84 287.47L85.32 287.47L85.32 287.47L85.32 306.55L85.32 306.55L84.84 306.55z" stroke="none" fill="#000000" fill-rule="evenodd" /><path transform="matrix(1 0 0 -1 0 595)" d="M185.66 287.47L186.14 287.47L186.14 287.47L186.14 306.55L186.14 306.55L185.66 306.55z" stroke="none" fill="#000000" fill-rule="evenodd" /><path transform="matrix(1 0 0 -1 0 595)" d="M254.42 287.47L254.9 287.47L254.9 287.47L254.9 306.55L254.9 306.55L254.42 306.55z" stroke="none" fill="#000000" fill-rule="evenodd" /><path transform="matrix(1 0 0 -1 0 595)" d="M306.05 287.47L306.53 287.47L306.53 287.47L306.53 306.55L306.53 306.55L306.05 306.55z" stroke="none" fill="#000000" fill-rule="evenodd" /><path transform="matrix(1 0 0 -1 0 595)" d="M504.31 287.47L504.79 287.47L504.79 287.47L504.79 306.55L504.79 306.55L504.31 306.55z" stroke="none" fill="#000000" fill-rule="evenodd" /><path transform="matrix(1 0 0 -1 0 595)" d="M753.34 287.47L753.82 287.47L753.82 287.47L753.82 306.55L753.82 306.55L753.34 306.55z" stroke="none" fill="#000000" fill-rule="evenodd" /><g clip-path="url(#72)"><g clip-path="url(#73)"></g><g clip-path="url(#74)"></g></g><g clip-path="url(#75)"><g clip-path="url(#76)"></g><g clip-path="url(#77)"></g></g><g clip-path="url(#78)"><g clip-path="url(#79)"></g><g clip-path="url(#80)"></g></g><g clip-path="url(#81)"><g clip-path="url(#82)"></g><g clip-path="url(#83)"></g></g><g clip-path="url(#84)"><g clip-path="url(#85)"></g><g clip-path="url(#86)"></g></g><path transform="matrix(1 0 0 -1 0 595)" d="M84.84 286.99L85.32 286.99L85.32 286.99L85.32 287.47L85.32 287.47L84.84 287.47z" stroke="none" fill="#000000" fill-rule="evenodd" /><path transform="matrix(1 0 0 -1 0 595)" d="M85.32 286.99L185.66 286.99L185.66 286.99L185.66 287.47L185.66 287.47L85.32 287.47z" stroke="none" fill="#000000" fill-rule="evenodd" /><path transform="matrix(1 0 0 -1 0 595)" d="M185.66 286.99L186.14 286.99L186.14 286.99L186.14 287.47L186.14 287.47L185.66 287.47z" stroke="none" fill="#000000" fill-rule="evenodd" /><path transform="matrix(1 0 0 -1 0 595)" d="M186.14 286.99L254.42 286.99L254.42 286.99L254.42 287.47L254.42 287.47L186.14 287.47z" stroke="none" fill="#000000" fill-rule="evenodd" /><path transform="matrix(1 0 0 -1 0 595)" d="M254.42 286.99L254.9 286.99L254.9 286.99L254.9 287.47L254.9 287.47L254.42 287.47z" stroke="none" fill="#000000" fill-rule="evenodd" /><path transform="matrix(1 0 0 -1 0 595)" d="M254.9 286.99L306.044 286.99L306.044 286.99L306.044 287.47L306.044 287.47L254.9 287.47z" stroke="none" fill="#000000" fill-rule="evenodd" /><path transform="matrix(1 0 0 -1 0 595)" d="M306.05 286.99L306.53 286.99L306.53 286.99L306.53 287.47L306.53 287.47L306.05 287.47z" stroke="none" fill="#000000" fill-rule="evenodd" /><path transform="matrix(1 0 0 -1 0 595)" d="M306.53 286.99L504.31 286.99L504.31 286.99L504.31 287.47L504.31 287.47L306.53 287.47z" stroke="none" fill="#000000" fill-rule="evenodd" /><path transform="matrix(1 0 0 -1 0 595)" d="M504.31 286.99L504.79 286.99L504.79 286.99L504.79 287.47L504.79 287.47L504.31 287.47z" stroke="none" fill="#000000" fill-rule="evenodd" /><path transform="matrix(1 0 0 -1 0 595)" d="M504.79 286.99L753.33 286.99L753.33 286.99L753.33 287.47L753.33 287.47L504.79 287.47z" stroke="none" fill="#000000" fill-rule="evenodd" /><path transform="matrix(1 0 0 -1 0 595)" d="M753.34 286.99L753.82 286.99L753.82 286.99L753.82 287.47L753.82 287.47L753.34 287.47z" stroke="none" fill="#000000" fill-rule="evenodd" /><path transform="matrix(1 0 0 -1 0 595)" d="M84.84 267.91L85.32 267.91L85.32 267.91L85.32 286.99L85.32 286.99L84.84 286.99z" stroke="none" fill="#000000" fill-rule="evenodd" /><path transform="matrix(1 0 0 -1 0 595)" d="M185.66 267.91L186.14 267.91L186.14 267.91L186.14 286.99L186.14 286.99L185.66 286.99z" stroke="none" fill="#000000" fill-rule="evenodd" /><path transform="matrix(1 0 0 -1 0 595)" d="M254.42 267.91L254.9 267.91L254.9 267.91L254.9 286.99L254.9 286.99L254.42 286.99z" stroke="none" fill="#000000" fill-rule="evenodd" /><path transform="matrix(1 0 0 -1 0 595)" d="M306.05 267.91L306.53 267.91L306.53 267.91L306.53 286.99L306.53 286.99L306.05 286.99z" stroke="none" fill="#000000" fill-rule="evenodd" /><path transform="matrix(1 0 0 -1 0 595)" d="M504.31 267.91L504.79 267.91L504.79 267.91L504.79 286.99L504.79 286.99L504.31 286.99z" stroke="none" fill="#000000" fill-rule="evenodd" /><path transform="matrix(1 0 0 -1 0 595)" d="M753.34 267.91L753.82 267.91L753.82 267.91L753.82 286.99L753.82 286.99L753.34 286.99z" stroke="none" fill="#000000" fill-rule="evenodd" /><path transform="matrix(1 0 0 -1 0 595)" d="M85.32 248.33L185.66 248.33L185.66 248.33L185.66 267.434L185.66 267.434L85.32 267.434z" stroke="none" fill="#DAEEF3" fill-rule="evenodd" /><g clip-path="url(#87)"><path transform="matrix(1 0 0 -1 0 595)" d="M90.48 248.33L180.504 248.33L180.504 248.33L180.504 267.434L180.504 267.434L90.48 267.434z" stroke="none" fill="#DAEEF3" fill-rule="evenodd" /><g clip-path="url(#88)"></g><g clip-path="url(#89)"></g></g><path transform="matrix(1 0 0 -1 0 595)" d="M186.14 248.33L254.3 248.33L254.3 248.33L254.3 267.434L254.3 267.434L186.14 267.434z" stroke="none" fill="#DAEEF3" fill-rule="evenodd" /><g clip-path="url(#90)"><path transform="matrix(1 0 0 -1 0 595)" d="M191.3 248.33L249.14 248.33L249.14 248.33L249.14 267.434L249.14 267.434L191.3 267.434z" stroke="none" fill="#DAEEF3" fill-rule="evenodd" /><g clip-path="url(#91)"></g><g clip-path="url(#92)"></g></g><path transform="matrix(1 0 0 -1 0 595)" d="M254.78 248.33L305.924 248.33L305.924 248.33L305.924 267.434L305.924 267.434L254.78 267.434z" stroke="none" fill="#DAEEF3" fill-rule="evenodd" /><g clip-path="url(#93)"><path transform="matrix(1 0 0 -1 0 595)" d="M259.94 248.33L300.764 248.33L300.764 248.33L300.764 267.434L300.764 267.434L259.94 267.434z" stroke="none" fill="#DAEEF3" fill-rule="evenodd" /><g clip-path="url(#94)"></g><g clip-path="url(#95)"></g></g><path transform="matrix(1 0 0 -1 0 595)" d="M306.41 248.33L504.19 248.33L504.19 248.33L504.19 267.434L504.19 267.434L306.41 267.434z" stroke="none" fill="#DAEEF3" fill-rule="evenodd" /><g clip-path="url(#96)"><path transform="matrix(1 0 0 -1 0 595)" d="M311.57 248.33L499.03 248.33L499.03 248.33L499.03 267.434L499.03 267.434L311.57 267.434z" stroke="none" fill="#DAEEF3" fill-rule="evenodd" /><g clip-path="url(#97)"></g><g clip-path="url(#98)"></g></g><path transform="matrix(1 0 0 -1 0 595)" d="M504.67 248.33L753.33 248.33L753.33 248.33L753.33 267.434L753.33 267.434L504.67 267.434z" stroke="none" fill="#DAEEF3" fill-rule="evenodd" /><g clip-path="url(#99)"><path transform="matrix(1 0 0 -1 0 595)" d="M509.83 248.33L748.17 248.33L748.17 248.33L748.17 267.434L748.17 267.434L509.83 267.434z" stroke="none" fill="#DAEEF3" fill-rule="evenodd" /><g clip-path="url(#100)"></g><g clip-path="url(#101)"></g></g><path transform="matrix(1 0 0 -1 0 595)" d="M84.84 267.43L85.32 267.43L85.32 267.43L85.32 267.91L85.32 267.91L84.84 267.91z" stroke="none" fill="#000000" fill-rule="evenodd" /><path transform="matrix(1 0 0 -1 0 595)" d="M85.32 267.43L185.66 267.43L185.66 267.43L185.66 267.91L185.66 267.91L85.32 267.91z" stroke="none" fill="#000000" fill-rule="evenodd" /><path transform="matrix(1 0 0 -1 0 595)" d="M185.66 267.43L186.14 267.43L186.14 267.43L186.14 267.91L186.14 267.91L185.66 267.91z" stroke="none" fill="#000000" fill-rule="evenodd" /><path transform="matrix(1 0 0 -1 0 595)" d="M186.14 267.43L254.42 267.43L254.42 267.43L254.42 267.91L254.42 267.91L186.14 267.91z" stroke="none" fill="#000000" fill-rule="evenodd" /><path transform="matrix(1 0 0 -1 0 595)" d="M254.42 267.43L254.9 267.43L254.9 267.43L254.9 267.91L254.9 267.91L254.42 267.91z" stroke="none" fill="#000000" fill-rule="evenodd" /><path transform="matrix(1 0 0 -1 0 595)" d="M254.9 267.43L306.044 267.43L306.044 267.43L306.044 267.91L306.044 267.91L254.9 267.91z" stroke="none" fill="#000000" fill-rule="evenodd" /><path transform="matrix(1 0 0 -1 0 595)" d="M306.05 267.43L306.53 267.43L306.53 267.43L306.53 267.91L306.53 267.91L306.05 267.91z" stroke="none" fill="#000000" fill-rule="evenodd" /><path transform="matrix(1 0 0 -1 0 595)" d="M306.53 267.43L504.31 267.43L504.31 267.43L504.31 267.91L504.31 267.91L306.53 267.91z" stroke="none" fill="#000000" fill-rule="evenodd" /><path transform="matrix(1 0 0 -1 0 595)" d="M504.31 267.43L504.79 267.43L504.79 267.43L504.79 267.91L504.79 267.91L504.31 267.91z" stroke="none" fill="#000000" fill-rule="evenodd" /><path transform="matrix(1 0 0 -1 0 595)" d="M504.79 267.43L753.33 267.43L753.33 267.43L753.33 267.91L753.33 267.91L504.79 267.91z" stroke="none" fill="#000000" fill-rule="evenodd" /><path transform="matrix(1 0 0 -1 0 595)" d="M753.34 267.43L753.82 267.43L753.82 267.43L753.82 267.91L753.82 267.91L753.34 267.91z" stroke="none" fill="#000000" fill-rule="evenodd" /><path transform="matrix(1 0 0 -1 0 595)" d="M84.84 248.33L85.32 248.33L85.32 248.33L85.32 267.434L85.32 267.434L84.84 267.434z" stroke="none" fill="#000000" fill-rule="evenodd" /><path transform="matrix(1 0 0 -1 0 595)" d="M185.66 248.33L186.14 248.33L186.14 248.33L186.14 267.434L186.14 267.434L185.66 267.434z" stroke="none" fill="#000000" fill-rule="evenodd" /><path transform="matrix(1 0 0 -1 0 595)" d="M254.42 248.33L254.9 248.33L254.9 248.33L254.9 267.434L254.9 267.434L254.42 267.434z" stroke="none" fill="#000000" fill-rule="evenodd" /><path transform="matrix(1 0 0 -1 0 595)" d="M306.05 248.33L306.53 248.33L306.53 248.33L306.53 267.434L306.53 267.434L306.05 267.434z" stroke="none" fill="#000000" fill-rule="evenodd" /><path transform="matrix(1 0 0 -1 0 595)" d="M504.31 248.33L504.79 248.33L504.79 248.33L504.79 267.434L504.79 267.434L504.31 267.434z" stroke="none" fill="#000000" fill-rule="evenodd" /><path transform="matrix(1 0 0 -1 0 595)" d="M753.34 248.33L753.82 248.33L753.82 248.33L753.82 267.434L753.82 267.434L753.34 267.434z" stroke="none" fill="#000000" fill-rule="evenodd" /><g clip-path="url(#102)"><g clip-path="url(#103)"></g><g clip-path="url(#104)"></g></g><g clip-path="url(#105)"><g clip-path="url(#106)"></g><g clip-path="url(#107)"></g></g><g clip-path="url(#108)"><g clip-path="url(#109)"></g><g clip-path="url(#110)"></g></g><g clip-path="url(#111)"><g clip-path="url(#112)"></g><g clip-path="url(#113)"></g></g><g clip-path="url(#114)"><g clip-path="url(#115)"></g><g clip-path="url(#116)"></g><g clip-path="url(#117)"></g><g clip-path="url(#118)"></g><g clip-path="url(#119)"></g></g><path transform="matrix(1 0 0 -1 0 595)" d="M84.84 247.85L85.32 247.85L85.32 247.85L85.32 248.33L85.32 248.33L84.84 248.33z" stroke="none" fill="#000000" fill-rule="evenodd" /><path transform="matrix(1 0 0 -1 0 595)" d="M85.32 247.85L185.66 247.85L185.66 247.85L185.66 248.33L185.66 248.33L85.32 248.33z" stroke="none" fill="#000000" fill-rule="evenodd" /><path transform="matrix(1 0 0 -1 0 595)" d="M185.66 247.85L186.14 247.85L186.14 247.85L186.14 248.33L186.14 248.33L185.66 248.33z" stroke="none" fill="#000000" fill-rule="evenodd" /><path transform="matrix(1 0 0 -1 0 595)" d="M186.14 247.85L254.42 247.85L254.42 247.85L254.42 248.33L254.42 248.33L186.14 248.33z" stroke="none" fill="#000000" fill-rule="evenodd" /><path transform="matrix(1 0 0 -1 0 595)" d="M254.42 247.85L254.9 247.85L254.9 247.85L254.9 248.33L254.9 248.33L254.42 248.33z" stroke="none" fill="#000000" fill-rule="evenodd" /><path transform="matrix(1 0 0 -1 0 595)" d="M254.9 247.85L306.044 247.85L306.044 247.85L306.044 248.33L306.044 248.33L254.9 248.33z" stroke="none" fill="#000000" fill-rule="evenodd" /><path transform="matrix(1 0 0 -1 0 595)" d="M306.05 247.85L306.53 247.85L306.53 247.85L306.53 248.33L306.53 248.33L306.05 248.33z" stroke="none" fill="#000000" fill-rule="evenodd" /><path transform="matrix(1 0 0 -1 0 595)" d="M306.53 247.85L504.31 247.85L504.31 247.85L504.31 248.33L504.31 248.33L306.53 248.33z" stroke="none" fill="#000000" fill-rule="evenodd" /><path transform="matrix(1 0 0 -1 0 595)" d="M504.31 247.85L504.79 247.85L504.79 247.85L504.79 248.33L504.79 248.33L504.31 248.33z" stroke="none" fill="#000000" fill-rule="evenodd" /><path transform="matrix(1 0 0 -1 0 595)" d="M504.79 247.85L753.33 247.85L753.33 247.85L753.33 248.33L753.33 248.33L504.79 248.33z" stroke="none" fill="#000000" fill-rule="evenodd" /><path transform="matrix(1 0 0 -1 0 595)" d="M753.34 247.85L753.82 247.85L753.82 247.85L753.82 248.33L753.82 248.33L753.34 248.33z" stroke="none" fill="#000000" fill-rule="evenodd" /><path transform="matrix(1 0 0 -1 0 595)" d="M84.84 209.81L85.32 209.81L85.32 209.81L85.32 247.85L85.32 247.85L84.84 247.85z" stroke="none" fill="#000000" fill-rule="evenodd" /><path transform="matrix(1 0 0 -1 0 595)" d="M185.66 209.81L186.14 209.81L186.14 209.81L186.14 247.85L186.14 247.85L185.66 247.85z" stroke="none" fill="#000000" fill-rule="evenodd" /><path transform="matrix(1 0 0 -1 0 595)" d="M254.42 209.81L254.9 209.81L254.9 209.81L254.9 247.85L254.9 247.85L254.42 247.85z" stroke="none" fill="#000000" fill-rule="evenodd" /><path transform="matrix(1 0 0 -1 0 595)" d="M306.05 209.81L306.53 209.81L306.53 209.81L306.53 247.85L306.53 247.85L306.05 247.85z" stroke="none" fill="#000000" fill-rule="evenodd" /><path transform="matrix(1 0 0 -1 0 595)" d="M504.31 209.81L504.79 209.81L504.79 209.81L504.79 247.85L504.79 247.85L504.31 247.85z" stroke="none" fill="#000000" fill-rule="evenodd" /><path transform="matrix(1 0 0 -1 0 595)" d="M753.34 209.81L753.82 209.81L753.82 209.81L753.82 247.85L753.82 247.85L753.34 247.85z" stroke="none" fill="#000000" fill-rule="evenodd" /><path transform="matrix(1 0 0 -1 0 595)" d="M85.32 171.17L185.66 171.17L185.66 171.17L185.66 209.33L185.66 209.33L85.32 209.33z" stroke="none" fill="#DAEEF3" fill-rule="evenodd" /><g clip-path="url(#120)"><path transform="matrix(1 0 0 -1 0 595)" d="M90.48 190.25L180.504 190.25L180.504 190.25L180.504 209.33L180.504 209.33L90.48 209.33z" stroke="none" fill="#DAEEF3" fill-rule="evenodd" /><g clip-path="url(#121)"></g><g clip-path="url(#122)"></g></g><path transform="matrix(1 0 0 -1 0 595)" d="M186.14 171.17L254.3 171.17L254.3 171.17L254.3 209.33L254.3 209.33L186.14 209.33z" stroke="none" fill="#DAEEF3" fill-rule="evenodd" /><g clip-path="url(#123)"><path transform="matrix(1 0 0 -1 0 595)" d="M191.3 190.25L249.14 190.25L249.14 190.25L249.14 209.33L249.14 209.33L191.3 209.33z" stroke="none" fill="#DAEEF3" fill-rule="evenodd" /><g clip-path="url(#124)"></g><g clip-path="url(#125)"></g></g><path transform="matrix(1 0 0 -1 0 595)" d="M254.78 171.17L305.924 171.17L305.924 171.17L305.924 209.33L305.924 209.33L254.78 209.33z" stroke="none" fill="#DAEEF3" fill-rule="evenodd" /><g clip-path="url(#126)"><path transform="matrix(1 0 0 -1 0 595)" d="M259.94 190.25L300.764 190.25L300.764 190.25L300.764 209.33L300.764 209.33L259.94 209.33z" stroke="none" fill="#DAEEF3" fill-rule="evenodd" /><g clip-path="url(#127)"></g><g clip-path="url(#128)"></g></g><path transform="matrix(1 0 0 -1 0 595)" d="M306.41 171.17L504.19 171.17L504.19 171.17L504.19 209.33L504.19 209.33L306.41 209.33z" stroke="none" fill="#DAEEF3" fill-rule="evenodd" /><g clip-path="url(#129)"><path transform="matrix(1 0 0 -1 0 595)" d="M311.57 190.25L499.03 190.25L499.03 190.25L499.03 209.33L499.03 209.33L311.57 209.33z" stroke="none" fill="#DAEEF3" fill-rule="evenodd" /><g clip-path="url(#130)"></g><path transform="matrix(1 0 0 -1 0 595)" d="M311.57 171.17L499.03 171.17L499.03 171.17L499.03 190.25L499.03 190.25L311.57 190.25z" stroke="none" fill="#DAEEF3" fill-rule="evenodd" /><g clip-path="url(#131)"></g><g clip-path="url(#132)"></g></g><path transform="matrix(1 0 0 -1 0 595)" d="M504.67 171.17L753.33 171.17L753.33 171.17L753.33 209.33L753.33 209.33L504.67 209.33z" stroke="none" fill="#DAEEF3" fill-rule="evenodd" /><g clip-path="url(#133)"><path transform="matrix(1 0 0 -1 0 595)" d="M509.83 190.25L748.17 190.25L748.17 190.25L748.17 209.33L748.17 209.33L509.83 209.33z" stroke="none" fill="#DAEEF3" fill-rule="evenodd" /><g clip-path="url(#134)"></g><g clip-path="url(#135)"></g><g clip-path="url(#136)"></g><path transform="matrix(1 0 0 -1 0 595)" d="M509.83 171.17L748.17 171.17L748.17 171.17L748.17 190.25L748.17 190.25L509.83 190.25z" stroke="none" fill="#DAEEF3" fill-rule="evenodd" /><g clip-path="url(#137)"></g><g clip-path="url(#138)"></g></g><path transform="matrix(1 0 0 -1 0 595)" d="M84.84 209.33L85.32 209.33L85.32 209.33L85.32 209.81L85.32 209.81L84.84 209.81z" stroke="none" fill="#000000" fill-rule="evenodd" /><path transform="matrix(1 0 0 -1 0 595)" d="M85.32 209.33L185.66 209.33L185.66 209.33L185.66 209.81L185.66 209.81L85.32 209.81z" stroke="none" fill="#000000" fill-rule="evenodd" /><path transform="matrix(1 0 0 -1 0 595)" d="M185.66 209.33L186.14 209.33L186.14 209.33L186.14 209.81L186.14 209.81L185.66 209.81z" stroke="none" fill="#000000" fill-rule="evenodd" /><path transform="matrix(1 0 0 -1 0 595)" d="M186.14 209.33L254.42 209.33L254.42 209.33L254.42 209.81L254.42 209.81L186.14 209.81z" stroke="none" fill="#000000" fill-rule="evenodd" /><path transform="matrix(1 0 0 -1 0 595)" d="M254.42 209.33L254.9 209.33L254.9 209.33L254.9 209.81L254.9 209.81L254.42 209.81z" stroke="none" fill="#000000" fill-rule="evenodd" /><path transform="matrix(1 0 0 -1 0 595)" d="M254.9 209.33L306.044 209.33L306.044 209.33L306.044 209.81L306.044 209.81L254.9 209.81z" stroke="none" fill="#000000" fill-rule="evenodd" /><path transform="matrix(1 0 0 -1 0 595)" d="M306.05 209.33L306.53 209.33L306.53 209.33L306.53 209.81L306.53 209.81L306.05 209.81z" stroke="none" fill="#000000" fill-rule="evenodd" /><path transform="matrix(1 0 0 -1 0 595)" d="M306.53 209.33L504.31 209.33L504.31 209.33L504.31 209.81L504.31 209.81L306.53 209.81z" stroke="none" fill="#000000" fill-rule="evenodd" /><path transform="matrix(1 0 0 -1 0 595)" d="M504.31 209.33L504.79 209.33L504.79 209.33L504.79 209.81L504.79 209.81L504.31 209.81z" stroke="none" fill="#000000" fill-rule="evenodd" /><path transform="matrix(1 0 0 -1 0 595)" d="M504.79 209.33L753.33 209.33L753.33 209.33L753.33 209.81L753.33 209.81L504.79 209.81z" stroke="none" fill="#000000" fill-rule="evenodd" /><path transform="matrix(1 0 0 -1 0 595)" d="M753.34 209.33L753.82 209.33L753.82 209.33L753.82 209.81L753.82 209.81L753.34 209.81z" stroke="none" fill="#000000" fill-rule="evenodd" /><path transform="matrix(1 0 0 -1 0 595)" d="M84.84 171.17L85.32 171.17L85.32 171.17L85.32 209.33L85.32 209.33L84.84 209.33z" stroke="none" fill="#000000" fill-rule="evenodd" /><path transform="matrix(1 0 0 -1 0 595)" d="M185.66 171.17L186.14 171.17L186.14 171.17L186.14 209.33L186.14 209.33L185.66 209.33z" stroke="none" fill="#000000" fill-rule="evenodd" /><path transform="matrix(1 0 0 -1 0 595)" d="M254.42 171.17L254.9 171.17L254.9 171.17L254.9 209.33L254.9 209.33L254.42 209.33z" stroke="none" fill="#000000" fill-rule="evenodd" /><path transform="matrix(1 0 0 -1 0 595)" d="M306.05 171.17L306.53 171.17L306.53 171.17L306.53 209.33L306.53 209.33L306.05 209.33z" stroke="none" fill="#000000" fill-rule="evenodd" /><path transform="matrix(1 0 0 -1 0 595)" d="M504.31 171.17L504.79 171.17L504.79 171.17L504.79 209.33L504.79 209.33L504.31 209.33z" stroke="none" fill="#000000" fill-rule="evenodd" /><path transform="matrix(1 0 0 -1 0 595)" d="M753.34 171.17L753.82 171.17L753.82 171.17L753.82 209.33L753.82 209.33L753.34 209.33z" stroke="none" fill="#000000" fill-rule="evenodd" /><g clip-path="url(#139)"><g clip-path="url(#140)"></g><g clip-path="url(#141)"></g></g><g clip-path="url(#142)"><g clip-path="url(#143)"></g><g clip-path="url(#144)"></g></g><g clip-path="url(#145)"><g clip-path="url(#146)"></g><g clip-path="url(#147)"></g></g><g clip-path="url(#148)"><g clip-path="url(#149)"></g><g clip-path="url(#150)"></g><g clip-path="url(#151)"></g><g clip-path="url(#152)"></g><g clip-path="url(#153)"></g></g><g clip-path="url(#154)"><g clip-path="url(#155)"></g><g clip-path="url(#156)"></g><g clip-path="url(#157)"></g><g clip-path="url(#158)"></g><g clip-path="url(#159)"></g><g clip-path="url(#160)"></g><g clip-path="url(#161)"></g><g clip-path="url(#162)"></g><g clip-path="url(#163)"></g><g clip-path="url(#164)"></g><g clip-path="url(#165)"></g><path transform="matrix(1 0 0 -1 0 595)" d="M538.99 96.384L595.03 96.384L595.03 96.384L595.03 97.104L595.03 97.104L538.99 97.104z" stroke="none" fill="#548DD4" fill-rule="evenodd" /></g><path transform="matrix(1 0 0 -1 0 595)" d="M84.84 170.69L85.32 170.69L85.32 170.69L85.32 171.17L85.32 171.17L84.84 171.17z" stroke="none" fill="#000000" fill-rule="evenodd" /><path transform="matrix(1 0 0 -1 0 595)" d="M85.32 170.69L185.66 170.69L185.66 170.69L185.66 171.17L185.66 171.17L85.32 171.17z" stroke="none" fill="#000000" fill-rule="evenodd" /><path transform="matrix(1 0 0 -1 0 595)" d="M185.66 170.69L186.14 170.69L186.14 170.69L186.14 171.17L186.14 171.17L185.66 171.17z" stroke="none" fill="#000000" fill-rule="evenodd" /><path transform="matrix(1 0 0 -1 0 595)" d="M186.14 170.69L254.42 170.69L254.42 170.69L254.42 171.17L254.42 171.17L186.14 171.17z" stroke="none" fill="#000000" fill-rule="evenodd" /><path transform="matrix(1 0 0 -1 0 595)" d="M254.42 170.69L254.9 170.69L254.9 170.69L254.9 171.17L254.9 171.17L254.42 171.17z" stroke="none" fill="#000000" fill-rule="evenodd" /><path transform="matrix(1 0 0 -1 0 595)" d="M254.9 170.69L306.044 170.69L306.044 170.69L306.044 171.17L306.044 171.17L254.9 171.17z" stroke="none" fill="#000000" fill-rule="evenodd" /><path transform="matrix(1 0 0 -1 0 595)" d="M306.05 170.69L306.53 170.69L306.53 170.69L306.53 171.17L306.53 171.17L306.05 171.17z" stroke="none" fill="#000000" fill-rule="evenodd" /><path transform="matrix(1 0 0 -1 0 595)" d="M306.53 170.69L504.31 170.69L504.31 170.69L504.31 171.17L504.31 171.17L306.53 171.17z" stroke="none" fill="#000000" fill-rule="evenodd" /><path transform="matrix(1 0 0 -1 0 595)" d="M504.31 170.69L504.79 170.69L504.79 170.69L504.79 171.17L504.79 171.17L504.31 171.17z" stroke="none" fill="#000000" fill-rule="evenodd" /><path transform="matrix(1 0 0 -1 0 595)" d="M504.79 170.69L753.33 170.69L753.33 170.69L753.33 171.17L753.33 171.17L504.79 171.17z" stroke="none" fill="#000000" fill-rule="evenodd" /><path transform="matrix(1 0 0 -1 0 595)" d="M753.34 170.69L753.82 170.69L753.82 170.69L753.82 171.17L753.82 171.17L753.34 171.17z" stroke="none" fill="#000000" fill-rule="evenodd" /><path transform="matrix(1 0 0 -1 0 595)" d="M84.84 94.464L85.32 94.464L85.32 94.464L85.32 170.688L85.32 170.688L84.84 170.688z" stroke="none" fill="#000000" fill-rule="evenodd" /><path transform="matrix(1 0 0 -1 0 595)" d="M84.84 93.984L85.32 93.984L85.32 93.984L85.32 94.46398L85.32 94.46398L84.84 94.46398z" stroke="none" fill="#000000" fill-rule="evenodd" /><path transform="matrix(1 0 0 -1 0 595)" d="M84.84 93.984L85.32 93.984L85.32 93.984L85.32 94.46398L85.32 94.46398L84.84 94.46398z" stroke="none" fill="#000000" fill-rule="evenodd" /><path transform="matrix(1 0 0 -1 0 595)" d="M85.32 93.984L185.66 93.984L185.66 93.984L185.66 94.46398L185.66 94.46398L85.32 94.46398z" stroke="none" fill="#000000" fill-rule="evenodd" /><path transform="matrix(1 0 0 -1 0 595)" d="M185.66 94.464L186.14 94.464L186.14 94.464L186.14 170.688L186.14 170.688L185.66 170.688z" stroke="none" fill="#000000" fill-rule="evenodd" /><path transform="matrix(1 0 0 -1 0 595)" d="M185.66 93.984L186.14 93.984L186.14 93.984L186.14 94.46398L186.14 94.46398L185.66 94.46398z" stroke="none" fill="#000000" fill-rule="evenodd" /><path transform="matrix(1 0 0 -1 0 595)" d="M186.14 93.984L254.42 93.984L254.42 93.984L254.42 94.46398L254.42 94.46398L186.14 94.46398z" stroke="none" fill="#000000" fill-rule="evenodd" /><path transform="matrix(1 0 0 -1 0 595)" d="M254.42 94.464L254.9 94.464L254.9 94.464L254.9 170.688L254.9 170.688L254.42 170.688z" stroke="none" fill="#000000" fill-rule="evenodd" /><path transform="matrix(1 0 0 -1 0 595)" d="M254.42 93.984L254.9 93.984L254.9 93.984L254.9 94.46398L254.9 94.46398L254.42 94.46398z" stroke="none" fill="#000000" fill-rule="evenodd" /><path transform="matrix(1 0 0 -1 0 595)" d="M254.9 93.984L306.044 93.984L306.044 93.984L306.044 94.46398L306.044 94.46398L254.9 94.46398z" stroke="none" fill="#000000" fill-rule="evenodd" /><path transform="matrix(1 0 0 -1 0 595)" d="M306.05 94.464L306.53 94.464L306.53 94.464L306.53 170.688L306.53 170.688L306.05 170.688z" stroke="none" fill="#000000" fill-rule="evenodd" /><path transform="matrix(1 0 0 -1 0 595)" d="M306.05 93.984L306.53 93.984L306.53 93.984L306.53 94.46398L306.53 94.46398L306.05 94.46398z" stroke="none" fill="#000000" fill-rule="evenodd" /><path transform="matrix(1 0 0 -1 0 595)" d="M306.53 93.984L504.31 93.984L504.31 93.984L504.31 94.46398L504.31 94.46398L306.53 94.46398z" stroke="none" fill="#000000" fill-rule="evenodd" /><path transform="matrix(1 0 0 -1 0 595)" d="M504.31 94.464L504.79 94.464L504.79 94.464L504.79 170.688L504.79 170.688L504.31 170.688z" stroke="none" fill="#000000" fill-rule="evenodd" /><path transform="matrix(1 0 0 -1 0 595)" d="M504.31 93.984L504.79 93.984L504.79 93.984L504.79 94.46398L504.79 94.46398L504.31 94.46398z" stroke="none" fill="#000000" fill-rule="evenodd" /><path transform="matrix(1 0 0 -1 0 595)" d="M504.79 93.984L753.33 93.984L753.33 93.984L753.33 94.46398L753.33 94.46398L504.79 94.46398z" stroke="none" fill="#000000" fill-rule="evenodd" /><path transform="matrix(1 0 0 -1 0 595)" d="M753.34 94.464L753.82 94.464L753.82 94.464L753.82 170.688L753.82 170.688L753.34 170.688z" stroke="none" fill="#000000" fill-rule="evenodd" /><path transform="matrix(1 0 0 -1 0 595)" d="M753.34 93.984L753.82 93.984L753.82 93.984L753.82 94.46398L753.82 94.46398L753.34 94.46398z" stroke="none" fill="#000000" fill-rule="evenodd" /><path transform="matrix(1 0 0 -1 0 595)" d="M753.34 93.984L753.82 93.984L753.82 93.984L753.82 94.46398L753.82 94.46398L753.34 94.46398z" stroke="none" fill="#000000" fill-rule="evenodd" /></g></g></g></g></svg>