<svg xmlns="http://www.w3.org/2000/svg" xmlns:xlink="http://www.w3.org/1999/xlink" id="body_115" preserveAspectRatio="xMinYMin meet" viewBox="0 0 1121 793"><defs><clipPath id="1"><path d="M0 595L0 -0.3200073L0 -0.3200073L841.92 -0.3200073L841.92 -0.3200073L841.92 595L841.92 595L0 595z" /></clipPath><clipPath id="2"><path d="M0.00125 595.0913L842.0112 595.0913L842.0112 595.0913L842.0112 -0.3186646L842.0112 -0.3186646L0.00125 -0.3186646z" /></clipPath><clipPath id="3"><path d="M288.05 535.211L316.01 535.211L316.01 535.211L316.01 516.011L316.01 516.011L288.05 516.011z" /></clipPath><clipPath id="4"><path d="M288.05 535.216L316.01 535.216L316.01 535.216L316.01 516.016L316.01 516.016L288.05 516.016z" /></clipPath><clipPath id="5"><path d="M288.05 535.216L316.01 535.216L316.01 535.216L316.01 516.016L316.01 516.016L288.05 516.016z" /></clipPath><clipPath id="6"><path d="M84.721 127.39L192.031 127.39L192.031 127.39L192.031 90.07001L192.031 90.07001L84.721 90.07001z" /></clipPath><clipPath id="7"><path d="M84.72 127.38L192.02 127.38L192.02 127.38L192.02 90.06L192.02 90.06L84.72 90.06z" /></clipPath><clipPath id="8"><path d="M84.72 127.38L192.02 127.38L192.02 127.38L192.02 90.06L192.02 90.06L84.72 90.06z" /></clipPath><clipPath id="9"><path d="M192.51 127.39L267.75 127.39L267.75 127.39L267.75 90.07001L267.75 90.07001L192.51 90.07001z" /></clipPath><clipPath id="10"><path d="M192.5 127.38L267.74 127.38L267.74 127.38L267.74 90.06L267.74 90.06L192.5 90.06z" /></clipPath><clipPath id="11"><path d="M192.5 127.38L267.74 127.38L267.74 127.38L267.74 90.06L267.74 90.06L192.5 90.06z" /></clipPath><clipPath id="12"><path d="M268.23 127.39L324.405 127.39L324.405 127.39L324.405 90.07001L324.405 90.07001L268.23 90.07001z" /></clipPath><clipPath id="13"><path d="M268.22 127.38L324.404 127.38L324.404 127.38L324.404 90.06L324.404 90.06L268.22 90.06z" /></clipPath><clipPath id="14"><path d="M268.22 127.38L324.404 127.38L324.404 127.38L324.404 90.06L324.404 90.06L268.22 90.06z" /></clipPath><clipPath id="15"><path d="M325.01 127.39L471.29 127.39L471.29 127.39L471.29 90.07001L471.29 90.07001L325.01 90.07001z" /></clipPath><clipPath id="16"><path d="M325.01 127.38L471.29 127.38L471.29 127.38L471.29 90.06L471.29 90.06L325.01 90.06z" /></clipPath><clipPath id="17"><path d="M325.01 127.38L471.29 127.38L471.29 127.38L471.29 90.06L471.29 90.06L325.01 90.06z" /></clipPath><clipPath id="18"><path d="M471.8 127.39L725.86 127.39L725.86 127.39L725.86 90.07001L725.86 90.07001L471.8 90.07001z" /></clipPath><clipPath id="19"><path d="M471.79 127.38L725.85 127.38L725.85 127.38L725.85 90.06L725.85 90.06L471.79 90.06z" /></clipPath><clipPath id="20"><path d="M471.79 127.38L725.85 127.38L725.85 127.38L725.85 90.06L725.85 90.06L471.79 90.06z" /></clipPath><clipPath id="21"><path d="M84.721 155.59L192.031 155.59L192.031 155.59L192.031 127.87L192.031 127.87L84.721 127.87z" /></clipPath><clipPath id="22"><path d="M84.72 155.58L192.02 155.58L192.02 155.58L192.02 127.86L192.02 127.86L84.72 127.86z" /></clipPath><clipPath id="23"><path d="M84.72 155.58L192.02 155.58L192.02 155.58L192.02 127.86L192.02 127.86L84.72 127.86z" /></clipPath><clipPath id="24"><path d="M192.51 155.59L267.75 155.59L267.75 155.59L267.75 127.87L267.75 127.87L192.51 127.87z" /></clipPath><clipPath id="25"><path d="M192.5 155.58L267.74 155.58L267.74 155.58L267.74 127.86L267.74 127.86L192.5 127.86z" /></clipPath><clipPath id="26"><path d="M192.5 155.58L267.74 155.58L267.74 155.58L267.74 127.86L267.74 127.86L192.5 127.86z" /></clipPath><clipPath id="27"><path d="M268.23 155.59L324.405 155.59L324.405 155.59L324.405 127.87L324.405 127.87L268.23 127.87z" /></clipPath><clipPath id="28"><path d="M268.22 155.58L324.404 155.58L324.404 155.58L324.404 127.86L324.404 127.86L268.22 127.86z" /></clipPath><clipPath id="29"><path d="M268.22 155.58L324.404 155.58L324.404 155.58L324.404 127.86L324.404 127.86L268.22 127.86z" /></clipPath><clipPath id="30"><path d="M325.01 155.59L471.29 155.59L471.29 155.59L471.29 127.87L471.29 127.87L325.01 127.87z" /></clipPath><clipPath id="31"><path d="M325.01 155.58L471.29 155.58L471.29 155.58L471.29 127.86L471.29 127.86L325.01 127.86z" /></clipPath><clipPath id="32"><path d="M325.01 155.58L471.29 155.58L471.29 155.58L471.29 127.86L471.29 127.86L325.01 127.86z" /></clipPath><clipPath id="33"><path d="M471.8 155.59L725.86 155.59L725.86 155.59L725.86 127.87L725.86 127.87L471.8 127.87z" /></clipPath><clipPath id="34"><path d="M471.79 155.58L725.85 155.58L725.85 155.58L725.85 127.86L725.85 127.86L471.79 127.86z" /></clipPath><clipPath id="35"><path d="M471.79 155.58L725.85 155.58L725.85 155.58L725.85 127.86L725.85 127.86L471.79 127.86z" /></clipPath><clipPath id="36"><path d="M84.721 183.67L192.031 183.67L192.031 183.67L192.031 156.07L192.031 156.07L84.721 156.07z" /></clipPath><clipPath id="37"><path d="M84.72 183.66L192.02 183.66L192.02 183.66L192.02 156.06L192.02 156.06L84.72 156.06z" /></clipPath><clipPath id="38"><path d="M84.72 183.66L192.02 183.66L192.02 183.66L192.02 156.06L192.02 156.06L84.72 156.06z" /></clipPath><clipPath id="39"><path d="M192.51 183.67L267.75 183.67L267.75 183.67L267.75 156.07L267.75 156.07L192.51 156.07z" /></clipPath><clipPath id="40"><path d="M192.5 183.66L267.74 183.66L267.74 183.66L267.74 156.06L267.74 156.06L192.5 156.06z" /></clipPath><clipPath id="41"><path d="M192.5 183.66L267.74 183.66L267.74 183.66L267.74 156.06L267.74 156.06L192.5 156.06z" /></clipPath><clipPath id="42"><path d="M268.23 183.67L324.405 183.67L324.405 183.67L324.405 156.07L324.405 156.07L268.23 156.07z" /></clipPath><clipPath id="43"><path d="M268.22 183.66L324.404 183.66L324.404 183.66L324.404 156.06L324.404 156.06L268.22 156.06z" /></clipPath><clipPath id="44"><path d="M268.22 183.66L324.404 183.66L324.404 183.66L324.404 156.06L324.404 156.06L268.22 156.06z" /></clipPath><clipPath id="45"><path d="M325.01 183.67L471.29 183.67L471.29 183.67L471.29 156.07L471.29 156.07L325.01 156.07z" /></clipPath><clipPath id="46"><path d="M325.01 183.66L471.29 183.66L471.29 183.66L471.29 156.06L471.29 156.06L325.01 156.06z" /></clipPath><clipPath id="47"><path d="M325.01 183.66L471.29 183.66L471.29 183.66L471.29 156.06L471.29 156.06L325.01 156.06z" /></clipPath><clipPath id="48"><path d="M471.8 183.67L725.86 183.67L725.86 183.67L725.86 156.07L725.86 156.07L471.8 156.07z" /></clipPath><clipPath id="49"><path d="M471.79 183.66L725.85 183.66L725.85 183.66L725.85 156.06L725.85 156.06L471.79 156.06z" /></clipPath><clipPath id="50"><path d="M471.79 183.66L725.85 183.66L725.85 183.66L725.85 156.06L725.85 156.06L471.79 156.06z" /></clipPath><clipPath id="51"><path d="M84.721 211.89L192.031 211.89L192.031 211.89L192.031 184.275L192.031 184.275L84.721 184.275z" /></clipPath><clipPath id="52"><path d="M84.72 211.89L192.02 211.89L192.02 211.89L192.02 184.266L192.02 184.266L84.72 184.266z" /></clipPath><clipPath id="53"><path d="M84.72 211.89L192.02 211.89L192.02 211.89L192.02 184.266L192.02 184.266L84.72 184.266z" /></clipPath><clipPath id="54"><path d="M192.51 211.89L267.75 211.89L267.75 211.89L267.75 184.275L267.75 184.275L192.51 184.275z" /></clipPath><clipPath id="55"><path d="M192.5 211.89L267.74 211.89L267.74 211.89L267.74 184.266L267.74 184.266L192.5 184.266z" /></clipPath><clipPath id="56"><path d="M192.5 211.89L267.74 211.89L267.74 211.89L267.74 184.266L267.74 184.266L192.5 184.266z" /></clipPath><clipPath id="57"><path d="M268.23 211.89L324.405 211.89L324.405 211.89L324.405 184.275L324.405 184.275L268.23 184.275z" /></clipPath><clipPath id="58"><path d="M268.22 211.89L324.404 211.89L324.404 211.89L324.404 184.266L324.404 184.266L268.22 184.266z" /></clipPath><clipPath id="59"><path d="M268.22 211.89L324.404 211.89L324.404 211.89L324.404 184.266L324.404 184.266L268.22 184.266z" /></clipPath><clipPath id="60"><path d="M325.01 211.89L471.29 211.89L471.29 211.89L471.29 184.275L471.29 184.275L325.01 184.275z" /></clipPath><clipPath id="61"><path d="M325.01 211.89L471.29 211.89L471.29 211.89L471.29 184.266L471.29 184.266L325.01 184.266z" /></clipPath><clipPath id="62"><path d="M325.01 211.89L471.29 211.89L471.29 211.89L471.29 184.266L471.29 184.266L325.01 184.266z" /></clipPath><clipPath id="63"><path d="M471.8 211.89L725.86 211.89L725.86 211.89L725.86 184.275L725.86 184.275L471.8 184.275z" /></clipPath><clipPath id="64"><path d="M471.79 211.89L725.85 211.89L725.85 211.89L725.85 184.266L725.85 184.266L471.79 184.266z" /></clipPath><clipPath id="65"><path d="M471.79 211.89L725.85 211.89L725.85 211.89L725.85 184.266L725.85 184.266L471.79 184.266z" /></clipPath><clipPath id="66"><path d="M84.721 240.09L192.031 240.09L192.031 240.09L192.031 212.37L192.031 212.37L84.721 212.37z" /></clipPath><clipPath id="67"><path d="M84.72 240.09L192.02 240.09L192.02 240.09L192.02 212.37L192.02 212.37L84.72 212.37z" /></clipPath><clipPath id="68"><path d="M84.72 240.09L192.02 240.09L192.02 240.09L192.02 212.37L192.02 212.37L84.72 212.37z" /></clipPath><clipPath id="69"><path d="M192.51 240.09L267.75 240.09L267.75 240.09L267.75 212.37L267.75 212.37L192.51 212.37z" /></clipPath><clipPath id="70"><path d="M192.5 240.09L267.74 240.09L267.74 240.09L267.74 212.37L267.74 212.37L192.5 212.37z" /></clipPath><clipPath id="71"><path d="M192.5 240.09L267.74 240.09L267.74 240.09L267.74 212.37L267.74 212.37L192.5 212.37z" /></clipPath><clipPath id="72"><path d="M268.23 240.09L324.405 240.09L324.405 240.09L324.405 212.37L324.405 212.37L268.23 212.37z" /></clipPath><clipPath id="73"><path d="M268.22 240.09L324.404 240.09L324.404 240.09L324.404 212.37L324.404 212.37L268.22 212.37z" /></clipPath><clipPath id="74"><path d="M268.22 240.09L324.404 240.09L324.404 240.09L324.404 212.37L324.404 212.37L268.22 212.37z" /></clipPath><clipPath id="75"><path d="M325.01 240.09L471.29 240.09L471.29 240.09L471.29 212.37L471.29 212.37L325.01 212.37z" /></clipPath><clipPath id="76"><path d="M325.01 240.09L471.29 240.09L471.29 240.09L471.29 212.37L471.29 212.37L325.01 212.37z" /></clipPath><clipPath id="77"><path d="M325.01 240.09L471.29 240.09L471.29 240.09L471.29 212.37L471.29 212.37L325.01 212.37z" /></clipPath><clipPath id="78"><path d="M471.8 240.09L725.86 240.09L725.86 240.09L725.86 212.37L725.86 212.37L471.8 212.37z" /></clipPath><clipPath id="79"><path d="M471.79 240.09L725.85 240.09L725.85 240.09L725.85 212.37L725.85 212.37L471.79 212.37z" /></clipPath><clipPath id="80"><path d="M471.79 240.09L725.85 240.09L725.85 240.09L725.85 212.37L725.85 212.37L471.79 212.37z" /></clipPath><clipPath id="81"><path d="M84.721 268.17L192.031 268.17L192.031 268.17L192.031 240.57L192.031 240.57L84.721 240.57z" /></clipPath><clipPath id="82"><path d="M84.72 268.17L192.02 268.17L192.02 268.17L192.02 240.57L192.02 240.57L84.72 240.57z" /></clipPath><clipPath id="83"><path d="M84.72 268.17L192.02 268.17L192.02 268.17L192.02 240.57L192.02 240.57L84.72 240.57z" /></clipPath><clipPath id="84"><path d="M192.51 268.17L267.75 268.17L267.75 268.17L267.75 240.57L267.75 240.57L192.51 240.57z" /></clipPath><clipPath id="85"><path d="M192.5 268.17L267.74 268.17L267.74 268.17L267.74 240.57L267.74 240.57L192.5 240.57z" /></clipPath><clipPath id="86"><path d="M192.5 268.17L267.74 268.17L267.74 268.17L267.74 240.57L267.74 240.57L192.5 240.57z" /></clipPath><clipPath id="87"><path d="M268.23 268.17L324.405 268.17L324.405 268.17L324.405 240.57L324.405 240.57L268.23 240.57z" /></clipPath><clipPath id="88"><path d="M268.22 268.17L324.404 268.17L324.404 268.17L324.404 240.57L324.404 240.57L268.22 240.57z" /></clipPath><clipPath id="89"><path d="M268.22 268.17L324.404 268.17L324.404 268.17L324.404 240.57L324.404 240.57L268.22 240.57z" /></clipPath><clipPath id="90"><path d="M325.01 268.17L471.29 268.17L471.29 268.17L471.29 240.57L471.29 240.57L325.01 240.57z" /></clipPath><clipPath id="91"><path d="M325.01 268.17L471.29 268.17L471.29 268.17L471.29 240.57L471.29 240.57L325.01 240.57z" /></clipPath><clipPath id="92"><path d="M325.01 268.17L471.29 268.17L471.29 268.17L471.29 240.57L471.29 240.57L325.01 240.57z" /></clipPath><clipPath id="93"><path d="M471.8 268.17L725.86 268.17L725.86 268.17L725.86 240.57L725.86 240.57L471.8 240.57z" /></clipPath><clipPath id="94"><path d="M471.79 268.17L725.85 268.17L725.85 268.17L725.85 240.57L725.85 240.57L471.79 240.57z" /></clipPath><clipPath id="95"><path d="M471.79 268.17L725.85 268.17L725.85 268.17L725.85 240.57L725.85 240.57L471.79 240.57z" /></clipPath><clipPath id="96"><path d="M84.721 315.45L192.031 315.45L192.031 315.45L192.031 268.77L192.031 268.77L84.721 268.77z" /></clipPath><clipPath id="97"><path d="M84.72 315.45L192.02 315.45L192.02 315.45L192.02 268.77L192.02 268.77L84.72 268.77z" /></clipPath><clipPath id="98"><path d="M84.72 315.45L192.02 315.45L192.02 315.45L192.02 268.77L192.02 268.77L84.72 268.77z" /></clipPath><clipPath id="99"><path d="M84.72 315.45L192.02 315.45L192.02 315.45L192.02 268.77L192.02 268.77L84.72 268.77z" /></clipPath><clipPath id="100"><path d="M192.51 315.45L267.75 315.45L267.75 315.45L267.75 268.77L267.75 268.77L192.51 268.77z" /></clipPath><clipPath id="101"><path d="M192.5 315.45L267.74 315.45L267.74 315.45L267.74 268.77L267.74 268.77L192.5 268.77z" /></clipPath><clipPath id="102"><path d="M192.5 315.45L267.74 315.45L267.74 315.45L267.74 268.77L267.74 268.77L192.5 268.77z" /></clipPath><clipPath id="103"><path d="M192.5 315.45L267.74 315.45L267.74 315.45L267.74 268.77L267.74 268.77L192.5 268.77z" /></clipPath><clipPath id="104"><path d="M268.23 315.45L324.405 315.45L324.405 315.45L324.405 268.77L324.405 268.77L268.23 268.77z" /></clipPath><clipPath id="105"><path d="M268.22 315.45L324.404 315.45L324.404 315.45L324.404 268.77L324.404 268.77L268.22 268.77z" /></clipPath><clipPath id="106"><path d="M268.22 315.45L324.404 315.45L324.404 315.45L324.404 268.77L324.404 268.77L268.22 268.77z" /></clipPath><clipPath id="107"><path d="M325.01 315.45L471.29 315.45L471.29 315.45L471.29 268.77L471.29 268.77L325.01 268.77z" /></clipPath><clipPath id="108"><path d="M325.01 315.45L471.29 315.45L471.29 315.45L471.29 268.77L471.29 268.77L325.01 268.77z" /></clipPath><clipPath id="109"><path d="M325.01 315.45L471.29 315.45L471.29 315.45L471.29 268.77L471.29 268.77L325.01 268.77z" /></clipPath><clipPath id="110"><path d="M325.01 315.45L471.29 315.45L471.29 315.45L471.29 268.77L471.29 268.77L325.01 268.77z" /></clipPath><clipPath id="111"><path d="M471.8 315.45L725.86 315.45L725.86 315.45L725.86 268.77L725.86 268.77L471.8 268.77z" /></clipPath><clipPath id="112"><path d="M471.79 315.45L725.85 315.45L725.85 315.45L725.85 268.77L725.85 268.77L471.79 268.77z" /></clipPath><clipPath id="113"><path d="M471.79 315.45L725.85 315.45L725.85 315.45L725.85 268.77L725.85 268.77L471.79 268.77z" /></clipPath><clipPath id="114"><path d="M471.79 315.45L725.85 315.45L725.85 315.45L725.85 268.77L725.85 268.77L471.79 268.77z" /></clipPath><clipPath id="115"><path d="M471.79 315.45L725.85 315.45L725.85 315.45L725.85 268.77L725.85 268.77L471.79 268.77z" /></clipPath><clipPath id="116"><path d="M84.721 421.2L183.151 421.2L183.151 421.2L183.151 393.6L183.151 393.6L84.721 393.6z" /></clipPath><clipPath id="117"><path d="M84.72 421.19L183.144 421.19L183.144 421.19L183.144 393.59L183.144 393.59L84.72 393.59z" /></clipPath><clipPath id="118"><path d="M84.72 421.19L183.144 421.19L183.144 421.19L183.144 393.59L183.144 393.59L84.72 393.59z" /></clipPath><clipPath id="119"><path d="M183.63 421.2L246.27 421.2L246.27 421.2L246.27 393.6L246.27 393.6L183.63 393.6z" /></clipPath><clipPath id="120"><path d="M183.62 421.19L246.26 421.19L246.26 421.19L246.26 393.59L246.26 393.59L183.62 393.59z" /></clipPath><clipPath id="121"><path d="M183.62 421.19L246.26 421.19L246.26 421.19L246.26 393.59L246.26 393.59L183.62 393.59z" /></clipPath><clipPath id="122"><path d="M246.75 421.2L309.645 421.2L309.645 421.2L309.645 393.6L309.645 393.6L246.75 393.6z" /></clipPath><clipPath id="123"><path d="M246.74 421.19L309.644 421.19L309.644 421.19L309.644 393.59L309.644 393.59L246.74 393.59z" /></clipPath><clipPath id="124"><path d="M246.74 421.19L309.644 421.19L309.644 421.19L309.644 393.59L309.644 393.59L246.74 393.59z" /></clipPath><clipPath id="125"><path d="M310.13 421.2L535.16 421.2L535.16 421.2L535.16 393.6L535.16 393.6L310.13 393.6z" /></clipPath><clipPath id="126"><path d="M310.13 421.19L535.15 421.19L535.15 421.19L535.15 393.59L535.15 393.59L310.13 393.59z" /></clipPath><clipPath id="127"><path d="M310.13 421.19L535.15 421.19L535.15 421.19L535.15 393.59L535.15 393.59L310.13 393.59z" /></clipPath><clipPath id="128"><path d="M535.64 421.2L749.98 421.2L749.98 421.2L749.98 393.6L749.98 393.6L535.64 393.6z" /></clipPath><clipPath id="129"><path d="M535.63 421.19L749.97 421.19L749.97 421.19L749.97 393.59L749.97 393.59L535.63 393.59z" /></clipPath><clipPath id="130"><path d="M535.63 421.19L749.97 421.19L749.97 421.19L749.97 393.59L749.97 393.59L535.63 393.59z" /></clipPath><clipPath id="131"><path d="M84.721 458.4L183.151 458.4L183.151 458.4L183.151 421.68L183.151 421.68L84.721 421.68z" /></clipPath><clipPath id="132"><path d="M84.72 458.39L183.144 458.39L183.144 458.39L183.144 421.67L183.144 421.67L84.72 421.67z" /></clipPath><clipPath id="133"><path d="M84.72 458.39L183.144 458.39L183.144 458.39L183.144 421.67L183.144 421.67L84.72 421.67z" /></clipPath><clipPath id="134"><path d="M183.63 458.4L246.27 458.4L246.27 458.4L246.27 421.68L246.27 421.68L183.63 421.68z" /></clipPath><clipPath id="135"><path d="M183.62 458.39L246.26 458.39L246.26 458.39L246.26 421.67L246.26 421.67L183.62 421.67z" /></clipPath><clipPath id="136"><path d="M183.62 458.39L246.26 458.39L246.26 458.39L246.26 421.67L246.26 421.67L183.62 421.67z" /></clipPath><clipPath id="137"><path d="M246.75 458.4L309.645 458.4L309.645 458.4L309.645 421.68L309.645 421.68L246.75 421.68z" /></clipPath><clipPath id="138"><path d="M246.74 458.39L309.644 458.39L309.644 458.39L309.644 421.67L309.644 421.67L246.74 421.67z" /></clipPath><clipPath id="139"><path d="M246.74 458.39L309.644 458.39L309.644 458.39L309.644 421.67L309.644 421.67L246.74 421.67z" /></clipPath><clipPath id="140"><path d="M310.13 458.4L535.16 458.4L535.16 458.4L535.16 421.68L535.16 421.68L310.13 421.68z" /></clipPath><clipPath id="141"><path d="M310.13 458.39L535.15 458.39L535.15 458.39L535.15 421.67L535.15 421.67L310.13 421.67z" /></clipPath><clipPath id="142"><path d="M310.13 458.39L535.15 458.39L535.15 458.39L535.15 421.67L535.15 421.67L310.13 421.67z" /></clipPath><clipPath id="143"><path d="M535.64 458.4L749.98 458.4L749.98 458.4L749.98 421.68L749.98 421.68L535.64 421.68z" /></clipPath><clipPath id="144"><path d="M535.63 458.39L749.97 458.39L749.97 458.39L749.97 421.67L749.97 421.67L535.63 421.67z" /></clipPath><clipPath id="145"><path d="M535.63 458.39L749.97 458.39L749.97 458.39L749.97 421.67L749.97 421.67L535.63 421.67z" /></clipPath><clipPath id="146"><path d="M84.721 496.331L183.151 496.331L183.151 496.331L183.151 458.876L183.151 458.876L84.721 458.876z" /></clipPath><clipPath id="147"><path d="M84.72 496.336L183.144 496.336L183.144 496.336L183.144 458.872L183.144 458.872L84.72 458.872z" /></clipPath><clipPath id="148"><path d="M84.72 496.336L183.144 496.336L183.144 496.336L183.144 458.872L183.144 458.872L84.72 458.872z" /></clipPath><clipPath id="149"><path d="M183.63 496.331L246.27 496.331L246.27 496.331L246.27 458.876L246.27 458.876L183.63 458.876z" /></clipPath><clipPath id="150"><path d="M183.62 496.336L246.26 496.336L246.26 496.336L246.26 458.872L246.26 458.872L183.62 458.872z" /></clipPath><clipPath id="151"><path d="M183.62 496.336L246.26 496.336L246.26 496.336L246.26 458.872L246.26 458.872L183.62 458.872z" /></clipPath><clipPath id="152"><path d="M246.75 496.331L309.645 496.331L309.645 496.331L309.645 458.876L309.645 458.876L246.75 458.876z" /></clipPath><clipPath id="153"><path d="M246.74 496.336L309.644 496.336L309.644 496.336L309.644 458.872L309.644 458.872L246.74 458.872z" /></clipPath><clipPath id="154"><path d="M246.74 496.336L309.644 496.336L309.644 496.336L309.644 458.872L309.644 458.872L246.74 458.872z" /></clipPath><clipPath id="155"><path d="M310.13 496.331L535.16 496.331L535.16 496.331L535.16 458.876L535.16 458.876L310.13 458.876z" /></clipPath><clipPath id="156"><path d="M310.13 496.336L535.15 496.336L535.15 496.336L535.15 458.872L535.15 458.872L310.13 458.872z" /></clipPath><clipPath id="157"><path d="M310.13 496.336L535.15 496.336L535.15 496.336L535.15 458.872L535.15 458.872L310.13 458.872z" /></clipPath><clipPath id="158"><path d="M535.64 496.331L749.98 496.331L749.98 496.331L749.98 458.876L749.98 458.876L535.64 458.876z" /></clipPath><clipPath id="159"><path d="M535.63 496.336L749.97 496.336L749.97 496.336L749.97 458.872L749.97 458.872L535.63 458.872z" /></clipPath><clipPath id="160"><path d="M535.63 496.336L749.97 496.336L749.97 496.336L749.97 458.872L749.97 458.872L535.63 458.872z" /></clipPath></defs><g transform="matrix(1.333333 0 0 1.333333 0 0)"><g><g clip-path="url(#1)"><path transform="matrix(1 0 0 -1 0 595)" d="M704.14 53.304L752.14 53.304L752.14 53.304L752.14 53.90398L752.14 53.90398L704.14 53.90398z" stroke="none" fill="#000000" fill-rule="evenodd" /><g clip-path="url(#2)"><path transform="matrix(1 0 0 -1 0 595)" d="M88.44 77.904L753.58 77.904L753.58 77.904L753.58 80.904L753.58 80.904L88.44 80.904z" stroke="none" fill="#000000" fill-rule="evenodd" /><path transform="matrix(1 0 0 -1 0 595)" d="M88.44 76.464L753.58 76.464L753.58 76.464L753.58 77.18403L753.58 77.18403L88.44 77.18403z" stroke="none" fill="#000000" fill-rule="evenodd" /></g><g clip-path="url(#3)"><g clip-path="url(#4)"></g><g clip-path="url(#5)"></g></g><path transform="matrix(1 0 0 -1 0 595)" d="M84.72 467.62L192.02 467.62L192.02 467.62L192.02 504.94L192.02 504.94L84.72 504.94z" stroke="none" fill="#0070C0" fill-rule="evenodd" /><g clip-path="url(#6)"><path transform="matrix(1 0 0 -1 0 595)" d="M89.88 477.34L186.864 477.34L186.864 477.34L186.864 504.94L186.864 504.94L89.88 504.94z" stroke="none" fill="#0070C0" fill-rule="evenodd" /><g clip-path="url(#7)"></g><g clip-path="url(#8)"></g></g><path transform="matrix(1 0 0 -1 0 595)" d="M192.5 467.62L267.74 467.62L267.74 467.62L267.74 504.94L267.74 504.94L192.5 504.94z" stroke="none" fill="#0070C0" fill-rule="evenodd" /><g clip-path="url(#9)"><path transform="matrix(1 0 0 -1 0 595)" d="M197.66 477.34L262.58 477.34L262.58 477.34L262.58 504.94L262.58 504.94L197.66 504.94z" stroke="none" fill="#0070C0" fill-rule="evenodd" /><g clip-path="url(#10)"></g><g clip-path="url(#11)"></g></g><path transform="matrix(1 0 0 -1 0 595)" d="M268.22 467.62L324.404 467.62L324.404 467.62L324.404 504.94L324.404 504.94L268.22 504.94z" stroke="none" fill="#0070C0" fill-rule="evenodd" /><g clip-path="url(#12)"><path transform="matrix(1 0 0 -1 0 595)" d="M273.38 477.34L319.244 477.34L319.244 477.34L319.244 504.94L319.244 504.94L273.38 504.94z" stroke="none" fill="#0070C0" fill-rule="evenodd" /><g clip-path="url(#13)"></g><g clip-path="url(#14)"></g></g><path transform="matrix(1 0 0 -1 0 595)" d="M325.01 467.62L471.29 467.62L471.29 467.62L471.29 504.94L471.29 504.94L325.01 504.94z" stroke="none" fill="#0070C0" fill-rule="evenodd" /><g clip-path="url(#15)"><path transform="matrix(1 0 0 -1 0 595)" d="M330.05 477.34L466.13 477.34L466.13 477.34L466.13 504.94L466.13 504.94L330.05 504.94z" stroke="none" fill="#0070C0" fill-rule="evenodd" /><g clip-path="url(#16)"></g><g clip-path="url(#17)"></g></g><path transform="matrix(1 0 0 -1 0 595)" d="M471.79 467.62L725.85 467.62L725.85 467.62L725.85 504.94L725.85 504.94L471.79 504.94z" stroke="none" fill="#0070C0" fill-rule="evenodd" /><g clip-path="url(#18)"><path transform="matrix(1 0 0 -1 0 595)" d="M476.95 477.34L720.69 477.34L720.69 477.34L720.69 504.94L720.69 504.94L476.95 504.94z" stroke="none" fill="#0070C0" fill-rule="evenodd" /><g clip-path="url(#19)"></g><g clip-path="url(#20)"></g></g><path transform="matrix(1 0 0 -1 0 595)" d="M84.24 504.94L84.72 504.94L84.72 504.94L84.72 505.42L84.72 505.42L84.24 505.42z" stroke="none" fill="#000000" fill-rule="evenodd" /><path transform="matrix(1 0 0 -1 0 595)" d="M84.24 504.94L84.72 504.94L84.72 504.94L84.72 505.42L84.72 505.42L84.24 505.42z" stroke="none" fill="#000000" fill-rule="evenodd" /><path transform="matrix(1 0 0 -1 0 595)" d="M84.72 504.94L192.02 504.94L192.02 504.94L192.02 505.42L192.02 505.42L84.72 505.42z" stroke="none" fill="#000000" fill-rule="evenodd" /><path transform="matrix(1 0 0 -1 0 595)" d="M192.02 504.94L192.5 504.94L192.5 504.94L192.5 505.42L192.5 505.42L192.02 505.42z" stroke="none" fill="#000000" fill-rule="evenodd" /><path transform="matrix(1 0 0 -1 0 595)" d="M192.5 504.94L267.74 504.94L267.74 504.94L267.74 505.42L267.74 505.42L192.5 505.42z" stroke="none" fill="#000000" fill-rule="evenodd" /><path transform="matrix(1 0 0 -1 0 595)" d="M267.74 504.94L268.22 504.94L268.22 504.94L268.22 505.42L268.22 505.42L267.74 505.42z" stroke="none" fill="#000000" fill-rule="evenodd" /><path transform="matrix(1 0 0 -1 0 595)" d="M268.22 504.94L324.524 504.94L324.524 504.94L324.524 505.42L324.524 505.42L268.22 505.42z" stroke="none" fill="#000000" fill-rule="evenodd" /><path transform="matrix(1 0 0 -1 0 595)" d="M324.53 504.94L325.01 504.94L325.01 504.94L325.01 505.42L325.01 505.42L324.53 505.42z" stroke="none" fill="#000000" fill-rule="evenodd" /><path transform="matrix(1 0 0 -1 0 595)" d="M325.01 504.94L471.29 504.94L471.29 504.94L471.29 505.42L471.29 505.42L325.01 505.42z" stroke="none" fill="#000000" fill-rule="evenodd" /><path transform="matrix(1 0 0 -1 0 595)" d="M471.29 504.94L471.794 504.94L471.794 504.94L471.794 505.42L471.794 505.42L471.29 505.42z" stroke="none" fill="#000000" fill-rule="evenodd" /><path transform="matrix(1 0 0 -1 0 595)" d="M471.79 504.94L725.85 504.94L725.85 504.94L725.85 505.42L725.85 505.42L471.79 505.42z" stroke="none" fill="#000000" fill-rule="evenodd" /><path transform="matrix(1 0 0 -1 0 595)" d="M725.86 504.94L726.34 504.94L726.34 504.94L726.34 505.42L726.34 505.42L725.86 505.42z" stroke="none" fill="#000000" fill-rule="evenodd" /><path transform="matrix(1 0 0 -1 0 595)" d="M725.86 504.94L726.34 504.94L726.34 504.94L726.34 505.42L726.34 505.42L725.86 505.42z" stroke="none" fill="#000000" fill-rule="evenodd" /><path transform="matrix(1 0 0 -1 0 595)" d="M84.24 467.62L84.72 467.62L84.72 467.62L84.72 504.94L84.72 504.94L84.24 504.94z" stroke="none" fill="#000000" fill-rule="evenodd" /><path transform="matrix(1 0 0 -1 0 595)" d="M192.02 467.62L192.5 467.62L192.5 467.62L192.5 504.94L192.5 504.94L192.02 504.94z" stroke="none" fill="#000000" fill-rule="evenodd" /><path transform="matrix(1 0 0 -1 0 595)" d="M267.74 467.62L268.22 467.62L268.22 467.62L268.22 504.94L268.22 504.94L267.74 504.94z" stroke="none" fill="#000000" fill-rule="evenodd" /><path transform="matrix(1 0 0 -1 0 595)" d="M324.53 467.62L325.01 467.62L325.01 467.62L325.01 504.94L325.01 504.94L324.53 504.94z" stroke="none" fill="#000000" fill-rule="evenodd" /><path transform="matrix(1 0 0 -1 0 595)" d="M471.29 467.62L471.794 467.62L471.794 467.62L471.794 504.94L471.794 504.94L471.29 504.94z" stroke="none" fill="#000000" fill-rule="evenodd" /><path transform="matrix(1 0 0 -1 0 595)" d="M725.86 467.62L726.34 467.62L726.34 467.62L726.34 504.94L726.34 504.94L725.86 504.94z" stroke="none" fill="#000000" fill-rule="evenodd" /><g clip-path="url(#21)"><g clip-path="url(#22)"></g><g clip-path="url(#23)"></g></g><g clip-path="url(#24)"><g clip-path="url(#25)"></g><g clip-path="url(#26)"></g></g><g clip-path="url(#27)"><g clip-path="url(#28)"></g><g clip-path="url(#29)"></g></g><g clip-path="url(#30)"><g clip-path="url(#31)"></g><g clip-path="url(#32)"></g></g><g clip-path="url(#33)"><g clip-path="url(#34)"></g><g clip-path="url(#35)"></g></g><path transform="matrix(1 0 0 -1 0 595)" d="M84.24 467.14L84.72 467.14L84.72 467.14L84.72 467.62L84.72 467.62L84.24 467.62z" stroke="none" fill="#000000" fill-rule="evenodd" /><path transform="matrix(1 0 0 -1 0 595)" d="M84.72 467.14L192.02 467.14L192.02 467.14L192.02 467.62L192.02 467.62L84.72 467.62z" stroke="none" fill="#000000" fill-rule="evenodd" /><path transform="matrix(1 0 0 -1 0 595)" d="M192.02 467.14L192.5 467.14L192.5 467.14L192.5 467.62L192.5 467.62L192.02 467.62z" stroke="none" fill="#000000" fill-rule="evenodd" /><path transform="matrix(1 0 0 -1 0 595)" d="M192.5 467.14L267.74 467.14L267.74 467.14L267.74 467.62L267.74 467.62L192.5 467.62z" stroke="none" fill="#000000" fill-rule="evenodd" /><path transform="matrix(1 0 0 -1 0 595)" d="M267.74 467.14L268.22 467.14L268.22 467.14L268.22 467.62L268.22 467.62L267.74 467.62z" stroke="none" fill="#000000" fill-rule="evenodd" /><path transform="matrix(1 0 0 -1 0 595)" d="M268.22 467.14L324.524 467.14L324.524 467.14L324.524 467.62L324.524 467.62L268.22 467.62z" stroke="none" fill="#000000" fill-rule="evenodd" /><path transform="matrix(1 0 0 -1 0 595)" d="M324.53 467.14L325.01 467.14L325.01 467.14L325.01 467.62L325.01 467.62L324.53 467.62z" stroke="none" fill="#000000" fill-rule="evenodd" /><path transform="matrix(1 0 0 -1 0 595)" d="M325.01 467.14L471.29 467.14L471.29 467.14L471.29 467.62L471.29 467.62L325.01 467.62z" stroke="none" fill="#000000" fill-rule="evenodd" /><path transform="matrix(1 0 0 -1 0 595)" d="M471.29 467.14L471.794 467.14L471.794 467.14L471.794 467.62L471.794 467.62L471.29 467.62z" stroke="none" fill="#000000" fill-rule="evenodd" /><path transform="matrix(1 0 0 -1 0 595)" d="M471.79 467.14L725.85 467.14L725.85 467.14L725.85 467.62L725.85 467.62L471.79 467.62z" stroke="none" fill="#000000" fill-rule="evenodd" /><path transform="matrix(1 0 0 -1 0 595)" d="M725.86 467.14L726.34 467.14L726.34 467.14L726.34 467.62L726.34 467.62L725.86 467.62z" stroke="none" fill="#000000" fill-rule="evenodd" /><path transform="matrix(1 0 0 -1 0 595)" d="M84.24 439.42L84.72 439.42L84.72 439.42L84.72 467.14L84.72 467.14L84.24 467.14z" stroke="none" fill="#000000" fill-rule="evenodd" /><path transform="matrix(1 0 0 -1 0 595)" d="M192.02 439.42L192.5 439.42L192.5 439.42L192.5 467.14L192.5 467.14L192.02 467.14z" stroke="none" fill="#000000" fill-rule="evenodd" /><path transform="matrix(1 0 0 -1 0 595)" d="M267.74 439.42L268.22 439.42L268.22 439.42L268.22 467.14L268.22 467.14L267.74 467.14z" stroke="none" fill="#000000" fill-rule="evenodd" /><path transform="matrix(1 0 0 -1 0 595)" d="M324.53 439.42L325.01 439.42L325.01 439.42L325.01 467.14L325.01 467.14L324.53 467.14z" stroke="none" fill="#000000" fill-rule="evenodd" /><path transform="matrix(1 0 0 -1 0 595)" d="M471.29 439.42L471.794 439.42L471.794 439.42L471.794 467.14L471.794 467.14L471.29 467.14z" stroke="none" fill="#000000" fill-rule="evenodd" /><path transform="matrix(1 0 0 -1 0 595)" d="M725.86 439.42L726.34 439.42L726.34 439.42L726.34 467.14L726.34 467.14L725.86 467.14z" stroke="none" fill="#000000" fill-rule="evenodd" /><path transform="matrix(1 0 0 -1 0 595)" d="M84.72 411.34L192.02 411.34L192.02 411.34L192.02 438.94L192.02 438.94L84.72 438.94z" stroke="none" fill="#DAEEF3" fill-rule="evenodd" /><g clip-path="url(#36)"><path transform="matrix(1 0 0 -1 0 595)" d="M89.88 412.3L186.864 412.3L186.864 412.3L186.864 438.94L186.864 438.94L89.88 438.94z" stroke="none" fill="#DAEEF3" fill-rule="evenodd" /><g clip-path="url(#37)"></g><g clip-path="url(#38)"></g></g><path transform="matrix(1 0 0 -1 0 595)" d="M192.5 411.34L267.74 411.34L267.74 411.34L267.74 438.94L267.74 438.94L192.5 438.94z" stroke="none" fill="#DAEEF3" fill-rule="evenodd" /><g clip-path="url(#39)"><path transform="matrix(1 0 0 -1 0 595)" d="M197.66 412.3L262.58 412.3L262.58 412.3L262.58 438.94L262.58 438.94L197.66 438.94z" stroke="none" fill="#DAEEF3" fill-rule="evenodd" /><g clip-path="url(#40)"></g><g clip-path="url(#41)"></g></g><path transform="matrix(1 0 0 -1 0 595)" d="M268.22 411.34L324.404 411.34L324.404 411.34L324.404 438.94L324.404 438.94L268.22 438.94z" stroke="none" fill="#DAEEF3" fill-rule="evenodd" /><g clip-path="url(#42)"><path transform="matrix(1 0 0 -1 0 595)" d="M273.38 411.34L319.244 411.34L319.244 411.34L319.244 438.94L319.244 438.94L273.38 438.94z" stroke="none" fill="#DAEEF3" fill-rule="evenodd" /><g clip-path="url(#43)"></g><g clip-path="url(#44)"></g></g><path transform="matrix(1 0 0 -1 0 595)" d="M325.01 411.34L471.29 411.34L471.29 411.34L471.29 438.94L471.29 438.94L325.01 438.94z" stroke="none" fill="#DAEEF3" fill-rule="evenodd" /><g clip-path="url(#45)"><path transform="matrix(1 0 0 -1 0 595)" d="M330.05 412.3L466.13 412.3L466.13 412.3L466.13 438.94L466.13 438.94L330.05 438.94z" stroke="none" fill="#DAEEF3" fill-rule="evenodd" /><g clip-path="url(#46)"></g><g clip-path="url(#47)"></g></g><path transform="matrix(1 0 0 -1 0 595)" d="M471.79 411.34L725.85 411.34L725.85 411.34L725.85 438.94L725.85 438.94L471.79 438.94z" stroke="none" fill="#DAEEF3" fill-rule="evenodd" /><g clip-path="url(#48)"><path transform="matrix(1 0 0 -1 0 595)" d="M476.95 411.34L720.69 411.34L720.69 411.34L720.69 438.94L720.69 438.94L476.95 438.94z" stroke="none" fill="#DAEEF3" fill-rule="evenodd" /><g clip-path="url(#49)"></g><g clip-path="url(#50)"></g></g><path transform="matrix(1 0 0 -1 0 595)" d="M84.24 438.94L84.72 438.94L84.72 438.94L84.72 439.42L84.72 439.42L84.24 439.42z" stroke="none" fill="#000000" fill-rule="evenodd" /><path transform="matrix(1 0 0 -1 0 595)" d="M84.72 438.94L192.02 438.94L192.02 438.94L192.02 439.42L192.02 439.42L84.72 439.42z" stroke="none" fill="#000000" fill-rule="evenodd" /><path transform="matrix(1 0 0 -1 0 595)" d="M192.02 438.94L192.5 438.94L192.5 438.94L192.5 439.42L192.5 439.42L192.02 439.42z" stroke="none" fill="#000000" fill-rule="evenodd" /><path transform="matrix(1 0 0 -1 0 595)" d="M192.5 438.94L267.74 438.94L267.74 438.94L267.74 439.42L267.74 439.42L192.5 439.42z" stroke="none" fill="#000000" fill-rule="evenodd" /><path transform="matrix(1 0 0 -1 0 595)" d="M267.74 438.94L268.22 438.94L268.22 438.94L268.22 439.42L268.22 439.42L267.74 439.42z" stroke="none" fill="#000000" fill-rule="evenodd" /><path transform="matrix(1 0 0 -1 0 595)" d="M268.22 438.94L324.524 438.94L324.524 438.94L324.524 439.42L324.524 439.42L268.22 439.42z" stroke="none" fill="#000000" fill-rule="evenodd" /><path transform="matrix(1 0 0 -1 0 595)" d="M324.53 438.94L325.01 438.94L325.01 438.94L325.01 439.42L325.01 439.42L324.53 439.42z" stroke="none" fill="#000000" fill-rule="evenodd" /><path transform="matrix(1 0 0 -1 0 595)" d="M325.01 438.94L471.29 438.94L471.29 438.94L471.29 439.42L471.29 439.42L325.01 439.42z" stroke="none" fill="#000000" fill-rule="evenodd" /><path transform="matrix(1 0 0 -1 0 595)" d="M471.29 438.94L471.794 438.94L471.794 438.94L471.794 439.42L471.794 439.42L471.29 439.42z" stroke="none" fill="#000000" fill-rule="evenodd" /><path transform="matrix(1 0 0 -1 0 595)" d="M471.79 438.94L725.85 438.94L725.85 438.94L725.85 439.42L725.85 439.42L471.79 439.42z" stroke="none" fill="#000000" fill-rule="evenodd" /><path transform="matrix(1 0 0 -1 0 595)" d="M725.86 438.94L726.34 438.94L726.34 438.94L726.34 439.42L726.34 439.42L725.86 439.42z" stroke="none" fill="#000000" fill-rule="evenodd" /><path transform="matrix(1 0 0 -1 0 595)" d="M84.24 411.34L84.72 411.34L84.72 411.34L84.72 438.94L84.72 438.94L84.24 438.94z" stroke="none" fill="#000000" fill-rule="evenodd" /><path transform="matrix(1 0 0 -1 0 595)" d="M192.02 411.34L192.5 411.34L192.5 411.34L192.5 438.94L192.5 438.94L192.02 438.94z" stroke="none" fill="#000000" fill-rule="evenodd" /><path transform="matrix(1 0 0 -1 0 595)" d="M267.74 411.34L268.22 411.34L268.22 411.34L268.22 438.94L268.22 438.94L267.74 438.94z" stroke="none" fill="#000000" fill-rule="evenodd" /><path transform="matrix(1 0 0 -1 0 595)" d="M324.53 411.34L325.01 411.34L325.01 411.34L325.01 438.94L325.01 438.94L324.53 438.94z" stroke="none" fill="#000000" fill-rule="evenodd" /><path transform="matrix(1 0 0 -1 0 595)" d="M471.29 411.34L471.794 411.34L471.794 411.34L471.794 438.94L471.794 438.94L471.29 438.94z" stroke="none" fill="#000000" fill-rule="evenodd" /><path transform="matrix(1 0 0 -1 0 595)" d="M725.86 411.34L726.34 411.34L726.34 411.34L726.34 438.94L726.34 438.94L725.86 438.94z" stroke="none" fill="#000000" fill-rule="evenodd" /><g clip-path="url(#51)"><g clip-path="url(#52)"></g><g clip-path="url(#53)"></g></g><g clip-path="url(#54)"><g clip-path="url(#55)"></g><g clip-path="url(#56)"></g></g><g clip-path="url(#57)"><g clip-path="url(#58)"></g><g clip-path="url(#59)"></g></g><g clip-path="url(#60)"><g clip-path="url(#61)"></g><g clip-path="url(#62)"></g></g><g clip-path="url(#63)"><g clip-path="url(#64)"></g><g clip-path="url(#65)"></g></g><path transform="matrix(1 0 0 -1 0 595)" d="M84.24 410.86L84.72 410.86L84.72 410.86L84.72 411.34L84.72 411.34L84.24 411.34z" stroke="none" fill="#000000" fill-rule="evenodd" /><path transform="matrix(1 0 0 -1 0 595)" d="M84.72 410.86L192.02 410.86L192.02 410.86L192.02 411.34L192.02 411.34L84.72 411.34z" stroke="none" fill="#000000" fill-rule="evenodd" /><path transform="matrix(1 0 0 -1 0 595)" d="M192.02 410.86L192.5 410.86L192.5 410.86L192.5 411.34L192.5 411.34L192.02 411.34z" stroke="none" fill="#000000" fill-rule="evenodd" /><path transform="matrix(1 0 0 -1 0 595)" d="M192.5 410.86L267.74 410.86L267.74 410.86L267.74 411.34L267.74 411.34L192.5 411.34z" stroke="none" fill="#000000" fill-rule="evenodd" /><path transform="matrix(1 0 0 -1 0 595)" d="M267.74 410.86L268.22 410.86L268.22 410.86L268.22 411.34L268.22 411.34L267.74 411.34z" stroke="none" fill="#000000" fill-rule="evenodd" /><path transform="matrix(1 0 0 -1 0 595)" d="M268.22 410.86L324.524 410.86L324.524 410.86L324.524 411.34L324.524 411.34L268.22 411.34z" stroke="none" fill="#000000" fill-rule="evenodd" /><path transform="matrix(1 0 0 -1 0 595)" d="M324.53 410.86L325.01 410.86L325.01 410.86L325.01 411.34L325.01 411.34L324.53 411.34z" stroke="none" fill="#000000" fill-rule="evenodd" /><path transform="matrix(1 0 0 -1 0 595)" d="M325.01 410.86L471.29 410.86L471.29 410.86L471.29 411.34L471.29 411.34L325.01 411.34z" stroke="none" fill="#000000" fill-rule="evenodd" /><path transform="matrix(1 0 0 -1 0 595)" d="M471.29 410.86L471.794 410.86L471.794 410.86L471.794 411.34L471.794 411.34L471.29 411.34z" stroke="none" fill="#000000" fill-rule="evenodd" /><path transform="matrix(1 0 0 -1 0 595)" d="M471.79 410.86L725.85 410.86L725.85 410.86L725.85 411.34L725.85 411.34L471.79 411.34z" stroke="none" fill="#000000" fill-rule="evenodd" /><path transform="matrix(1 0 0 -1 0 595)" d="M725.86 410.86L726.34 410.86L726.34 410.86L726.34 411.34L726.34 411.34L725.86 411.34z" stroke="none" fill="#000000" fill-rule="evenodd" /><path transform="matrix(1 0 0 -1 0 595)" d="M84.24 383.11L84.72 383.11L84.72 383.11L84.72 410.854L84.72 410.854L84.24 410.854z" stroke="none" fill="#000000" fill-rule="evenodd" /><path transform="matrix(1 0 0 -1 0 595)" d="M192.02 383.11L192.5 383.11L192.5 383.11L192.5 410.854L192.5 410.854L192.02 410.854z" stroke="none" fill="#000000" fill-rule="evenodd" /><path transform="matrix(1 0 0 -1 0 595)" d="M267.74 383.11L268.22 383.11L268.22 383.11L268.22 410.854L268.22 410.854L267.74 410.854z" stroke="none" fill="#000000" fill-rule="evenodd" /><path transform="matrix(1 0 0 -1 0 595)" d="M324.53 383.11L325.01 383.11L325.01 383.11L325.01 410.854L325.01 410.854L324.53 410.854z" stroke="none" fill="#000000" fill-rule="evenodd" /><path transform="matrix(1 0 0 -1 0 595)" d="M471.29 383.11L471.794 383.11L471.794 383.11L471.794 410.854L471.794 410.854L471.29 410.854z" stroke="none" fill="#000000" fill-rule="evenodd" /><path transform="matrix(1 0 0 -1 0 595)" d="M725.86 383.11L726.34 383.11L726.34 383.11L726.34 410.854L726.34 410.854L725.86 410.854z" stroke="none" fill="#000000" fill-rule="evenodd" /><path transform="matrix(1 0 0 -1 0 595)" d="M84.72 354.91L192.02 354.91L192.02 354.91L192.02 382.63L192.02 382.63L84.72 382.63z" stroke="none" fill="#DAEEF3" fill-rule="evenodd" /><g clip-path="url(#66)"><path transform="matrix(1 0 0 -1 0 595)" d="M89.88 355.99L186.864 355.99L186.864 355.99L186.864 382.63L186.864 382.63L89.88 382.63z" stroke="none" fill="#DAEEF3" fill-rule="evenodd" /><g clip-path="url(#67)"></g><g clip-path="url(#68)"></g></g><path transform="matrix(1 0 0 -1 0 595)" d="M192.5 354.91L267.74 354.91L267.74 354.91L267.74 382.63L267.74 382.63L192.5 382.63z" stroke="none" fill="#DAEEF3" fill-rule="evenodd" /><g clip-path="url(#69)"><path transform="matrix(1 0 0 -1 0 595)" d="M197.66 355.99L262.58 355.99L262.58 355.99L262.58 382.63L262.58 382.63L197.66 382.63z" stroke="none" fill="#DAEEF3" fill-rule="evenodd" /><g clip-path="url(#70)"></g><g clip-path="url(#71)"></g></g><path transform="matrix(1 0 0 -1 0 595)" d="M268.22 354.91L324.404 354.91L324.404 354.91L324.404 382.63L324.404 382.63L268.22 382.63z" stroke="none" fill="#DAEEF3" fill-rule="evenodd" /><g clip-path="url(#72)"><path transform="matrix(1 0 0 -1 0 595)" d="M273.38 354.91L319.244 354.91L319.244 354.91L319.244 382.63L319.244 382.63L273.38 382.63z" stroke="none" fill="#DAEEF3" fill-rule="evenodd" /><g clip-path="url(#73)"></g><g clip-path="url(#74)"></g></g><path transform="matrix(1 0 0 -1 0 595)" d="M325.01 354.91L471.29 354.91L471.29 354.91L471.29 382.63L471.29 382.63L325.01 382.63z" stroke="none" fill="#DAEEF3" fill-rule="evenodd" /><g clip-path="url(#75)"><path transform="matrix(1 0 0 -1 0 595)" d="M330.05 355.99L466.13 355.99L466.13 355.99L466.13 382.63L466.13 382.63L330.05 382.63z" stroke="none" fill="#DAEEF3" fill-rule="evenodd" /><g clip-path="url(#76)"></g><g clip-path="url(#77)"></g></g><path transform="matrix(1 0 0 -1 0 595)" d="M471.79 354.91L725.85 354.91L725.85 354.91L725.85 382.63L725.85 382.63L471.79 382.63z" stroke="none" fill="#DAEEF3" fill-rule="evenodd" /><g clip-path="url(#78)"><path transform="matrix(1 0 0 -1 0 595)" d="M476.95 354.91L720.69 354.91L720.69 354.91L720.69 382.63L720.69 382.63L476.95 382.63z" stroke="none" fill="#DAEEF3" fill-rule="evenodd" /><g clip-path="url(#79)"></g><g clip-path="url(#80)"></g><path transform="matrix(1 0 0 -1 0 595)" d="M482.95 361.39L538.99 361.39L538.99 361.39L538.99 362.11L538.99 362.11L482.95 362.11z" stroke="none" fill="#0000FF" fill-rule="evenodd" /></g><path transform="matrix(1 0 0 -1 0 595)" d="M84.24 382.63L84.72 382.63L84.72 382.63L84.72 383.11L84.72 383.11L84.24 383.11z" stroke="none" fill="#000000" fill-rule="evenodd" /><path transform="matrix(1 0 0 -1 0 595)" d="M84.72 382.63L192.02 382.63L192.02 382.63L192.02 383.11L192.02 383.11L84.72 383.11z" stroke="none" fill="#000000" fill-rule="evenodd" /><path transform="matrix(1 0 0 -1 0 595)" d="M192.02 382.63L192.5 382.63L192.5 382.63L192.5 383.11L192.5 383.11L192.02 383.11z" stroke="none" fill="#000000" fill-rule="evenodd" /><path transform="matrix(1 0 0 -1 0 595)" d="M192.5 382.63L267.74 382.63L267.74 382.63L267.74 383.11L267.74 383.11L192.5 383.11z" stroke="none" fill="#000000" fill-rule="evenodd" /><path transform="matrix(1 0 0 -1 0 595)" d="M267.74 382.63L268.22 382.63L268.22 382.63L268.22 383.11L268.22 383.11L267.74 383.11z" stroke="none" fill="#000000" fill-rule="evenodd" /><path transform="matrix(1 0 0 -1 0 595)" d="M268.22 382.63L324.524 382.63L324.524 382.63L324.524 383.11L324.524 383.11L268.22 383.11z" stroke="none" fill="#000000" fill-rule="evenodd" /><path transform="matrix(1 0 0 -1 0 595)" d="M324.53 382.63L325.01 382.63L325.01 382.63L325.01 383.11L325.01 383.11L324.53 383.11z" stroke="none" fill="#000000" fill-rule="evenodd" /><path transform="matrix(1 0 0 -1 0 595)" d="M325.01 382.63L471.29 382.63L471.29 382.63L471.29 383.11L471.29 383.11L325.01 383.11z" stroke="none" fill="#000000" fill-rule="evenodd" /><path transform="matrix(1 0 0 -1 0 595)" d="M471.29 382.63L471.794 382.63L471.794 382.63L471.794 383.11L471.794 383.11L471.29 383.11z" stroke="none" fill="#000000" fill-rule="evenodd" /><path transform="matrix(1 0 0 -1 0 595)" d="M471.79 382.63L725.85 382.63L725.85 382.63L725.85 383.11L725.85 383.11L471.79 383.11z" stroke="none" fill="#000000" fill-rule="evenodd" /><path transform="matrix(1 0 0 -1 0 595)" d="M725.86 382.63L726.34 382.63L726.34 382.63L726.34 383.11L726.34 383.11L725.86 383.11z" stroke="none" fill="#000000" fill-rule="evenodd" /><path transform="matrix(1 0 0 -1 0 595)" d="M84.24 354.91L84.72 354.91L84.72 354.91L84.72 382.63L84.72 382.63L84.24 382.63z" stroke="none" fill="#000000" fill-rule="evenodd" /><path transform="matrix(1 0 0 -1 0 595)" d="M192.02 354.91L192.5 354.91L192.5 354.91L192.5 382.63L192.5 382.63L192.02 382.63z" stroke="none" fill="#000000" fill-rule="evenodd" /><path transform="matrix(1 0 0 -1 0 595)" d="M267.74 354.91L268.22 354.91L268.22 354.91L268.22 382.63L268.22 382.63L267.74 382.63z" stroke="none" fill="#000000" fill-rule="evenodd" /><path transform="matrix(1 0 0 -1 0 595)" d="M324.53 354.91L325.01 354.91L325.01 354.91L325.01 382.63L325.01 382.63L324.53 382.63z" stroke="none" fill="#000000" fill-rule="evenodd" /><path transform="matrix(1 0 0 -1 0 595)" d="M471.29 354.91L471.794 354.91L471.794 354.91L471.794 382.63L471.794 382.63L471.29 382.63z" stroke="none" fill="#000000" fill-rule="evenodd" /><path transform="matrix(1 0 0 -1 0 595)" d="M725.86 354.91L726.34 354.91L726.34 354.91L726.34 382.63L726.34 382.63L725.86 382.63z" stroke="none" fill="#000000" fill-rule="evenodd" /><g clip-path="url(#81)"><g clip-path="url(#82)"></g><g clip-path="url(#83)"></g></g><g clip-path="url(#84)"><g clip-path="url(#85)"></g><g clip-path="url(#86)"></g></g><g clip-path="url(#87)"><g clip-path="url(#88)"></g><g clip-path="url(#89)"></g></g><g clip-path="url(#90)"><g clip-path="url(#91)"></g><g clip-path="url(#92)"></g></g><g clip-path="url(#93)"><g clip-path="url(#94)"></g><g clip-path="url(#95)"></g></g><path transform="matrix(1 0 0 -1 0 595)" d="M84.24 354.43L84.72 354.43L84.72 354.43L84.72 354.91L84.72 354.91L84.24 354.91z" stroke="none" fill="#000000" fill-rule="evenodd" /><path transform="matrix(1 0 0 -1 0 595)" d="M84.72 354.43L192.02 354.43L192.02 354.43L192.02 354.91L192.02 354.91L84.72 354.91z" stroke="none" fill="#000000" fill-rule="evenodd" /><path transform="matrix(1 0 0 -1 0 595)" d="M192.02 354.43L192.5 354.43L192.5 354.43L192.5 354.91L192.5 354.91L192.02 354.91z" stroke="none" fill="#000000" fill-rule="evenodd" /><path transform="matrix(1 0 0 -1 0 595)" d="M192.5 354.43L267.74 354.43L267.74 354.43L267.74 354.91L267.74 354.91L192.5 354.91z" stroke="none" fill="#000000" fill-rule="evenodd" /><path transform="matrix(1 0 0 -1 0 595)" d="M267.74 354.43L268.22 354.43L268.22 354.43L268.22 354.91L268.22 354.91L267.74 354.91z" stroke="none" fill="#000000" fill-rule="evenodd" /><path transform="matrix(1 0 0 -1 0 595)" d="M268.22 354.43L324.524 354.43L324.524 354.43L324.524 354.91L324.524 354.91L268.22 354.91z" stroke="none" fill="#000000" fill-rule="evenodd" /><path transform="matrix(1 0 0 -1 0 595)" d="M324.53 354.43L325.01 354.43L325.01 354.43L325.01 354.91L325.01 354.91L324.53 354.91z" stroke="none" fill="#000000" fill-rule="evenodd" /><path transform="matrix(1 0 0 -1 0 595)" d="M325.01 354.43L471.29 354.43L471.29 354.43L471.29 354.91L471.29 354.91L325.01 354.91z" stroke="none" fill="#000000" fill-rule="evenodd" /><path transform="matrix(1 0 0 -1 0 595)" d="M471.29 354.43L471.794 354.43L471.794 354.43L471.794 354.91L471.794 354.91L471.29 354.91z" stroke="none" fill="#000000" fill-rule="evenodd" /><path transform="matrix(1 0 0 -1 0 595)" d="M471.79 354.43L725.85 354.43L725.85 354.43L725.85 354.91L725.85 354.91L471.79 354.91z" stroke="none" fill="#000000" fill-rule="evenodd" /><path transform="matrix(1 0 0 -1 0 595)" d="M725.86 354.43L726.34 354.43L726.34 354.43L726.34 354.91L726.34 354.91L725.86 354.91z" stroke="none" fill="#000000" fill-rule="evenodd" /><path transform="matrix(1 0 0 -1 0 595)" d="M84.24 326.83L84.72 326.83L84.72 326.83L84.72 354.43L84.72 354.43L84.24 354.43z" stroke="none" fill="#000000" fill-rule="evenodd" /><path transform="matrix(1 0 0 -1 0 595)" d="M192.02 326.83L192.5 326.83L192.5 326.83L192.5 354.43L192.5 354.43L192.02 354.43z" stroke="none" fill="#000000" fill-rule="evenodd" /><path transform="matrix(1 0 0 -1 0 595)" d="M267.74 326.83L268.22 326.83L268.22 326.83L268.22 354.43L268.22 354.43L267.74 354.43z" stroke="none" fill="#000000" fill-rule="evenodd" /><path transform="matrix(1 0 0 -1 0 595)" d="M324.53 326.83L325.01 326.83L325.01 326.83L325.01 354.43L325.01 354.43L324.53 354.43z" stroke="none" fill="#000000" fill-rule="evenodd" /><path transform="matrix(1 0 0 -1 0 595)" d="M471.29 326.83L471.794 326.83L471.794 326.83L471.794 354.43L471.794 354.43L471.29 354.43z" stroke="none" fill="#000000" fill-rule="evenodd" /><path transform="matrix(1 0 0 -1 0 595)" d="M725.86 326.83L726.34 326.83L726.34 326.83L726.34 354.43L726.34 354.43L725.86 354.43z" stroke="none" fill="#000000" fill-rule="evenodd" /><path transform="matrix(1 0 0 -1 0 595)" d="M84.72 279.55L192.02 279.55L192.02 279.55L192.02 326.23L192.02 326.23L84.72 326.23z" stroke="none" fill="#DAEEF3" fill-rule="evenodd" /><g clip-path="url(#96)"><path transform="matrix(1 0 0 -1 0 595)" d="M89.88 302.95L186.864 302.95L186.864 302.95L186.864 324.79L186.864 324.79L89.88 324.79z" stroke="none" fill="#DAEEF3" fill-rule="evenodd" /><g clip-path="url(#97)"></g><path transform="matrix(1 0 0 -1 0 595)" d="M89.88 281.11L186.864 281.11L186.864 281.11L186.864 302.95L186.864 302.95L89.88 302.95z" stroke="none" fill="#DAEEF3" fill-rule="evenodd" /><g clip-path="url(#98)"></g><g clip-path="url(#99)"></g></g><path transform="matrix(1 0 0 -1 0 595)" d="M192.5 279.55L267.74 279.55L267.74 279.55L267.74 326.23L267.74 326.23L192.5 326.23z" stroke="none" fill="#DAEEF3" fill-rule="evenodd" /><g clip-path="url(#100)"><path transform="matrix(1 0 0 -1 0 595)" d="M197.66 289.63L262.58 289.63L262.58 289.63L262.58 316.27L262.58 316.27L197.66 316.27z" stroke="none" fill="#DAEEF3" fill-rule="evenodd" /><g clip-path="url(#101)"></g><g clip-path="url(#102)"></g><g clip-path="url(#103)"></g></g><path transform="matrix(1 0 0 -1 0 595)" d="M268.22 279.55L324.404 279.55L324.404 279.55L324.404 326.23L324.404 326.23L268.22 326.23z" stroke="none" fill="#DAEEF3" fill-rule="evenodd" /><g clip-path="url(#104)"><path transform="matrix(1 0 0 -1 0 595)" d="M273.38 289.15L319.244 289.15L319.244 289.15L319.244 316.75L319.244 316.75L273.38 316.75z" stroke="none" fill="#DAEEF3" fill-rule="evenodd" /><g clip-path="url(#105)"></g><g clip-path="url(#106)"></g></g><path transform="matrix(1 0 0 -1 0 595)" d="M325.01 279.55L471.29 279.55L471.29 279.55L471.29 326.23L471.29 326.23L325.01 326.23z" stroke="none" fill="#DAEEF3" fill-rule="evenodd" /><g clip-path="url(#107)"><path transform="matrix(1 0 0 -1 0 595)" d="M330.05 289.63L466.13 289.63L466.13 289.63L466.13 316.27L466.13 316.27L330.05 316.27z" stroke="none" fill="#DAEEF3" fill-rule="evenodd" /><g clip-path="url(#108)"></g><g clip-path="url(#109)"></g><g clip-path="url(#110)"></g></g><path transform="matrix(1 0 0 -1 0 595)" d="M471.79 279.55L725.85 279.55L725.85 279.55L725.85 326.23L725.85 326.23L471.79 326.23z" stroke="none" fill="#DAEEF3" fill-rule="evenodd" /><g clip-path="url(#111)"><path transform="matrix(1 0 0 -1 0 595)" d="M476.95 307.27L720.69 307.27L720.69 307.27L720.69 326.23L720.69 326.23L476.95 326.23z" stroke="none" fill="#DAEEF3" fill-rule="evenodd" /><g clip-path="url(#112)"></g><g clip-path="url(#113)"></g><path transform="matrix(1 0 0 -1 0 595)" d="M476.95 279.55L720.69 279.55L720.69 279.55L720.69 307.27L720.69 307.27L476.95 307.27z" stroke="none" fill="#DAEEF3" fill-rule="evenodd" /><g clip-path="url(#114)"></g><g clip-path="url(#115)"></g></g><path transform="matrix(1 0 0 -1 0 595)" d="M84.24 326.35L84.72 326.35L84.72 326.35L84.72 326.83L84.72 326.83L84.24 326.83z" stroke="none" fill="#000000" fill-rule="evenodd" /><path transform="matrix(1 0 0 -1 0 595)" d="M84.72 326.35L192.02 326.35L192.02 326.35L192.02 326.83L192.02 326.83L84.72 326.83z" stroke="none" fill="#000000" fill-rule="evenodd" /><path transform="matrix(1 0 0 -1 0 595)" d="M192.02 326.35L192.5 326.35L192.5 326.35L192.5 326.83L192.5 326.83L192.02 326.83z" stroke="none" fill="#000000" fill-rule="evenodd" /><path transform="matrix(1 0 0 -1 0 595)" d="M192.5 326.35L267.74 326.35L267.74 326.35L267.74 326.83L267.74 326.83L192.5 326.83z" stroke="none" fill="#000000" fill-rule="evenodd" /><path transform="matrix(1 0 0 -1 0 595)" d="M267.74 326.35L268.22 326.35L268.22 326.35L268.22 326.83L268.22 326.83L267.74 326.83z" stroke="none" fill="#000000" fill-rule="evenodd" /><path transform="matrix(1 0 0 -1 0 595)" d="M268.22 326.35L324.524 326.35L324.524 326.35L324.524 326.83L324.524 326.83L268.22 326.83z" stroke="none" fill="#000000" fill-rule="evenodd" /><path transform="matrix(1 0 0 -1 0 595)" d="M324.53 326.35L325.01 326.35L325.01 326.35L325.01 326.83L325.01 326.83L324.53 326.83z" stroke="none" fill="#000000" fill-rule="evenodd" /><path transform="matrix(1 0 0 -1 0 595)" d="M325.01 326.35L471.29 326.35L471.29 326.35L471.29 326.83L471.29 326.83L325.01 326.83z" stroke="none" fill="#000000" fill-rule="evenodd" /><path transform="matrix(1 0 0 -1 0 595)" d="M471.29 326.35L471.794 326.35L471.794 326.35L471.794 326.83L471.794 326.83L471.29 326.83z" stroke="none" fill="#000000" fill-rule="evenodd" /><path transform="matrix(1 0 0 -1 0 595)" d="M471.79 326.35L725.85 326.35L725.85 326.35L725.85 326.83L725.85 326.83L471.79 326.83z" stroke="none" fill="#000000" fill-rule="evenodd" /><path transform="matrix(1 0 0 -1 0 595)" d="M725.86 326.35L726.34 326.35L726.34 326.35L726.34 326.83L726.34 326.83L725.86 326.83z" stroke="none" fill="#000000" fill-rule="evenodd" /><path transform="matrix(1 0 0 -1 0 595)" d="M84.24 279.55L84.72 279.55L84.72 279.55L84.72 326.35L84.72 326.35L84.24 326.35z" stroke="none" fill="#000000" fill-rule="evenodd" /><path transform="matrix(1 0 0 -1 0 595)" d="M84.24 279.07L84.72 279.07L84.72 279.07L84.72 279.55L84.72 279.55L84.24 279.55z" stroke="none" fill="#000000" fill-rule="evenodd" /><path transform="matrix(1 0 0 -1 0 595)" d="M84.24 279.07L84.72 279.07L84.72 279.07L84.72 279.55L84.72 279.55L84.24 279.55z" stroke="none" fill="#000000" fill-rule="evenodd" /><path transform="matrix(1 0 0 -1 0 595)" d="M84.72 279.07L192.02 279.07L192.02 279.07L192.02 279.55L192.02 279.55L84.72 279.55z" stroke="none" fill="#000000" fill-rule="evenodd" /><path transform="matrix(1 0 0 -1 0 595)" d="M192.02 279.55L192.5 279.55L192.5 279.55L192.5 326.35L192.5 326.35L192.02 326.35z" stroke="none" fill="#000000" fill-rule="evenodd" /><path transform="matrix(1 0 0 -1 0 595)" d="M192.02 279.07L192.5 279.07L192.5 279.07L192.5 279.55L192.5 279.55L192.02 279.55z" stroke="none" fill="#000000" fill-rule="evenodd" /><path transform="matrix(1 0 0 -1 0 595)" d="M192.5 279.07L267.74 279.07L267.74 279.07L267.74 279.55L267.74 279.55L192.5 279.55z" stroke="none" fill="#000000" fill-rule="evenodd" /><path transform="matrix(1 0 0 -1 0 595)" d="M267.74 279.55L268.22 279.55L268.22 279.55L268.22 326.35L268.22 326.35L267.74 326.35z" stroke="none" fill="#000000" fill-rule="evenodd" /><path transform="matrix(1 0 0 -1 0 595)" d="M267.74 279.07L268.22 279.07L268.22 279.07L268.22 279.55L268.22 279.55L267.74 279.55z" stroke="none" fill="#000000" fill-rule="evenodd" /><path transform="matrix(1 0 0 -1 0 595)" d="M268.22 279.07L324.524 279.07L324.524 279.07L324.524 279.55L324.524 279.55L268.22 279.55z" stroke="none" fill="#000000" fill-rule="evenodd" /><path transform="matrix(1 0 0 -1 0 595)" d="M324.53 279.55L325.01 279.55L325.01 279.55L325.01 326.35L325.01 326.35L324.53 326.35z" stroke="none" fill="#000000" fill-rule="evenodd" /><path transform="matrix(1 0 0 -1 0 595)" d="M324.53 279.07L325.01 279.07L325.01 279.07L325.01 279.55L325.01 279.55L324.53 279.55z" stroke="none" fill="#000000" fill-rule="evenodd" /><path transform="matrix(1 0 0 -1 0 595)" d="M325.01 279.07L471.29 279.07L471.29 279.07L471.29 279.55L471.29 279.55L325.01 279.55z" stroke="none" fill="#000000" fill-rule="evenodd" /><path transform="matrix(1 0 0 -1 0 595)" d="M471.29 279.55L471.794 279.55L471.794 279.55L471.794 326.35L471.794 326.35L471.29 326.35z" stroke="none" fill="#000000" fill-rule="evenodd" /><path transform="matrix(1 0 0 -1 0 595)" d="M471.29 279.07L471.794 279.07L471.794 279.07L471.794 279.55L471.794 279.55L471.29 279.55z" stroke="none" fill="#000000" fill-rule="evenodd" /><path transform="matrix(1 0 0 -1 0 595)" d="M471.79 279.07L725.85 279.07L725.85 279.07L725.85 279.55L725.85 279.55L471.79 279.55z" stroke="none" fill="#000000" fill-rule="evenodd" /><path transform="matrix(1 0 0 -1 0 595)" d="M725.86 279.55L726.34 279.55L726.34 279.55L726.34 326.35L726.34 326.35L725.86 326.35z" stroke="none" fill="#000000" fill-rule="evenodd" /><path transform="matrix(1 0 0 -1 0 595)" d="M725.86 279.07L726.34 279.07L726.34 279.07L726.34 279.55L726.34 279.55L725.86 279.55z" stroke="none" fill="#000000" fill-rule="evenodd" /><path transform="matrix(1 0 0 -1 0 595)" d="M725.86 279.07L726.34 279.07L726.34 279.07L726.34 279.55L726.34 279.55L725.86 279.55z" stroke="none" fill="#000000" fill-rule="evenodd" /><path transform="matrix(1 0 0 -1 0 595)" d="M84.72 173.81L183.144 173.81L183.144 173.81L183.144 201.41L183.144 201.41L84.72 201.41z" stroke="none" fill="#0070C0" fill-rule="evenodd" /><g clip-path="url(#116)"><path transform="matrix(1 0 0 -1 0 595)" d="M89.88 173.81L177.984 173.81L177.984 173.81L177.984 201.41L177.984 201.41L89.88 201.41z" stroke="none" fill="#0070C0" fill-rule="evenodd" /><g clip-path="url(#117)"></g><g clip-path="url(#118)"></g></g><path transform="matrix(1 0 0 -1 0 595)" d="M183.62 173.81L246.26 173.81L246.26 173.81L246.26 201.41L246.26 201.41L183.62 201.41z" stroke="none" fill="#0070C0" fill-rule="evenodd" /><g clip-path="url(#119)"><path transform="matrix(1 0 0 -1 0 595)" d="M188.78 173.81L241.1 173.81L241.1 173.81L241.1 201.41L241.1 201.41L188.78 201.41z" stroke="none" fill="#0070C0" fill-rule="evenodd" /><g clip-path="url(#120)"></g><g clip-path="url(#121)"></g></g><path transform="matrix(1 0 0 -1 0 595)" d="M246.74 173.81L309.644 173.81L309.644 173.81L309.644 201.41L309.644 201.41L246.74 201.41z" stroke="none" fill="#0070C0" fill-rule="evenodd" /><g clip-path="url(#122)"><path transform="matrix(1 0 0 -1 0 595)" d="M251.9 173.81L304.484 173.81L304.484 173.81L304.484 201.41L304.484 201.41L251.9 201.41z" stroke="none" fill="#0070C0" fill-rule="evenodd" /><g clip-path="url(#123)"></g><g clip-path="url(#124)"></g></g><path transform="matrix(1 0 0 -1 0 595)" d="M310.13 173.81L535.15 173.81L535.15 173.81L535.15 201.41L535.15 201.41L310.13 201.41z" stroke="none" fill="#0070C0" fill-rule="evenodd" /><g clip-path="url(#125)"><path transform="matrix(1 0 0 -1 0 595)" d="M315.29 173.81L529.99 173.81L529.99 173.81L529.99 201.41L529.99 201.41L315.29 201.41z" stroke="none" fill="#0070C0" fill-rule="evenodd" /><g clip-path="url(#126)"></g><g clip-path="url(#127)"></g></g><path transform="matrix(1 0 0 -1 0 595)" d="M535.63 173.81L749.97 173.81L749.97 173.81L749.97 201.41L749.97 201.41L535.63 201.41z" stroke="none" fill="#0070C0" fill-rule="evenodd" /><g clip-path="url(#128)"><path transform="matrix(1 0 0 -1 0 595)" d="M540.79 173.81L744.81 173.81L744.81 173.81L744.81 201.41L744.81 201.41L540.79 201.41z" stroke="none" fill="#0070C0" fill-rule="evenodd" /><g clip-path="url(#129)"></g><g clip-path="url(#130)"></g></g><path transform="matrix(1 0 0 -1 0 595)" d="M84.24 201.41L84.72 201.41L84.72 201.41L84.72 201.89L84.72 201.89L84.24 201.89z" stroke="none" fill="#000000" fill-rule="evenodd" /><path transform="matrix(1 0 0 -1 0 595)" d="M84.24 201.41L84.72 201.41L84.72 201.41L84.72 201.89L84.72 201.89L84.24 201.89z" stroke="none" fill="#000000" fill-rule="evenodd" /><path transform="matrix(1 0 0 -1 0 595)" d="M84.72 201.41L183.144 201.41L183.144 201.41L183.144 201.89L183.144 201.89L84.72 201.89z" stroke="none" fill="#000000" fill-rule="evenodd" /><path transform="matrix(1 0 0 -1 0 595)" d="M183.14 201.41L183.62 201.41L183.62 201.41L183.62 201.89L183.62 201.89L183.14 201.89z" stroke="none" fill="#000000" fill-rule="evenodd" /><path transform="matrix(1 0 0 -1 0 595)" d="M183.62 201.41L246.26 201.41L246.26 201.41L246.26 201.89L246.26 201.89L183.62 201.89z" stroke="none" fill="#000000" fill-rule="evenodd" /><path transform="matrix(1 0 0 -1 0 595)" d="M246.26 201.41L246.74 201.41L246.74 201.41L246.74 201.89L246.74 201.89L246.26 201.89z" stroke="none" fill="#000000" fill-rule="evenodd" /><path transform="matrix(1 0 0 -1 0 595)" d="M246.74 201.41L309.644 201.41L309.644 201.41L309.644 201.89L309.644 201.89L246.74 201.89z" stroke="none" fill="#000000" fill-rule="evenodd" /><path transform="matrix(1 0 0 -1 0 595)" d="M309.65 201.41L310.13 201.41L310.13 201.41L310.13 201.89L310.13 201.89L309.65 201.89z" stroke="none" fill="#000000" fill-rule="evenodd" /><path transform="matrix(1 0 0 -1 0 595)" d="M310.13 201.41L535.15 201.41L535.15 201.41L535.15 201.89L535.15 201.89L310.13 201.89z" stroke="none" fill="#000000" fill-rule="evenodd" /><path transform="matrix(1 0 0 -1 0 595)" d="M535.15 201.41L535.6301 201.41L535.6301 201.41L535.6301 201.89L535.6301 201.89L535.15 201.89z" stroke="none" fill="#000000" fill-rule="evenodd" /><path transform="matrix(1 0 0 -1 0 595)" d="M535.63 201.41L750.09 201.41L750.09 201.41L750.09 201.89L750.09 201.89L535.63 201.89z" stroke="none" fill="#000000" fill-rule="evenodd" /><path transform="matrix(1 0 0 -1 0 595)" d="M750.1 201.41L750.58 201.41L750.58 201.41L750.58 201.89L750.58 201.89L750.1 201.89z" stroke="none" fill="#000000" fill-rule="evenodd" /><path transform="matrix(1 0 0 -1 0 595)" d="M750.1 201.41L750.58 201.41L750.58 201.41L750.58 201.89L750.58 201.89L750.1 201.89z" stroke="none" fill="#000000" fill-rule="evenodd" /><path transform="matrix(1 0 0 -1 0 595)" d="M84.24 173.81L84.72 173.81L84.72 173.81L84.72 201.41L84.72 201.41L84.24 201.41z" stroke="none" fill="#000000" fill-rule="evenodd" /><path transform="matrix(1 0 0 -1 0 595)" d="M183.14 173.81L183.62 173.81L183.62 173.81L183.62 201.41L183.62 201.41L183.14 201.41z" stroke="none" fill="#000000" fill-rule="evenodd" /><path transform="matrix(1 0 0 -1 0 595)" d="M246.26 173.81L246.74 173.81L246.74 173.81L246.74 201.41L246.74 201.41L246.26 201.41z" stroke="none" fill="#000000" fill-rule="evenodd" /><path transform="matrix(1 0 0 -1 0 595)" d="M309.65 173.81L310.13 173.81L310.13 173.81L310.13 201.41L310.13 201.41L309.65 201.41z" stroke="none" fill="#000000" fill-rule="evenodd" /><path transform="matrix(1 0 0 -1 0 595)" d="M535.15 173.81L535.6301 173.81L535.6301 173.81L535.6301 201.41L535.6301 201.41L535.15 201.41z" stroke="none" fill="#000000" fill-rule="evenodd" /><path transform="matrix(1 0 0 -1 0 595)" d="M750.1 173.81L750.58 173.81L750.58 173.81L750.58 201.41L750.58 201.41L750.1 201.41z" stroke="none" fill="#000000" fill-rule="evenodd" /><path transform="matrix(1 0 0 -1 0 595)" d="M84.72 136.61L183.144 136.61L183.144 136.61L183.144 173.33L183.144 173.33L84.72 173.33z" stroke="none" fill="#DAEEF3" fill-rule="evenodd" /><g clip-path="url(#131)"><path transform="matrix(1 0 0 -1 0 595)" d="M89.88 146.69L177.984 146.69L177.984 146.69L177.984 173.33L177.984 173.33L89.88 173.33z" stroke="none" fill="#DAEEF3" fill-rule="evenodd" /><g clip-path="url(#132)"></g><g clip-path="url(#133)"></g></g><path transform="matrix(1 0 0 -1 0 595)" d="M183.62 136.61L246.26 136.61L246.26 136.61L246.26 173.33L246.26 173.33L183.62 173.33z" stroke="none" fill="#DAEEF3" fill-rule="evenodd" /><g clip-path="url(#134)"><path transform="matrix(1 0 0 -1 0 595)" d="M188.78 146.69L241.1 146.69L241.1 146.69L241.1 173.33L241.1 173.33L188.78 173.33z" stroke="none" fill="#DAEEF3" fill-rule="evenodd" /><g clip-path="url(#135)"></g><g clip-path="url(#136)"></g></g><path transform="matrix(1 0 0 -1 0 595)" d="M246.74 136.61L309.644 136.61L309.644 136.61L309.644 173.33L309.644 173.33L246.74 173.33z" stroke="none" fill="#DAEEF3" fill-rule="evenodd" /><g clip-path="url(#137)"><path transform="matrix(1 0 0 -1 0 595)" d="M251.9 145.61L304.484 145.61L304.484 145.61L304.484 173.33L304.484 173.33L251.9 173.33z" stroke="none" fill="#DAEEF3" fill-rule="evenodd" /><g clip-path="url(#138)"></g><g clip-path="url(#139)"></g></g><path transform="matrix(1 0 0 -1 0 595)" d="M310.13 136.61L535.15 136.61L535.15 136.61L535.15 173.33L535.15 173.33L310.13 173.33z" stroke="none" fill="#DAEEF3" fill-rule="evenodd" /><g clip-path="url(#140)"><path transform="matrix(1 0 0 -1 0 595)" d="M315.29 146.69L529.99 146.69L529.99 146.69L529.99 173.33L529.99 173.33L315.29 173.33z" stroke="none" fill="#DAEEF3" fill-rule="evenodd" /><g clip-path="url(#141)"></g><g clip-path="url(#142)"></g></g><path transform="matrix(1 0 0 -1 0 595)" d="M535.63 136.61L749.97 136.61L749.97 136.61L749.97 173.33L749.97 173.33L535.63 173.33z" stroke="none" fill="#DAEEF3" fill-rule="evenodd" /><g clip-path="url(#143)"><path transform="matrix(1 0 0 -1 0 595)" d="M540.79 145.61L744.81 145.61L744.81 145.61L744.81 173.33L744.81 173.33L540.79 173.33z" stroke="none" fill="#DAEEF3" fill-rule="evenodd" /><g clip-path="url(#144)"></g><g clip-path="url(#145)"></g></g><path transform="matrix(1 0 0 -1 0 595)" d="M84.24 173.33L84.72 173.33L84.72 173.33L84.72 173.81L84.72 173.81L84.24 173.81z" stroke="none" fill="#000000" fill-rule="evenodd" /><path transform="matrix(1 0 0 -1 0 595)" d="M84.72 173.33L183.144 173.33L183.144 173.33L183.144 173.81L183.144 173.81L84.72 173.81z" stroke="none" fill="#000000" fill-rule="evenodd" /><path transform="matrix(1 0 0 -1 0 595)" d="M183.14 173.33L183.62 173.33L183.62 173.33L183.62 173.81L183.62 173.81L183.14 173.81z" stroke="none" fill="#000000" fill-rule="evenodd" /><path transform="matrix(1 0 0 -1 0 595)" d="M183.62 173.33L246.26 173.33L246.26 173.33L246.26 173.81L246.26 173.81L183.62 173.81z" stroke="none" fill="#000000" fill-rule="evenodd" /><path transform="matrix(1 0 0 -1 0 595)" d="M246.26 173.33L246.74 173.33L246.74 173.33L246.74 173.81L246.74 173.81L246.26 173.81z" stroke="none" fill="#000000" fill-rule="evenodd" /><path transform="matrix(1 0 0 -1 0 595)" d="M246.74 173.33L309.644 173.33L309.644 173.33L309.644 173.81L309.644 173.81L246.74 173.81z" stroke="none" fill="#000000" fill-rule="evenodd" /><path transform="matrix(1 0 0 -1 0 595)" d="M309.65 173.33L310.13 173.33L310.13 173.33L310.13 173.81L310.13 173.81L309.65 173.81z" stroke="none" fill="#000000" fill-rule="evenodd" /><path transform="matrix(1 0 0 -1 0 595)" d="M310.13 173.33L535.15 173.33L535.15 173.33L535.15 173.81L535.15 173.81L310.13 173.81z" stroke="none" fill="#000000" fill-rule="evenodd" /><path transform="matrix(1 0 0 -1 0 595)" d="M535.15 173.33L535.6301 173.33L535.6301 173.33L535.6301 173.81L535.6301 173.81L535.15 173.81z" stroke="none" fill="#000000" fill-rule="evenodd" /><path transform="matrix(1 0 0 -1 0 595)" d="M535.63 173.33L750.09 173.33L750.09 173.33L750.09 173.81L750.09 173.81L535.63 173.81z" stroke="none" fill="#000000" fill-rule="evenodd" /><path transform="matrix(1 0 0 -1 0 595)" d="M750.1 173.33L750.58 173.33L750.58 173.33L750.58 173.81L750.58 173.81L750.1 173.81z" stroke="none" fill="#000000" fill-rule="evenodd" /><path transform="matrix(1 0 0 -1 0 595)" d="M84.24 136.61L84.72 136.61L84.72 136.61L84.72 173.33L84.72 173.33L84.24 173.33z" stroke="none" fill="#000000" fill-rule="evenodd" /><path transform="matrix(1 0 0 -1 0 595)" d="M183.14 136.61L183.62 136.61L183.62 136.61L183.62 173.33L183.62 173.33L183.14 173.33z" stroke="none" fill="#000000" fill-rule="evenodd" /><path transform="matrix(1 0 0 -1 0 595)" d="M246.26 136.61L246.74 136.61L246.74 136.61L246.74 173.33L246.74 173.33L246.26 173.33z" stroke="none" fill="#000000" fill-rule="evenodd" /><path transform="matrix(1 0 0 -1 0 595)" d="M309.65 136.61L310.13 136.61L310.13 136.61L310.13 173.33L310.13 173.33L309.65 173.33z" stroke="none" fill="#000000" fill-rule="evenodd" /><path transform="matrix(1 0 0 -1 0 595)" d="M535.15 136.61L535.6301 136.61L535.6301 136.61L535.6301 173.33L535.6301 173.33L535.15 173.33z" stroke="none" fill="#000000" fill-rule="evenodd" /><path transform="matrix(1 0 0 -1 0 595)" d="M750.1 136.61L750.58 136.61L750.58 136.61L750.58 173.33L750.58 173.33L750.1 173.33z" stroke="none" fill="#000000" fill-rule="evenodd" /><g clip-path="url(#146)"><g clip-path="url(#147)"></g><g clip-path="url(#148)"></g></g><g clip-path="url(#149)"><g clip-path="url(#150)"></g><g clip-path="url(#151)"></g></g><g clip-path="url(#152)"><g clip-path="url(#153)"></g><g clip-path="url(#154)"></g></g><g clip-path="url(#155)"><g clip-path="url(#156)"></g><g clip-path="url(#157)"></g></g><g clip-path="url(#158)"><g clip-path="url(#159)"></g><g clip-path="url(#160)"></g></g><path transform="matrix(1 0 0 -1 0 595)" d="M84.24 136.13L84.72 136.13L84.72 136.13L84.72 136.61L84.72 136.61L84.24 136.61z" stroke="none" fill="#000000" fill-rule="evenodd" /><path transform="matrix(1 0 0 -1 0 595)" d="M84.72 136.13L183.144 136.13L183.144 136.13L183.144 136.61L183.144 136.61L84.72 136.61z" stroke="none" fill="#000000" fill-rule="evenodd" /><path transform="matrix(1 0 0 -1 0 595)" d="M183.14 136.13L183.62 136.13L183.62 136.13L183.62 136.61L183.62 136.61L183.14 136.61z" stroke="none" fill="#000000" fill-rule="evenodd" /><path transform="matrix(1 0 0 -1 0 595)" d="M183.62 136.13L246.26 136.13L246.26 136.13L246.26 136.61L246.26 136.61L183.62 136.61z" stroke="none" fill="#000000" fill-rule="evenodd" /><path transform="matrix(1 0 0 -1 0 595)" d="M246.26 136.13L246.74 136.13L246.74 136.13L246.74 136.61L246.74 136.61L246.26 136.61z" stroke="none" fill="#000000" fill-rule="evenodd" /><path transform="matrix(1 0 0 -1 0 595)" d="M246.74 136.13L309.644 136.13L309.644 136.13L309.644 136.61L309.644 136.61L246.74 136.61z" stroke="none" fill="#000000" fill-rule="evenodd" /><path transform="matrix(1 0 0 -1 0 595)" d="M309.65 136.13L310.13 136.13L310.13 136.13L310.13 136.61L310.13 136.61L309.65 136.61z" stroke="none" fill="#000000" fill-rule="evenodd" /><path transform="matrix(1 0 0 -1 0 595)" d="M310.13 136.13L535.15 136.13L535.15 136.13L535.15 136.61L535.15 136.61L310.13 136.61z" stroke="none" fill="#000000" fill-rule="evenodd" /><path transform="matrix(1 0 0 -1 0 595)" d="M535.15 136.13L535.6301 136.13L535.6301 136.13L535.6301 136.61L535.6301 136.61L535.15 136.61z" stroke="none" fill="#000000" fill-rule="evenodd" /><path transform="matrix(1 0 0 -1 0 595)" d="M535.63 136.13L750.09 136.13L750.09 136.13L750.09 136.61L750.09 136.61L535.63 136.61z" stroke="none" fill="#000000" fill-rule="evenodd" /><path transform="matrix(1 0 0 -1 0 595)" d="M750.1 136.13L750.58 136.13L750.58 136.13L750.58 136.61L750.58 136.61L750.1 136.61z" stroke="none" fill="#000000" fill-rule="evenodd" /><path transform="matrix(1 0 0 -1 0 595)" d="M84.24 98.664L84.72 98.664L84.72 98.664L84.72 136.128L84.72 136.128L84.24 136.128z" stroke="none" fill="#000000" fill-rule="evenodd" /><path transform="matrix(1 0 0 -1 0 595)" d="M84.24 98.184L84.72 98.184L84.72 98.184L84.72 98.66401L84.72 98.66401L84.24 98.66401z" stroke="none" fill="#000000" fill-rule="evenodd" /><path transform="matrix(1 0 0 -1 0 595)" d="M84.24 98.184L84.72 98.184L84.72 98.184L84.72 98.66401L84.72 98.66401L84.24 98.66401z" stroke="none" fill="#000000" fill-rule="evenodd" /><path transform="matrix(1 0 0 -1 0 595)" d="M84.72 98.184L183.144 98.184L183.144 98.184L183.144 98.66401L183.144 98.66401L84.72 98.66401z" stroke="none" fill="#000000" fill-rule="evenodd" /><path transform="matrix(1 0 0 -1 0 595)" d="M183.14 98.664L183.62 98.664L183.62 98.664L183.62 136.128L183.62 136.128L183.14 136.128z" stroke="none" fill="#000000" fill-rule="evenodd" /><path transform="matrix(1 0 0 -1 0 595)" d="M183.14 98.184L183.62 98.184L183.62 98.184L183.62 98.66401L183.62 98.66401L183.14 98.66401z" stroke="none" fill="#000000" fill-rule="evenodd" /><path transform="matrix(1 0 0 -1 0 595)" d="M183.62 98.184L246.26 98.184L246.26 98.184L246.26 98.66401L246.26 98.66401L183.62 98.66401z" stroke="none" fill="#000000" fill-rule="evenodd" /><path transform="matrix(1 0 0 -1 0 595)" d="M246.26 98.664L246.74 98.664L246.74 98.664L246.74 136.128L246.74 136.128L246.26 136.128z" stroke="none" fill="#000000" fill-rule="evenodd" /><path transform="matrix(1 0 0 -1 0 595)" d="M246.26 98.184L246.74 98.184L246.74 98.184L246.74 98.66401L246.74 98.66401L246.26 98.66401z" stroke="none" fill="#000000" fill-rule="evenodd" /><path transform="matrix(1 0 0 -1 0 595)" d="M246.74 98.184L309.644 98.184L309.644 98.184L309.644 98.66401L309.644 98.66401L246.74 98.66401z" stroke="none" fill="#000000" fill-rule="evenodd" /><path transform="matrix(1 0 0 -1 0 595)" d="M309.65 98.664L310.13 98.664L310.13 98.664L310.13 136.128L310.13 136.128L309.65 136.128z" stroke="none" fill="#000000" fill-rule="evenodd" /><path transform="matrix(1 0 0 -1 0 595)" d="M309.65 98.184L310.13 98.184L310.13 98.184L310.13 98.66401L310.13 98.66401L309.65 98.66401z" stroke="none" fill="#000000" fill-rule="evenodd" /><path transform="matrix(1 0 0 -1 0 595)" d="M310.13 98.184L535.15 98.184L535.15 98.184L535.15 98.66401L535.15 98.66401L310.13 98.66401z" stroke="none" fill="#000000" fill-rule="evenodd" /><path transform="matrix(1 0 0 -1 0 595)" d="M535.15 98.664L535.6301 98.664L535.6301 98.664L535.6301 136.128L535.6301 136.128L535.15 136.128z" stroke="none" fill="#000000" fill-rule="evenodd" /><path transform="matrix(1 0 0 -1 0 595)" d="M535.15 98.184L535.6301 98.184L535.6301 98.184L535.6301 98.66401L535.6301 98.66401L535.15 98.66401z" stroke="none" fill="#000000" fill-rule="evenodd" /><path transform="matrix(1 0 0 -1 0 595)" d="M535.63 98.184L750.09 98.184L750.09 98.184L750.09 98.66401L750.09 98.66401L535.63 98.66401z" stroke="none" fill="#000000" fill-rule="evenodd" /><path transform="matrix(1 0 0 -1 0 595)" d="M750.1 98.664L750.58 98.664L750.58 98.664L750.58 136.128L750.58 136.128L750.1 136.128z" stroke="none" fill="#000000" fill-rule="evenodd" /><path transform="matrix(1 0 0 -1 0 595)" d="M750.1 98.184L750.58 98.184L750.58 98.184L750.58 98.66401L750.58 98.66401L750.1 98.66401z" stroke="none" fill="#000000" fill-rule="evenodd" /><path transform="matrix(1 0 0 -1 0 595)" d="M750.1 98.184L750.58 98.184L750.58 98.184L750.58 98.66401L750.58 98.66401L750.1 98.66401z" stroke="none" fill="#000000" fill-rule="evenodd" /></g></g></g></svg>