<svg xmlns="http://www.w3.org/2000/svg" xmlns:xlink="http://www.w3.org/1999/xlink" id="body_159" preserveAspectRatio="xMinYMin meet" viewBox="0 0 793 1121"><defs><clipPath id="1"><path d="M0 841L0 -0.9199829L0 -0.9199829L595.32 -0.9199829L595.32 -0.9199829L595.32 841L595.32 841L0 841z" /></clipPath><clipPath id="2"><path d="M0.00125 841.0914L595.4112 841.0914L595.4112 841.0914L595.4112 -0.9186401L595.4112 -0.9186401L0.00125 -0.9186401z" /></clipPath><clipPath id="3"><path d="M288.05 781.211L316.01 781.211L316.01 781.211L316.01 762.011L316.01 762.011L288.05 762.011z" /></clipPath><clipPath id="4"><path d="M288.05 781.216L316.01 781.216L316.01 781.216L316.01 762.016L316.01 762.016L288.05 762.016z" /></clipPath><clipPath id="5"><path d="M288.05 781.216L316.01 781.216L316.01 781.216L316.01 762.016L316.01 762.016L288.05 762.016z" /></clipPath><clipPath id="6"><path d="M84.751 113.59L510.691 113.59L510.691 113.59L510.691 89.44L510.691 89.44L84.751 89.44z" /></clipPath><clipPath id="7"><path d="M84.744 113.58L510.694 113.58L510.694 113.58L510.694 89.43604L510.694 89.43604L84.744 89.43604z" /></clipPath><clipPath id="8"><path d="M84.744 113.58L510.694 113.58L510.694 113.58L510.694 89.43604L510.694 89.43604L84.744 89.43604z" /></clipPath><clipPath id="9"><path d="M84.744 113.58L510.694 113.58L510.694 113.58L510.694 89.43604L510.694 89.43604L84.744 89.43604z" /></clipPath><clipPath id="10"><path d="M84.744 113.58L510.694 113.58L510.694 113.58L510.694 89.43604L510.694 89.43604L84.744 89.43604z" /></clipPath><clipPath id="11"><path d="M84.744 113.58L510.694 113.58L510.694 113.58L510.694 89.43604L510.694 89.43604L84.744 89.43604z" /></clipPath><clipPath id="12"><path d="M84.744 113.58L510.694 113.58L510.694 113.58L510.694 89.43604L510.694 89.43604L84.744 89.43604z" /></clipPath><clipPath id="13"><path d="M84.751 437.97L510.691 437.97L510.691 437.97L510.691 114.07L510.691 114.07L84.751 114.07z" /></clipPath><clipPath id="14"><path d="M84.744 437.97L510.694 437.97L510.694 437.97L510.694 114.07L510.694 114.07L84.744 114.07z" /></clipPath><clipPath id="15"><path d="M84.744 437.97L510.694 437.97L510.694 437.97L510.694 114.07L510.694 114.07L84.744 114.07z" /></clipPath><clipPath id="16"><path d="M84.744 437.97L510.694 437.97L510.694 437.97L510.694 114.07L510.694 114.07L84.744 114.07z" /></clipPath><clipPath id="17"><path d="M84.744 437.97L510.694 437.97L510.694 437.97L510.694 114.07L510.694 114.07L84.744 114.07z" /></clipPath><clipPath id="18"><path d="M84.744 437.97L510.694 437.97L510.694 437.97L510.694 114.07L510.694 114.07L84.744 114.07z" /></clipPath><clipPath id="19"><path d="M84.744 437.97L510.694 437.97L510.694 437.97L510.694 114.07L510.694 114.07L84.744 114.07z" /></clipPath><clipPath id="20"><path d="M84.744 437.97L510.694 437.97L510.694 437.97L510.694 114.07L510.694 114.07L84.744 114.07z" /></clipPath><clipPath id="21"><path d="M84.744 437.97L510.694 437.97L510.694 437.97L510.694 114.07L510.694 114.07L84.744 114.07z" /></clipPath><clipPath id="22"><path d="M84.744 437.97L510.694 437.97L510.694 437.97L510.694 114.07L510.694 114.07L84.744 114.07z" /></clipPath><clipPath id="23"><path d="M84.744 437.97L510.694 437.97L510.694 437.97L510.694 114.07L510.694 114.07L84.744 114.07z" /></clipPath><clipPath id="24"><path d="M84.744 437.97L510.694 437.97L510.694 437.97L510.694 114.07L510.694 114.07L84.744 114.07z" /></clipPath><clipPath id="25"><path d="M84.744 437.97L510.694 437.97L510.694 437.97L510.694 114.07L510.694 114.07L84.744 114.07z" /></clipPath><clipPath id="26"><path d="M84.744 437.97L510.694 437.97L510.694 437.97L510.694 114.07L510.694 114.07L84.744 114.07z" /></clipPath><clipPath id="27"><path d="M84.744 437.97L510.694 437.97L510.694 437.97L510.694 114.07L510.694 114.07L84.744 114.07z" /></clipPath><clipPath id="28"><path d="M84.744 437.97L510.694 437.97L510.694 437.97L510.694 114.07L510.694 114.07L84.744 114.07z" /></clipPath><clipPath id="29"><path d="M84.744 437.97L510.694 437.97L510.694 437.97L510.694 114.07L510.694 114.07L84.744 114.07z" /></clipPath><clipPath id="30"><path d="M84.744 437.97L510.694 437.97L510.694 437.97L510.694 114.07L510.694 114.07L84.744 114.07z" /></clipPath><clipPath id="31"><path d="M84.744 437.97L510.694 437.97L510.694 437.97L510.694 114.07L510.694 114.07L84.744 114.07z" /></clipPath><clipPath id="32"><path d="M84.744 437.97L510.694 437.97L510.694 437.97L510.694 114.07L510.694 114.07L84.744 114.07z" /></clipPath><clipPath id="33"><path d="M84.744 437.97L510.694 437.97L510.694 437.97L510.694 114.07L510.694 114.07L84.744 114.07z" /></clipPath><clipPath id="34"><path d="M84.744 437.97L510.694 437.97L510.694 437.97L510.694 114.07L510.694 114.07L84.744 114.07z" /></clipPath><clipPath id="35"><path d="M84.744 437.97L510.694 437.97L510.694 437.97L510.694 114.07L510.694 114.07L84.744 114.07z" /></clipPath><clipPath id="36"><path d="M84.744 437.97L510.694 437.97L510.694 437.97L510.694 114.07L510.694 114.07L84.744 114.07z" /></clipPath><clipPath id="37"><path d="M84.744 437.97L510.694 437.97L510.694 437.97L510.694 114.07L510.694 114.07L84.744 114.07z" /></clipPath><clipPath id="38"><path d="M84.744 437.97L510.694 437.97L510.694 437.97L510.694 114.07L510.694 114.07L84.744 114.07z" /></clipPath><clipPath id="39"><path d="M84.744 437.97L510.694 437.97L510.694 437.97L510.694 114.07L510.694 114.07L84.744 114.07z" /></clipPath><clipPath id="40"><path d="M84.744 437.97L510.694 437.97L510.694 437.97L510.694 114.07L510.694 114.07L84.744 114.07z" /></clipPath><clipPath id="41"><path d="M84.744 437.97L510.694 437.97L510.694 437.97L510.694 114.07L510.694 114.07L84.744 114.07z" /></clipPath><clipPath id="42"><path d="M84.744 437.97L510.694 437.97L510.694 437.97L510.694 114.07L510.694 114.07L84.744 114.07z" /></clipPath><clipPath id="43"><path d="M84.744 437.97L510.694 437.97L510.694 437.97L510.694 114.07L510.694 114.07L84.744 114.07z" /></clipPath><clipPath id="44"><path d="M84.744 437.97L510.694 437.97L510.694 437.97L510.694 114.07L510.694 114.07L84.744 114.07z" /></clipPath><clipPath id="45"><path d="M84.744 437.97L510.694 437.97L510.694 437.97L510.694 114.07L510.694 114.07L84.744 114.07z" /></clipPath><clipPath id="46"><path d="M84.744 437.97L510.694 437.97L510.694 437.97L510.694 114.07L510.694 114.07L84.744 114.07z" /></clipPath><clipPath id="47"><path d="M84.744 437.97L510.694 437.97L510.694 437.97L510.694 114.07L510.694 114.07L84.744 114.07z" /></clipPath><clipPath id="48"><path d="M84.744 437.97L510.694 437.97L510.694 437.97L510.694 114.07L510.694 114.07L84.744 114.07z" /></clipPath><clipPath id="49"><path d="M84.744 437.97L510.694 437.97L510.694 437.97L510.694 114.07L510.694 114.07L84.744 114.07z" /></clipPath><clipPath id="50"><path d="M84.744 437.97L510.694 437.97L510.694 437.97L510.694 114.07L510.694 114.07L84.744 114.07z" /></clipPath><clipPath id="51"><path d="M84.744 437.97L510.694 437.97L510.694 437.97L510.694 114.07L510.694 114.07L84.744 114.07z" /></clipPath><clipPath id="52"><path d="M84.744 437.97L510.694 437.97L510.694 437.97L510.694 114.07L510.694 114.07L84.744 114.07z" /></clipPath><clipPath id="53"><path d="M84.744 437.97L510.694 437.97L510.694 437.97L510.694 114.07L510.694 114.07L84.744 114.07z" /></clipPath><clipPath id="54"><path d="M84.744 437.97L510.694 437.97L510.694 437.97L510.694 114.07L510.694 114.07L84.744 114.07z" /></clipPath><clipPath id="55"><path d="M84.744 437.97L510.694 437.97L510.694 437.97L510.694 114.07L510.694 114.07L84.744 114.07z" /></clipPath><clipPath id="56"><path d="M84.744 437.97L510.694 437.97L510.694 437.97L510.694 114.07L510.694 114.07L84.744 114.07z" /></clipPath><clipPath id="57"><path d="M84.744 437.97L510.694 437.97L510.694 437.97L510.694 114.07L510.694 114.07L84.744 114.07z" /></clipPath><clipPath id="58"><path d="M84.744 437.97L510.694 437.97L510.694 437.97L510.694 114.07L510.694 114.07L84.744 114.07z" /></clipPath><clipPath id="59"><path d="M84.744 437.97L510.694 437.97L510.694 437.97L510.694 114.07L510.694 114.07L84.744 114.07z" /></clipPath><clipPath id="60"><path d="M84.744 437.97L510.694 437.97L510.694 437.97L510.694 114.07L510.694 114.07L84.744 114.07z" /></clipPath><clipPath id="61"><path d="M84.744 437.97L510.694 437.97L510.694 437.97L510.694 114.07L510.694 114.07L84.744 114.07z" /></clipPath><clipPath id="62"><path d="M84.744 437.97L510.694 437.97L510.694 437.97L510.694 114.07L510.694 114.07L84.744 114.07z" /></clipPath><clipPath id="63"><path d="M84.744 437.97L510.694 437.97L510.694 437.97L510.694 114.07L510.694 114.07L84.744 114.07z" /></clipPath><clipPath id="64"><path d="M84.744 437.97L510.694 437.97L510.694 437.97L510.694 114.07L510.694 114.07L84.744 114.07z" /></clipPath><clipPath id="65"><path d="M84.744 437.97L510.694 437.97L510.694 437.97L510.694 114.07L510.694 114.07L84.744 114.07z" /></clipPath><clipPath id="66"><path d="M84.744 437.97L510.694 437.97L510.694 437.97L510.694 114.07L510.694 114.07L84.744 114.07z" /></clipPath><clipPath id="67"><path d="M84.751 482.16L510.691 482.16L510.691 482.16L510.691 458.01L510.691 458.01L84.751 458.01z" /></clipPath><clipPath id="68"><path d="M84.744 482.15L510.694 482.15L510.694 482.15L510.694 458.006L510.694 458.006L84.744 458.006z" /></clipPath><clipPath id="69"><path d="M84.744 482.15L510.694 482.15L510.694 482.15L510.694 458.006L510.694 458.006L84.744 458.006z" /></clipPath><clipPath id="70"><path d="M84.744 482.15L510.694 482.15L510.694 482.15L510.694 458.006L510.694 458.006L84.744 458.006z" /></clipPath><clipPath id="71"><path d="M84.744 482.15L510.694 482.15L510.694 482.15L510.694 458.006L510.694 458.006L84.744 458.006z" /></clipPath><clipPath id="72"><path d="M84.744 482.15L510.694 482.15L510.694 482.15L510.694 458.006L510.694 458.006L84.744 458.006z" /></clipPath><clipPath id="73"><path d="M84.744 482.15L510.694 482.15L510.694 482.15L510.694 458.006L510.694 458.006L84.744 458.006z" /></clipPath><clipPath id="74"><path d="M84.751 616.08L510.691 616.08L510.691 616.08L510.691 482.76L510.691 482.76L84.751 482.76z" /></clipPath><clipPath id="75"><path d="M84.744 616.07L510.694 616.07L510.694 616.07L510.694 482.75L510.694 482.75L84.744 482.75z" /></clipPath><clipPath id="76"><path d="M84.744 616.07L510.694 616.07L510.694 616.07L510.694 482.75L510.694 482.75L84.744 482.75z" /></clipPath><clipPath id="77"><path d="M84.744 616.07L510.694 616.07L510.694 616.07L510.694 482.75L510.694 482.75L84.744 482.75z" /></clipPath><clipPath id="78"><path d="M84.744 616.07L510.694 616.07L510.694 616.07L510.694 482.75L510.694 482.75L84.744 482.75z" /></clipPath><clipPath id="79"><path d="M84.744 616.07L510.694 616.07L510.694 616.07L510.694 482.75L510.694 482.75L84.744 482.75z" /></clipPath><clipPath id="80"><path d="M84.744 616.07L510.694 616.07L510.694 616.07L510.694 482.75L510.694 482.75L84.744 482.75z" /></clipPath><clipPath id="81"><path d="M84.744 616.07L510.694 616.07L510.694 616.07L510.694 482.75L510.694 482.75L84.744 482.75z" /></clipPath><clipPath id="82"><path d="M84.744 616.07L510.694 616.07L510.694 616.07L510.694 482.75L510.694 482.75L84.744 482.75z" /></clipPath><clipPath id="83"><path d="M84.744 616.07L510.694 616.07L510.694 616.07L510.694 482.75L510.694 482.75L84.744 482.75z" /></clipPath><clipPath id="84"><path d="M84.744 616.07L510.694 616.07L510.694 616.07L510.694 482.75L510.694 482.75L84.744 482.75z" /></clipPath><clipPath id="85"><path d="M84.744 616.07L510.694 616.07L510.694 616.07L510.694 482.75L510.694 482.75L84.744 482.75z" /></clipPath><clipPath id="86"><path d="M84.744 616.07L510.694 616.07L510.694 616.07L510.694 482.75L510.694 482.75L84.744 482.75z" /></clipPath><clipPath id="87"><path d="M84.744 616.07L510.694 616.07L510.694 616.07L510.694 482.75L510.694 482.75L84.744 482.75z" /></clipPath><clipPath id="88"><path d="M84.744 616.07L510.694 616.07L510.694 616.07L510.694 482.75L510.694 482.75L84.744 482.75z" /></clipPath><clipPath id="89"><path d="M84.744 616.07L510.694 616.07L510.694 616.07L510.694 482.75L510.694 482.75L84.744 482.75z" /></clipPath><clipPath id="90"><path d="M84.744 616.07L510.694 616.07L510.694 616.07L510.694 482.75L510.694 482.75L84.744 482.75z" /></clipPath><clipPath id="91"><path d="M84.744 616.07L510.694 616.07L510.694 616.07L510.694 482.75L510.694 482.75L84.744 482.75z" /></clipPath><clipPath id="92"><path d="M84.744 616.07L510.694 616.07L510.694 616.07L510.694 482.75L510.694 482.75L84.744 482.75z" /></clipPath><clipPath id="93"><path d="M84.744 616.07L510.694 616.07L510.694 616.07L510.694 482.75L510.694 482.75L84.744 482.75z" /></clipPath><clipPath id="94"><path d="M84.744 616.07L510.694 616.07L510.694 616.07L510.694 482.75L510.694 482.75L84.744 482.75z" /></clipPath><clipPath id="95"><path d="M84.751 662.65L510.691 662.65L510.691 662.65L510.691 636.115L510.691 636.115L84.751 636.115z" /></clipPath><clipPath id="96"><path d="M84.744 662.66L510.694 662.66L510.694 662.66L510.694 636.116L510.694 636.116L84.744 636.116z" /></clipPath><clipPath id="97"><path d="M84.744 662.66L510.694 662.66L510.694 662.66L510.694 636.116L510.694 636.116L84.744 636.116z" /></clipPath><clipPath id="98"><path d="M84.744 662.66L510.694 662.66L510.694 662.66L510.694 636.116L510.694 636.116L84.744 636.116z" /></clipPath><clipPath id="99"><path d="M84.744 662.66L510.694 662.66L510.694 662.66L510.694 636.116L510.694 636.116L84.744 636.116z" /></clipPath><clipPath id="100"><path d="M84.751 739.45L510.691 739.45L510.691 739.45L510.691 663.25L510.691 663.25L84.751 663.25z" /></clipPath><clipPath id="101"><path d="M84.744 739.46L510.694 739.46L510.694 739.46L510.694 663.26L510.694 663.26L84.744 663.26z" /></clipPath><clipPath id="102"><path d="M84.744 739.46L510.694 739.46L510.694 739.46L510.694 663.26L510.694 663.26L84.744 663.26z" /></clipPath><clipPath id="103"><path d="M84.744 739.46L510.694 739.46L510.694 739.46L510.694 663.26L510.694 663.26L84.744 663.26z" /></clipPath><clipPath id="104"><path d="M84.744 739.46L510.694 739.46L510.694 739.46L510.694 663.26L510.694 663.26L84.744 663.26z" /></clipPath><clipPath id="105"><path d="M84.744 739.46L510.694 739.46L510.694 739.46L510.694 663.26L510.694 663.26L84.744 663.26z" /></clipPath><clipPath id="106"><path d="M84.744 739.46L510.694 739.46L510.694 739.46L510.694 663.26L510.694 663.26L84.744 663.26z" /></clipPath><clipPath id="107"><path d="M84.744 739.46L510.694 739.46L510.694 739.46L510.694 663.26L510.694 663.26L84.744 663.26z" /></clipPath><clipPath id="108"><path d="M84.744 739.46L510.694 739.46L510.694 739.46L510.694 663.26L510.694 663.26L84.744 663.26z" /></clipPath><clipPath id="109"><path d="M84.744 739.46L510.694 739.46L510.694 739.46L510.694 663.26L510.694 663.26L84.744 663.26z" /></clipPath><clipPath id="110"><path d="M84.744 739.46L510.694 739.46L510.694 739.46L510.694 663.26L510.694 663.26L84.744 663.26z" /></clipPath><clipPath id="111"><path d="M84.744 739.46L510.694 739.46L510.694 739.46L510.694 663.26L510.694 663.26L84.744 663.26z" /></clipPath></defs><g transform="matrix(1.333333 0 0 1.333333 0 0)"><g><g clip-path="url(#1)"><path transform="matrix(1 0 0 -1 0 841)" d="M457.51 53.304L505.534 53.304L505.534 53.304L505.534 53.90404L505.534 53.90404L457.51 53.90404z" stroke="none" fill="#000000" fill-rule="evenodd" /><g clip-path="url(#2)"><path transform="matrix(1 0 0 -1 0 841)" d="M88.464 77.904L506.974 77.904L506.974 77.904L506.974 80.904L506.974 80.904L88.464 80.904z" stroke="none" fill="#000000" fill-rule="evenodd" /><path transform="matrix(1 0 0 -1 0 841)" d="M88.464 76.464L506.974 76.464L506.974 76.464L506.974 77.18397L506.974 77.18397L88.464 77.18397z" stroke="none" fill="#000000" fill-rule="evenodd" /></g><g clip-path="url(#3)"><g clip-path="url(#4)"></g><g clip-path="url(#5)"></g></g><path transform="matrix(1 0 0 -1 0 841)" d="M84.744 727.42L510.694 727.42L510.694 727.42L510.694 751.564L510.694 751.564L84.744 751.564z" stroke="none" fill="#0070C0" fill-rule="evenodd" /><g clip-path="url(#6)"><path transform="matrix(1 0 0 -1 0 841)" d="M89.904 727.42L505.534 727.42L505.534 727.42L505.534 751.564L505.534 751.564L89.904 751.564z" stroke="none" fill="#0070C0" fill-rule="evenodd" /><g clip-path="url(#7)"></g><g clip-path="url(#8)"></g><g clip-path="url(#9)"></g><g clip-path="url(#10)"></g><g clip-path="url(#11)"></g><g clip-path="url(#12)"></g></g><path transform="matrix(1 0 0 -1 0 841)" d="M84.264 751.56L84.744 751.56L84.744 751.56L84.744 752.04L84.744 752.04L84.264 752.04z" stroke="none" fill="#000000" fill-rule="evenodd" /><path transform="matrix(1 0 0 -1 0 841)" d="M84.264 751.56L84.744 751.56L84.744 751.56L84.744 752.04L84.744 752.04L84.264 752.04z" stroke="none" fill="#000000" fill-rule="evenodd" /><path transform="matrix(1 0 0 -1 0 841)" d="M84.744 751.56L510.694 751.56L510.694 751.56L510.694 752.04L510.694 752.04L84.744 752.04z" stroke="none" fill="#000000" fill-rule="evenodd" /><path transform="matrix(1 0 0 -1 0 841)" d="M510.7 751.56L511.18 751.56L511.18 751.56L511.18 752.04L511.18 752.04L510.7 752.04z" stroke="none" fill="#000000" fill-rule="evenodd" /><path transform="matrix(1 0 0 -1 0 841)" d="M510.7 751.56L511.18 751.56L511.18 751.56L511.18 752.04L511.18 752.04L510.7 752.04z" stroke="none" fill="#000000" fill-rule="evenodd" /><path transform="matrix(1 0 0 -1 0 841)" d="M84.264 727.42L84.744 727.42L84.744 727.42L84.744 751.564L84.744 751.564L84.264 751.564z" stroke="none" fill="#000000" fill-rule="evenodd" /><path transform="matrix(1 0 0 -1 0 841)" d="M510.7 727.42L511.18 727.42L511.18 727.42L511.18 751.564L511.18 751.564L510.7 751.564z" stroke="none" fill="#000000" fill-rule="evenodd" /><path transform="matrix(1 0 0 -1 0 841)" d="M84.744 403.03L510.694 403.03L510.694 403.03L510.694 726.93L510.694 726.93L84.744 726.93z" stroke="none" fill="#DAEEF3" fill-rule="evenodd" /><g clip-path="url(#13)"><path transform="matrix(1 0 0 -1 0 841)" d="M89.904 707.86L505.534 707.86L505.534 707.86L505.534 726.94L505.534 726.94L89.904 726.94z" stroke="none" fill="#DAEEF3" fill-rule="evenodd" /><g clip-path="url(#14)"></g><g clip-path="url(#15)"></g><g clip-path="url(#16)"></g><path transform="matrix(1 0 0 -1 0 841)" d="M89.904 688.78L505.534 688.78L505.534 688.78L505.534 707.86L505.534 707.86L89.904 707.86z" stroke="none" fill="#DAEEF3" fill-rule="evenodd" /><g clip-path="url(#17)"></g><g clip-path="url(#18)"></g><g clip-path="url(#19)"></g><path transform="matrix(1 0 0 -1 0 841)" d="M89.904 669.7L505.534 669.7L505.534 669.7L505.534 688.78L505.534 688.78L89.904 688.78z" stroke="none" fill="#DAEEF3" fill-rule="evenodd" /><g clip-path="url(#20)"></g><g clip-path="url(#21)"></g><g clip-path="url(#22)"></g><g clip-path="url(#23)"></g><path transform="matrix(1 0 0 -1 0 841)" d="M89.904 650.74L505.534 650.74L505.534 650.74L505.534 669.7L505.534 669.7L89.904 669.7z" stroke="none" fill="#DAEEF3" fill-rule="evenodd" /><g clip-path="url(#24)"></g><g clip-path="url(#25)"></g><g clip-path="url(#26)"></g><path transform="matrix(1 0 0 -1 0 841)" d="M89.904 631.66L505.534 631.66L505.534 631.66L505.534 650.74L505.534 650.74L89.904 650.74z" stroke="none" fill="#DAEEF3" fill-rule="evenodd" /><g clip-path="url(#27)"></g><g clip-path="url(#28)"></g><g clip-path="url(#29)"></g><path transform="matrix(1 0 0 -1 0 841)" d="M89.904 612.58L505.534 612.58L505.534 612.58L505.534 631.66L505.534 631.66L89.904 631.66z" stroke="none" fill="#DAEEF3" fill-rule="evenodd" /><g clip-path="url(#30)"></g><g clip-path="url(#31)"></g><g clip-path="url(#32)"></g><g clip-path="url(#33)"></g><g clip-path="url(#34)"></g><path transform="matrix(1 0 0 -1 0 841)" d="M89.904 593.5L505.534 593.5L505.534 593.5L505.534 612.58L505.534 612.58L89.904 612.58z" stroke="none" fill="#DAEEF3" fill-rule="evenodd" /><g clip-path="url(#35)"></g><g clip-path="url(#36)"></g><g clip-path="url(#37)"></g><path transform="matrix(1 0 0 -1 0 841)" d="M89.904 574.54L505.534 574.54L505.534 574.54L505.534 593.5L505.534 593.5L89.904 593.5z" stroke="none" fill="#DAEEF3" fill-rule="evenodd" /><g clip-path="url(#38)"></g><g clip-path="url(#39)"></g><g clip-path="url(#40)"></g><g clip-path="url(#41)"></g><path transform="matrix(1 0 0 -1 0 841)" d="M89.904 555.43L505.534 555.43L505.534 555.43L505.534 574.534L505.534 574.534L89.904 574.534z" stroke="none" fill="#DAEEF3" fill-rule="evenodd" /><g clip-path="url(#42)"></g><g clip-path="url(#43)"></g><g clip-path="url(#44)"></g><path transform="matrix(1 0 0 -1 0 841)" d="M89.904 536.35L505.534 536.35L505.534 536.35L505.534 555.43L505.534 555.43L89.904 555.43z" stroke="none" fill="#DAEEF3" fill-rule="evenodd" /><g clip-path="url(#45)"></g><g clip-path="url(#46)"></g><g clip-path="url(#47)"></g><g clip-path="url(#48)"></g><g clip-path="url(#49)"></g><path transform="matrix(1 0 0 -1 0 841)" d="M89.904 517.27L505.534 517.27L505.534 517.27L505.534 536.35L505.534 536.35L89.904 536.35z" stroke="none" fill="#DAEEF3" fill-rule="evenodd" /><g clip-path="url(#50)"></g><g clip-path="url(#51)"></g><g clip-path="url(#52)"></g><path transform="matrix(1 0 0 -1 0 841)" d="M89.904 498.31L505.534 498.31L505.534 498.31L505.534 517.27L505.534 517.27L89.904 517.27z" stroke="none" fill="#DAEEF3" fill-rule="evenodd" /><g clip-path="url(#53)"></g><g clip-path="url(#54)"></g><g clip-path="url(#55)"></g><path transform="matrix(1 0 0 -1 0 841)" d="M89.904 479.23L505.534 479.23L505.534 479.23L505.534 498.31L505.534 498.31L89.904 498.31z" stroke="none" fill="#DAEEF3" fill-rule="evenodd" /><g clip-path="url(#56)"></g><g clip-path="url(#57)"></g><g clip-path="url(#58)"></g><path transform="matrix(1 0 0 -1 0 841)" d="M89.904 460.15L505.534 460.15L505.534 460.15L505.534 479.23L505.534 479.23L89.904 479.23z" stroke="none" fill="#DAEEF3" fill-rule="evenodd" /><g clip-path="url(#59)"></g><g clip-path="url(#60)"></g><g clip-path="url(#61)"></g><path transform="matrix(1 0 0 -1 0 841)" d="M89.904 441.07L505.534 441.07L505.534 441.07L505.534 460.15L505.534 460.15L89.904 460.15z" stroke="none" fill="#DAEEF3" fill-rule="evenodd" /><g clip-path="url(#62)"></g><g clip-path="url(#63)"></g><path transform="matrix(1 0 0 -1 0 841)" d="M89.904 422.11L505.534 422.11L505.534 422.11L505.534 441.07L505.534 441.07L89.904 441.07z" stroke="none" fill="#DAEEF3" fill-rule="evenodd" /><g clip-path="url(#64)"></g><path transform="matrix(1 0 0 -1 0 841)" d="M89.904 403.03L505.534 403.03L505.534 403.03L505.534 422.11L505.534 422.11L89.904 422.11z" stroke="none" fill="#DAEEF3" fill-rule="evenodd" /><g clip-path="url(#65)"></g><g clip-path="url(#66)"></g></g><path transform="matrix(1 0 0 -1 0 841)" d="M84.264 726.94L84.744 726.94L84.744 726.94L84.744 727.42L84.744 727.42L84.264 727.42z" stroke="none" fill="#000000" fill-rule="evenodd" /><path transform="matrix(1 0 0 -1 0 841)" d="M84.744 726.94L510.694 726.94L510.694 726.94L510.694 727.42L510.694 727.42L84.744 727.42z" stroke="none" fill="#000000" fill-rule="evenodd" /><path transform="matrix(1 0 0 -1 0 841)" d="M510.7 726.94L511.18 726.94L511.18 726.94L511.18 727.42L511.18 727.42L510.7 727.42z" stroke="none" fill="#000000" fill-rule="evenodd" /><path transform="matrix(1 0 0 -1 0 841)" d="M84.264 403.03L84.744 403.03L84.744 403.03L84.744 726.93L84.744 726.93L84.264 726.93z" stroke="none" fill="#000000" fill-rule="evenodd" /><path transform="matrix(1 0 0 -1 0 841)" d="M84.264 402.55L84.744 402.55L84.744 402.55L84.744 403.03L84.744 403.03L84.264 403.03z" stroke="none" fill="#000000" fill-rule="evenodd" /><path transform="matrix(1 0 0 -1 0 841)" d="M84.264 402.55L84.744 402.55L84.744 402.55L84.744 403.03L84.744 403.03L84.264 403.03z" stroke="none" fill="#000000" fill-rule="evenodd" /><path transform="matrix(1 0 0 -1 0 841)" d="M84.744 402.55L510.694 402.55L510.694 402.55L510.694 403.03L510.694 403.03L84.744 403.03z" stroke="none" fill="#000000" fill-rule="evenodd" /><path transform="matrix(1 0 0 -1 0 841)" d="M510.7 403.03L511.18 403.03L511.18 403.03L511.18 726.93L511.18 726.93L510.7 726.93z" stroke="none" fill="#000000" fill-rule="evenodd" /><path transform="matrix(1 0 0 -1 0 841)" d="M510.7 402.55L511.18 402.55L511.18 402.55L511.18 403.03L511.18 403.03L510.7 403.03z" stroke="none" fill="#000000" fill-rule="evenodd" /><path transform="matrix(1 0 0 -1 0 841)" d="M510.7 402.55L511.18 402.55L511.18 402.55L511.18 403.03L511.18 403.03L510.7 403.03z" stroke="none" fill="#000000" fill-rule="evenodd" /><path transform="matrix(1 0 0 -1 0 841)" d="M84.744 358.85L510.694 358.85L510.694 358.85L510.694 382.994L510.694 382.994L84.744 382.994z" stroke="none" fill="#0070C0" fill-rule="evenodd" /><g clip-path="url(#67)"><path transform="matrix(1 0 0 -1 0 841)" d="M89.904 358.85L505.534 358.85L505.534 358.85L505.534 382.994L505.534 382.994L89.904 382.994z" stroke="none" fill="#0070C0" fill-rule="evenodd" /><g clip-path="url(#68)"></g><g clip-path="url(#69)"></g><g clip-path="url(#70)"></g><g clip-path="url(#71)"></g><g clip-path="url(#72)"></g><g clip-path="url(#73)"></g></g><path transform="matrix(1 0 0 -1 0 841)" d="M84.264 382.99L84.744 382.99L84.744 382.99L84.744 383.47L84.744 383.47L84.264 383.47z" stroke="none" fill="#000000" fill-rule="evenodd" /><path transform="matrix(1 0 0 -1 0 841)" d="M84.264 382.99L84.744 382.99L84.744 382.99L84.744 383.47L84.744 383.47L84.264 383.47z" stroke="none" fill="#000000" fill-rule="evenodd" /><path transform="matrix(1 0 0 -1 0 841)" d="M84.744 382.99L510.694 382.99L510.694 382.99L510.694 383.47L510.694 383.47L84.744 383.47z" stroke="none" fill="#000000" fill-rule="evenodd" /><path transform="matrix(1 0 0 -1 0 841)" d="M510.7 382.99L511.18 382.99L511.18 382.99L511.18 383.47L511.18 383.47L510.7 383.47z" stroke="none" fill="#000000" fill-rule="evenodd" /><path transform="matrix(1 0 0 -1 0 841)" d="M510.7 382.99L511.18 382.99L511.18 382.99L511.18 383.47L511.18 383.47L510.7 383.47z" stroke="none" fill="#000000" fill-rule="evenodd" /><path transform="matrix(1 0 0 -1 0 841)" d="M84.264 358.85L84.744 358.85L84.744 358.85L84.744 382.994L84.744 382.994L84.264 382.994z" stroke="none" fill="#000000" fill-rule="evenodd" /><path transform="matrix(1 0 0 -1 0 841)" d="M510.7 358.85L511.18 358.85L511.18 358.85L511.18 382.994L511.18 382.994L510.7 382.994z" stroke="none" fill="#000000" fill-rule="evenodd" /><path transform="matrix(1 0 0 -1 0 841)" d="M84.744 224.93L510.694 224.93L510.694 224.93L510.694 358.25L510.694 358.25L84.744 358.25z" stroke="none" fill="#DAEEF3" fill-rule="evenodd" /><g clip-path="url(#74)"><path transform="matrix(1 0 0 -1 0 841)" d="M89.904 339.29L505.534 339.29L505.534 339.29L505.534 358.25L505.534 358.25L89.904 358.25z" stroke="none" fill="#DAEEF3" fill-rule="evenodd" /><g clip-path="url(#75)"></g><g clip-path="url(#76)"></g><path transform="matrix(1 0 0 -1 0 841)" d="M89.904 320.21L505.534 320.21L505.534 320.21L505.534 339.29L505.534 339.29L89.904 339.29z" stroke="none" fill="#DAEEF3" fill-rule="evenodd" /><g clip-path="url(#77)"></g><g clip-path="url(#78)"></g><g clip-path="url(#79)"></g><path transform="matrix(1 0 0 -1 0 841)" d="M89.904 301.13L505.534 301.13L505.534 301.13L505.534 320.21L505.534 320.21L89.904 320.21z" stroke="none" fill="#DAEEF3" fill-rule="evenodd" /><g clip-path="url(#80)"></g><g clip-path="url(#81)"></g><g clip-path="url(#82)"></g><path transform="matrix(1 0 0 -1 0 841)" d="M89.904 282.05L505.534 282.05L505.534 282.05L505.534 301.13L505.534 301.13L89.904 301.13z" stroke="none" fill="#DAEEF3" fill-rule="evenodd" /><g clip-path="url(#83)"></g><g clip-path="url(#84)"></g><g clip-path="url(#85)"></g><path transform="matrix(1 0 0 -1 0 841)" d="M89.904 263.09L505.534 263.09L505.534 263.09L505.534 282.05L505.534 282.05L89.904 282.05z" stroke="none" fill="#DAEEF3" fill-rule="evenodd" /><g clip-path="url(#86)"></g><g clip-path="url(#87)"></g><g clip-path="url(#88)"></g><path transform="matrix(1 0 0 -1 0 841)" d="M89.904 244.01L505.534 244.01L505.534 244.01L505.534 263.09L505.534 263.09L89.904 263.09z" stroke="none" fill="#DAEEF3" fill-rule="evenodd" /><g clip-path="url(#89)"></g><g clip-path="url(#90)"></g><g clip-path="url(#91)"></g><path transform="matrix(1 0 0 -1 0 841)" d="M89.904 224.93L505.534 224.93L505.534 224.93L505.534 244.01L505.534 244.01L89.904 244.01z" stroke="none" fill="#DAEEF3" fill-rule="evenodd" /><g clip-path="url(#92)"></g><g clip-path="url(#93)"></g><g clip-path="url(#94)"></g></g><path transform="matrix(1 0 0 -1 0 841)" d="M84.264 358.37L84.744 358.37L84.744 358.37L84.744 358.85L84.744 358.85L84.264 358.85z" stroke="none" fill="#000000" fill-rule="evenodd" /><path transform="matrix(1 0 0 -1 0 841)" d="M84.744 358.37L510.694 358.37L510.694 358.37L510.694 358.85L510.694 358.85L84.744 358.85z" stroke="none" fill="#000000" fill-rule="evenodd" /><path transform="matrix(1 0 0 -1 0 841)" d="M510.7 358.37L511.18 358.37L511.18 358.37L511.18 358.85L511.18 358.85L510.7 358.85z" stroke="none" fill="#000000" fill-rule="evenodd" /><path transform="matrix(1 0 0 -1 0 841)" d="M84.264 224.93L84.744 224.93L84.744 224.93L84.744 358.37L84.744 358.37L84.264 358.37z" stroke="none" fill="#000000" fill-rule="evenodd" /><path transform="matrix(1 0 0 -1 0 841)" d="M84.264 224.45L84.744 224.45L84.744 224.45L84.744 224.93L84.744 224.93L84.264 224.93z" stroke="none" fill="#000000" fill-rule="evenodd" /><path transform="matrix(1 0 0 -1 0 841)" d="M84.264 224.45L84.744 224.45L84.744 224.45L84.744 224.93L84.744 224.93L84.264 224.93z" stroke="none" fill="#000000" fill-rule="evenodd" /><path transform="matrix(1 0 0 -1 0 841)" d="M84.744 224.45L510.694 224.45L510.694 224.45L510.694 224.93L510.694 224.93L84.744 224.93z" stroke="none" fill="#000000" fill-rule="evenodd" /><path transform="matrix(1 0 0 -1 0 841)" d="M510.7 224.93L511.18 224.93L511.18 224.93L511.18 358.37L511.18 358.37L510.7 358.37z" stroke="none" fill="#000000" fill-rule="evenodd" /><path transform="matrix(1 0 0 -1 0 841)" d="M510.7 224.45L511.18 224.45L511.18 224.45L511.18 224.93L511.18 224.93L510.7 224.93z" stroke="none" fill="#000000" fill-rule="evenodd" /><path transform="matrix(1 0 0 -1 0 841)" d="M510.7 224.45L511.18 224.45L511.18 224.45L511.18 224.93L511.18 224.93L510.7 224.93z" stroke="none" fill="#000000" fill-rule="evenodd" /><path transform="matrix(1 0 0 -1 0 841)" d="M84.744 178.34L510.694 178.34L510.694 178.34L510.694 204.884L510.694 204.884L84.744 204.884z" stroke="none" fill="#0070C0" fill-rule="evenodd" /><g clip-path="url(#95)"><path transform="matrix(1 0 0 -1 0 841)" d="M89.904 178.34L505.534 178.34L505.534 178.34L505.534 204.884L505.534 204.884L89.904 204.884z" stroke="none" fill="#0070C0" fill-rule="evenodd" /><g clip-path="url(#96)"></g><g clip-path="url(#97)"></g><g clip-path="url(#98)"></g><g clip-path="url(#99)"></g></g><path transform="matrix(1 0 0 -1 0 841)" d="M84.264 204.89L84.744 204.89L84.744 204.89L84.744 205.37L84.744 205.37L84.264 205.37z" stroke="none" fill="#000000" fill-rule="evenodd" /><path transform="matrix(1 0 0 -1 0 841)" d="M84.264 204.89L84.744 204.89L84.744 204.89L84.744 205.37L84.744 205.37L84.264 205.37z" stroke="none" fill="#000000" fill-rule="evenodd" /><path transform="matrix(1 0 0 -1 0 841)" d="M84.744 204.89L510.694 204.89L510.694 204.89L510.694 205.37L510.694 205.37L84.744 205.37z" stroke="none" fill="#000000" fill-rule="evenodd" /><path transform="matrix(1 0 0 -1 0 841)" d="M510.7 204.89L511.18 204.89L511.18 204.89L511.18 205.37L511.18 205.37L510.7 205.37z" stroke="none" fill="#000000" fill-rule="evenodd" /><path transform="matrix(1 0 0 -1 0 841)" d="M510.7 204.89L511.18 204.89L511.18 204.89L511.18 205.37L511.18 205.37L510.7 205.37z" stroke="none" fill="#000000" fill-rule="evenodd" /><path transform="matrix(1 0 0 -1 0 841)" d="M84.264 178.34L84.744 178.34L84.744 178.34L84.744 204.884L84.744 204.884L84.264 204.884z" stroke="none" fill="#000000" fill-rule="evenodd" /><path transform="matrix(1 0 0 -1 0 841)" d="M510.7 178.34L511.18 178.34L511.18 178.34L511.18 204.884L511.18 204.884L510.7 204.884z" stroke="none" fill="#000000" fill-rule="evenodd" /><path transform="matrix(1 0 0 -1 0 841)" d="M84.744 101.54L510.694 101.54L510.694 101.54L510.694 177.74L510.694 177.74L84.744 177.74z" stroke="none" fill="#DAEEF3" fill-rule="evenodd" /><g clip-path="url(#100)"><path transform="matrix(1 0 0 -1 0 841)" d="M89.904 158.78L505.534 158.78L505.534 158.78L505.534 177.74L505.534 177.74L89.904 177.74z" stroke="none" fill="#DAEEF3" fill-rule="evenodd" /><g clip-path="url(#101)"></g><g clip-path="url(#102)"></g><path transform="matrix(1 0 0 -1 0 841)" d="M89.904 139.7L505.534 139.7L505.534 139.7L505.534 158.78L505.534 158.78L89.904 158.78z" stroke="none" fill="#DAEEF3" fill-rule="evenodd" /><g clip-path="url(#103)"></g><g clip-path="url(#104)"></g><g clip-path="url(#105)"></g><path transform="matrix(1 0 0 -1 0 841)" d="M89.904 120.62L505.534 120.62L505.534 120.62L505.534 139.7L505.534 139.7L89.904 139.7z" stroke="none" fill="#DAEEF3" fill-rule="evenodd" /><g clip-path="url(#106)"></g><g clip-path="url(#107)"></g><g clip-path="url(#108)"></g><path transform="matrix(1 0 0 -1 0 841)" d="M89.904 101.54L505.534 101.54L505.534 101.54L505.534 120.62L505.534 120.62L89.904 120.62z" stroke="none" fill="#DAEEF3" fill-rule="evenodd" /><g clip-path="url(#109)"></g><g clip-path="url(#110)"></g><g clip-path="url(#111)"></g></g><path transform="matrix(1 0 0 -1 0 841)" d="M84.264 177.86L84.744 177.86L84.744 177.86L84.744 178.34L84.744 178.34L84.264 178.34z" stroke="none" fill="#000000" fill-rule="evenodd" /><path transform="matrix(1 0 0 -1 0 841)" d="M84.744 177.86L510.694 177.86L510.694 177.86L510.694 178.34L510.694 178.34L84.744 178.34z" stroke="none" fill="#000000" fill-rule="evenodd" /><path transform="matrix(1 0 0 -1 0 841)" d="M510.7 177.86L511.18 177.86L511.18 177.86L511.18 178.34L511.18 178.34L510.7 178.34z" stroke="none" fill="#000000" fill-rule="evenodd" /><path transform="matrix(1 0 0 -1 0 841)" d="M84.264 101.54L84.744 101.54L84.744 101.54L84.744 177.86L84.744 177.86L84.264 177.86z" stroke="none" fill="#000000" fill-rule="evenodd" /><path transform="matrix(1 0 0 -1 0 841)" d="M84.264 101.06L84.744 101.06L84.744 101.06L84.744 101.54L84.744 101.54L84.264 101.54z" stroke="none" fill="#000000" fill-rule="evenodd" /><path transform="matrix(1 0 0 -1 0 841)" d="M84.264 101.06L84.744 101.06L84.744 101.06L84.744 101.54L84.744 101.54L84.264 101.54z" stroke="none" fill="#000000" fill-rule="evenodd" /><path transform="matrix(1 0 0 -1 0 841)" d="M84.744 101.06L510.694 101.06L510.694 101.06L510.694 101.54L510.694 101.54L84.744 101.54z" stroke="none" fill="#000000" fill-rule="evenodd" /><path transform="matrix(1 0 0 -1 0 841)" d="M510.7 101.54L511.18 101.54L511.18 101.54L511.18 177.86L511.18 177.86L510.7 177.86z" stroke="none" fill="#000000" fill-rule="evenodd" /><path transform="matrix(1 0 0 -1 0 841)" d="M510.7 101.06L511.18 101.06L511.18 101.06L511.18 101.54L511.18 101.54L510.7 101.54z" stroke="none" fill="#000000" fill-rule="evenodd" /><path transform="matrix(1 0 0 -1 0 841)" d="M510.7 101.06L511.18 101.06L511.18 101.06L511.18 101.54L511.18 101.54L510.7 101.54z" stroke="none" fill="#000000" fill-rule="evenodd" /></g></g></g></svg>