<svg xmlns="http://www.w3.org/2000/svg" xmlns:xlink="http://www.w3.org/1999/xlink" id="body_235" preserveAspectRatio="xMinYMin meet" viewBox="0 0 793 1121"><defs><clipPath id="1"><path d="M0 841L0 -0.9199829L0 -0.9199829L595.32 -0.9199829L595.32 -0.9199829L595.32 841L595.32 841L0 841z" /></clipPath><clipPath id="2"><path d="M0.00125 841.0914L595.4112 841.0914L595.4112 841.0914L595.4112 -0.9186401L595.4112 -0.9186401L0.00125 -0.9186401z" /></clipPath><clipPath id="3"><path d="M288.05 781.211L316.01 781.211L316.01 781.211L316.01 762.011L316.01 762.011L288.05 762.011z" /></clipPath><clipPath id="4"><path d="M288.05 781.216L316.01 781.216L316.01 781.216L316.01 762.016L316.01 762.016L288.05 762.016z" /></clipPath><clipPath id="5"><path d="M288.05 781.216L316.01 781.216L316.01 781.216L316.01 762.016L316.01 762.016L288.05 762.016z" /></clipPath><clipPath id="6"><path d="M84.751 155.95L171.991 155.95L171.991 155.95L171.991 130.99L171.991 130.99L84.751 130.99z" /></clipPath><clipPath id="7"><path d="M84.744 155.94L171.984 155.94L171.984 155.94L171.984 130.98L171.984 130.98L84.744 130.98z" /></clipPath><clipPath id="8"><path d="M84.744 155.94L171.984 155.94L171.984 155.94L171.984 130.98L171.984 130.98L84.744 130.98z" /></clipPath><clipPath id="9"><path d="M172.59 155.95L219.405 155.95L219.405 155.95L219.405 130.99L219.405 130.99L172.59 130.99z" /></clipPath><clipPath id="10"><path d="M172.58 155.94L219.404 155.94L219.404 155.94L219.404 130.98L219.404 130.98L172.58 130.98z" /></clipPath><clipPath id="11"><path d="M172.58 155.94L219.404 155.94L219.404 155.94L219.404 130.98L219.404 130.98L172.58 130.98z" /></clipPath><clipPath id="12"><path d="M219.89 155.95L265.85 155.95L265.85 155.95L265.85 130.99L265.85 130.99L219.89 130.99z" /></clipPath><clipPath id="13"><path d="M219.89 155.94L265.85 155.94L265.85 155.94L265.85 130.98L265.85 130.98L219.89 130.98z" /></clipPath><clipPath id="14"><path d="M219.89 155.94L265.85 155.94L265.85 155.94L265.85 130.98L265.85 130.98L219.89 130.98z" /></clipPath><clipPath id="15"><path d="M266.33 155.95L368.36 155.95L368.36 155.95L368.36 130.99L368.36 130.99L266.33 130.99z" /></clipPath><clipPath id="16"><path d="M266.33 155.94L368.35 155.94L368.35 155.94L368.35 130.98L368.35 130.98L266.33 130.98z" /></clipPath><clipPath id="17"><path d="M266.33 155.94L368.35 155.94L368.35 155.94L368.35 130.98L368.35 130.98L266.33 130.98z" /></clipPath><clipPath id="18"><path d="M368.84 155.95L510.7 155.95L510.7 155.95L510.7 130.99L510.7 130.99L368.84 130.99z" /></clipPath><clipPath id="19"><path d="M368.83 155.94L510.69 155.94L510.69 155.94L510.69 130.98L510.69 130.98L368.83 130.98z" /></clipPath><clipPath id="20"><path d="M368.83 155.94L510.69 155.94L510.69 155.94L510.69 130.98L510.69 130.98L368.83 130.98z" /></clipPath><clipPath id="21"><path d="M84.751 181.51L171.991 181.51L171.991 181.51L171.991 156.55L171.991 156.55L84.751 156.55z" /></clipPath><clipPath id="22"><path d="M84.744 181.5L171.984 181.5L171.984 181.5L171.984 156.54L171.984 156.54L84.744 156.54z" /></clipPath><clipPath id="23"><path d="M84.744 181.5L171.984 181.5L171.984 181.5L171.984 156.54L171.984 156.54L84.744 156.54z" /></clipPath><clipPath id="24"><path d="M172.59 181.51L219.405 181.51L219.405 181.51L219.405 156.55L219.405 156.55L172.59 156.55z" /></clipPath><clipPath id="25"><path d="M172.58 181.5L219.404 181.5L219.404 181.5L219.404 156.54L219.404 156.54L172.58 156.54z" /></clipPath><clipPath id="26"><path d="M172.58 181.5L219.404 181.5L219.404 181.5L219.404 156.54L219.404 156.54L172.58 156.54z" /></clipPath><clipPath id="27"><path d="M219.89 181.51L265.85 181.51L265.85 181.51L265.85 156.55L265.85 156.55L219.89 156.55z" /></clipPath><clipPath id="28"><path d="M219.89 181.5L265.85 181.5L265.85 181.5L265.85 156.54L265.85 156.54L219.89 156.54z" /></clipPath><clipPath id="29"><path d="M219.89 181.5L265.85 181.5L265.85 181.5L265.85 156.54L265.85 156.54L219.89 156.54z" /></clipPath><clipPath id="30"><path d="M266.33 181.51L368.36 181.51L368.36 181.51L368.36 156.55L368.36 156.55L266.33 156.55z" /></clipPath><clipPath id="31"><path d="M266.33 181.5L368.35 181.5L368.35 181.5L368.35 156.54L368.35 156.54L266.33 156.54z" /></clipPath><clipPath id="32"><path d="M266.33 181.5L368.35 181.5L368.35 181.5L368.35 156.54L368.35 156.54L266.33 156.54z" /></clipPath><clipPath id="33"><path d="M368.84 181.51L510.7 181.51L510.7 181.51L510.7 156.55L510.7 156.55L368.84 156.55z" /></clipPath><clipPath id="34"><path d="M368.83 181.5L510.69 181.5L510.69 181.5L510.69 156.54L510.69 156.54L368.83 156.54z" /></clipPath><clipPath id="35"><path d="M368.83 181.5L510.69 181.5L510.69 181.5L510.69 156.54L510.69 156.54L368.83 156.54z" /></clipPath><clipPath id="36"><path d="M84.751 212.47L171.991 212.47L171.991 212.47L171.991 182.11L171.991 182.11L84.751 182.11z" /></clipPath><clipPath id="37"><path d="M84.744 212.46L171.984 212.46L171.984 212.46L171.984 182.1L171.984 182.1L84.744 182.1z" /></clipPath><clipPath id="38"><path d="M84.744 212.46L171.984 212.46L171.984 212.46L171.984 182.1L171.984 182.1L84.744 182.1z" /></clipPath><clipPath id="39"><path d="M172.59 212.47L219.405 212.47L219.405 212.47L219.405 182.11L219.405 182.11L172.59 182.11z" /></clipPath><clipPath id="40"><path d="M172.58 212.46L219.404 212.46L219.404 212.46L219.404 182.1L219.404 182.1L172.58 182.1z" /></clipPath><clipPath id="41"><path d="M172.58 212.46L219.404 212.46L219.404 212.46L219.404 182.1L219.404 182.1L172.58 182.1z" /></clipPath><clipPath id="42"><path d="M219.89 212.47L265.85 212.47L265.85 212.47L265.85 182.11L265.85 182.11L219.89 182.11z" /></clipPath><clipPath id="43"><path d="M219.89 212.46L265.85 212.46L265.85 212.46L265.85 182.1L265.85 182.1L219.89 182.1z" /></clipPath><clipPath id="44"><path d="M219.89 212.46L265.85 212.46L265.85 212.46L265.85 182.1L265.85 182.1L219.89 182.1z" /></clipPath><clipPath id="45"><path d="M266.33 212.47L368.36 212.47L368.36 212.47L368.36 182.11L368.36 182.11L266.33 182.11z" /></clipPath><clipPath id="46"><path d="M266.33 212.46L368.35 212.46L368.35 212.46L368.35 182.1L368.35 182.1L266.33 182.1z" /></clipPath><clipPath id="47"><path d="M266.33 212.46L368.35 212.46L368.35 212.46L368.35 182.1L368.35 182.1L266.33 182.1z" /></clipPath><clipPath id="48"><path d="M266.33 212.46L368.35 212.46L368.35 212.46L368.35 182.1L368.35 182.1L266.33 182.1z" /></clipPath><clipPath id="49"><path d="M266.33 212.46L368.35 212.46L368.35 212.46L368.35 182.1L368.35 182.1L266.33 182.1z" /></clipPath><clipPath id="50"><path d="M368.84 212.47L510.7 212.47L510.7 212.47L510.7 182.11L510.7 182.11L368.84 182.11z" /></clipPath><clipPath id="51"><path d="M368.83 212.46L510.69 212.46L510.69 212.46L510.69 182.1L510.69 182.1L368.83 182.1z" /></clipPath><clipPath id="52"><path d="M368.83 212.46L510.69 212.46L510.69 212.46L510.69 182.1L510.69 182.1L368.83 182.1z" /></clipPath><clipPath id="53"><path d="M368.83 212.46L510.69 212.46L510.69 212.46L510.69 182.1L510.69 182.1L368.83 182.1z" /></clipPath><clipPath id="54"><path d="M368.83 212.46L510.69 212.46L510.69 212.46L510.69 182.1L510.69 182.1L368.83 182.1z" /></clipPath><clipPath id="55"><path d="M84.751 253.63L171.991 253.63L171.991 253.63L171.991 212.95L171.991 212.95L84.751 212.95z" /></clipPath><clipPath id="56"><path d="M84.744 253.62L171.984 253.62L171.984 253.62L171.984 212.94L171.984 212.94L84.744 212.94z" /></clipPath><clipPath id="57"><path d="M84.744 253.62L171.984 253.62L171.984 253.62L171.984 212.94L171.984 212.94L84.744 212.94z" /></clipPath><clipPath id="58"><path d="M172.59 253.63L219.405 253.63L219.405 253.63L219.405 212.95L219.405 212.95L172.59 212.95z" /></clipPath><clipPath id="59"><path d="M172.58 253.62L219.404 253.62L219.404 253.62L219.404 212.94L219.404 212.94L172.58 212.94z" /></clipPath><clipPath id="60"><path d="M172.58 253.62L219.404 253.62L219.404 253.62L219.404 212.94L219.404 212.94L172.58 212.94z" /></clipPath><clipPath id="61"><path d="M219.89 253.63L265.85 253.63L265.85 253.63L265.85 212.95L265.85 212.95L219.89 212.95z" /></clipPath><clipPath id="62"><path d="M219.89 253.62L265.85 253.62L265.85 253.62L265.85 212.94L265.85 212.94L219.89 212.94z" /></clipPath><clipPath id="63"><path d="M219.89 253.62L265.85 253.62L265.85 253.62L265.85 212.94L265.85 212.94L219.89 212.94z" /></clipPath><clipPath id="64"><path d="M266.33 253.63L368.36 253.63L368.36 253.63L368.36 212.95L368.36 212.95L266.33 212.95z" /></clipPath><clipPath id="65"><path d="M266.33 253.62L368.35 253.62L368.35 253.62L368.35 212.94L368.35 212.94L266.33 212.94z" /></clipPath><clipPath id="66"><path d="M368.84 253.63L510.7 253.63L510.7 253.63L510.7 212.95L510.7 212.95L368.84 212.95z" /></clipPath><clipPath id="67"><path d="M368.83 253.62L510.69 253.62L510.69 253.62L510.69 212.94L510.69 212.94L368.83 212.94z" /></clipPath><clipPath id="68"><path d="M368.83 253.62L510.69 253.62L510.69 253.62L510.69 212.94L510.69 212.94L368.83 212.94z" /></clipPath><clipPath id="69"><path d="M368.83 253.62L510.69 253.62L510.69 253.62L510.69 212.94L510.69 212.94L368.83 212.94z" /></clipPath><clipPath id="70"><path d="M368.83 253.62L510.69 253.62L510.69 253.62L510.69 212.94L510.69 212.94L368.83 212.94z" /></clipPath><clipPath id="71"><path d="M368.83 253.62L510.69 253.62L510.69 253.62L510.69 212.94L510.69 212.94L368.83 212.94z" /></clipPath><clipPath id="72"><path d="M368.83 253.62L510.69 253.62L510.69 253.62L510.69 212.94L510.69 212.94L368.83 212.94z" /></clipPath><clipPath id="73"><path d="M368.83 253.62L510.69 253.62L510.69 253.62L510.69 212.94L510.69 212.94L368.83 212.94z" /></clipPath><clipPath id="74"><path d="M84.751 284.49L171.991 284.49L171.991 284.49L171.991 254.115L171.991 254.115L84.751 254.115z" /></clipPath><clipPath id="75"><path d="M84.744 284.49L171.984 284.49L171.984 284.49L171.984 254.106L171.984 254.106L84.744 254.106z" /></clipPath><clipPath id="76"><path d="M84.744 284.49L171.984 284.49L171.984 284.49L171.984 254.106L171.984 254.106L84.744 254.106z" /></clipPath><clipPath id="77"><path d="M172.59 284.49L219.405 284.49L219.405 284.49L219.405 254.115L219.405 254.115L172.59 254.115z" /></clipPath><clipPath id="78"><path d="M172.58 284.49L219.404 284.49L219.404 284.49L219.404 254.106L219.404 254.106L172.58 254.106z" /></clipPath><clipPath id="79"><path d="M172.58 284.49L219.404 284.49L219.404 284.49L219.404 254.106L219.404 254.106L172.58 254.106z" /></clipPath><clipPath id="80"><path d="M219.89 284.49L265.85 284.49L265.85 284.49L265.85 254.115L265.85 254.115L219.89 254.115z" /></clipPath><clipPath id="81"><path d="M219.89 284.49L265.85 284.49L265.85 284.49L265.85 254.106L265.85 254.106L219.89 254.106z" /></clipPath><clipPath id="82"><path d="M219.89 284.49L265.85 284.49L265.85 284.49L265.85 254.106L265.85 254.106L219.89 254.106z" /></clipPath><clipPath id="83"><path d="M266.33 284.49L368.36 284.49L368.36 284.49L368.36 254.115L368.36 254.115L266.33 254.115z" /></clipPath><clipPath id="84"><path d="M266.33 284.49L368.35 284.49L368.35 284.49L368.35 254.106L368.35 254.106L266.33 254.106z" /></clipPath><clipPath id="85"><path d="M266.33 284.49L368.35 284.49L368.35 284.49L368.35 254.106L368.35 254.106L266.33 254.106z" /></clipPath><clipPath id="86"><path d="M368.84 284.49L510.7 284.49L510.7 284.49L510.7 254.115L510.7 254.115L368.84 254.115z" /></clipPath><clipPath id="87"><path d="M368.83 284.49L510.69 284.49L510.69 284.49L510.69 254.106L510.69 254.106L368.83 254.106z" /></clipPath><clipPath id="88"><path d="M368.83 284.49L510.69 284.49L510.69 284.49L510.69 254.106L510.69 254.106L368.83 254.106z" /></clipPath><clipPath id="89"><path d="M368.83 284.49L510.69 284.49L510.69 284.49L510.69 254.106L510.69 254.106L368.83 254.106z" /></clipPath><clipPath id="90"><path d="M368.83 284.49L510.69 284.49L510.69 284.49L510.69 254.106L510.69 254.106L368.83 254.106z" /></clipPath><clipPath id="91"><path d="M368.83 284.49L510.69 284.49L510.69 284.49L510.69 254.106L510.69 254.106L368.83 254.106z" /></clipPath><clipPath id="92"><path d="M368.83 284.49L510.69 284.49L510.69 284.49L510.69 254.106L510.69 254.106L368.83 254.106z" /></clipPath><clipPath id="93"><path d="M84.751 315.45L171.991 315.45L171.991 315.45L171.991 284.97L171.991 284.97L84.751 284.97z" /></clipPath><clipPath id="94"><path d="M84.744 315.45L171.984 315.45L171.984 315.45L171.984 284.97L171.984 284.97L84.744 284.97z" /></clipPath><clipPath id="95"><path d="M84.744 315.45L171.984 315.45L171.984 315.45L171.984 284.97L171.984 284.97L84.744 284.97z" /></clipPath><clipPath id="96"><path d="M172.59 315.45L219.405 315.45L219.405 315.45L219.405 284.97L219.405 284.97L172.59 284.97z" /></clipPath><clipPath id="97"><path d="M172.58 315.45L219.404 315.45L219.404 315.45L219.404 284.97L219.404 284.97L172.58 284.97z" /></clipPath><clipPath id="98"><path d="M172.58 315.45L219.404 315.45L219.404 315.45L219.404 284.97L219.404 284.97L172.58 284.97z" /></clipPath><clipPath id="99"><path d="M219.89 315.45L265.85 315.45L265.85 315.45L265.85 284.97L265.85 284.97L219.89 284.97z" /></clipPath><clipPath id="100"><path d="M219.89 315.45L265.85 315.45L265.85 315.45L265.85 284.97L265.85 284.97L219.89 284.97z" /></clipPath><clipPath id="101"><path d="M219.89 315.45L265.85 315.45L265.85 315.45L265.85 284.97L265.85 284.97L219.89 284.97z" /></clipPath><clipPath id="102"><path d="M266.33 315.45L368.36 315.45L368.36 315.45L368.36 284.97L368.36 284.97L266.33 284.97z" /></clipPath><clipPath id="103"><path d="M266.33 315.45L368.35 315.45L368.35 315.45L368.35 284.97L368.35 284.97L266.33 284.97z" /></clipPath><clipPath id="104"><path d="M266.33 315.45L368.35 315.45L368.35 315.45L368.35 284.97L368.35 284.97L266.33 284.97z" /></clipPath><clipPath id="105"><path d="M368.84 315.45L510.7 315.45L510.7 315.45L510.7 284.97L510.7 284.97L368.84 284.97z" /></clipPath><clipPath id="106"><path d="M368.83 315.45L510.69 315.45L510.69 315.45L510.69 284.97L510.69 284.97L368.83 284.97z" /></clipPath><clipPath id="107"><path d="M368.83 315.45L510.69 315.45L510.69 315.45L510.69 284.97L510.69 284.97L368.83 284.97z" /></clipPath><clipPath id="108"><path d="M368.83 315.45L510.69 315.45L510.69 315.45L510.69 284.97L510.69 284.97L368.83 284.97z" /></clipPath><clipPath id="109"><path d="M368.83 315.45L510.69 315.45L510.69 315.45L510.69 284.97L510.69 284.97L368.83 284.97z" /></clipPath><clipPath id="110"><path d="M84.751 346.29L171.991 346.29L171.991 346.29L171.991 315.93L171.991 315.93L84.751 315.93z" /></clipPath><clipPath id="111"><path d="M84.744 346.29L171.984 346.29L171.984 346.29L171.984 315.93L171.984 315.93L84.744 315.93z" /></clipPath><clipPath id="112"><path d="M84.744 346.29L171.984 346.29L171.984 346.29L171.984 315.93L171.984 315.93L84.744 315.93z" /></clipPath><clipPath id="113"><path d="M172.59 346.29L219.405 346.29L219.405 346.29L219.405 315.93L219.405 315.93L172.59 315.93z" /></clipPath><clipPath id="114"><path d="M172.58 346.29L219.404 346.29L219.404 346.29L219.404 315.93L219.404 315.93L172.58 315.93z" /></clipPath><clipPath id="115"><path d="M172.58 346.29L219.404 346.29L219.404 346.29L219.404 315.93L219.404 315.93L172.58 315.93z" /></clipPath><clipPath id="116"><path d="M219.89 346.29L265.85 346.29L265.85 346.29L265.85 315.93L265.85 315.93L219.89 315.93z" /></clipPath><clipPath id="117"><path d="M219.89 346.29L265.85 346.29L265.85 346.29L265.85 315.93L265.85 315.93L219.89 315.93z" /></clipPath><clipPath id="118"><path d="M219.89 346.29L265.85 346.29L265.85 346.29L265.85 315.93L265.85 315.93L219.89 315.93z" /></clipPath><clipPath id="119"><path d="M266.33 346.29L368.36 346.29L368.36 346.29L368.36 315.93L368.36 315.93L266.33 315.93z" /></clipPath><clipPath id="120"><path d="M266.33 346.29L368.35 346.29L368.35 346.29L368.35 315.93L368.35 315.93L266.33 315.93z" /></clipPath><clipPath id="121"><path d="M266.33 346.29L368.35 346.29L368.35 346.29L368.35 315.93L368.35 315.93L266.33 315.93z" /></clipPath><clipPath id="122"><path d="M368.84 346.29L510.7 346.29L510.7 346.29L510.7 315.93L510.7 315.93L368.84 315.93z" /></clipPath><clipPath id="123"><path d="M368.83 346.29L510.69 346.29L510.69 346.29L510.69 315.93L510.69 315.93L368.83 315.93z" /></clipPath><clipPath id="124"><path d="M368.83 346.29L510.69 346.29L510.69 346.29L510.69 315.93L510.69 315.93L368.83 315.93z" /></clipPath><clipPath id="125"><path d="M368.83 346.29L510.69 346.29L510.69 346.29L510.69 315.93L510.69 315.93L368.83 315.93z" /></clipPath><clipPath id="126"><path d="M368.83 346.29L510.69 346.29L510.69 346.29L510.69 315.93L510.69 315.93L368.83 315.93z" /></clipPath><clipPath id="127"><path d="M84.751 390.93L171.991 390.93L171.991 390.93L171.991 346.89L171.991 346.89L84.751 346.89z" /></clipPath><clipPath id="128"><path d="M84.744 390.93L171.984 390.93L171.984 390.93L171.984 346.89L171.984 346.89L84.744 346.89z" /></clipPath><clipPath id="129"><path d="M84.744 390.93L171.984 390.93L171.984 390.93L171.984 346.89L171.984 346.89L84.744 346.89z" /></clipPath><clipPath id="130"><path d="M172.59 390.93L219.405 390.93L219.405 390.93L219.405 346.89L219.405 346.89L172.59 346.89z" /></clipPath><clipPath id="131"><path d="M172.58 390.93L219.404 390.93L219.404 390.93L219.404 346.89L219.404 346.89L172.58 346.89z" /></clipPath><clipPath id="132"><path d="M172.58 390.93L219.404 390.93L219.404 390.93L219.404 346.89L219.404 346.89L172.58 346.89z" /></clipPath><clipPath id="133"><path d="M219.89 390.93L265.85 390.93L265.85 390.93L265.85 346.89L265.85 346.89L219.89 346.89z" /></clipPath><clipPath id="134"><path d="M219.89 390.93L265.85 390.93L265.85 390.93L265.85 346.89L265.85 346.89L219.89 346.89z" /></clipPath><clipPath id="135"><path d="M219.89 390.93L265.85 390.93L265.85 390.93L265.85 346.89L265.85 346.89L219.89 346.89z" /></clipPath><clipPath id="136"><path d="M266.33 390.93L368.36 390.93L368.36 390.93L368.36 346.89L368.36 346.89L266.33 346.89z" /></clipPath><clipPath id="137"><path d="M266.33 390.93L368.35 390.93L368.35 390.93L368.35 346.89L368.35 346.89L266.33 346.89z" /></clipPath><clipPath id="138"><path d="M368.84 390.93L510.7 390.93L510.7 390.93L510.7 346.89L510.7 346.89L368.84 346.89z" /></clipPath><clipPath id="139"><path d="M368.83 390.93L510.69 390.93L510.69 390.93L510.69 346.89L510.69 346.89L368.83 346.89z" /></clipPath><clipPath id="140"><path d="M368.83 390.93L510.69 390.93L510.69 390.93L510.69 346.89L510.69 346.89L368.83 346.89z" /></clipPath><clipPath id="141"><path d="M368.83 390.93L510.69 390.93L510.69 390.93L510.69 346.89L510.69 346.89L368.83 346.89z" /></clipPath><clipPath id="142"><path d="M368.83 390.93L510.69 390.93L510.69 390.93L510.69 346.89L510.69 346.89L368.83 346.89z" /></clipPath><clipPath id="143"><path d="M84.751 463.05L171.991 463.05L171.991 463.05L171.991 391.41L171.991 391.41L84.751 391.41z" /></clipPath><clipPath id="144"><path d="M84.744 463.05L171.984 463.05L171.984 463.05L171.984 391.41L171.984 391.41L84.744 391.41z" /></clipPath><clipPath id="145"><path d="M84.744 463.05L171.984 463.05L171.984 463.05L171.984 391.41L171.984 391.41L84.744 391.41z" /></clipPath><clipPath id="146"><path d="M172.59 463.05L219.405 463.05L219.405 463.05L219.405 391.41L219.405 391.41L172.59 391.41z" /></clipPath><clipPath id="147"><path d="M172.58 463.05L219.404 463.05L219.404 463.05L219.404 391.41L219.404 391.41L172.58 391.41z" /></clipPath><clipPath id="148"><path d="M172.58 463.05L219.404 463.05L219.404 463.05L219.404 391.41L219.404 391.41L172.58 391.41z" /></clipPath><clipPath id="149"><path d="M219.89 463.05L265.85 463.05L265.85 463.05L265.85 391.41L265.85 391.41L219.89 391.41z" /></clipPath><clipPath id="150"><path d="M219.89 463.05L265.85 463.05L265.85 463.05L265.85 391.41L265.85 391.41L219.89 391.41z" /></clipPath><clipPath id="151"><path d="M219.89 463.05L265.85 463.05L265.85 463.05L265.85 391.41L265.85 391.41L219.89 391.41z" /></clipPath><clipPath id="152"><path d="M266.33 463.05L368.36 463.05L368.36 463.05L368.36 391.41L368.36 391.41L266.33 391.41z" /></clipPath><clipPath id="153"><path d="M266.33 463.05L368.35 463.05L368.35 463.05L368.35 391.41L368.35 391.41L266.33 391.41z" /></clipPath><clipPath id="154"><path d="M266.33 463.05L368.35 463.05L368.35 463.05L368.35 391.41L368.35 391.41L266.33 391.41z" /></clipPath><clipPath id="155"><path d="M368.84 463.05L510.7 463.05L510.7 463.05L510.7 391.41L510.7 391.41L368.84 391.41z" /></clipPath><clipPath id="156"><path d="M368.83 463.05L510.69 463.05L510.69 463.05L510.69 391.41L510.69 391.41L368.83 391.41z" /></clipPath><clipPath id="157"><path d="M368.83 463.05L510.69 463.05L510.69 463.05L510.69 391.41L510.69 391.41L368.83 391.41z" /></clipPath><clipPath id="158"><path d="M368.83 463.05L510.69 463.05L510.69 463.05L510.69 391.41L510.69 391.41L368.83 391.41z" /></clipPath><clipPath id="159"><path d="M368.83 463.05L510.69 463.05L510.69 463.05L510.69 391.41L510.69 391.41L368.83 391.41z" /></clipPath><clipPath id="160"><path d="M368.83 463.05L510.69 463.05L510.69 463.05L510.69 391.41L510.69 391.41L368.83 391.41z" /></clipPath><clipPath id="161"><path d="M368.83 463.05L510.69 463.05L510.69 463.05L510.69 391.41L510.69 391.41L368.83 391.41z" /></clipPath><clipPath id="162"><path d="M368.83 463.05L510.69 463.05L510.69 463.05L510.69 391.41L510.69 391.41L368.83 391.41z" /></clipPath><clipPath id="163"><path d="M84.751 616.56L510.691 616.56L510.691 616.56L510.691 597.48L510.691 597.48L84.751 597.48z" /></clipPath><clipPath id="164"><path d="M84.744 616.55L510.694 616.55L510.694 616.55L510.694 597.47L510.694 597.47L84.744 597.47z" /></clipPath><clipPath id="165"><path d="M84.744 616.55L510.694 616.55L510.694 616.55L510.694 597.47L510.694 597.47L84.744 597.47z" /></clipPath><clipPath id="166"><path d="M84.744 616.55L510.694 616.55L510.694 616.55L510.694 597.47L510.694 597.47L84.744 597.47z" /></clipPath><clipPath id="167"><path d="M84.744 616.55L510.694 616.55L510.694 616.55L510.694 597.47L510.694 597.47L84.744 597.47z" /></clipPath><clipPath id="168"><path d="M84.751 750.371L510.691 750.371L510.691 750.371L510.691 617.031L510.691 617.031L84.751 617.031z" /></clipPath><clipPath id="169"><path d="M84.744 750.376L510.694 750.376L510.694 750.376L510.694 617.036L510.694 617.036L84.744 617.036z" /></clipPath><clipPath id="170"><path d="M84.744 750.376L510.694 750.376L510.694 750.376L510.694 617.036L510.694 617.036L84.744 617.036z" /></clipPath><clipPath id="171"><path d="M84.744 750.376L510.694 750.376L510.694 750.376L510.694 617.036L510.694 617.036L84.744 617.036z" /></clipPath><clipPath id="172"><path d="M84.744 750.376L510.694 750.376L510.694 750.376L510.694 617.036L510.694 617.036L84.744 617.036z" /></clipPath><clipPath id="173"><path d="M84.744 750.376L510.694 750.376L510.694 750.376L510.694 617.036L510.694 617.036L84.744 617.036z" /></clipPath><clipPath id="174"><path d="M84.744 750.376L510.694 750.376L510.694 750.376L510.694 617.036L510.694 617.036L84.744 617.036z" /></clipPath><clipPath id="175"><path d="M84.744 750.376L510.694 750.376L510.694 750.376L510.694 617.036L510.694 617.036L84.744 617.036z" /></clipPath><clipPath id="176"><path d="M84.744 750.376L510.694 750.376L510.694 750.376L510.694 617.036L510.694 617.036L84.744 617.036z" /></clipPath><clipPath id="177"><path d="M84.744 750.376L510.694 750.376L510.694 750.376L510.694 617.036L510.694 617.036L84.744 617.036z" /></clipPath><clipPath id="178"><path d="M84.744 750.376L510.694 750.376L510.694 750.376L510.694 617.036L510.694 617.036L84.744 617.036z" /></clipPath><clipPath id="179"><path d="M84.744 750.376L510.694 750.376L510.694 750.376L510.694 617.036L510.694 617.036L84.744 617.036z" /></clipPath><clipPath id="180"><path d="M84.744 750.376L510.694 750.376L510.694 750.376L510.694 617.036L510.694 617.036L84.744 617.036z" /></clipPath><clipPath id="181"><path d="M84.744 750.376L510.694 750.376L510.694 750.376L510.694 617.036L510.694 617.036L84.744 617.036z" /></clipPath><clipPath id="182"><path d="M84.744 750.376L510.694 750.376L510.694 750.376L510.694 617.036L510.694 617.036L84.744 617.036z" /></clipPath><clipPath id="183"><path d="M84.744 750.376L510.694 750.376L510.694 750.376L510.694 617.036L510.694 617.036L84.744 617.036z" /></clipPath><clipPath id="184"><path d="M84.744 750.376L510.694 750.376L510.694 750.376L510.694 617.036L510.694 617.036L84.744 617.036z" /></clipPath><clipPath id="185"><path d="M84.744 750.376L510.694 750.376L510.694 750.376L510.694 617.036L510.694 617.036L84.744 617.036z" /></clipPath><clipPath id="186"><path d="M84.744 750.376L510.694 750.376L510.694 750.376L510.694 617.036L510.694 617.036L84.744 617.036z" /></clipPath><clipPath id="187"><path d="M84.744 750.376L510.694 750.376L510.694 750.376L510.694 617.036L510.694 617.036L84.744 617.036z" /></clipPath><clipPath id="188"><path d="M84.744 750.376L510.694 750.376L510.694 750.376L510.694 617.036L510.694 617.036L84.744 617.036z" /></clipPath><clipPath id="189"><path d="M84.744 750.376L510.694 750.376L510.694 750.376L510.694 617.036L510.694 617.036L84.744 617.036z" /></clipPath><clipPath id="190"><path d="M84.744 750.376L510.694 750.376L510.694 750.376L510.694 617.036L510.694 617.036L84.744 617.036z" /></clipPath><clipPath id="191"><path d="M84.744 750.376L510.694 750.376L510.694 750.376L510.694 617.036L510.694 617.036L84.744 617.036z" /></clipPath><clipPath id="192"><path d="M84.744 750.376L510.694 750.376L510.694 750.376L510.694 617.036L510.694 617.036L84.744 617.036z" /></clipPath><clipPath id="193"><path d="M84.744 750.376L510.694 750.376L510.694 750.376L510.694 617.036L510.694 617.036L84.744 617.036z" /></clipPath><clipPath id="194"><path d="M84.744 750.376L510.694 750.376L510.694 750.376L510.694 617.036L510.694 617.036L84.744 617.036z" /></clipPath><clipPath id="195"><path d="M84.744 750.376L510.694 750.376L510.694 750.376L510.694 617.036L510.694 617.036L84.744 617.036z" /></clipPath><clipPath id="196"><path d="M84.744 750.376L510.694 750.376L510.694 750.376L510.694 617.036L510.694 617.036L84.744 617.036z" /></clipPath><clipPath id="197"><path d="M84.744 750.376L510.694 750.376L510.694 750.376L510.694 617.036L510.694 617.036L84.744 617.036z" /></clipPath><clipPath id="198"><path d="M84.744 750.376L510.694 750.376L510.694 750.376L510.694 617.036L510.694 617.036L84.744 617.036z" /></clipPath><clipPath id="199"><path d="M84.744 750.376L510.694 750.376L510.694 750.376L510.694 617.036L510.694 617.036L84.744 617.036z" /></clipPath><clipPath id="200"><path d="M84.744 750.376L510.694 750.376L510.694 750.376L510.694 617.036L510.694 617.036L84.744 617.036z" /></clipPath><clipPath id="201"><path d="M84.744 750.376L510.694 750.376L510.694 750.376L510.694 617.036L510.694 617.036L84.744 617.036z" /></clipPath><clipPath id="202"><path d="M84.744 750.376L510.694 750.376L510.694 750.376L510.694 617.036L510.694 617.036L84.744 617.036z" /></clipPath><clipPath id="203"><path d="M84.744 750.376L510.694 750.376L510.694 750.376L510.694 617.036L510.694 617.036L84.744 617.036z" /></clipPath><clipPath id="204"><path d="M84.744 750.376L510.694 750.376L510.694 750.376L510.694 617.036L510.694 617.036L84.744 617.036z" /></clipPath></defs><g transform="matrix(1.333333 0 0 1.333333 0 0)"><g><g clip-path="url(#1)"><path transform="matrix(1 0 0 -1 0 841)" d="M457.51 53.304L505.534 53.304L505.534 53.304L505.534 53.90404L505.534 53.90404L457.51 53.90404z" stroke="none" fill="#000000" fill-rule="evenodd" /><g clip-path="url(#2)"><path transform="matrix(1 0 0 -1 0 841)" d="M88.464 77.904L506.974 77.904L506.974 77.904L506.974 80.904L506.974 80.904L88.464 80.904z" stroke="none" fill="#000000" fill-rule="evenodd" /><path transform="matrix(1 0 0 -1 0 841)" d="M88.464 76.464L506.974 76.464L506.974 76.464L506.974 77.18397L506.974 77.18397L88.464 77.18397z" stroke="none" fill="#000000" fill-rule="evenodd" /></g><g clip-path="url(#3)"><g clip-path="url(#4)"></g><g clip-path="url(#5)"></g></g><path transform="matrix(1 0 0 -1 0 841)" d="M84.744 685.06L171.984 685.06L171.984 685.06L171.984 710.02L171.984 710.02L84.744 710.02z" stroke="none" fill="#0070C0" fill-rule="evenodd" /><g clip-path="url(#6)"><path transform="matrix(1 0 0 -1 0 841)" d="M89.904 685.06L166.824 685.06L166.824 685.06L166.824 710.02L166.824 710.02L89.904 710.02z" stroke="none" fill="#0070C0" fill-rule="evenodd" /><g clip-path="url(#7)"></g><g clip-path="url(#8)"></g></g><path transform="matrix(1 0 0 -1 0 841)" d="M172.58 685.06L219.404 685.06L219.404 685.06L219.404 710.02L219.404 710.02L172.58 710.02z" stroke="none" fill="#0070C0" fill-rule="evenodd" /><g clip-path="url(#9)"><path transform="matrix(1 0 0 -1 0 841)" d="M177.62 685.06L214.244 685.06L214.244 685.06L214.244 710.02L214.244 710.02L177.62 710.02z" stroke="none" fill="#0070C0" fill-rule="evenodd" /><g clip-path="url(#10)"></g><g clip-path="url(#11)"></g></g><path transform="matrix(1 0 0 -1 0 841)" d="M219.89 685.06L265.85 685.06L265.85 685.06L265.85 710.02L265.85 710.02L219.89 710.02z" stroke="none" fill="#0070C0" fill-rule="evenodd" /><g clip-path="url(#12)"><path transform="matrix(1 0 0 -1 0 841)" d="M225.05 685.06L260.69 685.06L260.69 685.06L260.69 710.02L260.69 710.02L225.05 710.02z" stroke="none" fill="#0070C0" fill-rule="evenodd" /><g clip-path="url(#13)"></g><g clip-path="url(#14)"></g></g><path transform="matrix(1 0 0 -1 0 841)" d="M266.33 685.06L368.35 685.06L368.35 685.06L368.35 710.02L368.35 710.02L266.33 710.02z" stroke="none" fill="#0070C0" fill-rule="evenodd" /><g clip-path="url(#15)"><path transform="matrix(1 0 0 -1 0 841)" d="M271.49 685.06L363.194 685.06L363.194 685.06L363.194 710.02L363.194 710.02L271.49 710.02z" stroke="none" fill="#0070C0" fill-rule="evenodd" /><g clip-path="url(#16)"></g><g clip-path="url(#17)"></g></g><path transform="matrix(1 0 0 -1 0 841)" d="M368.83 685.06L510.69 685.06L510.69 685.06L510.69 710.02L510.69 710.02L368.83 710.02z" stroke="none" fill="#0070C0" fill-rule="evenodd" /><g clip-path="url(#18)"><path transform="matrix(1 0 0 -1 0 841)" d="M373.99 685.06L505.53 685.06L505.53 685.06L505.53 710.02L505.53 710.02L373.99 710.02z" stroke="none" fill="#0070C0" fill-rule="evenodd" /><g clip-path="url(#19)"></g><g clip-path="url(#20)"></g></g><path transform="matrix(1 0 0 -1 0 841)" d="M84.264 710.14L84.744 710.14L84.744 710.14L84.744 710.62L84.744 710.62L84.264 710.62z" stroke="none" fill="#000000" fill-rule="evenodd" /><path transform="matrix(1 0 0 -1 0 841)" d="M84.264 710.14L84.744 710.14L84.744 710.14L84.744 710.62L84.744 710.62L84.264 710.62z" stroke="none" fill="#000000" fill-rule="evenodd" /><path transform="matrix(1 0 0 -1 0 841)" d="M84.744 710.14L172.104 710.14L172.104 710.14L172.104 710.62L172.104 710.62L84.744 710.62z" stroke="none" fill="#000000" fill-rule="evenodd" /><path transform="matrix(1 0 0 -1 0 841)" d="M172.1 710.14L172.58 710.14L172.58 710.14L172.58 710.62L172.58 710.62L172.1 710.62z" stroke="none" fill="#000000" fill-rule="evenodd" /><path transform="matrix(1 0 0 -1 0 841)" d="M172.58 710.14L219.404 710.14L219.404 710.14L219.404 710.62L219.404 710.62L172.58 710.62z" stroke="none" fill="#000000" fill-rule="evenodd" /><path transform="matrix(1 0 0 -1 0 841)" d="M219.41 710.14L219.89 710.14L219.89 710.14L219.89 710.62L219.89 710.62L219.41 710.62z" stroke="none" fill="#000000" fill-rule="evenodd" /><path transform="matrix(1 0 0 -1 0 841)" d="M219.89 710.14L265.85 710.14L265.85 710.14L265.85 710.62L265.85 710.62L219.89 710.62z" stroke="none" fill="#000000" fill-rule="evenodd" /><path transform="matrix(1 0 0 -1 0 841)" d="M265.85 710.14L266.33 710.14L266.33 710.14L266.33 710.62L266.33 710.62L265.85 710.62z" stroke="none" fill="#000000" fill-rule="evenodd" /><path transform="matrix(1 0 0 -1 0 841)" d="M266.33 710.14L368.47 710.14L368.47 710.14L368.47 710.62L368.47 710.62L266.33 710.62z" stroke="none" fill="#000000" fill-rule="evenodd" /><path transform="matrix(1 0 0 -1 0 841)" d="M368.47 710.14L368.95 710.14L368.95 710.14L368.95 710.62L368.95 710.62L368.47 710.62z" stroke="none" fill="#000000" fill-rule="evenodd" /><path transform="matrix(1 0 0 -1 0 841)" d="M368.95 710.14L510.69 710.14L510.69 710.14L510.69 710.62L510.69 710.62L368.95 710.62z" stroke="none" fill="#000000" fill-rule="evenodd" /><path transform="matrix(1 0 0 -1 0 841)" d="M510.7 710.14L511.18 710.14L511.18 710.14L511.18 710.62L511.18 710.62L510.7 710.62z" stroke="none" fill="#000000" fill-rule="evenodd" /><path transform="matrix(1 0 0 -1 0 841)" d="M510.7 710.14L511.18 710.14L511.18 710.14L511.18 710.62L511.18 710.62L510.7 710.62z" stroke="none" fill="#000000" fill-rule="evenodd" /><path transform="matrix(1 0 0 -1 0 841)" d="M84.264 685.06L84.744 685.06L84.744 685.06L84.744 710.14L84.744 710.14L84.264 710.14z" stroke="none" fill="#000000" fill-rule="evenodd" /><path transform="matrix(1 0 0 -1 0 841)" d="M172.1 685.06L172.58 685.06L172.58 685.06L172.58 710.14L172.58 710.14L172.1 710.14z" stroke="none" fill="#000000" fill-rule="evenodd" /><path transform="matrix(1 0 0 -1 0 841)" d="M219.41 685.06L219.89 685.06L219.89 685.06L219.89 710.14L219.89 710.14L219.41 710.14z" stroke="none" fill="#000000" fill-rule="evenodd" /><path transform="matrix(1 0 0 -1 0 841)" d="M265.85 685.06L266.33 685.06L266.33 685.06L266.33 710.14L266.33 710.14L265.85 710.14z" stroke="none" fill="#000000" fill-rule="evenodd" /><path transform="matrix(1 0 0 -1 0 841)" d="M368.47 685.06L368.95 685.06L368.95 685.06L368.95 710.14L368.95 710.14L368.47 710.14z" stroke="none" fill="#000000" fill-rule="evenodd" /><path transform="matrix(1 0 0 -1 0 841)" d="M510.7 685.06L511.18 685.06L511.18 685.06L511.18 710.14L511.18 710.14L510.7 710.14z" stroke="none" fill="#000000" fill-rule="evenodd" /><path transform="matrix(1 0 0 -1 0 841)" d="M84.744 659.5L171.984 659.5L171.984 659.5L171.984 684.46L171.984 684.46L84.744 684.46z" stroke="none" fill="#DAEEF3" fill-rule="evenodd" /><g clip-path="url(#21)"><path transform="matrix(1 0 0 -1 0 841)" d="M89.904 660.34L166.824 660.34L166.824 660.34L166.824 684.46L166.824 684.46L89.904 684.46z" stroke="none" fill="#DAEEF3" fill-rule="evenodd" /><g clip-path="url(#22)"></g><g clip-path="url(#23)"></g></g><path transform="matrix(1 0 0 -1 0 841)" d="M172.58 659.5L219.404 659.5L219.404 659.5L219.404 684.46L219.404 684.46L172.58 684.46z" stroke="none" fill="#DAEEF3" fill-rule="evenodd" /><g clip-path="url(#24)"><path transform="matrix(1 0 0 -1 0 841)" d="M177.62 660.34L214.244 660.34L214.244 660.34L214.244 684.46L214.244 684.46L177.62 684.46z" stroke="none" fill="#DAEEF3" fill-rule="evenodd" /><g clip-path="url(#25)"></g><g clip-path="url(#26)"></g></g><path transform="matrix(1 0 0 -1 0 841)" d="M219.89 659.5L265.85 659.5L265.85 659.5L265.85 684.46L265.85 684.46L219.89 684.46z" stroke="none" fill="#DAEEF3" fill-rule="evenodd" /><g clip-path="url(#27)"><path transform="matrix(1 0 0 -1 0 841)" d="M225.05 659.5L260.69 659.5L260.69 659.5L260.69 684.46L260.69 684.46L225.05 684.46z" stroke="none" fill="#DAEEF3" fill-rule="evenodd" /><g clip-path="url(#28)"></g><g clip-path="url(#29)"></g></g><path transform="matrix(1 0 0 -1 0 841)" d="M266.33 659.5L368.35 659.5L368.35 659.5L368.35 684.46L368.35 684.46L266.33 684.46z" stroke="none" fill="#DAEEF3" fill-rule="evenodd" /><g clip-path="url(#30)"><path transform="matrix(1 0 0 -1 0 841)" d="M271.49 660.34L363.194 660.34L363.194 660.34L363.194 684.46L363.194 684.46L271.49 684.46z" stroke="none" fill="#DAEEF3" fill-rule="evenodd" /><g clip-path="url(#31)"></g><g clip-path="url(#32)"></g></g><path transform="matrix(1 0 0 -1 0 841)" d="M368.83 659.5L510.69 659.5L510.69 659.5L510.69 684.46L510.69 684.46L368.83 684.46z" stroke="none" fill="#DAEEF3" fill-rule="evenodd" /><g clip-path="url(#33)"><path transform="matrix(1 0 0 -1 0 841)" d="M373.99 659.5L505.53 659.5L505.53 659.5L505.53 684.46L505.53 684.46L373.99 684.46z" stroke="none" fill="#DAEEF3" fill-rule="evenodd" /><g clip-path="url(#34)"></g><g clip-path="url(#35)"></g></g><path transform="matrix(1 0 0 -1 0 841)" d="M84.264 684.58L84.744 684.58L84.744 684.58L84.744 685.06L84.744 685.06L84.264 685.06z" stroke="none" fill="#000000" fill-rule="evenodd" /><path transform="matrix(1 0 0 -1 0 841)" d="M84.744 684.58L172.104 684.58L172.104 684.58L172.104 685.06L172.104 685.06L84.744 685.06z" stroke="none" fill="#000000" fill-rule="evenodd" /><path transform="matrix(1 0 0 -1 0 841)" d="M172.1 684.58L172.58 684.58L172.58 684.58L172.58 685.06L172.58 685.06L172.1 685.06z" stroke="none" fill="#000000" fill-rule="evenodd" /><path transform="matrix(1 0 0 -1 0 841)" d="M172.58 684.58L219.404 684.58L219.404 684.58L219.404 685.06L219.404 685.06L172.58 685.06z" stroke="none" fill="#000000" fill-rule="evenodd" /><path transform="matrix(1 0 0 -1 0 841)" d="M219.41 684.58L219.89 684.58L219.89 684.58L219.89 685.06L219.89 685.06L219.41 685.06z" stroke="none" fill="#000000" fill-rule="evenodd" /><path transform="matrix(1 0 0 -1 0 841)" d="M219.89 684.58L265.85 684.58L265.85 684.58L265.85 685.06L265.85 685.06L219.89 685.06z" stroke="none" fill="#000000" fill-rule="evenodd" /><path transform="matrix(1 0 0 -1 0 841)" d="M265.85 684.58L266.33 684.58L266.33 684.58L266.33 685.06L266.33 685.06L265.85 685.06z" stroke="none" fill="#000000" fill-rule="evenodd" /><path transform="matrix(1 0 0 -1 0 841)" d="M266.33 684.58L368.47 684.58L368.47 684.58L368.47 685.06L368.47 685.06L266.33 685.06z" stroke="none" fill="#000000" fill-rule="evenodd" /><path transform="matrix(1 0 0 -1 0 841)" d="M368.47 684.58L368.95 684.58L368.95 684.58L368.95 685.06L368.95 685.06L368.47 685.06z" stroke="none" fill="#000000" fill-rule="evenodd" /><path transform="matrix(1 0 0 -1 0 841)" d="M368.95 684.58L510.69 684.58L510.69 684.58L510.69 685.06L510.69 685.06L368.95 685.06z" stroke="none" fill="#000000" fill-rule="evenodd" /><path transform="matrix(1 0 0 -1 0 841)" d="M510.7 684.58L511.18 684.58L511.18 684.58L511.18 685.06L511.18 685.06L510.7 685.06z" stroke="none" fill="#000000" fill-rule="evenodd" /><path transform="matrix(1 0 0 -1 0 841)" d="M84.264 659.5L84.744 659.5L84.744 659.5L84.744 684.58L84.744 684.58L84.264 684.58z" stroke="none" fill="#000000" fill-rule="evenodd" /><path transform="matrix(1 0 0 -1 0 841)" d="M172.1 659.5L172.58 659.5L172.58 659.5L172.58 684.58L172.58 684.58L172.1 684.58z" stroke="none" fill="#000000" fill-rule="evenodd" /><path transform="matrix(1 0 0 -1 0 841)" d="M219.41 659.5L219.89 659.5L219.89 659.5L219.89 684.58L219.89 684.58L219.41 684.58z" stroke="none" fill="#000000" fill-rule="evenodd" /><path transform="matrix(1 0 0 -1 0 841)" d="M265.85 659.5L266.33 659.5L266.33 659.5L266.33 684.58L266.33 684.58L265.85 684.58z" stroke="none" fill="#000000" fill-rule="evenodd" /><path transform="matrix(1 0 0 -1 0 841)" d="M368.47 659.5L368.95 659.5L368.95 659.5L368.95 684.58L368.95 684.58L368.47 684.58z" stroke="none" fill="#000000" fill-rule="evenodd" /><path transform="matrix(1 0 0 -1 0 841)" d="M510.7 659.5L511.18 659.5L511.18 659.5L511.18 684.58L511.18 684.58L510.7 684.58z" stroke="none" fill="#000000" fill-rule="evenodd" /><g clip-path="url(#36)"><g clip-path="url(#37)"></g><g clip-path="url(#38)"></g></g><g clip-path="url(#39)"><g clip-path="url(#40)"></g><g clip-path="url(#41)"></g></g><g clip-path="url(#42)"><g clip-path="url(#43)"></g><g clip-path="url(#44)"></g></g><g clip-path="url(#45)"><g clip-path="url(#46)"></g><g clip-path="url(#47)"></g><g clip-path="url(#48)"></g><g clip-path="url(#49)"></g></g><g clip-path="url(#50)"><g clip-path="url(#51)"></g><g clip-path="url(#52)"></g><g clip-path="url(#53)"></g><g clip-path="url(#54)"></g></g><path transform="matrix(1 0 0 -1 0 841)" d="M84.264 659.02L84.744 659.02L84.744 659.02L84.744 659.5L84.744 659.5L84.264 659.5z" stroke="none" fill="#000000" fill-rule="evenodd" /><path transform="matrix(1 0 0 -1 0 841)" d="M84.744 659.02L172.104 659.02L172.104 659.02L172.104 659.5L172.104 659.5L84.744 659.5z" stroke="none" fill="#000000" fill-rule="evenodd" /><path transform="matrix(1 0 0 -1 0 841)" d="M172.1 659.02L172.58 659.02L172.58 659.02L172.58 659.5L172.58 659.5L172.1 659.5z" stroke="none" fill="#000000" fill-rule="evenodd" /><path transform="matrix(1 0 0 -1 0 841)" d="M172.58 659.02L219.404 659.02L219.404 659.02L219.404 659.5L219.404 659.5L172.58 659.5z" stroke="none" fill="#000000" fill-rule="evenodd" /><path transform="matrix(1 0 0 -1 0 841)" d="M219.41 659.02L219.89 659.02L219.89 659.02L219.89 659.5L219.89 659.5L219.41 659.5z" stroke="none" fill="#000000" fill-rule="evenodd" /><path transform="matrix(1 0 0 -1 0 841)" d="M219.89 659.02L265.85 659.02L265.85 659.02L265.85 659.5L265.85 659.5L219.89 659.5z" stroke="none" fill="#000000" fill-rule="evenodd" /><path transform="matrix(1 0 0 -1 0 841)" d="M265.85 659.02L266.33 659.02L266.33 659.02L266.33 659.5L266.33 659.5L265.85 659.5z" stroke="none" fill="#000000" fill-rule="evenodd" /><path transform="matrix(1 0 0 -1 0 841)" d="M266.33 659.02L368.47 659.02L368.47 659.02L368.47 659.5L368.47 659.5L266.33 659.5z" stroke="none" fill="#000000" fill-rule="evenodd" /><path transform="matrix(1 0 0 -1 0 841)" d="M368.47 659.02L368.95 659.02L368.95 659.02L368.95 659.5L368.95 659.5L368.47 659.5z" stroke="none" fill="#000000" fill-rule="evenodd" /><path transform="matrix(1 0 0 -1 0 841)" d="M368.95 659.02L510.69 659.02L510.69 659.02L510.69 659.5L510.69 659.5L368.95 659.5z" stroke="none" fill="#000000" fill-rule="evenodd" /><path transform="matrix(1 0 0 -1 0 841)" d="M510.7 659.02L511.18 659.02L511.18 659.02L511.18 659.5L511.18 659.5L510.7 659.5z" stroke="none" fill="#000000" fill-rule="evenodd" /><path transform="matrix(1 0 0 -1 0 841)" d="M84.264 628.54L84.744 628.54L84.744 628.54L84.744 659.02L84.744 659.02L84.264 659.02z" stroke="none" fill="#000000" fill-rule="evenodd" /><path transform="matrix(1 0 0 -1 0 841)" d="M172.1 628.54L172.58 628.54L172.58 628.54L172.58 659.02L172.58 659.02L172.1 659.02z" stroke="none" fill="#000000" fill-rule="evenodd" /><path transform="matrix(1 0 0 -1 0 841)" d="M219.41 628.54L219.89 628.54L219.89 628.54L219.89 659.02L219.89 659.02L219.41 659.02z" stroke="none" fill="#000000" fill-rule="evenodd" /><path transform="matrix(1 0 0 -1 0 841)" d="M265.85 628.54L266.33 628.54L266.33 628.54L266.33 659.02L266.33 659.02L265.85 659.02z" stroke="none" fill="#000000" fill-rule="evenodd" /><path transform="matrix(1 0 0 -1 0 841)" d="M368.47 628.54L368.95 628.54L368.95 628.54L368.95 659.02L368.95 659.02L368.47 659.02z" stroke="none" fill="#000000" fill-rule="evenodd" /><path transform="matrix(1 0 0 -1 0 841)" d="M510.7 628.54L511.18 628.54L511.18 628.54L511.18 659.02L511.18 659.02L510.7 659.02z" stroke="none" fill="#000000" fill-rule="evenodd" /><path transform="matrix(1 0 0 -1 0 841)" d="M84.744 587.38L171.984 587.38L171.984 587.38L171.984 628.06L171.984 628.06L84.744 628.06z" stroke="none" fill="#DAEEF3" fill-rule="evenodd" /><g clip-path="url(#55)"><path transform="matrix(1 0 0 -1 0 841)" d="M89.904 603.94L166.824 603.94L166.824 603.94L166.824 628.06L166.824 628.06L89.904 628.06z" stroke="none" fill="#DAEEF3" fill-rule="evenodd" /><g clip-path="url(#56)"></g><g clip-path="url(#57)"></g></g><path transform="matrix(1 0 0 -1 0 841)" d="M172.58 587.38L219.404 587.38L219.404 587.38L219.404 628.06L219.404 628.06L172.58 628.06z" stroke="none" fill="#DAEEF3" fill-rule="evenodd" /><g clip-path="url(#58)"><path transform="matrix(1 0 0 -1 0 841)" d="M177.62 603.94L214.244 603.94L214.244 603.94L214.244 628.06L214.244 628.06L177.62 628.06z" stroke="none" fill="#DAEEF3" fill-rule="evenodd" /><g clip-path="url(#59)"></g><g clip-path="url(#60)"></g></g><path transform="matrix(1 0 0 -1 0 841)" d="M219.89 587.38L265.85 587.38L265.85 587.38L265.85 628.06L265.85 628.06L219.89 628.06z" stroke="none" fill="#DAEEF3" fill-rule="evenodd" /><g clip-path="url(#61)"><path transform="matrix(1 0 0 -1 0 841)" d="M225.05 602.98L260.69 602.98L260.69 602.98L260.69 628.06L260.69 628.06L225.05 628.06z" stroke="none" fill="#DAEEF3" fill-rule="evenodd" /><g clip-path="url(#62)"></g><g clip-path="url(#63)"></g></g><path transform="matrix(1 0 0 -1 0 841)" d="M266.33 587.38L368.35 587.38L368.35 587.38L368.35 628.06L368.35 628.06L266.33 628.06z" stroke="none" fill="#DAEEF3" fill-rule="evenodd" /><g clip-path="url(#64)"><path transform="matrix(1 0 0 -1 0 841)" d="M271.49 603.94L363.194 603.94L363.194 603.94L363.194 628.06L363.194 628.06L271.49 628.06z" stroke="none" fill="#DAEEF3" fill-rule="evenodd" /><g clip-path="url(#65)"></g></g><path transform="matrix(1 0 0 -1 0 841)" d="M368.83 587.38L510.69 587.38L510.69 587.38L510.69 628.06L510.69 628.06L368.83 628.06z" stroke="none" fill="#DAEEF3" fill-rule="evenodd" /><g clip-path="url(#66)"><path transform="matrix(1 0 0 -1 0 841)" d="M373.99 607.78L505.53 607.78L505.53 607.78L505.53 628.0601L505.53 628.0601L373.99 628.0601z" stroke="none" fill="#DAEEF3" fill-rule="evenodd" /><g clip-path="url(#67)"></g><g clip-path="url(#68)"></g><g clip-path="url(#69)"></g><g clip-path="url(#70)"></g><g clip-path="url(#71)"></g><path transform="matrix(1 0 0 -1 0 841)" d="M373.99 587.38L505.53 587.38L505.53 587.38L505.53 607.78L505.53 607.78L373.99 607.78z" stroke="none" fill="#DAEEF3" fill-rule="evenodd" /><g clip-path="url(#72)"></g><g clip-path="url(#73)"></g></g><path transform="matrix(1 0 0 -1 0 841)" d="M84.264 628.06L84.744 628.06L84.744 628.06L84.744 628.54L84.744 628.54L84.264 628.54z" stroke="none" fill="#000000" fill-rule="evenodd" /><path transform="matrix(1 0 0 -1 0 841)" d="M84.744 628.06L172.104 628.06L172.104 628.06L172.104 628.54L172.104 628.54L84.744 628.54z" stroke="none" fill="#000000" fill-rule="evenodd" /><path transform="matrix(1 0 0 -1 0 841)" d="M172.1 628.06L172.58 628.06L172.58 628.06L172.58 628.54L172.58 628.54L172.1 628.54z" stroke="none" fill="#000000" fill-rule="evenodd" /><path transform="matrix(1 0 0 -1 0 841)" d="M172.58 628.06L219.404 628.06L219.404 628.06L219.404 628.54L219.404 628.54L172.58 628.54z" stroke="none" fill="#000000" fill-rule="evenodd" /><path transform="matrix(1 0 0 -1 0 841)" d="M219.41 628.06L219.89 628.06L219.89 628.06L219.89 628.54L219.89 628.54L219.41 628.54z" stroke="none" fill="#000000" fill-rule="evenodd" /><path transform="matrix(1 0 0 -1 0 841)" d="M219.89 628.06L265.85 628.06L265.85 628.06L265.85 628.54L265.85 628.54L219.89 628.54z" stroke="none" fill="#000000" fill-rule="evenodd" /><path transform="matrix(1 0 0 -1 0 841)" d="M265.85 628.06L266.33 628.06L266.33 628.06L266.33 628.54L266.33 628.54L265.85 628.54z" stroke="none" fill="#000000" fill-rule="evenodd" /><path transform="matrix(1 0 0 -1 0 841)" d="M266.33 628.06L368.47 628.06L368.47 628.06L368.47 628.54L368.47 628.54L266.33 628.54z" stroke="none" fill="#000000" fill-rule="evenodd" /><path transform="matrix(1 0 0 -1 0 841)" d="M368.47 628.06L368.95 628.06L368.95 628.06L368.95 628.54L368.95 628.54L368.47 628.54z" stroke="none" fill="#000000" fill-rule="evenodd" /><path transform="matrix(1 0 0 -1 0 841)" d="M368.95 628.06L510.69 628.06L510.69 628.06L510.69 628.54L510.69 628.54L368.95 628.54z" stroke="none" fill="#000000" fill-rule="evenodd" /><path transform="matrix(1 0 0 -1 0 841)" d="M510.7 628.06L511.18 628.06L511.18 628.06L511.18 628.54L511.18 628.54L510.7 628.54z" stroke="none" fill="#000000" fill-rule="evenodd" /><path transform="matrix(1 0 0 -1 0 841)" d="M84.264 587.38L84.744 587.38L84.744 587.38L84.744 628.06L84.744 628.06L84.264 628.06z" stroke="none" fill="#000000" fill-rule="evenodd" /><path transform="matrix(1 0 0 -1 0 841)" d="M172.1 587.38L172.58 587.38L172.58 587.38L172.58 628.06L172.58 628.06L172.1 628.06z" stroke="none" fill="#000000" fill-rule="evenodd" /><path transform="matrix(1 0 0 -1 0 841)" d="M219.41 587.38L219.89 587.38L219.89 587.38L219.89 628.06L219.89 628.06L219.41 628.06z" stroke="none" fill="#000000" fill-rule="evenodd" /><path transform="matrix(1 0 0 -1 0 841)" d="M265.85 587.38L266.33 587.38L266.33 587.38L266.33 628.06L266.33 628.06L265.85 628.06z" stroke="none" fill="#000000" fill-rule="evenodd" /><path transform="matrix(1 0 0 -1 0 841)" d="M368.47 587.38L368.95 587.38L368.95 587.38L368.95 628.06L368.95 628.06L368.47 628.06z" stroke="none" fill="#000000" fill-rule="evenodd" /><path transform="matrix(1 0 0 -1 0 841)" d="M510.7 587.38L511.18 587.38L511.18 587.38L511.18 628.06L511.18 628.06L510.7 628.06z" stroke="none" fill="#000000" fill-rule="evenodd" /><g clip-path="url(#74)"><g clip-path="url(#75)"></g><g clip-path="url(#76)"></g></g><g clip-path="url(#77)"><g clip-path="url(#78)"></g><g clip-path="url(#79)"></g></g><g clip-path="url(#80)"><g clip-path="url(#81)"></g><g clip-path="url(#82)"></g></g><g clip-path="url(#83)"><g clip-path="url(#84)"></g><g clip-path="url(#85)"></g></g><g clip-path="url(#86)"><g clip-path="url(#87)"></g><g clip-path="url(#88)"></g><g clip-path="url(#89)"></g><g clip-path="url(#90)"></g><g clip-path="url(#91)"></g><g clip-path="url(#92)"></g></g><path transform="matrix(1 0 0 -1 0 841)" d="M84.264 586.9L84.744 586.9L84.744 586.9L84.744 587.38L84.744 587.38L84.264 587.38z" stroke="none" fill="#000000" fill-rule="evenodd" /><path transform="matrix(1 0 0 -1 0 841)" d="M84.744 586.9L172.104 586.9L172.104 586.9L172.104 587.38L172.104 587.38L84.744 587.38z" stroke="none" fill="#000000" fill-rule="evenodd" /><path transform="matrix(1 0 0 -1 0 841)" d="M172.1 586.9L172.58 586.9L172.58 586.9L172.58 587.38L172.58 587.38L172.1 587.38z" stroke="none" fill="#000000" fill-rule="evenodd" /><path transform="matrix(1 0 0 -1 0 841)" d="M172.58 586.9L219.404 586.9L219.404 586.9L219.404 587.38L219.404 587.38L172.58 587.38z" stroke="none" fill="#000000" fill-rule="evenodd" /><path transform="matrix(1 0 0 -1 0 841)" d="M219.41 586.9L219.89 586.9L219.89 586.9L219.89 587.38L219.89 587.38L219.41 587.38z" stroke="none" fill="#000000" fill-rule="evenodd" /><path transform="matrix(1 0 0 -1 0 841)" d="M219.89 586.9L265.85 586.9L265.85 586.9L265.85 587.38L265.85 587.38L219.89 587.38z" stroke="none" fill="#000000" fill-rule="evenodd" /><path transform="matrix(1 0 0 -1 0 841)" d="M265.85 586.9L266.33 586.9L266.33 586.9L266.33 587.38L266.33 587.38L265.85 587.38z" stroke="none" fill="#000000" fill-rule="evenodd" /><path transform="matrix(1 0 0 -1 0 841)" d="M266.33 586.9L368.47 586.9L368.47 586.9L368.47 587.38L368.47 587.38L266.33 587.38z" stroke="none" fill="#000000" fill-rule="evenodd" /><path transform="matrix(1 0 0 -1 0 841)" d="M368.47 586.9L368.95 586.9L368.95 586.9L368.95 587.38L368.95 587.38L368.47 587.38z" stroke="none" fill="#000000" fill-rule="evenodd" /><path transform="matrix(1 0 0 -1 0 841)" d="M368.95 586.9L510.69 586.9L510.69 586.9L510.69 587.38L510.69 587.38L368.95 587.38z" stroke="none" fill="#000000" fill-rule="evenodd" /><path transform="matrix(1 0 0 -1 0 841)" d="M510.7 586.9L511.18 586.9L511.18 586.9L511.18 587.38L511.18 587.38L510.7 587.38z" stroke="none" fill="#000000" fill-rule="evenodd" /><path transform="matrix(1 0 0 -1 0 841)" d="M84.264 556.51L84.744 556.51L84.744 556.51L84.744 586.894L84.744 586.894L84.264 586.894z" stroke="none" fill="#000000" fill-rule="evenodd" /><path transform="matrix(1 0 0 -1 0 841)" d="M172.1 556.51L172.58 556.51L172.58 556.51L172.58 586.894L172.58 586.894L172.1 586.894z" stroke="none" fill="#000000" fill-rule="evenodd" /><path transform="matrix(1 0 0 -1 0 841)" d="M219.41 556.51L219.89 556.51L219.89 556.51L219.89 586.894L219.89 586.894L219.41 586.894z" stroke="none" fill="#000000" fill-rule="evenodd" /><path transform="matrix(1 0 0 -1 0 841)" d="M265.85 556.51L266.33 556.51L266.33 556.51L266.33 586.894L266.33 586.894L265.85 586.894z" stroke="none" fill="#000000" fill-rule="evenodd" /><path transform="matrix(1 0 0 -1 0 841)" d="M368.47 556.51L368.95 556.51L368.95 556.51L368.95 586.894L368.95 586.894L368.47 586.894z" stroke="none" fill="#000000" fill-rule="evenodd" /><path transform="matrix(1 0 0 -1 0 841)" d="M510.7 556.51L511.18 556.51L511.18 556.51L511.18 586.894L511.18 586.894L510.7 586.894z" stroke="none" fill="#000000" fill-rule="evenodd" /><path transform="matrix(1 0 0 -1 0 841)" d="M84.744 525.55L171.984 525.55L171.984 525.55L171.984 556.03L171.984 556.03L84.744 556.03z" stroke="none" fill="#DAEEF3" fill-rule="evenodd" /><g clip-path="url(#93)"><path transform="matrix(1 0 0 -1 0 841)" d="M89.904 531.79L166.824 531.79L166.824 531.79L166.824 556.03L166.824 556.03L89.904 556.03z" stroke="none" fill="#DAEEF3" fill-rule="evenodd" /><g clip-path="url(#94)"></g><g clip-path="url(#95)"></g></g><path transform="matrix(1 0 0 -1 0 841)" d="M172.58 525.55L219.404 525.55L219.404 525.55L219.404 556.03L219.404 556.03L172.58 556.03z" stroke="none" fill="#DAEEF3" fill-rule="evenodd" /><g clip-path="url(#96)"><path transform="matrix(1 0 0 -1 0 841)" d="M177.62 531.79L214.244 531.79L214.244 531.79L214.244 556.03L214.244 556.03L177.62 556.03z" stroke="none" fill="#DAEEF3" fill-rule="evenodd" /><g clip-path="url(#97)"></g><g clip-path="url(#98)"></g></g><path transform="matrix(1 0 0 -1 0 841)" d="M219.89 525.55L265.85 525.55L265.85 525.55L265.85 556.03L265.85 556.03L219.89 556.03z" stroke="none" fill="#DAEEF3" fill-rule="evenodd" /><g clip-path="url(#99)"><path transform="matrix(1 0 0 -1 0 841)" d="M225.05 530.95L260.69 530.95L260.69 530.95L260.69 556.03L260.69 556.03L225.05 556.03z" stroke="none" fill="#DAEEF3" fill-rule="evenodd" /><g clip-path="url(#100)"></g><g clip-path="url(#101)"></g></g><path transform="matrix(1 0 0 -1 0 841)" d="M266.33 525.55L368.35 525.55L368.35 525.55L368.35 556.03L368.35 556.03L266.33 556.03z" stroke="none" fill="#DAEEF3" fill-rule="evenodd" /><g clip-path="url(#102)"><path transform="matrix(1 0 0 -1 0 841)" d="M271.49 531.79L363.194 531.79L363.194 531.79L363.194 556.03L363.194 556.03L271.49 556.03z" stroke="none" fill="#DAEEF3" fill-rule="evenodd" /><g clip-path="url(#103)"></g><g clip-path="url(#104)"></g></g><path transform="matrix(1 0 0 -1 0 841)" d="M368.83 525.55L510.69 525.55L510.69 525.55L510.69 556.03L510.69 556.03L368.83 556.03z" stroke="none" fill="#DAEEF3" fill-rule="evenodd" /><g clip-path="url(#105)"><path transform="matrix(1 0 0 -1 0 841)" d="M373.99 525.55L505.53 525.55L505.53 525.55L505.53 556.03L505.53 556.03L373.99 556.03z" stroke="none" fill="#DAEEF3" fill-rule="evenodd" /><g clip-path="url(#106)"></g><g clip-path="url(#107)"></g><g clip-path="url(#108)"></g><g clip-path="url(#109)"></g></g><path transform="matrix(1 0 0 -1 0 841)" d="M84.264 556.03L84.744 556.03L84.744 556.03L84.744 556.51L84.744 556.51L84.264 556.51z" stroke="none" fill="#000000" fill-rule="evenodd" /><path transform="matrix(1 0 0 -1 0 841)" d="M84.744 556.03L172.104 556.03L172.104 556.03L172.104 556.51L172.104 556.51L84.744 556.51z" stroke="none" fill="#000000" fill-rule="evenodd" /><path transform="matrix(1 0 0 -1 0 841)" d="M172.1 556.03L172.58 556.03L172.58 556.03L172.58 556.51L172.58 556.51L172.1 556.51z" stroke="none" fill="#000000" fill-rule="evenodd" /><path transform="matrix(1 0 0 -1 0 841)" d="M172.58 556.03L219.404 556.03L219.404 556.03L219.404 556.51L219.404 556.51L172.58 556.51z" stroke="none" fill="#000000" fill-rule="evenodd" /><path transform="matrix(1 0 0 -1 0 841)" d="M219.41 556.03L219.89 556.03L219.89 556.03L219.89 556.51L219.89 556.51L219.41 556.51z" stroke="none" fill="#000000" fill-rule="evenodd" /><path transform="matrix(1 0 0 -1 0 841)" d="M219.89 556.03L265.85 556.03L265.85 556.03L265.85 556.51L265.85 556.51L219.89 556.51z" stroke="none" fill="#000000" fill-rule="evenodd" /><path transform="matrix(1 0 0 -1 0 841)" d="M265.85 556.03L266.33 556.03L266.33 556.03L266.33 556.51L266.33 556.51L265.85 556.51z" stroke="none" fill="#000000" fill-rule="evenodd" /><path transform="matrix(1 0 0 -1 0 841)" d="M266.33 556.03L368.47 556.03L368.47 556.03L368.47 556.51L368.47 556.51L266.33 556.51z" stroke="none" fill="#000000" fill-rule="evenodd" /><path transform="matrix(1 0 0 -1 0 841)" d="M368.47 556.03L368.95 556.03L368.95 556.03L368.95 556.51L368.95 556.51L368.47 556.51z" stroke="none" fill="#000000" fill-rule="evenodd" /><path transform="matrix(1 0 0 -1 0 841)" d="M368.95 556.03L510.69 556.03L510.69 556.03L510.69 556.51L510.69 556.51L368.95 556.51z" stroke="none" fill="#000000" fill-rule="evenodd" /><path transform="matrix(1 0 0 -1 0 841)" d="M510.7 556.03L511.18 556.03L511.18 556.03L511.18 556.51L511.18 556.51L510.7 556.51z" stroke="none" fill="#000000" fill-rule="evenodd" /><path transform="matrix(1 0 0 -1 0 841)" d="M84.264 525.55L84.744 525.55L84.744 525.55L84.744 556.03L84.744 556.03L84.264 556.03z" stroke="none" fill="#000000" fill-rule="evenodd" /><path transform="matrix(1 0 0 -1 0 841)" d="M172.1 525.55L172.58 525.55L172.58 525.55L172.58 556.03L172.58 556.03L172.1 556.03z" stroke="none" fill="#000000" fill-rule="evenodd" /><path transform="matrix(1 0 0 -1 0 841)" d="M219.41 525.55L219.89 525.55L219.89 525.55L219.89 556.03L219.89 556.03L219.41 556.03z" stroke="none" fill="#000000" fill-rule="evenodd" /><path transform="matrix(1 0 0 -1 0 841)" d="M265.85 525.55L266.33 525.55L266.33 525.55L266.33 556.03L266.33 556.03L265.85 556.03z" stroke="none" fill="#000000" fill-rule="evenodd" /><path transform="matrix(1 0 0 -1 0 841)" d="M368.47 525.55L368.95 525.55L368.95 525.55L368.95 556.03L368.95 556.03L368.47 556.03z" stroke="none" fill="#000000" fill-rule="evenodd" /><path transform="matrix(1 0 0 -1 0 841)" d="M510.7 525.55L511.18 525.55L511.18 525.55L511.18 556.03L511.18 556.03L510.7 556.03z" stroke="none" fill="#000000" fill-rule="evenodd" /><g clip-path="url(#110)"><g clip-path="url(#111)"></g><g clip-path="url(#112)"></g></g><g clip-path="url(#113)"><g clip-path="url(#114)"></g><g clip-path="url(#115)"></g></g><g clip-path="url(#116)"><g clip-path="url(#117)"></g><g clip-path="url(#118)"></g></g><g clip-path="url(#119)"><g clip-path="url(#120)"></g><g clip-path="url(#121)"></g></g><g clip-path="url(#122)"><g clip-path="url(#123)"></g><g clip-path="url(#124)"></g><g clip-path="url(#125)"></g><g clip-path="url(#126)"></g></g><path transform="matrix(1 0 0 -1 0 841)" d="M84.264 525.07L84.744 525.07L84.744 525.07L84.744 525.55L84.744 525.55L84.264 525.55z" stroke="none" fill="#000000" fill-rule="evenodd" /><path transform="matrix(1 0 0 -1 0 841)" d="M84.744 525.07L172.104 525.07L172.104 525.07L172.104 525.55L172.104 525.55L84.744 525.55z" stroke="none" fill="#000000" fill-rule="evenodd" /><path transform="matrix(1 0 0 -1 0 841)" d="M172.1 525.07L172.58 525.07L172.58 525.07L172.58 525.55L172.58 525.55L172.1 525.55z" stroke="none" fill="#000000" fill-rule="evenodd" /><path transform="matrix(1 0 0 -1 0 841)" d="M172.58 525.07L219.404 525.07L219.404 525.07L219.404 525.55L219.404 525.55L172.58 525.55z" stroke="none" fill="#000000" fill-rule="evenodd" /><path transform="matrix(1 0 0 -1 0 841)" d="M219.41 525.07L219.89 525.07L219.89 525.07L219.89 525.55L219.89 525.55L219.41 525.55z" stroke="none" fill="#000000" fill-rule="evenodd" /><path transform="matrix(1 0 0 -1 0 841)" d="M219.89 525.07L265.85 525.07L265.85 525.07L265.85 525.55L265.85 525.55L219.89 525.55z" stroke="none" fill="#000000" fill-rule="evenodd" /><path transform="matrix(1 0 0 -1 0 841)" d="M265.85 525.07L266.33 525.07L266.33 525.07L266.33 525.55L266.33 525.55L265.85 525.55z" stroke="none" fill="#000000" fill-rule="evenodd" /><path transform="matrix(1 0 0 -1 0 841)" d="M266.33 525.07L368.47 525.07L368.47 525.07L368.47 525.55L368.47 525.55L266.33 525.55z" stroke="none" fill="#000000" fill-rule="evenodd" /><path transform="matrix(1 0 0 -1 0 841)" d="M368.47 525.07L368.95 525.07L368.95 525.07L368.95 525.55L368.95 525.55L368.47 525.55z" stroke="none" fill="#000000" fill-rule="evenodd" /><path transform="matrix(1 0 0 -1 0 841)" d="M368.95 525.07L510.69 525.07L510.69 525.07L510.69 525.55L510.69 525.55L368.95 525.55z" stroke="none" fill="#000000" fill-rule="evenodd" /><path transform="matrix(1 0 0 -1 0 841)" d="M510.7 525.07L511.18 525.07L511.18 525.07L511.18 525.55L511.18 525.55L510.7 525.55z" stroke="none" fill="#000000" fill-rule="evenodd" /><path transform="matrix(1 0 0 -1 0 841)" d="M84.264 494.71L84.744 494.71L84.744 494.71L84.744 525.07L84.744 525.07L84.264 525.07z" stroke="none" fill="#000000" fill-rule="evenodd" /><path transform="matrix(1 0 0 -1 0 841)" d="M172.1 494.71L172.58 494.71L172.58 494.71L172.58 525.07L172.58 525.07L172.1 525.07z" stroke="none" fill="#000000" fill-rule="evenodd" /><path transform="matrix(1 0 0 -1 0 841)" d="M219.41 494.71L219.89 494.71L219.89 494.71L219.89 525.07L219.89 525.07L219.41 525.07z" stroke="none" fill="#000000" fill-rule="evenodd" /><path transform="matrix(1 0 0 -1 0 841)" d="M265.85 494.71L266.33 494.71L266.33 494.71L266.33 525.07L266.33 525.07L265.85 525.07z" stroke="none" fill="#000000" fill-rule="evenodd" /><path transform="matrix(1 0 0 -1 0 841)" d="M368.47 494.71L368.95 494.71L368.95 494.71L368.95 525.07L368.95 525.07L368.47 525.07z" stroke="none" fill="#000000" fill-rule="evenodd" /><path transform="matrix(1 0 0 -1 0 841)" d="M510.7 494.71L511.18 494.71L511.18 494.71L511.18 525.07L511.18 525.07L510.7 525.07z" stroke="none" fill="#000000" fill-rule="evenodd" /><path transform="matrix(1 0 0 -1 0 841)" d="M84.744 450.07L171.984 450.07L171.984 450.07L171.984 494.11L171.984 494.11L84.744 494.11z" stroke="none" fill="#DAEEF3" fill-rule="evenodd" /><g clip-path="url(#127)"><path transform="matrix(1 0 0 -1 0 841)" d="M89.904 469.99L166.824 469.99L166.824 469.99L166.824 494.11L166.824 494.11L89.904 494.11z" stroke="none" fill="#DAEEF3" fill-rule="evenodd" /><g clip-path="url(#128)"></g><g clip-path="url(#129)"></g></g><path transform="matrix(1 0 0 -1 0 841)" d="M172.58 450.07L219.404 450.07L219.404 450.07L219.404 494.11L219.404 494.11L172.58 494.11z" stroke="none" fill="#DAEEF3" fill-rule="evenodd" /><g clip-path="url(#130)"><path transform="matrix(1 0 0 -1 0 841)" d="M177.62 469.99L214.244 469.99L214.244 469.99L214.244 494.11L214.244 494.11L177.62 494.11z" stroke="none" fill="#DAEEF3" fill-rule="evenodd" /><g clip-path="url(#131)"></g><g clip-path="url(#132)"></g></g><path transform="matrix(1 0 0 -1 0 841)" d="M219.89 450.07L265.85 450.07L265.85 450.07L265.85 494.11L265.85 494.11L219.89 494.11z" stroke="none" fill="#DAEEF3" fill-rule="evenodd" /><g clip-path="url(#133)"><path transform="matrix(1 0 0 -1 0 841)" d="M225.05 469.15L260.69 469.15L260.69 469.15L260.69 494.11L260.69 494.11L225.05 494.11z" stroke="none" fill="#DAEEF3" fill-rule="evenodd" /><g clip-path="url(#134)"></g><g clip-path="url(#135)"></g></g><path transform="matrix(1 0 0 -1 0 841)" d="M266.33 450.07L368.35 450.07L368.35 450.07L368.35 494.11L368.35 494.11L266.33 494.11z" stroke="none" fill="#DAEEF3" fill-rule="evenodd" /><g clip-path="url(#136)"><path transform="matrix(1 0 0 -1 0 841)" d="M271.49 469.99L363.194 469.99L363.194 469.99L363.194 494.11L363.194 494.11L271.49 494.11z" stroke="none" fill="#DAEEF3" fill-rule="evenodd" /><g clip-path="url(#137)"></g></g><path transform="matrix(1 0 0 -1 0 841)" d="M368.83 450.07L510.69 450.07L510.69 450.07L510.69 494.11L510.69 494.11L368.83 494.11z" stroke="none" fill="#DAEEF3" fill-rule="evenodd" /><g clip-path="url(#138)"><path transform="matrix(1 0 0 -1 0 841)" d="M373.99 469.15L505.53 469.15L505.53 469.15L505.53 494.11L505.53 494.11L373.99 494.11z" stroke="none" fill="#DAEEF3" fill-rule="evenodd" /><g clip-path="url(#139)"></g><g clip-path="url(#140)"></g><path transform="matrix(1 0 0 -1 0 841)" d="M373.99 450.07L505.53 450.07L505.53 450.07L505.53 469.15L505.53 469.15L373.99 469.15z" stroke="none" fill="#DAEEF3" fill-rule="evenodd" /><g clip-path="url(#141)"></g><g clip-path="url(#142)"></g></g><path transform="matrix(1 0 0 -1 0 841)" d="M84.264 494.23L84.744 494.23L84.744 494.23L84.744 494.71L84.744 494.71L84.264 494.71z" stroke="none" fill="#000000" fill-rule="evenodd" /><path transform="matrix(1 0 0 -1 0 841)" d="M84.744 494.23L172.104 494.23L172.104 494.23L172.104 494.71L172.104 494.71L84.744 494.71z" stroke="none" fill="#000000" fill-rule="evenodd" /><path transform="matrix(1 0 0 -1 0 841)" d="M172.1 494.23L172.58 494.23L172.58 494.23L172.58 494.71L172.58 494.71L172.1 494.71z" stroke="none" fill="#000000" fill-rule="evenodd" /><path transform="matrix(1 0 0 -1 0 841)" d="M172.58 494.23L219.404 494.23L219.404 494.23L219.404 494.71L219.404 494.71L172.58 494.71z" stroke="none" fill="#000000" fill-rule="evenodd" /><path transform="matrix(1 0 0 -1 0 841)" d="M219.41 494.23L219.89 494.23L219.89 494.23L219.89 494.71L219.89 494.71L219.41 494.71z" stroke="none" fill="#000000" fill-rule="evenodd" /><path transform="matrix(1 0 0 -1 0 841)" d="M219.89 494.23L265.85 494.23L265.85 494.23L265.85 494.71L265.85 494.71L219.89 494.71z" stroke="none" fill="#000000" fill-rule="evenodd" /><path transform="matrix(1 0 0 -1 0 841)" d="M265.85 494.23L266.33 494.23L266.33 494.23L266.33 494.71L266.33 494.71L265.85 494.71z" stroke="none" fill="#000000" fill-rule="evenodd" /><path transform="matrix(1 0 0 -1 0 841)" d="M266.33 494.23L368.47 494.23L368.47 494.23L368.47 494.71L368.47 494.71L266.33 494.71z" stroke="none" fill="#000000" fill-rule="evenodd" /><path transform="matrix(1 0 0 -1 0 841)" d="M368.47 494.23L368.95 494.23L368.95 494.23L368.95 494.71L368.95 494.71L368.47 494.71z" stroke="none" fill="#000000" fill-rule="evenodd" /><path transform="matrix(1 0 0 -1 0 841)" d="M368.95 494.23L510.69 494.23L510.69 494.23L510.69 494.71L510.69 494.71L368.95 494.71z" stroke="none" fill="#000000" fill-rule="evenodd" /><path transform="matrix(1 0 0 -1 0 841)" d="M510.7 494.23L511.18 494.23L511.18 494.23L511.18 494.71L511.18 494.71L510.7 494.71z" stroke="none" fill="#000000" fill-rule="evenodd" /><path transform="matrix(1 0 0 -1 0 841)" d="M84.264 450.07L84.744 450.07L84.744 450.07L84.744 494.23L84.744 494.23L84.264 494.23z" stroke="none" fill="#000000" fill-rule="evenodd" /><path transform="matrix(1 0 0 -1 0 841)" d="M172.1 450.07L172.58 450.07L172.58 450.07L172.58 494.23L172.58 494.23L172.1 494.23z" stroke="none" fill="#000000" fill-rule="evenodd" /><path transform="matrix(1 0 0 -1 0 841)" d="M219.41 450.07L219.89 450.07L219.89 450.07L219.89 494.23L219.89 494.23L219.41 494.23z" stroke="none" fill="#000000" fill-rule="evenodd" /><path transform="matrix(1 0 0 -1 0 841)" d="M265.85 450.07L266.33 450.07L266.33 450.07L266.33 494.23L266.33 494.23L265.85 494.23z" stroke="none" fill="#000000" fill-rule="evenodd" /><path transform="matrix(1 0 0 -1 0 841)" d="M368.47 450.07L368.95 450.07L368.95 450.07L368.95 494.23L368.95 494.23L368.47 494.23z" stroke="none" fill="#000000" fill-rule="evenodd" /><path transform="matrix(1 0 0 -1 0 841)" d="M510.7 450.07L511.18 450.07L511.18 450.07L511.18 494.23L511.18 494.23L510.7 494.23z" stroke="none" fill="#000000" fill-rule="evenodd" /><g clip-path="url(#143)"><g clip-path="url(#144)"></g><g clip-path="url(#145)"></g></g><g clip-path="url(#146)"><g clip-path="url(#147)"></g><g clip-path="url(#148)"></g></g><g clip-path="url(#149)"><g clip-path="url(#150)"></g><g clip-path="url(#151)"></g></g><g clip-path="url(#152)"><g clip-path="url(#153)"></g><g clip-path="url(#154)"></g></g><g clip-path="url(#155)"><g clip-path="url(#156)"></g><g clip-path="url(#157)"></g><g clip-path="url(#158)"></g><g clip-path="url(#159)"></g><g clip-path="url(#160)"></g><g clip-path="url(#161)"></g><g clip-path="url(#162)"></g><path transform="matrix(1 0 0 -1 0 841)" d="M376.39 383.95L424.39 383.95L424.39 383.95L424.39 384.55L424.39 384.55L376.39 384.55z" stroke="none" fill="#000000" fill-rule="evenodd" /></g><path transform="matrix(1 0 0 -1 0 841)" d="M84.264 449.59L84.744 449.59L84.744 449.59L84.744 450.07L84.744 450.07L84.264 450.07z" stroke="none" fill="#000000" fill-rule="evenodd" /><path transform="matrix(1 0 0 -1 0 841)" d="M84.744 449.59L172.104 449.59L172.104 449.59L172.104 450.07L172.104 450.07L84.744 450.07z" stroke="none" fill="#000000" fill-rule="evenodd" /><path transform="matrix(1 0 0 -1 0 841)" d="M172.1 449.59L172.58 449.59L172.58 449.59L172.58 450.07L172.58 450.07L172.1 450.07z" stroke="none" fill="#000000" fill-rule="evenodd" /><path transform="matrix(1 0 0 -1 0 841)" d="M172.58 449.59L219.404 449.59L219.404 449.59L219.404 450.07L219.404 450.07L172.58 450.07z" stroke="none" fill="#000000" fill-rule="evenodd" /><path transform="matrix(1 0 0 -1 0 841)" d="M219.41 449.59L219.89 449.59L219.89 449.59L219.89 450.07L219.89 450.07L219.41 450.07z" stroke="none" fill="#000000" fill-rule="evenodd" /><path transform="matrix(1 0 0 -1 0 841)" d="M219.89 449.59L265.85 449.59L265.85 449.59L265.85 450.07L265.85 450.07L219.89 450.07z" stroke="none" fill="#000000" fill-rule="evenodd" /><path transform="matrix(1 0 0 -1 0 841)" d="M265.85 449.59L266.33 449.59L266.33 449.59L266.33 450.07L266.33 450.07L265.85 450.07z" stroke="none" fill="#000000" fill-rule="evenodd" /><path transform="matrix(1 0 0 -1 0 841)" d="M266.33 449.59L368.47 449.59L368.47 449.59L368.47 450.07L368.47 450.07L266.33 450.07z" stroke="none" fill="#000000" fill-rule="evenodd" /><path transform="matrix(1 0 0 -1 0 841)" d="M368.47 449.59L368.95 449.59L368.95 449.59L368.95 450.07L368.95 450.07L368.47 450.07z" stroke="none" fill="#000000" fill-rule="evenodd" /><path transform="matrix(1 0 0 -1 0 841)" d="M368.95 449.59L510.69 449.59L510.69 449.59L510.69 450.07L510.69 450.07L368.95 450.07z" stroke="none" fill="#000000" fill-rule="evenodd" /><path transform="matrix(1 0 0 -1 0 841)" d="M510.7 449.59L511.18 449.59L511.18 449.59L511.18 450.07L511.18 450.07L510.7 450.07z" stroke="none" fill="#000000" fill-rule="evenodd" /><path transform="matrix(1 0 0 -1 0 841)" d="M84.264 377.95L84.744 377.95L84.744 377.95L84.744 449.59L84.744 449.59L84.264 449.59z" stroke="none" fill="#000000" fill-rule="evenodd" /><path transform="matrix(1 0 0 -1 0 841)" d="M84.264 377.47L84.744 377.47L84.744 377.47L84.744 377.95L84.744 377.95L84.264 377.95z" stroke="none" fill="#000000" fill-rule="evenodd" /><path transform="matrix(1 0 0 -1 0 841)" d="M84.264 377.47L84.744 377.47L84.744 377.47L84.744 377.95L84.744 377.95L84.264 377.95z" stroke="none" fill="#000000" fill-rule="evenodd" /><path transform="matrix(1 0 0 -1 0 841)" d="M84.744 377.47L172.104 377.47L172.104 377.47L172.104 377.95L172.104 377.95L84.744 377.95z" stroke="none" fill="#000000" fill-rule="evenodd" /><path transform="matrix(1 0 0 -1 0 841)" d="M172.1 377.95L172.58 377.95L172.58 377.95L172.58 449.59L172.58 449.59L172.1 449.59z" stroke="none" fill="#000000" fill-rule="evenodd" /><path transform="matrix(1 0 0 -1 0 841)" d="M172.1 377.47L172.58 377.47L172.58 377.47L172.58 377.95L172.58 377.95L172.1 377.95z" stroke="none" fill="#000000" fill-rule="evenodd" /><path transform="matrix(1 0 0 -1 0 841)" d="M172.58 377.47L219.404 377.47L219.404 377.47L219.404 377.95L219.404 377.95L172.58 377.95z" stroke="none" fill="#000000" fill-rule="evenodd" /><path transform="matrix(1 0 0 -1 0 841)" d="M219.41 377.95L219.89 377.95L219.89 377.95L219.89 449.59L219.89 449.59L219.41 449.59z" stroke="none" fill="#000000" fill-rule="evenodd" /><path transform="matrix(1 0 0 -1 0 841)" d="M219.41 377.47L219.89 377.47L219.89 377.47L219.89 377.95L219.89 377.95L219.41 377.95z" stroke="none" fill="#000000" fill-rule="evenodd" /><path transform="matrix(1 0 0 -1 0 841)" d="M219.89 377.47L265.85 377.47L265.85 377.47L265.85 377.95L265.85 377.95L219.89 377.95z" stroke="none" fill="#000000" fill-rule="evenodd" /><path transform="matrix(1 0 0 -1 0 841)" d="M265.85 377.95L266.33 377.95L266.33 377.95L266.33 449.59L266.33 449.59L265.85 449.59z" stroke="none" fill="#000000" fill-rule="evenodd" /><path transform="matrix(1 0 0 -1 0 841)" d="M265.85 377.47L266.33 377.47L266.33 377.47L266.33 377.95L266.33 377.95L265.85 377.95z" stroke="none" fill="#000000" fill-rule="evenodd" /><path transform="matrix(1 0 0 -1 0 841)" d="M266.33 377.47L368.47 377.47L368.47 377.47L368.47 377.95L368.47 377.95L266.33 377.95z" stroke="none" fill="#000000" fill-rule="evenodd" /><path transform="matrix(1 0 0 -1 0 841)" d="M368.47 377.95L368.95 377.95L368.95 377.95L368.95 449.59L368.95 449.59L368.47 449.59z" stroke="none" fill="#000000" fill-rule="evenodd" /><path transform="matrix(1 0 0 -1 0 841)" d="M368.47 377.47L368.95 377.47L368.95 377.47L368.95 377.95L368.95 377.95L368.47 377.95z" stroke="none" fill="#000000" fill-rule="evenodd" /><path transform="matrix(1 0 0 -1 0 841)" d="M368.95 377.47L510.69 377.47L510.69 377.47L510.69 377.95L510.69 377.95L368.95 377.95z" stroke="none" fill="#000000" fill-rule="evenodd" /><path transform="matrix(1 0 0 -1 0 841)" d="M510.7 377.95L511.18 377.95L511.18 377.95L511.18 449.59L511.18 449.59L510.7 449.59z" stroke="none" fill="#000000" fill-rule="evenodd" /><path transform="matrix(1 0 0 -1 0 841)" d="M510.7 377.47L511.18 377.47L511.18 377.47L511.18 377.95L511.18 377.95L510.7 377.95z" stroke="none" fill="#000000" fill-rule="evenodd" /><path transform="matrix(1 0 0 -1 0 841)" d="M510.7 377.47L511.18 377.47L511.18 377.47L511.18 377.95L511.18 377.95L510.7 377.95z" stroke="none" fill="#000000" fill-rule="evenodd" /><path transform="matrix(1 0 0 -1 0 841)" d="M84.744 224.45L510.694 224.45L510.694 224.45L510.694 243.53L510.694 243.53L84.744 243.53z" stroke="none" fill="#0070C0" fill-rule="evenodd" /><g clip-path="url(#163)"><path transform="matrix(1 0 0 -1 0 841)" d="M89.904 224.45L505.534 224.45L505.534 224.45L505.534 243.53L505.534 243.53L89.904 243.53z" stroke="none" fill="#0070C0" fill-rule="evenodd" /><g clip-path="url(#164)"></g><g clip-path="url(#165)"></g><g clip-path="url(#166)"></g><g clip-path="url(#167)"></g></g><path transform="matrix(1 0 0 -1 0 841)" d="M84.264 243.53L84.744 243.53L84.744 243.53L84.744 244.01L84.744 244.01L84.264 244.01z" stroke="none" fill="#000000" fill-rule="evenodd" /><path transform="matrix(1 0 0 -1 0 841)" d="M84.264 243.53L84.744 243.53L84.744 243.53L84.744 244.01L84.744 244.01L84.264 244.01z" stroke="none" fill="#000000" fill-rule="evenodd" /><path transform="matrix(1 0 0 -1 0 841)" d="M84.744 243.53L510.694 243.53L510.694 243.53L510.694 244.01L510.694 244.01L84.744 244.01z" stroke="none" fill="#000000" fill-rule="evenodd" /><path transform="matrix(1 0 0 -1 0 841)" d="M510.7 243.53L511.18 243.53L511.18 243.53L511.18 244.01L511.18 244.01L510.7 244.01z" stroke="none" fill="#000000" fill-rule="evenodd" /><path transform="matrix(1 0 0 -1 0 841)" d="M510.7 243.53L511.18 243.53L511.18 243.53L511.18 244.01L511.18 244.01L510.7 244.01z" stroke="none" fill="#000000" fill-rule="evenodd" /><path transform="matrix(1 0 0 -1 0 841)" d="M84.264 224.45L84.744 224.45L84.744 224.45L84.744 243.53L84.744 243.53L84.264 243.53z" stroke="none" fill="#000000" fill-rule="evenodd" /><path transform="matrix(1 0 0 -1 0 841)" d="M510.7 224.45L511.18 224.45L511.18 224.45L511.18 243.53L511.18 243.53L510.7 243.53z" stroke="none" fill="#000000" fill-rule="evenodd" /><path transform="matrix(1 0 0 -1 0 841)" d="M84.744 90.624L510.694 90.624L510.694 90.624L510.694 223.964L510.694 223.964L84.744 223.964z" stroke="none" fill="#DAEEF3" fill-rule="evenodd" /><g clip-path="url(#168)"><path transform="matrix(1 0 0 -1 0 841)" d="M89.904 205.01L505.534 205.01L505.534 205.01L505.534 223.97L505.534 223.97L89.904 223.97z" stroke="none" fill="#DAEEF3" fill-rule="evenodd" /><g clip-path="url(#169)"></g><g clip-path="url(#170)"></g><path transform="matrix(1 0 0 -1 0 841)" d="M89.904 185.93L505.534 185.93L505.534 185.93L505.534 205.01L505.534 205.01L89.904 205.01z" stroke="none" fill="#DAEEF3" fill-rule="evenodd" /><g clip-path="url(#171)"></g><g clip-path="url(#172)"></g><g clip-path="url(#173)"></g><g clip-path="url(#174)"></g><g clip-path="url(#175)"></g><g clip-path="url(#176)"></g><g clip-path="url(#177)"></g><g clip-path="url(#178)"></g><path transform="matrix(1 0 0 -1 0 841)" d="M89.904 166.82L505.534 166.82L505.534 166.82L505.534 185.924L505.534 185.924L89.904 185.924z" stroke="none" fill="#DAEEF3" fill-rule="evenodd" /><g clip-path="url(#179)"></g><g clip-path="url(#180)"></g><g clip-path="url(#181)"></g><g clip-path="url(#182)"></g><g clip-path="url(#183)"></g><g clip-path="url(#184)"></g><path transform="matrix(1 0 0 -1 0 841)" d="M89.904 147.74L505.534 147.74L505.534 147.74L505.534 166.82L505.534 166.82L89.904 166.82z" stroke="none" fill="#DAEEF3" fill-rule="evenodd" /><g clip-path="url(#185)"></g><g clip-path="url(#186)"></g><g clip-path="url(#187)"></g><g clip-path="url(#188)"></g><g clip-path="url(#189)"></g><g clip-path="url(#190)"></g><g clip-path="url(#191)"></g><path transform="matrix(1 0 0 -1 0 841)" d="M89.904 128.78L505.534 128.78L505.534 128.78L505.534 147.74L505.534 147.74L89.904 147.74z" stroke="none" fill="#DAEEF3" fill-rule="evenodd" /><g clip-path="url(#192)"></g><g clip-path="url(#193)"></g><g clip-path="url(#194)"></g><g clip-path="url(#195)"></g><path transform="matrix(1 0 0 -1 0 841)" d="M89.904 109.7L505.534 109.7L505.534 109.7L505.534 128.78L505.534 128.78L89.904 128.78z" stroke="none" fill="#DAEEF3" fill-rule="evenodd" /><g clip-path="url(#196)"></g><g clip-path="url(#197)"></g><g clip-path="url(#198)"></g><g clip-path="url(#199)"></g><g clip-path="url(#200)"></g><path transform="matrix(1 0 0 -1 0 841)" d="M89.904 90.624L505.534 90.624L505.534 90.624L505.534 109.704L505.534 109.704L89.904 109.704z" stroke="none" fill="#DAEEF3" fill-rule="evenodd" /><g clip-path="url(#201)"></g><g clip-path="url(#202)"></g><g clip-path="url(#203)"></g><g clip-path="url(#204)"></g></g><path transform="matrix(1 0 0 -1 0 841)" d="M84.264 223.97L84.744 223.97L84.744 223.97L84.744 224.45L84.744 224.45L84.264 224.45z" stroke="none" fill="#000000" fill-rule="evenodd" /><path transform="matrix(1 0 0 -1 0 841)" d="M84.744 223.97L510.694 223.97L510.694 223.97L510.694 224.45L510.694 224.45L84.744 224.45z" stroke="none" fill="#000000" fill-rule="evenodd" /><path transform="matrix(1 0 0 -1 0 841)" d="M510.7 223.97L511.18 223.97L511.18 223.97L511.18 224.45L511.18 224.45L510.7 224.45z" stroke="none" fill="#000000" fill-rule="evenodd" /><path transform="matrix(1 0 0 -1 0 841)" d="M84.264 90.624L84.744 90.624L84.744 90.624L84.744 223.964L84.744 223.964L84.264 223.964z" stroke="none" fill="#000000" fill-rule="evenodd" /><path transform="matrix(1 0 0 -1 0 841)" d="M84.264 90.144L84.744 90.144L84.744 90.144L84.744 90.62398L84.744 90.62398L84.264 90.62398z" stroke="none" fill="#000000" fill-rule="evenodd" /><path transform="matrix(1 0 0 -1 0 841)" d="M84.264 90.144L84.744 90.144L84.744 90.144L84.744 90.62398L84.744 90.62398L84.264 90.62398z" stroke="none" fill="#000000" fill-rule="evenodd" /><path transform="matrix(1 0 0 -1 0 841)" d="M84.744 90.144L510.694 90.144L510.694 90.144L510.694 90.62398L510.694 90.62398L84.744 90.62398z" stroke="none" fill="#000000" fill-rule="evenodd" /><path transform="matrix(1 0 0 -1 0 841)" d="M510.7 90.624L511.18 90.624L511.18 90.624L511.18 223.964L511.18 223.964L510.7 223.964z" stroke="none" fill="#000000" fill-rule="evenodd" /><path transform="matrix(1 0 0 -1 0 841)" d="M510.7 90.144L511.18 90.144L511.18 90.144L511.18 90.62398L511.18 90.62398L510.7 90.62398z" stroke="none" fill="#000000" fill-rule="evenodd" /><path transform="matrix(1 0 0 -1 0 841)" d="M510.7 90.144L511.18 90.144L511.18 90.144L511.18 90.62398L511.18 90.62398L510.7 90.62398z" stroke="none" fill="#000000" fill-rule="evenodd" /></g></g></g></svg>