<svg xmlns="http://www.w3.org/2000/svg" xmlns:xlink="http://www.w3.org/1999/xlink" id="body_102" preserveAspectRatio="xMinYMin meet" viewBox="0 0 793 1121"><defs><clipPath id="1"><path d="M0 841L0 -0.9199829L0 -0.9199829L595.32 -0.9199829L595.32 -0.9199829L595.32 841L595.32 841L0 841z" /></clipPath><clipPath id="2"><path d="M0.00125 841.0914L595.4112 841.0914L595.4112 841.0914L595.4112 -0.9186401L595.4112 -0.9186401L0.00125 -0.9186401z" /></clipPath><clipPath id="3"><path d="M288.05 779.771L316.01 779.771L316.01 779.771L316.01 760.691L316.01 760.691L288.05 760.691z" /></clipPath><clipPath id="4"><path d="M288.05 779.776L316.01 779.776L316.01 779.776L316.01 760.696L316.01 760.696L288.05 760.696z" /></clipPath><clipPath id="5"><path d="M288.05 779.776L316.01 779.776L316.01 779.776L316.01 760.696L316.01 760.696L288.05 760.696z" /></clipPath><clipPath id="6"><path d="M84.751 108.55L510.691 108.55L510.691 108.55L510.691 89.44L510.691 89.44L84.751 89.44z" /></clipPath><clipPath id="7"><path d="M84.744 108.54L510.694 108.54L510.694 108.54L510.694 89.43597L510.694 89.43597L84.744 89.43597z" /></clipPath><clipPath id="8"><path d="M84.744 108.54L510.694 108.54L510.694 108.54L510.694 89.43597L510.694 89.43597L84.744 89.43597z" /></clipPath><clipPath id="9"><path d="M84.744 108.54L510.694 108.54L510.694 108.54L510.694 89.43597L510.694 89.43597L84.744 89.43597z" /></clipPath><clipPath id="10"><path d="M84.751 242.35L510.691 242.35L510.691 242.35L510.691 109.03L510.691 109.03L84.751 109.03z" /></clipPath><clipPath id="11"><path d="M84.744 242.34L510.694 242.34L510.694 242.34L510.694 109.02L510.694 109.02L84.744 109.02z" /></clipPath><clipPath id="12"><path d="M84.744 242.34L510.694 242.34L510.694 242.34L510.694 109.02L510.694 109.02L84.744 109.02z" /></clipPath><clipPath id="13"><path d="M84.744 242.34L510.694 242.34L510.694 242.34L510.694 109.02L510.694 109.02L84.744 109.02z" /></clipPath><clipPath id="14"><path d="M84.744 242.34L510.694 242.34L510.694 242.34L510.694 109.02L510.694 109.02L84.744 109.02z" /></clipPath><clipPath id="15"><path d="M84.744 242.34L510.694 242.34L510.694 242.34L510.694 109.02L510.694 109.02L84.744 109.02z" /></clipPath><clipPath id="16"><path d="M84.744 242.34L510.694 242.34L510.694 242.34L510.694 109.02L510.694 109.02L84.744 109.02z" /></clipPath><clipPath id="17"><path d="M84.744 242.34L510.694 242.34L510.694 242.34L510.694 109.02L510.694 109.02L84.744 109.02z" /></clipPath><clipPath id="18"><path d="M84.744 242.34L510.694 242.34L510.694 242.34L510.694 109.02L510.694 109.02L84.744 109.02z" /></clipPath><clipPath id="19"><path d="M84.744 242.34L510.694 242.34L510.694 242.34L510.694 109.02L510.694 109.02L84.744 109.02z" /></clipPath><clipPath id="20"><path d="M84.744 242.34L510.694 242.34L510.694 242.34L510.694 109.02L510.694 109.02L84.744 109.02z" /></clipPath><clipPath id="21"><path d="M84.744 242.34L510.694 242.34L510.694 242.34L510.694 109.02L510.694 109.02L84.744 109.02z" /></clipPath><clipPath id="22"><path d="M84.744 242.34L510.694 242.34L510.694 242.34L510.694 109.02L510.694 109.02L84.744 109.02z" /></clipPath><clipPath id="23"><path d="M84.744 242.34L510.694 242.34L510.694 242.34L510.694 109.02L510.694 109.02L84.744 109.02z" /></clipPath><clipPath id="24"><path d="M84.744 242.34L510.694 242.34L510.694 242.34L510.694 109.02L510.694 109.02L84.744 109.02z" /></clipPath><clipPath id="25"><path d="M84.751 388.05L164.191 388.05L164.191 388.05L164.191 368.97L164.191 368.97L84.751 368.97z" /></clipPath><clipPath id="26"><path d="M84.744 388.05L164.184 388.05L164.184 388.05L164.184 368.97L164.184 368.97L84.744 368.97z" /></clipPath><clipPath id="27"><path d="M84.744 388.05L164.184 388.05L164.184 388.05L164.184 368.97L164.184 368.97L84.744 368.97z" /></clipPath><clipPath id="28"><path d="M164.67 388.05L214.965 388.05L214.965 388.05L214.965 368.97L214.965 368.97L164.67 368.97z" /></clipPath><clipPath id="29"><path d="M164.66 388.05L214.964 388.05L214.964 388.05L214.964 368.97L214.964 368.97L164.66 368.97z" /></clipPath><clipPath id="30"><path d="M164.66 388.05L214.964 388.05L214.964 388.05L214.964 368.97L214.964 368.97L164.66 368.97z" /></clipPath><clipPath id="31"><path d="M215.45 388.05L258.65 388.05L258.65 388.05L258.65 368.97L258.65 368.97L215.45 368.97z" /></clipPath><clipPath id="32"><path d="M215.45 388.05L258.65 388.05L258.65 388.05L258.65 368.97L258.65 368.97L215.45 368.97z" /></clipPath><clipPath id="33"><path d="M215.45 388.05L258.65 388.05L258.65 388.05L258.65 368.97L258.65 368.97L215.45 368.97z" /></clipPath><clipPath id="34"><path d="M259.25 388.05L382.52 388.05L382.52 388.05L382.52 368.97L382.52 368.97L259.25 368.97z" /></clipPath><clipPath id="35"><path d="M259.25 388.05L382.51 388.05L382.51 388.05L382.51 368.97L382.51 368.97L259.25 368.97z" /></clipPath><clipPath id="36"><path d="M259.25 388.05L382.51 388.05L382.51 388.05L382.51 368.97L382.51 368.97L259.25 368.97z" /></clipPath><clipPath id="37"><path d="M383 388.05L528.22 388.05L528.22 388.05L528.22 368.97L528.22 368.97L383 368.97z" /></clipPath><clipPath id="38"><path d="M382.99 388.05L528.21 388.05L528.21 388.05L528.21 368.97L528.21 368.97L382.99 368.97z" /></clipPath><clipPath id="39"><path d="M382.99 388.05L528.21 388.05L528.21 388.05L528.21 368.97L528.21 368.97L382.99 368.97z" /></clipPath><clipPath id="40"><path d="M84.751 426.69L164.191 426.69L164.191 426.69L164.191 388.53L164.191 388.53L84.751 388.53z" /></clipPath><clipPath id="41"><path d="M84.744 426.69L164.184 426.69L164.184 426.69L164.184 388.53L164.184 388.53L84.744 388.53z" /></clipPath><clipPath id="42"><path d="M84.744 426.69L164.184 426.69L164.184 426.69L164.184 388.53L164.184 388.53L84.744 388.53z" /></clipPath><clipPath id="43"><path d="M164.67 426.69L214.965 426.69L214.965 426.69L214.965 388.53L214.965 388.53L164.67 388.53z" /></clipPath><clipPath id="44"><path d="M164.66 426.69L214.964 426.69L214.964 426.69L214.964 388.53L214.964 388.53L164.66 388.53z" /></clipPath><clipPath id="45"><path d="M164.66 426.69L214.964 426.69L214.964 426.69L214.964 388.53L214.964 388.53L164.66 388.53z" /></clipPath><clipPath id="46"><path d="M215.45 426.69L258.65 426.69L258.65 426.69L258.65 388.53L258.65 388.53L215.45 388.53z" /></clipPath><clipPath id="47"><path d="M215.45 426.69L258.65 426.69L258.65 426.69L258.65 388.53L258.65 388.53L215.45 388.53z" /></clipPath><clipPath id="48"><path d="M215.45 426.69L258.65 426.69L258.65 426.69L258.65 388.53L258.65 388.53L215.45 388.53z" /></clipPath><clipPath id="49"><path d="M259.25 426.69L382.52 426.69L382.52 426.69L382.52 388.53L382.52 388.53L259.25 388.53z" /></clipPath><clipPath id="50"><path d="M259.25 426.69L382.51 426.69L382.51 426.69L382.51 388.53L382.51 388.53L259.25 388.53z" /></clipPath><clipPath id="51"><path d="M259.25 426.69L382.51 426.69L382.51 426.69L382.51 388.53L382.51 388.53L259.25 388.53z" /></clipPath><clipPath id="52"><path d="M259.25 426.69L382.51 426.69L382.51 426.69L382.51 388.53L382.51 388.53L259.25 388.53z" /></clipPath><clipPath id="53"><path d="M383 426.69L528.22 426.69L528.22 426.69L528.22 388.53L528.22 388.53L383 388.53z" /></clipPath><clipPath id="54"><path d="M382.99 426.69L528.21 426.69L528.21 426.69L528.21 388.53L528.21 388.53L382.99 388.53z" /></clipPath><clipPath id="55"><path d="M382.99 426.69L528.21 426.69L528.21 426.69L528.21 388.53L528.21 388.53L382.99 388.53z" /></clipPath><clipPath id="56"><path d="M382.99 426.69L528.21 426.69L528.21 426.69L528.21 388.53L528.21 388.53L382.99 388.53z" /></clipPath><clipPath id="57"><path d="M84.751 446.25L164.191 446.25L164.191 446.25L164.191 427.17L164.191 427.17L84.751 427.17z" /></clipPath><clipPath id="58"><path d="M84.744 446.25L164.184 446.25L164.184 446.25L164.184 427.17L164.184 427.17L84.744 427.17z" /></clipPath><clipPath id="59"><path d="M84.744 446.25L164.184 446.25L164.184 446.25L164.184 427.17L164.184 427.17L84.744 427.17z" /></clipPath><clipPath id="60"><path d="M164.67 446.25L214.965 446.25L214.965 446.25L214.965 427.17L214.965 427.17L164.67 427.17z" /></clipPath><clipPath id="61"><path d="M164.66 446.25L214.964 446.25L214.964 446.25L214.964 427.17L214.964 427.17L164.66 427.17z" /></clipPath><clipPath id="62"><path d="M164.66 446.25L214.964 446.25L214.964 446.25L214.964 427.17L214.964 427.17L164.66 427.17z" /></clipPath><clipPath id="63"><path d="M215.45 446.25L258.65 446.25L258.65 446.25L258.65 427.17L258.65 427.17L215.45 427.17z" /></clipPath><clipPath id="64"><path d="M215.45 446.25L258.65 446.25L258.65 446.25L258.65 427.17L258.65 427.17L215.45 427.17z" /></clipPath><clipPath id="65"><path d="M215.45 446.25L258.65 446.25L258.65 446.25L258.65 427.17L258.65 427.17L215.45 427.17z" /></clipPath><clipPath id="66"><path d="M259.25 446.25L382.52 446.25L382.52 446.25L382.52 427.17L382.52 427.17L259.25 427.17z" /></clipPath><clipPath id="67"><path d="M259.25 446.25L382.51 446.25L382.51 446.25L382.51 427.17L382.51 427.17L259.25 427.17z" /></clipPath><clipPath id="68"><path d="M259.25 446.25L382.51 446.25L382.51 446.25L382.51 427.17L382.51 427.17L259.25 427.17z" /></clipPath><clipPath id="69"><path d="M383 446.25L528.22 446.25L528.22 446.25L528.22 427.17L528.22 427.17L383 427.17z" /></clipPath><clipPath id="70"><path d="M382.99 446.25L528.21 446.25L528.21 446.25L528.21 427.17L528.21 427.17L382.99 427.17z" /></clipPath><clipPath id="71"><path d="M382.99 446.25L528.21 446.25L528.21 446.25L528.21 427.17L528.21 427.17L382.99 427.17z" /></clipPath><clipPath id="72"><path d="M84.751 465.69L164.191 465.69L164.191 465.69L164.191 446.73L164.191 446.73L84.751 446.73z" /></clipPath><clipPath id="73"><path d="M84.744 465.69L164.184 465.69L164.184 465.69L164.184 446.73L164.184 446.73L84.744 446.73z" /></clipPath><clipPath id="74"><path d="M84.744 465.69L164.184 465.69L164.184 465.69L164.184 446.73L164.184 446.73L84.744 446.73z" /></clipPath><clipPath id="75"><path d="M164.67 465.69L214.965 465.69L214.965 465.69L214.965 446.73L214.965 446.73L164.67 446.73z" /></clipPath><clipPath id="76"><path d="M164.66 465.69L214.964 465.69L214.964 465.69L214.964 446.73L214.964 446.73L164.66 446.73z" /></clipPath><clipPath id="77"><path d="M164.66 465.69L214.964 465.69L214.964 465.69L214.964 446.73L214.964 446.73L164.66 446.73z" /></clipPath><clipPath id="78"><path d="M215.45 465.69L258.65 465.69L258.65 465.69L258.65 446.73L258.65 446.73L215.45 446.73z" /></clipPath><clipPath id="79"><path d="M215.45 465.69L258.65 465.69L258.65 465.69L258.65 446.73L258.65 446.73L215.45 446.73z" /></clipPath><clipPath id="80"><path d="M215.45 465.69L258.65 465.69L258.65 465.69L258.65 446.73L258.65 446.73L215.45 446.73z" /></clipPath><clipPath id="81"><path d="M259.25 465.69L382.52 465.69L382.52 465.69L382.52 446.73L382.52 446.73L259.25 446.73z" /></clipPath><clipPath id="82"><path d="M259.25 465.69L382.51 465.69L382.51 465.69L382.51 446.73L382.51 446.73L259.25 446.73z" /></clipPath><clipPath id="83"><path d="M259.25 465.69L382.51 465.69L382.51 465.69L382.51 446.73L382.51 446.73L259.25 446.73z" /></clipPath><clipPath id="84"><path d="M383 465.69L528.22 465.69L528.22 465.69L528.22 446.73L528.22 446.73L383 446.73z" /></clipPath><clipPath id="85"><path d="M382.99 465.69L528.21 465.69L528.21 465.69L528.21 446.73L528.21 446.73L382.99 446.73z" /></clipPath><clipPath id="86"><path d="M382.99 465.69L528.21 465.69L528.21 465.69L528.21 446.73L528.21 446.73L382.99 446.73z" /></clipPath><clipPath id="87"><path d="M84.751 485.28L164.191 485.28L164.191 485.28L164.191 466.29L164.191 466.29L84.751 466.29z" /></clipPath><clipPath id="88"><path d="M84.744 485.27L164.184 485.27L164.184 485.27L164.184 466.286L164.184 466.286L84.744 466.286z" /></clipPath><clipPath id="89"><path d="M84.744 485.27L164.184 485.27L164.184 485.27L164.184 466.286L164.184 466.286L84.744 466.286z" /></clipPath><clipPath id="90"><path d="M164.67 485.28L214.965 485.28L214.965 485.28L214.965 466.29L214.965 466.29L164.67 466.29z" /></clipPath><clipPath id="91"><path d="M164.66 485.27L214.964 485.27L214.964 485.27L214.964 466.286L214.964 466.286L164.66 466.286z" /></clipPath><clipPath id="92"><path d="M164.66 485.27L214.964 485.27L214.964 485.27L214.964 466.286L214.964 466.286L164.66 466.286z" /></clipPath><clipPath id="93"><path d="M215.45 485.28L258.65 485.28L258.65 485.28L258.65 466.29L258.65 466.29L215.45 466.29z" /></clipPath><clipPath id="94"><path d="M215.45 485.27L258.65 485.27L258.65 485.27L258.65 466.286L258.65 466.286L215.45 466.286z" /></clipPath><clipPath id="95"><path d="M215.45 485.27L258.65 485.27L258.65 485.27L258.65 466.286L258.65 466.286L215.45 466.286z" /></clipPath><clipPath id="96"><path d="M259.25 485.28L382.52 485.28L382.52 485.28L382.52 466.29L382.52 466.29L259.25 466.29z" /></clipPath><clipPath id="97"><path d="M259.25 485.27L382.51 485.27L382.51 485.27L382.51 466.286L382.51 466.286L259.25 466.286z" /></clipPath><clipPath id="98"><path d="M259.25 485.27L382.51 485.27L382.51 485.27L382.51 466.286L382.51 466.286L259.25 466.286z" /></clipPath><clipPath id="99"><path d="M383 485.28L528.22 485.28L528.22 485.28L528.22 466.29L528.22 466.29L383 466.29z" /></clipPath><clipPath id="100"><path d="M382.99 485.27L528.21 485.27L528.21 485.27L528.21 466.286L528.21 466.286L382.99 466.286z" /></clipPath><clipPath id="101"><path d="M382.99 485.27L528.21 485.27L528.21 485.27L528.21 466.286L528.21 466.286L382.99 466.286z" /></clipPath><clipPath id="102"><path d="M84.751 562.08L164.191 562.08L164.191 562.08L164.191 485.88L164.191 485.88L84.751 485.88z" /></clipPath><clipPath id="103"><path d="M84.744 562.07L164.184 562.07L164.184 562.07L164.184 485.87L164.184 485.87L84.744 485.87z" /></clipPath><clipPath id="104"><path d="M84.744 562.07L164.184 562.07L164.184 562.07L164.184 485.87L164.184 485.87L84.744 485.87z" /></clipPath><clipPath id="105"><path d="M164.67 562.08L214.965 562.08L214.965 562.08L214.965 485.88L214.965 485.88L164.67 485.88z" /></clipPath><clipPath id="106"><path d="M164.66 562.07L214.964 562.07L214.964 562.07L214.964 485.87L214.964 485.87L164.66 485.87z" /></clipPath><clipPath id="107"><path d="M164.66 562.07L214.964 562.07L214.964 562.07L214.964 485.87L214.964 485.87L164.66 485.87z" /></clipPath><clipPath id="108"><path d="M215.45 562.08L258.65 562.08L258.65 562.08L258.65 485.88L258.65 485.88L215.45 485.88z" /></clipPath><clipPath id="109"><path d="M215.45 562.07L258.65 562.07L258.65 562.07L258.65 485.87L258.65 485.87L215.45 485.87z" /></clipPath><clipPath id="110"><path d="M215.45 562.07L258.65 562.07L258.65 562.07L258.65 485.87L258.65 485.87L215.45 485.87z" /></clipPath><clipPath id="111"><path d="M259.25 562.08L382.52 562.08L382.52 562.08L382.52 485.88L382.52 485.88L259.25 485.88z" /></clipPath><clipPath id="112"><path d="M259.25 562.07L382.51 562.07L382.51 562.07L382.51 485.87L382.51 485.87L259.25 485.87z" /></clipPath><clipPath id="113"><path d="M383 562.08L528.22 562.08L528.22 562.08L528.22 485.88L528.22 485.88L383 485.88z" /></clipPath><clipPath id="114"><path d="M382.99 562.07L528.21 562.07L528.21 562.07L528.21 485.87L528.21 485.87L382.99 485.87z" /></clipPath><clipPath id="115"><path d="M382.99 562.07L528.21 562.07L528.21 562.07L528.21 485.87L528.21 485.87L382.99 485.87z" /></clipPath><clipPath id="116"><path d="M382.99 562.07L528.21 562.07L528.21 562.07L528.21 485.87L528.21 485.87L382.99 485.87z" /></clipPath><clipPath id="117"><path d="M382.99 562.07L528.21 562.07L528.21 562.07L528.21 485.87L528.21 485.87L382.99 485.87z" /></clipPath><clipPath id="118"><path d="M382.99 562.07L528.21 562.07L528.21 562.07L528.21 485.87L528.21 485.87L382.99 485.87z" /></clipPath><clipPath id="119"><path d="M382.99 562.07L528.21 562.07L528.21 562.07L528.21 485.87L528.21 485.87L382.99 485.87z" /></clipPath><clipPath id="120"><path d="M382.99 562.07L528.21 562.07L528.21 562.07L528.21 485.87L528.21 485.87L382.99 485.87z" /></clipPath><clipPath id="121"><path d="M84.751 581.52L164.191 581.52L164.191 581.52L164.191 562.56L164.191 562.56L84.751 562.56z" /></clipPath><clipPath id="122"><path d="M84.744 581.51L164.184 581.51L164.184 581.51L164.184 562.55L164.184 562.55L84.744 562.55z" /></clipPath><clipPath id="123"><path d="M84.744 581.51L164.184 581.51L164.184 581.51L164.184 562.55L164.184 562.55L84.744 562.55z" /></clipPath><clipPath id="124"><path d="M164.67 581.52L214.965 581.52L214.965 581.52L214.965 562.56L214.965 562.56L164.67 562.56z" /></clipPath><clipPath id="125"><path d="M164.66 581.51L214.964 581.51L214.964 581.51L214.964 562.55L214.964 562.55L164.66 562.55z" /></clipPath><clipPath id="126"><path d="M164.66 581.51L214.964 581.51L214.964 581.51L214.964 562.55L214.964 562.55L164.66 562.55z" /></clipPath><clipPath id="127"><path d="M215.45 581.52L258.65 581.52L258.65 581.52L258.65 562.56L258.65 562.56L215.45 562.56z" /></clipPath><clipPath id="128"><path d="M215.45 581.51L258.65 581.51L258.65 581.51L258.65 562.55L258.65 562.55L215.45 562.55z" /></clipPath><clipPath id="129"><path d="M215.45 581.51L258.65 581.51L258.65 581.51L258.65 562.55L258.65 562.55L215.45 562.55z" /></clipPath><clipPath id="130"><path d="M259.25 581.52L382.52 581.52L382.52 581.52L382.52 562.56L382.52 562.56L259.25 562.56z" /></clipPath><clipPath id="131"><path d="M259.25 581.51L382.51 581.51L382.51 581.51L382.51 562.55L382.51 562.55L259.25 562.55z" /></clipPath><clipPath id="132"><path d="M259.25 581.51L382.51 581.51L382.51 581.51L382.51 562.55L382.51 562.55L259.25 562.55z" /></clipPath><clipPath id="133"><path d="M383 581.52L528.22 581.52L528.22 581.52L528.22 562.56L528.22 562.56L383 562.56z" /></clipPath><clipPath id="134"><path d="M382.99 581.51L528.21 581.51L528.21 581.51L528.21 562.55L528.21 562.55L382.99 562.55z" /></clipPath><clipPath id="135"><path d="M382.99 581.51L528.21 581.51L528.21 581.51L528.21 562.55L528.21 562.55L382.99 562.55z" /></clipPath><clipPath id="136"><path d="M382.99 581.51L528.21 581.51L528.21 581.51L528.21 562.55L528.21 562.55L382.99 562.55z" /></clipPath><clipPath id="137"><path d="M84.751 639.24L164.191 639.24L164.191 639.24L164.191 582.12L164.191 582.12L84.751 582.12z" /></clipPath><clipPath id="138"><path d="M84.744 639.23L164.184 639.23L164.184 639.23L164.184 582.11L164.184 582.11L84.744 582.11z" /></clipPath><clipPath id="139"><path d="M84.744 639.23L164.184 639.23L164.184 639.23L164.184 582.11L164.184 582.11L84.744 582.11z" /></clipPath><clipPath id="140"><path d="M84.744 639.23L164.184 639.23L164.184 639.23L164.184 582.11L164.184 582.11L84.744 582.11z" /></clipPath><clipPath id="141"><path d="M164.67 639.24L214.965 639.24L214.965 639.24L214.965 582.12L214.965 582.12L164.67 582.12z" /></clipPath><clipPath id="142"><path d="M164.66 639.23L214.964 639.23L214.964 639.23L214.964 582.11L214.964 582.11L164.66 582.11z" /></clipPath><clipPath id="143"><path d="M164.66 639.23L214.964 639.23L214.964 639.23L214.964 582.11L214.964 582.11L164.66 582.11z" /></clipPath><clipPath id="144"><path d="M215.45 639.24L258.65 639.24L258.65 639.24L258.65 582.12L258.65 582.12L215.45 582.12z" /></clipPath><clipPath id="145"><path d="M215.45 639.23L258.65 639.23L258.65 639.23L258.65 582.11L258.65 582.11L215.45 582.11z" /></clipPath><clipPath id="146"><path d="M215.45 639.23L258.65 639.23L258.65 639.23L258.65 582.11L258.65 582.11L215.45 582.11z" /></clipPath><clipPath id="147"><path d="M259.25 639.24L382.52 639.24L382.52 639.24L382.52 582.12L382.52 582.12L259.25 582.12z" /></clipPath><clipPath id="148"><path d="M259.25 639.23L382.51 639.23L382.51 639.23L382.51 582.11L382.51 582.11L259.25 582.11z" /></clipPath><clipPath id="149"><path d="M259.25 639.23L382.51 639.23L382.51 639.23L382.51 582.11L382.51 582.11L259.25 582.11z" /></clipPath><clipPath id="150"><path d="M259.25 639.23L382.51 639.23L382.51 639.23L382.51 582.11L382.51 582.11L259.25 582.11z" /></clipPath><clipPath id="151"><path d="M383 639.24L528.22 639.24L528.22 639.24L528.22 582.12L528.22 582.12L383 582.12z" /></clipPath><clipPath id="152"><path d="M382.99 639.23L528.21 639.23L528.21 639.23L528.21 582.11L528.21 582.11L382.99 582.11z" /></clipPath><clipPath id="153"><path d="M382.99 639.23L528.21 639.23L528.21 639.23L528.21 582.11L528.21 582.11L382.99 582.11z" /></clipPath><clipPath id="154"><path d="M382.99 639.23L528.21 639.23L528.21 639.23L528.21 582.11L528.21 582.11L382.99 582.11z" /></clipPath><clipPath id="155"><path d="M382.99 639.23L528.21 639.23L528.21 639.23L528.21 582.11L528.21 582.11L382.99 582.11z" /></clipPath><clipPath id="156"><path d="M382.99 639.23L528.21 639.23L528.21 639.23L528.21 582.11L528.21 582.11L382.99 582.11z" /></clipPath><clipPath id="157"><path d="M382.99 639.23L528.21 639.23L528.21 639.23L528.21 582.11L528.21 582.11L382.99 582.11z" /></clipPath><clipPath id="158"><path d="M84.751 735.01L164.191 735.01L164.191 735.01L164.191 639.715L164.191 639.715L84.751 639.715z" /></clipPath><clipPath id="159"><path d="M84.744 735.02L164.184 735.02L164.184 735.02L164.184 639.716L164.184 639.716L84.744 639.716z" /></clipPath><clipPath id="160"><path d="M84.744 735.02L164.184 735.02L164.184 735.02L164.184 639.716L164.184 639.716L84.744 639.716z" /></clipPath><clipPath id="161"><path d="M84.744 735.02L164.184 735.02L164.184 735.02L164.184 639.716L164.184 639.716L84.744 639.716z" /></clipPath><clipPath id="162"><path d="M164.67 735.01L214.965 735.01L214.965 735.01L214.965 639.715L214.965 639.715L164.67 639.715z" /></clipPath><clipPath id="163"><path d="M164.66 735.02L214.964 735.02L214.964 735.02L214.964 639.716L214.964 639.716L164.66 639.716z" /></clipPath><clipPath id="164"><path d="M164.66 735.02L214.964 735.02L214.964 735.02L214.964 639.716L214.964 639.716L164.66 639.716z" /></clipPath><clipPath id="165"><path d="M215.45 735.01L258.65 735.01L258.65 735.01L258.65 639.715L258.65 639.715L215.45 639.715z" /></clipPath><clipPath id="166"><path d="M215.45 735.02L258.65 735.02L258.65 735.02L258.65 639.716L258.65 639.716L215.45 639.716z" /></clipPath><clipPath id="167"><path d="M215.45 735.02L258.65 735.02L258.65 735.02L258.65 639.716L258.65 639.716L215.45 639.716z" /></clipPath><clipPath id="168"><path d="M259.25 735.01L382.52 735.01L382.52 735.01L382.52 639.715L382.52 639.715L259.25 639.715z" /></clipPath><clipPath id="169"><path d="M259.25 735.02L382.51 735.02L382.51 735.02L382.51 639.716L382.51 639.716L259.25 639.716z" /></clipPath><clipPath id="170"><path d="M259.25 735.02L382.51 735.02L382.51 735.02L382.51 639.716L382.51 639.716L259.25 639.716z" /></clipPath><clipPath id="171"><path d="M259.25 735.02L382.51 735.02L382.51 735.02L382.51 639.716L382.51 639.716L259.25 639.716z" /></clipPath><clipPath id="172"><path d="M383 735.01L528.22 735.01L528.22 735.01L528.22 639.715L528.22 639.715L383 639.715z" /></clipPath><clipPath id="173"><path d="M382.99 735.02L528.21 735.02L528.21 735.02L528.21 639.716L528.21 639.716L382.99 639.716z" /></clipPath><clipPath id="174"><path d="M382.99 735.02L528.21 735.02L528.21 735.02L528.21 639.716L528.21 639.716L382.99 639.716z" /></clipPath><clipPath id="175"><path d="M382.99 735.02L528.21 735.02L528.21 735.02L528.21 639.716L528.21 639.716L382.99 639.716z" /></clipPath><clipPath id="176"><path d="M382.99 735.02L528.21 735.02L528.21 735.02L528.21 639.716L528.21 639.716L382.99 639.716z" /></clipPath><clipPath id="177"><path d="M382.99 735.02L528.21 735.02L528.21 735.02L528.21 639.716L528.21 639.716L382.99 639.716z" /></clipPath><clipPath id="178"><path d="M382.99 735.02L528.21 735.02L528.21 735.02L528.21 639.716L528.21 639.716L382.99 639.716z" /></clipPath><clipPath id="179"><path d="M382.99 735.02L528.21 735.02L528.21 735.02L528.21 639.716L528.21 639.716L382.99 639.716z" /></clipPath><clipPath id="180"><path d="M382.99 735.02L528.21 735.02L528.21 735.02L528.21 639.716L528.21 639.716L382.99 639.716z" /></clipPath><clipPath id="181"><path d="M382.99 735.02L528.21 735.02L528.21 735.02L528.21 639.716L528.21 639.716L382.99 639.716z" /></clipPath></defs><g transform="matrix(1.333333 0 0 1.333333 0 0)"><g><g clip-path="url(#1)"><path transform="matrix(1 0 0 -1 0 841)" d="M457.51 53.304L505.534 53.304L505.534 53.304L505.534 53.90404L505.534 53.90404L457.51 53.90404z" stroke="none" fill="#000000" fill-rule="evenodd" /><g clip-path="url(#2)"><path transform="matrix(1 0 0 -1 0 841)" d="M88.464 77.904L506.974 77.904L506.974 77.904L506.974 80.904L506.974 80.904L88.464 80.904z" stroke="none" fill="#000000" fill-rule="evenodd" /><path transform="matrix(1 0 0 -1 0 841)" d="M88.464 76.464L506.974 76.464L506.974 76.464L506.974 77.18397L506.974 77.18397L88.464 77.18397z" stroke="none" fill="#000000" fill-rule="evenodd" /></g><g clip-path="url(#3)"><g clip-path="url(#4)"></g><g clip-path="url(#5)"></g></g><path transform="matrix(1 0 0 -1 0 841)" d="M84.744 732.46L510.694 732.46L510.694 732.46L510.694 751.564L510.694 751.564L84.744 751.564z" stroke="none" fill="#0070C0" fill-rule="evenodd" /><g clip-path="url(#6)"><path transform="matrix(1 0 0 -1 0 841)" d="M89.904 732.46L505.534 732.46L505.534 732.46L505.534 751.564L505.534 751.564L89.904 751.564z" stroke="none" fill="#0070C0" fill-rule="evenodd" /><g clip-path="url(#7)"></g><g clip-path="url(#8)"></g><g clip-path="url(#9)"></g></g><path transform="matrix(1 0 0 -1 0 841)" d="M84.264 751.56L84.744 751.56L84.744 751.56L84.744 752.04L84.744 752.04L84.264 752.04z" stroke="none" fill="#000000" fill-rule="evenodd" /><path transform="matrix(1 0 0 -1 0 841)" d="M84.264 751.56L84.744 751.56L84.744 751.56L84.744 752.04L84.744 752.04L84.264 752.04z" stroke="none" fill="#000000" fill-rule="evenodd" /><path transform="matrix(1 0 0 -1 0 841)" d="M84.744 751.56L510.694 751.56L510.694 751.56L510.694 752.04L510.694 752.04L84.744 752.04z" stroke="none" fill="#000000" fill-rule="evenodd" /><path transform="matrix(1 0 0 -1 0 841)" d="M510.7 751.56L511.18 751.56L511.18 751.56L511.18 752.04L511.18 752.04L510.7 752.04z" stroke="none" fill="#000000" fill-rule="evenodd" /><path transform="matrix(1 0 0 -1 0 841)" d="M510.7 751.56L511.18 751.56L511.18 751.56L511.18 752.04L511.18 752.04L510.7 752.04z" stroke="none" fill="#000000" fill-rule="evenodd" /><path transform="matrix(1 0 0 -1 0 841)" d="M84.264 732.46L84.744 732.46L84.744 732.46L84.744 751.564L84.744 751.564L84.264 751.564z" stroke="none" fill="#000000" fill-rule="evenodd" /><path transform="matrix(1 0 0 -1 0 841)" d="M510.7 732.46L511.18 732.46L511.18 732.46L511.18 751.564L511.18 751.564L510.7 751.564z" stroke="none" fill="#000000" fill-rule="evenodd" /><path transform="matrix(1 0 0 -1 0 841)" d="M84.744 598.66L510.694 598.66L510.694 598.66L510.694 731.98L510.694 731.98L84.744 731.98z" stroke="none" fill="#DAEEF3" fill-rule="evenodd" /><g clip-path="url(#10)"><path transform="matrix(1 0 0 -1 0 841)" d="M89.904 712.9L505.534 712.9L505.534 712.9L505.534 731.98L505.534 731.98L89.904 731.98z" stroke="none" fill="#DAEEF3" fill-rule="evenodd" /><g clip-path="url(#11)"></g><g clip-path="url(#12)"></g><path transform="matrix(1 0 0 -1 0 841)" d="M89.904 693.94L505.534 693.94L505.534 693.94L505.534 712.9L505.534 712.9L89.904 712.9z" stroke="none" fill="#DAEEF3" fill-rule="evenodd" /><g clip-path="url(#13)"></g><g clip-path="url(#14)"></g><path transform="matrix(1 0 0 -1 0 841)" d="M89.904 674.86L505.534 674.86L505.534 674.86L505.534 693.94L505.534 693.94L89.904 693.94z" stroke="none" fill="#DAEEF3" fill-rule="evenodd" /><g clip-path="url(#15)"></g><g clip-path="url(#16)"></g><path transform="matrix(1 0 0 -1 0 841)" d="M89.904 655.78L505.534 655.78L505.534 655.78L505.534 674.86L505.534 674.86L89.904 674.86z" stroke="none" fill="#DAEEF3" fill-rule="evenodd" /><g clip-path="url(#17)"></g><path transform="matrix(1 0 0 -1 0 841)" d="M89.904 636.7L505.534 636.7L505.534 636.7L505.534 655.78L505.534 655.78L89.904 655.78z" stroke="none" fill="#DAEEF3" fill-rule="evenodd" /><g clip-path="url(#18)"></g><g clip-path="url(#19)"></g><path transform="matrix(1 0 0 -1 0 841)" d="M89.904 617.74L505.534 617.74L505.534 617.74L505.534 636.7L505.534 636.7L89.904 636.7z" stroke="none" fill="#DAEEF3" fill-rule="evenodd" /><g clip-path="url(#20)"></g><g clip-path="url(#21)"></g><g clip-path="url(#22)"></g><path transform="matrix(1 0 0 -1 0 841)" d="M89.904 598.66L505.534 598.66L505.534 598.66L505.534 617.74L505.534 617.74L89.904 617.74z" stroke="none" fill="#DAEEF3" fill-rule="evenodd" /><g clip-path="url(#23)"></g><g clip-path="url(#24)"></g></g><path transform="matrix(1 0 0 -1 0 841)" d="M84.264 731.98L84.744 731.98L84.744 731.98L84.744 732.46L84.744 732.46L84.264 732.46z" stroke="none" fill="#000000" fill-rule="evenodd" /><path transform="matrix(1 0 0 -1 0 841)" d="M84.744 731.98L510.694 731.98L510.694 731.98L510.694 732.46L510.694 732.46L84.744 732.46z" stroke="none" fill="#000000" fill-rule="evenodd" /><path transform="matrix(1 0 0 -1 0 841)" d="M510.7 731.98L511.18 731.98L511.18 731.98L511.18 732.46L511.18 732.46L510.7 732.46z" stroke="none" fill="#000000" fill-rule="evenodd" /><path transform="matrix(1 0 0 -1 0 841)" d="M84.264 598.66L84.744 598.66L84.744 598.66L84.744 731.98L84.744 731.98L84.264 731.98z" stroke="none" fill="#000000" fill-rule="evenodd" /><path transform="matrix(1 0 0 -1 0 841)" d="M84.264 598.18L84.744 598.18L84.744 598.18L84.744 598.66L84.744 598.66L84.264 598.66z" stroke="none" fill="#000000" fill-rule="evenodd" /><path transform="matrix(1 0 0 -1 0 841)" d="M84.264 598.18L84.744 598.18L84.744 598.18L84.744 598.66L84.744 598.66L84.264 598.66z" stroke="none" fill="#000000" fill-rule="evenodd" /><path transform="matrix(1 0 0 -1 0 841)" d="M84.744 598.18L510.694 598.18L510.694 598.18L510.694 598.66L510.694 598.66L84.744 598.66z" stroke="none" fill="#000000" fill-rule="evenodd" /><path transform="matrix(1 0 0 -1 0 841)" d="M510.7 598.66L511.18 598.66L511.18 598.66L511.18 731.98L511.18 731.98L510.7 731.98z" stroke="none" fill="#000000" fill-rule="evenodd" /><path transform="matrix(1 0 0 -1 0 841)" d="M510.7 598.18L511.18 598.18L511.18 598.18L511.18 598.66L511.18 598.66L510.7 598.66z" stroke="none" fill="#000000" fill-rule="evenodd" /><path transform="matrix(1 0 0 -1 0 841)" d="M510.7 598.18L511.18 598.18L511.18 598.18L511.18 598.66L511.18 598.66L510.7 598.66z" stroke="none" fill="#000000" fill-rule="evenodd" /><path transform="matrix(1 0 0 -1 0 841)" d="M269.81 542.35L311.69 542.35L311.69 542.35L311.69 543.0699L311.69 543.0699L269.81 543.0699z" stroke="none" fill="#000000" fill-rule="evenodd" /><path transform="matrix(1 0 0 -1 0 841)" d="M84.744 452.95L164.184 452.95L164.184 452.95L164.184 472.03L164.184 472.03L84.744 472.03z" stroke="none" fill="#0070C0" fill-rule="evenodd" /><g clip-path="url(#25)"><path transform="matrix(1 0 0 -1 0 841)" d="M89.904 452.95L159.024 452.95L159.024 452.95L159.024 472.03L159.024 472.03L89.904 472.03z" stroke="none" fill="#0070C0" fill-rule="evenodd" /><g clip-path="url(#26)"></g><g clip-path="url(#27)"></g></g><path transform="matrix(1 0 0 -1 0 841)" d="M164.66 452.95L214.964 452.95L214.964 452.95L214.964 472.03L214.964 472.03L164.66 472.03z" stroke="none" fill="#0070C0" fill-rule="evenodd" /><g clip-path="url(#28)"><path transform="matrix(1 0 0 -1 0 841)" d="M169.82 452.95L209.804 452.95L209.804 452.95L209.804 472.03L209.804 472.03L169.82 472.03z" stroke="none" fill="#0070C0" fill-rule="evenodd" /><g clip-path="url(#29)"></g><g clip-path="url(#30)"></g></g><path transform="matrix(1 0 0 -1 0 841)" d="M215.45 452.95L258.65 452.95L258.65 452.95L258.65 472.03L258.65 472.03L215.45 472.03z" stroke="none" fill="#0070C0" fill-rule="evenodd" /><g clip-path="url(#31)"><path transform="matrix(1 0 0 -1 0 841)" d="M220.61 452.95L253.61 452.95L253.61 452.95L253.61 472.03L253.61 472.03L220.61 472.03z" stroke="none" fill="#0070C0" fill-rule="evenodd" /><g clip-path="url(#32)"></g><g clip-path="url(#33)"></g></g><path transform="matrix(1 0 0 -1 0 841)" d="M259.25 452.95L382.51 452.95L382.51 452.95L382.51 472.03L382.51 472.03L259.25 472.03z" stroke="none" fill="#0070C0" fill-rule="evenodd" /><g clip-path="url(#34)"><path transform="matrix(1 0 0 -1 0 841)" d="M264.41 452.95L377.35 452.95L377.35 452.95L377.35 472.03L377.35 472.03L264.41 472.03z" stroke="none" fill="#0070C0" fill-rule="evenodd" /><g clip-path="url(#35)"></g><g clip-path="url(#36)"></g></g><path transform="matrix(1 0 0 -1 0 841)" d="M382.99 452.95L528.21 452.95L528.21 452.95L528.21 472.03L528.21 472.03L382.99 472.03z" stroke="none" fill="#0070C0" fill-rule="evenodd" /><g clip-path="url(#37)"><path transform="matrix(1 0 0 -1 0 841)" d="M388.15 452.95L523.05 452.95L523.05 452.95L523.05 472.03L523.05 472.03L388.15 472.03z" stroke="none" fill="#0070C0" fill-rule="evenodd" /><g clip-path="url(#38)"></g><g clip-path="url(#39)"></g></g><path transform="matrix(1 0 0 -1 0 841)" d="M84.264 472.03L84.744 472.03L84.744 472.03L84.744 472.51L84.744 472.51L84.264 472.51z" stroke="none" fill="#000000" fill-rule="evenodd" /><path transform="matrix(1 0 0 -1 0 841)" d="M84.264 472.03L84.744 472.03L84.744 472.03L84.744 472.51L84.744 472.51L84.264 472.51z" stroke="none" fill="#000000" fill-rule="evenodd" /><path transform="matrix(1 0 0 -1 0 841)" d="M84.744 472.03L164.184 472.03L164.184 472.03L164.184 472.51L164.184 472.51L84.744 472.51z" stroke="none" fill="#000000" fill-rule="evenodd" /><path transform="matrix(1 0 0 -1 0 841)" d="M164.18 472.03L164.66 472.03L164.66 472.03L164.66 472.51L164.66 472.51L164.18 472.51z" stroke="none" fill="#000000" fill-rule="evenodd" /><path transform="matrix(1 0 0 -1 0 841)" d="M164.66 472.03L215.084 472.03L215.084 472.03L215.084 472.51L215.084 472.51L164.66 472.51z" stroke="none" fill="#000000" fill-rule="evenodd" /><path transform="matrix(1 0 0 -1 0 841)" d="M215.09 472.03L215.57 472.03L215.57 472.03L215.57 472.51L215.57 472.51L215.09 472.51z" stroke="none" fill="#000000" fill-rule="evenodd" /><path transform="matrix(1 0 0 -1 0 841)" d="M215.57 472.03L258.77 472.03L258.77 472.03L258.77 472.51L258.77 472.51L215.57 472.51z" stroke="none" fill="#000000" fill-rule="evenodd" /><path transform="matrix(1 0 0 -1 0 841)" d="M258.77 472.03L259.25 472.03L259.25 472.03L259.25 472.51L259.25 472.51L258.77 472.51z" stroke="none" fill="#000000" fill-rule="evenodd" /><path transform="matrix(1 0 0 -1 0 841)" d="M259.25 472.03L382.51 472.03L382.51 472.03L382.51 472.51L382.51 472.51L259.25 472.51z" stroke="none" fill="#000000" fill-rule="evenodd" /><path transform="matrix(1 0 0 -1 0 841)" d="M382.51 472.03L382.99 472.03L382.99 472.03L382.99 472.51L382.99 472.51L382.51 472.51z" stroke="none" fill="#000000" fill-rule="evenodd" /><path transform="matrix(1 0 0 -1 0 841)" d="M382.99 472.03L528.21 472.03L528.21 472.03L528.21 472.51L528.21 472.51L382.99 472.51z" stroke="none" fill="#000000" fill-rule="evenodd" /><path transform="matrix(1 0 0 -1 0 841)" d="M528.22 472.03L528.7 472.03L528.7 472.03L528.7 472.51L528.7 472.51L528.22 472.51z" stroke="none" fill="#000000" fill-rule="evenodd" /><path transform="matrix(1 0 0 -1 0 841)" d="M528.22 472.03L528.7 472.03L528.7 472.03L528.7 472.51L528.7 472.51L528.22 472.51z" stroke="none" fill="#000000" fill-rule="evenodd" /><path transform="matrix(1 0 0 -1 0 841)" d="M84.264 452.95L84.744 452.95L84.744 452.95L84.744 472.03L84.744 472.03L84.264 472.03z" stroke="none" fill="#000000" fill-rule="evenodd" /><path transform="matrix(1 0 0 -1 0 841)" d="M164.18 452.95L164.66 452.95L164.66 452.95L164.66 472.03L164.66 472.03L164.18 472.03z" stroke="none" fill="#000000" fill-rule="evenodd" /><path transform="matrix(1 0 0 -1 0 841)" d="M215.09 452.95L215.57 452.95L215.57 452.95L215.57 472.03L215.57 472.03L215.09 472.03z" stroke="none" fill="#000000" fill-rule="evenodd" /><path transform="matrix(1 0 0 -1 0 841)" d="M258.77 452.95L259.25 452.95L259.25 452.95L259.25 472.03L259.25 472.03L258.77 472.03z" stroke="none" fill="#000000" fill-rule="evenodd" /><path transform="matrix(1 0 0 -1 0 841)" d="M382.51 452.95L382.99 452.95L382.99 452.95L382.99 472.03L382.99 472.03L382.51 472.03z" stroke="none" fill="#000000" fill-rule="evenodd" /><path transform="matrix(1 0 0 -1 0 841)" d="M528.22 452.95L528.7 452.95L528.7 452.95L528.7 472.03L528.7 472.03L528.22 472.03z" stroke="none" fill="#000000" fill-rule="evenodd" /><path transform="matrix(1 0 0 -1 0 841)" d="M84.744 414.31L164.184 414.31L164.184 414.31L164.184 452.47L164.184 452.47L84.744 452.47z" stroke="none" fill="#DAEEF3" fill-rule="evenodd" /><g clip-path="url(#40)"><path transform="matrix(1 0 0 -1 0 841)" d="M89.904 433.39L159.024 433.39L159.024 433.39L159.024 452.47L159.024 452.47L89.904 452.47z" stroke="none" fill="#DAEEF3" fill-rule="evenodd" /><g clip-path="url(#41)"></g><g clip-path="url(#42)"></g></g><path transform="matrix(1 0 0 -1 0 841)" d="M164.66 414.31L214.964 414.31L214.964 414.31L214.964 452.47L214.964 452.47L164.66 452.47z" stroke="none" fill="#DAEEF3" fill-rule="evenodd" /><g clip-path="url(#43)"><path transform="matrix(1 0 0 -1 0 841)" d="M169.82 433.39L209.804 433.39L209.804 433.39L209.804 452.47L209.804 452.47L169.82 452.47z" stroke="none" fill="#DAEEF3" fill-rule="evenodd" /><g clip-path="url(#44)"></g><g clip-path="url(#45)"></g></g><path transform="matrix(1 0 0 -1 0 841)" d="M215.45 414.31L258.65 414.31L258.65 414.31L258.65 452.47L258.65 452.47L215.45 452.47z" stroke="none" fill="#DAEEF3" fill-rule="evenodd" /><g clip-path="url(#46)"><path transform="matrix(1 0 0 -1 0 841)" d="M220.61 433.39L253.61 433.39L253.61 433.39L253.61 452.47L253.61 452.47L220.61 452.47z" stroke="none" fill="#DAEEF3" fill-rule="evenodd" /><g clip-path="url(#47)"></g><g clip-path="url(#48)"></g></g><path transform="matrix(1 0 0 -1 0 841)" d="M259.25 414.31L382.51 414.31L382.51 414.31L382.51 452.47L382.51 452.47L259.25 452.47z" stroke="none" fill="#DAEEF3" fill-rule="evenodd" /><g clip-path="url(#49)"><path transform="matrix(1 0 0 -1 0 841)" d="M264.41 433.39L377.35 433.39L377.35 433.39L377.35 452.47L377.35 452.47L264.41 452.47z" stroke="none" fill="#DAEEF3" fill-rule="evenodd" /><g clip-path="url(#50)"></g><path transform="matrix(1 0 0 -1 0 841)" d="M264.41 414.31L377.35 414.31L377.35 414.31L377.35 433.39L377.35 433.39L264.41 433.39z" stroke="none" fill="#DAEEF3" fill-rule="evenodd" /><g clip-path="url(#51)"></g><g clip-path="url(#52)"></g></g><path transform="matrix(1 0 0 -1 0 841)" d="M382.99 414.31L528.21 414.31L528.21 414.31L528.21 452.47L528.21 452.47L382.99 452.47z" stroke="none" fill="#DAEEF3" fill-rule="evenodd" /><g clip-path="url(#53)"><path transform="matrix(1 0 0 -1 0 841)" d="M388.15 433.39L523.05 433.39L523.05 433.39L523.05 452.47L523.05 452.47L388.15 452.47z" stroke="none" fill="#DAEEF3" fill-rule="evenodd" /><g clip-path="url(#54)"></g><path transform="matrix(1 0 0 -1 0 841)" d="M388.15 414.31L523.05 414.31L523.05 414.31L523.05 433.39L523.05 433.39L388.15 433.39z" stroke="none" fill="#DAEEF3" fill-rule="evenodd" /><g clip-path="url(#55)"></g><g clip-path="url(#56)"></g></g><path transform="matrix(1 0 0 -1 0 841)" d="M84.264 452.47L84.744 452.47L84.744 452.47L84.744 452.95L84.744 452.95L84.264 452.95z" stroke="none" fill="#000000" fill-rule="evenodd" /><path transform="matrix(1 0 0 -1 0 841)" d="M84.744 452.47L164.184 452.47L164.184 452.47L164.184 452.95L164.184 452.95L84.744 452.95z" stroke="none" fill="#000000" fill-rule="evenodd" /><path transform="matrix(1 0 0 -1 0 841)" d="M164.18 452.47L164.66 452.47L164.66 452.47L164.66 452.95L164.66 452.95L164.18 452.95z" stroke="none" fill="#000000" fill-rule="evenodd" /><path transform="matrix(1 0 0 -1 0 841)" d="M164.66 452.47L215.084 452.47L215.084 452.47L215.084 452.95L215.084 452.95L164.66 452.95z" stroke="none" fill="#000000" fill-rule="evenodd" /><path transform="matrix(1 0 0 -1 0 841)" d="M215.09 452.47L215.57 452.47L215.57 452.47L215.57 452.95L215.57 452.95L215.09 452.95z" stroke="none" fill="#000000" fill-rule="evenodd" /><path transform="matrix(1 0 0 -1 0 841)" d="M215.57 452.47L258.77 452.47L258.77 452.47L258.77 452.95L258.77 452.95L215.57 452.95z" stroke="none" fill="#000000" fill-rule="evenodd" /><path transform="matrix(1 0 0 -1 0 841)" d="M258.77 452.47L259.25 452.47L259.25 452.47L259.25 452.95L259.25 452.95L258.77 452.95z" stroke="none" fill="#000000" fill-rule="evenodd" /><path transform="matrix(1 0 0 -1 0 841)" d="M259.25 452.47L382.51 452.47L382.51 452.47L382.51 452.95L382.51 452.95L259.25 452.95z" stroke="none" fill="#000000" fill-rule="evenodd" /><path transform="matrix(1 0 0 -1 0 841)" d="M382.51 452.47L382.99 452.47L382.99 452.47L382.99 452.95L382.99 452.95L382.51 452.95z" stroke="none" fill="#000000" fill-rule="evenodd" /><path transform="matrix(1 0 0 -1 0 841)" d="M382.99 452.47L528.21 452.47L528.21 452.47L528.21 452.95L528.21 452.95L382.99 452.95z" stroke="none" fill="#000000" fill-rule="evenodd" /><path transform="matrix(1 0 0 -1 0 841)" d="M528.22 452.47L528.7 452.47L528.7 452.47L528.7 452.95L528.7 452.95L528.22 452.95z" stroke="none" fill="#000000" fill-rule="evenodd" /><path transform="matrix(1 0 0 -1 0 841)" d="M84.264 414.31L84.744 414.31L84.744 414.31L84.744 452.47L84.744 452.47L84.264 452.47z" stroke="none" fill="#000000" fill-rule="evenodd" /><path transform="matrix(1 0 0 -1 0 841)" d="M164.18 414.31L164.66 414.31L164.66 414.31L164.66 452.47L164.66 452.47L164.18 452.47z" stroke="none" fill="#000000" fill-rule="evenodd" /><path transform="matrix(1 0 0 -1 0 841)" d="M215.09 414.31L215.57 414.31L215.57 414.31L215.57 452.47L215.57 452.47L215.09 452.47z" stroke="none" fill="#000000" fill-rule="evenodd" /><path transform="matrix(1 0 0 -1 0 841)" d="M258.77 414.31L259.25 414.31L259.25 414.31L259.25 452.47L259.25 452.47L258.77 452.47z" stroke="none" fill="#000000" fill-rule="evenodd" /><path transform="matrix(1 0 0 -1 0 841)" d="M382.51 414.31L382.99 414.31L382.99 414.31L382.99 452.47L382.99 452.47L382.51 452.47z" stroke="none" fill="#000000" fill-rule="evenodd" /><path transform="matrix(1 0 0 -1 0 841)" d="M528.22 414.31L528.7 414.31L528.7 414.31L528.7 452.47L528.7 452.47L528.22 452.47z" stroke="none" fill="#000000" fill-rule="evenodd" /><g clip-path="url(#57)"><g clip-path="url(#58)"></g><g clip-path="url(#59)"></g></g><g clip-path="url(#60)"><g clip-path="url(#61)"></g><g clip-path="url(#62)"></g></g><g clip-path="url(#63)"><g clip-path="url(#64)"></g><g clip-path="url(#65)"></g></g><g clip-path="url(#66)"><g clip-path="url(#67)"></g><g clip-path="url(#68)"></g></g><g clip-path="url(#69)"><g clip-path="url(#70)"></g><g clip-path="url(#71)"></g></g><path transform="matrix(1 0 0 -1 0 841)" d="M84.264 413.83L84.744 413.83L84.744 413.83L84.744 414.31L84.744 414.31L84.264 414.31z" stroke="none" fill="#000000" fill-rule="evenodd" /><path transform="matrix(1 0 0 -1 0 841)" d="M84.744 413.83L164.184 413.83L164.184 413.83L164.184 414.31L164.184 414.31L84.744 414.31z" stroke="none" fill="#000000" fill-rule="evenodd" /><path transform="matrix(1 0 0 -1 0 841)" d="M164.18 413.83L164.66 413.83L164.66 413.83L164.66 414.31L164.66 414.31L164.18 414.31z" stroke="none" fill="#000000" fill-rule="evenodd" /><path transform="matrix(1 0 0 -1 0 841)" d="M164.66 413.83L215.084 413.83L215.084 413.83L215.084 414.31L215.084 414.31L164.66 414.31z" stroke="none" fill="#000000" fill-rule="evenodd" /><path transform="matrix(1 0 0 -1 0 841)" d="M215.09 413.83L215.57 413.83L215.57 413.83L215.57 414.31L215.57 414.31L215.09 414.31z" stroke="none" fill="#000000" fill-rule="evenodd" /><path transform="matrix(1 0 0 -1 0 841)" d="M215.57 413.83L258.77 413.83L258.77 413.83L258.77 414.31L258.77 414.31L215.57 414.31z" stroke="none" fill="#000000" fill-rule="evenodd" /><path transform="matrix(1 0 0 -1 0 841)" d="M258.77 413.83L259.25 413.83L259.25 413.83L259.25 414.31L259.25 414.31L258.77 414.31z" stroke="none" fill="#000000" fill-rule="evenodd" /><path transform="matrix(1 0 0 -1 0 841)" d="M259.25 413.83L382.51 413.83L382.51 413.83L382.51 414.31L382.51 414.31L259.25 414.31z" stroke="none" fill="#000000" fill-rule="evenodd" /><path transform="matrix(1 0 0 -1 0 841)" d="M382.51 413.83L382.99 413.83L382.99 413.83L382.99 414.31L382.99 414.31L382.51 414.31z" stroke="none" fill="#000000" fill-rule="evenodd" /><path transform="matrix(1 0 0 -1 0 841)" d="M382.99 413.83L528.21 413.83L528.21 413.83L528.21 414.31L528.21 414.31L382.99 414.31z" stroke="none" fill="#000000" fill-rule="evenodd" /><path transform="matrix(1 0 0 -1 0 841)" d="M528.22 413.83L528.7 413.83L528.7 413.83L528.7 414.31L528.7 414.31L528.22 414.31z" stroke="none" fill="#000000" fill-rule="evenodd" /><path transform="matrix(1 0 0 -1 0 841)" d="M84.264 394.75L84.744 394.75L84.744 394.75L84.744 413.83L84.744 413.83L84.264 413.83z" stroke="none" fill="#000000" fill-rule="evenodd" /><path transform="matrix(1 0 0 -1 0 841)" d="M164.18 394.75L164.66 394.75L164.66 394.75L164.66 413.83L164.66 413.83L164.18 413.83z" stroke="none" fill="#000000" fill-rule="evenodd" /><path transform="matrix(1 0 0 -1 0 841)" d="M215.09 394.75L215.57 394.75L215.57 394.75L215.57 413.83L215.57 413.83L215.09 413.83z" stroke="none" fill="#000000" fill-rule="evenodd" /><path transform="matrix(1 0 0 -1 0 841)" d="M258.77 394.75L259.25 394.75L259.25 394.75L259.25 413.83L259.25 413.83L258.77 413.83z" stroke="none" fill="#000000" fill-rule="evenodd" /><path transform="matrix(1 0 0 -1 0 841)" d="M382.51 394.75L382.99 394.75L382.99 394.75L382.99 413.83L382.99 413.83L382.51 413.83z" stroke="none" fill="#000000" fill-rule="evenodd" /><path transform="matrix(1 0 0 -1 0 841)" d="M528.22 394.75L528.7 394.75L528.7 394.75L528.7 413.83L528.7 413.83L528.22 413.83z" stroke="none" fill="#000000" fill-rule="evenodd" /><path transform="matrix(1 0 0 -1 0 841)" d="M84.744 375.31L164.184 375.31L164.184 375.31L164.184 394.27L164.184 394.27L84.744 394.27z" stroke="none" fill="#DAEEF3" fill-rule="evenodd" /><g clip-path="url(#72)"><path transform="matrix(1 0 0 -1 0 841)" d="M89.904 375.31L159.024 375.31L159.024 375.31L159.024 394.27L159.024 394.27L89.904 394.27z" stroke="none" fill="#DAEEF3" fill-rule="evenodd" /><g clip-path="url(#73)"></g><g clip-path="url(#74)"></g></g><path transform="matrix(1 0 0 -1 0 841)" d="M164.66 375.31L214.964 375.31L214.964 375.31L214.964 394.27L214.964 394.27L164.66 394.27z" stroke="none" fill="#DAEEF3" fill-rule="evenodd" /><g clip-path="url(#75)"><path transform="matrix(1 0 0 -1 0 841)" d="M169.82 375.31L209.804 375.31L209.804 375.31L209.804 394.27L209.804 394.27L169.82 394.27z" stroke="none" fill="#DAEEF3" fill-rule="evenodd" /><g clip-path="url(#76)"></g><g clip-path="url(#77)"></g></g><path transform="matrix(1 0 0 -1 0 841)" d="M215.45 375.31L258.65 375.31L258.65 375.31L258.65 394.27L258.65 394.27L215.45 394.27z" stroke="none" fill="#DAEEF3" fill-rule="evenodd" /><g clip-path="url(#78)"><path transform="matrix(1 0 0 -1 0 841)" d="M220.61 375.31L253.61 375.31L253.61 375.31L253.61 394.27L253.61 394.27L220.61 394.27z" stroke="none" fill="#DAEEF3" fill-rule="evenodd" /><g clip-path="url(#79)"></g><g clip-path="url(#80)"></g></g><path transform="matrix(1 0 0 -1 0 841)" d="M259.25 375.31L382.51 375.31L382.51 375.31L382.51 394.27L382.51 394.27L259.25 394.27z" stroke="none" fill="#DAEEF3" fill-rule="evenodd" /><g clip-path="url(#81)"><path transform="matrix(1 0 0 -1 0 841)" d="M264.41 375.31L377.35 375.31L377.35 375.31L377.35 394.27L377.35 394.27L264.41 394.27z" stroke="none" fill="#DAEEF3" fill-rule="evenodd" /><g clip-path="url(#82)"></g><g clip-path="url(#83)"></g></g><path transform="matrix(1 0 0 -1 0 841)" d="M382.99 375.31L528.21 375.31L528.21 375.31L528.21 394.27L528.21 394.27L382.99 394.27z" stroke="none" fill="#DAEEF3" fill-rule="evenodd" /><g clip-path="url(#84)"><path transform="matrix(1 0 0 -1 0 841)" d="M388.15 375.31L523.05 375.31L523.05 375.31L523.05 394.27L523.05 394.27L388.15 394.27z" stroke="none" fill="#DAEEF3" fill-rule="evenodd" /><g clip-path="url(#85)"></g><g clip-path="url(#86)"></g></g><path transform="matrix(1 0 0 -1 0 841)" d="M84.264 394.27L84.744 394.27L84.744 394.27L84.744 394.75L84.744 394.75L84.264 394.75z" stroke="none" fill="#000000" fill-rule="evenodd" /><path transform="matrix(1 0 0 -1 0 841)" d="M84.744 394.27L164.184 394.27L164.184 394.27L164.184 394.75L164.184 394.75L84.744 394.75z" stroke="none" fill="#000000" fill-rule="evenodd" /><path transform="matrix(1 0 0 -1 0 841)" d="M164.18 394.27L164.66 394.27L164.66 394.27L164.66 394.75L164.66 394.75L164.18 394.75z" stroke="none" fill="#000000" fill-rule="evenodd" /><path transform="matrix(1 0 0 -1 0 841)" d="M164.66 394.27L215.084 394.27L215.084 394.27L215.084 394.75L215.084 394.75L164.66 394.75z" stroke="none" fill="#000000" fill-rule="evenodd" /><path transform="matrix(1 0 0 -1 0 841)" d="M215.09 394.27L215.57 394.27L215.57 394.27L215.57 394.75L215.57 394.75L215.09 394.75z" stroke="none" fill="#000000" fill-rule="evenodd" /><path transform="matrix(1 0 0 -1 0 841)" d="M215.57 394.27L258.77 394.27L258.77 394.27L258.77 394.75L258.77 394.75L215.57 394.75z" stroke="none" fill="#000000" fill-rule="evenodd" /><path transform="matrix(1 0 0 -1 0 841)" d="M258.77 394.27L259.25 394.27L259.25 394.27L259.25 394.75L259.25 394.75L258.77 394.75z" stroke="none" fill="#000000" fill-rule="evenodd" /><path transform="matrix(1 0 0 -1 0 841)" d="M259.25 394.27L382.51 394.27L382.51 394.27L382.51 394.75L382.51 394.75L259.25 394.75z" stroke="none" fill="#000000" fill-rule="evenodd" /><path transform="matrix(1 0 0 -1 0 841)" d="M382.51 394.27L382.99 394.27L382.99 394.27L382.99 394.75L382.99 394.75L382.51 394.75z" stroke="none" fill="#000000" fill-rule="evenodd" /><path transform="matrix(1 0 0 -1 0 841)" d="M382.99 394.27L528.21 394.27L528.21 394.27L528.21 394.75L528.21 394.75L382.99 394.75z" stroke="none" fill="#000000" fill-rule="evenodd" /><path transform="matrix(1 0 0 -1 0 841)" d="M528.22 394.27L528.7 394.27L528.7 394.27L528.7 394.75L528.7 394.75L528.22 394.75z" stroke="none" fill="#000000" fill-rule="evenodd" /><path transform="matrix(1 0 0 -1 0 841)" d="M84.264 375.31L84.744 375.31L84.744 375.31L84.744 394.27L84.744 394.27L84.264 394.27z" stroke="none" fill="#000000" fill-rule="evenodd" /><path transform="matrix(1 0 0 -1 0 841)" d="M164.18 375.31L164.66 375.31L164.66 375.31L164.66 394.27L164.66 394.27L164.18 394.27z" stroke="none" fill="#000000" fill-rule="evenodd" /><path transform="matrix(1 0 0 -1 0 841)" d="M215.09 375.31L215.57 375.31L215.57 375.31L215.57 394.27L215.57 394.27L215.09 394.27z" stroke="none" fill="#000000" fill-rule="evenodd" /><path transform="matrix(1 0 0 -1 0 841)" d="M258.77 375.31L259.25 375.31L259.25 375.31L259.25 394.27L259.25 394.27L258.77 394.27z" stroke="none" fill="#000000" fill-rule="evenodd" /><path transform="matrix(1 0 0 -1 0 841)" d="M382.51 375.31L382.99 375.31L382.99 375.31L382.99 394.27L382.99 394.27L382.51 394.27z" stroke="none" fill="#000000" fill-rule="evenodd" /><path transform="matrix(1 0 0 -1 0 841)" d="M528.22 375.31L528.7 375.31L528.7 375.31L528.7 394.27L528.7 394.27L528.22 394.27z" stroke="none" fill="#000000" fill-rule="evenodd" /><g clip-path="url(#87)"><g clip-path="url(#88)"></g><g clip-path="url(#89)"></g></g><g clip-path="url(#90)"><g clip-path="url(#91)"></g><g clip-path="url(#92)"></g></g><g clip-path="url(#93)"><g clip-path="url(#94)"></g><g clip-path="url(#95)"></g></g><g clip-path="url(#96)"><g clip-path="url(#97)"></g><g clip-path="url(#98)"></g></g><g clip-path="url(#99)"><g clip-path="url(#100)"></g><g clip-path="url(#101)"></g></g><path transform="matrix(1 0 0 -1 0 841)" d="M84.264 374.83L84.744 374.83L84.744 374.83L84.744 375.31L84.744 375.31L84.264 375.31z" stroke="none" fill="#000000" fill-rule="evenodd" /><path transform="matrix(1 0 0 -1 0 841)" d="M84.744 374.83L164.184 374.83L164.184 374.83L164.184 375.31L164.184 375.31L84.744 375.31z" stroke="none" fill="#000000" fill-rule="evenodd" /><path transform="matrix(1 0 0 -1 0 841)" d="M164.18 374.83L164.66 374.83L164.66 374.83L164.66 375.31L164.66 375.31L164.18 375.31z" stroke="none" fill="#000000" fill-rule="evenodd" /><path transform="matrix(1 0 0 -1 0 841)" d="M164.66 374.83L215.084 374.83L215.084 374.83L215.084 375.31L215.084 375.31L164.66 375.31z" stroke="none" fill="#000000" fill-rule="evenodd" /><path transform="matrix(1 0 0 -1 0 841)" d="M215.09 374.83L215.57 374.83L215.57 374.83L215.57 375.31L215.57 375.31L215.09 375.31z" stroke="none" fill="#000000" fill-rule="evenodd" /><path transform="matrix(1 0 0 -1 0 841)" d="M215.57 374.83L258.77 374.83L258.77 374.83L258.77 375.31L258.77 375.31L215.57 375.31z" stroke="none" fill="#000000" fill-rule="evenodd" /><path transform="matrix(1 0 0 -1 0 841)" d="M258.77 374.83L259.25 374.83L259.25 374.83L259.25 375.31L259.25 375.31L258.77 375.31z" stroke="none" fill="#000000" fill-rule="evenodd" /><path transform="matrix(1 0 0 -1 0 841)" d="M259.25 374.83L382.51 374.83L382.51 374.83L382.51 375.31L382.51 375.31L259.25 375.31z" stroke="none" fill="#000000" fill-rule="evenodd" /><path transform="matrix(1 0 0 -1 0 841)" d="M382.51 374.83L382.99 374.83L382.99 374.83L382.99 375.31L382.99 375.31L382.51 375.31z" stroke="none" fill="#000000" fill-rule="evenodd" /><path transform="matrix(1 0 0 -1 0 841)" d="M382.99 374.83L528.21 374.83L528.21 374.83L528.21 375.31L528.21 375.31L382.99 375.31z" stroke="none" fill="#000000" fill-rule="evenodd" /><path transform="matrix(1 0 0 -1 0 841)" d="M528.22 374.83L528.7 374.83L528.7 374.83L528.7 375.31L528.7 375.31L528.22 375.31z" stroke="none" fill="#000000" fill-rule="evenodd" /><path transform="matrix(1 0 0 -1 0 841)" d="M84.264 355.73L84.744 355.73L84.744 355.73L84.744 374.834L84.744 374.834L84.264 374.834z" stroke="none" fill="#000000" fill-rule="evenodd" /><path transform="matrix(1 0 0 -1 0 841)" d="M164.18 355.73L164.66 355.73L164.66 355.73L164.66 374.834L164.66 374.834L164.18 374.834z" stroke="none" fill="#000000" fill-rule="evenodd" /><path transform="matrix(1 0 0 -1 0 841)" d="M215.09 355.73L215.57 355.73L215.57 355.73L215.57 374.834L215.57 374.834L215.09 374.834z" stroke="none" fill="#000000" fill-rule="evenodd" /><path transform="matrix(1 0 0 -1 0 841)" d="M258.77 355.73L259.25 355.73L259.25 355.73L259.25 374.834L259.25 374.834L258.77 374.834z" stroke="none" fill="#000000" fill-rule="evenodd" /><path transform="matrix(1 0 0 -1 0 841)" d="M382.51 355.73L382.99 355.73L382.99 355.73L382.99 374.834L382.99 374.834L382.51 374.834z" stroke="none" fill="#000000" fill-rule="evenodd" /><path transform="matrix(1 0 0 -1 0 841)" d="M528.22 355.73L528.7 355.73L528.7 355.73L528.7 374.834L528.7 374.834L528.22 374.834z" stroke="none" fill="#000000" fill-rule="evenodd" /><path transform="matrix(1 0 0 -1 0 841)" d="M84.744 278.93L164.184 278.93L164.184 278.93L164.184 355.13L164.184 355.13L84.744 355.13z" stroke="none" fill="#DAEEF3" fill-rule="evenodd" /><g clip-path="url(#102)"><path transform="matrix(1 0 0 -1 0 841)" d="M89.904 336.17L159.024 336.17L159.024 336.17L159.024 355.13L159.024 355.13L89.904 355.13z" stroke="none" fill="#DAEEF3" fill-rule="evenodd" /><g clip-path="url(#103)"></g><g clip-path="url(#104)"></g></g><path transform="matrix(1 0 0 -1 0 841)" d="M164.66 278.93L214.964 278.93L214.964 278.93L214.964 355.13L214.964 355.13L164.66 355.13z" stroke="none" fill="#DAEEF3" fill-rule="evenodd" /><g clip-path="url(#105)"><path transform="matrix(1 0 0 -1 0 841)" d="M169.82 336.17L209.804 336.17L209.804 336.17L209.804 355.13L209.804 355.13L169.82 355.13z" stroke="none" fill="#DAEEF3" fill-rule="evenodd" /><g clip-path="url(#106)"></g><g clip-path="url(#107)"></g></g><path transform="matrix(1 0 0 -1 0 841)" d="M215.45 278.93L258.65 278.93L258.65 278.93L258.65 355.13L258.65 355.13L215.45 355.13z" stroke="none" fill="#DAEEF3" fill-rule="evenodd" /><g clip-path="url(#108)"><path transform="matrix(1 0 0 -1 0 841)" d="M220.61 336.17L253.61 336.17L253.61 336.17L253.61 355.13L253.61 355.13L220.61 355.13z" stroke="none" fill="#DAEEF3" fill-rule="evenodd" /><g clip-path="url(#109)"></g><g clip-path="url(#110)"></g></g><path transform="matrix(1 0 0 -1 0 841)" d="M259.25 278.93L382.51 278.93L382.51 278.93L382.51 355.13L382.51 355.13L259.25 355.13z" stroke="none" fill="#DAEEF3" fill-rule="evenodd" /><g clip-path="url(#111)"><path transform="matrix(1 0 0 -1 0 841)" d="M264.41 336.17L377.35 336.17L377.35 336.17L377.35 355.13L377.35 355.13L264.41 355.13z" stroke="none" fill="#DAEEF3" fill-rule="evenodd" /><g clip-path="url(#112)"></g></g><path transform="matrix(1 0 0 -1 0 841)" d="M382.99 278.93L528.21 278.93L528.21 278.93L528.21 355.13L528.21 355.13L382.99 355.13z" stroke="none" fill="#DAEEF3" fill-rule="evenodd" /><g clip-path="url(#113)"><path transform="matrix(1 0 0 -1 0 841)" d="M388.15 336.17L523.05 336.17L523.05 336.17L523.05 355.13L523.05 355.13L388.15 355.13z" stroke="none" fill="#DAEEF3" fill-rule="evenodd" /><g clip-path="url(#114)"></g><g clip-path="url(#115)"></g><path transform="matrix(1 0 0 -1 0 841)" d="M388.15 317.09L523.05 317.09L523.05 317.09L523.05 336.17L523.05 336.17L388.15 336.17z" stroke="none" fill="#DAEEF3" fill-rule="evenodd" /><g clip-path="url(#116)"></g><path transform="matrix(1 0 0 -1 0 841)" d="M388.15 298.01L523.05 298.01L523.05 298.01L523.05 317.09L523.05 317.09L388.15 317.09z" stroke="none" fill="#DAEEF3" fill-rule="evenodd" /><g clip-path="url(#117)"></g><g clip-path="url(#118)"></g><path transform="matrix(1 0 0 -1 0 841)" d="M388.15 278.93L523.05 278.93L523.05 278.93L523.05 298.01L523.05 298.01L388.15 298.01z" stroke="none" fill="#DAEEF3" fill-rule="evenodd" /><g clip-path="url(#119)"></g><g clip-path="url(#120)"></g></g><path transform="matrix(1 0 0 -1 0 841)" d="M84.264 355.25L84.744 355.25L84.744 355.25L84.744 355.73L84.744 355.73L84.264 355.73z" stroke="none" fill="#000000" fill-rule="evenodd" /><path transform="matrix(1 0 0 -1 0 841)" d="M84.744 355.25L164.184 355.25L164.184 355.25L164.184 355.73L164.184 355.73L84.744 355.73z" stroke="none" fill="#000000" fill-rule="evenodd" /><path transform="matrix(1 0 0 -1 0 841)" d="M164.18 355.25L164.66 355.25L164.66 355.25L164.66 355.73L164.66 355.73L164.18 355.73z" stroke="none" fill="#000000" fill-rule="evenodd" /><path transform="matrix(1 0 0 -1 0 841)" d="M164.66 355.25L215.084 355.25L215.084 355.25L215.084 355.73L215.084 355.73L164.66 355.73z" stroke="none" fill="#000000" fill-rule="evenodd" /><path transform="matrix(1 0 0 -1 0 841)" d="M215.09 355.25L215.57 355.25L215.57 355.25L215.57 355.73L215.57 355.73L215.09 355.73z" stroke="none" fill="#000000" fill-rule="evenodd" /><path transform="matrix(1 0 0 -1 0 841)" d="M215.57 355.25L258.77 355.25L258.77 355.25L258.77 355.73L258.77 355.73L215.57 355.73z" stroke="none" fill="#000000" fill-rule="evenodd" /><path transform="matrix(1 0 0 -1 0 841)" d="M258.77 355.25L259.25 355.25L259.25 355.25L259.25 355.73L259.25 355.73L258.77 355.73z" stroke="none" fill="#000000" fill-rule="evenodd" /><path transform="matrix(1 0 0 -1 0 841)" d="M259.25 355.25L382.51 355.25L382.51 355.25L382.51 355.73L382.51 355.73L259.25 355.73z" stroke="none" fill="#000000" fill-rule="evenodd" /><path transform="matrix(1 0 0 -1 0 841)" d="M382.51 355.25L382.99 355.25L382.99 355.25L382.99 355.73L382.99 355.73L382.51 355.73z" stroke="none" fill="#000000" fill-rule="evenodd" /><path transform="matrix(1 0 0 -1 0 841)" d="M382.99 355.25L528.21 355.25L528.21 355.25L528.21 355.73L528.21 355.73L382.99 355.73z" stroke="none" fill="#000000" fill-rule="evenodd" /><path transform="matrix(1 0 0 -1 0 841)" d="M528.22 355.25L528.7 355.25L528.7 355.25L528.7 355.73L528.7 355.73L528.22 355.73z" stroke="none" fill="#000000" fill-rule="evenodd" /><path transform="matrix(1 0 0 -1 0 841)" d="M84.264 278.93L84.744 278.93L84.744 278.93L84.744 355.25L84.744 355.25L84.264 355.25z" stroke="none" fill="#000000" fill-rule="evenodd" /><path transform="matrix(1 0 0 -1 0 841)" d="M164.18 278.93L164.66 278.93L164.66 278.93L164.66 355.25L164.66 355.25L164.18 355.25z" stroke="none" fill="#000000" fill-rule="evenodd" /><path transform="matrix(1 0 0 -1 0 841)" d="M215.09 278.93L215.57 278.93L215.57 278.93L215.57 355.25L215.57 355.25L215.09 355.25z" stroke="none" fill="#000000" fill-rule="evenodd" /><path transform="matrix(1 0 0 -1 0 841)" d="M258.77 278.93L259.25 278.93L259.25 278.93L259.25 355.25L259.25 355.25L258.77 355.25z" stroke="none" fill="#000000" fill-rule="evenodd" /><path transform="matrix(1 0 0 -1 0 841)" d="M382.51 278.93L382.99 278.93L382.99 278.93L382.99 355.25L382.99 355.25L382.51 355.25z" stroke="none" fill="#000000" fill-rule="evenodd" /><path transform="matrix(1 0 0 -1 0 841)" d="M528.22 278.93L528.7 278.93L528.7 278.93L528.7 355.25L528.7 355.25L528.22 355.25z" stroke="none" fill="#000000" fill-rule="evenodd" /><g clip-path="url(#121)"><g clip-path="url(#122)"></g><g clip-path="url(#123)"></g></g><g clip-path="url(#124)"><g clip-path="url(#125)"></g><g clip-path="url(#126)"></g></g><g clip-path="url(#127)"><g clip-path="url(#128)"></g><g clip-path="url(#129)"></g></g><g clip-path="url(#130)"><g clip-path="url(#131)"></g><g clip-path="url(#132)"></g></g><g clip-path="url(#133)"><g clip-path="url(#134)"></g><g clip-path="url(#135)"></g><g clip-path="url(#136)"></g><path transform="matrix(1 0 0 -1 0 841)" d="M419.71 261.29L472.774 261.29L472.774 261.29L472.774 262.25L472.774 262.25L419.71 262.25z" stroke="none" fill="#000000" fill-rule="evenodd" /></g><path transform="matrix(1 0 0 -1 0 841)" d="M84.264 278.45L84.744 278.45L84.744 278.45L84.744 278.93L84.744 278.93L84.264 278.93z" stroke="none" fill="#000000" fill-rule="evenodd" /><path transform="matrix(1 0 0 -1 0 841)" d="M84.744 278.45L164.184 278.45L164.184 278.45L164.184 278.93L164.184 278.93L84.744 278.93z" stroke="none" fill="#000000" fill-rule="evenodd" /><path transform="matrix(1 0 0 -1 0 841)" d="M164.18 278.45L164.66 278.45L164.66 278.45L164.66 278.93L164.66 278.93L164.18 278.93z" stroke="none" fill="#000000" fill-rule="evenodd" /><path transform="matrix(1 0 0 -1 0 841)" d="M164.66 278.45L215.084 278.45L215.084 278.45L215.084 278.93L215.084 278.93L164.66 278.93z" stroke="none" fill="#000000" fill-rule="evenodd" /><path transform="matrix(1 0 0 -1 0 841)" d="M215.09 278.45L215.57 278.45L215.57 278.45L215.57 278.93L215.57 278.93L215.09 278.93z" stroke="none" fill="#000000" fill-rule="evenodd" /><path transform="matrix(1 0 0 -1 0 841)" d="M215.57 278.45L258.77 278.45L258.77 278.45L258.77 278.93L258.77 278.93L215.57 278.93z" stroke="none" fill="#000000" fill-rule="evenodd" /><path transform="matrix(1 0 0 -1 0 841)" d="M258.77 278.45L259.25 278.45L259.25 278.45L259.25 278.93L259.25 278.93L258.77 278.93z" stroke="none" fill="#000000" fill-rule="evenodd" /><path transform="matrix(1 0 0 -1 0 841)" d="M259.25 278.45L382.51 278.45L382.51 278.45L382.51 278.93L382.51 278.93L259.25 278.93z" stroke="none" fill="#000000" fill-rule="evenodd" /><path transform="matrix(1 0 0 -1 0 841)" d="M382.51 278.45L382.99 278.45L382.99 278.45L382.99 278.93L382.99 278.93L382.51 278.93z" stroke="none" fill="#000000" fill-rule="evenodd" /><path transform="matrix(1 0 0 -1 0 841)" d="M382.99 278.45L528.21 278.45L528.21 278.45L528.21 278.93L528.21 278.93L382.99 278.93z" stroke="none" fill="#000000" fill-rule="evenodd" /><path transform="matrix(1 0 0 -1 0 841)" d="M528.22 278.45L528.7 278.45L528.7 278.45L528.7 278.93L528.7 278.93L528.22 278.93z" stroke="none" fill="#000000" fill-rule="evenodd" /><path transform="matrix(1 0 0 -1 0 841)" d="M84.264 259.49L84.744 259.49L84.744 259.49L84.744 278.45L84.744 278.45L84.264 278.45z" stroke="none" fill="#000000" fill-rule="evenodd" /><path transform="matrix(1 0 0 -1 0 841)" d="M164.18 259.49L164.66 259.49L164.66 259.49L164.66 278.45L164.66 278.45L164.18 278.45z" stroke="none" fill="#000000" fill-rule="evenodd" /><path transform="matrix(1 0 0 -1 0 841)" d="M215.09 259.49L215.57 259.49L215.57 259.49L215.57 278.45L215.57 278.45L215.09 278.45z" stroke="none" fill="#000000" fill-rule="evenodd" /><path transform="matrix(1 0 0 -1 0 841)" d="M258.77 259.49L259.25 259.49L259.25 259.49L259.25 278.45L259.25 278.45L258.77 278.45z" stroke="none" fill="#000000" fill-rule="evenodd" /><path transform="matrix(1 0 0 -1 0 841)" d="M382.51 259.49L382.99 259.49L382.99 259.49L382.99 278.45L382.99 278.45L382.51 278.45z" stroke="none" fill="#000000" fill-rule="evenodd" /><path transform="matrix(1 0 0 -1 0 841)" d="M528.22 259.49L528.7 259.49L528.7 259.49L528.7 278.45L528.7 278.45L528.22 278.45z" stroke="none" fill="#000000" fill-rule="evenodd" /><path transform="matrix(1 0 0 -1 0 841)" d="M84.744 201.77L164.184 201.77L164.184 201.77L164.184 258.89L164.184 258.89L84.744 258.89z" stroke="none" fill="#DAEEF3" fill-rule="evenodd" /><g clip-path="url(#137)"><path transform="matrix(1 0 0 -1 0 841)" d="M89.904 239.93L159.024 239.93L159.024 239.93L159.024 258.89L159.024 258.89L89.904 258.89z" stroke="none" fill="#DAEEF3" fill-rule="evenodd" /><g clip-path="url(#138)"></g><path transform="matrix(1 0 0 -1 0 841)" d="M89.904 220.85L159.024 220.85L159.024 220.85L159.024 239.93L159.024 239.93L89.904 239.93z" stroke="none" fill="#DAEEF3" fill-rule="evenodd" /><g clip-path="url(#139)"></g><g clip-path="url(#140)"></g></g><path transform="matrix(1 0 0 -1 0 841)" d="M164.66 201.77L214.964 201.77L214.964 201.77L214.964 258.89L214.964 258.89L164.66 258.89z" stroke="none" fill="#DAEEF3" fill-rule="evenodd" /><g clip-path="url(#141)"><path transform="matrix(1 0 0 -1 0 841)" d="M169.82 239.93L209.804 239.93L209.804 239.93L209.804 258.89L209.804 258.89L169.82 258.89z" stroke="none" fill="#DAEEF3" fill-rule="evenodd" /><g clip-path="url(#142)"></g><g clip-path="url(#143)"></g></g><path transform="matrix(1 0 0 -1 0 841)" d="M215.45 201.77L258.65 201.77L258.65 201.77L258.65 258.89L258.65 258.89L215.45 258.89z" stroke="none" fill="#DAEEF3" fill-rule="evenodd" /><g clip-path="url(#144)"><path transform="matrix(1 0 0 -1 0 841)" d="M220.61 239.93L253.61 239.93L253.61 239.93L253.61 258.89L253.61 258.89L220.61 258.89z" stroke="none" fill="#DAEEF3" fill-rule="evenodd" /><g clip-path="url(#145)"></g><g clip-path="url(#146)"></g></g><path transform="matrix(1 0 0 -1 0 841)" d="M259.25 201.77L382.51 201.77L382.51 201.77L382.51 258.89L382.51 258.89L259.25 258.89z" stroke="none" fill="#DAEEF3" fill-rule="evenodd" /><g clip-path="url(#147)"><path transform="matrix(1 0 0 -1 0 841)" d="M264.41 239.93L377.35 239.93L377.35 239.93L377.35 258.89L377.35 258.89L264.41 258.89z" stroke="none" fill="#DAEEF3" fill-rule="evenodd" /><g clip-path="url(#148)"></g><path transform="matrix(1 0 0 -1 0 841)" d="M264.41 220.85L377.35 220.85L377.35 220.85L377.35 239.93L377.35 239.93L264.41 239.93z" stroke="none" fill="#DAEEF3" fill-rule="evenodd" /><g clip-path="url(#149)"></g><g clip-path="url(#150)"></g></g><path transform="matrix(1 0 0 -1 0 841)" d="M382.99 201.77L528.21 201.77L528.21 201.77L528.21 258.89L528.21 258.89L382.99 258.89z" stroke="none" fill="#DAEEF3" fill-rule="evenodd" /><g clip-path="url(#151)"><path transform="matrix(1 0 0 -1 0 841)" d="M388.15 239.93L523.05 239.93L523.05 239.93L523.05 258.89L523.05 258.89L388.15 258.89z" stroke="none" fill="#DAEEF3" fill-rule="evenodd" /><g clip-path="url(#152)"></g><g clip-path="url(#153)"></g><g clip-path="url(#154)"></g><path transform="matrix(1 0 0 -1 0 841)" d="M402.19 241.73L444.19 241.73L444.19 241.73L444.19 242.45L444.19 242.45L402.19 242.45z" stroke="none" fill="#FF0000" fill-rule="evenodd" /><path transform="matrix(1 0 0 -1 0 841)" d="M388.15 220.85L523.05 220.85L523.05 220.85L523.05 239.93L523.05 239.93L388.15 239.93z" stroke="none" fill="#DAEEF3" fill-rule="evenodd" /><g clip-path="url(#155)"></g><path transform="matrix(1 0 0 -1 0 841)" d="M388.15 201.77L523.05 201.77L523.05 201.77L523.05 220.85L523.05 220.85L388.15 220.85z" stroke="none" fill="#DAEEF3" fill-rule="evenodd" /><g clip-path="url(#156)"></g><g clip-path="url(#157)"></g></g><path transform="matrix(1 0 0 -1 0 841)" d="M84.264 259.01L84.744 259.01L84.744 259.01L84.744 259.49L84.744 259.49L84.264 259.49z" stroke="none" fill="#000000" fill-rule="evenodd" /><path transform="matrix(1 0 0 -1 0 841)" d="M84.744 259.01L164.184 259.01L164.184 259.01L164.184 259.49L164.184 259.49L84.744 259.49z" stroke="none" fill="#000000" fill-rule="evenodd" /><path transform="matrix(1 0 0 -1 0 841)" d="M164.18 259.01L164.66 259.01L164.66 259.01L164.66 259.49L164.66 259.49L164.18 259.49z" stroke="none" fill="#000000" fill-rule="evenodd" /><path transform="matrix(1 0 0 -1 0 841)" d="M164.66 259.01L215.084 259.01L215.084 259.01L215.084 259.49L215.084 259.49L164.66 259.49z" stroke="none" fill="#000000" fill-rule="evenodd" /><path transform="matrix(1 0 0 -1 0 841)" d="M215.09 259.01L215.57 259.01L215.57 259.01L215.57 259.49L215.57 259.49L215.09 259.49z" stroke="none" fill="#000000" fill-rule="evenodd" /><path transform="matrix(1 0 0 -1 0 841)" d="M215.57 259.01L258.77 259.01L258.77 259.01L258.77 259.49L258.77 259.49L215.57 259.49z" stroke="none" fill="#000000" fill-rule="evenodd" /><path transform="matrix(1 0 0 -1 0 841)" d="M258.77 259.01L259.25 259.01L259.25 259.01L259.25 259.49L259.25 259.49L258.77 259.49z" stroke="none" fill="#000000" fill-rule="evenodd" /><path transform="matrix(1 0 0 -1 0 841)" d="M259.25 259.01L382.51 259.01L382.51 259.01L382.51 259.49L382.51 259.49L259.25 259.49z" stroke="none" fill="#000000" fill-rule="evenodd" /><path transform="matrix(1 0 0 -1 0 841)" d="M382.51 259.01L382.99 259.01L382.99 259.01L382.99 259.49L382.99 259.49L382.51 259.49z" stroke="none" fill="#000000" fill-rule="evenodd" /><path transform="matrix(1 0 0 -1 0 841)" d="M382.99 259.01L528.21 259.01L528.21 259.01L528.21 259.49L528.21 259.49L382.99 259.49z" stroke="none" fill="#000000" fill-rule="evenodd" /><path transform="matrix(1 0 0 -1 0 841)" d="M528.22 259.01L528.7 259.01L528.7 259.01L528.7 259.49L528.7 259.49L528.22 259.49z" stroke="none" fill="#000000" fill-rule="evenodd" /><path transform="matrix(1 0 0 -1 0 841)" d="M84.264 201.77L84.744 201.77L84.744 201.77L84.744 259.01L84.744 259.01L84.264 259.01z" stroke="none" fill="#000000" fill-rule="evenodd" /><path transform="matrix(1 0 0 -1 0 841)" d="M164.18 201.77L164.66 201.77L164.66 201.77L164.66 259.01L164.66 259.01L164.18 259.01z" stroke="none" fill="#000000" fill-rule="evenodd" /><path transform="matrix(1 0 0 -1 0 841)" d="M215.09 201.77L215.57 201.77L215.57 201.77L215.57 259.01L215.57 259.01L215.09 259.01z" stroke="none" fill="#000000" fill-rule="evenodd" /><path transform="matrix(1 0 0 -1 0 841)" d="M258.77 201.77L259.25 201.77L259.25 201.77L259.25 259.01L259.25 259.01L258.77 259.01z" stroke="none" fill="#000000" fill-rule="evenodd" /><path transform="matrix(1 0 0 -1 0 841)" d="M382.51 201.77L382.99 201.77L382.99 201.77L382.99 259.01L382.99 259.01L382.51 259.01z" stroke="none" fill="#000000" fill-rule="evenodd" /><path transform="matrix(1 0 0 -1 0 841)" d="M528.22 201.77L528.7 201.77L528.7 201.77L528.7 259.01L528.7 259.01L528.22 259.01z" stroke="none" fill="#000000" fill-rule="evenodd" /><g clip-path="url(#158)"><g clip-path="url(#159)"></g><g clip-path="url(#160)"></g><g clip-path="url(#161)"></g></g><g clip-path="url(#162)"><g clip-path="url(#163)"></g><g clip-path="url(#164)"></g></g><g clip-path="url(#165)"><g clip-path="url(#166)"></g><g clip-path="url(#167)"></g></g><g clip-path="url(#168)"><g clip-path="url(#169)"></g><g clip-path="url(#170)"></g><g clip-path="url(#171)"></g></g><g clip-path="url(#172)"><g clip-path="url(#173)"></g><g clip-path="url(#174)"></g><g clip-path="url(#175)"></g><g clip-path="url(#176)"></g><g clip-path="url(#177)"></g><path transform="matrix(1 0 0 -1 0 841)" d="M495.22 145.94L523.06 145.94L523.06 145.94L523.06 146.66L523.06 146.66L495.22 146.66z" stroke="none" fill="#FF0000" fill-rule="evenodd" /><g clip-path="url(#178)"></g><g clip-path="url(#179)"></g><path transform="matrix(1 0 0 -1 0 841)" d="M388.15 126.98L402.19 126.98L402.19 126.98L402.19 127.7L402.19 127.7L388.15 127.7z" stroke="none" fill="#FF0000" fill-rule="evenodd" /><g clip-path="url(#180)"></g><g clip-path="url(#181)"></g></g><path transform="matrix(1 0 0 -1 0 841)" d="M84.264 201.29L84.744 201.29L84.744 201.29L84.744 201.77L84.744 201.77L84.264 201.77z" stroke="none" fill="#000000" fill-rule="evenodd" /><path transform="matrix(1 0 0 -1 0 841)" d="M84.744 201.29L164.184 201.29L164.184 201.29L164.184 201.77L164.184 201.77L84.744 201.77z" stroke="none" fill="#000000" fill-rule="evenodd" /><path transform="matrix(1 0 0 -1 0 841)" d="M164.18 201.29L164.66 201.29L164.66 201.29L164.66 201.77L164.66 201.77L164.18 201.77z" stroke="none" fill="#000000" fill-rule="evenodd" /><path transform="matrix(1 0 0 -1 0 841)" d="M164.66 201.29L215.084 201.29L215.084 201.29L215.084 201.77L215.084 201.77L164.66 201.77z" stroke="none" fill="#000000" fill-rule="evenodd" /><path transform="matrix(1 0 0 -1 0 841)" d="M215.09 201.29L215.57 201.29L215.57 201.29L215.57 201.77L215.57 201.77L215.09 201.77z" stroke="none" fill="#000000" fill-rule="evenodd" /><path transform="matrix(1 0 0 -1 0 841)" d="M215.57 201.29L258.77 201.29L258.77 201.29L258.77 201.77L258.77 201.77L215.57 201.77z" stroke="none" fill="#000000" fill-rule="evenodd" /><path transform="matrix(1 0 0 -1 0 841)" d="M258.77 201.29L259.25 201.29L259.25 201.29L259.25 201.77L259.25 201.77L258.77 201.77z" stroke="none" fill="#000000" fill-rule="evenodd" /><path transform="matrix(1 0 0 -1 0 841)" d="M259.25 201.29L382.51 201.29L382.51 201.29L382.51 201.77L382.51 201.77L259.25 201.77z" stroke="none" fill="#000000" fill-rule="evenodd" /><path transform="matrix(1 0 0 -1 0 841)" d="M382.51 201.29L382.99 201.29L382.99 201.29L382.99 201.77L382.99 201.77L382.51 201.77z" stroke="none" fill="#000000" fill-rule="evenodd" /><path transform="matrix(1 0 0 -1 0 841)" d="M382.99 201.29L528.21 201.29L528.21 201.29L528.21 201.77L528.21 201.77L382.99 201.77z" stroke="none" fill="#000000" fill-rule="evenodd" /><path transform="matrix(1 0 0 -1 0 841)" d="M528.22 201.29L528.7 201.29L528.7 201.29L528.7 201.77L528.7 201.77L528.22 201.77z" stroke="none" fill="#000000" fill-rule="evenodd" /><path transform="matrix(1 0 0 -1 0 841)" d="M84.264 105.98L84.744 105.98L84.744 105.98L84.744 201.284L84.744 201.284L84.264 201.284z" stroke="none" fill="#000000" fill-rule="evenodd" /><path transform="matrix(1 0 0 -1 0 841)" d="M84.264 105.5L84.744 105.5L84.744 105.5L84.744 105.98L84.744 105.98L84.264 105.98z" stroke="none" fill="#000000" fill-rule="evenodd" /><path transform="matrix(1 0 0 -1 0 841)" d="M84.264 105.5L84.744 105.5L84.744 105.5L84.744 105.98L84.744 105.98L84.264 105.98z" stroke="none" fill="#000000" fill-rule="evenodd" /><path transform="matrix(1 0 0 -1 0 841)" d="M84.744 105.5L164.184 105.5L164.184 105.5L164.184 105.98L164.184 105.98L84.744 105.98z" stroke="none" fill="#000000" fill-rule="evenodd" /><path transform="matrix(1 0 0 -1 0 841)" d="M164.18 105.98L164.66 105.98L164.66 105.98L164.66 201.284L164.66 201.284L164.18 201.284z" stroke="none" fill="#000000" fill-rule="evenodd" /><path transform="matrix(1 0 0 -1 0 841)" d="M164.18 105.5L164.66 105.5L164.66 105.5L164.66 105.98L164.66 105.98L164.18 105.98z" stroke="none" fill="#000000" fill-rule="evenodd" /><path transform="matrix(1 0 0 -1 0 841)" d="M164.66 105.5L215.084 105.5L215.084 105.5L215.084 105.98L215.084 105.98L164.66 105.98z" stroke="none" fill="#000000" fill-rule="evenodd" /><path transform="matrix(1 0 0 -1 0 841)" d="M215.09 105.98L215.57 105.98L215.57 105.98L215.57 201.284L215.57 201.284L215.09 201.284z" stroke="none" fill="#000000" fill-rule="evenodd" /><path transform="matrix(1 0 0 -1 0 841)" d="M215.09 105.5L215.57 105.5L215.57 105.5L215.57 105.98L215.57 105.98L215.09 105.98z" stroke="none" fill="#000000" fill-rule="evenodd" /><path transform="matrix(1 0 0 -1 0 841)" d="M215.57 105.5L258.77 105.5L258.77 105.5L258.77 105.98L258.77 105.98L215.57 105.98z" stroke="none" fill="#000000" fill-rule="evenodd" /><path transform="matrix(1 0 0 -1 0 841)" d="M258.77 105.98L259.25 105.98L259.25 105.98L259.25 201.284L259.25 201.284L258.77 201.284z" stroke="none" fill="#000000" fill-rule="evenodd" /><path transform="matrix(1 0 0 -1 0 841)" d="M258.77 105.5L259.25 105.5L259.25 105.5L259.25 105.98L259.25 105.98L258.77 105.98z" stroke="none" fill="#000000" fill-rule="evenodd" /><path transform="matrix(1 0 0 -1 0 841)" d="M259.25 105.5L382.51 105.5L382.51 105.5L382.51 105.98L382.51 105.98L259.25 105.98z" stroke="none" fill="#000000" fill-rule="evenodd" /><path transform="matrix(1 0 0 -1 0 841)" d="M382.51 105.98L382.99 105.98L382.99 105.98L382.99 201.284L382.99 201.284L382.51 201.284z" stroke="none" fill="#000000" fill-rule="evenodd" /><path transform="matrix(1 0 0 -1 0 841)" d="M382.51 105.5L382.99 105.5L382.99 105.5L382.99 105.98L382.99 105.98L382.51 105.98z" stroke="none" fill="#000000" fill-rule="evenodd" /><path transform="matrix(1 0 0 -1 0 841)" d="M382.99 105.5L528.21 105.5L528.21 105.5L528.21 105.98L528.21 105.98L382.99 105.98z" stroke="none" fill="#000000" fill-rule="evenodd" /><path transform="matrix(1 0 0 -1 0 841)" d="M528.22 105.98L528.7 105.98L528.7 105.98L528.7 201.284L528.7 201.284L528.22 201.284z" stroke="none" fill="#000000" fill-rule="evenodd" /><path transform="matrix(1 0 0 -1 0 841)" d="M528.22 105.5L528.7 105.5L528.7 105.5L528.7 105.98L528.7 105.98L528.22 105.98z" stroke="none" fill="#000000" fill-rule="evenodd" /><path transform="matrix(1 0 0 -1 0 841)" d="M528.22 105.5L528.7 105.5L528.7 105.5L528.7 105.98L528.7 105.98L528.22 105.98z" stroke="none" fill="#000000" fill-rule="evenodd" /></g></g></g></svg>