<svg xmlns="http://www.w3.org/2000/svg" xmlns:xlink="http://www.w3.org/1999/xlink" id="body_185" preserveAspectRatio="xMinYMin meet" viewBox="0 0 793 1121"><defs><clipPath id="1"><path d="M0 841L0 -0.9199829L0 -0.9199829L595.32 -0.9199829L595.32 -0.9199829L595.32 841L595.32 841L0 841z" /></clipPath><clipPath id="2"><path d="M0.00125 841.0914L595.4112 841.0914L595.4112 841.0914L595.4112 -0.9186401L595.4112 -0.9186401L0.00125 -0.9186401z" /></clipPath><clipPath id="3"><path d="M288.05 781.211L316.01 781.211L316.01 781.211L316.01 762.011L316.01 762.011L288.05 762.011z" /></clipPath><clipPath id="4"><path d="M288.05 781.216L316.01 781.216L316.01 781.216L316.01 762.016L316.01 762.016L288.05 762.016z" /></clipPath><clipPath id="5"><path d="M288.05 781.216L316.01 781.216L316.01 781.216L316.01 762.016L316.01 762.016L288.05 762.016z" /></clipPath><clipPath id="6"><path d="M84.751 152.59L215.091 152.59L215.091 152.59L215.091 133.51L215.091 133.51L84.751 133.51z" /></clipPath><clipPath id="7"><path d="M84.744 152.58L215.084 152.58L215.084 152.58L215.084 133.5L215.084 133.5L84.744 133.5z" /></clipPath><clipPath id="8"><path d="M84.744 152.58L215.084 152.58L215.084 152.58L215.084 133.5L215.084 133.5L84.744 133.5z" /></clipPath><clipPath id="9"><path d="M215.57 152.59L331.61 152.59L331.61 152.59L331.61 133.51L331.61 133.51L215.57 133.51z" /></clipPath><clipPath id="10"><path d="M215.57 152.58L331.61 152.58L331.61 152.58L331.61 133.5L331.61 133.5L215.57 133.5z" /></clipPath><clipPath id="11"><path d="M215.57 152.58L331.61 152.58L331.61 152.58L331.61 133.5L331.61 133.5L215.57 133.5z" /></clipPath><clipPath id="12"><path d="M332.09 152.59L510.7 152.59L510.7 152.59L510.7 133.51L510.7 133.51L332.09 133.51z" /></clipPath><clipPath id="13"><path d="M332.09 152.58L510.7 152.58L510.7 152.58L510.7 133.5L510.7 133.5L332.09 133.5z" /></clipPath><clipPath id="14"><path d="M332.09 152.58L510.7 152.58L510.7 152.58L510.7 133.5L510.7 133.5L332.09 133.5z" /></clipPath><clipPath id="15"><path d="M84.751 740.77L215.091 740.77L215.091 740.77L215.091 153.07L215.091 153.07L84.751 153.07z" /></clipPath><clipPath id="16"><path d="M84.744 740.78L215.084 740.78L215.084 740.78L215.084 153.0699L215.084 153.0699L84.744 153.0699z" /></clipPath><clipPath id="17"><path d="M84.744 740.78L215.084 740.78L215.084 740.78L215.084 153.0699L215.084 153.0699L84.744 153.0699z" /></clipPath><clipPath id="18"><path d="M215.57 740.77L331.61 740.77L331.61 740.77L331.61 153.07L331.61 153.07L215.57 153.07z" /></clipPath><clipPath id="19"><path d="M215.57 740.78L331.61 740.78L331.61 740.78L331.61 153.0699L331.61 153.0699L215.57 153.0699z" /></clipPath><clipPath id="20"><path d="M215.57 740.78L331.61 740.78L331.61 740.78L331.61 153.0699L331.61 153.0699L215.57 153.0699z" /></clipPath><clipPath id="21"><path d="M332.09 740.77L510.7 740.77L510.7 740.77L510.7 153.07L510.7 153.07L332.09 153.07z" /></clipPath><clipPath id="22"><path d="M332.09 740.78L510.7 740.78L510.7 740.78L510.7 153.0699L510.7 153.0699L332.09 153.0699z" /></clipPath><clipPath id="23"><path d="M332.09 740.78L510.7 740.78L510.7 740.78L510.7 153.0699L510.7 153.0699L332.09 153.0699z" /></clipPath><clipPath id="24"><path d="M332.09 740.78L510.7 740.78L510.7 740.78L510.7 153.0699L510.7 153.0699L332.09 153.0699z" /></clipPath><clipPath id="25"><path d="M332.09 740.78L510.7 740.78L510.7 740.78L510.7 153.0699L510.7 153.0699L332.09 153.0699z" /></clipPath><clipPath id="26"><path d="M332.09 740.78L510.7 740.78L510.7 740.78L510.7 153.0699L510.7 153.0699L332.09 153.0699z" /></clipPath><clipPath id="27"><path d="M332.09 740.78L510.7 740.78L510.7 740.78L510.7 153.0699L510.7 153.0699L332.09 153.0699z" /></clipPath><clipPath id="28"><path d="M332.09 740.78L510.7 740.78L510.7 740.78L510.7 153.0699L510.7 153.0699L332.09 153.0699z" /></clipPath><clipPath id="29"><path d="M332.09 740.78L510.7 740.78L510.7 740.78L510.7 153.0699L510.7 153.0699L332.09 153.0699z" /></clipPath><clipPath id="30"><path d="M332.09 740.78L510.7 740.78L510.7 740.78L510.7 153.0699L510.7 153.0699L332.09 153.0699z" /></clipPath><clipPath id="31"><path d="M332.09 740.78L510.7 740.78L510.7 740.78L510.7 153.0699L510.7 153.0699L332.09 153.0699z" /></clipPath><clipPath id="32"><path d="M332.09 740.78L510.7 740.78L510.7 740.78L510.7 153.0699L510.7 153.0699L332.09 153.0699z" /></clipPath><clipPath id="33"><path d="M332.09 740.78L510.7 740.78L510.7 740.78L510.7 153.0699L510.7 153.0699L332.09 153.0699z" /></clipPath><clipPath id="34"><path d="M332.09 740.78L510.7 740.78L510.7 740.78L510.7 153.0699L510.7 153.0699L332.09 153.0699z" /></clipPath><clipPath id="35"><path d="M332.09 740.78L510.7 740.78L510.7 740.78L510.7 153.0699L510.7 153.0699L332.09 153.0699z" /></clipPath><clipPath id="36"><path d="M332.09 740.78L510.7 740.78L510.7 740.78L510.7 153.0699L510.7 153.0699L332.09 153.0699z" /></clipPath><clipPath id="37"><path d="M332.09 740.78L510.7 740.78L510.7 740.78L510.7 153.0699L510.7 153.0699L332.09 153.0699z" /></clipPath><clipPath id="38"><path d="M332.09 740.78L510.7 740.78L510.7 740.78L510.7 153.0699L510.7 153.0699L332.09 153.0699z" /></clipPath><clipPath id="39"><path d="M332.09 740.78L510.7 740.78L510.7 740.78L510.7 153.0699L510.7 153.0699L332.09 153.0699z" /></clipPath><clipPath id="40"><path d="M332.09 740.78L510.7 740.78L510.7 740.78L510.7 153.0699L510.7 153.0699L332.09 153.0699z" /></clipPath><clipPath id="41"><path d="M332.09 740.78L510.7 740.78L510.7 740.78L510.7 153.0699L510.7 153.0699L332.09 153.0699z" /></clipPath><clipPath id="42"><path d="M332.09 740.78L510.7 740.78L510.7 740.78L510.7 153.0699L510.7 153.0699L332.09 153.0699z" /></clipPath><clipPath id="43"><path d="M332.09 740.78L510.7 740.78L510.7 740.78L510.7 153.0699L510.7 153.0699L332.09 153.0699z" /></clipPath><clipPath id="44"><path d="M332.09 740.78L510.7 740.78L510.7 740.78L510.7 153.0699L510.7 153.0699L332.09 153.0699z" /></clipPath><clipPath id="45"><path d="M332.09 740.78L510.7 740.78L510.7 740.78L510.7 153.0699L510.7 153.0699L332.09 153.0699z" /></clipPath><clipPath id="46"><path d="M332.09 740.78L510.7 740.78L510.7 740.78L510.7 153.0699L510.7 153.0699L332.09 153.0699z" /></clipPath><clipPath id="47"><path d="M332.09 740.78L510.7 740.78L510.7 740.78L510.7 153.0699L510.7 153.0699L332.09 153.0699z" /></clipPath><clipPath id="48"><path d="M332.09 740.78L510.7 740.78L510.7 740.78L510.7 153.0699L510.7 153.0699L332.09 153.0699z" /></clipPath><clipPath id="49"><path d="M332.09 740.78L510.7 740.78L510.7 740.78L510.7 153.0699L510.7 153.0699L332.09 153.0699z" /></clipPath><clipPath id="50"><path d="M332.09 740.78L510.7 740.78L510.7 740.78L510.7 153.0699L510.7 153.0699L332.09 153.0699z" /></clipPath><clipPath id="51"><path d="M332.09 740.78L510.7 740.78L510.7 740.78L510.7 153.0699L510.7 153.0699L332.09 153.0699z" /></clipPath><clipPath id="52"><path d="M332.09 740.78L510.7 740.78L510.7 740.78L510.7 153.0699L510.7 153.0699L332.09 153.0699z" /></clipPath><clipPath id="53"><path d="M332.09 740.78L510.7 740.78L510.7 740.78L510.7 153.0699L510.7 153.0699L332.09 153.0699z" /></clipPath><clipPath id="54"><path d="M332.09 740.78L510.7 740.78L510.7 740.78L510.7 153.0699L510.7 153.0699L332.09 153.0699z" /></clipPath><clipPath id="55"><path d="M332.09 740.78L510.7 740.78L510.7 740.78L510.7 153.0699L510.7 153.0699L332.09 153.0699z" /></clipPath><clipPath id="56"><path d="M332.09 740.78L510.7 740.78L510.7 740.78L510.7 153.0699L510.7 153.0699L332.09 153.0699z" /></clipPath><clipPath id="57"><path d="M332.09 740.78L510.7 740.78L510.7 740.78L510.7 153.0699L510.7 153.0699L332.09 153.0699z" /></clipPath><clipPath id="58"><path d="M332.09 740.78L510.7 740.78L510.7 740.78L510.7 153.0699L510.7 153.0699L332.09 153.0699z" /></clipPath><clipPath id="59"><path d="M332.09 740.78L510.7 740.78L510.7 740.78L510.7 153.0699L510.7 153.0699L332.09 153.0699z" /></clipPath><clipPath id="60"><path d="M332.09 740.78L510.7 740.78L510.7 740.78L510.7 153.0699L510.7 153.0699L332.09 153.0699z" /></clipPath><clipPath id="61"><path d="M332.09 740.78L510.7 740.78L510.7 740.78L510.7 153.0699L510.7 153.0699L332.09 153.0699z" /></clipPath><clipPath id="62"><path d="M332.09 740.78L510.7 740.78L510.7 740.78L510.7 153.0699L510.7 153.0699L332.09 153.0699z" /></clipPath><clipPath id="63"><path d="M332.09 740.78L510.7 740.78L510.7 740.78L510.7 153.0699L510.7 153.0699L332.09 153.0699z" /></clipPath><clipPath id="64"><path d="M332.09 740.78L510.7 740.78L510.7 740.78L510.7 153.0699L510.7 153.0699L332.09 153.0699z" /></clipPath><clipPath id="65"><path d="M332.09 740.78L510.7 740.78L510.7 740.78L510.7 153.0699L510.7 153.0699L332.09 153.0699z" /></clipPath><clipPath id="66"><path d="M332.09 740.78L510.7 740.78L510.7 740.78L510.7 153.0699L510.7 153.0699L332.09 153.0699z" /></clipPath><clipPath id="67"><path d="M332.09 740.78L510.7 740.78L510.7 740.78L510.7 153.0699L510.7 153.0699L332.09 153.0699z" /></clipPath><clipPath id="68"><path d="M332.09 740.78L510.7 740.78L510.7 740.78L510.7 153.0699L510.7 153.0699L332.09 153.0699z" /></clipPath><clipPath id="69"><path d="M332.09 740.78L510.7 740.78L510.7 740.78L510.7 153.0699L510.7 153.0699L332.09 153.0699z" /></clipPath><clipPath id="70"><path d="M332.09 740.78L510.7 740.78L510.7 740.78L510.7 153.0699L510.7 153.0699L332.09 153.0699z" /></clipPath><clipPath id="71"><path d="M332.09 740.78L510.7 740.78L510.7 740.78L510.7 153.0699L510.7 153.0699L332.09 153.0699z" /></clipPath><clipPath id="72"><path d="M332.09 740.78L510.7 740.78L510.7 740.78L510.7 153.0699L510.7 153.0699L332.09 153.0699z" /></clipPath><clipPath id="73"><path d="M332.09 740.78L510.7 740.78L510.7 740.78L510.7 153.0699L510.7 153.0699L332.09 153.0699z" /></clipPath><clipPath id="74"><path d="M332.09 740.78L510.7 740.78L510.7 740.78L510.7 153.0699L510.7 153.0699L332.09 153.0699z" /></clipPath><clipPath id="75"><path d="M332.09 740.78L510.7 740.78L510.7 740.78L510.7 153.0699L510.7 153.0699L332.09 153.0699z" /></clipPath><clipPath id="76"><path d="M332.09 740.78L510.7 740.78L510.7 740.78L510.7 153.0699L510.7 153.0699L332.09 153.0699z" /></clipPath><clipPath id="77"><path d="M332.09 740.78L510.7 740.78L510.7 740.78L510.7 153.0699L510.7 153.0699L332.09 153.0699z" /></clipPath><clipPath id="78"><path d="M332.09 740.78L510.7 740.78L510.7 740.78L510.7 153.0699L510.7 153.0699L332.09 153.0699z" /></clipPath><clipPath id="79"><path d="M332.09 740.78L510.7 740.78L510.7 740.78L510.7 153.0699L510.7 153.0699L332.09 153.0699z" /></clipPath><clipPath id="80"><path d="M332.09 740.78L510.7 740.78L510.7 740.78L510.7 153.0699L510.7 153.0699L332.09 153.0699z" /></clipPath><clipPath id="81"><path d="M332.09 740.78L510.7 740.78L510.7 740.78L510.7 153.0699L510.7 153.0699L332.09 153.0699z" /></clipPath><clipPath id="82"><path d="M332.09 740.78L510.7 740.78L510.7 740.78L510.7 153.0699L510.7 153.0699L332.09 153.0699z" /></clipPath><clipPath id="83"><path d="M332.09 740.78L510.7 740.78L510.7 740.78L510.7 153.0699L510.7 153.0699L332.09 153.0699z" /></clipPath><clipPath id="84"><path d="M332.09 740.78L510.7 740.78L510.7 740.78L510.7 153.0699L510.7 153.0699L332.09 153.0699z" /></clipPath><clipPath id="85"><path d="M332.09 740.78L510.7 740.78L510.7 740.78L510.7 153.0699L510.7 153.0699L332.09 153.0699z" /></clipPath><clipPath id="86"><path d="M332.09 740.78L510.7 740.78L510.7 740.78L510.7 153.0699L510.7 153.0699L332.09 153.0699z" /></clipPath><clipPath id="87"><path d="M332.09 740.78L510.7 740.78L510.7 740.78L510.7 153.0699L510.7 153.0699L332.09 153.0699z" /></clipPath><clipPath id="88"><path d="M332.09 740.78L510.7 740.78L510.7 740.78L510.7 153.0699L510.7 153.0699L332.09 153.0699z" /></clipPath><clipPath id="89"><path d="M332.09 740.78L510.7 740.78L510.7 740.78L510.7 153.0699L510.7 153.0699L332.09 153.0699z" /></clipPath><clipPath id="90"><path d="M332.09 740.78L510.7 740.78L510.7 740.78L510.7 153.0699L510.7 153.0699L332.09 153.0699z" /></clipPath><clipPath id="91"><path d="M332.09 740.78L510.7 740.78L510.7 740.78L510.7 153.0699L510.7 153.0699L332.09 153.0699z" /></clipPath><clipPath id="92"><path d="M332.09 740.78L510.7 740.78L510.7 740.78L510.7 153.0699L510.7 153.0699L332.09 153.0699z" /></clipPath><clipPath id="93"><path d="M332.09 740.78L510.7 740.78L510.7 740.78L510.7 153.0699L510.7 153.0699L332.09 153.0699z" /></clipPath><clipPath id="94"><path d="M332.09 740.78L510.7 740.78L510.7 740.78L510.7 153.0699L510.7 153.0699L332.09 153.0699z" /></clipPath><clipPath id="95"><path d="M332.09 740.78L510.7 740.78L510.7 740.78L510.7 153.0699L510.7 153.0699L332.09 153.0699z" /></clipPath><clipPath id="96"><path d="M332.09 740.78L510.7 740.78L510.7 740.78L510.7 153.0699L510.7 153.0699L332.09 153.0699z" /></clipPath><clipPath id="97"><path d="M332.09 740.78L510.7 740.78L510.7 740.78L510.7 153.0699L510.7 153.0699L332.09 153.0699z" /></clipPath><clipPath id="98"><path d="M332.09 740.78L510.7 740.78L510.7 740.78L510.7 153.0699L510.7 153.0699L332.09 153.0699z" /></clipPath><clipPath id="99"><path d="M332.09 740.78L510.7 740.78L510.7 740.78L510.7 153.0699L510.7 153.0699L332.09 153.0699z" /></clipPath><clipPath id="100"><path d="M332.09 740.78L510.7 740.78L510.7 740.78L510.7 153.0699L510.7 153.0699L332.09 153.0699z" /></clipPath><clipPath id="101"><path d="M332.09 740.78L510.7 740.78L510.7 740.78L510.7 153.0699L510.7 153.0699L332.09 153.0699z" /></clipPath><clipPath id="102"><path d="M332.09 740.78L510.7 740.78L510.7 740.78L510.7 153.0699L510.7 153.0699L332.09 153.0699z" /></clipPath><clipPath id="103"><path d="M332.09 740.78L510.7 740.78L510.7 740.78L510.7 153.0699L510.7 153.0699L332.09 153.0699z" /></clipPath><clipPath id="104"><path d="M332.09 740.78L510.7 740.78L510.7 740.78L510.7 153.0699L510.7 153.0699L332.09 153.0699z" /></clipPath><clipPath id="105"><path d="M332.09 740.78L510.7 740.78L510.7 740.78L510.7 153.0699L510.7 153.0699L332.09 153.0699z" /></clipPath><clipPath id="106"><path d="M332.09 740.78L510.7 740.78L510.7 740.78L510.7 153.0699L510.7 153.0699L332.09 153.0699z" /></clipPath><clipPath id="107"><path d="M332.09 740.78L510.7 740.78L510.7 740.78L510.7 153.0699L510.7 153.0699L332.09 153.0699z" /></clipPath><clipPath id="108"><path d="M332.09 740.78L510.7 740.78L510.7 740.78L510.7 153.0699L510.7 153.0699L332.09 153.0699z" /></clipPath><clipPath id="109"><path d="M332.09 740.78L510.7 740.78L510.7 740.78L510.7 153.0699L510.7 153.0699L332.09 153.0699z" /></clipPath><clipPath id="110"><path d="M332.09 740.78L510.7 740.78L510.7 740.78L510.7 153.0699L510.7 153.0699L332.09 153.0699z" /></clipPath><clipPath id="111"><path d="M332.09 740.78L510.7 740.78L510.7 740.78L510.7 153.0699L510.7 153.0699L332.09 153.0699z" /></clipPath><clipPath id="112"><path d="M332.09 740.78L510.7 740.78L510.7 740.78L510.7 153.0699L510.7 153.0699L332.09 153.0699z" /></clipPath><clipPath id="113"><path d="M332.09 740.78L510.7 740.78L510.7 740.78L510.7 153.0699L510.7 153.0699L332.09 153.0699z" /></clipPath><clipPath id="114"><path d="M332.09 740.78L510.7 740.78L510.7 740.78L510.7 153.0699L510.7 153.0699L332.09 153.0699z" /></clipPath><clipPath id="115"><path d="M332.09 740.78L510.7 740.78L510.7 740.78L510.7 153.0699L510.7 153.0699L332.09 153.0699z" /></clipPath><clipPath id="116"><path d="M332.09 740.78L510.7 740.78L510.7 740.78L510.7 153.0699L510.7 153.0699L332.09 153.0699z" /></clipPath><clipPath id="117"><path d="M332.09 740.78L510.7 740.78L510.7 740.78L510.7 153.0699L510.7 153.0699L332.09 153.0699z" /></clipPath><clipPath id="118"><path d="M332.09 740.78L510.7 740.78L510.7 740.78L510.7 153.0699L510.7 153.0699L332.09 153.0699z" /></clipPath><clipPath id="119"><path d="M332.09 740.78L510.7 740.78L510.7 740.78L510.7 153.0699L510.7 153.0699L332.09 153.0699z" /></clipPath><clipPath id="120"><path d="M332.09 740.78L510.7 740.78L510.7 740.78L510.7 153.0699L510.7 153.0699L332.09 153.0699z" /></clipPath></defs><g transform="matrix(1.333333 0 0 1.333333 0 0)"><g><g clip-path="url(#1)"><path transform="matrix(1 0 0 -1 0 841)" d="M457.51 53.304L505.534 53.304L505.534 53.304L505.534 53.90404L505.534 53.90404L457.51 53.90404z" stroke="none" fill="#000000" fill-rule="evenodd" /><g clip-path="url(#2)"><path transform="matrix(1 0 0 -1 0 841)" d="M88.464 77.904L506.974 77.904L506.974 77.904L506.974 80.904L506.974 80.904L88.464 80.904z" stroke="none" fill="#000000" fill-rule="evenodd" /><path transform="matrix(1 0 0 -1 0 841)" d="M88.464 76.464L506.974 76.464L506.974 76.464L506.974 77.18397L506.974 77.18397L88.464 77.18397z" stroke="none" fill="#000000" fill-rule="evenodd" /></g><g clip-path="url(#3)"><g clip-path="url(#4)"></g><g clip-path="url(#5)"></g></g><path transform="matrix(1 0 0 -1 0 841)" d="M84.744 688.42L215.084 688.42L215.084 688.42L215.084 707.5L215.084 707.5L84.744 707.5z" stroke="none" fill="#0070C0" fill-rule="evenodd" /><g clip-path="url(#6)"><path transform="matrix(1 0 0 -1 0 841)" d="M89.904 688.42L209.924 688.42L209.924 688.42L209.924 707.5L209.924 707.5L89.904 707.5z" stroke="none" fill="#0070C0" fill-rule="evenodd" /><g clip-path="url(#7)"></g><g clip-path="url(#8)"></g></g><path transform="matrix(1 0 0 -1 0 841)" d="M215.57 688.42L331.61 688.42L331.61 688.42L331.61 707.5L331.61 707.5L215.57 707.5z" stroke="none" fill="#0070C0" fill-rule="evenodd" /><g clip-path="url(#9)"><path transform="matrix(1 0 0 -1 0 841)" d="M220.73 688.42L326.45 688.42L326.45 688.42L326.45 707.5L326.45 707.5L220.73 707.5z" stroke="none" fill="#0070C0" fill-rule="evenodd" /><g clip-path="url(#10)"></g><g clip-path="url(#11)"></g></g><path transform="matrix(1 0 0 -1 0 841)" d="M332.09 688.42L510.7 688.42L510.7 688.42L510.7 707.5L510.7 707.5L332.09 707.5z" stroke="none" fill="#0070C0" fill-rule="evenodd" /><g clip-path="url(#12)"><path transform="matrix(1 0 0 -1 0 841)" d="M337.27 688.42L505.53 688.42L505.53 688.42L505.53 707.5L505.53 707.5L337.27 707.5z" stroke="none" fill="#0070C0" fill-rule="evenodd" /><g clip-path="url(#13)"></g><g clip-path="url(#14)"></g></g><path transform="matrix(1 0 0 -1 0 841)" d="M84.264 707.5L84.744 707.5L84.744 707.5L84.744 707.98L84.744 707.98L84.264 707.98z" stroke="none" fill="#000000" fill-rule="evenodd" /><path transform="matrix(1 0 0 -1 0 841)" d="M84.264 707.5L84.744 707.5L84.744 707.5L84.744 707.98L84.744 707.98L84.264 707.98z" stroke="none" fill="#000000" fill-rule="evenodd" /><path transform="matrix(1 0 0 -1 0 841)" d="M84.744 707.5L215.084 707.5L215.084 707.5L215.084 707.98L215.084 707.98L84.744 707.98z" stroke="none" fill="#000000" fill-rule="evenodd" /><path transform="matrix(1 0 0 -1 0 841)" d="M215.09 707.5L215.57 707.5L215.57 707.5L215.57 707.98L215.57 707.98L215.09 707.98z" stroke="none" fill="#000000" fill-rule="evenodd" /><path transform="matrix(1 0 0 -1 0 841)" d="M215.57 707.5L331.61 707.5L331.61 707.5L331.61 707.98L331.61 707.98L215.57 707.98z" stroke="none" fill="#000000" fill-rule="evenodd" /><path transform="matrix(1 0 0 -1 0 841)" d="M331.61 707.5L332.09 707.5L332.09 707.5L332.09 707.98L332.09 707.98L331.61 707.98z" stroke="none" fill="#000000" fill-rule="evenodd" /><path transform="matrix(1 0 0 -1 0 841)" d="M332.09 707.5L510.7 707.5L510.7 707.5L510.7 707.98L510.7 707.98L332.09 707.98z" stroke="none" fill="#000000" fill-rule="evenodd" /><path transform="matrix(1 0 0 -1 0 841)" d="M510.7 707.5L511.18 707.5L511.18 707.5L511.18 707.98L511.18 707.98L510.7 707.98z" stroke="none" fill="#000000" fill-rule="evenodd" /><path transform="matrix(1 0 0 -1 0 841)" d="M510.7 707.5L511.18 707.5L511.18 707.5L511.18 707.98L511.18 707.98L510.7 707.98z" stroke="none" fill="#000000" fill-rule="evenodd" /><path transform="matrix(1 0 0 -1 0 841)" d="M84.264 688.42L84.744 688.42L84.744 688.42L84.744 707.5L84.744 707.5L84.264 707.5z" stroke="none" fill="#000000" fill-rule="evenodd" /><path transform="matrix(1 0 0 -1 0 841)" d="M215.09 688.42L215.57 688.42L215.57 688.42L215.57 707.5L215.57 707.5L215.09 707.5z" stroke="none" fill="#000000" fill-rule="evenodd" /><path transform="matrix(1 0 0 -1 0 841)" d="M331.61 688.42L332.09 688.42L332.09 688.42L332.09 707.5L332.09 707.5L331.61 707.5z" stroke="none" fill="#000000" fill-rule="evenodd" /><path transform="matrix(1 0 0 -1 0 841)" d="M510.7 688.42L511.18 688.42L511.18 688.42L511.18 707.5L511.18 707.5L510.7 707.5z" stroke="none" fill="#000000" fill-rule="evenodd" /><path transform="matrix(1 0 0 -1 0 841)" d="M84.744 100.22L215.084 100.22L215.084 100.22L215.084 687.9301L215.084 687.9301L84.744 687.9301z" stroke="none" fill="#DAEEF3" fill-rule="evenodd" /><g clip-path="url(#15)"><path transform="matrix(1 0 0 -1 0 841)" d="M89.904 384.55L209.924 384.55L209.924 384.55L209.924 403.63L209.924 403.63L89.904 403.63z" stroke="none" fill="#DAEEF3" fill-rule="evenodd" /><g clip-path="url(#16)"></g><g clip-path="url(#17)"></g></g><path transform="matrix(1 0 0 -1 0 841)" d="M215.57 100.22L331.61 100.22L331.61 100.22L331.61 687.9301L331.61 687.9301L215.57 687.9301z" stroke="none" fill="#DAEEF3" fill-rule="evenodd" /><g clip-path="url(#18)"><path transform="matrix(1 0 0 -1 0 841)" d="M220.73 384.55L326.45 384.55L326.45 384.55L326.45 403.63L326.45 403.63L220.73 403.63z" stroke="none" fill="#DAEEF3" fill-rule="evenodd" /><g clip-path="url(#19)"></g><g clip-path="url(#20)"></g></g><path transform="matrix(1 0 0 -1 0 841)" d="M332.09 100.22L510.7 100.22L510.7 100.22L510.7 687.9301L510.7 687.9301L332.09 687.9301z" stroke="none" fill="#DAEEF3" fill-rule="evenodd" /><g clip-path="url(#21)"><path transform="matrix(1 0 0 -1 0 841)" d="M337.27 668.86L505.53 668.86L505.53 668.86L505.53 687.94L505.53 687.94L337.27 687.94z" stroke="none" fill="#DAEEF3" fill-rule="evenodd" /><g clip-path="url(#22)"></g><g clip-path="url(#23)"></g><path transform="matrix(1 0 0 -1 0 841)" d="M337.27 649.78L505.53 649.78L505.53 649.78L505.53 668.86L505.53 668.86L337.27 668.86z" stroke="none" fill="#DAEEF3" fill-rule="evenodd" /><g clip-path="url(#24)"></g><g clip-path="url(#25)"></g><g clip-path="url(#26)"></g><path transform="matrix(1 0 0 -1 0 841)" d="M337.27 630.82L505.53 630.82L505.53 630.82L505.53 649.78L505.53 649.78L337.27 649.78z" stroke="none" fill="#DAEEF3" fill-rule="evenodd" /><g clip-path="url(#27)"></g><g clip-path="url(#28)"></g><g clip-path="url(#29)"></g><path transform="matrix(1 0 0 -1 0 841)" d="M337.27 611.74L505.53 611.74L505.53 611.74L505.53 630.82L505.53 630.82L337.27 630.82z" stroke="none" fill="#DAEEF3" fill-rule="evenodd" /><g clip-path="url(#30)"></g><g clip-path="url(#31)"></g><g clip-path="url(#32)"></g><path transform="matrix(1 0 0 -1 0 841)" d="M337.27 592.66L505.53 592.66L505.53 592.66L505.53 611.74L505.53 611.74L337.27 611.74z" stroke="none" fill="#DAEEF3" fill-rule="evenodd" /><g clip-path="url(#33)"></g><g clip-path="url(#34)"></g><g clip-path="url(#35)"></g><path transform="matrix(1 0 0 -1 0 841)" d="M337.27 573.58L505.53 573.58L505.53 573.58L505.53 592.66L505.53 592.66L337.27 592.66z" stroke="none" fill="#DAEEF3" fill-rule="evenodd" /><g clip-path="url(#36)"></g><g clip-path="url(#37)"></g><g clip-path="url(#38)"></g><path transform="matrix(1 0 0 -1 0 841)" d="M337.27 548.47L505.53 548.47L505.53 548.47L505.53 573.574L505.53 573.574L337.27 573.574z" stroke="none" fill="#DAEEF3" fill-rule="evenodd" /><g clip-path="url(#39)"></g><g clip-path="url(#40)"></g><g clip-path="url(#41)"></g><path transform="matrix(1 0 0 -1 0 841)" d="M337.27 528.19L505.53 528.19L505.53 528.19L505.53 548.47L505.53 548.47L337.27 548.47z" stroke="none" fill="#DAEEF3" fill-rule="evenodd" /><g clip-path="url(#42)"></g><g clip-path="url(#43)"></g><g clip-path="url(#44)"></g><path transform="matrix(1 0 0 -1 0 841)" d="M337.27 507.91L505.53 507.91L505.53 507.91L505.53 528.19L505.53 528.19L337.27 528.19z" stroke="none" fill="#DAEEF3" fill-rule="evenodd" /><g clip-path="url(#45)"></g><g clip-path="url(#46)"></g><g clip-path="url(#47)"></g><g clip-path="url(#48)"></g><path transform="matrix(1 0 0 -1 0 841)" d="M337.27 487.63L505.53 487.63L505.53 487.63L505.53 507.91L505.53 507.91L337.27 507.91z" stroke="none" fill="#DAEEF3" fill-rule="evenodd" /><g clip-path="url(#49)"></g><g clip-path="url(#50)"></g><g clip-path="url(#51)"></g><g clip-path="url(#52)"></g><path transform="matrix(1 0 0 -1 0 841)" d="M337.27 467.23L505.53 467.23L505.53 467.23L505.53 487.63L505.53 487.63L337.27 487.63z" stroke="none" fill="#DAEEF3" fill-rule="evenodd" /><g clip-path="url(#53)"></g><g clip-path="url(#54)"></g><g clip-path="url(#55)"></g><path transform="matrix(1 0 0 -1 0 841)" d="M337.27 446.95L505.53 446.95L505.53 446.95L505.53 467.23L505.53 467.23L337.27 467.23z" stroke="none" fill="#DAEEF3" fill-rule="evenodd" /><g clip-path="url(#56)"></g><g clip-path="url(#57)"></g><g clip-path="url(#58)"></g><path transform="matrix(1 0 0 -1 0 841)" d="M337.27 426.67L505.53 426.67L505.53 426.67L505.53 446.95L505.53 446.95L337.27 446.95z" stroke="none" fill="#DAEEF3" fill-rule="evenodd" /><g clip-path="url(#59)"></g><g clip-path="url(#60)"></g><g clip-path="url(#61)"></g><path transform="matrix(1 0 0 -1 0 841)" d="M337.27 406.39L505.53 406.39L505.53 406.39L505.53 426.67L505.53 426.67L337.27 426.67z" stroke="none" fill="#DAEEF3" fill-rule="evenodd" /><g clip-path="url(#62)"></g><g clip-path="url(#63)"></g><g clip-path="url(#64)"></g><path transform="matrix(1 0 0 -1 0 841)" d="M337.27 385.99L505.53 385.99L505.53 385.99L505.53 406.39L505.53 406.39L337.27 406.39z" stroke="none" fill="#DAEEF3" fill-rule="evenodd" /><g clip-path="url(#65)"></g><g clip-path="url(#66)"></g><g clip-path="url(#67)"></g><path transform="matrix(1 0 0 -1 0 841)" d="M337.27 367.01L505.53 367.01L505.53 367.01L505.53 385.994L505.53 385.994L337.27 385.994z" stroke="none" fill="#DAEEF3" fill-rule="evenodd" /><g clip-path="url(#68)"></g><path transform="matrix(1 0 0 -1 0 841)" d="M337.27 347.93L505.53 347.93L505.53 347.93L505.53 367.01L505.53 367.01L337.27 367.01z" stroke="none" fill="#DAEEF3" fill-rule="evenodd" /><g clip-path="url(#69)"></g><g clip-path="url(#70)"></g><path transform="matrix(1 0 0 -1 0 841)" d="M337.27 328.85L505.53 328.85L505.53 328.85L505.53 347.93L505.53 347.93L337.27 347.93z" stroke="none" fill="#DAEEF3" fill-rule="evenodd" /><g clip-path="url(#71)"></g><g clip-path="url(#72)"></g><g clip-path="url(#73)"></g><path transform="matrix(1 0 0 -1 0 841)" d="M337.27 309.77L505.53 309.77L505.53 309.77L505.53 328.85L505.53 328.85L337.27 328.85z" stroke="none" fill="#DAEEF3" fill-rule="evenodd" /><g clip-path="url(#74)"></g><g clip-path="url(#75)"></g><g clip-path="url(#76)"></g><path transform="matrix(1 0 0 -1 0 841)" d="M337.27 290.81L505.53 290.81L505.53 290.81L505.53 309.77L505.53 309.77L337.27 309.77z" stroke="none" fill="#DAEEF3" fill-rule="evenodd" /><g clip-path="url(#77)"></g><g clip-path="url(#78)"></g><g clip-path="url(#79)"></g><path transform="matrix(1 0 0 -1 0 841)" d="M337.27 271.73L505.53 271.73L505.53 271.73L505.53 290.81L505.53 290.81L337.27 290.81z" stroke="none" fill="#DAEEF3" fill-rule="evenodd" /><g clip-path="url(#80)"></g><g clip-path="url(#81)"></g><g clip-path="url(#82)"></g><g clip-path="url(#83)"></g><path transform="matrix(1 0 0 -1 0 841)" d="M337.27 252.65L505.53 252.65L505.53 252.65L505.53 271.73L505.53 271.73L337.27 271.73z" stroke="none" fill="#DAEEF3" fill-rule="evenodd" /><g clip-path="url(#84)"></g><g clip-path="url(#85)"></g><g clip-path="url(#86)"></g><path transform="matrix(1 0 0 -1 0 841)" d="M337.27 233.57L505.53 233.57L505.53 233.57L505.53 252.65L505.53 252.65L337.27 252.65z" stroke="none" fill="#DAEEF3" fill-rule="evenodd" /><g clip-path="url(#87)"></g><g clip-path="url(#88)"></g><g clip-path="url(#89)"></g><path transform="matrix(1 0 0 -1 0 841)" d="M337.27 214.61L505.53 214.61L505.53 214.61L505.53 233.57L505.53 233.57L337.27 233.57z" stroke="none" fill="#DAEEF3" fill-rule="evenodd" /><g clip-path="url(#90)"></g><g clip-path="url(#91)"></g><g clip-path="url(#92)"></g><path transform="matrix(1 0 0 -1 0 841)" d="M337.27 195.53L505.53 195.53L505.53 195.53L505.53 214.61L505.53 214.61L337.27 214.61z" stroke="none" fill="#DAEEF3" fill-rule="evenodd" /><g clip-path="url(#93)"></g><g clip-path="url(#94)"></g><g clip-path="url(#95)"></g><path transform="matrix(1 0 0 -1 0 841)" d="M337.27 176.42L505.53 176.42L505.53 176.42L505.53 195.524L505.53 195.524L337.27 195.524z" stroke="none" fill="#DAEEF3" fill-rule="evenodd" /><g clip-path="url(#96)"></g><g clip-path="url(#97)"></g><g clip-path="url(#98)"></g><g clip-path="url(#99)"></g><g clip-path="url(#100)"></g><path transform="matrix(1 0 0 -1 0 841)" d="M337.27 157.34L505.53 157.34L505.53 157.34L505.53 176.42L505.53 176.42L337.27 176.42z" stroke="none" fill="#DAEEF3" fill-rule="evenodd" /><g clip-path="url(#101)"></g><g clip-path="url(#102)"></g><g clip-path="url(#103)"></g><g clip-path="url(#104)"></g><g clip-path="url(#105)"></g><path transform="matrix(1 0 0 -1 0 841)" d="M337.27 138.38L505.53 138.38L505.53 138.38L505.53 157.34L505.53 157.34L337.27 157.34z" stroke="none" fill="#DAEEF3" fill-rule="evenodd" /><g clip-path="url(#106)"></g><g clip-path="url(#107)"></g><g clip-path="url(#108)"></g><g clip-path="url(#109)"></g><g clip-path="url(#110)"></g><path transform="matrix(1 0 0 -1 0 841)" d="M337.27 119.3L505.53 119.3L505.53 119.3L505.53 138.38L505.53 138.38L337.27 138.38z" stroke="none" fill="#DAEEF3" fill-rule="evenodd" /><g clip-path="url(#111)"></g><g clip-path="url(#112)"></g><g clip-path="url(#113)"></g><g clip-path="url(#114)"></g><g clip-path="url(#115)"></g><path transform="matrix(1 0 0 -1 0 841)" d="M337.27 100.22L505.53 100.22L505.53 100.22L505.53 119.3L505.53 119.3L337.27 119.3z" stroke="none" fill="#DAEEF3" fill-rule="evenodd" /><g clip-path="url(#116)"></g><g clip-path="url(#117)"></g><g clip-path="url(#118)"></g><g clip-path="url(#119)"></g><g clip-path="url(#120)"></g></g><path transform="matrix(1 0 0 -1 0 841)" d="M84.264 687.94L84.744 687.94L84.744 687.94L84.744 688.42L84.744 688.42L84.264 688.42z" stroke="none" fill="#000000" fill-rule="evenodd" /><path transform="matrix(1 0 0 -1 0 841)" d="M84.744 687.94L215.084 687.94L215.084 687.94L215.084 688.42L215.084 688.42L84.744 688.42z" stroke="none" fill="#000000" fill-rule="evenodd" /><path transform="matrix(1 0 0 -1 0 841)" d="M215.09 687.94L215.57 687.94L215.57 687.94L215.57 688.42L215.57 688.42L215.09 688.42z" stroke="none" fill="#000000" fill-rule="evenodd" /><path transform="matrix(1 0 0 -1 0 841)" d="M215.57 687.94L331.61 687.94L331.61 687.94L331.61 688.42L331.61 688.42L215.57 688.42z" stroke="none" fill="#000000" fill-rule="evenodd" /><path transform="matrix(1 0 0 -1 0 841)" d="M331.61 687.94L332.09 687.94L332.09 687.94L332.09 688.42L332.09 688.42L331.61 688.42z" stroke="none" fill="#000000" fill-rule="evenodd" /><path transform="matrix(1 0 0 -1 0 841)" d="M332.09 687.94L510.7 687.94L510.7 687.94L510.7 688.42L510.7 688.42L332.09 688.42z" stroke="none" fill="#000000" fill-rule="evenodd" /><path transform="matrix(1 0 0 -1 0 841)" d="M510.7 687.94L511.18 687.94L511.18 687.94L511.18 688.42L511.18 688.42L510.7 688.42z" stroke="none" fill="#000000" fill-rule="evenodd" /><path transform="matrix(1 0 0 -1 0 841)" d="M84.264 100.22L84.744 100.22L84.744 100.22L84.744 687.9301L84.744 687.9301L84.264 687.9301z" stroke="none" fill="#000000" fill-rule="evenodd" /><path transform="matrix(1 0 0 -1 0 841)" d="M84.264 99.744L84.744 99.744L84.744 99.744L84.744 100.224L84.744 100.224L84.264 100.224z" stroke="none" fill="#000000" fill-rule="evenodd" /><path transform="matrix(1 0 0 -1 0 841)" d="M84.264 99.744L84.744 99.744L84.744 99.744L84.744 100.224L84.744 100.224L84.264 100.224z" stroke="none" fill="#000000" fill-rule="evenodd" /><path transform="matrix(1 0 0 -1 0 841)" d="M84.744 99.744L215.084 99.744L215.084 99.744L215.084 100.224L215.084 100.224L84.744 100.224z" stroke="none" fill="#000000" fill-rule="evenodd" /><path transform="matrix(1 0 0 -1 0 841)" d="M215.09 100.22L215.57 100.22L215.57 100.22L215.57 687.9301L215.57 687.9301L215.09 687.9301z" stroke="none" fill="#000000" fill-rule="evenodd" /><path transform="matrix(1 0 0 -1 0 841)" d="M215.09 99.744L215.57 99.744L215.57 99.744L215.57 100.224L215.57 100.224L215.09 100.224z" stroke="none" fill="#000000" fill-rule="evenodd" /><path transform="matrix(1 0 0 -1 0 841)" d="M215.57 99.744L331.61 99.744L331.61 99.744L331.61 100.224L331.61 100.224L215.57 100.224z" stroke="none" fill="#000000" fill-rule="evenodd" /><path transform="matrix(1 0 0 -1 0 841)" d="M331.61 100.22L332.09 100.22L332.09 100.22L332.09 687.9301L332.09 687.9301L331.61 687.9301z" stroke="none" fill="#000000" fill-rule="evenodd" /><path transform="matrix(1 0 0 -1 0 841)" d="M331.61 99.744L332.09 99.744L332.09 99.744L332.09 100.224L332.09 100.224L331.61 100.224z" stroke="none" fill="#000000" fill-rule="evenodd" /><path transform="matrix(1 0 0 -1 0 841)" d="M332.09 99.744L510.7 99.744L510.7 99.744L510.7 100.224L510.7 100.224L332.09 100.224z" stroke="none" fill="#000000" fill-rule="evenodd" /><path transform="matrix(1 0 0 -1 0 841)" d="M510.7 100.22L511.18 100.22L511.18 100.22L511.18 687.9301L511.18 687.9301L510.7 687.9301z" stroke="none" fill="#000000" fill-rule="evenodd" /><path transform="matrix(1 0 0 -1 0 841)" d="M510.7 99.744L511.18 99.744L511.18 99.744L511.18 100.224L511.18 100.224L510.7 100.224z" stroke="none" fill="#000000" fill-rule="evenodd" /><path transform="matrix(1 0 0 -1 0 841)" d="M510.7 99.744L511.18 99.744L511.18 99.744L511.18 100.224L511.18 100.224L510.7 100.224z" stroke="none" fill="#000000" fill-rule="evenodd" /></g></g></g></svg>