<svg xmlns="http://www.w3.org/2000/svg" xmlns:xlink="http://www.w3.org/1999/xlink" id="body_246" preserveAspectRatio="xMinYMin meet" viewBox="0 0 793 1121"><defs><clipPath id="1"><path d="M0 841L0 -0.9199829L0 -0.9199829L595.32 -0.9199829L595.32 -0.9199829L595.32 841L595.32 841L0 841z" /></clipPath><clipPath id="2"><path d="M0.00125 841.0914L595.4112 841.0914L595.4112 841.0914L595.4112 -0.9186401L595.4112 -0.9186401L0.00125 -0.9186401z" /></clipPath><clipPath id="3"><path d="M288.05 781.211L316.01 781.211L316.01 781.211L316.01 762.011L316.01 762.011L288.05 762.011z" /></clipPath><clipPath id="4"><path d="M288.05 781.216L316.01 781.216L316.01 781.216L316.01 762.016L316.01 762.016L288.05 762.016z" /></clipPath><clipPath id="5"><path d="M288.05 781.216L316.01 781.216L316.01 781.216L316.01 762.016L316.01 762.016L288.05 762.016z" /></clipPath><clipPath id="6"><path d="M84.751 117.07L275.451 117.07L275.451 117.07L275.451 89.44L275.451 89.44L84.751 89.44z" /></clipPath><clipPath id="7"><path d="M84.744 117.06L275.444 117.06L275.444 117.06L275.444 89.43597L275.444 89.43597L84.744 89.43597z" /></clipPath><clipPath id="8"><path d="M84.744 117.06L275.444 117.06L275.444 117.06L275.444 89.43597L275.444 89.43597L84.744 89.43597z" /></clipPath><clipPath id="9"><path d="M275.93 117.07L516.46 117.07L516.46 117.07L516.46 89.44L516.46 89.44L275.93 89.44z" /></clipPath><clipPath id="10"><path d="M275.93 117.06L516.46 117.06L516.46 117.06L516.46 89.43597L516.46 89.43597L275.93 89.43597z" /></clipPath><clipPath id="11"><path d="M275.93 117.06L516.46 117.06L516.46 117.06L516.46 89.43597L516.46 89.43597L275.93 89.43597z" /></clipPath><clipPath id="12"><path d="M84.751 145.27L275.451 145.27L275.451 145.27L275.451 117.67L275.451 117.67L84.751 117.67z" /></clipPath><clipPath id="13"><path d="M84.744 145.26L275.444 145.26L275.444 145.26L275.444 117.66L275.444 117.66L84.744 117.66z" /></clipPath><clipPath id="14"><path d="M84.744 145.26L275.444 145.26L275.444 145.26L275.444 117.66L275.444 117.66L84.744 117.66z" /></clipPath><clipPath id="15"><path d="M275.93 145.27L516.46 145.27L516.46 145.27L516.46 117.67L516.46 117.67L275.93 117.67z" /></clipPath><clipPath id="16"><path d="M275.93 145.26L516.46 145.26L516.46 145.26L516.46 117.66L516.46 117.66L275.93 117.66z" /></clipPath><clipPath id="17"><path d="M275.93 145.26L516.46 145.26L516.46 145.26L516.46 117.66L516.46 117.66L275.93 117.66z" /></clipPath><clipPath id="18"><path d="M84.751 191.59L275.451 191.59L275.451 191.59L275.451 145.75L275.451 145.75L84.751 145.75z" /></clipPath><clipPath id="19"><path d="M84.744 191.58L275.444 191.58L275.444 191.58L275.444 145.74L275.444 145.74L84.744 145.74z" /></clipPath><clipPath id="20"><path d="M84.744 191.58L275.444 191.58L275.444 191.58L275.444 145.74L275.444 145.74L84.744 145.74z" /></clipPath><clipPath id="21"><path d="M275.93 191.59L516.46 191.59L516.46 191.59L516.46 145.75L516.46 145.75L275.93 145.75z" /></clipPath><clipPath id="22"><path d="M275.93 191.58L516.46 191.58L516.46 191.58L516.46 145.74L516.46 145.74L275.93 145.74z" /></clipPath><clipPath id="23"><path d="M275.93 191.58L516.46 191.58L516.46 191.58L516.46 145.74L516.46 145.74L275.93 145.74z" /></clipPath><clipPath id="24"><path d="M275.93 191.58L516.46 191.58L516.46 191.58L516.46 145.74L516.46 145.74L275.93 145.74z" /></clipPath><clipPath id="25"><path d="M275.93 191.58L516.46 191.58L516.46 191.58L516.46 145.74L516.46 145.74L275.93 145.74z" /></clipPath><clipPath id="26"><path d="M275.93 191.58L516.46 191.58L516.46 191.58L516.46 145.74L516.46 145.74L275.93 145.74z" /></clipPath><clipPath id="27"><path d="M275.93 191.58L516.46 191.58L516.46 191.58L516.46 145.74L516.46 145.74L275.93 145.74z" /></clipPath><clipPath id="28"><path d="M275.93 191.58L516.46 191.58L516.46 191.58L516.46 145.74L516.46 145.74L275.93 145.74z" /></clipPath><clipPath id="29"><path d="M275.93 191.58L516.46 191.58L516.46 191.58L516.46 145.74L516.46 145.74L275.93 145.74z" /></clipPath><clipPath id="30"><path d="M275.93 191.58L516.46 191.58L516.46 191.58L516.46 145.74L516.46 145.74L275.93 145.74z" /></clipPath><clipPath id="31"><path d="M275.93 191.58L516.46 191.58L516.46 191.58L516.46 145.74L516.46 145.74L275.93 145.74z" /></clipPath><clipPath id="32"><path d="M275.93 191.58L516.46 191.58L516.46 191.58L516.46 145.74L516.46 145.74L275.93 145.74z" /></clipPath><clipPath id="33"><path d="M84.751 279.31L293.451 279.31L293.451 279.31L293.451 251.71L293.451 251.71L84.751 251.71z" /></clipPath><clipPath id="34"><path d="M84.744 279.3L293.444 279.3L293.444 279.3L293.444 251.7L293.444 251.7L84.744 251.7z" /></clipPath><clipPath id="35"><path d="M84.744 279.3L293.444 279.3L293.444 279.3L293.444 251.7L293.444 251.7L84.744 251.7z" /></clipPath><clipPath id="36"><path d="M293.93 279.31L502.66 279.31L502.66 279.31L502.66 251.71L502.66 251.71L293.93 251.71z" /></clipPath><clipPath id="37"><path d="M293.93 279.3L502.66 279.3L502.66 279.3L502.66 251.7L502.66 251.7L293.93 251.7z" /></clipPath><clipPath id="38"><path d="M293.93 279.3L502.66 279.3L502.66 279.3L502.66 251.7L502.66 251.7L293.93 251.7z" /></clipPath><clipPath id="39"><path d="M84.751 348.57L293.451 348.57L293.451 348.57L293.451 279.915L293.451 279.915L84.751 279.915z" /></clipPath><clipPath id="40"><path d="M84.744 348.57L293.444 348.57L293.444 348.57L293.444 279.906L293.444 279.906L84.744 279.906z" /></clipPath><clipPath id="41"><path d="M84.744 348.57L293.444 348.57L293.444 348.57L293.444 279.906L293.444 279.906L84.744 279.906z" /></clipPath><clipPath id="42"><path d="M84.744 348.57L293.444 348.57L293.444 348.57L293.444 279.906L293.444 279.906L84.744 279.906z" /></clipPath><clipPath id="43"><path d="M293.93 348.57L502.66 348.57L502.66 348.57L502.66 279.915L502.66 279.915L293.93 279.915z" /></clipPath><clipPath id="44"><path d="M293.93 348.57L502.66 348.57L502.66 348.57L502.66 279.906L502.66 279.906L293.93 279.906z" /></clipPath><clipPath id="45"><path d="M293.93 348.57L502.66 348.57L502.66 348.57L502.66 279.906L502.66 279.906L293.93 279.906z" /></clipPath><clipPath id="46"><path d="M293.93 348.57L502.66 348.57L502.66 348.57L502.66 279.906L502.66 279.906L293.93 279.906z" /></clipPath><clipPath id="47"><path d="M293.93 348.57L502.66 348.57L502.66 348.57L502.66 279.906L502.66 279.906L293.93 279.906z" /></clipPath><clipPath id="48"><path d="M293.93 348.57L502.66 348.57L502.66 348.57L502.66 279.906L502.66 279.906L293.93 279.906z" /></clipPath><clipPath id="49"><path d="M293.93 348.57L502.66 348.57L502.66 348.57L502.66 279.906L502.66 279.906L293.93 279.906z" /></clipPath><clipPath id="50"><path d="M293.93 348.57L502.66 348.57L502.66 348.57L502.66 279.906L502.66 279.906L293.93 279.906z" /></clipPath><clipPath id="51"><path d="M293.93 348.57L502.66 348.57L502.66 348.57L502.66 279.906L502.66 279.906L293.93 279.906z" /></clipPath><clipPath id="52"><path d="M293.93 348.57L502.66 348.57L502.66 348.57L502.66 279.906L502.66 279.906L293.93 279.906z" /></clipPath><clipPath id="53"><path d="M293.93 348.57L502.66 348.57L502.66 348.57L502.66 279.906L502.66 279.906L293.93 279.906z" /></clipPath><clipPath id="54"><path d="M293.93 348.57L502.66 348.57L502.66 348.57L502.66 279.906L502.66 279.906L293.93 279.906z" /></clipPath><clipPath id="55"><path d="M293.93 348.57L502.66 348.57L502.66 348.57L502.66 279.906L502.66 279.906L293.93 279.906z" /></clipPath><clipPath id="56"><path d="M84.751 394.89L293.451 394.89L293.451 394.89L293.451 349.05L293.451 349.05L84.751 349.05z" /></clipPath><clipPath id="57"><path d="M84.744 394.89L293.444 394.89L293.444 394.89L293.444 349.05L293.444 349.05L84.744 349.05z" /></clipPath><clipPath id="58"><path d="M84.744 394.89L293.444 394.89L293.444 394.89L293.444 349.05L293.444 349.05L84.744 349.05z" /></clipPath><clipPath id="59"><path d="M84.744 394.89L293.444 394.89L293.444 394.89L293.444 349.05L293.444 349.05L84.744 349.05z" /></clipPath><clipPath id="60"><path d="M293.93 394.89L502.66 394.89L502.66 394.89L502.66 349.05L502.66 349.05L293.93 349.05z" /></clipPath><clipPath id="61"><path d="M293.93 394.89L502.66 394.89L502.66 394.89L502.66 349.05L502.66 349.05L293.93 349.05z" /></clipPath><clipPath id="62"><path d="M293.93 394.89L502.66 394.89L502.66 394.89L502.66 349.05L502.66 349.05L293.93 349.05z" /></clipPath><clipPath id="63"><path d="M293.93 394.89L502.66 394.89L502.66 394.89L502.66 349.05L502.66 349.05L293.93 349.05z" /></clipPath><clipPath id="64"><path d="M293.93 394.89L502.66 394.89L502.66 394.89L502.66 349.05L502.66 349.05L293.93 349.05z" /></clipPath><clipPath id="65"><path d="M293.93 394.89L502.66 394.89L502.66 394.89L502.66 349.05L502.66 349.05L293.93 349.05z" /></clipPath><clipPath id="66"><path d="M293.93 394.89L502.66 394.89L502.66 394.89L502.66 349.05L502.66 349.05L293.93 349.05z" /></clipPath><clipPath id="67"><path d="M84.751 536.76L293.451 536.76L293.451 536.76L293.451 395.37L293.451 395.37L84.751 395.37z" /></clipPath><clipPath id="68"><path d="M84.744 536.75L293.444 536.75L293.444 536.75L293.444 395.37L293.444 395.37L84.744 395.37z" /></clipPath><clipPath id="69"><path d="M84.744 536.75L293.444 536.75L293.444 536.75L293.444 395.37L293.444 395.37L84.744 395.37z" /></clipPath><clipPath id="70"><path d="M84.744 536.75L293.444 536.75L293.444 536.75L293.444 395.37L293.444 395.37L84.744 395.37z" /></clipPath><clipPath id="71"><path d="M293.93 536.76L502.66 536.76L502.66 536.76L502.66 395.37L502.66 395.37L293.93 395.37z" /></clipPath><clipPath id="72"><path d="M293.93 536.75L502.66 536.75L502.66 536.75L502.66 395.37L502.66 395.37L293.93 395.37z" /></clipPath><clipPath id="73"><path d="M293.93 536.75L502.66 536.75L502.66 536.75L502.66 395.37L502.66 395.37L293.93 395.37z" /></clipPath><clipPath id="74"><path d="M293.93 536.75L502.66 536.75L502.66 536.75L502.66 395.37L502.66 395.37L293.93 395.37z" /></clipPath><clipPath id="75"><path d="M293.93 536.75L502.66 536.75L502.66 536.75L502.66 395.37L502.66 395.37L293.93 395.37z" /></clipPath><clipPath id="76"><path d="M293.93 536.75L502.66 536.75L502.66 536.75L502.66 395.37L502.66 395.37L293.93 395.37z" /></clipPath><clipPath id="77"><path d="M293.93 536.75L502.66 536.75L502.66 536.75L502.66 395.37L502.66 395.37L293.93 395.37z" /></clipPath><clipPath id="78"><path d="M293.93 536.75L502.66 536.75L502.66 536.75L502.66 395.37L502.66 395.37L293.93 395.37z" /></clipPath><clipPath id="79"><path d="M293.93 536.75L502.66 536.75L502.66 536.75L502.66 395.37L502.66 395.37L293.93 395.37z" /></clipPath><clipPath id="80"><path d="M293.93 536.75L502.66 536.75L502.66 536.75L502.66 395.37L502.66 395.37L293.93 395.37z" /></clipPath><clipPath id="81"><path d="M293.93 536.75L502.66 536.75L502.66 536.75L502.66 395.37L502.66 395.37L293.93 395.37z" /></clipPath><clipPath id="82"><path d="M293.93 536.75L502.66 536.75L502.66 536.75L502.66 395.37L502.66 395.37L293.93 395.37z" /></clipPath><clipPath id="83"><path d="M293.93 536.75L502.66 536.75L502.66 536.75L502.66 395.37L502.66 395.37L293.93 395.37z" /></clipPath><clipPath id="84"><path d="M293.93 536.75L502.66 536.75L502.66 536.75L502.66 395.37L502.66 395.37L293.93 395.37z" /></clipPath><clipPath id="85"><path d="M293.93 536.75L502.66 536.75L502.66 536.75L502.66 395.37L502.66 395.37L293.93 395.37z" /></clipPath><clipPath id="86"><path d="M293.93 536.75L502.66 536.75L502.66 536.75L502.66 395.37L502.66 395.37L293.93 395.37z" /></clipPath><clipPath id="87"><path d="M293.93 536.75L502.66 536.75L502.66 536.75L502.66 395.37L502.66 395.37L293.93 395.37z" /></clipPath><clipPath id="88"><path d="M293.93 536.75L502.66 536.75L502.66 536.75L502.66 395.37L502.66 395.37L293.93 395.37z" /></clipPath><clipPath id="89"><path d="M293.93 536.75L502.66 536.75L502.66 536.75L502.66 395.37L502.66 395.37L293.93 395.37z" /></clipPath><clipPath id="90"><path d="M293.93 536.75L502.66 536.75L502.66 536.75L502.66 395.37L502.66 395.37L293.93 395.37z" /></clipPath><clipPath id="91"><path d="M293.93 536.75L502.66 536.75L502.66 536.75L502.66 395.37L502.66 395.37L293.93 395.37z" /></clipPath><clipPath id="92"><path d="M293.93 536.75L502.66 536.75L502.66 536.75L502.66 395.37L502.66 395.37L293.93 395.37z" /></clipPath><clipPath id="93"><path d="M293.93 536.75L502.66 536.75L502.66 536.75L502.66 395.37L502.66 395.37L293.93 395.37z" /></clipPath><clipPath id="94"><path d="M293.93 536.75L502.66 536.75L502.66 536.75L502.66 395.37L502.66 395.37L293.93 395.37z" /></clipPath><clipPath id="95"><path d="M293.93 536.75L502.66 536.75L502.66 536.75L502.66 395.37L502.66 395.37L293.93 395.37z" /></clipPath><clipPath id="96"><path d="M293.93 536.75L502.66 536.75L502.66 536.75L502.66 395.37L502.66 395.37L293.93 395.37z" /></clipPath><clipPath id="97"><path d="M293.93 536.75L502.66 536.75L502.66 536.75L502.66 395.37L502.66 395.37L293.93 395.37z" /></clipPath><clipPath id="98"><path d="M293.93 536.75L502.66 536.75L502.66 536.75L502.66 395.37L502.66 395.37L293.93 395.37z" /></clipPath><clipPath id="99"><path d="M293.93 536.75L502.66 536.75L502.66 536.75L502.66 395.37L502.66 395.37L293.93 395.37z" /></clipPath><clipPath id="100"><path d="M293.93 536.75L502.66 536.75L502.66 536.75L502.66 395.37L502.66 395.37L293.93 395.37z" /></clipPath><clipPath id="101"><path d="M293.93 536.75L502.66 536.75L502.66 536.75L502.66 395.37L502.66 395.37L293.93 395.37z" /></clipPath><clipPath id="102"><path d="M293.93 536.75L502.66 536.75L502.66 536.75L502.66 395.37L502.66 395.37L293.93 395.37z" /></clipPath><clipPath id="103"><path d="M293.93 536.75L502.66 536.75L502.66 536.75L502.66 395.37L502.66 395.37L293.93 395.37z" /></clipPath><clipPath id="104"><path d="M293.93 536.75L502.66 536.75L502.66 536.75L502.66 395.37L502.66 395.37L293.93 395.37z" /></clipPath><clipPath id="105"><path d="M293.93 536.75L502.66 536.75L502.66 536.75L502.66 395.37L502.66 395.37L293.93 395.37z" /></clipPath><clipPath id="106"><path d="M293.93 536.75L502.66 536.75L502.66 536.75L502.66 395.37L502.66 395.37L293.93 395.37z" /></clipPath><clipPath id="107"><path d="M293.93 536.75L502.66 536.75L502.66 536.75L502.66 395.37L502.66 395.37L293.93 395.37z" /></clipPath><clipPath id="108"><path d="M84.751 637.56L293.451 637.56L293.451 637.56L293.451 537.24L293.451 537.24L84.751 537.24z" /></clipPath><clipPath id="109"><path d="M84.744 637.55L293.444 637.55L293.444 637.55L293.444 537.23L293.444 537.23L84.744 537.23z" /></clipPath><clipPath id="110"><path d="M84.744 637.55L293.444 637.55L293.444 637.55L293.444 537.23L293.444 537.23L84.744 537.23z" /></clipPath><clipPath id="111"><path d="M84.744 637.55L293.444 637.55L293.444 637.55L293.444 537.23L293.444 537.23L84.744 537.23z" /></clipPath><clipPath id="112"><path d="M293.93 637.56L502.66 637.56L502.66 637.56L502.66 537.24L502.66 537.24L293.93 537.24z" /></clipPath><clipPath id="113"><path d="M293.93 637.55L502.66 637.55L502.66 637.55L502.66 537.23L502.66 537.23L293.93 537.23z" /></clipPath><clipPath id="114"><path d="M293.93 637.55L502.66 637.55L502.66 637.55L502.66 537.23L502.66 537.23L293.93 537.23z" /></clipPath><clipPath id="115"><path d="M293.93 637.55L502.66 637.55L502.66 637.55L502.66 537.23L502.66 537.23L293.93 537.23z" /></clipPath><clipPath id="116"><path d="M293.93 637.55L502.66 637.55L502.66 637.55L502.66 537.23L502.66 537.23L293.93 537.23z" /></clipPath><clipPath id="117"><path d="M293.93 637.55L502.66 637.55L502.66 637.55L502.66 537.23L502.66 537.23L293.93 537.23z" /></clipPath><clipPath id="118"><path d="M293.93 637.55L502.66 637.55L502.66 637.55L502.66 537.23L502.66 537.23L293.93 537.23z" /></clipPath><clipPath id="119"><path d="M84.751 743.171L293.451 743.171L293.451 743.171L293.451 638.031L293.451 638.031L84.751 638.031z" /></clipPath><clipPath id="120"><path d="M84.744 743.176L293.444 743.176L293.444 743.176L293.444 638.036L293.444 638.036L84.744 638.036z" /></clipPath><clipPath id="121"><path d="M84.744 743.176L293.444 743.176L293.444 743.176L293.444 638.036L293.444 638.036L84.744 638.036z" /></clipPath><clipPath id="122"><path d="M84.744 743.176L293.444 743.176L293.444 743.176L293.444 638.036L293.444 638.036L84.744 638.036z" /></clipPath><clipPath id="123"><path d="M293.93 743.171L502.66 743.171L502.66 743.171L502.66 638.031L502.66 638.031L293.93 638.031z" /></clipPath><clipPath id="124"><path d="M293.93 743.176L502.66 743.176L502.66 743.176L502.66 638.036L502.66 638.036L293.93 638.036z" /></clipPath><clipPath id="125"><path d="M293.93 743.176L502.66 743.176L502.66 743.176L502.66 638.036L502.66 638.036L293.93 638.036z" /></clipPath><clipPath id="126"><path d="M293.93 743.176L502.66 743.176L502.66 743.176L502.66 638.036L502.66 638.036L293.93 638.036z" /></clipPath><clipPath id="127"><path d="M293.93 743.176L502.66 743.176L502.66 743.176L502.66 638.036L502.66 638.036L293.93 638.036z" /></clipPath><clipPath id="128"><path d="M293.93 743.176L502.66 743.176L502.66 743.176L502.66 638.036L502.66 638.036L293.93 638.036z" /></clipPath><clipPath id="129"><path d="M293.93 743.176L502.66 743.176L502.66 743.176L502.66 638.036L502.66 638.036L293.93 638.036z" /></clipPath><clipPath id="130"><path d="M293.93 743.176L502.66 743.176L502.66 743.176L502.66 638.036L502.66 638.036L293.93 638.036z" /></clipPath><clipPath id="131"><path d="M293.93 743.176L502.66 743.176L502.66 743.176L502.66 638.036L502.66 638.036L293.93 638.036z" /></clipPath><clipPath id="132"><path d="M293.93 743.176L502.66 743.176L502.66 743.176L502.66 638.036L502.66 638.036L293.93 638.036z" /></clipPath><clipPath id="133"><path d="M293.93 743.176L502.66 743.176L502.66 743.176L502.66 638.036L502.66 638.036L293.93 638.036z" /></clipPath><clipPath id="134"><path d="M293.93 743.176L502.66 743.176L502.66 743.176L502.66 638.036L502.66 638.036L293.93 638.036z" /></clipPath></defs><g transform="matrix(1.333333 0 0 1.333333 0 0)"><g><g clip-path="url(#1)"><path transform="matrix(1 0 0 -1 0 841)" d="M457.51 53.304L505.534 53.304L505.534 53.304L505.534 53.90404L505.534 53.90404L457.51 53.90404z" stroke="none" fill="#000000" fill-rule="evenodd" /><g clip-path="url(#2)"><path transform="matrix(1 0 0 -1 0 841)" d="M88.464 77.904L506.974 77.904L506.974 77.904L506.974 80.904L506.974 80.904L88.464 80.904z" stroke="none" fill="#000000" fill-rule="evenodd" /><path transform="matrix(1 0 0 -1 0 841)" d="M88.464 76.464L506.974 76.464L506.974 76.464L506.974 77.18397L506.974 77.18397L88.464 77.18397z" stroke="none" fill="#000000" fill-rule="evenodd" /></g><g clip-path="url(#3)"><g clip-path="url(#4)"></g><g clip-path="url(#5)"></g></g><path transform="matrix(1 0 0 -1 0 841)" d="M84.744 723.94L275.444 723.94L275.444 723.94L275.444 751.564L275.444 751.564L84.744 751.564z" stroke="none" fill="#D9D9D9" fill-rule="evenodd" /><g clip-path="url(#6)"><path transform="matrix(1 0 0 -1 0 841)" d="M89.904 723.94L270.284 723.94L270.284 723.94L270.284 751.564L270.284 751.564L89.904 751.564z" stroke="none" fill="#D9D9D9" fill-rule="evenodd" /><g clip-path="url(#7)"></g><g clip-path="url(#8)"></g></g><path transform="matrix(1 0 0 -1 0 841)" d="M275.93 723.94L516.46 723.94L516.46 723.94L516.46 751.564L516.46 751.564L275.93 751.564z" stroke="none" fill="#D9D9D9" fill-rule="evenodd" /><g clip-path="url(#9)"><path transform="matrix(1 0 0 -1 0 841)" d="M281.09 723.94L511.3 723.94L511.3 723.94L511.3 751.564L511.3 751.564L281.09 751.564z" stroke="none" fill="#D9D9D9" fill-rule="evenodd" /><g clip-path="url(#10)"></g><g clip-path="url(#11)"></g></g><path transform="matrix(1 0 0 -1 0 841)" d="M84.264 751.56L84.744 751.56L84.744 751.56L84.744 752.04L84.744 752.04L84.264 752.04z" stroke="none" fill="#000000" fill-rule="evenodd" /><path transform="matrix(1 0 0 -1 0 841)" d="M84.264 751.56L84.744 751.56L84.744 751.56L84.744 752.04L84.744 752.04L84.264 752.04z" stroke="none" fill="#000000" fill-rule="evenodd" /><path transform="matrix(1 0 0 -1 0 841)" d="M84.744 751.56L275.444 751.56L275.444 751.56L275.444 752.04L275.444 752.04L84.744 752.04z" stroke="none" fill="#000000" fill-rule="evenodd" /><path transform="matrix(1 0 0 -1 0 841)" d="M275.45 751.56L275.93 751.56L275.93 751.56L275.93 752.04L275.93 752.04L275.45 752.04z" stroke="none" fill="#000000" fill-rule="evenodd" /><path transform="matrix(1 0 0 -1 0 841)" d="M275.93 751.56L516.46 751.56L516.46 751.56L516.46 752.04L516.46 752.04L275.93 752.04z" stroke="none" fill="#000000" fill-rule="evenodd" /><path transform="matrix(1 0 0 -1 0 841)" d="M516.46 751.56L516.94 751.56L516.94 751.56L516.94 752.04L516.94 752.04L516.46 752.04z" stroke="none" fill="#000000" fill-rule="evenodd" /><path transform="matrix(1 0 0 -1 0 841)" d="M516.46 751.56L516.94 751.56L516.94 751.56L516.94 752.04L516.94 752.04L516.46 752.04z" stroke="none" fill="#000000" fill-rule="evenodd" /><path transform="matrix(1 0 0 -1 0 841)" d="M84.264 723.94L84.744 723.94L84.744 723.94L84.744 751.564L84.744 751.564L84.264 751.564z" stroke="none" fill="#000000" fill-rule="evenodd" /><path transform="matrix(1 0 0 -1 0 841)" d="M275.45 723.94L275.93 723.94L275.93 723.94L275.93 751.564L275.93 751.564L275.45 751.564z" stroke="none" fill="#000000" fill-rule="evenodd" /><path transform="matrix(1 0 0 -1 0 841)" d="M516.46 723.94L516.94 723.94L516.94 723.94L516.94 751.564L516.94 751.564L516.46 751.564z" stroke="none" fill="#000000" fill-rule="evenodd" /><g clip-path="url(#12)"><g clip-path="url(#13)"></g><g clip-path="url(#14)"></g></g><g clip-path="url(#15)"><g clip-path="url(#16)"></g><g clip-path="url(#17)"></g></g><path transform="matrix(1 0 0 -1 0 841)" d="M84.264 723.46L84.744 723.46L84.744 723.46L84.744 723.94L84.744 723.94L84.264 723.94z" stroke="none" fill="#000000" fill-rule="evenodd" /><path transform="matrix(1 0 0 -1 0 841)" d="M84.744 723.46L275.444 723.46L275.444 723.46L275.444 723.94L275.444 723.94L84.744 723.94z" stroke="none" fill="#000000" fill-rule="evenodd" /><path transform="matrix(1 0 0 -1 0 841)" d="M275.45 723.46L275.93 723.46L275.93 723.46L275.93 723.94L275.93 723.94L275.45 723.94z" stroke="none" fill="#000000" fill-rule="evenodd" /><path transform="matrix(1 0 0 -1 0 841)" d="M275.93 723.46L516.46 723.46L516.46 723.46L516.46 723.94L516.46 723.94L275.93 723.94z" stroke="none" fill="#000000" fill-rule="evenodd" /><path transform="matrix(1 0 0 -1 0 841)" d="M516.46 723.46L516.94 723.46L516.94 723.46L516.94 723.94L516.94 723.94L516.46 723.94z" stroke="none" fill="#000000" fill-rule="evenodd" /><path transform="matrix(1 0 0 -1 0 841)" d="M84.264 695.74L84.744 695.74L84.744 695.74L84.744 723.46L84.744 723.46L84.264 723.46z" stroke="none" fill="#000000" fill-rule="evenodd" /><path transform="matrix(1 0 0 -1 0 841)" d="M275.45 695.74L275.93 695.74L275.93 695.74L275.93 723.46L275.93 723.46L275.45 723.46z" stroke="none" fill="#000000" fill-rule="evenodd" /><path transform="matrix(1 0 0 -1 0 841)" d="M516.46 695.74L516.94 695.74L516.94 695.74L516.94 723.46L516.94 723.46L516.46 723.46z" stroke="none" fill="#000000" fill-rule="evenodd" /><g clip-path="url(#18)"><g clip-path="url(#19)"></g><g clip-path="url(#20)"></g></g><g clip-path="url(#21)"><g clip-path="url(#22)"></g><g clip-path="url(#23)"></g><g clip-path="url(#24)"></g><g clip-path="url(#25)"></g><g clip-path="url(#26)"></g><g clip-path="url(#27)"></g><g clip-path="url(#28)"></g><g clip-path="url(#29)"></g><g clip-path="url(#30)"></g><g clip-path="url(#31)"></g><g clip-path="url(#32)"></g></g><path transform="matrix(1 0 0 -1 0 841)" d="M84.264 695.26L84.744 695.26L84.744 695.26L84.744 695.74L84.744 695.74L84.264 695.74z" stroke="none" fill="#000000" fill-rule="evenodd" /><path transform="matrix(1 0 0 -1 0 841)" d="M84.744 695.26L275.444 695.26L275.444 695.26L275.444 695.74L275.444 695.74L84.744 695.74z" stroke="none" fill="#000000" fill-rule="evenodd" /><path transform="matrix(1 0 0 -1 0 841)" d="M275.45 695.26L275.93 695.26L275.93 695.26L275.93 695.74L275.93 695.74L275.45 695.74z" stroke="none" fill="#000000" fill-rule="evenodd" /><path transform="matrix(1 0 0 -1 0 841)" d="M275.93 695.26L516.46 695.26L516.46 695.26L516.46 695.74L516.46 695.74L275.93 695.74z" stroke="none" fill="#000000" fill-rule="evenodd" /><path transform="matrix(1 0 0 -1 0 841)" d="M516.46 695.26L516.94 695.26L516.94 695.26L516.94 695.74L516.94 695.74L516.46 695.74z" stroke="none" fill="#000000" fill-rule="evenodd" /><path transform="matrix(1 0 0 -1 0 841)" d="M84.264 649.42L84.744 649.42L84.744 649.42L84.744 695.26L84.744 695.26L84.264 695.26z" stroke="none" fill="#000000" fill-rule="evenodd" /><path transform="matrix(1 0 0 -1 0 841)" d="M84.264 648.94L84.744 648.94L84.744 648.94L84.744 649.42L84.744 649.42L84.264 649.42z" stroke="none" fill="#000000" fill-rule="evenodd" /><path transform="matrix(1 0 0 -1 0 841)" d="M84.264 648.94L84.744 648.94L84.744 648.94L84.744 649.42L84.744 649.42L84.264 649.42z" stroke="none" fill="#000000" fill-rule="evenodd" /><path transform="matrix(1 0 0 -1 0 841)" d="M84.744 648.94L275.444 648.94L275.444 648.94L275.444 649.42L275.444 649.42L84.744 649.42z" stroke="none" fill="#000000" fill-rule="evenodd" /><path transform="matrix(1 0 0 -1 0 841)" d="M275.45 649.42L275.93 649.42L275.93 649.42L275.93 695.26L275.93 695.26L275.45 695.26z" stroke="none" fill="#000000" fill-rule="evenodd" /><path transform="matrix(1 0 0 -1 0 841)" d="M275.45 648.94L275.93 648.94L275.93 648.94L275.93 649.42L275.93 649.42L275.45 649.42z" stroke="none" fill="#000000" fill-rule="evenodd" /><path transform="matrix(1 0 0 -1 0 841)" d="M275.93 648.94L516.46 648.94L516.46 648.94L516.46 649.42L516.46 649.42L275.93 649.42z" stroke="none" fill="#000000" fill-rule="evenodd" /><path transform="matrix(1 0 0 -1 0 841)" d="M516.46 649.42L516.94 649.42L516.94 649.42L516.94 695.26L516.94 695.26L516.46 695.26z" stroke="none" fill="#000000" fill-rule="evenodd" /><path transform="matrix(1 0 0 -1 0 841)" d="M516.46 648.94L516.94 648.94L516.94 648.94L516.94 649.42L516.94 649.42L516.46 649.42z" stroke="none" fill="#000000" fill-rule="evenodd" /><path transform="matrix(1 0 0 -1 0 841)" d="M516.46 648.94L516.94 648.94L516.94 648.94L516.94 649.42L516.94 649.42L516.46 649.42z" stroke="none" fill="#000000" fill-rule="evenodd" /><path transform="matrix(1 0 0 -1 0 841)" d="M84.744 561.7L293.444 561.7L293.444 561.7L293.444 589.3L293.444 589.3L84.744 589.3z" stroke="none" fill="#D9D9D9" fill-rule="evenodd" /><g clip-path="url(#33)"><path transform="matrix(1 0 0 -1 0 841)" d="M89.904 561.7L288.284 561.7L288.284 561.7L288.284 589.3L288.284 589.3L89.904 589.3z" stroke="none" fill="#D9D9D9" fill-rule="evenodd" /><g clip-path="url(#34)"></g><g clip-path="url(#35)"></g></g><path transform="matrix(1 0 0 -1 0 841)" d="M293.93 561.7L502.66 561.7L502.66 561.7L502.66 589.3L502.66 589.3L293.93 589.3z" stroke="none" fill="#D9D9D9" fill-rule="evenodd" /><g clip-path="url(#36)"><path transform="matrix(1 0 0 -1 0 841)" d="M299.09 561.7L497.5 561.7L497.5 561.7L497.5 589.3L497.5 589.3L299.09 589.3z" stroke="none" fill="#D9D9D9" fill-rule="evenodd" /><g clip-path="url(#37)"></g><g clip-path="url(#38)"></g></g><path transform="matrix(1 0 0 -1 0 841)" d="M84.264 589.3L84.744 589.3L84.744 589.3L84.744 589.78L84.744 589.78L84.264 589.78z" stroke="none" fill="#000000" fill-rule="evenodd" /><path transform="matrix(1 0 0 -1 0 841)" d="M84.264 589.3L84.744 589.3L84.744 589.3L84.744 589.78L84.744 589.78L84.264 589.78z" stroke="none" fill="#000000" fill-rule="evenodd" /><path transform="matrix(1 0 0 -1 0 841)" d="M84.744 589.3L293.444 589.3L293.444 589.3L293.444 589.78L293.444 589.78L84.744 589.78z" stroke="none" fill="#000000" fill-rule="evenodd" /><path transform="matrix(1 0 0 -1 0 841)" d="M293.45 589.3L293.93 589.3L293.93 589.3L293.93 589.78L293.93 589.78L293.45 589.78z" stroke="none" fill="#000000" fill-rule="evenodd" /><path transform="matrix(1 0 0 -1 0 841)" d="M293.93 589.3L502.78 589.3L502.78 589.3L502.78 589.78L502.78 589.78L293.93 589.78z" stroke="none" fill="#000000" fill-rule="evenodd" /><path transform="matrix(1 0 0 -1 0 841)" d="M502.78 589.3L503.26 589.3L503.26 589.3L503.26 589.78L503.26 589.78L502.78 589.78z" stroke="none" fill="#000000" fill-rule="evenodd" /><path transform="matrix(1 0 0 -1 0 841)" d="M502.78 589.3L503.26 589.3L503.26 589.3L503.26 589.78L503.26 589.78L502.78 589.78z" stroke="none" fill="#000000" fill-rule="evenodd" /><path transform="matrix(1 0 0 -1 0 841)" d="M84.264 561.7L84.744 561.7L84.744 561.7L84.744 589.3L84.744 589.3L84.264 589.3z" stroke="none" fill="#000000" fill-rule="evenodd" /><path transform="matrix(1 0 0 -1 0 841)" d="M293.45 561.7L293.93 561.7L293.93 561.7L293.93 589.3L293.93 589.3L293.45 589.3z" stroke="none" fill="#000000" fill-rule="evenodd" /><path transform="matrix(1 0 0 -1 0 841)" d="M502.78 561.7L503.26 561.7L503.26 561.7L503.26 589.3L503.26 589.3L502.78 589.3z" stroke="none" fill="#000000" fill-rule="evenodd" /><g clip-path="url(#39)"><g clip-path="url(#40)"></g><g clip-path="url(#41)"></g><g clip-path="url(#42)"></g></g><g clip-path="url(#43)"><g clip-path="url(#44)"></g><g clip-path="url(#45)"></g><path transform="matrix(1 0 0 -1 0 841)" d="M305.09 515.35L497.5 515.35L497.5 515.35L497.5 533.71L497.5 533.71L305.09 533.71z" stroke="none" fill="#FFFFFF" fill-rule="evenodd" /><g clip-path="url(#46)"></g><g clip-path="url(#47)"></g><g clip-path="url(#48)"></g><g clip-path="url(#49)"></g><g clip-path="url(#50)"></g><g clip-path="url(#51)"></g><path transform="matrix(1 0 0 -1 0 841)" d="M305.09 497.35L361.154 497.35L361.154 497.35L361.154 515.71L361.154 515.71L305.09 515.71z" stroke="none" fill="#FFFFFF" fill-rule="evenodd" /><g clip-path="url(#52)"></g><g clip-path="url(#53)"></g><g clip-path="url(#54)"></g><g clip-path="url(#55)"></g></g><path transform="matrix(1 0 0 -1 0 841)" d="M84.264 561.22L84.744 561.22L84.744 561.22L84.744 561.7L84.744 561.7L84.264 561.7z" stroke="none" fill="#000000" fill-rule="evenodd" /><path transform="matrix(1 0 0 -1 0 841)" d="M84.744 561.22L293.444 561.22L293.444 561.22L293.444 561.7L293.444 561.7L84.744 561.7z" stroke="none" fill="#000000" fill-rule="evenodd" /><path transform="matrix(1 0 0 -1 0 841)" d="M293.45 561.22L293.93 561.22L293.93 561.22L293.93 561.7L293.93 561.7L293.45 561.7z" stroke="none" fill="#000000" fill-rule="evenodd" /><path transform="matrix(1 0 0 -1 0 841)" d="M293.93 561.22L502.78 561.22L502.78 561.22L502.78 561.7L502.78 561.7L293.93 561.7z" stroke="none" fill="#000000" fill-rule="evenodd" /><path transform="matrix(1 0 0 -1 0 841)" d="M502.78 561.22L503.26 561.22L503.26 561.22L503.26 561.7L503.26 561.7L502.78 561.7z" stroke="none" fill="#000000" fill-rule="evenodd" /><path transform="matrix(1 0 0 -1 0 841)" d="M84.264 492.43L84.744 492.43L84.744 492.43L84.744 561.214L84.744 561.214L84.264 561.214z" stroke="none" fill="#000000" fill-rule="evenodd" /><path transform="matrix(1 0 0 -1 0 841)" d="M293.45 492.43L293.93 492.43L293.93 492.43L293.93 561.214L293.93 561.214L293.45 561.214z" stroke="none" fill="#000000" fill-rule="evenodd" /><path transform="matrix(1 0 0 -1 0 841)" d="M502.78 492.43L503.26 492.43L503.26 492.43L503.26 561.214L503.26 561.214L502.78 561.214z" stroke="none" fill="#000000" fill-rule="evenodd" /><g clip-path="url(#56)"><g clip-path="url(#57)"></g><g clip-path="url(#58)"></g><g clip-path="url(#59)"></g></g><g clip-path="url(#60)"><g clip-path="url(#61)"></g><g clip-path="url(#62)"></g><g clip-path="url(#63)"></g><g clip-path="url(#64)"></g><g clip-path="url(#65)"></g><g clip-path="url(#66)"></g></g><path transform="matrix(1 0 0 -1 0 841)" d="M84.264 491.95L84.744 491.95L84.744 491.95L84.744 492.43L84.744 492.43L84.264 492.43z" stroke="none" fill="#000000" fill-rule="evenodd" /><path transform="matrix(1 0 0 -1 0 841)" d="M84.744 491.95L293.444 491.95L293.444 491.95L293.444 492.43L293.444 492.43L84.744 492.43z" stroke="none" fill="#000000" fill-rule="evenodd" /><path transform="matrix(1 0 0 -1 0 841)" d="M293.45 491.95L293.93 491.95L293.93 491.95L293.93 492.43L293.93 492.43L293.45 492.43z" stroke="none" fill="#000000" fill-rule="evenodd" /><path transform="matrix(1 0 0 -1 0 841)" d="M293.93 491.95L502.78 491.95L502.78 491.95L502.78 492.43L502.78 492.43L293.93 492.43z" stroke="none" fill="#000000" fill-rule="evenodd" /><path transform="matrix(1 0 0 -1 0 841)" d="M502.78 491.95L503.26 491.95L503.26 491.95L503.26 492.43L503.26 492.43L502.78 492.43z" stroke="none" fill="#000000" fill-rule="evenodd" /><path transform="matrix(1 0 0 -1 0 841)" d="M84.264 446.11L84.744 446.11L84.744 446.11L84.744 491.95L84.744 491.95L84.264 491.95z" stroke="none" fill="#000000" fill-rule="evenodd" /><path transform="matrix(1 0 0 -1 0 841)" d="M293.45 446.11L293.93 446.11L293.93 446.11L293.93 491.95L293.93 491.95L293.45 491.95z" stroke="none" fill="#000000" fill-rule="evenodd" /><path transform="matrix(1 0 0 -1 0 841)" d="M502.78 446.11L503.26 446.11L503.26 446.11L503.26 491.95L503.26 491.95L502.78 491.95z" stroke="none" fill="#000000" fill-rule="evenodd" /><g clip-path="url(#67)"><g clip-path="url(#68)"></g><g clip-path="url(#69)"></g><g clip-path="url(#70)"></g></g><g clip-path="url(#71)"><g clip-path="url(#72)"></g><g clip-path="url(#73)"></g><g clip-path="url(#74)"></g><g clip-path="url(#75)"></g><g clip-path="url(#76)"></g><g clip-path="url(#77)"></g><g clip-path="url(#78)"></g><g clip-path="url(#79)"></g><g clip-path="url(#80)"></g><g clip-path="url(#81)"></g><g clip-path="url(#82)"></g><g clip-path="url(#83)"></g><g clip-path="url(#84)"></g><g clip-path="url(#85)"></g><g clip-path="url(#86)"></g><g clip-path="url(#87)"></g><g clip-path="url(#88)"></g><g clip-path="url(#89)"></g><g clip-path="url(#90)"></g><g clip-path="url(#91)"></g><g clip-path="url(#92)"></g><g clip-path="url(#93)"></g><g clip-path="url(#94)"></g><g clip-path="url(#95)"></g><g clip-path="url(#96)"></g><g clip-path="url(#97)"></g><g clip-path="url(#98)"></g><g clip-path="url(#99)"></g><g clip-path="url(#100)"></g><g clip-path="url(#101)"></g><g clip-path="url(#102)"></g><g clip-path="url(#103)"></g><g clip-path="url(#104)"></g><g clip-path="url(#105)"></g><g clip-path="url(#106)"></g><g clip-path="url(#107)"></g></g><path transform="matrix(1 0 0 -1 0 841)" d="M84.264 445.63L84.744 445.63L84.744 445.63L84.744 446.11L84.744 446.11L84.264 446.11z" stroke="none" fill="#000000" fill-rule="evenodd" /><path transform="matrix(1 0 0 -1 0 841)" d="M84.744 445.63L293.444 445.63L293.444 445.63L293.444 446.11L293.444 446.11L84.744 446.11z" stroke="none" fill="#000000" fill-rule="evenodd" /><path transform="matrix(1 0 0 -1 0 841)" d="M293.45 445.63L293.93 445.63L293.93 445.63L293.93 446.11L293.93 446.11L293.45 446.11z" stroke="none" fill="#000000" fill-rule="evenodd" /><path transform="matrix(1 0 0 -1 0 841)" d="M293.93 445.63L502.78 445.63L502.78 445.63L502.78 446.11L502.78 446.11L293.93 446.11z" stroke="none" fill="#000000" fill-rule="evenodd" /><path transform="matrix(1 0 0 -1 0 841)" d="M502.78 445.63L503.26 445.63L503.26 445.63L503.26 446.11L503.26 446.11L502.78 446.11z" stroke="none" fill="#000000" fill-rule="evenodd" /><path transform="matrix(1 0 0 -1 0 841)" d="M84.264 304.25L84.744 304.25L84.744 304.25L84.744 445.63L84.744 445.63L84.264 445.63z" stroke="none" fill="#000000" fill-rule="evenodd" /><path transform="matrix(1 0 0 -1 0 841)" d="M293.45 304.25L293.93 304.25L293.93 304.25L293.93 445.63L293.93 445.63L293.45 445.63z" stroke="none" fill="#000000" fill-rule="evenodd" /><path transform="matrix(1 0 0 -1 0 841)" d="M502.78 304.25L503.26 304.25L503.26 304.25L503.26 445.63L503.26 445.63L502.78 445.63z" stroke="none" fill="#000000" fill-rule="evenodd" /><g clip-path="url(#108)"><g clip-path="url(#109)"></g><g clip-path="url(#110)"></g><g clip-path="url(#111)"></g></g><g clip-path="url(#112)"><g clip-path="url(#113)"></g><g clip-path="url(#114)"></g><g clip-path="url(#115)"></g><g clip-path="url(#116)"></g><g clip-path="url(#117)"></g><g clip-path="url(#118)"></g></g><path transform="matrix(1 0 0 -1 0 841)" d="M84.264 303.77L84.744 303.77L84.744 303.77L84.744 304.25L84.744 304.25L84.264 304.25z" stroke="none" fill="#000000" fill-rule="evenodd" /><path transform="matrix(1 0 0 -1 0 841)" d="M84.744 303.77L293.444 303.77L293.444 303.77L293.444 304.25L293.444 304.25L84.744 304.25z" stroke="none" fill="#000000" fill-rule="evenodd" /><path transform="matrix(1 0 0 -1 0 841)" d="M293.45 303.77L293.93 303.77L293.93 303.77L293.93 304.25L293.93 304.25L293.45 304.25z" stroke="none" fill="#000000" fill-rule="evenodd" /><path transform="matrix(1 0 0 -1 0 841)" d="M293.93 303.77L502.78 303.77L502.78 303.77L502.78 304.25L502.78 304.25L293.93 304.25z" stroke="none" fill="#000000" fill-rule="evenodd" /><path transform="matrix(1 0 0 -1 0 841)" d="M502.78 303.77L503.26 303.77L503.26 303.77L503.26 304.25L503.26 304.25L502.78 304.25z" stroke="none" fill="#000000" fill-rule="evenodd" /><path transform="matrix(1 0 0 -1 0 841)" d="M84.264 203.45L84.744 203.45L84.744 203.45L84.744 303.77L84.744 303.77L84.264 303.77z" stroke="none" fill="#000000" fill-rule="evenodd" /><path transform="matrix(1 0 0 -1 0 841)" d="M293.45 203.45L293.93 203.45L293.93 203.45L293.93 303.77L293.93 303.77L293.45 303.77z" stroke="none" fill="#000000" fill-rule="evenodd" /><path transform="matrix(1 0 0 -1 0 841)" d="M502.78 203.45L503.26 203.45L503.26 203.45L503.26 303.77L503.26 303.77L502.78 303.77z" stroke="none" fill="#000000" fill-rule="evenodd" /><g clip-path="url(#119)"><g clip-path="url(#120)"></g><g clip-path="url(#121)"></g><g clip-path="url(#122)"></g></g><g clip-path="url(#123)"><g clip-path="url(#124)"></g><g clip-path="url(#125)"></g><g clip-path="url(#126)"></g><g clip-path="url(#127)"></g><g clip-path="url(#128)"></g><g clip-path="url(#129)"></g><g clip-path="url(#130)"></g><g clip-path="url(#131)"></g><g clip-path="url(#132)"></g><path transform="matrix(1 0 0 -1 0 841)" d="M305.09 122.42L347.234 122.42L347.234 122.42L347.234 123.14L347.234 123.14L305.09 123.14z" stroke="none" fill="#000000" fill-rule="evenodd" /><g clip-path="url(#133)"></g><g clip-path="url(#134)"></g></g><path transform="matrix(1 0 0 -1 0 841)" d="M84.264 202.97L84.744 202.97L84.744 202.97L84.744 203.45L84.744 203.45L84.264 203.45z" stroke="none" fill="#000000" fill-rule="evenodd" /><path transform="matrix(1 0 0 -1 0 841)" d="M84.744 202.97L293.444 202.97L293.444 202.97L293.444 203.45L293.444 203.45L84.744 203.45z" stroke="none" fill="#000000" fill-rule="evenodd" /><path transform="matrix(1 0 0 -1 0 841)" d="M293.45 202.97L293.93 202.97L293.93 202.97L293.93 203.45L293.93 203.45L293.45 203.45z" stroke="none" fill="#000000" fill-rule="evenodd" /><path transform="matrix(1 0 0 -1 0 841)" d="M293.93 202.97L502.78 202.97L502.78 202.97L502.78 203.45L502.78 203.45L293.93 203.45z" stroke="none" fill="#000000" fill-rule="evenodd" /><path transform="matrix(1 0 0 -1 0 841)" d="M502.78 202.97L503.26 202.97L503.26 202.97L503.26 203.45L503.26 203.45L502.78 203.45z" stroke="none" fill="#000000" fill-rule="evenodd" /><path transform="matrix(1 0 0 -1 0 841)" d="M84.264 97.824L84.744 97.824L84.744 97.824L84.744 202.964L84.744 202.964L84.264 202.964z" stroke="none" fill="#000000" fill-rule="evenodd" /><path transform="matrix(1 0 0 -1 0 841)" d="M84.264 97.344L84.744 97.344L84.744 97.344L84.744 97.82398L84.744 97.82398L84.264 97.82398z" stroke="none" fill="#000000" fill-rule="evenodd" /><path transform="matrix(1 0 0 -1 0 841)" d="M84.264 97.344L84.744 97.344L84.744 97.344L84.744 97.82398L84.744 97.82398L84.264 97.82398z" stroke="none" fill="#000000" fill-rule="evenodd" /><path transform="matrix(1 0 0 -1 0 841)" d="M84.744 97.344L293.444 97.344L293.444 97.344L293.444 97.82398L293.444 97.82398L84.744 97.82398z" stroke="none" fill="#000000" fill-rule="evenodd" /><path transform="matrix(1 0 0 -1 0 841)" d="M293.45 97.824L293.93 97.824L293.93 97.824L293.93 202.964L293.93 202.964L293.45 202.964z" stroke="none" fill="#000000" fill-rule="evenodd" /><path transform="matrix(1 0 0 -1 0 841)" d="M293.45 97.344L293.93 97.344L293.93 97.344L293.93 97.82398L293.93 97.82398L293.45 97.82398z" stroke="none" fill="#000000" fill-rule="evenodd" /><path transform="matrix(1 0 0 -1 0 841)" d="M293.93 97.344L502.78 97.344L502.78 97.344L502.78 97.82398L502.78 97.82398L293.93 97.82398z" stroke="none" fill="#000000" fill-rule="evenodd" /><path transform="matrix(1 0 0 -1 0 841)" d="M502.78 97.824L503.26 97.824L503.26 97.824L503.26 202.964L503.26 202.964L502.78 202.964z" stroke="none" fill="#000000" fill-rule="evenodd" /><path transform="matrix(1 0 0 -1 0 841)" d="M502.78 97.344L503.26 97.344L503.26 97.344L503.26 97.82398L503.26 97.82398L502.78 97.82398z" stroke="none" fill="#000000" fill-rule="evenodd" /><path transform="matrix(1 0 0 -1 0 841)" d="M502.78 97.344L503.26 97.344L503.26 97.344L503.26 97.82398L503.26 97.82398L502.78 97.82398z" stroke="none" fill="#000000" fill-rule="evenodd" /></g></g></g></svg>