<svg xmlns="http://www.w3.org/2000/svg" xmlns:xlink="http://www.w3.org/1999/xlink" id="body_155" preserveAspectRatio="xMinYMin meet" viewBox="0 0 793 1121"><defs><clipPath id="1"><path d="M0 841L0 -0.9199829L0 -0.9199829L595.32 -0.9199829L595.32 -0.9199829L595.32 841L595.32 841L0 841z" /></clipPath><clipPath id="2"><path d="M0.00125 841.0914L595.4112 841.0914L595.4112 841.0914L595.4112 -0.9186401L595.4112 -0.9186401L0.00125 -0.9186401z" /></clipPath><clipPath id="3"><path d="M288.05 781.211L316.01 781.211L316.01 781.211L316.01 762.011L316.01 762.011L288.05 762.011z" /></clipPath><clipPath id="4"><path d="M288.05 781.216L316.01 781.216L316.01 781.216L316.01 762.016L316.01 762.016L288.05 762.016z" /></clipPath><clipPath id="5"><path d="M288.05 781.216L316.01 781.216L316.01 781.216L316.01 762.016L316.01 762.016L288.05 762.016z" /></clipPath><clipPath id="6"><path d="M84.751 113.59L510.691 113.59L510.691 113.59L510.691 89.44L510.691 89.44L84.751 89.44z" /></clipPath><clipPath id="7"><path d="M84.744 113.58L510.694 113.58L510.694 113.58L510.694 89.43604L510.694 89.43604L84.744 89.43604z" /></clipPath><clipPath id="8"><path d="M84.744 113.58L510.694 113.58L510.694 113.58L510.694 89.43604L510.694 89.43604L84.744 89.43604z" /></clipPath><clipPath id="9"><path d="M84.744 113.58L510.694 113.58L510.694 113.58L510.694 89.43604L510.694 89.43604L84.744 89.43604z" /></clipPath><clipPath id="10"><path d="M84.744 113.58L510.694 113.58L510.694 113.58L510.694 89.43604L510.694 89.43604L84.744 89.43604z" /></clipPath><clipPath id="11"><path d="M84.744 113.58L510.694 113.58L510.694 113.58L510.694 89.43604L510.694 89.43604L84.744 89.43604z" /></clipPath><clipPath id="12"><path d="M84.744 113.58L510.694 113.58L510.694 113.58L510.694 89.43604L510.694 89.43604L84.744 89.43604z" /></clipPath><clipPath id="13"><path d="M84.744 113.58L510.694 113.58L510.694 113.58L510.694 89.43604L510.694 89.43604L84.744 89.43604z" /></clipPath><clipPath id="14"><path d="M84.751 171.31L510.691 171.31L510.691 171.31L510.691 114.07L510.691 114.07L84.751 114.07z" /></clipPath><clipPath id="15"><path d="M84.744 171.3L510.694 171.3L510.694 171.3L510.694 114.06L510.694 114.06L84.744 114.06z" /></clipPath><clipPath id="16"><path d="M84.744 171.3L510.694 171.3L510.694 171.3L510.694 114.06L510.694 114.06L84.744 114.06z" /></clipPath><clipPath id="17"><path d="M84.744 171.3L510.694 171.3L510.694 171.3L510.694 114.06L510.694 114.06L84.744 114.06z" /></clipPath><clipPath id="18"><path d="M84.744 171.3L510.694 171.3L510.694 171.3L510.694 114.06L510.694 114.06L84.744 114.06z" /></clipPath><clipPath id="19"><path d="M84.744 171.3L510.694 171.3L510.694 171.3L510.694 114.06L510.694 114.06L84.744 114.06z" /></clipPath><clipPath id="20"><path d="M84.744 171.3L510.694 171.3L510.694 171.3L510.694 114.06L510.694 114.06L84.744 114.06z" /></clipPath><clipPath id="21"><path d="M84.744 171.3L510.694 171.3L510.694 171.3L510.694 114.06L510.694 114.06L84.744 114.06z" /></clipPath><clipPath id="22"><path d="M84.744 171.3L510.694 171.3L510.694 171.3L510.694 114.06L510.694 114.06L84.744 114.06z" /></clipPath><clipPath id="23"><path d="M84.744 171.3L510.694 171.3L510.694 171.3L510.694 114.06L510.694 114.06L84.744 114.06z" /></clipPath><clipPath id="24"><path d="M84.744 171.3L510.694 171.3L510.694 171.3L510.694 114.06L510.694 114.06L84.744 114.06z" /></clipPath><clipPath id="25"><path d="M84.751 215.47L510.691 215.47L510.691 215.47L510.691 191.35L510.691 191.35L84.751 191.35z" /></clipPath><clipPath id="26"><path d="M84.744 215.46L510.694 215.46L510.694 215.46L510.694 191.34L510.694 191.34L84.744 191.34z" /></clipPath><clipPath id="27"><path d="M84.744 215.46L510.694 215.46L510.694 215.46L510.694 191.34L510.694 191.34L84.744 191.34z" /></clipPath><clipPath id="28"><path d="M84.744 215.46L510.694 215.46L510.694 215.46L510.694 191.34L510.694 191.34L84.744 191.34z" /></clipPath><clipPath id="29"><path d="M84.744 215.46L510.694 215.46L510.694 215.46L510.694 191.34L510.694 191.34L84.744 191.34z" /></clipPath><clipPath id="30"><path d="M84.744 215.46L510.694 215.46L510.694 215.46L510.694 191.34L510.694 191.34L84.744 191.34z" /></clipPath><clipPath id="31"><path d="M84.744 215.46L510.694 215.46L510.694 215.46L510.694 191.34L510.694 191.34L84.744 191.34z" /></clipPath><clipPath id="32"><path d="M84.744 215.46L510.694 215.46L510.694 215.46L510.694 191.34L510.694 191.34L84.744 191.34z" /></clipPath><clipPath id="33"><path d="M84.744 215.46L510.694 215.46L510.694 215.46L510.694 191.34L510.694 191.34L84.744 191.34z" /></clipPath><clipPath id="34"><path d="M84.751 749.411L510.691 749.411L510.691 749.411L510.691 215.951L510.691 215.951L84.751 215.951z" /></clipPath><clipPath id="35"><path d="M84.744 749.416L510.694 749.416L510.694 749.416L510.694 215.946L510.694 215.946L84.744 215.946z" /></clipPath><clipPath id="36"><path d="M84.744 749.416L510.694 749.416L510.694 749.416L510.694 215.946L510.694 215.946L84.744 215.946z" /></clipPath><clipPath id="37"><path d="M84.744 749.416L510.694 749.416L510.694 749.416L510.694 215.946L510.694 215.946L84.744 215.946z" /></clipPath><clipPath id="38"><path d="M84.744 749.416L510.694 749.416L510.694 749.416L510.694 215.946L510.694 215.946L84.744 215.946z" /></clipPath><clipPath id="39"><path d="M84.744 749.416L510.694 749.416L510.694 749.416L510.694 215.946L510.694 215.946L84.744 215.946z" /></clipPath><clipPath id="40"><path d="M84.744 749.416L510.694 749.416L510.694 749.416L510.694 215.946L510.694 215.946L84.744 215.946z" /></clipPath><clipPath id="41"><path d="M84.744 749.416L510.694 749.416L510.694 749.416L510.694 215.946L510.694 215.946L84.744 215.946z" /></clipPath><clipPath id="42"><path d="M84.744 749.416L510.694 749.416L510.694 749.416L510.694 215.946L510.694 215.946L84.744 215.946z" /></clipPath><clipPath id="43"><path d="M84.744 749.416L510.694 749.416L510.694 749.416L510.694 215.946L510.694 215.946L84.744 215.946z" /></clipPath><clipPath id="44"><path d="M84.744 749.416L510.694 749.416L510.694 749.416L510.694 215.946L510.694 215.946L84.744 215.946z" /></clipPath><clipPath id="45"><path d="M84.744 749.416L510.694 749.416L510.694 749.416L510.694 215.946L510.694 215.946L84.744 215.946z" /></clipPath><clipPath id="46"><path d="M84.744 749.416L510.694 749.416L510.694 749.416L510.694 215.946L510.694 215.946L84.744 215.946z" /></clipPath><clipPath id="47"><path d="M84.744 749.416L510.694 749.416L510.694 749.416L510.694 215.946L510.694 215.946L84.744 215.946z" /></clipPath><clipPath id="48"><path d="M84.744 749.416L510.694 749.416L510.694 749.416L510.694 215.946L510.694 215.946L84.744 215.946z" /></clipPath><clipPath id="49"><path d="M84.744 749.416L510.694 749.416L510.694 749.416L510.694 215.946L510.694 215.946L84.744 215.946z" /></clipPath><clipPath id="50"><path d="M84.744 749.416L510.694 749.416L510.694 749.416L510.694 215.946L510.694 215.946L84.744 215.946z" /></clipPath><clipPath id="51"><path d="M84.744 749.416L510.694 749.416L510.694 749.416L510.694 215.946L510.694 215.946L84.744 215.946z" /></clipPath><clipPath id="52"><path d="M84.744 749.416L510.694 749.416L510.694 749.416L510.694 215.946L510.694 215.946L84.744 215.946z" /></clipPath><clipPath id="53"><path d="M84.744 749.416L510.694 749.416L510.694 749.416L510.694 215.946L510.694 215.946L84.744 215.946z" /></clipPath><clipPath id="54"><path d="M84.744 749.416L510.694 749.416L510.694 749.416L510.694 215.946L510.694 215.946L84.744 215.946z" /></clipPath><clipPath id="55"><path d="M84.744 749.416L510.694 749.416L510.694 749.416L510.694 215.946L510.694 215.946L84.744 215.946z" /></clipPath><clipPath id="56"><path d="M84.744 749.416L510.694 749.416L510.694 749.416L510.694 215.946L510.694 215.946L84.744 215.946z" /></clipPath><clipPath id="57"><path d="M84.744 749.416L510.694 749.416L510.694 749.416L510.694 215.946L510.694 215.946L84.744 215.946z" /></clipPath><clipPath id="58"><path d="M84.744 749.416L510.694 749.416L510.694 749.416L510.694 215.946L510.694 215.946L84.744 215.946z" /></clipPath><clipPath id="59"><path d="M84.744 749.416L510.694 749.416L510.694 749.416L510.694 215.946L510.694 215.946L84.744 215.946z" /></clipPath><clipPath id="60"><path d="M84.744 749.416L510.694 749.416L510.694 749.416L510.694 215.946L510.694 215.946L84.744 215.946z" /></clipPath><clipPath id="61"><path d="M84.744 749.416L510.694 749.416L510.694 749.416L510.694 215.946L510.694 215.946L84.744 215.946z" /></clipPath><clipPath id="62"><path d="M84.744 749.416L510.694 749.416L510.694 749.416L510.694 215.946L510.694 215.946L84.744 215.946z" /></clipPath><clipPath id="63"><path d="M84.744 749.416L510.694 749.416L510.694 749.416L510.694 215.946L510.694 215.946L84.744 215.946z" /></clipPath><clipPath id="64"><path d="M84.744 749.416L510.694 749.416L510.694 749.416L510.694 215.946L510.694 215.946L84.744 215.946z" /></clipPath><clipPath id="65"><path d="M84.744 749.416L510.694 749.416L510.694 749.416L510.694 215.946L510.694 215.946L84.744 215.946z" /></clipPath><clipPath id="66"><path d="M84.744 749.416L510.694 749.416L510.694 749.416L510.694 215.946L510.694 215.946L84.744 215.946z" /></clipPath><clipPath id="67"><path d="M84.744 749.416L510.694 749.416L510.694 749.416L510.694 215.946L510.694 215.946L84.744 215.946z" /></clipPath><clipPath id="68"><path d="M84.744 749.416L510.694 749.416L510.694 749.416L510.694 215.946L510.694 215.946L84.744 215.946z" /></clipPath><clipPath id="69"><path d="M84.744 749.416L510.694 749.416L510.694 749.416L510.694 215.946L510.694 215.946L84.744 215.946z" /></clipPath><clipPath id="70"><path d="M84.744 749.416L510.694 749.416L510.694 749.416L510.694 215.946L510.694 215.946L84.744 215.946z" /></clipPath><clipPath id="71"><path d="M84.744 749.416L510.694 749.416L510.694 749.416L510.694 215.946L510.694 215.946L84.744 215.946z" /></clipPath><clipPath id="72"><path d="M84.744 749.416L510.694 749.416L510.694 749.416L510.694 215.946L510.694 215.946L84.744 215.946z" /></clipPath><clipPath id="73"><path d="M84.744 749.416L510.694 749.416L510.694 749.416L510.694 215.946L510.694 215.946L84.744 215.946z" /></clipPath><clipPath id="74"><path d="M84.744 749.416L510.694 749.416L510.694 749.416L510.694 215.946L510.694 215.946L84.744 215.946z" /></clipPath><clipPath id="75"><path d="M84.744 749.416L510.694 749.416L510.694 749.416L510.694 215.946L510.694 215.946L84.744 215.946z" /></clipPath><clipPath id="76"><path d="M84.744 749.416L510.694 749.416L510.694 749.416L510.694 215.946L510.694 215.946L84.744 215.946z" /></clipPath><clipPath id="77"><path d="M84.744 749.416L510.694 749.416L510.694 749.416L510.694 215.946L510.694 215.946L84.744 215.946z" /></clipPath><clipPath id="78"><path d="M84.744 749.416L510.694 749.416L510.694 749.416L510.694 215.946L510.694 215.946L84.744 215.946z" /></clipPath><clipPath id="79"><path d="M84.744 749.416L510.694 749.416L510.694 749.416L510.694 215.946L510.694 215.946L84.744 215.946z" /></clipPath><clipPath id="80"><path d="M84.744 749.416L510.694 749.416L510.694 749.416L510.694 215.946L510.694 215.946L84.744 215.946z" /></clipPath><clipPath id="81"><path d="M84.744 749.416L510.694 749.416L510.694 749.416L510.694 215.946L510.694 215.946L84.744 215.946z" /></clipPath><clipPath id="82"><path d="M84.744 749.416L510.694 749.416L510.694 749.416L510.694 215.946L510.694 215.946L84.744 215.946z" /></clipPath><clipPath id="83"><path d="M84.744 749.416L510.694 749.416L510.694 749.416L510.694 215.946L510.694 215.946L84.744 215.946z" /></clipPath><clipPath id="84"><path d="M84.744 749.416L510.694 749.416L510.694 749.416L510.694 215.946L510.694 215.946L84.744 215.946z" /></clipPath><clipPath id="85"><path d="M84.744 749.416L510.694 749.416L510.694 749.416L510.694 215.946L510.694 215.946L84.744 215.946z" /></clipPath><clipPath id="86"><path d="M84.744 749.416L510.694 749.416L510.694 749.416L510.694 215.946L510.694 215.946L84.744 215.946z" /></clipPath><clipPath id="87"><path d="M84.744 749.416L510.694 749.416L510.694 749.416L510.694 215.946L510.694 215.946L84.744 215.946z" /></clipPath><clipPath id="88"><path d="M84.744 749.416L510.694 749.416L510.694 749.416L510.694 215.946L510.694 215.946L84.744 215.946z" /></clipPath><clipPath id="89"><path d="M84.744 749.416L510.694 749.416L510.694 749.416L510.694 215.946L510.694 215.946L84.744 215.946z" /></clipPath><clipPath id="90"><path d="M84.744 749.416L510.694 749.416L510.694 749.416L510.694 215.946L510.694 215.946L84.744 215.946z" /></clipPath><clipPath id="91"><path d="M84.744 749.416L510.694 749.416L510.694 749.416L510.694 215.946L510.694 215.946L84.744 215.946z" /></clipPath><clipPath id="92"><path d="M84.744 749.416L510.694 749.416L510.694 749.416L510.694 215.946L510.694 215.946L84.744 215.946z" /></clipPath><clipPath id="93"><path d="M84.744 749.416L510.694 749.416L510.694 749.416L510.694 215.946L510.694 215.946L84.744 215.946z" /></clipPath><clipPath id="94"><path d="M84.744 749.416L510.694 749.416L510.694 749.416L510.694 215.946L510.694 215.946L84.744 215.946z" /></clipPath><clipPath id="95"><path d="M84.744 749.416L510.694 749.416L510.694 749.416L510.694 215.946L510.694 215.946L84.744 215.946z" /></clipPath><clipPath id="96"><path d="M84.744 749.416L510.694 749.416L510.694 749.416L510.694 215.946L510.694 215.946L84.744 215.946z" /></clipPath><clipPath id="97"><path d="M84.744 749.416L510.694 749.416L510.694 749.416L510.694 215.946L510.694 215.946L84.744 215.946z" /></clipPath><clipPath id="98"><path d="M84.744 749.416L510.694 749.416L510.694 749.416L510.694 215.946L510.694 215.946L84.744 215.946z" /></clipPath><clipPath id="99"><path d="M84.744 749.416L510.694 749.416L510.694 749.416L510.694 215.946L510.694 215.946L84.744 215.946z" /></clipPath><clipPath id="100"><path d="M84.744 749.416L510.694 749.416L510.694 749.416L510.694 215.946L510.694 215.946L84.744 215.946z" /></clipPath><clipPath id="101"><path d="M84.744 749.416L510.694 749.416L510.694 749.416L510.694 215.946L510.694 215.946L84.744 215.946z" /></clipPath><clipPath id="102"><path d="M84.744 749.416L510.694 749.416L510.694 749.416L510.694 215.946L510.694 215.946L84.744 215.946z" /></clipPath><clipPath id="103"><path d="M84.744 749.416L510.694 749.416L510.694 749.416L510.694 215.946L510.694 215.946L84.744 215.946z" /></clipPath><clipPath id="104"><path d="M84.744 749.416L510.694 749.416L510.694 749.416L510.694 215.946L510.694 215.946L84.744 215.946z" /></clipPath><clipPath id="105"><path d="M84.744 749.416L510.694 749.416L510.694 749.416L510.694 215.946L510.694 215.946L84.744 215.946z" /></clipPath><clipPath id="106"><path d="M84.744 749.416L510.694 749.416L510.694 749.416L510.694 215.946L510.694 215.946L84.744 215.946z" /></clipPath><clipPath id="107"><path d="M84.744 749.416L510.694 749.416L510.694 749.416L510.694 215.946L510.694 215.946L84.744 215.946z" /></clipPath><clipPath id="108"><path d="M84.744 749.416L510.694 749.416L510.694 749.416L510.694 215.946L510.694 215.946L84.744 215.946z" /></clipPath><clipPath id="109"><path d="M84.744 749.416L510.694 749.416L510.694 749.416L510.694 215.946L510.694 215.946L84.744 215.946z" /></clipPath><clipPath id="110"><path d="M84.744 749.416L510.694 749.416L510.694 749.416L510.694 215.946L510.694 215.946L84.744 215.946z" /></clipPath><clipPath id="111"><path d="M84.744 749.416L510.694 749.416L510.694 749.416L510.694 215.946L510.694 215.946L84.744 215.946z" /></clipPath><clipPath id="112"><path d="M84.744 749.416L510.694 749.416L510.694 749.416L510.694 215.946L510.694 215.946L84.744 215.946z" /></clipPath><clipPath id="113"><path d="M84.744 749.416L510.694 749.416L510.694 749.416L510.694 215.946L510.694 215.946L84.744 215.946z" /></clipPath><clipPath id="114"><path d="M84.744 749.416L510.694 749.416L510.694 749.416L510.694 215.946L510.694 215.946L84.744 215.946z" /></clipPath><clipPath id="115"><path d="M84.744 749.416L510.694 749.416L510.694 749.416L510.694 215.946L510.694 215.946L84.744 215.946z" /></clipPath><clipPath id="116"><path d="M84.744 749.416L510.694 749.416L510.694 749.416L510.694 215.946L510.694 215.946L84.744 215.946z" /></clipPath><clipPath id="117"><path d="M84.744 749.416L510.694 749.416L510.694 749.416L510.694 215.946L510.694 215.946L84.744 215.946z" /></clipPath><clipPath id="118"><path d="M84.744 749.416L510.694 749.416L510.694 749.416L510.694 215.946L510.694 215.946L84.744 215.946z" /></clipPath></defs><g transform="matrix(1.333333 0 0 1.333333 0 0)"><g><g clip-path="url(#1)"><path transform="matrix(1 0 0 -1 0 841)" d="M457.51 53.304L505.534 53.304L505.534 53.304L505.534 53.90404L505.534 53.90404L457.51 53.90404z" stroke="none" fill="#000000" fill-rule="evenodd" /><g clip-path="url(#2)"><path transform="matrix(1 0 0 -1 0 841)" d="M88.464 77.904L506.974 77.904L506.974 77.904L506.974 80.904L506.974 80.904L88.464 80.904z" stroke="none" fill="#000000" fill-rule="evenodd" /><path transform="matrix(1 0 0 -1 0 841)" d="M88.464 76.464L506.974 76.464L506.974 76.464L506.974 77.18397L506.974 77.18397L88.464 77.18397z" stroke="none" fill="#000000" fill-rule="evenodd" /></g><g clip-path="url(#3)"><g clip-path="url(#4)"></g><g clip-path="url(#5)"></g></g><path transform="matrix(1 0 0 -1 0 841)" d="M84.744 727.42L510.694 727.42L510.694 727.42L510.694 751.564L510.694 751.564L84.744 751.564z" stroke="none" fill="#0070C0" fill-rule="evenodd" /><g clip-path="url(#6)"><path transform="matrix(1 0 0 -1 0 841)" d="M89.904 727.42L505.534 727.42L505.534 727.42L505.534 751.564L505.534 751.564L89.904 751.564z" stroke="none" fill="#0070C0" fill-rule="evenodd" /><g clip-path="url(#7)"></g><g clip-path="url(#8)"></g><g clip-path="url(#9)"></g><g clip-path="url(#10)"></g><g clip-path="url(#11)"></g><g clip-path="url(#12)"></g><g clip-path="url(#13)"></g></g><path transform="matrix(1 0 0 -1 0 841)" d="M84.264 751.56L84.744 751.56L84.744 751.56L84.744 752.04L84.744 752.04L84.264 752.04z" stroke="none" fill="#000000" fill-rule="evenodd" /><path transform="matrix(1 0 0 -1 0 841)" d="M84.264 751.56L84.744 751.56L84.744 751.56L84.744 752.04L84.744 752.04L84.264 752.04z" stroke="none" fill="#000000" fill-rule="evenodd" /><path transform="matrix(1 0 0 -1 0 841)" d="M84.744 751.56L510.694 751.56L510.694 751.56L510.694 752.04L510.694 752.04L84.744 752.04z" stroke="none" fill="#000000" fill-rule="evenodd" /><path transform="matrix(1 0 0 -1 0 841)" d="M510.7 751.56L511.18 751.56L511.18 751.56L511.18 752.04L511.18 752.04L510.7 752.04z" stroke="none" fill="#000000" fill-rule="evenodd" /><path transform="matrix(1 0 0 -1 0 841)" d="M510.7 751.56L511.18 751.56L511.18 751.56L511.18 752.04L511.18 752.04L510.7 752.04z" stroke="none" fill="#000000" fill-rule="evenodd" /><path transform="matrix(1 0 0 -1 0 841)" d="M84.264 727.42L84.744 727.42L84.744 727.42L84.744 751.564L84.744 751.564L84.264 751.564z" stroke="none" fill="#000000" fill-rule="evenodd" /><path transform="matrix(1 0 0 -1 0 841)" d="M510.7 727.42L511.18 727.42L511.18 727.42L511.18 751.564L511.18 751.564L510.7 751.564z" stroke="none" fill="#000000" fill-rule="evenodd" /><path transform="matrix(1 0 0 -1 0 841)" d="M84.744 669.7L510.694 669.7L510.694 669.7L510.694 726.94L510.694 726.94L84.744 726.94z" stroke="none" fill="#DAEEF3" fill-rule="evenodd" /><g clip-path="url(#14)"><path transform="matrix(1 0 0 -1 0 841)" d="M89.904 707.86L505.534 707.86L505.534 707.86L505.534 726.94L505.534 726.94L89.904 726.94z" stroke="none" fill="#DAEEF3" fill-rule="evenodd" /><g clip-path="url(#15)"></g><g clip-path="url(#16)"></g><g clip-path="url(#17)"></g><path transform="matrix(1 0 0 -1 0 841)" d="M89.904 688.78L505.534 688.78L505.534 688.78L505.534 707.86L505.534 707.86L89.904 707.86z" stroke="none" fill="#DAEEF3" fill-rule="evenodd" /><g clip-path="url(#18)"></g><g clip-path="url(#19)"></g><g clip-path="url(#20)"></g><g clip-path="url(#21)"></g><path transform="matrix(1 0 0 -1 0 841)" d="M89.904 669.7L505.534 669.7L505.534 669.7L505.534 688.78L505.534 688.78L89.904 688.78z" stroke="none" fill="#DAEEF3" fill-rule="evenodd" /><g clip-path="url(#22)"></g><g clip-path="url(#23)"></g><g clip-path="url(#24)"></g></g><path transform="matrix(1 0 0 -1 0 841)" d="M84.264 726.94L84.744 726.94L84.744 726.94L84.744 727.42L84.744 727.42L84.264 727.42z" stroke="none" fill="#000000" fill-rule="evenodd" /><path transform="matrix(1 0 0 -1 0 841)" d="M84.744 726.94L510.694 726.94L510.694 726.94L510.694 727.42L510.694 727.42L84.744 727.42z" stroke="none" fill="#000000" fill-rule="evenodd" /><path transform="matrix(1 0 0 -1 0 841)" d="M510.7 726.94L511.18 726.94L511.18 726.94L511.18 727.42L511.18 727.42L510.7 727.42z" stroke="none" fill="#000000" fill-rule="evenodd" /><path transform="matrix(1 0 0 -1 0 841)" d="M84.264 669.7L84.744 669.7L84.744 669.7L84.744 726.94L84.744 726.94L84.264 726.94z" stroke="none" fill="#000000" fill-rule="evenodd" /><path transform="matrix(1 0 0 -1 0 841)" d="M84.264 669.22L84.744 669.22L84.744 669.22L84.744 669.7L84.744 669.7L84.264 669.7z" stroke="none" fill="#000000" fill-rule="evenodd" /><path transform="matrix(1 0 0 -1 0 841)" d="M84.264 669.22L84.744 669.22L84.744 669.22L84.744 669.7L84.744 669.7L84.264 669.7z" stroke="none" fill="#000000" fill-rule="evenodd" /><path transform="matrix(1 0 0 -1 0 841)" d="M84.744 669.22L510.694 669.22L510.694 669.22L510.694 669.7L510.694 669.7L84.744 669.7z" stroke="none" fill="#000000" fill-rule="evenodd" /><path transform="matrix(1 0 0 -1 0 841)" d="M510.7 669.7L511.18 669.7L511.18 669.7L511.18 726.94L511.18 726.94L510.7 726.94z" stroke="none" fill="#000000" fill-rule="evenodd" /><path transform="matrix(1 0 0 -1 0 841)" d="M510.7 669.22L511.18 669.22L511.18 669.22L511.18 669.7L511.18 669.7L510.7 669.7z" stroke="none" fill="#000000" fill-rule="evenodd" /><path transform="matrix(1 0 0 -1 0 841)" d="M510.7 669.22L511.18 669.22L511.18 669.22L511.18 669.7L511.18 669.7L510.7 669.7z" stroke="none" fill="#000000" fill-rule="evenodd" /><path transform="matrix(1 0 0 -1 0 841)" d="M84.744 625.54L510.694 625.54L510.694 625.54L510.694 649.66L510.694 649.66L84.744 649.66z" stroke="none" fill="#0070C0" fill-rule="evenodd" /><g clip-path="url(#25)"><path transform="matrix(1 0 0 -1 0 841)" d="M89.904 625.54L505.534 625.54L505.534 625.54L505.534 649.66L505.534 649.66L89.904 649.66z" stroke="none" fill="#0070C0" fill-rule="evenodd" /><g clip-path="url(#26)"></g><g clip-path="url(#27)"></g><g clip-path="url(#28)"></g><g clip-path="url(#29)"></g><g clip-path="url(#30)"></g><g clip-path="url(#31)"></g><g clip-path="url(#32)"></g><g clip-path="url(#33)"></g></g><path transform="matrix(1 0 0 -1 0 841)" d="M84.264 649.78L84.744 649.78L84.744 649.78L84.744 650.26L84.744 650.26L84.264 650.26z" stroke="none" fill="#000000" fill-rule="evenodd" /><path transform="matrix(1 0 0 -1 0 841)" d="M84.264 649.78L84.744 649.78L84.744 649.78L84.744 650.26L84.744 650.26L84.264 650.26z" stroke="none" fill="#000000" fill-rule="evenodd" /><path transform="matrix(1 0 0 -1 0 841)" d="M84.744 649.78L510.694 649.78L510.694 649.78L510.694 650.26L510.694 650.26L84.744 650.26z" stroke="none" fill="#000000" fill-rule="evenodd" /><path transform="matrix(1 0 0 -1 0 841)" d="M510.7 649.78L511.18 649.78L511.18 649.78L511.18 650.26L511.18 650.26L510.7 650.26z" stroke="none" fill="#000000" fill-rule="evenodd" /><path transform="matrix(1 0 0 -1 0 841)" d="M510.7 649.78L511.18 649.78L511.18 649.78L511.18 650.26L511.18 650.26L510.7 650.26z" stroke="none" fill="#000000" fill-rule="evenodd" /><path transform="matrix(1 0 0 -1 0 841)" d="M84.264 625.54L84.744 625.54L84.744 625.54L84.744 649.78L84.744 649.78L84.264 649.78z" stroke="none" fill="#000000" fill-rule="evenodd" /><path transform="matrix(1 0 0 -1 0 841)" d="M510.7 625.54L511.18 625.54L511.18 625.54L511.18 649.78L511.18 649.78L510.7 649.78z" stroke="none" fill="#000000" fill-rule="evenodd" /><path transform="matrix(1 0 0 -1 0 841)" d="M84.744 91.584L510.694 91.584L510.694 91.584L510.694 625.054L510.694 625.054L84.744 625.054z" stroke="none" fill="#DAEEF3" fill-rule="evenodd" /><g clip-path="url(#34)"><path transform="matrix(1 0 0 -1 0 841)" d="M89.904 605.98L505.534 605.98L505.534 605.98L505.534 625.06L505.534 625.06L89.904 625.06z" stroke="none" fill="#DAEEF3" fill-rule="evenodd" /><g clip-path="url(#35)"></g><g clip-path="url(#36)"></g><path transform="matrix(1 0 0 -1 0 841)" d="M89.904 586.9L505.534 586.9L505.534 586.9L505.534 605.98L505.534 605.98L89.904 605.98z" stroke="none" fill="#DAEEF3" fill-rule="evenodd" /><g clip-path="url(#37)"></g><g clip-path="url(#38)"></g><g clip-path="url(#39)"></g><path transform="matrix(1 0 0 -1 0 841)" d="M89.904 567.94L505.534 567.94L505.534 567.94L505.534 586.9L505.534 586.9L89.904 586.9z" stroke="none" fill="#DAEEF3" fill-rule="evenodd" /><g clip-path="url(#40)"></g><g clip-path="url(#41)"></g><g clip-path="url(#42)"></g><g clip-path="url(#43)"></g><g clip-path="url(#44)"></g><path transform="matrix(1 0 0 -1 0 841)" d="M89.904 548.83L505.534 548.83L505.534 548.83L505.534 567.934L505.534 567.934L89.904 567.934z" stroke="none" fill="#DAEEF3" fill-rule="evenodd" /><g clip-path="url(#45)"></g><g clip-path="url(#46)"></g><g clip-path="url(#47)"></g><path transform="matrix(1 0 0 -1 0 841)" d="M89.904 529.75L505.534 529.75L505.534 529.75L505.534 548.83L505.534 548.83L89.904 548.83z" stroke="none" fill="#DAEEF3" fill-rule="evenodd" /><g clip-path="url(#48)"></g><g clip-path="url(#49)"></g><g clip-path="url(#50)"></g><path transform="matrix(1 0 0 -1 0 841)" d="M89.904 510.67L505.534 510.67L505.534 510.67L505.534 529.75L505.534 529.75L89.904 529.75z" stroke="none" fill="#DAEEF3" fill-rule="evenodd" /><g clip-path="url(#51)"></g><g clip-path="url(#52)"></g><g clip-path="url(#53)"></g><path transform="matrix(1 0 0 -1 0 841)" d="M89.904 491.71L505.534 491.71L505.534 491.71L505.534 510.67L505.534 510.67L89.904 510.67z" stroke="none" fill="#DAEEF3" fill-rule="evenodd" /><g clip-path="url(#54)"></g><g clip-path="url(#55)"></g><g clip-path="url(#56)"></g><path transform="matrix(1 0 0 -1 0 841)" d="M89.904 472.63L505.534 472.63L505.534 472.63L505.534 491.71L505.534 491.71L89.904 491.71z" stroke="none" fill="#DAEEF3" fill-rule="evenodd" /><g clip-path="url(#57)"></g><g clip-path="url(#58)"></g><g clip-path="url(#59)"></g><path transform="matrix(1 0 0 -1 0 841)" d="M89.904 453.55L505.534 453.55L505.534 453.55L505.534 472.63L505.534 472.63L89.904 472.63z" stroke="none" fill="#DAEEF3" fill-rule="evenodd" /><g clip-path="url(#60)"></g><g clip-path="url(#61)"></g><g clip-path="url(#62)"></g><path transform="matrix(1 0 0 -1 0 841)" d="M89.904 434.47L505.534 434.47L505.534 434.47L505.534 453.55L505.534 453.55L89.904 453.55z" stroke="none" fill="#DAEEF3" fill-rule="evenodd" /><g clip-path="url(#63)"></g><g clip-path="url(#64)"></g><g clip-path="url(#65)"></g><path transform="matrix(1 0 0 -1 0 841)" d="M89.904 415.51L505.534 415.51L505.534 415.51L505.534 434.47L505.534 434.47L89.904 434.47z" stroke="none" fill="#DAEEF3" fill-rule="evenodd" /><g clip-path="url(#66)"></g><g clip-path="url(#67)"></g><g clip-path="url(#68)"></g><path transform="matrix(1 0 0 -1 0 841)" d="M89.904 396.43L505.534 396.43L505.534 396.43L505.534 415.51L505.534 415.51L89.904 415.51z" stroke="none" fill="#DAEEF3" fill-rule="evenodd" /><g clip-path="url(#69)"></g><g clip-path="url(#70)"></g><g clip-path="url(#71)"></g><path transform="matrix(1 0 0 -1 0 841)" d="M89.904 377.35L505.534 377.35L505.534 377.35L505.534 396.43L505.534 396.43L89.904 396.43z" stroke="none" fill="#DAEEF3" fill-rule="evenodd" /><g clip-path="url(#72)"></g><g clip-path="url(#73)"></g><g clip-path="url(#74)"></g><g clip-path="url(#75)"></g><g clip-path="url(#76)"></g><path transform="matrix(1 0 0 -1 0 841)" d="M89.904 358.25L505.534 358.25L505.534 358.25L505.534 377.354L505.534 377.354L89.904 377.354z" stroke="none" fill="#DAEEF3" fill-rule="evenodd" /><g clip-path="url(#77)"></g><g clip-path="url(#78)"></g><g clip-path="url(#79)"></g><g clip-path="url(#80)"></g><path transform="matrix(1 0 0 -1 0 841)" d="M89.904 339.29L505.534 339.29L505.534 339.29L505.534 358.25L505.534 358.25L89.904 358.25z" stroke="none" fill="#DAEEF3" fill-rule="evenodd" /><g clip-path="url(#81)"></g><g clip-path="url(#82)"></g><g clip-path="url(#83)"></g><path transform="matrix(1 0 0 -1 0 841)" d="M89.904 320.21L505.534 320.21L505.534 320.21L505.534 339.29L505.534 339.29L89.904 339.29z" stroke="none" fill="#DAEEF3" fill-rule="evenodd" /><g clip-path="url(#84)"></g><g clip-path="url(#85)"></g><g clip-path="url(#86)"></g><path transform="matrix(1 0 0 -1 0 841)" d="M89.904 301.13L505.534 301.13L505.534 301.13L505.534 320.21L505.534 320.21L89.904 320.21z" stroke="none" fill="#DAEEF3" fill-rule="evenodd" /><g clip-path="url(#87)"></g><g clip-path="url(#88)"></g><g clip-path="url(#89)"></g><path transform="matrix(1 0 0 -1 0 841)" d="M89.904 282.05L505.534 282.05L505.534 282.05L505.534 301.13L505.534 301.13L89.904 301.13z" stroke="none" fill="#DAEEF3" fill-rule="evenodd" /><g clip-path="url(#90)"></g><g clip-path="url(#91)"></g><g clip-path="url(#92)"></g><path transform="matrix(1 0 0 -1 0 841)" d="M89.904 263.09L505.534 263.09L505.534 263.09L505.534 282.05L505.534 282.05L89.904 282.05z" stroke="none" fill="#DAEEF3" fill-rule="evenodd" /><g clip-path="url(#93)"></g><g clip-path="url(#94)"></g><g clip-path="url(#95)"></g><path transform="matrix(1 0 0 -1 0 841)" d="M89.904 244.01L505.534 244.01L505.534 244.01L505.534 263.09L505.534 263.09L89.904 263.09z" stroke="none" fill="#DAEEF3" fill-rule="evenodd" /><g clip-path="url(#96)"></g><g clip-path="url(#97)"></g><g clip-path="url(#98)"></g><path transform="matrix(1 0 0 -1 0 841)" d="M89.904 224.93L505.534 224.93L505.534 224.93L505.534 244.01L505.534 244.01L89.904 244.01z" stroke="none" fill="#DAEEF3" fill-rule="evenodd" /><g clip-path="url(#99)"></g><g clip-path="url(#100)"></g><g clip-path="url(#101)"></g><path transform="matrix(1 0 0 -1 0 841)" d="M89.904 205.85L505.534 205.85L505.534 205.85L505.534 224.93L505.534 224.93L89.904 224.93z" stroke="none" fill="#DAEEF3" fill-rule="evenodd" /><g clip-path="url(#102)"></g><g clip-path="url(#103)"></g><g clip-path="url(#104)"></g><path transform="matrix(1 0 0 -1 0 841)" d="M89.904 186.89L505.534 186.89L505.534 186.89L505.534 205.85L505.534 205.85L89.904 205.85z" stroke="none" fill="#DAEEF3" fill-rule="evenodd" /><g clip-path="url(#105)"></g><g clip-path="url(#106)"></g><g clip-path="url(#107)"></g><path transform="matrix(1 0 0 -1 0 841)" d="M89.904 167.78L505.534 167.78L505.534 167.78L505.534 186.884L505.534 186.884L89.904 186.884z" stroke="none" fill="#DAEEF3" fill-rule="evenodd" /><g clip-path="url(#108)"></g><g clip-path="url(#109)"></g><g clip-path="url(#110)"></g><path transform="matrix(1 0 0 -1 0 841)" d="M89.904 148.7L505.534 148.7L505.534 148.7L505.534 167.78L505.534 167.78L89.904 167.78z" stroke="none" fill="#DAEEF3" fill-rule="evenodd" /><g clip-path="url(#111)"></g><g clip-path="url(#112)"></g><g clip-path="url(#113)"></g><path transform="matrix(1 0 0 -1 0 841)" d="M89.904 129.62L505.534 129.62L505.534 129.62L505.534 148.7L505.534 148.7L89.904 148.7z" stroke="none" fill="#DAEEF3" fill-rule="evenodd" /><g clip-path="url(#114)"></g><g clip-path="url(#115)"></g><path transform="matrix(1 0 0 -1 0 841)" d="M89.904 110.66L505.534 110.66L505.534 110.66L505.534 129.62L505.534 129.62L89.904 129.62z" stroke="none" fill="#DAEEF3" fill-rule="evenodd" /><g clip-path="url(#116)"></g><path transform="matrix(1 0 0 -1 0 841)" d="M89.904 91.584L505.534 91.584L505.534 91.584L505.534 110.664L505.534 110.664L89.904 110.664z" stroke="none" fill="#DAEEF3" fill-rule="evenodd" /><g clip-path="url(#117)"></g><g clip-path="url(#118)"></g></g><path transform="matrix(1 0 0 -1 0 841)" d="M84.264 625.06L84.744 625.06L84.744 625.06L84.744 625.54L84.744 625.54L84.264 625.54z" stroke="none" fill="#000000" fill-rule="evenodd" /><path transform="matrix(1 0 0 -1 0 841)" d="M84.744 625.06L510.694 625.06L510.694 625.06L510.694 625.54L510.694 625.54L84.744 625.54z" stroke="none" fill="#000000" fill-rule="evenodd" /><path transform="matrix(1 0 0 -1 0 841)" d="M510.7 625.06L511.18 625.06L511.18 625.06L511.18 625.54L511.18 625.54L510.7 625.54z" stroke="none" fill="#000000" fill-rule="evenodd" /><path transform="matrix(1 0 0 -1 0 841)" d="M84.264 91.584L84.744 91.584L84.744 91.584L84.744 625.054L84.744 625.054L84.264 625.054z" stroke="none" fill="#000000" fill-rule="evenodd" /><path transform="matrix(1 0 0 -1 0 841)" d="M84.264 91.104L84.744 91.104L84.744 91.104L84.744 91.58398L84.744 91.58398L84.264 91.58398z" stroke="none" fill="#000000" fill-rule="evenodd" /><path transform="matrix(1 0 0 -1 0 841)" d="M84.264 91.104L84.744 91.104L84.744 91.104L84.744 91.58398L84.744 91.58398L84.264 91.58398z" stroke="none" fill="#000000" fill-rule="evenodd" /><path transform="matrix(1 0 0 -1 0 841)" d="M84.744 91.104L510.694 91.104L510.694 91.104L510.694 91.58398L510.694 91.58398L84.744 91.58398z" stroke="none" fill="#000000" fill-rule="evenodd" /><path transform="matrix(1 0 0 -1 0 841)" d="M510.7 91.584L511.18 91.584L511.18 91.584L511.18 625.054L511.18 625.054L510.7 625.054z" stroke="none" fill="#000000" fill-rule="evenodd" /><path transform="matrix(1 0 0 -1 0 841)" d="M510.7 91.104L511.18 91.104L511.18 91.104L511.18 91.58398L511.18 91.58398L510.7 91.58398z" stroke="none" fill="#000000" fill-rule="evenodd" /><path transform="matrix(1 0 0 -1 0 841)" d="M510.7 91.104L511.18 91.104L511.18 91.104L511.18 91.58398L511.18 91.58398L510.7 91.58398z" stroke="none" fill="#000000" fill-rule="evenodd" /></g></g></g></svg>