<svg xmlns="http://www.w3.org/2000/svg" xmlns:xlink="http://www.w3.org/1999/xlink" id="body_231" preserveAspectRatio="xMinYMin meet" viewBox="0 0 793 1121"><defs><clipPath id="1"><path d="M0 841L0 -0.9199829L0 -0.9199829L595.32 -0.9199829L595.32 -0.9199829L595.32 841L595.32 841L0 841z" /></clipPath><clipPath id="2"><path d="M0.00125 841.0914L595.4112 841.0914L595.4112 841.0914L595.4112 -0.9186401L595.4112 -0.9186401L0.00125 -0.9186401z" /></clipPath><clipPath id="3"><path d="M288.05 781.211L316.01 781.211L316.01 781.211L316.01 762.011L316.01 762.011L288.05 762.011z" /></clipPath><clipPath id="4"><path d="M288.05 781.216L316.01 781.216L316.01 781.216L316.01 762.016L316.01 762.016L288.05 762.016z" /></clipPath><clipPath id="5"><path d="M288.05 781.216L316.01 781.216L316.01 781.216L316.01 762.016L316.01 762.016L288.05 762.016z" /></clipPath><clipPath id="6"><path d="M84.751 483.96L174.271 483.96L174.271 483.96L174.271 458.85L174.271 458.85L84.751 458.85z" /></clipPath><clipPath id="7"><path d="M84.744 483.95L174.264 483.95L174.264 483.95L174.264 458.846L174.264 458.846L84.744 458.846z" /></clipPath><clipPath id="8"><path d="M84.744 483.95L174.264 483.95L174.264 483.95L174.264 458.846L174.264 458.846L84.744 458.846z" /></clipPath><clipPath id="9"><path d="M174.75 483.96L222.405 483.96L222.405 483.96L222.405 458.85L222.405 458.85L174.75 458.85z" /></clipPath><clipPath id="10"><path d="M174.74 483.95L222.404 483.95L222.404 483.95L222.404 458.846L222.404 458.846L174.74 458.846z" /></clipPath><clipPath id="11"><path d="M174.74 483.95L222.404 483.95L222.404 483.95L222.404 458.846L222.404 458.846L174.74 458.846z" /></clipPath><clipPath id="12"><path d="M222.89 483.96L273.17 483.96L273.17 483.96L273.17 458.85L273.17 458.85L222.89 458.85z" /></clipPath><clipPath id="13"><path d="M222.89 483.95L273.17 483.95L273.17 483.95L273.17 458.846L273.17 458.846L222.89 458.846z" /></clipPath><clipPath id="14"><path d="M222.89 483.95L273.17 483.95L273.17 483.95L273.17 458.846L273.17 458.846L222.89 458.846z" /></clipPath><clipPath id="15"><path d="M273.65 483.96L351.08 483.96L351.08 483.96L351.08 458.85L351.08 458.85L273.65 458.85z" /></clipPath><clipPath id="16"><path d="M273.65 483.95L351.074 483.95L351.074 483.95L351.074 458.846L351.074 458.846L273.65 458.846z" /></clipPath><clipPath id="17"><path d="M273.65 483.95L351.074 483.95L351.074 483.95L351.074 458.846L351.074 458.846L273.65 458.846z" /></clipPath><clipPath id="18"><path d="M351.56 483.96L499.42 483.96L499.42 483.96L499.42 458.85L499.42 458.85L351.56 458.85z" /></clipPath><clipPath id="19"><path d="M351.55 483.95L499.41 483.95L499.41 483.95L499.41 458.846L499.41 458.846L351.55 458.846z" /></clipPath><clipPath id="20"><path d="M351.55 483.95L499.41 483.95L499.41 483.95L499.41 458.846L499.41 458.846L351.55 458.846z" /></clipPath><clipPath id="21"><path d="M84.751 509.52L174.271 509.52L174.271 509.52L174.271 484.44L174.271 484.44L84.751 484.44z" /></clipPath><clipPath id="22"><path d="M84.744 509.51L174.264 509.51L174.264 509.51L174.264 484.43L174.264 484.43L84.744 484.43z" /></clipPath><clipPath id="23"><path d="M84.744 509.51L174.264 509.51L174.264 509.51L174.264 484.43L174.264 484.43L84.744 484.43z" /></clipPath><clipPath id="24"><path d="M174.75 509.52L222.405 509.52L222.405 509.52L222.405 484.44L222.405 484.44L174.75 484.44z" /></clipPath><clipPath id="25"><path d="M174.74 509.51L222.404 509.51L222.404 509.51L222.404 484.43L222.404 484.43L174.74 484.43z" /></clipPath><clipPath id="26"><path d="M174.74 509.51L222.404 509.51L222.404 509.51L222.404 484.43L222.404 484.43L174.74 484.43z" /></clipPath><clipPath id="27"><path d="M222.89 509.52L273.17 509.52L273.17 509.52L273.17 484.44L273.17 484.44L222.89 484.44z" /></clipPath><clipPath id="28"><path d="M222.89 509.51L273.17 509.51L273.17 509.51L273.17 484.43L273.17 484.43L222.89 484.43z" /></clipPath><clipPath id="29"><path d="M222.89 509.51L273.17 509.51L273.17 509.51L273.17 484.43L273.17 484.43L222.89 484.43z" /></clipPath><clipPath id="30"><path d="M273.65 509.52L351.08 509.52L351.08 509.52L351.08 484.44L351.08 484.44L273.65 484.44z" /></clipPath><clipPath id="31"><path d="M273.65 509.51L351.074 509.51L351.074 509.51L351.074 484.43L351.074 484.43L273.65 484.43z" /></clipPath><clipPath id="32"><path d="M273.65 509.51L351.074 509.51L351.074 509.51L351.074 484.43L351.074 484.43L273.65 484.43z" /></clipPath><clipPath id="33"><path d="M351.56 509.52L499.42 509.52L499.42 509.52L499.42 484.44L499.42 484.44L351.56 484.44z" /></clipPath><clipPath id="34"><path d="M351.55 509.51L499.41 509.51L499.41 509.51L499.41 484.43L499.41 484.43L351.55 484.43z" /></clipPath><clipPath id="35"><path d="M351.55 509.51L499.41 509.51L499.41 509.51L499.41 484.43L499.41 484.43L351.55 484.43z" /></clipPath><clipPath id="36"><path d="M84.751 549.72L174.271 549.72L174.271 549.72L174.271 510L174.271 510L84.751 510z" /></clipPath><clipPath id="37"><path d="M84.744 549.71L174.264 549.71L174.264 549.71L174.264 509.99L174.264 509.99L84.744 509.99z" /></clipPath><clipPath id="38"><path d="M84.744 549.71L174.264 549.71L174.264 549.71L174.264 509.99L174.264 509.99L84.744 509.99z" /></clipPath><clipPath id="39"><path d="M174.75 549.72L222.405 549.72L222.405 549.72L222.405 510L222.405 510L174.75 510z" /></clipPath><clipPath id="40"><path d="M174.74 549.71L222.404 549.71L222.404 549.71L222.404 509.99L222.404 509.99L174.74 509.99z" /></clipPath><clipPath id="41"><path d="M174.74 549.71L222.404 549.71L222.404 549.71L222.404 509.99L222.404 509.99L174.74 509.99z" /></clipPath><clipPath id="42"><path d="M222.89 549.72L273.17 549.72L273.17 549.72L273.17 510L273.17 510L222.89 510z" /></clipPath><clipPath id="43"><path d="M222.89 549.71L273.17 549.71L273.17 549.71L273.17 509.99L273.17 509.99L222.89 509.99z" /></clipPath><clipPath id="44"><path d="M222.89 549.71L273.17 549.71L273.17 549.71L273.17 509.99L273.17 509.99L222.89 509.99z" /></clipPath><clipPath id="45"><path d="M273.65 549.72L351.08 549.72L351.08 549.72L351.08 510L351.08 510L273.65 510z" /></clipPath><clipPath id="46"><path d="M273.65 549.71L351.074 549.71L351.074 549.71L351.074 509.99L351.074 509.99L273.65 509.99z" /></clipPath><clipPath id="47"><path d="M273.65 549.71L351.074 549.71L351.074 549.71L351.074 509.99L351.074 509.99L273.65 509.99z" /></clipPath><clipPath id="48"><path d="M273.65 549.71L351.074 549.71L351.074 549.71L351.074 509.99L351.074 509.99L273.65 509.99z" /></clipPath><clipPath id="49"><path d="M273.65 549.71L351.074 549.71L351.074 549.71L351.074 509.99L351.074 509.99L273.65 509.99z" /></clipPath><clipPath id="50"><path d="M273.65 549.71L351.074 549.71L351.074 549.71L351.074 509.99L351.074 509.99L273.65 509.99z" /></clipPath><clipPath id="51"><path d="M273.65 549.71L351.074 549.71L351.074 549.71L351.074 509.99L351.074 509.99L273.65 509.99z" /></clipPath><clipPath id="52"><path d="M273.65 549.71L351.074 549.71L351.074 549.71L351.074 509.99L351.074 509.99L273.65 509.99z" /></clipPath><clipPath id="53"><path d="M273.65 549.71L351.074 549.71L351.074 549.71L351.074 509.99L351.074 509.99L273.65 509.99z" /></clipPath><clipPath id="54"><path d="M351.56 549.72L499.42 549.72L499.42 549.72L499.42 510L499.42 510L351.56 510z" /></clipPath><clipPath id="55"><path d="M351.55 549.71L499.41 549.71L499.41 549.71L499.41 509.99L499.41 509.99L351.55 509.99z" /></clipPath><clipPath id="56"><path d="M351.55 549.71L499.41 549.71L499.41 549.71L499.41 509.99L499.41 509.99L351.55 509.99z" /></clipPath><clipPath id="57"><path d="M351.55 549.71L499.41 549.71L499.41 549.71L499.41 509.99L499.41 509.99L351.55 509.99z" /></clipPath><clipPath id="58"><path d="M351.55 549.71L499.41 549.71L499.41 549.71L499.41 509.99L499.41 509.99L351.55 509.99z" /></clipPath><clipPath id="59"><path d="M351.55 549.71L499.41 549.71L499.41 549.71L499.41 509.99L499.41 509.99L351.55 509.99z" /></clipPath><clipPath id="60"><path d="M351.55 549.71L499.41 549.71L499.41 549.71L499.41 509.99L499.41 509.99L351.55 509.99z" /></clipPath><clipPath id="61"><path d="M351.55 549.71L499.41 549.71L499.41 549.71L499.41 509.99L499.41 509.99L351.55 509.99z" /></clipPath><clipPath id="62"><path d="M351.55 549.71L499.41 549.71L499.41 549.71L499.41 509.99L499.41 509.99L351.55 509.99z" /></clipPath><clipPath id="63"><path d="M351.55 549.71L499.41 549.71L499.41 549.71L499.41 509.99L499.41 509.99L351.55 509.99z" /></clipPath><clipPath id="64"><path d="M84.751 589.92L174.271 589.92L174.271 589.92L174.271 550.2L174.271 550.2L84.751 550.2z" /></clipPath><clipPath id="65"><path d="M84.744 589.91L174.264 589.91L174.264 589.91L174.264 550.19L174.264 550.19L84.744 550.19z" /></clipPath><clipPath id="66"><path d="M84.744 589.91L174.264 589.91L174.264 589.91L174.264 550.19L174.264 550.19L84.744 550.19z" /></clipPath><clipPath id="67"><path d="M174.75 589.92L222.405 589.92L222.405 589.92L222.405 550.2L222.405 550.2L174.75 550.2z" /></clipPath><clipPath id="68"><path d="M174.74 589.91L222.404 589.91L222.404 589.91L222.404 550.19L222.404 550.19L174.74 550.19z" /></clipPath><clipPath id="69"><path d="M174.74 589.91L222.404 589.91L222.404 589.91L222.404 550.19L222.404 550.19L174.74 550.19z" /></clipPath><clipPath id="70"><path d="M222.89 589.92L273.17 589.92L273.17 589.92L273.17 550.2L273.17 550.2L222.89 550.2z" /></clipPath><clipPath id="71"><path d="M222.89 589.91L273.17 589.91L273.17 589.91L273.17 550.19L273.17 550.19L222.89 550.19z" /></clipPath><clipPath id="72"><path d="M222.89 589.91L273.17 589.91L273.17 589.91L273.17 550.19L273.17 550.19L222.89 550.19z" /></clipPath><clipPath id="73"><path d="M273.65 589.92L351.08 589.92L351.08 589.92L351.08 550.2L351.08 550.2L273.65 550.2z" /></clipPath><clipPath id="74"><path d="M273.65 589.91L351.074 589.91L351.074 589.91L351.074 550.19L351.074 550.19L273.65 550.19z" /></clipPath><clipPath id="75"><path d="M273.65 589.91L351.074 589.91L351.074 589.91L351.074 550.19L351.074 550.19L273.65 550.19z" /></clipPath><clipPath id="76"><path d="M273.65 589.91L351.074 589.91L351.074 589.91L351.074 550.19L351.074 550.19L273.65 550.19z" /></clipPath><clipPath id="77"><path d="M273.65 589.91L351.074 589.91L351.074 589.91L351.074 550.19L351.074 550.19L273.65 550.19z" /></clipPath><clipPath id="78"><path d="M273.65 589.91L351.074 589.91L351.074 589.91L351.074 550.19L351.074 550.19L273.65 550.19z" /></clipPath><clipPath id="79"><path d="M273.65 589.91L351.074 589.91L351.074 589.91L351.074 550.19L351.074 550.19L273.65 550.19z" /></clipPath><clipPath id="80"><path d="M273.65 589.91L351.074 589.91L351.074 589.91L351.074 550.19L351.074 550.19L273.65 550.19z" /></clipPath><clipPath id="81"><path d="M351.56 589.92L499.42 589.92L499.42 589.92L499.42 550.2L499.42 550.2L351.56 550.2z" /></clipPath><clipPath id="82"><path d="M351.55 589.91L499.41 589.91L499.41 589.91L499.41 550.19L499.41 550.19L351.55 550.19z" /></clipPath><clipPath id="83"><path d="M351.55 589.91L499.41 589.91L499.41 589.91L499.41 550.19L499.41 550.19L351.55 550.19z" /></clipPath><clipPath id="84"><path d="M351.55 589.91L499.41 589.91L499.41 589.91L499.41 550.19L499.41 550.19L351.55 550.19z" /></clipPath><clipPath id="85"><path d="M351.55 589.91L499.41 589.91L499.41 589.91L499.41 550.19L499.41 550.19L351.55 550.19z" /></clipPath><clipPath id="86"><path d="M351.55 589.91L499.41 589.91L499.41 589.91L499.41 550.19L499.41 550.19L351.55 550.19z" /></clipPath><clipPath id="87"><path d="M351.55 589.91L499.41 589.91L499.41 589.91L499.41 550.19L499.41 550.19L351.55 550.19z" /></clipPath><clipPath id="88"><path d="M351.55 589.91L499.41 589.91L499.41 589.91L499.41 550.19L499.41 550.19L351.55 550.19z" /></clipPath><clipPath id="89"><path d="M351.55 589.91L499.41 589.91L499.41 589.91L499.41 550.19L499.41 550.19L351.55 550.19z" /></clipPath><clipPath id="90"><path d="M351.55 589.91L499.41 589.91L499.41 589.91L499.41 550.19L499.41 550.19L351.55 550.19z" /></clipPath><clipPath id="91"><path d="M84.751 615.48L174.271 615.48L174.271 615.48L174.271 590.4L174.271 590.4L84.751 590.4z" /></clipPath><clipPath id="92"><path d="M84.744 615.47L174.264 615.47L174.264 615.47L174.264 590.39L174.264 590.39L84.744 590.39z" /></clipPath><clipPath id="93"><path d="M84.744 615.47L174.264 615.47L174.264 615.47L174.264 590.39L174.264 590.39L84.744 590.39z" /></clipPath><clipPath id="94"><path d="M174.75 615.48L222.405 615.48L222.405 615.48L222.405 590.4L222.405 590.4L174.75 590.4z" /></clipPath><clipPath id="95"><path d="M174.74 615.47L222.404 615.47L222.404 615.47L222.404 590.39L222.404 590.39L174.74 590.39z" /></clipPath><clipPath id="96"><path d="M174.74 615.47L222.404 615.47L222.404 615.47L222.404 590.39L222.404 590.39L174.74 590.39z" /></clipPath><clipPath id="97"><path d="M222.89 615.48L273.17 615.48L273.17 615.48L273.17 590.4L273.17 590.4L222.89 590.4z" /></clipPath><clipPath id="98"><path d="M222.89 615.47L273.17 615.47L273.17 615.47L273.17 590.39L273.17 590.39L222.89 590.39z" /></clipPath><clipPath id="99"><path d="M222.89 615.47L273.17 615.47L273.17 615.47L273.17 590.39L273.17 590.39L222.89 590.39z" /></clipPath><clipPath id="100"><path d="M273.65 615.48L351.08 615.48L351.08 615.48L351.08 590.4L351.08 590.4L273.65 590.4z" /></clipPath><clipPath id="101"><path d="M273.65 615.47L351.074 615.47L351.074 615.47L351.074 590.39L351.074 590.39L273.65 590.39z" /></clipPath><clipPath id="102"><path d="M273.65 615.47L351.074 615.47L351.074 615.47L351.074 590.39L351.074 590.39L273.65 590.39z" /></clipPath><clipPath id="103"><path d="M273.65 615.47L351.074 615.47L351.074 615.47L351.074 590.39L351.074 590.39L273.65 590.39z" /></clipPath><clipPath id="104"><path d="M351.56 615.48L499.42 615.48L499.42 615.48L499.42 590.4L499.42 590.4L351.56 590.4z" /></clipPath><clipPath id="105"><path d="M351.55 615.47L499.41 615.47L499.41 615.47L499.41 590.39L499.41 590.39L351.55 590.39z" /></clipPath><clipPath id="106"><path d="M351.55 615.47L499.41 615.47L499.41 615.47L499.41 590.39L499.41 590.39L351.55 590.39z" /></clipPath><clipPath id="107"><path d="M351.55 615.47L499.41 615.47L499.41 615.47L499.41 590.39L499.41 590.39L351.55 590.39z" /></clipPath><clipPath id="108"><path d="M351.55 615.47L499.41 615.47L499.41 615.47L499.41 590.39L499.41 590.39L351.55 590.39z" /></clipPath><clipPath id="109"><path d="M84.751 641.04L174.271 641.04L174.271 641.04L174.271 615.96L174.271 615.96L84.751 615.96z" /></clipPath><clipPath id="110"><path d="M84.744 641.03L174.264 641.03L174.264 641.03L174.264 615.95L174.264 615.95L84.744 615.95z" /></clipPath><clipPath id="111"><path d="M84.744 641.03L174.264 641.03L174.264 641.03L174.264 615.95L174.264 615.95L84.744 615.95z" /></clipPath><clipPath id="112"><path d="M174.75 641.04L222.405 641.04L222.405 641.04L222.405 615.96L222.405 615.96L174.75 615.96z" /></clipPath><clipPath id="113"><path d="M174.74 641.03L222.404 641.03L222.404 641.03L222.404 615.95L222.404 615.95L174.74 615.95z" /></clipPath><clipPath id="114"><path d="M174.74 641.03L222.404 641.03L222.404 641.03L222.404 615.95L222.404 615.95L174.74 615.95z" /></clipPath><clipPath id="115"><path d="M222.89 641.04L273.17 641.04L273.17 641.04L273.17 615.96L273.17 615.96L222.89 615.96z" /></clipPath><clipPath id="116"><path d="M222.89 641.03L273.17 641.03L273.17 641.03L273.17 615.95L273.17 615.95L222.89 615.95z" /></clipPath><clipPath id="117"><path d="M222.89 641.03L273.17 641.03L273.17 641.03L273.17 615.95L273.17 615.95L222.89 615.95z" /></clipPath><clipPath id="118"><path d="M273.65 641.04L351.08 641.04L351.08 641.04L351.08 615.96L351.08 615.96L273.65 615.96z" /></clipPath><clipPath id="119"><path d="M273.65 641.03L351.074 641.03L351.074 641.03L351.074 615.95L351.074 615.95L273.65 615.95z" /></clipPath><clipPath id="120"><path d="M273.65 641.03L351.074 641.03L351.074 641.03L351.074 615.95L351.074 615.95L273.65 615.95z" /></clipPath><clipPath id="121"><path d="M351.56 641.04L499.42 641.04L499.42 641.04L499.42 615.96L499.42 615.96L351.56 615.96z" /></clipPath><clipPath id="122"><path d="M351.55 641.03L499.41 641.03L499.41 641.03L499.41 615.95L499.41 615.95L351.55 615.95z" /></clipPath><clipPath id="123"><path d="M351.55 641.03L499.41 641.03L499.41 641.03L499.41 615.95L499.41 615.95L351.55 615.95z" /></clipPath><clipPath id="124"><path d="M351.55 641.03L499.41 641.03L499.41 641.03L499.41 615.95L499.41 615.95L351.55 615.95z" /></clipPath><clipPath id="125"><path d="M351.55 641.03L499.41 641.03L499.41 641.03L499.41 615.95L499.41 615.95L351.55 615.95z" /></clipPath><clipPath id="126"><path d="M351.55 641.03L499.41 641.03L499.41 641.03L499.41 615.95L499.41 615.95L351.55 615.95z" /></clipPath><clipPath id="127"><path d="M351.55 641.03L499.41 641.03L499.41 641.03L499.41 615.95L499.41 615.95L351.55 615.95z" /></clipPath><clipPath id="128"><path d="M84.751 684.73L174.271 684.73L174.271 684.73L174.271 641.515L174.271 641.515L84.751 641.515z" /></clipPath><clipPath id="129"><path d="M84.744 684.74L174.264 684.74L174.264 684.74L174.264 641.516L174.264 641.516L84.744 641.516z" /></clipPath><clipPath id="130"><path d="M84.744 684.74L174.264 684.74L174.264 684.74L174.264 641.516L174.264 641.516L84.744 641.516z" /></clipPath><clipPath id="131"><path d="M174.75 684.73L222.405 684.73L222.405 684.73L222.405 641.515L222.405 641.515L174.75 641.515z" /></clipPath><clipPath id="132"><path d="M174.74 684.74L222.404 684.74L222.404 684.74L222.404 641.516L222.404 641.516L174.74 641.516z" /></clipPath><clipPath id="133"><path d="M174.74 684.74L222.404 684.74L222.404 684.74L222.404 641.516L222.404 641.516L174.74 641.516z" /></clipPath><clipPath id="134"><path d="M222.89 684.73L273.17 684.73L273.17 684.73L273.17 641.515L273.17 641.515L222.89 641.515z" /></clipPath><clipPath id="135"><path d="M222.89 684.74L273.17 684.74L273.17 684.74L273.17 641.516L273.17 641.516L222.89 641.516z" /></clipPath><clipPath id="136"><path d="M222.89 684.74L273.17 684.74L273.17 684.74L273.17 641.516L273.17 641.516L222.89 641.516z" /></clipPath><clipPath id="137"><path d="M273.65 684.73L351.08 684.73L351.08 684.73L351.08 641.515L351.08 641.515L273.65 641.515z" /></clipPath><clipPath id="138"><path d="M273.65 684.74L351.074 684.74L351.074 684.74L351.074 641.516L351.074 641.516L273.65 641.516z" /></clipPath><clipPath id="139"><path d="M351.56 684.73L499.42 684.73L499.42 684.73L499.42 641.515L499.42 641.515L351.56 641.515z" /></clipPath><clipPath id="140"><path d="M351.55 684.74L499.41 684.74L499.41 684.74L499.41 641.516L499.41 641.516L351.55 641.516z" /></clipPath><clipPath id="141"><path d="M351.55 684.74L499.41 684.74L499.41 684.74L499.41 641.516L499.41 641.516L351.55 641.516z" /></clipPath><clipPath id="142"><path d="M351.55 684.74L499.41 684.74L499.41 684.74L499.41 641.516L499.41 641.516L351.55 641.516z" /></clipPath><clipPath id="143"><path d="M351.55 684.74L499.41 684.74L499.41 684.74L499.41 641.516L499.41 641.516L351.55 641.516z" /></clipPath><clipPath id="144"><path d="M84.751 741.371L174.271 741.371L174.271 741.371L174.271 685.331L174.271 685.331L84.751 685.331z" /></clipPath><clipPath id="145"><path d="M84.744 741.376L174.264 741.376L174.264 741.376L174.264 685.336L174.264 685.336L84.744 685.336z" /></clipPath><clipPath id="146"><path d="M84.744 741.376L174.264 741.376L174.264 741.376L174.264 685.336L174.264 685.336L84.744 685.336z" /></clipPath><clipPath id="147"><path d="M174.75 741.371L222.405 741.371L222.405 741.371L222.405 685.331L222.405 685.331L174.75 685.331z" /></clipPath><clipPath id="148"><path d="M174.74 741.376L222.404 741.376L222.404 741.376L222.404 685.336L222.404 685.336L174.74 685.336z" /></clipPath><clipPath id="149"><path d="M174.74 741.376L222.404 741.376L222.404 741.376L222.404 685.336L222.404 685.336L174.74 685.336z" /></clipPath><clipPath id="150"><path d="M222.89 741.371L273.17 741.371L273.17 741.371L273.17 685.331L273.17 685.331L222.89 685.331z" /></clipPath><clipPath id="151"><path d="M222.89 741.376L273.17 741.376L273.17 741.376L273.17 685.336L273.17 685.336L222.89 685.336z" /></clipPath><clipPath id="152"><path d="M222.89 741.376L273.17 741.376L273.17 741.376L273.17 685.336L273.17 685.336L222.89 685.336z" /></clipPath><clipPath id="153"><path d="M222.89 741.376L273.17 741.376L273.17 741.376L273.17 685.336L273.17 685.336L222.89 685.336z" /></clipPath><clipPath id="154"><path d="M273.65 741.371L351.08 741.371L351.08 741.371L351.08 685.331L351.08 685.331L273.65 685.331z" /></clipPath><clipPath id="155"><path d="M273.65 741.376L351.074 741.376L351.074 741.376L351.074 685.336L351.074 685.336L273.65 685.336z" /></clipPath><clipPath id="156"><path d="M351.56 741.371L499.42 741.371L499.42 741.371L499.42 685.331L499.42 685.331L351.56 685.331z" /></clipPath><clipPath id="157"><path d="M351.55 741.376L499.41 741.376L499.41 741.376L499.41 685.336L499.41 685.336L351.55 685.336z" /></clipPath><clipPath id="158"><path d="M351.55 741.376L499.41 741.376L499.41 741.376L499.41 685.336L499.41 685.336L351.55 685.336z" /></clipPath><clipPath id="159"><path d="M351.55 741.376L499.41 741.376L499.41 741.376L499.41 685.336L499.41 685.336L351.55 685.336z" /></clipPath><clipPath id="160"><path d="M351.55 741.376L499.41 741.376L499.41 741.376L499.41 685.336L499.41 685.336L351.55 685.336z" /></clipPath><clipPath id="161"><path d="M351.55 741.376L499.41 741.376L499.41 741.376L499.41 685.336L499.41 685.336L351.55 685.336z" /></clipPath><clipPath id="162"><path d="M351.55 741.376L499.41 741.376L499.41 741.376L499.41 685.336L499.41 685.336L351.55 685.336z" /></clipPath><clipPath id="163"><path d="M351.55 741.376L499.41 741.376L499.41 741.376L499.41 685.336L499.41 685.336L351.55 685.336z" /></clipPath><clipPath id="164"><path d="M351.55 741.376L499.41 741.376L499.41 741.376L499.41 685.336L499.41 685.336L351.55 685.336z" /></clipPath><clipPath id="165"><path d="M351.55 741.376L499.41 741.376L499.41 741.376L499.41 685.336L499.41 685.336L351.55 685.336z" /></clipPath><clipPath id="166"><path d="M351.55 741.376L499.41 741.376L499.41 741.376L499.41 685.336L499.41 685.336L351.55 685.336z" /></clipPath><clipPath id="167"><path d="M351.55 741.376L499.41 741.376L499.41 741.376L499.41 685.336L499.41 685.336L351.55 685.336z" /></clipPath><clipPath id="168"><path d="M351.55 741.376L499.41 741.376L499.41 741.376L499.41 685.336L499.41 685.336L351.55 685.336z" /></clipPath></defs><g transform="matrix(1.333333 0 0 1.333333 0 0)"><g><g clip-path="url(#1)"><path transform="matrix(1 0 0 -1 0 841)" d="M457.51 53.304L505.534 53.304L505.534 53.304L505.534 53.90404L505.534 53.90404L457.51 53.90404z" stroke="none" fill="#000000" fill-rule="evenodd" /><g clip-path="url(#2)"><path transform="matrix(1 0 0 -1 0 841)" d="M88.464 77.904L506.974 77.904L506.974 77.904L506.974 80.904L506.974 80.904L88.464 80.904z" stroke="none" fill="#000000" fill-rule="evenodd" /><path transform="matrix(1 0 0 -1 0 841)" d="M88.464 76.464L506.974 76.464L506.974 76.464L506.974 77.18397L506.974 77.18397L88.464 77.18397z" stroke="none" fill="#000000" fill-rule="evenodd" /></g><g clip-path="url(#3)"><g clip-path="url(#4)"></g><g clip-path="url(#5)"></g></g><path transform="matrix(1 0 0 -1 0 841)" d="M84.744 357.05L174.264 357.05L174.264 357.05L174.264 382.154L174.264 382.154L84.744 382.154z" stroke="none" fill="#0070C0" fill-rule="evenodd" /><g clip-path="url(#6)"><path transform="matrix(1 0 0 -1 0 841)" d="M89.904 357.05L169.104 357.05L169.104 357.05L169.104 382.154L169.104 382.154L89.904 382.154z" stroke="none" fill="#0070C0" fill-rule="evenodd" /><g clip-path="url(#7)"></g><g clip-path="url(#8)"></g></g><path transform="matrix(1 0 0 -1 0 841)" d="M174.74 357.05L222.404 357.05L222.404 357.05L222.404 382.154L222.404 382.154L174.74 382.154z" stroke="none" fill="#0070C0" fill-rule="evenodd" /><g clip-path="url(#9)"><path transform="matrix(1 0 0 -1 0 841)" d="M179.9 357.05L217.244 357.05L217.244 357.05L217.244 382.154L217.244 382.154L179.9 382.154z" stroke="none" fill="#0070C0" fill-rule="evenodd" /><g clip-path="url(#10)"></g><g clip-path="url(#11)"></g></g><path transform="matrix(1 0 0 -1 0 841)" d="M222.89 357.05L273.17 357.05L273.17 357.05L273.17 382.154L273.17 382.154L222.89 382.154z" stroke="none" fill="#0070C0" fill-rule="evenodd" /><g clip-path="url(#12)"><path transform="matrix(1 0 0 -1 0 841)" d="M228.05 357.05L268.01 357.05L268.01 357.05L268.01 382.154L268.01 382.154L228.05 382.154z" stroke="none" fill="#0070C0" fill-rule="evenodd" /><g clip-path="url(#13)"></g><g clip-path="url(#14)"></g></g><path transform="matrix(1 0 0 -1 0 841)" d="M273.65 357.05L351.074 357.05L351.074 357.05L351.074 382.154L351.074 382.154L273.65 382.154z" stroke="none" fill="#0070C0" fill-rule="evenodd" /><g clip-path="url(#15)"><path transform="matrix(1 0 0 -1 0 841)" d="M278.81 357.05L345.914 357.05L345.914 357.05L345.914 382.154L345.914 382.154L278.81 382.154z" stroke="none" fill="#0070C0" fill-rule="evenodd" /><g clip-path="url(#16)"></g><g clip-path="url(#17)"></g></g><path transform="matrix(1 0 0 -1 0 841)" d="M351.55 357.05L499.41 357.05L499.41 357.05L499.41 382.154L499.41 382.154L351.55 382.154z" stroke="none" fill="#0070C0" fill-rule="evenodd" /><g clip-path="url(#18)"><path transform="matrix(1 0 0 -1 0 841)" d="M356.71 357.05L494.25 357.05L494.25 357.05L494.25 382.154L494.25 382.154L356.71 382.154z" stroke="none" fill="#0070C0" fill-rule="evenodd" /><g clip-path="url(#19)"></g><g clip-path="url(#20)"></g></g><path transform="matrix(1 0 0 -1 0 841)" d="M84.264 382.15L84.744 382.15L84.744 382.15L84.744 382.63L84.744 382.63L84.264 382.63z" stroke="none" fill="#000000" fill-rule="evenodd" /><path transform="matrix(1 0 0 -1 0 841)" d="M84.264 382.15L84.744 382.15L84.744 382.15L84.744 382.63L84.744 382.63L84.264 382.63z" stroke="none" fill="#000000" fill-rule="evenodd" /><path transform="matrix(1 0 0 -1 0 841)" d="M84.744 382.15L174.264 382.15L174.264 382.15L174.264 382.63L174.264 382.63L84.744 382.63z" stroke="none" fill="#000000" fill-rule="evenodd" /><path transform="matrix(1 0 0 -1 0 841)" d="M174.26 382.15L174.74 382.15L174.74 382.15L174.74 382.63L174.74 382.63L174.26 382.63z" stroke="none" fill="#000000" fill-rule="evenodd" /><path transform="matrix(1 0 0 -1 0 841)" d="M174.74 382.15L222.404 382.15L222.404 382.15L222.404 382.63L222.404 382.63L174.74 382.63z" stroke="none" fill="#000000" fill-rule="evenodd" /><path transform="matrix(1 0 0 -1 0 841)" d="M222.41 382.15L222.89 382.15L222.89 382.15L222.89 382.63L222.89 382.63L222.41 382.63z" stroke="none" fill="#000000" fill-rule="evenodd" /><path transform="matrix(1 0 0 -1 0 841)" d="M222.89 382.15L273.29 382.15L273.29 382.15L273.29 382.63L273.29 382.63L222.89 382.63z" stroke="none" fill="#000000" fill-rule="evenodd" /><path transform="matrix(1 0 0 -1 0 841)" d="M273.29 382.15L273.77 382.15L273.77 382.15L273.77 382.63L273.77 382.63L273.29 382.63z" stroke="none" fill="#000000" fill-rule="evenodd" /><path transform="matrix(1 0 0 -1 0 841)" d="M273.77 382.15L351.074 382.15L351.074 382.15L351.074 382.63L351.074 382.63L273.77 382.63z" stroke="none" fill="#000000" fill-rule="evenodd" /><path transform="matrix(1 0 0 -1 0 841)" d="M351.07 382.15L351.55 382.15L351.55 382.15L351.55 382.63L351.55 382.63L351.07 382.63z" stroke="none" fill="#000000" fill-rule="evenodd" /><path transform="matrix(1 0 0 -1 0 841)" d="M351.55 382.15L499.41 382.15L499.41 382.15L499.41 382.63L499.41 382.63L351.55 382.63z" stroke="none" fill="#000000" fill-rule="evenodd" /><path transform="matrix(1 0 0 -1 0 841)" d="M499.42 382.15L499.9 382.15L499.9 382.15L499.9 382.63L499.9 382.63L499.42 382.63z" stroke="none" fill="#000000" fill-rule="evenodd" /><path transform="matrix(1 0 0 -1 0 841)" d="M499.42 382.15L499.9 382.15L499.9 382.15L499.9 382.63L499.9 382.63L499.42 382.63z" stroke="none" fill="#000000" fill-rule="evenodd" /><path transform="matrix(1 0 0 -1 0 841)" d="M84.264 357.05L84.744 357.05L84.744 357.05L84.744 382.154L84.744 382.154L84.264 382.154z" stroke="none" fill="#000000" fill-rule="evenodd" /><path transform="matrix(1 0 0 -1 0 841)" d="M174.26 357.05L174.74 357.05L174.74 357.05L174.74 382.154L174.74 382.154L174.26 382.154z" stroke="none" fill="#000000" fill-rule="evenodd" /><path transform="matrix(1 0 0 -1 0 841)" d="M222.41 357.05L222.89 357.05L222.89 357.05L222.89 382.154L222.89 382.154L222.41 382.154z" stroke="none" fill="#000000" fill-rule="evenodd" /><path transform="matrix(1 0 0 -1 0 841)" d="M273.29 357.05L273.77 357.05L273.77 357.05L273.77 382.154L273.77 382.154L273.29 382.154z" stroke="none" fill="#000000" fill-rule="evenodd" /><path transform="matrix(1 0 0 -1 0 841)" d="M351.07 357.05L351.55 357.05L351.55 357.05L351.55 382.154L351.55 382.154L351.07 382.154z" stroke="none" fill="#000000" fill-rule="evenodd" /><path transform="matrix(1 0 0 -1 0 841)" d="M499.42 357.05L499.9 357.05L499.9 357.05L499.9 382.154L499.9 382.154L499.42 382.154z" stroke="none" fill="#000000" fill-rule="evenodd" /><path transform="matrix(1 0 0 -1 0 841)" d="M84.744 331.49L174.264 331.49L174.264 331.49L174.264 356.57L174.264 356.57L84.744 356.57z" stroke="none" fill="#DAEEF3" fill-rule="evenodd" /><g clip-path="url(#21)"><path transform="matrix(1 0 0 -1 0 841)" d="M89.904 332.45L169.104 332.45L169.104 332.45L169.104 356.57L169.104 356.57L89.904 356.57z" stroke="none" fill="#DAEEF3" fill-rule="evenodd" /><g clip-path="url(#22)"></g><g clip-path="url(#23)"></g></g><path transform="matrix(1 0 0 -1 0 841)" d="M174.74 331.49L222.404 331.49L222.404 331.49L222.404 356.57L222.404 356.57L174.74 356.57z" stroke="none" fill="#DAEEF3" fill-rule="evenodd" /><g clip-path="url(#24)"><path transform="matrix(1 0 0 -1 0 841)" d="M179.9 332.45L217.244 332.45L217.244 332.45L217.244 356.57L217.244 356.57L179.9 356.57z" stroke="none" fill="#DAEEF3" fill-rule="evenodd" /><g clip-path="url(#25)"></g><g clip-path="url(#26)"></g></g><path transform="matrix(1 0 0 -1 0 841)" d="M222.89 331.49L273.17 331.49L273.17 331.49L273.17 356.57L273.17 356.57L222.89 356.57z" stroke="none" fill="#DAEEF3" fill-rule="evenodd" /><g clip-path="url(#27)"><path transform="matrix(1 0 0 -1 0 841)" d="M228.05 331.49L268.01 331.49L268.01 331.49L268.01 356.57L268.01 356.57L228.05 356.57z" stroke="none" fill="#DAEEF3" fill-rule="evenodd" /><g clip-path="url(#28)"></g><g clip-path="url(#29)"></g></g><path transform="matrix(1 0 0 -1 0 841)" d="M273.65 331.49L351.074 331.49L351.074 331.49L351.074 356.57L351.074 356.57L273.65 356.57z" stroke="none" fill="#DAEEF3" fill-rule="evenodd" /><g clip-path="url(#30)"><path transform="matrix(1 0 0 -1 0 841)" d="M278.81 332.45L345.914 332.45L345.914 332.45L345.914 356.57L345.914 356.57L278.81 356.57z" stroke="none" fill="#DAEEF3" fill-rule="evenodd" /><g clip-path="url(#31)"></g><g clip-path="url(#32)"></g></g><path transform="matrix(1 0 0 -1 0 841)" d="M351.55 331.49L499.41 331.49L499.41 331.49L499.41 356.57L499.41 356.57L351.55 356.57z" stroke="none" fill="#DAEEF3" fill-rule="evenodd" /><g clip-path="url(#33)"><path transform="matrix(1 0 0 -1 0 841)" d="M356.71 331.49L494.25 331.49L494.25 331.49L494.25 356.57L494.25 356.57L356.71 356.57z" stroke="none" fill="#DAEEF3" fill-rule="evenodd" /><g clip-path="url(#34)"></g><g clip-path="url(#35)"></g></g><path transform="matrix(1 0 0 -1 0 841)" d="M84.264 356.57L84.744 356.57L84.744 356.57L84.744 357.05L84.744 357.05L84.264 357.05z" stroke="none" fill="#000000" fill-rule="evenodd" /><path transform="matrix(1 0 0 -1 0 841)" d="M84.744 356.57L174.264 356.57L174.264 356.57L174.264 357.05L174.264 357.05L84.744 357.05z" stroke="none" fill="#000000" fill-rule="evenodd" /><path transform="matrix(1 0 0 -1 0 841)" d="M174.26 356.57L174.74 356.57L174.74 356.57L174.74 357.05L174.74 357.05L174.26 357.05z" stroke="none" fill="#000000" fill-rule="evenodd" /><path transform="matrix(1 0 0 -1 0 841)" d="M174.74 356.57L222.404 356.57L222.404 356.57L222.404 357.05L222.404 357.05L174.74 357.05z" stroke="none" fill="#000000" fill-rule="evenodd" /><path transform="matrix(1 0 0 -1 0 841)" d="M222.41 356.57L222.89 356.57L222.89 356.57L222.89 357.05L222.89 357.05L222.41 357.05z" stroke="none" fill="#000000" fill-rule="evenodd" /><path transform="matrix(1 0 0 -1 0 841)" d="M222.89 356.57L273.29 356.57L273.29 356.57L273.29 357.05L273.29 357.05L222.89 357.05z" stroke="none" fill="#000000" fill-rule="evenodd" /><path transform="matrix(1 0 0 -1 0 841)" d="M273.29 356.57L273.77 356.57L273.77 356.57L273.77 357.05L273.77 357.05L273.29 357.05z" stroke="none" fill="#000000" fill-rule="evenodd" /><path transform="matrix(1 0 0 -1 0 841)" d="M273.77 356.57L351.074 356.57L351.074 356.57L351.074 357.05L351.074 357.05L273.77 357.05z" stroke="none" fill="#000000" fill-rule="evenodd" /><path transform="matrix(1 0 0 -1 0 841)" d="M351.07 356.57L351.55 356.57L351.55 356.57L351.55 357.05L351.55 357.05L351.07 357.05z" stroke="none" fill="#000000" fill-rule="evenodd" /><path transform="matrix(1 0 0 -1 0 841)" d="M351.55 356.57L499.41 356.57L499.41 356.57L499.41 357.05L499.41 357.05L351.55 357.05z" stroke="none" fill="#000000" fill-rule="evenodd" /><path transform="matrix(1 0 0 -1 0 841)" d="M499.42 356.57L499.9 356.57L499.9 356.57L499.9 357.05L499.9 357.05L499.42 357.05z" stroke="none" fill="#000000" fill-rule="evenodd" /><path transform="matrix(1 0 0 -1 0 841)" d="M84.264 331.49L84.744 331.49L84.744 331.49L84.744 356.57L84.744 356.57L84.264 356.57z" stroke="none" fill="#000000" fill-rule="evenodd" /><path transform="matrix(1 0 0 -1 0 841)" d="M174.26 331.49L174.74 331.49L174.74 331.49L174.74 356.57L174.74 356.57L174.26 356.57z" stroke="none" fill="#000000" fill-rule="evenodd" /><path transform="matrix(1 0 0 -1 0 841)" d="M222.41 331.49L222.89 331.49L222.89 331.49L222.89 356.57L222.89 356.57L222.41 356.57z" stroke="none" fill="#000000" fill-rule="evenodd" /><path transform="matrix(1 0 0 -1 0 841)" d="M273.29 331.49L273.77 331.49L273.77 331.49L273.77 356.57L273.77 356.57L273.29 356.57z" stroke="none" fill="#000000" fill-rule="evenodd" /><path transform="matrix(1 0 0 -1 0 841)" d="M351.07 331.49L351.55 331.49L351.55 331.49L351.55 356.57L351.55 356.57L351.07 356.57z" stroke="none" fill="#000000" fill-rule="evenodd" /><path transform="matrix(1 0 0 -1 0 841)" d="M499.42 331.49L499.9 331.49L499.9 331.49L499.9 356.57L499.9 356.57L499.42 356.57z" stroke="none" fill="#000000" fill-rule="evenodd" /><g clip-path="url(#36)"><g clip-path="url(#37)"></g><g clip-path="url(#38)"></g></g><g clip-path="url(#39)"><g clip-path="url(#40)"></g><g clip-path="url(#41)"></g></g><g clip-path="url(#42)"><g clip-path="url(#43)"></g><g clip-path="url(#44)"></g></g><g clip-path="url(#45)"><g clip-path="url(#46)"></g><g clip-path="url(#47)"></g><g clip-path="url(#48)"></g><g clip-path="url(#49)"></g><g clip-path="url(#50)"></g><g clip-path="url(#51)"></g><g clip-path="url(#52)"></g><g clip-path="url(#53)"></g></g><g clip-path="url(#54)"><g clip-path="url(#55)"></g><g clip-path="url(#56)"></g><g clip-path="url(#57)"></g><g clip-path="url(#58)"></g><g clip-path="url(#59)"></g><g clip-path="url(#60)"></g><g clip-path="url(#61)"></g><g clip-path="url(#62)"></g><g clip-path="url(#63)"></g></g><path transform="matrix(1 0 0 -1 0 841)" d="M84.264 331.01L84.744 331.01L84.744 331.01L84.744 331.49L84.744 331.49L84.264 331.49z" stroke="none" fill="#000000" fill-rule="evenodd" /><path transform="matrix(1 0 0 -1 0 841)" d="M84.744 331.01L174.264 331.01L174.264 331.01L174.264 331.49L174.264 331.49L84.744 331.49z" stroke="none" fill="#000000" fill-rule="evenodd" /><path transform="matrix(1 0 0 -1 0 841)" d="M174.26 331.01L174.74 331.01L174.74 331.01L174.74 331.49L174.74 331.49L174.26 331.49z" stroke="none" fill="#000000" fill-rule="evenodd" /><path transform="matrix(1 0 0 -1 0 841)" d="M174.74 331.01L222.404 331.01L222.404 331.01L222.404 331.49L222.404 331.49L174.74 331.49z" stroke="none" fill="#000000" fill-rule="evenodd" /><path transform="matrix(1 0 0 -1 0 841)" d="M222.41 331.01L222.89 331.01L222.89 331.01L222.89 331.49L222.89 331.49L222.41 331.49z" stroke="none" fill="#000000" fill-rule="evenodd" /><path transform="matrix(1 0 0 -1 0 841)" d="M222.89 331.01L273.29 331.01L273.29 331.01L273.29 331.49L273.29 331.49L222.89 331.49z" stroke="none" fill="#000000" fill-rule="evenodd" /><path transform="matrix(1 0 0 -1 0 841)" d="M273.29 331.01L273.77 331.01L273.77 331.01L273.77 331.49L273.77 331.49L273.29 331.49z" stroke="none" fill="#000000" fill-rule="evenodd" /><path transform="matrix(1 0 0 -1 0 841)" d="M273.77 331.01L351.074 331.01L351.074 331.01L351.074 331.49L351.074 331.49L273.77 331.49z" stroke="none" fill="#000000" fill-rule="evenodd" /><path transform="matrix(1 0 0 -1 0 841)" d="M351.07 331.01L351.55 331.01L351.55 331.01L351.55 331.49L351.55 331.49L351.07 331.49z" stroke="none" fill="#000000" fill-rule="evenodd" /><path transform="matrix(1 0 0 -1 0 841)" d="M351.55 331.01L499.41 331.01L499.41 331.01L499.41 331.49L499.41 331.49L351.55 331.49z" stroke="none" fill="#000000" fill-rule="evenodd" /><path transform="matrix(1 0 0 -1 0 841)" d="M499.42 331.01L499.9 331.01L499.9 331.01L499.9 331.49L499.9 331.49L499.42 331.49z" stroke="none" fill="#000000" fill-rule="evenodd" /><path transform="matrix(1 0 0 -1 0 841)" d="M84.264 291.29L84.744 291.29L84.744 291.29L84.744 331.01L84.744 331.01L84.264 331.01z" stroke="none" fill="#000000" fill-rule="evenodd" /><path transform="matrix(1 0 0 -1 0 841)" d="M174.26 291.29L174.74 291.29L174.74 291.29L174.74 331.01L174.74 331.01L174.26 331.01z" stroke="none" fill="#000000" fill-rule="evenodd" /><path transform="matrix(1 0 0 -1 0 841)" d="M222.41 291.29L222.89 291.29L222.89 291.29L222.89 331.01L222.89 331.01L222.41 331.01z" stroke="none" fill="#000000" fill-rule="evenodd" /><path transform="matrix(1 0 0 -1 0 841)" d="M273.29 291.29L273.77 291.29L273.77 291.29L273.77 331.01L273.77 331.01L273.29 331.01z" stroke="none" fill="#000000" fill-rule="evenodd" /><path transform="matrix(1 0 0 -1 0 841)" d="M351.07 291.29L351.55 291.29L351.55 291.29L351.55 331.01L351.55 331.01L351.07 331.01z" stroke="none" fill="#000000" fill-rule="evenodd" /><path transform="matrix(1 0 0 -1 0 841)" d="M499.42 291.29L499.9 291.29L499.9 291.29L499.9 331.01L499.9 331.01L499.42 331.01z" stroke="none" fill="#000000" fill-rule="evenodd" /><path transform="matrix(1 0 0 -1 0 841)" d="M84.744 251.09L174.264 251.09L174.264 251.09L174.264 290.81L174.264 290.81L84.744 290.81z" stroke="none" fill="#DAEEF3" fill-rule="evenodd" /><g clip-path="url(#64)"><path transform="matrix(1 0 0 -1 0 841)" d="M89.904 266.57L169.104 266.57L169.104 266.57L169.104 290.81L169.104 290.81L89.904 290.81z" stroke="none" fill="#DAEEF3" fill-rule="evenodd" /><g clip-path="url(#65)"></g><g clip-path="url(#66)"></g></g><path transform="matrix(1 0 0 -1 0 841)" d="M174.74 251.09L222.404 251.09L222.404 251.09L222.404 290.81L222.404 290.81L174.74 290.81z" stroke="none" fill="#DAEEF3" fill-rule="evenodd" /><g clip-path="url(#67)"><path transform="matrix(1 0 0 -1 0 841)" d="M179.9 266.57L217.244 266.57L217.244 266.57L217.244 290.81L217.244 290.81L179.9 290.81z" stroke="none" fill="#DAEEF3" fill-rule="evenodd" /><g clip-path="url(#68)"></g><g clip-path="url(#69)"></g></g><path transform="matrix(1 0 0 -1 0 841)" d="M222.89 251.09L273.17 251.09L273.17 251.09L273.17 290.81L273.17 290.81L222.89 290.81z" stroke="none" fill="#DAEEF3" fill-rule="evenodd" /><g clip-path="url(#70)"><path transform="matrix(1 0 0 -1 0 841)" d="M228.05 265.73L268.01 265.73L268.01 265.73L268.01 290.81L268.01 290.81L228.05 290.81z" stroke="none" fill="#DAEEF3" fill-rule="evenodd" /><g clip-path="url(#71)"></g><g clip-path="url(#72)"></g></g><path transform="matrix(1 0 0 -1 0 841)" d="M273.65 251.09L351.074 251.09L351.074 251.09L351.074 290.81L351.074 290.81L273.65 290.81z" stroke="none" fill="#DAEEF3" fill-rule="evenodd" /><g clip-path="url(#73)"><path transform="matrix(1 0 0 -1 0 841)" d="M278.81 271.37L345.914 271.37L345.914 271.37L345.914 290.81L345.914 290.81L278.81 290.81z" stroke="none" fill="#DAEEF3" fill-rule="evenodd" /><g clip-path="url(#74)"></g><g clip-path="url(#75)"></g><g clip-path="url(#76)"></g><g clip-path="url(#77)"></g><g clip-path="url(#78)"></g><path transform="matrix(1 0 0 -1 0 841)" d="M278.81 251.93L345.914 251.93L345.914 251.93L345.914 271.37L345.914 271.37L278.81 271.37z" stroke="none" fill="#DAEEF3" fill-rule="evenodd" /><g clip-path="url(#79)"></g><g clip-path="url(#80)"></g></g><path transform="matrix(1 0 0 -1 0 841)" d="M351.55 251.09L499.41 251.09L499.41 251.09L499.41 290.81L499.41 290.81L351.55 290.81z" stroke="none" fill="#DAEEF3" fill-rule="evenodd" /><g clip-path="url(#81)"><path transform="matrix(1 0 0 -1 0 841)" d="M356.71 270.41L494.25 270.41L494.25 270.41L494.25 290.81L494.25 290.81L356.71 290.81z" stroke="none" fill="#DAEEF3" fill-rule="evenodd" /><g clip-path="url(#82)"></g><g clip-path="url(#83)"></g><g clip-path="url(#84)"></g><g clip-path="url(#85)"></g><g clip-path="url(#86)"></g><g clip-path="url(#87)"></g><g clip-path="url(#88)"></g><path transform="matrix(1 0 0 -1 0 841)" d="M356.71 251.09L494.25 251.09L494.25 251.09L494.25 270.41L494.25 270.41L356.71 270.41z" stroke="none" fill="#DAEEF3" fill-rule="evenodd" /><g clip-path="url(#89)"></g><g clip-path="url(#90)"></g></g><path transform="matrix(1 0 0 -1 0 841)" d="M84.264 290.81L84.744 290.81L84.744 290.81L84.744 291.29L84.744 291.29L84.264 291.29z" stroke="none" fill="#000000" fill-rule="evenodd" /><path transform="matrix(1 0 0 -1 0 841)" d="M84.744 290.81L174.264 290.81L174.264 290.81L174.264 291.29L174.264 291.29L84.744 291.29z" stroke="none" fill="#000000" fill-rule="evenodd" /><path transform="matrix(1 0 0 -1 0 841)" d="M174.26 290.81L174.74 290.81L174.74 290.81L174.74 291.29L174.74 291.29L174.26 291.29z" stroke="none" fill="#000000" fill-rule="evenodd" /><path transform="matrix(1 0 0 -1 0 841)" d="M174.74 290.81L222.404 290.81L222.404 290.81L222.404 291.29L222.404 291.29L174.74 291.29z" stroke="none" fill="#000000" fill-rule="evenodd" /><path transform="matrix(1 0 0 -1 0 841)" d="M222.41 290.81L222.89 290.81L222.89 290.81L222.89 291.29L222.89 291.29L222.41 291.29z" stroke="none" fill="#000000" fill-rule="evenodd" /><path transform="matrix(1 0 0 -1 0 841)" d="M222.89 290.81L273.29 290.81L273.29 290.81L273.29 291.29L273.29 291.29L222.89 291.29z" stroke="none" fill="#000000" fill-rule="evenodd" /><path transform="matrix(1 0 0 -1 0 841)" d="M273.29 290.81L273.77 290.81L273.77 290.81L273.77 291.29L273.77 291.29L273.29 291.29z" stroke="none" fill="#000000" fill-rule="evenodd" /><path transform="matrix(1 0 0 -1 0 841)" d="M273.77 290.81L351.074 290.81L351.074 290.81L351.074 291.29L351.074 291.29L273.77 291.29z" stroke="none" fill="#000000" fill-rule="evenodd" /><path transform="matrix(1 0 0 -1 0 841)" d="M351.07 290.81L351.55 290.81L351.55 290.81L351.55 291.29L351.55 291.29L351.07 291.29z" stroke="none" fill="#000000" fill-rule="evenodd" /><path transform="matrix(1 0 0 -1 0 841)" d="M351.55 290.81L499.41 290.81L499.41 290.81L499.41 291.29L499.41 291.29L351.55 291.29z" stroke="none" fill="#000000" fill-rule="evenodd" /><path transform="matrix(1 0 0 -1 0 841)" d="M499.42 290.81L499.9 290.81L499.9 290.81L499.9 291.29L499.9 291.29L499.42 291.29z" stroke="none" fill="#000000" fill-rule="evenodd" /><path transform="matrix(1 0 0 -1 0 841)" d="M84.264 251.09L84.744 251.09L84.744 251.09L84.744 290.81L84.744 290.81L84.264 290.81z" stroke="none" fill="#000000" fill-rule="evenodd" /><path transform="matrix(1 0 0 -1 0 841)" d="M174.26 251.09L174.74 251.09L174.74 251.09L174.74 290.81L174.74 290.81L174.26 290.81z" stroke="none" fill="#000000" fill-rule="evenodd" /><path transform="matrix(1 0 0 -1 0 841)" d="M222.41 251.09L222.89 251.09L222.89 251.09L222.89 290.81L222.89 290.81L222.41 290.81z" stroke="none" fill="#000000" fill-rule="evenodd" /><path transform="matrix(1 0 0 -1 0 841)" d="M273.29 251.09L273.77 251.09L273.77 251.09L273.77 290.81L273.77 290.81L273.29 290.81z" stroke="none" fill="#000000" fill-rule="evenodd" /><path transform="matrix(1 0 0 -1 0 841)" d="M351.07 251.09L351.55 251.09L351.55 251.09L351.55 290.81L351.55 290.81L351.07 290.81z" stroke="none" fill="#000000" fill-rule="evenodd" /><path transform="matrix(1 0 0 -1 0 841)" d="M499.42 251.09L499.9 251.09L499.9 251.09L499.9 290.81L499.9 290.81L499.42 290.81z" stroke="none" fill="#000000" fill-rule="evenodd" /><g clip-path="url(#91)"><g clip-path="url(#92)"></g><g clip-path="url(#93)"></g></g><g clip-path="url(#94)"><g clip-path="url(#95)"></g><g clip-path="url(#96)"></g></g><g clip-path="url(#97)"><g clip-path="url(#98)"></g><g clip-path="url(#99)"></g></g><g clip-path="url(#100)"><g clip-path="url(#101)"></g><g clip-path="url(#102)"></g><g clip-path="url(#103)"></g></g><g clip-path="url(#104)"><g clip-path="url(#105)"></g><g clip-path="url(#106)"></g><g clip-path="url(#107)"></g><g clip-path="url(#108)"></g></g><path transform="matrix(1 0 0 -1 0 841)" d="M84.264 250.61L84.744 250.61L84.744 250.61L84.744 251.09L84.744 251.09L84.264 251.09z" stroke="none" fill="#000000" fill-rule="evenodd" /><path transform="matrix(1 0 0 -1 0 841)" d="M84.744 250.61L174.264 250.61L174.264 250.61L174.264 251.09L174.264 251.09L84.744 251.09z" stroke="none" fill="#000000" fill-rule="evenodd" /><path transform="matrix(1 0 0 -1 0 841)" d="M174.26 250.61L174.74 250.61L174.74 250.61L174.74 251.09L174.74 251.09L174.26 251.09z" stroke="none" fill="#000000" fill-rule="evenodd" /><path transform="matrix(1 0 0 -1 0 841)" d="M174.74 250.61L222.404 250.61L222.404 250.61L222.404 251.09L222.404 251.09L174.74 251.09z" stroke="none" fill="#000000" fill-rule="evenodd" /><path transform="matrix(1 0 0 -1 0 841)" d="M222.41 250.61L222.89 250.61L222.89 250.61L222.89 251.09L222.89 251.09L222.41 251.09z" stroke="none" fill="#000000" fill-rule="evenodd" /><path transform="matrix(1 0 0 -1 0 841)" d="M222.89 250.61L273.29 250.61L273.29 250.61L273.29 251.09L273.29 251.09L222.89 251.09z" stroke="none" fill="#000000" fill-rule="evenodd" /><path transform="matrix(1 0 0 -1 0 841)" d="M273.29 250.61L273.77 250.61L273.77 250.61L273.77 251.09L273.77 251.09L273.29 251.09z" stroke="none" fill="#000000" fill-rule="evenodd" /><path transform="matrix(1 0 0 -1 0 841)" d="M273.77 250.61L351.074 250.61L351.074 250.61L351.074 251.09L351.074 251.09L273.77 251.09z" stroke="none" fill="#000000" fill-rule="evenodd" /><path transform="matrix(1 0 0 -1 0 841)" d="M351.07 250.61L351.55 250.61L351.55 250.61L351.55 251.09L351.55 251.09L351.07 251.09z" stroke="none" fill="#000000" fill-rule="evenodd" /><path transform="matrix(1 0 0 -1 0 841)" d="M351.55 250.61L499.41 250.61L499.41 250.61L499.41 251.09L499.41 251.09L351.55 251.09z" stroke="none" fill="#000000" fill-rule="evenodd" /><path transform="matrix(1 0 0 -1 0 841)" d="M499.42 250.61L499.9 250.61L499.9 250.61L499.9 251.09L499.9 251.09L499.42 251.09z" stroke="none" fill="#000000" fill-rule="evenodd" /><path transform="matrix(1 0 0 -1 0 841)" d="M84.264 225.53L84.744 225.53L84.744 225.53L84.744 250.61L84.744 250.61L84.264 250.61z" stroke="none" fill="#000000" fill-rule="evenodd" /><path transform="matrix(1 0 0 -1 0 841)" d="M174.26 225.53L174.74 225.53L174.74 225.53L174.74 250.61L174.74 250.61L174.26 250.61z" stroke="none" fill="#000000" fill-rule="evenodd" /><path transform="matrix(1 0 0 -1 0 841)" d="M222.41 225.53L222.89 225.53L222.89 225.53L222.89 250.61L222.89 250.61L222.41 250.61z" stroke="none" fill="#000000" fill-rule="evenodd" /><path transform="matrix(1 0 0 -1 0 841)" d="M273.29 225.53L273.77 225.53L273.77 225.53L273.77 250.61L273.77 250.61L273.29 250.61z" stroke="none" fill="#000000" fill-rule="evenodd" /><path transform="matrix(1 0 0 -1 0 841)" d="M351.07 225.53L351.55 225.53L351.55 225.53L351.55 250.61L351.55 250.61L351.07 250.61z" stroke="none" fill="#000000" fill-rule="evenodd" /><path transform="matrix(1 0 0 -1 0 841)" d="M499.42 225.53L499.9 225.53L499.9 225.53L499.9 250.61L499.9 250.61L499.42 250.61z" stroke="none" fill="#000000" fill-rule="evenodd" /><path transform="matrix(1 0 0 -1 0 841)" d="M84.744 199.97L174.264 199.97L174.264 199.97L174.264 225.05L174.264 225.05L84.744 225.05z" stroke="none" fill="#DAEEF3" fill-rule="evenodd" /><g clip-path="url(#109)"><path transform="matrix(1 0 0 -1 0 841)" d="M89.904 200.81L169.104 200.81L169.104 200.81L169.104 225.05L169.104 225.05L89.904 225.05z" stroke="none" fill="#DAEEF3" fill-rule="evenodd" /><g clip-path="url(#110)"></g><g clip-path="url(#111)"></g></g><path transform="matrix(1 0 0 -1 0 841)" d="M174.74 199.97L222.404 199.97L222.404 199.97L222.404 225.05L222.404 225.05L174.74 225.05z" stroke="none" fill="#DAEEF3" fill-rule="evenodd" /><g clip-path="url(#112)"><path transform="matrix(1 0 0 -1 0 841)" d="M179.9 200.81L217.244 200.81L217.244 200.81L217.244 225.05L217.244 225.05L179.9 225.05z" stroke="none" fill="#DAEEF3" fill-rule="evenodd" /><g clip-path="url(#113)"></g><g clip-path="url(#114)"></g></g><path transform="matrix(1 0 0 -1 0 841)" d="M222.89 199.97L273.17 199.97L273.17 199.97L273.17 225.05L273.17 225.05L222.89 225.05z" stroke="none" fill="#DAEEF3" fill-rule="evenodd" /><g clip-path="url(#115)"><path transform="matrix(1 0 0 -1 0 841)" d="M228.05 199.97L268.01 199.97L268.01 199.97L268.01 225.05L268.01 225.05L228.05 225.05z" stroke="none" fill="#DAEEF3" fill-rule="evenodd" /><g clip-path="url(#116)"></g><g clip-path="url(#117)"></g></g><path transform="matrix(1 0 0 -1 0 841)" d="M273.65 199.97L351.074 199.97L351.074 199.97L351.074 225.05L351.074 225.05L273.65 225.05z" stroke="none" fill="#DAEEF3" fill-rule="evenodd" /><g clip-path="url(#118)"><path transform="matrix(1 0 0 -1 0 841)" d="M278.81 200.81L345.914 200.81L345.914 200.81L345.914 225.05L345.914 225.05L278.81 225.05z" stroke="none" fill="#DAEEF3" fill-rule="evenodd" /><g clip-path="url(#119)"></g><g clip-path="url(#120)"></g></g><path transform="matrix(1 0 0 -1 0 841)" d="M351.55 199.97L499.41 199.97L499.41 199.97L499.41 225.05L499.41 225.05L351.55 225.05z" stroke="none" fill="#DAEEF3" fill-rule="evenodd" /><g clip-path="url(#121)"><path transform="matrix(1 0 0 -1 0 841)" d="M356.71 199.97L494.25 199.97L494.25 199.97L494.25 225.05L494.25 225.05L356.71 225.05z" stroke="none" fill="#DAEEF3" fill-rule="evenodd" /><g clip-path="url(#122)"></g><g clip-path="url(#123)"></g><g clip-path="url(#124)"></g><g clip-path="url(#125)"></g><g clip-path="url(#126)"></g><g clip-path="url(#127)"></g></g><path transform="matrix(1 0 0 -1 0 841)" d="M84.264 225.05L84.744 225.05L84.744 225.05L84.744 225.53L84.744 225.53L84.264 225.53z" stroke="none" fill="#000000" fill-rule="evenodd" /><path transform="matrix(1 0 0 -1 0 841)" d="M84.744 225.05L174.264 225.05L174.264 225.05L174.264 225.53L174.264 225.53L84.744 225.53z" stroke="none" fill="#000000" fill-rule="evenodd" /><path transform="matrix(1 0 0 -1 0 841)" d="M174.26 225.05L174.74 225.05L174.74 225.05L174.74 225.53L174.74 225.53L174.26 225.53z" stroke="none" fill="#000000" fill-rule="evenodd" /><path transform="matrix(1 0 0 -1 0 841)" d="M174.74 225.05L222.404 225.05L222.404 225.05L222.404 225.53L222.404 225.53L174.74 225.53z" stroke="none" fill="#000000" fill-rule="evenodd" /><path transform="matrix(1 0 0 -1 0 841)" d="M222.41 225.05L222.89 225.05L222.89 225.05L222.89 225.53L222.89 225.53L222.41 225.53z" stroke="none" fill="#000000" fill-rule="evenodd" /><path transform="matrix(1 0 0 -1 0 841)" d="M222.89 225.05L273.29 225.05L273.29 225.05L273.29 225.53L273.29 225.53L222.89 225.53z" stroke="none" fill="#000000" fill-rule="evenodd" /><path transform="matrix(1 0 0 -1 0 841)" d="M273.29 225.05L273.77 225.05L273.77 225.05L273.77 225.53L273.77 225.53L273.29 225.53z" stroke="none" fill="#000000" fill-rule="evenodd" /><path transform="matrix(1 0 0 -1 0 841)" d="M273.77 225.05L351.074 225.05L351.074 225.05L351.074 225.53L351.074 225.53L273.77 225.53z" stroke="none" fill="#000000" fill-rule="evenodd" /><path transform="matrix(1 0 0 -1 0 841)" d="M351.07 225.05L351.55 225.05L351.55 225.05L351.55 225.53L351.55 225.53L351.07 225.53z" stroke="none" fill="#000000" fill-rule="evenodd" /><path transform="matrix(1 0 0 -1 0 841)" d="M351.55 225.05L499.41 225.05L499.41 225.05L499.41 225.53L499.41 225.53L351.55 225.53z" stroke="none" fill="#000000" fill-rule="evenodd" /><path transform="matrix(1 0 0 -1 0 841)" d="M499.42 225.05L499.9 225.05L499.9 225.05L499.9 225.53L499.9 225.53L499.42 225.53z" stroke="none" fill="#000000" fill-rule="evenodd" /><path transform="matrix(1 0 0 -1 0 841)" d="M84.264 199.97L84.744 199.97L84.744 199.97L84.744 225.05L84.744 225.05L84.264 225.05z" stroke="none" fill="#000000" fill-rule="evenodd" /><path transform="matrix(1 0 0 -1 0 841)" d="M174.26 199.97L174.74 199.97L174.74 199.97L174.74 225.05L174.74 225.05L174.26 225.05z" stroke="none" fill="#000000" fill-rule="evenodd" /><path transform="matrix(1 0 0 -1 0 841)" d="M222.41 199.97L222.89 199.97L222.89 199.97L222.89 225.05L222.89 225.05L222.41 225.05z" stroke="none" fill="#000000" fill-rule="evenodd" /><path transform="matrix(1 0 0 -1 0 841)" d="M273.29 199.97L273.77 199.97L273.77 199.97L273.77 225.05L273.77 225.05L273.29 225.05z" stroke="none" fill="#000000" fill-rule="evenodd" /><path transform="matrix(1 0 0 -1 0 841)" d="M351.07 199.97L351.55 199.97L351.55 199.97L351.55 225.05L351.55 225.05L351.07 225.05z" stroke="none" fill="#000000" fill-rule="evenodd" /><path transform="matrix(1 0 0 -1 0 841)" d="M499.42 199.97L499.9 199.97L499.9 199.97L499.9 225.05L499.9 225.05L499.42 225.05z" stroke="none" fill="#000000" fill-rule="evenodd" /><g clip-path="url(#128)"><g clip-path="url(#129)"></g><g clip-path="url(#130)"></g></g><g clip-path="url(#131)"><g clip-path="url(#132)"></g><g clip-path="url(#133)"></g></g><g clip-path="url(#134)"><g clip-path="url(#135)"></g><g clip-path="url(#136)"></g></g><g clip-path="url(#137)"><g clip-path="url(#138)"></g></g><g clip-path="url(#139)"><g clip-path="url(#140)"></g><g clip-path="url(#141)"></g><g clip-path="url(#142)"></g><g clip-path="url(#143)"></g></g><path transform="matrix(1 0 0 -1 0 841)" d="M84.264 199.49L84.744 199.49L84.744 199.49L84.744 199.97L84.744 199.97L84.264 199.97z" stroke="none" fill="#000000" fill-rule="evenodd" /><path transform="matrix(1 0 0 -1 0 841)" d="M84.744 199.49L174.264 199.49L174.264 199.49L174.264 199.97L174.264 199.97L84.744 199.97z" stroke="none" fill="#000000" fill-rule="evenodd" /><path transform="matrix(1 0 0 -1 0 841)" d="M174.26 199.49L174.74 199.49L174.74 199.49L174.74 199.97L174.74 199.97L174.26 199.97z" stroke="none" fill="#000000" fill-rule="evenodd" /><path transform="matrix(1 0 0 -1 0 841)" d="M174.74 199.49L222.404 199.49L222.404 199.49L222.404 199.97L222.404 199.97L174.74 199.97z" stroke="none" fill="#000000" fill-rule="evenodd" /><path transform="matrix(1 0 0 -1 0 841)" d="M222.41 199.49L222.89 199.49L222.89 199.49L222.89 199.97L222.89 199.97L222.41 199.97z" stroke="none" fill="#000000" fill-rule="evenodd" /><path transform="matrix(1 0 0 -1 0 841)" d="M222.89 199.49L273.29 199.49L273.29 199.49L273.29 199.97L273.29 199.97L222.89 199.97z" stroke="none" fill="#000000" fill-rule="evenodd" /><path transform="matrix(1 0 0 -1 0 841)" d="M273.29 199.49L273.77 199.49L273.77 199.49L273.77 199.97L273.77 199.97L273.29 199.97z" stroke="none" fill="#000000" fill-rule="evenodd" /><path transform="matrix(1 0 0 -1 0 841)" d="M273.77 199.49L351.074 199.49L351.074 199.49L351.074 199.97L351.074 199.97L273.77 199.97z" stroke="none" fill="#000000" fill-rule="evenodd" /><path transform="matrix(1 0 0 -1 0 841)" d="M351.07 199.49L351.55 199.49L351.55 199.49L351.55 199.97L351.55 199.97L351.07 199.97z" stroke="none" fill="#000000" fill-rule="evenodd" /><path transform="matrix(1 0 0 -1 0 841)" d="M351.55 199.49L499.41 199.49L499.41 199.49L499.41 199.97L499.41 199.97L351.55 199.97z" stroke="none" fill="#000000" fill-rule="evenodd" /><path transform="matrix(1 0 0 -1 0 841)" d="M499.42 199.49L499.9 199.49L499.9 199.49L499.9 199.97L499.9 199.97L499.42 199.97z" stroke="none" fill="#000000" fill-rule="evenodd" /><path transform="matrix(1 0 0 -1 0 841)" d="M84.264 156.26L84.744 156.26L84.744 156.26L84.744 199.484L84.744 199.484L84.264 199.484z" stroke="none" fill="#000000" fill-rule="evenodd" /><path transform="matrix(1 0 0 -1 0 841)" d="M174.26 156.26L174.74 156.26L174.74 156.26L174.74 199.484L174.74 199.484L174.26 199.484z" stroke="none" fill="#000000" fill-rule="evenodd" /><path transform="matrix(1 0 0 -1 0 841)" d="M222.41 156.26L222.89 156.26L222.89 156.26L222.89 199.484L222.89 199.484L222.41 199.484z" stroke="none" fill="#000000" fill-rule="evenodd" /><path transform="matrix(1 0 0 -1 0 841)" d="M273.29 156.26L273.77 156.26L273.77 156.26L273.77 199.484L273.77 199.484L273.29 199.484z" stroke="none" fill="#000000" fill-rule="evenodd" /><path transform="matrix(1 0 0 -1 0 841)" d="M351.07 156.26L351.55 156.26L351.55 156.26L351.55 199.484L351.55 199.484L351.07 199.484z" stroke="none" fill="#000000" fill-rule="evenodd" /><path transform="matrix(1 0 0 -1 0 841)" d="M499.42 156.26L499.9 156.26L499.9 156.26L499.9 199.484L499.9 199.484L499.42 199.484z" stroke="none" fill="#000000" fill-rule="evenodd" /><path transform="matrix(1 0 0 -1 0 841)" d="M84.744 99.624L174.264 99.624L174.264 99.624L174.264 155.664L174.264 155.664L84.744 155.664z" stroke="none" fill="#DAEEF3" fill-rule="evenodd" /><g clip-path="url(#144)"><path transform="matrix(1 0 0 -1 0 841)" d="M89.904 131.54L169.104 131.54L169.104 131.54L169.104 155.66L169.104 155.66L89.904 155.66z" stroke="none" fill="#DAEEF3" fill-rule="evenodd" /><g clip-path="url(#145)"></g><g clip-path="url(#146)"></g></g><path transform="matrix(1 0 0 -1 0 841)" d="M174.74 99.624L222.404 99.624L222.404 99.624L222.404 155.664L222.404 155.664L174.74 155.664z" stroke="none" fill="#DAEEF3" fill-rule="evenodd" /><g clip-path="url(#147)"><path transform="matrix(1 0 0 -1 0 841)" d="M179.9 131.54L217.244 131.54L217.244 131.54L217.244 155.66L217.244 155.66L179.9 155.66z" stroke="none" fill="#DAEEF3" fill-rule="evenodd" /><g clip-path="url(#148)"></g><g clip-path="url(#149)"></g></g><path transform="matrix(1 0 0 -1 0 841)" d="M222.89 99.624L273.17 99.624L273.17 99.624L273.17 155.664L273.17 155.664L222.89 155.664z" stroke="none" fill="#DAEEF3" fill-rule="evenodd" /><g clip-path="url(#150)"><path transform="matrix(1 0 0 -1 0 841)" d="M228.05 130.7L268.01 130.7L268.01 130.7L268.01 155.66L268.01 155.66L228.05 155.66z" stroke="none" fill="#DAEEF3" fill-rule="evenodd" /><g clip-path="url(#151)"></g><g clip-path="url(#152)"></g><g clip-path="url(#153)"></g></g><path transform="matrix(1 0 0 -1 0 841)" d="M273.65 99.624L351.074 99.624L351.074 99.624L351.074 155.664L351.074 155.664L273.65 155.664z" stroke="none" fill="#DAEEF3" fill-rule="evenodd" /><g clip-path="url(#154)"><path transform="matrix(1 0 0 -1 0 841)" d="M278.81 131.54L345.914 131.54L345.914 131.54L345.914 155.66L345.914 155.66L278.81 155.66z" stroke="none" fill="#DAEEF3" fill-rule="evenodd" /><g clip-path="url(#155)"></g></g><path transform="matrix(1 0 0 -1 0 841)" d="M351.55 99.624L499.41 99.624L499.41 99.624L499.41 155.664L499.41 155.664L351.55 155.664z" stroke="none" fill="#DAEEF3" fill-rule="evenodd" /><g clip-path="url(#156)"><path transform="matrix(1 0 0 -1 0 841)" d="M356.71 125.3L494.25 125.3L494.25 125.3L494.25 155.66L494.25 155.66L356.71 155.66z" stroke="none" fill="#DAEEF3" fill-rule="evenodd" /><g clip-path="url(#157)"></g><g clip-path="url(#158)"></g><g clip-path="url(#159)"></g><g clip-path="url(#160)"></g><g clip-path="url(#161)"></g><g clip-path="url(#162)"></g><g clip-path="url(#163)"></g><g clip-path="url(#164)"></g><path transform="matrix(1 0 0 -1 0 841)" d="M356.71 99.624L494.25 99.624L494.25 99.624L494.25 125.304L494.25 125.304L356.71 125.304z" stroke="none" fill="#DAEEF3" fill-rule="evenodd" /><g clip-path="url(#165)"></g><g clip-path="url(#166)"></g><g clip-path="url(#167)"></g><g clip-path="url(#168)"></g></g><path transform="matrix(1 0 0 -1 0 841)" d="M84.264 155.78L84.744 155.78L84.744 155.78L84.744 156.26L84.744 156.26L84.264 156.26z" stroke="none" fill="#000000" fill-rule="evenodd" /><path transform="matrix(1 0 0 -1 0 841)" d="M84.744 155.78L174.264 155.78L174.264 155.78L174.264 156.26L174.264 156.26L84.744 156.26z" stroke="none" fill="#000000" fill-rule="evenodd" /><path transform="matrix(1 0 0 -1 0 841)" d="M174.26 155.78L174.74 155.78L174.74 155.78L174.74 156.26L174.74 156.26L174.26 156.26z" stroke="none" fill="#000000" fill-rule="evenodd" /><path transform="matrix(1 0 0 -1 0 841)" d="M174.74 155.78L222.404 155.78L222.404 155.78L222.404 156.26L222.404 156.26L174.74 156.26z" stroke="none" fill="#000000" fill-rule="evenodd" /><path transform="matrix(1 0 0 -1 0 841)" d="M222.41 155.78L222.89 155.78L222.89 155.78L222.89 156.26L222.89 156.26L222.41 156.26z" stroke="none" fill="#000000" fill-rule="evenodd" /><path transform="matrix(1 0 0 -1 0 841)" d="M222.89 155.78L273.29 155.78L273.29 155.78L273.29 156.26L273.29 156.26L222.89 156.26z" stroke="none" fill="#000000" fill-rule="evenodd" /><path transform="matrix(1 0 0 -1 0 841)" d="M273.29 155.78L273.77 155.78L273.77 155.78L273.77 156.26L273.77 156.26L273.29 156.26z" stroke="none" fill="#000000" fill-rule="evenodd" /><path transform="matrix(1 0 0 -1 0 841)" d="M273.77 155.78L351.074 155.78L351.074 155.78L351.074 156.26L351.074 156.26L273.77 156.26z" stroke="none" fill="#000000" fill-rule="evenodd" /><path transform="matrix(1 0 0 -1 0 841)" d="M351.07 155.78L351.55 155.78L351.55 155.78L351.55 156.26L351.55 156.26L351.07 156.26z" stroke="none" fill="#000000" fill-rule="evenodd" /><path transform="matrix(1 0 0 -1 0 841)" d="M351.55 155.78L499.41 155.78L499.41 155.78L499.41 156.26L499.41 156.26L351.55 156.26z" stroke="none" fill="#000000" fill-rule="evenodd" /><path transform="matrix(1 0 0 -1 0 841)" d="M499.42 155.78L499.9 155.78L499.9 155.78L499.9 156.26L499.9 156.26L499.42 156.26z" stroke="none" fill="#000000" fill-rule="evenodd" /><path transform="matrix(1 0 0 -1 0 841)" d="M84.264 99.624L84.744 99.624L84.744 99.624L84.744 155.784L84.744 155.784L84.264 155.784z" stroke="none" fill="#000000" fill-rule="evenodd" /><path transform="matrix(1 0 0 -1 0 841)" d="M84.264 99.144L84.744 99.144L84.744 99.144L84.744 99.62398L84.744 99.62398L84.264 99.62398z" stroke="none" fill="#000000" fill-rule="evenodd" /><path transform="matrix(1 0 0 -1 0 841)" d="M84.264 99.144L84.744 99.144L84.744 99.144L84.744 99.62398L84.744 99.62398L84.264 99.62398z" stroke="none" fill="#000000" fill-rule="evenodd" /><path transform="matrix(1 0 0 -1 0 841)" d="M84.744 99.144L174.264 99.144L174.264 99.144L174.264 99.62398L174.264 99.62398L84.744 99.62398z" stroke="none" fill="#000000" fill-rule="evenodd" /><path transform="matrix(1 0 0 -1 0 841)" d="M174.26 99.624L174.74 99.624L174.74 99.624L174.74 155.784L174.74 155.784L174.26 155.784z" stroke="none" fill="#000000" fill-rule="evenodd" /><path transform="matrix(1 0 0 -1 0 841)" d="M174.26 99.144L174.74 99.144L174.74 99.144L174.74 99.62398L174.74 99.62398L174.26 99.62398z" stroke="none" fill="#000000" fill-rule="evenodd" /><path transform="matrix(1 0 0 -1 0 841)" d="M174.74 99.144L222.404 99.144L222.404 99.144L222.404 99.62398L222.404 99.62398L174.74 99.62398z" stroke="none" fill="#000000" fill-rule="evenodd" /><path transform="matrix(1 0 0 -1 0 841)" d="M222.41 99.624L222.89 99.624L222.89 99.624L222.89 155.784L222.89 155.784L222.41 155.784z" stroke="none" fill="#000000" fill-rule="evenodd" /><path transform="matrix(1 0 0 -1 0 841)" d="M222.41 99.144L222.89 99.144L222.89 99.144L222.89 99.62398L222.89 99.62398L222.41 99.62398z" stroke="none" fill="#000000" fill-rule="evenodd" /><path transform="matrix(1 0 0 -1 0 841)" d="M222.89 99.144L273.29 99.144L273.29 99.144L273.29 99.62398L273.29 99.62398L222.89 99.62398z" stroke="none" fill="#000000" fill-rule="evenodd" /><path transform="matrix(1 0 0 -1 0 841)" d="M273.29 99.624L273.77 99.624L273.77 99.624L273.77 155.784L273.77 155.784L273.29 155.784z" stroke="none" fill="#000000" fill-rule="evenodd" /><path transform="matrix(1 0 0 -1 0 841)" d="M273.29 99.144L273.77 99.144L273.77 99.144L273.77 99.62398L273.77 99.62398L273.29 99.62398z" stroke="none" fill="#000000" fill-rule="evenodd" /><path transform="matrix(1 0 0 -1 0 841)" d="M273.77 99.144L351.074 99.144L351.074 99.144L351.074 99.62398L351.074 99.62398L273.77 99.62398z" stroke="none" fill="#000000" fill-rule="evenodd" /><path transform="matrix(1 0 0 -1 0 841)" d="M351.07 99.624L351.55 99.624L351.55 99.624L351.55 155.784L351.55 155.784L351.07 155.784z" stroke="none" fill="#000000" fill-rule="evenodd" /><path transform="matrix(1 0 0 -1 0 841)" d="M351.07 99.144L351.55 99.144L351.55 99.144L351.55 99.62398L351.55 99.62398L351.07 99.62398z" stroke="none" fill="#000000" fill-rule="evenodd" /><path transform="matrix(1 0 0 -1 0 841)" d="M351.55 99.144L499.41 99.144L499.41 99.144L499.41 99.62398L499.41 99.62398L351.55 99.62398z" stroke="none" fill="#000000" fill-rule="evenodd" /><path transform="matrix(1 0 0 -1 0 841)" d="M499.42 99.624L499.9 99.624L499.9 99.624L499.9 155.784L499.9 155.784L499.42 155.784z" stroke="none" fill="#000000" fill-rule="evenodd" /><path transform="matrix(1 0 0 -1 0 841)" d="M499.42 99.144L499.9 99.144L499.9 99.144L499.9 99.62398L499.9 99.62398L499.42 99.62398z" stroke="none" fill="#000000" fill-rule="evenodd" /><path transform="matrix(1 0 0 -1 0 841)" d="M499.42 99.144L499.9 99.144L499.9 99.144L499.9 99.62398L499.9 99.62398L499.42 99.62398z" stroke="none" fill="#000000" fill-rule="evenodd" /></g></g></g></svg>