<svg xmlns="http://www.w3.org/2000/svg" xmlns:xlink="http://www.w3.org/1999/xlink" id="body_66" preserveAspectRatio="xMinYMin meet" viewBox="0 0 1121 793"><defs><clipPath id="1"><path d="M0 595L0 -0.3200073L0 -0.3200073L841.92 -0.3200073L841.92 -0.3200073L841.92 595L841.92 595L0 595z" /></clipPath><clipPath id="2"><path d="M0.00125 595.0913L842.0112 595.0913L842.0112 595.0913L842.0112 -0.3186646L842.0112 -0.3186646L0.00125 -0.3186646z" /></clipPath><clipPath id="3"><path d="M386.09 533.771L413.93 533.771L413.93 533.771L413.93 514.691L413.93 514.691L386.09 514.691z" /></clipPath><clipPath id="4"><path d="M386.09 533.776L413.93 533.776L413.93 533.776L413.93 514.696L413.93 514.696L386.09 514.696z" /></clipPath><clipPath id="5"><path d="M386.09 533.776L413.93 533.776L413.93 533.776L413.93 514.696L413.93 514.696L386.09 514.696z" /></clipPath><clipPath id="6"><path d="M84.721 157.51L204.871 157.51L204.871 157.51L204.871 138.43L204.871 138.43L84.721 138.43z" /></clipPath><clipPath id="7"><path d="M84.72 157.5L204.86 157.5L204.86 157.5L204.86 138.42L204.86 138.42L84.72 138.42z" /></clipPath><clipPath id="8"><path d="M84.72 157.5L204.86 157.5L204.86 157.5L204.86 138.42L204.86 138.42L84.72 138.42z" /></clipPath><clipPath id="9"><path d="M205.35 157.51L275.43 157.51L275.43 157.51L275.43 138.43L275.43 138.43L205.35 138.43z" /></clipPath><clipPath id="10"><path d="M205.34 157.5L275.42 157.5L275.42 157.5L275.42 138.42L275.42 138.42L205.34 138.42z" /></clipPath><clipPath id="11"><path d="M205.34 157.5L275.42 157.5L275.42 157.5L275.42 138.42L275.42 138.42L205.34 138.42z" /></clipPath><clipPath id="12"><path d="M275.91 157.51L319.605 157.51L319.605 157.51L319.605 138.43L319.605 138.43L275.91 138.43z" /></clipPath><clipPath id="13"><path d="M275.9 157.5L319.604 157.5L319.604 157.5L319.604 138.42L319.604 138.42L275.9 138.42z" /></clipPath><clipPath id="14"><path d="M275.9 157.5L319.604 157.5L319.604 157.5L319.604 138.42L319.604 138.42L275.9 138.42z" /></clipPath><clipPath id="15"><path d="M320.09 157.51L496.28 157.51L496.28 157.51L496.28 138.43L496.28 138.43L320.09 138.43z" /></clipPath><clipPath id="16"><path d="M320.09 157.5L496.27 157.5L496.27 157.5L496.27 138.42L496.27 138.42L320.09 138.42z" /></clipPath><clipPath id="17"><path d="M320.09 157.5L496.27 157.5L496.27 157.5L496.27 138.42L496.27 138.42L320.09 138.42z" /></clipPath><clipPath id="18"><path d="M496.76 157.51L750.7 157.51L750.7 157.51L750.7 138.43L750.7 138.43L496.76 138.43z" /></clipPath><clipPath id="19"><path d="M496.75 157.5L750.69 157.5L750.69 157.5L750.69 138.42L750.69 138.42L496.75 138.42z" /></clipPath><clipPath id="20"><path d="M496.75 157.5L750.69 157.5L750.69 157.5L750.69 138.42L750.69 138.42L496.75 138.42z" /></clipPath><clipPath id="21"><path d="M84.721 177.07L204.871 177.07L204.871 177.07L204.871 157.99L204.871 157.99L84.721 157.99z" /></clipPath><clipPath id="22"><path d="M84.72 177.06L204.86 177.06L204.86 177.06L204.86 157.98L204.86 157.98L84.72 157.98z" /></clipPath><clipPath id="23"><path d="M84.72 177.06L204.86 177.06L204.86 177.06L204.86 157.98L204.86 157.98L84.72 157.98z" /></clipPath><clipPath id="24"><path d="M205.35 177.07L275.43 177.07L275.43 177.07L275.43 157.99L275.43 157.99L205.35 157.99z" /></clipPath><clipPath id="25"><path d="M205.34 177.06L275.42 177.06L275.42 177.06L275.42 157.98L275.42 157.98L205.34 157.98z" /></clipPath><clipPath id="26"><path d="M205.34 177.06L275.42 177.06L275.42 177.06L275.42 157.98L275.42 157.98L205.34 157.98z" /></clipPath><clipPath id="27"><path d="M275.91 177.07L319.605 177.07L319.605 177.07L319.605 157.99L319.605 157.99L275.91 157.99z" /></clipPath><clipPath id="28"><path d="M275.9 177.06L319.604 177.06L319.604 177.06L319.604 157.98L319.604 157.98L275.9 157.98z" /></clipPath><clipPath id="29"><path d="M275.9 177.06L319.604 177.06L319.604 177.06L319.604 157.98L319.604 157.98L275.9 157.98z" /></clipPath><clipPath id="30"><path d="M320.09 177.07L496.28 177.07L496.28 177.07L496.28 157.99L496.28 157.99L320.09 157.99z" /></clipPath><clipPath id="31"><path d="M320.09 177.06L496.27 177.06L496.27 177.06L496.27 157.98L496.27 157.98L320.09 157.98z" /></clipPath><clipPath id="32"><path d="M320.09 177.06L496.27 177.06L496.27 177.06L496.27 157.98L496.27 157.98L320.09 157.98z" /></clipPath><clipPath id="33"><path d="M496.76 177.07L750.7 177.07L750.7 177.07L750.7 157.99L750.7 157.99L496.76 157.99z" /></clipPath><clipPath id="34"><path d="M496.75 177.06L750.69 177.06L750.69 177.06L750.69 157.98L750.69 157.98L496.75 157.98z" /></clipPath><clipPath id="35"><path d="M496.75 177.06L750.69 177.06L750.69 177.06L750.69 157.98L750.69 157.98L496.75 157.98z" /></clipPath><clipPath id="36"><path d="M84.721 379.92L204.871 379.92L204.871 379.92L204.871 177.55L204.871 177.55L84.721 177.55z" /></clipPath><clipPath id="37"><path d="M84.72 379.91L204.86 379.91L204.86 379.91L204.86 177.54L204.86 177.54L84.72 177.54z" /></clipPath><clipPath id="38"><path d="M84.72 379.91L204.86 379.91L204.86 379.91L204.86 177.54L204.86 177.54L84.72 177.54z" /></clipPath><clipPath id="39"><path d="M205.35 379.92L275.43 379.92L275.43 379.92L275.43 177.55L275.43 177.55L205.35 177.55z" /></clipPath><clipPath id="40"><path d="M205.34 379.91L275.42 379.91L275.42 379.91L275.42 177.54L275.42 177.54L205.34 177.54z" /></clipPath><clipPath id="41"><path d="M205.34 379.91L275.42 379.91L275.42 379.91L275.42 177.54L275.42 177.54L205.34 177.54z" /></clipPath><clipPath id="42"><path d="M275.91 379.92L319.605 379.92L319.605 379.92L319.605 177.55L319.605 177.55L275.91 177.55z" /></clipPath><clipPath id="43"><path d="M275.9 379.91L319.604 379.91L319.604 379.91L319.604 177.54L319.604 177.54L275.9 177.54z" /></clipPath><clipPath id="44"><path d="M275.9 379.91L319.604 379.91L319.604 379.91L319.604 177.54L319.604 177.54L275.9 177.54z" /></clipPath><clipPath id="45"><path d="M320.09 379.92L496.28 379.92L496.28 379.92L496.28 177.55L496.28 177.55L320.09 177.55z" /></clipPath><clipPath id="46"><path d="M320.09 379.91L496.27 379.91L496.27 379.91L496.27 177.54L496.27 177.54L320.09 177.54z" /></clipPath><clipPath id="47"><path d="M320.09 379.91L496.27 379.91L496.27 379.91L496.27 177.54L496.27 177.54L320.09 177.54z" /></clipPath><clipPath id="48"><path d="M557.12 197.11L595.4 197.11L595.4 197.11L595.4 178.03L595.4 178.03L557.12 178.03z" /></clipPath><clipPath id="49"><path d="M557.11 197.1L595.39 197.1L595.39 197.1L595.39 178.02L595.39 178.02L557.11 178.02z" /></clipPath><clipPath id="50"><path d="M557.11 197.1L595.39 197.1L595.39 197.1L595.39 178.02L595.39 178.02L557.11 178.02z" /></clipPath><clipPath id="51"><path d="M595.88 197.11L690.215 197.11L690.215 197.11L690.215 178.03L690.215 178.03L595.88 178.03z" /></clipPath><clipPath id="52"><path d="M595.87 197.1L690.214 197.1L690.214 197.1L690.214 178.02L690.214 178.02L595.87 178.02z" /></clipPath><clipPath id="53"><path d="M595.87 197.1L690.214 197.1L690.214 197.1L690.214 178.02L690.214 178.02L595.87 178.02z" /></clipPath><clipPath id="54"><path d="M557.12 216.69L595.4 216.69L595.4 216.69L595.4 197.595L595.4 197.595L557.12 197.595z" /></clipPath><clipPath id="55"><path d="M557.11 216.69L595.39 216.69L595.39 216.69L595.39 197.586L595.39 197.586L557.11 197.586z" /></clipPath><clipPath id="56"><path d="M557.11 216.69L595.39 216.69L595.39 216.69L595.39 197.586L595.39 197.586L557.11 197.586z" /></clipPath><clipPath id="57"><path d="M595.88 216.69L690.215 216.69L690.215 216.69L690.215 197.595L690.215 197.595L595.88 197.595z" /></clipPath><clipPath id="58"><path d="M595.87 216.69L690.214 216.69L690.214 216.69L690.214 197.586L690.214 197.586L595.87 197.586z" /></clipPath><clipPath id="59"><path d="M595.87 216.69L690.214 216.69L690.214 216.69L690.214 197.586L690.214 197.586L595.87 197.586z" /></clipPath><clipPath id="60"><path d="M557.12 236.25L595.4 236.25L595.4 236.25L595.4 217.17L595.4 217.17L557.12 217.17z" /></clipPath><clipPath id="61"><path d="M557.11 236.25L595.39 236.25L595.39 236.25L595.39 217.17L595.39 217.17L557.11 217.17z" /></clipPath><clipPath id="62"><path d="M557.11 236.25L595.39 236.25L595.39 236.25L595.39 217.17L595.39 217.17L557.11 217.17z" /></clipPath><clipPath id="63"><path d="M595.88 236.25L690.215 236.25L690.215 236.25L690.215 217.17L690.215 217.17L595.88 217.17z" /></clipPath><clipPath id="64"><path d="M595.87 236.25L690.214 236.25L690.214 236.25L690.214 217.17L690.214 217.17L595.87 217.17z" /></clipPath><clipPath id="65"><path d="M595.87 236.25L690.214 236.25L690.214 236.25L690.214 217.17L690.214 217.17L595.87 217.17z" /></clipPath><clipPath id="66"><path d="M557.12 255.81L595.4 255.81L595.4 255.81L595.4 236.73L595.4 236.73L557.12 236.73z" /></clipPath><clipPath id="67"><path d="M557.11 255.81L595.39 255.81L595.39 255.81L595.39 236.73L595.39 236.73L557.11 236.73z" /></clipPath><clipPath id="68"><path d="M557.11 255.81L595.39 255.81L595.39 255.81L595.39 236.73L595.39 236.73L557.11 236.73z" /></clipPath><clipPath id="69"><path d="M595.88 255.81L690.215 255.81L690.215 255.81L690.215 236.73L690.215 236.73L595.88 236.73z" /></clipPath><clipPath id="70"><path d="M595.87 255.81L690.214 255.81L690.214 255.81L690.214 236.73L690.214 236.73L595.87 236.73z" /></clipPath><clipPath id="71"><path d="M595.87 255.81L690.214 255.81L690.214 255.81L690.214 236.73L690.214 236.73L595.87 236.73z" /></clipPath><clipPath id="72"><path d="M557.12 275.37L595.4 275.37L595.4 275.37L595.4 256.29L595.4 256.29L557.12 256.29z" /></clipPath><clipPath id="73"><path d="M557.11 275.37L595.39 275.37L595.39 275.37L595.39 256.29L595.39 256.29L557.11 256.29z" /></clipPath><clipPath id="74"><path d="M557.11 275.37L595.39 275.37L595.39 275.37L595.39 256.29L595.39 256.29L557.11 256.29z" /></clipPath><clipPath id="75"><path d="M595.88 275.37L690.215 275.37L690.215 275.37L690.215 256.29L690.215 256.29L595.88 256.29z" /></clipPath><clipPath id="76"><path d="M595.87 275.37L690.214 275.37L690.214 275.37L690.214 256.29L690.214 256.29L595.87 256.29z" /></clipPath><clipPath id="77"><path d="M595.87 275.37L690.214 275.37L690.214 275.37L690.214 256.29L690.214 256.29L595.87 256.29z" /></clipPath><clipPath id="78"><path d="M557.12 294.81L595.4 294.81L595.4 294.81L595.4 275.85L595.4 275.85L557.12 275.85z" /></clipPath><clipPath id="79"><path d="M557.11 294.81L595.39 294.81L595.39 294.81L595.39 275.85L595.39 275.85L557.11 275.85z" /></clipPath><clipPath id="80"><path d="M557.11 294.81L595.39 294.81L595.39 294.81L595.39 275.85L595.39 275.85L557.11 275.85z" /></clipPath><clipPath id="81"><path d="M595.88 294.81L690.215 294.81L690.215 294.81L690.215 275.85L690.215 275.85L595.88 275.85z" /></clipPath><clipPath id="82"><path d="M595.87 294.81L690.214 294.81L690.214 294.81L690.214 275.85L690.214 275.85L595.87 275.85z" /></clipPath><clipPath id="83"><path d="M595.87 294.81L690.214 294.81L690.214 294.81L690.214 275.85L690.214 275.85L595.87 275.85z" /></clipPath><clipPath id="84"><path d="M557.12 323.01L595.4 323.01L595.4 323.01L595.4 295.41L595.4 295.41L557.12 295.41z" /></clipPath><clipPath id="85"><path d="M557.11 323.01L595.39 323.01L595.39 323.01L595.39 295.41L595.39 295.41L557.11 295.41z" /></clipPath><clipPath id="86"><path d="M557.11 323.01L595.39 323.01L595.39 323.01L595.39 295.41L595.39 295.41L557.11 295.41z" /></clipPath><clipPath id="87"><path d="M595.88 323.01L690.215 323.01L690.215 323.01L690.215 295.41L690.215 295.41L595.88 295.41z" /></clipPath><clipPath id="88"><path d="M595.87 323.01L690.214 323.01L690.214 323.01L690.214 295.41L690.214 295.41L595.87 295.41z" /></clipPath><clipPath id="89"><path d="M595.87 323.01L690.214 323.01L690.214 323.01L690.214 295.41L690.214 295.41L595.87 295.41z" /></clipPath><clipPath id="90"><path d="M557.12 351.24L595.4 351.24L595.4 351.24L595.4 323.49L595.4 323.49L557.12 323.49z" /></clipPath><clipPath id="91"><path d="M557.11 351.23L595.39 351.23L595.39 351.23L595.39 323.486L595.39 323.486L557.11 323.486z" /></clipPath><clipPath id="92"><path d="M557.11 351.23L595.39 351.23L595.39 351.23L595.39 323.486L595.39 323.486L557.11 323.486z" /></clipPath><clipPath id="93"><path d="M595.88 351.24L690.215 351.24L690.215 351.24L690.215 323.49L690.215 323.49L595.88 323.49z" /></clipPath><clipPath id="94"><path d="M595.87 351.23L690.214 351.23L690.214 351.23L690.214 323.486L690.214 323.486L595.87 323.486z" /></clipPath><clipPath id="95"><path d="M595.87 351.23L690.214 351.23L690.214 351.23L690.214 323.486L690.214 323.486L595.87 323.486z" /></clipPath><clipPath id="96"><path d="M557.12 379.32L595.4 379.32L595.4 379.32L595.4 351.72L595.4 351.72L557.12 351.72z" /></clipPath><clipPath id="97"><path d="M557.11 379.31L595.39 379.31L595.39 379.31L595.39 351.71L595.39 351.71L557.11 351.71z" /></clipPath><clipPath id="98"><path d="M557.11 379.31L595.39 379.31L595.39 379.31L595.39 351.71L595.39 351.71L557.11 351.71z" /></clipPath><clipPath id="99"><path d="M595.88 379.32L690.215 379.32L690.215 379.32L690.215 351.72L690.215 351.72L595.88 351.72z" /></clipPath><clipPath id="100"><path d="M595.87 379.31L690.214 379.31L690.214 379.31L690.214 351.71L690.214 351.71L595.87 351.71z" /></clipPath><clipPath id="101"><path d="M595.87 379.31L690.214 379.31L690.214 379.31L690.214 351.71L690.214 351.71L595.87 351.71z" /></clipPath><clipPath id="102"><path d="M496.76 379.92L750.7 379.92L750.7 379.92L750.7 177.55L750.7 177.55L496.76 177.55z" /></clipPath><clipPath id="103"><path d="M496.75 379.91L750.69 379.91L750.69 379.91L750.69 177.54L750.69 177.54L496.75 177.54z" /></clipPath><clipPath id="104"><path d="M84.721 481.45L204.871 481.45L204.871 481.45L204.871 380.39L204.871 380.39L84.721 380.39z" /></clipPath><clipPath id="105"><path d="M84.72 481.46L204.86 481.46L204.86 481.46L204.86 380.4L204.86 380.4L84.72 380.4z" /></clipPath><clipPath id="106"><path d="M84.72 481.46L204.86 481.46L204.86 481.46L204.86 380.4L204.86 380.4L84.72 380.4z" /></clipPath><clipPath id="107"><path d="M205.35 481.45L275.43 481.45L275.43 481.45L275.43 380.39L275.43 380.39L205.35 380.39z" /></clipPath><clipPath id="108"><path d="M205.34 481.46L275.42 481.46L275.42 481.46L275.42 380.4L275.42 380.4L205.34 380.4z" /></clipPath><clipPath id="109"><path d="M205.34 481.46L275.42 481.46L275.42 481.46L275.42 380.4L275.42 380.4L205.34 380.4z" /></clipPath><clipPath id="110"><path d="M275.91 481.45L319.605 481.45L319.605 481.45L319.605 380.39L319.605 380.39L275.91 380.39z" /></clipPath><clipPath id="111"><path d="M275.9 481.46L319.604 481.46L319.604 481.46L319.604 380.4L319.604 380.4L275.9 380.4z" /></clipPath><clipPath id="112"><path d="M275.9 481.46L319.604 481.46L319.604 481.46L319.604 380.4L319.604 380.4L275.9 380.4z" /></clipPath><clipPath id="113"><path d="M320.09 481.45L496.28 481.45L496.28 481.45L496.28 380.39L496.28 380.39L320.09 380.39z" /></clipPath><clipPath id="114"><path d="M320.09 481.46L496.27 481.46L496.27 481.46L496.27 380.4L496.27 380.4L320.09 380.4z" /></clipPath><clipPath id="115"><path d="M320.09 481.46L496.27 481.46L496.27 481.46L496.27 380.4L496.27 380.4L320.09 380.4z" /></clipPath><clipPath id="116"><path d="M532.28 399.96L577.64 399.96L577.64 399.96L577.64 380.88L577.64 380.88L532.28 380.88z" /></clipPath><clipPath id="117"><path d="M532.27 399.95L577.63 399.95L577.63 399.95L577.63 380.87L577.63 380.87L532.27 380.87z" /></clipPath><clipPath id="118"><path d="M532.27 399.95L577.63 399.95L577.63 399.95L577.63 380.87L577.63 380.87L532.27 380.87z" /></clipPath><clipPath id="119"><path d="M578.24 399.96L715.06 399.96L715.06 399.96L715.06 380.88L715.06 380.88L578.24 380.88z" /></clipPath><clipPath id="120"><path d="M578.23 399.95L715.05 399.95L715.05 399.95L715.05 380.87L715.05 380.87L578.23 380.87z" /></clipPath><clipPath id="121"><path d="M578.23 399.95L715.05 399.95L715.05 399.95L715.05 380.87L715.05 380.87L578.23 380.87z" /></clipPath><clipPath id="122"><path d="M532.28 419.4L577.64 419.4L577.64 419.4L577.64 400.44L577.64 400.44L532.28 400.44z" /></clipPath><clipPath id="123"><path d="M532.27 419.39L577.63 419.39L577.63 419.39L577.63 400.43L577.63 400.43L532.27 400.43z" /></clipPath><clipPath id="124"><path d="M532.27 419.39L577.63 419.39L577.63 419.39L577.63 400.43L577.63 400.43L532.27 400.43z" /></clipPath><clipPath id="125"><path d="M578.24 419.4L715.06 419.4L715.06 419.4L715.06 400.44L715.06 400.44L578.24 400.44z" /></clipPath><clipPath id="126"><path d="M578.23 419.39L715.05 419.39L715.05 419.39L715.05 400.43L715.05 400.43L578.23 400.43z" /></clipPath><clipPath id="127"><path d="M578.23 419.39L715.05 419.39L715.05 419.39L715.05 400.43L715.05 400.43L578.23 400.43z" /></clipPath><clipPath id="128"><path d="M532.28 438.96L577.64 438.96L577.64 438.96L577.64 420L577.64 420L532.28 420z" /></clipPath><clipPath id="129"><path d="M532.27 438.95L577.63 438.95L577.63 438.95L577.63 419.99L577.63 419.99L532.27 419.99z" /></clipPath><clipPath id="130"><path d="M532.27 438.95L577.63 438.95L577.63 438.95L577.63 419.99L577.63 419.99L532.27 419.99z" /></clipPath><clipPath id="131"><path d="M578.24 438.96L715.06 438.96L715.06 438.96L715.06 420L715.06 420L578.24 420z" /></clipPath><clipPath id="132"><path d="M578.23 438.95L715.05 438.95L715.05 438.95L715.05 419.99L715.05 419.99L578.23 419.99z" /></clipPath><clipPath id="133"><path d="M578.23 438.95L715.05 438.95L715.05 438.95L715.05 419.99L715.05 419.99L578.23 419.99z" /></clipPath><clipPath id="134"><path d="M496.76 481.45L750.7 481.45L750.7 481.45L750.7 380.39L750.7 380.39L496.76 380.39z" /></clipPath><clipPath id="135"><path d="M496.75 481.46L750.69 481.46L750.69 481.46L750.69 380.4L750.69 380.4L496.75 380.4z" /></clipPath><clipPath id="136"><path d="M84.721 501.011L204.871 501.011L204.871 501.011L204.871 481.931L204.871 481.931L84.721 481.931z" /></clipPath><clipPath id="137"><path d="M84.72 501.016L204.86 501.016L204.86 501.016L204.86 481.936L204.86 481.936L84.72 481.936z" /></clipPath><clipPath id="138"><path d="M84.72 501.016L204.86 501.016L204.86 501.016L204.86 481.936L204.86 481.936L84.72 481.936z" /></clipPath><clipPath id="139"><path d="M205.35 501.011L275.43 501.011L275.43 501.011L275.43 481.931L275.43 481.931L205.35 481.931z" /></clipPath><clipPath id="140"><path d="M205.34 501.016L275.42 501.016L275.42 501.016L275.42 481.936L275.42 481.936L205.34 481.936z" /></clipPath><clipPath id="141"><path d="M205.34 501.016L275.42 501.016L275.42 501.016L275.42 481.936L275.42 481.936L205.34 481.936z" /></clipPath><clipPath id="142"><path d="M275.91 501.011L319.605 501.011L319.605 501.011L319.605 481.931L319.605 481.931L275.91 481.931z" /></clipPath><clipPath id="143"><path d="M275.9 501.016L319.604 501.016L319.604 501.016L319.604 481.936L319.604 481.936L275.9 481.936z" /></clipPath><clipPath id="144"><path d="M275.9 501.016L319.604 501.016L319.604 501.016L319.604 481.936L319.604 481.936L275.9 481.936z" /></clipPath><clipPath id="145"><path d="M320.09 501.011L496.28 501.011L496.28 501.011L496.28 481.931L496.28 481.931L320.09 481.931z" /></clipPath><clipPath id="146"><path d="M320.09 501.016L496.27 501.016L496.27 501.016L496.27 481.936L496.27 481.936L320.09 481.936z" /></clipPath><clipPath id="147"><path d="M320.09 501.016L496.27 501.016L496.27 501.016L496.27 481.936L496.27 481.936L320.09 481.936z" /></clipPath><clipPath id="148"><path d="M320.09 501.016L496.27 501.016L496.27 501.016L496.27 481.936L496.27 481.936L320.09 481.936z" /></clipPath><clipPath id="149"><path d="M320.09 501.016L496.27 501.016L496.27 501.016L496.27 481.936L496.27 481.936L320.09 481.936z" /></clipPath><clipPath id="150"><path d="M496.76 501.011L750.7 501.011L750.7 501.011L750.7 481.931L750.7 481.931L496.76 481.931z" /></clipPath><clipPath id="151"><path d="M496.75 501.016L750.69 501.016L750.69 501.016L750.69 481.936L750.69 481.936L496.75 481.936z" /></clipPath><clipPath id="152"><path d="M496.75 501.016L750.69 501.016L750.69 501.016L750.69 481.936L750.69 481.936L496.75 481.936z" /></clipPath></defs><g transform="matrix(1.333333 0 0 1.333333 0 0)"><g><g clip-path="url(#1)"><path transform="matrix(1 0 0 -1 0 595)" d="M704.26 53.304L752.14 53.304L752.14 53.304L752.14 53.90398L752.14 53.90398L704.26 53.90398z" stroke="none" fill="#000000" fill-rule="evenodd" /><g clip-path="url(#2)"><path transform="matrix(1 0 0 -1 0 595)" d="M88.44 77.904L753.58 77.904L753.58 77.904L753.58 80.904L753.58 80.904L88.44 80.904z" stroke="none" fill="#000000" fill-rule="evenodd" /><path transform="matrix(1 0 0 -1 0 595)" d="M88.44 76.464L753.58 76.464L753.58 76.464L753.58 77.18403L753.58 77.18403L88.44 77.18403z" stroke="none" fill="#000000" fill-rule="evenodd" /></g><g clip-path="url(#3)"><g clip-path="url(#4)"></g><g clip-path="url(#5)"></g></g><path transform="matrix(1 0 0 -1 0 595)" d="M84.72 437.5L204.86 437.5L204.86 437.5L204.86 456.58L204.86 456.58L84.72 456.58z" stroke="none" fill="#0070C0" fill-rule="evenodd" /><g clip-path="url(#6)"><path transform="matrix(1 0 0 -1 0 595)" d="M89.88 437.5L199.7 437.5L199.7 437.5L199.7 456.58L199.7 456.58L89.88 456.58z" stroke="none" fill="#0070C0" fill-rule="evenodd" /><g clip-path="url(#7)"></g><g clip-path="url(#8)"></g></g><path transform="matrix(1 0 0 -1 0 595)" d="M205.34 437.5L275.42 437.5L275.42 437.5L275.42 456.58L275.42 456.58L205.34 456.58z" stroke="none" fill="#0070C0" fill-rule="evenodd" /><g clip-path="url(#9)"><path transform="matrix(1 0 0 -1 0 595)" d="M210.5 437.5L270.26 437.5L270.26 437.5L270.26 456.58L270.26 456.58L210.5 456.58z" stroke="none" fill="#0070C0" fill-rule="evenodd" /><g clip-path="url(#10)"></g><g clip-path="url(#11)"></g></g><path transform="matrix(1 0 0 -1 0 595)" d="M275.9 437.5L319.604 437.5L319.604 437.5L319.604 456.58L319.604 456.58L275.9 456.58z" stroke="none" fill="#0070C0" fill-rule="evenodd" /><g clip-path="url(#12)"><path transform="matrix(1 0 0 -1 0 595)" d="M281.06 437.5L314.444 437.5L314.444 437.5L314.444 456.58L314.444 456.58L281.06 456.58z" stroke="none" fill="#0070C0" fill-rule="evenodd" /><g clip-path="url(#13)"></g><g clip-path="url(#14)"></g></g><path transform="matrix(1 0 0 -1 0 595)" d="M320.09 437.5L496.27 437.5L496.27 437.5L496.27 456.58L496.27 456.58L320.09 456.58z" stroke="none" fill="#0070C0" fill-rule="evenodd" /><g clip-path="url(#15)"><path transform="matrix(1 0 0 -1 0 595)" d="M325.25 437.5L491.11 437.5L491.11 437.5L491.11 456.58L491.11 456.58L325.25 456.58z" stroke="none" fill="#0070C0" fill-rule="evenodd" /><g clip-path="url(#16)"></g><g clip-path="url(#17)"></g></g><path transform="matrix(1 0 0 -1 0 595)" d="M496.75 437.5L750.69 437.5L750.69 437.5L750.69 456.58L750.69 456.58L496.75 456.58z" stroke="none" fill="#0070C0" fill-rule="evenodd" /><g clip-path="url(#18)"><path transform="matrix(1 0 0 -1 0 595)" d="M501.91 437.5L745.53 437.5L745.53 437.5L745.53 456.58L745.53 456.58L501.91 456.58z" stroke="none" fill="#0070C0" fill-rule="evenodd" /><g clip-path="url(#19)"></g><g clip-path="url(#20)"></g></g><path transform="matrix(1 0 0 -1 0 595)" d="M84.24 456.58L84.72 456.58L84.72 456.58L84.72 457.06L84.72 457.06L84.24 457.06z" stroke="none" fill="#000000" fill-rule="evenodd" /><path transform="matrix(1 0 0 -1 0 595)" d="M84.24 456.58L84.72 456.58L84.72 456.58L84.72 457.06L84.72 457.06L84.24 457.06z" stroke="none" fill="#000000" fill-rule="evenodd" /><path transform="matrix(1 0 0 -1 0 595)" d="M84.72 456.58L204.86 456.58L204.86 456.58L204.86 457.06L204.86 457.06L84.72 457.06z" stroke="none" fill="#000000" fill-rule="evenodd" /><path transform="matrix(1 0 0 -1 0 595)" d="M204.86 456.58L205.34 456.58L205.34 456.58L205.34 457.06L205.34 457.06L204.86 457.06z" stroke="none" fill="#000000" fill-rule="evenodd" /><path transform="matrix(1 0 0 -1 0 595)" d="M205.34 456.58L275.42 456.58L275.42 456.58L275.42 457.06L275.42 457.06L205.34 457.06z" stroke="none" fill="#000000" fill-rule="evenodd" /><path transform="matrix(1 0 0 -1 0 595)" d="M275.42 456.58L275.9 456.58L275.9 456.58L275.9 457.06L275.9 457.06L275.42 457.06z" stroke="none" fill="#000000" fill-rule="evenodd" /><path transform="matrix(1 0 0 -1 0 595)" d="M275.9 456.58L319.604 456.58L319.604 456.58L319.604 457.06L319.604 457.06L275.9 457.06z" stroke="none" fill="#000000" fill-rule="evenodd" /><path transform="matrix(1 0 0 -1 0 595)" d="M319.61 456.58L320.09 456.58L320.09 456.58L320.09 457.06L320.09 457.06L319.61 457.06z" stroke="none" fill="#000000" fill-rule="evenodd" /><path transform="matrix(1 0 0 -1 0 595)" d="M320.09 456.58L496.27 456.58L496.27 456.58L496.27 457.06L496.27 457.06L320.09 457.06z" stroke="none" fill="#000000" fill-rule="evenodd" /><path transform="matrix(1 0 0 -1 0 595)" d="M496.27 456.58L496.75 456.58L496.75 456.58L496.75 457.06L496.75 457.06L496.27 457.06z" stroke="none" fill="#000000" fill-rule="evenodd" /><path transform="matrix(1 0 0 -1 0 595)" d="M496.75 456.58L750.69 456.58L750.69 456.58L750.69 457.06L750.69 457.06L496.75 457.06z" stroke="none" fill="#000000" fill-rule="evenodd" /><path transform="matrix(1 0 0 -1 0 595)" d="M750.7 456.58L751.1801 456.58L751.1801 456.58L751.1801 457.06L751.1801 457.06L750.7 457.06z" stroke="none" fill="#000000" fill-rule="evenodd" /><path transform="matrix(1 0 0 -1 0 595)" d="M750.7 456.58L751.1801 456.58L751.1801 456.58L751.1801 457.06L751.1801 457.06L750.7 457.06z" stroke="none" fill="#000000" fill-rule="evenodd" /><path transform="matrix(1 0 0 -1 0 595)" d="M84.24 437.5L84.72 437.5L84.72 437.5L84.72 456.58L84.72 456.58L84.24 456.58z" stroke="none" fill="#000000" fill-rule="evenodd" /><path transform="matrix(1 0 0 -1 0 595)" d="M204.86 437.5L205.34 437.5L205.34 437.5L205.34 456.58L205.34 456.58L204.86 456.58z" stroke="none" fill="#000000" fill-rule="evenodd" /><path transform="matrix(1 0 0 -1 0 595)" d="M275.42 437.5L275.9 437.5L275.9 437.5L275.9 456.58L275.9 456.58L275.42 456.58z" stroke="none" fill="#000000" fill-rule="evenodd" /><path transform="matrix(1 0 0 -1 0 595)" d="M319.61 437.5L320.09 437.5L320.09 437.5L320.09 456.58L320.09 456.58L319.61 456.58z" stroke="none" fill="#000000" fill-rule="evenodd" /><path transform="matrix(1 0 0 -1 0 595)" d="M496.27 437.5L496.75 437.5L496.75 437.5L496.75 456.58L496.75 456.58L496.27 456.58z" stroke="none" fill="#000000" fill-rule="evenodd" /><path transform="matrix(1 0 0 -1 0 595)" d="M750.7 437.5L751.1801 437.5L751.1801 437.5L751.1801 456.58L751.1801 456.58L750.7 456.58z" stroke="none" fill="#000000" fill-rule="evenodd" /><path transform="matrix(1 0 0 -1 0 595)" d="M84.72 417.94L204.86 417.94L204.86 417.94L204.86 437.02L204.86 437.02L84.72 437.02z" stroke="none" fill="#DAEEF3" fill-rule="evenodd" /><g clip-path="url(#21)"><path transform="matrix(1 0 0 -1 0 595)" d="M89.88 417.94L199.7 417.94L199.7 417.94L199.7 437.02L199.7 437.02L89.88 437.02z" stroke="none" fill="#DAEEF3" fill-rule="evenodd" /><g clip-path="url(#22)"></g><g clip-path="url(#23)"></g></g><path transform="matrix(1 0 0 -1 0 595)" d="M205.34 417.94L275.42 417.94L275.42 417.94L275.42 437.02L275.42 437.02L205.34 437.02z" stroke="none" fill="#DAEEF3" fill-rule="evenodd" /><g clip-path="url(#24)"><path transform="matrix(1 0 0 -1 0 595)" d="M210.5 417.94L270.26 417.94L270.26 417.94L270.26 437.02L270.26 437.02L210.5 437.02z" stroke="none" fill="#DAEEF3" fill-rule="evenodd" /><g clip-path="url(#25)"></g><g clip-path="url(#26)"></g></g><path transform="matrix(1 0 0 -1 0 595)" d="M275.9 417.94L319.604 417.94L319.604 417.94L319.604 437.02L319.604 437.02L275.9 437.02z" stroke="none" fill="#DAEEF3" fill-rule="evenodd" /><g clip-path="url(#27)"><path transform="matrix(1 0 0 -1 0 595)" d="M281.06 417.94L314.444 417.94L314.444 417.94L314.444 437.02L314.444 437.02L281.06 437.02z" stroke="none" fill="#DAEEF3" fill-rule="evenodd" /><g clip-path="url(#28)"></g><g clip-path="url(#29)"></g></g><path transform="matrix(1 0 0 -1 0 595)" d="M320.09 417.94L496.27 417.94L496.27 417.94L496.27 437.02L496.27 437.02L320.09 437.02z" stroke="none" fill="#DAEEF3" fill-rule="evenodd" /><g clip-path="url(#30)"><path transform="matrix(1 0 0 -1 0 595)" d="M325.25 417.94L491.11 417.94L491.11 417.94L491.11 437.02L491.11 437.02L325.25 437.02z" stroke="none" fill="#DAEEF3" fill-rule="evenodd" /><g clip-path="url(#31)"></g><g clip-path="url(#32)"></g></g><path transform="matrix(1 0 0 -1 0 595)" d="M496.75 417.94L750.69 417.94L750.69 417.94L750.69 437.02L750.69 437.02L496.75 437.02z" stroke="none" fill="#DAEEF3" fill-rule="evenodd" /><g clip-path="url(#33)"><path transform="matrix(1 0 0 -1 0 595)" d="M501.91 417.94L745.53 417.94L745.53 417.94L745.53 437.02L745.53 437.02L501.91 437.02z" stroke="none" fill="#DAEEF3" fill-rule="evenodd" /><g clip-path="url(#34)"></g><g clip-path="url(#35)"></g></g><path transform="matrix(1 0 0 -1 0 595)" d="M84.24 437.02L84.72 437.02L84.72 437.02L84.72 437.5L84.72 437.5L84.24 437.5z" stroke="none" fill="#000000" fill-rule="evenodd" /><path transform="matrix(1 0 0 -1 0 595)" d="M84.72 437.02L204.86 437.02L204.86 437.02L204.86 437.5L204.86 437.5L84.72 437.5z" stroke="none" fill="#000000" fill-rule="evenodd" /><path transform="matrix(1 0 0 -1 0 595)" d="M204.86 437.02L205.34 437.02L205.34 437.02L205.34 437.5L205.34 437.5L204.86 437.5z" stroke="none" fill="#000000" fill-rule="evenodd" /><path transform="matrix(1 0 0 -1 0 595)" d="M205.34 437.02L275.42 437.02L275.42 437.02L275.42 437.5L275.42 437.5L205.34 437.5z" stroke="none" fill="#000000" fill-rule="evenodd" /><path transform="matrix(1 0 0 -1 0 595)" d="M275.42 437.02L275.9 437.02L275.9 437.02L275.9 437.5L275.9 437.5L275.42 437.5z" stroke="none" fill="#000000" fill-rule="evenodd" /><path transform="matrix(1 0 0 -1 0 595)" d="M275.9 437.02L319.604 437.02L319.604 437.02L319.604 437.5L319.604 437.5L275.9 437.5z" stroke="none" fill="#000000" fill-rule="evenodd" /><path transform="matrix(1 0 0 -1 0 595)" d="M319.61 437.02L320.09 437.02L320.09 437.02L320.09 437.5L320.09 437.5L319.61 437.5z" stroke="none" fill="#000000" fill-rule="evenodd" /><path transform="matrix(1 0 0 -1 0 595)" d="M320.09 437.02L496.27 437.02L496.27 437.02L496.27 437.5L496.27 437.5L320.09 437.5z" stroke="none" fill="#000000" fill-rule="evenodd" /><path transform="matrix(1 0 0 -1 0 595)" d="M496.27 437.02L496.75 437.02L496.75 437.02L496.75 437.5L496.75 437.5L496.27 437.5z" stroke="none" fill="#000000" fill-rule="evenodd" /><path transform="matrix(1 0 0 -1 0 595)" d="M496.75 437.02L750.69 437.02L750.69 437.02L750.69 437.5L750.69 437.5L496.75 437.5z" stroke="none" fill="#000000" fill-rule="evenodd" /><path transform="matrix(1 0 0 -1 0 595)" d="M750.7 437.02L751.1801 437.02L751.1801 437.02L751.1801 437.5L751.1801 437.5L750.7 437.5z" stroke="none" fill="#000000" fill-rule="evenodd" /><path transform="matrix(1 0 0 -1 0 595)" d="M84.24 417.94L84.72 417.94L84.72 417.94L84.72 437.02L84.72 437.02L84.24 437.02z" stroke="none" fill="#000000" fill-rule="evenodd" /><path transform="matrix(1 0 0 -1 0 595)" d="M204.86 417.94L205.34 417.94L205.34 417.94L205.34 437.02L205.34 437.02L204.86 437.02z" stroke="none" fill="#000000" fill-rule="evenodd" /><path transform="matrix(1 0 0 -1 0 595)" d="M275.42 417.94L275.9 417.94L275.9 417.94L275.9 437.02L275.9 437.02L275.42 437.02z" stroke="none" fill="#000000" fill-rule="evenodd" /><path transform="matrix(1 0 0 -1 0 595)" d="M319.61 417.94L320.09 417.94L320.09 417.94L320.09 437.02L320.09 437.02L319.61 437.02z" stroke="none" fill="#000000" fill-rule="evenodd" /><path transform="matrix(1 0 0 -1 0 595)" d="M496.27 417.94L496.75 417.94L496.75 417.94L496.75 437.02L496.75 437.02L496.27 437.02z" stroke="none" fill="#000000" fill-rule="evenodd" /><path transform="matrix(1 0 0 -1 0 595)" d="M750.7 417.94L751.1801 417.94L751.1801 417.94L751.1801 437.02L751.1801 437.02L750.7 437.02z" stroke="none" fill="#000000" fill-rule="evenodd" /><g clip-path="url(#36)"><g clip-path="url(#37)"></g><g clip-path="url(#38)"></g></g><g clip-path="url(#39)"><g clip-path="url(#40)"></g><g clip-path="url(#41)"></g></g><g clip-path="url(#42)"><g clip-path="url(#43)"></g><g clip-path="url(#44)"></g></g><g clip-path="url(#45)"><g clip-path="url(#46)"></g><g clip-path="url(#47)"></g></g><path transform="matrix(1 0 0 -1 0 595)" d="M557.11 397.9L595.39 397.9L595.39 397.9L595.39 416.98L595.39 416.98L557.11 416.98z" stroke="none" fill="#0070C0" fill-rule="evenodd" /><g clip-path="url(#48)"><path transform="matrix(1 0 0 -1 0 595)" d="M562.27 397.9L590.23 397.9L590.23 397.9L590.23 416.98L590.23 416.98L562.27 416.98z" stroke="none" fill="#0070C0" fill-rule="evenodd" /><g clip-path="url(#49)"></g><g clip-path="url(#50)"></g></g><path transform="matrix(1 0 0 -1 0 595)" d="M595.87 397.9L690.214 397.9L690.214 397.9L690.214 416.98L690.214 416.98L595.87 416.98z" stroke="none" fill="#0070C0" fill-rule="evenodd" /><g clip-path="url(#51)"><path transform="matrix(1 0 0 -1 0 595)" d="M601.03 397.9L685.054 397.9L685.054 397.9L685.054 416.98L685.054 416.98L601.03 416.98z" stroke="none" fill="#0070C0" fill-rule="evenodd" /><g clip-path="url(#52)"></g><g clip-path="url(#53)"></g></g><path transform="matrix(1 0 0 -1 0 595)" d="M556.63 416.98L557.11 416.98L557.11 416.98L557.11 417.46L557.11 417.46L556.63 417.46z" stroke="none" fill="#000000" fill-rule="evenodd" /><path transform="matrix(1 0 0 -1 0 595)" d="M556.63 416.98L557.11 416.98L557.11 416.98L557.11 417.46L557.11 417.46L556.63 417.46z" stroke="none" fill="#000000" fill-rule="evenodd" /><path transform="matrix(1 0 0 -1 0 595)" d="M557.11 416.98L595.51 416.98L595.51 416.98L595.51 417.46L595.51 417.46L557.11 417.46z" stroke="none" fill="#000000" fill-rule="evenodd" /><path transform="matrix(1 0 0 -1 0 595)" d="M595.51 416.98L595.99 416.98L595.99 416.98L595.99 417.46L595.99 417.46L595.51 417.46z" stroke="none" fill="#000000" fill-rule="evenodd" /><path transform="matrix(1 0 0 -1 0 595)" d="M595.99 416.98L690.334 416.98L690.334 416.98L690.334 417.46L690.334 417.46L595.99 417.46z" stroke="none" fill="#000000" fill-rule="evenodd" /><path transform="matrix(1 0 0 -1 0 595)" d="M690.34 416.98L690.82 416.98L690.82 416.98L690.82 417.46L690.82 417.46L690.34 417.46z" stroke="none" fill="#000000" fill-rule="evenodd" /><path transform="matrix(1 0 0 -1 0 595)" d="M690.34 416.98L690.82 416.98L690.82 416.98L690.82 417.46L690.82 417.46L690.34 417.46z" stroke="none" fill="#000000" fill-rule="evenodd" /><path transform="matrix(1 0 0 -1 0 595)" d="M556.63 397.9L557.11 397.9L557.11 397.9L557.11 416.98L557.11 416.98L556.63 416.98z" stroke="none" fill="#000000" fill-rule="evenodd" /><path transform="matrix(1 0 0 -1 0 595)" d="M595.51 397.9L595.99 397.9L595.99 397.9L595.99 416.98L595.99 416.98L595.51 416.98z" stroke="none" fill="#000000" fill-rule="evenodd" /><path transform="matrix(1 0 0 -1 0 595)" d="M690.34 397.9L690.82 397.9L690.82 397.9L690.82 416.98L690.82 416.98L690.34 416.98z" stroke="none" fill="#000000" fill-rule="evenodd" /><path transform="matrix(1 0 0 -1 0 595)" d="M557.11 378.31L595.39 378.31L595.39 378.31L595.39 397.414L595.39 397.414L557.11 397.414z" stroke="none" fill="#DAEEF3" fill-rule="evenodd" /><g clip-path="url(#54)"><path transform="matrix(1 0 0 -1 0 595)" d="M562.27 378.31L590.23 378.31L590.23 378.31L590.23 397.414L590.23 397.414L562.27 397.414z" stroke="none" fill="#DAEEF3" fill-rule="evenodd" /><g clip-path="url(#55)"></g><g clip-path="url(#56)"></g></g><path transform="matrix(1 0 0 -1 0 595)" d="M595.87 378.31L690.214 378.31L690.214 378.31L690.214 397.414L690.214 397.414L595.87 397.414z" stroke="none" fill="#DAEEF3" fill-rule="evenodd" /><g clip-path="url(#57)"><path transform="matrix(1 0 0 -1 0 595)" d="M601.03 378.31L685.054 378.31L685.054 378.31L685.054 397.414L685.054 397.414L601.03 397.414z" stroke="none" fill="#DAEEF3" fill-rule="evenodd" /><g clip-path="url(#58)"></g><g clip-path="url(#59)"></g></g><path transform="matrix(1 0 0 -1 0 595)" d="M556.63 397.42L557.11 397.42L557.11 397.42L557.11 397.9L557.11 397.9L556.63 397.9z" stroke="none" fill="#000000" fill-rule="evenodd" /><path transform="matrix(1 0 0 -1 0 595)" d="M557.11 397.42L595.51 397.42L595.51 397.42L595.51 397.9L595.51 397.9L557.11 397.9z" stroke="none" fill="#000000" fill-rule="evenodd" /><path transform="matrix(1 0 0 -1 0 595)" d="M595.51 397.42L595.99 397.42L595.99 397.42L595.99 397.9L595.99 397.9L595.51 397.9z" stroke="none" fill="#000000" fill-rule="evenodd" /><path transform="matrix(1 0 0 -1 0 595)" d="M595.99 397.42L690.334 397.42L690.334 397.42L690.334 397.9L690.334 397.9L595.99 397.9z" stroke="none" fill="#000000" fill-rule="evenodd" /><path transform="matrix(1 0 0 -1 0 595)" d="M690.34 397.42L690.82 397.42L690.82 397.42L690.82 397.9L690.82 397.9L690.34 397.9z" stroke="none" fill="#000000" fill-rule="evenodd" /><path transform="matrix(1 0 0 -1 0 595)" d="M556.63 378.31L557.11 378.31L557.11 378.31L557.11 397.414L557.11 397.414L556.63 397.414z" stroke="none" fill="#000000" fill-rule="evenodd" /><path transform="matrix(1 0 0 -1 0 595)" d="M595.51 378.31L595.99 378.31L595.99 378.31L595.99 397.414L595.99 397.414L595.51 397.414z" stroke="none" fill="#000000" fill-rule="evenodd" /><path transform="matrix(1 0 0 -1 0 595)" d="M690.34 378.31L690.82 378.31L690.82 378.31L690.82 397.414L690.82 397.414L690.34 397.414z" stroke="none" fill="#000000" fill-rule="evenodd" /><g clip-path="url(#60)"><g clip-path="url(#61)"></g><g clip-path="url(#62)"></g></g><g clip-path="url(#63)"><g clip-path="url(#64)"></g><g clip-path="url(#65)"></g></g><path transform="matrix(1 0 0 -1 0 595)" d="M556.63 377.83L557.11 377.83L557.11 377.83L557.11 378.31L557.11 378.31L556.63 378.31z" stroke="none" fill="#000000" fill-rule="evenodd" /><path transform="matrix(1 0 0 -1 0 595)" d="M557.11 377.83L595.51 377.83L595.51 377.83L595.51 378.31L595.51 378.31L557.11 378.31z" stroke="none" fill="#000000" fill-rule="evenodd" /><path transform="matrix(1 0 0 -1 0 595)" d="M595.51 377.83L595.99 377.83L595.99 377.83L595.99 378.31L595.99 378.31L595.51 378.31z" stroke="none" fill="#000000" fill-rule="evenodd" /><path transform="matrix(1 0 0 -1 0 595)" d="M595.99 377.83L690.334 377.83L690.334 377.83L690.334 378.31L690.334 378.31L595.99 378.31z" stroke="none" fill="#000000" fill-rule="evenodd" /><path transform="matrix(1 0 0 -1 0 595)" d="M690.34 377.83L690.82 377.83L690.82 377.83L690.82 378.31L690.82 378.31L690.34 378.31z" stroke="none" fill="#000000" fill-rule="evenodd" /><path transform="matrix(1 0 0 -1 0 595)" d="M556.63 358.75L557.11 358.75L557.11 358.75L557.11 377.83L557.11 377.83L556.63 377.83z" stroke="none" fill="#000000" fill-rule="evenodd" /><path transform="matrix(1 0 0 -1 0 595)" d="M595.51 358.75L595.99 358.75L595.99 358.75L595.99 377.83L595.99 377.83L595.51 377.83z" stroke="none" fill="#000000" fill-rule="evenodd" /><path transform="matrix(1 0 0 -1 0 595)" d="M690.34 358.75L690.82 358.75L690.82 358.75L690.82 377.83L690.82 377.83L690.34 377.83z" stroke="none" fill="#000000" fill-rule="evenodd" /><path transform="matrix(1 0 0 -1 0 595)" d="M557.11 339.19L595.39 339.19L595.39 339.19L595.39 358.27L595.39 358.27L557.11 358.27z" stroke="none" fill="#DAEEF3" fill-rule="evenodd" /><g clip-path="url(#66)"><path transform="matrix(1 0 0 -1 0 595)" d="M562.27 339.19L590.23 339.19L590.23 339.19L590.23 358.27L590.23 358.27L562.27 358.27z" stroke="none" fill="#DAEEF3" fill-rule="evenodd" /><g clip-path="url(#67)"></g><g clip-path="url(#68)"></g></g><path transform="matrix(1 0 0 -1 0 595)" d="M595.87 339.19L690.214 339.19L690.214 339.19L690.214 358.27L690.214 358.27L595.87 358.27z" stroke="none" fill="#DAEEF3" fill-rule="evenodd" /><g clip-path="url(#69)"><path transform="matrix(1 0 0 -1 0 595)" d="M601.03 339.19L685.054 339.19L685.054 339.19L685.054 358.27L685.054 358.27L601.03 358.27z" stroke="none" fill="#DAEEF3" fill-rule="evenodd" /><g clip-path="url(#70)"></g><g clip-path="url(#71)"></g></g><path transform="matrix(1 0 0 -1 0 595)" d="M556.63 358.27L557.11 358.27L557.11 358.27L557.11 358.75L557.11 358.75L556.63 358.75z" stroke="none" fill="#000000" fill-rule="evenodd" /><path transform="matrix(1 0 0 -1 0 595)" d="M557.11 358.27L595.51 358.27L595.51 358.27L595.51 358.75L595.51 358.75L557.11 358.75z" stroke="none" fill="#000000" fill-rule="evenodd" /><path transform="matrix(1 0 0 -1 0 595)" d="M595.51 358.27L595.99 358.27L595.99 358.27L595.99 358.75L595.99 358.75L595.51 358.75z" stroke="none" fill="#000000" fill-rule="evenodd" /><path transform="matrix(1 0 0 -1 0 595)" d="M595.99 358.27L690.334 358.27L690.334 358.27L690.334 358.75L690.334 358.75L595.99 358.75z" stroke="none" fill="#000000" fill-rule="evenodd" /><path transform="matrix(1 0 0 -1 0 595)" d="M690.34 358.27L690.82 358.27L690.82 358.27L690.82 358.75L690.82 358.75L690.34 358.75z" stroke="none" fill="#000000" fill-rule="evenodd" /><path transform="matrix(1 0 0 -1 0 595)" d="M556.63 339.19L557.11 339.19L557.11 339.19L557.11 358.27L557.11 358.27L556.63 358.27z" stroke="none" fill="#000000" fill-rule="evenodd" /><path transform="matrix(1 0 0 -1 0 595)" d="M595.51 339.19L595.99 339.19L595.99 339.19L595.99 358.27L595.99 358.27L595.51 358.27z" stroke="none" fill="#000000" fill-rule="evenodd" /><path transform="matrix(1 0 0 -1 0 595)" d="M690.34 339.19L690.82 339.19L690.82 339.19L690.82 358.27L690.82 358.27L690.34 358.27z" stroke="none" fill="#000000" fill-rule="evenodd" /><g clip-path="url(#72)"><g clip-path="url(#73)"></g><g clip-path="url(#74)"></g></g><g clip-path="url(#75)"><g clip-path="url(#76)"></g><g clip-path="url(#77)"></g></g><path transform="matrix(1 0 0 -1 0 595)" d="M556.63 338.71L557.11 338.71L557.11 338.71L557.11 339.19L557.11 339.19L556.63 339.19z" stroke="none" fill="#000000" fill-rule="evenodd" /><path transform="matrix(1 0 0 -1 0 595)" d="M557.11 338.71L595.51 338.71L595.51 338.71L595.51 339.19L595.51 339.19L557.11 339.19z" stroke="none" fill="#000000" fill-rule="evenodd" /><path transform="matrix(1 0 0 -1 0 595)" d="M595.51 338.71L595.99 338.71L595.99 338.71L595.99 339.19L595.99 339.19L595.51 339.19z" stroke="none" fill="#000000" fill-rule="evenodd" /><path transform="matrix(1 0 0 -1 0 595)" d="M595.99 338.71L690.334 338.71L690.334 338.71L690.334 339.19L690.334 339.19L595.99 339.19z" stroke="none" fill="#000000" fill-rule="evenodd" /><path transform="matrix(1 0 0 -1 0 595)" d="M690.34 338.71L690.82 338.71L690.82 338.71L690.82 339.19L690.82 339.19L690.34 339.19z" stroke="none" fill="#000000" fill-rule="evenodd" /><path transform="matrix(1 0 0 -1 0 595)" d="M556.63 319.63L557.11 319.63L557.11 319.63L557.11 338.71L557.11 338.71L556.63 338.71z" stroke="none" fill="#000000" fill-rule="evenodd" /><path transform="matrix(1 0 0 -1 0 595)" d="M595.51 319.63L595.99 319.63L595.99 319.63L595.99 338.71L595.99 338.71L595.51 338.71z" stroke="none" fill="#000000" fill-rule="evenodd" /><path transform="matrix(1 0 0 -1 0 595)" d="M690.34 319.63L690.82 319.63L690.82 319.63L690.82 338.71L690.82 338.71L690.34 338.71z" stroke="none" fill="#000000" fill-rule="evenodd" /><path transform="matrix(1 0 0 -1 0 595)" d="M557.11 300.19L595.39 300.19L595.39 300.19L595.39 319.15L595.39 319.15L557.11 319.15z" stroke="none" fill="#DAEEF3" fill-rule="evenodd" /><g clip-path="url(#78)"><path transform="matrix(1 0 0 -1 0 595)" d="M562.27 300.19L590.23 300.19L590.23 300.19L590.23 319.15L590.23 319.15L562.27 319.15z" stroke="none" fill="#DAEEF3" fill-rule="evenodd" /><g clip-path="url(#79)"></g><g clip-path="url(#80)"></g></g><path transform="matrix(1 0 0 -1 0 595)" d="M595.87 300.19L690.214 300.19L690.214 300.19L690.214 319.15L690.214 319.15L595.87 319.15z" stroke="none" fill="#DAEEF3" fill-rule="evenodd" /><g clip-path="url(#81)"><path transform="matrix(1 0 0 -1 0 595)" d="M601.03 300.19L685.054 300.19L685.054 300.19L685.054 319.15L685.054 319.15L601.03 319.15z" stroke="none" fill="#DAEEF3" fill-rule="evenodd" /><g clip-path="url(#82)"></g><g clip-path="url(#83)"></g></g><path transform="matrix(1 0 0 -1 0 595)" d="M556.63 319.15L557.11 319.15L557.11 319.15L557.11 319.63L557.11 319.63L556.63 319.63z" stroke="none" fill="#000000" fill-rule="evenodd" /><path transform="matrix(1 0 0 -1 0 595)" d="M557.11 319.15L595.51 319.15L595.51 319.15L595.51 319.63L595.51 319.63L557.11 319.63z" stroke="none" fill="#000000" fill-rule="evenodd" /><path transform="matrix(1 0 0 -1 0 595)" d="M595.51 319.15L595.99 319.15L595.99 319.15L595.99 319.63L595.99 319.63L595.51 319.63z" stroke="none" fill="#000000" fill-rule="evenodd" /><path transform="matrix(1 0 0 -1 0 595)" d="M595.99 319.15L690.334 319.15L690.334 319.15L690.334 319.63L690.334 319.63L595.99 319.63z" stroke="none" fill="#000000" fill-rule="evenodd" /><path transform="matrix(1 0 0 -1 0 595)" d="M690.34 319.15L690.82 319.15L690.82 319.15L690.82 319.63L690.82 319.63L690.34 319.63z" stroke="none" fill="#000000" fill-rule="evenodd" /><path transform="matrix(1 0 0 -1 0 595)" d="M556.63 300.19L557.11 300.19L557.11 300.19L557.11 319.15L557.11 319.15L556.63 319.15z" stroke="none" fill="#000000" fill-rule="evenodd" /><path transform="matrix(1 0 0 -1 0 595)" d="M595.51 300.19L595.99 300.19L595.99 300.19L595.99 319.15L595.99 319.15L595.51 319.15z" stroke="none" fill="#000000" fill-rule="evenodd" /><path transform="matrix(1 0 0 -1 0 595)" d="M690.34 300.19L690.82 300.19L690.82 300.19L690.82 319.15L690.82 319.15L690.34 319.15z" stroke="none" fill="#000000" fill-rule="evenodd" /><g clip-path="url(#84)"><g clip-path="url(#85)"></g><g clip-path="url(#86)"></g></g><g clip-path="url(#87)"><g clip-path="url(#88)"></g><g clip-path="url(#89)"></g></g><path transform="matrix(1 0 0 -1 0 595)" d="M556.63 299.71L557.11 299.71L557.11 299.71L557.11 300.19L557.11 300.19L556.63 300.19z" stroke="none" fill="#000000" fill-rule="evenodd" /><path transform="matrix(1 0 0 -1 0 595)" d="M557.11 299.71L595.51 299.71L595.51 299.71L595.51 300.19L595.51 300.19L557.11 300.19z" stroke="none" fill="#000000" fill-rule="evenodd" /><path transform="matrix(1 0 0 -1 0 595)" d="M595.51 299.71L595.99 299.71L595.99 299.71L595.99 300.19L595.99 300.19L595.51 300.19z" stroke="none" fill="#000000" fill-rule="evenodd" /><path transform="matrix(1 0 0 -1 0 595)" d="M595.99 299.71L690.334 299.71L690.334 299.71L690.334 300.19L690.334 300.19L595.99 300.19z" stroke="none" fill="#000000" fill-rule="evenodd" /><path transform="matrix(1 0 0 -1 0 595)" d="M690.34 299.71L690.82 299.71L690.82 299.71L690.82 300.19L690.82 300.19L690.34 300.19z" stroke="none" fill="#000000" fill-rule="evenodd" /><path transform="matrix(1 0 0 -1 0 595)" d="M556.63 271.99L557.11 271.99L557.11 271.99L557.11 299.71L557.11 299.71L556.63 299.71z" stroke="none" fill="#000000" fill-rule="evenodd" /><path transform="matrix(1 0 0 -1 0 595)" d="M595.51 271.99L595.99 271.99L595.99 271.99L595.99 299.71L595.99 299.71L595.51 299.71z" stroke="none" fill="#000000" fill-rule="evenodd" /><path transform="matrix(1 0 0 -1 0 595)" d="M690.34 271.99L690.82 271.99L690.82 271.99L690.82 299.71L690.82 299.71L690.34 299.71z" stroke="none" fill="#000000" fill-rule="evenodd" /><path transform="matrix(1 0 0 -1 0 595)" d="M557.11 243.77L595.39 243.77L595.39 243.77L595.39 271.514L595.39 271.514L557.11 271.514z" stroke="none" fill="#DAEEF3" fill-rule="evenodd" /><g clip-path="url(#90)"><path transform="matrix(1 0 0 -1 0 595)" d="M562.27 244.85L590.23 244.85L590.23 244.85L590.23 271.514L590.23 271.514L562.27 271.514z" stroke="none" fill="#DAEEF3" fill-rule="evenodd" /><g clip-path="url(#91)"></g><g clip-path="url(#92)"></g></g><path transform="matrix(1 0 0 -1 0 595)" d="M595.87 243.77L690.214 243.77L690.214 243.77L690.214 271.514L690.214 271.514L595.87 271.514z" stroke="none" fill="#DAEEF3" fill-rule="evenodd" /><g clip-path="url(#93)"><path transform="matrix(1 0 0 -1 0 595)" d="M601.03 243.77L685.054 243.77L685.054 243.77L685.054 271.514L685.054 271.514L601.03 271.514z" stroke="none" fill="#DAEEF3" fill-rule="evenodd" /><g clip-path="url(#94)"></g><g clip-path="url(#95)"></g></g><path transform="matrix(1 0 0 -1 0 595)" d="M556.63 271.51L557.11 271.51L557.11 271.51L557.11 271.99L557.11 271.99L556.63 271.99z" stroke="none" fill="#000000" fill-rule="evenodd" /><path transform="matrix(1 0 0 -1 0 595)" d="M557.11 271.51L595.51 271.51L595.51 271.51L595.51 271.99L595.51 271.99L557.11 271.99z" stroke="none" fill="#000000" fill-rule="evenodd" /><path transform="matrix(1 0 0 -1 0 595)" d="M595.51 271.51L595.99 271.51L595.99 271.51L595.99 271.99L595.99 271.99L595.51 271.99z" stroke="none" fill="#000000" fill-rule="evenodd" /><path transform="matrix(1 0 0 -1 0 595)" d="M595.99 271.51L690.334 271.51L690.334 271.51L690.334 271.99L690.334 271.99L595.99 271.99z" stroke="none" fill="#000000" fill-rule="evenodd" /><path transform="matrix(1 0 0 -1 0 595)" d="M690.34 271.51L690.82 271.51L690.82 271.51L690.82 271.99L690.82 271.99L690.34 271.99z" stroke="none" fill="#000000" fill-rule="evenodd" /><path transform="matrix(1 0 0 -1 0 595)" d="M556.63 243.77L557.11 243.77L557.11 243.77L557.11 271.514L557.11 271.514L556.63 271.514z" stroke="none" fill="#000000" fill-rule="evenodd" /><path transform="matrix(1 0 0 -1 0 595)" d="M595.51 243.77L595.99 243.77L595.99 243.77L595.99 271.514L595.99 271.514L595.51 271.514z" stroke="none" fill="#000000" fill-rule="evenodd" /><path transform="matrix(1 0 0 -1 0 595)" d="M690.34 243.77L690.82 243.77L690.82 243.77L690.82 271.514L690.82 271.514L690.34 271.514z" stroke="none" fill="#000000" fill-rule="evenodd" /><g clip-path="url(#96)"><g clip-path="url(#97)"></g><g clip-path="url(#98)"></g></g><g clip-path="url(#99)"><g clip-path="url(#100)"></g><g clip-path="url(#101)"></g></g><path transform="matrix(1 0 0 -1 0 595)" d="M556.63 243.29L557.11 243.29L557.11 243.29L557.11 243.77L557.11 243.77L556.63 243.77z" stroke="none" fill="#000000" fill-rule="evenodd" /><path transform="matrix(1 0 0 -1 0 595)" d="M557.11 243.29L595.51 243.29L595.51 243.29L595.51 243.77L595.51 243.77L557.11 243.77z" stroke="none" fill="#000000" fill-rule="evenodd" /><path transform="matrix(1 0 0 -1 0 595)" d="M595.51 243.29L595.99 243.29L595.99 243.29L595.99 243.77L595.99 243.77L595.51 243.77z" stroke="none" fill="#000000" fill-rule="evenodd" /><path transform="matrix(1 0 0 -1 0 595)" d="M595.99 243.29L690.334 243.29L690.334 243.29L690.334 243.77L690.334 243.77L595.99 243.77z" stroke="none" fill="#000000" fill-rule="evenodd" /><path transform="matrix(1 0 0 -1 0 595)" d="M690.34 243.29L690.82 243.29L690.82 243.29L690.82 243.77L690.82 243.77L690.34 243.77z" stroke="none" fill="#000000" fill-rule="evenodd" /><path transform="matrix(1 0 0 -1 0 595)" d="M556.63 215.57L557.11 215.57L557.11 215.57L557.11 243.29L557.11 243.29L556.63 243.29z" stroke="none" fill="#000000" fill-rule="evenodd" /><path transform="matrix(1 0 0 -1 0 595)" d="M556.63 215.09L557.11 215.09L557.11 215.09L557.11 215.57L557.11 215.57L556.63 215.57z" stroke="none" fill="#000000" fill-rule="evenodd" /><path transform="matrix(1 0 0 -1 0 595)" d="M556.63 215.09L557.11 215.09L557.11 215.09L557.11 215.57L557.11 215.57L556.63 215.57z" stroke="none" fill="#000000" fill-rule="evenodd" /><path transform="matrix(1 0 0 -1 0 595)" d="M557.11 215.09L595.51 215.09L595.51 215.09L595.51 215.57L595.51 215.57L557.11 215.57z" stroke="none" fill="#000000" fill-rule="evenodd" /><path transform="matrix(1 0 0 -1 0 595)" d="M595.51 215.57L595.99 215.57L595.99 215.57L595.99 243.29L595.99 243.29L595.51 243.29z" stroke="none" fill="#000000" fill-rule="evenodd" /><path transform="matrix(1 0 0 -1 0 595)" d="M595.51 215.09L595.99 215.09L595.99 215.09L595.99 215.57L595.99 215.57L595.51 215.57z" stroke="none" fill="#000000" fill-rule="evenodd" /><path transform="matrix(1 0 0 -1 0 595)" d="M595.99 215.09L690.334 215.09L690.334 215.09L690.334 215.57L690.334 215.57L595.99 215.57z" stroke="none" fill="#000000" fill-rule="evenodd" /><path transform="matrix(1 0 0 -1 0 595)" d="M690.34 215.57L690.82 215.57L690.82 215.57L690.82 243.29L690.82 243.29L690.34 243.29z" stroke="none" fill="#000000" fill-rule="evenodd" /><path transform="matrix(1 0 0 -1 0 595)" d="M690.34 215.09L690.82 215.09L690.82 215.09L690.82 215.57L690.82 215.57L690.34 215.57z" stroke="none" fill="#000000" fill-rule="evenodd" /><path transform="matrix(1 0 0 -1 0 595)" d="M690.34 215.09L690.82 215.09L690.82 215.09L690.82 215.57L690.82 215.57L690.34 215.57z" stroke="none" fill="#000000" fill-rule="evenodd" /><g clip-path="url(#102)"><g clip-path="url(#103)"></g></g><path transform="matrix(1 0 0 -1 0 595)" d="M84.24 417.46L84.72 417.46L84.72 417.46L84.72 417.94L84.72 417.94L84.24 417.94z" stroke="none" fill="#000000" fill-rule="evenodd" /><path transform="matrix(1 0 0 -1 0 595)" d="M84.72 417.46L204.86 417.46L204.86 417.46L204.86 417.94L204.86 417.94L84.72 417.94z" stroke="none" fill="#000000" fill-rule="evenodd" /><path transform="matrix(1 0 0 -1 0 595)" d="M204.86 417.46L205.34 417.46L205.34 417.46L205.34 417.94L205.34 417.94L204.86 417.94z" stroke="none" fill="#000000" fill-rule="evenodd" /><path transform="matrix(1 0 0 -1 0 595)" d="M205.34 417.46L275.42 417.46L275.42 417.46L275.42 417.94L275.42 417.94L205.34 417.94z" stroke="none" fill="#000000" fill-rule="evenodd" /><path transform="matrix(1 0 0 -1 0 595)" d="M275.42 417.46L275.9 417.46L275.9 417.46L275.9 417.94L275.9 417.94L275.42 417.94z" stroke="none" fill="#000000" fill-rule="evenodd" /><path transform="matrix(1 0 0 -1 0 595)" d="M275.9 417.46L319.604 417.46L319.604 417.46L319.604 417.94L319.604 417.94L275.9 417.94z" stroke="none" fill="#000000" fill-rule="evenodd" /><path transform="matrix(1 0 0 -1 0 595)" d="M319.61 417.46L320.09 417.46L320.09 417.46L320.09 417.94L320.09 417.94L319.61 417.94z" stroke="none" fill="#000000" fill-rule="evenodd" /><path transform="matrix(1 0 0 -1 0 595)" d="M320.09 417.46L496.27 417.46L496.27 417.46L496.27 417.94L496.27 417.94L320.09 417.94z" stroke="none" fill="#000000" fill-rule="evenodd" /><path transform="matrix(1 0 0 -1 0 595)" d="M496.27 417.46L496.75 417.46L496.75 417.46L496.75 417.94L496.75 417.94L496.27 417.94z" stroke="none" fill="#000000" fill-rule="evenodd" /><path transform="matrix(1 0 0 -1 0 595)" d="M496.75 417.46L750.69 417.46L750.69 417.46L750.69 417.94L750.69 417.94L496.75 417.94z" stroke="none" fill="#000000" fill-rule="evenodd" /><path transform="matrix(1 0 0 -1 0 595)" d="M750.7 417.46L751.1801 417.46L751.1801 417.46L751.1801 417.94L751.1801 417.94L750.7 417.94z" stroke="none" fill="#000000" fill-rule="evenodd" /><path transform="matrix(1 0 0 -1 0 595)" d="M84.24 215.09L84.72 215.09L84.72 215.09L84.72 417.46L84.72 417.46L84.24 417.46z" stroke="none" fill="#000000" fill-rule="evenodd" /><path transform="matrix(1 0 0 -1 0 595)" d="M204.86 215.09L205.34 215.09L205.34 215.09L205.34 417.46L205.34 417.46L204.86 417.46z" stroke="none" fill="#000000" fill-rule="evenodd" /><path transform="matrix(1 0 0 -1 0 595)" d="M275.42 215.09L275.9 215.09L275.9 215.09L275.9 417.46L275.9 417.46L275.42 417.46z" stroke="none" fill="#000000" fill-rule="evenodd" /><path transform="matrix(1 0 0 -1 0 595)" d="M319.61 215.09L320.09 215.09L320.09 215.09L320.09 417.46L320.09 417.46L319.61 417.46z" stroke="none" fill="#000000" fill-rule="evenodd" /><path transform="matrix(1 0 0 -1 0 595)" d="M496.27 215.09L496.75 215.09L496.75 215.09L496.75 417.46L496.75 417.46L496.27 417.46z" stroke="none" fill="#000000" fill-rule="evenodd" /><path transform="matrix(1 0 0 -1 0 595)" d="M750.7 215.09L751.1801 215.09L751.1801 215.09L751.1801 417.46L751.1801 417.46L750.7 417.46z" stroke="none" fill="#000000" fill-rule="evenodd" /><path transform="matrix(1 0 0 -1 0 595)" d="M84.72 113.54L204.86 113.54L204.86 113.54L204.86 214.6L204.86 214.6L84.72 214.6z" stroke="none" fill="#DAEEF3" fill-rule="evenodd" /><g clip-path="url(#104)"><path transform="matrix(1 0 0 -1 0 595)" d="M89.88 195.65L199.7 195.65L199.7 195.65L199.7 214.61L199.7 214.61L89.88 214.61z" stroke="none" fill="#DAEEF3" fill-rule="evenodd" /><g clip-path="url(#105)"></g><g clip-path="url(#106)"></g></g><path transform="matrix(1 0 0 -1 0 595)" d="M205.34 113.54L275.42 113.54L275.42 113.54L275.42 214.6L275.42 214.6L205.34 214.6z" stroke="none" fill="#DAEEF3" fill-rule="evenodd" /><g clip-path="url(#107)"><path transform="matrix(1 0 0 -1 0 595)" d="M210.5 195.65L270.26 195.65L270.26 195.65L270.26 214.61L270.26 214.61L210.5 214.61z" stroke="none" fill="#DAEEF3" fill-rule="evenodd" /><g clip-path="url(#108)"></g><g clip-path="url(#109)"></g></g><path transform="matrix(1 0 0 -1 0 595)" d="M275.9 113.54L319.604 113.54L319.604 113.54L319.604 214.6L319.604 214.6L275.9 214.6z" stroke="none" fill="#DAEEF3" fill-rule="evenodd" /><g clip-path="url(#110)"><path transform="matrix(1 0 0 -1 0 595)" d="M281.06 195.65L314.444 195.65L314.444 195.65L314.444 214.61L314.444 214.61L281.06 214.61z" stroke="none" fill="#DAEEF3" fill-rule="evenodd" /><g clip-path="url(#111)"></g><g clip-path="url(#112)"></g></g><path transform="matrix(1 0 0 -1 0 595)" d="M320.09 113.54L496.27 113.54L496.27 113.54L496.27 214.6L496.27 214.6L320.09 214.6z" stroke="none" fill="#DAEEF3" fill-rule="evenodd" /><g clip-path="url(#113)"><path transform="matrix(1 0 0 -1 0 595)" d="M325.25 195.65L491.11 195.65L491.11 195.65L491.11 214.61L491.11 214.61L325.25 214.61z" stroke="none" fill="#DAEEF3" fill-rule="evenodd" /><g clip-path="url(#114)"></g><g clip-path="url(#115)"></g></g><path transform="matrix(1 0 0 -1 0 595)" d="M496.75 113.54L750.69 113.54L750.69 113.54L750.69 214.6L750.69 214.6L496.75 214.6z" stroke="none" fill="#DAEEF3" fill-rule="evenodd" /><path transform="matrix(1 0 0 -1 0 595)" d="M501.91 195.05L531.91 195.05L531.91 195.05L531.91 214.61L531.91 214.61L501.91 214.61z" stroke="none" fill="#DAEEF3" fill-rule="evenodd" /><path transform="matrix(1 0 0 -1 0 595)" d="M715.66 195.05L745.54 195.05L745.54 195.05L745.54 214.61L745.54 214.61L715.66 214.61z" stroke="none" fill="#DAEEF3" fill-rule="evenodd" /><path transform="matrix(1 0 0 -1 0 595)" d="M532.27 195.05L577.63 195.05L577.63 195.05L577.63 214.13L577.63 214.13L532.27 214.13z" stroke="none" fill="#0070C0" fill-rule="evenodd" /><g clip-path="url(#116)"><path transform="matrix(1 0 0 -1 0 595)" d="M537.43 195.05L572.47 195.05L572.47 195.05L572.47 214.13L572.47 214.13L537.43 214.13z" stroke="none" fill="#0070C0" fill-rule="evenodd" /><g clip-path="url(#117)"></g><g clip-path="url(#118)"></g></g><path transform="matrix(1 0 0 -1 0 595)" d="M578.23 195.05L715.05 195.05L715.05 195.05L715.05 214.13L715.05 214.13L578.23 214.13z" stroke="none" fill="#0070C0" fill-rule="evenodd" /><g clip-path="url(#119)"><path transform="matrix(1 0 0 -1 0 595)" d="M583.27 195.05L709.89 195.05L709.89 195.05L709.89 214.13L709.89 214.13L583.27 214.13z" stroke="none" fill="#0070C0" fill-rule="evenodd" /><g clip-path="url(#120)"></g><g clip-path="url(#121)"></g></g><path transform="matrix(1 0 0 -1 0 595)" d="M531.91 214.13L532.39 214.13L532.39 214.13L532.39 214.61L532.39 214.61L531.91 214.61z" stroke="none" fill="#000000" fill-rule="evenodd" /><path transform="matrix(1 0 0 -1 0 595)" d="M531.91 214.13L532.39 214.13L532.39 214.13L532.39 214.61L532.39 214.61L531.91 214.61z" stroke="none" fill="#000000" fill-rule="evenodd" /><path transform="matrix(1 0 0 -1 0 595)" d="M532.39 214.13L577.75 214.13L577.75 214.13L577.75 214.61L577.75 214.61L532.39 214.61z" stroke="none" fill="#000000" fill-rule="evenodd" /><path transform="matrix(1 0 0 -1 0 595)" d="M577.75 214.13L578.23 214.13L578.23 214.13L578.23 214.61L578.23 214.61L577.75 214.61z" stroke="none" fill="#000000" fill-rule="evenodd" /><path transform="matrix(1 0 0 -1 0 595)" d="M578.23 214.13L715.17 214.13L715.17 214.13L715.17 214.61L715.17 214.61L578.23 214.61z" stroke="none" fill="#000000" fill-rule="evenodd" /><path transform="matrix(1 0 0 -1 0 595)" d="M715.18 214.13L715.66 214.13L715.66 214.13L715.66 214.61L715.66 214.61L715.18 214.61z" stroke="none" fill="#000000" fill-rule="evenodd" /><path transform="matrix(1 0 0 -1 0 595)" d="M715.18 214.13L715.66 214.13L715.66 214.13L715.66 214.61L715.66 214.61L715.18 214.61z" stroke="none" fill="#000000" fill-rule="evenodd" /><path transform="matrix(1 0 0 -1 0 595)" d="M531.91 195.05L532.39 195.05L532.39 195.05L532.39 214.13L532.39 214.13L531.91 214.13z" stroke="none" fill="#000000" fill-rule="evenodd" /><path transform="matrix(1 0 0 -1 0 595)" d="M577.75 195.05L578.23 195.05L578.23 195.05L578.23 214.13L578.23 214.13L577.75 214.13z" stroke="none" fill="#000000" fill-rule="evenodd" /><path transform="matrix(1 0 0 -1 0 595)" d="M715.18 195.05L715.66 195.05L715.66 195.05L715.66 214.13L715.66 214.13L715.18 214.13z" stroke="none" fill="#000000" fill-rule="evenodd" /><path transform="matrix(1 0 0 -1 0 595)" d="M501.91 175.61L531.91 175.61L531.91 175.61L531.91 195.05L531.91 195.05L501.91 195.05z" stroke="none" fill="#DAEEF3" fill-rule="evenodd" /><path transform="matrix(1 0 0 -1 0 595)" d="M715.66 175.61L745.54 175.61L745.54 175.61L745.54 195.05L745.54 195.05L715.66 195.05z" stroke="none" fill="#DAEEF3" fill-rule="evenodd" /><path transform="matrix(1 0 0 -1 0 595)" d="M532.27 175.61L577.63 175.61L577.63 175.61L577.63 194.57L577.63 194.57L532.27 194.57z" stroke="none" fill="#DAEEF3" fill-rule="evenodd" /><g clip-path="url(#122)"><path transform="matrix(1 0 0 -1 0 595)" d="M537.43 175.61L572.47 175.61L572.47 175.61L572.47 194.57L572.47 194.57L537.43 194.57z" stroke="none" fill="#DAEEF3" fill-rule="evenodd" /><g clip-path="url(#123)"></g><g clip-path="url(#124)"></g></g><path transform="matrix(1 0 0 -1 0 595)" d="M578.23 175.61L715.05 175.61L715.05 175.61L715.05 194.57L715.05 194.57L578.23 194.57z" stroke="none" fill="#DAEEF3" fill-rule="evenodd" /><g clip-path="url(#125)"><path transform="matrix(1 0 0 -1 0 595)" d="M583.27 175.61L709.89 175.61L709.89 175.61L709.89 194.57L709.89 194.57L583.27 194.57z" stroke="none" fill="#DAEEF3" fill-rule="evenodd" /><g clip-path="url(#126)"></g><g clip-path="url(#127)"></g></g><path transform="matrix(1 0 0 -1 0 595)" d="M531.91 194.57L532.39 194.57L532.39 194.57L532.39 195.05L532.39 195.05L531.91 195.05z" stroke="none" fill="#000000" fill-rule="evenodd" /><path transform="matrix(1 0 0 -1 0 595)" d="M532.39 194.57L577.75 194.57L577.75 194.57L577.75 195.05L577.75 195.05L532.39 195.05z" stroke="none" fill="#000000" fill-rule="evenodd" /><path transform="matrix(1 0 0 -1 0 595)" d="M577.75 194.57L578.23 194.57L578.23 194.57L578.23 195.05L578.23 195.05L577.75 195.05z" stroke="none" fill="#000000" fill-rule="evenodd" /><path transform="matrix(1 0 0 -1 0 595)" d="M578.23 194.57L715.17 194.57L715.17 194.57L715.17 195.05L715.17 195.05L578.23 195.05z" stroke="none" fill="#000000" fill-rule="evenodd" /><path transform="matrix(1 0 0 -1 0 595)" d="M715.18 194.57L715.66 194.57L715.66 194.57L715.66 195.05L715.66 195.05L715.18 195.05z" stroke="none" fill="#000000" fill-rule="evenodd" /><path transform="matrix(1 0 0 -1 0 595)" d="M531.91 175.61L532.39 175.61L532.39 175.61L532.39 194.57L532.39 194.57L531.91 194.57z" stroke="none" fill="#000000" fill-rule="evenodd" /><path transform="matrix(1 0 0 -1 0 595)" d="M577.75 175.61L578.23 175.61L578.23 175.61L578.23 194.57L578.23 194.57L577.75 194.57z" stroke="none" fill="#000000" fill-rule="evenodd" /><path transform="matrix(1 0 0 -1 0 595)" d="M715.18 175.61L715.66 175.61L715.66 175.61L715.66 194.57L715.66 194.57L715.18 194.57z" stroke="none" fill="#000000" fill-rule="evenodd" /><path transform="matrix(1 0 0 -1 0 595)" d="M501.91 155.45L531.91 155.45L531.91 155.45L531.91 175.61L531.91 175.61L501.91 175.61z" stroke="none" fill="#DAEEF3" fill-rule="evenodd" /><path transform="matrix(1 0 0 -1 0 595)" d="M715.66 155.45L745.54 155.45L745.54 155.45L745.54 175.61L745.54 175.61L715.66 175.61z" stroke="none" fill="#DAEEF3" fill-rule="evenodd" /><path transform="matrix(1 0 0 -1 0 595)" d="M532.27 156.05L577.63 156.05L577.63 156.05L577.63 175.01L577.63 175.01L532.27 175.01z" stroke="none" fill="#DAEEF3" fill-rule="evenodd" /><g clip-path="url(#128)"><path transform="matrix(1 0 0 -1 0 595)" d="M537.43 156.05L572.47 156.05L572.47 156.05L572.47 175.01L572.47 175.01L537.43 175.01z" stroke="none" fill="#DAEEF3" fill-rule="evenodd" /><g clip-path="url(#129)"></g><g clip-path="url(#130)"></g></g><path transform="matrix(1 0 0 -1 0 595)" d="M578.23 156.05L715.05 156.05L715.05 156.05L715.05 175.01L715.05 175.01L578.23 175.01z" stroke="none" fill="#DAEEF3" fill-rule="evenodd" /><g clip-path="url(#131)"><path transform="matrix(1 0 0 -1 0 595)" d="M583.27 156.05L709.89 156.05L709.89 156.05L709.89 175.01L709.89 175.01L583.27 175.01z" stroke="none" fill="#DAEEF3" fill-rule="evenodd" /><g clip-path="url(#132)"></g><g clip-path="url(#133)"></g></g><path transform="matrix(1 0 0 -1 0 595)" d="M531.91 175.13L532.39 175.13L532.39 175.13L532.39 175.61L532.39 175.61L531.91 175.61z" stroke="none" fill="#000000" fill-rule="evenodd" /><path transform="matrix(1 0 0 -1 0 595)" d="M532.39 175.13L577.75 175.13L577.75 175.13L577.75 175.61L577.75 175.61L532.39 175.61z" stroke="none" fill="#000000" fill-rule="evenodd" /><path transform="matrix(1 0 0 -1 0 595)" d="M577.75 175.13L578.23 175.13L578.23 175.13L578.23 175.61L578.23 175.61L577.75 175.61z" stroke="none" fill="#000000" fill-rule="evenodd" /><path transform="matrix(1 0 0 -1 0 595)" d="M578.23 175.13L715.17 175.13L715.17 175.13L715.17 175.61L715.17 175.61L578.23 175.61z" stroke="none" fill="#000000" fill-rule="evenodd" /><path transform="matrix(1 0 0 -1 0 595)" d="M715.18 175.13L715.66 175.13L715.66 175.13L715.66 175.61L715.66 175.61L715.18 175.61z" stroke="none" fill="#000000" fill-rule="evenodd" /><path transform="matrix(1 0 0 -1 0 595)" d="M531.91 155.93L532.39 155.93L532.39 155.93L532.39 175.13L532.39 175.13L531.91 175.13z" stroke="none" fill="#000000" fill-rule="evenodd" /><path transform="matrix(1 0 0 -1 0 595)" d="M531.91 155.45L532.39 155.45L532.39 155.45L532.39 155.93L532.39 155.93L531.91 155.93z" stroke="none" fill="#000000" fill-rule="evenodd" /><path transform="matrix(1 0 0 -1 0 595)" d="M531.91 155.45L532.39 155.45L532.39 155.45L532.39 155.93L532.39 155.93L531.91 155.93z" stroke="none" fill="#000000" fill-rule="evenodd" /><path transform="matrix(1 0 0 -1 0 595)" d="M532.39 155.45L577.75 155.45L577.75 155.45L577.75 155.93L577.75 155.93L532.39 155.93z" stroke="none" fill="#000000" fill-rule="evenodd" /><path transform="matrix(1 0 0 -1 0 595)" d="M577.75 155.93L578.23 155.93L578.23 155.93L578.23 175.13L578.23 175.13L577.75 175.13z" stroke="none" fill="#000000" fill-rule="evenodd" /><path transform="matrix(1 0 0 -1 0 595)" d="M577.75 155.45L578.23 155.45L578.23 155.45L578.23 155.93L578.23 155.93L577.75 155.93z" stroke="none" fill="#000000" fill-rule="evenodd" /><path transform="matrix(1 0 0 -1 0 595)" d="M578.23 155.45L715.17 155.45L715.17 155.45L715.17 155.93L715.17 155.93L578.23 155.93z" stroke="none" fill="#000000" fill-rule="evenodd" /><path transform="matrix(1 0 0 -1 0 595)" d="M715.18 155.93L715.66 155.93L715.66 155.93L715.66 175.13L715.66 175.13L715.18 175.13z" stroke="none" fill="#000000" fill-rule="evenodd" /><path transform="matrix(1 0 0 -1 0 595)" d="M715.18 155.45L715.66 155.45L715.66 155.45L715.66 155.93L715.66 155.93L715.18 155.93z" stroke="none" fill="#000000" fill-rule="evenodd" /><path transform="matrix(1 0 0 -1 0 595)" d="M715.18 155.45L715.66 155.45L715.66 155.45L715.66 155.93L715.66 155.93L715.18 155.93z" stroke="none" fill="#000000" fill-rule="evenodd" /><g clip-path="url(#134)"><g clip-path="url(#135)"></g></g><path transform="matrix(1 0 0 -1 0 595)" d="M84.24 214.61L84.72 214.61L84.72 214.61L84.72 215.09L84.72 215.09L84.24 215.09z" stroke="none" fill="#000000" fill-rule="evenodd" /><path transform="matrix(1 0 0 -1 0 595)" d="M84.72 214.61L204.86 214.61L204.86 214.61L204.86 215.09L204.86 215.09L84.72 215.09z" stroke="none" fill="#000000" fill-rule="evenodd" /><path transform="matrix(1 0 0 -1 0 595)" d="M204.86 214.61L205.34 214.61L205.34 214.61L205.34 215.09L205.34 215.09L204.86 215.09z" stroke="none" fill="#000000" fill-rule="evenodd" /><path transform="matrix(1 0 0 -1 0 595)" d="M205.34 214.61L275.42 214.61L275.42 214.61L275.42 215.09L275.42 215.09L205.34 215.09z" stroke="none" fill="#000000" fill-rule="evenodd" /><path transform="matrix(1 0 0 -1 0 595)" d="M275.42 214.61L275.9 214.61L275.9 214.61L275.9 215.09L275.9 215.09L275.42 215.09z" stroke="none" fill="#000000" fill-rule="evenodd" /><path transform="matrix(1 0 0 -1 0 595)" d="M275.9 214.61L319.604 214.61L319.604 214.61L319.604 215.09L319.604 215.09L275.9 215.09z" stroke="none" fill="#000000" fill-rule="evenodd" /><path transform="matrix(1 0 0 -1 0 595)" d="M319.61 214.61L320.09 214.61L320.09 214.61L320.09 215.09L320.09 215.09L319.61 215.09z" stroke="none" fill="#000000" fill-rule="evenodd" /><path transform="matrix(1 0 0 -1 0 595)" d="M320.09 214.61L496.27 214.61L496.27 214.61L496.27 215.09L496.27 215.09L320.09 215.09z" stroke="none" fill="#000000" fill-rule="evenodd" /><path transform="matrix(1 0 0 -1 0 595)" d="M496.27 214.61L496.75 214.61L496.75 214.61L496.75 215.09L496.75 215.09L496.27 215.09z" stroke="none" fill="#000000" fill-rule="evenodd" /><path transform="matrix(1 0 0 -1 0 595)" d="M496.75 214.61L750.69 214.61L750.69 214.61L750.69 215.09L750.69 215.09L496.75 215.09z" stroke="none" fill="#000000" fill-rule="evenodd" /><path transform="matrix(1 0 0 -1 0 595)" d="M750.7 214.61L751.1801 214.61L751.1801 214.61L751.1801 215.09L751.1801 215.09L750.7 215.09z" stroke="none" fill="#000000" fill-rule="evenodd" /><path transform="matrix(1 0 0 -1 0 595)" d="M84.24 113.54L84.72 113.54L84.72 113.54L84.72 214.6L84.72 214.6L84.24 214.6z" stroke="none" fill="#000000" fill-rule="evenodd" /><path transform="matrix(1 0 0 -1 0 595)" d="M204.86 113.54L205.34 113.54L205.34 113.54L205.34 214.6L205.34 214.6L204.86 214.6z" stroke="none" fill="#000000" fill-rule="evenodd" /><path transform="matrix(1 0 0 -1 0 595)" d="M275.42 113.54L275.9 113.54L275.9 113.54L275.9 214.6L275.9 214.6L275.42 214.6z" stroke="none" fill="#000000" fill-rule="evenodd" /><path transform="matrix(1 0 0 -1 0 595)" d="M319.61 113.54L320.09 113.54L320.09 113.54L320.09 214.6L320.09 214.6L319.61 214.6z" stroke="none" fill="#000000" fill-rule="evenodd" /><path transform="matrix(1 0 0 -1 0 595)" d="M496.27 113.54L496.75 113.54L496.75 113.54L496.75 214.6L496.75 214.6L496.27 214.6z" stroke="none" fill="#000000" fill-rule="evenodd" /><path transform="matrix(1 0 0 -1 0 595)" d="M750.7 113.54L751.1801 113.54L751.1801 113.54L751.1801 214.6L751.1801 214.6L750.7 214.6z" stroke="none" fill="#000000" fill-rule="evenodd" /><g clip-path="url(#136)"><g clip-path="url(#137)"></g><g clip-path="url(#138)"></g></g><g clip-path="url(#139)"><g clip-path="url(#140)"></g><g clip-path="url(#141)"></g></g><g clip-path="url(#142)"><g clip-path="url(#143)"></g><g clip-path="url(#144)"></g></g><g clip-path="url(#145)"><g clip-path="url(#146)"></g><g clip-path="url(#147)"></g><g clip-path="url(#148)"></g><g clip-path="url(#149)"></g></g><g clip-path="url(#150)"><g clip-path="url(#151)"></g><g clip-path="url(#152)"></g></g><path transform="matrix(1 0 0 -1 0 595)" d="M84.24 113.06L84.72 113.06L84.72 113.06L84.72 113.54L84.72 113.54L84.24 113.54z" stroke="none" fill="#000000" fill-rule="evenodd" /><path transform="matrix(1 0 0 -1 0 595)" d="M84.72 113.06L204.86 113.06L204.86 113.06L204.86 113.54L204.86 113.54L84.72 113.54z" stroke="none" fill="#000000" fill-rule="evenodd" /><path transform="matrix(1 0 0 -1 0 595)" d="M204.86 113.06L205.34 113.06L205.34 113.06L205.34 113.54L205.34 113.54L204.86 113.54z" stroke="none" fill="#000000" fill-rule="evenodd" /><path transform="matrix(1 0 0 -1 0 595)" d="M205.34 113.06L275.42 113.06L275.42 113.06L275.42 113.54L275.42 113.54L205.34 113.54z" stroke="none" fill="#000000" fill-rule="evenodd" /><path transform="matrix(1 0 0 -1 0 595)" d="M275.42 113.06L275.9 113.06L275.9 113.06L275.9 113.54L275.9 113.54L275.42 113.54z" stroke="none" fill="#000000" fill-rule="evenodd" /><path transform="matrix(1 0 0 -1 0 595)" d="M275.9 113.06L319.604 113.06L319.604 113.06L319.604 113.54L319.604 113.54L275.9 113.54z" stroke="none" fill="#000000" fill-rule="evenodd" /><path transform="matrix(1 0 0 -1 0 595)" d="M319.61 113.06L320.09 113.06L320.09 113.06L320.09 113.54L320.09 113.54L319.61 113.54z" stroke="none" fill="#000000" fill-rule="evenodd" /><path transform="matrix(1 0 0 -1 0 595)" d="M320.09 113.06L496.27 113.06L496.27 113.06L496.27 113.54L496.27 113.54L320.09 113.54z" stroke="none" fill="#000000" fill-rule="evenodd" /><path transform="matrix(1 0 0 -1 0 595)" d="M496.27 113.06L496.75 113.06L496.75 113.06L496.75 113.54L496.75 113.54L496.27 113.54z" stroke="none" fill="#000000" fill-rule="evenodd" /><path transform="matrix(1 0 0 -1 0 595)" d="M496.75 113.06L750.69 113.06L750.69 113.06L750.69 113.54L750.69 113.54L496.75 113.54z" stroke="none" fill="#000000" fill-rule="evenodd" /><path transform="matrix(1 0 0 -1 0 595)" d="M750.7 113.06L751.1801 113.06L751.1801 113.06L751.1801 113.54L751.1801 113.54L750.7 113.54z" stroke="none" fill="#000000" fill-rule="evenodd" /><path transform="matrix(1 0 0 -1 0 595)" d="M84.24 93.984L84.72 93.984L84.72 93.984L84.72 113.064L84.72 113.064L84.24 113.064z" stroke="none" fill="#000000" fill-rule="evenodd" /><path transform="matrix(1 0 0 -1 0 595)" d="M84.24 93.504L84.72 93.504L84.72 93.504L84.72 93.98401L84.72 93.98401L84.24 93.98401z" stroke="none" fill="#000000" fill-rule="evenodd" /><path transform="matrix(1 0 0 -1 0 595)" d="M84.24 93.504L84.72 93.504L84.72 93.504L84.72 93.98401L84.72 93.98401L84.24 93.98401z" stroke="none" fill="#000000" fill-rule="evenodd" /><path transform="matrix(1 0 0 -1 0 595)" d="M84.72 93.504L204.86 93.504L204.86 93.504L204.86 93.98401L204.86 93.98401L84.72 93.98401z" stroke="none" fill="#000000" fill-rule="evenodd" /><path transform="matrix(1 0 0 -1 0 595)" d="M204.86 93.984L205.34 93.984L205.34 93.984L205.34 113.064L205.34 113.064L204.86 113.064z" stroke="none" fill="#000000" fill-rule="evenodd" /><path transform="matrix(1 0 0 -1 0 595)" d="M204.86 93.504L205.34 93.504L205.34 93.504L205.34 93.98401L205.34 93.98401L204.86 93.98401z" stroke="none" fill="#000000" fill-rule="evenodd" /><path transform="matrix(1 0 0 -1 0 595)" d="M205.34 93.504L275.42 93.504L275.42 93.504L275.42 93.98401L275.42 93.98401L205.34 93.98401z" stroke="none" fill="#000000" fill-rule="evenodd" /><path transform="matrix(1 0 0 -1 0 595)" d="M275.42 93.984L275.9 93.984L275.9 93.984L275.9 113.064L275.9 113.064L275.42 113.064z" stroke="none" fill="#000000" fill-rule="evenodd" /><path transform="matrix(1 0 0 -1 0 595)" d="M275.42 93.504L275.9 93.504L275.9 93.504L275.9 93.98401L275.9 93.98401L275.42 93.98401z" stroke="none" fill="#000000" fill-rule="evenodd" /><path transform="matrix(1 0 0 -1 0 595)" d="M275.9 93.504L319.604 93.504L319.604 93.504L319.604 93.98401L319.604 93.98401L275.9 93.98401z" stroke="none" fill="#000000" fill-rule="evenodd" /><path transform="matrix(1 0 0 -1 0 595)" d="M319.61 93.984L320.09 93.984L320.09 93.984L320.09 113.064L320.09 113.064L319.61 113.064z" stroke="none" fill="#000000" fill-rule="evenodd" /><path transform="matrix(1 0 0 -1 0 595)" d="M319.61 93.504L320.09 93.504L320.09 93.504L320.09 93.98401L320.09 93.98401L319.61 93.98401z" stroke="none" fill="#000000" fill-rule="evenodd" /><path transform="matrix(1 0 0 -1 0 595)" d="M320.09 93.504L496.27 93.504L496.27 93.504L496.27 93.98401L496.27 93.98401L320.09 93.98401z" stroke="none" fill="#000000" fill-rule="evenodd" /><path transform="matrix(1 0 0 -1 0 595)" d="M496.27 93.984L496.75 93.984L496.75 93.984L496.75 113.064L496.75 113.064L496.27 113.064z" stroke="none" fill="#000000" fill-rule="evenodd" /><path transform="matrix(1 0 0 -1 0 595)" d="M496.27 93.504L496.75 93.504L496.75 93.504L496.75 93.98401L496.75 93.98401L496.27 93.98401z" stroke="none" fill="#000000" fill-rule="evenodd" /><path transform="matrix(1 0 0 -1 0 595)" d="M496.75 93.504L750.69 93.504L750.69 93.504L750.69 93.98401L750.69 93.98401L496.75 93.98401z" stroke="none" fill="#000000" fill-rule="evenodd" /><path transform="matrix(1 0 0 -1 0 595)" d="M750.7 93.984L751.1801 93.984L751.1801 93.984L751.1801 113.064L751.1801 113.064L750.7 113.064z" stroke="none" fill="#000000" fill-rule="evenodd" /><path transform="matrix(1 0 0 -1 0 595)" d="M750.7 93.504L751.1801 93.504L751.1801 93.504L751.1801 93.98401L751.1801 93.98401L750.7 93.98401z" stroke="none" fill="#000000" fill-rule="evenodd" /><path transform="matrix(1 0 0 -1 0 595)" d="M750.7 93.504L751.1801 93.504L751.1801 93.504L751.1801 93.98401L751.1801 93.98401L750.7 93.98401z" stroke="none" fill="#000000" fill-rule="evenodd" /></g></g></g></svg>