<svg xmlns="http://www.w3.org/2000/svg" xmlns:xlink="http://www.w3.org/1999/xlink" id="body_239" preserveAspectRatio="xMinYMin meet" viewBox="0 0 793 1121"><defs><clipPath id="1"><path d="M0 841L0 -0.9199829L0 -0.9199829L595.32 -0.9199829L595.32 -0.9199829L595.32 841L595.32 841L0 841z" /></clipPath><clipPath id="2"><path d="M0.00125 841.0914L595.4112 841.0914L595.4112 841.0914L595.4112 -0.9186401L595.4112 -0.9186401L0.00125 -0.9186401z" /></clipPath><clipPath id="3"><path d="M288.05 781.211L316.01 781.211L316.01 781.211L316.01 762.011L316.01 762.011L288.05 762.011z" /></clipPath><clipPath id="4"><path d="M288.05 781.216L316.01 781.216L316.01 781.216L316.01 762.016L316.01 762.016L288.05 762.016z" /></clipPath><clipPath id="5"><path d="M288.05 781.216L316.01 781.216L316.01 781.216L316.01 762.016L316.01 762.016L288.05 762.016z" /></clipPath><clipPath id="6"><path d="M84.751 203.35L181.711 203.35L181.711 203.35L181.711 178.27L181.711 178.27L84.751 178.27z" /></clipPath><clipPath id="7"><path d="M84.744 203.34L181.704 203.34L181.704 203.34L181.704 178.26L181.704 178.26L84.744 178.26z" /></clipPath><clipPath id="8"><path d="M84.744 203.34L181.704 203.34L181.704 203.34L181.704 178.26L181.704 178.26L84.744 178.26z" /></clipPath><clipPath id="9"><path d="M182.19 203.35L241.845 203.35L241.845 203.35L241.845 178.27L241.845 178.27L182.19 178.27z" /></clipPath><clipPath id="10"><path d="M182.18 203.34L241.844 203.34L241.844 203.34L241.844 178.26L241.844 178.26L182.18 178.26z" /></clipPath><clipPath id="11"><path d="M182.18 203.34L241.844 203.34L241.844 203.34L241.844 178.26L241.844 178.26L182.18 178.26z" /></clipPath><clipPath id="12"><path d="M242.45 203.35L326.69 203.35L326.69 203.35L326.69 178.27L326.69 178.27L242.45 178.27z" /></clipPath><clipPath id="13"><path d="M242.45 203.34L326.69 203.34L326.69 203.34L326.69 178.26L326.69 178.26L242.45 178.26z" /></clipPath><clipPath id="14"><path d="M242.45 203.34L326.69 203.34L326.69 203.34L326.69 178.26L326.69 178.26L242.45 178.26z" /></clipPath><clipPath id="15"><path d="M327.17 203.35L500.38 203.35L500.38 203.35L500.38 178.27L500.38 178.27L327.17 178.27z" /></clipPath><clipPath id="16"><path d="M327.17 203.34L500.38 203.34L500.38 203.34L500.38 178.26L500.38 178.26L327.17 178.26z" /></clipPath><clipPath id="17"><path d="M327.17 203.34L500.38 203.34L500.38 203.34L500.38 178.26L500.38 178.26L327.17 178.26z" /></clipPath><clipPath id="18"><path d="M84.751 241.99L181.711 241.99L181.711 241.99L181.711 203.83L181.711 203.83L84.751 203.83z" /></clipPath><clipPath id="19"><path d="M84.744 241.98L181.704 241.98L181.704 241.98L181.704 203.82L181.704 203.82L84.744 203.82z" /></clipPath><clipPath id="20"><path d="M84.744 241.98L181.704 241.98L181.704 241.98L181.704 203.82L181.704 203.82L84.744 203.82z" /></clipPath><clipPath id="21"><path d="M182.19 241.99L241.845 241.99L241.845 241.99L241.845 203.83L241.845 203.83L182.19 203.83z" /></clipPath><clipPath id="22"><path d="M182.18 241.98L241.844 241.98L241.844 241.98L241.844 203.82L241.844 203.82L182.18 203.82z" /></clipPath><clipPath id="23"><path d="M182.18 241.98L241.844 241.98L241.844 241.98L241.844 203.82L241.844 203.82L182.18 203.82z" /></clipPath><clipPath id="24"><path d="M242.45 241.99L326.69 241.99L326.69 241.99L326.69 203.83L326.69 203.83L242.45 203.83z" /></clipPath><clipPath id="25"><path d="M242.45 241.98L326.69 241.98L326.69 241.98L326.69 203.82L326.69 203.82L242.45 203.82z" /></clipPath><clipPath id="26"><path d="M242.45 241.98L326.69 241.98L326.69 241.98L326.69 203.82L326.69 203.82L242.45 203.82z" /></clipPath><clipPath id="27"><path d="M327.17 241.99L500.38 241.99L500.38 241.99L500.38 203.83L500.38 203.83L327.17 203.83z" /></clipPath><clipPath id="28"><path d="M327.17 241.98L500.38 241.98L500.38 241.98L500.38 203.82L500.38 203.82L327.17 203.82z" /></clipPath><clipPath id="29"><path d="M327.17 241.98L500.38 241.98L500.38 241.98L500.38 203.82L500.38 203.82L327.17 203.82z" /></clipPath><clipPath id="30"><path d="M327.17 241.98L500.38 241.98L500.38 241.98L500.38 203.82L500.38 203.82L327.17 203.82z" /></clipPath><clipPath id="31"><path d="M327.17 241.98L500.38 241.98L500.38 241.98L500.38 203.82L500.38 203.82L327.17 203.82z" /></clipPath><clipPath id="32"><path d="M327.17 241.98L500.38 241.98L500.38 241.98L500.38 203.82L500.38 203.82L327.17 203.82z" /></clipPath><clipPath id="33"><path d="M327.17 241.98L500.38 241.98L500.38 241.98L500.38 203.82L500.38 203.82L327.17 203.82z" /></clipPath><clipPath id="34"><path d="M84.751 266.59L181.711 266.59L181.711 266.59L181.711 242.47L181.711 242.47L84.751 242.47z" /></clipPath><clipPath id="35"><path d="M84.744 266.58L181.704 266.58L181.704 266.58L181.704 242.46L181.704 242.46L84.744 242.46z" /></clipPath><clipPath id="36"><path d="M84.744 266.58L181.704 266.58L181.704 266.58L181.704 242.46L181.704 242.46L84.744 242.46z" /></clipPath><clipPath id="37"><path d="M182.19 266.59L241.845 266.59L241.845 266.59L241.845 242.47L241.845 242.47L182.19 242.47z" /></clipPath><clipPath id="38"><path d="M182.18 266.58L241.844 266.58L241.844 266.58L241.844 242.46L241.844 242.46L182.18 242.46z" /></clipPath><clipPath id="39"><path d="M182.18 266.58L241.844 266.58L241.844 266.58L241.844 242.46L241.844 242.46L182.18 242.46z" /></clipPath><clipPath id="40"><path d="M242.45 266.59L326.69 266.59L326.69 266.59L326.69 242.47L326.69 242.47L242.45 242.47z" /></clipPath><clipPath id="41"><path d="M242.45 266.58L326.69 266.58L326.69 266.58L326.69 242.46L326.69 242.46L242.45 242.46z" /></clipPath><clipPath id="42"><path d="M242.45 266.58L326.69 266.58L326.69 266.58L326.69 242.46L326.69 242.46L242.45 242.46z" /></clipPath><clipPath id="43"><path d="M327.17 266.59L500.38 266.59L500.38 266.59L500.38 242.47L500.38 242.47L327.17 242.47z" /></clipPath><clipPath id="44"><path d="M327.17 266.58L500.38 266.58L500.38 266.58L500.38 242.46L500.38 242.46L327.17 242.46z" /></clipPath><clipPath id="45"><path d="M327.17 266.58L500.38 266.58L500.38 266.58L500.38 242.46L500.38 242.46L327.17 242.46z" /></clipPath><clipPath id="46"><path d="M327.17 266.58L500.38 266.58L500.38 266.58L500.38 242.46L500.38 242.46L327.17 242.46z" /></clipPath><clipPath id="47"><path d="M84.751 291.33L181.711 291.33L181.711 291.33L181.711 267.195L181.711 267.195L84.751 267.195z" /></clipPath><clipPath id="48"><path d="M84.744 291.33L181.704 291.33L181.704 291.33L181.704 267.186L181.704 267.186L84.744 267.186z" /></clipPath><clipPath id="49"><path d="M84.744 291.33L181.704 291.33L181.704 291.33L181.704 267.186L181.704 267.186L84.744 267.186z" /></clipPath><clipPath id="50"><path d="M182.19 291.33L241.845 291.33L241.845 291.33L241.845 267.195L241.845 267.195L182.19 267.195z" /></clipPath><clipPath id="51"><path d="M182.18 291.33L241.844 291.33L241.844 291.33L241.844 267.186L241.844 267.186L182.18 267.186z" /></clipPath><clipPath id="52"><path d="M182.18 291.33L241.844 291.33L241.844 291.33L241.844 267.186L241.844 267.186L182.18 267.186z" /></clipPath><clipPath id="53"><path d="M242.45 291.33L326.69 291.33L326.69 291.33L326.69 267.195L326.69 267.195L242.45 267.195z" /></clipPath><clipPath id="54"><path d="M242.45 291.33L326.69 291.33L326.69 291.33L326.69 267.186L326.69 267.186L242.45 267.186z" /></clipPath><clipPath id="55"><path d="M327.17 291.33L500.38 291.33L500.38 291.33L500.38 267.195L500.38 267.195L327.17 267.195z" /></clipPath><clipPath id="56"><path d="M327.17 291.33L500.38 291.33L500.38 291.33L500.38 267.186L500.38 267.186L327.17 267.186z" /></clipPath><clipPath id="57"><path d="M327.17 291.33L500.38 291.33L500.38 291.33L500.38 267.186L500.38 267.186L327.17 267.186z" /></clipPath><clipPath id="58"><path d="M327.17 291.33L500.38 291.33L500.38 291.33L500.38 267.186L500.38 267.186L327.17 267.186z" /></clipPath><clipPath id="59"><path d="M327.17 291.33L500.38 291.33L500.38 291.33L500.38 267.186L500.38 267.186L327.17 267.186z" /></clipPath><clipPath id="60"><path d="M327.17 291.33L500.38 291.33L500.38 291.33L500.38 267.186L500.38 267.186L327.17 267.186z" /></clipPath><clipPath id="61"><path d="M327.17 291.33L500.38 291.33L500.38 291.33L500.38 267.186L500.38 267.186L327.17 267.186z" /></clipPath><clipPath id="62"><path d="M84.751 315.93L181.711 315.93L181.711 315.93L181.711 291.81L181.711 291.81L84.751 291.81z" /></clipPath><clipPath id="63"><path d="M84.744 315.93L181.704 315.93L181.704 315.93L181.704 291.81L181.704 291.81L84.744 291.81z" /></clipPath><clipPath id="64"><path d="M84.744 315.93L181.704 315.93L181.704 315.93L181.704 291.81L181.704 291.81L84.744 291.81z" /></clipPath><clipPath id="65"><path d="M182.19 315.93L241.845 315.93L241.845 315.93L241.845 291.81L241.845 291.81L182.19 291.81z" /></clipPath><clipPath id="66"><path d="M182.18 315.93L241.844 315.93L241.844 315.93L241.844 291.81L241.844 291.81L182.18 291.81z" /></clipPath><clipPath id="67"><path d="M182.18 315.93L241.844 315.93L241.844 315.93L241.844 291.81L241.844 291.81L182.18 291.81z" /></clipPath><clipPath id="68"><path d="M182.18 315.93L241.844 315.93L241.844 315.93L241.844 291.81L241.844 291.81L182.18 291.81z" /></clipPath><clipPath id="69"><path d="M242.45 315.93L326.69 315.93L326.69 315.93L326.69 291.81L326.69 291.81L242.45 291.81z" /></clipPath><clipPath id="70"><path d="M242.45 315.93L326.69 315.93L326.69 315.93L326.69 291.81L326.69 291.81L242.45 291.81z" /></clipPath><clipPath id="71"><path d="M242.45 315.93L326.69 315.93L326.69 315.93L326.69 291.81L326.69 291.81L242.45 291.81z" /></clipPath><clipPath id="72"><path d="M327.17 315.93L500.38 315.93L500.38 315.93L500.38 291.81L500.38 291.81L327.17 291.81z" /></clipPath><clipPath id="73"><path d="M327.17 315.93L500.38 315.93L500.38 315.93L500.38 291.81L500.38 291.81L327.17 291.81z" /></clipPath><clipPath id="74"><path d="M327.17 315.93L500.38 315.93L500.38 315.93L500.38 291.81L500.38 291.81L327.17 291.81z" /></clipPath><clipPath id="75"><path d="M327.17 315.93L500.38 315.93L500.38 315.93L500.38 291.81L500.38 291.81L327.17 291.81z" /></clipPath><clipPath id="76"><path d="M327.17 315.93L500.38 315.93L500.38 315.93L500.38 291.81L500.38 291.81L327.17 291.81z" /></clipPath><clipPath id="77"><path d="M327.17 315.93L500.38 315.93L500.38 315.93L500.38 291.81L500.38 291.81L327.17 291.81z" /></clipPath><clipPath id="78"><path d="M84.751 340.65L181.711 340.65L181.711 340.65L181.711 316.41L181.711 316.41L84.751 316.41z" /></clipPath><clipPath id="79"><path d="M84.744 340.65L181.704 340.65L181.704 340.65L181.704 316.41L181.704 316.41L84.744 316.41z" /></clipPath><clipPath id="80"><path d="M84.744 340.65L181.704 340.65L181.704 340.65L181.704 316.41L181.704 316.41L84.744 316.41z" /></clipPath><clipPath id="81"><path d="M182.19 340.65L241.845 340.65L241.845 340.65L241.845 316.41L241.845 316.41L182.19 316.41z" /></clipPath><clipPath id="82"><path d="M182.18 340.65L241.844 340.65L241.844 340.65L241.844 316.41L241.844 316.41L182.18 316.41z" /></clipPath><clipPath id="83"><path d="M182.18 340.65L241.844 340.65L241.844 340.65L241.844 316.41L241.844 316.41L182.18 316.41z" /></clipPath><clipPath id="84"><path d="M242.45 340.65L326.69 340.65L326.69 340.65L326.69 316.41L326.69 316.41L242.45 316.41z" /></clipPath><clipPath id="85"><path d="M242.45 340.65L326.69 340.65L326.69 340.65L326.69 316.41L326.69 316.41L242.45 316.41z" /></clipPath><clipPath id="86"><path d="M242.45 340.65L326.69 340.65L326.69 340.65L326.69 316.41L326.69 316.41L242.45 316.41z" /></clipPath><clipPath id="87"><path d="M327.17 340.65L500.38 340.65L500.38 340.65L500.38 316.41L500.38 316.41L327.17 316.41z" /></clipPath><clipPath id="88"><path d="M327.17 340.65L500.38 340.65L500.38 340.65L500.38 316.41L500.38 316.41L327.17 316.41z" /></clipPath><clipPath id="89"><path d="M327.17 340.65L500.38 340.65L500.38 340.65L500.38 316.41L500.38 316.41L327.17 316.41z" /></clipPath><clipPath id="90"><path d="M84.751 365.25L181.711 365.25L181.711 365.25L181.711 341.13L181.711 341.13L84.751 341.13z" /></clipPath><clipPath id="91"><path d="M84.744 365.25L181.704 365.25L181.704 365.25L181.704 341.13L181.704 341.13L84.744 341.13z" /></clipPath><clipPath id="92"><path d="M84.744 365.25L181.704 365.25L181.704 365.25L181.704 341.13L181.704 341.13L84.744 341.13z" /></clipPath><clipPath id="93"><path d="M182.19 365.25L241.845 365.25L241.845 365.25L241.845 341.13L241.845 341.13L182.19 341.13z" /></clipPath><clipPath id="94"><path d="M182.18 365.25L241.844 365.25L241.844 365.25L241.844 341.13L241.844 341.13L182.18 341.13z" /></clipPath><clipPath id="95"><path d="M182.18 365.25L241.844 365.25L241.844 365.25L241.844 341.13L241.844 341.13L182.18 341.13z" /></clipPath><clipPath id="96"><path d="M242.45 365.25L326.69 365.25L326.69 365.25L326.69 341.13L326.69 341.13L242.45 341.13z" /></clipPath><clipPath id="97"><path d="M242.45 365.25L326.69 365.25L326.69 365.25L326.69 341.13L326.69 341.13L242.45 341.13z" /></clipPath><clipPath id="98"><path d="M242.45 365.25L326.69 365.25L326.69 365.25L326.69 341.13L326.69 341.13L242.45 341.13z" /></clipPath><clipPath id="99"><path d="M327.17 365.25L500.38 365.25L500.38 365.25L500.38 341.13L500.38 341.13L327.17 341.13z" /></clipPath><clipPath id="100"><path d="M327.17 365.25L500.38 365.25L500.38 365.25L500.38 341.13L500.38 341.13L327.17 341.13z" /></clipPath><clipPath id="101"><path d="M327.17 365.25L500.38 365.25L500.38 365.25L500.38 341.13L500.38 341.13L327.17 341.13z" /></clipPath><clipPath id="102"><path d="M84.751 403.89L181.711 403.89L181.711 403.89L181.711 365.73L181.711 365.73L84.751 365.73z" /></clipPath><clipPath id="103"><path d="M84.744 403.89L181.704 403.89L181.704 403.89L181.704 365.73L181.704 365.73L84.744 365.73z" /></clipPath><clipPath id="104"><path d="M84.744 403.89L181.704 403.89L181.704 403.89L181.704 365.73L181.704 365.73L84.744 365.73z" /></clipPath><clipPath id="105"><path d="M182.19 403.89L241.845 403.89L241.845 403.89L241.845 365.73L241.845 365.73L182.19 365.73z" /></clipPath><clipPath id="106"><path d="M182.18 403.89L241.844 403.89L241.844 403.89L241.844 365.73L241.844 365.73L182.18 365.73z" /></clipPath><clipPath id="107"><path d="M182.18 403.89L241.844 403.89L241.844 403.89L241.844 365.73L241.844 365.73L182.18 365.73z" /></clipPath><clipPath id="108"><path d="M242.45 403.89L326.69 403.89L326.69 403.89L326.69 365.73L326.69 365.73L242.45 365.73z" /></clipPath><clipPath id="109"><path d="M242.45 403.89L326.69 403.89L326.69 403.89L326.69 365.73L326.69 365.73L242.45 365.73z" /></clipPath><clipPath id="110"><path d="M242.45 403.89L326.69 403.89L326.69 403.89L326.69 365.73L326.69 365.73L242.45 365.73z" /></clipPath><clipPath id="111"><path d="M327.17 403.89L500.38 403.89L500.38 403.89L500.38 365.73L500.38 365.73L327.17 365.73z" /></clipPath><clipPath id="112"><path d="M327.17 403.89L500.38 403.89L500.38 403.89L500.38 365.73L500.38 365.73L327.17 365.73z" /></clipPath><clipPath id="113"><path d="M327.17 403.89L500.38 403.89L500.38 403.89L500.38 365.73L500.38 365.73L327.17 365.73z" /></clipPath><clipPath id="114"><path d="M327.17 403.89L500.38 403.89L500.38 403.89L500.38 365.73L500.38 365.73L327.17 365.73z" /></clipPath><clipPath id="115"><path d="M327.17 403.89L500.38 403.89L500.38 403.89L500.38 365.73L500.38 365.73L327.17 365.73z" /></clipPath><clipPath id="116"><path d="M327.17 403.89L500.38 403.89L500.38 403.89L500.38 365.73L500.38 365.73L327.17 365.73z" /></clipPath><clipPath id="117"><path d="M327.17 403.89L500.38 403.89L500.38 403.89L500.38 365.73L500.38 365.73L327.17 365.73z" /></clipPath><clipPath id="118"><path d="M327.17 403.89L500.38 403.89L500.38 403.89L500.38 365.73L500.38 365.73L327.17 365.73z" /></clipPath><clipPath id="119"><path d="M84.751 518.64L181.711 518.64L181.711 518.64L181.711 404.37L181.711 404.37L84.751 404.37z" /></clipPath><clipPath id="120"><path d="M84.744 518.63L181.704 518.63L181.704 518.63L181.704 404.37L181.704 404.37L84.744 404.37z" /></clipPath><clipPath id="121"><path d="M84.744 518.63L181.704 518.63L181.704 518.63L181.704 404.37L181.704 404.37L84.744 404.37z" /></clipPath><clipPath id="122"><path d="M182.19 518.64L241.845 518.64L241.845 518.64L241.845 404.37L241.845 404.37L182.19 404.37z" /></clipPath><clipPath id="123"><path d="M182.18 518.63L241.844 518.63L241.844 518.63L241.844 404.37L241.844 404.37L182.18 404.37z" /></clipPath><clipPath id="124"><path d="M182.18 518.63L241.844 518.63L241.844 518.63L241.844 404.37L241.844 404.37L182.18 404.37z" /></clipPath><clipPath id="125"><path d="M242.45 518.64L326.69 518.64L326.69 518.64L326.69 404.37L326.69 404.37L242.45 404.37z" /></clipPath><clipPath id="126"><path d="M242.45 518.63L326.69 518.63L326.69 518.63L326.69 404.37L326.69 404.37L242.45 404.37z" /></clipPath><clipPath id="127"><path d="M242.45 518.63L326.69 518.63L326.69 518.63L326.69 404.37L326.69 404.37L242.45 404.37z" /></clipPath><clipPath id="128"><path d="M327.17 518.64L500.38 518.64L500.38 518.64L500.38 404.37L500.38 404.37L327.17 404.37z" /></clipPath><clipPath id="129"><path d="M327.17 518.63L500.38 518.63L500.38 518.63L500.38 404.37L500.38 404.37L327.17 404.37z" /></clipPath><clipPath id="130"><path d="M327.17 518.63L500.38 518.63L500.38 518.63L500.38 404.37L500.38 404.37L327.17 404.37z" /></clipPath><clipPath id="131"><path d="M327.17 518.63L500.38 518.63L500.38 518.63L500.38 404.37L500.38 404.37L327.17 404.37z" /></clipPath><clipPath id="132"><path d="M327.17 518.63L500.38 518.63L500.38 518.63L500.38 404.37L500.38 404.37L327.17 404.37z" /></clipPath><clipPath id="133"><path d="M327.17 518.63L500.38 518.63L500.38 518.63L500.38 404.37L500.38 404.37L327.17 404.37z" /></clipPath><clipPath id="134"><path d="M327.17 518.63L500.38 518.63L500.38 518.63L500.38 404.37L500.38 404.37L327.17 404.37z" /></clipPath><clipPath id="135"><path d="M327.17 518.63L500.38 518.63L500.38 518.63L500.38 404.37L500.38 404.37L327.17 404.37z" /></clipPath><clipPath id="136"><path d="M327.17 518.63L500.38 518.63L500.38 518.63L500.38 404.37L500.38 404.37L327.17 404.37z" /></clipPath><clipPath id="137"><path d="M327.17 518.63L500.38 518.63L500.38 518.63L500.38 404.37L500.38 404.37L327.17 404.37z" /></clipPath><clipPath id="138"><path d="M327.17 518.63L500.38 518.63L500.38 518.63L500.38 404.37L500.38 404.37L327.17 404.37z" /></clipPath><clipPath id="139"><path d="M327.17 518.63L500.38 518.63L500.38 518.63L500.38 404.37L500.38 404.37L327.17 404.37z" /></clipPath><clipPath id="140"><path d="M327.17 518.63L500.38 518.63L500.38 518.63L500.38 404.37L500.38 404.37L327.17 404.37z" /></clipPath><clipPath id="141"><path d="M327.17 518.63L500.38 518.63L500.38 518.63L500.38 404.37L500.38 404.37L327.17 404.37z" /></clipPath><clipPath id="142"><path d="M327.17 518.63L500.38 518.63L500.38 518.63L500.38 404.37L500.38 404.37L327.17 404.37z" /></clipPath><clipPath id="143"><path d="M327.17 518.63L500.38 518.63L500.38 518.63L500.38 404.37L500.38 404.37L327.17 404.37z" /></clipPath><clipPath id="144"><path d="M327.17 518.63L500.38 518.63L500.38 518.63L500.38 404.37L500.38 404.37L327.17 404.37z" /></clipPath><clipPath id="145"><path d="M327.17 518.63L500.38 518.63L500.38 518.63L500.38 404.37L500.38 404.37L327.17 404.37z" /></clipPath><clipPath id="146"><path d="M327.17 518.63L500.38 518.63L500.38 518.63L500.38 404.37L500.38 404.37L327.17 404.37z" /></clipPath><clipPath id="147"><path d="M327.17 518.63L500.38 518.63L500.38 518.63L500.38 404.37L500.38 404.37L327.17 404.37z" /></clipPath><clipPath id="148"><path d="M327.17 518.63L500.38 518.63L500.38 518.63L500.38 404.37L500.38 404.37L327.17 404.37z" /></clipPath><clipPath id="149"><path d="M327.17 518.63L500.38 518.63L500.38 518.63L500.38 404.37L500.38 404.37L327.17 404.37z" /></clipPath><clipPath id="150"><path d="M327.17 518.63L500.38 518.63L500.38 518.63L500.38 404.37L500.38 404.37L327.17 404.37z" /></clipPath><clipPath id="151"><path d="M327.17 518.63L500.38 518.63L500.38 518.63L500.38 404.37L500.38 404.37L327.17 404.37z" /></clipPath><clipPath id="152"><path d="M327.17 518.63L500.38 518.63L500.38 518.63L500.38 404.37L500.38 404.37L327.17 404.37z" /></clipPath><clipPath id="153"><path d="M327.17 518.63L500.38 518.63L500.38 518.63L500.38 404.37L500.38 404.37L327.17 404.37z" /></clipPath><clipPath id="154"><path d="M327.17 518.63L500.38 518.63L500.38 518.63L500.38 404.37L500.38 404.37L327.17 404.37z" /></clipPath><clipPath id="155"><path d="M327.17 518.63L500.38 518.63L500.38 518.63L500.38 404.37L500.38 404.37L327.17 404.37z" /></clipPath><clipPath id="156"><path d="M327.17 518.63L500.38 518.63L500.38 518.63L500.38 404.37L500.38 404.37L327.17 404.37z" /></clipPath><clipPath id="157"><path d="M327.17 518.63L500.38 518.63L500.38 518.63L500.38 404.37L500.38 404.37L327.17 404.37z" /></clipPath><clipPath id="158"><path d="M84.751 549.6L181.711 549.6L181.711 549.6L181.711 519.12L181.711 519.12L84.751 519.12z" /></clipPath><clipPath id="159"><path d="M84.744 549.59L181.704 549.59L181.704 549.59L181.704 519.11L181.704 519.11L84.744 519.11z" /></clipPath><clipPath id="160"><path d="M84.744 549.59L181.704 549.59L181.704 549.59L181.704 519.11L181.704 519.11L84.744 519.11z" /></clipPath><clipPath id="161"><path d="M182.19 549.6L241.845 549.6L241.845 549.6L241.845 519.12L241.845 519.12L182.19 519.12z" /></clipPath><clipPath id="162"><path d="M182.18 549.59L241.844 549.59L241.844 549.59L241.844 519.11L241.844 519.11L182.18 519.11z" /></clipPath><clipPath id="163"><path d="M182.18 549.59L241.844 549.59L241.844 549.59L241.844 519.11L241.844 519.11L182.18 519.11z" /></clipPath><clipPath id="164"><path d="M242.45 549.6L326.69 549.6L326.69 549.6L326.69 519.12L326.69 519.12L242.45 519.12z" /></clipPath><clipPath id="165"><path d="M242.45 549.59L326.69 549.59L326.69 549.59L326.69 519.11L326.69 519.11L242.45 519.11z" /></clipPath><clipPath id="166"><path d="M242.45 549.59L326.69 549.59L326.69 549.59L326.69 519.11L326.69 519.11L242.45 519.11z" /></clipPath><clipPath id="167"><path d="M327.17 549.6L500.38 549.6L500.38 549.6L500.38 519.12L500.38 519.12L327.17 519.12z" /></clipPath><clipPath id="168"><path d="M327.17 549.59L500.38 549.59L500.38 549.59L500.38 519.11L500.38 519.11L327.17 519.11z" /></clipPath><clipPath id="169"><path d="M327.17 549.59L500.38 549.59L500.38 549.59L500.38 519.11L500.38 519.11L327.17 519.11z" /></clipPath><clipPath id="170"><path d="M327.17 549.59L500.38 549.59L500.38 549.59L500.38 519.11L500.38 519.11L327.17 519.11z" /></clipPath></defs><g transform="matrix(1.333333 0 0 1.333333 0 0)"><g><g clip-path="url(#1)"><path transform="matrix(1 0 0 -1 0 841)" d="M457.51 53.304L505.534 53.304L505.534 53.304L505.534 53.90404L505.534 53.90404L457.51 53.90404z" stroke="none" fill="#000000" fill-rule="evenodd" /><g clip-path="url(#2)"><path transform="matrix(1 0 0 -1 0 841)" d="M88.464 77.904L506.974 77.904L506.974 77.904L506.974 80.904L506.974 80.904L88.464 80.904z" stroke="none" fill="#000000" fill-rule="evenodd" /><path transform="matrix(1 0 0 -1 0 841)" d="M88.464 76.464L506.974 76.464L506.974 76.464L506.974 77.18397L506.974 77.18397L88.464 77.18397z" stroke="none" fill="#000000" fill-rule="evenodd" /></g><g clip-path="url(#3)"><g clip-path="url(#4)"></g><g clip-path="url(#5)"></g></g><path transform="matrix(1 0 0 -1 0 841)" d="M84.744 637.66L181.704 637.66L181.704 637.66L181.704 662.74L181.704 662.74L84.744 662.74z" stroke="none" fill="#0070C0" fill-rule="evenodd" /><g clip-path="url(#6)"><path transform="matrix(1 0 0 -1 0 841)" d="M89.904 637.66L176.544 637.66L176.544 637.66L176.544 662.74L176.544 662.74L89.904 662.74z" stroke="none" fill="#0070C0" fill-rule="evenodd" /><g clip-path="url(#7)"></g><g clip-path="url(#8)"></g></g><path transform="matrix(1 0 0 -1 0 841)" d="M182.18 637.66L241.844 637.66L241.844 637.66L241.844 662.74L241.844 662.74L182.18 662.74z" stroke="none" fill="#0070C0" fill-rule="evenodd" /><g clip-path="url(#9)"><path transform="matrix(1 0 0 -1 0 841)" d="M187.34 637.66L236.804 637.66L236.804 637.66L236.804 662.74L236.804 662.74L187.34 662.74z" stroke="none" fill="#0070C0" fill-rule="evenodd" /><g clip-path="url(#10)"></g><g clip-path="url(#11)"></g></g><path transform="matrix(1 0 0 -1 0 841)" d="M242.45 637.66L326.69 637.66L326.69 637.66L326.69 662.74L326.69 662.74L242.45 662.74z" stroke="none" fill="#0070C0" fill-rule="evenodd" /><g clip-path="url(#12)"><path transform="matrix(1 0 0 -1 0 841)" d="M247.61 637.66L321.53 637.66L321.53 637.66L321.53 662.74L321.53 662.74L247.61 662.74z" stroke="none" fill="#0070C0" fill-rule="evenodd" /><g clip-path="url(#13)"></g><g clip-path="url(#14)"></g></g><path transform="matrix(1 0 0 -1 0 841)" d="M327.17 637.66L500.38 637.66L500.38 637.66L500.38 662.74L500.38 662.74L327.17 662.74z" stroke="none" fill="#0070C0" fill-rule="evenodd" /><g clip-path="url(#15)"><path transform="matrix(1 0 0 -1 0 841)" d="M332.33 637.66L495.22 637.66L495.22 637.66L495.22 662.74L495.22 662.74L332.33 662.74z" stroke="none" fill="#0070C0" fill-rule="evenodd" /><g clip-path="url(#16)"></g><g clip-path="url(#17)"></g></g><path transform="matrix(1 0 0 -1 0 841)" d="M84.264 662.74L84.744 662.74L84.744 662.74L84.744 663.22L84.744 663.22L84.264 663.22z" stroke="none" fill="#000000" fill-rule="evenodd" /><path transform="matrix(1 0 0 -1 0 841)" d="M84.264 662.74L84.744 662.74L84.744 662.74L84.744 663.22L84.744 663.22L84.264 663.22z" stroke="none" fill="#000000" fill-rule="evenodd" /><path transform="matrix(1 0 0 -1 0 841)" d="M84.744 662.74L181.824 662.74L181.824 662.74L181.824 663.22L181.824 663.22L84.744 663.22z" stroke="none" fill="#000000" fill-rule="evenodd" /><path transform="matrix(1 0 0 -1 0 841)" d="M181.82 662.74L182.3 662.74L182.3 662.74L182.3 663.22L182.3 663.22L181.82 663.22z" stroke="none" fill="#000000" fill-rule="evenodd" /><path transform="matrix(1 0 0 -1 0 841)" d="M182.3 662.74L241.964 662.74L241.964 662.74L241.964 663.22L241.964 663.22L182.3 663.22z" stroke="none" fill="#000000" fill-rule="evenodd" /><path transform="matrix(1 0 0 -1 0 841)" d="M241.97 662.74L242.45 662.74L242.45 662.74L242.45 663.22L242.45 663.22L241.97 663.22z" stroke="none" fill="#000000" fill-rule="evenodd" /><path transform="matrix(1 0 0 -1 0 841)" d="M242.45 662.74L326.69 662.74L326.69 662.74L326.69 663.22L326.69 663.22L242.45 663.22z" stroke="none" fill="#000000" fill-rule="evenodd" /><path transform="matrix(1 0 0 -1 0 841)" d="M326.69 662.74L327.17 662.74L327.17 662.74L327.17 663.22L327.17 663.22L326.69 663.22z" stroke="none" fill="#000000" fill-rule="evenodd" /><path transform="matrix(1 0 0 -1 0 841)" d="M327.17 662.74L500.38 662.74L500.38 662.74L500.38 663.22L500.38 663.22L327.17 663.22z" stroke="none" fill="#000000" fill-rule="evenodd" /><path transform="matrix(1 0 0 -1 0 841)" d="M500.38 662.74L500.86 662.74L500.86 662.74L500.86 663.22L500.86 663.22L500.38 663.22z" stroke="none" fill="#000000" fill-rule="evenodd" /><path transform="matrix(1 0 0 -1 0 841)" d="M500.38 662.74L500.86 662.74L500.86 662.74L500.86 663.22L500.86 663.22L500.38 663.22z" stroke="none" fill="#000000" fill-rule="evenodd" /><path transform="matrix(1 0 0 -1 0 841)" d="M84.264 637.66L84.744 637.66L84.744 637.66L84.744 662.74L84.744 662.74L84.264 662.74z" stroke="none" fill="#000000" fill-rule="evenodd" /><path transform="matrix(1 0 0 -1 0 841)" d="M181.82 637.66L182.3 637.66L182.3 637.66L182.3 662.74L182.3 662.74L181.82 662.74z" stroke="none" fill="#000000" fill-rule="evenodd" /><path transform="matrix(1 0 0 -1 0 841)" d="M241.97 637.66L242.45 637.66L242.45 637.66L242.45 662.74L242.45 662.74L241.97 662.74z" stroke="none" fill="#000000" fill-rule="evenodd" /><path transform="matrix(1 0 0 -1 0 841)" d="M326.69 637.66L327.17 637.66L327.17 637.66L327.17 662.74L327.17 662.74L326.69 662.74z" stroke="none" fill="#000000" fill-rule="evenodd" /><path transform="matrix(1 0 0 -1 0 841)" d="M500.38 637.66L500.86 637.66L500.86 637.66L500.86 662.74L500.86 662.74L500.38 662.74z" stroke="none" fill="#000000" fill-rule="evenodd" /><path transform="matrix(1 0 0 -1 0 841)" d="M84.744 599.02L181.704 599.02L181.704 599.02L181.704 637.18L181.704 637.18L84.744 637.18z" stroke="none" fill="#DAEEF3" fill-rule="evenodd" /><g clip-path="url(#18)"><path transform="matrix(1 0 0 -1 0 841)" d="M89.904 612.94L176.544 612.94L176.544 612.94L176.544 637.18L176.544 637.18L89.904 637.18z" stroke="none" fill="#DAEEF3" fill-rule="evenodd" /><g clip-path="url(#19)"></g><g clip-path="url(#20)"></g></g><path transform="matrix(1 0 0 -1 0 841)" d="M182.18 599.02L241.844 599.02L241.844 599.02L241.844 637.18L241.844 637.18L182.18 637.18z" stroke="none" fill="#DAEEF3" fill-rule="evenodd" /><g clip-path="url(#21)"><path transform="matrix(1 0 0 -1 0 841)" d="M187.34 612.94L236.804 612.94L236.804 612.94L236.804 637.18L236.804 637.18L187.34 637.18z" stroke="none" fill="#DAEEF3" fill-rule="evenodd" /><g clip-path="url(#22)"></g><g clip-path="url(#23)"></g></g><path transform="matrix(1 0 0 -1 0 841)" d="M242.45 599.02L326.69 599.02L326.69 599.02L326.69 637.18L326.69 637.18L242.45 637.18z" stroke="none" fill="#DAEEF3" fill-rule="evenodd" /><g clip-path="url(#24)"><path transform="matrix(1 0 0 -1 0 841)" d="M247.61 612.94L321.53 612.94L321.53 612.94L321.53 637.18L321.53 637.18L247.61 637.18z" stroke="none" fill="#DAEEF3" fill-rule="evenodd" /><g clip-path="url(#25)"></g><g clip-path="url(#26)"></g></g><path transform="matrix(1 0 0 -1 0 841)" d="M327.17 599.02L500.38 599.02L500.38 599.02L500.38 637.18L500.38 637.18L327.17 637.18z" stroke="none" fill="#DAEEF3" fill-rule="evenodd" /><g clip-path="url(#27)"><path transform="matrix(1 0 0 -1 0 841)" d="M332.33 599.02L495.22 599.02L495.22 599.02L495.22 637.18L495.22 637.18L332.33 637.18z" stroke="none" fill="#DAEEF3" fill-rule="evenodd" /><g clip-path="url(#28)"></g><g clip-path="url(#29)"></g><g clip-path="url(#30)"></g><g clip-path="url(#31)"></g><g clip-path="url(#32)"></g><g clip-path="url(#33)"></g></g><path transform="matrix(1 0 0 -1 0 841)" d="M84.264 637.18L84.744 637.18L84.744 637.18L84.744 637.66L84.744 637.66L84.264 637.66z" stroke="none" fill="#000000" fill-rule="evenodd" /><path transform="matrix(1 0 0 -1 0 841)" d="M84.744 637.18L181.824 637.18L181.824 637.18L181.824 637.66L181.824 637.66L84.744 637.66z" stroke="none" fill="#000000" fill-rule="evenodd" /><path transform="matrix(1 0 0 -1 0 841)" d="M181.82 637.18L182.3 637.18L182.3 637.18L182.3 637.66L182.3 637.66L181.82 637.66z" stroke="none" fill="#000000" fill-rule="evenodd" /><path transform="matrix(1 0 0 -1 0 841)" d="M182.3 637.18L241.964 637.18L241.964 637.18L241.964 637.66L241.964 637.66L182.3 637.66z" stroke="none" fill="#000000" fill-rule="evenodd" /><path transform="matrix(1 0 0 -1 0 841)" d="M241.97 637.18L242.45 637.18L242.45 637.18L242.45 637.66L242.45 637.66L241.97 637.66z" stroke="none" fill="#000000" fill-rule="evenodd" /><path transform="matrix(1 0 0 -1 0 841)" d="M242.45 637.18L326.69 637.18L326.69 637.18L326.69 637.66L326.69 637.66L242.45 637.66z" stroke="none" fill="#000000" fill-rule="evenodd" /><path transform="matrix(1 0 0 -1 0 841)" d="M326.69 637.18L327.17 637.18L327.17 637.18L327.17 637.66L327.17 637.66L326.69 637.66z" stroke="none" fill="#000000" fill-rule="evenodd" /><path transform="matrix(1 0 0 -1 0 841)" d="M327.17 637.18L500.38 637.18L500.38 637.18L500.38 637.66L500.38 637.66L327.17 637.66z" stroke="none" fill="#000000" fill-rule="evenodd" /><path transform="matrix(1 0 0 -1 0 841)" d="M500.38 637.18L500.86 637.18L500.86 637.18L500.86 637.66L500.86 637.66L500.38 637.66z" stroke="none" fill="#000000" fill-rule="evenodd" /><path transform="matrix(1 0 0 -1 0 841)" d="M84.264 599.02L84.744 599.02L84.744 599.02L84.744 637.18L84.744 637.18L84.264 637.18z" stroke="none" fill="#000000" fill-rule="evenodd" /><path transform="matrix(1 0 0 -1 0 841)" d="M181.82 599.02L182.3 599.02L182.3 599.02L182.3 637.18L182.3 637.18L181.82 637.18z" stroke="none" fill="#000000" fill-rule="evenodd" /><path transform="matrix(1 0 0 -1 0 841)" d="M241.97 599.02L242.45 599.02L242.45 599.02L242.45 637.18L242.45 637.18L241.97 637.18z" stroke="none" fill="#000000" fill-rule="evenodd" /><path transform="matrix(1 0 0 -1 0 841)" d="M326.69 599.02L327.17 599.02L327.17 599.02L327.17 637.18L327.17 637.18L326.69 637.18z" stroke="none" fill="#000000" fill-rule="evenodd" /><path transform="matrix(1 0 0 -1 0 841)" d="M500.38 599.02L500.86 599.02L500.86 599.02L500.86 637.18L500.86 637.18L500.38 637.18z" stroke="none" fill="#000000" fill-rule="evenodd" /><g clip-path="url(#34)"><g clip-path="url(#35)"></g><g clip-path="url(#36)"></g></g><g clip-path="url(#37)"><g clip-path="url(#38)"></g><g clip-path="url(#39)"></g></g><g clip-path="url(#40)"><g clip-path="url(#41)"></g><g clip-path="url(#42)"></g></g><g clip-path="url(#43)"><g clip-path="url(#44)"></g><g clip-path="url(#45)"></g><g clip-path="url(#46)"></g></g><path transform="matrix(1 0 0 -1 0 841)" d="M84.264 598.54L84.744 598.54L84.744 598.54L84.744 599.02L84.744 599.02L84.264 599.02z" stroke="none" fill="#000000" fill-rule="evenodd" /><path transform="matrix(1 0 0 -1 0 841)" d="M84.744 598.54L181.824 598.54L181.824 598.54L181.824 599.02L181.824 599.02L84.744 599.02z" stroke="none" fill="#000000" fill-rule="evenodd" /><path transform="matrix(1 0 0 -1 0 841)" d="M181.82 598.54L182.3 598.54L182.3 598.54L182.3 599.02L182.3 599.02L181.82 599.02z" stroke="none" fill="#000000" fill-rule="evenodd" /><path transform="matrix(1 0 0 -1 0 841)" d="M182.3 598.54L241.964 598.54L241.964 598.54L241.964 599.02L241.964 599.02L182.3 599.02z" stroke="none" fill="#000000" fill-rule="evenodd" /><path transform="matrix(1 0 0 -1 0 841)" d="M241.97 598.54L242.45 598.54L242.45 598.54L242.45 599.02L242.45 599.02L241.97 599.02z" stroke="none" fill="#000000" fill-rule="evenodd" /><path transform="matrix(1 0 0 -1 0 841)" d="M242.45 598.54L326.69 598.54L326.69 598.54L326.69 599.02L326.69 599.02L242.45 599.02z" stroke="none" fill="#000000" fill-rule="evenodd" /><path transform="matrix(1 0 0 -1 0 841)" d="M326.69 598.54L327.17 598.54L327.17 598.54L327.17 599.02L327.17 599.02L326.69 599.02z" stroke="none" fill="#000000" fill-rule="evenodd" /><path transform="matrix(1 0 0 -1 0 841)" d="M327.17 598.54L500.38 598.54L500.38 598.54L500.38 599.02L500.38 599.02L327.17 599.02z" stroke="none" fill="#000000" fill-rule="evenodd" /><path transform="matrix(1 0 0 -1 0 841)" d="M500.38 598.54L500.86 598.54L500.86 598.54L500.86 599.02L500.86 599.02L500.38 599.02z" stroke="none" fill="#000000" fill-rule="evenodd" /><path transform="matrix(1 0 0 -1 0 841)" d="M84.264 574.42L84.744 574.42L84.744 574.42L84.744 598.54L84.744 598.54L84.264 598.54z" stroke="none" fill="#000000" fill-rule="evenodd" /><path transform="matrix(1 0 0 -1 0 841)" d="M181.82 574.42L182.3 574.42L182.3 574.42L182.3 598.54L182.3 598.54L181.82 598.54z" stroke="none" fill="#000000" fill-rule="evenodd" /><path transform="matrix(1 0 0 -1 0 841)" d="M241.97 574.42L242.45 574.42L242.45 574.42L242.45 598.54L242.45 598.54L241.97 598.54z" stroke="none" fill="#000000" fill-rule="evenodd" /><path transform="matrix(1 0 0 -1 0 841)" d="M326.69 574.42L327.17 574.42L327.17 574.42L327.17 598.54L327.17 598.54L326.69 598.54z" stroke="none" fill="#000000" fill-rule="evenodd" /><path transform="matrix(1 0 0 -1 0 841)" d="M500.38 574.42L500.86 574.42L500.86 574.42L500.86 598.54L500.86 598.54L500.38 598.54z" stroke="none" fill="#000000" fill-rule="evenodd" /><path transform="matrix(1 0 0 -1 0 841)" d="M84.744 549.67L181.704 549.67L181.704 549.67L181.704 573.814L181.704 573.814L84.744 573.814z" stroke="none" fill="#DAEEF3" fill-rule="evenodd" /><g clip-path="url(#47)"><path transform="matrix(1 0 0 -1 0 841)" d="M89.904 549.67L176.544 549.67L176.544 549.67L176.544 573.814L176.544 573.814L89.904 573.814z" stroke="none" fill="#DAEEF3" fill-rule="evenodd" /><g clip-path="url(#48)"></g><g clip-path="url(#49)"></g></g><path transform="matrix(1 0 0 -1 0 841)" d="M182.18 549.67L241.844 549.67L241.844 549.67L241.844 573.814L241.844 573.814L182.18 573.814z" stroke="none" fill="#DAEEF3" fill-rule="evenodd" /><g clip-path="url(#50)"><path transform="matrix(1 0 0 -1 0 841)" d="M187.34 549.67L236.804 549.67L236.804 549.67L236.804 573.814L236.804 573.814L187.34 573.814z" stroke="none" fill="#DAEEF3" fill-rule="evenodd" /><g clip-path="url(#51)"></g><g clip-path="url(#52)"></g></g><path transform="matrix(1 0 0 -1 0 841)" d="M242.45 549.67L326.69 549.67L326.69 549.67L326.69 573.814L326.69 573.814L242.45 573.814z" stroke="none" fill="#DAEEF3" fill-rule="evenodd" /><g clip-path="url(#53)"><path transform="matrix(1 0 0 -1 0 841)" d="M247.61 549.67L321.53 549.67L321.53 549.67L321.53 573.814L321.53 573.814L247.61 573.814z" stroke="none" fill="#DAEEF3" fill-rule="evenodd" /><g clip-path="url(#54)"></g></g><path transform="matrix(1 0 0 -1 0 841)" d="M327.17 549.67L500.38 549.67L500.38 549.67L500.38 573.814L500.38 573.814L327.17 573.814z" stroke="none" fill="#DAEEF3" fill-rule="evenodd" /><g clip-path="url(#55)"><path transform="matrix(1 0 0 -1 0 841)" d="M332.33 554.83L495.22 554.83L495.22 554.83L495.22 573.814L495.22 573.814L332.33 573.814z" stroke="none" fill="#DAEEF3" fill-rule="evenodd" /><g clip-path="url(#56)"></g><g clip-path="url(#57)"></g><g clip-path="url(#58)"></g><g clip-path="url(#59)"></g><g clip-path="url(#60)"></g><g clip-path="url(#61)"></g></g><path transform="matrix(1 0 0 -1 0 841)" d="M84.264 573.94L84.744 573.94L84.744 573.94L84.744 574.42L84.744 574.42L84.264 574.42z" stroke="none" fill="#000000" fill-rule="evenodd" /><path transform="matrix(1 0 0 -1 0 841)" d="M84.744 573.94L181.824 573.94L181.824 573.94L181.824 574.42L181.824 574.42L84.744 574.42z" stroke="none" fill="#000000" fill-rule="evenodd" /><path transform="matrix(1 0 0 -1 0 841)" d="M181.82 573.94L182.3 573.94L182.3 573.94L182.3 574.42L182.3 574.42L181.82 574.42z" stroke="none" fill="#000000" fill-rule="evenodd" /><path transform="matrix(1 0 0 -1 0 841)" d="M182.3 573.94L241.964 573.94L241.964 573.94L241.964 574.42L241.964 574.42L182.3 574.42z" stroke="none" fill="#000000" fill-rule="evenodd" /><path transform="matrix(1 0 0 -1 0 841)" d="M241.97 573.94L242.45 573.94L242.45 573.94L242.45 574.42L242.45 574.42L241.97 574.42z" stroke="none" fill="#000000" fill-rule="evenodd" /><path transform="matrix(1 0 0 -1 0 841)" d="M242.45 573.94L326.69 573.94L326.69 573.94L326.69 574.42L326.69 574.42L242.45 574.42z" stroke="none" fill="#000000" fill-rule="evenodd" /><path transform="matrix(1 0 0 -1 0 841)" d="M326.69 573.94L327.17 573.94L327.17 573.94L327.17 574.42L327.17 574.42L326.69 574.42z" stroke="none" fill="#000000" fill-rule="evenodd" /><path transform="matrix(1 0 0 -1 0 841)" d="M327.17 573.94L500.38 573.94L500.38 573.94L500.38 574.42L500.38 574.42L327.17 574.42z" stroke="none" fill="#000000" fill-rule="evenodd" /><path transform="matrix(1 0 0 -1 0 841)" d="M500.38 573.94L500.86 573.94L500.86 573.94L500.86 574.42L500.86 574.42L500.38 574.42z" stroke="none" fill="#000000" fill-rule="evenodd" /><path transform="matrix(1 0 0 -1 0 841)" d="M84.264 549.67L84.744 549.67L84.744 549.67L84.744 573.934L84.744 573.934L84.264 573.934z" stroke="none" fill="#000000" fill-rule="evenodd" /><path transform="matrix(1 0 0 -1 0 841)" d="M181.82 549.67L182.3 549.67L182.3 549.67L182.3 573.934L182.3 573.934L181.82 573.934z" stroke="none" fill="#000000" fill-rule="evenodd" /><path transform="matrix(1 0 0 -1 0 841)" d="M241.97 549.67L242.45 549.67L242.45 549.67L242.45 573.934L242.45 573.934L241.97 573.934z" stroke="none" fill="#000000" fill-rule="evenodd" /><path transform="matrix(1 0 0 -1 0 841)" d="M326.69 549.67L327.17 549.67L327.17 549.67L327.17 573.934L327.17 573.934L326.69 573.934z" stroke="none" fill="#000000" fill-rule="evenodd" /><path transform="matrix(1 0 0 -1 0 841)" d="M500.38 549.67L500.86 549.67L500.86 549.67L500.86 573.934L500.86 573.934L500.38 573.934z" stroke="none" fill="#000000" fill-rule="evenodd" /><g clip-path="url(#62)"><g clip-path="url(#63)"></g><g clip-path="url(#64)"></g></g><g clip-path="url(#65)"><g clip-path="url(#66)"></g><g clip-path="url(#67)"></g><g clip-path="url(#68)"></g></g><g clip-path="url(#69)"><g clip-path="url(#70)"></g><g clip-path="url(#71)"></g></g><g clip-path="url(#72)"><g clip-path="url(#73)"></g><g clip-path="url(#74)"></g><g clip-path="url(#75)"></g><g clip-path="url(#76)"></g><g clip-path="url(#77)"></g></g><path transform="matrix(1 0 0 -1 0 841)" d="M84.264 549.19L84.744 549.19L84.744 549.19L84.744 549.67L84.744 549.67L84.264 549.67z" stroke="none" fill="#000000" fill-rule="evenodd" /><path transform="matrix(1 0 0 -1 0 841)" d="M84.744 549.19L181.824 549.19L181.824 549.19L181.824 549.67L181.824 549.67L84.744 549.67z" stroke="none" fill="#000000" fill-rule="evenodd" /><path transform="matrix(1 0 0 -1 0 841)" d="M181.82 549.19L182.3 549.19L182.3 549.19L182.3 549.67L182.3 549.67L181.82 549.67z" stroke="none" fill="#000000" fill-rule="evenodd" /><path transform="matrix(1 0 0 -1 0 841)" d="M182.3 549.19L241.964 549.19L241.964 549.19L241.964 549.67L241.964 549.67L182.3 549.67z" stroke="none" fill="#000000" fill-rule="evenodd" /><path transform="matrix(1 0 0 -1 0 841)" d="M241.97 549.19L242.45 549.19L242.45 549.19L242.45 549.67L242.45 549.67L241.97 549.67z" stroke="none" fill="#000000" fill-rule="evenodd" /><path transform="matrix(1 0 0 -1 0 841)" d="M242.45 549.19L326.69 549.19L326.69 549.19L326.69 549.67L326.69 549.67L242.45 549.67z" stroke="none" fill="#000000" fill-rule="evenodd" /><path transform="matrix(1 0 0 -1 0 841)" d="M326.69 549.19L327.17 549.19L327.17 549.19L327.17 549.67L327.17 549.67L326.69 549.67z" stroke="none" fill="#000000" fill-rule="evenodd" /><path transform="matrix(1 0 0 -1 0 841)" d="M327.17 549.19L500.38 549.19L500.38 549.19L500.38 549.67L500.38 549.67L327.17 549.67z" stroke="none" fill="#000000" fill-rule="evenodd" /><path transform="matrix(1 0 0 -1 0 841)" d="M500.38 549.19L500.86 549.19L500.86 549.19L500.86 549.67L500.86 549.67L500.38 549.67z" stroke="none" fill="#000000" fill-rule="evenodd" /><path transform="matrix(1 0 0 -1 0 841)" d="M84.264 525.07L84.744 525.07L84.744 525.07L84.744 549.19L84.744 549.19L84.264 549.19z" stroke="none" fill="#000000" fill-rule="evenodd" /><path transform="matrix(1 0 0 -1 0 841)" d="M181.82 525.07L182.3 525.07L182.3 525.07L182.3 549.19L182.3 549.19L181.82 549.19z" stroke="none" fill="#000000" fill-rule="evenodd" /><path transform="matrix(1 0 0 -1 0 841)" d="M241.97 525.07L242.45 525.07L242.45 525.07L242.45 549.19L242.45 549.19L241.97 549.19z" stroke="none" fill="#000000" fill-rule="evenodd" /><path transform="matrix(1 0 0 -1 0 841)" d="M326.69 525.07L327.17 525.07L327.17 525.07L327.17 549.19L327.17 549.19L326.69 549.19z" stroke="none" fill="#000000" fill-rule="evenodd" /><path transform="matrix(1 0 0 -1 0 841)" d="M500.38 525.07L500.86 525.07L500.86 525.07L500.86 549.19L500.86 549.19L500.38 549.19z" stroke="none" fill="#000000" fill-rule="evenodd" /><path transform="matrix(1 0 0 -1 0 841)" d="M84.744 500.35L181.704 500.35L181.704 500.35L181.704 524.59L181.704 524.59L84.744 524.59z" stroke="none" fill="#DAEEF3" fill-rule="evenodd" /><g clip-path="url(#78)"><path transform="matrix(1 0 0 -1 0 841)" d="M89.904 500.35L176.544 500.35L176.544 500.35L176.544 524.59L176.544 524.59L89.904 524.59z" stroke="none" fill="#DAEEF3" fill-rule="evenodd" /><g clip-path="url(#79)"></g><g clip-path="url(#80)"></g></g><path transform="matrix(1 0 0 -1 0 841)" d="M182.18 500.35L241.844 500.35L241.844 500.35L241.844 524.59L241.844 524.59L182.18 524.59z" stroke="none" fill="#DAEEF3" fill-rule="evenodd" /><g clip-path="url(#81)"><path transform="matrix(1 0 0 -1 0 841)" d="M187.34 500.35L236.804 500.35L236.804 500.35L236.804 524.59L236.804 524.59L187.34 524.59z" stroke="none" fill="#DAEEF3" fill-rule="evenodd" /><g clip-path="url(#82)"></g><g clip-path="url(#83)"></g></g><path transform="matrix(1 0 0 -1 0 841)" d="M242.45 500.35L326.69 500.35L326.69 500.35L326.69 524.59L326.69 524.59L242.45 524.59z" stroke="none" fill="#DAEEF3" fill-rule="evenodd" /><g clip-path="url(#84)"><path transform="matrix(1 0 0 -1 0 841)" d="M247.61 500.35L321.53 500.35L321.53 500.35L321.53 524.59L321.53 524.59L247.61 524.59z" stroke="none" fill="#DAEEF3" fill-rule="evenodd" /><g clip-path="url(#85)"></g><g clip-path="url(#86)"></g></g><path transform="matrix(1 0 0 -1 0 841)" d="M327.17 500.35L500.38 500.35L500.38 500.35L500.38 524.59L500.38 524.59L327.17 524.59z" stroke="none" fill="#DAEEF3" fill-rule="evenodd" /><g clip-path="url(#87)"><path transform="matrix(1 0 0 -1 0 841)" d="M332.33 505.51L495.22 505.51L495.22 505.51L495.22 524.59L495.22 524.59L332.33 524.59z" stroke="none" fill="#DAEEF3" fill-rule="evenodd" /><g clip-path="url(#88)"></g><g clip-path="url(#89)"></g></g><path transform="matrix(1 0 0 -1 0 841)" d="M84.264 524.59L84.744 524.59L84.744 524.59L84.744 525.07L84.744 525.07L84.264 525.07z" stroke="none" fill="#000000" fill-rule="evenodd" /><path transform="matrix(1 0 0 -1 0 841)" d="M84.744 524.59L181.824 524.59L181.824 524.59L181.824 525.07L181.824 525.07L84.744 525.07z" stroke="none" fill="#000000" fill-rule="evenodd" /><path transform="matrix(1 0 0 -1 0 841)" d="M181.82 524.59L182.3 524.59L182.3 524.59L182.3 525.07L182.3 525.07L181.82 525.07z" stroke="none" fill="#000000" fill-rule="evenodd" /><path transform="matrix(1 0 0 -1 0 841)" d="M182.3 524.59L241.964 524.59L241.964 524.59L241.964 525.07L241.964 525.07L182.3 525.07z" stroke="none" fill="#000000" fill-rule="evenodd" /><path transform="matrix(1 0 0 -1 0 841)" d="M241.97 524.59L242.45 524.59L242.45 524.59L242.45 525.07L242.45 525.07L241.97 525.07z" stroke="none" fill="#000000" fill-rule="evenodd" /><path transform="matrix(1 0 0 -1 0 841)" d="M242.45 524.59L326.69 524.59L326.69 524.59L326.69 525.07L326.69 525.07L242.45 525.07z" stroke="none" fill="#000000" fill-rule="evenodd" /><path transform="matrix(1 0 0 -1 0 841)" d="M326.69 524.59L327.17 524.59L327.17 524.59L327.17 525.07L327.17 525.07L326.69 525.07z" stroke="none" fill="#000000" fill-rule="evenodd" /><path transform="matrix(1 0 0 -1 0 841)" d="M327.17 524.59L500.38 524.59L500.38 524.59L500.38 525.07L500.38 525.07L327.17 525.07z" stroke="none" fill="#000000" fill-rule="evenodd" /><path transform="matrix(1 0 0 -1 0 841)" d="M500.38 524.59L500.86 524.59L500.86 524.59L500.86 525.07L500.86 525.07L500.38 525.07z" stroke="none" fill="#000000" fill-rule="evenodd" /><path transform="matrix(1 0 0 -1 0 841)" d="M84.264 500.35L84.744 500.35L84.744 500.35L84.744 524.59L84.744 524.59L84.264 524.59z" stroke="none" fill="#000000" fill-rule="evenodd" /><path transform="matrix(1 0 0 -1 0 841)" d="M181.82 500.35L182.3 500.35L182.3 500.35L182.3 524.59L182.3 524.59L181.82 524.59z" stroke="none" fill="#000000" fill-rule="evenodd" /><path transform="matrix(1 0 0 -1 0 841)" d="M241.97 500.35L242.45 500.35L242.45 500.35L242.45 524.59L242.45 524.59L241.97 524.59z" stroke="none" fill="#000000" fill-rule="evenodd" /><path transform="matrix(1 0 0 -1 0 841)" d="M326.69 500.35L327.17 500.35L327.17 500.35L327.17 524.59L327.17 524.59L326.69 524.59z" stroke="none" fill="#000000" fill-rule="evenodd" /><path transform="matrix(1 0 0 -1 0 841)" d="M500.38 500.35L500.86 500.35L500.86 500.35L500.86 524.59L500.86 524.59L500.38 524.59z" stroke="none" fill="#000000" fill-rule="evenodd" /><g clip-path="url(#90)"><g clip-path="url(#91)"></g><g clip-path="url(#92)"></g></g><g clip-path="url(#93)"><g clip-path="url(#94)"></g><g clip-path="url(#95)"></g></g><g clip-path="url(#96)"><g clip-path="url(#97)"></g><g clip-path="url(#98)"></g></g><g clip-path="url(#99)"><g clip-path="url(#100)"></g><g clip-path="url(#101)"></g></g><path transform="matrix(1 0 0 -1 0 841)" d="M84.264 499.87L84.744 499.87L84.744 499.87L84.744 500.35L84.744 500.35L84.264 500.35z" stroke="none" fill="#000000" fill-rule="evenodd" /><path transform="matrix(1 0 0 -1 0 841)" d="M84.744 499.87L181.824 499.87L181.824 499.87L181.824 500.35L181.824 500.35L84.744 500.35z" stroke="none" fill="#000000" fill-rule="evenodd" /><path transform="matrix(1 0 0 -1 0 841)" d="M181.82 499.87L182.3 499.87L182.3 499.87L182.3 500.35L182.3 500.35L181.82 500.35z" stroke="none" fill="#000000" fill-rule="evenodd" /><path transform="matrix(1 0 0 -1 0 841)" d="M182.3 499.87L241.964 499.87L241.964 499.87L241.964 500.35L241.964 500.35L182.3 500.35z" stroke="none" fill="#000000" fill-rule="evenodd" /><path transform="matrix(1 0 0 -1 0 841)" d="M241.97 499.87L242.45 499.87L242.45 499.87L242.45 500.35L242.45 500.35L241.97 500.35z" stroke="none" fill="#000000" fill-rule="evenodd" /><path transform="matrix(1 0 0 -1 0 841)" d="M242.45 499.87L326.69 499.87L326.69 499.87L326.69 500.35L326.69 500.35L242.45 500.35z" stroke="none" fill="#000000" fill-rule="evenodd" /><path transform="matrix(1 0 0 -1 0 841)" d="M326.69 499.87L327.17 499.87L327.17 499.87L327.17 500.35L327.17 500.35L326.69 500.35z" stroke="none" fill="#000000" fill-rule="evenodd" /><path transform="matrix(1 0 0 -1 0 841)" d="M327.17 499.87L500.38 499.87L500.38 499.87L500.38 500.35L500.38 500.35L327.17 500.35z" stroke="none" fill="#000000" fill-rule="evenodd" /><path transform="matrix(1 0 0 -1 0 841)" d="M500.38 499.87L500.86 499.87L500.86 499.87L500.86 500.35L500.86 500.35L500.38 500.35z" stroke="none" fill="#000000" fill-rule="evenodd" /><path transform="matrix(1 0 0 -1 0 841)" d="M84.264 475.75L84.744 475.75L84.744 475.75L84.744 499.87L84.744 499.87L84.264 499.87z" stroke="none" fill="#000000" fill-rule="evenodd" /><path transform="matrix(1 0 0 -1 0 841)" d="M181.82 475.75L182.3 475.75L182.3 475.75L182.3 499.87L182.3 499.87L181.82 499.87z" stroke="none" fill="#000000" fill-rule="evenodd" /><path transform="matrix(1 0 0 -1 0 841)" d="M241.97 475.75L242.45 475.75L242.45 475.75L242.45 499.87L242.45 499.87L241.97 499.87z" stroke="none" fill="#000000" fill-rule="evenodd" /><path transform="matrix(1 0 0 -1 0 841)" d="M326.69 475.75L327.17 475.75L327.17 475.75L327.17 499.87L327.17 499.87L326.69 499.87z" stroke="none" fill="#000000" fill-rule="evenodd" /><path transform="matrix(1 0 0 -1 0 841)" d="M500.38 475.75L500.86 475.75L500.86 475.75L500.86 499.87L500.86 499.87L500.38 499.87z" stroke="none" fill="#000000" fill-rule="evenodd" /><path transform="matrix(1 0 0 -1 0 841)" d="M84.744 437.11L181.704 437.11L181.704 437.11L181.704 475.27L181.704 475.27L84.744 475.27z" stroke="none" fill="#DAEEF3" fill-rule="evenodd" /><g clip-path="url(#102)"><path transform="matrix(1 0 0 -1 0 841)" d="M89.904 451.15L176.544 451.15L176.544 451.15L176.544 475.27L176.544 475.27L89.904 475.27z" stroke="none" fill="#DAEEF3" fill-rule="evenodd" /><g clip-path="url(#103)"></g><g clip-path="url(#104)"></g></g><path transform="matrix(1 0 0 -1 0 841)" d="M182.18 437.11L241.844 437.11L241.844 437.11L241.844 475.27L241.844 475.27L182.18 475.27z" stroke="none" fill="#DAEEF3" fill-rule="evenodd" /><g clip-path="url(#105)"><path transform="matrix(1 0 0 -1 0 841)" d="M187.34 451.15L236.804 451.15L236.804 451.15L236.804 475.27L236.804 475.27L187.34 475.27z" stroke="none" fill="#DAEEF3" fill-rule="evenodd" /><g clip-path="url(#106)"></g><g clip-path="url(#107)"></g></g><path transform="matrix(1 0 0 -1 0 841)" d="M242.45 437.11L326.69 437.11L326.69 437.11L326.69 475.27L326.69 475.27L242.45 475.27z" stroke="none" fill="#DAEEF3" fill-rule="evenodd" /><g clip-path="url(#108)"><path transform="matrix(1 0 0 -1 0 841)" d="M247.61 451.15L321.53 451.15L321.53 451.15L321.53 475.27L321.53 475.27L247.61 475.27z" stroke="none" fill="#DAEEF3" fill-rule="evenodd" /><g clip-path="url(#109)"></g><g clip-path="url(#110)"></g></g><path transform="matrix(1 0 0 -1 0 841)" d="M327.17 437.11L500.38 437.11L500.38 437.11L500.38 475.27L500.38 475.27L327.17 475.27z" stroke="none" fill="#DAEEF3" fill-rule="evenodd" /><g clip-path="url(#111)"><path transform="matrix(1 0 0 -1 0 841)" d="M332.33 456.19L495.22 456.19L495.22 456.19L495.22 475.27L495.22 475.27L332.33 475.27z" stroke="none" fill="#DAEEF3" fill-rule="evenodd" /><g clip-path="url(#112)"></g><g clip-path="url(#113)"></g><g clip-path="url(#114)"></g><path transform="matrix(1 0 0 -1 0 841)" d="M332.33 437.11L495.22 437.11L495.22 437.11L495.22 456.19L495.22 456.19L332.33 456.19z" stroke="none" fill="#DAEEF3" fill-rule="evenodd" /><g clip-path="url(#115)"></g><g clip-path="url(#116)"></g><g clip-path="url(#117)"></g><g clip-path="url(#118)"></g></g><path transform="matrix(1 0 0 -1 0 841)" d="M84.264 475.27L84.744 475.27L84.744 475.27L84.744 475.75L84.744 475.75L84.264 475.75z" stroke="none" fill="#000000" fill-rule="evenodd" /><path transform="matrix(1 0 0 -1 0 841)" d="M84.744 475.27L181.824 475.27L181.824 475.27L181.824 475.75L181.824 475.75L84.744 475.75z" stroke="none" fill="#000000" fill-rule="evenodd" /><path transform="matrix(1 0 0 -1 0 841)" d="M181.82 475.27L182.3 475.27L182.3 475.27L182.3 475.75L182.3 475.75L181.82 475.75z" stroke="none" fill="#000000" fill-rule="evenodd" /><path transform="matrix(1 0 0 -1 0 841)" d="M182.3 475.27L241.964 475.27L241.964 475.27L241.964 475.75L241.964 475.75L182.3 475.75z" stroke="none" fill="#000000" fill-rule="evenodd" /><path transform="matrix(1 0 0 -1 0 841)" d="M241.97 475.27L242.45 475.27L242.45 475.27L242.45 475.75L242.45 475.75L241.97 475.75z" stroke="none" fill="#000000" fill-rule="evenodd" /><path transform="matrix(1 0 0 -1 0 841)" d="M242.45 475.27L326.69 475.27L326.69 475.27L326.69 475.75L326.69 475.75L242.45 475.75z" stroke="none" fill="#000000" fill-rule="evenodd" /><path transform="matrix(1 0 0 -1 0 841)" d="M326.69 475.27L327.17 475.27L327.17 475.27L327.17 475.75L327.17 475.75L326.69 475.75z" stroke="none" fill="#000000" fill-rule="evenodd" /><path transform="matrix(1 0 0 -1 0 841)" d="M327.17 475.27L500.38 475.27L500.38 475.27L500.38 475.75L500.38 475.75L327.17 475.75z" stroke="none" fill="#000000" fill-rule="evenodd" /><path transform="matrix(1 0 0 -1 0 841)" d="M500.38 475.27L500.86 475.27L500.86 475.27L500.86 475.75L500.86 475.75L500.38 475.75z" stroke="none" fill="#000000" fill-rule="evenodd" /><path transform="matrix(1 0 0 -1 0 841)" d="M84.264 437.11L84.744 437.11L84.744 437.11L84.744 475.27L84.744 475.27L84.264 475.27z" stroke="none" fill="#000000" fill-rule="evenodd" /><path transform="matrix(1 0 0 -1 0 841)" d="M181.82 437.11L182.3 437.11L182.3 437.11L182.3 475.27L182.3 475.27L181.82 475.27z" stroke="none" fill="#000000" fill-rule="evenodd" /><path transform="matrix(1 0 0 -1 0 841)" d="M241.97 437.11L242.45 437.11L242.45 437.11L242.45 475.27L242.45 475.27L241.97 475.27z" stroke="none" fill="#000000" fill-rule="evenodd" /><path transform="matrix(1 0 0 -1 0 841)" d="M326.69 437.11L327.17 437.11L327.17 437.11L327.17 475.27L327.17 475.27L326.69 475.27z" stroke="none" fill="#000000" fill-rule="evenodd" /><path transform="matrix(1 0 0 -1 0 841)" d="M500.38 437.11L500.86 437.11L500.86 437.11L500.86 475.27L500.86 475.27L500.38 475.27z" stroke="none" fill="#000000" fill-rule="evenodd" /><g clip-path="url(#119)"><g clip-path="url(#120)"></g><g clip-path="url(#121)"></g></g><g clip-path="url(#122)"><g clip-path="url(#123)"></g><g clip-path="url(#124)"></g></g><g clip-path="url(#125)"><g clip-path="url(#126)"></g><g clip-path="url(#127)"></g></g><g clip-path="url(#128)"><g clip-path="url(#129)"></g><g clip-path="url(#130)"></g><g clip-path="url(#131)"></g><g clip-path="url(#132)"></g><g clip-path="url(#133)"></g><g clip-path="url(#134)"></g><g clip-path="url(#135)"></g><g clip-path="url(#136)"></g><g clip-path="url(#137)"></g><g clip-path="url(#138)"></g><g clip-path="url(#139)"></g><g clip-path="url(#140)"></g><g clip-path="url(#141)"></g><g clip-path="url(#142)"></g><g clip-path="url(#143)"></g><g clip-path="url(#144)"></g><g clip-path="url(#145)"></g><g clip-path="url(#146)"></g><g clip-path="url(#147)"></g><g clip-path="url(#148)"></g><g clip-path="url(#149)"></g><g clip-path="url(#150)"></g><g clip-path="url(#151)"></g><g clip-path="url(#152)"></g><g clip-path="url(#153)"></g><g clip-path="url(#154)"></g><g clip-path="url(#155)"></g><g clip-path="url(#156)"></g><g clip-path="url(#157)"></g></g><path transform="matrix(1 0 0 -1 0 841)" d="M84.264 436.63L84.744 436.63L84.744 436.63L84.744 437.11L84.744 437.11L84.264 437.11z" stroke="none" fill="#000000" fill-rule="evenodd" /><path transform="matrix(1 0 0 -1 0 841)" d="M84.744 436.63L181.824 436.63L181.824 436.63L181.824 437.11L181.824 437.11L84.744 437.11z" stroke="none" fill="#000000" fill-rule="evenodd" /><path transform="matrix(1 0 0 -1 0 841)" d="M181.82 436.63L182.3 436.63L182.3 436.63L182.3 437.11L182.3 437.11L181.82 437.11z" stroke="none" fill="#000000" fill-rule="evenodd" /><path transform="matrix(1 0 0 -1 0 841)" d="M182.3 436.63L241.964 436.63L241.964 436.63L241.964 437.11L241.964 437.11L182.3 437.11z" stroke="none" fill="#000000" fill-rule="evenodd" /><path transform="matrix(1 0 0 -1 0 841)" d="M241.97 436.63L242.45 436.63L242.45 436.63L242.45 437.11L242.45 437.11L241.97 437.11z" stroke="none" fill="#000000" fill-rule="evenodd" /><path transform="matrix(1 0 0 -1 0 841)" d="M242.45 436.63L326.69 436.63L326.69 436.63L326.69 437.11L326.69 437.11L242.45 437.11z" stroke="none" fill="#000000" fill-rule="evenodd" /><path transform="matrix(1 0 0 -1 0 841)" d="M326.69 436.63L327.17 436.63L327.17 436.63L327.17 437.11L327.17 437.11L326.69 437.11z" stroke="none" fill="#000000" fill-rule="evenodd" /><path transform="matrix(1 0 0 -1 0 841)" d="M327.17 436.63L500.38 436.63L500.38 436.63L500.38 437.11L500.38 437.11L327.17 437.11z" stroke="none" fill="#000000" fill-rule="evenodd" /><path transform="matrix(1 0 0 -1 0 841)" d="M500.38 436.63L500.86 436.63L500.86 436.63L500.86 437.11L500.86 437.11L500.38 437.11z" stroke="none" fill="#000000" fill-rule="evenodd" /><path transform="matrix(1 0 0 -1 0 841)" d="M84.264 322.37L84.744 322.37L84.744 322.37L84.744 436.63L84.744 436.63L84.264 436.63z" stroke="none" fill="#000000" fill-rule="evenodd" /><path transform="matrix(1 0 0 -1 0 841)" d="M181.82 322.37L182.3 322.37L182.3 322.37L182.3 436.63L182.3 436.63L181.82 436.63z" stroke="none" fill="#000000" fill-rule="evenodd" /><path transform="matrix(1 0 0 -1 0 841)" d="M241.97 322.37L242.45 322.37L242.45 322.37L242.45 436.63L242.45 436.63L241.97 436.63z" stroke="none" fill="#000000" fill-rule="evenodd" /><path transform="matrix(1 0 0 -1 0 841)" d="M326.69 322.37L327.17 322.37L327.17 322.37L327.17 436.63L327.17 436.63L326.69 436.63z" stroke="none" fill="#000000" fill-rule="evenodd" /><path transform="matrix(1 0 0 -1 0 841)" d="M500.38 322.37L500.86 322.37L500.86 322.37L500.86 436.63L500.86 436.63L500.38 436.63z" stroke="none" fill="#000000" fill-rule="evenodd" /><path transform="matrix(1 0 0 -1 0 841)" d="M84.744 291.41L181.704 291.41L181.704 291.41L181.704 321.89L181.704 321.89L84.744 321.89z" stroke="none" fill="#DAEEF3" fill-rule="evenodd" /><g clip-path="url(#158)"><path transform="matrix(1 0 0 -1 0 841)" d="M89.904 297.65L176.544 297.65L176.544 297.65L176.544 321.89L176.544 321.89L89.904 321.89z" stroke="none" fill="#DAEEF3" fill-rule="evenodd" /><g clip-path="url(#159)"></g><g clip-path="url(#160)"></g></g><path transform="matrix(1 0 0 -1 0 841)" d="M182.18 291.41L241.844 291.41L241.844 291.41L241.844 321.89L241.844 321.89L182.18 321.89z" stroke="none" fill="#DAEEF3" fill-rule="evenodd" /><g clip-path="url(#161)"><path transform="matrix(1 0 0 -1 0 841)" d="M187.34 297.65L236.804 297.65L236.804 297.65L236.804 321.89L236.804 321.89L187.34 321.89z" stroke="none" fill="#DAEEF3" fill-rule="evenodd" /><g clip-path="url(#162)"></g><g clip-path="url(#163)"></g></g><path transform="matrix(1 0 0 -1 0 841)" d="M242.45 291.41L326.69 291.41L326.69 291.41L326.69 321.89L326.69 321.89L242.45 321.89z" stroke="none" fill="#DAEEF3" fill-rule="evenodd" /><g clip-path="url(#164)"><path transform="matrix(1 0 0 -1 0 841)" d="M247.61 297.65L321.53 297.65L321.53 297.65L321.53 321.89L321.53 321.89L247.61 321.89z" stroke="none" fill="#DAEEF3" fill-rule="evenodd" /><g clip-path="url(#165)"></g><g clip-path="url(#166)"></g></g><path transform="matrix(1 0 0 -1 0 841)" d="M327.17 291.41L500.38 291.41L500.38 291.41L500.38 321.89L500.38 321.89L327.17 321.89z" stroke="none" fill="#DAEEF3" fill-rule="evenodd" /><g clip-path="url(#167)"><path transform="matrix(1 0 0 -1 0 841)" d="M332.33 291.41L495.22 291.41L495.22 291.41L495.22 321.89L495.22 321.89L332.33 321.89z" stroke="none" fill="#DAEEF3" fill-rule="evenodd" /><g clip-path="url(#168)"></g><g clip-path="url(#169)"></g><g clip-path="url(#170)"></g></g><path transform="matrix(1 0 0 -1 0 841)" d="M84.264 321.89L84.744 321.89L84.744 321.89L84.744 322.37L84.744 322.37L84.264 322.37z" stroke="none" fill="#000000" fill-rule="evenodd" /><path transform="matrix(1 0 0 -1 0 841)" d="M84.744 321.89L181.824 321.89L181.824 321.89L181.824 322.37L181.824 322.37L84.744 322.37z" stroke="none" fill="#000000" fill-rule="evenodd" /><path transform="matrix(1 0 0 -1 0 841)" d="M181.82 321.89L182.3 321.89L182.3 321.89L182.3 322.37L182.3 322.37L181.82 322.37z" stroke="none" fill="#000000" fill-rule="evenodd" /><path transform="matrix(1 0 0 -1 0 841)" d="M182.3 321.89L241.964 321.89L241.964 321.89L241.964 322.37L241.964 322.37L182.3 322.37z" stroke="none" fill="#000000" fill-rule="evenodd" /><path transform="matrix(1 0 0 -1 0 841)" d="M241.97 321.89L242.45 321.89L242.45 321.89L242.45 322.37L242.45 322.37L241.97 322.37z" stroke="none" fill="#000000" fill-rule="evenodd" /><path transform="matrix(1 0 0 -1 0 841)" d="M242.45 321.89L326.69 321.89L326.69 321.89L326.69 322.37L326.69 322.37L242.45 322.37z" stroke="none" fill="#000000" fill-rule="evenodd" /><path transform="matrix(1 0 0 -1 0 841)" d="M326.69 321.89L327.17 321.89L327.17 321.89L327.17 322.37L327.17 322.37L326.69 322.37z" stroke="none" fill="#000000" fill-rule="evenodd" /><path transform="matrix(1 0 0 -1 0 841)" d="M327.17 321.89L500.38 321.89L500.38 321.89L500.38 322.37L500.38 322.37L327.17 322.37z" stroke="none" fill="#000000" fill-rule="evenodd" /><path transform="matrix(1 0 0 -1 0 841)" d="M500.38 321.89L500.86 321.89L500.86 321.89L500.86 322.37L500.86 322.37L500.38 322.37z" stroke="none" fill="#000000" fill-rule="evenodd" /><path transform="matrix(1 0 0 -1 0 841)" d="M84.264 291.41L84.744 291.41L84.744 291.41L84.744 321.89L84.744 321.89L84.264 321.89z" stroke="none" fill="#000000" fill-rule="evenodd" /><path transform="matrix(1 0 0 -1 0 841)" d="M84.264 290.93L84.744 290.93L84.744 290.93L84.744 291.41L84.744 291.41L84.264 291.41z" stroke="none" fill="#000000" fill-rule="evenodd" /><path transform="matrix(1 0 0 -1 0 841)" d="M84.264 290.93L84.744 290.93L84.744 290.93L84.744 291.41L84.744 291.41L84.264 291.41z" stroke="none" fill="#000000" fill-rule="evenodd" /><path transform="matrix(1 0 0 -1 0 841)" d="M84.744 290.93L181.824 290.93L181.824 290.93L181.824 291.41L181.824 291.41L84.744 291.41z" stroke="none" fill="#000000" fill-rule="evenodd" /><path transform="matrix(1 0 0 -1 0 841)" d="M181.82 291.41L182.3 291.41L182.3 291.41L182.3 321.89L182.3 321.89L181.82 321.89z" stroke="none" fill="#000000" fill-rule="evenodd" /><path transform="matrix(1 0 0 -1 0 841)" d="M181.82 290.93L182.3 290.93L182.3 290.93L182.3 291.41L182.3 291.41L181.82 291.41z" stroke="none" fill="#000000" fill-rule="evenodd" /><path transform="matrix(1 0 0 -1 0 841)" d="M182.3 290.93L241.964 290.93L241.964 290.93L241.964 291.41L241.964 291.41L182.3 291.41z" stroke="none" fill="#000000" fill-rule="evenodd" /><path transform="matrix(1 0 0 -1 0 841)" d="M241.97 291.41L242.45 291.41L242.45 291.41L242.45 321.89L242.45 321.89L241.97 321.89z" stroke="none" fill="#000000" fill-rule="evenodd" /><path transform="matrix(1 0 0 -1 0 841)" d="M241.97 290.93L242.45 290.93L242.45 290.93L242.45 291.41L242.45 291.41L241.97 291.41z" stroke="none" fill="#000000" fill-rule="evenodd" /><path transform="matrix(1 0 0 -1 0 841)" d="M242.45 290.93L326.69 290.93L326.69 290.93L326.69 291.41L326.69 291.41L242.45 291.41z" stroke="none" fill="#000000" fill-rule="evenodd" /><path transform="matrix(1 0 0 -1 0 841)" d="M326.69 291.41L327.17 291.41L327.17 291.41L327.17 321.89L327.17 321.89L326.69 321.89z" stroke="none" fill="#000000" fill-rule="evenodd" /><path transform="matrix(1 0 0 -1 0 841)" d="M326.69 290.93L327.17 290.93L327.17 290.93L327.17 291.41L327.17 291.41L326.69 291.41z" stroke="none" fill="#000000" fill-rule="evenodd" /><path transform="matrix(1 0 0 -1 0 841)" d="M327.17 290.93L500.38 290.93L500.38 290.93L500.38 291.41L500.38 291.41L327.17 291.41z" stroke="none" fill="#000000" fill-rule="evenodd" /><path transform="matrix(1 0 0 -1 0 841)" d="M500.38 291.41L500.86 291.41L500.86 291.41L500.86 321.89L500.86 321.89L500.38 321.89z" stroke="none" fill="#000000" fill-rule="evenodd" /><path transform="matrix(1 0 0 -1 0 841)" d="M500.38 290.93L500.86 290.93L500.86 290.93L500.86 291.41L500.86 291.41L500.38 291.41z" stroke="none" fill="#000000" fill-rule="evenodd" /><path transform="matrix(1 0 0 -1 0 841)" d="M500.38 290.93L500.86 290.93L500.86 290.93L500.86 291.41L500.86 291.41L500.38 291.41z" stroke="none" fill="#000000" fill-rule="evenodd" /></g></g></g></svg>