<svg xmlns="http://www.w3.org/2000/svg" xmlns:xlink="http://www.w3.org/1999/xlink" id="body_227" preserveAspectRatio="xMinYMin meet" viewBox="0 0 793 1121"><defs><clipPath id="1"><path d="M0 841L0 -0.9199829L0 -0.9199829L595.32 -0.9199829L595.32 -0.9199829L595.32 841L595.32 841L0 841z" /></clipPath><clipPath id="2"><path d="M0.00125 841.0914L595.4112 841.0914L595.4112 841.0914L595.4112 -0.9186401L595.4112 -0.9186401L0.00125 -0.9186401z" /></clipPath><clipPath id="3"><path d="M288.05 781.211L316.01 781.211L316.01 781.211L316.01 762.011L316.01 762.011L288.05 762.011z" /></clipPath><clipPath id="4"><path d="M288.05 781.216L316.01 781.216L316.01 781.216L316.01 762.016L316.01 762.016L288.05 762.016z" /></clipPath><clipPath id="5"><path d="M288.05 781.216L316.01 781.216L316.01 781.216L316.01 762.016L316.01 762.016L288.05 762.016z" /></clipPath><clipPath id="6"><path d="M84.751 113.59L510.691 113.59L510.691 113.59L510.691 89.44L510.691 89.44L84.751 89.44z" /></clipPath><clipPath id="7"><path d="M84.744 113.58L510.694 113.58L510.694 113.58L510.694 89.43604L510.694 89.43604L84.744 89.43604z" /></clipPath><clipPath id="8"><path d="M84.744 113.58L510.694 113.58L510.694 113.58L510.694 89.43604L510.694 89.43604L84.744 89.43604z" /></clipPath><clipPath id="9"><path d="M84.751 276.67L510.691 276.67L510.691 276.67L510.691 114.0699L510.691 114.0699L84.751 114.0699z" /></clipPath><clipPath id="10"><path d="M84.744 276.66L510.694 276.66L510.694 276.66L510.694 114.0599L510.694 114.0599L84.744 114.0599z" /></clipPath><clipPath id="11"><path d="M84.744 276.66L510.694 276.66L510.694 276.66L510.694 114.0599L510.694 114.0599L84.744 114.0599z" /></clipPath><clipPath id="12"><path d="M84.744 276.66L510.694 276.66L510.694 276.66L510.694 114.0599L510.694 114.0599L84.744 114.0599z" /></clipPath><clipPath id="13"><path d="M84.744 276.66L510.694 276.66L510.694 276.66L510.694 114.0599L510.694 114.0599L84.744 114.0599z" /></clipPath><clipPath id="14"><path d="M84.744 276.66L510.694 276.66L510.694 276.66L510.694 114.0599L510.694 114.0599L84.744 114.0599z" /></clipPath><clipPath id="15"><path d="M84.744 276.66L510.694 276.66L510.694 276.66L510.694 114.0599L510.694 114.0599L84.744 114.0599z" /></clipPath><clipPath id="16"><path d="M84.744 276.66L510.694 276.66L510.694 276.66L510.694 114.0599L510.694 114.0599L84.744 114.0599z" /></clipPath><clipPath id="17"><path d="M84.744 276.66L510.694 276.66L510.694 276.66L510.694 114.0599L510.694 114.0599L84.744 114.0599z" /></clipPath><clipPath id="18"><path d="M84.744 276.66L510.694 276.66L510.694 276.66L510.694 114.0599L510.694 114.0599L84.744 114.0599z" /></clipPath><clipPath id="19"><path d="M84.744 276.66L510.694 276.66L510.694 276.66L510.694 114.0599L510.694 114.0599L84.744 114.0599z" /></clipPath><clipPath id="20"><path d="M84.744 276.66L510.694 276.66L510.694 276.66L510.694 114.0599L510.694 114.0599L84.744 114.0599z" /></clipPath><clipPath id="21"><path d="M84.744 276.66L510.694 276.66L510.694 276.66L510.694 114.0599L510.694 114.0599L84.744 114.0599z" /></clipPath><clipPath id="22"><path d="M84.744 276.66L510.694 276.66L510.694 276.66L510.694 114.0599L510.694 114.0599L84.744 114.0599z" /></clipPath><clipPath id="23"><path d="M84.744 276.66L510.694 276.66L510.694 276.66L510.694 114.0599L510.694 114.0599L84.744 114.0599z" /></clipPath><clipPath id="24"><path d="M84.744 276.66L510.694 276.66L510.694 276.66L510.694 114.0599L510.694 114.0599L84.744 114.0599z" /></clipPath><clipPath id="25"><path d="M84.744 276.66L510.694 276.66L510.694 276.66L510.694 114.0599L510.694 114.0599L84.744 114.0599z" /></clipPath><clipPath id="26"><path d="M84.744 276.66L510.694 276.66L510.694 276.66L510.694 114.0599L510.694 114.0599L84.744 114.0599z" /></clipPath><clipPath id="27"><path d="M84.744 276.66L510.694 276.66L510.694 276.66L510.694 114.0599L510.694 114.0599L84.744 114.0599z" /></clipPath><clipPath id="28"><path d="M84.744 276.66L510.694 276.66L510.694 276.66L510.694 114.0599L510.694 114.0599L84.744 114.0599z" /></clipPath><clipPath id="29"><path d="M84.744 276.66L510.694 276.66L510.694 276.66L510.694 114.0599L510.694 114.0599L84.744 114.0599z" /></clipPath><clipPath id="30"><path d="M84.744 276.66L510.694 276.66L510.694 276.66L510.694 114.0599L510.694 114.0599L84.744 114.0599z" /></clipPath><clipPath id="31"><path d="M84.744 276.66L510.694 276.66L510.694 276.66L510.694 114.0599L510.694 114.0599L84.744 114.0599z" /></clipPath><clipPath id="32"><path d="M84.744 276.66L510.694 276.66L510.694 276.66L510.694 114.0599L510.694 114.0599L84.744 114.0599z" /></clipPath><clipPath id="33"><path d="M84.744 276.66L510.694 276.66L510.694 276.66L510.694 114.0599L510.694 114.0599L84.744 114.0599z" /></clipPath><clipPath id="34"><path d="M84.744 276.66L510.694 276.66L510.694 276.66L510.694 114.0599L510.694 114.0599L84.744 114.0599z" /></clipPath><clipPath id="35"><path d="M84.744 276.66L510.694 276.66L510.694 276.66L510.694 114.0599L510.694 114.0599L84.744 114.0599z" /></clipPath><clipPath id="36"><path d="M84.744 276.66L510.694 276.66L510.694 276.66L510.694 114.0599L510.694 114.0599L84.744 114.0599z" /></clipPath><clipPath id="37"><path d="M84.744 276.66L510.694 276.66L510.694 276.66L510.694 114.0599L510.694 114.0599L84.744 114.0599z" /></clipPath><clipPath id="38"><path d="M84.744 276.66L510.694 276.66L510.694 276.66L510.694 114.0599L510.694 114.0599L84.744 114.0599z" /></clipPath><clipPath id="39"><path d="M84.744 276.66L510.694 276.66L510.694 276.66L510.694 114.0599L510.694 114.0599L84.744 114.0599z" /></clipPath><clipPath id="40"><path d="M84.744 276.66L510.694 276.66L510.694 276.66L510.694 114.0599L510.694 114.0599L84.744 114.0599z" /></clipPath><clipPath id="41"><path d="M84.751 359.85L169.831 359.85L169.831 359.85L169.831 334.77L169.831 334.77L84.751 334.77z" /></clipPath><clipPath id="42"><path d="M84.744 359.85L169.824 359.85L169.824 359.85L169.824 334.77L169.824 334.77L84.744 334.77z" /></clipPath><clipPath id="43"><path d="M84.744 359.85L169.824 359.85L169.824 359.85L169.824 334.77L169.824 334.77L84.744 334.77z" /></clipPath><clipPath id="44"><path d="M170.31 359.85L231.645 359.85L231.645 359.85L231.645 334.77L231.645 334.77L170.31 334.77z" /></clipPath><clipPath id="45"><path d="M170.3 359.85L231.644 359.85L231.644 359.85L231.644 334.77L231.644 334.77L170.3 334.77z" /></clipPath><clipPath id="46"><path d="M170.3 359.85L231.644 359.85L231.644 359.85L231.644 334.77L231.644 334.77L170.3 334.77z" /></clipPath><clipPath id="47"><path d="M232.25 359.85L288.41 359.85L288.41 359.85L288.41 334.77L288.41 334.77L232.25 334.77z" /></clipPath><clipPath id="48"><path d="M232.25 359.85L288.41 359.85L288.41 359.85L288.41 334.77L288.41 334.77L232.25 334.77z" /></clipPath><clipPath id="49"><path d="M232.25 359.85L288.41 359.85L288.41 359.85L288.41 334.77L288.41 334.77L232.25 334.77z" /></clipPath><clipPath id="50"><path d="M288.89 359.85L347.96 359.85L347.96 359.85L347.96 334.77L347.96 334.77L288.89 334.77z" /></clipPath><clipPath id="51"><path d="M288.89 359.85L347.954 359.85L347.954 359.85L347.954 334.77L347.954 334.77L288.89 334.77z" /></clipPath><clipPath id="52"><path d="M288.89 359.85L347.954 359.85L347.954 359.85L347.954 334.77L347.954 334.77L288.89 334.77z" /></clipPath><clipPath id="53"><path d="M348.44 359.85L510.7 359.85L510.7 359.85L510.7 334.77L510.7 334.77L348.44 334.77z" /></clipPath><clipPath id="54"><path d="M348.43 359.85L510.69 359.85L510.69 359.85L510.69 334.77L510.69 334.77L348.43 334.77z" /></clipPath><clipPath id="55"><path d="M348.43 359.85L510.69 359.85L510.69 359.85L510.69 334.77L510.69 334.77L348.43 334.77z" /></clipPath><clipPath id="56"><path d="M84.751 385.41L169.831 385.41L169.831 385.41L169.831 360.45L169.831 360.45L84.751 360.45z" /></clipPath><clipPath id="57"><path d="M84.744 385.41L169.824 385.41L169.824 385.41L169.824 360.45L169.824 360.45L84.744 360.45z" /></clipPath><clipPath id="58"><path d="M84.744 385.41L169.824 385.41L169.824 385.41L169.824 360.45L169.824 360.45L84.744 360.45z" /></clipPath><clipPath id="59"><path d="M170.31 385.41L231.645 385.41L231.645 385.41L231.645 360.45L231.645 360.45L170.31 360.45z" /></clipPath><clipPath id="60"><path d="M170.3 385.41L231.644 385.41L231.644 385.41L231.644 360.45L231.644 360.45L170.3 360.45z" /></clipPath><clipPath id="61"><path d="M170.3 385.41L231.644 385.41L231.644 385.41L231.644 360.45L231.644 360.45L170.3 360.45z" /></clipPath><clipPath id="62"><path d="M232.25 385.41L288.41 385.41L288.41 385.41L288.41 360.45L288.41 360.45L232.25 360.45z" /></clipPath><clipPath id="63"><path d="M232.25 385.41L288.41 385.41L288.41 385.41L288.41 360.45L288.41 360.45L232.25 360.45z" /></clipPath><clipPath id="64"><path d="M232.25 385.41L288.41 385.41L288.41 385.41L288.41 360.45L288.41 360.45L232.25 360.45z" /></clipPath><clipPath id="65"><path d="M288.89 385.41L347.96 385.41L347.96 385.41L347.96 360.45L347.96 360.45L288.89 360.45z" /></clipPath><clipPath id="66"><path d="M288.89 385.41L347.954 385.41L347.954 385.41L347.954 360.45L347.954 360.45L288.89 360.45z" /></clipPath><clipPath id="67"><path d="M288.89 385.41L347.954 385.41L347.954 385.41L347.954 360.45L347.954 360.45L288.89 360.45z" /></clipPath><clipPath id="68"><path d="M348.44 385.41L510.7 385.41L510.7 385.41L510.7 360.45L510.7 360.45L348.44 360.45z" /></clipPath><clipPath id="69"><path d="M348.43 385.41L510.69 385.41L510.69 385.41L510.69 360.45L510.69 360.45L348.43 360.45z" /></clipPath><clipPath id="70"><path d="M348.43 385.41L510.69 385.41L510.69 385.41L510.69 360.45L510.69 360.45L348.43 360.45z" /></clipPath><clipPath id="71"><path d="M84.751 410.97L169.831 410.97L169.831 410.97L169.831 386.01L169.831 386.01L84.751 386.01z" /></clipPath><clipPath id="72"><path d="M84.744 410.97L169.824 410.97L169.824 410.97L169.824 386.01L169.824 386.01L84.744 386.01z" /></clipPath><clipPath id="73"><path d="M84.744 410.97L169.824 410.97L169.824 410.97L169.824 386.01L169.824 386.01L84.744 386.01z" /></clipPath><clipPath id="74"><path d="M170.31 410.97L231.645 410.97L231.645 410.97L231.645 386.01L231.645 386.01L170.31 386.01z" /></clipPath><clipPath id="75"><path d="M170.3 410.97L231.644 410.97L231.644 410.97L231.644 386.01L231.644 386.01L170.3 386.01z" /></clipPath><clipPath id="76"><path d="M170.3 410.97L231.644 410.97L231.644 410.97L231.644 386.01L231.644 386.01L170.3 386.01z" /></clipPath><clipPath id="77"><path d="M232.25 410.97L288.41 410.97L288.41 410.97L288.41 386.01L288.41 386.01L232.25 386.01z" /></clipPath><clipPath id="78"><path d="M232.25 410.97L288.41 410.97L288.41 410.97L288.41 386.01L288.41 386.01L232.25 386.01z" /></clipPath><clipPath id="79"><path d="M232.25 410.97L288.41 410.97L288.41 410.97L288.41 386.01L288.41 386.01L232.25 386.01z" /></clipPath><clipPath id="80"><path d="M288.89 410.97L347.96 410.97L347.96 410.97L347.96 386.01L347.96 386.01L288.89 386.01z" /></clipPath><clipPath id="81"><path d="M288.89 410.97L347.954 410.97L347.954 410.97L347.954 386.01L347.954 386.01L288.89 386.01z" /></clipPath><clipPath id="82"><path d="M288.89 410.97L347.954 410.97L347.954 410.97L347.954 386.01L347.954 386.01L288.89 386.01z" /></clipPath><clipPath id="83"><path d="M288.89 410.97L347.954 410.97L347.954 410.97L347.954 386.01L347.954 386.01L288.89 386.01z" /></clipPath><clipPath id="84"><path d="M348.44 410.97L510.7 410.97L510.7 410.97L510.7 386.01L510.7 386.01L348.44 386.01z" /></clipPath><clipPath id="85"><path d="M348.43 410.97L510.69 410.97L510.69 410.97L510.69 386.01L510.69 386.01L348.43 386.01z" /></clipPath><clipPath id="86"><path d="M348.43 410.97L510.69 410.97L510.69 410.97L510.69 386.01L510.69 386.01L348.43 386.01z" /></clipPath><clipPath id="87"><path d="M348.43 410.97L510.69 410.97L510.69 410.97L510.69 386.01L510.69 386.01L348.43 386.01z" /></clipPath><clipPath id="88"><path d="M84.751 538.2L169.831 538.2L169.831 538.2L169.831 411.57L169.831 411.57L84.751 411.57z" /></clipPath><clipPath id="89"><path d="M84.744 538.19L169.824 538.19L169.824 538.19L169.824 411.57L169.824 411.57L84.744 411.57z" /></clipPath><clipPath id="90"><path d="M84.744 538.19L169.824 538.19L169.824 538.19L169.824 411.57L169.824 411.57L84.744 411.57z" /></clipPath><clipPath id="91"><path d="M170.31 538.2L231.645 538.2L231.645 538.2L231.645 411.57L231.645 411.57L170.31 411.57z" /></clipPath><clipPath id="92"><path d="M170.3 538.19L231.644 538.19L231.644 538.19L231.644 411.57L231.644 411.57L170.3 411.57z" /></clipPath><clipPath id="93"><path d="M170.3 538.19L231.644 538.19L231.644 538.19L231.644 411.57L231.644 411.57L170.3 411.57z" /></clipPath><clipPath id="94"><path d="M232.25 538.2L288.41 538.2L288.41 538.2L288.41 411.57L288.41 411.57L232.25 411.57z" /></clipPath><clipPath id="95"><path d="M232.25 538.19L288.41 538.19L288.41 538.19L288.41 411.57L288.41 411.57L232.25 411.57z" /></clipPath><clipPath id="96"><path d="M232.25 538.19L288.41 538.19L288.41 538.19L288.41 411.57L288.41 411.57L232.25 411.57z" /></clipPath><clipPath id="97"><path d="M288.89 538.2L347.96 538.2L347.96 538.2L347.96 411.57L347.96 411.57L288.89 411.57z" /></clipPath><clipPath id="98"><path d="M288.89 538.19L347.954 538.19L347.954 538.19L347.954 411.57L347.954 411.57L288.89 411.57z" /></clipPath><clipPath id="99"><path d="M288.89 538.19L347.954 538.19L347.954 538.19L347.954 411.57L347.954 411.57L288.89 411.57z" /></clipPath><clipPath id="100"><path d="M348.44 538.2L510.7 538.2L510.7 538.2L510.7 411.57L510.7 411.57L348.44 411.57z" /></clipPath><clipPath id="101"><path d="M348.43 538.19L510.69 538.19L510.69 538.19L510.69 411.57L510.69 411.57L348.43 411.57z" /></clipPath><clipPath id="102"><path d="M348.43 538.19L510.69 538.19L510.69 538.19L510.69 411.57L510.69 411.57L348.43 411.57z" /></clipPath><clipPath id="103"><path d="M348.43 538.19L510.69 538.19L510.69 538.19L510.69 411.57L510.69 411.57L348.43 411.57z" /></clipPath><clipPath id="104"><path d="M348.43 538.19L510.69 538.19L510.69 538.19L510.69 411.57L510.69 411.57L348.43 411.57z" /></clipPath><clipPath id="105"><path d="M348.43 538.19L510.69 538.19L510.69 538.19L510.69 411.57L510.69 411.57L348.43 411.57z" /></clipPath><clipPath id="106"><path d="M348.43 538.19L510.69 538.19L510.69 538.19L510.69 411.57L510.69 411.57L348.43 411.57z" /></clipPath><clipPath id="107"><path d="M348.43 538.19L510.69 538.19L510.69 538.19L510.69 411.57L510.69 411.57L348.43 411.57z" /></clipPath><clipPath id="108"><path d="M348.43 538.19L510.69 538.19L510.69 538.19L510.69 411.57L510.69 411.57L348.43 411.57z" /></clipPath><clipPath id="109"><path d="M348.43 538.19L510.69 538.19L510.69 538.19L510.69 411.57L510.69 411.57L348.43 411.57z" /></clipPath><clipPath id="110"><path d="M348.43 538.19L510.69 538.19L510.69 538.19L510.69 411.57L510.69 411.57L348.43 411.57z" /></clipPath><clipPath id="111"><path d="M348.43 538.19L510.69 538.19L510.69 538.19L510.69 411.57L510.69 411.57L348.43 411.57z" /></clipPath><clipPath id="112"><path d="M348.43 538.19L510.69 538.19L510.69 538.19L510.69 411.57L510.69 411.57L348.43 411.57z" /></clipPath><clipPath id="113"><path d="M348.43 538.19L510.69 538.19L510.69 538.19L510.69 411.57L510.69 411.57L348.43 411.57z" /></clipPath><clipPath id="114"><path d="M348.43 538.19L510.69 538.19L510.69 538.19L510.69 411.57L510.69 411.57L348.43 411.57z" /></clipPath><clipPath id="115"><path d="M348.43 538.19L510.69 538.19L510.69 538.19L510.69 411.57L510.69 411.57L348.43 411.57z" /></clipPath><clipPath id="116"><path d="M348.43 538.19L510.69 538.19L510.69 538.19L510.69 411.57L510.69 411.57L348.43 411.57z" /></clipPath><clipPath id="117"><path d="M348.43 538.19L510.69 538.19L510.69 538.19L510.69 411.57L510.69 411.57L348.43 411.57z" /></clipPath><clipPath id="118"><path d="M348.43 538.19L510.69 538.19L510.69 538.19L510.69 411.57L510.69 411.57L348.43 411.57z" /></clipPath><clipPath id="119"><path d="M84.751 563.76L169.831 563.76L169.831 563.76L169.831 538.6801L169.831 538.6801L84.751 538.6801z" /></clipPath><clipPath id="120"><path d="M84.744 563.75L169.824 563.75L169.824 563.75L169.824 538.67L169.824 538.67L84.744 538.67z" /></clipPath><clipPath id="121"><path d="M84.744 563.75L169.824 563.75L169.824 563.75L169.824 538.67L169.824 538.67L84.744 538.67z" /></clipPath><clipPath id="122"><path d="M170.31 563.76L231.645 563.76L231.645 563.76L231.645 538.6801L231.645 538.6801L170.31 538.6801z" /></clipPath><clipPath id="123"><path d="M170.3 563.75L231.644 563.75L231.644 563.75L231.644 538.67L231.644 538.67L170.3 538.67z" /></clipPath><clipPath id="124"><path d="M170.3 563.75L231.644 563.75L231.644 563.75L231.644 538.67L231.644 538.67L170.3 538.67z" /></clipPath><clipPath id="125"><path d="M232.25 563.76L288.41 563.76L288.41 563.76L288.41 538.6801L288.41 538.6801L232.25 538.6801z" /></clipPath><clipPath id="126"><path d="M232.25 563.75L288.41 563.75L288.41 563.75L288.41 538.67L288.41 538.67L232.25 538.67z" /></clipPath><clipPath id="127"><path d="M232.25 563.75L288.41 563.75L288.41 563.75L288.41 538.67L288.41 538.67L232.25 538.67z" /></clipPath><clipPath id="128"><path d="M288.89 563.76L347.96 563.76L347.96 563.76L347.96 538.6801L347.96 538.6801L288.89 538.6801z" /></clipPath><clipPath id="129"><path d="M288.89 563.75L347.954 563.75L347.954 563.75L347.954 538.67L347.954 538.67L288.89 538.67z" /></clipPath><clipPath id="130"><path d="M288.89 563.75L347.954 563.75L347.954 563.75L347.954 538.67L347.954 538.67L288.89 538.67z" /></clipPath><clipPath id="131"><path d="M348.44 563.76L510.7 563.76L510.7 563.76L510.7 538.6801L510.7 538.6801L348.44 538.6801z" /></clipPath><clipPath id="132"><path d="M348.43 563.75L510.69 563.75L510.69 563.75L510.69 538.67L510.69 538.67L348.43 538.67z" /></clipPath><clipPath id="133"><path d="M348.43 563.75L510.69 563.75L510.69 563.75L510.69 538.67L510.69 538.67L348.43 538.67z" /></clipPath><clipPath id="134"><path d="M348.43 563.75L510.69 563.75L510.69 563.75L510.69 538.67L510.69 538.67L348.43 538.67z" /></clipPath><clipPath id="135"><path d="M84.751 673.21L169.831 673.21L169.831 673.21L169.831 564.23L169.831 564.23L84.751 564.23z" /></clipPath><clipPath id="136"><path d="M84.744 673.22L169.824 673.22L169.824 673.22L169.824 564.24L169.824 564.24L84.744 564.24z" /></clipPath><clipPath id="137"><path d="M84.744 673.22L169.824 673.22L169.824 673.22L169.824 564.24L169.824 564.24L84.744 564.24z" /></clipPath><clipPath id="138"><path d="M84.744 673.22L169.824 673.22L169.824 673.22L169.824 564.24L169.824 564.24L84.744 564.24z" /></clipPath><clipPath id="139"><path d="M170.31 673.21L231.645 673.21L231.645 673.21L231.645 564.23L231.645 564.23L170.31 564.23z" /></clipPath><clipPath id="140"><path d="M170.3 673.22L231.644 673.22L231.644 673.22L231.644 564.24L231.644 564.24L170.3 564.24z" /></clipPath><clipPath id="141"><path d="M170.3 673.22L231.644 673.22L231.644 673.22L231.644 564.24L231.644 564.24L170.3 564.24z" /></clipPath><clipPath id="142"><path d="M232.25 673.21L288.41 673.21L288.41 673.21L288.41 564.23L288.41 564.23L232.25 564.23z" /></clipPath><clipPath id="143"><path d="M232.25 673.22L288.41 673.22L288.41 673.22L288.41 564.24L288.41 564.24L232.25 564.24z" /></clipPath><clipPath id="144"><path d="M232.25 673.22L288.41 673.22L288.41 673.22L288.41 564.24L288.41 564.24L232.25 564.24z" /></clipPath><clipPath id="145"><path d="M288.89 673.21L347.96 673.21L347.96 673.21L347.96 564.23L347.96 564.23L288.89 564.23z" /></clipPath><clipPath id="146"><path d="M288.89 673.22L347.954 673.22L347.954 673.22L347.954 564.24L347.954 564.24L288.89 564.24z" /></clipPath><clipPath id="147"><path d="M288.89 673.22L347.954 673.22L347.954 673.22L347.954 564.24L347.954 564.24L288.89 564.24z" /></clipPath><clipPath id="148"><path d="M348.44 673.21L510.7 673.21L510.7 673.21L510.7 564.23L510.7 564.23L348.44 564.23z" /></clipPath><clipPath id="149"><path d="M348.43 673.22L510.69 673.22L510.69 673.22L510.69 564.24L510.69 564.24L348.43 564.24z" /></clipPath><clipPath id="150"><path d="M348.43 673.22L510.69 673.22L510.69 673.22L510.69 564.24L510.69 564.24L348.43 564.24z" /></clipPath><clipPath id="151"><path d="M348.43 673.22L510.69 673.22L510.69 673.22L510.69 564.24L510.69 564.24L348.43 564.24z" /></clipPath><clipPath id="152"><path d="M348.43 673.22L510.69 673.22L510.69 673.22L510.69 564.24L510.69 564.24L348.43 564.24z" /></clipPath><clipPath id="153"><path d="M348.43 673.22L510.69 673.22L510.69 673.22L510.69 564.24L510.69 564.24L348.43 564.24z" /></clipPath><clipPath id="154"><path d="M348.43 673.22L510.69 673.22L510.69 673.22L510.69 564.24L510.69 564.24L348.43 564.24z" /></clipPath><clipPath id="155"><path d="M348.43 673.22L510.69 673.22L510.69 673.22L510.69 564.24L510.69 564.24L348.43 564.24z" /></clipPath><clipPath id="156"><path d="M348.43 673.22L510.69 673.22L510.69 673.22L510.69 564.24L510.69 564.24L348.43 564.24z" /></clipPath><clipPath id="157"><path d="M348.43 673.22L510.69 673.22L510.69 673.22L510.69 564.24L510.69 564.24L348.43 564.24z" /></clipPath><clipPath id="158"><path d="M348.43 673.22L510.69 673.22L510.69 673.22L510.69 564.24L510.69 564.24L348.43 564.24z" /></clipPath><clipPath id="159"><path d="M348.43 673.22L510.69 673.22L510.69 673.22L510.69 564.24L510.69 564.24L348.43 564.24z" /></clipPath><clipPath id="160"><path d="M348.43 673.22L510.69 673.22L510.69 673.22L510.69 564.24L510.69 564.24L348.43 564.24z" /></clipPath><clipPath id="161"><path d="M348.43 673.22L510.69 673.22L510.69 673.22L510.69 564.24L510.69 564.24L348.43 564.24z" /></clipPath><clipPath id="162"><path d="M348.43 673.22L510.69 673.22L510.69 673.22L510.69 564.24L510.69 564.24L348.43 564.24z" /></clipPath><clipPath id="163"><path d="M348.43 673.22L510.69 673.22L510.69 673.22L510.69 564.24L510.69 564.24L348.43 564.24z" /></clipPath><clipPath id="164"><path d="M348.43 673.22L510.69 673.22L510.69 673.22L510.69 564.24L510.69 564.24L348.43 564.24z" /></clipPath><clipPath id="165"><path d="M348.43 673.22L510.69 673.22L510.69 673.22L510.69 564.24L510.69 564.24L348.43 564.24z" /></clipPath><clipPath id="166"><path d="M348.43 673.22L510.69 673.22L510.69 673.22L510.69 564.24L510.69 564.24L348.43 564.24z" /></clipPath><clipPath id="167"><path d="M348.43 673.22L510.69 673.22L510.69 673.22L510.69 564.24L510.69 564.24L348.43 564.24z" /></clipPath><clipPath id="168"><path d="M348.43 673.22L510.69 673.22L510.69 673.22L510.69 564.24L510.69 564.24L348.43 564.24z" /></clipPath><clipPath id="169"><path d="M348.43 673.22L510.69 673.22L510.69 673.22L510.69 564.24L510.69 564.24L348.43 564.24z" /></clipPath><clipPath id="170"><path d="M84.751 712.33L510.691 712.33L510.691 712.33L510.691 693.25L510.691 693.25L84.751 693.25z" /></clipPath><clipPath id="171"><path d="M84.744 712.34L510.694 712.34L510.694 712.34L510.694 693.26L510.694 693.26L84.744 693.26z" /></clipPath><clipPath id="172"><path d="M84.744 712.34L510.694 712.34L510.694 712.34L510.694 693.26L510.694 693.26L84.744 693.26z" /></clipPath></defs><g transform="matrix(1.333333 0 0 1.333333 0 0)"><g><g clip-path="url(#1)"><path transform="matrix(1 0 0 -1 0 841)" d="M457.51 53.304L505.534 53.304L505.534 53.304L505.534 53.90404L505.534 53.90404L457.51 53.90404z" stroke="none" fill="#000000" fill-rule="evenodd" /><g clip-path="url(#2)"><path transform="matrix(1 0 0 -1 0 841)" d="M88.464 77.904L506.974 77.904L506.974 77.904L506.974 80.904L506.974 80.904L88.464 80.904z" stroke="none" fill="#000000" fill-rule="evenodd" /><path transform="matrix(1 0 0 -1 0 841)" d="M88.464 76.464L506.974 76.464L506.974 76.464L506.974 77.18397L506.974 77.18397L88.464 77.18397z" stroke="none" fill="#000000" fill-rule="evenodd" /></g><g clip-path="url(#3)"><g clip-path="url(#4)"></g><g clip-path="url(#5)"></g></g><path transform="matrix(1 0 0 -1 0 841)" d="M84.744 727.42L510.694 727.42L510.694 727.42L510.694 751.564L510.694 751.564L84.744 751.564z" stroke="none" fill="#0070C0" fill-rule="evenodd" /><g clip-path="url(#6)"><path transform="matrix(1 0 0 -1 0 841)" d="M89.904 727.42L505.534 727.42L505.534 727.42L505.534 751.564L505.534 751.564L89.904 751.564z" stroke="none" fill="#0070C0" fill-rule="evenodd" /><g clip-path="url(#7)"></g><g clip-path="url(#8)"></g></g><path transform="matrix(1 0 0 -1 0 841)" d="M84.264 751.56L84.744 751.56L84.744 751.56L84.744 752.04L84.744 752.04L84.264 752.04z" stroke="none" fill="#000000" fill-rule="evenodd" /><path transform="matrix(1 0 0 -1 0 841)" d="M84.264 751.56L84.744 751.56L84.744 751.56L84.744 752.04L84.744 752.04L84.264 752.04z" stroke="none" fill="#000000" fill-rule="evenodd" /><path transform="matrix(1 0 0 -1 0 841)" d="M84.744 751.56L510.694 751.56L510.694 751.56L510.694 752.04L510.694 752.04L84.744 752.04z" stroke="none" fill="#000000" fill-rule="evenodd" /><path transform="matrix(1 0 0 -1 0 841)" d="M510.7 751.56L511.18 751.56L511.18 751.56L511.18 752.04L511.18 752.04L510.7 752.04z" stroke="none" fill="#000000" fill-rule="evenodd" /><path transform="matrix(1 0 0 -1 0 841)" d="M510.7 751.56L511.18 751.56L511.18 751.56L511.18 752.04L511.18 752.04L510.7 752.04z" stroke="none" fill="#000000" fill-rule="evenodd" /><path transform="matrix(1 0 0 -1 0 841)" d="M84.264 727.42L84.744 727.42L84.744 727.42L84.744 751.564L84.744 751.564L84.264 751.564z" stroke="none" fill="#000000" fill-rule="evenodd" /><path transform="matrix(1 0 0 -1 0 841)" d="M510.7 727.42L511.18 727.42L511.18 727.42L511.18 751.564L511.18 751.564L510.7 751.564z" stroke="none" fill="#000000" fill-rule="evenodd" /><path transform="matrix(1 0 0 -1 0 841)" d="M84.744 564.34L510.694 564.34L510.694 564.34L510.694 726.9401L510.694 726.9401L84.744 726.9401z" stroke="none" fill="#DAEEF3" fill-rule="evenodd" /><g clip-path="url(#9)"><path transform="matrix(1 0 0 -1 0 841)" d="M89.904 707.5L505.534 707.5L505.534 707.5L505.534 726.94L505.534 726.94L89.904 726.94z" stroke="none" fill="#DAEEF3" fill-rule="evenodd" /><g clip-path="url(#10)"></g><g clip-path="url(#11)"></g><g clip-path="url(#12)"></g><g clip-path="url(#13)"></g><g clip-path="url(#14)"></g><path transform="matrix(1 0 0 -1 0 841)" d="M89.904 688.06L505.534 688.06L505.534 688.06L505.534 707.5L505.534 707.5L89.904 707.5z" stroke="none" fill="#DAEEF3" fill-rule="evenodd" /><g clip-path="url(#15)"></g><g clip-path="url(#16)"></g><g clip-path="url(#17)"></g><g clip-path="url(#18)"></g><g clip-path="url(#19)"></g><path transform="matrix(1 0 0 -1 0 841)" d="M89.904 668.74L505.534 668.74L505.534 668.74L505.534 688.06L505.534 688.06L89.904 688.06z" stroke="none" fill="#DAEEF3" fill-rule="evenodd" /><g clip-path="url(#20)"></g><g clip-path="url(#21)"></g><g clip-path="url(#22)"></g><g clip-path="url(#23)"></g><g clip-path="url(#24)"></g><path transform="matrix(1 0 0 -1 0 841)" d="M89.904 649.3L505.534 649.3L505.534 649.3L505.534 668.74L505.534 668.74L89.904 668.74z" stroke="none" fill="#DAEEF3" fill-rule="evenodd" /><g clip-path="url(#25)"></g><g clip-path="url(#26)"></g><g clip-path="url(#27)"></g><g clip-path="url(#28)"></g><g clip-path="url(#29)"></g><path transform="matrix(1 0 0 -1 0 841)" d="M89.904 629.86L505.534 629.86L505.534 629.86L505.534 649.3L505.534 649.3L89.904 649.3z" stroke="none" fill="#DAEEF3" fill-rule="evenodd" /><g clip-path="url(#30)"></g><g clip-path="url(#31)"></g><g clip-path="url(#32)"></g><g clip-path="url(#33)"></g><g clip-path="url(#34)"></g><path transform="matrix(1 0 0 -1 0 841)" d="M89.904 610.54L505.534 610.54L505.534 610.54L505.534 629.86L505.534 629.86L89.904 629.86z" stroke="none" fill="#DAEEF3" fill-rule="evenodd" /><g clip-path="url(#35)"></g><g clip-path="url(#36)"></g><path transform="matrix(1 0 0 -1 0 841)" d="M89.904 591.1L505.534 591.1L505.534 591.1L505.534 610.54L505.534 610.54L89.904 610.54z" stroke="none" fill="#DAEEF3" fill-rule="evenodd" /><g clip-path="url(#37)"></g><g clip-path="url(#38)"></g><path transform="matrix(1 0 0 -1 0 841)" d="M89.904 571.66L505.534 571.66L505.534 571.66L505.534 591.1L505.534 591.1L89.904 591.1z" stroke="none" fill="#DAEEF3" fill-rule="evenodd" /><g clip-path="url(#39)"></g><g clip-path="url(#40)"></g></g><path transform="matrix(1 0 0 -1 0 841)" d="M84.264 726.94L84.744 726.94L84.744 726.94L84.744 727.42L84.744 727.42L84.264 727.42z" stroke="none" fill="#000000" fill-rule="evenodd" /><path transform="matrix(1 0 0 -1 0 841)" d="M84.744 726.94L510.694 726.94L510.694 726.94L510.694 727.42L510.694 727.42L84.744 727.42z" stroke="none" fill="#000000" fill-rule="evenodd" /><path transform="matrix(1 0 0 -1 0 841)" d="M510.7 726.94L511.18 726.94L511.18 726.94L511.18 727.42L511.18 727.42L510.7 727.42z" stroke="none" fill="#000000" fill-rule="evenodd" /><path transform="matrix(1 0 0 -1 0 841)" d="M84.264 564.34L84.744 564.34L84.744 564.34L84.744 726.9401L84.744 726.9401L84.264 726.9401z" stroke="none" fill="#000000" fill-rule="evenodd" /><path transform="matrix(1 0 0 -1 0 841)" d="M84.264 563.86L84.744 563.86L84.744 563.86L84.744 564.34L84.744 564.34L84.264 564.34z" stroke="none" fill="#000000" fill-rule="evenodd" /><path transform="matrix(1 0 0 -1 0 841)" d="M84.264 563.86L84.744 563.86L84.744 563.86L84.744 564.34L84.744 564.34L84.264 564.34z" stroke="none" fill="#000000" fill-rule="evenodd" /><path transform="matrix(1 0 0 -1 0 841)" d="M84.744 563.86L510.694 563.86L510.694 563.86L510.694 564.34L510.694 564.34L84.744 564.34z" stroke="none" fill="#000000" fill-rule="evenodd" /><path transform="matrix(1 0 0 -1 0 841)" d="M510.7 564.34L511.18 564.34L511.18 564.34L511.18 726.9401L511.18 726.9401L510.7 726.9401z" stroke="none" fill="#000000" fill-rule="evenodd" /><path transform="matrix(1 0 0 -1 0 841)" d="M510.7 563.86L511.18 563.86L511.18 563.86L511.18 564.34L511.18 564.34L510.7 564.34z" stroke="none" fill="#000000" fill-rule="evenodd" /><path transform="matrix(1 0 0 -1 0 841)" d="M510.7 563.86L511.18 563.86L511.18 563.86L511.18 564.34L511.18 564.34L510.7 564.34z" stroke="none" fill="#000000" fill-rule="evenodd" /><path transform="matrix(1 0 0 -1 0 841)" d="M84.744 481.15L169.824 481.15L169.824 481.15L169.824 506.23L169.824 506.23L84.744 506.23z" stroke="none" fill="#0070C0" fill-rule="evenodd" /><g clip-path="url(#41)"><path transform="matrix(1 0 0 -1 0 841)" d="M89.904 481.15L164.664 481.15L164.664 481.15L164.664 506.23L164.664 506.23L89.904 506.23z" stroke="none" fill="#0070C0" fill-rule="evenodd" /><g clip-path="url(#42)"></g><g clip-path="url(#43)"></g></g><path transform="matrix(1 0 0 -1 0 841)" d="M170.3 481.15L231.644 481.15L231.644 481.15L231.644 506.23L231.644 506.23L170.3 506.23z" stroke="none" fill="#0070C0" fill-rule="evenodd" /><g clip-path="url(#44)"><path transform="matrix(1 0 0 -1 0 841)" d="M175.46 481.15L226.604 481.15L226.604 481.15L226.604 506.23L226.604 506.23L175.46 506.23z" stroke="none" fill="#0070C0" fill-rule="evenodd" /><g clip-path="url(#45)"></g><g clip-path="url(#46)"></g></g><path transform="matrix(1 0 0 -1 0 841)" d="M232.25 481.15L288.41 481.15L288.41 481.15L288.41 506.23L288.41 506.23L232.25 506.23z" stroke="none" fill="#0070C0" fill-rule="evenodd" /><g clip-path="url(#47)"><path transform="matrix(1 0 0 -1 0 841)" d="M237.41 481.15L283.25 481.15L283.25 481.15L283.25 506.23L283.25 506.23L237.41 506.23z" stroke="none" fill="#0070C0" fill-rule="evenodd" /><g clip-path="url(#48)"></g><g clip-path="url(#49)"></g></g><path transform="matrix(1 0 0 -1 0 841)" d="M288.89 481.15L347.954 481.15L347.954 481.15L347.954 506.23L347.954 506.23L288.89 506.23z" stroke="none" fill="#0070C0" fill-rule="evenodd" /><g clip-path="url(#50)"><path transform="matrix(1 0 0 -1 0 841)" d="M294.05 481.15L342.794 481.15L342.794 481.15L342.794 506.23L342.794 506.23L294.05 506.23z" stroke="none" fill="#0070C0" fill-rule="evenodd" /><g clip-path="url(#51)"></g><g clip-path="url(#52)"></g></g><path transform="matrix(1 0 0 -1 0 841)" d="M348.43 481.15L510.69 481.15L510.69 481.15L510.69 506.23L510.69 506.23L348.43 506.23z" stroke="none" fill="#0070C0" fill-rule="evenodd" /><g clip-path="url(#53)"><path transform="matrix(1 0 0 -1 0 841)" d="M353.59 481.15L505.53 481.15L505.53 481.15L505.53 506.23L505.53 506.23L353.59 506.23z" stroke="none" fill="#0070C0" fill-rule="evenodd" /><g clip-path="url(#54)"></g><g clip-path="url(#55)"></g></g><path transform="matrix(1 0 0 -1 0 841)" d="M84.264 506.23L84.744 506.23L84.744 506.23L84.744 506.71L84.744 506.71L84.264 506.71z" stroke="none" fill="#000000" fill-rule="evenodd" /><path transform="matrix(1 0 0 -1 0 841)" d="M84.264 506.23L84.744 506.23L84.744 506.23L84.744 506.71L84.744 506.71L84.264 506.71z" stroke="none" fill="#000000" fill-rule="evenodd" /><path transform="matrix(1 0 0 -1 0 841)" d="M84.744 506.23L169.824 506.23L169.824 506.23L169.824 506.71L169.824 506.71L84.744 506.71z" stroke="none" fill="#000000" fill-rule="evenodd" /><path transform="matrix(1 0 0 -1 0 841)" d="M169.82 506.23L170.3 506.23L170.3 506.23L170.3 506.71L170.3 506.71L169.82 506.71z" stroke="none" fill="#000000" fill-rule="evenodd" /><path transform="matrix(1 0 0 -1 0 841)" d="M170.3 506.23L231.764 506.23L231.764 506.23L231.764 506.71L231.764 506.71L170.3 506.71z" stroke="none" fill="#000000" fill-rule="evenodd" /><path transform="matrix(1 0 0 -1 0 841)" d="M231.77 506.23L232.25 506.23L232.25 506.23L232.25 506.71L232.25 506.71L231.77 506.71z" stroke="none" fill="#000000" fill-rule="evenodd" /><path transform="matrix(1 0 0 -1 0 841)" d="M232.25 506.23L288.41 506.23L288.41 506.23L288.41 506.71L288.41 506.71L232.25 506.71z" stroke="none" fill="#000000" fill-rule="evenodd" /><path transform="matrix(1 0 0 -1 0 841)" d="M288.41 506.23L288.89 506.23L288.89 506.23L288.89 506.71L288.89 506.71L288.41 506.71z" stroke="none" fill="#000000" fill-rule="evenodd" /><path transform="matrix(1 0 0 -1 0 841)" d="M288.89 506.23L348.074 506.23L348.074 506.23L348.074 506.71L348.074 506.71L288.89 506.71z" stroke="none" fill="#000000" fill-rule="evenodd" /><path transform="matrix(1 0 0 -1 0 841)" d="M348.07 506.23L348.55 506.23L348.55 506.23L348.55 506.71L348.55 506.71L348.07 506.71z" stroke="none" fill="#000000" fill-rule="evenodd" /><path transform="matrix(1 0 0 -1 0 841)" d="M348.55 506.23L510.69 506.23L510.69 506.23L510.69 506.71L510.69 506.71L348.55 506.71z" stroke="none" fill="#000000" fill-rule="evenodd" /><path transform="matrix(1 0 0 -1 0 841)" d="M510.7 506.23L511.18 506.23L511.18 506.23L511.18 506.71L511.18 506.71L510.7 506.71z" stroke="none" fill="#000000" fill-rule="evenodd" /><path transform="matrix(1 0 0 -1 0 841)" d="M510.7 506.23L511.18 506.23L511.18 506.23L511.18 506.71L511.18 506.71L510.7 506.71z" stroke="none" fill="#000000" fill-rule="evenodd" /><path transform="matrix(1 0 0 -1 0 841)" d="M84.264 481.15L84.744 481.15L84.744 481.15L84.744 506.23L84.744 506.23L84.264 506.23z" stroke="none" fill="#000000" fill-rule="evenodd" /><path transform="matrix(1 0 0 -1 0 841)" d="M169.82 481.15L170.3 481.15L170.3 481.15L170.3 506.23L170.3 506.23L169.82 506.23z" stroke="none" fill="#000000" fill-rule="evenodd" /><path transform="matrix(1 0 0 -1 0 841)" d="M231.77 481.15L232.25 481.15L232.25 481.15L232.25 506.23L232.25 506.23L231.77 506.23z" stroke="none" fill="#000000" fill-rule="evenodd" /><path transform="matrix(1 0 0 -1 0 841)" d="M288.41 481.15L288.89 481.15L288.89 481.15L288.89 506.23L288.89 506.23L288.41 506.23z" stroke="none" fill="#000000" fill-rule="evenodd" /><path transform="matrix(1 0 0 -1 0 841)" d="M348.07 481.15L348.55 481.15L348.55 481.15L348.55 506.23L348.55 506.23L348.07 506.23z" stroke="none" fill="#000000" fill-rule="evenodd" /><path transform="matrix(1 0 0 -1 0 841)" d="M510.7 481.15L511.18 481.15L511.18 481.15L511.18 506.23L511.18 506.23L510.7 506.23z" stroke="none" fill="#000000" fill-rule="evenodd" /><path transform="matrix(1 0 0 -1 0 841)" d="M84.744 455.59L169.824 455.59L169.824 455.59L169.824 480.55L169.824 480.55L84.744 480.55z" stroke="none" fill="#DAEEF3" fill-rule="evenodd" /><g clip-path="url(#56)"><path transform="matrix(1 0 0 -1 0 841)" d="M89.904 456.43L164.664 456.43L164.664 456.43L164.664 480.55L164.664 480.55L89.904 480.55z" stroke="none" fill="#DAEEF3" fill-rule="evenodd" /><g clip-path="url(#57)"></g><g clip-path="url(#58)"></g></g><path transform="matrix(1 0 0 -1 0 841)" d="M170.3 455.59L231.644 455.59L231.644 455.59L231.644 480.55L231.644 480.55L170.3 480.55z" stroke="none" fill="#DAEEF3" fill-rule="evenodd" /><g clip-path="url(#59)"><path transform="matrix(1 0 0 -1 0 841)" d="M175.46 456.43L226.604 456.43L226.604 456.43L226.604 480.55L226.604 480.55L175.46 480.55z" stroke="none" fill="#DAEEF3" fill-rule="evenodd" /><g clip-path="url(#60)"></g><g clip-path="url(#61)"></g></g><path transform="matrix(1 0 0 -1 0 841)" d="M232.25 455.59L288.41 455.59L288.41 455.59L288.41 480.55L288.41 480.55L232.25 480.55z" stroke="none" fill="#DAEEF3" fill-rule="evenodd" /><g clip-path="url(#62)"><path transform="matrix(1 0 0 -1 0 841)" d="M237.41 455.59L283.25 455.59L283.25 455.59L283.25 480.55L283.25 480.55L237.41 480.55z" stroke="none" fill="#DAEEF3" fill-rule="evenodd" /><g clip-path="url(#63)"></g><g clip-path="url(#64)"></g></g><path transform="matrix(1 0 0 -1 0 841)" d="M288.89 455.59L347.954 455.59L347.954 455.59L347.954 480.55L347.954 480.55L288.89 480.55z" stroke="none" fill="#DAEEF3" fill-rule="evenodd" /><g clip-path="url(#65)"><path transform="matrix(1 0 0 -1 0 841)" d="M294.05 456.43L342.794 456.43L342.794 456.43L342.794 480.55L342.794 480.55L294.05 480.55z" stroke="none" fill="#DAEEF3" fill-rule="evenodd" /><g clip-path="url(#66)"></g><g clip-path="url(#67)"></g></g><path transform="matrix(1 0 0 -1 0 841)" d="M348.43 455.59L510.69 455.59L510.69 455.59L510.69 480.55L510.69 480.55L348.43 480.55z" stroke="none" fill="#DAEEF3" fill-rule="evenodd" /><g clip-path="url(#68)"><path transform="matrix(1 0 0 -1 0 841)" d="M353.59 455.59L505.53 455.59L505.53 455.59L505.53 480.55L505.53 480.55L353.59 480.55z" stroke="none" fill="#DAEEF3" fill-rule="evenodd" /><g clip-path="url(#69)"></g><g clip-path="url(#70)"></g></g><path transform="matrix(1 0 0 -1 0 841)" d="M84.264 480.67L84.744 480.67L84.744 480.67L84.744 481.15L84.744 481.15L84.264 481.15z" stroke="none" fill="#000000" fill-rule="evenodd" /><path transform="matrix(1 0 0 -1 0 841)" d="M84.744 480.67L169.824 480.67L169.824 480.67L169.824 481.15L169.824 481.15L84.744 481.15z" stroke="none" fill="#000000" fill-rule="evenodd" /><path transform="matrix(1 0 0 -1 0 841)" d="M169.82 480.67L170.3 480.67L170.3 480.67L170.3 481.15L170.3 481.15L169.82 481.15z" stroke="none" fill="#000000" fill-rule="evenodd" /><path transform="matrix(1 0 0 -1 0 841)" d="M170.3 480.67L231.764 480.67L231.764 480.67L231.764 481.15L231.764 481.15L170.3 481.15z" stroke="none" fill="#000000" fill-rule="evenodd" /><path transform="matrix(1 0 0 -1 0 841)" d="M231.77 480.67L232.25 480.67L232.25 480.67L232.25 481.15L232.25 481.15L231.77 481.15z" stroke="none" fill="#000000" fill-rule="evenodd" /><path transform="matrix(1 0 0 -1 0 841)" d="M232.25 480.67L288.41 480.67L288.41 480.67L288.41 481.15L288.41 481.15L232.25 481.15z" stroke="none" fill="#000000" fill-rule="evenodd" /><path transform="matrix(1 0 0 -1 0 841)" d="M288.41 480.67L288.89 480.67L288.89 480.67L288.89 481.15L288.89 481.15L288.41 481.15z" stroke="none" fill="#000000" fill-rule="evenodd" /><path transform="matrix(1 0 0 -1 0 841)" d="M288.89 480.67L348.074 480.67L348.074 480.67L348.074 481.15L348.074 481.15L288.89 481.15z" stroke="none" fill="#000000" fill-rule="evenodd" /><path transform="matrix(1 0 0 -1 0 841)" d="M348.07 480.67L348.55 480.67L348.55 480.67L348.55 481.15L348.55 481.15L348.07 481.15z" stroke="none" fill="#000000" fill-rule="evenodd" /><path transform="matrix(1 0 0 -1 0 841)" d="M348.55 480.67L510.69 480.67L510.69 480.67L510.69 481.15L510.69 481.15L348.55 481.15z" stroke="none" fill="#000000" fill-rule="evenodd" /><path transform="matrix(1 0 0 -1 0 841)" d="M510.7 480.67L511.18 480.67L511.18 480.67L511.18 481.15L511.18 481.15L510.7 481.15z" stroke="none" fill="#000000" fill-rule="evenodd" /><path transform="matrix(1 0 0 -1 0 841)" d="M84.264 455.59L84.744 455.59L84.744 455.59L84.744 480.67L84.744 480.67L84.264 480.67z" stroke="none" fill="#000000" fill-rule="evenodd" /><path transform="matrix(1 0 0 -1 0 841)" d="M169.82 455.59L170.3 455.59L170.3 455.59L170.3 480.67L170.3 480.67L169.82 480.67z" stroke="none" fill="#000000" fill-rule="evenodd" /><path transform="matrix(1 0 0 -1 0 841)" d="M231.77 455.59L232.25 455.59L232.25 455.59L232.25 480.67L232.25 480.67L231.77 480.67z" stroke="none" fill="#000000" fill-rule="evenodd" /><path transform="matrix(1 0 0 -1 0 841)" d="M288.41 455.59L288.89 455.59L288.89 455.59L288.89 480.67L288.89 480.67L288.41 480.67z" stroke="none" fill="#000000" fill-rule="evenodd" /><path transform="matrix(1 0 0 -1 0 841)" d="M348.07 455.59L348.55 455.59L348.55 455.59L348.55 480.67L348.55 480.67L348.07 480.67z" stroke="none" fill="#000000" fill-rule="evenodd" /><path transform="matrix(1 0 0 -1 0 841)" d="M510.7 455.59L511.18 455.59L511.18 455.59L511.18 480.67L511.18 480.67L510.7 480.67z" stroke="none" fill="#000000" fill-rule="evenodd" /><g clip-path="url(#71)"><g clip-path="url(#72)"></g><g clip-path="url(#73)"></g></g><g clip-path="url(#74)"><g clip-path="url(#75)"></g><g clip-path="url(#76)"></g></g><g clip-path="url(#77)"><g clip-path="url(#78)"></g><g clip-path="url(#79)"></g></g><g clip-path="url(#80)"><g clip-path="url(#81)"></g><g clip-path="url(#82)"></g><g clip-path="url(#83)"></g></g><g clip-path="url(#84)"><g clip-path="url(#85)"></g><g clip-path="url(#86)"></g><g clip-path="url(#87)"></g></g><path transform="matrix(1 0 0 -1 0 841)" d="M84.264 455.11L84.744 455.11L84.744 455.11L84.744 455.59L84.744 455.59L84.264 455.59z" stroke="none" fill="#000000" fill-rule="evenodd" /><path transform="matrix(1 0 0 -1 0 841)" d="M84.744 455.11L169.824 455.11L169.824 455.11L169.824 455.59L169.824 455.59L84.744 455.59z" stroke="none" fill="#000000" fill-rule="evenodd" /><path transform="matrix(1 0 0 -1 0 841)" d="M169.82 455.11L170.3 455.11L170.3 455.11L170.3 455.59L170.3 455.59L169.82 455.59z" stroke="none" fill="#000000" fill-rule="evenodd" /><path transform="matrix(1 0 0 -1 0 841)" d="M170.3 455.11L231.764 455.11L231.764 455.11L231.764 455.59L231.764 455.59L170.3 455.59z" stroke="none" fill="#000000" fill-rule="evenodd" /><path transform="matrix(1 0 0 -1 0 841)" d="M231.77 455.11L232.25 455.11L232.25 455.11L232.25 455.59L232.25 455.59L231.77 455.59z" stroke="none" fill="#000000" fill-rule="evenodd" /><path transform="matrix(1 0 0 -1 0 841)" d="M232.25 455.11L288.41 455.11L288.41 455.11L288.41 455.59L288.41 455.59L232.25 455.59z" stroke="none" fill="#000000" fill-rule="evenodd" /><path transform="matrix(1 0 0 -1 0 841)" d="M288.41 455.11L288.89 455.11L288.89 455.11L288.89 455.59L288.89 455.59L288.41 455.59z" stroke="none" fill="#000000" fill-rule="evenodd" /><path transform="matrix(1 0 0 -1 0 841)" d="M288.89 455.11L348.074 455.11L348.074 455.11L348.074 455.59L348.074 455.59L288.89 455.59z" stroke="none" fill="#000000" fill-rule="evenodd" /><path transform="matrix(1 0 0 -1 0 841)" d="M348.07 455.11L348.55 455.11L348.55 455.11L348.55 455.59L348.55 455.59L348.07 455.59z" stroke="none" fill="#000000" fill-rule="evenodd" /><path transform="matrix(1 0 0 -1 0 841)" d="M348.55 455.11L510.69 455.11L510.69 455.11L510.69 455.59L510.69 455.59L348.55 455.59z" stroke="none" fill="#000000" fill-rule="evenodd" /><path transform="matrix(1 0 0 -1 0 841)" d="M510.7 455.11L511.18 455.11L511.18 455.11L511.18 455.59L511.18 455.59L510.7 455.59z" stroke="none" fill="#000000" fill-rule="evenodd" /><path transform="matrix(1 0 0 -1 0 841)" d="M84.264 430.03L84.744 430.03L84.744 430.03L84.744 455.11L84.744 455.11L84.264 455.11z" stroke="none" fill="#000000" fill-rule="evenodd" /><path transform="matrix(1 0 0 -1 0 841)" d="M169.82 430.03L170.3 430.03L170.3 430.03L170.3 455.11L170.3 455.11L169.82 455.11z" stroke="none" fill="#000000" fill-rule="evenodd" /><path transform="matrix(1 0 0 -1 0 841)" d="M231.77 430.03L232.25 430.03L232.25 430.03L232.25 455.11L232.25 455.11L231.77 455.11z" stroke="none" fill="#000000" fill-rule="evenodd" /><path transform="matrix(1 0 0 -1 0 841)" d="M288.41 430.03L288.89 430.03L288.89 430.03L288.89 455.11L288.89 455.11L288.41 455.11z" stroke="none" fill="#000000" fill-rule="evenodd" /><path transform="matrix(1 0 0 -1 0 841)" d="M348.07 430.03L348.55 430.03L348.55 430.03L348.55 455.11L348.55 455.11L348.07 455.11z" stroke="none" fill="#000000" fill-rule="evenodd" /><path transform="matrix(1 0 0 -1 0 841)" d="M510.7 430.03L511.18 430.03L511.18 430.03L511.18 455.11L511.18 455.11L510.7 455.11z" stroke="none" fill="#000000" fill-rule="evenodd" /><path transform="matrix(1 0 0 -1 0 841)" d="M84.744 302.81L169.824 302.81L169.824 302.81L169.824 429.43L169.824 429.43L84.744 429.43z" stroke="none" fill="#DAEEF3" fill-rule="evenodd" /><g clip-path="url(#88)"><path transform="matrix(1 0 0 -1 0 841)" d="M89.904 405.31L164.664 405.31L164.664 405.31L164.664 429.43L164.664 429.43L89.904 429.43z" stroke="none" fill="#DAEEF3" fill-rule="evenodd" /><g clip-path="url(#89)"></g><g clip-path="url(#90)"></g></g><path transform="matrix(1 0 0 -1 0 841)" d="M170.3 302.81L231.644 302.81L231.644 302.81L231.644 429.43L231.644 429.43L170.3 429.43z" stroke="none" fill="#DAEEF3" fill-rule="evenodd" /><g clip-path="url(#91)"><path transform="matrix(1 0 0 -1 0 841)" d="M175.46 405.31L226.604 405.31L226.604 405.31L226.604 429.43L226.604 429.43L175.46 429.43z" stroke="none" fill="#DAEEF3" fill-rule="evenodd" /><g clip-path="url(#92)"></g><g clip-path="url(#93)"></g></g><path transform="matrix(1 0 0 -1 0 841)" d="M232.25 302.81L288.41 302.81L288.41 302.81L288.41 429.43L288.41 429.43L232.25 429.43z" stroke="none" fill="#DAEEF3" fill-rule="evenodd" /><g clip-path="url(#94)"><path transform="matrix(1 0 0 -1 0 841)" d="M237.41 404.47L283.25 404.47L283.25 404.47L283.25 429.43L283.25 429.43L237.41 429.43z" stroke="none" fill="#DAEEF3" fill-rule="evenodd" /><g clip-path="url(#95)"></g><g clip-path="url(#96)"></g></g><path transform="matrix(1 0 0 -1 0 841)" d="M288.89 302.81L347.954 302.81L347.954 302.81L347.954 429.43L347.954 429.43L288.89 429.43z" stroke="none" fill="#DAEEF3" fill-rule="evenodd" /><g clip-path="url(#97)"><path transform="matrix(1 0 0 -1 0 841)" d="M294.05 405.31L342.794 405.31L342.794 405.31L342.794 429.43L342.794 429.43L294.05 429.43z" stroke="none" fill="#DAEEF3" fill-rule="evenodd" /><g clip-path="url(#98)"></g><g clip-path="url(#99)"></g></g><path transform="matrix(1 0 0 -1 0 841)" d="M348.43 302.81L510.69 302.81L510.69 302.81L510.69 429.43L510.69 429.43L348.43 429.43z" stroke="none" fill="#DAEEF3" fill-rule="evenodd" /><g clip-path="url(#100)"><path transform="matrix(1 0 0 -1 0 841)" d="M353.59 404.47L505.53 404.47L505.53 404.47L505.53 429.43L505.53 429.43L353.59 429.43z" stroke="none" fill="#DAEEF3" fill-rule="evenodd" /><g clip-path="url(#101)"></g><g clip-path="url(#102)"></g><g clip-path="url(#103)"></g><path transform="matrix(1 0 0 -1 0 841)" d="M353.59 384.07L505.53 384.07L505.53 384.07L505.53 404.47L505.53 404.47L353.59 404.47z" stroke="none" fill="#DAEEF3" fill-rule="evenodd" /><g clip-path="url(#104)"></g><g clip-path="url(#105)"></g><g clip-path="url(#106)"></g><path transform="matrix(1 0 0 -1 0 841)" d="M353.59 363.77L505.53 363.77L505.53 363.77L505.53 384.074L505.53 384.074L353.59 384.074z" stroke="none" fill="#DAEEF3" fill-rule="evenodd" /><g clip-path="url(#107)"></g><g clip-path="url(#108)"></g><g clip-path="url(#109)"></g><path transform="matrix(1 0 0 -1 0 841)" d="M353.59 343.49L505.53 343.49L505.53 343.49L505.53 363.77L505.53 363.77L353.59 363.77z" stroke="none" fill="#DAEEF3" fill-rule="evenodd" /><g clip-path="url(#110)"></g><g clip-path="url(#111)"></g><g clip-path="url(#112)"></g><path transform="matrix(1 0 0 -1 0 841)" d="M353.59 323.21L505.53 323.21L505.53 323.21L505.53 343.49L505.53 343.49L353.59 343.49z" stroke="none" fill="#DAEEF3" fill-rule="evenodd" /><g clip-path="url(#113)"></g><g clip-path="url(#114)"></g><g clip-path="url(#115)"></g><path transform="matrix(1 0 0 -1 0 841)" d="M353.59 302.81L505.53 302.81L505.53 302.81L505.53 323.21L505.53 323.21L353.59 323.21z" stroke="none" fill="#DAEEF3" fill-rule="evenodd" /><g clip-path="url(#116)"></g><g clip-path="url(#117)"></g><g clip-path="url(#118)"></g></g><path transform="matrix(1 0 0 -1 0 841)" d="M84.264 429.55L84.744 429.55L84.744 429.55L84.744 430.03L84.744 430.03L84.264 430.03z" stroke="none" fill="#000000" fill-rule="evenodd" /><path transform="matrix(1 0 0 -1 0 841)" d="M84.744 429.55L169.824 429.55L169.824 429.55L169.824 430.03L169.824 430.03L84.744 430.03z" stroke="none" fill="#000000" fill-rule="evenodd" /><path transform="matrix(1 0 0 -1 0 841)" d="M169.82 429.55L170.3 429.55L170.3 429.55L170.3 430.03L170.3 430.03L169.82 430.03z" stroke="none" fill="#000000" fill-rule="evenodd" /><path transform="matrix(1 0 0 -1 0 841)" d="M170.3 429.55L231.764 429.55L231.764 429.55L231.764 430.03L231.764 430.03L170.3 430.03z" stroke="none" fill="#000000" fill-rule="evenodd" /><path transform="matrix(1 0 0 -1 0 841)" d="M231.77 429.55L232.25 429.55L232.25 429.55L232.25 430.03L232.25 430.03L231.77 430.03z" stroke="none" fill="#000000" fill-rule="evenodd" /><path transform="matrix(1 0 0 -1 0 841)" d="M232.25 429.55L288.41 429.55L288.41 429.55L288.41 430.03L288.41 430.03L232.25 430.03z" stroke="none" fill="#000000" fill-rule="evenodd" /><path transform="matrix(1 0 0 -1 0 841)" d="M288.41 429.55L288.89 429.55L288.89 429.55L288.89 430.03L288.89 430.03L288.41 430.03z" stroke="none" fill="#000000" fill-rule="evenodd" /><path transform="matrix(1 0 0 -1 0 841)" d="M288.89 429.55L348.074 429.55L348.074 429.55L348.074 430.03L348.074 430.03L288.89 430.03z" stroke="none" fill="#000000" fill-rule="evenodd" /><path transform="matrix(1 0 0 -1 0 841)" d="M348.07 429.55L348.55 429.55L348.55 429.55L348.55 430.03L348.55 430.03L348.07 430.03z" stroke="none" fill="#000000" fill-rule="evenodd" /><path transform="matrix(1 0 0 -1 0 841)" d="M348.55 429.55L510.69 429.55L510.69 429.55L510.69 430.03L510.69 430.03L348.55 430.03z" stroke="none" fill="#000000" fill-rule="evenodd" /><path transform="matrix(1 0 0 -1 0 841)" d="M510.7 429.55L511.18 429.55L511.18 429.55L511.18 430.03L511.18 430.03L510.7 430.03z" stroke="none" fill="#000000" fill-rule="evenodd" /><path transform="matrix(1 0 0 -1 0 841)" d="M84.264 302.81L84.744 302.81L84.744 302.81L84.744 429.55L84.744 429.55L84.264 429.55z" stroke="none" fill="#000000" fill-rule="evenodd" /><path transform="matrix(1 0 0 -1 0 841)" d="M169.82 302.81L170.3 302.81L170.3 302.81L170.3 429.55L170.3 429.55L169.82 429.55z" stroke="none" fill="#000000" fill-rule="evenodd" /><path transform="matrix(1 0 0 -1 0 841)" d="M231.77 302.81L232.25 302.81L232.25 302.81L232.25 429.55L232.25 429.55L231.77 429.55z" stroke="none" fill="#000000" fill-rule="evenodd" /><path transform="matrix(1 0 0 -1 0 841)" d="M288.41 302.81L288.89 302.81L288.89 302.81L288.89 429.55L288.89 429.55L288.41 429.55z" stroke="none" fill="#000000" fill-rule="evenodd" /><path transform="matrix(1 0 0 -1 0 841)" d="M348.07 302.81L348.55 302.81L348.55 302.81L348.55 429.55L348.55 429.55L348.07 429.55z" stroke="none" fill="#000000" fill-rule="evenodd" /><path transform="matrix(1 0 0 -1 0 841)" d="M510.7 302.81L511.18 302.81L511.18 302.81L511.18 429.55L511.18 429.55L510.7 429.55z" stroke="none" fill="#000000" fill-rule="evenodd" /><g clip-path="url(#119)"><g clip-path="url(#120)"></g><g clip-path="url(#121)"></g></g><g clip-path="url(#122)"><g clip-path="url(#123)"></g><g clip-path="url(#124)"></g></g><g clip-path="url(#125)"><g clip-path="url(#126)"></g><g clip-path="url(#127)"></g></g><g clip-path="url(#128)"><g clip-path="url(#129)"></g><g clip-path="url(#130)"></g></g><g clip-path="url(#131)"><g clip-path="url(#132)"></g><g clip-path="url(#133)"></g><g clip-path="url(#134)"></g></g><path transform="matrix(1 0 0 -1 0 841)" d="M84.264 302.33L84.744 302.33L84.744 302.33L84.744 302.81L84.744 302.81L84.264 302.81z" stroke="none" fill="#000000" fill-rule="evenodd" /><path transform="matrix(1 0 0 -1 0 841)" d="M84.744 302.33L169.824 302.33L169.824 302.33L169.824 302.81L169.824 302.81L84.744 302.81z" stroke="none" fill="#000000" fill-rule="evenodd" /><path transform="matrix(1 0 0 -1 0 841)" d="M169.82 302.33L170.3 302.33L170.3 302.33L170.3 302.81L170.3 302.81L169.82 302.81z" stroke="none" fill="#000000" fill-rule="evenodd" /><path transform="matrix(1 0 0 -1 0 841)" d="M170.3 302.33L231.764 302.33L231.764 302.33L231.764 302.81L231.764 302.81L170.3 302.81z" stroke="none" fill="#000000" fill-rule="evenodd" /><path transform="matrix(1 0 0 -1 0 841)" d="M231.77 302.33L232.25 302.33L232.25 302.33L232.25 302.81L232.25 302.81L231.77 302.81z" stroke="none" fill="#000000" fill-rule="evenodd" /><path transform="matrix(1 0 0 -1 0 841)" d="M232.25 302.33L288.41 302.33L288.41 302.33L288.41 302.81L288.41 302.81L232.25 302.81z" stroke="none" fill="#000000" fill-rule="evenodd" /><path transform="matrix(1 0 0 -1 0 841)" d="M288.41 302.33L288.89 302.33L288.89 302.33L288.89 302.81L288.89 302.81L288.41 302.81z" stroke="none" fill="#000000" fill-rule="evenodd" /><path transform="matrix(1 0 0 -1 0 841)" d="M288.89 302.33L348.074 302.33L348.074 302.33L348.074 302.81L348.074 302.81L288.89 302.81z" stroke="none" fill="#000000" fill-rule="evenodd" /><path transform="matrix(1 0 0 -1 0 841)" d="M348.07 302.33L348.55 302.33L348.55 302.33L348.55 302.81L348.55 302.81L348.07 302.81z" stroke="none" fill="#000000" fill-rule="evenodd" /><path transform="matrix(1 0 0 -1 0 841)" d="M348.55 302.33L510.69 302.33L510.69 302.33L510.69 302.81L510.69 302.81L348.55 302.81z" stroke="none" fill="#000000" fill-rule="evenodd" /><path transform="matrix(1 0 0 -1 0 841)" d="M510.7 302.33L511.18 302.33L511.18 302.33L511.18 302.81L511.18 302.81L510.7 302.81z" stroke="none" fill="#000000" fill-rule="evenodd" /><path transform="matrix(1 0 0 -1 0 841)" d="M84.264 277.25L84.744 277.25L84.744 277.25L84.744 302.33L84.744 302.33L84.264 302.33z" stroke="none" fill="#000000" fill-rule="evenodd" /><path transform="matrix(1 0 0 -1 0 841)" d="M169.82 277.25L170.3 277.25L170.3 277.25L170.3 302.33L170.3 302.33L169.82 302.33z" stroke="none" fill="#000000" fill-rule="evenodd" /><path transform="matrix(1 0 0 -1 0 841)" d="M231.77 277.25L232.25 277.25L232.25 277.25L232.25 302.33L232.25 302.33L231.77 302.33z" stroke="none" fill="#000000" fill-rule="evenodd" /><path transform="matrix(1 0 0 -1 0 841)" d="M288.41 277.25L288.89 277.25L288.89 277.25L288.89 302.33L288.89 302.33L288.41 302.33z" stroke="none" fill="#000000" fill-rule="evenodd" /><path transform="matrix(1 0 0 -1 0 841)" d="M348.07 277.25L348.55 277.25L348.55 277.25L348.55 302.33L348.55 302.33L348.07 302.33z" stroke="none" fill="#000000" fill-rule="evenodd" /><path transform="matrix(1 0 0 -1 0 841)" d="M510.7 277.25L511.18 277.25L511.18 277.25L511.18 302.33L511.18 302.33L510.7 302.33z" stroke="none" fill="#000000" fill-rule="evenodd" /><path transform="matrix(1 0 0 -1 0 841)" d="M84.744 167.78L169.824 167.78L169.824 167.78L169.824 276.76L169.824 276.76L84.744 276.76z" stroke="none" fill="#DAEEF3" fill-rule="evenodd" /><g clip-path="url(#135)"><path transform="matrix(1 0 0 -1 0 841)" d="M89.904 257.33L164.664 257.33L164.664 257.33L164.664 276.77L164.664 276.77L89.904 276.77z" stroke="none" fill="#DAEEF3" fill-rule="evenodd" /><g clip-path="url(#136)"></g><path transform="matrix(1 0 0 -1 0 841)" d="M89.904 238.01L164.664 238.01L164.664 238.01L164.664 257.33L164.664 257.33L89.904 257.33z" stroke="none" fill="#DAEEF3" fill-rule="evenodd" /><g clip-path="url(#137)"></g><g clip-path="url(#138)"></g></g><path transform="matrix(1 0 0 -1 0 841)" d="M170.3 167.78L231.644 167.78L231.644 167.78L231.644 276.76L231.644 276.76L170.3 276.76z" stroke="none" fill="#DAEEF3" fill-rule="evenodd" /><g clip-path="url(#139)"><path transform="matrix(1 0 0 -1 0 841)" d="M175.46 252.65L226.604 252.65L226.604 252.65L226.604 276.77L226.604 276.77L175.46 276.77z" stroke="none" fill="#DAEEF3" fill-rule="evenodd" /><g clip-path="url(#140)"></g><g clip-path="url(#141)"></g></g><path transform="matrix(1 0 0 -1 0 841)" d="M232.25 167.78L288.41 167.78L288.41 167.78L288.41 276.76L288.41 276.76L232.25 276.76z" stroke="none" fill="#DAEEF3" fill-rule="evenodd" /><g clip-path="url(#142)"><path transform="matrix(1 0 0 -1 0 841)" d="M237.41 251.69L283.25 251.69L283.25 251.69L283.25 276.77L283.25 276.77L237.41 276.77z" stroke="none" fill="#DAEEF3" fill-rule="evenodd" /><g clip-path="url(#143)"></g><g clip-path="url(#144)"></g></g><path transform="matrix(1 0 0 -1 0 841)" d="M288.89 167.78L347.954 167.78L347.954 167.78L347.954 276.76L347.954 276.76L288.89 276.76z" stroke="none" fill="#DAEEF3" fill-rule="evenodd" /><g clip-path="url(#145)"><path transform="matrix(1 0 0 -1 0 841)" d="M294.05 252.65L342.794 252.65L342.794 252.65L342.794 276.77L342.794 276.77L294.05 276.77z" stroke="none" fill="#DAEEF3" fill-rule="evenodd" /><g clip-path="url(#146)"></g><g clip-path="url(#147)"></g></g><path transform="matrix(1 0 0 -1 0 841)" d="M348.43 167.78L510.69 167.78L510.69 167.78L510.69 276.76L510.69 276.76L348.43 276.76z" stroke="none" fill="#DAEEF3" fill-rule="evenodd" /><g clip-path="url(#148)"><path transform="matrix(1 0 0 -1 0 841)" d="M353.59 261.17L505.53 261.17L505.53 261.17L505.53 276.77L505.53 276.77L353.59 276.77z" stroke="none" fill="#DAEEF3" fill-rule="evenodd" /><g clip-path="url(#149)"></g><g clip-path="url(#150)"></g><path transform="matrix(1 0 0 -1 0 841)" d="M353.59 245.69L505.53 245.69L505.53 245.69L505.53 261.17L505.53 261.17L353.59 261.17z" stroke="none" fill="#DAEEF3" fill-rule="evenodd" /><g clip-path="url(#151)"></g><g clip-path="url(#152)"></g><g clip-path="url(#153)"></g><path transform="matrix(1 0 0 -1 0 841)" d="M353.59 230.09L505.53 230.09L505.53 230.09L505.53 245.69L505.53 245.69L353.59 245.69z" stroke="none" fill="#DAEEF3" fill-rule="evenodd" /><g clip-path="url(#154)"></g><g clip-path="url(#155)"></g><g clip-path="url(#156)"></g><path transform="matrix(1 0 0 -1 0 841)" d="M353.59 214.49L505.53 214.49L505.53 214.49L505.53 230.09L505.53 230.09L353.59 230.09z" stroke="none" fill="#DAEEF3" fill-rule="evenodd" /><g clip-path="url(#157)"></g><g clip-path="url(#158)"></g><g clip-path="url(#159)"></g><path transform="matrix(1 0 0 -1 0 841)" d="M353.59 199.01L505.53 199.01L505.53 199.01L505.53 214.49L505.53 214.49L353.59 214.49z" stroke="none" fill="#DAEEF3" fill-rule="evenodd" /><g clip-path="url(#160)"></g><g clip-path="url(#161)"></g><g clip-path="url(#162)"></g><path transform="matrix(1 0 0 -1 0 841)" d="M353.59 183.41L505.53 183.41L505.53 183.41L505.53 199.01L505.53 199.01L353.59 199.01z" stroke="none" fill="#DAEEF3" fill-rule="evenodd" /><g clip-path="url(#163)"></g><g clip-path="url(#164)"></g><g clip-path="url(#165)"></g><path transform="matrix(1 0 0 -1 0 841)" d="M353.59 167.78L505.53 167.78L505.53 167.78L505.53 183.404L505.53 183.404L353.59 183.404z" stroke="none" fill="#DAEEF3" fill-rule="evenodd" /><g clip-path="url(#166)"></g><g clip-path="url(#167)"></g><g clip-path="url(#168)"></g><g clip-path="url(#169)"></g></g><path transform="matrix(1 0 0 -1 0 841)" d="M84.264 276.77L84.744 276.77L84.744 276.77L84.744 277.25L84.744 277.25L84.264 277.25z" stroke="none" fill="#000000" fill-rule="evenodd" /><path transform="matrix(1 0 0 -1 0 841)" d="M84.744 276.77L169.824 276.77L169.824 276.77L169.824 277.25L169.824 277.25L84.744 277.25z" stroke="none" fill="#000000" fill-rule="evenodd" /><path transform="matrix(1 0 0 -1 0 841)" d="M169.82 276.77L170.3 276.77L170.3 276.77L170.3 277.25L170.3 277.25L169.82 277.25z" stroke="none" fill="#000000" fill-rule="evenodd" /><path transform="matrix(1 0 0 -1 0 841)" d="M170.3 276.77L231.764 276.77L231.764 276.77L231.764 277.25L231.764 277.25L170.3 277.25z" stroke="none" fill="#000000" fill-rule="evenodd" /><path transform="matrix(1 0 0 -1 0 841)" d="M231.77 276.77L232.25 276.77L232.25 276.77L232.25 277.25L232.25 277.25L231.77 277.25z" stroke="none" fill="#000000" fill-rule="evenodd" /><path transform="matrix(1 0 0 -1 0 841)" d="M232.25 276.77L288.41 276.77L288.41 276.77L288.41 277.25L288.41 277.25L232.25 277.25z" stroke="none" fill="#000000" fill-rule="evenodd" /><path transform="matrix(1 0 0 -1 0 841)" d="M288.41 276.77L288.89 276.77L288.89 276.77L288.89 277.25L288.89 277.25L288.41 277.25z" stroke="none" fill="#000000" fill-rule="evenodd" /><path transform="matrix(1 0 0 -1 0 841)" d="M288.89 276.77L348.074 276.77L348.074 276.77L348.074 277.25L348.074 277.25L288.89 277.25z" stroke="none" fill="#000000" fill-rule="evenodd" /><path transform="matrix(1 0 0 -1 0 841)" d="M348.07 276.77L348.55 276.77L348.55 276.77L348.55 277.25L348.55 277.25L348.07 277.25z" stroke="none" fill="#000000" fill-rule="evenodd" /><path transform="matrix(1 0 0 -1 0 841)" d="M348.55 276.77L510.69 276.77L510.69 276.77L510.69 277.25L510.69 277.25L348.55 277.25z" stroke="none" fill="#000000" fill-rule="evenodd" /><path transform="matrix(1 0 0 -1 0 841)" d="M510.7 276.77L511.18 276.77L511.18 276.77L511.18 277.25L511.18 277.25L510.7 277.25z" stroke="none" fill="#000000" fill-rule="evenodd" /><path transform="matrix(1 0 0 -1 0 841)" d="M84.264 167.78L84.744 167.78L84.744 167.78L84.744 276.76L84.744 276.76L84.264 276.76z" stroke="none" fill="#000000" fill-rule="evenodd" /><path transform="matrix(1 0 0 -1 0 841)" d="M84.264 167.3L84.744 167.3L84.744 167.3L84.744 167.78L84.744 167.78L84.264 167.78z" stroke="none" fill="#000000" fill-rule="evenodd" /><path transform="matrix(1 0 0 -1 0 841)" d="M84.264 167.3L84.744 167.3L84.744 167.3L84.744 167.78L84.744 167.78L84.264 167.78z" stroke="none" fill="#000000" fill-rule="evenodd" /><path transform="matrix(1 0 0 -1 0 841)" d="M84.744 167.3L169.824 167.3L169.824 167.3L169.824 167.78L169.824 167.78L84.744 167.78z" stroke="none" fill="#000000" fill-rule="evenodd" /><path transform="matrix(1 0 0 -1 0 841)" d="M169.82 167.78L170.3 167.78L170.3 167.78L170.3 276.76L170.3 276.76L169.82 276.76z" stroke="none" fill="#000000" fill-rule="evenodd" /><path transform="matrix(1 0 0 -1 0 841)" d="M169.82 167.3L170.3 167.3L170.3 167.3L170.3 167.78L170.3 167.78L169.82 167.78z" stroke="none" fill="#000000" fill-rule="evenodd" /><path transform="matrix(1 0 0 -1 0 841)" d="M170.3 167.3L231.764 167.3L231.764 167.3L231.764 167.78L231.764 167.78L170.3 167.78z" stroke="none" fill="#000000" fill-rule="evenodd" /><path transform="matrix(1 0 0 -1 0 841)" d="M231.77 167.78L232.25 167.78L232.25 167.78L232.25 276.76L232.25 276.76L231.77 276.76z" stroke="none" fill="#000000" fill-rule="evenodd" /><path transform="matrix(1 0 0 -1 0 841)" d="M231.77 167.3L232.25 167.3L232.25 167.3L232.25 167.78L232.25 167.78L231.77 167.78z" stroke="none" fill="#000000" fill-rule="evenodd" /><path transform="matrix(1 0 0 -1 0 841)" d="M232.25 167.3L288.41 167.3L288.41 167.3L288.41 167.78L288.41 167.78L232.25 167.78z" stroke="none" fill="#000000" fill-rule="evenodd" /><path transform="matrix(1 0 0 -1 0 841)" d="M288.41 167.78L288.89 167.78L288.89 167.78L288.89 276.76L288.89 276.76L288.41 276.76z" stroke="none" fill="#000000" fill-rule="evenodd" /><path transform="matrix(1 0 0 -1 0 841)" d="M288.41 167.3L288.89 167.3L288.89 167.3L288.89 167.78L288.89 167.78L288.41 167.78z" stroke="none" fill="#000000" fill-rule="evenodd" /><path transform="matrix(1 0 0 -1 0 841)" d="M288.89 167.3L348.074 167.3L348.074 167.3L348.074 167.78L348.074 167.78L288.89 167.78z" stroke="none" fill="#000000" fill-rule="evenodd" /><path transform="matrix(1 0 0 -1 0 841)" d="M348.07 167.78L348.55 167.78L348.55 167.78L348.55 276.76L348.55 276.76L348.07 276.76z" stroke="none" fill="#000000" fill-rule="evenodd" /><path transform="matrix(1 0 0 -1 0 841)" d="M348.07 167.3L348.55 167.3L348.55 167.3L348.55 167.78L348.55 167.78L348.07 167.78z" stroke="none" fill="#000000" fill-rule="evenodd" /><path transform="matrix(1 0 0 -1 0 841)" d="M348.55 167.3L510.69 167.3L510.69 167.3L510.69 167.78L510.69 167.78L348.55 167.78z" stroke="none" fill="#000000" fill-rule="evenodd" /><path transform="matrix(1 0 0 -1 0 841)" d="M510.7 167.78L511.18 167.78L511.18 167.78L511.18 276.76L511.18 276.76L510.7 276.76z" stroke="none" fill="#000000" fill-rule="evenodd" /><path transform="matrix(1 0 0 -1 0 841)" d="M510.7 167.3L511.18 167.3L511.18 167.3L511.18 167.78L511.18 167.78L510.7 167.78z" stroke="none" fill="#000000" fill-rule="evenodd" /><path transform="matrix(1 0 0 -1 0 841)" d="M510.7 167.3L511.18 167.3L511.18 167.3L511.18 167.78L511.18 167.78L510.7 167.78z" stroke="none" fill="#000000" fill-rule="evenodd" /><path transform="matrix(1 0 0 -1 0 841)" d="M84.744 128.66L510.694 128.66L510.694 128.66L510.694 147.74L510.694 147.74L84.744 147.74z" stroke="none" fill="#0070C0" fill-rule="evenodd" /><g clip-path="url(#170)"><path transform="matrix(1 0 0 -1 0 841)" d="M89.904 128.66L505.534 128.66L505.534 128.66L505.534 147.74L505.534 147.74L89.904 147.74z" stroke="none" fill="#0070C0" fill-rule="evenodd" /><g clip-path="url(#171)"></g><g clip-path="url(#172)"></g></g><path transform="matrix(1 0 0 -1 0 841)" d="M84.264 147.74L84.744 147.74L84.744 147.74L84.744 148.22L84.744 148.22L84.264 148.22z" stroke="none" fill="#000000" fill-rule="evenodd" /><path transform="matrix(1 0 0 -1 0 841)" d="M84.264 147.74L84.744 147.74L84.744 147.74L84.744 148.22L84.744 148.22L84.264 148.22z" stroke="none" fill="#000000" fill-rule="evenodd" /><path transform="matrix(1 0 0 -1 0 841)" d="M84.744 147.74L510.694 147.74L510.694 147.74L510.694 148.22L510.694 148.22L84.744 148.22z" stroke="none" fill="#000000" fill-rule="evenodd" /><path transform="matrix(1 0 0 -1 0 841)" d="M510.7 147.74L511.18 147.74L511.18 147.74L511.18 148.22L511.18 148.22L510.7 148.22z" stroke="none" fill="#000000" fill-rule="evenodd" /><path transform="matrix(1 0 0 -1 0 841)" d="M510.7 147.74L511.18 147.74L511.18 147.74L511.18 148.22L511.18 148.22L510.7 148.22z" stroke="none" fill="#000000" fill-rule="evenodd" /><path transform="matrix(1 0 0 -1 0 841)" d="M84.264 128.66L84.744 128.66L84.744 128.66L84.744 147.74L84.744 147.74L84.264 147.74z" stroke="none" fill="#000000" fill-rule="evenodd" /><path transform="matrix(1 0 0 -1 0 841)" d="M84.264 128.18L84.744 128.18L84.744 128.18L84.744 128.66L84.744 128.66L84.264 128.66z" stroke="none" fill="#000000" fill-rule="evenodd" /><path transform="matrix(1 0 0 -1 0 841)" d="M84.264 128.18L84.744 128.18L84.744 128.18L84.744 128.66L84.744 128.66L84.264 128.66z" stroke="none" fill="#000000" fill-rule="evenodd" /><path transform="matrix(1 0 0 -1 0 841)" d="M84.744 128.18L510.694 128.18L510.694 128.18L510.694 128.66L510.694 128.66L84.744 128.66z" stroke="none" fill="#000000" fill-rule="evenodd" /><path transform="matrix(1 0 0 -1 0 841)" d="M510.7 128.66L511.18 128.66L511.18 128.66L511.18 147.74L511.18 147.74L510.7 147.74z" stroke="none" fill="#000000" fill-rule="evenodd" /><path transform="matrix(1 0 0 -1 0 841)" d="M510.7 128.18L511.18 128.18L511.18 128.18L511.18 128.66L511.18 128.66L510.7 128.66z" stroke="none" fill="#000000" fill-rule="evenodd" /><path transform="matrix(1 0 0 -1 0 841)" d="M510.7 128.18L511.18 128.18L511.18 128.18L511.18 128.66L511.18 128.66L510.7 128.66z" stroke="none" fill="#000000" fill-rule="evenodd" /></g></g></g></svg>