<svg xmlns="http://www.w3.org/2000/svg" xmlns:xlink="http://www.w3.org/1999/xlink" id="body_114" preserveAspectRatio="xMinYMin meet" viewBox="0 0 1121 793"><defs><clipPath id="1"><path d="M0 595L0 -0.3200073L0 -0.3200073L841.92 -0.3200073L841.92 -0.3200073L841.92 595L841.92 595L0 595z" /></clipPath><clipPath id="2"><path d="M0.00125 595.0913L842.0112 595.0913L842.0112 595.0913L842.0112 -0.3186646L842.0112 -0.3186646L0.00125 -0.3186646z" /></clipPath><clipPath id="3"><path d="M288.05 535.211L316.01 535.211L316.01 535.211L316.01 516.011L316.01 516.011L288.05 516.011z" /></clipPath><clipPath id="4"><path d="M288.05 535.216L316.01 535.216L316.01 535.216L316.01 516.016L316.01 516.016L288.05 516.016z" /></clipPath><clipPath id="5"><path d="M288.05 535.216L316.01 535.216L316.01 535.216L316.01 516.016L316.01 516.016L288.05 516.016z" /></clipPath><clipPath id="6"><path d="M84.721 127.39L192.031 127.39L192.031 127.39L192.031 90.07001L192.031 90.07001L84.721 90.07001z" /></clipPath><clipPath id="7"><path d="M84.72 127.38L192.02 127.38L192.02 127.38L192.02 90.06L192.02 90.06L84.72 90.06z" /></clipPath><clipPath id="8"><path d="M84.72 127.38L192.02 127.38L192.02 127.38L192.02 90.06L192.02 90.06L84.72 90.06z" /></clipPath><clipPath id="9"><path d="M192.51 127.39L267.75 127.39L267.75 127.39L267.75 90.07001L267.75 90.07001L192.51 90.07001z" /></clipPath><clipPath id="10"><path d="M192.5 127.38L267.74 127.38L267.74 127.38L267.74 90.06L267.74 90.06L192.5 90.06z" /></clipPath><clipPath id="11"><path d="M192.5 127.38L267.74 127.38L267.74 127.38L267.74 90.06L267.74 90.06L192.5 90.06z" /></clipPath><clipPath id="12"><path d="M268.23 127.39L324.405 127.39L324.405 127.39L324.405 90.07001L324.405 90.07001L268.23 90.07001z" /></clipPath><clipPath id="13"><path d="M268.22 127.38L324.404 127.38L324.404 127.38L324.404 90.06L324.404 90.06L268.22 90.06z" /></clipPath><clipPath id="14"><path d="M268.22 127.38L324.404 127.38L324.404 127.38L324.404 90.06L324.404 90.06L268.22 90.06z" /></clipPath><clipPath id="15"><path d="M325.01 127.39L471.29 127.39L471.29 127.39L471.29 90.07001L471.29 90.07001L325.01 90.07001z" /></clipPath><clipPath id="16"><path d="M325.01 127.38L471.29 127.38L471.29 127.38L471.29 90.06L471.29 90.06L325.01 90.06z" /></clipPath><clipPath id="17"><path d="M325.01 127.38L471.29 127.38L471.29 127.38L471.29 90.06L471.29 90.06L325.01 90.06z" /></clipPath><clipPath id="18"><path d="M471.8 127.39L725.86 127.39L725.86 127.39L725.86 90.07001L725.86 90.07001L471.8 90.07001z" /></clipPath><clipPath id="19"><path d="M471.79 127.38L725.85 127.38L725.85 127.38L725.85 90.06L725.85 90.06L471.79 90.06z" /></clipPath><clipPath id="20"><path d="M471.79 127.38L725.85 127.38L725.85 127.38L725.85 90.06L725.85 90.06L471.79 90.06z" /></clipPath><clipPath id="21"><path d="M471.8 241.05L725.86 241.05L725.86 241.05L725.86 127.87L725.86 127.87L471.8 127.87z" /></clipPath><clipPath id="22"><path d="M471.79 241.05L725.85 241.05L725.85 241.05L725.85 127.87L725.85 127.87L471.79 127.87z" /></clipPath><clipPath id="23"><path d="M494.47 241.05L700.65 241.05L700.65 241.05L700.65 127.87L700.65 127.87L494.47 127.87z" /></clipPath><clipPath id="24"><path d="M503.95 156.06L549.31 156.06L549.31 156.06L549.31 128.46L549.31 128.46L503.95 128.46z" /></clipPath><clipPath id="25"><path d="M503.95 156.06L549.31 156.06L549.31 156.06L549.31 128.46L549.31 128.46L503.95 128.46z" /></clipPath><clipPath id="26"><path d="M503.95 156.06L549.31 156.06L549.31 156.06L549.31 128.46L549.31 128.46L503.95 128.46z" /></clipPath><clipPath id="27"><path d="M549.79 156.06L691.05 156.06L691.05 156.06L691.05 128.46L691.05 128.46L549.79 128.46z" /></clipPath><clipPath id="28"><path d="M549.79 156.06L691.05 156.06L691.05 156.06L691.05 128.46L691.05 128.46L549.79 128.46z" /></clipPath><clipPath id="29"><path d="M549.79 156.06L691.05 156.06L691.05 156.06L691.05 128.46L691.05 128.46L549.79 128.46z" /></clipPath><clipPath id="30"><path d="M503.95 184.26L549.31 184.26L549.31 184.26L549.31 156.54L549.31 156.54L503.95 156.54z" /></clipPath><clipPath id="31"><path d="M503.95 184.26L549.31 184.26L549.31 184.26L549.31 156.54L549.31 156.54L503.95 156.54z" /></clipPath><clipPath id="32"><path d="M503.95 184.26L549.31 184.26L549.31 184.26L549.31 156.54L549.31 156.54L503.95 156.54z" /></clipPath><clipPath id="33"><path d="M549.79 184.26L691.05 184.26L691.05 184.26L691.05 156.54L691.05 156.54L549.79 156.54z" /></clipPath><clipPath id="34"><path d="M549.79 184.26L691.05 184.26L691.05 184.26L691.05 156.54L691.05 156.54L549.79 156.54z" /></clipPath><clipPath id="35"><path d="M549.79 184.26L691.05 184.26L691.05 184.26L691.05 156.54L691.05 156.54L549.79 156.54z" /></clipPath><clipPath id="36"><path d="M503.95 212.37L549.31 212.37L549.31 212.37L549.31 184.746L549.31 184.746L503.95 184.746z" /></clipPath><clipPath id="37"><path d="M503.95 212.37L549.31 212.37L549.31 212.37L549.31 184.746L549.31 184.746L503.95 184.746z" /></clipPath><clipPath id="38"><path d="M503.95 212.37L549.31 212.37L549.31 212.37L549.31 184.746L549.31 184.746L503.95 184.746z" /></clipPath><clipPath id="39"><path d="M549.79 212.37L691.05 212.37L691.05 212.37L691.05 184.746L691.05 184.746L549.79 184.746z" /></clipPath><clipPath id="40"><path d="M549.79 212.37L691.05 212.37L691.05 212.37L691.05 184.746L691.05 184.746L549.79 184.746z" /></clipPath><clipPath id="41"><path d="M549.79 212.37L691.05 212.37L691.05 212.37L691.05 184.746L691.05 184.746L549.79 184.746z" /></clipPath><clipPath id="42"><path d="M503.95 240.57L549.31 240.57L549.31 240.57L549.31 212.85L549.31 212.85L503.95 212.85z" /></clipPath><clipPath id="43"><path d="M503.95 240.57L549.31 240.57L549.31 240.57L549.31 212.85L549.31 212.85L503.95 212.85z" /></clipPath><clipPath id="44"><path d="M503.95 240.57L549.31 240.57L549.31 240.57L549.31 212.85L549.31 212.85L503.95 212.85z" /></clipPath><clipPath id="45"><path d="M549.79 240.57L691.05 240.57L691.05 240.57L691.05 212.85L691.05 212.85L549.79 212.85z" /></clipPath><clipPath id="46"><path d="M549.79 240.57L691.05 240.57L691.05 240.57L691.05 212.85L691.05 212.85L549.79 212.85z" /></clipPath><clipPath id="47"><path d="M549.79 240.57L691.05 240.57L691.05 240.57L691.05 212.85L691.05 212.85L549.79 212.85z" /></clipPath><clipPath id="48"><path d="M84.721 374.16L192.031 374.16L192.031 374.16L192.031 241.53L192.031 241.53L84.721 241.53z" /></clipPath><clipPath id="49"><path d="M84.72 374.15L192.02 374.15L192.02 374.15L192.02 241.53L192.02 241.53L84.72 241.53z" /></clipPath><clipPath id="50"><path d="M84.72 374.15L192.02 374.15L192.02 374.15L192.02 241.53L192.02 241.53L84.72 241.53z" /></clipPath><clipPath id="51"><path d="M192.51 374.16L267.75 374.16L267.75 374.16L267.75 241.53L267.75 241.53L192.51 241.53z" /></clipPath><clipPath id="52"><path d="M192.5 374.15L267.74 374.15L267.74 374.15L267.74 241.53L267.74 241.53L192.5 241.53z" /></clipPath><clipPath id="53"><path d="M192.5 374.15L267.74 374.15L267.74 374.15L267.74 241.53L267.74 241.53L192.5 241.53z" /></clipPath><clipPath id="54"><path d="M268.23 374.16L324.405 374.16L324.405 374.16L324.405 241.53L324.405 241.53L268.23 241.53z" /></clipPath><clipPath id="55"><path d="M268.22 374.15L324.404 374.15L324.404 374.15L324.404 241.53L324.404 241.53L268.22 241.53z" /></clipPath><clipPath id="56"><path d="M268.22 374.15L324.404 374.15L324.404 374.15L324.404 241.53L324.404 241.53L268.22 241.53z" /></clipPath><clipPath id="57"><path d="M325.01 374.16L471.29 374.16L471.29 374.16L471.29 241.53L471.29 241.53L325.01 241.53z" /></clipPath><clipPath id="58"><path d="M325.01 374.15L471.29 374.15L471.29 374.15L471.29 241.53L471.29 241.53L325.01 241.53z" /></clipPath><clipPath id="59"><path d="M325.01 374.15L471.29 374.15L471.29 374.15L471.29 241.53L471.29 241.53L325.01 241.53z" /></clipPath><clipPath id="60"><path d="M471.8 374.16L725.86 374.16L725.86 374.16L725.86 241.53L725.86 241.53L471.8 241.53z" /></clipPath><clipPath id="61"><path d="M471.79 374.15L725.85 374.15L725.85 374.15L725.85 241.53L725.85 241.53L471.79 241.53z" /></clipPath><clipPath id="62"><path d="M507.43 305.97L552.67 305.97L552.67 305.97L552.67 268.65L552.67 268.65L507.43 268.65z" /></clipPath><clipPath id="63"><path d="M507.43 305.97L552.67 305.97L552.67 305.97L552.67 268.65L552.67 268.65L507.43 268.65z" /></clipPath><clipPath id="64"><path d="M507.43 305.97L552.67 305.97L552.67 305.97L552.67 268.65L552.67 268.65L507.43 268.65z" /></clipPath><clipPath id="65"><path d="M553.27 305.97L690.21 305.97L690.21 305.97L690.21 268.65L690.21 268.65L553.27 268.65z" /></clipPath><clipPath id="66"><path d="M553.27 305.97L690.21 305.97L690.21 305.97L690.21 268.65L690.21 268.65L553.27 268.65z" /></clipPath><clipPath id="67"><path d="M553.27 305.97L690.21 305.97L690.21 305.97L690.21 268.65L690.21 268.65L553.27 268.65z" /></clipPath><clipPath id="68"><path d="M507.43 333.09L552.67 333.09L552.67 333.09L552.67 306.45L552.67 306.45L507.43 306.45z" /></clipPath><clipPath id="69"><path d="M507.43 333.09L552.67 333.09L552.67 333.09L552.67 306.45L552.67 306.45L507.43 306.45z" /></clipPath><clipPath id="70"><path d="M507.43 333.09L552.67 333.09L552.67 333.09L552.67 306.45L552.67 306.45L507.43 306.45z" /></clipPath><clipPath id="71"><path d="M553.27 333.09L690.21 333.09L690.21 333.09L690.21 306.45L690.21 306.45L553.27 306.45z" /></clipPath><clipPath id="72"><path d="M553.27 333.09L690.21 333.09L690.21 333.09L690.21 306.45L690.21 306.45L553.27 306.45z" /></clipPath><clipPath id="73"><path d="M553.27 333.09L690.21 333.09L690.21 333.09L690.21 306.45L690.21 306.45L553.27 306.45z" /></clipPath><clipPath id="74"><path d="M507.43 360.23L552.67 360.23L552.67 360.23L552.67 333.566L552.67 333.566L507.43 333.566z" /></clipPath><clipPath id="75"><path d="M507.43 360.23L552.67 360.23L552.67 360.23L552.67 333.566L552.67 333.566L507.43 333.566z" /></clipPath><clipPath id="76"><path d="M507.43 360.23L552.67 360.23L552.67 360.23L552.67 333.566L552.67 333.566L507.43 333.566z" /></clipPath><clipPath id="77"><path d="M553.27 360.23L690.21 360.23L690.21 360.23L690.21 333.566L690.21 333.566L553.27 333.566z" /></clipPath><clipPath id="78"><path d="M553.27 360.23L690.21 360.23L690.21 360.23L690.21 333.566L690.21 333.566L553.27 333.566z" /></clipPath><clipPath id="79"><path d="M553.27 360.23L690.21 360.23L690.21 360.23L690.21 333.566L690.21 333.566L553.27 333.566z" /></clipPath><clipPath id="80"><path d="M471.79 374.15L725.85 374.15L725.85 374.15L725.85 241.53L725.85 241.53L471.79 241.53z" /></clipPath><clipPath id="81"><path d="M84.721 402.36L192.031 402.36L192.031 402.36L192.031 374.64L192.031 374.64L84.721 374.64z" /></clipPath><clipPath id="82"><path d="M84.72 402.35L192.02 402.35L192.02 402.35L192.02 374.63L192.02 374.63L84.72 374.63z" /></clipPath><clipPath id="83"><path d="M84.72 402.35L192.02 402.35L192.02 402.35L192.02 374.63L192.02 374.63L84.72 374.63z" /></clipPath><clipPath id="84"><path d="M192.51 402.36L267.75 402.36L267.75 402.36L267.75 374.64L267.75 374.64L192.51 374.64z" /></clipPath><clipPath id="85"><path d="M192.5 402.35L267.74 402.35L267.74 402.35L267.74 374.63L267.74 374.63L192.5 374.63z" /></clipPath><clipPath id="86"><path d="M192.5 402.35L267.74 402.35L267.74 402.35L267.74 374.63L267.74 374.63L192.5 374.63z" /></clipPath><clipPath id="87"><path d="M268.23 402.36L324.405 402.36L324.405 402.36L324.405 374.64L324.405 374.64L268.23 374.64z" /></clipPath><clipPath id="88"><path d="M268.22 402.35L324.404 402.35L324.404 402.35L324.404 374.63L324.404 374.63L268.22 374.63z" /></clipPath><clipPath id="89"><path d="M268.22 402.35L324.404 402.35L324.404 402.35L324.404 374.63L324.404 374.63L268.22 374.63z" /></clipPath><clipPath id="90"><path d="M325.01 402.36L471.29 402.36L471.29 402.36L471.29 374.64L471.29 374.64L325.01 374.64z" /></clipPath><clipPath id="91"><path d="M325.01 402.35L471.29 402.35L471.29 402.35L471.29 374.63L471.29 374.63L325.01 374.63z" /></clipPath><clipPath id="92"><path d="M325.01 402.35L471.29 402.35L471.29 402.35L471.29 374.63L471.29 374.63L325.01 374.63z" /></clipPath><clipPath id="93"><path d="M325.01 402.35L471.29 402.35L471.29 402.35L471.29 374.63L471.29 374.63L325.01 374.63z" /></clipPath><clipPath id="94"><path d="M325.01 402.35L471.29 402.35L471.29 402.35L471.29 374.63L471.29 374.63L325.01 374.63z" /></clipPath><clipPath id="95"><path d="M471.8 402.36L725.86 402.36L725.86 402.36L725.86 374.64L725.86 374.64L471.8 374.64z" /></clipPath><clipPath id="96"><path d="M471.79 402.35L725.85 402.35L725.85 402.35L725.85 374.63L725.85 374.63L471.79 374.63z" /></clipPath><clipPath id="97"><path d="M471.79 402.35L725.85 402.35L725.85 402.35L725.85 374.63L725.85 374.63L471.79 374.63z" /></clipPath><clipPath id="98"><path d="M84.721 430.44L192.031 430.44L192.031 430.44L192.031 402.84L192.031 402.84L84.721 402.84z" /></clipPath><clipPath id="99"><path d="M84.72 430.43L192.02 430.43L192.02 430.43L192.02 402.83L192.02 402.83L84.72 402.83z" /></clipPath><clipPath id="100"><path d="M84.72 430.43L192.02 430.43L192.02 430.43L192.02 402.83L192.02 402.83L84.72 402.83z" /></clipPath><clipPath id="101"><path d="M192.51 430.44L267.75 430.44L267.75 430.44L267.75 402.84L267.75 402.84L192.51 402.84z" /></clipPath><clipPath id="102"><path d="M192.5 430.43L267.74 430.43L267.74 430.43L267.74 402.83L267.74 402.83L192.5 402.83z" /></clipPath><clipPath id="103"><path d="M192.5 430.43L267.74 430.43L267.74 430.43L267.74 402.83L267.74 402.83L192.5 402.83z" /></clipPath><clipPath id="104"><path d="M268.23 430.44L324.405 430.44L324.405 430.44L324.405 402.84L324.405 402.84L268.23 402.84z" /></clipPath><clipPath id="105"><path d="M268.22 430.43L324.404 430.43L324.404 430.43L324.404 402.83L324.404 402.83L268.22 402.83z" /></clipPath><clipPath id="106"><path d="M268.22 430.43L324.404 430.43L324.404 430.43L324.404 402.83L324.404 402.83L268.22 402.83z" /></clipPath><clipPath id="107"><path d="M325.01 430.44L471.29 430.44L471.29 430.44L471.29 402.84L471.29 402.84L325.01 402.84z" /></clipPath><clipPath id="108"><path d="M325.01 430.43L471.29 430.43L471.29 430.43L471.29 402.83L471.29 402.83L325.01 402.83z" /></clipPath><clipPath id="109"><path d="M325.01 430.43L471.29 430.43L471.29 430.43L471.29 402.83L471.29 402.83L325.01 402.83z" /></clipPath><clipPath id="110"><path d="M471.8 430.44L725.86 430.44L725.86 430.44L725.86 402.84L725.86 402.84L471.8 402.84z" /></clipPath><clipPath id="111"><path d="M471.79 430.43L725.85 430.43L725.85 430.43L725.85 402.83L725.85 402.83L471.79 402.83z" /></clipPath><clipPath id="112"><path d="M471.79 430.43L725.85 430.43L725.85 430.43L725.85 402.83L725.85 402.83L471.79 402.83z" /></clipPath><clipPath id="113"><path d="M84.721 458.64L192.031 458.64L192.031 458.64L192.031 431.04L192.031 431.04L84.721 431.04z" /></clipPath><clipPath id="114"><path d="M84.72 458.63L192.02 458.63L192.02 458.63L192.02 431.03L192.02 431.03L84.72 431.03z" /></clipPath><clipPath id="115"><path d="M84.72 458.63L192.02 458.63L192.02 458.63L192.02 431.03L192.02 431.03L84.72 431.03z" /></clipPath><clipPath id="116"><path d="M192.51 458.64L267.75 458.64L267.75 458.64L267.75 431.04L267.75 431.04L192.51 431.04z" /></clipPath><clipPath id="117"><path d="M192.5 458.63L267.74 458.63L267.74 458.63L267.74 431.03L267.74 431.03L192.5 431.03z" /></clipPath><clipPath id="118"><path d="M192.5 458.63L267.74 458.63L267.74 458.63L267.74 431.03L267.74 431.03L192.5 431.03z" /></clipPath><clipPath id="119"><path d="M268.23 458.64L324.405 458.64L324.405 458.64L324.405 431.04L324.405 431.04L268.23 431.04z" /></clipPath><clipPath id="120"><path d="M268.22 458.63L324.404 458.63L324.404 458.63L324.404 431.03L324.404 431.03L268.22 431.03z" /></clipPath><clipPath id="121"><path d="M268.22 458.63L324.404 458.63L324.404 458.63L324.404 431.03L324.404 431.03L268.22 431.03z" /></clipPath><clipPath id="122"><path d="M325.01 458.64L471.29 458.64L471.29 458.64L471.29 431.04L471.29 431.04L325.01 431.04z" /></clipPath><clipPath id="123"><path d="M325.01 458.63L471.29 458.63L471.29 458.63L471.29 431.03L471.29 431.03L325.01 431.03z" /></clipPath><clipPath id="124"><path d="M471.8 458.64L725.86 458.64L725.86 458.64L725.86 431.04L725.86 431.04L471.8 431.04z" /></clipPath><clipPath id="125"><path d="M471.79 458.63L725.85 458.63L725.85 458.63L725.85 431.03L725.85 431.03L471.79 431.03z" /></clipPath><clipPath id="126"><path d="M471.79 458.63L725.85 458.63L725.85 458.63L725.85 431.03L725.85 431.03L471.79 431.03z" /></clipPath><clipPath id="127"><path d="M84.721 486.85L192.031 486.85L192.031 486.85L192.031 459.115L192.031 459.115L84.721 459.115z" /></clipPath><clipPath id="128"><path d="M84.72 486.86L192.02 486.86L192.02 486.86L192.02 459.116L192.02 459.116L84.72 459.116z" /></clipPath><clipPath id="129"><path d="M84.72 486.86L192.02 486.86L192.02 486.86L192.02 459.116L192.02 459.116L84.72 459.116z" /></clipPath><clipPath id="130"><path d="M84.72 486.86L192.02 486.86L192.02 486.86L192.02 459.116L192.02 459.116L84.72 459.116z" /></clipPath><clipPath id="131"><path d="M192.51 486.85L267.75 486.85L267.75 486.85L267.75 459.115L267.75 459.115L192.51 459.115z" /></clipPath><clipPath id="132"><path d="M192.5 486.86L267.74 486.86L267.74 486.86L267.74 459.116L267.74 459.116L192.5 459.116z" /></clipPath><clipPath id="133"><path d="M192.5 486.86L267.74 486.86L267.74 486.86L267.74 459.116L267.74 459.116L192.5 459.116z" /></clipPath><clipPath id="134"><path d="M268.23 486.85L324.405 486.85L324.405 486.85L324.405 459.115L324.405 459.115L268.23 459.115z" /></clipPath><clipPath id="135"><path d="M268.22 486.86L324.404 486.86L324.404 486.86L324.404 459.116L324.404 459.116L268.22 459.116z" /></clipPath><clipPath id="136"><path d="M268.22 486.86L324.404 486.86L324.404 486.86L324.404 459.116L324.404 459.116L268.22 459.116z" /></clipPath><clipPath id="137"><path d="M325.01 486.85L471.29 486.85L471.29 486.85L471.29 459.115L471.29 459.115L325.01 459.115z" /></clipPath><clipPath id="138"><path d="M325.01 486.86L471.29 486.86L471.29 486.86L471.29 459.116L471.29 459.116L325.01 459.116z" /></clipPath><clipPath id="139"><path d="M471.8 486.85L725.86 486.85L725.86 486.85L725.86 459.115L725.86 459.115L471.8 459.115z" /></clipPath><clipPath id="140"><path d="M471.79 486.86L725.85 486.86L725.85 486.86L725.85 459.116L725.85 459.116L471.79 459.116z" /></clipPath><clipPath id="141"><path d="M471.79 486.86L725.85 486.86L725.85 486.86L725.85 459.116L725.85 459.116L471.79 459.116z" /></clipPath></defs><g transform="matrix(1.333333 0 0 1.333333 0 0)"><g><g clip-path="url(#1)"><path transform="matrix(1 0 0 -1 0 595)" d="M704.14 53.304L752.14 53.304L752.14 53.304L752.14 53.90398L752.14 53.90398L704.14 53.90398z" stroke="none" fill="#000000" fill-rule="evenodd" /><g clip-path="url(#2)"><path transform="matrix(1 0 0 -1 0 595)" d="M88.44 77.904L753.58 77.904L753.58 77.904L753.58 80.904L753.58 80.904L88.44 80.904z" stroke="none" fill="#000000" fill-rule="evenodd" /><path transform="matrix(1 0 0 -1 0 595)" d="M88.44 76.464L753.58 76.464L753.58 76.464L753.58 77.18403L753.58 77.18403L88.44 77.18403z" stroke="none" fill="#000000" fill-rule="evenodd" /></g><g clip-path="url(#3)"><g clip-path="url(#4)"></g><g clip-path="url(#5)"></g></g><path transform="matrix(1 0 0 -1 0 595)" d="M84.72 467.62L192.02 467.62L192.02 467.62L192.02 504.94L192.02 504.94L84.72 504.94z" stroke="none" fill="#0070C0" fill-rule="evenodd" /><g clip-path="url(#6)"><path transform="matrix(1 0 0 -1 0 595)" d="M89.88 477.34L186.864 477.34L186.864 477.34L186.864 504.94L186.864 504.94L89.88 504.94z" stroke="none" fill="#0070C0" fill-rule="evenodd" /><g clip-path="url(#7)"></g><g clip-path="url(#8)"></g></g><path transform="matrix(1 0 0 -1 0 595)" d="M192.5 467.62L267.74 467.62L267.74 467.62L267.74 504.94L267.74 504.94L192.5 504.94z" stroke="none" fill="#0070C0" fill-rule="evenodd" /><g clip-path="url(#9)"><path transform="matrix(1 0 0 -1 0 595)" d="M197.66 477.34L262.58 477.34L262.58 477.34L262.58 504.94L262.58 504.94L197.66 504.94z" stroke="none" fill="#0070C0" fill-rule="evenodd" /><g clip-path="url(#10)"></g><g clip-path="url(#11)"></g></g><path transform="matrix(1 0 0 -1 0 595)" d="M268.22 467.62L324.404 467.62L324.404 467.62L324.404 504.94L324.404 504.94L268.22 504.94z" stroke="none" fill="#0070C0" fill-rule="evenodd" /><g clip-path="url(#12)"><path transform="matrix(1 0 0 -1 0 595)" d="M273.38 477.34L319.244 477.34L319.244 477.34L319.244 504.94L319.244 504.94L273.38 504.94z" stroke="none" fill="#0070C0" fill-rule="evenodd" /><g clip-path="url(#13)"></g><g clip-path="url(#14)"></g></g><path transform="matrix(1 0 0 -1 0 595)" d="M325.01 467.62L471.29 467.62L471.29 467.62L471.29 504.94L471.29 504.94L325.01 504.94z" stroke="none" fill="#0070C0" fill-rule="evenodd" /><g clip-path="url(#15)"><path transform="matrix(1 0 0 -1 0 595)" d="M330.05 477.34L466.13 477.34L466.13 477.34L466.13 504.94L466.13 504.94L330.05 504.94z" stroke="none" fill="#0070C0" fill-rule="evenodd" /><g clip-path="url(#16)"></g><g clip-path="url(#17)"></g></g><path transform="matrix(1 0 0 -1 0 595)" d="M471.79 467.62L725.85 467.62L725.85 467.62L725.85 504.94L725.85 504.94L471.79 504.94z" stroke="none" fill="#0070C0" fill-rule="evenodd" /><g clip-path="url(#18)"><path transform="matrix(1 0 0 -1 0 595)" d="M476.95 477.34L720.69 477.34L720.69 477.34L720.69 504.94L720.69 504.94L476.95 504.94z" stroke="none" fill="#0070C0" fill-rule="evenodd" /><g clip-path="url(#19)"></g><g clip-path="url(#20)"></g></g><path transform="matrix(1 0 0 -1 0 595)" d="M84.24 504.94L84.72 504.94L84.72 504.94L84.72 505.42L84.72 505.42L84.24 505.42z" stroke="none" fill="#000000" fill-rule="evenodd" /><path transform="matrix(1 0 0 -1 0 595)" d="M84.24 504.94L84.72 504.94L84.72 504.94L84.72 505.42L84.72 505.42L84.24 505.42z" stroke="none" fill="#000000" fill-rule="evenodd" /><path transform="matrix(1 0 0 -1 0 595)" d="M84.72 504.94L192.02 504.94L192.02 504.94L192.02 505.42L192.02 505.42L84.72 505.42z" stroke="none" fill="#000000" fill-rule="evenodd" /><path transform="matrix(1 0 0 -1 0 595)" d="M192.02 504.94L192.5 504.94L192.5 504.94L192.5 505.42L192.5 505.42L192.02 505.42z" stroke="none" fill="#000000" fill-rule="evenodd" /><path transform="matrix(1 0 0 -1 0 595)" d="M192.5 504.94L267.74 504.94L267.74 504.94L267.74 505.42L267.74 505.42L192.5 505.42z" stroke="none" fill="#000000" fill-rule="evenodd" /><path transform="matrix(1 0 0 -1 0 595)" d="M267.74 504.94L268.22 504.94L268.22 504.94L268.22 505.42L268.22 505.42L267.74 505.42z" stroke="none" fill="#000000" fill-rule="evenodd" /><path transform="matrix(1 0 0 -1 0 595)" d="M268.22 504.94L324.524 504.94L324.524 504.94L324.524 505.42L324.524 505.42L268.22 505.42z" stroke="none" fill="#000000" fill-rule="evenodd" /><path transform="matrix(1 0 0 -1 0 595)" d="M324.53 504.94L325.01 504.94L325.01 504.94L325.01 505.42L325.01 505.42L324.53 505.42z" stroke="none" fill="#000000" fill-rule="evenodd" /><path transform="matrix(1 0 0 -1 0 595)" d="M325.01 504.94L471.29 504.94L471.29 504.94L471.29 505.42L471.29 505.42L325.01 505.42z" stroke="none" fill="#000000" fill-rule="evenodd" /><path transform="matrix(1 0 0 -1 0 595)" d="M471.29 504.94L471.794 504.94L471.794 504.94L471.794 505.42L471.794 505.42L471.29 505.42z" stroke="none" fill="#000000" fill-rule="evenodd" /><path transform="matrix(1 0 0 -1 0 595)" d="M471.79 504.94L725.85 504.94L725.85 504.94L725.85 505.42L725.85 505.42L471.79 505.42z" stroke="none" fill="#000000" fill-rule="evenodd" /><path transform="matrix(1 0 0 -1 0 595)" d="M725.86 504.94L726.34 504.94L726.34 504.94L726.34 505.42L726.34 505.42L725.86 505.42z" stroke="none" fill="#000000" fill-rule="evenodd" /><path transform="matrix(1 0 0 -1 0 595)" d="M725.86 504.94L726.34 504.94L726.34 504.94L726.34 505.42L726.34 505.42L725.86 505.42z" stroke="none" fill="#000000" fill-rule="evenodd" /><path transform="matrix(1 0 0 -1 0 595)" d="M84.24 467.62L84.72 467.62L84.72 467.62L84.72 504.94L84.72 504.94L84.24 504.94z" stroke="none" fill="#000000" fill-rule="evenodd" /><path transform="matrix(1 0 0 -1 0 595)" d="M192.02 467.62L192.5 467.62L192.5 467.62L192.5 504.94L192.5 504.94L192.02 504.94z" stroke="none" fill="#000000" fill-rule="evenodd" /><path transform="matrix(1 0 0 -1 0 595)" d="M267.74 467.62L268.22 467.62L268.22 467.62L268.22 504.94L268.22 504.94L267.74 504.94z" stroke="none" fill="#000000" fill-rule="evenodd" /><path transform="matrix(1 0 0 -1 0 595)" d="M324.53 467.62L325.01 467.62L325.01 467.62L325.01 504.94L325.01 504.94L324.53 504.94z" stroke="none" fill="#000000" fill-rule="evenodd" /><path transform="matrix(1 0 0 -1 0 595)" d="M471.29 467.62L471.794 467.62L471.794 467.62L471.794 504.94L471.794 504.94L471.29 504.94z" stroke="none" fill="#000000" fill-rule="evenodd" /><path transform="matrix(1 0 0 -1 0 595)" d="M725.86 467.62L726.34 467.62L726.34 467.62L726.34 504.94L726.34 504.94L725.86 504.94z" stroke="none" fill="#000000" fill-rule="evenodd" /><g clip-path="url(#21)"><g clip-path="url(#22)"></g><g clip-path="url(#23)"><path transform="matrix(1 0 0 -1 0 595)" d="M503.95 438.94L549.31 438.94L549.31 438.94L549.31 466.54L549.31 466.54L503.95 466.54z" stroke="none" fill="#DAEEF3" fill-rule="evenodd" /><g clip-path="url(#24)"><path transform="matrix(1 0 0 -1 0 595)" d="M509.11 440.02L544.15 440.02L544.15 440.02L544.15 466.54L544.15 466.54L509.11 466.54z" stroke="none" fill="#DAEEF3" fill-rule="evenodd" /><g clip-path="url(#25)"></g><g clip-path="url(#26)"></g></g><path transform="matrix(1 0 0 -1 0 595)" d="M549.79 438.94L691.05 438.94L691.05 438.94L691.05 466.54L691.05 466.54L549.79 466.54z" stroke="none" fill="#DAEEF3" fill-rule="evenodd" /><g clip-path="url(#27)"><path transform="matrix(1 0 0 -1 0 595)" d="M554.95 438.94L685.89 438.94L685.89 438.94L685.89 466.54L685.89 466.54L554.95 466.54z" stroke="none" fill="#DAEEF3" fill-rule="evenodd" /><g clip-path="url(#28)"></g><g clip-path="url(#29)"></g></g><path transform="matrix(1 0 0 -1 0 595)" d="M503.47 466.66L503.95 466.66L503.95 466.66L503.95 467.14L503.95 467.14L503.47 467.14z" stroke="none" fill="#000000" fill-rule="evenodd" /><path transform="matrix(1 0 0 -1 0 595)" d="M503.47 466.66L503.95 466.66L503.95 466.66L503.95 467.14L503.95 467.14L503.47 467.14z" stroke="none" fill="#000000" fill-rule="evenodd" /><path transform="matrix(1 0 0 -1 0 595)" d="M503.95 466.66L549.31 466.66L549.31 466.66L549.31 467.14L549.31 467.14L503.95 467.14z" stroke="none" fill="#000000" fill-rule="evenodd" /><path transform="matrix(1 0 0 -1 0 595)" d="M549.31 466.66L549.79 466.66L549.79 466.66L549.79 467.14L549.79 467.14L549.31 467.14z" stroke="none" fill="#000000" fill-rule="evenodd" /><path transform="matrix(1 0 0 -1 0 595)" d="M549.79 466.66L691.17 466.66L691.17 466.66L691.17 467.14L691.17 467.14L549.79 467.14z" stroke="none" fill="#000000" fill-rule="evenodd" /><path transform="matrix(1 0 0 -1 0 595)" d="M691.18 466.66L691.66 466.66L691.66 466.66L691.66 467.14L691.66 467.14L691.18 467.14z" stroke="none" fill="#000000" fill-rule="evenodd" /><path transform="matrix(1 0 0 -1 0 595)" d="M691.18 466.66L691.66 466.66L691.66 466.66L691.66 467.14L691.66 467.14L691.18 467.14z" stroke="none" fill="#000000" fill-rule="evenodd" /><path transform="matrix(1 0 0 -1 0 595)" d="M503.47 438.94L503.95 438.94L503.95 438.94L503.95 466.66L503.95 466.66L503.47 466.66z" stroke="none" fill="#000000" fill-rule="evenodd" /><path transform="matrix(1 0 0 -1 0 595)" d="M549.31 438.94L549.79 438.94L549.79 438.94L549.79 466.66L549.79 466.66L549.31 466.66z" stroke="none" fill="#000000" fill-rule="evenodd" /><path transform="matrix(1 0 0 -1 0 595)" d="M691.18 438.94L691.66 438.94L691.66 438.94L691.66 466.66L691.66 466.66L691.18 466.66z" stroke="none" fill="#000000" fill-rule="evenodd" /><g clip-path="url(#30)"><g clip-path="url(#31)"></g><g clip-path="url(#32)"></g></g><g clip-path="url(#33)"><g clip-path="url(#34)"></g><g clip-path="url(#35)"></g></g><path transform="matrix(1 0 0 -1 0 595)" d="M503.47 438.46L503.95 438.46L503.95 438.46L503.95 438.94L503.95 438.94L503.47 438.94z" stroke="none" fill="#000000" fill-rule="evenodd" /><path transform="matrix(1 0 0 -1 0 595)" d="M503.95 438.46L549.31 438.46L549.31 438.46L549.31 438.94L549.31 438.94L503.95 438.94z" stroke="none" fill="#000000" fill-rule="evenodd" /><path transform="matrix(1 0 0 -1 0 595)" d="M549.31 438.46L549.79 438.46L549.79 438.46L549.79 438.94L549.79 438.94L549.31 438.94z" stroke="none" fill="#000000" fill-rule="evenodd" /><path transform="matrix(1 0 0 -1 0 595)" d="M549.79 438.46L691.17 438.46L691.17 438.46L691.17 438.94L691.17 438.94L549.79 438.94z" stroke="none" fill="#000000" fill-rule="evenodd" /><path transform="matrix(1 0 0 -1 0 595)" d="M691.18 438.46L691.66 438.46L691.66 438.46L691.66 438.94L691.66 438.94L691.18 438.94z" stroke="none" fill="#000000" fill-rule="evenodd" /><path transform="matrix(1 0 0 -1 0 595)" d="M503.47 410.74L503.95 410.74L503.95 410.74L503.95 438.46L503.95 438.46L503.47 438.46z" stroke="none" fill="#000000" fill-rule="evenodd" /><path transform="matrix(1 0 0 -1 0 595)" d="M549.31 410.74L549.79 410.74L549.79 410.74L549.79 438.46L549.79 438.46L549.31 438.46z" stroke="none" fill="#000000" fill-rule="evenodd" /><path transform="matrix(1 0 0 -1 0 595)" d="M691.18 410.74L691.66 410.74L691.66 410.74L691.66 438.46L691.66 438.46L691.18 438.46z" stroke="none" fill="#000000" fill-rule="evenodd" /><path transform="matrix(1 0 0 -1 0 595)" d="M503.95 382.63L549.31 382.63L549.31 382.63L549.31 410.254L549.31 410.254L503.95 410.254z" stroke="none" fill="#DAEEF3" fill-rule="evenodd" /><g clip-path="url(#36)"><path transform="matrix(1 0 0 -1 0 595)" d="M509.11 383.71L544.15 383.71L544.15 383.71L544.15 410.254L544.15 410.254L509.11 410.254z" stroke="none" fill="#DAEEF3" fill-rule="evenodd" /><g clip-path="url(#37)"></g><g clip-path="url(#38)"></g></g><path transform="matrix(1 0 0 -1 0 595)" d="M549.79 382.63L691.05 382.63L691.05 382.63L691.05 410.254L691.05 410.254L549.79 410.254z" stroke="none" fill="#DAEEF3" fill-rule="evenodd" /><g clip-path="url(#39)"><path transform="matrix(1 0 0 -1 0 595)" d="M554.95 382.63L685.89 382.63L685.89 382.63L685.89 410.254L685.89 410.254L554.95 410.254z" stroke="none" fill="#DAEEF3" fill-rule="evenodd" /><g clip-path="url(#40)"></g><g clip-path="url(#41)"></g></g><path transform="matrix(1 0 0 -1 0 595)" d="M503.47 410.26L503.95 410.26L503.95 410.26L503.95 410.74L503.95 410.74L503.47 410.74z" stroke="none" fill="#000000" fill-rule="evenodd" /><path transform="matrix(1 0 0 -1 0 595)" d="M503.95 410.26L549.31 410.26L549.31 410.26L549.31 410.74L549.31 410.74L503.95 410.74z" stroke="none" fill="#000000" fill-rule="evenodd" /><path transform="matrix(1 0 0 -1 0 595)" d="M549.31 410.26L549.79 410.26L549.79 410.26L549.79 410.74L549.79 410.74L549.31 410.74z" stroke="none" fill="#000000" fill-rule="evenodd" /><path transform="matrix(1 0 0 -1 0 595)" d="M549.79 410.26L691.17 410.26L691.17 410.26L691.17 410.74L691.17 410.74L549.79 410.74z" stroke="none" fill="#000000" fill-rule="evenodd" /><path transform="matrix(1 0 0 -1 0 595)" d="M691.18 410.26L691.66 410.26L691.66 410.26L691.66 410.74L691.66 410.74L691.18 410.74z" stroke="none" fill="#000000" fill-rule="evenodd" /><path transform="matrix(1 0 0 -1 0 595)" d="M503.47 382.63L503.95 382.63L503.95 382.63L503.95 410.254L503.95 410.254L503.47 410.254z" stroke="none" fill="#000000" fill-rule="evenodd" /><path transform="matrix(1 0 0 -1 0 595)" d="M549.31 382.63L549.79 382.63L549.79 382.63L549.79 410.254L549.79 410.254L549.31 410.254z" stroke="none" fill="#000000" fill-rule="evenodd" /><path transform="matrix(1 0 0 -1 0 595)" d="M691.18 382.63L691.66 382.63L691.66 382.63L691.66 410.254L691.66 410.254L691.18 410.254z" stroke="none" fill="#000000" fill-rule="evenodd" /><g clip-path="url(#42)"><g clip-path="url(#43)"></g><g clip-path="url(#44)"></g></g><g clip-path="url(#45)"><g clip-path="url(#46)"></g><g clip-path="url(#47)"></g></g><path transform="matrix(1 0 0 -1 0 595)" d="M503.47 382.15L503.95 382.15L503.95 382.15L503.95 382.63L503.95 382.63L503.47 382.63z" stroke="none" fill="#000000" fill-rule="evenodd" /><path transform="matrix(1 0 0 -1 0 595)" d="M503.95 382.15L549.31 382.15L549.31 382.15L549.31 382.63L549.31 382.63L503.95 382.63z" stroke="none" fill="#000000" fill-rule="evenodd" /><path transform="matrix(1 0 0 -1 0 595)" d="M549.31 382.15L549.79 382.15L549.79 382.15L549.79 382.63L549.79 382.63L549.31 382.63z" stroke="none" fill="#000000" fill-rule="evenodd" /><path transform="matrix(1 0 0 -1 0 595)" d="M549.79 382.15L691.17 382.15L691.17 382.15L691.17 382.63L691.17 382.63L549.79 382.63z" stroke="none" fill="#000000" fill-rule="evenodd" /><path transform="matrix(1 0 0 -1 0 595)" d="M691.18 382.15L691.66 382.15L691.66 382.15L691.66 382.63L691.66 382.63L691.18 382.63z" stroke="none" fill="#000000" fill-rule="evenodd" /><path transform="matrix(1 0 0 -1 0 595)" d="M503.47 354.43L503.95 354.43L503.95 354.43L503.95 382.15L503.95 382.15L503.47 382.15z" stroke="none" fill="#000000" fill-rule="evenodd" /><path transform="matrix(1 0 0 -1 0 595)" d="M503.47 353.95L503.95 353.95L503.95 353.95L503.95 354.43L503.95 354.43L503.47 354.43z" stroke="none" fill="#000000" fill-rule="evenodd" /><path transform="matrix(1 0 0 -1 0 595)" d="M503.47 353.95L503.95 353.95L503.95 353.95L503.95 354.43L503.95 354.43L503.47 354.43z" stroke="none" fill="#000000" fill-rule="evenodd" /><path transform="matrix(1 0 0 -1 0 595)" d="M503.95 353.95L549.31 353.95L549.31 353.95L549.31 354.43L549.31 354.43L503.95 354.43z" stroke="none" fill="#000000" fill-rule="evenodd" /><path transform="matrix(1 0 0 -1 0 595)" d="M549.31 354.43L549.79 354.43L549.79 354.43L549.79 382.15L549.79 382.15L549.31 382.15z" stroke="none" fill="#000000" fill-rule="evenodd" /><path transform="matrix(1 0 0 -1 0 595)" d="M549.31 353.95L549.79 353.95L549.79 353.95L549.79 354.43L549.79 354.43L549.31 354.43z" stroke="none" fill="#000000" fill-rule="evenodd" /><path transform="matrix(1 0 0 -1 0 595)" d="M549.79 353.95L691.17 353.95L691.17 353.95L691.17 354.43L691.17 354.43L549.79 354.43z" stroke="none" fill="#000000" fill-rule="evenodd" /><path transform="matrix(1 0 0 -1 0 595)" d="M691.18 354.43L691.66 354.43L691.66 354.43L691.66 382.15L691.66 382.15L691.18 382.15z" stroke="none" fill="#000000" fill-rule="evenodd" /><path transform="matrix(1 0 0 -1 0 595)" d="M691.18 353.95L691.66 353.95L691.66 353.95L691.66 354.43L691.66 354.43L691.18 354.43z" stroke="none" fill="#000000" fill-rule="evenodd" /><path transform="matrix(1 0 0 -1 0 595)" d="M691.18 353.95L691.66 353.95L691.66 353.95L691.66 354.43L691.66 354.43L691.18 354.43z" stroke="none" fill="#000000" fill-rule="evenodd" /></g></g><path transform="matrix(1 0 0 -1 0 595)" d="M84.24 467.14L84.72 467.14L84.72 467.14L84.72 467.62L84.72 467.62L84.24 467.62z" stroke="none" fill="#000000" fill-rule="evenodd" /><path transform="matrix(1 0 0 -1 0 595)" d="M84.72 467.14L192.02 467.14L192.02 467.14L192.02 467.62L192.02 467.62L84.72 467.62z" stroke="none" fill="#000000" fill-rule="evenodd" /><path transform="matrix(1 0 0 -1 0 595)" d="M192.02 467.14L192.5 467.14L192.5 467.14L192.5 467.62L192.5 467.62L192.02 467.62z" stroke="none" fill="#000000" fill-rule="evenodd" /><path transform="matrix(1 0 0 -1 0 595)" d="M192.5 467.14L267.74 467.14L267.74 467.14L267.74 467.62L267.74 467.62L192.5 467.62z" stroke="none" fill="#000000" fill-rule="evenodd" /><path transform="matrix(1 0 0 -1 0 595)" d="M267.74 467.14L268.22 467.14L268.22 467.14L268.22 467.62L268.22 467.62L267.74 467.62z" stroke="none" fill="#000000" fill-rule="evenodd" /><path transform="matrix(1 0 0 -1 0 595)" d="M268.22 467.14L324.524 467.14L324.524 467.14L324.524 467.62L324.524 467.62L268.22 467.62z" stroke="none" fill="#000000" fill-rule="evenodd" /><path transform="matrix(1 0 0 -1 0 595)" d="M324.53 467.14L325.01 467.14L325.01 467.14L325.01 467.62L325.01 467.62L324.53 467.62z" stroke="none" fill="#000000" fill-rule="evenodd" /><path transform="matrix(1 0 0 -1 0 595)" d="M325.01 467.14L471.29 467.14L471.29 467.14L471.29 467.62L471.29 467.62L325.01 467.62z" stroke="none" fill="#000000" fill-rule="evenodd" /><path transform="matrix(1 0 0 -1 0 595)" d="M471.29 467.14L471.794 467.14L471.794 467.14L471.794 467.62L471.794 467.62L471.29 467.62z" stroke="none" fill="#000000" fill-rule="evenodd" /><path transform="matrix(1 0 0 -1 0 595)" d="M471.79 467.14L725.85 467.14L725.85 467.14L725.85 467.62L725.85 467.62L471.79 467.62z" stroke="none" fill="#000000" fill-rule="evenodd" /><path transform="matrix(1 0 0 -1 0 595)" d="M725.86 467.14L726.34 467.14L726.34 467.14L726.34 467.62L726.34 467.62L725.86 467.62z" stroke="none" fill="#000000" fill-rule="evenodd" /><path transform="matrix(1 0 0 -1 0 595)" d="M84.24 353.95L84.72 353.95L84.72 353.95L84.72 467.13L84.72 467.13L84.24 467.13z" stroke="none" fill="#000000" fill-rule="evenodd" /><path transform="matrix(1 0 0 -1 0 595)" d="M192.02 353.95L192.5 353.95L192.5 353.95L192.5 467.13L192.5 467.13L192.02 467.13z" stroke="none" fill="#000000" fill-rule="evenodd" /><path transform="matrix(1 0 0 -1 0 595)" d="M267.74 353.95L268.22 353.95L268.22 353.95L268.22 467.13L268.22 467.13L267.74 467.13z" stroke="none" fill="#000000" fill-rule="evenodd" /><path transform="matrix(1 0 0 -1 0 595)" d="M324.53 353.95L325.01 353.95L325.01 353.95L325.01 467.13L325.01 467.13L324.53 467.13z" stroke="none" fill="#000000" fill-rule="evenodd" /><path transform="matrix(1 0 0 -1 0 595)" d="M471.29 353.95L471.794 353.95L471.794 353.95L471.794 467.13L471.794 467.13L471.29 467.13z" stroke="none" fill="#000000" fill-rule="evenodd" /><path transform="matrix(1 0 0 -1 0 595)" d="M725.86 353.95L726.34 353.95L726.34 353.95L726.34 467.13L726.34 467.13L725.86 467.13z" stroke="none" fill="#000000" fill-rule="evenodd" /><path transform="matrix(1 0 0 -1 0 595)" d="M84.72 220.85L192.02 220.85L192.02 220.85L192.02 353.47L192.02 353.47L84.72 353.47z" stroke="none" fill="#DAEEF3" fill-rule="evenodd" /><g clip-path="url(#48)"><path transform="matrix(1 0 0 -1 0 595)" d="M89.88 326.83L186.864 326.83L186.864 326.83L186.864 353.47L186.864 353.47L89.88 353.47z" stroke="none" fill="#DAEEF3" fill-rule="evenodd" /><g clip-path="url(#49)"></g><g clip-path="url(#50)"></g></g><path transform="matrix(1 0 0 -1 0 595)" d="M192.5 220.85L267.74 220.85L267.74 220.85L267.74 353.47L267.74 353.47L192.5 353.47z" stroke="none" fill="#DAEEF3" fill-rule="evenodd" /><g clip-path="url(#51)"><path transform="matrix(1 0 0 -1 0 595)" d="M197.66 326.83L262.58 326.83L262.58 326.83L262.58 353.47L262.58 353.47L197.66 353.47z" stroke="none" fill="#DAEEF3" fill-rule="evenodd" /><g clip-path="url(#52)"></g><g clip-path="url(#53)"></g></g><path transform="matrix(1 0 0 -1 0 595)" d="M268.22 220.85L324.404 220.85L324.404 220.85L324.404 353.47L324.404 353.47L268.22 353.47z" stroke="none" fill="#DAEEF3" fill-rule="evenodd" /><g clip-path="url(#54)"><path transform="matrix(1 0 0 -1 0 595)" d="M273.38 325.75L319.244 325.75L319.244 325.75L319.244 353.47L319.244 353.47L273.38 353.47z" stroke="none" fill="#DAEEF3" fill-rule="evenodd" /><g clip-path="url(#55)"></g><g clip-path="url(#56)"></g></g><path transform="matrix(1 0 0 -1 0 595)" d="M325.01 220.85L471.29 220.85L471.29 220.85L471.29 353.47L471.29 353.47L325.01 353.47z" stroke="none" fill="#DAEEF3" fill-rule="evenodd" /><g clip-path="url(#57)"><path transform="matrix(1 0 0 -1 0 595)" d="M330.05 326.83L466.13 326.83L466.13 326.83L466.13 353.47L466.13 353.47L330.05 353.47z" stroke="none" fill="#DAEEF3" fill-rule="evenodd" /><g clip-path="url(#58)"></g><g clip-path="url(#59)"></g></g><path transform="matrix(1 0 0 -1 0 595)" d="M471.79 220.85L725.85 220.85L725.85 220.85L725.85 353.47L725.85 353.47L471.79 353.47z" stroke="none" fill="#DAEEF3" fill-rule="evenodd" /><g clip-path="url(#60)"><path transform="matrix(1 0 0 -1 0 595)" d="M476.95 326.83L720.69 326.83L720.69 326.83L720.69 353.47L720.69 353.47L476.95 353.47z" stroke="none" fill="#DAEEF3" fill-rule="evenodd" /><g clip-path="url(#61)"></g><path transform="matrix(1 0 0 -1 0 595)" d="M476.95 289.03L506.95 289.03L506.95 289.03L506.95 326.83L506.95 326.83L476.95 326.83z" stroke="none" fill="#DAEEF3" fill-rule="evenodd" /><path transform="matrix(1 0 0 -1 0 595)" d="M690.7 289.03L720.7 289.03L720.7 289.03L720.7 326.83L720.7 326.83L690.7 326.83z" stroke="none" fill="#DAEEF3" fill-rule="evenodd" /><path transform="matrix(1 0 0 -1 0 595)" d="M507.43 289.03L552.67 289.03L552.67 289.03L552.67 326.35L552.67 326.35L507.43 326.35z" stroke="none" fill="#0070C0" fill-rule="evenodd" /><g clip-path="url(#62)"><path transform="matrix(1 0 0 -1 0 595)" d="M512.47 298.75L547.6299 298.75L547.6299 298.75L547.6299 326.35L547.6299 326.35L512.47 326.35z" stroke="none" fill="#0070C0" fill-rule="evenodd" /><g clip-path="url(#63)"></g><g clip-path="url(#64)"></g></g><path transform="matrix(1 0 0 -1 0 595)" d="M553.27 289.03L690.21 289.03L690.21 289.03L690.21 326.35L690.21 326.35L553.27 326.35z" stroke="none" fill="#0070C0" fill-rule="evenodd" /><g clip-path="url(#65)"><path transform="matrix(1 0 0 -1 0 595)" d="M558.43 298.75L685.05 298.75L685.05 298.75L685.05 326.35L685.05 326.35L558.43 326.35z" stroke="none" fill="#0070C0" fill-rule="evenodd" /><g clip-path="url(#66)"></g><g clip-path="url(#67)"></g></g><path transform="matrix(1 0 0 -1 0 595)" d="M506.95 326.35L507.43 326.35L507.43 326.35L507.43 326.83L507.43 326.83L506.95 326.83z" stroke="none" fill="#000000" fill-rule="evenodd" /><path transform="matrix(1 0 0 -1 0 595)" d="M506.95 326.35L507.43 326.35L507.43 326.35L507.43 326.83L507.43 326.83L506.95 326.83z" stroke="none" fill="#000000" fill-rule="evenodd" /><path transform="matrix(1 0 0 -1 0 595)" d="M507.43 326.35L552.79 326.35L552.79 326.35L552.79 326.83L552.79 326.83L507.43 326.83z" stroke="none" fill="#000000" fill-rule="evenodd" /><path transform="matrix(1 0 0 -1 0 595)" d="M552.79 326.35L553.27 326.35L553.27 326.35L553.27 326.83L553.27 326.83L552.79 326.83z" stroke="none" fill="#000000" fill-rule="evenodd" /><path transform="matrix(1 0 0 -1 0 595)" d="M553.27 326.35L690.21 326.35L690.21 326.35L690.21 326.83L690.21 326.83L553.27 326.83z" stroke="none" fill="#000000" fill-rule="evenodd" /><path transform="matrix(1 0 0 -1 0 595)" d="M690.22 326.35L690.7 326.35L690.7 326.35L690.7 326.83L690.7 326.83L690.22 326.83z" stroke="none" fill="#000000" fill-rule="evenodd" /><path transform="matrix(1 0 0 -1 0 595)" d="M690.22 326.35L690.7 326.35L690.7 326.35L690.7 326.83L690.7 326.83L690.22 326.83z" stroke="none" fill="#000000" fill-rule="evenodd" /><path transform="matrix(1 0 0 -1 0 595)" d="M506.95 289.03L507.43 289.03L507.43 289.03L507.43 326.35L507.43 326.35L506.95 326.35z" stroke="none" fill="#000000" fill-rule="evenodd" /><path transform="matrix(1 0 0 -1 0 595)" d="M552.79 289.03L553.27 289.03L553.27 289.03L553.27 326.35L553.27 326.35L552.79 326.35z" stroke="none" fill="#000000" fill-rule="evenodd" /><path transform="matrix(1 0 0 -1 0 595)" d="M690.22 289.03L690.7 289.03L690.7 289.03L690.7 326.35L690.7 326.35L690.22 326.35z" stroke="none" fill="#000000" fill-rule="evenodd" /><path transform="matrix(1 0 0 -1 0 595)" d="M476.95 261.91L506.95 261.91L506.95 261.91L506.95 289.03L506.95 289.03L476.95 289.03z" stroke="none" fill="#DAEEF3" fill-rule="evenodd" /><path transform="matrix(1 0 0 -1 0 595)" d="M690.7 261.91L720.7 261.91L720.7 261.91L720.7 289.03L720.7 289.03L690.7 289.03z" stroke="none" fill="#DAEEF3" fill-rule="evenodd" /><path transform="matrix(1 0 0 -1 0 595)" d="M507.43 261.91L552.67 261.91L552.67 261.91L552.67 288.55L552.67 288.55L507.43 288.55z" stroke="none" fill="#DAEEF3" fill-rule="evenodd" /><g clip-path="url(#68)"><path transform="matrix(1 0 0 -1 0 595)" d="M512.47 261.91L547.6299 261.91L547.6299 261.91L547.6299 288.55L547.6299 288.55L512.47 288.55z" stroke="none" fill="#DAEEF3" fill-rule="evenodd" /><g clip-path="url(#69)"></g><g clip-path="url(#70)"></g></g><path transform="matrix(1 0 0 -1 0 595)" d="M553.27 261.91L690.21 261.91L690.21 261.91L690.21 288.55L690.21 288.55L553.27 288.55z" stroke="none" fill="#DAEEF3" fill-rule="evenodd" /><g clip-path="url(#71)"><path transform="matrix(1 0 0 -1 0 595)" d="M558.43 261.91L685.05 261.91L685.05 261.91L685.05 288.55L685.05 288.55L558.43 288.55z" stroke="none" fill="#DAEEF3" fill-rule="evenodd" /><g clip-path="url(#72)"></g><g clip-path="url(#73)"></g></g><path transform="matrix(1 0 0 -1 0 595)" d="M506.95 288.55L507.43 288.55L507.43 288.55L507.43 289.03L507.43 289.03L506.95 289.03z" stroke="none" fill="#000000" fill-rule="evenodd" /><path transform="matrix(1 0 0 -1 0 595)" d="M507.43 288.55L552.79 288.55L552.79 288.55L552.79 289.03L552.79 289.03L507.43 289.03z" stroke="none" fill="#000000" fill-rule="evenodd" /><path transform="matrix(1 0 0 -1 0 595)" d="M552.79 288.55L553.27 288.55L553.27 288.55L553.27 289.03L553.27 289.03L552.79 289.03z" stroke="none" fill="#000000" fill-rule="evenodd" /><path transform="matrix(1 0 0 -1 0 595)" d="M553.27 288.55L690.21 288.55L690.21 288.55L690.21 289.03L690.21 289.03L553.27 289.03z" stroke="none" fill="#000000" fill-rule="evenodd" /><path transform="matrix(1 0 0 -1 0 595)" d="M690.22 288.55L690.7 288.55L690.7 288.55L690.7 289.03L690.7 289.03L690.22 289.03z" stroke="none" fill="#000000" fill-rule="evenodd" /><path transform="matrix(1 0 0 -1 0 595)" d="M506.95 261.91L507.43 261.91L507.43 261.91L507.43 288.55L507.43 288.55L506.95 288.55z" stroke="none" fill="#000000" fill-rule="evenodd" /><path transform="matrix(1 0 0 -1 0 595)" d="M552.79 261.91L553.27 261.91L553.27 261.91L553.27 288.55L553.27 288.55L552.79 288.55z" stroke="none" fill="#000000" fill-rule="evenodd" /><path transform="matrix(1 0 0 -1 0 595)" d="M690.22 261.91L690.7 261.91L690.7 261.91L690.7 288.55L690.7 288.55L690.22 288.55z" stroke="none" fill="#000000" fill-rule="evenodd" /><path transform="matrix(1 0 0 -1 0 595)" d="M476.95 234.29L506.95 234.29L506.95 234.29L506.95 261.914L506.95 261.914L476.95 261.914z" stroke="none" fill="#DAEEF3" fill-rule="evenodd" /><path transform="matrix(1 0 0 -1 0 595)" d="M690.7 234.29L720.7 234.29L720.7 234.29L720.7 261.914L720.7 261.914L690.7 261.914z" stroke="none" fill="#DAEEF3" fill-rule="evenodd" /><path transform="matrix(1 0 0 -1 0 595)" d="M507.43 234.77L552.67 234.77L552.67 234.77L552.67 261.434L552.67 261.434L507.43 261.434z" stroke="none" fill="#DAEEF3" fill-rule="evenodd" /><g clip-path="url(#74)"><path transform="matrix(1 0 0 -1 0 595)" d="M512.47 234.77L547.6299 234.77L547.6299 234.77L547.6299 261.434L547.6299 261.434L512.47 261.434z" stroke="none" fill="#DAEEF3" fill-rule="evenodd" /><g clip-path="url(#75)"></g><g clip-path="url(#76)"></g></g><path transform="matrix(1 0 0 -1 0 595)" d="M553.27 234.77L690.21 234.77L690.21 234.77L690.21 261.434L690.21 261.434L553.27 261.434z" stroke="none" fill="#DAEEF3" fill-rule="evenodd" /><g clip-path="url(#77)"><path transform="matrix(1 0 0 -1 0 595)" d="M558.43 234.77L685.05 234.77L685.05 234.77L685.05 261.434L685.05 261.434L558.43 261.434z" stroke="none" fill="#DAEEF3" fill-rule="evenodd" /><g clip-path="url(#78)"></g><g clip-path="url(#79)"></g></g><path transform="matrix(1 0 0 -1 0 595)" d="M506.95 261.43L507.43 261.43L507.43 261.43L507.43 261.91L507.43 261.91L506.95 261.91z" stroke="none" fill="#000000" fill-rule="evenodd" /><path transform="matrix(1 0 0 -1 0 595)" d="M507.43 261.43L552.79 261.43L552.79 261.43L552.79 261.91L552.79 261.91L507.43 261.91z" stroke="none" fill="#000000" fill-rule="evenodd" /><path transform="matrix(1 0 0 -1 0 595)" d="M552.79 261.43L553.27 261.43L553.27 261.43L553.27 261.91L553.27 261.91L552.79 261.91z" stroke="none" fill="#000000" fill-rule="evenodd" /><path transform="matrix(1 0 0 -1 0 595)" d="M553.27 261.43L690.21 261.43L690.21 261.43L690.21 261.91L690.21 261.91L553.27 261.91z" stroke="none" fill="#000000" fill-rule="evenodd" /><path transform="matrix(1 0 0 -1 0 595)" d="M690.22 261.43L690.7 261.43L690.7 261.43L690.7 261.91L690.7 261.91L690.22 261.91z" stroke="none" fill="#000000" fill-rule="evenodd" /><path transform="matrix(1 0 0 -1 0 595)" d="M506.95 234.77L507.43 234.77L507.43 234.77L507.43 261.434L507.43 261.434L506.95 261.434z" stroke="none" fill="#000000" fill-rule="evenodd" /><path transform="matrix(1 0 0 -1 0 595)" d="M506.95 234.29L507.43 234.29L507.43 234.29L507.43 234.77L507.43 234.77L506.95 234.77z" stroke="none" fill="#000000" fill-rule="evenodd" /><path transform="matrix(1 0 0 -1 0 595)" d="M506.95 234.29L507.43 234.29L507.43 234.29L507.43 234.77L507.43 234.77L506.95 234.77z" stroke="none" fill="#000000" fill-rule="evenodd" /><path transform="matrix(1 0 0 -1 0 595)" d="M507.43 234.29L552.79 234.29L552.79 234.29L552.79 234.77L552.79 234.77L507.43 234.77z" stroke="none" fill="#000000" fill-rule="evenodd" /><path transform="matrix(1 0 0 -1 0 595)" d="M552.79 234.77L553.27 234.77L553.27 234.77L553.27 261.434L553.27 261.434L552.79 261.434z" stroke="none" fill="#000000" fill-rule="evenodd" /><path transform="matrix(1 0 0 -1 0 595)" d="M552.79 234.29L553.27 234.29L553.27 234.29L553.27 234.77L553.27 234.77L552.79 234.77z" stroke="none" fill="#000000" fill-rule="evenodd" /><path transform="matrix(1 0 0 -1 0 595)" d="M553.27 234.29L690.21 234.29L690.21 234.29L690.21 234.77L690.21 234.77L553.27 234.77z" stroke="none" fill="#000000" fill-rule="evenodd" /><path transform="matrix(1 0 0 -1 0 595)" d="M690.22 234.77L690.7 234.77L690.7 234.77L690.7 261.434L690.7 261.434L690.22 261.434z" stroke="none" fill="#000000" fill-rule="evenodd" /><path transform="matrix(1 0 0 -1 0 595)" d="M690.22 234.29L690.7 234.29L690.7 234.29L690.7 234.77L690.7 234.77L690.22 234.77z" stroke="none" fill="#000000" fill-rule="evenodd" /><path transform="matrix(1 0 0 -1 0 595)" d="M690.22 234.29L690.7 234.29L690.7 234.29L690.7 234.77L690.7 234.77L690.22 234.77z" stroke="none" fill="#000000" fill-rule="evenodd" /><g clip-path="url(#80)"></g></g><path transform="matrix(1 0 0 -1 0 595)" d="M84.24 353.47L84.72 353.47L84.72 353.47L84.72 353.95L84.72 353.95L84.24 353.95z" stroke="none" fill="#000000" fill-rule="evenodd" /><path transform="matrix(1 0 0 -1 0 595)" d="M84.72 353.47L192.02 353.47L192.02 353.47L192.02 353.95L192.02 353.95L84.72 353.95z" stroke="none" fill="#000000" fill-rule="evenodd" /><path transform="matrix(1 0 0 -1 0 595)" d="M192.02 353.47L192.5 353.47L192.5 353.47L192.5 353.95L192.5 353.95L192.02 353.95z" stroke="none" fill="#000000" fill-rule="evenodd" /><path transform="matrix(1 0 0 -1 0 595)" d="M192.5 353.47L267.74 353.47L267.74 353.47L267.74 353.95L267.74 353.95L192.5 353.95z" stroke="none" fill="#000000" fill-rule="evenodd" /><path transform="matrix(1 0 0 -1 0 595)" d="M267.74 353.47L268.22 353.47L268.22 353.47L268.22 353.95L268.22 353.95L267.74 353.95z" stroke="none" fill="#000000" fill-rule="evenodd" /><path transform="matrix(1 0 0 -1 0 595)" d="M268.22 353.47L324.524 353.47L324.524 353.47L324.524 353.95L324.524 353.95L268.22 353.95z" stroke="none" fill="#000000" fill-rule="evenodd" /><path transform="matrix(1 0 0 -1 0 595)" d="M324.53 353.47L325.01 353.47L325.01 353.47L325.01 353.95L325.01 353.95L324.53 353.95z" stroke="none" fill="#000000" fill-rule="evenodd" /><path transform="matrix(1 0 0 -1 0 595)" d="M325.01 353.47L471.29 353.47L471.29 353.47L471.29 353.95L471.29 353.95L325.01 353.95z" stroke="none" fill="#000000" fill-rule="evenodd" /><path transform="matrix(1 0 0 -1 0 595)" d="M471.29 353.47L471.794 353.47L471.794 353.47L471.794 353.95L471.794 353.95L471.29 353.95z" stroke="none" fill="#000000" fill-rule="evenodd" /><path transform="matrix(1 0 0 -1 0 595)" d="M471.79 353.47L725.85 353.47L725.85 353.47L725.85 353.95L725.85 353.95L471.79 353.95z" stroke="none" fill="#000000" fill-rule="evenodd" /><path transform="matrix(1 0 0 -1 0 595)" d="M725.86 353.47L726.34 353.47L726.34 353.47L726.34 353.95L726.34 353.95L725.86 353.95z" stroke="none" fill="#000000" fill-rule="evenodd" /><path transform="matrix(1 0 0 -1 0 595)" d="M84.24 220.85L84.72 220.85L84.72 220.85L84.72 353.47L84.72 353.47L84.24 353.47z" stroke="none" fill="#000000" fill-rule="evenodd" /><path transform="matrix(1 0 0 -1 0 595)" d="M192.02 220.85L192.5 220.85L192.5 220.85L192.5 353.47L192.5 353.47L192.02 353.47z" stroke="none" fill="#000000" fill-rule="evenodd" /><path transform="matrix(1 0 0 -1 0 595)" d="M267.74 220.85L268.22 220.85L268.22 220.85L268.22 353.47L268.22 353.47L267.74 353.47z" stroke="none" fill="#000000" fill-rule="evenodd" /><path transform="matrix(1 0 0 -1 0 595)" d="M324.53 220.85L325.01 220.85L325.01 220.85L325.01 353.47L325.01 353.47L324.53 353.47z" stroke="none" fill="#000000" fill-rule="evenodd" /><path transform="matrix(1 0 0 -1 0 595)" d="M471.29 220.85L471.794 220.85L471.794 220.85L471.794 353.47L471.794 353.47L471.29 353.47z" stroke="none" fill="#000000" fill-rule="evenodd" /><path transform="matrix(1 0 0 -1 0 595)" d="M725.86 220.85L726.34 220.85L726.34 220.85L726.34 353.47L726.34 353.47L725.86 353.47z" stroke="none" fill="#000000" fill-rule="evenodd" /><g clip-path="url(#81)"><g clip-path="url(#82)"></g><g clip-path="url(#83)"></g></g><g clip-path="url(#84)"><g clip-path="url(#85)"></g><g clip-path="url(#86)"></g></g><g clip-path="url(#87)"><g clip-path="url(#88)"></g><g clip-path="url(#89)"></g></g><g clip-path="url(#90)"><g clip-path="url(#91)"></g><g clip-path="url(#92)"></g><g clip-path="url(#93)"></g><g clip-path="url(#94)"></g></g><g clip-path="url(#95)"><g clip-path="url(#96)"></g><g clip-path="url(#97)"></g></g><path transform="matrix(1 0 0 -1 0 595)" d="M84.24 220.37L84.72 220.37L84.72 220.37L84.72 220.85L84.72 220.85L84.24 220.85z" stroke="none" fill="#000000" fill-rule="evenodd" /><path transform="matrix(1 0 0 -1 0 595)" d="M84.72 220.37L192.02 220.37L192.02 220.37L192.02 220.85L192.02 220.85L84.72 220.85z" stroke="none" fill="#000000" fill-rule="evenodd" /><path transform="matrix(1 0 0 -1 0 595)" d="M192.02 220.37L192.5 220.37L192.5 220.37L192.5 220.85L192.5 220.85L192.02 220.85z" stroke="none" fill="#000000" fill-rule="evenodd" /><path transform="matrix(1 0 0 -1 0 595)" d="M192.5 220.37L267.74 220.37L267.74 220.37L267.74 220.85L267.74 220.85L192.5 220.85z" stroke="none" fill="#000000" fill-rule="evenodd" /><path transform="matrix(1 0 0 -1 0 595)" d="M267.74 220.37L268.22 220.37L268.22 220.37L268.22 220.85L268.22 220.85L267.74 220.85z" stroke="none" fill="#000000" fill-rule="evenodd" /><path transform="matrix(1 0 0 -1 0 595)" d="M268.22 220.37L324.524 220.37L324.524 220.37L324.524 220.85L324.524 220.85L268.22 220.85z" stroke="none" fill="#000000" fill-rule="evenodd" /><path transform="matrix(1 0 0 -1 0 595)" d="M324.53 220.37L325.01 220.37L325.01 220.37L325.01 220.85L325.01 220.85L324.53 220.85z" stroke="none" fill="#000000" fill-rule="evenodd" /><path transform="matrix(1 0 0 -1 0 595)" d="M325.01 220.37L471.29 220.37L471.29 220.37L471.29 220.85L471.29 220.85L325.01 220.85z" stroke="none" fill="#000000" fill-rule="evenodd" /><path transform="matrix(1 0 0 -1 0 595)" d="M471.29 220.37L471.794 220.37L471.794 220.37L471.794 220.85L471.794 220.85L471.29 220.85z" stroke="none" fill="#000000" fill-rule="evenodd" /><path transform="matrix(1 0 0 -1 0 595)" d="M471.79 220.37L725.85 220.37L725.85 220.37L725.85 220.85L725.85 220.85L471.79 220.85z" stroke="none" fill="#000000" fill-rule="evenodd" /><path transform="matrix(1 0 0 -1 0 595)" d="M725.86 220.37L726.34 220.37L726.34 220.37L726.34 220.85L726.34 220.85L725.86 220.85z" stroke="none" fill="#000000" fill-rule="evenodd" /><path transform="matrix(1 0 0 -1 0 595)" d="M84.24 192.65L84.72 192.65L84.72 192.65L84.72 220.37L84.72 220.37L84.24 220.37z" stroke="none" fill="#000000" fill-rule="evenodd" /><path transform="matrix(1 0 0 -1 0 595)" d="M192.02 192.65L192.5 192.65L192.5 192.65L192.5 220.37L192.5 220.37L192.02 220.37z" stroke="none" fill="#000000" fill-rule="evenodd" /><path transform="matrix(1 0 0 -1 0 595)" d="M267.74 192.65L268.22 192.65L268.22 192.65L268.22 220.37L268.22 220.37L267.74 220.37z" stroke="none" fill="#000000" fill-rule="evenodd" /><path transform="matrix(1 0 0 -1 0 595)" d="M324.53 192.65L325.01 192.65L325.01 192.65L325.01 220.37L325.01 220.37L324.53 220.37z" stroke="none" fill="#000000" fill-rule="evenodd" /><path transform="matrix(1 0 0 -1 0 595)" d="M471.29 192.65L471.794 192.65L471.794 192.65L471.794 220.37L471.794 220.37L471.29 220.37z" stroke="none" fill="#000000" fill-rule="evenodd" /><path transform="matrix(1 0 0 -1 0 595)" d="M725.86 192.65L726.34 192.65L726.34 192.65L726.34 220.37L726.34 220.37L725.86 220.37z" stroke="none" fill="#000000" fill-rule="evenodd" /><path transform="matrix(1 0 0 -1 0 595)" d="M84.72 164.57L192.02 164.57L192.02 164.57L192.02 192.17L192.02 192.17L84.72 192.17z" stroke="none" fill="#DAEEF3" fill-rule="evenodd" /><g clip-path="url(#98)"><path transform="matrix(1 0 0 -1 0 595)" d="M89.88 165.53L186.864 165.53L186.864 165.53L186.864 192.17L186.864 192.17L89.88 192.17z" stroke="none" fill="#DAEEF3" fill-rule="evenodd" /><g clip-path="url(#99)"></g><g clip-path="url(#100)"></g></g><path transform="matrix(1 0 0 -1 0 595)" d="M192.5 164.57L267.74 164.57L267.74 164.57L267.74 192.17L267.74 192.17L192.5 192.17z" stroke="none" fill="#DAEEF3" fill-rule="evenodd" /><g clip-path="url(#101)"><path transform="matrix(1 0 0 -1 0 595)" d="M197.66 165.53L262.58 165.53L262.58 165.53L262.58 192.17L262.58 192.17L197.66 192.17z" stroke="none" fill="#DAEEF3" fill-rule="evenodd" /><g clip-path="url(#102)"></g><g clip-path="url(#103)"></g></g><path transform="matrix(1 0 0 -1 0 595)" d="M268.22 164.57L324.404 164.57L324.404 164.57L324.404 192.17L324.404 192.17L268.22 192.17z" stroke="none" fill="#DAEEF3" fill-rule="evenodd" /><g clip-path="url(#104)"><path transform="matrix(1 0 0 -1 0 595)" d="M273.38 164.57L319.244 164.57L319.244 164.57L319.244 192.17L319.244 192.17L273.38 192.17z" stroke="none" fill="#DAEEF3" fill-rule="evenodd" /><g clip-path="url(#105)"></g><g clip-path="url(#106)"></g></g><path transform="matrix(1 0 0 -1 0 595)" d="M325.01 164.57L471.29 164.57L471.29 164.57L471.29 192.17L471.29 192.17L325.01 192.17z" stroke="none" fill="#DAEEF3" fill-rule="evenodd" /><g clip-path="url(#107)"><path transform="matrix(1 0 0 -1 0 595)" d="M330.05 165.53L466.13 165.53L466.13 165.53L466.13 192.17L466.13 192.17L330.05 192.17z" stroke="none" fill="#DAEEF3" fill-rule="evenodd" /><g clip-path="url(#108)"></g><g clip-path="url(#109)"></g></g><path transform="matrix(1 0 0 -1 0 595)" d="M471.79 164.57L725.85 164.57L725.85 164.57L725.85 192.17L725.85 192.17L471.79 192.17z" stroke="none" fill="#DAEEF3" fill-rule="evenodd" /><g clip-path="url(#110)"><path transform="matrix(1 0 0 -1 0 595)" d="M476.95 164.57L720.69 164.57L720.69 164.57L720.69 192.17L720.69 192.17L476.95 192.17z" stroke="none" fill="#DAEEF3" fill-rule="evenodd" /><g clip-path="url(#111)"></g><g clip-path="url(#112)"></g></g><path transform="matrix(1 0 0 -1 0 595)" d="M84.24 192.17L84.72 192.17L84.72 192.17L84.72 192.65L84.72 192.65L84.24 192.65z" stroke="none" fill="#000000" fill-rule="evenodd" /><path transform="matrix(1 0 0 -1 0 595)" d="M84.72 192.17L192.02 192.17L192.02 192.17L192.02 192.65L192.02 192.65L84.72 192.65z" stroke="none" fill="#000000" fill-rule="evenodd" /><path transform="matrix(1 0 0 -1 0 595)" d="M192.02 192.17L192.5 192.17L192.5 192.17L192.5 192.65L192.5 192.65L192.02 192.65z" stroke="none" fill="#000000" fill-rule="evenodd" /><path transform="matrix(1 0 0 -1 0 595)" d="M192.5 192.17L267.74 192.17L267.74 192.17L267.74 192.65L267.74 192.65L192.5 192.65z" stroke="none" fill="#000000" fill-rule="evenodd" /><path transform="matrix(1 0 0 -1 0 595)" d="M267.74 192.17L268.22 192.17L268.22 192.17L268.22 192.65L268.22 192.65L267.74 192.65z" stroke="none" fill="#000000" fill-rule="evenodd" /><path transform="matrix(1 0 0 -1 0 595)" d="M268.22 192.17L324.524 192.17L324.524 192.17L324.524 192.65L324.524 192.65L268.22 192.65z" stroke="none" fill="#000000" fill-rule="evenodd" /><path transform="matrix(1 0 0 -1 0 595)" d="M324.53 192.17L325.01 192.17L325.01 192.17L325.01 192.65L325.01 192.65L324.53 192.65z" stroke="none" fill="#000000" fill-rule="evenodd" /><path transform="matrix(1 0 0 -1 0 595)" d="M325.01 192.17L471.29 192.17L471.29 192.17L471.29 192.65L471.29 192.65L325.01 192.65z" stroke="none" fill="#000000" fill-rule="evenodd" /><path transform="matrix(1 0 0 -1 0 595)" d="M471.29 192.17L471.794 192.17L471.794 192.17L471.794 192.65L471.794 192.65L471.29 192.65z" stroke="none" fill="#000000" fill-rule="evenodd" /><path transform="matrix(1 0 0 -1 0 595)" d="M471.79 192.17L725.85 192.17L725.85 192.17L725.85 192.65L725.85 192.65L471.79 192.65z" stroke="none" fill="#000000" fill-rule="evenodd" /><path transform="matrix(1 0 0 -1 0 595)" d="M725.86 192.17L726.34 192.17L726.34 192.17L726.34 192.65L726.34 192.65L725.86 192.65z" stroke="none" fill="#000000" fill-rule="evenodd" /><path transform="matrix(1 0 0 -1 0 595)" d="M84.24 164.57L84.72 164.57L84.72 164.57L84.72 192.17L84.72 192.17L84.24 192.17z" stroke="none" fill="#000000" fill-rule="evenodd" /><path transform="matrix(1 0 0 -1 0 595)" d="M192.02 164.57L192.5 164.57L192.5 164.57L192.5 192.17L192.5 192.17L192.02 192.17z" stroke="none" fill="#000000" fill-rule="evenodd" /><path transform="matrix(1 0 0 -1 0 595)" d="M267.74 164.57L268.22 164.57L268.22 164.57L268.22 192.17L268.22 192.17L267.74 192.17z" stroke="none" fill="#000000" fill-rule="evenodd" /><path transform="matrix(1 0 0 -1 0 595)" d="M324.53 164.57L325.01 164.57L325.01 164.57L325.01 192.17L325.01 192.17L324.53 192.17z" stroke="none" fill="#000000" fill-rule="evenodd" /><path transform="matrix(1 0 0 -1 0 595)" d="M471.29 164.57L471.794 164.57L471.794 164.57L471.794 192.17L471.794 192.17L471.29 192.17z" stroke="none" fill="#000000" fill-rule="evenodd" /><path transform="matrix(1 0 0 -1 0 595)" d="M725.86 164.57L726.34 164.57L726.34 164.57L726.34 192.17L726.34 192.17L725.86 192.17z" stroke="none" fill="#000000" fill-rule="evenodd" /><g clip-path="url(#113)"><g clip-path="url(#114)"></g><g clip-path="url(#115)"></g></g><g clip-path="url(#116)"><g clip-path="url(#117)"></g><g clip-path="url(#118)"></g></g><g clip-path="url(#119)"><g clip-path="url(#120)"></g><g clip-path="url(#121)"></g></g><g clip-path="url(#122)"><g clip-path="url(#123)"></g></g><g clip-path="url(#124)"><g clip-path="url(#125)"></g><g clip-path="url(#126)"></g></g><path transform="matrix(1 0 0 -1 0 595)" d="M84.24 164.09L84.72 164.09L84.72 164.09L84.72 164.57L84.72 164.57L84.24 164.57z" stroke="none" fill="#000000" fill-rule="evenodd" /><path transform="matrix(1 0 0 -1 0 595)" d="M84.72 164.09L192.02 164.09L192.02 164.09L192.02 164.57L192.02 164.57L84.72 164.57z" stroke="none" fill="#000000" fill-rule="evenodd" /><path transform="matrix(1 0 0 -1 0 595)" d="M192.02 164.09L192.5 164.09L192.5 164.09L192.5 164.57L192.5 164.57L192.02 164.57z" stroke="none" fill="#000000" fill-rule="evenodd" /><path transform="matrix(1 0 0 -1 0 595)" d="M192.5 164.09L267.74 164.09L267.74 164.09L267.74 164.57L267.74 164.57L192.5 164.57z" stroke="none" fill="#000000" fill-rule="evenodd" /><path transform="matrix(1 0 0 -1 0 595)" d="M267.74 164.09L268.22 164.09L268.22 164.09L268.22 164.57L268.22 164.57L267.74 164.57z" stroke="none" fill="#000000" fill-rule="evenodd" /><path transform="matrix(1 0 0 -1 0 595)" d="M268.22 164.09L324.524 164.09L324.524 164.09L324.524 164.57L324.524 164.57L268.22 164.57z" stroke="none" fill="#000000" fill-rule="evenodd" /><path transform="matrix(1 0 0 -1 0 595)" d="M324.53 164.09L325.01 164.09L325.01 164.09L325.01 164.57L325.01 164.57L324.53 164.57z" stroke="none" fill="#000000" fill-rule="evenodd" /><path transform="matrix(1 0 0 -1 0 595)" d="M325.01 164.09L471.29 164.09L471.29 164.09L471.29 164.57L471.29 164.57L325.01 164.57z" stroke="none" fill="#000000" fill-rule="evenodd" /><path transform="matrix(1 0 0 -1 0 595)" d="M471.29 164.09L471.794 164.09L471.794 164.09L471.794 164.57L471.794 164.57L471.29 164.57z" stroke="none" fill="#000000" fill-rule="evenodd" /><path transform="matrix(1 0 0 -1 0 595)" d="M471.79 164.09L725.85 164.09L725.85 164.09L725.85 164.57L725.85 164.57L471.79 164.57z" stroke="none" fill="#000000" fill-rule="evenodd" /><path transform="matrix(1 0 0 -1 0 595)" d="M725.86 164.09L726.34 164.09L726.34 164.09L726.34 164.57L726.34 164.57L725.86 164.57z" stroke="none" fill="#000000" fill-rule="evenodd" /><path transform="matrix(1 0 0 -1 0 595)" d="M84.24 136.37L84.72 136.37L84.72 136.37L84.72 164.09L84.72 164.09L84.24 164.09z" stroke="none" fill="#000000" fill-rule="evenodd" /><path transform="matrix(1 0 0 -1 0 595)" d="M192.02 136.37L192.5 136.37L192.5 136.37L192.5 164.09L192.5 164.09L192.02 164.09z" stroke="none" fill="#000000" fill-rule="evenodd" /><path transform="matrix(1 0 0 -1 0 595)" d="M267.74 136.37L268.22 136.37L268.22 136.37L268.22 164.09L268.22 164.09L267.74 164.09z" stroke="none" fill="#000000" fill-rule="evenodd" /><path transform="matrix(1 0 0 -1 0 595)" d="M324.53 136.37L325.01 136.37L325.01 136.37L325.01 164.09L325.01 164.09L324.53 164.09z" stroke="none" fill="#000000" fill-rule="evenodd" /><path transform="matrix(1 0 0 -1 0 595)" d="M471.29 136.37L471.794 136.37L471.794 136.37L471.794 164.09L471.794 164.09L471.29 164.09z" stroke="none" fill="#000000" fill-rule="evenodd" /><path transform="matrix(1 0 0 -1 0 595)" d="M725.86 136.37L726.34 136.37L726.34 136.37L726.34 164.09L726.34 164.09L725.86 164.09z" stroke="none" fill="#000000" fill-rule="evenodd" /><path transform="matrix(1 0 0 -1 0 595)" d="M84.72 108.14L192.02 108.14L192.02 108.14L192.02 135.884L192.02 135.884L84.72 135.884z" stroke="none" fill="#DAEEF3" fill-rule="evenodd" /><g clip-path="url(#127)"><path transform="matrix(1 0 0 -1 0 595)" d="M89.88 109.22L186.864 109.22L186.864 109.22L186.864 135.884L186.864 135.884L89.88 135.884z" stroke="none" fill="#DAEEF3" fill-rule="evenodd" /><g clip-path="url(#128)"></g><g clip-path="url(#129)"></g><g clip-path="url(#130)"></g></g><path transform="matrix(1 0 0 -1 0 595)" d="M192.5 108.14L267.74 108.14L267.74 108.14L267.74 135.884L267.74 135.884L192.5 135.884z" stroke="none" fill="#DAEEF3" fill-rule="evenodd" /><g clip-path="url(#131)"><path transform="matrix(1 0 0 -1 0 595)" d="M197.66 109.22L262.58 109.22L262.58 109.22L262.58 135.884L262.58 135.884L197.66 135.884z" stroke="none" fill="#DAEEF3" fill-rule="evenodd" /><g clip-path="url(#132)"></g><g clip-path="url(#133)"></g></g><path transform="matrix(1 0 0 -1 0 595)" d="M268.22 108.14L324.404 108.14L324.404 108.14L324.404 135.884L324.404 135.884L268.22 135.884z" stroke="none" fill="#DAEEF3" fill-rule="evenodd" /><g clip-path="url(#134)"><path transform="matrix(1 0 0 -1 0 595)" d="M273.38 108.14L319.244 108.14L319.244 108.14L319.244 135.884L319.244 135.884L273.38 135.884z" stroke="none" fill="#DAEEF3" fill-rule="evenodd" /><g clip-path="url(#135)"></g><g clip-path="url(#136)"></g></g><path transform="matrix(1 0 0 -1 0 595)" d="M325.01 108.14L471.29 108.14L471.29 108.14L471.29 135.884L471.29 135.884L325.01 135.884z" stroke="none" fill="#DAEEF3" fill-rule="evenodd" /><g clip-path="url(#137)"><path transform="matrix(1 0 0 -1 0 595)" d="M330.05 109.22L466.13 109.22L466.13 109.22L466.13 135.884L466.13 135.884L330.05 135.884z" stroke="none" fill="#DAEEF3" fill-rule="evenodd" /><g clip-path="url(#138)"></g></g><path transform="matrix(1 0 0 -1 0 595)" d="M471.79 108.14L725.85 108.14L725.85 108.14L725.85 135.884L725.85 135.884L471.79 135.884z" stroke="none" fill="#DAEEF3" fill-rule="evenodd" /><g clip-path="url(#139)"><path transform="matrix(1 0 0 -1 0 595)" d="M476.95 108.14L720.69 108.14L720.69 108.14L720.69 135.884L720.69 135.884L476.95 135.884z" stroke="none" fill="#DAEEF3" fill-rule="evenodd" /><g clip-path="url(#140)"></g><g clip-path="url(#141)"></g></g><path transform="matrix(1 0 0 -1 0 595)" d="M84.24 135.89L84.72 135.89L84.72 135.89L84.72 136.37L84.72 136.37L84.24 136.37z" stroke="none" fill="#000000" fill-rule="evenodd" /><path transform="matrix(1 0 0 -1 0 595)" d="M84.72 135.89L192.02 135.89L192.02 135.89L192.02 136.37L192.02 136.37L84.72 136.37z" stroke="none" fill="#000000" fill-rule="evenodd" /><path transform="matrix(1 0 0 -1 0 595)" d="M192.02 135.89L192.5 135.89L192.5 135.89L192.5 136.37L192.5 136.37L192.02 136.37z" stroke="none" fill="#000000" fill-rule="evenodd" /><path transform="matrix(1 0 0 -1 0 595)" d="M192.5 135.89L267.74 135.89L267.74 135.89L267.74 136.37L267.74 136.37L192.5 136.37z" stroke="none" fill="#000000" fill-rule="evenodd" /><path transform="matrix(1 0 0 -1 0 595)" d="M267.74 135.89L268.22 135.89L268.22 135.89L268.22 136.37L268.22 136.37L267.74 136.37z" stroke="none" fill="#000000" fill-rule="evenodd" /><path transform="matrix(1 0 0 -1 0 595)" d="M268.22 135.89L324.524 135.89L324.524 135.89L324.524 136.37L324.524 136.37L268.22 136.37z" stroke="none" fill="#000000" fill-rule="evenodd" /><path transform="matrix(1 0 0 -1 0 595)" d="M324.53 135.89L325.01 135.89L325.01 135.89L325.01 136.37L325.01 136.37L324.53 136.37z" stroke="none" fill="#000000" fill-rule="evenodd" /><path transform="matrix(1 0 0 -1 0 595)" d="M325.01 135.89L471.29 135.89L471.29 135.89L471.29 136.37L471.29 136.37L325.01 136.37z" stroke="none" fill="#000000" fill-rule="evenodd" /><path transform="matrix(1 0 0 -1 0 595)" d="M471.29 135.89L471.794 135.89L471.794 135.89L471.794 136.37L471.794 136.37L471.29 136.37z" stroke="none" fill="#000000" fill-rule="evenodd" /><path transform="matrix(1 0 0 -1 0 595)" d="M471.79 135.89L725.85 135.89L725.85 135.89L725.85 136.37L725.85 136.37L471.79 136.37z" stroke="none" fill="#000000" fill-rule="evenodd" /><path transform="matrix(1 0 0 -1 0 595)" d="M725.86 135.89L726.34 135.89L726.34 135.89L726.34 136.37L726.34 136.37L725.86 136.37z" stroke="none" fill="#000000" fill-rule="evenodd" /><path transform="matrix(1 0 0 -1 0 595)" d="M84.24 108.14L84.72 108.14L84.72 108.14L84.72 135.884L84.72 135.884L84.24 135.884z" stroke="none" fill="#000000" fill-rule="evenodd" /><path transform="matrix(1 0 0 -1 0 595)" d="M84.24 107.66L84.72 107.66L84.72 107.66L84.72 108.14L84.72 108.14L84.24 108.14z" stroke="none" fill="#000000" fill-rule="evenodd" /><path transform="matrix(1 0 0 -1 0 595)" d="M84.24 107.66L84.72 107.66L84.72 107.66L84.72 108.14L84.72 108.14L84.24 108.14z" stroke="none" fill="#000000" fill-rule="evenodd" /><path transform="matrix(1 0 0 -1 0 595)" d="M84.72 107.66L192.02 107.66L192.02 107.66L192.02 108.14L192.02 108.14L84.72 108.14z" stroke="none" fill="#000000" fill-rule="evenodd" /><path transform="matrix(1 0 0 -1 0 595)" d="M192.02 108.14L192.5 108.14L192.5 108.14L192.5 135.884L192.5 135.884L192.02 135.884z" stroke="none" fill="#000000" fill-rule="evenodd" /><path transform="matrix(1 0 0 -1 0 595)" d="M192.02 107.66L192.5 107.66L192.5 107.66L192.5 108.14L192.5 108.14L192.02 108.14z" stroke="none" fill="#000000" fill-rule="evenodd" /><path transform="matrix(1 0 0 -1 0 595)" d="M192.5 107.66L267.74 107.66L267.74 107.66L267.74 108.14L267.74 108.14L192.5 108.14z" stroke="none" fill="#000000" fill-rule="evenodd" /><path transform="matrix(1 0 0 -1 0 595)" d="M267.74 108.14L268.22 108.14L268.22 108.14L268.22 135.884L268.22 135.884L267.74 135.884z" stroke="none" fill="#000000" fill-rule="evenodd" /><path transform="matrix(1 0 0 -1 0 595)" d="M267.74 107.66L268.22 107.66L268.22 107.66L268.22 108.14L268.22 108.14L267.74 108.14z" stroke="none" fill="#000000" fill-rule="evenodd" /><path transform="matrix(1 0 0 -1 0 595)" d="M268.22 107.66L324.524 107.66L324.524 107.66L324.524 108.14L324.524 108.14L268.22 108.14z" stroke="none" fill="#000000" fill-rule="evenodd" /><path transform="matrix(1 0 0 -1 0 595)" d="M324.53 108.14L325.01 108.14L325.01 108.14L325.01 135.884L325.01 135.884L324.53 135.884z" stroke="none" fill="#000000" fill-rule="evenodd" /><path transform="matrix(1 0 0 -1 0 595)" d="M324.53 107.66L325.01 107.66L325.01 107.66L325.01 108.14L325.01 108.14L324.53 108.14z" stroke="none" fill="#000000" fill-rule="evenodd" /><path transform="matrix(1 0 0 -1 0 595)" d="M325.01 107.66L471.29 107.66L471.29 107.66L471.29 108.14L471.29 108.14L325.01 108.14z" stroke="none" fill="#000000" fill-rule="evenodd" /><path transform="matrix(1 0 0 -1 0 595)" d="M471.29 108.14L471.794 108.14L471.794 108.14L471.794 135.884L471.794 135.884L471.29 135.884z" stroke="none" fill="#000000" fill-rule="evenodd" /><path transform="matrix(1 0 0 -1 0 595)" d="M471.29 107.66L471.794 107.66L471.794 107.66L471.794 108.14L471.794 108.14L471.29 108.14z" stroke="none" fill="#000000" fill-rule="evenodd" /><path transform="matrix(1 0 0 -1 0 595)" d="M471.79 107.66L725.85 107.66L725.85 107.66L725.85 108.14L725.85 108.14L471.79 108.14z" stroke="none" fill="#000000" fill-rule="evenodd" /><path transform="matrix(1 0 0 -1 0 595)" d="M725.86 108.14L726.34 108.14L726.34 108.14L726.34 135.884L726.34 135.884L725.86 135.884z" stroke="none" fill="#000000" fill-rule="evenodd" /><path transform="matrix(1 0 0 -1 0 595)" d="M725.86 107.66L726.34 107.66L726.34 107.66L726.34 108.14L726.34 108.14L725.86 108.14z" stroke="none" fill="#000000" fill-rule="evenodd" /><path transform="matrix(1 0 0 -1 0 595)" d="M725.86 107.66L726.34 107.66L726.34 107.66L726.34 108.14L726.34 108.14L725.86 108.14z" stroke="none" fill="#000000" fill-rule="evenodd" /></g></g></g></svg>