<svg xmlns="http://www.w3.org/2000/svg" xmlns:xlink="http://www.w3.org/1999/xlink" id="body_192" preserveAspectRatio="xMinYMin meet" viewBox="0 0 793 1121"><defs><clipPath id="1"><path d="M0 841L0 -0.9199829L0 -0.9199829L595.32 -0.9199829L595.32 -0.9199829L595.32 841L595.32 841L0 841z" /></clipPath><clipPath id="2"><path d="M0.00125 841.0914L595.4112 841.0914L595.4112 841.0914L595.4112 -0.9186401L595.4112 -0.9186401L0.00125 -0.9186401z" /></clipPath><clipPath id="3"><path d="M288.05 781.211L316.01 781.211L316.01 781.211L316.01 762.011L316.01 762.011L288.05 762.011z" /></clipPath><clipPath id="4"><path d="M288.05 781.216L316.01 781.216L316.01 781.216L316.01 762.016L316.01 762.016L288.05 762.016z" /></clipPath><clipPath id="5"><path d="M288.05 781.216L316.01 781.216L316.01 781.216L316.01 762.016L316.01 762.016L288.05 762.016z" /></clipPath><clipPath id="6"><path d="M84.751 108.55L215.091 108.55L215.091 108.55L215.091 89.44L215.091 89.44L84.751 89.44z" /></clipPath><clipPath id="7"><path d="M84.744 108.54L215.084 108.54L215.084 108.54L215.084 89.43597L215.084 89.43597L84.744 89.43597z" /></clipPath><clipPath id="8"><path d="M84.744 108.54L215.084 108.54L215.084 108.54L215.084 89.43597L215.084 89.43597L84.744 89.43597z" /></clipPath><clipPath id="9"><path d="M215.57 108.55L331.61 108.55L331.61 108.55L331.61 89.44L331.61 89.44L215.57 89.44z" /></clipPath><clipPath id="10"><path d="M215.57 108.54L331.61 108.54L331.61 108.54L331.61 89.43597L331.61 89.43597L215.57 89.43597z" /></clipPath><clipPath id="11"><path d="M215.57 108.54L331.61 108.54L331.61 108.54L331.61 89.43597L331.61 89.43597L215.57 89.43597z" /></clipPath><clipPath id="12"><path d="M332.09 108.55L510.7 108.55L510.7 108.55L510.7 89.44L510.7 89.44L332.09 89.44z" /></clipPath><clipPath id="13"><path d="M332.09 108.54L510.7 108.54L510.7 108.54L510.7 89.43597L510.7 89.43597L332.09 89.43597z" /></clipPath><clipPath id="14"><path d="M332.09 108.54L510.7 108.54L510.7 108.54L510.7 89.43597L510.7 89.43597L332.09 89.43597z" /></clipPath><clipPath id="15"><path d="M84.751 342.69L215.091 342.69L215.091 342.69L215.091 109.03L215.091 109.03L84.751 109.03z" /></clipPath><clipPath id="16"><path d="M84.744 342.69L215.084 342.69L215.084 342.69L215.084 109.03L215.084 109.03L84.744 109.03z" /></clipPath><clipPath id="17"><path d="M84.744 342.69L215.084 342.69L215.084 342.69L215.084 109.03L215.084 109.03L84.744 109.03z" /></clipPath><clipPath id="18"><path d="M84.744 342.69L215.084 342.69L215.084 342.69L215.084 109.03L215.084 109.03L84.744 109.03z" /></clipPath><clipPath id="19"><path d="M84.744 342.69L215.084 342.69L215.084 342.69L215.084 109.03L215.084 109.03L84.744 109.03z" /></clipPath><clipPath id="20"><path d="M84.744 342.69L215.084 342.69L215.084 342.69L215.084 109.03L215.084 109.03L84.744 109.03z" /></clipPath><clipPath id="21"><path d="M84.744 342.69L215.084 342.69L215.084 342.69L215.084 109.03L215.084 109.03L84.744 109.03z" /></clipPath><clipPath id="22"><path d="M84.744 342.69L215.084 342.69L215.084 342.69L215.084 109.03L215.084 109.03L84.744 109.03z" /></clipPath><clipPath id="23"><path d="M84.744 342.69L215.084 342.69L215.084 342.69L215.084 109.03L215.084 109.03L84.744 109.03z" /></clipPath><clipPath id="24"><path d="M84.744 342.69L215.084 342.69L215.084 342.69L215.084 109.03L215.084 109.03L84.744 109.03z" /></clipPath><clipPath id="25"><path d="M84.744 342.69L215.084 342.69L215.084 342.69L215.084 109.03L215.084 109.03L84.744 109.03z" /></clipPath><clipPath id="26"><path d="M84.744 342.69L215.084 342.69L215.084 342.69L215.084 109.03L215.084 109.03L84.744 109.03z" /></clipPath><clipPath id="27"><path d="M84.744 342.69L215.084 342.69L215.084 342.69L215.084 109.03L215.084 109.03L84.744 109.03z" /></clipPath><clipPath id="28"><path d="M84.744 342.69L215.084 342.69L215.084 342.69L215.084 109.03L215.084 109.03L84.744 109.03z" /></clipPath><clipPath id="29"><path d="M84.744 342.69L215.084 342.69L215.084 342.69L215.084 109.03L215.084 109.03L84.744 109.03z" /></clipPath><clipPath id="30"><path d="M84.744 342.69L215.084 342.69L215.084 342.69L215.084 109.03L215.084 109.03L84.744 109.03z" /></clipPath><clipPath id="31"><path d="M84.744 342.69L215.084 342.69L215.084 342.69L215.084 109.03L215.084 109.03L84.744 109.03z" /></clipPath><clipPath id="32"><path d="M84.744 342.69L215.084 342.69L215.084 342.69L215.084 109.03L215.084 109.03L84.744 109.03z" /></clipPath><clipPath id="33"><path d="M84.744 342.69L215.084 342.69L215.084 342.69L215.084 109.03L215.084 109.03L84.744 109.03z" /></clipPath><clipPath id="34"><path d="M84.744 342.69L215.084 342.69L215.084 342.69L215.084 109.03L215.084 109.03L84.744 109.03z" /></clipPath><clipPath id="35"><path d="M84.744 342.69L215.084 342.69L215.084 342.69L215.084 109.03L215.084 109.03L84.744 109.03z" /></clipPath><clipPath id="36"><path d="M84.744 342.69L215.084 342.69L215.084 342.69L215.084 109.03L215.084 109.03L84.744 109.03z" /></clipPath><clipPath id="37"><path d="M84.744 342.69L215.084 342.69L215.084 342.69L215.084 109.03L215.084 109.03L84.744 109.03z" /></clipPath><clipPath id="38"><path d="M84.744 342.69L215.084 342.69L215.084 342.69L215.084 109.03L215.084 109.03L84.744 109.03z" /></clipPath><clipPath id="39"><path d="M84.744 342.69L215.084 342.69L215.084 342.69L215.084 109.03L215.084 109.03L84.744 109.03z" /></clipPath></defs><g transform="matrix(1.333333 0 0 1.333333 0 0)"><g><g clip-path="url(#1)"><path transform="matrix(1 0 0 -1 0 841)" d="M457.51 53.304L505.534 53.304L505.534 53.304L505.534 53.90404L505.534 53.90404L457.51 53.90404z" stroke="none" fill="#000000" fill-rule="evenodd" /><g clip-path="url(#2)"><path transform="matrix(1 0 0 -1 0 841)" d="M88.464 77.904L506.974 77.904L506.974 77.904L506.974 80.904L506.974 80.904L88.464 80.904z" stroke="none" fill="#000000" fill-rule="evenodd" /><path transform="matrix(1 0 0 -1 0 841)" d="M88.464 76.464L506.974 76.464L506.974 76.464L506.974 77.18397L506.974 77.18397L88.464 77.18397z" stroke="none" fill="#000000" fill-rule="evenodd" /></g><g clip-path="url(#3)"><g clip-path="url(#4)"></g><g clip-path="url(#5)"></g></g><path transform="matrix(1 0 0 -1 0 841)" d="M84.744 732.46L215.084 732.46L215.084 732.46L215.084 751.564L215.084 751.564L84.744 751.564z" stroke="none" fill="#0070C0" fill-rule="evenodd" /><g clip-path="url(#6)"><path transform="matrix(1 0 0 -1 0 841)" d="M89.904 732.46L209.924 732.46L209.924 732.46L209.924 751.564L209.924 751.564L89.904 751.564z" stroke="none" fill="#0070C0" fill-rule="evenodd" /><g clip-path="url(#7)"></g><g clip-path="url(#8)"></g></g><path transform="matrix(1 0 0 -1 0 841)" d="M215.57 732.46L331.61 732.46L331.61 732.46L331.61 751.564L331.61 751.564L215.57 751.564z" stroke="none" fill="#0070C0" fill-rule="evenodd" /><g clip-path="url(#9)"><path transform="matrix(1 0 0 -1 0 841)" d="M220.73 732.46L326.45 732.46L326.45 732.46L326.45 751.564L326.45 751.564L220.73 751.564z" stroke="none" fill="#0070C0" fill-rule="evenodd" /><g clip-path="url(#10)"></g><g clip-path="url(#11)"></g></g><path transform="matrix(1 0 0 -1 0 841)" d="M332.09 732.46L510.7 732.46L510.7 732.46L510.7 751.564L510.7 751.564L332.09 751.564z" stroke="none" fill="#0070C0" fill-rule="evenodd" /><g clip-path="url(#12)"><path transform="matrix(1 0 0 -1 0 841)" d="M337.27 732.46L505.53 732.46L505.53 732.46L505.53 751.564L505.53 751.564L337.27 751.564z" stroke="none" fill="#0070C0" fill-rule="evenodd" /><g clip-path="url(#13)"></g><g clip-path="url(#14)"></g></g><path transform="matrix(1 0 0 -1 0 841)" d="M84.264 751.56L84.744 751.56L84.744 751.56L84.744 752.04L84.744 752.04L84.264 752.04z" stroke="none" fill="#000000" fill-rule="evenodd" /><path transform="matrix(1 0 0 -1 0 841)" d="M84.264 751.56L84.744 751.56L84.744 751.56L84.744 752.04L84.744 752.04L84.264 752.04z" stroke="none" fill="#000000" fill-rule="evenodd" /><path transform="matrix(1 0 0 -1 0 841)" d="M84.744 751.56L215.084 751.56L215.084 751.56L215.084 752.04L215.084 752.04L84.744 752.04z" stroke="none" fill="#000000" fill-rule="evenodd" /><path transform="matrix(1 0 0 -1 0 841)" d="M215.09 751.56L215.57 751.56L215.57 751.56L215.57 752.04L215.57 752.04L215.09 752.04z" stroke="none" fill="#000000" fill-rule="evenodd" /><path transform="matrix(1 0 0 -1 0 841)" d="M215.57 751.56L331.61 751.56L331.61 751.56L331.61 752.04L331.61 752.04L215.57 752.04z" stroke="none" fill="#000000" fill-rule="evenodd" /><path transform="matrix(1 0 0 -1 0 841)" d="M331.61 751.56L332.09 751.56L332.09 751.56L332.09 752.04L332.09 752.04L331.61 752.04z" stroke="none" fill="#000000" fill-rule="evenodd" /><path transform="matrix(1 0 0 -1 0 841)" d="M332.09 751.56L510.7 751.56L510.7 751.56L510.7 752.04L510.7 752.04L332.09 752.04z" stroke="none" fill="#000000" fill-rule="evenodd" /><path transform="matrix(1 0 0 -1 0 841)" d="M510.7 751.56L511.18 751.56L511.18 751.56L511.18 752.04L511.18 752.04L510.7 752.04z" stroke="none" fill="#000000" fill-rule="evenodd" /><path transform="matrix(1 0 0 -1 0 841)" d="M510.7 751.56L511.18 751.56L511.18 751.56L511.18 752.04L511.18 752.04L510.7 752.04z" stroke="none" fill="#000000" fill-rule="evenodd" /><path transform="matrix(1 0 0 -1 0 841)" d="M84.264 732.46L84.744 732.46L84.744 732.46L84.744 751.564L84.744 751.564L84.264 751.564z" stroke="none" fill="#000000" fill-rule="evenodd" /><path transform="matrix(1 0 0 -1 0 841)" d="M215.09 732.46L215.57 732.46L215.57 732.46L215.57 751.564L215.57 751.564L215.09 751.564z" stroke="none" fill="#000000" fill-rule="evenodd" /><path transform="matrix(1 0 0 -1 0 841)" d="M331.61 732.46L332.09 732.46L332.09 732.46L332.09 751.564L332.09 751.564L331.61 751.564z" stroke="none" fill="#000000" fill-rule="evenodd" /><path transform="matrix(1 0 0 -1 0 841)" d="M510.7 732.46L511.18 732.46L511.18 732.46L511.18 751.564L511.18 751.564L510.7 751.564z" stroke="none" fill="#000000" fill-rule="evenodd" /><path transform="matrix(1 0 0 -1 0 841)" d="M84.744 498.31L215.084 498.31L215.084 498.31L215.084 731.97L215.084 731.97L84.744 731.97z" stroke="none" fill="#DAEEF3" fill-rule="evenodd" /><g clip-path="url(#15)"><path transform="matrix(1 0 0 -1 0 841)" d="M89.904 712.9L209.924 712.9L209.924 712.9L209.924 731.98L209.924 731.98L89.904 731.98z" stroke="none" fill="#DAEEF3" fill-rule="evenodd" /><g clip-path="url(#16)"></g><g clip-path="url(#17)"></g><path transform="matrix(1 0 0 -1 0 841)" d="M89.904 693.94L209.924 693.94L209.924 693.94L209.924 712.9L209.924 712.9L89.904 712.9z" stroke="none" fill="#DAEEF3" fill-rule="evenodd" /><g clip-path="url(#18)"></g><path transform="matrix(1 0 0 -1 0 841)" d="M89.904 674.86L209.924 674.86L209.924 674.86L209.924 693.94L209.924 693.94L89.904 693.94z" stroke="none" fill="#DAEEF3" fill-rule="evenodd" /><g clip-path="url(#19)"></g><g clip-path="url(#20)"></g><path transform="matrix(1 0 0 -1 0 841)" d="M89.904 655.78L209.924 655.78L209.924 655.78L209.924 674.86L209.924 674.86L89.904 674.86z" stroke="none" fill="#DAEEF3" fill-rule="evenodd" /><g clip-path="url(#21)"></g><g clip-path="url(#22)"></g><path transform="matrix(1 0 0 -1 0 841)" d="M89.904 636.7L209.924 636.7L209.924 636.7L209.924 655.78L209.924 655.78L89.904 655.78z" stroke="none" fill="#DAEEF3" fill-rule="evenodd" /><g clip-path="url(#23)"></g><g clip-path="url(#24)"></g><path transform="matrix(1 0 0 -1 0 841)" d="M89.904 617.74L209.924 617.74L209.924 617.74L209.924 636.7L209.924 636.7L89.904 636.7z" stroke="none" fill="#DAEEF3" fill-rule="evenodd" /><g clip-path="url(#25)"></g><g clip-path="url(#26)"></g><path transform="matrix(1 0 0 -1 0 841)" d="M89.904 598.66L209.924 598.66L209.924 598.66L209.924 617.74L209.924 617.74L89.904 617.74z" stroke="none" fill="#DAEEF3" fill-rule="evenodd" /><g clip-path="url(#27)"></g><g clip-path="url(#28)"></g><path transform="matrix(1 0 0 -1 0 841)" d="M89.904 579.58L209.924 579.58L209.924 579.58L209.924 598.66L209.924 598.66L89.904 598.66z" stroke="none" fill="#DAEEF3" fill-rule="evenodd" /><g clip-path="url(#29)"></g><g clip-path="url(#30)"></g><path transform="matrix(1 0 0 -1 0 841)" d="M89.904 560.5L209.924 560.5L209.924 560.5L209.924 579.58L209.924 579.58L89.904 579.58z" stroke="none" fill="#DAEEF3" fill-rule="evenodd" /><g clip-path="url(#31)"></g><g clip-path="url(#32)"></g><path transform="matrix(1 0 0 -1 0 841)" d="M89.904 541.51L209.924 541.51L209.924 541.51L209.924 560.494L209.924 560.494L89.904 560.494z" stroke="none" fill="#DAEEF3" fill-rule="evenodd" /><g clip-path="url(#33)"></g><path transform="matrix(1 0 0 -1 0 841)" d="M89.904 522.43L209.924 522.43L209.924 522.43L209.924 541.51L209.924 541.51L89.904 541.51z" stroke="none" fill="#DAEEF3" fill-rule="evenodd" /><g clip-path="url(#34)"></g><g clip-path="url(#35)"></g><g clip-path="url(#36)"></g><g clip-path="url(#37)"></g><path transform="matrix(1 0 0 -1 0 841)" d="M89.904 498.31L209.924 498.31L209.924 498.31L209.924 522.43L209.924 522.43L89.904 522.43z" stroke="none" fill="#DAEEF3" fill-rule="evenodd" /><g clip-path="url(#38)"></g><g clip-path="url(#39)"></g></g><path transform="matrix(1 0 0 -1 0 841)" d="M215.57 498.31L331.61 498.31L331.61 498.31L331.61 731.97L331.61 731.97L215.57 731.97z" stroke="none" fill="#DAEEF3" fill-rule="evenodd" /><path transform="matrix(1 0 0 -1 0 841)" d="M332.09 498.31L510.7 498.31L510.7 498.31L510.7 731.97L510.7 731.97L332.09 731.97z" stroke="none" fill="#DAEEF3" fill-rule="evenodd" /><path transform="matrix(1 0 0 -1 0 841)" d="M84.264 731.98L84.744 731.98L84.744 731.98L84.744 732.46L84.744 732.46L84.264 732.46z" stroke="none" fill="#000000" fill-rule="evenodd" /><path transform="matrix(1 0 0 -1 0 841)" d="M84.744 731.98L215.084 731.98L215.084 731.98L215.084 732.46L215.084 732.46L84.744 732.46z" stroke="none" fill="#000000" fill-rule="evenodd" /><path transform="matrix(1 0 0 -1 0 841)" d="M215.09 731.98L215.57 731.98L215.57 731.98L215.57 732.46L215.57 732.46L215.09 732.46z" stroke="none" fill="#000000" fill-rule="evenodd" /><path transform="matrix(1 0 0 -1 0 841)" d="M215.57 731.98L331.61 731.98L331.61 731.98L331.61 732.46L331.61 732.46L215.57 732.46z" stroke="none" fill="#000000" fill-rule="evenodd" /><path transform="matrix(1 0 0 -1 0 841)" d="M331.61 731.98L332.09 731.98L332.09 731.98L332.09 732.46L332.09 732.46L331.61 732.46z" stroke="none" fill="#000000" fill-rule="evenodd" /><path transform="matrix(1 0 0 -1 0 841)" d="M332.09 731.98L510.7 731.98L510.7 731.98L510.7 732.46L510.7 732.46L332.09 732.46z" stroke="none" fill="#000000" fill-rule="evenodd" /><path transform="matrix(1 0 0 -1 0 841)" d="M510.7 731.98L511.18 731.98L511.18 731.98L511.18 732.46L511.18 732.46L510.7 732.46z" stroke="none" fill="#000000" fill-rule="evenodd" /><path transform="matrix(1 0 0 -1 0 841)" d="M84.264 498.31L84.744 498.31L84.744 498.31L84.744 731.97L84.744 731.97L84.264 731.97z" stroke="none" fill="#000000" fill-rule="evenodd" /><path transform="matrix(1 0 0 -1 0 841)" d="M84.264 497.83L84.744 497.83L84.744 497.83L84.744 498.31L84.744 498.31L84.264 498.31z" stroke="none" fill="#000000" fill-rule="evenodd" /><path transform="matrix(1 0 0 -1 0 841)" d="M84.264 497.83L84.744 497.83L84.744 497.83L84.744 498.31L84.744 498.31L84.264 498.31z" stroke="none" fill="#000000" fill-rule="evenodd" /><path transform="matrix(1 0 0 -1 0 841)" d="M84.744 497.83L215.084 497.83L215.084 497.83L215.084 498.31L215.084 498.31L84.744 498.31z" stroke="none" fill="#000000" fill-rule="evenodd" /><path transform="matrix(1 0 0 -1 0 841)" d="M215.09 498.31L215.57 498.31L215.57 498.31L215.57 731.97L215.57 731.97L215.09 731.97z" stroke="none" fill="#000000" fill-rule="evenodd" /><path transform="matrix(1 0 0 -1 0 841)" d="M215.09 497.83L215.57 497.83L215.57 497.83L215.57 498.31L215.57 498.31L215.09 498.31z" stroke="none" fill="#000000" fill-rule="evenodd" /><path transform="matrix(1 0 0 -1 0 841)" d="M215.57 497.83L331.61 497.83L331.61 497.83L331.61 498.31L331.61 498.31L215.57 498.31z" stroke="none" fill="#000000" fill-rule="evenodd" /><path transform="matrix(1 0 0 -1 0 841)" d="M331.61 498.31L332.09 498.31L332.09 498.31L332.09 731.97L332.09 731.97L331.61 731.97z" stroke="none" fill="#000000" fill-rule="evenodd" /><path transform="matrix(1 0 0 -1 0 841)" d="M331.61 497.83L332.09 497.83L332.09 497.83L332.09 498.31L332.09 498.31L331.61 498.31z" stroke="none" fill="#000000" fill-rule="evenodd" /><path transform="matrix(1 0 0 -1 0 841)" d="M332.09 497.83L510.7 497.83L510.7 497.83L510.7 498.31L510.7 498.31L332.09 498.31z" stroke="none" fill="#000000" fill-rule="evenodd" /><path transform="matrix(1 0 0 -1 0 841)" d="M510.7 498.31L511.18 498.31L511.18 498.31L511.18 731.97L511.18 731.97L510.7 731.97z" stroke="none" fill="#000000" fill-rule="evenodd" /><path transform="matrix(1 0 0 -1 0 841)" d="M510.7 497.83L511.18 497.83L511.18 497.83L511.18 498.31L511.18 498.31L510.7 498.31z" stroke="none" fill="#000000" fill-rule="evenodd" /><path transform="matrix(1 0 0 -1 0 841)" d="M510.7 497.83L511.18 497.83L511.18 497.83L511.18 498.31L511.18 498.31L510.7 498.31z" stroke="none" fill="#000000" fill-rule="evenodd" /></g></g></g></svg>