<svg xmlns="http://www.w3.org/2000/svg" xmlns:xlink="http://www.w3.org/1999/xlink" id="body_59" preserveAspectRatio="xMinYMin meet" viewBox="0 0 793 1121"><defs><clipPath id="1"><path d="M0 841L0 -0.9199829L0 -0.9199829L595.32 -0.9199829L595.32 -0.9199829L595.32 841L595.32 841L0 841z" /></clipPath><clipPath id="2"><path d="M0.00125 841.0914L595.4112 841.0914L595.4112 841.0914L595.4112 -0.9186401L595.4112 -0.9186401L0.00125 -0.9186401z" /></clipPath><clipPath id="3"><path d="M295.13 780.251L305.21 780.251L305.21 780.251L305.21 768.011L305.21 768.011L295.13 768.011z" /></clipPath><clipPath id="4"><path d="M295.13 780.256L305.21 780.256L305.21 780.256L305.21 768.016L305.21 768.016L295.13 768.016z" /></clipPath><clipPath id="5"><path d="M295.13 780.256L305.21 780.256L305.21 780.256L305.21 768.016L305.21 768.016L295.13 768.016z" /></clipPath><clipPath id="6"><path d="M84.751 117.07L169.591 117.07L169.591 117.07L169.591 89.44L169.591 89.44L84.751 89.44z" /></clipPath><clipPath id="7"><path d="M84.744 117.06L169.584 117.06L169.584 117.06L169.584 89.43597L169.584 89.43597L84.744 89.43597z" /></clipPath><clipPath id="8"><path d="M84.744 117.06L169.584 117.06L169.584 117.06L169.584 89.43597L169.584 89.43597L84.744 89.43597z" /></clipPath><clipPath id="9"><path d="M170.19 117.07L224.325 117.07L224.325 117.07L224.325 89.44L224.325 89.44L170.19 89.44z" /></clipPath><clipPath id="10"><path d="M170.18 117.06L224.324 117.06L224.324 117.06L224.324 89.43597L224.324 89.43597L170.18 89.43597z" /></clipPath><clipPath id="11"><path d="M170.18 117.06L224.324 117.06L224.324 117.06L224.324 89.43597L224.324 89.43597L170.18 89.43597z" /></clipPath><clipPath id="12"><path d="M224.81 117.07L274.01 117.07L274.01 117.07L274.01 89.44L274.01 89.44L224.81 89.44z" /></clipPath><clipPath id="13"><path d="M224.81 117.06L274.01 117.06L274.01 117.06L274.01 89.43597L274.01 89.43597L224.81 89.43597z" /></clipPath><clipPath id="14"><path d="M224.81 117.06L274.01 117.06L274.01 117.06L274.01 89.43597L274.01 89.43597L224.81 89.43597z" /></clipPath><clipPath id="15"><path d="M274.49 117.07L387.2 117.07L387.2 117.07L387.2 89.44L387.2 89.44L274.49 89.44z" /></clipPath><clipPath id="16"><path d="M274.49 117.06L387.19 117.06L387.19 117.06L387.19 89.43597L387.19 89.43597L274.49 89.43597z" /></clipPath><clipPath id="17"><path d="M274.49 117.06L387.19 117.06L387.19 117.06L387.19 89.43597L387.19 89.43597L274.49 89.43597z" /></clipPath><clipPath id="18"><path d="M387.68 117.07L510.7 117.07L510.7 117.07L510.7 89.44L510.7 89.44L387.68 89.44z" /></clipPath><clipPath id="19"><path d="M387.67 117.06L510.69 117.06L510.69 117.06L510.69 89.43597L510.69 89.43597L387.67 89.43597z" /></clipPath><clipPath id="20"><path d="M387.67 117.06L510.69 117.06L510.69 117.06L510.69 89.43597L510.69 89.43597L387.67 89.43597z" /></clipPath><clipPath id="21"><path d="M84.751 178.39L169.591 178.39L169.591 178.39L169.591 117.67L169.591 117.67L84.751 117.67z" /></clipPath><clipPath id="22"><path d="M84.744 178.38L169.584 178.38L169.584 178.38L169.584 117.66L169.584 117.66L84.744 117.66z" /></clipPath><clipPath id="23"><path d="M84.744 178.38L169.584 178.38L169.584 178.38L169.584 117.66L169.584 117.66L84.744 117.66z" /></clipPath><clipPath id="24"><path d="M170.19 178.39L224.325 178.39L224.325 178.39L224.325 117.67L224.325 117.67L170.19 117.67z" /></clipPath><clipPath id="25"><path d="M170.18 178.38L224.324 178.38L224.324 178.38L224.324 117.66L224.324 117.66L170.18 117.66z" /></clipPath><clipPath id="26"><path d="M170.18 178.38L224.324 178.38L224.324 178.38L224.324 117.66L224.324 117.66L170.18 117.66z" /></clipPath><clipPath id="27"><path d="M224.81 178.39L274.01 178.39L274.01 178.39L274.01 117.67L274.01 117.67L224.81 117.67z" /></clipPath><clipPath id="28"><path d="M224.81 178.38L274.01 178.38L274.01 178.38L274.01 117.66L274.01 117.66L224.81 117.66z" /></clipPath><clipPath id="29"><path d="M224.81 178.38L274.01 178.38L274.01 178.38L274.01 117.66L274.01 117.66L224.81 117.66z" /></clipPath><clipPath id="30"><path d="M274.49 178.39L387.2 178.39L387.2 178.39L387.2 117.67L387.2 117.67L274.49 117.67z" /></clipPath><clipPath id="31"><path d="M274.49 178.38L387.19 178.38L387.19 178.38L387.19 117.66L387.19 117.66L274.49 117.66z" /></clipPath><clipPath id="32"><path d="M274.49 178.38L387.19 178.38L387.19 178.38L387.19 117.66L387.19 117.66L274.49 117.66z" /></clipPath><clipPath id="33"><path d="M274.49 178.38L387.19 178.38L387.19 178.38L387.19 117.66L387.19 117.66L274.49 117.66z" /></clipPath><clipPath id="34"><path d="M274.49 178.38L387.19 178.38L387.19 178.38L387.19 117.66L387.19 117.66L274.49 117.66z" /></clipPath><clipPath id="35"><path d="M387.68 178.39L510.7 178.39L510.7 178.39L510.7 117.67L510.7 117.67L387.68 117.67z" /></clipPath><clipPath id="36"><path d="M387.67 178.38L510.69 178.38L510.69 178.38L510.69 117.66L510.69 117.66L387.67 117.66z" /></clipPath><clipPath id="37"><path d="M387.67 178.38L510.69 178.38L510.69 178.38L510.69 117.66L510.69 117.66L387.67 117.66z" /></clipPath><clipPath id="38"><path d="M84.751 206.59L169.591 206.59L169.591 206.59L169.591 178.8701L169.591 178.8701L84.751 178.8701z" /></clipPath><clipPath id="39"><path d="M84.744 206.58L169.584 206.58L169.584 206.58L169.584 178.86L169.584 178.86L84.744 178.86z" /></clipPath><clipPath id="40"><path d="M84.744 206.58L169.584 206.58L169.584 206.58L169.584 178.86L169.584 178.86L84.744 178.86z" /></clipPath><clipPath id="41"><path d="M170.19 206.59L224.325 206.59L224.325 206.59L224.325 178.8701L224.325 178.8701L170.19 178.8701z" /></clipPath><clipPath id="42"><path d="M170.18 206.58L224.324 206.58L224.324 206.58L224.324 178.86L224.324 178.86L170.18 178.86z" /></clipPath><clipPath id="43"><path d="M170.18 206.58L224.324 206.58L224.324 206.58L224.324 178.86L224.324 178.86L170.18 178.86z" /></clipPath><clipPath id="44"><path d="M224.81 206.59L274.01 206.59L274.01 206.59L274.01 178.8701L274.01 178.8701L224.81 178.8701z" /></clipPath><clipPath id="45"><path d="M224.81 206.58L274.01 206.58L274.01 206.58L274.01 178.86L274.01 178.86L224.81 178.86z" /></clipPath><clipPath id="46"><path d="M224.81 206.58L274.01 206.58L274.01 206.58L274.01 178.86L274.01 178.86L224.81 178.86z" /></clipPath><clipPath id="47"><path d="M274.49 206.59L387.2 206.59L387.2 206.59L387.2 178.8701L387.2 178.8701L274.49 178.8701z" /></clipPath><clipPath id="48"><path d="M274.49 206.58L387.19 206.58L387.19 206.58L387.19 178.86L387.19 178.86L274.49 178.86z" /></clipPath><clipPath id="49"><path d="M274.49 206.58L387.19 206.58L387.19 206.58L387.19 178.86L387.19 178.86L274.49 178.86z" /></clipPath><clipPath id="50"><path d="M387.68 206.59L510.7 206.59L510.7 206.59L510.7 178.8701L510.7 178.8701L387.68 178.8701z" /></clipPath><clipPath id="51"><path d="M387.67 206.58L510.69 206.58L510.69 206.58L510.69 178.86L510.69 178.86L387.67 178.86z" /></clipPath><clipPath id="52"><path d="M387.67 206.58L510.69 206.58L510.69 206.58L510.69 178.86L510.69 178.86L387.67 178.86z" /></clipPath><clipPath id="53"><path d="M84.751 234.67L169.591 234.67L169.591 234.67L169.591 207.07L169.591 207.07L84.751 207.07z" /></clipPath><clipPath id="54"><path d="M84.744 234.66L169.584 234.66L169.584 234.66L169.584 207.06L169.584 207.06L84.744 207.06z" /></clipPath><clipPath id="55"><path d="M84.744 234.66L169.584 234.66L169.584 234.66L169.584 207.06L169.584 207.06L84.744 207.06z" /></clipPath><clipPath id="56"><path d="M170.19 234.67L224.325 234.67L224.325 234.67L224.325 207.07L224.325 207.07L170.19 207.07z" /></clipPath><clipPath id="57"><path d="M170.18 234.66L224.324 234.66L224.324 234.66L224.324 207.06L224.324 207.06L170.18 207.06z" /></clipPath><clipPath id="58"><path d="M170.18 234.66L224.324 234.66L224.324 234.66L224.324 207.06L224.324 207.06L170.18 207.06z" /></clipPath><clipPath id="59"><path d="M224.81 234.67L274.01 234.67L274.01 234.67L274.01 207.07L274.01 207.07L224.81 207.07z" /></clipPath><clipPath id="60"><path d="M224.81 234.66L274.01 234.66L274.01 234.66L274.01 207.06L274.01 207.06L224.81 207.06z" /></clipPath><clipPath id="61"><path d="M224.81 234.66L274.01 234.66L274.01 234.66L274.01 207.06L274.01 207.06L224.81 207.06z" /></clipPath><clipPath id="62"><path d="M274.49 234.67L387.2 234.67L387.2 234.67L387.2 207.07L387.2 207.07L274.49 207.07z" /></clipPath><clipPath id="63"><path d="M274.49 234.66L387.19 234.66L387.19 234.66L387.19 207.06L387.19 207.06L274.49 207.06z" /></clipPath><clipPath id="64"><path d="M274.49 234.66L387.19 234.66L387.19 234.66L387.19 207.06L387.19 207.06L274.49 207.06z" /></clipPath><clipPath id="65"><path d="M387.68 234.67L510.7 234.67L510.7 234.67L510.7 207.07L510.7 207.07L387.68 207.07z" /></clipPath><clipPath id="66"><path d="M387.67 234.66L510.69 234.66L510.69 234.66L510.69 207.06L510.69 207.06L387.67 207.06z" /></clipPath><clipPath id="67"><path d="M387.67 234.66L510.69 234.66L510.69 234.66L510.69 207.06L510.69 207.06L387.67 207.06z" /></clipPath><clipPath id="68"><path d="M387.67 234.66L510.69 234.66L510.69 234.66L510.69 207.06L510.69 207.06L387.67 207.06z" /></clipPath><clipPath id="69"><path d="M84.751 280.99L169.591 280.99L169.591 280.99L169.591 235.15L169.591 235.15L84.751 235.15z" /></clipPath><clipPath id="70"><path d="M84.744 280.98L169.584 280.98L169.584 280.98L169.584 235.14L169.584 235.14L84.744 235.14z" /></clipPath><clipPath id="71"><path d="M84.744 280.98L169.584 280.98L169.584 280.98L169.584 235.14L169.584 235.14L84.744 235.14z" /></clipPath><clipPath id="72"><path d="M170.19 280.99L224.325 280.99L224.325 280.99L224.325 235.15L224.325 235.15L170.19 235.15z" /></clipPath><clipPath id="73"><path d="M170.18 280.98L224.324 280.98L224.324 280.98L224.324 235.14L224.324 235.14L170.18 235.14z" /></clipPath><clipPath id="74"><path d="M170.18 280.98L224.324 280.98L224.324 280.98L224.324 235.14L224.324 235.14L170.18 235.14z" /></clipPath><clipPath id="75"><path d="M224.81 280.99L274.01 280.99L274.01 280.99L274.01 235.15L274.01 235.15L224.81 235.15z" /></clipPath><clipPath id="76"><path d="M224.81 280.98L274.01 280.98L274.01 280.98L274.01 235.14L274.01 235.14L224.81 235.14z" /></clipPath><clipPath id="77"><path d="M224.81 280.98L274.01 280.98L274.01 280.98L274.01 235.14L274.01 235.14L224.81 235.14z" /></clipPath><clipPath id="78"><path d="M274.49 280.99L387.2 280.99L387.2 280.99L387.2 235.15L387.2 235.15L274.49 235.15z" /></clipPath><clipPath id="79"><path d="M274.49 280.98L387.19 280.98L387.19 280.98L387.19 235.14L387.19 235.14L274.49 235.14z" /></clipPath><clipPath id="80"><path d="M274.49 280.98L387.19 280.98L387.19 280.98L387.19 235.14L387.19 235.14L274.49 235.14z" /></clipPath><clipPath id="81"><path d="M387.68 280.99L510.7 280.99L510.7 280.99L510.7 235.15L510.7 235.15L387.68 235.15z" /></clipPath><clipPath id="82"><path d="M387.67 280.98L510.69 280.98L510.69 280.98L510.69 235.14L510.69 235.14L387.67 235.14z" /></clipPath><clipPath id="83"><path d="M387.67 280.98L510.69 280.98L510.69 280.98L510.69 235.14L510.69 235.14L387.67 235.14z" /></clipPath><clipPath id="84"><path d="M387.67 280.98L510.69 280.98L510.69 280.98L510.69 235.14L510.69 235.14L387.67 235.14z" /></clipPath><clipPath id="85"><path d="M84.751 309.21L169.591 309.21L169.591 309.21L169.591 281.475L169.591 281.475L84.751 281.475z" /></clipPath><clipPath id="86"><path d="M84.744 309.21L169.584 309.21L169.584 309.21L169.584 281.466L169.584 281.466L84.744 281.466z" /></clipPath><clipPath id="87"><path d="M84.744 309.21L169.584 309.21L169.584 309.21L169.584 281.466L169.584 281.466L84.744 281.466z" /></clipPath><clipPath id="88"><path d="M170.19 309.21L224.325 309.21L224.325 309.21L224.325 281.475L224.325 281.475L170.19 281.475z" /></clipPath><clipPath id="89"><path d="M170.18 309.21L224.324 309.21L224.324 309.21L224.324 281.466L224.324 281.466L170.18 281.466z" /></clipPath><clipPath id="90"><path d="M170.18 309.21L224.324 309.21L224.324 309.21L224.324 281.466L224.324 281.466L170.18 281.466z" /></clipPath><clipPath id="91"><path d="M224.81 309.21L274.01 309.21L274.01 309.21L274.01 281.475L274.01 281.475L224.81 281.475z" /></clipPath><clipPath id="92"><path d="M224.81 309.21L274.01 309.21L274.01 309.21L274.01 281.466L274.01 281.466L224.81 281.466z" /></clipPath><clipPath id="93"><path d="M224.81 309.21L274.01 309.21L274.01 309.21L274.01 281.466L274.01 281.466L224.81 281.466z" /></clipPath><clipPath id="94"><path d="M274.49 309.21L387.2 309.21L387.2 309.21L387.2 281.475L387.2 281.475L274.49 281.475z" /></clipPath><clipPath id="95"><path d="M274.49 309.21L387.19 309.21L387.19 309.21L387.19 281.466L387.19 281.466L274.49 281.466z" /></clipPath><clipPath id="96"><path d="M274.49 309.21L387.19 309.21L387.19 309.21L387.19 281.466L387.19 281.466L274.49 281.466z" /></clipPath><clipPath id="97"><path d="M387.68 309.21L510.7 309.21L510.7 309.21L510.7 281.475L510.7 281.475L387.68 281.475z" /></clipPath><clipPath id="98"><path d="M387.67 309.21L510.69 309.21L510.69 309.21L510.69 281.466L510.69 281.466L387.67 281.466z" /></clipPath><clipPath id="99"><path d="M387.67 309.21L510.69 309.21L510.69 309.21L510.69 281.466L510.69 281.466L387.67 281.466z" /></clipPath><clipPath id="100"><path d="M84.751 370.41L169.591 370.41L169.591 370.41L169.591 309.69L169.591 309.69L84.751 309.69z" /></clipPath><clipPath id="101"><path d="M84.744 370.41L169.584 370.41L169.584 370.41L169.584 309.69L169.584 309.69L84.744 309.69z" /></clipPath><clipPath id="102"><path d="M84.744 370.41L169.584 370.41L169.584 370.41L169.584 309.69L169.584 309.69L84.744 309.69z" /></clipPath><clipPath id="103"><path d="M84.744 370.41L169.584 370.41L169.584 370.41L169.584 309.69L169.584 309.69L84.744 309.69z" /></clipPath><clipPath id="104"><path d="M170.19 370.41L224.325 370.41L224.325 370.41L224.325 309.69L224.325 309.69L170.19 309.69z" /></clipPath><clipPath id="105"><path d="M170.18 370.41L224.324 370.41L224.324 370.41L224.324 309.69L224.324 309.69L170.18 309.69z" /></clipPath><clipPath id="106"><path d="M170.18 370.41L224.324 370.41L224.324 370.41L224.324 309.69L224.324 309.69L170.18 309.69z" /></clipPath><clipPath id="107"><path d="M224.81 370.41L274.01 370.41L274.01 370.41L274.01 309.69L274.01 309.69L224.81 309.69z" /></clipPath><clipPath id="108"><path d="M224.81 370.41L274.01 370.41L274.01 370.41L274.01 309.69L274.01 309.69L224.81 309.69z" /></clipPath><clipPath id="109"><path d="M224.81 370.41L274.01 370.41L274.01 370.41L274.01 309.69L274.01 309.69L224.81 309.69z" /></clipPath><clipPath id="110"><path d="M274.49 370.41L387.2 370.41L387.2 370.41L387.2 309.69L387.2 309.69L274.49 309.69z" /></clipPath><clipPath id="111"><path d="M274.49 370.41L387.19 370.41L387.19 370.41L387.19 309.69L387.19 309.69L274.49 309.69z" /></clipPath><clipPath id="112"><path d="M274.49 370.41L387.19 370.41L387.19 370.41L387.19 309.69L387.19 309.69L274.49 309.69z" /></clipPath><clipPath id="113"><path d="M274.49 370.41L387.19 370.41L387.19 370.41L387.19 309.69L387.19 309.69L274.49 309.69z" /></clipPath><clipPath id="114"><path d="M274.49 370.41L387.19 370.41L387.19 370.41L387.19 309.69L387.19 309.69L274.49 309.69z" /></clipPath><clipPath id="115"><path d="M387.68 370.41L510.7 370.41L510.7 370.41L510.7 309.69L510.7 309.69L387.68 309.69z" /></clipPath><clipPath id="116"><path d="M387.67 370.41L510.69 370.41L510.69 370.41L510.69 309.69L510.69 309.69L387.67 309.69z" /></clipPath><clipPath id="117"><path d="M387.67 370.41L510.69 370.41L510.69 370.41L510.69 309.69L510.69 309.69L387.67 309.69z" /></clipPath><clipPath id="118"><path d="M387.67 370.41L510.69 370.41L510.69 370.41L510.69 309.69L510.69 309.69L387.67 309.69z" /></clipPath><clipPath id="119"><path d="M387.67 370.41L510.69 370.41L510.69 370.41L510.69 309.69L510.69 309.69L387.67 309.69z" /></clipPath><clipPath id="120"><path d="M387.67 370.41L510.69 370.41L510.69 370.41L510.69 309.69L510.69 309.69L387.67 309.69z" /></clipPath><clipPath id="121"><path d="M387.67 370.41L510.69 370.41L510.69 370.41L510.69 309.69L510.69 309.69L387.67 309.69z" /></clipPath><clipPath id="122"><path d="M84.751 409.53L510.691 409.53L510.691 409.53L510.691 390.45L510.691 390.45L84.751 390.45z" /></clipPath><clipPath id="123"><path d="M84.744 409.53L510.694 409.53L510.694 409.53L510.694 390.45L510.694 390.45L84.744 390.45z" /></clipPath><clipPath id="124"><path d="M84.744 409.53L510.694 409.53L510.694 409.53L510.694 390.45L510.694 390.45L84.744 390.45z" /></clipPath><clipPath id="125"><path d="M84.744 409.53L510.694 409.53L510.694 409.53L510.694 390.45L510.694 390.45L84.744 390.45z" /></clipPath><clipPath id="126"><path d="M84.751 562.44L510.691 562.44L510.691 562.44L510.691 410.01L510.691 410.01L84.751 410.01z" /></clipPath><clipPath id="127"><path d="M84.744 562.43L510.694 562.43L510.694 562.43L510.694 410.01L510.694 410.01L84.744 410.01z" /></clipPath><clipPath id="128"><path d="M84.744 562.43L510.694 562.43L510.694 562.43L510.694 410.01L510.694 410.01L84.744 410.01z" /></clipPath><clipPath id="129"><path d="M84.744 562.43L510.694 562.43L510.694 562.43L510.694 410.01L510.694 410.01L84.744 410.01z" /></clipPath><clipPath id="130"><path d="M84.744 562.43L510.694 562.43L510.694 562.43L510.694 410.01L510.694 410.01L84.744 410.01z" /></clipPath><clipPath id="131"><path d="M84.744 562.43L510.694 562.43L510.694 562.43L510.694 410.01L510.694 410.01L84.744 410.01z" /></clipPath><clipPath id="132"><path d="M84.744 562.43L510.694 562.43L510.694 562.43L510.694 410.01L510.694 410.01L84.744 410.01z" /></clipPath><clipPath id="133"><path d="M84.744 562.43L510.694 562.43L510.694 562.43L510.694 410.01L510.694 410.01L84.744 410.01z" /></clipPath><clipPath id="134"><path d="M84.744 562.43L510.694 562.43L510.694 562.43L510.694 410.01L510.694 410.01L84.744 410.01z" /></clipPath><clipPath id="135"><path d="M84.744 562.43L510.694 562.43L510.694 562.43L510.694 410.01L510.694 410.01L84.744 410.01z" /></clipPath><clipPath id="136"><path d="M84.744 562.43L510.694 562.43L510.694 562.43L510.694 410.01L510.694 410.01L84.744 410.01z" /></clipPath><clipPath id="137"><path d="M84.744 562.43L510.694 562.43L510.694 562.43L510.694 410.01L510.694 410.01L84.744 410.01z" /></clipPath><clipPath id="138"><path d="M84.744 562.43L510.694 562.43L510.694 562.43L510.694 410.01L510.694 410.01L84.744 410.01z" /></clipPath><clipPath id="139"><path d="M84.744 562.43L510.694 562.43L510.694 562.43L510.694 410.01L510.694 410.01L84.744 410.01z" /></clipPath><clipPath id="140"><path d="M84.744 562.43L510.694 562.43L510.694 562.43L510.694 410.01L510.694 410.01L84.744 410.01z" /></clipPath><clipPath id="141"><path d="M84.744 562.43L510.694 562.43L510.694 562.43L510.694 410.01L510.694 410.01L84.744 410.01z" /></clipPath><clipPath id="142"><path d="M84.744 562.43L510.694 562.43L510.694 562.43L510.694 410.01L510.694 410.01L84.744 410.01z" /></clipPath><clipPath id="143"><path d="M84.744 562.43L510.694 562.43L510.694 562.43L510.694 410.01L510.694 410.01L84.744 410.01z" /></clipPath><clipPath id="144"><path d="M84.744 562.43L510.694 562.43L510.694 562.43L510.694 410.01L510.694 410.01L84.744 410.01z" /></clipPath><clipPath id="145"><path d="M84.744 562.43L510.694 562.43L510.694 562.43L510.694 410.01L510.694 410.01L84.744 410.01z" /></clipPath><clipPath id="146"><path d="M84.744 562.43L510.694 562.43L510.694 562.43L510.694 410.01L510.694 410.01L84.744 410.01z" /></clipPath><clipPath id="147"><path d="M84.744 562.43L510.694 562.43L510.694 562.43L510.694 410.01L510.694 410.01L84.744 410.01z" /></clipPath><clipPath id="148"><path d="M75.871 723.61L520.771 723.61L520.771 723.61L520.771 681.61L520.771 681.61L75.871 681.61z" /></clipPath><clipPath id="149"><path d="M85.344 723.14L170.184 723.14L170.184 723.14L170.184 682.1L170.184 682.1L85.344 682.1z" /></clipPath><clipPath id="150"><path d="M85.344 723.14L170.184 723.14L170.184 723.14L170.184 682.1L170.184 682.1L85.344 682.1z" /></clipPath><clipPath id="151"><path d="M85.344 723.14L170.184 723.14L170.184 723.14L170.184 682.1L170.184 682.1L85.344 682.1z" /></clipPath><clipPath id="152"><path d="M170.66 723.14L232.004 723.14L232.004 723.14L232.004 682.1L232.004 682.1L170.66 682.1z" /></clipPath><clipPath id="153"><path d="M170.66 723.14L232.004 723.14L232.004 723.14L232.004 682.1L232.004 682.1L170.66 682.1z" /></clipPath><clipPath id="154"><path d="M170.66 723.14L232.004 723.14L232.004 723.14L232.004 682.1L232.004 682.1L170.66 682.1z" /></clipPath><clipPath id="155"><path d="M232.61 723.14L274.61 723.14L274.61 723.14L274.61 682.1L274.61 682.1L232.61 682.1z" /></clipPath><clipPath id="156"><path d="M232.61 723.14L274.61 723.14L274.61 723.14L274.61 682.1L274.61 682.1L232.61 682.1z" /></clipPath><clipPath id="157"><path d="M232.61 723.14L274.61 723.14L274.61 723.14L274.61 682.1L274.61 682.1L232.61 682.1z" /></clipPath><clipPath id="158"><path d="M232.61 723.14L274.61 723.14L274.61 723.14L274.61 682.1L274.61 682.1L232.61 682.1z" /></clipPath><clipPath id="159"><path d="M275.09 723.14L394.99 723.14L394.99 723.14L394.99 682.1L394.99 682.1L275.09 682.1z" /></clipPath><clipPath id="160"><path d="M275.09 723.14L394.99 723.14L394.99 723.14L394.99 682.1L394.99 682.1L275.09 682.1z" /></clipPath><clipPath id="161"><path d="M275.09 723.14L394.99 723.14L394.99 723.14L394.99 682.1L394.99 682.1L275.09 682.1z" /></clipPath><clipPath id="162"><path d="M395.47 723.14L511.29 723.14L511.29 723.14L511.29 682.1L511.29 682.1L395.47 682.1z" /></clipPath><clipPath id="163"><path d="M395.47 723.14L511.29 723.14L511.29 723.14L511.29 682.1L511.29 682.1L395.47 682.1z" /></clipPath><clipPath id="164"><path d="M395.47 723.14L511.29 723.14L511.29 723.14L511.29 682.1L511.29 682.1L395.47 682.1z" /></clipPath></defs><g transform="matrix(1.333333 0 0 1.333333 0 0)"><g><g clip-path="url(#1)"><path transform="matrix(1 0 0 -1 0 841)" d="M457.63 53.424L505.534 53.424L505.534 53.424L505.534 54.02404L505.534 54.02404L457.63 54.02404z" stroke="none" fill="#000000" fill-rule="evenodd" /><g clip-path="url(#2)"><path transform="matrix(1 0 0 -1 0 841)" d="M88.464 78.984L506.974 78.984L506.974 78.984L506.974 81.984L506.974 81.984L88.464 81.984z" stroke="none" fill="#000000" fill-rule="evenodd" /><path transform="matrix(1 0 0 -1 0 841)" d="M88.464 77.544L506.974 77.544L506.974 77.544L506.974 78.26397L506.974 78.26397L88.464 78.26397z" stroke="none" fill="#000000" fill-rule="evenodd" /></g><g clip-path="url(#3)"><g clip-path="url(#4)"></g><g clip-path="url(#5)"></g></g><path transform="matrix(1 0 0 -1 0 841)" d="M84.744 723.94L169.584 723.94L169.584 723.94L169.584 751.564L169.584 751.564L84.744 751.564z" stroke="none" fill="#0070C0" fill-rule="evenodd" /><g clip-path="url(#6)"><path transform="matrix(1 0 0 -1 0 841)" d="M89.904 723.94L164.424 723.94L164.424 723.94L164.424 751.564L164.424 751.564L89.904 751.564z" stroke="none" fill="#0070C0" fill-rule="evenodd" /><g clip-path="url(#7)"></g><g clip-path="url(#8)"></g></g><path transform="matrix(1 0 0 -1 0 841)" d="M170.18 723.94L224.324 723.94L224.324 723.94L224.324 751.564L224.324 751.564L170.18 751.564z" stroke="none" fill="#0070C0" fill-rule="evenodd" /><g clip-path="url(#9)"><path transform="matrix(1 0 0 -1 0 841)" d="M175.22 723.94L219.164 723.94L219.164 723.94L219.164 751.564L219.164 751.564L175.22 751.564z" stroke="none" fill="#0070C0" fill-rule="evenodd" /><g clip-path="url(#10)"></g><g clip-path="url(#11)"></g></g><path transform="matrix(1 0 0 -1 0 841)" d="M224.81 723.94L274.01 723.94L274.01 723.94L274.01 751.564L274.01 751.564L224.81 751.564z" stroke="none" fill="#0070C0" fill-rule="evenodd" /><g clip-path="url(#12)"><path transform="matrix(1 0 0 -1 0 841)" d="M229.97 723.94L268.85 723.94L268.85 723.94L268.85 751.564L268.85 751.564L229.97 751.564z" stroke="none" fill="#0070C0" fill-rule="evenodd" /><g clip-path="url(#13)"></g><g clip-path="url(#14)"></g></g><path transform="matrix(1 0 0 -1 0 841)" d="M274.49 723.94L387.19 723.94L387.19 723.94L387.19 751.564L387.19 751.564L274.49 751.564z" stroke="none" fill="#0070C0" fill-rule="evenodd" /><g clip-path="url(#15)"><path transform="matrix(1 0 0 -1 0 841)" d="M279.65 723.94L382.03 723.94L382.03 723.94L382.03 751.564L382.03 751.564L279.65 751.564z" stroke="none" fill="#0070C0" fill-rule="evenodd" /><g clip-path="url(#16)"></g><g clip-path="url(#17)"></g></g><path transform="matrix(1 0 0 -1 0 841)" d="M387.67 723.94L510.69 723.94L510.69 723.94L510.69 751.564L510.69 751.564L387.67 751.564z" stroke="none" fill="#0070C0" fill-rule="evenodd" /><g clip-path="url(#18)"><path transform="matrix(1 0 0 -1 0 841)" d="M392.83 723.94L505.53 723.94L505.53 723.94L505.53 751.564L505.53 751.564L392.83 751.564z" stroke="none" fill="#0070C0" fill-rule="evenodd" /><g clip-path="url(#19)"></g><g clip-path="url(#20)"></g></g><path transform="matrix(1 0 0 -1 0 841)" d="M84.264 751.56L84.744 751.56L84.744 751.56L84.744 752.04L84.744 752.04L84.264 752.04z" stroke="none" fill="#000000" fill-rule="evenodd" /><path transform="matrix(1 0 0 -1 0 841)" d="M84.264 751.56L84.744 751.56L84.744 751.56L84.744 752.04L84.744 752.04L84.264 752.04z" stroke="none" fill="#000000" fill-rule="evenodd" /><path transform="matrix(1 0 0 -1 0 841)" d="M84.744 751.56L169.704 751.56L169.704 751.56L169.704 752.04L169.704 752.04L84.744 752.04z" stroke="none" fill="#000000" fill-rule="evenodd" /><path transform="matrix(1 0 0 -1 0 841)" d="M169.7 751.56L170.18 751.56L170.18 751.56L170.18 752.04L170.18 752.04L169.7 752.04z" stroke="none" fill="#000000" fill-rule="evenodd" /><path transform="matrix(1 0 0 -1 0 841)" d="M170.18 751.56L224.324 751.56L224.324 751.56L224.324 752.04L224.324 752.04L170.18 752.04z" stroke="none" fill="#000000" fill-rule="evenodd" /><path transform="matrix(1 0 0 -1 0 841)" d="M224.33 751.56L224.81 751.56L224.81 751.56L224.81 752.04L224.81 752.04L224.33 752.04z" stroke="none" fill="#000000" fill-rule="evenodd" /><path transform="matrix(1 0 0 -1 0 841)" d="M224.81 751.56L274.01 751.56L274.01 751.56L274.01 752.04L274.01 752.04L224.81 752.04z" stroke="none" fill="#000000" fill-rule="evenodd" /><path transform="matrix(1 0 0 -1 0 841)" d="M274.01 751.56L274.49 751.56L274.49 751.56L274.49 752.04L274.49 752.04L274.01 752.04z" stroke="none" fill="#000000" fill-rule="evenodd" /><path transform="matrix(1 0 0 -1 0 841)" d="M274.49 751.56L387.19 751.56L387.19 751.56L387.19 752.04L387.19 752.04L274.49 752.04z" stroke="none" fill="#000000" fill-rule="evenodd" /><path transform="matrix(1 0 0 -1 0 841)" d="M387.19 751.56L387.67 751.56L387.67 751.56L387.67 752.04L387.67 752.04L387.19 752.04z" stroke="none" fill="#000000" fill-rule="evenodd" /><path transform="matrix(1 0 0 -1 0 841)" d="M387.67 751.56L510.69 751.56L510.69 751.56L510.69 752.04L510.69 752.04L387.67 752.04z" stroke="none" fill="#000000" fill-rule="evenodd" /><path transform="matrix(1 0 0 -1 0 841)" d="M510.7 751.56L511.18 751.56L511.18 751.56L511.18 752.04L511.18 752.04L510.7 752.04z" stroke="none" fill="#000000" fill-rule="evenodd" /><path transform="matrix(1 0 0 -1 0 841)" d="M510.7 751.56L511.18 751.56L511.18 751.56L511.18 752.04L511.18 752.04L510.7 752.04z" stroke="none" fill="#000000" fill-rule="evenodd" /><path transform="matrix(1 0 0 -1 0 841)" d="M84.264 723.94L84.744 723.94L84.744 723.94L84.744 751.564L84.744 751.564L84.264 751.564z" stroke="none" fill="#000000" fill-rule="evenodd" /><path transform="matrix(1 0 0 -1 0 841)" d="M169.7 723.94L170.18 723.94L170.18 723.94L170.18 751.564L170.18 751.564L169.7 751.564z" stroke="none" fill="#000000" fill-rule="evenodd" /><path transform="matrix(1 0 0 -1 0 841)" d="M224.33 723.94L224.81 723.94L224.81 723.94L224.81 751.564L224.81 751.564L224.33 751.564z" stroke="none" fill="#000000" fill-rule="evenodd" /><path transform="matrix(1 0 0 -1 0 841)" d="M274.01 723.94L274.49 723.94L274.49 723.94L274.49 751.564L274.49 751.564L274.01 751.564z" stroke="none" fill="#000000" fill-rule="evenodd" /><path transform="matrix(1 0 0 -1 0 841)" d="M387.19 723.94L387.67 723.94L387.67 723.94L387.67 751.564L387.67 751.564L387.19 751.564z" stroke="none" fill="#000000" fill-rule="evenodd" /><path transform="matrix(1 0 0 -1 0 841)" d="M510.7 723.94L511.18 723.94L511.18 723.94L511.18 751.564L511.18 751.564L510.7 751.564z" stroke="none" fill="#000000" fill-rule="evenodd" /><path transform="matrix(1 0 0 -1 0 841)" d="M84.744 662.62L169.584 662.62L169.584 662.62L169.584 723.34L169.584 723.34L84.744 723.34z" stroke="none" fill="#DAEEF3" fill-rule="evenodd" /><g clip-path="url(#21)"><path transform="matrix(1 0 0 -1 0 841)" d="M89.904 696.82L164.424 696.82L164.424 696.82L164.424 723.34L164.424 723.34L89.904 723.34z" stroke="none" fill="#DAEEF3" fill-rule="evenodd" /><g clip-path="url(#22)"></g><g clip-path="url(#23)"></g></g><path transform="matrix(1 0 0 -1 0 841)" d="M170.18 662.62L224.324 662.62L224.324 662.62L224.324 723.34L224.324 723.34L170.18 723.34z" stroke="none" fill="#DAEEF3" fill-rule="evenodd" /><g clip-path="url(#24)"><path transform="matrix(1 0 0 -1 0 841)" d="M175.22 696.82L219.164 696.82L219.164 696.82L219.164 723.34L219.164 723.34L175.22 723.34z" stroke="none" fill="#DAEEF3" fill-rule="evenodd" /><g clip-path="url(#25)"></g><g clip-path="url(#26)"></g></g><path transform="matrix(1 0 0 -1 0 841)" d="M224.81 662.62L274.01 662.62L274.01 662.62L274.01 723.34L274.01 723.34L224.81 723.34z" stroke="none" fill="#DAEEF3" fill-rule="evenodd" /><g clip-path="url(#27)"><path transform="matrix(1 0 0 -1 0 841)" d="M229.97 695.74L268.85 695.74L268.85 695.74L268.85 723.34L268.85 723.34L229.97 723.34z" stroke="none" fill="#DAEEF3" fill-rule="evenodd" /><g clip-path="url(#28)"></g><g clip-path="url(#29)"></g></g><path transform="matrix(1 0 0 -1 0 841)" d="M274.49 662.62L387.19 662.62L387.19 662.62L387.19 723.34L387.19 723.34L274.49 723.34z" stroke="none" fill="#DAEEF3" fill-rule="evenodd" /><g clip-path="url(#30)"><path transform="matrix(1 0 0 -1 0 841)" d="M279.65 701.5L382.03 701.5L382.03 701.5L382.03 723.34L382.03 723.34L279.65 723.34z" stroke="none" fill="#DAEEF3" fill-rule="evenodd" /><g clip-path="url(#31)"></g><path transform="matrix(1 0 0 -1 0 841)" d="M279.65 684.46L382.03 684.46L382.03 684.46L382.03 701.5L382.03 701.5L279.65 701.5z" stroke="none" fill="#DAEEF3" fill-rule="evenodd" /><g clip-path="url(#32)"></g><path transform="matrix(1 0 0 -1 0 841)" d="M279.65 662.62L382.03 662.62L382.03 662.62L382.03 684.46L382.03 684.46L279.65 684.46z" stroke="none" fill="#DAEEF3" fill-rule="evenodd" /><g clip-path="url(#33)"></g><g clip-path="url(#34)"></g></g><path transform="matrix(1 0 0 -1 0 841)" d="M387.67 662.62L510.69 662.62L510.69 662.62L510.69 723.34L510.69 723.34L387.67 723.34z" stroke="none" fill="#DAEEF3" fill-rule="evenodd" /><g clip-path="url(#35)"><path transform="matrix(1 0 0 -1 0 841)" d="M392.83 695.74L505.53 695.74L505.53 695.74L505.53 723.34L505.53 723.34L392.83 723.34z" stroke="none" fill="#DAEEF3" fill-rule="evenodd" /><g clip-path="url(#36)"></g><g clip-path="url(#37)"></g></g><path transform="matrix(1 0 0 -1 0 841)" d="M84.264 723.46L84.744 723.46L84.744 723.46L84.744 723.94L84.744 723.94L84.264 723.94z" stroke="none" fill="#000000" fill-rule="evenodd" /><path transform="matrix(1 0 0 -1 0 841)" d="M84.744 723.46L169.704 723.46L169.704 723.46L169.704 723.94L169.704 723.94L84.744 723.94z" stroke="none" fill="#000000" fill-rule="evenodd" /><path transform="matrix(1 0 0 -1 0 841)" d="M169.7 723.46L170.18 723.46L170.18 723.46L170.18 723.94L170.18 723.94L169.7 723.94z" stroke="none" fill="#000000" fill-rule="evenodd" /><path transform="matrix(1 0 0 -1 0 841)" d="M170.18 723.46L224.324 723.46L224.324 723.46L224.324 723.94L224.324 723.94L170.18 723.94z" stroke="none" fill="#000000" fill-rule="evenodd" /><path transform="matrix(1 0 0 -1 0 841)" d="M224.33 723.46L224.81 723.46L224.81 723.46L224.81 723.94L224.81 723.94L224.33 723.94z" stroke="none" fill="#000000" fill-rule="evenodd" /><path transform="matrix(1 0 0 -1 0 841)" d="M224.81 723.46L274.01 723.46L274.01 723.46L274.01 723.94L274.01 723.94L224.81 723.94z" stroke="none" fill="#000000" fill-rule="evenodd" /><path transform="matrix(1 0 0 -1 0 841)" d="M274.01 723.46L274.49 723.46L274.49 723.46L274.49 723.94L274.49 723.94L274.01 723.94z" stroke="none" fill="#000000" fill-rule="evenodd" /><path transform="matrix(1 0 0 -1 0 841)" d="M274.49 723.46L387.19 723.46L387.19 723.46L387.19 723.94L387.19 723.94L274.49 723.94z" stroke="none" fill="#000000" fill-rule="evenodd" /><path transform="matrix(1 0 0 -1 0 841)" d="M387.19 723.46L387.67 723.46L387.67 723.46L387.67 723.94L387.67 723.94L387.19 723.94z" stroke="none" fill="#000000" fill-rule="evenodd" /><path transform="matrix(1 0 0 -1 0 841)" d="M387.67 723.46L510.69 723.46L510.69 723.46L510.69 723.94L510.69 723.94L387.67 723.94z" stroke="none" fill="#000000" fill-rule="evenodd" /><path transform="matrix(1 0 0 -1 0 841)" d="M510.7 723.46L511.18 723.46L511.18 723.46L511.18 723.94L511.18 723.94L510.7 723.94z" stroke="none" fill="#000000" fill-rule="evenodd" /><path transform="matrix(1 0 0 -1 0 841)" d="M84.264 662.62L84.744 662.62L84.744 662.62L84.744 723.46L84.744 723.46L84.264 723.46z" stroke="none" fill="#000000" fill-rule="evenodd" /><path transform="matrix(1 0 0 -1 0 841)" d="M169.7 662.62L170.18 662.62L170.18 662.62L170.18 723.46L170.18 723.46L169.7 723.46z" stroke="none" fill="#000000" fill-rule="evenodd" /><path transform="matrix(1 0 0 -1 0 841)" d="M224.33 662.62L224.81 662.62L224.81 662.62L224.81 723.46L224.81 723.46L224.33 723.46z" stroke="none" fill="#000000" fill-rule="evenodd" /><path transform="matrix(1 0 0 -1 0 841)" d="M274.01 662.62L274.49 662.62L274.49 662.62L274.49 723.46L274.49 723.46L274.01 723.46z" stroke="none" fill="#000000" fill-rule="evenodd" /><path transform="matrix(1 0 0 -1 0 841)" d="M387.19 662.62L387.67 662.62L387.67 662.62L387.67 723.46L387.67 723.46L387.19 723.46z" stroke="none" fill="#000000" fill-rule="evenodd" /><path transform="matrix(1 0 0 -1 0 841)" d="M510.7 662.62L511.18 662.62L511.18 662.62L511.18 723.46L511.18 723.46L510.7 723.46z" stroke="none" fill="#000000" fill-rule="evenodd" /><g clip-path="url(#38)"><g clip-path="url(#39)"></g><g clip-path="url(#40)"></g></g><g clip-path="url(#41)"><g clip-path="url(#42)"></g><g clip-path="url(#43)"></g></g><g clip-path="url(#44)"><g clip-path="url(#45)"></g><g clip-path="url(#46)"></g></g><g clip-path="url(#47)"><g clip-path="url(#48)"></g><g clip-path="url(#49)"></g></g><g clip-path="url(#50)"><g clip-path="url(#51)"></g><g clip-path="url(#52)"></g></g><path transform="matrix(1 0 0 -1 0 841)" d="M84.264 662.14L84.744 662.14L84.744 662.14L84.744 662.62L84.744 662.62L84.264 662.62z" stroke="none" fill="#000000" fill-rule="evenodd" /><path transform="matrix(1 0 0 -1 0 841)" d="M84.744 662.14L169.704 662.14L169.704 662.14L169.704 662.62L169.704 662.62L84.744 662.62z" stroke="none" fill="#000000" fill-rule="evenodd" /><path transform="matrix(1 0 0 -1 0 841)" d="M169.7 662.14L170.18 662.14L170.18 662.14L170.18 662.62L170.18 662.62L169.7 662.62z" stroke="none" fill="#000000" fill-rule="evenodd" /><path transform="matrix(1 0 0 -1 0 841)" d="M170.18 662.14L224.324 662.14L224.324 662.14L224.324 662.62L224.324 662.62L170.18 662.62z" stroke="none" fill="#000000" fill-rule="evenodd" /><path transform="matrix(1 0 0 -1 0 841)" d="M224.33 662.14L224.81 662.14L224.81 662.14L224.81 662.62L224.81 662.62L224.33 662.62z" stroke="none" fill="#000000" fill-rule="evenodd" /><path transform="matrix(1 0 0 -1 0 841)" d="M224.81 662.14L274.01 662.14L274.01 662.14L274.01 662.62L274.01 662.62L224.81 662.62z" stroke="none" fill="#000000" fill-rule="evenodd" /><path transform="matrix(1 0 0 -1 0 841)" d="M274.01 662.14L274.49 662.14L274.49 662.14L274.49 662.62L274.49 662.62L274.01 662.62z" stroke="none" fill="#000000" fill-rule="evenodd" /><path transform="matrix(1 0 0 -1 0 841)" d="M274.49 662.14L387.19 662.14L387.19 662.14L387.19 662.62L387.19 662.62L274.49 662.62z" stroke="none" fill="#000000" fill-rule="evenodd" /><path transform="matrix(1 0 0 -1 0 841)" d="M387.19 662.14L387.67 662.14L387.67 662.14L387.67 662.62L387.67 662.62L387.19 662.62z" stroke="none" fill="#000000" fill-rule="evenodd" /><path transform="matrix(1 0 0 -1 0 841)" d="M387.67 662.14L510.69 662.14L510.69 662.14L510.69 662.62L510.69 662.62L387.67 662.62z" stroke="none" fill="#000000" fill-rule="evenodd" /><path transform="matrix(1 0 0 -1 0 841)" d="M510.7 662.14L511.18 662.14L511.18 662.14L511.18 662.62L511.18 662.62L510.7 662.62z" stroke="none" fill="#000000" fill-rule="evenodd" /><path transform="matrix(1 0 0 -1 0 841)" d="M84.264 634.42L84.744 634.42L84.744 634.42L84.744 662.14L84.744 662.14L84.264 662.14z" stroke="none" fill="#000000" fill-rule="evenodd" /><path transform="matrix(1 0 0 -1 0 841)" d="M169.7 634.42L170.18 634.42L170.18 634.42L170.18 662.14L170.18 662.14L169.7 662.14z" stroke="none" fill="#000000" fill-rule="evenodd" /><path transform="matrix(1 0 0 -1 0 841)" d="M224.33 634.42L224.81 634.42L224.81 634.42L224.81 662.14L224.81 662.14L224.33 662.14z" stroke="none" fill="#000000" fill-rule="evenodd" /><path transform="matrix(1 0 0 -1 0 841)" d="M274.01 634.42L274.49 634.42L274.49 634.42L274.49 662.14L274.49 662.14L274.01 662.14z" stroke="none" fill="#000000" fill-rule="evenodd" /><path transform="matrix(1 0 0 -1 0 841)" d="M387.19 634.42L387.67 634.42L387.67 634.42L387.67 662.14L387.67 662.14L387.19 662.14z" stroke="none" fill="#000000" fill-rule="evenodd" /><path transform="matrix(1 0 0 -1 0 841)" d="M510.7 634.42L511.18 634.42L511.18 634.42L511.18 662.14L511.18 662.14L510.7 662.14z" stroke="none" fill="#000000" fill-rule="evenodd" /><path transform="matrix(1 0 0 -1 0 841)" d="M84.744 606.34L169.584 606.34L169.584 606.34L169.584 633.94L169.584 633.94L84.744 633.94z" stroke="none" fill="#DAEEF3" fill-rule="evenodd" /><g clip-path="url(#53)"><path transform="matrix(1 0 0 -1 0 841)" d="M89.904 607.42L164.424 607.42L164.424 607.42L164.424 633.94L164.424 633.94L89.904 633.94z" stroke="none" fill="#DAEEF3" fill-rule="evenodd" /><g clip-path="url(#54)"></g><g clip-path="url(#55)"></g></g><path transform="matrix(1 0 0 -1 0 841)" d="M170.18 606.34L224.324 606.34L224.324 606.34L224.324 633.94L224.324 633.94L170.18 633.94z" stroke="none" fill="#DAEEF3" fill-rule="evenodd" /><g clip-path="url(#56)"><path transform="matrix(1 0 0 -1 0 841)" d="M175.22 607.42L219.164 607.42L219.164 607.42L219.164 633.94L219.164 633.94L175.22 633.94z" stroke="none" fill="#DAEEF3" fill-rule="evenodd" /><g clip-path="url(#57)"></g><g clip-path="url(#58)"></g></g><path transform="matrix(1 0 0 -1 0 841)" d="M224.81 606.34L274.01 606.34L274.01 606.34L274.01 633.94L274.01 633.94L224.81 633.94z" stroke="none" fill="#DAEEF3" fill-rule="evenodd" /><g clip-path="url(#59)"><path transform="matrix(1 0 0 -1 0 841)" d="M229.97 606.34L268.85 606.34L268.85 606.34L268.85 633.94L268.85 633.94L229.97 633.94z" stroke="none" fill="#DAEEF3" fill-rule="evenodd" /><g clip-path="url(#60)"></g><g clip-path="url(#61)"></g></g><path transform="matrix(1 0 0 -1 0 841)" d="M274.49 606.34L387.19 606.34L387.19 606.34L387.19 633.94L387.19 633.94L274.49 633.94z" stroke="none" fill="#DAEEF3" fill-rule="evenodd" /><g clip-path="url(#62)"><path transform="matrix(1 0 0 -1 0 841)" d="M279.65 607.42L382.03 607.42L382.03 607.42L382.03 633.94L382.03 633.94L279.65 633.94z" stroke="none" fill="#DAEEF3" fill-rule="evenodd" /><g clip-path="url(#63)"></g><g clip-path="url(#64)"></g></g><path transform="matrix(1 0 0 -1 0 841)" d="M387.67 606.34L510.69 606.34L510.69 606.34L510.69 633.94L510.69 633.94L387.67 633.94z" stroke="none" fill="#DAEEF3" fill-rule="evenodd" /><g clip-path="url(#65)"><path transform="matrix(1 0 0 -1 0 841)" d="M392.83 606.34L505.53 606.34L505.53 606.34L505.53 633.94L505.53 633.94L392.83 633.94z" stroke="none" fill="#DAEEF3" fill-rule="evenodd" /><g clip-path="url(#66)"></g><g clip-path="url(#67)"></g><g clip-path="url(#68)"></g></g><path transform="matrix(1 0 0 -1 0 841)" d="M84.264 633.94L84.744 633.94L84.744 633.94L84.744 634.42L84.744 634.42L84.264 634.42z" stroke="none" fill="#000000" fill-rule="evenodd" /><path transform="matrix(1 0 0 -1 0 841)" d="M84.744 633.94L169.704 633.94L169.704 633.94L169.704 634.42L169.704 634.42L84.744 634.42z" stroke="none" fill="#000000" fill-rule="evenodd" /><path transform="matrix(1 0 0 -1 0 841)" d="M169.7 633.94L170.18 633.94L170.18 633.94L170.18 634.42L170.18 634.42L169.7 634.42z" stroke="none" fill="#000000" fill-rule="evenodd" /><path transform="matrix(1 0 0 -1 0 841)" d="M170.18 633.94L224.324 633.94L224.324 633.94L224.324 634.42L224.324 634.42L170.18 634.42z" stroke="none" fill="#000000" fill-rule="evenodd" /><path transform="matrix(1 0 0 -1 0 841)" d="M224.33 633.94L224.81 633.94L224.81 633.94L224.81 634.42L224.81 634.42L224.33 634.42z" stroke="none" fill="#000000" fill-rule="evenodd" /><path transform="matrix(1 0 0 -1 0 841)" d="M224.81 633.94L274.01 633.94L274.01 633.94L274.01 634.42L274.01 634.42L224.81 634.42z" stroke="none" fill="#000000" fill-rule="evenodd" /><path transform="matrix(1 0 0 -1 0 841)" d="M274.01 633.94L274.49 633.94L274.49 633.94L274.49 634.42L274.49 634.42L274.01 634.42z" stroke="none" fill="#000000" fill-rule="evenodd" /><path transform="matrix(1 0 0 -1 0 841)" d="M274.49 633.94L387.19 633.94L387.19 633.94L387.19 634.42L387.19 634.42L274.49 634.42z" stroke="none" fill="#000000" fill-rule="evenodd" /><path transform="matrix(1 0 0 -1 0 841)" d="M387.19 633.94L387.67 633.94L387.67 633.94L387.67 634.42L387.67 634.42L387.19 634.42z" stroke="none" fill="#000000" fill-rule="evenodd" /><path transform="matrix(1 0 0 -1 0 841)" d="M387.67 633.94L510.69 633.94L510.69 633.94L510.69 634.42L510.69 634.42L387.67 634.42z" stroke="none" fill="#000000" fill-rule="evenodd" /><path transform="matrix(1 0 0 -1 0 841)" d="M510.7 633.94L511.18 633.94L511.18 633.94L511.18 634.42L511.18 634.42L510.7 634.42z" stroke="none" fill="#000000" fill-rule="evenodd" /><path transform="matrix(1 0 0 -1 0 841)" d="M84.264 606.34L84.744 606.34L84.744 606.34L84.744 633.94L84.744 633.94L84.264 633.94z" stroke="none" fill="#000000" fill-rule="evenodd" /><path transform="matrix(1 0 0 -1 0 841)" d="M169.7 606.34L170.18 606.34L170.18 606.34L170.18 633.94L170.18 633.94L169.7 633.94z" stroke="none" fill="#000000" fill-rule="evenodd" /><path transform="matrix(1 0 0 -1 0 841)" d="M224.33 606.34L224.81 606.34L224.81 606.34L224.81 633.94L224.81 633.94L224.33 633.94z" stroke="none" fill="#000000" fill-rule="evenodd" /><path transform="matrix(1 0 0 -1 0 841)" d="M274.01 606.34L274.49 606.34L274.49 606.34L274.49 633.94L274.49 633.94L274.01 633.94z" stroke="none" fill="#000000" fill-rule="evenodd" /><path transform="matrix(1 0 0 -1 0 841)" d="M387.19 606.34L387.67 606.34L387.67 606.34L387.67 633.94L387.67 633.94L387.19 633.94z" stroke="none" fill="#000000" fill-rule="evenodd" /><path transform="matrix(1 0 0 -1 0 841)" d="M510.7 606.34L511.18 606.34L511.18 606.34L511.18 633.94L511.18 633.94L510.7 633.94z" stroke="none" fill="#000000" fill-rule="evenodd" /><g clip-path="url(#69)"><g clip-path="url(#70)"></g><g clip-path="url(#71)"></g></g><g clip-path="url(#72)"><g clip-path="url(#73)"></g><g clip-path="url(#74)"></g></g><g clip-path="url(#75)"><g clip-path="url(#76)"></g><g clip-path="url(#77)"></g></g><g clip-path="url(#78)"><g clip-path="url(#79)"></g><g clip-path="url(#80)"></g></g><g clip-path="url(#81)"><g clip-path="url(#82)"></g><g clip-path="url(#83)"></g><g clip-path="url(#84)"></g></g><path transform="matrix(1 0 0 -1 0 841)" d="M84.264 605.86L84.744 605.86L84.744 605.86L84.744 606.34L84.744 606.34L84.264 606.34z" stroke="none" fill="#000000" fill-rule="evenodd" /><path transform="matrix(1 0 0 -1 0 841)" d="M84.744 605.86L169.704 605.86L169.704 605.86L169.704 606.34L169.704 606.34L84.744 606.34z" stroke="none" fill="#000000" fill-rule="evenodd" /><path transform="matrix(1 0 0 -1 0 841)" d="M169.7 605.86L170.18 605.86L170.18 605.86L170.18 606.34L170.18 606.34L169.7 606.34z" stroke="none" fill="#000000" fill-rule="evenodd" /><path transform="matrix(1 0 0 -1 0 841)" d="M170.18 605.86L224.324 605.86L224.324 605.86L224.324 606.34L224.324 606.34L170.18 606.34z" stroke="none" fill="#000000" fill-rule="evenodd" /><path transform="matrix(1 0 0 -1 0 841)" d="M224.33 605.86L224.81 605.86L224.81 605.86L224.81 606.34L224.81 606.34L224.33 606.34z" stroke="none" fill="#000000" fill-rule="evenodd" /><path transform="matrix(1 0 0 -1 0 841)" d="M224.81 605.86L274.01 605.86L274.01 605.86L274.01 606.34L274.01 606.34L224.81 606.34z" stroke="none" fill="#000000" fill-rule="evenodd" /><path transform="matrix(1 0 0 -1 0 841)" d="M274.01 605.86L274.49 605.86L274.49 605.86L274.49 606.34L274.49 606.34L274.01 606.34z" stroke="none" fill="#000000" fill-rule="evenodd" /><path transform="matrix(1 0 0 -1 0 841)" d="M274.49 605.86L387.19 605.86L387.19 605.86L387.19 606.34L387.19 606.34L274.49 606.34z" stroke="none" fill="#000000" fill-rule="evenodd" /><path transform="matrix(1 0 0 -1 0 841)" d="M387.19 605.86L387.67 605.86L387.67 605.86L387.67 606.34L387.67 606.34L387.19 606.34z" stroke="none" fill="#000000" fill-rule="evenodd" /><path transform="matrix(1 0 0 -1 0 841)" d="M387.67 605.86L510.69 605.86L510.69 605.86L510.69 606.34L510.69 606.34L387.67 606.34z" stroke="none" fill="#000000" fill-rule="evenodd" /><path transform="matrix(1 0 0 -1 0 841)" d="M510.7 605.86L511.18 605.86L511.18 605.86L511.18 606.34L511.18 606.34L510.7 606.34z" stroke="none" fill="#000000" fill-rule="evenodd" /><path transform="matrix(1 0 0 -1 0 841)" d="M84.264 560.02L84.744 560.02L84.744 560.02L84.744 605.86L84.744 605.86L84.264 605.86z" stroke="none" fill="#000000" fill-rule="evenodd" /><path transform="matrix(1 0 0 -1 0 841)" d="M169.7 560.02L170.18 560.02L170.18 560.02L170.18 605.86L170.18 605.86L169.7 605.86z" stroke="none" fill="#000000" fill-rule="evenodd" /><path transform="matrix(1 0 0 -1 0 841)" d="M224.33 560.02L224.81 560.02L224.81 560.02L224.81 605.86L224.81 605.86L224.33 605.86z" stroke="none" fill="#000000" fill-rule="evenodd" /><path transform="matrix(1 0 0 -1 0 841)" d="M274.01 560.02L274.49 560.02L274.49 560.02L274.49 605.86L274.49 605.86L274.01 605.86z" stroke="none" fill="#000000" fill-rule="evenodd" /><path transform="matrix(1 0 0 -1 0 841)" d="M387.19 560.02L387.67 560.02L387.67 560.02L387.67 605.86L387.67 605.86L387.19 605.86z" stroke="none" fill="#000000" fill-rule="evenodd" /><path transform="matrix(1 0 0 -1 0 841)" d="M510.7 560.02L511.18 560.02L511.18 560.02L511.18 605.86L511.18 605.86L510.7 605.86z" stroke="none" fill="#000000" fill-rule="evenodd" /><path transform="matrix(1 0 0 -1 0 841)" d="M84.744 531.79L169.584 531.79L169.584 531.79L169.584 559.534L169.584 559.534L84.744 559.534z" stroke="none" fill="#DAEEF3" fill-rule="evenodd" /><g clip-path="url(#85)"><path transform="matrix(1 0 0 -1 0 841)" d="M89.904 532.87L164.424 532.87L164.424 532.87L164.424 559.534L164.424 559.534L89.904 559.534z" stroke="none" fill="#DAEEF3" fill-rule="evenodd" /><g clip-path="url(#86)"></g><g clip-path="url(#87)"></g></g><path transform="matrix(1 0 0 -1 0 841)" d="M170.18 531.79L224.324 531.79L224.324 531.79L224.324 559.534L224.324 559.534L170.18 559.534z" stroke="none" fill="#DAEEF3" fill-rule="evenodd" /><g clip-path="url(#88)"><path transform="matrix(1 0 0 -1 0 841)" d="M175.22 532.87L219.164 532.87L219.164 532.87L219.164 559.534L219.164 559.534L175.22 559.534z" stroke="none" fill="#DAEEF3" fill-rule="evenodd" /><g clip-path="url(#89)"></g><g clip-path="url(#90)"></g></g><path transform="matrix(1 0 0 -1 0 841)" d="M224.81 531.79L274.01 531.79L274.01 531.79L274.01 559.534L274.01 559.534L224.81 559.534z" stroke="none" fill="#DAEEF3" fill-rule="evenodd" /><g clip-path="url(#91)"><path transform="matrix(1 0 0 -1 0 841)" d="M229.97 531.79L268.85 531.79L268.85 531.79L268.85 559.534L268.85 559.534L229.97 559.534z" stroke="none" fill="#DAEEF3" fill-rule="evenodd" /><g clip-path="url(#92)"></g><g clip-path="url(#93)"></g></g><path transform="matrix(1 0 0 -1 0 841)" d="M274.49 531.79L387.19 531.79L387.19 531.79L387.19 559.534L387.19 559.534L274.49 559.534z" stroke="none" fill="#DAEEF3" fill-rule="evenodd" /><g clip-path="url(#94)"><path transform="matrix(1 0 0 -1 0 841)" d="M279.65 532.87L382.03 532.87L382.03 532.87L382.03 559.534L382.03 559.534L279.65 559.534z" stroke="none" fill="#DAEEF3" fill-rule="evenodd" /><g clip-path="url(#95)"></g><g clip-path="url(#96)"></g></g><path transform="matrix(1 0 0 -1 0 841)" d="M387.67 531.79L510.69 531.79L510.69 531.79L510.69 559.534L510.69 559.534L387.67 559.534z" stroke="none" fill="#DAEEF3" fill-rule="evenodd" /><g clip-path="url(#97)"><path transform="matrix(1 0 0 -1 0 841)" d="M392.83 531.79L505.53 531.79L505.53 531.79L505.53 559.534L505.53 559.534L392.83 559.534z" stroke="none" fill="#DAEEF3" fill-rule="evenodd" /><g clip-path="url(#98)"></g><g clip-path="url(#99)"></g></g><path transform="matrix(1 0 0 -1 0 841)" d="M84.264 559.54L84.744 559.54L84.744 559.54L84.744 560.02L84.744 560.02L84.264 560.02z" stroke="none" fill="#000000" fill-rule="evenodd" /><path transform="matrix(1 0 0 -1 0 841)" d="M84.744 559.54L169.704 559.54L169.704 559.54L169.704 560.02L169.704 560.02L84.744 560.02z" stroke="none" fill="#000000" fill-rule="evenodd" /><path transform="matrix(1 0 0 -1 0 841)" d="M169.7 559.54L170.18 559.54L170.18 559.54L170.18 560.02L170.18 560.02L169.7 560.02z" stroke="none" fill="#000000" fill-rule="evenodd" /><path transform="matrix(1 0 0 -1 0 841)" d="M170.18 559.54L224.324 559.54L224.324 559.54L224.324 560.02L224.324 560.02L170.18 560.02z" stroke="none" fill="#000000" fill-rule="evenodd" /><path transform="matrix(1 0 0 -1 0 841)" d="M224.33 559.54L224.81 559.54L224.81 559.54L224.81 560.02L224.81 560.02L224.33 560.02z" stroke="none" fill="#000000" fill-rule="evenodd" /><path transform="matrix(1 0 0 -1 0 841)" d="M224.81 559.54L274.01 559.54L274.01 559.54L274.01 560.02L274.01 560.02L224.81 560.02z" stroke="none" fill="#000000" fill-rule="evenodd" /><path transform="matrix(1 0 0 -1 0 841)" d="M274.01 559.54L274.49 559.54L274.49 559.54L274.49 560.02L274.49 560.02L274.01 560.02z" stroke="none" fill="#000000" fill-rule="evenodd" /><path transform="matrix(1 0 0 -1 0 841)" d="M274.49 559.54L387.19 559.54L387.19 559.54L387.19 560.02L387.19 560.02L274.49 560.02z" stroke="none" fill="#000000" fill-rule="evenodd" /><path transform="matrix(1 0 0 -1 0 841)" d="M387.19 559.54L387.67 559.54L387.67 559.54L387.67 560.02L387.67 560.02L387.19 560.02z" stroke="none" fill="#000000" fill-rule="evenodd" /><path transform="matrix(1 0 0 -1 0 841)" d="M387.67 559.54L510.69 559.54L510.69 559.54L510.69 560.02L510.69 560.02L387.67 560.02z" stroke="none" fill="#000000" fill-rule="evenodd" /><path transform="matrix(1 0 0 -1 0 841)" d="M510.7 559.54L511.18 559.54L511.18 559.54L511.18 560.02L511.18 560.02L510.7 560.02z" stroke="none" fill="#000000" fill-rule="evenodd" /><path transform="matrix(1 0 0 -1 0 841)" d="M84.264 531.79L84.744 531.79L84.744 531.79L84.744 559.534L84.744 559.534L84.264 559.534z" stroke="none" fill="#000000" fill-rule="evenodd" /><path transform="matrix(1 0 0 -1 0 841)" d="M169.7 531.79L170.18 531.79L170.18 531.79L170.18 559.534L170.18 559.534L169.7 559.534z" stroke="none" fill="#000000" fill-rule="evenodd" /><path transform="matrix(1 0 0 -1 0 841)" d="M224.33 531.79L224.81 531.79L224.81 531.79L224.81 559.534L224.81 559.534L224.33 559.534z" stroke="none" fill="#000000" fill-rule="evenodd" /><path transform="matrix(1 0 0 -1 0 841)" d="M274.01 531.79L274.49 531.79L274.49 531.79L274.49 559.534L274.49 559.534L274.01 559.534z" stroke="none" fill="#000000" fill-rule="evenodd" /><path transform="matrix(1 0 0 -1 0 841)" d="M387.19 531.79L387.67 531.79L387.67 531.79L387.67 559.534L387.67 559.534L387.19 559.534z" stroke="none" fill="#000000" fill-rule="evenodd" /><path transform="matrix(1 0 0 -1 0 841)" d="M510.7 531.79L511.18 531.79L511.18 531.79L511.18 559.534L511.18 559.534L510.7 559.534z" stroke="none" fill="#000000" fill-rule="evenodd" /><g clip-path="url(#100)"><g clip-path="url(#101)"></g><g clip-path="url(#102)"></g><g clip-path="url(#103)"></g></g><g clip-path="url(#104)"><g clip-path="url(#105)"></g><g clip-path="url(#106)"></g></g><g clip-path="url(#107)"><g clip-path="url(#108)"></g><g clip-path="url(#109)"></g></g><g clip-path="url(#110)"><g clip-path="url(#111)"></g><g clip-path="url(#112)"></g><g clip-path="url(#113)"></g><g clip-path="url(#114)"></g></g><g clip-path="url(#115)"><g clip-path="url(#116)"></g><g clip-path="url(#117)"></g><g clip-path="url(#118)"></g><g clip-path="url(#119)"></g><g clip-path="url(#120)"></g><g clip-path="url(#121)"></g></g><path transform="matrix(1 0 0 -1 0 841)" d="M84.264 531.31L84.744 531.31L84.744 531.31L84.744 531.79L84.744 531.79L84.264 531.79z" stroke="none" fill="#000000" fill-rule="evenodd" /><path transform="matrix(1 0 0 -1 0 841)" d="M84.744 531.31L169.704 531.31L169.704 531.31L169.704 531.79L169.704 531.79L84.744 531.79z" stroke="none" fill="#000000" fill-rule="evenodd" /><path transform="matrix(1 0 0 -1 0 841)" d="M169.7 531.31L170.18 531.31L170.18 531.31L170.18 531.79L170.18 531.79L169.7 531.79z" stroke="none" fill="#000000" fill-rule="evenodd" /><path transform="matrix(1 0 0 -1 0 841)" d="M170.18 531.31L224.324 531.31L224.324 531.31L224.324 531.79L224.324 531.79L170.18 531.79z" stroke="none" fill="#000000" fill-rule="evenodd" /><path transform="matrix(1 0 0 -1 0 841)" d="M224.33 531.31L224.81 531.31L224.81 531.31L224.81 531.79L224.81 531.79L224.33 531.79z" stroke="none" fill="#000000" fill-rule="evenodd" /><path transform="matrix(1 0 0 -1 0 841)" d="M224.81 531.31L274.01 531.31L274.01 531.31L274.01 531.79L274.01 531.79L224.81 531.79z" stroke="none" fill="#000000" fill-rule="evenodd" /><path transform="matrix(1 0 0 -1 0 841)" d="M274.01 531.31L274.49 531.31L274.49 531.31L274.49 531.79L274.49 531.79L274.01 531.79z" stroke="none" fill="#000000" fill-rule="evenodd" /><path transform="matrix(1 0 0 -1 0 841)" d="M274.49 531.31L387.19 531.31L387.19 531.31L387.19 531.79L387.19 531.79L274.49 531.79z" stroke="none" fill="#000000" fill-rule="evenodd" /><path transform="matrix(1 0 0 -1 0 841)" d="M387.19 531.31L387.67 531.31L387.67 531.31L387.67 531.79L387.67 531.79L387.19 531.79z" stroke="none" fill="#000000" fill-rule="evenodd" /><path transform="matrix(1 0 0 -1 0 841)" d="M387.67 531.31L510.69 531.31L510.69 531.31L510.69 531.79L510.69 531.79L387.67 531.79z" stroke="none" fill="#000000" fill-rule="evenodd" /><path transform="matrix(1 0 0 -1 0 841)" d="M510.7 531.31L511.18 531.31L511.18 531.31L511.18 531.79L511.18 531.79L510.7 531.79z" stroke="none" fill="#000000" fill-rule="evenodd" /><path transform="matrix(1 0 0 -1 0 841)" d="M84.264 470.47L84.744 470.47L84.744 470.47L84.744 531.31L84.744 531.31L84.264 531.31z" stroke="none" fill="#000000" fill-rule="evenodd" /><path transform="matrix(1 0 0 -1 0 841)" d="M84.264 469.99L84.744 469.99L84.744 469.99L84.744 470.47L84.744 470.47L84.264 470.47z" stroke="none" fill="#000000" fill-rule="evenodd" /><path transform="matrix(1 0 0 -1 0 841)" d="M84.264 469.99L84.744 469.99L84.744 469.99L84.744 470.47L84.744 470.47L84.264 470.47z" stroke="none" fill="#000000" fill-rule="evenodd" /><path transform="matrix(1 0 0 -1 0 841)" d="M84.744 469.99L169.704 469.99L169.704 469.99L169.704 470.47L169.704 470.47L84.744 470.47z" stroke="none" fill="#000000" fill-rule="evenodd" /><path transform="matrix(1 0 0 -1 0 841)" d="M169.7 470.47L170.18 470.47L170.18 470.47L170.18 531.31L170.18 531.31L169.7 531.31z" stroke="none" fill="#000000" fill-rule="evenodd" /><path transform="matrix(1 0 0 -1 0 841)" d="M169.7 469.99L170.18 469.99L170.18 469.99L170.18 470.47L170.18 470.47L169.7 470.47z" stroke="none" fill="#000000" fill-rule="evenodd" /><path transform="matrix(1 0 0 -1 0 841)" d="M170.18 469.99L224.324 469.99L224.324 469.99L224.324 470.47L224.324 470.47L170.18 470.47z" stroke="none" fill="#000000" fill-rule="evenodd" /><path transform="matrix(1 0 0 -1 0 841)" d="M224.33 470.47L224.81 470.47L224.81 470.47L224.81 531.31L224.81 531.31L224.33 531.31z" stroke="none" fill="#000000" fill-rule="evenodd" /><path transform="matrix(1 0 0 -1 0 841)" d="M224.33 469.99L224.81 469.99L224.81 469.99L224.81 470.47L224.81 470.47L224.33 470.47z" stroke="none" fill="#000000" fill-rule="evenodd" /><path transform="matrix(1 0 0 -1 0 841)" d="M224.81 469.99L274.01 469.99L274.01 469.99L274.01 470.47L274.01 470.47L224.81 470.47z" stroke="none" fill="#000000" fill-rule="evenodd" /><path transform="matrix(1 0 0 -1 0 841)" d="M274.01 470.47L274.49 470.47L274.49 470.47L274.49 531.31L274.49 531.31L274.01 531.31z" stroke="none" fill="#000000" fill-rule="evenodd" /><path transform="matrix(1 0 0 -1 0 841)" d="M274.01 469.99L274.49 469.99L274.49 469.99L274.49 470.47L274.49 470.47L274.01 470.47z" stroke="none" fill="#000000" fill-rule="evenodd" /><path transform="matrix(1 0 0 -1 0 841)" d="M274.49 469.99L387.19 469.99L387.19 469.99L387.19 470.47L387.19 470.47L274.49 470.47z" stroke="none" fill="#000000" fill-rule="evenodd" /><path transform="matrix(1 0 0 -1 0 841)" d="M387.19 470.47L387.67 470.47L387.67 470.47L387.67 531.31L387.67 531.31L387.19 531.31z" stroke="none" fill="#000000" fill-rule="evenodd" /><path transform="matrix(1 0 0 -1 0 841)" d="M387.19 469.99L387.67 469.99L387.67 469.99L387.67 470.47L387.67 470.47L387.19 470.47z" stroke="none" fill="#000000" fill-rule="evenodd" /><path transform="matrix(1 0 0 -1 0 841)" d="M387.67 469.99L510.69 469.99L510.69 469.99L510.69 470.47L510.69 470.47L387.67 470.47z" stroke="none" fill="#000000" fill-rule="evenodd" /><path transform="matrix(1 0 0 -1 0 841)" d="M510.7 470.47L511.18 470.47L511.18 470.47L511.18 531.31L511.18 531.31L510.7 531.31z" stroke="none" fill="#000000" fill-rule="evenodd" /><path transform="matrix(1 0 0 -1 0 841)" d="M510.7 469.99L511.18 469.99L511.18 469.99L511.18 470.47L511.18 470.47L510.7 470.47z" stroke="none" fill="#000000" fill-rule="evenodd" /><path transform="matrix(1 0 0 -1 0 841)" d="M510.7 469.99L511.18 469.99L511.18 469.99L511.18 470.47L511.18 470.47L510.7 470.47z" stroke="none" fill="#000000" fill-rule="evenodd" /><path transform="matrix(1 0 0 -1 0 841)" d="M84.744 431.47L510.694 431.47L510.694 431.47L510.694 450.55L510.694 450.55L84.744 450.55z" stroke="none" fill="#0070C0" fill-rule="evenodd" /><g clip-path="url(#122)"><path transform="matrix(1 0 0 -1 0 841)" d="M89.904 431.47L505.534 431.47L505.534 431.47L505.534 450.55L505.534 450.55L89.904 450.55z" stroke="none" fill="#0070C0" fill-rule="evenodd" /><g clip-path="url(#123)"></g><g clip-path="url(#124)"></g><g clip-path="url(#125)"></g></g><path transform="matrix(1 0 0 -1 0 841)" d="M84.264 450.55L84.744 450.55L84.744 450.55L84.744 451.03L84.744 451.03L84.264 451.03z" stroke="none" fill="#000000" fill-rule="evenodd" /><path transform="matrix(1 0 0 -1 0 841)" d="M84.264 450.55L84.744 450.55L84.744 450.55L84.744 451.03L84.744 451.03L84.264 451.03z" stroke="none" fill="#000000" fill-rule="evenodd" /><path transform="matrix(1 0 0 -1 0 841)" d="M84.744 450.55L510.694 450.55L510.694 450.55L510.694 451.03L510.694 451.03L84.744 451.03z" stroke="none" fill="#000000" fill-rule="evenodd" /><path transform="matrix(1 0 0 -1 0 841)" d="M510.7 450.55L511.18 450.55L511.18 450.55L511.18 451.03L511.18 451.03L510.7 451.03z" stroke="none" fill="#000000" fill-rule="evenodd" /><path transform="matrix(1 0 0 -1 0 841)" d="M510.7 450.55L511.18 450.55L511.18 450.55L511.18 451.03L511.18 451.03L510.7 451.03z" stroke="none" fill="#000000" fill-rule="evenodd" /><path transform="matrix(1 0 0 -1 0 841)" d="M84.264 431.47L84.744 431.47L84.744 431.47L84.744 450.55L84.744 450.55L84.264 450.55z" stroke="none" fill="#000000" fill-rule="evenodd" /><path transform="matrix(1 0 0 -1 0 841)" d="M510.7 431.47L511.18 431.47L511.18 431.47L511.18 450.55L511.18 450.55L510.7 450.55z" stroke="none" fill="#000000" fill-rule="evenodd" /><path transform="matrix(1 0 0 -1 0 841)" d="M84.744 278.57L510.694 278.57L510.694 278.57L510.694 430.99L510.694 430.99L84.744 430.99z" stroke="none" fill="#DAEEF3" fill-rule="evenodd" /><g clip-path="url(#126)"><path transform="matrix(1 0 0 -1 0 841)" d="M89.904 411.91L505.534 411.91L505.534 411.91L505.534 430.99L505.534 430.99L89.904 430.99z" stroke="none" fill="#DAEEF3" fill-rule="evenodd" /><g clip-path="url(#127)"></g><g clip-path="url(#128)"></g><path transform="matrix(1 0 0 -1 0 841)" d="M89.904 392.83L505.534 392.83L505.534 392.83L505.534 411.91L505.534 411.91L89.904 411.91z" stroke="none" fill="#DAEEF3" fill-rule="evenodd" /><g clip-path="url(#129)"></g><g clip-path="url(#130)"></g><path transform="matrix(1 0 0 -1 0 841)" d="M89.904 373.75L505.534 373.75L505.534 373.75L505.534 392.83L505.534 392.83L89.904 392.83z" stroke="none" fill="#DAEEF3" fill-rule="evenodd" /><g clip-path="url(#131)"></g><g clip-path="url(#132)"></g><g clip-path="url(#133)"></g><g clip-path="url(#134)"></g><g clip-path="url(#135)"></g><path transform="matrix(1 0 0 -1 0 841)" d="M89.904 354.77L505.534 354.77L505.534 354.77L505.534 373.754L505.534 373.754L89.904 373.754z" stroke="none" fill="#DAEEF3" fill-rule="evenodd" /><g clip-path="url(#136)"></g><g clip-path="url(#137)"></g><path transform="matrix(1 0 0 -1 0 841)" d="M89.904 335.69L505.534 335.69L505.534 335.69L505.534 354.77L505.534 354.77L89.904 354.77z" stroke="none" fill="#DAEEF3" fill-rule="evenodd" /><g clip-path="url(#138)"></g><g clip-path="url(#139)"></g><path transform="matrix(1 0 0 -1 0 841)" d="M89.904 316.61L505.534 316.61L505.534 316.61L505.534 335.69L505.534 335.69L89.904 335.69z" stroke="none" fill="#DAEEF3" fill-rule="evenodd" /><g clip-path="url(#140)"></g><g clip-path="url(#141)"></g><path transform="matrix(1 0 0 -1 0 841)" d="M89.904 297.53L505.534 297.53L505.534 297.53L505.534 316.61L505.534 316.61L89.904 316.61z" stroke="none" fill="#DAEEF3" fill-rule="evenodd" /><g clip-path="url(#142)"></g><g clip-path="url(#143)"></g><g clip-path="url(#144)"></g><g clip-path="url(#145)"></g><path transform="matrix(1 0 0 -1 0 841)" d="M89.904 278.57L505.534 278.57L505.534 278.57L505.534 297.53L505.534 297.53L89.904 297.53z" stroke="none" fill="#DAEEF3" fill-rule="evenodd" /><g clip-path="url(#146)"></g><g clip-path="url(#147)"></g></g><path transform="matrix(1 0 0 -1 0 841)" d="M84.264 430.99L84.744 430.99L84.744 430.99L84.744 431.47L84.744 431.47L84.264 431.47z" stroke="none" fill="#000000" fill-rule="evenodd" /><path transform="matrix(1 0 0 -1 0 841)" d="M84.744 430.99L510.694 430.99L510.694 430.99L510.694 431.47L510.694 431.47L84.744 431.47z" stroke="none" fill="#000000" fill-rule="evenodd" /><path transform="matrix(1 0 0 -1 0 841)" d="M510.7 430.99L511.18 430.99L511.18 430.99L511.18 431.47L511.18 431.47L510.7 431.47z" stroke="none" fill="#000000" fill-rule="evenodd" /><path transform="matrix(1 0 0 -1 0 841)" d="M84.264 278.45L84.744 278.45L84.744 278.45L84.744 430.99L84.744 430.99L84.264 430.99z" stroke="none" fill="#000000" fill-rule="evenodd" /><path transform="matrix(1 0 0 -1 0 841)" d="M84.264 277.97L84.744 277.97L84.744 277.97L84.744 278.45L84.744 278.45L84.264 278.45z" stroke="none" fill="#000000" fill-rule="evenodd" /><path transform="matrix(1 0 0 -1 0 841)" d="M84.264 277.97L84.744 277.97L84.744 277.97L84.744 278.45L84.744 278.45L84.264 278.45z" stroke="none" fill="#000000" fill-rule="evenodd" /><path transform="matrix(1 0 0 -1 0 841)" d="M84.744 277.97L510.694 277.97L510.694 277.97L510.694 278.45L510.694 278.45L84.744 278.45z" stroke="none" fill="#000000" fill-rule="evenodd" /><path transform="matrix(1 0 0 -1 0 841)" d="M510.7 278.45L511.18 278.45L511.18 278.45L511.18 430.99L511.18 430.99L510.7 430.99z" stroke="none" fill="#000000" fill-rule="evenodd" /><path transform="matrix(1 0 0 -1 0 841)" d="M510.7 277.97L511.18 277.97L511.18 277.97L511.18 278.45L511.18 278.45L510.7 278.45z" stroke="none" fill="#000000" fill-rule="evenodd" /><path transform="matrix(1 0 0 -1 0 841)" d="M510.7 277.97L511.18 277.97L511.18 277.97L511.18 278.45L511.18 278.45L510.7 278.45z" stroke="none" fill="#000000" fill-rule="evenodd" /><path transform="matrix(1 0 0 -1 0 841)" d="M201.77 230.81L250.01 230.81L250.01 230.81L250.01 231.65L250.01 231.65L201.77 231.65z" stroke="none" fill="#000000" fill-rule="evenodd" /><g clip-path="url(#148)"><path transform="matrix(1 0 0 -1 0 841)" d="M85.344 117.86L170.184 117.86L170.184 117.86L170.184 158.9L170.184 158.9L85.344 158.9z" stroke="none" fill="#0070C0" fill-rule="evenodd" /><g clip-path="url(#149)"><path transform="matrix(1 0 0 -1 0 841)" d="M90.504 135.98L165.024 135.98L165.024 135.98L165.024 158.9L165.024 158.9L90.504 158.9z" stroke="none" fill="#0070C0" fill-rule="evenodd" /><g clip-path="url(#150)"></g><g clip-path="url(#151)"></g></g><path transform="matrix(1 0 0 -1 0 841)" d="M170.66 117.86L232.004 117.86L232.004 117.86L232.004 158.9L232.004 158.9L170.66 158.9z" stroke="none" fill="#0070C0" fill-rule="evenodd" /><g clip-path="url(#152)"><path transform="matrix(1 0 0 -1 0 841)" d="M175.82 135.98L226.844 135.98L226.844 135.98L226.844 158.9L226.844 158.9L175.82 158.9z" stroke="none" fill="#0070C0" fill-rule="evenodd" /><g clip-path="url(#153)"></g><g clip-path="url(#154)"></g></g><path transform="matrix(1 0 0 -1 0 841)" d="M232.61 117.86L274.61 117.86L274.61 117.86L274.61 158.9L274.61 158.9L232.61 158.9z" stroke="none" fill="#0070C0" fill-rule="evenodd" /><g clip-path="url(#155)"><path transform="matrix(1 0 0 -1 0 841)" d="M237.65 135.98L269.45 135.98L269.45 135.98L269.45 158.9L269.45 158.9L237.65 158.9z" stroke="none" fill="#0070C0" fill-rule="evenodd" /><g clip-path="url(#156)"></g><path transform="matrix(1 0 0 -1 0 841)" d="M237.65 117.86L269.45 117.86L269.45 117.86L269.45 135.98L269.45 135.98L237.65 135.98z" stroke="none" fill="#0070C0" fill-rule="evenodd" /><g clip-path="url(#157)"></g><g clip-path="url(#158)"></g></g><path transform="matrix(1 0 0 -1 0 841)" d="M275.09 117.86L394.99 117.86L394.99 117.86L394.99 158.9L394.99 158.9L275.09 158.9z" stroke="none" fill="#0070C0" fill-rule="evenodd" /><g clip-path="url(#159)"><path transform="matrix(1 0 0 -1 0 841)" d="M280.25 135.98L389.83 135.98L389.83 135.98L389.83 158.9L389.83 158.9L280.25 158.9z" stroke="none" fill="#0070C0" fill-rule="evenodd" /><g clip-path="url(#160)"></g><g clip-path="url(#161)"></g></g><path transform="matrix(1 0 0 -1 0 841)" d="M395.47 117.86L511.29 117.86L511.29 117.86L511.29 158.9L511.29 158.9L395.47 158.9z" stroke="none" fill="#0070C0" fill-rule="evenodd" /><g clip-path="url(#162)"><path transform="matrix(1 0 0 -1 0 841)" d="M400.63 135.98L506.13 135.98L506.13 135.98L506.13 158.9L506.13 158.9L400.63 158.9z" stroke="none" fill="#0070C0" fill-rule="evenodd" /><g clip-path="url(#163)"></g><g clip-path="url(#164)"></g></g><path transform="matrix(1 0 0 -1 0 841)" d="M84.864 158.9L85.344 158.9L85.344 158.9L85.344 159.38L85.344 159.38L84.864 159.38z" stroke="none" fill="#000000" fill-rule="evenodd" /><path transform="matrix(1 0 0 -1 0 841)" d="M84.864 158.9L85.344 158.9L85.344 158.9L85.344 159.38L85.344 159.38L84.864 159.38z" stroke="none" fill="#000000" fill-rule="evenodd" /><path transform="matrix(1 0 0 -1 0 841)" d="M85.344 158.9L170.184 158.9L170.184 158.9L170.184 159.38L170.184 159.38L85.344 159.38z" stroke="none" fill="#000000" fill-rule="evenodd" /><path transform="matrix(1 0 0 -1 0 841)" d="M170.18 158.9L170.66 158.9L170.66 158.9L170.66 159.38L170.66 159.38L170.18 159.38z" stroke="none" fill="#000000" fill-rule="evenodd" /><path transform="matrix(1 0 0 -1 0 841)" d="M170.66 158.9L232.124 158.9L232.124 158.9L232.124 159.38L232.124 159.38L170.66 159.38z" stroke="none" fill="#000000" fill-rule="evenodd" /><path transform="matrix(1 0 0 -1 0 841)" d="M232.13 158.9L232.61 158.9L232.61 158.9L232.61 159.38L232.61 159.38L232.13 159.38z" stroke="none" fill="#000000" fill-rule="evenodd" /><path transform="matrix(1 0 0 -1 0 841)" d="M232.61 158.9L274.61 158.9L274.61 158.9L274.61 159.38L274.61 159.38L232.61 159.38z" stroke="none" fill="#000000" fill-rule="evenodd" /><path transform="matrix(1 0 0 -1 0 841)" d="M274.61 158.9L275.09 158.9L275.09 158.9L275.09 159.38L275.09 159.38L274.61 159.38z" stroke="none" fill="#000000" fill-rule="evenodd" /><path transform="matrix(1 0 0 -1 0 841)" d="M275.09 158.9L394.99 158.9L394.99 158.9L394.99 159.38L394.99 159.38L275.09 159.38z" stroke="none" fill="#000000" fill-rule="evenodd" /><path transform="matrix(1 0 0 -1 0 841)" d="M394.99 158.9L395.47 158.9L395.47 158.9L395.47 159.38L395.47 159.38L394.99 159.38z" stroke="none" fill="#000000" fill-rule="evenodd" /><path transform="matrix(1 0 0 -1 0 841)" d="M395.47 158.9L511.29 158.9L511.29 158.9L511.29 159.38L511.29 159.38L395.47 159.38z" stroke="none" fill="#000000" fill-rule="evenodd" /><path transform="matrix(1 0 0 -1 0 841)" d="M511.3 158.9L511.78 158.9L511.78 158.9L511.78 159.38L511.78 159.38L511.3 159.38z" stroke="none" fill="#000000" fill-rule="evenodd" /><path transform="matrix(1 0 0 -1 0 841)" d="M511.3 158.9L511.78 158.9L511.78 158.9L511.78 159.38L511.78 159.38L511.3 159.38z" stroke="none" fill="#000000" fill-rule="evenodd" /><path transform="matrix(1 0 0 -1 0 841)" d="M84.864 117.86L85.344 117.86L85.344 117.86L85.344 158.9L85.344 158.9L84.864 158.9z" stroke="none" fill="#000000" fill-rule="evenodd" /><path transform="matrix(1 0 0 -1 0 841)" d="M84.864 117.38L85.344 117.38L85.344 117.38L85.344 117.86L85.344 117.86L84.864 117.86z" stroke="none" fill="#000000" fill-rule="evenodd" /><path transform="matrix(1 0 0 -1 0 841)" d="M84.864 117.38L85.344 117.38L85.344 117.38L85.344 117.86L85.344 117.86L84.864 117.86z" stroke="none" fill="#000000" fill-rule="evenodd" /><path transform="matrix(1 0 0 -1 0 841)" d="M85.344 117.38L170.184 117.38L170.184 117.38L170.184 117.86L170.184 117.86L85.344 117.86z" stroke="none" fill="#000000" fill-rule="evenodd" /><path transform="matrix(1 0 0 -1 0 841)" d="M170.18 117.86L170.66 117.86L170.66 117.86L170.66 158.9L170.66 158.9L170.18 158.9z" stroke="none" fill="#000000" fill-rule="evenodd" /><path transform="matrix(1 0 0 -1 0 841)" d="M170.18 117.38L170.66 117.38L170.66 117.38L170.66 117.86L170.66 117.86L170.18 117.86z" stroke="none" fill="#000000" fill-rule="evenodd" /><path transform="matrix(1 0 0 -1 0 841)" d="M170.66 117.38L232.124 117.38L232.124 117.38L232.124 117.86L232.124 117.86L170.66 117.86z" stroke="none" fill="#000000" fill-rule="evenodd" /><path transform="matrix(1 0 0 -1 0 841)" d="M232.13 117.86L232.61 117.86L232.61 117.86L232.61 158.9L232.61 158.9L232.13 158.9z" stroke="none" fill="#000000" fill-rule="evenodd" /><path transform="matrix(1 0 0 -1 0 841)" d="M232.13 117.38L232.61 117.38L232.61 117.38L232.61 117.86L232.61 117.86L232.13 117.86z" stroke="none" fill="#000000" fill-rule="evenodd" /><path transform="matrix(1 0 0 -1 0 841)" d="M232.61 117.38L274.61 117.38L274.61 117.38L274.61 117.86L274.61 117.86L232.61 117.86z" stroke="none" fill="#000000" fill-rule="evenodd" /><path transform="matrix(1 0 0 -1 0 841)" d="M274.61 117.86L275.09 117.86L275.09 117.86L275.09 158.9L275.09 158.9L274.61 158.9z" stroke="none" fill="#000000" fill-rule="evenodd" /><path transform="matrix(1 0 0 -1 0 841)" d="M274.61 117.38L275.09 117.38L275.09 117.38L275.09 117.86L275.09 117.86L274.61 117.86z" stroke="none" fill="#000000" fill-rule="evenodd" /><path transform="matrix(1 0 0 -1 0 841)" d="M275.09 117.38L394.99 117.38L394.99 117.38L394.99 117.86L394.99 117.86L275.09 117.86z" stroke="none" fill="#000000" fill-rule="evenodd" /><path transform="matrix(1 0 0 -1 0 841)" d="M394.99 117.86L395.47 117.86L395.47 117.86L395.47 158.9L395.47 158.9L394.99 158.9z" stroke="none" fill="#000000" fill-rule="evenodd" /><path transform="matrix(1 0 0 -1 0 841)" d="M394.99 117.38L395.47 117.38L395.47 117.38L395.47 117.86L395.47 117.86L394.99 117.86z" stroke="none" fill="#000000" fill-rule="evenodd" /><path transform="matrix(1 0 0 -1 0 841)" d="M395.47 117.38L511.29 117.38L511.29 117.38L511.29 117.86L511.29 117.86L395.47 117.86z" stroke="none" fill="#000000" fill-rule="evenodd" /><path transform="matrix(1 0 0 -1 0 841)" d="M511.3 117.86L511.78 117.86L511.78 117.86L511.78 158.9L511.78 158.9L511.3 158.9z" stroke="none" fill="#000000" fill-rule="evenodd" /><path transform="matrix(1 0 0 -1 0 841)" d="M511.3 117.38L511.78 117.38L511.78 117.38L511.78 117.86L511.78 117.86L511.3 117.86z" stroke="none" fill="#000000" fill-rule="evenodd" /><path transform="matrix(1 0 0 -1 0 841)" d="M511.3 117.38L511.78 117.38L511.78 117.38L511.78 117.86L511.78 117.86L511.3 117.86z" stroke="none" fill="#000000" fill-rule="evenodd" /></g></g></g></g></svg>