<svg xmlns="http://www.w3.org/2000/svg" xmlns:xlink="http://www.w3.org/1999/xlink" id="body_259" preserveAspectRatio="xMinYMin meet" viewBox="0 0 793 1121"><defs><clipPath id="1"><path d="M0 841L0 -0.9199829L0 -0.9199829L595.32 -0.9199829L595.32 -0.9199829L595.32 841L595.32 841L0 841z" /></clipPath><clipPath id="2"><path d="M0.00125 841.0914L595.4112 841.0914L595.4112 841.0914L595.4112 -0.9186401L595.4112 -0.9186401L0.00125 -0.9186401z" /></clipPath><clipPath id="3"><path d="M288.05 781.211L316.01 781.211L316.01 781.211L316.01 762.011L316.01 762.011L288.05 762.011z" /></clipPath><clipPath id="4"><path d="M288.05 781.216L316.01 781.216L316.01 781.216L316.01 762.016L316.01 762.016L288.05 762.016z" /></clipPath><clipPath id="5"><path d="M288.05 781.216L316.01 781.216L316.01 781.216L316.01 762.016L316.01 762.016L288.05 762.016z" /></clipPath><clipPath id="6"><path d="M-5.59E-07 316.84L595.32 316.84L595.32 316.84L595.32 202.48L595.32 202.48L-5.59E-07 202.48z" /></clipPath><clipPath id="7"><path d="M-7.3E-08 594.16L595.32 594.16L595.32 594.16L595.32 537.04L595.32 537.04L-7.3E-08 537.04z" /></clipPath><clipPath id="8"><path d="M-5.59E-07 670.36L595.32 670.36L595.32 670.36L595.32 613.24L595.32 613.24L-5.59E-07 613.24z" /></clipPath></defs><g transform="matrix(1.333333 0 0 1.333333 0 0)"><g><g clip-path="url(#1)"><path transform="matrix(1 0 0 -1 0 841)" d="M457.51 53.304L505.534 53.304L505.534 53.304L505.534 53.90404L505.534 53.90404L457.51 53.90404z" stroke="none" fill="#000000" fill-rule="evenodd" /><g clip-path="url(#2)"><path transform="matrix(1 0 0 -1 0 841)" d="M88.464 77.904L506.974 77.904L506.974 77.904L506.974 80.904L506.974 80.904L88.464 80.904z" stroke="none" fill="#000000" fill-rule="evenodd" /><path transform="matrix(1 0 0 -1 0 841)" d="M88.464 76.464L506.974 76.464L506.974 76.464L506.974 77.18397L506.974 77.18397L88.464 77.18397z" stroke="none" fill="#000000" fill-rule="evenodd" /></g><g clip-path="url(#3)"><g clip-path="url(#4)"></g><g clip-path="url(#5)"></g></g><path transform="matrix(1 0 0 -1 0 841)" d="M305.21 452.47L354.794 452.47L354.794 452.47L354.794 453.43L354.794 453.43L305.21 453.43z" stroke="none" fill="#000000" fill-rule="evenodd" /><g clip-path="url(#6)"><g transform="matrix(0.3272421 0 0 0.3275862 89.85 202.67)"><g transform="matrix(1 0 0 1 0 0)"><image x="0" y="0" xlink:href="img_293.png" width="1483" height="348" /></g></g></g><g clip-path="url(#7)"><g transform="matrix(0.3273212 0 0 0.3264535 89.85 537.49)"><g transform="matrix(1 0 0 1 0 0)"><image x="0" y="0" xlink:href="img_294.png" width="937" height="172" /></g></g></g><g clip-path="url(#8)"><g transform="matrix(0.3272421 0 0 0.328125 89.85 620.77)"><g transform="matrix(1 0 0 1 0 0)"><image x="0" y="0" xlink:href="img_295.png" width="1483" height="128" /></g></g></g></g></g></g></svg>