<svg xmlns="http://www.w3.org/2000/svg" xmlns:xlink="http://www.w3.org/1999/xlink" id="body_150" preserveAspectRatio="xMinYMin meet" viewBox="0 0 793 1121"><defs><clipPath id="1"><path d="M0 841L0 -0.9199829L0 -0.9199829L595.32 -0.9199829L595.32 -0.9199829L595.32 841L595.32 841L0 841z" /></clipPath><clipPath id="2"><path d="M0.00125 841.0914L595.4112 841.0914L595.4112 841.0914L595.4112 -0.9186401L595.4112 -0.9186401L0.00125 -0.9186401z" /></clipPath><clipPath id="3"><path d="M288.05 781.211L316.01 781.211L316.01 781.211L316.01 762.011L316.01 762.011L288.05 762.011z" /></clipPath><clipPath id="4"><path d="M288.05 781.216L316.01 781.216L316.01 781.216L316.01 762.016L316.01 762.016L288.05 762.016z" /></clipPath><clipPath id="5"><path d="M288.05 781.216L316.01 781.216L316.01 781.216L316.01 762.016L316.01 762.016L288.05 762.016z" /></clipPath><clipPath id="6"><path d="M84.751 113.59L510.691 113.59L510.691 113.59L510.691 89.44L510.691 89.44L84.751 89.44z" /></clipPath><clipPath id="7"><path d="M84.744 113.58L510.694 113.58L510.694 113.58L510.694 89.43604L510.694 89.43604L84.744 89.43604z" /></clipPath><clipPath id="8"><path d="M84.744 113.58L510.694 113.58L510.694 113.58L510.694 89.43604L510.694 89.43604L84.744 89.43604z" /></clipPath><clipPath id="9"><path d="M84.744 113.58L510.694 113.58L510.694 113.58L510.694 89.43604L510.694 89.43604L84.744 89.43604z" /></clipPath><clipPath id="10"><path d="M84.744 113.58L510.694 113.58L510.694 113.58L510.694 89.43604L510.694 89.43604L84.744 89.43604z" /></clipPath><clipPath id="11"><path d="M84.744 113.58L510.694 113.58L510.694 113.58L510.694 89.43604L510.694 89.43604L84.744 89.43604z" /></clipPath><clipPath id="12"><path d="M84.744 113.58L510.694 113.58L510.694 113.58L510.694 89.43604L510.694 89.43604L84.744 89.43604z" /></clipPath><clipPath id="13"><path d="M84.751 742.811L510.691 742.811L510.691 742.811L510.691 114.071L510.691 114.071L84.751 114.071z" /></clipPath><clipPath id="14"><path d="M84.744 742.816L510.694 742.816L510.694 742.816L510.694 114.066L510.694 114.066L84.744 114.066z" /></clipPath><clipPath id="15"><path d="M84.744 742.816L510.694 742.816L510.694 742.816L510.694 114.066L510.694 114.066L84.744 114.066z" /></clipPath><clipPath id="16"><path d="M84.744 742.816L510.694 742.816L510.694 742.816L510.694 114.066L510.694 114.066L84.744 114.066z" /></clipPath><clipPath id="17"><path d="M84.744 742.816L510.694 742.816L510.694 742.816L510.694 114.066L510.694 114.066L84.744 114.066z" /></clipPath><clipPath id="18"><path d="M84.744 742.816L510.694 742.816L510.694 742.816L510.694 114.066L510.694 114.066L84.744 114.066z" /></clipPath><clipPath id="19"><path d="M84.744 742.816L510.694 742.816L510.694 742.816L510.694 114.066L510.694 114.066L84.744 114.066z" /></clipPath><clipPath id="20"><path d="M84.744 742.816L510.694 742.816L510.694 742.816L510.694 114.066L510.694 114.066L84.744 114.066z" /></clipPath><clipPath id="21"><path d="M84.744 742.816L510.694 742.816L510.694 742.816L510.694 114.066L510.694 114.066L84.744 114.066z" /></clipPath><clipPath id="22"><path d="M84.744 742.816L510.694 742.816L510.694 742.816L510.694 114.066L510.694 114.066L84.744 114.066z" /></clipPath><clipPath id="23"><path d="M84.744 742.816L510.694 742.816L510.694 742.816L510.694 114.066L510.694 114.066L84.744 114.066z" /></clipPath><clipPath id="24"><path d="M84.744 742.816L510.694 742.816L510.694 742.816L510.694 114.066L510.694 114.066L84.744 114.066z" /></clipPath><clipPath id="25"><path d="M84.744 742.816L510.694 742.816L510.694 742.816L510.694 114.066L510.694 114.066L84.744 114.066z" /></clipPath><clipPath id="26"><path d="M84.744 742.816L510.694 742.816L510.694 742.816L510.694 114.066L510.694 114.066L84.744 114.066z" /></clipPath><clipPath id="27"><path d="M84.744 742.816L510.694 742.816L510.694 742.816L510.694 114.066L510.694 114.066L84.744 114.066z" /></clipPath><clipPath id="28"><path d="M84.744 742.816L510.694 742.816L510.694 742.816L510.694 114.066L510.694 114.066L84.744 114.066z" /></clipPath><clipPath id="29"><path d="M84.744 742.816L510.694 742.816L510.694 742.816L510.694 114.066L510.694 114.066L84.744 114.066z" /></clipPath><clipPath id="30"><path d="M84.744 742.816L510.694 742.816L510.694 742.816L510.694 114.066L510.694 114.066L84.744 114.066z" /></clipPath><clipPath id="31"><path d="M84.744 742.816L510.694 742.816L510.694 742.816L510.694 114.066L510.694 114.066L84.744 114.066z" /></clipPath><clipPath id="32"><path d="M84.744 742.816L510.694 742.816L510.694 742.816L510.694 114.066L510.694 114.066L84.744 114.066z" /></clipPath><clipPath id="33"><path d="M84.744 742.816L510.694 742.816L510.694 742.816L510.694 114.066L510.694 114.066L84.744 114.066z" /></clipPath><clipPath id="34"><path d="M84.744 742.816L510.694 742.816L510.694 742.816L510.694 114.066L510.694 114.066L84.744 114.066z" /></clipPath><clipPath id="35"><path d="M84.744 742.816L510.694 742.816L510.694 742.816L510.694 114.066L510.694 114.066L84.744 114.066z" /></clipPath><clipPath id="36"><path d="M84.744 742.816L510.694 742.816L510.694 742.816L510.694 114.066L510.694 114.066L84.744 114.066z" /></clipPath><clipPath id="37"><path d="M84.744 742.816L510.694 742.816L510.694 742.816L510.694 114.066L510.694 114.066L84.744 114.066z" /></clipPath><clipPath id="38"><path d="M84.744 742.816L510.694 742.816L510.694 742.816L510.694 114.066L510.694 114.066L84.744 114.066z" /></clipPath><clipPath id="39"><path d="M84.744 742.816L510.694 742.816L510.694 742.816L510.694 114.066L510.694 114.066L84.744 114.066z" /></clipPath><clipPath id="40"><path d="M84.744 742.816L510.694 742.816L510.694 742.816L510.694 114.066L510.694 114.066L84.744 114.066z" /></clipPath><clipPath id="41"><path d="M84.744 742.816L510.694 742.816L510.694 742.816L510.694 114.066L510.694 114.066L84.744 114.066z" /></clipPath><clipPath id="42"><path d="M84.744 742.816L510.694 742.816L510.694 742.816L510.694 114.066L510.694 114.066L84.744 114.066z" /></clipPath><clipPath id="43"><path d="M84.744 742.816L510.694 742.816L510.694 742.816L510.694 114.066L510.694 114.066L84.744 114.066z" /></clipPath><clipPath id="44"><path d="M84.744 742.816L510.694 742.816L510.694 742.816L510.694 114.066L510.694 114.066L84.744 114.066z" /></clipPath><clipPath id="45"><path d="M84.744 742.816L510.694 742.816L510.694 742.816L510.694 114.066L510.694 114.066L84.744 114.066z" /></clipPath><clipPath id="46"><path d="M84.744 742.816L510.694 742.816L510.694 742.816L510.694 114.066L510.694 114.066L84.744 114.066z" /></clipPath><clipPath id="47"><path d="M84.744 742.816L510.694 742.816L510.694 742.816L510.694 114.066L510.694 114.066L84.744 114.066z" /></clipPath><clipPath id="48"><path d="M84.744 742.816L510.694 742.816L510.694 742.816L510.694 114.066L510.694 114.066L84.744 114.066z" /></clipPath><clipPath id="49"><path d="M84.744 742.816L510.694 742.816L510.694 742.816L510.694 114.066L510.694 114.066L84.744 114.066z" /></clipPath><clipPath id="50"><path d="M84.744 742.816L510.694 742.816L510.694 742.816L510.694 114.066L510.694 114.066L84.744 114.066z" /></clipPath><clipPath id="51"><path d="M84.744 742.816L510.694 742.816L510.694 742.816L510.694 114.066L510.694 114.066L84.744 114.066z" /></clipPath><clipPath id="52"><path d="M84.744 742.816L510.694 742.816L510.694 742.816L510.694 114.066L510.694 114.066L84.744 114.066z" /></clipPath><clipPath id="53"><path d="M84.744 742.816L510.694 742.816L510.694 742.816L510.694 114.066L510.694 114.066L84.744 114.066z" /></clipPath><clipPath id="54"><path d="M84.744 742.816L510.694 742.816L510.694 742.816L510.694 114.066L510.694 114.066L84.744 114.066z" /></clipPath><clipPath id="55"><path d="M84.744 742.816L510.694 742.816L510.694 742.816L510.694 114.066L510.694 114.066L84.744 114.066z" /></clipPath><clipPath id="56"><path d="M84.744 742.816L510.694 742.816L510.694 742.816L510.694 114.066L510.694 114.066L84.744 114.066z" /></clipPath><clipPath id="57"><path d="M84.744 742.816L510.694 742.816L510.694 742.816L510.694 114.066L510.694 114.066L84.744 114.066z" /></clipPath><clipPath id="58"><path d="M84.744 742.816L510.694 742.816L510.694 742.816L510.694 114.066L510.694 114.066L84.744 114.066z" /></clipPath><clipPath id="59"><path d="M84.744 742.816L510.694 742.816L510.694 742.816L510.694 114.066L510.694 114.066L84.744 114.066z" /></clipPath><clipPath id="60"><path d="M84.744 742.816L510.694 742.816L510.694 742.816L510.694 114.066L510.694 114.066L84.744 114.066z" /></clipPath><clipPath id="61"><path d="M84.744 742.816L510.694 742.816L510.694 742.816L510.694 114.066L510.694 114.066L84.744 114.066z" /></clipPath><clipPath id="62"><path d="M84.744 742.816L510.694 742.816L510.694 742.816L510.694 114.066L510.694 114.066L84.744 114.066z" /></clipPath><clipPath id="63"><path d="M84.744 742.816L510.694 742.816L510.694 742.816L510.694 114.066L510.694 114.066L84.744 114.066z" /></clipPath><clipPath id="64"><path d="M84.744 742.816L510.694 742.816L510.694 742.816L510.694 114.066L510.694 114.066L84.744 114.066z" /></clipPath><clipPath id="65"><path d="M84.744 742.816L510.694 742.816L510.694 742.816L510.694 114.066L510.694 114.066L84.744 114.066z" /></clipPath><clipPath id="66"><path d="M84.744 742.816L510.694 742.816L510.694 742.816L510.694 114.066L510.694 114.066L84.744 114.066z" /></clipPath><clipPath id="67"><path d="M84.744 742.816L510.694 742.816L510.694 742.816L510.694 114.066L510.694 114.066L84.744 114.066z" /></clipPath><clipPath id="68"><path d="M84.744 742.816L510.694 742.816L510.694 742.816L510.694 114.066L510.694 114.066L84.744 114.066z" /></clipPath><clipPath id="69"><path d="M84.744 742.816L510.694 742.816L510.694 742.816L510.694 114.066L510.694 114.066L84.744 114.066z" /></clipPath><clipPath id="70"><path d="M84.744 742.816L510.694 742.816L510.694 742.816L510.694 114.066L510.694 114.066L84.744 114.066z" /></clipPath><clipPath id="71"><path d="M84.744 742.816L510.694 742.816L510.694 742.816L510.694 114.066L510.694 114.066L84.744 114.066z" /></clipPath><clipPath id="72"><path d="M84.744 742.816L510.694 742.816L510.694 742.816L510.694 114.066L510.694 114.066L84.744 114.066z" /></clipPath><clipPath id="73"><path d="M84.744 742.816L510.694 742.816L510.694 742.816L510.694 114.066L510.694 114.066L84.744 114.066z" /></clipPath><clipPath id="74"><path d="M84.744 742.816L510.694 742.816L510.694 742.816L510.694 114.066L510.694 114.066L84.744 114.066z" /></clipPath><clipPath id="75"><path d="M84.744 742.816L510.694 742.816L510.694 742.816L510.694 114.066L510.694 114.066L84.744 114.066z" /></clipPath><clipPath id="76"><path d="M84.744 742.816L510.694 742.816L510.694 742.816L510.694 114.066L510.694 114.066L84.744 114.066z" /></clipPath><clipPath id="77"><path d="M84.744 742.816L510.694 742.816L510.694 742.816L510.694 114.066L510.694 114.066L84.744 114.066z" /></clipPath><clipPath id="78"><path d="M84.744 742.816L510.694 742.816L510.694 742.816L510.694 114.066L510.694 114.066L84.744 114.066z" /></clipPath><clipPath id="79"><path d="M84.744 742.816L510.694 742.816L510.694 742.816L510.694 114.066L510.694 114.066L84.744 114.066z" /></clipPath><clipPath id="80"><path d="M84.744 742.816L510.694 742.816L510.694 742.816L510.694 114.066L510.694 114.066L84.744 114.066z" /></clipPath><clipPath id="81"><path d="M84.744 742.816L510.694 742.816L510.694 742.816L510.694 114.066L510.694 114.066L84.744 114.066z" /></clipPath><clipPath id="82"><path d="M84.744 742.816L510.694 742.816L510.694 742.816L510.694 114.066L510.694 114.066L84.744 114.066z" /></clipPath><clipPath id="83"><path d="M84.744 742.816L510.694 742.816L510.694 742.816L510.694 114.066L510.694 114.066L84.744 114.066z" /></clipPath><clipPath id="84"><path d="M84.744 742.816L510.694 742.816L510.694 742.816L510.694 114.066L510.694 114.066L84.744 114.066z" /></clipPath><clipPath id="85"><path d="M84.744 742.816L510.694 742.816L510.694 742.816L510.694 114.066L510.694 114.066L84.744 114.066z" /></clipPath><clipPath id="86"><path d="M84.744 742.816L510.694 742.816L510.694 742.816L510.694 114.066L510.694 114.066L84.744 114.066z" /></clipPath><clipPath id="87"><path d="M84.744 742.816L510.694 742.816L510.694 742.816L510.694 114.066L510.694 114.066L84.744 114.066z" /></clipPath><clipPath id="88"><path d="M84.744 742.816L510.694 742.816L510.694 742.816L510.694 114.066L510.694 114.066L84.744 114.066z" /></clipPath><clipPath id="89"><path d="M84.744 742.816L510.694 742.816L510.694 742.816L510.694 114.066L510.694 114.066L84.744 114.066z" /></clipPath><clipPath id="90"><path d="M84.744 742.816L510.694 742.816L510.694 742.816L510.694 114.066L510.694 114.066L84.744 114.066z" /></clipPath><clipPath id="91"><path d="M84.744 742.816L510.694 742.816L510.694 742.816L510.694 114.066L510.694 114.066L84.744 114.066z" /></clipPath><clipPath id="92"><path d="M84.744 742.816L510.694 742.816L510.694 742.816L510.694 114.066L510.694 114.066L84.744 114.066z" /></clipPath><clipPath id="93"><path d="M84.744 742.816L510.694 742.816L510.694 742.816L510.694 114.066L510.694 114.066L84.744 114.066z" /></clipPath><clipPath id="94"><path d="M84.744 742.816L510.694 742.816L510.694 742.816L510.694 114.066L510.694 114.066L84.744 114.066z" /></clipPath><clipPath id="95"><path d="M84.744 742.816L510.694 742.816L510.694 742.816L510.694 114.066L510.694 114.066L84.744 114.066z" /></clipPath><clipPath id="96"><path d="M84.744 742.816L510.694 742.816L510.694 742.816L510.694 114.066L510.694 114.066L84.744 114.066z" /></clipPath><clipPath id="97"><path d="M84.744 742.816L510.694 742.816L510.694 742.816L510.694 114.066L510.694 114.066L84.744 114.066z" /></clipPath><clipPath id="98"><path d="M84.744 742.816L510.694 742.816L510.694 742.816L510.694 114.066L510.694 114.066L84.744 114.066z" /></clipPath><clipPath id="99"><path d="M84.744 742.816L510.694 742.816L510.694 742.816L510.694 114.066L510.694 114.066L84.744 114.066z" /></clipPath><clipPath id="100"><path d="M84.744 742.816L510.694 742.816L510.694 742.816L510.694 114.066L510.694 114.066L84.744 114.066z" /></clipPath><clipPath id="101"><path d="M84.744 742.816L510.694 742.816L510.694 742.816L510.694 114.066L510.694 114.066L84.744 114.066z" /></clipPath><clipPath id="102"><path d="M84.744 742.816L510.694 742.816L510.694 742.816L510.694 114.066L510.694 114.066L84.744 114.066z" /></clipPath><clipPath id="103"><path d="M84.744 742.816L510.694 742.816L510.694 742.816L510.694 114.066L510.694 114.066L84.744 114.066z" /></clipPath><clipPath id="104"><path d="M84.744 742.816L510.694 742.816L510.694 742.816L510.694 114.066L510.694 114.066L84.744 114.066z" /></clipPath><clipPath id="105"><path d="M84.744 742.816L510.694 742.816L510.694 742.816L510.694 114.066L510.694 114.066L84.744 114.066z" /></clipPath><clipPath id="106"><path d="M84.744 742.816L510.694 742.816L510.694 742.816L510.694 114.066L510.694 114.066L84.744 114.066z" /></clipPath><clipPath id="107"><path d="M84.744 742.816L510.694 742.816L510.694 742.816L510.694 114.066L510.694 114.066L84.744 114.066z" /></clipPath><clipPath id="108"><path d="M84.744 742.816L510.694 742.816L510.694 742.816L510.694 114.066L510.694 114.066L84.744 114.066z" /></clipPath><clipPath id="109"><path d="M84.744 742.816L510.694 742.816L510.694 742.816L510.694 114.066L510.694 114.066L84.744 114.066z" /></clipPath><clipPath id="110"><path d="M84.744 742.816L510.694 742.816L510.694 742.816L510.694 114.066L510.694 114.066L84.744 114.066z" /></clipPath><clipPath id="111"><path d="M84.744 742.816L510.694 742.816L510.694 742.816L510.694 114.066L510.694 114.066L84.744 114.066z" /></clipPath><clipPath id="112"><path d="M84.744 742.816L510.694 742.816L510.694 742.816L510.694 114.066L510.694 114.066L84.744 114.066z" /></clipPath><clipPath id="113"><path d="M84.744 742.816L510.694 742.816L510.694 742.816L510.694 114.066L510.694 114.066L84.744 114.066z" /></clipPath><clipPath id="114"><path d="M84.744 742.816L510.694 742.816L510.694 742.816L510.694 114.066L510.694 114.066L84.744 114.066z" /></clipPath></defs><g transform="matrix(1.333333 0 0 1.333333 0 0)"><g><g clip-path="url(#1)"><path transform="matrix(1 0 0 -1 0 841)" d="M457.51 53.304L505.534 53.304L505.534 53.304L505.534 53.90404L505.534 53.90404L457.51 53.90404z" stroke="none" fill="#000000" fill-rule="evenodd" /><g clip-path="url(#2)"><path transform="matrix(1 0 0 -1 0 841)" d="M88.464 77.904L506.974 77.904L506.974 77.904L506.974 80.904L506.974 80.904L88.464 80.904z" stroke="none" fill="#000000" fill-rule="evenodd" /><path transform="matrix(1 0 0 -1 0 841)" d="M88.464 76.464L506.974 76.464L506.974 76.464L506.974 77.18397L506.974 77.18397L88.464 77.18397z" stroke="none" fill="#000000" fill-rule="evenodd" /></g><g clip-path="url(#3)"><g clip-path="url(#4)"></g><g clip-path="url(#5)"></g></g><path transform="matrix(1 0 0 -1 0 841)" d="M84.744 727.42L510.694 727.42L510.694 727.42L510.694 751.564L510.694 751.564L84.744 751.564z" stroke="none" fill="#0070C0" fill-rule="evenodd" /><g clip-path="url(#6)"><path transform="matrix(1 0 0 -1 0 841)" d="M89.904 727.42L505.534 727.42L505.534 727.42L505.534 751.564L505.534 751.564L89.904 751.564z" stroke="none" fill="#0070C0" fill-rule="evenodd" /><g clip-path="url(#7)"></g><g clip-path="url(#8)"></g><g clip-path="url(#9)"></g><g clip-path="url(#10)"></g><g clip-path="url(#11)"></g><g clip-path="url(#12)"></g></g><path transform="matrix(1 0 0 -1 0 841)" d="M84.264 751.56L84.744 751.56L84.744 751.56L84.744 752.04L84.744 752.04L84.264 752.04z" stroke="none" fill="#000000" fill-rule="evenodd" /><path transform="matrix(1 0 0 -1 0 841)" d="M84.264 751.56L84.744 751.56L84.744 751.56L84.744 752.04L84.744 752.04L84.264 752.04z" stroke="none" fill="#000000" fill-rule="evenodd" /><path transform="matrix(1 0 0 -1 0 841)" d="M84.744 751.56L510.694 751.56L510.694 751.56L510.694 752.04L510.694 752.04L84.744 752.04z" stroke="none" fill="#000000" fill-rule="evenodd" /><path transform="matrix(1 0 0 -1 0 841)" d="M510.7 751.56L511.18 751.56L511.18 751.56L511.18 752.04L511.18 752.04L510.7 752.04z" stroke="none" fill="#000000" fill-rule="evenodd" /><path transform="matrix(1 0 0 -1 0 841)" d="M510.7 751.56L511.18 751.56L511.18 751.56L511.18 752.04L511.18 752.04L510.7 752.04z" stroke="none" fill="#000000" fill-rule="evenodd" /><path transform="matrix(1 0 0 -1 0 841)" d="M84.264 727.42L84.744 727.42L84.744 727.42L84.744 751.564L84.744 751.564L84.264 751.564z" stroke="none" fill="#000000" fill-rule="evenodd" /><path transform="matrix(1 0 0 -1 0 841)" d="M510.7 727.42L511.18 727.42L511.18 727.42L511.18 751.564L511.18 751.564L510.7 751.564z" stroke="none" fill="#000000" fill-rule="evenodd" /><path transform="matrix(1 0 0 -1 0 841)" d="M84.744 98.184L510.694 98.184L510.694 98.184L510.694 726.934L510.694 726.934L84.744 726.934z" stroke="none" fill="#DAEEF3" fill-rule="evenodd" /><g clip-path="url(#13)"><path transform="matrix(1 0 0 -1 0 841)" d="M89.904 707.86L505.534 707.86L505.534 707.86L505.534 726.94L505.534 726.94L89.904 726.94z" stroke="none" fill="#DAEEF3" fill-rule="evenodd" /><g clip-path="url(#14)"></g><g clip-path="url(#15)"></g><path transform="matrix(1 0 0 -1 0 841)" d="M89.904 688.78L505.534 688.78L505.534 688.78L505.534 707.86L505.534 707.86L89.904 707.86z" stroke="none" fill="#DAEEF3" fill-rule="evenodd" /><g clip-path="url(#16)"></g><g clip-path="url(#17)"></g><g clip-path="url(#18)"></g><path transform="matrix(1 0 0 -1 0 841)" d="M89.904 669.7L505.534 669.7L505.534 669.7L505.534 688.78L505.534 688.78L89.904 688.78z" stroke="none" fill="#DAEEF3" fill-rule="evenodd" /><g clip-path="url(#19)"></g><g clip-path="url(#20)"></g><g clip-path="url(#21)"></g><path transform="matrix(1 0 0 -1 0 841)" d="M89.904 650.74L505.534 650.74L505.534 650.74L505.534 669.7L505.534 669.7L89.904 669.7z" stroke="none" fill="#DAEEF3" fill-rule="evenodd" /><g clip-path="url(#22)"></g><g clip-path="url(#23)"></g><g clip-path="url(#24)"></g><path transform="matrix(1 0 0 -1 0 841)" d="M89.904 631.66L505.534 631.66L505.534 631.66L505.534 650.74L505.534 650.74L89.904 650.74z" stroke="none" fill="#DAEEF3" fill-rule="evenodd" /><g clip-path="url(#25)"></g><g clip-path="url(#26)"></g><g clip-path="url(#27)"></g><path transform="matrix(1 0 0 -1 0 841)" d="M89.904 612.58L505.534 612.58L505.534 612.58L505.534 631.66L505.534 631.66L89.904 631.66z" stroke="none" fill="#DAEEF3" fill-rule="evenodd" /><g clip-path="url(#28)"></g><g clip-path="url(#29)"></g><g clip-path="url(#30)"></g><path transform="matrix(1 0 0 -1 0 841)" d="M89.904 593.5L505.534 593.5L505.534 593.5L505.534 612.58L505.534 612.58L89.904 612.58z" stroke="none" fill="#DAEEF3" fill-rule="evenodd" /><g clip-path="url(#31)"></g><g clip-path="url(#32)"></g><g clip-path="url(#33)"></g><path transform="matrix(1 0 0 -1 0 841)" d="M89.904 574.54L505.534 574.54L505.534 574.54L505.534 593.5L505.534 593.5L89.904 593.5z" stroke="none" fill="#DAEEF3" fill-rule="evenodd" /><g clip-path="url(#34)"></g><g clip-path="url(#35)"></g><g clip-path="url(#36)"></g><path transform="matrix(1 0 0 -1 0 841)" d="M89.904 555.43L505.534 555.43L505.534 555.43L505.534 574.534L505.534 574.534L89.904 574.534z" stroke="none" fill="#DAEEF3" fill-rule="evenodd" /><g clip-path="url(#37)"></g><g clip-path="url(#38)"></g><g clip-path="url(#39)"></g><path transform="matrix(1 0 0 -1 0 841)" d="M89.904 536.35L505.534 536.35L505.534 536.35L505.534 555.43L505.534 555.43L89.904 555.43z" stroke="none" fill="#DAEEF3" fill-rule="evenodd" /><g clip-path="url(#40)"></g><g clip-path="url(#41)"></g><g clip-path="url(#42)"></g><path transform="matrix(1 0 0 -1 0 841)" d="M89.904 517.27L505.534 517.27L505.534 517.27L505.534 536.35L505.534 536.35L89.904 536.35z" stroke="none" fill="#DAEEF3" fill-rule="evenodd" /><g clip-path="url(#43)"></g><g clip-path="url(#44)"></g><g clip-path="url(#45)"></g><g clip-path="url(#46)"></g><path transform="matrix(1 0 0 -1 0 841)" d="M89.904 498.31L505.534 498.31L505.534 498.31L505.534 517.27L505.534 517.27L89.904 517.27z" stroke="none" fill="#DAEEF3" fill-rule="evenodd" /><g clip-path="url(#47)"></g><g clip-path="url(#48)"></g><g clip-path="url(#49)"></g><path transform="matrix(1 0 0 -1 0 841)" d="M89.904 479.23L505.534 479.23L505.534 479.23L505.534 498.31L505.534 498.31L89.904 498.31z" stroke="none" fill="#DAEEF3" fill-rule="evenodd" /><g clip-path="url(#50)"></g><g clip-path="url(#51)"></g><g clip-path="url(#52)"></g><path transform="matrix(1 0 0 -1 0 841)" d="M89.904 460.15L505.534 460.15L505.534 460.15L505.534 479.23L505.534 479.23L89.904 479.23z" stroke="none" fill="#DAEEF3" fill-rule="evenodd" /><g clip-path="url(#53)"></g><g clip-path="url(#54)"></g><path transform="matrix(1 0 0 -1 0 841)" d="M89.904 441.07L505.534 441.07L505.534 441.07L505.534 460.15L505.534 460.15L89.904 460.15z" stroke="none" fill="#DAEEF3" fill-rule="evenodd" /><g clip-path="url(#55)"></g><g clip-path="url(#56)"></g><path transform="matrix(1 0 0 -1 0 841)" d="M89.904 422.11L505.534 422.11L505.534 422.11L505.534 441.07L505.534 441.07L89.904 441.07z" stroke="none" fill="#DAEEF3" fill-rule="evenodd" /><g clip-path="url(#57)"></g><g clip-path="url(#58)"></g><g clip-path="url(#59)"></g><path transform="matrix(1 0 0 -1 0 841)" d="M89.904 403.03L505.534 403.03L505.534 403.03L505.534 422.11L505.534 422.11L89.904 422.11z" stroke="none" fill="#DAEEF3" fill-rule="evenodd" /><g clip-path="url(#60)"></g><g clip-path="url(#61)"></g><g clip-path="url(#62)"></g><path transform="matrix(1 0 0 -1 0 841)" d="M89.904 383.95L505.534 383.95L505.534 383.95L505.534 403.03L505.534 403.03L89.904 403.03z" stroke="none" fill="#DAEEF3" fill-rule="evenodd" /><g clip-path="url(#63)"></g><g clip-path="url(#64)"></g><g clip-path="url(#65)"></g><path transform="matrix(1 0 0 -1 0 841)" d="M89.904 364.85L505.534 364.85L505.534 364.85L505.534 383.954L505.534 383.954L89.904 383.954z" stroke="none" fill="#DAEEF3" fill-rule="evenodd" /><g clip-path="url(#66)"></g><g clip-path="url(#67)"></g><g clip-path="url(#68)"></g><path transform="matrix(1 0 0 -1 0 841)" d="M89.904 345.89L505.534 345.89L505.534 345.89L505.534 364.85L505.534 364.85L89.904 364.85z" stroke="none" fill="#DAEEF3" fill-rule="evenodd" /><g clip-path="url(#69)"></g><g clip-path="url(#70)"></g><g clip-path="url(#71)"></g><path transform="matrix(1 0 0 -1 0 841)" d="M89.904 326.81L505.534 326.81L505.534 326.81L505.534 345.89L505.534 345.89L89.904 345.89z" stroke="none" fill="#DAEEF3" fill-rule="evenodd" /><g clip-path="url(#72)"></g><g clip-path="url(#73)"></g><g clip-path="url(#74)"></g><path transform="matrix(1 0 0 -1 0 841)" d="M89.904 307.73L505.534 307.73L505.534 307.73L505.534 326.81L505.534 326.81L89.904 326.81z" stroke="none" fill="#DAEEF3" fill-rule="evenodd" /><g clip-path="url(#75)"></g><g clip-path="url(#76)"></g><g clip-path="url(#77)"></g><path transform="matrix(1 0 0 -1 0 841)" d="M89.904 288.65L505.534 288.65L505.534 288.65L505.534 307.73L505.534 307.73L89.904 307.73z" stroke="none" fill="#DAEEF3" fill-rule="evenodd" /><g clip-path="url(#78)"></g><g clip-path="url(#79)"></g><g clip-path="url(#80)"></g><path transform="matrix(1 0 0 -1 0 841)" d="M89.904 269.69L505.534 269.69L505.534 269.69L505.534 288.65L505.534 288.65L89.904 288.65z" stroke="none" fill="#DAEEF3" fill-rule="evenodd" /><g clip-path="url(#81)"></g><g clip-path="url(#82)"></g><g clip-path="url(#83)"></g><path transform="matrix(1 0 0 -1 0 841)" d="M89.904 250.61L505.534 250.61L505.534 250.61L505.534 269.69L505.534 269.69L89.904 269.69z" stroke="none" fill="#DAEEF3" fill-rule="evenodd" /><g clip-path="url(#84)"></g><g clip-path="url(#85)"></g><g clip-path="url(#86)"></g><g clip-path="url(#87)"></g><path transform="matrix(1 0 0 -1 0 841)" d="M89.904 231.53L505.534 231.53L505.534 231.53L505.534 250.61L505.534 250.61L89.904 250.61z" stroke="none" fill="#DAEEF3" fill-rule="evenodd" /><g clip-path="url(#88)"></g><g clip-path="url(#89)"></g><g clip-path="url(#90)"></g><path transform="matrix(1 0 0 -1 0 841)" d="M89.904 212.45L505.534 212.45L505.534 212.45L505.534 231.53L505.534 231.53L89.904 231.53z" stroke="none" fill="#DAEEF3" fill-rule="evenodd" /><g clip-path="url(#91)"></g><g clip-path="url(#92)"></g><g clip-path="url(#93)"></g><path transform="matrix(1 0 0 -1 0 841)" d="M89.904 193.49L505.534 193.49L505.534 193.49L505.534 212.45L505.534 212.45L89.904 212.45z" stroke="none" fill="#DAEEF3" fill-rule="evenodd" /><g clip-path="url(#94)"></g><g clip-path="url(#95)"></g><g clip-path="url(#96)"></g><path transform="matrix(1 0 0 -1 0 841)" d="M89.904 174.38L505.534 174.38L505.534 174.38L505.534 193.484L505.534 193.484L89.904 193.484z" stroke="none" fill="#DAEEF3" fill-rule="evenodd" /><g clip-path="url(#97)"></g><g clip-path="url(#98)"></g><g clip-path="url(#99)"></g><path transform="matrix(1 0 0 -1 0 841)" d="M89.904 155.3L505.534 155.3L505.534 155.3L505.534 174.38L505.534 174.38L89.904 174.38z" stroke="none" fill="#DAEEF3" fill-rule="evenodd" /><g clip-path="url(#100)"></g><g clip-path="url(#101)"></g><g clip-path="url(#102)"></g><path transform="matrix(1 0 0 -1 0 841)" d="M89.904 136.22L505.534 136.22L505.534 136.22L505.534 155.3L505.534 155.3L89.904 155.3z" stroke="none" fill="#DAEEF3" fill-rule="evenodd" /><g clip-path="url(#103)"></g><g clip-path="url(#104)"></g><g clip-path="url(#105)"></g><g clip-path="url(#106)"></g><path transform="matrix(1 0 0 -1 0 841)" d="M89.904 117.26L505.534 117.26L505.534 117.26L505.534 136.22L505.534 136.22L89.904 136.22z" stroke="none" fill="#DAEEF3" fill-rule="evenodd" /><g clip-path="url(#107)"></g><g clip-path="url(#108)"></g><g clip-path="url(#109)"></g><g clip-path="url(#110)"></g><g clip-path="url(#111)"></g><path transform="matrix(1 0 0 -1 0 841)" d="M89.904 98.184L505.534 98.184L505.534 98.184L505.534 117.264L505.534 117.264L89.904 117.264z" stroke="none" fill="#DAEEF3" fill-rule="evenodd" /><g clip-path="url(#112)"></g><g clip-path="url(#113)"></g><g clip-path="url(#114)"></g></g><path transform="matrix(1 0 0 -1 0 841)" d="M84.264 726.94L84.744 726.94L84.744 726.94L84.744 727.42L84.744 727.42L84.264 727.42z" stroke="none" fill="#000000" fill-rule="evenodd" /><path transform="matrix(1 0 0 -1 0 841)" d="M84.744 726.94L510.694 726.94L510.694 726.94L510.694 727.42L510.694 727.42L84.744 727.42z" stroke="none" fill="#000000" fill-rule="evenodd" /><path transform="matrix(1 0 0 -1 0 841)" d="M510.7 726.94L511.18 726.94L511.18 726.94L511.18 727.42L511.18 727.42L510.7 727.42z" stroke="none" fill="#000000" fill-rule="evenodd" /><path transform="matrix(1 0 0 -1 0 841)" d="M84.264 98.184L84.744 98.184L84.744 98.184L84.744 726.934L84.744 726.934L84.264 726.934z" stroke="none" fill="#000000" fill-rule="evenodd" /><path transform="matrix(1 0 0 -1 0 841)" d="M84.264 97.704L84.744 97.704L84.744 97.704L84.744 98.18398L84.744 98.18398L84.264 98.18398z" stroke="none" fill="#000000" fill-rule="evenodd" /><path transform="matrix(1 0 0 -1 0 841)" d="M84.264 97.704L84.744 97.704L84.744 97.704L84.744 98.18398L84.744 98.18398L84.264 98.18398z" stroke="none" fill="#000000" fill-rule="evenodd" /><path transform="matrix(1 0 0 -1 0 841)" d="M84.744 97.704L510.694 97.704L510.694 97.704L510.694 98.18398L510.694 98.18398L84.744 98.18398z" stroke="none" fill="#000000" fill-rule="evenodd" /><path transform="matrix(1 0 0 -1 0 841)" d="M510.7 98.184L511.18 98.184L511.18 98.184L511.18 726.934L511.18 726.934L510.7 726.934z" stroke="none" fill="#000000" fill-rule="evenodd" /><path transform="matrix(1 0 0 -1 0 841)" d="M510.7 97.704L511.18 97.704L511.18 97.704L511.18 98.18398L511.18 98.18398L510.7 98.18398z" stroke="none" fill="#000000" fill-rule="evenodd" /><path transform="matrix(1 0 0 -1 0 841)" d="M510.7 97.704L511.18 97.704L511.18 97.704L511.18 98.18398L511.18 98.18398L510.7 98.18398z" stroke="none" fill="#000000" fill-rule="evenodd" /></g></g></g></svg>