<svg xmlns="http://www.w3.org/2000/svg" xmlns:xlink="http://www.w3.org/1999/xlink" id="body_85" preserveAspectRatio="xMinYMin meet" viewBox="0 0 793 1121"><defs><clipPath id="1"><path d="M0 841L0 -0.9199829L0 -0.9199829L595.32 -0.9199829L595.32 -0.9199829L595.32 841L595.32 841L0 841z" /></clipPath><clipPath id="2"><path d="M0.00125 841.0914L595.4112 841.0914L595.4112 841.0914L595.4112 -0.9186401L595.4112 -0.9186401L0.00125 -0.9186401z" /></clipPath><clipPath id="3"><path d="M288.05 779.771L316.01 779.771L316.01 779.771L316.01 760.691L316.01 760.691L288.05 760.691z" /></clipPath><clipPath id="4"><path d="M288.05 779.776L316.01 779.776L316.01 779.776L316.01 760.696L316.01 760.696L288.05 760.696z" /></clipPath><clipPath id="5"><path d="M288.05 779.776L316.01 779.776L316.01 779.776L316.01 760.696L316.01 760.696L288.05 760.696z" /></clipPath><clipPath id="6"><path d="M84.751 148.15L176.431 148.15L176.431 148.15L176.431 129.07L176.431 129.07L84.751 129.07z" /></clipPath><clipPath id="7"><path d="M84.744 148.14L176.424 148.14L176.424 148.14L176.424 129.06L176.424 129.06L84.744 129.06z" /></clipPath><clipPath id="8"><path d="M84.744 148.14L176.424 148.14L176.424 148.14L176.424 129.06L176.424 129.06L84.744 129.06z" /></clipPath><clipPath id="9"><path d="M176.91 148.15L239.445 148.15L239.445 148.15L239.445 129.07L239.445 129.07L176.91 129.07z" /></clipPath><clipPath id="10"><path d="M176.9 148.14L239.444 148.14L239.444 148.14L239.444 129.06L239.444 129.06L176.9 129.06z" /></clipPath><clipPath id="11"><path d="M176.9 148.14L239.444 148.14L239.444 148.14L239.444 129.06L239.444 129.06L176.9 129.06z" /></clipPath><clipPath id="12"><path d="M240.05 148.15L296.93 148.15L296.93 148.15L296.93 129.07L296.93 129.07L240.05 129.07z" /></clipPath><clipPath id="13"><path d="M240.05 148.14L296.93 148.14L296.93 148.14L296.93 129.06L296.93 129.06L240.05 129.06z" /></clipPath><clipPath id="14"><path d="M240.05 148.14L296.93 148.14L296.93 148.14L296.93 129.06L296.93 129.06L240.05 129.06z" /></clipPath><clipPath id="15"><path d="M297.41 148.15L389.12 148.15L389.12 148.15L389.12 129.07L389.12 129.07L297.41 129.07z" /></clipPath><clipPath id="16"><path d="M297.41 148.14L389.114 148.14L389.114 148.14L389.114 129.06L389.114 129.06L297.41 129.06z" /></clipPath><clipPath id="17"><path d="M297.41 148.14L389.114 148.14L389.114 148.14L389.114 129.06L389.114 129.06L297.41 129.06z" /></clipPath><clipPath id="18"><path d="M389.6 148.15L502.54 148.15L502.54 148.15L502.54 129.07L502.54 129.07L389.6 129.07z" /></clipPath><clipPath id="19"><path d="M389.59 148.14L502.53 148.14L502.53 148.14L502.53 129.06L502.53 129.06L389.59 129.06z" /></clipPath><clipPath id="20"><path d="M389.59 148.14L502.53 148.14L502.53 148.14L502.53 129.06L502.53 129.06L389.59 129.06z" /></clipPath><clipPath id="21"><path d="M84.751 215.83L176.431 215.83L176.431 215.83L176.431 148.63L176.431 148.63L84.751 148.63z" /></clipPath><clipPath id="22"><path d="M84.744 215.82L176.424 215.82L176.424 215.82L176.424 148.62L176.424 148.62L84.744 148.62z" /></clipPath><clipPath id="23"><path d="M84.744 215.82L176.424 215.82L176.424 215.82L176.424 148.62L176.424 148.62L84.744 148.62z" /></clipPath><clipPath id="24"><path d="M176.91 215.83L239.445 215.83L239.445 215.83L239.445 148.63L239.445 148.63L176.91 148.63z" /></clipPath><clipPath id="25"><path d="M176.9 215.82L239.444 215.82L239.444 215.82L239.444 148.62L239.444 148.62L176.9 148.62z" /></clipPath><clipPath id="26"><path d="M176.9 215.82L239.444 215.82L239.444 215.82L239.444 148.62L239.444 148.62L176.9 148.62z" /></clipPath><clipPath id="27"><path d="M240.05 215.83L296.93 215.83L296.93 215.83L296.93 148.63L296.93 148.63L240.05 148.63z" /></clipPath><clipPath id="28"><path d="M240.05 215.82L296.93 215.82L296.93 215.82L296.93 148.62L296.93 148.62L240.05 148.62z" /></clipPath><clipPath id="29"><path d="M240.05 215.82L296.93 215.82L296.93 215.82L296.93 148.62L296.93 148.62L240.05 148.62z" /></clipPath><clipPath id="30"><path d="M297.41 215.83L389.12 215.83L389.12 215.83L389.12 148.63L389.12 148.63L297.41 148.63z" /></clipPath><clipPath id="31"><path d="M297.41 215.82L389.114 215.82L389.114 215.82L389.114 148.62L389.114 148.62L297.41 148.62z" /></clipPath><clipPath id="32"><path d="M297.41 215.82L389.114 215.82L389.114 215.82L389.114 148.62L389.114 148.62L297.41 148.62z" /></clipPath><clipPath id="33"><path d="M297.41 215.82L389.114 215.82L389.114 215.82L389.114 148.62L389.114 148.62L297.41 148.62z" /></clipPath><clipPath id="34"><path d="M297.41 215.82L389.114 215.82L389.114 215.82L389.114 148.62L389.114 148.62L297.41 148.62z" /></clipPath><clipPath id="35"><path d="M389.6 215.83L502.54 215.83L502.54 215.83L502.54 148.63L502.54 148.63L389.6 148.63z" /></clipPath><clipPath id="36"><path d="M389.59 215.82L502.53 215.82L502.53 215.82L502.53 148.62L502.53 148.62L389.59 148.62z" /></clipPath><clipPath id="37"><path d="M389.59 215.82L502.53 215.82L502.53 215.82L502.53 148.62L502.53 148.62L389.59 148.62z" /></clipPath><clipPath id="38"><path d="M84.751 387.81L176.431 387.81L176.431 387.81L176.431 216.31L176.431 216.31L84.751 216.31z" /></clipPath><clipPath id="39"><path d="M84.744 387.81L176.424 387.81L176.424 387.81L176.424 216.31L176.424 216.31L84.744 216.31z" /></clipPath><clipPath id="40"><path d="M84.744 387.81L176.424 387.81L176.424 387.81L176.424 216.31L176.424 216.31L84.744 216.31z" /></clipPath><clipPath id="41"><path d="M176.91 387.81L239.445 387.81L239.445 387.81L239.445 216.31L239.445 216.31L176.91 216.31z" /></clipPath><clipPath id="42"><path d="M176.9 387.81L239.444 387.81L239.444 387.81L239.444 216.31L239.444 216.31L176.9 216.31z" /></clipPath><clipPath id="43"><path d="M176.9 387.81L239.444 387.81L239.444 387.81L239.444 216.31L239.444 216.31L176.9 216.31z" /></clipPath><clipPath id="44"><path d="M240.05 387.81L296.93 387.81L296.93 387.81L296.93 216.31L296.93 216.31L240.05 216.31z" /></clipPath><clipPath id="45"><path d="M240.05 387.81L296.93 387.81L296.93 387.81L296.93 216.31L296.93 216.31L240.05 216.31z" /></clipPath><clipPath id="46"><path d="M240.05 387.81L296.93 387.81L296.93 387.81L296.93 216.31L296.93 216.31L240.05 216.31z" /></clipPath><clipPath id="47"><path d="M297.41 387.81L389.12 387.81L389.12 387.81L389.12 216.31L389.12 216.31L297.41 216.31z" /></clipPath><clipPath id="48"><path d="M297.41 387.81L389.114 387.81L389.114 387.81L389.114 216.31L389.114 216.31L297.41 216.31z" /></clipPath><clipPath id="49"><path d="M297.41 387.81L389.114 387.81L389.114 387.81L389.114 216.31L389.114 216.31L297.41 216.31z" /></clipPath><clipPath id="50"><path d="M389.6 387.81L502.54 387.81L502.54 387.81L502.54 216.31L502.54 216.31L389.6 216.31z" /></clipPath><clipPath id="51"><path d="M389.59 387.81L502.53 387.81L502.53 387.81L502.53 216.31L502.53 216.31L389.59 216.31z" /></clipPath><clipPath id="52"><path d="M389.59 387.81L502.53 387.81L502.53 387.81L502.53 216.31L502.53 216.31L389.59 216.31z" /></clipPath><clipPath id="53"><path d="M389.59 387.81L502.53 387.81L502.53 387.81L502.53 216.31L502.53 216.31L389.59 216.31z" /></clipPath><clipPath id="54"><path d="M389.59 387.81L502.53 387.81L502.53 387.81L502.53 216.31L502.53 216.31L389.59 216.31z" /></clipPath><clipPath id="55"><path d="M389.59 387.81L502.53 387.81L502.53 387.81L502.53 216.31L502.53 216.31L389.59 216.31z" /></clipPath><clipPath id="56"><path d="M389.59 387.81L502.53 387.81L502.53 387.81L502.53 216.31L502.53 216.31L389.59 216.31z" /></clipPath><clipPath id="57"><path d="M389.59 387.81L502.53 387.81L502.53 387.81L502.53 216.31L502.53 216.31L389.59 216.31z" /></clipPath><clipPath id="58"><path d="M389.59 387.81L502.53 387.81L502.53 387.81L502.53 216.31L502.53 216.31L389.59 216.31z" /></clipPath><clipPath id="59"><path d="M389.59 387.81L502.53 387.81L502.53 387.81L502.53 216.31L502.53 216.31L389.59 216.31z" /></clipPath><clipPath id="60"><path d="M389.59 387.81L502.53 387.81L502.53 387.81L502.53 216.31L502.53 216.31L389.59 216.31z" /></clipPath><clipPath id="61"><path d="M389.59 387.81L502.53 387.81L502.53 387.81L502.53 216.31L502.53 216.31L389.59 216.31z" /></clipPath><clipPath id="62"><path d="M389.59 387.81L502.53 387.81L502.53 387.81L502.53 216.31L502.53 216.31L389.59 216.31z" /></clipPath><clipPath id="63"><path d="M389.59 387.81L502.53 387.81L502.53 387.81L502.53 216.31L502.53 216.31L389.59 216.31z" /></clipPath><clipPath id="64"><path d="M389.59 387.81L502.53 387.81L502.53 387.81L502.53 216.31L502.53 216.31L389.59 216.31z" /></clipPath><clipPath id="65"><path d="M389.59 387.81L502.53 387.81L502.53 387.81L502.53 216.31L502.53 216.31L389.59 216.31z" /></clipPath><clipPath id="66"><path d="M389.59 387.81L502.53 387.81L502.53 387.81L502.53 216.31L502.53 216.31L389.59 216.31z" /></clipPath><clipPath id="67"><path d="M389.59 387.81L502.53 387.81L502.53 387.81L502.53 216.31L502.53 216.31L389.59 216.31z" /></clipPath><clipPath id="68"><path d="M389.59 387.81L502.53 387.81L502.53 387.81L502.53 216.31L502.53 216.31L389.59 216.31z" /></clipPath><clipPath id="69"><path d="M389.59 387.81L502.53 387.81L502.53 387.81L502.53 216.31L502.53 216.31L389.59 216.31z" /></clipPath><clipPath id="70"><path d="M389.59 387.81L502.53 387.81L502.53 387.81L502.53 216.31L502.53 216.31L389.59 216.31z" /></clipPath><clipPath id="71"><path d="M84.751 426.81L502.531 426.81L502.531 426.81L502.531 407.85L502.531 407.85L84.751 407.85z" /></clipPath><clipPath id="72"><path d="M84.744 426.81L502.534 426.81L502.534 426.81L502.534 407.85L502.534 407.85L84.744 407.85z" /></clipPath><clipPath id="73"><path d="M84.744 426.81L502.534 426.81L502.534 426.81L502.534 407.85L502.534 407.85L84.744 407.85z" /></clipPath><clipPath id="74"><path d="M84.744 426.81L502.534 426.81L502.534 426.81L502.534 407.85L502.534 407.85L84.744 407.85z" /></clipPath><clipPath id="75"><path d="M84.751 732.25L502.531 732.25L502.531 732.25L502.531 427.4L502.531 427.4L84.751 427.4z" /></clipPath><clipPath id="76"><path d="M84.744 732.26L502.534 732.26L502.534 732.26L502.534 427.41L502.534 427.41L84.744 427.41z" /></clipPath><clipPath id="77"><path d="M84.744 732.26L502.534 732.26L502.534 732.26L502.534 427.41L502.534 427.41L84.744 427.41z" /></clipPath><clipPath id="78"><path d="M84.744 732.26L502.534 732.26L502.534 732.26L502.534 427.41L502.534 427.41L84.744 427.41z" /></clipPath><clipPath id="79"><path d="M84.744 732.26L502.534 732.26L502.534 732.26L502.534 427.41L502.534 427.41L84.744 427.41z" /></clipPath><clipPath id="80"><path d="M84.744 732.26L502.534 732.26L502.534 732.26L502.534 427.41L502.534 427.41L84.744 427.41z" /></clipPath><clipPath id="81"><path d="M84.744 732.26L502.534 732.26L502.534 732.26L502.534 427.41L502.534 427.41L84.744 427.41z" /></clipPath><clipPath id="82"><path d="M84.744 732.26L502.534 732.26L502.534 732.26L502.534 427.41L502.534 427.41L84.744 427.41z" /></clipPath><clipPath id="83"><path d="M84.744 732.26L502.534 732.26L502.534 732.26L502.534 427.41L502.534 427.41L84.744 427.41z" /></clipPath><clipPath id="84"><path d="M84.744 732.26L502.534 732.26L502.534 732.26L502.534 427.41L502.534 427.41L84.744 427.41z" /></clipPath><clipPath id="85"><path d="M84.744 732.26L502.534 732.26L502.534 732.26L502.534 427.41L502.534 427.41L84.744 427.41z" /></clipPath><clipPath id="86"><path d="M84.744 732.26L502.534 732.26L502.534 732.26L502.534 427.41L502.534 427.41L84.744 427.41z" /></clipPath><clipPath id="87"><path d="M84.744 732.26L502.534 732.26L502.534 732.26L502.534 427.41L502.534 427.41L84.744 427.41z" /></clipPath><clipPath id="88"><path d="M84.744 732.26L502.534 732.26L502.534 732.26L502.534 427.41L502.534 427.41L84.744 427.41z" /></clipPath><clipPath id="89"><path d="M84.744 732.26L502.534 732.26L502.534 732.26L502.534 427.41L502.534 427.41L84.744 427.41z" /></clipPath><clipPath id="90"><path d="M84.744 732.26L502.534 732.26L502.534 732.26L502.534 427.41L502.534 427.41L84.744 427.41z" /></clipPath><clipPath id="91"><path d="M84.744 732.26L502.534 732.26L502.534 732.26L502.534 427.41L502.534 427.41L84.744 427.41z" /></clipPath><clipPath id="92"><path d="M84.744 732.26L502.534 732.26L502.534 732.26L502.534 427.41L502.534 427.41L84.744 427.41z" /></clipPath><clipPath id="93"><path d="M84.744 732.26L502.534 732.26L502.534 732.26L502.534 427.41L502.534 427.41L84.744 427.41z" /></clipPath><clipPath id="94"><path d="M84.744 732.26L502.534 732.26L502.534 732.26L502.534 427.41L502.534 427.41L84.744 427.41z" /></clipPath><clipPath id="95"><path d="M84.744 732.26L502.534 732.26L502.534 732.26L502.534 427.41L502.534 427.41L84.744 427.41z" /></clipPath><clipPath id="96"><path d="M84.744 732.26L502.534 732.26L502.534 732.26L502.534 427.41L502.534 427.41L84.744 427.41z" /></clipPath><clipPath id="97"><path d="M84.744 732.26L502.534 732.26L502.534 732.26L502.534 427.41L502.534 427.41L84.744 427.41z" /></clipPath><clipPath id="98"><path d="M84.744 732.26L502.534 732.26L502.534 732.26L502.534 427.41L502.534 427.41L84.744 427.41z" /></clipPath><clipPath id="99"><path d="M84.744 732.26L502.534 732.26L502.534 732.26L502.534 427.41L502.534 427.41L84.744 427.41z" /></clipPath><clipPath id="100"><path d="M84.744 732.26L502.534 732.26L502.534 732.26L502.534 427.41L502.534 427.41L84.744 427.41z" /></clipPath><clipPath id="101"><path d="M84.744 732.26L502.534 732.26L502.534 732.26L502.534 427.41L502.534 427.41L84.744 427.41z" /></clipPath><clipPath id="102"><path d="M84.744 732.26L502.534 732.26L502.534 732.26L502.534 427.41L502.534 427.41L84.744 427.41z" /></clipPath><clipPath id="103"><path d="M84.744 732.26L502.534 732.26L502.534 732.26L502.534 427.41L502.534 427.41L84.744 427.41z" /></clipPath><clipPath id="104"><path d="M84.744 732.26L502.534 732.26L502.534 732.26L502.534 427.41L502.534 427.41L84.744 427.41z" /></clipPath><clipPath id="105"><path d="M84.744 732.26L502.534 732.26L502.534 732.26L502.534 427.41L502.534 427.41L84.744 427.41z" /></clipPath><clipPath id="106"><path d="M84.744 732.26L502.534 732.26L502.534 732.26L502.534 427.41L502.534 427.41L84.744 427.41z" /></clipPath><clipPath id="107"><path d="M84.744 732.26L502.534 732.26L502.534 732.26L502.534 427.41L502.534 427.41L84.744 427.41z" /></clipPath><clipPath id="108"><path d="M84.744 732.26L502.534 732.26L502.534 732.26L502.534 427.41L502.534 427.41L84.744 427.41z" /></clipPath><clipPath id="109"><path d="M84.744 732.26L502.534 732.26L502.534 732.26L502.534 427.41L502.534 427.41L84.744 427.41z" /></clipPath><clipPath id="110"><path d="M84.744 732.26L502.534 732.26L502.534 732.26L502.534 427.41L502.534 427.41L84.744 427.41z" /></clipPath><clipPath id="111"><path d="M84.744 732.26L502.534 732.26L502.534 732.26L502.534 427.41L502.534 427.41L84.744 427.41z" /></clipPath><clipPath id="112"><path d="M84.744 732.26L502.534 732.26L502.534 732.26L502.534 427.41L502.534 427.41L84.744 427.41z" /></clipPath><clipPath id="113"><path d="M84.744 732.26L502.534 732.26L502.534 732.26L502.534 427.41L502.534 427.41L84.744 427.41z" /></clipPath><clipPath id="114"><path d="M84.744 732.26L502.534 732.26L502.534 732.26L502.534 427.41L502.534 427.41L84.744 427.41z" /></clipPath><clipPath id="115"><path d="M84.744 732.26L502.534 732.26L502.534 732.26L502.534 427.41L502.534 427.41L84.744 427.41z" /></clipPath><clipPath id="116"><path d="M84.744 732.26L502.534 732.26L502.534 732.26L502.534 427.41L502.534 427.41L84.744 427.41z" /></clipPath><clipPath id="117"><path d="M84.744 732.26L502.534 732.26L502.534 732.26L502.534 427.41L502.534 427.41L84.744 427.41z" /></clipPath><clipPath id="118"><path d="M84.744 732.26L502.534 732.26L502.534 732.26L502.534 427.41L502.534 427.41L84.744 427.41z" /></clipPath><clipPath id="119"><path d="M84.744 732.26L502.534 732.26L502.534 732.26L502.534 427.41L502.534 427.41L84.744 427.41z" /></clipPath><clipPath id="120"><path d="M84.744 732.26L502.534 732.26L502.534 732.26L502.534 427.41L502.534 427.41L84.744 427.41z" /></clipPath><clipPath id="121"><path d="M84.744 732.26L502.534 732.26L502.534 732.26L502.534 427.41L502.534 427.41L84.744 427.41z" /></clipPath><clipPath id="122"><path d="M84.744 732.26L502.534 732.26L502.534 732.26L502.534 427.41L502.534 427.41L84.744 427.41z" /></clipPath><clipPath id="123"><path d="M84.744 732.26L502.534 732.26L502.534 732.26L502.534 427.41L502.534 427.41L84.744 427.41z" /></clipPath><clipPath id="124"><path d="M84.744 732.26L502.534 732.26L502.534 732.26L502.534 427.41L502.534 427.41L84.744 427.41z" /></clipPath><clipPath id="125"><path d="M84.744 732.26L502.534 732.26L502.534 732.26L502.534 427.41L502.534 427.41L84.744 427.41z" /></clipPath></defs><g transform="matrix(1.333333 0 0 1.333333 0 0)"><g><g clip-path="url(#1)"><path transform="matrix(1 0 0 -1 0 841)" d="M457.51 53.304L505.534 53.304L505.534 53.304L505.534 53.90404L505.534 53.90404L457.51 53.90404z" stroke="none" fill="#000000" fill-rule="evenodd" /><g clip-path="url(#2)"><path transform="matrix(1 0 0 -1 0 841)" d="M88.464 77.904L506.974 77.904L506.974 77.904L506.974 80.904L506.974 80.904L88.464 80.904z" stroke="none" fill="#000000" fill-rule="evenodd" /><path transform="matrix(1 0 0 -1 0 841)" d="M88.464 76.464L506.974 76.464L506.974 76.464L506.974 77.18397L506.974 77.18397L88.464 77.18397z" stroke="none" fill="#000000" fill-rule="evenodd" /></g><g clip-path="url(#3)"><g clip-path="url(#4)"></g><g clip-path="url(#5)"></g></g><path transform="matrix(1 0 0 -1 0 841)" d="M84.744 692.86L176.424 692.86L176.424 692.86L176.424 711.94L176.424 711.94L84.744 711.94z" stroke="none" fill="#0070C0" fill-rule="evenodd" /><g clip-path="url(#6)"><path transform="matrix(1 0 0 -1 0 841)" d="M89.904 692.86L171.264 692.86L171.264 692.86L171.264 711.94L171.264 711.94L89.904 711.94z" stroke="none" fill="#0070C0" fill-rule="evenodd" /><g clip-path="url(#7)"></g><g clip-path="url(#8)"></g></g><path transform="matrix(1 0 0 -1 0 841)" d="M176.9 692.86L239.444 692.86L239.444 692.86L239.444 711.94L239.444 711.94L176.9 711.94z" stroke="none" fill="#0070C0" fill-rule="evenodd" /><g clip-path="url(#9)"><path transform="matrix(1 0 0 -1 0 841)" d="M182.06 692.86L234.404 692.86L234.404 692.86L234.404 711.94L234.404 711.94L182.06 711.94z" stroke="none" fill="#0070C0" fill-rule="evenodd" /><g clip-path="url(#10)"></g><g clip-path="url(#11)"></g></g><path transform="matrix(1 0 0 -1 0 841)" d="M240.05 692.86L296.93 692.86L296.93 692.86L296.93 711.94L296.93 711.94L240.05 711.94z" stroke="none" fill="#0070C0" fill-rule="evenodd" /><g clip-path="url(#12)"><path transform="matrix(1 0 0 -1 0 841)" d="M245.21 692.86L291.77 692.86L291.77 692.86L291.77 711.94L291.77 711.94L245.21 711.94z" stroke="none" fill="#0070C0" fill-rule="evenodd" /><g clip-path="url(#13)"></g><g clip-path="url(#14)"></g></g><path transform="matrix(1 0 0 -1 0 841)" d="M297.41 692.86L389.114 692.86L389.114 692.86L389.114 711.94L389.114 711.94L297.41 711.94z" stroke="none" fill="#0070C0" fill-rule="evenodd" /><g clip-path="url(#15)"><path transform="matrix(1 0 0 -1 0 841)" d="M302.57 692.86L383.954 692.86L383.954 692.86L383.954 711.94L383.954 711.94L302.57 711.94z" stroke="none" fill="#0070C0" fill-rule="evenodd" /><g clip-path="url(#16)"></g><g clip-path="url(#17)"></g></g><path transform="matrix(1 0 0 -1 0 841)" d="M389.59 692.86L502.53 692.86L502.53 692.86L502.53 711.94L502.53 711.94L389.59 711.94z" stroke="none" fill="#0070C0" fill-rule="evenodd" /><g clip-path="url(#18)"><path transform="matrix(1 0 0 -1 0 841)" d="M394.75 692.86L497.37 692.86L497.37 692.86L497.37 711.94L497.37 711.94L394.75 711.94z" stroke="none" fill="#0070C0" fill-rule="evenodd" /><g clip-path="url(#19)"></g><g clip-path="url(#20)"></g></g><path transform="matrix(1 0 0 -1 0 841)" d="M84.264 711.94L84.744 711.94L84.744 711.94L84.744 712.42L84.744 712.42L84.264 712.42z" stroke="none" fill="#000000" fill-rule="evenodd" /><path transform="matrix(1 0 0 -1 0 841)" d="M84.264 711.94L84.744 711.94L84.744 711.94L84.744 712.42L84.744 712.42L84.264 712.42z" stroke="none" fill="#000000" fill-rule="evenodd" /><path transform="matrix(1 0 0 -1 0 841)" d="M84.744 711.94L176.424 711.94L176.424 711.94L176.424 712.42L176.424 712.42L84.744 712.42z" stroke="none" fill="#000000" fill-rule="evenodd" /><path transform="matrix(1 0 0 -1 0 841)" d="M176.42 711.94L176.9 711.94L176.9 711.94L176.9 712.42L176.9 712.42L176.42 712.42z" stroke="none" fill="#000000" fill-rule="evenodd" /><path transform="matrix(1 0 0 -1 0 841)" d="M176.9 711.94L239.564 711.94L239.564 711.94L239.564 712.42L239.564 712.42L176.9 712.42z" stroke="none" fill="#000000" fill-rule="evenodd" /><path transform="matrix(1 0 0 -1 0 841)" d="M239.57 711.94L240.05 711.94L240.05 711.94L240.05 712.42L240.05 712.42L239.57 712.42z" stroke="none" fill="#000000" fill-rule="evenodd" /><path transform="matrix(1 0 0 -1 0 841)" d="M240.05 711.94L296.93 711.94L296.93 711.94L296.93 712.42L296.93 712.42L240.05 712.42z" stroke="none" fill="#000000" fill-rule="evenodd" /><path transform="matrix(1 0 0 -1 0 841)" d="M296.93 711.94L297.41 711.94L297.41 711.94L297.41 712.42L297.41 712.42L296.93 712.42z" stroke="none" fill="#000000" fill-rule="evenodd" /><path transform="matrix(1 0 0 -1 0 841)" d="M297.41 711.94L389.114 711.94L389.114 711.94L389.114 712.42L389.114 712.42L297.41 712.42z" stroke="none" fill="#000000" fill-rule="evenodd" /><path transform="matrix(1 0 0 -1 0 841)" d="M389.11 711.94L389.59 711.94L389.59 711.94L389.59 712.42L389.59 712.42L389.11 712.42z" stroke="none" fill="#000000" fill-rule="evenodd" /><path transform="matrix(1 0 0 -1 0 841)" d="M389.59 711.94L502.53 711.94L502.53 711.94L502.53 712.42L502.53 712.42L389.59 712.42z" stroke="none" fill="#000000" fill-rule="evenodd" /><path transform="matrix(1 0 0 -1 0 841)" d="M502.54 711.94L503.02 711.94L503.02 711.94L503.02 712.42L503.02 712.42L502.54 712.42z" stroke="none" fill="#000000" fill-rule="evenodd" /><path transform="matrix(1 0 0 -1 0 841)" d="M502.54 711.94L503.02 711.94L503.02 711.94L503.02 712.42L503.02 712.42L502.54 712.42z" stroke="none" fill="#000000" fill-rule="evenodd" /><path transform="matrix(1 0 0 -1 0 841)" d="M84.264 692.86L84.744 692.86L84.744 692.86L84.744 711.94L84.744 711.94L84.264 711.94z" stroke="none" fill="#000000" fill-rule="evenodd" /><path transform="matrix(1 0 0 -1 0 841)" d="M176.42 692.86L176.9 692.86L176.9 692.86L176.9 711.94L176.9 711.94L176.42 711.94z" stroke="none" fill="#000000" fill-rule="evenodd" /><path transform="matrix(1 0 0 -1 0 841)" d="M239.57 692.86L240.05 692.86L240.05 692.86L240.05 711.94L240.05 711.94L239.57 711.94z" stroke="none" fill="#000000" fill-rule="evenodd" /><path transform="matrix(1 0 0 -1 0 841)" d="M296.93 692.86L297.41 692.86L297.41 692.86L297.41 711.94L297.41 711.94L296.93 711.94z" stroke="none" fill="#000000" fill-rule="evenodd" /><path transform="matrix(1 0 0 -1 0 841)" d="M389.11 692.86L389.59 692.86L389.59 692.86L389.59 711.94L389.59 711.94L389.11 711.94z" stroke="none" fill="#000000" fill-rule="evenodd" /><path transform="matrix(1 0 0 -1 0 841)" d="M502.54 692.86L503.02 692.86L503.02 692.86L503.02 711.94L503.02 711.94L502.54 711.94z" stroke="none" fill="#000000" fill-rule="evenodd" /><path transform="matrix(1 0 0 -1 0 841)" d="M84.744 625.18L176.424 625.18L176.424 625.18L176.424 692.38L176.424 692.38L84.744 692.38z" stroke="none" fill="#DAEEF3" fill-rule="evenodd" /><g clip-path="url(#21)"><path transform="matrix(1 0 0 -1 0 841)" d="M89.904 673.3L171.264 673.3L171.264 673.3L171.264 692.38L171.264 692.38L89.904 692.38z" stroke="none" fill="#DAEEF3" fill-rule="evenodd" /><g clip-path="url(#22)"></g><g clip-path="url(#23)"></g></g><path transform="matrix(1 0 0 -1 0 841)" d="M176.9 625.18L239.444 625.18L239.444 625.18L239.444 692.38L239.444 692.38L176.9 692.38z" stroke="none" fill="#DAEEF3" fill-rule="evenodd" /><g clip-path="url(#24)"><path transform="matrix(1 0 0 -1 0 841)" d="M182.06 673.3L234.404 673.3L234.404 673.3L234.404 692.38L234.404 692.38L182.06 692.38z" stroke="none" fill="#DAEEF3" fill-rule="evenodd" /><g clip-path="url(#25)"></g><g clip-path="url(#26)"></g></g><path transform="matrix(1 0 0 -1 0 841)" d="M240.05 625.18L296.93 625.18L296.93 625.18L296.93 692.38L296.93 692.38L240.05 692.38z" stroke="none" fill="#DAEEF3" fill-rule="evenodd" /><g clip-path="url(#27)"><path transform="matrix(1 0 0 -1 0 841)" d="M245.21 673.3L291.77 673.3L291.77 673.3L291.77 692.38L291.77 692.38L245.21 692.38z" stroke="none" fill="#DAEEF3" fill-rule="evenodd" /><g clip-path="url(#28)"></g><g clip-path="url(#29)"></g></g><path transform="matrix(1 0 0 -1 0 841)" d="M297.41 625.18L389.114 625.18L389.114 625.18L389.114 692.38L389.114 692.38L297.41 692.38z" stroke="none" fill="#DAEEF3" fill-rule="evenodd" /><g clip-path="url(#30)"><path transform="matrix(1 0 0 -1 0 841)" d="M302.57 668.26L383.954 668.26L383.954 668.26L383.954 692.38L383.954 692.38L302.57 692.38z" stroke="none" fill="#DAEEF3" fill-rule="evenodd" /><g clip-path="url(#31)"></g><path transform="matrix(1 0 0 -1 0 841)" d="M302.57 649.3L383.954 649.3L383.954 649.3L383.954 668.26L383.954 668.26L302.57 668.26z" stroke="none" fill="#DAEEF3" fill-rule="evenodd" /><g clip-path="url(#32)"></g><path transform="matrix(1 0 0 -1 0 841)" d="M302.57 625.18L383.954 625.18L383.954 625.18L383.954 649.3L383.954 649.3L302.57 649.3z" stroke="none" fill="#DAEEF3" fill-rule="evenodd" /><g clip-path="url(#33)"></g><g clip-path="url(#34)"></g></g><path transform="matrix(1 0 0 -1 0 841)" d="M389.59 625.18L502.53 625.18L502.53 625.18L502.53 692.38L502.53 692.38L389.59 692.38z" stroke="none" fill="#DAEEF3" fill-rule="evenodd" /><g clip-path="url(#35)"><path transform="matrix(1 0 0 -1 0 841)" d="M394.75 673.3L497.37 673.3L497.37 673.3L497.37 692.38L497.37 692.38L394.75 692.38z" stroke="none" fill="#DAEEF3" fill-rule="evenodd" /><g clip-path="url(#36)"></g><g clip-path="url(#37)"></g></g><path transform="matrix(1 0 0 -1 0 841)" d="M84.264 692.38L84.744 692.38L84.744 692.38L84.744 692.86L84.744 692.86L84.264 692.86z" stroke="none" fill="#000000" fill-rule="evenodd" /><path transform="matrix(1 0 0 -1 0 841)" d="M84.744 692.38L176.424 692.38L176.424 692.38L176.424 692.86L176.424 692.86L84.744 692.86z" stroke="none" fill="#000000" fill-rule="evenodd" /><path transform="matrix(1 0 0 -1 0 841)" d="M176.42 692.38L176.9 692.38L176.9 692.38L176.9 692.86L176.9 692.86L176.42 692.86z" stroke="none" fill="#000000" fill-rule="evenodd" /><path transform="matrix(1 0 0 -1 0 841)" d="M176.9 692.38L239.564 692.38L239.564 692.38L239.564 692.86L239.564 692.86L176.9 692.86z" stroke="none" fill="#000000" fill-rule="evenodd" /><path transform="matrix(1 0 0 -1 0 841)" d="M239.57 692.38L240.05 692.38L240.05 692.38L240.05 692.86L240.05 692.86L239.57 692.86z" stroke="none" fill="#000000" fill-rule="evenodd" /><path transform="matrix(1 0 0 -1 0 841)" d="M240.05 692.38L296.93 692.38L296.93 692.38L296.93 692.86L296.93 692.86L240.05 692.86z" stroke="none" fill="#000000" fill-rule="evenodd" /><path transform="matrix(1 0 0 -1 0 841)" d="M296.93 692.38L297.41 692.38L297.41 692.38L297.41 692.86L297.41 692.86L296.93 692.86z" stroke="none" fill="#000000" fill-rule="evenodd" /><path transform="matrix(1 0 0 -1 0 841)" d="M297.41 692.38L389.114 692.38L389.114 692.38L389.114 692.86L389.114 692.86L297.41 692.86z" stroke="none" fill="#000000" fill-rule="evenodd" /><path transform="matrix(1 0 0 -1 0 841)" d="M389.11 692.38L389.59 692.38L389.59 692.38L389.59 692.86L389.59 692.86L389.11 692.86z" stroke="none" fill="#000000" fill-rule="evenodd" /><path transform="matrix(1 0 0 -1 0 841)" d="M389.59 692.38L502.53 692.38L502.53 692.38L502.53 692.86L502.53 692.86L389.59 692.86z" stroke="none" fill="#000000" fill-rule="evenodd" /><path transform="matrix(1 0 0 -1 0 841)" d="M502.54 692.38L503.02 692.38L503.02 692.38L503.02 692.86L503.02 692.86L502.54 692.86z" stroke="none" fill="#000000" fill-rule="evenodd" /><path transform="matrix(1 0 0 -1 0 841)" d="M84.264 625.18L84.744 625.18L84.744 625.18L84.744 692.38L84.744 692.38L84.264 692.38z" stroke="none" fill="#000000" fill-rule="evenodd" /><path transform="matrix(1 0 0 -1 0 841)" d="M176.42 625.18L176.9 625.18L176.9 625.18L176.9 692.38L176.9 692.38L176.42 692.38z" stroke="none" fill="#000000" fill-rule="evenodd" /><path transform="matrix(1 0 0 -1 0 841)" d="M239.57 625.18L240.05 625.18L240.05 625.18L240.05 692.38L240.05 692.38L239.57 692.38z" stroke="none" fill="#000000" fill-rule="evenodd" /><path transform="matrix(1 0 0 -1 0 841)" d="M296.93 625.18L297.41 625.18L297.41 625.18L297.41 692.38L297.41 692.38L296.93 692.38z" stroke="none" fill="#000000" fill-rule="evenodd" /><path transform="matrix(1 0 0 -1 0 841)" d="M389.11 625.18L389.59 625.18L389.59 625.18L389.59 692.38L389.59 692.38L389.11 692.38z" stroke="none" fill="#000000" fill-rule="evenodd" /><path transform="matrix(1 0 0 -1 0 841)" d="M502.54 625.18L503.02 625.18L503.02 625.18L503.02 692.38L503.02 692.38L502.54 692.38z" stroke="none" fill="#000000" fill-rule="evenodd" /><g clip-path="url(#38)"><g clip-path="url(#39)"></g><g clip-path="url(#40)"></g></g><g clip-path="url(#41)"><g clip-path="url(#42)"></g><g clip-path="url(#43)"></g></g><g clip-path="url(#44)"><g clip-path="url(#45)"></g><g clip-path="url(#46)"></g></g><g clip-path="url(#47)"><g clip-path="url(#48)"></g><g clip-path="url(#49)"></g></g><g clip-path="url(#50)"><g clip-path="url(#51)"></g><g clip-path="url(#52)"></g><g clip-path="url(#53)"></g><g clip-path="url(#54)"></g><g clip-path="url(#55)"></g><g clip-path="url(#56)"></g><g clip-path="url(#57)"></g><g clip-path="url(#58)"></g><g clip-path="url(#59)"></g><g clip-path="url(#60)"></g><g clip-path="url(#61)"></g><g clip-path="url(#62)"></g><g clip-path="url(#63)"></g><g clip-path="url(#64)"></g><g clip-path="url(#65)"></g><g clip-path="url(#66)"></g><g clip-path="url(#67)"></g><g clip-path="url(#68)"></g><g clip-path="url(#69)"></g><g clip-path="url(#70)"></g></g><path transform="matrix(1 0 0 -1 0 841)" d="M84.264 624.7L84.744 624.7L84.744 624.7L84.744 625.18L84.744 625.18L84.264 625.18z" stroke="none" fill="#000000" fill-rule="evenodd" /><path transform="matrix(1 0 0 -1 0 841)" d="M84.744 624.7L176.424 624.7L176.424 624.7L176.424 625.18L176.424 625.18L84.744 625.18z" stroke="none" fill="#000000" fill-rule="evenodd" /><path transform="matrix(1 0 0 -1 0 841)" d="M176.42 624.7L176.9 624.7L176.9 624.7L176.9 625.18L176.9 625.18L176.42 625.18z" stroke="none" fill="#000000" fill-rule="evenodd" /><path transform="matrix(1 0 0 -1 0 841)" d="M176.9 624.7L239.564 624.7L239.564 624.7L239.564 625.18L239.564 625.18L176.9 625.18z" stroke="none" fill="#000000" fill-rule="evenodd" /><path transform="matrix(1 0 0 -1 0 841)" d="M239.57 624.7L240.05 624.7L240.05 624.7L240.05 625.18L240.05 625.18L239.57 625.18z" stroke="none" fill="#000000" fill-rule="evenodd" /><path transform="matrix(1 0 0 -1 0 841)" d="M240.05 624.7L296.93 624.7L296.93 624.7L296.93 625.18L296.93 625.18L240.05 625.18z" stroke="none" fill="#000000" fill-rule="evenodd" /><path transform="matrix(1 0 0 -1 0 841)" d="M296.93 624.7L297.41 624.7L297.41 624.7L297.41 625.18L297.41 625.18L296.93 625.18z" stroke="none" fill="#000000" fill-rule="evenodd" /><path transform="matrix(1 0 0 -1 0 841)" d="M297.41 624.7L389.114 624.7L389.114 624.7L389.114 625.18L389.114 625.18L297.41 625.18z" stroke="none" fill="#000000" fill-rule="evenodd" /><path transform="matrix(1 0 0 -1 0 841)" d="M389.11 624.7L389.59 624.7L389.59 624.7L389.59 625.18L389.59 625.18L389.11 625.18z" stroke="none" fill="#000000" fill-rule="evenodd" /><path transform="matrix(1 0 0 -1 0 841)" d="M389.59 624.7L502.53 624.7L502.53 624.7L502.53 625.18L502.53 625.18L389.59 625.18z" stroke="none" fill="#000000" fill-rule="evenodd" /><path transform="matrix(1 0 0 -1 0 841)" d="M502.54 624.7L503.02 624.7L503.02 624.7L503.02 625.18L503.02 625.18L502.54 625.18z" stroke="none" fill="#000000" fill-rule="evenodd" /><path transform="matrix(1 0 0 -1 0 841)" d="M84.264 453.19L84.744 453.19L84.744 453.19L84.744 624.69L84.744 624.69L84.264 624.69z" stroke="none" fill="#000000" fill-rule="evenodd" /><path transform="matrix(1 0 0 -1 0 841)" d="M84.264 452.71L84.744 452.71L84.744 452.71L84.744 453.19L84.744 453.19L84.264 453.19z" stroke="none" fill="#000000" fill-rule="evenodd" /><path transform="matrix(1 0 0 -1 0 841)" d="M84.264 452.71L84.744 452.71L84.744 452.71L84.744 453.19L84.744 453.19L84.264 453.19z" stroke="none" fill="#000000" fill-rule="evenodd" /><path transform="matrix(1 0 0 -1 0 841)" d="M84.744 452.71L176.424 452.71L176.424 452.71L176.424 453.19L176.424 453.19L84.744 453.19z" stroke="none" fill="#000000" fill-rule="evenodd" /><path transform="matrix(1 0 0 -1 0 841)" d="M176.42 453.19L176.9 453.19L176.9 453.19L176.9 624.69L176.9 624.69L176.42 624.69z" stroke="none" fill="#000000" fill-rule="evenodd" /><path transform="matrix(1 0 0 -1 0 841)" d="M176.42 452.71L176.9 452.71L176.9 452.71L176.9 453.19L176.9 453.19L176.42 453.19z" stroke="none" fill="#000000" fill-rule="evenodd" /><path transform="matrix(1 0 0 -1 0 841)" d="M176.9 452.71L239.564 452.71L239.564 452.71L239.564 453.19L239.564 453.19L176.9 453.19z" stroke="none" fill="#000000" fill-rule="evenodd" /><path transform="matrix(1 0 0 -1 0 841)" d="M239.57 453.19L240.05 453.19L240.05 453.19L240.05 624.69L240.05 624.69L239.57 624.69z" stroke="none" fill="#000000" fill-rule="evenodd" /><path transform="matrix(1 0 0 -1 0 841)" d="M239.57 452.71L240.05 452.71L240.05 452.71L240.05 453.19L240.05 453.19L239.57 453.19z" stroke="none" fill="#000000" fill-rule="evenodd" /><path transform="matrix(1 0 0 -1 0 841)" d="M240.05 452.71L296.93 452.71L296.93 452.71L296.93 453.19L296.93 453.19L240.05 453.19z" stroke="none" fill="#000000" fill-rule="evenodd" /><path transform="matrix(1 0 0 -1 0 841)" d="M296.93 453.19L297.41 453.19L297.41 453.19L297.41 624.69L297.41 624.69L296.93 624.69z" stroke="none" fill="#000000" fill-rule="evenodd" /><path transform="matrix(1 0 0 -1 0 841)" d="M296.93 452.71L297.41 452.71L297.41 452.71L297.41 453.19L297.41 453.19L296.93 453.19z" stroke="none" fill="#000000" fill-rule="evenodd" /><path transform="matrix(1 0 0 -1 0 841)" d="M297.41 452.71L389.114 452.71L389.114 452.71L389.114 453.19L389.114 453.19L297.41 453.19z" stroke="none" fill="#000000" fill-rule="evenodd" /><path transform="matrix(1 0 0 -1 0 841)" d="M389.11 453.19L389.59 453.19L389.59 453.19L389.59 624.69L389.59 624.69L389.11 624.69z" stroke="none" fill="#000000" fill-rule="evenodd" /><path transform="matrix(1 0 0 -1 0 841)" d="M389.11 452.71L389.59 452.71L389.59 452.71L389.59 453.19L389.59 453.19L389.11 453.19z" stroke="none" fill="#000000" fill-rule="evenodd" /><path transform="matrix(1 0 0 -1 0 841)" d="M389.59 452.71L502.53 452.71L502.53 452.71L502.53 453.19L502.53 453.19L389.59 453.19z" stroke="none" fill="#000000" fill-rule="evenodd" /><path transform="matrix(1 0 0 -1 0 841)" d="M502.54 453.19L503.02 453.19L503.02 453.19L503.02 624.69L503.02 624.69L502.54 624.69z" stroke="none" fill="#000000" fill-rule="evenodd" /><path transform="matrix(1 0 0 -1 0 841)" d="M502.54 452.71L503.02 452.71L503.02 452.71L503.02 453.19L503.02 453.19L502.54 453.19z" stroke="none" fill="#000000" fill-rule="evenodd" /><path transform="matrix(1 0 0 -1 0 841)" d="M502.54 452.71L503.02 452.71L503.02 452.71L503.02 453.19L503.02 453.19L502.54 453.19z" stroke="none" fill="#000000" fill-rule="evenodd" /><path transform="matrix(1 0 0 -1 0 841)" d="M84.744 414.19L502.534 414.19L502.534 414.19L502.534 433.15L502.534 433.15L84.744 433.15z" stroke="none" fill="#0070C0" fill-rule="evenodd" /><g clip-path="url(#71)"><path transform="matrix(1 0 0 -1 0 841)" d="M89.904 414.19L497.374 414.19L497.374 414.19L497.374 433.15L497.374 433.15L89.904 433.15z" stroke="none" fill="#0070C0" fill-rule="evenodd" /><g clip-path="url(#72)"></g><g clip-path="url(#73)"></g><g clip-path="url(#74)"></g></g><path transform="matrix(1 0 0 -1 0 841)" d="M84.264 433.15L84.744 433.15L84.744 433.15L84.744 433.63L84.744 433.63L84.264 433.63z" stroke="none" fill="#000000" fill-rule="evenodd" /><path transform="matrix(1 0 0 -1 0 841)" d="M84.264 433.15L84.744 433.15L84.744 433.15L84.744 433.63L84.744 433.63L84.264 433.63z" stroke="none" fill="#000000" fill-rule="evenodd" /><path transform="matrix(1 0 0 -1 0 841)" d="M84.744 433.15L502.534 433.15L502.534 433.15L502.534 433.63L502.534 433.63L84.744 433.63z" stroke="none" fill="#000000" fill-rule="evenodd" /><path transform="matrix(1 0 0 -1 0 841)" d="M502.54 433.15L503.02 433.15L503.02 433.15L503.02 433.63L503.02 433.63L502.54 433.63z" stroke="none" fill="#000000" fill-rule="evenodd" /><path transform="matrix(1 0 0 -1 0 841)" d="M502.54 433.15L503.02 433.15L503.02 433.15L503.02 433.63L503.02 433.63L502.54 433.63z" stroke="none" fill="#000000" fill-rule="evenodd" /><path transform="matrix(1 0 0 -1 0 841)" d="M84.264 414.19L84.744 414.19L84.744 414.19L84.744 433.15L84.744 433.15L84.264 433.15z" stroke="none" fill="#000000" fill-rule="evenodd" /><path transform="matrix(1 0 0 -1 0 841)" d="M502.54 414.19L503.02 414.19L503.02 414.19L503.02 433.15L503.02 433.15L502.54 433.15z" stroke="none" fill="#000000" fill-rule="evenodd" /><path transform="matrix(1 0 0 -1 0 841)" d="M84.744 108.74L502.534 108.74L502.534 108.74L502.534 413.59L502.534 413.59L84.744 413.59z" stroke="none" fill="#DAEEF3" fill-rule="evenodd" /><g clip-path="url(#75)"><path transform="matrix(1 0 0 -1 0 841)" d="M89.904 394.63L497.374 394.63L497.374 394.63L497.374 413.59L497.374 413.59L89.904 413.59z" stroke="none" fill="#DAEEF3" fill-rule="evenodd" /><g clip-path="url(#76)"></g><g clip-path="url(#77)"></g><path transform="matrix(1 0 0 -1 0 841)" d="M89.904 375.55L497.374 375.55L497.374 375.55L497.374 394.63L497.374 394.63L89.904 394.63z" stroke="none" fill="#DAEEF3" fill-rule="evenodd" /><g clip-path="url(#78)"></g><g clip-path="url(#79)"></g><g clip-path="url(#80)"></g><path transform="matrix(1 0 0 -1 0 841)" d="M89.904 356.45L497.374 356.45L497.374 356.45L497.374 375.554L497.374 375.554L89.904 375.554z" stroke="none" fill="#DAEEF3" fill-rule="evenodd" /><g clip-path="url(#81)"></g><g clip-path="url(#82)"></g><g clip-path="url(#83)"></g><g clip-path="url(#84)"></g><g clip-path="url(#85)"></g><path transform="matrix(1 0 0 -1 0 841)" d="M89.904 337.37L497.374 337.37L497.374 337.37L497.374 356.45L497.374 356.45L89.904 356.45z" stroke="none" fill="#DAEEF3" fill-rule="evenodd" /><g clip-path="url(#86)"></g><g clip-path="url(#87)"></g><g clip-path="url(#88)"></g><path transform="matrix(1 0 0 -1 0 841)" d="M89.904 318.41L497.374 318.41L497.374 318.41L497.374 337.37L497.374 337.37L89.904 337.37z" stroke="none" fill="#DAEEF3" fill-rule="evenodd" /><g clip-path="url(#89)"></g><g clip-path="url(#90)"></g><g clip-path="url(#91)"></g><path transform="matrix(1 0 0 -1 0 841)" d="M89.904 299.33L497.374 299.33L497.374 299.33L497.374 318.41L497.374 318.41L89.904 318.41z" stroke="none" fill="#DAEEF3" fill-rule="evenodd" /><g clip-path="url(#92)"></g><g clip-path="url(#93)"></g><g clip-path="url(#94)"></g><path transform="matrix(1 0 0 -1 0 841)" d="M89.904 280.25L497.374 280.25L497.374 280.25L497.374 299.33L497.374 299.33L89.904 299.33z" stroke="none" fill="#DAEEF3" fill-rule="evenodd" /><g clip-path="url(#95)"></g><g clip-path="url(#96)"></g><g clip-path="url(#97)"></g><path transform="matrix(1 0 0 -1 0 841)" d="M89.904 261.17L497.374 261.17L497.374 261.17L497.374 280.25L497.374 280.25L89.904 280.25z" stroke="none" fill="#DAEEF3" fill-rule="evenodd" /><g clip-path="url(#98)"></g><g clip-path="url(#99)"></g><g clip-path="url(#100)"></g><path transform="matrix(1 0 0 -1 0 841)" d="M89.904 242.21L497.374 242.21L497.374 242.21L497.374 261.17L497.374 261.17L89.904 261.17z" stroke="none" fill="#DAEEF3" fill-rule="evenodd" /><g clip-path="url(#101)"></g><g clip-path="url(#102)"></g><g clip-path="url(#103)"></g><path transform="matrix(1 0 0 -1 0 841)" d="M89.904 223.13L497.374 223.13L497.374 223.13L497.374 242.21L497.374 242.21L89.904 242.21z" stroke="none" fill="#DAEEF3" fill-rule="evenodd" /><g clip-path="url(#104)"></g><g clip-path="url(#105)"></g><g clip-path="url(#106)"></g><path transform="matrix(1 0 0 -1 0 841)" d="M89.904 204.05L497.374 204.05L497.374 204.05L497.374 223.13L497.374 223.13L89.904 223.13z" stroke="none" fill="#DAEEF3" fill-rule="evenodd" /><g clip-path="url(#107)"></g><g clip-path="url(#108)"></g><g clip-path="url(#109)"></g><path transform="matrix(1 0 0 -1 0 841)" d="M89.904 184.97L497.374 184.97L497.374 184.97L497.374 204.05L497.374 204.05L89.904 204.05z" stroke="none" fill="#DAEEF3" fill-rule="evenodd" /><g clip-path="url(#110)"></g><g clip-path="url(#111)"></g><g clip-path="url(#112)"></g><path transform="matrix(1 0 0 -1 0 841)" d="M89.904 165.98L497.374 165.98L497.374 165.98L497.374 184.964L497.374 184.964L89.904 184.964z" stroke="none" fill="#DAEEF3" fill-rule="evenodd" /><g clip-path="url(#113)"></g><g clip-path="url(#114)"></g><g clip-path="url(#115)"></g><path transform="matrix(1 0 0 -1 0 841)" d="M89.904 146.9L497.374 146.9L497.374 146.9L497.374 165.98L497.374 165.98L89.904 165.98z" stroke="none" fill="#DAEEF3" fill-rule="evenodd" /><g clip-path="url(#116)"></g><g clip-path="url(#117)"></g><g clip-path="url(#118)"></g><path transform="matrix(1 0 0 -1 0 841)" d="M89.904 127.82L497.374 127.82L497.374 127.82L497.374 146.9L497.374 146.9L89.904 146.9z" stroke="none" fill="#DAEEF3" fill-rule="evenodd" /><g clip-path="url(#119)"></g><g clip-path="url(#120)"></g><g clip-path="url(#121)"></g><path transform="matrix(1 0 0 -1 0 841)" d="M89.904 108.74L497.374 108.74L497.374 108.74L497.374 127.82L497.374 127.82L89.904 127.82z" stroke="none" fill="#DAEEF3" fill-rule="evenodd" /><g clip-path="url(#122)"></g><g clip-path="url(#123)"></g><g clip-path="url(#124)"></g><g clip-path="url(#125)"></g></g><path transform="matrix(1 0 0 -1 0 841)" d="M84.264 413.71L84.744 413.71L84.744 413.71L84.744 414.19L84.744 414.19L84.264 414.19z" stroke="none" fill="#000000" fill-rule="evenodd" /><path transform="matrix(1 0 0 -1 0 841)" d="M84.744 413.71L502.534 413.71L502.534 413.71L502.534 414.19L502.534 414.19L84.744 414.19z" stroke="none" fill="#000000" fill-rule="evenodd" /><path transform="matrix(1 0 0 -1 0 841)" d="M502.54 413.71L503.02 413.71L503.02 413.71L503.02 414.19L503.02 414.19L502.54 414.19z" stroke="none" fill="#000000" fill-rule="evenodd" /><path transform="matrix(1 0 0 -1 0 841)" d="M84.264 108.74L84.744 108.74L84.744 108.74L84.744 413.71L84.744 413.71L84.264 413.71z" stroke="none" fill="#000000" fill-rule="evenodd" /><path transform="matrix(1 0 0 -1 0 841)" d="M84.264 108.26L84.744 108.26L84.744 108.26L84.744 108.74L84.744 108.74L84.264 108.74z" stroke="none" fill="#000000" fill-rule="evenodd" /><path transform="matrix(1 0 0 -1 0 841)" d="M84.264 108.26L84.744 108.26L84.744 108.26L84.744 108.74L84.744 108.74L84.264 108.74z" stroke="none" fill="#000000" fill-rule="evenodd" /><path transform="matrix(1 0 0 -1 0 841)" d="M84.744 108.26L502.534 108.26L502.534 108.26L502.534 108.74L502.534 108.74L84.744 108.74z" stroke="none" fill="#000000" fill-rule="evenodd" /><path transform="matrix(1 0 0 -1 0 841)" d="M502.54 108.74L503.02 108.74L503.02 108.74L503.02 413.71L503.02 413.71L502.54 413.71z" stroke="none" fill="#000000" fill-rule="evenodd" /><path transform="matrix(1 0 0 -1 0 841)" d="M502.54 108.26L503.02 108.26L503.02 108.26L503.02 108.74L503.02 108.74L502.54 108.74z" stroke="none" fill="#000000" fill-rule="evenodd" /><path transform="matrix(1 0 0 -1 0 841)" d="M502.54 108.26L503.02 108.26L503.02 108.26L503.02 108.74L503.02 108.74L502.54 108.74z" stroke="none" fill="#000000" fill-rule="evenodd" /></g></g></g></svg>