<svg xmlns="http://www.w3.org/2000/svg" xmlns:xlink="http://www.w3.org/1999/xlink" id="body_42" preserveAspectRatio="xMinYMin meet" viewBox="0 0 793 1121"><defs><clipPath id="1"><path d="M0 841L0 -0.9199829L0 -0.9199829L595.32 -0.9199829L595.32 -0.9199829L595.32 841L595.32 841L0 841z" /></clipPath><clipPath id="2"><path d="M0.00125 841.0914L595.4112 841.0914L595.4112 841.0914L595.4112 -0.9186401L595.4112 -0.9186401L0.00125 -0.9186401z" /></clipPath><clipPath id="3"><path d="M295.13 780.251L305.21 780.251L305.21 780.251L305.21 768.011L305.21 768.011L295.13 768.011z" /></clipPath><clipPath id="4"><path d="M295.13 780.256L305.21 780.256L305.21 780.256L305.21 768.016L305.21 768.016L295.13 768.016z" /></clipPath><clipPath id="5"><path d="M295.13 780.256L305.21 780.256L305.21 780.256L305.21 768.016L305.21 768.016L295.13 768.016z" /></clipPath><clipPath id="6"><path d="M84.751 204.19L141.631 204.19L141.631 204.19L141.631 179.11L141.631 179.11L84.751 179.11z" /></clipPath><clipPath id="7"><path d="M84.744 204.18L141.624 204.18L141.624 204.18L141.624 179.1L141.624 179.1L84.744 179.1z" /></clipPath><clipPath id="8"><path d="M84.744 204.18L141.624 204.18L141.624 204.18L141.624 179.1L141.624 179.1L84.744 179.1z" /></clipPath><clipPath id="9"><path d="M142.11 204.19L510.69 204.19L510.69 204.19L510.69 179.11L510.69 179.11L142.11 179.11z" /></clipPath><clipPath id="10"><path d="M142.1 204.18L510.69 204.18L510.69 204.18L510.69 179.1L510.69 179.1L142.1 179.1z" /></clipPath><clipPath id="11"><path d="M142.1 204.18L510.69 204.18L510.69 204.18L510.69 179.1L510.69 179.1L142.1 179.1z" /></clipPath><clipPath id="12"><path d="M84.751 229.75L141.631 229.75L141.631 229.75L141.631 204.67L141.631 204.67L84.751 204.67z" /></clipPath><clipPath id="13"><path d="M84.744 229.74L141.624 229.74L141.624 229.74L141.624 204.66L141.624 204.66L84.744 204.66z" /></clipPath><clipPath id="14"><path d="M84.744 229.74L141.624 229.74L141.624 229.74L141.624 204.66L141.624 204.66L84.744 204.66z" /></clipPath><clipPath id="15"><path d="M142.11 229.75L510.69 229.75L510.69 229.75L510.69 204.67L510.69 204.67L142.11 204.67z" /></clipPath><clipPath id="16"><path d="M142.1 229.74L510.69 229.74L510.69 229.74L510.69 204.66L510.69 204.66L142.1 204.66z" /></clipPath><clipPath id="17"><path d="M142.1 229.74L510.69 229.74L510.69 229.74L510.69 204.66L510.69 204.66L142.1 204.66z" /></clipPath><clipPath id="18"><path d="M142.1 229.74L510.69 229.74L510.69 229.74L510.69 204.66L510.69 204.66L142.1 204.66z" /></clipPath><clipPath id="19"><path d="M84.751 255.31L141.631 255.31L141.631 255.31L141.631 230.23L141.631 230.23L84.751 230.23z" /></clipPath><clipPath id="20"><path d="M84.744 255.3L141.624 255.3L141.624 255.3L141.624 230.22L141.624 230.22L84.744 230.22z" /></clipPath><clipPath id="21"><path d="M84.744 255.3L141.624 255.3L141.624 255.3L141.624 230.22L141.624 230.22L84.744 230.22z" /></clipPath><clipPath id="22"><path d="M142.11 255.31L510.69 255.31L510.69 255.31L510.69 230.23L510.69 230.23L142.11 230.23z" /></clipPath><clipPath id="23"><path d="M142.1 255.3L510.69 255.3L510.69 255.3L510.69 230.22L510.69 230.22L142.1 230.22z" /></clipPath><clipPath id="24"><path d="M142.1 255.3L510.69 255.3L510.69 255.3L510.69 230.22L510.69 230.22L142.1 230.22z" /></clipPath><clipPath id="25"><path d="M142.1 255.3L510.69 255.3L510.69 255.3L510.69 230.22L510.69 230.22L142.1 230.22z" /></clipPath><clipPath id="26"><path d="M142.1 255.3L510.69 255.3L510.69 255.3L510.69 230.22L510.69 230.22L142.1 230.22z" /></clipPath><clipPath id="27"><path d="M142.1 255.3L510.69 255.3L510.69 255.3L510.69 230.22L510.69 230.22L142.1 230.22z" /></clipPath><clipPath id="28"><path d="M84.751 316.77L141.631 316.77L141.631 316.77L141.631 255.795L141.631 255.795L84.751 255.795z" /></clipPath><clipPath id="29"><path d="M84.744 316.77L141.624 316.77L141.624 316.77L141.624 255.786L141.624 255.786L84.744 255.786z" /></clipPath><clipPath id="30"><path d="M84.744 316.77L141.624 316.77L141.624 316.77L141.624 255.786L141.624 255.786L84.744 255.786z" /></clipPath><clipPath id="31"><path d="M142.11 316.77L510.69 316.77L510.69 316.77L510.69 255.795L510.69 255.795L142.11 255.795z" /></clipPath><clipPath id="32"><path d="M142.1 316.77L510.69 316.77L510.69 316.77L510.69 255.786L510.69 255.786L142.1 255.786z" /></clipPath><clipPath id="33"><path d="M142.1 316.77L510.69 316.77L510.69 316.77L510.69 255.786L510.69 255.786L142.1 255.786z" /></clipPath><clipPath id="34"><path d="M142.1 316.77L510.69 316.77L510.69 316.77L510.69 255.786L510.69 255.786L142.1 255.786z" /></clipPath><clipPath id="35"><path d="M142.1 316.77L510.69 316.77L510.69 316.77L510.69 255.786L510.69 255.786L142.1 255.786z" /></clipPath><clipPath id="36"><path d="M142.1 316.77L510.69 316.77L510.69 316.77L510.69 255.786L510.69 255.786L142.1 255.786z" /></clipPath><clipPath id="37"><path d="M142.1 316.77L510.69 316.77L510.69 316.77L510.69 255.786L510.69 255.786L142.1 255.786z" /></clipPath><clipPath id="38"><path d="M142.1 316.77L510.69 316.77L510.69 316.77L510.69 255.786L510.69 255.786L142.1 255.786z" /></clipPath><clipPath id="39"><path d="M142.1 316.77L510.69 316.77L510.69 316.77L510.69 255.786L510.69 255.786L142.1 255.786z" /></clipPath><clipPath id="40"><path d="M84.751 374.85L293.811 374.85L293.811 374.85L293.811 355.89L293.811 355.89L84.751 355.89z" /></clipPath><clipPath id="41"><path d="M84.744 374.85L293.804 374.85L293.804 374.85L293.804 355.89L293.804 355.89L84.744 355.89z" /></clipPath><clipPath id="42"><path d="M84.744 374.85L293.804 374.85L293.804 374.85L293.804 355.89L293.804 355.89L84.744 355.89z" /></clipPath><clipPath id="43"><path d="M84.744 374.85L293.804 374.85L293.804 374.85L293.804 355.89L293.804 355.89L84.744 355.89z" /></clipPath><clipPath id="44"><path d="M84.744 374.85L293.804 374.85L293.804 374.85L293.804 355.89L293.804 355.89L84.744 355.89z" /></clipPath><clipPath id="45"><path d="M294.29 374.85L510.7 374.85L510.7 374.85L510.7 355.89L510.7 355.89L294.29 355.89z" /></clipPath><clipPath id="46"><path d="M294.29 374.85L510.7 374.85L510.7 374.85L510.7 355.89L510.7 355.89L294.29 355.89z" /></clipPath><clipPath id="47"><path d="M294.29 374.85L510.7 374.85L510.7 374.85L510.7 355.89L510.7 355.89L294.29 355.89z" /></clipPath><clipPath id="48"><path d="M84.751 508.8L293.811 508.8L293.811 508.8L293.811 375.45L293.811 375.45L84.751 375.45z" /></clipPath><clipPath id="49"><path d="M84.744 508.79L293.804 508.79L293.804 508.79L293.804 375.45L293.804 375.45L84.744 375.45z" /></clipPath><clipPath id="50"><path d="M84.744 508.79L293.804 508.79L293.804 508.79L293.804 375.45L293.804 375.45L84.744 375.45z" /></clipPath><clipPath id="51"><path d="M84.744 508.79L293.804 508.79L293.804 508.79L293.804 375.45L293.804 375.45L84.744 375.45z" /></clipPath><clipPath id="52"><path d="M84.744 508.79L293.804 508.79L293.804 508.79L293.804 375.45L293.804 375.45L84.744 375.45z" /></clipPath><clipPath id="53"><path d="M84.744 508.79L293.804 508.79L293.804 508.79L293.804 375.45L293.804 375.45L84.744 375.45z" /></clipPath><clipPath id="54"><path d="M84.744 508.79L293.804 508.79L293.804 508.79L293.804 375.45L293.804 375.45L84.744 375.45z" /></clipPath><clipPath id="55"><path d="M84.744 508.79L293.804 508.79L293.804 508.79L293.804 375.45L293.804 375.45L84.744 375.45z" /></clipPath><clipPath id="56"><path d="M84.744 508.79L293.804 508.79L293.804 508.79L293.804 375.45L293.804 375.45L84.744 375.45z" /></clipPath><clipPath id="57"><path d="M84.744 508.79L293.804 508.79L293.804 508.79L293.804 375.45L293.804 375.45L84.744 375.45z" /></clipPath><clipPath id="58"><path d="M84.744 508.79L293.804 508.79L293.804 508.79L293.804 375.45L293.804 375.45L84.744 375.45z" /></clipPath><clipPath id="59"><path d="M84.744 508.79L293.804 508.79L293.804 508.79L293.804 375.45L293.804 375.45L84.744 375.45z" /></clipPath><clipPath id="60"><path d="M84.744 508.79L293.804 508.79L293.804 508.79L293.804 375.45L293.804 375.45L84.744 375.45z" /></clipPath><clipPath id="61"><path d="M84.744 508.79L293.804 508.79L293.804 508.79L293.804 375.45L293.804 375.45L84.744 375.45z" /></clipPath><clipPath id="62"><path d="M84.744 508.79L293.804 508.79L293.804 508.79L293.804 375.45L293.804 375.45L84.744 375.45z" /></clipPath><clipPath id="63"><path d="M84.744 508.79L293.804 508.79L293.804 508.79L293.804 375.45L293.804 375.45L84.744 375.45z" /></clipPath><clipPath id="64"><path d="M84.744 508.79L293.804 508.79L293.804 508.79L293.804 375.45L293.804 375.45L84.744 375.45z" /></clipPath><clipPath id="65"><path d="M84.744 508.79L293.804 508.79L293.804 508.79L293.804 375.45L293.804 375.45L84.744 375.45z" /></clipPath><clipPath id="66"><path d="M84.744 508.79L293.804 508.79L293.804 508.79L293.804 375.45L293.804 375.45L84.744 375.45z" /></clipPath><clipPath id="67"><path d="M84.744 508.79L293.804 508.79L293.804 508.79L293.804 375.45L293.804 375.45L84.744 375.45z" /></clipPath><clipPath id="68"><path d="M84.744 508.79L293.804 508.79L293.804 508.79L293.804 375.45L293.804 375.45L84.744 375.45z" /></clipPath><clipPath id="69"><path d="M294.29 508.8L510.7 508.8L510.7 508.8L510.7 375.45L510.7 375.45L294.29 375.45z" /></clipPath><clipPath id="70"><path d="M294.29 508.79L510.7 508.79L510.7 508.79L510.7 375.45L510.7 375.45L294.29 375.45z" /></clipPath><clipPath id="71"><path d="M294.29 508.79L510.7 508.79L510.7 508.79L510.7 375.45L510.7 375.45L294.29 375.45z" /></clipPath><clipPath id="72"><path d="M294.29 508.79L510.7 508.79L510.7 508.79L510.7 375.45L510.7 375.45L294.29 375.45z" /></clipPath><clipPath id="73"><path d="M294.29 508.79L510.7 508.79L510.7 508.79L510.7 375.45L510.7 375.45L294.29 375.45z" /></clipPath><clipPath id="74"><path d="M294.29 508.79L510.7 508.79L510.7 508.79L510.7 375.45L510.7 375.45L294.29 375.45z" /></clipPath><clipPath id="75"><path d="M294.29 508.79L510.7 508.79L510.7 508.79L510.7 375.45L510.7 375.45L294.29 375.45z" /></clipPath><clipPath id="76"><path d="M294.29 508.79L510.7 508.79L510.7 508.79L510.7 375.45L510.7 375.45L294.29 375.45z" /></clipPath><clipPath id="77"><path d="M294.29 508.79L510.7 508.79L510.7 508.79L510.7 375.45L510.7 375.45L294.29 375.45z" /></clipPath><clipPath id="78"><path d="M294.29 508.79L510.7 508.79L510.7 508.79L510.7 375.45L510.7 375.45L294.29 375.45z" /></clipPath><clipPath id="79"><path d="M294.29 508.79L510.7 508.79L510.7 508.79L510.7 375.45L510.7 375.45L294.29 375.45z" /></clipPath><clipPath id="80"><path d="M294.29 508.79L510.7 508.79L510.7 508.79L510.7 375.45L510.7 375.45L294.29 375.45z" /></clipPath><clipPath id="81"><path d="M294.29 508.79L510.7 508.79L510.7 508.79L510.7 375.45L510.7 375.45L294.29 375.45z" /></clipPath><clipPath id="82"><path d="M294.29 508.79L510.7 508.79L510.7 508.79L510.7 375.45L510.7 375.45L294.29 375.45z" /></clipPath><clipPath id="83"><path d="M294.29 508.79L510.7 508.79L510.7 508.79L510.7 375.45L510.7 375.45L294.29 375.45z" /></clipPath><clipPath id="84"><path d="M84.751 528.36L510.691 528.36L510.691 528.36L510.691 509.28L510.691 509.28L84.751 509.28z" /></clipPath><clipPath id="85"><path d="M84.744 528.35L510.694 528.35L510.694 528.35L510.694 509.27L510.694 509.27L84.744 509.27z" /></clipPath><clipPath id="86"><path d="M84.744 528.35L510.694 528.35L510.694 528.35L510.694 509.27L510.694 509.27L84.744 509.27z" /></clipPath><clipPath id="87"><path d="M84.744 528.35L510.694 528.35L510.694 528.35L510.694 509.27L510.694 509.27L84.744 509.27z" /></clipPath><clipPath id="88"><path d="M84.744 528.35L510.694 528.35L510.694 528.35L510.694 509.27L510.694 509.27L84.744 509.27z" /></clipPath><clipPath id="89"><path d="M84.744 528.35L510.694 528.35L510.694 528.35L510.694 509.27L510.694 509.27L84.744 509.27z" /></clipPath><clipPath id="90"><path d="M84.744 528.35L510.694 528.35L510.694 528.35L510.694 509.27L510.694 509.27L84.744 509.27z" /></clipPath><clipPath id="91"><path d="M84.744 528.35L510.694 528.35L510.694 528.35L510.694 509.27L510.694 509.27L84.744 509.27z" /></clipPath><clipPath id="92"><path d="M84.744 528.35L510.694 528.35L510.694 528.35L510.694 509.27L510.694 509.27L84.744 509.27z" /></clipPath><clipPath id="93"><path d="M84.744 528.35L510.694 528.35L510.694 528.35L510.694 509.27L510.694 509.27L84.744 509.27z" /></clipPath><clipPath id="94"><path d="M84.751 605.52L291.771 605.52L291.771 605.52L291.771 586.44L291.771 586.44L84.751 586.44z" /></clipPath><clipPath id="95"><path d="M84.744 605.51L291.764 605.51L291.764 605.51L291.764 586.43L291.764 586.43L84.744 586.43z" /></clipPath><clipPath id="96"><path d="M84.744 605.51L291.764 605.51L291.764 605.51L291.764 586.43L291.764 586.43L84.744 586.43z" /></clipPath><clipPath id="97"><path d="M84.744 605.51L291.764 605.51L291.764 605.51L291.764 586.43L291.764 586.43L84.744 586.43z" /></clipPath><clipPath id="98"><path d="M84.744 605.51L291.764 605.51L291.764 605.51L291.764 586.43L291.764 586.43L84.744 586.43z" /></clipPath><clipPath id="99"><path d="M292.25 605.52L499.42 605.52L499.42 605.52L499.42 586.44L499.42 586.44L292.25 586.44z" /></clipPath><clipPath id="100"><path d="M292.25 605.51L499.42 605.51L499.42 605.51L499.42 586.43L499.42 586.43L292.25 586.43z" /></clipPath><clipPath id="101"><path d="M292.25 605.51L499.42 605.51L499.42 605.51L499.42 586.43L499.42 586.43L292.25 586.43z" /></clipPath><clipPath id="102"><path d="M84.751 663.13L291.771 663.13L291.771 663.13L291.771 605.995L291.771 605.995L84.751 605.995z" /></clipPath><clipPath id="103"><path d="M84.744 663.14L291.764 663.14L291.764 663.14L291.764 605.996L291.764 605.996L84.744 605.996z" /></clipPath><clipPath id="104"><path d="M84.744 663.14L291.764 663.14L291.764 663.14L291.764 605.996L291.764 605.996L84.744 605.996z" /></clipPath><clipPath id="105"><path d="M84.744 663.14L291.764 663.14L291.764 663.14L291.764 605.996L291.764 605.996L84.744 605.996z" /></clipPath><clipPath id="106"><path d="M84.744 663.14L291.764 663.14L291.764 663.14L291.764 605.996L291.764 605.996L84.744 605.996z" /></clipPath><clipPath id="107"><path d="M84.744 663.14L291.764 663.14L291.764 663.14L291.764 605.996L291.764 605.996L84.744 605.996z" /></clipPath><clipPath id="108"><path d="M84.744 663.14L291.764 663.14L291.764 663.14L291.764 605.996L291.764 605.996L84.744 605.996z" /></clipPath><clipPath id="109"><path d="M84.744 663.14L291.764 663.14L291.764 663.14L291.764 605.996L291.764 605.996L84.744 605.996z" /></clipPath><clipPath id="110"><path d="M84.744 663.14L291.764 663.14L291.764 663.14L291.764 605.996L291.764 605.996L84.744 605.996z" /></clipPath><clipPath id="111"><path d="M84.744 663.14L291.764 663.14L291.764 663.14L291.764 605.996L291.764 605.996L84.744 605.996z" /></clipPath><clipPath id="112"><path d="M292.25 663.13L499.42 663.13L499.42 663.13L499.42 605.995L499.42 605.995L292.25 605.995z" /></clipPath><clipPath id="113"><path d="M292.25 663.14L499.42 663.14L499.42 663.14L499.42 605.996L499.42 605.996L292.25 605.996z" /></clipPath><clipPath id="114"><path d="M292.25 663.14L499.42 663.14L499.42 663.14L499.42 605.996L499.42 605.996L292.25 605.996z" /></clipPath><clipPath id="115"><path d="M292.25 663.14L499.42 663.14L499.42 663.14L499.42 605.996L499.42 605.996L292.25 605.996z" /></clipPath><clipPath id="116"><path d="M292.25 663.14L499.42 663.14L499.42 663.14L499.42 605.996L499.42 605.996L292.25 605.996z" /></clipPath><clipPath id="117"><path d="M292.25 663.14L499.42 663.14L499.42 663.14L499.42 605.996L499.42 605.996L292.25 605.996z" /></clipPath><clipPath id="118"><path d="M292.25 663.14L499.42 663.14L499.42 663.14L499.42 605.996L499.42 605.996L292.25 605.996z" /></clipPath><clipPath id="119"><path d="M292.25 663.14L499.42 663.14L499.42 663.14L499.42 605.996L499.42 605.996L292.25 605.996z" /></clipPath><clipPath id="120"><path d="M292.25 663.14L499.42 663.14L499.42 663.14L499.42 605.996L499.42 605.996L292.25 605.996z" /></clipPath><clipPath id="121"><path d="M292.25 663.14L499.42 663.14L499.42 663.14L499.42 605.996L499.42 605.996L292.25 605.996z" /></clipPath><clipPath id="122"><path d="M292.25 663.14L499.42 663.14L499.42 663.14L499.42 605.996L499.42 605.996L292.25 605.996z" /></clipPath><clipPath id="123"><path d="M292.25 663.14L499.42 663.14L499.42 663.14L499.42 605.996L499.42 605.996L292.25 605.996z" /></clipPath><clipPath id="124"><path d="M292.25 663.14L499.42 663.14L499.42 663.14L499.42 605.996L499.42 605.996L292.25 605.996z" /></clipPath><clipPath id="125"><path d="M84.751 682.69L499.411 682.69L499.411 682.69L499.411 663.73L499.411 663.73L84.751 663.73z" /></clipPath><clipPath id="126"><path d="M84.744 682.7L499.414 682.7L499.414 682.7L499.414 663.74L499.414 663.74L84.744 663.74z" /></clipPath><clipPath id="127"><path d="M84.744 682.7L499.414 682.7L499.414 682.7L499.414 663.74L499.414 663.74L84.744 663.74z" /></clipPath><clipPath id="128"><path d="M84.744 682.7L499.414 682.7L499.414 682.7L499.414 663.74L499.414 663.74L84.744 663.74z" /></clipPath><clipPath id="129"><path d="M84.744 682.7L499.414 682.7L499.414 682.7L499.414 663.74L499.414 663.74L84.744 663.74z" /></clipPath><clipPath id="130"><path d="M84.744 682.7L499.414 682.7L499.414 682.7L499.414 663.74L499.414 663.74L84.744 663.74z" /></clipPath><clipPath id="131"><path d="M84.744 682.7L499.414 682.7L499.414 682.7L499.414 663.74L499.414 663.74L84.744 663.74z" /></clipPath><clipPath id="132"><path d="M84.744 682.7L499.414 682.7L499.414 682.7L499.414 663.74L499.414 663.74L84.744 663.74z" /></clipPath><clipPath id="133"><path d="M84.744 682.7L499.414 682.7L499.414 682.7L499.414 663.74L499.414 663.74L84.744 663.74z" /></clipPath><clipPath id="134"><path d="M84.744 682.7L499.414 682.7L499.414 682.7L499.414 663.74L499.414 663.74L84.744 663.74z" /></clipPath></defs><g transform="matrix(1.333333 0 0 1.333333 0 0)"><g><g clip-path="url(#1)"><path transform="matrix(1 0 0 -1 0 841)" d="M457.63 53.424L505.534 53.424L505.534 53.424L505.534 54.02404L505.534 54.02404L457.63 54.02404z" stroke="none" fill="#000000" fill-rule="evenodd" /><g clip-path="url(#2)"><path transform="matrix(1 0 0 -1 0 841)" d="M88.464 78.984L506.974 78.984L506.974 78.984L506.974 81.984L506.974 81.984L88.464 81.984z" stroke="none" fill="#000000" fill-rule="evenodd" /><path transform="matrix(1 0 0 -1 0 841)" d="M88.464 77.544L506.974 77.544L506.974 77.544L506.974 78.26397L506.974 78.26397L88.464 78.26397z" stroke="none" fill="#000000" fill-rule="evenodd" /></g><g clip-path="url(#3)"><g clip-path="url(#4)"></g><g clip-path="url(#5)"></g></g><path transform="matrix(1 0 0 -1 0 841)" d="M84.744 636.82L141.624 636.82L141.624 636.82L141.624 661.9L141.624 661.9L84.744 661.9z" stroke="none" fill="#0070C0" fill-rule="evenodd" /><g clip-path="url(#6)"><path transform="matrix(1 0 0 -1 0 841)" d="M89.904 636.82L136.464 636.82L136.464 636.82L136.464 661.9L136.464 661.9L89.904 661.9z" stroke="none" fill="#0070C0" fill-rule="evenodd" /><g clip-path="url(#7)"></g><g clip-path="url(#8)"></g></g><path transform="matrix(1 0 0 -1 0 841)" d="M142.1 636.82L510.69 636.82L510.69 636.82L510.69 661.9L510.69 661.9L142.1 661.9z" stroke="none" fill="#0070C0" fill-rule="evenodd" /><g clip-path="url(#9)"><path transform="matrix(1 0 0 -1 0 841)" d="M147.26 636.82L505.53 636.82L505.53 636.82L505.53 661.9L505.53 661.9L147.26 661.9z" stroke="none" fill="#0070C0" fill-rule="evenodd" /><g clip-path="url(#10)"></g><g clip-path="url(#11)"></g></g><path transform="matrix(1 0 0 -1 0 841)" d="M84.264 661.9L84.744 661.9L84.744 661.9L84.744 662.38L84.744 662.38L84.264 662.38z" stroke="none" fill="#000000" fill-rule="evenodd" /><path transform="matrix(1 0 0 -1 0 841)" d="M84.264 661.9L84.744 661.9L84.744 661.9L84.744 662.38L84.744 662.38L84.264 662.38z" stroke="none" fill="#000000" fill-rule="evenodd" /><path transform="matrix(1 0 0 -1 0 841)" d="M84.744 661.9L141.624 661.9L141.624 661.9L141.624 662.38L141.624 662.38L84.744 662.38z" stroke="none" fill="#000000" fill-rule="evenodd" /><path transform="matrix(1 0 0 -1 0 841)" d="M141.62 661.9L142.1 661.9L142.1 661.9L142.1 662.38L142.1 662.38L141.62 662.38z" stroke="none" fill="#000000" fill-rule="evenodd" /><path transform="matrix(1 0 0 -1 0 841)" d="M142.1 661.9L510.69 661.9L510.69 661.9L510.69 662.38L510.69 662.38L142.1 662.38z" stroke="none" fill="#000000" fill-rule="evenodd" /><path transform="matrix(1 0 0 -1 0 841)" d="M510.7 661.9L511.18 661.9L511.18 661.9L511.18 662.38L511.18 662.38L510.7 662.38z" stroke="none" fill="#000000" fill-rule="evenodd" /><path transform="matrix(1 0 0 -1 0 841)" d="M510.7 661.9L511.18 661.9L511.18 661.9L511.18 662.38L511.18 662.38L510.7 662.38z" stroke="none" fill="#000000" fill-rule="evenodd" /><path transform="matrix(1 0 0 -1 0 841)" d="M84.264 636.82L84.744 636.82L84.744 636.82L84.744 661.9L84.744 661.9L84.264 661.9z" stroke="none" fill="#000000" fill-rule="evenodd" /><path transform="matrix(1 0 0 -1 0 841)" d="M141.62 636.82L142.1 636.82L142.1 636.82L142.1 661.9L142.1 661.9L141.62 661.9z" stroke="none" fill="#000000" fill-rule="evenodd" /><path transform="matrix(1 0 0 -1 0 841)" d="M510.7 636.82L511.18 636.82L511.18 636.82L511.18 661.9L511.18 661.9L510.7 661.9z" stroke="none" fill="#000000" fill-rule="evenodd" /><path transform="matrix(1 0 0 -1 0 841)" d="M84.744 611.26L141.624 611.26L141.624 611.26L141.624 636.34L141.624 636.34L84.744 636.34z" stroke="none" fill="#DAEEF3" fill-rule="evenodd" /><g clip-path="url(#12)"><path transform="matrix(1 0 0 -1 0 841)" d="M89.904 612.22L136.464 612.22L136.464 612.22L136.464 636.34L136.464 636.34L89.904 636.34z" stroke="none" fill="#DAEEF3" fill-rule="evenodd" /><g clip-path="url(#13)"></g><g clip-path="url(#14)"></g></g><path transform="matrix(1 0 0 -1 0 841)" d="M142.1 611.26L510.69 611.26L510.69 611.26L510.69 636.34L510.69 636.34L142.1 636.34z" stroke="none" fill="#DAEEF3" fill-rule="evenodd" /><g clip-path="url(#15)"><path transform="matrix(1 0 0 -1 0 841)" d="M147.26 611.26L505.53 611.26L505.53 611.26L505.53 636.34L505.53 636.34L147.26 636.34z" stroke="none" fill="#DAEEF3" fill-rule="evenodd" /><g clip-path="url(#16)"></g><g clip-path="url(#17)"></g><g clip-path="url(#18)"></g></g><path transform="matrix(1 0 0 -1 0 841)" d="M84.264 636.34L84.744 636.34L84.744 636.34L84.744 636.82L84.744 636.82L84.264 636.82z" stroke="none" fill="#000000" fill-rule="evenodd" /><path transform="matrix(1 0 0 -1 0 841)" d="M84.744 636.34L141.624 636.34L141.624 636.34L141.624 636.82L141.624 636.82L84.744 636.82z" stroke="none" fill="#000000" fill-rule="evenodd" /><path transform="matrix(1 0 0 -1 0 841)" d="M141.62 636.34L142.1 636.34L142.1 636.34L142.1 636.82L142.1 636.82L141.62 636.82z" stroke="none" fill="#000000" fill-rule="evenodd" /><path transform="matrix(1 0 0 -1 0 841)" d="M142.1 636.34L510.69 636.34L510.69 636.34L510.69 636.82L510.69 636.82L142.1 636.82z" stroke="none" fill="#000000" fill-rule="evenodd" /><path transform="matrix(1 0 0 -1 0 841)" d="M510.7 636.34L511.18 636.34L511.18 636.34L511.18 636.82L511.18 636.82L510.7 636.82z" stroke="none" fill="#000000" fill-rule="evenodd" /><path transform="matrix(1 0 0 -1 0 841)" d="M84.264 611.26L84.744 611.26L84.744 611.26L84.744 636.34L84.744 636.34L84.264 636.34z" stroke="none" fill="#000000" fill-rule="evenodd" /><path transform="matrix(1 0 0 -1 0 841)" d="M141.62 611.26L142.1 611.26L142.1 611.26L142.1 636.34L142.1 636.34L141.62 636.34z" stroke="none" fill="#000000" fill-rule="evenodd" /><path transform="matrix(1 0 0 -1 0 841)" d="M510.7 611.26L511.18 611.26L511.18 611.26L511.18 636.34L511.18 636.34L510.7 636.34z" stroke="none" fill="#000000" fill-rule="evenodd" /><g clip-path="url(#19)"><g clip-path="url(#20)"></g><g clip-path="url(#21)"></g></g><g clip-path="url(#22)"><g clip-path="url(#23)"></g><g clip-path="url(#24)"></g><g clip-path="url(#25)"></g><g clip-path="url(#26)"></g><g clip-path="url(#27)"></g></g><path transform="matrix(1 0 0 -1 0 841)" d="M84.264 610.78L84.744 610.78L84.744 610.78L84.744 611.26L84.744 611.26L84.264 611.26z" stroke="none" fill="#000000" fill-rule="evenodd" /><path transform="matrix(1 0 0 -1 0 841)" d="M84.744 610.78L141.624 610.78L141.624 610.78L141.624 611.26L141.624 611.26L84.744 611.26z" stroke="none" fill="#000000" fill-rule="evenodd" /><path transform="matrix(1 0 0 -1 0 841)" d="M141.62 610.78L142.1 610.78L142.1 610.78L142.1 611.26L142.1 611.26L141.62 611.26z" stroke="none" fill="#000000" fill-rule="evenodd" /><path transform="matrix(1 0 0 -1 0 841)" d="M142.1 610.78L510.69 610.78L510.69 610.78L510.69 611.26L510.69 611.26L142.1 611.26z" stroke="none" fill="#000000" fill-rule="evenodd" /><path transform="matrix(1 0 0 -1 0 841)" d="M510.7 610.78L511.18 610.78L511.18 610.78L511.18 611.26L511.18 611.26L510.7 611.26z" stroke="none" fill="#000000" fill-rule="evenodd" /><path transform="matrix(1 0 0 -1 0 841)" d="M84.264 585.7L84.744 585.7L84.744 585.7L84.744 610.78L84.744 610.78L84.264 610.78z" stroke="none" fill="#000000" fill-rule="evenodd" /><path transform="matrix(1 0 0 -1 0 841)" d="M141.62 585.7L142.1 585.7L142.1 585.7L142.1 610.78L142.1 610.78L141.62 610.78z" stroke="none" fill="#000000" fill-rule="evenodd" /><path transform="matrix(1 0 0 -1 0 841)" d="M510.7 585.7L511.18 585.7L511.18 585.7L511.18 610.78L511.18 610.78L510.7 610.78z" stroke="none" fill="#000000" fill-rule="evenodd" /><path transform="matrix(1 0 0 -1 0 841)" d="M84.744 524.23L141.624 524.23L141.624 524.23L141.624 585.214L141.624 585.214L84.744 585.214z" stroke="none" fill="#DAEEF3" fill-rule="evenodd" /><g clip-path="url(#28)"><path transform="matrix(1 0 0 -1 0 841)" d="M89.904 561.1L136.464 561.1L136.464 561.1L136.464 585.22L136.464 585.22L89.904 585.22z" stroke="none" fill="#DAEEF3" fill-rule="evenodd" /><g clip-path="url(#29)"></g><g clip-path="url(#30)"></g></g><path transform="matrix(1 0 0 -1 0 841)" d="M142.1 524.23L510.69 524.23L510.69 524.23L510.69 585.214L510.69 585.214L142.1 585.214z" stroke="none" fill="#DAEEF3" fill-rule="evenodd" /><g clip-path="url(#31)"><path transform="matrix(1 0 0 -1 0 841)" d="M147.26 564.94L505.53 564.94L505.53 564.94L505.53 585.22L505.53 585.22L147.26 585.22z" stroke="none" fill="#DAEEF3" fill-rule="evenodd" /><g clip-path="url(#32)"></g><g clip-path="url(#33)"></g><g clip-path="url(#34)"></g><path transform="matrix(1 0 0 -1 0 841)" d="M147.26 544.51L505.53 544.51L505.53 544.51L505.53 564.934L505.53 564.934L147.26 564.934z" stroke="none" fill="#DAEEF3" fill-rule="evenodd" /><g clip-path="url(#35)"></g><g clip-path="url(#36)"></g><g clip-path="url(#37)"></g><path transform="matrix(1 0 0 -1 0 841)" d="M147.26 524.23L505.53 524.23L505.53 524.23L505.53 544.51L505.53 544.51L147.26 544.51z" stroke="none" fill="#DAEEF3" fill-rule="evenodd" /><g clip-path="url(#38)"></g><g clip-path="url(#39)"></g></g><path transform="matrix(1 0 0 -1 0 841)" d="M84.264 585.22L84.744 585.22L84.744 585.22L84.744 585.7L84.744 585.7L84.264 585.7z" stroke="none" fill="#000000" fill-rule="evenodd" /><path transform="matrix(1 0 0 -1 0 841)" d="M84.744 585.22L141.624 585.22L141.624 585.22L141.624 585.7L141.624 585.7L84.744 585.7z" stroke="none" fill="#000000" fill-rule="evenodd" /><path transform="matrix(1 0 0 -1 0 841)" d="M141.62 585.22L142.1 585.22L142.1 585.22L142.1 585.7L142.1 585.7L141.62 585.7z" stroke="none" fill="#000000" fill-rule="evenodd" /><path transform="matrix(1 0 0 -1 0 841)" d="M142.1 585.22L510.69 585.22L510.69 585.22L510.69 585.7L510.69 585.7L142.1 585.7z" stroke="none" fill="#000000" fill-rule="evenodd" /><path transform="matrix(1 0 0 -1 0 841)" d="M510.7 585.22L511.18 585.22L511.18 585.22L511.18 585.7L511.18 585.7L510.7 585.7z" stroke="none" fill="#000000" fill-rule="evenodd" /><path transform="matrix(1 0 0 -1 0 841)" d="M84.264 524.23L84.744 524.23L84.744 524.23L84.744 585.214L84.744 585.214L84.264 585.214z" stroke="none" fill="#000000" fill-rule="evenodd" /><path transform="matrix(1 0 0 -1 0 841)" d="M84.264 523.75L84.744 523.75L84.744 523.75L84.744 524.23L84.744 524.23L84.264 524.23z" stroke="none" fill="#000000" fill-rule="evenodd" /><path transform="matrix(1 0 0 -1 0 841)" d="M84.264 523.75L84.744 523.75L84.744 523.75L84.744 524.23L84.744 524.23L84.264 524.23z" stroke="none" fill="#000000" fill-rule="evenodd" /><path transform="matrix(1 0 0 -1 0 841)" d="M84.744 523.75L141.624 523.75L141.624 523.75L141.624 524.23L141.624 524.23L84.744 524.23z" stroke="none" fill="#000000" fill-rule="evenodd" /><path transform="matrix(1 0 0 -1 0 841)" d="M141.62 524.23L142.1 524.23L142.1 524.23L142.1 585.214L142.1 585.214L141.62 585.214z" stroke="none" fill="#000000" fill-rule="evenodd" /><path transform="matrix(1 0 0 -1 0 841)" d="M141.62 523.75L142.1 523.75L142.1 523.75L142.1 524.23L142.1 524.23L141.62 524.23z" stroke="none" fill="#000000" fill-rule="evenodd" /><path transform="matrix(1 0 0 -1 0 841)" d="M142.1 523.75L510.69 523.75L510.69 523.75L510.69 524.23L510.69 524.23L142.1 524.23z" stroke="none" fill="#000000" fill-rule="evenodd" /><path transform="matrix(1 0 0 -1 0 841)" d="M510.7 524.23L511.18 524.23L511.18 524.23L511.18 585.214L511.18 585.214L510.7 585.214z" stroke="none" fill="#000000" fill-rule="evenodd" /><path transform="matrix(1 0 0 -1 0 841)" d="M510.7 523.75L511.18 523.75L511.18 523.75L511.18 524.23L511.18 524.23L510.7 524.23z" stroke="none" fill="#000000" fill-rule="evenodd" /><path transform="matrix(1 0 0 -1 0 841)" d="M510.7 523.75L511.18 523.75L511.18 523.75L511.18 524.23L511.18 524.23L510.7 524.23z" stroke="none" fill="#000000" fill-rule="evenodd" /><path transform="matrix(1 0 0 -1 0 841)" d="M84.744 466.15L293.804 466.15L293.804 466.15L293.804 485.11L293.804 485.11L84.744 485.11z" stroke="none" fill="#0070C0" fill-rule="evenodd" /><g clip-path="url(#40)"><path transform="matrix(1 0 0 -1 0 841)" d="M89.904 466.15L288.644 466.15L288.644 466.15L288.644 485.11L288.644 485.11L89.904 485.11z" stroke="none" fill="#0070C0" fill-rule="evenodd" /><g clip-path="url(#41)"></g><g clip-path="url(#42)"></g><g clip-path="url(#43)"></g><g clip-path="url(#44)"></g></g><path transform="matrix(1 0 0 -1 0 841)" d="M294.29 466.15L510.7 466.15L510.7 466.15L510.7 485.11L510.7 485.11L294.29 485.11z" stroke="none" fill="#0070C0" fill-rule="evenodd" /><g clip-path="url(#45)"><path transform="matrix(1 0 0 -1 0 841)" d="M299.45 466.15L505.54 466.15L505.54 466.15L505.54 485.11L505.54 485.11L299.45 485.11z" stroke="none" fill="#0070C0" fill-rule="evenodd" /><g clip-path="url(#46)"></g><g clip-path="url(#47)"></g></g><path transform="matrix(1 0 0 -1 0 841)" d="M84.264 485.23L84.744 485.23L84.744 485.23L84.744 485.71L84.744 485.71L84.264 485.71z" stroke="none" fill="#000000" fill-rule="evenodd" /><path transform="matrix(1 0 0 -1 0 841)" d="M84.264 485.23L84.744 485.23L84.744 485.23L84.744 485.71L84.744 485.71L84.264 485.71z" stroke="none" fill="#000000" fill-rule="evenodd" /><path transform="matrix(1 0 0 -1 0 841)" d="M84.744 485.23L293.804 485.23L293.804 485.23L293.804 485.71L293.804 485.71L84.744 485.71z" stroke="none" fill="#000000" fill-rule="evenodd" /><path transform="matrix(1 0 0 -1 0 841)" d="M293.81 485.23L294.29 485.23L294.29 485.23L294.29 485.71L294.29 485.71L293.81 485.71z" stroke="none" fill="#000000" fill-rule="evenodd" /><path transform="matrix(1 0 0 -1 0 841)" d="M294.29 485.23L510.7 485.23L510.7 485.23L510.7 485.71L510.7 485.71L294.29 485.71z" stroke="none" fill="#000000" fill-rule="evenodd" /><path transform="matrix(1 0 0 -1 0 841)" d="M510.7 485.23L511.18 485.23L511.18 485.23L511.18 485.71L511.18 485.71L510.7 485.71z" stroke="none" fill="#000000" fill-rule="evenodd" /><path transform="matrix(1 0 0 -1 0 841)" d="M510.7 485.23L511.18 485.23L511.18 485.23L511.18 485.71L511.18 485.71L510.7 485.71z" stroke="none" fill="#000000" fill-rule="evenodd" /><path transform="matrix(1 0 0 -1 0 841)" d="M84.264 466.15L84.744 466.15L84.744 466.15L84.744 485.23L84.744 485.23L84.264 485.23z" stroke="none" fill="#000000" fill-rule="evenodd" /><path transform="matrix(1 0 0 -1 0 841)" d="M293.81 466.15L294.29 466.15L294.29 466.15L294.29 485.23L294.29 485.23L293.81 485.23z" stroke="none" fill="#000000" fill-rule="evenodd" /><path transform="matrix(1 0 0 -1 0 841)" d="M510.7 466.15L511.18 466.15L511.18 466.15L511.18 485.23L511.18 485.23L510.7 485.23z" stroke="none" fill="#000000" fill-rule="evenodd" /><path transform="matrix(1 0 0 -1 0 841)" d="M84.744 332.21L293.804 332.21L293.804 332.21L293.804 465.55L293.804 465.55L84.744 465.55z" stroke="none" fill="#DAEEF3" fill-rule="evenodd" /><g clip-path="url(#48)"><path transform="matrix(1 0 0 -1 0 841)" d="M89.904 446.59L288.644 446.59L288.644 446.59L288.644 465.55L288.644 465.55L89.904 465.55z" stroke="none" fill="#DAEEF3" fill-rule="evenodd" /><g clip-path="url(#49)"></g><g clip-path="url(#50)"></g><g clip-path="url(#51)"></g><path transform="matrix(1 0 0 -1 0 841)" d="M89.904 427.51L288.644 427.51L288.644 427.51L288.644 446.59L288.644 446.59L89.904 446.59z" stroke="none" fill="#DAEEF3" fill-rule="evenodd" /><g clip-path="url(#52)"></g><g clip-path="url(#53)"></g><g clip-path="url(#54)"></g><path transform="matrix(1 0 0 -1 0 841)" d="M89.904 408.43L288.644 408.43L288.644 408.43L288.644 427.51L288.644 427.51L89.904 427.51z" stroke="none" fill="#DAEEF3" fill-rule="evenodd" /><g clip-path="url(#55)"></g><g clip-path="url(#56)"></g><g clip-path="url(#57)"></g><path transform="matrix(1 0 0 -1 0 841)" d="M89.904 389.35L288.644 389.35L288.644 389.35L288.644 408.43L288.644 408.43L89.904 408.43z" stroke="none" fill="#DAEEF3" fill-rule="evenodd" /><g clip-path="url(#58)"></g><g clip-path="url(#59)"></g><g clip-path="url(#60)"></g><path transform="matrix(1 0 0 -1 0 841)" d="M89.904 370.37L288.644 370.37L288.644 370.37L288.644 389.354L288.644 389.354L89.904 389.354z" stroke="none" fill="#DAEEF3" fill-rule="evenodd" /><g clip-path="url(#61)"></g><g clip-path="url(#62)"></g><g clip-path="url(#63)"></g><path transform="matrix(1 0 0 -1 0 841)" d="M89.904 351.29L288.644 351.29L288.644 351.29L288.644 370.37L288.644 370.37L89.904 370.37z" stroke="none" fill="#DAEEF3" fill-rule="evenodd" /><g clip-path="url(#64)"></g><g clip-path="url(#65)"></g><g clip-path="url(#66)"></g><path transform="matrix(1 0 0 -1 0 841)" d="M89.904 332.21L288.644 332.21L288.644 332.21L288.644 351.29L288.644 351.29L89.904 351.29z" stroke="none" fill="#DAEEF3" fill-rule="evenodd" /><g clip-path="url(#67)"></g><g clip-path="url(#68)"></g></g><path transform="matrix(1 0 0 -1 0 841)" d="M294.29 332.21L510.7 332.21L510.7 332.21L510.7 465.55L510.7 465.55L294.29 465.55z" stroke="none" fill="#DAEEF3" fill-rule="evenodd" /><g clip-path="url(#69)"><path transform="matrix(1 0 0 -1 0 841)" d="M299.45 446.59L505.54 446.59L505.54 446.59L505.54 465.55L505.54 465.55L299.45 465.55z" stroke="none" fill="#DAEEF3" fill-rule="evenodd" /><g clip-path="url(#70)"></g><g clip-path="url(#71)"></g><g clip-path="url(#72)"></g><path transform="matrix(1 0 0 -1 0 841)" d="M299.45 427.51L505.54 427.51L505.54 427.51L505.54 446.59L505.54 446.59L299.45 446.59z" stroke="none" fill="#DAEEF3" fill-rule="evenodd" /><g clip-path="url(#73)"></g><g clip-path="url(#74)"></g><g clip-path="url(#75)"></g><path transform="matrix(1 0 0 -1 0 841)" d="M299.45 408.43L505.54 408.43L505.54 408.43L505.54 427.51L505.54 427.51L299.45 427.51z" stroke="none" fill="#DAEEF3" fill-rule="evenodd" /><g clip-path="url(#76)"></g><g clip-path="url(#77)"></g><g clip-path="url(#78)"></g><path transform="matrix(1 0 0 -1 0 841)" d="M299.45 389.35L505.54 389.35L505.54 389.35L505.54 408.43L505.54 408.43L299.45 408.43z" stroke="none" fill="#DAEEF3" fill-rule="evenodd" /><g clip-path="url(#79)"></g><g clip-path="url(#80)"></g><g clip-path="url(#81)"></g><path transform="matrix(1 0 0 -1 0 841)" d="M299.45 370.37L505.54 370.37L505.54 370.37L505.54 389.354L505.54 389.354L299.45 389.354z" stroke="none" fill="#DAEEF3" fill-rule="evenodd" /><g clip-path="url(#82)"></g><g clip-path="url(#83)"></g></g><path transform="matrix(1 0 0 -1 0 841)" d="M84.264 465.67L84.744 465.67L84.744 465.67L84.744 466.15L84.744 466.15L84.264 466.15z" stroke="none" fill="#000000" fill-rule="evenodd" /><path transform="matrix(1 0 0 -1 0 841)" d="M84.744 465.67L293.804 465.67L293.804 465.67L293.804 466.15L293.804 466.15L84.744 466.15z" stroke="none" fill="#000000" fill-rule="evenodd" /><path transform="matrix(1 0 0 -1 0 841)" d="M293.81 465.67L294.29 465.67L294.29 465.67L294.29 466.15L294.29 466.15L293.81 466.15z" stroke="none" fill="#000000" fill-rule="evenodd" /><path transform="matrix(1 0 0 -1 0 841)" d="M294.29 465.67L510.7 465.67L510.7 465.67L510.7 466.15L510.7 466.15L294.29 466.15z" stroke="none" fill="#000000" fill-rule="evenodd" /><path transform="matrix(1 0 0 -1 0 841)" d="M510.7 465.67L511.18 465.67L511.18 465.67L511.18 466.15L511.18 466.15L510.7 466.15z" stroke="none" fill="#000000" fill-rule="evenodd" /><path transform="matrix(1 0 0 -1 0 841)" d="M84.264 332.21L84.744 332.21L84.744 332.21L84.744 465.67L84.744 465.67L84.264 465.67z" stroke="none" fill="#000000" fill-rule="evenodd" /><path transform="matrix(1 0 0 -1 0 841)" d="M293.81 332.21L294.29 332.21L294.29 332.21L294.29 465.67L294.29 465.67L293.81 465.67z" stroke="none" fill="#000000" fill-rule="evenodd" /><path transform="matrix(1 0 0 -1 0 841)" d="M510.7 332.21L511.18 332.21L511.18 332.21L511.18 465.67L511.18 465.67L510.7 465.67z" stroke="none" fill="#000000" fill-rule="evenodd" /><g clip-path="url(#84)"><g clip-path="url(#85)"></g><g clip-path="url(#86)"></g><g clip-path="url(#87)"></g><g clip-path="url(#88)"></g><g clip-path="url(#89)"></g><g clip-path="url(#90)"></g><g clip-path="url(#91)"></g><g clip-path="url(#92)"></g><g clip-path="url(#93)"></g></g><path transform="matrix(1 0 0 -1 0 841)" d="M84.264 331.73L84.744 331.73L84.744 331.73L84.744 332.21L84.744 332.21L84.264 332.21z" stroke="none" fill="#000000" fill-rule="evenodd" /><path transform="matrix(1 0 0 -1 0 841)" d="M84.744 331.73L293.804 331.73L293.804 331.73L293.804 332.21L293.804 332.21L84.744 332.21z" stroke="none" fill="#000000" fill-rule="evenodd" /><path transform="matrix(1 0 0 -1 0 841)" d="M293.81 331.73L294.29 331.73L294.29 331.73L294.29 332.21L294.29 332.21L293.81 332.21z" stroke="none" fill="#000000" fill-rule="evenodd" /><path transform="matrix(1 0 0 -1 0 841)" d="M294.29 331.73L510.7 331.73L510.7 331.73L510.7 332.21L510.7 332.21L294.29 332.21z" stroke="none" fill="#000000" fill-rule="evenodd" /><path transform="matrix(1 0 0 -1 0 841)" d="M510.7 331.73L511.18 331.73L511.18 331.73L511.18 332.21L511.18 332.21L510.7 332.21z" stroke="none" fill="#000000" fill-rule="evenodd" /><path transform="matrix(1 0 0 -1 0 841)" d="M84.264 312.65L84.744 312.65L84.744 312.65L84.744 331.73L84.744 331.73L84.264 331.73z" stroke="none" fill="#000000" fill-rule="evenodd" /><path transform="matrix(1 0 0 -1 0 841)" d="M84.264 312.17L84.744 312.17L84.744 312.17L84.744 312.65L84.744 312.65L84.264 312.65z" stroke="none" fill="#000000" fill-rule="evenodd" /><path transform="matrix(1 0 0 -1 0 841)" d="M84.264 312.17L84.744 312.17L84.744 312.17L84.744 312.65L84.744 312.65L84.264 312.65z" stroke="none" fill="#000000" fill-rule="evenodd" /><path transform="matrix(1 0 0 -1 0 841)" d="M84.744 312.17L510.694 312.17L510.694 312.17L510.694 312.65L510.694 312.65L84.744 312.65z" stroke="none" fill="#000000" fill-rule="evenodd" /><path transform="matrix(1 0 0 -1 0 841)" d="M510.7 312.65L511.18 312.65L511.18 312.65L511.18 331.73L511.18 331.73L510.7 331.73z" stroke="none" fill="#000000" fill-rule="evenodd" /><path transform="matrix(1 0 0 -1 0 841)" d="M510.7 312.17L511.18 312.17L511.18 312.17L511.18 312.65L511.18 312.65L510.7 312.65z" stroke="none" fill="#000000" fill-rule="evenodd" /><path transform="matrix(1 0 0 -1 0 841)" d="M510.7 312.17L511.18 312.17L511.18 312.17L511.18 312.65L511.18 312.65L510.7 312.65z" stroke="none" fill="#000000" fill-rule="evenodd" /><path transform="matrix(1 0 0 -1 0 841)" d="M84.744 235.49L291.764 235.49L291.764 235.49L291.764 254.57L291.764 254.57L84.744 254.57z" stroke="none" fill="#0070C0" fill-rule="evenodd" /><g clip-path="url(#94)"><path transform="matrix(1 0 0 -1 0 841)" d="M89.904 235.49L286.604 235.49L286.604 235.49L286.604 254.57L286.604 254.57L89.904 254.57z" stroke="none" fill="#0070C0" fill-rule="evenodd" /><g clip-path="url(#95)"></g><g clip-path="url(#96)"></g><g clip-path="url(#97)"></g><g clip-path="url(#98)"></g></g><path transform="matrix(1 0 0 -1 0 841)" d="M292.25 235.49L499.42 235.49L499.42 235.49L499.42 254.57L499.42 254.57L292.25 254.57z" stroke="none" fill="#0070C0" fill-rule="evenodd" /><g clip-path="url(#99)"><path transform="matrix(1 0 0 -1 0 841)" d="M297.41 235.49L494.26 235.49L494.26 235.49L494.26 254.57L494.26 254.57L297.41 254.57z" stroke="none" fill="#0070C0" fill-rule="evenodd" /><g clip-path="url(#100)"></g><g clip-path="url(#101)"></g></g><path transform="matrix(1 0 0 -1 0 841)" d="M84.264 254.57L84.744 254.57L84.744 254.57L84.744 255.05L84.744 255.05L84.264 255.05z" stroke="none" fill="#000000" fill-rule="evenodd" /><path transform="matrix(1 0 0 -1 0 841)" d="M84.264 254.57L84.744 254.57L84.744 254.57L84.744 255.05L84.744 255.05L84.264 255.05z" stroke="none" fill="#000000" fill-rule="evenodd" /><path transform="matrix(1 0 0 -1 0 841)" d="M84.744 254.57L291.884 254.57L291.884 254.57L291.884 255.05L291.884 255.05L84.744 255.05z" stroke="none" fill="#000000" fill-rule="evenodd" /><path transform="matrix(1 0 0 -1 0 841)" d="M291.89 254.57L292.37 254.57L292.37 254.57L292.37 255.05L292.37 255.05L291.89 255.05z" stroke="none" fill="#000000" fill-rule="evenodd" /><path transform="matrix(1 0 0 -1 0 841)" d="M292.37 254.57L499.42 254.57L499.42 254.57L499.42 255.05L499.42 255.05L292.37 255.05z" stroke="none" fill="#000000" fill-rule="evenodd" /><path transform="matrix(1 0 0 -1 0 841)" d="M499.42 254.57L499.9 254.57L499.9 254.57L499.9 255.05L499.9 255.05L499.42 255.05z" stroke="none" fill="#000000" fill-rule="evenodd" /><path transform="matrix(1 0 0 -1 0 841)" d="M499.42 254.57L499.9 254.57L499.9 254.57L499.9 255.05L499.9 255.05L499.42 255.05z" stroke="none" fill="#000000" fill-rule="evenodd" /><path transform="matrix(1 0 0 -1 0 841)" d="M84.264 235.49L84.744 235.49L84.744 235.49L84.744 254.57L84.744 254.57L84.264 254.57z" stroke="none" fill="#000000" fill-rule="evenodd" /><path transform="matrix(1 0 0 -1 0 841)" d="M291.89 235.49L292.37 235.49L292.37 235.49L292.37 254.57L292.37 254.57L291.89 254.57z" stroke="none" fill="#000000" fill-rule="evenodd" /><path transform="matrix(1 0 0 -1 0 841)" d="M499.42 235.49L499.9 235.49L499.9 235.49L499.9 254.57L499.9 254.57L499.42 254.57z" stroke="none" fill="#000000" fill-rule="evenodd" /><path transform="matrix(1 0 0 -1 0 841)" d="M84.744 177.86L291.764 177.86L291.764 177.86L291.764 235.004L291.764 235.004L84.744 235.004z" stroke="none" fill="#DAEEF3" fill-rule="evenodd" /><g clip-path="url(#102)"><path transform="matrix(1 0 0 -1 0 841)" d="M89.904 215.93L286.604 215.93L286.604 215.93L286.604 235.01L286.604 235.01L89.904 235.01z" stroke="none" fill="#DAEEF3" fill-rule="evenodd" /><g clip-path="url(#103)"></g><g clip-path="url(#104)"></g><g clip-path="url(#105)"></g><path transform="matrix(1 0 0 -1 0 841)" d="M89.904 196.85L286.604 196.85L286.604 196.85L286.604 215.93L286.604 215.93L89.904 215.93z" stroke="none" fill="#DAEEF3" fill-rule="evenodd" /><g clip-path="url(#106)"></g><g clip-path="url(#107)"></g><g clip-path="url(#108)"></g><path transform="matrix(1 0 0 -1 0 841)" d="M89.904 177.86L286.604 177.86L286.604 177.86L286.604 196.844L286.604 196.844L89.904 196.844z" stroke="none" fill="#DAEEF3" fill-rule="evenodd" /><g clip-path="url(#109)"></g><g clip-path="url(#110)"></g><g clip-path="url(#111)"></g></g><path transform="matrix(1 0 0 -1 0 841)" d="M292.25 177.86L499.42 177.86L499.42 177.86L499.42 235.004L499.42 235.004L292.25 235.004z" stroke="none" fill="#DAEEF3" fill-rule="evenodd" /><g clip-path="url(#112)"><path transform="matrix(1 0 0 -1 0 841)" d="M297.41 215.93L494.26 215.93L494.26 215.93L494.26 235.01L494.26 235.01L297.41 235.01z" stroke="none" fill="#DAEEF3" fill-rule="evenodd" /><g clip-path="url(#113)"></g><g clip-path="url(#114)"></g><g clip-path="url(#115)"></g><path transform="matrix(1 0 0 -1 0 841)" d="M297.41 196.85L494.26 196.85L494.26 196.85L494.26 215.93L494.26 215.93L297.41 215.93z" stroke="none" fill="#DAEEF3" fill-rule="evenodd" /><g clip-path="url(#116)"></g><g clip-path="url(#117)"></g><g clip-path="url(#118)"></g><path transform="matrix(1 0 0 -1 0 841)" d="M297.41 177.86L494.26 177.86L494.26 177.86L494.26 196.844L494.26 196.844L297.41 196.844z" stroke="none" fill="#DAEEF3" fill-rule="evenodd" /><g clip-path="url(#119)"></g><g clip-path="url(#120)"></g><g clip-path="url(#121)"></g><g clip-path="url(#122)"></g><g clip-path="url(#123)"></g><g clip-path="url(#124)"></g></g><path transform="matrix(1 0 0 -1 0 841)" d="M84.264 235.01L84.744 235.01L84.744 235.01L84.744 235.49L84.744 235.49L84.264 235.49z" stroke="none" fill="#000000" fill-rule="evenodd" /><path transform="matrix(1 0 0 -1 0 841)" d="M84.744 235.01L291.884 235.01L291.884 235.01L291.884 235.49L291.884 235.49L84.744 235.49z" stroke="none" fill="#000000" fill-rule="evenodd" /><path transform="matrix(1 0 0 -1 0 841)" d="M291.89 235.01L292.37 235.01L292.37 235.01L292.37 235.49L292.37 235.49L291.89 235.49z" stroke="none" fill="#000000" fill-rule="evenodd" /><path transform="matrix(1 0 0 -1 0 841)" d="M292.37 235.01L499.42 235.01L499.42 235.01L499.42 235.49L499.42 235.49L292.37 235.49z" stroke="none" fill="#000000" fill-rule="evenodd" /><path transform="matrix(1 0 0 -1 0 841)" d="M499.42 235.01L499.9 235.01L499.9 235.01L499.9 235.49L499.9 235.49L499.42 235.49z" stroke="none" fill="#000000" fill-rule="evenodd" /><path transform="matrix(1 0 0 -1 0 841)" d="M84.264 177.86L84.744 177.86L84.744 177.86L84.744 235.004L84.744 235.004L84.264 235.004z" stroke="none" fill="#000000" fill-rule="evenodd" /><path transform="matrix(1 0 0 -1 0 841)" d="M291.89 177.86L292.37 177.86L292.37 177.86L292.37 235.004L292.37 235.004L291.89 235.004z" stroke="none" fill="#000000" fill-rule="evenodd" /><path transform="matrix(1 0 0 -1 0 841)" d="M499.42 177.86L499.9 177.86L499.9 177.86L499.9 235.004L499.9 235.004L499.42 235.004z" stroke="none" fill="#000000" fill-rule="evenodd" /><g clip-path="url(#125)"><g clip-path="url(#126)"></g><g clip-path="url(#127)"></g><g clip-path="url(#128)"></g><g clip-path="url(#129)"></g><g clip-path="url(#130)"></g><g clip-path="url(#131)"></g><g clip-path="url(#132)"></g><g clip-path="url(#133)"></g><g clip-path="url(#134)"></g></g><path transform="matrix(1 0 0 -1 0 841)" d="M84.264 177.38L84.744 177.38L84.744 177.38L84.744 177.86L84.744 177.86L84.264 177.86z" stroke="none" fill="#000000" fill-rule="evenodd" /><path transform="matrix(1 0 0 -1 0 841)" d="M84.744 177.38L291.884 177.38L291.884 177.38L291.884 177.86L291.884 177.86L84.744 177.86z" stroke="none" fill="#000000" fill-rule="evenodd" /><path transform="matrix(1 0 0 -1 0 841)" d="M291.89 177.38L292.37 177.38L292.37 177.38L292.37 177.86L292.37 177.86L291.89 177.86z" stroke="none" fill="#000000" fill-rule="evenodd" /><path transform="matrix(1 0 0 -1 0 841)" d="M292.37 177.38L499.42 177.38L499.42 177.38L499.42 177.86L499.42 177.86L292.37 177.86z" stroke="none" fill="#000000" fill-rule="evenodd" /><path transform="matrix(1 0 0 -1 0 841)" d="M499.42 177.38L499.9 177.38L499.9 177.38L499.9 177.86L499.9 177.86L499.42 177.86z" stroke="none" fill="#000000" fill-rule="evenodd" /><path transform="matrix(1 0 0 -1 0 841)" d="M84.264 158.18L84.744 158.18L84.744 158.18L84.744 177.38L84.744 177.38L84.264 177.38z" stroke="none" fill="#000000" fill-rule="evenodd" /><path transform="matrix(1 0 0 -1 0 841)" d="M84.264 157.7L84.744 157.7L84.744 157.7L84.744 158.18L84.744 158.18L84.264 158.18z" stroke="none" fill="#000000" fill-rule="evenodd" /><path transform="matrix(1 0 0 -1 0 841)" d="M84.264 157.7L84.744 157.7L84.744 157.7L84.744 158.18L84.744 158.18L84.264 158.18z" stroke="none" fill="#000000" fill-rule="evenodd" /><path transform="matrix(1 0 0 -1 0 841)" d="M84.744 157.7L499.414 157.7L499.414 157.7L499.414 158.18L499.414 158.18L84.744 158.18z" stroke="none" fill="#000000" fill-rule="evenodd" /><path transform="matrix(1 0 0 -1 0 841)" d="M499.42 158.18L499.9 158.18L499.9 158.18L499.9 177.38L499.9 177.38L499.42 177.38z" stroke="none" fill="#000000" fill-rule="evenodd" /><path transform="matrix(1 0 0 -1 0 841)" d="M499.42 157.7L499.9 157.7L499.9 157.7L499.9 158.18L499.9 158.18L499.42 158.18z" stroke="none" fill="#000000" fill-rule="evenodd" /><path transform="matrix(1 0 0 -1 0 841)" d="M499.42 157.7L499.9 157.7L499.9 157.7L499.9 158.18L499.9 158.18L499.42 158.18z" stroke="none" fill="#000000" fill-rule="evenodd" /></g></g></g></svg>