<svg xmlns="http://www.w3.org/2000/svg" xmlns:xlink="http://www.w3.org/1999/xlink" id="body_30" preserveAspectRatio="xMinYMin meet" viewBox="0 0 793 1121"><defs><clipPath id="1"><path d="M0 841L0 -0.9199829L0 -0.9199829L595.32 -0.9199829L595.32 -0.9199829L595.32 841L595.32 841L0 841z" /></clipPath><clipPath id="2"><path d="M0.00125 841.0914L595.4112 841.0914L595.4112 841.0914L595.4112 -0.9186401L595.4112 -0.9186401L0.00125 -0.9186401z" /></clipPath><clipPath id="3"><path d="M295.13 780.251L305.21 780.251L305.21 780.251L305.21 768.011L305.21 768.011L295.13 768.011z" /></clipPath><clipPath id="4"><path d="M295.13 780.256L305.21 780.256L305.21 780.256L305.21 768.016L305.21 768.016L295.13 768.016z" /></clipPath><clipPath id="5"><path d="M295.13 780.256L305.21 780.256L305.21 780.256L305.21 768.016L305.21 768.016L295.13 768.016z" /></clipPath><clipPath id="6"><path d="M347.84 154.03L499.42 154.03L499.42 154.03L499.42 89.44006L499.42 89.44006L347.84 89.44006z" /></clipPath><clipPath id="7"><path d="M347.83 154.02L499.41 154.02L499.41 154.02L499.41 89.43604L499.41 89.43604L347.83 89.43604z" /></clipPath><clipPath id="8"><path d="M347.83 154.02L499.41 154.02L499.41 154.02L499.41 89.43604L499.41 89.43604L347.83 89.43604z" /></clipPath><clipPath id="9"><path d="M347.83 154.02L499.41 154.02L499.41 154.02L499.41 89.43604L499.41 89.43604L347.83 89.43604z" /></clipPath><clipPath id="10"><path d="M347.83 154.02L499.41 154.02L499.41 154.02L499.41 89.43604L499.41 89.43604L347.83 89.43604z" /></clipPath><clipPath id="11"><path d="M347.83 154.02L499.41 154.02L499.41 154.02L499.41 89.43604L499.41 89.43604L347.83 89.43604z" /></clipPath><clipPath id="12"><path d="M347.83 154.02L499.41 154.02L499.41 154.02L499.41 89.43604L499.41 89.43604L347.83 89.43604z" /></clipPath><clipPath id="13"><path d="M347.83 154.02L499.41 154.02L499.41 154.02L499.41 89.43604L499.41 89.43604L347.83 89.43604z" /></clipPath><clipPath id="14"><path d="M347.83 154.02L499.41 154.02L499.41 154.02L499.41 89.43604L499.41 89.43604L347.83 89.43604z" /></clipPath><clipPath id="15"><path d="M347.83 154.02L499.41 154.02L499.41 154.02L499.41 89.43604L499.41 89.43604L347.83 89.43604z" /></clipPath><clipPath id="16"><path d="M347.83 154.02L499.41 154.02L499.41 154.02L499.41 89.43604L499.41 89.43604L347.83 89.43604z" /></clipPath><clipPath id="17"><path d="M347.83 154.02L499.41 154.02L499.41 154.02L499.41 89.43604L499.41 89.43604L347.83 89.43604z" /></clipPath><clipPath id="18"><path d="M84.751 182.23L171.991 182.23L171.991 182.23L171.991 154.51L171.991 154.51L84.751 154.51z" /></clipPath><clipPath id="19"><path d="M84.744 182.22L171.984 182.22L171.984 182.22L171.984 154.5L171.984 154.5L84.744 154.5z" /></clipPath><clipPath id="20"><path d="M84.744 182.22L171.984 182.22L171.984 182.22L171.984 154.5L171.984 154.5L84.744 154.5z" /></clipPath><clipPath id="21"><path d="M172.59 182.23L221.325 182.23L221.325 182.23L221.325 154.51L221.325 154.51L172.59 154.51z" /></clipPath><clipPath id="22"><path d="M172.58 182.22L221.324 182.22L221.324 182.22L221.324 154.5L221.324 154.5L172.58 154.5z" /></clipPath><clipPath id="23"><path d="M172.58 182.22L221.324 182.22L221.324 182.22L221.324 154.5L221.324 154.5L172.58 154.5z" /></clipPath><clipPath id="24"><path d="M221.81 182.23L259.61 182.23L259.61 182.23L259.61 154.51L259.61 154.51L221.81 154.51z" /></clipPath><clipPath id="25"><path d="M221.81 182.22L259.61 182.22L259.61 182.22L259.61 154.5L259.61 154.5L221.81 154.5z" /></clipPath><clipPath id="26"><path d="M221.81 182.22L259.61 182.22L259.61 182.22L259.61 154.5L259.61 154.5L221.81 154.5z" /></clipPath><clipPath id="27"><path d="M260.09 182.23L347.36 182.23L347.36 182.23L347.36 154.51L347.36 154.51L260.09 154.51z" /></clipPath><clipPath id="28"><path d="M260.09 182.22L347.354 182.22L347.354 182.22L347.354 154.5L347.354 154.5L260.09 154.5z" /></clipPath><clipPath id="29"><path d="M260.09 182.22L347.354 182.22L347.354 182.22L347.354 154.5L347.354 154.5L260.09 154.5z" /></clipPath><clipPath id="30"><path d="M347.84 182.23L499.42 182.23L499.42 182.23L499.42 154.51L499.42 154.51L347.84 154.51z" /></clipPath><clipPath id="31"><path d="M347.83 182.22L499.41 182.22L499.41 182.22L499.41 154.5L499.41 154.5L347.83 154.5z" /></clipPath><clipPath id="32"><path d="M347.83 182.22L499.41 182.22L499.41 182.22L499.41 154.5L499.41 154.5L347.83 154.5z" /></clipPath><clipPath id="33"><path d="M347.83 182.22L499.41 182.22L499.41 182.22L499.41 154.5L499.41 154.5L347.83 154.5z" /></clipPath><clipPath id="34"><path d="M84.751 210.43L171.991 210.43L171.991 210.43L171.991 182.71L171.991 182.71L84.751 182.71z" /></clipPath><clipPath id="35"><path d="M84.744 210.42L171.984 210.42L171.984 210.42L171.984 182.7L171.984 182.7L84.744 182.7z" /></clipPath><clipPath id="36"><path d="M84.744 210.42L171.984 210.42L171.984 210.42L171.984 182.7L171.984 182.7L84.744 182.7z" /></clipPath><clipPath id="37"><path d="M172.59 210.43L221.325 210.43L221.325 210.43L221.325 182.71L221.325 182.71L172.59 182.71z" /></clipPath><clipPath id="38"><path d="M172.58 210.42L221.324 210.42L221.324 210.42L221.324 182.7L221.324 182.7L172.58 182.7z" /></clipPath><clipPath id="39"><path d="M172.58 210.42L221.324 210.42L221.324 210.42L221.324 182.7L221.324 182.7L172.58 182.7z" /></clipPath><clipPath id="40"><path d="M221.81 210.43L259.61 210.43L259.61 210.43L259.61 182.71L259.61 182.71L221.81 182.71z" /></clipPath><clipPath id="41"><path d="M221.81 210.42L259.61 210.42L259.61 210.42L259.61 182.7L259.61 182.7L221.81 182.7z" /></clipPath><clipPath id="42"><path d="M221.81 210.42L259.61 210.42L259.61 210.42L259.61 182.7L259.61 182.7L221.81 182.7z" /></clipPath><clipPath id="43"><path d="M260.09 210.43L347.36 210.43L347.36 210.43L347.36 182.71L347.36 182.71L260.09 182.71z" /></clipPath><clipPath id="44"><path d="M260.09 210.42L347.354 210.42L347.354 210.42L347.354 182.7L347.354 182.7L260.09 182.7z" /></clipPath><clipPath id="45"><path d="M260.09 210.42L347.354 210.42L347.354 210.42L347.354 182.7L347.354 182.7L260.09 182.7z" /></clipPath><clipPath id="46"><path d="M347.84 210.43L499.42 210.43L499.42 210.43L499.42 182.71L499.42 182.71L347.84 182.71z" /></clipPath><clipPath id="47"><path d="M347.83 210.42L499.41 210.42L499.41 210.42L499.41 182.7L499.41 182.7L347.83 182.7z" /></clipPath><clipPath id="48"><path d="M347.83 210.42L499.41 210.42L499.41 210.42L499.41 182.7L499.41 182.7L347.83 182.7z" /></clipPath><clipPath id="49"><path d="M347.83 210.42L499.41 210.42L499.41 210.42L499.41 182.7L499.41 182.7L347.83 182.7z" /></clipPath><clipPath id="50"><path d="M347.83 210.42L499.41 210.42L499.41 210.42L499.41 182.7L499.41 182.7L347.83 182.7z" /></clipPath><clipPath id="51"><path d="M84.751 256.63L171.991 256.63L171.991 256.63L171.991 210.91L171.991 210.91L84.751 210.91z" /></clipPath><clipPath id="52"><path d="M84.744 256.62L171.984 256.62L171.984 256.62L171.984 210.9L171.984 210.9L84.744 210.9z" /></clipPath><clipPath id="53"><path d="M84.744 256.62L171.984 256.62L171.984 256.62L171.984 210.9L171.984 210.9L84.744 210.9z" /></clipPath><clipPath id="54"><path d="M172.59 256.63L221.325 256.63L221.325 256.63L221.325 210.91L221.325 210.91L172.59 210.91z" /></clipPath><clipPath id="55"><path d="M172.58 256.62L221.324 256.62L221.324 256.62L221.324 210.9L221.324 210.9L172.58 210.9z" /></clipPath><clipPath id="56"><path d="M172.58 256.62L221.324 256.62L221.324 256.62L221.324 210.9L221.324 210.9L172.58 210.9z" /></clipPath><clipPath id="57"><path d="M221.81 256.63L259.61 256.63L259.61 256.63L259.61 210.91L259.61 210.91L221.81 210.91z" /></clipPath><clipPath id="58"><path d="M221.81 256.62L259.61 256.62L259.61 256.62L259.61 210.9L259.61 210.9L221.81 210.9z" /></clipPath><clipPath id="59"><path d="M221.81 256.62L259.61 256.62L259.61 256.62L259.61 210.9L259.61 210.9L221.81 210.9z" /></clipPath><clipPath id="60"><path d="M260.09 256.63L347.36 256.63L347.36 256.63L347.36 210.91L347.36 210.91L260.09 210.91z" /></clipPath><clipPath id="61"><path d="M260.09 256.62L347.354 256.62L347.354 256.62L347.354 210.9L347.354 210.9L260.09 210.9z" /></clipPath><clipPath id="62"><path d="M347.84 256.63L499.42 256.63L499.42 256.63L499.42 210.91L499.42 210.91L347.84 210.91z" /></clipPath><clipPath id="63"><path d="M347.83 256.62L499.41 256.62L499.41 256.62L499.41 210.9L499.41 210.9L347.83 210.9z" /></clipPath><clipPath id="64"><path d="M347.83 256.62L499.41 256.62L499.41 256.62L499.41 210.9L499.41 210.9L347.83 210.9z" /></clipPath><clipPath id="65"><path d="M347.83 256.62L499.41 256.62L499.41 256.62L499.41 210.9L499.41 210.9L347.83 210.9z" /></clipPath><clipPath id="66"><path d="M347.83 256.62L499.41 256.62L499.41 256.62L499.41 210.9L499.41 210.9L347.83 210.9z" /></clipPath><clipPath id="67"><path d="M347.83 256.62L499.41 256.62L499.41 256.62L499.41 210.9L499.41 210.9L347.83 210.9z" /></clipPath></defs><g transform="matrix(1.333333 0 0 1.333333 0 0)"><g><g clip-path="url(#1)"><path transform="matrix(1 0 0 -1 0 841)" d="M457.63 53.424L505.534 53.424L505.534 53.424L505.534 54.02404L505.534 54.02404L457.63 54.02404z" stroke="none" fill="#000000" fill-rule="evenodd" /><g clip-path="url(#2)"><path transform="matrix(1 0 0 -1 0 841)" d="M88.464 78.984L506.974 78.984L506.974 78.984L506.974 81.984L506.974 81.984L88.464 81.984z" stroke="none" fill="#000000" fill-rule="evenodd" /><path transform="matrix(1 0 0 -1 0 841)" d="M88.464 77.544L506.974 77.544L506.974 77.544L506.974 78.26397L506.974 78.26397L88.464 78.26397z" stroke="none" fill="#000000" fill-rule="evenodd" /></g><g clip-path="url(#3)"><g clip-path="url(#4)"></g><g clip-path="url(#5)"></g></g><g clip-path="url(#6)"><g clip-path="url(#7)"></g><g clip-path="url(#8)"></g><g clip-path="url(#9)"></g><g clip-path="url(#10)"></g><g clip-path="url(#11)"></g><g clip-path="url(#12)"></g><g clip-path="url(#13)"></g><g clip-path="url(#14)"></g><path transform="matrix(1 0 0 -1 0 841)" d="M450.19 712.78L494.254 712.78L494.254 712.78L494.254 713.5L494.254 713.5L450.19 713.5z" stroke="none" fill="#548DD4" fill-rule="evenodd" /><g clip-path="url(#15)"></g><g clip-path="url(#16)"></g><g clip-path="url(#17)"></g><path transform="matrix(1 0 0 -1 0 841)" d="M358.99 693.7L373.03 693.7L373.03 693.7L373.03 694.42L373.03 694.42L358.99 694.42z" stroke="none" fill="#548DD4" fill-rule="evenodd" /></g><path transform="matrix(1 0 0 -1 0 841)" d="M84.264 751.56L84.744 751.56L84.744 751.56L84.744 752.04L84.744 752.04L84.264 752.04z" stroke="none" fill="#000000" fill-rule="evenodd" /><path transform="matrix(1 0 0 -1 0 841)" d="M84.264 751.56L84.744 751.56L84.744 751.56L84.744 752.04L84.744 752.04L84.264 752.04z" stroke="none" fill="#000000" fill-rule="evenodd" /><path transform="matrix(1 0 0 -1 0 841)" d="M84.744 751.56L172.104 751.56L172.104 751.56L172.104 752.04L172.104 752.04L84.744 752.04z" stroke="none" fill="#000000" fill-rule="evenodd" /><path transform="matrix(1 0 0 -1 0 841)" d="M172.1 751.56L172.58 751.56L172.58 751.56L172.58 752.04L172.58 752.04L172.1 752.04z" stroke="none" fill="#000000" fill-rule="evenodd" /><path transform="matrix(1 0 0 -1 0 841)" d="M172.58 751.56L221.444 751.56L221.444 751.56L221.444 752.04L221.444 752.04L172.58 752.04z" stroke="none" fill="#000000" fill-rule="evenodd" /><path transform="matrix(1 0 0 -1 0 841)" d="M221.45 751.56L221.93 751.56L221.93 751.56L221.93 752.04L221.93 752.04L221.45 752.04z" stroke="none" fill="#000000" fill-rule="evenodd" /><path transform="matrix(1 0 0 -1 0 841)" d="M221.93 751.56L259.61 751.56L259.61 751.56L259.61 752.04L259.61 752.04L221.93 752.04z" stroke="none" fill="#000000" fill-rule="evenodd" /><path transform="matrix(1 0 0 -1 0 841)" d="M259.61 751.56L260.09 751.56L260.09 751.56L260.09 752.04L260.09 752.04L259.61 752.04z" stroke="none" fill="#000000" fill-rule="evenodd" /><path transform="matrix(1 0 0 -1 0 841)" d="M260.09 751.56L347.474 751.56L347.474 751.56L347.474 752.04L347.474 752.04L260.09 752.04z" stroke="none" fill="#000000" fill-rule="evenodd" /><path transform="matrix(1 0 0 -1 0 841)" d="M347.47 751.56L347.95 751.56L347.95 751.56L347.95 752.04L347.95 752.04L347.47 752.04z" stroke="none" fill="#000000" fill-rule="evenodd" /><path transform="matrix(1 0 0 -1 0 841)" d="M347.95 751.56L499.41 751.56L499.41 751.56L499.41 752.04L499.41 752.04L347.95 752.04z" stroke="none" fill="#000000" fill-rule="evenodd" /><path transform="matrix(1 0 0 -1 0 841)" d="M499.42 751.56L499.9 751.56L499.9 751.56L499.9 752.04L499.9 752.04L499.42 752.04z" stroke="none" fill="#000000" fill-rule="evenodd" /><path transform="matrix(1 0 0 -1 0 841)" d="M499.42 751.56L499.9 751.56L499.9 751.56L499.9 752.04L499.9 752.04L499.42 752.04z" stroke="none" fill="#000000" fill-rule="evenodd" /><path transform="matrix(1 0 0 -1 0 841)" d="M84.264 686.98L84.744 686.98L84.744 686.98L84.744 751.564L84.744 751.564L84.264 751.564z" stroke="none" fill="#000000" fill-rule="evenodd" /><path transform="matrix(1 0 0 -1 0 841)" d="M172.1 686.98L172.58 686.98L172.58 686.98L172.58 751.564L172.58 751.564L172.1 751.564z" stroke="none" fill="#000000" fill-rule="evenodd" /><path transform="matrix(1 0 0 -1 0 841)" d="M221.45 686.98L221.93 686.98L221.93 686.98L221.93 751.564L221.93 751.564L221.45 751.564z" stroke="none" fill="#000000" fill-rule="evenodd" /><path transform="matrix(1 0 0 -1 0 841)" d="M259.61 686.98L260.09 686.98L260.09 686.98L260.09 751.564L260.09 751.564L259.61 751.564z" stroke="none" fill="#000000" fill-rule="evenodd" /><path transform="matrix(1 0 0 -1 0 841)" d="M347.47 686.98L347.95 686.98L347.95 686.98L347.95 751.564L347.95 751.564L347.47 751.564z" stroke="none" fill="#000000" fill-rule="evenodd" /><path transform="matrix(1 0 0 -1 0 841)" d="M499.42 686.98L499.9 686.98L499.9 686.98L499.9 751.564L499.9 751.564L499.42 751.564z" stroke="none" fill="#000000" fill-rule="evenodd" /><path transform="matrix(1 0 0 -1 0 841)" d="M84.744 658.78L171.984 658.78L171.984 658.78L171.984 686.5L171.984 686.5L84.744 686.5z" stroke="none" fill="#DAEEF3" fill-rule="evenodd" /><g clip-path="url(#18)"><path transform="matrix(1 0 0 -1 0 841)" d="M89.904 659.86L166.824 659.86L166.824 659.86L166.824 686.5L166.824 686.5L89.904 686.5z" stroke="none" fill="#DAEEF3" fill-rule="evenodd" /><g clip-path="url(#19)"></g><g clip-path="url(#20)"></g></g><path transform="matrix(1 0 0 -1 0 841)" d="M172.58 658.78L221.324 658.78L221.324 658.78L221.324 686.5L221.324 686.5L172.58 686.5z" stroke="none" fill="#DAEEF3" fill-rule="evenodd" /><g clip-path="url(#21)"><path transform="matrix(1 0 0 -1 0 841)" d="M177.62 659.86L216.164 659.86L216.164 659.86L216.164 686.5L216.164 686.5L177.62 686.5z" stroke="none" fill="#DAEEF3" fill-rule="evenodd" /><g clip-path="url(#22)"></g><g clip-path="url(#23)"></g></g><path transform="matrix(1 0 0 -1 0 841)" d="M221.81 658.78L259.61 658.78L259.61 658.78L259.61 686.5L259.61 686.5L221.81 686.5z" stroke="none" fill="#DAEEF3" fill-rule="evenodd" /><g clip-path="url(#24)"><path transform="matrix(1 0 0 -1 0 841)" d="M226.97 658.78L254.45 658.78L254.45 658.78L254.45 686.5L254.45 686.5L226.97 686.5z" stroke="none" fill="#DAEEF3" fill-rule="evenodd" /><g clip-path="url(#25)"></g><g clip-path="url(#26)"></g></g><path transform="matrix(1 0 0 -1 0 841)" d="M260.09 658.78L347.354 658.78L347.354 658.78L347.354 686.5L347.354 686.5L260.09 686.5z" stroke="none" fill="#DAEEF3" fill-rule="evenodd" /><g clip-path="url(#27)"><path transform="matrix(1 0 0 -1 0 841)" d="M265.25 659.86L342.194 659.86L342.194 659.86L342.194 686.5L342.194 686.5L265.25 686.5z" stroke="none" fill="#DAEEF3" fill-rule="evenodd" /><g clip-path="url(#28)"></g><g clip-path="url(#29)"></g></g><path transform="matrix(1 0 0 -1 0 841)" d="M347.83 658.78L499.41 658.78L499.41 658.78L499.41 686.5L499.41 686.5L347.83 686.5z" stroke="none" fill="#DAEEF3" fill-rule="evenodd" /><g clip-path="url(#30)"><path transform="matrix(1 0 0 -1 0 841)" d="M352.99 658.78L494.25 658.78L494.25 658.78L494.25 686.5L494.25 686.5L352.99 686.5z" stroke="none" fill="#DAEEF3" fill-rule="evenodd" /><g clip-path="url(#31)"></g><g clip-path="url(#32)"></g><g clip-path="url(#33)"></g></g><path transform="matrix(1 0 0 -1 0 841)" d="M84.264 686.5L84.744 686.5L84.744 686.5L84.744 686.98L84.744 686.98L84.264 686.98z" stroke="none" fill="#000000" fill-rule="evenodd" /><path transform="matrix(1 0 0 -1 0 841)" d="M84.744 686.5L172.104 686.5L172.104 686.5L172.104 686.98L172.104 686.98L84.744 686.98z" stroke="none" fill="#000000" fill-rule="evenodd" /><path transform="matrix(1 0 0 -1 0 841)" d="M172.1 686.5L172.58 686.5L172.58 686.5L172.58 686.98L172.58 686.98L172.1 686.98z" stroke="none" fill="#000000" fill-rule="evenodd" /><path transform="matrix(1 0 0 -1 0 841)" d="M172.58 686.5L221.444 686.5L221.444 686.5L221.444 686.98L221.444 686.98L172.58 686.98z" stroke="none" fill="#000000" fill-rule="evenodd" /><path transform="matrix(1 0 0 -1 0 841)" d="M221.45 686.5L221.93 686.5L221.93 686.5L221.93 686.98L221.93 686.98L221.45 686.98z" stroke="none" fill="#000000" fill-rule="evenodd" /><path transform="matrix(1 0 0 -1 0 841)" d="M221.93 686.5L259.61 686.5L259.61 686.5L259.61 686.98L259.61 686.98L221.93 686.98z" stroke="none" fill="#000000" fill-rule="evenodd" /><path transform="matrix(1 0 0 -1 0 841)" d="M259.61 686.5L260.09 686.5L260.09 686.5L260.09 686.98L260.09 686.98L259.61 686.98z" stroke="none" fill="#000000" fill-rule="evenodd" /><path transform="matrix(1 0 0 -1 0 841)" d="M260.09 686.5L347.474 686.5L347.474 686.5L347.474 686.98L347.474 686.98L260.09 686.98z" stroke="none" fill="#000000" fill-rule="evenodd" /><path transform="matrix(1 0 0 -1 0 841)" d="M347.47 686.5L347.95 686.5L347.95 686.5L347.95 686.98L347.95 686.98L347.47 686.98z" stroke="none" fill="#000000" fill-rule="evenodd" /><path transform="matrix(1 0 0 -1 0 841)" d="M347.95 686.5L499.41 686.5L499.41 686.5L499.41 686.98L499.41 686.98L347.95 686.98z" stroke="none" fill="#000000" fill-rule="evenodd" /><path transform="matrix(1 0 0 -1 0 841)" d="M499.42 686.5L499.9 686.5L499.9 686.5L499.9 686.98L499.9 686.98L499.42 686.98z" stroke="none" fill="#000000" fill-rule="evenodd" /><path transform="matrix(1 0 0 -1 0 841)" d="M84.264 658.78L84.744 658.78L84.744 658.78L84.744 686.5L84.744 686.5L84.264 686.5z" stroke="none" fill="#000000" fill-rule="evenodd" /><path transform="matrix(1 0 0 -1 0 841)" d="M172.1 658.78L172.58 658.78L172.58 658.78L172.58 686.5L172.58 686.5L172.1 686.5z" stroke="none" fill="#000000" fill-rule="evenodd" /><path transform="matrix(1 0 0 -1 0 841)" d="M221.45 658.78L221.93 658.78L221.93 658.78L221.93 686.5L221.93 686.5L221.45 686.5z" stroke="none" fill="#000000" fill-rule="evenodd" /><path transform="matrix(1 0 0 -1 0 841)" d="M259.61 658.78L260.09 658.78L260.09 658.78L260.09 686.5L260.09 686.5L259.61 686.5z" stroke="none" fill="#000000" fill-rule="evenodd" /><path transform="matrix(1 0 0 -1 0 841)" d="M347.47 658.78L347.95 658.78L347.95 658.78L347.95 686.5L347.95 686.5L347.47 686.5z" stroke="none" fill="#000000" fill-rule="evenodd" /><path transform="matrix(1 0 0 -1 0 841)" d="M499.42 658.78L499.9 658.78L499.9 658.78L499.9 686.5L499.9 686.5L499.42 686.5z" stroke="none" fill="#000000" fill-rule="evenodd" /><g clip-path="url(#34)"><g clip-path="url(#35)"></g><g clip-path="url(#36)"></g></g><g clip-path="url(#37)"><g clip-path="url(#38)"></g><g clip-path="url(#39)"></g></g><g clip-path="url(#40)"><g clip-path="url(#41)"></g><g clip-path="url(#42)"></g></g><g clip-path="url(#43)"><g clip-path="url(#44)"></g><g clip-path="url(#45)"></g></g><g clip-path="url(#46)"><g clip-path="url(#47)"></g><g clip-path="url(#48)"></g><g clip-path="url(#49)"></g><g clip-path="url(#50)"></g></g><path transform="matrix(1 0 0 -1 0 841)" d="M84.264 658.3L84.744 658.3L84.744 658.3L84.744 658.78L84.744 658.78L84.264 658.78z" stroke="none" fill="#000000" fill-rule="evenodd" /><path transform="matrix(1 0 0 -1 0 841)" d="M84.744 658.3L172.104 658.3L172.104 658.3L172.104 658.78L172.104 658.78L84.744 658.78z" stroke="none" fill="#000000" fill-rule="evenodd" /><path transform="matrix(1 0 0 -1 0 841)" d="M172.1 658.3L172.58 658.3L172.58 658.3L172.58 658.78L172.58 658.78L172.1 658.78z" stroke="none" fill="#000000" fill-rule="evenodd" /><path transform="matrix(1 0 0 -1 0 841)" d="M172.58 658.3L221.444 658.3L221.444 658.3L221.444 658.78L221.444 658.78L172.58 658.78z" stroke="none" fill="#000000" fill-rule="evenodd" /><path transform="matrix(1 0 0 -1 0 841)" d="M221.45 658.3L221.93 658.3L221.93 658.3L221.93 658.78L221.93 658.78L221.45 658.78z" stroke="none" fill="#000000" fill-rule="evenodd" /><path transform="matrix(1 0 0 -1 0 841)" d="M221.93 658.3L259.61 658.3L259.61 658.3L259.61 658.78L259.61 658.78L221.93 658.78z" stroke="none" fill="#000000" fill-rule="evenodd" /><path transform="matrix(1 0 0 -1 0 841)" d="M259.61 658.3L260.09 658.3L260.09 658.3L260.09 658.78L260.09 658.78L259.61 658.78z" stroke="none" fill="#000000" fill-rule="evenodd" /><path transform="matrix(1 0 0 -1 0 841)" d="M260.09 658.3L347.474 658.3L347.474 658.3L347.474 658.78L347.474 658.78L260.09 658.78z" stroke="none" fill="#000000" fill-rule="evenodd" /><path transform="matrix(1 0 0 -1 0 841)" d="M347.47 658.3L347.95 658.3L347.95 658.3L347.95 658.78L347.95 658.78L347.47 658.78z" stroke="none" fill="#000000" fill-rule="evenodd" /><path transform="matrix(1 0 0 -1 0 841)" d="M347.95 658.3L499.41 658.3L499.41 658.3L499.41 658.78L499.41 658.78L347.95 658.78z" stroke="none" fill="#000000" fill-rule="evenodd" /><path transform="matrix(1 0 0 -1 0 841)" d="M499.42 658.3L499.9 658.3L499.9 658.3L499.9 658.78L499.9 658.78L499.42 658.78z" stroke="none" fill="#000000" fill-rule="evenodd" /><path transform="matrix(1 0 0 -1 0 841)" d="M84.264 630.58L84.744 630.58L84.744 630.58L84.744 658.3L84.744 658.3L84.264 658.3z" stroke="none" fill="#000000" fill-rule="evenodd" /><path transform="matrix(1 0 0 -1 0 841)" d="M172.1 630.58L172.58 630.58L172.58 630.58L172.58 658.3L172.58 658.3L172.1 658.3z" stroke="none" fill="#000000" fill-rule="evenodd" /><path transform="matrix(1 0 0 -1 0 841)" d="M221.45 630.58L221.93 630.58L221.93 630.58L221.93 658.3L221.93 658.3L221.45 658.3z" stroke="none" fill="#000000" fill-rule="evenodd" /><path transform="matrix(1 0 0 -1 0 841)" d="M259.61 630.58L260.09 630.58L260.09 630.58L260.09 658.3L260.09 658.3L259.61 658.3z" stroke="none" fill="#000000" fill-rule="evenodd" /><path transform="matrix(1 0 0 -1 0 841)" d="M347.47 630.58L347.95 630.58L347.95 630.58L347.95 658.3L347.95 658.3L347.47 658.3z" stroke="none" fill="#000000" fill-rule="evenodd" /><path transform="matrix(1 0 0 -1 0 841)" d="M499.42 630.58L499.9 630.58L499.9 630.58L499.9 658.3L499.9 658.3L499.42 658.3z" stroke="none" fill="#000000" fill-rule="evenodd" /><path transform="matrix(1 0 0 -1 0 841)" d="M84.744 584.38L171.984 584.38L171.984 584.38L171.984 630.1L171.984 630.1L84.744 630.1z" stroke="none" fill="#DAEEF3" fill-rule="evenodd" /><g clip-path="url(#51)"><path transform="matrix(1 0 0 -1 0 841)" d="M89.904 603.58L166.824 603.58L166.824 603.58L166.824 630.1L166.824 630.1L89.904 630.1z" stroke="none" fill="#DAEEF3" fill-rule="evenodd" /><g clip-path="url(#52)"></g><g clip-path="url(#53)"></g></g><path transform="matrix(1 0 0 -1 0 841)" d="M172.58 584.38L221.324 584.38L221.324 584.38L221.324 630.1L221.324 630.1L172.58 630.1z" stroke="none" fill="#DAEEF3" fill-rule="evenodd" /><g clip-path="url(#54)"><path transform="matrix(1 0 0 -1 0 841)" d="M177.62 603.58L216.164 603.58L216.164 603.58L216.164 630.1L216.164 630.1L177.62 630.1z" stroke="none" fill="#DAEEF3" fill-rule="evenodd" /><g clip-path="url(#55)"></g><g clip-path="url(#56)"></g></g><path transform="matrix(1 0 0 -1 0 841)" d="M221.81 584.38L259.61 584.38L259.61 584.38L259.61 630.1L259.61 630.1L221.81 630.1z" stroke="none" fill="#DAEEF3" fill-rule="evenodd" /><g clip-path="url(#57)"><path transform="matrix(1 0 0 -1 0 841)" d="M226.97 602.5L254.45 602.5L254.45 602.5L254.45 630.1L254.45 630.1L226.97 630.1z" stroke="none" fill="#DAEEF3" fill-rule="evenodd" /><g clip-path="url(#58)"></g><g clip-path="url(#59)"></g></g><path transform="matrix(1 0 0 -1 0 841)" d="M260.09 584.38L347.354 584.38L347.354 584.38L347.354 630.1L347.354 630.1L260.09 630.1z" stroke="none" fill="#DAEEF3" fill-rule="evenodd" /><g clip-path="url(#60)"><path transform="matrix(1 0 0 -1 0 841)" d="M265.25 603.58L342.194 603.58L342.194 603.58L342.194 630.1L342.194 630.1L265.25 630.1z" stroke="none" fill="#DAEEF3" fill-rule="evenodd" /><g clip-path="url(#61)"></g></g><path transform="matrix(1 0 0 -1 0 841)" d="M347.83 584.38L499.41 584.38L499.41 584.38L499.41 630.1L499.41 630.1L347.83 630.1z" stroke="none" fill="#DAEEF3" fill-rule="evenodd" /><g clip-path="url(#62)"><path transform="matrix(1 0 0 -1 0 841)" d="M352.99 607.18L494.25 607.18L494.25 607.18L494.25 630.1L494.25 630.1L352.99 630.1z" stroke="none" fill="#DAEEF3" fill-rule="evenodd" /><g clip-path="url(#63)"></g><g clip-path="url(#64)"></g><path transform="matrix(1 0 0 -1 0 841)" d="M352.99 584.38L494.25 584.38L494.25 584.38L494.25 607.18L494.25 607.18L352.99 607.18z" stroke="none" fill="#DAEEF3" fill-rule="evenodd" /><g clip-path="url(#65)"></g><g clip-path="url(#66)"></g><g clip-path="url(#67)"></g></g><path transform="matrix(1 0 0 -1 0 841)" d="M84.264 630.1L84.744 630.1L84.744 630.1L84.744 630.58L84.744 630.58L84.264 630.58z" stroke="none" fill="#000000" fill-rule="evenodd" /><path transform="matrix(1 0 0 -1 0 841)" d="M84.744 630.1L172.104 630.1L172.104 630.1L172.104 630.58L172.104 630.58L84.744 630.58z" stroke="none" fill="#000000" fill-rule="evenodd" /><path transform="matrix(1 0 0 -1 0 841)" d="M172.1 630.1L172.58 630.1L172.58 630.1L172.58 630.58L172.58 630.58L172.1 630.58z" stroke="none" fill="#000000" fill-rule="evenodd" /><path transform="matrix(1 0 0 -1 0 841)" d="M172.58 630.1L221.444 630.1L221.444 630.1L221.444 630.58L221.444 630.58L172.58 630.58z" stroke="none" fill="#000000" fill-rule="evenodd" /><path transform="matrix(1 0 0 -1 0 841)" d="M221.45 630.1L221.93 630.1L221.93 630.1L221.93 630.58L221.93 630.58L221.45 630.58z" stroke="none" fill="#000000" fill-rule="evenodd" /><path transform="matrix(1 0 0 -1 0 841)" d="M221.93 630.1L259.61 630.1L259.61 630.1L259.61 630.58L259.61 630.58L221.93 630.58z" stroke="none" fill="#000000" fill-rule="evenodd" /><path transform="matrix(1 0 0 -1 0 841)" d="M259.61 630.1L260.09 630.1L260.09 630.1L260.09 630.58L260.09 630.58L259.61 630.58z" stroke="none" fill="#000000" fill-rule="evenodd" /><path transform="matrix(1 0 0 -1 0 841)" d="M260.09 630.1L347.474 630.1L347.474 630.1L347.474 630.58L347.474 630.58L260.09 630.58z" stroke="none" fill="#000000" fill-rule="evenodd" /><path transform="matrix(1 0 0 -1 0 841)" d="M347.47 630.1L347.95 630.1L347.95 630.1L347.95 630.58L347.95 630.58L347.47 630.58z" stroke="none" fill="#000000" fill-rule="evenodd" /><path transform="matrix(1 0 0 -1 0 841)" d="M347.95 630.1L499.41 630.1L499.41 630.1L499.41 630.58L499.41 630.58L347.95 630.58z" stroke="none" fill="#000000" fill-rule="evenodd" /><path transform="matrix(1 0 0 -1 0 841)" d="M499.42 630.1L499.9 630.1L499.9 630.1L499.9 630.58L499.9 630.58L499.42 630.58z" stroke="none" fill="#000000" fill-rule="evenodd" /><path transform="matrix(1 0 0 -1 0 841)" d="M84.264 584.26L84.744 584.26L84.744 584.26L84.744 630.1L84.744 630.1L84.264 630.1z" stroke="none" fill="#000000" fill-rule="evenodd" /><path transform="matrix(1 0 0 -1 0 841)" d="M84.264 583.78L84.744 583.78L84.744 583.78L84.744 584.26L84.744 584.26L84.264 584.26z" stroke="none" fill="#000000" fill-rule="evenodd" /><path transform="matrix(1 0 0 -1 0 841)" d="M84.264 583.78L84.744 583.78L84.744 583.78L84.744 584.26L84.744 584.26L84.264 584.26z" stroke="none" fill="#000000" fill-rule="evenodd" /><path transform="matrix(1 0 0 -1 0 841)" d="M84.744 583.78L172.104 583.78L172.104 583.78L172.104 584.26L172.104 584.26L84.744 584.26z" stroke="none" fill="#000000" fill-rule="evenodd" /><path transform="matrix(1 0 0 -1 0 841)" d="M172.1 584.26L172.58 584.26L172.58 584.26L172.58 630.1L172.58 630.1L172.1 630.1z" stroke="none" fill="#000000" fill-rule="evenodd" /><path transform="matrix(1 0 0 -1 0 841)" d="M172.1 583.78L172.58 583.78L172.58 583.78L172.58 584.26L172.58 584.26L172.1 584.26z" stroke="none" fill="#000000" fill-rule="evenodd" /><path transform="matrix(1 0 0 -1 0 841)" d="M172.58 583.78L221.444 583.78L221.444 583.78L221.444 584.26L221.444 584.26L172.58 584.26z" stroke="none" fill="#000000" fill-rule="evenodd" /><path transform="matrix(1 0 0 -1 0 841)" d="M221.45 584.26L221.93 584.26L221.93 584.26L221.93 630.1L221.93 630.1L221.45 630.1z" stroke="none" fill="#000000" fill-rule="evenodd" /><path transform="matrix(1 0 0 -1 0 841)" d="M221.45 583.78L221.93 583.78L221.93 583.78L221.93 584.26L221.93 584.26L221.45 584.26z" stroke="none" fill="#000000" fill-rule="evenodd" /><path transform="matrix(1 0 0 -1 0 841)" d="M221.93 583.78L259.61 583.78L259.61 583.78L259.61 584.26L259.61 584.26L221.93 584.26z" stroke="none" fill="#000000" fill-rule="evenodd" /><path transform="matrix(1 0 0 -1 0 841)" d="M259.61 584.26L260.09 584.26L260.09 584.26L260.09 630.1L260.09 630.1L259.61 630.1z" stroke="none" fill="#000000" fill-rule="evenodd" /><path transform="matrix(1 0 0 -1 0 841)" d="M259.61 583.78L260.09 583.78L260.09 583.78L260.09 584.26L260.09 584.26L259.61 584.26z" stroke="none" fill="#000000" fill-rule="evenodd" /><path transform="matrix(1 0 0 -1 0 841)" d="M260.09 583.78L347.474 583.78L347.474 583.78L347.474 584.26L347.474 584.26L260.09 584.26z" stroke="none" fill="#000000" fill-rule="evenodd" /><path transform="matrix(1 0 0 -1 0 841)" d="M347.47 584.26L347.95 584.26L347.95 584.26L347.95 630.1L347.95 630.1L347.47 630.1z" stroke="none" fill="#000000" fill-rule="evenodd" /><path transform="matrix(1 0 0 -1 0 841)" d="M347.47 583.78L347.95 583.78L347.95 583.78L347.95 584.26L347.95 584.26L347.47 584.26z" stroke="none" fill="#000000" fill-rule="evenodd" /><path transform="matrix(1 0 0 -1 0 841)" d="M347.95 583.78L499.41 583.78L499.41 583.78L499.41 584.26L499.41 584.26L347.95 584.26z" stroke="none" fill="#000000" fill-rule="evenodd" /><path transform="matrix(1 0 0 -1 0 841)" d="M499.42 584.26L499.9 584.26L499.9 584.26L499.9 630.1L499.9 630.1L499.42 630.1z" stroke="none" fill="#000000" fill-rule="evenodd" /><path transform="matrix(1 0 0 -1 0 841)" d="M499.42 583.78L499.9 583.78L499.9 583.78L499.9 584.26L499.9 584.26L499.42 584.26z" stroke="none" fill="#000000" fill-rule="evenodd" /><path transform="matrix(1 0 0 -1 0 841)" d="M499.42 583.78L499.9 583.78L499.9 583.78L499.9 584.26L499.9 584.26L499.42 584.26z" stroke="none" fill="#000000" fill-rule="evenodd" /></g></g></g></svg>