<svg xmlns="http://www.w3.org/2000/svg" xmlns:xlink="http://www.w3.org/1999/xlink" id="body_221" preserveAspectRatio="xMinYMin meet" viewBox="0 0 793 1121"><defs><clipPath id="1"><path d="M0 841L0 -0.9199829L0 -0.9199829L595.32 -0.9199829L595.32 -0.9199829L595.32 841L595.32 841L0 841z" /></clipPath><clipPath id="2"><path d="M0.00125 841.0914L595.4112 841.0914L595.4112 841.0914L595.4112 -0.9186401L595.4112 -0.9186401L0.00125 -0.9186401z" /></clipPath><clipPath id="3"><path d="M288.05 781.211L316.01 781.211L316.01 781.211L316.01 762.011L316.01 762.011L288.05 762.011z" /></clipPath><clipPath id="4"><path d="M288.05 781.216L316.01 781.216L316.01 781.216L316.01 762.016L316.01 762.016L288.05 762.016z" /></clipPath><clipPath id="5"><path d="M288.05 781.216L316.01 781.216L316.01 781.216L316.01 762.016L316.01 762.016L288.05 762.016z" /></clipPath><clipPath id="6"><path d="M84.751 293.97L169.711 293.97L169.711 293.97L169.711 266.235L169.711 266.235L84.751 266.235z" /></clipPath><clipPath id="7"><path d="M84.744 293.97L169.704 293.97L169.704 293.97L169.704 266.226L169.704 266.226L84.744 266.226z" /></clipPath><clipPath id="8"><path d="M84.744 293.97L169.704 293.97L169.704 293.97L169.704 266.226L169.704 266.226L84.744 266.226z" /></clipPath><clipPath id="9"><path d="M170.19 293.97L246.045 293.97L246.045 293.97L246.045 266.235L246.045 266.235L170.19 266.235z" /></clipPath><clipPath id="10"><path d="M170.18 293.97L246.044 293.97L246.044 293.97L246.044 266.226L246.044 266.226L170.18 266.226z" /></clipPath><clipPath id="11"><path d="M170.18 293.97L246.044 293.97L246.044 293.97L246.044 266.226L246.044 266.226L170.18 266.226z" /></clipPath><clipPath id="12"><path d="M246.65 293.97L302.69 293.97L302.69 293.97L302.69 266.235L302.69 266.235L246.65 266.235z" /></clipPath><clipPath id="13"><path d="M246.65 293.97L302.69 293.97L302.69 293.97L302.69 266.226L302.69 266.226L246.65 266.226z" /></clipPath><clipPath id="14"><path d="M246.65 293.97L302.69 293.97L302.69 293.97L302.69 266.226L302.69 266.226L246.65 266.226z" /></clipPath><clipPath id="15"><path d="M303.29 293.97L373.52 293.97L373.52 293.97L373.52 266.235L373.52 266.235L303.29 266.235z" /></clipPath><clipPath id="16"><path d="M303.29 293.97L373.514 293.97L373.514 293.97L373.514 266.226L373.514 266.226L303.29 266.226z" /></clipPath><clipPath id="17"><path d="M303.29 293.97L373.514 293.97L373.514 293.97L373.514 266.226L373.514 266.226L303.29 266.226z" /></clipPath><clipPath id="18"><path d="M374 293.97L510.7 293.97L510.7 293.97L510.7 266.235L510.7 266.235L374 266.235z" /></clipPath><clipPath id="19"><path d="M373.99 293.97L510.69 293.97L510.69 293.97L510.69 266.226L510.69 266.226L373.99 266.226z" /></clipPath><clipPath id="20"><path d="M373.99 293.97L510.69 293.97L510.69 293.97L510.69 266.226L510.69 266.226L373.99 266.226z" /></clipPath><clipPath id="21"><path d="M84.751 322.05L169.711 322.05L169.711 322.05L169.711 294.45L169.711 294.45L84.751 294.45z" /></clipPath><clipPath id="22"><path d="M84.744 322.05L169.704 322.05L169.704 322.05L169.704 294.45L169.704 294.45L84.744 294.45z" /></clipPath><clipPath id="23"><path d="M84.744 322.05L169.704 322.05L169.704 322.05L169.704 294.45L169.704 294.45L84.744 294.45z" /></clipPath><clipPath id="24"><path d="M170.19 322.05L246.045 322.05L246.045 322.05L246.045 294.45L246.045 294.45L170.19 294.45z" /></clipPath><clipPath id="25"><path d="M170.18 322.05L246.044 322.05L246.044 322.05L246.044 294.45L246.044 294.45L170.18 294.45z" /></clipPath><clipPath id="26"><path d="M170.18 322.05L246.044 322.05L246.044 322.05L246.044 294.45L246.044 294.45L170.18 294.45z" /></clipPath><clipPath id="27"><path d="M246.65 322.05L302.69 322.05L302.69 322.05L302.69 294.45L302.69 294.45L246.65 294.45z" /></clipPath><clipPath id="28"><path d="M246.65 322.05L302.69 322.05L302.69 322.05L302.69 294.45L302.69 294.45L246.65 294.45z" /></clipPath><clipPath id="29"><path d="M246.65 322.05L302.69 322.05L302.69 322.05L302.69 294.45L302.69 294.45L246.65 294.45z" /></clipPath><clipPath id="30"><path d="M303.29 322.05L373.52 322.05L373.52 322.05L373.52 294.45L373.52 294.45L303.29 294.45z" /></clipPath><clipPath id="31"><path d="M303.29 322.05L373.514 322.05L373.514 322.05L373.514 294.45L373.514 294.45L303.29 294.45z" /></clipPath><clipPath id="32"><path d="M303.29 322.05L373.514 322.05L373.514 322.05L373.514 294.45L373.514 294.45L303.29 294.45z" /></clipPath><clipPath id="33"><path d="M374 322.05L510.7 322.05L510.7 322.05L510.7 294.45L510.7 294.45L374 294.45z" /></clipPath><clipPath id="34"><path d="M373.99 322.05L510.69 322.05L510.69 322.05L510.69 294.45L510.69 294.45L373.99 294.45z" /></clipPath><clipPath id="35"><path d="M373.99 322.05L510.69 322.05L510.69 322.05L510.69 294.45L510.69 294.45L373.99 294.45z" /></clipPath><clipPath id="36"><path d="M84.751 350.25L169.711 350.25L169.711 350.25L169.711 322.65L169.711 322.65L84.751 322.65z" /></clipPath><clipPath id="37"><path d="M84.744 350.25L169.704 350.25L169.704 350.25L169.704 322.65L169.704 322.65L84.744 322.65z" /></clipPath><clipPath id="38"><path d="M84.744 350.25L169.704 350.25L169.704 350.25L169.704 322.65L169.704 322.65L84.744 322.65z" /></clipPath><clipPath id="39"><path d="M170.19 350.25L246.045 350.25L246.045 350.25L246.045 322.65L246.045 322.65L170.19 322.65z" /></clipPath><clipPath id="40"><path d="M170.18 350.25L246.044 350.25L246.044 350.25L246.044 322.65L246.044 322.65L170.18 322.65z" /></clipPath><clipPath id="41"><path d="M170.18 350.25L246.044 350.25L246.044 350.25L246.044 322.65L246.044 322.65L170.18 322.65z" /></clipPath><clipPath id="42"><path d="M246.65 350.25L302.69 350.25L302.69 350.25L302.69 322.65L302.69 322.65L246.65 322.65z" /></clipPath><clipPath id="43"><path d="M246.65 350.25L302.69 350.25L302.69 350.25L302.69 322.65L302.69 322.65L246.65 322.65z" /></clipPath><clipPath id="44"><path d="M246.65 350.25L302.69 350.25L302.69 350.25L302.69 322.65L302.69 322.65L246.65 322.65z" /></clipPath><clipPath id="45"><path d="M303.29 350.25L373.52 350.25L373.52 350.25L373.52 322.65L373.52 322.65L303.29 322.65z" /></clipPath><clipPath id="46"><path d="M303.29 350.25L373.514 350.25L373.514 350.25L373.514 322.65L373.514 322.65L303.29 322.65z" /></clipPath><clipPath id="47"><path d="M303.29 350.25L373.514 350.25L373.514 350.25L373.514 322.65L373.514 322.65L303.29 322.65z" /></clipPath><clipPath id="48"><path d="M303.29 350.25L373.514 350.25L373.514 350.25L373.514 322.65L373.514 322.65L303.29 322.65z" /></clipPath><clipPath id="49"><path d="M374 350.25L510.7 350.25L510.7 350.25L510.7 322.65L510.7 322.65L374 322.65z" /></clipPath><clipPath id="50"><path d="M373.99 350.25L510.69 350.25L510.69 350.25L510.69 322.65L510.69 322.65L373.99 322.65z" /></clipPath><clipPath id="51"><path d="M373.99 350.25L510.69 350.25L510.69 350.25L510.69 322.65L510.69 322.65L373.99 322.65z" /></clipPath><clipPath id="52"><path d="M373.99 350.25L510.69 350.25L510.69 350.25L510.69 322.65L510.69 322.65L373.99 322.65z" /></clipPath><clipPath id="53"><path d="M84.751 394.41L169.711 394.41L169.711 394.41L169.711 350.73L169.711 350.73L84.751 350.73z" /></clipPath><clipPath id="54"><path d="M84.744 394.41L169.704 394.41L169.704 394.41L169.704 350.73L169.704 350.73L84.744 350.73z" /></clipPath><clipPath id="55"><path d="M84.744 394.41L169.704 394.41L169.704 394.41L169.704 350.73L169.704 350.73L84.744 350.73z" /></clipPath><clipPath id="56"><path d="M170.19 394.41L246.045 394.41L246.045 394.41L246.045 350.73L246.045 350.73L170.19 350.73z" /></clipPath><clipPath id="57"><path d="M170.18 394.41L246.044 394.41L246.044 394.41L246.044 350.73L246.044 350.73L170.18 350.73z" /></clipPath><clipPath id="58"><path d="M170.18 394.41L246.044 394.41L246.044 394.41L246.044 350.73L246.044 350.73L170.18 350.73z" /></clipPath><clipPath id="59"><path d="M246.65 394.41L302.69 394.41L302.69 394.41L302.69 350.73L302.69 350.73L246.65 350.73z" /></clipPath><clipPath id="60"><path d="M246.65 394.41L302.69 394.41L302.69 394.41L302.69 350.73L302.69 350.73L246.65 350.73z" /></clipPath><clipPath id="61"><path d="M246.65 394.41L302.69 394.41L302.69 394.41L302.69 350.73L302.69 350.73L246.65 350.73z" /></clipPath><clipPath id="62"><path d="M303.29 394.41L373.52 394.41L373.52 394.41L373.52 350.73L373.52 350.73L303.29 350.73z" /></clipPath><clipPath id="63"><path d="M303.29 394.41L373.514 394.41L373.514 394.41L373.514 350.73L373.514 350.73L303.29 350.73z" /></clipPath><clipPath id="64"><path d="M303.29 394.41L373.514 394.41L373.514 394.41L373.514 350.73L373.514 350.73L303.29 350.73z" /></clipPath><clipPath id="65"><path d="M303.29 394.41L373.514 394.41L373.514 394.41L373.514 350.73L373.514 350.73L303.29 350.73z" /></clipPath><clipPath id="66"><path d="M374 394.41L510.7 394.41L510.7 394.41L510.7 350.73L510.7 350.73L374 350.73z" /></clipPath><clipPath id="67"><path d="M373.99 394.41L510.69 394.41L510.69 394.41L510.69 350.73L510.69 350.73L373.99 350.73z" /></clipPath><clipPath id="68"><path d="M373.99 394.41L510.69 394.41L510.69 394.41L510.69 350.73L510.69 350.73L373.99 350.73z" /></clipPath><clipPath id="69"><path d="M84.751 503.52L169.711 503.52L169.711 503.52L169.711 394.89L169.711 394.89L84.751 394.89z" /></clipPath><clipPath id="70"><path d="M84.744 503.51L169.704 503.51L169.704 503.51L169.704 394.89L169.704 394.89L84.744 394.89z" /></clipPath><clipPath id="71"><path d="M84.744 503.51L169.704 503.51L169.704 503.51L169.704 394.89L169.704 394.89L84.744 394.89z" /></clipPath><clipPath id="72"><path d="M170.19 503.52L246.045 503.52L246.045 503.52L246.045 394.89L246.045 394.89L170.19 394.89z" /></clipPath><clipPath id="73"><path d="M170.18 503.51L246.044 503.51L246.044 503.51L246.044 394.89L246.044 394.89L170.18 394.89z" /></clipPath><clipPath id="74"><path d="M170.18 503.51L246.044 503.51L246.044 503.51L246.044 394.89L246.044 394.89L170.18 394.89z" /></clipPath><clipPath id="75"><path d="M246.65 503.52L302.69 503.52L302.69 503.52L302.69 394.89L302.69 394.89L246.65 394.89z" /></clipPath><clipPath id="76"><path d="M246.65 503.51L302.69 503.51L302.69 503.51L302.69 394.89L302.69 394.89L246.65 394.89z" /></clipPath><clipPath id="77"><path d="M246.65 503.51L302.69 503.51L302.69 503.51L302.69 394.89L302.69 394.89L246.65 394.89z" /></clipPath><clipPath id="78"><path d="M303.29 503.52L373.52 503.52L373.52 503.52L373.52 394.89L373.52 394.89L303.29 394.89z" /></clipPath><clipPath id="79"><path d="M303.29 503.51L373.514 503.51L373.514 503.51L373.514 394.89L373.514 394.89L303.29 394.89z" /></clipPath><clipPath id="80"><path d="M374 503.52L510.7 503.52L510.7 503.52L510.7 394.89L510.7 394.89L374 394.89z" /></clipPath><clipPath id="81"><path d="M373.99 503.51L510.69 503.51L510.69 503.51L510.69 394.89L510.69 394.89L373.99 394.89z" /></clipPath><clipPath id="82"><path d="M373.99 503.51L510.69 503.51L510.69 503.51L510.69 394.89L510.69 394.89L373.99 394.89z" /></clipPath><clipPath id="83"><path d="M373.99 503.51L510.69 503.51L510.69 503.51L510.69 394.89L510.69 394.89L373.99 394.89z" /></clipPath><clipPath id="84"><path d="M373.99 503.51L510.69 503.51L510.69 503.51L510.69 394.89L510.69 394.89L373.99 394.89z" /></clipPath><clipPath id="85"><path d="M373.99 503.51L510.69 503.51L510.69 503.51L510.69 394.89L510.69 394.89L373.99 394.89z" /></clipPath><clipPath id="86"><path d="M373.99 503.51L510.69 503.51L510.69 503.51L510.69 394.89L510.69 394.89L373.99 394.89z" /></clipPath><clipPath id="87"><path d="M373.99 503.51L510.69 503.51L510.69 503.51L510.69 394.89L510.69 394.89L373.99 394.89z" /></clipPath><clipPath id="88"><path d="M373.99 503.51L510.69 503.51L510.69 503.51L510.69 394.89L510.69 394.89L373.99 394.89z" /></clipPath><clipPath id="89"><path d="M373.99 503.51L510.69 503.51L510.69 503.51L510.69 394.89L510.69 394.89L373.99 394.89z" /></clipPath><clipPath id="90"><path d="M373.99 503.51L510.69 503.51L510.69 503.51L510.69 394.89L510.69 394.89L373.99 394.89z" /></clipPath><clipPath id="91"><path d="M373.99 503.51L510.69 503.51L510.69 503.51L510.69 394.89L510.69 394.89L373.99 394.89z" /></clipPath><clipPath id="92"><path d="M373.99 503.51L510.69 503.51L510.69 503.51L510.69 394.89L510.69 394.89L373.99 394.89z" /></clipPath><clipPath id="93"><path d="M373.99 503.51L510.69 503.51L510.69 503.51L510.69 394.89L510.69 394.89L373.99 394.89z" /></clipPath><clipPath id="94"><path d="M84.751 531.6L169.711 531.6L169.711 531.6L169.711 504L169.711 504L84.751 504z" /></clipPath><clipPath id="95"><path d="M84.744 531.59L169.704 531.59L169.704 531.59L169.704 503.99L169.704 503.99L84.744 503.99z" /></clipPath><clipPath id="96"><path d="M84.744 531.59L169.704 531.59L169.704 531.59L169.704 503.99L169.704 503.99L84.744 503.99z" /></clipPath><clipPath id="97"><path d="M170.19 531.6L246.045 531.6L246.045 531.6L246.045 504L246.045 504L170.19 504z" /></clipPath><clipPath id="98"><path d="M170.18 531.59L246.044 531.59L246.044 531.59L246.044 503.99L246.044 503.99L170.18 503.99z" /></clipPath><clipPath id="99"><path d="M170.18 531.59L246.044 531.59L246.044 531.59L246.044 503.99L246.044 503.99L170.18 503.99z" /></clipPath><clipPath id="100"><path d="M246.65 531.6L302.69 531.6L302.69 531.6L302.69 504L302.69 504L246.65 504z" /></clipPath><clipPath id="101"><path d="M246.65 531.59L302.69 531.59L302.69 531.59L302.69 503.99L302.69 503.99L246.65 503.99z" /></clipPath><clipPath id="102"><path d="M246.65 531.59L302.69 531.59L302.69 531.59L302.69 503.99L302.69 503.99L246.65 503.99z" /></clipPath><clipPath id="103"><path d="M303.29 531.6L373.52 531.6L373.52 531.6L373.52 504L373.52 504L303.29 504z" /></clipPath><clipPath id="104"><path d="M303.29 531.59L373.514 531.59L373.514 531.59L373.514 503.99L373.514 503.99L303.29 503.99z" /></clipPath><clipPath id="105"><path d="M374 531.6L510.7 531.6L510.7 531.6L510.7 504L510.7 504L374 504z" /></clipPath><clipPath id="106"><path d="M373.99 531.59L510.69 531.59L510.69 531.59L510.69 503.99L510.69 503.99L373.99 503.99z" /></clipPath><clipPath id="107"><path d="M373.99 531.59L510.69 531.59L510.69 531.59L510.69 503.99L510.69 503.99L373.99 503.99z" /></clipPath><clipPath id="108"><path d="M373.99 531.59L510.69 531.59L510.69 531.59L510.69 503.99L510.69 503.99L373.99 503.99z" /></clipPath><clipPath id="109"><path d="M373.99 531.59L510.69 531.59L510.69 531.59L510.69 503.99L510.69 503.99L373.99 503.99z" /></clipPath><clipPath id="110"><path d="M84.751 603.72L169.711 603.72L169.711 603.72L169.711 532.08L169.711 532.08L84.751 532.08z" /></clipPath><clipPath id="111"><path d="M84.744 603.71L169.704 603.71L169.704 603.71L169.704 532.07L169.704 532.07L84.744 532.07z" /></clipPath><clipPath id="112"><path d="M84.744 603.71L169.704 603.71L169.704 603.71L169.704 532.07L169.704 532.07L84.744 532.07z" /></clipPath><clipPath id="113"><path d="M170.19 603.72L246.045 603.72L246.045 603.72L246.045 532.08L246.045 532.08L170.19 532.08z" /></clipPath><clipPath id="114"><path d="M170.18 603.71L246.044 603.71L246.044 603.71L246.044 532.07L246.044 532.07L170.18 532.07z" /></clipPath><clipPath id="115"><path d="M170.18 603.71L246.044 603.71L246.044 603.71L246.044 532.07L246.044 532.07L170.18 532.07z" /></clipPath><clipPath id="116"><path d="M246.65 603.72L302.69 603.72L302.69 603.72L302.69 532.08L302.69 532.08L246.65 532.08z" /></clipPath><clipPath id="117"><path d="M246.65 603.71L302.69 603.71L302.69 603.71L302.69 532.07L302.69 532.07L246.65 532.07z" /></clipPath><clipPath id="118"><path d="M246.65 603.71L302.69 603.71L302.69 603.71L302.69 532.07L302.69 532.07L246.65 532.07z" /></clipPath><clipPath id="119"><path d="M303.29 603.72L373.52 603.72L373.52 603.72L373.52 532.08L373.52 532.08L303.29 532.08z" /></clipPath><clipPath id="120"><path d="M303.29 603.71L373.514 603.71L373.514 603.71L373.514 532.07L373.514 532.07L303.29 532.07z" /></clipPath><clipPath id="121"><path d="M303.29 603.71L373.514 603.71L373.514 603.71L373.514 532.07L373.514 532.07L303.29 532.07z" /></clipPath><clipPath id="122"><path d="M374 603.72L510.7 603.72L510.7 603.72L510.7 532.08L510.7 532.08L374 532.08z" /></clipPath><clipPath id="123"><path d="M373.99 603.71L510.69 603.71L510.69 603.71L510.69 532.07L510.69 532.07L373.99 532.07z" /></clipPath><clipPath id="124"><path d="M373.99 603.71L510.69 603.71L510.69 603.71L510.69 532.07L510.69 532.07L373.99 532.07z" /></clipPath><clipPath id="125"><path d="M373.99 603.71L510.69 603.71L510.69 603.71L510.69 532.07L510.69 532.07L373.99 532.07z" /></clipPath><clipPath id="126"><path d="M373.99 603.71L510.69 603.71L510.69 603.71L510.69 532.07L510.69 532.07L373.99 532.07z" /></clipPath><clipPath id="127"><path d="M373.99 603.71L510.69 603.71L510.69 603.71L510.69 532.07L510.69 532.07L373.99 532.07z" /></clipPath><clipPath id="128"><path d="M373.99 603.71L510.69 603.71L510.69 603.71L510.69 532.07L510.69 532.07L373.99 532.07z" /></clipPath><clipPath id="129"><path d="M373.99 603.71L510.69 603.71L510.69 603.71L510.69 532.07L510.69 532.07L373.99 532.07z" /></clipPath></defs><g transform="matrix(1.333333 0 0 1.333333 0 0)"><g><g clip-path="url(#1)"><path transform="matrix(1 0 0 -1 0 841)" d="M457.51 53.304L505.534 53.304L505.534 53.304L505.534 53.90404L505.534 53.90404L457.51 53.90404z" stroke="none" fill="#000000" fill-rule="evenodd" /><g clip-path="url(#2)"><path transform="matrix(1 0 0 -1 0 841)" d="M88.464 77.904L506.974 77.904L506.974 77.904L506.974 80.904L506.974 80.904L88.464 80.904z" stroke="none" fill="#000000" fill-rule="evenodd" /><path transform="matrix(1 0 0 -1 0 841)" d="M88.464 76.464L506.974 76.464L506.974 76.464L506.974 77.18397L506.974 77.18397L88.464 77.18397z" stroke="none" fill="#000000" fill-rule="evenodd" /></g><g clip-path="url(#3)"><g clip-path="url(#4)"></g><g clip-path="url(#5)"></g></g><path transform="matrix(1 0 0 -1 0 841)" d="M139.34 690.1L404.83 690.1L404.83 690.1L404.83 691.06L404.83 691.06L139.34 691.06z" stroke="none" fill="#0000FF" fill-rule="evenodd" /><path transform="matrix(1 0 0 -1 0 841)" d="M84.744 547.03L169.704 547.03L169.704 547.03L169.704 574.774L169.704 574.774L84.744 574.774z" stroke="none" fill="#0070C0" fill-rule="evenodd" /><g clip-path="url(#6)"><path transform="matrix(1 0 0 -1 0 841)" d="M89.904 547.03L164.544 547.03L164.544 547.03L164.544 574.774L164.544 574.774L89.904 574.774z" stroke="none" fill="#0070C0" fill-rule="evenodd" /><g clip-path="url(#7)"></g><g clip-path="url(#8)"></g></g><path transform="matrix(1 0 0 -1 0 841)" d="M170.18 547.03L246.044 547.03L246.044 547.03L246.044 574.774L246.044 574.774L170.18 574.774z" stroke="none" fill="#0070C0" fill-rule="evenodd" /><g clip-path="url(#9)"><path transform="matrix(1 0 0 -1 0 841)" d="M175.34 547.03L241.004 547.03L241.004 547.03L241.004 574.774L241.004 574.774L175.34 574.774z" stroke="none" fill="#0070C0" fill-rule="evenodd" /><g clip-path="url(#10)"></g><g clip-path="url(#11)"></g></g><path transform="matrix(1 0 0 -1 0 841)" d="M246.65 547.03L302.69 547.03L302.69 547.03L302.69 574.774L302.69 574.774L246.65 574.774z" stroke="none" fill="#0070C0" fill-rule="evenodd" /><g clip-path="url(#12)"><path transform="matrix(1 0 0 -1 0 841)" d="M251.69 547.03L297.65 547.03L297.65 547.03L297.65 574.774L297.65 574.774L251.69 574.774z" stroke="none" fill="#0070C0" fill-rule="evenodd" /><g clip-path="url(#13)"></g><g clip-path="url(#14)"></g></g><path transform="matrix(1 0 0 -1 0 841)" d="M303.29 547.03L373.514 547.03L373.514 547.03L373.514 574.774L373.514 574.774L303.29 574.774z" stroke="none" fill="#0070C0" fill-rule="evenodd" /><g clip-path="url(#15)"><path transform="matrix(1 0 0 -1 0 841)" d="M308.45 547.03L368.354 547.03L368.354 547.03L368.354 574.774L368.354 574.774L308.45 574.774z" stroke="none" fill="#0070C0" fill-rule="evenodd" /><g clip-path="url(#16)"></g><g clip-path="url(#17)"></g></g><path transform="matrix(1 0 0 -1 0 841)" d="M373.99 547.03L510.69 547.03L510.69 547.03L510.69 574.774L510.69 574.774L373.99 574.774z" stroke="none" fill="#0070C0" fill-rule="evenodd" /><g clip-path="url(#18)"><path transform="matrix(1 0 0 -1 0 841)" d="M379.15 547.03L505.53 547.03L505.53 547.03L505.53 574.774L505.53 574.774L379.15 574.774z" stroke="none" fill="#0070C0" fill-rule="evenodd" /><g clip-path="url(#19)"></g><g clip-path="url(#20)"></g></g><path transform="matrix(1 0 0 -1 0 841)" d="M84.264 574.78L84.744 574.78L84.744 574.78L84.744 575.26L84.744 575.26L84.264 575.26z" stroke="none" fill="#000000" fill-rule="evenodd" /><path transform="matrix(1 0 0 -1 0 841)" d="M84.264 574.78L84.744 574.78L84.744 574.78L84.744 575.26L84.744 575.26L84.264 575.26z" stroke="none" fill="#000000" fill-rule="evenodd" /><path transform="matrix(1 0 0 -1 0 841)" d="M84.744 574.78L169.704 574.78L169.704 574.78L169.704 575.26L169.704 575.26L84.744 575.26z" stroke="none" fill="#000000" fill-rule="evenodd" /><path transform="matrix(1 0 0 -1 0 841)" d="M169.7 574.78L170.18 574.78L170.18 574.78L170.18 575.26L170.18 575.26L169.7 575.26z" stroke="none" fill="#000000" fill-rule="evenodd" /><path transform="matrix(1 0 0 -1 0 841)" d="M170.18 574.78L246.164 574.78L246.164 574.78L246.164 575.26L246.164 575.26L170.18 575.26z" stroke="none" fill="#000000" fill-rule="evenodd" /><path transform="matrix(1 0 0 -1 0 841)" d="M246.17 574.78L246.65 574.78L246.65 574.78L246.65 575.26L246.65 575.26L246.17 575.26z" stroke="none" fill="#000000" fill-rule="evenodd" /><path transform="matrix(1 0 0 -1 0 841)" d="M246.65 574.78L302.81 574.78L302.81 574.78L302.81 575.26L302.81 575.26L246.65 575.26z" stroke="none" fill="#000000" fill-rule="evenodd" /><path transform="matrix(1 0 0 -1 0 841)" d="M302.81 574.78L303.29 574.78L303.29 574.78L303.29 575.26L303.29 575.26L302.81 575.26z" stroke="none" fill="#000000" fill-rule="evenodd" /><path transform="matrix(1 0 0 -1 0 841)" d="M303.29 574.78L373.514 574.78L373.514 574.78L373.514 575.26L373.514 575.26L303.29 575.26z" stroke="none" fill="#000000" fill-rule="evenodd" /><path transform="matrix(1 0 0 -1 0 841)" d="M373.51 574.78L373.99 574.78L373.99 574.78L373.99 575.26L373.99 575.26L373.51 575.26z" stroke="none" fill="#000000" fill-rule="evenodd" /><path transform="matrix(1 0 0 -1 0 841)" d="M373.99 574.78L510.69 574.78L510.69 574.78L510.69 575.26L510.69 575.26L373.99 575.26z" stroke="none" fill="#000000" fill-rule="evenodd" /><path transform="matrix(1 0 0 -1 0 841)" d="M510.7 574.78L511.18 574.78L511.18 574.78L511.18 575.26L511.18 575.26L510.7 575.26z" stroke="none" fill="#000000" fill-rule="evenodd" /><path transform="matrix(1 0 0 -1 0 841)" d="M510.7 574.78L511.18 574.78L511.18 574.78L511.18 575.26L511.18 575.26L510.7 575.26z" stroke="none" fill="#000000" fill-rule="evenodd" /><path transform="matrix(1 0 0 -1 0 841)" d="M84.264 547.03L84.744 547.03L84.744 547.03L84.744 574.774L84.744 574.774L84.264 574.774z" stroke="none" fill="#000000" fill-rule="evenodd" /><path transform="matrix(1 0 0 -1 0 841)" d="M169.7 547.03L170.18 547.03L170.18 547.03L170.18 574.774L170.18 574.774L169.7 574.774z" stroke="none" fill="#000000" fill-rule="evenodd" /><path transform="matrix(1 0 0 -1 0 841)" d="M246.17 547.03L246.65 547.03L246.65 547.03L246.65 574.774L246.65 574.774L246.17 574.774z" stroke="none" fill="#000000" fill-rule="evenodd" /><path transform="matrix(1 0 0 -1 0 841)" d="M302.81 547.03L303.29 547.03L303.29 547.03L303.29 574.774L303.29 574.774L302.81 574.774z" stroke="none" fill="#000000" fill-rule="evenodd" /><path transform="matrix(1 0 0 -1 0 841)" d="M373.51 547.03L373.99 547.03L373.99 547.03L373.99 574.774L373.99 574.774L373.51 574.774z" stroke="none" fill="#000000" fill-rule="evenodd" /><path transform="matrix(1 0 0 -1 0 841)" d="M510.7 547.03L511.18 547.03L511.18 547.03L511.18 574.774L511.18 574.774L510.7 574.774z" stroke="none" fill="#000000" fill-rule="evenodd" /><path transform="matrix(1 0 0 -1 0 841)" d="M84.744 518.95L169.704 518.95L169.704 518.95L169.704 546.55L169.704 546.55L84.744 546.55z" stroke="none" fill="#DAEEF3" fill-rule="evenodd" /><g clip-path="url(#21)"><path transform="matrix(1 0 0 -1 0 841)" d="M89.904 519.91L164.544 519.91L164.544 519.91L164.544 546.55L164.544 546.55L89.904 546.55z" stroke="none" fill="#DAEEF3" fill-rule="evenodd" /><g clip-path="url(#22)"></g><g clip-path="url(#23)"></g></g><path transform="matrix(1 0 0 -1 0 841)" d="M170.18 518.95L246.044 518.95L246.044 518.95L246.044 546.55L246.044 546.55L170.18 546.55z" stroke="none" fill="#DAEEF3" fill-rule="evenodd" /><g clip-path="url(#24)"><path transform="matrix(1 0 0 -1 0 841)" d="M175.34 519.91L241.004 519.91L241.004 519.91L241.004 546.55L241.004 546.55L175.34 546.55z" stroke="none" fill="#DAEEF3" fill-rule="evenodd" /><g clip-path="url(#25)"></g><g clip-path="url(#26)"></g></g><path transform="matrix(1 0 0 -1 0 841)" d="M246.65 518.95L302.69 518.95L302.69 518.95L302.69 546.55L302.69 546.55L246.65 546.55z" stroke="none" fill="#DAEEF3" fill-rule="evenodd" /><g clip-path="url(#27)"><path transform="matrix(1 0 0 -1 0 841)" d="M251.69 518.95L297.65 518.95L297.65 518.95L297.65 546.55L297.65 546.55L251.69 546.55z" stroke="none" fill="#DAEEF3" fill-rule="evenodd" /><g clip-path="url(#28)"></g><g clip-path="url(#29)"></g></g><path transform="matrix(1 0 0 -1 0 841)" d="M303.29 518.95L373.514 518.95L373.514 518.95L373.514 546.55L373.514 546.55L303.29 546.55z" stroke="none" fill="#DAEEF3" fill-rule="evenodd" /><g clip-path="url(#30)"><path transform="matrix(1 0 0 -1 0 841)" d="M308.45 519.91L368.354 519.91L368.354 519.91L368.354 546.55L368.354 546.55L308.45 546.55z" stroke="none" fill="#DAEEF3" fill-rule="evenodd" /><g clip-path="url(#31)"></g><g clip-path="url(#32)"></g></g><path transform="matrix(1 0 0 -1 0 841)" d="M373.99 518.95L510.69 518.95L510.69 518.95L510.69 546.55L510.69 546.55L373.99 546.55z" stroke="none" fill="#DAEEF3" fill-rule="evenodd" /><g clip-path="url(#33)"><path transform="matrix(1 0 0 -1 0 841)" d="M379.15 518.95L505.53 518.95L505.53 518.95L505.53 546.55L505.53 546.55L379.15 546.55z" stroke="none" fill="#DAEEF3" fill-rule="evenodd" /><g clip-path="url(#34)"></g><g clip-path="url(#35)"></g></g><path transform="matrix(1 0 0 -1 0 841)" d="M84.264 546.55L84.744 546.55L84.744 546.55L84.744 547.03L84.744 547.03L84.264 547.03z" stroke="none" fill="#000000" fill-rule="evenodd" /><path transform="matrix(1 0 0 -1 0 841)" d="M84.744 546.55L169.704 546.55L169.704 546.55L169.704 547.03L169.704 547.03L84.744 547.03z" stroke="none" fill="#000000" fill-rule="evenodd" /><path transform="matrix(1 0 0 -1 0 841)" d="M169.7 546.55L170.18 546.55L170.18 546.55L170.18 547.03L170.18 547.03L169.7 547.03z" stroke="none" fill="#000000" fill-rule="evenodd" /><path transform="matrix(1 0 0 -1 0 841)" d="M170.18 546.55L246.164 546.55L246.164 546.55L246.164 547.03L246.164 547.03L170.18 547.03z" stroke="none" fill="#000000" fill-rule="evenodd" /><path transform="matrix(1 0 0 -1 0 841)" d="M246.17 546.55L246.65 546.55L246.65 546.55L246.65 547.03L246.65 547.03L246.17 547.03z" stroke="none" fill="#000000" fill-rule="evenodd" /><path transform="matrix(1 0 0 -1 0 841)" d="M246.65 546.55L302.81 546.55L302.81 546.55L302.81 547.03L302.81 547.03L246.65 547.03z" stroke="none" fill="#000000" fill-rule="evenodd" /><path transform="matrix(1 0 0 -1 0 841)" d="M302.81 546.55L303.29 546.55L303.29 546.55L303.29 547.03L303.29 547.03L302.81 547.03z" stroke="none" fill="#000000" fill-rule="evenodd" /><path transform="matrix(1 0 0 -1 0 841)" d="M303.29 546.55L373.514 546.55L373.514 546.55L373.514 547.03L373.514 547.03L303.29 547.03z" stroke="none" fill="#000000" fill-rule="evenodd" /><path transform="matrix(1 0 0 -1 0 841)" d="M373.51 546.55L373.99 546.55L373.99 546.55L373.99 547.03L373.99 547.03L373.51 547.03z" stroke="none" fill="#000000" fill-rule="evenodd" /><path transform="matrix(1 0 0 -1 0 841)" d="M373.99 546.55L510.69 546.55L510.69 546.55L510.69 547.03L510.69 547.03L373.99 547.03z" stroke="none" fill="#000000" fill-rule="evenodd" /><path transform="matrix(1 0 0 -1 0 841)" d="M510.7 546.55L511.18 546.55L511.18 546.55L511.18 547.03L511.18 547.03L510.7 547.03z" stroke="none" fill="#000000" fill-rule="evenodd" /><path transform="matrix(1 0 0 -1 0 841)" d="M84.264 518.95L84.744 518.95L84.744 518.95L84.744 546.55L84.744 546.55L84.264 546.55z" stroke="none" fill="#000000" fill-rule="evenodd" /><path transform="matrix(1 0 0 -1 0 841)" d="M169.7 518.95L170.18 518.95L170.18 518.95L170.18 546.55L170.18 546.55L169.7 546.55z" stroke="none" fill="#000000" fill-rule="evenodd" /><path transform="matrix(1 0 0 -1 0 841)" d="M246.17 518.95L246.65 518.95L246.65 518.95L246.65 546.55L246.65 546.55L246.17 546.55z" stroke="none" fill="#000000" fill-rule="evenodd" /><path transform="matrix(1 0 0 -1 0 841)" d="M302.81 518.95L303.29 518.95L303.29 518.95L303.29 546.55L303.29 546.55L302.81 546.55z" stroke="none" fill="#000000" fill-rule="evenodd" /><path transform="matrix(1 0 0 -1 0 841)" d="M373.51 518.95L373.99 518.95L373.99 518.95L373.99 546.55L373.99 546.55L373.51 546.55z" stroke="none" fill="#000000" fill-rule="evenodd" /><path transform="matrix(1 0 0 -1 0 841)" d="M510.7 518.95L511.18 518.95L511.18 518.95L511.18 546.55L511.18 546.55L510.7 546.55z" stroke="none" fill="#000000" fill-rule="evenodd" /><g clip-path="url(#36)"><g clip-path="url(#37)"></g><g clip-path="url(#38)"></g></g><g clip-path="url(#39)"><g clip-path="url(#40)"></g><g clip-path="url(#41)"></g></g><g clip-path="url(#42)"><g clip-path="url(#43)"></g><g clip-path="url(#44)"></g></g><g clip-path="url(#45)"><g clip-path="url(#46)"></g><g clip-path="url(#47)"></g><g clip-path="url(#48)"></g></g><g clip-path="url(#49)"><g clip-path="url(#50)"></g><g clip-path="url(#51)"></g><g clip-path="url(#52)"></g></g><path transform="matrix(1 0 0 -1 0 841)" d="M84.264 518.47L84.744 518.47L84.744 518.47L84.744 518.95L84.744 518.95L84.264 518.95z" stroke="none" fill="#000000" fill-rule="evenodd" /><path transform="matrix(1 0 0 -1 0 841)" d="M84.744 518.47L169.704 518.47L169.704 518.47L169.704 518.95L169.704 518.95L84.744 518.95z" stroke="none" fill="#000000" fill-rule="evenodd" /><path transform="matrix(1 0 0 -1 0 841)" d="M169.7 518.47L170.18 518.47L170.18 518.47L170.18 518.95L170.18 518.95L169.7 518.95z" stroke="none" fill="#000000" fill-rule="evenodd" /><path transform="matrix(1 0 0 -1 0 841)" d="M170.18 518.47L246.164 518.47L246.164 518.47L246.164 518.95L246.164 518.95L170.18 518.95z" stroke="none" fill="#000000" fill-rule="evenodd" /><path transform="matrix(1 0 0 -1 0 841)" d="M246.17 518.47L246.65 518.47L246.65 518.47L246.65 518.95L246.65 518.95L246.17 518.95z" stroke="none" fill="#000000" fill-rule="evenodd" /><path transform="matrix(1 0 0 -1 0 841)" d="M246.65 518.47L302.81 518.47L302.81 518.47L302.81 518.95L302.81 518.95L246.65 518.95z" stroke="none" fill="#000000" fill-rule="evenodd" /><path transform="matrix(1 0 0 -1 0 841)" d="M302.81 518.47L303.29 518.47L303.29 518.47L303.29 518.95L303.29 518.95L302.81 518.95z" stroke="none" fill="#000000" fill-rule="evenodd" /><path transform="matrix(1 0 0 -1 0 841)" d="M303.29 518.47L373.514 518.47L373.514 518.47L373.514 518.95L373.514 518.95L303.29 518.95z" stroke="none" fill="#000000" fill-rule="evenodd" /><path transform="matrix(1 0 0 -1 0 841)" d="M373.51 518.47L373.99 518.47L373.99 518.47L373.99 518.95L373.99 518.95L373.51 518.95z" stroke="none" fill="#000000" fill-rule="evenodd" /><path transform="matrix(1 0 0 -1 0 841)" d="M373.99 518.47L510.69 518.47L510.69 518.47L510.69 518.95L510.69 518.95L373.99 518.95z" stroke="none" fill="#000000" fill-rule="evenodd" /><path transform="matrix(1 0 0 -1 0 841)" d="M510.7 518.47L511.18 518.47L511.18 518.47L511.18 518.95L511.18 518.95L510.7 518.95z" stroke="none" fill="#000000" fill-rule="evenodd" /><path transform="matrix(1 0 0 -1 0 841)" d="M84.264 490.75L84.744 490.75L84.744 490.75L84.744 518.47L84.744 518.47L84.264 518.47z" stroke="none" fill="#000000" fill-rule="evenodd" /><path transform="matrix(1 0 0 -1 0 841)" d="M169.7 490.75L170.18 490.75L170.18 490.75L170.18 518.47L170.18 518.47L169.7 518.47z" stroke="none" fill="#000000" fill-rule="evenodd" /><path transform="matrix(1 0 0 -1 0 841)" d="M246.17 490.75L246.65 490.75L246.65 490.75L246.65 518.47L246.65 518.47L246.17 518.47z" stroke="none" fill="#000000" fill-rule="evenodd" /><path transform="matrix(1 0 0 -1 0 841)" d="M302.81 490.75L303.29 490.75L303.29 490.75L303.29 518.47L303.29 518.47L302.81 518.47z" stroke="none" fill="#000000" fill-rule="evenodd" /><path transform="matrix(1 0 0 -1 0 841)" d="M373.51 490.75L373.99 490.75L373.99 490.75L373.99 518.47L373.99 518.47L373.51 518.47z" stroke="none" fill="#000000" fill-rule="evenodd" /><path transform="matrix(1 0 0 -1 0 841)" d="M510.7 490.75L511.18 490.75L511.18 490.75L511.18 518.47L511.18 518.47L510.7 518.47z" stroke="none" fill="#000000" fill-rule="evenodd" /><path transform="matrix(1 0 0 -1 0 841)" d="M84.744 446.59L169.704 446.59L169.704 446.59L169.704 490.27L169.704 490.27L84.744 490.27z" stroke="none" fill="#DAEEF3" fill-rule="evenodd" /><g clip-path="url(#53)"><path transform="matrix(1 0 0 -1 0 841)" d="M89.904 463.63L164.544 463.63L164.544 463.63L164.544 490.27L164.544 490.27L89.904 490.27z" stroke="none" fill="#DAEEF3" fill-rule="evenodd" /><g clip-path="url(#54)"></g><g clip-path="url(#55)"></g></g><path transform="matrix(1 0 0 -1 0 841)" d="M170.18 446.59L246.044 446.59L246.044 446.59L246.044 490.27L246.044 490.27L170.18 490.27z" stroke="none" fill="#DAEEF3" fill-rule="evenodd" /><g clip-path="url(#56)"><path transform="matrix(1 0 0 -1 0 841)" d="M175.34 463.63L241.004 463.63L241.004 463.63L241.004 490.27L241.004 490.27L175.34 490.27z" stroke="none" fill="#DAEEF3" fill-rule="evenodd" /><g clip-path="url(#57)"></g><g clip-path="url(#58)"></g></g><path transform="matrix(1 0 0 -1 0 841)" d="M246.65 446.59L302.69 446.59L302.69 446.59L302.69 490.27L302.69 490.27L246.65 490.27z" stroke="none" fill="#DAEEF3" fill-rule="evenodd" /><g clip-path="url(#59)"><path transform="matrix(1 0 0 -1 0 841)" d="M251.69 462.55L297.65 462.55L297.65 462.55L297.65 490.27L297.65 490.27L251.69 490.27z" stroke="none" fill="#DAEEF3" fill-rule="evenodd" /><g clip-path="url(#60)"></g><g clip-path="url(#61)"></g></g><path transform="matrix(1 0 0 -1 0 841)" d="M303.29 446.59L373.514 446.59L373.514 446.59L373.514 490.27L373.514 490.27L303.29 490.27z" stroke="none" fill="#DAEEF3" fill-rule="evenodd" /><g clip-path="url(#62)"><path transform="matrix(1 0 0 -1 0 841)" d="M308.45 468.43L368.354 468.43L368.354 468.43L368.354 490.27L368.354 490.27L308.45 490.27z" stroke="none" fill="#DAEEF3" fill-rule="evenodd" /><g clip-path="url(#63)"></g><path transform="matrix(1 0 0 -1 0 841)" d="M308.45 446.59L368.354 446.59L368.354 446.59L368.354 468.43L368.354 468.43L308.45 468.43z" stroke="none" fill="#DAEEF3" fill-rule="evenodd" /><g clip-path="url(#64)"></g><g clip-path="url(#65)"></g></g><path transform="matrix(1 0 0 -1 0 841)" d="M373.99 446.59L510.69 446.59L510.69 446.59L510.69 490.27L510.69 490.27L373.99 490.27z" stroke="none" fill="#DAEEF3" fill-rule="evenodd" /><g clip-path="url(#66)"><path transform="matrix(1 0 0 -1 0 841)" d="M379.15 462.55L505.53 462.55L505.53 462.55L505.53 490.27L505.53 490.27L379.15 490.27z" stroke="none" fill="#DAEEF3" fill-rule="evenodd" /><g clip-path="url(#67)"></g><g clip-path="url(#68)"></g></g><path transform="matrix(1 0 0 -1 0 841)" d="M84.264 490.27L84.744 490.27L84.744 490.27L84.744 490.75L84.744 490.75L84.264 490.75z" stroke="none" fill="#000000" fill-rule="evenodd" /><path transform="matrix(1 0 0 -1 0 841)" d="M84.744 490.27L169.704 490.27L169.704 490.27L169.704 490.75L169.704 490.75L84.744 490.75z" stroke="none" fill="#000000" fill-rule="evenodd" /><path transform="matrix(1 0 0 -1 0 841)" d="M169.7 490.27L170.18 490.27L170.18 490.27L170.18 490.75L170.18 490.75L169.7 490.75z" stroke="none" fill="#000000" fill-rule="evenodd" /><path transform="matrix(1 0 0 -1 0 841)" d="M170.18 490.27L246.164 490.27L246.164 490.27L246.164 490.75L246.164 490.75L170.18 490.75z" stroke="none" fill="#000000" fill-rule="evenodd" /><path transform="matrix(1 0 0 -1 0 841)" d="M246.17 490.27L246.65 490.27L246.65 490.27L246.65 490.75L246.65 490.75L246.17 490.75z" stroke="none" fill="#000000" fill-rule="evenodd" /><path transform="matrix(1 0 0 -1 0 841)" d="M246.65 490.27L302.81 490.27L302.81 490.27L302.81 490.75L302.81 490.75L246.65 490.75z" stroke="none" fill="#000000" fill-rule="evenodd" /><path transform="matrix(1 0 0 -1 0 841)" d="M302.81 490.27L303.29 490.27L303.29 490.27L303.29 490.75L303.29 490.75L302.81 490.75z" stroke="none" fill="#000000" fill-rule="evenodd" /><path transform="matrix(1 0 0 -1 0 841)" d="M303.29 490.27L373.514 490.27L373.514 490.27L373.514 490.75L373.514 490.75L303.29 490.75z" stroke="none" fill="#000000" fill-rule="evenodd" /><path transform="matrix(1 0 0 -1 0 841)" d="M373.51 490.27L373.99 490.27L373.99 490.27L373.99 490.75L373.99 490.75L373.51 490.75z" stroke="none" fill="#000000" fill-rule="evenodd" /><path transform="matrix(1 0 0 -1 0 841)" d="M373.99 490.27L510.69 490.27L510.69 490.27L510.69 490.75L510.69 490.75L373.99 490.75z" stroke="none" fill="#000000" fill-rule="evenodd" /><path transform="matrix(1 0 0 -1 0 841)" d="M510.7 490.27L511.18 490.27L511.18 490.27L511.18 490.75L511.18 490.75L510.7 490.75z" stroke="none" fill="#000000" fill-rule="evenodd" /><path transform="matrix(1 0 0 -1 0 841)" d="M84.264 446.59L84.744 446.59L84.744 446.59L84.744 490.27L84.744 490.27L84.264 490.27z" stroke="none" fill="#000000" fill-rule="evenodd" /><path transform="matrix(1 0 0 -1 0 841)" d="M169.7 446.59L170.18 446.59L170.18 446.59L170.18 490.27L170.18 490.27L169.7 490.27z" stroke="none" fill="#000000" fill-rule="evenodd" /><path transform="matrix(1 0 0 -1 0 841)" d="M246.17 446.59L246.65 446.59L246.65 446.59L246.65 490.27L246.65 490.27L246.17 490.27z" stroke="none" fill="#000000" fill-rule="evenodd" /><path transform="matrix(1 0 0 -1 0 841)" d="M302.81 446.59L303.29 446.59L303.29 446.59L303.29 490.27L303.29 490.27L302.81 490.27z" stroke="none" fill="#000000" fill-rule="evenodd" /><path transform="matrix(1 0 0 -1 0 841)" d="M373.51 446.59L373.99 446.59L373.99 446.59L373.99 490.27L373.99 490.27L373.51 490.27z" stroke="none" fill="#000000" fill-rule="evenodd" /><path transform="matrix(1 0 0 -1 0 841)" d="M510.7 446.59L511.18 446.59L511.18 446.59L511.18 490.27L511.18 490.27L510.7 490.27z" stroke="none" fill="#000000" fill-rule="evenodd" /><g clip-path="url(#69)"><g clip-path="url(#70)"></g><g clip-path="url(#71)"></g></g><g clip-path="url(#72)"><g clip-path="url(#73)"></g><g clip-path="url(#74)"></g></g><g clip-path="url(#75)"><g clip-path="url(#76)"></g><g clip-path="url(#77)"></g></g><g clip-path="url(#78)"><g clip-path="url(#79)"></g></g><g clip-path="url(#80)"><g clip-path="url(#81)"></g><g clip-path="url(#82)"></g><g clip-path="url(#83)"></g><g clip-path="url(#84)"></g><g clip-path="url(#85)"></g><g clip-path="url(#86)"></g><g clip-path="url(#87)"></g><g clip-path="url(#88)"></g><g clip-path="url(#89)"></g><g clip-path="url(#90)"></g><g clip-path="url(#91)"></g><g clip-path="url(#92)"></g><g clip-path="url(#93)"></g><path transform="matrix(1 0 0 -1 0 841)" d="M385.15 344.33L441.19 344.33L441.19 344.33L441.19 345.05L441.19 345.05L385.15 345.05z" stroke="none" fill="#548DD4" fill-rule="evenodd" /></g><path transform="matrix(1 0 0 -1 0 841)" d="M84.264 446.11L84.744 446.11L84.744 446.11L84.744 446.59L84.744 446.59L84.264 446.59z" stroke="none" fill="#000000" fill-rule="evenodd" /><path transform="matrix(1 0 0 -1 0 841)" d="M84.744 446.11L169.704 446.11L169.704 446.11L169.704 446.59L169.704 446.59L84.744 446.59z" stroke="none" fill="#000000" fill-rule="evenodd" /><path transform="matrix(1 0 0 -1 0 841)" d="M169.7 446.11L170.18 446.11L170.18 446.11L170.18 446.59L170.18 446.59L169.7 446.59z" stroke="none" fill="#000000" fill-rule="evenodd" /><path transform="matrix(1 0 0 -1 0 841)" d="M170.18 446.11L246.164 446.11L246.164 446.11L246.164 446.59L246.164 446.59L170.18 446.59z" stroke="none" fill="#000000" fill-rule="evenodd" /><path transform="matrix(1 0 0 -1 0 841)" d="M246.17 446.11L246.65 446.11L246.65 446.11L246.65 446.59L246.65 446.59L246.17 446.59z" stroke="none" fill="#000000" fill-rule="evenodd" /><path transform="matrix(1 0 0 -1 0 841)" d="M246.65 446.11L302.81 446.11L302.81 446.11L302.81 446.59L302.81 446.59L246.65 446.59z" stroke="none" fill="#000000" fill-rule="evenodd" /><path transform="matrix(1 0 0 -1 0 841)" d="M302.81 446.11L303.29 446.11L303.29 446.11L303.29 446.59L303.29 446.59L302.81 446.59z" stroke="none" fill="#000000" fill-rule="evenodd" /><path transform="matrix(1 0 0 -1 0 841)" d="M303.29 446.11L373.514 446.11L373.514 446.11L373.514 446.59L373.514 446.59L303.29 446.59z" stroke="none" fill="#000000" fill-rule="evenodd" /><path transform="matrix(1 0 0 -1 0 841)" d="M373.51 446.11L373.99 446.11L373.99 446.11L373.99 446.59L373.99 446.59L373.51 446.59z" stroke="none" fill="#000000" fill-rule="evenodd" /><path transform="matrix(1 0 0 -1 0 841)" d="M373.99 446.11L510.69 446.11L510.69 446.11L510.69 446.59L510.69 446.59L373.99 446.59z" stroke="none" fill="#000000" fill-rule="evenodd" /><path transform="matrix(1 0 0 -1 0 841)" d="M510.7 446.11L511.18 446.11L511.18 446.11L511.18 446.59L511.18 446.59L510.7 446.59z" stroke="none" fill="#000000" fill-rule="evenodd" /><path transform="matrix(1 0 0 -1 0 841)" d="M84.264 337.49L84.744 337.49L84.744 337.49L84.744 446.11L84.744 446.11L84.264 446.11z" stroke="none" fill="#000000" fill-rule="evenodd" /><path transform="matrix(1 0 0 -1 0 841)" d="M169.7 337.49L170.18 337.49L170.18 337.49L170.18 446.11L170.18 446.11L169.7 446.11z" stroke="none" fill="#000000" fill-rule="evenodd" /><path transform="matrix(1 0 0 -1 0 841)" d="M246.17 337.49L246.65 337.49L246.65 337.49L246.65 446.11L246.65 446.11L246.17 446.11z" stroke="none" fill="#000000" fill-rule="evenodd" /><path transform="matrix(1 0 0 -1 0 841)" d="M302.81 337.49L303.29 337.49L303.29 337.49L303.29 446.11L303.29 446.11L302.81 446.11z" stroke="none" fill="#000000" fill-rule="evenodd" /><path transform="matrix(1 0 0 -1 0 841)" d="M373.51 337.49L373.99 337.49L373.99 337.49L373.99 446.11L373.99 446.11L373.51 446.11z" stroke="none" fill="#000000" fill-rule="evenodd" /><path transform="matrix(1 0 0 -1 0 841)" d="M510.7 337.49L511.18 337.49L511.18 337.49L511.18 446.11L511.18 446.11L510.7 446.11z" stroke="none" fill="#000000" fill-rule="evenodd" /><path transform="matrix(1 0 0 -1 0 841)" d="M84.744 309.41L169.704 309.41L169.704 309.41L169.704 337.01L169.704 337.01L84.744 337.01z" stroke="none" fill="#DAEEF3" fill-rule="evenodd" /><g clip-path="url(#94)"><path transform="matrix(1 0 0 -1 0 841)" d="M89.904 310.49L164.544 310.49L164.544 310.49L164.544 337.01L164.544 337.01L89.904 337.01z" stroke="none" fill="#DAEEF3" fill-rule="evenodd" /><g clip-path="url(#95)"></g><g clip-path="url(#96)"></g></g><path transform="matrix(1 0 0 -1 0 841)" d="M170.18 309.41L246.044 309.41L246.044 309.41L246.044 337.01L246.044 337.01L170.18 337.01z" stroke="none" fill="#DAEEF3" fill-rule="evenodd" /><g clip-path="url(#97)"><path transform="matrix(1 0 0 -1 0 841)" d="M175.34 310.49L241.004 310.49L241.004 310.49L241.004 337.01L241.004 337.01L175.34 337.01z" stroke="none" fill="#DAEEF3" fill-rule="evenodd" /><g clip-path="url(#98)"></g><g clip-path="url(#99)"></g></g><path transform="matrix(1 0 0 -1 0 841)" d="M246.65 309.41L302.69 309.41L302.69 309.41L302.69 337.01L302.69 337.01L246.65 337.01z" stroke="none" fill="#DAEEF3" fill-rule="evenodd" /><g clip-path="url(#100)"><path transform="matrix(1 0 0 -1 0 841)" d="M251.69 309.41L297.65 309.41L297.65 309.41L297.65 337.01L297.65 337.01L251.69 337.01z" stroke="none" fill="#DAEEF3" fill-rule="evenodd" /><g clip-path="url(#101)"></g><g clip-path="url(#102)"></g></g><path transform="matrix(1 0 0 -1 0 841)" d="M303.29 309.41L373.514 309.41L373.514 309.41L373.514 337.01L373.514 337.01L303.29 337.01z" stroke="none" fill="#DAEEF3" fill-rule="evenodd" /><g clip-path="url(#103)"><path transform="matrix(1 0 0 -1 0 841)" d="M308.45 310.49L368.354 310.49L368.354 310.49L368.354 337.01L368.354 337.01L308.45 337.01z" stroke="none" fill="#DAEEF3" fill-rule="evenodd" /><g clip-path="url(#104)"></g></g><path transform="matrix(1 0 0 -1 0 841)" d="M373.99 309.41L510.69 309.41L510.69 309.41L510.69 337.01L510.69 337.01L373.99 337.01z" stroke="none" fill="#DAEEF3" fill-rule="evenodd" /><g clip-path="url(#105)"><path transform="matrix(1 0 0 -1 0 841)" d="M379.15 309.41L505.53 309.41L505.53 309.41L505.53 337.01L505.53 337.01L379.15 337.01z" stroke="none" fill="#DAEEF3" fill-rule="evenodd" /><g clip-path="url(#106)"></g><g clip-path="url(#107)"></g><g clip-path="url(#108)"></g><g clip-path="url(#109)"></g><path transform="matrix(1 0 0 -1 0 841)" d="M434.23 315.77L462.31 315.77L462.31 315.77L462.31 316.7299L462.31 316.7299L434.23 316.7299z" stroke="none" fill="#548DD4" fill-rule="evenodd" /></g><path transform="matrix(1 0 0 -1 0 841)" d="M84.264 337.01L84.744 337.01L84.744 337.01L84.744 337.49L84.744 337.49L84.264 337.49z" stroke="none" fill="#000000" fill-rule="evenodd" /><path transform="matrix(1 0 0 -1 0 841)" d="M84.744 337.01L169.704 337.01L169.704 337.01L169.704 337.49L169.704 337.49L84.744 337.49z" stroke="none" fill="#000000" fill-rule="evenodd" /><path transform="matrix(1 0 0 -1 0 841)" d="M169.7 337.01L170.18 337.01L170.18 337.01L170.18 337.49L170.18 337.49L169.7 337.49z" stroke="none" fill="#000000" fill-rule="evenodd" /><path transform="matrix(1 0 0 -1 0 841)" d="M170.18 337.01L246.164 337.01L246.164 337.01L246.164 337.49L246.164 337.49L170.18 337.49z" stroke="none" fill="#000000" fill-rule="evenodd" /><path transform="matrix(1 0 0 -1 0 841)" d="M246.17 337.01L246.65 337.01L246.65 337.01L246.65 337.49L246.65 337.49L246.17 337.49z" stroke="none" fill="#000000" fill-rule="evenodd" /><path transform="matrix(1 0 0 -1 0 841)" d="M246.65 337.01L302.81 337.01L302.81 337.01L302.81 337.49L302.81 337.49L246.65 337.49z" stroke="none" fill="#000000" fill-rule="evenodd" /><path transform="matrix(1 0 0 -1 0 841)" d="M302.81 337.01L303.29 337.01L303.29 337.01L303.29 337.49L303.29 337.49L302.81 337.49z" stroke="none" fill="#000000" fill-rule="evenodd" /><path transform="matrix(1 0 0 -1 0 841)" d="M303.29 337.01L373.514 337.01L373.514 337.01L373.514 337.49L373.514 337.49L303.29 337.49z" stroke="none" fill="#000000" fill-rule="evenodd" /><path transform="matrix(1 0 0 -1 0 841)" d="M373.51 337.01L373.99 337.01L373.99 337.01L373.99 337.49L373.99 337.49L373.51 337.49z" stroke="none" fill="#000000" fill-rule="evenodd" /><path transform="matrix(1 0 0 -1 0 841)" d="M373.99 337.01L510.69 337.01L510.69 337.01L510.69 337.49L510.69 337.49L373.99 337.49z" stroke="none" fill="#000000" fill-rule="evenodd" /><path transform="matrix(1 0 0 -1 0 841)" d="M510.7 337.01L511.18 337.01L511.18 337.01L511.18 337.49L511.18 337.49L510.7 337.49z" stroke="none" fill="#000000" fill-rule="evenodd" /><path transform="matrix(1 0 0 -1 0 841)" d="M84.264 309.41L84.744 309.41L84.744 309.41L84.744 337.01L84.744 337.01L84.264 337.01z" stroke="none" fill="#000000" fill-rule="evenodd" /><path transform="matrix(1 0 0 -1 0 841)" d="M169.7 309.41L170.18 309.41L170.18 309.41L170.18 337.01L170.18 337.01L169.7 337.01z" stroke="none" fill="#000000" fill-rule="evenodd" /><path transform="matrix(1 0 0 -1 0 841)" d="M246.17 309.41L246.65 309.41L246.65 309.41L246.65 337.01L246.65 337.01L246.17 337.01z" stroke="none" fill="#000000" fill-rule="evenodd" /><path transform="matrix(1 0 0 -1 0 841)" d="M302.81 309.41L303.29 309.41L303.29 309.41L303.29 337.01L303.29 337.01L302.81 337.01z" stroke="none" fill="#000000" fill-rule="evenodd" /><path transform="matrix(1 0 0 -1 0 841)" d="M373.51 309.41L373.99 309.41L373.99 309.41L373.99 337.01L373.99 337.01L373.51 337.01z" stroke="none" fill="#000000" fill-rule="evenodd" /><path transform="matrix(1 0 0 -1 0 841)" d="M510.7 309.41L511.18 309.41L511.18 309.41L511.18 337.01L511.18 337.01L510.7 337.01z" stroke="none" fill="#000000" fill-rule="evenodd" /><g clip-path="url(#110)"><g clip-path="url(#111)"></g><g clip-path="url(#112)"></g></g><g clip-path="url(#113)"><g clip-path="url(#114)"></g><g clip-path="url(#115)"></g></g><g clip-path="url(#116)"><g clip-path="url(#117)"></g><g clip-path="url(#118)"></g></g><g clip-path="url(#119)"><g clip-path="url(#120)"></g><g clip-path="url(#121)"></g></g><g clip-path="url(#122)"><g clip-path="url(#123)"></g><g clip-path="url(#124)"></g><g clip-path="url(#125)"></g><g clip-path="url(#126)"></g><g clip-path="url(#127)"></g><g clip-path="url(#128)"></g><g clip-path="url(#129)"></g><path transform="matrix(1 0 0 -1 0 841)" d="M385.15 243.29L433.15 243.29L433.15 243.29L433.15 243.89L433.15 243.89L385.15 243.89z" stroke="none" fill="#000000" fill-rule="evenodd" /></g><path transform="matrix(1 0 0 -1 0 841)" d="M84.264 308.93L84.744 308.93L84.744 308.93L84.744 309.41L84.744 309.41L84.264 309.41z" stroke="none" fill="#000000" fill-rule="evenodd" /><path transform="matrix(1 0 0 -1 0 841)" d="M84.744 308.93L169.704 308.93L169.704 308.93L169.704 309.41L169.704 309.41L84.744 309.41z" stroke="none" fill="#000000" fill-rule="evenodd" /><path transform="matrix(1 0 0 -1 0 841)" d="M169.7 308.93L170.18 308.93L170.18 308.93L170.18 309.41L170.18 309.41L169.7 309.41z" stroke="none" fill="#000000" fill-rule="evenodd" /><path transform="matrix(1 0 0 -1 0 841)" d="M170.18 308.93L246.164 308.93L246.164 308.93L246.164 309.41L246.164 309.41L170.18 309.41z" stroke="none" fill="#000000" fill-rule="evenodd" /><path transform="matrix(1 0 0 -1 0 841)" d="M246.17 308.93L246.65 308.93L246.65 308.93L246.65 309.41L246.65 309.41L246.17 309.41z" stroke="none" fill="#000000" fill-rule="evenodd" /><path transform="matrix(1 0 0 -1 0 841)" d="M246.65 308.93L302.81 308.93L302.81 308.93L302.81 309.41L302.81 309.41L246.65 309.41z" stroke="none" fill="#000000" fill-rule="evenodd" /><path transform="matrix(1 0 0 -1 0 841)" d="M302.81 308.93L303.29 308.93L303.29 308.93L303.29 309.41L303.29 309.41L302.81 309.41z" stroke="none" fill="#000000" fill-rule="evenodd" /><path transform="matrix(1 0 0 -1 0 841)" d="M303.29 308.93L373.514 308.93L373.514 308.93L373.514 309.41L373.514 309.41L303.29 309.41z" stroke="none" fill="#000000" fill-rule="evenodd" /><path transform="matrix(1 0 0 -1 0 841)" d="M373.51 308.93L373.99 308.93L373.99 308.93L373.99 309.41L373.99 309.41L373.51 309.41z" stroke="none" fill="#000000" fill-rule="evenodd" /><path transform="matrix(1 0 0 -1 0 841)" d="M373.99 308.93L510.69 308.93L510.69 308.93L510.69 309.41L510.69 309.41L373.99 309.41z" stroke="none" fill="#000000" fill-rule="evenodd" /><path transform="matrix(1 0 0 -1 0 841)" d="M510.7 308.93L511.18 308.93L511.18 308.93L511.18 309.41L511.18 309.41L510.7 309.41z" stroke="none" fill="#000000" fill-rule="evenodd" /><path transform="matrix(1 0 0 -1 0 841)" d="M84.264 237.29L84.744 237.29L84.744 237.29L84.744 308.93L84.744 308.93L84.264 308.93z" stroke="none" fill="#000000" fill-rule="evenodd" /><path transform="matrix(1 0 0 -1 0 841)" d="M84.264 236.81L84.744 236.81L84.744 236.81L84.744 237.29L84.744 237.29L84.264 237.29z" stroke="none" fill="#000000" fill-rule="evenodd" /><path transform="matrix(1 0 0 -1 0 841)" d="M84.264 236.81L84.744 236.81L84.744 236.81L84.744 237.29L84.744 237.29L84.264 237.29z" stroke="none" fill="#000000" fill-rule="evenodd" /><path transform="matrix(1 0 0 -1 0 841)" d="M84.744 236.81L169.704 236.81L169.704 236.81L169.704 237.29L169.704 237.29L84.744 237.29z" stroke="none" fill="#000000" fill-rule="evenodd" /><path transform="matrix(1 0 0 -1 0 841)" d="M169.7 237.29L170.18 237.29L170.18 237.29L170.18 308.93L170.18 308.93L169.7 308.93z" stroke="none" fill="#000000" fill-rule="evenodd" /><path transform="matrix(1 0 0 -1 0 841)" d="M169.7 236.81L170.18 236.81L170.18 236.81L170.18 237.29L170.18 237.29L169.7 237.29z" stroke="none" fill="#000000" fill-rule="evenodd" /><path transform="matrix(1 0 0 -1 0 841)" d="M170.18 236.81L246.164 236.81L246.164 236.81L246.164 237.29L246.164 237.29L170.18 237.29z" stroke="none" fill="#000000" fill-rule="evenodd" /><path transform="matrix(1 0 0 -1 0 841)" d="M246.17 237.29L246.65 237.29L246.65 237.29L246.65 308.93L246.65 308.93L246.17 308.93z" stroke="none" fill="#000000" fill-rule="evenodd" /><path transform="matrix(1 0 0 -1 0 841)" d="M246.17 236.81L246.65 236.81L246.65 236.81L246.65 237.29L246.65 237.29L246.17 237.29z" stroke="none" fill="#000000" fill-rule="evenodd" /><path transform="matrix(1 0 0 -1 0 841)" d="M246.65 236.81L302.81 236.81L302.81 236.81L302.81 237.29L302.81 237.29L246.65 237.29z" stroke="none" fill="#000000" fill-rule="evenodd" /><path transform="matrix(1 0 0 -1 0 841)" d="M302.81 237.29L303.29 237.29L303.29 237.29L303.29 308.93L303.29 308.93L302.81 308.93z" stroke="none" fill="#000000" fill-rule="evenodd" /><path transform="matrix(1 0 0 -1 0 841)" d="M302.81 236.81L303.29 236.81L303.29 236.81L303.29 237.29L303.29 237.29L302.81 237.29z" stroke="none" fill="#000000" fill-rule="evenodd" /><path transform="matrix(1 0 0 -1 0 841)" d="M303.29 236.81L373.514 236.81L373.514 236.81L373.514 237.29L373.514 237.29L303.29 237.29z" stroke="none" fill="#000000" fill-rule="evenodd" /><path transform="matrix(1 0 0 -1 0 841)" d="M373.51 237.29L373.99 237.29L373.99 237.29L373.99 308.93L373.99 308.93L373.51 308.93z" stroke="none" fill="#000000" fill-rule="evenodd" /><path transform="matrix(1 0 0 -1 0 841)" d="M373.51 236.81L373.99 236.81L373.99 236.81L373.99 237.29L373.99 237.29L373.51 237.29z" stroke="none" fill="#000000" fill-rule="evenodd" /><path transform="matrix(1 0 0 -1 0 841)" d="M373.99 236.81L510.69 236.81L510.69 236.81L510.69 237.29L510.69 237.29L373.99 237.29z" stroke="none" fill="#000000" fill-rule="evenodd" /><path transform="matrix(1 0 0 -1 0 841)" d="M510.7 237.29L511.18 237.29L511.18 237.29L511.18 308.93L511.18 308.93L510.7 308.93z" stroke="none" fill="#000000" fill-rule="evenodd" /><path transform="matrix(1 0 0 -1 0 841)" d="M510.7 236.81L511.18 236.81L511.18 236.81L511.18 237.29L511.18 237.29L510.7 237.29z" stroke="none" fill="#000000" fill-rule="evenodd" /><path transform="matrix(1 0 0 -1 0 841)" d="M510.7 236.81L511.18 236.81L511.18 236.81L511.18 237.29L511.18 237.29L510.7 237.29z" stroke="none" fill="#000000" fill-rule="evenodd" /></g></g></g></svg>