<svg xmlns="http://www.w3.org/2000/svg" xmlns:xlink="http://www.w3.org/1999/xlink" id="body_54" preserveAspectRatio="xMinYMin meet" viewBox="0 0 793 1121"><defs><clipPath id="1"><path d="M0 841L0 -0.9199829L0 -0.9199829L595.32 -0.9199829L595.32 -0.9199829L595.32 841L595.32 841L0 841z" /></clipPath><clipPath id="2"><path d="M0.00125 841.0914L595.4112 841.0914L595.4112 841.0914L595.4112 -0.9186401L595.4112 -0.9186401L0.00125 -0.9186401z" /></clipPath><clipPath id="3"><path d="M295.13 780.251L305.21 780.251L305.21 780.251L305.21 768.011L305.21 768.011L295.13 768.011z" /></clipPath><clipPath id="4"><path d="M295.13 780.256L305.21 780.256L305.21 780.256L305.21 768.016L305.21 768.016L295.13 768.016z" /></clipPath><clipPath id="5"><path d="M295.13 780.256L305.21 780.256L305.21 780.256L305.21 768.016L305.21 768.016L295.13 768.016z" /></clipPath><clipPath id="6"><path d="M84.751 108.55L291.771 108.55L291.771 108.55L291.771 89.44L291.771 89.44L84.751 89.44z" /></clipPath><clipPath id="7"><path d="M84.744 108.54L291.764 108.54L291.764 108.54L291.764 89.43597L291.764 89.43597L84.744 89.43597z" /></clipPath><clipPath id="8"><path d="M84.744 108.54L291.764 108.54L291.764 108.54L291.764 89.43597L291.764 89.43597L84.744 89.43597z" /></clipPath><clipPath id="9"><path d="M292.25 108.55L499.42 108.55L499.42 108.55L499.42 89.44L499.42 89.44L292.25 89.44z" /></clipPath><clipPath id="10"><path d="M292.25 108.54L499.42 108.54L499.42 108.54L499.42 89.43597L499.42 89.43597L292.25 89.43597z" /></clipPath><clipPath id="11"><path d="M292.25 108.54L499.42 108.54L499.42 108.54L499.42 89.43597L499.42 89.43597L292.25 89.43597z" /></clipPath><clipPath id="12"><path d="M292.25 108.54L499.42 108.54L499.42 108.54L499.42 89.43597L499.42 89.43597L292.25 89.43597z" /></clipPath><clipPath id="13"><path d="M84.751 128.11L291.771 128.11L291.771 128.11L291.771 109.03L291.771 109.03L84.751 109.03z" /></clipPath><clipPath id="14"><path d="M84.744 128.1L291.764 128.1L291.764 128.1L291.764 109.02L291.764 109.02L84.744 109.02z" /></clipPath><clipPath id="15"><path d="M84.744 128.1L291.764 128.1L291.764 128.1L291.764 109.02L291.764 109.02L84.744 109.02z" /></clipPath><clipPath id="16"><path d="M292.25 128.11L499.42 128.11L499.42 128.11L499.42 109.03L499.42 109.03L292.25 109.03z" /></clipPath><clipPath id="17"><path d="M292.25 128.1L499.42 128.1L499.42 128.1L499.42 109.02L499.42 109.02L292.25 109.02z" /></clipPath><clipPath id="18"><path d="M292.25 128.1L499.42 128.1L499.42 128.1L499.42 109.02L499.42 109.02L292.25 109.02z" /></clipPath><clipPath id="19"><path d="M84.751 147.55L291.771 147.55L291.771 147.55L291.771 128.59L291.771 128.59L84.751 128.59z" /></clipPath><clipPath id="20"><path d="M84.744 147.54L291.764 147.54L291.764 147.54L291.764 128.58L291.764 128.58L84.744 128.58z" /></clipPath><clipPath id="21"><path d="M84.744 147.54L291.764 147.54L291.764 147.54L291.764 128.58L291.764 128.58L84.744 128.58z" /></clipPath><clipPath id="22"><path d="M292.25 147.55L499.42 147.55L499.42 147.55L499.42 128.59L499.42 128.59L292.25 128.59z" /></clipPath><clipPath id="23"><path d="M292.25 147.54L499.42 147.54L499.42 147.54L499.42 128.58L499.42 128.58L292.25 128.58z" /></clipPath><clipPath id="24"><path d="M292.25 147.54L499.42 147.54L499.42 147.54L499.42 128.58L499.42 128.58L292.25 128.58z" /></clipPath><clipPath id="25"><path d="M84.751 167.11L291.771 167.11L291.771 167.11L291.771 148.15L291.771 148.15L84.751 148.15z" /></clipPath><clipPath id="26"><path d="M84.744 167.1L291.764 167.1L291.764 167.1L291.764 148.14L291.764 148.14L84.744 148.14z" /></clipPath><clipPath id="27"><path d="M84.744 167.1L291.764 167.1L291.764 167.1L291.764 148.14L291.764 148.14L84.744 148.14z" /></clipPath><clipPath id="28"><path d="M292.25 167.11L499.42 167.11L499.42 167.11L499.42 148.15L499.42 148.15L292.25 148.15z" /></clipPath><clipPath id="29"><path d="M292.25 167.1L499.42 167.1L499.42 167.1L499.42 148.14L499.42 148.14L292.25 148.14z" /></clipPath><clipPath id="30"><path d="M292.25 167.1L499.42 167.1L499.42 167.1L499.42 148.14L499.42 148.14L292.25 148.14z" /></clipPath><clipPath id="31"><path d="M84.751 206.23L510.691 206.23L510.691 206.23L510.691 187.15L510.691 187.15L84.751 187.15z" /></clipPath><clipPath id="32"><path d="M84.744 206.22L510.694 206.22L510.694 206.22L510.694 187.14L510.694 187.14L84.744 187.14z" /></clipPath><clipPath id="33"><path d="M84.744 206.22L510.694 206.22L510.694 206.22L510.694 187.14L510.694 187.14L84.744 187.14z" /></clipPath><clipPath id="34"><path d="M84.744 206.22L510.694 206.22L510.694 206.22L510.694 187.14L510.694 187.14L84.744 187.14z" /></clipPath><clipPath id="35"><path d="M84.751 397.29L510.691 397.29L510.691 397.29L510.691 206.71L510.691 206.71L84.751 206.71z" /></clipPath><clipPath id="36"><path d="M84.744 397.29L510.694 397.29L510.694 397.29L510.694 206.71L510.694 206.71L84.744 206.71z" /></clipPath><clipPath id="37"><path d="M84.744 397.29L510.694 397.29L510.694 397.29L510.694 206.71L510.694 206.71L84.744 206.71z" /></clipPath><clipPath id="38"><path d="M84.744 397.29L510.694 397.29L510.694 397.29L510.694 206.71L510.694 206.71L84.744 206.71z" /></clipPath><clipPath id="39"><path d="M84.744 397.29L510.694 397.29L510.694 397.29L510.694 206.71L510.694 206.71L84.744 206.71z" /></clipPath><clipPath id="40"><path d="M84.744 397.29L510.694 397.29L510.694 397.29L510.694 206.71L510.694 206.71L84.744 206.71z" /></clipPath><clipPath id="41"><path d="M84.744 397.29L510.694 397.29L510.694 397.29L510.694 206.71L510.694 206.71L84.744 206.71z" /></clipPath><clipPath id="42"><path d="M84.744 397.29L510.694 397.29L510.694 397.29L510.694 206.71L510.694 206.71L84.744 206.71z" /></clipPath><clipPath id="43"><path d="M84.744 397.29L510.694 397.29L510.694 397.29L510.694 206.71L510.694 206.71L84.744 206.71z" /></clipPath><clipPath id="44"><path d="M84.744 397.29L510.694 397.29L510.694 397.29L510.694 206.71L510.694 206.71L84.744 206.71z" /></clipPath><clipPath id="45"><path d="M84.744 397.29L510.694 397.29L510.694 397.29L510.694 206.71L510.694 206.71L84.744 206.71z" /></clipPath><clipPath id="46"><path d="M84.744 397.29L510.694 397.29L510.694 397.29L510.694 206.71L510.694 206.71L84.744 206.71z" /></clipPath><clipPath id="47"><path d="M84.744 397.29L510.694 397.29L510.694 397.29L510.694 206.71L510.694 206.71L84.744 206.71z" /></clipPath><clipPath id="48"><path d="M84.744 397.29L510.694 397.29L510.694 397.29L510.694 206.71L510.694 206.71L84.744 206.71z" /></clipPath><clipPath id="49"><path d="M84.744 397.29L510.694 397.29L510.694 397.29L510.694 206.71L510.694 206.71L84.744 206.71z" /></clipPath><clipPath id="50"><path d="M84.744 397.29L510.694 397.29L510.694 397.29L510.694 206.71L510.694 206.71L84.744 206.71z" /></clipPath><clipPath id="51"><path d="M84.744 397.29L510.694 397.29L510.694 397.29L510.694 206.71L510.694 206.71L84.744 206.71z" /></clipPath><clipPath id="52"><path d="M84.744 397.29L510.694 397.29L510.694 397.29L510.694 206.71L510.694 206.71L84.744 206.71z" /></clipPath><clipPath id="53"><path d="M84.744 397.29L510.694 397.29L510.694 397.29L510.694 206.71L510.694 206.71L84.744 206.71z" /></clipPath><clipPath id="54"><path d="M84.744 397.29L510.694 397.29L510.694 397.29L510.694 206.71L510.694 206.71L84.744 206.71z" /></clipPath><clipPath id="55"><path d="M84.744 397.29L510.694 397.29L510.694 397.29L510.694 206.71L510.694 206.71L84.744 206.71z" /></clipPath><clipPath id="56"><path d="M84.744 397.29L510.694 397.29L510.694 397.29L510.694 206.71L510.694 206.71L84.744 206.71z" /></clipPath><clipPath id="57"><path d="M84.744 397.29L510.694 397.29L510.694 397.29L510.694 206.71L510.694 206.71L84.744 206.71z" /></clipPath><clipPath id="58"><path d="M84.744 397.29L510.694 397.29L510.694 397.29L510.694 206.71L510.694 206.71L84.744 206.71z" /></clipPath><clipPath id="59"><path d="M84.751 525.48L169.591 525.48L169.591 525.48L169.591 497.88L169.591 497.88L84.751 497.88z" /></clipPath><clipPath id="60"><path d="M84.744 525.47L169.584 525.47L169.584 525.47L169.584 497.87L169.584 497.87L84.744 497.87z" /></clipPath><clipPath id="61"><path d="M84.744 525.47L169.584 525.47L169.584 525.47L169.584 497.87L169.584 497.87L84.744 497.87z" /></clipPath><clipPath id="62"><path d="M170.19 525.48L224.325 525.48L224.325 525.48L224.325 497.88L224.325 497.88L170.19 497.88z" /></clipPath><clipPath id="63"><path d="M170.18 525.47L224.324 525.47L224.324 525.47L224.324 497.87L224.324 497.87L170.18 497.87z" /></clipPath><clipPath id="64"><path d="M170.18 525.47L224.324 525.47L224.324 525.47L224.324 497.87L224.324 497.87L170.18 497.87z" /></clipPath><clipPath id="65"><path d="M224.81 525.48L273.77 525.48L273.77 525.48L273.77 497.88L273.77 497.88L224.81 497.88z" /></clipPath><clipPath id="66"><path d="M224.81 525.47L273.77 525.47L273.77 525.47L273.77 497.87L273.77 497.87L224.81 497.87z" /></clipPath><clipPath id="67"><path d="M224.81 525.47L273.77 525.47L273.77 525.47L273.77 497.87L273.77 497.87L224.81 497.87z" /></clipPath><clipPath id="68"><path d="M274.25 525.48L380.12 525.48L380.12 525.48L380.12 497.88L380.12 497.88L274.25 497.88z" /></clipPath><clipPath id="69"><path d="M274.25 525.47L380.11 525.47L380.11 525.47L380.11 497.87L380.11 497.87L274.25 497.87z" /></clipPath><clipPath id="70"><path d="M274.25 525.47L380.11 525.47L380.11 525.47L380.11 497.87L380.11 497.87L274.25 497.87z" /></clipPath><clipPath id="71"><path d="M380.6 525.48L510.7 525.48L510.7 525.48L510.7 497.88L510.7 497.88L380.6 497.88z" /></clipPath><clipPath id="72"><path d="M380.59 525.47L510.69 525.47L510.69 525.47L510.69 497.87L510.69 497.87L380.59 497.87z" /></clipPath><clipPath id="73"><path d="M380.59 525.47L510.69 525.47L510.69 525.47L510.69 497.87L510.69 497.87L380.59 497.87z" /></clipPath><clipPath id="74"><path d="M84.751 586.8L169.591 586.8L169.591 586.8L169.591 525.96L169.591 525.96L84.751 525.96z" /></clipPath><clipPath id="75"><path d="M84.744 586.79L169.584 586.79L169.584 586.79L169.584 525.95L169.584 525.95L84.744 525.95z" /></clipPath><clipPath id="76"><path d="M84.744 586.79L169.584 586.79L169.584 586.79L169.584 525.95L169.584 525.95L84.744 525.95z" /></clipPath><clipPath id="77"><path d="M170.19 586.8L224.325 586.8L224.325 586.8L224.325 525.96L224.325 525.96L170.19 525.96z" /></clipPath><clipPath id="78"><path d="M170.18 586.79L224.324 586.79L224.324 586.79L224.324 525.95L224.324 525.95L170.18 525.95z" /></clipPath><clipPath id="79"><path d="M170.18 586.79L224.324 586.79L224.324 586.79L224.324 525.95L224.324 525.95L170.18 525.95z" /></clipPath><clipPath id="80"><path d="M224.81 586.8L273.77 586.8L273.77 586.8L273.77 525.96L273.77 525.96L224.81 525.96z" /></clipPath><clipPath id="81"><path d="M224.81 586.79L273.77 586.79L273.77 586.79L273.77 525.95L273.77 525.95L224.81 525.95z" /></clipPath><clipPath id="82"><path d="M224.81 586.79L273.77 586.79L273.77 586.79L273.77 525.95L273.77 525.95L224.81 525.95z" /></clipPath><clipPath id="83"><path d="M274.25 586.8L380.12 586.8L380.12 586.8L380.12 525.96L380.12 525.96L274.25 525.96z" /></clipPath><clipPath id="84"><path d="M274.25 586.79L380.11 586.79L380.11 586.79L380.11 525.95L380.11 525.95L274.25 525.95z" /></clipPath><clipPath id="85"><path d="M274.25 586.79L380.11 586.79L380.11 586.79L380.11 525.95L380.11 525.95L274.25 525.95z" /></clipPath><clipPath id="86"><path d="M274.25 586.79L380.11 586.79L380.11 586.79L380.11 525.95L380.11 525.95L274.25 525.95z" /></clipPath><clipPath id="87"><path d="M274.25 586.79L380.11 586.79L380.11 586.79L380.11 525.95L380.11 525.95L274.25 525.95z" /></clipPath><clipPath id="88"><path d="M380.6 586.8L510.7 586.8L510.7 586.8L510.7 525.96L510.7 525.96L380.6 525.96z" /></clipPath><clipPath id="89"><path d="M380.59 586.79L510.69 586.79L510.69 586.79L510.69 525.95L510.69 525.95L380.59 525.95z" /></clipPath><clipPath id="90"><path d="M380.59 586.79L510.69 586.79L510.69 586.79L510.69 525.95L510.69 525.95L380.59 525.95z" /></clipPath><clipPath id="91"><path d="M84.751 614.88L169.591 614.88L169.591 614.88L169.591 587.28L169.591 587.28L84.751 587.28z" /></clipPath><clipPath id="92"><path d="M84.744 614.87L169.584 614.87L169.584 614.87L169.584 587.27L169.584 587.27L84.744 587.27z" /></clipPath><clipPath id="93"><path d="M84.744 614.87L169.584 614.87L169.584 614.87L169.584 587.27L169.584 587.27L84.744 587.27z" /></clipPath><clipPath id="94"><path d="M170.19 614.88L224.325 614.88L224.325 614.88L224.325 587.28L224.325 587.28L170.19 587.28z" /></clipPath><clipPath id="95"><path d="M170.18 614.87L224.324 614.87L224.324 614.87L224.324 587.27L224.324 587.27L170.18 587.27z" /></clipPath><clipPath id="96"><path d="M170.18 614.87L224.324 614.87L224.324 614.87L224.324 587.27L224.324 587.27L170.18 587.27z" /></clipPath><clipPath id="97"><path d="M224.81 614.88L273.77 614.88L273.77 614.88L273.77 587.28L273.77 587.28L224.81 587.28z" /></clipPath><clipPath id="98"><path d="M224.81 614.87L273.77 614.87L273.77 614.87L273.77 587.27L273.77 587.27L224.81 587.27z" /></clipPath><clipPath id="99"><path d="M224.81 614.87L273.77 614.87L273.77 614.87L273.77 587.27L273.77 587.27L224.81 587.27z" /></clipPath><clipPath id="100"><path d="M274.25 614.88L380.12 614.88L380.12 614.88L380.12 587.28L380.12 587.28L274.25 587.28z" /></clipPath><clipPath id="101"><path d="M274.25 614.87L380.11 614.87L380.11 614.87L380.11 587.27L380.11 587.27L274.25 587.27z" /></clipPath><clipPath id="102"><path d="M274.25 614.87L380.11 614.87L380.11 614.87L380.11 587.27L380.11 587.27L274.25 587.27z" /></clipPath><clipPath id="103"><path d="M380.6 614.88L510.7 614.88L510.7 614.88L510.7 587.28L510.7 587.28L380.6 587.28z" /></clipPath><clipPath id="104"><path d="M380.59 614.87L510.69 614.87L510.69 614.87L510.69 587.27L510.69 587.27L380.59 587.27z" /></clipPath><clipPath id="105"><path d="M380.59 614.87L510.69 614.87L510.69 614.87L510.69 587.27L510.69 587.27L380.59 587.27z" /></clipPath><clipPath id="106"><path d="M84.751 643.08L169.591 643.08L169.591 643.08L169.591 615.48L169.591 615.48L84.751 615.48z" /></clipPath><clipPath id="107"><path d="M84.744 643.07L169.584 643.07L169.584 643.07L169.584 615.47L169.584 615.47L84.744 615.47z" /></clipPath><clipPath id="108"><path d="M84.744 643.07L169.584 643.07L169.584 643.07L169.584 615.47L169.584 615.47L84.744 615.47z" /></clipPath><clipPath id="109"><path d="M170.19 643.08L224.325 643.08L224.325 643.08L224.325 615.48L224.325 615.48L170.19 615.48z" /></clipPath><clipPath id="110"><path d="M170.18 643.07L224.324 643.07L224.324 643.07L224.324 615.47L224.324 615.47L170.18 615.47z" /></clipPath><clipPath id="111"><path d="M170.18 643.07L224.324 643.07L224.324 643.07L224.324 615.47L224.324 615.47L170.18 615.47z" /></clipPath><clipPath id="112"><path d="M224.81 643.08L273.77 643.08L273.77 643.08L273.77 615.48L273.77 615.48L224.81 615.48z" /></clipPath><clipPath id="113"><path d="M224.81 643.07L273.77 643.07L273.77 643.07L273.77 615.47L273.77 615.47L224.81 615.47z" /></clipPath><clipPath id="114"><path d="M224.81 643.07L273.77 643.07L273.77 643.07L273.77 615.47L273.77 615.47L224.81 615.47z" /></clipPath><clipPath id="115"><path d="M274.25 643.08L380.12 643.08L380.12 643.08L380.12 615.48L380.12 615.48L274.25 615.48z" /></clipPath><clipPath id="116"><path d="M274.25 643.07L380.11 643.07L380.11 643.07L380.11 615.47L380.11 615.47L274.25 615.47z" /></clipPath><clipPath id="117"><path d="M274.25 643.07L380.11 643.07L380.11 643.07L380.11 615.47L380.11 615.47L274.25 615.47z" /></clipPath><clipPath id="118"><path d="M380.6 643.08L510.7 643.08L510.7 643.08L510.7 615.48L510.7 615.48L380.6 615.48z" /></clipPath><clipPath id="119"><path d="M380.59 643.07L510.69 643.07L510.69 643.07L510.69 615.47L510.69 615.47L380.59 615.47z" /></clipPath><clipPath id="120"><path d="M380.59 643.07L510.69 643.07L510.69 643.07L510.69 615.47L510.69 615.47L380.59 615.47z" /></clipPath><clipPath id="121"><path d="M380.59 643.07L510.69 643.07L510.69 643.07L510.69 615.47L510.69 615.47L380.59 615.47z" /></clipPath><clipPath id="122"><path d="M84.751 689.41L169.591 689.41L169.591 689.41L169.591 643.555L169.591 643.555L84.751 643.555z" /></clipPath><clipPath id="123"><path d="M84.744 689.42L169.584 689.42L169.584 689.42L169.584 643.556L169.584 643.556L84.744 643.556z" /></clipPath><clipPath id="124"><path d="M84.744 689.42L169.584 689.42L169.584 689.42L169.584 643.556L169.584 643.556L84.744 643.556z" /></clipPath><clipPath id="125"><path d="M170.19 689.41L224.325 689.41L224.325 689.41L224.325 643.555L224.325 643.555L170.19 643.555z" /></clipPath><clipPath id="126"><path d="M170.18 689.42L224.324 689.42L224.324 689.42L224.324 643.556L224.324 643.556L170.18 643.556z" /></clipPath><clipPath id="127"><path d="M170.18 689.42L224.324 689.42L224.324 689.42L224.324 643.556L224.324 643.556L170.18 643.556z" /></clipPath><clipPath id="128"><path d="M224.81 689.41L273.77 689.41L273.77 689.41L273.77 643.555L273.77 643.555L224.81 643.555z" /></clipPath><clipPath id="129"><path d="M224.81 689.42L273.77 689.42L273.77 689.42L273.77 643.556L273.77 643.556L224.81 643.556z" /></clipPath><clipPath id="130"><path d="M224.81 689.42L273.77 689.42L273.77 689.42L273.77 643.556L273.77 643.556L224.81 643.556z" /></clipPath><clipPath id="131"><path d="M274.25 689.41L380.12 689.41L380.12 689.41L380.12 643.555L380.12 643.555L274.25 643.555z" /></clipPath><clipPath id="132"><path d="M274.25 689.42L380.11 689.42L380.11 689.42L380.11 643.556L380.11 643.556L274.25 643.556z" /></clipPath><clipPath id="133"><path d="M274.25 689.42L380.11 689.42L380.11 689.42L380.11 643.556L380.11 643.556L274.25 643.556z" /></clipPath><clipPath id="134"><path d="M274.25 689.42L380.11 689.42L380.11 689.42L380.11 643.556L380.11 643.556L274.25 643.556z" /></clipPath><clipPath id="135"><path d="M380.6 689.41L510.7 689.41L510.7 689.41L510.7 643.555L510.7 643.555L380.6 643.555z" /></clipPath><clipPath id="136"><path d="M380.59 689.42L510.69 689.42L510.69 689.42L510.69 643.556L510.69 643.556L380.59 643.556z" /></clipPath><clipPath id="137"><path d="M380.59 689.42L510.69 689.42L510.69 689.42L510.69 643.556L510.69 643.556L380.59 643.556z" /></clipPath><clipPath id="138"><path d="M380.59 689.42L510.69 689.42L510.69 689.42L510.69 643.556L510.69 643.556L380.59 643.556z" /></clipPath><clipPath id="139"><path d="M84.751 717.61L169.591 717.61L169.591 717.61L169.591 689.89L169.591 689.89L84.751 689.89z" /></clipPath><clipPath id="140"><path d="M84.744 717.62L169.584 717.62L169.584 717.62L169.584 689.9L169.584 689.9L84.744 689.9z" /></clipPath><clipPath id="141"><path d="M84.744 717.62L169.584 717.62L169.584 717.62L169.584 689.9L169.584 689.9L84.744 689.9z" /></clipPath><clipPath id="142"><path d="M170.19 717.61L224.325 717.61L224.325 717.61L224.325 689.89L224.325 689.89L170.19 689.89z" /></clipPath><clipPath id="143"><path d="M170.18 717.62L224.324 717.62L224.324 717.62L224.324 689.9L224.324 689.9L170.18 689.9z" /></clipPath><clipPath id="144"><path d="M170.18 717.62L224.324 717.62L224.324 717.62L224.324 689.9L224.324 689.9L170.18 689.9z" /></clipPath><clipPath id="145"><path d="M224.81 717.61L273.77 717.61L273.77 717.61L273.77 689.89L273.77 689.89L224.81 689.89z" /></clipPath><clipPath id="146"><path d="M224.81 717.62L273.77 717.62L273.77 717.62L273.77 689.9L273.77 689.9L224.81 689.9z" /></clipPath><clipPath id="147"><path d="M224.81 717.62L273.77 717.62L273.77 717.62L273.77 689.9L273.77 689.9L224.81 689.9z" /></clipPath><clipPath id="148"><path d="M274.25 717.61L380.12 717.61L380.12 717.61L380.12 689.89L380.12 689.89L274.25 689.89z" /></clipPath><clipPath id="149"><path d="M274.25 717.62L380.11 717.62L380.11 717.62L380.11 689.9L380.11 689.9L274.25 689.9z" /></clipPath><clipPath id="150"><path d="M274.25 717.62L380.11 717.62L380.11 717.62L380.11 689.9L380.11 689.9L274.25 689.9z" /></clipPath><clipPath id="151"><path d="M380.6 717.61L510.7 717.61L510.7 717.61L510.7 689.89L510.7 689.89L380.6 689.89z" /></clipPath><clipPath id="152"><path d="M380.59 717.62L510.69 717.62L510.69 717.62L510.69 689.9L510.69 689.9L380.59 689.9z" /></clipPath><clipPath id="153"><path d="M380.59 717.62L510.69 717.62L510.69 717.62L510.69 689.9L510.69 689.9L380.59 689.9z" /></clipPath><clipPath id="154"><path d="M84.751 745.691L169.591 745.691L169.591 745.691L169.591 718.091L169.591 718.091L84.751 718.091z" /></clipPath><clipPath id="155"><path d="M84.744 745.696L169.584 745.696L169.584 745.696L169.584 718.096L169.584 718.096L84.744 718.096z" /></clipPath><clipPath id="156"><path d="M84.744 745.696L169.584 745.696L169.584 745.696L169.584 718.096L169.584 718.096L84.744 718.096z" /></clipPath><clipPath id="157"><path d="M170.19 745.691L224.325 745.691L224.325 745.691L224.325 718.091L224.325 718.091L170.19 718.091z" /></clipPath><clipPath id="158"><path d="M170.18 745.696L224.324 745.696L224.324 745.696L224.324 718.096L224.324 718.096L170.18 718.096z" /></clipPath><clipPath id="159"><path d="M170.18 745.696L224.324 745.696L224.324 745.696L224.324 718.096L224.324 718.096L170.18 718.096z" /></clipPath><clipPath id="160"><path d="M224.81 745.691L273.77 745.691L273.77 745.691L273.77 718.091L273.77 718.091L224.81 718.091z" /></clipPath><clipPath id="161"><path d="M224.81 745.696L273.77 745.696L273.77 745.696L273.77 718.096L273.77 718.096L224.81 718.096z" /></clipPath><clipPath id="162"><path d="M224.81 745.696L273.77 745.696L273.77 745.696L273.77 718.096L273.77 718.096L224.81 718.096z" /></clipPath><clipPath id="163"><path d="M274.25 745.691L380.12 745.691L380.12 745.691L380.12 718.091L380.12 718.091L274.25 718.091z" /></clipPath><clipPath id="164"><path d="M274.25 745.696L380.11 745.696L380.11 745.696L380.11 718.096L380.11 718.096L274.25 718.096z" /></clipPath><clipPath id="165"><path d="M274.25 745.696L380.11 745.696L380.11 745.696L380.11 718.096L380.11 718.096L274.25 718.096z" /></clipPath><clipPath id="166"><path d="M380.6 745.691L510.7 745.691L510.7 745.691L510.7 718.091L510.7 718.091L380.6 718.091z" /></clipPath><clipPath id="167"><path d="M380.59 745.696L510.69 745.696L510.69 745.696L510.69 718.096L510.69 718.096L380.59 718.096z" /></clipPath><clipPath id="168"><path d="M380.59 745.696L510.69 745.696L510.69 745.696L510.69 718.096L510.69 718.096L380.59 718.096z" /></clipPath></defs><g transform="matrix(1.333333 0 0 1.333333 0 0)"><g><g clip-path="url(#1)"><path transform="matrix(1 0 0 -1 0 841)" d="M457.63 53.424L505.534 53.424L505.534 53.424L505.534 54.02404L505.534 54.02404L457.63 54.02404z" stroke="none" fill="#000000" fill-rule="evenodd" /><g clip-path="url(#2)"><path transform="matrix(1 0 0 -1 0 841)" d="M88.464 78.984L506.974 78.984L506.974 78.984L506.974 81.984L506.974 81.984L88.464 81.984z" stroke="none" fill="#000000" fill-rule="evenodd" /><path transform="matrix(1 0 0 -1 0 841)" d="M88.464 77.544L506.974 77.544L506.974 77.544L506.974 78.26397L506.974 78.26397L88.464 78.26397z" stroke="none" fill="#000000" fill-rule="evenodd" /></g><g clip-path="url(#3)"><g clip-path="url(#4)"></g><g clip-path="url(#5)"></g></g><path transform="matrix(1 0 0 -1 0 841)" d="M84.744 732.46L291.764 732.46L291.764 732.46L291.764 751.564L291.764 751.564L84.744 751.564z" stroke="none" fill="#DAEEF3" fill-rule="evenodd" /><g clip-path="url(#6)"><path transform="matrix(1 0 0 -1 0 841)" d="M89.904 732.46L286.604 732.46L286.604 732.46L286.604 751.564L286.604 751.564L89.904 751.564z" stroke="none" fill="#DAEEF3" fill-rule="evenodd" /><g clip-path="url(#7)"></g><g clip-path="url(#8)"></g></g><path transform="matrix(1 0 0 -1 0 841)" d="M292.25 732.46L499.42 732.46L499.42 732.46L499.42 751.564L499.42 751.564L292.25 751.564z" stroke="none" fill="#DAEEF3" fill-rule="evenodd" /><g clip-path="url(#9)"><path transform="matrix(1 0 0 -1 0 841)" d="M297.41 732.46L494.26 732.46L494.26 732.46L494.26 751.564L494.26 751.564L297.41 751.564z" stroke="none" fill="#DAEEF3" fill-rule="evenodd" /><g clip-path="url(#10)"></g><g clip-path="url(#11)"></g><g clip-path="url(#12)"></g></g><path transform="matrix(1 0 0 -1 0 841)" d="M84.264 751.56L84.744 751.56L84.744 751.56L84.744 752.04L84.744 752.04L84.264 752.04z" stroke="none" fill="#000000" fill-rule="evenodd" /><path transform="matrix(1 0 0 -1 0 841)" d="M84.264 751.56L84.744 751.56L84.744 751.56L84.744 752.04L84.744 752.04L84.264 752.04z" stroke="none" fill="#000000" fill-rule="evenodd" /><path transform="matrix(1 0 0 -1 0 841)" d="M84.744 751.56L291.884 751.56L291.884 751.56L291.884 752.04L291.884 752.04L84.744 752.04z" stroke="none" fill="#000000" fill-rule="evenodd" /><path transform="matrix(1 0 0 -1 0 841)" d="M291.89 751.56L292.37 751.56L292.37 751.56L292.37 752.04L292.37 752.04L291.89 752.04z" stroke="none" fill="#000000" fill-rule="evenodd" /><path transform="matrix(1 0 0 -1 0 841)" d="M292.37 751.56L499.42 751.56L499.42 751.56L499.42 752.04L499.42 752.04L292.37 752.04z" stroke="none" fill="#000000" fill-rule="evenodd" /><path transform="matrix(1 0 0 -1 0 841)" d="M499.42 751.56L499.9 751.56L499.9 751.56L499.9 752.04L499.9 752.04L499.42 752.04z" stroke="none" fill="#000000" fill-rule="evenodd" /><path transform="matrix(1 0 0 -1 0 841)" d="M499.42 751.56L499.9 751.56L499.9 751.56L499.9 752.04L499.9 752.04L499.42 752.04z" stroke="none" fill="#000000" fill-rule="evenodd" /><path transform="matrix(1 0 0 -1 0 841)" d="M84.264 732.46L84.744 732.46L84.744 732.46L84.744 751.564L84.744 751.564L84.264 751.564z" stroke="none" fill="#000000" fill-rule="evenodd" /><path transform="matrix(1 0 0 -1 0 841)" d="M291.89 732.46L292.37 732.46L292.37 732.46L292.37 751.564L292.37 751.564L291.89 751.564z" stroke="none" fill="#000000" fill-rule="evenodd" /><path transform="matrix(1 0 0 -1 0 841)" d="M499.42 732.46L499.9 732.46L499.9 732.46L499.9 751.564L499.9 751.564L499.42 751.564z" stroke="none" fill="#000000" fill-rule="evenodd" /><g clip-path="url(#13)"><g clip-path="url(#14)"></g><g clip-path="url(#15)"></g></g><g clip-path="url(#16)"><g clip-path="url(#17)"></g><g clip-path="url(#18)"></g></g><path transform="matrix(1 0 0 -1 0 841)" d="M84.264 731.98L84.744 731.98L84.744 731.98L84.744 732.46L84.744 732.46L84.264 732.46z" stroke="none" fill="#000000" fill-rule="evenodd" /><path transform="matrix(1 0 0 -1 0 841)" d="M84.744 731.98L291.884 731.98L291.884 731.98L291.884 732.46L291.884 732.46L84.744 732.46z" stroke="none" fill="#000000" fill-rule="evenodd" /><path transform="matrix(1 0 0 -1 0 841)" d="M291.89 731.98L292.37 731.98L292.37 731.98L292.37 732.46L292.37 732.46L291.89 732.46z" stroke="none" fill="#000000" fill-rule="evenodd" /><path transform="matrix(1 0 0 -1 0 841)" d="M292.37 731.98L499.42 731.98L499.42 731.98L499.42 732.46L499.42 732.46L292.37 732.46z" stroke="none" fill="#000000" fill-rule="evenodd" /><path transform="matrix(1 0 0 -1 0 841)" d="M499.42 731.98L499.9 731.98L499.9 731.98L499.9 732.46L499.9 732.46L499.42 732.46z" stroke="none" fill="#000000" fill-rule="evenodd" /><path transform="matrix(1 0 0 -1 0 841)" d="M84.264 712.9L84.744 712.9L84.744 712.9L84.744 731.98L84.744 731.98L84.264 731.98z" stroke="none" fill="#000000" fill-rule="evenodd" /><path transform="matrix(1 0 0 -1 0 841)" d="M291.89 712.9L292.37 712.9L292.37 712.9L292.37 731.98L292.37 731.98L291.89 731.98z" stroke="none" fill="#000000" fill-rule="evenodd" /><path transform="matrix(1 0 0 -1 0 841)" d="M499.42 712.9L499.9 712.9L499.9 712.9L499.9 731.98L499.9 731.98L499.42 731.98z" stroke="none" fill="#000000" fill-rule="evenodd" /><path transform="matrix(1 0 0 -1 0 841)" d="M84.744 693.46L291.764 693.46L291.764 693.46L291.764 712.42L291.764 712.42L84.744 712.42z" stroke="none" fill="#DAEEF3" fill-rule="evenodd" /><g clip-path="url(#19)"><path transform="matrix(1 0 0 -1 0 841)" d="M89.904 693.46L286.604 693.46L286.604 693.46L286.604 712.42L286.604 712.42L89.904 712.42z" stroke="none" fill="#DAEEF3" fill-rule="evenodd" /><g clip-path="url(#20)"></g><g clip-path="url(#21)"></g></g><path transform="matrix(1 0 0 -1 0 841)" d="M292.25 693.46L499.42 693.46L499.42 693.46L499.42 712.42L499.42 712.42L292.25 712.42z" stroke="none" fill="#DAEEF3" fill-rule="evenodd" /><g clip-path="url(#22)"><path transform="matrix(1 0 0 -1 0 841)" d="M297.41 693.46L494.26 693.46L494.26 693.46L494.26 712.42L494.26 712.42L297.41 712.42z" stroke="none" fill="#DAEEF3" fill-rule="evenodd" /><g clip-path="url(#23)"></g><g clip-path="url(#24)"></g></g><path transform="matrix(1 0 0 -1 0 841)" d="M84.264 712.42L84.744 712.42L84.744 712.42L84.744 712.9L84.744 712.9L84.264 712.9z" stroke="none" fill="#000000" fill-rule="evenodd" /><path transform="matrix(1 0 0 -1 0 841)" d="M84.744 712.42L291.884 712.42L291.884 712.42L291.884 712.9L291.884 712.9L84.744 712.9z" stroke="none" fill="#000000" fill-rule="evenodd" /><path transform="matrix(1 0 0 -1 0 841)" d="M291.89 712.42L292.37 712.42L292.37 712.42L292.37 712.9L292.37 712.9L291.89 712.9z" stroke="none" fill="#000000" fill-rule="evenodd" /><path transform="matrix(1 0 0 -1 0 841)" d="M292.37 712.42L499.42 712.42L499.42 712.42L499.42 712.9L499.42 712.9L292.37 712.9z" stroke="none" fill="#000000" fill-rule="evenodd" /><path transform="matrix(1 0 0 -1 0 841)" d="M499.42 712.42L499.9 712.42L499.9 712.42L499.9 712.9L499.9 712.9L499.42 712.9z" stroke="none" fill="#000000" fill-rule="evenodd" /><path transform="matrix(1 0 0 -1 0 841)" d="M84.264 693.46L84.744 693.46L84.744 693.46L84.744 712.42L84.744 712.42L84.264 712.42z" stroke="none" fill="#000000" fill-rule="evenodd" /><path transform="matrix(1 0 0 -1 0 841)" d="M291.89 693.46L292.37 693.46L292.37 693.46L292.37 712.42L292.37 712.42L291.89 712.42z" stroke="none" fill="#000000" fill-rule="evenodd" /><path transform="matrix(1 0 0 -1 0 841)" d="M499.42 693.46L499.9 693.46L499.9 693.46L499.9 712.42L499.9 712.42L499.42 712.42z" stroke="none" fill="#000000" fill-rule="evenodd" /><g clip-path="url(#25)"><g clip-path="url(#26)"></g><g clip-path="url(#27)"></g></g><g clip-path="url(#28)"><g clip-path="url(#29)"></g><g clip-path="url(#30)"></g></g><path transform="matrix(1 0 0 -1 0 841)" d="M84.264 692.98L84.744 692.98L84.744 692.98L84.744 693.46L84.744 693.46L84.264 693.46z" stroke="none" fill="#000000" fill-rule="evenodd" /><path transform="matrix(1 0 0 -1 0 841)" d="M84.744 692.98L291.884 692.98L291.884 692.98L291.884 693.46L291.884 693.46L84.744 693.46z" stroke="none" fill="#000000" fill-rule="evenodd" /><path transform="matrix(1 0 0 -1 0 841)" d="M291.89 692.98L292.37 692.98L292.37 692.98L292.37 693.46L292.37 693.46L291.89 693.46z" stroke="none" fill="#000000" fill-rule="evenodd" /><path transform="matrix(1 0 0 -1 0 841)" d="M292.37 692.98L499.42 692.98L499.42 692.98L499.42 693.46L499.42 693.46L292.37 693.46z" stroke="none" fill="#000000" fill-rule="evenodd" /><path transform="matrix(1 0 0 -1 0 841)" d="M499.42 692.98L499.9 692.98L499.9 692.98L499.9 693.46L499.9 693.46L499.42 693.46z" stroke="none" fill="#000000" fill-rule="evenodd" /><path transform="matrix(1 0 0 -1 0 841)" d="M84.264 673.78L84.744 673.78L84.744 673.78L84.744 692.98L84.744 692.98L84.264 692.98z" stroke="none" fill="#000000" fill-rule="evenodd" /><path transform="matrix(1 0 0 -1 0 841)" d="M84.264 673.3L84.744 673.3L84.744 673.3L84.744 673.78L84.744 673.78L84.264 673.78z" stroke="none" fill="#000000" fill-rule="evenodd" /><path transform="matrix(1 0 0 -1 0 841)" d="M84.264 673.3L84.744 673.3L84.744 673.3L84.744 673.78L84.744 673.78L84.264 673.78z" stroke="none" fill="#000000" fill-rule="evenodd" /><path transform="matrix(1 0 0 -1 0 841)" d="M84.744 673.3L291.884 673.3L291.884 673.3L291.884 673.78L291.884 673.78L84.744 673.78z" stroke="none" fill="#000000" fill-rule="evenodd" /><path transform="matrix(1 0 0 -1 0 841)" d="M291.89 673.78L292.37 673.78L292.37 673.78L292.37 692.98L292.37 692.98L291.89 692.98z" stroke="none" fill="#000000" fill-rule="evenodd" /><path transform="matrix(1 0 0 -1 0 841)" d="M291.89 673.3L292.37 673.3L292.37 673.3L292.37 673.78L292.37 673.78L291.89 673.78z" stroke="none" fill="#000000" fill-rule="evenodd" /><path transform="matrix(1 0 0 -1 0 841)" d="M292.37 673.3L499.42 673.3L499.42 673.3L499.42 673.78L499.42 673.78L292.37 673.78z" stroke="none" fill="#000000" fill-rule="evenodd" /><path transform="matrix(1 0 0 -1 0 841)" d="M499.42 673.78L499.9 673.78L499.9 673.78L499.9 692.98L499.9 692.98L499.42 692.98z" stroke="none" fill="#000000" fill-rule="evenodd" /><path transform="matrix(1 0 0 -1 0 841)" d="M499.42 673.3L499.9 673.3L499.9 673.3L499.9 673.78L499.9 673.78L499.42 673.78z" stroke="none" fill="#000000" fill-rule="evenodd" /><path transform="matrix(1 0 0 -1 0 841)" d="M499.42 673.3L499.9 673.3L499.9 673.3L499.9 673.78L499.9 673.78L499.42 673.78z" stroke="none" fill="#000000" fill-rule="evenodd" /><path transform="matrix(1 0 0 -1 0 841)" d="M84.744 634.78L510.694 634.78L510.694 634.78L510.694 653.86L510.694 653.86L84.744 653.86z" stroke="none" fill="#0070C0" fill-rule="evenodd" /><g clip-path="url(#31)"><path transform="matrix(1 0 0 -1 0 841)" d="M89.904 634.78L505.534 634.78L505.534 634.78L505.534 653.86L505.534 653.86L89.904 653.86z" stroke="none" fill="#0070C0" fill-rule="evenodd" /><g clip-path="url(#32)"></g><g clip-path="url(#33)"></g><g clip-path="url(#34)"></g></g><path transform="matrix(1 0 0 -1 0 841)" d="M84.264 653.86L84.744 653.86L84.744 653.86L84.744 654.34L84.744 654.34L84.264 654.34z" stroke="none" fill="#000000" fill-rule="evenodd" /><path transform="matrix(1 0 0 -1 0 841)" d="M84.264 653.86L84.744 653.86L84.744 653.86L84.744 654.34L84.744 654.34L84.264 654.34z" stroke="none" fill="#000000" fill-rule="evenodd" /><path transform="matrix(1 0 0 -1 0 841)" d="M84.744 653.86L510.694 653.86L510.694 653.86L510.694 654.34L510.694 654.34L84.744 654.34z" stroke="none" fill="#000000" fill-rule="evenodd" /><path transform="matrix(1 0 0 -1 0 841)" d="M510.7 653.86L511.18 653.86L511.18 653.86L511.18 654.34L511.18 654.34L510.7 654.34z" stroke="none" fill="#000000" fill-rule="evenodd" /><path transform="matrix(1 0 0 -1 0 841)" d="M510.7 653.86L511.18 653.86L511.18 653.86L511.18 654.34L511.18 654.34L510.7 654.34z" stroke="none" fill="#000000" fill-rule="evenodd" /><path transform="matrix(1 0 0 -1 0 841)" d="M84.264 634.78L84.744 634.78L84.744 634.78L84.744 653.86L84.744 653.86L84.264 653.86z" stroke="none" fill="#000000" fill-rule="evenodd" /><path transform="matrix(1 0 0 -1 0 841)" d="M510.7 634.78L511.18 634.78L511.18 634.78L511.18 653.86L511.18 653.86L510.7 653.86z" stroke="none" fill="#000000" fill-rule="evenodd" /><path transform="matrix(1 0 0 -1 0 841)" d="M84.744 443.71L510.694 443.71L510.694 443.71L510.694 634.29L510.694 634.29L84.744 634.29z" stroke="none" fill="#DAEEF3" fill-rule="evenodd" /><g clip-path="url(#35)"><path transform="matrix(1 0 0 -1 0 841)" d="M89.904 615.22L505.534 615.22L505.534 615.22L505.534 634.3L505.534 634.3L89.904 634.3z" stroke="none" fill="#DAEEF3" fill-rule="evenodd" /><g clip-path="url(#36)"></g><g clip-path="url(#37)"></g><path transform="matrix(1 0 0 -1 0 841)" d="M89.904 596.14L505.534 596.14L505.534 596.14L505.534 615.22L505.534 615.22L89.904 615.22z" stroke="none" fill="#DAEEF3" fill-rule="evenodd" /><g clip-path="url(#38)"></g><g clip-path="url(#39)"></g><g clip-path="url(#40)"></g><path transform="matrix(1 0 0 -1 0 841)" d="M89.904 577.06L505.534 577.06L505.534 577.06L505.534 596.14L505.534 596.14L89.904 596.14z" stroke="none" fill="#DAEEF3" fill-rule="evenodd" /><g clip-path="url(#41)"></g><g clip-path="url(#42)"></g><path transform="matrix(1 0 0 -1 0 841)" d="M89.904 558.07L505.534 558.07L505.534 558.07L505.534 577.054L505.534 577.054L89.904 577.054z" stroke="none" fill="#DAEEF3" fill-rule="evenodd" /><g clip-path="url(#43)"></g><g clip-path="url(#44)"></g><path transform="matrix(1 0 0 -1 0 841)" d="M89.904 538.99L505.534 538.99L505.534 538.99L505.534 558.07L505.534 558.07L89.904 558.07z" stroke="none" fill="#DAEEF3" fill-rule="evenodd" /><g clip-path="url(#45)"></g><g clip-path="url(#46)"></g><path transform="matrix(1 0 0 -1 0 841)" d="M89.904 519.91L505.534 519.91L505.534 519.91L505.534 538.99L505.534 538.99L89.904 538.99z" stroke="none" fill="#DAEEF3" fill-rule="evenodd" /><g clip-path="url(#47)"></g><g clip-path="url(#48)"></g><g clip-path="url(#49)"></g><g clip-path="url(#50)"></g><path transform="matrix(1 0 0 -1 0 841)" d="M89.904 500.83L505.534 500.83L505.534 500.83L505.534 519.91L505.534 519.91L89.904 519.91z" stroke="none" fill="#DAEEF3" fill-rule="evenodd" /><g clip-path="url(#51)"></g><g clip-path="url(#52)"></g><path transform="matrix(1 0 0 -1 0 841)" d="M89.904 481.87L505.534 481.87L505.534 481.87L505.534 500.83L505.534 500.83L89.904 500.83z" stroke="none" fill="#DAEEF3" fill-rule="evenodd" /><g clip-path="url(#53)"></g><g clip-path="url(#54)"></g><path transform="matrix(1 0 0 -1 0 841)" d="M89.904 462.79L505.534 462.79L505.534 462.79L505.534 481.87L505.534 481.87L89.904 481.87z" stroke="none" fill="#DAEEF3" fill-rule="evenodd" /><g clip-path="url(#55)"></g><g clip-path="url(#56)"></g><path transform="matrix(1 0 0 -1 0 841)" d="M89.904 443.71L505.534 443.71L505.534 443.71L505.534 462.79L505.534 462.79L89.904 462.79z" stroke="none" fill="#DAEEF3" fill-rule="evenodd" /><g clip-path="url(#57)"></g><g clip-path="url(#58)"></g></g><path transform="matrix(1 0 0 -1 0 841)" d="M84.264 634.3L84.744 634.3L84.744 634.3L84.744 634.78L84.744 634.78L84.264 634.78z" stroke="none" fill="#000000" fill-rule="evenodd" /><path transform="matrix(1 0 0 -1 0 841)" d="M84.744 634.3L510.694 634.3L510.694 634.3L510.694 634.78L510.694 634.78L84.744 634.78z" stroke="none" fill="#000000" fill-rule="evenodd" /><path transform="matrix(1 0 0 -1 0 841)" d="M510.7 634.3L511.18 634.3L511.18 634.3L511.18 634.78L511.18 634.78L510.7 634.78z" stroke="none" fill="#000000" fill-rule="evenodd" /><path transform="matrix(1 0 0 -1 0 841)" d="M84.264 443.71L84.744 443.71L84.744 443.71L84.744 634.29L84.744 634.29L84.264 634.29z" stroke="none" fill="#000000" fill-rule="evenodd" /><path transform="matrix(1 0 0 -1 0 841)" d="M84.264 443.23L84.744 443.23L84.744 443.23L84.744 443.71L84.744 443.71L84.264 443.71z" stroke="none" fill="#000000" fill-rule="evenodd" /><path transform="matrix(1 0 0 -1 0 841)" d="M84.264 443.23L84.744 443.23L84.744 443.23L84.744 443.71L84.744 443.71L84.264 443.71z" stroke="none" fill="#000000" fill-rule="evenodd" /><path transform="matrix(1 0 0 -1 0 841)" d="M84.744 443.23L510.694 443.23L510.694 443.23L510.694 443.71L510.694 443.71L84.744 443.71z" stroke="none" fill="#000000" fill-rule="evenodd" /><path transform="matrix(1 0 0 -1 0 841)" d="M510.7 443.71L511.18 443.71L511.18 443.71L511.18 634.29L511.18 634.29L510.7 634.29z" stroke="none" fill="#000000" fill-rule="evenodd" /><path transform="matrix(1 0 0 -1 0 841)" d="M510.7 443.23L511.18 443.23L511.18 443.23L511.18 443.71L511.18 443.71L510.7 443.71z" stroke="none" fill="#000000" fill-rule="evenodd" /><path transform="matrix(1 0 0 -1 0 841)" d="M510.7 443.23L511.18 443.23L511.18 443.23L511.18 443.71L511.18 443.71L510.7 443.71z" stroke="none" fill="#000000" fill-rule="evenodd" /><path transform="matrix(1 0 0 -1 0 841)" d="M264.53 406.51L334.514 406.51L334.514 406.51L334.514 407.23L334.514 407.23L264.53 407.23z" stroke="none" fill="#000000" fill-rule="evenodd" /><path transform="matrix(1 0 0 -1 0 841)" d="M348.55 406.51L390.55 406.51L390.55 406.51L390.55 407.23L390.55 407.23L348.55 407.23z" stroke="none" fill="#000000" fill-rule="evenodd" /><path transform="matrix(1 0 0 -1 0 841)" d="M84.744 315.53L169.584 315.53L169.584 315.53L169.584 343.13L169.584 343.13L84.744 343.13z" stroke="none" fill="#0070C0" fill-rule="evenodd" /><g clip-path="url(#59)"><path transform="matrix(1 0 0 -1 0 841)" d="M89.904 315.53L164.424 315.53L164.424 315.53L164.424 343.13L164.424 343.13L89.904 343.13z" stroke="none" fill="#0070C0" fill-rule="evenodd" /><g clip-path="url(#60)"></g><g clip-path="url(#61)"></g></g><path transform="matrix(1 0 0 -1 0 841)" d="M170.18 315.53L224.324 315.53L224.324 315.53L224.324 343.13L224.324 343.13L170.18 343.13z" stroke="none" fill="#0070C0" fill-rule="evenodd" /><g clip-path="url(#62)"><path transform="matrix(1 0 0 -1 0 841)" d="M175.22 315.53L219.164 315.53L219.164 315.53L219.164 343.13L219.164 343.13L175.22 343.13z" stroke="none" fill="#0070C0" fill-rule="evenodd" /><g clip-path="url(#63)"></g><g clip-path="url(#64)"></g></g><path transform="matrix(1 0 0 -1 0 841)" d="M224.81 315.53L273.77 315.53L273.77 315.53L273.77 343.13L273.77 343.13L224.81 343.13z" stroke="none" fill="#0070C0" fill-rule="evenodd" /><g clip-path="url(#65)"><path transform="matrix(1 0 0 -1 0 841)" d="M229.97 315.53L268.61 315.53L268.61 315.53L268.61 343.13L268.61 343.13L229.97 343.13z" stroke="none" fill="#0070C0" fill-rule="evenodd" /><g clip-path="url(#66)"></g><g clip-path="url(#67)"></g></g><path transform="matrix(1 0 0 -1 0 841)" d="M274.25 315.53L380.11 315.53L380.11 315.53L380.11 343.13L380.11 343.13L274.25 343.13z" stroke="none" fill="#0070C0" fill-rule="evenodd" /><g clip-path="url(#68)"><path transform="matrix(1 0 0 -1 0 841)" d="M279.41 315.53L374.954 315.53L374.954 315.53L374.954 343.13L374.954 343.13L279.41 343.13z" stroke="none" fill="#0070C0" fill-rule="evenodd" /><g clip-path="url(#69)"></g><g clip-path="url(#70)"></g></g><path transform="matrix(1 0 0 -1 0 841)" d="M380.59 315.53L510.69 315.53L510.69 315.53L510.69 343.13L510.69 343.13L380.59 343.13z" stroke="none" fill="#0070C0" fill-rule="evenodd" /><g clip-path="url(#71)"><path transform="matrix(1 0 0 -1 0 841)" d="M385.75 315.53L505.53 315.53L505.53 315.53L505.53 343.13L505.53 343.13L385.75 343.13z" stroke="none" fill="#0070C0" fill-rule="evenodd" /><g clip-path="url(#72)"></g><g clip-path="url(#73)"></g></g><path transform="matrix(1 0 0 -1 0 841)" d="M84.264 343.13L84.744 343.13L84.744 343.13L84.744 343.61L84.744 343.61L84.264 343.61z" stroke="none" fill="#000000" fill-rule="evenodd" /><path transform="matrix(1 0 0 -1 0 841)" d="M84.264 343.13L84.744 343.13L84.744 343.13L84.744 343.61L84.744 343.61L84.264 343.61z" stroke="none" fill="#000000" fill-rule="evenodd" /><path transform="matrix(1 0 0 -1 0 841)" d="M84.744 343.13L169.704 343.13L169.704 343.13L169.704 343.61L169.704 343.61L84.744 343.61z" stroke="none" fill="#000000" fill-rule="evenodd" /><path transform="matrix(1 0 0 -1 0 841)" d="M169.7 343.13L170.18 343.13L170.18 343.13L170.18 343.61L170.18 343.61L169.7 343.61z" stroke="none" fill="#000000" fill-rule="evenodd" /><path transform="matrix(1 0 0 -1 0 841)" d="M170.18 343.13L224.324 343.13L224.324 343.13L224.324 343.61L224.324 343.61L170.18 343.61z" stroke="none" fill="#000000" fill-rule="evenodd" /><path transform="matrix(1 0 0 -1 0 841)" d="M224.33 343.13L224.81 343.13L224.81 343.13L224.81 343.61L224.81 343.61L224.33 343.61z" stroke="none" fill="#000000" fill-rule="evenodd" /><path transform="matrix(1 0 0 -1 0 841)" d="M224.81 343.13L273.77 343.13L273.77 343.13L273.77 343.61L273.77 343.61L224.81 343.61z" stroke="none" fill="#000000" fill-rule="evenodd" /><path transform="matrix(1 0 0 -1 0 841)" d="M273.77 343.13L274.25 343.13L274.25 343.13L274.25 343.61L274.25 343.61L273.77 343.61z" stroke="none" fill="#000000" fill-rule="evenodd" /><path transform="matrix(1 0 0 -1 0 841)" d="M274.25 343.13L380.11 343.13L380.11 343.13L380.11 343.61L380.11 343.61L274.25 343.61z" stroke="none" fill="#000000" fill-rule="evenodd" /><path transform="matrix(1 0 0 -1 0 841)" d="M380.11 343.13L380.59 343.13L380.59 343.13L380.59 343.61L380.59 343.61L380.11 343.61z" stroke="none" fill="#000000" fill-rule="evenodd" /><path transform="matrix(1 0 0 -1 0 841)" d="M380.59 343.13L510.69 343.13L510.69 343.13L510.69 343.61L510.69 343.61L380.59 343.61z" stroke="none" fill="#000000" fill-rule="evenodd" /><path transform="matrix(1 0 0 -1 0 841)" d="M510.7 343.13L511.18 343.13L511.18 343.13L511.18 343.61L511.18 343.61L510.7 343.61z" stroke="none" fill="#000000" fill-rule="evenodd" /><path transform="matrix(1 0 0 -1 0 841)" d="M510.7 343.13L511.18 343.13L511.18 343.13L511.18 343.61L511.18 343.61L510.7 343.61z" stroke="none" fill="#000000" fill-rule="evenodd" /><path transform="matrix(1 0 0 -1 0 841)" d="M84.264 315.53L84.744 315.53L84.744 315.53L84.744 343.13L84.744 343.13L84.264 343.13z" stroke="none" fill="#000000" fill-rule="evenodd" /><path transform="matrix(1 0 0 -1 0 841)" d="M169.7 315.53L170.18 315.53L170.18 315.53L170.18 343.13L170.18 343.13L169.7 343.13z" stroke="none" fill="#000000" fill-rule="evenodd" /><path transform="matrix(1 0 0 -1 0 841)" d="M224.33 315.53L224.81 315.53L224.81 315.53L224.81 343.13L224.81 343.13L224.33 343.13z" stroke="none" fill="#000000" fill-rule="evenodd" /><path transform="matrix(1 0 0 -1 0 841)" d="M273.77 315.53L274.25 315.53L274.25 315.53L274.25 343.13L274.25 343.13L273.77 343.13z" stroke="none" fill="#000000" fill-rule="evenodd" /><path transform="matrix(1 0 0 -1 0 841)" d="M380.11 315.53L380.59 315.53L380.59 315.53L380.59 343.13L380.59 343.13L380.11 343.13z" stroke="none" fill="#000000" fill-rule="evenodd" /><path transform="matrix(1 0 0 -1 0 841)" d="M510.7 315.53L511.18 315.53L511.18 315.53L511.18 343.13L511.18 343.13L510.7 343.13z" stroke="none" fill="#000000" fill-rule="evenodd" /><path transform="matrix(1 0 0 -1 0 841)" d="M84.744 254.21L169.584 254.21L169.584 254.21L169.584 315.05L169.584 315.05L84.744 315.05z" stroke="none" fill="#DAEEF3" fill-rule="evenodd" /><g clip-path="url(#74)"><path transform="matrix(1 0 0 -1 0 841)" d="M89.904 288.41L164.424 288.41L164.424 288.41L164.424 315.05L164.424 315.05L89.904 315.05z" stroke="none" fill="#DAEEF3" fill-rule="evenodd" /><g clip-path="url(#75)"></g><g clip-path="url(#76)"></g></g><path transform="matrix(1 0 0 -1 0 841)" d="M170.18 254.21L224.324 254.21L224.324 254.21L224.324 315.05L224.324 315.05L170.18 315.05z" stroke="none" fill="#DAEEF3" fill-rule="evenodd" /><g clip-path="url(#77)"><path transform="matrix(1 0 0 -1 0 841)" d="M175.22 288.41L219.164 288.41L219.164 288.41L219.164 315.05L219.164 315.05L175.22 315.05z" stroke="none" fill="#DAEEF3" fill-rule="evenodd" /><g clip-path="url(#78)"></g><g clip-path="url(#79)"></g></g><path transform="matrix(1 0 0 -1 0 841)" d="M224.81 254.21L273.77 254.21L273.77 254.21L273.77 315.05L273.77 315.05L224.81 315.05z" stroke="none" fill="#DAEEF3" fill-rule="evenodd" /><g clip-path="url(#80)"><path transform="matrix(1 0 0 -1 0 841)" d="M229.97 287.33L268.61 287.33L268.61 287.33L268.61 315.05L268.61 315.05L229.97 315.05z" stroke="none" fill="#DAEEF3" fill-rule="evenodd" /><g clip-path="url(#81)"></g><g clip-path="url(#82)"></g></g><path transform="matrix(1 0 0 -1 0 841)" d="M274.25 254.21L380.11 254.21L380.11 254.21L380.11 315.05L380.11 315.05L274.25 315.05z" stroke="none" fill="#DAEEF3" fill-rule="evenodd" /><g clip-path="url(#83)"><path transform="matrix(1 0 0 -1 0 841)" d="M279.41 293.21L374.954 293.21L374.954 293.21L374.954 315.05L374.954 315.05L279.41 315.05z" stroke="none" fill="#DAEEF3" fill-rule="evenodd" /><g clip-path="url(#84)"></g><path transform="matrix(1 0 0 -1 0 841)" d="M279.41 276.05L374.954 276.05L374.954 276.05L374.954 293.21L374.954 293.21L279.41 293.21z" stroke="none" fill="#DAEEF3" fill-rule="evenodd" /><g clip-path="url(#85)"></g><path transform="matrix(1 0 0 -1 0 841)" d="M279.41 254.21L374.954 254.21L374.954 254.21L374.954 276.05L374.954 276.05L279.41 276.05z" stroke="none" fill="#DAEEF3" fill-rule="evenodd" /><g clip-path="url(#86)"></g><g clip-path="url(#87)"></g></g><path transform="matrix(1 0 0 -1 0 841)" d="M380.59 254.21L510.69 254.21L510.69 254.21L510.69 315.05L510.69 315.05L380.59 315.05z" stroke="none" fill="#DAEEF3" fill-rule="evenodd" /><g clip-path="url(#88)"><path transform="matrix(1 0 0 -1 0 841)" d="M385.75 287.33L505.53 287.33L505.53 287.33L505.53 315.05L505.53 315.05L385.75 315.05z" stroke="none" fill="#DAEEF3" fill-rule="evenodd" /><g clip-path="url(#89)"></g><g clip-path="url(#90)"></g></g><path transform="matrix(1 0 0 -1 0 841)" d="M84.264 315.05L84.744 315.05L84.744 315.05L84.744 315.53L84.744 315.53L84.264 315.53z" stroke="none" fill="#000000" fill-rule="evenodd" /><path transform="matrix(1 0 0 -1 0 841)" d="M84.744 315.05L169.704 315.05L169.704 315.05L169.704 315.53L169.704 315.53L84.744 315.53z" stroke="none" fill="#000000" fill-rule="evenodd" /><path transform="matrix(1 0 0 -1 0 841)" d="M169.7 315.05L170.18 315.05L170.18 315.05L170.18 315.53L170.18 315.53L169.7 315.53z" stroke="none" fill="#000000" fill-rule="evenodd" /><path transform="matrix(1 0 0 -1 0 841)" d="M170.18 315.05L224.324 315.05L224.324 315.05L224.324 315.53L224.324 315.53L170.18 315.53z" stroke="none" fill="#000000" fill-rule="evenodd" /><path transform="matrix(1 0 0 -1 0 841)" d="M224.33 315.05L224.81 315.05L224.81 315.05L224.81 315.53L224.81 315.53L224.33 315.53z" stroke="none" fill="#000000" fill-rule="evenodd" /><path transform="matrix(1 0 0 -1 0 841)" d="M224.81 315.05L273.77 315.05L273.77 315.05L273.77 315.53L273.77 315.53L224.81 315.53z" stroke="none" fill="#000000" fill-rule="evenodd" /><path transform="matrix(1 0 0 -1 0 841)" d="M273.77 315.05L274.25 315.05L274.25 315.05L274.25 315.53L274.25 315.53L273.77 315.53z" stroke="none" fill="#000000" fill-rule="evenodd" /><path transform="matrix(1 0 0 -1 0 841)" d="M274.25 315.05L380.11 315.05L380.11 315.05L380.11 315.53L380.11 315.53L274.25 315.53z" stroke="none" fill="#000000" fill-rule="evenodd" /><path transform="matrix(1 0 0 -1 0 841)" d="M380.11 315.05L380.59 315.05L380.59 315.05L380.59 315.53L380.59 315.53L380.11 315.53z" stroke="none" fill="#000000" fill-rule="evenodd" /><path transform="matrix(1 0 0 -1 0 841)" d="M380.59 315.05L510.69 315.05L510.69 315.05L510.69 315.53L510.69 315.53L380.59 315.53z" stroke="none" fill="#000000" fill-rule="evenodd" /><path transform="matrix(1 0 0 -1 0 841)" d="M510.7 315.05L511.18 315.05L511.18 315.05L511.18 315.53L511.18 315.53L510.7 315.53z" stroke="none" fill="#000000" fill-rule="evenodd" /><path transform="matrix(1 0 0 -1 0 841)" d="M84.264 254.21L84.744 254.21L84.744 254.21L84.744 315.05L84.744 315.05L84.264 315.05z" stroke="none" fill="#000000" fill-rule="evenodd" /><path transform="matrix(1 0 0 -1 0 841)" d="M169.7 254.21L170.18 254.21L170.18 254.21L170.18 315.05L170.18 315.05L169.7 315.05z" stroke="none" fill="#000000" fill-rule="evenodd" /><path transform="matrix(1 0 0 -1 0 841)" d="M224.33 254.21L224.81 254.21L224.81 254.21L224.81 315.05L224.81 315.05L224.33 315.05z" stroke="none" fill="#000000" fill-rule="evenodd" /><path transform="matrix(1 0 0 -1 0 841)" d="M273.77 254.21L274.25 254.21L274.25 254.21L274.25 315.05L274.25 315.05L273.77 315.05z" stroke="none" fill="#000000" fill-rule="evenodd" /><path transform="matrix(1 0 0 -1 0 841)" d="M380.11 254.21L380.59 254.21L380.59 254.21L380.59 315.05L380.59 315.05L380.11 315.05z" stroke="none" fill="#000000" fill-rule="evenodd" /><path transform="matrix(1 0 0 -1 0 841)" d="M510.7 254.21L511.18 254.21L511.18 254.21L511.18 315.05L511.18 315.05L510.7 315.05z" stroke="none" fill="#000000" fill-rule="evenodd" /><g clip-path="url(#91)"><g clip-path="url(#92)"></g><g clip-path="url(#93)"></g></g><g clip-path="url(#94)"><g clip-path="url(#95)"></g><g clip-path="url(#96)"></g></g><g clip-path="url(#97)"><g clip-path="url(#98)"></g><g clip-path="url(#99)"></g></g><g clip-path="url(#100)"><g clip-path="url(#101)"></g><g clip-path="url(#102)"></g></g><g clip-path="url(#103)"><g clip-path="url(#104)"></g><g clip-path="url(#105)"></g></g><path transform="matrix(1 0 0 -1 0 841)" d="M84.264 253.73L84.744 253.73L84.744 253.73L84.744 254.21L84.744 254.21L84.264 254.21z" stroke="none" fill="#000000" fill-rule="evenodd" /><path transform="matrix(1 0 0 -1 0 841)" d="M84.744 253.73L169.704 253.73L169.704 253.73L169.704 254.21L169.704 254.21L84.744 254.21z" stroke="none" fill="#000000" fill-rule="evenodd" /><path transform="matrix(1 0 0 -1 0 841)" d="M169.7 253.73L170.18 253.73L170.18 253.73L170.18 254.21L170.18 254.21L169.7 254.21z" stroke="none" fill="#000000" fill-rule="evenodd" /><path transform="matrix(1 0 0 -1 0 841)" d="M170.18 253.73L224.324 253.73L224.324 253.73L224.324 254.21L224.324 254.21L170.18 254.21z" stroke="none" fill="#000000" fill-rule="evenodd" /><path transform="matrix(1 0 0 -1 0 841)" d="M224.33 253.73L224.81 253.73L224.81 253.73L224.81 254.21L224.81 254.21L224.33 254.21z" stroke="none" fill="#000000" fill-rule="evenodd" /><path transform="matrix(1 0 0 -1 0 841)" d="M224.81 253.73L273.77 253.73L273.77 253.73L273.77 254.21L273.77 254.21L224.81 254.21z" stroke="none" fill="#000000" fill-rule="evenodd" /><path transform="matrix(1 0 0 -1 0 841)" d="M273.77 253.73L274.25 253.73L274.25 253.73L274.25 254.21L274.25 254.21L273.77 254.21z" stroke="none" fill="#000000" fill-rule="evenodd" /><path transform="matrix(1 0 0 -1 0 841)" d="M274.25 253.73L380.11 253.73L380.11 253.73L380.11 254.21L380.11 254.21L274.25 254.21z" stroke="none" fill="#000000" fill-rule="evenodd" /><path transform="matrix(1 0 0 -1 0 841)" d="M380.11 253.73L380.59 253.73L380.59 253.73L380.59 254.21L380.59 254.21L380.11 254.21z" stroke="none" fill="#000000" fill-rule="evenodd" /><path transform="matrix(1 0 0 -1 0 841)" d="M380.59 253.73L510.69 253.73L510.69 253.73L510.69 254.21L510.69 254.21L380.59 254.21z" stroke="none" fill="#000000" fill-rule="evenodd" /><path transform="matrix(1 0 0 -1 0 841)" d="M510.7 253.73L511.18 253.73L511.18 253.73L511.18 254.21L511.18 254.21L510.7 254.21z" stroke="none" fill="#000000" fill-rule="evenodd" /><path transform="matrix(1 0 0 -1 0 841)" d="M84.264 226.13L84.744 226.13L84.744 226.13L84.744 253.73L84.744 253.73L84.264 253.73z" stroke="none" fill="#000000" fill-rule="evenodd" /><path transform="matrix(1 0 0 -1 0 841)" d="M169.7 226.13L170.18 226.13L170.18 226.13L170.18 253.73L170.18 253.73L169.7 253.73z" stroke="none" fill="#000000" fill-rule="evenodd" /><path transform="matrix(1 0 0 -1 0 841)" d="M224.33 226.13L224.81 226.13L224.81 226.13L224.81 253.73L224.81 253.73L224.33 253.73z" stroke="none" fill="#000000" fill-rule="evenodd" /><path transform="matrix(1 0 0 -1 0 841)" d="M273.77 226.13L274.25 226.13L274.25 226.13L274.25 253.73L274.25 253.73L273.77 253.73z" stroke="none" fill="#000000" fill-rule="evenodd" /><path transform="matrix(1 0 0 -1 0 841)" d="M380.11 226.13L380.59 226.13L380.59 226.13L380.59 253.73L380.59 253.73L380.11 253.73z" stroke="none" fill="#000000" fill-rule="evenodd" /><path transform="matrix(1 0 0 -1 0 841)" d="M510.7 226.13L511.18 226.13L511.18 226.13L511.18 253.73L511.18 253.73L510.7 253.73z" stroke="none" fill="#000000" fill-rule="evenodd" /><path transform="matrix(1 0 0 -1 0 841)" d="M84.744 197.93L169.584 197.93L169.584 197.93L169.584 225.53L169.584 225.53L84.744 225.53z" stroke="none" fill="#DAEEF3" fill-rule="evenodd" /><g clip-path="url(#106)"><path transform="matrix(1 0 0 -1 0 841)" d="M89.904 199.01L164.424 199.01L164.424 199.01L164.424 225.53L164.424 225.53L89.904 225.53z" stroke="none" fill="#DAEEF3" fill-rule="evenodd" /><g clip-path="url(#107)"></g><g clip-path="url(#108)"></g></g><path transform="matrix(1 0 0 -1 0 841)" d="M170.18 197.93L224.324 197.93L224.324 197.93L224.324 225.53L224.324 225.53L170.18 225.53z" stroke="none" fill="#DAEEF3" fill-rule="evenodd" /><g clip-path="url(#109)"><path transform="matrix(1 0 0 -1 0 841)" d="M175.22 199.01L219.164 199.01L219.164 199.01L219.164 225.53L219.164 225.53L175.22 225.53z" stroke="none" fill="#DAEEF3" fill-rule="evenodd" /><g clip-path="url(#110)"></g><g clip-path="url(#111)"></g></g><path transform="matrix(1 0 0 -1 0 841)" d="M224.81 197.93L273.77 197.93L273.77 197.93L273.77 225.53L273.77 225.53L224.81 225.53z" stroke="none" fill="#DAEEF3" fill-rule="evenodd" /><g clip-path="url(#112)"><path transform="matrix(1 0 0 -1 0 841)" d="M229.97 197.93L268.61 197.93L268.61 197.93L268.61 225.53L268.61 225.53L229.97 225.53z" stroke="none" fill="#DAEEF3" fill-rule="evenodd" /><g clip-path="url(#113)"></g><g clip-path="url(#114)"></g></g><path transform="matrix(1 0 0 -1 0 841)" d="M274.25 197.93L380.11 197.93L380.11 197.93L380.11 225.53L380.11 225.53L274.25 225.53z" stroke="none" fill="#DAEEF3" fill-rule="evenodd" /><g clip-path="url(#115)"><path transform="matrix(1 0 0 -1 0 841)" d="M279.41 199.01L374.954 199.01L374.954 199.01L374.954 225.53L374.954 225.53L279.41 225.53z" stroke="none" fill="#DAEEF3" fill-rule="evenodd" /><g clip-path="url(#116)"></g><g clip-path="url(#117)"></g></g><path transform="matrix(1 0 0 -1 0 841)" d="M380.59 197.93L510.69 197.93L510.69 197.93L510.69 225.53L510.69 225.53L380.59 225.53z" stroke="none" fill="#DAEEF3" fill-rule="evenodd" /><g clip-path="url(#118)"><path transform="matrix(1 0 0 -1 0 841)" d="M385.75 197.93L505.53 197.93L505.53 197.93L505.53 225.53L505.53 225.53L385.75 225.53z" stroke="none" fill="#DAEEF3" fill-rule="evenodd" /><g clip-path="url(#119)"></g><g clip-path="url(#120)"></g><g clip-path="url(#121)"></g></g><path transform="matrix(1 0 0 -1 0 841)" d="M84.264 225.65L84.744 225.65L84.744 225.65L84.744 226.13L84.744 226.13L84.264 226.13z" stroke="none" fill="#000000" fill-rule="evenodd" /><path transform="matrix(1 0 0 -1 0 841)" d="M84.744 225.65L169.704 225.65L169.704 225.65L169.704 226.13L169.704 226.13L84.744 226.13z" stroke="none" fill="#000000" fill-rule="evenodd" /><path transform="matrix(1 0 0 -1 0 841)" d="M169.7 225.65L170.18 225.65L170.18 225.65L170.18 226.13L170.18 226.13L169.7 226.13z" stroke="none" fill="#000000" fill-rule="evenodd" /><path transform="matrix(1 0 0 -1 0 841)" d="M170.18 225.65L224.324 225.65L224.324 225.65L224.324 226.13L224.324 226.13L170.18 226.13z" stroke="none" fill="#000000" fill-rule="evenodd" /><path transform="matrix(1 0 0 -1 0 841)" d="M224.33 225.65L224.81 225.65L224.81 225.65L224.81 226.13L224.81 226.13L224.33 226.13z" stroke="none" fill="#000000" fill-rule="evenodd" /><path transform="matrix(1 0 0 -1 0 841)" d="M224.81 225.65L273.77 225.65L273.77 225.65L273.77 226.13L273.77 226.13L224.81 226.13z" stroke="none" fill="#000000" fill-rule="evenodd" /><path transform="matrix(1 0 0 -1 0 841)" d="M273.77 225.65L274.25 225.65L274.25 225.65L274.25 226.13L274.25 226.13L273.77 226.13z" stroke="none" fill="#000000" fill-rule="evenodd" /><path transform="matrix(1 0 0 -1 0 841)" d="M274.25 225.65L380.11 225.65L380.11 225.65L380.11 226.13L380.11 226.13L274.25 226.13z" stroke="none" fill="#000000" fill-rule="evenodd" /><path transform="matrix(1 0 0 -1 0 841)" d="M380.11 225.65L380.59 225.65L380.59 225.65L380.59 226.13L380.59 226.13L380.11 226.13z" stroke="none" fill="#000000" fill-rule="evenodd" /><path transform="matrix(1 0 0 -1 0 841)" d="M380.59 225.65L510.69 225.65L510.69 225.65L510.69 226.13L510.69 226.13L380.59 226.13z" stroke="none" fill="#000000" fill-rule="evenodd" /><path transform="matrix(1 0 0 -1 0 841)" d="M510.7 225.65L511.18 225.65L511.18 225.65L511.18 226.13L511.18 226.13L510.7 226.13z" stroke="none" fill="#000000" fill-rule="evenodd" /><path transform="matrix(1 0 0 -1 0 841)" d="M84.264 197.93L84.744 197.93L84.744 197.93L84.744 225.65L84.744 225.65L84.264 225.65z" stroke="none" fill="#000000" fill-rule="evenodd" /><path transform="matrix(1 0 0 -1 0 841)" d="M169.7 197.93L170.18 197.93L170.18 197.93L170.18 225.65L170.18 225.65L169.7 225.65z" stroke="none" fill="#000000" fill-rule="evenodd" /><path transform="matrix(1 0 0 -1 0 841)" d="M224.33 197.93L224.81 197.93L224.81 197.93L224.81 225.65L224.81 225.65L224.33 225.65z" stroke="none" fill="#000000" fill-rule="evenodd" /><path transform="matrix(1 0 0 -1 0 841)" d="M273.77 197.93L274.25 197.93L274.25 197.93L274.25 225.65L274.25 225.65L273.77 225.65z" stroke="none" fill="#000000" fill-rule="evenodd" /><path transform="matrix(1 0 0 -1 0 841)" d="M380.11 197.93L380.59 197.93L380.59 197.93L380.59 225.65L380.59 225.65L380.11 225.65z" stroke="none" fill="#000000" fill-rule="evenodd" /><path transform="matrix(1 0 0 -1 0 841)" d="M510.7 197.93L511.18 197.93L511.18 197.93L511.18 225.65L511.18 225.65L510.7 225.65z" stroke="none" fill="#000000" fill-rule="evenodd" /><g clip-path="url(#122)"><g clip-path="url(#123)"></g><g clip-path="url(#124)"></g></g><g clip-path="url(#125)"><g clip-path="url(#126)"></g><g clip-path="url(#127)"></g></g><g clip-path="url(#128)"><g clip-path="url(#129)"></g><g clip-path="url(#130)"></g></g><g clip-path="url(#131)"><g clip-path="url(#132)"></g><g clip-path="url(#133)"></g><g clip-path="url(#134)"></g></g><g clip-path="url(#135)"><g clip-path="url(#136)"></g><g clip-path="url(#137)"></g><g clip-path="url(#138)"></g></g><path transform="matrix(1 0 0 -1 0 841)" d="M84.264 197.45L84.744 197.45L84.744 197.45L84.744 197.93L84.744 197.93L84.264 197.93z" stroke="none" fill="#000000" fill-rule="evenodd" /><path transform="matrix(1 0 0 -1 0 841)" d="M84.744 197.45L169.704 197.45L169.704 197.45L169.704 197.93L169.704 197.93L84.744 197.93z" stroke="none" fill="#000000" fill-rule="evenodd" /><path transform="matrix(1 0 0 -1 0 841)" d="M169.7 197.45L170.18 197.45L170.18 197.45L170.18 197.93L170.18 197.93L169.7 197.93z" stroke="none" fill="#000000" fill-rule="evenodd" /><path transform="matrix(1 0 0 -1 0 841)" d="M170.18 197.45L224.324 197.45L224.324 197.45L224.324 197.93L224.324 197.93L170.18 197.93z" stroke="none" fill="#000000" fill-rule="evenodd" /><path transform="matrix(1 0 0 -1 0 841)" d="M224.33 197.45L224.81 197.45L224.81 197.45L224.81 197.93L224.81 197.93L224.33 197.93z" stroke="none" fill="#000000" fill-rule="evenodd" /><path transform="matrix(1 0 0 -1 0 841)" d="M224.81 197.45L273.77 197.45L273.77 197.45L273.77 197.93L273.77 197.93L224.81 197.93z" stroke="none" fill="#000000" fill-rule="evenodd" /><path transform="matrix(1 0 0 -1 0 841)" d="M273.77 197.45L274.25 197.45L274.25 197.45L274.25 197.93L274.25 197.93L273.77 197.93z" stroke="none" fill="#000000" fill-rule="evenodd" /><path transform="matrix(1 0 0 -1 0 841)" d="M274.25 197.45L380.11 197.45L380.11 197.45L380.11 197.93L380.11 197.93L274.25 197.93z" stroke="none" fill="#000000" fill-rule="evenodd" /><path transform="matrix(1 0 0 -1 0 841)" d="M380.11 197.45L380.59 197.45L380.59 197.45L380.59 197.93L380.59 197.93L380.11 197.93z" stroke="none" fill="#000000" fill-rule="evenodd" /><path transform="matrix(1 0 0 -1 0 841)" d="M380.59 197.45L510.69 197.45L510.69 197.45L510.69 197.93L510.69 197.93L380.59 197.93z" stroke="none" fill="#000000" fill-rule="evenodd" /><path transform="matrix(1 0 0 -1 0 841)" d="M510.7 197.45L511.18 197.45L511.18 197.45L511.18 197.93L511.18 197.93L510.7 197.93z" stroke="none" fill="#000000" fill-rule="evenodd" /><path transform="matrix(1 0 0 -1 0 841)" d="M84.264 151.58L84.744 151.58L84.744 151.58L84.744 197.444L84.744 197.444L84.264 197.444z" stroke="none" fill="#000000" fill-rule="evenodd" /><path transform="matrix(1 0 0 -1 0 841)" d="M169.7 151.58L170.18 151.58L170.18 151.58L170.18 197.444L170.18 197.444L169.7 197.444z" stroke="none" fill="#000000" fill-rule="evenodd" /><path transform="matrix(1 0 0 -1 0 841)" d="M224.33 151.58L224.81 151.58L224.81 151.58L224.81 197.444L224.81 197.444L224.33 197.444z" stroke="none" fill="#000000" fill-rule="evenodd" /><path transform="matrix(1 0 0 -1 0 841)" d="M273.77 151.58L274.25 151.58L274.25 151.58L274.25 197.444L274.25 197.444L273.77 197.444z" stroke="none" fill="#000000" fill-rule="evenodd" /><path transform="matrix(1 0 0 -1 0 841)" d="M380.11 151.58L380.59 151.58L380.59 151.58L380.59 197.444L380.59 197.444L380.11 197.444z" stroke="none" fill="#000000" fill-rule="evenodd" /><path transform="matrix(1 0 0 -1 0 841)" d="M510.7 151.58L511.18 151.58L511.18 151.58L511.18 197.444L511.18 197.444L510.7 197.444z" stroke="none" fill="#000000" fill-rule="evenodd" /><path transform="matrix(1 0 0 -1 0 841)" d="M84.744 123.38L169.584 123.38L169.584 123.38L169.584 151.1L169.584 151.1L84.744 151.1z" stroke="none" fill="#DAEEF3" fill-rule="evenodd" /><g clip-path="url(#139)"><path transform="matrix(1 0 0 -1 0 841)" d="M89.904 124.46L164.424 124.46L164.424 124.46L164.424 151.1L164.424 151.1L89.904 151.1z" stroke="none" fill="#DAEEF3" fill-rule="evenodd" /><g clip-path="url(#140)"></g><g clip-path="url(#141)"></g></g><path transform="matrix(1 0 0 -1 0 841)" d="M170.18 123.38L224.324 123.38L224.324 123.38L224.324 151.1L224.324 151.1L170.18 151.1z" stroke="none" fill="#DAEEF3" fill-rule="evenodd" /><g clip-path="url(#142)"><path transform="matrix(1 0 0 -1 0 841)" d="M175.22 124.46L219.164 124.46L219.164 124.46L219.164 151.1L219.164 151.1L175.22 151.1z" stroke="none" fill="#DAEEF3" fill-rule="evenodd" /><g clip-path="url(#143)"></g><g clip-path="url(#144)"></g></g><path transform="matrix(1 0 0 -1 0 841)" d="M224.81 123.38L273.77 123.38L273.77 123.38L273.77 151.1L273.77 151.1L224.81 151.1z" stroke="none" fill="#DAEEF3" fill-rule="evenodd" /><g clip-path="url(#145)"><path transform="matrix(1 0 0 -1 0 841)" d="M229.97 123.38L268.61 123.38L268.61 123.38L268.61 151.1L268.61 151.1L229.97 151.1z" stroke="none" fill="#DAEEF3" fill-rule="evenodd" /><g clip-path="url(#146)"></g><g clip-path="url(#147)"></g></g><path transform="matrix(1 0 0 -1 0 841)" d="M274.25 123.38L380.11 123.38L380.11 123.38L380.11 151.1L380.11 151.1L274.25 151.1z" stroke="none" fill="#DAEEF3" fill-rule="evenodd" /><g clip-path="url(#148)"><path transform="matrix(1 0 0 -1 0 841)" d="M279.41 124.46L374.954 124.46L374.954 124.46L374.954 151.1L374.954 151.1L279.41 151.1z" stroke="none" fill="#DAEEF3" fill-rule="evenodd" /><g clip-path="url(#149)"></g><g clip-path="url(#150)"></g></g><path transform="matrix(1 0 0 -1 0 841)" d="M380.59 123.38L510.69 123.38L510.69 123.38L510.69 151.1L510.69 151.1L380.59 151.1z" stroke="none" fill="#DAEEF3" fill-rule="evenodd" /><g clip-path="url(#151)"><path transform="matrix(1 0 0 -1 0 841)" d="M385.75 123.38L505.53 123.38L505.53 123.38L505.53 151.1L505.53 151.1L385.75 151.1z" stroke="none" fill="#DAEEF3" fill-rule="evenodd" /><g clip-path="url(#152)"></g><g clip-path="url(#153)"></g><path transform="matrix(1 0 0 -1 0 841)" d="M391.75 129.86L447.79 129.86L447.79 129.86L447.79 130.58L447.79 130.58L391.75 130.58z" stroke="none" fill="#0000FF" fill-rule="evenodd" /></g><path transform="matrix(1 0 0 -1 0 841)" d="M84.264 151.1L84.744 151.1L84.744 151.1L84.744 151.58L84.744 151.58L84.264 151.58z" stroke="none" fill="#000000" fill-rule="evenodd" /><path transform="matrix(1 0 0 -1 0 841)" d="M84.744 151.1L169.704 151.1L169.704 151.1L169.704 151.58L169.704 151.58L84.744 151.58z" stroke="none" fill="#000000" fill-rule="evenodd" /><path transform="matrix(1 0 0 -1 0 841)" d="M169.7 151.1L170.18 151.1L170.18 151.1L170.18 151.58L170.18 151.58L169.7 151.58z" stroke="none" fill="#000000" fill-rule="evenodd" /><path transform="matrix(1 0 0 -1 0 841)" d="M170.18 151.1L224.324 151.1L224.324 151.1L224.324 151.58L224.324 151.58L170.18 151.58z" stroke="none" fill="#000000" fill-rule="evenodd" /><path transform="matrix(1 0 0 -1 0 841)" d="M224.33 151.1L224.81 151.1L224.81 151.1L224.81 151.58L224.81 151.58L224.33 151.58z" stroke="none" fill="#000000" fill-rule="evenodd" /><path transform="matrix(1 0 0 -1 0 841)" d="M224.81 151.1L273.77 151.1L273.77 151.1L273.77 151.58L273.77 151.58L224.81 151.58z" stroke="none" fill="#000000" fill-rule="evenodd" /><path transform="matrix(1 0 0 -1 0 841)" d="M273.77 151.1L274.25 151.1L274.25 151.1L274.25 151.58L274.25 151.58L273.77 151.58z" stroke="none" fill="#000000" fill-rule="evenodd" /><path transform="matrix(1 0 0 -1 0 841)" d="M274.25 151.1L380.11 151.1L380.11 151.1L380.11 151.58L380.11 151.58L274.25 151.58z" stroke="none" fill="#000000" fill-rule="evenodd" /><path transform="matrix(1 0 0 -1 0 841)" d="M380.11 151.1L380.59 151.1L380.59 151.1L380.59 151.58L380.59 151.58L380.11 151.58z" stroke="none" fill="#000000" fill-rule="evenodd" /><path transform="matrix(1 0 0 -1 0 841)" d="M380.59 151.1L510.69 151.1L510.69 151.1L510.69 151.58L510.69 151.58L380.59 151.58z" stroke="none" fill="#000000" fill-rule="evenodd" /><path transform="matrix(1 0 0 -1 0 841)" d="M510.7 151.1L511.18 151.1L511.18 151.1L511.18 151.58L511.18 151.58L510.7 151.58z" stroke="none" fill="#000000" fill-rule="evenodd" /><path transform="matrix(1 0 0 -1 0 841)" d="M84.264 123.38L84.744 123.38L84.744 123.38L84.744 151.1L84.744 151.1L84.264 151.1z" stroke="none" fill="#000000" fill-rule="evenodd" /><path transform="matrix(1 0 0 -1 0 841)" d="M169.7 123.38L170.18 123.38L170.18 123.38L170.18 151.1L170.18 151.1L169.7 151.1z" stroke="none" fill="#000000" fill-rule="evenodd" /><path transform="matrix(1 0 0 -1 0 841)" d="M224.33 123.38L224.81 123.38L224.81 123.38L224.81 151.1L224.81 151.1L224.33 151.1z" stroke="none" fill="#000000" fill-rule="evenodd" /><path transform="matrix(1 0 0 -1 0 841)" d="M273.77 123.38L274.25 123.38L274.25 123.38L274.25 151.1L274.25 151.1L273.77 151.1z" stroke="none" fill="#000000" fill-rule="evenodd" /><path transform="matrix(1 0 0 -1 0 841)" d="M380.11 123.38L380.59 123.38L380.59 123.38L380.59 151.1L380.59 151.1L380.11 151.1z" stroke="none" fill="#000000" fill-rule="evenodd" /><path transform="matrix(1 0 0 -1 0 841)" d="M510.7 123.38L511.18 123.38L511.18 123.38L511.18 151.1L511.18 151.1L510.7 151.1z" stroke="none" fill="#000000" fill-rule="evenodd" /><g clip-path="url(#154)"><g clip-path="url(#155)"></g><g clip-path="url(#156)"></g></g><g clip-path="url(#157)"><g clip-path="url(#158)"></g><g clip-path="url(#159)"></g></g><g clip-path="url(#160)"><g clip-path="url(#161)"></g><g clip-path="url(#162)"></g></g><g clip-path="url(#163)"><g clip-path="url(#164)"></g><g clip-path="url(#165)"></g></g><g clip-path="url(#166)"><g clip-path="url(#167)"></g><g clip-path="url(#168)"></g></g><path transform="matrix(1 0 0 -1 0 841)" d="M84.264 122.9L84.744 122.9L84.744 122.9L84.744 123.38L84.744 123.38L84.264 123.38z" stroke="none" fill="#000000" fill-rule="evenodd" /><path transform="matrix(1 0 0 -1 0 841)" d="M84.744 122.9L169.704 122.9L169.704 122.9L169.704 123.38L169.704 123.38L84.744 123.38z" stroke="none" fill="#000000" fill-rule="evenodd" /><path transform="matrix(1 0 0 -1 0 841)" d="M169.7 122.9L170.18 122.9L170.18 122.9L170.18 123.38L170.18 123.38L169.7 123.38z" stroke="none" fill="#000000" fill-rule="evenodd" /><path transform="matrix(1 0 0 -1 0 841)" d="M170.18 122.9L224.324 122.9L224.324 122.9L224.324 123.38L224.324 123.38L170.18 123.38z" stroke="none" fill="#000000" fill-rule="evenodd" /><path transform="matrix(1 0 0 -1 0 841)" d="M224.33 122.9L224.81 122.9L224.81 122.9L224.81 123.38L224.81 123.38L224.33 123.38z" stroke="none" fill="#000000" fill-rule="evenodd" /><path transform="matrix(1 0 0 -1 0 841)" d="M224.81 122.9L273.77 122.9L273.77 122.9L273.77 123.38L273.77 123.38L224.81 123.38z" stroke="none" fill="#000000" fill-rule="evenodd" /><path transform="matrix(1 0 0 -1 0 841)" d="M273.77 122.9L274.25 122.9L274.25 122.9L274.25 123.38L274.25 123.38L273.77 123.38z" stroke="none" fill="#000000" fill-rule="evenodd" /><path transform="matrix(1 0 0 -1 0 841)" d="M274.25 122.9L380.11 122.9L380.11 122.9L380.11 123.38L380.11 123.38L274.25 123.38z" stroke="none" fill="#000000" fill-rule="evenodd" /><path transform="matrix(1 0 0 -1 0 841)" d="M380.11 122.9L380.59 122.9L380.59 122.9L380.59 123.38L380.59 123.38L380.11 123.38z" stroke="none" fill="#000000" fill-rule="evenodd" /><path transform="matrix(1 0 0 -1 0 841)" d="M380.59 122.9L510.69 122.9L510.69 122.9L510.69 123.38L510.69 123.38L380.59 123.38z" stroke="none" fill="#000000" fill-rule="evenodd" /><path transform="matrix(1 0 0 -1 0 841)" d="M510.7 122.9L511.18 122.9L511.18 122.9L511.18 123.38L511.18 123.38L510.7 123.38z" stroke="none" fill="#000000" fill-rule="evenodd" /><path transform="matrix(1 0 0 -1 0 841)" d="M84.264 95.304L84.744 95.304L84.744 95.304L84.744 122.904L84.744 122.904L84.264 122.904z" stroke="none" fill="#000000" fill-rule="evenodd" /><path transform="matrix(1 0 0 -1 0 841)" d="M84.264 94.824L84.744 94.824L84.744 94.824L84.744 95.30398L84.744 95.30398L84.264 95.30398z" stroke="none" fill="#000000" fill-rule="evenodd" /><path transform="matrix(1 0 0 -1 0 841)" d="M84.264 94.824L84.744 94.824L84.744 94.824L84.744 95.30398L84.744 95.30398L84.264 95.30398z" stroke="none" fill="#000000" fill-rule="evenodd" /><path transform="matrix(1 0 0 -1 0 841)" d="M84.744 94.824L169.704 94.824L169.704 94.824L169.704 95.30398L169.704 95.30398L84.744 95.30398z" stroke="none" fill="#000000" fill-rule="evenodd" /><path transform="matrix(1 0 0 -1 0 841)" d="M169.7 95.304L170.18 95.304L170.18 95.304L170.18 122.904L170.18 122.904L169.7 122.904z" stroke="none" fill="#000000" fill-rule="evenodd" /><path transform="matrix(1 0 0 -1 0 841)" d="M169.7 94.824L170.18 94.824L170.18 94.824L170.18 95.30398L170.18 95.30398L169.7 95.30398z" stroke="none" fill="#000000" fill-rule="evenodd" /><path transform="matrix(1 0 0 -1 0 841)" d="M170.18 94.824L224.324 94.824L224.324 94.824L224.324 95.30398L224.324 95.30398L170.18 95.30398z" stroke="none" fill="#000000" fill-rule="evenodd" /><path transform="matrix(1 0 0 -1 0 841)" d="M224.33 95.304L224.81 95.304L224.81 95.304L224.81 122.904L224.81 122.904L224.33 122.904z" stroke="none" fill="#000000" fill-rule="evenodd" /><path transform="matrix(1 0 0 -1 0 841)" d="M224.33 94.824L224.81 94.824L224.81 94.824L224.81 95.30398L224.81 95.30398L224.33 95.30398z" stroke="none" fill="#000000" fill-rule="evenodd" /><path transform="matrix(1 0 0 -1 0 841)" d="M224.81 94.824L273.77 94.824L273.77 94.824L273.77 95.30398L273.77 95.30398L224.81 95.30398z" stroke="none" fill="#000000" fill-rule="evenodd" /><path transform="matrix(1 0 0 -1 0 841)" d="M273.77 95.304L274.25 95.304L274.25 95.304L274.25 122.904L274.25 122.904L273.77 122.904z" stroke="none" fill="#000000" fill-rule="evenodd" /><path transform="matrix(1 0 0 -1 0 841)" d="M273.77 94.824L274.25 94.824L274.25 94.824L274.25 95.30398L274.25 95.30398L273.77 95.30398z" stroke="none" fill="#000000" fill-rule="evenodd" /><path transform="matrix(1 0 0 -1 0 841)" d="M274.25 94.824L380.11 94.824L380.11 94.824L380.11 95.30398L380.11 95.30398L274.25 95.30398z" stroke="none" fill="#000000" fill-rule="evenodd" /><path transform="matrix(1 0 0 -1 0 841)" d="M380.11 95.304L380.59 95.304L380.59 95.304L380.59 122.904L380.59 122.904L380.11 122.904z" stroke="none" fill="#000000" fill-rule="evenodd" /><path transform="matrix(1 0 0 -1 0 841)" d="M380.11 94.824L380.59 94.824L380.59 94.824L380.59 95.30398L380.59 95.30398L380.11 95.30398z" stroke="none" fill="#000000" fill-rule="evenodd" /><path transform="matrix(1 0 0 -1 0 841)" d="M380.59 94.824L510.69 94.824L510.69 94.824L510.69 95.30398L510.69 95.30398L380.59 95.30398z" stroke="none" fill="#000000" fill-rule="evenodd" /><path transform="matrix(1 0 0 -1 0 841)" d="M510.7 95.304L511.18 95.304L511.18 95.304L511.18 122.904L511.18 122.904L510.7 122.904z" stroke="none" fill="#000000" fill-rule="evenodd" /><path transform="matrix(1 0 0 -1 0 841)" d="M510.7 94.824L511.18 94.824L511.18 94.824L511.18 95.30398L511.18 95.30398L510.7 95.30398z" stroke="none" fill="#000000" fill-rule="evenodd" /><path transform="matrix(1 0 0 -1 0 841)" d="M510.7 94.824L511.18 94.824L511.18 94.824L511.18 95.30398L511.18 95.30398L510.7 95.30398z" stroke="none" fill="#000000" fill-rule="evenodd" /></g></g></g></svg>