<svg xmlns="http://www.w3.org/2000/svg" xmlns:xlink="http://www.w3.org/1999/xlink" id="body_62" preserveAspectRatio="xMinYMin meet" viewBox="0 0 1121 793"><defs><clipPath id="1"><path d="M0 595L0 -0.3200073L0 -0.3200073L841.92 -0.3200073L841.92 -0.3200073L841.92 595L841.92 595L0 595z" /></clipPath><clipPath id="2"><path d="M0.00125 595.0913L842.0112 595.0913L842.0112 595.0913L842.0112 -0.3186646L842.0112 -0.3186646L0.00125 -0.3186646z" /></clipPath><clipPath id="3"><path d="M386.09 533.771L413.93 533.771L413.93 533.771L413.93 514.691L413.93 514.691L386.09 514.691z" /></clipPath><clipPath id="4"><path d="M386.09 533.776L413.93 533.776L413.93 533.776L413.93 514.696L413.93 514.696L386.09 514.696z" /></clipPath><clipPath id="5"><path d="M386.09 533.776L413.93 533.776L413.93 533.776L413.93 514.696L413.93 514.696L386.09 514.696z" /></clipPath><clipPath id="6"><path d="M84.721 218.85L183.511 218.85L183.511 218.85L183.511 180.675L183.511 180.675L84.721 180.675z" /></clipPath><clipPath id="7"><path d="M84.72 218.85L183.504 218.85L183.504 218.85L183.504 180.666L183.504 180.666L84.72 180.666z" /></clipPath><clipPath id="8"><path d="M84.72 218.85L183.504 218.85L183.504 218.85L183.504 180.666L183.504 180.666L84.72 180.666z" /></clipPath><clipPath id="9"><path d="M183.99 218.85L246.63 218.85L246.63 218.85L246.63 180.675L246.63 180.675L183.99 180.675z" /></clipPath><clipPath id="10"><path d="M183.98 218.85L246.62 218.85L246.62 218.85L246.62 180.666L246.62 180.666L183.98 180.666z" /></clipPath><clipPath id="11"><path d="M183.98 218.85L246.62 218.85L246.62 218.85L246.62 180.666L246.62 180.666L183.98 180.666z" /></clipPath><clipPath id="12"><path d="M247.11 218.85L291.765 218.85L291.765 218.85L291.765 180.675L291.765 180.675L247.11 180.675z" /></clipPath><clipPath id="13"><path d="M247.1 218.85L291.764 218.85L291.764 218.85L291.764 180.666L291.764 180.666L247.1 180.666z" /></clipPath><clipPath id="14"><path d="M247.1 218.85L291.764 218.85L291.764 218.85L291.764 180.666L291.764 180.666L247.1 180.666z" /></clipPath><clipPath id="15"><path d="M292.25 218.85L491 218.85L491 218.85L491 180.675L491 180.675L292.25 180.675z" /></clipPath><clipPath id="16"><path d="M292.25 218.85L490.99 218.85L490.99 218.85L490.99 180.666L490.99 180.666L292.25 180.666z" /></clipPath><clipPath id="17"><path d="M292.25 218.85L490.99 218.85L490.99 218.85L490.99 180.666L490.99 180.666L292.25 180.666z" /></clipPath><clipPath id="18"><path d="M491.48 218.85L752.02 218.85L752.02 218.85L752.02 180.675L752.02 180.675L491.48 180.675z" /></clipPath><clipPath id="19"><path d="M491.47 218.85L752.01 218.85L752.01 218.85L752.01 180.666L752.01 180.666L491.47 180.666z" /></clipPath><clipPath id="20"><path d="M491.47 218.85L752.01 218.85L752.01 218.85L752.01 180.666L752.01 180.666L491.47 180.666z" /></clipPath><clipPath id="21"><path d="M84.721 257.49L183.511 257.49L183.511 257.49L183.511 219.33L183.511 219.33L84.721 219.33z" /></clipPath><clipPath id="22"><path d="M84.72 257.49L183.504 257.49L183.504 257.49L183.504 219.33L183.504 219.33L84.72 219.33z" /></clipPath><clipPath id="23"><path d="M84.72 257.49L183.504 257.49L183.504 257.49L183.504 219.33L183.504 219.33L84.72 219.33z" /></clipPath><clipPath id="24"><path d="M183.99 257.49L246.63 257.49L246.63 257.49L246.63 219.33L246.63 219.33L183.99 219.33z" /></clipPath><clipPath id="25"><path d="M183.98 257.49L246.62 257.49L246.62 257.49L246.62 219.33L246.62 219.33L183.98 219.33z" /></clipPath><clipPath id="26"><path d="M183.98 257.49L246.62 257.49L246.62 257.49L246.62 219.33L246.62 219.33L183.98 219.33z" /></clipPath><clipPath id="27"><path d="M247.11 257.49L291.765 257.49L291.765 257.49L291.765 219.33L291.765 219.33L247.11 219.33z" /></clipPath><clipPath id="28"><path d="M247.1 257.49L291.764 257.49L291.764 257.49L291.764 219.33L291.764 219.33L247.1 219.33z" /></clipPath><clipPath id="29"><path d="M247.1 257.49L291.764 257.49L291.764 257.49L291.764 219.33L291.764 219.33L247.1 219.33z" /></clipPath><clipPath id="30"><path d="M292.25 257.49L491 257.49L491 257.49L491 219.33L491 219.33L292.25 219.33z" /></clipPath><clipPath id="31"><path d="M292.25 257.49L490.99 257.49L490.99 257.49L490.99 219.33L490.99 219.33L292.25 219.33z" /></clipPath><clipPath id="32"><path d="M292.25 257.49L490.99 257.49L490.99 257.49L490.99 219.33L490.99 219.33L292.25 219.33z" /></clipPath><clipPath id="33"><path d="M292.25 257.49L490.99 257.49L490.99 257.49L490.99 219.33L490.99 219.33L292.25 219.33z" /></clipPath><clipPath id="34"><path d="M491.48 257.49L752.02 257.49L752.02 257.49L752.02 219.33L752.02 219.33L491.48 219.33z" /></clipPath><clipPath id="35"><path d="M491.47 257.49L752.01 257.49L752.01 257.49L752.01 219.33L752.01 219.33L491.47 219.33z" /></clipPath><clipPath id="36"><path d="M491.47 257.49L752.01 257.49L752.01 257.49L752.01 219.33L752.01 219.33L491.47 219.33z" /></clipPath><clipPath id="37"><path d="M491.47 257.49L752.01 257.49L752.01 257.49L752.01 219.33L752.01 219.33L491.47 219.33z" /></clipPath><clipPath id="38"><path d="M491.47 257.49L752.01 257.49L752.01 257.49L752.01 219.33L752.01 219.33L491.47 219.33z" /></clipPath><clipPath id="39"><path d="M84.721 277.05L183.511 277.05L183.511 277.05L183.511 257.97L183.511 257.97L84.721 257.97z" /></clipPath><clipPath id="40"><path d="M84.72 277.05L183.504 277.05L183.504 277.05L183.504 257.97L183.504 257.97L84.72 257.97z" /></clipPath><clipPath id="41"><path d="M84.72 277.05L183.504 277.05L183.504 277.05L183.504 257.97L183.504 257.97L84.72 257.97z" /></clipPath><clipPath id="42"><path d="M183.99 277.05L246.63 277.05L246.63 277.05L246.63 257.97L246.63 257.97L183.99 257.97z" /></clipPath><clipPath id="43"><path d="M183.98 277.05L246.62 277.05L246.62 277.05L246.62 257.97L246.62 257.97L183.98 257.97z" /></clipPath><clipPath id="44"><path d="M183.98 277.05L246.62 277.05L246.62 277.05L246.62 257.97L246.62 257.97L183.98 257.97z" /></clipPath><clipPath id="45"><path d="M247.11 277.05L291.765 277.05L291.765 277.05L291.765 257.97L291.765 257.97L247.11 257.97z" /></clipPath><clipPath id="46"><path d="M247.1 277.05L291.764 277.05L291.764 277.05L291.764 257.97L291.764 257.97L247.1 257.97z" /></clipPath><clipPath id="47"><path d="M247.1 277.05L291.764 277.05L291.764 277.05L291.764 257.97L291.764 257.97L247.1 257.97z" /></clipPath><clipPath id="48"><path d="M292.25 277.05L491 277.05L491 277.05L491 257.97L491 257.97L292.25 257.97z" /></clipPath><clipPath id="49"><path d="M292.25 277.05L490.99 277.05L490.99 277.05L490.99 257.97L490.99 257.97L292.25 257.97z" /></clipPath><clipPath id="50"><path d="M292.25 277.05L490.99 277.05L490.99 277.05L490.99 257.97L490.99 257.97L292.25 257.97z" /></clipPath><clipPath id="51"><path d="M292.25 277.05L490.99 277.05L490.99 277.05L490.99 257.97L490.99 257.97L292.25 257.97z" /></clipPath><clipPath id="52"><path d="M491.48 277.05L752.02 277.05L752.02 277.05L752.02 257.97L752.02 257.97L491.48 257.97z" /></clipPath><clipPath id="53"><path d="M491.47 277.05L752.01 277.05L752.01 277.05L752.01 257.97L752.01 257.97L491.47 257.97z" /></clipPath><clipPath id="54"><path d="M491.47 277.05L752.01 277.05L752.01 277.05L752.01 257.97L752.01 257.97L491.47 257.97z" /></clipPath><clipPath id="55"><path d="M84.721 296.61L183.511 296.61L183.511 296.61L183.511 277.53L183.511 277.53L84.721 277.53z" /></clipPath><clipPath id="56"><path d="M84.72 296.61L183.504 296.61L183.504 296.61L183.504 277.53L183.504 277.53L84.72 277.53z" /></clipPath><clipPath id="57"><path d="M84.72 296.61L183.504 296.61L183.504 296.61L183.504 277.53L183.504 277.53L84.72 277.53z" /></clipPath><clipPath id="58"><path d="M183.99 296.61L246.63 296.61L246.63 296.61L246.63 277.53L246.63 277.53L183.99 277.53z" /></clipPath><clipPath id="59"><path d="M183.98 296.61L246.62 296.61L246.62 296.61L246.62 277.53L246.62 277.53L183.98 277.53z" /></clipPath><clipPath id="60"><path d="M183.98 296.61L246.62 296.61L246.62 296.61L246.62 277.53L246.62 277.53L183.98 277.53z" /></clipPath><clipPath id="61"><path d="M247.11 296.61L291.765 296.61L291.765 296.61L291.765 277.53L291.765 277.53L247.11 277.53z" /></clipPath><clipPath id="62"><path d="M247.1 296.61L291.764 296.61L291.764 296.61L291.764 277.53L291.764 277.53L247.1 277.53z" /></clipPath><clipPath id="63"><path d="M247.1 296.61L291.764 296.61L291.764 296.61L291.764 277.53L291.764 277.53L247.1 277.53z" /></clipPath><clipPath id="64"><path d="M292.25 296.61L491 296.61L491 296.61L491 277.53L491 277.53L292.25 277.53z" /></clipPath><clipPath id="65"><path d="M292.25 296.61L490.99 296.61L490.99 296.61L490.99 277.53L490.99 277.53L292.25 277.53z" /></clipPath><clipPath id="66"><path d="M292.25 296.61L490.99 296.61L490.99 296.61L490.99 277.53L490.99 277.53L292.25 277.53z" /></clipPath><clipPath id="67"><path d="M491.48 296.61L752.02 296.61L752.02 296.61L752.02 277.53L752.02 277.53L491.48 277.53z" /></clipPath><clipPath id="68"><path d="M491.47 296.61L752.01 296.61L752.01 296.61L752.01 277.53L752.01 277.53L491.47 277.53z" /></clipPath><clipPath id="69"><path d="M491.47 296.61L752.01 296.61L752.01 296.61L752.01 277.53L752.01 277.53L491.47 277.53z" /></clipPath><clipPath id="70"><path d="M491.47 296.61L752.01 296.61L752.01 296.61L752.01 277.53L752.01 277.53L491.47 277.53z" /></clipPath><clipPath id="71"><path d="M84.721 316.05L183.511 316.05L183.511 316.05L183.511 297.09L183.511 297.09L84.721 297.09z" /></clipPath><clipPath id="72"><path d="M84.72 316.05L183.504 316.05L183.504 316.05L183.504 297.09L183.504 297.09L84.72 297.09z" /></clipPath><clipPath id="73"><path d="M84.72 316.05L183.504 316.05L183.504 316.05L183.504 297.09L183.504 297.09L84.72 297.09z" /></clipPath><clipPath id="74"><path d="M183.99 316.05L246.63 316.05L246.63 316.05L246.63 297.09L246.63 297.09L183.99 297.09z" /></clipPath><clipPath id="75"><path d="M183.98 316.05L246.62 316.05L246.62 316.05L246.62 297.09L246.62 297.09L183.98 297.09z" /></clipPath><clipPath id="76"><path d="M183.98 316.05L246.62 316.05L246.62 316.05L246.62 297.09L246.62 297.09L183.98 297.09z" /></clipPath><clipPath id="77"><path d="M247.11 316.05L291.765 316.05L291.765 316.05L291.765 297.09L291.765 297.09L247.11 297.09z" /></clipPath><clipPath id="78"><path d="M247.1 316.05L291.764 316.05L291.764 316.05L291.764 297.09L291.764 297.09L247.1 297.09z" /></clipPath><clipPath id="79"><path d="M247.1 316.05L291.764 316.05L291.764 316.05L291.764 297.09L291.764 297.09L247.1 297.09z" /></clipPath><clipPath id="80"><path d="M292.25 316.05L491 316.05L491 316.05L491 297.09L491 297.09L292.25 297.09z" /></clipPath><clipPath id="81"><path d="M292.25 316.05L490.99 316.05L490.99 316.05L490.99 297.09L490.99 297.09L292.25 297.09z" /></clipPath><clipPath id="82"><path d="M292.25 316.05L490.99 316.05L490.99 316.05L490.99 297.09L490.99 297.09L292.25 297.09z" /></clipPath><clipPath id="83"><path d="M491.48 316.05L752.02 316.05L752.02 316.05L752.02 297.09L752.02 297.09L491.48 297.09z" /></clipPath><clipPath id="84"><path d="M491.47 316.05L752.01 316.05L752.01 316.05L752.01 297.09L752.01 297.09L491.47 297.09z" /></clipPath><clipPath id="85"><path d="M491.47 316.05L752.01 316.05L752.01 316.05L752.01 297.09L752.01 297.09L491.47 297.09z" /></clipPath><clipPath id="86"><path d="M84.721 335.64L183.511 335.64L183.511 335.64L183.511 316.65L183.511 316.65L84.721 316.65z" /></clipPath><clipPath id="87"><path d="M84.72 335.63L183.504 335.63L183.504 335.63L183.504 316.646L183.504 316.646L84.72 316.646z" /></clipPath><clipPath id="88"><path d="M84.72 335.63L183.504 335.63L183.504 335.63L183.504 316.646L183.504 316.646L84.72 316.646z" /></clipPath><clipPath id="89"><path d="M183.99 335.64L246.63 335.64L246.63 335.64L246.63 316.65L246.63 316.65L183.99 316.65z" /></clipPath><clipPath id="90"><path d="M183.98 335.63L246.62 335.63L246.62 335.63L246.62 316.646L246.62 316.646L183.98 316.646z" /></clipPath><clipPath id="91"><path d="M183.98 335.63L246.62 335.63L246.62 335.63L246.62 316.646L246.62 316.646L183.98 316.646z" /></clipPath><clipPath id="92"><path d="M247.11 335.64L291.765 335.64L291.765 335.64L291.765 316.65L291.765 316.65L247.11 316.65z" /></clipPath><clipPath id="93"><path d="M247.1 335.63L291.764 335.63L291.764 335.63L291.764 316.646L291.764 316.646L247.1 316.646z" /></clipPath><clipPath id="94"><path d="M247.1 335.63L291.764 335.63L291.764 335.63L291.764 316.646L291.764 316.646L247.1 316.646z" /></clipPath><clipPath id="95"><path d="M292.25 335.64L491 335.64L491 335.64L491 316.65L491 316.65L292.25 316.65z" /></clipPath><clipPath id="96"><path d="M292.25 335.63L490.99 335.63L490.99 335.63L490.99 316.646L490.99 316.646L292.25 316.646z" /></clipPath><clipPath id="97"><path d="M292.25 335.63L490.99 335.63L490.99 335.63L490.99 316.646L490.99 316.646L292.25 316.646z" /></clipPath><clipPath id="98"><path d="M491.48 335.64L752.02 335.64L752.02 335.64L752.02 316.65L752.02 316.65L491.48 316.65z" /></clipPath><clipPath id="99"><path d="M491.47 335.63L752.01 335.63L752.01 335.63L752.01 316.646L752.01 316.646L491.47 316.646z" /></clipPath><clipPath id="100"><path d="M491.47 335.63L752.01 335.63L752.01 335.63L752.01 316.646L752.01 316.646L491.47 316.646z" /></clipPath><clipPath id="101"><path d="M84.721 375.12L183.511 375.12L183.511 375.12L183.511 336.24L183.511 336.24L84.721 336.24z" /></clipPath><clipPath id="102"><path d="M84.72 375.11L183.504 375.11L183.504 375.11L183.504 336.23L183.504 336.23L84.72 336.23z" /></clipPath><clipPath id="103"><path d="M84.72 375.11L183.504 375.11L183.504 375.11L183.504 336.23L183.504 336.23L84.72 336.23z" /></clipPath><clipPath id="104"><path d="M183.99 375.12L246.63 375.12L246.63 375.12L246.63 336.24L246.63 336.24L183.99 336.24z" /></clipPath><clipPath id="105"><path d="M183.98 375.11L246.62 375.11L246.62 375.11L246.62 336.23L246.62 336.23L183.98 336.23z" /></clipPath><clipPath id="106"><path d="M183.98 375.11L246.62 375.11L246.62 375.11L246.62 336.23L246.62 336.23L183.98 336.23z" /></clipPath><clipPath id="107"><path d="M247.11 375.12L291.765 375.12L291.765 375.12L291.765 336.24L291.765 336.24L247.11 336.24z" /></clipPath><clipPath id="108"><path d="M247.1 375.11L291.764 375.11L291.764 375.11L291.764 336.23L291.764 336.23L247.1 336.23z" /></clipPath><clipPath id="109"><path d="M247.1 375.11L291.764 375.11L291.764 375.11L291.764 336.23L291.764 336.23L247.1 336.23z" /></clipPath><clipPath id="110"><path d="M292.25 375.12L491 375.12L491 375.12L491 336.24L491 336.24L292.25 336.24z" /></clipPath><clipPath id="111"><path d="M292.25 375.11L490.99 375.11L490.99 375.11L490.99 336.23L490.99 336.23L292.25 336.23z" /></clipPath><clipPath id="112"><path d="M292.25 375.11L490.99 375.11L490.99 375.11L490.99 336.23L490.99 336.23L292.25 336.23z" /></clipPath><clipPath id="113"><path d="M491.48 375.12L752.02 375.12L752.02 375.12L752.02 336.24L752.02 336.24L491.48 336.24z" /></clipPath><clipPath id="114"><path d="M491.47 375.11L752.01 375.11L752.01 375.11L752.01 336.23L752.01 336.23L491.47 336.23z" /></clipPath><clipPath id="115"><path d="M491.47 375.11L752.01 375.11L752.01 375.11L752.01 336.23L752.01 336.23L491.47 336.23z" /></clipPath><clipPath id="116"><path d="M491.47 375.11L752.01 375.11L752.01 375.11L752.01 336.23L752.01 336.23L491.47 336.23z" /></clipPath><clipPath id="117"><path d="M491.47 375.11L752.01 375.11L752.01 375.11L752.01 336.23L752.01 336.23L491.47 336.23z" /></clipPath><clipPath id="118"><path d="M491.47 375.11L752.01 375.11L752.01 375.11L752.01 336.23L752.01 336.23L491.47 336.23z" /></clipPath><clipPath id="119"><path d="M84.721 413.64L183.511 413.64L183.511 413.64L183.511 375.6L183.511 375.6L84.721 375.6z" /></clipPath><clipPath id="120"><path d="M84.72 413.63L183.504 413.63L183.504 413.63L183.504 375.59L183.504 375.59L84.72 375.59z" /></clipPath><clipPath id="121"><path d="M84.72 413.63L183.504 413.63L183.504 413.63L183.504 375.59L183.504 375.59L84.72 375.59z" /></clipPath><clipPath id="122"><path d="M183.99 413.64L246.63 413.64L246.63 413.64L246.63 375.6L246.63 375.6L183.99 375.6z" /></clipPath><clipPath id="123"><path d="M183.98 413.63L246.62 413.63L246.62 413.63L246.62 375.59L246.62 375.59L183.98 375.59z" /></clipPath><clipPath id="124"><path d="M183.98 413.63L246.62 413.63L246.62 413.63L246.62 375.59L246.62 375.59L183.98 375.59z" /></clipPath><clipPath id="125"><path d="M247.11 413.64L291.765 413.64L291.765 413.64L291.765 375.6L291.765 375.6L247.11 375.6z" /></clipPath><clipPath id="126"><path d="M247.1 413.63L291.764 413.63L291.764 413.63L291.764 375.59L291.764 375.59L247.1 375.59z" /></clipPath><clipPath id="127"><path d="M247.1 413.63L291.764 413.63L291.764 413.63L291.764 375.59L291.764 375.59L247.1 375.59z" /></clipPath><clipPath id="128"><path d="M292.25 413.64L491 413.64L491 413.64L491 375.6L491 375.6L292.25 375.6z" /></clipPath><clipPath id="129"><path d="M292.25 413.63L490.99 413.63L490.99 413.63L490.99 375.59L490.99 375.59L292.25 375.59z" /></clipPath><clipPath id="130"><path d="M292.25 413.63L490.99 413.63L490.99 413.63L490.99 375.59L490.99 375.59L292.25 375.59z" /></clipPath><clipPath id="131"><path d="M292.25 413.63L490.99 413.63L490.99 413.63L490.99 375.59L490.99 375.59L292.25 375.59z" /></clipPath><clipPath id="132"><path d="M491.48 413.64L752.02 413.64L752.02 413.64L752.02 375.6L752.02 375.6L491.48 375.6z" /></clipPath><clipPath id="133"><path d="M491.47 413.63L752.01 413.63L752.01 413.63L752.01 375.59L752.01 375.59L491.47 375.59z" /></clipPath><clipPath id="134"><path d="M491.47 413.63L752.01 413.63L752.01 413.63L752.01 375.59L752.01 375.59L491.47 375.59z" /></clipPath><clipPath id="135"><path d="M491.47 413.63L752.01 413.63L752.01 413.63L752.01 375.59L752.01 375.59L491.47 375.59z" /></clipPath><clipPath id="136"><path d="M491.47 413.63L752.01 413.63L752.01 413.63L752.01 375.59L752.01 375.59L491.47 375.59z" /></clipPath><clipPath id="137"><path d="M491.47 413.63L752.01 413.63L752.01 413.63L752.01 375.59L752.01 375.59L491.47 375.59z" /></clipPath><clipPath id="138"><path d="M84.721 439.8L183.511 439.8L183.511 439.8L183.511 414.24L183.511 414.24L84.721 414.24z" /></clipPath><clipPath id="139"><path d="M84.72 439.79L183.504 439.79L183.504 439.79L183.504 414.23L183.504 414.23L84.72 414.23z" /></clipPath><clipPath id="140"><path d="M84.72 439.79L183.504 439.79L183.504 439.79L183.504 414.23L183.504 414.23L84.72 414.23z" /></clipPath><clipPath id="141"><path d="M183.99 439.8L246.63 439.8L246.63 439.8L246.63 414.24L246.63 414.24L183.99 414.24z" /></clipPath><clipPath id="142"><path d="M183.98 439.79L246.62 439.79L246.62 439.79L246.62 414.23L246.62 414.23L183.98 414.23z" /></clipPath><clipPath id="143"><path d="M183.98 439.79L246.62 439.79L246.62 439.79L246.62 414.23L246.62 414.23L183.98 414.23z" /></clipPath><clipPath id="144"><path d="M247.11 439.8L291.765 439.8L291.765 439.8L291.765 414.24L291.765 414.24L247.11 414.24z" /></clipPath><clipPath id="145"><path d="M247.1 439.79L291.764 439.79L291.764 439.79L291.764 414.23L291.764 414.23L247.1 414.23z" /></clipPath><clipPath id="146"><path d="M247.1 439.79L291.764 439.79L291.764 439.79L291.764 414.23L291.764 414.23L247.1 414.23z" /></clipPath><clipPath id="147"><path d="M292.25 439.8L491 439.8L491 439.8L491 414.24L491 414.24L292.25 414.24z" /></clipPath><clipPath id="148"><path d="M292.25 439.79L490.99 439.79L490.99 439.79L490.99 414.23L490.99 414.23L292.25 414.23z" /></clipPath><clipPath id="149"><path d="M292.25 439.79L490.99 439.79L490.99 439.79L490.99 414.23L490.99 414.23L292.25 414.23z" /></clipPath><clipPath id="150"><path d="M491.48 439.8L752.02 439.8L752.02 439.8L752.02 414.24L752.02 414.24L491.48 414.24z" /></clipPath><clipPath id="151"><path d="M491.47 439.79L752.01 439.79L752.01 439.79L752.01 414.23L752.01 414.23L491.47 414.23z" /></clipPath><clipPath id="152"><path d="M491.47 439.79L752.01 439.79L752.01 439.79L752.01 414.23L752.01 414.23L491.47 414.23z" /></clipPath><clipPath id="153"><path d="M491.47 439.79L752.01 439.79L752.01 439.79L752.01 414.23L752.01 414.23L491.47 414.23z" /></clipPath><clipPath id="154"><path d="M491.47 439.79L752.01 439.79L752.01 439.79L752.01 414.23L752.01 414.23L491.47 414.23z" /></clipPath><clipPath id="155"><path d="M84.721 459.36L183.511 459.36L183.511 459.36L183.511 440.28L183.511 440.28L84.721 440.28z" /></clipPath><clipPath id="156"><path d="M84.72 459.35L183.504 459.35L183.504 459.35L183.504 440.27L183.504 440.27L84.72 440.27z" /></clipPath><clipPath id="157"><path d="M84.72 459.35L183.504 459.35L183.504 459.35L183.504 440.27L183.504 440.27L84.72 440.27z" /></clipPath><clipPath id="158"><path d="M183.99 459.36L246.63 459.36L246.63 459.36L246.63 440.28L246.63 440.28L183.99 440.28z" /></clipPath><clipPath id="159"><path d="M183.98 459.35L246.62 459.35L246.62 459.35L246.62 440.27L246.62 440.27L183.98 440.27z" /></clipPath><clipPath id="160"><path d="M183.98 459.35L246.62 459.35L246.62 459.35L246.62 440.27L246.62 440.27L183.98 440.27z" /></clipPath><clipPath id="161"><path d="M247.11 459.36L291.765 459.36L291.765 459.36L291.765 440.28L291.765 440.28L247.11 440.28z" /></clipPath><clipPath id="162"><path d="M247.1 459.35L291.764 459.35L291.764 459.35L291.764 440.27L291.764 440.27L247.1 440.27z" /></clipPath><clipPath id="163"><path d="M247.1 459.35L291.764 459.35L291.764 459.35L291.764 440.27L291.764 440.27L247.1 440.27z" /></clipPath><clipPath id="164"><path d="M292.25 459.36L491 459.36L491 459.36L491 440.28L491 440.28L292.25 440.28z" /></clipPath><clipPath id="165"><path d="M292.25 459.35L490.99 459.35L490.99 459.35L490.99 440.27L490.99 440.27L292.25 440.27z" /></clipPath><clipPath id="166"><path d="M292.25 459.35L490.99 459.35L490.99 459.35L490.99 440.27L490.99 440.27L292.25 440.27z" /></clipPath><clipPath id="167"><path d="M491.48 459.36L752.02 459.36L752.02 459.36L752.02 440.28L752.02 440.28L491.48 440.28z" /></clipPath><clipPath id="168"><path d="M491.47 459.35L752.01 459.35L752.01 459.35L752.01 440.27L752.01 440.27L491.47 440.27z" /></clipPath><clipPath id="169"><path d="M491.47 459.35L752.01 459.35L752.01 459.35L752.01 440.27L752.01 440.27L491.47 440.27z" /></clipPath><clipPath id="170"><path d="M491.47 459.35L752.01 459.35L752.01 459.35L752.01 440.27L752.01 440.27L491.47 440.27z" /></clipPath><clipPath id="171"><path d="M491.47 459.35L752.01 459.35L752.01 459.35L752.01 440.27L752.01 440.27L491.47 440.27z" /></clipPath><clipPath id="172"><path d="M84.721 478.93L183.511 478.93L183.511 478.93L183.511 459.835L183.511 459.835L84.721 459.835z" /></clipPath><clipPath id="173"><path d="M84.72 478.94L183.504 478.94L183.504 478.94L183.504 459.836L183.504 459.836L84.72 459.836z" /></clipPath><clipPath id="174"><path d="M84.72 478.94L183.504 478.94L183.504 478.94L183.504 459.836L183.504 459.836L84.72 459.836z" /></clipPath><clipPath id="175"><path d="M183.99 478.93L246.63 478.93L246.63 478.93L246.63 459.835L246.63 459.835L183.99 459.835z" /></clipPath><clipPath id="176"><path d="M183.98 478.94L246.62 478.94L246.62 478.94L246.62 459.836L246.62 459.836L183.98 459.836z" /></clipPath><clipPath id="177"><path d="M183.98 478.94L246.62 478.94L246.62 478.94L246.62 459.836L246.62 459.836L183.98 459.836z" /></clipPath><clipPath id="178"><path d="M247.11 478.93L291.765 478.93L291.765 478.93L291.765 459.835L291.765 459.835L247.11 459.835z" /></clipPath><clipPath id="179"><path d="M247.1 478.94L291.764 478.94L291.764 478.94L291.764 459.836L291.764 459.836L247.1 459.836z" /></clipPath><clipPath id="180"><path d="M247.1 478.94L291.764 478.94L291.764 478.94L291.764 459.836L291.764 459.836L247.1 459.836z" /></clipPath><clipPath id="181"><path d="M292.25 478.93L491 478.93L491 478.93L491 459.835L491 459.835L292.25 459.835z" /></clipPath><clipPath id="182"><path d="M292.25 478.94L490.99 478.94L490.99 478.94L490.99 459.836L490.99 459.836L292.25 459.836z" /></clipPath><clipPath id="183"><path d="M292.25 478.94L490.99 478.94L490.99 478.94L490.99 459.836L490.99 459.836L292.25 459.836z" /></clipPath><clipPath id="184"><path d="M491.48 478.93L752.02 478.93L752.02 478.93L752.02 459.835L752.02 459.835L491.48 459.835z" /></clipPath><clipPath id="185"><path d="M491.47 478.94L752.01 478.94L752.01 478.94L752.01 459.836L752.01 459.836L491.47 459.836z" /></clipPath><clipPath id="186"><path d="M491.47 478.94L752.01 478.94L752.01 478.94L752.01 459.836L752.01 459.836L491.47 459.836z" /></clipPath><clipPath id="187"><path d="M491.47 478.94L752.01 478.94L752.01 478.94L752.01 459.836L752.01 459.836L491.47 459.836z" /></clipPath><clipPath id="188"><path d="M491.47 478.94L752.01 478.94L752.01 478.94L752.01 459.836L752.01 459.836L491.47 459.836z" /></clipPath><clipPath id="189"><path d="M84.721 498.491L183.511 498.491L183.511 498.491L183.511 479.411L183.511 479.411L84.721 479.411z" /></clipPath><clipPath id="190"><path d="M84.72 498.496L183.504 498.496L183.504 498.496L183.504 479.416L183.504 479.416L84.72 479.416z" /></clipPath><clipPath id="191"><path d="M84.72 498.496L183.504 498.496L183.504 498.496L183.504 479.416L183.504 479.416L84.72 479.416z" /></clipPath><clipPath id="192"><path d="M183.99 498.491L246.63 498.491L246.63 498.491L246.63 479.411L246.63 479.411L183.99 479.411z" /></clipPath><clipPath id="193"><path d="M183.98 498.496L246.62 498.496L246.62 498.496L246.62 479.416L246.62 479.416L183.98 479.416z" /></clipPath><clipPath id="194"><path d="M183.98 498.496L246.62 498.496L246.62 498.496L246.62 479.416L246.62 479.416L183.98 479.416z" /></clipPath><clipPath id="195"><path d="M247.11 498.491L291.765 498.491L291.765 498.491L291.765 479.411L291.765 479.411L247.11 479.411z" /></clipPath><clipPath id="196"><path d="M247.1 498.496L291.764 498.496L291.764 498.496L291.764 479.416L291.764 479.416L247.1 479.416z" /></clipPath><clipPath id="197"><path d="M247.1 498.496L291.764 498.496L291.764 498.496L291.764 479.416L291.764 479.416L247.1 479.416z" /></clipPath><clipPath id="198"><path d="M292.25 498.491L491 498.491L491 498.491L491 479.411L491 479.411L292.25 479.411z" /></clipPath><clipPath id="199"><path d="M292.25 498.496L490.99 498.496L490.99 498.496L490.99 479.416L490.99 479.416L292.25 479.416z" /></clipPath><clipPath id="200"><path d="M491.48 498.491L752.02 498.491L752.02 498.491L752.02 479.411L752.02 479.411L491.48 479.411z" /></clipPath><clipPath id="201"><path d="M491.47 498.496L752.01 498.496L752.01 498.496L752.01 479.416L752.01 479.416L491.47 479.416z" /></clipPath><clipPath id="202"><path d="M491.47 498.496L752.01 498.496L752.01 498.496L752.01 479.416L752.01 479.416L491.47 479.416z" /></clipPath><clipPath id="203"><path d="M491.47 498.496L752.01 498.496L752.01 498.496L752.01 479.416L752.01 479.416L491.47 479.416z" /></clipPath><clipPath id="204"><path d="M491.47 498.496L752.01 498.496L752.01 498.496L752.01 479.416L752.01 479.416L491.47 479.416z" /></clipPath></defs><g transform="matrix(1.333333 0 0 1.333333 0 0)"><g><g clip-path="url(#1)"><path transform="matrix(1 0 0 -1 0 595)" d="M704.26 53.304L752.14 53.304L752.14 53.304L752.14 53.90398L752.14 53.90398L704.26 53.90398z" stroke="none" fill="#000000" fill-rule="evenodd" /><g clip-path="url(#2)"><path transform="matrix(1 0 0 -1 0 595)" d="M88.44 77.904L753.58 77.904L753.58 77.904L753.58 80.904L753.58 80.904L88.44 80.904z" stroke="none" fill="#000000" fill-rule="evenodd" /><path transform="matrix(1 0 0 -1 0 595)" d="M88.44 76.464L753.58 76.464L753.58 76.464L753.58 77.18403L753.58 77.18403L88.44 77.18403z" stroke="none" fill="#000000" fill-rule="evenodd" /></g><g clip-path="url(#3)"><g clip-path="url(#4)"></g><g clip-path="url(#5)"></g></g><path transform="matrix(1 0 0 -1 0 595)" d="M185.66 482.74L255.98 482.74L255.98 482.74L255.98 483.46L255.98 483.46L185.66 483.46z" stroke="none" fill="#000000" fill-rule="evenodd" /><path transform="matrix(1 0 0 -1 0 595)" d="M270.02 482.74L312.164 482.74L312.164 482.74L312.164 483.46L312.164 483.46L270.02 483.46z" stroke="none" fill="#000000" fill-rule="evenodd" /><path transform="matrix(1 0 0 -1 0 595)" d="M84.72 376.15L183.504 376.15L183.504 376.15L183.504 414.334L183.504 414.334L84.72 414.334z" stroke="none" fill="#0070C0" fill-rule="evenodd" /><g clip-path="url(#6)"><path transform="matrix(1 0 0 -1 0 595)" d="M89.88 395.26L178.344 395.26L178.344 395.26L178.344 414.34L178.344 414.34L89.88 414.34z" stroke="none" fill="#0070C0" fill-rule="evenodd" /><g clip-path="url(#7)"></g><g clip-path="url(#8)"></g></g><path transform="matrix(1 0 0 -1 0 595)" d="M183.98 376.15L246.62 376.15L246.62 376.15L246.62 414.334L246.62 414.334L183.98 414.334z" stroke="none" fill="#0070C0" fill-rule="evenodd" /><g clip-path="url(#9)"><path transform="matrix(1 0 0 -1 0 595)" d="M189.14 395.26L241.46 395.26L241.46 395.26L241.46 414.34L241.46 414.34L189.14 414.34z" stroke="none" fill="#0070C0" fill-rule="evenodd" /><g clip-path="url(#10)"></g><g clip-path="url(#11)"></g></g><path transform="matrix(1 0 0 -1 0 595)" d="M247.1 376.15L291.764 376.15L291.764 376.15L291.764 414.334L291.764 414.334L247.1 414.334z" stroke="none" fill="#0070C0" fill-rule="evenodd" /><g clip-path="url(#12)"><path transform="matrix(1 0 0 -1 0 595)" d="M252.26 395.26L286.604 395.26L286.604 395.26L286.604 414.34L286.604 414.34L252.26 414.34z" stroke="none" fill="#0070C0" fill-rule="evenodd" /><g clip-path="url(#13)"></g><g clip-path="url(#14)"></g></g><path transform="matrix(1 0 0 -1 0 595)" d="M292.25 376.15L490.99 376.15L490.99 376.15L490.99 414.334L490.99 414.334L292.25 414.334z" stroke="none" fill="#0070C0" fill-rule="evenodd" /><g clip-path="url(#15)"><path transform="matrix(1 0 0 -1 0 595)" d="M297.41 395.26L485.83 395.26L485.83 395.26L485.83 414.34L485.83 414.34L297.41 414.34z" stroke="none" fill="#0070C0" fill-rule="evenodd" /><g clip-path="url(#16)"></g><g clip-path="url(#17)"></g></g><path transform="matrix(1 0 0 -1 0 595)" d="M491.47 376.15L752.01 376.15L752.01 376.15L752.01 414.334L752.01 414.334L491.47 414.334z" stroke="none" fill="#0070C0" fill-rule="evenodd" /><g clip-path="url(#18)"><path transform="matrix(1 0 0 -1 0 595)" d="M496.63 395.26L746.85 395.26L746.85 395.26L746.85 414.34L746.85 414.34L496.63 414.34z" stroke="none" fill="#0070C0" fill-rule="evenodd" /><g clip-path="url(#19)"></g><g clip-path="url(#20)"></g></g><path transform="matrix(1 0 0 -1 0 595)" d="M84.24 414.34L84.72 414.34L84.72 414.34L84.72 414.82L84.72 414.82L84.24 414.82z" stroke="none" fill="#000000" fill-rule="evenodd" /><path transform="matrix(1 0 0 -1 0 595)" d="M84.24 414.34L84.72 414.34L84.72 414.34L84.72 414.82L84.72 414.82L84.24 414.82z" stroke="none" fill="#000000" fill-rule="evenodd" /><path transform="matrix(1 0 0 -1 0 595)" d="M84.72 414.34L183.504 414.34L183.504 414.34L183.504 414.82L183.504 414.82L84.72 414.82z" stroke="none" fill="#000000" fill-rule="evenodd" /><path transform="matrix(1 0 0 -1 0 595)" d="M183.5 414.34L183.98 414.34L183.98 414.34L183.98 414.82L183.98 414.82L183.5 414.82z" stroke="none" fill="#000000" fill-rule="evenodd" /><path transform="matrix(1 0 0 -1 0 595)" d="M183.98 414.34L246.62 414.34L246.62 414.34L246.62 414.82L246.62 414.82L183.98 414.82z" stroke="none" fill="#000000" fill-rule="evenodd" /><path transform="matrix(1 0 0 -1 0 595)" d="M246.62 414.34L247.1 414.34L247.1 414.34L247.1 414.82L247.1 414.82L246.62 414.82z" stroke="none" fill="#000000" fill-rule="evenodd" /><path transform="matrix(1 0 0 -1 0 595)" d="M247.1 414.34L291.764 414.34L291.764 414.34L291.764 414.82L291.764 414.82L247.1 414.82z" stroke="none" fill="#000000" fill-rule="evenodd" /><path transform="matrix(1 0 0 -1 0 595)" d="M291.77 414.34L292.25 414.34L292.25 414.34L292.25 414.82L292.25 414.82L291.77 414.82z" stroke="none" fill="#000000" fill-rule="evenodd" /><path transform="matrix(1 0 0 -1 0 595)" d="M292.25 414.34L490.99 414.34L490.99 414.34L490.99 414.82L490.99 414.82L292.25 414.82z" stroke="none" fill="#000000" fill-rule="evenodd" /><path transform="matrix(1 0 0 -1 0 595)" d="M490.99 414.34L491.47 414.34L491.47 414.34L491.47 414.82L491.47 414.82L490.99 414.82z" stroke="none" fill="#000000" fill-rule="evenodd" /><path transform="matrix(1 0 0 -1 0 595)" d="M491.47 414.34L752.01 414.34L752.01 414.34L752.01 414.82L752.01 414.82L491.47 414.82z" stroke="none" fill="#000000" fill-rule="evenodd" /><path transform="matrix(1 0 0 -1 0 595)" d="M752.02 414.34L752.5001 414.34L752.5001 414.34L752.5001 414.82L752.5001 414.82L752.02 414.82z" stroke="none" fill="#000000" fill-rule="evenodd" /><path transform="matrix(1 0 0 -1 0 595)" d="M752.02 414.34L752.5001 414.34L752.5001 414.34L752.5001 414.82L752.5001 414.82L752.02 414.82z" stroke="none" fill="#000000" fill-rule="evenodd" /><path transform="matrix(1 0 0 -1 0 595)" d="M84.24 376.15L84.72 376.15L84.72 376.15L84.72 414.334L84.72 414.334L84.24 414.334z" stroke="none" fill="#000000" fill-rule="evenodd" /><path transform="matrix(1 0 0 -1 0 595)" d="M183.5 376.15L183.98 376.15L183.98 376.15L183.98 414.334L183.98 414.334L183.5 414.334z" stroke="none" fill="#000000" fill-rule="evenodd" /><path transform="matrix(1 0 0 -1 0 595)" d="M246.62 376.15L247.1 376.15L247.1 376.15L247.1 414.334L247.1 414.334L246.62 414.334z" stroke="none" fill="#000000" fill-rule="evenodd" /><path transform="matrix(1 0 0 -1 0 595)" d="M291.77 376.15L292.25 376.15L292.25 376.15L292.25 414.334L292.25 414.334L291.77 414.334z" stroke="none" fill="#000000" fill-rule="evenodd" /><path transform="matrix(1 0 0 -1 0 595)" d="M490.99 376.15L491.47 376.15L491.47 376.15L491.47 414.334L491.47 414.334L490.99 414.334z" stroke="none" fill="#000000" fill-rule="evenodd" /><path transform="matrix(1 0 0 -1 0 595)" d="M752.02 376.15L752.5001 376.15L752.5001 376.15L752.5001 414.334L752.5001 414.334L752.02 414.334z" stroke="none" fill="#000000" fill-rule="evenodd" /><path transform="matrix(1 0 0 -1 0 595)" d="M84.72 337.51L183.504 337.51L183.504 337.51L183.504 375.67L183.504 375.67L84.72 375.67z" stroke="none" fill="#DAEEF3" fill-rule="evenodd" /><g clip-path="url(#21)"><path transform="matrix(1 0 0 -1 0 595)" d="M89.88 356.59L178.344 356.59L178.344 356.59L178.344 375.67L178.344 375.67L89.88 375.67z" stroke="none" fill="#DAEEF3" fill-rule="evenodd" /><g clip-path="url(#22)"></g><g clip-path="url(#23)"></g></g><path transform="matrix(1 0 0 -1 0 595)" d="M183.98 337.51L246.62 337.51L246.62 337.51L246.62 375.67L246.62 375.67L183.98 375.67z" stroke="none" fill="#DAEEF3" fill-rule="evenodd" /><g clip-path="url(#24)"><path transform="matrix(1 0 0 -1 0 595)" d="M189.14 356.59L241.46 356.59L241.46 356.59L241.46 375.67L241.46 375.67L189.14 375.67z" stroke="none" fill="#DAEEF3" fill-rule="evenodd" /><g clip-path="url(#25)"></g><g clip-path="url(#26)"></g></g><path transform="matrix(1 0 0 -1 0 595)" d="M247.1 337.51L291.764 337.51L291.764 337.51L291.764 375.67L291.764 375.67L247.1 375.67z" stroke="none" fill="#DAEEF3" fill-rule="evenodd" /><g clip-path="url(#27)"><path transform="matrix(1 0 0 -1 0 595)" d="M252.26 356.59L286.604 356.59L286.604 356.59L286.604 375.67L286.604 375.67L252.26 375.67z" stroke="none" fill="#DAEEF3" fill-rule="evenodd" /><g clip-path="url(#28)"></g><g clip-path="url(#29)"></g></g><path transform="matrix(1 0 0 -1 0 595)" d="M292.25 337.51L490.99 337.51L490.99 337.51L490.99 375.67L490.99 375.67L292.25 375.67z" stroke="none" fill="#DAEEF3" fill-rule="evenodd" /><g clip-path="url(#30)"><path transform="matrix(1 0 0 -1 0 595)" d="M297.41 356.59L485.83 356.59L485.83 356.59L485.83 375.67L485.83 375.67L297.41 375.67z" stroke="none" fill="#DAEEF3" fill-rule="evenodd" /><g clip-path="url(#31)"></g><path transform="matrix(1 0 0 -1 0 595)" d="M297.41 337.51L485.83 337.51L485.83 337.51L485.83 356.59L485.83 356.59L297.41 356.59z" stroke="none" fill="#DAEEF3" fill-rule="evenodd" /><g clip-path="url(#32)"></g><g clip-path="url(#33)"></g></g><path transform="matrix(1 0 0 -1 0 595)" d="M491.47 337.51L752.01 337.51L752.01 337.51L752.01 375.67L752.01 375.67L491.47 375.67z" stroke="none" fill="#DAEEF3" fill-rule="evenodd" /><g clip-path="url(#34)"><path transform="matrix(1 0 0 -1 0 595)" d="M496.63 356.59L746.85 356.59L746.85 356.59L746.85 375.67L746.85 375.67L496.63 375.67z" stroke="none" fill="#DAEEF3" fill-rule="evenodd" /><g clip-path="url(#35)"></g><g clip-path="url(#36)"></g><g clip-path="url(#37)"></g><g clip-path="url(#38)"></g></g><path transform="matrix(1 0 0 -1 0 595)" d="M84.24 375.67L84.72 375.67L84.72 375.67L84.72 376.15L84.72 376.15L84.24 376.15z" stroke="none" fill="#000000" fill-rule="evenodd" /><path transform="matrix(1 0 0 -1 0 595)" d="M84.72 375.67L183.504 375.67L183.504 375.67L183.504 376.15L183.504 376.15L84.72 376.15z" stroke="none" fill="#000000" fill-rule="evenodd" /><path transform="matrix(1 0 0 -1 0 595)" d="M183.5 375.67L183.98 375.67L183.98 375.67L183.98 376.15L183.98 376.15L183.5 376.15z" stroke="none" fill="#000000" fill-rule="evenodd" /><path transform="matrix(1 0 0 -1 0 595)" d="M183.98 375.67L246.62 375.67L246.62 375.67L246.62 376.15L246.62 376.15L183.98 376.15z" stroke="none" fill="#000000" fill-rule="evenodd" /><path transform="matrix(1 0 0 -1 0 595)" d="M246.62 375.67L247.1 375.67L247.1 375.67L247.1 376.15L247.1 376.15L246.62 376.15z" stroke="none" fill="#000000" fill-rule="evenodd" /><path transform="matrix(1 0 0 -1 0 595)" d="M247.1 375.67L291.764 375.67L291.764 375.67L291.764 376.15L291.764 376.15L247.1 376.15z" stroke="none" fill="#000000" fill-rule="evenodd" /><path transform="matrix(1 0 0 -1 0 595)" d="M291.77 375.67L292.25 375.67L292.25 375.67L292.25 376.15L292.25 376.15L291.77 376.15z" stroke="none" fill="#000000" fill-rule="evenodd" /><path transform="matrix(1 0 0 -1 0 595)" d="M292.25 375.67L490.99 375.67L490.99 375.67L490.99 376.15L490.99 376.15L292.25 376.15z" stroke="none" fill="#000000" fill-rule="evenodd" /><path transform="matrix(1 0 0 -1 0 595)" d="M490.99 375.67L491.47 375.67L491.47 375.67L491.47 376.15L491.47 376.15L490.99 376.15z" stroke="none" fill="#000000" fill-rule="evenodd" /><path transform="matrix(1 0 0 -1 0 595)" d="M491.47 375.67L752.01 375.67L752.01 375.67L752.01 376.15L752.01 376.15L491.47 376.15z" stroke="none" fill="#000000" fill-rule="evenodd" /><path transform="matrix(1 0 0 -1 0 595)" d="M752.02 375.67L752.5001 375.67L752.5001 375.67L752.5001 376.15L752.5001 376.15L752.02 376.15z" stroke="none" fill="#000000" fill-rule="evenodd" /><path transform="matrix(1 0 0 -1 0 595)" d="M84.24 337.51L84.72 337.51L84.72 337.51L84.72 375.67L84.72 375.67L84.24 375.67z" stroke="none" fill="#000000" fill-rule="evenodd" /><path transform="matrix(1 0 0 -1 0 595)" d="M183.5 337.51L183.98 337.51L183.98 337.51L183.98 375.67L183.98 375.67L183.5 375.67z" stroke="none" fill="#000000" fill-rule="evenodd" /><path transform="matrix(1 0 0 -1 0 595)" d="M246.62 337.51L247.1 337.51L247.1 337.51L247.1 375.67L247.1 375.67L246.62 375.67z" stroke="none" fill="#000000" fill-rule="evenodd" /><path transform="matrix(1 0 0 -1 0 595)" d="M291.77 337.51L292.25 337.51L292.25 337.51L292.25 375.67L292.25 375.67L291.77 375.67z" stroke="none" fill="#000000" fill-rule="evenodd" /><path transform="matrix(1 0 0 -1 0 595)" d="M490.99 337.51L491.47 337.51L491.47 337.51L491.47 375.67L491.47 375.67L490.99 375.67z" stroke="none" fill="#000000" fill-rule="evenodd" /><path transform="matrix(1 0 0 -1 0 595)" d="M752.02 337.51L752.5001 337.51L752.5001 337.51L752.5001 375.67L752.5001 375.67L752.02 375.67z" stroke="none" fill="#000000" fill-rule="evenodd" /><g clip-path="url(#39)"><g clip-path="url(#40)"></g><g clip-path="url(#41)"></g></g><g clip-path="url(#42)"><g clip-path="url(#43)"></g><g clip-path="url(#44)"></g></g><g clip-path="url(#45)"><g clip-path="url(#46)"></g><g clip-path="url(#47)"></g></g><g clip-path="url(#48)"><g clip-path="url(#49)"></g><g clip-path="url(#50)"></g><g clip-path="url(#51)"></g></g><g clip-path="url(#52)"><g clip-path="url(#53)"></g><g clip-path="url(#54)"></g></g><path transform="matrix(1 0 0 -1 0 595)" d="M84.24 337.03L84.72 337.03L84.72 337.03L84.72 337.51L84.72 337.51L84.24 337.51z" stroke="none" fill="#000000" fill-rule="evenodd" /><path transform="matrix(1 0 0 -1 0 595)" d="M84.72 337.03L183.504 337.03L183.504 337.03L183.504 337.51L183.504 337.51L84.72 337.51z" stroke="none" fill="#000000" fill-rule="evenodd" /><path transform="matrix(1 0 0 -1 0 595)" d="M183.5 337.03L183.98 337.03L183.98 337.03L183.98 337.51L183.98 337.51L183.5 337.51z" stroke="none" fill="#000000" fill-rule="evenodd" /><path transform="matrix(1 0 0 -1 0 595)" d="M183.98 337.03L246.62 337.03L246.62 337.03L246.62 337.51L246.62 337.51L183.98 337.51z" stroke="none" fill="#000000" fill-rule="evenodd" /><path transform="matrix(1 0 0 -1 0 595)" d="M246.62 337.03L247.1 337.03L247.1 337.03L247.1 337.51L247.1 337.51L246.62 337.51z" stroke="none" fill="#000000" fill-rule="evenodd" /><path transform="matrix(1 0 0 -1 0 595)" d="M247.1 337.03L291.764 337.03L291.764 337.03L291.764 337.51L291.764 337.51L247.1 337.51z" stroke="none" fill="#000000" fill-rule="evenodd" /><path transform="matrix(1 0 0 -1 0 595)" d="M291.77 337.03L292.25 337.03L292.25 337.03L292.25 337.51L292.25 337.51L291.77 337.51z" stroke="none" fill="#000000" fill-rule="evenodd" /><path transform="matrix(1 0 0 -1 0 595)" d="M292.25 337.03L490.99 337.03L490.99 337.03L490.99 337.51L490.99 337.51L292.25 337.51z" stroke="none" fill="#000000" fill-rule="evenodd" /><path transform="matrix(1 0 0 -1 0 595)" d="M490.99 337.03L491.47 337.03L491.47 337.03L491.47 337.51L491.47 337.51L490.99 337.51z" stroke="none" fill="#000000" fill-rule="evenodd" /><path transform="matrix(1 0 0 -1 0 595)" d="M491.47 337.03L752.01 337.03L752.01 337.03L752.01 337.51L752.01 337.51L491.47 337.51z" stroke="none" fill="#000000" fill-rule="evenodd" /><path transform="matrix(1 0 0 -1 0 595)" d="M752.02 337.03L752.5001 337.03L752.5001 337.03L752.5001 337.51L752.5001 337.51L752.02 337.51z" stroke="none" fill="#000000" fill-rule="evenodd" /><path transform="matrix(1 0 0 -1 0 595)" d="M84.24 317.95L84.72 317.95L84.72 317.95L84.72 337.03L84.72 337.03L84.24 337.03z" stroke="none" fill="#000000" fill-rule="evenodd" /><path transform="matrix(1 0 0 -1 0 595)" d="M183.5 317.95L183.98 317.95L183.98 317.95L183.98 337.03L183.98 337.03L183.5 337.03z" stroke="none" fill="#000000" fill-rule="evenodd" /><path transform="matrix(1 0 0 -1 0 595)" d="M246.62 317.95L247.1 317.95L247.1 317.95L247.1 337.03L247.1 337.03L246.62 337.03z" stroke="none" fill="#000000" fill-rule="evenodd" /><path transform="matrix(1 0 0 -1 0 595)" d="M291.77 317.95L292.25 317.95L292.25 317.95L292.25 337.03L292.25 337.03L291.77 337.03z" stroke="none" fill="#000000" fill-rule="evenodd" /><path transform="matrix(1 0 0 -1 0 595)" d="M490.99 317.95L491.47 317.95L491.47 317.95L491.47 337.03L491.47 337.03L490.99 337.03z" stroke="none" fill="#000000" fill-rule="evenodd" /><path transform="matrix(1 0 0 -1 0 595)" d="M752.02 317.95L752.5001 317.95L752.5001 317.95L752.5001 337.03L752.5001 337.03L752.02 337.03z" stroke="none" fill="#000000" fill-rule="evenodd" /><path transform="matrix(1 0 0 -1 0 595)" d="M84.72 298.39L183.504 298.39L183.504 298.39L183.504 317.47L183.504 317.47L84.72 317.47z" stroke="none" fill="#DAEEF3" fill-rule="evenodd" /><g clip-path="url(#55)"><path transform="matrix(1 0 0 -1 0 595)" d="M89.88 298.39L178.344 298.39L178.344 298.39L178.344 317.47L178.344 317.47L89.88 317.47z" stroke="none" fill="#DAEEF3" fill-rule="evenodd" /><g clip-path="url(#56)"></g><g clip-path="url(#57)"></g></g><path transform="matrix(1 0 0 -1 0 595)" d="M183.98 298.39L246.62 298.39L246.62 298.39L246.62 317.47L246.62 317.47L183.98 317.47z" stroke="none" fill="#DAEEF3" fill-rule="evenodd" /><g clip-path="url(#58)"><path transform="matrix(1 0 0 -1 0 595)" d="M189.14 298.39L241.46 298.39L241.46 298.39L241.46 317.47L241.46 317.47L189.14 317.47z" stroke="none" fill="#DAEEF3" fill-rule="evenodd" /><g clip-path="url(#59)"></g><g clip-path="url(#60)"></g></g><path transform="matrix(1 0 0 -1 0 595)" d="M247.1 298.39L291.764 298.39L291.764 298.39L291.764 317.47L291.764 317.47L247.1 317.47z" stroke="none" fill="#DAEEF3" fill-rule="evenodd" /><g clip-path="url(#61)"><path transform="matrix(1 0 0 -1 0 595)" d="M252.26 298.39L286.604 298.39L286.604 298.39L286.604 317.47L286.604 317.47L252.26 317.47z" stroke="none" fill="#DAEEF3" fill-rule="evenodd" /><g clip-path="url(#62)"></g><g clip-path="url(#63)"></g></g><path transform="matrix(1 0 0 -1 0 595)" d="M292.25 298.39L490.99 298.39L490.99 298.39L490.99 317.47L490.99 317.47L292.25 317.47z" stroke="none" fill="#DAEEF3" fill-rule="evenodd" /><g clip-path="url(#64)"><path transform="matrix(1 0 0 -1 0 595)" d="M297.41 298.39L485.83 298.39L485.83 298.39L485.83 317.47L485.83 317.47L297.41 317.47z" stroke="none" fill="#DAEEF3" fill-rule="evenodd" /><g clip-path="url(#65)"></g><g clip-path="url(#66)"></g></g><path transform="matrix(1 0 0 -1 0 595)" d="M491.47 298.39L752.01 298.39L752.01 298.39L752.01 317.47L752.01 317.47L491.47 317.47z" stroke="none" fill="#DAEEF3" fill-rule="evenodd" /><g clip-path="url(#67)"><path transform="matrix(1 0 0 -1 0 595)" d="M496.63 298.39L746.85 298.39L746.85 298.39L746.85 317.47L746.85 317.47L496.63 317.47z" stroke="none" fill="#DAEEF3" fill-rule="evenodd" /><g clip-path="url(#68)"></g><g clip-path="url(#69)"></g><g clip-path="url(#70)"></g></g><path transform="matrix(1 0 0 -1 0 595)" d="M84.24 317.47L84.72 317.47L84.72 317.47L84.72 317.95L84.72 317.95L84.24 317.95z" stroke="none" fill="#000000" fill-rule="evenodd" /><path transform="matrix(1 0 0 -1 0 595)" d="M84.72 317.47L183.504 317.47L183.504 317.47L183.504 317.95L183.504 317.95L84.72 317.95z" stroke="none" fill="#000000" fill-rule="evenodd" /><path transform="matrix(1 0 0 -1 0 595)" d="M183.5 317.47L183.98 317.47L183.98 317.47L183.98 317.95L183.98 317.95L183.5 317.95z" stroke="none" fill="#000000" fill-rule="evenodd" /><path transform="matrix(1 0 0 -1 0 595)" d="M183.98 317.47L246.62 317.47L246.62 317.47L246.62 317.95L246.62 317.95L183.98 317.95z" stroke="none" fill="#000000" fill-rule="evenodd" /><path transform="matrix(1 0 0 -1 0 595)" d="M246.62 317.47L247.1 317.47L247.1 317.47L247.1 317.95L247.1 317.95L246.62 317.95z" stroke="none" fill="#000000" fill-rule="evenodd" /><path transform="matrix(1 0 0 -1 0 595)" d="M247.1 317.47L291.764 317.47L291.764 317.47L291.764 317.95L291.764 317.95L247.1 317.95z" stroke="none" fill="#000000" fill-rule="evenodd" /><path transform="matrix(1 0 0 -1 0 595)" d="M291.77 317.47L292.25 317.47L292.25 317.47L292.25 317.95L292.25 317.95L291.77 317.95z" stroke="none" fill="#000000" fill-rule="evenodd" /><path transform="matrix(1 0 0 -1 0 595)" d="M292.25 317.47L490.99 317.47L490.99 317.47L490.99 317.95L490.99 317.95L292.25 317.95z" stroke="none" fill="#000000" fill-rule="evenodd" /><path transform="matrix(1 0 0 -1 0 595)" d="M490.99 317.47L491.47 317.47L491.47 317.47L491.47 317.95L491.47 317.95L490.99 317.95z" stroke="none" fill="#000000" fill-rule="evenodd" /><path transform="matrix(1 0 0 -1 0 595)" d="M491.47 317.47L752.01 317.47L752.01 317.47L752.01 317.95L752.01 317.95L491.47 317.95z" stroke="none" fill="#000000" fill-rule="evenodd" /><path transform="matrix(1 0 0 -1 0 595)" d="M752.02 317.47L752.5001 317.47L752.5001 317.47L752.5001 317.95L752.5001 317.95L752.02 317.95z" stroke="none" fill="#000000" fill-rule="evenodd" /><path transform="matrix(1 0 0 -1 0 595)" d="M84.24 298.39L84.72 298.39L84.72 298.39L84.72 317.47L84.72 317.47L84.24 317.47z" stroke="none" fill="#000000" fill-rule="evenodd" /><path transform="matrix(1 0 0 -1 0 595)" d="M183.5 298.39L183.98 298.39L183.98 298.39L183.98 317.47L183.98 317.47L183.5 317.47z" stroke="none" fill="#000000" fill-rule="evenodd" /><path transform="matrix(1 0 0 -1 0 595)" d="M246.62 298.39L247.1 298.39L247.1 298.39L247.1 317.47L247.1 317.47L246.62 317.47z" stroke="none" fill="#000000" fill-rule="evenodd" /><path transform="matrix(1 0 0 -1 0 595)" d="M291.77 298.39L292.25 298.39L292.25 298.39L292.25 317.47L292.25 317.47L291.77 317.47z" stroke="none" fill="#000000" fill-rule="evenodd" /><path transform="matrix(1 0 0 -1 0 595)" d="M490.99 298.39L491.47 298.39L491.47 298.39L491.47 317.47L491.47 317.47L490.99 317.47z" stroke="none" fill="#000000" fill-rule="evenodd" /><path transform="matrix(1 0 0 -1 0 595)" d="M752.02 298.39L752.5001 298.39L752.5001 298.39L752.5001 317.47L752.5001 317.47L752.02 317.47z" stroke="none" fill="#000000" fill-rule="evenodd" /><g clip-path="url(#71)"><g clip-path="url(#72)"></g><g clip-path="url(#73)"></g></g><g clip-path="url(#74)"><g clip-path="url(#75)"></g><g clip-path="url(#76)"></g></g><g clip-path="url(#77)"><g clip-path="url(#78)"></g><g clip-path="url(#79)"></g></g><g clip-path="url(#80)"><g clip-path="url(#81)"></g><g clip-path="url(#82)"></g></g><g clip-path="url(#83)"><g clip-path="url(#84)"></g><g clip-path="url(#85)"></g></g><path transform="matrix(1 0 0 -1 0 595)" d="M84.24 297.91L84.72 297.91L84.72 297.91L84.72 298.39L84.72 298.39L84.24 298.39z" stroke="none" fill="#000000" fill-rule="evenodd" /><path transform="matrix(1 0 0 -1 0 595)" d="M84.72 297.91L183.504 297.91L183.504 297.91L183.504 298.39L183.504 298.39L84.72 298.39z" stroke="none" fill="#000000" fill-rule="evenodd" /><path transform="matrix(1 0 0 -1 0 595)" d="M183.5 297.91L183.98 297.91L183.98 297.91L183.98 298.39L183.98 298.39L183.5 298.39z" stroke="none" fill="#000000" fill-rule="evenodd" /><path transform="matrix(1 0 0 -1 0 595)" d="M183.98 297.91L246.62 297.91L246.62 297.91L246.62 298.39L246.62 298.39L183.98 298.39z" stroke="none" fill="#000000" fill-rule="evenodd" /><path transform="matrix(1 0 0 -1 0 595)" d="M246.62 297.91L247.1 297.91L247.1 297.91L247.1 298.39L247.1 298.39L246.62 298.39z" stroke="none" fill="#000000" fill-rule="evenodd" /><path transform="matrix(1 0 0 -1 0 595)" d="M247.1 297.91L291.764 297.91L291.764 297.91L291.764 298.39L291.764 298.39L247.1 298.39z" stroke="none" fill="#000000" fill-rule="evenodd" /><path transform="matrix(1 0 0 -1 0 595)" d="M291.77 297.91L292.25 297.91L292.25 297.91L292.25 298.39L292.25 298.39L291.77 298.39z" stroke="none" fill="#000000" fill-rule="evenodd" /><path transform="matrix(1 0 0 -1 0 595)" d="M292.25 297.91L490.99 297.91L490.99 297.91L490.99 298.39L490.99 298.39L292.25 298.39z" stroke="none" fill="#000000" fill-rule="evenodd" /><path transform="matrix(1 0 0 -1 0 595)" d="M490.99 297.91L491.47 297.91L491.47 297.91L491.47 298.39L491.47 298.39L490.99 298.39z" stroke="none" fill="#000000" fill-rule="evenodd" /><path transform="matrix(1 0 0 -1 0 595)" d="M491.47 297.91L752.01 297.91L752.01 297.91L752.01 298.39L752.01 298.39L491.47 298.39z" stroke="none" fill="#000000" fill-rule="evenodd" /><path transform="matrix(1 0 0 -1 0 595)" d="M752.02 297.91L752.5001 297.91L752.5001 297.91L752.5001 298.39L752.5001 298.39L752.02 298.39z" stroke="none" fill="#000000" fill-rule="evenodd" /><path transform="matrix(1 0 0 -1 0 595)" d="M84.24 278.95L84.72 278.95L84.72 278.95L84.72 297.91L84.72 297.91L84.24 297.91z" stroke="none" fill="#000000" fill-rule="evenodd" /><path transform="matrix(1 0 0 -1 0 595)" d="M183.5 278.95L183.98 278.95L183.98 278.95L183.98 297.91L183.98 297.91L183.5 297.91z" stroke="none" fill="#000000" fill-rule="evenodd" /><path transform="matrix(1 0 0 -1 0 595)" d="M246.62 278.95L247.1 278.95L247.1 278.95L247.1 297.91L247.1 297.91L246.62 297.91z" stroke="none" fill="#000000" fill-rule="evenodd" /><path transform="matrix(1 0 0 -1 0 595)" d="M291.77 278.95L292.25 278.95L292.25 278.95L292.25 297.91L292.25 297.91L291.77 297.91z" stroke="none" fill="#000000" fill-rule="evenodd" /><path transform="matrix(1 0 0 -1 0 595)" d="M490.99 278.95L491.47 278.95L491.47 278.95L491.47 297.91L491.47 297.91L490.99 297.91z" stroke="none" fill="#000000" fill-rule="evenodd" /><path transform="matrix(1 0 0 -1 0 595)" d="M752.02 278.95L752.5001 278.95L752.5001 278.95L752.5001 297.91L752.5001 297.91L752.02 297.91z" stroke="none" fill="#000000" fill-rule="evenodd" /><path transform="matrix(1 0 0 -1 0 595)" d="M84.72 259.37L183.504 259.37L183.504 259.37L183.504 278.354L183.504 278.354L84.72 278.354z" stroke="none" fill="#DAEEF3" fill-rule="evenodd" /><g clip-path="url(#86)"><path transform="matrix(1 0 0 -1 0 595)" d="M89.88 259.37L178.344 259.37L178.344 259.37L178.344 278.354L178.344 278.354L89.88 278.354z" stroke="none" fill="#DAEEF3" fill-rule="evenodd" /><g clip-path="url(#87)"></g><g clip-path="url(#88)"></g></g><path transform="matrix(1 0 0 -1 0 595)" d="M183.98 259.37L246.62 259.37L246.62 259.37L246.62 278.354L246.62 278.354L183.98 278.354z" stroke="none" fill="#DAEEF3" fill-rule="evenodd" /><g clip-path="url(#89)"><path transform="matrix(1 0 0 -1 0 595)" d="M189.14 259.37L241.46 259.37L241.46 259.37L241.46 278.354L241.46 278.354L189.14 278.354z" stroke="none" fill="#DAEEF3" fill-rule="evenodd" /><g clip-path="url(#90)"></g><g clip-path="url(#91)"></g></g><path transform="matrix(1 0 0 -1 0 595)" d="M247.1 259.37L291.764 259.37L291.764 259.37L291.764 278.354L291.764 278.354L247.1 278.354z" stroke="none" fill="#DAEEF3" fill-rule="evenodd" /><g clip-path="url(#92)"><path transform="matrix(1 0 0 -1 0 595)" d="M252.26 259.37L286.604 259.37L286.604 259.37L286.604 278.354L286.604 278.354L252.26 278.354z" stroke="none" fill="#DAEEF3" fill-rule="evenodd" /><g clip-path="url(#93)"></g><g clip-path="url(#94)"></g></g><path transform="matrix(1 0 0 -1 0 595)" d="M292.25 259.37L490.99 259.37L490.99 259.37L490.99 278.354L490.99 278.354L292.25 278.354z" stroke="none" fill="#DAEEF3" fill-rule="evenodd" /><g clip-path="url(#95)"><path transform="matrix(1 0 0 -1 0 595)" d="M297.41 259.37L485.83 259.37L485.83 259.37L485.83 278.354L485.83 278.354L297.41 278.354z" stroke="none" fill="#DAEEF3" fill-rule="evenodd" /><g clip-path="url(#96)"></g><g clip-path="url(#97)"></g></g><path transform="matrix(1 0 0 -1 0 595)" d="M491.47 259.37L752.01 259.37L752.01 259.37L752.01 278.354L752.01 278.354L491.47 278.354z" stroke="none" fill="#DAEEF3" fill-rule="evenodd" /><g clip-path="url(#98)"><path transform="matrix(1 0 0 -1 0 595)" d="M496.63 259.37L746.85 259.37L746.85 259.37L746.85 278.354L746.85 278.354L496.63 278.354z" stroke="none" fill="#DAEEF3" fill-rule="evenodd" /><g clip-path="url(#99)"></g><g clip-path="url(#100)"></g></g><path transform="matrix(1 0 0 -1 0 595)" d="M84.24 278.47L84.72 278.47L84.72 278.47L84.72 278.95L84.72 278.95L84.24 278.95z" stroke="none" fill="#000000" fill-rule="evenodd" /><path transform="matrix(1 0 0 -1 0 595)" d="M84.72 278.47L183.504 278.47L183.504 278.47L183.504 278.95L183.504 278.95L84.72 278.95z" stroke="none" fill="#000000" fill-rule="evenodd" /><path transform="matrix(1 0 0 -1 0 595)" d="M183.5 278.47L183.98 278.47L183.98 278.47L183.98 278.95L183.98 278.95L183.5 278.95z" stroke="none" fill="#000000" fill-rule="evenodd" /><path transform="matrix(1 0 0 -1 0 595)" d="M183.98 278.47L246.62 278.47L246.62 278.47L246.62 278.95L246.62 278.95L183.98 278.95z" stroke="none" fill="#000000" fill-rule="evenodd" /><path transform="matrix(1 0 0 -1 0 595)" d="M246.62 278.47L247.1 278.47L247.1 278.47L247.1 278.95L247.1 278.95L246.62 278.95z" stroke="none" fill="#000000" fill-rule="evenodd" /><path transform="matrix(1 0 0 -1 0 595)" d="M247.1 278.47L291.764 278.47L291.764 278.47L291.764 278.95L291.764 278.95L247.1 278.95z" stroke="none" fill="#000000" fill-rule="evenodd" /><path transform="matrix(1 0 0 -1 0 595)" d="M291.77 278.47L292.25 278.47L292.25 278.47L292.25 278.95L292.25 278.95L291.77 278.95z" stroke="none" fill="#000000" fill-rule="evenodd" /><path transform="matrix(1 0 0 -1 0 595)" d="M292.25 278.47L490.99 278.47L490.99 278.47L490.99 278.95L490.99 278.95L292.25 278.95z" stroke="none" fill="#000000" fill-rule="evenodd" /><path transform="matrix(1 0 0 -1 0 595)" d="M490.99 278.47L491.47 278.47L491.47 278.47L491.47 278.95L491.47 278.95L490.99 278.95z" stroke="none" fill="#000000" fill-rule="evenodd" /><path transform="matrix(1 0 0 -1 0 595)" d="M491.47 278.47L752.01 278.47L752.01 278.47L752.01 278.95L752.01 278.95L491.47 278.95z" stroke="none" fill="#000000" fill-rule="evenodd" /><path transform="matrix(1 0 0 -1 0 595)" d="M752.02 278.47L752.5001 278.47L752.5001 278.47L752.5001 278.95L752.5001 278.95L752.02 278.95z" stroke="none" fill="#000000" fill-rule="evenodd" /><path transform="matrix(1 0 0 -1 0 595)" d="M84.24 259.37L84.72 259.37L84.72 259.37L84.72 278.474L84.72 278.474L84.24 278.474z" stroke="none" fill="#000000" fill-rule="evenodd" /><path transform="matrix(1 0 0 -1 0 595)" d="M183.5 259.37L183.98 259.37L183.98 259.37L183.98 278.474L183.98 278.474L183.5 278.474z" stroke="none" fill="#000000" fill-rule="evenodd" /><path transform="matrix(1 0 0 -1 0 595)" d="M246.62 259.37L247.1 259.37L247.1 259.37L247.1 278.474L247.1 278.474L246.62 278.474z" stroke="none" fill="#000000" fill-rule="evenodd" /><path transform="matrix(1 0 0 -1 0 595)" d="M291.77 259.37L292.25 259.37L292.25 259.37L292.25 278.474L292.25 278.474L291.77 278.474z" stroke="none" fill="#000000" fill-rule="evenodd" /><path transform="matrix(1 0 0 -1 0 595)" d="M490.99 259.37L491.47 259.37L491.47 259.37L491.47 278.474L491.47 278.474L490.99 278.474z" stroke="none" fill="#000000" fill-rule="evenodd" /><path transform="matrix(1 0 0 -1 0 595)" d="M752.02 259.37L752.5001 259.37L752.5001 259.37L752.5001 278.474L752.5001 278.474L752.02 278.474z" stroke="none" fill="#000000" fill-rule="evenodd" /><g clip-path="url(#101)"><g clip-path="url(#102)"></g><g clip-path="url(#103)"></g></g><g clip-path="url(#104)"><g clip-path="url(#105)"></g><g clip-path="url(#106)"></g></g><g clip-path="url(#107)"><g clip-path="url(#108)"></g><g clip-path="url(#109)"></g></g><g clip-path="url(#110)"><g clip-path="url(#111)"></g><g clip-path="url(#112)"></g></g><g clip-path="url(#113)"><g clip-path="url(#114)"></g><g clip-path="url(#115)"></g><g clip-path="url(#116)"></g><g clip-path="url(#117)"></g><g clip-path="url(#118)"></g></g><path transform="matrix(1 0 0 -1 0 595)" d="M84.24 258.89L84.72 258.89L84.72 258.89L84.72 259.37L84.72 259.37L84.24 259.37z" stroke="none" fill="#000000" fill-rule="evenodd" /><path transform="matrix(1 0 0 -1 0 595)" d="M84.72 258.89L183.504 258.89L183.504 258.89L183.504 259.37L183.504 259.37L84.72 259.37z" stroke="none" fill="#000000" fill-rule="evenodd" /><path transform="matrix(1 0 0 -1 0 595)" d="M183.5 258.89L183.98 258.89L183.98 258.89L183.98 259.37L183.98 259.37L183.5 259.37z" stroke="none" fill="#000000" fill-rule="evenodd" /><path transform="matrix(1 0 0 -1 0 595)" d="M183.98 258.89L246.62 258.89L246.62 258.89L246.62 259.37L246.62 259.37L183.98 259.37z" stroke="none" fill="#000000" fill-rule="evenodd" /><path transform="matrix(1 0 0 -1 0 595)" d="M246.62 258.89L247.1 258.89L247.1 258.89L247.1 259.37L247.1 259.37L246.62 259.37z" stroke="none" fill="#000000" fill-rule="evenodd" /><path transform="matrix(1 0 0 -1 0 595)" d="M247.1 258.89L291.764 258.89L291.764 258.89L291.764 259.37L291.764 259.37L247.1 259.37z" stroke="none" fill="#000000" fill-rule="evenodd" /><path transform="matrix(1 0 0 -1 0 595)" d="M291.77 258.89L292.25 258.89L292.25 258.89L292.25 259.37L292.25 259.37L291.77 259.37z" stroke="none" fill="#000000" fill-rule="evenodd" /><path transform="matrix(1 0 0 -1 0 595)" d="M292.25 258.89L490.99 258.89L490.99 258.89L490.99 259.37L490.99 259.37L292.25 259.37z" stroke="none" fill="#000000" fill-rule="evenodd" /><path transform="matrix(1 0 0 -1 0 595)" d="M490.99 258.89L491.47 258.89L491.47 258.89L491.47 259.37L491.47 259.37L490.99 259.37z" stroke="none" fill="#000000" fill-rule="evenodd" /><path transform="matrix(1 0 0 -1 0 595)" d="M491.47 258.89L752.01 258.89L752.01 258.89L752.01 259.37L752.01 259.37L491.47 259.37z" stroke="none" fill="#000000" fill-rule="evenodd" /><path transform="matrix(1 0 0 -1 0 595)" d="M752.02 258.89L752.5001 258.89L752.5001 258.89L752.5001 259.37L752.5001 259.37L752.02 259.37z" stroke="none" fill="#000000" fill-rule="evenodd" /><path transform="matrix(1 0 0 -1 0 595)" d="M84.24 219.89L84.72 219.89L84.72 219.89L84.72 258.89L84.72 258.89L84.24 258.89z" stroke="none" fill="#000000" fill-rule="evenodd" /><path transform="matrix(1 0 0 -1 0 595)" d="M183.5 219.89L183.98 219.89L183.98 219.89L183.98 258.89L183.98 258.89L183.5 258.89z" stroke="none" fill="#000000" fill-rule="evenodd" /><path transform="matrix(1 0 0 -1 0 595)" d="M246.62 219.89L247.1 219.89L247.1 219.89L247.1 258.89L247.1 258.89L246.62 258.89z" stroke="none" fill="#000000" fill-rule="evenodd" /><path transform="matrix(1 0 0 -1 0 595)" d="M291.77 219.89L292.25 219.89L292.25 219.89L292.25 258.89L292.25 258.89L291.77 258.89z" stroke="none" fill="#000000" fill-rule="evenodd" /><path transform="matrix(1 0 0 -1 0 595)" d="M490.99 219.89L491.47 219.89L491.47 219.89L491.47 258.89L491.47 258.89L490.99 258.89z" stroke="none" fill="#000000" fill-rule="evenodd" /><path transform="matrix(1 0 0 -1 0 595)" d="M752.02 219.89L752.5001 219.89L752.5001 219.89L752.5001 258.89L752.5001 258.89L752.02 258.89z" stroke="none" fill="#000000" fill-rule="evenodd" /><path transform="matrix(1 0 0 -1 0 595)" d="M84.72 181.37L183.504 181.37L183.504 181.37L183.504 219.41L183.504 219.41L84.72 219.41z" stroke="none" fill="#DAEEF3" fill-rule="evenodd" /><g clip-path="url(#119)"><path transform="matrix(1 0 0 -1 0 595)" d="M89.88 200.33L178.344 200.33L178.344 200.33L178.344 219.41L178.344 219.41L89.88 219.41z" stroke="none" fill="#DAEEF3" fill-rule="evenodd" /><g clip-path="url(#120)"></g><g clip-path="url(#121)"></g></g><path transform="matrix(1 0 0 -1 0 595)" d="M183.98 181.37L246.62 181.37L246.62 181.37L246.62 219.41L246.62 219.41L183.98 219.41z" stroke="none" fill="#DAEEF3" fill-rule="evenodd" /><g clip-path="url(#122)"><path transform="matrix(1 0 0 -1 0 595)" d="M189.14 200.33L241.46 200.33L241.46 200.33L241.46 219.41L241.46 219.41L189.14 219.41z" stroke="none" fill="#DAEEF3" fill-rule="evenodd" /><g clip-path="url(#123)"></g><g clip-path="url(#124)"></g></g><path transform="matrix(1 0 0 -1 0 595)" d="M247.1 181.37L291.764 181.37L291.764 181.37L291.764 219.41L291.764 219.41L247.1 219.41z" stroke="none" fill="#DAEEF3" fill-rule="evenodd" /><g clip-path="url(#125)"><path transform="matrix(1 0 0 -1 0 595)" d="M252.26 200.33L286.604 200.33L286.604 200.33L286.604 219.41L286.604 219.41L252.26 219.41z" stroke="none" fill="#DAEEF3" fill-rule="evenodd" /><g clip-path="url(#126)"></g><g clip-path="url(#127)"></g></g><path transform="matrix(1 0 0 -1 0 595)" d="M292.25 181.37L490.99 181.37L490.99 181.37L490.99 219.41L490.99 219.41L292.25 219.41z" stroke="none" fill="#DAEEF3" fill-rule="evenodd" /><g clip-path="url(#128)"><path transform="matrix(1 0 0 -1 0 595)" d="M297.41 200.33L485.83 200.33L485.83 200.33L485.83 219.41L485.83 219.41L297.41 219.41z" stroke="none" fill="#DAEEF3" fill-rule="evenodd" /><g clip-path="url(#129)"></g><path transform="matrix(1 0 0 -1 0 595)" d="M297.41 181.37L485.83 181.37L485.83 181.37L485.83 200.33L485.83 200.33L297.41 200.33z" stroke="none" fill="#DAEEF3" fill-rule="evenodd" /><g clip-path="url(#130)"></g><g clip-path="url(#131)"></g></g><path transform="matrix(1 0 0 -1 0 595)" d="M491.47 181.37L752.01 181.37L752.01 181.37L752.01 219.41L752.01 219.41L491.47 219.41z" stroke="none" fill="#DAEEF3" fill-rule="evenodd" /><g clip-path="url(#132)"><path transform="matrix(1 0 0 -1 0 595)" d="M496.63 200.33L746.85 200.33L746.85 200.33L746.85 219.41L746.85 219.41L496.63 219.41z" stroke="none" fill="#DAEEF3" fill-rule="evenodd" /><g clip-path="url(#133)"></g><g clip-path="url(#134)"></g><g clip-path="url(#135)"></g><g clip-path="url(#136)"></g><g clip-path="url(#137)"></g></g><path transform="matrix(1 0 0 -1 0 595)" d="M84.24 219.41L84.72 219.41L84.72 219.41L84.72 219.89L84.72 219.89L84.24 219.89z" stroke="none" fill="#000000" fill-rule="evenodd" /><path transform="matrix(1 0 0 -1 0 595)" d="M84.72 219.41L183.504 219.41L183.504 219.41L183.504 219.89L183.504 219.89L84.72 219.89z" stroke="none" fill="#000000" fill-rule="evenodd" /><path transform="matrix(1 0 0 -1 0 595)" d="M183.5 219.41L183.98 219.41L183.98 219.41L183.98 219.89L183.98 219.89L183.5 219.89z" stroke="none" fill="#000000" fill-rule="evenodd" /><path transform="matrix(1 0 0 -1 0 595)" d="M183.98 219.41L246.62 219.41L246.62 219.41L246.62 219.89L246.62 219.89L183.98 219.89z" stroke="none" fill="#000000" fill-rule="evenodd" /><path transform="matrix(1 0 0 -1 0 595)" d="M246.62 219.41L247.1 219.41L247.1 219.41L247.1 219.89L247.1 219.89L246.62 219.89z" stroke="none" fill="#000000" fill-rule="evenodd" /><path transform="matrix(1 0 0 -1 0 595)" d="M247.1 219.41L291.764 219.41L291.764 219.41L291.764 219.89L291.764 219.89L247.1 219.89z" stroke="none" fill="#000000" fill-rule="evenodd" /><path transform="matrix(1 0 0 -1 0 595)" d="M291.77 219.41L292.25 219.41L292.25 219.41L292.25 219.89L292.25 219.89L291.77 219.89z" stroke="none" fill="#000000" fill-rule="evenodd" /><path transform="matrix(1 0 0 -1 0 595)" d="M292.25 219.41L490.99 219.41L490.99 219.41L490.99 219.89L490.99 219.89L292.25 219.89z" stroke="none" fill="#000000" fill-rule="evenodd" /><path transform="matrix(1 0 0 -1 0 595)" d="M490.99 219.41L491.47 219.41L491.47 219.41L491.47 219.89L491.47 219.89L490.99 219.89z" stroke="none" fill="#000000" fill-rule="evenodd" /><path transform="matrix(1 0 0 -1 0 595)" d="M491.47 219.41L752.01 219.41L752.01 219.41L752.01 219.89L752.01 219.89L491.47 219.89z" stroke="none" fill="#000000" fill-rule="evenodd" /><path transform="matrix(1 0 0 -1 0 595)" d="M752.02 219.41L752.5001 219.41L752.5001 219.41L752.5001 219.89L752.5001 219.89L752.02 219.89z" stroke="none" fill="#000000" fill-rule="evenodd" /><path transform="matrix(1 0 0 -1 0 595)" d="M84.24 181.37L84.72 181.37L84.72 181.37L84.72 219.41L84.72 219.41L84.24 219.41z" stroke="none" fill="#000000" fill-rule="evenodd" /><path transform="matrix(1 0 0 -1 0 595)" d="M183.5 181.37L183.98 181.37L183.98 181.37L183.98 219.41L183.98 219.41L183.5 219.41z" stroke="none" fill="#000000" fill-rule="evenodd" /><path transform="matrix(1 0 0 -1 0 595)" d="M246.62 181.37L247.1 181.37L247.1 181.37L247.1 219.41L247.1 219.41L246.62 219.41z" stroke="none" fill="#000000" fill-rule="evenodd" /><path transform="matrix(1 0 0 -1 0 595)" d="M291.77 181.37L292.25 181.37L292.25 181.37L292.25 219.41L292.25 219.41L291.77 219.41z" stroke="none" fill="#000000" fill-rule="evenodd" /><path transform="matrix(1 0 0 -1 0 595)" d="M490.99 181.37L491.47 181.37L491.47 181.37L491.47 219.41L491.47 219.41L490.99 219.41z" stroke="none" fill="#000000" fill-rule="evenodd" /><path transform="matrix(1 0 0 -1 0 595)" d="M752.02 181.37L752.5001 181.37L752.5001 181.37L752.5001 219.41L752.5001 219.41L752.02 219.41z" stroke="none" fill="#000000" fill-rule="evenodd" /><g clip-path="url(#138)"><g clip-path="url(#139)"></g><g clip-path="url(#140)"></g></g><g clip-path="url(#141)"><g clip-path="url(#142)"></g><g clip-path="url(#143)"></g></g><g clip-path="url(#144)"><g clip-path="url(#145)"></g><g clip-path="url(#146)"></g></g><g clip-path="url(#147)"><g clip-path="url(#148)"></g><g clip-path="url(#149)"></g></g><g clip-path="url(#150)"><g clip-path="url(#151)"></g><g clip-path="url(#152)"></g><g clip-path="url(#153)"></g><g clip-path="url(#154)"></g></g><path transform="matrix(1 0 0 -1 0 595)" d="M84.24 180.89L84.72 180.89L84.72 180.89L84.72 181.37L84.72 181.37L84.24 181.37z" stroke="none" fill="#000000" fill-rule="evenodd" /><path transform="matrix(1 0 0 -1 0 595)" d="M84.72 180.89L183.504 180.89L183.504 180.89L183.504 181.37L183.504 181.37L84.72 181.37z" stroke="none" fill="#000000" fill-rule="evenodd" /><path transform="matrix(1 0 0 -1 0 595)" d="M183.5 180.89L183.98 180.89L183.98 180.89L183.98 181.37L183.98 181.37L183.5 181.37z" stroke="none" fill="#000000" fill-rule="evenodd" /><path transform="matrix(1 0 0 -1 0 595)" d="M183.98 180.89L246.62 180.89L246.62 180.89L246.62 181.37L246.62 181.37L183.98 181.37z" stroke="none" fill="#000000" fill-rule="evenodd" /><path transform="matrix(1 0 0 -1 0 595)" d="M246.62 180.89L247.1 180.89L247.1 180.89L247.1 181.37L247.1 181.37L246.62 181.37z" stroke="none" fill="#000000" fill-rule="evenodd" /><path transform="matrix(1 0 0 -1 0 595)" d="M247.1 180.89L291.764 180.89L291.764 180.89L291.764 181.37L291.764 181.37L247.1 181.37z" stroke="none" fill="#000000" fill-rule="evenodd" /><path transform="matrix(1 0 0 -1 0 595)" d="M291.77 180.89L292.25 180.89L292.25 180.89L292.25 181.37L292.25 181.37L291.77 181.37z" stroke="none" fill="#000000" fill-rule="evenodd" /><path transform="matrix(1 0 0 -1 0 595)" d="M292.25 180.89L490.99 180.89L490.99 180.89L490.99 181.37L490.99 181.37L292.25 181.37z" stroke="none" fill="#000000" fill-rule="evenodd" /><path transform="matrix(1 0 0 -1 0 595)" d="M490.99 180.89L491.47 180.89L491.47 180.89L491.47 181.37L491.47 181.37L490.99 181.37z" stroke="none" fill="#000000" fill-rule="evenodd" /><path transform="matrix(1 0 0 -1 0 595)" d="M491.47 180.89L752.01 180.89L752.01 180.89L752.01 181.37L752.01 181.37L491.47 181.37z" stroke="none" fill="#000000" fill-rule="evenodd" /><path transform="matrix(1 0 0 -1 0 595)" d="M752.02 180.89L752.5001 180.89L752.5001 180.89L752.5001 181.37L752.5001 181.37L752.02 181.37z" stroke="none" fill="#000000" fill-rule="evenodd" /><path transform="matrix(1 0 0 -1 0 595)" d="M84.24 155.21L84.72 155.21L84.72 155.21L84.72 180.89L84.72 180.89L84.24 180.89z" stroke="none" fill="#000000" fill-rule="evenodd" /><path transform="matrix(1 0 0 -1 0 595)" d="M183.5 155.21L183.98 155.21L183.98 155.21L183.98 180.89L183.98 180.89L183.5 180.89z" stroke="none" fill="#000000" fill-rule="evenodd" /><path transform="matrix(1 0 0 -1 0 595)" d="M246.62 155.21L247.1 155.21L247.1 155.21L247.1 180.89L247.1 180.89L246.62 180.89z" stroke="none" fill="#000000" fill-rule="evenodd" /><path transform="matrix(1 0 0 -1 0 595)" d="M291.77 155.21L292.25 155.21L292.25 155.21L292.25 180.89L292.25 180.89L291.77 180.89z" stroke="none" fill="#000000" fill-rule="evenodd" /><path transform="matrix(1 0 0 -1 0 595)" d="M490.99 155.21L491.47 155.21L491.47 155.21L491.47 180.89L491.47 180.89L490.99 180.89z" stroke="none" fill="#000000" fill-rule="evenodd" /><path transform="matrix(1 0 0 -1 0 595)" d="M752.02 155.21L752.5001 155.21L752.5001 155.21L752.5001 180.89L752.5001 180.89L752.02 180.89z" stroke="none" fill="#000000" fill-rule="evenodd" /><path transform="matrix(1 0 0 -1 0 595)" d="M84.72 135.65L183.504 135.65L183.504 135.65L183.504 154.73L183.504 154.73L84.72 154.73z" stroke="none" fill="#DAEEF3" fill-rule="evenodd" /><g clip-path="url(#155)"><path transform="matrix(1 0 0 -1 0 595)" d="M89.88 135.65L178.344 135.65L178.344 135.65L178.344 154.73L178.344 154.73L89.88 154.73z" stroke="none" fill="#DAEEF3" fill-rule="evenodd" /><g clip-path="url(#156)"></g><g clip-path="url(#157)"></g></g><path transform="matrix(1 0 0 -1 0 595)" d="M183.98 135.65L246.62 135.65L246.62 135.65L246.62 154.73L246.62 154.73L183.98 154.73z" stroke="none" fill="#DAEEF3" fill-rule="evenodd" /><g clip-path="url(#158)"><path transform="matrix(1 0 0 -1 0 595)" d="M189.14 135.65L241.46 135.65L241.46 135.65L241.46 154.73L241.46 154.73L189.14 154.73z" stroke="none" fill="#DAEEF3" fill-rule="evenodd" /><g clip-path="url(#159)"></g><g clip-path="url(#160)"></g></g><path transform="matrix(1 0 0 -1 0 595)" d="M247.1 135.65L291.764 135.65L291.764 135.65L291.764 154.73L291.764 154.73L247.1 154.73z" stroke="none" fill="#DAEEF3" fill-rule="evenodd" /><g clip-path="url(#161)"><path transform="matrix(1 0 0 -1 0 595)" d="M252.26 135.65L286.604 135.65L286.604 135.65L286.604 154.73L286.604 154.73L252.26 154.73z" stroke="none" fill="#DAEEF3" fill-rule="evenodd" /><g clip-path="url(#162)"></g><g clip-path="url(#163)"></g></g><path transform="matrix(1 0 0 -1 0 595)" d="M292.25 135.65L490.99 135.65L490.99 135.65L490.99 154.73L490.99 154.73L292.25 154.73z" stroke="none" fill="#DAEEF3" fill-rule="evenodd" /><g clip-path="url(#164)"><path transform="matrix(1 0 0 -1 0 595)" d="M297.41 135.65L485.83 135.65L485.83 135.65L485.83 154.73L485.83 154.73L297.41 154.73z" stroke="none" fill="#DAEEF3" fill-rule="evenodd" /><g clip-path="url(#165)"></g><g clip-path="url(#166)"></g></g><path transform="matrix(1 0 0 -1 0 595)" d="M491.47 135.65L752.01 135.65L752.01 135.65L752.01 154.73L752.01 154.73L491.47 154.73z" stroke="none" fill="#DAEEF3" fill-rule="evenodd" /><g clip-path="url(#167)"><path transform="matrix(1 0 0 -1 0 595)" d="M496.63 135.65L746.85 135.65L746.85 135.65L746.85 154.73L746.85 154.73L496.63 154.73z" stroke="none" fill="#DAEEF3" fill-rule="evenodd" /><g clip-path="url(#168)"></g><g clip-path="url(#169)"></g><g clip-path="url(#170)"></g><g clip-path="url(#171)"></g></g><path transform="matrix(1 0 0 -1 0 595)" d="M84.24 154.73L84.72 154.73L84.72 154.73L84.72 155.21L84.72 155.21L84.24 155.21z" stroke="none" fill="#000000" fill-rule="evenodd" /><path transform="matrix(1 0 0 -1 0 595)" d="M84.72 154.73L183.504 154.73L183.504 154.73L183.504 155.21L183.504 155.21L84.72 155.21z" stroke="none" fill="#000000" fill-rule="evenodd" /><path transform="matrix(1 0 0 -1 0 595)" d="M183.5 154.73L183.98 154.73L183.98 154.73L183.98 155.21L183.98 155.21L183.5 155.21z" stroke="none" fill="#000000" fill-rule="evenodd" /><path transform="matrix(1 0 0 -1 0 595)" d="M183.98 154.73L246.62 154.73L246.62 154.73L246.62 155.21L246.62 155.21L183.98 155.21z" stroke="none" fill="#000000" fill-rule="evenodd" /><path transform="matrix(1 0 0 -1 0 595)" d="M246.62 154.73L247.1 154.73L247.1 154.73L247.1 155.21L247.1 155.21L246.62 155.21z" stroke="none" fill="#000000" fill-rule="evenodd" /><path transform="matrix(1 0 0 -1 0 595)" d="M247.1 154.73L291.764 154.73L291.764 154.73L291.764 155.21L291.764 155.21L247.1 155.21z" stroke="none" fill="#000000" fill-rule="evenodd" /><path transform="matrix(1 0 0 -1 0 595)" d="M291.77 154.73L292.25 154.73L292.25 154.73L292.25 155.21L292.25 155.21L291.77 155.21z" stroke="none" fill="#000000" fill-rule="evenodd" /><path transform="matrix(1 0 0 -1 0 595)" d="M292.25 154.73L490.99 154.73L490.99 154.73L490.99 155.21L490.99 155.21L292.25 155.21z" stroke="none" fill="#000000" fill-rule="evenodd" /><path transform="matrix(1 0 0 -1 0 595)" d="M490.99 154.73L491.47 154.73L491.47 154.73L491.47 155.21L491.47 155.21L490.99 155.21z" stroke="none" fill="#000000" fill-rule="evenodd" /><path transform="matrix(1 0 0 -1 0 595)" d="M491.47 154.73L752.01 154.73L752.01 154.73L752.01 155.21L752.01 155.21L491.47 155.21z" stroke="none" fill="#000000" fill-rule="evenodd" /><path transform="matrix(1 0 0 -1 0 595)" d="M752.02 154.73L752.5001 154.73L752.5001 154.73L752.5001 155.21L752.5001 155.21L752.02 155.21z" stroke="none" fill="#000000" fill-rule="evenodd" /><path transform="matrix(1 0 0 -1 0 595)" d="M84.24 135.65L84.72 135.65L84.72 135.65L84.72 154.73L84.72 154.73L84.24 154.73z" stroke="none" fill="#000000" fill-rule="evenodd" /><path transform="matrix(1 0 0 -1 0 595)" d="M183.5 135.65L183.98 135.65L183.98 135.65L183.98 154.73L183.98 154.73L183.5 154.73z" stroke="none" fill="#000000" fill-rule="evenodd" /><path transform="matrix(1 0 0 -1 0 595)" d="M246.62 135.65L247.1 135.65L247.1 135.65L247.1 154.73L247.1 154.73L246.62 154.73z" stroke="none" fill="#000000" fill-rule="evenodd" /><path transform="matrix(1 0 0 -1 0 595)" d="M291.77 135.65L292.25 135.65L292.25 135.65L292.25 154.73L292.25 154.73L291.77 154.73z" stroke="none" fill="#000000" fill-rule="evenodd" /><path transform="matrix(1 0 0 -1 0 595)" d="M490.99 135.65L491.47 135.65L491.47 135.65L491.47 154.73L491.47 154.73L490.99 154.73z" stroke="none" fill="#000000" fill-rule="evenodd" /><path transform="matrix(1 0 0 -1 0 595)" d="M752.02 135.65L752.5001 135.65L752.5001 135.65L752.5001 154.73L752.5001 154.73L752.02 154.73z" stroke="none" fill="#000000" fill-rule="evenodd" /><g clip-path="url(#172)"><g clip-path="url(#173)"></g><g clip-path="url(#174)"></g></g><g clip-path="url(#175)"><g clip-path="url(#176)"></g><g clip-path="url(#177)"></g></g><g clip-path="url(#178)"><g clip-path="url(#179)"></g><g clip-path="url(#180)"></g></g><g clip-path="url(#181)"><g clip-path="url(#182)"></g><g clip-path="url(#183)"></g></g><g clip-path="url(#184)"><g clip-path="url(#185)"></g><g clip-path="url(#186)"></g><g clip-path="url(#187)"></g><g clip-path="url(#188)"></g></g><path transform="matrix(1 0 0 -1 0 595)" d="M84.24 135.17L84.72 135.17L84.72 135.17L84.72 135.65L84.72 135.65L84.24 135.65z" stroke="none" fill="#000000" fill-rule="evenodd" /><path transform="matrix(1 0 0 -1 0 595)" d="M84.72 135.17L183.504 135.17L183.504 135.17L183.504 135.65L183.504 135.65L84.72 135.65z" stroke="none" fill="#000000" fill-rule="evenodd" /><path transform="matrix(1 0 0 -1 0 595)" d="M183.5 135.17L183.98 135.17L183.98 135.17L183.98 135.65L183.98 135.65L183.5 135.65z" stroke="none" fill="#000000" fill-rule="evenodd" /><path transform="matrix(1 0 0 -1 0 595)" d="M183.98 135.17L246.62 135.17L246.62 135.17L246.62 135.65L246.62 135.65L183.98 135.65z" stroke="none" fill="#000000" fill-rule="evenodd" /><path transform="matrix(1 0 0 -1 0 595)" d="M246.62 135.17L247.1 135.17L247.1 135.17L247.1 135.65L247.1 135.65L246.62 135.65z" stroke="none" fill="#000000" fill-rule="evenodd" /><path transform="matrix(1 0 0 -1 0 595)" d="M247.1 135.17L291.764 135.17L291.764 135.17L291.764 135.65L291.764 135.65L247.1 135.65z" stroke="none" fill="#000000" fill-rule="evenodd" /><path transform="matrix(1 0 0 -1 0 595)" d="M291.77 135.17L292.25 135.17L292.25 135.17L292.25 135.65L292.25 135.65L291.77 135.65z" stroke="none" fill="#000000" fill-rule="evenodd" /><path transform="matrix(1 0 0 -1 0 595)" d="M292.25 135.17L490.99 135.17L490.99 135.17L490.99 135.65L490.99 135.65L292.25 135.65z" stroke="none" fill="#000000" fill-rule="evenodd" /><path transform="matrix(1 0 0 -1 0 595)" d="M490.99 135.17L491.47 135.17L491.47 135.17L491.47 135.65L491.47 135.65L490.99 135.65z" stroke="none" fill="#000000" fill-rule="evenodd" /><path transform="matrix(1 0 0 -1 0 595)" d="M491.47 135.17L752.01 135.17L752.01 135.17L752.01 135.65L752.01 135.65L491.47 135.65z" stroke="none" fill="#000000" fill-rule="evenodd" /><path transform="matrix(1 0 0 -1 0 595)" d="M752.02 135.17L752.5001 135.17L752.5001 135.17L752.5001 135.65L752.5001 135.65L752.02 135.65z" stroke="none" fill="#000000" fill-rule="evenodd" /><path transform="matrix(1 0 0 -1 0 595)" d="M84.24 116.06L84.72 116.06L84.72 116.06L84.72 135.164L84.72 135.164L84.24 135.164z" stroke="none" fill="#000000" fill-rule="evenodd" /><path transform="matrix(1 0 0 -1 0 595)" d="M183.5 116.06L183.98 116.06L183.98 116.06L183.98 135.164L183.98 135.164L183.5 135.164z" stroke="none" fill="#000000" fill-rule="evenodd" /><path transform="matrix(1 0 0 -1 0 595)" d="M246.62 116.06L247.1 116.06L247.1 116.06L247.1 135.164L247.1 135.164L246.62 135.164z" stroke="none" fill="#000000" fill-rule="evenodd" /><path transform="matrix(1 0 0 -1 0 595)" d="M291.77 116.06L292.25 116.06L292.25 116.06L292.25 135.164L292.25 135.164L291.77 135.164z" stroke="none" fill="#000000" fill-rule="evenodd" /><path transform="matrix(1 0 0 -1 0 595)" d="M490.99 116.06L491.47 116.06L491.47 116.06L491.47 135.164L491.47 135.164L490.99 135.164z" stroke="none" fill="#000000" fill-rule="evenodd" /><path transform="matrix(1 0 0 -1 0 595)" d="M752.02 116.06L752.5001 116.06L752.5001 116.06L752.5001 135.164L752.5001 135.164L752.02 135.164z" stroke="none" fill="#000000" fill-rule="evenodd" /><path transform="matrix(1 0 0 -1 0 595)" d="M84.72 96.504L183.504 96.504L183.504 96.504L183.504 115.584L183.504 115.584L84.72 115.584z" stroke="none" fill="#DAEEF3" fill-rule="evenodd" /><g clip-path="url(#189)"><path transform="matrix(1 0 0 -1 0 595)" d="M89.88 96.504L178.344 96.504L178.344 96.504L178.344 115.584L178.344 115.584L89.88 115.584z" stroke="none" fill="#DAEEF3" fill-rule="evenodd" /><g clip-path="url(#190)"></g><g clip-path="url(#191)"></g></g><path transform="matrix(1 0 0 -1 0 595)" d="M183.98 96.504L246.62 96.504L246.62 96.504L246.62 115.584L246.62 115.584L183.98 115.584z" stroke="none" fill="#DAEEF3" fill-rule="evenodd" /><g clip-path="url(#192)"><path transform="matrix(1 0 0 -1 0 595)" d="M189.14 96.504L241.46 96.504L241.46 96.504L241.46 115.584L241.46 115.584L189.14 115.584z" stroke="none" fill="#DAEEF3" fill-rule="evenodd" /><g clip-path="url(#193)"></g><g clip-path="url(#194)"></g></g><path transform="matrix(1 0 0 -1 0 595)" d="M247.1 96.504L291.764 96.504L291.764 96.504L291.764 115.584L291.764 115.584L247.1 115.584z" stroke="none" fill="#DAEEF3" fill-rule="evenodd" /><g clip-path="url(#195)"><path transform="matrix(1 0 0 -1 0 595)" d="M252.26 96.504L286.604 96.504L286.604 96.504L286.604 115.584L286.604 115.584L252.26 115.584z" stroke="none" fill="#DAEEF3" fill-rule="evenodd" /><g clip-path="url(#196)"></g><g clip-path="url(#197)"></g></g><path transform="matrix(1 0 0 -1 0 595)" d="M292.25 96.504L490.99 96.504L490.99 96.504L490.99 115.584L490.99 115.584L292.25 115.584z" stroke="none" fill="#DAEEF3" fill-rule="evenodd" /><g clip-path="url(#198)"><path transform="matrix(1 0 0 -1 0 595)" d="M297.41 96.504L485.83 96.504L485.83 96.504L485.83 115.584L485.83 115.584L297.41 115.584z" stroke="none" fill="#DAEEF3" fill-rule="evenodd" /><g clip-path="url(#199)"></g></g><path transform="matrix(1 0 0 -1 0 595)" d="M491.47 96.504L752.01 96.504L752.01 96.504L752.01 115.584L752.01 115.584L491.47 115.584z" stroke="none" fill="#DAEEF3" fill-rule="evenodd" /><g clip-path="url(#200)"><path transform="matrix(1 0 0 -1 0 595)" d="M496.63 96.504L746.85 96.504L746.85 96.504L746.85 115.584L746.85 115.584L496.63 115.584z" stroke="none" fill="#DAEEF3" fill-rule="evenodd" /><g clip-path="url(#201)"></g><g clip-path="url(#202)"></g><g clip-path="url(#203)"></g><g clip-path="url(#204)"></g></g><path transform="matrix(1 0 0 -1 0 595)" d="M84.24 115.58L84.72 115.58L84.72 115.58L84.72 116.06L84.72 116.06L84.24 116.06z" stroke="none" fill="#000000" fill-rule="evenodd" /><path transform="matrix(1 0 0 -1 0 595)" d="M84.72 115.58L183.504 115.58L183.504 115.58L183.504 116.06L183.504 116.06L84.72 116.06z" stroke="none" fill="#000000" fill-rule="evenodd" /><path transform="matrix(1 0 0 -1 0 595)" d="M183.5 115.58L183.98 115.58L183.98 115.58L183.98 116.06L183.98 116.06L183.5 116.06z" stroke="none" fill="#000000" fill-rule="evenodd" /><path transform="matrix(1 0 0 -1 0 595)" d="M183.98 115.58L246.62 115.58L246.62 115.58L246.62 116.06L246.62 116.06L183.98 116.06z" stroke="none" fill="#000000" fill-rule="evenodd" /><path transform="matrix(1 0 0 -1 0 595)" d="M246.62 115.58L247.1 115.58L247.1 115.58L247.1 116.06L247.1 116.06L246.62 116.06z" stroke="none" fill="#000000" fill-rule="evenodd" /><path transform="matrix(1 0 0 -1 0 595)" d="M247.1 115.58L291.764 115.58L291.764 115.58L291.764 116.06L291.764 116.06L247.1 116.06z" stroke="none" fill="#000000" fill-rule="evenodd" /><path transform="matrix(1 0 0 -1 0 595)" d="M291.77 115.58L292.25 115.58L292.25 115.58L292.25 116.06L292.25 116.06L291.77 116.06z" stroke="none" fill="#000000" fill-rule="evenodd" /><path transform="matrix(1 0 0 -1 0 595)" d="M292.25 115.58L490.99 115.58L490.99 115.58L490.99 116.06L490.99 116.06L292.25 116.06z" stroke="none" fill="#000000" fill-rule="evenodd" /><path transform="matrix(1 0 0 -1 0 595)" d="M490.99 115.58L491.47 115.58L491.47 115.58L491.47 116.06L491.47 116.06L490.99 116.06z" stroke="none" fill="#000000" fill-rule="evenodd" /><path transform="matrix(1 0 0 -1 0 595)" d="M491.47 115.58L752.01 115.58L752.01 115.58L752.01 116.06L752.01 116.06L491.47 116.06z" stroke="none" fill="#000000" fill-rule="evenodd" /><path transform="matrix(1 0 0 -1 0 595)" d="M752.02 115.58L752.5001 115.58L752.5001 115.58L752.5001 116.06L752.5001 116.06L752.02 116.06z" stroke="none" fill="#000000" fill-rule="evenodd" /><path transform="matrix(1 0 0 -1 0 595)" d="M84.24 96.504L84.72 96.504L84.72 96.504L84.72 115.584L84.72 115.584L84.24 115.584z" stroke="none" fill="#000000" fill-rule="evenodd" /><path transform="matrix(1 0 0 -1 0 595)" d="M84.24 96.024L84.72 96.024L84.72 96.024L84.72 96.50398L84.72 96.50398L84.24 96.50398z" stroke="none" fill="#000000" fill-rule="evenodd" /><path transform="matrix(1 0 0 -1 0 595)" d="M84.24 96.024L84.72 96.024L84.72 96.024L84.72 96.50398L84.72 96.50398L84.24 96.50398z" stroke="none" fill="#000000" fill-rule="evenodd" /><path transform="matrix(1 0 0 -1 0 595)" d="M84.72 96.024L183.504 96.024L183.504 96.024L183.504 96.50398L183.504 96.50398L84.72 96.50398z" stroke="none" fill="#000000" fill-rule="evenodd" /><path transform="matrix(1 0 0 -1 0 595)" d="M183.5 96.504L183.98 96.504L183.98 96.504L183.98 115.584L183.98 115.584L183.5 115.584z" stroke="none" fill="#000000" fill-rule="evenodd" /><path transform="matrix(1 0 0 -1 0 595)" d="M183.5 96.024L183.98 96.024L183.98 96.024L183.98 96.50398L183.98 96.50398L183.5 96.50398z" stroke="none" fill="#000000" fill-rule="evenodd" /><path transform="matrix(1 0 0 -1 0 595)" d="M183.98 96.024L246.62 96.024L246.62 96.024L246.62 96.50398L246.62 96.50398L183.98 96.50398z" stroke="none" fill="#000000" fill-rule="evenodd" /><path transform="matrix(1 0 0 -1 0 595)" d="M246.62 96.504L247.1 96.504L247.1 96.504L247.1 115.584L247.1 115.584L246.62 115.584z" stroke="none" fill="#000000" fill-rule="evenodd" /><path transform="matrix(1 0 0 -1 0 595)" d="M246.62 96.024L247.1 96.024L247.1 96.024L247.1 96.50398L247.1 96.50398L246.62 96.50398z" stroke="none" fill="#000000" fill-rule="evenodd" /><path transform="matrix(1 0 0 -1 0 595)" d="M247.1 96.024L291.764 96.024L291.764 96.024L291.764 96.50398L291.764 96.50398L247.1 96.50398z" stroke="none" fill="#000000" fill-rule="evenodd" /><path transform="matrix(1 0 0 -1 0 595)" d="M291.77 96.504L292.25 96.504L292.25 96.504L292.25 115.584L292.25 115.584L291.77 115.584z" stroke="none" fill="#000000" fill-rule="evenodd" /><path transform="matrix(1 0 0 -1 0 595)" d="M291.77 96.024L292.25 96.024L292.25 96.024L292.25 96.50398L292.25 96.50398L291.77 96.50398z" stroke="none" fill="#000000" fill-rule="evenodd" /><path transform="matrix(1 0 0 -1 0 595)" d="M292.25 96.024L490.99 96.024L490.99 96.024L490.99 96.50398L490.99 96.50398L292.25 96.50398z" stroke="none" fill="#000000" fill-rule="evenodd" /><path transform="matrix(1 0 0 -1 0 595)" d="M490.99 96.504L491.47 96.504L491.47 96.504L491.47 115.584L491.47 115.584L490.99 115.584z" stroke="none" fill="#000000" fill-rule="evenodd" /><path transform="matrix(1 0 0 -1 0 595)" d="M490.99 96.024L491.47 96.024L491.47 96.024L491.47 96.50398L491.47 96.50398L490.99 96.50398z" stroke="none" fill="#000000" fill-rule="evenodd" /><path transform="matrix(1 0 0 -1 0 595)" d="M491.47 96.024L752.01 96.024L752.01 96.024L752.01 96.50398L752.01 96.50398L491.47 96.50398z" stroke="none" fill="#000000" fill-rule="evenodd" /><path transform="matrix(1 0 0 -1 0 595)" d="M752.02 96.504L752.5001 96.504L752.5001 96.504L752.5001 115.584L752.5001 115.584L752.02 115.584z" stroke="none" fill="#000000" fill-rule="evenodd" /><path transform="matrix(1 0 0 -1 0 595)" d="M752.02 96.024L752.5001 96.024L752.5001 96.024L752.5001 96.50398L752.5001 96.50398L752.02 96.50398z" stroke="none" fill="#000000" fill-rule="evenodd" /><path transform="matrix(1 0 0 -1 0 595)" d="M752.02 96.024L752.5001 96.024L752.5001 96.024L752.5001 96.50398L752.5001 96.50398L752.02 96.50398z" stroke="none" fill="#000000" fill-rule="evenodd" /></g></g></g></svg>