<svg xmlns="http://www.w3.org/2000/svg" xmlns:xlink="http://www.w3.org/1999/xlink" id="body_233" preserveAspectRatio="xMinYMin meet" viewBox="0 0 793 1121"><defs><clipPath id="1"><path d="M0 841L0 -0.9199829L0 -0.9199829L595.32 -0.9199829L595.32 -0.9199829L595.32 841L595.32 841L0 841z" /></clipPath><clipPath id="2"><path d="M0.00125 841.0914L595.4112 841.0914L595.4112 841.0914L595.4112 -0.9186401L595.4112 -0.9186401L0.00125 -0.9186401z" /></clipPath><clipPath id="3"><path d="M288.05 781.211L316.01 781.211L316.01 781.211L316.01 762.011L316.01 762.011L288.05 762.011z" /></clipPath><clipPath id="4"><path d="M288.05 781.216L316.01 781.216L316.01 781.216L316.01 762.016L316.01 762.016L288.05 762.016z" /></clipPath><clipPath id="5"><path d="M288.05 781.216L316.01 781.216L316.01 781.216L316.01 762.016L316.01 762.016L288.05 762.016z" /></clipPath><clipPath id="6"><path d="M84.751 114.55L186.271 114.55L186.271 114.55L186.271 89.44L186.271 89.44L84.751 89.44z" /></clipPath><clipPath id="7"><path d="M84.744 114.54L186.264 114.54L186.264 114.54L186.264 89.43597L186.264 89.43597L84.744 89.43597z" /></clipPath><clipPath id="8"><path d="M84.744 114.54L186.264 114.54L186.264 114.54L186.264 89.43597L186.264 89.43597L84.744 89.43597z" /></clipPath><clipPath id="9"><path d="M186.75 114.55L250.005 114.55L250.005 114.55L250.005 89.44L250.005 89.44L186.75 89.44z" /></clipPath><clipPath id="10"><path d="M186.74 114.54L250.004 114.54L250.004 114.54L250.004 89.43597L250.004 89.43597L186.74 89.43597z" /></clipPath><clipPath id="11"><path d="M186.74 114.54L250.004 114.54L250.004 114.54L250.004 89.43597L250.004 89.43597L186.74 89.43597z" /></clipPath><clipPath id="12"><path d="M250.49 114.55L345.92 114.55L345.92 114.55L345.92 89.44L345.92 89.44L250.49 89.44z" /></clipPath><clipPath id="13"><path d="M250.49 114.54L345.914 114.54L345.914 114.54L345.914 89.43597L345.914 89.43597L250.49 89.43597z" /></clipPath><clipPath id="14"><path d="M250.49 114.54L345.914 114.54L345.914 114.54L345.914 89.43597L345.914 89.43597L250.49 89.43597z" /></clipPath><clipPath id="15"><path d="M346.4 114.55L502.54 114.55L502.54 114.55L502.54 89.44L502.54 89.44L346.4 89.44z" /></clipPath><clipPath id="16"><path d="M346.39 114.54L502.53 114.54L502.53 114.54L502.53 89.43597L502.53 89.43597L346.39 89.43597z" /></clipPath><clipPath id="17"><path d="M346.39 114.54L502.53 114.54L502.53 114.54L502.53 89.43597L502.53 89.43597L346.39 89.43597z" /></clipPath><clipPath id="18"><path d="M84.751 140.11L186.271 140.11L186.271 140.11L186.271 115.03L186.271 115.03L84.751 115.03z" /></clipPath><clipPath id="19"><path d="M84.744 140.1L186.264 140.1L186.264 140.1L186.264 115.02L186.264 115.02L84.744 115.02z" /></clipPath><clipPath id="20"><path d="M84.744 140.1L186.264 140.1L186.264 140.1L186.264 115.02L186.264 115.02L84.744 115.02z" /></clipPath><clipPath id="21"><path d="M186.75 140.11L250.005 140.11L250.005 140.11L250.005 115.03L250.005 115.03L186.75 115.03z" /></clipPath><clipPath id="22"><path d="M186.74 140.1L250.004 140.1L250.004 140.1L250.004 115.02L250.004 115.02L186.74 115.02z" /></clipPath><clipPath id="23"><path d="M186.74 140.1L250.004 140.1L250.004 140.1L250.004 115.02L250.004 115.02L186.74 115.02z" /></clipPath><clipPath id="24"><path d="M250.49 140.11L345.92 140.11L345.92 140.11L345.92 115.03L345.92 115.03L250.49 115.03z" /></clipPath><clipPath id="25"><path d="M250.49 140.1L345.914 140.1L345.914 140.1L345.914 115.02L345.914 115.02L250.49 115.02z" /></clipPath><clipPath id="26"><path d="M250.49 140.1L345.914 140.1L345.914 140.1L345.914 115.02L345.914 115.02L250.49 115.02z" /></clipPath><clipPath id="27"><path d="M346.4 140.11L502.54 140.11L502.54 140.11L502.54 115.03L502.54 115.03L346.4 115.03z" /></clipPath><clipPath id="28"><path d="M346.39 140.1L502.53 140.1L502.53 140.1L502.53 115.02L502.53 115.02L346.39 115.02z" /></clipPath><clipPath id="29"><path d="M346.39 140.1L502.53 140.1L502.53 140.1L502.53 115.02L502.53 115.02L346.39 115.02z" /></clipPath><clipPath id="30"><path d="M84.751 165.67L186.271 165.67L186.271 165.67L186.271 140.59L186.271 140.59L84.751 140.59z" /></clipPath><clipPath id="31"><path d="M84.744 165.66L186.264 165.66L186.264 165.66L186.264 140.58L186.264 140.58L84.744 140.58z" /></clipPath><clipPath id="32"><path d="M84.744 165.66L186.264 165.66L186.264 165.66L186.264 140.58L186.264 140.58L84.744 140.58z" /></clipPath><clipPath id="33"><path d="M186.75 165.67L250.005 165.67L250.005 165.67L250.005 140.59L250.005 140.59L186.75 140.59z" /></clipPath><clipPath id="34"><path d="M186.74 165.66L250.004 165.66L250.004 165.66L250.004 140.58L250.004 140.58L186.74 140.58z" /></clipPath><clipPath id="35"><path d="M186.74 165.66L250.004 165.66L250.004 165.66L250.004 140.58L250.004 140.58L186.74 140.58z" /></clipPath><clipPath id="36"><path d="M250.49 165.67L345.92 165.67L345.92 165.67L345.92 140.59L345.92 140.59L250.49 140.59z" /></clipPath><clipPath id="37"><path d="M250.49 165.66L345.914 165.66L345.914 165.66L345.914 140.58L345.914 140.58L250.49 140.58z" /></clipPath><clipPath id="38"><path d="M250.49 165.66L345.914 165.66L345.914 165.66L345.914 140.58L345.914 140.58L250.49 140.58z" /></clipPath><clipPath id="39"><path d="M346.4 165.67L502.54 165.67L502.54 165.67L502.54 140.59L502.54 140.59L346.4 140.59z" /></clipPath><clipPath id="40"><path d="M346.39 165.66L502.53 165.66L502.53 165.66L502.53 140.58L502.53 140.58L346.39 140.58z" /></clipPath><clipPath id="41"><path d="M346.39 165.66L502.53 165.66L502.53 165.66L502.53 140.58L502.53 140.58L346.39 140.58z" /></clipPath><clipPath id="42"><path d="M84.751 191.23L186.271 191.23L186.271 191.23L186.271 166.15L186.271 166.15L84.751 166.15z" /></clipPath><clipPath id="43"><path d="M84.744 191.22L186.264 191.22L186.264 191.22L186.264 166.14L186.264 166.14L84.744 166.14z" /></clipPath><clipPath id="44"><path d="M84.744 191.22L186.264 191.22L186.264 191.22L186.264 166.14L186.264 166.14L84.744 166.14z" /></clipPath><clipPath id="45"><path d="M186.75 191.23L250.005 191.23L250.005 191.23L250.005 166.15L250.005 166.15L186.75 166.15z" /></clipPath><clipPath id="46"><path d="M186.74 191.22L250.004 191.22L250.004 191.22L250.004 166.14L250.004 166.14L186.74 166.14z" /></clipPath><clipPath id="47"><path d="M186.74 191.22L250.004 191.22L250.004 191.22L250.004 166.14L250.004 166.14L186.74 166.14z" /></clipPath><clipPath id="48"><path d="M250.49 191.23L345.92 191.23L345.92 191.23L345.92 166.15L345.92 166.15L250.49 166.15z" /></clipPath><clipPath id="49"><path d="M250.49 191.22L345.914 191.22L345.914 191.22L345.914 166.14L345.914 166.14L250.49 166.14z" /></clipPath><clipPath id="50"><path d="M250.49 191.22L345.914 191.22L345.914 191.22L345.914 166.14L345.914 166.14L250.49 166.14z" /></clipPath><clipPath id="51"><path d="M250.49 191.22L345.914 191.22L345.914 191.22L345.914 166.14L345.914 166.14L250.49 166.14z" /></clipPath><clipPath id="52"><path d="M346.4 191.23L502.54 191.23L502.54 191.23L502.54 166.15L502.54 166.15L346.4 166.15z" /></clipPath><clipPath id="53"><path d="M346.39 191.22L502.53 191.22L502.53 191.22L502.53 166.14L502.53 166.14L346.39 166.14z" /></clipPath><clipPath id="54"><path d="M346.39 191.22L502.53 191.22L502.53 191.22L502.53 166.14L502.53 166.14L346.39 166.14z" /></clipPath><clipPath id="55"><path d="M84.751 216.79L186.271 216.79L186.271 216.79L186.271 191.71L186.271 191.71L84.751 191.71z" /></clipPath><clipPath id="56"><path d="M84.744 216.78L186.264 216.78L186.264 216.78L186.264 191.7L186.264 191.7L84.744 191.7z" /></clipPath><clipPath id="57"><path d="M84.744 216.78L186.264 216.78L186.264 216.78L186.264 191.7L186.264 191.7L84.744 191.7z" /></clipPath><clipPath id="58"><path d="M186.75 216.79L250.005 216.79L250.005 216.79L250.005 191.71L250.005 191.71L186.75 191.71z" /></clipPath><clipPath id="59"><path d="M186.74 216.78L250.004 216.78L250.004 216.78L250.004 191.7L250.004 191.7L186.74 191.7z" /></clipPath><clipPath id="60"><path d="M186.74 216.78L250.004 216.78L250.004 216.78L250.004 191.7L250.004 191.7L186.74 191.7z" /></clipPath><clipPath id="61"><path d="M250.49 216.79L345.92 216.79L345.92 216.79L345.92 191.71L345.92 191.71L250.49 191.71z" /></clipPath><clipPath id="62"><path d="M250.49 216.78L345.914 216.78L345.914 216.78L345.914 191.7L345.914 191.7L250.49 191.7z" /></clipPath><clipPath id="63"><path d="M250.49 216.78L345.914 216.78L345.914 216.78L345.914 191.7L345.914 191.7L250.49 191.7z" /></clipPath><clipPath id="64"><path d="M346.4 216.79L502.54 216.79L502.54 216.79L502.54 191.71L502.54 191.71L346.4 191.71z" /></clipPath><clipPath id="65"><path d="M346.39 216.78L502.53 216.78L502.53 216.78L502.53 191.7L502.53 191.7L346.39 191.7z" /></clipPath><clipPath id="66"><path d="M346.39 216.78L502.53 216.78L502.53 216.78L502.53 191.7L502.53 191.7L346.39 191.7z" /></clipPath><clipPath id="67"><path d="M346.39 216.78L502.53 216.78L502.53 216.78L502.53 191.7L502.53 191.7L346.39 191.7z" /></clipPath><clipPath id="68"><path d="M346.39 216.78L502.53 216.78L502.53 216.78L502.53 191.7L502.53 191.7L346.39 191.7z" /></clipPath><clipPath id="69"><path d="M84.751 242.35L186.271 242.35L186.271 242.35L186.271 217.27L186.271 217.27L84.751 217.27z" /></clipPath><clipPath id="70"><path d="M84.744 242.34L186.264 242.34L186.264 242.34L186.264 217.26L186.264 217.26L84.744 217.26z" /></clipPath><clipPath id="71"><path d="M84.744 242.34L186.264 242.34L186.264 242.34L186.264 217.26L186.264 217.26L84.744 217.26z" /></clipPath><clipPath id="72"><path d="M186.75 242.35L250.005 242.35L250.005 242.35L250.005 217.27L250.005 217.27L186.75 217.27z" /></clipPath><clipPath id="73"><path d="M186.74 242.34L250.004 242.34L250.004 242.34L250.004 217.26L250.004 217.26L186.74 217.26z" /></clipPath><clipPath id="74"><path d="M186.74 242.34L250.004 242.34L250.004 242.34L250.004 217.26L250.004 217.26L186.74 217.26z" /></clipPath><clipPath id="75"><path d="M250.49 242.35L345.92 242.35L345.92 242.35L345.92 217.27L345.92 217.27L250.49 217.27z" /></clipPath><clipPath id="76"><path d="M250.49 242.34L345.914 242.34L345.914 242.34L345.914 217.26L345.914 217.26L250.49 217.26z" /></clipPath><clipPath id="77"><path d="M250.49 242.34L345.914 242.34L345.914 242.34L345.914 217.26L345.914 217.26L250.49 217.26z" /></clipPath><clipPath id="78"><path d="M346.4 242.35L502.54 242.35L502.54 242.35L502.54 217.27L502.54 217.27L346.4 217.27z" /></clipPath><clipPath id="79"><path d="M346.39 242.34L502.53 242.34L502.53 242.34L502.53 217.26L502.53 217.26L346.39 217.26z" /></clipPath><clipPath id="80"><path d="M346.39 242.34L502.53 242.34L502.53 242.34L502.53 217.26L502.53 217.26L346.39 217.26z" /></clipPath><clipPath id="81"><path d="M346.39 242.34L502.53 242.34L502.53 242.34L502.53 217.26L502.53 217.26L346.39 217.26z" /></clipPath><clipPath id="82"><path d="M346.39 242.34L502.53 242.34L502.53 242.34L502.53 217.26L502.53 217.26L346.39 217.26z" /></clipPath><clipPath id="83"><path d="M346.39 242.34L502.53 242.34L502.53 242.34L502.53 217.26L502.53 217.26L346.39 217.26z" /></clipPath><clipPath id="84"><path d="M84.751 267.91L186.271 267.91L186.271 267.91L186.271 242.83L186.271 242.83L84.751 242.83z" /></clipPath><clipPath id="85"><path d="M84.744 267.9L186.264 267.9L186.264 267.9L186.264 242.82L186.264 242.82L84.744 242.82z" /></clipPath><clipPath id="86"><path d="M84.744 267.9L186.264 267.9L186.264 267.9L186.264 242.82L186.264 242.82L84.744 242.82z" /></clipPath><clipPath id="87"><path d="M186.75 267.91L250.005 267.91L250.005 267.91L250.005 242.83L250.005 242.83L186.75 242.83z" /></clipPath><clipPath id="88"><path d="M186.74 267.9L250.004 267.9L250.004 267.9L250.004 242.82L250.004 242.82L186.74 242.82z" /></clipPath><clipPath id="89"><path d="M186.74 267.9L250.004 267.9L250.004 267.9L250.004 242.82L250.004 242.82L186.74 242.82z" /></clipPath><clipPath id="90"><path d="M250.49 267.91L345.92 267.91L345.92 267.91L345.92 242.83L345.92 242.83L250.49 242.83z" /></clipPath><clipPath id="91"><path d="M250.49 267.9L345.914 267.9L345.914 267.9L345.914 242.82L345.914 242.82L250.49 242.82z" /></clipPath><clipPath id="92"><path d="M250.49 267.9L345.914 267.9L345.914 267.9L345.914 242.82L345.914 242.82L250.49 242.82z" /></clipPath><clipPath id="93"><path d="M346.4 267.91L502.54 267.91L502.54 267.91L502.54 242.83L502.54 242.83L346.4 242.83z" /></clipPath><clipPath id="94"><path d="M346.39 267.9L502.53 267.9L502.53 267.9L502.53 242.82L502.53 242.82L346.39 242.82z" /></clipPath><clipPath id="95"><path d="M346.39 267.9L502.53 267.9L502.53 267.9L502.53 242.82L502.53 242.82L346.39 242.82z" /></clipPath><clipPath id="96"><path d="M346.39 267.9L502.53 267.9L502.53 267.9L502.53 242.82L502.53 242.82L346.39 242.82z" /></clipPath><clipPath id="97"><path d="M346.39 267.9L502.53 267.9L502.53 267.9L502.53 242.82L502.53 242.82L346.39 242.82z" /></clipPath><clipPath id="98"><path d="M346.39 267.9L502.53 267.9L502.53 267.9L502.53 242.82L502.53 242.82L346.39 242.82z" /></clipPath><clipPath id="99"><path d="M84.751 292.53L186.271 292.53L186.271 292.53L186.271 268.395L186.271 268.395L84.751 268.395z" /></clipPath><clipPath id="100"><path d="M84.744 292.53L186.264 292.53L186.264 292.53L186.264 268.386L186.264 268.386L84.744 268.386z" /></clipPath><clipPath id="101"><path d="M84.744 292.53L186.264 292.53L186.264 292.53L186.264 268.386L186.264 268.386L84.744 268.386z" /></clipPath><clipPath id="102"><path d="M186.75 292.53L250.005 292.53L250.005 292.53L250.005 268.395L250.005 268.395L186.75 268.395z" /></clipPath><clipPath id="103"><path d="M186.74 292.53L250.004 292.53L250.004 292.53L250.004 268.386L250.004 268.386L186.74 268.386z" /></clipPath><clipPath id="104"><path d="M186.74 292.53L250.004 292.53L250.004 292.53L250.004 268.386L250.004 268.386L186.74 268.386z" /></clipPath><clipPath id="105"><path d="M250.49 292.53L345.92 292.53L345.92 292.53L345.92 268.395L345.92 268.395L250.49 268.395z" /></clipPath><clipPath id="106"><path d="M250.49 292.53L345.914 292.53L345.914 292.53L345.914 268.386L345.914 268.386L250.49 268.386z" /></clipPath><clipPath id="107"><path d="M250.49 292.53L345.914 292.53L345.914 292.53L345.914 268.386L345.914 268.386L250.49 268.386z" /></clipPath><clipPath id="108"><path d="M346.4 292.53L502.54 292.53L502.54 292.53L502.54 268.395L502.54 268.395L346.4 268.395z" /></clipPath><clipPath id="109"><path d="M346.39 292.53L502.53 292.53L502.53 292.53L502.53 268.386L502.53 268.386L346.39 268.386z" /></clipPath><clipPath id="110"><path d="M346.39 292.53L502.53 292.53L502.53 292.53L502.53 268.386L502.53 268.386L346.39 268.386z" /></clipPath><clipPath id="111"><path d="M346.39 292.53L502.53 292.53L502.53 292.53L502.53 268.386L502.53 268.386L346.39 268.386z" /></clipPath><clipPath id="112"><path d="M84.751 318.21L186.271 318.21L186.271 318.21L186.271 293.01L186.271 293.01L84.751 293.01z" /></clipPath><clipPath id="113"><path d="M84.744 318.21L186.264 318.21L186.264 318.21L186.264 293.01L186.264 293.01L84.744 293.01z" /></clipPath><clipPath id="114"><path d="M84.744 318.21L186.264 318.21L186.264 318.21L186.264 293.01L186.264 293.01L84.744 293.01z" /></clipPath><clipPath id="115"><path d="M186.75 318.21L250.005 318.21L250.005 318.21L250.005 293.01L250.005 293.01L186.75 293.01z" /></clipPath><clipPath id="116"><path d="M186.74 318.21L250.004 318.21L250.004 318.21L250.004 293.01L250.004 293.01L186.74 293.01z" /></clipPath><clipPath id="117"><path d="M186.74 318.21L250.004 318.21L250.004 318.21L250.004 293.01L250.004 293.01L186.74 293.01z" /></clipPath><clipPath id="118"><path d="M250.49 318.21L345.92 318.21L345.92 318.21L345.92 293.01L345.92 293.01L250.49 293.01z" /></clipPath><clipPath id="119"><path d="M250.49 318.21L345.914 318.21L345.914 318.21L345.914 293.01L345.914 293.01L250.49 293.01z" /></clipPath><clipPath id="120"><path d="M250.49 318.21L345.914 318.21L345.914 318.21L345.914 293.01L345.914 293.01L250.49 293.01z" /></clipPath><clipPath id="121"><path d="M346.4 318.21L502.54 318.21L502.54 318.21L502.54 293.01L502.54 293.01L346.4 293.01z" /></clipPath><clipPath id="122"><path d="M346.39 318.21L502.53 318.21L502.53 318.21L502.53 293.01L502.53 293.01L346.39 293.01z" /></clipPath><clipPath id="123"><path d="M346.39 318.21L502.53 318.21L502.53 318.21L502.53 293.01L502.53 293.01L346.39 293.01z" /></clipPath><clipPath id="124"><path d="M346.39 318.21L502.53 318.21L502.53 318.21L502.53 293.01L502.53 293.01L346.39 293.01z" /></clipPath><clipPath id="125"><path d="M84.751 342.81L186.271 342.81L186.271 342.81L186.271 318.69L186.271 318.69L84.751 318.69z" /></clipPath><clipPath id="126"><path d="M84.744 342.81L186.264 342.81L186.264 342.81L186.264 318.69L186.264 318.69L84.744 318.69z" /></clipPath><clipPath id="127"><path d="M84.744 342.81L186.264 342.81L186.264 342.81L186.264 318.69L186.264 318.69L84.744 318.69z" /></clipPath><clipPath id="128"><path d="M186.75 342.81L250.005 342.81L250.005 342.81L250.005 318.69L250.005 318.69L186.75 318.69z" /></clipPath><clipPath id="129"><path d="M186.74 342.81L250.004 342.81L250.004 342.81L250.004 318.69L250.004 318.69L186.74 318.69z" /></clipPath><clipPath id="130"><path d="M186.74 342.81L250.004 342.81L250.004 342.81L250.004 318.69L250.004 318.69L186.74 318.69z" /></clipPath><clipPath id="131"><path d="M250.49 342.81L345.92 342.81L345.92 342.81L345.92 318.69L345.92 318.69L250.49 318.69z" /></clipPath><clipPath id="132"><path d="M250.49 342.81L345.914 342.81L345.914 342.81L345.914 318.69L345.914 318.69L250.49 318.69z" /></clipPath><clipPath id="133"><path d="M250.49 342.81L345.914 342.81L345.914 342.81L345.914 318.69L345.914 318.69L250.49 318.69z" /></clipPath><clipPath id="134"><path d="M346.4 342.81L502.54 342.81L502.54 342.81L502.54 318.69L502.54 318.69L346.4 318.69z" /></clipPath><clipPath id="135"><path d="M346.39 342.81L502.53 342.81L502.53 342.81L502.53 318.69L502.53 318.69L346.39 318.69z" /></clipPath><clipPath id="136"><path d="M346.39 342.81L502.53 342.81L502.53 342.81L502.53 318.69L502.53 318.69L346.39 318.69z" /></clipPath><clipPath id="137"><path d="M346.39 342.81L502.53 342.81L502.53 342.81L502.53 318.69L502.53 318.69L346.39 318.69z" /></clipPath><clipPath id="138"><path d="M84.751 381.93L510.691 381.93L510.691 381.93L510.691 362.85L510.691 362.85L84.751 362.85z" /></clipPath><clipPath id="139"><path d="M84.744 381.93L510.694 381.93L510.694 381.93L510.694 362.85L510.694 362.85L84.744 362.85z" /></clipPath><clipPath id="140"><path d="M84.744 381.93L510.694 381.93L510.694 381.93L510.694 362.85L510.694 362.85L84.744 362.85z" /></clipPath><clipPath id="141"><path d="M84.751 591.96L510.691 591.96L510.691 591.96L510.691 382.41L510.691 382.41L84.751 382.41z" /></clipPath><clipPath id="142"><path d="M84.744 591.95L510.694 591.95L510.694 591.95L510.694 382.41L510.694 382.41L84.744 382.41z" /></clipPath><clipPath id="143"><path d="M84.744 591.95L510.694 591.95L510.694 591.95L510.694 382.41L510.694 382.41L84.744 382.41z" /></clipPath><clipPath id="144"><path d="M84.744 591.95L510.694 591.95L510.694 591.95L510.694 382.41L510.694 382.41L84.744 382.41z" /></clipPath><clipPath id="145"><path d="M84.744 591.95L510.694 591.95L510.694 591.95L510.694 382.41L510.694 382.41L84.744 382.41z" /></clipPath><clipPath id="146"><path d="M84.744 591.95L510.694 591.95L510.694 591.95L510.694 382.41L510.694 382.41L84.744 382.41z" /></clipPath><clipPath id="147"><path d="M84.744 591.95L510.694 591.95L510.694 591.95L510.694 382.41L510.694 382.41L84.744 382.41z" /></clipPath><clipPath id="148"><path d="M84.744 591.95L510.694 591.95L510.694 591.95L510.694 382.41L510.694 382.41L84.744 382.41z" /></clipPath><clipPath id="149"><path d="M84.744 591.95L510.694 591.95L510.694 591.95L510.694 382.41L510.694 382.41L84.744 382.41z" /></clipPath><clipPath id="150"><path d="M84.744 591.95L510.694 591.95L510.694 591.95L510.694 382.41L510.694 382.41L84.744 382.41z" /></clipPath><clipPath id="151"><path d="M84.744 591.95L510.694 591.95L510.694 591.95L510.694 382.41L510.694 382.41L84.744 382.41z" /></clipPath><clipPath id="152"><path d="M84.744 591.95L510.694 591.95L510.694 591.95L510.694 382.41L510.694 382.41L84.744 382.41z" /></clipPath><clipPath id="153"><path d="M84.744 591.95L510.694 591.95L510.694 591.95L510.694 382.41L510.694 382.41L84.744 382.41z" /></clipPath><clipPath id="154"><path d="M84.744 591.95L510.694 591.95L510.694 591.95L510.694 382.41L510.694 382.41L84.744 382.41z" /></clipPath><clipPath id="155"><path d="M84.744 591.95L510.694 591.95L510.694 591.95L510.694 382.41L510.694 382.41L84.744 382.41z" /></clipPath><clipPath id="156"><path d="M84.744 591.95L510.694 591.95L510.694 591.95L510.694 382.41L510.694 382.41L84.744 382.41z" /></clipPath><clipPath id="157"><path d="M84.744 591.95L510.694 591.95L510.694 591.95L510.694 382.41L510.694 382.41L84.744 382.41z" /></clipPath><clipPath id="158"><path d="M84.744 591.95L510.694 591.95L510.694 591.95L510.694 382.41L510.694 382.41L84.744 382.41z" /></clipPath><clipPath id="159"><path d="M84.744 591.95L510.694 591.95L510.694 591.95L510.694 382.41L510.694 382.41L84.744 382.41z" /></clipPath><clipPath id="160"><path d="M84.744 591.95L510.694 591.95L510.694 591.95L510.694 382.41L510.694 382.41L84.744 382.41z" /></clipPath><clipPath id="161"><path d="M84.744 591.95L510.694 591.95L510.694 591.95L510.694 382.41L510.694 382.41L84.744 382.41z" /></clipPath><clipPath id="162"><path d="M84.744 591.95L510.694 591.95L510.694 591.95L510.694 382.41L510.694 382.41L84.744 382.41z" /></clipPath><clipPath id="163"><path d="M84.744 591.95L510.694 591.95L510.694 591.95L510.694 382.41L510.694 382.41L84.744 382.41z" /></clipPath><clipPath id="164"><path d="M84.744 591.95L510.694 591.95L510.694 591.95L510.694 382.41L510.694 382.41L84.744 382.41z" /></clipPath><clipPath id="165"><path d="M84.744 591.95L510.694 591.95L510.694 591.95L510.694 382.41L510.694 382.41L84.744 382.41z" /></clipPath><clipPath id="166"><path d="M84.744 591.95L510.694 591.95L510.694 591.95L510.694 382.41L510.694 382.41L84.744 382.41z" /></clipPath><clipPath id="167"><path d="M84.744 591.95L510.694 591.95L510.694 591.95L510.694 382.41L510.694 382.41L84.744 382.41z" /></clipPath><clipPath id="168"><path d="M84.744 591.95L510.694 591.95L510.694 591.95L510.694 382.41L510.694 382.41L84.744 382.41z" /></clipPath><clipPath id="169"><path d="M84.744 591.95L510.694 591.95L510.694 591.95L510.694 382.41L510.694 382.41L84.744 382.41z" /></clipPath><clipPath id="170"><path d="M84.744 591.95L510.694 591.95L510.694 591.95L510.694 382.41L510.694 382.41L84.744 382.41z" /></clipPath><clipPath id="171"><path d="M84.744 591.95L510.694 591.95L510.694 591.95L510.694 382.41L510.694 382.41L84.744 382.41z" /></clipPath><clipPath id="172"><path d="M84.744 591.95L510.694 591.95L510.694 591.95L510.694 382.41L510.694 382.41L84.744 382.41z" /></clipPath><clipPath id="173"><path d="M84.744 591.95L510.694 591.95L510.694 591.95L510.694 382.41L510.694 382.41L84.744 382.41z" /></clipPath><clipPath id="174"><path d="M84.744 591.95L510.694 591.95L510.694 591.95L510.694 382.41L510.694 382.41L84.744 382.41z" /></clipPath><clipPath id="175"><path d="M84.744 591.95L510.694 591.95L510.694 591.95L510.694 382.41L510.694 382.41L84.744 382.41z" /></clipPath><clipPath id="176"><path d="M84.744 591.95L510.694 591.95L510.694 591.95L510.694 382.41L510.694 382.41L84.744 382.41z" /></clipPath><clipPath id="177"><path d="M84.744 591.95L510.694 591.95L510.694 591.95L510.694 382.41L510.694 382.41L84.744 382.41z" /></clipPath><clipPath id="178"><path d="M84.744 591.95L510.694 591.95L510.694 591.95L510.694 382.41L510.694 382.41L84.744 382.41z" /></clipPath><clipPath id="179"><path d="M84.744 591.95L510.694 591.95L510.694 591.95L510.694 382.41L510.694 382.41L84.744 382.41z" /></clipPath><clipPath id="180"><path d="M84.744 591.95L510.694 591.95L510.694 591.95L510.694 382.41L510.694 382.41L84.744 382.41z" /></clipPath></defs><g transform="matrix(1.333333 0 0 1.333333 0 0)"><g><g clip-path="url(#1)"><path transform="matrix(1 0 0 -1 0 841)" d="M457.51 53.304L505.534 53.304L505.534 53.304L505.534 53.90404L505.534 53.90404L457.51 53.90404z" stroke="none" fill="#000000" fill-rule="evenodd" /><g clip-path="url(#2)"><path transform="matrix(1 0 0 -1 0 841)" d="M88.464 77.904L506.974 77.904L506.974 77.904L506.974 80.904L506.974 80.904L88.464 80.904z" stroke="none" fill="#000000" fill-rule="evenodd" /><path transform="matrix(1 0 0 -1 0 841)" d="M88.464 76.464L506.974 76.464L506.974 76.464L506.974 77.18397L506.974 77.18397L88.464 77.18397z" stroke="none" fill="#000000" fill-rule="evenodd" /></g><g clip-path="url(#3)"><g clip-path="url(#4)"></g><g clip-path="url(#5)"></g></g><path transform="matrix(1 0 0 -1 0 841)" d="M84.744 726.46L186.264 726.46L186.264 726.46L186.264 751.564L186.264 751.564L84.744 751.564z" stroke="none" fill="#0070C0" fill-rule="evenodd" /><g clip-path="url(#6)"><path transform="matrix(1 0 0 -1 0 841)" d="M89.904 726.46L181.104 726.46L181.104 726.46L181.104 751.564L181.104 751.564L89.904 751.564z" stroke="none" fill="#0070C0" fill-rule="evenodd" /><g clip-path="url(#7)"></g><g clip-path="url(#8)"></g></g><path transform="matrix(1 0 0 -1 0 841)" d="M186.74 726.46L250.004 726.46L250.004 726.46L250.004 751.564L250.004 751.564L186.74 751.564z" stroke="none" fill="#0070C0" fill-rule="evenodd" /><g clip-path="url(#9)"><path transform="matrix(1 0 0 -1 0 841)" d="M191.9 726.46L244.844 726.46L244.844 726.46L244.844 751.564L244.844 751.564L191.9 751.564z" stroke="none" fill="#0070C0" fill-rule="evenodd" /><g clip-path="url(#10)"></g><g clip-path="url(#11)"></g></g><path transform="matrix(1 0 0 -1 0 841)" d="M250.49 726.46L345.914 726.46L345.914 726.46L345.914 751.564L345.914 751.564L250.49 751.564z" stroke="none" fill="#0070C0" fill-rule="evenodd" /><g clip-path="url(#12)"><path transform="matrix(1 0 0 -1 0 841)" d="M255.65 726.46L340.754 726.46L340.754 726.46L340.754 751.564L340.754 751.564L255.65 751.564z" stroke="none" fill="#0070C0" fill-rule="evenodd" /><g clip-path="url(#13)"></g><g clip-path="url(#14)"></g></g><path transform="matrix(1 0 0 -1 0 841)" d="M346.39 726.46L502.53 726.46L502.53 726.46L502.53 751.564L502.53 751.564L346.39 751.564z" stroke="none" fill="#0070C0" fill-rule="evenodd" /><g clip-path="url(#15)"><path transform="matrix(1 0 0 -1 0 841)" d="M351.55 726.46L497.37 726.46L497.37 726.46L497.37 751.564L497.37 751.564L351.55 751.564z" stroke="none" fill="#0070C0" fill-rule="evenodd" /><g clip-path="url(#16)"></g><g clip-path="url(#17)"></g></g><path transform="matrix(1 0 0 -1 0 841)" d="M84.264 751.56L84.744 751.56L84.744 751.56L84.744 752.04L84.744 752.04L84.264 752.04z" stroke="none" fill="#000000" fill-rule="evenodd" /><path transform="matrix(1 0 0 -1 0 841)" d="M84.264 751.56L84.744 751.56L84.744 751.56L84.744 752.04L84.744 752.04L84.264 752.04z" stroke="none" fill="#000000" fill-rule="evenodd" /><path transform="matrix(1 0 0 -1 0 841)" d="M84.744 751.56L186.264 751.56L186.264 751.56L186.264 752.04L186.264 752.04L84.744 752.04z" stroke="none" fill="#000000" fill-rule="evenodd" /><path transform="matrix(1 0 0 -1 0 841)" d="M186.26 751.56L186.74 751.56L186.74 751.56L186.74 752.04L186.74 752.04L186.26 752.04z" stroke="none" fill="#000000" fill-rule="evenodd" /><path transform="matrix(1 0 0 -1 0 841)" d="M186.74 751.56L250.004 751.56L250.004 751.56L250.004 752.04L250.004 752.04L186.74 752.04z" stroke="none" fill="#000000" fill-rule="evenodd" /><path transform="matrix(1 0 0 -1 0 841)" d="M250.01 751.56L250.49 751.56L250.49 751.56L250.49 752.04L250.49 752.04L250.01 752.04z" stroke="none" fill="#000000" fill-rule="evenodd" /><path transform="matrix(1 0 0 -1 0 841)" d="M250.49 751.56L345.914 751.56L345.914 751.56L345.914 752.04L345.914 752.04L250.49 752.04z" stroke="none" fill="#000000" fill-rule="evenodd" /><path transform="matrix(1 0 0 -1 0 841)" d="M345.91 751.56L346.39 751.56L346.39 751.56L346.39 752.04L346.39 752.04L345.91 752.04z" stroke="none" fill="#000000" fill-rule="evenodd" /><path transform="matrix(1 0 0 -1 0 841)" d="M346.39 751.56L502.53 751.56L502.53 751.56L502.53 752.04L502.53 752.04L346.39 752.04z" stroke="none" fill="#000000" fill-rule="evenodd" /><path transform="matrix(1 0 0 -1 0 841)" d="M502.54 751.56L503.02 751.56L503.02 751.56L503.02 752.04L503.02 752.04L502.54 752.04z" stroke="none" fill="#000000" fill-rule="evenodd" /><path transform="matrix(1 0 0 -1 0 841)" d="M502.54 751.56L503.02 751.56L503.02 751.56L503.02 752.04L503.02 752.04L502.54 752.04z" stroke="none" fill="#000000" fill-rule="evenodd" /><path transform="matrix(1 0 0 -1 0 841)" d="M84.264 726.46L84.744 726.46L84.744 726.46L84.744 751.564L84.744 751.564L84.264 751.564z" stroke="none" fill="#000000" fill-rule="evenodd" /><path transform="matrix(1 0 0 -1 0 841)" d="M186.26 726.46L186.74 726.46L186.74 726.46L186.74 751.564L186.74 751.564L186.26 751.564z" stroke="none" fill="#000000" fill-rule="evenodd" /><path transform="matrix(1 0 0 -1 0 841)" d="M250.01 726.46L250.49 726.46L250.49 726.46L250.49 751.564L250.49 751.564L250.01 751.564z" stroke="none" fill="#000000" fill-rule="evenodd" /><path transform="matrix(1 0 0 -1 0 841)" d="M345.91 726.46L346.39 726.46L346.39 726.46L346.39 751.564L346.39 751.564L345.91 751.564z" stroke="none" fill="#000000" fill-rule="evenodd" /><path transform="matrix(1 0 0 -1 0 841)" d="M502.54 726.46L503.02 726.46L503.02 726.46L503.02 751.564L503.02 751.564L502.54 751.564z" stroke="none" fill="#000000" fill-rule="evenodd" /><path transform="matrix(1 0 0 -1 0 841)" d="M84.744 700.9L186.264 700.9L186.264 700.9L186.264 725.98L186.264 725.98L84.744 725.98z" stroke="none" fill="#DAEEF3" fill-rule="evenodd" /><g clip-path="url(#18)"><path transform="matrix(1 0 0 -1 0 841)" d="M89.904 701.86L181.104 701.86L181.104 701.86L181.104 725.98L181.104 725.98L89.904 725.98z" stroke="none" fill="#DAEEF3" fill-rule="evenodd" /><g clip-path="url(#19)"></g><g clip-path="url(#20)"></g></g><path transform="matrix(1 0 0 -1 0 841)" d="M186.74 700.9L250.004 700.9L250.004 700.9L250.004 725.98L250.004 725.98L186.74 725.98z" stroke="none" fill="#DAEEF3" fill-rule="evenodd" /><g clip-path="url(#21)"><path transform="matrix(1 0 0 -1 0 841)" d="M191.9 701.86L244.844 701.86L244.844 701.86L244.844 725.98L244.844 725.98L191.9 725.98z" stroke="none" fill="#DAEEF3" fill-rule="evenodd" /><g clip-path="url(#22)"></g><g clip-path="url(#23)"></g></g><path transform="matrix(1 0 0 -1 0 841)" d="M250.49 700.9L345.914 700.9L345.914 700.9L345.914 725.98L345.914 725.98L250.49 725.98z" stroke="none" fill="#DAEEF3" fill-rule="evenodd" /><g clip-path="url(#24)"><path transform="matrix(1 0 0 -1 0 841)" d="M255.65 701.86L340.754 701.86L340.754 701.86L340.754 725.98L340.754 725.98L255.65 725.98z" stroke="none" fill="#DAEEF3" fill-rule="evenodd" /><g clip-path="url(#25)"></g><g clip-path="url(#26)"></g></g><path transform="matrix(1 0 0 -1 0 841)" d="M346.39 700.9L502.53 700.9L502.53 700.9L502.53 725.98L502.53 725.98L346.39 725.98z" stroke="none" fill="#DAEEF3" fill-rule="evenodd" /><g clip-path="url(#27)"><path transform="matrix(1 0 0 -1 0 841)" d="M351.55 700.9L497.37 700.9L497.37 700.9L497.37 725.98L497.37 725.98L351.55 725.98z" stroke="none" fill="#DAEEF3" fill-rule="evenodd" /><g clip-path="url(#28)"></g><g clip-path="url(#29)"></g></g><path transform="matrix(1 0 0 -1 0 841)" d="M84.264 725.98L84.744 725.98L84.744 725.98L84.744 726.46L84.744 726.46L84.264 726.46z" stroke="none" fill="#000000" fill-rule="evenodd" /><path transform="matrix(1 0 0 -1 0 841)" d="M84.744 725.98L186.264 725.98L186.264 725.98L186.264 726.46L186.264 726.46L84.744 726.46z" stroke="none" fill="#000000" fill-rule="evenodd" /><path transform="matrix(1 0 0 -1 0 841)" d="M186.26 725.98L186.74 725.98L186.74 725.98L186.74 726.46L186.74 726.46L186.26 726.46z" stroke="none" fill="#000000" fill-rule="evenodd" /><path transform="matrix(1 0 0 -1 0 841)" d="M186.74 725.98L250.004 725.98L250.004 725.98L250.004 726.46L250.004 726.46L186.74 726.46z" stroke="none" fill="#000000" fill-rule="evenodd" /><path transform="matrix(1 0 0 -1 0 841)" d="M250.01 725.98L250.49 725.98L250.49 725.98L250.49 726.46L250.49 726.46L250.01 726.46z" stroke="none" fill="#000000" fill-rule="evenodd" /><path transform="matrix(1 0 0 -1 0 841)" d="M250.49 725.98L345.914 725.98L345.914 725.98L345.914 726.46L345.914 726.46L250.49 726.46z" stroke="none" fill="#000000" fill-rule="evenodd" /><path transform="matrix(1 0 0 -1 0 841)" d="M345.91 725.98L346.39 725.98L346.39 725.98L346.39 726.46L346.39 726.46L345.91 726.46z" stroke="none" fill="#000000" fill-rule="evenodd" /><path transform="matrix(1 0 0 -1 0 841)" d="M346.39 725.98L502.53 725.98L502.53 725.98L502.53 726.46L502.53 726.46L346.39 726.46z" stroke="none" fill="#000000" fill-rule="evenodd" /><path transform="matrix(1 0 0 -1 0 841)" d="M502.54 725.98L503.02 725.98L503.02 725.98L503.02 726.46L503.02 726.46L502.54 726.46z" stroke="none" fill="#000000" fill-rule="evenodd" /><path transform="matrix(1 0 0 -1 0 841)" d="M84.264 700.9L84.744 700.9L84.744 700.9L84.744 725.98L84.744 725.98L84.264 725.98z" stroke="none" fill="#000000" fill-rule="evenodd" /><path transform="matrix(1 0 0 -1 0 841)" d="M186.26 700.9L186.74 700.9L186.74 700.9L186.74 725.98L186.74 725.98L186.26 725.98z" stroke="none" fill="#000000" fill-rule="evenodd" /><path transform="matrix(1 0 0 -1 0 841)" d="M250.01 700.9L250.49 700.9L250.49 700.9L250.49 725.98L250.49 725.98L250.01 725.98z" stroke="none" fill="#000000" fill-rule="evenodd" /><path transform="matrix(1 0 0 -1 0 841)" d="M345.91 700.9L346.39 700.9L346.39 700.9L346.39 725.98L346.39 725.98L345.91 725.98z" stroke="none" fill="#000000" fill-rule="evenodd" /><path transform="matrix(1 0 0 -1 0 841)" d="M502.54 700.9L503.02 700.9L503.02 700.9L503.02 725.98L503.02 725.98L502.54 725.98z" stroke="none" fill="#000000" fill-rule="evenodd" /><g clip-path="url(#30)"><g clip-path="url(#31)"></g><g clip-path="url(#32)"></g></g><g clip-path="url(#33)"><g clip-path="url(#34)"></g><g clip-path="url(#35)"></g></g><g clip-path="url(#36)"><g clip-path="url(#37)"></g><g clip-path="url(#38)"></g></g><g clip-path="url(#39)"><g clip-path="url(#40)"></g><g clip-path="url(#41)"></g></g><path transform="matrix(1 0 0 -1 0 841)" d="M84.264 700.42L84.744 700.42L84.744 700.42L84.744 700.9L84.744 700.9L84.264 700.9z" stroke="none" fill="#000000" fill-rule="evenodd" /><path transform="matrix(1 0 0 -1 0 841)" d="M84.744 700.42L186.264 700.42L186.264 700.42L186.264 700.9L186.264 700.9L84.744 700.9z" stroke="none" fill="#000000" fill-rule="evenodd" /><path transform="matrix(1 0 0 -1 0 841)" d="M186.26 700.42L186.74 700.42L186.74 700.42L186.74 700.9L186.74 700.9L186.26 700.9z" stroke="none" fill="#000000" fill-rule="evenodd" /><path transform="matrix(1 0 0 -1 0 841)" d="M186.74 700.42L250.004 700.42L250.004 700.42L250.004 700.9L250.004 700.9L186.74 700.9z" stroke="none" fill="#000000" fill-rule="evenodd" /><path transform="matrix(1 0 0 -1 0 841)" d="M250.01 700.42L250.49 700.42L250.49 700.42L250.49 700.9L250.49 700.9L250.01 700.9z" stroke="none" fill="#000000" fill-rule="evenodd" /><path transform="matrix(1 0 0 -1 0 841)" d="M250.49 700.42L345.914 700.42L345.914 700.42L345.914 700.9L345.914 700.9L250.49 700.9z" stroke="none" fill="#000000" fill-rule="evenodd" /><path transform="matrix(1 0 0 -1 0 841)" d="M345.91 700.42L346.39 700.42L346.39 700.42L346.39 700.9L346.39 700.9L345.91 700.9z" stroke="none" fill="#000000" fill-rule="evenodd" /><path transform="matrix(1 0 0 -1 0 841)" d="M346.39 700.42L502.53 700.42L502.53 700.42L502.53 700.9L502.53 700.9L346.39 700.9z" stroke="none" fill="#000000" fill-rule="evenodd" /><path transform="matrix(1 0 0 -1 0 841)" d="M502.54 700.42L503.02 700.42L503.02 700.42L503.02 700.9L503.02 700.9L502.54 700.9z" stroke="none" fill="#000000" fill-rule="evenodd" /><path transform="matrix(1 0 0 -1 0 841)" d="M84.264 675.34L84.744 675.34L84.744 675.34L84.744 700.42L84.744 700.42L84.264 700.42z" stroke="none" fill="#000000" fill-rule="evenodd" /><path transform="matrix(1 0 0 -1 0 841)" d="M186.26 675.34L186.74 675.34L186.74 675.34L186.74 700.42L186.74 700.42L186.26 700.42z" stroke="none" fill="#000000" fill-rule="evenodd" /><path transform="matrix(1 0 0 -1 0 841)" d="M250.01 675.34L250.49 675.34L250.49 675.34L250.49 700.42L250.49 700.42L250.01 700.42z" stroke="none" fill="#000000" fill-rule="evenodd" /><path transform="matrix(1 0 0 -1 0 841)" d="M345.91 675.34L346.39 675.34L346.39 675.34L346.39 700.42L346.39 700.42L345.91 700.42z" stroke="none" fill="#000000" fill-rule="evenodd" /><path transform="matrix(1 0 0 -1 0 841)" d="M502.54 675.34L503.02 675.34L503.02 675.34L503.02 700.42L503.02 700.42L502.54 700.42z" stroke="none" fill="#000000" fill-rule="evenodd" /><path transform="matrix(1 0 0 -1 0 841)" d="M84.744 649.78L186.264 649.78L186.264 649.78L186.264 674.86L186.264 674.86L84.744 674.86z" stroke="none" fill="#DAEEF3" fill-rule="evenodd" /><g clip-path="url(#42)"><path transform="matrix(1 0 0 -1 0 841)" d="M89.904 650.74L181.104 650.74L181.104 650.74L181.104 674.86L181.104 674.86L89.904 674.86z" stroke="none" fill="#DAEEF3" fill-rule="evenodd" /><g clip-path="url(#43)"></g><g clip-path="url(#44)"></g></g><path transform="matrix(1 0 0 -1 0 841)" d="M186.74 649.78L250.004 649.78L250.004 649.78L250.004 674.86L250.004 674.86L186.74 674.86z" stroke="none" fill="#DAEEF3" fill-rule="evenodd" /><g clip-path="url(#45)"><path transform="matrix(1 0 0 -1 0 841)" d="M191.9 650.74L244.844 650.74L244.844 650.74L244.844 674.86L244.844 674.86L191.9 674.86z" stroke="none" fill="#DAEEF3" fill-rule="evenodd" /><g clip-path="url(#46)"></g><g clip-path="url(#47)"></g></g><path transform="matrix(1 0 0 -1 0 841)" d="M250.49 649.78L345.914 649.78L345.914 649.78L345.914 674.86L345.914 674.86L250.49 674.86z" stroke="none" fill="#DAEEF3" fill-rule="evenodd" /><g clip-path="url(#48)"><path transform="matrix(1 0 0 -1 0 841)" d="M255.65 650.74L340.754 650.74L340.754 650.74L340.754 674.86L340.754 674.86L255.65 674.86z" stroke="none" fill="#DAEEF3" fill-rule="evenodd" /><g clip-path="url(#49)"></g><g clip-path="url(#50)"></g><g clip-path="url(#51)"></g></g><path transform="matrix(1 0 0 -1 0 841)" d="M346.39 649.78L502.53 649.78L502.53 649.78L502.53 674.86L502.53 674.86L346.39 674.86z" stroke="none" fill="#DAEEF3" fill-rule="evenodd" /><g clip-path="url(#52)"><path transform="matrix(1 0 0 -1 0 841)" d="M351.55 649.78L497.37 649.78L497.37 649.78L497.37 674.86L497.37 674.86L351.55 674.86z" stroke="none" fill="#DAEEF3" fill-rule="evenodd" /><g clip-path="url(#53)"></g><g clip-path="url(#54)"></g></g><path transform="matrix(1 0 0 -1 0 841)" d="M84.264 674.86L84.744 674.86L84.744 674.86L84.744 675.34L84.744 675.34L84.264 675.34z" stroke="none" fill="#000000" fill-rule="evenodd" /><path transform="matrix(1 0 0 -1 0 841)" d="M84.744 674.86L186.264 674.86L186.264 674.86L186.264 675.34L186.264 675.34L84.744 675.34z" stroke="none" fill="#000000" fill-rule="evenodd" /><path transform="matrix(1 0 0 -1 0 841)" d="M186.26 674.86L186.74 674.86L186.74 674.86L186.74 675.34L186.74 675.34L186.26 675.34z" stroke="none" fill="#000000" fill-rule="evenodd" /><path transform="matrix(1 0 0 -1 0 841)" d="M186.74 674.86L250.004 674.86L250.004 674.86L250.004 675.34L250.004 675.34L186.74 675.34z" stroke="none" fill="#000000" fill-rule="evenodd" /><path transform="matrix(1 0 0 -1 0 841)" d="M250.01 674.86L250.49 674.86L250.49 674.86L250.49 675.34L250.49 675.34L250.01 675.34z" stroke="none" fill="#000000" fill-rule="evenodd" /><path transform="matrix(1 0 0 -1 0 841)" d="M250.49 674.86L345.914 674.86L345.914 674.86L345.914 675.34L345.914 675.34L250.49 675.34z" stroke="none" fill="#000000" fill-rule="evenodd" /><path transform="matrix(1 0 0 -1 0 841)" d="M345.91 674.86L346.39 674.86L346.39 674.86L346.39 675.34L346.39 675.34L345.91 675.34z" stroke="none" fill="#000000" fill-rule="evenodd" /><path transform="matrix(1 0 0 -1 0 841)" d="M346.39 674.86L502.53 674.86L502.53 674.86L502.53 675.34L502.53 675.34L346.39 675.34z" stroke="none" fill="#000000" fill-rule="evenodd" /><path transform="matrix(1 0 0 -1 0 841)" d="M502.54 674.86L503.02 674.86L503.02 674.86L503.02 675.34L503.02 675.34L502.54 675.34z" stroke="none" fill="#000000" fill-rule="evenodd" /><path transform="matrix(1 0 0 -1 0 841)" d="M84.264 649.78L84.744 649.78L84.744 649.78L84.744 674.86L84.744 674.86L84.264 674.86z" stroke="none" fill="#000000" fill-rule="evenodd" /><path transform="matrix(1 0 0 -1 0 841)" d="M186.26 649.78L186.74 649.78L186.74 649.78L186.74 674.86L186.74 674.86L186.26 674.86z" stroke="none" fill="#000000" fill-rule="evenodd" /><path transform="matrix(1 0 0 -1 0 841)" d="M250.01 649.78L250.49 649.78L250.49 649.78L250.49 674.86L250.49 674.86L250.01 674.86z" stroke="none" fill="#000000" fill-rule="evenodd" /><path transform="matrix(1 0 0 -1 0 841)" d="M345.91 649.78L346.39 649.78L346.39 649.78L346.39 674.86L346.39 674.86L345.91 674.86z" stroke="none" fill="#000000" fill-rule="evenodd" /><path transform="matrix(1 0 0 -1 0 841)" d="M502.54 649.78L503.02 649.78L503.02 649.78L503.02 674.86L503.02 674.86L502.54 674.86z" stroke="none" fill="#000000" fill-rule="evenodd" /><g clip-path="url(#55)"><g clip-path="url(#56)"></g><g clip-path="url(#57)"></g></g><g clip-path="url(#58)"><g clip-path="url(#59)"></g><g clip-path="url(#60)"></g></g><g clip-path="url(#61)"><g clip-path="url(#62)"></g><g clip-path="url(#63)"></g></g><g clip-path="url(#64)"><g clip-path="url(#65)"></g><g clip-path="url(#66)"></g><g clip-path="url(#67)"></g><g clip-path="url(#68)"></g></g><path transform="matrix(1 0 0 -1 0 841)" d="M84.264 649.3L84.744 649.3L84.744 649.3L84.744 649.78L84.744 649.78L84.264 649.78z" stroke="none" fill="#000000" fill-rule="evenodd" /><path transform="matrix(1 0 0 -1 0 841)" d="M84.744 649.3L186.264 649.3L186.264 649.3L186.264 649.78L186.264 649.78L84.744 649.78z" stroke="none" fill="#000000" fill-rule="evenodd" /><path transform="matrix(1 0 0 -1 0 841)" d="M186.26 649.3L186.74 649.3L186.74 649.3L186.74 649.78L186.74 649.78L186.26 649.78z" stroke="none" fill="#000000" fill-rule="evenodd" /><path transform="matrix(1 0 0 -1 0 841)" d="M186.74 649.3L250.004 649.3L250.004 649.3L250.004 649.78L250.004 649.78L186.74 649.78z" stroke="none" fill="#000000" fill-rule="evenodd" /><path transform="matrix(1 0 0 -1 0 841)" d="M250.01 649.3L250.49 649.3L250.49 649.3L250.49 649.78L250.49 649.78L250.01 649.78z" stroke="none" fill="#000000" fill-rule="evenodd" /><path transform="matrix(1 0 0 -1 0 841)" d="M250.49 649.3L345.914 649.3L345.914 649.3L345.914 649.78L345.914 649.78L250.49 649.78z" stroke="none" fill="#000000" fill-rule="evenodd" /><path transform="matrix(1 0 0 -1 0 841)" d="M345.91 649.3L346.39 649.3L346.39 649.3L346.39 649.78L346.39 649.78L345.91 649.78z" stroke="none" fill="#000000" fill-rule="evenodd" /><path transform="matrix(1 0 0 -1 0 841)" d="M346.39 649.3L502.53 649.3L502.53 649.3L502.53 649.78L502.53 649.78L346.39 649.78z" stroke="none" fill="#000000" fill-rule="evenodd" /><path transform="matrix(1 0 0 -1 0 841)" d="M502.54 649.3L503.02 649.3L503.02 649.3L503.02 649.78L503.02 649.78L502.54 649.78z" stroke="none" fill="#000000" fill-rule="evenodd" /><path transform="matrix(1 0 0 -1 0 841)" d="M84.264 624.22L84.744 624.22L84.744 624.22L84.744 649.3L84.744 649.3L84.264 649.3z" stroke="none" fill="#000000" fill-rule="evenodd" /><path transform="matrix(1 0 0 -1 0 841)" d="M186.26 624.22L186.74 624.22L186.74 624.22L186.74 649.3L186.74 649.3L186.26 649.3z" stroke="none" fill="#000000" fill-rule="evenodd" /><path transform="matrix(1 0 0 -1 0 841)" d="M250.01 624.22L250.49 624.22L250.49 624.22L250.49 649.3L250.49 649.3L250.01 649.3z" stroke="none" fill="#000000" fill-rule="evenodd" /><path transform="matrix(1 0 0 -1 0 841)" d="M345.91 624.22L346.39 624.22L346.39 624.22L346.39 649.3L346.39 649.3L345.91 649.3z" stroke="none" fill="#000000" fill-rule="evenodd" /><path transform="matrix(1 0 0 -1 0 841)" d="M502.54 624.22L503.02 624.22L503.02 624.22L503.02 649.3L503.02 649.3L502.54 649.3z" stroke="none" fill="#000000" fill-rule="evenodd" /><path transform="matrix(1 0 0 -1 0 841)" d="M84.744 598.66L186.264 598.66L186.264 598.66L186.264 623.74L186.264 623.74L84.744 623.74z" stroke="none" fill="#DAEEF3" fill-rule="evenodd" /><g clip-path="url(#69)"><path transform="matrix(1 0 0 -1 0 841)" d="M89.904 599.62L181.104 599.62L181.104 599.62L181.104 623.74L181.104 623.74L89.904 623.74z" stroke="none" fill="#DAEEF3" fill-rule="evenodd" /><g clip-path="url(#70)"></g><g clip-path="url(#71)"></g></g><path transform="matrix(1 0 0 -1 0 841)" d="M186.74 598.66L250.004 598.66L250.004 598.66L250.004 623.74L250.004 623.74L186.74 623.74z" stroke="none" fill="#DAEEF3" fill-rule="evenodd" /><g clip-path="url(#72)"><path transform="matrix(1 0 0 -1 0 841)" d="M191.9 599.62L244.844 599.62L244.844 599.62L244.844 623.74L244.844 623.74L191.9 623.74z" stroke="none" fill="#DAEEF3" fill-rule="evenodd" /><g clip-path="url(#73)"></g><g clip-path="url(#74)"></g></g><path transform="matrix(1 0 0 -1 0 841)" d="M250.49 598.66L345.914 598.66L345.914 598.66L345.914 623.74L345.914 623.74L250.49 623.74z" stroke="none" fill="#DAEEF3" fill-rule="evenodd" /><g clip-path="url(#75)"><path transform="matrix(1 0 0 -1 0 841)" d="M255.65 599.62L340.754 599.62L340.754 599.62L340.754 623.74L340.754 623.74L255.65 623.74z" stroke="none" fill="#DAEEF3" fill-rule="evenodd" /><g clip-path="url(#76)"></g><g clip-path="url(#77)"></g></g><path transform="matrix(1 0 0 -1 0 841)" d="M346.39 598.66L502.53 598.66L502.53 598.66L502.53 623.74L502.53 623.74L346.39 623.74z" stroke="none" fill="#DAEEF3" fill-rule="evenodd" /><g clip-path="url(#78)"><path transform="matrix(1 0 0 -1 0 841)" d="M351.55 598.66L497.37 598.66L497.37 598.66L497.37 623.74L497.37 623.74L351.55 623.74z" stroke="none" fill="#DAEEF3" fill-rule="evenodd" /><g clip-path="url(#79)"></g><g clip-path="url(#80)"></g><g clip-path="url(#81)"></g><g clip-path="url(#82)"></g><g clip-path="url(#83)"></g></g><path transform="matrix(1 0 0 -1 0 841)" d="M84.264 623.74L84.744 623.74L84.744 623.74L84.744 624.22L84.744 624.22L84.264 624.22z" stroke="none" fill="#000000" fill-rule="evenodd" /><path transform="matrix(1 0 0 -1 0 841)" d="M84.744 623.74L186.264 623.74L186.264 623.74L186.264 624.22L186.264 624.22L84.744 624.22z" stroke="none" fill="#000000" fill-rule="evenodd" /><path transform="matrix(1 0 0 -1 0 841)" d="M186.26 623.74L186.74 623.74L186.74 623.74L186.74 624.22L186.74 624.22L186.26 624.22z" stroke="none" fill="#000000" fill-rule="evenodd" /><path transform="matrix(1 0 0 -1 0 841)" d="M186.74 623.74L250.004 623.74L250.004 623.74L250.004 624.22L250.004 624.22L186.74 624.22z" stroke="none" fill="#000000" fill-rule="evenodd" /><path transform="matrix(1 0 0 -1 0 841)" d="M250.01 623.74L250.49 623.74L250.49 623.74L250.49 624.22L250.49 624.22L250.01 624.22z" stroke="none" fill="#000000" fill-rule="evenodd" /><path transform="matrix(1 0 0 -1 0 841)" d="M250.49 623.74L345.914 623.74L345.914 623.74L345.914 624.22L345.914 624.22L250.49 624.22z" stroke="none" fill="#000000" fill-rule="evenodd" /><path transform="matrix(1 0 0 -1 0 841)" d="M345.91 623.74L346.39 623.74L346.39 623.74L346.39 624.22L346.39 624.22L345.91 624.22z" stroke="none" fill="#000000" fill-rule="evenodd" /><path transform="matrix(1 0 0 -1 0 841)" d="M346.39 623.74L502.53 623.74L502.53 623.74L502.53 624.22L502.53 624.22L346.39 624.22z" stroke="none" fill="#000000" fill-rule="evenodd" /><path transform="matrix(1 0 0 -1 0 841)" d="M502.54 623.74L503.02 623.74L503.02 623.74L503.02 624.22L503.02 624.22L502.54 624.22z" stroke="none" fill="#000000" fill-rule="evenodd" /><path transform="matrix(1 0 0 -1 0 841)" d="M84.264 598.66L84.744 598.66L84.744 598.66L84.744 623.74L84.744 623.74L84.264 623.74z" stroke="none" fill="#000000" fill-rule="evenodd" /><path transform="matrix(1 0 0 -1 0 841)" d="M186.26 598.66L186.74 598.66L186.74 598.66L186.74 623.74L186.74 623.74L186.26 623.74z" stroke="none" fill="#000000" fill-rule="evenodd" /><path transform="matrix(1 0 0 -1 0 841)" d="M250.01 598.66L250.49 598.66L250.49 598.66L250.49 623.74L250.49 623.74L250.01 623.74z" stroke="none" fill="#000000" fill-rule="evenodd" /><path transform="matrix(1 0 0 -1 0 841)" d="M345.91 598.66L346.39 598.66L346.39 598.66L346.39 623.74L346.39 623.74L345.91 623.74z" stroke="none" fill="#000000" fill-rule="evenodd" /><path transform="matrix(1 0 0 -1 0 841)" d="M502.54 598.66L503.02 598.66L503.02 598.66L503.02 623.74L503.02 623.74L502.54 623.74z" stroke="none" fill="#000000" fill-rule="evenodd" /><g clip-path="url(#84)"><g clip-path="url(#85)"></g><g clip-path="url(#86)"></g></g><g clip-path="url(#87)"><g clip-path="url(#88)"></g><g clip-path="url(#89)"></g></g><g clip-path="url(#90)"><g clip-path="url(#91)"></g><g clip-path="url(#92)"></g></g><g clip-path="url(#93)"><g clip-path="url(#94)"></g><g clip-path="url(#95)"></g><g clip-path="url(#96)"></g><g clip-path="url(#97)"></g><g clip-path="url(#98)"></g></g><path transform="matrix(1 0 0 -1 0 841)" d="M84.264 598.18L84.744 598.18L84.744 598.18L84.744 598.66L84.744 598.66L84.264 598.66z" stroke="none" fill="#000000" fill-rule="evenodd" /><path transform="matrix(1 0 0 -1 0 841)" d="M84.744 598.18L186.264 598.18L186.264 598.18L186.264 598.66L186.264 598.66L84.744 598.66z" stroke="none" fill="#000000" fill-rule="evenodd" /><path transform="matrix(1 0 0 -1 0 841)" d="M186.26 598.18L186.74 598.18L186.74 598.18L186.74 598.66L186.74 598.66L186.26 598.66z" stroke="none" fill="#000000" fill-rule="evenodd" /><path transform="matrix(1 0 0 -1 0 841)" d="M186.74 598.18L250.004 598.18L250.004 598.18L250.004 598.66L250.004 598.66L186.74 598.66z" stroke="none" fill="#000000" fill-rule="evenodd" /><path transform="matrix(1 0 0 -1 0 841)" d="M250.01 598.18L250.49 598.18L250.49 598.18L250.49 598.66L250.49 598.66L250.01 598.66z" stroke="none" fill="#000000" fill-rule="evenodd" /><path transform="matrix(1 0 0 -1 0 841)" d="M250.49 598.18L345.914 598.18L345.914 598.18L345.914 598.66L345.914 598.66L250.49 598.66z" stroke="none" fill="#000000" fill-rule="evenodd" /><path transform="matrix(1 0 0 -1 0 841)" d="M345.91 598.18L346.39 598.18L346.39 598.18L346.39 598.66L346.39 598.66L345.91 598.66z" stroke="none" fill="#000000" fill-rule="evenodd" /><path transform="matrix(1 0 0 -1 0 841)" d="M346.39 598.18L502.53 598.18L502.53 598.18L502.53 598.66L502.53 598.66L346.39 598.66z" stroke="none" fill="#000000" fill-rule="evenodd" /><path transform="matrix(1 0 0 -1 0 841)" d="M502.54 598.18L503.02 598.18L503.02 598.18L503.02 598.66L503.02 598.66L502.54 598.66z" stroke="none" fill="#000000" fill-rule="evenodd" /><path transform="matrix(1 0 0 -1 0 841)" d="M84.264 573.1L84.744 573.1L84.744 573.1L84.744 598.18L84.744 598.18L84.264 598.18z" stroke="none" fill="#000000" fill-rule="evenodd" /><path transform="matrix(1 0 0 -1 0 841)" d="M186.26 573.1L186.74 573.1L186.74 573.1L186.74 598.18L186.74 598.18L186.26 598.18z" stroke="none" fill="#000000" fill-rule="evenodd" /><path transform="matrix(1 0 0 -1 0 841)" d="M250.01 573.1L250.49 573.1L250.49 573.1L250.49 598.18L250.49 598.18L250.01 598.18z" stroke="none" fill="#000000" fill-rule="evenodd" /><path transform="matrix(1 0 0 -1 0 841)" d="M345.91 573.1L346.39 573.1L346.39 573.1L346.39 598.18L346.39 598.18L345.91 598.18z" stroke="none" fill="#000000" fill-rule="evenodd" /><path transform="matrix(1 0 0 -1 0 841)" d="M502.54 573.1L503.02 573.1L503.02 573.1L503.02 598.18L503.02 598.18L502.54 598.18z" stroke="none" fill="#000000" fill-rule="evenodd" /><path transform="matrix(1 0 0 -1 0 841)" d="M84.744 548.47L186.264 548.47L186.264 548.47L186.264 572.614L186.264 572.614L84.744 572.614z" stroke="none" fill="#DAEEF3" fill-rule="evenodd" /><g clip-path="url(#99)"><path transform="matrix(1 0 0 -1 0 841)" d="M89.904 548.47L181.104 548.47L181.104 548.47L181.104 572.614L181.104 572.614L89.904 572.614z" stroke="none" fill="#DAEEF3" fill-rule="evenodd" /><g clip-path="url(#100)"></g><g clip-path="url(#101)"></g></g><path transform="matrix(1 0 0 -1 0 841)" d="M186.74 548.47L250.004 548.47L250.004 548.47L250.004 572.614L250.004 572.614L186.74 572.614z" stroke="none" fill="#DAEEF3" fill-rule="evenodd" /><g clip-path="url(#102)"><path transform="matrix(1 0 0 -1 0 841)" d="M191.9 548.47L244.844 548.47L244.844 548.47L244.844 572.614L244.844 572.614L191.9 572.614z" stroke="none" fill="#DAEEF3" fill-rule="evenodd" /><g clip-path="url(#103)"></g><g clip-path="url(#104)"></g></g><path transform="matrix(1 0 0 -1 0 841)" d="M250.49 548.47L345.914 548.47L345.914 548.47L345.914 572.614L345.914 572.614L250.49 572.614z" stroke="none" fill="#DAEEF3" fill-rule="evenodd" /><g clip-path="url(#105)"><path transform="matrix(1 0 0 -1 0 841)" d="M255.65 548.47L340.754 548.47L340.754 548.47L340.754 572.614L340.754 572.614L255.65 572.614z" stroke="none" fill="#DAEEF3" fill-rule="evenodd" /><g clip-path="url(#106)"></g><g clip-path="url(#107)"></g></g><path transform="matrix(1 0 0 -1 0 841)" d="M346.39 548.47L502.53 548.47L502.53 548.47L502.53 572.614L502.53 572.614L346.39 572.614z" stroke="none" fill="#DAEEF3" fill-rule="evenodd" /><g clip-path="url(#108)"><path transform="matrix(1 0 0 -1 0 841)" d="M351.55 553.51L497.37 553.51L497.37 553.51L497.37 572.614L497.37 572.614L351.55 572.614z" stroke="none" fill="#DAEEF3" fill-rule="evenodd" /><g clip-path="url(#109)"></g><g clip-path="url(#110)"></g><g clip-path="url(#111)"></g></g><path transform="matrix(1 0 0 -1 0 841)" d="M84.264 572.62L84.744 572.62L84.744 572.62L84.744 573.1L84.744 573.1L84.264 573.1z" stroke="none" fill="#000000" fill-rule="evenodd" /><path transform="matrix(1 0 0 -1 0 841)" d="M84.744 572.62L186.264 572.62L186.264 572.62L186.264 573.1L186.264 573.1L84.744 573.1z" stroke="none" fill="#000000" fill-rule="evenodd" /><path transform="matrix(1 0 0 -1 0 841)" d="M186.26 572.62L186.74 572.62L186.74 572.62L186.74 573.1L186.74 573.1L186.26 573.1z" stroke="none" fill="#000000" fill-rule="evenodd" /><path transform="matrix(1 0 0 -1 0 841)" d="M186.74 572.62L250.004 572.62L250.004 572.62L250.004 573.1L250.004 573.1L186.74 573.1z" stroke="none" fill="#000000" fill-rule="evenodd" /><path transform="matrix(1 0 0 -1 0 841)" d="M250.01 572.62L250.49 572.62L250.49 572.62L250.49 573.1L250.49 573.1L250.01 573.1z" stroke="none" fill="#000000" fill-rule="evenodd" /><path transform="matrix(1 0 0 -1 0 841)" d="M250.49 572.62L345.914 572.62L345.914 572.62L345.914 573.1L345.914 573.1L250.49 573.1z" stroke="none" fill="#000000" fill-rule="evenodd" /><path transform="matrix(1 0 0 -1 0 841)" d="M345.91 572.62L346.39 572.62L346.39 572.62L346.39 573.1L346.39 573.1L345.91 573.1z" stroke="none" fill="#000000" fill-rule="evenodd" /><path transform="matrix(1 0 0 -1 0 841)" d="M346.39 572.62L502.53 572.62L502.53 572.62L502.53 573.1L502.53 573.1L346.39 573.1z" stroke="none" fill="#000000" fill-rule="evenodd" /><path transform="matrix(1 0 0 -1 0 841)" d="M502.54 572.62L503.02 572.62L503.02 572.62L503.02 573.1L503.02 573.1L502.54 573.1z" stroke="none" fill="#000000" fill-rule="evenodd" /><path transform="matrix(1 0 0 -1 0 841)" d="M84.264 548.47L84.744 548.47L84.744 548.47L84.744 572.614L84.744 572.614L84.264 572.614z" stroke="none" fill="#000000" fill-rule="evenodd" /><path transform="matrix(1 0 0 -1 0 841)" d="M186.26 548.47L186.74 548.47L186.74 548.47L186.74 572.614L186.74 572.614L186.26 572.614z" stroke="none" fill="#000000" fill-rule="evenodd" /><path transform="matrix(1 0 0 -1 0 841)" d="M250.01 548.47L250.49 548.47L250.49 548.47L250.49 572.614L250.49 572.614L250.01 572.614z" stroke="none" fill="#000000" fill-rule="evenodd" /><path transform="matrix(1 0 0 -1 0 841)" d="M345.91 548.47L346.39 548.47L346.39 548.47L346.39 572.614L346.39 572.614L345.91 572.614z" stroke="none" fill="#000000" fill-rule="evenodd" /><path transform="matrix(1 0 0 -1 0 841)" d="M502.54 548.47L503.02 548.47L503.02 548.47L503.02 572.614L503.02 572.614L502.54 572.614z" stroke="none" fill="#000000" fill-rule="evenodd" /><g clip-path="url(#112)"><g clip-path="url(#113)"></g><g clip-path="url(#114)"></g></g><g clip-path="url(#115)"><g clip-path="url(#116)"></g><g clip-path="url(#117)"></g></g><g clip-path="url(#118)"><g clip-path="url(#119)"></g><g clip-path="url(#120)"></g></g><g clip-path="url(#121)"><g clip-path="url(#122)"></g><g clip-path="url(#123)"></g><g clip-path="url(#124)"></g></g><path transform="matrix(1 0 0 -1 0 841)" d="M84.264 547.99L84.744 547.99L84.744 547.99L84.744 548.47L84.744 548.47L84.264 548.47z" stroke="none" fill="#000000" fill-rule="evenodd" /><path transform="matrix(1 0 0 -1 0 841)" d="M84.744 547.99L186.264 547.99L186.264 547.99L186.264 548.47L186.264 548.47L84.744 548.47z" stroke="none" fill="#000000" fill-rule="evenodd" /><path transform="matrix(1 0 0 -1 0 841)" d="M186.26 547.99L186.74 547.99L186.74 547.99L186.74 548.47L186.74 548.47L186.26 548.47z" stroke="none" fill="#000000" fill-rule="evenodd" /><path transform="matrix(1 0 0 -1 0 841)" d="M186.74 547.99L250.004 547.99L250.004 547.99L250.004 548.47L250.004 548.47L186.74 548.47z" stroke="none" fill="#000000" fill-rule="evenodd" /><path transform="matrix(1 0 0 -1 0 841)" d="M250.01 547.99L250.49 547.99L250.49 547.99L250.49 548.47L250.49 548.47L250.01 548.47z" stroke="none" fill="#000000" fill-rule="evenodd" /><path transform="matrix(1 0 0 -1 0 841)" d="M250.49 547.99L345.914 547.99L345.914 547.99L345.914 548.47L345.914 548.47L250.49 548.47z" stroke="none" fill="#000000" fill-rule="evenodd" /><path transform="matrix(1 0 0 -1 0 841)" d="M345.91 547.99L346.39 547.99L346.39 547.99L346.39 548.47L346.39 548.47L345.91 548.47z" stroke="none" fill="#000000" fill-rule="evenodd" /><path transform="matrix(1 0 0 -1 0 841)" d="M346.39 547.99L502.53 547.99L502.53 547.99L502.53 548.47L502.53 548.47L346.39 548.47z" stroke="none" fill="#000000" fill-rule="evenodd" /><path transform="matrix(1 0 0 -1 0 841)" d="M502.54 547.99L503.02 547.99L503.02 547.99L503.02 548.47L503.02 548.47L502.54 548.47z" stroke="none" fill="#000000" fill-rule="evenodd" /><path transform="matrix(1 0 0 -1 0 841)" d="M84.264 522.79L84.744 522.79L84.744 522.79L84.744 547.99L84.744 547.99L84.264 547.99z" stroke="none" fill="#000000" fill-rule="evenodd" /><path transform="matrix(1 0 0 -1 0 841)" d="M186.26 522.79L186.74 522.79L186.74 522.79L186.74 547.99L186.74 547.99L186.26 547.99z" stroke="none" fill="#000000" fill-rule="evenodd" /><path transform="matrix(1 0 0 -1 0 841)" d="M250.01 522.79L250.49 522.79L250.49 522.79L250.49 547.99L250.49 547.99L250.01 547.99z" stroke="none" fill="#000000" fill-rule="evenodd" /><path transform="matrix(1 0 0 -1 0 841)" d="M345.91 522.79L346.39 522.79L346.39 522.79L346.39 547.99L346.39 547.99L345.91 547.99z" stroke="none" fill="#000000" fill-rule="evenodd" /><path transform="matrix(1 0 0 -1 0 841)" d="M502.54 522.79L503.02 522.79L503.02 522.79L503.02 547.99L503.02 547.99L502.54 547.99z" stroke="none" fill="#000000" fill-rule="evenodd" /><path transform="matrix(1 0 0 -1 0 841)" d="M84.744 498.19L186.264 498.19L186.264 498.19L186.264 522.31L186.264 522.31L84.744 522.31z" stroke="none" fill="#DAEEF3" fill-rule="evenodd" /><g clip-path="url(#125)"><path transform="matrix(1 0 0 -1 0 841)" d="M89.904 498.19L181.104 498.19L181.104 498.19L181.104 522.31L181.104 522.31L89.904 522.31z" stroke="none" fill="#DAEEF3" fill-rule="evenodd" /><g clip-path="url(#126)"></g><g clip-path="url(#127)"></g></g><path transform="matrix(1 0 0 -1 0 841)" d="M186.74 498.19L250.004 498.19L250.004 498.19L250.004 522.31L250.004 522.31L186.74 522.31z" stroke="none" fill="#DAEEF3" fill-rule="evenodd" /><g clip-path="url(#128)"><path transform="matrix(1 0 0 -1 0 841)" d="M191.9 498.19L244.844 498.19L244.844 498.19L244.844 522.31L244.844 522.31L191.9 522.31z" stroke="none" fill="#DAEEF3" fill-rule="evenodd" /><g clip-path="url(#129)"></g><g clip-path="url(#130)"></g></g><path transform="matrix(1 0 0 -1 0 841)" d="M250.49 498.19L345.914 498.19L345.914 498.19L345.914 522.31L345.914 522.31L250.49 522.31z" stroke="none" fill="#DAEEF3" fill-rule="evenodd" /><g clip-path="url(#131)"><path transform="matrix(1 0 0 -1 0 841)" d="M255.65 498.19L340.754 498.19L340.754 498.19L340.754 522.31L340.754 522.31L255.65 522.31z" stroke="none" fill="#DAEEF3" fill-rule="evenodd" /><g clip-path="url(#132)"></g><g clip-path="url(#133)"></g></g><path transform="matrix(1 0 0 -1 0 841)" d="M346.39 498.19L502.53 498.19L502.53 498.19L502.53 522.31L502.53 522.31L346.39 522.31z" stroke="none" fill="#DAEEF3" fill-rule="evenodd" /><g clip-path="url(#134)"><path transform="matrix(1 0 0 -1 0 841)" d="M351.55 503.23L497.37 503.23L497.37 503.23L497.37 522.31L497.37 522.31L351.55 522.31z" stroke="none" fill="#DAEEF3" fill-rule="evenodd" /><g clip-path="url(#135)"></g><g clip-path="url(#136)"></g><g clip-path="url(#137)"></g></g><path transform="matrix(1 0 0 -1 0 841)" d="M84.264 522.31L84.744 522.31L84.744 522.31L84.744 522.79L84.744 522.79L84.264 522.79z" stroke="none" fill="#000000" fill-rule="evenodd" /><path transform="matrix(1 0 0 -1 0 841)" d="M84.744 522.31L186.264 522.31L186.264 522.31L186.264 522.79L186.264 522.79L84.744 522.79z" stroke="none" fill="#000000" fill-rule="evenodd" /><path transform="matrix(1 0 0 -1 0 841)" d="M186.26 522.31L186.74 522.31L186.74 522.31L186.74 522.79L186.74 522.79L186.26 522.79z" stroke="none" fill="#000000" fill-rule="evenodd" /><path transform="matrix(1 0 0 -1 0 841)" d="M186.74 522.31L250.004 522.31L250.004 522.31L250.004 522.79L250.004 522.79L186.74 522.79z" stroke="none" fill="#000000" fill-rule="evenodd" /><path transform="matrix(1 0 0 -1 0 841)" d="M250.01 522.31L250.49 522.31L250.49 522.31L250.49 522.79L250.49 522.79L250.01 522.79z" stroke="none" fill="#000000" fill-rule="evenodd" /><path transform="matrix(1 0 0 -1 0 841)" d="M250.49 522.31L345.914 522.31L345.914 522.31L345.914 522.79L345.914 522.79L250.49 522.79z" stroke="none" fill="#000000" fill-rule="evenodd" /><path transform="matrix(1 0 0 -1 0 841)" d="M345.91 522.31L346.39 522.31L346.39 522.31L346.39 522.79L346.39 522.79L345.91 522.79z" stroke="none" fill="#000000" fill-rule="evenodd" /><path transform="matrix(1 0 0 -1 0 841)" d="M346.39 522.31L502.53 522.31L502.53 522.31L502.53 522.79L502.53 522.79L346.39 522.79z" stroke="none" fill="#000000" fill-rule="evenodd" /><path transform="matrix(1 0 0 -1 0 841)" d="M502.54 522.31L503.02 522.31L503.02 522.31L503.02 522.79L503.02 522.79L502.54 522.79z" stroke="none" fill="#000000" fill-rule="evenodd" /><path transform="matrix(1 0 0 -1 0 841)" d="M84.264 498.19L84.744 498.19L84.744 498.19L84.744 522.31L84.744 522.31L84.264 522.31z" stroke="none" fill="#000000" fill-rule="evenodd" /><path transform="matrix(1 0 0 -1 0 841)" d="M84.264 497.71L84.744 497.71L84.744 497.71L84.744 498.19L84.744 498.19L84.264 498.19z" stroke="none" fill="#000000" fill-rule="evenodd" /><path transform="matrix(1 0 0 -1 0 841)" d="M84.264 497.71L84.744 497.71L84.744 497.71L84.744 498.19L84.744 498.19L84.264 498.19z" stroke="none" fill="#000000" fill-rule="evenodd" /><path transform="matrix(1 0 0 -1 0 841)" d="M84.744 497.71L186.264 497.71L186.264 497.71L186.264 498.19L186.264 498.19L84.744 498.19z" stroke="none" fill="#000000" fill-rule="evenodd" /><path transform="matrix(1 0 0 -1 0 841)" d="M186.26 498.19L186.74 498.19L186.74 498.19L186.74 522.31L186.74 522.31L186.26 522.31z" stroke="none" fill="#000000" fill-rule="evenodd" /><path transform="matrix(1 0 0 -1 0 841)" d="M186.26 497.71L186.74 497.71L186.74 497.71L186.74 498.19L186.74 498.19L186.26 498.19z" stroke="none" fill="#000000" fill-rule="evenodd" /><path transform="matrix(1 0 0 -1 0 841)" d="M186.74 497.71L250.004 497.71L250.004 497.71L250.004 498.19L250.004 498.19L186.74 498.19z" stroke="none" fill="#000000" fill-rule="evenodd" /><path transform="matrix(1 0 0 -1 0 841)" d="M250.01 498.19L250.49 498.19L250.49 498.19L250.49 522.31L250.49 522.31L250.01 522.31z" stroke="none" fill="#000000" fill-rule="evenodd" /><path transform="matrix(1 0 0 -1 0 841)" d="M250.01 497.71L250.49 497.71L250.49 497.71L250.49 498.19L250.49 498.19L250.01 498.19z" stroke="none" fill="#000000" fill-rule="evenodd" /><path transform="matrix(1 0 0 -1 0 841)" d="M250.49 497.71L345.914 497.71L345.914 497.71L345.914 498.19L345.914 498.19L250.49 498.19z" stroke="none" fill="#000000" fill-rule="evenodd" /><path transform="matrix(1 0 0 -1 0 841)" d="M345.91 498.19L346.39 498.19L346.39 498.19L346.39 522.31L346.39 522.31L345.91 522.31z" stroke="none" fill="#000000" fill-rule="evenodd" /><path transform="matrix(1 0 0 -1 0 841)" d="M345.91 497.71L346.39 497.71L346.39 497.71L346.39 498.19L346.39 498.19L345.91 498.19z" stroke="none" fill="#000000" fill-rule="evenodd" /><path transform="matrix(1 0 0 -1 0 841)" d="M346.39 497.71L502.53 497.71L502.53 497.71L502.53 498.19L502.53 498.19L346.39 498.19z" stroke="none" fill="#000000" fill-rule="evenodd" /><path transform="matrix(1 0 0 -1 0 841)" d="M502.54 498.19L503.02 498.19L503.02 498.19L503.02 522.31L503.02 522.31L502.54 522.31z" stroke="none" fill="#000000" fill-rule="evenodd" /><path transform="matrix(1 0 0 -1 0 841)" d="M502.54 497.71L503.02 497.71L503.02 497.71L503.02 498.19L503.02 498.19L502.54 498.19z" stroke="none" fill="#000000" fill-rule="evenodd" /><path transform="matrix(1 0 0 -1 0 841)" d="M502.54 497.71L503.02 497.71L503.02 497.71L503.02 498.19L503.02 498.19L502.54 498.19z" stroke="none" fill="#000000" fill-rule="evenodd" /><path transform="matrix(1 0 0 -1 0 841)" d="M84.744 459.07L510.694 459.07L510.694 459.07L510.694 478.15L510.694 478.15L84.744 478.15z" stroke="none" fill="#0070C0" fill-rule="evenodd" /><g clip-path="url(#138)"><path transform="matrix(1 0 0 -1 0 841)" d="M89.904 459.07L505.534 459.07L505.534 459.07L505.534 478.15L505.534 478.15L89.904 478.15z" stroke="none" fill="#0070C0" fill-rule="evenodd" /><g clip-path="url(#139)"></g><g clip-path="url(#140)"></g></g><path transform="matrix(1 0 0 -1 0 841)" d="M84.264 478.15L84.744 478.15L84.744 478.15L84.744 478.63L84.744 478.63L84.264 478.63z" stroke="none" fill="#000000" fill-rule="evenodd" /><path transform="matrix(1 0 0 -1 0 841)" d="M84.264 478.15L84.744 478.15L84.744 478.15L84.744 478.63L84.744 478.63L84.264 478.63z" stroke="none" fill="#000000" fill-rule="evenodd" /><path transform="matrix(1 0 0 -1 0 841)" d="M84.744 478.15L510.694 478.15L510.694 478.15L510.694 478.63L510.694 478.63L84.744 478.63z" stroke="none" fill="#000000" fill-rule="evenodd" /><path transform="matrix(1 0 0 -1 0 841)" d="M510.7 478.15L511.18 478.15L511.18 478.15L511.18 478.63L511.18 478.63L510.7 478.63z" stroke="none" fill="#000000" fill-rule="evenodd" /><path transform="matrix(1 0 0 -1 0 841)" d="M510.7 478.15L511.18 478.15L511.18 478.15L511.18 478.63L511.18 478.63L510.7 478.63z" stroke="none" fill="#000000" fill-rule="evenodd" /><path transform="matrix(1 0 0 -1 0 841)" d="M84.264 459.07L84.744 459.07L84.744 459.07L84.744 478.15L84.744 478.15L84.264 478.15z" stroke="none" fill="#000000" fill-rule="evenodd" /><path transform="matrix(1 0 0 -1 0 841)" d="M510.7 459.07L511.18 459.07L511.18 459.07L511.18 478.15L511.18 478.15L510.7 478.15z" stroke="none" fill="#000000" fill-rule="evenodd" /><path transform="matrix(1 0 0 -1 0 841)" d="M84.744 249.05L510.694 249.05L510.694 249.05L510.694 458.59L510.694 458.59L84.744 458.59z" stroke="none" fill="#DAEEF3" fill-rule="evenodd" /><g clip-path="url(#141)"><path transform="matrix(1 0 0 -1 0 841)" d="M89.904 439.51L505.534 439.51L505.534 439.51L505.534 458.59L505.534 458.59L89.904 458.59z" stroke="none" fill="#DAEEF3" fill-rule="evenodd" /><g clip-path="url(#142)"></g><g clip-path="url(#143)"></g><path transform="matrix(1 0 0 -1 0 841)" d="M89.904 420.43L505.534 420.43L505.534 420.43L505.534 439.51L505.534 439.51L89.904 439.51z" stroke="none" fill="#DAEEF3" fill-rule="evenodd" /><g clip-path="url(#144)"></g><g clip-path="url(#145)"></g><path transform="matrix(1 0 0 -1 0 841)" d="M89.904 401.47L505.534 401.47L505.534 401.47L505.534 420.43L505.534 420.43L89.904 420.43z" stroke="none" fill="#DAEEF3" fill-rule="evenodd" /><g clip-path="url(#146)"></g><g clip-path="url(#147)"></g><g clip-path="url(#148)"></g><g clip-path="url(#149)"></g><g clip-path="url(#150)"></g><g clip-path="url(#151)"></g><path transform="matrix(1 0 0 -1 0 841)" d="M89.904 382.39L505.534 382.39L505.534 382.39L505.534 401.47L505.534 401.47L89.904 401.47z" stroke="none" fill="#DAEEF3" fill-rule="evenodd" /><g clip-path="url(#152)"></g><g clip-path="url(#153)"></g><g clip-path="url(#154)"></g><g clip-path="url(#155)"></g><g clip-path="url(#156)"></g><g clip-path="url(#157)"></g><g clip-path="url(#158)"></g><path transform="matrix(1 0 0 -1 0 841)" d="M89.904 363.29L505.534 363.29L505.534 363.29L505.534 382.394L505.534 382.394L89.904 382.394z" stroke="none" fill="#DAEEF3" fill-rule="evenodd" /><g clip-path="url(#159)"></g><g clip-path="url(#160)"></g><g clip-path="url(#161)"></g><g clip-path="url(#162)"></g><g clip-path="url(#163)"></g><g clip-path="url(#164)"></g><path transform="matrix(1 0 0 -1 0 841)" d="M89.904 344.21L505.534 344.21L505.534 344.21L505.534 363.29L505.534 363.29L89.904 363.29z" stroke="none" fill="#DAEEF3" fill-rule="evenodd" /><g clip-path="url(#165)"></g><g clip-path="url(#166)"></g><g clip-path="url(#167)"></g><g clip-path="url(#168)"></g><path transform="matrix(1 0 0 -1 0 841)" d="M89.904 325.25L505.534 325.25L505.534 325.25L505.534 344.21L505.534 344.21L89.904 344.21z" stroke="none" fill="#DAEEF3" fill-rule="evenodd" /><g clip-path="url(#169)"></g><g clip-path="url(#170)"></g><g clip-path="url(#171)"></g><g clip-path="url(#172)"></g><path transform="matrix(1 0 0 -1 0 841)" d="M89.904 306.17L505.534 306.17L505.534 306.17L505.534 325.25L505.534 325.25L89.904 325.25z" stroke="none" fill="#DAEEF3" fill-rule="evenodd" /><g clip-path="url(#173)"></g><g clip-path="url(#174)"></g><path transform="matrix(1 0 0 -1 0 841)" d="M89.904 287.09L505.534 287.09L505.534 287.09L505.534 306.17L505.534 306.17L89.904 306.17z" stroke="none" fill="#DAEEF3" fill-rule="evenodd" /><g clip-path="url(#175)"></g><g clip-path="url(#176)"></g><path transform="matrix(1 0 0 -1 0 841)" d="M89.904 268.01L505.534 268.01L505.534 268.01L505.534 287.09L505.534 287.09L89.904 287.09z" stroke="none" fill="#DAEEF3" fill-rule="evenodd" /><g clip-path="url(#177)"></g><g clip-path="url(#178)"></g><path transform="matrix(1 0 0 -1 0 841)" d="M89.904 249.05L505.534 249.05L505.534 249.05L505.534 268.01L505.534 268.01L89.904 268.01z" stroke="none" fill="#DAEEF3" fill-rule="evenodd" /><g clip-path="url(#179)"></g><g clip-path="url(#180)"></g></g><path transform="matrix(1 0 0 -1 0 841)" d="M84.264 458.59L84.744 458.59L84.744 458.59L84.744 459.07L84.744 459.07L84.264 459.07z" stroke="none" fill="#000000" fill-rule="evenodd" /><path transform="matrix(1 0 0 -1 0 841)" d="M84.744 458.59L510.694 458.59L510.694 458.59L510.694 459.07L510.694 459.07L84.744 459.07z" stroke="none" fill="#000000" fill-rule="evenodd" /><path transform="matrix(1 0 0 -1 0 841)" d="M510.7 458.59L511.18 458.59L511.18 458.59L511.18 459.07L511.18 459.07L510.7 459.07z" stroke="none" fill="#000000" fill-rule="evenodd" /><path transform="matrix(1 0 0 -1 0 841)" d="M84.264 248.93L84.744 248.93L84.744 248.93L84.744 458.59L84.744 458.59L84.264 458.59z" stroke="none" fill="#000000" fill-rule="evenodd" /><path transform="matrix(1 0 0 -1 0 841)" d="M84.264 248.45L84.744 248.45L84.744 248.45L84.744 248.93L84.744 248.93L84.264 248.93z" stroke="none" fill="#000000" fill-rule="evenodd" /><path transform="matrix(1 0 0 -1 0 841)" d="M84.264 248.45L84.744 248.45L84.744 248.45L84.744 248.93L84.744 248.93L84.264 248.93z" stroke="none" fill="#000000" fill-rule="evenodd" /><path transform="matrix(1 0 0 -1 0 841)" d="M84.744 248.45L510.694 248.45L510.694 248.45L510.694 248.93L510.694 248.93L84.744 248.93z" stroke="none" fill="#000000" fill-rule="evenodd" /><path transform="matrix(1 0 0 -1 0 841)" d="M510.7 248.93L511.18 248.93L511.18 248.93L511.18 458.59L511.18 458.59L510.7 458.59z" stroke="none" fill="#000000" fill-rule="evenodd" /><path transform="matrix(1 0 0 -1 0 841)" d="M510.7 248.45L511.18 248.45L511.18 248.45L511.18 248.93L511.18 248.93L510.7 248.93z" stroke="none" fill="#000000" fill-rule="evenodd" /><path transform="matrix(1 0 0 -1 0 841)" d="M510.7 248.45L511.18 248.45L511.18 248.45L511.18 248.93L511.18 248.93L510.7 248.93z" stroke="none" fill="#000000" fill-rule="evenodd" /></g></g></g></svg>