<svg xmlns="http://www.w3.org/2000/svg" xmlns:xlink="http://www.w3.org/1999/xlink" id="body_10" preserveAspectRatio="xMinYMin meet" viewBox="0 0 793 1121"><defs><clipPath id="1"><path d="M0 841L0 -0.9199829L0 -0.9199829L595.32 -0.9199829L595.32 -0.9199829L595.32 841L595.32 841L0 841z" /></clipPath><clipPath id="2"><path d="M0.00125 841.0914L595.4112 841.0914L595.4112 841.0914L595.4112 -0.9186401L595.4112 -0.9186401L0.00125 -0.9186401z" /></clipPath><clipPath id="3"><path d="M295.13 780.251L300.17 780.251L300.17 780.251L300.17 768.011L300.17 768.011L295.13 768.011z" /></clipPath><clipPath id="4"><path d="M295.13 780.256L300.17 780.256L300.17 780.256L300.17 768.016L300.17 768.016L295.13 768.016z" /></clipPath><clipPath id="5"><path d="M295.13 780.256L300.17 780.256L300.17 780.256L300.17 768.016L300.17 768.016L295.13 768.016z" /></clipPath><clipPath id="6"><path d="M84.751 117.07L165.031 117.07L165.031 117.07L165.031 89.44L165.031 89.44L84.751 89.44z" /></clipPath><clipPath id="7"><path d="M84.744 117.06L165.024 117.06L165.024 117.06L165.024 89.43597L165.024 89.43597L84.744 89.43597z" /></clipPath><clipPath id="8"><path d="M84.744 117.06L165.024 117.06L165.024 117.06L165.024 89.43597L165.024 89.43597L84.744 89.43597z" /></clipPath><clipPath id="9"><path d="M165.51 117.07L234.405 117.07L234.405 117.07L234.405 89.44L234.405 89.44L165.51 89.44z" /></clipPath><clipPath id="10"><path d="M165.5 117.06L234.404 117.06L234.404 117.06L234.404 89.43597L234.404 89.43597L165.5 89.43597z" /></clipPath><clipPath id="11"><path d="M165.5 117.06L234.404 117.06L234.404 117.06L234.404 89.43597L234.404 89.43597L165.5 89.43597z" /></clipPath><clipPath id="12"><path d="M234.89 117.07L435.44 117.07L435.44 117.07L435.44 89.44L435.44 89.44L234.89 89.44z" /></clipPath><clipPath id="13"><path d="M234.89 117.06L435.43 117.06L435.43 117.06L435.43 89.43597L435.43 89.43597L234.89 89.43597z" /></clipPath><clipPath id="14"><path d="M234.89 117.06L435.43 117.06L435.43 117.06L435.43 89.43597L435.43 89.43597L234.89 89.43597z" /></clipPath><clipPath id="15"><path d="M436.04 117.07L510.695 117.07L510.695 117.07L510.695 89.44L510.695 89.44L436.04 89.44z" /></clipPath><clipPath id="16"><path d="M436.03 117.06L510.694 117.06L510.694 117.06L510.694 89.43597L510.694 89.43597L436.03 89.43597z" /></clipPath><clipPath id="17"><path d="M436.03 117.06L510.694 117.06L510.694 117.06L510.694 89.43597L510.694 89.43597L436.03 89.43597z" /></clipPath><clipPath id="18"><path d="M436.03 117.06L510.694 117.06L510.694 117.06L510.694 89.43597L510.694 89.43597L436.03 89.43597z" /></clipPath><clipPath id="19"><path d="M234.89 150.91L435.44 150.91L435.44 150.91L435.44 117.67L435.44 117.67L234.89 117.67z" /></clipPath><clipPath id="20"><path d="M234.89 150.9L435.43 150.9L435.43 150.9L435.43 117.66L435.43 117.66L234.89 117.66z" /></clipPath><clipPath id="21"><path d="M234.89 150.9L435.43 150.9L435.43 150.9L435.43 117.66L435.43 117.66L234.89 117.66z" /></clipPath><clipPath id="22"><path d="M234.89 150.9L435.43 150.9L435.43 150.9L435.43 117.66L435.43 117.66L234.89 117.66z" /></clipPath><clipPath id="23"><path d="M234.89 150.9L435.43 150.9L435.43 150.9L435.43 117.66L435.43 117.66L234.89 117.66z" /></clipPath><clipPath id="24"><path d="M234.89 150.9L435.43 150.9L435.43 150.9L435.43 117.66L435.43 117.66L234.89 117.66z" /></clipPath><clipPath id="25"><path d="M234.89 150.9L435.43 150.9L435.43 150.9L435.43 117.66L435.43 117.66L234.89 117.66z" /></clipPath><clipPath id="26"><path d="M84.751 195.19L165.031 195.19L165.031 195.19L165.031 151.51L165.031 151.51L84.751 151.51z" /></clipPath><clipPath id="27"><path d="M84.744 195.18L165.024 195.18L165.024 195.18L165.024 151.5L165.024 151.5L84.744 151.5z" /></clipPath><clipPath id="28"><path d="M84.744 195.18L165.024 195.18L165.024 195.18L165.024 151.5L165.024 151.5L84.744 151.5z" /></clipPath><clipPath id="29"><path d="M84.744 195.18L165.024 195.18L165.024 195.18L165.024 151.5L165.024 151.5L84.744 151.5z" /></clipPath><clipPath id="30"><path d="M84.744 195.18L165.024 195.18L165.024 195.18L165.024 151.5L165.024 151.5L84.744 151.5z" /></clipPath><clipPath id="31"><path d="M84.744 195.18L165.024 195.18L165.024 195.18L165.024 151.5L165.024 151.5L84.744 151.5z" /></clipPath><clipPath id="32"><path d="M84.744 195.18L165.024 195.18L165.024 195.18L165.024 151.5L165.024 151.5L84.744 151.5z" /></clipPath><clipPath id="33"><path d="M84.744 195.18L165.024 195.18L165.024 195.18L165.024 151.5L165.024 151.5L84.744 151.5z" /></clipPath><clipPath id="34"><path d="M84.744 195.18L165.024 195.18L165.024 195.18L165.024 151.5L165.024 151.5L84.744 151.5z" /></clipPath><clipPath id="35"><path d="M165.51 195.19L234.405 195.19L234.405 195.19L234.405 151.51L234.405 151.51L165.51 151.51z" /></clipPath><clipPath id="36"><path d="M165.5 195.18L234.404 195.18L234.404 195.18L234.404 151.5L234.404 151.5L165.5 151.5z" /></clipPath><clipPath id="37"><path d="M165.5 195.18L234.404 195.18L234.404 195.18L234.404 151.5L234.404 151.5L165.5 151.5z" /></clipPath><clipPath id="38"><path d="M165.5 195.18L234.404 195.18L234.404 195.18L234.404 151.5L234.404 151.5L165.5 151.5z" /></clipPath><clipPath id="39"><path d="M234.89 195.19L435.44 195.19L435.44 195.19L435.44 151.51L435.44 151.51L234.89 151.51z" /></clipPath><clipPath id="40"><path d="M234.89 195.18L435.43 195.18L435.43 195.18L435.43 151.5L435.43 151.5L234.89 151.5z" /></clipPath><clipPath id="41"><path d="M234.89 195.18L435.43 195.18L435.43 195.18L435.43 151.5L435.43 151.5L234.89 151.5z" /></clipPath><clipPath id="42"><path d="M234.89 195.18L435.43 195.18L435.43 195.18L435.43 151.5L435.43 151.5L234.89 151.5z" /></clipPath><clipPath id="43"><path d="M234.89 195.18L435.43 195.18L435.43 195.18L435.43 151.5L435.43 151.5L234.89 151.5z" /></clipPath><clipPath id="44"><path d="M234.89 195.18L435.43 195.18L435.43 195.18L435.43 151.5L435.43 151.5L234.89 151.5z" /></clipPath><clipPath id="45"><path d="M234.89 195.18L435.43 195.18L435.43 195.18L435.43 151.5L435.43 151.5L234.89 151.5z" /></clipPath><clipPath id="46"><path d="M436.04 195.19L510.695 195.19L510.695 195.19L510.695 151.51L510.695 151.51L436.04 151.51z" /></clipPath><clipPath id="47"><path d="M436.03 195.18L510.694 195.18L510.694 195.18L510.694 151.5L510.694 151.5L436.03 151.5z" /></clipPath><clipPath id="48"><path d="M436.03 195.18L510.694 195.18L510.694 195.18L510.694 151.5L510.694 151.5L436.03 151.5z" /></clipPath><clipPath id="49"><path d="M436.03 195.18L510.694 195.18L510.694 195.18L510.694 151.5L510.694 151.5L436.03 151.5z" /></clipPath><clipPath id="50"><path d="M84.751 302.49L165.031 302.49L165.031 302.49L165.031 195.67L165.031 195.67L84.751 195.67z" /></clipPath><clipPath id="51"><path d="M84.744 302.49L165.024 302.49L165.024 302.49L165.024 195.67L165.024 195.67L84.744 195.67z" /></clipPath><clipPath id="52"><path d="M84.744 302.49L165.024 302.49L165.024 302.49L165.024 195.67L165.024 195.67L84.744 195.67z" /></clipPath><clipPath id="53"><path d="M84.744 302.49L165.024 302.49L165.024 302.49L165.024 195.67L165.024 195.67L84.744 195.67z" /></clipPath><clipPath id="54"><path d="M84.744 302.49L165.024 302.49L165.024 302.49L165.024 195.67L165.024 195.67L84.744 195.67z" /></clipPath><clipPath id="55"><path d="M84.744 302.49L165.024 302.49L165.024 302.49L165.024 195.67L165.024 195.67L84.744 195.67z" /></clipPath><clipPath id="56"><path d="M84.744 302.49L165.024 302.49L165.024 302.49L165.024 195.67L165.024 195.67L84.744 195.67z" /></clipPath><clipPath id="57"><path d="M84.744 302.49L165.024 302.49L165.024 302.49L165.024 195.67L165.024 195.67L84.744 195.67z" /></clipPath><clipPath id="58"><path d="M84.744 302.49L165.024 302.49L165.024 302.49L165.024 195.67L165.024 195.67L84.744 195.67z" /></clipPath><clipPath id="59"><path d="M165.51 302.49L234.405 302.49L234.405 302.49L234.405 195.67L234.405 195.67L165.51 195.67z" /></clipPath><clipPath id="60"><path d="M165.5 302.49L234.404 302.49L234.404 302.49L234.404 195.67L234.404 195.67L165.5 195.67z" /></clipPath><clipPath id="61"><path d="M165.5 302.49L234.404 302.49L234.404 302.49L234.404 195.67L234.404 195.67L165.5 195.67z" /></clipPath><clipPath id="62"><path d="M165.5 302.49L234.404 302.49L234.404 302.49L234.404 195.67L234.404 195.67L165.5 195.67z" /></clipPath><clipPath id="63"><path d="M234.89 302.49L435.44 302.49L435.44 302.49L435.44 195.67L435.44 195.67L234.89 195.67z" /></clipPath><clipPath id="64"><path d="M234.89 302.49L435.43 302.49L435.43 302.49L435.43 195.67L435.43 195.67L234.89 195.67z" /></clipPath><clipPath id="65"><path d="M234.89 302.49L435.43 302.49L435.43 302.49L435.43 195.67L435.43 195.67L234.89 195.67z" /></clipPath><clipPath id="66"><path d="M234.89 302.49L435.43 302.49L435.43 302.49L435.43 195.67L435.43 195.67L234.89 195.67z" /></clipPath><clipPath id="67"><path d="M234.89 302.49L435.43 302.49L435.43 302.49L435.43 195.67L435.43 195.67L234.89 195.67z" /></clipPath><clipPath id="68"><path d="M234.89 302.49L435.43 302.49L435.43 302.49L435.43 195.67L435.43 195.67L234.89 195.67z" /></clipPath><clipPath id="69"><path d="M234.89 302.49L435.43 302.49L435.43 302.49L435.43 195.67L435.43 195.67L234.89 195.67z" /></clipPath><clipPath id="70"><path d="M234.89 302.49L435.43 302.49L435.43 302.49L435.43 195.67L435.43 195.67L234.89 195.67z" /></clipPath><clipPath id="71"><path d="M234.89 302.49L435.43 302.49L435.43 302.49L435.43 195.67L435.43 195.67L234.89 195.67z" /></clipPath><clipPath id="72"><path d="M234.89 302.49L435.43 302.49L435.43 302.49L435.43 195.67L435.43 195.67L234.89 195.67z" /></clipPath><clipPath id="73"><path d="M234.89 302.49L435.43 302.49L435.43 302.49L435.43 195.67L435.43 195.67L234.89 195.67z" /></clipPath><clipPath id="74"><path d="M234.89 302.49L435.43 302.49L435.43 302.49L435.43 195.67L435.43 195.67L234.89 195.67z" /></clipPath><clipPath id="75"><path d="M234.89 302.49L435.43 302.49L435.43 302.49L435.43 195.67L435.43 195.67L234.89 195.67z" /></clipPath><clipPath id="76"><path d="M234.89 302.49L435.43 302.49L435.43 302.49L435.43 195.67L435.43 195.67L234.89 195.67z" /></clipPath><clipPath id="77"><path d="M234.89 302.49L435.43 302.49L435.43 302.49L435.43 195.67L435.43 195.67L234.89 195.67z" /></clipPath><clipPath id="78"><path d="M234.89 302.49L435.43 302.49L435.43 302.49L435.43 195.67L435.43 195.67L234.89 195.67z" /></clipPath><clipPath id="79"><path d="M234.89 302.49L435.43 302.49L435.43 302.49L435.43 195.67L435.43 195.67L234.89 195.67z" /></clipPath><clipPath id="80"><path d="M234.89 302.49L435.43 302.49L435.43 302.49L435.43 195.67L435.43 195.67L234.89 195.67z" /></clipPath><clipPath id="81"><path d="M234.89 302.49L435.43 302.49L435.43 302.49L435.43 195.67L435.43 195.67L234.89 195.67z" /></clipPath><clipPath id="82"><path d="M436.04 302.49L510.695 302.49L510.695 302.49L510.695 195.67L510.695 195.67L436.04 195.67z" /></clipPath><clipPath id="83"><path d="M436.03 302.49L510.694 302.49L510.694 302.49L510.694 195.67L510.694 195.67L436.03 195.67z" /></clipPath><clipPath id="84"><path d="M436.03 302.49L510.694 302.49L510.694 302.49L510.694 195.67L510.694 195.67L436.03 195.67z" /></clipPath><clipPath id="85"><path d="M436.03 302.49L510.694 302.49L510.694 302.49L510.694 195.67L510.694 195.67L436.03 195.67z" /></clipPath><clipPath id="86"><path d="M84.751 448.17L165.031 448.17L165.031 448.17L165.031 302.97L165.031 302.97L84.751 302.97z" /></clipPath><clipPath id="87"><path d="M84.744 448.17L165.024 448.17L165.024 448.17L165.024 302.97L165.024 302.97L84.744 302.97z" /></clipPath><clipPath id="88"><path d="M84.744 448.17L165.024 448.17L165.024 448.17L165.024 302.97L165.024 302.97L84.744 302.97z" /></clipPath><clipPath id="89"><path d="M84.744 448.17L165.024 448.17L165.024 448.17L165.024 302.97L165.024 302.97L84.744 302.97z" /></clipPath><clipPath id="90"><path d="M84.744 448.17L165.024 448.17L165.024 448.17L165.024 302.97L165.024 302.97L84.744 302.97z" /></clipPath><clipPath id="91"><path d="M84.744 448.17L165.024 448.17L165.024 448.17L165.024 302.97L165.024 302.97L84.744 302.97z" /></clipPath><clipPath id="92"><path d="M84.744 448.17L165.024 448.17L165.024 448.17L165.024 302.97L165.024 302.97L84.744 302.97z" /></clipPath><clipPath id="93"><path d="M84.744 448.17L165.024 448.17L165.024 448.17L165.024 302.97L165.024 302.97L84.744 302.97z" /></clipPath><clipPath id="94"><path d="M84.744 448.17L165.024 448.17L165.024 448.17L165.024 302.97L165.024 302.97L84.744 302.97z" /></clipPath><clipPath id="95"><path d="M84.744 448.17L165.024 448.17L165.024 448.17L165.024 302.97L165.024 302.97L84.744 302.97z" /></clipPath><clipPath id="96"><path d="M165.51 448.17L234.405 448.17L234.405 448.17L234.405 302.97L234.405 302.97L165.51 302.97z" /></clipPath><clipPath id="97"><path d="M165.5 448.17L234.404 448.17L234.404 448.17L234.404 302.97L234.404 302.97L165.5 302.97z" /></clipPath><clipPath id="98"><path d="M165.5 448.17L234.404 448.17L234.404 448.17L234.404 302.97L234.404 302.97L165.5 302.97z" /></clipPath><clipPath id="99"><path d="M165.5 448.17L234.404 448.17L234.404 448.17L234.404 302.97L234.404 302.97L165.5 302.97z" /></clipPath><clipPath id="100"><path d="M234.89 448.17L435.44 448.17L435.44 448.17L435.44 302.97L435.44 302.97L234.89 302.97z" /></clipPath><clipPath id="101"><path d="M234.89 448.17L435.43 448.17L435.43 448.17L435.43 302.97L435.43 302.97L234.89 302.97z" /></clipPath><clipPath id="102"><path d="M234.89 448.17L435.43 448.17L435.43 448.17L435.43 302.97L435.43 302.97L234.89 302.97z" /></clipPath><clipPath id="103"><path d="M234.89 448.17L435.43 448.17L435.43 448.17L435.43 302.97L435.43 302.97L234.89 302.97z" /></clipPath><clipPath id="104"><path d="M234.89 448.17L435.43 448.17L435.43 448.17L435.43 302.97L435.43 302.97L234.89 302.97z" /></clipPath><clipPath id="105"><path d="M234.89 448.17L435.43 448.17L435.43 448.17L435.43 302.97L435.43 302.97L234.89 302.97z" /></clipPath><clipPath id="106"><path d="M234.89 448.17L435.43 448.17L435.43 448.17L435.43 302.97L435.43 302.97L234.89 302.97z" /></clipPath><clipPath id="107"><path d="M234.89 448.17L435.43 448.17L435.43 448.17L435.43 302.97L435.43 302.97L234.89 302.97z" /></clipPath><clipPath id="108"><path d="M234.89 448.17L435.43 448.17L435.43 448.17L435.43 302.97L435.43 302.97L234.89 302.97z" /></clipPath><clipPath id="109"><path d="M234.89 448.17L435.43 448.17L435.43 448.17L435.43 302.97L435.43 302.97L234.89 302.97z" /></clipPath><clipPath id="110"><path d="M234.89 448.17L435.43 448.17L435.43 448.17L435.43 302.97L435.43 302.97L234.89 302.97z" /></clipPath><clipPath id="111"><path d="M234.89 448.17L435.43 448.17L435.43 448.17L435.43 302.97L435.43 302.97L234.89 302.97z" /></clipPath><clipPath id="112"><path d="M234.89 448.17L435.43 448.17L435.43 448.17L435.43 302.97L435.43 302.97L234.89 302.97z" /></clipPath><clipPath id="113"><path d="M234.89 448.17L435.43 448.17L435.43 448.17L435.43 302.97L435.43 302.97L234.89 302.97z" /></clipPath><clipPath id="114"><path d="M234.89 448.17L435.43 448.17L435.43 448.17L435.43 302.97L435.43 302.97L234.89 302.97z" /></clipPath><clipPath id="115"><path d="M234.89 448.17L435.43 448.17L435.43 448.17L435.43 302.97L435.43 302.97L234.89 302.97z" /></clipPath><clipPath id="116"><path d="M234.89 448.17L435.43 448.17L435.43 448.17L435.43 302.97L435.43 302.97L234.89 302.97z" /></clipPath><clipPath id="117"><path d="M234.89 448.17L435.43 448.17L435.43 448.17L435.43 302.97L435.43 302.97L234.89 302.97z" /></clipPath><clipPath id="118"><path d="M234.89 448.17L435.43 448.17L435.43 448.17L435.43 302.97L435.43 302.97L234.89 302.97z" /></clipPath><clipPath id="119"><path d="M234.89 448.17L435.43 448.17L435.43 448.17L435.43 302.97L435.43 302.97L234.89 302.97z" /></clipPath><clipPath id="120"><path d="M234.89 448.17L435.43 448.17L435.43 448.17L435.43 302.97L435.43 302.97L234.89 302.97z" /></clipPath><clipPath id="121"><path d="M234.89 448.17L435.43 448.17L435.43 448.17L435.43 302.97L435.43 302.97L234.89 302.97z" /></clipPath><clipPath id="122"><path d="M234.89 448.17L435.43 448.17L435.43 448.17L435.43 302.97L435.43 302.97L234.89 302.97z" /></clipPath><clipPath id="123"><path d="M234.89 448.17L435.43 448.17L435.43 448.17L435.43 302.97L435.43 302.97L234.89 302.97z" /></clipPath><clipPath id="124"><path d="M234.89 448.17L435.43 448.17L435.43 448.17L435.43 302.97L435.43 302.97L234.89 302.97z" /></clipPath><clipPath id="125"><path d="M234.89 448.17L435.43 448.17L435.43 448.17L435.43 302.97L435.43 302.97L234.89 302.97z" /></clipPath><clipPath id="126"><path d="M234.89 448.17L435.43 448.17L435.43 448.17L435.43 302.97L435.43 302.97L234.89 302.97z" /></clipPath><clipPath id="127"><path d="M436.04 448.17L510.695 448.17L510.695 448.17L510.695 302.97L510.695 302.97L436.04 302.97z" /></clipPath><clipPath id="128"><path d="M436.03 448.17L510.694 448.17L510.694 448.17L510.694 302.97L510.694 302.97L436.03 302.97z" /></clipPath><clipPath id="129"><path d="M436.03 448.17L510.694 448.17L510.694 448.17L510.694 302.97L510.694 302.97L436.03 302.97z" /></clipPath><clipPath id="130"><path d="M436.03 448.17L510.694 448.17L510.694 448.17L510.694 302.97L510.694 302.97L436.03 302.97z" /></clipPath><clipPath id="131"><path d="M84.751 492.48L165.031 492.48L165.031 492.48L165.031 448.77L165.031 448.77L84.751 448.77z" /></clipPath><clipPath id="132"><path d="M84.744 492.47L165.024 492.47L165.024 492.47L165.024 448.766L165.024 448.766L84.744 448.766z" /></clipPath><clipPath id="133"><path d="M84.744 492.47L165.024 492.47L165.024 492.47L165.024 448.766L165.024 448.766L84.744 448.766z" /></clipPath><clipPath id="134"><path d="M84.744 492.47L165.024 492.47L165.024 492.47L165.024 448.766L165.024 448.766L84.744 448.766z" /></clipPath><clipPath id="135"><path d="M84.744 492.47L165.024 492.47L165.024 492.47L165.024 448.766L165.024 448.766L84.744 448.766z" /></clipPath><clipPath id="136"><path d="M165.51 492.48L234.405 492.48L234.405 492.48L234.405 448.77L234.405 448.77L165.51 448.77z" /></clipPath><clipPath id="137"><path d="M165.5 492.47L234.404 492.47L234.404 492.47L234.404 448.766L234.404 448.766L165.5 448.766z" /></clipPath><clipPath id="138"><path d="M165.5 492.47L234.404 492.47L234.404 492.47L234.404 448.766L234.404 448.766L165.5 448.766z" /></clipPath><clipPath id="139"><path d="M165.5 492.47L234.404 492.47L234.404 492.47L234.404 448.766L234.404 448.766L165.5 448.766z" /></clipPath><clipPath id="140"><path d="M234.89 492.48L435.44 492.48L435.44 492.48L435.44 448.77L435.44 448.77L234.89 448.77z" /></clipPath><clipPath id="141"><path d="M234.89 492.47L435.43 492.47L435.43 492.47L435.43 448.766L435.43 448.766L234.89 448.766z" /></clipPath><clipPath id="142"><path d="M234.89 492.47L435.43 492.47L435.43 492.47L435.43 448.766L435.43 448.766L234.89 448.766z" /></clipPath><clipPath id="143"><path d="M234.89 492.47L435.43 492.47L435.43 492.47L435.43 448.766L435.43 448.766L234.89 448.766z" /></clipPath><clipPath id="144"><path d="M234.89 492.47L435.43 492.47L435.43 492.47L435.43 448.766L435.43 448.766L234.89 448.766z" /></clipPath><clipPath id="145"><path d="M234.89 492.47L435.43 492.47L435.43 492.47L435.43 448.766L435.43 448.766L234.89 448.766z" /></clipPath><clipPath id="146"><path d="M234.89 492.47L435.43 492.47L435.43 492.47L435.43 448.766L435.43 448.766L234.89 448.766z" /></clipPath><clipPath id="147"><path d="M234.89 492.47L435.43 492.47L435.43 492.47L435.43 448.766L435.43 448.766L234.89 448.766z" /></clipPath><clipPath id="148"><path d="M234.89 492.47L435.43 492.47L435.43 492.47L435.43 448.766L435.43 448.766L234.89 448.766z" /></clipPath><clipPath id="149"><path d="M234.89 492.47L435.43 492.47L435.43 492.47L435.43 448.766L435.43 448.766L234.89 448.766z" /></clipPath><clipPath id="150"><path d="M436.04 492.48L510.695 492.48L510.695 492.48L510.695 448.77L510.695 448.77L436.04 448.77z" /></clipPath><clipPath id="151"><path d="M436.03 492.47L510.694 492.47L510.694 492.47L510.694 448.766L510.694 448.766L436.03 448.766z" /></clipPath><clipPath id="152"><path d="M436.03 492.47L510.694 492.47L510.694 492.47L510.694 448.766L510.694 448.766L436.03 448.766z" /></clipPath><clipPath id="153"><path d="M436.03 492.47L510.694 492.47L510.694 492.47L510.694 448.766L510.694 448.766L436.03 448.766z" /></clipPath><clipPath id="154"><path d="M84.751 536.64L165.031 536.64L165.031 536.64L165.031 492.96L165.031 492.96L84.751 492.96z" /></clipPath><clipPath id="155"><path d="M84.744 536.63L165.024 536.63L165.024 536.63L165.024 492.95L165.024 492.95L84.744 492.95z" /></clipPath><clipPath id="156"><path d="M84.744 536.63L165.024 536.63L165.024 536.63L165.024 492.95L165.024 492.95L84.744 492.95z" /></clipPath><clipPath id="157"><path d="M84.744 536.63L165.024 536.63L165.024 536.63L165.024 492.95L165.024 492.95L84.744 492.95z" /></clipPath><clipPath id="158"><path d="M84.744 536.63L165.024 536.63L165.024 536.63L165.024 492.95L165.024 492.95L84.744 492.95z" /></clipPath><clipPath id="159"><path d="M84.744 536.63L165.024 536.63L165.024 536.63L165.024 492.95L165.024 492.95L84.744 492.95z" /></clipPath><clipPath id="160"><path d="M84.744 536.63L165.024 536.63L165.024 536.63L165.024 492.95L165.024 492.95L84.744 492.95z" /></clipPath><clipPath id="161"><path d="M84.744 536.63L165.024 536.63L165.024 536.63L165.024 492.95L165.024 492.95L84.744 492.95z" /></clipPath><clipPath id="162"><path d="M165.51 536.64L234.405 536.64L234.405 536.64L234.405 492.96L234.405 492.96L165.51 492.96z" /></clipPath><clipPath id="163"><path d="M165.5 536.63L234.404 536.63L234.404 536.63L234.404 492.95L234.404 492.95L165.5 492.95z" /></clipPath><clipPath id="164"><path d="M165.5 536.63L234.404 536.63L234.404 536.63L234.404 492.95L234.404 492.95L165.5 492.95z" /></clipPath><clipPath id="165"><path d="M165.5 536.63L234.404 536.63L234.404 536.63L234.404 492.95L234.404 492.95L165.5 492.95z" /></clipPath><clipPath id="166"><path d="M234.89 536.64L435.44 536.64L435.44 536.64L435.44 492.96L435.44 492.96L234.89 492.96z" /></clipPath><clipPath id="167"><path d="M234.89 536.63L435.43 536.63L435.43 536.63L435.43 492.95L435.43 492.95L234.89 492.95z" /></clipPath><clipPath id="168"><path d="M234.89 536.63L435.43 536.63L435.43 536.63L435.43 492.95L435.43 492.95L234.89 492.95z" /></clipPath><clipPath id="169"><path d="M234.89 536.63L435.43 536.63L435.43 536.63L435.43 492.95L435.43 492.95L234.89 492.95z" /></clipPath><clipPath id="170"><path d="M234.89 536.63L435.43 536.63L435.43 536.63L435.43 492.95L435.43 492.95L234.89 492.95z" /></clipPath><clipPath id="171"><path d="M436.04 536.64L510.695 536.64L510.695 536.64L510.695 492.96L510.695 492.96L436.04 492.96z" /></clipPath><clipPath id="172"><path d="M436.03 536.63L510.694 536.63L510.694 536.63L510.694 492.95L510.694 492.95L436.03 492.95z" /></clipPath><clipPath id="173"><path d="M436.03 536.63L510.694 536.63L510.694 536.63L510.694 492.95L510.694 492.95L436.03 492.95z" /></clipPath><clipPath id="174"><path d="M436.03 536.63L510.694 536.63L510.694 536.63L510.694 492.95L510.694 492.95L436.03 492.95z" /></clipPath><clipPath id="175"><path d="M84.751 594.24L165.031 594.24L165.031 594.24L165.031 537.12L165.031 537.12L84.751 537.12z" /></clipPath><clipPath id="176"><path d="M84.744 594.23L165.024 594.23L165.024 594.23L165.024 537.11L165.024 537.11L84.744 537.11z" /></clipPath><clipPath id="177"><path d="M84.744 594.23L165.024 594.23L165.024 594.23L165.024 537.11L165.024 537.11L84.744 537.11z" /></clipPath><clipPath id="178"><path d="M84.744 594.23L165.024 594.23L165.024 594.23L165.024 537.11L165.024 537.11L84.744 537.11z" /></clipPath><clipPath id="179"><path d="M84.744 594.23L165.024 594.23L165.024 594.23L165.024 537.11L165.024 537.11L84.744 537.11z" /></clipPath><clipPath id="180"><path d="M84.744 594.23L165.024 594.23L165.024 594.23L165.024 537.11L165.024 537.11L84.744 537.11z" /></clipPath><clipPath id="181"><path d="M84.744 594.23L165.024 594.23L165.024 594.23L165.024 537.11L165.024 537.11L84.744 537.11z" /></clipPath><clipPath id="182"><path d="M165.51 594.24L234.405 594.24L234.405 594.24L234.405 537.12L234.405 537.12L165.51 537.12z" /></clipPath><clipPath id="183"><path d="M165.5 594.23L234.404 594.23L234.404 594.23L234.404 537.11L234.404 537.11L165.5 537.11z" /></clipPath><clipPath id="184"><path d="M165.5 594.23L234.404 594.23L234.404 594.23L234.404 537.11L234.404 537.11L165.5 537.11z" /></clipPath><clipPath id="185"><path d="M165.5 594.23L234.404 594.23L234.404 594.23L234.404 537.11L234.404 537.11L165.5 537.11z" /></clipPath><clipPath id="186"><path d="M234.89 594.24L435.44 594.24L435.44 594.24L435.44 537.12L435.44 537.12L234.89 537.12z" /></clipPath><clipPath id="187"><path d="M234.89 594.23L435.43 594.23L435.43 594.23L435.43 537.11L435.43 537.11L234.89 537.11z" /></clipPath><clipPath id="188"><path d="M234.89 594.23L435.43 594.23L435.43 594.23L435.43 537.11L435.43 537.11L234.89 537.11z" /></clipPath><clipPath id="189"><path d="M234.89 594.23L435.43 594.23L435.43 594.23L435.43 537.11L435.43 537.11L234.89 537.11z" /></clipPath><clipPath id="190"><path d="M234.89 594.23L435.43 594.23L435.43 594.23L435.43 537.11L435.43 537.11L234.89 537.11z" /></clipPath><clipPath id="191"><path d="M234.89 594.23L435.43 594.23L435.43 594.23L435.43 537.11L435.43 537.11L234.89 537.11z" /></clipPath><clipPath id="192"><path d="M234.89 594.23L435.43 594.23L435.43 594.23L435.43 537.11L435.43 537.11L234.89 537.11z" /></clipPath><clipPath id="193"><path d="M234.89 594.23L435.43 594.23L435.43 594.23L435.43 537.11L435.43 537.11L234.89 537.11z" /></clipPath><clipPath id="194"><path d="M234.89 594.23L435.43 594.23L435.43 594.23L435.43 537.11L435.43 537.11L234.89 537.11z" /></clipPath><clipPath id="195"><path d="M234.89 594.23L435.43 594.23L435.43 594.23L435.43 537.11L435.43 537.11L234.89 537.11z" /></clipPath><clipPath id="196"><path d="M436.04 594.24L510.695 594.24L510.695 594.24L510.695 537.12L510.695 537.12L436.04 537.12z" /></clipPath><clipPath id="197"><path d="M436.03 594.23L510.694 594.23L510.694 594.23L510.694 537.11L510.694 537.11L436.03 537.11z" /></clipPath><clipPath id="198"><path d="M436.03 594.23L510.694 594.23L510.694 594.23L510.694 537.11L510.694 537.11L436.03 537.11z" /></clipPath><clipPath id="199"><path d="M436.03 594.23L510.694 594.23L510.694 594.23L510.694 537.11L510.694 537.11L436.03 537.11z" /></clipPath><clipPath id="200"><path d="M84.751 651.96L165.031 651.96L165.031 651.96L165.031 594.72L165.031 594.72L84.751 594.72z" /></clipPath><clipPath id="201"><path d="M84.744 651.95L165.024 651.95L165.024 651.95L165.024 594.71L165.024 594.71L84.744 594.71z" /></clipPath><clipPath id="202"><path d="M84.744 651.95L165.024 651.95L165.024 651.95L165.024 594.71L165.024 594.71L84.744 594.71z" /></clipPath><clipPath id="203"><path d="M84.744 651.95L165.024 651.95L165.024 651.95L165.024 594.71L165.024 594.71L84.744 594.71z" /></clipPath><clipPath id="204"><path d="M84.744 651.95L165.024 651.95L165.024 651.95L165.024 594.71L165.024 594.71L84.744 594.71z" /></clipPath><clipPath id="205"><path d="M84.744 651.95L165.024 651.95L165.024 651.95L165.024 594.71L165.024 594.71L84.744 594.71z" /></clipPath><clipPath id="206"><path d="M165.51 651.96L234.405 651.96L234.405 651.96L234.405 594.72L234.405 594.72L165.51 594.72z" /></clipPath><clipPath id="207"><path d="M165.5 651.95L234.404 651.95L234.404 651.95L234.404 594.71L234.404 594.71L165.5 594.71z" /></clipPath><clipPath id="208"><path d="M165.5 651.95L234.404 651.95L234.404 651.95L234.404 594.71L234.404 594.71L165.5 594.71z" /></clipPath><clipPath id="209"><path d="M165.5 651.95L234.404 651.95L234.404 651.95L234.404 594.71L234.404 594.71L165.5 594.71z" /></clipPath><clipPath id="210"><path d="M234.89 651.96L435.44 651.96L435.44 651.96L435.44 594.72L435.44 594.72L234.89 594.72z" /></clipPath><clipPath id="211"><path d="M234.89 651.95L435.43 651.95L435.43 651.95L435.43 594.71L435.43 594.71L234.89 594.71z" /></clipPath><clipPath id="212"><path d="M234.89 651.95L435.43 651.95L435.43 651.95L435.43 594.71L435.43 594.71L234.89 594.71z" /></clipPath><clipPath id="213"><path d="M234.89 651.95L435.43 651.95L435.43 651.95L435.43 594.71L435.43 594.71L234.89 594.71z" /></clipPath><clipPath id="214"><path d="M234.89 651.95L435.43 651.95L435.43 651.95L435.43 594.71L435.43 594.71L234.89 594.71z" /></clipPath><clipPath id="215"><path d="M234.89 651.95L435.43 651.95L435.43 651.95L435.43 594.71L435.43 594.71L234.89 594.71z" /></clipPath><clipPath id="216"><path d="M234.89 651.95L435.43 651.95L435.43 651.95L435.43 594.71L435.43 594.71L234.89 594.71z" /></clipPath><clipPath id="217"><path d="M234.89 651.95L435.43 651.95L435.43 651.95L435.43 594.71L435.43 594.71L234.89 594.71z" /></clipPath><clipPath id="218"><path d="M234.89 651.95L435.43 651.95L435.43 651.95L435.43 594.71L435.43 594.71L234.89 594.71z" /></clipPath><clipPath id="219"><path d="M234.89 651.95L435.43 651.95L435.43 651.95L435.43 594.71L435.43 594.71L234.89 594.71z" /></clipPath><clipPath id="220"><path d="M234.89 651.95L435.43 651.95L435.43 651.95L435.43 594.71L435.43 594.71L234.89 594.71z" /></clipPath><clipPath id="221"><path d="M234.89 651.95L435.43 651.95L435.43 651.95L435.43 594.71L435.43 594.71L234.89 594.71z" /></clipPath><clipPath id="222"><path d="M436.04 651.96L510.695 651.96L510.695 651.96L510.695 594.72L510.695 594.72L436.04 594.72z" /></clipPath><clipPath id="223"><path d="M436.03 651.95L510.694 651.95L510.694 651.95L510.694 594.71L510.694 594.71L436.03 594.71z" /></clipPath><clipPath id="224"><path d="M436.03 651.95L510.694 651.95L510.694 651.95L510.694 594.71L510.694 594.71L436.03 594.71z" /></clipPath><clipPath id="225"><path d="M436.03 651.95L510.694 651.95L510.694 651.95L510.694 594.71L510.694 594.71L436.03 594.71z" /></clipPath><clipPath id="226"><path d="M84.751 747.611L165.031 747.611L165.031 747.611L165.031 652.436L165.031 652.436L84.751 652.436z" /></clipPath><clipPath id="227"><path d="M84.744 747.616L165.024 747.616L165.024 747.616L165.024 652.432L165.024 652.432L84.744 652.432z" /></clipPath><clipPath id="228"><path d="M84.744 747.616L165.024 747.616L165.024 747.616L165.024 652.432L165.024 652.432L84.744 652.432z" /></clipPath><clipPath id="229"><path d="M84.744 747.616L165.024 747.616L165.024 747.616L165.024 652.432L165.024 652.432L84.744 652.432z" /></clipPath><clipPath id="230"><path d="M165.51 747.611L234.405 747.611L234.405 747.611L234.405 652.436L234.405 652.436L165.51 652.436z" /></clipPath><clipPath id="231"><path d="M165.5 747.616L234.404 747.616L234.404 747.616L234.404 652.432L234.404 652.432L165.5 652.432z" /></clipPath><clipPath id="232"><path d="M165.5 747.616L234.404 747.616L234.404 747.616L234.404 652.432L234.404 652.432L165.5 652.432z" /></clipPath><clipPath id="233"><path d="M165.5 747.616L234.404 747.616L234.404 747.616L234.404 652.432L234.404 652.432L165.5 652.432z" /></clipPath><clipPath id="234"><path d="M234.89 747.611L435.44 747.611L435.44 747.611L435.44 652.436L435.44 652.436L234.89 652.436z" /></clipPath><clipPath id="235"><path d="M234.89 747.616L435.43 747.616L435.43 747.616L435.43 652.432L435.43 652.432L234.89 652.432z" /></clipPath><clipPath id="236"><path d="M234.89 747.616L435.43 747.616L435.43 747.616L435.43 652.432L435.43 652.432L234.89 652.432z" /></clipPath><clipPath id="237"><path d="M234.89 747.616L435.43 747.616L435.43 747.616L435.43 652.432L435.43 652.432L234.89 652.432z" /></clipPath><clipPath id="238"><path d="M234.89 747.616L435.43 747.616L435.43 747.616L435.43 652.432L435.43 652.432L234.89 652.432z" /></clipPath><clipPath id="239"><path d="M234.89 747.616L435.43 747.616L435.43 747.616L435.43 652.432L435.43 652.432L234.89 652.432z" /></clipPath><clipPath id="240"><path d="M234.89 747.616L435.43 747.616L435.43 747.616L435.43 652.432L435.43 652.432L234.89 652.432z" /></clipPath><clipPath id="241"><path d="M234.89 747.616L435.43 747.616L435.43 747.616L435.43 652.432L435.43 652.432L234.89 652.432z" /></clipPath><clipPath id="242"><path d="M234.89 747.616L435.43 747.616L435.43 747.616L435.43 652.432L435.43 652.432L234.89 652.432z" /></clipPath><clipPath id="243"><path d="M234.89 747.616L435.43 747.616L435.43 747.616L435.43 652.432L435.43 652.432L234.89 652.432z" /></clipPath><clipPath id="244"><path d="M234.89 747.616L435.43 747.616L435.43 747.616L435.43 652.432L435.43 652.432L234.89 652.432z" /></clipPath><clipPath id="245"><path d="M234.89 747.616L435.43 747.616L435.43 747.616L435.43 652.432L435.43 652.432L234.89 652.432z" /></clipPath><clipPath id="246"><path d="M234.89 747.616L435.43 747.616L435.43 747.616L435.43 652.432L435.43 652.432L234.89 652.432z" /></clipPath><clipPath id="247"><path d="M234.89 747.616L435.43 747.616L435.43 747.616L435.43 652.432L435.43 652.432L234.89 652.432z" /></clipPath><clipPath id="248"><path d="M234.89 747.616L435.43 747.616L435.43 747.616L435.43 652.432L435.43 652.432L234.89 652.432z" /></clipPath><clipPath id="249"><path d="M234.89 747.616L435.43 747.616L435.43 747.616L435.43 652.432L435.43 652.432L234.89 652.432z" /></clipPath><clipPath id="250"><path d="M436.04 747.611L510.695 747.611L510.695 747.611L510.695 652.436L510.695 652.436L436.04 652.436z" /></clipPath><clipPath id="251"><path d="M436.03 747.616L510.694 747.616L510.694 747.616L510.694 652.432L510.694 652.432L436.03 652.432z" /></clipPath><clipPath id="252"><path d="M436.03 747.616L510.694 747.616L510.694 747.616L510.694 652.432L510.694 652.432L436.03 652.432z" /></clipPath><clipPath id="253"><path d="M436.03 747.616L510.694 747.616L510.694 747.616L510.694 652.432L510.694 652.432L436.03 652.432z" /></clipPath></defs><g transform="matrix(1.333333 0 0 1.333333 0 0)"><g><g clip-path="url(#1)"><path transform="matrix(1 0 0 -1 0 841)" d="M457.63 53.424L505.534 53.424L505.534 53.424L505.534 54.02404L505.534 54.02404L457.63 54.02404z" stroke="none" fill="#000000" fill-rule="evenodd" /><g clip-path="url(#2)"><path transform="matrix(1 0 0 -1 0 841)" d="M88.464 78.984L506.974 78.984L506.974 78.984L506.974 81.984L506.974 81.984L88.464 81.984z" stroke="none" fill="#000000" fill-rule="evenodd" /><path transform="matrix(1 0 0 -1 0 841)" d="M88.464 77.544L506.974 77.544L506.974 77.544L506.974 78.26397L506.974 78.26397L88.464 78.26397z" stroke="none" fill="#000000" fill-rule="evenodd" /></g><g clip-path="url(#3)"><g clip-path="url(#4)"></g><g clip-path="url(#5)"></g></g><path transform="matrix(1 0 0 -1 0 841)" d="M84.744 723.94L165.024 723.94L165.024 723.94L165.024 751.564L165.024 751.564L84.744 751.564z" stroke="none" fill="#0070C0" fill-rule="evenodd" /><g clip-path="url(#6)"><path transform="matrix(1 0 0 -1 0 841)" d="M89.904 723.94L159.864 723.94L159.864 723.94L159.864 751.564L159.864 751.564L89.904 751.564z" stroke="none" fill="#0070C0" fill-rule="evenodd" /><g clip-path="url(#7)"></g><g clip-path="url(#8)"></g></g><path transform="matrix(1 0 0 -1 0 841)" d="M165.5 723.94L234.404 723.94L234.404 723.94L234.404 751.564L234.404 751.564L165.5 751.564z" stroke="none" fill="#0070C0" fill-rule="evenodd" /><g clip-path="url(#9)"><path transform="matrix(1 0 0 -1 0 841)" d="M170.66 723.94L229.244 723.94L229.244 723.94L229.244 751.564L229.244 751.564L170.66 751.564z" stroke="none" fill="#0070C0" fill-rule="evenodd" /><g clip-path="url(#10)"></g><g clip-path="url(#11)"></g></g><path transform="matrix(1 0 0 -1 0 841)" d="M234.89 723.94L435.43 723.94L435.43 723.94L435.43 751.564L435.43 751.564L234.89 751.564z" stroke="none" fill="#0070C0" fill-rule="evenodd" /><g clip-path="url(#12)"><path transform="matrix(1 0 0 -1 0 841)" d="M240.05 723.94L430.27 723.94L430.27 723.94L430.27 751.564L430.27 751.564L240.05 751.564z" stroke="none" fill="#0070C0" fill-rule="evenodd" /><g clip-path="url(#13)"></g><g clip-path="url(#14)"></g></g><path transform="matrix(1 0 0 -1 0 841)" d="M436.03 723.94L510.694 723.94L510.694 723.94L510.694 751.564L510.694 751.564L436.03 751.564z" stroke="none" fill="#0070C0" fill-rule="evenodd" /><g clip-path="url(#15)"><path transform="matrix(1 0 0 -1 0 841)" d="M441.07 723.94L505.534 723.94L505.534 723.94L505.534 751.564L505.534 751.564L441.07 751.564z" stroke="none" fill="#0070C0" fill-rule="evenodd" /><g clip-path="url(#16)"></g><g clip-path="url(#17)"></g><g clip-path="url(#18)"></g></g><path transform="matrix(1 0 0 -1 0 841)" d="M84.264 751.56L84.744 751.56L84.744 751.56L84.744 752.04L84.744 752.04L84.264 752.04z" stroke="none" fill="#000000" fill-rule="evenodd" /><path transform="matrix(1 0 0 -1 0 841)" d="M84.264 751.56L84.744 751.56L84.744 751.56L84.744 752.04L84.744 752.04L84.264 752.04z" stroke="none" fill="#000000" fill-rule="evenodd" /><path transform="matrix(1 0 0 -1 0 841)" d="M84.744 751.56L165.024 751.56L165.024 751.56L165.024 752.04L165.024 752.04L84.744 752.04z" stroke="none" fill="#000000" fill-rule="evenodd" /><path transform="matrix(1 0 0 -1 0 841)" d="M165.02 751.56L165.5 751.56L165.5 751.56L165.5 752.04L165.5 752.04L165.02 752.04z" stroke="none" fill="#000000" fill-rule="evenodd" /><path transform="matrix(1 0 0 -1 0 841)" d="M165.5 751.56L234.404 751.56L234.404 751.56L234.404 752.04L234.404 752.04L165.5 752.04z" stroke="none" fill="#000000" fill-rule="evenodd" /><path transform="matrix(1 0 0 -1 0 841)" d="M234.41 751.56L234.89 751.56L234.89 751.56L234.89 752.04L234.89 752.04L234.41 752.04z" stroke="none" fill="#000000" fill-rule="evenodd" /><path transform="matrix(1 0 0 -1 0 841)" d="M234.89 751.56L435.55 751.56L435.55 751.56L435.55 752.04L435.55 752.04L234.89 752.04z" stroke="none" fill="#000000" fill-rule="evenodd" /><path transform="matrix(1 0 0 -1 0 841)" d="M435.55 751.56L436.03 751.56L436.03 751.56L436.03 752.04L436.03 752.04L435.55 752.04z" stroke="none" fill="#000000" fill-rule="evenodd" /><path transform="matrix(1 0 0 -1 0 841)" d="M436.03 751.56L510.694 751.56L510.694 751.56L510.694 752.04L510.694 752.04L436.03 752.04z" stroke="none" fill="#000000" fill-rule="evenodd" /><path transform="matrix(1 0 0 -1 0 841)" d="M510.7 751.56L511.18 751.56L511.18 751.56L511.18 752.04L511.18 752.04L510.7 752.04z" stroke="none" fill="#000000" fill-rule="evenodd" /><path transform="matrix(1 0 0 -1 0 841)" d="M510.7 751.56L511.18 751.56L511.18 751.56L511.18 752.04L511.18 752.04L510.7 752.04z" stroke="none" fill="#000000" fill-rule="evenodd" /><path transform="matrix(1 0 0 -1 0 841)" d="M84.264 723.94L84.744 723.94L84.744 723.94L84.744 751.564L84.744 751.564L84.264 751.564z" stroke="none" fill="#000000" fill-rule="evenodd" /><path transform="matrix(1 0 0 -1 0 841)" d="M165.02 723.94L165.5 723.94L165.5 723.94L165.5 751.564L165.5 751.564L165.02 751.564z" stroke="none" fill="#000000" fill-rule="evenodd" /><path transform="matrix(1 0 0 -1 0 841)" d="M234.41 723.94L234.89 723.94L234.89 723.94L234.89 751.564L234.89 751.564L234.41 751.564z" stroke="none" fill="#000000" fill-rule="evenodd" /><path transform="matrix(1 0 0 -1 0 841)" d="M435.55 723.94L436.03 723.94L436.03 723.94L436.03 751.564L436.03 751.564L435.55 751.564z" stroke="none" fill="#000000" fill-rule="evenodd" /><path transform="matrix(1 0 0 -1 0 841)" d="M510.7 723.94L511.18 723.94L511.18 723.94L511.18 751.564L511.18 751.564L510.7 751.564z" stroke="none" fill="#000000" fill-rule="evenodd" /><g clip-path="url(#19)"><g clip-path="url(#20)"></g><g clip-path="url(#21)"></g><g clip-path="url(#22)"></g><g clip-path="url(#23)"></g><g clip-path="url(#24)"></g><g clip-path="url(#25)"></g></g><path transform="matrix(1 0 0 -1 0 841)" d="M84.264 723.46L84.744 723.46L84.744 723.46L84.744 723.94L84.744 723.94L84.264 723.94z" stroke="none" fill="#000000" fill-rule="evenodd" /><path transform="matrix(1 0 0 -1 0 841)" d="M84.744 723.46L165.024 723.46L165.024 723.46L165.024 723.94L165.024 723.94L84.744 723.94z" stroke="none" fill="#000000" fill-rule="evenodd" /><path transform="matrix(1 0 0 -1 0 841)" d="M165.02 723.46L165.5 723.46L165.5 723.46L165.5 723.94L165.5 723.94L165.02 723.94z" stroke="none" fill="#000000" fill-rule="evenodd" /><path transform="matrix(1 0 0 -1 0 841)" d="M165.5 723.46L234.404 723.46L234.404 723.46L234.404 723.94L234.404 723.94L165.5 723.94z" stroke="none" fill="#000000" fill-rule="evenodd" /><path transform="matrix(1 0 0 -1 0 841)" d="M234.41 723.46L234.89 723.46L234.89 723.46L234.89 723.94L234.89 723.94L234.41 723.94z" stroke="none" fill="#000000" fill-rule="evenodd" /><path transform="matrix(1 0 0 -1 0 841)" d="M234.89 723.46L435.55 723.46L435.55 723.46L435.55 723.94L435.55 723.94L234.89 723.94z" stroke="none" fill="#000000" fill-rule="evenodd" /><path transform="matrix(1 0 0 -1 0 841)" d="M435.55 723.46L436.03 723.46L436.03 723.46L436.03 723.94L436.03 723.94L435.55 723.94z" stroke="none" fill="#000000" fill-rule="evenodd" /><path transform="matrix(1 0 0 -1 0 841)" d="M436.03 723.46L510.694 723.46L510.694 723.46L510.694 723.94L510.694 723.94L436.03 723.94z" stroke="none" fill="#000000" fill-rule="evenodd" /><path transform="matrix(1 0 0 -1 0 841)" d="M510.7 723.46L511.18 723.46L511.18 723.46L511.18 723.94L511.18 723.94L510.7 723.94z" stroke="none" fill="#000000" fill-rule="evenodd" /><path transform="matrix(1 0 0 -1 0 841)" d="M84.264 690.1L84.744 690.1L84.744 690.1L84.744 723.46L84.744 723.46L84.264 723.46z" stroke="none" fill="#000000" fill-rule="evenodd" /><path transform="matrix(1 0 0 -1 0 841)" d="M165.02 690.1L165.5 690.1L165.5 690.1L165.5 723.46L165.5 723.46L165.02 723.46z" stroke="none" fill="#000000" fill-rule="evenodd" /><path transform="matrix(1 0 0 -1 0 841)" d="M234.41 690.1L234.89 690.1L234.89 690.1L234.89 723.46L234.89 723.46L234.41 723.46z" stroke="none" fill="#000000" fill-rule="evenodd" /><path transform="matrix(1 0 0 -1 0 841)" d="M435.55 690.1L436.03 690.1L436.03 690.1L436.03 723.46L436.03 723.46L435.55 723.46z" stroke="none" fill="#000000" fill-rule="evenodd" /><path transform="matrix(1 0 0 -1 0 841)" d="M510.7 690.1L511.18 690.1L511.18 690.1L511.18 723.46L511.18 723.46L510.7 723.46z" stroke="none" fill="#000000" fill-rule="evenodd" /><path transform="matrix(1 0 0 -1 0 841)" d="M84.744 645.82L165.024 645.82L165.024 645.82L165.024 689.5L165.024 689.5L84.744 689.5z" stroke="none" fill="#DAEEF3" fill-rule="evenodd" /><g clip-path="url(#26)"><path transform="matrix(1 0 0 -1 0 841)" d="M89.904 667.66L159.864 667.66L159.864 667.66L159.864 689.5L159.864 689.5L89.904 689.5z" stroke="none" fill="#DAEEF3" fill-rule="evenodd" /><g clip-path="url(#27)"></g><g clip-path="url(#28)"></g><g clip-path="url(#29)"></g><g clip-path="url(#30)"></g><g clip-path="url(#31)"></g><path transform="matrix(1 0 0 -1 0 841)" d="M89.904 645.82L159.864 645.82L159.864 645.82L159.864 667.66L159.864 667.66L89.904 667.66z" stroke="none" fill="#DAEEF3" fill-rule="evenodd" /><g clip-path="url(#32)"></g><g clip-path="url(#33)"></g><g clip-path="url(#34)"></g></g><path transform="matrix(1 0 0 -1 0 841)" d="M165.5 645.82L234.404 645.82L234.404 645.82L234.404 689.5L234.404 689.5L165.5 689.5z" stroke="none" fill="#DAEEF3" fill-rule="evenodd" /><g clip-path="url(#35)"><path transform="matrix(1 0 0 -1 0 841)" d="M170.66 662.98L229.244 662.98L229.244 662.98L229.244 689.5L229.244 689.5L170.66 689.5z" stroke="none" fill="#DAEEF3" fill-rule="evenodd" /><g clip-path="url(#36)"></g><g clip-path="url(#37)"></g><g clip-path="url(#38)"></g></g><path transform="matrix(1 0 0 -1 0 841)" d="M234.89 645.82L435.43 645.82L435.43 645.82L435.43 689.5L435.43 689.5L234.89 689.5z" stroke="none" fill="#DAEEF3" fill-rule="evenodd" /><g clip-path="url(#39)"><path transform="matrix(1 0 0 -1 0 841)" d="M240.05 671.38L430.27 671.38L430.27 671.38L430.27 689.5L430.27 689.5L240.05 689.5z" stroke="none" fill="#DAEEF3" fill-rule="evenodd" /><g clip-path="url(#40)"></g><g clip-path="url(#41)"></g><path transform="matrix(1 0 0 -1 0 841)" d="M240.05 653.26L430.27 653.26L430.27 653.26L430.27 671.38L430.27 671.38L240.05 671.38z" stroke="none" fill="#DAEEF3" fill-rule="evenodd" /><g clip-path="url(#42)"></g><g clip-path="url(#43)"></g><g clip-path="url(#44)"></g><g clip-path="url(#45)"></g></g><path transform="matrix(1 0 0 -1 0 841)" d="M436.03 645.82L510.694 645.82L510.694 645.82L510.694 689.5L510.694 689.5L436.03 689.5z" stroke="none" fill="#DAEEF3" fill-rule="evenodd" /><g clip-path="url(#46)"><path transform="matrix(1 0 0 -1 0 841)" d="M441.07 662.98L505.534 662.98L505.534 662.98L505.534 689.5L505.534 689.5L441.07 689.5z" stroke="none" fill="#DAEEF3" fill-rule="evenodd" /><g clip-path="url(#47)"></g><g clip-path="url(#48)"></g><g clip-path="url(#49)"></g></g><path transform="matrix(1 0 0 -1 0 841)" d="M84.264 689.62L84.744 689.62L84.744 689.62L84.744 690.1L84.744 690.1L84.264 690.1z" stroke="none" fill="#000000" fill-rule="evenodd" /><path transform="matrix(1 0 0 -1 0 841)" d="M84.744 689.62L165.024 689.62L165.024 689.62L165.024 690.1L165.024 690.1L84.744 690.1z" stroke="none" fill="#000000" fill-rule="evenodd" /><path transform="matrix(1 0 0 -1 0 841)" d="M165.02 689.62L165.5 689.62L165.5 689.62L165.5 690.1L165.5 690.1L165.02 690.1z" stroke="none" fill="#000000" fill-rule="evenodd" /><path transform="matrix(1 0 0 -1 0 841)" d="M165.5 689.62L234.404 689.62L234.404 689.62L234.404 690.1L234.404 690.1L165.5 690.1z" stroke="none" fill="#000000" fill-rule="evenodd" /><path transform="matrix(1 0 0 -1 0 841)" d="M234.41 689.62L234.89 689.62L234.89 689.62L234.89 690.1L234.89 690.1L234.41 690.1z" stroke="none" fill="#000000" fill-rule="evenodd" /><path transform="matrix(1 0 0 -1 0 841)" d="M234.89 689.62L435.55 689.62L435.55 689.62L435.55 690.1L435.55 690.1L234.89 690.1z" stroke="none" fill="#000000" fill-rule="evenodd" /><path transform="matrix(1 0 0 -1 0 841)" d="M435.55 689.62L436.03 689.62L436.03 689.62L436.03 690.1L436.03 690.1L435.55 690.1z" stroke="none" fill="#000000" fill-rule="evenodd" /><path transform="matrix(1 0 0 -1 0 841)" d="M436.03 689.62L510.694 689.62L510.694 689.62L510.694 690.1L510.694 690.1L436.03 690.1z" stroke="none" fill="#000000" fill-rule="evenodd" /><path transform="matrix(1 0 0 -1 0 841)" d="M510.7 689.62L511.18 689.62L511.18 689.62L511.18 690.1L511.18 690.1L510.7 690.1z" stroke="none" fill="#000000" fill-rule="evenodd" /><path transform="matrix(1 0 0 -1 0 841)" d="M84.264 645.82L84.744 645.82L84.744 645.82L84.744 689.62L84.744 689.62L84.264 689.62z" stroke="none" fill="#000000" fill-rule="evenodd" /><path transform="matrix(1 0 0 -1 0 841)" d="M165.02 645.82L165.5 645.82L165.5 645.82L165.5 689.62L165.5 689.62L165.02 689.62z" stroke="none" fill="#000000" fill-rule="evenodd" /><path transform="matrix(1 0 0 -1 0 841)" d="M234.41 645.82L234.89 645.82L234.89 645.82L234.89 689.62L234.89 689.62L234.41 689.62z" stroke="none" fill="#000000" fill-rule="evenodd" /><path transform="matrix(1 0 0 -1 0 841)" d="M435.55 645.82L436.03 645.82L436.03 645.82L436.03 689.62L436.03 689.62L435.55 689.62z" stroke="none" fill="#000000" fill-rule="evenodd" /><path transform="matrix(1 0 0 -1 0 841)" d="M510.7 645.82L511.18 645.82L511.18 645.82L511.18 689.62L511.18 689.62L510.7 689.62z" stroke="none" fill="#000000" fill-rule="evenodd" /><g clip-path="url(#50)"><g clip-path="url(#51)"></g><g clip-path="url(#52)"></g><g clip-path="url(#53)"></g><g clip-path="url(#54)"></g><g clip-path="url(#55)"></g><g clip-path="url(#56)"></g><g clip-path="url(#57)"></g><g clip-path="url(#58)"></g></g><g clip-path="url(#59)"><g clip-path="url(#60)"></g><g clip-path="url(#61)"></g><g clip-path="url(#62)"></g></g><g clip-path="url(#63)"><g clip-path="url(#64)"></g><g clip-path="url(#65)"></g><g clip-path="url(#66)"></g><g clip-path="url(#67)"></g><g clip-path="url(#68)"></g><g clip-path="url(#69)"></g><g clip-path="url(#70)"></g><g clip-path="url(#71)"></g><g clip-path="url(#72)"></g><g clip-path="url(#73)"></g><g clip-path="url(#74)"></g><g clip-path="url(#75)"></g><g clip-path="url(#76)"></g><g clip-path="url(#77)"></g><g clip-path="url(#78)"></g><g clip-path="url(#79)"></g><g clip-path="url(#80)"></g><g clip-path="url(#81)"></g></g><g clip-path="url(#82)"><g clip-path="url(#83)"></g><g clip-path="url(#84)"></g><g clip-path="url(#85)"></g></g><path transform="matrix(1 0 0 -1 0 841)" d="M84.264 645.34L84.744 645.34L84.744 645.34L84.744 645.82L84.744 645.82L84.264 645.82z" stroke="none" fill="#000000" fill-rule="evenodd" /><path transform="matrix(1 0 0 -1 0 841)" d="M84.744 645.34L165.024 645.34L165.024 645.34L165.024 645.82L165.024 645.82L84.744 645.82z" stroke="none" fill="#000000" fill-rule="evenodd" /><path transform="matrix(1 0 0 -1 0 841)" d="M165.02 645.34L165.5 645.34L165.5 645.34L165.5 645.82L165.5 645.82L165.02 645.82z" stroke="none" fill="#000000" fill-rule="evenodd" /><path transform="matrix(1 0 0 -1 0 841)" d="M165.5 645.34L234.404 645.34L234.404 645.34L234.404 645.82L234.404 645.82L165.5 645.82z" stroke="none" fill="#000000" fill-rule="evenodd" /><path transform="matrix(1 0 0 -1 0 841)" d="M234.41 645.34L234.89 645.34L234.89 645.34L234.89 645.82L234.89 645.82L234.41 645.82z" stroke="none" fill="#000000" fill-rule="evenodd" /><path transform="matrix(1 0 0 -1 0 841)" d="M234.89 645.34L435.55 645.34L435.55 645.34L435.55 645.82L435.55 645.82L234.89 645.82z" stroke="none" fill="#000000" fill-rule="evenodd" /><path transform="matrix(1 0 0 -1 0 841)" d="M435.55 645.34L436.03 645.34L436.03 645.34L436.03 645.82L436.03 645.82L435.55 645.82z" stroke="none" fill="#000000" fill-rule="evenodd" /><path transform="matrix(1 0 0 -1 0 841)" d="M436.03 645.34L510.694 645.34L510.694 645.34L510.694 645.82L510.694 645.82L436.03 645.82z" stroke="none" fill="#000000" fill-rule="evenodd" /><path transform="matrix(1 0 0 -1 0 841)" d="M510.7 645.34L511.18 645.34L511.18 645.34L511.18 645.82L511.18 645.82L510.7 645.82z" stroke="none" fill="#000000" fill-rule="evenodd" /><path transform="matrix(1 0 0 -1 0 841)" d="M84.264 538.51L84.744 538.51L84.744 538.51L84.744 645.33L84.744 645.33L84.264 645.33z" stroke="none" fill="#000000" fill-rule="evenodd" /><path transform="matrix(1 0 0 -1 0 841)" d="M165.02 538.51L165.5 538.51L165.5 538.51L165.5 645.33L165.5 645.33L165.02 645.33z" stroke="none" fill="#000000" fill-rule="evenodd" /><path transform="matrix(1 0 0 -1 0 841)" d="M234.41 538.51L234.89 538.51L234.89 538.51L234.89 645.33L234.89 645.33L234.41 645.33z" stroke="none" fill="#000000" fill-rule="evenodd" /><path transform="matrix(1 0 0 -1 0 841)" d="M435.55 538.51L436.03 538.51L436.03 538.51L436.03 645.33L436.03 645.33L435.55 645.33z" stroke="none" fill="#000000" fill-rule="evenodd" /><path transform="matrix(1 0 0 -1 0 841)" d="M510.7 538.51L511.18 538.51L511.18 538.51L511.18 645.33L511.18 645.33L510.7 645.33z" stroke="none" fill="#000000" fill-rule="evenodd" /><path transform="matrix(1 0 0 -1 0 841)" d="M84.744 392.83L165.024 392.83L165.024 392.83L165.024 538.03L165.024 538.03L84.744 538.03z" stroke="none" fill="#DAEEF3" fill-rule="evenodd" /><g clip-path="url(#86)"><path transform="matrix(1 0 0 -1 0 841)" d="M89.904 516.19L159.864 516.19L159.864 516.19L159.864 538.03L159.864 538.03L89.904 538.03z" stroke="none" fill="#DAEEF3" fill-rule="evenodd" /><g clip-path="url(#87)"></g><g clip-path="url(#88)"></g><g clip-path="url(#89)"></g><g clip-path="url(#90)"></g><g clip-path="url(#91)"></g><g clip-path="url(#92)"></g><path transform="matrix(1 0 0 -1 0 841)" d="M89.904 494.35L159.864 494.35L159.864 494.35L159.864 516.19L159.864 516.19L89.904 516.19z" stroke="none" fill="#DAEEF3" fill-rule="evenodd" /><g clip-path="url(#93)"></g><g clip-path="url(#94)"></g><g clip-path="url(#95)"></g></g><path transform="matrix(1 0 0 -1 0 841)" d="M165.5 392.83L234.404 392.83L234.404 392.83L234.404 538.03L234.404 538.03L165.5 538.03z" stroke="none" fill="#DAEEF3" fill-rule="evenodd" /><g clip-path="url(#96)"><path transform="matrix(1 0 0 -1 0 841)" d="M170.66 511.39L229.244 511.39L229.244 511.39L229.244 538.03L229.244 538.03L170.66 538.03z" stroke="none" fill="#DAEEF3" fill-rule="evenodd" /><g clip-path="url(#97)"></g><g clip-path="url(#98)"></g><g clip-path="url(#99)"></g></g><path transform="matrix(1 0 0 -1 0 841)" d="M234.89 392.83L435.43 392.83L435.43 392.83L435.43 538.03L435.43 538.03L234.89 538.03z" stroke="none" fill="#DAEEF3" fill-rule="evenodd" /><g clip-path="url(#100)"><path transform="matrix(1 0 0 -1 0 841)" d="M240.05 519.91L430.27 519.91L430.27 519.91L430.27 538.03L430.27 538.03L240.05 538.03z" stroke="none" fill="#DAEEF3" fill-rule="evenodd" /><g clip-path="url(#101)"></g><g clip-path="url(#102)"></g><path transform="matrix(1 0 0 -1 0 841)" d="M240.05 501.67L430.27 501.67L430.27 501.67L430.27 519.91L430.27 519.91L240.05 519.91z" stroke="none" fill="#DAEEF3" fill-rule="evenodd" /><g clip-path="url(#103)"></g><g clip-path="url(#104)"></g><g clip-path="url(#105)"></g><path transform="matrix(1 0 0 -1 0 841)" d="M240.05 483.55L430.27 483.55L430.27 483.55L430.27 501.67L430.27 501.67L240.05 501.67z" stroke="none" fill="#DAEEF3" fill-rule="evenodd" /><g clip-path="url(#106)"></g><g clip-path="url(#107)"></g><path transform="matrix(1 0 0 -1 0 841)" d="M240.05 465.43L430.27 465.43L430.27 465.43L430.27 483.55L430.27 483.55L240.05 483.55z" stroke="none" fill="#DAEEF3" fill-rule="evenodd" /><g clip-path="url(#108)"></g><g clip-path="url(#109)"></g><g clip-path="url(#110)"></g><g clip-path="url(#111)"></g><path transform="matrix(1 0 0 -1 0 841)" d="M240.05 447.19L430.27 447.19L430.27 447.19L430.27 465.43L430.27 465.43L240.05 465.43z" stroke="none" fill="#DAEEF3" fill-rule="evenodd" /><g clip-path="url(#112)"></g><g clip-path="url(#113)"></g><g clip-path="url(#114)"></g><g clip-path="url(#115)"></g><path transform="matrix(1 0 0 -1 0 841)" d="M240.05 429.07L430.27 429.07L430.27 429.07L430.27 447.19L430.27 447.19L240.05 447.19z" stroke="none" fill="#DAEEF3" fill-rule="evenodd" /><g clip-path="url(#116)"></g><g clip-path="url(#117)"></g><g clip-path="url(#118)"></g><path transform="matrix(1 0 0 -1 0 841)" d="M240.05 410.95L430.27 410.95L430.27 410.95L430.27 429.07L430.27 429.07L240.05 429.07z" stroke="none" fill="#DAEEF3" fill-rule="evenodd" /><g clip-path="url(#119)"></g><g clip-path="url(#120)"></g><g clip-path="url(#121)"></g><g clip-path="url(#122)"></g><g clip-path="url(#123)"></g><path transform="matrix(1 0 0 -1 0 841)" d="M240.05 392.83L430.27 392.83L430.27 392.83L430.27 410.95L430.27 410.95L240.05 410.95z" stroke="none" fill="#DAEEF3" fill-rule="evenodd" /><g clip-path="url(#124)"></g><g clip-path="url(#125)"></g><g clip-path="url(#126)"></g></g><path transform="matrix(1 0 0 -1 0 841)" d="M436.03 392.83L510.694 392.83L510.694 392.83L510.694 538.03L510.694 538.03L436.03 538.03z" stroke="none" fill="#DAEEF3" fill-rule="evenodd" /><g clip-path="url(#127)"><path transform="matrix(1 0 0 -1 0 841)" d="M441.07 511.39L505.534 511.39L505.534 511.39L505.534 538.03L505.534 538.03L441.07 538.03z" stroke="none" fill="#DAEEF3" fill-rule="evenodd" /><g clip-path="url(#128)"></g><g clip-path="url(#129)"></g><g clip-path="url(#130)"></g></g><path transform="matrix(1 0 0 -1 0 841)" d="M84.264 538.03L84.744 538.03L84.744 538.03L84.744 538.51L84.744 538.51L84.264 538.51z" stroke="none" fill="#000000" fill-rule="evenodd" /><path transform="matrix(1 0 0 -1 0 841)" d="M84.744 538.03L165.024 538.03L165.024 538.03L165.024 538.51L165.024 538.51L84.744 538.51z" stroke="none" fill="#000000" fill-rule="evenodd" /><path transform="matrix(1 0 0 -1 0 841)" d="M165.02 538.03L165.5 538.03L165.5 538.03L165.5 538.51L165.5 538.51L165.02 538.51z" stroke="none" fill="#000000" fill-rule="evenodd" /><path transform="matrix(1 0 0 -1 0 841)" d="M165.5 538.03L234.404 538.03L234.404 538.03L234.404 538.51L234.404 538.51L165.5 538.51z" stroke="none" fill="#000000" fill-rule="evenodd" /><path transform="matrix(1 0 0 -1 0 841)" d="M234.41 538.03L234.89 538.03L234.89 538.03L234.89 538.51L234.89 538.51L234.41 538.51z" stroke="none" fill="#000000" fill-rule="evenodd" /><path transform="matrix(1 0 0 -1 0 841)" d="M234.89 538.03L435.55 538.03L435.55 538.03L435.55 538.51L435.55 538.51L234.89 538.51z" stroke="none" fill="#000000" fill-rule="evenodd" /><path transform="matrix(1 0 0 -1 0 841)" d="M435.55 538.03L436.03 538.03L436.03 538.03L436.03 538.51L436.03 538.51L435.55 538.51z" stroke="none" fill="#000000" fill-rule="evenodd" /><path transform="matrix(1 0 0 -1 0 841)" d="M436.03 538.03L510.694 538.03L510.694 538.03L510.694 538.51L510.694 538.51L436.03 538.51z" stroke="none" fill="#000000" fill-rule="evenodd" /><path transform="matrix(1 0 0 -1 0 841)" d="M510.7 538.03L511.18 538.03L511.18 538.03L511.18 538.51L511.18 538.51L510.7 538.51z" stroke="none" fill="#000000" fill-rule="evenodd" /><path transform="matrix(1 0 0 -1 0 841)" d="M84.264 392.83L84.744 392.83L84.744 392.83L84.744 538.03L84.744 538.03L84.264 538.03z" stroke="none" fill="#000000" fill-rule="evenodd" /><path transform="matrix(1 0 0 -1 0 841)" d="M165.02 392.83L165.5 392.83L165.5 392.83L165.5 538.03L165.5 538.03L165.02 538.03z" stroke="none" fill="#000000" fill-rule="evenodd" /><path transform="matrix(1 0 0 -1 0 841)" d="M234.41 392.83L234.89 392.83L234.89 392.83L234.89 538.03L234.89 538.03L234.41 538.03z" stroke="none" fill="#000000" fill-rule="evenodd" /><path transform="matrix(1 0 0 -1 0 841)" d="M435.55 392.83L436.03 392.83L436.03 392.83L436.03 538.03L436.03 538.03L435.55 538.03z" stroke="none" fill="#000000" fill-rule="evenodd" /><path transform="matrix(1 0 0 -1 0 841)" d="M510.7 392.83L511.18 392.83L511.18 392.83L511.18 538.03L511.18 538.03L510.7 538.03z" stroke="none" fill="#000000" fill-rule="evenodd" /><g clip-path="url(#131)"><g clip-path="url(#132)"></g><g clip-path="url(#133)"></g><g clip-path="url(#134)"></g><g clip-path="url(#135)"></g></g><g clip-path="url(#136)"><g clip-path="url(#137)"></g><g clip-path="url(#138)"></g><g clip-path="url(#139)"></g></g><g clip-path="url(#140)"><g clip-path="url(#141)"></g><g clip-path="url(#142)"></g><g clip-path="url(#143)"></g><g clip-path="url(#144)"></g><g clip-path="url(#145)"></g><g clip-path="url(#146)"></g><g clip-path="url(#147)"></g><g clip-path="url(#148)"></g><g clip-path="url(#149)"></g></g><g clip-path="url(#150)"><g clip-path="url(#151)"></g><g clip-path="url(#152)"></g><g clip-path="url(#153)"></g></g><path transform="matrix(1 0 0 -1 0 841)" d="M84.264 392.35L84.744 392.35L84.744 392.35L84.744 392.83L84.744 392.83L84.264 392.83z" stroke="none" fill="#000000" fill-rule="evenodd" /><path transform="matrix(1 0 0 -1 0 841)" d="M84.744 392.35L165.024 392.35L165.024 392.35L165.024 392.83L165.024 392.83L84.744 392.83z" stroke="none" fill="#000000" fill-rule="evenodd" /><path transform="matrix(1 0 0 -1 0 841)" d="M165.02 392.35L165.5 392.35L165.5 392.35L165.5 392.83L165.5 392.83L165.02 392.83z" stroke="none" fill="#000000" fill-rule="evenodd" /><path transform="matrix(1 0 0 -1 0 841)" d="M165.5 392.35L234.404 392.35L234.404 392.35L234.404 392.83L234.404 392.83L165.5 392.83z" stroke="none" fill="#000000" fill-rule="evenodd" /><path transform="matrix(1 0 0 -1 0 841)" d="M234.41 392.35L234.89 392.35L234.89 392.35L234.89 392.83L234.89 392.83L234.41 392.83z" stroke="none" fill="#000000" fill-rule="evenodd" /><path transform="matrix(1 0 0 -1 0 841)" d="M234.89 392.35L435.55 392.35L435.55 392.35L435.55 392.83L435.55 392.83L234.89 392.83z" stroke="none" fill="#000000" fill-rule="evenodd" /><path transform="matrix(1 0 0 -1 0 841)" d="M435.55 392.35L436.03 392.35L436.03 392.35L436.03 392.83L436.03 392.83L435.55 392.83z" stroke="none" fill="#000000" fill-rule="evenodd" /><path transform="matrix(1 0 0 -1 0 841)" d="M436.03 392.35L510.694 392.35L510.694 392.35L510.694 392.83L510.694 392.83L436.03 392.83z" stroke="none" fill="#000000" fill-rule="evenodd" /><path transform="matrix(1 0 0 -1 0 841)" d="M510.7 392.35L511.18 392.35L511.18 392.35L511.18 392.83L511.18 392.83L510.7 392.83z" stroke="none" fill="#000000" fill-rule="evenodd" /><path transform="matrix(1 0 0 -1 0 841)" d="M84.264 348.53L84.744 348.53L84.744 348.53L84.744 392.354L84.744 392.354L84.264 392.354z" stroke="none" fill="#000000" fill-rule="evenodd" /><path transform="matrix(1 0 0 -1 0 841)" d="M165.02 348.53L165.5 348.53L165.5 348.53L165.5 392.354L165.5 392.354L165.02 392.354z" stroke="none" fill="#000000" fill-rule="evenodd" /><path transform="matrix(1 0 0 -1 0 841)" d="M234.41 348.53L234.89 348.53L234.89 348.53L234.89 392.354L234.89 392.354L234.41 392.354z" stroke="none" fill="#000000" fill-rule="evenodd" /><path transform="matrix(1 0 0 -1 0 841)" d="M435.55 348.53L436.03 348.53L436.03 348.53L436.03 392.354L436.03 392.354L435.55 392.354z" stroke="none" fill="#000000" fill-rule="evenodd" /><path transform="matrix(1 0 0 -1 0 841)" d="M510.7 348.53L511.18 348.53L511.18 348.53L511.18 392.354L511.18 392.354L510.7 392.354z" stroke="none" fill="#000000" fill-rule="evenodd" /><path transform="matrix(1 0 0 -1 0 841)" d="M84.744 304.37L165.024 304.37L165.024 304.37L165.024 348.05L165.024 348.05L84.744 348.05z" stroke="none" fill="#DAEEF3" fill-rule="evenodd" /><g clip-path="url(#154)"><path transform="matrix(1 0 0 -1 0 841)" d="M89.904 326.21L159.864 326.21L159.864 326.21L159.864 348.05L159.864 348.05L89.904 348.05z" stroke="none" fill="#DAEEF3" fill-rule="evenodd" /><g clip-path="url(#155)"></g><g clip-path="url(#156)"></g><g clip-path="url(#157)"></g><g clip-path="url(#158)"></g><g clip-path="url(#159)"></g><path transform="matrix(1 0 0 -1 0 841)" d="M89.904 304.37L159.864 304.37L159.864 304.37L159.864 326.21L159.864 326.21L89.904 326.21z" stroke="none" fill="#DAEEF3" fill-rule="evenodd" /><g clip-path="url(#160)"></g><g clip-path="url(#161)"></g></g><path transform="matrix(1 0 0 -1 0 841)" d="M165.5 304.37L234.404 304.37L234.404 304.37L234.404 348.05L234.404 348.05L165.5 348.05z" stroke="none" fill="#DAEEF3" fill-rule="evenodd" /><g clip-path="url(#162)"><path transform="matrix(1 0 0 -1 0 841)" d="M170.66 321.53L229.244 321.53L229.244 321.53L229.244 348.05L229.244 348.05L170.66 348.05z" stroke="none" fill="#DAEEF3" fill-rule="evenodd" /><g clip-path="url(#163)"></g><g clip-path="url(#164)"></g><g clip-path="url(#165)"></g></g><path transform="matrix(1 0 0 -1 0 841)" d="M234.89 304.37L435.43 304.37L435.43 304.37L435.43 348.05L435.43 348.05L234.89 348.05z" stroke="none" fill="#DAEEF3" fill-rule="evenodd" /><g clip-path="url(#166)"><path transform="matrix(1 0 0 -1 0 841)" d="M240.05 328.97L430.27 328.97L430.27 328.97L430.27 348.05L430.27 348.05L240.05 348.05z" stroke="none" fill="#DAEEF3" fill-rule="evenodd" /><g clip-path="url(#167)"></g><g clip-path="url(#168)"></g><g clip-path="url(#169)"></g><g clip-path="url(#170)"></g></g><path transform="matrix(1 0 0 -1 0 841)" d="M436.03 304.37L510.694 304.37L510.694 304.37L510.694 348.05L510.694 348.05L436.03 348.05z" stroke="none" fill="#DAEEF3" fill-rule="evenodd" /><g clip-path="url(#171)"><path transform="matrix(1 0 0 -1 0 841)" d="M441.07 321.53L505.534 321.53L505.534 321.53L505.534 348.05L505.534 348.05L441.07 348.05z" stroke="none" fill="#DAEEF3" fill-rule="evenodd" /><g clip-path="url(#172)"></g><g clip-path="url(#173)"></g><g clip-path="url(#174)"></g></g><path transform="matrix(1 0 0 -1 0 841)" d="M84.264 348.05L84.744 348.05L84.744 348.05L84.744 348.53L84.744 348.53L84.264 348.53z" stroke="none" fill="#000000" fill-rule="evenodd" /><path transform="matrix(1 0 0 -1 0 841)" d="M84.744 348.05L165.024 348.05L165.024 348.05L165.024 348.53L165.024 348.53L84.744 348.53z" stroke="none" fill="#000000" fill-rule="evenodd" /><path transform="matrix(1 0 0 -1 0 841)" d="M165.02 348.05L165.5 348.05L165.5 348.05L165.5 348.53L165.5 348.53L165.02 348.53z" stroke="none" fill="#000000" fill-rule="evenodd" /><path transform="matrix(1 0 0 -1 0 841)" d="M165.5 348.05L234.404 348.05L234.404 348.05L234.404 348.53L234.404 348.53L165.5 348.53z" stroke="none" fill="#000000" fill-rule="evenodd" /><path transform="matrix(1 0 0 -1 0 841)" d="M234.41 348.05L234.89 348.05L234.89 348.05L234.89 348.53L234.89 348.53L234.41 348.53z" stroke="none" fill="#000000" fill-rule="evenodd" /><path transform="matrix(1 0 0 -1 0 841)" d="M234.89 348.05L435.55 348.05L435.55 348.05L435.55 348.53L435.55 348.53L234.89 348.53z" stroke="none" fill="#000000" fill-rule="evenodd" /><path transform="matrix(1 0 0 -1 0 841)" d="M435.55 348.05L436.03 348.05L436.03 348.05L436.03 348.53L436.03 348.53L435.55 348.53z" stroke="none" fill="#000000" fill-rule="evenodd" /><path transform="matrix(1 0 0 -1 0 841)" d="M436.03 348.05L510.694 348.05L510.694 348.05L510.694 348.53L510.694 348.53L436.03 348.53z" stroke="none" fill="#000000" fill-rule="evenodd" /><path transform="matrix(1 0 0 -1 0 841)" d="M510.7 348.05L511.18 348.05L511.18 348.05L511.18 348.53L511.18 348.53L510.7 348.53z" stroke="none" fill="#000000" fill-rule="evenodd" /><path transform="matrix(1 0 0 -1 0 841)" d="M84.264 304.37L84.744 304.37L84.744 304.37L84.744 348.05L84.744 348.05L84.264 348.05z" stroke="none" fill="#000000" fill-rule="evenodd" /><path transform="matrix(1 0 0 -1 0 841)" d="M165.02 304.37L165.5 304.37L165.5 304.37L165.5 348.05L165.5 348.05L165.02 348.05z" stroke="none" fill="#000000" fill-rule="evenodd" /><path transform="matrix(1 0 0 -1 0 841)" d="M234.41 304.37L234.89 304.37L234.89 304.37L234.89 348.05L234.89 348.05L234.41 348.05z" stroke="none" fill="#000000" fill-rule="evenodd" /><path transform="matrix(1 0 0 -1 0 841)" d="M435.55 304.37L436.03 304.37L436.03 304.37L436.03 348.05L436.03 348.05L435.55 348.05z" stroke="none" fill="#000000" fill-rule="evenodd" /><path transform="matrix(1 0 0 -1 0 841)" d="M510.7 304.37L511.18 304.37L511.18 304.37L511.18 348.05L511.18 348.05L510.7 348.05z" stroke="none" fill="#000000" fill-rule="evenodd" /><g clip-path="url(#175)"><g clip-path="url(#176)"></g><g clip-path="url(#177)"></g><g clip-path="url(#178)"></g><g clip-path="url(#179)"></g><g clip-path="url(#180)"></g><g clip-path="url(#181)"></g></g><g clip-path="url(#182)"><g clip-path="url(#183)"></g><g clip-path="url(#184)"></g><g clip-path="url(#185)"></g></g><g clip-path="url(#186)"><g clip-path="url(#187)"></g><g clip-path="url(#188)"></g><g clip-path="url(#189)"></g><g clip-path="url(#190)"></g><g clip-path="url(#191)"></g><g clip-path="url(#192)"></g><g clip-path="url(#193)"></g><g clip-path="url(#194)"></g><g clip-path="url(#195)"></g></g><g clip-path="url(#196)"><g clip-path="url(#197)"></g><g clip-path="url(#198)"></g><g clip-path="url(#199)"></g></g><path transform="matrix(1 0 0 -1 0 841)" d="M84.264 303.89L84.744 303.89L84.744 303.89L84.744 304.37L84.744 304.37L84.264 304.37z" stroke="none" fill="#000000" fill-rule="evenodd" /><path transform="matrix(1 0 0 -1 0 841)" d="M84.744 303.89L165.024 303.89L165.024 303.89L165.024 304.37L165.024 304.37L84.744 304.37z" stroke="none" fill="#000000" fill-rule="evenodd" /><path transform="matrix(1 0 0 -1 0 841)" d="M165.02 303.89L165.5 303.89L165.5 303.89L165.5 304.37L165.5 304.37L165.02 304.37z" stroke="none" fill="#000000" fill-rule="evenodd" /><path transform="matrix(1 0 0 -1 0 841)" d="M165.5 303.89L234.404 303.89L234.404 303.89L234.404 304.37L234.404 304.37L165.5 304.37z" stroke="none" fill="#000000" fill-rule="evenodd" /><path transform="matrix(1 0 0 -1 0 841)" d="M234.41 303.89L234.89 303.89L234.89 303.89L234.89 304.37L234.89 304.37L234.41 304.37z" stroke="none" fill="#000000" fill-rule="evenodd" /><path transform="matrix(1 0 0 -1 0 841)" d="M234.89 303.89L435.55 303.89L435.55 303.89L435.55 304.37L435.55 304.37L234.89 304.37z" stroke="none" fill="#000000" fill-rule="evenodd" /><path transform="matrix(1 0 0 -1 0 841)" d="M435.55 303.89L436.03 303.89L436.03 303.89L436.03 304.37L436.03 304.37L435.55 304.37z" stroke="none" fill="#000000" fill-rule="evenodd" /><path transform="matrix(1 0 0 -1 0 841)" d="M436.03 303.89L510.694 303.89L510.694 303.89L510.694 304.37L510.694 304.37L436.03 304.37z" stroke="none" fill="#000000" fill-rule="evenodd" /><path transform="matrix(1 0 0 -1 0 841)" d="M510.7 303.89L511.18 303.89L511.18 303.89L511.18 304.37L511.18 304.37L510.7 304.37z" stroke="none" fill="#000000" fill-rule="evenodd" /><path transform="matrix(1 0 0 -1 0 841)" d="M84.264 246.77L84.744 246.77L84.744 246.77L84.744 303.89L84.744 303.89L84.264 303.89z" stroke="none" fill="#000000" fill-rule="evenodd" /><path transform="matrix(1 0 0 -1 0 841)" d="M165.02 246.77L165.5 246.77L165.5 246.77L165.5 303.89L165.5 303.89L165.02 303.89z" stroke="none" fill="#000000" fill-rule="evenodd" /><path transform="matrix(1 0 0 -1 0 841)" d="M234.41 246.77L234.89 246.77L234.89 246.77L234.89 303.89L234.89 303.89L234.41 303.89z" stroke="none" fill="#000000" fill-rule="evenodd" /><path transform="matrix(1 0 0 -1 0 841)" d="M435.55 246.77L436.03 246.77L436.03 246.77L436.03 303.89L436.03 303.89L435.55 303.89z" stroke="none" fill="#000000" fill-rule="evenodd" /><path transform="matrix(1 0 0 -1 0 841)" d="M510.7 246.77L511.18 246.77L511.18 246.77L511.18 303.89L511.18 303.89L510.7 303.89z" stroke="none" fill="#000000" fill-rule="evenodd" /><path transform="matrix(1 0 0 -1 0 841)" d="M84.744 189.05L165.024 189.05L165.024 189.05L165.024 246.29L165.024 246.29L84.744 246.29z" stroke="none" fill="#DAEEF3" fill-rule="evenodd" /><g clip-path="url(#200)"><path transform="matrix(1 0 0 -1 0 841)" d="M89.904 224.45L159.864 224.45L159.864 224.45L159.864 246.29L159.864 246.29L89.904 246.29z" stroke="none" fill="#DAEEF3" fill-rule="evenodd" /><g clip-path="url(#201)"></g><g clip-path="url(#202)"></g><g clip-path="url(#203)"></g><path transform="matrix(1 0 0 -1 0 841)" d="M89.904 202.61L159.864 202.61L159.864 202.61L159.864 224.45L159.864 224.45L89.904 224.45z" stroke="none" fill="#DAEEF3" fill-rule="evenodd" /><g clip-path="url(#204)"></g><g clip-path="url(#205)"></g></g><path transform="matrix(1 0 0 -1 0 841)" d="M165.5 189.05L234.404 189.05L234.404 189.05L234.404 246.29L234.404 246.29L165.5 246.29z" stroke="none" fill="#DAEEF3" fill-rule="evenodd" /><g clip-path="url(#206)"><path transform="matrix(1 0 0 -1 0 841)" d="M170.66 219.65L229.244 219.65L229.244 219.65L229.244 246.29L229.244 246.29L170.66 246.29z" stroke="none" fill="#DAEEF3" fill-rule="evenodd" /><g clip-path="url(#207)"></g><g clip-path="url(#208)"></g><g clip-path="url(#209)"></g></g><path transform="matrix(1 0 0 -1 0 841)" d="M234.89 189.05L435.43 189.05L435.43 189.05L435.43 246.29L435.43 246.29L234.89 246.29z" stroke="none" fill="#DAEEF3" fill-rule="evenodd" /><g clip-path="url(#210)"><path transform="matrix(1 0 0 -1 0 841)" d="M240.05 227.21L430.27 227.21L430.27 227.21L430.27 246.29L430.27 246.29L240.05 246.29z" stroke="none" fill="#DAEEF3" fill-rule="evenodd" /><g clip-path="url(#211)"></g><g clip-path="url(#212)"></g><g clip-path="url(#213)"></g><g clip-path="url(#214)"></g><path transform="matrix(1 0 0 -1 0 841)" d="M240.05 208.13L430.27 208.13L430.27 208.13L430.27 227.21L430.27 227.21L240.05 227.21z" stroke="none" fill="#DAEEF3" fill-rule="evenodd" /><g clip-path="url(#215)"></g><g clip-path="url(#216)"></g><g clip-path="url(#217)"></g><g clip-path="url(#218)"></g><g clip-path="url(#219)"></g><path transform="matrix(1 0 0 -1 0 841)" d="M240.05 189.05L430.27 189.05L430.27 189.05L430.27 208.13L430.27 208.13L240.05 208.13z" stroke="none" fill="#DAEEF3" fill-rule="evenodd" /><g clip-path="url(#220)"></g><g clip-path="url(#221)"></g></g><path transform="matrix(1 0 0 -1 0 841)" d="M436.03 189.05L510.694 189.05L510.694 189.05L510.694 246.29L510.694 246.29L436.03 246.29z" stroke="none" fill="#DAEEF3" fill-rule="evenodd" /><g clip-path="url(#222)"><path transform="matrix(1 0 0 -1 0 841)" d="M441.07 219.65L505.534 219.65L505.534 219.65L505.534 246.29L505.534 246.29L441.07 246.29z" stroke="none" fill="#DAEEF3" fill-rule="evenodd" /><g clip-path="url(#223)"></g><g clip-path="url(#224)"></g><g clip-path="url(#225)"></g></g><path transform="matrix(1 0 0 -1 0 841)" d="M84.264 246.29L84.744 246.29L84.744 246.29L84.744 246.77L84.744 246.77L84.264 246.77z" stroke="none" fill="#000000" fill-rule="evenodd" /><path transform="matrix(1 0 0 -1 0 841)" d="M84.744 246.29L165.024 246.29L165.024 246.29L165.024 246.77L165.024 246.77L84.744 246.77z" stroke="none" fill="#000000" fill-rule="evenodd" /><path transform="matrix(1 0 0 -1 0 841)" d="M165.02 246.29L165.5 246.29L165.5 246.29L165.5 246.77L165.5 246.77L165.02 246.77z" stroke="none" fill="#000000" fill-rule="evenodd" /><path transform="matrix(1 0 0 -1 0 841)" d="M165.5 246.29L234.404 246.29L234.404 246.29L234.404 246.77L234.404 246.77L165.5 246.77z" stroke="none" fill="#000000" fill-rule="evenodd" /><path transform="matrix(1 0 0 -1 0 841)" d="M234.41 246.29L234.89 246.29L234.89 246.29L234.89 246.77L234.89 246.77L234.41 246.77z" stroke="none" fill="#000000" fill-rule="evenodd" /><path transform="matrix(1 0 0 -1 0 841)" d="M234.89 246.29L435.55 246.29L435.55 246.29L435.55 246.77L435.55 246.77L234.89 246.77z" stroke="none" fill="#000000" fill-rule="evenodd" /><path transform="matrix(1 0 0 -1 0 841)" d="M435.55 246.29L436.03 246.29L436.03 246.29L436.03 246.77L436.03 246.77L435.55 246.77z" stroke="none" fill="#000000" fill-rule="evenodd" /><path transform="matrix(1 0 0 -1 0 841)" d="M436.03 246.29L510.694 246.29L510.694 246.29L510.694 246.77L510.694 246.77L436.03 246.77z" stroke="none" fill="#000000" fill-rule="evenodd" /><path transform="matrix(1 0 0 -1 0 841)" d="M510.7 246.29L511.18 246.29L511.18 246.29L511.18 246.77L511.18 246.77L510.7 246.77z" stroke="none" fill="#000000" fill-rule="evenodd" /><path transform="matrix(1 0 0 -1 0 841)" d="M84.264 189.05L84.744 189.05L84.744 189.05L84.744 246.29L84.744 246.29L84.264 246.29z" stroke="none" fill="#000000" fill-rule="evenodd" /><path transform="matrix(1 0 0 -1 0 841)" d="M165.02 189.05L165.5 189.05L165.5 189.05L165.5 246.29L165.5 246.29L165.02 246.29z" stroke="none" fill="#000000" fill-rule="evenodd" /><path transform="matrix(1 0 0 -1 0 841)" d="M234.41 189.05L234.89 189.05L234.89 189.05L234.89 246.29L234.89 246.29L234.41 246.29z" stroke="none" fill="#000000" fill-rule="evenodd" /><path transform="matrix(1 0 0 -1 0 841)" d="M435.55 189.05L436.03 189.05L436.03 189.05L436.03 246.29L436.03 246.29L435.55 246.29z" stroke="none" fill="#000000" fill-rule="evenodd" /><path transform="matrix(1 0 0 -1 0 841)" d="M510.7 189.05L511.18 189.05L511.18 189.05L511.18 246.29L511.18 246.29L510.7 246.29z" stroke="none" fill="#000000" fill-rule="evenodd" /><g clip-path="url(#226)"><g clip-path="url(#227)"></g><g clip-path="url(#228)"></g><g clip-path="url(#229)"></g></g><g clip-path="url(#230)"><g clip-path="url(#231)"></g><g clip-path="url(#232)"></g><g clip-path="url(#233)"></g></g><g clip-path="url(#234)"><g clip-path="url(#235)"></g><g clip-path="url(#236)"></g><g clip-path="url(#237)"></g><g clip-path="url(#238)"></g><g clip-path="url(#239)"></g><g clip-path="url(#240)"></g><g clip-path="url(#241)"></g><g clip-path="url(#242)"></g><g clip-path="url(#243)"></g><g clip-path="url(#244)"></g><g clip-path="url(#245)"></g><g clip-path="url(#246)"></g><g clip-path="url(#247)"></g><g clip-path="url(#248)"></g><g clip-path="url(#249)"></g></g><g clip-path="url(#250)"><g clip-path="url(#251)"></g><g clip-path="url(#252)"></g><g clip-path="url(#253)"></g></g><path transform="matrix(1 0 0 -1 0 841)" d="M84.264 188.57L84.744 188.57L84.744 188.57L84.744 189.05L84.744 189.05L84.264 189.05z" stroke="none" fill="#000000" fill-rule="evenodd" /><path transform="matrix(1 0 0 -1 0 841)" d="M84.744 188.57L165.024 188.57L165.024 188.57L165.024 189.05L165.024 189.05L84.744 189.05z" stroke="none" fill="#000000" fill-rule="evenodd" /><path transform="matrix(1 0 0 -1 0 841)" d="M165.02 188.57L165.5 188.57L165.5 188.57L165.5 189.05L165.5 189.05L165.02 189.05z" stroke="none" fill="#000000" fill-rule="evenodd" /><path transform="matrix(1 0 0 -1 0 841)" d="M165.5 188.57L234.404 188.57L234.404 188.57L234.404 189.05L234.404 189.05L165.5 189.05z" stroke="none" fill="#000000" fill-rule="evenodd" /><path transform="matrix(1 0 0 -1 0 841)" d="M234.41 188.57L234.89 188.57L234.89 188.57L234.89 189.05L234.89 189.05L234.41 189.05z" stroke="none" fill="#000000" fill-rule="evenodd" /><path transform="matrix(1 0 0 -1 0 841)" d="M234.89 188.57L435.55 188.57L435.55 188.57L435.55 189.05L435.55 189.05L234.89 189.05z" stroke="none" fill="#000000" fill-rule="evenodd" /><path transform="matrix(1 0 0 -1 0 841)" d="M435.55 188.57L436.03 188.57L436.03 188.57L436.03 189.05L436.03 189.05L435.55 189.05z" stroke="none" fill="#000000" fill-rule="evenodd" /><path transform="matrix(1 0 0 -1 0 841)" d="M436.03 188.57L510.694 188.57L510.694 188.57L510.694 189.05L510.694 189.05L436.03 189.05z" stroke="none" fill="#000000" fill-rule="evenodd" /><path transform="matrix(1 0 0 -1 0 841)" d="M510.7 188.57L511.18 188.57L511.18 188.57L511.18 189.05L511.18 189.05L510.7 189.05z" stroke="none" fill="#000000" fill-rule="evenodd" /><path transform="matrix(1 0 0 -1 0 841)" d="M84.264 93.264L84.744 93.264L84.744 93.264L84.744 188.568L84.744 188.568L84.264 188.568z" stroke="none" fill="#000000" fill-rule="evenodd" /><path transform="matrix(1 0 0 -1 0 841)" d="M84.264 92.784L84.744 92.784L84.744 92.784L84.744 93.26398L84.744 93.26398L84.264 93.26398z" stroke="none" fill="#000000" fill-rule="evenodd" /><path transform="matrix(1 0 0 -1 0 841)" d="M84.264 92.784L84.744 92.784L84.744 92.784L84.744 93.26398L84.744 93.26398L84.264 93.26398z" stroke="none" fill="#000000" fill-rule="evenodd" /><path transform="matrix(1 0 0 -1 0 841)" d="M84.744 92.784L165.024 92.784L165.024 92.784L165.024 93.26398L165.024 93.26398L84.744 93.26398z" stroke="none" fill="#000000" fill-rule="evenodd" /><path transform="matrix(1 0 0 -1 0 841)" d="M165.02 93.264L165.5 93.264L165.5 93.264L165.5 188.568L165.5 188.568L165.02 188.568z" stroke="none" fill="#000000" fill-rule="evenodd" /><path transform="matrix(1 0 0 -1 0 841)" d="M165.02 92.784L165.5 92.784L165.5 92.784L165.5 93.26398L165.5 93.26398L165.02 93.26398z" stroke="none" fill="#000000" fill-rule="evenodd" /><path transform="matrix(1 0 0 -1 0 841)" d="M165.5 92.784L234.404 92.784L234.404 92.784L234.404 93.26398L234.404 93.26398L165.5 93.26398z" stroke="none" fill="#000000" fill-rule="evenodd" /><path transform="matrix(1 0 0 -1 0 841)" d="M234.41 93.264L234.89 93.264L234.89 93.264L234.89 188.568L234.89 188.568L234.41 188.568z" stroke="none" fill="#000000" fill-rule="evenodd" /><path transform="matrix(1 0 0 -1 0 841)" d="M234.41 92.784L234.89 92.784L234.89 92.784L234.89 93.26398L234.89 93.26398L234.41 93.26398z" stroke="none" fill="#000000" fill-rule="evenodd" /><path transform="matrix(1 0 0 -1 0 841)" d="M234.89 92.784L435.55 92.784L435.55 92.784L435.55 93.26398L435.55 93.26398L234.89 93.26398z" stroke="none" fill="#000000" fill-rule="evenodd" /><path transform="matrix(1 0 0 -1 0 841)" d="M435.55 93.264L436.03 93.264L436.03 93.264L436.03 188.568L436.03 188.568L435.55 188.568z" stroke="none" fill="#000000" fill-rule="evenodd" /><path transform="matrix(1 0 0 -1 0 841)" d="M435.55 92.784L436.03 92.784L436.03 92.784L436.03 93.26398L436.03 93.26398L435.55 93.26398z" stroke="none" fill="#000000" fill-rule="evenodd" /><path transform="matrix(1 0 0 -1 0 841)" d="M436.03 92.784L510.694 92.784L510.694 92.784L510.694 93.26398L510.694 93.26398L436.03 93.26398z" stroke="none" fill="#000000" fill-rule="evenodd" /><path transform="matrix(1 0 0 -1 0 841)" d="M510.7 93.264L511.18 93.264L511.18 93.264L511.18 188.568L511.18 188.568L510.7 188.568z" stroke="none" fill="#000000" fill-rule="evenodd" /><path transform="matrix(1 0 0 -1 0 841)" d="M510.7 92.784L511.18 92.784L511.18 92.784L511.18 93.26398L511.18 93.26398L510.7 93.26398z" stroke="none" fill="#000000" fill-rule="evenodd" /><path transform="matrix(1 0 0 -1 0 841)" d="M510.7 92.784L511.18 92.784L511.18 92.784L511.18 93.26398L511.18 93.26398L510.7 93.26398z" stroke="none" fill="#000000" fill-rule="evenodd" /></g></g></g></svg>