<svg xmlns="http://www.w3.org/2000/svg" xmlns:xlink="http://www.w3.org/1999/xlink" id="body_122" preserveAspectRatio="xMinYMin meet" viewBox="0 0 793 1121"><defs><clipPath id="1"><path d="M0 841L0 -0.9199829L0 -0.9199829L595.32 -0.9199829L595.32 -0.9199829L595.32 841L595.32 841L0 841z" /></clipPath><clipPath id="2"><path d="M0.00125 841.0914L595.4112 841.0914L595.4112 841.0914L595.4112 -0.9186401L595.4112 -0.9186401L0.00125 -0.9186401z" /></clipPath><clipPath id="3"><path d="M288.05 781.211L316.01 781.211L316.01 781.211L316.01 762.011L316.01 762.011L288.05 762.011z" /></clipPath><clipPath id="4"><path d="M288.05 781.216L316.01 781.216L316.01 781.216L316.01 762.016L316.01 762.016L288.05 762.016z" /></clipPath><clipPath id="5"><path d="M288.05 781.216L316.01 781.216L316.01 781.216L316.01 762.016L316.01 762.016L288.05 762.016z" /></clipPath><clipPath id="6"><path d="M84.751 230.23L169.591 230.23L169.591 230.23L169.591 211.15L169.591 211.15L84.751 211.15z" /></clipPath><clipPath id="7"><path d="M84.744 230.22L169.584 230.22L169.584 230.22L169.584 211.14L169.584 211.14L84.744 211.14z" /></clipPath><clipPath id="8"><path d="M84.744 230.22L169.584 230.22L169.584 230.22L169.584 211.14L169.584 211.14L84.744 211.14z" /></clipPath><clipPath id="9"><path d="M170.07 230.23L224.445 230.23L224.445 230.23L224.445 211.15L224.445 211.15L170.07 211.15z" /></clipPath><clipPath id="10"><path d="M170.06 230.22L224.444 230.22L224.444 230.22L224.444 211.14L224.444 211.14L170.06 211.14z" /></clipPath><clipPath id="11"><path d="M170.06 230.22L224.444 230.22L224.444 230.22L224.444 211.14L224.444 211.14L170.06 211.14z" /></clipPath><clipPath id="12"><path d="M225.05 230.23L274.13 230.23L274.13 230.23L274.13 211.15L274.13 211.15L225.05 211.15z" /></clipPath><clipPath id="13"><path d="M225.05 230.22L274.13 230.22L274.13 230.22L274.13 211.14L274.13 211.14L225.05 211.14z" /></clipPath><clipPath id="14"><path d="M225.05 230.22L274.13 230.22L274.13 230.22L274.13 211.14L274.13 211.14L225.05 211.14z" /></clipPath><clipPath id="15"><path d="M274.61 230.23L401.84 230.23L401.84 230.23L401.84 211.15L401.84 211.15L274.61 211.15z" /></clipPath><clipPath id="16"><path d="M274.61 230.22L401.83 230.22L401.83 230.22L401.83 211.14L401.83 211.14L274.61 211.14z" /></clipPath><clipPath id="17"><path d="M274.61 230.22L401.83 230.22L401.83 230.22L401.83 211.14L401.83 211.14L274.61 211.14z" /></clipPath><clipPath id="18"><path d="M402.32 230.23L510.7 230.23L510.7 230.23L510.7 211.15L510.7 211.15L402.32 211.15z" /></clipPath><clipPath id="19"><path d="M402.31 230.22L510.69 230.22L510.69 230.22L510.69 211.14L510.69 211.14L402.31 211.14z" /></clipPath><clipPath id="20"><path d="M402.31 230.22L510.69 230.22L510.69 230.22L510.69 211.14L510.69 211.14L402.31 211.14z" /></clipPath><clipPath id="21"><path d="M84.751 268.87L169.591 268.87L169.591 268.87L169.591 230.71L169.591 230.71L84.751 230.71z" /></clipPath><clipPath id="22"><path d="M84.744 268.86L169.584 268.86L169.584 268.86L169.584 230.7L169.584 230.7L84.744 230.7z" /></clipPath><clipPath id="23"><path d="M84.744 268.86L169.584 268.86L169.584 268.86L169.584 230.7L169.584 230.7L84.744 230.7z" /></clipPath><clipPath id="24"><path d="M170.07 268.87L224.445 268.87L224.445 268.87L224.445 230.71L224.445 230.71L170.07 230.71z" /></clipPath><clipPath id="25"><path d="M170.06 268.86L224.444 268.86L224.444 268.86L224.444 230.7L224.444 230.7L170.06 230.7z" /></clipPath><clipPath id="26"><path d="M170.06 268.86L224.444 268.86L224.444 268.86L224.444 230.7L224.444 230.7L170.06 230.7z" /></clipPath><clipPath id="27"><path d="M225.05 268.87L274.13 268.87L274.13 268.87L274.13 230.71L274.13 230.71L225.05 230.71z" /></clipPath><clipPath id="28"><path d="M225.05 268.86L274.13 268.86L274.13 268.86L274.13 230.7L274.13 230.7L225.05 230.7z" /></clipPath><clipPath id="29"><path d="M225.05 268.86L274.13 268.86L274.13 268.86L274.13 230.7L274.13 230.7L225.05 230.7z" /></clipPath><clipPath id="30"><path d="M274.61 268.87L401.84 268.87L401.84 268.87L401.84 230.71L401.84 230.71L274.61 230.71z" /></clipPath><clipPath id="31"><path d="M274.61 268.86L401.83 268.86L401.83 268.86L401.83 230.7L401.83 230.7L274.61 230.7z" /></clipPath><clipPath id="32"><path d="M274.61 268.86L401.83 268.86L401.83 268.86L401.83 230.7L401.83 230.7L274.61 230.7z" /></clipPath><clipPath id="33"><path d="M274.61 268.86L401.83 268.86L401.83 268.86L401.83 230.7L401.83 230.7L274.61 230.7z" /></clipPath><clipPath id="34"><path d="M402.32 268.87L510.7 268.87L510.7 268.87L510.7 230.71L510.7 230.71L402.32 230.71z" /></clipPath><clipPath id="35"><path d="M402.31 268.86L510.69 268.86L510.69 268.86L510.69 230.7L510.69 230.7L402.31 230.7z" /></clipPath><clipPath id="36"><path d="M402.31 268.86L510.69 268.86L510.69 268.86L510.69 230.7L510.69 230.7L402.31 230.7z" /></clipPath><clipPath id="37"><path d="M402.31 268.86L510.69 268.86L510.69 268.86L510.69 230.7L510.69 230.7L402.31 230.7z" /></clipPath><clipPath id="38"><path d="M402.31 268.86L510.69 268.86L510.69 268.86L510.69 230.7L510.69 230.7L402.31 230.7z" /></clipPath><clipPath id="39"><path d="M84.751 288.45L169.591 288.45L169.591 288.45L169.591 269.355L169.591 269.355L84.751 269.355z" /></clipPath><clipPath id="40"><path d="M84.744 288.45L169.584 288.45L169.584 288.45L169.584 269.346L169.584 269.346L84.744 269.346z" /></clipPath><clipPath id="41"><path d="M84.744 288.45L169.584 288.45L169.584 288.45L169.584 269.346L169.584 269.346L84.744 269.346z" /></clipPath><clipPath id="42"><path d="M170.07 288.45L224.445 288.45L224.445 288.45L224.445 269.355L224.445 269.355L170.07 269.355z" /></clipPath><clipPath id="43"><path d="M170.06 288.45L224.444 288.45L224.444 288.45L224.444 269.346L224.444 269.346L170.06 269.346z" /></clipPath><clipPath id="44"><path d="M170.06 288.45L224.444 288.45L224.444 288.45L224.444 269.346L224.444 269.346L170.06 269.346z" /></clipPath><clipPath id="45"><path d="M225.05 288.45L274.13 288.45L274.13 288.45L274.13 269.355L274.13 269.355L225.05 269.355z" /></clipPath><clipPath id="46"><path d="M225.05 288.45L274.13 288.45L274.13 288.45L274.13 269.346L274.13 269.346L225.05 269.346z" /></clipPath><clipPath id="47"><path d="M225.05 288.45L274.13 288.45L274.13 288.45L274.13 269.346L274.13 269.346L225.05 269.346z" /></clipPath><clipPath id="48"><path d="M274.61 288.45L401.84 288.45L401.84 288.45L401.84 269.355L401.84 269.355L274.61 269.355z" /></clipPath><clipPath id="49"><path d="M274.61 288.45L401.83 288.45L401.83 288.45L401.83 269.346L401.83 269.346L274.61 269.346z" /></clipPath><clipPath id="50"><path d="M274.61 288.45L401.83 288.45L401.83 288.45L401.83 269.346L401.83 269.346L274.61 269.346z" /></clipPath><clipPath id="51"><path d="M274.61 288.45L401.83 288.45L401.83 288.45L401.83 269.346L401.83 269.346L274.61 269.346z" /></clipPath><clipPath id="52"><path d="M402.32 288.45L510.7 288.45L510.7 288.45L510.7 269.355L510.7 269.355L402.32 269.355z" /></clipPath><clipPath id="53"><path d="M402.31 288.45L510.69 288.45L510.69 288.45L510.69 269.346L510.69 269.346L402.31 269.346z" /></clipPath><clipPath id="54"><path d="M402.31 288.45L510.69 288.45L510.69 288.45L510.69 269.346L510.69 269.346L402.31 269.346z" /></clipPath><clipPath id="55"><path d="M84.751 326.97L169.591 326.97L169.591 326.97L169.591 288.93L169.591 288.93L84.751 288.93z" /></clipPath><clipPath id="56"><path d="M84.744 326.97L169.584 326.97L169.584 326.97L169.584 288.93L169.584 288.93L84.744 288.93z" /></clipPath><clipPath id="57"><path d="M84.744 326.97L169.584 326.97L169.584 326.97L169.584 288.93L169.584 288.93L84.744 288.93z" /></clipPath><clipPath id="58"><path d="M170.07 326.97L224.445 326.97L224.445 326.97L224.445 288.93L224.445 288.93L170.07 288.93z" /></clipPath><clipPath id="59"><path d="M170.06 326.97L224.444 326.97L224.444 326.97L224.444 288.93L224.444 288.93L170.06 288.93z" /></clipPath><clipPath id="60"><path d="M170.06 326.97L224.444 326.97L224.444 326.97L224.444 288.93L224.444 288.93L170.06 288.93z" /></clipPath><clipPath id="61"><path d="M225.05 326.97L274.13 326.97L274.13 326.97L274.13 288.93L274.13 288.93L225.05 288.93z" /></clipPath><clipPath id="62"><path d="M225.05 326.97L274.13 326.97L274.13 326.97L274.13 288.93L274.13 288.93L225.05 288.93z" /></clipPath><clipPath id="63"><path d="M225.05 326.97L274.13 326.97L274.13 326.97L274.13 288.93L274.13 288.93L225.05 288.93z" /></clipPath><clipPath id="64"><path d="M274.61 326.97L401.84 326.97L401.84 326.97L401.84 288.93L401.84 288.93L274.61 288.93z" /></clipPath><clipPath id="65"><path d="M274.61 326.97L401.83 326.97L401.83 326.97L401.83 288.93L401.83 288.93L274.61 288.93z" /></clipPath><clipPath id="66"><path d="M274.61 326.97L401.83 326.97L401.83 326.97L401.83 288.93L401.83 288.93L274.61 288.93z" /></clipPath><clipPath id="67"><path d="M402.32 326.97L510.7 326.97L510.7 326.97L510.7 288.93L510.7 288.93L402.32 288.93z" /></clipPath><clipPath id="68"><path d="M402.31 326.97L510.69 326.97L510.69 326.97L510.69 288.93L510.69 288.93L402.31 288.93z" /></clipPath><clipPath id="69"><path d="M402.31 326.97L510.69 326.97L510.69 326.97L510.69 288.93L510.69 288.93L402.31 288.93z" /></clipPath><clipPath id="70"><path d="M402.31 326.97L510.69 326.97L510.69 326.97L510.69 288.93L510.69 288.93L402.31 288.93z" /></clipPath><clipPath id="71"><path d="M84.751 346.53L169.591 346.53L169.591 346.53L169.591 327.45L169.591 327.45L84.751 327.45z" /></clipPath><clipPath id="72"><path d="M84.744 346.53L169.584 346.53L169.584 346.53L169.584 327.45L169.584 327.45L84.744 327.45z" /></clipPath><clipPath id="73"><path d="M84.744 346.53L169.584 346.53L169.584 346.53L169.584 327.45L169.584 327.45L84.744 327.45z" /></clipPath><clipPath id="74"><path d="M170.07 346.53L224.445 346.53L224.445 346.53L224.445 327.45L224.445 327.45L170.07 327.45z" /></clipPath><clipPath id="75"><path d="M170.06 346.53L224.444 346.53L224.444 346.53L224.444 327.45L224.444 327.45L170.06 327.45z" /></clipPath><clipPath id="76"><path d="M170.06 346.53L224.444 346.53L224.444 346.53L224.444 327.45L224.444 327.45L170.06 327.45z" /></clipPath><clipPath id="77"><path d="M225.05 346.53L274.13 346.53L274.13 346.53L274.13 327.45L274.13 327.45L225.05 327.45z" /></clipPath><clipPath id="78"><path d="M225.05 346.53L274.13 346.53L274.13 346.53L274.13 327.45L274.13 327.45L225.05 327.45z" /></clipPath><clipPath id="79"><path d="M225.05 346.53L274.13 346.53L274.13 346.53L274.13 327.45L274.13 327.45L225.05 327.45z" /></clipPath><clipPath id="80"><path d="M274.61 346.53L401.84 346.53L401.84 346.53L401.84 327.45L401.84 327.45L274.61 327.45z" /></clipPath><clipPath id="81"><path d="M274.61 346.53L401.83 346.53L401.83 346.53L401.83 327.45L401.83 327.45L274.61 327.45z" /></clipPath><clipPath id="82"><path d="M274.61 346.53L401.83 346.53L401.83 346.53L401.83 327.45L401.83 327.45L274.61 327.45z" /></clipPath><clipPath id="83"><path d="M402.32 346.53L510.7 346.53L510.7 346.53L510.7 327.45L510.7 327.45L402.32 327.45z" /></clipPath><clipPath id="84"><path d="M402.31 346.53L510.69 346.53L510.69 346.53L510.69 327.45L510.69 327.45L402.31 327.45z" /></clipPath><clipPath id="85"><path d="M402.31 346.53L510.69 346.53L510.69 346.53L510.69 327.45L510.69 327.45L402.31 327.45z" /></clipPath><clipPath id="86"><path d="M84.751 423.21L169.591 423.21L169.591 423.21L169.591 347.01L169.591 347.01L84.751 347.01z" /></clipPath><clipPath id="87"><path d="M84.744 423.21L169.584 423.21L169.584 423.21L169.584 347.01L169.584 347.01L84.744 347.01z" /></clipPath><clipPath id="88"><path d="M84.744 423.21L169.584 423.21L169.584 423.21L169.584 347.01L169.584 347.01L84.744 347.01z" /></clipPath><clipPath id="89"><path d="M170.07 423.21L224.445 423.21L224.445 423.21L224.445 347.01L224.445 347.01L170.07 347.01z" /></clipPath><clipPath id="90"><path d="M170.06 423.21L224.444 423.21L224.444 423.21L224.444 347.01L224.444 347.01L170.06 347.01z" /></clipPath><clipPath id="91"><path d="M170.06 423.21L224.444 423.21L224.444 423.21L224.444 347.01L224.444 347.01L170.06 347.01z" /></clipPath><clipPath id="92"><path d="M225.05 423.21L274.13 423.21L274.13 423.21L274.13 347.01L274.13 347.01L225.05 347.01z" /></clipPath><clipPath id="93"><path d="M225.05 423.21L274.13 423.21L274.13 423.21L274.13 347.01L274.13 347.01L225.05 347.01z" /></clipPath><clipPath id="94"><path d="M225.05 423.21L274.13 423.21L274.13 423.21L274.13 347.01L274.13 347.01L225.05 347.01z" /></clipPath><clipPath id="95"><path d="M274.61 423.21L401.84 423.21L401.84 423.21L401.84 347.01L401.84 347.01L274.61 347.01z" /></clipPath><clipPath id="96"><path d="M274.61 423.21L401.83 423.21L401.83 423.21L401.83 347.01L401.83 347.01L274.61 347.01z" /></clipPath><clipPath id="97"><path d="M274.61 423.21L401.83 423.21L401.83 423.21L401.83 347.01L401.83 347.01L274.61 347.01z" /></clipPath><clipPath id="98"><path d="M402.32 423.21L510.7 423.21L510.7 423.21L510.7 347.01L510.7 347.01L402.32 347.01z" /></clipPath><clipPath id="99"><path d="M402.31 423.21L510.69 423.21L510.69 423.21L510.69 347.01L510.69 347.01L402.31 347.01z" /></clipPath><clipPath id="100"><path d="M402.31 423.21L510.69 423.21L510.69 423.21L510.69 347.01L510.69 347.01L402.31 347.01z" /></clipPath><clipPath id="101"><path d="M402.31 423.21L510.69 423.21L510.69 423.21L510.69 347.01L510.69 347.01L402.31 347.01z" /></clipPath><clipPath id="102"><path d="M402.31 423.21L510.69 423.21L510.69 423.21L510.69 347.01L510.69 347.01L402.31 347.01z" /></clipPath><clipPath id="103"><path d="M402.31 423.21L510.69 423.21L510.69 423.21L510.69 347.01L510.69 347.01L402.31 347.01z" /></clipPath><clipPath id="104"><path d="M402.31 423.21L510.69 423.21L510.69 423.21L510.69 347.01L510.69 347.01L402.31 347.01z" /></clipPath><clipPath id="105"><path d="M402.31 423.21L510.69 423.21L510.69 423.21L510.69 347.01L510.69 347.01L402.31 347.01z" /></clipPath><clipPath id="106"><path d="M402.31 423.21L510.69 423.21L510.69 423.21L510.69 347.01L510.69 347.01L402.31 347.01z" /></clipPath><clipPath id="107"><path d="M402.31 423.21L510.69 423.21L510.69 423.21L510.69 347.01L510.69 347.01L402.31 347.01z" /></clipPath><clipPath id="108"><path d="M402.31 423.21L510.69 423.21L510.69 423.21L510.69 347.01L510.69 347.01L402.31 347.01z" /></clipPath><clipPath id="109"><path d="M402.31 423.21L510.69 423.21L510.69 423.21L510.69 347.01L510.69 347.01L402.31 347.01z" /></clipPath><clipPath id="110"><path d="M402.31 423.21L510.69 423.21L510.69 423.21L510.69 347.01L510.69 347.01L402.31 347.01z" /></clipPath><clipPath id="111"><path d="M402.31 423.21L510.69 423.21L510.69 423.21L510.69 347.01L510.69 347.01L402.31 347.01z" /></clipPath><clipPath id="112"><path d="M402.31 423.21L510.69 423.21L510.69 423.21L510.69 347.01L510.69 347.01L402.31 347.01z" /></clipPath><clipPath id="113"><path d="M402.31 423.21L510.69 423.21L510.69 423.21L510.69 347.01L510.69 347.01L402.31 347.01z" /></clipPath><clipPath id="114"><path d="M402.31 423.21L510.69 423.21L510.69 423.21L510.69 347.01L510.69 347.01L402.31 347.01z" /></clipPath><clipPath id="115"><path d="M402.31 423.21L510.69 423.21L510.69 423.21L510.69 347.01L510.69 347.01L402.31 347.01z" /></clipPath><clipPath id="116"><path d="M402.31 423.21L510.69 423.21L510.69 423.21L510.69 347.01L510.69 347.01L402.31 347.01z" /></clipPath><clipPath id="117"><path d="M84.751 461.85L169.591 461.85L169.591 461.85L169.591 423.81L169.591 423.81L84.751 423.81z" /></clipPath><clipPath id="118"><path d="M84.744 461.85L169.584 461.85L169.584 461.85L169.584 423.81L169.584 423.81L84.744 423.81z" /></clipPath><clipPath id="119"><path d="M84.744 461.85L169.584 461.85L169.584 461.85L169.584 423.81L169.584 423.81L84.744 423.81z" /></clipPath><clipPath id="120"><path d="M170.07 461.85L224.445 461.85L224.445 461.85L224.445 423.81L224.445 423.81L170.07 423.81z" /></clipPath><clipPath id="121"><path d="M170.06 461.85L224.444 461.85L224.444 461.85L224.444 423.81L224.444 423.81L170.06 423.81z" /></clipPath><clipPath id="122"><path d="M170.06 461.85L224.444 461.85L224.444 461.85L224.444 423.81L224.444 423.81L170.06 423.81z" /></clipPath><clipPath id="123"><path d="M170.06 461.85L224.444 461.85L224.444 461.85L224.444 423.81L224.444 423.81L170.06 423.81z" /></clipPath><clipPath id="124"><path d="M225.05 461.85L274.13 461.85L274.13 461.85L274.13 423.81L274.13 423.81L225.05 423.81z" /></clipPath><clipPath id="125"><path d="M225.05 461.85L274.13 461.85L274.13 461.85L274.13 423.81L274.13 423.81L225.05 423.81z" /></clipPath><clipPath id="126"><path d="M225.05 461.85L274.13 461.85L274.13 461.85L274.13 423.81L274.13 423.81L225.05 423.81z" /></clipPath><clipPath id="127"><path d="M274.61 461.85L401.84 461.85L401.84 461.85L401.84 423.81L401.84 423.81L274.61 423.81z" /></clipPath><clipPath id="128"><path d="M274.61 461.85L401.83 461.85L401.83 461.85L401.83 423.81L401.83 423.81L274.61 423.81z" /></clipPath><clipPath id="129"><path d="M274.61 461.85L401.83 461.85L401.83 461.85L401.83 423.81L401.83 423.81L274.61 423.81z" /></clipPath><clipPath id="130"><path d="M402.32 461.85L510.7 461.85L510.7 461.85L510.7 423.81L510.7 423.81L402.32 423.81z" /></clipPath><clipPath id="131"><path d="M402.31 461.85L510.69 461.85L510.69 461.85L510.69 423.81L510.69 423.81L402.31 423.81z" /></clipPath><clipPath id="132"><path d="M402.31 461.85L510.69 461.85L510.69 461.85L510.69 423.81L510.69 423.81L402.31 423.81z" /></clipPath><clipPath id="133"><path d="M402.31 461.85L510.69 461.85L510.69 461.85L510.69 423.81L510.69 423.81L402.31 423.81z" /></clipPath><clipPath id="134"><path d="M84.751 500.52L169.591 500.52L169.591 500.52L169.591 462.33L169.591 462.33L84.751 462.33z" /></clipPath><clipPath id="135"><path d="M84.744 500.51L169.584 500.51L169.584 500.51L169.584 462.326L169.584 462.326L84.744 462.326z" /></clipPath><clipPath id="136"><path d="M84.744 500.51L169.584 500.51L169.584 500.51L169.584 462.326L169.584 462.326L84.744 462.326z" /></clipPath><clipPath id="137"><path d="M84.744 500.51L169.584 500.51L169.584 500.51L169.584 462.326L169.584 462.326L84.744 462.326z" /></clipPath><clipPath id="138"><path d="M170.07 500.52L224.445 500.52L224.445 500.52L224.445 462.33L224.445 462.33L170.07 462.33z" /></clipPath><clipPath id="139"><path d="M170.06 500.51L224.444 500.51L224.444 500.51L224.444 462.326L224.444 462.326L170.06 462.326z" /></clipPath><clipPath id="140"><path d="M170.06 500.51L224.444 500.51L224.444 500.51L224.444 462.326L224.444 462.326L170.06 462.326z" /></clipPath><clipPath id="141"><path d="M170.06 500.51L224.444 500.51L224.444 500.51L224.444 462.326L224.444 462.326L170.06 462.326z" /></clipPath><clipPath id="142"><path d="M225.05 500.52L274.13 500.52L274.13 500.52L274.13 462.33L274.13 462.33L225.05 462.33z" /></clipPath><clipPath id="143"><path d="M225.05 500.51L274.13 500.51L274.13 500.51L274.13 462.326L274.13 462.326L225.05 462.326z" /></clipPath><clipPath id="144"><path d="M225.05 500.51L274.13 500.51L274.13 500.51L274.13 462.326L274.13 462.326L225.05 462.326z" /></clipPath><clipPath id="145"><path d="M274.61 500.52L401.84 500.52L401.84 500.52L401.84 462.33L401.84 462.33L274.61 462.33z" /></clipPath><clipPath id="146"><path d="M274.61 500.51L401.83 500.51L401.83 500.51L401.83 462.326L401.83 462.326L274.61 462.326z" /></clipPath><clipPath id="147"><path d="M274.61 500.51L401.83 500.51L401.83 500.51L401.83 462.326L401.83 462.326L274.61 462.326z" /></clipPath><clipPath id="148"><path d="M402.32 500.52L510.7 500.52L510.7 500.52L510.7 462.33L510.7 462.33L402.32 462.33z" /></clipPath><clipPath id="149"><path d="M402.31 500.51L510.69 500.51L510.69 500.51L510.69 462.326L510.69 462.326L402.31 462.326z" /></clipPath><clipPath id="150"><path d="M402.31 500.51L510.69 500.51L510.69 500.51L510.69 462.326L510.69 462.326L402.31 462.326z" /></clipPath><clipPath id="151"><path d="M75.871 712.93L509.491 712.93L509.491 712.93L509.491 520.91L509.491 520.91L75.871 520.91z" /></clipPath><clipPath id="152"><path d="M85.344 540.47L500.014 540.47L500.014 540.47L500.014 521.39L500.014 521.39L85.344 521.39z" /></clipPath><clipPath id="153"><path d="M85.344 540.47L500.014 540.47L500.014 540.47L500.014 521.39L500.014 521.39L85.344 521.39z" /></clipPath><clipPath id="154"><path d="M85.344 540.47L500.014 540.47L500.014 540.47L500.014 521.39L500.014 521.39L85.344 521.39z" /></clipPath><clipPath id="155"><path d="M85.344 540.47L500.014 540.47L500.014 540.47L500.014 521.39L500.014 521.39L85.344 521.39z" /></clipPath><clipPath id="156"><path d="M85.344 712.46L500.014 712.46L500.014 712.46L500.014 540.96L500.014 540.96L85.344 540.96z" /></clipPath><clipPath id="157"><path d="M85.344 712.46L500.014 712.46L500.014 712.46L500.014 540.96L500.014 540.96L85.344 540.96z" /></clipPath><clipPath id="158"><path d="M85.344 712.46L500.014 712.46L500.014 712.46L500.014 540.96L500.014 540.96L85.344 540.96z" /></clipPath><clipPath id="159"><path d="M85.344 712.46L500.014 712.46L500.014 712.46L500.014 540.96L500.014 540.96L85.344 540.96z" /></clipPath><clipPath id="160"><path d="M85.344 712.46L500.014 712.46L500.014 712.46L500.014 540.96L500.014 540.96L85.344 540.96z" /></clipPath><clipPath id="161"><path d="M85.344 712.46L500.014 712.46L500.014 712.46L500.014 540.96L500.014 540.96L85.344 540.96z" /></clipPath><clipPath id="162"><path d="M85.344 712.46L500.014 712.46L500.014 712.46L500.014 540.96L500.014 540.96L85.344 540.96z" /></clipPath><clipPath id="163"><path d="M85.344 712.46L500.014 712.46L500.014 712.46L500.014 540.96L500.014 540.96L85.344 540.96z" /></clipPath><clipPath id="164"><path d="M85.344 712.46L500.014 712.46L500.014 712.46L500.014 540.96L500.014 540.96L85.344 540.96z" /></clipPath><clipPath id="165"><path d="M85.344 712.46L500.014 712.46L500.014 712.46L500.014 540.96L500.014 540.96L85.344 540.96z" /></clipPath><clipPath id="166"><path d="M85.344 712.46L500.014 712.46L500.014 712.46L500.014 540.96L500.014 540.96L85.344 540.96z" /></clipPath><clipPath id="167"><path d="M85.344 712.46L500.014 712.46L500.014 712.46L500.014 540.96L500.014 540.96L85.344 540.96z" /></clipPath><clipPath id="168"><path d="M85.344 712.46L500.014 712.46L500.014 712.46L500.014 540.96L500.014 540.96L85.344 540.96z" /></clipPath><clipPath id="169"><path d="M85.344 712.46L500.014 712.46L500.014 712.46L500.014 540.96L500.014 540.96L85.344 540.96z" /></clipPath><clipPath id="170"><path d="M85.344 712.46L500.014 712.46L500.014 712.46L500.014 540.96L500.014 540.96L85.344 540.96z" /></clipPath><clipPath id="171"><path d="M85.344 712.46L500.014 712.46L500.014 712.46L500.014 540.96L500.014 540.96L85.344 540.96z" /></clipPath><clipPath id="172"><path d="M85.344 712.46L500.014 712.46L500.014 712.46L500.014 540.96L500.014 540.96L85.344 540.96z" /></clipPath><clipPath id="173"><path d="M85.344 712.46L500.014 712.46L500.014 712.46L500.014 540.96L500.014 540.96L85.344 540.96z" /></clipPath><clipPath id="174"><path d="M85.344 712.46L500.014 712.46L500.014 712.46L500.014 540.96L500.014 540.96L85.344 540.96z" /></clipPath><clipPath id="175"><path d="M85.344 712.46L500.014 712.46L500.014 712.46L500.014 540.96L500.014 540.96L85.344 540.96z" /></clipPath><clipPath id="176"><path d="M85.344 712.46L500.014 712.46L500.014 712.46L500.014 540.96L500.014 540.96L85.344 540.96z" /></clipPath><clipPath id="177"><path d="M85.344 712.46L500.014 712.46L500.014 712.46L500.014 540.96L500.014 540.96L85.344 540.96z" /></clipPath></defs><g transform="matrix(1.333333 0 0 1.333333 0 0)"><g><g clip-path="url(#1)"><path transform="matrix(1 0 0 -1 0 841)" d="M457.51 53.304L505.534 53.304L505.534 53.304L505.534 53.90404L505.534 53.90404L457.51 53.90404z" stroke="none" fill="#000000" fill-rule="evenodd" /><g clip-path="url(#2)"><path transform="matrix(1 0 0 -1 0 841)" d="M88.464 77.904L506.974 77.904L506.974 77.904L506.974 80.904L506.974 80.904L88.464 80.904z" stroke="none" fill="#000000" fill-rule="evenodd" /><path transform="matrix(1 0 0 -1 0 841)" d="M88.464 76.464L506.974 76.464L506.974 76.464L506.974 77.18397L506.974 77.18397L88.464 77.18397z" stroke="none" fill="#000000" fill-rule="evenodd" /></g><g clip-path="url(#3)"><g clip-path="url(#4)"></g><g clip-path="url(#5)"></g></g><path transform="matrix(1 0 0 -1 0 841)" d="M199.7 696.34L241.964 696.34L241.964 696.34L241.964 697.06L241.964 697.06L199.7 697.06z" stroke="none" fill="#000000" fill-rule="evenodd" /><path transform="matrix(1 0 0 -1 0 841)" d="M84.744 610.78L169.584 610.78L169.584 610.78L169.584 629.86L169.584 629.86L84.744 629.86z" stroke="none" fill="#0070C0" fill-rule="evenodd" /><g clip-path="url(#6)"><path transform="matrix(1 0 0 -1 0 841)" d="M89.904 610.78L164.424 610.78L164.424 610.78L164.424 629.86L164.424 629.86L89.904 629.86z" stroke="none" fill="#0070C0" fill-rule="evenodd" /><g clip-path="url(#7)"></g><g clip-path="url(#8)"></g></g><path transform="matrix(1 0 0 -1 0 841)" d="M170.06 610.78L224.444 610.78L224.444 610.78L224.444 629.86L224.444 629.86L170.06 629.86z" stroke="none" fill="#0070C0" fill-rule="evenodd" /><g clip-path="url(#9)"><path transform="matrix(1 0 0 -1 0 841)" d="M175.22 610.78L219.404 610.78L219.404 610.78L219.404 629.86L219.404 629.86L175.22 629.86z" stroke="none" fill="#0070C0" fill-rule="evenodd" /><g clip-path="url(#10)"></g><g clip-path="url(#11)"></g></g><path transform="matrix(1 0 0 -1 0 841)" d="M225.05 610.78L274.13 610.78L274.13 610.78L274.13 629.86L274.13 629.86L225.05 629.86z" stroke="none" fill="#0070C0" fill-rule="evenodd" /><g clip-path="url(#12)"><path transform="matrix(1 0 0 -1 0 841)" d="M230.21 610.78L268.97 610.78L268.97 610.78L268.97 629.86L268.97 629.86L230.21 629.86z" stroke="none" fill="#0070C0" fill-rule="evenodd" /><g clip-path="url(#13)"></g><g clip-path="url(#14)"></g></g><path transform="matrix(1 0 0 -1 0 841)" d="M274.61 610.78L401.83 610.78L401.83 610.78L401.83 629.86L401.83 629.86L274.61 629.86z" stroke="none" fill="#0070C0" fill-rule="evenodd" /><g clip-path="url(#15)"><path transform="matrix(1 0 0 -1 0 841)" d="M279.77 610.78L396.67 610.78L396.67 610.78L396.67 629.86L396.67 629.86L279.77 629.86z" stroke="none" fill="#0070C0" fill-rule="evenodd" /><g clip-path="url(#16)"></g><g clip-path="url(#17)"></g></g><path transform="matrix(1 0 0 -1 0 841)" d="M402.31 610.78L510.69 610.78L510.69 610.78L510.69 629.86L510.69 629.86L402.31 629.86z" stroke="none" fill="#0070C0" fill-rule="evenodd" /><g clip-path="url(#18)"><path transform="matrix(1 0 0 -1 0 841)" d="M407.47 610.78L505.534 610.78L505.534 610.78L505.534 629.86L505.534 629.86L407.47 629.86z" stroke="none" fill="#0070C0" fill-rule="evenodd" /><g clip-path="url(#19)"></g><g clip-path="url(#20)"></g></g><path transform="matrix(1 0 0 -1 0 841)" d="M84.264 629.86L84.744 629.86L84.744 629.86L84.744 630.34L84.744 630.34L84.264 630.34z" stroke="none" fill="#000000" fill-rule="evenodd" /><path transform="matrix(1 0 0 -1 0 841)" d="M84.264 629.86L84.744 629.86L84.744 629.86L84.744 630.34L84.744 630.34L84.264 630.34z" stroke="none" fill="#000000" fill-rule="evenodd" /><path transform="matrix(1 0 0 -1 0 841)" d="M84.744 629.86L169.584 629.86L169.584 629.86L169.584 630.34L169.584 630.34L84.744 630.34z" stroke="none" fill="#000000" fill-rule="evenodd" /><path transform="matrix(1 0 0 -1 0 841)" d="M169.58 629.86L170.06 629.86L170.06 629.86L170.06 630.34L170.06 630.34L169.58 630.34z" stroke="none" fill="#000000" fill-rule="evenodd" /><path transform="matrix(1 0 0 -1 0 841)" d="M170.06 629.86L224.564 629.86L224.564 629.86L224.564 630.34L224.564 630.34L170.06 630.34z" stroke="none" fill="#000000" fill-rule="evenodd" /><path transform="matrix(1 0 0 -1 0 841)" d="M224.57 629.86L225.05 629.86L225.05 629.86L225.05 630.34L225.05 630.34L224.57 630.34z" stroke="none" fill="#000000" fill-rule="evenodd" /><path transform="matrix(1 0 0 -1 0 841)" d="M225.05 629.86L274.25 629.86L274.25 629.86L274.25 630.34L274.25 630.34L225.05 630.34z" stroke="none" fill="#000000" fill-rule="evenodd" /><path transform="matrix(1 0 0 -1 0 841)" d="M274.25 629.86L274.73 629.86L274.73 629.86L274.73 630.34L274.73 630.34L274.25 630.34z" stroke="none" fill="#000000" fill-rule="evenodd" /><path transform="matrix(1 0 0 -1 0 841)" d="M274.73 629.86L401.83 629.86L401.83 629.86L401.83 630.34L401.83 630.34L274.73 630.34z" stroke="none" fill="#000000" fill-rule="evenodd" /><path transform="matrix(1 0 0 -1 0 841)" d="M401.83 629.86L402.31 629.86L402.31 629.86L402.31 630.34L402.31 630.34L401.83 630.34z" stroke="none" fill="#000000" fill-rule="evenodd" /><path transform="matrix(1 0 0 -1 0 841)" d="M402.31 629.86L510.69 629.86L510.69 629.86L510.69 630.34L510.69 630.34L402.31 630.34z" stroke="none" fill="#000000" fill-rule="evenodd" /><path transform="matrix(1 0 0 -1 0 841)" d="M510.7 629.86L511.18 629.86L511.18 629.86L511.18 630.34L511.18 630.34L510.7 630.34z" stroke="none" fill="#000000" fill-rule="evenodd" /><path transform="matrix(1 0 0 -1 0 841)" d="M510.7 629.86L511.18 629.86L511.18 629.86L511.18 630.34L511.18 630.34L510.7 630.34z" stroke="none" fill="#000000" fill-rule="evenodd" /><path transform="matrix(1 0 0 -1 0 841)" d="M84.264 610.78L84.744 610.78L84.744 610.78L84.744 629.86L84.744 629.86L84.264 629.86z" stroke="none" fill="#000000" fill-rule="evenodd" /><path transform="matrix(1 0 0 -1 0 841)" d="M169.58 610.78L170.06 610.78L170.06 610.78L170.06 629.86L170.06 629.86L169.58 629.86z" stroke="none" fill="#000000" fill-rule="evenodd" /><path transform="matrix(1 0 0 -1 0 841)" d="M224.57 610.78L225.05 610.78L225.05 610.78L225.05 629.86L225.05 629.86L224.57 629.86z" stroke="none" fill="#000000" fill-rule="evenodd" /><path transform="matrix(1 0 0 -1 0 841)" d="M274.25 610.78L274.73 610.78L274.73 610.78L274.73 629.86L274.73 629.86L274.25 629.86z" stroke="none" fill="#000000" fill-rule="evenodd" /><path transform="matrix(1 0 0 -1 0 841)" d="M401.83 610.78L402.31 610.78L402.31 610.78L402.31 629.86L402.31 629.86L401.83 629.86z" stroke="none" fill="#000000" fill-rule="evenodd" /><path transform="matrix(1 0 0 -1 0 841)" d="M510.7 610.78L511.18 610.78L511.18 610.78L511.18 629.86L511.18 629.86L510.7 629.86z" stroke="none" fill="#000000" fill-rule="evenodd" /><path transform="matrix(1 0 0 -1 0 841)" d="M84.744 572.14L169.584 572.14L169.584 572.14L169.584 610.3L169.584 610.3L84.744 610.3z" stroke="none" fill="#DAEEF3" fill-rule="evenodd" /><g clip-path="url(#21)"><path transform="matrix(1 0 0 -1 0 841)" d="M89.904 591.22L164.424 591.22L164.424 591.22L164.424 610.3L164.424 610.3L89.904 610.3z" stroke="none" fill="#DAEEF3" fill-rule="evenodd" /><g clip-path="url(#22)"></g><g clip-path="url(#23)"></g></g><path transform="matrix(1 0 0 -1 0 841)" d="M170.06 572.14L224.444 572.14L224.444 572.14L224.444 610.3L224.444 610.3L170.06 610.3z" stroke="none" fill="#DAEEF3" fill-rule="evenodd" /><g clip-path="url(#24)"><path transform="matrix(1 0 0 -1 0 841)" d="M175.22 591.22L219.404 591.22L219.404 591.22L219.404 610.3L219.404 610.3L175.22 610.3z" stroke="none" fill="#DAEEF3" fill-rule="evenodd" /><g clip-path="url(#25)"></g><g clip-path="url(#26)"></g></g><path transform="matrix(1 0 0 -1 0 841)" d="M225.05 572.14L274.13 572.14L274.13 572.14L274.13 610.3L274.13 610.3L225.05 610.3z" stroke="none" fill="#DAEEF3" fill-rule="evenodd" /><g clip-path="url(#27)"><path transform="matrix(1 0 0 -1 0 841)" d="M230.21 591.22L268.97 591.22L268.97 591.22L268.97 610.3L268.97 610.3L230.21 610.3z" stroke="none" fill="#DAEEF3" fill-rule="evenodd" /><g clip-path="url(#28)"></g><g clip-path="url(#29)"></g></g><path transform="matrix(1 0 0 -1 0 841)" d="M274.61 572.14L401.83 572.14L401.83 572.14L401.83 610.3L401.83 610.3L274.61 610.3z" stroke="none" fill="#DAEEF3" fill-rule="evenodd" /><g clip-path="url(#30)"><path transform="matrix(1 0 0 -1 0 841)" d="M279.77 591.22L396.67 591.22L396.67 591.22L396.67 610.3L396.67 610.3L279.77 610.3z" stroke="none" fill="#DAEEF3" fill-rule="evenodd" /><g clip-path="url(#31)"></g><path transform="matrix(1 0 0 -1 0 841)" d="M279.77 572.14L396.67 572.14L396.67 572.14L396.67 591.22L396.67 591.22L279.77 591.22z" stroke="none" fill="#DAEEF3" fill-rule="evenodd" /><g clip-path="url(#32)"></g><g clip-path="url(#33)"></g></g><path transform="matrix(1 0 0 -1 0 841)" d="M402.31 572.14L510.69 572.14L510.69 572.14L510.69 610.3L510.69 610.3L402.31 610.3z" stroke="none" fill="#DAEEF3" fill-rule="evenodd" /><g clip-path="url(#34)"><path transform="matrix(1 0 0 -1 0 841)" d="M407.47 591.22L505.534 591.22L505.534 591.22L505.534 610.3L505.534 610.3L407.47 610.3z" stroke="none" fill="#DAEEF3" fill-rule="evenodd" /><g clip-path="url(#35)"></g><path transform="matrix(1 0 0 -1 0 841)" d="M407.47 572.14L505.534 572.14L505.534 572.14L505.534 591.22L505.534 591.22L407.47 591.22z" stroke="none" fill="#DAEEF3" fill-rule="evenodd" /><g clip-path="url(#36)"></g><g clip-path="url(#37)"></g><g clip-path="url(#38)"></g></g><path transform="matrix(1 0 0 -1 0 841)" d="M84.264 610.3L84.744 610.3L84.744 610.3L84.744 610.78L84.744 610.78L84.264 610.78z" stroke="none" fill="#000000" fill-rule="evenodd" /><path transform="matrix(1 0 0 -1 0 841)" d="M84.744 610.3L169.584 610.3L169.584 610.3L169.584 610.78L169.584 610.78L84.744 610.78z" stroke="none" fill="#000000" fill-rule="evenodd" /><path transform="matrix(1 0 0 -1 0 841)" d="M169.58 610.3L170.06 610.3L170.06 610.3L170.06 610.78L170.06 610.78L169.58 610.78z" stroke="none" fill="#000000" fill-rule="evenodd" /><path transform="matrix(1 0 0 -1 0 841)" d="M170.06 610.3L224.564 610.3L224.564 610.3L224.564 610.78L224.564 610.78L170.06 610.78z" stroke="none" fill="#000000" fill-rule="evenodd" /><path transform="matrix(1 0 0 -1 0 841)" d="M224.57 610.3L225.05 610.3L225.05 610.3L225.05 610.78L225.05 610.78L224.57 610.78z" stroke="none" fill="#000000" fill-rule="evenodd" /><path transform="matrix(1 0 0 -1 0 841)" d="M225.05 610.3L274.25 610.3L274.25 610.3L274.25 610.78L274.25 610.78L225.05 610.78z" stroke="none" fill="#000000" fill-rule="evenodd" /><path transform="matrix(1 0 0 -1 0 841)" d="M274.25 610.3L274.73 610.3L274.73 610.3L274.73 610.78L274.73 610.78L274.25 610.78z" stroke="none" fill="#000000" fill-rule="evenodd" /><path transform="matrix(1 0 0 -1 0 841)" d="M274.73 610.3L401.83 610.3L401.83 610.3L401.83 610.78L401.83 610.78L274.73 610.78z" stroke="none" fill="#000000" fill-rule="evenodd" /><path transform="matrix(1 0 0 -1 0 841)" d="M401.83 610.3L402.31 610.3L402.31 610.3L402.31 610.78L402.31 610.78L401.83 610.78z" stroke="none" fill="#000000" fill-rule="evenodd" /><path transform="matrix(1 0 0 -1 0 841)" d="M402.31 610.3L510.69 610.3L510.69 610.3L510.69 610.78L510.69 610.78L402.31 610.78z" stroke="none" fill="#000000" fill-rule="evenodd" /><path transform="matrix(1 0 0 -1 0 841)" d="M510.7 610.3L511.18 610.3L511.18 610.3L511.18 610.78L511.18 610.78L510.7 610.78z" stroke="none" fill="#000000" fill-rule="evenodd" /><path transform="matrix(1 0 0 -1 0 841)" d="M84.264 572.14L84.744 572.14L84.744 572.14L84.744 610.3L84.744 610.3L84.264 610.3z" stroke="none" fill="#000000" fill-rule="evenodd" /><path transform="matrix(1 0 0 -1 0 841)" d="M169.58 572.14L170.06 572.14L170.06 572.14L170.06 610.3L170.06 610.3L169.58 610.3z" stroke="none" fill="#000000" fill-rule="evenodd" /><path transform="matrix(1 0 0 -1 0 841)" d="M224.57 572.14L225.05 572.14L225.05 572.14L225.05 610.3L225.05 610.3L224.57 610.3z" stroke="none" fill="#000000" fill-rule="evenodd" /><path transform="matrix(1 0 0 -1 0 841)" d="M274.25 572.14L274.73 572.14L274.73 572.14L274.73 610.3L274.73 610.3L274.25 610.3z" stroke="none" fill="#000000" fill-rule="evenodd" /><path transform="matrix(1 0 0 -1 0 841)" d="M401.83 572.14L402.31 572.14L402.31 572.14L402.31 610.3L402.31 610.3L401.83 610.3z" stroke="none" fill="#000000" fill-rule="evenodd" /><path transform="matrix(1 0 0 -1 0 841)" d="M510.7 572.14L511.18 572.14L511.18 572.14L511.18 610.3L511.18 610.3L510.7 610.3z" stroke="none" fill="#000000" fill-rule="evenodd" /><g clip-path="url(#39)"><g clip-path="url(#40)"></g><g clip-path="url(#41)"></g></g><g clip-path="url(#42)"><g clip-path="url(#43)"></g><g clip-path="url(#44)"></g></g><g clip-path="url(#45)"><g clip-path="url(#46)"></g><g clip-path="url(#47)"></g></g><g clip-path="url(#48)"><g clip-path="url(#49)"></g><g clip-path="url(#50)"></g><g clip-path="url(#51)"></g></g><g clip-path="url(#52)"><g clip-path="url(#53)"></g><g clip-path="url(#54)"></g></g><path transform="matrix(1 0 0 -1 0 841)" d="M84.264 571.66L84.744 571.66L84.744 571.66L84.744 572.14L84.744 572.14L84.264 572.14z" stroke="none" fill="#000000" fill-rule="evenodd" /><path transform="matrix(1 0 0 -1 0 841)" d="M84.744 571.66L169.584 571.66L169.584 571.66L169.584 572.14L169.584 572.14L84.744 572.14z" stroke="none" fill="#000000" fill-rule="evenodd" /><path transform="matrix(1 0 0 -1 0 841)" d="M169.58 571.66L170.06 571.66L170.06 571.66L170.06 572.14L170.06 572.14L169.58 572.14z" stroke="none" fill="#000000" fill-rule="evenodd" /><path transform="matrix(1 0 0 -1 0 841)" d="M170.06 571.66L224.564 571.66L224.564 571.66L224.564 572.14L224.564 572.14L170.06 572.14z" stroke="none" fill="#000000" fill-rule="evenodd" /><path transform="matrix(1 0 0 -1 0 841)" d="M224.57 571.66L225.05 571.66L225.05 571.66L225.05 572.14L225.05 572.14L224.57 572.14z" stroke="none" fill="#000000" fill-rule="evenodd" /><path transform="matrix(1 0 0 -1 0 841)" d="M225.05 571.66L274.25 571.66L274.25 571.66L274.25 572.14L274.25 572.14L225.05 572.14z" stroke="none" fill="#000000" fill-rule="evenodd" /><path transform="matrix(1 0 0 -1 0 841)" d="M274.25 571.66L274.73 571.66L274.73 571.66L274.73 572.14L274.73 572.14L274.25 572.14z" stroke="none" fill="#000000" fill-rule="evenodd" /><path transform="matrix(1 0 0 -1 0 841)" d="M274.73 571.66L401.83 571.66L401.83 571.66L401.83 572.14L401.83 572.14L274.73 572.14z" stroke="none" fill="#000000" fill-rule="evenodd" /><path transform="matrix(1 0 0 -1 0 841)" d="M401.83 571.66L402.31 571.66L402.31 571.66L402.31 572.14L402.31 572.14L401.83 572.14z" stroke="none" fill="#000000" fill-rule="evenodd" /><path transform="matrix(1 0 0 -1 0 841)" d="M402.31 571.66L510.69 571.66L510.69 571.66L510.69 572.14L510.69 572.14L402.31 572.14z" stroke="none" fill="#000000" fill-rule="evenodd" /><path transform="matrix(1 0 0 -1 0 841)" d="M510.7 571.66L511.18 571.66L511.18 571.66L511.18 572.14L511.18 572.14L510.7 572.14z" stroke="none" fill="#000000" fill-rule="evenodd" /><path transform="matrix(1 0 0 -1 0 841)" d="M84.264 552.55L84.744 552.55L84.744 552.55L84.744 571.654L84.744 571.654L84.264 571.654z" stroke="none" fill="#000000" fill-rule="evenodd" /><path transform="matrix(1 0 0 -1 0 841)" d="M169.58 552.55L170.06 552.55L170.06 552.55L170.06 571.654L170.06 571.654L169.58 571.654z" stroke="none" fill="#000000" fill-rule="evenodd" /><path transform="matrix(1 0 0 -1 0 841)" d="M224.57 552.55L225.05 552.55L225.05 552.55L225.05 571.654L225.05 571.654L224.57 571.654z" stroke="none" fill="#000000" fill-rule="evenodd" /><path transform="matrix(1 0 0 -1 0 841)" d="M274.25 552.55L274.73 552.55L274.73 552.55L274.73 571.654L274.73 571.654L274.25 571.654z" stroke="none" fill="#000000" fill-rule="evenodd" /><path transform="matrix(1 0 0 -1 0 841)" d="M401.83 552.55L402.31 552.55L402.31 552.55L402.31 571.654L402.31 571.654L401.83 571.654z" stroke="none" fill="#000000" fill-rule="evenodd" /><path transform="matrix(1 0 0 -1 0 841)" d="M510.7 552.55L511.18 552.55L511.18 552.55L511.18 571.654L511.18 571.654L510.7 571.654z" stroke="none" fill="#000000" fill-rule="evenodd" /><path transform="matrix(1 0 0 -1 0 841)" d="M84.744 514.03L169.584 514.03L169.584 514.03L169.584 552.07L169.584 552.07L84.744 552.07z" stroke="none" fill="#DAEEF3" fill-rule="evenodd" /><g clip-path="url(#55)"><path transform="matrix(1 0 0 -1 0 841)" d="M89.904 532.99L164.424 532.99L164.424 532.99L164.424 552.07L164.424 552.07L89.904 552.07z" stroke="none" fill="#DAEEF3" fill-rule="evenodd" /><g clip-path="url(#56)"></g><g clip-path="url(#57)"></g></g><path transform="matrix(1 0 0 -1 0 841)" d="M170.06 514.03L224.444 514.03L224.444 514.03L224.444 552.07L224.444 552.07L170.06 552.07z" stroke="none" fill="#DAEEF3" fill-rule="evenodd" /><g clip-path="url(#58)"><path transform="matrix(1 0 0 -1 0 841)" d="M175.22 532.99L219.404 532.99L219.404 532.99L219.404 552.07L219.404 552.07L175.22 552.07z" stroke="none" fill="#DAEEF3" fill-rule="evenodd" /><g clip-path="url(#59)"></g><g clip-path="url(#60)"></g></g><path transform="matrix(1 0 0 -1 0 841)" d="M225.05 514.03L274.13 514.03L274.13 514.03L274.13 552.07L274.13 552.07L225.05 552.07z" stroke="none" fill="#DAEEF3" fill-rule="evenodd" /><g clip-path="url(#61)"><path transform="matrix(1 0 0 -1 0 841)" d="M230.21 532.99L268.97 532.99L268.97 532.99L268.97 552.07L268.97 552.07L230.21 552.07z" stroke="none" fill="#DAEEF3" fill-rule="evenodd" /><g clip-path="url(#62)"></g><g clip-path="url(#63)"></g></g><path transform="matrix(1 0 0 -1 0 841)" d="M274.61 514.03L401.83 514.03L401.83 514.03L401.83 552.07L401.83 552.07L274.61 552.07z" stroke="none" fill="#DAEEF3" fill-rule="evenodd" /><g clip-path="url(#64)"><path transform="matrix(1 0 0 -1 0 841)" d="M279.77 532.99L396.67 532.99L396.67 532.99L396.67 552.07L396.67 552.07L279.77 552.07z" stroke="none" fill="#DAEEF3" fill-rule="evenodd" /><g clip-path="url(#65)"></g><g clip-path="url(#66)"></g></g><path transform="matrix(1 0 0 -1 0 841)" d="M402.31 514.03L510.69 514.03L510.69 514.03L510.69 552.07L510.69 552.07L402.31 552.07z" stroke="none" fill="#DAEEF3" fill-rule="evenodd" /><g clip-path="url(#67)"><path transform="matrix(1 0 0 -1 0 841)" d="M407.47 532.99L505.534 532.99L505.534 532.99L505.534 552.07L505.534 552.07L407.47 552.07z" stroke="none" fill="#DAEEF3" fill-rule="evenodd" /><g clip-path="url(#68)"></g><path transform="matrix(1 0 0 -1 0 841)" d="M407.47 514.03L505.534 514.03L505.534 514.03L505.534 532.9901L505.534 532.9901L407.47 532.9901z" stroke="none" fill="#DAEEF3" fill-rule="evenodd" /><g clip-path="url(#69)"></g><g clip-path="url(#70)"></g></g><path transform="matrix(1 0 0 -1 0 841)" d="M84.264 552.07L84.744 552.07L84.744 552.07L84.744 552.55L84.744 552.55L84.264 552.55z" stroke="none" fill="#000000" fill-rule="evenodd" /><path transform="matrix(1 0 0 -1 0 841)" d="M84.744 552.07L169.584 552.07L169.584 552.07L169.584 552.55L169.584 552.55L84.744 552.55z" stroke="none" fill="#000000" fill-rule="evenodd" /><path transform="matrix(1 0 0 -1 0 841)" d="M169.58 552.07L170.06 552.07L170.06 552.07L170.06 552.55L170.06 552.55L169.58 552.55z" stroke="none" fill="#000000" fill-rule="evenodd" /><path transform="matrix(1 0 0 -1 0 841)" d="M170.06 552.07L224.564 552.07L224.564 552.07L224.564 552.55L224.564 552.55L170.06 552.55z" stroke="none" fill="#000000" fill-rule="evenodd" /><path transform="matrix(1 0 0 -1 0 841)" d="M224.57 552.07L225.05 552.07L225.05 552.07L225.05 552.55L225.05 552.55L224.57 552.55z" stroke="none" fill="#000000" fill-rule="evenodd" /><path transform="matrix(1 0 0 -1 0 841)" d="M225.05 552.07L274.25 552.07L274.25 552.07L274.25 552.55L274.25 552.55L225.05 552.55z" stroke="none" fill="#000000" fill-rule="evenodd" /><path transform="matrix(1 0 0 -1 0 841)" d="M274.25 552.07L274.73 552.07L274.73 552.07L274.73 552.55L274.73 552.55L274.25 552.55z" stroke="none" fill="#000000" fill-rule="evenodd" /><path transform="matrix(1 0 0 -1 0 841)" d="M274.73 552.07L401.83 552.07L401.83 552.07L401.83 552.55L401.83 552.55L274.73 552.55z" stroke="none" fill="#000000" fill-rule="evenodd" /><path transform="matrix(1 0 0 -1 0 841)" d="M401.83 552.07L402.31 552.07L402.31 552.07L402.31 552.55L402.31 552.55L401.83 552.55z" stroke="none" fill="#000000" fill-rule="evenodd" /><path transform="matrix(1 0 0 -1 0 841)" d="M402.31 552.07L510.69 552.07L510.69 552.07L510.69 552.55L510.69 552.55L402.31 552.55z" stroke="none" fill="#000000" fill-rule="evenodd" /><path transform="matrix(1 0 0 -1 0 841)" d="M510.7 552.07L511.18 552.07L511.18 552.07L511.18 552.55L511.18 552.55L510.7 552.55z" stroke="none" fill="#000000" fill-rule="evenodd" /><path transform="matrix(1 0 0 -1 0 841)" d="M84.264 514.03L84.744 514.03L84.744 514.03L84.744 552.07L84.744 552.07L84.264 552.07z" stroke="none" fill="#000000" fill-rule="evenodd" /><path transform="matrix(1 0 0 -1 0 841)" d="M169.58 514.03L170.06 514.03L170.06 514.03L170.06 552.07L170.06 552.07L169.58 552.07z" stroke="none" fill="#000000" fill-rule="evenodd" /><path transform="matrix(1 0 0 -1 0 841)" d="M224.57 514.03L225.05 514.03L225.05 514.03L225.05 552.07L225.05 552.07L224.57 552.07z" stroke="none" fill="#000000" fill-rule="evenodd" /><path transform="matrix(1 0 0 -1 0 841)" d="M274.25 514.03L274.73 514.03L274.73 514.03L274.73 552.07L274.73 552.07L274.25 552.07z" stroke="none" fill="#000000" fill-rule="evenodd" /><path transform="matrix(1 0 0 -1 0 841)" d="M401.83 514.03L402.31 514.03L402.31 514.03L402.31 552.07L402.31 552.07L401.83 552.07z" stroke="none" fill="#000000" fill-rule="evenodd" /><path transform="matrix(1 0 0 -1 0 841)" d="M510.7 514.03L511.18 514.03L511.18 514.03L511.18 552.07L511.18 552.07L510.7 552.07z" stroke="none" fill="#000000" fill-rule="evenodd" /><g clip-path="url(#71)"><g clip-path="url(#72)"></g><g clip-path="url(#73)"></g></g><g clip-path="url(#74)"><g clip-path="url(#75)"></g><g clip-path="url(#76)"></g></g><g clip-path="url(#77)"><g clip-path="url(#78)"></g><g clip-path="url(#79)"></g></g><g clip-path="url(#80)"><g clip-path="url(#81)"></g><g clip-path="url(#82)"></g></g><g clip-path="url(#83)"><g clip-path="url(#84)"></g><g clip-path="url(#85)"></g></g><path transform="matrix(1 0 0 -1 0 841)" d="M84.264 513.55L84.744 513.55L84.744 513.55L84.744 514.03L84.744 514.03L84.264 514.03z" stroke="none" fill="#000000" fill-rule="evenodd" /><path transform="matrix(1 0 0 -1 0 841)" d="M84.744 513.55L169.584 513.55L169.584 513.55L169.584 514.03L169.584 514.03L84.744 514.03z" stroke="none" fill="#000000" fill-rule="evenodd" /><path transform="matrix(1 0 0 -1 0 841)" d="M169.58 513.55L170.06 513.55L170.06 513.55L170.06 514.03L170.06 514.03L169.58 514.03z" stroke="none" fill="#000000" fill-rule="evenodd" /><path transform="matrix(1 0 0 -1 0 841)" d="M170.06 513.55L224.564 513.55L224.564 513.55L224.564 514.03L224.564 514.03L170.06 514.03z" stroke="none" fill="#000000" fill-rule="evenodd" /><path transform="matrix(1 0 0 -1 0 841)" d="M224.57 513.55L225.05 513.55L225.05 513.55L225.05 514.03L225.05 514.03L224.57 514.03z" stroke="none" fill="#000000" fill-rule="evenodd" /><path transform="matrix(1 0 0 -1 0 841)" d="M225.05 513.55L274.25 513.55L274.25 513.55L274.25 514.03L274.25 514.03L225.05 514.03z" stroke="none" fill="#000000" fill-rule="evenodd" /><path transform="matrix(1 0 0 -1 0 841)" d="M274.25 513.55L274.73 513.55L274.73 513.55L274.73 514.03L274.73 514.03L274.25 514.03z" stroke="none" fill="#000000" fill-rule="evenodd" /><path transform="matrix(1 0 0 -1 0 841)" d="M274.73 513.55L401.83 513.55L401.83 513.55L401.83 514.03L401.83 514.03L274.73 514.03z" stroke="none" fill="#000000" fill-rule="evenodd" /><path transform="matrix(1 0 0 -1 0 841)" d="M401.83 513.55L402.31 513.55L402.31 513.55L402.31 514.03L402.31 514.03L401.83 514.03z" stroke="none" fill="#000000" fill-rule="evenodd" /><path transform="matrix(1 0 0 -1 0 841)" d="M402.31 513.55L510.69 513.55L510.69 513.55L510.69 514.03L510.69 514.03L402.31 514.03z" stroke="none" fill="#000000" fill-rule="evenodd" /><path transform="matrix(1 0 0 -1 0 841)" d="M510.7 513.55L511.18 513.55L511.18 513.55L511.18 514.03L511.18 514.03L510.7 514.03z" stroke="none" fill="#000000" fill-rule="evenodd" /><path transform="matrix(1 0 0 -1 0 841)" d="M84.264 494.47L84.744 494.47L84.744 494.47L84.744 513.55L84.744 513.55L84.264 513.55z" stroke="none" fill="#000000" fill-rule="evenodd" /><path transform="matrix(1 0 0 -1 0 841)" d="M169.58 494.47L170.06 494.47L170.06 494.47L170.06 513.55L170.06 513.55L169.58 513.55z" stroke="none" fill="#000000" fill-rule="evenodd" /><path transform="matrix(1 0 0 -1 0 841)" d="M224.57 494.47L225.05 494.47L225.05 494.47L225.05 513.55L225.05 513.55L224.57 513.55z" stroke="none" fill="#000000" fill-rule="evenodd" /><path transform="matrix(1 0 0 -1 0 841)" d="M274.25 494.47L274.73 494.47L274.73 494.47L274.73 513.55L274.73 513.55L274.25 513.55z" stroke="none" fill="#000000" fill-rule="evenodd" /><path transform="matrix(1 0 0 -1 0 841)" d="M401.83 494.47L402.31 494.47L402.31 494.47L402.31 513.55L402.31 513.55L401.83 513.55z" stroke="none" fill="#000000" fill-rule="evenodd" /><path transform="matrix(1 0 0 -1 0 841)" d="M510.7 494.47L511.18 494.47L511.18 494.47L511.18 513.55L511.18 513.55L510.7 513.55z" stroke="none" fill="#000000" fill-rule="evenodd" /><path transform="matrix(1 0 0 -1 0 841)" d="M84.744 417.79L169.584 417.79L169.584 417.79L169.584 493.99L169.584 493.99L84.744 493.99z" stroke="none" fill="#DAEEF3" fill-rule="evenodd" /><g clip-path="url(#86)"><path transform="matrix(1 0 0 -1 0 841)" d="M89.904 474.91L164.424 474.91L164.424 474.91L164.424 493.99L164.424 493.99L89.904 493.99z" stroke="none" fill="#DAEEF3" fill-rule="evenodd" /><g clip-path="url(#87)"></g><g clip-path="url(#88)"></g></g><path transform="matrix(1 0 0 -1 0 841)" d="M170.06 417.79L224.444 417.79L224.444 417.79L224.444 493.99L224.444 493.99L170.06 493.99z" stroke="none" fill="#DAEEF3" fill-rule="evenodd" /><g clip-path="url(#89)"><path transform="matrix(1 0 0 -1 0 841)" d="M175.22 474.91L219.404 474.91L219.404 474.91L219.404 493.99L219.404 493.99L175.22 493.99z" stroke="none" fill="#DAEEF3" fill-rule="evenodd" /><g clip-path="url(#90)"></g><g clip-path="url(#91)"></g></g><path transform="matrix(1 0 0 -1 0 841)" d="M225.05 417.79L274.13 417.79L274.13 417.79L274.13 493.99L274.13 493.99L225.05 493.99z" stroke="none" fill="#DAEEF3" fill-rule="evenodd" /><g clip-path="url(#92)"><path transform="matrix(1 0 0 -1 0 841)" d="M230.21 474.91L268.97 474.91L268.97 474.91L268.97 493.99L268.97 493.99L230.21 493.99z" stroke="none" fill="#DAEEF3" fill-rule="evenodd" /><g clip-path="url(#93)"></g><g clip-path="url(#94)"></g></g><path transform="matrix(1 0 0 -1 0 841)" d="M274.61 417.79L401.83 417.79L401.83 417.79L401.83 493.99L401.83 493.99L274.61 493.99z" stroke="none" fill="#DAEEF3" fill-rule="evenodd" /><g clip-path="url(#95)"><path transform="matrix(1 0 0 -1 0 841)" d="M279.77 474.91L396.67 474.91L396.67 474.91L396.67 493.99L396.67 493.99L279.77 493.99z" stroke="none" fill="#DAEEF3" fill-rule="evenodd" /><g clip-path="url(#96)"></g><g clip-path="url(#97)"></g></g><path transform="matrix(1 0 0 -1 0 841)" d="M402.31 417.79L510.69 417.79L510.69 417.79L510.69 493.99L510.69 493.99L402.31 493.99z" stroke="none" fill="#DAEEF3" fill-rule="evenodd" /><g clip-path="url(#98)"><path transform="matrix(1 0 0 -1 0 841)" d="M407.47 474.91L505.534 474.91L505.534 474.91L505.534 493.99L505.534 493.99L407.47 493.99z" stroke="none" fill="#DAEEF3" fill-rule="evenodd" /><g clip-path="url(#99)"></g><g clip-path="url(#100)"></g><g clip-path="url(#101)"></g><path transform="matrix(1 0 0 -1 0 841)" d="M439.03 476.83L492.094 476.83L492.094 476.83L492.094 477.79L492.094 477.79L439.03 477.79z" stroke="none" fill="#000000" fill-rule="evenodd" /><path transform="matrix(1 0 0 -1 0 841)" d="M407.47 455.83L505.534 455.83L505.534 455.83L505.534 474.91L505.534 474.91L407.47 474.91z" stroke="none" fill="#DAEEF3" fill-rule="evenodd" /><g clip-path="url(#102)"></g><g clip-path="url(#103)"></g><g clip-path="url(#104)"></g><g clip-path="url(#105)"></g><g clip-path="url(#106)"></g><g clip-path="url(#107)"></g><path transform="matrix(1 0 0 -1 0 841)" d="M407.47 436.75L505.534 436.75L505.534 436.75L505.534 455.83L505.534 455.83L407.47 455.83z" stroke="none" fill="#DAEEF3" fill-rule="evenodd" /><g clip-path="url(#108)"></g><g clip-path="url(#109)"></g><g clip-path="url(#110)"></g><g clip-path="url(#111)"></g><g clip-path="url(#112)"></g><path transform="matrix(1 0 0 -1 0 841)" d="M407.47 417.79L505.534 417.79L505.534 417.79L505.534 436.75L505.534 436.75L407.47 436.75z" stroke="none" fill="#DAEEF3" fill-rule="evenodd" /><g clip-path="url(#113)"></g><g clip-path="url(#114)"></g><g clip-path="url(#115)"></g><g clip-path="url(#116)"></g></g><path transform="matrix(1 0 0 -1 0 841)" d="M84.264 493.99L84.744 493.99L84.744 493.99L84.744 494.47L84.744 494.47L84.264 494.47z" stroke="none" fill="#000000" fill-rule="evenodd" /><path transform="matrix(1 0 0 -1 0 841)" d="M84.744 493.99L169.584 493.99L169.584 493.99L169.584 494.47L169.584 494.47L84.744 494.47z" stroke="none" fill="#000000" fill-rule="evenodd" /><path transform="matrix(1 0 0 -1 0 841)" d="M169.58 493.99L170.06 493.99L170.06 493.99L170.06 494.47L170.06 494.47L169.58 494.47z" stroke="none" fill="#000000" fill-rule="evenodd" /><path transform="matrix(1 0 0 -1 0 841)" d="M170.06 493.99L224.564 493.99L224.564 493.99L224.564 494.47L224.564 494.47L170.06 494.47z" stroke="none" fill="#000000" fill-rule="evenodd" /><path transform="matrix(1 0 0 -1 0 841)" d="M224.57 493.99L225.05 493.99L225.05 493.99L225.05 494.47L225.05 494.47L224.57 494.47z" stroke="none" fill="#000000" fill-rule="evenodd" /><path transform="matrix(1 0 0 -1 0 841)" d="M225.05 493.99L274.25 493.99L274.25 493.99L274.25 494.47L274.25 494.47L225.05 494.47z" stroke="none" fill="#000000" fill-rule="evenodd" /><path transform="matrix(1 0 0 -1 0 841)" d="M274.25 493.99L274.73 493.99L274.73 493.99L274.73 494.47L274.73 494.47L274.25 494.47z" stroke="none" fill="#000000" fill-rule="evenodd" /><path transform="matrix(1 0 0 -1 0 841)" d="M274.73 493.99L401.83 493.99L401.83 493.99L401.83 494.47L401.83 494.47L274.73 494.47z" stroke="none" fill="#000000" fill-rule="evenodd" /><path transform="matrix(1 0 0 -1 0 841)" d="M401.83 493.99L402.31 493.99L402.31 493.99L402.31 494.47L402.31 494.47L401.83 494.47z" stroke="none" fill="#000000" fill-rule="evenodd" /><path transform="matrix(1 0 0 -1 0 841)" d="M402.31 493.99L510.69 493.99L510.69 493.99L510.69 494.47L510.69 494.47L402.31 494.47z" stroke="none" fill="#000000" fill-rule="evenodd" /><path transform="matrix(1 0 0 -1 0 841)" d="M510.7 493.99L511.18 493.99L511.18 493.99L511.18 494.47L511.18 494.47L510.7 494.47z" stroke="none" fill="#000000" fill-rule="evenodd" /><path transform="matrix(1 0 0 -1 0 841)" d="M84.264 417.79L84.744 417.79L84.744 417.79L84.744 493.99L84.744 493.99L84.264 493.99z" stroke="none" fill="#000000" fill-rule="evenodd" /><path transform="matrix(1 0 0 -1 0 841)" d="M169.58 417.79L170.06 417.79L170.06 417.79L170.06 493.99L170.06 493.99L169.58 493.99z" stroke="none" fill="#000000" fill-rule="evenodd" /><path transform="matrix(1 0 0 -1 0 841)" d="M224.57 417.79L225.05 417.79L225.05 417.79L225.05 493.99L225.05 493.99L224.57 493.99z" stroke="none" fill="#000000" fill-rule="evenodd" /><path transform="matrix(1 0 0 -1 0 841)" d="M274.25 417.79L274.73 417.79L274.73 417.79L274.73 493.99L274.73 493.99L274.25 493.99z" stroke="none" fill="#000000" fill-rule="evenodd" /><path transform="matrix(1 0 0 -1 0 841)" d="M401.83 417.79L402.31 417.79L402.31 417.79L402.31 493.99L402.31 493.99L401.83 493.99z" stroke="none" fill="#000000" fill-rule="evenodd" /><path transform="matrix(1 0 0 -1 0 841)" d="M510.7 417.79L511.18 417.79L511.18 417.79L511.18 493.99L511.18 493.99L510.7 493.99z" stroke="none" fill="#000000" fill-rule="evenodd" /><g clip-path="url(#117)"><g clip-path="url(#118)"></g><g clip-path="url(#119)"></g></g><g clip-path="url(#120)"><g clip-path="url(#121)"></g><g clip-path="url(#122)"></g><g clip-path="url(#123)"></g></g><g clip-path="url(#124)"><g clip-path="url(#125)"></g><g clip-path="url(#126)"></g></g><g clip-path="url(#127)"><g clip-path="url(#128)"></g><g clip-path="url(#129)"></g></g><g clip-path="url(#130)"><g clip-path="url(#131)"></g><g clip-path="url(#132)"></g><g clip-path="url(#133)"></g></g><path transform="matrix(1 0 0 -1 0 841)" d="M84.264 417.31L84.744 417.31L84.744 417.31L84.744 417.79L84.744 417.79L84.264 417.79z" stroke="none" fill="#000000" fill-rule="evenodd" /><path transform="matrix(1 0 0 -1 0 841)" d="M84.744 417.31L169.584 417.31L169.584 417.31L169.584 417.79L169.584 417.79L84.744 417.79z" stroke="none" fill="#000000" fill-rule="evenodd" /><path transform="matrix(1 0 0 -1 0 841)" d="M169.58 417.31L170.06 417.31L170.06 417.31L170.06 417.79L170.06 417.79L169.58 417.79z" stroke="none" fill="#000000" fill-rule="evenodd" /><path transform="matrix(1 0 0 -1 0 841)" d="M170.06 417.31L224.564 417.31L224.564 417.31L224.564 417.79L224.564 417.79L170.06 417.79z" stroke="none" fill="#000000" fill-rule="evenodd" /><path transform="matrix(1 0 0 -1 0 841)" d="M224.57 417.31L225.05 417.31L225.05 417.31L225.05 417.79L225.05 417.79L224.57 417.79z" stroke="none" fill="#000000" fill-rule="evenodd" /><path transform="matrix(1 0 0 -1 0 841)" d="M225.05 417.31L274.25 417.31L274.25 417.31L274.25 417.79L274.25 417.79L225.05 417.79z" stroke="none" fill="#000000" fill-rule="evenodd" /><path transform="matrix(1 0 0 -1 0 841)" d="M274.25 417.31L274.73 417.31L274.73 417.31L274.73 417.79L274.73 417.79L274.25 417.79z" stroke="none" fill="#000000" fill-rule="evenodd" /><path transform="matrix(1 0 0 -1 0 841)" d="M274.73 417.31L401.83 417.31L401.83 417.31L401.83 417.79L401.83 417.79L274.73 417.79z" stroke="none" fill="#000000" fill-rule="evenodd" /><path transform="matrix(1 0 0 -1 0 841)" d="M401.83 417.31L402.31 417.31L402.31 417.31L402.31 417.79L402.31 417.79L401.83 417.79z" stroke="none" fill="#000000" fill-rule="evenodd" /><path transform="matrix(1 0 0 -1 0 841)" d="M402.31 417.31L510.69 417.31L510.69 417.31L510.69 417.79L510.69 417.79L402.31 417.79z" stroke="none" fill="#000000" fill-rule="evenodd" /><path transform="matrix(1 0 0 -1 0 841)" d="M510.7 417.31L511.18 417.31L511.18 417.31L511.18 417.79L511.18 417.79L510.7 417.79z" stroke="none" fill="#000000" fill-rule="evenodd" /><path transform="matrix(1 0 0 -1 0 841)" d="M84.264 379.15L84.744 379.15L84.744 379.15L84.744 417.31L84.744 417.31L84.264 417.31z" stroke="none" fill="#000000" fill-rule="evenodd" /><path transform="matrix(1 0 0 -1 0 841)" d="M169.58 379.15L170.06 379.15L170.06 379.15L170.06 417.31L170.06 417.31L169.58 417.31z" stroke="none" fill="#000000" fill-rule="evenodd" /><path transform="matrix(1 0 0 -1 0 841)" d="M224.57 379.15L225.05 379.15L225.05 379.15L225.05 417.31L225.05 417.31L224.57 417.31z" stroke="none" fill="#000000" fill-rule="evenodd" /><path transform="matrix(1 0 0 -1 0 841)" d="M274.25 379.15L274.73 379.15L274.73 379.15L274.73 417.31L274.73 417.31L274.25 417.31z" stroke="none" fill="#000000" fill-rule="evenodd" /><path transform="matrix(1 0 0 -1 0 841)" d="M401.83 379.15L402.31 379.15L402.31 379.15L402.31 417.31L402.31 417.31L401.83 417.31z" stroke="none" fill="#000000" fill-rule="evenodd" /><path transform="matrix(1 0 0 -1 0 841)" d="M510.7 379.15L511.18 379.15L511.18 379.15L511.18 417.31L511.18 417.31L510.7 417.31z" stroke="none" fill="#000000" fill-rule="evenodd" /><path transform="matrix(1 0 0 -1 0 841)" d="M84.744 340.49L169.584 340.49L169.584 340.49L169.584 378.674L169.584 378.674L84.744 378.674z" stroke="none" fill="#DAEEF3" fill-rule="evenodd" /><g clip-path="url(#134)"><path transform="matrix(1 0 0 -1 0 841)" d="M89.904 359.57L164.424 359.57L164.424 359.57L164.424 378.674L164.424 378.674L89.904 378.674z" stroke="none" fill="#DAEEF3" fill-rule="evenodd" /><g clip-path="url(#135)"></g><path transform="matrix(1 0 0 -1 0 841)" d="M89.904 340.49L164.424 340.49L164.424 340.49L164.424 359.57L164.424 359.57L89.904 359.57z" stroke="none" fill="#DAEEF3" fill-rule="evenodd" /><g clip-path="url(#136)"></g><g clip-path="url(#137)"></g></g><path transform="matrix(1 0 0 -1 0 841)" d="M170.06 340.49L224.444 340.49L224.444 340.49L224.444 378.674L224.444 378.674L170.06 378.674z" stroke="none" fill="#DAEEF3" fill-rule="evenodd" /><g clip-path="url(#138)"><path transform="matrix(1 0 0 -1 0 841)" d="M175.22 359.57L219.404 359.57L219.404 359.57L219.404 378.674L219.404 378.674L175.22 378.674z" stroke="none" fill="#DAEEF3" fill-rule="evenodd" /><g clip-path="url(#139)"></g><path transform="matrix(1 0 0 -1 0 841)" d="M175.22 340.49L219.404 340.49L219.404 340.49L219.404 359.57L219.404 359.57L175.22 359.57z" stroke="none" fill="#DAEEF3" fill-rule="evenodd" /><g clip-path="url(#140)"></g><g clip-path="url(#141)"></g></g><path transform="matrix(1 0 0 -1 0 841)" d="M225.05 340.49L274.13 340.49L274.13 340.49L274.13 378.674L274.13 378.674L225.05 378.674z" stroke="none" fill="#DAEEF3" fill-rule="evenodd" /><g clip-path="url(#142)"><path transform="matrix(1 0 0 -1 0 841)" d="M230.21 359.57L268.97 359.57L268.97 359.57L268.97 378.674L268.97 378.674L230.21 378.674z" stroke="none" fill="#DAEEF3" fill-rule="evenodd" /><g clip-path="url(#143)"></g><g clip-path="url(#144)"></g></g><path transform="matrix(1 0 0 -1 0 841)" d="M274.61 340.49L401.83 340.49L401.83 340.49L401.83 378.674L401.83 378.674L274.61 378.674z" stroke="none" fill="#DAEEF3" fill-rule="evenodd" /><g clip-path="url(#145)"><path transform="matrix(1 0 0 -1 0 841)" d="M279.77 359.57L396.67 359.57L396.67 359.57L396.67 378.674L396.67 378.674L279.77 378.674z" stroke="none" fill="#DAEEF3" fill-rule="evenodd" /><g clip-path="url(#146)"></g><g clip-path="url(#147)"></g></g><path transform="matrix(1 0 0 -1 0 841)" d="M402.31 340.49L510.69 340.49L510.69 340.49L510.69 378.674L510.69 378.674L402.31 378.674z" stroke="none" fill="#DAEEF3" fill-rule="evenodd" /><g clip-path="url(#148)"><path transform="matrix(1 0 0 -1 0 841)" d="M407.47 359.57L505.534 359.57L505.534 359.57L505.534 378.674L505.534 378.674L407.47 378.674z" stroke="none" fill="#DAEEF3" fill-rule="evenodd" /><g clip-path="url(#149)"></g><g clip-path="url(#150)"></g></g><path transform="matrix(1 0 0 -1 0 841)" d="M84.264 378.67L84.744 378.67L84.744 378.67L84.744 379.15L84.744 379.15L84.264 379.15z" stroke="none" fill="#000000" fill-rule="evenodd" /><path transform="matrix(1 0 0 -1 0 841)" d="M84.744 378.67L169.584 378.67L169.584 378.67L169.584 379.15L169.584 379.15L84.744 379.15z" stroke="none" fill="#000000" fill-rule="evenodd" /><path transform="matrix(1 0 0 -1 0 841)" d="M169.58 378.67L170.06 378.67L170.06 378.67L170.06 379.15L170.06 379.15L169.58 379.15z" stroke="none" fill="#000000" fill-rule="evenodd" /><path transform="matrix(1 0 0 -1 0 841)" d="M170.06 378.67L224.564 378.67L224.564 378.67L224.564 379.15L224.564 379.15L170.06 379.15z" stroke="none" fill="#000000" fill-rule="evenodd" /><path transform="matrix(1 0 0 -1 0 841)" d="M224.57 378.67L225.05 378.67L225.05 378.67L225.05 379.15L225.05 379.15L224.57 379.15z" stroke="none" fill="#000000" fill-rule="evenodd" /><path transform="matrix(1 0 0 -1 0 841)" d="M225.05 378.67L274.25 378.67L274.25 378.67L274.25 379.15L274.25 379.15L225.05 379.15z" stroke="none" fill="#000000" fill-rule="evenodd" /><path transform="matrix(1 0 0 -1 0 841)" d="M274.25 378.67L274.73 378.67L274.73 378.67L274.73 379.15L274.73 379.15L274.25 379.15z" stroke="none" fill="#000000" fill-rule="evenodd" /><path transform="matrix(1 0 0 -1 0 841)" d="M274.73 378.67L401.83 378.67L401.83 378.67L401.83 379.15L401.83 379.15L274.73 379.15z" stroke="none" fill="#000000" fill-rule="evenodd" /><path transform="matrix(1 0 0 -1 0 841)" d="M401.83 378.67L402.31 378.67L402.31 378.67L402.31 379.15L402.31 379.15L401.83 379.15z" stroke="none" fill="#000000" fill-rule="evenodd" /><path transform="matrix(1 0 0 -1 0 841)" d="M402.31 378.67L510.69 378.67L510.69 378.67L510.69 379.15L510.69 379.15L402.31 379.15z" stroke="none" fill="#000000" fill-rule="evenodd" /><path transform="matrix(1 0 0 -1 0 841)" d="M510.7 378.67L511.18 378.67L511.18 378.67L511.18 379.15L511.18 379.15L510.7 379.15z" stroke="none" fill="#000000" fill-rule="evenodd" /><path transform="matrix(1 0 0 -1 0 841)" d="M84.264 340.49L84.744 340.49L84.744 340.49L84.744 378.674L84.744 378.674L84.264 378.674z" stroke="none" fill="#000000" fill-rule="evenodd" /><path transform="matrix(1 0 0 -1 0 841)" d="M84.264 340.01L84.744 340.01L84.744 340.01L84.744 340.49L84.744 340.49L84.264 340.49z" stroke="none" fill="#000000" fill-rule="evenodd" /><path transform="matrix(1 0 0 -1 0 841)" d="M84.264 340.01L84.744 340.01L84.744 340.01L84.744 340.49L84.744 340.49L84.264 340.49z" stroke="none" fill="#000000" fill-rule="evenodd" /><path transform="matrix(1 0 0 -1 0 841)" d="M84.744 340.01L169.584 340.01L169.584 340.01L169.584 340.49L169.584 340.49L84.744 340.49z" stroke="none" fill="#000000" fill-rule="evenodd" /><path transform="matrix(1 0 0 -1 0 841)" d="M169.58 340.49L170.06 340.49L170.06 340.49L170.06 378.674L170.06 378.674L169.58 378.674z" stroke="none" fill="#000000" fill-rule="evenodd" /><path transform="matrix(1 0 0 -1 0 841)" d="M169.58 340.01L170.06 340.01L170.06 340.01L170.06 340.49L170.06 340.49L169.58 340.49z" stroke="none" fill="#000000" fill-rule="evenodd" /><path transform="matrix(1 0 0 -1 0 841)" d="M170.06 340.01L224.564 340.01L224.564 340.01L224.564 340.49L224.564 340.49L170.06 340.49z" stroke="none" fill="#000000" fill-rule="evenodd" /><path transform="matrix(1 0 0 -1 0 841)" d="M224.57 340.49L225.05 340.49L225.05 340.49L225.05 378.674L225.05 378.674L224.57 378.674z" stroke="none" fill="#000000" fill-rule="evenodd" /><path transform="matrix(1 0 0 -1 0 841)" d="M224.57 340.01L225.05 340.01L225.05 340.01L225.05 340.49L225.05 340.49L224.57 340.49z" stroke="none" fill="#000000" fill-rule="evenodd" /><path transform="matrix(1 0 0 -1 0 841)" d="M225.05 340.01L274.25 340.01L274.25 340.01L274.25 340.49L274.25 340.49L225.05 340.49z" stroke="none" fill="#000000" fill-rule="evenodd" /><path transform="matrix(1 0 0 -1 0 841)" d="M274.25 340.49L274.73 340.49L274.73 340.49L274.73 378.674L274.73 378.674L274.25 378.674z" stroke="none" fill="#000000" fill-rule="evenodd" /><path transform="matrix(1 0 0 -1 0 841)" d="M274.25 340.01L274.73 340.01L274.73 340.01L274.73 340.49L274.73 340.49L274.25 340.49z" stroke="none" fill="#000000" fill-rule="evenodd" /><path transform="matrix(1 0 0 -1 0 841)" d="M274.73 340.01L401.83 340.01L401.83 340.01L401.83 340.49L401.83 340.49L274.73 340.49z" stroke="none" fill="#000000" fill-rule="evenodd" /><path transform="matrix(1 0 0 -1 0 841)" d="M401.83 340.49L402.31 340.49L402.31 340.49L402.31 378.674L402.31 378.674L401.83 378.674z" stroke="none" fill="#000000" fill-rule="evenodd" /><path transform="matrix(1 0 0 -1 0 841)" d="M401.83 340.01L402.31 340.01L402.31 340.01L402.31 340.49L402.31 340.49L401.83 340.49z" stroke="none" fill="#000000" fill-rule="evenodd" /><path transform="matrix(1 0 0 -1 0 841)" d="M402.31 340.01L510.69 340.01L510.69 340.01L510.69 340.49L510.69 340.49L402.31 340.49z" stroke="none" fill="#000000" fill-rule="evenodd" /><path transform="matrix(1 0 0 -1 0 841)" d="M510.7 340.49L511.18 340.49L511.18 340.49L511.18 378.674L511.18 378.674L510.7 378.674z" stroke="none" fill="#000000" fill-rule="evenodd" /><path transform="matrix(1 0 0 -1 0 841)" d="M510.7 340.01L511.18 340.01L511.18 340.01L511.18 340.49L511.18 340.49L510.7 340.49z" stroke="none" fill="#000000" fill-rule="evenodd" /><path transform="matrix(1 0 0 -1 0 841)" d="M510.7 340.01L511.18 340.01L511.18 340.01L511.18 340.49L511.18 340.49L510.7 340.49z" stroke="none" fill="#000000" fill-rule="evenodd" /><g clip-path="url(#151)"><path transform="matrix(1 0 0 -1 0 841)" d="M85.344 300.53L500.014 300.53L500.014 300.53L500.014 319.61L500.014 319.61L85.344 319.61z" stroke="none" fill="#0070C0" fill-rule="evenodd" /><g clip-path="url(#152)"><path transform="matrix(1 0 0 -1 0 841)" d="M90.504 300.53L494.854 300.53L494.854 300.53L494.854 319.61L494.854 319.61L90.504 319.61z" stroke="none" fill="#0070C0" fill-rule="evenodd" /><g clip-path="url(#153)"></g><g clip-path="url(#154)"></g><g clip-path="url(#155)"></g></g><path transform="matrix(1 0 0 -1 0 841)" d="M84.864 319.61L85.344 319.61L85.344 319.61L85.344 320.09L85.344 320.09L84.864 320.09z" stroke="none" fill="#000000" fill-rule="evenodd" /><path transform="matrix(1 0 0 -1 0 841)" d="M84.864 319.61L85.344 319.61L85.344 319.61L85.344 320.09L85.344 320.09L84.864 320.09z" stroke="none" fill="#000000" fill-rule="evenodd" /><path transform="matrix(1 0 0 -1 0 841)" d="M85.344 319.61L500.014 319.61L500.014 319.61L500.014 320.09L500.014 320.09L85.344 320.09z" stroke="none" fill="#000000" fill-rule="evenodd" /><path transform="matrix(1 0 0 -1 0 841)" d="M500.02 319.61L500.5 319.61L500.5 319.61L500.5 320.09L500.5 320.09L500.02 320.09z" stroke="none" fill="#000000" fill-rule="evenodd" /><path transform="matrix(1 0 0 -1 0 841)" d="M500.02 319.61L500.5 319.61L500.5 319.61L500.5 320.09L500.5 320.09L500.02 320.09z" stroke="none" fill="#000000" fill-rule="evenodd" /><path transform="matrix(1 0 0 -1 0 841)" d="M84.864 300.53L85.344 300.53L85.344 300.53L85.344 319.61L85.344 319.61L84.864 319.61z" stroke="none" fill="#000000" fill-rule="evenodd" /><path transform="matrix(1 0 0 -1 0 841)" d="M500.02 300.53L500.5 300.53L500.5 300.53L500.5 319.61L500.5 319.61L500.02 319.61z" stroke="none" fill="#000000" fill-rule="evenodd" /><path transform="matrix(1 0 0 -1 0 841)" d="M85.344 128.54L500.014 128.54L500.014 128.54L500.014 300.04L500.014 300.04L85.344 300.04z" stroke="none" fill="#DAEEF3" fill-rule="evenodd" /><g clip-path="url(#156)"><path transform="matrix(1 0 0 -1 0 841)" d="M90.504 280.97L494.854 280.97L494.854 280.97L494.854 300.05L494.854 300.05L90.504 300.05z" stroke="none" fill="#DAEEF3" fill-rule="evenodd" /><g clip-path="url(#157)"></g><g clip-path="url(#158)"></g><path transform="matrix(1 0 0 -1 0 841)" d="M90.504 262.01L494.854 262.01L494.854 262.01L494.854 280.97L494.854 280.97L90.504 280.97z" stroke="none" fill="#DAEEF3" fill-rule="evenodd" /><g clip-path="url(#159)"></g><g clip-path="url(#160)"></g><path transform="matrix(1 0 0 -1 0 841)" d="M90.504 242.93L494.854 242.93L494.854 242.93L494.854 262.01L494.854 262.01L90.504 262.01z" stroke="none" fill="#DAEEF3" fill-rule="evenodd" /><g clip-path="url(#161)"></g><g clip-path="url(#162)"></g><g clip-path="url(#163)"></g><g clip-path="url(#164)"></g><path transform="matrix(1 0 0 -1 0 841)" d="M90.504 223.85L494.854 223.85L494.854 223.85L494.854 242.93L494.854 242.93L90.504 242.93z" stroke="none" fill="#DAEEF3" fill-rule="evenodd" /><g clip-path="url(#165)"></g><g clip-path="url(#166)"></g><path transform="matrix(1 0 0 -1 0 841)" d="M90.504 204.77L494.854 204.77L494.854 204.77L494.854 223.85L494.854 223.85L90.504 223.85z" stroke="none" fill="#DAEEF3" fill-rule="evenodd" /><g clip-path="url(#167)"></g><g clip-path="url(#168)"></g><path transform="matrix(1 0 0 -1 0 841)" d="M90.504 185.81L494.854 185.81L494.854 185.81L494.854 204.77L494.854 204.77L90.504 204.77z" stroke="none" fill="#DAEEF3" fill-rule="evenodd" /><g clip-path="url(#169)"></g><g clip-path="url(#170)"></g><path transform="matrix(1 0 0 -1 0 841)" d="M90.504 166.7L494.854 166.7L494.854 166.7L494.854 185.804L494.854 185.804L90.504 185.804z" stroke="none" fill="#DAEEF3" fill-rule="evenodd" /><g clip-path="url(#171)"></g><g clip-path="url(#172)"></g><g clip-path="url(#173)"></g><path transform="matrix(1 0 0 -1 0 841)" d="M90.504 147.62L494.854 147.62L494.854 147.62L494.854 166.7L494.854 166.7L90.504 166.7z" stroke="none" fill="#DAEEF3" fill-rule="evenodd" /><g clip-path="url(#174)"></g><g clip-path="url(#175)"></g><path transform="matrix(1 0 0 -1 0 841)" d="M90.504 128.54L494.854 128.54L494.854 128.54L494.854 147.62L494.854 147.62L90.504 147.62z" stroke="none" fill="#DAEEF3" fill-rule="evenodd" /><g clip-path="url(#176)"></g><g clip-path="url(#177)"></g></g><path transform="matrix(1 0 0 -1 0 841)" d="M84.864 300.05L85.344 300.05L85.344 300.05L85.344 300.53L85.344 300.53L84.864 300.53z" stroke="none" fill="#000000" fill-rule="evenodd" /><path transform="matrix(1 0 0 -1 0 841)" d="M85.344 300.05L500.014 300.05L500.014 300.05L500.014 300.53L500.014 300.53L85.344 300.53z" stroke="none" fill="#000000" fill-rule="evenodd" /><path transform="matrix(1 0 0 -1 0 841)" d="M500.02 300.05L500.5 300.05L500.5 300.05L500.5 300.53L500.5 300.53L500.02 300.53z" stroke="none" fill="#000000" fill-rule="evenodd" /><path transform="matrix(1 0 0 -1 0 841)" d="M84.864 128.54L85.344 128.54L85.344 128.54L85.344 300.04L85.344 300.04L84.864 300.04z" stroke="none" fill="#000000" fill-rule="evenodd" /><path transform="matrix(1 0 0 -1 0 841)" d="M84.864 128.06L85.344 128.06L85.344 128.06L85.344 128.54L85.344 128.54L84.864 128.54z" stroke="none" fill="#000000" fill-rule="evenodd" /><path transform="matrix(1 0 0 -1 0 841)" d="M84.864 128.06L85.344 128.06L85.344 128.06L85.344 128.54L85.344 128.54L84.864 128.54z" stroke="none" fill="#000000" fill-rule="evenodd" /><path transform="matrix(1 0 0 -1 0 841)" d="M85.344 128.06L500.014 128.06L500.014 128.06L500.014 128.54L500.014 128.54L85.344 128.54z" stroke="none" fill="#000000" fill-rule="evenodd" /><path transform="matrix(1 0 0 -1 0 841)" d="M500.02 128.54L500.5 128.54L500.5 128.54L500.5 300.04L500.5 300.04L500.02 300.04z" stroke="none" fill="#000000" fill-rule="evenodd" /><path transform="matrix(1 0 0 -1 0 841)" d="M500.02 128.06L500.5 128.06L500.5 128.06L500.5 128.54L500.5 128.54L500.02 128.54z" stroke="none" fill="#000000" fill-rule="evenodd" /><path transform="matrix(1 0 0 -1 0 841)" d="M500.02 128.06L500.5 128.06L500.5 128.06L500.5 128.54L500.5 128.54L500.02 128.54z" stroke="none" fill="#000000" fill-rule="evenodd" /></g></g></g></g></svg>