<svg xmlns="http://www.w3.org/2000/svg" xmlns:xlink="http://www.w3.org/1999/xlink" id="body_241" preserveAspectRatio="xMinYMin meet" viewBox="0 0 793 1121"><defs><clipPath id="1"><path d="M0 841L0 -0.9199829L0 -0.9199829L595.32 -0.9199829L595.32 -0.9199829L595.32 841L595.32 841L0 841z" /></clipPath><clipPath id="2"><path d="M0.00125 841.0914L595.4112 841.0914L595.4112 841.0914L595.4112 -0.9186401L595.4112 -0.9186401L0.00125 -0.9186401z" /></clipPath><clipPath id="3"><path d="M288.05 781.211L316.01 781.211L316.01 781.211L316.01 762.011L316.01 762.011L288.05 762.011z" /></clipPath><clipPath id="4"><path d="M288.05 781.216L316.01 781.216L316.01 781.216L316.01 762.016L316.01 762.016L288.05 762.016z" /></clipPath><clipPath id="5"><path d="M288.05 781.216L316.01 781.216L316.01 781.216L316.01 762.016L316.01 762.016L288.05 762.016z" /></clipPath><clipPath id="6"><path d="M84.751 195.31L268.251 195.31L268.251 195.31L268.251 167.71L268.251 167.71L84.751 167.71z" /></clipPath><clipPath id="7"><path d="M84.744 195.3L268.244 195.3L268.244 195.3L268.244 167.7L268.244 167.7L84.744 167.7z" /></clipPath><clipPath id="8"><path d="M84.744 195.3L268.244 195.3L268.244 195.3L268.244 167.7L268.244 167.7L84.744 167.7z" /></clipPath><clipPath id="9"><path d="M268.85 195.31L499.42 195.31L499.42 195.31L499.42 167.71L499.42 167.71L268.85 167.71z" /></clipPath><clipPath id="10"><path d="M268.85 195.3L499.42 195.3L499.42 195.3L499.42 167.7L499.42 167.7L268.85 167.7z" /></clipPath><clipPath id="11"><path d="M268.85 195.3L499.42 195.3L499.42 195.3L499.42 167.7L499.42 167.7L268.85 167.7z" /></clipPath><clipPath id="12"><path d="M84.751 595.92L268.251 595.92L268.251 595.92L268.251 195.79L268.251 195.79L84.751 195.79z" /></clipPath><clipPath id="13"><path d="M84.744 595.91L268.244 595.91L268.244 595.91L268.244 195.78L268.244 195.78L84.744 195.78z" /></clipPath><clipPath id="14"><path d="M84.744 595.91L268.244 595.91L268.244 595.91L268.244 195.78L268.244 195.78L84.744 195.78z" /></clipPath><clipPath id="15"><path d="M268.85 595.92L499.42 595.92L499.42 595.92L499.42 195.79L499.42 195.79L268.85 195.79z" /></clipPath><clipPath id="16"><path d="M268.85 595.91L499.42 595.91L499.42 595.91L499.42 195.78L499.42 195.78L268.85 195.78z" /></clipPath><clipPath id="17"><path d="M268.85 595.91L499.42 595.91L499.42 595.91L499.42 195.78L499.42 195.78L268.85 195.78z" /></clipPath><clipPath id="18"><path d="M268.85 595.91L499.42 595.91L499.42 595.91L499.42 195.78L499.42 195.78L268.85 195.78z" /></clipPath><clipPath id="19"><path d="M268.85 595.91L499.42 595.91L499.42 595.91L499.42 195.78L499.42 195.78L268.85 195.78z" /></clipPath><clipPath id="20"><path d="M268.85 595.91L499.42 595.91L499.42 595.91L499.42 195.78L499.42 195.78L268.85 195.78z" /></clipPath><clipPath id="21"><path d="M268.85 595.91L499.42 595.91L499.42 595.91L499.42 195.78L499.42 195.78L268.85 195.78z" /></clipPath><clipPath id="22"><path d="M268.85 595.91L499.42 595.91L499.42 595.91L499.42 195.78L499.42 195.78L268.85 195.78z" /></clipPath><clipPath id="23"><path d="M268.85 595.91L499.42 595.91L499.42 595.91L499.42 195.78L499.42 195.78L268.85 195.78z" /></clipPath><clipPath id="24"><path d="M268.85 595.91L499.42 595.91L499.42 595.91L499.42 195.78L499.42 195.78L268.85 195.78z" /></clipPath><clipPath id="25"><path d="M268.85 595.91L499.42 595.91L499.42 595.91L499.42 195.78L499.42 195.78L268.85 195.78z" /></clipPath><clipPath id="26"><path d="M268.85 595.91L499.42 595.91L499.42 595.91L499.42 195.78L499.42 195.78L268.85 195.78z" /></clipPath><clipPath id="27"><path d="M268.85 595.91L499.42 595.91L499.42 595.91L499.42 195.78L499.42 195.78L268.85 195.78z" /></clipPath><clipPath id="28"><path d="M268.85 595.91L499.42 595.91L499.42 595.91L499.42 195.78L499.42 195.78L268.85 195.78z" /></clipPath><clipPath id="29"><path d="M268.85 595.91L499.42 595.91L499.42 595.91L499.42 195.78L499.42 195.78L268.85 195.78z" /></clipPath><clipPath id="30"><path d="M268.85 595.91L499.42 595.91L499.42 595.91L499.42 195.78L499.42 195.78L268.85 195.78z" /></clipPath><clipPath id="31"><path d="M268.85 595.91L499.42 595.91L499.42 595.91L499.42 195.78L499.42 195.78L268.85 195.78z" /></clipPath><clipPath id="32"><path d="M268.85 595.91L499.42 595.91L499.42 595.91L499.42 195.78L499.42 195.78L268.85 195.78z" /></clipPath><clipPath id="33"><path d="M268.85 595.91L499.42 595.91L499.42 595.91L499.42 195.78L499.42 195.78L268.85 195.78z" /></clipPath><clipPath id="34"><path d="M268.85 595.91L499.42 595.91L499.42 595.91L499.42 195.78L499.42 195.78L268.85 195.78z" /></clipPath><clipPath id="35"><path d="M268.85 595.91L499.42 595.91L499.42 595.91L499.42 195.78L499.42 195.78L268.85 195.78z" /></clipPath><clipPath id="36"><path d="M268.85 595.91L499.42 595.91L499.42 595.91L499.42 195.78L499.42 195.78L268.85 195.78z" /></clipPath><clipPath id="37"><path d="M268.85 595.91L499.42 595.91L499.42 595.91L499.42 195.78L499.42 195.78L268.85 195.78z" /></clipPath><clipPath id="38"><path d="M268.85 595.91L499.42 595.91L499.42 595.91L499.42 195.78L499.42 195.78L268.85 195.78z" /></clipPath><clipPath id="39"><path d="M268.85 595.91L499.42 595.91L499.42 595.91L499.42 195.78L499.42 195.78L268.85 195.78z" /></clipPath><clipPath id="40"><path d="M268.85 595.91L499.42 595.91L499.42 595.91L499.42 195.78L499.42 195.78L268.85 195.78z" /></clipPath><clipPath id="41"><path d="M268.85 595.91L499.42 595.91L499.42 595.91L499.42 195.78L499.42 195.78L268.85 195.78z" /></clipPath><clipPath id="42"><path d="M268.85 595.91L499.42 595.91L499.42 595.91L499.42 195.78L499.42 195.78L268.85 195.78z" /></clipPath><clipPath id="43"><path d="M268.85 595.91L499.42 595.91L499.42 595.91L499.42 195.78L499.42 195.78L268.85 195.78z" /></clipPath><clipPath id="44"><path d="M268.85 595.91L499.42 595.91L499.42 595.91L499.42 195.78L499.42 195.78L268.85 195.78z" /></clipPath><clipPath id="45"><path d="M268.85 595.91L499.42 595.91L499.42 595.91L499.42 195.78L499.42 195.78L268.85 195.78z" /></clipPath><clipPath id="46"><path d="M268.85 595.91L499.42 595.91L499.42 595.91L499.42 195.78L499.42 195.78L268.85 195.78z" /></clipPath><clipPath id="47"><path d="M268.85 595.91L499.42 595.91L499.42 595.91L499.42 195.78L499.42 195.78L268.85 195.78z" /></clipPath><clipPath id="48"><path d="M268.85 595.91L499.42 595.91L499.42 595.91L499.42 195.78L499.42 195.78L268.85 195.78z" /></clipPath><clipPath id="49"><path d="M268.85 595.91L499.42 595.91L499.42 595.91L499.42 195.78L499.42 195.78L268.85 195.78z" /></clipPath><clipPath id="50"><path d="M268.85 595.91L499.42 595.91L499.42 595.91L499.42 195.78L499.42 195.78L268.85 195.78z" /></clipPath><clipPath id="51"><path d="M268.85 595.91L499.42 595.91L499.42 595.91L499.42 195.78L499.42 195.78L268.85 195.78z" /></clipPath><clipPath id="52"><path d="M268.85 595.91L499.42 595.91L499.42 595.91L499.42 195.78L499.42 195.78L268.85 195.78z" /></clipPath><clipPath id="53"><path d="M268.85 595.91L499.42 595.91L499.42 595.91L499.42 195.78L499.42 195.78L268.85 195.78z" /></clipPath><clipPath id="54"><path d="M268.85 595.91L499.42 595.91L499.42 595.91L499.42 195.78L499.42 195.78L268.85 195.78z" /></clipPath><clipPath id="55"><path d="M268.85 595.91L499.42 595.91L499.42 595.91L499.42 195.78L499.42 195.78L268.85 195.78z" /></clipPath><clipPath id="56"><path d="M268.85 595.91L499.42 595.91L499.42 595.91L499.42 195.78L499.42 195.78L268.85 195.78z" /></clipPath><clipPath id="57"><path d="M268.85 595.91L499.42 595.91L499.42 595.91L499.42 195.78L499.42 195.78L268.85 195.78z" /></clipPath><clipPath id="58"><path d="M268.85 595.91L499.42 595.91L499.42 595.91L499.42 195.78L499.42 195.78L268.85 195.78z" /></clipPath><clipPath id="59"><path d="M268.85 595.91L499.42 595.91L499.42 595.91L499.42 195.78L499.42 195.78L268.85 195.78z" /></clipPath><clipPath id="60"><path d="M268.85 595.91L499.42 595.91L499.42 595.91L499.42 195.78L499.42 195.78L268.85 195.78z" /></clipPath><clipPath id="61"><path d="M268.85 595.91L499.42 595.91L499.42 595.91L499.42 195.78L499.42 195.78L268.85 195.78z" /></clipPath><clipPath id="62"><path d="M268.85 595.91L499.42 595.91L499.42 595.91L499.42 195.78L499.42 195.78L268.85 195.78z" /></clipPath><clipPath id="63"><path d="M268.85 595.91L499.42 595.91L499.42 595.91L499.42 195.78L499.42 195.78L268.85 195.78z" /></clipPath><clipPath id="64"><path d="M268.85 595.91L499.42 595.91L499.42 595.91L499.42 195.78L499.42 195.78L268.85 195.78z" /></clipPath><clipPath id="65"><path d="M268.85 595.91L499.42 595.91L499.42 595.91L499.42 195.78L499.42 195.78L268.85 195.78z" /></clipPath><clipPath id="66"><path d="M268.85 595.91L499.42 595.91L499.42 595.91L499.42 195.78L499.42 195.78L268.85 195.78z" /></clipPath><clipPath id="67"><path d="M268.85 595.91L499.42 595.91L499.42 595.91L499.42 195.78L499.42 195.78L268.85 195.78z" /></clipPath><clipPath id="68"><path d="M268.85 595.91L499.42 595.91L499.42 595.91L499.42 195.78L499.42 195.78L268.85 195.78z" /></clipPath><clipPath id="69"><path d="M268.85 595.91L499.42 595.91L499.42 595.91L499.42 195.78L499.42 195.78L268.85 195.78z" /></clipPath><clipPath id="70"><path d="M268.85 595.91L499.42 595.91L499.42 595.91L499.42 195.78L499.42 195.78L268.85 195.78z" /></clipPath><clipPath id="71"><path d="M268.85 595.91L499.42 595.91L499.42 595.91L499.42 195.78L499.42 195.78L268.85 195.78z" /></clipPath><clipPath id="72"><path d="M268.85 595.91L499.42 595.91L499.42 595.91L499.42 195.78L499.42 195.78L268.85 195.78z" /></clipPath><clipPath id="73"><path d="M268.85 595.91L499.42 595.91L499.42 595.91L499.42 195.78L499.42 195.78L268.85 195.78z" /></clipPath><clipPath id="74"><path d="M268.85 595.91L499.42 595.91L499.42 595.91L499.42 195.78L499.42 195.78L268.85 195.78z" /></clipPath><clipPath id="75"><path d="M84.751 642.24L268.251 642.24L268.251 642.24L268.251 596.4L268.251 596.4L84.751 596.4z" /></clipPath><clipPath id="76"><path d="M84.744 642.23L268.244 642.23L268.244 642.23L268.244 596.39L268.244 596.39L84.744 596.39z" /></clipPath><clipPath id="77"><path d="M84.744 642.23L268.244 642.23L268.244 642.23L268.244 596.39L268.244 596.39L84.744 596.39z" /></clipPath><clipPath id="78"><path d="M84.744 642.23L268.244 642.23L268.244 642.23L268.244 596.39L268.244 596.39L84.744 596.39z" /></clipPath><clipPath id="79"><path d="M268.85 642.24L499.42 642.24L499.42 642.24L499.42 596.4L499.42 596.4L268.85 596.4z" /></clipPath><clipPath id="80"><path d="M268.85 642.23L499.42 642.23L499.42 642.23L499.42 596.39L499.42 596.39L268.85 596.39z" /></clipPath><clipPath id="81"><path d="M268.85 642.23L499.42 642.23L499.42 642.23L499.42 596.39L499.42 596.39L268.85 596.39z" /></clipPath><clipPath id="82"><path d="M268.85 642.23L499.42 642.23L499.42 642.23L499.42 596.39L499.42 596.39L268.85 596.39z" /></clipPath><clipPath id="83"><path d="M268.85 642.23L499.42 642.23L499.42 642.23L499.42 596.39L499.42 596.39L268.85 596.39z" /></clipPath><clipPath id="84"><path d="M268.85 642.23L499.42 642.23L499.42 642.23L499.42 596.39L499.42 596.39L268.85 596.39z" /></clipPath><clipPath id="85"><path d="M268.85 642.23L499.42 642.23L499.42 642.23L499.42 596.39L499.42 596.39L268.85 596.39z" /></clipPath><clipPath id="86"><path d="M268.85 642.23L499.42 642.23L499.42 642.23L499.42 596.39L499.42 596.39L268.85 596.39z" /></clipPath><clipPath id="87"><path d="M268.85 642.23L499.42 642.23L499.42 642.23L499.42 596.39L499.42 596.39L268.85 596.39z" /></clipPath><clipPath id="88"><path d="M268.85 642.23L499.42 642.23L499.42 642.23L499.42 596.39L499.42 596.39L268.85 596.39z" /></clipPath><clipPath id="89"><path d="M84.751 724.81L268.251 724.81L268.251 724.81L268.251 642.715L268.251 642.715L84.751 642.715z" /></clipPath><clipPath id="90"><path d="M84.744 724.82L268.244 724.82L268.244 724.82L268.244 642.716L268.244 642.716L84.744 642.716z" /></clipPath><clipPath id="91"><path d="M84.744 724.82L268.244 724.82L268.244 724.82L268.244 642.716L268.244 642.716L84.744 642.716z" /></clipPath><clipPath id="92"><path d="M84.744 724.82L268.244 724.82L268.244 724.82L268.244 642.716L268.244 642.716L84.744 642.716z" /></clipPath><clipPath id="93"><path d="M84.744 724.82L268.244 724.82L268.244 724.82L268.244 642.716L268.244 642.716L84.744 642.716z" /></clipPath><clipPath id="94"><path d="M84.744 724.82L268.244 724.82L268.244 724.82L268.244 642.716L268.244 642.716L84.744 642.716z" /></clipPath><clipPath id="95"><path d="M268.85 724.81L499.42 724.81L499.42 724.81L499.42 642.715L499.42 642.715L268.85 642.715z" /></clipPath><clipPath id="96"><path d="M268.85 724.82L499.42 724.82L499.42 724.82L499.42 642.716L499.42 642.716L268.85 642.716z" /></clipPath><clipPath id="97"><path d="M268.85 724.82L499.42 724.82L499.42 724.82L499.42 642.716L499.42 642.716L268.85 642.716z" /></clipPath><clipPath id="98"><path d="M268.85 724.82L499.42 724.82L499.42 724.82L499.42 642.716L499.42 642.716L268.85 642.716z" /></clipPath><clipPath id="99"><path d="M268.85 724.82L499.42 724.82L499.42 724.82L499.42 642.716L499.42 642.716L268.85 642.716z" /></clipPath><clipPath id="100"><path d="M268.85 724.82L499.42 724.82L499.42 724.82L499.42 642.716L499.42 642.716L268.85 642.716z" /></clipPath><clipPath id="101"><path d="M268.85 724.82L499.42 724.82L499.42 724.82L499.42 642.716L499.42 642.716L268.85 642.716z" /></clipPath><clipPath id="102"><path d="M268.85 724.82L499.42 724.82L499.42 724.82L499.42 642.716L499.42 642.716L268.85 642.716z" /></clipPath><clipPath id="103"><path d="M268.85 724.82L499.42 724.82L499.42 724.82L499.42 642.716L499.42 642.716L268.85 642.716z" /></clipPath><clipPath id="104"><path d="M268.85 724.82L499.42 724.82L499.42 724.82L499.42 642.716L499.42 642.716L268.85 642.716z" /></clipPath><clipPath id="105"><path d="M268.85 724.82L499.42 724.82L499.42 724.82L499.42 642.716L499.42 642.716L268.85 642.716z" /></clipPath><clipPath id="106"><path d="M268.85 724.82L499.42 724.82L499.42 724.82L499.42 642.716L499.42 642.716L268.85 642.716z" /></clipPath></defs><g transform="matrix(1.333333 0 0 1.333333 0 0)"><g><g clip-path="url(#1)"><path transform="matrix(1 0 0 -1 0 841)" d="M457.51 53.304L505.534 53.304L505.534 53.304L505.534 53.90404L505.534 53.90404L457.51 53.90404z" stroke="none" fill="#000000" fill-rule="evenodd" /><g clip-path="url(#2)"><path transform="matrix(1 0 0 -1 0 841)" d="M88.464 77.904L506.974 77.904L506.974 77.904L506.974 80.904L506.974 80.904L88.464 80.904z" stroke="none" fill="#000000" fill-rule="evenodd" /><path transform="matrix(1 0 0 -1 0 841)" d="M88.464 76.464L506.974 76.464L506.974 76.464L506.974 77.18397L506.974 77.18397L88.464 77.18397z" stroke="none" fill="#000000" fill-rule="evenodd" /></g><g clip-path="url(#3)"><g clip-path="url(#4)"></g><g clip-path="url(#5)"></g></g><path transform="matrix(1 0 0 -1 0 841)" d="M84.744 645.7L268.244 645.7L268.244 645.7L268.244 673.3L268.244 673.3L84.744 673.3z" stroke="none" fill="#D9D9D9" fill-rule="evenodd" /><g clip-path="url(#6)"><path transform="matrix(1 0 0 -1 0 841)" d="M89.904 645.7L263.204 645.7L263.204 645.7L263.204 673.3L263.204 673.3L89.904 673.3z" stroke="none" fill="#D9D9D9" fill-rule="evenodd" /><g clip-path="url(#7)"></g><g clip-path="url(#8)"></g></g><path transform="matrix(1 0 0 -1 0 841)" d="M268.85 645.7L499.42 645.7L499.42 645.7L499.42 673.3L499.42 673.3L268.85 673.3z" stroke="none" fill="#D9D9D9" fill-rule="evenodd" /><g clip-path="url(#9)"><path transform="matrix(1 0 0 -1 0 841)" d="M273.89 645.7L494.26 645.7L494.26 645.7L494.26 673.3L494.26 673.3L273.89 673.3z" stroke="none" fill="#D9D9D9" fill-rule="evenodd" /><g clip-path="url(#10)"></g><g clip-path="url(#11)"></g></g><path transform="matrix(1 0 0 -1 0 841)" d="M84.264 673.42L84.744 673.42L84.744 673.42L84.744 673.9L84.744 673.9L84.264 673.9z" stroke="none" fill="#000000" fill-rule="evenodd" /><path transform="matrix(1 0 0 -1 0 841)" d="M84.264 673.42L84.744 673.42L84.744 673.42L84.744 673.9L84.744 673.9L84.264 673.9z" stroke="none" fill="#000000" fill-rule="evenodd" /><path transform="matrix(1 0 0 -1 0 841)" d="M84.744 673.42L268.364 673.42L268.364 673.42L268.364 673.9L268.364 673.9L84.744 673.9z" stroke="none" fill="#000000" fill-rule="evenodd" /><path transform="matrix(1 0 0 -1 0 841)" d="M268.37 673.42L268.85 673.42L268.85 673.42L268.85 673.9L268.85 673.9L268.37 673.9z" stroke="none" fill="#000000" fill-rule="evenodd" /><path transform="matrix(1 0 0 -1 0 841)" d="M268.85 673.42L499.42 673.42L499.42 673.42L499.42 673.9L499.42 673.9L268.85 673.9z" stroke="none" fill="#000000" fill-rule="evenodd" /><path transform="matrix(1 0 0 -1 0 841)" d="M499.42 673.42L499.9 673.42L499.9 673.42L499.9 673.9L499.9 673.9L499.42 673.9z" stroke="none" fill="#000000" fill-rule="evenodd" /><path transform="matrix(1 0 0 -1 0 841)" d="M499.42 673.42L499.9 673.42L499.9 673.42L499.9 673.9L499.9 673.9L499.42 673.9z" stroke="none" fill="#000000" fill-rule="evenodd" /><path transform="matrix(1 0 0 -1 0 841)" d="M84.264 645.7L84.744 645.7L84.744 645.7L84.744 673.42L84.744 673.42L84.264 673.42z" stroke="none" fill="#000000" fill-rule="evenodd" /><path transform="matrix(1 0 0 -1 0 841)" d="M268.37 645.7L268.85 645.7L268.85 645.7L268.85 673.42L268.85 673.42L268.37 673.42z" stroke="none" fill="#000000" fill-rule="evenodd" /><path transform="matrix(1 0 0 -1 0 841)" d="M499.42 645.7L499.9 645.7L499.9 645.7L499.9 673.42L499.9 673.42L499.42 673.42z" stroke="none" fill="#000000" fill-rule="evenodd" /><g clip-path="url(#12)"><g clip-path="url(#13)"></g><g clip-path="url(#14)"></g></g><g clip-path="url(#15)"><g clip-path="url(#16)"></g><g clip-path="url(#17)"></g><g clip-path="url(#18)"></g><g clip-path="url(#19)"></g><g clip-path="url(#20)"></g><path transform="matrix(1 0 0 -1 0 841)" d="M279.89 623.98L326.21 623.98L326.21 623.98L326.21 624.7L326.21 624.7L279.89 624.7z" stroke="none" fill="#000000" fill-rule="evenodd" /><g clip-path="url(#21)"></g><g clip-path="url(#22)"></g><g clip-path="url(#23)"></g><g clip-path="url(#24)"></g><g clip-path="url(#25)"></g><g clip-path="url(#26)"></g><g clip-path="url(#27)"></g><g clip-path="url(#28)"></g><g clip-path="url(#29)"></g><g clip-path="url(#30)"></g><g clip-path="url(#31)"></g><g clip-path="url(#32)"></g><g clip-path="url(#33)"></g><g clip-path="url(#34)"></g><g clip-path="url(#35)"></g><g clip-path="url(#36)"></g><g clip-path="url(#37)"></g><g clip-path="url(#38)"></g><g clip-path="url(#39)"></g><g clip-path="url(#40)"></g><g clip-path="url(#41)"></g><g clip-path="url(#42)"></g><g clip-path="url(#43)"></g><g clip-path="url(#44)"></g><g clip-path="url(#45)"></g><g clip-path="url(#46)"></g><g clip-path="url(#47)"></g><g clip-path="url(#48)"></g><g clip-path="url(#49)"></g><g clip-path="url(#50)"></g><g clip-path="url(#51)"></g><g clip-path="url(#52)"></g><g clip-path="url(#53)"></g><path transform="matrix(1 0 0 -1 0 841)" d="M279.89 424.39L322.01 424.39L322.01 424.39L322.01 425.11L322.01 425.11L279.89 425.11z" stroke="none" fill="#000000" fill-rule="evenodd" /><g clip-path="url(#54)"></g><g clip-path="url(#55)"></g><g clip-path="url(#56)"></g><g clip-path="url(#57)"></g><g clip-path="url(#58)"></g><g clip-path="url(#59)"></g><g clip-path="url(#60)"></g><g clip-path="url(#61)"></g><g clip-path="url(#62)"></g><g clip-path="url(#63)"></g><g clip-path="url(#64)"></g><g clip-path="url(#65)"></g><path transform="matrix(1 0 0 -1 0 841)" d="M279.89 346.97L328.85 346.97L328.85 346.97L328.85 347.69L328.85 347.69L279.89 347.69z" stroke="none" fill="#000000" fill-rule="evenodd" /><g clip-path="url(#66)"></g><g clip-path="url(#67)"></g><g clip-path="url(#68)"></g><g clip-path="url(#69)"></g><g clip-path="url(#70)"></g><g clip-path="url(#71)"></g><g clip-path="url(#72)"></g><g clip-path="url(#73)"></g><g clip-path="url(#74)"></g></g><path transform="matrix(1 0 0 -1 0 841)" d="M84.264 645.22L84.744 645.22L84.744 645.22L84.744 645.7L84.744 645.7L84.264 645.7z" stroke="none" fill="#000000" fill-rule="evenodd" /><path transform="matrix(1 0 0 -1 0 841)" d="M84.744 645.22L268.364 645.22L268.364 645.22L268.364 645.7L268.364 645.7L84.744 645.7z" stroke="none" fill="#000000" fill-rule="evenodd" /><path transform="matrix(1 0 0 -1 0 841)" d="M268.37 645.22L268.85 645.22L268.85 645.22L268.85 645.7L268.85 645.7L268.37 645.7z" stroke="none" fill="#000000" fill-rule="evenodd" /><path transform="matrix(1 0 0 -1 0 841)" d="M268.85 645.22L499.42 645.22L499.42 645.22L499.42 645.7L499.42 645.7L268.85 645.7z" stroke="none" fill="#000000" fill-rule="evenodd" /><path transform="matrix(1 0 0 -1 0 841)" d="M499.42 645.22L499.9 645.22L499.9 645.22L499.9 645.7L499.9 645.7L499.42 645.7z" stroke="none" fill="#000000" fill-rule="evenodd" /><path transform="matrix(1 0 0 -1 0 841)" d="M84.264 245.09L84.744 245.09L84.744 245.09L84.744 645.22L84.744 645.22L84.264 645.22z" stroke="none" fill="#000000" fill-rule="evenodd" /><path transform="matrix(1 0 0 -1 0 841)" d="M268.37 245.09L268.85 245.09L268.85 245.09L268.85 645.22L268.85 645.22L268.37 645.22z" stroke="none" fill="#000000" fill-rule="evenodd" /><path transform="matrix(1 0 0 -1 0 841)" d="M499.42 245.09L499.9 245.09L499.9 245.09L499.9 645.22L499.9 645.22L499.42 645.22z" stroke="none" fill="#000000" fill-rule="evenodd" /><g clip-path="url(#75)"><g clip-path="url(#76)"></g><g clip-path="url(#77)"></g><g clip-path="url(#78)"></g></g><g clip-path="url(#79)"><g clip-path="url(#80)"></g><g clip-path="url(#81)"></g><g clip-path="url(#82)"></g><g clip-path="url(#83)"></g><g clip-path="url(#84)"></g><g clip-path="url(#85)"></g><g clip-path="url(#86)"></g><g clip-path="url(#87)"></g><g clip-path="url(#88)"></g></g><path transform="matrix(1 0 0 -1 0 841)" d="M84.264 244.61L84.744 244.61L84.744 244.61L84.744 245.09L84.744 245.09L84.264 245.09z" stroke="none" fill="#000000" fill-rule="evenodd" /><path transform="matrix(1 0 0 -1 0 841)" d="M84.744 244.61L268.364 244.61L268.364 244.61L268.364 245.09L268.364 245.09L84.744 245.09z" stroke="none" fill="#000000" fill-rule="evenodd" /><path transform="matrix(1 0 0 -1 0 841)" d="M268.37 244.61L268.85 244.61L268.85 244.61L268.85 245.09L268.85 245.09L268.37 245.09z" stroke="none" fill="#000000" fill-rule="evenodd" /><path transform="matrix(1 0 0 -1 0 841)" d="M268.85 244.61L499.42 244.61L499.42 244.61L499.42 245.09L499.42 245.09L268.85 245.09z" stroke="none" fill="#000000" fill-rule="evenodd" /><path transform="matrix(1 0 0 -1 0 841)" d="M499.42 244.61L499.9 244.61L499.9 244.61L499.9 245.09L499.9 245.09L499.42 245.09z" stroke="none" fill="#000000" fill-rule="evenodd" /><path transform="matrix(1 0 0 -1 0 841)" d="M84.264 198.77L84.744 198.77L84.744 198.77L84.744 244.61L84.744 244.61L84.264 244.61z" stroke="none" fill="#000000" fill-rule="evenodd" /><path transform="matrix(1 0 0 -1 0 841)" d="M268.37 198.77L268.85 198.77L268.85 198.77L268.85 244.61L268.85 244.61L268.37 244.61z" stroke="none" fill="#000000" fill-rule="evenodd" /><path transform="matrix(1 0 0 -1 0 841)" d="M499.42 198.77L499.9 198.77L499.9 198.77L499.9 244.61L499.9 244.61L499.42 244.61z" stroke="none" fill="#000000" fill-rule="evenodd" /><g clip-path="url(#89)"><g clip-path="url(#90)"></g><g clip-path="url(#91)"></g><g clip-path="url(#92)"></g><g clip-path="url(#93)"></g><g clip-path="url(#94)"></g></g><g clip-path="url(#95)"><g clip-path="url(#96)"></g><g clip-path="url(#97)"></g><g clip-path="url(#98)"></g><g clip-path="url(#99)"></g><g clip-path="url(#100)"></g><g clip-path="url(#101)"></g><g clip-path="url(#102)"></g><g clip-path="url(#103)"></g><g clip-path="url(#104)"></g><g clip-path="url(#105)"></g><g clip-path="url(#106)"></g></g><path transform="matrix(1 0 0 -1 0 841)" d="M84.264 198.29L84.744 198.29L84.744 198.29L84.744 198.77L84.744 198.77L84.264 198.77z" stroke="none" fill="#000000" fill-rule="evenodd" /><path transform="matrix(1 0 0 -1 0 841)" d="M84.744 198.29L268.364 198.29L268.364 198.29L268.364 198.77L268.364 198.77L84.744 198.77z" stroke="none" fill="#000000" fill-rule="evenodd" /><path transform="matrix(1 0 0 -1 0 841)" d="M268.37 198.29L268.85 198.29L268.85 198.29L268.85 198.77L268.85 198.77L268.37 198.77z" stroke="none" fill="#000000" fill-rule="evenodd" /><path transform="matrix(1 0 0 -1 0 841)" d="M268.85 198.29L499.42 198.29L499.42 198.29L499.42 198.77L499.42 198.77L268.85 198.77z" stroke="none" fill="#000000" fill-rule="evenodd" /><path transform="matrix(1 0 0 -1 0 841)" d="M499.42 198.29L499.9 198.29L499.9 198.29L499.9 198.77L499.9 198.77L499.42 198.77z" stroke="none" fill="#000000" fill-rule="evenodd" /><path transform="matrix(1 0 0 -1 0 841)" d="M84.264 116.06L84.744 116.06L84.744 116.06L84.744 198.284L84.744 198.284L84.264 198.284z" stroke="none" fill="#000000" fill-rule="evenodd" /><path transform="matrix(1 0 0 -1 0 841)" d="M84.264 115.58L84.744 115.58L84.744 115.58L84.744 116.06L84.744 116.06L84.264 116.06z" stroke="none" fill="#000000" fill-rule="evenodd" /><path transform="matrix(1 0 0 -1 0 841)" d="M84.264 115.58L84.744 115.58L84.744 115.58L84.744 116.06L84.744 116.06L84.264 116.06z" stroke="none" fill="#000000" fill-rule="evenodd" /><path transform="matrix(1 0 0 -1 0 841)" d="M84.744 115.58L268.364 115.58L268.364 115.58L268.364 116.06L268.364 116.06L84.744 116.06z" stroke="none" fill="#000000" fill-rule="evenodd" /><path transform="matrix(1 0 0 -1 0 841)" d="M268.37 116.06L268.85 116.06L268.85 116.06L268.85 198.284L268.85 198.284L268.37 198.284z" stroke="none" fill="#000000" fill-rule="evenodd" /><path transform="matrix(1 0 0 -1 0 841)" d="M268.37 115.58L268.85 115.58L268.85 115.58L268.85 116.06L268.85 116.06L268.37 116.06z" stroke="none" fill="#000000" fill-rule="evenodd" /><path transform="matrix(1 0 0 -1 0 841)" d="M268.85 115.58L499.42 115.58L499.42 115.58L499.42 116.06L499.42 116.06L268.85 116.06z" stroke="none" fill="#000000" fill-rule="evenodd" /><path transform="matrix(1 0 0 -1 0 841)" d="M499.42 116.06L499.9 116.06L499.9 116.06L499.9 198.284L499.9 198.284L499.42 198.284z" stroke="none" fill="#000000" fill-rule="evenodd" /><path transform="matrix(1 0 0 -1 0 841)" d="M499.42 115.58L499.9 115.58L499.9 115.58L499.9 116.06L499.9 116.06L499.42 116.06z" stroke="none" fill="#000000" fill-rule="evenodd" /><path transform="matrix(1 0 0 -1 0 841)" d="M499.42 115.58L499.9 115.58L499.9 115.58L499.9 116.06L499.9 116.06L499.42 116.06z" stroke="none" fill="#000000" fill-rule="evenodd" /></g></g></g></svg>