<svg xmlns="http://www.w3.org/2000/svg" xmlns:xlink="http://www.w3.org/1999/xlink" id="body_117" preserveAspectRatio="xMinYMin meet" viewBox="0 0 1121 793"><defs><clipPath id="1"><path d="M0 595L0 -0.3200073L0 -0.3200073L841.92 -0.3200073L841.92 -0.3200073L841.92 595L841.92 595L0 595z" /></clipPath><clipPath id="2"><path d="M0.00125 595.0913L842.0112 595.0913L842.0112 595.0913L842.0112 -0.3186646L842.0112 -0.3186646L0.00125 -0.3186646z" /></clipPath><clipPath id="3"><path d="M288.05 535.211L316.01 535.211L316.01 535.211L316.01 516.011L316.01 516.011L288.05 516.011z" /></clipPath><clipPath id="4"><path d="M288.05 535.216L316.01 535.216L316.01 535.216L316.01 516.016L316.01 516.016L288.05 516.016z" /></clipPath><clipPath id="5"><path d="M288.05 535.216L316.01 535.216L316.01 535.216L316.01 516.016L316.01 516.016L288.05 516.016z" /></clipPath></defs><g transform="matrix(1.333333 0 0 1.333333 0 0)"><g><g clip-path="url(#1)"><path transform="matrix(1 0 0 -1 0 595)" d="M704.14 53.304L752.14 53.304L752.14 53.304L752.14 53.90398L752.14 53.90398L704.14 53.90398z" stroke="none" fill="#000000" fill-rule="evenodd" /><g clip-path="url(#2)"><path transform="matrix(1 0 0 -1 0 595)" d="M88.44 77.904L753.58 77.904L753.58 77.904L753.58 80.904L753.58 80.904L88.44 80.904z" stroke="none" fill="#000000" fill-rule="evenodd" /><path transform="matrix(1 0 0 -1 0 595)" d="M88.44 76.464L753.58 76.464L753.58 76.464L753.58 77.18403L753.58 77.18403L88.44 77.18403z" stroke="none" fill="#000000" fill-rule="evenodd" /></g><g clip-path="url(#3)"><g clip-path="url(#4)"></g><g clip-path="url(#5)"></g></g><g transform="matrix(0.5475422 0 0 0.5475626 367.05 93.32999)"><g transform="matrix(1 0 0 1 0 0)"><image x="0" y="0" xlink:href="img_82.png" width="712" height="759" /></g></g></g></g></g></svg>