<svg xmlns="http://www.w3.org/2000/svg" xmlns:xlink="http://www.w3.org/1999/xlink" id="body_202" preserveAspectRatio="xMinYMin meet" viewBox="0 0 793 1121"><defs><clipPath id="1"><path d="M0 841L0 -0.9199829L0 -0.9199829L595.32 -0.9199829L595.32 -0.9199829L595.32 841L595.32 841L0 841z" /></clipPath><clipPath id="2"><path d="M0.00125 841.0914L595.4112 841.0914L595.4112 841.0914L595.4112 -0.9186401L595.4112 -0.9186401L0.00125 -0.9186401z" /></clipPath><clipPath id="3"><path d="M288.05 781.211L316.01 781.211L316.01 781.211L316.01 762.011L316.01 762.011L288.05 762.011z" /></clipPath><clipPath id="4"><path d="M288.05 781.216L316.01 781.216L316.01 781.216L316.01 762.016L316.01 762.016L288.05 762.016z" /></clipPath><clipPath id="5"><path d="M288.05 781.216L316.01 781.216L316.01 781.216L316.01 762.016L316.01 762.016L288.05 762.016z" /></clipPath><clipPath id="6"><path d="M84.751 584.76L499.411 584.76L499.411 584.76L499.411 89.44L499.411 89.44L84.751 89.44z" /></clipPath><clipPath id="7"><path d="M84.744 584.75L499.414 584.75L499.414 584.75L499.414 89.44L499.414 89.44L84.744 89.44z" /></clipPath><clipPath id="8"><path d="M84.744 584.75L499.414 584.75L499.414 584.75L499.414 89.44L499.414 89.44L84.744 89.44z" /></clipPath><clipPath id="9"><path d="M84.744 584.75L499.414 584.75L499.414 584.75L499.414 89.44L499.414 89.44L84.744 89.44z" /></clipPath><clipPath id="10"><path d="M84.744 584.75L499.414 584.75L499.414 584.75L499.414 89.44L499.414 89.44L84.744 89.44z" /></clipPath><clipPath id="11"><path d="M84.744 584.75L499.414 584.75L499.414 584.75L499.414 89.44L499.414 89.44L84.744 89.44z" /></clipPath><clipPath id="12"><path d="M84.744 584.75L499.414 584.75L499.414 584.75L499.414 89.44L499.414 89.44L84.744 89.44z" /></clipPath><clipPath id="13"><path d="M84.744 584.75L499.414 584.75L499.414 584.75L499.414 89.44L499.414 89.44L84.744 89.44z" /></clipPath><clipPath id="14"><path d="M84.744 584.75L499.414 584.75L499.414 584.75L499.414 89.44L499.414 89.44L84.744 89.44z" /></clipPath><clipPath id="15"><path d="M84.744 584.75L499.414 584.75L499.414 584.75L499.414 89.44L499.414 89.44L84.744 89.44z" /></clipPath><clipPath id="16"><path d="M84.744 584.75L499.414 584.75L499.414 584.75L499.414 89.44L499.414 89.44L84.744 89.44z" /></clipPath><clipPath id="17"><path d="M84.744 584.75L499.414 584.75L499.414 584.75L499.414 89.44L499.414 89.44L84.744 89.44z" /></clipPath><clipPath id="18"><path d="M84.744 584.75L499.414 584.75L499.414 584.75L499.414 89.44L499.414 89.44L84.744 89.44z" /></clipPath><clipPath id="19"><path d="M84.744 584.75L499.414 584.75L499.414 584.75L499.414 89.44L499.414 89.44L84.744 89.44z" /></clipPath><clipPath id="20"><path d="M84.744 584.75L499.414 584.75L499.414 584.75L499.414 89.44L499.414 89.44L84.744 89.44z" /></clipPath><clipPath id="21"><path d="M84.744 584.75L499.414 584.75L499.414 584.75L499.414 89.44L499.414 89.44L84.744 89.44z" /></clipPath><clipPath id="22"><path d="M84.744 584.75L499.414 584.75L499.414 584.75L499.414 89.44L499.414 89.44L84.744 89.44z" /></clipPath><clipPath id="23"><path d="M84.744 584.75L499.414 584.75L499.414 584.75L499.414 89.44L499.414 89.44L84.744 89.44z" /></clipPath><clipPath id="24"><path d="M84.744 584.75L499.414 584.75L499.414 584.75L499.414 89.44L499.414 89.44L84.744 89.44z" /></clipPath><clipPath id="25"><path d="M84.744 584.75L499.414 584.75L499.414 584.75L499.414 89.44L499.414 89.44L84.744 89.44z" /></clipPath><clipPath id="26"><path d="M84.744 584.75L499.414 584.75L499.414 584.75L499.414 89.44L499.414 89.44L84.744 89.44z" /></clipPath><clipPath id="27"><path d="M84.744 584.75L499.414 584.75L499.414 584.75L499.414 89.44L499.414 89.44L84.744 89.44z" /></clipPath><clipPath id="28"><path d="M84.744 584.75L499.414 584.75L499.414 584.75L499.414 89.44L499.414 89.44L84.744 89.44z" /></clipPath><clipPath id="29"><path d="M84.744 584.75L499.414 584.75L499.414 584.75L499.414 89.44L499.414 89.44L84.744 89.44z" /></clipPath><clipPath id="30"><path d="M84.744 584.75L499.414 584.75L499.414 584.75L499.414 89.44L499.414 89.44L84.744 89.44z" /></clipPath><clipPath id="31"><path d="M84.744 584.75L499.414 584.75L499.414 584.75L499.414 89.44L499.414 89.44L84.744 89.44z" /></clipPath><clipPath id="32"><path d="M84.744 584.75L499.414 584.75L499.414 584.75L499.414 89.44L499.414 89.44L84.744 89.44z" /></clipPath><clipPath id="33"><path d="M84.744 584.75L499.414 584.75L499.414 584.75L499.414 89.44L499.414 89.44L84.744 89.44z" /></clipPath><clipPath id="34"><path d="M84.744 584.75L499.414 584.75L499.414 584.75L499.414 89.44L499.414 89.44L84.744 89.44z" /></clipPath><clipPath id="35"><path d="M84.744 584.75L499.414 584.75L499.414 584.75L499.414 89.44L499.414 89.44L84.744 89.44z" /></clipPath><clipPath id="36"><path d="M84.744 584.75L499.414 584.75L499.414 584.75L499.414 89.44L499.414 89.44L84.744 89.44z" /></clipPath><clipPath id="37"><path d="M84.744 584.75L499.414 584.75L499.414 584.75L499.414 89.44L499.414 89.44L84.744 89.44z" /></clipPath><clipPath id="38"><path d="M84.744 584.75L499.414 584.75L499.414 584.75L499.414 89.44L499.414 89.44L84.744 89.44z" /></clipPath><clipPath id="39"><path d="M84.744 584.75L499.414 584.75L499.414 584.75L499.414 89.44L499.414 89.44L84.744 89.44z" /></clipPath><clipPath id="40"><path d="M84.744 584.75L499.414 584.75L499.414 584.75L499.414 89.44L499.414 89.44L84.744 89.44z" /></clipPath><clipPath id="41"><path d="M84.744 584.75L499.414 584.75L499.414 584.75L499.414 89.44L499.414 89.44L84.744 89.44z" /></clipPath><clipPath id="42"><path d="M84.744 584.75L499.414 584.75L499.414 584.75L499.414 89.44L499.414 89.44L84.744 89.44z" /></clipPath><clipPath id="43"><path d="M84.744 584.75L499.414 584.75L499.414 584.75L499.414 89.44L499.414 89.44L84.744 89.44z" /></clipPath><clipPath id="44"><path d="M84.744 584.75L499.414 584.75L499.414 584.75L499.414 89.44L499.414 89.44L84.744 89.44z" /></clipPath><clipPath id="45"><path d="M84.744 584.75L499.414 584.75L499.414 584.75L499.414 89.44L499.414 89.44L84.744 89.44z" /></clipPath><clipPath id="46"><path d="M84.744 584.75L499.414 584.75L499.414 584.75L499.414 89.44L499.414 89.44L84.744 89.44z" /></clipPath><clipPath id="47"><path d="M84.744 584.75L499.414 584.75L499.414 584.75L499.414 89.44L499.414 89.44L84.744 89.44z" /></clipPath><clipPath id="48"><path d="M84.744 584.75L499.414 584.75L499.414 584.75L499.414 89.44L499.414 89.44L84.744 89.44z" /></clipPath><clipPath id="49"><path d="M84.744 584.75L499.414 584.75L499.414 584.75L499.414 89.44L499.414 89.44L84.744 89.44z" /></clipPath><clipPath id="50"><path d="M84.744 584.75L499.414 584.75L499.414 584.75L499.414 89.44L499.414 89.44L84.744 89.44z" /></clipPath><clipPath id="51"><path d="M84.744 584.75L499.414 584.75L499.414 584.75L499.414 89.44L499.414 89.44L84.744 89.44z" /></clipPath><clipPath id="52"><path d="M84.744 584.75L499.414 584.75L499.414 584.75L499.414 89.44L499.414 89.44L84.744 89.44z" /></clipPath><clipPath id="53"><path d="M84.744 584.75L499.414 584.75L499.414 584.75L499.414 89.44L499.414 89.44L84.744 89.44z" /></clipPath><clipPath id="54"><path d="M84.744 584.75L499.414 584.75L499.414 584.75L499.414 89.44L499.414 89.44L84.744 89.44z" /></clipPath><clipPath id="55"><path d="M84.744 584.75L499.414 584.75L499.414 584.75L499.414 89.44L499.414 89.44L84.744 89.44z" /></clipPath><clipPath id="56"><path d="M84.744 584.75L499.414 584.75L499.414 584.75L499.414 89.44L499.414 89.44L84.744 89.44z" /></clipPath><clipPath id="57"><path d="M84.744 584.75L499.414 584.75L499.414 584.75L499.414 89.44L499.414 89.44L84.744 89.44z" /></clipPath><clipPath id="58"><path d="M84.744 584.75L499.414 584.75L499.414 584.75L499.414 89.44L499.414 89.44L84.744 89.44z" /></clipPath><clipPath id="59"><path d="M84.744 584.75L499.414 584.75L499.414 584.75L499.414 89.44L499.414 89.44L84.744 89.44z" /></clipPath><clipPath id="60"><path d="M84.744 584.75L499.414 584.75L499.414 584.75L499.414 89.44L499.414 89.44L84.744 89.44z" /></clipPath><clipPath id="61"><path d="M84.744 584.75L499.414 584.75L499.414 584.75L499.414 89.44L499.414 89.44L84.744 89.44z" /></clipPath><clipPath id="62"><path d="M84.744 584.75L499.414 584.75L499.414 584.75L499.414 89.44L499.414 89.44L84.744 89.44z" /></clipPath><clipPath id="63"><path d="M84.744 584.75L499.414 584.75L499.414 584.75L499.414 89.44L499.414 89.44L84.744 89.44z" /></clipPath><clipPath id="64"><path d="M84.744 584.75L499.414 584.75L499.414 584.75L499.414 89.44L499.414 89.44L84.744 89.44z" /></clipPath><clipPath id="65"><path d="M84.744 584.75L499.414 584.75L499.414 584.75L499.414 89.44L499.414 89.44L84.744 89.44z" /></clipPath><clipPath id="66"><path d="M84.744 584.75L499.414 584.75L499.414 584.75L499.414 89.44L499.414 89.44L84.744 89.44z" /></clipPath><clipPath id="67"><path d="M84.744 584.75L499.414 584.75L499.414 584.75L499.414 89.44L499.414 89.44L84.744 89.44z" /></clipPath><clipPath id="68"><path d="M84.744 584.75L499.414 584.75L499.414 584.75L499.414 89.44L499.414 89.44L84.744 89.44z" /></clipPath><clipPath id="69"><path d="M84.744 584.75L499.414 584.75L499.414 584.75L499.414 89.44L499.414 89.44L84.744 89.44z" /></clipPath><clipPath id="70"><path d="M84.744 584.75L499.414 584.75L499.414 584.75L499.414 89.44L499.414 89.44L84.744 89.44z" /></clipPath><clipPath id="71"><path d="M84.744 584.75L499.414 584.75L499.414 584.75L499.414 89.44L499.414 89.44L84.744 89.44z" /></clipPath><clipPath id="72"><path d="M84.744 584.75L499.414 584.75L499.414 584.75L499.414 89.44L499.414 89.44L84.744 89.44z" /></clipPath><clipPath id="73"><path d="M84.744 584.75L499.414 584.75L499.414 584.75L499.414 89.44L499.414 89.44L84.744 89.44z" /></clipPath><clipPath id="74"><path d="M84.744 584.75L499.414 584.75L499.414 584.75L499.414 89.44L499.414 89.44L84.744 89.44z" /></clipPath><clipPath id="75"><path d="M84.744 584.75L499.414 584.75L499.414 584.75L499.414 89.44L499.414 89.44L84.744 89.44z" /></clipPath><clipPath id="76"><path d="M84.744 584.75L499.414 584.75L499.414 584.75L499.414 89.44L499.414 89.44L84.744 89.44z" /></clipPath><clipPath id="77"><path d="M84.744 584.75L499.414 584.75L499.414 584.75L499.414 89.44L499.414 89.44L84.744 89.44z" /></clipPath><clipPath id="78"><path d="M84.744 584.75L499.414 584.75L499.414 584.75L499.414 89.44L499.414 89.44L84.744 89.44z" /></clipPath><clipPath id="79"><path d="M84.744 584.75L499.414 584.75L499.414 584.75L499.414 89.44L499.414 89.44L84.744 89.44z" /></clipPath><clipPath id="80"><path d="M84.744 584.75L499.414 584.75L499.414 584.75L499.414 89.44L499.414 89.44L84.744 89.44z" /></clipPath><clipPath id="81"><path d="M84.744 584.75L499.414 584.75L499.414 584.75L499.414 89.44L499.414 89.44L84.744 89.44z" /></clipPath><clipPath id="82"><path d="M84.744 584.75L499.414 584.75L499.414 584.75L499.414 89.44L499.414 89.44L84.744 89.44z" /></clipPath><clipPath id="83"><path d="M84.744 584.75L499.414 584.75L499.414 584.75L499.414 89.44L499.414 89.44L84.744 89.44z" /></clipPath><clipPath id="84"><path d="M84.744 584.75L499.414 584.75L499.414 584.75L499.414 89.44L499.414 89.44L84.744 89.44z" /></clipPath><clipPath id="85"><path d="M84.744 584.75L499.414 584.75L499.414 584.75L499.414 89.44L499.414 89.44L84.744 89.44z" /></clipPath><clipPath id="86"><path d="M84.744 584.75L499.414 584.75L499.414 584.75L499.414 89.44L499.414 89.44L84.744 89.44z" /></clipPath><clipPath id="87"><path d="M84.744 584.75L499.414 584.75L499.414 584.75L499.414 89.44L499.414 89.44L84.744 89.44z" /></clipPath><clipPath id="88"><path d="M84.744 584.75L499.414 584.75L499.414 584.75L499.414 89.44L499.414 89.44L84.744 89.44z" /></clipPath><clipPath id="89"><path d="M84.744 584.75L499.414 584.75L499.414 584.75L499.414 89.44L499.414 89.44L84.744 89.44z" /></clipPath><clipPath id="90"><path d="M84.744 584.75L499.414 584.75L499.414 584.75L499.414 89.44L499.414 89.44L84.744 89.44z" /></clipPath><clipPath id="91"><path d="M84.744 584.75L499.414 584.75L499.414 584.75L499.414 89.44L499.414 89.44L84.744 89.44z" /></clipPath><clipPath id="92"><path d="M84.744 584.75L499.414 584.75L499.414 584.75L499.414 89.44L499.414 89.44L84.744 89.44z" /></clipPath><clipPath id="93"><path d="M84.744 584.75L499.414 584.75L499.414 584.75L499.414 89.44L499.414 89.44L84.744 89.44z" /></clipPath><clipPath id="94"><path d="M84.744 584.75L499.414 584.75L499.414 584.75L499.414 89.44L499.414 89.44L84.744 89.44z" /></clipPath><clipPath id="95"><path d="M84.744 584.75L499.414 584.75L499.414 584.75L499.414 89.44L499.414 89.44L84.744 89.44z" /></clipPath></defs><g transform="matrix(1.333333 0 0 1.333333 0 0)"><g><g clip-path="url(#1)"><path transform="matrix(1 0 0 -1 0 841)" d="M457.51 53.304L505.534 53.304L505.534 53.304L505.534 53.90404L505.534 53.90404L457.51 53.90404z" stroke="none" fill="#000000" fill-rule="evenodd" /><g clip-path="url(#2)"><path transform="matrix(1 0 0 -1 0 841)" d="M88.464 77.904L506.974 77.904L506.974 77.904L506.974 80.904L506.974 80.904L88.464 80.904z" stroke="none" fill="#000000" fill-rule="evenodd" /><path transform="matrix(1 0 0 -1 0 841)" d="M88.464 76.464L506.974 76.464L506.974 76.464L506.974 77.18397L506.974 77.18397L88.464 77.18397z" stroke="none" fill="#000000" fill-rule="evenodd" /></g><g clip-path="url(#3)"><g clip-path="url(#4)"></g><g clip-path="url(#5)"></g></g><path transform="matrix(1 0 0 -1 0 841)" d="M84.744 256.25L499.414 256.25L499.414 256.25L499.414 751.56L499.414 751.56L84.744 751.56z" stroke="none" fill="#DAEEF3" fill-rule="evenodd" /><g clip-path="url(#6)"><path transform="matrix(1 0 0 -1 0 841)" d="M89.904 732.46L494.254 732.46L494.254 732.46L494.254 751.564L494.254 751.564L89.904 751.564z" stroke="none" fill="#DAEEF3" fill-rule="evenodd" /><g clip-path="url(#7)"></g><g clip-path="url(#8)"></g><g clip-path="url(#9)"></g><path transform="matrix(1 0 0 -1 0 841)" d="M89.904 713.5L494.254 713.5L494.254 713.5L494.254 732.46L494.254 732.46L89.904 732.46z" stroke="none" fill="#DAEEF3" fill-rule="evenodd" /><g clip-path="url(#10)"></g><g clip-path="url(#11)"></g><g clip-path="url(#12)"></g><path transform="matrix(1 0 0 -1 0 841)" d="M89.904 694.42L494.254 694.42L494.254 694.42L494.254 713.5L494.254 713.5L89.904 713.5z" stroke="none" fill="#DAEEF3" fill-rule="evenodd" /><g clip-path="url(#13)"></g><g clip-path="url(#14)"></g><g clip-path="url(#15)"></g><path transform="matrix(1 0 0 -1 0 841)" d="M89.904 675.34L494.254 675.34L494.254 675.34L494.254 694.42L494.254 694.42L89.904 694.42z" stroke="none" fill="#DAEEF3" fill-rule="evenodd" /><g clip-path="url(#16)"></g><g clip-path="url(#17)"></g><g clip-path="url(#18)"></g><path transform="matrix(1 0 0 -1 0 841)" d="M89.904 656.26L494.254 656.26L494.254 656.26L494.254 675.34L494.254 675.34L89.904 675.34z" stroke="none" fill="#DAEEF3" fill-rule="evenodd" /><g clip-path="url(#19)"></g><g clip-path="url(#20)"></g><g clip-path="url(#21)"></g><path transform="matrix(1 0 0 -1 0 841)" d="M89.904 637.3L494.254 637.3L494.254 637.3L494.254 656.26L494.254 656.26L89.904 656.26z" stroke="none" fill="#DAEEF3" fill-rule="evenodd" /><g clip-path="url(#22)"></g><g clip-path="url(#23)"></g><g clip-path="url(#24)"></g><path transform="matrix(1 0 0 -1 0 841)" d="M89.904 618.22L494.254 618.22L494.254 618.22L494.254 637.3L494.254 637.3L89.904 637.3z" stroke="none" fill="#DAEEF3" fill-rule="evenodd" /><g clip-path="url(#25)"></g><g clip-path="url(#26)"></g><g clip-path="url(#27)"></g><path transform="matrix(1 0 0 -1 0 841)" d="M89.904 599.14L494.254 599.14L494.254 599.14L494.254 618.22L494.254 618.22L89.904 618.22z" stroke="none" fill="#DAEEF3" fill-rule="evenodd" /><g clip-path="url(#28)"></g><g clip-path="url(#29)"></g><g clip-path="url(#30)"></g><path transform="matrix(1 0 0 -1 0 841)" d="M89.904 580.06L494.254 580.06L494.254 580.06L494.254 599.14L494.254 599.14L89.904 599.14z" stroke="none" fill="#DAEEF3" fill-rule="evenodd" /><g clip-path="url(#31)"></g><g clip-path="url(#32)"></g><g clip-path="url(#33)"></g><path transform="matrix(1 0 0 -1 0 841)" d="M89.904 561.1L494.254 561.1L494.254 561.1L494.254 580.06L494.254 580.06L89.904 580.06z" stroke="none" fill="#DAEEF3" fill-rule="evenodd" /><g clip-path="url(#34)"></g><g clip-path="url(#35)"></g><g clip-path="url(#36)"></g><path transform="matrix(1 0 0 -1 0 841)" d="M89.904 541.99L494.254 541.99L494.254 541.99L494.254 561.094L494.254 561.094L89.904 561.094z" stroke="none" fill="#DAEEF3" fill-rule="evenodd" /><g clip-path="url(#37)"></g><g clip-path="url(#38)"></g><g clip-path="url(#39)"></g><path transform="matrix(1 0 0 -1 0 841)" d="M89.904 522.91L494.254 522.91L494.254 522.91L494.254 541.99L494.254 541.99L89.904 541.99z" stroke="none" fill="#DAEEF3" fill-rule="evenodd" /><g clip-path="url(#40)"></g><g clip-path="url(#41)"></g><g clip-path="url(#42)"></g><path transform="matrix(1 0 0 -1 0 841)" d="M89.904 503.83L494.254 503.83L494.254 503.83L494.254 522.91L494.254 522.91L89.904 522.91z" stroke="none" fill="#DAEEF3" fill-rule="evenodd" /><g clip-path="url(#43)"></g><g clip-path="url(#44)"></g><g clip-path="url(#45)"></g><path transform="matrix(1 0 0 -1 0 841)" d="M89.904 484.87L494.254 484.87L494.254 484.87L494.254 503.83L494.254 503.83L89.904 503.83z" stroke="none" fill="#DAEEF3" fill-rule="evenodd" /><g clip-path="url(#46)"></g><g clip-path="url(#47)"></g><g clip-path="url(#48)"></g><path transform="matrix(1 0 0 -1 0 841)" d="M89.904 465.79L494.254 465.79L494.254 465.79L494.254 484.87L494.254 484.87L89.904 484.87z" stroke="none" fill="#DAEEF3" fill-rule="evenodd" /><g clip-path="url(#49)"></g><g clip-path="url(#50)"></g><g clip-path="url(#51)"></g><path transform="matrix(1 0 0 -1 0 841)" d="M89.904 446.71L494.254 446.71L494.254 446.71L494.254 465.79L494.254 465.79L89.904 465.79z" stroke="none" fill="#DAEEF3" fill-rule="evenodd" /><g clip-path="url(#52)"></g><g clip-path="url(#53)"></g><g clip-path="url(#54)"></g><path transform="matrix(1 0 0 -1 0 841)" d="M89.904 427.63L494.254 427.63L494.254 427.63L494.254 446.71L494.254 446.71L89.904 446.71z" stroke="none" fill="#DAEEF3" fill-rule="evenodd" /><g clip-path="url(#55)"></g><g clip-path="url(#56)"></g><g clip-path="url(#57)"></g><g clip-path="url(#58)"></g><g clip-path="url(#59)"></g><path transform="matrix(1 0 0 -1 0 841)" d="M89.904 408.67L494.254 408.67L494.254 408.67L494.254 427.63L494.254 427.63L89.904 427.63z" stroke="none" fill="#DAEEF3" fill-rule="evenodd" /><g clip-path="url(#60)"></g><g clip-path="url(#61)"></g><g clip-path="url(#62)"></g><path transform="matrix(1 0 0 -1 0 841)" d="M89.904 389.59L494.254 389.59L494.254 389.59L494.254 408.67L494.254 408.67L89.904 408.67z" stroke="none" fill="#DAEEF3" fill-rule="evenodd" /><g clip-path="url(#63)"></g><g clip-path="url(#64)"></g><g clip-path="url(#65)"></g><path transform="matrix(1 0 0 -1 0 841)" d="M89.904 370.51L494.254 370.51L494.254 370.51L494.254 389.59L494.254 389.59L89.904 389.59z" stroke="none" fill="#DAEEF3" fill-rule="evenodd" /><g clip-path="url(#66)"></g><g clip-path="url(#67)"></g><g clip-path="url(#68)"></g><path transform="matrix(1 0 0 -1 0 841)" d="M89.904 351.41L494.254 351.41L494.254 351.41L494.254 370.514L494.254 370.514L89.904 370.514z" stroke="none" fill="#DAEEF3" fill-rule="evenodd" /><g clip-path="url(#69)"></g><g clip-path="url(#70)"></g><g clip-path="url(#71)"></g><g clip-path="url(#72)"></g><g clip-path="url(#73)"></g><g clip-path="url(#74)"></g><path transform="matrix(1 0 0 -1 0 841)" d="M89.904 332.45L494.254 332.45L494.254 332.45L494.254 351.41L494.254 351.41L89.904 351.41z" stroke="none" fill="#DAEEF3" fill-rule="evenodd" /><g clip-path="url(#75)"></g><g clip-path="url(#76)"></g><g clip-path="url(#77)"></g><g clip-path="url(#78)"></g><path transform="matrix(1 0 0 -1 0 841)" d="M89.904 313.37L494.254 313.37L494.254 313.37L494.254 332.45L494.254 332.45L89.904 332.45z" stroke="none" fill="#DAEEF3" fill-rule="evenodd" /><g clip-path="url(#79)"></g><g clip-path="url(#80)"></g><g clip-path="url(#81)"></g><g clip-path="url(#82)"></g><g clip-path="url(#83)"></g><g clip-path="url(#84)"></g><path transform="matrix(1 0 0 -1 0 841)" d="M89.904 294.29L494.254 294.29L494.254 294.29L494.254 313.37L494.254 313.37L89.904 313.37z" stroke="none" fill="#DAEEF3" fill-rule="evenodd" /><g clip-path="url(#85)"></g><g clip-path="url(#86)"></g><g clip-path="url(#87)"></g><g clip-path="url(#88)"></g><g clip-path="url(#89)"></g><path transform="matrix(1 0 0 -1 0 841)" d="M89.904 275.21L494.254 275.21L494.254 275.21L494.254 294.29L494.254 294.29L89.904 294.29z" stroke="none" fill="#DAEEF3" fill-rule="evenodd" /><g clip-path="url(#90)"></g><g clip-path="url(#91)"></g><g clip-path="url(#92)"></g><g clip-path="url(#93)"></g><path transform="matrix(1 0 0 -1 0 841)" d="M89.904 256.25L494.254 256.25L494.254 256.25L494.254 275.21L494.254 275.21L89.904 275.21z" stroke="none" fill="#DAEEF3" fill-rule="evenodd" /><g clip-path="url(#94)"></g><g clip-path="url(#95)"></g></g><path transform="matrix(1 0 0 -1 0 841)" d="M84.264 751.56L84.744 751.56L84.744 751.56L84.744 752.04L84.744 752.04L84.264 752.04z" stroke="none" fill="#000000" fill-rule="evenodd" /><path transform="matrix(1 0 0 -1 0 841)" d="M84.264 751.56L84.744 751.56L84.744 751.56L84.744 752.04L84.744 752.04L84.264 752.04z" stroke="none" fill="#000000" fill-rule="evenodd" /><path transform="matrix(1 0 0 -1 0 841)" d="M84.744 751.56L499.414 751.56L499.414 751.56L499.414 752.04L499.414 752.04L84.744 752.04z" stroke="none" fill="#000000" fill-rule="evenodd" /><path transform="matrix(1 0 0 -1 0 841)" d="M499.42 751.56L499.9 751.56L499.9 751.56L499.9 752.04L499.9 752.04L499.42 752.04z" stroke="none" fill="#000000" fill-rule="evenodd" /><path transform="matrix(1 0 0 -1 0 841)" d="M499.42 751.56L499.9 751.56L499.9 751.56L499.9 752.04L499.9 752.04L499.42 752.04z" stroke="none" fill="#000000" fill-rule="evenodd" /><path transform="matrix(1 0 0 -1 0 841)" d="M84.264 256.13L84.744 256.13L84.744 256.13L84.744 751.56L84.744 751.56L84.264 751.56z" stroke="none" fill="#000000" fill-rule="evenodd" /><path transform="matrix(1 0 0 -1 0 841)" d="M84.264 255.65L84.744 255.65L84.744 255.65L84.744 256.13L84.744 256.13L84.264 256.13z" stroke="none" fill="#000000" fill-rule="evenodd" /><path transform="matrix(1 0 0 -1 0 841)" d="M84.264 255.65L84.744 255.65L84.744 255.65L84.744 256.13L84.744 256.13L84.264 256.13z" stroke="none" fill="#000000" fill-rule="evenodd" /><path transform="matrix(1 0 0 -1 0 841)" d="M84.744 255.65L499.414 255.65L499.414 255.65L499.414 256.13L499.414 256.13L84.744 256.13z" stroke="none" fill="#000000" fill-rule="evenodd" /><path transform="matrix(1 0 0 -1 0 841)" d="M499.42 256.13L499.9 256.13L499.9 256.13L499.9 751.56L499.9 751.56L499.42 751.56z" stroke="none" fill="#000000" fill-rule="evenodd" /><path transform="matrix(1 0 0 -1 0 841)" d="M499.42 255.65L499.9 255.65L499.9 255.65L499.9 256.13L499.9 256.13L499.42 256.13z" stroke="none" fill="#000000" fill-rule="evenodd" /><path transform="matrix(1 0 0 -1 0 841)" d="M499.42 255.65L499.9 255.65L499.9 255.65L499.9 256.13L499.9 256.13L499.42 256.13z" stroke="none" fill="#000000" fill-rule="evenodd" /></g></g></g></svg>