<svg xmlns="http://www.w3.org/2000/svg" xmlns:xlink="http://www.w3.org/1999/xlink" id="body_132" preserveAspectRatio="xMinYMin meet" viewBox="0 0 793 1121"><defs><clipPath id="1"><path d="M0 841L0 -0.9199829L0 -0.9199829L595.32 -0.9199829L595.32 -0.9199829L595.32 841L595.32 841L0 841z" /></clipPath><clipPath id="2"><path d="M0.00125 841.0914L595.4112 841.0914L595.4112 841.0914L595.4112 -0.9186401L595.4112 -0.9186401L0.00125 -0.9186401z" /></clipPath><clipPath id="3"><path d="M288.05 781.211L316.01 781.211L316.01 781.211L316.01 762.011L316.01 762.011L288.05 762.011z" /></clipPath><clipPath id="4"><path d="M288.05 781.216L316.01 781.216L316.01 781.216L316.01 762.016L316.01 762.016L288.05 762.016z" /></clipPath><clipPath id="5"><path d="M288.05 781.216L316.01 781.216L316.01 781.216L316.01 762.016L316.01 762.016L288.05 762.016z" /></clipPath><clipPath id="6"><path d="M84.751 617.88L147.751 617.88L147.751 617.88L147.751 598.92L147.751 598.92L84.751 598.92z" /></clipPath><clipPath id="7"><path d="M84.744 617.87L147.744 617.87L147.744 617.87L147.744 598.91L147.744 598.91L84.744 598.91z" /></clipPath><clipPath id="8"><path d="M84.744 617.87L147.744 617.87L147.744 617.87L147.744 598.91L147.744 598.91L84.744 598.91z" /></clipPath><clipPath id="9"><path d="M148.23 617.88L197.43 617.88L197.43 617.88L197.43 598.92L197.43 598.92L148.23 598.92z" /></clipPath><clipPath id="10"><path d="M148.22 617.87L197.42 617.87L197.42 617.87L197.42 598.91L197.42 598.91L148.22 598.91z" /></clipPath><clipPath id="11"><path d="M148.22 617.87L197.42 617.87L197.42 617.87L197.42 598.91L197.42 598.91L148.22 598.91z" /></clipPath><clipPath id="12"><path d="M197.91 617.88L239.925 617.88L239.925 617.88L239.925 598.92L239.925 598.92L197.91 598.92z" /></clipPath><clipPath id="13"><path d="M197.9 617.87L239.924 617.87L239.924 617.87L239.924 598.91L239.924 598.91L197.9 598.91z" /></clipPath><clipPath id="14"><path d="M197.9 617.87L239.924 617.87L239.924 617.87L239.924 598.91L239.924 598.91L197.9 598.91z" /></clipPath><clipPath id="15"><path d="M240.41 617.88L410.12 617.88L410.12 617.88L410.12 598.92L410.12 598.92L240.41 598.92z" /></clipPath><clipPath id="16"><path d="M240.41 617.87L410.11 617.87L410.11 617.87L410.11 598.91L410.11 598.91L240.41 598.91z" /></clipPath><clipPath id="17"><path d="M240.41 617.87L410.11 617.87L410.11 617.87L410.11 598.91L410.11 598.91L240.41 598.91z" /></clipPath><clipPath id="18"><path d="M410.6 617.88L502.295 617.88L502.295 617.88L502.295 598.92L502.295 598.92L410.6 598.92z" /></clipPath><clipPath id="19"><path d="M410.59 617.87L502.294 617.87L502.294 617.87L502.294 598.91L502.294 598.91L410.59 598.91z" /></clipPath><clipPath id="20"><path d="M410.59 617.87L502.294 617.87L502.294 617.87L502.294 598.91L502.294 598.91L410.59 598.91z" /></clipPath><clipPath id="21"><path d="M84.751 656.52L147.751 656.52L147.751 656.52L147.751 618.48L147.751 618.48L84.751 618.48z" /></clipPath><clipPath id="22"><path d="M84.744 656.51L147.744 656.51L147.744 656.51L147.744 618.47L147.744 618.47L84.744 618.47z" /></clipPath><clipPath id="23"><path d="M84.744 656.51L147.744 656.51L147.744 656.51L147.744 618.47L147.744 618.47L84.744 618.47z" /></clipPath><clipPath id="24"><path d="M148.23 656.52L197.43 656.52L197.43 656.52L197.43 618.48L197.43 618.48L148.23 618.48z" /></clipPath><clipPath id="25"><path d="M148.22 656.51L197.42 656.51L197.42 656.51L197.42 618.47L197.42 618.47L148.22 618.47z" /></clipPath><clipPath id="26"><path d="M148.22 656.51L197.42 656.51L197.42 656.51L197.42 618.47L197.42 618.47L148.22 618.47z" /></clipPath><clipPath id="27"><path d="M197.91 656.52L239.925 656.52L239.925 656.52L239.925 618.48L239.925 618.48L197.91 618.48z" /></clipPath><clipPath id="28"><path d="M197.9 656.51L239.924 656.51L239.924 656.51L239.924 618.47L239.924 618.47L197.9 618.47z" /></clipPath><clipPath id="29"><path d="M197.9 656.51L239.924 656.51L239.924 656.51L239.924 618.47L239.924 618.47L197.9 618.47z" /></clipPath><clipPath id="30"><path d="M240.41 656.52L410.12 656.52L410.12 656.52L410.12 618.48L410.12 618.48L240.41 618.48z" /></clipPath><clipPath id="31"><path d="M240.41 656.51L410.11 656.51L410.11 656.51L410.11 618.47L410.11 618.47L240.41 618.47z" /></clipPath><clipPath id="32"><path d="M240.41 656.51L410.11 656.51L410.11 656.51L410.11 618.47L410.11 618.47L240.41 618.47z" /></clipPath><clipPath id="33"><path d="M240.41 656.51L410.11 656.51L410.11 656.51L410.11 618.47L410.11 618.47L240.41 618.47z" /></clipPath><clipPath id="34"><path d="M410.6 656.52L502.295 656.52L502.295 656.52L502.295 618.48L502.295 618.48L410.6 618.48z" /></clipPath><clipPath id="35"><path d="M410.59 656.51L502.294 656.51L502.294 656.51L502.294 618.47L502.294 618.47L410.59 618.47z" /></clipPath><clipPath id="36"><path d="M410.59 656.51L502.294 656.51L502.294 656.51L502.294 618.47L502.294 618.47L410.59 618.47z" /></clipPath><clipPath id="37"><path d="M84.751 686.05L147.751 686.05L147.751 686.05L147.751 656.995L147.751 656.995L84.751 656.995z" /></clipPath><clipPath id="38"><path d="M84.744 686.06L147.744 686.06L147.744 686.06L147.744 656.996L147.744 656.996L84.744 656.996z" /></clipPath><clipPath id="39"><path d="M84.744 686.06L147.744 686.06L147.744 686.06L147.744 656.996L147.744 656.996L84.744 656.996z" /></clipPath><clipPath id="40"><path d="M148.23 686.05L197.43 686.05L197.43 686.05L197.43 656.995L197.43 656.995L148.23 656.995z" /></clipPath><clipPath id="41"><path d="M148.22 686.06L197.42 686.06L197.42 686.06L197.42 656.996L197.42 656.996L148.22 656.996z" /></clipPath><clipPath id="42"><path d="M148.22 686.06L197.42 686.06L197.42 686.06L197.42 656.996L197.42 656.996L148.22 656.996z" /></clipPath><clipPath id="43"><path d="M197.91 686.05L239.925 686.05L239.925 686.05L239.925 656.995L239.925 656.995L197.91 656.995z" /></clipPath><clipPath id="44"><path d="M197.9 686.06L239.924 686.06L239.924 686.06L239.924 656.996L239.924 656.996L197.9 656.996z" /></clipPath><clipPath id="45"><path d="M197.9 686.06L239.924 686.06L239.924 686.06L239.924 656.996L239.924 656.996L197.9 656.996z" /></clipPath><clipPath id="46"><path d="M240.41 686.05L410.12 686.05L410.12 686.05L410.12 656.995L410.12 656.995L240.41 656.995z" /></clipPath><clipPath id="47"><path d="M240.41 686.06L410.11 686.06L410.11 686.06L410.11 656.996L410.11 656.996L240.41 656.996z" /></clipPath><clipPath id="48"><path d="M240.41 686.06L410.11 686.06L410.11 686.06L410.11 656.996L410.11 656.996L240.41 656.996z" /></clipPath><clipPath id="49"><path d="M410.6 686.05L502.295 686.05L502.295 686.05L502.295 656.995L502.295 656.995L410.6 656.995z" /></clipPath><clipPath id="50"><path d="M410.59 686.06L502.294 686.06L502.294 686.06L502.294 656.996L502.294 656.996L410.59 656.996z" /></clipPath><clipPath id="51"><path d="M410.59 686.06L502.294 686.06L502.294 686.06L502.294 656.996L502.294 656.996L410.59 656.996z" /></clipPath><clipPath id="52"><path d="M84.751 724.69L147.751 724.69L147.751 724.69L147.751 686.65L147.751 686.65L84.751 686.65z" /></clipPath><clipPath id="53"><path d="M84.744 724.7L147.744 724.7L147.744 724.7L147.744 686.66L147.744 686.66L84.744 686.66z" /></clipPath><clipPath id="54"><path d="M84.744 724.7L147.744 724.7L147.744 724.7L147.744 686.66L147.744 686.66L84.744 686.66z" /></clipPath><clipPath id="55"><path d="M84.744 724.7L147.744 724.7L147.744 724.7L147.744 686.66L147.744 686.66L84.744 686.66z" /></clipPath><clipPath id="56"><path d="M148.23 724.69L197.43 724.69L197.43 724.69L197.43 686.65L197.43 686.65L148.23 686.65z" /></clipPath><clipPath id="57"><path d="M148.22 724.7L197.42 724.7L197.42 724.7L197.42 686.66L197.42 686.66L148.22 686.66z" /></clipPath><clipPath id="58"><path d="M148.22 724.7L197.42 724.7L197.42 724.7L197.42 686.66L197.42 686.66L148.22 686.66z" /></clipPath><clipPath id="59"><path d="M197.91 724.69L239.925 724.69L239.925 724.69L239.925 686.65L239.925 686.65L197.91 686.65z" /></clipPath><clipPath id="60"><path d="M197.9 724.7L239.924 724.7L239.924 724.7L239.924 686.66L239.924 686.66L197.9 686.66z" /></clipPath><clipPath id="61"><path d="M197.9 724.7L239.924 724.7L239.924 724.7L239.924 686.66L239.924 686.66L197.9 686.66z" /></clipPath><clipPath id="62"><path d="M240.41 724.69L410.12 724.69L410.12 724.69L410.12 686.65L410.12 686.65L240.41 686.65z" /></clipPath><clipPath id="63"><path d="M240.41 724.7L410.11 724.7L410.11 724.7L410.11 686.66L410.11 686.66L240.41 686.66z" /></clipPath><clipPath id="64"><path d="M240.41 724.7L410.11 724.7L410.11 724.7L410.11 686.66L410.11 686.66L240.41 686.66z" /></clipPath><clipPath id="65"><path d="M240.41 724.7L410.11 724.7L410.11 724.7L410.11 686.66L410.11 686.66L240.41 686.66z" /></clipPath><clipPath id="66"><path d="M410.6 724.69L502.295 724.69L502.295 724.69L502.295 686.65L502.295 686.65L410.6 686.65z" /></clipPath><clipPath id="67"><path d="M410.59 724.7L502.294 724.7L502.294 724.7L502.294 686.66L502.294 686.66L410.59 686.66z" /></clipPath><clipPath id="68"><path d="M410.59 724.7L502.294 724.7L502.294 724.7L502.294 686.66L502.294 686.66L410.59 686.66z" /></clipPath></defs><g transform="matrix(1.333333 0 0 1.333333 0 0)"><g><g clip-path="url(#1)"><path transform="matrix(1 0 0 -1 0 841)" d="M457.51 53.304L505.534 53.304L505.534 53.304L505.534 53.90404L505.534 53.90404L457.51 53.90404z" stroke="none" fill="#000000" fill-rule="evenodd" /><g clip-path="url(#2)"><path transform="matrix(1 0 0 -1 0 841)" d="M88.464 77.904L506.974 77.904L506.974 77.904L506.974 80.904L506.974 80.904L88.464 80.904z" stroke="none" fill="#000000" fill-rule="evenodd" /><path transform="matrix(1 0 0 -1 0 841)" d="M88.464 76.464L506.974 76.464L506.974 76.464L506.974 77.18397L506.974 77.18397L88.464 77.18397z" stroke="none" fill="#000000" fill-rule="evenodd" /></g><g clip-path="url(#3)"><g clip-path="url(#4)"></g><g clip-path="url(#5)"></g></g><path transform="matrix(1 0 0 -1 0 841)" d="M84.744 223.13L147.744 223.13L147.744 223.13L147.744 242.09L147.744 242.09L84.744 242.09z" stroke="none" fill="#0070C0" fill-rule="evenodd" /><g clip-path="url(#6)"><path transform="matrix(1 0 0 -1 0 841)" d="M89.904 223.13L142.584 223.13L142.584 223.13L142.584 242.09L142.584 242.09L89.904 242.09z" stroke="none" fill="#0070C0" fill-rule="evenodd" /><g clip-path="url(#7)"></g><g clip-path="url(#8)"></g></g><path transform="matrix(1 0 0 -1 0 841)" d="M148.22 223.13L197.42 223.13L197.42 223.13L197.42 242.09L197.42 242.09L148.22 242.09z" stroke="none" fill="#0070C0" fill-rule="evenodd" /><g clip-path="url(#9)"><path transform="matrix(1 0 0 -1 0 841)" d="M153.38 223.13L192.26 223.13L192.26 223.13L192.26 242.09L192.26 242.09L153.38 242.09z" stroke="none" fill="#0070C0" fill-rule="evenodd" /><g clip-path="url(#10)"></g><g clip-path="url(#11)"></g></g><path transform="matrix(1 0 0 -1 0 841)" d="M197.9 223.13L239.924 223.13L239.924 223.13L239.924 242.09L239.924 242.09L197.9 242.09z" stroke="none" fill="#0070C0" fill-rule="evenodd" /><g clip-path="url(#12)"><path transform="matrix(1 0 0 -1 0 841)" d="M203.09 223.13L234.77 223.13L234.77 223.13L234.77 242.09L234.77 242.09L203.09 242.09z" stroke="none" fill="#0070C0" fill-rule="evenodd" /><g clip-path="url(#13)"></g><g clip-path="url(#14)"></g></g><path transform="matrix(1 0 0 -1 0 841)" d="M240.41 223.13L410.11 223.13L410.11 223.13L410.11 242.09L410.11 242.09L240.41 242.09z" stroke="none" fill="#0070C0" fill-rule="evenodd" /><g clip-path="url(#15)"><path transform="matrix(1 0 0 -1 0 841)" d="M245.57 223.13L404.95 223.13L404.95 223.13L404.95 242.09L404.95 242.09L245.57 242.09z" stroke="none" fill="#0070C0" fill-rule="evenodd" /><g clip-path="url(#16)"></g><g clip-path="url(#17)"></g></g><path transform="matrix(1 0 0 -1 0 841)" d="M410.59 223.13L502.294 223.13L502.294 223.13L502.294 242.09L502.294 242.09L410.59 242.09z" stroke="none" fill="#0070C0" fill-rule="evenodd" /><g clip-path="url(#18)"><path transform="matrix(1 0 0 -1 0 841)" d="M415.75 223.13L497.134 223.13L497.134 223.13L497.134 242.09L497.134 242.09L415.75 242.09z" stroke="none" fill="#0070C0" fill-rule="evenodd" /><g clip-path="url(#19)"></g><g clip-path="url(#20)"></g></g><path transform="matrix(1 0 0 -1 0 841)" d="M84.264 242.09L84.744 242.09L84.744 242.09L84.744 242.57L84.744 242.57L84.264 242.57z" stroke="none" fill="#000000" fill-rule="evenodd" /><path transform="matrix(1 0 0 -1 0 841)" d="M84.264 242.09L84.744 242.09L84.744 242.09L84.744 242.57L84.744 242.57L84.264 242.57z" stroke="none" fill="#000000" fill-rule="evenodd" /><path transform="matrix(1 0 0 -1 0 841)" d="M84.744 242.09L147.864 242.09L147.864 242.09L147.864 242.57L147.864 242.57L84.744 242.57z" stroke="none" fill="#000000" fill-rule="evenodd" /><path transform="matrix(1 0 0 -1 0 841)" d="M147.86 242.09L148.34 242.09L148.34 242.09L148.34 242.57L148.34 242.57L147.86 242.57z" stroke="none" fill="#000000" fill-rule="evenodd" /><path transform="matrix(1 0 0 -1 0 841)" d="M148.34 242.09L197.42 242.09L197.42 242.09L197.42 242.57L197.42 242.57L148.34 242.57z" stroke="none" fill="#000000" fill-rule="evenodd" /><path transform="matrix(1 0 0 -1 0 841)" d="M197.42 242.09L197.9 242.09L197.9 242.09L197.9 242.57L197.9 242.57L197.42 242.57z" stroke="none" fill="#000000" fill-rule="evenodd" /><path transform="matrix(1 0 0 -1 0 841)" d="M197.9 242.09L240.044 242.09L240.044 242.09L240.044 242.57L240.044 242.57L197.9 242.57z" stroke="none" fill="#000000" fill-rule="evenodd" /><path transform="matrix(1 0 0 -1 0 841)" d="M240.05 242.09L240.53 242.09L240.53 242.09L240.53 242.57L240.53 242.57L240.05 242.57z" stroke="none" fill="#000000" fill-rule="evenodd" /><path transform="matrix(1 0 0 -1 0 841)" d="M240.53 242.09L410.11 242.09L410.11 242.09L410.11 242.57L410.11 242.57L240.53 242.57z" stroke="none" fill="#000000" fill-rule="evenodd" /><path transform="matrix(1 0 0 -1 0 841)" d="M410.11 242.09L410.59 242.09L410.59 242.09L410.59 242.57L410.59 242.57L410.11 242.57z" stroke="none" fill="#000000" fill-rule="evenodd" /><path transform="matrix(1 0 0 -1 0 841)" d="M410.59 242.09L502.294 242.09L502.294 242.09L502.294 242.57L502.294 242.57L410.59 242.57z" stroke="none" fill="#000000" fill-rule="evenodd" /><path transform="matrix(1 0 0 -1 0 841)" d="M502.3 242.09L502.78 242.09L502.78 242.09L502.78 242.57L502.78 242.57L502.3 242.57z" stroke="none" fill="#000000" fill-rule="evenodd" /><path transform="matrix(1 0 0 -1 0 841)" d="M502.3 242.09L502.78 242.09L502.78 242.09L502.78 242.57L502.78 242.57L502.3 242.57z" stroke="none" fill="#000000" fill-rule="evenodd" /><path transform="matrix(1 0 0 -1 0 841)" d="M84.264 223.13L84.744 223.13L84.744 223.13L84.744 242.09L84.744 242.09L84.264 242.09z" stroke="none" fill="#000000" fill-rule="evenodd" /><path transform="matrix(1 0 0 -1 0 841)" d="M147.86 223.13L148.34 223.13L148.34 223.13L148.34 242.09L148.34 242.09L147.86 242.09z" stroke="none" fill="#000000" fill-rule="evenodd" /><path transform="matrix(1 0 0 -1 0 841)" d="M197.42 223.13L197.9 223.13L197.9 223.13L197.9 242.09L197.9 242.09L197.42 242.09z" stroke="none" fill="#000000" fill-rule="evenodd" /><path transform="matrix(1 0 0 -1 0 841)" d="M240.05 223.13L240.53 223.13L240.53 223.13L240.53 242.09L240.53 242.09L240.05 242.09z" stroke="none" fill="#000000" fill-rule="evenodd" /><path transform="matrix(1 0 0 -1 0 841)" d="M410.11 223.13L410.59 223.13L410.59 223.13L410.59 242.09L410.59 242.09L410.11 242.09z" stroke="none" fill="#000000" fill-rule="evenodd" /><path transform="matrix(1 0 0 -1 0 841)" d="M502.3 223.13L502.78 223.13L502.78 223.13L502.78 242.09L502.78 242.09L502.3 242.09z" stroke="none" fill="#000000" fill-rule="evenodd" /><path transform="matrix(1 0 0 -1 0 841)" d="M84.744 184.49L147.744 184.49L147.744 184.49L147.744 222.53L147.744 222.53L84.744 222.53z" stroke="none" fill="#DAEEF3" fill-rule="evenodd" /><g clip-path="url(#21)"><path transform="matrix(1 0 0 -1 0 841)" d="M89.904 193.97L142.584 193.97L142.584 193.97L142.584 213.05L142.584 213.05L89.904 213.05z" stroke="none" fill="#DAEEF3" fill-rule="evenodd" /><g clip-path="url(#22)"></g><g clip-path="url(#23)"></g></g><path transform="matrix(1 0 0 -1 0 841)" d="M148.22 184.49L197.42 184.49L197.42 184.49L197.42 222.53L197.42 222.53L148.22 222.53z" stroke="none" fill="#DAEEF3" fill-rule="evenodd" /><g clip-path="url(#24)"><path transform="matrix(1 0 0 -1 0 841)" d="M153.38 193.97L192.26 193.97L192.26 193.97L192.26 213.05L192.26 213.05L153.38 213.05z" stroke="none" fill="#DAEEF3" fill-rule="evenodd" /><g clip-path="url(#25)"></g><g clip-path="url(#26)"></g></g><path transform="matrix(1 0 0 -1 0 841)" d="M197.9 184.49L239.924 184.49L239.924 184.49L239.924 222.53L239.924 222.53L197.9 222.53z" stroke="none" fill="#DAEEF3" fill-rule="evenodd" /><g clip-path="url(#27)"><path transform="matrix(1 0 0 -1 0 841)" d="M203.09 193.97L234.77 193.97L234.77 193.97L234.77 213.05L234.77 213.05L203.09 213.05z" stroke="none" fill="#DAEEF3" fill-rule="evenodd" /><g clip-path="url(#28)"></g><g clip-path="url(#29)"></g></g><path transform="matrix(1 0 0 -1 0 841)" d="M240.41 184.49L410.11 184.49L410.11 184.49L410.11 222.53L410.11 222.53L240.41 222.53z" stroke="none" fill="#DAEEF3" fill-rule="evenodd" /><g clip-path="url(#30)"><path transform="matrix(1 0 0 -1 0 841)" d="M245.57 203.57L404.95 203.57L404.95 203.57L404.95 222.53L404.95 222.53L245.57 222.53z" stroke="none" fill="#DAEEF3" fill-rule="evenodd" /><g clip-path="url(#31)"></g><path transform="matrix(1 0 0 -1 0 841)" d="M245.57 184.49L404.95 184.49L404.95 184.49L404.95 203.57L404.95 203.57L245.57 203.57z" stroke="none" fill="#DAEEF3" fill-rule="evenodd" /><g clip-path="url(#32)"></g><g clip-path="url(#33)"></g></g><path transform="matrix(1 0 0 -1 0 841)" d="M410.59 184.49L502.294 184.49L502.294 184.49L502.294 222.53L502.294 222.53L410.59 222.53z" stroke="none" fill="#DAEEF3" fill-rule="evenodd" /><g clip-path="url(#34)"><path transform="matrix(1 0 0 -1 0 841)" d="M415.75 193.97L497.134 193.97L497.134 193.97L497.134 213.05L497.134 213.05L415.75 213.05z" stroke="none" fill="#DAEEF3" fill-rule="evenodd" /><g clip-path="url(#35)"></g><g clip-path="url(#36)"></g></g><path transform="matrix(1 0 0 -1 0 841)" d="M84.264 222.65L84.744 222.65L84.744 222.65L84.744 223.13L84.744 223.13L84.264 223.13z" stroke="none" fill="#000000" fill-rule="evenodd" /><path transform="matrix(1 0 0 -1 0 841)" d="M84.744 222.65L147.864 222.65L147.864 222.65L147.864 223.13L147.864 223.13L84.744 223.13z" stroke="none" fill="#000000" fill-rule="evenodd" /><path transform="matrix(1 0 0 -1 0 841)" d="M147.86 222.65L148.34 222.65L148.34 222.65L148.34 223.13L148.34 223.13L147.86 223.13z" stroke="none" fill="#000000" fill-rule="evenodd" /><path transform="matrix(1 0 0 -1 0 841)" d="M148.34 222.65L197.42 222.65L197.42 222.65L197.42 223.13L197.42 223.13L148.34 223.13z" stroke="none" fill="#000000" fill-rule="evenodd" /><path transform="matrix(1 0 0 -1 0 841)" d="M197.42 222.65L197.9 222.65L197.9 222.65L197.9 223.13L197.9 223.13L197.42 223.13z" stroke="none" fill="#000000" fill-rule="evenodd" /><path transform="matrix(1 0 0 -1 0 841)" d="M197.9 222.65L240.044 222.65L240.044 222.65L240.044 223.13L240.044 223.13L197.9 223.13z" stroke="none" fill="#000000" fill-rule="evenodd" /><path transform="matrix(1 0 0 -1 0 841)" d="M240.05 222.65L240.53 222.65L240.53 222.65L240.53 223.13L240.53 223.13L240.05 223.13z" stroke="none" fill="#000000" fill-rule="evenodd" /><path transform="matrix(1 0 0 -1 0 841)" d="M240.53 222.65L410.11 222.65L410.11 222.65L410.11 223.13L410.11 223.13L240.53 223.13z" stroke="none" fill="#000000" fill-rule="evenodd" /><path transform="matrix(1 0 0 -1 0 841)" d="M410.11 222.65L410.59 222.65L410.59 222.65L410.59 223.13L410.59 223.13L410.11 223.13z" stroke="none" fill="#000000" fill-rule="evenodd" /><path transform="matrix(1 0 0 -1 0 841)" d="M410.59 222.65L502.294 222.65L502.294 222.65L502.294 223.13L502.294 223.13L410.59 223.13z" stroke="none" fill="#000000" fill-rule="evenodd" /><path transform="matrix(1 0 0 -1 0 841)" d="M502.3 222.65L502.78 222.65L502.78 222.65L502.78 223.13L502.78 223.13L502.3 223.13z" stroke="none" fill="#000000" fill-rule="evenodd" /><path transform="matrix(1 0 0 -1 0 841)" d="M84.264 184.49L84.744 184.49L84.744 184.49L84.744 222.65L84.744 222.65L84.264 222.65z" stroke="none" fill="#000000" fill-rule="evenodd" /><path transform="matrix(1 0 0 -1 0 841)" d="M147.86 184.49L148.34 184.49L148.34 184.49L148.34 222.65L148.34 222.65L147.86 222.65z" stroke="none" fill="#000000" fill-rule="evenodd" /><path transform="matrix(1 0 0 -1 0 841)" d="M197.42 184.49L197.9 184.49L197.9 184.49L197.9 222.65L197.9 222.65L197.42 222.65z" stroke="none" fill="#000000" fill-rule="evenodd" /><path transform="matrix(1 0 0 -1 0 841)" d="M240.05 184.49L240.53 184.49L240.53 184.49L240.53 222.65L240.53 222.65L240.05 222.65z" stroke="none" fill="#000000" fill-rule="evenodd" /><path transform="matrix(1 0 0 -1 0 841)" d="M410.11 184.49L410.59 184.49L410.59 184.49L410.59 222.65L410.59 222.65L410.11 222.65z" stroke="none" fill="#000000" fill-rule="evenodd" /><path transform="matrix(1 0 0 -1 0 841)" d="M502.3 184.49L502.78 184.49L502.78 184.49L502.78 222.65L502.78 222.65L502.3 222.65z" stroke="none" fill="#000000" fill-rule="evenodd" /><g clip-path="url(#37)"><g clip-path="url(#38)"></g><g clip-path="url(#39)"></g></g><g clip-path="url(#40)"><g clip-path="url(#41)"></g><g clip-path="url(#42)"></g></g><g clip-path="url(#43)"><g clip-path="url(#44)"></g><g clip-path="url(#45)"></g></g><g clip-path="url(#46)"><g clip-path="url(#47)"></g><g clip-path="url(#48)"></g></g><g clip-path="url(#49)"><g clip-path="url(#50)"></g><g clip-path="url(#51)"></g></g><path transform="matrix(1 0 0 -1 0 841)" d="M84.264 184.01L84.744 184.01L84.744 184.01L84.744 184.49L84.744 184.49L84.264 184.49z" stroke="none" fill="#000000" fill-rule="evenodd" /><path transform="matrix(1 0 0 -1 0 841)" d="M84.744 184.01L147.864 184.01L147.864 184.01L147.864 184.49L147.864 184.49L84.744 184.49z" stroke="none" fill="#000000" fill-rule="evenodd" /><path transform="matrix(1 0 0 -1 0 841)" d="M147.86 184.01L148.34 184.01L148.34 184.01L148.34 184.49L148.34 184.49L147.86 184.49z" stroke="none" fill="#000000" fill-rule="evenodd" /><path transform="matrix(1 0 0 -1 0 841)" d="M148.34 184.01L197.42 184.01L197.42 184.01L197.42 184.49L197.42 184.49L148.34 184.49z" stroke="none" fill="#000000" fill-rule="evenodd" /><path transform="matrix(1 0 0 -1 0 841)" d="M197.42 184.01L197.9 184.01L197.9 184.01L197.9 184.49L197.9 184.49L197.42 184.49z" stroke="none" fill="#000000" fill-rule="evenodd" /><path transform="matrix(1 0 0 -1 0 841)" d="M197.9 184.01L240.044 184.01L240.044 184.01L240.044 184.49L240.044 184.49L197.9 184.49z" stroke="none" fill="#000000" fill-rule="evenodd" /><path transform="matrix(1 0 0 -1 0 841)" d="M240.05 184.01L240.53 184.01L240.53 184.01L240.53 184.49L240.53 184.49L240.05 184.49z" stroke="none" fill="#000000" fill-rule="evenodd" /><path transform="matrix(1 0 0 -1 0 841)" d="M240.53 184.01L410.11 184.01L410.11 184.01L410.11 184.49L410.11 184.49L240.53 184.49z" stroke="none" fill="#000000" fill-rule="evenodd" /><path transform="matrix(1 0 0 -1 0 841)" d="M410.11 184.01L410.59 184.01L410.59 184.01L410.59 184.49L410.59 184.49L410.11 184.49z" stroke="none" fill="#000000" fill-rule="evenodd" /><path transform="matrix(1 0 0 -1 0 841)" d="M410.59 184.01L502.294 184.01L502.294 184.01L502.294 184.49L502.294 184.49L410.59 184.49z" stroke="none" fill="#000000" fill-rule="evenodd" /><path transform="matrix(1 0 0 -1 0 841)" d="M502.3 184.01L502.78 184.01L502.78 184.01L502.78 184.49L502.78 184.49L502.3 184.49z" stroke="none" fill="#000000" fill-rule="evenodd" /><path transform="matrix(1 0 0 -1 0 841)" d="M84.264 154.94L84.744 154.94L84.744 154.94L84.744 184.004L84.744 184.004L84.264 184.004z" stroke="none" fill="#000000" fill-rule="evenodd" /><path transform="matrix(1 0 0 -1 0 841)" d="M147.86 154.94L148.34 154.94L148.34 154.94L148.34 184.004L148.34 184.004L147.86 184.004z" stroke="none" fill="#000000" fill-rule="evenodd" /><path transform="matrix(1 0 0 -1 0 841)" d="M197.42 154.94L197.9 154.94L197.9 154.94L197.9 184.004L197.9 184.004L197.42 184.004z" stroke="none" fill="#000000" fill-rule="evenodd" /><path transform="matrix(1 0 0 -1 0 841)" d="M240.05 154.94L240.53 154.94L240.53 154.94L240.53 184.004L240.53 184.004L240.05 184.004z" stroke="none" fill="#000000" fill-rule="evenodd" /><path transform="matrix(1 0 0 -1 0 841)" d="M410.11 154.94L410.59 154.94L410.59 154.94L410.59 184.004L410.59 184.004L410.11 184.004z" stroke="none" fill="#000000" fill-rule="evenodd" /><path transform="matrix(1 0 0 -1 0 841)" d="M502.3 154.94L502.78 154.94L502.78 154.94L502.78 184.004L502.78 184.004L502.3 184.004z" stroke="none" fill="#000000" fill-rule="evenodd" /><path transform="matrix(1 0 0 -1 0 841)" d="M84.744 116.3L147.744 116.3L147.744 116.3L147.744 154.34L147.744 154.34L84.744 154.34z" stroke="none" fill="#DAEEF3" fill-rule="evenodd" /><g clip-path="url(#52)"><path transform="matrix(1 0 0 -1 0 841)" d="M89.904 135.38L142.584 135.38L142.584 135.38L142.584 154.34L142.584 154.34L89.904 154.34z" stroke="none" fill="#DAEEF3" fill-rule="evenodd" /><g clip-path="url(#53)"></g><path transform="matrix(1 0 0 -1 0 841)" d="M89.904 116.3L142.584 116.3L142.584 116.3L142.584 135.38L142.584 135.38L89.904 135.38z" stroke="none" fill="#DAEEF3" fill-rule="evenodd" /><g clip-path="url(#54)"></g><g clip-path="url(#55)"></g></g><path transform="matrix(1 0 0 -1 0 841)" d="M148.22 116.3L197.42 116.3L197.42 116.3L197.42 154.34L197.42 154.34L148.22 154.34z" stroke="none" fill="#DAEEF3" fill-rule="evenodd" /><g clip-path="url(#56)"><path transform="matrix(1 0 0 -1 0 841)" d="M153.38 125.78L192.26 125.78L192.26 125.78L192.26 144.86L192.26 144.86L153.38 144.86z" stroke="none" fill="#DAEEF3" fill-rule="evenodd" /><g clip-path="url(#57)"></g><g clip-path="url(#58)"></g></g><path transform="matrix(1 0 0 -1 0 841)" d="M197.9 116.3L239.924 116.3L239.924 116.3L239.924 154.34L239.924 154.34L197.9 154.34z" stroke="none" fill="#DAEEF3" fill-rule="evenodd" /><g clip-path="url(#59)"><path transform="matrix(1 0 0 -1 0 841)" d="M203.09 125.78L234.77 125.78L234.77 125.78L234.77 144.86L234.77 144.86L203.09 144.86z" stroke="none" fill="#DAEEF3" fill-rule="evenodd" /><g clip-path="url(#60)"></g><g clip-path="url(#61)"></g></g><path transform="matrix(1 0 0 -1 0 841)" d="M240.41 116.3L410.11 116.3L410.11 116.3L410.11 154.34L410.11 154.34L240.41 154.34z" stroke="none" fill="#DAEEF3" fill-rule="evenodd" /><g clip-path="url(#62)"><path transform="matrix(1 0 0 -1 0 841)" d="M245.57 135.38L404.95 135.38L404.95 135.38L404.95 154.34L404.95 154.34L245.57 154.34z" stroke="none" fill="#DAEEF3" fill-rule="evenodd" /><g clip-path="url(#63)"></g><path transform="matrix(1 0 0 -1 0 841)" d="M245.57 116.3L404.95 116.3L404.95 116.3L404.95 135.38L404.95 135.38L245.57 135.38z" stroke="none" fill="#DAEEF3" fill-rule="evenodd" /><g clip-path="url(#64)"></g><g clip-path="url(#65)"></g></g><path transform="matrix(1 0 0 -1 0 841)" d="M410.59 116.3L502.294 116.3L502.294 116.3L502.294 154.34L502.294 154.34L410.59 154.34z" stroke="none" fill="#DAEEF3" fill-rule="evenodd" /><g clip-path="url(#66)"><path transform="matrix(1 0 0 -1 0 841)" d="M415.75 125.78L497.134 125.78L497.134 125.78L497.134 144.86L497.134 144.86L415.75 144.86z" stroke="none" fill="#DAEEF3" fill-rule="evenodd" /><g clip-path="url(#67)"></g><g clip-path="url(#68)"></g></g><path transform="matrix(1 0 0 -1 0 841)" d="M84.264 154.46L84.744 154.46L84.744 154.46L84.744 154.94L84.744 154.94L84.264 154.94z" stroke="none" fill="#000000" fill-rule="evenodd" /><path transform="matrix(1 0 0 -1 0 841)" d="M84.744 154.46L147.864 154.46L147.864 154.46L147.864 154.94L147.864 154.94L84.744 154.94z" stroke="none" fill="#000000" fill-rule="evenodd" /><path transform="matrix(1 0 0 -1 0 841)" d="M147.86 154.46L148.34 154.46L148.34 154.46L148.34 154.94L148.34 154.94L147.86 154.94z" stroke="none" fill="#000000" fill-rule="evenodd" /><path transform="matrix(1 0 0 -1 0 841)" d="M148.34 154.46L197.42 154.46L197.42 154.46L197.42 154.94L197.42 154.94L148.34 154.94z" stroke="none" fill="#000000" fill-rule="evenodd" /><path transform="matrix(1 0 0 -1 0 841)" d="M197.42 154.46L197.9 154.46L197.9 154.46L197.9 154.94L197.9 154.94L197.42 154.94z" stroke="none" fill="#000000" fill-rule="evenodd" /><path transform="matrix(1 0 0 -1 0 841)" d="M197.9 154.46L240.044 154.46L240.044 154.46L240.044 154.94L240.044 154.94L197.9 154.94z" stroke="none" fill="#000000" fill-rule="evenodd" /><path transform="matrix(1 0 0 -1 0 841)" d="M240.05 154.46L240.53 154.46L240.53 154.46L240.53 154.94L240.53 154.94L240.05 154.94z" stroke="none" fill="#000000" fill-rule="evenodd" /><path transform="matrix(1 0 0 -1 0 841)" d="M240.53 154.46L410.11 154.46L410.11 154.46L410.11 154.94L410.11 154.94L240.53 154.94z" stroke="none" fill="#000000" fill-rule="evenodd" /><path transform="matrix(1 0 0 -1 0 841)" d="M410.11 154.46L410.59 154.46L410.59 154.46L410.59 154.94L410.59 154.94L410.11 154.94z" stroke="none" fill="#000000" fill-rule="evenodd" /><path transform="matrix(1 0 0 -1 0 841)" d="M410.59 154.46L502.294 154.46L502.294 154.46L502.294 154.94L502.294 154.94L410.59 154.94z" stroke="none" fill="#000000" fill-rule="evenodd" /><path transform="matrix(1 0 0 -1 0 841)" d="M502.3 154.46L502.78 154.46L502.78 154.46L502.78 154.94L502.78 154.94L502.3 154.94z" stroke="none" fill="#000000" fill-rule="evenodd" /><path transform="matrix(1 0 0 -1 0 841)" d="M84.264 116.3L84.744 116.3L84.744 116.3L84.744 154.46L84.744 154.46L84.264 154.46z" stroke="none" fill="#000000" fill-rule="evenodd" /><path transform="matrix(1 0 0 -1 0 841)" d="M84.264 115.82L84.744 115.82L84.744 115.82L84.744 116.3L84.744 116.3L84.264 116.3z" stroke="none" fill="#000000" fill-rule="evenodd" /><path transform="matrix(1 0 0 -1 0 841)" d="M84.264 115.82L84.744 115.82L84.744 115.82L84.744 116.3L84.744 116.3L84.264 116.3z" stroke="none" fill="#000000" fill-rule="evenodd" /><path transform="matrix(1 0 0 -1 0 841)" d="M84.744 115.82L147.864 115.82L147.864 115.82L147.864 116.3L147.864 116.3L84.744 116.3z" stroke="none" fill="#000000" fill-rule="evenodd" /><path transform="matrix(1 0 0 -1 0 841)" d="M147.86 116.3L148.34 116.3L148.34 116.3L148.34 154.46L148.34 154.46L147.86 154.46z" stroke="none" fill="#000000" fill-rule="evenodd" /><path transform="matrix(1 0 0 -1 0 841)" d="M147.86 115.82L148.34 115.82L148.34 115.82L148.34 116.3L148.34 116.3L147.86 116.3z" stroke="none" fill="#000000" fill-rule="evenodd" /><path transform="matrix(1 0 0 -1 0 841)" d="M148.34 115.82L197.42 115.82L197.42 115.82L197.42 116.3L197.42 116.3L148.34 116.3z" stroke="none" fill="#000000" fill-rule="evenodd" /><path transform="matrix(1 0 0 -1 0 841)" d="M197.42 116.3L197.9 116.3L197.9 116.3L197.9 154.46L197.9 154.46L197.42 154.46z" stroke="none" fill="#000000" fill-rule="evenodd" /><path transform="matrix(1 0 0 -1 0 841)" d="M197.42 115.82L197.9 115.82L197.9 115.82L197.9 116.3L197.9 116.3L197.42 116.3z" stroke="none" fill="#000000" fill-rule="evenodd" /><path transform="matrix(1 0 0 -1 0 841)" d="M197.9 115.82L240.044 115.82L240.044 115.82L240.044 116.3L240.044 116.3L197.9 116.3z" stroke="none" fill="#000000" fill-rule="evenodd" /><path transform="matrix(1 0 0 -1 0 841)" d="M240.05 116.3L240.53 116.3L240.53 116.3L240.53 154.46L240.53 154.46L240.05 154.46z" stroke="none" fill="#000000" fill-rule="evenodd" /><path transform="matrix(1 0 0 -1 0 841)" d="M240.05 115.82L240.53 115.82L240.53 115.82L240.53 116.3L240.53 116.3L240.05 116.3z" stroke="none" fill="#000000" fill-rule="evenodd" /><path transform="matrix(1 0 0 -1 0 841)" d="M240.53 115.82L410.11 115.82L410.11 115.82L410.11 116.3L410.11 116.3L240.53 116.3z" stroke="none" fill="#000000" fill-rule="evenodd" /><path transform="matrix(1 0 0 -1 0 841)" d="M410.11 116.3L410.59 116.3L410.59 116.3L410.59 154.46L410.59 154.46L410.11 154.46z" stroke="none" fill="#000000" fill-rule="evenodd" /><path transform="matrix(1 0 0 -1 0 841)" d="M410.11 115.82L410.59 115.82L410.59 115.82L410.59 116.3L410.59 116.3L410.11 116.3z" stroke="none" fill="#000000" fill-rule="evenodd" /><path transform="matrix(1 0 0 -1 0 841)" d="M410.59 115.82L502.294 115.82L502.294 115.82L502.294 116.3L502.294 116.3L410.59 116.3z" stroke="none" fill="#000000" fill-rule="evenodd" /><path transform="matrix(1 0 0 -1 0 841)" d="M502.3 116.3L502.78 116.3L502.78 116.3L502.78 154.46L502.78 154.46L502.3 154.46z" stroke="none" fill="#000000" fill-rule="evenodd" /><path transform="matrix(1 0 0 -1 0 841)" d="M502.3 115.82L502.78 115.82L502.78 115.82L502.78 116.3L502.78 116.3L502.3 116.3z" stroke="none" fill="#000000" fill-rule="evenodd" /><path transform="matrix(1 0 0 -1 0 841)" d="M502.3 115.82L502.78 115.82L502.78 115.82L502.78 116.3L502.78 116.3L502.3 116.3z" stroke="none" fill="#000000" fill-rule="evenodd" /><g transform="matrix(0.8767932 0 0 0.8767857 86 290.13)"><g transform="matrix(1 0 0 1 0 0)"><image x="0" y="0" xlink:href="img_102.png" width="474" height="280" /></g></g></g></g></g></svg>