<svg xmlns="http://www.w3.org/2000/svg" xmlns:xlink="http://www.w3.org/1999/xlink" id="body_93" preserveAspectRatio="xMinYMin meet" viewBox="0 0 793 1121"><defs><clipPath id="1"><path d="M0 841L0 -0.9199829L0 -0.9199829L595.32 -0.9199829L595.32 -0.9199829L595.32 841L595.32 841L0 841z" /></clipPath><clipPath id="2"><path d="M0.00125 841.0914L595.4112 841.0914L595.4112 841.0914L595.4112 -0.9186401L595.4112 -0.9186401L0.00125 -0.9186401z" /></clipPath><clipPath id="3"><path d="M288.05 779.771L316.01 779.771L316.01 779.771L316.01 760.691L316.01 760.691L288.05 760.691z" /></clipPath><clipPath id="4"><path d="M288.05 779.776L316.01 779.776L316.01 779.776L316.01 760.696L316.01 760.696L288.05 760.696z" /></clipPath><clipPath id="5"><path d="M288.05 779.776L316.01 779.776L316.01 779.776L316.01 760.696L316.01 760.696L288.05 760.696z" /></clipPath><clipPath id="6"><path d="M75.871 733.93L517.891 733.93L517.891 733.93L517.891 346.28L517.891 346.28L75.871 346.28z" /></clipPath><clipPath id="7"><path d="M85.344 386.49L148.704 386.49L148.704 386.49L148.704 346.89L148.704 346.89L85.344 346.89z" /></clipPath><clipPath id="8"><path d="M85.344 386.49L148.704 386.49L148.704 386.49L148.704 346.89L148.704 346.89L85.344 346.89z" /></clipPath><clipPath id="9"><path d="M85.344 386.49L148.704 386.49L148.704 386.49L148.704 346.89L148.704 346.89L85.344 346.89z" /></clipPath><clipPath id="10"><path d="M149.18 386.49L192.26 386.49L192.26 386.49L192.26 346.89L192.26 346.89L149.18 346.89z" /></clipPath><clipPath id="11"><path d="M149.18 386.49L192.26 386.49L192.26 386.49L192.26 346.89L192.26 346.89L149.18 346.89z" /></clipPath><clipPath id="12"><path d="M149.18 386.49L192.26 386.49L192.26 386.49L192.26 346.89L192.26 346.89L149.18 346.89z" /></clipPath><clipPath id="13"><path d="M192.74 386.49L224.924 386.49L224.924 386.49L224.924 346.89L224.924 346.89L192.74 346.89z" /></clipPath><clipPath id="14"><path d="M192.74 386.49L224.924 386.49L224.924 386.49L224.924 346.89L224.924 346.89L192.74 346.89z" /></clipPath><clipPath id="15"><path d="M192.74 386.49L224.924 386.49L224.924 386.49L224.924 346.89L224.924 346.89L192.74 346.89z" /></clipPath><clipPath id="16"><path d="M192.74 386.49L224.924 386.49L224.924 386.49L224.924 346.89L224.924 346.89L192.74 346.89z" /></clipPath><clipPath id="17"><path d="M225.41 386.49L350.59 386.49L350.59 386.49L350.59 346.89L350.59 346.89L225.41 346.89z" /></clipPath><clipPath id="18"><path d="M225.41 386.49L350.59 386.49L350.59 386.49L350.59 346.89L350.59 346.89L225.41 346.89z" /></clipPath><clipPath id="19"><path d="M225.41 386.49L350.59 386.49L350.59 386.49L350.59 346.89L350.59 346.89L225.41 346.89z" /></clipPath><clipPath id="20"><path d="M351.07 386.49L508.41 386.49L508.41 386.49L508.41 346.89L508.41 346.89L351.07 346.89z" /></clipPath><clipPath id="21"><path d="M351.07 386.49L508.41 386.49L508.41 386.49L508.41 346.89L508.41 346.89L351.07 346.89z" /></clipPath><clipPath id="22"><path d="M351.07 386.49L508.41 386.49L508.41 386.49L508.41 346.89L508.41 346.89L351.07 346.89z" /></clipPath><clipPath id="23"><path d="M85.344 425.13L148.704 425.13L148.704 425.13L148.704 387.09L148.704 387.09L85.344 387.09z" /></clipPath><clipPath id="24"><path d="M85.344 425.13L148.704 425.13L148.704 425.13L148.704 387.09L148.704 387.09L85.344 387.09z" /></clipPath><clipPath id="25"><path d="M85.344 425.13L148.704 425.13L148.704 425.13L148.704 387.09L148.704 387.09L85.344 387.09z" /></clipPath><clipPath id="26"><path d="M149.18 425.13L192.26 425.13L192.26 425.13L192.26 387.09L192.26 387.09L149.18 387.09z" /></clipPath><clipPath id="27"><path d="M149.18 425.13L192.26 425.13L192.26 425.13L192.26 387.09L192.26 387.09L149.18 387.09z" /></clipPath><clipPath id="28"><path d="M149.18 425.13L192.26 425.13L192.26 425.13L192.26 387.09L192.26 387.09L149.18 387.09z" /></clipPath><clipPath id="29"><path d="M192.74 425.13L224.924 425.13L224.924 425.13L224.924 387.09L224.924 387.09L192.74 387.09z" /></clipPath><clipPath id="30"><path d="M192.74 425.13L224.924 425.13L224.924 425.13L224.924 387.09L224.924 387.09L192.74 387.09z" /></clipPath><clipPath id="31"><path d="M192.74 425.13L224.924 425.13L224.924 425.13L224.924 387.09L224.924 387.09L192.74 387.09z" /></clipPath><clipPath id="32"><path d="M225.41 425.13L350.59 425.13L350.59 425.13L350.59 387.09L350.59 387.09L225.41 387.09z" /></clipPath><clipPath id="33"><path d="M225.41 425.13L350.59 425.13L350.59 425.13L350.59 387.09L350.59 387.09L225.41 387.09z" /></clipPath><clipPath id="34"><path d="M225.41 425.13L350.59 425.13L350.59 425.13L350.59 387.09L350.59 387.09L225.41 387.09z" /></clipPath><clipPath id="35"><path d="M225.41 425.13L350.59 425.13L350.59 425.13L350.59 387.09L350.59 387.09L225.41 387.09z" /></clipPath><clipPath id="36"><path d="M351.07 425.13L508.41 425.13L508.41 425.13L508.41 387.09L508.41 387.09L351.07 387.09z" /></clipPath><clipPath id="37"><path d="M351.07 425.13L508.41 425.13L508.41 425.13L508.41 387.09L508.41 387.09L351.07 387.09z" /></clipPath><clipPath id="38"><path d="M351.07 425.13L508.41 425.13L508.41 425.13L508.41 387.09L508.41 387.09L351.07 387.09z" /></clipPath><clipPath id="39"><path d="M351.07 425.13L508.41 425.13L508.41 425.13L508.41 387.09L508.41 387.09L351.07 387.09z" /></clipPath><clipPath id="40"><path d="M351.07 425.13L508.41 425.13L508.41 425.13L508.41 387.09L508.41 387.09L351.07 387.09z" /></clipPath><clipPath id="41"><path d="M85.344 444.69L148.704 444.69L148.704 444.69L148.704 425.61L148.704 425.61L85.344 425.61z" /></clipPath><clipPath id="42"><path d="M85.344 444.69L148.704 444.69L148.704 444.69L148.704 425.61L148.704 425.61L85.344 425.61z" /></clipPath><clipPath id="43"><path d="M85.344 444.69L148.704 444.69L148.704 444.69L148.704 425.61L148.704 425.61L85.344 425.61z" /></clipPath><clipPath id="44"><path d="M149.18 444.69L192.26 444.69L192.26 444.69L192.26 425.61L192.26 425.61L149.18 425.61z" /></clipPath><clipPath id="45"><path d="M149.18 444.69L192.26 444.69L192.26 444.69L192.26 425.61L192.26 425.61L149.18 425.61z" /></clipPath><clipPath id="46"><path d="M149.18 444.69L192.26 444.69L192.26 444.69L192.26 425.61L192.26 425.61L149.18 425.61z" /></clipPath><clipPath id="47"><path d="M192.74 444.69L224.924 444.69L224.924 444.69L224.924 425.61L224.924 425.61L192.74 425.61z" /></clipPath><clipPath id="48"><path d="M192.74 444.69L224.924 444.69L224.924 444.69L224.924 425.61L224.924 425.61L192.74 425.61z" /></clipPath><clipPath id="49"><path d="M192.74 444.69L224.924 444.69L224.924 444.69L224.924 425.61L224.924 425.61L192.74 425.61z" /></clipPath><clipPath id="50"><path d="M225.41 444.69L350.59 444.69L350.59 444.69L350.59 425.61L350.59 425.61L225.41 425.61z" /></clipPath><clipPath id="51"><path d="M225.41 444.69L350.59 444.69L350.59 444.69L350.59 425.61L350.59 425.61L225.41 425.61z" /></clipPath><clipPath id="52"><path d="M225.41 444.69L350.59 444.69L350.59 444.69L350.59 425.61L350.59 425.61L225.41 425.61z" /></clipPath><clipPath id="53"><path d="M225.41 444.69L350.59 444.69L350.59 444.69L350.59 425.61L350.59 425.61L225.41 425.61z" /></clipPath><clipPath id="54"><path d="M225.41 444.69L350.59 444.69L350.59 444.69L350.59 425.61L350.59 425.61L225.41 425.61z" /></clipPath><clipPath id="55"><path d="M351.07 444.69L508.41 444.69L508.41 444.69L508.41 425.61L508.41 425.61L351.07 425.61z" /></clipPath><clipPath id="56"><path d="M351.07 444.69L508.41 444.69L508.41 444.69L508.41 425.61L508.41 425.61L351.07 425.61z" /></clipPath><clipPath id="57"><path d="M351.07 444.69L508.41 444.69L508.41 444.69L508.41 425.61L508.41 425.61L351.07 425.61z" /></clipPath><clipPath id="58"><path d="M85.344 483.35L148.704 483.35L148.704 483.35L148.704 445.166L148.704 445.166L85.344 445.166z" /></clipPath><clipPath id="59"><path d="M85.344 483.35L148.704 483.35L148.704 483.35L148.704 445.166L148.704 445.166L85.344 445.166z" /></clipPath><clipPath id="60"><path d="M85.344 483.35L148.704 483.35L148.704 483.35L148.704 445.166L148.704 445.166L85.344 445.166z" /></clipPath><clipPath id="61"><path d="M85.344 483.35L148.704 483.35L148.704 483.35L148.704 445.166L148.704 445.166L85.344 445.166z" /></clipPath><clipPath id="62"><path d="M149.18 483.35L192.26 483.35L192.26 483.35L192.26 445.166L192.26 445.166L149.18 445.166z" /></clipPath><clipPath id="63"><path d="M149.18 483.35L192.26 483.35L192.26 483.35L192.26 445.166L192.26 445.166L149.18 445.166z" /></clipPath><clipPath id="64"><path d="M149.18 483.35L192.26 483.35L192.26 483.35L192.26 445.166L192.26 445.166L149.18 445.166z" /></clipPath><clipPath id="65"><path d="M192.74 483.35L224.924 483.35L224.924 483.35L224.924 445.166L224.924 445.166L192.74 445.166z" /></clipPath><clipPath id="66"><path d="M192.74 483.35L224.924 483.35L224.924 483.35L224.924 445.166L224.924 445.166L192.74 445.166z" /></clipPath><clipPath id="67"><path d="M192.74 483.35L224.924 483.35L224.924 483.35L224.924 445.166L224.924 445.166L192.74 445.166z" /></clipPath><clipPath id="68"><path d="M225.41 483.35L350.59 483.35L350.59 483.35L350.59 445.166L350.59 445.166L225.41 445.166z" /></clipPath><clipPath id="69"><path d="M225.41 483.35L350.59 483.35L350.59 483.35L350.59 445.166L350.59 445.166L225.41 445.166z" /></clipPath><clipPath id="70"><path d="M225.41 483.35L350.59 483.35L350.59 483.35L350.59 445.166L350.59 445.166L225.41 445.166z" /></clipPath><clipPath id="71"><path d="M351.07 483.35L508.41 483.35L508.41 483.35L508.41 445.166L508.41 445.166L351.07 445.166z" /></clipPath><clipPath id="72"><path d="M351.07 483.35L508.41 483.35L508.41 483.35L508.41 445.166L508.41 445.166L351.07 445.166z" /></clipPath><clipPath id="73"><path d="M351.07 483.35L508.41 483.35L508.41 483.35L508.41 445.166L508.41 445.166L351.07 445.166z" /></clipPath><clipPath id="74"><path d="M351.07 483.35L508.41 483.35L508.41 483.35L508.41 445.166L508.41 445.166L351.07 445.166z" /></clipPath><clipPath id="75"><path d="M85.344 521.87L148.704 521.87L148.704 521.87L148.704 483.83L148.704 483.83L85.344 483.83z" /></clipPath><clipPath id="76"><path d="M85.344 521.87L148.704 521.87L148.704 521.87L148.704 483.83L148.704 483.83L85.344 483.83z" /></clipPath><clipPath id="77"><path d="M85.344 521.87L148.704 521.87L148.704 521.87L148.704 483.83L148.704 483.83L85.344 483.83z" /></clipPath><clipPath id="78"><path d="M85.344 521.87L148.704 521.87L148.704 521.87L148.704 483.83L148.704 483.83L85.344 483.83z" /></clipPath><clipPath id="79"><path d="M149.18 521.87L192.26 521.87L192.26 521.87L192.26 483.83L192.26 483.83L149.18 483.83z" /></clipPath><clipPath id="80"><path d="M149.18 521.87L192.26 521.87L192.26 521.87L192.26 483.83L192.26 483.83L149.18 483.83z" /></clipPath><clipPath id="81"><path d="M149.18 521.87L192.26 521.87L192.26 521.87L192.26 483.83L192.26 483.83L149.18 483.83z" /></clipPath><clipPath id="82"><path d="M192.74 521.87L224.924 521.87L224.924 521.87L224.924 483.83L224.924 483.83L192.74 483.83z" /></clipPath><clipPath id="83"><path d="M192.74 521.87L224.924 521.87L224.924 521.87L224.924 483.83L224.924 483.83L192.74 483.83z" /></clipPath><clipPath id="84"><path d="M192.74 521.87L224.924 521.87L224.924 521.87L224.924 483.83L224.924 483.83L192.74 483.83z" /></clipPath><clipPath id="85"><path d="M225.41 521.87L350.59 521.87L350.59 521.87L350.59 483.83L350.59 483.83L225.41 483.83z" /></clipPath><clipPath id="86"><path d="M225.41 521.87L350.59 521.87L350.59 521.87L350.59 483.83L350.59 483.83L225.41 483.83z" /></clipPath><clipPath id="87"><path d="M225.41 521.87L350.59 521.87L350.59 521.87L350.59 483.83L350.59 483.83L225.41 483.83z" /></clipPath><clipPath id="88"><path d="M351.07 521.87L508.41 521.87L508.41 521.87L508.41 483.83L508.41 483.83L351.07 483.83z" /></clipPath><clipPath id="89"><path d="M351.07 521.87L508.41 521.87L508.41 521.87L508.41 483.83L508.41 483.83L351.07 483.83z" /></clipPath><clipPath id="90"><path d="M351.07 521.87L508.41 521.87L508.41 521.87L508.41 483.83L508.41 483.83L351.07 483.83z" /></clipPath><clipPath id="91"><path d="M85.344 560.51L148.704 560.51L148.704 560.51L148.704 522.47L148.704 522.47L85.344 522.47z" /></clipPath><clipPath id="92"><path d="M85.344 560.51L148.704 560.51L148.704 560.51L148.704 522.47L148.704 522.47L85.344 522.47z" /></clipPath><clipPath id="93"><path d="M85.344 560.51L148.704 560.51L148.704 560.51L148.704 522.47L148.704 522.47L85.344 522.47z" /></clipPath><clipPath id="94"><path d="M85.344 560.51L148.704 560.51L148.704 560.51L148.704 522.47L148.704 522.47L85.344 522.47z" /></clipPath><clipPath id="95"><path d="M149.18 560.51L192.26 560.51L192.26 560.51L192.26 522.47L192.26 522.47L149.18 522.47z" /></clipPath><clipPath id="96"><path d="M149.18 560.51L192.26 560.51L192.26 560.51L192.26 522.47L192.26 522.47L149.18 522.47z" /></clipPath><clipPath id="97"><path d="M149.18 560.51L192.26 560.51L192.26 560.51L192.26 522.47L192.26 522.47L149.18 522.47z" /></clipPath><clipPath id="98"><path d="M192.74 560.51L224.924 560.51L224.924 560.51L224.924 522.47L224.924 522.47L192.74 522.47z" /></clipPath><clipPath id="99"><path d="M192.74 560.51L224.924 560.51L224.924 560.51L224.924 522.47L224.924 522.47L192.74 522.47z" /></clipPath><clipPath id="100"><path d="M192.74 560.51L224.924 560.51L224.924 560.51L224.924 522.47L224.924 522.47L192.74 522.47z" /></clipPath><clipPath id="101"><path d="M225.41 560.51L350.59 560.51L350.59 560.51L350.59 522.47L350.59 522.47L225.41 522.47z" /></clipPath><clipPath id="102"><path d="M225.41 560.51L350.59 560.51L350.59 560.51L350.59 522.47L350.59 522.47L225.41 522.47z" /></clipPath><clipPath id="103"><path d="M225.41 560.51L350.59 560.51L350.59 560.51L350.59 522.47L350.59 522.47L225.41 522.47z" /></clipPath><clipPath id="104"><path d="M351.07 560.51L508.41 560.51L508.41 560.51L508.41 522.47L508.41 522.47L351.07 522.47z" /></clipPath><clipPath id="105"><path d="M351.07 560.51L508.41 560.51L508.41 560.51L508.41 522.47L508.41 522.47L351.07 522.47z" /></clipPath><clipPath id="106"><path d="M351.07 560.51L508.41 560.51L508.41 560.51L508.41 522.47L508.41 522.47L351.07 522.47z" /></clipPath><clipPath id="107"><path d="M85.344 599.15L148.704 599.15L148.704 599.15L148.704 560.99L148.704 560.99L85.344 560.99z" /></clipPath><clipPath id="108"><path d="M85.344 599.15L148.704 599.15L148.704 599.15L148.704 560.99L148.704 560.99L85.344 560.99z" /></clipPath><clipPath id="109"><path d="M85.344 599.15L148.704 599.15L148.704 599.15L148.704 560.99L148.704 560.99L85.344 560.99z" /></clipPath><clipPath id="110"><path d="M149.18 599.15L192.26 599.15L192.26 599.15L192.26 560.99L192.26 560.99L149.18 560.99z" /></clipPath><clipPath id="111"><path d="M149.18 599.15L192.26 599.15L192.26 599.15L192.26 560.99L192.26 560.99L149.18 560.99z" /></clipPath><clipPath id="112"><path d="M149.18 599.15L192.26 599.15L192.26 599.15L192.26 560.99L192.26 560.99L149.18 560.99z" /></clipPath><clipPath id="113"><path d="M149.18 599.15L192.26 599.15L192.26 599.15L192.26 560.99L192.26 560.99L149.18 560.99z" /></clipPath><clipPath id="114"><path d="M192.74 599.15L224.924 599.15L224.924 599.15L224.924 560.99L224.924 560.99L192.74 560.99z" /></clipPath><clipPath id="115"><path d="M192.74 599.15L224.924 599.15L224.924 599.15L224.924 560.99L224.924 560.99L192.74 560.99z" /></clipPath><clipPath id="116"><path d="M192.74 599.15L224.924 599.15L224.924 599.15L224.924 560.99L224.924 560.99L192.74 560.99z" /></clipPath><clipPath id="117"><path d="M225.41 599.15L350.59 599.15L350.59 599.15L350.59 560.99L350.59 560.99L225.41 560.99z" /></clipPath><clipPath id="118"><path d="M225.41 599.15L350.59 599.15L350.59 599.15L350.59 560.99L350.59 560.99L225.41 560.99z" /></clipPath><clipPath id="119"><path d="M225.41 599.15L350.59 599.15L350.59 599.15L350.59 560.99L350.59 560.99L225.41 560.99z" /></clipPath><clipPath id="120"><path d="M351.07 599.15L508.41 599.15L508.41 599.15L508.41 560.99L508.41 560.99L351.07 560.99z" /></clipPath><clipPath id="121"><path d="M351.07 599.15L508.41 599.15L508.41 599.15L508.41 560.99L508.41 560.99L351.07 560.99z" /></clipPath><clipPath id="122"><path d="M351.07 599.15L508.41 599.15L508.41 599.15L508.41 560.99L508.41 560.99L351.07 560.99z" /></clipPath><clipPath id="123"><path d="M351.07 599.15L508.41 599.15L508.41 599.15L508.41 560.99L508.41 560.99L351.07 560.99z" /></clipPath><clipPath id="124"><path d="M351.07 599.15L508.41 599.15L508.41 599.15L508.41 560.99L508.41 560.99L351.07 560.99z" /></clipPath><clipPath id="125"><path d="M85.344 637.67L148.704 637.67L148.704 637.67L148.704 599.63L148.704 599.63L85.344 599.63z" /></clipPath><clipPath id="126"><path d="M85.344 637.67L148.704 637.67L148.704 637.67L148.704 599.63L148.704 599.63L85.344 599.63z" /></clipPath><clipPath id="127"><path d="M85.344 637.67L148.704 637.67L148.704 637.67L148.704 599.63L148.704 599.63L85.344 599.63z" /></clipPath><clipPath id="128"><path d="M85.344 637.67L148.704 637.67L148.704 637.67L148.704 599.63L148.704 599.63L85.344 599.63z" /></clipPath><clipPath id="129"><path d="M149.18 637.67L192.26 637.67L192.26 637.67L192.26 599.63L192.26 599.63L149.18 599.63z" /></clipPath><clipPath id="130"><path d="M149.18 637.67L192.26 637.67L192.26 637.67L192.26 599.63L192.26 599.63L149.18 599.63z" /></clipPath><clipPath id="131"><path d="M149.18 637.67L192.26 637.67L192.26 637.67L192.26 599.63L192.26 599.63L149.18 599.63z" /></clipPath><clipPath id="132"><path d="M192.74 637.67L224.924 637.67L224.924 637.67L224.924 599.63L224.924 599.63L192.74 599.63z" /></clipPath><clipPath id="133"><path d="M192.74 637.67L224.924 637.67L224.924 637.67L224.924 599.63L224.924 599.63L192.74 599.63z" /></clipPath><clipPath id="134"><path d="M192.74 637.67L224.924 637.67L224.924 637.67L224.924 599.63L224.924 599.63L192.74 599.63z" /></clipPath><clipPath id="135"><path d="M225.41 637.67L350.59 637.67L350.59 637.67L350.59 599.63L350.59 599.63L225.41 599.63z" /></clipPath><clipPath id="136"><path d="M225.41 637.67L350.59 637.67L350.59 637.67L350.59 599.63L350.59 599.63L225.41 599.63z" /></clipPath><clipPath id="137"><path d="M225.41 637.67L350.59 637.67L350.59 637.67L350.59 599.63L350.59 599.63L225.41 599.63z" /></clipPath><clipPath id="138"><path d="M225.41 637.67L350.59 637.67L350.59 637.67L350.59 599.63L350.59 599.63L225.41 599.63z" /></clipPath><clipPath id="139"><path d="M351.07 637.67L508.41 637.67L508.41 637.67L508.41 599.63L508.41 599.63L351.07 599.63z" /></clipPath><clipPath id="140"><path d="M351.07 637.67L508.41 637.67L508.41 637.67L508.41 599.63L508.41 599.63L351.07 599.63z" /></clipPath><clipPath id="141"><path d="M351.07 637.67L508.41 637.67L508.41 637.67L508.41 599.63L508.41 599.63L351.07 599.63z" /></clipPath><clipPath id="142"><path d="M351.07 637.67L508.41 637.67L508.41 637.67L508.41 599.63L508.41 599.63L351.07 599.63z" /></clipPath><clipPath id="143"><path d="M351.07 637.67L508.41 637.67L508.41 637.67L508.41 599.63L508.41 599.63L351.07 599.63z" /></clipPath><clipPath id="144"><path d="M351.07 637.67L508.41 637.67L508.41 637.67L508.41 599.63L508.41 599.63L351.07 599.63z" /></clipPath><clipPath id="145"><path d="M351.07 637.67L508.41 637.67L508.41 637.67L508.41 599.63L508.41 599.63L351.07 599.63z" /></clipPath><clipPath id="146"><path d="M85.344 733.46L148.704 733.46L148.704 733.46L148.704 638.276L148.704 638.276L85.344 638.276z" /></clipPath><clipPath id="147"><path d="M85.344 733.46L148.704 733.46L148.704 733.46L148.704 638.276L148.704 638.276L85.344 638.276z" /></clipPath><clipPath id="148"><path d="M85.344 733.46L148.704 733.46L148.704 733.46L148.704 638.276L148.704 638.276L85.344 638.276z" /></clipPath><clipPath id="149"><path d="M85.344 733.46L148.704 733.46L148.704 733.46L148.704 638.276L148.704 638.276L85.344 638.276z" /></clipPath><clipPath id="150"><path d="M149.18 733.46L192.26 733.46L192.26 733.46L192.26 638.276L192.26 638.276L149.18 638.276z" /></clipPath><clipPath id="151"><path d="M149.18 733.46L192.26 733.46L192.26 733.46L192.26 638.276L192.26 638.276L149.18 638.276z" /></clipPath><clipPath id="152"><path d="M149.18 733.46L192.26 733.46L192.26 733.46L192.26 638.276L192.26 638.276L149.18 638.276z" /></clipPath><clipPath id="153"><path d="M192.74 733.46L224.924 733.46L224.924 733.46L224.924 638.276L224.924 638.276L192.74 638.276z" /></clipPath><clipPath id="154"><path d="M192.74 733.46L224.924 733.46L224.924 733.46L224.924 638.276L224.924 638.276L192.74 638.276z" /></clipPath><clipPath id="155"><path d="M192.74 733.46L224.924 733.46L224.924 733.46L224.924 638.276L224.924 638.276L192.74 638.276z" /></clipPath><clipPath id="156"><path d="M225.41 733.46L350.59 733.46L350.59 733.46L350.59 638.276L350.59 638.276L225.41 638.276z" /></clipPath><clipPath id="157"><path d="M225.41 733.46L350.59 733.46L350.59 733.46L350.59 638.276L350.59 638.276L225.41 638.276z" /></clipPath><clipPath id="158"><path d="M225.41 733.46L350.59 733.46L350.59 733.46L350.59 638.276L350.59 638.276L225.41 638.276z" /></clipPath><clipPath id="159"><path d="M225.41 733.46L350.59 733.46L350.59 733.46L350.59 638.276L350.59 638.276L225.41 638.276z" /></clipPath><clipPath id="160"><path d="M225.41 733.46L350.59 733.46L350.59 733.46L350.59 638.276L350.59 638.276L225.41 638.276z" /></clipPath><clipPath id="161"><path d="M225.41 733.46L350.59 733.46L350.59 733.46L350.59 638.276L350.59 638.276L225.41 638.276z" /></clipPath><clipPath id="162"><path d="M351.07 733.46L508.41 733.46L508.41 733.46L508.41 638.276L508.41 638.276L351.07 638.276z" /></clipPath><clipPath id="163"><path d="M351.07 733.46L508.41 733.46L508.41 733.46L508.41 638.276L508.41 638.276L351.07 638.276z" /></clipPath><clipPath id="164"><path d="M351.07 733.46L508.41 733.46L508.41 733.46L508.41 638.276L508.41 638.276L351.07 638.276z" /></clipPath><clipPath id="165"><path d="M351.07 733.46L508.41 733.46L508.41 733.46L508.41 638.276L508.41 638.276L351.07 638.276z" /></clipPath><clipPath id="166"><path d="M351.07 733.46L508.41 733.46L508.41 733.46L508.41 638.276L508.41 638.276L351.07 638.276z" /></clipPath><clipPath id="167"><path d="M351.07 733.46L508.41 733.46L508.41 733.46L508.41 638.276L508.41 638.276L351.07 638.276z" /></clipPath><clipPath id="168"><path d="M351.07 733.46L508.41 733.46L508.41 733.46L508.41 638.276L508.41 638.276L351.07 638.276z" /></clipPath><clipPath id="169"><path d="M351.07 733.46L508.41 733.46L508.41 733.46L508.41 638.276L508.41 638.276L351.07 638.276z" /></clipPath><clipPath id="170"><path d="M351.07 733.46L508.41 733.46L508.41 733.46L508.41 638.276L508.41 638.276L351.07 638.276z" /></clipPath><clipPath id="171"><path d="M351.07 733.46L508.41 733.46L508.41 733.46L508.41 638.276L508.41 638.276L351.07 638.276z" /></clipPath><clipPath id="172"><path d="M351.07 733.46L508.41 733.46L508.41 733.46L508.41 638.276L508.41 638.276L351.07 638.276z" /></clipPath><clipPath id="173"><path d="M351.07 733.46L508.41 733.46L508.41 733.46L508.41 638.276L508.41 638.276L351.07 638.276z" /></clipPath><clipPath id="174"><path d="M351.07 733.46L508.41 733.46L508.41 733.46L508.41 638.276L508.41 638.276L351.07 638.276z" /></clipPath></defs><g transform="matrix(1.333333 0 0 1.333333 0 0)"><g><g clip-path="url(#1)"><path transform="matrix(1 0 0 -1 0 841)" d="M457.51 53.304L505.534 53.304L505.534 53.304L505.534 53.90404L505.534 53.90404L457.51 53.90404z" stroke="none" fill="#000000" fill-rule="evenodd" /><g clip-path="url(#2)"><path transform="matrix(1 0 0 -1 0 841)" d="M88.464 77.904L506.974 77.904L506.974 77.904L506.974 80.904L506.974 80.904L88.464 80.904z" stroke="none" fill="#000000" fill-rule="evenodd" /><path transform="matrix(1 0 0 -1 0 841)" d="M88.464 76.464L506.974 76.464L506.974 76.464L506.974 77.18397L506.974 77.18397L88.464 77.18397z" stroke="none" fill="#000000" fill-rule="evenodd" /></g><g clip-path="url(#3)"><g clip-path="url(#4)"></g><g clip-path="url(#5)"></g></g><path transform="matrix(1 0 0 -1 0 841)" d="M185.66 572.02L256.004 572.02L256.004 572.02L256.004 572.74L256.004 572.74L185.66 572.74z" stroke="none" fill="#000000" fill-rule="evenodd" /><path transform="matrix(1 0 0 -1 0 841)" d="M270.05 572.02L312.17 572.02L312.17 572.02L312.17 572.74L312.17 572.74L270.05 572.74z" stroke="none" fill="#000000" fill-rule="evenodd" /><g clip-path="url(#6)"><path transform="matrix(1 0 0 -1 0 841)" d="M85.344 454.51L148.704 454.51L148.704 454.51L148.704 494.11L148.704 494.11L85.344 494.11z" stroke="none" fill="#0070C0" fill-rule="evenodd" /><g clip-path="url(#7)"><path transform="matrix(1 0 0 -1 0 841)" d="M90.504 475.15L143.544 475.15L143.544 475.15L143.544 494.11L143.544 494.11L90.504 494.11z" stroke="none" fill="#0070C0" fill-rule="evenodd" /><g clip-path="url(#8)"></g><g clip-path="url(#9)"></g></g><path transform="matrix(1 0 0 -1 0 841)" d="M149.18 454.51L192.26 454.51L192.26 454.51L192.26 494.11L192.26 494.11L149.18 494.11z" stroke="none" fill="#0070C0" fill-rule="evenodd" /><g clip-path="url(#10)"><path transform="matrix(1 0 0 -1 0 841)" d="M154.34 475.15L187.1 475.15L187.1 475.15L187.1 494.11L187.1 494.11L154.34 494.11z" stroke="none" fill="#0070C0" fill-rule="evenodd" /><g clip-path="url(#11)"></g><g clip-path="url(#12)"></g></g><path transform="matrix(1 0 0 -1 0 841)" d="M192.74 454.51L224.924 454.51L224.924 454.51L224.924 494.11L224.924 494.11L192.74 494.11z" stroke="none" fill="#0070C0" fill-rule="evenodd" /><g clip-path="url(#13)"><path transform="matrix(1 0 0 -1 0 841)" d="M197.9 475.15L219.764 475.15L219.764 475.15L219.764 494.11L219.764 494.11L197.9 494.11z" stroke="none" fill="#0070C0" fill-rule="evenodd" /><g clip-path="url(#14)"></g><path transform="matrix(1 0 0 -1 0 841)" d="M197.9 456.07L219.764 456.07L219.764 456.07L219.764 475.15L219.764 475.15L197.9 475.15z" stroke="none" fill="#0070C0" fill-rule="evenodd" /><g clip-path="url(#15)"></g><g clip-path="url(#16)"></g></g><path transform="matrix(1 0 0 -1 0 841)" d="M225.41 454.51L350.59 454.51L350.59 454.51L350.59 494.11L350.59 494.11L225.41 494.11z" stroke="none" fill="#0070C0" fill-rule="evenodd" /><g clip-path="url(#17)"><path transform="matrix(1 0 0 -1 0 841)" d="M230.57 475.15L345.43 475.15L345.43 475.15L345.43 494.11L345.43 494.11L230.57 494.11z" stroke="none" fill="#0070C0" fill-rule="evenodd" /><g clip-path="url(#18)"></g><g clip-path="url(#19)"></g></g><path transform="matrix(1 0 0 -1 0 841)" d="M351.07 454.51L508.41 454.51L508.41 454.51L508.41 494.11L508.41 494.11L351.07 494.11z" stroke="none" fill="#0070C0" fill-rule="evenodd" /><g clip-path="url(#20)"><path transform="matrix(1 0 0 -1 0 841)" d="M356.23 475.15L503.25 475.15L503.25 475.15L503.25 494.11L503.25 494.11L356.23 494.11z" stroke="none" fill="#0070C0" fill-rule="evenodd" /><g clip-path="url(#21)"></g><g clip-path="url(#22)"></g></g><path transform="matrix(1 0 0 -1 0 841)" d="M84.864 494.23L85.344 494.23L85.344 494.23L85.344 494.71L85.344 494.71L84.864 494.71z" stroke="none" fill="#000000" fill-rule="evenodd" /><path transform="matrix(1 0 0 -1 0 841)" d="M84.864 494.23L85.344 494.23L85.344 494.23L85.344 494.71L85.344 494.71L84.864 494.71z" stroke="none" fill="#000000" fill-rule="evenodd" /><path transform="matrix(1 0 0 -1 0 841)" d="M85.344 494.23L148.704 494.23L148.704 494.23L148.704 494.71L148.704 494.71L85.344 494.71z" stroke="none" fill="#000000" fill-rule="evenodd" /><path transform="matrix(1 0 0 -1 0 841)" d="M148.7 494.23L149.18 494.23L149.18 494.23L149.18 494.71L149.18 494.71L148.7 494.71z" stroke="none" fill="#000000" fill-rule="evenodd" /><path transform="matrix(1 0 0 -1 0 841)" d="M149.18 494.23L192.26 494.23L192.26 494.23L192.26 494.71L192.26 494.71L149.18 494.71z" stroke="none" fill="#000000" fill-rule="evenodd" /><path transform="matrix(1 0 0 -1 0 841)" d="M192.26 494.23L192.74 494.23L192.74 494.23L192.74 494.71L192.74 494.71L192.26 494.71z" stroke="none" fill="#000000" fill-rule="evenodd" /><path transform="matrix(1 0 0 -1 0 841)" d="M192.74 494.23L225.044 494.23L225.044 494.23L225.044 494.71L225.044 494.71L192.74 494.71z" stroke="none" fill="#000000" fill-rule="evenodd" /><path transform="matrix(1 0 0 -1 0 841)" d="M225.05 494.23L225.53 494.23L225.53 494.23L225.53 494.71L225.53 494.71L225.05 494.71z" stroke="none" fill="#000000" fill-rule="evenodd" /><path transform="matrix(1 0 0 -1 0 841)" d="M225.53 494.23L350.59 494.23L350.59 494.23L350.59 494.71L350.59 494.71L225.53 494.71z" stroke="none" fill="#000000" fill-rule="evenodd" /><path transform="matrix(1 0 0 -1 0 841)" d="M350.59 494.23L351.07 494.23L351.07 494.23L351.07 494.71L351.07 494.71L350.59 494.71z" stroke="none" fill="#000000" fill-rule="evenodd" /><path transform="matrix(1 0 0 -1 0 841)" d="M351.07 494.23L508.41 494.23L508.41 494.23L508.41 494.71L508.41 494.71L351.07 494.71z" stroke="none" fill="#000000" fill-rule="evenodd" /><path transform="matrix(1 0 0 -1 0 841)" d="M508.42 494.23L508.9 494.23L508.9 494.23L508.9 494.71L508.9 494.71L508.42 494.71z" stroke="none" fill="#000000" fill-rule="evenodd" /><path transform="matrix(1 0 0 -1 0 841)" d="M508.42 494.23L508.9 494.23L508.9 494.23L508.9 494.71L508.9 494.71L508.42 494.71z" stroke="none" fill="#000000" fill-rule="evenodd" /><path transform="matrix(1 0 0 -1 0 841)" d="M84.864 454.51L85.344 454.51L85.344 454.51L85.344 494.23L85.344 494.23L84.864 494.23z" stroke="none" fill="#000000" fill-rule="evenodd" /><path transform="matrix(1 0 0 -1 0 841)" d="M148.7 454.51L149.18 454.51L149.18 454.51L149.18 494.23L149.18 494.23L148.7 494.23z" stroke="none" fill="#000000" fill-rule="evenodd" /><path transform="matrix(1 0 0 -1 0 841)" d="M192.26 454.51L192.74 454.51L192.74 454.51L192.74 494.23L192.74 494.23L192.26 494.23z" stroke="none" fill="#000000" fill-rule="evenodd" /><path transform="matrix(1 0 0 -1 0 841)" d="M225.05 454.51L225.53 454.51L225.53 454.51L225.53 494.23L225.53 494.23L225.05 494.23z" stroke="none" fill="#000000" fill-rule="evenodd" /><path transform="matrix(1 0 0 -1 0 841)" d="M350.59 454.51L351.07 454.51L351.07 454.51L351.07 494.23L351.07 494.23L350.59 494.23z" stroke="none" fill="#000000" fill-rule="evenodd" /><path transform="matrix(1 0 0 -1 0 841)" d="M508.42 454.51L508.9 454.51L508.9 454.51L508.9 494.23L508.9 494.23L508.42 494.23z" stroke="none" fill="#000000" fill-rule="evenodd" /><path transform="matrix(1 0 0 -1 0 841)" d="M85.344 415.87L148.704 415.87L148.704 415.87L148.704 453.91L148.704 453.91L85.344 453.91z" stroke="none" fill="#DAEEF3" fill-rule="evenodd" /><g clip-path="url(#23)"><path transform="matrix(1 0 0 -1 0 841)" d="M90.504 434.95L143.544 434.95L143.544 434.95L143.544 453.91L143.544 453.91L90.504 453.91z" stroke="none" fill="#DAEEF3" fill-rule="evenodd" /><g clip-path="url(#24)"></g><g clip-path="url(#25)"></g></g><path transform="matrix(1 0 0 -1 0 841)" d="M149.18 415.87L192.26 415.87L192.26 415.87L192.26 453.91L192.26 453.91L149.18 453.91z" stroke="none" fill="#DAEEF3" fill-rule="evenodd" /><g clip-path="url(#26)"><path transform="matrix(1 0 0 -1 0 841)" d="M154.34 434.95L187.1 434.95L187.1 434.95L187.1 453.91L187.1 453.91L154.34 453.91z" stroke="none" fill="#DAEEF3" fill-rule="evenodd" /><g clip-path="url(#27)"></g><g clip-path="url(#28)"></g></g><path transform="matrix(1 0 0 -1 0 841)" d="M192.74 415.87L224.924 415.87L224.924 415.87L224.924 453.91L224.924 453.91L192.74 453.91z" stroke="none" fill="#DAEEF3" fill-rule="evenodd" /><g clip-path="url(#29)"><path transform="matrix(1 0 0 -1 0 841)" d="M197.9 434.95L219.764 434.95L219.764 434.95L219.764 453.91L219.764 453.91L197.9 453.91z" stroke="none" fill="#DAEEF3" fill-rule="evenodd" /><g clip-path="url(#30)"></g><g clip-path="url(#31)"></g></g><path transform="matrix(1 0 0 -1 0 841)" d="M225.41 415.87L350.59 415.87L350.59 415.87L350.59 453.91L350.59 453.91L225.41 453.91z" stroke="none" fill="#DAEEF3" fill-rule="evenodd" /><g clip-path="url(#32)"><path transform="matrix(1 0 0 -1 0 841)" d="M230.57 434.95L345.43 434.95L345.43 434.95L345.43 453.91L345.43 453.91L230.57 453.91z" stroke="none" fill="#DAEEF3" fill-rule="evenodd" /><g clip-path="url(#33)"></g><path transform="matrix(1 0 0 -1 0 841)" d="M230.57 415.87L345.43 415.87L345.43 415.87L345.43 434.95L345.43 434.95L230.57 434.95z" stroke="none" fill="#DAEEF3" fill-rule="evenodd" /><g clip-path="url(#34)"></g><g clip-path="url(#35)"></g></g><path transform="matrix(1 0 0 -1 0 841)" d="M351.07 415.87L508.41 415.87L508.41 415.87L508.41 453.91L508.41 453.91L351.07 453.91z" stroke="none" fill="#DAEEF3" fill-rule="evenodd" /><g clip-path="url(#36)"><path transform="matrix(1 0 0 -1 0 841)" d="M356.23 434.95L503.25 434.95L503.25 434.95L503.25 453.91L503.25 453.91L356.23 453.91z" stroke="none" fill="#DAEEF3" fill-rule="evenodd" /><g clip-path="url(#37)"></g><g clip-path="url(#38)"></g><g clip-path="url(#39)"></g><g clip-path="url(#40)"></g></g><path transform="matrix(1 0 0 -1 0 841)" d="M84.864 454.03L85.344 454.03L85.344 454.03L85.344 454.51L85.344 454.51L84.864 454.51z" stroke="none" fill="#000000" fill-rule="evenodd" /><path transform="matrix(1 0 0 -1 0 841)" d="M85.344 454.03L148.704 454.03L148.704 454.03L148.704 454.51L148.704 454.51L85.344 454.51z" stroke="none" fill="#000000" fill-rule="evenodd" /><path transform="matrix(1 0 0 -1 0 841)" d="M148.7 454.03L149.18 454.03L149.18 454.03L149.18 454.51L149.18 454.51L148.7 454.51z" stroke="none" fill="#000000" fill-rule="evenodd" /><path transform="matrix(1 0 0 -1 0 841)" d="M149.18 454.03L192.26 454.03L192.26 454.03L192.26 454.51L192.26 454.51L149.18 454.51z" stroke="none" fill="#000000" fill-rule="evenodd" /><path transform="matrix(1 0 0 -1 0 841)" d="M192.26 454.03L192.74 454.03L192.74 454.03L192.74 454.51L192.74 454.51L192.26 454.51z" stroke="none" fill="#000000" fill-rule="evenodd" /><path transform="matrix(1 0 0 -1 0 841)" d="M192.74 454.03L225.044 454.03L225.044 454.03L225.044 454.51L225.044 454.51L192.74 454.51z" stroke="none" fill="#000000" fill-rule="evenodd" /><path transform="matrix(1 0 0 -1 0 841)" d="M225.05 454.03L225.53 454.03L225.53 454.03L225.53 454.51L225.53 454.51L225.05 454.51z" stroke="none" fill="#000000" fill-rule="evenodd" /><path transform="matrix(1 0 0 -1 0 841)" d="M225.53 454.03L350.59 454.03L350.59 454.03L350.59 454.51L350.59 454.51L225.53 454.51z" stroke="none" fill="#000000" fill-rule="evenodd" /><path transform="matrix(1 0 0 -1 0 841)" d="M350.59 454.03L351.07 454.03L351.07 454.03L351.07 454.51L351.07 454.51L350.59 454.51z" stroke="none" fill="#000000" fill-rule="evenodd" /><path transform="matrix(1 0 0 -1 0 841)" d="M351.07 454.03L508.41 454.03L508.41 454.03L508.41 454.51L508.41 454.51L351.07 454.51z" stroke="none" fill="#000000" fill-rule="evenodd" /><path transform="matrix(1 0 0 -1 0 841)" d="M508.42 454.03L508.9 454.03L508.9 454.03L508.9 454.51L508.9 454.51L508.42 454.51z" stroke="none" fill="#000000" fill-rule="evenodd" /><path transform="matrix(1 0 0 -1 0 841)" d="M84.864 415.87L85.344 415.87L85.344 415.87L85.344 454.03L85.344 454.03L84.864 454.03z" stroke="none" fill="#000000" fill-rule="evenodd" /><path transform="matrix(1 0 0 -1 0 841)" d="M148.7 415.87L149.18 415.87L149.18 415.87L149.18 454.03L149.18 454.03L148.7 454.03z" stroke="none" fill="#000000" fill-rule="evenodd" /><path transform="matrix(1 0 0 -1 0 841)" d="M192.26 415.87L192.74 415.87L192.74 415.87L192.74 454.03L192.74 454.03L192.26 454.03z" stroke="none" fill="#000000" fill-rule="evenodd" /><path transform="matrix(1 0 0 -1 0 841)" d="M225.05 415.87L225.53 415.87L225.53 415.87L225.53 454.03L225.53 454.03L225.05 454.03z" stroke="none" fill="#000000" fill-rule="evenodd" /><path transform="matrix(1 0 0 -1 0 841)" d="M350.59 415.87L351.07 415.87L351.07 415.87L351.07 454.03L351.07 454.03L350.59 454.03z" stroke="none" fill="#000000" fill-rule="evenodd" /><path transform="matrix(1 0 0 -1 0 841)" d="M508.42 415.87L508.9 415.87L508.9 415.87L508.9 454.03L508.9 454.03L508.42 454.03z" stroke="none" fill="#000000" fill-rule="evenodd" /><g clip-path="url(#41)"><g clip-path="url(#42)"></g><g clip-path="url(#43)"></g></g><g clip-path="url(#44)"><g clip-path="url(#45)"></g><g clip-path="url(#46)"></g></g><g clip-path="url(#47)"><g clip-path="url(#48)"></g><g clip-path="url(#49)"></g></g><g clip-path="url(#50)"><g clip-path="url(#51)"></g><g clip-path="url(#52)"></g><g clip-path="url(#53)"></g><g clip-path="url(#54)"></g></g><g clip-path="url(#55)"><g clip-path="url(#56)"></g><g clip-path="url(#57)"></g></g><path transform="matrix(1 0 0 -1 0 841)" d="M84.864 415.39L85.344 415.39L85.344 415.39L85.344 415.87L85.344 415.87L84.864 415.87z" stroke="none" fill="#000000" fill-rule="evenodd" /><path transform="matrix(1 0 0 -1 0 841)" d="M85.344 415.39L148.704 415.39L148.704 415.39L148.704 415.87L148.704 415.87L85.344 415.87z" stroke="none" fill="#000000" fill-rule="evenodd" /><path transform="matrix(1 0 0 -1 0 841)" d="M148.7 415.39L149.18 415.39L149.18 415.39L149.18 415.87L149.18 415.87L148.7 415.87z" stroke="none" fill="#000000" fill-rule="evenodd" /><path transform="matrix(1 0 0 -1 0 841)" d="M149.18 415.39L192.26 415.39L192.26 415.39L192.26 415.87L192.26 415.87L149.18 415.87z" stroke="none" fill="#000000" fill-rule="evenodd" /><path transform="matrix(1 0 0 -1 0 841)" d="M192.26 415.39L192.74 415.39L192.74 415.39L192.74 415.87L192.74 415.87L192.26 415.87z" stroke="none" fill="#000000" fill-rule="evenodd" /><path transform="matrix(1 0 0 -1 0 841)" d="M192.74 415.39L225.044 415.39L225.044 415.39L225.044 415.87L225.044 415.87L192.74 415.87z" stroke="none" fill="#000000" fill-rule="evenodd" /><path transform="matrix(1 0 0 -1 0 841)" d="M225.05 415.39L225.53 415.39L225.53 415.39L225.53 415.87L225.53 415.87L225.05 415.87z" stroke="none" fill="#000000" fill-rule="evenodd" /><path transform="matrix(1 0 0 -1 0 841)" d="M225.53 415.39L350.59 415.39L350.59 415.39L350.59 415.87L350.59 415.87L225.53 415.87z" stroke="none" fill="#000000" fill-rule="evenodd" /><path transform="matrix(1 0 0 -1 0 841)" d="M350.59 415.39L351.07 415.39L351.07 415.39L351.07 415.87L351.07 415.87L350.59 415.87z" stroke="none" fill="#000000" fill-rule="evenodd" /><path transform="matrix(1 0 0 -1 0 841)" d="M351.07 415.39L508.41 415.39L508.41 415.39L508.41 415.87L508.41 415.87L351.07 415.87z" stroke="none" fill="#000000" fill-rule="evenodd" /><path transform="matrix(1 0 0 -1 0 841)" d="M508.42 415.39L508.9 415.39L508.9 415.39L508.9 415.87L508.9 415.87L508.42 415.87z" stroke="none" fill="#000000" fill-rule="evenodd" /><path transform="matrix(1 0 0 -1 0 841)" d="M84.864 396.31L85.344 396.31L85.344 396.31L85.344 415.39L85.344 415.39L84.864 415.39z" stroke="none" fill="#000000" fill-rule="evenodd" /><path transform="matrix(1 0 0 -1 0 841)" d="M148.7 396.31L149.18 396.31L149.18 396.31L149.18 415.39L149.18 415.39L148.7 415.39z" stroke="none" fill="#000000" fill-rule="evenodd" /><path transform="matrix(1 0 0 -1 0 841)" d="M192.26 396.31L192.74 396.31L192.74 396.31L192.74 415.39L192.74 415.39L192.26 415.39z" stroke="none" fill="#000000" fill-rule="evenodd" /><path transform="matrix(1 0 0 -1 0 841)" d="M225.05 396.31L225.53 396.31L225.53 396.31L225.53 415.39L225.53 415.39L225.05 415.39z" stroke="none" fill="#000000" fill-rule="evenodd" /><path transform="matrix(1 0 0 -1 0 841)" d="M350.59 396.31L351.07 396.31L351.07 396.31L351.07 415.39L351.07 415.39L350.59 415.39z" stroke="none" fill="#000000" fill-rule="evenodd" /><path transform="matrix(1 0 0 -1 0 841)" d="M508.42 396.31L508.9 396.31L508.9 396.31L508.9 415.39L508.9 415.39L508.42 415.39z" stroke="none" fill="#000000" fill-rule="evenodd" /><path transform="matrix(1 0 0 -1 0 841)" d="M85.344 357.65L148.704 357.65L148.704 357.65L148.704 395.834L148.704 395.834L85.344 395.834z" stroke="none" fill="#DAEEF3" fill-rule="evenodd" /><g clip-path="url(#58)"><path transform="matrix(1 0 0 -1 0 841)" d="M90.504 376.75L143.544 376.75L143.544 376.75L143.544 395.83L143.544 395.83L90.504 395.83z" stroke="none" fill="#DAEEF3" fill-rule="evenodd" /><g clip-path="url(#59)"></g><path transform="matrix(1 0 0 -1 0 841)" d="M90.504 357.65L143.544 357.65L143.544 357.65L143.544 376.754L143.544 376.754L90.504 376.754z" stroke="none" fill="#DAEEF3" fill-rule="evenodd" /><g clip-path="url(#60)"></g><g clip-path="url(#61)"></g></g><path transform="matrix(1 0 0 -1 0 841)" d="M149.18 357.65L192.26 357.65L192.26 357.65L192.26 395.834L192.26 395.834L149.18 395.834z" stroke="none" fill="#DAEEF3" fill-rule="evenodd" /><g clip-path="url(#62)"><path transform="matrix(1 0 0 -1 0 841)" d="M154.34 376.75L187.1 376.75L187.1 376.75L187.1 395.83L187.1 395.83L154.34 395.83z" stroke="none" fill="#DAEEF3" fill-rule="evenodd" /><g clip-path="url(#63)"></g><g clip-path="url(#64)"></g></g><path transform="matrix(1 0 0 -1 0 841)" d="M192.74 357.65L224.924 357.65L224.924 357.65L224.924 395.834L224.924 395.834L192.74 395.834z" stroke="none" fill="#DAEEF3" fill-rule="evenodd" /><g clip-path="url(#65)"><path transform="matrix(1 0 0 -1 0 841)" d="M197.9 376.75L219.764 376.75L219.764 376.75L219.764 395.83L219.764 395.83L197.9 395.83z" stroke="none" fill="#DAEEF3" fill-rule="evenodd" /><g clip-path="url(#66)"></g><g clip-path="url(#67)"></g></g><path transform="matrix(1 0 0 -1 0 841)" d="M225.41 357.65L350.59 357.65L350.59 357.65L350.59 395.834L350.59 395.834L225.41 395.834z" stroke="none" fill="#DAEEF3" fill-rule="evenodd" /><g clip-path="url(#68)"><path transform="matrix(1 0 0 -1 0 841)" d="M230.57 376.75L345.43 376.75L345.43 376.75L345.43 395.83L345.43 395.83L230.57 395.83z" stroke="none" fill="#DAEEF3" fill-rule="evenodd" /><g clip-path="url(#69)"></g><g clip-path="url(#70)"></g></g><path transform="matrix(1 0 0 -1 0 841)" d="M351.07 357.65L508.41 357.65L508.41 357.65L508.41 395.834L508.41 395.834L351.07 395.834z" stroke="none" fill="#DAEEF3" fill-rule="evenodd" /><g clip-path="url(#71)"><path transform="matrix(1 0 0 -1 0 841)" d="M356.23 376.75L503.25 376.75L503.25 376.75L503.25 395.83L503.25 395.83L356.23 395.83z" stroke="none" fill="#DAEEF3" fill-rule="evenodd" /><g clip-path="url(#72)"></g><g clip-path="url(#73)"></g><g clip-path="url(#74)"></g></g><path transform="matrix(1 0 0 -1 0 841)" d="M84.864 395.83L85.344 395.83L85.344 395.83L85.344 396.31L85.344 396.31L84.864 396.31z" stroke="none" fill="#000000" fill-rule="evenodd" /><path transform="matrix(1 0 0 -1 0 841)" d="M85.344 395.83L148.704 395.83L148.704 395.83L148.704 396.31L148.704 396.31L85.344 396.31z" stroke="none" fill="#000000" fill-rule="evenodd" /><path transform="matrix(1 0 0 -1 0 841)" d="M148.7 395.83L149.18 395.83L149.18 395.83L149.18 396.31L149.18 396.31L148.7 396.31z" stroke="none" fill="#000000" fill-rule="evenodd" /><path transform="matrix(1 0 0 -1 0 841)" d="M149.18 395.83L192.26 395.83L192.26 395.83L192.26 396.31L192.26 396.31L149.18 396.31z" stroke="none" fill="#000000" fill-rule="evenodd" /><path transform="matrix(1 0 0 -1 0 841)" d="M192.26 395.83L192.74 395.83L192.74 395.83L192.74 396.31L192.74 396.31L192.26 396.31z" stroke="none" fill="#000000" fill-rule="evenodd" /><path transform="matrix(1 0 0 -1 0 841)" d="M192.74 395.83L225.044 395.83L225.044 395.83L225.044 396.31L225.044 396.31L192.74 396.31z" stroke="none" fill="#000000" fill-rule="evenodd" /><path transform="matrix(1 0 0 -1 0 841)" d="M225.05 395.83L225.53 395.83L225.53 395.83L225.53 396.31L225.53 396.31L225.05 396.31z" stroke="none" fill="#000000" fill-rule="evenodd" /><path transform="matrix(1 0 0 -1 0 841)" d="M225.53 395.83L350.59 395.83L350.59 395.83L350.59 396.31L350.59 396.31L225.53 396.31z" stroke="none" fill="#000000" fill-rule="evenodd" /><path transform="matrix(1 0 0 -1 0 841)" d="M350.59 395.83L351.07 395.83L351.07 395.83L351.07 396.31L351.07 396.31L350.59 396.31z" stroke="none" fill="#000000" fill-rule="evenodd" /><path transform="matrix(1 0 0 -1 0 841)" d="M351.07 395.83L508.41 395.83L508.41 395.83L508.41 396.31L508.41 396.31L351.07 396.31z" stroke="none" fill="#000000" fill-rule="evenodd" /><path transform="matrix(1 0 0 -1 0 841)" d="M508.42 395.83L508.9 395.83L508.9 395.83L508.9 396.31L508.9 396.31L508.42 396.31z" stroke="none" fill="#000000" fill-rule="evenodd" /><path transform="matrix(1 0 0 -1 0 841)" d="M84.864 357.65L85.344 357.65L85.344 357.65L85.344 395.834L85.344 395.834L84.864 395.834z" stroke="none" fill="#000000" fill-rule="evenodd" /><path transform="matrix(1 0 0 -1 0 841)" d="M148.7 357.65L149.18 357.65L149.18 357.65L149.18 395.834L149.18 395.834L148.7 395.834z" stroke="none" fill="#000000" fill-rule="evenodd" /><path transform="matrix(1 0 0 -1 0 841)" d="M192.26 357.65L192.74 357.65L192.74 357.65L192.74 395.834L192.74 395.834L192.26 395.834z" stroke="none" fill="#000000" fill-rule="evenodd" /><path transform="matrix(1 0 0 -1 0 841)" d="M225.05 357.65L225.53 357.65L225.53 357.65L225.53 395.834L225.53 395.834L225.05 395.834z" stroke="none" fill="#000000" fill-rule="evenodd" /><path transform="matrix(1 0 0 -1 0 841)" d="M350.59 357.65L351.07 357.65L351.07 357.65L351.07 395.834L351.07 395.834L350.59 395.834z" stroke="none" fill="#000000" fill-rule="evenodd" /><path transform="matrix(1 0 0 -1 0 841)" d="M508.42 357.65L508.9 357.65L508.9 357.65L508.9 395.834L508.9 395.834L508.42 395.834z" stroke="none" fill="#000000" fill-rule="evenodd" /><g clip-path="url(#75)"><g clip-path="url(#76)"></g><g clip-path="url(#77)"></g><g clip-path="url(#78)"></g></g><g clip-path="url(#79)"><g clip-path="url(#80)"></g><g clip-path="url(#81)"></g></g><g clip-path="url(#82)"><g clip-path="url(#83)"></g><g clip-path="url(#84)"></g></g><g clip-path="url(#85)"><g clip-path="url(#86)"></g><g clip-path="url(#87)"></g></g><g clip-path="url(#88)"><g clip-path="url(#89)"></g><g clip-path="url(#90)"></g></g><path transform="matrix(1 0 0 -1 0 841)" d="M84.864 357.17L85.344 357.17L85.344 357.17L85.344 357.65L85.344 357.65L84.864 357.65z" stroke="none" fill="#000000" fill-rule="evenodd" /><path transform="matrix(1 0 0 -1 0 841)" d="M85.344 357.17L148.704 357.17L148.704 357.17L148.704 357.65L148.704 357.65L85.344 357.65z" stroke="none" fill="#000000" fill-rule="evenodd" /><path transform="matrix(1 0 0 -1 0 841)" d="M148.7 357.17L149.18 357.17L149.18 357.17L149.18 357.65L149.18 357.65L148.7 357.65z" stroke="none" fill="#000000" fill-rule="evenodd" /><path transform="matrix(1 0 0 -1 0 841)" d="M149.18 357.17L192.26 357.17L192.26 357.17L192.26 357.65L192.26 357.65L149.18 357.65z" stroke="none" fill="#000000" fill-rule="evenodd" /><path transform="matrix(1 0 0 -1 0 841)" d="M192.26 357.17L192.74 357.17L192.74 357.17L192.74 357.65L192.74 357.65L192.26 357.65z" stroke="none" fill="#000000" fill-rule="evenodd" /><path transform="matrix(1 0 0 -1 0 841)" d="M192.74 357.17L225.044 357.17L225.044 357.17L225.044 357.65L225.044 357.65L192.74 357.65z" stroke="none" fill="#000000" fill-rule="evenodd" /><path transform="matrix(1 0 0 -1 0 841)" d="M225.05 357.17L225.53 357.17L225.53 357.17L225.53 357.65L225.53 357.65L225.05 357.65z" stroke="none" fill="#000000" fill-rule="evenodd" /><path transform="matrix(1 0 0 -1 0 841)" d="M225.53 357.17L350.59 357.17L350.59 357.17L350.59 357.65L350.59 357.65L225.53 357.65z" stroke="none" fill="#000000" fill-rule="evenodd" /><path transform="matrix(1 0 0 -1 0 841)" d="M350.59 357.17L351.07 357.17L351.07 357.17L351.07 357.65L351.07 357.65L350.59 357.65z" stroke="none" fill="#000000" fill-rule="evenodd" /><path transform="matrix(1 0 0 -1 0 841)" d="M351.07 357.17L508.41 357.17L508.41 357.17L508.41 357.65L508.41 357.65L351.07 357.65z" stroke="none" fill="#000000" fill-rule="evenodd" /><path transform="matrix(1 0 0 -1 0 841)" d="M508.42 357.17L508.9 357.17L508.9 357.17L508.9 357.65L508.9 357.65L508.42 357.65z" stroke="none" fill="#000000" fill-rule="evenodd" /><path transform="matrix(1 0 0 -1 0 841)" d="M84.864 319.13L85.344 319.13L85.344 319.13L85.344 357.17L85.344 357.17L84.864 357.17z" stroke="none" fill="#000000" fill-rule="evenodd" /><path transform="matrix(1 0 0 -1 0 841)" d="M148.7 319.13L149.18 319.13L149.18 319.13L149.18 357.17L149.18 357.17L148.7 357.17z" stroke="none" fill="#000000" fill-rule="evenodd" /><path transform="matrix(1 0 0 -1 0 841)" d="M192.26 319.13L192.74 319.13L192.74 319.13L192.74 357.17L192.74 357.17L192.26 357.17z" stroke="none" fill="#000000" fill-rule="evenodd" /><path transform="matrix(1 0 0 -1 0 841)" d="M225.05 319.13L225.53 319.13L225.53 319.13L225.53 357.17L225.53 357.17L225.05 357.17z" stroke="none" fill="#000000" fill-rule="evenodd" /><path transform="matrix(1 0 0 -1 0 841)" d="M350.59 319.13L351.07 319.13L351.07 319.13L351.07 357.17L351.07 357.17L350.59 357.17z" stroke="none" fill="#000000" fill-rule="evenodd" /><path transform="matrix(1 0 0 -1 0 841)" d="M508.42 319.13L508.9 319.13L508.9 319.13L508.9 357.17L508.9 357.17L508.42 357.17z" stroke="none" fill="#000000" fill-rule="evenodd" /><path transform="matrix(1 0 0 -1 0 841)" d="M85.344 280.49L148.704 280.49L148.704 280.49L148.704 318.53L148.704 318.53L85.344 318.53z" stroke="none" fill="#DAEEF3" fill-rule="evenodd" /><g clip-path="url(#91)"><path transform="matrix(1 0 0 -1 0 841)" d="M90.504 299.57L143.544 299.57L143.544 299.57L143.544 318.53L143.544 318.53L90.504 318.53z" stroke="none" fill="#DAEEF3" fill-rule="evenodd" /><g clip-path="url(#92)"></g><path transform="matrix(1 0 0 -1 0 841)" d="M90.504 280.49L143.544 280.49L143.544 280.49L143.544 299.57L143.544 299.57L90.504 299.57z" stroke="none" fill="#DAEEF3" fill-rule="evenodd" /><g clip-path="url(#93)"></g><g clip-path="url(#94)"></g></g><path transform="matrix(1 0 0 -1 0 841)" d="M149.18 280.49L192.26 280.49L192.26 280.49L192.26 318.53L192.26 318.53L149.18 318.53z" stroke="none" fill="#DAEEF3" fill-rule="evenodd" /><g clip-path="url(#95)"><path transform="matrix(1 0 0 -1 0 841)" d="M154.34 299.57L187.1 299.57L187.1 299.57L187.1 318.53L187.1 318.53L154.34 318.53z" stroke="none" fill="#DAEEF3" fill-rule="evenodd" /><g clip-path="url(#96)"></g><g clip-path="url(#97)"></g></g><path transform="matrix(1 0 0 -1 0 841)" d="M192.74 280.49L224.924 280.49L224.924 280.49L224.924 318.53L224.924 318.53L192.74 318.53z" stroke="none" fill="#DAEEF3" fill-rule="evenodd" /><g clip-path="url(#98)"><path transform="matrix(1 0 0 -1 0 841)" d="M197.9 299.57L219.764 299.57L219.764 299.57L219.764 318.53L219.764 318.53L197.9 318.53z" stroke="none" fill="#DAEEF3" fill-rule="evenodd" /><g clip-path="url(#99)"></g><g clip-path="url(#100)"></g></g><path transform="matrix(1 0 0 -1 0 841)" d="M225.41 280.49L350.59 280.49L350.59 280.49L350.59 318.53L350.59 318.53L225.41 318.53z" stroke="none" fill="#DAEEF3" fill-rule="evenodd" /><g clip-path="url(#101)"><path transform="matrix(1 0 0 -1 0 841)" d="M230.57 299.57L345.43 299.57L345.43 299.57L345.43 318.53L345.43 318.53L230.57 318.53z" stroke="none" fill="#DAEEF3" fill-rule="evenodd" /><g clip-path="url(#102)"></g><g clip-path="url(#103)"></g></g><path transform="matrix(1 0 0 -1 0 841)" d="M351.07 280.49L508.41 280.49L508.41 280.49L508.41 318.53L508.41 318.53L351.07 318.53z" stroke="none" fill="#DAEEF3" fill-rule="evenodd" /><g clip-path="url(#104)"><path transform="matrix(1 0 0 -1 0 841)" d="M356.23 299.57L503.25 299.57L503.25 299.57L503.25 318.53L503.25 318.53L356.23 318.53z" stroke="none" fill="#DAEEF3" fill-rule="evenodd" /><g clip-path="url(#105)"></g><g clip-path="url(#106)"></g></g><path transform="matrix(1 0 0 -1 0 841)" d="M84.864 318.65L85.344 318.65L85.344 318.65L85.344 319.13L85.344 319.13L84.864 319.13z" stroke="none" fill="#000000" fill-rule="evenodd" /><path transform="matrix(1 0 0 -1 0 841)" d="M85.344 318.65L148.704 318.65L148.704 318.65L148.704 319.13L148.704 319.13L85.344 319.13z" stroke="none" fill="#000000" fill-rule="evenodd" /><path transform="matrix(1 0 0 -1 0 841)" d="M148.7 318.65L149.18 318.65L149.18 318.65L149.18 319.13L149.18 319.13L148.7 319.13z" stroke="none" fill="#000000" fill-rule="evenodd" /><path transform="matrix(1 0 0 -1 0 841)" d="M149.18 318.65L192.26 318.65L192.26 318.65L192.26 319.13L192.26 319.13L149.18 319.13z" stroke="none" fill="#000000" fill-rule="evenodd" /><path transform="matrix(1 0 0 -1 0 841)" d="M192.26 318.65L192.74 318.65L192.74 318.65L192.74 319.13L192.74 319.13L192.26 319.13z" stroke="none" fill="#000000" fill-rule="evenodd" /><path transform="matrix(1 0 0 -1 0 841)" d="M192.74 318.65L225.044 318.65L225.044 318.65L225.044 319.13L225.044 319.13L192.74 319.13z" stroke="none" fill="#000000" fill-rule="evenodd" /><path transform="matrix(1 0 0 -1 0 841)" d="M225.05 318.65L225.53 318.65L225.53 318.65L225.53 319.13L225.53 319.13L225.05 319.13z" stroke="none" fill="#000000" fill-rule="evenodd" /><path transform="matrix(1 0 0 -1 0 841)" d="M225.53 318.65L350.59 318.65L350.59 318.65L350.59 319.13L350.59 319.13L225.53 319.13z" stroke="none" fill="#000000" fill-rule="evenodd" /><path transform="matrix(1 0 0 -1 0 841)" d="M350.59 318.65L351.07 318.65L351.07 318.65L351.07 319.13L351.07 319.13L350.59 319.13z" stroke="none" fill="#000000" fill-rule="evenodd" /><path transform="matrix(1 0 0 -1 0 841)" d="M351.07 318.65L508.41 318.65L508.41 318.65L508.41 319.13L508.41 319.13L351.07 319.13z" stroke="none" fill="#000000" fill-rule="evenodd" /><path transform="matrix(1 0 0 -1 0 841)" d="M508.42 318.65L508.9 318.65L508.9 318.65L508.9 319.13L508.9 319.13L508.42 319.13z" stroke="none" fill="#000000" fill-rule="evenodd" /><path transform="matrix(1 0 0 -1 0 841)" d="M84.864 280.49L85.344 280.49L85.344 280.49L85.344 318.65L85.344 318.65L84.864 318.65z" stroke="none" fill="#000000" fill-rule="evenodd" /><path transform="matrix(1 0 0 -1 0 841)" d="M148.7 280.49L149.18 280.49L149.18 280.49L149.18 318.65L149.18 318.65L148.7 318.65z" stroke="none" fill="#000000" fill-rule="evenodd" /><path transform="matrix(1 0 0 -1 0 841)" d="M192.26 280.49L192.74 280.49L192.74 280.49L192.74 318.65L192.74 318.65L192.26 318.65z" stroke="none" fill="#000000" fill-rule="evenodd" /><path transform="matrix(1 0 0 -1 0 841)" d="M225.05 280.49L225.53 280.49L225.53 280.49L225.53 318.65L225.53 318.65L225.05 318.65z" stroke="none" fill="#000000" fill-rule="evenodd" /><path transform="matrix(1 0 0 -1 0 841)" d="M350.59 280.49L351.07 280.49L351.07 280.49L351.07 318.65L351.07 318.65L350.59 318.65z" stroke="none" fill="#000000" fill-rule="evenodd" /><path transform="matrix(1 0 0 -1 0 841)" d="M508.42 280.49L508.9 280.49L508.9 280.49L508.9 318.65L508.9 318.65L508.42 318.65z" stroke="none" fill="#000000" fill-rule="evenodd" /><g clip-path="url(#107)"><g clip-path="url(#108)"></g><g clip-path="url(#109)"></g></g><g clip-path="url(#110)"><g clip-path="url(#111)"></g><g clip-path="url(#112)"></g><g clip-path="url(#113)"></g></g><g clip-path="url(#114)"><g clip-path="url(#115)"></g><g clip-path="url(#116)"></g></g><g clip-path="url(#117)"><g clip-path="url(#118)"></g><g clip-path="url(#119)"></g></g><g clip-path="url(#120)"><g clip-path="url(#121)"></g><g clip-path="url(#122)"></g><g clip-path="url(#123)"></g><g clip-path="url(#124)"></g></g><path transform="matrix(1 0 0 -1 0 841)" d="M84.864 280.01L85.344 280.01L85.344 280.01L85.344 280.49L85.344 280.49L84.864 280.49z" stroke="none" fill="#000000" fill-rule="evenodd" /><path transform="matrix(1 0 0 -1 0 841)" d="M85.344 280.01L148.704 280.01L148.704 280.01L148.704 280.49L148.704 280.49L85.344 280.49z" stroke="none" fill="#000000" fill-rule="evenodd" /><path transform="matrix(1 0 0 -1 0 841)" d="M148.7 280.01L149.18 280.01L149.18 280.01L149.18 280.49L149.18 280.49L148.7 280.49z" stroke="none" fill="#000000" fill-rule="evenodd" /><path transform="matrix(1 0 0 -1 0 841)" d="M149.18 280.01L192.26 280.01L192.26 280.01L192.26 280.49L192.26 280.49L149.18 280.49z" stroke="none" fill="#000000" fill-rule="evenodd" /><path transform="matrix(1 0 0 -1 0 841)" d="M192.26 280.01L192.74 280.01L192.74 280.01L192.74 280.49L192.74 280.49L192.26 280.49z" stroke="none" fill="#000000" fill-rule="evenodd" /><path transform="matrix(1 0 0 -1 0 841)" d="M192.74 280.01L225.044 280.01L225.044 280.01L225.044 280.49L225.044 280.49L192.74 280.49z" stroke="none" fill="#000000" fill-rule="evenodd" /><path transform="matrix(1 0 0 -1 0 841)" d="M225.05 280.01L225.53 280.01L225.53 280.01L225.53 280.49L225.53 280.49L225.05 280.49z" stroke="none" fill="#000000" fill-rule="evenodd" /><path transform="matrix(1 0 0 -1 0 841)" d="M225.53 280.01L350.59 280.01L350.59 280.01L350.59 280.49L350.59 280.49L225.53 280.49z" stroke="none" fill="#000000" fill-rule="evenodd" /><path transform="matrix(1 0 0 -1 0 841)" d="M350.59 280.01L351.07 280.01L351.07 280.01L351.07 280.49L351.07 280.49L350.59 280.49z" stroke="none" fill="#000000" fill-rule="evenodd" /><path transform="matrix(1 0 0 -1 0 841)" d="M351.07 280.01L508.41 280.01L508.41 280.01L508.41 280.49L508.41 280.49L351.07 280.49z" stroke="none" fill="#000000" fill-rule="evenodd" /><path transform="matrix(1 0 0 -1 0 841)" d="M508.42 280.01L508.9 280.01L508.9 280.01L508.9 280.49L508.9 280.49L508.42 280.49z" stroke="none" fill="#000000" fill-rule="evenodd" /><path transform="matrix(1 0 0 -1 0 841)" d="M84.864 241.85L85.344 241.85L85.344 241.85L85.344 280.01L85.344 280.01L84.864 280.01z" stroke="none" fill="#000000" fill-rule="evenodd" /><path transform="matrix(1 0 0 -1 0 841)" d="M148.7 241.85L149.18 241.85L149.18 241.85L149.18 280.01L149.18 280.01L148.7 280.01z" stroke="none" fill="#000000" fill-rule="evenodd" /><path transform="matrix(1 0 0 -1 0 841)" d="M192.26 241.85L192.74 241.85L192.74 241.85L192.74 280.01L192.74 280.01L192.26 280.01z" stroke="none" fill="#000000" fill-rule="evenodd" /><path transform="matrix(1 0 0 -1 0 841)" d="M225.05 241.85L225.53 241.85L225.53 241.85L225.53 280.01L225.53 280.01L225.05 280.01z" stroke="none" fill="#000000" fill-rule="evenodd" /><path transform="matrix(1 0 0 -1 0 841)" d="M350.59 241.85L351.07 241.85L351.07 241.85L351.07 280.01L351.07 280.01L350.59 280.01z" stroke="none" fill="#000000" fill-rule="evenodd" /><path transform="matrix(1 0 0 -1 0 841)" d="M508.42 241.85L508.9 241.85L508.9 241.85L508.9 280.01L508.9 280.01L508.42 280.01z" stroke="none" fill="#000000" fill-rule="evenodd" /><path transform="matrix(1 0 0 -1 0 841)" d="M85.344 203.33L148.704 203.33L148.704 203.33L148.704 241.37L148.704 241.37L85.344 241.37z" stroke="none" fill="#DAEEF3" fill-rule="evenodd" /><g clip-path="url(#125)"><path transform="matrix(1 0 0 -1 0 841)" d="M90.504 222.29L143.544 222.29L143.544 222.29L143.544 241.37L143.544 241.37L90.504 241.37z" stroke="none" fill="#DAEEF3" fill-rule="evenodd" /><g clip-path="url(#126)"></g><path transform="matrix(1 0 0 -1 0 841)" d="M90.504 203.33L143.544 203.33L143.544 203.33L143.544 222.29L143.544 222.29L90.504 222.29z" stroke="none" fill="#DAEEF3" fill-rule="evenodd" /><g clip-path="url(#127)"></g><g clip-path="url(#128)"></g></g><path transform="matrix(1 0 0 -1 0 841)" d="M149.18 203.33L192.26 203.33L192.26 203.33L192.26 241.37L192.26 241.37L149.18 241.37z" stroke="none" fill="#DAEEF3" fill-rule="evenodd" /><g clip-path="url(#129)"><path transform="matrix(1 0 0 -1 0 841)" d="M154.34 222.29L187.1 222.29L187.1 222.29L187.1 241.37L187.1 241.37L154.34 241.37z" stroke="none" fill="#DAEEF3" fill-rule="evenodd" /><g clip-path="url(#130)"></g><g clip-path="url(#131)"></g></g><path transform="matrix(1 0 0 -1 0 841)" d="M192.74 203.33L224.924 203.33L224.924 203.33L224.924 241.37L224.924 241.37L192.74 241.37z" stroke="none" fill="#DAEEF3" fill-rule="evenodd" /><g clip-path="url(#132)"><path transform="matrix(1 0 0 -1 0 841)" d="M197.9 222.29L219.764 222.29L219.764 222.29L219.764 241.37L219.764 241.37L197.9 241.37z" stroke="none" fill="#DAEEF3" fill-rule="evenodd" /><g clip-path="url(#133)"></g><g clip-path="url(#134)"></g></g><path transform="matrix(1 0 0 -1 0 841)" d="M225.41 203.33L350.59 203.33L350.59 203.33L350.59 241.37L350.59 241.37L225.41 241.37z" stroke="none" fill="#DAEEF3" fill-rule="evenodd" /><g clip-path="url(#135)"><path transform="matrix(1 0 0 -1 0 841)" d="M230.57 222.29L345.43 222.29L345.43 222.29L345.43 241.37L345.43 241.37L230.57 241.37z" stroke="none" fill="#DAEEF3" fill-rule="evenodd" /><g clip-path="url(#136)"></g><path transform="matrix(1 0 0 -1 0 841)" d="M230.57 203.33L345.43 203.33L345.43 203.33L345.43 222.29L345.43 222.29L230.57 222.29z" stroke="none" fill="#DAEEF3" fill-rule="evenodd" /><g clip-path="url(#137)"></g><g clip-path="url(#138)"></g></g><path transform="matrix(1 0 0 -1 0 841)" d="M351.07 203.33L508.41 203.33L508.41 203.33L508.41 241.37L508.41 241.37L351.07 241.37z" stroke="none" fill="#DAEEF3" fill-rule="evenodd" /><g clip-path="url(#139)"><path transform="matrix(1 0 0 -1 0 841)" d="M356.23 222.29L503.25 222.29L503.25 222.29L503.25 241.37L503.25 241.37L356.23 241.37z" stroke="none" fill="#DAEEF3" fill-rule="evenodd" /><g clip-path="url(#140)"></g><g clip-path="url(#141)"></g><g clip-path="url(#142)"></g><path transform="matrix(1 0 0 -1 0 841)" d="M356.23 203.33L503.25 203.33L503.25 203.33L503.25 222.29L503.25 222.29L356.23 222.29z" stroke="none" fill="#DAEEF3" fill-rule="evenodd" /><g clip-path="url(#143)"></g><g clip-path="url(#144)"></g><g clip-path="url(#145)"></g></g><path transform="matrix(1 0 0 -1 0 841)" d="M84.864 241.37L85.344 241.37L85.344 241.37L85.344 241.85L85.344 241.85L84.864 241.85z" stroke="none" fill="#000000" fill-rule="evenodd" /><path transform="matrix(1 0 0 -1 0 841)" d="M85.344 241.37L148.704 241.37L148.704 241.37L148.704 241.85L148.704 241.85L85.344 241.85z" stroke="none" fill="#000000" fill-rule="evenodd" /><path transform="matrix(1 0 0 -1 0 841)" d="M148.7 241.37L149.18 241.37L149.18 241.37L149.18 241.85L149.18 241.85L148.7 241.85z" stroke="none" fill="#000000" fill-rule="evenodd" /><path transform="matrix(1 0 0 -1 0 841)" d="M149.18 241.37L192.26 241.37L192.26 241.37L192.26 241.85L192.26 241.85L149.18 241.85z" stroke="none" fill="#000000" fill-rule="evenodd" /><path transform="matrix(1 0 0 -1 0 841)" d="M192.26 241.37L192.74 241.37L192.74 241.37L192.74 241.85L192.74 241.85L192.26 241.85z" stroke="none" fill="#000000" fill-rule="evenodd" /><path transform="matrix(1 0 0 -1 0 841)" d="M192.74 241.37L225.044 241.37L225.044 241.37L225.044 241.85L225.044 241.85L192.74 241.85z" stroke="none" fill="#000000" fill-rule="evenodd" /><path transform="matrix(1 0 0 -1 0 841)" d="M225.05 241.37L225.53 241.37L225.53 241.37L225.53 241.85L225.53 241.85L225.05 241.85z" stroke="none" fill="#000000" fill-rule="evenodd" /><path transform="matrix(1 0 0 -1 0 841)" d="M225.53 241.37L350.59 241.37L350.59 241.37L350.59 241.85L350.59 241.85L225.53 241.85z" stroke="none" fill="#000000" fill-rule="evenodd" /><path transform="matrix(1 0 0 -1 0 841)" d="M350.59 241.37L351.07 241.37L351.07 241.37L351.07 241.85L351.07 241.85L350.59 241.85z" stroke="none" fill="#000000" fill-rule="evenodd" /><path transform="matrix(1 0 0 -1 0 841)" d="M351.07 241.37L508.41 241.37L508.41 241.37L508.41 241.85L508.41 241.85L351.07 241.85z" stroke="none" fill="#000000" fill-rule="evenodd" /><path transform="matrix(1 0 0 -1 0 841)" d="M508.42 241.37L508.9 241.37L508.9 241.37L508.9 241.85L508.9 241.85L508.42 241.85z" stroke="none" fill="#000000" fill-rule="evenodd" /><path transform="matrix(1 0 0 -1 0 841)" d="M84.864 203.33L85.344 203.33L85.344 203.33L85.344 241.37L85.344 241.37L84.864 241.37z" stroke="none" fill="#000000" fill-rule="evenodd" /><path transform="matrix(1 0 0 -1 0 841)" d="M148.7 203.33L149.18 203.33L149.18 203.33L149.18 241.37L149.18 241.37L148.7 241.37z" stroke="none" fill="#000000" fill-rule="evenodd" /><path transform="matrix(1 0 0 -1 0 841)" d="M192.26 203.33L192.74 203.33L192.74 203.33L192.74 241.37L192.74 241.37L192.26 241.37z" stroke="none" fill="#000000" fill-rule="evenodd" /><path transform="matrix(1 0 0 -1 0 841)" d="M225.05 203.33L225.53 203.33L225.53 203.33L225.53 241.37L225.53 241.37L225.05 241.37z" stroke="none" fill="#000000" fill-rule="evenodd" /><path transform="matrix(1 0 0 -1 0 841)" d="M350.59 203.33L351.07 203.33L351.07 203.33L351.07 241.37L351.07 241.37L350.59 241.37z" stroke="none" fill="#000000" fill-rule="evenodd" /><path transform="matrix(1 0 0 -1 0 841)" d="M508.42 203.33L508.9 203.33L508.9 203.33L508.9 241.37L508.9 241.37L508.42 241.37z" stroke="none" fill="#000000" fill-rule="evenodd" /><g clip-path="url(#146)"><g clip-path="url(#147)"></g><g clip-path="url(#148)"></g><g clip-path="url(#149)"></g></g><g clip-path="url(#150)"><g clip-path="url(#151)"></g><g clip-path="url(#152)"></g></g><g clip-path="url(#153)"><g clip-path="url(#154)"></g><g clip-path="url(#155)"></g></g><g clip-path="url(#156)"><g clip-path="url(#157)"></g><g clip-path="url(#158)"></g><g clip-path="url(#159)"></g><g clip-path="url(#160)"></g><g clip-path="url(#161)"></g></g><g clip-path="url(#162)"><g clip-path="url(#163)"></g><g clip-path="url(#164)"></g><g clip-path="url(#165)"></g><g clip-path="url(#166)"></g><g clip-path="url(#167)"></g><g clip-path="url(#168)"></g><g clip-path="url(#169)"></g><g clip-path="url(#170)"></g><g clip-path="url(#171)"></g><g clip-path="url(#172)"></g><g clip-path="url(#173)"></g><g clip-path="url(#174)"></g><path transform="matrix(1 0 0 -1 0 841)" d="M385.39 109.34L441.43 109.34L441.43 109.34L441.43 110.06L441.43 110.06L385.39 110.06z" stroke="none" fill="#548DD4" fill-rule="evenodd" /></g><path transform="matrix(1 0 0 -1 0 841)" d="M84.864 202.85L85.344 202.85L85.344 202.85L85.344 203.33L85.344 203.33L84.864 203.33z" stroke="none" fill="#000000" fill-rule="evenodd" /><path transform="matrix(1 0 0 -1 0 841)" d="M85.344 202.85L148.704 202.85L148.704 202.85L148.704 203.33L148.704 203.33L85.344 203.33z" stroke="none" fill="#000000" fill-rule="evenodd" /><path transform="matrix(1 0 0 -1 0 841)" d="M148.7 202.85L149.18 202.85L149.18 202.85L149.18 203.33L149.18 203.33L148.7 203.33z" stroke="none" fill="#000000" fill-rule="evenodd" /><path transform="matrix(1 0 0 -1 0 841)" d="M149.18 202.85L192.26 202.85L192.26 202.85L192.26 203.33L192.26 203.33L149.18 203.33z" stroke="none" fill="#000000" fill-rule="evenodd" /><path transform="matrix(1 0 0 -1 0 841)" d="M192.26 202.85L192.74 202.85L192.74 202.85L192.74 203.33L192.74 203.33L192.26 203.33z" stroke="none" fill="#000000" fill-rule="evenodd" /><path transform="matrix(1 0 0 -1 0 841)" d="M192.74 202.85L225.044 202.85L225.044 202.85L225.044 203.33L225.044 203.33L192.74 203.33z" stroke="none" fill="#000000" fill-rule="evenodd" /><path transform="matrix(1 0 0 -1 0 841)" d="M225.05 202.85L225.53 202.85L225.53 202.85L225.53 203.33L225.53 203.33L225.05 203.33z" stroke="none" fill="#000000" fill-rule="evenodd" /><path transform="matrix(1 0 0 -1 0 841)" d="M225.53 202.85L350.59 202.85L350.59 202.85L350.59 203.33L350.59 203.33L225.53 203.33z" stroke="none" fill="#000000" fill-rule="evenodd" /><path transform="matrix(1 0 0 -1 0 841)" d="M350.59 202.85L351.07 202.85L351.07 202.85L351.07 203.33L351.07 203.33L350.59 203.33z" stroke="none" fill="#000000" fill-rule="evenodd" /><path transform="matrix(1 0 0 -1 0 841)" d="M351.07 202.85L508.41 202.85L508.41 202.85L508.41 203.33L508.41 203.33L351.07 203.33z" stroke="none" fill="#000000" fill-rule="evenodd" /><path transform="matrix(1 0 0 -1 0 841)" d="M508.42 202.85L508.9 202.85L508.9 202.85L508.9 203.33L508.9 203.33L508.42 203.33z" stroke="none" fill="#000000" fill-rule="evenodd" /><path transform="matrix(1 0 0 -1 0 841)" d="M84.864 107.54L85.344 107.54L85.344 107.54L85.344 202.844L85.344 202.844L84.864 202.844z" stroke="none" fill="#000000" fill-rule="evenodd" /><path transform="matrix(1 0 0 -1 0 841)" d="M84.864 107.06L85.344 107.06L85.344 107.06L85.344 107.54L85.344 107.54L84.864 107.54z" stroke="none" fill="#000000" fill-rule="evenodd" /><path transform="matrix(1 0 0 -1 0 841)" d="M84.864 107.06L85.344 107.06L85.344 107.06L85.344 107.54L85.344 107.54L84.864 107.54z" stroke="none" fill="#000000" fill-rule="evenodd" /><path transform="matrix(1 0 0 -1 0 841)" d="M85.344 107.06L148.704 107.06L148.704 107.06L148.704 107.54L148.704 107.54L85.344 107.54z" stroke="none" fill="#000000" fill-rule="evenodd" /><path transform="matrix(1 0 0 -1 0 841)" d="M148.7 107.54L149.18 107.54L149.18 107.54L149.18 202.844L149.18 202.844L148.7 202.844z" stroke="none" fill="#000000" fill-rule="evenodd" /><path transform="matrix(1 0 0 -1 0 841)" d="M148.7 107.06L149.18 107.06L149.18 107.06L149.18 107.54L149.18 107.54L148.7 107.54z" stroke="none" fill="#000000" fill-rule="evenodd" /><path transform="matrix(1 0 0 -1 0 841)" d="M149.18 107.06L192.26 107.06L192.26 107.06L192.26 107.54L192.26 107.54L149.18 107.54z" stroke="none" fill="#000000" fill-rule="evenodd" /><path transform="matrix(1 0 0 -1 0 841)" d="M192.26 107.54L192.74 107.54L192.74 107.54L192.74 202.844L192.74 202.844L192.26 202.844z" stroke="none" fill="#000000" fill-rule="evenodd" /><path transform="matrix(1 0 0 -1 0 841)" d="M192.26 107.06L192.74 107.06L192.74 107.06L192.74 107.54L192.74 107.54L192.26 107.54z" stroke="none" fill="#000000" fill-rule="evenodd" /><path transform="matrix(1 0 0 -1 0 841)" d="M192.74 107.06L225.044 107.06L225.044 107.06L225.044 107.54L225.044 107.54L192.74 107.54z" stroke="none" fill="#000000" fill-rule="evenodd" /><path transform="matrix(1 0 0 -1 0 841)" d="M225.05 107.54L225.53 107.54L225.53 107.54L225.53 202.844L225.53 202.844L225.05 202.844z" stroke="none" fill="#000000" fill-rule="evenodd" /><path transform="matrix(1 0 0 -1 0 841)" d="M225.05 107.06L225.53 107.06L225.53 107.06L225.53 107.54L225.53 107.54L225.05 107.54z" stroke="none" fill="#000000" fill-rule="evenodd" /><path transform="matrix(1 0 0 -1 0 841)" d="M225.53 107.06L350.59 107.06L350.59 107.06L350.59 107.54L350.59 107.54L225.53 107.54z" stroke="none" fill="#000000" fill-rule="evenodd" /><path transform="matrix(1 0 0 -1 0 841)" d="M350.59 107.54L351.07 107.54L351.07 107.54L351.07 202.844L351.07 202.844L350.59 202.844z" stroke="none" fill="#000000" fill-rule="evenodd" /><path transform="matrix(1 0 0 -1 0 841)" d="M350.59 107.06L351.07 107.06L351.07 107.06L351.07 107.54L351.07 107.54L350.59 107.54z" stroke="none" fill="#000000" fill-rule="evenodd" /><path transform="matrix(1 0 0 -1 0 841)" d="M351.07 107.06L508.41 107.06L508.41 107.06L508.41 107.54L508.41 107.54L351.07 107.54z" stroke="none" fill="#000000" fill-rule="evenodd" /><path transform="matrix(1 0 0 -1 0 841)" d="M508.42 107.54L508.9 107.54L508.9 107.54L508.9 202.844L508.9 202.844L508.42 202.844z" stroke="none" fill="#000000" fill-rule="evenodd" /><path transform="matrix(1 0 0 -1 0 841)" d="M508.42 107.06L508.9 107.06L508.9 107.06L508.9 107.54L508.9 107.54L508.42 107.54z" stroke="none" fill="#000000" fill-rule="evenodd" /><path transform="matrix(1 0 0 -1 0 841)" d="M508.42 107.06L508.9 107.06L508.9 107.06L508.9 107.54L508.9 107.54L508.42 107.54z" stroke="none" fill="#000000" fill-rule="evenodd" /></g></g></g></g></svg>