<svg xmlns="http://www.w3.org/2000/svg" xmlns:xlink="http://www.w3.org/1999/xlink" id="body_238" preserveAspectRatio="xMinYMin meet" viewBox="0 0 793 1121"><defs><clipPath id="1"><path d="M0 841L0 -0.9199829L0 -0.9199829L595.32 -0.9199829L595.32 -0.9199829L595.32 841L595.32 841L0 841z" /></clipPath><clipPath id="2"><path d="M0.00125 841.0914L595.4112 841.0914L595.4112 841.0914L595.4112 -0.9186401L595.4112 -0.9186401L0.00125 -0.9186401z" /></clipPath><clipPath id="3"><path d="M288.05 781.211L316.01 781.211L316.01 781.211L316.01 762.011L316.01 762.011L288.05 762.011z" /></clipPath><clipPath id="4"><path d="M288.05 781.216L316.01 781.216L316.01 781.216L316.01 762.016L316.01 762.016L288.05 762.016z" /></clipPath><clipPath id="5"><path d="M288.05 781.216L316.01 781.216L316.01 781.216L316.01 762.016L316.01 762.016L288.05 762.016z" /></clipPath><clipPath id="6"><path d="M84.751 420.09L172.831 420.09L172.831 420.09L172.831 395.01L172.831 395.01L84.751 395.01z" /></clipPath><clipPath id="7"><path d="M84.744 420.09L172.824 420.09L172.824 420.09L172.824 395.01L172.824 395.01L84.744 395.01z" /></clipPath><clipPath id="8"><path d="M84.744 420.09L172.824 420.09L172.824 420.09L172.824 395.01L172.824 395.01L84.744 395.01z" /></clipPath><clipPath id="9"><path d="M173.31 420.09L220.485 420.09L220.485 420.09L220.485 395.01L220.485 395.01L173.31 395.01z" /></clipPath><clipPath id="10"><path d="M173.3 420.09L220.484 420.09L220.484 420.09L220.484 395.01L220.484 395.01L173.3 395.01z" /></clipPath><clipPath id="11"><path d="M173.3 420.09L220.484 420.09L220.484 420.09L220.484 395.01L220.484 395.01L173.3 395.01z" /></clipPath><clipPath id="12"><path d="M220.97 420.09L268.61 420.09L268.61 420.09L268.61 395.01L268.61 395.01L220.97 395.01z" /></clipPath><clipPath id="13"><path d="M220.97 420.09L268.61 420.09L268.61 420.09L268.61 395.01L268.61 395.01L220.97 395.01z" /></clipPath><clipPath id="14"><path d="M220.97 420.09L268.61 420.09L268.61 420.09L268.61 395.01L268.61 395.01L220.97 395.01z" /></clipPath><clipPath id="15"><path d="M269.09 420.09L354.8 420.09L354.8 420.09L354.8 395.01L354.8 395.01L269.09 395.01z" /></clipPath><clipPath id="16"><path d="M269.09 420.09L354.794 420.09L354.794 420.09L354.794 395.01L354.794 395.01L269.09 395.01z" /></clipPath><clipPath id="17"><path d="M269.09 420.09L354.794 420.09L354.794 420.09L354.794 395.01L354.794 395.01L269.09 395.01z" /></clipPath><clipPath id="18"><path d="M355.28 420.09L499.42 420.09L499.42 420.09L499.42 395.01L499.42 395.01L355.28 395.01z" /></clipPath><clipPath id="19"><path d="M355.27 420.09L499.41 420.09L499.41 420.09L499.41 395.01L499.41 395.01L355.27 395.01z" /></clipPath><clipPath id="20"><path d="M355.27 420.09L499.41 420.09L499.41 420.09L499.41 395.01L499.41 395.01L355.27 395.01z" /></clipPath><clipPath id="21"><path d="M84.751 451.05L172.831 451.05L172.831 451.05L172.831 420.57L172.831 420.57L84.751 420.57z" /></clipPath><clipPath id="22"><path d="M84.744 451.05L172.824 451.05L172.824 451.05L172.824 420.57L172.824 420.57L84.744 420.57z" /></clipPath><clipPath id="23"><path d="M84.744 451.05L172.824 451.05L172.824 451.05L172.824 420.57L172.824 420.57L84.744 420.57z" /></clipPath><clipPath id="24"><path d="M84.744 451.05L172.824 451.05L172.824 451.05L172.824 420.57L172.824 420.57L84.744 420.57z" /></clipPath><clipPath id="25"><path d="M173.31 451.05L220.485 451.05L220.485 451.05L220.485 420.57L220.485 420.57L173.31 420.57z" /></clipPath><clipPath id="26"><path d="M173.3 451.05L220.484 451.05L220.484 451.05L220.484 420.57L220.484 420.57L173.3 420.57z" /></clipPath><clipPath id="27"><path d="M173.3 451.05L220.484 451.05L220.484 451.05L220.484 420.57L220.484 420.57L173.3 420.57z" /></clipPath><clipPath id="28"><path d="M220.97 451.05L268.61 451.05L268.61 451.05L268.61 420.57L268.61 420.57L220.97 420.57z" /></clipPath><clipPath id="29"><path d="M220.97 451.05L268.61 451.05L268.61 451.05L268.61 420.57L268.61 420.57L220.97 420.57z" /></clipPath><clipPath id="30"><path d="M220.97 451.05L268.61 451.05L268.61 451.05L268.61 420.57L268.61 420.57L220.97 420.57z" /></clipPath><clipPath id="31"><path d="M269.09 451.05L354.8 451.05L354.8 451.05L354.8 420.57L354.8 420.57L269.09 420.57z" /></clipPath><clipPath id="32"><path d="M269.09 451.05L354.794 451.05L354.794 451.05L354.794 420.57L354.794 420.57L269.09 420.57z" /></clipPath><clipPath id="33"><path d="M269.09 451.05L354.794 451.05L354.794 451.05L354.794 420.57L354.794 420.57L269.09 420.57z" /></clipPath><clipPath id="34"><path d="M355.28 451.05L499.42 451.05L499.42 451.05L499.42 420.57L499.42 420.57L355.28 420.57z" /></clipPath><clipPath id="35"><path d="M355.27 451.05L499.41 451.05L499.41 451.05L499.41 420.57L499.41 420.57L355.27 420.57z" /></clipPath><clipPath id="36"><path d="M355.27 451.05L499.41 451.05L499.41 451.05L499.41 420.57L499.41 420.57L355.27 420.57z" /></clipPath><clipPath id="37"><path d="M355.27 451.05L499.41 451.05L499.41 451.05L499.41 420.57L499.41 420.57L355.27 420.57z" /></clipPath><clipPath id="38"><path d="M355.27 451.05L499.41 451.05L499.41 451.05L499.41 420.57L499.41 420.57L355.27 420.57z" /></clipPath><clipPath id="39"><path d="M84.751 481.92L172.831 481.92L172.831 481.92L172.831 451.53L172.831 451.53L84.751 451.53z" /></clipPath><clipPath id="40"><path d="M84.744 481.91L172.824 481.91L172.824 481.91L172.824 451.526L172.824 451.526L84.744 451.526z" /></clipPath><clipPath id="41"><path d="M84.744 481.91L172.824 481.91L172.824 481.91L172.824 451.526L172.824 451.526L84.744 451.526z" /></clipPath><clipPath id="42"><path d="M173.31 481.92L220.485 481.92L220.485 481.92L220.485 451.53L220.485 451.53L173.31 451.53z" /></clipPath><clipPath id="43"><path d="M173.3 481.91L220.484 481.91L220.484 481.91L220.484 451.526L220.484 451.526L173.3 451.526z" /></clipPath><clipPath id="44"><path d="M173.3 481.91L220.484 481.91L220.484 481.91L220.484 451.526L220.484 451.526L173.3 451.526z" /></clipPath><clipPath id="45"><path d="M220.97 481.92L268.61 481.92L268.61 481.92L268.61 451.53L268.61 451.53L220.97 451.53z" /></clipPath><clipPath id="46"><path d="M220.97 481.91L268.61 481.91L268.61 481.91L268.61 451.526L268.61 451.526L220.97 451.526z" /></clipPath><clipPath id="47"><path d="M220.97 481.91L268.61 481.91L268.61 481.91L268.61 451.526L268.61 451.526L220.97 451.526z" /></clipPath><clipPath id="48"><path d="M269.09 481.92L354.8 481.92L354.8 481.92L354.8 451.53L354.8 451.53L269.09 451.53z" /></clipPath><clipPath id="49"><path d="M269.09 481.91L354.794 481.91L354.794 481.91L354.794 451.526L354.794 451.526L269.09 451.526z" /></clipPath><clipPath id="50"><path d="M269.09 481.91L354.794 481.91L354.794 481.91L354.794 451.526L354.794 451.526L269.09 451.526z" /></clipPath><clipPath id="51"><path d="M355.28 481.92L499.42 481.92L499.42 481.92L499.42 451.53L499.42 451.53L355.28 451.53z" /></clipPath><clipPath id="52"><path d="M355.27 481.91L499.41 481.91L499.41 481.91L499.41 451.526L499.41 451.526L355.27 451.526z" /></clipPath><clipPath id="53"><path d="M355.27 481.91L499.41 481.91L499.41 481.91L499.41 451.526L499.41 451.526L355.27 451.526z" /></clipPath><clipPath id="54"><path d="M355.27 481.91L499.41 481.91L499.41 481.91L499.41 451.526L499.41 451.526L355.27 451.526z" /></clipPath><clipPath id="55"><path d="M355.27 481.91L499.41 481.91L499.41 481.91L499.41 451.526L499.41 451.526L355.27 451.526z" /></clipPath><clipPath id="56"><path d="M84.751 512.88L172.831 512.88L172.831 512.88L172.831 482.4L172.831 482.4L84.751 482.4z" /></clipPath><clipPath id="57"><path d="M84.744 512.87L172.824 512.87L172.824 512.87L172.824 482.39L172.824 482.39L84.744 482.39z" /></clipPath><clipPath id="58"><path d="M84.744 512.87L172.824 512.87L172.824 512.87L172.824 482.39L172.824 482.39L84.744 482.39z" /></clipPath><clipPath id="59"><path d="M173.31 512.88L220.485 512.88L220.485 512.88L220.485 482.4L220.485 482.4L173.31 482.4z" /></clipPath><clipPath id="60"><path d="M173.3 512.87L220.484 512.87L220.484 512.87L220.484 482.39L220.484 482.39L173.3 482.39z" /></clipPath><clipPath id="61"><path d="M173.3 512.87L220.484 512.87L220.484 512.87L220.484 482.39L220.484 482.39L173.3 482.39z" /></clipPath><clipPath id="62"><path d="M220.97 512.88L268.61 512.88L268.61 512.88L268.61 482.4L268.61 482.4L220.97 482.4z" /></clipPath><clipPath id="63"><path d="M220.97 512.87L268.61 512.87L268.61 512.87L268.61 482.39L268.61 482.39L220.97 482.39z" /></clipPath><clipPath id="64"><path d="M220.97 512.87L268.61 512.87L268.61 512.87L268.61 482.39L268.61 482.39L220.97 482.39z" /></clipPath><clipPath id="65"><path d="M269.09 512.88L354.8 512.88L354.8 512.88L354.8 482.4L354.8 482.4L269.09 482.4z" /></clipPath><clipPath id="66"><path d="M269.09 512.87L354.794 512.87L354.794 512.87L354.794 482.39L354.794 482.39L269.09 482.39z" /></clipPath><clipPath id="67"><path d="M269.09 512.87L354.794 512.87L354.794 512.87L354.794 482.39L354.794 482.39L269.09 482.39z" /></clipPath><clipPath id="68"><path d="M355.28 512.88L499.42 512.88L499.42 512.88L499.42 482.4L499.42 482.4L355.28 482.4z" /></clipPath><clipPath id="69"><path d="M355.27 512.87L499.41 512.87L499.41 512.87L499.41 482.39L499.41 482.39L355.27 482.39z" /></clipPath><clipPath id="70"><path d="M355.27 512.87L499.41 512.87L499.41 512.87L499.41 482.39L499.41 482.39L355.27 482.39z" /></clipPath><clipPath id="71"><path d="M355.27 512.87L499.41 512.87L499.41 512.87L499.41 482.39L499.41 482.39L355.27 482.39z" /></clipPath><clipPath id="72"><path d="M355.27 512.87L499.41 512.87L499.41 512.87L499.41 482.39L499.41 482.39L355.27 482.39z" /></clipPath><clipPath id="73"><path d="M84.751 557.52L172.831 557.52L172.831 557.52L172.831 513.36L172.831 513.36L84.751 513.36z" /></clipPath><clipPath id="74"><path d="M84.744 557.51L172.824 557.51L172.824 557.51L172.824 513.35L172.824 513.35L84.744 513.35z" /></clipPath><clipPath id="75"><path d="M84.744 557.51L172.824 557.51L172.824 557.51L172.824 513.35L172.824 513.35L84.744 513.35z" /></clipPath><clipPath id="76"><path d="M173.31 557.52L220.485 557.52L220.485 557.52L220.485 513.36L220.485 513.36L173.31 513.36z" /></clipPath><clipPath id="77"><path d="M173.3 557.51L220.484 557.51L220.484 557.51L220.484 513.35L220.484 513.35L173.3 513.35z" /></clipPath><clipPath id="78"><path d="M173.3 557.51L220.484 557.51L220.484 557.51L220.484 513.35L220.484 513.35L173.3 513.35z" /></clipPath><clipPath id="79"><path d="M220.97 557.52L268.61 557.52L268.61 557.52L268.61 513.36L268.61 513.36L220.97 513.36z" /></clipPath><clipPath id="80"><path d="M220.97 557.51L268.61 557.51L268.61 557.51L268.61 513.35L268.61 513.35L220.97 513.35z" /></clipPath><clipPath id="81"><path d="M220.97 557.51L268.61 557.51L268.61 557.51L268.61 513.35L268.61 513.35L220.97 513.35z" /></clipPath><clipPath id="82"><path d="M269.09 557.52L354.8 557.52L354.8 557.52L354.8 513.36L354.8 513.36L269.09 513.36z" /></clipPath><clipPath id="83"><path d="M269.09 557.51L354.794 557.51L354.794 557.51L354.794 513.35L354.794 513.35L269.09 513.35z" /></clipPath><clipPath id="84"><path d="M355.28 557.52L499.42 557.52L499.42 557.52L499.42 513.36L499.42 513.36L355.28 513.36z" /></clipPath><clipPath id="85"><path d="M355.27 557.51L499.41 557.51L499.41 557.51L499.41 513.35L499.41 513.35L355.27 513.35z" /></clipPath><clipPath id="86"><path d="M355.27 557.51L499.41 557.51L499.41 557.51L499.41 513.35L499.41 513.35L355.27 513.35z" /></clipPath><clipPath id="87"><path d="M355.27 557.51L499.41 557.51L499.41 557.51L499.41 513.35L499.41 513.35L355.27 513.35z" /></clipPath><clipPath id="88"><path d="M355.27 557.51L499.41 557.51L499.41 557.51L499.41 513.35L499.41 513.35L355.27 513.35z" /></clipPath><clipPath id="89"><path d="M84.751 629.64L172.831 629.64L172.831 629.64L172.831 558L172.831 558L84.751 558z" /></clipPath><clipPath id="90"><path d="M84.744 629.63L172.824 629.63L172.824 629.63L172.824 557.99L172.824 557.99L84.744 557.99z" /></clipPath><clipPath id="91"><path d="M84.744 629.63L172.824 629.63L172.824 629.63L172.824 557.99L172.824 557.99L84.744 557.99z" /></clipPath><clipPath id="92"><path d="M173.31 629.64L220.485 629.64L220.485 629.64L220.485 558L220.485 558L173.31 558z" /></clipPath><clipPath id="93"><path d="M173.3 629.63L220.484 629.63L220.484 629.63L220.484 557.99L220.484 557.99L173.3 557.99z" /></clipPath><clipPath id="94"><path d="M173.3 629.63L220.484 629.63L220.484 629.63L220.484 557.99L220.484 557.99L173.3 557.99z" /></clipPath><clipPath id="95"><path d="M220.97 629.64L268.61 629.64L268.61 629.64L268.61 558L268.61 558L220.97 558z" /></clipPath><clipPath id="96"><path d="M220.97 629.63L268.61 629.63L268.61 629.63L268.61 557.99L268.61 557.99L220.97 557.99z" /></clipPath><clipPath id="97"><path d="M220.97 629.63L268.61 629.63L268.61 629.63L268.61 557.99L268.61 557.99L220.97 557.99z" /></clipPath><clipPath id="98"><path d="M269.09 629.64L354.8 629.64L354.8 629.64L354.8 558L354.8 558L269.09 558z" /></clipPath><clipPath id="99"><path d="M269.09 629.63L354.794 629.63L354.794 629.63L354.794 557.99L354.794 557.99L269.09 557.99z" /></clipPath><clipPath id="100"><path d="M269.09 629.63L354.794 629.63L354.794 629.63L354.794 557.99L354.794 557.99L269.09 557.99z" /></clipPath><clipPath id="101"><path d="M355.28 629.64L499.42 629.64L499.42 629.64L499.42 558L499.42 558L355.28 558z" /></clipPath><clipPath id="102"><path d="M355.27 629.63L499.41 629.63L499.41 629.63L499.41 557.99L499.41 557.99L355.27 557.99z" /></clipPath><clipPath id="103"><path d="M355.27 629.63L499.41 629.63L499.41 629.63L499.41 557.99L499.41 557.99L355.27 557.99z" /></clipPath><clipPath id="104"><path d="M355.27 629.63L499.41 629.63L499.41 629.63L499.41 557.99L499.41 557.99L355.27 557.99z" /></clipPath><clipPath id="105"><path d="M355.27 629.63L499.41 629.63L499.41 629.63L499.41 557.99L499.41 557.99L355.27 557.99z" /></clipPath><clipPath id="106"><path d="M355.27 629.63L499.41 629.63L499.41 629.63L499.41 557.99L499.41 557.99L355.27 557.99z" /></clipPath><clipPath id="107"><path d="M355.27 629.63L499.41 629.63L499.41 629.63L499.41 557.99L499.41 557.99L355.27 557.99z" /></clipPath><clipPath id="108"><path d="M355.27 629.63L499.41 629.63L499.41 629.63L499.41 557.99L499.41 557.99L355.27 557.99z" /></clipPath><clipPath id="109"><path d="M84.751 660.49L172.831 660.49L172.831 660.49L172.831 630.115L172.831 630.115L84.751 630.115z" /></clipPath><clipPath id="110"><path d="M84.744 660.5L172.824 660.5L172.824 660.5L172.824 630.116L172.824 630.116L84.744 630.116z" /></clipPath><clipPath id="111"><path d="M84.744 660.5L172.824 660.5L172.824 660.5L172.824 630.116L172.824 630.116L84.744 630.116z" /></clipPath><clipPath id="112"><path d="M173.31 660.49L220.485 660.49L220.485 660.49L220.485 630.115L220.485 630.115L173.31 630.115z" /></clipPath><clipPath id="113"><path d="M173.3 660.5L220.484 660.5L220.484 660.5L220.484 630.116L220.484 630.116L173.3 630.116z" /></clipPath><clipPath id="114"><path d="M173.3 660.5L220.484 660.5L220.484 660.5L220.484 630.116L220.484 630.116L173.3 630.116z" /></clipPath><clipPath id="115"><path d="M220.97 660.49L268.61 660.49L268.61 660.49L268.61 630.115L268.61 630.115L220.97 630.115z" /></clipPath><clipPath id="116"><path d="M220.97 660.5L268.61 660.5L268.61 660.5L268.61 630.116L268.61 630.116L220.97 630.116z" /></clipPath><clipPath id="117"><path d="M220.97 660.5L268.61 660.5L268.61 660.5L268.61 630.116L268.61 630.116L220.97 630.116z" /></clipPath><clipPath id="118"><path d="M269.09 660.49L354.8 660.49L354.8 660.49L354.8 630.115L354.8 630.115L269.09 630.115z" /></clipPath><clipPath id="119"><path d="M269.09 660.5L354.794 660.5L354.794 660.5L354.794 630.116L354.794 630.116L269.09 630.116z" /></clipPath><clipPath id="120"><path d="M269.09 660.5L354.794 660.5L354.794 660.5L354.794 630.116L354.794 630.116L269.09 630.116z" /></clipPath><clipPath id="121"><path d="M355.28 660.49L499.42 660.49L499.42 660.49L499.42 630.115L499.42 630.115L355.28 630.115z" /></clipPath><clipPath id="122"><path d="M355.27 660.5L499.41 660.5L499.41 660.5L499.41 630.116L499.41 630.116L355.27 630.116z" /></clipPath><clipPath id="123"><path d="M355.27 660.5L499.41 660.5L499.41 660.5L499.41 630.116L499.41 630.116L355.27 630.116z" /></clipPath><clipPath id="124"><path d="M84.751 691.45L172.831 691.45L172.831 691.45L172.831 660.97L172.831 660.97L84.751 660.97z" /></clipPath><clipPath id="125"><path d="M84.744 691.46L172.824 691.46L172.824 691.46L172.824 660.98L172.824 660.98L84.744 660.98z" /></clipPath><clipPath id="126"><path d="M84.744 691.46L172.824 691.46L172.824 691.46L172.824 660.98L172.824 660.98L84.744 660.98z" /></clipPath><clipPath id="127"><path d="M173.31 691.45L220.485 691.45L220.485 691.45L220.485 660.97L220.485 660.97L173.31 660.97z" /></clipPath><clipPath id="128"><path d="M173.3 691.46L220.484 691.46L220.484 691.46L220.484 660.98L220.484 660.98L173.3 660.98z" /></clipPath><clipPath id="129"><path d="M173.3 691.46L220.484 691.46L220.484 691.46L220.484 660.98L220.484 660.98L173.3 660.98z" /></clipPath><clipPath id="130"><path d="M220.97 691.45L268.61 691.45L268.61 691.45L268.61 660.97L268.61 660.97L220.97 660.97z" /></clipPath><clipPath id="131"><path d="M220.97 691.46L268.61 691.46L268.61 691.46L268.61 660.98L268.61 660.98L220.97 660.98z" /></clipPath><clipPath id="132"><path d="M220.97 691.46L268.61 691.46L268.61 691.46L268.61 660.98L268.61 660.98L220.97 660.98z" /></clipPath><clipPath id="133"><path d="M269.09 691.45L354.8 691.45L354.8 691.45L354.8 660.97L354.8 660.97L269.09 660.97z" /></clipPath><clipPath id="134"><path d="M269.09 691.46L354.794 691.46L354.794 691.46L354.794 660.98L354.794 660.98L269.09 660.98z" /></clipPath><clipPath id="135"><path d="M269.09 691.46L354.794 691.46L354.794 691.46L354.794 660.98L354.794 660.98L269.09 660.98z" /></clipPath><clipPath id="136"><path d="M355.28 691.45L499.42 691.45L499.42 691.45L499.42 660.97L499.42 660.97L355.28 660.97z" /></clipPath><clipPath id="137"><path d="M355.27 691.46L499.41 691.46L499.41 691.46L499.41 660.98L499.41 660.98L355.27 660.98z" /></clipPath><clipPath id="138"><path d="M355.27 691.46L499.41 691.46L499.41 691.46L499.41 660.98L499.41 660.98L355.27 660.98z" /></clipPath></defs><g transform="matrix(1.333333 0 0 1.333333 0 0)"><g><g clip-path="url(#1)"><path transform="matrix(1 0 0 -1 0 841)" d="M457.51 53.304L505.534 53.304L505.534 53.304L505.534 53.90404L505.534 53.90404L457.51 53.90404z" stroke="none" fill="#000000" fill-rule="evenodd" /><g clip-path="url(#2)"><path transform="matrix(1 0 0 -1 0 841)" d="M88.464 77.904L506.974 77.904L506.974 77.904L506.974 80.904L506.974 80.904L88.464 80.904z" stroke="none" fill="#000000" fill-rule="evenodd" /><path transform="matrix(1 0 0 -1 0 841)" d="M88.464 76.464L506.974 76.464L506.974 76.464L506.974 77.18397L506.974 77.18397L88.464 77.18397z" stroke="none" fill="#000000" fill-rule="evenodd" /></g><g clip-path="url(#3)"><g clip-path="url(#4)"></g><g clip-path="url(#5)"></g></g><path transform="matrix(1 0 0 -1 0 841)" d="M84.744 420.91L172.824 420.91L172.824 420.91L172.824 445.99L172.824 445.99L84.744 445.99z" stroke="none" fill="#0070C0" fill-rule="evenodd" /><g clip-path="url(#6)"><path transform="matrix(1 0 0 -1 0 841)" d="M89.904 420.91L167.664 420.91L167.664 420.91L167.664 445.99L167.664 445.99L89.904 445.99z" stroke="none" fill="#0070C0" fill-rule="evenodd" /><g clip-path="url(#7)"></g><g clip-path="url(#8)"></g></g><path transform="matrix(1 0 0 -1 0 841)" d="M173.3 420.91L220.484 420.91L220.484 420.91L220.484 445.99L220.484 445.99L173.3 445.99z" stroke="none" fill="#0070C0" fill-rule="evenodd" /><g clip-path="url(#9)"><path transform="matrix(1 0 0 -1 0 841)" d="M178.46 420.91L215.324 420.91L215.324 420.91L215.324 445.99L215.324 445.99L178.46 445.99z" stroke="none" fill="#0070C0" fill-rule="evenodd" /><g clip-path="url(#10)"></g><g clip-path="url(#11)"></g></g><path transform="matrix(1 0 0 -1 0 841)" d="M220.97 420.91L268.61 420.91L268.61 420.91L268.61 445.99L268.61 445.99L220.97 445.99z" stroke="none" fill="#0070C0" fill-rule="evenodd" /><g clip-path="url(#12)"><path transform="matrix(1 0 0 -1 0 841)" d="M226.13 420.91L263.45 420.91L263.45 420.91L263.45 445.99L263.45 445.99L226.13 445.99z" stroke="none" fill="#0070C0" fill-rule="evenodd" /><g clip-path="url(#13)"></g><g clip-path="url(#14)"></g></g><path transform="matrix(1 0 0 -1 0 841)" d="M269.09 420.91L354.794 420.91L354.794 420.91L354.794 445.99L354.794 445.99L269.09 445.99z" stroke="none" fill="#0070C0" fill-rule="evenodd" /><g clip-path="url(#15)"><path transform="matrix(1 0 0 -1 0 841)" d="M274.25 420.91L349.634 420.91L349.634 420.91L349.634 445.99L349.634 445.99L274.25 445.99z" stroke="none" fill="#0070C0" fill-rule="evenodd" /><g clip-path="url(#16)"></g><g clip-path="url(#17)"></g></g><path transform="matrix(1 0 0 -1 0 841)" d="M355.27 420.91L499.41 420.91L499.41 420.91L499.41 445.99L499.41 445.99L355.27 445.99z" stroke="none" fill="#0070C0" fill-rule="evenodd" /><g clip-path="url(#18)"><path transform="matrix(1 0 0 -1 0 841)" d="M360.43 420.91L494.25 420.91L494.25 420.91L494.25 445.99L494.25 445.99L360.43 445.99z" stroke="none" fill="#0070C0" fill-rule="evenodd" /><g clip-path="url(#19)"></g><g clip-path="url(#20)"></g></g><path transform="matrix(1 0 0 -1 0 841)" d="M84.264 445.99L84.744 445.99L84.744 445.99L84.744 446.47L84.744 446.47L84.264 446.47z" stroke="none" fill="#000000" fill-rule="evenodd" /><path transform="matrix(1 0 0 -1 0 841)" d="M84.264 445.99L84.744 445.99L84.744 445.99L84.744 446.47L84.744 446.47L84.264 446.47z" stroke="none" fill="#000000" fill-rule="evenodd" /><path transform="matrix(1 0 0 -1 0 841)" d="M84.744 445.99L172.824 445.99L172.824 445.99L172.824 446.47L172.824 446.47L84.744 446.47z" stroke="none" fill="#000000" fill-rule="evenodd" /><path transform="matrix(1 0 0 -1 0 841)" d="M172.82 445.99L173.3 445.99L173.3 445.99L173.3 446.47L173.3 446.47L172.82 446.47z" stroke="none" fill="#000000" fill-rule="evenodd" /><path transform="matrix(1 0 0 -1 0 841)" d="M173.3 445.99L220.484 445.99L220.484 445.99L220.484 446.47L220.484 446.47L173.3 446.47z" stroke="none" fill="#000000" fill-rule="evenodd" /><path transform="matrix(1 0 0 -1 0 841)" d="M220.49 445.99L220.97 445.99L220.97 445.99L220.97 446.47L220.97 446.47L220.49 446.47z" stroke="none" fill="#000000" fill-rule="evenodd" /><path transform="matrix(1 0 0 -1 0 841)" d="M220.97 445.99L268.61 445.99L268.61 445.99L268.61 446.47L268.61 446.47L220.97 446.47z" stroke="none" fill="#000000" fill-rule="evenodd" /><path transform="matrix(1 0 0 -1 0 841)" d="M268.61 445.99L269.09 445.99L269.09 445.99L269.09 446.47L269.09 446.47L268.61 446.47z" stroke="none" fill="#000000" fill-rule="evenodd" /><path transform="matrix(1 0 0 -1 0 841)" d="M269.09 445.99L354.914 445.99L354.914 445.99L354.914 446.47L354.914 446.47L269.09 446.47z" stroke="none" fill="#000000" fill-rule="evenodd" /><path transform="matrix(1 0 0 -1 0 841)" d="M354.91 445.99L355.39 445.99L355.39 445.99L355.39 446.47L355.39 446.47L354.91 446.47z" stroke="none" fill="#000000" fill-rule="evenodd" /><path transform="matrix(1 0 0 -1 0 841)" d="M355.39 445.99L499.41 445.99L499.41 445.99L499.41 446.47L499.41 446.47L355.39 446.47z" stroke="none" fill="#000000" fill-rule="evenodd" /><path transform="matrix(1 0 0 -1 0 841)" d="M499.42 445.99L499.9 445.99L499.9 445.99L499.9 446.47L499.9 446.47L499.42 446.47z" stroke="none" fill="#000000" fill-rule="evenodd" /><path transform="matrix(1 0 0 -1 0 841)" d="M499.42 445.99L499.9 445.99L499.9 445.99L499.9 446.47L499.9 446.47L499.42 446.47z" stroke="none" fill="#000000" fill-rule="evenodd" /><path transform="matrix(1 0 0 -1 0 841)" d="M84.264 420.91L84.744 420.91L84.744 420.91L84.744 445.99L84.744 445.99L84.264 445.99z" stroke="none" fill="#000000" fill-rule="evenodd" /><path transform="matrix(1 0 0 -1 0 841)" d="M172.82 420.91L173.3 420.91L173.3 420.91L173.3 445.99L173.3 445.99L172.82 445.99z" stroke="none" fill="#000000" fill-rule="evenodd" /><path transform="matrix(1 0 0 -1 0 841)" d="M220.49 420.91L220.97 420.91L220.97 420.91L220.97 445.99L220.97 445.99L220.49 445.99z" stroke="none" fill="#000000" fill-rule="evenodd" /><path transform="matrix(1 0 0 -1 0 841)" d="M268.61 420.91L269.09 420.91L269.09 420.91L269.09 445.99L269.09 445.99L268.61 445.99z" stroke="none" fill="#000000" fill-rule="evenodd" /><path transform="matrix(1 0 0 -1 0 841)" d="M354.91 420.91L355.39 420.91L355.39 420.91L355.39 445.99L355.39 445.99L354.91 445.99z" stroke="none" fill="#000000" fill-rule="evenodd" /><path transform="matrix(1 0 0 -1 0 841)" d="M499.42 420.91L499.9 420.91L499.9 420.91L499.9 445.99L499.9 445.99L499.42 445.99z" stroke="none" fill="#000000" fill-rule="evenodd" /><path transform="matrix(1 0 0 -1 0 841)" d="M84.744 389.95L172.824 389.95L172.824 389.95L172.824 420.43L172.824 420.43L84.744 420.43z" stroke="none" fill="#DAEEF3" fill-rule="evenodd" /><g clip-path="url(#21)"><path transform="matrix(1 0 0 -1 0 841)" d="M89.904 396.19L167.664 396.19L167.664 396.19L167.664 420.43L167.664 420.43L89.904 420.43z" stroke="none" fill="#DAEEF3" fill-rule="evenodd" /><g clip-path="url(#22)"></g><g clip-path="url(#23)"></g><g clip-path="url(#24)"></g></g><path transform="matrix(1 0 0 -1 0 841)" d="M173.3 389.95L220.484 389.95L220.484 389.95L220.484 420.43L220.484 420.43L173.3 420.43z" stroke="none" fill="#DAEEF3" fill-rule="evenodd" /><g clip-path="url(#25)"><path transform="matrix(1 0 0 -1 0 841)" d="M178.46 396.19L215.324 396.19L215.324 396.19L215.324 420.43L215.324 420.43L178.46 420.43z" stroke="none" fill="#DAEEF3" fill-rule="evenodd" /><g clip-path="url(#26)"></g><g clip-path="url(#27)"></g></g><path transform="matrix(1 0 0 -1 0 841)" d="M220.97 389.95L268.61 389.95L268.61 389.95L268.61 420.43L268.61 420.43L220.97 420.43z" stroke="none" fill="#DAEEF3" fill-rule="evenodd" /><g clip-path="url(#28)"><path transform="matrix(1 0 0 -1 0 841)" d="M226.13 395.35L263.45 395.35L263.45 395.35L263.45 420.43L263.45 420.43L226.13 420.43z" stroke="none" fill="#DAEEF3" fill-rule="evenodd" /><g clip-path="url(#29)"></g><g clip-path="url(#30)"></g></g><path transform="matrix(1 0 0 -1 0 841)" d="M269.09 389.95L354.794 389.95L354.794 389.95L354.794 420.43L354.794 420.43L269.09 420.43z" stroke="none" fill="#DAEEF3" fill-rule="evenodd" /><g clip-path="url(#31)"><path transform="matrix(1 0 0 -1 0 841)" d="M274.25 396.19L349.634 396.19L349.634 396.19L349.634 420.43L349.634 420.43L274.25 420.43z" stroke="none" fill="#DAEEF3" fill-rule="evenodd" /><g clip-path="url(#32)"></g><g clip-path="url(#33)"></g></g><path transform="matrix(1 0 0 -1 0 841)" d="M355.27 389.95L499.41 389.95L499.41 389.95L499.41 420.43L499.41 420.43L355.27 420.43z" stroke="none" fill="#DAEEF3" fill-rule="evenodd" /><g clip-path="url(#34)"><path transform="matrix(1 0 0 -1 0 841)" d="M360.43 389.95L494.25 389.95L494.25 389.95L494.25 420.43L494.25 420.43L360.43 420.43z" stroke="none" fill="#DAEEF3" fill-rule="evenodd" /><g clip-path="url(#35)"></g><g clip-path="url(#36)"></g><g clip-path="url(#37)"></g><g clip-path="url(#38)"></g></g><path transform="matrix(1 0 0 -1 0 841)" d="M84.264 420.43L84.744 420.43L84.744 420.43L84.744 420.91L84.744 420.91L84.264 420.91z" stroke="none" fill="#000000" fill-rule="evenodd" /><path transform="matrix(1 0 0 -1 0 841)" d="M84.744 420.43L172.824 420.43L172.824 420.43L172.824 420.91L172.824 420.91L84.744 420.91z" stroke="none" fill="#000000" fill-rule="evenodd" /><path transform="matrix(1 0 0 -1 0 841)" d="M172.82 420.43L173.3 420.43L173.3 420.43L173.3 420.91L173.3 420.91L172.82 420.91z" stroke="none" fill="#000000" fill-rule="evenodd" /><path transform="matrix(1 0 0 -1 0 841)" d="M173.3 420.43L220.484 420.43L220.484 420.43L220.484 420.91L220.484 420.91L173.3 420.91z" stroke="none" fill="#000000" fill-rule="evenodd" /><path transform="matrix(1 0 0 -1 0 841)" d="M220.49 420.43L220.97 420.43L220.97 420.43L220.97 420.91L220.97 420.91L220.49 420.91z" stroke="none" fill="#000000" fill-rule="evenodd" /><path transform="matrix(1 0 0 -1 0 841)" d="M220.97 420.43L268.61 420.43L268.61 420.43L268.61 420.91L268.61 420.91L220.97 420.91z" stroke="none" fill="#000000" fill-rule="evenodd" /><path transform="matrix(1 0 0 -1 0 841)" d="M268.61 420.43L269.09 420.43L269.09 420.43L269.09 420.91L269.09 420.91L268.61 420.91z" stroke="none" fill="#000000" fill-rule="evenodd" /><path transform="matrix(1 0 0 -1 0 841)" d="M269.09 420.43L354.914 420.43L354.914 420.43L354.914 420.91L354.914 420.91L269.09 420.91z" stroke="none" fill="#000000" fill-rule="evenodd" /><path transform="matrix(1 0 0 -1 0 841)" d="M354.91 420.43L355.39 420.43L355.39 420.43L355.39 420.91L355.39 420.91L354.91 420.91z" stroke="none" fill="#000000" fill-rule="evenodd" /><path transform="matrix(1 0 0 -1 0 841)" d="M355.39 420.43L499.41 420.43L499.41 420.43L499.41 420.91L499.41 420.91L355.39 420.91z" stroke="none" fill="#000000" fill-rule="evenodd" /><path transform="matrix(1 0 0 -1 0 841)" d="M499.42 420.43L499.9 420.43L499.9 420.43L499.9 420.91L499.9 420.91L499.42 420.91z" stroke="none" fill="#000000" fill-rule="evenodd" /><path transform="matrix(1 0 0 -1 0 841)" d="M84.264 389.95L84.744 389.95L84.744 389.95L84.744 420.43L84.744 420.43L84.264 420.43z" stroke="none" fill="#000000" fill-rule="evenodd" /><path transform="matrix(1 0 0 -1 0 841)" d="M172.82 389.95L173.3 389.95L173.3 389.95L173.3 420.43L173.3 420.43L172.82 420.43z" stroke="none" fill="#000000" fill-rule="evenodd" /><path transform="matrix(1 0 0 -1 0 841)" d="M220.49 389.95L220.97 389.95L220.97 389.95L220.97 420.43L220.97 420.43L220.49 420.43z" stroke="none" fill="#000000" fill-rule="evenodd" /><path transform="matrix(1 0 0 -1 0 841)" d="M268.61 389.95L269.09 389.95L269.09 389.95L269.09 420.43L269.09 420.43L268.61 420.43z" stroke="none" fill="#000000" fill-rule="evenodd" /><path transform="matrix(1 0 0 -1 0 841)" d="M354.91 389.95L355.39 389.95L355.39 389.95L355.39 420.43L355.39 420.43L354.91 420.43z" stroke="none" fill="#000000" fill-rule="evenodd" /><path transform="matrix(1 0 0 -1 0 841)" d="M499.42 389.95L499.9 389.95L499.9 389.95L499.9 420.43L499.9 420.43L499.42 420.43z" stroke="none" fill="#000000" fill-rule="evenodd" /><g clip-path="url(#39)"><g clip-path="url(#40)"></g><g clip-path="url(#41)"></g></g><g clip-path="url(#42)"><g clip-path="url(#43)"></g><g clip-path="url(#44)"></g></g><g clip-path="url(#45)"><g clip-path="url(#46)"></g><g clip-path="url(#47)"></g></g><g clip-path="url(#48)"><g clip-path="url(#49)"></g><g clip-path="url(#50)"></g></g><g clip-path="url(#51)"><g clip-path="url(#52)"></g><g clip-path="url(#53)"></g><g clip-path="url(#54)"></g><g clip-path="url(#55)"></g></g><path transform="matrix(1 0 0 -1 0 841)" d="M84.264 389.47L84.744 389.47L84.744 389.47L84.744 389.95L84.744 389.95L84.264 389.95z" stroke="none" fill="#000000" fill-rule="evenodd" /><path transform="matrix(1 0 0 -1 0 841)" d="M84.744 389.47L172.824 389.47L172.824 389.47L172.824 389.95L172.824 389.95L84.744 389.95z" stroke="none" fill="#000000" fill-rule="evenodd" /><path transform="matrix(1 0 0 -1 0 841)" d="M172.82 389.47L173.3 389.47L173.3 389.47L173.3 389.95L173.3 389.95L172.82 389.95z" stroke="none" fill="#000000" fill-rule="evenodd" /><path transform="matrix(1 0 0 -1 0 841)" d="M173.3 389.47L220.484 389.47L220.484 389.47L220.484 389.95L220.484 389.95L173.3 389.95z" stroke="none" fill="#000000" fill-rule="evenodd" /><path transform="matrix(1 0 0 -1 0 841)" d="M220.49 389.47L220.97 389.47L220.97 389.47L220.97 389.95L220.97 389.95L220.49 389.95z" stroke="none" fill="#000000" fill-rule="evenodd" /><path transform="matrix(1 0 0 -1 0 841)" d="M220.97 389.47L268.61 389.47L268.61 389.47L268.61 389.95L268.61 389.95L220.97 389.95z" stroke="none" fill="#000000" fill-rule="evenodd" /><path transform="matrix(1 0 0 -1 0 841)" d="M268.61 389.47L269.09 389.47L269.09 389.47L269.09 389.95L269.09 389.95L268.61 389.95z" stroke="none" fill="#000000" fill-rule="evenodd" /><path transform="matrix(1 0 0 -1 0 841)" d="M269.09 389.47L354.914 389.47L354.914 389.47L354.914 389.95L354.914 389.95L269.09 389.95z" stroke="none" fill="#000000" fill-rule="evenodd" /><path transform="matrix(1 0 0 -1 0 841)" d="M354.91 389.47L355.39 389.47L355.39 389.47L355.39 389.95L355.39 389.95L354.91 389.95z" stroke="none" fill="#000000" fill-rule="evenodd" /><path transform="matrix(1 0 0 -1 0 841)" d="M355.39 389.47L499.41 389.47L499.41 389.47L499.41 389.95L499.41 389.95L355.39 389.95z" stroke="none" fill="#000000" fill-rule="evenodd" /><path transform="matrix(1 0 0 -1 0 841)" d="M499.42 389.47L499.9 389.47L499.9 389.47L499.9 389.95L499.9 389.95L499.42 389.95z" stroke="none" fill="#000000" fill-rule="evenodd" /><path transform="matrix(1 0 0 -1 0 841)" d="M84.264 359.09L84.744 359.09L84.744 359.09L84.744 389.474L84.744 389.474L84.264 389.474z" stroke="none" fill="#000000" fill-rule="evenodd" /><path transform="matrix(1 0 0 -1 0 841)" d="M172.82 359.09L173.3 359.09L173.3 359.09L173.3 389.474L173.3 389.474L172.82 389.474z" stroke="none" fill="#000000" fill-rule="evenodd" /><path transform="matrix(1 0 0 -1 0 841)" d="M220.49 359.09L220.97 359.09L220.97 359.09L220.97 389.474L220.97 389.474L220.49 389.474z" stroke="none" fill="#000000" fill-rule="evenodd" /><path transform="matrix(1 0 0 -1 0 841)" d="M268.61 359.09L269.09 359.09L269.09 359.09L269.09 389.474L269.09 389.474L268.61 389.474z" stroke="none" fill="#000000" fill-rule="evenodd" /><path transform="matrix(1 0 0 -1 0 841)" d="M354.91 359.09L355.39 359.09L355.39 359.09L355.39 389.474L355.39 389.474L354.91 389.474z" stroke="none" fill="#000000" fill-rule="evenodd" /><path transform="matrix(1 0 0 -1 0 841)" d="M499.42 359.09L499.9 359.09L499.9 359.09L499.9 389.474L499.9 389.474L499.42 389.474z" stroke="none" fill="#000000" fill-rule="evenodd" /><path transform="matrix(1 0 0 -1 0 841)" d="M84.744 328.13L172.824 328.13L172.824 328.13L172.824 358.61L172.824 358.61L84.744 358.61z" stroke="none" fill="#DAEEF3" fill-rule="evenodd" /><g clip-path="url(#56)"><path transform="matrix(1 0 0 -1 0 841)" d="M89.904 334.37L167.664 334.37L167.664 334.37L167.664 358.61L167.664 358.61L89.904 358.61z" stroke="none" fill="#DAEEF3" fill-rule="evenodd" /><g clip-path="url(#57)"></g><g clip-path="url(#58)"></g></g><path transform="matrix(1 0 0 -1 0 841)" d="M173.3 328.13L220.484 328.13L220.484 328.13L220.484 358.61L220.484 358.61L173.3 358.61z" stroke="none" fill="#DAEEF3" fill-rule="evenodd" /><g clip-path="url(#59)"><path transform="matrix(1 0 0 -1 0 841)" d="M178.46 334.37L215.324 334.37L215.324 334.37L215.324 358.61L215.324 358.61L178.46 358.61z" stroke="none" fill="#DAEEF3" fill-rule="evenodd" /><g clip-path="url(#60)"></g><g clip-path="url(#61)"></g></g><path transform="matrix(1 0 0 -1 0 841)" d="M220.97 328.13L268.61 328.13L268.61 328.13L268.61 358.61L268.61 358.61L220.97 358.61z" stroke="none" fill="#DAEEF3" fill-rule="evenodd" /><g clip-path="url(#62)"><path transform="matrix(1 0 0 -1 0 841)" d="M226.13 333.53L263.45 333.53L263.45 333.53L263.45 358.61L263.45 358.61L226.13 358.61z" stroke="none" fill="#DAEEF3" fill-rule="evenodd" /><g clip-path="url(#63)"></g><g clip-path="url(#64)"></g></g><path transform="matrix(1 0 0 -1 0 841)" d="M269.09 328.13L354.794 328.13L354.794 328.13L354.794 358.61L354.794 358.61L269.09 358.61z" stroke="none" fill="#DAEEF3" fill-rule="evenodd" /><g clip-path="url(#65)"><path transform="matrix(1 0 0 -1 0 841)" d="M274.25 334.37L349.634 334.37L349.634 334.37L349.634 358.61L349.634 358.61L274.25 358.61z" stroke="none" fill="#DAEEF3" fill-rule="evenodd" /><g clip-path="url(#66)"></g><g clip-path="url(#67)"></g></g><path transform="matrix(1 0 0 -1 0 841)" d="M355.27 328.13L499.41 328.13L499.41 328.13L499.41 358.61L499.41 358.61L355.27 358.61z" stroke="none" fill="#DAEEF3" fill-rule="evenodd" /><g clip-path="url(#68)"><path transform="matrix(1 0 0 -1 0 841)" d="M360.43 328.13L494.25 328.13L494.25 328.13L494.25 358.61L494.25 358.61L360.43 358.61z" stroke="none" fill="#DAEEF3" fill-rule="evenodd" /><g clip-path="url(#69)"></g><g clip-path="url(#70)"></g><g clip-path="url(#71)"></g><g clip-path="url(#72)"></g></g><path transform="matrix(1 0 0 -1 0 841)" d="M84.264 358.61L84.744 358.61L84.744 358.61L84.744 359.09L84.744 359.09L84.264 359.09z" stroke="none" fill="#000000" fill-rule="evenodd" /><path transform="matrix(1 0 0 -1 0 841)" d="M84.744 358.61L172.824 358.61L172.824 358.61L172.824 359.09L172.824 359.09L84.744 359.09z" stroke="none" fill="#000000" fill-rule="evenodd" /><path transform="matrix(1 0 0 -1 0 841)" d="M172.82 358.61L173.3 358.61L173.3 358.61L173.3 359.09L173.3 359.09L172.82 359.09z" stroke="none" fill="#000000" fill-rule="evenodd" /><path transform="matrix(1 0 0 -1 0 841)" d="M173.3 358.61L220.484 358.61L220.484 358.61L220.484 359.09L220.484 359.09L173.3 359.09z" stroke="none" fill="#000000" fill-rule="evenodd" /><path transform="matrix(1 0 0 -1 0 841)" d="M220.49 358.61L220.97 358.61L220.97 358.61L220.97 359.09L220.97 359.09L220.49 359.09z" stroke="none" fill="#000000" fill-rule="evenodd" /><path transform="matrix(1 0 0 -1 0 841)" d="M220.97 358.61L268.61 358.61L268.61 358.61L268.61 359.09L268.61 359.09L220.97 359.09z" stroke="none" fill="#000000" fill-rule="evenodd" /><path transform="matrix(1 0 0 -1 0 841)" d="M268.61 358.61L269.09 358.61L269.09 358.61L269.09 359.09L269.09 359.09L268.61 359.09z" stroke="none" fill="#000000" fill-rule="evenodd" /><path transform="matrix(1 0 0 -1 0 841)" d="M269.09 358.61L354.914 358.61L354.914 358.61L354.914 359.09L354.914 359.09L269.09 359.09z" stroke="none" fill="#000000" fill-rule="evenodd" /><path transform="matrix(1 0 0 -1 0 841)" d="M354.91 358.61L355.39 358.61L355.39 358.61L355.39 359.09L355.39 359.09L354.91 359.09z" stroke="none" fill="#000000" fill-rule="evenodd" /><path transform="matrix(1 0 0 -1 0 841)" d="M355.39 358.61L499.41 358.61L499.41 358.61L499.41 359.09L499.41 359.09L355.39 359.09z" stroke="none" fill="#000000" fill-rule="evenodd" /><path transform="matrix(1 0 0 -1 0 841)" d="M499.42 358.61L499.9 358.61L499.9 358.61L499.9 359.09L499.9 359.09L499.42 359.09z" stroke="none" fill="#000000" fill-rule="evenodd" /><path transform="matrix(1 0 0 -1 0 841)" d="M84.264 328.13L84.744 328.13L84.744 328.13L84.744 358.61L84.744 358.61L84.264 358.61z" stroke="none" fill="#000000" fill-rule="evenodd" /><path transform="matrix(1 0 0 -1 0 841)" d="M172.82 328.13L173.3 328.13L173.3 328.13L173.3 358.61L173.3 358.61L172.82 358.61z" stroke="none" fill="#000000" fill-rule="evenodd" /><path transform="matrix(1 0 0 -1 0 841)" d="M220.49 328.13L220.97 328.13L220.97 328.13L220.97 358.61L220.97 358.61L220.49 358.61z" stroke="none" fill="#000000" fill-rule="evenodd" /><path transform="matrix(1 0 0 -1 0 841)" d="M268.61 328.13L269.09 328.13L269.09 328.13L269.09 358.61L269.09 358.61L268.61 358.61z" stroke="none" fill="#000000" fill-rule="evenodd" /><path transform="matrix(1 0 0 -1 0 841)" d="M354.91 328.13L355.39 328.13L355.39 328.13L355.39 358.61L355.39 358.61L354.91 358.61z" stroke="none" fill="#000000" fill-rule="evenodd" /><path transform="matrix(1 0 0 -1 0 841)" d="M499.42 328.13L499.9 328.13L499.9 328.13L499.9 358.61L499.9 358.61L499.42 358.61z" stroke="none" fill="#000000" fill-rule="evenodd" /><g clip-path="url(#73)"><g clip-path="url(#74)"></g><g clip-path="url(#75)"></g></g><g clip-path="url(#76)"><g clip-path="url(#77)"></g><g clip-path="url(#78)"></g></g><g clip-path="url(#79)"><g clip-path="url(#80)"></g><g clip-path="url(#81)"></g></g><g clip-path="url(#82)"><g clip-path="url(#83)"></g></g><g clip-path="url(#84)"><g clip-path="url(#85)"></g><g clip-path="url(#86)"></g><g clip-path="url(#87)"></g><g clip-path="url(#88)"></g></g><path transform="matrix(1 0 0 -1 0 841)" d="M84.264 327.65L84.744 327.65L84.744 327.65L84.744 328.13L84.744 328.13L84.264 328.13z" stroke="none" fill="#000000" fill-rule="evenodd" /><path transform="matrix(1 0 0 -1 0 841)" d="M84.744 327.65L172.824 327.65L172.824 327.65L172.824 328.13L172.824 328.13L84.744 328.13z" stroke="none" fill="#000000" fill-rule="evenodd" /><path transform="matrix(1 0 0 -1 0 841)" d="M172.82 327.65L173.3 327.65L173.3 327.65L173.3 328.13L173.3 328.13L172.82 328.13z" stroke="none" fill="#000000" fill-rule="evenodd" /><path transform="matrix(1 0 0 -1 0 841)" d="M173.3 327.65L220.484 327.65L220.484 327.65L220.484 328.13L220.484 328.13L173.3 328.13z" stroke="none" fill="#000000" fill-rule="evenodd" /><path transform="matrix(1 0 0 -1 0 841)" d="M220.49 327.65L220.97 327.65L220.97 327.65L220.97 328.13L220.97 328.13L220.49 328.13z" stroke="none" fill="#000000" fill-rule="evenodd" /><path transform="matrix(1 0 0 -1 0 841)" d="M220.97 327.65L268.61 327.65L268.61 327.65L268.61 328.13L268.61 328.13L220.97 328.13z" stroke="none" fill="#000000" fill-rule="evenodd" /><path transform="matrix(1 0 0 -1 0 841)" d="M268.61 327.65L269.09 327.65L269.09 327.65L269.09 328.13L269.09 328.13L268.61 328.13z" stroke="none" fill="#000000" fill-rule="evenodd" /><path transform="matrix(1 0 0 -1 0 841)" d="M269.09 327.65L354.914 327.65L354.914 327.65L354.914 328.13L354.914 328.13L269.09 328.13z" stroke="none" fill="#000000" fill-rule="evenodd" /><path transform="matrix(1 0 0 -1 0 841)" d="M354.91 327.65L355.39 327.65L355.39 327.65L355.39 328.13L355.39 328.13L354.91 328.13z" stroke="none" fill="#000000" fill-rule="evenodd" /><path transform="matrix(1 0 0 -1 0 841)" d="M355.39 327.65L499.41 327.65L499.41 327.65L499.41 328.13L499.41 328.13L355.39 328.13z" stroke="none" fill="#000000" fill-rule="evenodd" /><path transform="matrix(1 0 0 -1 0 841)" d="M499.42 327.65L499.9 327.65L499.9 327.65L499.9 328.13L499.9 328.13L499.42 328.13z" stroke="none" fill="#000000" fill-rule="evenodd" /><path transform="matrix(1 0 0 -1 0 841)" d="M84.264 283.49L84.744 283.49L84.744 283.49L84.744 327.65L84.744 327.65L84.264 327.65z" stroke="none" fill="#000000" fill-rule="evenodd" /><path transform="matrix(1 0 0 -1 0 841)" d="M172.82 283.49L173.3 283.49L173.3 283.49L173.3 327.65L173.3 327.65L172.82 327.65z" stroke="none" fill="#000000" fill-rule="evenodd" /><path transform="matrix(1 0 0 -1 0 841)" d="M220.49 283.49L220.97 283.49L220.97 283.49L220.97 327.65L220.97 327.65L220.49 327.65z" stroke="none" fill="#000000" fill-rule="evenodd" /><path transform="matrix(1 0 0 -1 0 841)" d="M268.61 283.49L269.09 283.49L269.09 283.49L269.09 327.65L269.09 327.65L268.61 327.65z" stroke="none" fill="#000000" fill-rule="evenodd" /><path transform="matrix(1 0 0 -1 0 841)" d="M354.91 283.49L355.39 283.49L355.39 283.49L355.39 327.65L355.39 327.65L354.91 327.65z" stroke="none" fill="#000000" fill-rule="evenodd" /><path transform="matrix(1 0 0 -1 0 841)" d="M499.42 283.49L499.9 283.49L499.9 283.49L499.9 327.65L499.9 327.65L499.42 327.65z" stroke="none" fill="#000000" fill-rule="evenodd" /><path transform="matrix(1 0 0 -1 0 841)" d="M84.744 211.37L172.824 211.37L172.824 211.37L172.824 283.01L172.824 283.01L84.744 283.01z" stroke="none" fill="#DAEEF3" fill-rule="evenodd" /><g clip-path="url(#89)"><path transform="matrix(1 0 0 -1 0 841)" d="M89.904 258.89L167.664 258.89L167.664 258.89L167.664 283.01L167.664 283.01L89.904 283.01z" stroke="none" fill="#DAEEF3" fill-rule="evenodd" /><g clip-path="url(#90)"></g><g clip-path="url(#91)"></g></g><path transform="matrix(1 0 0 -1 0 841)" d="M173.3 211.37L220.484 211.37L220.484 211.37L220.484 283.01L220.484 283.01L173.3 283.01z" stroke="none" fill="#DAEEF3" fill-rule="evenodd" /><g clip-path="url(#92)"><path transform="matrix(1 0 0 -1 0 841)" d="M178.46 258.89L215.324 258.89L215.324 258.89L215.324 283.01L215.324 283.01L178.46 283.01z" stroke="none" fill="#DAEEF3" fill-rule="evenodd" /><g clip-path="url(#93)"></g><g clip-path="url(#94)"></g></g><path transform="matrix(1 0 0 -1 0 841)" d="M220.97 211.37L268.61 211.37L268.61 211.37L268.61 283.01L268.61 283.01L220.97 283.01z" stroke="none" fill="#DAEEF3" fill-rule="evenodd" /><g clip-path="url(#95)"><path transform="matrix(1 0 0 -1 0 841)" d="M226.13 257.93L263.45 257.93L263.45 257.93L263.45 283.01L263.45 283.01L226.13 283.01z" stroke="none" fill="#DAEEF3" fill-rule="evenodd" /><g clip-path="url(#96)"></g><g clip-path="url(#97)"></g></g><path transform="matrix(1 0 0 -1 0 841)" d="M269.09 211.37L354.794 211.37L354.794 211.37L354.794 283.01L354.794 283.01L269.09 283.01z" stroke="none" fill="#DAEEF3" fill-rule="evenodd" /><g clip-path="url(#98)"><path transform="matrix(1 0 0 -1 0 841)" d="M274.25 258.89L349.634 258.89L349.634 258.89L349.634 283.01L349.634 283.01L274.25 283.01z" stroke="none" fill="#DAEEF3" fill-rule="evenodd" /><g clip-path="url(#99)"></g><g clip-path="url(#100)"></g></g><path transform="matrix(1 0 0 -1 0 841)" d="M355.27 211.37L499.41 211.37L499.41 211.37L499.41 283.01L499.41 283.01L355.27 283.01z" stroke="none" fill="#DAEEF3" fill-rule="evenodd" /><g clip-path="url(#101)"><path transform="matrix(1 0 0 -1 0 841)" d="M360.43 257.33L494.25 257.33L494.25 257.33L494.25 283.01L494.25 283.01L360.43 283.01z" stroke="none" fill="#DAEEF3" fill-rule="evenodd" /><g clip-path="url(#102)"></g><g clip-path="url(#103)"></g><g clip-path="url(#104)"></g><path transform="matrix(1 0 0 -1 0 841)" d="M360.43 231.77L494.25 231.77L494.25 231.77L494.25 257.33L494.25 257.33L360.43 257.33z" stroke="none" fill="#DAEEF3" fill-rule="evenodd" /><g clip-path="url(#105)"></g><g clip-path="url(#106)"></g><path transform="matrix(1 0 0 -1 0 841)" d="M360.43 211.37L494.25 211.37L494.25 211.37L494.25 231.77L494.25 231.77L360.43 231.77z" stroke="none" fill="#DAEEF3" fill-rule="evenodd" /><g clip-path="url(#107)"></g><g clip-path="url(#108)"></g><path transform="matrix(1 0 0 -1 0 841)" d="M362.83 217.49L410.83 217.49L410.83 217.49L410.83 218.09L410.83 218.09L362.83 218.09z" stroke="none" fill="#000000" fill-rule="evenodd" /></g><path transform="matrix(1 0 0 -1 0 841)" d="M84.264 283.01L84.744 283.01L84.744 283.01L84.744 283.49L84.744 283.49L84.264 283.49z" stroke="none" fill="#000000" fill-rule="evenodd" /><path transform="matrix(1 0 0 -1 0 841)" d="M84.744 283.01L172.824 283.01L172.824 283.01L172.824 283.49L172.824 283.49L84.744 283.49z" stroke="none" fill="#000000" fill-rule="evenodd" /><path transform="matrix(1 0 0 -1 0 841)" d="M172.82 283.01L173.3 283.01L173.3 283.01L173.3 283.49L173.3 283.49L172.82 283.49z" stroke="none" fill="#000000" fill-rule="evenodd" /><path transform="matrix(1 0 0 -1 0 841)" d="M173.3 283.01L220.484 283.01L220.484 283.01L220.484 283.49L220.484 283.49L173.3 283.49z" stroke="none" fill="#000000" fill-rule="evenodd" /><path transform="matrix(1 0 0 -1 0 841)" d="M220.49 283.01L220.97 283.01L220.97 283.01L220.97 283.49L220.97 283.49L220.49 283.49z" stroke="none" fill="#000000" fill-rule="evenodd" /><path transform="matrix(1 0 0 -1 0 841)" d="M220.97 283.01L268.61 283.01L268.61 283.01L268.61 283.49L268.61 283.49L220.97 283.49z" stroke="none" fill="#000000" fill-rule="evenodd" /><path transform="matrix(1 0 0 -1 0 841)" d="M268.61 283.01L269.09 283.01L269.09 283.01L269.09 283.49L269.09 283.49L268.61 283.49z" stroke="none" fill="#000000" fill-rule="evenodd" /><path transform="matrix(1 0 0 -1 0 841)" d="M269.09 283.01L354.914 283.01L354.914 283.01L354.914 283.49L354.914 283.49L269.09 283.49z" stroke="none" fill="#000000" fill-rule="evenodd" /><path transform="matrix(1 0 0 -1 0 841)" d="M354.91 283.01L355.39 283.01L355.39 283.01L355.39 283.49L355.39 283.49L354.91 283.49z" stroke="none" fill="#000000" fill-rule="evenodd" /><path transform="matrix(1 0 0 -1 0 841)" d="M355.39 283.01L499.41 283.01L499.41 283.01L499.41 283.49L499.41 283.49L355.39 283.49z" stroke="none" fill="#000000" fill-rule="evenodd" /><path transform="matrix(1 0 0 -1 0 841)" d="M499.42 283.01L499.9 283.01L499.9 283.01L499.9 283.49L499.9 283.49L499.42 283.49z" stroke="none" fill="#000000" fill-rule="evenodd" /><path transform="matrix(1 0 0 -1 0 841)" d="M84.264 211.37L84.744 211.37L84.744 211.37L84.744 283.01L84.744 283.01L84.264 283.01z" stroke="none" fill="#000000" fill-rule="evenodd" /><path transform="matrix(1 0 0 -1 0 841)" d="M172.82 211.37L173.3 211.37L173.3 211.37L173.3 283.01L173.3 283.01L172.82 283.01z" stroke="none" fill="#000000" fill-rule="evenodd" /><path transform="matrix(1 0 0 -1 0 841)" d="M220.49 211.37L220.97 211.37L220.97 211.37L220.97 283.01L220.97 283.01L220.49 283.01z" stroke="none" fill="#000000" fill-rule="evenodd" /><path transform="matrix(1 0 0 -1 0 841)" d="M268.61 211.37L269.09 211.37L269.09 211.37L269.09 283.01L269.09 283.01L268.61 283.01z" stroke="none" fill="#000000" fill-rule="evenodd" /><path transform="matrix(1 0 0 -1 0 841)" d="M354.91 211.37L355.39 211.37L355.39 211.37L355.39 283.01L355.39 283.01L354.91 283.01z" stroke="none" fill="#000000" fill-rule="evenodd" /><path transform="matrix(1 0 0 -1 0 841)" d="M499.42 211.37L499.9 211.37L499.9 211.37L499.9 283.01L499.9 283.01L499.42 283.01z" stroke="none" fill="#000000" fill-rule="evenodd" /><g clip-path="url(#109)"><g clip-path="url(#110)"></g><g clip-path="url(#111)"></g></g><g clip-path="url(#112)"><g clip-path="url(#113)"></g><g clip-path="url(#114)"></g></g><g clip-path="url(#115)"><g clip-path="url(#116)"></g><g clip-path="url(#117)"></g></g><g clip-path="url(#118)"><g clip-path="url(#119)"></g><g clip-path="url(#120)"></g></g><g clip-path="url(#121)"><g clip-path="url(#122)"></g><g clip-path="url(#123)"></g></g><path transform="matrix(1 0 0 -1 0 841)" d="M84.264 210.89L84.744 210.89L84.744 210.89L84.744 211.37L84.744 211.37L84.264 211.37z" stroke="none" fill="#000000" fill-rule="evenodd" /><path transform="matrix(1 0 0 -1 0 841)" d="M84.744 210.89L172.824 210.89L172.824 210.89L172.824 211.37L172.824 211.37L84.744 211.37z" stroke="none" fill="#000000" fill-rule="evenodd" /><path transform="matrix(1 0 0 -1 0 841)" d="M172.82 210.89L173.3 210.89L173.3 210.89L173.3 211.37L173.3 211.37L172.82 211.37z" stroke="none" fill="#000000" fill-rule="evenodd" /><path transform="matrix(1 0 0 -1 0 841)" d="M173.3 210.89L220.484 210.89L220.484 210.89L220.484 211.37L220.484 211.37L173.3 211.37z" stroke="none" fill="#000000" fill-rule="evenodd" /><path transform="matrix(1 0 0 -1 0 841)" d="M220.49 210.89L220.97 210.89L220.97 210.89L220.97 211.37L220.97 211.37L220.49 211.37z" stroke="none" fill="#000000" fill-rule="evenodd" /><path transform="matrix(1 0 0 -1 0 841)" d="M220.97 210.89L268.61 210.89L268.61 210.89L268.61 211.37L268.61 211.37L220.97 211.37z" stroke="none" fill="#000000" fill-rule="evenodd" /><path transform="matrix(1 0 0 -1 0 841)" d="M268.61 210.89L269.09 210.89L269.09 210.89L269.09 211.37L269.09 211.37L268.61 211.37z" stroke="none" fill="#000000" fill-rule="evenodd" /><path transform="matrix(1 0 0 -1 0 841)" d="M269.09 210.89L354.914 210.89L354.914 210.89L354.914 211.37L354.914 211.37L269.09 211.37z" stroke="none" fill="#000000" fill-rule="evenodd" /><path transform="matrix(1 0 0 -1 0 841)" d="M354.91 210.89L355.39 210.89L355.39 210.89L355.39 211.37L355.39 211.37L354.91 211.37z" stroke="none" fill="#000000" fill-rule="evenodd" /><path transform="matrix(1 0 0 -1 0 841)" d="M355.39 210.89L499.41 210.89L499.41 210.89L499.41 211.37L499.41 211.37L355.39 211.37z" stroke="none" fill="#000000" fill-rule="evenodd" /><path transform="matrix(1 0 0 -1 0 841)" d="M499.42 210.89L499.9 210.89L499.9 210.89L499.9 211.37L499.9 211.37L499.42 211.37z" stroke="none" fill="#000000" fill-rule="evenodd" /><path transform="matrix(1 0 0 -1 0 841)" d="M84.264 180.5L84.744 180.5L84.744 180.5L84.744 210.884L84.744 210.884L84.264 210.884z" stroke="none" fill="#000000" fill-rule="evenodd" /><path transform="matrix(1 0 0 -1 0 841)" d="M172.82 180.5L173.3 180.5L173.3 180.5L173.3 210.884L173.3 210.884L172.82 210.884z" stroke="none" fill="#000000" fill-rule="evenodd" /><path transform="matrix(1 0 0 -1 0 841)" d="M220.49 180.5L220.97 180.5L220.97 180.5L220.97 210.884L220.97 210.884L220.49 210.884z" stroke="none" fill="#000000" fill-rule="evenodd" /><path transform="matrix(1 0 0 -1 0 841)" d="M268.61 180.5L269.09 180.5L269.09 180.5L269.09 210.884L269.09 210.884L268.61 210.884z" stroke="none" fill="#000000" fill-rule="evenodd" /><path transform="matrix(1 0 0 -1 0 841)" d="M354.91 180.5L355.39 180.5L355.39 180.5L355.39 210.884L355.39 210.884L354.91 210.884z" stroke="none" fill="#000000" fill-rule="evenodd" /><path transform="matrix(1 0 0 -1 0 841)" d="M499.42 180.5L499.9 180.5L499.9 180.5L499.9 210.884L499.9 210.884L499.42 210.884z" stroke="none" fill="#000000" fill-rule="evenodd" /><path transform="matrix(1 0 0 -1 0 841)" d="M84.744 149.54L172.824 149.54L172.824 149.54L172.824 180.02L172.824 180.02L84.744 180.02z" stroke="none" fill="#DAEEF3" fill-rule="evenodd" /><g clip-path="url(#124)"><path transform="matrix(1 0 0 -1 0 841)" d="M89.904 155.78L167.664 155.78L167.664 155.78L167.664 180.02L167.664 180.02L89.904 180.02z" stroke="none" fill="#DAEEF3" fill-rule="evenodd" /><g clip-path="url(#125)"></g><g clip-path="url(#126)"></g></g><path transform="matrix(1 0 0 -1 0 841)" d="M173.3 149.54L220.484 149.54L220.484 149.54L220.484 180.02L220.484 180.02L173.3 180.02z" stroke="none" fill="#DAEEF3" fill-rule="evenodd" /><g clip-path="url(#127)"><path transform="matrix(1 0 0 -1 0 841)" d="M178.46 155.78L215.324 155.78L215.324 155.78L215.324 180.02L215.324 180.02L178.46 180.02z" stroke="none" fill="#DAEEF3" fill-rule="evenodd" /><g clip-path="url(#128)"></g><g clip-path="url(#129)"></g></g><path transform="matrix(1 0 0 -1 0 841)" d="M220.97 149.54L268.61 149.54L268.61 149.54L268.61 180.02L268.61 180.02L220.97 180.02z" stroke="none" fill="#DAEEF3" fill-rule="evenodd" /><g clip-path="url(#130)"><path transform="matrix(1 0 0 -1 0 841)" d="M226.13 154.94L263.45 154.94L263.45 154.94L263.45 180.02L263.45 180.02L226.13 180.02z" stroke="none" fill="#DAEEF3" fill-rule="evenodd" /><g clip-path="url(#131)"></g><g clip-path="url(#132)"></g></g><path transform="matrix(1 0 0 -1 0 841)" d="M269.09 149.54L354.794 149.54L354.794 149.54L354.794 180.02L354.794 180.02L269.09 180.02z" stroke="none" fill="#DAEEF3" fill-rule="evenodd" /><g clip-path="url(#133)"><path transform="matrix(1 0 0 -1 0 841)" d="M274.25 155.78L349.634 155.78L349.634 155.78L349.634 180.02L349.634 180.02L274.25 180.02z" stroke="none" fill="#DAEEF3" fill-rule="evenodd" /><g clip-path="url(#134)"></g><g clip-path="url(#135)"></g></g><path transform="matrix(1 0 0 -1 0 841)" d="M355.27 149.54L499.41 149.54L499.41 149.54L499.41 180.02L499.41 180.02L355.27 180.02z" stroke="none" fill="#DAEEF3" fill-rule="evenodd" /><g clip-path="url(#136)"><path transform="matrix(1 0 0 -1 0 841)" d="M360.43 149.54L494.25 149.54L494.25 149.54L494.25 180.02L494.25 180.02L360.43 180.02z" stroke="none" fill="#DAEEF3" fill-rule="evenodd" /><g clip-path="url(#137)"></g><g clip-path="url(#138)"></g></g><path transform="matrix(1 0 0 -1 0 841)" d="M84.264 180.02L84.744 180.02L84.744 180.02L84.744 180.5L84.744 180.5L84.264 180.5z" stroke="none" fill="#000000" fill-rule="evenodd" /><path transform="matrix(1 0 0 -1 0 841)" d="M84.744 180.02L172.824 180.02L172.824 180.02L172.824 180.5L172.824 180.5L84.744 180.5z" stroke="none" fill="#000000" fill-rule="evenodd" /><path transform="matrix(1 0 0 -1 0 841)" d="M172.82 180.02L173.3 180.02L173.3 180.02L173.3 180.5L173.3 180.5L172.82 180.5z" stroke="none" fill="#000000" fill-rule="evenodd" /><path transform="matrix(1 0 0 -1 0 841)" d="M173.3 180.02L220.484 180.02L220.484 180.02L220.484 180.5L220.484 180.5L173.3 180.5z" stroke="none" fill="#000000" fill-rule="evenodd" /><path transform="matrix(1 0 0 -1 0 841)" d="M220.49 180.02L220.97 180.02L220.97 180.02L220.97 180.5L220.97 180.5L220.49 180.5z" stroke="none" fill="#000000" fill-rule="evenodd" /><path transform="matrix(1 0 0 -1 0 841)" d="M220.97 180.02L268.61 180.02L268.61 180.02L268.61 180.5L268.61 180.5L220.97 180.5z" stroke="none" fill="#000000" fill-rule="evenodd" /><path transform="matrix(1 0 0 -1 0 841)" d="M268.61 180.02L269.09 180.02L269.09 180.02L269.09 180.5L269.09 180.5L268.61 180.5z" stroke="none" fill="#000000" fill-rule="evenodd" /><path transform="matrix(1 0 0 -1 0 841)" d="M269.09 180.02L354.914 180.02L354.914 180.02L354.914 180.5L354.914 180.5L269.09 180.5z" stroke="none" fill="#000000" fill-rule="evenodd" /><path transform="matrix(1 0 0 -1 0 841)" d="M354.91 180.02L355.39 180.02L355.39 180.02L355.39 180.5L355.39 180.5L354.91 180.5z" stroke="none" fill="#000000" fill-rule="evenodd" /><path transform="matrix(1 0 0 -1 0 841)" d="M355.39 180.02L499.41 180.02L499.41 180.02L499.41 180.5L499.41 180.5L355.39 180.5z" stroke="none" fill="#000000" fill-rule="evenodd" /><path transform="matrix(1 0 0 -1 0 841)" d="M499.42 180.02L499.9 180.02L499.9 180.02L499.9 180.5L499.9 180.5L499.42 180.5z" stroke="none" fill="#000000" fill-rule="evenodd" /><path transform="matrix(1 0 0 -1 0 841)" d="M84.264 149.54L84.744 149.54L84.744 149.54L84.744 180.02L84.744 180.02L84.264 180.02z" stroke="none" fill="#000000" fill-rule="evenodd" /><path transform="matrix(1 0 0 -1 0 841)" d="M84.264 149.06L84.744 149.06L84.744 149.06L84.744 149.54L84.744 149.54L84.264 149.54z" stroke="none" fill="#000000" fill-rule="evenodd" /><path transform="matrix(1 0 0 -1 0 841)" d="M84.264 149.06L84.744 149.06L84.744 149.06L84.744 149.54L84.744 149.54L84.264 149.54z" stroke="none" fill="#000000" fill-rule="evenodd" /><path transform="matrix(1 0 0 -1 0 841)" d="M84.744 149.06L172.824 149.06L172.824 149.06L172.824 149.54L172.824 149.54L84.744 149.54z" stroke="none" fill="#000000" fill-rule="evenodd" /><path transform="matrix(1 0 0 -1 0 841)" d="M172.82 149.54L173.3 149.54L173.3 149.54L173.3 180.02L173.3 180.02L172.82 180.02z" stroke="none" fill="#000000" fill-rule="evenodd" /><path transform="matrix(1 0 0 -1 0 841)" d="M172.82 149.06L173.3 149.06L173.3 149.06L173.3 149.54L173.3 149.54L172.82 149.54z" stroke="none" fill="#000000" fill-rule="evenodd" /><path transform="matrix(1 0 0 -1 0 841)" d="M173.3 149.06L220.484 149.06L220.484 149.06L220.484 149.54L220.484 149.54L173.3 149.54z" stroke="none" fill="#000000" fill-rule="evenodd" /><path transform="matrix(1 0 0 -1 0 841)" d="M220.49 149.54L220.97 149.54L220.97 149.54L220.97 180.02L220.97 180.02L220.49 180.02z" stroke="none" fill="#000000" fill-rule="evenodd" /><path transform="matrix(1 0 0 -1 0 841)" d="M220.49 149.06L220.97 149.06L220.97 149.06L220.97 149.54L220.97 149.54L220.49 149.54z" stroke="none" fill="#000000" fill-rule="evenodd" /><path transform="matrix(1 0 0 -1 0 841)" d="M220.97 149.06L268.61 149.06L268.61 149.06L268.61 149.54L268.61 149.54L220.97 149.54z" stroke="none" fill="#000000" fill-rule="evenodd" /><path transform="matrix(1 0 0 -1 0 841)" d="M268.61 149.54L269.09 149.54L269.09 149.54L269.09 180.02L269.09 180.02L268.61 180.02z" stroke="none" fill="#000000" fill-rule="evenodd" /><path transform="matrix(1 0 0 -1 0 841)" d="M268.61 149.06L269.09 149.06L269.09 149.06L269.09 149.54L269.09 149.54L268.61 149.54z" stroke="none" fill="#000000" fill-rule="evenodd" /><path transform="matrix(1 0 0 -1 0 841)" d="M269.09 149.06L354.914 149.06L354.914 149.06L354.914 149.54L354.914 149.54L269.09 149.54z" stroke="none" fill="#000000" fill-rule="evenodd" /><path transform="matrix(1 0 0 -1 0 841)" d="M354.91 149.54L355.39 149.54L355.39 149.54L355.39 180.02L355.39 180.02L354.91 180.02z" stroke="none" fill="#000000" fill-rule="evenodd" /><path transform="matrix(1 0 0 -1 0 841)" d="M354.91 149.06L355.39 149.06L355.39 149.06L355.39 149.54L355.39 149.54L354.91 149.54z" stroke="none" fill="#000000" fill-rule="evenodd" /><path transform="matrix(1 0 0 -1 0 841)" d="M355.39 149.06L499.41 149.06L499.41 149.06L499.41 149.54L499.41 149.54L355.39 149.54z" stroke="none" fill="#000000" fill-rule="evenodd" /><path transform="matrix(1 0 0 -1 0 841)" d="M499.42 149.54L499.9 149.54L499.9 149.54L499.9 180.02L499.9 180.02L499.42 180.02z" stroke="none" fill="#000000" fill-rule="evenodd" /><path transform="matrix(1 0 0 -1 0 841)" d="M499.42 149.06L499.9 149.06L499.9 149.06L499.9 149.54L499.9 149.54L499.42 149.54z" stroke="none" fill="#000000" fill-rule="evenodd" /><path transform="matrix(1 0 0 -1 0 841)" d="M499.42 149.06L499.9 149.06L499.9 149.06L499.9 149.54L499.9 149.54L499.42 149.54z" stroke="none" fill="#000000" fill-rule="evenodd" /></g></g></g></svg>