<svg xmlns="http://www.w3.org/2000/svg" xmlns:xlink="http://www.w3.org/1999/xlink" id="body_199" preserveAspectRatio="xMinYMin meet" viewBox="0 0 793 1121"><defs><clipPath id="1"><path d="M0 841L0 -0.9199829L0 -0.9199829L595.32 -0.9199829L595.32 -0.9199829L595.32 841L595.32 841L0 841z" /></clipPath><clipPath id="2"><path d="M0.00125 841.0914L595.4112 841.0914L595.4112 841.0914L595.4112 -0.9186401L595.4112 -0.9186401L0.00125 -0.9186401z" /></clipPath><clipPath id="3"><path d="M288.05 781.211L316.01 781.211L316.01 781.211L316.01 762.011L316.01 762.011L288.05 762.011z" /></clipPath><clipPath id="4"><path d="M288.05 781.216L316.01 781.216L316.01 781.216L316.01 762.016L316.01 762.016L288.05 762.016z" /></clipPath><clipPath id="5"><path d="M288.05 781.216L316.01 781.216L316.01 781.216L316.01 762.016L316.01 762.016L288.05 762.016z" /></clipPath><clipPath id="6"><path d="M192.03 118.63L295.25 118.63L295.25 118.63L295.25 89.44L295.25 89.44L192.03 89.44z" /></clipPath><clipPath id="7"><path d="M192.02 118.62L295.24 118.62L295.24 118.62L295.24 89.43597L295.24 89.43597L192.02 89.43597z" /></clipPath><clipPath id="8"><path d="M192.02 118.62L295.24 118.62L295.24 118.62L295.24 89.43597L295.24 89.43597L192.02 89.43597z" /></clipPath><clipPath id="9"><path d="M295.85 118.63L403.4 118.63L403.4 118.63L403.4 89.44L403.4 89.44L295.85 89.44z" /></clipPath><clipPath id="10"><path d="M295.85 118.62L403.39 118.62L403.39 118.62L403.39 89.43597L403.39 89.43597L295.85 89.43597z" /></clipPath><clipPath id="11"><path d="M295.85 118.62L403.39 118.62L403.39 118.62L403.39 89.43597L403.39 89.43597L295.85 89.43597z" /></clipPath><clipPath id="12"><path d="M192.03 144.79L295.25 144.79L295.25 144.79L295.25 119.11L295.25 119.11L192.03 119.11z" /></clipPath><clipPath id="13"><path d="M192.02 144.78L295.24 144.78L295.24 144.78L295.24 119.1L295.24 119.1L192.02 119.1z" /></clipPath><clipPath id="14"><path d="M192.02 144.78L295.24 144.78L295.24 144.78L295.24 119.1L295.24 119.1L192.02 119.1z" /></clipPath><clipPath id="15"><path d="M295.85 144.79L403.4 144.79L403.4 144.79L403.4 119.11L403.4 119.11L295.85 119.11z" /></clipPath><clipPath id="16"><path d="M295.85 144.78L403.39 144.78L403.39 144.78L403.39 119.1L403.39 119.1L295.85 119.1z" /></clipPath><clipPath id="17"><path d="M295.85 144.78L403.39 144.78L403.39 144.78L403.39 119.1L403.39 119.1L295.85 119.1z" /></clipPath><clipPath id="18"><path d="M167.67 217.27L280.61 217.27L280.61 217.27L280.61 190.99L280.61 190.99L167.67 190.99z" /></clipPath><clipPath id="19"><path d="M167.66 217.26L280.6 217.26L280.6 217.26L280.6 190.98L280.6 190.98L167.66 190.98z" /></clipPath><clipPath id="20"><path d="M167.66 217.26L280.6 217.26L280.6 217.26L280.6 190.98L280.6 190.98L167.66 190.98z" /></clipPath><clipPath id="21"><path d="M281.09 217.27L427.76 217.27L427.76 217.27L427.76 190.99L427.76 190.99L281.09 190.99z" /></clipPath><clipPath id="22"><path d="M281.09 217.26L427.75 217.26L427.75 217.26L427.75 190.98L427.75 190.98L281.09 190.98z" /></clipPath><clipPath id="23"><path d="M281.09 217.26L427.75 217.26L427.75 217.26L427.75 190.98L427.75 190.98L281.09 190.98z" /></clipPath><clipPath id="24"><path d="M167.67 239.95L280.61 239.95L280.61 239.95L280.61 217.87L280.61 217.87L167.67 217.87z" /></clipPath><clipPath id="25"><path d="M167.66 239.94L280.6 239.94L280.6 239.94L280.6 217.86L280.6 217.86L167.66 217.86z" /></clipPath><clipPath id="26"><path d="M167.66 239.94L280.6 239.94L280.6 239.94L280.6 217.86L280.6 217.86L167.66 217.86z" /></clipPath><clipPath id="27"><path d="M281.09 239.95L427.76 239.95L427.76 239.95L427.76 217.87L427.76 217.87L281.09 217.87z" /></clipPath><clipPath id="28"><path d="M281.09 239.94L427.75 239.94L427.75 239.94L427.75 217.86L427.75 217.86L281.09 217.86z" /></clipPath><clipPath id="29"><path d="M281.09 239.94L427.75 239.94L427.75 239.94L427.75 217.86L427.75 217.86L281.09 217.86z" /></clipPath><clipPath id="30"><path d="M167.67 262.63L280.61 262.63L280.61 262.63L280.61 240.43L280.61 240.43L167.67 240.43z" /></clipPath><clipPath id="31"><path d="M167.66 262.62L280.6 262.62L280.6 262.62L280.6 240.42L280.6 240.42L167.66 240.42z" /></clipPath><clipPath id="32"><path d="M167.66 262.62L280.6 262.62L280.6 262.62L280.6 240.42L280.6 240.42L167.66 240.42z" /></clipPath><clipPath id="33"><path d="M281.09 262.63L427.76 262.63L427.76 262.63L427.76 240.43L427.76 240.43L281.09 240.43z" /></clipPath><clipPath id="34"><path d="M281.09 262.62L427.75 262.62L427.75 262.62L427.75 240.42L427.75 240.42L281.09 240.42z" /></clipPath><clipPath id="35"><path d="M281.09 262.62L427.75 262.62L427.75 262.62L427.75 240.42L427.75 240.42L281.09 240.42z" /></clipPath><clipPath id="36"><path d="M167.67 285.33L280.61 285.33L280.61 285.33L280.61 263.115L280.61 263.115L167.67 263.115z" /></clipPath><clipPath id="37"><path d="M167.66 285.33L280.6 285.33L280.6 285.33L280.6 263.106L280.6 263.106L167.66 263.106z" /></clipPath><clipPath id="38"><path d="M167.66 285.33L280.6 285.33L280.6 285.33L280.6 263.106L280.6 263.106L167.66 263.106z" /></clipPath><clipPath id="39"><path d="M281.09 285.33L427.76 285.33L427.76 285.33L427.76 263.115L427.76 263.115L281.09 263.115z" /></clipPath><clipPath id="40"><path d="M281.09 285.33L427.75 285.33L427.75 285.33L427.75 263.106L427.75 263.106L281.09 263.106z" /></clipPath><clipPath id="41"><path d="M281.09 285.33L427.75 285.33L427.75 285.33L427.75 263.106L427.75 263.106L281.09 263.106z" /></clipPath><clipPath id="42"><path d="M167.67 307.89L280.61 307.89L280.61 307.89L280.61 285.81L280.61 285.81L167.67 285.81z" /></clipPath><clipPath id="43"><path d="M167.66 307.89L280.6 307.89L280.6 307.89L280.6 285.81L280.6 285.81L167.66 285.81z" /></clipPath><clipPath id="44"><path d="M167.66 307.89L280.6 307.89L280.6 307.89L280.6 285.81L280.6 285.81L167.66 285.81z" /></clipPath><clipPath id="45"><path d="M281.09 307.89L427.76 307.89L427.76 307.89L427.76 285.81L427.76 285.81L281.09 285.81z" /></clipPath><clipPath id="46"><path d="M281.09 307.89L427.75 307.89L427.75 307.89L427.75 285.81L427.75 285.81L281.09 285.81z" /></clipPath><clipPath id="47"><path d="M281.09 307.89L427.75 307.89L427.75 307.89L427.75 285.81L427.75 285.81L281.09 285.81z" /></clipPath><clipPath id="48"><path d="M167.67 330.57L280.61 330.57L280.61 330.57L280.61 308.49L280.61 308.49L167.67 308.49z" /></clipPath><clipPath id="49"><path d="M167.66 330.57L280.6 330.57L280.6 330.57L280.6 308.49L280.6 308.49L167.66 308.49z" /></clipPath><clipPath id="50"><path d="M167.66 330.57L280.6 330.57L280.6 330.57L280.6 308.49L280.6 308.49L167.66 308.49z" /></clipPath><clipPath id="51"><path d="M281.09 330.57L427.76 330.57L427.76 330.57L427.76 308.49L427.76 308.49L281.09 308.49z" /></clipPath><clipPath id="52"><path d="M281.09 330.57L427.75 330.57L427.75 330.57L427.75 308.49L427.75 308.49L281.09 308.49z" /></clipPath><clipPath id="53"><path d="M281.09 330.57L427.75 330.57L427.75 330.57L427.75 308.49L427.75 308.49L281.09 308.49z" /></clipPath><clipPath id="54"><path d="M167.67 353.25L280.61 353.25L280.61 353.25L280.61 331.05L280.61 331.05L167.67 331.05z" /></clipPath><clipPath id="55"><path d="M167.66 353.25L280.6 353.25L280.6 353.25L280.6 331.05L280.6 331.05L167.66 331.05z" /></clipPath><clipPath id="56"><path d="M167.66 353.25L280.6 353.25L280.6 353.25L280.6 331.05L280.6 331.05L167.66 331.05z" /></clipPath><clipPath id="57"><path d="M281.09 353.25L427.76 353.25L427.76 353.25L427.76 331.05L427.76 331.05L281.09 331.05z" /></clipPath><clipPath id="58"><path d="M281.09 353.25L427.75 353.25L427.75 353.25L427.75 331.05L427.75 331.05L281.09 331.05z" /></clipPath><clipPath id="59"><path d="M281.09 353.25L427.75 353.25L427.75 353.25L427.75 331.05L427.75 331.05L281.09 331.05z" /></clipPath><clipPath id="60"><path d="M167.67 375.93L280.61 375.93L280.61 375.93L280.61 353.73L280.61 353.73L167.67 353.73z" /></clipPath><clipPath id="61"><path d="M167.66 375.93L280.6 375.93L280.6 375.93L280.6 353.73L280.6 353.73L167.66 353.73z" /></clipPath><clipPath id="62"><path d="M167.66 375.93L280.6 375.93L280.6 375.93L280.6 353.73L280.6 353.73L167.66 353.73z" /></clipPath><clipPath id="63"><path d="M281.09 375.93L427.76 375.93L427.76 375.93L427.76 353.73L427.76 353.73L281.09 353.73z" /></clipPath><clipPath id="64"><path d="M281.09 375.93L427.75 375.93L427.75 375.93L427.75 353.73L427.75 353.73L281.09 353.73z" /></clipPath><clipPath id="65"><path d="M281.09 375.93L427.75 375.93L427.75 375.93L427.75 353.73L427.75 353.73L281.09 353.73z" /></clipPath><clipPath id="66"><path d="M167.67 398.49L280.61 398.49L280.61 398.49L280.61 376.41L280.61 376.41L167.67 376.41z" /></clipPath><clipPath id="67"><path d="M167.66 398.49L280.6 398.49L280.6 398.49L280.6 376.41L280.6 376.41L167.66 376.41z" /></clipPath><clipPath id="68"><path d="M167.66 398.49L280.6 398.49L280.6 398.49L280.6 376.41L280.6 376.41L167.66 376.41z" /></clipPath><clipPath id="69"><path d="M281.09 398.49L427.76 398.49L427.76 398.49L427.76 376.41L427.76 376.41L281.09 376.41z" /></clipPath><clipPath id="70"><path d="M281.09 398.49L427.75 398.49L427.75 398.49L427.75 376.41L427.75 376.41L281.09 376.41z" /></clipPath><clipPath id="71"><path d="M281.09 398.49L427.75 398.49L427.75 398.49L427.75 376.41L427.75 376.41L281.09 376.41z" /></clipPath><clipPath id="72"><path d="M167.67 421.17L280.61 421.17L280.61 421.17L280.61 399.09L280.61 399.09L167.67 399.09z" /></clipPath><clipPath id="73"><path d="M167.66 421.17L280.6 421.17L280.6 421.17L280.6 399.09L280.6 399.09L167.66 399.09z" /></clipPath><clipPath id="74"><path d="M167.66 421.17L280.6 421.17L280.6 421.17L280.6 399.09L280.6 399.09L167.66 399.09z" /></clipPath><clipPath id="75"><path d="M281.09 421.17L427.76 421.17L427.76 421.17L427.76 399.09L427.76 399.09L281.09 399.09z" /></clipPath><clipPath id="76"><path d="M281.09 421.17L427.75 421.17L427.75 421.17L427.75 399.09L427.75 399.09L281.09 399.09z" /></clipPath><clipPath id="77"><path d="M281.09 421.17L427.75 421.17L427.75 421.17L427.75 399.09L427.75 399.09L281.09 399.09z" /></clipPath><clipPath id="78"><path d="M167.67 443.85L280.61 443.85L280.61 443.85L280.61 421.65L280.61 421.65L167.67 421.65z" /></clipPath><clipPath id="79"><path d="M167.66 443.85L280.6 443.85L280.6 443.85L280.6 421.65L280.6 421.65L167.66 421.65z" /></clipPath><clipPath id="80"><path d="M167.66 443.85L280.6 443.85L280.6 443.85L280.6 421.65L280.6 421.65L167.66 421.65z" /></clipPath><clipPath id="81"><path d="M281.09 443.85L427.76 443.85L427.76 443.85L427.76 421.65L427.76 421.65L281.09 421.65z" /></clipPath><clipPath id="82"><path d="M281.09 443.85L427.75 443.85L427.75 443.85L427.75 421.65L427.75 421.65L281.09 421.65z" /></clipPath><clipPath id="83"><path d="M281.09 443.85L427.75 443.85L427.75 443.85L427.75 421.65L427.75 421.65L281.09 421.65z" /></clipPath><clipPath id="84"><path d="M167.67 466.53L280.61 466.53L280.61 466.53L280.61 444.33L280.61 444.33L167.67 444.33z" /></clipPath><clipPath id="85"><path d="M167.66 466.53L280.6 466.53L280.6 466.53L280.6 444.33L280.6 444.33L167.66 444.33z" /></clipPath><clipPath id="86"><path d="M167.66 466.53L280.6 466.53L280.6 466.53L280.6 444.33L280.6 444.33L167.66 444.33z" /></clipPath><clipPath id="87"><path d="M281.09 466.53L427.76 466.53L427.76 466.53L427.76 444.33L427.76 444.33L281.09 444.33z" /></clipPath><clipPath id="88"><path d="M281.09 466.53L427.75 466.53L427.75 466.53L427.75 444.33L427.75 444.33L281.09 444.33z" /></clipPath><clipPath id="89"><path d="M281.09 466.53L427.75 466.53L427.75 466.53L427.75 444.33L427.75 444.33L281.09 444.33z" /></clipPath><clipPath id="90"><path d="M167.67 489.12L280.61 489.12L280.61 489.12L280.61 467.01L280.61 467.01L167.67 467.01z" /></clipPath><clipPath id="91"><path d="M167.66 489.11L280.6 489.11L280.6 489.11L280.6 467.006L280.6 467.006L167.66 467.006z" /></clipPath><clipPath id="92"><path d="M167.66 489.11L280.6 489.11L280.6 489.11L280.6 467.006L280.6 467.006L167.66 467.006z" /></clipPath><clipPath id="93"><path d="M281.09 489.12L427.76 489.12L427.76 489.12L427.76 467.01L427.76 467.01L281.09 467.01z" /></clipPath><clipPath id="94"><path d="M281.09 489.11L427.75 489.11L427.75 489.11L427.75 467.006L427.75 467.006L281.09 467.006z" /></clipPath><clipPath id="95"><path d="M281.09 489.11L427.75 489.11L427.75 489.11L427.75 467.006L427.75 467.006L281.09 467.006z" /></clipPath><clipPath id="96"><path d="M167.67 511.8L280.61 511.8L280.61 511.8L280.61 489.72L280.61 489.72L167.67 489.72z" /></clipPath><clipPath id="97"><path d="M167.66 511.79L280.6 511.79L280.6 511.79L280.6 489.71L280.6 489.71L167.66 489.71z" /></clipPath><clipPath id="98"><path d="M167.66 511.79L280.6 511.79L280.6 511.79L280.6 489.71L280.6 489.71L167.66 489.71z" /></clipPath><clipPath id="99"><path d="M281.09 511.8L427.76 511.8L427.76 511.8L427.76 489.72L427.76 489.72L281.09 489.72z" /></clipPath><clipPath id="100"><path d="M281.09 511.79L427.75 511.79L427.75 511.79L427.75 489.71L427.75 489.71L281.09 489.71z" /></clipPath><clipPath id="101"><path d="M281.09 511.79L427.75 511.79L427.75 511.79L427.75 489.71L427.75 489.71L281.09 489.71z" /></clipPath><clipPath id="102"><path d="M167.67 534.48L280.61 534.48L280.61 534.48L280.61 512.28L280.61 512.28L167.67 512.28z" /></clipPath><clipPath id="103"><path d="M167.66 534.47L280.6 534.47L280.6 534.47L280.6 512.27L280.6 512.27L167.66 512.27z" /></clipPath><clipPath id="104"><path d="M167.66 534.47L280.6 534.47L280.6 534.47L280.6 512.27L280.6 512.27L167.66 512.27z" /></clipPath><clipPath id="105"><path d="M281.09 534.48L427.76 534.48L427.76 534.48L427.76 512.28L427.76 512.28L281.09 512.28z" /></clipPath><clipPath id="106"><path d="M281.09 534.47L427.75 534.47L427.75 534.47L427.75 512.27L427.75 512.27L281.09 512.27z" /></clipPath><clipPath id="107"><path d="M281.09 534.47L427.75 534.47L427.75 534.47L427.75 512.27L427.75 512.27L281.09 512.27z" /></clipPath><clipPath id="108"><path d="M167.67 557.16L280.61 557.16L280.61 557.16L280.61 534.96L280.61 534.96L167.67 534.96z" /></clipPath><clipPath id="109"><path d="M167.66 557.15L280.6 557.15L280.6 557.15L280.6 534.95L280.6 534.95L167.66 534.95z" /></clipPath><clipPath id="110"><path d="M167.66 557.15L280.6 557.15L280.6 557.15L280.6 534.95L280.6 534.95L167.66 534.95z" /></clipPath><clipPath id="111"><path d="M281.09 557.16L427.76 557.16L427.76 557.16L427.76 534.96L427.76 534.96L281.09 534.96z" /></clipPath><clipPath id="112"><path d="M281.09 557.15L427.75 557.15L427.75 557.15L427.75 534.95L427.75 534.95L281.09 534.95z" /></clipPath><clipPath id="113"><path d="M281.09 557.15L427.75 557.15L427.75 557.15L427.75 534.95L427.75 534.95L281.09 534.95z" /></clipPath><clipPath id="114"><path d="M167.67 579.72L280.61 579.72L280.61 579.72L280.61 557.64L280.61 557.64L167.67 557.64z" /></clipPath><clipPath id="115"><path d="M167.66 579.71L280.6 579.71L280.6 579.71L280.6 557.63L280.6 557.63L167.66 557.63z" /></clipPath><clipPath id="116"><path d="M167.66 579.71L280.6 579.71L280.6 579.71L280.6 557.63L280.6 557.63L167.66 557.63z" /></clipPath><clipPath id="117"><path d="M281.09 579.72L427.76 579.72L427.76 579.72L427.76 557.64L427.76 557.64L281.09 557.64z" /></clipPath><clipPath id="118"><path d="M281.09 579.71L427.75 579.71L427.75 579.71L427.75 557.63L427.75 557.63L281.09 557.63z" /></clipPath><clipPath id="119"><path d="M281.09 579.71L427.75 579.71L427.75 579.71L427.75 557.63L427.75 557.63L281.09 557.63z" /></clipPath><clipPath id="120"><path d="M167.67 602.4L280.61 602.4L280.61 602.4L280.61 580.32L280.61 580.32L167.67 580.32z" /></clipPath><clipPath id="121"><path d="M167.66 602.39L280.6 602.39L280.6 602.39L280.6 580.31L280.6 580.31L167.66 580.31z" /></clipPath><clipPath id="122"><path d="M167.66 602.39L280.6 602.39L280.6 602.39L280.6 580.31L280.6 580.31L167.66 580.31z" /></clipPath><clipPath id="123"><path d="M281.09 602.4L427.76 602.4L427.76 602.4L427.76 580.32L427.76 580.32L281.09 580.32z" /></clipPath><clipPath id="124"><path d="M281.09 602.39L427.75 602.39L427.75 602.39L427.75 580.31L427.75 580.31L281.09 580.31z" /></clipPath><clipPath id="125"><path d="M281.09 602.39L427.75 602.39L427.75 602.39L427.75 580.31L427.75 580.31L281.09 580.31z" /></clipPath><clipPath id="126"><path d="M167.67 625.08L280.61 625.08L280.61 625.08L280.61 602.88L280.61 602.88L167.67 602.88z" /></clipPath><clipPath id="127"><path d="M167.66 625.07L280.6 625.07L280.6 625.07L280.6 602.87L280.6 602.87L167.66 602.87z" /></clipPath><clipPath id="128"><path d="M167.66 625.07L280.6 625.07L280.6 625.07L280.6 602.87L280.6 602.87L167.66 602.87z" /></clipPath><clipPath id="129"><path d="M281.09 625.08L427.76 625.08L427.76 625.08L427.76 602.88L427.76 602.88L281.09 602.88z" /></clipPath><clipPath id="130"><path d="M281.09 625.07L427.75 625.07L427.75 625.07L427.75 602.87L427.75 602.87L281.09 602.87z" /></clipPath><clipPath id="131"><path d="M281.09 625.07L427.75 625.07L427.75 625.07L427.75 602.87L427.75 602.87L281.09 602.87z" /></clipPath><clipPath id="132"><path d="M167.67 647.76L280.61 647.76L280.61 647.76L280.61 625.56L280.61 625.56L167.67 625.56z" /></clipPath><clipPath id="133"><path d="M167.66 647.75L280.6 647.75L280.6 647.75L280.6 625.55L280.6 625.55L167.66 625.55z" /></clipPath><clipPath id="134"><path d="M167.66 647.75L280.6 647.75L280.6 647.75L280.6 625.55L280.6 625.55L167.66 625.55z" /></clipPath><clipPath id="135"><path d="M281.09 647.76L427.76 647.76L427.76 647.76L427.76 625.56L427.76 625.56L281.09 625.56z" /></clipPath><clipPath id="136"><path d="M281.09 647.75L427.75 647.75L427.75 647.75L427.75 625.55L427.75 625.55L281.09 625.55z" /></clipPath><clipPath id="137"><path d="M281.09 647.75L427.75 647.75L427.75 647.75L427.75 625.55L427.75 625.55L281.09 625.55z" /></clipPath><clipPath id="138"><path d="M167.67 670.33L280.61 670.33L280.61 670.33L280.61 648.235L280.61 648.235L167.67 648.235z" /></clipPath><clipPath id="139"><path d="M167.66 670.34L280.6 670.34L280.6 670.34L280.6 648.236L280.6 648.236L167.66 648.236z" /></clipPath><clipPath id="140"><path d="M167.66 670.34L280.6 670.34L280.6 670.34L280.6 648.236L280.6 648.236L167.66 648.236z" /></clipPath><clipPath id="141"><path d="M281.09 670.33L427.76 670.33L427.76 670.33L427.76 648.235L427.76 648.235L281.09 648.235z" /></clipPath><clipPath id="142"><path d="M281.09 670.34L427.75 670.34L427.75 670.34L427.75 648.236L427.75 648.236L281.09 648.236z" /></clipPath><clipPath id="143"><path d="M281.09 670.34L427.75 670.34L427.75 670.34L427.75 648.236L427.75 648.236L281.09 648.236z" /></clipPath><clipPath id="144"><path d="M167.67 693.01L280.61 693.01L280.61 693.01L280.61 670.93L280.61 670.93L167.67 670.93z" /></clipPath><clipPath id="145"><path d="M167.66 693.02L280.6 693.02L280.6 693.02L280.6 670.94L280.6 670.94L167.66 670.94z" /></clipPath><clipPath id="146"><path d="M167.66 693.02L280.6 693.02L280.6 693.02L280.6 670.94L280.6 670.94L167.66 670.94z" /></clipPath><clipPath id="147"><path d="M281.09 693.01L427.76 693.01L427.76 693.01L427.76 670.93L427.76 670.93L281.09 670.93z" /></clipPath><clipPath id="148"><path d="M281.09 693.02L427.75 693.02L427.75 693.02L427.75 670.94L427.75 670.94L281.09 670.94z" /></clipPath><clipPath id="149"><path d="M281.09 693.02L427.75 693.02L427.75 693.02L427.75 670.94L427.75 670.94L281.09 670.94z" /></clipPath><clipPath id="150"><path d="M167.67 715.69L280.61 715.69L280.61 715.69L280.61 693.49L280.61 693.49L167.67 693.49z" /></clipPath><clipPath id="151"><path d="M167.66 715.7L280.6 715.7L280.6 715.7L280.6 693.5L280.6 693.5L167.66 693.5z" /></clipPath><clipPath id="152"><path d="M167.66 715.7L280.6 715.7L280.6 715.7L280.6 693.5L280.6 693.5L167.66 693.5z" /></clipPath><clipPath id="153"><path d="M281.09 715.69L427.76 715.69L427.76 715.69L427.76 693.49L427.76 693.49L281.09 693.49z" /></clipPath><clipPath id="154"><path d="M281.09 715.7L427.75 715.7L427.75 715.7L427.75 693.5L427.75 693.5L281.09 693.5z" /></clipPath><clipPath id="155"><path d="M281.09 715.7L427.75 715.7L427.75 715.7L427.75 693.5L427.75 693.5L281.09 693.5z" /></clipPath></defs><g transform="matrix(1.333333 0 0 1.333333 0 0)"><g><g clip-path="url(#1)"><path transform="matrix(1 0 0 -1 0 841)" d="M457.51 53.304L505.534 53.304L505.534 53.304L505.534 53.90404L505.534 53.90404L457.51 53.90404z" stroke="none" fill="#000000" fill-rule="evenodd" /><g clip-path="url(#2)"><path transform="matrix(1 0 0 -1 0 841)" d="M88.464 77.904L506.974 77.904L506.974 77.904L506.974 80.904L506.974 80.904L88.464 80.904z" stroke="none" fill="#000000" fill-rule="evenodd" /><path transform="matrix(1 0 0 -1 0 841)" d="M88.464 76.464L506.974 76.464L506.974 76.464L506.974 77.18397L506.974 77.18397L88.464 77.18397z" stroke="none" fill="#000000" fill-rule="evenodd" /></g><g clip-path="url(#3)"><g clip-path="url(#4)"></g><g clip-path="url(#5)"></g></g><path transform="matrix(1 0 0 -1 0 841)" d="M192.02 722.38L295.24 722.38L295.24 722.38L295.24 751.564L295.24 751.564L192.02 751.564z" stroke="none" fill="#DAEEF3" fill-rule="evenodd" /><g clip-path="url(#6)"><path transform="matrix(1 0 0 -1 0 841)" d="M197.18 725.86L290.204 725.86L290.204 725.86L290.204 751.564L290.204 751.564L197.18 751.564z" stroke="none" fill="#DAEEF3" fill-rule="evenodd" /><g clip-path="url(#7)"></g><g clip-path="url(#8)"></g></g><path transform="matrix(1 0 0 -1 0 841)" d="M295.85 722.38L403.39 722.38L403.39 722.38L403.39 751.564L403.39 751.564L295.85 751.564z" stroke="none" fill="#DAEEF3" fill-rule="evenodd" /><g clip-path="url(#9)"><path transform="matrix(1 0 0 -1 0 841)" d="M300.89 725.86L398.234 725.86L398.234 725.86L398.234 751.564L398.234 751.564L300.89 751.564z" stroke="none" fill="#DAEEF3" fill-rule="evenodd" /><g clip-path="url(#10)"></g><g clip-path="url(#11)"></g></g><path transform="matrix(1 0 0 -1 0 841)" d="M191.54 751.56L192.02 751.56L192.02 751.56L192.02 752.04L192.02 752.04L191.54 752.04z" stroke="none" fill="#000000" fill-rule="evenodd" /><path transform="matrix(1 0 0 -1 0 841)" d="M191.54 751.56L192.02 751.56L192.02 751.56L192.02 752.04L192.02 752.04L191.54 752.04z" stroke="none" fill="#000000" fill-rule="evenodd" /><path transform="matrix(1 0 0 -1 0 841)" d="M192.02 751.56L295.36 751.56L295.36 751.56L295.36 752.04L295.36 752.04L192.02 752.04z" stroke="none" fill="#000000" fill-rule="evenodd" /><path transform="matrix(1 0 0 -1 0 841)" d="M295.37 751.56L295.85 751.56L295.85 751.56L295.85 752.04L295.85 752.04L295.37 752.04z" stroke="none" fill="#000000" fill-rule="evenodd" /><path transform="matrix(1 0 0 -1 0 841)" d="M295.85 751.56L403.51 751.56L403.51 751.56L403.51 752.04L403.51 752.04L295.85 752.04z" stroke="none" fill="#000000" fill-rule="evenodd" /><path transform="matrix(1 0 0 -1 0 841)" d="M403.51 751.56L403.99 751.56L403.99 751.56L403.99 752.04L403.99 752.04L403.51 752.04z" stroke="none" fill="#000000" fill-rule="evenodd" /><path transform="matrix(1 0 0 -1 0 841)" d="M403.51 751.56L403.99 751.56L403.99 751.56L403.99 752.04L403.99 752.04L403.51 752.04z" stroke="none" fill="#000000" fill-rule="evenodd" /><path transform="matrix(1 0 0 -1 0 841)" d="M191.54 722.38L192.02 722.38L192.02 722.38L192.02 751.564L192.02 751.564L191.54 751.564z" stroke="none" fill="#000000" fill-rule="evenodd" /><path transform="matrix(1 0 0 -1 0 841)" d="M295.37 722.38L295.85 722.38L295.85 722.38L295.85 751.564L295.85 751.564L295.37 751.564z" stroke="none" fill="#000000" fill-rule="evenodd" /><path transform="matrix(1 0 0 -1 0 841)" d="M403.51 722.38L403.99 722.38L403.99 722.38L403.99 751.564L403.99 751.564L403.51 751.564z" stroke="none" fill="#000000" fill-rule="evenodd" /><g clip-path="url(#12)"><g clip-path="url(#13)"></g><g clip-path="url(#14)"></g></g><g clip-path="url(#15)"><g clip-path="url(#16)"></g><g clip-path="url(#17)"></g></g><path transform="matrix(1 0 0 -1 0 841)" d="M191.54 721.9L192.02 721.9L192.02 721.9L192.02 722.38L192.02 722.38L191.54 722.38z" stroke="none" fill="#000000" fill-rule="evenodd" /><path transform="matrix(1 0 0 -1 0 841)" d="M192.02 721.9L295.36 721.9L295.36 721.9L295.36 722.38L295.36 722.38L192.02 722.38z" stroke="none" fill="#000000" fill-rule="evenodd" /><path transform="matrix(1 0 0 -1 0 841)" d="M295.37 721.9L295.85 721.9L295.85 721.9L295.85 722.38L295.85 722.38L295.37 722.38z" stroke="none" fill="#000000" fill-rule="evenodd" /><path transform="matrix(1 0 0 -1 0 841)" d="M295.85 721.9L403.51 721.9L403.51 721.9L403.51 722.38L403.51 722.38L295.85 722.38z" stroke="none" fill="#000000" fill-rule="evenodd" /><path transform="matrix(1 0 0 -1 0 841)" d="M403.51 721.9L403.99 721.9L403.99 721.9L403.99 722.38L403.99 722.38L403.51 722.38z" stroke="none" fill="#000000" fill-rule="evenodd" /><path transform="matrix(1 0 0 -1 0 841)" d="M191.54 696.22L192.02 696.22L192.02 696.22L192.02 721.9L192.02 721.9L191.54 721.9z" stroke="none" fill="#000000" fill-rule="evenodd" /><path transform="matrix(1 0 0 -1 0 841)" d="M191.54 695.74L192.02 695.74L192.02 695.74L192.02 696.22L192.02 696.22L191.54 696.22z" stroke="none" fill="#000000" fill-rule="evenodd" /><path transform="matrix(1 0 0 -1 0 841)" d="M191.54 695.74L192.02 695.74L192.02 695.74L192.02 696.22L192.02 696.22L191.54 696.22z" stroke="none" fill="#000000" fill-rule="evenodd" /><path transform="matrix(1 0 0 -1 0 841)" d="M192.02 695.74L295.36 695.74L295.36 695.74L295.36 696.22L295.36 696.22L192.02 696.22z" stroke="none" fill="#000000" fill-rule="evenodd" /><path transform="matrix(1 0 0 -1 0 841)" d="M295.37 696.22L295.85 696.22L295.85 696.22L295.85 721.9L295.85 721.9L295.37 721.9z" stroke="none" fill="#000000" fill-rule="evenodd" /><path transform="matrix(1 0 0 -1 0 841)" d="M295.37 695.74L295.85 695.74L295.85 695.74L295.85 696.22L295.85 696.22L295.37 696.22z" stroke="none" fill="#000000" fill-rule="evenodd" /><path transform="matrix(1 0 0 -1 0 841)" d="M295.85 695.74L403.51 695.74L403.51 695.74L403.51 696.22L403.51 696.22L295.85 696.22z" stroke="none" fill="#000000" fill-rule="evenodd" /><path transform="matrix(1 0 0 -1 0 841)" d="M403.51 696.22L403.99 696.22L403.99 696.22L403.99 721.9L403.99 721.9L403.51 721.9z" stroke="none" fill="#000000" fill-rule="evenodd" /><path transform="matrix(1 0 0 -1 0 841)" d="M403.51 695.74L403.99 695.74L403.99 695.74L403.99 696.22L403.99 696.22L403.51 696.22z" stroke="none" fill="#000000" fill-rule="evenodd" /><path transform="matrix(1 0 0 -1 0 841)" d="M403.51 695.74L403.99 695.74L403.99 695.74L403.99 696.22L403.99 696.22L403.51 696.22z" stroke="none" fill="#000000" fill-rule="evenodd" /><path transform="matrix(1 0 0 -1 0 841)" d="M167.66 623.74L280.6 623.74L280.6 623.74L280.6 650.02L280.6 650.02L167.66 650.02z" stroke="none" fill="#0070C0" fill-rule="evenodd" /><g clip-path="url(#18)"><path transform="matrix(1 0 0 -1 0 841)" d="M172.82 630.94L275.44 630.94L275.44 630.94L275.44 650.02L275.44 650.02L172.82 650.02z" stroke="none" fill="#0070C0" fill-rule="evenodd" /><g clip-path="url(#19)"></g><g clip-path="url(#20)"></g></g><path transform="matrix(1 0 0 -1 0 841)" d="M281.09 623.74L427.75 623.74L427.75 623.74L427.75 650.02L427.75 650.02L281.09 650.02z" stroke="none" fill="#0070C0" fill-rule="evenodd" /><g clip-path="url(#21)"><path transform="matrix(1 0 0 -1 0 841)" d="M286.25 630.94L422.59 630.94L422.59 630.94L422.59 650.02L422.59 650.02L286.25 650.02z" stroke="none" fill="#0070C0" fill-rule="evenodd" /><g clip-path="url(#22)"></g><g clip-path="url(#23)"></g></g><path transform="matrix(1 0 0 -1 0 841)" d="M167.18 650.02L167.66 650.02L167.66 650.02L167.66 650.5L167.66 650.5L167.18 650.5z" stroke="none" fill="#000000" fill-rule="evenodd" /><path transform="matrix(1 0 0 -1 0 841)" d="M167.18 650.02L167.66 650.02L167.66 650.02L167.66 650.5L167.66 650.5L167.18 650.5z" stroke="none" fill="#000000" fill-rule="evenodd" /><path transform="matrix(1 0 0 -1 0 841)" d="M167.66 650.02L280.6 650.02L280.6 650.02L280.6 650.5L280.6 650.5L167.66 650.5z" stroke="none" fill="#000000" fill-rule="evenodd" /><path transform="matrix(1 0 0 -1 0 841)" d="M280.61 650.02L281.09 650.02L281.09 650.02L281.09 650.5L281.09 650.5L280.61 650.5z" stroke="none" fill="#000000" fill-rule="evenodd" /><path transform="matrix(1 0 0 -1 0 841)" d="M281.09 650.02L427.75 650.02L427.75 650.02L427.75 650.5L427.75 650.5L281.09 650.5z" stroke="none" fill="#000000" fill-rule="evenodd" /><path transform="matrix(1 0 0 -1 0 841)" d="M427.75 650.02L428.23 650.02L428.23 650.02L428.23 650.5L428.23 650.5L427.75 650.5z" stroke="none" fill="#000000" fill-rule="evenodd" /><path transform="matrix(1 0 0 -1 0 841)" d="M427.75 650.02L428.23 650.02L428.23 650.02L428.23 650.5L428.23 650.5L427.75 650.5z" stroke="none" fill="#000000" fill-rule="evenodd" /><path transform="matrix(1 0 0 -1 0 841)" d="M167.18 623.74L167.66 623.74L167.66 623.74L167.66 650.02L167.66 650.02L167.18 650.02z" stroke="none" fill="#000000" fill-rule="evenodd" /><path transform="matrix(1 0 0 -1 0 841)" d="M280.61 623.74L281.09 623.74L281.09 623.74L281.09 650.02L281.09 650.02L280.61 650.02z" stroke="none" fill="#000000" fill-rule="evenodd" /><path transform="matrix(1 0 0 -1 0 841)" d="M427.75 623.74L428.23 623.74L428.23 623.74L428.23 650.02L428.23 650.02L427.75 650.02z" stroke="none" fill="#000000" fill-rule="evenodd" /><path transform="matrix(1 0 0 -1 0 841)" d="M167.66 601.06L280.6 601.06L280.6 601.06L280.6 623.14L280.6 623.14L167.66 623.14z" stroke="none" fill="#DAEEF3" fill-rule="evenodd" /><g clip-path="url(#24)"><path transform="matrix(1 0 0 -1 0 841)" d="M172.82 604.18L275.44 604.18L275.44 604.18L275.44 623.14L275.44 623.14L172.82 623.14z" stroke="none" fill="#DAEEF3" fill-rule="evenodd" /><g clip-path="url(#25)"></g><g clip-path="url(#26)"></g></g><path transform="matrix(1 0 0 -1 0 841)" d="M281.09 601.06L427.75 601.06L427.75 601.06L427.75 623.14L427.75 623.14L281.09 623.14z" stroke="none" fill="#DAEEF3" fill-rule="evenodd" /><g clip-path="url(#27)"><path transform="matrix(1 0 0 -1 0 841)" d="M286.25 604.18L422.59 604.18L422.59 604.18L422.59 623.14L422.59 623.14L286.25 623.14z" stroke="none" fill="#DAEEF3" fill-rule="evenodd" /><g clip-path="url(#28)"></g><g clip-path="url(#29)"></g></g><path transform="matrix(1 0 0 -1 0 841)" d="M167.18 623.26L167.66 623.26L167.66 623.26L167.66 623.74L167.66 623.74L167.18 623.74z" stroke="none" fill="#000000" fill-rule="evenodd" /><path transform="matrix(1 0 0 -1 0 841)" d="M167.66 623.26L280.6 623.26L280.6 623.26L280.6 623.74L280.6 623.74L167.66 623.74z" stroke="none" fill="#000000" fill-rule="evenodd" /><path transform="matrix(1 0 0 -1 0 841)" d="M280.61 623.26L281.09 623.26L281.09 623.26L281.09 623.74L281.09 623.74L280.61 623.74z" stroke="none" fill="#000000" fill-rule="evenodd" /><path transform="matrix(1 0 0 -1 0 841)" d="M281.09 623.26L427.75 623.26L427.75 623.26L427.75 623.74L427.75 623.74L281.09 623.74z" stroke="none" fill="#000000" fill-rule="evenodd" /><path transform="matrix(1 0 0 -1 0 841)" d="M427.75 623.26L428.23 623.26L428.23 623.26L428.23 623.74L428.23 623.74L427.75 623.74z" stroke="none" fill="#000000" fill-rule="evenodd" /><path transform="matrix(1 0 0 -1 0 841)" d="M167.18 601.06L167.66 601.06L167.66 601.06L167.66 623.26L167.66 623.26L167.18 623.26z" stroke="none" fill="#000000" fill-rule="evenodd" /><path transform="matrix(1 0 0 -1 0 841)" d="M280.61 601.06L281.09 601.06L281.09 601.06L281.09 623.26L281.09 623.26L280.61 623.26z" stroke="none" fill="#000000" fill-rule="evenodd" /><path transform="matrix(1 0 0 -1 0 841)" d="M427.75 601.06L428.23 601.06L428.23 601.06L428.23 623.26L428.23 623.26L427.75 623.26z" stroke="none" fill="#000000" fill-rule="evenodd" /><g clip-path="url(#30)"><g clip-path="url(#31)"></g><g clip-path="url(#32)"></g></g><g clip-path="url(#33)"><g clip-path="url(#34)"></g><g clip-path="url(#35)"></g></g><path transform="matrix(1 0 0 -1 0 841)" d="M167.18 600.58L167.66 600.58L167.66 600.58L167.66 601.06L167.66 601.06L167.18 601.06z" stroke="none" fill="#000000" fill-rule="evenodd" /><path transform="matrix(1 0 0 -1 0 841)" d="M167.66 600.58L280.6 600.58L280.6 600.58L280.6 601.06L280.6 601.06L167.66 601.06z" stroke="none" fill="#000000" fill-rule="evenodd" /><path transform="matrix(1 0 0 -1 0 841)" d="M280.61 600.58L281.09 600.58L281.09 600.58L281.09 601.06L281.09 601.06L280.61 601.06z" stroke="none" fill="#000000" fill-rule="evenodd" /><path transform="matrix(1 0 0 -1 0 841)" d="M281.09 600.58L427.75 600.58L427.75 600.58L427.75 601.06L427.75 601.06L281.09 601.06z" stroke="none" fill="#000000" fill-rule="evenodd" /><path transform="matrix(1 0 0 -1 0 841)" d="M427.75 600.58L428.23 600.58L428.23 600.58L428.23 601.06L428.23 601.06L427.75 601.06z" stroke="none" fill="#000000" fill-rule="evenodd" /><path transform="matrix(1 0 0 -1 0 841)" d="M167.18 578.38L167.66 578.38L167.66 578.38L167.66 600.58L167.66 600.58L167.18 600.58z" stroke="none" fill="#000000" fill-rule="evenodd" /><path transform="matrix(1 0 0 -1 0 841)" d="M280.61 578.38L281.09 578.38L281.09 578.38L281.09 600.58L281.09 600.58L280.61 600.58z" stroke="none" fill="#000000" fill-rule="evenodd" /><path transform="matrix(1 0 0 -1 0 841)" d="M427.75 578.38L428.23 578.38L428.23 578.38L428.23 600.58L428.23 600.58L427.75 600.58z" stroke="none" fill="#000000" fill-rule="evenodd" /><path transform="matrix(1 0 0 -1 0 841)" d="M167.66 555.67L280.6 555.67L280.6 555.67L280.6 577.894L280.6 577.894L167.66 577.894z" stroke="none" fill="#DAEEF3" fill-rule="evenodd" /><g clip-path="url(#36)"><path transform="matrix(1 0 0 -1 0 841)" d="M172.82 558.79L275.44 558.79L275.44 558.79L275.44 577.894L275.44 577.894L172.82 577.894z" stroke="none" fill="#DAEEF3" fill-rule="evenodd" /><g clip-path="url(#37)"></g><g clip-path="url(#38)"></g></g><path transform="matrix(1 0 0 -1 0 841)" d="M281.09 555.67L427.75 555.67L427.75 555.67L427.75 577.894L427.75 577.894L281.09 577.894z" stroke="none" fill="#DAEEF3" fill-rule="evenodd" /><g clip-path="url(#39)"><path transform="matrix(1 0 0 -1 0 841)" d="M286.25 558.79L422.59 558.79L422.59 558.79L422.59 577.894L422.59 577.894L286.25 577.894z" stroke="none" fill="#DAEEF3" fill-rule="evenodd" /><g clip-path="url(#40)"></g><g clip-path="url(#41)"></g></g><path transform="matrix(1 0 0 -1 0 841)" d="M167.18 577.9L167.66 577.9L167.66 577.9L167.66 578.38L167.66 578.38L167.18 578.38z" stroke="none" fill="#000000" fill-rule="evenodd" /><path transform="matrix(1 0 0 -1 0 841)" d="M167.66 577.9L280.6 577.9L280.6 577.9L280.6 578.38L280.6 578.38L167.66 578.38z" stroke="none" fill="#000000" fill-rule="evenodd" /><path transform="matrix(1 0 0 -1 0 841)" d="M280.61 577.9L281.09 577.9L281.09 577.9L281.09 578.38L281.09 578.38L280.61 578.38z" stroke="none" fill="#000000" fill-rule="evenodd" /><path transform="matrix(1 0 0 -1 0 841)" d="M281.09 577.9L427.75 577.9L427.75 577.9L427.75 578.38L427.75 578.38L281.09 578.38z" stroke="none" fill="#000000" fill-rule="evenodd" /><path transform="matrix(1 0 0 -1 0 841)" d="M427.75 577.9L428.23 577.9L428.23 577.9L428.23 578.38L428.23 578.38L427.75 578.38z" stroke="none" fill="#000000" fill-rule="evenodd" /><path transform="matrix(1 0 0 -1 0 841)" d="M167.18 555.67L167.66 555.67L167.66 555.67L167.66 577.894L167.66 577.894L167.18 577.894z" stroke="none" fill="#000000" fill-rule="evenodd" /><path transform="matrix(1 0 0 -1 0 841)" d="M280.61 555.67L281.09 555.67L281.09 555.67L281.09 577.894L281.09 577.894L280.61 577.894z" stroke="none" fill="#000000" fill-rule="evenodd" /><path transform="matrix(1 0 0 -1 0 841)" d="M427.75 555.67L428.23 555.67L428.23 555.67L428.23 577.894L428.23 577.894L427.75 577.894z" stroke="none" fill="#000000" fill-rule="evenodd" /><g clip-path="url(#42)"><g clip-path="url(#43)"></g><g clip-path="url(#44)"></g></g><g clip-path="url(#45)"><g clip-path="url(#46)"></g><g clip-path="url(#47)"></g></g><path transform="matrix(1 0 0 -1 0 841)" d="M167.18 555.19L167.66 555.19L167.66 555.19L167.66 555.67L167.66 555.67L167.18 555.67z" stroke="none" fill="#000000" fill-rule="evenodd" /><path transform="matrix(1 0 0 -1 0 841)" d="M167.66 555.19L280.6 555.19L280.6 555.19L280.6 555.67L280.6 555.67L167.66 555.67z" stroke="none" fill="#000000" fill-rule="evenodd" /><path transform="matrix(1 0 0 -1 0 841)" d="M280.61 555.19L281.09 555.19L281.09 555.19L281.09 555.67L281.09 555.67L280.61 555.67z" stroke="none" fill="#000000" fill-rule="evenodd" /><path transform="matrix(1 0 0 -1 0 841)" d="M281.09 555.19L427.75 555.19L427.75 555.19L427.75 555.67L427.75 555.67L281.09 555.67z" stroke="none" fill="#000000" fill-rule="evenodd" /><path transform="matrix(1 0 0 -1 0 841)" d="M427.75 555.19L428.23 555.19L428.23 555.19L428.23 555.67L428.23 555.67L427.75 555.67z" stroke="none" fill="#000000" fill-rule="evenodd" /><path transform="matrix(1 0 0 -1 0 841)" d="M167.18 533.11L167.66 533.11L167.66 533.11L167.66 555.19L167.66 555.19L167.18 555.19z" stroke="none" fill="#000000" fill-rule="evenodd" /><path transform="matrix(1 0 0 -1 0 841)" d="M280.61 533.11L281.09 533.11L281.09 533.11L281.09 555.19L281.09 555.19L280.61 555.19z" stroke="none" fill="#000000" fill-rule="evenodd" /><path transform="matrix(1 0 0 -1 0 841)" d="M427.75 533.11L428.23 533.11L428.23 533.11L428.23 555.19L428.23 555.19L427.75 555.19z" stroke="none" fill="#000000" fill-rule="evenodd" /><path transform="matrix(1 0 0 -1 0 841)" d="M167.66 510.43L280.6 510.43L280.6 510.43L280.6 532.51L280.6 532.51L167.66 532.51z" stroke="none" fill="#DAEEF3" fill-rule="evenodd" /><g clip-path="url(#48)"><path transform="matrix(1 0 0 -1 0 841)" d="M172.82 513.55L275.44 513.55L275.44 513.55L275.44 532.51L275.44 532.51L172.82 532.51z" stroke="none" fill="#DAEEF3" fill-rule="evenodd" /><g clip-path="url(#49)"></g><g clip-path="url(#50)"></g></g><path transform="matrix(1 0 0 -1 0 841)" d="M281.09 510.43L427.75 510.43L427.75 510.43L427.75 532.51L427.75 532.51L281.09 532.51z" stroke="none" fill="#DAEEF3" fill-rule="evenodd" /><g clip-path="url(#51)"><path transform="matrix(1 0 0 -1 0 841)" d="M286.25 513.55L422.59 513.55L422.59 513.55L422.59 532.51L422.59 532.51L286.25 532.51z" stroke="none" fill="#DAEEF3" fill-rule="evenodd" /><g clip-path="url(#52)"></g><g clip-path="url(#53)"></g></g><path transform="matrix(1 0 0 -1 0 841)" d="M167.18 532.63L167.66 532.63L167.66 532.63L167.66 533.11L167.66 533.11L167.18 533.11z" stroke="none" fill="#000000" fill-rule="evenodd" /><path transform="matrix(1 0 0 -1 0 841)" d="M167.66 532.63L280.6 532.63L280.6 532.63L280.6 533.11L280.6 533.11L167.66 533.11z" stroke="none" fill="#000000" fill-rule="evenodd" /><path transform="matrix(1 0 0 -1 0 841)" d="M280.61 532.63L281.09 532.63L281.09 532.63L281.09 533.11L281.09 533.11L280.61 533.11z" stroke="none" fill="#000000" fill-rule="evenodd" /><path transform="matrix(1 0 0 -1 0 841)" d="M281.09 532.63L427.75 532.63L427.75 532.63L427.75 533.11L427.75 533.11L281.09 533.11z" stroke="none" fill="#000000" fill-rule="evenodd" /><path transform="matrix(1 0 0 -1 0 841)" d="M427.75 532.63L428.23 532.63L428.23 532.63L428.23 533.11L428.23 533.11L427.75 533.11z" stroke="none" fill="#000000" fill-rule="evenodd" /><path transform="matrix(1 0 0 -1 0 841)" d="M167.18 510.43L167.66 510.43L167.66 510.43L167.66 532.63L167.66 532.63L167.18 532.63z" stroke="none" fill="#000000" fill-rule="evenodd" /><path transform="matrix(1 0 0 -1 0 841)" d="M280.61 510.43L281.09 510.43L281.09 510.43L281.09 532.63L281.09 532.63L280.61 532.63z" stroke="none" fill="#000000" fill-rule="evenodd" /><path transform="matrix(1 0 0 -1 0 841)" d="M427.75 510.43L428.23 510.43L428.23 510.43L428.23 532.63L428.23 532.63L427.75 532.63z" stroke="none" fill="#000000" fill-rule="evenodd" /><g clip-path="url(#54)"><g clip-path="url(#55)"></g><g clip-path="url(#56)"></g></g><g clip-path="url(#57)"><g clip-path="url(#58)"></g><g clip-path="url(#59)"></g></g><path transform="matrix(1 0 0 -1 0 841)" d="M167.18 509.95L167.66 509.95L167.66 509.95L167.66 510.43L167.66 510.43L167.18 510.43z" stroke="none" fill="#000000" fill-rule="evenodd" /><path transform="matrix(1 0 0 -1 0 841)" d="M167.66 509.95L280.6 509.95L280.6 509.95L280.6 510.43L280.6 510.43L167.66 510.43z" stroke="none" fill="#000000" fill-rule="evenodd" /><path transform="matrix(1 0 0 -1 0 841)" d="M280.61 509.95L281.09 509.95L281.09 509.95L281.09 510.43L281.09 510.43L280.61 510.43z" stroke="none" fill="#000000" fill-rule="evenodd" /><path transform="matrix(1 0 0 -1 0 841)" d="M281.09 509.95L427.75 509.95L427.75 509.95L427.75 510.43L427.75 510.43L281.09 510.43z" stroke="none" fill="#000000" fill-rule="evenodd" /><path transform="matrix(1 0 0 -1 0 841)" d="M427.75 509.95L428.23 509.95L428.23 509.95L428.23 510.43L428.23 510.43L427.75 510.43z" stroke="none" fill="#000000" fill-rule="evenodd" /><path transform="matrix(1 0 0 -1 0 841)" d="M167.18 487.75L167.66 487.75L167.66 487.75L167.66 509.95L167.66 509.95L167.18 509.95z" stroke="none" fill="#000000" fill-rule="evenodd" /><path transform="matrix(1 0 0 -1 0 841)" d="M280.61 487.75L281.09 487.75L281.09 487.75L281.09 509.95L281.09 509.95L280.61 509.95z" stroke="none" fill="#000000" fill-rule="evenodd" /><path transform="matrix(1 0 0 -1 0 841)" d="M427.75 487.75L428.23 487.75L428.23 487.75L428.23 509.95L428.23 509.95L427.75 509.95z" stroke="none" fill="#000000" fill-rule="evenodd" /><path transform="matrix(1 0 0 -1 0 841)" d="M167.66 465.07L280.6 465.07L280.6 465.07L280.6 487.27L280.6 487.27L167.66 487.27z" stroke="none" fill="#DAEEF3" fill-rule="evenodd" /><g clip-path="url(#60)"><path transform="matrix(1 0 0 -1 0 841)" d="M172.82 468.19L275.44 468.19L275.44 468.19L275.44 487.27L275.44 487.27L172.82 487.27z" stroke="none" fill="#DAEEF3" fill-rule="evenodd" /><g clip-path="url(#61)"></g><g clip-path="url(#62)"></g></g><path transform="matrix(1 0 0 -1 0 841)" d="M281.09 465.07L427.75 465.07L427.75 465.07L427.75 487.27L427.75 487.27L281.09 487.27z" stroke="none" fill="#DAEEF3" fill-rule="evenodd" /><g clip-path="url(#63)"><path transform="matrix(1 0 0 -1 0 841)" d="M286.25 468.19L422.59 468.19L422.59 468.19L422.59 487.27L422.59 487.27L286.25 487.27z" stroke="none" fill="#DAEEF3" fill-rule="evenodd" /><g clip-path="url(#64)"></g><g clip-path="url(#65)"></g></g><path transform="matrix(1 0 0 -1 0 841)" d="M167.18 487.27L167.66 487.27L167.66 487.27L167.66 487.75L167.66 487.75L167.18 487.75z" stroke="none" fill="#000000" fill-rule="evenodd" /><path transform="matrix(1 0 0 -1 0 841)" d="M167.66 487.27L280.6 487.27L280.6 487.27L280.6 487.75L280.6 487.75L167.66 487.75z" stroke="none" fill="#000000" fill-rule="evenodd" /><path transform="matrix(1 0 0 -1 0 841)" d="M280.61 487.27L281.09 487.27L281.09 487.27L281.09 487.75L281.09 487.75L280.61 487.75z" stroke="none" fill="#000000" fill-rule="evenodd" /><path transform="matrix(1 0 0 -1 0 841)" d="M281.09 487.27L427.75 487.27L427.75 487.27L427.75 487.75L427.75 487.75L281.09 487.75z" stroke="none" fill="#000000" fill-rule="evenodd" /><path transform="matrix(1 0 0 -1 0 841)" d="M427.75 487.27L428.23 487.27L428.23 487.27L428.23 487.75L428.23 487.75L427.75 487.75z" stroke="none" fill="#000000" fill-rule="evenodd" /><path transform="matrix(1 0 0 -1 0 841)" d="M167.18 465.07L167.66 465.07L167.66 465.07L167.66 487.27L167.66 487.27L167.18 487.27z" stroke="none" fill="#000000" fill-rule="evenodd" /><path transform="matrix(1 0 0 -1 0 841)" d="M280.61 465.07L281.09 465.07L281.09 465.07L281.09 487.27L281.09 487.27L280.61 487.27z" stroke="none" fill="#000000" fill-rule="evenodd" /><path transform="matrix(1 0 0 -1 0 841)" d="M427.75 465.07L428.23 465.07L428.23 465.07L428.23 487.27L428.23 487.27L427.75 487.27z" stroke="none" fill="#000000" fill-rule="evenodd" /><g clip-path="url(#66)"><g clip-path="url(#67)"></g><g clip-path="url(#68)"></g></g><g clip-path="url(#69)"><g clip-path="url(#70)"></g><g clip-path="url(#71)"></g></g><path transform="matrix(1 0 0 -1 0 841)" d="M167.18 464.59L167.66 464.59L167.66 464.59L167.66 465.07L167.66 465.07L167.18 465.07z" stroke="none" fill="#000000" fill-rule="evenodd" /><path transform="matrix(1 0 0 -1 0 841)" d="M167.66 464.59L280.6 464.59L280.6 464.59L280.6 465.07L280.6 465.07L167.66 465.07z" stroke="none" fill="#000000" fill-rule="evenodd" /><path transform="matrix(1 0 0 -1 0 841)" d="M280.61 464.59L281.09 464.59L281.09 464.59L281.09 465.07L281.09 465.07L280.61 465.07z" stroke="none" fill="#000000" fill-rule="evenodd" /><path transform="matrix(1 0 0 -1 0 841)" d="M281.09 464.59L427.75 464.59L427.75 464.59L427.75 465.07L427.75 465.07L281.09 465.07z" stroke="none" fill="#000000" fill-rule="evenodd" /><path transform="matrix(1 0 0 -1 0 841)" d="M427.75 464.59L428.23 464.59L428.23 464.59L428.23 465.07L428.23 465.07L427.75 465.07z" stroke="none" fill="#000000" fill-rule="evenodd" /><path transform="matrix(1 0 0 -1 0 841)" d="M167.18 442.51L167.66 442.51L167.66 442.51L167.66 464.59L167.66 464.59L167.18 464.59z" stroke="none" fill="#000000" fill-rule="evenodd" /><path transform="matrix(1 0 0 -1 0 841)" d="M280.61 442.51L281.09 442.51L281.09 442.51L281.09 464.59L281.09 464.59L280.61 464.59z" stroke="none" fill="#000000" fill-rule="evenodd" /><path transform="matrix(1 0 0 -1 0 841)" d="M427.75 442.51L428.23 442.51L428.23 442.51L428.23 464.59L428.23 464.59L427.75 464.59z" stroke="none" fill="#000000" fill-rule="evenodd" /><path transform="matrix(1 0 0 -1 0 841)" d="M167.66 419.83L280.6 419.83L280.6 419.83L280.6 441.91L280.6 441.91L167.66 441.91z" stroke="none" fill="#DAEEF3" fill-rule="evenodd" /><g clip-path="url(#72)"><path transform="matrix(1 0 0 -1 0 841)" d="M172.82 422.95L275.44 422.95L275.44 422.95L275.44 441.91L275.44 441.91L172.82 441.91z" stroke="none" fill="#DAEEF3" fill-rule="evenodd" /><g clip-path="url(#73)"></g><g clip-path="url(#74)"></g></g><path transform="matrix(1 0 0 -1 0 841)" d="M281.09 419.83L427.75 419.83L427.75 419.83L427.75 441.91L427.75 441.91L281.09 441.91z" stroke="none" fill="#DAEEF3" fill-rule="evenodd" /><g clip-path="url(#75)"><path transform="matrix(1 0 0 -1 0 841)" d="M286.25 422.95L422.59 422.95L422.59 422.95L422.59 441.91L422.59 441.91L286.25 441.91z" stroke="none" fill="#DAEEF3" fill-rule="evenodd" /><g clip-path="url(#76)"></g><g clip-path="url(#77)"></g></g><path transform="matrix(1 0 0 -1 0 841)" d="M167.18 442.03L167.66 442.03L167.66 442.03L167.66 442.51L167.66 442.51L167.18 442.51z" stroke="none" fill="#000000" fill-rule="evenodd" /><path transform="matrix(1 0 0 -1 0 841)" d="M167.66 442.03L280.6 442.03L280.6 442.03L280.6 442.51L280.6 442.51L167.66 442.51z" stroke="none" fill="#000000" fill-rule="evenodd" /><path transform="matrix(1 0 0 -1 0 841)" d="M280.61 442.03L281.09 442.03L281.09 442.03L281.09 442.51L281.09 442.51L280.61 442.51z" stroke="none" fill="#000000" fill-rule="evenodd" /><path transform="matrix(1 0 0 -1 0 841)" d="M281.09 442.03L427.75 442.03L427.75 442.03L427.75 442.51L427.75 442.51L281.09 442.51z" stroke="none" fill="#000000" fill-rule="evenodd" /><path transform="matrix(1 0 0 -1 0 841)" d="M427.75 442.03L428.23 442.03L428.23 442.03L428.23 442.51L428.23 442.51L427.75 442.51z" stroke="none" fill="#000000" fill-rule="evenodd" /><path transform="matrix(1 0 0 -1 0 841)" d="M167.18 419.83L167.66 419.83L167.66 419.83L167.66 442.03L167.66 442.03L167.18 442.03z" stroke="none" fill="#000000" fill-rule="evenodd" /><path transform="matrix(1 0 0 -1 0 841)" d="M280.61 419.83L281.09 419.83L281.09 419.83L281.09 442.03L281.09 442.03L280.61 442.03z" stroke="none" fill="#000000" fill-rule="evenodd" /><path transform="matrix(1 0 0 -1 0 841)" d="M427.75 419.83L428.23 419.83L428.23 419.83L428.23 442.03L428.23 442.03L427.75 442.03z" stroke="none" fill="#000000" fill-rule="evenodd" /><g clip-path="url(#78)"><g clip-path="url(#79)"></g><g clip-path="url(#80)"></g></g><g clip-path="url(#81)"><g clip-path="url(#82)"></g><g clip-path="url(#83)"></g></g><path transform="matrix(1 0 0 -1 0 841)" d="M167.18 419.35L167.66 419.35L167.66 419.35L167.66 419.83L167.66 419.83L167.18 419.83z" stroke="none" fill="#000000" fill-rule="evenodd" /><path transform="matrix(1 0 0 -1 0 841)" d="M167.66 419.35L280.6 419.35L280.6 419.35L280.6 419.83L280.6 419.83L167.66 419.83z" stroke="none" fill="#000000" fill-rule="evenodd" /><path transform="matrix(1 0 0 -1 0 841)" d="M280.61 419.35L281.09 419.35L281.09 419.35L281.09 419.83L281.09 419.83L280.61 419.83z" stroke="none" fill="#000000" fill-rule="evenodd" /><path transform="matrix(1 0 0 -1 0 841)" d="M281.09 419.35L427.75 419.35L427.75 419.35L427.75 419.83L427.75 419.83L281.09 419.83z" stroke="none" fill="#000000" fill-rule="evenodd" /><path transform="matrix(1 0 0 -1 0 841)" d="M427.75 419.35L428.23 419.35L428.23 419.35L428.23 419.83L428.23 419.83L427.75 419.83z" stroke="none" fill="#000000" fill-rule="evenodd" /><path transform="matrix(1 0 0 -1 0 841)" d="M167.18 397.15L167.66 397.15L167.66 397.15L167.66 419.35L167.66 419.35L167.18 419.35z" stroke="none" fill="#000000" fill-rule="evenodd" /><path transform="matrix(1 0 0 -1 0 841)" d="M280.61 397.15L281.09 397.15L281.09 397.15L281.09 419.35L281.09 419.35L280.61 419.35z" stroke="none" fill="#000000" fill-rule="evenodd" /><path transform="matrix(1 0 0 -1 0 841)" d="M427.75 397.15L428.23 397.15L428.23 397.15L428.23 419.35L428.23 419.35L427.75 419.35z" stroke="none" fill="#000000" fill-rule="evenodd" /><path transform="matrix(1 0 0 -1 0 841)" d="M167.66 374.47L280.6 374.47L280.6 374.47L280.6 396.67L280.6 396.67L167.66 396.67z" stroke="none" fill="#DAEEF3" fill-rule="evenodd" /><g clip-path="url(#84)"><path transform="matrix(1 0 0 -1 0 841)" d="M172.82 377.59L275.44 377.59L275.44 377.59L275.44 396.67L275.44 396.67L172.82 396.67z" stroke="none" fill="#DAEEF3" fill-rule="evenodd" /><g clip-path="url(#85)"></g><g clip-path="url(#86)"></g></g><path transform="matrix(1 0 0 -1 0 841)" d="M281.09 374.47L427.75 374.47L427.75 374.47L427.75 396.67L427.75 396.67L281.09 396.67z" stroke="none" fill="#DAEEF3" fill-rule="evenodd" /><g clip-path="url(#87)"><path transform="matrix(1 0 0 -1 0 841)" d="M286.25 377.59L422.59 377.59L422.59 377.59L422.59 396.67L422.59 396.67L286.25 396.67z" stroke="none" fill="#DAEEF3" fill-rule="evenodd" /><g clip-path="url(#88)"></g><g clip-path="url(#89)"></g></g><path transform="matrix(1 0 0 -1 0 841)" d="M167.18 396.67L167.66 396.67L167.66 396.67L167.66 397.15L167.66 397.15L167.18 397.15z" stroke="none" fill="#000000" fill-rule="evenodd" /><path transform="matrix(1 0 0 -1 0 841)" d="M167.66 396.67L280.6 396.67L280.6 396.67L280.6 397.15L280.6 397.15L167.66 397.15z" stroke="none" fill="#000000" fill-rule="evenodd" /><path transform="matrix(1 0 0 -1 0 841)" d="M280.61 396.67L281.09 396.67L281.09 396.67L281.09 397.15L281.09 397.15L280.61 397.15z" stroke="none" fill="#000000" fill-rule="evenodd" /><path transform="matrix(1 0 0 -1 0 841)" d="M281.09 396.67L427.75 396.67L427.75 396.67L427.75 397.15L427.75 397.15L281.09 397.15z" stroke="none" fill="#000000" fill-rule="evenodd" /><path transform="matrix(1 0 0 -1 0 841)" d="M427.75 396.67L428.23 396.67L428.23 396.67L428.23 397.15L428.23 397.15L427.75 397.15z" stroke="none" fill="#000000" fill-rule="evenodd" /><path transform="matrix(1 0 0 -1 0 841)" d="M167.18 374.47L167.66 374.47L167.66 374.47L167.66 396.67L167.66 396.67L167.18 396.67z" stroke="none" fill="#000000" fill-rule="evenodd" /><path transform="matrix(1 0 0 -1 0 841)" d="M280.61 374.47L281.09 374.47L281.09 374.47L281.09 396.67L281.09 396.67L280.61 396.67z" stroke="none" fill="#000000" fill-rule="evenodd" /><path transform="matrix(1 0 0 -1 0 841)" d="M427.75 374.47L428.23 374.47L428.23 374.47L428.23 396.67L428.23 396.67L427.75 396.67z" stroke="none" fill="#000000" fill-rule="evenodd" /><g clip-path="url(#90)"><g clip-path="url(#91)"></g><g clip-path="url(#92)"></g></g><g clip-path="url(#93)"><g clip-path="url(#94)"></g><g clip-path="url(#95)"></g></g><path transform="matrix(1 0 0 -1 0 841)" d="M167.18 373.99L167.66 373.99L167.66 373.99L167.66 374.47L167.66 374.47L167.18 374.47z" stroke="none" fill="#000000" fill-rule="evenodd" /><path transform="matrix(1 0 0 -1 0 841)" d="M167.66 373.99L280.6 373.99L280.6 373.99L280.6 374.47L280.6 374.47L167.66 374.47z" stroke="none" fill="#000000" fill-rule="evenodd" /><path transform="matrix(1 0 0 -1 0 841)" d="M280.61 373.99L281.09 373.99L281.09 373.99L281.09 374.47L281.09 374.47L280.61 374.47z" stroke="none" fill="#000000" fill-rule="evenodd" /><path transform="matrix(1 0 0 -1 0 841)" d="M281.09 373.99L427.75 373.99L427.75 373.99L427.75 374.47L427.75 374.47L281.09 374.47z" stroke="none" fill="#000000" fill-rule="evenodd" /><path transform="matrix(1 0 0 -1 0 841)" d="M427.75 373.99L428.23 373.99L428.23 373.99L428.23 374.47L428.23 374.47L427.75 374.47z" stroke="none" fill="#000000" fill-rule="evenodd" /><path transform="matrix(1 0 0 -1 0 841)" d="M167.18 351.89L167.66 351.89L167.66 351.89L167.66 373.994L167.66 373.994L167.18 373.994z" stroke="none" fill="#000000" fill-rule="evenodd" /><path transform="matrix(1 0 0 -1 0 841)" d="M280.61 351.89L281.09 351.89L281.09 351.89L281.09 373.994L281.09 373.994L280.61 373.994z" stroke="none" fill="#000000" fill-rule="evenodd" /><path transform="matrix(1 0 0 -1 0 841)" d="M427.75 351.89L428.23 351.89L428.23 351.89L428.23 373.994L428.23 373.994L427.75 373.994z" stroke="none" fill="#000000" fill-rule="evenodd" /><path transform="matrix(1 0 0 -1 0 841)" d="M167.66 329.21L280.6 329.21L280.6 329.21L280.6 351.29L280.6 351.29L167.66 351.29z" stroke="none" fill="#DAEEF3" fill-rule="evenodd" /><g clip-path="url(#96)"><path transform="matrix(1 0 0 -1 0 841)" d="M172.82 332.33L275.44 332.33L275.44 332.33L275.44 351.29L275.44 351.29L172.82 351.29z" stroke="none" fill="#DAEEF3" fill-rule="evenodd" /><g clip-path="url(#97)"></g><g clip-path="url(#98)"></g></g><path transform="matrix(1 0 0 -1 0 841)" d="M281.09 329.21L427.75 329.21L427.75 329.21L427.75 351.29L427.75 351.29L281.09 351.29z" stroke="none" fill="#DAEEF3" fill-rule="evenodd" /><g clip-path="url(#99)"><path transform="matrix(1 0 0 -1 0 841)" d="M286.25 332.33L422.59 332.33L422.59 332.33L422.59 351.29L422.59 351.29L286.25 351.29z" stroke="none" fill="#DAEEF3" fill-rule="evenodd" /><g clip-path="url(#100)"></g><g clip-path="url(#101)"></g></g><path transform="matrix(1 0 0 -1 0 841)" d="M167.18 351.41L167.66 351.41L167.66 351.41L167.66 351.89L167.66 351.89L167.18 351.89z" stroke="none" fill="#000000" fill-rule="evenodd" /><path transform="matrix(1 0 0 -1 0 841)" d="M167.66 351.41L280.6 351.41L280.6 351.41L280.6 351.89L280.6 351.89L167.66 351.89z" stroke="none" fill="#000000" fill-rule="evenodd" /><path transform="matrix(1 0 0 -1 0 841)" d="M280.61 351.41L281.09 351.41L281.09 351.41L281.09 351.89L281.09 351.89L280.61 351.89z" stroke="none" fill="#000000" fill-rule="evenodd" /><path transform="matrix(1 0 0 -1 0 841)" d="M281.09 351.41L427.75 351.41L427.75 351.41L427.75 351.89L427.75 351.89L281.09 351.89z" stroke="none" fill="#000000" fill-rule="evenodd" /><path transform="matrix(1 0 0 -1 0 841)" d="M427.75 351.41L428.23 351.41L428.23 351.41L428.23 351.89L428.23 351.89L427.75 351.89z" stroke="none" fill="#000000" fill-rule="evenodd" /><path transform="matrix(1 0 0 -1 0 841)" d="M167.18 329.21L167.66 329.21L167.66 329.21L167.66 351.41L167.66 351.41L167.18 351.41z" stroke="none" fill="#000000" fill-rule="evenodd" /><path transform="matrix(1 0 0 -1 0 841)" d="M280.61 329.21L281.09 329.21L281.09 329.21L281.09 351.41L281.09 351.41L280.61 351.41z" stroke="none" fill="#000000" fill-rule="evenodd" /><path transform="matrix(1 0 0 -1 0 841)" d="M427.75 329.21L428.23 329.21L428.23 329.21L428.23 351.41L428.23 351.41L427.75 351.41z" stroke="none" fill="#000000" fill-rule="evenodd" /><g clip-path="url(#102)"><g clip-path="url(#103)"></g><g clip-path="url(#104)"></g></g><g clip-path="url(#105)"><g clip-path="url(#106)"></g><g clip-path="url(#107)"></g></g><path transform="matrix(1 0 0 -1 0 841)" d="M167.18 328.73L167.66 328.73L167.66 328.73L167.66 329.2101L167.66 329.2101L167.18 329.2101z" stroke="none" fill="#000000" fill-rule="evenodd" /><path transform="matrix(1 0 0 -1 0 841)" d="M167.66 328.73L280.6 328.73L280.6 328.73L280.6 329.2101L280.6 329.2101L167.66 329.2101z" stroke="none" fill="#000000" fill-rule="evenodd" /><path transform="matrix(1 0 0 -1 0 841)" d="M280.61 328.73L281.09 328.73L281.09 328.73L281.09 329.2101L281.09 329.2101L280.61 329.2101z" stroke="none" fill="#000000" fill-rule="evenodd" /><path transform="matrix(1 0 0 -1 0 841)" d="M281.09 328.73L427.75 328.73L427.75 328.73L427.75 329.2101L427.75 329.2101L281.09 329.2101z" stroke="none" fill="#000000" fill-rule="evenodd" /><path transform="matrix(1 0 0 -1 0 841)" d="M427.75 328.73L428.23 328.73L428.23 328.73L428.23 329.2101L428.23 329.2101L427.75 329.2101z" stroke="none" fill="#000000" fill-rule="evenodd" /><path transform="matrix(1 0 0 -1 0 841)" d="M167.18 306.53L167.66 306.53L167.66 306.53L167.66 328.73L167.66 328.73L167.18 328.73z" stroke="none" fill="#000000" fill-rule="evenodd" /><path transform="matrix(1 0 0 -1 0 841)" d="M280.61 306.53L281.09 306.53L281.09 306.53L281.09 328.73L281.09 328.73L280.61 328.73z" stroke="none" fill="#000000" fill-rule="evenodd" /><path transform="matrix(1 0 0 -1 0 841)" d="M427.75 306.53L428.23 306.53L428.23 306.53L428.23 328.73L428.23 328.73L427.75 328.73z" stroke="none" fill="#000000" fill-rule="evenodd" /><path transform="matrix(1 0 0 -1 0 841)" d="M167.66 283.85L280.6 283.85L280.6 283.85L280.6 306.05L280.6 306.05L167.66 306.05z" stroke="none" fill="#DAEEF3" fill-rule="evenodd" /><g clip-path="url(#108)"><path transform="matrix(1 0 0 -1 0 841)" d="M172.82 286.97L275.44 286.97L275.44 286.97L275.44 306.05L275.44 306.05L172.82 306.05z" stroke="none" fill="#DAEEF3" fill-rule="evenodd" /><g clip-path="url(#109)"></g><g clip-path="url(#110)"></g></g><path transform="matrix(1 0 0 -1 0 841)" d="M281.09 283.85L427.75 283.85L427.75 283.85L427.75 306.05L427.75 306.05L281.09 306.05z" stroke="none" fill="#DAEEF3" fill-rule="evenodd" /><g clip-path="url(#111)"><path transform="matrix(1 0 0 -1 0 841)" d="M286.25 286.97L422.59 286.97L422.59 286.97L422.59 306.05L422.59 306.05L286.25 306.05z" stroke="none" fill="#DAEEF3" fill-rule="evenodd" /><g clip-path="url(#112)"></g><g clip-path="url(#113)"></g></g><path transform="matrix(1 0 0 -1 0 841)" d="M167.18 306.05L167.66 306.05L167.66 306.05L167.66 306.53L167.66 306.53L167.18 306.53z" stroke="none" fill="#000000" fill-rule="evenodd" /><path transform="matrix(1 0 0 -1 0 841)" d="M167.66 306.05L280.6 306.05L280.6 306.05L280.6 306.53L280.6 306.53L167.66 306.53z" stroke="none" fill="#000000" fill-rule="evenodd" /><path transform="matrix(1 0 0 -1 0 841)" d="M280.61 306.05L281.09 306.05L281.09 306.05L281.09 306.53L281.09 306.53L280.61 306.53z" stroke="none" fill="#000000" fill-rule="evenodd" /><path transform="matrix(1 0 0 -1 0 841)" d="M281.09 306.05L427.75 306.05L427.75 306.05L427.75 306.53L427.75 306.53L281.09 306.53z" stroke="none" fill="#000000" fill-rule="evenodd" /><path transform="matrix(1 0 0 -1 0 841)" d="M427.75 306.05L428.23 306.05L428.23 306.05L428.23 306.53L428.23 306.53L427.75 306.53z" stroke="none" fill="#000000" fill-rule="evenodd" /><path transform="matrix(1 0 0 -1 0 841)" d="M167.18 283.85L167.66 283.85L167.66 283.85L167.66 306.05L167.66 306.05L167.18 306.05z" stroke="none" fill="#000000" fill-rule="evenodd" /><path transform="matrix(1 0 0 -1 0 841)" d="M280.61 283.85L281.09 283.85L281.09 283.85L281.09 306.05L281.09 306.05L280.61 306.05z" stroke="none" fill="#000000" fill-rule="evenodd" /><path transform="matrix(1 0 0 -1 0 841)" d="M427.75 283.85L428.23 283.85L428.23 283.85L428.23 306.05L428.23 306.05L427.75 306.05z" stroke="none" fill="#000000" fill-rule="evenodd" /><g clip-path="url(#114)"><g clip-path="url(#115)"></g><g clip-path="url(#116)"></g></g><g clip-path="url(#117)"><g clip-path="url(#118)"></g><g clip-path="url(#119)"></g></g><path transform="matrix(1 0 0 -1 0 841)" d="M167.18 283.37L167.66 283.37L167.66 283.37L167.66 283.85L167.66 283.85L167.18 283.85z" stroke="none" fill="#000000" fill-rule="evenodd" /><path transform="matrix(1 0 0 -1 0 841)" d="M167.66 283.37L280.6 283.37L280.6 283.37L280.6 283.85L280.6 283.85L167.66 283.85z" stroke="none" fill="#000000" fill-rule="evenodd" /><path transform="matrix(1 0 0 -1 0 841)" d="M280.61 283.37L281.09 283.37L281.09 283.37L281.09 283.85L281.09 283.85L280.61 283.85z" stroke="none" fill="#000000" fill-rule="evenodd" /><path transform="matrix(1 0 0 -1 0 841)" d="M281.09 283.37L427.75 283.37L427.75 283.37L427.75 283.85L427.75 283.85L281.09 283.85z" stroke="none" fill="#000000" fill-rule="evenodd" /><path transform="matrix(1 0 0 -1 0 841)" d="M427.75 283.37L428.23 283.37L428.23 283.37L428.23 283.85L428.23 283.85L427.75 283.85z" stroke="none" fill="#000000" fill-rule="evenodd" /><path transform="matrix(1 0 0 -1 0 841)" d="M167.18 261.29L167.66 261.29L167.66 261.29L167.66 283.37L167.66 283.37L167.18 283.37z" stroke="none" fill="#000000" fill-rule="evenodd" /><path transform="matrix(1 0 0 -1 0 841)" d="M280.61 261.29L281.09 261.29L281.09 261.29L281.09 283.37L281.09 283.37L280.61 283.37z" stroke="none" fill="#000000" fill-rule="evenodd" /><path transform="matrix(1 0 0 -1 0 841)" d="M427.75 261.29L428.23 261.29L428.23 261.29L428.23 283.37L428.23 283.37L427.75 283.37z" stroke="none" fill="#000000" fill-rule="evenodd" /><path transform="matrix(1 0 0 -1 0 841)" d="M167.66 238.61L280.6 238.61L280.6 238.61L280.6 260.69L280.6 260.69L167.66 260.69z" stroke="none" fill="#DAEEF3" fill-rule="evenodd" /><g clip-path="url(#120)"><path transform="matrix(1 0 0 -1 0 841)" d="M172.82 241.73L275.44 241.73L275.44 241.73L275.44 260.69L275.44 260.69L172.82 260.69z" stroke="none" fill="#DAEEF3" fill-rule="evenodd" /><g clip-path="url(#121)"></g><g clip-path="url(#122)"></g></g><path transform="matrix(1 0 0 -1 0 841)" d="M281.09 238.61L427.75 238.61L427.75 238.61L427.75 260.69L427.75 260.69L281.09 260.69z" stroke="none" fill="#DAEEF3" fill-rule="evenodd" /><g clip-path="url(#123)"><path transform="matrix(1 0 0 -1 0 841)" d="M286.25 241.73L422.59 241.73L422.59 241.73L422.59 260.69L422.59 260.69L286.25 260.69z" stroke="none" fill="#DAEEF3" fill-rule="evenodd" /><g clip-path="url(#124)"></g><g clip-path="url(#125)"></g></g><path transform="matrix(1 0 0 -1 0 841)" d="M167.18 260.81L167.66 260.81L167.66 260.81L167.66 261.29L167.66 261.29L167.18 261.29z" stroke="none" fill="#000000" fill-rule="evenodd" /><path transform="matrix(1 0 0 -1 0 841)" d="M167.66 260.81L280.6 260.81L280.6 260.81L280.6 261.29L280.6 261.29L167.66 261.29z" stroke="none" fill="#000000" fill-rule="evenodd" /><path transform="matrix(1 0 0 -1 0 841)" d="M280.61 260.81L281.09 260.81L281.09 260.81L281.09 261.29L281.09 261.29L280.61 261.29z" stroke="none" fill="#000000" fill-rule="evenodd" /><path transform="matrix(1 0 0 -1 0 841)" d="M281.09 260.81L427.75 260.81L427.75 260.81L427.75 261.29L427.75 261.29L281.09 261.29z" stroke="none" fill="#000000" fill-rule="evenodd" /><path transform="matrix(1 0 0 -1 0 841)" d="M427.75 260.81L428.23 260.81L428.23 260.81L428.23 261.29L428.23 261.29L427.75 261.29z" stroke="none" fill="#000000" fill-rule="evenodd" /><path transform="matrix(1 0 0 -1 0 841)" d="M167.18 238.61L167.66 238.61L167.66 238.61L167.66 260.81L167.66 260.81L167.18 260.81z" stroke="none" fill="#000000" fill-rule="evenodd" /><path transform="matrix(1 0 0 -1 0 841)" d="M280.61 238.61L281.09 238.61L281.09 238.61L281.09 260.81L281.09 260.81L280.61 260.81z" stroke="none" fill="#000000" fill-rule="evenodd" /><path transform="matrix(1 0 0 -1 0 841)" d="M427.75 238.61L428.23 238.61L428.23 238.61L428.23 260.81L428.23 260.81L427.75 260.81z" stroke="none" fill="#000000" fill-rule="evenodd" /><g clip-path="url(#126)"><g clip-path="url(#127)"></g><g clip-path="url(#128)"></g></g><g clip-path="url(#129)"><g clip-path="url(#130)"></g><g clip-path="url(#131)"></g></g><path transform="matrix(1 0 0 -1 0 841)" d="M167.18 238.13L167.66 238.13L167.66 238.13L167.66 238.61L167.66 238.61L167.18 238.61z" stroke="none" fill="#000000" fill-rule="evenodd" /><path transform="matrix(1 0 0 -1 0 841)" d="M167.66 238.13L280.6 238.13L280.6 238.13L280.6 238.61L280.6 238.61L167.66 238.61z" stroke="none" fill="#000000" fill-rule="evenodd" /><path transform="matrix(1 0 0 -1 0 841)" d="M280.61 238.13L281.09 238.13L281.09 238.13L281.09 238.61L281.09 238.61L280.61 238.61z" stroke="none" fill="#000000" fill-rule="evenodd" /><path transform="matrix(1 0 0 -1 0 841)" d="M281.09 238.13L427.75 238.13L427.75 238.13L427.75 238.61L427.75 238.61L281.09 238.61z" stroke="none" fill="#000000" fill-rule="evenodd" /><path transform="matrix(1 0 0 -1 0 841)" d="M427.75 238.13L428.23 238.13L428.23 238.13L428.23 238.61L428.23 238.61L427.75 238.61z" stroke="none" fill="#000000" fill-rule="evenodd" /><path transform="matrix(1 0 0 -1 0 841)" d="M167.18 215.93L167.66 215.93L167.66 215.93L167.66 238.13L167.66 238.13L167.18 238.13z" stroke="none" fill="#000000" fill-rule="evenodd" /><path transform="matrix(1 0 0 -1 0 841)" d="M280.61 215.93L281.09 215.93L281.09 215.93L281.09 238.13L281.09 238.13L280.61 238.13z" stroke="none" fill="#000000" fill-rule="evenodd" /><path transform="matrix(1 0 0 -1 0 841)" d="M427.75 215.93L428.23 215.93L428.23 215.93L428.23 238.13L428.23 238.13L427.75 238.13z" stroke="none" fill="#000000" fill-rule="evenodd" /><path transform="matrix(1 0 0 -1 0 841)" d="M167.66 193.25L280.6 193.25L280.6 193.25L280.6 215.45L280.6 215.45L167.66 215.45z" stroke="none" fill="#DAEEF3" fill-rule="evenodd" /><g clip-path="url(#132)"><path transform="matrix(1 0 0 -1 0 841)" d="M172.82 196.37L275.44 196.37L275.44 196.37L275.44 215.45L275.44 215.45L172.82 215.45z" stroke="none" fill="#DAEEF3" fill-rule="evenodd" /><g clip-path="url(#133)"></g><g clip-path="url(#134)"></g></g><path transform="matrix(1 0 0 -1 0 841)" d="M281.09 193.25L427.75 193.25L427.75 193.25L427.75 215.45L427.75 215.45L281.09 215.45z" stroke="none" fill="#DAEEF3" fill-rule="evenodd" /><g clip-path="url(#135)"><path transform="matrix(1 0 0 -1 0 841)" d="M286.25 196.37L422.59 196.37L422.59 196.37L422.59 215.45L422.59 215.45L286.25 215.45z" stroke="none" fill="#DAEEF3" fill-rule="evenodd" /><g clip-path="url(#136)"></g><g clip-path="url(#137)"></g></g><path transform="matrix(1 0 0 -1 0 841)" d="M167.18 215.45L167.66 215.45L167.66 215.45L167.66 215.93L167.66 215.93L167.18 215.93z" stroke="none" fill="#000000" fill-rule="evenodd" /><path transform="matrix(1 0 0 -1 0 841)" d="M167.66 215.45L280.6 215.45L280.6 215.45L280.6 215.93L280.6 215.93L167.66 215.93z" stroke="none" fill="#000000" fill-rule="evenodd" /><path transform="matrix(1 0 0 -1 0 841)" d="M280.61 215.45L281.09 215.45L281.09 215.45L281.09 215.93L281.09 215.93L280.61 215.93z" stroke="none" fill="#000000" fill-rule="evenodd" /><path transform="matrix(1 0 0 -1 0 841)" d="M281.09 215.45L427.75 215.45L427.75 215.45L427.75 215.93L427.75 215.93L281.09 215.93z" stroke="none" fill="#000000" fill-rule="evenodd" /><path transform="matrix(1 0 0 -1 0 841)" d="M427.75 215.45L428.23 215.45L428.23 215.45L428.23 215.93L428.23 215.93L427.75 215.93z" stroke="none" fill="#000000" fill-rule="evenodd" /><path transform="matrix(1 0 0 -1 0 841)" d="M167.18 193.25L167.66 193.25L167.66 193.25L167.66 215.45L167.66 215.45L167.18 215.45z" stroke="none" fill="#000000" fill-rule="evenodd" /><path transform="matrix(1 0 0 -1 0 841)" d="M280.61 193.25L281.09 193.25L281.09 193.25L281.09 215.45L281.09 215.45L280.61 215.45z" stroke="none" fill="#000000" fill-rule="evenodd" /><path transform="matrix(1 0 0 -1 0 841)" d="M427.75 193.25L428.23 193.25L428.23 193.25L428.23 215.45L428.23 215.45L427.75 215.45z" stroke="none" fill="#000000" fill-rule="evenodd" /><g clip-path="url(#138)"><g clip-path="url(#139)"></g><g clip-path="url(#140)"></g></g><g clip-path="url(#141)"><g clip-path="url(#142)"></g><g clip-path="url(#143)"></g></g><path transform="matrix(1 0 0 -1 0 841)" d="M167.18 192.77L167.66 192.77L167.66 192.77L167.66 193.25L167.66 193.25L167.18 193.25z" stroke="none" fill="#000000" fill-rule="evenodd" /><path transform="matrix(1 0 0 -1 0 841)" d="M167.66 192.77L280.6 192.77L280.6 192.77L280.6 193.25L280.6 193.25L167.66 193.25z" stroke="none" fill="#000000" fill-rule="evenodd" /><path transform="matrix(1 0 0 -1 0 841)" d="M280.61 192.77L281.09 192.77L281.09 192.77L281.09 193.25L281.09 193.25L280.61 193.25z" stroke="none" fill="#000000" fill-rule="evenodd" /><path transform="matrix(1 0 0 -1 0 841)" d="M281.09 192.77L427.75 192.77L427.75 192.77L427.75 193.25L427.75 193.25L281.09 193.25z" stroke="none" fill="#000000" fill-rule="evenodd" /><path transform="matrix(1 0 0 -1 0 841)" d="M427.75 192.77L428.23 192.77L428.23 192.77L428.23 193.25L428.23 193.25L427.75 193.25z" stroke="none" fill="#000000" fill-rule="evenodd" /><path transform="matrix(1 0 0 -1 0 841)" d="M167.18 170.66L167.66 170.66L167.66 170.66L167.66 192.764L167.66 192.764L167.18 192.764z" stroke="none" fill="#000000" fill-rule="evenodd" /><path transform="matrix(1 0 0 -1 0 841)" d="M280.61 170.66L281.09 170.66L281.09 170.66L281.09 192.764L281.09 192.764L280.61 192.764z" stroke="none" fill="#000000" fill-rule="evenodd" /><path transform="matrix(1 0 0 -1 0 841)" d="M427.75 170.66L428.23 170.66L428.23 170.66L428.23 192.764L428.23 192.764L427.75 192.764z" stroke="none" fill="#000000" fill-rule="evenodd" /><path transform="matrix(1 0 0 -1 0 841)" d="M167.66 147.98L280.6 147.98L280.6 147.98L280.6 170.06L280.6 170.06L167.66 170.06z" stroke="none" fill="#DAEEF3" fill-rule="evenodd" /><g clip-path="url(#144)"><path transform="matrix(1 0 0 -1 0 841)" d="M172.82 151.1L275.44 151.1L275.44 151.1L275.44 170.06L275.44 170.06L172.82 170.06z" stroke="none" fill="#DAEEF3" fill-rule="evenodd" /><g clip-path="url(#145)"></g><g clip-path="url(#146)"></g></g><path transform="matrix(1 0 0 -1 0 841)" d="M281.09 147.98L427.75 147.98L427.75 147.98L427.75 170.06L427.75 170.06L281.09 170.06z" stroke="none" fill="#DAEEF3" fill-rule="evenodd" /><g clip-path="url(#147)"><path transform="matrix(1 0 0 -1 0 841)" d="M286.25 151.1L422.59 151.1L422.59 151.1L422.59 170.06L422.59 170.06L286.25 170.06z" stroke="none" fill="#DAEEF3" fill-rule="evenodd" /><g clip-path="url(#148)"></g><g clip-path="url(#149)"></g></g><path transform="matrix(1 0 0 -1 0 841)" d="M167.18 170.18L167.66 170.18L167.66 170.18L167.66 170.66L167.66 170.66L167.18 170.66z" stroke="none" fill="#000000" fill-rule="evenodd" /><path transform="matrix(1 0 0 -1 0 841)" d="M167.66 170.18L280.6 170.18L280.6 170.18L280.6 170.66L280.6 170.66L167.66 170.66z" stroke="none" fill="#000000" fill-rule="evenodd" /><path transform="matrix(1 0 0 -1 0 841)" d="M280.61 170.18L281.09 170.18L281.09 170.18L281.09 170.66L281.09 170.66L280.61 170.66z" stroke="none" fill="#000000" fill-rule="evenodd" /><path transform="matrix(1 0 0 -1 0 841)" d="M281.09 170.18L427.75 170.18L427.75 170.18L427.75 170.66L427.75 170.66L281.09 170.66z" stroke="none" fill="#000000" fill-rule="evenodd" /><path transform="matrix(1 0 0 -1 0 841)" d="M427.75 170.18L428.23 170.18L428.23 170.18L428.23 170.66L428.23 170.66L427.75 170.66z" stroke="none" fill="#000000" fill-rule="evenodd" /><path transform="matrix(1 0 0 -1 0 841)" d="M167.18 147.98L167.66 147.98L167.66 147.98L167.66 170.18L167.66 170.18L167.18 170.18z" stroke="none" fill="#000000" fill-rule="evenodd" /><path transform="matrix(1 0 0 -1 0 841)" d="M280.61 147.98L281.09 147.98L281.09 147.98L281.09 170.18L281.09 170.18L280.61 170.18z" stroke="none" fill="#000000" fill-rule="evenodd" /><path transform="matrix(1 0 0 -1 0 841)" d="M427.75 147.98L428.23 147.98L428.23 147.98L428.23 170.18L428.23 170.18L427.75 170.18z" stroke="none" fill="#000000" fill-rule="evenodd" /><g clip-path="url(#150)"><g clip-path="url(#151)"></g><g clip-path="url(#152)"></g></g><g clip-path="url(#153)"><g clip-path="url(#154)"></g><g clip-path="url(#155)"></g></g><path transform="matrix(1 0 0 -1 0 841)" d="M167.18 147.5L167.66 147.5L167.66 147.5L167.66 147.98L167.66 147.98L167.18 147.98z" stroke="none" fill="#000000" fill-rule="evenodd" /><path transform="matrix(1 0 0 -1 0 841)" d="M167.66 147.5L280.6 147.5L280.6 147.5L280.6 147.98L280.6 147.98L167.66 147.98z" stroke="none" fill="#000000" fill-rule="evenodd" /><path transform="matrix(1 0 0 -1 0 841)" d="M280.61 147.5L281.09 147.5L281.09 147.5L281.09 147.98L281.09 147.98L280.61 147.98z" stroke="none" fill="#000000" fill-rule="evenodd" /><path transform="matrix(1 0 0 -1 0 841)" d="M281.09 147.5L427.75 147.5L427.75 147.5L427.75 147.98L427.75 147.98L281.09 147.98z" stroke="none" fill="#000000" fill-rule="evenodd" /><path transform="matrix(1 0 0 -1 0 841)" d="M427.75 147.5L428.23 147.5L428.23 147.5L428.23 147.98L428.23 147.98L427.75 147.98z" stroke="none" fill="#000000" fill-rule="evenodd" /><path transform="matrix(1 0 0 -1 0 841)" d="M167.18 125.3L167.66 125.3L167.66 125.3L167.66 147.5L167.66 147.5L167.18 147.5z" stroke="none" fill="#000000" fill-rule="evenodd" /><path transform="matrix(1 0 0 -1 0 841)" d="M167.18 124.82L167.66 124.82L167.66 124.82L167.66 125.3L167.66 125.3L167.18 125.3z" stroke="none" fill="#000000" fill-rule="evenodd" /><path transform="matrix(1 0 0 -1 0 841)" d="M167.18 124.82L167.66 124.82L167.66 124.82L167.66 125.3L167.66 125.3L167.18 125.3z" stroke="none" fill="#000000" fill-rule="evenodd" /><path transform="matrix(1 0 0 -1 0 841)" d="M167.66 124.82L280.6 124.82L280.6 124.82L280.6 125.3L280.6 125.3L167.66 125.3z" stroke="none" fill="#000000" fill-rule="evenodd" /><path transform="matrix(1 0 0 -1 0 841)" d="M280.61 125.3L281.09 125.3L281.09 125.3L281.09 147.5L281.09 147.5L280.61 147.5z" stroke="none" fill="#000000" fill-rule="evenodd" /><path transform="matrix(1 0 0 -1 0 841)" d="M280.61 124.82L281.09 124.82L281.09 124.82L281.09 125.3L281.09 125.3L280.61 125.3z" stroke="none" fill="#000000" fill-rule="evenodd" /><path transform="matrix(1 0 0 -1 0 841)" d="M281.09 124.82L427.75 124.82L427.75 124.82L427.75 125.3L427.75 125.3L281.09 125.3z" stroke="none" fill="#000000" fill-rule="evenodd" /><path transform="matrix(1 0 0 -1 0 841)" d="M427.75 125.3L428.23 125.3L428.23 125.3L428.23 147.5L428.23 147.5L427.75 147.5z" stroke="none" fill="#000000" fill-rule="evenodd" /><path transform="matrix(1 0 0 -1 0 841)" d="M427.75 124.82L428.23 124.82L428.23 124.82L428.23 125.3L428.23 125.3L427.75 125.3z" stroke="none" fill="#000000" fill-rule="evenodd" /><path transform="matrix(1 0 0 -1 0 841)" d="M427.75 124.82L428.23 124.82L428.23 124.82L428.23 125.3L428.23 125.3L427.75 125.3z" stroke="none" fill="#000000" fill-rule="evenodd" /></g></g></g></svg>