<svg xmlns="http://www.w3.org/2000/svg" xmlns:xlink="http://www.w3.org/1999/xlink" id="body_186" preserveAspectRatio="xMinYMin meet" viewBox="0 0 793 1121"><defs><clipPath id="1"><path d="M0 841L0 -0.9199829L0 -0.9199829L595.32 -0.9199829L595.32 -0.9199829L595.32 841L595.32 841L0 841z" /></clipPath><clipPath id="2"><path d="M0.00125 841.0914L595.4112 841.0914L595.4112 841.0914L595.4112 -0.9186401L595.4112 -0.9186401L0.00125 -0.9186401z" /></clipPath><clipPath id="3"><path d="M288.05 781.211L316.01 781.211L316.01 781.211L316.01 762.011L316.01 762.011L288.05 762.011z" /></clipPath><clipPath id="4"><path d="M288.05 781.216L316.01 781.216L316.01 781.216L316.01 762.016L316.01 762.016L288.05 762.016z" /></clipPath><clipPath id="5"><path d="M288.05 781.216L316.01 781.216L316.01 781.216L316.01 762.016L316.01 762.016L288.05 762.016z" /></clipPath><clipPath id="6"><path d="M84.751 108.55L215.091 108.55L215.091 108.55L215.091 89.44L215.091 89.44L84.751 89.44z" /></clipPath><clipPath id="7"><path d="M84.744 108.54L215.084 108.54L215.084 108.54L215.084 89.43597L215.084 89.43597L84.744 89.43597z" /></clipPath><clipPath id="8"><path d="M84.744 108.54L215.084 108.54L215.084 108.54L215.084 89.43597L215.084 89.43597L84.744 89.43597z" /></clipPath><clipPath id="9"><path d="M215.57 108.55L331.61 108.55L331.61 108.55L331.61 89.44L331.61 89.44L215.57 89.44z" /></clipPath><clipPath id="10"><path d="M215.57 108.54L331.61 108.54L331.61 108.54L331.61 89.43597L331.61 89.43597L215.57 89.43597z" /></clipPath><clipPath id="11"><path d="M215.57 108.54L331.61 108.54L331.61 108.54L331.61 89.43597L331.61 89.43597L215.57 89.43597z" /></clipPath><clipPath id="12"><path d="M332.09 108.55L510.7 108.55L510.7 108.55L510.7 89.44L510.7 89.44L332.09 89.44z" /></clipPath><clipPath id="13"><path d="M332.09 108.54L510.7 108.54L510.7 108.54L510.7 89.43597L510.7 89.43597L332.09 89.43597z" /></clipPath><clipPath id="14"><path d="M332.09 108.54L510.7 108.54L510.7 108.54L510.7 89.43597L510.7 89.43597L332.09 89.43597z" /></clipPath><clipPath id="15"><path d="M332.09 737.77L510.7 737.77L510.7 737.77L510.7 109.03L510.7 109.03L332.09 109.03z" /></clipPath><clipPath id="16"><path d="M332.09 737.78L510.7 737.78L510.7 737.78L510.7 109.03L510.7 109.03L332.09 109.03z" /></clipPath><clipPath id="17"><path d="M332.09 737.78L510.7 737.78L510.7 737.78L510.7 109.03L510.7 109.03L332.09 109.03z" /></clipPath><clipPath id="18"><path d="M332.09 737.78L510.7 737.78L510.7 737.78L510.7 109.03L510.7 109.03L332.09 109.03z" /></clipPath><clipPath id="19"><path d="M332.09 737.78L510.7 737.78L510.7 737.78L510.7 109.03L510.7 109.03L332.09 109.03z" /></clipPath><clipPath id="20"><path d="M332.09 737.78L510.7 737.78L510.7 737.78L510.7 109.03L510.7 109.03L332.09 109.03z" /></clipPath><clipPath id="21"><path d="M332.09 737.78L510.7 737.78L510.7 737.78L510.7 109.03L510.7 109.03L332.09 109.03z" /></clipPath><clipPath id="22"><path d="M332.09 737.78L510.7 737.78L510.7 737.78L510.7 109.03L510.7 109.03L332.09 109.03z" /></clipPath><clipPath id="23"><path d="M332.09 737.78L510.7 737.78L510.7 737.78L510.7 109.03L510.7 109.03L332.09 109.03z" /></clipPath><clipPath id="24"><path d="M332.09 737.78L510.7 737.78L510.7 737.78L510.7 109.03L510.7 109.03L332.09 109.03z" /></clipPath><clipPath id="25"><path d="M332.09 737.78L510.7 737.78L510.7 737.78L510.7 109.03L510.7 109.03L332.09 109.03z" /></clipPath><clipPath id="26"><path d="M332.09 737.78L510.7 737.78L510.7 737.78L510.7 109.03L510.7 109.03L332.09 109.03z" /></clipPath><clipPath id="27"><path d="M332.09 737.78L510.7 737.78L510.7 737.78L510.7 109.03L510.7 109.03L332.09 109.03z" /></clipPath><clipPath id="28"><path d="M332.09 737.78L510.7 737.78L510.7 737.78L510.7 109.03L510.7 109.03L332.09 109.03z" /></clipPath><clipPath id="29"><path d="M332.09 737.78L510.7 737.78L510.7 737.78L510.7 109.03L510.7 109.03L332.09 109.03z" /></clipPath><clipPath id="30"><path d="M332.09 737.78L510.7 737.78L510.7 737.78L510.7 109.03L510.7 109.03L332.09 109.03z" /></clipPath><clipPath id="31"><path d="M332.09 737.78L510.7 737.78L510.7 737.78L510.7 109.03L510.7 109.03L332.09 109.03z" /></clipPath><clipPath id="32"><path d="M332.09 737.78L510.7 737.78L510.7 737.78L510.7 109.03L510.7 109.03L332.09 109.03z" /></clipPath><clipPath id="33"><path d="M332.09 737.78L510.7 737.78L510.7 737.78L510.7 109.03L510.7 109.03L332.09 109.03z" /></clipPath><clipPath id="34"><path d="M332.09 737.78L510.7 737.78L510.7 737.78L510.7 109.03L510.7 109.03L332.09 109.03z" /></clipPath><clipPath id="35"><path d="M332.09 737.78L510.7 737.78L510.7 737.78L510.7 109.03L510.7 109.03L332.09 109.03z" /></clipPath><clipPath id="36"><path d="M332.09 737.78L510.7 737.78L510.7 737.78L510.7 109.03L510.7 109.03L332.09 109.03z" /></clipPath><clipPath id="37"><path d="M332.09 737.78L510.7 737.78L510.7 737.78L510.7 109.03L510.7 109.03L332.09 109.03z" /></clipPath><clipPath id="38"><path d="M332.09 737.78L510.7 737.78L510.7 737.78L510.7 109.03L510.7 109.03L332.09 109.03z" /></clipPath><clipPath id="39"><path d="M332.09 737.78L510.7 737.78L510.7 737.78L510.7 109.03L510.7 109.03L332.09 109.03z" /></clipPath><clipPath id="40"><path d="M332.09 737.78L510.7 737.78L510.7 737.78L510.7 109.03L510.7 109.03L332.09 109.03z" /></clipPath><clipPath id="41"><path d="M332.09 737.78L510.7 737.78L510.7 737.78L510.7 109.03L510.7 109.03L332.09 109.03z" /></clipPath><clipPath id="42"><path d="M332.09 737.78L510.7 737.78L510.7 737.78L510.7 109.03L510.7 109.03L332.09 109.03z" /></clipPath><clipPath id="43"><path d="M332.09 737.78L510.7 737.78L510.7 737.78L510.7 109.03L510.7 109.03L332.09 109.03z" /></clipPath><clipPath id="44"><path d="M332.09 737.78L510.7 737.78L510.7 737.78L510.7 109.03L510.7 109.03L332.09 109.03z" /></clipPath><clipPath id="45"><path d="M332.09 737.78L510.7 737.78L510.7 737.78L510.7 109.03L510.7 109.03L332.09 109.03z" /></clipPath><clipPath id="46"><path d="M332.09 737.78L510.7 737.78L510.7 737.78L510.7 109.03L510.7 109.03L332.09 109.03z" /></clipPath><clipPath id="47"><path d="M332.09 737.78L510.7 737.78L510.7 737.78L510.7 109.03L510.7 109.03L332.09 109.03z" /></clipPath><clipPath id="48"><path d="M332.09 737.78L510.7 737.78L510.7 737.78L510.7 109.03L510.7 109.03L332.09 109.03z" /></clipPath><clipPath id="49"><path d="M332.09 737.78L510.7 737.78L510.7 737.78L510.7 109.03L510.7 109.03L332.09 109.03z" /></clipPath><clipPath id="50"><path d="M332.09 737.78L510.7 737.78L510.7 737.78L510.7 109.03L510.7 109.03L332.09 109.03z" /></clipPath><clipPath id="51"><path d="M332.09 737.78L510.7 737.78L510.7 737.78L510.7 109.03L510.7 109.03L332.09 109.03z" /></clipPath><clipPath id="52"><path d="M332.09 737.78L510.7 737.78L510.7 737.78L510.7 109.03L510.7 109.03L332.09 109.03z" /></clipPath><clipPath id="53"><path d="M332.09 737.78L510.7 737.78L510.7 737.78L510.7 109.03L510.7 109.03L332.09 109.03z" /></clipPath><clipPath id="54"><path d="M332.09 737.78L510.7 737.78L510.7 737.78L510.7 109.03L510.7 109.03L332.09 109.03z" /></clipPath><clipPath id="55"><path d="M332.09 737.78L510.7 737.78L510.7 737.78L510.7 109.03L510.7 109.03L332.09 109.03z" /></clipPath><clipPath id="56"><path d="M332.09 737.78L510.7 737.78L510.7 737.78L510.7 109.03L510.7 109.03L332.09 109.03z" /></clipPath><clipPath id="57"><path d="M332.09 737.78L510.7 737.78L510.7 737.78L510.7 109.03L510.7 109.03L332.09 109.03z" /></clipPath><clipPath id="58"><path d="M332.09 737.78L510.7 737.78L510.7 737.78L510.7 109.03L510.7 109.03L332.09 109.03z" /></clipPath><clipPath id="59"><path d="M332.09 737.78L510.7 737.78L510.7 737.78L510.7 109.03L510.7 109.03L332.09 109.03z" /></clipPath><clipPath id="60"><path d="M332.09 737.78L510.7 737.78L510.7 737.78L510.7 109.03L510.7 109.03L332.09 109.03z" /></clipPath><clipPath id="61"><path d="M332.09 737.78L510.7 737.78L510.7 737.78L510.7 109.03L510.7 109.03L332.09 109.03z" /></clipPath><clipPath id="62"><path d="M332.09 737.78L510.7 737.78L510.7 737.78L510.7 109.03L510.7 109.03L332.09 109.03z" /></clipPath><clipPath id="63"><path d="M332.09 737.78L510.7 737.78L510.7 737.78L510.7 109.03L510.7 109.03L332.09 109.03z" /></clipPath><clipPath id="64"><path d="M332.09 737.78L510.7 737.78L510.7 737.78L510.7 109.03L510.7 109.03L332.09 109.03z" /></clipPath><clipPath id="65"><path d="M332.09 737.78L510.7 737.78L510.7 737.78L510.7 109.03L510.7 109.03L332.09 109.03z" /></clipPath><clipPath id="66"><path d="M332.09 737.78L510.7 737.78L510.7 737.78L510.7 109.03L510.7 109.03L332.09 109.03z" /></clipPath><clipPath id="67"><path d="M332.09 737.78L510.7 737.78L510.7 737.78L510.7 109.03L510.7 109.03L332.09 109.03z" /></clipPath><clipPath id="68"><path d="M332.09 737.78L510.7 737.78L510.7 737.78L510.7 109.03L510.7 109.03L332.09 109.03z" /></clipPath><clipPath id="69"><path d="M332.09 737.78L510.7 737.78L510.7 737.78L510.7 109.03L510.7 109.03L332.09 109.03z" /></clipPath><clipPath id="70"><path d="M332.09 737.78L510.7 737.78L510.7 737.78L510.7 109.03L510.7 109.03L332.09 109.03z" /></clipPath><clipPath id="71"><path d="M332.09 737.78L510.7 737.78L510.7 737.78L510.7 109.03L510.7 109.03L332.09 109.03z" /></clipPath><clipPath id="72"><path d="M332.09 737.78L510.7 737.78L510.7 737.78L510.7 109.03L510.7 109.03L332.09 109.03z" /></clipPath><clipPath id="73"><path d="M332.09 737.78L510.7 737.78L510.7 737.78L510.7 109.03L510.7 109.03L332.09 109.03z" /></clipPath><clipPath id="74"><path d="M332.09 737.78L510.7 737.78L510.7 737.78L510.7 109.03L510.7 109.03L332.09 109.03z" /></clipPath><clipPath id="75"><path d="M332.09 737.78L510.7 737.78L510.7 737.78L510.7 109.03L510.7 109.03L332.09 109.03z" /></clipPath><clipPath id="76"><path d="M332.09 737.78L510.7 737.78L510.7 737.78L510.7 109.03L510.7 109.03L332.09 109.03z" /></clipPath><clipPath id="77"><path d="M332.09 737.78L510.7 737.78L510.7 737.78L510.7 109.03L510.7 109.03L332.09 109.03z" /></clipPath><clipPath id="78"><path d="M332.09 737.78L510.7 737.78L510.7 737.78L510.7 109.03L510.7 109.03L332.09 109.03z" /></clipPath><clipPath id="79"><path d="M332.09 737.78L510.7 737.78L510.7 737.78L510.7 109.03L510.7 109.03L332.09 109.03z" /></clipPath><clipPath id="80"><path d="M332.09 737.78L510.7 737.78L510.7 737.78L510.7 109.03L510.7 109.03L332.09 109.03z" /></clipPath><clipPath id="81"><path d="M332.09 737.78L510.7 737.78L510.7 737.78L510.7 109.03L510.7 109.03L332.09 109.03z" /></clipPath><clipPath id="82"><path d="M332.09 737.78L510.7 737.78L510.7 737.78L510.7 109.03L510.7 109.03L332.09 109.03z" /></clipPath><clipPath id="83"><path d="M332.09 737.78L510.7 737.78L510.7 737.78L510.7 109.03L510.7 109.03L332.09 109.03z" /></clipPath><clipPath id="84"><path d="M332.09 737.78L510.7 737.78L510.7 737.78L510.7 109.03L510.7 109.03L332.09 109.03z" /></clipPath><clipPath id="85"><path d="M332.09 737.78L510.7 737.78L510.7 737.78L510.7 109.03L510.7 109.03L332.09 109.03z" /></clipPath><clipPath id="86"><path d="M332.09 737.78L510.7 737.78L510.7 737.78L510.7 109.03L510.7 109.03L332.09 109.03z" /></clipPath><clipPath id="87"><path d="M332.09 737.78L510.7 737.78L510.7 737.78L510.7 109.03L510.7 109.03L332.09 109.03z" /></clipPath><clipPath id="88"><path d="M332.09 737.78L510.7 737.78L510.7 737.78L510.7 109.03L510.7 109.03L332.09 109.03z" /></clipPath><clipPath id="89"><path d="M332.09 737.78L510.7 737.78L510.7 737.78L510.7 109.03L510.7 109.03L332.09 109.03z" /></clipPath><clipPath id="90"><path d="M332.09 737.78L510.7 737.78L510.7 737.78L510.7 109.03L510.7 109.03L332.09 109.03z" /></clipPath><clipPath id="91"><path d="M332.09 737.78L510.7 737.78L510.7 737.78L510.7 109.03L510.7 109.03L332.09 109.03z" /></clipPath><clipPath id="92"><path d="M332.09 737.78L510.7 737.78L510.7 737.78L510.7 109.03L510.7 109.03L332.09 109.03z" /></clipPath><clipPath id="93"><path d="M332.09 737.78L510.7 737.78L510.7 737.78L510.7 109.03L510.7 109.03L332.09 109.03z" /></clipPath><clipPath id="94"><path d="M332.09 737.78L510.7 737.78L510.7 737.78L510.7 109.03L510.7 109.03L332.09 109.03z" /></clipPath><clipPath id="95"><path d="M332.09 737.78L510.7 737.78L510.7 737.78L510.7 109.03L510.7 109.03L332.09 109.03z" /></clipPath><clipPath id="96"><path d="M332.09 737.78L510.7 737.78L510.7 737.78L510.7 109.03L510.7 109.03L332.09 109.03z" /></clipPath><clipPath id="97"><path d="M332.09 737.78L510.7 737.78L510.7 737.78L510.7 109.03L510.7 109.03L332.09 109.03z" /></clipPath><clipPath id="98"><path d="M332.09 737.78L510.7 737.78L510.7 737.78L510.7 109.03L510.7 109.03L332.09 109.03z" /></clipPath><clipPath id="99"><path d="M332.09 737.78L510.7 737.78L510.7 737.78L510.7 109.03L510.7 109.03L332.09 109.03z" /></clipPath><clipPath id="100"><path d="M332.09 737.78L510.7 737.78L510.7 737.78L510.7 109.03L510.7 109.03L332.09 109.03z" /></clipPath><clipPath id="101"><path d="M332.09 737.78L510.7 737.78L510.7 737.78L510.7 109.03L510.7 109.03L332.09 109.03z" /></clipPath><clipPath id="102"><path d="M332.09 737.78L510.7 737.78L510.7 737.78L510.7 109.03L510.7 109.03L332.09 109.03z" /></clipPath><clipPath id="103"><path d="M332.09 737.78L510.7 737.78L510.7 737.78L510.7 109.03L510.7 109.03L332.09 109.03z" /></clipPath><clipPath id="104"><path d="M332.09 737.78L510.7 737.78L510.7 737.78L510.7 109.03L510.7 109.03L332.09 109.03z" /></clipPath><clipPath id="105"><path d="M332.09 737.78L510.7 737.78L510.7 737.78L510.7 109.03L510.7 109.03L332.09 109.03z" /></clipPath><clipPath id="106"><path d="M332.09 737.78L510.7 737.78L510.7 737.78L510.7 109.03L510.7 109.03L332.09 109.03z" /></clipPath><clipPath id="107"><path d="M332.09 737.78L510.7 737.78L510.7 737.78L510.7 109.03L510.7 109.03L332.09 109.03z" /></clipPath><clipPath id="108"><path d="M332.09 737.78L510.7 737.78L510.7 737.78L510.7 109.03L510.7 109.03L332.09 109.03z" /></clipPath><clipPath id="109"><path d="M332.09 737.78L510.7 737.78L510.7 737.78L510.7 109.03L510.7 109.03L332.09 109.03z" /></clipPath><clipPath id="110"><path d="M332.09 737.78L510.7 737.78L510.7 737.78L510.7 109.03L510.7 109.03L332.09 109.03z" /></clipPath><clipPath id="111"><path d="M332.09 737.78L510.7 737.78L510.7 737.78L510.7 109.03L510.7 109.03L332.09 109.03z" /></clipPath><clipPath id="112"><path d="M332.09 737.78L510.7 737.78L510.7 737.78L510.7 109.03L510.7 109.03L332.09 109.03z" /></clipPath><clipPath id="113"><path d="M332.09 737.78L510.7 737.78L510.7 737.78L510.7 109.03L510.7 109.03L332.09 109.03z" /></clipPath><clipPath id="114"><path d="M332.09 737.78L510.7 737.78L510.7 737.78L510.7 109.03L510.7 109.03L332.09 109.03z" /></clipPath><clipPath id="115"><path d="M332.09 737.78L510.7 737.78L510.7 737.78L510.7 109.03L510.7 109.03L332.09 109.03z" /></clipPath><clipPath id="116"><path d="M332.09 737.78L510.7 737.78L510.7 737.78L510.7 109.03L510.7 109.03L332.09 109.03z" /></clipPath><clipPath id="117"><path d="M332.09 737.78L510.7 737.78L510.7 737.78L510.7 109.03L510.7 109.03L332.09 109.03z" /></clipPath><clipPath id="118"><path d="M332.09 737.78L510.7 737.78L510.7 737.78L510.7 109.03L510.7 109.03L332.09 109.03z" /></clipPath><clipPath id="119"><path d="M332.09 737.78L510.7 737.78L510.7 737.78L510.7 109.03L510.7 109.03L332.09 109.03z" /></clipPath><clipPath id="120"><path d="M332.09 737.78L510.7 737.78L510.7 737.78L510.7 109.03L510.7 109.03L332.09 109.03z" /></clipPath><clipPath id="121"><path d="M332.09 737.78L510.7 737.78L510.7 737.78L510.7 109.03L510.7 109.03L332.09 109.03z" /></clipPath><clipPath id="122"><path d="M332.09 737.78L510.7 737.78L510.7 737.78L510.7 109.03L510.7 109.03L332.09 109.03z" /></clipPath><clipPath id="123"><path d="M332.09 737.78L510.7 737.78L510.7 737.78L510.7 109.03L510.7 109.03L332.09 109.03z" /></clipPath><clipPath id="124"><path d="M332.09 737.78L510.7 737.78L510.7 737.78L510.7 109.03L510.7 109.03L332.09 109.03z" /></clipPath><clipPath id="125"><path d="M332.09 737.78L510.7 737.78L510.7 737.78L510.7 109.03L510.7 109.03L332.09 109.03z" /></clipPath><clipPath id="126"><path d="M332.09 737.78L510.7 737.78L510.7 737.78L510.7 109.03L510.7 109.03L332.09 109.03z" /></clipPath><clipPath id="127"><path d="M332.09 737.78L510.7 737.78L510.7 737.78L510.7 109.03L510.7 109.03L332.09 109.03z" /></clipPath><clipPath id="128"><path d="M332.09 737.78L510.7 737.78L510.7 737.78L510.7 109.03L510.7 109.03L332.09 109.03z" /></clipPath><clipPath id="129"><path d="M332.09 737.78L510.7 737.78L510.7 737.78L510.7 109.03L510.7 109.03L332.09 109.03z" /></clipPath><clipPath id="130"><path d="M332.09 737.78L510.7 737.78L510.7 737.78L510.7 109.03L510.7 109.03L332.09 109.03z" /></clipPath><clipPath id="131"><path d="M332.09 737.78L510.7 737.78L510.7 737.78L510.7 109.03L510.7 109.03L332.09 109.03z" /></clipPath><clipPath id="132"><path d="M332.09 737.78L510.7 737.78L510.7 737.78L510.7 109.03L510.7 109.03L332.09 109.03z" /></clipPath><clipPath id="133"><path d="M332.09 737.78L510.7 737.78L510.7 737.78L510.7 109.03L510.7 109.03L332.09 109.03z" /></clipPath><clipPath id="134"><path d="M332.09 737.78L510.7 737.78L510.7 737.78L510.7 109.03L510.7 109.03L332.09 109.03z" /></clipPath><clipPath id="135"><path d="M332.09 737.78L510.7 737.78L510.7 737.78L510.7 109.03L510.7 109.03L332.09 109.03z" /></clipPath><clipPath id="136"><path d="M332.09 737.78L510.7 737.78L510.7 737.78L510.7 109.03L510.7 109.03L332.09 109.03z" /></clipPath><clipPath id="137"><path d="M332.09 737.78L510.7 737.78L510.7 737.78L510.7 109.03L510.7 109.03L332.09 109.03z" /></clipPath><clipPath id="138"><path d="M332.09 737.78L510.7 737.78L510.7 737.78L510.7 109.03L510.7 109.03L332.09 109.03z" /></clipPath><clipPath id="139"><path d="M332.09 737.78L510.7 737.78L510.7 737.78L510.7 109.03L510.7 109.03L332.09 109.03z" /></clipPath><clipPath id="140"><path d="M332.09 737.78L510.7 737.78L510.7 737.78L510.7 109.03L510.7 109.03L332.09 109.03z" /></clipPath><clipPath id="141"><path d="M332.09 737.78L510.7 737.78L510.7 737.78L510.7 109.03L510.7 109.03L332.09 109.03z" /></clipPath><clipPath id="142"><path d="M332.09 737.78L510.7 737.78L510.7 737.78L510.7 109.03L510.7 109.03L332.09 109.03z" /></clipPath><clipPath id="143"><path d="M332.09 737.78L510.7 737.78L510.7 737.78L510.7 109.03L510.7 109.03L332.09 109.03z" /></clipPath><clipPath id="144"><path d="M332.09 737.78L510.7 737.78L510.7 737.78L510.7 109.03L510.7 109.03L332.09 109.03z" /></clipPath><clipPath id="145"><path d="M332.09 737.78L510.7 737.78L510.7 737.78L510.7 109.03L510.7 109.03L332.09 109.03z" /></clipPath><clipPath id="146"><path d="M332.09 737.78L510.7 737.78L510.7 737.78L510.7 109.03L510.7 109.03L332.09 109.03z" /></clipPath><clipPath id="147"><path d="M332.09 737.78L510.7 737.78L510.7 737.78L510.7 109.03L510.7 109.03L332.09 109.03z" /></clipPath><clipPath id="148"><path d="M332.09 737.78L510.7 737.78L510.7 737.78L510.7 109.03L510.7 109.03L332.09 109.03z" /></clipPath><clipPath id="149"><path d="M332.09 737.78L510.7 737.78L510.7 737.78L510.7 109.03L510.7 109.03L332.09 109.03z" /></clipPath><clipPath id="150"><path d="M332.09 737.78L510.7 737.78L510.7 737.78L510.7 109.03L510.7 109.03L332.09 109.03z" /></clipPath><clipPath id="151"><path d="M332.09 737.78L510.7 737.78L510.7 737.78L510.7 109.03L510.7 109.03L332.09 109.03z" /></clipPath><clipPath id="152"><path d="M332.09 737.78L510.7 737.78L510.7 737.78L510.7 109.03L510.7 109.03L332.09 109.03z" /></clipPath><clipPath id="153"><path d="M332.09 737.78L510.7 737.78L510.7 737.78L510.7 109.03L510.7 109.03L332.09 109.03z" /></clipPath><clipPath id="154"><path d="M332.09 737.78L510.7 737.78L510.7 737.78L510.7 109.03L510.7 109.03L332.09 109.03z" /></clipPath><clipPath id="155"><path d="M332.09 737.78L510.7 737.78L510.7 737.78L510.7 109.03L510.7 109.03L332.09 109.03z" /></clipPath><clipPath id="156"><path d="M332.09 737.78L510.7 737.78L510.7 737.78L510.7 109.03L510.7 109.03L332.09 109.03z" /></clipPath><clipPath id="157"><path d="M332.09 737.78L510.7 737.78L510.7 737.78L510.7 109.03L510.7 109.03L332.09 109.03z" /></clipPath><clipPath id="158"><path d="M332.09 737.78L510.7 737.78L510.7 737.78L510.7 109.03L510.7 109.03L332.09 109.03z" /></clipPath></defs><g transform="matrix(1.333333 0 0 1.333333 0 0)"><g><g clip-path="url(#1)"><path transform="matrix(1 0 0 -1 0 841)" d="M457.51 53.304L505.534 53.304L505.534 53.304L505.534 53.90404L505.534 53.90404L457.51 53.90404z" stroke="none" fill="#000000" fill-rule="evenodd" /><g clip-path="url(#2)"><path transform="matrix(1 0 0 -1 0 841)" d="M88.464 77.904L506.974 77.904L506.974 77.904L506.974 80.904L506.974 80.904L88.464 80.904z" stroke="none" fill="#000000" fill-rule="evenodd" /><path transform="matrix(1 0 0 -1 0 841)" d="M88.464 76.464L506.974 76.464L506.974 76.464L506.974 77.18397L506.974 77.18397L88.464 77.18397z" stroke="none" fill="#000000" fill-rule="evenodd" /></g><g clip-path="url(#3)"><g clip-path="url(#4)"></g><g clip-path="url(#5)"></g></g><path transform="matrix(1 0 0 -1 0 841)" d="M84.744 732.46L215.084 732.46L215.084 732.46L215.084 751.564L215.084 751.564L84.744 751.564z" stroke="none" fill="#0070C0" fill-rule="evenodd" /><g clip-path="url(#6)"><path transform="matrix(1 0 0 -1 0 841)" d="M89.904 732.46L209.924 732.46L209.924 732.46L209.924 751.564L209.924 751.564L89.904 751.564z" stroke="none" fill="#0070C0" fill-rule="evenodd" /><g clip-path="url(#7)"></g><g clip-path="url(#8)"></g></g><path transform="matrix(1 0 0 -1 0 841)" d="M215.57 732.46L331.61 732.46L331.61 732.46L331.61 751.564L331.61 751.564L215.57 751.564z" stroke="none" fill="#0070C0" fill-rule="evenodd" /><g clip-path="url(#9)"><path transform="matrix(1 0 0 -1 0 841)" d="M220.73 732.46L326.45 732.46L326.45 732.46L326.45 751.564L326.45 751.564L220.73 751.564z" stroke="none" fill="#0070C0" fill-rule="evenodd" /><g clip-path="url(#10)"></g><g clip-path="url(#11)"></g></g><path transform="matrix(1 0 0 -1 0 841)" d="M332.09 732.46L510.7 732.46L510.7 732.46L510.7 751.564L510.7 751.564L332.09 751.564z" stroke="none" fill="#0070C0" fill-rule="evenodd" /><g clip-path="url(#12)"><path transform="matrix(1 0 0 -1 0 841)" d="M337.27 732.46L505.53 732.46L505.53 732.46L505.53 751.564L505.53 751.564L337.27 751.564z" stroke="none" fill="#0070C0" fill-rule="evenodd" /><g clip-path="url(#13)"></g><g clip-path="url(#14)"></g></g><path transform="matrix(1 0 0 -1 0 841)" d="M84.264 751.56L84.744 751.56L84.744 751.56L84.744 752.04L84.744 752.04L84.264 752.04z" stroke="none" fill="#000000" fill-rule="evenodd" /><path transform="matrix(1 0 0 -1 0 841)" d="M84.264 751.56L84.744 751.56L84.744 751.56L84.744 752.04L84.744 752.04L84.264 752.04z" stroke="none" fill="#000000" fill-rule="evenodd" /><path transform="matrix(1 0 0 -1 0 841)" d="M84.744 751.56L215.084 751.56L215.084 751.56L215.084 752.04L215.084 752.04L84.744 752.04z" stroke="none" fill="#000000" fill-rule="evenodd" /><path transform="matrix(1 0 0 -1 0 841)" d="M215.09 751.56L215.57 751.56L215.57 751.56L215.57 752.04L215.57 752.04L215.09 752.04z" stroke="none" fill="#000000" fill-rule="evenodd" /><path transform="matrix(1 0 0 -1 0 841)" d="M215.57 751.56L331.61 751.56L331.61 751.56L331.61 752.04L331.61 752.04L215.57 752.04z" stroke="none" fill="#000000" fill-rule="evenodd" /><path transform="matrix(1 0 0 -1 0 841)" d="M331.61 751.56L332.09 751.56L332.09 751.56L332.09 752.04L332.09 752.04L331.61 752.04z" stroke="none" fill="#000000" fill-rule="evenodd" /><path transform="matrix(1 0 0 -1 0 841)" d="M332.09 751.56L510.7 751.56L510.7 751.56L510.7 752.04L510.7 752.04L332.09 752.04z" stroke="none" fill="#000000" fill-rule="evenodd" /><path transform="matrix(1 0 0 -1 0 841)" d="M510.7 751.56L511.18 751.56L511.18 751.56L511.18 752.04L511.18 752.04L510.7 752.04z" stroke="none" fill="#000000" fill-rule="evenodd" /><path transform="matrix(1 0 0 -1 0 841)" d="M510.7 751.56L511.18 751.56L511.18 751.56L511.18 752.04L511.18 752.04L510.7 752.04z" stroke="none" fill="#000000" fill-rule="evenodd" /><path transform="matrix(1 0 0 -1 0 841)" d="M84.264 732.46L84.744 732.46L84.744 732.46L84.744 751.564L84.744 751.564L84.264 751.564z" stroke="none" fill="#000000" fill-rule="evenodd" /><path transform="matrix(1 0 0 -1 0 841)" d="M215.09 732.46L215.57 732.46L215.57 732.46L215.57 751.564L215.57 751.564L215.09 751.564z" stroke="none" fill="#000000" fill-rule="evenodd" /><path transform="matrix(1 0 0 -1 0 841)" d="M331.61 732.46L332.09 732.46L332.09 732.46L332.09 751.564L332.09 751.564L331.61 751.564z" stroke="none" fill="#000000" fill-rule="evenodd" /><path transform="matrix(1 0 0 -1 0 841)" d="M510.7 732.46L511.18 732.46L511.18 732.46L511.18 751.564L511.18 751.564L510.7 751.564z" stroke="none" fill="#000000" fill-rule="evenodd" /><path transform="matrix(1 0 0 -1 0 841)" d="M84.744 103.22L215.084 103.22L215.084 103.22L215.084 731.97L215.084 731.97L84.744 731.97z" stroke="none" fill="#DAEEF3" fill-rule="evenodd" /><path transform="matrix(1 0 0 -1 0 841)" d="M215.57 103.22L331.61 103.22L331.61 103.22L331.61 731.97L331.61 731.97L215.57 731.97z" stroke="none" fill="#DAEEF3" fill-rule="evenodd" /><path transform="matrix(1 0 0 -1 0 841)" d="M332.09 103.22L510.7 103.22L510.7 103.22L510.7 731.97L510.7 731.97L332.09 731.97z" stroke="none" fill="#DAEEF3" fill-rule="evenodd" /><g clip-path="url(#15)"><path transform="matrix(1 0 0 -1 0 841)" d="M337.27 712.9L505.53 712.9L505.53 712.9L505.53 731.98L505.53 731.98L337.27 731.98z" stroke="none" fill="#DAEEF3" fill-rule="evenodd" /><g clip-path="url(#16)"></g><g clip-path="url(#17)"></g><g clip-path="url(#18)"></g><g clip-path="url(#19)"></g><g clip-path="url(#20)"></g><path transform="matrix(1 0 0 -1 0 841)" d="M337.27 693.94L505.53 693.94L505.53 693.94L505.53 712.9L505.53 712.9L337.27 712.9z" stroke="none" fill="#DAEEF3" fill-rule="evenodd" /><g clip-path="url(#21)"></g><g clip-path="url(#22)"></g><g clip-path="url(#23)"></g><g clip-path="url(#24)"></g><g clip-path="url(#25)"></g><path transform="matrix(1 0 0 -1 0 841)" d="M337.27 674.86L505.53 674.86L505.53 674.86L505.53 693.94L505.53 693.94L337.27 693.94z" stroke="none" fill="#DAEEF3" fill-rule="evenodd" /><g clip-path="url(#26)"></g><g clip-path="url(#27)"></g><g clip-path="url(#28)"></g><g clip-path="url(#29)"></g><g clip-path="url(#30)"></g><path transform="matrix(1 0 0 -1 0 841)" d="M337.27 655.78L505.53 655.78L505.53 655.78L505.53 674.86L505.53 674.86L337.27 674.86z" stroke="none" fill="#DAEEF3" fill-rule="evenodd" /><g clip-path="url(#31)"></g><g clip-path="url(#32)"></g><g clip-path="url(#33)"></g><g clip-path="url(#34)"></g><g clip-path="url(#35)"></g><path transform="matrix(1 0 0 -1 0 841)" d="M337.27 636.7L505.53 636.7L505.53 636.7L505.53 655.78L505.53 655.78L337.27 655.78z" stroke="none" fill="#DAEEF3" fill-rule="evenodd" /><g clip-path="url(#36)"></g><g clip-path="url(#37)"></g><g clip-path="url(#38)"></g><g clip-path="url(#39)"></g><g clip-path="url(#40)"></g><path transform="matrix(1 0 0 -1 0 841)" d="M337.27 617.74L505.53 617.74L505.53 617.74L505.53 636.7L505.53 636.7L337.27 636.7z" stroke="none" fill="#DAEEF3" fill-rule="evenodd" /><g clip-path="url(#41)"></g><g clip-path="url(#42)"></g><g clip-path="url(#43)"></g><g clip-path="url(#44)"></g><g clip-path="url(#45)"></g><path transform="matrix(1 0 0 -1 0 841)" d="M337.27 598.66L505.53 598.66L505.53 598.66L505.53 617.74L505.53 617.74L337.27 617.74z" stroke="none" fill="#DAEEF3" fill-rule="evenodd" /><g clip-path="url(#46)"></g><g clip-path="url(#47)"></g><g clip-path="url(#48)"></g><g clip-path="url(#49)"></g><g clip-path="url(#50)"></g><path transform="matrix(1 0 0 -1 0 841)" d="M337.27 579.58L505.53 579.58L505.53 579.58L505.53 598.66L505.53 598.66L337.27 598.66z" stroke="none" fill="#DAEEF3" fill-rule="evenodd" /><g clip-path="url(#51)"></g><g clip-path="url(#52)"></g><g clip-path="url(#53)"></g><path transform="matrix(1 0 0 -1 0 841)" d="M337.27 560.5L505.53 560.5L505.53 560.5L505.53 579.58L505.53 579.58L337.27 579.58z" stroke="none" fill="#DAEEF3" fill-rule="evenodd" /><g clip-path="url(#54)"></g><g clip-path="url(#55)"></g><g clip-path="url(#56)"></g><path transform="matrix(1 0 0 -1 0 841)" d="M337.27 541.51L505.53 541.51L505.53 541.51L505.53 560.494L505.53 560.494L337.27 560.494z" stroke="none" fill="#DAEEF3" fill-rule="evenodd" /><g clip-path="url(#57)"></g><g clip-path="url(#58)"></g><g clip-path="url(#59)"></g><path transform="matrix(1 0 0 -1 0 841)" d="M337.27 522.43L505.53 522.43L505.53 522.43L505.53 541.51L505.53 541.51L337.27 541.51z" stroke="none" fill="#DAEEF3" fill-rule="evenodd" /><g clip-path="url(#60)"></g><g clip-path="url(#61)"></g><g clip-path="url(#62)"></g><path transform="matrix(1 0 0 -1 0 841)" d="M337.27 503.35L505.53 503.35L505.53 503.35L505.53 522.43L505.53 522.43L337.27 522.43z" stroke="none" fill="#DAEEF3" fill-rule="evenodd" /><g clip-path="url(#63)"></g><g clip-path="url(#64)"></g><g clip-path="url(#65)"></g><path transform="matrix(1 0 0 -1 0 841)" d="M337.27 484.27L505.53 484.27L505.53 484.27L505.53 503.35L505.53 503.35L337.27 503.35z" stroke="none" fill="#DAEEF3" fill-rule="evenodd" /><g clip-path="url(#66)"></g><g clip-path="url(#67)"></g><g clip-path="url(#68)"></g><path transform="matrix(1 0 0 -1 0 841)" d="M337.27 465.31L505.53 465.31L505.53 465.31L505.53 484.27L505.53 484.27L337.27 484.27z" stroke="none" fill="#DAEEF3" fill-rule="evenodd" /><g clip-path="url(#69)"></g><g clip-path="url(#70)"></g><g clip-path="url(#71)"></g><path transform="matrix(1 0 0 -1 0 841)" d="M337.27 446.23L505.53 446.23L505.53 446.23L505.53 465.31L505.53 465.31L337.27 465.31z" stroke="none" fill="#DAEEF3" fill-rule="evenodd" /><g clip-path="url(#72)"></g><g clip-path="url(#73)"></g><g clip-path="url(#74)"></g><path transform="matrix(1 0 0 -1 0 841)" d="M337.27 427.15L505.53 427.15L505.53 427.15L505.53 446.23L505.53 446.23L337.27 446.23z" stroke="none" fill="#DAEEF3" fill-rule="evenodd" /><g clip-path="url(#75)"></g><g clip-path="url(#76)"></g><g clip-path="url(#77)"></g><path transform="matrix(1 0 0 -1 0 841)" d="M337.27 408.07L505.53 408.07L505.53 408.07L505.53 427.15L505.53 427.15L337.27 427.15z" stroke="none" fill="#DAEEF3" fill-rule="evenodd" /><g clip-path="url(#78)"></g><g clip-path="url(#79)"></g><g clip-path="url(#80)"></g><path transform="matrix(1 0 0 -1 0 841)" d="M337.27 389.11L505.53 389.11L505.53 389.11L505.53 408.07L505.53 408.07L337.27 408.07z" stroke="none" fill="#DAEEF3" fill-rule="evenodd" /><g clip-path="url(#81)"></g><g clip-path="url(#82)"></g><g clip-path="url(#83)"></g><path transform="matrix(1 0 0 -1 0 841)" d="M337.27 370.01L505.53 370.01L505.53 370.01L505.53 389.114L505.53 389.114L337.27 389.114z" stroke="none" fill="#DAEEF3" fill-rule="evenodd" /><g clip-path="url(#84)"></g><g clip-path="url(#85)"></g><g clip-path="url(#86)"></g><path transform="matrix(1 0 0 -1 0 841)" d="M337.27 350.93L505.53 350.93L505.53 350.93L505.53 370.01L505.53 370.01L337.27 370.01z" stroke="none" fill="#DAEEF3" fill-rule="evenodd" /><g clip-path="url(#87)"></g><g clip-path="url(#88)"></g><g clip-path="url(#89)"></g><path transform="matrix(1 0 0 -1 0 841)" d="M337.27 331.85L505.53 331.85L505.53 331.85L505.53 350.93L505.53 350.93L337.27 350.93z" stroke="none" fill="#DAEEF3" fill-rule="evenodd" /><g clip-path="url(#90)"></g><g clip-path="url(#91)"></g><g clip-path="url(#92)"></g><path transform="matrix(1 0 0 -1 0 841)" d="M337.27 312.89L505.53 312.89L505.53 312.89L505.53 331.85L505.53 331.85L337.27 331.85z" stroke="none" fill="#DAEEF3" fill-rule="evenodd" /><g clip-path="url(#93)"></g><g clip-path="url(#94)"></g><g clip-path="url(#95)"></g><path transform="matrix(1 0 0 -1 0 841)" d="M337.27 293.81L505.53 293.81L505.53 293.81L505.53 312.89L505.53 312.89L337.27 312.89z" stroke="none" fill="#DAEEF3" fill-rule="evenodd" /><g clip-path="url(#96)"></g><g clip-path="url(#97)"></g><g clip-path="url(#98)"></g><path transform="matrix(1 0 0 -1 0 841)" d="M337.27 274.73L505.53 274.73L505.53 274.73L505.53 293.81L505.53 293.81L337.27 293.81z" stroke="none" fill="#DAEEF3" fill-rule="evenodd" /><g clip-path="url(#99)"></g><g clip-path="url(#100)"></g><g clip-path="url(#101)"></g><g clip-path="url(#102)"></g><g clip-path="url(#103)"></g><path transform="matrix(1 0 0 -1 0 841)" d="M337.27 255.65L505.53 255.65L505.53 255.65L505.53 274.73L505.53 274.73L337.27 274.73z" stroke="none" fill="#DAEEF3" fill-rule="evenodd" /><g clip-path="url(#104)"></g><g clip-path="url(#105)"></g><g clip-path="url(#106)"></g><g clip-path="url(#107)"></g><g clip-path="url(#108)"></g><path transform="matrix(1 0 0 -1 0 841)" d="M337.27 236.69L505.53 236.69L505.53 236.69L505.53 255.65L505.53 255.65L337.27 255.65z" stroke="none" fill="#DAEEF3" fill-rule="evenodd" /><g clip-path="url(#109)"></g><g clip-path="url(#110)"></g><g clip-path="url(#111)"></g><g clip-path="url(#112)"></g><g clip-path="url(#113)"></g><path transform="matrix(1 0 0 -1 0 841)" d="M337.27 217.61L505.53 217.61L505.53 217.61L505.53 236.69L505.53 236.69L337.27 236.69z" stroke="none" fill="#DAEEF3" fill-rule="evenodd" /><g clip-path="url(#114)"></g><g clip-path="url(#115)"></g><g clip-path="url(#116)"></g><g clip-path="url(#117)"></g><g clip-path="url(#118)"></g><path transform="matrix(1 0 0 -1 0 841)" d="M337.27 198.53L505.53 198.53L505.53 198.53L505.53 217.61L505.53 217.61L337.27 217.61z" stroke="none" fill="#DAEEF3" fill-rule="evenodd" /><g clip-path="url(#119)"></g><g clip-path="url(#120)"></g><g clip-path="url(#121)"></g><g clip-path="url(#122)"></g><g clip-path="url(#123)"></g><path transform="matrix(1 0 0 -1 0 841)" d="M337.27 179.42L505.53 179.42L505.53 179.42L505.53 198.524L505.53 198.524L337.27 198.524z" stroke="none" fill="#DAEEF3" fill-rule="evenodd" /><g clip-path="url(#124)"></g><g clip-path="url(#125)"></g><g clip-path="url(#126)"></g><g clip-path="url(#127)"></g><g clip-path="url(#128)"></g><g clip-path="url(#129)"></g><g clip-path="url(#130)"></g><path transform="matrix(1 0 0 -1 0 841)" d="M337.27 160.46L505.53 160.46L505.53 160.46L505.53 179.42L505.53 179.42L337.27 179.42z" stroke="none" fill="#DAEEF3" fill-rule="evenodd" /><g clip-path="url(#131)"></g><g clip-path="url(#132)"></g><g clip-path="url(#133)"></g><g clip-path="url(#134)"></g><g clip-path="url(#135)"></g><g clip-path="url(#136)"></g><g clip-path="url(#137)"></g><path transform="matrix(1 0 0 -1 0 841)" d="M337.27 141.38L505.53 141.38L505.53 141.38L505.53 160.46L505.53 160.46L337.27 160.46z" stroke="none" fill="#DAEEF3" fill-rule="evenodd" /><g clip-path="url(#138)"></g><g clip-path="url(#139)"></g><g clip-path="url(#140)"></g><g clip-path="url(#141)"></g><g clip-path="url(#142)"></g><g clip-path="url(#143)"></g><g clip-path="url(#144)"></g><path transform="matrix(1 0 0 -1 0 841)" d="M337.27 122.3L505.53 122.3L505.53 122.3L505.53 141.38L505.53 141.38L337.27 141.38z" stroke="none" fill="#DAEEF3" fill-rule="evenodd" /><g clip-path="url(#145)"></g><g clip-path="url(#146)"></g><g clip-path="url(#147)"></g><g clip-path="url(#148)"></g><g clip-path="url(#149)"></g><g clip-path="url(#150)"></g><g clip-path="url(#151)"></g><path transform="matrix(1 0 0 -1 0 841)" d="M337.27 103.22L505.53 103.22L505.53 103.22L505.53 122.3L505.53 122.3L337.27 122.3z" stroke="none" fill="#DAEEF3" fill-rule="evenodd" /><g clip-path="url(#152)"></g><g clip-path="url(#153)"></g><g clip-path="url(#154)"></g><g clip-path="url(#155)"></g><g clip-path="url(#156)"></g><g clip-path="url(#157)"></g><g clip-path="url(#158)"></g></g><path transform="matrix(1 0 0 -1 0 841)" d="M84.264 731.98L84.744 731.98L84.744 731.98L84.744 732.46L84.744 732.46L84.264 732.46z" stroke="none" fill="#000000" fill-rule="evenodd" /><path transform="matrix(1 0 0 -1 0 841)" d="M84.744 731.98L215.084 731.98L215.084 731.98L215.084 732.46L215.084 732.46L84.744 732.46z" stroke="none" fill="#000000" fill-rule="evenodd" /><path transform="matrix(1 0 0 -1 0 841)" d="M215.09 731.98L215.57 731.98L215.57 731.98L215.57 732.46L215.57 732.46L215.09 732.46z" stroke="none" fill="#000000" fill-rule="evenodd" /><path transform="matrix(1 0 0 -1 0 841)" d="M215.57 731.98L331.61 731.98L331.61 731.98L331.61 732.46L331.61 732.46L215.57 732.46z" stroke="none" fill="#000000" fill-rule="evenodd" /><path transform="matrix(1 0 0 -1 0 841)" d="M331.61 731.98L332.09 731.98L332.09 731.98L332.09 732.46L332.09 732.46L331.61 732.46z" stroke="none" fill="#000000" fill-rule="evenodd" /><path transform="matrix(1 0 0 -1 0 841)" d="M332.09 731.98L510.7 731.98L510.7 731.98L510.7 732.46L510.7 732.46L332.09 732.46z" stroke="none" fill="#000000" fill-rule="evenodd" /><path transform="matrix(1 0 0 -1 0 841)" d="M510.7 731.98L511.18 731.98L511.18 731.98L511.18 732.46L511.18 732.46L510.7 732.46z" stroke="none" fill="#000000" fill-rule="evenodd" /><path transform="matrix(1 0 0 -1 0 841)" d="M84.264 103.22L84.744 103.22L84.744 103.22L84.744 731.97L84.744 731.97L84.264 731.97z" stroke="none" fill="#000000" fill-rule="evenodd" /><path transform="matrix(1 0 0 -1 0 841)" d="M84.264 102.74L84.744 102.74L84.744 102.74L84.744 103.22L84.744 103.22L84.264 103.22z" stroke="none" fill="#000000" fill-rule="evenodd" /><path transform="matrix(1 0 0 -1 0 841)" d="M84.264 102.74L84.744 102.74L84.744 102.74L84.744 103.22L84.744 103.22L84.264 103.22z" stroke="none" fill="#000000" fill-rule="evenodd" /><path transform="matrix(1 0 0 -1 0 841)" d="M84.744 102.74L215.084 102.74L215.084 102.74L215.084 103.22L215.084 103.22L84.744 103.22z" stroke="none" fill="#000000" fill-rule="evenodd" /><path transform="matrix(1 0 0 -1 0 841)" d="M215.09 103.22L215.57 103.22L215.57 103.22L215.57 731.97L215.57 731.97L215.09 731.97z" stroke="none" fill="#000000" fill-rule="evenodd" /><path transform="matrix(1 0 0 -1 0 841)" d="M215.09 102.74L215.57 102.74L215.57 102.74L215.57 103.22L215.57 103.22L215.09 103.22z" stroke="none" fill="#000000" fill-rule="evenodd" /><path transform="matrix(1 0 0 -1 0 841)" d="M215.57 102.74L331.61 102.74L331.61 102.74L331.61 103.22L331.61 103.22L215.57 103.22z" stroke="none" fill="#000000" fill-rule="evenodd" /><path transform="matrix(1 0 0 -1 0 841)" d="M331.61 103.22L332.09 103.22L332.09 103.22L332.09 731.97L332.09 731.97L331.61 731.97z" stroke="none" fill="#000000" fill-rule="evenodd" /><path transform="matrix(1 0 0 -1 0 841)" d="M331.61 102.74L332.09 102.74L332.09 102.74L332.09 103.22L332.09 103.22L331.61 103.22z" stroke="none" fill="#000000" fill-rule="evenodd" /><path transform="matrix(1 0 0 -1 0 841)" d="M332.09 102.74L510.7 102.74L510.7 102.74L510.7 103.22L510.7 103.22L332.09 103.22z" stroke="none" fill="#000000" fill-rule="evenodd" /><path transform="matrix(1 0 0 -1 0 841)" d="M510.7 103.22L511.18 103.22L511.18 103.22L511.18 731.97L511.18 731.97L510.7 731.97z" stroke="none" fill="#000000" fill-rule="evenodd" /><path transform="matrix(1 0 0 -1 0 841)" d="M510.7 102.74L511.18 102.74L511.18 102.74L511.18 103.22L511.18 103.22L510.7 103.22z" stroke="none" fill="#000000" fill-rule="evenodd" /><path transform="matrix(1 0 0 -1 0 841)" d="M510.7 102.74L511.18 102.74L511.18 102.74L511.18 103.22L511.18 103.22L510.7 103.22z" stroke="none" fill="#000000" fill-rule="evenodd" /></g></g></g></svg>