<svg xmlns="http://www.w3.org/2000/svg" xmlns:xlink="http://www.w3.org/1999/xlink" id="body_173" preserveAspectRatio="xMinYMin meet" viewBox="0 0 793 1121"><defs><clipPath id="1"><path d="M0 841L0 -0.9199829L0 -0.9199829L595.32 -0.9199829L595.32 -0.9199829L595.32 841L595.32 841L0 841z" /></clipPath><clipPath id="2"><path d="M0.00125 841.0914L595.4112 841.0914L595.4112 841.0914L595.4112 -0.9186401L595.4112 -0.9186401L0.00125 -0.9186401z" /></clipPath><clipPath id="3"><path d="M288.05 781.211L316.01 781.211L316.01 781.211L316.01 762.011L316.01 762.011L288.05 762.011z" /></clipPath><clipPath id="4"><path d="M288.05 781.216L316.01 781.216L316.01 781.216L316.01 762.016L316.01 762.016L288.05 762.016z" /></clipPath><clipPath id="5"><path d="M288.05 781.216L316.01 781.216L316.01 781.216L316.01 762.016L316.01 762.016L288.05 762.016z" /></clipPath><clipPath id="6"><path d="M84.751 330.57L173.071 330.57L173.071 330.57L173.071 290.01L173.071 290.01L84.751 290.01z" /></clipPath><clipPath id="7"><path d="M84.744 330.57L173.064 330.57L173.064 330.57L173.064 290.01L173.064 290.01L84.744 290.01z" /></clipPath><clipPath id="8"><path d="M84.744 330.57L173.064 330.57L173.064 330.57L173.064 290.01L173.064 290.01L84.744 290.01z" /></clipPath><clipPath id="9"><path d="M173.55 330.57L224.925 330.57L224.925 330.57L224.925 290.01L224.925 290.01L173.55 290.01z" /></clipPath><clipPath id="10"><path d="M173.54 330.57L224.924 330.57L224.924 330.57L224.924 290.01L224.924 290.01L173.54 290.01z" /></clipPath><clipPath id="11"><path d="M173.54 330.57L224.924 330.57L224.924 330.57L224.924 290.01L224.924 290.01L173.54 290.01z" /></clipPath><clipPath id="12"><path d="M225.41 330.57L264.41 330.57L264.41 330.57L264.41 290.01L264.41 290.01L225.41 290.01z" /></clipPath><clipPath id="13"><path d="M225.41 330.57L264.41 330.57L264.41 330.57L264.41 290.01L264.41 290.01L225.41 290.01z" /></clipPath><clipPath id="14"><path d="M225.41 330.57L264.41 330.57L264.41 330.57L264.41 290.01L264.41 290.01L225.41 290.01z" /></clipPath><clipPath id="15"><path d="M225.41 330.57L264.41 330.57L264.41 330.57L264.41 290.01L264.41 290.01L225.41 290.01z" /></clipPath><clipPath id="16"><path d="M265.01 330.57L342.08 330.57L342.08 330.57L342.08 290.01L342.08 290.01L265.01 290.01z" /></clipPath><clipPath id="17"><path d="M265.01 330.57L342.074 330.57L342.074 330.57L342.074 290.01L342.074 290.01L265.01 290.01z" /></clipPath><clipPath id="18"><path d="M265.01 330.57L342.074 330.57L342.074 330.57L342.074 290.01L342.074 290.01L265.01 290.01z" /></clipPath><clipPath id="19"><path d="M342.68 330.57L509.26 330.57L509.26 330.57L509.26 290.01L509.26 290.01L342.68 290.01z" /></clipPath><clipPath id="20"><path d="M342.67 330.57L509.25 330.57L509.25 330.57L509.25 290.01L509.25 290.01L342.67 290.01z" /></clipPath><clipPath id="21"><path d="M342.67 330.57L509.25 330.57L509.25 330.57L509.25 290.01L509.25 290.01L342.67 290.01z" /></clipPath><clipPath id="22"><path d="M84.751 356.13L173.071 356.13L173.071 356.13L173.071 331.17L173.071 331.17L84.751 331.17z" /></clipPath><clipPath id="23"><path d="M84.744 356.13L173.064 356.13L173.064 356.13L173.064 331.17L173.064 331.17L84.744 331.17z" /></clipPath><clipPath id="24"><path d="M84.744 356.13L173.064 356.13L173.064 356.13L173.064 331.17L173.064 331.17L84.744 331.17z" /></clipPath><clipPath id="25"><path d="M173.55 356.13L224.925 356.13L224.925 356.13L224.925 331.17L224.925 331.17L173.55 331.17z" /></clipPath><clipPath id="26"><path d="M173.54 356.13L224.924 356.13L224.924 356.13L224.924 331.17L224.924 331.17L173.54 331.17z" /></clipPath><clipPath id="27"><path d="M173.54 356.13L224.924 356.13L224.924 356.13L224.924 331.17L224.924 331.17L173.54 331.17z" /></clipPath><clipPath id="28"><path d="M225.41 356.13L264.41 356.13L264.41 356.13L264.41 331.17L264.41 331.17L225.41 331.17z" /></clipPath><clipPath id="29"><path d="M225.41 356.13L264.41 356.13L264.41 356.13L264.41 331.17L264.41 331.17L225.41 331.17z" /></clipPath><clipPath id="30"><path d="M225.41 356.13L264.41 356.13L264.41 356.13L264.41 331.17L264.41 331.17L225.41 331.17z" /></clipPath><clipPath id="31"><path d="M265.01 356.13L342.08 356.13L342.08 356.13L342.08 331.17L342.08 331.17L265.01 331.17z" /></clipPath><clipPath id="32"><path d="M265.01 356.13L342.074 356.13L342.074 356.13L342.074 331.17L342.074 331.17L265.01 331.17z" /></clipPath><clipPath id="33"><path d="M265.01 356.13L342.074 356.13L342.074 356.13L342.074 331.17L342.074 331.17L265.01 331.17z" /></clipPath><clipPath id="34"><path d="M342.68 356.13L509.26 356.13L509.26 356.13L509.26 331.17L509.26 331.17L342.68 331.17z" /></clipPath><clipPath id="35"><path d="M342.67 356.13L509.25 356.13L509.25 356.13L509.25 331.17L509.25 331.17L342.67 331.17z" /></clipPath><clipPath id="36"><path d="M342.67 356.13L509.25 356.13L509.25 356.13L509.25 331.17L509.25 331.17L342.67 331.17z" /></clipPath><clipPath id="37"><path d="M84.751 381.69L173.071 381.69L173.071 381.69L173.071 356.73L173.071 356.73L84.751 356.73z" /></clipPath><clipPath id="38"><path d="M84.744 381.69L173.064 381.69L173.064 381.69L173.064 356.73L173.064 356.73L84.744 356.73z" /></clipPath><clipPath id="39"><path d="M84.744 381.69L173.064 381.69L173.064 381.69L173.064 356.73L173.064 356.73L84.744 356.73z" /></clipPath><clipPath id="40"><path d="M173.55 381.69L224.925 381.69L224.925 381.69L224.925 356.73L224.925 356.73L173.55 356.73z" /></clipPath><clipPath id="41"><path d="M173.54 381.69L224.924 381.69L224.924 381.69L224.924 356.73L224.924 356.73L173.54 356.73z" /></clipPath><clipPath id="42"><path d="M173.54 381.69L224.924 381.69L224.924 381.69L224.924 356.73L224.924 356.73L173.54 356.73z" /></clipPath><clipPath id="43"><path d="M225.41 381.69L264.41 381.69L264.41 381.69L264.41 356.73L264.41 356.73L225.41 356.73z" /></clipPath><clipPath id="44"><path d="M225.41 381.69L264.41 381.69L264.41 381.69L264.41 356.73L264.41 356.73L225.41 356.73z" /></clipPath><clipPath id="45"><path d="M225.41 381.69L264.41 381.69L264.41 381.69L264.41 356.73L264.41 356.73L225.41 356.73z" /></clipPath><clipPath id="46"><path d="M265.01 381.69L342.08 381.69L342.08 381.69L342.08 356.73L342.08 356.73L265.01 356.73z" /></clipPath><clipPath id="47"><path d="M265.01 381.69L342.074 381.69L342.074 381.69L342.074 356.73L342.074 356.73L265.01 356.73z" /></clipPath><clipPath id="48"><path d="M265.01 381.69L342.074 381.69L342.074 381.69L342.074 356.73L342.074 356.73L265.01 356.73z" /></clipPath><clipPath id="49"><path d="M265.01 381.69L342.074 381.69L342.074 381.69L342.074 356.73L342.074 356.73L265.01 356.73z" /></clipPath><clipPath id="50"><path d="M342.68 381.69L509.26 381.69L509.26 381.69L509.26 356.73L509.26 356.73L342.68 356.73z" /></clipPath><clipPath id="51"><path d="M342.67 381.69L509.25 381.69L509.25 381.69L509.25 356.73L509.25 356.73L342.67 356.73z" /></clipPath><clipPath id="52"><path d="M342.67 381.69L509.25 381.69L509.25 381.69L509.25 356.73L509.25 356.73L342.67 356.73z" /></clipPath><clipPath id="53"><path d="M342.67 381.69L509.25 381.69L509.25 381.69L509.25 356.73L509.25 356.73L342.67 356.73z" /></clipPath><clipPath id="54"><path d="M342.67 381.69L509.25 381.69L509.25 381.69L509.25 356.73L509.25 356.73L342.67 356.73z" /></clipPath><clipPath id="55"><path d="M84.751 443.13L173.071 443.13L173.071 443.13L173.071 382.29L173.071 382.29L84.751 382.29z" /></clipPath><clipPath id="56"><path d="M84.744 443.13L173.064 443.13L173.064 443.13L173.064 382.29L173.064 382.29L84.744 382.29z" /></clipPath><clipPath id="57"><path d="M84.744 443.13L173.064 443.13L173.064 443.13L173.064 382.29L173.064 382.29L84.744 382.29z" /></clipPath><clipPath id="58"><path d="M173.55 443.13L224.925 443.13L224.925 443.13L224.925 382.29L224.925 382.29L173.55 382.29z" /></clipPath><clipPath id="59"><path d="M173.54 443.13L224.924 443.13L224.924 443.13L224.924 382.29L224.924 382.29L173.54 382.29z" /></clipPath><clipPath id="60"><path d="M173.54 443.13L224.924 443.13L224.924 443.13L224.924 382.29L224.924 382.29L173.54 382.29z" /></clipPath><clipPath id="61"><path d="M225.41 443.13L264.41 443.13L264.41 443.13L264.41 382.29L264.41 382.29L225.41 382.29z" /></clipPath><clipPath id="62"><path d="M225.41 443.13L264.41 443.13L264.41 443.13L264.41 382.29L264.41 382.29L225.41 382.29z" /></clipPath><clipPath id="63"><path d="M225.41 443.13L264.41 443.13L264.41 443.13L264.41 382.29L264.41 382.29L225.41 382.29z" /></clipPath><clipPath id="64"><path d="M265.01 443.13L342.08 443.13L342.08 443.13L342.08 382.29L342.08 382.29L265.01 382.29z" /></clipPath><clipPath id="65"><path d="M265.01 443.13L342.074 443.13L342.074 443.13L342.074 382.29L342.074 382.29L265.01 382.29z" /></clipPath><clipPath id="66"><path d="M265.01 443.13L342.074 443.13L342.074 443.13L342.074 382.29L342.074 382.29L265.01 382.29z" /></clipPath><clipPath id="67"><path d="M342.68 443.13L509.26 443.13L509.26 443.13L509.26 382.29L509.26 382.29L342.68 382.29z" /></clipPath><clipPath id="68"><path d="M342.67 443.13L509.25 443.13L509.25 443.13L509.25 382.29L509.25 382.29L342.67 382.29z" /></clipPath><clipPath id="69"><path d="M342.67 443.13L509.25 443.13L509.25 443.13L509.25 382.29L509.25 382.29L342.67 382.29z" /></clipPath><clipPath id="70"><path d="M342.67 443.13L509.25 443.13L509.25 443.13L509.25 382.29L509.25 382.29L342.67 382.29z" /></clipPath><clipPath id="71"><path d="M342.67 443.13L509.25 443.13L509.25 443.13L509.25 382.29L509.25 382.29L342.67 382.29z" /></clipPath><clipPath id="72"><path d="M342.67 443.13L509.25 443.13L509.25 443.13L509.25 382.29L509.25 382.29L342.67 382.29z" /></clipPath><clipPath id="73"><path d="M342.67 443.13L509.25 443.13L509.25 443.13L509.25 382.29L509.25 382.29L342.67 382.29z" /></clipPath><clipPath id="74"><path d="M342.67 443.13L509.25 443.13L509.25 443.13L509.25 382.29L509.25 382.29L342.67 382.29z" /></clipPath><clipPath id="75"><path d="M84.751 504.6L173.071 504.6L173.071 504.6L173.071 443.73L173.071 443.73L84.751 443.73z" /></clipPath><clipPath id="76"><path d="M84.744 504.59L173.064 504.59L173.064 504.59L173.064 443.726L173.064 443.726L84.744 443.726z" /></clipPath><clipPath id="77"><path d="M84.744 504.59L173.064 504.59L173.064 504.59L173.064 443.726L173.064 443.726L84.744 443.726z" /></clipPath><clipPath id="78"><path d="M173.55 504.6L224.925 504.6L224.925 504.6L224.925 443.73L224.925 443.73L173.55 443.73z" /></clipPath><clipPath id="79"><path d="M173.54 504.59L224.924 504.59L224.924 504.59L224.924 443.726L224.924 443.726L173.54 443.726z" /></clipPath><clipPath id="80"><path d="M173.54 504.59L224.924 504.59L224.924 504.59L224.924 443.726L224.924 443.726L173.54 443.726z" /></clipPath><clipPath id="81"><path d="M225.41 504.6L264.41 504.6L264.41 504.6L264.41 443.73L264.41 443.73L225.41 443.73z" /></clipPath><clipPath id="82"><path d="M225.41 504.59L264.41 504.59L264.41 504.59L264.41 443.726L264.41 443.726L225.41 443.726z" /></clipPath><clipPath id="83"><path d="M225.41 504.59L264.41 504.59L264.41 504.59L264.41 443.726L264.41 443.726L225.41 443.726z" /></clipPath><clipPath id="84"><path d="M265.01 504.6L342.08 504.6L342.08 504.6L342.08 443.73L342.08 443.73L265.01 443.73z" /></clipPath><clipPath id="85"><path d="M265.01 504.59L342.074 504.59L342.074 504.59L342.074 443.726L342.074 443.726L265.01 443.726z" /></clipPath><clipPath id="86"><path d="M342.68 504.6L509.26 504.6L509.26 504.6L509.26 443.73L509.26 443.73L342.68 443.73z" /></clipPath><clipPath id="87"><path d="M342.67 504.59L509.25 504.59L509.25 504.59L509.25 443.726L509.25 443.726L342.67 443.726z" /></clipPath><clipPath id="88"><path d="M342.67 504.59L509.25 504.59L509.25 504.59L509.25 443.726L509.25 443.726L342.67 443.726z" /></clipPath><clipPath id="89"><path d="M342.67 504.59L509.25 504.59L509.25 504.59L509.25 443.726L509.25 443.726L342.67 443.726z" /></clipPath><clipPath id="90"><path d="M342.67 504.59L509.25 504.59L509.25 504.59L509.25 443.726L509.25 443.726L342.67 443.726z" /></clipPath><clipPath id="91"><path d="M342.67 504.59L509.25 504.59L509.25 504.59L509.25 443.726L509.25 443.726L342.67 443.726z" /></clipPath><clipPath id="92"><path d="M342.67 504.59L509.25 504.59L509.25 504.59L509.25 443.726L509.25 443.726L342.67 443.726z" /></clipPath><clipPath id="93"><path d="M342.67 504.59L509.25 504.59L509.25 504.59L509.25 443.726L509.25 443.726L342.67 443.726z" /></clipPath><clipPath id="94"><path d="M342.67 504.59L509.25 504.59L509.25 504.59L509.25 443.726L509.25 443.726L342.67 443.726z" /></clipPath><clipPath id="95"><path d="M84.751 582.24L173.071 582.24L173.071 582.24L173.071 505.2L173.071 505.2L84.751 505.2z" /></clipPath><clipPath id="96"><path d="M84.744 582.23L173.064 582.23L173.064 582.23L173.064 505.19L173.064 505.19L84.744 505.19z" /></clipPath><clipPath id="97"><path d="M84.744 582.23L173.064 582.23L173.064 582.23L173.064 505.19L173.064 505.19L84.744 505.19z" /></clipPath><clipPath id="98"><path d="M173.55 582.24L224.925 582.24L224.925 582.24L224.925 505.2L224.925 505.2L173.55 505.2z" /></clipPath><clipPath id="99"><path d="M173.54 582.23L224.924 582.23L224.924 582.23L224.924 505.19L224.924 505.19L173.54 505.19z" /></clipPath><clipPath id="100"><path d="M173.54 582.23L224.924 582.23L224.924 582.23L224.924 505.19L224.924 505.19L173.54 505.19z" /></clipPath><clipPath id="101"><path d="M225.41 582.24L264.41 582.24L264.41 582.24L264.41 505.2L264.41 505.2L225.41 505.2z" /></clipPath><clipPath id="102"><path d="M225.41 582.23L264.41 582.23L264.41 582.23L264.41 505.19L264.41 505.19L225.41 505.19z" /></clipPath><clipPath id="103"><path d="M225.41 582.23L264.41 582.23L264.41 582.23L264.41 505.19L264.41 505.19L225.41 505.19z" /></clipPath><clipPath id="104"><path d="M265.01 582.24L342.08 582.24L342.08 582.24L342.08 505.2L342.08 505.2L265.01 505.2z" /></clipPath><clipPath id="105"><path d="M265.01 582.23L342.074 582.23L342.074 582.23L342.074 505.19L342.074 505.19L265.01 505.19z" /></clipPath><clipPath id="106"><path d="M342.68 582.24L509.26 582.24L509.26 582.24L509.26 505.2L509.26 505.2L342.68 505.2z" /></clipPath><clipPath id="107"><path d="M342.67 582.23L509.25 582.23L509.25 582.23L509.25 505.19L509.25 505.19L342.67 505.19z" /></clipPath><clipPath id="108"><path d="M342.67 582.23L509.25 582.23L509.25 582.23L509.25 505.19L509.25 505.19L342.67 505.19z" /></clipPath><clipPath id="109"><path d="M342.67 582.23L509.25 582.23L509.25 582.23L509.25 505.19L509.25 505.19L342.67 505.19z" /></clipPath><clipPath id="110"><path d="M342.67 582.23L509.25 582.23L509.25 582.23L509.25 505.19L509.25 505.19L342.67 505.19z" /></clipPath><clipPath id="111"><path d="M342.67 582.23L509.25 582.23L509.25 582.23L509.25 505.19L509.25 505.19L342.67 505.19z" /></clipPath><clipPath id="112"><path d="M342.67 582.23L509.25 582.23L509.25 582.23L509.25 505.19L509.25 505.19L342.67 505.19z" /></clipPath><clipPath id="113"><path d="M342.67 582.23L509.25 582.23L509.25 582.23L509.25 505.19L509.25 505.19L342.67 505.19z" /></clipPath><clipPath id="114"><path d="M342.67 582.23L509.25 582.23L509.25 582.23L509.25 505.19L509.25 505.19L342.67 505.19z" /></clipPath><clipPath id="115"><path d="M342.67 582.23L509.25 582.23L509.25 582.23L509.25 505.19L509.25 505.19L342.67 505.19z" /></clipPath><clipPath id="116"><path d="M342.67 582.23L509.25 582.23L509.25 582.23L509.25 505.19L509.25 505.19L342.67 505.19z" /></clipPath><clipPath id="117"><path d="M342.67 582.23L509.25 582.23L509.25 582.23L509.25 505.19L509.25 505.19L342.67 505.19z" /></clipPath><clipPath id="118"><path d="M342.67 582.23L509.25 582.23L509.25 582.23L509.25 505.19L509.25 505.19L342.67 505.19z" /></clipPath><clipPath id="119"><path d="M84.751 607.8L173.071 607.8L173.071 607.8L173.071 582.72L173.071 582.72L84.751 582.72z" /></clipPath><clipPath id="120"><path d="M84.744 607.79L173.064 607.79L173.064 607.79L173.064 582.71L173.064 582.71L84.744 582.71z" /></clipPath><clipPath id="121"><path d="M84.744 607.79L173.064 607.79L173.064 607.79L173.064 582.71L173.064 582.71L84.744 582.71z" /></clipPath><clipPath id="122"><path d="M173.55 607.8L224.925 607.8L224.925 607.8L224.925 582.72L224.925 582.72L173.55 582.72z" /></clipPath><clipPath id="123"><path d="M173.54 607.79L224.924 607.79L224.924 607.79L224.924 582.71L224.924 582.71L173.54 582.71z" /></clipPath><clipPath id="124"><path d="M173.54 607.79L224.924 607.79L224.924 607.79L224.924 582.71L224.924 582.71L173.54 582.71z" /></clipPath><clipPath id="125"><path d="M225.41 607.8L264.41 607.8L264.41 607.8L264.41 582.72L264.41 582.72L225.41 582.72z" /></clipPath><clipPath id="126"><path d="M225.41 607.79L264.41 607.79L264.41 607.79L264.41 582.71L264.41 582.71L225.41 582.71z" /></clipPath><clipPath id="127"><path d="M225.41 607.79L264.41 607.79L264.41 607.79L264.41 582.71L264.41 582.71L225.41 582.71z" /></clipPath><clipPath id="128"><path d="M265.01 607.8L342.08 607.8L342.08 607.8L342.08 582.72L342.08 582.72L265.01 582.72z" /></clipPath><clipPath id="129"><path d="M265.01 607.79L342.074 607.79L342.074 607.79L342.074 582.71L342.074 582.71L265.01 582.71z" /></clipPath><clipPath id="130"><path d="M265.01 607.79L342.074 607.79L342.074 607.79L342.074 582.71L342.074 582.71L265.01 582.71z" /></clipPath><clipPath id="131"><path d="M342.68 607.8L509.26 607.8L509.26 607.8L509.26 582.72L509.26 582.72L342.68 582.72z" /></clipPath><clipPath id="132"><path d="M342.67 607.79L509.25 607.79L509.25 607.79L509.25 582.71L509.25 582.71L342.67 582.71z" /></clipPath><clipPath id="133"><path d="M342.67 607.79L509.25 607.79L509.25 607.79L509.25 582.71L509.25 582.71L342.67 582.71z" /></clipPath><clipPath id="134"><path d="M342.67 607.79L509.25 607.79L509.25 607.79L509.25 582.71L509.25 582.71L342.67 582.71z" /></clipPath><clipPath id="135"><path d="M342.67 607.79L509.25 607.79L509.25 607.79L509.25 582.71L509.25 582.71L342.67 582.71z" /></clipPath><clipPath id="136"><path d="M342.67 607.79L509.25 607.79L509.25 607.79L509.25 582.71L509.25 582.71L342.67 582.71z" /></clipPath><clipPath id="137"><path d="M342.67 607.79L509.25 607.79L509.25 607.79L509.25 582.71L509.25 582.71L342.67 582.71z" /></clipPath><clipPath id="138"><path d="M84.751 661.57L173.071 661.57L173.071 661.57L173.071 608.275L173.071 608.275L84.751 608.275z" /></clipPath><clipPath id="139"><path d="M84.744 661.58L173.064 661.58L173.064 661.58L173.064 608.276L173.064 608.276L84.744 608.276z" /></clipPath><clipPath id="140"><path d="M84.744 661.58L173.064 661.58L173.064 661.58L173.064 608.276L173.064 608.276L84.744 608.276z" /></clipPath><clipPath id="141"><path d="M173.55 661.57L224.925 661.57L224.925 661.57L224.925 608.275L224.925 608.275L173.55 608.275z" /></clipPath><clipPath id="142"><path d="M173.54 661.58L224.924 661.58L224.924 661.58L224.924 608.276L224.924 608.276L173.54 608.276z" /></clipPath><clipPath id="143"><path d="M173.54 661.58L224.924 661.58L224.924 661.58L224.924 608.276L224.924 608.276L173.54 608.276z" /></clipPath><clipPath id="144"><path d="M225.41 661.57L264.41 661.57L264.41 661.57L264.41 608.275L264.41 608.275L225.41 608.275z" /></clipPath><clipPath id="145"><path d="M225.41 661.58L264.41 661.58L264.41 661.58L264.41 608.276L264.41 608.276L225.41 608.276z" /></clipPath><clipPath id="146"><path d="M225.41 661.58L264.41 661.58L264.41 661.58L264.41 608.276L264.41 608.276L225.41 608.276z" /></clipPath><clipPath id="147"><path d="M225.41 661.58L264.41 661.58L264.41 661.58L264.41 608.276L264.41 608.276L225.41 608.276z" /></clipPath><clipPath id="148"><path d="M265.01 661.57L342.08 661.57L342.08 661.57L342.08 608.275L342.08 608.275L265.01 608.275z" /></clipPath><clipPath id="149"><path d="M265.01 661.58L342.074 661.58L342.074 661.58L342.074 608.276L342.074 608.276L265.01 608.276z" /></clipPath><clipPath id="150"><path d="M265.01 661.58L342.074 661.58L342.074 661.58L342.074 608.276L342.074 608.276L265.01 608.276z" /></clipPath><clipPath id="151"><path d="M342.68 661.57L509.26 661.57L509.26 661.57L509.26 608.275L509.26 608.275L342.68 608.275z" /></clipPath><clipPath id="152"><path d="M342.67 661.58L509.25 661.58L509.25 661.58L509.25 608.276L509.25 608.276L342.67 608.276z" /></clipPath><clipPath id="153"><path d="M342.67 661.58L509.25 661.58L509.25 661.58L509.25 608.276L509.25 608.276L342.67 608.276z" /></clipPath><clipPath id="154"><path d="M342.67 661.58L509.25 661.58L509.25 661.58L509.25 608.276L509.25 608.276L342.67 608.276z" /></clipPath><clipPath id="155"><path d="M342.67 661.58L509.25 661.58L509.25 661.58L509.25 608.276L509.25 608.276L342.67 608.276z" /></clipPath><clipPath id="156"><path d="M342.67 661.58L509.25 661.58L509.25 661.58L509.25 608.276L509.25 608.276L342.67 608.276z" /></clipPath><clipPath id="157"><path d="M342.67 661.58L509.25 661.58L509.25 661.58L509.25 608.276L509.25 608.276L342.67 608.276z" /></clipPath><clipPath id="158"><path d="M84.751 744.371L173.071 744.371L173.071 744.371L173.071 662.051L173.071 662.051L84.751 662.051z" /></clipPath><clipPath id="159"><path d="M84.744 744.376L173.064 744.376L173.064 744.376L173.064 662.056L173.064 662.056L84.744 662.056z" /></clipPath><clipPath id="160"><path d="M84.744 744.376L173.064 744.376L173.064 744.376L173.064 662.056L173.064 662.056L84.744 662.056z" /></clipPath><clipPath id="161"><path d="M173.55 744.371L224.925 744.371L224.925 744.371L224.925 662.051L224.925 662.051L173.55 662.051z" /></clipPath><clipPath id="162"><path d="M173.54 744.376L224.924 744.376L224.924 744.376L224.924 662.056L224.924 662.056L173.54 662.056z" /></clipPath><clipPath id="163"><path d="M173.54 744.376L224.924 744.376L224.924 744.376L224.924 662.056L224.924 662.056L173.54 662.056z" /></clipPath><clipPath id="164"><path d="M225.41 744.371L264.41 744.371L264.41 744.371L264.41 662.051L264.41 662.051L225.41 662.051z" /></clipPath><clipPath id="165"><path d="M225.41 744.376L264.41 744.376L264.41 744.376L264.41 662.056L264.41 662.056L225.41 662.056z" /></clipPath><clipPath id="166"><path d="M225.41 744.376L264.41 744.376L264.41 744.376L264.41 662.056L264.41 662.056L225.41 662.056z" /></clipPath><clipPath id="167"><path d="M265.01 744.371L342.08 744.371L342.08 744.371L342.08 662.051L342.08 662.051L265.01 662.051z" /></clipPath><clipPath id="168"><path d="M265.01 744.376L342.074 744.376L342.074 744.376L342.074 662.056L342.074 662.056L265.01 662.056z" /></clipPath><clipPath id="169"><path d="M265.01 744.376L342.074 744.376L342.074 744.376L342.074 662.056L342.074 662.056L265.01 662.056z" /></clipPath><clipPath id="170"><path d="M342.68 744.371L509.26 744.371L509.26 744.371L509.26 662.051L509.26 662.051L342.68 662.051z" /></clipPath><clipPath id="171"><path d="M342.67 744.376L509.25 744.376L509.25 744.376L509.25 662.056L509.25 662.056L342.67 662.056z" /></clipPath><clipPath id="172"><path d="M342.67 744.376L509.25 744.376L509.25 744.376L509.25 662.056L509.25 662.056L342.67 662.056z" /></clipPath><clipPath id="173"><path d="M342.67 744.376L509.25 744.376L509.25 744.376L509.25 662.056L509.25 662.056L342.67 662.056z" /></clipPath><clipPath id="174"><path d="M342.67 744.376L509.25 744.376L509.25 744.376L509.25 662.056L509.25 662.056L342.67 662.056z" /></clipPath><clipPath id="175"><path d="M342.67 744.376L509.25 744.376L509.25 744.376L509.25 662.056L509.25 662.056L342.67 662.056z" /></clipPath><clipPath id="176"><path d="M342.67 744.376L509.25 744.376L509.25 744.376L509.25 662.056L509.25 662.056L342.67 662.056z" /></clipPath><clipPath id="177"><path d="M342.67 744.376L509.25 744.376L509.25 744.376L509.25 662.056L509.25 662.056L342.67 662.056z" /></clipPath><clipPath id="178"><path d="M342.67 744.376L509.25 744.376L509.25 744.376L509.25 662.056L509.25 662.056L342.67 662.056z" /></clipPath><clipPath id="179"><path d="M348.31 743.776L395.23 743.776L395.23 743.776L395.23 718.816L395.23 718.816L348.31 718.816z" /></clipPath><clipPath id="180"><path d="M348.31 743.776L395.23 743.776L395.23 743.776L395.23 718.816L395.23 718.816L348.31 718.816z" /></clipPath><clipPath id="181"><path d="M348.31 743.776L395.23 743.776L395.23 743.776L395.23 718.816L395.23 718.816L348.31 718.816z" /></clipPath><clipPath id="182"><path d="M395.71 743.776L503.61 743.776L503.61 743.776L503.61 718.816L503.61 718.816L395.71 718.816z" /></clipPath><clipPath id="183"><path d="M395.71 743.776L503.61 743.776L503.61 743.776L503.61 718.816L503.61 718.816L395.71 718.816z" /></clipPath><clipPath id="184"><path d="M395.71 743.776L503.61 743.776L503.61 743.776L503.61 718.816L503.61 718.816L395.71 718.816z" /></clipPath></defs><g transform="matrix(1.333333 0 0 1.333333 0 0)"><g><g clip-path="url(#1)"><path transform="matrix(1 0 0 -1 0 841)" d="M457.51 53.304L505.534 53.304L505.534 53.304L505.534 53.90404L505.534 53.90404L457.51 53.90404z" stroke="none" fill="#000000" fill-rule="evenodd" /><g clip-path="url(#2)"><path transform="matrix(1 0 0 -1 0 841)" d="M88.464 77.904L506.974 77.904L506.974 77.904L506.974 80.904L506.974 80.904L88.464 80.904z" stroke="none" fill="#000000" fill-rule="evenodd" /><path transform="matrix(1 0 0 -1 0 841)" d="M88.464 76.464L506.974 76.464L506.974 76.464L506.974 77.18397L506.974 77.18397L88.464 77.18397z" stroke="none" fill="#000000" fill-rule="evenodd" /></g><g clip-path="url(#3)"><g clip-path="url(#4)"></g><g clip-path="url(#5)"></g></g><path transform="matrix(1 0 0 -1 0 841)" d="M84.744 510.43L173.064 510.43L173.064 510.43L173.064 550.99L173.064 550.99L84.744 550.99z" stroke="none" fill="#0070C0" fill-rule="evenodd" /><g clip-path="url(#6)"><path transform="matrix(1 0 0 -1 0 841)" d="M89.904 525.91L167.904 525.91L167.904 525.91L167.904 550.99L167.904 550.99L89.904 550.99z" stroke="none" fill="#0070C0" fill-rule="evenodd" /><g clip-path="url(#7)"></g><g clip-path="url(#8)"></g></g><path transform="matrix(1 0 0 -1 0 841)" d="M173.54 510.43L224.924 510.43L224.924 510.43L224.924 550.99L224.924 550.99L173.54 550.99z" stroke="none" fill="#0070C0" fill-rule="evenodd" /><g clip-path="url(#9)"><path transform="matrix(1 0 0 -1 0 841)" d="M178.7 525.91L219.764 525.91L219.764 525.91L219.764 550.99L219.764 550.99L178.7 550.99z" stroke="none" fill="#0070C0" fill-rule="evenodd" /><g clip-path="url(#10)"></g><g clip-path="url(#11)"></g></g><path transform="matrix(1 0 0 -1 0 841)" d="M225.41 510.43L264.41 510.43L264.41 510.43L264.41 550.99L264.41 550.99L225.41 550.99z" stroke="none" fill="#0070C0" fill-rule="evenodd" /><g clip-path="url(#12)"><path transform="matrix(1 0 0 -1 0 841)" d="M230.57 530.71L259.25 530.71L259.25 530.71L259.25 550.9901L259.25 550.9901L230.57 550.9901z" stroke="none" fill="#0070C0" fill-rule="evenodd" /><g clip-path="url(#13)"></g><path transform="matrix(1 0 0 -1 0 841)" d="M230.57 510.43L259.25 510.43L259.25 510.43L259.25 530.71L259.25 530.71L230.57 530.71z" stroke="none" fill="#0070C0" fill-rule="evenodd" /><g clip-path="url(#14)"></g><g clip-path="url(#15)"></g></g><path transform="matrix(1 0 0 -1 0 841)" d="M265.01 510.43L342.074 510.43L342.074 510.43L342.074 550.99L342.074 550.99L265.01 550.99z" stroke="none" fill="#0070C0" fill-rule="evenodd" /><g clip-path="url(#16)"><path transform="matrix(1 0 0 -1 0 841)" d="M270.05 525.91L337.034 525.91L337.034 525.91L337.034 550.99L337.034 550.99L270.05 550.99z" stroke="none" fill="#0070C0" fill-rule="evenodd" /><g clip-path="url(#17)"></g><g clip-path="url(#18)"></g></g><path transform="matrix(1 0 0 -1 0 841)" d="M342.67 510.43L509.25 510.43L509.25 510.43L509.25 550.99L509.25 550.99L342.67 550.99z" stroke="none" fill="#0070C0" fill-rule="evenodd" /><g clip-path="url(#19)"><path transform="matrix(1 0 0 -1 0 841)" d="M347.71 525.91L504.09 525.91L504.09 525.91L504.09 550.99L504.09 550.99L347.71 550.99z" stroke="none" fill="#0070C0" fill-rule="evenodd" /><g clip-path="url(#20)"></g><g clip-path="url(#21)"></g></g><path transform="matrix(1 0 0 -1 0 841)" d="M84.264 550.99L84.744 550.99L84.744 550.99L84.744 551.47L84.744 551.47L84.264 551.47z" stroke="none" fill="#000000" fill-rule="evenodd" /><path transform="matrix(1 0 0 -1 0 841)" d="M84.264 550.99L84.744 550.99L84.744 550.99L84.744 551.47L84.744 551.47L84.264 551.47z" stroke="none" fill="#000000" fill-rule="evenodd" /><path transform="matrix(1 0 0 -1 0 841)" d="M84.744 550.99L173.064 550.99L173.064 550.99L173.064 551.47L173.064 551.47L84.744 551.47z" stroke="none" fill="#000000" fill-rule="evenodd" /><path transform="matrix(1 0 0 -1 0 841)" d="M173.06 550.99L173.54 550.99L173.54 550.99L173.54 551.47L173.54 551.47L173.06 551.47z" stroke="none" fill="#000000" fill-rule="evenodd" /><path transform="matrix(1 0 0 -1 0 841)" d="M173.54 550.99L224.924 550.99L224.924 550.99L224.924 551.47L224.924 551.47L173.54 551.47z" stroke="none" fill="#000000" fill-rule="evenodd" /><path transform="matrix(1 0 0 -1 0 841)" d="M224.93 550.99L225.41 550.99L225.41 550.99L225.41 551.47L225.41 551.47L224.93 551.47z" stroke="none" fill="#000000" fill-rule="evenodd" /><path transform="matrix(1 0 0 -1 0 841)" d="M225.41 550.99L264.53 550.99L264.53 550.99L264.53 551.47L264.53 551.47L225.41 551.47z" stroke="none" fill="#000000" fill-rule="evenodd" /><path transform="matrix(1 0 0 -1 0 841)" d="M264.53 550.99L265.01 550.99L265.01 550.99L265.01 551.47L265.01 551.47L264.53 551.47z" stroke="none" fill="#000000" fill-rule="evenodd" /><path transform="matrix(1 0 0 -1 0 841)" d="M265.01 550.99L342.194 550.99L342.194 550.99L342.194 551.47L342.194 551.47L265.01 551.47z" stroke="none" fill="#000000" fill-rule="evenodd" /><path transform="matrix(1 0 0 -1 0 841)" d="M342.19 550.99L342.67 550.99L342.67 550.99L342.67 551.47L342.67 551.47L342.19 551.47z" stroke="none" fill="#000000" fill-rule="evenodd" /><path transform="matrix(1 0 0 -1 0 841)" d="M342.67 550.99L509.37 550.99L509.37 550.99L509.37 551.47L509.37 551.47L342.67 551.47z" stroke="none" fill="#000000" fill-rule="evenodd" /><path transform="matrix(1 0 0 -1 0 841)" d="M509.38 550.99L509.86 550.99L509.86 550.99L509.86 551.47L509.86 551.47L509.38 551.47z" stroke="none" fill="#000000" fill-rule="evenodd" /><path transform="matrix(1 0 0 -1 0 841)" d="M509.38 550.99L509.86 550.99L509.86 550.99L509.86 551.47L509.86 551.47L509.38 551.47z" stroke="none" fill="#000000" fill-rule="evenodd" /><path transform="matrix(1 0 0 -1 0 841)" d="M84.264 510.43L84.744 510.43L84.744 510.43L84.744 550.99L84.744 550.99L84.264 550.99z" stroke="none" fill="#000000" fill-rule="evenodd" /><path transform="matrix(1 0 0 -1 0 841)" d="M173.06 510.43L173.54 510.43L173.54 510.43L173.54 550.99L173.54 550.99L173.06 550.99z" stroke="none" fill="#000000" fill-rule="evenodd" /><path transform="matrix(1 0 0 -1 0 841)" d="M224.93 510.43L225.41 510.43L225.41 510.43L225.41 550.99L225.41 550.99L224.93 550.99z" stroke="none" fill="#000000" fill-rule="evenodd" /><path transform="matrix(1 0 0 -1 0 841)" d="M264.53 510.43L265.01 510.43L265.01 510.43L265.01 550.99L265.01 550.99L264.53 550.99z" stroke="none" fill="#000000" fill-rule="evenodd" /><path transform="matrix(1 0 0 -1 0 841)" d="M342.19 510.43L342.67 510.43L342.67 510.43L342.67 550.99L342.67 550.99L342.19 550.99z" stroke="none" fill="#000000" fill-rule="evenodd" /><path transform="matrix(1 0 0 -1 0 841)" d="M509.38 510.43L509.86 510.43L509.86 510.43L509.86 550.99L509.86 550.99L509.38 550.99z" stroke="none" fill="#000000" fill-rule="evenodd" /><path transform="matrix(1 0 0 -1 0 841)" d="M84.744 484.87L173.064 484.87L173.064 484.87L173.064 509.83L173.064 509.83L84.744 509.83z" stroke="none" fill="#DAEEF3" fill-rule="evenodd" /><g clip-path="url(#22)"><path transform="matrix(1 0 0 -1 0 841)" d="M89.904 485.71L167.904 485.71L167.904 485.71L167.904 509.83L167.904 509.83L89.904 509.83z" stroke="none" fill="#DAEEF3" fill-rule="evenodd" /><g clip-path="url(#23)"></g><g clip-path="url(#24)"></g></g><path transform="matrix(1 0 0 -1 0 841)" d="M173.54 484.87L224.924 484.87L224.924 484.87L224.924 509.83L224.924 509.83L173.54 509.83z" stroke="none" fill="#DAEEF3" fill-rule="evenodd" /><g clip-path="url(#25)"><path transform="matrix(1 0 0 -1 0 841)" d="M178.7 485.71L219.764 485.71L219.764 485.71L219.764 509.83L219.764 509.83L178.7 509.83z" stroke="none" fill="#DAEEF3" fill-rule="evenodd" /><g clip-path="url(#26)"></g><g clip-path="url(#27)"></g></g><path transform="matrix(1 0 0 -1 0 841)" d="M225.41 484.87L264.41 484.87L264.41 484.87L264.41 509.83L264.41 509.83L225.41 509.83z" stroke="none" fill="#DAEEF3" fill-rule="evenodd" /><g clip-path="url(#28)"><path transform="matrix(1 0 0 -1 0 841)" d="M230.57 484.87L259.25 484.87L259.25 484.87L259.25 509.83L259.25 509.83L230.57 509.83z" stroke="none" fill="#DAEEF3" fill-rule="evenodd" /><g clip-path="url(#29)"></g><g clip-path="url(#30)"></g></g><path transform="matrix(1 0 0 -1 0 841)" d="M265.01 484.87L342.074 484.87L342.074 484.87L342.074 509.83L342.074 509.83L265.01 509.83z" stroke="none" fill="#DAEEF3" fill-rule="evenodd" /><g clip-path="url(#31)"><path transform="matrix(1 0 0 -1 0 841)" d="M270.05 485.71L337.034 485.71L337.034 485.71L337.034 509.83L337.034 509.83L270.05 509.83z" stroke="none" fill="#DAEEF3" fill-rule="evenodd" /><g clip-path="url(#32)"></g><g clip-path="url(#33)"></g></g><path transform="matrix(1 0 0 -1 0 841)" d="M342.67 484.87L509.25 484.87L509.25 484.87L509.25 509.83L509.25 509.83L342.67 509.83z" stroke="none" fill="#DAEEF3" fill-rule="evenodd" /><g clip-path="url(#34)"><path transform="matrix(1 0 0 -1 0 841)" d="M347.71 484.87L504.09 484.87L504.09 484.87L504.09 509.83L504.09 509.83L347.71 509.83z" stroke="none" fill="#DAEEF3" fill-rule="evenodd" /><g clip-path="url(#35)"></g><g clip-path="url(#36)"></g></g><path transform="matrix(1 0 0 -1 0 841)" d="M84.264 509.95L84.744 509.95L84.744 509.95L84.744 510.43L84.744 510.43L84.264 510.43z" stroke="none" fill="#000000" fill-rule="evenodd" /><path transform="matrix(1 0 0 -1 0 841)" d="M84.744 509.95L173.064 509.95L173.064 509.95L173.064 510.43L173.064 510.43L84.744 510.43z" stroke="none" fill="#000000" fill-rule="evenodd" /><path transform="matrix(1 0 0 -1 0 841)" d="M173.06 509.95L173.54 509.95L173.54 509.95L173.54 510.43L173.54 510.43L173.06 510.43z" stroke="none" fill="#000000" fill-rule="evenodd" /><path transform="matrix(1 0 0 -1 0 841)" d="M173.54 509.95L224.924 509.95L224.924 509.95L224.924 510.43L224.924 510.43L173.54 510.43z" stroke="none" fill="#000000" fill-rule="evenodd" /><path transform="matrix(1 0 0 -1 0 841)" d="M224.93 509.95L225.41 509.95L225.41 509.95L225.41 510.43L225.41 510.43L224.93 510.43z" stroke="none" fill="#000000" fill-rule="evenodd" /><path transform="matrix(1 0 0 -1 0 841)" d="M225.41 509.95L264.53 509.95L264.53 509.95L264.53 510.43L264.53 510.43L225.41 510.43z" stroke="none" fill="#000000" fill-rule="evenodd" /><path transform="matrix(1 0 0 -1 0 841)" d="M264.53 509.95L265.01 509.95L265.01 509.95L265.01 510.43L265.01 510.43L264.53 510.43z" stroke="none" fill="#000000" fill-rule="evenodd" /><path transform="matrix(1 0 0 -1 0 841)" d="M265.01 509.95L342.194 509.95L342.194 509.95L342.194 510.43L342.194 510.43L265.01 510.43z" stroke="none" fill="#000000" fill-rule="evenodd" /><path transform="matrix(1 0 0 -1 0 841)" d="M342.19 509.95L342.67 509.95L342.67 509.95L342.67 510.43L342.67 510.43L342.19 510.43z" stroke="none" fill="#000000" fill-rule="evenodd" /><path transform="matrix(1 0 0 -1 0 841)" d="M342.67 509.95L509.37 509.95L509.37 509.95L509.37 510.43L509.37 510.43L342.67 510.43z" stroke="none" fill="#000000" fill-rule="evenodd" /><path transform="matrix(1 0 0 -1 0 841)" d="M509.38 509.95L509.86 509.95L509.86 509.95L509.86 510.43L509.86 510.43L509.38 510.43z" stroke="none" fill="#000000" fill-rule="evenodd" /><path transform="matrix(1 0 0 -1 0 841)" d="M84.264 484.87L84.744 484.87L84.744 484.87L84.744 509.95L84.744 509.95L84.264 509.95z" stroke="none" fill="#000000" fill-rule="evenodd" /><path transform="matrix(1 0 0 -1 0 841)" d="M173.06 484.87L173.54 484.87L173.54 484.87L173.54 509.95L173.54 509.95L173.06 509.95z" stroke="none" fill="#000000" fill-rule="evenodd" /><path transform="matrix(1 0 0 -1 0 841)" d="M224.93 484.87L225.41 484.87L225.41 484.87L225.41 509.95L225.41 509.95L224.93 509.95z" stroke="none" fill="#000000" fill-rule="evenodd" /><path transform="matrix(1 0 0 -1 0 841)" d="M264.53 484.87L265.01 484.87L265.01 484.87L265.01 509.95L265.01 509.95L264.53 509.95z" stroke="none" fill="#000000" fill-rule="evenodd" /><path transform="matrix(1 0 0 -1 0 841)" d="M342.19 484.87L342.67 484.87L342.67 484.87L342.67 509.95L342.67 509.95L342.19 509.95z" stroke="none" fill="#000000" fill-rule="evenodd" /><path transform="matrix(1 0 0 -1 0 841)" d="M509.38 484.87L509.86 484.87L509.86 484.87L509.86 509.95L509.86 509.95L509.38 509.95z" stroke="none" fill="#000000" fill-rule="evenodd" /><g clip-path="url(#37)"><g clip-path="url(#38)"></g><g clip-path="url(#39)"></g></g><g clip-path="url(#40)"><g clip-path="url(#41)"></g><g clip-path="url(#42)"></g></g><g clip-path="url(#43)"><g clip-path="url(#44)"></g><g clip-path="url(#45)"></g></g><g clip-path="url(#46)"><g clip-path="url(#47)"></g><g clip-path="url(#48)"></g><g clip-path="url(#49)"></g></g><g clip-path="url(#50)"><g clip-path="url(#51)"></g><g clip-path="url(#52)"></g><g clip-path="url(#53)"></g><g clip-path="url(#54)"></g></g><path transform="matrix(1 0 0 -1 0 841)" d="M84.264 484.39L84.744 484.39L84.744 484.39L84.744 484.87L84.744 484.87L84.264 484.87z" stroke="none" fill="#000000" fill-rule="evenodd" /><path transform="matrix(1 0 0 -1 0 841)" d="M84.744 484.39L173.064 484.39L173.064 484.39L173.064 484.87L173.064 484.87L84.744 484.87z" stroke="none" fill="#000000" fill-rule="evenodd" /><path transform="matrix(1 0 0 -1 0 841)" d="M173.06 484.39L173.54 484.39L173.54 484.39L173.54 484.87L173.54 484.87L173.06 484.87z" stroke="none" fill="#000000" fill-rule="evenodd" /><path transform="matrix(1 0 0 -1 0 841)" d="M173.54 484.39L224.924 484.39L224.924 484.39L224.924 484.87L224.924 484.87L173.54 484.87z" stroke="none" fill="#000000" fill-rule="evenodd" /><path transform="matrix(1 0 0 -1 0 841)" d="M224.93 484.39L225.41 484.39L225.41 484.39L225.41 484.87L225.41 484.87L224.93 484.87z" stroke="none" fill="#000000" fill-rule="evenodd" /><path transform="matrix(1 0 0 -1 0 841)" d="M225.41 484.39L264.53 484.39L264.53 484.39L264.53 484.87L264.53 484.87L225.41 484.87z" stroke="none" fill="#000000" fill-rule="evenodd" /><path transform="matrix(1 0 0 -1 0 841)" d="M264.53 484.39L265.01 484.39L265.01 484.39L265.01 484.87L265.01 484.87L264.53 484.87z" stroke="none" fill="#000000" fill-rule="evenodd" /><path transform="matrix(1 0 0 -1 0 841)" d="M265.01 484.39L342.194 484.39L342.194 484.39L342.194 484.87L342.194 484.87L265.01 484.87z" stroke="none" fill="#000000" fill-rule="evenodd" /><path transform="matrix(1 0 0 -1 0 841)" d="M342.19 484.39L342.67 484.39L342.67 484.39L342.67 484.87L342.67 484.87L342.19 484.87z" stroke="none" fill="#000000" fill-rule="evenodd" /><path transform="matrix(1 0 0 -1 0 841)" d="M342.67 484.39L509.37 484.39L509.37 484.39L509.37 484.87L509.37 484.87L342.67 484.87z" stroke="none" fill="#000000" fill-rule="evenodd" /><path transform="matrix(1 0 0 -1 0 841)" d="M509.38 484.39L509.86 484.39L509.86 484.39L509.86 484.87L509.86 484.87L509.38 484.87z" stroke="none" fill="#000000" fill-rule="evenodd" /><path transform="matrix(1 0 0 -1 0 841)" d="M84.264 459.31L84.744 459.31L84.744 459.31L84.744 484.39L84.744 484.39L84.264 484.39z" stroke="none" fill="#000000" fill-rule="evenodd" /><path transform="matrix(1 0 0 -1 0 841)" d="M173.06 459.31L173.54 459.31L173.54 459.31L173.54 484.39L173.54 484.39L173.06 484.39z" stroke="none" fill="#000000" fill-rule="evenodd" /><path transform="matrix(1 0 0 -1 0 841)" d="M224.93 459.31L225.41 459.31L225.41 459.31L225.41 484.39L225.41 484.39L224.93 484.39z" stroke="none" fill="#000000" fill-rule="evenodd" /><path transform="matrix(1 0 0 -1 0 841)" d="M264.53 459.31L265.01 459.31L265.01 459.31L265.01 484.39L265.01 484.39L264.53 484.39z" stroke="none" fill="#000000" fill-rule="evenodd" /><path transform="matrix(1 0 0 -1 0 841)" d="M342.19 459.31L342.67 459.31L342.67 459.31L342.67 484.39L342.67 484.39L342.19 484.39z" stroke="none" fill="#000000" fill-rule="evenodd" /><path transform="matrix(1 0 0 -1 0 841)" d="M509.38 459.31L509.86 459.31L509.86 459.31L509.86 484.39L509.86 484.39L509.38 484.39z" stroke="none" fill="#000000" fill-rule="evenodd" /><path transform="matrix(1 0 0 -1 0 841)" d="M84.744 397.87L173.064 397.87L173.064 397.87L173.064 458.71L173.064 458.71L84.744 458.71z" stroke="none" fill="#DAEEF3" fill-rule="evenodd" /><g clip-path="url(#55)"><path transform="matrix(1 0 0 -1 0 841)" d="M89.904 434.59L167.904 434.59L167.904 434.59L167.904 458.71L167.904 458.71L89.904 458.71z" stroke="none" fill="#DAEEF3" fill-rule="evenodd" /><g clip-path="url(#56)"></g><g clip-path="url(#57)"></g></g><path transform="matrix(1 0 0 -1 0 841)" d="M173.54 397.87L224.924 397.87L224.924 397.87L224.924 458.71L224.924 458.71L173.54 458.71z" stroke="none" fill="#DAEEF3" fill-rule="evenodd" /><g clip-path="url(#58)"><path transform="matrix(1 0 0 -1 0 841)" d="M178.7 434.59L219.764 434.59L219.764 434.59L219.764 458.71L219.764 458.71L178.7 458.71z" stroke="none" fill="#DAEEF3" fill-rule="evenodd" /><g clip-path="url(#59)"></g><g clip-path="url(#60)"></g></g><path transform="matrix(1 0 0 -1 0 841)" d="M225.41 397.87L264.41 397.87L264.41 397.87L264.41 458.71L264.41 458.71L225.41 458.71z" stroke="none" fill="#DAEEF3" fill-rule="evenodd" /><g clip-path="url(#61)"><path transform="matrix(1 0 0 -1 0 841)" d="M230.57 433.75L259.25 433.75L259.25 433.75L259.25 458.71L259.25 458.71L230.57 458.71z" stroke="none" fill="#DAEEF3" fill-rule="evenodd" /><g clip-path="url(#62)"></g><g clip-path="url(#63)"></g></g><path transform="matrix(1 0 0 -1 0 841)" d="M265.01 397.87L342.074 397.87L342.074 397.87L342.074 458.71L342.074 458.71L265.01 458.71z" stroke="none" fill="#DAEEF3" fill-rule="evenodd" /><g clip-path="url(#64)"><path transform="matrix(1 0 0 -1 0 841)" d="M270.05 434.59L337.034 434.59L337.034 434.59L337.034 458.71L337.034 458.71L270.05 458.71z" stroke="none" fill="#DAEEF3" fill-rule="evenodd" /><g clip-path="url(#65)"></g><g clip-path="url(#66)"></g></g><path transform="matrix(1 0 0 -1 0 841)" d="M342.67 397.87L509.25 397.87L509.25 397.87L509.25 458.71L509.25 458.71L342.67 458.71z" stroke="none" fill="#DAEEF3" fill-rule="evenodd" /><g clip-path="url(#67)"><path transform="matrix(1 0 0 -1 0 841)" d="M347.71 438.43L504.09 438.43L504.09 438.43L504.09 458.71L504.09 458.71L347.71 458.71z" stroke="none" fill="#DAEEF3" fill-rule="evenodd" /><g clip-path="url(#68)"></g><g clip-path="url(#69)"></g><g clip-path="url(#70)"></g><path transform="matrix(1 0 0 -1 0 841)" d="M347.71 418.15L504.09 418.15L504.09 418.15L504.09 438.43L504.09 438.43L347.71 438.43z" stroke="none" fill="#DAEEF3" fill-rule="evenodd" /><g clip-path="url(#71)"></g><g clip-path="url(#72)"></g><path transform="matrix(1 0 0 -1 0 841)" d="M347.71 397.87L504.09 397.87L504.09 397.87L504.09 418.15L504.09 418.15L347.71 418.15z" stroke="none" fill="#DAEEF3" fill-rule="evenodd" /><g clip-path="url(#73)"></g><g clip-path="url(#74)"></g></g><path transform="matrix(1 0 0 -1 0 841)" d="M84.264 458.83L84.744 458.83L84.744 458.83L84.744 459.31L84.744 459.31L84.264 459.31z" stroke="none" fill="#000000" fill-rule="evenodd" /><path transform="matrix(1 0 0 -1 0 841)" d="M84.744 458.83L173.064 458.83L173.064 458.83L173.064 459.31L173.064 459.31L84.744 459.31z" stroke="none" fill="#000000" fill-rule="evenodd" /><path transform="matrix(1 0 0 -1 0 841)" d="M173.06 458.83L173.54 458.83L173.54 458.83L173.54 459.31L173.54 459.31L173.06 459.31z" stroke="none" fill="#000000" fill-rule="evenodd" /><path transform="matrix(1 0 0 -1 0 841)" d="M173.54 458.83L224.924 458.83L224.924 458.83L224.924 459.31L224.924 459.31L173.54 459.31z" stroke="none" fill="#000000" fill-rule="evenodd" /><path transform="matrix(1 0 0 -1 0 841)" d="M224.93 458.83L225.41 458.83L225.41 458.83L225.41 459.31L225.41 459.31L224.93 459.31z" stroke="none" fill="#000000" fill-rule="evenodd" /><path transform="matrix(1 0 0 -1 0 841)" d="M225.41 458.83L264.53 458.83L264.53 458.83L264.53 459.31L264.53 459.31L225.41 459.31z" stroke="none" fill="#000000" fill-rule="evenodd" /><path transform="matrix(1 0 0 -1 0 841)" d="M264.53 458.83L265.01 458.83L265.01 458.83L265.01 459.31L265.01 459.31L264.53 459.31z" stroke="none" fill="#000000" fill-rule="evenodd" /><path transform="matrix(1 0 0 -1 0 841)" d="M265.01 458.83L342.194 458.83L342.194 458.83L342.194 459.31L342.194 459.31L265.01 459.31z" stroke="none" fill="#000000" fill-rule="evenodd" /><path transform="matrix(1 0 0 -1 0 841)" d="M342.19 458.83L342.67 458.83L342.67 458.83L342.67 459.31L342.67 459.31L342.19 459.31z" stroke="none" fill="#000000" fill-rule="evenodd" /><path transform="matrix(1 0 0 -1 0 841)" d="M342.67 458.83L509.37 458.83L509.37 458.83L509.37 459.31L509.37 459.31L342.67 459.31z" stroke="none" fill="#000000" fill-rule="evenodd" /><path transform="matrix(1 0 0 -1 0 841)" d="M509.38 458.83L509.86 458.83L509.86 458.83L509.86 459.31L509.86 459.31L509.38 459.31z" stroke="none" fill="#000000" fill-rule="evenodd" /><path transform="matrix(1 0 0 -1 0 841)" d="M84.264 397.87L84.744 397.87L84.744 397.87L84.744 458.83L84.744 458.83L84.264 458.83z" stroke="none" fill="#000000" fill-rule="evenodd" /><path transform="matrix(1 0 0 -1 0 841)" d="M173.06 397.87L173.54 397.87L173.54 397.87L173.54 458.83L173.54 458.83L173.06 458.83z" stroke="none" fill="#000000" fill-rule="evenodd" /><path transform="matrix(1 0 0 -1 0 841)" d="M224.93 397.87L225.41 397.87L225.41 397.87L225.41 458.83L225.41 458.83L224.93 458.83z" stroke="none" fill="#000000" fill-rule="evenodd" /><path transform="matrix(1 0 0 -1 0 841)" d="M264.53 397.87L265.01 397.87L265.01 397.87L265.01 458.83L265.01 458.83L264.53 458.83z" stroke="none" fill="#000000" fill-rule="evenodd" /><path transform="matrix(1 0 0 -1 0 841)" d="M342.19 397.87L342.67 397.87L342.67 397.87L342.67 458.83L342.67 458.83L342.19 458.83z" stroke="none" fill="#000000" fill-rule="evenodd" /><path transform="matrix(1 0 0 -1 0 841)" d="M509.38 397.87L509.86 397.87L509.86 397.87L509.86 458.83L509.86 458.83L509.38 458.83z" stroke="none" fill="#000000" fill-rule="evenodd" /><g clip-path="url(#75)"><g clip-path="url(#76)"></g><g clip-path="url(#77)"></g></g><g clip-path="url(#78)"><g clip-path="url(#79)"></g><g clip-path="url(#80)"></g></g><g clip-path="url(#81)"><g clip-path="url(#82)"></g><g clip-path="url(#83)"></g></g><g clip-path="url(#84)"><g clip-path="url(#85)"></g></g><g clip-path="url(#86)"><g clip-path="url(#87)"></g><g clip-path="url(#88)"></g><g clip-path="url(#89)"></g><g clip-path="url(#90)"></g><g clip-path="url(#91)"></g><g clip-path="url(#92)"></g><g clip-path="url(#93)"></g><g clip-path="url(#94)"></g></g><path transform="matrix(1 0 0 -1 0 841)" d="M84.264 397.39L84.744 397.39L84.744 397.39L84.744 397.87L84.744 397.87L84.264 397.87z" stroke="none" fill="#000000" fill-rule="evenodd" /><path transform="matrix(1 0 0 -1 0 841)" d="M84.744 397.39L173.064 397.39L173.064 397.39L173.064 397.87L173.064 397.87L84.744 397.87z" stroke="none" fill="#000000" fill-rule="evenodd" /><path transform="matrix(1 0 0 -1 0 841)" d="M173.06 397.39L173.54 397.39L173.54 397.39L173.54 397.87L173.54 397.87L173.06 397.87z" stroke="none" fill="#000000" fill-rule="evenodd" /><path transform="matrix(1 0 0 -1 0 841)" d="M173.54 397.39L224.924 397.39L224.924 397.39L224.924 397.87L224.924 397.87L173.54 397.87z" stroke="none" fill="#000000" fill-rule="evenodd" /><path transform="matrix(1 0 0 -1 0 841)" d="M224.93 397.39L225.41 397.39L225.41 397.39L225.41 397.87L225.41 397.87L224.93 397.87z" stroke="none" fill="#000000" fill-rule="evenodd" /><path transform="matrix(1 0 0 -1 0 841)" d="M225.41 397.39L264.53 397.39L264.53 397.39L264.53 397.87L264.53 397.87L225.41 397.87z" stroke="none" fill="#000000" fill-rule="evenodd" /><path transform="matrix(1 0 0 -1 0 841)" d="M264.53 397.39L265.01 397.39L265.01 397.39L265.01 397.87L265.01 397.87L264.53 397.87z" stroke="none" fill="#000000" fill-rule="evenodd" /><path transform="matrix(1 0 0 -1 0 841)" d="M265.01 397.39L342.194 397.39L342.194 397.39L342.194 397.87L342.194 397.87L265.01 397.87z" stroke="none" fill="#000000" fill-rule="evenodd" /><path transform="matrix(1 0 0 -1 0 841)" d="M342.19 397.39L342.67 397.39L342.67 397.39L342.67 397.87L342.67 397.87L342.19 397.87z" stroke="none" fill="#000000" fill-rule="evenodd" /><path transform="matrix(1 0 0 -1 0 841)" d="M342.67 397.39L509.37 397.39L509.37 397.39L509.37 397.87L509.37 397.87L342.67 397.87z" stroke="none" fill="#000000" fill-rule="evenodd" /><path transform="matrix(1 0 0 -1 0 841)" d="M509.38 397.39L509.86 397.39L509.86 397.39L509.86 397.87L509.86 397.87L509.38 397.87z" stroke="none" fill="#000000" fill-rule="evenodd" /><path transform="matrix(1 0 0 -1 0 841)" d="M84.264 336.41L84.744 336.41L84.744 336.41L84.744 397.394L84.744 397.394L84.264 397.394z" stroke="none" fill="#000000" fill-rule="evenodd" /><path transform="matrix(1 0 0 -1 0 841)" d="M173.06 336.41L173.54 336.41L173.54 336.41L173.54 397.394L173.54 397.394L173.06 397.394z" stroke="none" fill="#000000" fill-rule="evenodd" /><path transform="matrix(1 0 0 -1 0 841)" d="M224.93 336.41L225.41 336.41L225.41 336.41L225.41 397.394L225.41 397.394L224.93 397.394z" stroke="none" fill="#000000" fill-rule="evenodd" /><path transform="matrix(1 0 0 -1 0 841)" d="M264.53 336.41L265.01 336.41L265.01 336.41L265.01 397.394L265.01 397.394L264.53 397.394z" stroke="none" fill="#000000" fill-rule="evenodd" /><path transform="matrix(1 0 0 -1 0 841)" d="M342.19 336.41L342.67 336.41L342.67 336.41L342.67 397.394L342.67 397.394L342.19 397.394z" stroke="none" fill="#000000" fill-rule="evenodd" /><path transform="matrix(1 0 0 -1 0 841)" d="M509.38 336.41L509.86 336.41L509.86 336.41L509.86 397.394L509.86 397.394L509.38 397.394z" stroke="none" fill="#000000" fill-rule="evenodd" /><path transform="matrix(1 0 0 -1 0 841)" d="M84.744 258.77L173.064 258.77L173.064 258.77L173.064 335.81L173.064 335.81L84.744 335.81z" stroke="none" fill="#DAEEF3" fill-rule="evenodd" /><g clip-path="url(#95)"><path transform="matrix(1 0 0 -1 0 841)" d="M89.904 311.69L167.904 311.69L167.904 311.69L167.904 335.81L167.904 335.81L89.904 335.81z" stroke="none" fill="#DAEEF3" fill-rule="evenodd" /><g clip-path="url(#96)"></g><g clip-path="url(#97)"></g></g><path transform="matrix(1 0 0 -1 0 841)" d="M173.54 258.77L224.924 258.77L224.924 258.77L224.924 335.81L224.924 335.81L173.54 335.81z" stroke="none" fill="#DAEEF3" fill-rule="evenodd" /><g clip-path="url(#98)"><path transform="matrix(1 0 0 -1 0 841)" d="M178.7 311.69L219.764 311.69L219.764 311.69L219.764 335.81L219.764 335.81L178.7 335.81z" stroke="none" fill="#DAEEF3" fill-rule="evenodd" /><g clip-path="url(#99)"></g><g clip-path="url(#100)"></g></g><path transform="matrix(1 0 0 -1 0 841)" d="M225.41 258.77L264.41 258.77L264.41 258.77L264.41 335.81L264.41 335.81L225.41 335.81z" stroke="none" fill="#DAEEF3" fill-rule="evenodd" /><g clip-path="url(#101)"><path transform="matrix(1 0 0 -1 0 841)" d="M230.57 310.85L259.25 310.85L259.25 310.85L259.25 335.81L259.25 335.81L230.57 335.81z" stroke="none" fill="#DAEEF3" fill-rule="evenodd" /><g clip-path="url(#102)"></g><g clip-path="url(#103)"></g></g><path transform="matrix(1 0 0 -1 0 841)" d="M265.01 258.77L342.074 258.77L342.074 258.77L342.074 335.81L342.074 335.81L265.01 335.81z" stroke="none" fill="#DAEEF3" fill-rule="evenodd" /><g clip-path="url(#104)"><path transform="matrix(1 0 0 -1 0 841)" d="M270.05 311.69L337.034 311.69L337.034 311.69L337.034 335.81L337.034 335.81L270.05 335.81z" stroke="none" fill="#DAEEF3" fill-rule="evenodd" /><g clip-path="url(#105)"></g></g><path transform="matrix(1 0 0 -1 0 841)" d="M342.67 258.77L509.25 258.77L509.25 258.77L509.25 335.81L509.25 335.81L342.67 335.81z" stroke="none" fill="#DAEEF3" fill-rule="evenodd" /><g clip-path="url(#106)"><path transform="matrix(1 0 0 -1 0 841)" d="M347.71 315.53L504.09 315.53L504.09 315.53L504.09 335.81L504.09 335.81L347.71 335.81z" stroke="none" fill="#DAEEF3" fill-rule="evenodd" /><g clip-path="url(#107)"></g><path transform="matrix(1 0 0 -1 0 841)" d="M347.71 296.21L504.09 296.21L504.09 296.21L504.09 315.53L504.09 315.53L347.71 315.53z" stroke="none" fill="#DAEEF3" fill-rule="evenodd" /><g clip-path="url(#108)"></g><g clip-path="url(#109)"></g><path transform="matrix(1 0 0 -1 0 841)" d="M347.71 279.89L504.09 279.89L504.09 279.89L504.09 296.21L504.09 296.21L347.71 296.21z" stroke="none" fill="#DAEEF3" fill-rule="evenodd" /><g clip-path="url(#110)"></g><g clip-path="url(#111)"></g><g clip-path="url(#112)"></g><g clip-path="url(#113)"></g><g clip-path="url(#114)"></g><g clip-path="url(#115)"></g><path transform="matrix(1 0 0 -1 0 841)" d="M466.99 281.57L504.094 281.57L504.094 281.57L504.094 282.17L504.094 282.17L466.99 282.17z" stroke="none" fill="#548DD4" fill-rule="evenodd" /><path transform="matrix(1 0 0 -1 0 841)" d="M347.71 258.77L504.09 258.77L504.09 258.77L504.09 279.89L504.09 279.89L347.71 279.89z" stroke="none" fill="#DAEEF3" fill-rule="evenodd" /><g clip-path="url(#116)"></g><g clip-path="url(#117)"></g><g clip-path="url(#118)"></g><path transform="matrix(1 0 0 -1 0 841)" d="M353.71 265.13L365.71 265.13L365.71 265.13L365.71 265.73L365.71 265.73L353.71 265.73z" stroke="none" fill="#548DD4" fill-rule="evenodd" /></g><path transform="matrix(1 0 0 -1 0 841)" d="M84.264 335.93L84.744 335.93L84.744 335.93L84.744 336.41L84.744 336.41L84.264 336.41z" stroke="none" fill="#000000" fill-rule="evenodd" /><path transform="matrix(1 0 0 -1 0 841)" d="M84.744 335.93L173.064 335.93L173.064 335.93L173.064 336.41L173.064 336.41L84.744 336.41z" stroke="none" fill="#000000" fill-rule="evenodd" /><path transform="matrix(1 0 0 -1 0 841)" d="M173.06 335.93L173.54 335.93L173.54 335.93L173.54 336.41L173.54 336.41L173.06 336.41z" stroke="none" fill="#000000" fill-rule="evenodd" /><path transform="matrix(1 0 0 -1 0 841)" d="M173.54 335.93L224.924 335.93L224.924 335.93L224.924 336.41L224.924 336.41L173.54 336.41z" stroke="none" fill="#000000" fill-rule="evenodd" /><path transform="matrix(1 0 0 -1 0 841)" d="M224.93 335.93L225.41 335.93L225.41 335.93L225.41 336.41L225.41 336.41L224.93 336.41z" stroke="none" fill="#000000" fill-rule="evenodd" /><path transform="matrix(1 0 0 -1 0 841)" d="M225.41 335.93L264.53 335.93L264.53 335.93L264.53 336.41L264.53 336.41L225.41 336.41z" stroke="none" fill="#000000" fill-rule="evenodd" /><path transform="matrix(1 0 0 -1 0 841)" d="M264.53 335.93L265.01 335.93L265.01 335.93L265.01 336.41L265.01 336.41L264.53 336.41z" stroke="none" fill="#000000" fill-rule="evenodd" /><path transform="matrix(1 0 0 -1 0 841)" d="M265.01 335.93L342.194 335.93L342.194 335.93L342.194 336.41L342.194 336.41L265.01 336.41z" stroke="none" fill="#000000" fill-rule="evenodd" /><path transform="matrix(1 0 0 -1 0 841)" d="M342.19 335.93L342.67 335.93L342.67 335.93L342.67 336.41L342.67 336.41L342.19 336.41z" stroke="none" fill="#000000" fill-rule="evenodd" /><path transform="matrix(1 0 0 -1 0 841)" d="M342.67 335.93L509.37 335.93L509.37 335.93L509.37 336.41L509.37 336.41L342.67 336.41z" stroke="none" fill="#000000" fill-rule="evenodd" /><path transform="matrix(1 0 0 -1 0 841)" d="M509.38 335.93L509.86 335.93L509.86 335.93L509.86 336.41L509.86 336.41L509.38 336.41z" stroke="none" fill="#000000" fill-rule="evenodd" /><path transform="matrix(1 0 0 -1 0 841)" d="M84.264 258.77L84.744 258.77L84.744 258.77L84.744 335.93L84.744 335.93L84.264 335.93z" stroke="none" fill="#000000" fill-rule="evenodd" /><path transform="matrix(1 0 0 -1 0 841)" d="M173.06 258.77L173.54 258.77L173.54 258.77L173.54 335.93L173.54 335.93L173.06 335.93z" stroke="none" fill="#000000" fill-rule="evenodd" /><path transform="matrix(1 0 0 -1 0 841)" d="M224.93 258.77L225.41 258.77L225.41 258.77L225.41 335.93L225.41 335.93L224.93 335.93z" stroke="none" fill="#000000" fill-rule="evenodd" /><path transform="matrix(1 0 0 -1 0 841)" d="M264.53 258.77L265.01 258.77L265.01 258.77L265.01 335.93L265.01 335.93L264.53 335.93z" stroke="none" fill="#000000" fill-rule="evenodd" /><path transform="matrix(1 0 0 -1 0 841)" d="M342.19 258.77L342.67 258.77L342.67 258.77L342.67 335.93L342.67 335.93L342.19 335.93z" stroke="none" fill="#000000" fill-rule="evenodd" /><path transform="matrix(1 0 0 -1 0 841)" d="M509.38 258.77L509.86 258.77L509.86 258.77L509.86 335.93L509.86 335.93L509.38 335.93z" stroke="none" fill="#000000" fill-rule="evenodd" /><g clip-path="url(#119)"><g clip-path="url(#120)"></g><g clip-path="url(#121)"></g></g><g clip-path="url(#122)"><g clip-path="url(#123)"></g><g clip-path="url(#124)"></g></g><g clip-path="url(#125)"><g clip-path="url(#126)"></g><g clip-path="url(#127)"></g></g><g clip-path="url(#128)"><g clip-path="url(#129)"></g><g clip-path="url(#130)"></g></g><g clip-path="url(#131)"><g clip-path="url(#132)"></g><g clip-path="url(#133)"></g><g clip-path="url(#134)"></g><g clip-path="url(#135)"></g><g clip-path="url(#136)"></g><g clip-path="url(#137)"></g></g><path transform="matrix(1 0 0 -1 0 841)" d="M84.264 258.29L84.744 258.29L84.744 258.29L84.744 258.7701L84.744 258.7701L84.264 258.7701z" stroke="none" fill="#000000" fill-rule="evenodd" /><path transform="matrix(1 0 0 -1 0 841)" d="M84.744 258.29L173.064 258.29L173.064 258.29L173.064 258.7701L173.064 258.7701L84.744 258.7701z" stroke="none" fill="#000000" fill-rule="evenodd" /><path transform="matrix(1 0 0 -1 0 841)" d="M173.06 258.29L173.54 258.29L173.54 258.29L173.54 258.7701L173.54 258.7701L173.06 258.7701z" stroke="none" fill="#000000" fill-rule="evenodd" /><path transform="matrix(1 0 0 -1 0 841)" d="M173.54 258.29L224.924 258.29L224.924 258.29L224.924 258.7701L224.924 258.7701L173.54 258.7701z" stroke="none" fill="#000000" fill-rule="evenodd" /><path transform="matrix(1 0 0 -1 0 841)" d="M224.93 258.29L225.41 258.29L225.41 258.29L225.41 258.7701L225.41 258.7701L224.93 258.7701z" stroke="none" fill="#000000" fill-rule="evenodd" /><path transform="matrix(1 0 0 -1 0 841)" d="M225.41 258.29L264.53 258.29L264.53 258.29L264.53 258.7701L264.53 258.7701L225.41 258.7701z" stroke="none" fill="#000000" fill-rule="evenodd" /><path transform="matrix(1 0 0 -1 0 841)" d="M264.53 258.29L265.01 258.29L265.01 258.29L265.01 258.7701L265.01 258.7701L264.53 258.7701z" stroke="none" fill="#000000" fill-rule="evenodd" /><path transform="matrix(1 0 0 -1 0 841)" d="M265.01 258.29L342.194 258.29L342.194 258.29L342.194 258.7701L342.194 258.7701L265.01 258.7701z" stroke="none" fill="#000000" fill-rule="evenodd" /><path transform="matrix(1 0 0 -1 0 841)" d="M342.19 258.29L342.67 258.29L342.67 258.29L342.67 258.7701L342.67 258.7701L342.19 258.7701z" stroke="none" fill="#000000" fill-rule="evenodd" /><path transform="matrix(1 0 0 -1 0 841)" d="M342.67 258.29L509.37 258.29L509.37 258.29L509.37 258.7701L509.37 258.7701L342.67 258.7701z" stroke="none" fill="#000000" fill-rule="evenodd" /><path transform="matrix(1 0 0 -1 0 841)" d="M509.38 258.29L509.86 258.29L509.86 258.29L509.86 258.7701L509.86 258.7701L509.38 258.7701z" stroke="none" fill="#000000" fill-rule="evenodd" /><path transform="matrix(1 0 0 -1 0 841)" d="M84.264 233.21L84.744 233.21L84.744 233.21L84.744 258.29L84.744 258.29L84.264 258.29z" stroke="none" fill="#000000" fill-rule="evenodd" /><path transform="matrix(1 0 0 -1 0 841)" d="M173.06 233.21L173.54 233.21L173.54 233.21L173.54 258.29L173.54 258.29L173.06 258.29z" stroke="none" fill="#000000" fill-rule="evenodd" /><path transform="matrix(1 0 0 -1 0 841)" d="M224.93 233.21L225.41 233.21L225.41 233.21L225.41 258.29L225.41 258.29L224.93 258.29z" stroke="none" fill="#000000" fill-rule="evenodd" /><path transform="matrix(1 0 0 -1 0 841)" d="M264.53 233.21L265.01 233.21L265.01 233.21L265.01 258.29L265.01 258.29L264.53 258.29z" stroke="none" fill="#000000" fill-rule="evenodd" /><path transform="matrix(1 0 0 -1 0 841)" d="M342.19 233.21L342.67 233.21L342.67 233.21L342.67 258.29L342.67 258.29L342.19 258.29z" stroke="none" fill="#000000" fill-rule="evenodd" /><path transform="matrix(1 0 0 -1 0 841)" d="M509.38 233.21L509.86 233.21L509.86 233.21L509.86 258.29L509.86 258.29L509.38 258.29z" stroke="none" fill="#000000" fill-rule="evenodd" /><path transform="matrix(1 0 0 -1 0 841)" d="M84.744 179.42L173.064 179.42L173.064 179.42L173.064 232.724L173.064 232.724L84.744 232.724z" stroke="none" fill="#DAEEF3" fill-rule="evenodd" /><g clip-path="url(#138)"><path transform="matrix(1 0 0 -1 0 841)" d="M89.904 206.21L167.904 206.21L167.904 206.21L167.904 232.73L167.904 232.73L89.904 232.73z" stroke="none" fill="#DAEEF3" fill-rule="evenodd" /><g clip-path="url(#139)"></g><g clip-path="url(#140)"></g></g><path transform="matrix(1 0 0 -1 0 841)" d="M173.54 179.42L224.924 179.42L224.924 179.42L224.924 232.724L224.924 232.724L173.54 232.724z" stroke="none" fill="#DAEEF3" fill-rule="evenodd" /><g clip-path="url(#141)"><path transform="matrix(1 0 0 -1 0 841)" d="M178.7 206.21L219.764 206.21L219.764 206.21L219.764 232.73L219.764 232.73L178.7 232.73z" stroke="none" fill="#DAEEF3" fill-rule="evenodd" /><g clip-path="url(#142)"></g><g clip-path="url(#143)"></g></g><path transform="matrix(1 0 0 -1 0 841)" d="M225.41 179.42L264.41 179.42L264.41 179.42L264.41 232.724L264.41 232.724L225.41 232.724z" stroke="none" fill="#DAEEF3" fill-rule="evenodd" /><g clip-path="url(#144)"><path transform="matrix(1 0 0 -1 0 841)" d="M230.57 209.81L259.25 209.81L259.25 209.81L259.25 232.73L259.25 232.73L230.57 232.73z" stroke="none" fill="#DAEEF3" fill-rule="evenodd" /><g clip-path="url(#145)"></g><path transform="matrix(1 0 0 -1 0 841)" d="M230.57 187.01L259.25 187.01L259.25 187.01L259.25 209.81L259.25 209.81L230.57 209.81z" stroke="none" fill="#DAEEF3" fill-rule="evenodd" /><g clip-path="url(#146)"></g><g clip-path="url(#147)"></g></g><path transform="matrix(1 0 0 -1 0 841)" d="M265.01 179.42L342.074 179.42L342.074 179.42L342.074 232.724L342.074 232.724L265.01 232.724z" stroke="none" fill="#DAEEF3" fill-rule="evenodd" /><g clip-path="url(#148)"><path transform="matrix(1 0 0 -1 0 841)" d="M270.05 206.21L337.034 206.21L337.034 206.21L337.034 232.73L337.034 232.73L270.05 232.73z" stroke="none" fill="#DAEEF3" fill-rule="evenodd" /><g clip-path="url(#149)"></g><g clip-path="url(#150)"></g></g><path transform="matrix(1 0 0 -1 0 841)" d="M342.67 179.42L509.25 179.42L509.25 179.42L509.25 232.724L509.25 232.724L342.67 232.724z" stroke="none" fill="#DAEEF3" fill-rule="evenodd" /><g clip-path="url(#151)"><path transform="matrix(1 0 0 -1 0 841)" d="M347.71 202.37L504.09 202.37L504.09 202.37L504.09 232.73L504.09 232.73L347.71 232.73z" stroke="none" fill="#DAEEF3" fill-rule="evenodd" /><g clip-path="url(#152)"></g><g clip-path="url(#153)"></g><g clip-path="url(#154)"></g><g clip-path="url(#155)"></g><path transform="matrix(1 0 0 -1 0 841)" d="M347.71 179.42L504.09 179.42L504.09 179.42L504.09 202.364L504.09 202.364L347.71 202.364z" stroke="none" fill="#DAEEF3" fill-rule="evenodd" /><g clip-path="url(#156)"></g><g clip-path="url(#157)"></g><path transform="matrix(1 0 0 -1 0 841)" d="M350.11 185.93L406.15 185.93L406.15 185.93L406.15 186.65L406.15 186.65L350.11 186.65z" stroke="none" fill="#000000" fill-rule="evenodd" /></g><path transform="matrix(1 0 0 -1 0 841)" d="M84.264 232.73L84.744 232.73L84.744 232.73L84.744 233.21L84.744 233.21L84.264 233.21z" stroke="none" fill="#000000" fill-rule="evenodd" /><path transform="matrix(1 0 0 -1 0 841)" d="M84.744 232.73L173.064 232.73L173.064 232.73L173.064 233.21L173.064 233.21L84.744 233.21z" stroke="none" fill="#000000" fill-rule="evenodd" /><path transform="matrix(1 0 0 -1 0 841)" d="M173.06 232.73L173.54 232.73L173.54 232.73L173.54 233.21L173.54 233.21L173.06 233.21z" stroke="none" fill="#000000" fill-rule="evenodd" /><path transform="matrix(1 0 0 -1 0 841)" d="M173.54 232.73L224.924 232.73L224.924 232.73L224.924 233.21L224.924 233.21L173.54 233.21z" stroke="none" fill="#000000" fill-rule="evenodd" /><path transform="matrix(1 0 0 -1 0 841)" d="M224.93 232.73L225.41 232.73L225.41 232.73L225.41 233.21L225.41 233.21L224.93 233.21z" stroke="none" fill="#000000" fill-rule="evenodd" /><path transform="matrix(1 0 0 -1 0 841)" d="M225.41 232.73L264.53 232.73L264.53 232.73L264.53 233.21L264.53 233.21L225.41 233.21z" stroke="none" fill="#000000" fill-rule="evenodd" /><path transform="matrix(1 0 0 -1 0 841)" d="M264.53 232.73L265.01 232.73L265.01 232.73L265.01 233.21L265.01 233.21L264.53 233.21z" stroke="none" fill="#000000" fill-rule="evenodd" /><path transform="matrix(1 0 0 -1 0 841)" d="M265.01 232.73L342.194 232.73L342.194 232.73L342.194 233.21L342.194 233.21L265.01 233.21z" stroke="none" fill="#000000" fill-rule="evenodd" /><path transform="matrix(1 0 0 -1 0 841)" d="M342.19 232.73L342.67 232.73L342.67 232.73L342.67 233.21L342.67 233.21L342.19 233.21z" stroke="none" fill="#000000" fill-rule="evenodd" /><path transform="matrix(1 0 0 -1 0 841)" d="M342.67 232.73L509.37 232.73L509.37 232.73L509.37 233.21L509.37 233.21L342.67 233.21z" stroke="none" fill="#000000" fill-rule="evenodd" /><path transform="matrix(1 0 0 -1 0 841)" d="M509.38 232.73L509.86 232.73L509.86 232.73L509.86 233.21L509.86 233.21L509.38 233.21z" stroke="none" fill="#000000" fill-rule="evenodd" /><path transform="matrix(1 0 0 -1 0 841)" d="M84.264 179.42L84.744 179.42L84.744 179.42L84.744 232.724L84.744 232.724L84.264 232.724z" stroke="none" fill="#000000" fill-rule="evenodd" /><path transform="matrix(1 0 0 -1 0 841)" d="M173.06 179.42L173.54 179.42L173.54 179.42L173.54 232.724L173.54 232.724L173.06 232.724z" stroke="none" fill="#000000" fill-rule="evenodd" /><path transform="matrix(1 0 0 -1 0 841)" d="M224.93 179.42L225.41 179.42L225.41 179.42L225.41 232.724L225.41 232.724L224.93 232.724z" stroke="none" fill="#000000" fill-rule="evenodd" /><path transform="matrix(1 0 0 -1 0 841)" d="M264.53 179.42L265.01 179.42L265.01 179.42L265.01 232.724L265.01 232.724L264.53 232.724z" stroke="none" fill="#000000" fill-rule="evenodd" /><path transform="matrix(1 0 0 -1 0 841)" d="M342.19 179.42L342.67 179.42L342.67 179.42L342.67 232.724L342.67 232.724L342.19 232.724z" stroke="none" fill="#000000" fill-rule="evenodd" /><path transform="matrix(1 0 0 -1 0 841)" d="M509.38 179.42L509.86 179.42L509.86 179.42L509.86 232.724L509.86 232.724L509.38 232.724z" stroke="none" fill="#000000" fill-rule="evenodd" /><g clip-path="url(#158)"><g clip-path="url(#159)"></g><g clip-path="url(#160)"></g></g><g clip-path="url(#161)"><g clip-path="url(#162)"></g><g clip-path="url(#163)"></g></g><g clip-path="url(#164)"><g clip-path="url(#165)"></g><g clip-path="url(#166)"></g></g><g clip-path="url(#167)"><g clip-path="url(#168)"></g><g clip-path="url(#169)"></g></g><g clip-path="url(#170)"><g clip-path="url(#171)"></g><g clip-path="url(#172)"></g><g clip-path="url(#173)"></g><g clip-path="url(#174)"></g><g clip-path="url(#175)"></g><g clip-path="url(#176)"></g><g clip-path="url(#177)"></g><g clip-path="url(#178)"></g><path transform="matrix(1 0 0 -1 0 841)" d="M348.31 97.224L395.23 97.224L395.23 97.224L395.23 122.184L395.23 122.184L348.31 122.184z" stroke="none" fill="#0070C0" fill-rule="evenodd" /><g clip-path="url(#179)"><path transform="matrix(1 0 0 -1 0 841)" d="M353.47 97.224L390.07 97.224L390.07 97.224L390.07 122.184L390.07 122.184L353.47 122.184z" stroke="none" fill="#0070C0" fill-rule="evenodd" /><g clip-path="url(#180)"></g><g clip-path="url(#181)"></g></g><path transform="matrix(1 0 0 -1 0 841)" d="M395.71 97.224L503.61 97.224L503.61 97.224L503.61 122.184L503.61 122.184L395.71 122.184z" stroke="none" fill="#0070C0" fill-rule="evenodd" /><g clip-path="url(#182)"><path transform="matrix(1 0 0 -1 0 841)" d="M400.87 97.224L498.454 97.224L498.454 97.224L498.454 122.184L498.454 122.184L400.87 122.184z" stroke="none" fill="#0070C0" fill-rule="evenodd" /><g clip-path="url(#183)"></g><g clip-path="url(#184)"></g></g><path transform="matrix(1 0 0 -1 0 841)" d="M347.71 122.3L348.19 122.3L348.19 122.3L348.19 122.78L348.19 122.78L347.71 122.78z" stroke="none" fill="#000000" fill-rule="evenodd" /><path transform="matrix(1 0 0 -1 0 841)" d="M347.71 122.3L348.19 122.3L348.19 122.3L348.19 122.78L348.19 122.78L347.71 122.78z" stroke="none" fill="#000000" fill-rule="evenodd" /><path transform="matrix(1 0 0 -1 0 841)" d="M348.19 122.3L395.23 122.3L395.23 122.3L395.23 122.78L395.23 122.78L348.19 122.78z" stroke="none" fill="#000000" fill-rule="evenodd" /><path transform="matrix(1 0 0 -1 0 841)" d="M395.23 122.3L395.71 122.3L395.71 122.3L395.71 122.78L395.71 122.78L395.23 122.78z" stroke="none" fill="#000000" fill-rule="evenodd" /><path transform="matrix(1 0 0 -1 0 841)" d="M395.71 122.3L503.61 122.3L503.61 122.3L503.61 122.78L503.61 122.78L395.71 122.78z" stroke="none" fill="#000000" fill-rule="evenodd" /><path transform="matrix(1 0 0 -1 0 841)" d="M503.62 122.3L504.1 122.3L504.1 122.3L504.1 122.78L504.1 122.78L503.62 122.78z" stroke="none" fill="#000000" fill-rule="evenodd" /><path transform="matrix(1 0 0 -1 0 841)" d="M503.62 122.3L504.1 122.3L504.1 122.3L504.1 122.78L504.1 122.78L503.62 122.78z" stroke="none" fill="#000000" fill-rule="evenodd" /><path transform="matrix(1 0 0 -1 0 841)" d="M347.71 97.104L348.19 97.104L348.19 97.104L348.19 122.304L348.19 122.304L347.71 122.304z" stroke="none" fill="#000000" fill-rule="evenodd" /><path transform="matrix(1 0 0 -1 0 841)" d="M347.71 96.624L348.19 96.624L348.19 96.624L348.19 97.10404L348.19 97.10404L347.71 97.10404z" stroke="none" fill="#000000" fill-rule="evenodd" /><path transform="matrix(1 0 0 -1 0 841)" d="M347.71 96.624L348.19 96.624L348.19 96.624L348.19 97.10404L348.19 97.10404L347.71 97.10404z" stroke="none" fill="#000000" fill-rule="evenodd" /><path transform="matrix(1 0 0 -1 0 841)" d="M348.19 96.624L395.23 96.624L395.23 96.624L395.23 97.10404L395.23 97.10404L348.19 97.10404z" stroke="none" fill="#000000" fill-rule="evenodd" /><path transform="matrix(1 0 0 -1 0 841)" d="M395.23 97.104L395.71 97.104L395.71 97.104L395.71 122.304L395.71 122.304L395.23 122.304z" stroke="none" fill="#000000" fill-rule="evenodd" /><path transform="matrix(1 0 0 -1 0 841)" d="M395.23 96.624L395.71 96.624L395.71 96.624L395.71 97.10404L395.71 97.10404L395.23 97.10404z" stroke="none" fill="#000000" fill-rule="evenodd" /><path transform="matrix(1 0 0 -1 0 841)" d="M395.71 96.624L503.61 96.624L503.61 96.624L503.61 97.10404L503.61 97.10404L395.71 97.10404z" stroke="none" fill="#000000" fill-rule="evenodd" /><path transform="matrix(1 0 0 -1 0 841)" d="M503.62 97.104L504.1 97.104L504.1 97.104L504.1 122.304L504.1 122.304L503.62 122.304z" stroke="none" fill="#000000" fill-rule="evenodd" /><path transform="matrix(1 0 0 -1 0 841)" d="M503.62 96.624L504.1 96.624L504.1 96.624L504.1 97.10404L504.1 97.10404L503.62 97.10404z" stroke="none" fill="#000000" fill-rule="evenodd" /><path transform="matrix(1 0 0 -1 0 841)" d="M503.62 96.624L504.1 96.624L504.1 96.624L504.1 97.10404L504.1 97.10404L503.62 97.10404z" stroke="none" fill="#000000" fill-rule="evenodd" /></g><path transform="matrix(1 0 0 -1 0 841)" d="M84.264 178.94L84.744 178.94L84.744 178.94L84.744 179.42L84.744 179.42L84.264 179.42z" stroke="none" fill="#000000" fill-rule="evenodd" /><path transform="matrix(1 0 0 -1 0 841)" d="M84.744 178.94L173.064 178.94L173.064 178.94L173.064 179.42L173.064 179.42L84.744 179.42z" stroke="none" fill="#000000" fill-rule="evenodd" /><path transform="matrix(1 0 0 -1 0 841)" d="M173.06 178.94L173.54 178.94L173.54 178.94L173.54 179.42L173.54 179.42L173.06 179.42z" stroke="none" fill="#000000" fill-rule="evenodd" /><path transform="matrix(1 0 0 -1 0 841)" d="M173.54 178.94L224.924 178.94L224.924 178.94L224.924 179.42L224.924 179.42L173.54 179.42z" stroke="none" fill="#000000" fill-rule="evenodd" /><path transform="matrix(1 0 0 -1 0 841)" d="M224.93 178.94L225.41 178.94L225.41 178.94L225.41 179.42L225.41 179.42L224.93 179.42z" stroke="none" fill="#000000" fill-rule="evenodd" /><path transform="matrix(1 0 0 -1 0 841)" d="M225.41 178.94L264.53 178.94L264.53 178.94L264.53 179.42L264.53 179.42L225.41 179.42z" stroke="none" fill="#000000" fill-rule="evenodd" /><path transform="matrix(1 0 0 -1 0 841)" d="M264.53 178.94L265.01 178.94L265.01 178.94L265.01 179.42L265.01 179.42L264.53 179.42z" stroke="none" fill="#000000" fill-rule="evenodd" /><path transform="matrix(1 0 0 -1 0 841)" d="M265.01 178.94L342.194 178.94L342.194 178.94L342.194 179.42L342.194 179.42L265.01 179.42z" stroke="none" fill="#000000" fill-rule="evenodd" /><path transform="matrix(1 0 0 -1 0 841)" d="M342.19 178.94L342.67 178.94L342.67 178.94L342.67 179.42L342.67 179.42L342.19 179.42z" stroke="none" fill="#000000" fill-rule="evenodd" /><path transform="matrix(1 0 0 -1 0 841)" d="M342.67 178.94L509.37 178.94L509.37 178.94L509.37 179.42L509.37 179.42L342.67 179.42z" stroke="none" fill="#000000" fill-rule="evenodd" /><path transform="matrix(1 0 0 -1 0 841)" d="M509.38 178.94L509.86 178.94L509.86 178.94L509.86 179.42L509.86 179.42L509.38 179.42z" stroke="none" fill="#000000" fill-rule="evenodd" /><path transform="matrix(1 0 0 -1 0 841)" d="M84.264 96.624L84.744 96.624L84.744 96.624L84.744 178.944L84.744 178.944L84.264 178.944z" stroke="none" fill="#000000" fill-rule="evenodd" /><path transform="matrix(1 0 0 -1 0 841)" d="M84.264 96.144L84.744 96.144L84.744 96.144L84.744 96.62398L84.744 96.62398L84.264 96.62398z" stroke="none" fill="#000000" fill-rule="evenodd" /><path transform="matrix(1 0 0 -1 0 841)" d="M84.264 96.144L84.744 96.144L84.744 96.144L84.744 96.62398L84.744 96.62398L84.264 96.62398z" stroke="none" fill="#000000" fill-rule="evenodd" /><path transform="matrix(1 0 0 -1 0 841)" d="M84.744 96.144L173.064 96.144L173.064 96.144L173.064 96.62398L173.064 96.62398L84.744 96.62398z" stroke="none" fill="#000000" fill-rule="evenodd" /><path transform="matrix(1 0 0 -1 0 841)" d="M173.06 96.624L173.54 96.624L173.54 96.624L173.54 178.944L173.54 178.944L173.06 178.944z" stroke="none" fill="#000000" fill-rule="evenodd" /><path transform="matrix(1 0 0 -1 0 841)" d="M173.06 96.144L173.54 96.144L173.54 96.144L173.54 96.62398L173.54 96.62398L173.06 96.62398z" stroke="none" fill="#000000" fill-rule="evenodd" /><path transform="matrix(1 0 0 -1 0 841)" d="M173.54 96.144L224.924 96.144L224.924 96.144L224.924 96.62398L224.924 96.62398L173.54 96.62398z" stroke="none" fill="#000000" fill-rule="evenodd" /><path transform="matrix(1 0 0 -1 0 841)" d="M224.93 96.624L225.41 96.624L225.41 96.624L225.41 178.944L225.41 178.944L224.93 178.944z" stroke="none" fill="#000000" fill-rule="evenodd" /><path transform="matrix(1 0 0 -1 0 841)" d="M224.93 96.144L225.41 96.144L225.41 96.144L225.41 96.62398L225.41 96.62398L224.93 96.62398z" stroke="none" fill="#000000" fill-rule="evenodd" /><path transform="matrix(1 0 0 -1 0 841)" d="M225.41 96.144L264.53 96.144L264.53 96.144L264.53 96.62398L264.53 96.62398L225.41 96.62398z" stroke="none" fill="#000000" fill-rule="evenodd" /><path transform="matrix(1 0 0 -1 0 841)" d="M264.53 96.624L265.01 96.624L265.01 96.624L265.01 178.944L265.01 178.944L264.53 178.944z" stroke="none" fill="#000000" fill-rule="evenodd" /><path transform="matrix(1 0 0 -1 0 841)" d="M264.53 96.144L265.01 96.144L265.01 96.144L265.01 96.62398L265.01 96.62398L264.53 96.62398z" stroke="none" fill="#000000" fill-rule="evenodd" /><path transform="matrix(1 0 0 -1 0 841)" d="M265.01 96.144L342.194 96.144L342.194 96.144L342.194 96.62398L342.194 96.62398L265.01 96.62398z" stroke="none" fill="#000000" fill-rule="evenodd" /><path transform="matrix(1 0 0 -1 0 841)" d="M342.19 96.624L342.67 96.624L342.67 96.624L342.67 178.944L342.67 178.944L342.19 178.944z" stroke="none" fill="#000000" fill-rule="evenodd" /><path transform="matrix(1 0 0 -1 0 841)" d="M342.19 96.144L342.67 96.144L342.67 96.144L342.67 96.62398L342.67 96.62398L342.19 96.62398z" stroke="none" fill="#000000" fill-rule="evenodd" /><path transform="matrix(1 0 0 -1 0 841)" d="M342.67 96.144L509.37 96.144L509.37 96.144L509.37 96.62398L509.37 96.62398L342.67 96.62398z" stroke="none" fill="#000000" fill-rule="evenodd" /><path transform="matrix(1 0 0 -1 0 841)" d="M509.38 96.624L509.86 96.624L509.86 96.624L509.86 178.944L509.86 178.944L509.38 178.944z" stroke="none" fill="#000000" fill-rule="evenodd" /><path transform="matrix(1 0 0 -1 0 841)" d="M509.38 96.144L509.86 96.144L509.86 96.144L509.86 96.62398L509.86 96.62398L509.38 96.62398z" stroke="none" fill="#000000" fill-rule="evenodd" /><path transform="matrix(1 0 0 -1 0 841)" d="M509.38 96.144L509.86 96.144L509.86 96.144L509.86 96.62398L509.86 96.62398L509.38 96.62398z" stroke="none" fill="#000000" fill-rule="evenodd" /></g></g></g></svg>