<svg xmlns="http://www.w3.org/2000/svg" xmlns:xlink="http://www.w3.org/1999/xlink" id="body_105" preserveAspectRatio="xMinYMin meet" viewBox="0 0 793 1121"><defs><clipPath id="1"><path d="M0 841L0 -0.9199829L0 -0.9199829L595.32 -0.9199829L595.32 -0.9199829L595.32 841L595.32 841L0 841z" /></clipPath><clipPath id="2"><path d="M0.00125 841.0914L595.4112 841.0914L595.4112 841.0914L595.4112 -0.9186401L595.4112 -0.9186401L0.00125 -0.9186401z" /></clipPath><clipPath id="3"><path d="M288.05 779.771L316.01 779.771L316.01 779.771L316.01 760.691L316.01 760.691L288.05 760.691z" /></clipPath><clipPath id="4"><path d="M288.05 779.776L316.01 779.776L316.01 779.776L316.01 760.696L316.01 760.696L288.05 760.696z" /></clipPath><clipPath id="5"><path d="M288.05 779.776L316.01 779.776L316.01 779.776L316.01 760.696L316.01 760.696L288.05 760.696z" /></clipPath><clipPath id="6"><path d="M84.751 111.43L169.591 111.43L169.591 111.43L169.591 89.44L169.591 89.44L84.751 89.44z" /></clipPath><clipPath id="7"><path d="M84.744 111.42L169.584 111.42L169.584 111.42L169.584 89.43597L169.584 89.43597L84.744 89.43597z" /></clipPath><clipPath id="8"><path d="M84.744 111.42L169.584 111.42L169.584 111.42L169.584 89.43597L169.584 89.43597L84.744 89.43597z" /></clipPath><clipPath id="9"><path d="M170.19 111.43L224.925 111.43L224.925 111.43L224.925 89.44L224.925 89.44L170.19 89.44z" /></clipPath><clipPath id="10"><path d="M170.18 111.42L224.924 111.42L224.924 111.42L224.924 89.43597L224.924 89.43597L170.18 89.43597z" /></clipPath><clipPath id="11"><path d="M170.18 111.42L224.924 111.42L224.924 111.42L224.924 89.43597L224.924 89.43597L170.18 89.43597z" /></clipPath><clipPath id="12"><path d="M225.41 111.43L274.49 111.43L274.49 111.43L274.49 89.44L274.49 89.44L225.41 89.44z" /></clipPath><clipPath id="13"><path d="M225.41 111.42L274.49 111.42L274.49 111.42L274.49 89.43597L274.49 89.43597L225.41 89.43597z" /></clipPath><clipPath id="14"><path d="M225.41 111.42L274.49 111.42L274.49 111.42L274.49 89.43597L274.49 89.43597L225.41 89.43597z" /></clipPath><clipPath id="15"><path d="M274.97 111.43L394.64 111.43L394.64 111.43L394.64 89.44L394.64 89.44L274.97 89.44z" /></clipPath><clipPath id="16"><path d="M274.97 111.42L394.63 111.42L394.63 111.42L394.63 89.43597L394.63 89.43597L274.97 89.43597z" /></clipPath><clipPath id="17"><path d="M274.97 111.42L394.63 111.42L394.63 111.42L394.63 89.43597L394.63 89.43597L274.97 89.43597z" /></clipPath><clipPath id="18"><path d="M395.24 111.43L520.89 111.43L520.89 111.43L520.89 89.44L520.89 89.44L395.24 89.44z" /></clipPath><clipPath id="19"><path d="M395.23 111.42L520.89 111.42L520.89 111.42L520.89 89.43597L520.89 89.43597L395.23 89.43597z" /></clipPath><clipPath id="20"><path d="M395.23 111.42L520.89 111.42L520.89 111.42L520.89 89.43597L520.89 89.43597L395.23 89.43597z" /></clipPath><clipPath id="21"><path d="M274.97 207.19L394.64 207.19L394.64 207.19L394.64 111.91L394.64 111.91L274.97 111.91z" /></clipPath><clipPath id="22"><path d="M274.97 207.18L394.63 207.18L394.63 207.18L394.63 111.9L394.63 111.9L274.97 111.9z" /></clipPath><clipPath id="23"><path d="M274.97 207.18L394.63 207.18L394.63 207.18L394.63 111.9L394.63 111.9L274.97 111.9z" /></clipPath><clipPath id="24"><path d="M274.97 207.18L394.63 207.18L394.63 207.18L394.63 111.9L394.63 111.9L274.97 111.9z" /></clipPath><clipPath id="25"><path d="M274.97 207.18L394.63 207.18L394.63 207.18L394.63 111.9L394.63 111.9L274.97 111.9z" /></clipPath><clipPath id="26"><path d="M274.97 207.18L394.63 207.18L394.63 207.18L394.63 111.9L394.63 111.9L274.97 111.9z" /></clipPath><clipPath id="27"><path d="M274.97 207.18L394.63 207.18L394.63 207.18L394.63 111.9L394.63 111.9L274.97 111.9z" /></clipPath><clipPath id="28"><path d="M395.24 207.19L520.89 207.19L520.89 207.19L520.89 111.91L520.89 111.91L395.24 111.91z" /></clipPath><clipPath id="29"><path d="M395.23 207.18L520.89 207.18L520.89 207.18L520.89 111.9L520.89 111.9L395.23 111.9z" /></clipPath><clipPath id="30"><path d="M395.23 207.18L520.89 207.18L520.89 207.18L520.89 111.9L520.89 111.9L395.23 111.9z" /></clipPath><clipPath id="31"><path d="M395.23 207.18L520.89 207.18L520.89 207.18L520.89 111.9L520.89 111.9L395.23 111.9z" /></clipPath><clipPath id="32"><path d="M395.23 207.18L520.89 207.18L520.89 207.18L520.89 111.9L520.89 111.9L395.23 111.9z" /></clipPath><clipPath id="33"><path d="M395.23 207.18L520.89 207.18L520.89 207.18L520.89 111.9L520.89 111.9L395.23 111.9z" /></clipPath><clipPath id="34"><path d="M395.23 207.18L520.89 207.18L520.89 207.18L520.89 111.9L520.89 111.9L395.23 111.9z" /></clipPath><clipPath id="35"><path d="M395.23 207.18L520.89 207.18L520.89 207.18L520.89 111.9L520.89 111.9L395.23 111.9z" /></clipPath><clipPath id="36"><path d="M84.751 226.75L169.591 226.75L169.591 226.75L169.591 207.67L169.591 207.67L84.751 207.67z" /></clipPath><clipPath id="37"><path d="M84.744 226.74L169.584 226.74L169.584 226.74L169.584 207.66L169.584 207.66L84.744 207.66z" /></clipPath><clipPath id="38"><path d="M84.744 226.74L169.584 226.74L169.584 226.74L169.584 207.66L169.584 207.66L84.744 207.66z" /></clipPath><clipPath id="39"><path d="M170.19 226.75L224.925 226.75L224.925 226.75L224.925 207.67L224.925 207.67L170.19 207.67z" /></clipPath><clipPath id="40"><path d="M170.18 226.74L224.924 226.74L224.924 226.74L224.924 207.66L224.924 207.66L170.18 207.66z" /></clipPath><clipPath id="41"><path d="M170.18 226.74L224.924 226.74L224.924 226.74L224.924 207.66L224.924 207.66L170.18 207.66z" /></clipPath><clipPath id="42"><path d="M225.41 226.75L274.49 226.75L274.49 226.75L274.49 207.67L274.49 207.67L225.41 207.67z" /></clipPath><clipPath id="43"><path d="M225.41 226.74L274.49 226.74L274.49 226.74L274.49 207.66L274.49 207.66L225.41 207.66z" /></clipPath><clipPath id="44"><path d="M225.41 226.74L274.49 226.74L274.49 226.74L274.49 207.66L274.49 207.66L225.41 207.66z" /></clipPath><clipPath id="45"><path d="M274.97 226.75L394.64 226.75L394.64 226.75L394.64 207.67L394.64 207.67L274.97 207.67z" /></clipPath><clipPath id="46"><path d="M274.97 226.74L394.63 226.74L394.63 226.74L394.63 207.66L394.63 207.66L274.97 207.66z" /></clipPath><clipPath id="47"><path d="M274.97 226.74L394.63 226.74L394.63 226.74L394.63 207.66L394.63 207.66L274.97 207.66z" /></clipPath><clipPath id="48"><path d="M395.24 226.75L520.89 226.75L520.89 226.75L520.89 207.67L520.89 207.67L395.24 207.67z" /></clipPath><clipPath id="49"><path d="M395.23 226.74L520.89 226.74L520.89 226.74L520.89 207.66L520.89 207.66L395.23 207.66z" /></clipPath><clipPath id="50"><path d="M395.23 226.74L520.89 226.74L520.89 226.74L520.89 207.66L520.89 207.66L395.23 207.66z" /></clipPath><clipPath id="51"><path d="M395.23 226.74L520.89 226.74L520.89 226.74L520.89 207.66L520.89 207.66L395.23 207.66z" /></clipPath><clipPath id="52"><path d="M84.751 265.75L510.691 265.75L510.691 265.75L510.691 246.79L510.691 246.79L84.751 246.79z" /></clipPath><clipPath id="53"><path d="M84.744 265.74L510.694 265.74L510.694 265.74L510.694 246.78L510.694 246.78L84.744 246.78z" /></clipPath><clipPath id="54"><path d="M84.744 265.74L510.694 265.74L510.694 265.74L510.694 246.78L510.694 246.78L84.744 246.78z" /></clipPath><clipPath id="55"><path d="M84.744 265.74L510.694 265.74L510.694 265.74L510.694 246.78L510.694 246.78L84.744 246.78z" /></clipPath><clipPath id="56"><path d="M84.751 533.04L510.691 533.04L510.691 533.04L510.691 266.35L510.691 266.35L84.751 266.35z" /></clipPath><clipPath id="57"><path d="M84.744 533.03L510.694 533.03L510.694 533.03L510.694 266.34L510.694 266.34L84.744 266.34z" /></clipPath><clipPath id="58"><path d="M84.744 533.03L510.694 533.03L510.694 533.03L510.694 266.34L510.694 266.34L84.744 266.34z" /></clipPath><clipPath id="59"><path d="M84.744 533.03L510.694 533.03L510.694 533.03L510.694 266.34L510.694 266.34L84.744 266.34z" /></clipPath><clipPath id="60"><path d="M84.744 533.03L510.694 533.03L510.694 533.03L510.694 266.34L510.694 266.34L84.744 266.34z" /></clipPath><clipPath id="61"><path d="M84.744 533.03L510.694 533.03L510.694 533.03L510.694 266.34L510.694 266.34L84.744 266.34z" /></clipPath><clipPath id="62"><path d="M84.744 533.03L510.694 533.03L510.694 533.03L510.694 266.34L510.694 266.34L84.744 266.34z" /></clipPath><clipPath id="63"><path d="M84.744 533.03L510.694 533.03L510.694 533.03L510.694 266.34L510.694 266.34L84.744 266.34z" /></clipPath><clipPath id="64"><path d="M84.744 533.03L510.694 533.03L510.694 533.03L510.694 266.34L510.694 266.34L84.744 266.34z" /></clipPath><clipPath id="65"><path d="M84.744 533.03L510.694 533.03L510.694 533.03L510.694 266.34L510.694 266.34L84.744 266.34z" /></clipPath><clipPath id="66"><path d="M84.744 533.03L510.694 533.03L510.694 533.03L510.694 266.34L510.694 266.34L84.744 266.34z" /></clipPath><clipPath id="67"><path d="M84.744 533.03L510.694 533.03L510.694 533.03L510.694 266.34L510.694 266.34L84.744 266.34z" /></clipPath><clipPath id="68"><path d="M84.744 533.03L510.694 533.03L510.694 533.03L510.694 266.34L510.694 266.34L84.744 266.34z" /></clipPath><clipPath id="69"><path d="M84.744 533.03L510.694 533.03L510.694 533.03L510.694 266.34L510.694 266.34L84.744 266.34z" /></clipPath><clipPath id="70"><path d="M84.744 533.03L510.694 533.03L510.694 533.03L510.694 266.34L510.694 266.34L84.744 266.34z" /></clipPath><clipPath id="71"><path d="M84.744 533.03L510.694 533.03L510.694 533.03L510.694 266.34L510.694 266.34L84.744 266.34z" /></clipPath><clipPath id="72"><path d="M84.744 533.03L510.694 533.03L510.694 533.03L510.694 266.34L510.694 266.34L84.744 266.34z" /></clipPath><clipPath id="73"><path d="M84.744 533.03L510.694 533.03L510.694 533.03L510.694 266.34L510.694 266.34L84.744 266.34z" /></clipPath><clipPath id="74"><path d="M84.744 533.03L510.694 533.03L510.694 533.03L510.694 266.34L510.694 266.34L84.744 266.34z" /></clipPath><clipPath id="75"><path d="M84.744 533.03L510.694 533.03L510.694 533.03L510.694 266.34L510.694 266.34L84.744 266.34z" /></clipPath><clipPath id="76"><path d="M84.744 533.03L510.694 533.03L510.694 533.03L510.694 266.34L510.694 266.34L84.744 266.34z" /></clipPath><clipPath id="77"><path d="M84.744 533.03L510.694 533.03L510.694 533.03L510.694 266.34L510.694 266.34L84.744 266.34z" /></clipPath><clipPath id="78"><path d="M84.744 533.03L510.694 533.03L510.694 533.03L510.694 266.34L510.694 266.34L84.744 266.34z" /></clipPath><clipPath id="79"><path d="M84.744 533.03L510.694 533.03L510.694 533.03L510.694 266.34L510.694 266.34L84.744 266.34z" /></clipPath><clipPath id="80"><path d="M84.744 533.03L510.694 533.03L510.694 533.03L510.694 266.34L510.694 266.34L84.744 266.34z" /></clipPath><clipPath id="81"><path d="M84.744 533.03L510.694 533.03L510.694 533.03L510.694 266.34L510.694 266.34L84.744 266.34z" /></clipPath><clipPath id="82"><path d="M84.744 533.03L510.694 533.03L510.694 533.03L510.694 266.34L510.694 266.34L84.744 266.34z" /></clipPath><clipPath id="83"><path d="M84.744 533.03L510.694 533.03L510.694 533.03L510.694 266.34L510.694 266.34L84.744 266.34z" /></clipPath><clipPath id="84"><path d="M84.744 533.03L510.694 533.03L510.694 533.03L510.694 266.34L510.694 266.34L84.744 266.34z" /></clipPath><clipPath id="85"><path d="M84.744 533.03L510.694 533.03L510.694 533.03L510.694 266.34L510.694 266.34L84.744 266.34z" /></clipPath><clipPath id="86"><path d="M84.751 674.89L156.871 674.89L156.871 674.89L156.871 655.795L156.871 655.795L84.751 655.795z" /></clipPath><clipPath id="87"><path d="M84.744 674.9L156.864 674.9L156.864 674.9L156.864 655.796L156.864 655.796L84.744 655.796z" /></clipPath><clipPath id="88"><path d="M84.744 674.9L156.864 674.9L156.864 674.9L156.864 655.796L156.864 655.796L84.744 655.796z" /></clipPath><clipPath id="89"><path d="M157.35 674.89L207.765 674.89L207.765 674.89L207.765 655.795L207.765 655.795L157.35 655.795z" /></clipPath><clipPath id="90"><path d="M157.34 674.9L207.764 674.9L207.764 674.9L207.764 655.796L207.764 655.796L157.34 655.796z" /></clipPath><clipPath id="91"><path d="M157.34 674.9L207.764 674.9L207.764 674.9L207.764 655.796L207.764 655.796L157.34 655.796z" /></clipPath><clipPath id="92"><path d="M208.25 674.89L251.45 674.89L251.45 674.89L251.45 655.795L251.45 655.795L208.25 655.795z" /></clipPath><clipPath id="93"><path d="M208.25 674.9L251.45 674.9L251.45 674.9L251.45 655.796L251.45 655.796L208.25 655.796z" /></clipPath><clipPath id="94"><path d="M208.25 674.9L251.45 674.9L251.45 674.9L251.45 655.796L251.45 655.796L208.25 655.796z" /></clipPath><clipPath id="95"><path d="M252.05 674.89L375.2 674.89L375.2 674.89L375.2 655.795L375.2 655.795L252.05 655.795z" /></clipPath><clipPath id="96"><path d="M252.05 674.9L375.19 674.9L375.19 674.9L375.19 655.796L375.19 655.796L252.05 655.796z" /></clipPath><clipPath id="97"><path d="M252.05 674.9L375.19 674.9L375.19 674.9L375.19 655.796L375.19 655.796L252.05 655.796z" /></clipPath><clipPath id="98"><path d="M375.68 674.89L520.9 674.89L520.9 674.89L520.9 655.795L520.9 655.795L375.68 655.795z" /></clipPath><clipPath id="99"><path d="M375.67 674.9L520.89 674.9L520.89 674.9L520.89 655.796L520.89 655.796L375.67 655.796z" /></clipPath><clipPath id="100"><path d="M375.67 674.9L520.89 674.9L520.89 674.9L520.89 655.796L520.89 655.796L375.67 655.796z" /></clipPath><clipPath id="101"><path d="M84.751 713.41L156.871 713.41L156.871 713.41L156.871 675.37L156.871 675.37L84.751 675.37z" /></clipPath><clipPath id="102"><path d="M84.744 713.42L156.864 713.42L156.864 713.42L156.864 675.38L156.864 675.38L84.744 675.38z" /></clipPath><clipPath id="103"><path d="M84.744 713.42L156.864 713.42L156.864 713.42L156.864 675.38L156.864 675.38L84.744 675.38z" /></clipPath><clipPath id="104"><path d="M157.35 713.41L207.765 713.41L207.765 713.41L207.765 675.37L207.765 675.37L157.35 675.37z" /></clipPath><clipPath id="105"><path d="M157.34 713.42L207.764 713.42L207.764 713.42L207.764 675.38L207.764 675.38L157.34 675.38z" /></clipPath><clipPath id="106"><path d="M157.34 713.42L207.764 713.42L207.764 713.42L207.764 675.38L207.764 675.38L157.34 675.38z" /></clipPath><clipPath id="107"><path d="M208.25 713.41L251.45 713.41L251.45 713.41L251.45 675.37L251.45 675.37L208.25 675.37z" /></clipPath><clipPath id="108"><path d="M208.25 713.42L251.45 713.42L251.45 713.42L251.45 675.38L251.45 675.38L208.25 675.38z" /></clipPath><clipPath id="109"><path d="M208.25 713.42L251.45 713.42L251.45 713.42L251.45 675.38L251.45 675.38L208.25 675.38z" /></clipPath><clipPath id="110"><path d="M252.05 713.41L375.2 713.41L375.2 713.41L375.2 675.37L375.2 675.37L252.05 675.37z" /></clipPath><clipPath id="111"><path d="M252.05 713.42L375.19 713.42L375.19 713.42L375.19 675.38L375.19 675.38L252.05 675.38z" /></clipPath><clipPath id="112"><path d="M252.05 713.42L375.19 713.42L375.19 713.42L375.19 675.38L375.19 675.38L252.05 675.38z" /></clipPath><clipPath id="113"><path d="M252.05 713.42L375.19 713.42L375.19 713.42L375.19 675.38L375.19 675.38L252.05 675.38z" /></clipPath><clipPath id="114"><path d="M375.68 713.41L520.9 713.41L520.9 713.41L520.9 675.37L520.9 675.37L375.68 675.37z" /></clipPath><clipPath id="115"><path d="M375.67 713.42L520.89 713.42L520.89 713.42L520.89 675.38L520.89 675.38L375.67 675.38z" /></clipPath><clipPath id="116"><path d="M375.67 713.42L520.89 713.42L520.89 713.42L520.89 675.38L520.89 675.38L375.67 675.38z" /></clipPath><clipPath id="117"><path d="M375.67 713.42L520.89 713.42L520.89 713.42L520.89 675.38L520.89 675.38L375.67 675.38z" /></clipPath><clipPath id="118"><path d="M84.751 732.97L156.871 732.97L156.871 732.97L156.871 713.89L156.871 713.89L84.751 713.89z" /></clipPath><clipPath id="119"><path d="M84.744 732.98L156.864 732.98L156.864 732.98L156.864 713.9L156.864 713.9L84.744 713.9z" /></clipPath><clipPath id="120"><path d="M84.744 732.98L156.864 732.98L156.864 732.98L156.864 713.9L156.864 713.9L84.744 713.9z" /></clipPath><clipPath id="121"><path d="M157.35 732.97L207.765 732.97L207.765 732.97L207.765 713.89L207.765 713.89L157.35 713.89z" /></clipPath><clipPath id="122"><path d="M157.34 732.98L207.764 732.98L207.764 732.98L207.764 713.9L207.764 713.9L157.34 713.9z" /></clipPath><clipPath id="123"><path d="M157.34 732.98L207.764 732.98L207.764 732.98L207.764 713.9L207.764 713.9L157.34 713.9z" /></clipPath><clipPath id="124"><path d="M208.25 732.97L251.45 732.97L251.45 732.97L251.45 713.89L251.45 713.89L208.25 713.89z" /></clipPath><clipPath id="125"><path d="M208.25 732.98L251.45 732.98L251.45 732.98L251.45 713.9L251.45 713.9L208.25 713.9z" /></clipPath><clipPath id="126"><path d="M208.25 732.98L251.45 732.98L251.45 732.98L251.45 713.9L251.45 713.9L208.25 713.9z" /></clipPath><clipPath id="127"><path d="M252.05 732.97L375.2 732.97L375.2 732.97L375.2 713.89L375.2 713.89L252.05 713.89z" /></clipPath><clipPath id="128"><path d="M252.05 732.98L375.19 732.98L375.19 732.98L375.19 713.9L375.19 713.9L252.05 713.9z" /></clipPath><clipPath id="129"><path d="M252.05 732.98L375.19 732.98L375.19 732.98L375.19 713.9L375.19 713.9L252.05 713.9z" /></clipPath><clipPath id="130"><path d="M375.68 732.97L520.9 732.97L520.9 732.97L520.9 713.89L520.9 713.89L375.68 713.89z" /></clipPath><clipPath id="131"><path d="M375.67 732.98L520.89 732.98L520.89 732.98L520.89 713.9L520.89 713.9L375.67 713.9z" /></clipPath><clipPath id="132"><path d="M375.67 732.98L520.89 732.98L520.89 732.98L520.89 713.9L520.89 713.9L375.67 713.9z" /></clipPath></defs><g transform="matrix(1.333333 0 0 1.333333 0 0)"><g><g clip-path="url(#1)"><path transform="matrix(1 0 0 -1 0 841)" d="M457.51 53.304L505.534 53.304L505.534 53.304L505.534 53.90404L505.534 53.90404L457.51 53.90404z" stroke="none" fill="#000000" fill-rule="evenodd" /><g clip-path="url(#2)"><path transform="matrix(1 0 0 -1 0 841)" d="M88.464 77.904L506.974 77.904L506.974 77.904L506.974 80.904L506.974 80.904L88.464 80.904z" stroke="none" fill="#000000" fill-rule="evenodd" /><path transform="matrix(1 0 0 -1 0 841)" d="M88.464 76.464L506.974 76.464L506.974 76.464L506.974 77.18397L506.974 77.18397L88.464 77.18397z" stroke="none" fill="#000000" fill-rule="evenodd" /></g><g clip-path="url(#3)"><g clip-path="url(#4)"></g><g clip-path="url(#5)"></g></g><path transform="matrix(1 0 0 -1 0 841)" d="M84.744 729.58L169.584 729.58L169.584 729.58L169.584 751.564L169.584 751.564L84.744 751.564z" stroke="none" fill="#0070C0" fill-rule="evenodd" /><g clip-path="url(#6)"><path transform="matrix(1 0 0 -1 0 841)" d="M89.904 732.46L164.424 732.46L164.424 732.46L164.424 751.564L164.424 751.564L89.904 751.564z" stroke="none" fill="#0070C0" fill-rule="evenodd" /><g clip-path="url(#7)"></g><g clip-path="url(#8)"></g></g><path transform="matrix(1 0 0 -1 0 841)" d="M170.18 729.58L224.924 729.58L224.924 729.58L224.924 751.564L224.924 751.564L170.18 751.564z" stroke="none" fill="#0070C0" fill-rule="evenodd" /><g clip-path="url(#9)"><path transform="matrix(1 0 0 -1 0 841)" d="M175.22 732.46L219.764 732.46L219.764 732.46L219.764 751.564L219.764 751.564L175.22 751.564z" stroke="none" fill="#0070C0" fill-rule="evenodd" /><g clip-path="url(#10)"></g><g clip-path="url(#11)"></g></g><path transform="matrix(1 0 0 -1 0 841)" d="M225.41 729.58L274.49 729.58L274.49 729.58L274.49 751.564L274.49 751.564L225.41 751.564z" stroke="none" fill="#0070C0" fill-rule="evenodd" /><g clip-path="url(#12)"><path transform="matrix(1 0 0 -1 0 841)" d="M230.57 732.46L269.33 732.46L269.33 732.46L269.33 751.564L269.33 751.564L230.57 751.564z" stroke="none" fill="#0070C0" fill-rule="evenodd" /><g clip-path="url(#13)"></g><g clip-path="url(#14)"></g></g><path transform="matrix(1 0 0 -1 0 841)" d="M274.97 729.58L394.63 729.58L394.63 729.58L394.63 751.564L394.63 751.564L274.97 751.564z" stroke="none" fill="#0070C0" fill-rule="evenodd" /><g clip-path="url(#15)"><path transform="matrix(1 0 0 -1 0 841)" d="M280.13 732.46L389.47 732.46L389.47 732.46L389.47 751.564L389.47 751.564L280.13 751.564z" stroke="none" fill="#0070C0" fill-rule="evenodd" /><g clip-path="url(#16)"></g><g clip-path="url(#17)"></g></g><path transform="matrix(1 0 0 -1 0 841)" d="M395.23 729.58L520.89 729.58L520.89 729.58L520.89 751.564L520.89 751.564L395.23 751.564z" stroke="none" fill="#0070C0" fill-rule="evenodd" /><g clip-path="url(#18)"><path transform="matrix(1 0 0 -1 0 841)" d="M400.27 732.46L515.73 732.46L515.73 732.46L515.73 751.564L515.73 751.564L400.27 751.564z" stroke="none" fill="#0070C0" fill-rule="evenodd" /><g clip-path="url(#19)"></g><g clip-path="url(#20)"></g></g><path transform="matrix(1 0 0 -1 0 841)" d="M84.264 751.56L84.744 751.56L84.744 751.56L84.744 752.04L84.744 752.04L84.264 752.04z" stroke="none" fill="#000000" fill-rule="evenodd" /><path transform="matrix(1 0 0 -1 0 841)" d="M84.264 751.56L84.744 751.56L84.744 751.56L84.744 752.04L84.744 752.04L84.264 752.04z" stroke="none" fill="#000000" fill-rule="evenodd" /><path transform="matrix(1 0 0 -1 0 841)" d="M84.744 751.56L169.704 751.56L169.704 751.56L169.704 752.04L169.704 752.04L84.744 752.04z" stroke="none" fill="#000000" fill-rule="evenodd" /><path transform="matrix(1 0 0 -1 0 841)" d="M169.7 751.56L170.18 751.56L170.18 751.56L170.18 752.04L170.18 752.04L169.7 752.04z" stroke="none" fill="#000000" fill-rule="evenodd" /><path transform="matrix(1 0 0 -1 0 841)" d="M170.18 751.56L224.924 751.56L224.924 751.56L224.924 752.04L224.924 752.04L170.18 752.04z" stroke="none" fill="#000000" fill-rule="evenodd" /><path transform="matrix(1 0 0 -1 0 841)" d="M224.93 751.56L225.41 751.56L225.41 751.56L225.41 752.04L225.41 752.04L224.93 752.04z" stroke="none" fill="#000000" fill-rule="evenodd" /><path transform="matrix(1 0 0 -1 0 841)" d="M225.41 751.56L274.49 751.56L274.49 751.56L274.49 752.04L274.49 752.04L225.41 752.04z" stroke="none" fill="#000000" fill-rule="evenodd" /><path transform="matrix(1 0 0 -1 0 841)" d="M274.49 751.56L274.97 751.56L274.97 751.56L274.97 752.04L274.97 752.04L274.49 752.04z" stroke="none" fill="#000000" fill-rule="evenodd" /><path transform="matrix(1 0 0 -1 0 841)" d="M274.97 751.56L394.75 751.56L394.75 751.56L394.75 752.04L394.75 752.04L274.97 752.04z" stroke="none" fill="#000000" fill-rule="evenodd" /><path transform="matrix(1 0 0 -1 0 841)" d="M394.75 751.56L395.23 751.56L395.23 751.56L395.23 752.04L395.23 752.04L394.75 752.04z" stroke="none" fill="#000000" fill-rule="evenodd" /><path transform="matrix(1 0 0 -1 0 841)" d="M395.23 751.56L520.89 751.56L520.89 751.56L520.89 752.04L520.89 752.04L395.23 752.04z" stroke="none" fill="#000000" fill-rule="evenodd" /><path transform="matrix(1 0 0 -1 0 841)" d="M520.9 751.56L521.38 751.56L521.38 751.56L521.38 752.04L521.38 752.04L520.9 752.04z" stroke="none" fill="#000000" fill-rule="evenodd" /><path transform="matrix(1 0 0 -1 0 841)" d="M520.9 751.56L521.38 751.56L521.38 751.56L521.38 752.04L521.38 752.04L520.9 752.04z" stroke="none" fill="#000000" fill-rule="evenodd" /><path transform="matrix(1 0 0 -1 0 841)" d="M84.264 729.58L84.744 729.58L84.744 729.58L84.744 751.564L84.744 751.564L84.264 751.564z" stroke="none" fill="#000000" fill-rule="evenodd" /><path transform="matrix(1 0 0 -1 0 841)" d="M169.7 729.58L170.18 729.58L170.18 729.58L170.18 751.564L170.18 751.564L169.7 751.564z" stroke="none" fill="#000000" fill-rule="evenodd" /><path transform="matrix(1 0 0 -1 0 841)" d="M224.93 729.58L225.41 729.58L225.41 729.58L225.41 751.564L225.41 751.564L224.93 751.564z" stroke="none" fill="#000000" fill-rule="evenodd" /><path transform="matrix(1 0 0 -1 0 841)" d="M274.49 729.58L274.97 729.58L274.97 729.58L274.97 751.564L274.97 751.564L274.49 751.564z" stroke="none" fill="#000000" fill-rule="evenodd" /><path transform="matrix(1 0 0 -1 0 841)" d="M394.75 729.58L395.23 729.58L395.23 729.58L395.23 751.564L395.23 751.564L394.75 751.564z" stroke="none" fill="#000000" fill-rule="evenodd" /><path transform="matrix(1 0 0 -1 0 841)" d="M520.9 729.58L521.38 729.58L521.38 729.58L521.38 751.564L521.38 751.564L520.9 751.564z" stroke="none" fill="#000000" fill-rule="evenodd" /><path transform="matrix(1 0 0 -1 0 841)" d="M84.744 633.82L169.584 633.82L169.584 633.82L169.584 729.1L169.584 729.1L84.744 729.1z" stroke="none" fill="#DAEEF3" fill-rule="evenodd" /><path transform="matrix(1 0 0 -1 0 841)" d="M170.18 633.82L224.924 633.82L224.924 633.82L224.924 729.1L224.924 729.1L170.18 729.1z" stroke="none" fill="#DAEEF3" fill-rule="evenodd" /><path transform="matrix(1 0 0 -1 0 841)" d="M225.41 633.82L274.49 633.82L274.49 633.82L274.49 729.1L274.49 729.1L225.41 729.1z" stroke="none" fill="#DAEEF3" fill-rule="evenodd" /><path transform="matrix(1 0 0 -1 0 841)" d="M274.97 633.82L394.63 633.82L394.63 633.82L394.63 729.1L394.63 729.1L274.97 729.1z" stroke="none" fill="#DAEEF3" fill-rule="evenodd" /><g clip-path="url(#21)"><path transform="matrix(1 0 0 -1 0 841)" d="M280.13 710.02L389.47 710.02L389.47 710.02L389.47 729.1L389.47 729.1L280.13 729.1z" stroke="none" fill="#DAEEF3" fill-rule="evenodd" /><g clip-path="url(#22)"></g><path transform="matrix(1 0 0 -1 0 841)" d="M280.13 691.06L389.47 691.06L389.47 691.06L389.47 710.02L389.47 710.02L280.13 710.02z" stroke="none" fill="#DAEEF3" fill-rule="evenodd" /><g clip-path="url(#23)"></g><path transform="matrix(1 0 0 -1 0 841)" d="M280.13 671.98L389.47 671.98L389.47 671.98L389.47 691.06L389.47 691.06L280.13 691.06z" stroke="none" fill="#DAEEF3" fill-rule="evenodd" /><g clip-path="url(#24)"></g><path transform="matrix(1 0 0 -1 0 841)" d="M280.13 652.9L389.47 652.9L389.47 652.9L389.47 671.98L389.47 671.98L280.13 671.98z" stroke="none" fill="#DAEEF3" fill-rule="evenodd" /><g clip-path="url(#25)"></g><path transform="matrix(1 0 0 -1 0 841)" d="M280.13 633.82L389.47 633.82L389.47 633.82L389.47 652.9L389.47 652.9L280.13 652.9z" stroke="none" fill="#DAEEF3" fill-rule="evenodd" /><g clip-path="url(#26)"></g><g clip-path="url(#27)"></g></g><path transform="matrix(1 0 0 -1 0 841)" d="M395.23 633.82L520.89 633.82L520.89 633.82L520.89 729.1L520.89 729.1L395.23 729.1z" stroke="none" fill="#DAEEF3" fill-rule="evenodd" /><g clip-path="url(#28)"><path transform="matrix(1 0 0 -1 0 841)" d="M400.27 710.02L515.73 710.02L515.73 710.02L515.73 729.1L515.73 729.1L400.27 729.1z" stroke="none" fill="#DAEEF3" fill-rule="evenodd" /><g clip-path="url(#29)"></g><path transform="matrix(1 0 0 -1 0 841)" d="M400.27 691.06L515.73 691.06L515.73 691.06L515.73 710.02L515.73 710.02L400.27 710.02z" stroke="none" fill="#DAEEF3" fill-rule="evenodd" /><g clip-path="url(#30)"></g><path transform="matrix(1 0 0 -1 0 841)" d="M400.27 671.98L515.73 671.98L515.73 671.98L515.73 691.06L515.73 691.06L400.27 691.06z" stroke="none" fill="#DAEEF3" fill-rule="evenodd" /><g clip-path="url(#31)"></g><path transform="matrix(1 0 0 -1 0 841)" d="M400.27 652.9L515.73 652.9L515.73 652.9L515.73 671.98L515.73 671.98L400.27 671.98z" stroke="none" fill="#DAEEF3" fill-rule="evenodd" /><g clip-path="url(#32)"></g><path transform="matrix(1 0 0 -1 0 841)" d="M400.27 633.82L515.73 633.82L515.73 633.82L515.73 652.9L515.73 652.9L400.27 652.9z" stroke="none" fill="#DAEEF3" fill-rule="evenodd" /><g clip-path="url(#33)"></g><g clip-path="url(#34)"></g><g clip-path="url(#35)"></g></g><path transform="matrix(1 0 0 -1 0 841)" d="M84.264 729.1L84.744 729.1L84.744 729.1L84.744 729.58L84.744 729.58L84.264 729.58z" stroke="none" fill="#000000" fill-rule="evenodd" /><path transform="matrix(1 0 0 -1 0 841)" d="M84.744 729.1L169.704 729.1L169.704 729.1L169.704 729.58L169.704 729.58L84.744 729.58z" stroke="none" fill="#000000" fill-rule="evenodd" /><path transform="matrix(1 0 0 -1 0 841)" d="M169.7 729.1L170.18 729.1L170.18 729.1L170.18 729.58L170.18 729.58L169.7 729.58z" stroke="none" fill="#000000" fill-rule="evenodd" /><path transform="matrix(1 0 0 -1 0 841)" d="M170.18 729.1L224.924 729.1L224.924 729.1L224.924 729.58L224.924 729.58L170.18 729.58z" stroke="none" fill="#000000" fill-rule="evenodd" /><path transform="matrix(1 0 0 -1 0 841)" d="M224.93 729.1L225.41 729.1L225.41 729.1L225.41 729.58L225.41 729.58L224.93 729.58z" stroke="none" fill="#000000" fill-rule="evenodd" /><path transform="matrix(1 0 0 -1 0 841)" d="M225.41 729.1L274.49 729.1L274.49 729.1L274.49 729.58L274.49 729.58L225.41 729.58z" stroke="none" fill="#000000" fill-rule="evenodd" /><path transform="matrix(1 0 0 -1 0 841)" d="M274.49 729.1L274.97 729.1L274.97 729.1L274.97 729.58L274.97 729.58L274.49 729.58z" stroke="none" fill="#000000" fill-rule="evenodd" /><path transform="matrix(1 0 0 -1 0 841)" d="M274.97 729.1L394.75 729.1L394.75 729.1L394.75 729.58L394.75 729.58L274.97 729.58z" stroke="none" fill="#000000" fill-rule="evenodd" /><path transform="matrix(1 0 0 -1 0 841)" d="M394.75 729.1L395.23 729.1L395.23 729.1L395.23 729.58L395.23 729.58L394.75 729.58z" stroke="none" fill="#000000" fill-rule="evenodd" /><path transform="matrix(1 0 0 -1 0 841)" d="M395.23 729.1L520.89 729.1L520.89 729.1L520.89 729.58L520.89 729.58L395.23 729.58z" stroke="none" fill="#000000" fill-rule="evenodd" /><path transform="matrix(1 0 0 -1 0 841)" d="M520.9 729.1L521.38 729.1L521.38 729.1L521.38 729.58L521.38 729.58L520.9 729.58z" stroke="none" fill="#000000" fill-rule="evenodd" /><path transform="matrix(1 0 0 -1 0 841)" d="M84.264 633.82L84.744 633.82L84.744 633.82L84.744 729.1L84.744 729.1L84.264 729.1z" stroke="none" fill="#000000" fill-rule="evenodd" /><path transform="matrix(1 0 0 -1 0 841)" d="M169.7 633.82L170.18 633.82L170.18 633.82L170.18 729.1L170.18 729.1L169.7 729.1z" stroke="none" fill="#000000" fill-rule="evenodd" /><path transform="matrix(1 0 0 -1 0 841)" d="M224.93 633.82L225.41 633.82L225.41 633.82L225.41 729.1L225.41 729.1L224.93 729.1z" stroke="none" fill="#000000" fill-rule="evenodd" /><path transform="matrix(1 0 0 -1 0 841)" d="M274.49 633.82L274.97 633.82L274.97 633.82L274.97 729.1L274.97 729.1L274.49 729.1z" stroke="none" fill="#000000" fill-rule="evenodd" /><path transform="matrix(1 0 0 -1 0 841)" d="M394.75 633.82L395.23 633.82L395.23 633.82L395.23 729.1L395.23 729.1L394.75 729.1z" stroke="none" fill="#000000" fill-rule="evenodd" /><path transform="matrix(1 0 0 -1 0 841)" d="M520.9 633.82L521.38 633.82L521.38 633.82L521.38 729.1L521.38 729.1L520.9 729.1z" stroke="none" fill="#000000" fill-rule="evenodd" /><g clip-path="url(#36)"><g clip-path="url(#37)"></g><g clip-path="url(#38)"></g></g><g clip-path="url(#39)"><g clip-path="url(#40)"></g><g clip-path="url(#41)"></g></g><g clip-path="url(#42)"><g clip-path="url(#43)"></g><g clip-path="url(#44)"></g></g><g clip-path="url(#45)"><g clip-path="url(#46)"></g><g clip-path="url(#47)"></g></g><g clip-path="url(#48)"><g clip-path="url(#49)"></g><g clip-path="url(#50)"></g><g clip-path="url(#51)"></g></g><path transform="matrix(1 0 0 -1 0 841)" d="M84.264 633.34L84.744 633.34L84.744 633.34L84.744 633.82L84.744 633.82L84.264 633.82z" stroke="none" fill="#000000" fill-rule="evenodd" /><path transform="matrix(1 0 0 -1 0 841)" d="M84.744 633.34L169.704 633.34L169.704 633.34L169.704 633.82L169.704 633.82L84.744 633.82z" stroke="none" fill="#000000" fill-rule="evenodd" /><path transform="matrix(1 0 0 -1 0 841)" d="M169.7 633.34L170.18 633.34L170.18 633.34L170.18 633.82L170.18 633.82L169.7 633.82z" stroke="none" fill="#000000" fill-rule="evenodd" /><path transform="matrix(1 0 0 -1 0 841)" d="M170.18 633.34L224.924 633.34L224.924 633.34L224.924 633.82L224.924 633.82L170.18 633.82z" stroke="none" fill="#000000" fill-rule="evenodd" /><path transform="matrix(1 0 0 -1 0 841)" d="M224.93 633.34L225.41 633.34L225.41 633.34L225.41 633.82L225.41 633.82L224.93 633.82z" stroke="none" fill="#000000" fill-rule="evenodd" /><path transform="matrix(1 0 0 -1 0 841)" d="M225.41 633.34L274.49 633.34L274.49 633.34L274.49 633.82L274.49 633.82L225.41 633.82z" stroke="none" fill="#000000" fill-rule="evenodd" /><path transform="matrix(1 0 0 -1 0 841)" d="M274.49 633.34L274.97 633.34L274.97 633.34L274.97 633.82L274.97 633.82L274.49 633.82z" stroke="none" fill="#000000" fill-rule="evenodd" /><path transform="matrix(1 0 0 -1 0 841)" d="M274.97 633.34L394.75 633.34L394.75 633.34L394.75 633.82L394.75 633.82L274.97 633.82z" stroke="none" fill="#000000" fill-rule="evenodd" /><path transform="matrix(1 0 0 -1 0 841)" d="M394.75 633.34L395.23 633.34L395.23 633.34L395.23 633.82L395.23 633.82L394.75 633.82z" stroke="none" fill="#000000" fill-rule="evenodd" /><path transform="matrix(1 0 0 -1 0 841)" d="M395.23 633.34L520.89 633.34L520.89 633.34L520.89 633.82L520.89 633.82L395.23 633.82z" stroke="none" fill="#000000" fill-rule="evenodd" /><path transform="matrix(1 0 0 -1 0 841)" d="M520.9 633.34L521.38 633.34L521.38 633.34L521.38 633.82L521.38 633.82L520.9 633.82z" stroke="none" fill="#000000" fill-rule="evenodd" /><path transform="matrix(1 0 0 -1 0 841)" d="M84.264 614.26L84.744 614.26L84.744 614.26L84.744 633.34L84.744 633.34L84.264 633.34z" stroke="none" fill="#000000" fill-rule="evenodd" /><path transform="matrix(1 0 0 -1 0 841)" d="M84.264 613.78L84.744 613.78L84.744 613.78L84.744 614.26L84.744 614.26L84.264 614.26z" stroke="none" fill="#000000" fill-rule="evenodd" /><path transform="matrix(1 0 0 -1 0 841)" d="M84.264 613.78L84.744 613.78L84.744 613.78L84.744 614.26L84.744 614.26L84.264 614.26z" stroke="none" fill="#000000" fill-rule="evenodd" /><path transform="matrix(1 0 0 -1 0 841)" d="M84.744 613.78L169.704 613.78L169.704 613.78L169.704 614.26L169.704 614.26L84.744 614.26z" stroke="none" fill="#000000" fill-rule="evenodd" /><path transform="matrix(1 0 0 -1 0 841)" d="M169.7 614.26L170.18 614.26L170.18 614.26L170.18 633.34L170.18 633.34L169.7 633.34z" stroke="none" fill="#000000" fill-rule="evenodd" /><path transform="matrix(1 0 0 -1 0 841)" d="M169.7 613.78L170.18 613.78L170.18 613.78L170.18 614.26L170.18 614.26L169.7 614.26z" stroke="none" fill="#000000" fill-rule="evenodd" /><path transform="matrix(1 0 0 -1 0 841)" d="M170.18 613.78L224.924 613.78L224.924 613.78L224.924 614.26L224.924 614.26L170.18 614.26z" stroke="none" fill="#000000" fill-rule="evenodd" /><path transform="matrix(1 0 0 -1 0 841)" d="M224.93 614.26L225.41 614.26L225.41 614.26L225.41 633.34L225.41 633.34L224.93 633.34z" stroke="none" fill="#000000" fill-rule="evenodd" /><path transform="matrix(1 0 0 -1 0 841)" d="M224.93 613.78L225.41 613.78L225.41 613.78L225.41 614.26L225.41 614.26L224.93 614.26z" stroke="none" fill="#000000" fill-rule="evenodd" /><path transform="matrix(1 0 0 -1 0 841)" d="M225.41 613.78L274.49 613.78L274.49 613.78L274.49 614.26L274.49 614.26L225.41 614.26z" stroke="none" fill="#000000" fill-rule="evenodd" /><path transform="matrix(1 0 0 -1 0 841)" d="M274.49 614.26L274.97 614.26L274.97 614.26L274.97 633.34L274.97 633.34L274.49 633.34z" stroke="none" fill="#000000" fill-rule="evenodd" /><path transform="matrix(1 0 0 -1 0 841)" d="M274.49 613.78L274.97 613.78L274.97 613.78L274.97 614.26L274.97 614.26L274.49 614.26z" stroke="none" fill="#000000" fill-rule="evenodd" /><path transform="matrix(1 0 0 -1 0 841)" d="M274.97 613.78L394.75 613.78L394.75 613.78L394.75 614.26L394.75 614.26L274.97 614.26z" stroke="none" fill="#000000" fill-rule="evenodd" /><path transform="matrix(1 0 0 -1 0 841)" d="M394.75 614.26L395.23 614.26L395.23 614.26L395.23 633.34L395.23 633.34L394.75 633.34z" stroke="none" fill="#000000" fill-rule="evenodd" /><path transform="matrix(1 0 0 -1 0 841)" d="M394.75 613.78L395.23 613.78L395.23 613.78L395.23 614.26L395.23 614.26L394.75 614.26z" stroke="none" fill="#000000" fill-rule="evenodd" /><path transform="matrix(1 0 0 -1 0 841)" d="M395.23 613.78L520.89 613.78L520.89 613.78L520.89 614.26L520.89 614.26L395.23 614.26z" stroke="none" fill="#000000" fill-rule="evenodd" /><path transform="matrix(1 0 0 -1 0 841)" d="M520.9 614.26L521.38 614.26L521.38 614.26L521.38 633.34L521.38 633.34L520.9 633.34z" stroke="none" fill="#000000" fill-rule="evenodd" /><path transform="matrix(1 0 0 -1 0 841)" d="M520.9 613.78L521.38 613.78L521.38 613.78L521.38 614.26L521.38 614.26L520.9 614.26z" stroke="none" fill="#000000" fill-rule="evenodd" /><path transform="matrix(1 0 0 -1 0 841)" d="M520.9 613.78L521.38 613.78L521.38 613.78L521.38 614.26L521.38 614.26L520.9 614.26z" stroke="none" fill="#000000" fill-rule="evenodd" /><path transform="matrix(1 0 0 -1 0 841)" d="M84.744 575.26L510.694 575.26L510.694 575.26L510.694 594.22L510.694 594.22L84.744 594.22z" stroke="none" fill="#0070C0" fill-rule="evenodd" /><g clip-path="url(#52)"><path transform="matrix(1 0 0 -1 0 841)" d="M89.904 575.26L505.534 575.26L505.534 575.26L505.534 594.22L505.534 594.22L89.904 594.22z" stroke="none" fill="#0070C0" fill-rule="evenodd" /><g clip-path="url(#53)"></g><g clip-path="url(#54)"></g><g clip-path="url(#55)"></g></g><path transform="matrix(1 0 0 -1 0 841)" d="M84.264 594.22L84.744 594.22L84.744 594.22L84.744 594.7L84.744 594.7L84.264 594.7z" stroke="none" fill="#000000" fill-rule="evenodd" /><path transform="matrix(1 0 0 -1 0 841)" d="M84.264 594.22L84.744 594.22L84.744 594.22L84.744 594.7L84.744 594.7L84.264 594.7z" stroke="none" fill="#000000" fill-rule="evenodd" /><path transform="matrix(1 0 0 -1 0 841)" d="M84.744 594.22L510.694 594.22L510.694 594.22L510.694 594.7L510.694 594.7L84.744 594.7z" stroke="none" fill="#000000" fill-rule="evenodd" /><path transform="matrix(1 0 0 -1 0 841)" d="M510.7 594.22L511.18 594.22L511.18 594.22L511.18 594.7L511.18 594.7L510.7 594.7z" stroke="none" fill="#000000" fill-rule="evenodd" /><path transform="matrix(1 0 0 -1 0 841)" d="M510.7 594.22L511.18 594.22L511.18 594.22L511.18 594.7L511.18 594.7L510.7 594.7z" stroke="none" fill="#000000" fill-rule="evenodd" /><path transform="matrix(1 0 0 -1 0 841)" d="M84.264 575.26L84.744 575.26L84.744 575.26L84.744 594.22L84.744 594.22L84.264 594.22z" stroke="none" fill="#000000" fill-rule="evenodd" /><path transform="matrix(1 0 0 -1 0 841)" d="M510.7 575.26L511.18 575.26L511.18 575.26L511.18 594.22L511.18 594.22L510.7 594.22z" stroke="none" fill="#000000" fill-rule="evenodd" /><path transform="matrix(1 0 0 -1 0 841)" d="M84.744 307.97L510.694 307.97L510.694 307.97L510.694 574.66L510.694 574.66L84.744 574.66z" stroke="none" fill="#DAEEF3" fill-rule="evenodd" /><g clip-path="url(#56)"><path transform="matrix(1 0 0 -1 0 841)" d="M89.904 555.67L505.534 555.67L505.534 555.67L505.534 574.654L505.534 574.654L89.904 574.654z" stroke="none" fill="#DAEEF3" fill-rule="evenodd" /><g clip-path="url(#57)"></g><g clip-path="url(#58)"></g><path transform="matrix(1 0 0 -1 0 841)" d="M89.904 536.59L505.534 536.59L505.534 536.59L505.534 555.67L505.534 555.67L89.904 555.67z" stroke="none" fill="#DAEEF3" fill-rule="evenodd" /><g clip-path="url(#59)"></g><g clip-path="url(#60)"></g><g clip-path="url(#61)"></g><path transform="matrix(1 0 0 -1 0 841)" d="M89.904 517.51L505.534 517.51L505.534 517.51L505.534 536.59L505.534 536.59L89.904 536.59z" stroke="none" fill="#DAEEF3" fill-rule="evenodd" /><g clip-path="url(#62)"></g><g clip-path="url(#63)"></g><path transform="matrix(1 0 0 -1 0 841)" d="M89.904 498.43L505.534 498.43L505.534 498.43L505.534 517.51L505.534 517.51L89.904 517.51z" stroke="none" fill="#DAEEF3" fill-rule="evenodd" /><g clip-path="url(#64)"></g><g clip-path="url(#65)"></g><path transform="matrix(1 0 0 -1 0 841)" d="M89.904 479.47L505.534 479.47L505.534 479.47L505.534 498.43L505.534 498.43L89.904 498.43z" stroke="none" fill="#DAEEF3" fill-rule="evenodd" /><g clip-path="url(#66)"></g><g clip-path="url(#67)"></g><path transform="matrix(1 0 0 -1 0 841)" d="M89.904 460.39L505.534 460.39L505.534 460.39L505.534 479.47L505.534 479.47L89.904 479.47z" stroke="none" fill="#DAEEF3" fill-rule="evenodd" /><g clip-path="url(#68)"></g><g clip-path="url(#69)"></g><path transform="matrix(1 0 0 -1 0 841)" d="M89.904 441.31L505.534 441.31L505.534 441.31L505.534 460.39L505.534 460.39L89.904 460.39z" stroke="none" fill="#DAEEF3" fill-rule="evenodd" /><g clip-path="url(#70)"></g><g clip-path="url(#71)"></g><path transform="matrix(1 0 0 -1 0 841)" d="M89.904 422.23L505.534 422.23L505.534 422.23L505.534 441.31L505.534 441.31L89.904 441.31z" stroke="none" fill="#DAEEF3" fill-rule="evenodd" /><g clip-path="url(#72)"></g><g clip-path="url(#73)"></g><path transform="matrix(1 0 0 -1 0 841)" d="M89.904 403.27L505.534 403.27L505.534 403.27L505.534 422.23L505.534 422.23L89.904 422.23z" stroke="none" fill="#DAEEF3" fill-rule="evenodd" /><g clip-path="url(#74)"></g><g clip-path="url(#75)"></g><path transform="matrix(1 0 0 -1 0 841)" d="M89.904 384.19L505.534 384.19L505.534 384.19L505.534 403.27L505.534 403.27L89.904 403.27z" stroke="none" fill="#DAEEF3" fill-rule="evenodd" /><g clip-path="url(#76)"></g><g clip-path="url(#77)"></g><path transform="matrix(1 0 0 -1 0 841)" d="M89.904 365.09L505.534 365.09L505.534 365.09L505.534 384.194L505.534 384.194L89.904 384.194z" stroke="none" fill="#DAEEF3" fill-rule="evenodd" /><g clip-path="url(#78)"></g><g clip-path="url(#79)"></g><path transform="matrix(1 0 0 -1 0 841)" d="M89.904 346.01L505.534 346.01L505.534 346.01L505.534 365.09L505.534 365.09L89.904 365.09z" stroke="none" fill="#DAEEF3" fill-rule="evenodd" /><g clip-path="url(#80)"></g><g clip-path="url(#81)"></g><path transform="matrix(1 0 0 -1 0 841)" d="M89.904 327.05L505.534 327.05L505.534 327.05L505.534 346.01L505.534 346.01L89.904 346.01z" stroke="none" fill="#DAEEF3" fill-rule="evenodd" /><g clip-path="url(#82)"></g><g clip-path="url(#83)"></g><path transform="matrix(1 0 0 -1 0 841)" d="M89.904 307.97L505.534 307.97L505.534 307.97L505.534 327.05L505.534 327.05L89.904 327.05z" stroke="none" fill="#DAEEF3" fill-rule="evenodd" /><g clip-path="url(#84)"></g><g clip-path="url(#85)"></g></g><path transform="matrix(1 0 0 -1 0 841)" d="M84.264 574.78L84.744 574.78L84.744 574.78L84.744 575.26L84.744 575.26L84.264 575.26z" stroke="none" fill="#000000" fill-rule="evenodd" /><path transform="matrix(1 0 0 -1 0 841)" d="M84.744 574.78L510.694 574.78L510.694 574.78L510.694 575.26L510.694 575.26L84.744 575.26z" stroke="none" fill="#000000" fill-rule="evenodd" /><path transform="matrix(1 0 0 -1 0 841)" d="M510.7 574.78L511.18 574.78L511.18 574.78L511.18 575.26L511.18 575.26L510.7 575.26z" stroke="none" fill="#000000" fill-rule="evenodd" /><path transform="matrix(1 0 0 -1 0 841)" d="M84.264 307.97L84.744 307.97L84.744 307.97L84.744 574.78L84.744 574.78L84.264 574.78z" stroke="none" fill="#000000" fill-rule="evenodd" /><path transform="matrix(1 0 0 -1 0 841)" d="M84.264 307.49L84.744 307.49L84.744 307.49L84.744 307.97L84.744 307.97L84.264 307.97z" stroke="none" fill="#000000" fill-rule="evenodd" /><path transform="matrix(1 0 0 -1 0 841)" d="M84.264 307.49L84.744 307.49L84.744 307.49L84.744 307.97L84.744 307.97L84.264 307.97z" stroke="none" fill="#000000" fill-rule="evenodd" /><path transform="matrix(1 0 0 -1 0 841)" d="M84.744 307.49L510.694 307.49L510.694 307.49L510.694 307.97L510.694 307.97L84.744 307.97z" stroke="none" fill="#000000" fill-rule="evenodd" /><path transform="matrix(1 0 0 -1 0 841)" d="M510.7 307.97L511.18 307.97L511.18 307.97L511.18 574.78L511.18 574.78L510.7 574.78z" stroke="none" fill="#000000" fill-rule="evenodd" /><path transform="matrix(1 0 0 -1 0 841)" d="M510.7 307.49L511.18 307.49L511.18 307.49L511.18 307.97L511.18 307.97L510.7 307.97z" stroke="none" fill="#000000" fill-rule="evenodd" /><path transform="matrix(1 0 0 -1 0 841)" d="M510.7 307.49L511.18 307.49L511.18 307.49L511.18 307.97L511.18 307.97L510.7 307.97z" stroke="none" fill="#000000" fill-rule="evenodd" /><path transform="matrix(1 0 0 -1 0 841)" d="M278.45 251.69L320.45 251.69L320.45 251.69L320.45 252.41L320.45 252.41L278.45 252.41z" stroke="none" fill="#000000" fill-rule="evenodd" /><path transform="matrix(1 0 0 -1 0 841)" d="M84.744 166.1L156.864 166.1L156.864 166.1L156.864 185.204L156.864 185.204L84.744 185.204z" stroke="none" fill="#0070C0" fill-rule="evenodd" /><g clip-path="url(#86)"><path transform="matrix(1 0 0 -1 0 841)" d="M89.904 166.1L151.704 166.1L151.704 166.1L151.704 185.204L151.704 185.204L89.904 185.204z" stroke="none" fill="#0070C0" fill-rule="evenodd" /><g clip-path="url(#87)"></g><g clip-path="url(#88)"></g></g><path transform="matrix(1 0 0 -1 0 841)" d="M157.34 166.1L207.764 166.1L207.764 166.1L207.764 185.204L207.764 185.204L157.34 185.204z" stroke="none" fill="#0070C0" fill-rule="evenodd" /><g clip-path="url(#89)"><path transform="matrix(1 0 0 -1 0 841)" d="M162.5 166.1L202.604 166.1L202.604 166.1L202.604 185.204L202.604 185.204L162.5 185.204z" stroke="none" fill="#0070C0" fill-rule="evenodd" /><g clip-path="url(#90)"></g><g clip-path="url(#91)"></g></g><path transform="matrix(1 0 0 -1 0 841)" d="M208.25 166.1L251.45 166.1L251.45 166.1L251.45 185.204L251.45 185.204L208.25 185.204z" stroke="none" fill="#0070C0" fill-rule="evenodd" /><g clip-path="url(#92)"><path transform="matrix(1 0 0 -1 0 841)" d="M213.41 166.1L246.41 166.1L246.41 166.1L246.41 185.204L246.41 185.204L213.41 185.204z" stroke="none" fill="#0070C0" fill-rule="evenodd" /><g clip-path="url(#93)"></g><g clip-path="url(#94)"></g></g><path transform="matrix(1 0 0 -1 0 841)" d="M252.05 166.1L375.19 166.1L375.19 166.1L375.19 185.204L375.19 185.204L252.05 185.204z" stroke="none" fill="#0070C0" fill-rule="evenodd" /><g clip-path="url(#95)"><path transform="matrix(1 0 0 -1 0 841)" d="M257.21 166.1L370.03 166.1L370.03 166.1L370.03 185.204L370.03 185.204L257.21 185.204z" stroke="none" fill="#0070C0" fill-rule="evenodd" /><g clip-path="url(#96)"></g><g clip-path="url(#97)"></g></g><path transform="matrix(1 0 0 -1 0 841)" d="M375.67 166.1L520.89 166.1L520.89 166.1L520.89 185.204L520.89 185.204L375.67 185.204z" stroke="none" fill="#0070C0" fill-rule="evenodd" /><g clip-path="url(#98)"><path transform="matrix(1 0 0 -1 0 841)" d="M380.83 166.1L515.73 166.1L515.73 166.1L515.73 185.204L515.73 185.204L380.83 185.204z" stroke="none" fill="#0070C0" fill-rule="evenodd" /><g clip-path="url(#99)"></g><g clip-path="url(#100)"></g></g><path transform="matrix(1 0 0 -1 0 841)" d="M84.264 185.21L84.744 185.21L84.744 185.21L84.744 185.69L84.744 185.69L84.264 185.69z" stroke="none" fill="#000000" fill-rule="evenodd" /><path transform="matrix(1 0 0 -1 0 841)" d="M84.264 185.21L84.744 185.21L84.744 185.21L84.744 185.69L84.744 185.69L84.264 185.69z" stroke="none" fill="#000000" fill-rule="evenodd" /><path transform="matrix(1 0 0 -1 0 841)" d="M84.744 185.21L156.864 185.21L156.864 185.21L156.864 185.69L156.864 185.69L84.744 185.69z" stroke="none" fill="#000000" fill-rule="evenodd" /><path transform="matrix(1 0 0 -1 0 841)" d="M156.86 185.21L157.34 185.21L157.34 185.21L157.34 185.69L157.34 185.69L156.86 185.69z" stroke="none" fill="#000000" fill-rule="evenodd" /><path transform="matrix(1 0 0 -1 0 841)" d="M157.34 185.21L207.764 185.21L207.764 185.21L207.764 185.69L207.764 185.69L157.34 185.69z" stroke="none" fill="#000000" fill-rule="evenodd" /><path transform="matrix(1 0 0 -1 0 841)" d="M207.77 185.21L208.25 185.21L208.25 185.21L208.25 185.69L208.25 185.69L207.77 185.69z" stroke="none" fill="#000000" fill-rule="evenodd" /><path transform="matrix(1 0 0 -1 0 841)" d="M208.25 185.21L251.57 185.21L251.57 185.21L251.57 185.69L251.57 185.69L208.25 185.69z" stroke="none" fill="#000000" fill-rule="evenodd" /><path transform="matrix(1 0 0 -1 0 841)" d="M251.57 185.21L252.05 185.21L252.05 185.21L252.05 185.69L252.05 185.69L251.57 185.69z" stroke="none" fill="#000000" fill-rule="evenodd" /><path transform="matrix(1 0 0 -1 0 841)" d="M252.05 185.21L375.19 185.21L375.19 185.21L375.19 185.69L375.19 185.69L252.05 185.69z" stroke="none" fill="#000000" fill-rule="evenodd" /><path transform="matrix(1 0 0 -1 0 841)" d="M375.19 185.21L375.67 185.21L375.67 185.21L375.67 185.69L375.67 185.69L375.19 185.69z" stroke="none" fill="#000000" fill-rule="evenodd" /><path transform="matrix(1 0 0 -1 0 841)" d="M375.67 185.21L520.89 185.21L520.89 185.21L520.89 185.69L520.89 185.69L375.67 185.69z" stroke="none" fill="#000000" fill-rule="evenodd" /><path transform="matrix(1 0 0 -1 0 841)" d="M520.9 185.21L521.38 185.21L521.38 185.21L521.38 185.69L521.38 185.69L520.9 185.69z" stroke="none" fill="#000000" fill-rule="evenodd" /><path transform="matrix(1 0 0 -1 0 841)" d="M520.9 185.21L521.38 185.21L521.38 185.21L521.38 185.69L521.38 185.69L520.9 185.69z" stroke="none" fill="#000000" fill-rule="evenodd" /><path transform="matrix(1 0 0 -1 0 841)" d="M84.264 166.1L84.744 166.1L84.744 166.1L84.744 185.204L84.744 185.204L84.264 185.204z" stroke="none" fill="#000000" fill-rule="evenodd" /><path transform="matrix(1 0 0 -1 0 841)" d="M156.86 166.1L157.34 166.1L157.34 166.1L157.34 185.204L157.34 185.204L156.86 185.204z" stroke="none" fill="#000000" fill-rule="evenodd" /><path transform="matrix(1 0 0 -1 0 841)" d="M207.77 166.1L208.25 166.1L208.25 166.1L208.25 185.204L208.25 185.204L207.77 185.204z" stroke="none" fill="#000000" fill-rule="evenodd" /><path transform="matrix(1 0 0 -1 0 841)" d="M251.57 166.1L252.05 166.1L252.05 166.1L252.05 185.204L252.05 185.204L251.57 185.204z" stroke="none" fill="#000000" fill-rule="evenodd" /><path transform="matrix(1 0 0 -1 0 841)" d="M375.19 166.1L375.67 166.1L375.67 166.1L375.67 185.204L375.67 185.204L375.19 185.204z" stroke="none" fill="#000000" fill-rule="evenodd" /><path transform="matrix(1 0 0 -1 0 841)" d="M520.9 166.1L521.38 166.1L521.38 166.1L521.38 185.204L521.38 185.204L520.9 185.204z" stroke="none" fill="#000000" fill-rule="evenodd" /><path transform="matrix(1 0 0 -1 0 841)" d="M84.744 127.58L156.864 127.58L156.864 127.58L156.864 165.62L156.864 165.62L84.744 165.62z" stroke="none" fill="#DAEEF3" fill-rule="evenodd" /><g clip-path="url(#101)"><path transform="matrix(1 0 0 -1 0 841)" d="M89.904 146.54L151.704 146.54L151.704 146.54L151.704 165.62L151.704 165.62L89.904 165.62z" stroke="none" fill="#DAEEF3" fill-rule="evenodd" /><g clip-path="url(#102)"></g><g clip-path="url(#103)"></g></g><path transform="matrix(1 0 0 -1 0 841)" d="M157.34 127.58L207.764 127.58L207.764 127.58L207.764 165.62L207.764 165.62L157.34 165.62z" stroke="none" fill="#DAEEF3" fill-rule="evenodd" /><g clip-path="url(#104)"><path transform="matrix(1 0 0 -1 0 841)" d="M162.5 146.54L202.604 146.54L202.604 146.54L202.604 165.62L202.604 165.62L162.5 165.62z" stroke="none" fill="#DAEEF3" fill-rule="evenodd" /><g clip-path="url(#105)"></g><g clip-path="url(#106)"></g></g><path transform="matrix(1 0 0 -1 0 841)" d="M208.25 127.58L251.45 127.58L251.45 127.58L251.45 165.62L251.45 165.62L208.25 165.62z" stroke="none" fill="#DAEEF3" fill-rule="evenodd" /><g clip-path="url(#107)"><path transform="matrix(1 0 0 -1 0 841)" d="M213.41 146.54L246.41 146.54L246.41 146.54L246.41 165.62L246.41 165.62L213.41 165.62z" stroke="none" fill="#DAEEF3" fill-rule="evenodd" /><g clip-path="url(#108)"></g><g clip-path="url(#109)"></g></g><path transform="matrix(1 0 0 -1 0 841)" d="M252.05 127.58L375.19 127.58L375.19 127.58L375.19 165.62L375.19 165.62L252.05 165.62z" stroke="none" fill="#DAEEF3" fill-rule="evenodd" /><g clip-path="url(#110)"><path transform="matrix(1 0 0 -1 0 841)" d="M257.21 146.54L370.03 146.54L370.03 146.54L370.03 165.62L370.03 165.62L257.21 165.62z" stroke="none" fill="#DAEEF3" fill-rule="evenodd" /><g clip-path="url(#111)"></g><path transform="matrix(1 0 0 -1 0 841)" d="M257.21 127.58L370.03 127.58L370.03 127.58L370.03 146.54L370.03 146.54L257.21 146.54z" stroke="none" fill="#DAEEF3" fill-rule="evenodd" /><g clip-path="url(#112)"></g><g clip-path="url(#113)"></g></g><path transform="matrix(1 0 0 -1 0 841)" d="M375.67 127.58L520.89 127.58L520.89 127.58L520.89 165.62L520.89 165.62L375.67 165.62z" stroke="none" fill="#DAEEF3" fill-rule="evenodd" /><g clip-path="url(#114)"><path transform="matrix(1 0 0 -1 0 841)" d="M380.83 146.54L515.73 146.54L515.73 146.54L515.73 165.62L515.73 165.62L380.83 165.62z" stroke="none" fill="#DAEEF3" fill-rule="evenodd" /><g clip-path="url(#115)"></g><path transform="matrix(1 0 0 -1 0 841)" d="M380.83 127.58L515.73 127.58L515.73 127.58L515.73 146.54L515.73 146.54L380.83 146.54z" stroke="none" fill="#DAEEF3" fill-rule="evenodd" /><g clip-path="url(#116)"></g><g clip-path="url(#117)"></g></g><path transform="matrix(1 0 0 -1 0 841)" d="M84.264 165.62L84.744 165.62L84.744 165.62L84.744 166.1L84.744 166.1L84.264 166.1z" stroke="none" fill="#000000" fill-rule="evenodd" /><path transform="matrix(1 0 0 -1 0 841)" d="M84.744 165.62L156.864 165.62L156.864 165.62L156.864 166.1L156.864 166.1L84.744 166.1z" stroke="none" fill="#000000" fill-rule="evenodd" /><path transform="matrix(1 0 0 -1 0 841)" d="M156.86 165.62L157.34 165.62L157.34 165.62L157.34 166.1L157.34 166.1L156.86 166.1z" stroke="none" fill="#000000" fill-rule="evenodd" /><path transform="matrix(1 0 0 -1 0 841)" d="M157.34 165.62L207.764 165.62L207.764 165.62L207.764 166.1L207.764 166.1L157.34 166.1z" stroke="none" fill="#000000" fill-rule="evenodd" /><path transform="matrix(1 0 0 -1 0 841)" d="M207.77 165.62L208.25 165.62L208.25 165.62L208.25 166.1L208.25 166.1L207.77 166.1z" stroke="none" fill="#000000" fill-rule="evenodd" /><path transform="matrix(1 0 0 -1 0 841)" d="M208.25 165.62L251.57 165.62L251.57 165.62L251.57 166.1L251.57 166.1L208.25 166.1z" stroke="none" fill="#000000" fill-rule="evenodd" /><path transform="matrix(1 0 0 -1 0 841)" d="M251.57 165.62L252.05 165.62L252.05 165.62L252.05 166.1L252.05 166.1L251.57 166.1z" stroke="none" fill="#000000" fill-rule="evenodd" /><path transform="matrix(1 0 0 -1 0 841)" d="M252.05 165.62L375.19 165.62L375.19 165.62L375.19 166.1L375.19 166.1L252.05 166.1z" stroke="none" fill="#000000" fill-rule="evenodd" /><path transform="matrix(1 0 0 -1 0 841)" d="M375.19 165.62L375.67 165.62L375.67 165.62L375.67 166.1L375.67 166.1L375.19 166.1z" stroke="none" fill="#000000" fill-rule="evenodd" /><path transform="matrix(1 0 0 -1 0 841)" d="M375.67 165.62L520.89 165.62L520.89 165.62L520.89 166.1L520.89 166.1L375.67 166.1z" stroke="none" fill="#000000" fill-rule="evenodd" /><path transform="matrix(1 0 0 -1 0 841)" d="M520.9 165.62L521.38 165.62L521.38 165.62L521.38 166.1L521.38 166.1L520.9 166.1z" stroke="none" fill="#000000" fill-rule="evenodd" /><path transform="matrix(1 0 0 -1 0 841)" d="M84.264 127.58L84.744 127.58L84.744 127.58L84.744 165.62L84.744 165.62L84.264 165.62z" stroke="none" fill="#000000" fill-rule="evenodd" /><path transform="matrix(1 0 0 -1 0 841)" d="M156.86 127.58L157.34 127.58L157.34 127.58L157.34 165.62L157.34 165.62L156.86 165.62z" stroke="none" fill="#000000" fill-rule="evenodd" /><path transform="matrix(1 0 0 -1 0 841)" d="M207.77 127.58L208.25 127.58L208.25 127.58L208.25 165.62L208.25 165.62L207.77 165.62z" stroke="none" fill="#000000" fill-rule="evenodd" /><path transform="matrix(1 0 0 -1 0 841)" d="M251.57 127.58L252.05 127.58L252.05 127.58L252.05 165.62L252.05 165.62L251.57 165.62z" stroke="none" fill="#000000" fill-rule="evenodd" /><path transform="matrix(1 0 0 -1 0 841)" d="M375.19 127.58L375.67 127.58L375.67 127.58L375.67 165.62L375.67 165.62L375.19 165.62z" stroke="none" fill="#000000" fill-rule="evenodd" /><path transform="matrix(1 0 0 -1 0 841)" d="M520.9 127.58L521.38 127.58L521.38 127.58L521.38 165.62L521.38 165.62L520.9 165.62z" stroke="none" fill="#000000" fill-rule="evenodd" /><g clip-path="url(#118)"><g clip-path="url(#119)"></g><g clip-path="url(#120)"></g></g><g clip-path="url(#121)"><g clip-path="url(#122)"></g><g clip-path="url(#123)"></g></g><g clip-path="url(#124)"><g clip-path="url(#125)"></g><g clip-path="url(#126)"></g></g><g clip-path="url(#127)"><g clip-path="url(#128)"></g><g clip-path="url(#129)"></g></g><g clip-path="url(#130)"><g clip-path="url(#131)"></g><g clip-path="url(#132)"></g></g><path transform="matrix(1 0 0 -1 0 841)" d="M84.264 127.1L84.744 127.1L84.744 127.1L84.744 127.58L84.744 127.58L84.264 127.58z" stroke="none" fill="#000000" fill-rule="evenodd" /><path transform="matrix(1 0 0 -1 0 841)" d="M84.744 127.1L156.864 127.1L156.864 127.1L156.864 127.58L156.864 127.58L84.744 127.58z" stroke="none" fill="#000000" fill-rule="evenodd" /><path transform="matrix(1 0 0 -1 0 841)" d="M156.86 127.1L157.34 127.1L157.34 127.1L157.34 127.58L157.34 127.58L156.86 127.58z" stroke="none" fill="#000000" fill-rule="evenodd" /><path transform="matrix(1 0 0 -1 0 841)" d="M157.34 127.1L207.764 127.1L207.764 127.1L207.764 127.58L207.764 127.58L157.34 127.58z" stroke="none" fill="#000000" fill-rule="evenodd" /><path transform="matrix(1 0 0 -1 0 841)" d="M207.77 127.1L208.25 127.1L208.25 127.1L208.25 127.58L208.25 127.58L207.77 127.58z" stroke="none" fill="#000000" fill-rule="evenodd" /><path transform="matrix(1 0 0 -1 0 841)" d="M208.25 127.1L251.57 127.1L251.57 127.1L251.57 127.58L251.57 127.58L208.25 127.58z" stroke="none" fill="#000000" fill-rule="evenodd" /><path transform="matrix(1 0 0 -1 0 841)" d="M251.57 127.1L252.05 127.1L252.05 127.1L252.05 127.58L252.05 127.58L251.57 127.58z" stroke="none" fill="#000000" fill-rule="evenodd" /><path transform="matrix(1 0 0 -1 0 841)" d="M252.05 127.1L375.19 127.1L375.19 127.1L375.19 127.58L375.19 127.58L252.05 127.58z" stroke="none" fill="#000000" fill-rule="evenodd" /><path transform="matrix(1 0 0 -1 0 841)" d="M375.19 127.1L375.67 127.1L375.67 127.1L375.67 127.58L375.67 127.58L375.19 127.58z" stroke="none" fill="#000000" fill-rule="evenodd" /><path transform="matrix(1 0 0 -1 0 841)" d="M375.67 127.1L520.89 127.1L520.89 127.1L520.89 127.58L520.89 127.58L375.67 127.58z" stroke="none" fill="#000000" fill-rule="evenodd" /><path transform="matrix(1 0 0 -1 0 841)" d="M520.9 127.1L521.38 127.1L521.38 127.1L521.38 127.58L521.38 127.58L520.9 127.58z" stroke="none" fill="#000000" fill-rule="evenodd" /><path transform="matrix(1 0 0 -1 0 841)" d="M84.264 108.02L84.744 108.02L84.744 108.02L84.744 127.1L84.744 127.1L84.264 127.1z" stroke="none" fill="#000000" fill-rule="evenodd" /><path transform="matrix(1 0 0 -1 0 841)" d="M84.264 107.54L84.744 107.54L84.744 107.54L84.744 108.02L84.744 108.02L84.264 108.02z" stroke="none" fill="#000000" fill-rule="evenodd" /><path transform="matrix(1 0 0 -1 0 841)" d="M84.264 107.54L84.744 107.54L84.744 107.54L84.744 108.02L84.744 108.02L84.264 108.02z" stroke="none" fill="#000000" fill-rule="evenodd" /><path transform="matrix(1 0 0 -1 0 841)" d="M84.744 107.54L156.864 107.54L156.864 107.54L156.864 108.02L156.864 108.02L84.744 108.02z" stroke="none" fill="#000000" fill-rule="evenodd" /><path transform="matrix(1 0 0 -1 0 841)" d="M156.86 108.02L157.34 108.02L157.34 108.02L157.34 127.1L157.34 127.1L156.86 127.1z" stroke="none" fill="#000000" fill-rule="evenodd" /><path transform="matrix(1 0 0 -1 0 841)" d="M156.86 107.54L157.34 107.54L157.34 107.54L157.34 108.02L157.34 108.02L156.86 108.02z" stroke="none" fill="#000000" fill-rule="evenodd" /><path transform="matrix(1 0 0 -1 0 841)" d="M157.34 107.54L207.764 107.54L207.764 107.54L207.764 108.02L207.764 108.02L157.34 108.02z" stroke="none" fill="#000000" fill-rule="evenodd" /><path transform="matrix(1 0 0 -1 0 841)" d="M207.77 108.02L208.25 108.02L208.25 108.02L208.25 127.1L208.25 127.1L207.77 127.1z" stroke="none" fill="#000000" fill-rule="evenodd" /><path transform="matrix(1 0 0 -1 0 841)" d="M207.77 107.54L208.25 107.54L208.25 107.54L208.25 108.02L208.25 108.02L207.77 108.02z" stroke="none" fill="#000000" fill-rule="evenodd" /><path transform="matrix(1 0 0 -1 0 841)" d="M208.25 107.54L251.57 107.54L251.57 107.54L251.57 108.02L251.57 108.02L208.25 108.02z" stroke="none" fill="#000000" fill-rule="evenodd" /><path transform="matrix(1 0 0 -1 0 841)" d="M251.57 108.02L252.05 108.02L252.05 108.02L252.05 127.1L252.05 127.1L251.57 127.1z" stroke="none" fill="#000000" fill-rule="evenodd" /><path transform="matrix(1 0 0 -1 0 841)" d="M251.57 107.54L252.05 107.54L252.05 107.54L252.05 108.02L252.05 108.02L251.57 108.02z" stroke="none" fill="#000000" fill-rule="evenodd" /><path transform="matrix(1 0 0 -1 0 841)" d="M252.05 107.54L375.19 107.54L375.19 107.54L375.19 108.02L375.19 108.02L252.05 108.02z" stroke="none" fill="#000000" fill-rule="evenodd" /><path transform="matrix(1 0 0 -1 0 841)" d="M375.19 108.02L375.67 108.02L375.67 108.02L375.67 127.1L375.67 127.1L375.19 127.1z" stroke="none" fill="#000000" fill-rule="evenodd" /><path transform="matrix(1 0 0 -1 0 841)" d="M375.19 107.54L375.67 107.54L375.67 107.54L375.67 108.02L375.67 108.02L375.19 108.02z" stroke="none" fill="#000000" fill-rule="evenodd" /><path transform="matrix(1 0 0 -1 0 841)" d="M375.67 107.54L520.89 107.54L520.89 107.54L520.89 108.02L520.89 108.02L375.67 108.02z" stroke="none" fill="#000000" fill-rule="evenodd" /><path transform="matrix(1 0 0 -1 0 841)" d="M520.9 108.02L521.38 108.02L521.38 108.02L521.38 127.1L521.38 127.1L520.9 127.1z" stroke="none" fill="#000000" fill-rule="evenodd" /><path transform="matrix(1 0 0 -1 0 841)" d="M520.9 107.54L521.38 107.54L521.38 107.54L521.38 108.02L521.38 108.02L520.9 108.02z" stroke="none" fill="#000000" fill-rule="evenodd" /><path transform="matrix(1 0 0 -1 0 841)" d="M520.9 107.54L521.38 107.54L521.38 107.54L521.38 108.02L521.38 108.02L520.9 108.02z" stroke="none" fill="#000000" fill-rule="evenodd" /></g></g></g></svg>