<svg xmlns="http://www.w3.org/2000/svg" xmlns:xlink="http://www.w3.org/1999/xlink" id="body_232" preserveAspectRatio="xMinYMin meet" viewBox="0 0 793 1121"><defs><clipPath id="1"><path d="M0 841L0 -0.9199829L0 -0.9199829L595.32 -0.9199829L595.32 -0.9199829L595.32 841L595.32 841L0 841z" /></clipPath><clipPath id="2"><path d="M0.00125 841.0914L595.4112 841.0914L595.4112 841.0914L595.4112 -0.9186401L595.4112 -0.9186401L0.00125 -0.9186401z" /></clipPath><clipPath id="3"><path d="M288.05 781.211L316.01 781.211L316.01 781.211L316.01 762.011L316.01 762.011L288.05 762.011z" /></clipPath><clipPath id="4"><path d="M288.05 781.216L316.01 781.216L316.01 781.216L316.01 762.016L316.01 762.016L288.05 762.016z" /></clipPath><clipPath id="5"><path d="M288.05 781.216L316.01 781.216L316.01 781.216L316.01 762.016L316.01 762.016L288.05 762.016z" /></clipPath><clipPath id="6"><path d="M84.751 114.55L174.271 114.55L174.271 114.55L174.271 89.44L174.271 89.44L84.751 89.44z" /></clipPath><clipPath id="7"><path d="M84.744 114.54L174.264 114.54L174.264 114.54L174.264 89.43597L174.264 89.43597L84.744 89.43597z" /></clipPath><clipPath id="8"><path d="M84.744 114.54L174.264 114.54L174.264 114.54L174.264 89.43597L174.264 89.43597L84.744 89.43597z" /></clipPath><clipPath id="9"><path d="M174.75 114.55L222.405 114.55L222.405 114.55L222.405 89.44L222.405 89.44L174.75 89.44z" /></clipPath><clipPath id="10"><path d="M174.74 114.54L222.404 114.54L222.404 114.54L222.404 89.43597L222.404 89.43597L174.74 89.43597z" /></clipPath><clipPath id="11"><path d="M174.74 114.54L222.404 114.54L222.404 114.54L222.404 89.43597L222.404 89.43597L174.74 89.43597z" /></clipPath><clipPath id="12"><path d="M222.89 114.55L273.17 114.55L273.17 114.55L273.17 89.44L273.17 89.44L222.89 89.44z" /></clipPath><clipPath id="13"><path d="M222.89 114.54L273.17 114.54L273.17 114.54L273.17 89.43597L273.17 89.43597L222.89 89.43597z" /></clipPath><clipPath id="14"><path d="M222.89 114.54L273.17 114.54L273.17 114.54L273.17 89.43597L273.17 89.43597L222.89 89.43597z" /></clipPath><clipPath id="15"><path d="M273.65 114.55L351.08 114.55L351.08 114.55L351.08 89.44L351.08 89.44L273.65 89.44z" /></clipPath><clipPath id="16"><path d="M273.65 114.54L351.074 114.54L351.074 114.54L351.074 89.43597L351.074 89.43597L273.65 89.43597z" /></clipPath><clipPath id="17"><path d="M273.65 114.54L351.074 114.54L351.074 114.54L351.074 89.43597L351.074 89.43597L273.65 89.43597z" /></clipPath><clipPath id="18"><path d="M351.56 114.55L499.42 114.55L499.42 114.55L499.42 89.44L499.42 89.44L351.56 89.44z" /></clipPath><clipPath id="19"><path d="M351.55 114.54L499.41 114.54L499.41 114.54L499.41 89.43597L499.41 89.43597L351.55 89.43597z" /></clipPath><clipPath id="20"><path d="M351.55 114.54L499.41 114.54L499.41 114.54L499.41 89.43597L499.41 89.43597L351.55 89.43597z" /></clipPath><clipPath id="21"><path d="M351.56 229.27L499.42 229.27L499.42 229.27L499.42 115.03L499.42 115.03L351.56 115.03z" /></clipPath><clipPath id="22"><path d="M351.55 229.26L499.41 229.26L499.41 229.26L499.41 115.02L499.41 115.02L351.55 115.02z" /></clipPath><clipPath id="23"><path d="M351.55 229.26L499.41 229.26L499.41 229.26L499.41 115.02L499.41 115.02L351.55 115.02z" /></clipPath><clipPath id="24"><path d="M351.55 229.26L499.41 229.26L499.41 229.26L499.41 115.02L499.41 115.02L351.55 115.02z" /></clipPath><clipPath id="25"><path d="M351.55 229.26L499.41 229.26L499.41 229.26L499.41 115.02L499.41 115.02L351.55 115.02z" /></clipPath><clipPath id="26"><path d="M351.55 229.26L499.41 229.26L499.41 229.26L499.41 115.02L499.41 115.02L351.55 115.02z" /></clipPath><clipPath id="27"><path d="M351.55 229.26L499.41 229.26L499.41 229.26L499.41 115.02L499.41 115.02L351.55 115.02z" /></clipPath><clipPath id="28"><path d="M351.55 229.26L499.41 229.26L499.41 229.26L499.41 115.02L499.41 115.02L351.55 115.02z" /></clipPath><clipPath id="29"><path d="M351.55 229.26L499.41 229.26L499.41 229.26L499.41 115.02L499.41 115.02L351.55 115.02z" /></clipPath><clipPath id="30"><path d="M351.55 229.26L499.41 229.26L499.41 229.26L499.41 115.02L499.41 115.02L351.55 115.02z" /></clipPath><clipPath id="31"><path d="M351.55 229.26L499.41 229.26L499.41 229.26L499.41 115.02L499.41 115.02L351.55 115.02z" /></clipPath><clipPath id="32"><path d="M351.55 229.26L499.41 229.26L499.41 229.26L499.41 115.02L499.41 115.02L351.55 115.02z" /></clipPath><clipPath id="33"><path d="M351.55 229.26L499.41 229.26L499.41 229.26L499.41 115.02L499.41 115.02L351.55 115.02z" /></clipPath><clipPath id="34"><path d="M351.55 229.26L499.41 229.26L499.41 229.26L499.41 115.02L499.41 115.02L351.55 115.02z" /></clipPath><clipPath id="35"><path d="M351.55 229.26L499.41 229.26L499.41 229.26L499.41 115.02L499.41 115.02L351.55 115.02z" /></clipPath><clipPath id="36"><path d="M351.55 229.26L499.41 229.26L499.41 229.26L499.41 115.02L499.41 115.02L351.55 115.02z" /></clipPath><clipPath id="37"><path d="M351.55 229.26L499.41 229.26L499.41 229.26L499.41 115.02L499.41 115.02L351.55 115.02z" /></clipPath><clipPath id="38"><path d="M351.55 229.26L499.41 229.26L499.41 229.26L499.41 115.02L499.41 115.02L351.55 115.02z" /></clipPath><clipPath id="39"><path d="M84.751 280.51L174.271 280.51L174.271 280.51L174.271 229.87L174.271 229.87L84.751 229.87z" /></clipPath><clipPath id="40"><path d="M84.744 280.5L174.264 280.5L174.264 280.5L174.264 229.86L174.264 229.86L84.744 229.86z" /></clipPath><clipPath id="41"><path d="M84.744 280.5L174.264 280.5L174.264 280.5L174.264 229.86L174.264 229.86L84.744 229.86z" /></clipPath><clipPath id="42"><path d="M174.75 280.51L222.405 280.51L222.405 280.51L222.405 229.87L222.405 229.87L174.75 229.87z" /></clipPath><clipPath id="43"><path d="M174.74 280.5L222.404 280.5L222.404 280.5L222.404 229.86L222.404 229.86L174.74 229.86z" /></clipPath><clipPath id="44"><path d="M174.74 280.5L222.404 280.5L222.404 280.5L222.404 229.86L222.404 229.86L174.74 229.86z" /></clipPath><clipPath id="45"><path d="M222.89 280.51L273.17 280.51L273.17 280.51L273.17 229.87L273.17 229.87L222.89 229.87z" /></clipPath><clipPath id="46"><path d="M222.89 280.5L273.17 280.5L273.17 280.5L273.17 229.86L273.17 229.86L222.89 229.86z" /></clipPath><clipPath id="47"><path d="M222.89 280.5L273.17 280.5L273.17 280.5L273.17 229.86L273.17 229.86L222.89 229.86z" /></clipPath><clipPath id="48"><path d="M273.65 280.51L351.08 280.51L351.08 280.51L351.08 229.87L351.08 229.87L273.65 229.87z" /></clipPath><clipPath id="49"><path d="M273.65 280.5L351.074 280.5L351.074 280.5L351.074 229.86L351.074 229.86L273.65 229.86z" /></clipPath><clipPath id="50"><path d="M273.65 280.5L351.074 280.5L351.074 280.5L351.074 229.86L351.074 229.86L273.65 229.86z" /></clipPath><clipPath id="51"><path d="M351.56 280.51L499.42 280.51L499.42 280.51L499.42 229.87L499.42 229.87L351.56 229.87z" /></clipPath><clipPath id="52"><path d="M351.55 280.5L499.41 280.5L499.41 280.5L499.41 229.86L499.41 229.86L351.55 229.86z" /></clipPath><clipPath id="53"><path d="M351.55 280.5L499.41 280.5L499.41 280.5L499.41 229.86L499.41 229.86L351.55 229.86z" /></clipPath><clipPath id="54"><path d="M351.55 280.5L499.41 280.5L499.41 280.5L499.41 229.86L499.41 229.86L351.55 229.86z" /></clipPath><clipPath id="55"><path d="M351.55 280.5L499.41 280.5L499.41 280.5L499.41 229.86L499.41 229.86L351.55 229.86z" /></clipPath><clipPath id="56"><path d="M351.55 280.5L499.41 280.5L499.41 280.5L499.41 229.86L499.41 229.86L351.55 229.86z" /></clipPath><clipPath id="57"><path d="M351.55 280.5L499.41 280.5L499.41 280.5L499.41 229.86L499.41 229.86L351.55 229.86z" /></clipPath><clipPath id="58"><path d="M84.751 434.01L510.691 434.01L510.691 434.01L510.691 414.93L510.691 414.93L84.751 414.93z" /></clipPath><clipPath id="59"><path d="M84.744 434.01L510.694 434.01L510.694 434.01L510.694 414.93L510.694 414.93L84.744 414.93z" /></clipPath><clipPath id="60"><path d="M84.744 434.01L510.694 434.01L510.694 434.01L510.694 414.93L510.694 414.93L84.744 414.93z" /></clipPath><clipPath id="61"><path d="M84.751 605.88L510.691 605.88L510.691 605.88L510.691 434.49L510.691 434.49L84.751 434.49z" /></clipPath><clipPath id="62"><path d="M84.744 605.87L510.694 605.87L510.694 605.87L510.694 434.49L510.694 434.49L84.744 434.49z" /></clipPath><clipPath id="63"><path d="M84.744 605.87L510.694 605.87L510.694 605.87L510.694 434.49L510.694 434.49L84.744 434.49z" /></clipPath><clipPath id="64"><path d="M84.744 605.87L510.694 605.87L510.694 605.87L510.694 434.49L510.694 434.49L84.744 434.49z" /></clipPath><clipPath id="65"><path d="M84.744 605.87L510.694 605.87L510.694 605.87L510.694 434.49L510.694 434.49L84.744 434.49z" /></clipPath><clipPath id="66"><path d="M84.744 605.87L510.694 605.87L510.694 605.87L510.694 434.49L510.694 434.49L84.744 434.49z" /></clipPath><clipPath id="67"><path d="M84.744 605.87L510.694 605.87L510.694 605.87L510.694 434.49L510.694 434.49L84.744 434.49z" /></clipPath><clipPath id="68"><path d="M84.744 605.87L510.694 605.87L510.694 605.87L510.694 434.49L510.694 434.49L84.744 434.49z" /></clipPath><clipPath id="69"><path d="M84.744 605.87L510.694 605.87L510.694 605.87L510.694 434.49L510.694 434.49L84.744 434.49z" /></clipPath><clipPath id="70"><path d="M84.744 605.87L510.694 605.87L510.694 605.87L510.694 434.49L510.694 434.49L84.744 434.49z" /></clipPath><clipPath id="71"><path d="M84.744 605.87L510.694 605.87L510.694 605.87L510.694 434.49L510.694 434.49L84.744 434.49z" /></clipPath><clipPath id="72"><path d="M84.744 605.87L510.694 605.87L510.694 605.87L510.694 434.49L510.694 434.49L84.744 434.49z" /></clipPath><clipPath id="73"><path d="M84.744 605.87L510.694 605.87L510.694 605.87L510.694 434.49L510.694 434.49L84.744 434.49z" /></clipPath><clipPath id="74"><path d="M84.744 605.87L510.694 605.87L510.694 605.87L510.694 434.49L510.694 434.49L84.744 434.49z" /></clipPath><clipPath id="75"><path d="M84.744 605.87L510.694 605.87L510.694 605.87L510.694 434.49L510.694 434.49L84.744 434.49z" /></clipPath><clipPath id="76"><path d="M84.744 605.87L510.694 605.87L510.694 605.87L510.694 434.49L510.694 434.49L84.744 434.49z" /></clipPath><clipPath id="77"><path d="M84.744 605.87L510.694 605.87L510.694 605.87L510.694 434.49L510.694 434.49L84.744 434.49z" /></clipPath><clipPath id="78"><path d="M84.744 605.87L510.694 605.87L510.694 605.87L510.694 434.49L510.694 434.49L84.744 434.49z" /></clipPath><clipPath id="79"><path d="M84.744 605.87L510.694 605.87L510.694 605.87L510.694 434.49L510.694 434.49L84.744 434.49z" /></clipPath><clipPath id="80"><path d="M84.744 605.87L510.694 605.87L510.694 605.87L510.694 434.49L510.694 434.49L84.744 434.49z" /></clipPath><clipPath id="81"><path d="M84.744 605.87L510.694 605.87L510.694 605.87L510.694 434.49L510.694 434.49L84.744 434.49z" /></clipPath><clipPath id="82"><path d="M84.744 605.87L510.694 605.87L510.694 605.87L510.694 434.49L510.694 434.49L84.744 434.49z" /></clipPath><clipPath id="83"><path d="M84.744 605.87L510.694 605.87L510.694 605.87L510.694 434.49L510.694 434.49L84.744 434.49z" /></clipPath><clipPath id="84"><path d="M84.744 605.87L510.694 605.87L510.694 605.87L510.694 434.49L510.694 434.49L84.744 434.49z" /></clipPath><clipPath id="85"><path d="M84.744 605.87L510.694 605.87L510.694 605.87L510.694 434.49L510.694 434.49L84.744 434.49z" /></clipPath><clipPath id="86"><path d="M84.744 605.87L510.694 605.87L510.694 605.87L510.694 434.49L510.694 434.49L84.744 434.49z" /></clipPath><clipPath id="87"><path d="M84.744 605.87L510.694 605.87L510.694 605.87L510.694 434.49L510.694 434.49L84.744 434.49z" /></clipPath><clipPath id="88"><path d="M84.744 605.87L510.694 605.87L510.694 605.87L510.694 434.49L510.694 434.49L84.744 434.49z" /></clipPath><clipPath id="89"><path d="M84.744 605.87L510.694 605.87L510.694 605.87L510.694 434.49L510.694 434.49L84.744 434.49z" /></clipPath><clipPath id="90"><path d="M84.751 743.051L186.271 743.051L186.271 743.051L186.271 717.971L186.271 717.971L84.751 717.971z" /></clipPath><clipPath id="91"><path d="M84.744 743.056L186.264 743.056L186.264 743.056L186.264 717.976L186.264 717.976L84.744 717.976z" /></clipPath><clipPath id="92"><path d="M84.744 743.056L186.264 743.056L186.264 743.056L186.264 717.976L186.264 717.976L84.744 717.976z" /></clipPath><clipPath id="93"><path d="M186.75 743.051L250.005 743.051L250.005 743.051L250.005 717.971L250.005 717.971L186.75 717.971z" /></clipPath><clipPath id="94"><path d="M186.74 743.056L250.004 743.056L250.004 743.056L250.004 717.976L250.004 717.976L186.74 717.976z" /></clipPath><clipPath id="95"><path d="M186.74 743.056L250.004 743.056L250.004 743.056L250.004 717.976L250.004 717.976L186.74 717.976z" /></clipPath><clipPath id="96"><path d="M250.49 743.051L345.92 743.051L345.92 743.051L345.92 717.971L345.92 717.971L250.49 717.971z" /></clipPath><clipPath id="97"><path d="M250.49 743.056L345.914 743.056L345.914 743.056L345.914 717.976L345.914 717.976L250.49 717.976z" /></clipPath><clipPath id="98"><path d="M250.49 743.056L345.914 743.056L345.914 743.056L345.914 717.976L345.914 717.976L250.49 717.976z" /></clipPath><clipPath id="99"><path d="M346.4 743.051L502.54 743.051L502.54 743.051L502.54 717.971L502.54 717.971L346.4 717.971z" /></clipPath><clipPath id="100"><path d="M346.39 743.056L502.53 743.056L502.53 743.056L502.53 717.976L502.53 717.976L346.39 717.976z" /></clipPath><clipPath id="101"><path d="M346.39 743.056L502.53 743.056L502.53 743.056L502.53 717.976L502.53 717.976L346.39 717.976z" /></clipPath></defs><g transform="matrix(1.333333 0 0 1.333333 0 0)"><g><g clip-path="url(#1)"><path transform="matrix(1 0 0 -1 0 841)" d="M457.51 53.304L505.534 53.304L505.534 53.304L505.534 53.90404L505.534 53.90404L457.51 53.90404z" stroke="none" fill="#000000" fill-rule="evenodd" /><g clip-path="url(#2)"><path transform="matrix(1 0 0 -1 0 841)" d="M88.464 77.904L506.974 77.904L506.974 77.904L506.974 80.904L506.974 80.904L88.464 80.904z" stroke="none" fill="#000000" fill-rule="evenodd" /><path transform="matrix(1 0 0 -1 0 841)" d="M88.464 76.464L506.974 76.464L506.974 76.464L506.974 77.18397L506.974 77.18397L88.464 77.18397z" stroke="none" fill="#000000" fill-rule="evenodd" /></g><g clip-path="url(#3)"><g clip-path="url(#4)"></g><g clip-path="url(#5)"></g></g><path transform="matrix(1 0 0 -1 0 841)" d="M84.744 726.46L174.264 726.46L174.264 726.46L174.264 751.564L174.264 751.564L84.744 751.564z" stroke="none" fill="#0070C0" fill-rule="evenodd" /><g clip-path="url(#6)"><path transform="matrix(1 0 0 -1 0 841)" d="M89.904 726.46L169.104 726.46L169.104 726.46L169.104 751.564L169.104 751.564L89.904 751.564z" stroke="none" fill="#0070C0" fill-rule="evenodd" /><g clip-path="url(#7)"></g><g clip-path="url(#8)"></g></g><path transform="matrix(1 0 0 -1 0 841)" d="M174.74 726.46L222.404 726.46L222.404 726.46L222.404 751.564L222.404 751.564L174.74 751.564z" stroke="none" fill="#0070C0" fill-rule="evenodd" /><g clip-path="url(#9)"><path transform="matrix(1 0 0 -1 0 841)" d="M179.9 726.46L217.244 726.46L217.244 726.46L217.244 751.564L217.244 751.564L179.9 751.564z" stroke="none" fill="#0070C0" fill-rule="evenodd" /><g clip-path="url(#10)"></g><g clip-path="url(#11)"></g></g><path transform="matrix(1 0 0 -1 0 841)" d="M222.89 726.46L273.17 726.46L273.17 726.46L273.17 751.564L273.17 751.564L222.89 751.564z" stroke="none" fill="#0070C0" fill-rule="evenodd" /><g clip-path="url(#12)"><path transform="matrix(1 0 0 -1 0 841)" d="M228.05 726.46L268.01 726.46L268.01 726.46L268.01 751.564L268.01 751.564L228.05 751.564z" stroke="none" fill="#0070C0" fill-rule="evenodd" /><g clip-path="url(#13)"></g><g clip-path="url(#14)"></g></g><path transform="matrix(1 0 0 -1 0 841)" d="M273.65 726.46L351.074 726.46L351.074 726.46L351.074 751.564L351.074 751.564L273.65 751.564z" stroke="none" fill="#0070C0" fill-rule="evenodd" /><g clip-path="url(#15)"><path transform="matrix(1 0 0 -1 0 841)" d="M278.81 726.46L345.914 726.46L345.914 726.46L345.914 751.564L345.914 751.564L278.81 751.564z" stroke="none" fill="#0070C0" fill-rule="evenodd" /><g clip-path="url(#16)"></g><g clip-path="url(#17)"></g></g><path transform="matrix(1 0 0 -1 0 841)" d="M351.55 726.46L499.41 726.46L499.41 726.46L499.41 751.564L499.41 751.564L351.55 751.564z" stroke="none" fill="#0070C0" fill-rule="evenodd" /><g clip-path="url(#18)"><path transform="matrix(1 0 0 -1 0 841)" d="M356.71 726.46L494.25 726.46L494.25 726.46L494.25 751.564L494.25 751.564L356.71 751.564z" stroke="none" fill="#0070C0" fill-rule="evenodd" /><g clip-path="url(#19)"></g><g clip-path="url(#20)"></g></g><path transform="matrix(1 0 0 -1 0 841)" d="M84.264 751.56L84.744 751.56L84.744 751.56L84.744 752.04L84.744 752.04L84.264 752.04z" stroke="none" fill="#000000" fill-rule="evenodd" /><path transform="matrix(1 0 0 -1 0 841)" d="M84.264 751.56L84.744 751.56L84.744 751.56L84.744 752.04L84.744 752.04L84.264 752.04z" stroke="none" fill="#000000" fill-rule="evenodd" /><path transform="matrix(1 0 0 -1 0 841)" d="M84.744 751.56L174.264 751.56L174.264 751.56L174.264 752.04L174.264 752.04L84.744 752.04z" stroke="none" fill="#000000" fill-rule="evenodd" /><path transform="matrix(1 0 0 -1 0 841)" d="M174.26 751.56L174.74 751.56L174.74 751.56L174.74 752.04L174.74 752.04L174.26 752.04z" stroke="none" fill="#000000" fill-rule="evenodd" /><path transform="matrix(1 0 0 -1 0 841)" d="M174.74 751.56L222.404 751.56L222.404 751.56L222.404 752.04L222.404 752.04L174.74 752.04z" stroke="none" fill="#000000" fill-rule="evenodd" /><path transform="matrix(1 0 0 -1 0 841)" d="M222.41 751.56L222.89 751.56L222.89 751.56L222.89 752.04L222.89 752.04L222.41 752.04z" stroke="none" fill="#000000" fill-rule="evenodd" /><path transform="matrix(1 0 0 -1 0 841)" d="M222.89 751.56L273.29 751.56L273.29 751.56L273.29 752.04L273.29 752.04L222.89 752.04z" stroke="none" fill="#000000" fill-rule="evenodd" /><path transform="matrix(1 0 0 -1 0 841)" d="M273.29 751.56L273.77 751.56L273.77 751.56L273.77 752.04L273.77 752.04L273.29 752.04z" stroke="none" fill="#000000" fill-rule="evenodd" /><path transform="matrix(1 0 0 -1 0 841)" d="M273.77 751.56L351.074 751.56L351.074 751.56L351.074 752.04L351.074 752.04L273.77 752.04z" stroke="none" fill="#000000" fill-rule="evenodd" /><path transform="matrix(1 0 0 -1 0 841)" d="M351.07 751.56L351.55 751.56L351.55 751.56L351.55 752.04L351.55 752.04L351.07 752.04z" stroke="none" fill="#000000" fill-rule="evenodd" /><path transform="matrix(1 0 0 -1 0 841)" d="M351.55 751.56L499.41 751.56L499.41 751.56L499.41 752.04L499.41 752.04L351.55 752.04z" stroke="none" fill="#000000" fill-rule="evenodd" /><path transform="matrix(1 0 0 -1 0 841)" d="M499.42 751.56L499.9 751.56L499.9 751.56L499.9 752.04L499.9 752.04L499.42 752.04z" stroke="none" fill="#000000" fill-rule="evenodd" /><path transform="matrix(1 0 0 -1 0 841)" d="M499.42 751.56L499.9 751.56L499.9 751.56L499.9 752.04L499.9 752.04L499.42 752.04z" stroke="none" fill="#000000" fill-rule="evenodd" /><path transform="matrix(1 0 0 -1 0 841)" d="M84.264 726.46L84.744 726.46L84.744 726.46L84.744 751.564L84.744 751.564L84.264 751.564z" stroke="none" fill="#000000" fill-rule="evenodd" /><path transform="matrix(1 0 0 -1 0 841)" d="M174.26 726.46L174.74 726.46L174.74 726.46L174.74 751.564L174.74 751.564L174.26 751.564z" stroke="none" fill="#000000" fill-rule="evenodd" /><path transform="matrix(1 0 0 -1 0 841)" d="M222.41 726.46L222.89 726.46L222.89 726.46L222.89 751.564L222.89 751.564L222.41 751.564z" stroke="none" fill="#000000" fill-rule="evenodd" /><path transform="matrix(1 0 0 -1 0 841)" d="M273.29 726.46L273.77 726.46L273.77 726.46L273.77 751.564L273.77 751.564L273.29 751.564z" stroke="none" fill="#000000" fill-rule="evenodd" /><path transform="matrix(1 0 0 -1 0 841)" d="M351.07 726.46L351.55 726.46L351.55 726.46L351.55 751.564L351.55 751.564L351.07 751.564z" stroke="none" fill="#000000" fill-rule="evenodd" /><path transform="matrix(1 0 0 -1 0 841)" d="M499.42 726.46L499.9 726.46L499.9 726.46L499.9 751.564L499.9 751.564L499.42 751.564z" stroke="none" fill="#000000" fill-rule="evenodd" /><path transform="matrix(1 0 0 -1 0 841)" d="M84.744 611.74L174.264 611.74L174.264 611.74L174.264 725.98L174.264 725.98L84.744 725.98z" stroke="none" fill="#DAEEF3" fill-rule="evenodd" /><path transform="matrix(1 0 0 -1 0 841)" d="M174.74 611.74L222.404 611.74L222.404 611.74L222.404 725.98L222.404 725.98L174.74 725.98z" stroke="none" fill="#DAEEF3" fill-rule="evenodd" /><path transform="matrix(1 0 0 -1 0 841)" d="M222.89 611.74L273.17 611.74L273.17 611.74L273.17 725.98L273.17 725.98L222.89 725.98z" stroke="none" fill="#DAEEF3" fill-rule="evenodd" /><path transform="matrix(1 0 0 -1 0 841)" d="M273.65 611.74L351.074 611.74L351.074 611.74L351.074 725.98L351.074 725.98L273.65 725.98z" stroke="none" fill="#DAEEF3" fill-rule="evenodd" /><path transform="matrix(1 0 0 -1 0 841)" d="M351.55 611.74L499.41 611.74L499.41 611.74L499.41 725.98L499.41 725.98L351.55 725.98z" stroke="none" fill="#DAEEF3" fill-rule="evenodd" /><g clip-path="url(#21)"><path transform="matrix(1 0 0 -1 0 841)" d="M356.71 706.9L494.25 706.9L494.25 706.9L494.25 725.98L494.25 725.98L356.71 725.98z" stroke="none" fill="#DAEEF3" fill-rule="evenodd" /><g clip-path="url(#22)"></g><g clip-path="url(#23)"></g><path transform="matrix(1 0 0 -1 0 841)" d="M356.71 687.94L494.25 687.94L494.25 687.94L494.25 706.9L494.25 706.9L356.71 706.9z" stroke="none" fill="#DAEEF3" fill-rule="evenodd" /><g clip-path="url(#24)"></g><g clip-path="url(#25)"></g><g clip-path="url(#26)"></g><g clip-path="url(#27)"></g><path transform="matrix(1 0 0 -1 0 841)" d="M356.71 668.86L494.25 668.86L494.25 668.86L494.25 687.94L494.25 687.94L356.71 687.94z" stroke="none" fill="#DAEEF3" fill-rule="evenodd" /><g clip-path="url(#28)"></g><g clip-path="url(#29)"></g><g clip-path="url(#30)"></g><g clip-path="url(#31)"></g><path transform="matrix(1 0 0 -1 0 841)" d="M356.71 649.78L494.25 649.78L494.25 649.78L494.25 668.86L494.25 668.86L356.71 668.86z" stroke="none" fill="#DAEEF3" fill-rule="evenodd" /><g clip-path="url(#32)"></g><g clip-path="url(#33)"></g><path transform="matrix(1 0 0 -1 0 841)" d="M356.71 630.7L494.25 630.7L494.25 630.7L494.25 649.78L494.25 649.78L356.71 649.78z" stroke="none" fill="#DAEEF3" fill-rule="evenodd" /><g clip-path="url(#34)"></g><g clip-path="url(#35)"></g><path transform="matrix(1 0 0 -1 0 841)" d="M356.71 611.74L494.25 611.74L494.25 611.74L494.25 630.7L494.25 630.7L356.71 630.7z" stroke="none" fill="#DAEEF3" fill-rule="evenodd" /><g clip-path="url(#36)"></g><g clip-path="url(#37)"></g><g clip-path="url(#38)"></g></g><path transform="matrix(1 0 0 -1 0 841)" d="M84.264 725.98L84.744 725.98L84.744 725.98L84.744 726.46L84.744 726.46L84.264 726.46z" stroke="none" fill="#000000" fill-rule="evenodd" /><path transform="matrix(1 0 0 -1 0 841)" d="M84.744 725.98L174.264 725.98L174.264 725.98L174.264 726.46L174.264 726.46L84.744 726.46z" stroke="none" fill="#000000" fill-rule="evenodd" /><path transform="matrix(1 0 0 -1 0 841)" d="M174.26 725.98L174.74 725.98L174.74 725.98L174.74 726.46L174.74 726.46L174.26 726.46z" stroke="none" fill="#000000" fill-rule="evenodd" /><path transform="matrix(1 0 0 -1 0 841)" d="M174.74 725.98L222.404 725.98L222.404 725.98L222.404 726.46L222.404 726.46L174.74 726.46z" stroke="none" fill="#000000" fill-rule="evenodd" /><path transform="matrix(1 0 0 -1 0 841)" d="M222.41 725.98L222.89 725.98L222.89 725.98L222.89 726.46L222.89 726.46L222.41 726.46z" stroke="none" fill="#000000" fill-rule="evenodd" /><path transform="matrix(1 0 0 -1 0 841)" d="M222.89 725.98L273.29 725.98L273.29 725.98L273.29 726.46L273.29 726.46L222.89 726.46z" stroke="none" fill="#000000" fill-rule="evenodd" /><path transform="matrix(1 0 0 -1 0 841)" d="M273.29 725.98L273.77 725.98L273.77 725.98L273.77 726.46L273.77 726.46L273.29 726.46z" stroke="none" fill="#000000" fill-rule="evenodd" /><path transform="matrix(1 0 0 -1 0 841)" d="M273.77 725.98L351.074 725.98L351.074 725.98L351.074 726.46L351.074 726.46L273.77 726.46z" stroke="none" fill="#000000" fill-rule="evenodd" /><path transform="matrix(1 0 0 -1 0 841)" d="M351.07 725.98L351.55 725.98L351.55 725.98L351.55 726.46L351.55 726.46L351.07 726.46z" stroke="none" fill="#000000" fill-rule="evenodd" /><path transform="matrix(1 0 0 -1 0 841)" d="M351.55 725.98L499.41 725.98L499.41 725.98L499.41 726.46L499.41 726.46L351.55 726.46z" stroke="none" fill="#000000" fill-rule="evenodd" /><path transform="matrix(1 0 0 -1 0 841)" d="M499.42 725.98L499.9 725.98L499.9 725.98L499.9 726.46L499.9 726.46L499.42 726.46z" stroke="none" fill="#000000" fill-rule="evenodd" /><path transform="matrix(1 0 0 -1 0 841)" d="M84.264 611.74L84.744 611.74L84.744 611.74L84.744 725.98L84.744 725.98L84.264 725.98z" stroke="none" fill="#000000" fill-rule="evenodd" /><path transform="matrix(1 0 0 -1 0 841)" d="M174.26 611.74L174.74 611.74L174.74 611.74L174.74 725.98L174.74 725.98L174.26 725.98z" stroke="none" fill="#000000" fill-rule="evenodd" /><path transform="matrix(1 0 0 -1 0 841)" d="M222.41 611.74L222.89 611.74L222.89 611.74L222.89 725.98L222.89 725.98L222.41 725.98z" stroke="none" fill="#000000" fill-rule="evenodd" /><path transform="matrix(1 0 0 -1 0 841)" d="M273.29 611.74L273.77 611.74L273.77 611.74L273.77 725.98L273.77 725.98L273.29 725.98z" stroke="none" fill="#000000" fill-rule="evenodd" /><path transform="matrix(1 0 0 -1 0 841)" d="M351.07 611.74L351.55 611.74L351.55 611.74L351.55 725.98L351.55 725.98L351.07 725.98z" stroke="none" fill="#000000" fill-rule="evenodd" /><path transform="matrix(1 0 0 -1 0 841)" d="M499.42 611.74L499.9 611.74L499.9 611.74L499.9 725.98L499.9 725.98L499.42 725.98z" stroke="none" fill="#000000" fill-rule="evenodd" /><g clip-path="url(#39)"><g clip-path="url(#40)"></g><g clip-path="url(#41)"></g></g><g clip-path="url(#42)"><g clip-path="url(#43)"></g><g clip-path="url(#44)"></g></g><g clip-path="url(#45)"><g clip-path="url(#46)"></g><g clip-path="url(#47)"></g></g><g clip-path="url(#48)"><g clip-path="url(#49)"></g><g clip-path="url(#50)"></g></g><g clip-path="url(#51)"><g clip-path="url(#52)"></g><g clip-path="url(#53)"></g><g clip-path="url(#54)"></g><g clip-path="url(#55)"></g><g clip-path="url(#56)"></g><g clip-path="url(#57)"></g><path transform="matrix(1 0 0 -1 0 841)" d="M362.71 566.5L410.71 566.5L410.71 566.5L410.71 567.1L410.71 567.1L362.71 567.1z" stroke="none" fill="#000000" fill-rule="evenodd" /></g><path transform="matrix(1 0 0 -1 0 841)" d="M84.264 611.26L84.744 611.26L84.744 611.26L84.744 611.74L84.744 611.74L84.264 611.74z" stroke="none" fill="#000000" fill-rule="evenodd" /><path transform="matrix(1 0 0 -1 0 841)" d="M84.744 611.26L174.264 611.26L174.264 611.26L174.264 611.74L174.264 611.74L84.744 611.74z" stroke="none" fill="#000000" fill-rule="evenodd" /><path transform="matrix(1 0 0 -1 0 841)" d="M174.26 611.26L174.74 611.26L174.74 611.26L174.74 611.74L174.74 611.74L174.26 611.74z" stroke="none" fill="#000000" fill-rule="evenodd" /><path transform="matrix(1 0 0 -1 0 841)" d="M174.74 611.26L222.404 611.26L222.404 611.26L222.404 611.74L222.404 611.74L174.74 611.74z" stroke="none" fill="#000000" fill-rule="evenodd" /><path transform="matrix(1 0 0 -1 0 841)" d="M222.41 611.26L222.89 611.26L222.89 611.26L222.89 611.74L222.89 611.74L222.41 611.74z" stroke="none" fill="#000000" fill-rule="evenodd" /><path transform="matrix(1 0 0 -1 0 841)" d="M222.89 611.26L273.29 611.26L273.29 611.26L273.29 611.74L273.29 611.74L222.89 611.74z" stroke="none" fill="#000000" fill-rule="evenodd" /><path transform="matrix(1 0 0 -1 0 841)" d="M273.29 611.26L273.77 611.26L273.77 611.26L273.77 611.74L273.77 611.74L273.29 611.74z" stroke="none" fill="#000000" fill-rule="evenodd" /><path transform="matrix(1 0 0 -1 0 841)" d="M273.77 611.26L351.074 611.26L351.074 611.26L351.074 611.74L351.074 611.74L273.77 611.74z" stroke="none" fill="#000000" fill-rule="evenodd" /><path transform="matrix(1 0 0 -1 0 841)" d="M351.07 611.26L351.55 611.26L351.55 611.26L351.55 611.74L351.55 611.74L351.07 611.74z" stroke="none" fill="#000000" fill-rule="evenodd" /><path transform="matrix(1 0 0 -1 0 841)" d="M351.55 611.26L499.41 611.26L499.41 611.26L499.41 611.74L499.41 611.74L351.55 611.74z" stroke="none" fill="#000000" fill-rule="evenodd" /><path transform="matrix(1 0 0 -1 0 841)" d="M499.42 611.26L499.9 611.26L499.9 611.26L499.9 611.74L499.9 611.74L499.42 611.74z" stroke="none" fill="#000000" fill-rule="evenodd" /><path transform="matrix(1 0 0 -1 0 841)" d="M84.264 560.5L84.744 560.5L84.744 560.5L84.744 611.26L84.744 611.26L84.264 611.26z" stroke="none" fill="#000000" fill-rule="evenodd" /><path transform="matrix(1 0 0 -1 0 841)" d="M84.264 560.02L84.744 560.02L84.744 560.02L84.744 560.5L84.744 560.5L84.264 560.5z" stroke="none" fill="#000000" fill-rule="evenodd" /><path transform="matrix(1 0 0 -1 0 841)" d="M84.264 560.02L84.744 560.02L84.744 560.02L84.744 560.5L84.744 560.5L84.264 560.5z" stroke="none" fill="#000000" fill-rule="evenodd" /><path transform="matrix(1 0 0 -1 0 841)" d="M84.744 560.02L174.264 560.02L174.264 560.02L174.264 560.5L174.264 560.5L84.744 560.5z" stroke="none" fill="#000000" fill-rule="evenodd" /><path transform="matrix(1 0 0 -1 0 841)" d="M174.26 560.5L174.74 560.5L174.74 560.5L174.74 611.26L174.74 611.26L174.26 611.26z" stroke="none" fill="#000000" fill-rule="evenodd" /><path transform="matrix(1 0 0 -1 0 841)" d="M174.26 560.02L174.74 560.02L174.74 560.02L174.74 560.5L174.74 560.5L174.26 560.5z" stroke="none" fill="#000000" fill-rule="evenodd" /><path transform="matrix(1 0 0 -1 0 841)" d="M174.74 560.02L222.404 560.02L222.404 560.02L222.404 560.5L222.404 560.5L174.74 560.5z" stroke="none" fill="#000000" fill-rule="evenodd" /><path transform="matrix(1 0 0 -1 0 841)" d="M222.41 560.5L222.89 560.5L222.89 560.5L222.89 611.26L222.89 611.26L222.41 611.26z" stroke="none" fill="#000000" fill-rule="evenodd" /><path transform="matrix(1 0 0 -1 0 841)" d="M222.41 560.02L222.89 560.02L222.89 560.02L222.89 560.5L222.89 560.5L222.41 560.5z" stroke="none" fill="#000000" fill-rule="evenodd" /><path transform="matrix(1 0 0 -1 0 841)" d="M222.89 560.02L273.29 560.02L273.29 560.02L273.29 560.5L273.29 560.5L222.89 560.5z" stroke="none" fill="#000000" fill-rule="evenodd" /><path transform="matrix(1 0 0 -1 0 841)" d="M273.29 560.5L273.77 560.5L273.77 560.5L273.77 611.26L273.77 611.26L273.29 611.26z" stroke="none" fill="#000000" fill-rule="evenodd" /><path transform="matrix(1 0 0 -1 0 841)" d="M273.29 560.02L273.77 560.02L273.77 560.02L273.77 560.5L273.77 560.5L273.29 560.5z" stroke="none" fill="#000000" fill-rule="evenodd" /><path transform="matrix(1 0 0 -1 0 841)" d="M273.77 560.02L351.074 560.02L351.074 560.02L351.074 560.5L351.074 560.5L273.77 560.5z" stroke="none" fill="#000000" fill-rule="evenodd" /><path transform="matrix(1 0 0 -1 0 841)" d="M351.07 560.5L351.55 560.5L351.55 560.5L351.55 611.26L351.55 611.26L351.07 611.26z" stroke="none" fill="#000000" fill-rule="evenodd" /><path transform="matrix(1 0 0 -1 0 841)" d="M351.07 560.02L351.55 560.02L351.55 560.02L351.55 560.5L351.55 560.5L351.07 560.5z" stroke="none" fill="#000000" fill-rule="evenodd" /><path transform="matrix(1 0 0 -1 0 841)" d="M351.55 560.02L499.41 560.02L499.41 560.02L499.41 560.5L499.41 560.5L351.55 560.5z" stroke="none" fill="#000000" fill-rule="evenodd" /><path transform="matrix(1 0 0 -1 0 841)" d="M499.42 560.5L499.9 560.5L499.9 560.5L499.9 611.26L499.9 611.26L499.42 611.26z" stroke="none" fill="#000000" fill-rule="evenodd" /><path transform="matrix(1 0 0 -1 0 841)" d="M499.42 560.02L499.9 560.02L499.9 560.02L499.9 560.5L499.9 560.5L499.42 560.5z" stroke="none" fill="#000000" fill-rule="evenodd" /><path transform="matrix(1 0 0 -1 0 841)" d="M499.42 560.02L499.9 560.02L499.9 560.02L499.9 560.5L499.9 560.5L499.42 560.5z" stroke="none" fill="#000000" fill-rule="evenodd" /><path transform="matrix(1 0 0 -1 0 841)" d="M84.744 406.99L510.694 406.99L510.694 406.99L510.694 426.07L510.694 426.07L84.744 426.07z" stroke="none" fill="#0070C0" fill-rule="evenodd" /><g clip-path="url(#58)"><path transform="matrix(1 0 0 -1 0 841)" d="M89.904 406.99L505.534 406.99L505.534 406.99L505.534 426.07L505.534 426.07L89.904 426.07z" stroke="none" fill="#0070C0" fill-rule="evenodd" /><g clip-path="url(#59)"></g><g clip-path="url(#60)"></g></g><path transform="matrix(1 0 0 -1 0 841)" d="M84.264 426.07L84.744 426.07L84.744 426.07L84.744 426.55L84.744 426.55L84.264 426.55z" stroke="none" fill="#000000" fill-rule="evenodd" /><path transform="matrix(1 0 0 -1 0 841)" d="M84.264 426.07L84.744 426.07L84.744 426.07L84.744 426.55L84.744 426.55L84.264 426.55z" stroke="none" fill="#000000" fill-rule="evenodd" /><path transform="matrix(1 0 0 -1 0 841)" d="M84.744 426.07L510.694 426.07L510.694 426.07L510.694 426.55L510.694 426.55L84.744 426.55z" stroke="none" fill="#000000" fill-rule="evenodd" /><path transform="matrix(1 0 0 -1 0 841)" d="M510.7 426.07L511.18 426.07L511.18 426.07L511.18 426.55L511.18 426.55L510.7 426.55z" stroke="none" fill="#000000" fill-rule="evenodd" /><path transform="matrix(1 0 0 -1 0 841)" d="M510.7 426.07L511.18 426.07L511.18 426.07L511.18 426.55L511.18 426.55L510.7 426.55z" stroke="none" fill="#000000" fill-rule="evenodd" /><path transform="matrix(1 0 0 -1 0 841)" d="M84.264 406.99L84.744 406.99L84.744 406.99L84.744 426.07L84.744 426.07L84.264 426.07z" stroke="none" fill="#000000" fill-rule="evenodd" /><path transform="matrix(1 0 0 -1 0 841)" d="M510.7 406.99L511.18 406.99L511.18 406.99L511.18 426.07L511.18 426.07L510.7 426.07z" stroke="none" fill="#000000" fill-rule="evenodd" /><path transform="matrix(1 0 0 -1 0 841)" d="M84.744 235.13L510.694 235.13L510.694 235.13L510.694 406.51L510.694 406.51L84.744 406.51z" stroke="none" fill="#DAEEF3" fill-rule="evenodd" /><g clip-path="url(#61)"><path transform="matrix(1 0 0 -1 0 841)" d="M89.904 387.55L505.534 387.55L505.534 387.55L505.534 406.51L505.534 406.51L89.904 406.51z" stroke="none" fill="#DAEEF3" fill-rule="evenodd" /><g clip-path="url(#62)"></g><g clip-path="url(#63)"></g><path transform="matrix(1 0 0 -1 0 841)" d="M89.904 368.45L505.534 368.45L505.534 368.45L505.534 387.554L505.534 387.554L89.904 387.554z" stroke="none" fill="#DAEEF3" fill-rule="evenodd" /><g clip-path="url(#64)"></g><g clip-path="url(#65)"></g><path transform="matrix(1 0 0 -1 0 841)" d="M89.904 349.37L505.534 349.37L505.534 349.37L505.534 368.45L505.534 368.45L89.904 368.45z" stroke="none" fill="#DAEEF3" fill-rule="evenodd" /><g clip-path="url(#66)"></g><g clip-path="url(#67)"></g><g clip-path="url(#68)"></g><g clip-path="url(#69)"></g><path transform="matrix(1 0 0 -1 0 841)" d="M89.904 330.29L505.534 330.29L505.534 330.29L505.534 349.37L505.534 349.37L89.904 349.37z" stroke="none" fill="#DAEEF3" fill-rule="evenodd" /><g clip-path="url(#70)"></g><g clip-path="url(#71)"></g><g clip-path="url(#72)"></g><g clip-path="url(#73)"></g><g clip-path="url(#74)"></g><g clip-path="url(#75)"></g><path transform="matrix(1 0 0 -1 0 841)" d="M89.904 311.33L505.534 311.33L505.534 311.33L505.534 330.29L505.534 330.29L89.904 330.29z" stroke="none" fill="#DAEEF3" fill-rule="evenodd" /><g clip-path="url(#76)"></g><g clip-path="url(#77)"></g><g clip-path="url(#78)"></g><g clip-path="url(#79)"></g><g clip-path="url(#80)"></g><g clip-path="url(#81)"></g><path transform="matrix(1 0 0 -1 0 841)" d="M89.904 292.25L505.534 292.25L505.534 292.25L505.534 311.33L505.534 311.33L89.904 311.33z" stroke="none" fill="#DAEEF3" fill-rule="evenodd" /><g clip-path="url(#82)"></g><g clip-path="url(#83)"></g><path transform="matrix(1 0 0 -1 0 841)" d="M89.904 273.17L505.534 273.17L505.534 273.17L505.534 292.25L505.534 292.25L89.904 292.25z" stroke="none" fill="#DAEEF3" fill-rule="evenodd" /><g clip-path="url(#84)"></g><g clip-path="url(#85)"></g><path transform="matrix(1 0 0 -1 0 841)" d="M89.904 254.09L505.534 254.09L505.534 254.09L505.534 273.17L505.534 273.17L89.904 273.17z" stroke="none" fill="#DAEEF3" fill-rule="evenodd" /><g clip-path="url(#86)"></g><g clip-path="url(#87)"></g><path transform="matrix(1 0 0 -1 0 841)" d="M89.904 235.13L505.534 235.13L505.534 235.13L505.534 254.09L505.534 254.09L89.904 254.09z" stroke="none" fill="#DAEEF3" fill-rule="evenodd" /><g clip-path="url(#88)"></g><g clip-path="url(#89)"></g></g><path transform="matrix(1 0 0 -1 0 841)" d="M84.264 406.51L84.744 406.51L84.744 406.51L84.744 406.99L84.744 406.99L84.264 406.99z" stroke="none" fill="#000000" fill-rule="evenodd" /><path transform="matrix(1 0 0 -1 0 841)" d="M84.744 406.51L510.694 406.51L510.694 406.51L510.694 406.99L510.694 406.99L84.744 406.99z" stroke="none" fill="#000000" fill-rule="evenodd" /><path transform="matrix(1 0 0 -1 0 841)" d="M510.7 406.51L511.18 406.51L511.18 406.51L511.18 406.99L511.18 406.99L510.7 406.99z" stroke="none" fill="#000000" fill-rule="evenodd" /><path transform="matrix(1 0 0 -1 0 841)" d="M84.264 235.01L84.744 235.01L84.744 235.01L84.744 406.51L84.744 406.51L84.264 406.51z" stroke="none" fill="#000000" fill-rule="evenodd" /><path transform="matrix(1 0 0 -1 0 841)" d="M84.264 234.53L84.744 234.53L84.744 234.53L84.744 235.01L84.744 235.01L84.264 235.01z" stroke="none" fill="#000000" fill-rule="evenodd" /><path transform="matrix(1 0 0 -1 0 841)" d="M84.264 234.53L84.744 234.53L84.744 234.53L84.744 235.01L84.744 235.01L84.264 235.01z" stroke="none" fill="#000000" fill-rule="evenodd" /><path transform="matrix(1 0 0 -1 0 841)" d="M84.744 234.53L510.694 234.53L510.694 234.53L510.694 235.01L510.694 235.01L84.744 235.01z" stroke="none" fill="#000000" fill-rule="evenodd" /><path transform="matrix(1 0 0 -1 0 841)" d="M510.7 235.01L511.18 235.01L511.18 235.01L511.18 406.51L511.18 406.51L510.7 406.51z" stroke="none" fill="#000000" fill-rule="evenodd" /><path transform="matrix(1 0 0 -1 0 841)" d="M510.7 234.53L511.18 234.53L511.18 234.53L511.18 235.01L511.18 235.01L510.7 235.01z" stroke="none" fill="#000000" fill-rule="evenodd" /><path transform="matrix(1 0 0 -1 0 841)" d="M510.7 234.53L511.18 234.53L511.18 234.53L511.18 235.01L511.18 235.01L510.7 235.01z" stroke="none" fill="#000000" fill-rule="evenodd" /><path transform="matrix(1 0 0 -1 0 841)" d="M84.744 97.944L186.264 97.944L186.264 97.944L186.264 123.024L186.264 123.024L84.744 123.024z" stroke="none" fill="#0070C0" fill-rule="evenodd" /><g clip-path="url(#90)"><path transform="matrix(1 0 0 -1 0 841)" d="M89.904 97.944L181.104 97.944L181.104 97.944L181.104 123.024L181.104 123.024L89.904 123.024z" stroke="none" fill="#0070C0" fill-rule="evenodd" /><g clip-path="url(#91)"></g><g clip-path="url(#92)"></g></g><path transform="matrix(1 0 0 -1 0 841)" d="M186.74 97.944L250.004 97.944L250.004 97.944L250.004 123.024L250.004 123.024L186.74 123.024z" stroke="none" fill="#0070C0" fill-rule="evenodd" /><g clip-path="url(#93)"><path transform="matrix(1 0 0 -1 0 841)" d="M191.9 97.944L244.844 97.944L244.844 97.944L244.844 123.024L244.844 123.024L191.9 123.024z" stroke="none" fill="#0070C0" fill-rule="evenodd" /><g clip-path="url(#94)"></g><g clip-path="url(#95)"></g></g><path transform="matrix(1 0 0 -1 0 841)" d="M250.49 97.944L345.914 97.944L345.914 97.944L345.914 123.024L345.914 123.024L250.49 123.024z" stroke="none" fill="#0070C0" fill-rule="evenodd" /><g clip-path="url(#96)"><path transform="matrix(1 0 0 -1 0 841)" d="M255.65 97.944L340.754 97.944L340.754 97.944L340.754 123.024L340.754 123.024L255.65 123.024z" stroke="none" fill="#0070C0" fill-rule="evenodd" /><g clip-path="url(#97)"></g><g clip-path="url(#98)"></g></g><path transform="matrix(1 0 0 -1 0 841)" d="M346.39 97.944L502.53 97.944L502.53 97.944L502.53 123.024L502.53 123.024L346.39 123.024z" stroke="none" fill="#0070C0" fill-rule="evenodd" /><g clip-path="url(#99)"><path transform="matrix(1 0 0 -1 0 841)" d="M351.55 97.944L497.37 97.944L497.37 97.944L497.37 123.024L497.37 123.024L351.55 123.024z" stroke="none" fill="#0070C0" fill-rule="evenodd" /><g clip-path="url(#100)"></g><g clip-path="url(#101)"></g></g><path transform="matrix(1 0 0 -1 0 841)" d="M84.264 123.02L84.744 123.02L84.744 123.02L84.744 123.5L84.744 123.5L84.264 123.5z" stroke="none" fill="#000000" fill-rule="evenodd" /><path transform="matrix(1 0 0 -1 0 841)" d="M84.264 123.02L84.744 123.02L84.744 123.02L84.744 123.5L84.744 123.5L84.264 123.5z" stroke="none" fill="#000000" fill-rule="evenodd" /><path transform="matrix(1 0 0 -1 0 841)" d="M84.744 123.02L186.264 123.02L186.264 123.02L186.264 123.5L186.264 123.5L84.744 123.5z" stroke="none" fill="#000000" fill-rule="evenodd" /><path transform="matrix(1 0 0 -1 0 841)" d="M186.26 123.02L186.74 123.02L186.74 123.02L186.74 123.5L186.74 123.5L186.26 123.5z" stroke="none" fill="#000000" fill-rule="evenodd" /><path transform="matrix(1 0 0 -1 0 841)" d="M186.74 123.02L250.004 123.02L250.004 123.02L250.004 123.5L250.004 123.5L186.74 123.5z" stroke="none" fill="#000000" fill-rule="evenodd" /><path transform="matrix(1 0 0 -1 0 841)" d="M250.01 123.02L250.49 123.02L250.49 123.02L250.49 123.5L250.49 123.5L250.01 123.5z" stroke="none" fill="#000000" fill-rule="evenodd" /><path transform="matrix(1 0 0 -1 0 841)" d="M250.49 123.02L345.914 123.02L345.914 123.02L345.914 123.5L345.914 123.5L250.49 123.5z" stroke="none" fill="#000000" fill-rule="evenodd" /><path transform="matrix(1 0 0 -1 0 841)" d="M345.91 123.02L346.39 123.02L346.39 123.02L346.39 123.5L346.39 123.5L345.91 123.5z" stroke="none" fill="#000000" fill-rule="evenodd" /><path transform="matrix(1 0 0 -1 0 841)" d="M346.39 123.02L502.53 123.02L502.53 123.02L502.53 123.5L502.53 123.5L346.39 123.5z" stroke="none" fill="#000000" fill-rule="evenodd" /><path transform="matrix(1 0 0 -1 0 841)" d="M502.54 123.02L503.02 123.02L503.02 123.02L503.02 123.5L503.02 123.5L502.54 123.5z" stroke="none" fill="#000000" fill-rule="evenodd" /><path transform="matrix(1 0 0 -1 0 841)" d="M502.54 123.02L503.02 123.02L503.02 123.02L503.02 123.5L503.02 123.5L502.54 123.5z" stroke="none" fill="#000000" fill-rule="evenodd" /><path transform="matrix(1 0 0 -1 0 841)" d="M84.264 97.944L84.744 97.944L84.744 97.944L84.744 123.024L84.744 123.024L84.264 123.024z" stroke="none" fill="#000000" fill-rule="evenodd" /><path transform="matrix(1 0 0 -1 0 841)" d="M84.264 97.464L84.744 97.464L84.744 97.464L84.744 97.94398L84.744 97.94398L84.264 97.94398z" stroke="none" fill="#000000" fill-rule="evenodd" /><path transform="matrix(1 0 0 -1 0 841)" d="M84.264 97.464L84.744 97.464L84.744 97.464L84.744 97.94398L84.744 97.94398L84.264 97.94398z" stroke="none" fill="#000000" fill-rule="evenodd" /><path transform="matrix(1 0 0 -1 0 841)" d="M84.744 97.464L186.264 97.464L186.264 97.464L186.264 97.94398L186.264 97.94398L84.744 97.94398z" stroke="none" fill="#000000" fill-rule="evenodd" /><path transform="matrix(1 0 0 -1 0 841)" d="M186.26 97.944L186.74 97.944L186.74 97.944L186.74 123.024L186.74 123.024L186.26 123.024z" stroke="none" fill="#000000" fill-rule="evenodd" /><path transform="matrix(1 0 0 -1 0 841)" d="M186.26 97.464L186.74 97.464L186.74 97.464L186.74 97.94398L186.74 97.94398L186.26 97.94398z" stroke="none" fill="#000000" fill-rule="evenodd" /><path transform="matrix(1 0 0 -1 0 841)" d="M186.74 97.464L250.004 97.464L250.004 97.464L250.004 97.94398L250.004 97.94398L186.74 97.94398z" stroke="none" fill="#000000" fill-rule="evenodd" /><path transform="matrix(1 0 0 -1 0 841)" d="M250.01 97.944L250.49 97.944L250.49 97.944L250.49 123.024L250.49 123.024L250.01 123.024z" stroke="none" fill="#000000" fill-rule="evenodd" /><path transform="matrix(1 0 0 -1 0 841)" d="M250.01 97.464L250.49 97.464L250.49 97.464L250.49 97.94398L250.49 97.94398L250.01 97.94398z" stroke="none" fill="#000000" fill-rule="evenodd" /><path transform="matrix(1 0 0 -1 0 841)" d="M250.49 97.464L345.914 97.464L345.914 97.464L345.914 97.94398L345.914 97.94398L250.49 97.94398z" stroke="none" fill="#000000" fill-rule="evenodd" /><path transform="matrix(1 0 0 -1 0 841)" d="M345.91 97.944L346.39 97.944L346.39 97.944L346.39 123.024L346.39 123.024L345.91 123.024z" stroke="none" fill="#000000" fill-rule="evenodd" /><path transform="matrix(1 0 0 -1 0 841)" d="M345.91 97.464L346.39 97.464L346.39 97.464L346.39 97.94398L346.39 97.94398L345.91 97.94398z" stroke="none" fill="#000000" fill-rule="evenodd" /><path transform="matrix(1 0 0 -1 0 841)" d="M346.39 97.464L502.53 97.464L502.53 97.464L502.53 97.94398L502.53 97.94398L346.39 97.94398z" stroke="none" fill="#000000" fill-rule="evenodd" /><path transform="matrix(1 0 0 -1 0 841)" d="M502.54 97.944L503.02 97.944L503.02 97.944L503.02 123.024L503.02 123.024L502.54 123.024z" stroke="none" fill="#000000" fill-rule="evenodd" /><path transform="matrix(1 0 0 -1 0 841)" d="M502.54 97.464L503.02 97.464L503.02 97.464L503.02 97.94398L503.02 97.94398L502.54 97.94398z" stroke="none" fill="#000000" fill-rule="evenodd" /><path transform="matrix(1 0 0 -1 0 841)" d="M502.54 97.464L503.02 97.464L503.02 97.464L503.02 97.94398L503.02 97.94398L502.54 97.94398z" stroke="none" fill="#000000" fill-rule="evenodd" /></g></g></g></svg>