<svg xmlns="http://www.w3.org/2000/svg" xmlns:xlink="http://www.w3.org/1999/xlink" id="body_77" preserveAspectRatio="xMinYMin meet" viewBox="0 0 793 1121"><defs><clipPath id="1"><path d="M0 841L0 -0.9199829L0 -0.9199829L595.32 -0.9199829L595.32 -0.9199829L595.32 841L595.32 841L0 841z" /></clipPath><clipPath id="2"><path d="M0.00125 841.0914L595.4112 841.0914L595.4112 841.0914L595.4112 -0.9186401L595.4112 -0.9186401L0.00125 -0.9186401z" /></clipPath><clipPath id="3"><path d="M288.05 779.771L316.01 779.771L316.01 779.771L316.01 760.691L316.01 760.691L288.05 760.691z" /></clipPath><clipPath id="4"><path d="M288.05 779.776L316.01 779.776L316.01 779.776L316.01 760.696L316.01 760.696L288.05 760.696z" /></clipPath><clipPath id="5"><path d="M288.05 779.776L316.01 779.776L316.01 779.776L316.01 760.696L316.01 760.696L288.05 760.696z" /></clipPath><clipPath id="6"><path d="M84.751 591.36L178.711 591.36L178.711 591.36L178.711 572.28L178.711 572.28L84.751 572.28z" /></clipPath><clipPath id="7"><path d="M84.744 591.35L178.704 591.35L178.704 591.35L178.704 572.27L178.704 572.27L84.744 572.27z" /></clipPath><clipPath id="8"><path d="M84.744 591.35L178.704 591.35L178.704 591.35L178.704 572.27L178.704 572.27L84.744 572.27z" /></clipPath><clipPath id="9"><path d="M179.19 591.36L236.925 591.36L236.925 591.36L236.925 572.28L236.925 572.28L179.19 572.28z" /></clipPath><clipPath id="10"><path d="M179.18 591.35L236.924 591.35L236.924 591.35L236.924 572.27L236.924 572.27L179.18 572.27z" /></clipPath><clipPath id="11"><path d="M179.18 591.35L236.924 591.35L236.924 591.35L236.924 572.27L236.924 572.27L179.18 572.27z" /></clipPath><clipPath id="12"><path d="M237.41 591.36L280.61 591.36L280.61 591.36L280.61 572.28L280.61 572.28L237.41 572.28z" /></clipPath><clipPath id="13"><path d="M237.41 591.35L280.61 591.35L280.61 591.35L280.61 572.27L280.61 572.27L237.41 572.27z" /></clipPath><clipPath id="14"><path d="M237.41 591.35L280.61 591.35L280.61 591.35L280.61 572.27L280.61 572.27L237.41 572.27z" /></clipPath><clipPath id="15"><path d="M281.21 591.36L401.96 591.36L401.96 591.36L401.96 572.28L401.96 572.28L281.21 572.28z" /></clipPath><clipPath id="16"><path d="M281.21 591.35L401.95 591.35L401.95 591.35L401.95 572.27L401.95 572.27L281.21 572.27z" /></clipPath><clipPath id="17"><path d="M281.21 591.35L401.95 591.35L401.95 591.35L401.95 572.27L401.95 572.27L281.21 572.27z" /></clipPath><clipPath id="18"><path d="M402.44 591.36L510.7 591.36L510.7 591.36L510.7 572.28L510.7 572.28L402.44 572.28z" /></clipPath><clipPath id="19"><path d="M402.43 591.35L510.69 591.35L510.69 591.35L510.69 572.27L510.69 572.27L402.43 572.27z" /></clipPath><clipPath id="20"><path d="M402.43 591.35L510.69 591.35L510.69 591.35L510.69 572.27L510.69 572.27L402.43 572.27z" /></clipPath><clipPath id="21"><path d="M84.751 629.88L178.711 629.88L178.711 629.88L178.711 591.84L178.711 591.84L84.751 591.84z" /></clipPath><clipPath id="22"><path d="M84.744 629.87L178.704 629.87L178.704 629.87L178.704 591.83L178.704 591.83L84.744 591.83z" /></clipPath><clipPath id="23"><path d="M84.744 629.87L178.704 629.87L178.704 629.87L178.704 591.83L178.704 591.83L84.744 591.83z" /></clipPath><clipPath id="24"><path d="M179.19 629.88L236.925 629.88L236.925 629.88L236.925 591.84L236.925 591.84L179.19 591.84z" /></clipPath><clipPath id="25"><path d="M179.18 629.87L236.924 629.87L236.924 629.87L236.924 591.83L236.924 591.83L179.18 591.83z" /></clipPath><clipPath id="26"><path d="M179.18 629.87L236.924 629.87L236.924 629.87L236.924 591.83L236.924 591.83L179.18 591.83z" /></clipPath><clipPath id="27"><path d="M237.41 629.88L280.61 629.88L280.61 629.88L280.61 591.84L280.61 591.84L237.41 591.84z" /></clipPath><clipPath id="28"><path d="M237.41 629.87L280.61 629.87L280.61 629.87L280.61 591.83L280.61 591.83L237.41 591.83z" /></clipPath><clipPath id="29"><path d="M237.41 629.87L280.61 629.87L280.61 629.87L280.61 591.83L280.61 591.83L237.41 591.83z" /></clipPath><clipPath id="30"><path d="M281.21 629.88L401.96 629.88L401.96 629.88L401.96 591.84L401.96 591.84L281.21 591.84z" /></clipPath><clipPath id="31"><path d="M281.21 629.87L401.95 629.87L401.95 629.87L401.95 591.83L401.95 591.83L281.21 591.83z" /></clipPath><clipPath id="32"><path d="M281.21 629.87L401.95 629.87L401.95 629.87L401.95 591.83L401.95 591.83L281.21 591.83z" /></clipPath><clipPath id="33"><path d="M281.21 629.87L401.95 629.87L401.95 629.87L401.95 591.83L401.95 591.83L281.21 591.83z" /></clipPath><clipPath id="34"><path d="M402.44 629.88L510.7 629.88L510.7 629.88L510.7 591.84L510.7 591.84L402.44 591.84z" /></clipPath><clipPath id="35"><path d="M402.43 629.87L510.69 629.87L510.69 629.87L510.69 591.83L510.69 591.83L402.43 591.83z" /></clipPath><clipPath id="36"><path d="M402.43 629.87L510.69 629.87L510.69 629.87L510.69 591.83L510.69 591.83L402.43 591.83z" /></clipPath><clipPath id="37"><path d="M84.751 668.53L178.711 668.53L178.711 668.53L178.711 630.475L178.711 630.475L84.751 630.475z" /></clipPath><clipPath id="38"><path d="M84.744 668.54L178.704 668.54L178.704 668.54L178.704 630.476L178.704 630.476L84.744 630.476z" /></clipPath><clipPath id="39"><path d="M84.744 668.54L178.704 668.54L178.704 668.54L178.704 630.476L178.704 630.476L84.744 630.476z" /></clipPath><clipPath id="40"><path d="M179.19 668.53L236.925 668.53L236.925 668.53L236.925 630.475L236.925 630.475L179.19 630.475z" /></clipPath><clipPath id="41"><path d="M179.18 668.54L236.924 668.54L236.924 668.54L236.924 630.476L236.924 630.476L179.18 630.476z" /></clipPath><clipPath id="42"><path d="M179.18 668.54L236.924 668.54L236.924 668.54L236.924 630.476L236.924 630.476L179.18 630.476z" /></clipPath><clipPath id="43"><path d="M237.41 668.53L280.61 668.53L280.61 668.53L280.61 630.475L280.61 630.475L237.41 630.475z" /></clipPath><clipPath id="44"><path d="M237.41 668.54L280.61 668.54L280.61 668.54L280.61 630.476L280.61 630.476L237.41 630.476z" /></clipPath><clipPath id="45"><path d="M237.41 668.54L280.61 668.54L280.61 668.54L280.61 630.476L280.61 630.476L237.41 630.476z" /></clipPath><clipPath id="46"><path d="M281.21 668.53L401.96 668.53L401.96 668.53L401.96 630.475L401.96 630.475L281.21 630.475z" /></clipPath><clipPath id="47"><path d="M281.21 668.54L401.95 668.54L401.95 668.54L401.95 630.476L401.95 630.476L281.21 630.476z" /></clipPath><clipPath id="48"><path d="M281.21 668.54L401.95 668.54L401.95 668.54L401.95 630.476L401.95 630.476L281.21 630.476z" /></clipPath><clipPath id="49"><path d="M281.21 668.54L401.95 668.54L401.95 668.54L401.95 630.476L401.95 630.476L281.21 630.476z" /></clipPath><clipPath id="50"><path d="M402.44 668.53L510.7 668.53L510.7 668.53L510.7 630.475L510.7 630.475L402.44 630.475z" /></clipPath><clipPath id="51"><path d="M402.43 668.54L510.69 668.54L510.69 668.54L510.69 630.476L510.69 630.476L402.43 630.476z" /></clipPath><clipPath id="52"><path d="M402.43 668.54L510.69 668.54L510.69 668.54L510.69 630.476L510.69 630.476L402.43 630.476z" /></clipPath><clipPath id="53"><path d="M84.751 688.09L178.711 688.09L178.711 688.09L178.711 669.01L178.711 669.01L84.751 669.01z" /></clipPath><clipPath id="54"><path d="M84.744 688.1L178.704 688.1L178.704 688.1L178.704 669.02L178.704 669.02L84.744 669.02z" /></clipPath><clipPath id="55"><path d="M84.744 688.1L178.704 688.1L178.704 688.1L178.704 669.02L178.704 669.02L84.744 669.02z" /></clipPath><clipPath id="56"><path d="M179.19 688.09L236.925 688.09L236.925 688.09L236.925 669.01L236.925 669.01L179.19 669.01z" /></clipPath><clipPath id="57"><path d="M179.18 688.1L236.924 688.1L236.924 688.1L236.924 669.02L236.924 669.02L179.18 669.02z" /></clipPath><clipPath id="58"><path d="M179.18 688.1L236.924 688.1L236.924 688.1L236.924 669.02L236.924 669.02L179.18 669.02z" /></clipPath><clipPath id="59"><path d="M237.41 688.09L280.61 688.09L280.61 688.09L280.61 669.01L280.61 669.01L237.41 669.01z" /></clipPath><clipPath id="60"><path d="M237.41 688.1L280.61 688.1L280.61 688.1L280.61 669.02L280.61 669.02L237.41 669.02z" /></clipPath><clipPath id="61"><path d="M237.41 688.1L280.61 688.1L280.61 688.1L280.61 669.02L280.61 669.02L237.41 669.02z" /></clipPath><clipPath id="62"><path d="M281.21 688.09L401.96 688.09L401.96 688.09L401.96 669.01L401.96 669.01L281.21 669.01z" /></clipPath><clipPath id="63"><path d="M281.21 688.1L401.95 688.1L401.95 688.1L401.95 669.02L401.95 669.02L281.21 669.02z" /></clipPath><clipPath id="64"><path d="M281.21 688.1L401.95 688.1L401.95 688.1L401.95 669.02L401.95 669.02L281.21 669.02z" /></clipPath><clipPath id="65"><path d="M402.44 688.09L510.7 688.09L510.7 688.09L510.7 669.01L510.7 669.01L402.44 669.01z" /></clipPath><clipPath id="66"><path d="M402.43 688.1L510.69 688.1L510.69 688.1L510.69 669.02L510.69 669.02L402.43 669.02z" /></clipPath><clipPath id="67"><path d="M402.43 688.1L510.69 688.1L510.69 688.1L510.69 669.02L510.69 669.02L402.43 669.02z" /></clipPath><clipPath id="68"><path d="M84.751 709.45L178.711 709.45L178.711 709.45L178.711 688.57L178.711 688.57L84.751 688.57z" /></clipPath><clipPath id="69"><path d="M84.744 709.46L178.704 709.46L178.704 709.46L178.704 688.58L178.704 688.58L84.744 688.58z" /></clipPath><clipPath id="70"><path d="M84.744 709.46L178.704 709.46L178.704 709.46L178.704 688.58L178.704 688.58L84.744 688.58z" /></clipPath><clipPath id="71"><path d="M179.19 709.45L236.925 709.45L236.925 709.45L236.925 688.57L236.925 688.57L179.19 688.57z" /></clipPath><clipPath id="72"><path d="M179.18 709.46L236.924 709.46L236.924 709.46L236.924 688.58L236.924 688.58L179.18 688.58z" /></clipPath><clipPath id="73"><path d="M179.18 709.46L236.924 709.46L236.924 709.46L236.924 688.58L236.924 688.58L179.18 688.58z" /></clipPath><clipPath id="74"><path d="M237.41 709.45L280.61 709.45L280.61 709.45L280.61 688.57L280.61 688.57L237.41 688.57z" /></clipPath><clipPath id="75"><path d="M237.41 709.46L280.61 709.46L280.61 709.46L280.61 688.58L280.61 688.58L237.41 688.58z" /></clipPath><clipPath id="76"><path d="M237.41 709.46L280.61 709.46L280.61 709.46L280.61 688.58L280.61 688.58L237.41 688.58z" /></clipPath><clipPath id="77"><path d="M281.21 709.45L401.96 709.45L401.96 709.45L401.96 688.57L401.96 688.57L281.21 688.57z" /></clipPath><clipPath id="78"><path d="M281.21 709.46L401.95 709.46L401.95 709.46L401.95 688.58L401.95 688.58L281.21 688.58z" /></clipPath><clipPath id="79"><path d="M281.21 709.46L401.95 709.46L401.95 709.46L401.95 688.58L401.95 688.58L281.21 688.58z" /></clipPath><clipPath id="80"><path d="M402.44 709.45L510.7 709.45L510.7 709.45L510.7 688.57L510.7 688.57L402.44 688.57z" /></clipPath><clipPath id="81"><path d="M402.43 709.46L510.69 709.46L510.69 709.46L510.69 688.58L510.69 688.58L402.43 688.58z" /></clipPath><clipPath id="82"><path d="M402.43 709.46L510.69 709.46L510.69 709.46L510.69 688.58L510.69 688.58L402.43 688.58z" /></clipPath><clipPath id="83"><path d="M84.751 728.89L178.711 728.89L178.711 728.89L178.711 709.93L178.711 709.93L84.751 709.93z" /></clipPath><clipPath id="84"><path d="M84.744 728.9L178.704 728.9L178.704 728.9L178.704 709.94L178.704 709.94L84.744 709.94z" /></clipPath><clipPath id="85"><path d="M84.744 728.9L178.704 728.9L178.704 728.9L178.704 709.94L178.704 709.94L84.744 709.94z" /></clipPath><clipPath id="86"><path d="M179.19 728.89L236.925 728.89L236.925 728.89L236.925 709.93L236.925 709.93L179.19 709.93z" /></clipPath><clipPath id="87"><path d="M179.18 728.9L236.924 728.9L236.924 728.9L236.924 709.94L236.924 709.94L179.18 709.94z" /></clipPath><clipPath id="88"><path d="M179.18 728.9L236.924 728.9L236.924 728.9L236.924 709.94L236.924 709.94L179.18 709.94z" /></clipPath><clipPath id="89"><path d="M237.41 728.89L280.61 728.89L280.61 728.89L280.61 709.93L280.61 709.93L237.41 709.93z" /></clipPath><clipPath id="90"><path d="M237.41 728.9L280.61 728.9L280.61 728.9L280.61 709.94L280.61 709.94L237.41 709.94z" /></clipPath><clipPath id="91"><path d="M237.41 728.9L280.61 728.9L280.61 728.9L280.61 709.94L280.61 709.94L237.41 709.94z" /></clipPath><clipPath id="92"><path d="M281.21 728.89L401.96 728.89L401.96 728.89L401.96 709.93L401.96 709.93L281.21 709.93z" /></clipPath><clipPath id="93"><path d="M281.21 728.9L401.95 728.9L401.95 728.9L401.95 709.94L401.95 709.94L281.21 709.94z" /></clipPath><clipPath id="94"><path d="M281.21 728.9L401.95 728.9L401.95 728.9L401.95 709.94L401.95 709.94L281.21 709.94z" /></clipPath><clipPath id="95"><path d="M402.44 728.89L510.7 728.89L510.7 728.89L510.7 709.93L510.7 709.93L402.44 709.93z" /></clipPath><clipPath id="96"><path d="M402.43 728.9L510.69 728.9L510.69 728.9L510.69 709.94L510.69 709.94L402.43 709.94z" /></clipPath><clipPath id="97"><path d="M402.43 728.9L510.69 728.9L510.69 728.9L510.69 709.94L510.69 709.94L402.43 709.94z" /></clipPath><clipPath id="98"><path d="M84.751 748.451L178.711 748.451L178.711 748.451L178.711 729.491L178.711 729.491L84.751 729.491z" /></clipPath><clipPath id="99"><path d="M84.744 748.456L178.704 748.456L178.704 748.456L178.704 729.496L178.704 729.496L84.744 729.496z" /></clipPath><clipPath id="100"><path d="M84.744 748.456L178.704 748.456L178.704 748.456L178.704 729.496L178.704 729.496L84.744 729.496z" /></clipPath><clipPath id="101"><path d="M179.19 748.451L236.925 748.451L236.925 748.451L236.925 729.491L236.925 729.491L179.19 729.491z" /></clipPath><clipPath id="102"><path d="M179.18 748.456L236.924 748.456L236.924 748.456L236.924 729.496L236.924 729.496L179.18 729.496z" /></clipPath><clipPath id="103"><path d="M179.18 748.456L236.924 748.456L236.924 748.456L236.924 729.496L236.924 729.496L179.18 729.496z" /></clipPath><clipPath id="104"><path d="M237.41 748.451L280.61 748.451L280.61 748.451L280.61 729.491L280.61 729.491L237.41 729.491z" /></clipPath><clipPath id="105"><path d="M237.41 748.456L280.61 748.456L280.61 748.456L280.61 729.496L280.61 729.496L237.41 729.496z" /></clipPath><clipPath id="106"><path d="M237.41 748.456L280.61 748.456L280.61 748.456L280.61 729.496L280.61 729.496L237.41 729.496z" /></clipPath><clipPath id="107"><path d="M281.21 748.451L401.96 748.451L401.96 748.451L401.96 729.491L401.96 729.491L281.21 729.491z" /></clipPath><clipPath id="108"><path d="M281.21 748.456L401.95 748.456L401.95 748.456L401.95 729.496L401.95 729.496L281.21 729.496z" /></clipPath><clipPath id="109"><path d="M281.21 748.456L401.95 748.456L401.95 748.456L401.95 729.496L401.95 729.496L281.21 729.496z" /></clipPath><clipPath id="110"><path d="M402.44 748.451L510.7 748.451L510.7 748.451L510.7 729.491L510.7 729.491L402.44 729.491z" /></clipPath><clipPath id="111"><path d="M402.43 748.456L510.69 748.456L510.69 748.456L510.69 729.496L510.69 729.496L402.43 729.496z" /></clipPath><clipPath id="112"><path d="M402.43 748.456L510.69 748.456L510.69 748.456L510.69 729.496L510.69 729.496L402.43 729.496z" /></clipPath></defs><g transform="matrix(1.333333 0 0 1.333333 0 0)"><g><g clip-path="url(#1)"><path transform="matrix(1 0 0 -1 0 841)" d="M457.51 53.304L505.534 53.304L505.534 53.304L505.534 53.90404L505.534 53.90404L457.51 53.90404z" stroke="none" fill="#000000" fill-rule="evenodd" /><g clip-path="url(#2)"><path transform="matrix(1 0 0 -1 0 841)" d="M88.464 77.904L506.974 77.904L506.974 77.904L506.974 80.904L506.974 80.904L88.464 80.904z" stroke="none" fill="#000000" fill-rule="evenodd" /><path transform="matrix(1 0 0 -1 0 841)" d="M88.464 76.464L506.974 76.464L506.974 76.464L506.974 77.18397L506.974 77.18397L88.464 77.18397z" stroke="none" fill="#000000" fill-rule="evenodd" /></g><g clip-path="url(#3)"><g clip-path="url(#4)"></g><g clip-path="url(#5)"></g></g><path transform="matrix(1 0 0 -1 0 841)" d="M84.744 249.65L178.704 249.65L178.704 249.65L178.704 268.73L178.704 268.73L84.744 268.73z" stroke="none" fill="#0070C0" fill-rule="evenodd" /><g clip-path="url(#6)"><path transform="matrix(1 0 0 -1 0 841)" d="M89.904 249.65L173.544 249.65L173.544 249.65L173.544 268.73L173.544 268.73L89.904 268.73z" stroke="none" fill="#0070C0" fill-rule="evenodd" /><g clip-path="url(#7)"></g><g clip-path="url(#8)"></g></g><path transform="matrix(1 0 0 -1 0 841)" d="M179.18 249.65L236.924 249.65L236.924 249.65L236.924 268.73L236.924 268.73L179.18 268.73z" stroke="none" fill="#0070C0" fill-rule="evenodd" /><g clip-path="url(#9)"><path transform="matrix(1 0 0 -1 0 841)" d="M184.34 249.65L231.764 249.65L231.764 249.65L231.764 268.73L231.764 268.73L184.34 268.73z" stroke="none" fill="#0070C0" fill-rule="evenodd" /><g clip-path="url(#10)"></g><g clip-path="url(#11)"></g></g><path transform="matrix(1 0 0 -1 0 841)" d="M237.41 249.65L280.61 249.65L280.61 249.65L280.61 268.73L280.61 268.73L237.41 268.73z" stroke="none" fill="#0070C0" fill-rule="evenodd" /><g clip-path="url(#12)"><path transform="matrix(1 0 0 -1 0 841)" d="M242.57 249.65L275.45 249.65L275.45 249.65L275.45 268.73L275.45 268.73L242.57 268.73z" stroke="none" fill="#0070C0" fill-rule="evenodd" /><g clip-path="url(#13)"></g><g clip-path="url(#14)"></g></g><path transform="matrix(1 0 0 -1 0 841)" d="M281.21 249.65L401.95 249.65L401.95 249.65L401.95 268.73L401.95 268.73L281.21 268.73z" stroke="none" fill="#0070C0" fill-rule="evenodd" /><g clip-path="url(#15)"><path transform="matrix(1 0 0 -1 0 841)" d="M286.25 249.65L396.79 249.65L396.79 249.65L396.79 268.73L396.79 268.73L286.25 268.73z" stroke="none" fill="#0070C0" fill-rule="evenodd" /><g clip-path="url(#16)"></g><g clip-path="url(#17)"></g></g><path transform="matrix(1 0 0 -1 0 841)" d="M402.43 249.65L510.69 249.65L510.69 249.65L510.69 268.73L510.69 268.73L402.43 268.73z" stroke="none" fill="#0070C0" fill-rule="evenodd" /><g clip-path="url(#18)"><path transform="matrix(1 0 0 -1 0 841)" d="M407.59 249.65L505.534 249.65L505.534 249.65L505.534 268.73L505.534 268.73L407.59 268.73z" stroke="none" fill="#0070C0" fill-rule="evenodd" /><g clip-path="url(#19)"></g><g clip-path="url(#20)"></g></g><path transform="matrix(1 0 0 -1 0 841)" d="M84.264 268.73L84.744 268.73L84.744 268.73L84.744 269.2101L84.744 269.2101L84.264 269.2101z" stroke="none" fill="#000000" fill-rule="evenodd" /><path transform="matrix(1 0 0 -1 0 841)" d="M84.264 268.73L84.744 268.73L84.744 268.73L84.744 269.2101L84.744 269.2101L84.264 269.2101z" stroke="none" fill="#000000" fill-rule="evenodd" /><path transform="matrix(1 0 0 -1 0 841)" d="M84.744 268.73L178.824 268.73L178.824 268.73L178.824 269.2101L178.824 269.2101L84.744 269.2101z" stroke="none" fill="#000000" fill-rule="evenodd" /><path transform="matrix(1 0 0 -1 0 841)" d="M178.82 268.73L179.3 268.73L179.3 268.73L179.3 269.2101L179.3 269.2101L178.82 269.2101z" stroke="none" fill="#000000" fill-rule="evenodd" /><path transform="matrix(1 0 0 -1 0 841)" d="M179.3 268.73L236.924 268.73L236.924 268.73L236.924 269.2101L236.924 269.2101L179.3 269.2101z" stroke="none" fill="#000000" fill-rule="evenodd" /><path transform="matrix(1 0 0 -1 0 841)" d="M236.93 268.73L237.41 268.73L237.41 268.73L237.41 269.2101L237.41 269.2101L236.93 269.2101z" stroke="none" fill="#000000" fill-rule="evenodd" /><path transform="matrix(1 0 0 -1 0 841)" d="M237.41 268.73L280.73 268.73L280.73 268.73L280.73 269.2101L280.73 269.2101L237.41 269.2101z" stroke="none" fill="#000000" fill-rule="evenodd" /><path transform="matrix(1 0 0 -1 0 841)" d="M280.73 268.73L281.21 268.73L281.21 268.73L281.21 269.2101L281.21 269.2101L280.73 269.2101z" stroke="none" fill="#000000" fill-rule="evenodd" /><path transform="matrix(1 0 0 -1 0 841)" d="M281.21 268.73L401.95 268.73L401.95 268.73L401.95 269.2101L401.95 269.2101L281.21 269.2101z" stroke="none" fill="#000000" fill-rule="evenodd" /><path transform="matrix(1 0 0 -1 0 841)" d="M401.95 268.73L402.43 268.73L402.43 268.73L402.43 269.2101L402.43 269.2101L401.95 269.2101z" stroke="none" fill="#000000" fill-rule="evenodd" /><path transform="matrix(1 0 0 -1 0 841)" d="M402.43 268.73L510.69 268.73L510.69 268.73L510.69 269.2101L510.69 269.2101L402.43 269.2101z" stroke="none" fill="#000000" fill-rule="evenodd" /><path transform="matrix(1 0 0 -1 0 841)" d="M510.7 268.73L511.18 268.73L511.18 268.73L511.18 269.2101L511.18 269.2101L510.7 269.2101z" stroke="none" fill="#000000" fill-rule="evenodd" /><path transform="matrix(1 0 0 -1 0 841)" d="M510.7 268.73L511.18 268.73L511.18 268.73L511.18 269.2101L511.18 269.2101L510.7 269.2101z" stroke="none" fill="#000000" fill-rule="evenodd" /><path transform="matrix(1 0 0 -1 0 841)" d="M84.264 249.65L84.744 249.65L84.744 249.65L84.744 268.73L84.744 268.73L84.264 268.73z" stroke="none" fill="#000000" fill-rule="evenodd" /><path transform="matrix(1 0 0 -1 0 841)" d="M178.82 249.65L179.3 249.65L179.3 249.65L179.3 268.73L179.3 268.73L178.82 268.73z" stroke="none" fill="#000000" fill-rule="evenodd" /><path transform="matrix(1 0 0 -1 0 841)" d="M236.93 249.65L237.41 249.65L237.41 249.65L237.41 268.73L237.41 268.73L236.93 268.73z" stroke="none" fill="#000000" fill-rule="evenodd" /><path transform="matrix(1 0 0 -1 0 841)" d="M280.73 249.65L281.21 249.65L281.21 249.65L281.21 268.73L281.21 268.73L280.73 268.73z" stroke="none" fill="#000000" fill-rule="evenodd" /><path transform="matrix(1 0 0 -1 0 841)" d="M401.95 249.65L402.43 249.65L402.43 249.65L402.43 268.73L402.43 268.73L401.95 268.73z" stroke="none" fill="#000000" fill-rule="evenodd" /><path transform="matrix(1 0 0 -1 0 841)" d="M510.7 249.65L511.18 249.65L511.18 249.65L511.18 268.73L511.18 268.73L510.7 268.73z" stroke="none" fill="#000000" fill-rule="evenodd" /><path transform="matrix(1 0 0 -1 0 841)" d="M84.744 211.13L178.704 211.13L178.704 211.13L178.704 249.17L178.704 249.17L84.744 249.17z" stroke="none" fill="#DAEEF3" fill-rule="evenodd" /><g clip-path="url(#21)"><path transform="matrix(1 0 0 -1 0 841)" d="M89.904 230.09L173.544 230.09L173.544 230.09L173.544 249.17L173.544 249.17L89.904 249.17z" stroke="none" fill="#DAEEF3" fill-rule="evenodd" /><g clip-path="url(#22)"></g><g clip-path="url(#23)"></g></g><path transform="matrix(1 0 0 -1 0 841)" d="M179.18 211.13L236.924 211.13L236.924 211.13L236.924 249.17L236.924 249.17L179.18 249.17z" stroke="none" fill="#DAEEF3" fill-rule="evenodd" /><g clip-path="url(#24)"><path transform="matrix(1 0 0 -1 0 841)" d="M184.34 230.09L231.764 230.09L231.764 230.09L231.764 249.17L231.764 249.17L184.34 249.17z" stroke="none" fill="#DAEEF3" fill-rule="evenodd" /><g clip-path="url(#25)"></g><g clip-path="url(#26)"></g></g><path transform="matrix(1 0 0 -1 0 841)" d="M237.41 211.13L280.61 211.13L280.61 211.13L280.61 249.17L280.61 249.17L237.41 249.17z" stroke="none" fill="#DAEEF3" fill-rule="evenodd" /><g clip-path="url(#27)"><path transform="matrix(1 0 0 -1 0 841)" d="M242.57 230.09L275.45 230.09L275.45 230.09L275.45 249.17L275.45 249.17L242.57 249.17z" stroke="none" fill="#DAEEF3" fill-rule="evenodd" /><g clip-path="url(#28)"></g><g clip-path="url(#29)"></g></g><path transform="matrix(1 0 0 -1 0 841)" d="M281.21 211.13L401.95 211.13L401.95 211.13L401.95 249.17L401.95 249.17L281.21 249.17z" stroke="none" fill="#DAEEF3" fill-rule="evenodd" /><g clip-path="url(#30)"><path transform="matrix(1 0 0 -1 0 841)" d="M286.25 230.09L396.79 230.09L396.79 230.09L396.79 249.17L396.79 249.17L286.25 249.17z" stroke="none" fill="#DAEEF3" fill-rule="evenodd" /><g clip-path="url(#31)"></g><path transform="matrix(1 0 0 -1 0 841)" d="M286.25 211.13L396.79 211.13L396.79 211.13L396.79 230.09L396.79 230.09L286.25 230.09z" stroke="none" fill="#DAEEF3" fill-rule="evenodd" /><g clip-path="url(#32)"></g><g clip-path="url(#33)"></g></g><path transform="matrix(1 0 0 -1 0 841)" d="M402.43 211.13L510.69 211.13L510.69 211.13L510.69 249.17L510.69 249.17L402.43 249.17z" stroke="none" fill="#DAEEF3" fill-rule="evenodd" /><g clip-path="url(#34)"><path transform="matrix(1 0 0 -1 0 841)" d="M407.59 230.09L505.534 230.09L505.534 230.09L505.534 249.17L505.534 249.17L407.59 249.17z" stroke="none" fill="#DAEEF3" fill-rule="evenodd" /><g clip-path="url(#35)"></g><g clip-path="url(#36)"></g></g><path transform="matrix(1 0 0 -1 0 841)" d="M84.264 249.17L84.744 249.17L84.744 249.17L84.744 249.65L84.744 249.65L84.264 249.65z" stroke="none" fill="#000000" fill-rule="evenodd" /><path transform="matrix(1 0 0 -1 0 841)" d="M84.744 249.17L178.824 249.17L178.824 249.17L178.824 249.65L178.824 249.65L84.744 249.65z" stroke="none" fill="#000000" fill-rule="evenodd" /><path transform="matrix(1 0 0 -1 0 841)" d="M178.82 249.17L179.3 249.17L179.3 249.17L179.3 249.65L179.3 249.65L178.82 249.65z" stroke="none" fill="#000000" fill-rule="evenodd" /><path transform="matrix(1 0 0 -1 0 841)" d="M179.3 249.17L236.924 249.17L236.924 249.17L236.924 249.65L236.924 249.65L179.3 249.65z" stroke="none" fill="#000000" fill-rule="evenodd" /><path transform="matrix(1 0 0 -1 0 841)" d="M236.93 249.17L237.41 249.17L237.41 249.17L237.41 249.65L237.41 249.65L236.93 249.65z" stroke="none" fill="#000000" fill-rule="evenodd" /><path transform="matrix(1 0 0 -1 0 841)" d="M237.41 249.17L280.73 249.17L280.73 249.17L280.73 249.65L280.73 249.65L237.41 249.65z" stroke="none" fill="#000000" fill-rule="evenodd" /><path transform="matrix(1 0 0 -1 0 841)" d="M280.73 249.17L281.21 249.17L281.21 249.17L281.21 249.65L281.21 249.65L280.73 249.65z" stroke="none" fill="#000000" fill-rule="evenodd" /><path transform="matrix(1 0 0 -1 0 841)" d="M281.21 249.17L401.95 249.17L401.95 249.17L401.95 249.65L401.95 249.65L281.21 249.65z" stroke="none" fill="#000000" fill-rule="evenodd" /><path transform="matrix(1 0 0 -1 0 841)" d="M401.95 249.17L402.43 249.17L402.43 249.17L402.43 249.65L402.43 249.65L401.95 249.65z" stroke="none" fill="#000000" fill-rule="evenodd" /><path transform="matrix(1 0 0 -1 0 841)" d="M402.43 249.17L510.69 249.17L510.69 249.17L510.69 249.65L510.69 249.65L402.43 249.65z" stroke="none" fill="#000000" fill-rule="evenodd" /><path transform="matrix(1 0 0 -1 0 841)" d="M510.7 249.17L511.18 249.17L511.18 249.17L511.18 249.65L511.18 249.65L510.7 249.65z" stroke="none" fill="#000000" fill-rule="evenodd" /><path transform="matrix(1 0 0 -1 0 841)" d="M84.264 211.13L84.744 211.13L84.744 211.13L84.744 249.17L84.744 249.17L84.264 249.17z" stroke="none" fill="#000000" fill-rule="evenodd" /><path transform="matrix(1 0 0 -1 0 841)" d="M178.82 211.13L179.3 211.13L179.3 211.13L179.3 249.17L179.3 249.17L178.82 249.17z" stroke="none" fill="#000000" fill-rule="evenodd" /><path transform="matrix(1 0 0 -1 0 841)" d="M236.93 211.13L237.41 211.13L237.41 211.13L237.41 249.17L237.41 249.17L236.93 249.17z" stroke="none" fill="#000000" fill-rule="evenodd" /><path transform="matrix(1 0 0 -1 0 841)" d="M280.73 211.13L281.21 211.13L281.21 211.13L281.21 249.17L281.21 249.17L280.73 249.17z" stroke="none" fill="#000000" fill-rule="evenodd" /><path transform="matrix(1 0 0 -1 0 841)" d="M401.95 211.13L402.43 211.13L402.43 211.13L402.43 249.17L402.43 249.17L401.95 249.17z" stroke="none" fill="#000000" fill-rule="evenodd" /><path transform="matrix(1 0 0 -1 0 841)" d="M510.7 211.13L511.18 211.13L511.18 211.13L511.18 249.17L511.18 249.17L510.7 249.17z" stroke="none" fill="#000000" fill-rule="evenodd" /><g clip-path="url(#37)"><g clip-path="url(#38)"></g><g clip-path="url(#39)"></g></g><g clip-path="url(#40)"><g clip-path="url(#41)"></g><g clip-path="url(#42)"></g></g><g clip-path="url(#43)"><g clip-path="url(#44)"></g><g clip-path="url(#45)"></g></g><g clip-path="url(#46)"><g clip-path="url(#47)"></g><g clip-path="url(#48)"></g><g clip-path="url(#49)"></g></g><g clip-path="url(#50)"><g clip-path="url(#51)"></g><g clip-path="url(#52)"></g></g><path transform="matrix(1 0 0 -1 0 841)" d="M84.264 210.65L84.744 210.65L84.744 210.65L84.744 211.13L84.744 211.13L84.264 211.13z" stroke="none" fill="#000000" fill-rule="evenodd" /><path transform="matrix(1 0 0 -1 0 841)" d="M84.744 210.65L178.824 210.65L178.824 210.65L178.824 211.13L178.824 211.13L84.744 211.13z" stroke="none" fill="#000000" fill-rule="evenodd" /><path transform="matrix(1 0 0 -1 0 841)" d="M178.82 210.65L179.3 210.65L179.3 210.65L179.3 211.13L179.3 211.13L178.82 211.13z" stroke="none" fill="#000000" fill-rule="evenodd" /><path transform="matrix(1 0 0 -1 0 841)" d="M179.3 210.65L236.924 210.65L236.924 210.65L236.924 211.13L236.924 211.13L179.3 211.13z" stroke="none" fill="#000000" fill-rule="evenodd" /><path transform="matrix(1 0 0 -1 0 841)" d="M236.93 210.65L237.41 210.65L237.41 210.65L237.41 211.13L237.41 211.13L236.93 211.13z" stroke="none" fill="#000000" fill-rule="evenodd" /><path transform="matrix(1 0 0 -1 0 841)" d="M237.41 210.65L280.73 210.65L280.73 210.65L280.73 211.13L280.73 211.13L237.41 211.13z" stroke="none" fill="#000000" fill-rule="evenodd" /><path transform="matrix(1 0 0 -1 0 841)" d="M280.73 210.65L281.21 210.65L281.21 210.65L281.21 211.13L281.21 211.13L280.73 211.13z" stroke="none" fill="#000000" fill-rule="evenodd" /><path transform="matrix(1 0 0 -1 0 841)" d="M281.21 210.65L401.95 210.65L401.95 210.65L401.95 211.13L401.95 211.13L281.21 211.13z" stroke="none" fill="#000000" fill-rule="evenodd" /><path transform="matrix(1 0 0 -1 0 841)" d="M401.95 210.65L402.43 210.65L402.43 210.65L402.43 211.13L402.43 211.13L401.95 211.13z" stroke="none" fill="#000000" fill-rule="evenodd" /><path transform="matrix(1 0 0 -1 0 841)" d="M402.43 210.65L510.69 210.65L510.69 210.65L510.69 211.13L510.69 211.13L402.43 211.13z" stroke="none" fill="#000000" fill-rule="evenodd" /><path transform="matrix(1 0 0 -1 0 841)" d="M510.7 210.65L511.18 210.65L511.18 210.65L511.18 211.13L511.18 211.13L510.7 211.13z" stroke="none" fill="#000000" fill-rule="evenodd" /><path transform="matrix(1 0 0 -1 0 841)" d="M84.264 172.46L84.744 172.46L84.744 172.46L84.744 210.644L84.744 210.644L84.264 210.644z" stroke="none" fill="#000000" fill-rule="evenodd" /><path transform="matrix(1 0 0 -1 0 841)" d="M178.82 172.46L179.3 172.46L179.3 172.46L179.3 210.644L179.3 210.644L178.82 210.644z" stroke="none" fill="#000000" fill-rule="evenodd" /><path transform="matrix(1 0 0 -1 0 841)" d="M236.93 172.46L237.41 172.46L237.41 172.46L237.41 210.644L237.41 210.644L236.93 210.644z" stroke="none" fill="#000000" fill-rule="evenodd" /><path transform="matrix(1 0 0 -1 0 841)" d="M280.73 172.46L281.21 172.46L281.21 172.46L281.21 210.644L281.21 210.644L280.73 210.644z" stroke="none" fill="#000000" fill-rule="evenodd" /><path transform="matrix(1 0 0 -1 0 841)" d="M401.95 172.46L402.43 172.46L402.43 172.46L402.43 210.644L402.43 210.644L401.95 210.644z" stroke="none" fill="#000000" fill-rule="evenodd" /><path transform="matrix(1 0 0 -1 0 841)" d="M510.7 172.46L511.18 172.46L511.18 172.46L511.18 210.644L511.18 210.644L510.7 210.644z" stroke="none" fill="#000000" fill-rule="evenodd" /><path transform="matrix(1 0 0 -1 0 841)" d="M84.744 152.9L178.704 152.9L178.704 152.9L178.704 171.98L178.704 171.98L84.744 171.98z" stroke="none" fill="#DAEEF3" fill-rule="evenodd" /><g clip-path="url(#53)"><path transform="matrix(1 0 0 -1 0 841)" d="M89.904 152.9L173.544 152.9L173.544 152.9L173.544 171.98L173.544 171.98L89.904 171.98z" stroke="none" fill="#DAEEF3" fill-rule="evenodd" /><g clip-path="url(#54)"></g><g clip-path="url(#55)"></g></g><path transform="matrix(1 0 0 -1 0 841)" d="M179.18 152.9L236.924 152.9L236.924 152.9L236.924 171.98L236.924 171.98L179.18 171.98z" stroke="none" fill="#DAEEF3" fill-rule="evenodd" /><g clip-path="url(#56)"><path transform="matrix(1 0 0 -1 0 841)" d="M184.34 152.9L231.764 152.9L231.764 152.9L231.764 171.98L231.764 171.98L184.34 171.98z" stroke="none" fill="#DAEEF3" fill-rule="evenodd" /><g clip-path="url(#57)"></g><g clip-path="url(#58)"></g></g><path transform="matrix(1 0 0 -1 0 841)" d="M237.41 152.9L280.61 152.9L280.61 152.9L280.61 171.98L280.61 171.98L237.41 171.98z" stroke="none" fill="#DAEEF3" fill-rule="evenodd" /><g clip-path="url(#59)"><path transform="matrix(1 0 0 -1 0 841)" d="M242.57 152.9L275.45 152.9L275.45 152.9L275.45 171.98L275.45 171.98L242.57 171.98z" stroke="none" fill="#DAEEF3" fill-rule="evenodd" /><g clip-path="url(#60)"></g><g clip-path="url(#61)"></g></g><path transform="matrix(1 0 0 -1 0 841)" d="M281.21 152.9L401.95 152.9L401.95 152.9L401.95 171.98L401.95 171.98L281.21 171.98z" stroke="none" fill="#DAEEF3" fill-rule="evenodd" /><g clip-path="url(#62)"><path transform="matrix(1 0 0 -1 0 841)" d="M286.25 152.9L396.79 152.9L396.79 152.9L396.79 171.98L396.79 171.98L286.25 171.98z" stroke="none" fill="#DAEEF3" fill-rule="evenodd" /><g clip-path="url(#63)"></g><g clip-path="url(#64)"></g></g><path transform="matrix(1 0 0 -1 0 841)" d="M402.43 152.9L510.69 152.9L510.69 152.9L510.69 171.98L510.69 171.98L402.43 171.98z" stroke="none" fill="#DAEEF3" fill-rule="evenodd" /><g clip-path="url(#65)"><path transform="matrix(1 0 0 -1 0 841)" d="M407.59 152.9L505.534 152.9L505.534 152.9L505.534 171.98L505.534 171.98L407.59 171.98z" stroke="none" fill="#DAEEF3" fill-rule="evenodd" /><g clip-path="url(#66)"></g><g clip-path="url(#67)"></g></g><path transform="matrix(1 0 0 -1 0 841)" d="M84.264 171.98L84.744 171.98L84.744 171.98L84.744 172.46L84.744 172.46L84.264 172.46z" stroke="none" fill="#000000" fill-rule="evenodd" /><path transform="matrix(1 0 0 -1 0 841)" d="M84.744 171.98L178.824 171.98L178.824 171.98L178.824 172.46L178.824 172.46L84.744 172.46z" stroke="none" fill="#000000" fill-rule="evenodd" /><path transform="matrix(1 0 0 -1 0 841)" d="M178.82 171.98L179.3 171.98L179.3 171.98L179.3 172.46L179.3 172.46L178.82 172.46z" stroke="none" fill="#000000" fill-rule="evenodd" /><path transform="matrix(1 0 0 -1 0 841)" d="M179.3 171.98L236.924 171.98L236.924 171.98L236.924 172.46L236.924 172.46L179.3 172.46z" stroke="none" fill="#000000" fill-rule="evenodd" /><path transform="matrix(1 0 0 -1 0 841)" d="M236.93 171.98L237.41 171.98L237.41 171.98L237.41 172.46L237.41 172.46L236.93 172.46z" stroke="none" fill="#000000" fill-rule="evenodd" /><path transform="matrix(1 0 0 -1 0 841)" d="M237.41 171.98L280.73 171.98L280.73 171.98L280.73 172.46L280.73 172.46L237.41 172.46z" stroke="none" fill="#000000" fill-rule="evenodd" /><path transform="matrix(1 0 0 -1 0 841)" d="M280.73 171.98L281.21 171.98L281.21 171.98L281.21 172.46L281.21 172.46L280.73 172.46z" stroke="none" fill="#000000" fill-rule="evenodd" /><path transform="matrix(1 0 0 -1 0 841)" d="M281.21 171.98L401.95 171.98L401.95 171.98L401.95 172.46L401.95 172.46L281.21 172.46z" stroke="none" fill="#000000" fill-rule="evenodd" /><path transform="matrix(1 0 0 -1 0 841)" d="M401.95 171.98L402.43 171.98L402.43 171.98L402.43 172.46L402.43 172.46L401.95 172.46z" stroke="none" fill="#000000" fill-rule="evenodd" /><path transform="matrix(1 0 0 -1 0 841)" d="M402.43 171.98L510.69 171.98L510.69 171.98L510.69 172.46L510.69 172.46L402.43 172.46z" stroke="none" fill="#000000" fill-rule="evenodd" /><path transform="matrix(1 0 0 -1 0 841)" d="M510.7 171.98L511.18 171.98L511.18 171.98L511.18 172.46L511.18 172.46L510.7 172.46z" stroke="none" fill="#000000" fill-rule="evenodd" /><path transform="matrix(1 0 0 -1 0 841)" d="M84.264 152.9L84.744 152.9L84.744 152.9L84.744 171.98L84.744 171.98L84.264 171.98z" stroke="none" fill="#000000" fill-rule="evenodd" /><path transform="matrix(1 0 0 -1 0 841)" d="M178.82 152.9L179.3 152.9L179.3 152.9L179.3 171.98L179.3 171.98L178.82 171.98z" stroke="none" fill="#000000" fill-rule="evenodd" /><path transform="matrix(1 0 0 -1 0 841)" d="M236.93 152.9L237.41 152.9L237.41 152.9L237.41 171.98L237.41 171.98L236.93 171.98z" stroke="none" fill="#000000" fill-rule="evenodd" /><path transform="matrix(1 0 0 -1 0 841)" d="M280.73 152.9L281.21 152.9L281.21 152.9L281.21 171.98L281.21 171.98L280.73 171.98z" stroke="none" fill="#000000" fill-rule="evenodd" /><path transform="matrix(1 0 0 -1 0 841)" d="M401.95 152.9L402.43 152.9L402.43 152.9L402.43 171.98L402.43 171.98L401.95 171.98z" stroke="none" fill="#000000" fill-rule="evenodd" /><path transform="matrix(1 0 0 -1 0 841)" d="M510.7 152.9L511.18 152.9L511.18 152.9L511.18 171.98L511.18 171.98L510.7 171.98z" stroke="none" fill="#000000" fill-rule="evenodd" /><g clip-path="url(#68)"><g clip-path="url(#69)"></g><g clip-path="url(#70)"></g></g><g clip-path="url(#71)"><g clip-path="url(#72)"></g><g clip-path="url(#73)"></g></g><g clip-path="url(#74)"><g clip-path="url(#75)"></g><g clip-path="url(#76)"></g></g><g clip-path="url(#77)"><g clip-path="url(#78)"></g><g clip-path="url(#79)"></g></g><g clip-path="url(#80)"><g clip-path="url(#81)"></g><g clip-path="url(#82)"></g></g><path transform="matrix(1 0 0 -1 0 841)" d="M84.264 152.42L84.744 152.42L84.744 152.42L84.744 152.9L84.744 152.9L84.264 152.9z" stroke="none" fill="#000000" fill-rule="evenodd" /><path transform="matrix(1 0 0 -1 0 841)" d="M84.744 152.42L178.824 152.42L178.824 152.42L178.824 152.9L178.824 152.9L84.744 152.9z" stroke="none" fill="#000000" fill-rule="evenodd" /><path transform="matrix(1 0 0 -1 0 841)" d="M178.82 152.42L179.3 152.42L179.3 152.42L179.3 152.9L179.3 152.9L178.82 152.9z" stroke="none" fill="#000000" fill-rule="evenodd" /><path transform="matrix(1 0 0 -1 0 841)" d="M179.3 152.42L236.924 152.42L236.924 152.42L236.924 152.9L236.924 152.9L179.3 152.9z" stroke="none" fill="#000000" fill-rule="evenodd" /><path transform="matrix(1 0 0 -1 0 841)" d="M236.93 152.42L237.41 152.42L237.41 152.42L237.41 152.9L237.41 152.9L236.93 152.9z" stroke="none" fill="#000000" fill-rule="evenodd" /><path transform="matrix(1 0 0 -1 0 841)" d="M237.41 152.42L280.73 152.42L280.73 152.42L280.73 152.9L280.73 152.9L237.41 152.9z" stroke="none" fill="#000000" fill-rule="evenodd" /><path transform="matrix(1 0 0 -1 0 841)" d="M280.73 152.42L281.21 152.42L281.21 152.42L281.21 152.9L281.21 152.9L280.73 152.9z" stroke="none" fill="#000000" fill-rule="evenodd" /><path transform="matrix(1 0 0 -1 0 841)" d="M281.21 152.42L401.95 152.42L401.95 152.42L401.95 152.9L401.95 152.9L281.21 152.9z" stroke="none" fill="#000000" fill-rule="evenodd" /><path transform="matrix(1 0 0 -1 0 841)" d="M401.95 152.42L402.43 152.42L402.43 152.42L402.43 152.9L402.43 152.9L401.95 152.9z" stroke="none" fill="#000000" fill-rule="evenodd" /><path transform="matrix(1 0 0 -1 0 841)" d="M402.43 152.42L510.69 152.42L510.69 152.42L510.69 152.9L510.69 152.9L402.43 152.9z" stroke="none" fill="#000000" fill-rule="evenodd" /><path transform="matrix(1 0 0 -1 0 841)" d="M510.7 152.42L511.18 152.42L511.18 152.42L511.18 152.9L511.18 152.9L510.7 152.9z" stroke="none" fill="#000000" fill-rule="evenodd" /><path transform="matrix(1 0 0 -1 0 841)" d="M84.264 131.54L84.744 131.54L84.744 131.54L84.744 152.42L84.744 152.42L84.264 152.42z" stroke="none" fill="#000000" fill-rule="evenodd" /><path transform="matrix(1 0 0 -1 0 841)" d="M178.82 131.54L179.3 131.54L179.3 131.54L179.3 152.42L179.3 152.42L178.82 152.42z" stroke="none" fill="#000000" fill-rule="evenodd" /><path transform="matrix(1 0 0 -1 0 841)" d="M236.93 131.54L237.41 131.54L237.41 131.54L237.41 152.42L237.41 152.42L236.93 152.42z" stroke="none" fill="#000000" fill-rule="evenodd" /><path transform="matrix(1 0 0 -1 0 841)" d="M280.73 131.54L281.21 131.54L281.21 131.54L281.21 152.42L281.21 152.42L280.73 152.42z" stroke="none" fill="#000000" fill-rule="evenodd" /><path transform="matrix(1 0 0 -1 0 841)" d="M401.95 131.54L402.43 131.54L402.43 131.54L402.43 152.42L402.43 152.42L401.95 152.42z" stroke="none" fill="#000000" fill-rule="evenodd" /><path transform="matrix(1 0 0 -1 0 841)" d="M510.7 131.54L511.18 131.54L511.18 131.54L511.18 152.42L511.18 152.42L510.7 152.42z" stroke="none" fill="#000000" fill-rule="evenodd" /><path transform="matrix(1 0 0 -1 0 841)" d="M84.744 112.1L178.704 112.1L178.704 112.1L178.704 131.06L178.704 131.06L84.744 131.06z" stroke="none" fill="#DAEEF3" fill-rule="evenodd" /><g clip-path="url(#83)"><path transform="matrix(1 0 0 -1 0 841)" d="M89.904 112.1L173.544 112.1L173.544 112.1L173.544 131.06L173.544 131.06L89.904 131.06z" stroke="none" fill="#DAEEF3" fill-rule="evenodd" /><g clip-path="url(#84)"></g><g clip-path="url(#85)"></g></g><path transform="matrix(1 0 0 -1 0 841)" d="M179.18 112.1L236.924 112.1L236.924 112.1L236.924 131.06L236.924 131.06L179.18 131.06z" stroke="none" fill="#DAEEF3" fill-rule="evenodd" /><g clip-path="url(#86)"><path transform="matrix(1 0 0 -1 0 841)" d="M184.34 112.1L231.764 112.1L231.764 112.1L231.764 131.06L231.764 131.06L184.34 131.06z" stroke="none" fill="#DAEEF3" fill-rule="evenodd" /><g clip-path="url(#87)"></g><g clip-path="url(#88)"></g></g><path transform="matrix(1 0 0 -1 0 841)" d="M237.41 112.1L280.61 112.1L280.61 112.1L280.61 131.06L280.61 131.06L237.41 131.06z" stroke="none" fill="#DAEEF3" fill-rule="evenodd" /><g clip-path="url(#89)"><path transform="matrix(1 0 0 -1 0 841)" d="M242.57 112.1L275.45 112.1L275.45 112.1L275.45 131.06L275.45 131.06L242.57 131.06z" stroke="none" fill="#DAEEF3" fill-rule="evenodd" /><g clip-path="url(#90)"></g><g clip-path="url(#91)"></g></g><path transform="matrix(1 0 0 -1 0 841)" d="M281.21 112.1L401.95 112.1L401.95 112.1L401.95 131.06L401.95 131.06L281.21 131.06z" stroke="none" fill="#DAEEF3" fill-rule="evenodd" /><g clip-path="url(#92)"><path transform="matrix(1 0 0 -1 0 841)" d="M286.25 112.1L396.79 112.1L396.79 112.1L396.79 131.06L396.79 131.06L286.25 131.06z" stroke="none" fill="#DAEEF3" fill-rule="evenodd" /><g clip-path="url(#93)"></g><g clip-path="url(#94)"></g></g><path transform="matrix(1 0 0 -1 0 841)" d="M402.43 112.1L510.69 112.1L510.69 112.1L510.69 131.06L510.69 131.06L402.43 131.06z" stroke="none" fill="#DAEEF3" fill-rule="evenodd" /><g clip-path="url(#95)"><path transform="matrix(1 0 0 -1 0 841)" d="M407.59 112.1L505.534 112.1L505.534 112.1L505.534 131.06L505.534 131.06L407.59 131.06z" stroke="none" fill="#DAEEF3" fill-rule="evenodd" /><g clip-path="url(#96)"></g><g clip-path="url(#97)"></g></g><path transform="matrix(1 0 0 -1 0 841)" d="M84.264 131.06L84.744 131.06L84.744 131.06L84.744 131.54L84.744 131.54L84.264 131.54z" stroke="none" fill="#000000" fill-rule="evenodd" /><path transform="matrix(1 0 0 -1 0 841)" d="M84.744 131.06L178.824 131.06L178.824 131.06L178.824 131.54L178.824 131.54L84.744 131.54z" stroke="none" fill="#000000" fill-rule="evenodd" /><path transform="matrix(1 0 0 -1 0 841)" d="M178.82 131.06L179.3 131.06L179.3 131.06L179.3 131.54L179.3 131.54L178.82 131.54z" stroke="none" fill="#000000" fill-rule="evenodd" /><path transform="matrix(1 0 0 -1 0 841)" d="M179.3 131.06L236.924 131.06L236.924 131.06L236.924 131.54L236.924 131.54L179.3 131.54z" stroke="none" fill="#000000" fill-rule="evenodd" /><path transform="matrix(1 0 0 -1 0 841)" d="M236.93 131.06L237.41 131.06L237.41 131.06L237.41 131.54L237.41 131.54L236.93 131.54z" stroke="none" fill="#000000" fill-rule="evenodd" /><path transform="matrix(1 0 0 -1 0 841)" d="M237.41 131.06L280.73 131.06L280.73 131.06L280.73 131.54L280.73 131.54L237.41 131.54z" stroke="none" fill="#000000" fill-rule="evenodd" /><path transform="matrix(1 0 0 -1 0 841)" d="M280.73 131.06L281.21 131.06L281.21 131.06L281.21 131.54L281.21 131.54L280.73 131.54z" stroke="none" fill="#000000" fill-rule="evenodd" /><path transform="matrix(1 0 0 -1 0 841)" d="M281.21 131.06L401.95 131.06L401.95 131.06L401.95 131.54L401.95 131.54L281.21 131.54z" stroke="none" fill="#000000" fill-rule="evenodd" /><path transform="matrix(1 0 0 -1 0 841)" d="M401.95 131.06L402.43 131.06L402.43 131.06L402.43 131.54L402.43 131.54L401.95 131.54z" stroke="none" fill="#000000" fill-rule="evenodd" /><path transform="matrix(1 0 0 -1 0 841)" d="M402.43 131.06L510.69 131.06L510.69 131.06L510.69 131.54L510.69 131.54L402.43 131.54z" stroke="none" fill="#000000" fill-rule="evenodd" /><path transform="matrix(1 0 0 -1 0 841)" d="M510.7 131.06L511.18 131.06L511.18 131.06L511.18 131.54L511.18 131.54L510.7 131.54z" stroke="none" fill="#000000" fill-rule="evenodd" /><path transform="matrix(1 0 0 -1 0 841)" d="M84.264 112.1L84.744 112.1L84.744 112.1L84.744 131.06L84.744 131.06L84.264 131.06z" stroke="none" fill="#000000" fill-rule="evenodd" /><path transform="matrix(1 0 0 -1 0 841)" d="M178.82 112.1L179.3 112.1L179.3 112.1L179.3 131.06L179.3 131.06L178.82 131.06z" stroke="none" fill="#000000" fill-rule="evenodd" /><path transform="matrix(1 0 0 -1 0 841)" d="M236.93 112.1L237.41 112.1L237.41 112.1L237.41 131.06L237.41 131.06L236.93 131.06z" stroke="none" fill="#000000" fill-rule="evenodd" /><path transform="matrix(1 0 0 -1 0 841)" d="M280.73 112.1L281.21 112.1L281.21 112.1L281.21 131.06L281.21 131.06L280.73 131.06z" stroke="none" fill="#000000" fill-rule="evenodd" /><path transform="matrix(1 0 0 -1 0 841)" d="M401.95 112.1L402.43 112.1L402.43 112.1L402.43 131.06L402.43 131.06L401.95 131.06z" stroke="none" fill="#000000" fill-rule="evenodd" /><path transform="matrix(1 0 0 -1 0 841)" d="M510.7 112.1L511.18 112.1L511.18 112.1L511.18 131.06L511.18 131.06L510.7 131.06z" stroke="none" fill="#000000" fill-rule="evenodd" /><g clip-path="url(#98)"><g clip-path="url(#99)"></g><g clip-path="url(#100)"></g></g><g clip-path="url(#101)"><g clip-path="url(#102)"></g><g clip-path="url(#103)"></g></g><g clip-path="url(#104)"><g clip-path="url(#105)"></g><g clip-path="url(#106)"></g></g><g clip-path="url(#107)"><g clip-path="url(#108)"></g><g clip-path="url(#109)"></g></g><g clip-path="url(#110)"><g clip-path="url(#111)"></g><g clip-path="url(#112)"></g></g><path transform="matrix(1 0 0 -1 0 841)" d="M84.264 111.62L84.744 111.62L84.744 111.62L84.744 112.1L84.744 112.1L84.264 112.1z" stroke="none" fill="#000000" fill-rule="evenodd" /><path transform="matrix(1 0 0 -1 0 841)" d="M84.744 111.62L178.824 111.62L178.824 111.62L178.824 112.1L178.824 112.1L84.744 112.1z" stroke="none" fill="#000000" fill-rule="evenodd" /><path transform="matrix(1 0 0 -1 0 841)" d="M178.82 111.62L179.3 111.62L179.3 111.62L179.3 112.1L179.3 112.1L178.82 112.1z" stroke="none" fill="#000000" fill-rule="evenodd" /><path transform="matrix(1 0 0 -1 0 841)" d="M179.3 111.62L236.924 111.62L236.924 111.62L236.924 112.1L236.924 112.1L179.3 112.1z" stroke="none" fill="#000000" fill-rule="evenodd" /><path transform="matrix(1 0 0 -1 0 841)" d="M236.93 111.62L237.41 111.62L237.41 111.62L237.41 112.1L237.41 112.1L236.93 112.1z" stroke="none" fill="#000000" fill-rule="evenodd" /><path transform="matrix(1 0 0 -1 0 841)" d="M237.41 111.62L280.73 111.62L280.73 111.62L280.73 112.1L280.73 112.1L237.41 112.1z" stroke="none" fill="#000000" fill-rule="evenodd" /><path transform="matrix(1 0 0 -1 0 841)" d="M280.73 111.62L281.21 111.62L281.21 111.62L281.21 112.1L281.21 112.1L280.73 112.1z" stroke="none" fill="#000000" fill-rule="evenodd" /><path transform="matrix(1 0 0 -1 0 841)" d="M281.21 111.62L401.95 111.62L401.95 111.62L401.95 112.1L401.95 112.1L281.21 112.1z" stroke="none" fill="#000000" fill-rule="evenodd" /><path transform="matrix(1 0 0 -1 0 841)" d="M401.95 111.62L402.43 111.62L402.43 111.62L402.43 112.1L402.43 112.1L401.95 112.1z" stroke="none" fill="#000000" fill-rule="evenodd" /><path transform="matrix(1 0 0 -1 0 841)" d="M402.43 111.62L510.69 111.62L510.69 111.62L510.69 112.1L510.69 112.1L402.43 112.1z" stroke="none" fill="#000000" fill-rule="evenodd" /><path transform="matrix(1 0 0 -1 0 841)" d="M510.7 111.62L511.18 111.62L511.18 111.62L511.18 112.1L511.18 112.1L510.7 112.1z" stroke="none" fill="#000000" fill-rule="evenodd" /><path transform="matrix(1 0 0 -1 0 841)" d="M84.264 92.424L84.744 92.424L84.744 92.424L84.744 111.624L84.744 111.624L84.264 111.624z" stroke="none" fill="#000000" fill-rule="evenodd" /><path transform="matrix(1 0 0 -1 0 841)" d="M84.264 91.944L84.744 91.944L84.744 91.944L84.744 92.42398L84.744 92.42398L84.264 92.42398z" stroke="none" fill="#000000" fill-rule="evenodd" /><path transform="matrix(1 0 0 -1 0 841)" d="M84.264 91.944L84.744 91.944L84.744 91.944L84.744 92.42398L84.744 92.42398L84.264 92.42398z" stroke="none" fill="#000000" fill-rule="evenodd" /><path transform="matrix(1 0 0 -1 0 841)" d="M84.744 91.944L178.824 91.944L178.824 91.944L178.824 92.42398L178.824 92.42398L84.744 92.42398z" stroke="none" fill="#000000" fill-rule="evenodd" /><path transform="matrix(1 0 0 -1 0 841)" d="M178.82 92.424L179.3 92.424L179.3 92.424L179.3 111.624L179.3 111.624L178.82 111.624z" stroke="none" fill="#000000" fill-rule="evenodd" /><path transform="matrix(1 0 0 -1 0 841)" d="M178.82 91.944L179.3 91.944L179.3 91.944L179.3 92.42398L179.3 92.42398L178.82 92.42398z" stroke="none" fill="#000000" fill-rule="evenodd" /><path transform="matrix(1 0 0 -1 0 841)" d="M179.3 91.944L236.924 91.944L236.924 91.944L236.924 92.42398L236.924 92.42398L179.3 92.42398z" stroke="none" fill="#000000" fill-rule="evenodd" /><path transform="matrix(1 0 0 -1 0 841)" d="M236.93 92.424L237.41 92.424L237.41 92.424L237.41 111.624L237.41 111.624L236.93 111.624z" stroke="none" fill="#000000" fill-rule="evenodd" /><path transform="matrix(1 0 0 -1 0 841)" d="M236.93 91.944L237.41 91.944L237.41 91.944L237.41 92.42398L237.41 92.42398L236.93 92.42398z" stroke="none" fill="#000000" fill-rule="evenodd" /><path transform="matrix(1 0 0 -1 0 841)" d="M237.41 91.944L280.73 91.944L280.73 91.944L280.73 92.42398L280.73 92.42398L237.41 92.42398z" stroke="none" fill="#000000" fill-rule="evenodd" /><path transform="matrix(1 0 0 -1 0 841)" d="M280.73 92.424L281.21 92.424L281.21 92.424L281.21 111.624L281.21 111.624L280.73 111.624z" stroke="none" fill="#000000" fill-rule="evenodd" /><path transform="matrix(1 0 0 -1 0 841)" d="M280.73 91.944L281.21 91.944L281.21 91.944L281.21 92.42398L281.21 92.42398L280.73 92.42398z" stroke="none" fill="#000000" fill-rule="evenodd" /><path transform="matrix(1 0 0 -1 0 841)" d="M281.21 91.944L401.95 91.944L401.95 91.944L401.95 92.42398L401.95 92.42398L281.21 92.42398z" stroke="none" fill="#000000" fill-rule="evenodd" /><path transform="matrix(1 0 0 -1 0 841)" d="M401.95 92.424L402.43 92.424L402.43 92.424L402.43 111.624L402.43 111.624L401.95 111.624z" stroke="none" fill="#000000" fill-rule="evenodd" /><path transform="matrix(1 0 0 -1 0 841)" d="M401.95 91.944L402.43 91.944L402.43 91.944L402.43 92.42398L402.43 92.42398L401.95 92.42398z" stroke="none" fill="#000000" fill-rule="evenodd" /><path transform="matrix(1 0 0 -1 0 841)" d="M402.43 91.944L510.69 91.944L510.69 91.944L510.69 92.42398L510.69 92.42398L402.43 92.42398z" stroke="none" fill="#000000" fill-rule="evenodd" /><path transform="matrix(1 0 0 -1 0 841)" d="M510.7 92.424L511.18 92.424L511.18 92.424L511.18 111.624L511.18 111.624L510.7 111.624z" stroke="none" fill="#000000" fill-rule="evenodd" /><path transform="matrix(1 0 0 -1 0 841)" d="M510.7 91.944L511.18 91.944L511.18 91.944L511.18 92.42398L511.18 92.42398L510.7 92.42398z" stroke="none" fill="#000000" fill-rule="evenodd" /><path transform="matrix(1 0 0 -1 0 841)" d="M510.7 91.944L511.18 91.944L511.18 91.944L511.18 92.42398L511.18 92.42398L510.7 92.42398z" stroke="none" fill="#000000" fill-rule="evenodd" /></g></g></g></svg>