<svg xmlns="http://www.w3.org/2000/svg" xmlns:xlink="http://www.w3.org/1999/xlink" id="body_137" preserveAspectRatio="xMinYMin meet" viewBox="0 0 793 1121"><defs><clipPath id="1"><path d="M0 841L0 -0.9199829L0 -0.9199829L595.32 -0.9199829L595.32 -0.9199829L595.32 841L595.32 841L0 841z" /></clipPath><clipPath id="2"><path d="M0.00125 841.0914L595.4112 841.0914L595.4112 841.0914L595.4112 -0.9186401L595.4112 -0.9186401L0.00125 -0.9186401z" /></clipPath><clipPath id="3"><path d="M288.05 781.211L316.01 781.211L316.01 781.211L316.01 762.011L316.01 762.011L288.05 762.011z" /></clipPath><clipPath id="4"><path d="M288.05 781.216L316.01 781.216L316.01 781.216L316.01 762.016L316.01 762.016L288.05 762.016z" /></clipPath><clipPath id="5"><path d="M288.05 781.216L316.01 781.216L316.01 781.216L316.01 762.016L316.01 762.016L288.05 762.016z" /></clipPath><clipPath id="6"><path d="M84.751 279.91L502.531 279.91L502.531 279.91L502.531 89.43994L502.531 89.43994L84.751 89.43994z" /></clipPath><clipPath id="7"><path d="M84.744 279.9L502.534 279.9L502.534 279.9L502.534 89.44L502.534 89.44L84.744 89.44z" /></clipPath><clipPath id="8"><path d="M84.744 279.9L502.534 279.9L502.534 279.9L502.534 89.44L502.534 89.44L84.744 89.44z" /></clipPath><clipPath id="9"><path d="M84.744 279.9L502.534 279.9L502.534 279.9L502.534 89.44L502.534 89.44L84.744 89.44z" /></clipPath><clipPath id="10"><path d="M84.744 279.9L502.534 279.9L502.534 279.9L502.534 89.44L502.534 89.44L84.744 89.44z" /></clipPath><clipPath id="11"><path d="M84.744 279.9L502.534 279.9L502.534 279.9L502.534 89.44L502.534 89.44L84.744 89.44z" /></clipPath><clipPath id="12"><path d="M84.744 279.9L502.534 279.9L502.534 279.9L502.534 89.44L502.534 89.44L84.744 89.44z" /></clipPath><clipPath id="13"><path d="M84.744 279.9L502.534 279.9L502.534 279.9L502.534 89.44L502.534 89.44L84.744 89.44z" /></clipPath><clipPath id="14"><path d="M84.744 279.9L502.534 279.9L502.534 279.9L502.534 89.44L502.534 89.44L84.744 89.44z" /></clipPath><clipPath id="15"><path d="M84.744 279.9L502.534 279.9L502.534 279.9L502.534 89.44L502.534 89.44L84.744 89.44z" /></clipPath><clipPath id="16"><path d="M84.744 279.9L502.534 279.9L502.534 279.9L502.534 89.44L502.534 89.44L84.744 89.44z" /></clipPath><clipPath id="17"><path d="M84.744 279.9L502.534 279.9L502.534 279.9L502.534 89.44L502.534 89.44L84.744 89.44z" /></clipPath><clipPath id="18"><path d="M84.744 279.9L502.534 279.9L502.534 279.9L502.534 89.44L502.534 89.44L84.744 89.44z" /></clipPath><clipPath id="19"><path d="M84.744 279.9L502.534 279.9L502.534 279.9L502.534 89.44L502.534 89.44L84.744 89.44z" /></clipPath><clipPath id="20"><path d="M84.744 279.9L502.534 279.9L502.534 279.9L502.534 89.44L502.534 89.44L84.744 89.44z" /></clipPath><clipPath id="21"><path d="M84.744 279.9L502.534 279.9L502.534 279.9L502.534 89.44L502.534 89.44L84.744 89.44z" /></clipPath><clipPath id="22"><path d="M84.744 279.9L502.534 279.9L502.534 279.9L502.534 89.44L502.534 89.44L84.744 89.44z" /></clipPath><clipPath id="23"><path d="M84.744 279.9L502.534 279.9L502.534 279.9L502.534 89.44L502.534 89.44L84.744 89.44z" /></clipPath><clipPath id="24"><path d="M84.744 279.9L502.534 279.9L502.534 279.9L502.534 89.44L502.534 89.44L84.744 89.44z" /></clipPath><clipPath id="25"><path d="M84.744 279.9L502.534 279.9L502.534 279.9L502.534 89.44L502.534 89.44L84.744 89.44z" /></clipPath><clipPath id="26"><path d="M84.744 279.9L502.534 279.9L502.534 279.9L502.534 89.44L502.534 89.44L84.744 89.44z" /></clipPath><clipPath id="27"><path d="M84.744 279.9L502.534 279.9L502.534 279.9L502.534 89.44L502.534 89.44L84.744 89.44z" /></clipPath><clipPath id="28"><path d="M84.744 279.9L502.534 279.9L502.534 279.9L502.534 89.44L502.534 89.44L84.744 89.44z" /></clipPath><clipPath id="29"><path d="M84.744 279.9L502.534 279.9L502.534 279.9L502.534 89.44L502.534 89.44L84.744 89.44z" /></clipPath><clipPath id="30"><path d="M84.744 279.9L502.534 279.9L502.534 279.9L502.534 89.44L502.534 89.44L84.744 89.44z" /></clipPath><clipPath id="31"><path d="M84.744 279.9L502.534 279.9L502.534 279.9L502.534 89.44L502.534 89.44L84.744 89.44z" /></clipPath><clipPath id="32"><path d="M84.744 279.9L502.534 279.9L502.534 279.9L502.534 89.44L502.534 89.44L84.744 89.44z" /></clipPath><clipPath id="33"><path d="M84.744 279.9L502.534 279.9L502.534 279.9L502.534 89.44L502.534 89.44L84.744 89.44z" /></clipPath><clipPath id="34"><path d="M84.744 279.9L502.534 279.9L502.534 279.9L502.534 89.44L502.534 89.44L84.744 89.44z" /></clipPath></defs><g transform="matrix(1.333333 0 0 1.333333 0 0)"><g><g clip-path="url(#1)"><path transform="matrix(1 0 0 -1 0 841)" d="M457.51 53.304L505.534 53.304L505.534 53.304L505.534 53.90404L505.534 53.90404L457.51 53.90404z" stroke="none" fill="#000000" fill-rule="evenodd" /><g clip-path="url(#2)"><path transform="matrix(1 0 0 -1 0 841)" d="M88.464 77.904L506.974 77.904L506.974 77.904L506.974 80.904L506.974 80.904L88.464 80.904z" stroke="none" fill="#000000" fill-rule="evenodd" /><path transform="matrix(1 0 0 -1 0 841)" d="M88.464 76.464L506.974 76.464L506.974 76.464L506.974 77.18397L506.974 77.18397L88.464 77.18397z" stroke="none" fill="#000000" fill-rule="evenodd" /></g><g clip-path="url(#3)"><g clip-path="url(#4)"></g><g clip-path="url(#5)"></g></g><path transform="matrix(1 0 0 -1 0 841)" d="M84.744 561.1L502.534 561.1L502.534 561.1L502.534 751.56L502.534 751.56L84.744 751.56z" stroke="none" fill="#DAEEF3" fill-rule="evenodd" /><g clip-path="url(#6)"><path transform="matrix(1 0 0 -1 0 841)" d="M89.904 732.46L497.374 732.46L497.374 732.46L497.374 751.564L497.374 751.564L89.904 751.564z" stroke="none" fill="#DAEEF3" fill-rule="evenodd" /><g clip-path="url(#7)"></g><g clip-path="url(#8)"></g><path transform="matrix(1 0 0 -1 0 841)" d="M89.904 713.5L497.374 713.5L497.374 713.5L497.374 732.46L497.374 732.46L89.904 732.46z" stroke="none" fill="#DAEEF3" fill-rule="evenodd" /><g clip-path="url(#9)"></g><g clip-path="url(#10)"></g><g clip-path="url(#11)"></g><g clip-path="url(#12)"></g><g clip-path="url(#13)"></g><path transform="matrix(1 0 0 -1 0 841)" d="M89.904 694.42L497.374 694.42L497.374 694.42L497.374 713.5L497.374 713.5L89.904 713.5z" stroke="none" fill="#DAEEF3" fill-rule="evenodd" /><g clip-path="url(#14)"></g><g clip-path="url(#15)"></g><path transform="matrix(1 0 0 -1 0 841)" d="M89.904 675.34L497.374 675.34L497.374 675.34L497.374 694.42L497.374 694.42L89.904 694.42z" stroke="none" fill="#DAEEF3" fill-rule="evenodd" /><g clip-path="url(#16)"></g><g clip-path="url(#17)"></g><path transform="matrix(1 0 0 -1 0 841)" d="M89.904 656.26L497.374 656.26L497.374 656.26L497.374 675.34L497.374 675.34L89.904 675.34z" stroke="none" fill="#DAEEF3" fill-rule="evenodd" /><g clip-path="url(#18)"></g><g clip-path="url(#19)"></g><path transform="matrix(1 0 0 -1 0 841)" d="M89.904 637.3L497.374 637.3L497.374 637.3L497.374 656.26L497.374 656.26L89.904 656.26z" stroke="none" fill="#DAEEF3" fill-rule="evenodd" /><g clip-path="url(#20)"></g><g clip-path="url(#21)"></g><g clip-path="url(#22)"></g><g clip-path="url(#23)"></g><g clip-path="url(#24)"></g><path transform="matrix(1 0 0 -1 0 841)" d="M89.904 618.22L497.374 618.22L497.374 618.22L497.374 637.3L497.374 637.3L89.904 637.3z" stroke="none" fill="#DAEEF3" fill-rule="evenodd" /><g clip-path="url(#25)"></g><g clip-path="url(#26)"></g><g clip-path="url(#27)"></g><path transform="matrix(1 0 0 -1 0 841)" d="M89.904 599.14L497.374 599.14L497.374 599.14L497.374 618.22L497.374 618.22L89.904 618.22z" stroke="none" fill="#DAEEF3" fill-rule="evenodd" /><g clip-path="url(#28)"></g><g clip-path="url(#29)"></g><path transform="matrix(1 0 0 -1 0 841)" d="M89.904 580.06L497.374 580.06L497.374 580.06L497.374 599.14L497.374 599.14L89.904 599.14z" stroke="none" fill="#DAEEF3" fill-rule="evenodd" /><g clip-path="url(#30)"></g><g clip-path="url(#31)"></g><g clip-path="url(#32)"></g><path transform="matrix(1 0 0 -1 0 841)" d="M89.904 561.1L497.374 561.1L497.374 561.1L497.374 580.06L497.374 580.06L89.904 580.06z" stroke="none" fill="#DAEEF3" fill-rule="evenodd" /><g clip-path="url(#33)"></g><g clip-path="url(#34)"></g></g><path transform="matrix(1 0 0 -1 0 841)" d="M84.264 751.56L84.744 751.56L84.744 751.56L84.744 752.04L84.744 752.04L84.264 752.04z" stroke="none" fill="#000000" fill-rule="evenodd" /><path transform="matrix(1 0 0 -1 0 841)" d="M84.264 751.56L84.744 751.56L84.744 751.56L84.744 752.04L84.744 752.04L84.264 752.04z" stroke="none" fill="#000000" fill-rule="evenodd" /><path transform="matrix(1 0 0 -1 0 841)" d="M84.744 751.56L502.534 751.56L502.534 751.56L502.534 752.04L502.534 752.04L84.744 752.04z" stroke="none" fill="#000000" fill-rule="evenodd" /><path transform="matrix(1 0 0 -1 0 841)" d="M502.54 751.56L503.02 751.56L503.02 751.56L503.02 752.04L503.02 752.04L502.54 752.04z" stroke="none" fill="#000000" fill-rule="evenodd" /><path transform="matrix(1 0 0 -1 0 841)" d="M502.54 751.56L503.02 751.56L503.02 751.56L503.02 752.04L503.02 752.04L502.54 752.04z" stroke="none" fill="#000000" fill-rule="evenodd" /><path transform="matrix(1 0 0 -1 0 841)" d="M84.264 560.98L84.744 560.98L84.744 560.98L84.744 751.56L84.744 751.56L84.264 751.56z" stroke="none" fill="#000000" fill-rule="evenodd" /><path transform="matrix(1 0 0 -1 0 841)" d="M84.264 560.5L84.744 560.5L84.744 560.5L84.744 560.98L84.744 560.98L84.264 560.98z" stroke="none" fill="#000000" fill-rule="evenodd" /><path transform="matrix(1 0 0 -1 0 841)" d="M84.264 560.5L84.744 560.5L84.744 560.5L84.744 560.98L84.744 560.98L84.264 560.98z" stroke="none" fill="#000000" fill-rule="evenodd" /><path transform="matrix(1 0 0 -1 0 841)" d="M84.744 560.5L502.534 560.5L502.534 560.5L502.534 560.98L502.534 560.98L84.744 560.98z" stroke="none" fill="#000000" fill-rule="evenodd" /><path transform="matrix(1 0 0 -1 0 841)" d="M502.54 560.98L503.02 560.98L503.02 560.98L503.02 751.56L503.02 751.56L502.54 751.56z" stroke="none" fill="#000000" fill-rule="evenodd" /><path transform="matrix(1 0 0 -1 0 841)" d="M502.54 560.5L503.02 560.5L503.02 560.5L503.02 560.98L503.02 560.98L502.54 560.98z" stroke="none" fill="#000000" fill-rule="evenodd" /><path transform="matrix(1 0 0 -1 0 841)" d="M502.54 560.5L503.02 560.5L503.02 560.5L503.02 560.98L503.02 560.98L502.54 560.98z" stroke="none" fill="#000000" fill-rule="evenodd" /></g></g></g></svg>