<svg xmlns="http://www.w3.org/2000/svg" xmlns:xlink="http://www.w3.org/1999/xlink" id="body_130" preserveAspectRatio="xMinYMin meet" viewBox="0 0 793 1121"><defs><clipPath id="1"><path d="M0 841L0 -0.9199829L0 -0.9199829L595.32 -0.9199829L595.32 -0.9199829L595.32 841L595.32 841L0 841z" /></clipPath><clipPath id="2"><path d="M0.00125 841.0914L595.4112 841.0914L595.4112 841.0914L595.4112 -0.9186401L595.4112 -0.9186401L0.00125 -0.9186401z" /></clipPath><clipPath id="3"><path d="M288.05 781.211L316.01 781.211L316.01 781.211L316.01 762.011L316.01 762.011L288.05 762.011z" /></clipPath><clipPath id="4"><path d="M288.05 781.216L316.01 781.216L316.01 781.216L316.01 762.016L316.01 762.016L288.05 762.016z" /></clipPath><clipPath id="5"><path d="M288.05 781.216L316.01 781.216L316.01 781.216L316.01 762.016L316.01 762.016L288.05 762.016z" /></clipPath><clipPath id="6"><path d="M84.751 279.91L502.531 279.91L502.531 279.91L502.531 89.43994L502.531 89.43994L84.751 89.43994z" /></clipPath><clipPath id="7"><path d="M84.744 279.9L502.534 279.9L502.534 279.9L502.534 89.44L502.534 89.44L84.744 89.44z" /></clipPath><clipPath id="8"><path d="M84.744 279.9L502.534 279.9L502.534 279.9L502.534 89.44L502.534 89.44L84.744 89.44z" /></clipPath><clipPath id="9"><path d="M84.744 279.9L502.534 279.9L502.534 279.9L502.534 89.44L502.534 89.44L84.744 89.44z" /></clipPath><clipPath id="10"><path d="M84.744 279.9L502.534 279.9L502.534 279.9L502.534 89.44L502.534 89.44L84.744 89.44z" /></clipPath><clipPath id="11"><path d="M84.744 279.9L502.534 279.9L502.534 279.9L502.534 89.44L502.534 89.44L84.744 89.44z" /></clipPath><clipPath id="12"><path d="M84.744 279.9L502.534 279.9L502.534 279.9L502.534 89.44L502.534 89.44L84.744 89.44z" /></clipPath><clipPath id="13"><path d="M84.744 279.9L502.534 279.9L502.534 279.9L502.534 89.44L502.534 89.44L84.744 89.44z" /></clipPath><clipPath id="14"><path d="M84.744 279.9L502.534 279.9L502.534 279.9L502.534 89.44L502.534 89.44L84.744 89.44z" /></clipPath><clipPath id="15"><path d="M84.744 279.9L502.534 279.9L502.534 279.9L502.534 89.44L502.534 89.44L84.744 89.44z" /></clipPath><clipPath id="16"><path d="M84.744 279.9L502.534 279.9L502.534 279.9L502.534 89.44L502.534 89.44L84.744 89.44z" /></clipPath><clipPath id="17"><path d="M84.744 279.9L502.534 279.9L502.534 279.9L502.534 89.44L502.534 89.44L84.744 89.44z" /></clipPath><clipPath id="18"><path d="M84.744 279.9L502.534 279.9L502.534 279.9L502.534 89.44L502.534 89.44L84.744 89.44z" /></clipPath><clipPath id="19"><path d="M84.744 279.9L502.534 279.9L502.534 279.9L502.534 89.44L502.534 89.44L84.744 89.44z" /></clipPath><clipPath id="20"><path d="M84.744 279.9L502.534 279.9L502.534 279.9L502.534 89.44L502.534 89.44L84.744 89.44z" /></clipPath><clipPath id="21"><path d="M84.744 279.9L502.534 279.9L502.534 279.9L502.534 89.44L502.534 89.44L84.744 89.44z" /></clipPath><clipPath id="22"><path d="M84.744 279.9L502.534 279.9L502.534 279.9L502.534 89.44L502.534 89.44L84.744 89.44z" /></clipPath><clipPath id="23"><path d="M84.744 279.9L502.534 279.9L502.534 279.9L502.534 89.44L502.534 89.44L84.744 89.44z" /></clipPath><clipPath id="24"><path d="M84.744 279.9L502.534 279.9L502.534 279.9L502.534 89.44L502.534 89.44L84.744 89.44z" /></clipPath><clipPath id="25"><path d="M84.744 279.9L502.534 279.9L502.534 279.9L502.534 89.44L502.534 89.44L84.744 89.44z" /></clipPath><clipPath id="26"><path d="M84.744 279.9L502.534 279.9L502.534 279.9L502.534 89.44L502.534 89.44L84.744 89.44z" /></clipPath><clipPath id="27"><path d="M84.744 279.9L502.534 279.9L502.534 279.9L502.534 89.44L502.534 89.44L84.744 89.44z" /></clipPath><clipPath id="28"><path d="M84.744 279.9L502.534 279.9L502.534 279.9L502.534 89.44L502.534 89.44L84.744 89.44z" /></clipPath><clipPath id="29"><path d="M84.744 279.9L502.534 279.9L502.534 279.9L502.534 89.44L502.534 89.44L84.744 89.44z" /></clipPath><clipPath id="30"><path d="M84.744 279.9L502.534 279.9L502.534 279.9L502.534 89.44L502.534 89.44L84.744 89.44z" /></clipPath><clipPath id="31"><path d="M84.744 279.9L502.534 279.9L502.534 279.9L502.534 89.44L502.534 89.44L84.744 89.44z" /></clipPath><clipPath id="32"><path d="M84.744 279.9L502.534 279.9L502.534 279.9L502.534 89.44L502.534 89.44L84.744 89.44z" /></clipPath><clipPath id="33"><path d="M84.744 279.9L502.534 279.9L502.534 279.9L502.534 89.44L502.534 89.44L84.744 89.44z" /></clipPath><clipPath id="34"><path d="M84.744 279.9L502.534 279.9L502.534 279.9L502.534 89.44L502.534 89.44L84.744 89.44z" /></clipPath><clipPath id="35"><path d="M84.744 279.9L502.534 279.9L502.534 279.9L502.534 89.44L502.534 89.44L84.744 89.44z" /></clipPath><clipPath id="36"><path d="M84.744 279.9L502.534 279.9L502.534 279.9L502.534 89.44L502.534 89.44L84.744 89.44z" /></clipPath><clipPath id="37"><path d="M84.744 279.9L502.534 279.9L502.534 279.9L502.534 89.44L502.534 89.44L84.744 89.44z" /></clipPath><clipPath id="38"><path d="M84.744 279.9L502.534 279.9L502.534 279.9L502.534 89.44L502.534 89.44L84.744 89.44z" /></clipPath><clipPath id="39"><path d="M84.744 279.9L502.534 279.9L502.534 279.9L502.534 89.44L502.534 89.44L84.744 89.44z" /></clipPath><clipPath id="40"><path d="M84.744 279.9L502.534 279.9L502.534 279.9L502.534 89.44L502.534 89.44L84.744 89.44z" /></clipPath><clipPath id="41"><path d="M84.744 279.9L502.534 279.9L502.534 279.9L502.534 89.44L502.534 89.44L84.744 89.44z" /></clipPath><clipPath id="42"><path d="M84.751 400.41L168.991 400.41L168.991 400.41L168.991 381.33L168.991 381.33L84.751 381.33z" /></clipPath><clipPath id="43"><path d="M84.744 400.41L168.984 400.41L168.984 400.41L168.984 381.33L168.984 381.33L84.744 381.33z" /></clipPath><clipPath id="44"><path d="M84.744 400.41L168.984 400.41L168.984 400.41L168.984 381.33L168.984 381.33L84.744 381.33z" /></clipPath><clipPath id="45"><path d="M169.59 400.41L232.845 400.41L232.845 400.41L232.845 381.33L232.845 381.33L169.59 381.33z" /></clipPath><clipPath id="46"><path d="M169.58 400.41L232.844 400.41L232.844 400.41L232.844 381.33L232.844 381.33L169.58 381.33z" /></clipPath><clipPath id="47"><path d="M169.58 400.41L232.844 400.41L232.844 400.41L232.844 381.33L232.844 381.33L169.58 381.33z" /></clipPath><clipPath id="48"><path d="M233.33 400.41L275.45 400.41L275.45 400.41L275.45 381.33L275.45 381.33L233.33 381.33z" /></clipPath><clipPath id="49"><path d="M233.33 400.41L275.45 400.41L275.45 400.41L275.45 381.33L275.45 381.33L233.33 381.33z" /></clipPath><clipPath id="50"><path d="M233.33 400.41L275.45 400.41L275.45 400.41L275.45 381.33L275.45 381.33L233.33 381.33z" /></clipPath><clipPath id="51"><path d="M275.93 400.41L381.68 400.41L381.68 400.41L381.68 381.33L381.68 381.33L275.93 381.33z" /></clipPath><clipPath id="52"><path d="M275.93 400.41L381.67 400.41L381.67 400.41L381.67 381.33L381.67 381.33L275.93 381.33z" /></clipPath><clipPath id="53"><path d="M275.93 400.41L381.67 400.41L381.67 400.41L381.67 381.33L381.67 381.33L275.93 381.33z" /></clipPath><clipPath id="54"><path d="M382.28 400.41L514.78 400.41L514.78 400.41L514.78 381.33L514.78 381.33L382.28 381.33z" /></clipPath><clipPath id="55"><path d="M382.27 400.41L514.77 400.41L514.77 400.41L514.77 381.33L514.77 381.33L382.27 381.33z" /></clipPath><clipPath id="56"><path d="M382.27 400.41L514.77 400.41L514.77 400.41L514.77 381.33L514.77 381.33L382.27 381.33z" /></clipPath><clipPath id="57"><path d="M84.751 449.01L168.991 449.01L168.991 449.01L168.991 400.89L168.991 400.89L84.751 400.89z" /></clipPath><clipPath id="58"><path d="M84.744 449.01L168.984 449.01L168.984 449.01L168.984 400.89L168.984 400.89L84.744 400.89z" /></clipPath><clipPath id="59"><path d="M84.744 449.01L168.984 449.01L168.984 449.01L168.984 400.89L168.984 400.89L84.744 400.89z" /></clipPath><clipPath id="60"><path d="M169.59 449.01L232.845 449.01L232.845 449.01L232.845 400.89L232.845 400.89L169.59 400.89z" /></clipPath><clipPath id="61"><path d="M169.58 449.01L232.844 449.01L232.844 449.01L232.844 400.89L232.844 400.89L169.58 400.89z" /></clipPath><clipPath id="62"><path d="M169.58 449.01L232.844 449.01L232.844 449.01L232.844 400.89L232.844 400.89L169.58 400.89z" /></clipPath><clipPath id="63"><path d="M233.33 449.01L275.45 449.01L275.45 449.01L275.45 400.89L275.45 400.89L233.33 400.89z" /></clipPath><clipPath id="64"><path d="M233.33 449.01L275.45 449.01L275.45 449.01L275.45 400.89L275.45 400.89L233.33 400.89z" /></clipPath><clipPath id="65"><path d="M233.33 449.01L275.45 449.01L275.45 449.01L275.45 400.89L275.45 400.89L233.33 400.89z" /></clipPath><clipPath id="66"><path d="M275.93 449.01L381.68 449.01L381.68 449.01L381.68 400.89L381.68 400.89L275.93 400.89z" /></clipPath><clipPath id="67"><path d="M275.93 449.01L381.67 449.01L381.67 449.01L381.67 400.89L381.67 400.89L275.93 400.89z" /></clipPath><clipPath id="68"><path d="M275.93 449.01L381.67 449.01L381.67 449.01L381.67 400.89L381.67 400.89L275.93 400.89z" /></clipPath><clipPath id="69"><path d="M275.93 449.01L381.67 449.01L381.67 449.01L381.67 400.89L381.67 400.89L275.93 400.89z" /></clipPath><clipPath id="70"><path d="M382.28 449.01L514.78 449.01L514.78 449.01L514.78 400.89L514.78 400.89L382.28 400.89z" /></clipPath><clipPath id="71"><path d="M382.27 449.01L514.77 449.01L514.77 449.01L514.77 400.89L514.77 400.89L382.27 400.89z" /></clipPath><clipPath id="72"><path d="M382.27 449.01L514.77 449.01L514.77 449.01L514.77 400.89L514.77 400.89L382.27 400.89z" /></clipPath><clipPath id="73"><path d="M382.27 449.01L514.77 449.01L514.77 449.01L514.77 400.89L514.77 400.89L382.27 400.89z" /></clipPath><clipPath id="74"><path d="M382.27 449.01L514.77 449.01L514.77 449.01L514.77 400.89L514.77 400.89L382.27 400.89z" /></clipPath><clipPath id="75"><path d="M382.27 449.01L514.77 449.01L514.77 449.01L514.77 400.89L514.77 400.89L382.27 400.89z" /></clipPath><clipPath id="76"><path d="M382.27 449.01L514.77 449.01L514.77 449.01L514.77 400.89L514.77 400.89L382.27 400.89z" /></clipPath><clipPath id="77"><path d="M382.27 449.01L514.77 449.01L514.77 449.01L514.77 400.89L514.77 400.89L382.27 400.89z" /></clipPath><clipPath id="78"><path d="M84.751 478.56L168.991 478.56L168.991 478.56L168.991 449.49L168.991 449.49L84.751 449.49z" /></clipPath><clipPath id="79"><path d="M84.744 478.55L168.984 478.55L168.984 478.55L168.984 449.486L168.984 449.486L84.744 449.486z" /></clipPath><clipPath id="80"><path d="M84.744 478.55L168.984 478.55L168.984 478.55L168.984 449.486L168.984 449.486L84.744 449.486z" /></clipPath><clipPath id="81"><path d="M169.59 478.56L232.845 478.56L232.845 478.56L232.845 449.49L232.845 449.49L169.59 449.49z" /></clipPath><clipPath id="82"><path d="M169.58 478.55L232.844 478.55L232.844 478.55L232.844 449.486L232.844 449.486L169.58 449.486z" /></clipPath><clipPath id="83"><path d="M169.58 478.55L232.844 478.55L232.844 478.55L232.844 449.486L232.844 449.486L169.58 449.486z" /></clipPath><clipPath id="84"><path d="M233.33 478.56L275.45 478.56L275.45 478.56L275.45 449.49L275.45 449.49L233.33 449.49z" /></clipPath><clipPath id="85"><path d="M233.33 478.55L275.45 478.55L275.45 478.55L275.45 449.486L275.45 449.486L233.33 449.486z" /></clipPath><clipPath id="86"><path d="M233.33 478.55L275.45 478.55L275.45 478.55L275.45 449.486L275.45 449.486L233.33 449.486z" /></clipPath><clipPath id="87"><path d="M275.93 478.56L381.68 478.56L381.68 478.56L381.68 449.49L381.68 449.49L275.93 449.49z" /></clipPath><clipPath id="88"><path d="M275.93 478.55L381.67 478.55L381.67 478.55L381.67 449.486L381.67 449.486L275.93 449.486z" /></clipPath><clipPath id="89"><path d="M275.93 478.55L381.67 478.55L381.67 478.55L381.67 449.486L381.67 449.486L275.93 449.486z" /></clipPath><clipPath id="90"><path d="M382.28 478.56L514.78 478.56L514.78 478.56L514.78 449.49L514.78 449.49L382.28 449.49z" /></clipPath><clipPath id="91"><path d="M382.27 478.55L514.77 478.55L514.77 478.55L514.77 449.486L514.77 449.486L382.27 449.486z" /></clipPath><clipPath id="92"><path d="M382.27 478.55L514.77 478.55L514.77 478.55L514.77 449.486L514.77 449.486L382.27 449.486z" /></clipPath><clipPath id="93"><path d="M84.751 508.08L168.991 508.08L168.991 508.08L168.991 479.04L168.991 479.04L84.751 479.04z" /></clipPath><clipPath id="94"><path d="M84.744 508.07L168.984 508.07L168.984 508.07L168.984 479.03L168.984 479.03L84.744 479.03z" /></clipPath><clipPath id="95"><path d="M84.744 508.07L168.984 508.07L168.984 508.07L168.984 479.03L168.984 479.03L84.744 479.03z" /></clipPath><clipPath id="96"><path d="M169.59 508.08L232.845 508.08L232.845 508.08L232.845 479.04L232.845 479.04L169.59 479.04z" /></clipPath><clipPath id="97"><path d="M169.58 508.07L232.844 508.07L232.844 508.07L232.844 479.03L232.844 479.03L169.58 479.03z" /></clipPath><clipPath id="98"><path d="M169.58 508.07L232.844 508.07L232.844 508.07L232.844 479.03L232.844 479.03L169.58 479.03z" /></clipPath><clipPath id="99"><path d="M233.33 508.08L275.45 508.08L275.45 508.08L275.45 479.04L275.45 479.04L233.33 479.04z" /></clipPath><clipPath id="100"><path d="M233.33 508.07L275.45 508.07L275.45 508.07L275.45 479.03L275.45 479.03L233.33 479.03z" /></clipPath><clipPath id="101"><path d="M233.33 508.07L275.45 508.07L275.45 508.07L275.45 479.03L275.45 479.03L233.33 479.03z" /></clipPath><clipPath id="102"><path d="M275.93 508.08L381.68 508.08L381.68 508.08L381.68 479.04L381.68 479.04L275.93 479.04z" /></clipPath><clipPath id="103"><path d="M275.93 508.07L381.67 508.07L381.67 508.07L381.67 479.03L381.67 479.03L275.93 479.03z" /></clipPath><clipPath id="104"><path d="M275.93 508.07L381.67 508.07L381.67 508.07L381.67 479.03L381.67 479.03L275.93 479.03z" /></clipPath><clipPath id="105"><path d="M382.28 508.08L514.78 508.08L514.78 508.08L514.78 479.04L514.78 479.04L382.28 479.04z" /></clipPath><clipPath id="106"><path d="M382.27 508.07L514.77 508.07L514.77 508.07L514.77 479.03L514.77 479.03L382.27 479.03z" /></clipPath><clipPath id="107"><path d="M382.27 508.07L514.77 508.07L514.77 508.07L514.77 479.03L514.77 479.03L382.27 479.03z" /></clipPath><clipPath id="108"><path d="M84.751 565.8L168.991 565.8L168.991 565.8L168.991 508.56L168.991 508.56L84.751 508.56z" /></clipPath><clipPath id="109"><path d="M84.744 565.79L168.984 565.79L168.984 565.79L168.984 508.55L168.984 508.55L84.744 508.55z" /></clipPath><clipPath id="110"><path d="M84.744 565.79L168.984 565.79L168.984 565.79L168.984 508.55L168.984 508.55L84.744 508.55z" /></clipPath><clipPath id="111"><path d="M169.59 565.8L232.845 565.8L232.845 565.8L232.845 508.56L232.845 508.56L169.59 508.56z" /></clipPath><clipPath id="112"><path d="M169.58 565.79L232.844 565.79L232.844 565.79L232.844 508.55L232.844 508.55L169.58 508.55z" /></clipPath><clipPath id="113"><path d="M169.58 565.79L232.844 565.79L232.844 565.79L232.844 508.55L232.844 508.55L169.58 508.55z" /></clipPath><clipPath id="114"><path d="M233.33 565.8L275.45 565.8L275.45 565.8L275.45 508.56L275.45 508.56L233.33 508.56z" /></clipPath><clipPath id="115"><path d="M233.33 565.79L275.45 565.79L275.45 565.79L275.45 508.55L275.45 508.55L233.33 508.55z" /></clipPath><clipPath id="116"><path d="M233.33 565.79L275.45 565.79L275.45 565.79L275.45 508.55L275.45 508.55L233.33 508.55z" /></clipPath><clipPath id="117"><path d="M275.93 565.8L381.68 565.8L381.68 565.8L381.68 508.56L381.68 508.56L275.93 508.56z" /></clipPath><clipPath id="118"><path d="M275.93 565.79L381.67 565.79L381.67 565.79L381.67 508.55L381.67 508.55L275.93 508.55z" /></clipPath><clipPath id="119"><path d="M275.93 565.79L381.67 565.79L381.67 565.79L381.67 508.55L381.67 508.55L275.93 508.55z" /></clipPath><clipPath id="120"><path d="M382.28 565.8L514.78 565.8L514.78 565.8L514.78 508.56L514.78 508.56L382.28 508.56z" /></clipPath><clipPath id="121"><path d="M382.27 565.79L514.77 565.79L514.77 565.79L514.77 508.55L514.77 508.55L382.27 508.55z" /></clipPath><clipPath id="122"><path d="M382.27 565.79L514.77 565.79L514.77 565.79L514.77 508.55L514.77 508.55L382.27 508.55z" /></clipPath><clipPath id="123"><path d="M382.27 565.79L514.77 565.79L514.77 565.79L514.77 508.55L514.77 508.55L382.27 508.55z" /></clipPath><clipPath id="124"><path d="M382.27 565.79L514.77 565.79L514.77 565.79L514.77 508.55L514.77 508.55L382.27 508.55z" /></clipPath><clipPath id="125"><path d="M382.27 565.79L514.77 565.79L514.77 565.79L514.77 508.55L514.77 508.55L382.27 508.55z" /></clipPath><clipPath id="126"><path d="M382.27 565.79L514.77 565.79L514.77 565.79L514.77 508.55L514.77 508.55L382.27 508.55z" /></clipPath><clipPath id="127"><path d="M382.27 565.79L514.77 565.79L514.77 565.79L514.77 508.55L514.77 508.55L382.27 508.55z" /></clipPath><clipPath id="128"><path d="M84.751 595.32L168.991 595.32L168.991 595.32L168.991 566.28L168.991 566.28L84.751 566.28z" /></clipPath><clipPath id="129"><path d="M84.744 595.31L168.984 595.31L168.984 595.31L168.984 566.27L168.984 566.27L84.744 566.27z" /></clipPath><clipPath id="130"><path d="M84.744 595.31L168.984 595.31L168.984 595.31L168.984 566.27L168.984 566.27L84.744 566.27z" /></clipPath><clipPath id="131"><path d="M169.59 595.32L232.845 595.32L232.845 595.32L232.845 566.28L232.845 566.28L169.59 566.28z" /></clipPath><clipPath id="132"><path d="M169.58 595.31L232.844 595.31L232.844 595.31L232.844 566.27L232.844 566.27L169.58 566.27z" /></clipPath><clipPath id="133"><path d="M169.58 595.31L232.844 595.31L232.844 595.31L232.844 566.27L232.844 566.27L169.58 566.27z" /></clipPath><clipPath id="134"><path d="M233.33 595.32L275.45 595.32L275.45 595.32L275.45 566.28L275.45 566.28L233.33 566.28z" /></clipPath><clipPath id="135"><path d="M233.33 595.31L275.45 595.31L275.45 595.31L275.45 566.27L275.45 566.27L233.33 566.27z" /></clipPath><clipPath id="136"><path d="M233.33 595.31L275.45 595.31L275.45 595.31L275.45 566.27L275.45 566.27L233.33 566.27z" /></clipPath><clipPath id="137"><path d="M275.93 595.32L381.68 595.32L381.68 595.32L381.68 566.28L381.68 566.28L275.93 566.28z" /></clipPath><clipPath id="138"><path d="M275.93 595.31L381.67 595.31L381.67 595.31L381.67 566.27L381.67 566.27L275.93 566.27z" /></clipPath><clipPath id="139"><path d="M275.93 595.31L381.67 595.31L381.67 595.31L381.67 566.27L381.67 566.27L275.93 566.27z" /></clipPath><clipPath id="140"><path d="M382.28 595.32L514.78 595.32L514.78 595.32L514.78 566.28L514.78 566.28L382.28 566.28z" /></clipPath><clipPath id="141"><path d="M382.27 595.31L514.77 595.31L514.77 595.31L514.77 566.27L514.77 566.27L382.27 566.27z" /></clipPath><clipPath id="142"><path d="M382.27 595.31L514.77 595.31L514.77 595.31L514.77 566.27L514.77 566.27L382.27 566.27z" /></clipPath><clipPath id="143"><path d="M84.751 624.84L168.991 624.84L168.991 624.84L168.991 595.8L168.991 595.8L84.751 595.8z" /></clipPath><clipPath id="144"><path d="M84.744 624.83L168.984 624.83L168.984 624.83L168.984 595.79L168.984 595.79L84.744 595.79z" /></clipPath><clipPath id="145"><path d="M84.744 624.83L168.984 624.83L168.984 624.83L168.984 595.79L168.984 595.79L84.744 595.79z" /></clipPath><clipPath id="146"><path d="M169.59 624.84L232.845 624.84L232.845 624.84L232.845 595.8L232.845 595.8L169.59 595.8z" /></clipPath><clipPath id="147"><path d="M169.58 624.83L232.844 624.83L232.844 624.83L232.844 595.79L232.844 595.79L169.58 595.79z" /></clipPath><clipPath id="148"><path d="M169.58 624.83L232.844 624.83L232.844 624.83L232.844 595.79L232.844 595.79L169.58 595.79z" /></clipPath><clipPath id="149"><path d="M233.33 624.84L275.45 624.84L275.45 624.84L275.45 595.8L275.45 595.8L233.33 595.8z" /></clipPath><clipPath id="150"><path d="M233.33 624.83L275.45 624.83L275.45 624.83L275.45 595.79L275.45 595.79L233.33 595.79z" /></clipPath><clipPath id="151"><path d="M233.33 624.83L275.45 624.83L275.45 624.83L275.45 595.79L275.45 595.79L233.33 595.79z" /></clipPath><clipPath id="152"><path d="M275.93 624.84L381.68 624.84L381.68 624.84L381.68 595.8L381.68 595.8L275.93 595.8z" /></clipPath><clipPath id="153"><path d="M275.93 624.83L381.67 624.83L381.67 624.83L381.67 595.79L381.67 595.79L275.93 595.79z" /></clipPath><clipPath id="154"><path d="M275.93 624.83L381.67 624.83L381.67 624.83L381.67 595.79L381.67 595.79L275.93 595.79z" /></clipPath><clipPath id="155"><path d="M382.28 624.84L514.78 624.84L514.78 624.84L514.78 595.8L514.78 595.8L382.28 595.8z" /></clipPath><clipPath id="156"><path d="M382.27 624.83L514.77 624.83L514.77 624.83L514.77 595.79L514.77 595.79L382.27 595.79z" /></clipPath><clipPath id="157"><path d="M382.27 624.83L514.77 624.83L514.77 624.83L514.77 595.79L514.77 595.79L382.27 595.79z" /></clipPath><clipPath id="158"><path d="M84.751 644.4L168.991 644.4L168.991 644.4L168.991 625.32L168.991 625.32L84.751 625.32z" /></clipPath><clipPath id="159"><path d="M84.744 644.39L168.984 644.39L168.984 644.39L168.984 625.31L168.984 625.31L84.744 625.31z" /></clipPath><clipPath id="160"><path d="M84.744 644.39L168.984 644.39L168.984 644.39L168.984 625.31L168.984 625.31L84.744 625.31z" /></clipPath><clipPath id="161"><path d="M169.59 644.4L232.845 644.4L232.845 644.4L232.845 625.32L232.845 625.32L169.59 625.32z" /></clipPath><clipPath id="162"><path d="M169.58 644.39L232.844 644.39L232.844 644.39L232.844 625.31L232.844 625.31L169.58 625.31z" /></clipPath><clipPath id="163"><path d="M233.33 644.4L275.45 644.4L275.45 644.4L275.45 625.32L275.45 625.32L233.33 625.32z" /></clipPath><clipPath id="164"><path d="M233.33 644.39L275.45 644.39L275.45 644.39L275.45 625.31L275.45 625.31L233.33 625.31z" /></clipPath><clipPath id="165"><path d="M233.33 644.39L275.45 644.39L275.45 644.39L275.45 625.31L275.45 625.31L233.33 625.31z" /></clipPath><clipPath id="166"><path d="M275.93 644.4L381.68 644.4L381.68 644.4L381.68 625.32L381.68 625.32L275.93 625.32z" /></clipPath><clipPath id="167"><path d="M275.93 644.39L381.67 644.39L381.67 644.39L381.67 625.31L381.67 625.31L275.93 625.31z" /></clipPath><clipPath id="168"><path d="M275.93 644.39L381.67 644.39L381.67 644.39L381.67 625.31L381.67 625.31L275.93 625.31z" /></clipPath><clipPath id="169"><path d="M382.28 644.4L514.78 644.4L514.78 644.4L514.78 625.32L514.78 625.32L382.28 625.32z" /></clipPath><clipPath id="170"><path d="M382.27 644.39L514.77 644.39L514.77 644.39L514.77 625.31L514.77 625.31L382.27 625.31z" /></clipPath><clipPath id="171"><path d="M382.27 644.39L514.77 644.39L514.77 644.39L514.77 625.31L514.77 625.31L382.27 625.31z" /></clipPath><clipPath id="172"><path d="M84.751 673.93L168.991 673.93L168.991 673.93L168.991 644.875L168.991 644.875L84.751 644.875z" /></clipPath><clipPath id="173"><path d="M84.744 673.94L168.984 673.94L168.984 673.94L168.984 644.876L168.984 644.876L84.744 644.876z" /></clipPath><clipPath id="174"><path d="M84.744 673.94L168.984 673.94L168.984 673.94L168.984 644.876L168.984 644.876L84.744 644.876z" /></clipPath><clipPath id="175"><path d="M169.59 673.93L232.845 673.93L232.845 673.93L232.845 644.875L232.845 644.875L169.59 644.875z" /></clipPath><clipPath id="176"><path d="M169.58 673.94L232.844 673.94L232.844 673.94L232.844 644.876L232.844 644.876L169.58 644.876z" /></clipPath><clipPath id="177"><path d="M169.58 673.94L232.844 673.94L232.844 673.94L232.844 644.876L232.844 644.876L169.58 644.876z" /></clipPath><clipPath id="178"><path d="M233.33 673.93L275.45 673.93L275.45 673.93L275.45 644.875L275.45 644.875L233.33 644.875z" /></clipPath><clipPath id="179"><path d="M233.33 673.94L275.45 673.94L275.45 673.94L275.45 644.876L275.45 644.876L233.33 644.876z" /></clipPath><clipPath id="180"><path d="M233.33 673.94L275.45 673.94L275.45 673.94L275.45 644.876L275.45 644.876L233.33 644.876z" /></clipPath><clipPath id="181"><path d="M275.93 673.93L381.68 673.93L381.68 673.93L381.68 644.875L381.68 644.875L275.93 644.875z" /></clipPath><clipPath id="182"><path d="M275.93 673.94L381.67 673.94L381.67 673.94L381.67 644.876L381.67 644.876L275.93 644.876z" /></clipPath><clipPath id="183"><path d="M275.93 673.94L381.67 673.94L381.67 673.94L381.67 644.876L381.67 644.876L275.93 644.876z" /></clipPath><clipPath id="184"><path d="M382.28 673.93L514.78 673.93L514.78 673.93L514.78 644.875L514.78 644.875L382.28 644.875z" /></clipPath><clipPath id="185"><path d="M382.27 673.94L514.77 673.94L514.77 673.94L514.77 644.876L514.77 644.876L382.27 644.876z" /></clipPath><clipPath id="186"><path d="M382.27 673.94L514.77 673.94L514.77 673.94L514.77 644.876L514.77 644.876L382.27 644.876z" /></clipPath><clipPath id="187"><path d="M382.27 673.94L514.77 673.94L514.77 673.94L514.77 644.876L514.77 644.876L382.27 644.876z" /></clipPath><clipPath id="188"><path d="M382.27 673.94L514.77 673.94L514.77 673.94L514.77 644.876L514.77 644.876L382.27 644.876z" /></clipPath><clipPath id="189"><path d="M84.751 703.57L168.991 703.57L168.991 703.57L168.991 674.53L168.991 674.53L84.751 674.53z" /></clipPath><clipPath id="190"><path d="M84.744 703.58L168.984 703.58L168.984 703.58L168.984 674.54L168.984 674.54L84.744 674.54z" /></clipPath><clipPath id="191"><path d="M84.744 703.58L168.984 703.58L168.984 703.58L168.984 674.54L168.984 674.54L84.744 674.54z" /></clipPath><clipPath id="192"><path d="M169.59 703.57L232.845 703.57L232.845 703.57L232.845 674.53L232.845 674.53L169.59 674.53z" /></clipPath><clipPath id="193"><path d="M169.58 703.58L232.844 703.58L232.844 703.58L232.844 674.54L232.844 674.54L169.58 674.54z" /></clipPath><clipPath id="194"><path d="M169.58 703.58L232.844 703.58L232.844 703.58L232.844 674.54L232.844 674.54L169.58 674.54z" /></clipPath><clipPath id="195"><path d="M233.33 703.57L275.45 703.57L275.45 703.57L275.45 674.53L275.45 674.53L233.33 674.53z" /></clipPath><clipPath id="196"><path d="M233.33 703.58L275.45 703.58L275.45 703.58L275.45 674.54L275.45 674.54L233.33 674.54z" /></clipPath><clipPath id="197"><path d="M233.33 703.58L275.45 703.58L275.45 703.58L275.45 674.54L275.45 674.54L233.33 674.54z" /></clipPath><clipPath id="198"><path d="M275.93 703.57L381.68 703.57L381.68 703.57L381.68 674.53L381.68 674.53L275.93 674.53z" /></clipPath><clipPath id="199"><path d="M275.93 703.58L381.67 703.58L381.67 703.58L381.67 674.54L381.67 674.54L275.93 674.54z" /></clipPath><clipPath id="200"><path d="M382.28 703.57L514.78 703.57L514.78 703.57L514.78 674.53L514.78 674.53L382.28 674.53z" /></clipPath><clipPath id="201"><path d="M382.27 703.58L514.77 703.58L514.77 703.58L514.77 674.54L514.77 674.54L382.27 674.54z" /></clipPath><clipPath id="202"><path d="M382.27 703.58L514.77 703.58L514.77 703.58L514.77 674.54L514.77 674.54L382.27 674.54z" /></clipPath></defs><g transform="matrix(1.333333 0 0 1.333333 0 0)"><g><g clip-path="url(#1)"><path transform="matrix(1 0 0 -1 0 841)" d="M457.51 53.304L505.534 53.304L505.534 53.304L505.534 53.90404L505.534 53.90404L457.51 53.90404z" stroke="none" fill="#000000" fill-rule="evenodd" /><g clip-path="url(#2)"><path transform="matrix(1 0 0 -1 0 841)" d="M88.464 77.904L506.974 77.904L506.974 77.904L506.974 80.904L506.974 80.904L88.464 80.904z" stroke="none" fill="#000000" fill-rule="evenodd" /><path transform="matrix(1 0 0 -1 0 841)" d="M88.464 76.464L506.974 76.464L506.974 76.464L506.974 77.18397L506.974 77.18397L88.464 77.18397z" stroke="none" fill="#000000" fill-rule="evenodd" /></g><g clip-path="url(#3)"><g clip-path="url(#4)"></g><g clip-path="url(#5)"></g></g><path transform="matrix(1 0 0 -1 0 841)" d="M84.744 561.1L502.534 561.1L502.534 561.1L502.534 751.56L502.534 751.56L84.744 751.56z" stroke="none" fill="#DAEEF3" fill-rule="evenodd" /><g clip-path="url(#6)"><path transform="matrix(1 0 0 -1 0 841)" d="M89.904 732.46L497.374 732.46L497.374 732.46L497.374 751.564L497.374 751.564L89.904 751.564z" stroke="none" fill="#DAEEF3" fill-rule="evenodd" /><g clip-path="url(#7)"></g><g clip-path="url(#8)"></g><g clip-path="url(#9)"></g><g clip-path="url(#10)"></g><g clip-path="url(#11)"></g><path transform="matrix(1 0 0 -1 0 841)" d="M89.904 713.5L497.374 713.5L497.374 713.5L497.374 732.46L497.374 732.46L89.904 732.46z" stroke="none" fill="#DAEEF3" fill-rule="evenodd" /><g clip-path="url(#12)"></g><g clip-path="url(#13)"></g><g clip-path="url(#14)"></g><path transform="matrix(1 0 0 -1 0 841)" d="M89.904 694.42L497.374 694.42L497.374 694.42L497.374 713.5L497.374 713.5L89.904 713.5z" stroke="none" fill="#DAEEF3" fill-rule="evenodd" /><g clip-path="url(#15)"></g><g clip-path="url(#16)"></g><g clip-path="url(#17)"></g><path transform="matrix(1 0 0 -1 0 841)" d="M89.904 675.34L497.374 675.34L497.374 675.34L497.374 694.42L497.374 694.42L89.904 694.42z" stroke="none" fill="#DAEEF3" fill-rule="evenodd" /><g clip-path="url(#18)"></g><g clip-path="url(#19)"></g><g clip-path="url(#20)"></g><path transform="matrix(1 0 0 -1 0 841)" d="M89.904 656.26L497.374 656.26L497.374 656.26L497.374 675.34L497.374 675.34L89.904 675.34z" stroke="none" fill="#DAEEF3" fill-rule="evenodd" /><g clip-path="url(#21)"></g><g clip-path="url(#22)"></g><g clip-path="url(#23)"></g><path transform="matrix(1 0 0 -1 0 841)" d="M89.904 637.3L497.374 637.3L497.374 637.3L497.374 656.26L497.374 656.26L89.904 656.26z" stroke="none" fill="#DAEEF3" fill-rule="evenodd" /><g clip-path="url(#24)"></g><g clip-path="url(#25)"></g><g clip-path="url(#26)"></g><g clip-path="url(#27)"></g><g clip-path="url(#28)"></g><path transform="matrix(1 0 0 -1 0 841)" d="M89.904 618.22L497.374 618.22L497.374 618.22L497.374 637.3L497.374 637.3L89.904 637.3z" stroke="none" fill="#DAEEF3" fill-rule="evenodd" /><g clip-path="url(#29)"></g><g clip-path="url(#30)"></g><g clip-path="url(#31)"></g><g clip-path="url(#32)"></g><g clip-path="url(#33)"></g><path transform="matrix(1 0 0 -1 0 841)" d="M89.904 599.14L497.374 599.14L497.374 599.14L497.374 618.22L497.374 618.22L89.904 618.22z" stroke="none" fill="#DAEEF3" fill-rule="evenodd" /><g clip-path="url(#34)"></g><g clip-path="url(#35)"></g><g clip-path="url(#36)"></g><path transform="matrix(1 0 0 -1 0 841)" d="M89.904 580.06L497.374 580.06L497.374 580.06L497.374 599.14L497.374 599.14L89.904 599.14z" stroke="none" fill="#DAEEF3" fill-rule="evenodd" /><g clip-path="url(#37)"></g><g clip-path="url(#38)"></g><g clip-path="url(#39)"></g><path transform="matrix(1 0 0 -1 0 841)" d="M89.904 561.1L497.374 561.1L497.374 561.1L497.374 580.06L497.374 580.06L89.904 580.06z" stroke="none" fill="#DAEEF3" fill-rule="evenodd" /><g clip-path="url(#40)"></g><g clip-path="url(#41)"></g></g><path transform="matrix(1 0 0 -1 0 841)" d="M84.264 751.56L84.744 751.56L84.744 751.56L84.744 752.04L84.744 752.04L84.264 752.04z" stroke="none" fill="#000000" fill-rule="evenodd" /><path transform="matrix(1 0 0 -1 0 841)" d="M84.264 751.56L84.744 751.56L84.744 751.56L84.744 752.04L84.744 752.04L84.264 752.04z" stroke="none" fill="#000000" fill-rule="evenodd" /><path transform="matrix(1 0 0 -1 0 841)" d="M84.744 751.56L502.534 751.56L502.534 751.56L502.534 752.04L502.534 752.04L84.744 752.04z" stroke="none" fill="#000000" fill-rule="evenodd" /><path transform="matrix(1 0 0 -1 0 841)" d="M502.54 751.56L503.02 751.56L503.02 751.56L503.02 752.04L503.02 752.04L502.54 752.04z" stroke="none" fill="#000000" fill-rule="evenodd" /><path transform="matrix(1 0 0 -1 0 841)" d="M502.54 751.56L503.02 751.56L503.02 751.56L503.02 752.04L503.02 752.04L502.54 752.04z" stroke="none" fill="#000000" fill-rule="evenodd" /><path transform="matrix(1 0 0 -1 0 841)" d="M84.264 560.98L84.744 560.98L84.744 560.98L84.744 751.56L84.744 751.56L84.264 751.56z" stroke="none" fill="#000000" fill-rule="evenodd" /><path transform="matrix(1 0 0 -1 0 841)" d="M84.264 560.5L84.744 560.5L84.744 560.5L84.744 560.98L84.744 560.98L84.264 560.98z" stroke="none" fill="#000000" fill-rule="evenodd" /><path transform="matrix(1 0 0 -1 0 841)" d="M84.264 560.5L84.744 560.5L84.744 560.5L84.744 560.98L84.744 560.98L84.264 560.98z" stroke="none" fill="#000000" fill-rule="evenodd" /><path transform="matrix(1 0 0 -1 0 841)" d="M84.744 560.5L502.534 560.5L502.534 560.5L502.534 560.98L502.534 560.98L84.744 560.98z" stroke="none" fill="#000000" fill-rule="evenodd" /><path transform="matrix(1 0 0 -1 0 841)" d="M502.54 560.98L503.02 560.98L503.02 560.98L503.02 751.56L503.02 751.56L502.54 751.56z" stroke="none" fill="#000000" fill-rule="evenodd" /><path transform="matrix(1 0 0 -1 0 841)" d="M502.54 560.5L503.02 560.5L503.02 560.5L503.02 560.98L503.02 560.98L502.54 560.98z" stroke="none" fill="#000000" fill-rule="evenodd" /><path transform="matrix(1 0 0 -1 0 841)" d="M502.54 560.5L503.02 560.5L503.02 560.5L503.02 560.98L503.02 560.98L502.54 560.98z" stroke="none" fill="#000000" fill-rule="evenodd" /><path transform="matrix(1 0 0 -1 0 841)" d="M84.744 440.59L168.984 440.59L168.984 440.59L168.984 459.67L168.984 459.67L84.744 459.67z" stroke="none" fill="#0070C0" fill-rule="evenodd" /><g clip-path="url(#42)"><path transform="matrix(1 0 0 -1 0 841)" d="M89.904 440.59L163.824 440.59L163.824 440.59L163.824 459.67L163.824 459.67L89.904 459.67z" stroke="none" fill="#0070C0" fill-rule="evenodd" /><g clip-path="url(#43)"></g><g clip-path="url(#44)"></g></g><path transform="matrix(1 0 0 -1 0 841)" d="M169.58 440.59L232.844 440.59L232.844 440.59L232.844 459.67L232.844 459.67L169.58 459.67z" stroke="none" fill="#0070C0" fill-rule="evenodd" /><g clip-path="url(#45)"><path transform="matrix(1 0 0 -1 0 841)" d="M174.62 440.59L227.684 440.59L227.684 440.59L227.684 459.67L227.684 459.67L174.62 459.67z" stroke="none" fill="#0070C0" fill-rule="evenodd" /><g clip-path="url(#46)"></g><g clip-path="url(#47)"></g></g><path transform="matrix(1 0 0 -1 0 841)" d="M233.33 440.59L275.45 440.59L275.45 440.59L275.45 459.67L275.45 459.67L233.33 459.67z" stroke="none" fill="#0070C0" fill-rule="evenodd" /><g clip-path="url(#48)"><path transform="matrix(1 0 0 -1 0 841)" d="M238.49 440.59L270.29 440.59L270.29 440.59L270.29 459.67L270.29 459.67L238.49 459.67z" stroke="none" fill="#0070C0" fill-rule="evenodd" /><g clip-path="url(#49)"></g><g clip-path="url(#50)"></g></g><path transform="matrix(1 0 0 -1 0 841)" d="M275.93 440.59L381.67 440.59L381.67 440.59L381.67 459.67L381.67 459.67L275.93 459.67z" stroke="none" fill="#0070C0" fill-rule="evenodd" /><g clip-path="url(#51)"><path transform="matrix(1 0 0 -1 0 841)" d="M281.09 440.59L376.634 440.59L376.634 440.59L376.634 459.67L376.634 459.67L281.09 459.67z" stroke="none" fill="#0070C0" fill-rule="evenodd" /><g clip-path="url(#52)"></g><g clip-path="url(#53)"></g></g><path transform="matrix(1 0 0 -1 0 841)" d="M382.27 440.59L514.77 440.59L514.77 440.59L514.77 459.67L514.77 459.67L382.27 459.67z" stroke="none" fill="#0070C0" fill-rule="evenodd" /><g clip-path="url(#54)"><path transform="matrix(1 0 0 -1 0 841)" d="M387.43 440.59L509.61 440.59L509.61 440.59L509.61 459.67L509.61 459.67L387.43 459.67z" stroke="none" fill="#0070C0" fill-rule="evenodd" /><g clip-path="url(#55)"></g><g clip-path="url(#56)"></g></g><path transform="matrix(1 0 0 -1 0 841)" d="M84.264 459.67L84.744 459.67L84.744 459.67L84.744 460.15L84.744 460.15L84.264 460.15z" stroke="none" fill="#000000" fill-rule="evenodd" /><path transform="matrix(1 0 0 -1 0 841)" d="M84.264 459.67L84.744 459.67L84.744 459.67L84.744 460.15L84.744 460.15L84.264 460.15z" stroke="none" fill="#000000" fill-rule="evenodd" /><path transform="matrix(1 0 0 -1 0 841)" d="M84.744 459.67L169.104 459.67L169.104 459.67L169.104 460.15L169.104 460.15L84.744 460.15z" stroke="none" fill="#000000" fill-rule="evenodd" /><path transform="matrix(1 0 0 -1 0 841)" d="M169.1 459.67L169.58 459.67L169.58 459.67L169.58 460.15L169.58 460.15L169.1 460.15z" stroke="none" fill="#000000" fill-rule="evenodd" /><path transform="matrix(1 0 0 -1 0 841)" d="M169.58 459.67L232.844 459.67L232.844 459.67L232.844 460.15L232.844 460.15L169.58 460.15z" stroke="none" fill="#000000" fill-rule="evenodd" /><path transform="matrix(1 0 0 -1 0 841)" d="M232.85 459.67L233.33 459.67L233.33 459.67L233.33 460.15L233.33 460.15L232.85 460.15z" stroke="none" fill="#000000" fill-rule="evenodd" /><path transform="matrix(1 0 0 -1 0 841)" d="M233.33 459.67L275.45 459.67L275.45 459.67L275.45 460.15L275.45 460.15L233.33 460.15z" stroke="none" fill="#000000" fill-rule="evenodd" /><path transform="matrix(1 0 0 -1 0 841)" d="M275.45 459.67L275.93 459.67L275.93 459.67L275.93 460.15L275.93 460.15L275.45 460.15z" stroke="none" fill="#000000" fill-rule="evenodd" /><path transform="matrix(1 0 0 -1 0 841)" d="M275.93 459.67L381.79 459.67L381.79 459.67L381.79 460.15L381.79 460.15L275.93 460.15z" stroke="none" fill="#000000" fill-rule="evenodd" /><path transform="matrix(1 0 0 -1 0 841)" d="M381.79 459.67L382.27 459.67L382.27 459.67L382.27 460.15L382.27 460.15L381.79 460.15z" stroke="none" fill="#000000" fill-rule="evenodd" /><path transform="matrix(1 0 0 -1 0 841)" d="M382.27 459.67L514.77 459.67L514.77 459.67L514.77 460.15L514.77 460.15L382.27 460.15z" stroke="none" fill="#000000" fill-rule="evenodd" /><path transform="matrix(1 0 0 -1 0 841)" d="M514.78 459.67L515.26 459.67L515.26 459.67L515.26 460.15L515.26 460.15L514.78 460.15z" stroke="none" fill="#000000" fill-rule="evenodd" /><path transform="matrix(1 0 0 -1 0 841)" d="M514.78 459.67L515.26 459.67L515.26 459.67L515.26 460.15L515.26 460.15L514.78 460.15z" stroke="none" fill="#000000" fill-rule="evenodd" /><path transform="matrix(1 0 0 -1 0 841)" d="M84.264 440.59L84.744 440.59L84.744 440.59L84.744 459.67L84.744 459.67L84.264 459.67z" stroke="none" fill="#000000" fill-rule="evenodd" /><path transform="matrix(1 0 0 -1 0 841)" d="M169.1 440.59L169.58 440.59L169.58 440.59L169.58 459.67L169.58 459.67L169.1 459.67z" stroke="none" fill="#000000" fill-rule="evenodd" /><path transform="matrix(1 0 0 -1 0 841)" d="M232.85 440.59L233.33 440.59L233.33 440.59L233.33 459.67L233.33 459.67L232.85 459.67z" stroke="none" fill="#000000" fill-rule="evenodd" /><path transform="matrix(1 0 0 -1 0 841)" d="M275.45 440.59L275.93 440.59L275.93 440.59L275.93 459.67L275.93 459.67L275.45 459.67z" stroke="none" fill="#000000" fill-rule="evenodd" /><path transform="matrix(1 0 0 -1 0 841)" d="M381.79 440.59L382.27 440.59L382.27 440.59L382.27 459.67L382.27 459.67L381.79 459.67z" stroke="none" fill="#000000" fill-rule="evenodd" /><path transform="matrix(1 0 0 -1 0 841)" d="M514.78 440.59L515.26 440.59L515.26 440.59L515.26 459.67L515.26 459.67L514.78 459.67z" stroke="none" fill="#000000" fill-rule="evenodd" /><path transform="matrix(1 0 0 -1 0 841)" d="M84.744 391.99L168.984 391.99L168.984 391.99L168.984 440.11L168.984 440.11L84.744 440.11z" stroke="none" fill="#DAEEF3" fill-rule="evenodd" /><g clip-path="url(#57)"><path transform="matrix(1 0 0 -1 0 841)" d="M89.904 421.03L163.824 421.03L163.824 421.03L163.824 440.11L163.824 440.11L89.904 440.11z" stroke="none" fill="#DAEEF3" fill-rule="evenodd" /><g clip-path="url(#58)"></g><g clip-path="url(#59)"></g></g><path transform="matrix(1 0 0 -1 0 841)" d="M169.58 391.99L232.844 391.99L232.844 391.99L232.844 440.11L232.844 440.11L169.58 440.11z" stroke="none" fill="#DAEEF3" fill-rule="evenodd" /><g clip-path="url(#60)"><path transform="matrix(1 0 0 -1 0 841)" d="M174.62 421.03L227.684 421.03L227.684 421.03L227.684 440.11L227.684 440.11L174.62 440.11z" stroke="none" fill="#DAEEF3" fill-rule="evenodd" /><g clip-path="url(#61)"></g><g clip-path="url(#62)"></g></g><path transform="matrix(1 0 0 -1 0 841)" d="M233.33 391.99L275.45 391.99L275.45 391.99L275.45 440.11L275.45 440.11L233.33 440.11z" stroke="none" fill="#DAEEF3" fill-rule="evenodd" /><g clip-path="url(#63)"><path transform="matrix(1 0 0 -1 0 841)" d="M238.49 421.03L270.29 421.03L270.29 421.03L270.29 440.11L270.29 440.11L238.49 440.11z" stroke="none" fill="#DAEEF3" fill-rule="evenodd" /><g clip-path="url(#64)"></g><g clip-path="url(#65)"></g></g><path transform="matrix(1 0 0 -1 0 841)" d="M275.93 391.99L381.67 391.99L381.67 391.99L381.67 440.11L381.67 440.11L275.93 440.11z" stroke="none" fill="#DAEEF3" fill-rule="evenodd" /><g clip-path="url(#66)"><path transform="matrix(1 0 0 -1 0 841)" d="M281.09 416.11L376.634 416.11L376.634 416.11L376.634 440.11L376.634 440.11L281.09 440.11z" stroke="none" fill="#DAEEF3" fill-rule="evenodd" /><g clip-path="url(#67)"></g><path transform="matrix(1 0 0 -1 0 841)" d="M281.09 391.99L376.634 391.99L376.634 391.99L376.634 416.11L376.634 416.11L281.09 416.11z" stroke="none" fill="#DAEEF3" fill-rule="evenodd" /><g clip-path="url(#68)"></g><g clip-path="url(#69)"></g></g><path transform="matrix(1 0 0 -1 0 841)" d="M382.27 391.99L514.77 391.99L514.77 391.99L514.77 440.11L514.77 440.11L382.27 440.11z" stroke="none" fill="#DAEEF3" fill-rule="evenodd" /><g clip-path="url(#70)"><path transform="matrix(1 0 0 -1 0 841)" d="M387.43 421.03L509.61 421.03L509.61 421.03L509.61 440.11L509.61 440.11L387.43 440.11z" stroke="none" fill="#DAEEF3" fill-rule="evenodd" /><g clip-path="url(#71)"></g><g clip-path="url(#72)"></g><g clip-path="url(#73)"></g><g clip-path="url(#74)"></g><g clip-path="url(#75)"></g><path transform="matrix(1 0 0 -1 0 841)" d="M387.43 402.07L509.61 402.07L509.61 402.07L509.61 421.03L509.61 421.03L387.43 421.03z" stroke="none" fill="#DAEEF3" fill-rule="evenodd" /><g clip-path="url(#76)"></g><g clip-path="url(#77)"></g></g><path transform="matrix(1 0 0 -1 0 841)" d="M84.264 440.11L84.744 440.11L84.744 440.11L84.744 440.59L84.744 440.59L84.264 440.59z" stroke="none" fill="#000000" fill-rule="evenodd" /><path transform="matrix(1 0 0 -1 0 841)" d="M84.744 440.11L169.104 440.11L169.104 440.11L169.104 440.59L169.104 440.59L84.744 440.59z" stroke="none" fill="#000000" fill-rule="evenodd" /><path transform="matrix(1 0 0 -1 0 841)" d="M169.1 440.11L169.58 440.11L169.58 440.11L169.58 440.59L169.58 440.59L169.1 440.59z" stroke="none" fill="#000000" fill-rule="evenodd" /><path transform="matrix(1 0 0 -1 0 841)" d="M169.58 440.11L232.844 440.11L232.844 440.11L232.844 440.59L232.844 440.59L169.58 440.59z" stroke="none" fill="#000000" fill-rule="evenodd" /><path transform="matrix(1 0 0 -1 0 841)" d="M232.85 440.11L233.33 440.11L233.33 440.11L233.33 440.59L233.33 440.59L232.85 440.59z" stroke="none" fill="#000000" fill-rule="evenodd" /><path transform="matrix(1 0 0 -1 0 841)" d="M233.33 440.11L275.45 440.11L275.45 440.11L275.45 440.59L275.45 440.59L233.33 440.59z" stroke="none" fill="#000000" fill-rule="evenodd" /><path transform="matrix(1 0 0 -1 0 841)" d="M275.45 440.11L275.93 440.11L275.93 440.11L275.93 440.59L275.93 440.59L275.45 440.59z" stroke="none" fill="#000000" fill-rule="evenodd" /><path transform="matrix(1 0 0 -1 0 841)" d="M275.93 440.11L381.79 440.11L381.79 440.11L381.79 440.59L381.79 440.59L275.93 440.59z" stroke="none" fill="#000000" fill-rule="evenodd" /><path transform="matrix(1 0 0 -1 0 841)" d="M381.79 440.11L382.27 440.11L382.27 440.11L382.27 440.59L382.27 440.59L381.79 440.59z" stroke="none" fill="#000000" fill-rule="evenodd" /><path transform="matrix(1 0 0 -1 0 841)" d="M382.27 440.11L514.77 440.11L514.77 440.11L514.77 440.59L514.77 440.59L382.27 440.59z" stroke="none" fill="#000000" fill-rule="evenodd" /><path transform="matrix(1 0 0 -1 0 841)" d="M514.78 440.11L515.26 440.11L515.26 440.11L515.26 440.59L515.26 440.59L514.78 440.59z" stroke="none" fill="#000000" fill-rule="evenodd" /><path transform="matrix(1 0 0 -1 0 841)" d="M84.264 391.99L84.744 391.99L84.744 391.99L84.744 440.11L84.744 440.11L84.264 440.11z" stroke="none" fill="#000000" fill-rule="evenodd" /><path transform="matrix(1 0 0 -1 0 841)" d="M169.1 391.99L169.58 391.99L169.58 391.99L169.58 440.11L169.58 440.11L169.1 440.11z" stroke="none" fill="#000000" fill-rule="evenodd" /><path transform="matrix(1 0 0 -1 0 841)" d="M232.85 391.99L233.33 391.99L233.33 391.99L233.33 440.11L233.33 440.11L232.85 440.11z" stroke="none" fill="#000000" fill-rule="evenodd" /><path transform="matrix(1 0 0 -1 0 841)" d="M275.45 391.99L275.93 391.99L275.93 391.99L275.93 440.11L275.93 440.11L275.45 440.11z" stroke="none" fill="#000000" fill-rule="evenodd" /><path transform="matrix(1 0 0 -1 0 841)" d="M381.79 391.99L382.27 391.99L382.27 391.99L382.27 440.11L382.27 440.11L381.79 440.11z" stroke="none" fill="#000000" fill-rule="evenodd" /><path transform="matrix(1 0 0 -1 0 841)" d="M514.78 391.99L515.26 391.99L515.26 391.99L515.26 440.11L515.26 440.11L514.78 440.11z" stroke="none" fill="#000000" fill-rule="evenodd" /><g clip-path="url(#78)"><g clip-path="url(#79)"></g><g clip-path="url(#80)"></g></g><g clip-path="url(#81)"><g clip-path="url(#82)"></g><g clip-path="url(#83)"></g></g><g clip-path="url(#84)"><g clip-path="url(#85)"></g><g clip-path="url(#86)"></g></g><g clip-path="url(#87)"><g clip-path="url(#88)"></g><g clip-path="url(#89)"></g></g><g clip-path="url(#90)"><g clip-path="url(#91)"></g><g clip-path="url(#92)"></g></g><path transform="matrix(1 0 0 -1 0 841)" d="M84.264 391.51L84.744 391.51L84.744 391.51L84.744 391.99L84.744 391.99L84.264 391.99z" stroke="none" fill="#000000" fill-rule="evenodd" /><path transform="matrix(1 0 0 -1 0 841)" d="M84.744 391.51L169.104 391.51L169.104 391.51L169.104 391.99L169.104 391.99L84.744 391.99z" stroke="none" fill="#000000" fill-rule="evenodd" /><path transform="matrix(1 0 0 -1 0 841)" d="M169.1 391.51L169.58 391.51L169.58 391.51L169.58 391.99L169.58 391.99L169.1 391.99z" stroke="none" fill="#000000" fill-rule="evenodd" /><path transform="matrix(1 0 0 -1 0 841)" d="M169.58 391.51L232.844 391.51L232.844 391.51L232.844 391.99L232.844 391.99L169.58 391.99z" stroke="none" fill="#000000" fill-rule="evenodd" /><path transform="matrix(1 0 0 -1 0 841)" d="M232.85 391.51L233.33 391.51L233.33 391.51L233.33 391.99L233.33 391.99L232.85 391.99z" stroke="none" fill="#000000" fill-rule="evenodd" /><path transform="matrix(1 0 0 -1 0 841)" d="M233.33 391.51L275.45 391.51L275.45 391.51L275.45 391.99L275.45 391.99L233.33 391.99z" stroke="none" fill="#000000" fill-rule="evenodd" /><path transform="matrix(1 0 0 -1 0 841)" d="M275.45 391.51L275.93 391.51L275.93 391.51L275.93 391.99L275.93 391.99L275.45 391.99z" stroke="none" fill="#000000" fill-rule="evenodd" /><path transform="matrix(1 0 0 -1 0 841)" d="M275.93 391.51L381.79 391.51L381.79 391.51L381.79 391.99L381.79 391.99L275.93 391.99z" stroke="none" fill="#000000" fill-rule="evenodd" /><path transform="matrix(1 0 0 -1 0 841)" d="M381.79 391.51L382.27 391.51L382.27 391.51L382.27 391.99L382.27 391.99L381.79 391.99z" stroke="none" fill="#000000" fill-rule="evenodd" /><path transform="matrix(1 0 0 -1 0 841)" d="M382.27 391.51L514.77 391.51L514.77 391.51L514.77 391.99L514.77 391.99L382.27 391.99z" stroke="none" fill="#000000" fill-rule="evenodd" /><path transform="matrix(1 0 0 -1 0 841)" d="M514.78 391.51L515.26 391.51L515.26 391.51L515.26 391.99L515.26 391.99L514.78 391.99z" stroke="none" fill="#000000" fill-rule="evenodd" /><path transform="matrix(1 0 0 -1 0 841)" d="M84.264 362.45L84.744 362.45L84.744 362.45L84.744 391.514L84.744 391.514L84.264 391.514z" stroke="none" fill="#000000" fill-rule="evenodd" /><path transform="matrix(1 0 0 -1 0 841)" d="M169.1 362.45L169.58 362.45L169.58 362.45L169.58 391.514L169.58 391.514L169.1 391.514z" stroke="none" fill="#000000" fill-rule="evenodd" /><path transform="matrix(1 0 0 -1 0 841)" d="M232.85 362.45L233.33 362.45L233.33 362.45L233.33 391.514L233.33 391.514L232.85 391.514z" stroke="none" fill="#000000" fill-rule="evenodd" /><path transform="matrix(1 0 0 -1 0 841)" d="M275.45 362.45L275.93 362.45L275.93 362.45L275.93 391.514L275.93 391.514L275.45 391.514z" stroke="none" fill="#000000" fill-rule="evenodd" /><path transform="matrix(1 0 0 -1 0 841)" d="M381.79 362.45L382.27 362.45L382.27 362.45L382.27 391.514L382.27 391.514L381.79 391.514z" stroke="none" fill="#000000" fill-rule="evenodd" /><path transform="matrix(1 0 0 -1 0 841)" d="M514.78 362.45L515.26 362.45L515.26 362.45L515.26 391.514L515.26 391.514L514.78 391.514z" stroke="none" fill="#000000" fill-rule="evenodd" /><path transform="matrix(1 0 0 -1 0 841)" d="M84.744 332.93L168.984 332.93L168.984 332.93L168.984 361.97L168.984 361.97L84.744 361.97z" stroke="none" fill="#DAEEF3" fill-rule="evenodd" /><g clip-path="url(#93)"><path transform="matrix(1 0 0 -1 0 841)" d="M89.904 342.89L163.824 342.89L163.824 342.89L163.824 361.97L163.824 361.97L89.904 361.97z" stroke="none" fill="#DAEEF3" fill-rule="evenodd" /><g clip-path="url(#94)"></g><g clip-path="url(#95)"></g></g><path transform="matrix(1 0 0 -1 0 841)" d="M169.58 332.93L232.844 332.93L232.844 332.93L232.844 361.97L232.844 361.97L169.58 361.97z" stroke="none" fill="#DAEEF3" fill-rule="evenodd" /><g clip-path="url(#96)"><path transform="matrix(1 0 0 -1 0 841)" d="M174.62 342.89L227.684 342.89L227.684 342.89L227.684 361.97L227.684 361.97L174.62 361.97z" stroke="none" fill="#DAEEF3" fill-rule="evenodd" /><g clip-path="url(#97)"></g><g clip-path="url(#98)"></g></g><path transform="matrix(1 0 0 -1 0 841)" d="M233.33 332.93L275.45 332.93L275.45 332.93L275.45 361.97L275.45 361.97L233.33 361.97z" stroke="none" fill="#DAEEF3" fill-rule="evenodd" /><g clip-path="url(#99)"><path transform="matrix(1 0 0 -1 0 841)" d="M238.49 342.89L270.29 342.89L270.29 342.89L270.29 361.97L270.29 361.97L238.49 361.97z" stroke="none" fill="#DAEEF3" fill-rule="evenodd" /><g clip-path="url(#100)"></g><g clip-path="url(#101)"></g></g><path transform="matrix(1 0 0 -1 0 841)" d="M275.93 332.93L381.67 332.93L381.67 332.93L381.67 361.97L381.67 361.97L275.93 361.97z" stroke="none" fill="#DAEEF3" fill-rule="evenodd" /><g clip-path="url(#102)"><path transform="matrix(1 0 0 -1 0 841)" d="M281.09 332.93L376.634 332.93L376.634 332.93L376.634 361.97L376.634 361.97L281.09 361.97z" stroke="none" fill="#DAEEF3" fill-rule="evenodd" /><g clip-path="url(#103)"></g><g clip-path="url(#104)"></g></g><path transform="matrix(1 0 0 -1 0 841)" d="M382.27 332.93L514.77 332.93L514.77 332.93L514.77 361.97L514.77 361.97L382.27 361.97z" stroke="none" fill="#DAEEF3" fill-rule="evenodd" /><g clip-path="url(#105)"><path transform="matrix(1 0 0 -1 0 841)" d="M387.43 342.89L509.61 342.89L509.61 342.89L509.61 361.97L509.61 361.97L387.43 361.97z" stroke="none" fill="#DAEEF3" fill-rule="evenodd" /><g clip-path="url(#106)"></g><g clip-path="url(#107)"></g></g><path transform="matrix(1 0 0 -1 0 841)" d="M84.264 361.97L84.744 361.97L84.744 361.97L84.744 362.45L84.744 362.45L84.264 362.45z" stroke="none" fill="#000000" fill-rule="evenodd" /><path transform="matrix(1 0 0 -1 0 841)" d="M84.744 361.97L169.104 361.97L169.104 361.97L169.104 362.45L169.104 362.45L84.744 362.45z" stroke="none" fill="#000000" fill-rule="evenodd" /><path transform="matrix(1 0 0 -1 0 841)" d="M169.1 361.97L169.58 361.97L169.58 361.97L169.58 362.45L169.58 362.45L169.1 362.45z" stroke="none" fill="#000000" fill-rule="evenodd" /><path transform="matrix(1 0 0 -1 0 841)" d="M169.58 361.97L232.844 361.97L232.844 361.97L232.844 362.45L232.844 362.45L169.58 362.45z" stroke="none" fill="#000000" fill-rule="evenodd" /><path transform="matrix(1 0 0 -1 0 841)" d="M232.85 361.97L233.33 361.97L233.33 361.97L233.33 362.45L233.33 362.45L232.85 362.45z" stroke="none" fill="#000000" fill-rule="evenodd" /><path transform="matrix(1 0 0 -1 0 841)" d="M233.33 361.97L275.45 361.97L275.45 361.97L275.45 362.45L275.45 362.45L233.33 362.45z" stroke="none" fill="#000000" fill-rule="evenodd" /><path transform="matrix(1 0 0 -1 0 841)" d="M275.45 361.97L275.93 361.97L275.93 361.97L275.93 362.45L275.93 362.45L275.45 362.45z" stroke="none" fill="#000000" fill-rule="evenodd" /><path transform="matrix(1 0 0 -1 0 841)" d="M275.93 361.97L381.79 361.97L381.79 361.97L381.79 362.45L381.79 362.45L275.93 362.45z" stroke="none" fill="#000000" fill-rule="evenodd" /><path transform="matrix(1 0 0 -1 0 841)" d="M381.79 361.97L382.27 361.97L382.27 361.97L382.27 362.45L382.27 362.45L381.79 362.45z" stroke="none" fill="#000000" fill-rule="evenodd" /><path transform="matrix(1 0 0 -1 0 841)" d="M382.27 361.97L514.77 361.97L514.77 361.97L514.77 362.45L514.77 362.45L382.27 362.45z" stroke="none" fill="#000000" fill-rule="evenodd" /><path transform="matrix(1 0 0 -1 0 841)" d="M514.78 361.97L515.26 361.97L515.26 361.97L515.26 362.45L515.26 362.45L514.78 362.45z" stroke="none" fill="#000000" fill-rule="evenodd" /><path transform="matrix(1 0 0 -1 0 841)" d="M84.264 332.93L84.744 332.93L84.744 332.93L84.744 361.97L84.744 361.97L84.264 361.97z" stroke="none" fill="#000000" fill-rule="evenodd" /><path transform="matrix(1 0 0 -1 0 841)" d="M169.1 332.93L169.58 332.93L169.58 332.93L169.58 361.97L169.58 361.97L169.1 361.97z" stroke="none" fill="#000000" fill-rule="evenodd" /><path transform="matrix(1 0 0 -1 0 841)" d="M232.85 332.93L233.33 332.93L233.33 332.93L233.33 361.97L233.33 361.97L232.85 361.97z" stroke="none" fill="#000000" fill-rule="evenodd" /><path transform="matrix(1 0 0 -1 0 841)" d="M275.45 332.93L275.93 332.93L275.93 332.93L275.93 361.97L275.93 361.97L275.45 361.97z" stroke="none" fill="#000000" fill-rule="evenodd" /><path transform="matrix(1 0 0 -1 0 841)" d="M381.79 332.93L382.27 332.93L382.27 332.93L382.27 361.97L382.27 361.97L381.79 361.97z" stroke="none" fill="#000000" fill-rule="evenodd" /><path transform="matrix(1 0 0 -1 0 841)" d="M514.78 332.93L515.26 332.93L515.26 332.93L515.26 361.97L515.26 361.97L514.78 361.97z" stroke="none" fill="#000000" fill-rule="evenodd" /><g clip-path="url(#108)"><g clip-path="url(#109)"></g><g clip-path="url(#110)"></g></g><g clip-path="url(#111)"><g clip-path="url(#112)"></g><g clip-path="url(#113)"></g></g><g clip-path="url(#114)"><g clip-path="url(#115)"></g><g clip-path="url(#116)"></g></g><g clip-path="url(#117)"><g clip-path="url(#118)"></g><g clip-path="url(#119)"></g></g><g clip-path="url(#120)"><g clip-path="url(#121)"></g><g clip-path="url(#122)"></g><g clip-path="url(#123)"></g><g clip-path="url(#124)"></g><g clip-path="url(#125)"></g><g clip-path="url(#126)"></g><g clip-path="url(#127)"></g></g><path transform="matrix(1 0 0 -1 0 841)" d="M84.264 332.45L84.744 332.45L84.744 332.45L84.744 332.93L84.744 332.93L84.264 332.93z" stroke="none" fill="#000000" fill-rule="evenodd" /><path transform="matrix(1 0 0 -1 0 841)" d="M84.744 332.45L169.104 332.45L169.104 332.45L169.104 332.93L169.104 332.93L84.744 332.93z" stroke="none" fill="#000000" fill-rule="evenodd" /><path transform="matrix(1 0 0 -1 0 841)" d="M169.1 332.45L169.58 332.45L169.58 332.45L169.58 332.93L169.58 332.93L169.1 332.93z" stroke="none" fill="#000000" fill-rule="evenodd" /><path transform="matrix(1 0 0 -1 0 841)" d="M169.58 332.45L232.844 332.45L232.844 332.45L232.844 332.93L232.844 332.93L169.58 332.93z" stroke="none" fill="#000000" fill-rule="evenodd" /><path transform="matrix(1 0 0 -1 0 841)" d="M232.85 332.45L233.33 332.45L233.33 332.45L233.33 332.93L233.33 332.93L232.85 332.93z" stroke="none" fill="#000000" fill-rule="evenodd" /><path transform="matrix(1 0 0 -1 0 841)" d="M233.33 332.45L275.45 332.45L275.45 332.45L275.45 332.93L275.45 332.93L233.33 332.93z" stroke="none" fill="#000000" fill-rule="evenodd" /><path transform="matrix(1 0 0 -1 0 841)" d="M275.45 332.45L275.93 332.45L275.93 332.45L275.93 332.93L275.93 332.93L275.45 332.93z" stroke="none" fill="#000000" fill-rule="evenodd" /><path transform="matrix(1 0 0 -1 0 841)" d="M275.93 332.45L381.79 332.45L381.79 332.45L381.79 332.93L381.79 332.93L275.93 332.93z" stroke="none" fill="#000000" fill-rule="evenodd" /><path transform="matrix(1 0 0 -1 0 841)" d="M381.79 332.45L382.27 332.45L382.27 332.45L382.27 332.93L382.27 332.93L381.79 332.93z" stroke="none" fill="#000000" fill-rule="evenodd" /><path transform="matrix(1 0 0 -1 0 841)" d="M382.27 332.45L514.77 332.45L514.77 332.45L514.77 332.93L514.77 332.93L382.27 332.93z" stroke="none" fill="#000000" fill-rule="evenodd" /><path transform="matrix(1 0 0 -1 0 841)" d="M514.78 332.45L515.26 332.45L515.26 332.45L515.26 332.93L515.26 332.93L514.78 332.93z" stroke="none" fill="#000000" fill-rule="evenodd" /><path transform="matrix(1 0 0 -1 0 841)" d="M84.264 275.21L84.744 275.21L84.744 275.21L84.744 332.45L84.744 332.45L84.264 332.45z" stroke="none" fill="#000000" fill-rule="evenodd" /><path transform="matrix(1 0 0 -1 0 841)" d="M169.1 275.21L169.58 275.21L169.58 275.21L169.58 332.45L169.58 332.45L169.1 332.45z" stroke="none" fill="#000000" fill-rule="evenodd" /><path transform="matrix(1 0 0 -1 0 841)" d="M232.85 275.21L233.33 275.21L233.33 275.21L233.33 332.45L233.33 332.45L232.85 332.45z" stroke="none" fill="#000000" fill-rule="evenodd" /><path transform="matrix(1 0 0 -1 0 841)" d="M275.45 275.21L275.93 275.21L275.93 275.21L275.93 332.45L275.93 332.45L275.45 332.45z" stroke="none" fill="#000000" fill-rule="evenodd" /><path transform="matrix(1 0 0 -1 0 841)" d="M381.79 275.21L382.27 275.21L382.27 275.21L382.27 332.45L382.27 332.45L381.79 332.45z" stroke="none" fill="#000000" fill-rule="evenodd" /><path transform="matrix(1 0 0 -1 0 841)" d="M514.78 275.21L515.26 275.21L515.26 275.21L515.26 332.45L515.26 332.45L514.78 332.45z" stroke="none" fill="#000000" fill-rule="evenodd" /><path transform="matrix(1 0 0 -1 0 841)" d="M84.744 245.69L168.984 245.69L168.984 245.69L168.984 274.73L168.984 274.73L84.744 274.73z" stroke="none" fill="#DAEEF3" fill-rule="evenodd" /><g clip-path="url(#128)"><path transform="matrix(1 0 0 -1 0 841)" d="M89.904 255.65L163.824 255.65L163.824 255.65L163.824 274.73L163.824 274.73L89.904 274.73z" stroke="none" fill="#DAEEF3" fill-rule="evenodd" /><g clip-path="url(#129)"></g><g clip-path="url(#130)"></g></g><path transform="matrix(1 0 0 -1 0 841)" d="M169.58 245.69L232.844 245.69L232.844 245.69L232.844 274.73L232.844 274.73L169.58 274.73z" stroke="none" fill="#DAEEF3" fill-rule="evenodd" /><g clip-path="url(#131)"><path transform="matrix(1 0 0 -1 0 841)" d="M174.62 255.65L227.684 255.65L227.684 255.65L227.684 274.73L227.684 274.73L174.62 274.73z" stroke="none" fill="#DAEEF3" fill-rule="evenodd" /><g clip-path="url(#132)"></g><g clip-path="url(#133)"></g></g><path transform="matrix(1 0 0 -1 0 841)" d="M233.33 245.69L275.45 245.69L275.45 245.69L275.45 274.73L275.45 274.73L233.33 274.73z" stroke="none" fill="#DAEEF3" fill-rule="evenodd" /><g clip-path="url(#134)"><path transform="matrix(1 0 0 -1 0 841)" d="M238.49 255.65L270.29 255.65L270.29 255.65L270.29 274.73L270.29 274.73L238.49 274.73z" stroke="none" fill="#DAEEF3" fill-rule="evenodd" /><g clip-path="url(#135)"></g><g clip-path="url(#136)"></g></g><path transform="matrix(1 0 0 -1 0 841)" d="M275.93 245.69L381.67 245.69L381.67 245.69L381.67 274.73L381.67 274.73L275.93 274.73z" stroke="none" fill="#DAEEF3" fill-rule="evenodd" /><g clip-path="url(#137)"><path transform="matrix(1 0 0 -1 0 841)" d="M281.09 245.69L376.634 245.69L376.634 245.69L376.634 274.73L376.634 274.73L281.09 274.73z" stroke="none" fill="#DAEEF3" fill-rule="evenodd" /><g clip-path="url(#138)"></g><g clip-path="url(#139)"></g></g><path transform="matrix(1 0 0 -1 0 841)" d="M382.27 245.69L514.77 245.69L514.77 245.69L514.77 274.73L514.77 274.73L382.27 274.73z" stroke="none" fill="#DAEEF3" fill-rule="evenodd" /><g clip-path="url(#140)"><path transform="matrix(1 0 0 -1 0 841)" d="M387.43 255.65L509.61 255.65L509.61 255.65L509.61 274.73L509.61 274.73L387.43 274.73z" stroke="none" fill="#DAEEF3" fill-rule="evenodd" /><g clip-path="url(#141)"></g><g clip-path="url(#142)"></g></g><path transform="matrix(1 0 0 -1 0 841)" d="M84.264 274.73L84.744 274.73L84.744 274.73L84.744 275.2101L84.744 275.2101L84.264 275.2101z" stroke="none" fill="#000000" fill-rule="evenodd" /><path transform="matrix(1 0 0 -1 0 841)" d="M84.744 274.73L169.104 274.73L169.104 274.73L169.104 275.2101L169.104 275.2101L84.744 275.2101z" stroke="none" fill="#000000" fill-rule="evenodd" /><path transform="matrix(1 0 0 -1 0 841)" d="M169.1 274.73L169.58 274.73L169.58 274.73L169.58 275.2101L169.58 275.2101L169.1 275.2101z" stroke="none" fill="#000000" fill-rule="evenodd" /><path transform="matrix(1 0 0 -1 0 841)" d="M169.58 274.73L232.844 274.73L232.844 274.73L232.844 275.2101L232.844 275.2101L169.58 275.2101z" stroke="none" fill="#000000" fill-rule="evenodd" /><path transform="matrix(1 0 0 -1 0 841)" d="M232.85 274.73L233.33 274.73L233.33 274.73L233.33 275.2101L233.33 275.2101L232.85 275.2101z" stroke="none" fill="#000000" fill-rule="evenodd" /><path transform="matrix(1 0 0 -1 0 841)" d="M233.33 274.73L275.45 274.73L275.45 274.73L275.45 275.2101L275.45 275.2101L233.33 275.2101z" stroke="none" fill="#000000" fill-rule="evenodd" /><path transform="matrix(1 0 0 -1 0 841)" d="M275.45 274.73L275.93 274.73L275.93 274.73L275.93 275.2101L275.93 275.2101L275.45 275.2101z" stroke="none" fill="#000000" fill-rule="evenodd" /><path transform="matrix(1 0 0 -1 0 841)" d="M275.93 274.73L381.79 274.73L381.79 274.73L381.79 275.2101L381.79 275.2101L275.93 275.2101z" stroke="none" fill="#000000" fill-rule="evenodd" /><path transform="matrix(1 0 0 -1 0 841)" d="M381.79 274.73L382.27 274.73L382.27 274.73L382.27 275.2101L382.27 275.2101L381.79 275.2101z" stroke="none" fill="#000000" fill-rule="evenodd" /><path transform="matrix(1 0 0 -1 0 841)" d="M382.27 274.73L514.77 274.73L514.77 274.73L514.77 275.2101L514.77 275.2101L382.27 275.2101z" stroke="none" fill="#000000" fill-rule="evenodd" /><path transform="matrix(1 0 0 -1 0 841)" d="M514.78 274.73L515.26 274.73L515.26 274.73L515.26 275.2101L515.26 275.2101L514.78 275.2101z" stroke="none" fill="#000000" fill-rule="evenodd" /><path transform="matrix(1 0 0 -1 0 841)" d="M84.264 245.69L84.744 245.69L84.744 245.69L84.744 274.73L84.744 274.73L84.264 274.73z" stroke="none" fill="#000000" fill-rule="evenodd" /><path transform="matrix(1 0 0 -1 0 841)" d="M169.1 245.69L169.58 245.69L169.58 245.69L169.58 274.73L169.58 274.73L169.1 274.73z" stroke="none" fill="#000000" fill-rule="evenodd" /><path transform="matrix(1 0 0 -1 0 841)" d="M232.85 245.69L233.33 245.69L233.33 245.69L233.33 274.73L233.33 274.73L232.85 274.73z" stroke="none" fill="#000000" fill-rule="evenodd" /><path transform="matrix(1 0 0 -1 0 841)" d="M275.45 245.69L275.93 245.69L275.93 245.69L275.93 274.73L275.93 274.73L275.45 274.73z" stroke="none" fill="#000000" fill-rule="evenodd" /><path transform="matrix(1 0 0 -1 0 841)" d="M381.79 245.69L382.27 245.69L382.27 245.69L382.27 274.73L382.27 274.73L381.79 274.73z" stroke="none" fill="#000000" fill-rule="evenodd" /><path transform="matrix(1 0 0 -1 0 841)" d="M514.78 245.69L515.26 245.69L515.26 245.69L515.26 274.73L515.26 274.73L514.78 274.73z" stroke="none" fill="#000000" fill-rule="evenodd" /><g clip-path="url(#143)"><g clip-path="url(#144)"></g><g clip-path="url(#145)"></g></g><g clip-path="url(#146)"><path transform="matrix(1 0 0 -1 0 841)" d="M174.62 228.29L212.804 228.29L212.804 228.29L212.804 245.21L212.804 245.21L174.62 245.21z" stroke="none" fill="#FFFFFF" fill-rule="evenodd" /><g clip-path="url(#147)"></g><g clip-path="url(#148)"></g></g><g clip-path="url(#149)"><g clip-path="url(#150)"></g><g clip-path="url(#151)"></g></g><g clip-path="url(#152)"><g clip-path="url(#153)"></g><g clip-path="url(#154)"></g></g><g clip-path="url(#155)"><g clip-path="url(#156)"></g><g clip-path="url(#157)"></g></g><path transform="matrix(1 0 0 -1 0 841)" d="M84.264 245.21L84.744 245.21L84.744 245.21L84.744 245.69L84.744 245.69L84.264 245.69z" stroke="none" fill="#000000" fill-rule="evenodd" /><path transform="matrix(1 0 0 -1 0 841)" d="M84.744 245.21L169.104 245.21L169.104 245.21L169.104 245.69L169.104 245.69L84.744 245.69z" stroke="none" fill="#000000" fill-rule="evenodd" /><path transform="matrix(1 0 0 -1 0 841)" d="M169.1 245.21L169.58 245.21L169.58 245.21L169.58 245.69L169.58 245.69L169.1 245.69z" stroke="none" fill="#000000" fill-rule="evenodd" /><path transform="matrix(1 0 0 -1 0 841)" d="M169.58 245.21L232.844 245.21L232.844 245.21L232.844 245.69L232.844 245.69L169.58 245.69z" stroke="none" fill="#000000" fill-rule="evenodd" /><path transform="matrix(1 0 0 -1 0 841)" d="M232.85 245.21L233.33 245.21L233.33 245.21L233.33 245.69L233.33 245.69L232.85 245.69z" stroke="none" fill="#000000" fill-rule="evenodd" /><path transform="matrix(1 0 0 -1 0 841)" d="M233.33 245.21L275.45 245.21L275.45 245.21L275.45 245.69L275.45 245.69L233.33 245.69z" stroke="none" fill="#000000" fill-rule="evenodd" /><path transform="matrix(1 0 0 -1 0 841)" d="M275.45 245.21L275.93 245.21L275.93 245.21L275.93 245.69L275.93 245.69L275.45 245.69z" stroke="none" fill="#000000" fill-rule="evenodd" /><path transform="matrix(1 0 0 -1 0 841)" d="M275.93 245.21L381.79 245.21L381.79 245.21L381.79 245.69L381.79 245.69L275.93 245.69z" stroke="none" fill="#000000" fill-rule="evenodd" /><path transform="matrix(1 0 0 -1 0 841)" d="M381.79 245.21L382.27 245.21L382.27 245.21L382.27 245.69L382.27 245.69L381.79 245.69z" stroke="none" fill="#000000" fill-rule="evenodd" /><path transform="matrix(1 0 0 -1 0 841)" d="M382.27 245.21L514.77 245.21L514.77 245.21L514.77 245.69L514.77 245.69L382.27 245.69z" stroke="none" fill="#000000" fill-rule="evenodd" /><path transform="matrix(1 0 0 -1 0 841)" d="M514.78 245.21L515.26 245.21L515.26 245.21L515.26 245.69L515.26 245.69L514.78 245.69z" stroke="none" fill="#000000" fill-rule="evenodd" /><path transform="matrix(1 0 0 -1 0 841)" d="M84.264 216.17L84.744 216.17L84.744 216.17L84.744 245.21L84.744 245.21L84.264 245.21z" stroke="none" fill="#000000" fill-rule="evenodd" /><path transform="matrix(1 0 0 -1 0 841)" d="M169.1 216.17L169.58 216.17L169.58 216.17L169.58 245.21L169.58 245.21L169.1 245.21z" stroke="none" fill="#000000" fill-rule="evenodd" /><path transform="matrix(1 0 0 -1 0 841)" d="M232.85 216.17L233.33 216.17L233.33 216.17L233.33 245.21L233.33 245.21L232.85 245.21z" stroke="none" fill="#000000" fill-rule="evenodd" /><path transform="matrix(1 0 0 -1 0 841)" d="M275.45 216.17L275.93 216.17L275.93 216.17L275.93 245.21L275.93 245.21L275.45 245.21z" stroke="none" fill="#000000" fill-rule="evenodd" /><path transform="matrix(1 0 0 -1 0 841)" d="M381.79 216.17L382.27 216.17L382.27 216.17L382.27 245.21L382.27 245.21L381.79 245.21z" stroke="none" fill="#000000" fill-rule="evenodd" /><path transform="matrix(1 0 0 -1 0 841)" d="M514.78 216.17L515.26 216.17L515.26 216.17L515.26 245.21L515.26 245.21L514.78 245.21z" stroke="none" fill="#000000" fill-rule="evenodd" /><path transform="matrix(1 0 0 -1 0 841)" d="M84.744 196.61L168.984 196.61L168.984 196.61L168.984 215.69L168.984 215.69L84.744 215.69z" stroke="none" fill="#DAEEF3" fill-rule="evenodd" /><g clip-path="url(#158)"><path transform="matrix(1 0 0 -1 0 841)" d="M89.904 196.61L163.824 196.61L163.824 196.61L163.824 215.69L163.824 215.69L89.904 215.69z" stroke="none" fill="#DAEEF3" fill-rule="evenodd" /><g clip-path="url(#159)"></g><g clip-path="url(#160)"></g></g><path transform="matrix(1 0 0 -1 0 841)" d="M169.58 196.61L232.844 196.61L232.844 196.61L232.844 215.69L232.844 215.69L169.58 215.69z" stroke="none" fill="#DAEEF3" fill-rule="evenodd" /><g clip-path="url(#161)"><path transform="matrix(1 0 0 -1 0 841)" d="M174.62 196.61L227.684 196.61L227.684 196.61L227.684 215.69L227.684 215.69L174.62 215.69z" stroke="none" fill="#DAEEF3" fill-rule="evenodd" /><g clip-path="url(#162)"></g></g><path transform="matrix(1 0 0 -1 0 841)" d="M233.33 196.61L275.45 196.61L275.45 196.61L275.45 215.69L275.45 215.69L233.33 215.69z" stroke="none" fill="#DAEEF3" fill-rule="evenodd" /><g clip-path="url(#163)"><path transform="matrix(1 0 0 -1 0 841)" d="M238.49 196.61L270.29 196.61L270.29 196.61L270.29 215.69L270.29 215.69L238.49 215.69z" stroke="none" fill="#DAEEF3" fill-rule="evenodd" /><g clip-path="url(#164)"></g><g clip-path="url(#165)"></g></g><path transform="matrix(1 0 0 -1 0 841)" d="M275.93 196.61L381.67 196.61L381.67 196.61L381.67 215.69L381.67 215.69L275.93 215.69z" stroke="none" fill="#DAEEF3" fill-rule="evenodd" /><g clip-path="url(#166)"><path transform="matrix(1 0 0 -1 0 841)" d="M281.09 196.61L376.634 196.61L376.634 196.61L376.634 215.69L376.634 215.69L281.09 215.69z" stroke="none" fill="#DAEEF3" fill-rule="evenodd" /><g clip-path="url(#167)"></g><g clip-path="url(#168)"></g></g><path transform="matrix(1 0 0 -1 0 841)" d="M382.27 196.61L514.77 196.61L514.77 196.61L514.77 215.69L514.77 215.69L382.27 215.69z" stroke="none" fill="#DAEEF3" fill-rule="evenodd" /><g clip-path="url(#169)"><path transform="matrix(1 0 0 -1 0 841)" d="M387.43 196.61L509.61 196.61L509.61 196.61L509.61 215.69L509.61 215.69L387.43 215.69z" stroke="none" fill="#DAEEF3" fill-rule="evenodd" /><g clip-path="url(#170)"></g><g clip-path="url(#171)"></g></g><path transform="matrix(1 0 0 -1 0 841)" d="M84.264 215.69L84.744 215.69L84.744 215.69L84.744 216.17L84.744 216.17L84.264 216.17z" stroke="none" fill="#000000" fill-rule="evenodd" /><path transform="matrix(1 0 0 -1 0 841)" d="M84.744 215.69L169.104 215.69L169.104 215.69L169.104 216.17L169.104 216.17L84.744 216.17z" stroke="none" fill="#000000" fill-rule="evenodd" /><path transform="matrix(1 0 0 -1 0 841)" d="M169.1 215.69L169.58 215.69L169.58 215.69L169.58 216.17L169.58 216.17L169.1 216.17z" stroke="none" fill="#000000" fill-rule="evenodd" /><path transform="matrix(1 0 0 -1 0 841)" d="M169.58 215.69L232.844 215.69L232.844 215.69L232.844 216.17L232.844 216.17L169.58 216.17z" stroke="none" fill="#000000" fill-rule="evenodd" /><path transform="matrix(1 0 0 -1 0 841)" d="M232.85 215.69L233.33 215.69L233.33 215.69L233.33 216.17L233.33 216.17L232.85 216.17z" stroke="none" fill="#000000" fill-rule="evenodd" /><path transform="matrix(1 0 0 -1 0 841)" d="M233.33 215.69L275.45 215.69L275.45 215.69L275.45 216.17L275.45 216.17L233.33 216.17z" stroke="none" fill="#000000" fill-rule="evenodd" /><path transform="matrix(1 0 0 -1 0 841)" d="M275.45 215.69L275.93 215.69L275.93 215.69L275.93 216.17L275.93 216.17L275.45 216.17z" stroke="none" fill="#000000" fill-rule="evenodd" /><path transform="matrix(1 0 0 -1 0 841)" d="M275.93 215.69L381.79 215.69L381.79 215.69L381.79 216.17L381.79 216.17L275.93 216.17z" stroke="none" fill="#000000" fill-rule="evenodd" /><path transform="matrix(1 0 0 -1 0 841)" d="M381.79 215.69L382.27 215.69L382.27 215.69L382.27 216.17L382.27 216.17L381.79 216.17z" stroke="none" fill="#000000" fill-rule="evenodd" /><path transform="matrix(1 0 0 -1 0 841)" d="M382.27 215.69L514.77 215.69L514.77 215.69L514.77 216.17L514.77 216.17L382.27 216.17z" stroke="none" fill="#000000" fill-rule="evenodd" /><path transform="matrix(1 0 0 -1 0 841)" d="M514.78 215.69L515.26 215.69L515.26 215.69L515.26 216.17L515.26 216.17L514.78 216.17z" stroke="none" fill="#000000" fill-rule="evenodd" /><path transform="matrix(1 0 0 -1 0 841)" d="M84.264 196.61L84.744 196.61L84.744 196.61L84.744 215.69L84.744 215.69L84.264 215.69z" stroke="none" fill="#000000" fill-rule="evenodd" /><path transform="matrix(1 0 0 -1 0 841)" d="M169.1 196.61L169.58 196.61L169.58 196.61L169.58 215.69L169.58 215.69L169.1 215.69z" stroke="none" fill="#000000" fill-rule="evenodd" /><path transform="matrix(1 0 0 -1 0 841)" d="M232.85 196.61L233.33 196.61L233.33 196.61L233.33 215.69L233.33 215.69L232.85 215.69z" stroke="none" fill="#000000" fill-rule="evenodd" /><path transform="matrix(1 0 0 -1 0 841)" d="M275.45 196.61L275.93 196.61L275.93 196.61L275.93 215.69L275.93 215.69L275.45 215.69z" stroke="none" fill="#000000" fill-rule="evenodd" /><path transform="matrix(1 0 0 -1 0 841)" d="M381.79 196.61L382.27 196.61L382.27 196.61L382.27 215.69L382.27 215.69L381.79 215.69z" stroke="none" fill="#000000" fill-rule="evenodd" /><path transform="matrix(1 0 0 -1 0 841)" d="M514.78 196.61L515.26 196.61L515.26 196.61L515.26 215.69L515.26 215.69L514.78 215.69z" stroke="none" fill="#000000" fill-rule="evenodd" /><g clip-path="url(#172)"><g clip-path="url(#173)"></g><g clip-path="url(#174)"></g></g><g clip-path="url(#175)"><path transform="matrix(1 0 0 -1 0 841)" d="M174.62 179.18L212.804 179.18L212.804 179.18L212.804 196.124L212.804 196.124L174.62 196.124z" stroke="none" fill="#FFFFFF" fill-rule="evenodd" /><g clip-path="url(#176)"></g><g clip-path="url(#177)"></g></g><g clip-path="url(#178)"><g clip-path="url(#179)"></g><g clip-path="url(#180)"></g></g><g clip-path="url(#181)"><g clip-path="url(#182)"></g><g clip-path="url(#183)"></g></g><g clip-path="url(#184)"><g clip-path="url(#185)"></g><g clip-path="url(#186)"></g><g clip-path="url(#187)"></g><g clip-path="url(#188)"></g></g><path transform="matrix(1 0 0 -1 0 841)" d="M84.264 196.13L84.744 196.13L84.744 196.13L84.744 196.61L84.744 196.61L84.264 196.61z" stroke="none" fill="#000000" fill-rule="evenodd" /><path transform="matrix(1 0 0 -1 0 841)" d="M84.744 196.13L169.104 196.13L169.104 196.13L169.104 196.61L169.104 196.61L84.744 196.61z" stroke="none" fill="#000000" fill-rule="evenodd" /><path transform="matrix(1 0 0 -1 0 841)" d="M169.1 196.13L169.58 196.13L169.58 196.13L169.58 196.61L169.58 196.61L169.1 196.61z" stroke="none" fill="#000000" fill-rule="evenodd" /><path transform="matrix(1 0 0 -1 0 841)" d="M169.58 196.13L232.844 196.13L232.844 196.13L232.844 196.61L232.844 196.61L169.58 196.61z" stroke="none" fill="#000000" fill-rule="evenodd" /><path transform="matrix(1 0 0 -1 0 841)" d="M232.85 196.13L233.33 196.13L233.33 196.13L233.33 196.61L233.33 196.61L232.85 196.61z" stroke="none" fill="#000000" fill-rule="evenodd" /><path transform="matrix(1 0 0 -1 0 841)" d="M233.33 196.13L275.45 196.13L275.45 196.13L275.45 196.61L275.45 196.61L233.33 196.61z" stroke="none" fill="#000000" fill-rule="evenodd" /><path transform="matrix(1 0 0 -1 0 841)" d="M275.45 196.13L275.93 196.13L275.93 196.13L275.93 196.61L275.93 196.61L275.45 196.61z" stroke="none" fill="#000000" fill-rule="evenodd" /><path transform="matrix(1 0 0 -1 0 841)" d="M275.93 196.13L381.79 196.13L381.79 196.13L381.79 196.61L381.79 196.61L275.93 196.61z" stroke="none" fill="#000000" fill-rule="evenodd" /><path transform="matrix(1 0 0 -1 0 841)" d="M381.79 196.13L382.27 196.13L382.27 196.13L382.27 196.61L382.27 196.61L381.79 196.61z" stroke="none" fill="#000000" fill-rule="evenodd" /><path transform="matrix(1 0 0 -1 0 841)" d="M382.27 196.13L514.77 196.13L514.77 196.13L514.77 196.61L514.77 196.61L382.27 196.61z" stroke="none" fill="#000000" fill-rule="evenodd" /><path transform="matrix(1 0 0 -1 0 841)" d="M514.78 196.13L515.26 196.13L515.26 196.13L515.26 196.61L515.26 196.61L514.78 196.61z" stroke="none" fill="#000000" fill-rule="evenodd" /><path transform="matrix(1 0 0 -1 0 841)" d="M84.264 167.06L84.744 167.06L84.744 167.06L84.744 196.124L84.744 196.124L84.264 196.124z" stroke="none" fill="#000000" fill-rule="evenodd" /><path transform="matrix(1 0 0 -1 0 841)" d="M169.1 167.06L169.58 167.06L169.58 167.06L169.58 196.124L169.58 196.124L169.1 196.124z" stroke="none" fill="#000000" fill-rule="evenodd" /><path transform="matrix(1 0 0 -1 0 841)" d="M232.85 167.06L233.33 167.06L233.33 167.06L233.33 196.124L233.33 196.124L232.85 196.124z" stroke="none" fill="#000000" fill-rule="evenodd" /><path transform="matrix(1 0 0 -1 0 841)" d="M275.45 167.06L275.93 167.06L275.93 167.06L275.93 196.124L275.93 196.124L275.45 196.124z" stroke="none" fill="#000000" fill-rule="evenodd" /><path transform="matrix(1 0 0 -1 0 841)" d="M381.79 167.06L382.27 167.06L382.27 167.06L382.27 196.124L382.27 196.124L381.79 196.124z" stroke="none" fill="#000000" fill-rule="evenodd" /><path transform="matrix(1 0 0 -1 0 841)" d="M514.78 167.06L515.26 167.06L515.26 167.06L515.26 196.124L515.26 196.124L514.78 196.124z" stroke="none" fill="#000000" fill-rule="evenodd" /><path transform="matrix(1 0 0 -1 0 841)" d="M84.744 137.42L168.984 137.42L168.984 137.42L168.984 166.46L168.984 166.46L84.744 166.46z" stroke="none" fill="#DAEEF3" fill-rule="evenodd" /><g clip-path="url(#189)"><path transform="matrix(1 0 0 -1 0 841)" d="M89.904 147.5L163.824 147.5L163.824 147.5L163.824 166.46L163.824 166.46L89.904 166.46z" stroke="none" fill="#DAEEF3" fill-rule="evenodd" /><g clip-path="url(#190)"></g><g clip-path="url(#191)"></g></g><path transform="matrix(1 0 0 -1 0 841)" d="M169.58 137.42L232.844 137.42L232.844 137.42L232.844 166.46L232.844 166.46L169.58 166.46z" stroke="none" fill="#DAEEF3" fill-rule="evenodd" /><g clip-path="url(#192)"><path transform="matrix(1 0 0 -1 0 841)" d="M174.62 147.5L227.684 147.5L227.684 147.5L227.684 166.46L227.684 166.46L174.62 166.46z" stroke="none" fill="#DAEEF3" fill-rule="evenodd" /><g clip-path="url(#193)"></g><g clip-path="url(#194)"></g></g><path transform="matrix(1 0 0 -1 0 841)" d="M233.33 137.42L275.45 137.42L275.45 137.42L275.45 166.46L275.45 166.46L233.33 166.46z" stroke="none" fill="#DAEEF3" fill-rule="evenodd" /><g clip-path="url(#195)"><path transform="matrix(1 0 0 -1 0 841)" d="M238.49 147.5L270.29 147.5L270.29 147.5L270.29 166.46L270.29 166.46L238.49 166.46z" stroke="none" fill="#DAEEF3" fill-rule="evenodd" /><g clip-path="url(#196)"></g><g clip-path="url(#197)"></g></g><path transform="matrix(1 0 0 -1 0 841)" d="M275.93 137.42L381.67 137.42L381.67 137.42L381.67 166.46L381.67 166.46L275.93 166.46z" stroke="none" fill="#DAEEF3" fill-rule="evenodd" /><g clip-path="url(#198)"><path transform="matrix(1 0 0 -1 0 841)" d="M281.09 137.42L376.634 137.42L376.634 137.42L376.634 166.46L376.634 166.46L281.09 166.46z" stroke="none" fill="#DAEEF3" fill-rule="evenodd" /><g clip-path="url(#199)"></g></g><path transform="matrix(1 0 0 -1 0 841)" d="M382.27 137.42L514.77 137.42L514.77 137.42L514.77 166.46L514.77 166.46L382.27 166.46z" stroke="none" fill="#DAEEF3" fill-rule="evenodd" /><g clip-path="url(#200)"><path transform="matrix(1 0 0 -1 0 841)" d="M387.43 147.5L509.61 147.5L509.61 147.5L509.61 166.46L509.61 166.46L387.43 166.46z" stroke="none" fill="#DAEEF3" fill-rule="evenodd" /><g clip-path="url(#201)"></g><g clip-path="url(#202)"></g></g><path transform="matrix(1 0 0 -1 0 841)" d="M84.264 166.58L84.744 166.58L84.744 166.58L84.744 167.06L84.744 167.06L84.264 167.06z" stroke="none" fill="#000000" fill-rule="evenodd" /><path transform="matrix(1 0 0 -1 0 841)" d="M84.744 166.58L169.104 166.58L169.104 166.58L169.104 167.06L169.104 167.06L84.744 167.06z" stroke="none" fill="#000000" fill-rule="evenodd" /><path transform="matrix(1 0 0 -1 0 841)" d="M169.1 166.58L169.58 166.58L169.58 166.58L169.58 167.06L169.58 167.06L169.1 167.06z" stroke="none" fill="#000000" fill-rule="evenodd" /><path transform="matrix(1 0 0 -1 0 841)" d="M169.58 166.58L232.844 166.58L232.844 166.58L232.844 167.06L232.844 167.06L169.58 167.06z" stroke="none" fill="#000000" fill-rule="evenodd" /><path transform="matrix(1 0 0 -1 0 841)" d="M232.85 166.58L233.33 166.58L233.33 166.58L233.33 167.06L233.33 167.06L232.85 167.06z" stroke="none" fill="#000000" fill-rule="evenodd" /><path transform="matrix(1 0 0 -1 0 841)" d="M233.33 166.58L275.45 166.58L275.45 166.58L275.45 167.06L275.45 167.06L233.33 167.06z" stroke="none" fill="#000000" fill-rule="evenodd" /><path transform="matrix(1 0 0 -1 0 841)" d="M275.45 166.58L275.93 166.58L275.93 166.58L275.93 167.06L275.93 167.06L275.45 167.06z" stroke="none" fill="#000000" fill-rule="evenodd" /><path transform="matrix(1 0 0 -1 0 841)" d="M275.93 166.58L381.79 166.58L381.79 166.58L381.79 167.06L381.79 167.06L275.93 167.06z" stroke="none" fill="#000000" fill-rule="evenodd" /><path transform="matrix(1 0 0 -1 0 841)" d="M381.79 166.58L382.27 166.58L382.27 166.58L382.27 167.06L382.27 167.06L381.79 167.06z" stroke="none" fill="#000000" fill-rule="evenodd" /><path transform="matrix(1 0 0 -1 0 841)" d="M382.27 166.58L514.77 166.58L514.77 166.58L514.77 167.06L514.77 167.06L382.27 167.06z" stroke="none" fill="#000000" fill-rule="evenodd" /><path transform="matrix(1 0 0 -1 0 841)" d="M514.78 166.58L515.26 166.58L515.26 166.58L515.26 167.06L515.26 167.06L514.78 167.06z" stroke="none" fill="#000000" fill-rule="evenodd" /><path transform="matrix(1 0 0 -1 0 841)" d="M84.264 137.42L84.744 137.42L84.744 137.42L84.744 166.58L84.744 166.58L84.264 166.58z" stroke="none" fill="#000000" fill-rule="evenodd" /><path transform="matrix(1 0 0 -1 0 841)" d="M84.264 136.94L84.744 136.94L84.744 136.94L84.744 137.42L84.744 137.42L84.264 137.42z" stroke="none" fill="#000000" fill-rule="evenodd" /><path transform="matrix(1 0 0 -1 0 841)" d="M84.264 136.94L84.744 136.94L84.744 136.94L84.744 137.42L84.744 137.42L84.264 137.42z" stroke="none" fill="#000000" fill-rule="evenodd" /><path transform="matrix(1 0 0 -1 0 841)" d="M84.744 136.94L169.104 136.94L169.104 136.94L169.104 137.42L169.104 137.42L84.744 137.42z" stroke="none" fill="#000000" fill-rule="evenodd" /><path transform="matrix(1 0 0 -1 0 841)" d="M169.1 137.42L169.58 137.42L169.58 137.42L169.58 166.58L169.58 166.58L169.1 166.58z" stroke="none" fill="#000000" fill-rule="evenodd" /><path transform="matrix(1 0 0 -1 0 841)" d="M169.1 136.94L169.58 136.94L169.58 136.94L169.58 137.42L169.58 137.42L169.1 137.42z" stroke="none" fill="#000000" fill-rule="evenodd" /><path transform="matrix(1 0 0 -1 0 841)" d="M169.58 136.94L232.844 136.94L232.844 136.94L232.844 137.42L232.844 137.42L169.58 137.42z" stroke="none" fill="#000000" fill-rule="evenodd" /><path transform="matrix(1 0 0 -1 0 841)" d="M232.85 137.42L233.33 137.42L233.33 137.42L233.33 166.58L233.33 166.58L232.85 166.58z" stroke="none" fill="#000000" fill-rule="evenodd" /><path transform="matrix(1 0 0 -1 0 841)" d="M232.85 136.94L233.33 136.94L233.33 136.94L233.33 137.42L233.33 137.42L232.85 137.42z" stroke="none" fill="#000000" fill-rule="evenodd" /><path transform="matrix(1 0 0 -1 0 841)" d="M233.33 136.94L275.45 136.94L275.45 136.94L275.45 137.42L275.45 137.42L233.33 137.42z" stroke="none" fill="#000000" fill-rule="evenodd" /><path transform="matrix(1 0 0 -1 0 841)" d="M275.45 137.42L275.93 137.42L275.93 137.42L275.93 166.58L275.93 166.58L275.45 166.58z" stroke="none" fill="#000000" fill-rule="evenodd" /><path transform="matrix(1 0 0 -1 0 841)" d="M275.45 136.94L275.93 136.94L275.93 136.94L275.93 137.42L275.93 137.42L275.45 137.42z" stroke="none" fill="#000000" fill-rule="evenodd" /><path transform="matrix(1 0 0 -1 0 841)" d="M275.93 136.94L381.79 136.94L381.79 136.94L381.79 137.42L381.79 137.42L275.93 137.42z" stroke="none" fill="#000000" fill-rule="evenodd" /><path transform="matrix(1 0 0 -1 0 841)" d="M381.79 137.42L382.27 137.42L382.27 137.42L382.27 166.58L382.27 166.58L381.79 166.58z" stroke="none" fill="#000000" fill-rule="evenodd" /><path transform="matrix(1 0 0 -1 0 841)" d="M381.79 136.94L382.27 136.94L382.27 136.94L382.27 137.42L382.27 137.42L381.79 137.42z" stroke="none" fill="#000000" fill-rule="evenodd" /><path transform="matrix(1 0 0 -1 0 841)" d="M382.27 136.94L514.77 136.94L514.77 136.94L514.77 137.42L514.77 137.42L382.27 137.42z" stroke="none" fill="#000000" fill-rule="evenodd" /><path transform="matrix(1 0 0 -1 0 841)" d="M514.78 137.42L515.26 137.42L515.26 137.42L515.26 166.58L515.26 166.58L514.78 166.58z" stroke="none" fill="#000000" fill-rule="evenodd" /><path transform="matrix(1 0 0 -1 0 841)" d="M514.78 136.94L515.26 136.94L515.26 136.94L515.26 137.42L515.26 137.42L514.78 137.42z" stroke="none" fill="#000000" fill-rule="evenodd" /><path transform="matrix(1 0 0 -1 0 841)" d="M514.78 136.94L515.26 136.94L515.26 136.94L515.26 137.42L515.26 137.42L514.78 137.42z" stroke="none" fill="#000000" fill-rule="evenodd" /></g></g></g></svg>