<svg xmlns="http://www.w3.org/2000/svg" xmlns:xlink="http://www.w3.org/1999/xlink" id="body_175" preserveAspectRatio="xMinYMin meet" viewBox="0 0 793 1121"><defs><clipPath id="1"><path d="M0 841L0 -0.9199829L0 -0.9199829L595.32 -0.9199829L595.32 -0.9199829L595.32 841L595.32 841L0 841z" /></clipPath><clipPath id="2"><path d="M0.00125 841.0914L595.4112 841.0914L595.4112 841.0914L595.4112 -0.9186401L595.4112 -0.9186401L0.00125 -0.9186401z" /></clipPath><clipPath id="3"><path d="M288.05 781.211L316.01 781.211L316.01 781.211L316.01 762.011L316.01 762.011L288.05 762.011z" /></clipPath><clipPath id="4"><path d="M288.05 781.216L316.01 781.216L316.01 781.216L316.01 762.016L316.01 762.016L288.05 762.016z" /></clipPath><clipPath id="5"><path d="M288.05 781.216L316.01 781.216L316.01 781.216L316.01 762.016L316.01 762.016L288.05 762.016z" /></clipPath><clipPath id="6"><path d="M84.751 114.55L179.191 114.55L179.191 114.55L179.191 89.44L179.191 89.44L84.751 89.44z" /></clipPath><clipPath id="7"><path d="M84.744 114.54L179.184 114.54L179.184 114.54L179.184 89.43597L179.184 89.43597L84.744 89.43597z" /></clipPath><clipPath id="8"><path d="M84.744 114.54L179.184 114.54L179.184 114.54L179.184 89.43597L179.184 89.43597L84.744 89.43597z" /></clipPath><clipPath id="9"><path d="M179.67 114.55L232.845 114.55L232.845 114.55L232.845 89.44L232.845 89.44L179.67 89.44z" /></clipPath><clipPath id="10"><path d="M179.66 114.54L232.844 114.54L232.844 114.54L232.844 89.43597L232.844 89.43597L179.66 89.43597z" /></clipPath><clipPath id="11"><path d="M179.66 114.54L232.844 114.54L232.844 114.54L232.844 89.43597L232.844 89.43597L179.66 89.43597z" /></clipPath><clipPath id="12"><path d="M233.33 114.55L281.21 114.55L281.21 114.55L281.21 89.44L281.21 89.44L233.33 89.44z" /></clipPath><clipPath id="13"><path d="M233.33 114.54L281.21 114.54L281.21 114.54L281.21 89.43597L281.21 89.43597L233.33 89.43597z" /></clipPath><clipPath id="14"><path d="M233.33 114.54L281.21 114.54L281.21 114.54L281.21 89.43597L281.21 89.43597L233.33 89.43597z" /></clipPath><clipPath id="15"><path d="M281.81 114.55L335.72 114.55L335.72 114.55L335.72 89.44L335.72 89.44L281.81 89.44z" /></clipPath><clipPath id="16"><path d="M281.81 114.54L335.714 114.54L335.714 114.54L335.714 89.43597L335.714 89.43597L281.81 89.43597z" /></clipPath><clipPath id="17"><path d="M281.81 114.54L335.714 114.54L335.714 114.54L335.714 89.43597L335.714 89.43597L281.81 89.43597z" /></clipPath><clipPath id="18"><path d="M336.2 114.55L510.7 114.55L510.7 114.55L510.7 89.44L510.7 89.44L336.2 89.44z" /></clipPath><clipPath id="19"><path d="M336.19 114.54L510.69 114.54L510.69 114.54L510.69 89.43597L510.69 89.43597L336.19 89.43597z" /></clipPath><clipPath id="20"><path d="M336.19 114.54L510.69 114.54L510.69 114.54L510.69 89.43597L510.69 89.43597L336.19 89.43597z" /></clipPath><clipPath id="21"><path d="M336.2 216.55L510.7 216.55L510.7 216.55L510.7 115.03L510.7 115.03L336.2 115.03z" /></clipPath><clipPath id="22"><path d="M336.19 216.54L510.69 216.54L510.69 216.54L510.69 115.02L510.69 115.02L336.19 115.02z" /></clipPath><clipPath id="23"><path d="M336.19 216.54L510.69 216.54L510.69 216.54L510.69 115.02L510.69 115.02L336.19 115.02z" /></clipPath><clipPath id="24"><path d="M336.19 216.54L510.69 216.54L510.69 216.54L510.69 115.02L510.69 115.02L336.19 115.02z" /></clipPath><clipPath id="25"><path d="M336.19 216.54L510.69 216.54L510.69 216.54L510.69 115.02L510.69 115.02L336.19 115.02z" /></clipPath><clipPath id="26"><path d="M336.19 216.54L510.69 216.54L510.69 216.54L510.69 115.02L510.69 115.02L336.19 115.02z" /></clipPath><clipPath id="27"><path d="M336.19 216.54L510.69 216.54L510.69 216.54L510.69 115.02L510.69 115.02L336.19 115.02z" /></clipPath><clipPath id="28"><path d="M336.19 216.54L510.69 216.54L510.69 216.54L510.69 115.02L510.69 115.02L336.19 115.02z" /></clipPath><clipPath id="29"><path d="M336.19 216.54L510.69 216.54L510.69 216.54L510.69 115.02L510.69 115.02L336.19 115.02z" /></clipPath><clipPath id="30"><path d="M336.19 216.54L510.69 216.54L510.69 216.54L510.69 115.02L510.69 115.02L336.19 115.02z" /></clipPath><clipPath id="31"><path d="M336.19 216.54L510.69 216.54L510.69 216.54L510.69 115.02L510.69 115.02L336.19 115.02z" /></clipPath><clipPath id="32"><path d="M336.19 216.54L510.69 216.54L510.69 216.54L510.69 115.02L510.69 115.02L336.19 115.02z" /></clipPath><clipPath id="33"><path d="M336.19 216.54L510.69 216.54L510.69 216.54L510.69 115.02L510.69 115.02L336.19 115.02z" /></clipPath><clipPath id="34"><path d="M336.19 216.54L510.69 216.54L510.69 216.54L510.69 115.02L510.69 115.02L336.19 115.02z" /></clipPath><clipPath id="35"><path d="M336.19 216.54L510.69 216.54L510.69 216.54L510.69 115.02L510.69 115.02L336.19 115.02z" /></clipPath><clipPath id="36"><path d="M336.19 216.54L510.69 216.54L510.69 216.54L510.69 115.02L510.69 115.02L336.19 115.02z" /></clipPath><clipPath id="37"><path d="M336.19 216.54L510.69 216.54L510.69 216.54L510.69 115.02L510.69 115.02L336.19 115.02z" /></clipPath><clipPath id="38"><path d="M336.19 216.54L510.69 216.54L510.69 216.54L510.69 115.02L510.69 115.02L336.19 115.02z" /></clipPath><clipPath id="39"><path d="M336.19 216.54L510.69 216.54L510.69 216.54L510.69 115.02L510.69 115.02L336.19 115.02z" /></clipPath><clipPath id="40"><path d="M336.19 216.54L510.69 216.54L510.69 216.54L510.69 115.02L510.69 115.02L336.19 115.02z" /></clipPath><clipPath id="41"><path d="M336.19 216.54L510.69 216.54L510.69 216.54L510.69 115.02L510.69 115.02L336.19 115.02z" /></clipPath><clipPath id="42"><path d="M336.19 216.54L510.69 216.54L510.69 216.54L510.69 115.02L510.69 115.02L336.19 115.02z" /></clipPath><clipPath id="43"><path d="M336.19 216.54L510.69 216.54L510.69 216.54L510.69 115.02L510.69 115.02L336.19 115.02z" /></clipPath><clipPath id="44"><path d="M336.19 216.54L510.69 216.54L510.69 216.54L510.69 115.02L510.69 115.02L336.19 115.02z" /></clipPath><clipPath id="45"><path d="M336.19 216.54L510.69 216.54L510.69 216.54L510.69 115.02L510.69 115.02L336.19 115.02z" /></clipPath><clipPath id="46"><path d="M336.19 216.54L510.69 216.54L510.69 216.54L510.69 115.02L510.69 115.02L336.19 115.02z" /></clipPath><clipPath id="47"><path d="M336.19 216.54L510.69 216.54L510.69 216.54L510.69 115.02L510.69 115.02L336.19 115.02z" /></clipPath><clipPath id="48"><path d="M84.751 242.11L179.191 242.11L179.191 242.11L179.191 217.03L179.191 217.03L84.751 217.03z" /></clipPath><clipPath id="49"><path d="M84.744 242.1L179.184 242.1L179.184 242.1L179.184 217.02L179.184 217.02L84.744 217.02z" /></clipPath><clipPath id="50"><path d="M84.744 242.1L179.184 242.1L179.184 242.1L179.184 217.02L179.184 217.02L84.744 217.02z" /></clipPath><clipPath id="51"><path d="M179.67 242.11L232.845 242.11L232.845 242.11L232.845 217.03L232.845 217.03L179.67 217.03z" /></clipPath><clipPath id="52"><path d="M179.66 242.1L232.844 242.1L232.844 242.1L232.844 217.02L232.844 217.02L179.66 217.02z" /></clipPath><clipPath id="53"><path d="M179.66 242.1L232.844 242.1L232.844 242.1L232.844 217.02L232.844 217.02L179.66 217.02z" /></clipPath><clipPath id="54"><path d="M233.33 242.11L281.21 242.11L281.21 242.11L281.21 217.03L281.21 217.03L233.33 217.03z" /></clipPath><clipPath id="55"><path d="M233.33 242.1L281.21 242.1L281.21 242.1L281.21 217.02L281.21 217.02L233.33 217.02z" /></clipPath><clipPath id="56"><path d="M233.33 242.1L281.21 242.1L281.21 242.1L281.21 217.02L281.21 217.02L233.33 217.02z" /></clipPath><clipPath id="57"><path d="M281.81 242.11L335.72 242.11L335.72 242.11L335.72 217.03L335.72 217.03L281.81 217.03z" /></clipPath><clipPath id="58"><path d="M281.81 242.1L335.714 242.1L335.714 242.1L335.714 217.02L335.714 217.02L281.81 217.02z" /></clipPath><clipPath id="59"><path d="M281.81 242.1L335.714 242.1L335.714 242.1L335.714 217.02L335.714 217.02L281.81 217.02z" /></clipPath><clipPath id="60"><path d="M336.2 242.11L510.7 242.11L510.7 242.11L510.7 217.03L510.7 217.03L336.2 217.03z" /></clipPath><clipPath id="61"><path d="M336.19 242.1L510.69 242.1L510.69 242.1L510.69 217.02L510.69 217.02L336.19 217.02z" /></clipPath><clipPath id="62"><path d="M336.19 242.1L510.69 242.1L510.69 242.1L510.69 217.02L510.69 217.02L336.19 217.02z" /></clipPath><clipPath id="63"><path d="M336.19 242.1L510.69 242.1L510.69 242.1L510.69 217.02L510.69 217.02L336.19 217.02z" /></clipPath><clipPath id="64"><path d="M84.751 554.52L174.151 554.52L174.151 554.52L174.151 529.44L174.151 529.44L84.751 529.44z" /></clipPath><clipPath id="65"><path d="M84.744 554.51L174.144 554.51L174.144 554.51L174.144 529.4301L174.144 529.4301L84.744 529.4301z" /></clipPath><clipPath id="66"><path d="M84.744 554.51L174.144 554.51L174.144 554.51L174.144 529.4301L174.144 529.4301L84.744 529.4301z" /></clipPath><clipPath id="67"><path d="M174.63 554.52L238.365 554.52L238.365 554.52L238.365 529.44L238.365 529.44L174.63 529.44z" /></clipPath><clipPath id="68"><path d="M174.62 554.51L238.364 554.51L238.364 554.51L238.364 529.4301L238.364 529.4301L174.62 529.4301z" /></clipPath><clipPath id="69"><path d="M174.62 554.51L238.364 554.51L238.364 554.51L238.364 529.4301L238.364 529.4301L174.62 529.4301z" /></clipPath><clipPath id="70"><path d="M238.85 554.52L280.73 554.52L280.73 554.52L280.73 529.44L280.73 529.44L238.85 529.44z" /></clipPath><clipPath id="71"><path d="M238.85 554.51L280.73 554.51L280.73 554.51L280.73 529.4301L280.73 529.4301L238.85 529.4301z" /></clipPath><clipPath id="72"><path d="M238.85 554.51L280.73 554.51L280.73 554.51L280.73 529.4301L280.73 529.4301L238.85 529.4301z" /></clipPath><clipPath id="73"><path d="M281.21 554.52L338.84 554.52L338.84 554.52L338.84 529.44L338.84 529.44L281.21 529.44z" /></clipPath><clipPath id="74"><path d="M281.21 554.51L338.834 554.51L338.834 554.51L338.834 529.4301L338.834 529.4301L281.21 529.4301z" /></clipPath><clipPath id="75"><path d="M281.21 554.51L338.834 554.51L338.834 554.51L338.834 529.4301L338.834 529.4301L281.21 529.4301z" /></clipPath><clipPath id="76"><path d="M339.32 554.52L499.42 554.52L499.42 554.52L499.42 529.44L499.42 529.44L339.32 529.44z" /></clipPath><clipPath id="77"><path d="M339.31 554.51L499.41 554.51L499.41 554.51L499.41 529.4301L499.41 529.4301L339.31 529.4301z" /></clipPath><clipPath id="78"><path d="M339.31 554.51L499.41 554.51L499.41 554.51L499.41 529.4301L499.41 529.4301L339.31 529.4301z" /></clipPath><clipPath id="79"><path d="M84.751 580.08L174.151 580.08L174.151 580.08L174.151 555L174.151 555L84.751 555z" /></clipPath><clipPath id="80"><path d="M84.744 580.07L174.144 580.07L174.144 580.07L174.144 554.99L174.144 554.99L84.744 554.99z" /></clipPath><clipPath id="81"><path d="M84.744 580.07L174.144 580.07L174.144 580.07L174.144 554.99L174.144 554.99L84.744 554.99z" /></clipPath><clipPath id="82"><path d="M174.63 580.08L238.365 580.08L238.365 580.08L238.365 555L238.365 555L174.63 555z" /></clipPath><clipPath id="83"><path d="M174.62 580.07L238.364 580.07L238.364 580.07L238.364 554.99L238.364 554.99L174.62 554.99z" /></clipPath><clipPath id="84"><path d="M174.62 580.07L238.364 580.07L238.364 580.07L238.364 554.99L238.364 554.99L174.62 554.99z" /></clipPath><clipPath id="85"><path d="M238.85 580.08L280.73 580.08L280.73 580.08L280.73 555L280.73 555L238.85 555z" /></clipPath><clipPath id="86"><path d="M238.85 580.07L280.73 580.07L280.73 580.07L280.73 554.99L280.73 554.99L238.85 554.99z" /></clipPath><clipPath id="87"><path d="M238.85 580.07L280.73 580.07L280.73 580.07L280.73 554.99L280.73 554.99L238.85 554.99z" /></clipPath><clipPath id="88"><path d="M281.21 580.08L338.84 580.08L338.84 580.08L338.84 555L338.84 555L281.21 555z" /></clipPath><clipPath id="89"><path d="M281.21 580.07L338.834 580.07L338.834 580.07L338.834 554.99L338.834 554.99L281.21 554.99z" /></clipPath><clipPath id="90"><path d="M281.21 580.07L338.834 580.07L338.834 580.07L338.834 554.99L338.834 554.99L281.21 554.99z" /></clipPath><clipPath id="91"><path d="M281.21 580.07L338.834 580.07L338.834 580.07L338.834 554.99L338.834 554.99L281.21 554.99z" /></clipPath><clipPath id="92"><path d="M339.32 580.08L499.42 580.08L499.42 580.08L499.42 555L499.42 555L339.32 555z" /></clipPath><clipPath id="93"><path d="M339.31 580.07L499.41 580.07L499.41 580.07L499.41 554.99L499.41 554.99L339.31 554.99z" /></clipPath><clipPath id="94"><path d="M339.31 580.07L499.41 580.07L499.41 580.07L499.41 554.99L499.41 554.99L339.31 554.99z" /></clipPath><clipPath id="95"><path d="M339.31 580.07L499.41 580.07L499.41 580.07L499.41 554.99L499.41 554.99L339.31 554.99z" /></clipPath><clipPath id="96"><path d="M339.31 580.07L499.41 580.07L499.41 580.07L499.41 554.99L499.41 554.99L339.31 554.99z" /></clipPath><clipPath id="97"><path d="M84.751 605.64L174.151 605.64L174.151 605.64L174.151 580.56L174.151 580.56L84.751 580.56z" /></clipPath><clipPath id="98"><path d="M84.744 605.63L174.144 605.63L174.144 605.63L174.144 580.55L174.144 580.55L84.744 580.55z" /></clipPath><clipPath id="99"><path d="M84.744 605.63L174.144 605.63L174.144 605.63L174.144 580.55L174.144 580.55L84.744 580.55z" /></clipPath><clipPath id="100"><path d="M174.63 605.64L238.365 605.64L238.365 605.64L238.365 580.56L238.365 580.56L174.63 580.56z" /></clipPath><clipPath id="101"><path d="M174.62 605.63L238.364 605.63L238.364 605.63L238.364 580.55L238.364 580.55L174.62 580.55z" /></clipPath><clipPath id="102"><path d="M174.62 605.63L238.364 605.63L238.364 605.63L238.364 580.55L238.364 580.55L174.62 580.55z" /></clipPath><clipPath id="103"><path d="M238.85 605.64L280.73 605.64L280.73 605.64L280.73 580.56L280.73 580.56L238.85 580.56z" /></clipPath><clipPath id="104"><path d="M238.85 605.63L280.73 605.63L280.73 605.63L280.73 580.55L280.73 580.55L238.85 580.55z" /></clipPath><clipPath id="105"><path d="M238.85 605.63L280.73 605.63L280.73 605.63L280.73 580.55L280.73 580.55L238.85 580.55z" /></clipPath><clipPath id="106"><path d="M281.21 605.64L338.84 605.64L338.84 605.64L338.84 580.56L338.84 580.56L281.21 580.56z" /></clipPath><clipPath id="107"><path d="M281.21 605.63L338.834 605.63L338.834 605.63L338.834 580.55L338.834 580.55L281.21 580.55z" /></clipPath><clipPath id="108"><path d="M339.32 605.64L499.42 605.64L499.42 605.64L499.42 580.56L499.42 580.56L339.32 580.56z" /></clipPath><clipPath id="109"><path d="M339.31 605.63L499.41 605.63L499.41 605.63L499.41 580.55L499.41 580.55L339.31 580.55z" /></clipPath><clipPath id="110"><path d="M339.31 605.63L499.41 605.63L499.41 605.63L499.41 580.55L499.41 580.55L339.31 580.55z" /></clipPath><clipPath id="111"><path d="M84.751 668.53L174.151 668.53L174.151 668.53L174.151 606.115L174.151 606.115L84.751 606.115z" /></clipPath><clipPath id="112"><path d="M84.744 668.54L174.144 668.54L174.144 668.54L174.144 606.116L174.144 606.116L84.744 606.116z" /></clipPath><clipPath id="113"><path d="M84.744 668.54L174.144 668.54L174.144 668.54L174.144 606.116L174.144 606.116L84.744 606.116z" /></clipPath><clipPath id="114"><path d="M174.63 668.53L238.365 668.53L238.365 668.53L238.365 606.115L238.365 606.115L174.63 606.115z" /></clipPath><clipPath id="115"><path d="M174.62 668.54L238.364 668.54L238.364 668.54L238.364 606.116L238.364 606.116L174.62 606.116z" /></clipPath><clipPath id="116"><path d="M174.62 668.54L238.364 668.54L238.364 668.54L238.364 606.116L238.364 606.116L174.62 606.116z" /></clipPath><clipPath id="117"><path d="M238.85 668.53L280.73 668.53L280.73 668.53L280.73 606.115L280.73 606.115L238.85 606.115z" /></clipPath><clipPath id="118"><path d="M238.85 668.54L280.73 668.54L280.73 668.54L280.73 606.116L280.73 606.116L238.85 606.116z" /></clipPath><clipPath id="119"><path d="M238.85 668.54L280.73 668.54L280.73 668.54L280.73 606.116L280.73 606.116L238.85 606.116z" /></clipPath><clipPath id="120"><path d="M281.21 668.53L338.84 668.53L338.84 668.53L338.84 606.115L338.84 606.115L281.21 606.115z" /></clipPath><clipPath id="121"><path d="M281.21 668.54L338.834 668.54L338.834 668.54L338.834 606.116L338.834 606.116L281.21 606.116z" /></clipPath><clipPath id="122"><path d="M339.32 668.53L499.42 668.53L499.42 668.53L499.42 606.115L499.42 606.115L339.32 606.115z" /></clipPath><clipPath id="123"><path d="M339.31 668.54L499.41 668.54L499.41 668.54L499.41 606.116L499.41 606.116L339.31 606.116z" /></clipPath><clipPath id="124"><path d="M339.31 668.54L499.41 668.54L499.41 668.54L499.41 606.116L499.41 606.116L339.31 606.116z" /></clipPath><clipPath id="125"><path d="M339.31 668.54L499.41 668.54L499.41 668.54L499.41 606.116L499.41 606.116L339.31 606.116z" /></clipPath><clipPath id="126"><path d="M339.31 668.54L499.41 668.54L499.41 668.54L499.41 606.116L499.41 606.116L339.31 606.116z" /></clipPath><clipPath id="127"><path d="M339.31 668.54L499.41 668.54L499.41 668.54L499.41 606.116L499.41 606.116L339.31 606.116z" /></clipPath><clipPath id="128"><path d="M339.31 668.54L499.41 668.54L499.41 668.54L499.41 606.116L499.41 606.116L339.31 606.116z" /></clipPath><clipPath id="129"><path d="M339.31 668.54L499.41 668.54L499.41 668.54L499.41 606.116L499.41 606.116L339.31 606.116z" /></clipPath><clipPath id="130"><path d="M339.31 668.54L499.41 668.54L499.41 668.54L499.41 606.116L499.41 606.116L339.31 606.116z" /></clipPath><clipPath id="131"><path d="M339.31 668.54L499.41 668.54L499.41 668.54L499.41 606.116L499.41 606.116L339.31 606.116z" /></clipPath><clipPath id="132"><path d="M339.31 668.54L499.41 668.54L499.41 668.54L499.41 606.116L499.41 606.116L339.31 606.116z" /></clipPath><clipPath id="133"><path d="M339.31 668.54L499.41 668.54L499.41 668.54L499.41 606.116L499.41 606.116L339.31 606.116z" /></clipPath><clipPath id="134"><path d="M339.31 668.54L499.41 668.54L499.41 668.54L499.41 606.116L499.41 606.116L339.31 606.116z" /></clipPath><clipPath id="135"><path d="M339.31 668.54L499.41 668.54L499.41 668.54L499.41 606.116L499.41 606.116L339.31 606.116z" /></clipPath><clipPath id="136"><path d="M84.751 719.77L174.151 719.77L174.151 719.77L174.151 669.01L174.151 669.01L84.751 669.01z" /></clipPath><clipPath id="137"><path d="M84.744 719.78L174.144 719.78L174.144 719.78L174.144 669.02L174.144 669.02L84.744 669.02z" /></clipPath><clipPath id="138"><path d="M84.744 719.78L174.144 719.78L174.144 719.78L174.144 669.02L174.144 669.02L84.744 669.02z" /></clipPath><clipPath id="139"><path d="M174.63 719.77L238.365 719.77L238.365 719.77L238.365 669.01L238.365 669.01L174.63 669.01z" /></clipPath><clipPath id="140"><path d="M174.62 719.78L238.364 719.78L238.364 719.78L238.364 669.02L238.364 669.02L174.62 669.02z" /></clipPath><clipPath id="141"><path d="M174.62 719.78L238.364 719.78L238.364 719.78L238.364 669.02L238.364 669.02L174.62 669.02z" /></clipPath><clipPath id="142"><path d="M238.85 719.77L280.73 719.77L280.73 719.77L280.73 669.01L280.73 669.01L238.85 669.01z" /></clipPath><clipPath id="143"><path d="M238.85 719.78L280.73 719.78L280.73 719.78L280.73 669.02L280.73 669.02L238.85 669.02z" /></clipPath><clipPath id="144"><path d="M238.85 719.78L280.73 719.78L280.73 719.78L280.73 669.02L280.73 669.02L238.85 669.02z" /></clipPath><clipPath id="145"><path d="M281.21 719.77L338.84 719.77L338.84 719.77L338.84 669.01L338.84 669.01L281.21 669.01z" /></clipPath><clipPath id="146"><path d="M281.21 719.78L338.834 719.78L338.834 719.78L338.834 669.02L338.834 669.02L281.21 669.02z" /></clipPath><clipPath id="147"><path d="M281.21 719.78L338.834 719.78L338.834 719.78L338.834 669.02L338.834 669.02L281.21 669.02z" /></clipPath><clipPath id="148"><path d="M339.32 719.77L499.42 719.77L499.42 719.77L499.42 669.01L499.42 669.01L339.32 669.01z" /></clipPath><clipPath id="149"><path d="M339.31 719.78L499.41 719.78L499.41 719.78L499.41 669.02L499.41 669.02L339.31 669.02z" /></clipPath><clipPath id="150"><path d="M339.31 719.78L499.41 719.78L499.41 719.78L499.41 669.02L499.41 669.02L339.31 669.02z" /></clipPath><clipPath id="151"><path d="M339.31 719.78L499.41 719.78L499.41 719.78L499.41 669.02L499.41 669.02L339.31 669.02z" /></clipPath><clipPath id="152"><path d="M339.31 719.78L499.41 719.78L499.41 719.78L499.41 669.02L499.41 669.02L339.31 669.02z" /></clipPath><clipPath id="153"><path d="M339.31 719.78L499.41 719.78L499.41 719.78L499.41 669.02L499.41 669.02L339.31 669.02z" /></clipPath><clipPath id="154"><path d="M339.31 719.78L499.41 719.78L499.41 719.78L499.41 669.02L499.41 669.02L339.31 669.02z" /></clipPath></defs><g transform="matrix(1.333333 0 0 1.333333 0 0)"><g><g clip-path="url(#1)"><path transform="matrix(1 0 0 -1 0 841)" d="M457.51 53.304L505.534 53.304L505.534 53.304L505.534 53.90404L505.534 53.90404L457.51 53.90404z" stroke="none" fill="#000000" fill-rule="evenodd" /><g clip-path="url(#2)"><path transform="matrix(1 0 0 -1 0 841)" d="M88.464 77.904L506.974 77.904L506.974 77.904L506.974 80.904L506.974 80.904L88.464 80.904z" stroke="none" fill="#000000" fill-rule="evenodd" /><path transform="matrix(1 0 0 -1 0 841)" d="M88.464 76.464L506.974 76.464L506.974 76.464L506.974 77.18397L506.974 77.18397L88.464 77.18397z" stroke="none" fill="#000000" fill-rule="evenodd" /></g><g clip-path="url(#3)"><g clip-path="url(#4)"></g><g clip-path="url(#5)"></g></g><path transform="matrix(1 0 0 -1 0 841)" d="M84.744 726.46L179.184 726.46L179.184 726.46L179.184 751.564L179.184 751.564L84.744 751.564z" stroke="none" fill="#0070C0" fill-rule="evenodd" /><g clip-path="url(#6)"><path transform="matrix(1 0 0 -1 0 841)" d="M89.904 726.46L174.024 726.46L174.024 726.46L174.024 751.564L174.024 751.564L89.904 751.564z" stroke="none" fill="#0070C0" fill-rule="evenodd" /><g clip-path="url(#7)"></g><g clip-path="url(#8)"></g></g><path transform="matrix(1 0 0 -1 0 841)" d="M179.66 726.46L232.844 726.46L232.844 726.46L232.844 751.564L232.844 751.564L179.66 751.564z" stroke="none" fill="#0070C0" fill-rule="evenodd" /><g clip-path="url(#9)"><path transform="matrix(1 0 0 -1 0 841)" d="M184.82 726.46L227.684 726.46L227.684 726.46L227.684 751.564L227.684 751.564L184.82 751.564z" stroke="none" fill="#0070C0" fill-rule="evenodd" /><g clip-path="url(#10)"></g><g clip-path="url(#11)"></g></g><path transform="matrix(1 0 0 -1 0 841)" d="M233.33 726.46L281.21 726.46L281.21 726.46L281.21 751.564L281.21 751.564L233.33 751.564z" stroke="none" fill="#0070C0" fill-rule="evenodd" /><g clip-path="url(#12)"><path transform="matrix(1 0 0 -1 0 841)" d="M238.49 726.46L276.05 726.46L276.05 726.46L276.05 751.564L276.05 751.564L238.49 751.564z" stroke="none" fill="#0070C0" fill-rule="evenodd" /><g clip-path="url(#13)"></g><g clip-path="url(#14)"></g></g><path transform="matrix(1 0 0 -1 0 841)" d="M281.81 726.46L335.714 726.46L335.714 726.46L335.714 751.564L335.714 751.564L281.81 751.564z" stroke="none" fill="#0070C0" fill-rule="evenodd" /><g clip-path="url(#15)"><path transform="matrix(1 0 0 -1 0 841)" d="M286.85 726.46L330.53 726.46L330.53 726.46L330.53 751.564L330.53 751.564L286.85 751.564z" stroke="none" fill="#0070C0" fill-rule="evenodd" /><g clip-path="url(#16)"></g><g clip-path="url(#17)"></g></g><path transform="matrix(1 0 0 -1 0 841)" d="M336.19 726.46L510.69 726.46L510.69 726.46L510.69 751.564L510.69 751.564L336.19 751.564z" stroke="none" fill="#0070C0" fill-rule="evenodd" /><g clip-path="url(#18)"><path transform="matrix(1 0 0 -1 0 841)" d="M341.35 726.46L505.53 726.46L505.53 726.46L505.53 751.564L505.53 751.564L341.35 751.564z" stroke="none" fill="#0070C0" fill-rule="evenodd" /><g clip-path="url(#19)"></g><g clip-path="url(#20)"></g></g><path transform="matrix(1 0 0 -1 0 841)" d="M84.264 751.56L84.744 751.56L84.744 751.56L84.744 752.04L84.744 752.04L84.264 752.04z" stroke="none" fill="#000000" fill-rule="evenodd" /><path transform="matrix(1 0 0 -1 0 841)" d="M84.264 751.56L84.744 751.56L84.744 751.56L84.744 752.04L84.744 752.04L84.264 752.04z" stroke="none" fill="#000000" fill-rule="evenodd" /><path transform="matrix(1 0 0 -1 0 841)" d="M84.744 751.56L179.184 751.56L179.184 751.56L179.184 752.04L179.184 752.04L84.744 752.04z" stroke="none" fill="#000000" fill-rule="evenodd" /><path transform="matrix(1 0 0 -1 0 841)" d="M179.18 751.56L179.66 751.56L179.66 751.56L179.66 752.04L179.66 752.04L179.18 752.04z" stroke="none" fill="#000000" fill-rule="evenodd" /><path transform="matrix(1 0 0 -1 0 841)" d="M179.66 751.56L232.844 751.56L232.844 751.56L232.844 752.04L232.844 752.04L179.66 752.04z" stroke="none" fill="#000000" fill-rule="evenodd" /><path transform="matrix(1 0 0 -1 0 841)" d="M232.85 751.56L233.33 751.56L233.33 751.56L233.33 752.04L233.33 752.04L232.85 752.04z" stroke="none" fill="#000000" fill-rule="evenodd" /><path transform="matrix(1 0 0 -1 0 841)" d="M233.33 751.56L281.33 751.56L281.33 751.56L281.33 752.04L281.33 752.04L233.33 752.04z" stroke="none" fill="#000000" fill-rule="evenodd" /><path transform="matrix(1 0 0 -1 0 841)" d="M281.33 751.56L281.81 751.56L281.81 751.56L281.81 752.04L281.81 752.04L281.33 752.04z" stroke="none" fill="#000000" fill-rule="evenodd" /><path transform="matrix(1 0 0 -1 0 841)" d="M281.81 751.56L335.714 751.56L335.714 751.56L335.714 752.04L335.714 752.04L281.81 752.04z" stroke="none" fill="#000000" fill-rule="evenodd" /><path transform="matrix(1 0 0 -1 0 841)" d="M335.71 751.56L336.19 751.56L336.19 751.56L336.19 752.04L336.19 752.04L335.71 752.04z" stroke="none" fill="#000000" fill-rule="evenodd" /><path transform="matrix(1 0 0 -1 0 841)" d="M336.19 751.56L510.69 751.56L510.69 751.56L510.69 752.04L510.69 752.04L336.19 752.04z" stroke="none" fill="#000000" fill-rule="evenodd" /><path transform="matrix(1 0 0 -1 0 841)" d="M510.7 751.56L511.18 751.56L511.18 751.56L511.18 752.04L511.18 752.04L510.7 752.04z" stroke="none" fill="#000000" fill-rule="evenodd" /><path transform="matrix(1 0 0 -1 0 841)" d="M510.7 751.56L511.18 751.56L511.18 751.56L511.18 752.04L511.18 752.04L510.7 752.04z" stroke="none" fill="#000000" fill-rule="evenodd" /><path transform="matrix(1 0 0 -1 0 841)" d="M84.264 726.46L84.744 726.46L84.744 726.46L84.744 751.564L84.744 751.564L84.264 751.564z" stroke="none" fill="#000000" fill-rule="evenodd" /><path transform="matrix(1 0 0 -1 0 841)" d="M179.18 726.46L179.66 726.46L179.66 726.46L179.66 751.564L179.66 751.564L179.18 751.564z" stroke="none" fill="#000000" fill-rule="evenodd" /><path transform="matrix(1 0 0 -1 0 841)" d="M232.85 726.46L233.33 726.46L233.33 726.46L233.33 751.564L233.33 751.564L232.85 751.564z" stroke="none" fill="#000000" fill-rule="evenodd" /><path transform="matrix(1 0 0 -1 0 841)" d="M281.33 726.46L281.81 726.46L281.81 726.46L281.81 751.564L281.81 751.564L281.33 751.564z" stroke="none" fill="#000000" fill-rule="evenodd" /><path transform="matrix(1 0 0 -1 0 841)" d="M335.71 726.46L336.19 726.46L336.19 726.46L336.19 751.564L336.19 751.564L335.71 751.564z" stroke="none" fill="#000000" fill-rule="evenodd" /><path transform="matrix(1 0 0 -1 0 841)" d="M510.7 726.46L511.18 726.46L511.18 726.46L511.18 751.564L511.18 751.564L510.7 751.564z" stroke="none" fill="#000000" fill-rule="evenodd" /><path transform="matrix(1 0 0 -1 0 841)" d="M84.744 624.46L179.184 624.46L179.184 624.46L179.184 725.98L179.184 725.98L84.744 725.98z" stroke="none" fill="#DAEEF3" fill-rule="evenodd" /><path transform="matrix(1 0 0 -1 0 841)" d="M179.66 624.46L232.844 624.46L232.844 624.46L232.844 725.98L232.844 725.98L179.66 725.98z" stroke="none" fill="#DAEEF3" fill-rule="evenodd" /><path transform="matrix(1 0 0 -1 0 841)" d="M233.33 624.46L281.21 624.46L281.21 624.46L281.21 725.98L281.21 725.98L233.33 725.98z" stroke="none" fill="#DAEEF3" fill-rule="evenodd" /><path transform="matrix(1 0 0 -1 0 841)" d="M281.81 624.46L335.714 624.46L335.714 624.46L335.714 725.98L335.714 725.98L281.81 725.98z" stroke="none" fill="#DAEEF3" fill-rule="evenodd" /><path transform="matrix(1 0 0 -1 0 841)" d="M336.19 624.46L510.69 624.46L510.69 624.46L510.69 725.98L510.69 725.98L336.19 725.98z" stroke="none" fill="#DAEEF3" fill-rule="evenodd" /><g clip-path="url(#21)"><path transform="matrix(1 0 0 -1 0 841)" d="M341.35 705.7L505.53 705.7L505.53 705.7L505.53 725.98L505.53 725.98L341.35 725.98z" stroke="none" fill="#DAEEF3" fill-rule="evenodd" /><g clip-path="url(#22)"></g><g clip-path="url(#23)"></g><g clip-path="url(#24)"></g><g clip-path="url(#25)"></g><g clip-path="url(#26)"></g><path transform="matrix(1 0 0 -1 0 841)" d="M341.35 685.42L505.53 685.42L505.53 685.42L505.53 705.7L505.53 705.7L341.35 705.7z" stroke="none" fill="#DAEEF3" fill-rule="evenodd" /><g clip-path="url(#27)"></g><g clip-path="url(#28)"></g><g clip-path="url(#29)"></g><g clip-path="url(#30)"></g><g clip-path="url(#31)"></g><g clip-path="url(#32)"></g><path transform="matrix(1 0 0 -1 0 841)" d="M341.35 665.02L505.53 665.02L505.53 665.02L505.53 685.42L505.53 685.42L341.35 685.42z" stroke="none" fill="#DAEEF3" fill-rule="evenodd" /><g clip-path="url(#33)"></g><g clip-path="url(#34)"></g><g clip-path="url(#35)"></g><g clip-path="url(#36)"></g><g clip-path="url(#37)"></g><path transform="matrix(1 0 0 -1 0 841)" d="M341.35 644.74L505.53 644.74L505.53 644.74L505.53 665.02L505.53 665.02L341.35 665.02z" stroke="none" fill="#DAEEF3" fill-rule="evenodd" /><g clip-path="url(#38)"></g><g clip-path="url(#39)"></g><g clip-path="url(#40)"></g><g clip-path="url(#41)"></g><g clip-path="url(#42)"></g><path transform="matrix(1 0 0 -1 0 841)" d="M341.35 624.46L505.53 624.46L505.53 624.46L505.53 644.7401L505.53 644.7401L341.35 644.7401z" stroke="none" fill="#DAEEF3" fill-rule="evenodd" /><g clip-path="url(#43)"></g><g clip-path="url(#44)"></g><g clip-path="url(#45)"></g><g clip-path="url(#46)"></g><g clip-path="url(#47)"></g></g><path transform="matrix(1 0 0 -1 0 841)" d="M84.264 725.98L84.744 725.98L84.744 725.98L84.744 726.46L84.744 726.46L84.264 726.46z" stroke="none" fill="#000000" fill-rule="evenodd" /><path transform="matrix(1 0 0 -1 0 841)" d="M84.744 725.98L179.184 725.98L179.184 725.98L179.184 726.46L179.184 726.46L84.744 726.46z" stroke="none" fill="#000000" fill-rule="evenodd" /><path transform="matrix(1 0 0 -1 0 841)" d="M179.18 725.98L179.66 725.98L179.66 725.98L179.66 726.46L179.66 726.46L179.18 726.46z" stroke="none" fill="#000000" fill-rule="evenodd" /><path transform="matrix(1 0 0 -1 0 841)" d="M179.66 725.98L232.844 725.98L232.844 725.98L232.844 726.46L232.844 726.46L179.66 726.46z" stroke="none" fill="#000000" fill-rule="evenodd" /><path transform="matrix(1 0 0 -1 0 841)" d="M232.85 725.98L233.33 725.98L233.33 725.98L233.33 726.46L233.33 726.46L232.85 726.46z" stroke="none" fill="#000000" fill-rule="evenodd" /><path transform="matrix(1 0 0 -1 0 841)" d="M233.33 725.98L281.33 725.98L281.33 725.98L281.33 726.46L281.33 726.46L233.33 726.46z" stroke="none" fill="#000000" fill-rule="evenodd" /><path transform="matrix(1 0 0 -1 0 841)" d="M281.33 725.98L281.81 725.98L281.81 725.98L281.81 726.46L281.81 726.46L281.33 726.46z" stroke="none" fill="#000000" fill-rule="evenodd" /><path transform="matrix(1 0 0 -1 0 841)" d="M281.81 725.98L335.714 725.98L335.714 725.98L335.714 726.46L335.714 726.46L281.81 726.46z" stroke="none" fill="#000000" fill-rule="evenodd" /><path transform="matrix(1 0 0 -1 0 841)" d="M335.71 725.98L336.19 725.98L336.19 725.98L336.19 726.46L336.19 726.46L335.71 726.46z" stroke="none" fill="#000000" fill-rule="evenodd" /><path transform="matrix(1 0 0 -1 0 841)" d="M336.19 725.98L510.69 725.98L510.69 725.98L510.69 726.46L510.69 726.46L336.19 726.46z" stroke="none" fill="#000000" fill-rule="evenodd" /><path transform="matrix(1 0 0 -1 0 841)" d="M510.7 725.98L511.18 725.98L511.18 725.98L511.18 726.46L511.18 726.46L510.7 726.46z" stroke="none" fill="#000000" fill-rule="evenodd" /><path transform="matrix(1 0 0 -1 0 841)" d="M84.264 624.46L84.744 624.46L84.744 624.46L84.744 725.98L84.744 725.98L84.264 725.98z" stroke="none" fill="#000000" fill-rule="evenodd" /><path transform="matrix(1 0 0 -1 0 841)" d="M179.18 624.46L179.66 624.46L179.66 624.46L179.66 725.98L179.66 725.98L179.18 725.98z" stroke="none" fill="#000000" fill-rule="evenodd" /><path transform="matrix(1 0 0 -1 0 841)" d="M232.85 624.46L233.33 624.46L233.33 624.46L233.33 725.98L233.33 725.98L232.85 725.98z" stroke="none" fill="#000000" fill-rule="evenodd" /><path transform="matrix(1 0 0 -1 0 841)" d="M281.33 624.46L281.81 624.46L281.81 624.46L281.81 725.98L281.81 725.98L281.33 725.98z" stroke="none" fill="#000000" fill-rule="evenodd" /><path transform="matrix(1 0 0 -1 0 841)" d="M335.71 624.46L336.19 624.46L336.19 624.46L336.19 725.98L336.19 725.98L335.71 725.98z" stroke="none" fill="#000000" fill-rule="evenodd" /><path transform="matrix(1 0 0 -1 0 841)" d="M510.7 624.46L511.18 624.46L511.18 624.46L511.18 725.98L511.18 725.98L510.7 725.98z" stroke="none" fill="#000000" fill-rule="evenodd" /><g clip-path="url(#48)"><g clip-path="url(#49)"></g><g clip-path="url(#50)"></g></g><g clip-path="url(#51)"><g clip-path="url(#52)"></g><g clip-path="url(#53)"></g></g><g clip-path="url(#54)"><g clip-path="url(#55)"></g><g clip-path="url(#56)"></g></g><g clip-path="url(#57)"><g clip-path="url(#58)"></g><g clip-path="url(#59)"></g></g><g clip-path="url(#60)"><g clip-path="url(#61)"></g><g clip-path="url(#62)"></g><g clip-path="url(#63)"></g></g><path transform="matrix(1 0 0 -1 0 841)" d="M84.264 623.98L84.744 623.98L84.744 623.98L84.744 624.46L84.744 624.46L84.264 624.46z" stroke="none" fill="#000000" fill-rule="evenodd" /><path transform="matrix(1 0 0 -1 0 841)" d="M84.744 623.98L179.184 623.98L179.184 623.98L179.184 624.46L179.184 624.46L84.744 624.46z" stroke="none" fill="#000000" fill-rule="evenodd" /><path transform="matrix(1 0 0 -1 0 841)" d="M179.18 623.98L179.66 623.98L179.66 623.98L179.66 624.46L179.66 624.46L179.18 624.46z" stroke="none" fill="#000000" fill-rule="evenodd" /><path transform="matrix(1 0 0 -1 0 841)" d="M179.66 623.98L232.844 623.98L232.844 623.98L232.844 624.46L232.844 624.46L179.66 624.46z" stroke="none" fill="#000000" fill-rule="evenodd" /><path transform="matrix(1 0 0 -1 0 841)" d="M232.85 623.98L233.33 623.98L233.33 623.98L233.33 624.46L233.33 624.46L232.85 624.46z" stroke="none" fill="#000000" fill-rule="evenodd" /><path transform="matrix(1 0 0 -1 0 841)" d="M233.33 623.98L281.33 623.98L281.33 623.98L281.33 624.46L281.33 624.46L233.33 624.46z" stroke="none" fill="#000000" fill-rule="evenodd" /><path transform="matrix(1 0 0 -1 0 841)" d="M281.33 623.98L281.81 623.98L281.81 623.98L281.81 624.46L281.81 624.46L281.33 624.46z" stroke="none" fill="#000000" fill-rule="evenodd" /><path transform="matrix(1 0 0 -1 0 841)" d="M281.81 623.98L335.714 623.98L335.714 623.98L335.714 624.46L335.714 624.46L281.81 624.46z" stroke="none" fill="#000000" fill-rule="evenodd" /><path transform="matrix(1 0 0 -1 0 841)" d="M335.71 623.98L336.19 623.98L336.19 623.98L336.19 624.46L336.19 624.46L335.71 624.46z" stroke="none" fill="#000000" fill-rule="evenodd" /><path transform="matrix(1 0 0 -1 0 841)" d="M336.19 623.98L510.69 623.98L510.69 623.98L510.69 624.46L510.69 624.46L336.19 624.46z" stroke="none" fill="#000000" fill-rule="evenodd" /><path transform="matrix(1 0 0 -1 0 841)" d="M510.7 623.98L511.18 623.98L511.18 623.98L511.18 624.46L511.18 624.46L510.7 624.46z" stroke="none" fill="#000000" fill-rule="evenodd" /><path transform="matrix(1 0 0 -1 0 841)" d="M84.264 598.9L84.744 598.9L84.744 598.9L84.744 623.98L84.744 623.98L84.264 623.98z" stroke="none" fill="#000000" fill-rule="evenodd" /><path transform="matrix(1 0 0 -1 0 841)" d="M84.264 598.42L84.744 598.42L84.744 598.42L84.744 598.9L84.744 598.9L84.264 598.9z" stroke="none" fill="#000000" fill-rule="evenodd" /><path transform="matrix(1 0 0 -1 0 841)" d="M84.264 598.42L84.744 598.42L84.744 598.42L84.744 598.9L84.744 598.9L84.264 598.9z" stroke="none" fill="#000000" fill-rule="evenodd" /><path transform="matrix(1 0 0 -1 0 841)" d="M84.744 598.42L179.184 598.42L179.184 598.42L179.184 598.9L179.184 598.9L84.744 598.9z" stroke="none" fill="#000000" fill-rule="evenodd" /><path transform="matrix(1 0 0 -1 0 841)" d="M179.18 598.9L179.66 598.9L179.66 598.9L179.66 623.98L179.66 623.98L179.18 623.98z" stroke="none" fill="#000000" fill-rule="evenodd" /><path transform="matrix(1 0 0 -1 0 841)" d="M179.18 598.42L179.66 598.42L179.66 598.42L179.66 598.9L179.66 598.9L179.18 598.9z" stroke="none" fill="#000000" fill-rule="evenodd" /><path transform="matrix(1 0 0 -1 0 841)" d="M179.66 598.42L232.844 598.42L232.844 598.42L232.844 598.9L232.844 598.9L179.66 598.9z" stroke="none" fill="#000000" fill-rule="evenodd" /><path transform="matrix(1 0 0 -1 0 841)" d="M232.85 598.9L233.33 598.9L233.33 598.9L233.33 623.98L233.33 623.98L232.85 623.98z" stroke="none" fill="#000000" fill-rule="evenodd" /><path transform="matrix(1 0 0 -1 0 841)" d="M232.85 598.42L233.33 598.42L233.33 598.42L233.33 598.9L233.33 598.9L232.85 598.9z" stroke="none" fill="#000000" fill-rule="evenodd" /><path transform="matrix(1 0 0 -1 0 841)" d="M233.33 598.42L281.33 598.42L281.33 598.42L281.33 598.9L281.33 598.9L233.33 598.9z" stroke="none" fill="#000000" fill-rule="evenodd" /><path transform="matrix(1 0 0 -1 0 841)" d="M281.33 598.9L281.81 598.9L281.81 598.9L281.81 623.98L281.81 623.98L281.33 623.98z" stroke="none" fill="#000000" fill-rule="evenodd" /><path transform="matrix(1 0 0 -1 0 841)" d="M281.33 598.42L281.81 598.42L281.81 598.42L281.81 598.9L281.81 598.9L281.33 598.9z" stroke="none" fill="#000000" fill-rule="evenodd" /><path transform="matrix(1 0 0 -1 0 841)" d="M281.81 598.42L335.714 598.42L335.714 598.42L335.714 598.9L335.714 598.9L281.81 598.9z" stroke="none" fill="#000000" fill-rule="evenodd" /><path transform="matrix(1 0 0 -1 0 841)" d="M335.71 598.9L336.19 598.9L336.19 598.9L336.19 623.98L336.19 623.98L335.71 623.98z" stroke="none" fill="#000000" fill-rule="evenodd" /><path transform="matrix(1 0 0 -1 0 841)" d="M335.71 598.42L336.19 598.42L336.19 598.42L336.19 598.9L336.19 598.9L335.71 598.9z" stroke="none" fill="#000000" fill-rule="evenodd" /><path transform="matrix(1 0 0 -1 0 841)" d="M336.19 598.42L510.69 598.42L510.69 598.42L510.69 598.9L510.69 598.9L336.19 598.9z" stroke="none" fill="#000000" fill-rule="evenodd" /><path transform="matrix(1 0 0 -1 0 841)" d="M510.7 598.9L511.18 598.9L511.18 598.9L511.18 623.98L511.18 623.98L510.7 623.98z" stroke="none" fill="#000000" fill-rule="evenodd" /><path transform="matrix(1 0 0 -1 0 841)" d="M510.7 598.42L511.18 598.42L511.18 598.42L511.18 598.9L511.18 598.9L510.7 598.9z" stroke="none" fill="#000000" fill-rule="evenodd" /><path transform="matrix(1 0 0 -1 0 841)" d="M510.7 598.42L511.18 598.42L511.18 598.42L511.18 598.9L511.18 598.9L510.7 598.9z" stroke="none" fill="#000000" fill-rule="evenodd" /><path transform="matrix(1 0 0 -1 0 841)" d="M258.77 467.59L328.97 467.59L328.97 467.59L328.97 468.31L328.97 468.31L258.77 468.31z" stroke="none" fill="#000000" fill-rule="evenodd" /><path transform="matrix(1 0 0 -1 0 841)" d="M84.744 286.49L174.144 286.49L174.144 286.49L174.144 311.57L174.144 311.57L84.744 311.57z" stroke="none" fill="#0070C0" fill-rule="evenodd" /><g clip-path="url(#64)"><path transform="matrix(1 0 0 -1 0 841)" d="M89.904 286.49L168.984 286.49L168.984 286.49L168.984 311.57L168.984 311.57L89.904 311.57z" stroke="none" fill="#0070C0" fill-rule="evenodd" /><g clip-path="url(#65)"></g><g clip-path="url(#66)"></g></g><path transform="matrix(1 0 0 -1 0 841)" d="M174.62 286.49L238.364 286.49L238.364 286.49L238.364 311.57L238.364 311.57L174.62 311.57z" stroke="none" fill="#0070C0" fill-rule="evenodd" /><g clip-path="url(#67)"><path transform="matrix(1 0 0 -1 0 841)" d="M179.78 286.49L233.204 286.49L233.204 286.49L233.204 311.57L233.204 311.57L179.78 311.57z" stroke="none" fill="#0070C0" fill-rule="evenodd" /><g clip-path="url(#68)"></g><g clip-path="url(#69)"></g></g><path transform="matrix(1 0 0 -1 0 841)" d="M238.85 286.49L280.73 286.49L280.73 286.49L280.73 311.57L280.73 311.57L238.85 311.57z" stroke="none" fill="#0070C0" fill-rule="evenodd" /><g clip-path="url(#70)"><path transform="matrix(1 0 0 -1 0 841)" d="M244.01 286.49L275.57 286.49L275.57 286.49L275.57 311.57L275.57 311.57L244.01 311.57z" stroke="none" fill="#0070C0" fill-rule="evenodd" /><g clip-path="url(#71)"></g><g clip-path="url(#72)"></g></g><path transform="matrix(1 0 0 -1 0 841)" d="M281.21 286.49L338.834 286.49L338.834 286.49L338.834 311.57L338.834 311.57L281.21 311.57z" stroke="none" fill="#0070C0" fill-rule="evenodd" /><g clip-path="url(#73)"><path transform="matrix(1 0 0 -1 0 841)" d="M286.37 286.49L333.65 286.49L333.65 286.49L333.65 311.57L333.65 311.57L286.37 311.57z" stroke="none" fill="#0070C0" fill-rule="evenodd" /><g clip-path="url(#74)"></g><g clip-path="url(#75)"></g></g><path transform="matrix(1 0 0 -1 0 841)" d="M339.31 286.49L499.41 286.49L499.41 286.49L499.41 311.57L499.41 311.57L339.31 311.57z" stroke="none" fill="#0070C0" fill-rule="evenodd" /><g clip-path="url(#76)"><path transform="matrix(1 0 0 -1 0 841)" d="M344.47 286.49L494.25 286.49L494.25 286.49L494.25 311.57L494.25 311.57L344.47 311.57z" stroke="none" fill="#0070C0" fill-rule="evenodd" /><g clip-path="url(#77)"></g><g clip-path="url(#78)"></g></g><path transform="matrix(1 0 0 -1 0 841)" d="M84.264 311.57L84.744 311.57L84.744 311.57L84.744 312.05L84.744 312.05L84.264 312.05z" stroke="none" fill="#000000" fill-rule="evenodd" /><path transform="matrix(1 0 0 -1 0 841)" d="M84.264 311.57L84.744 311.57L84.744 311.57L84.744 312.05L84.744 312.05L84.264 312.05z" stroke="none" fill="#000000" fill-rule="evenodd" /><path transform="matrix(1 0 0 -1 0 841)" d="M84.744 311.57L174.144 311.57L174.144 311.57L174.144 312.05L174.144 312.05L84.744 312.05z" stroke="none" fill="#000000" fill-rule="evenodd" /><path transform="matrix(1 0 0 -1 0 841)" d="M174.14 311.57L174.62 311.57L174.62 311.57L174.62 312.05L174.62 312.05L174.14 312.05z" stroke="none" fill="#000000" fill-rule="evenodd" /><path transform="matrix(1 0 0 -1 0 841)" d="M174.62 311.57L238.364 311.57L238.364 311.57L238.364 312.05L238.364 312.05L174.62 312.05z" stroke="none" fill="#000000" fill-rule="evenodd" /><path transform="matrix(1 0 0 -1 0 841)" d="M238.37 311.57L238.85 311.57L238.85 311.57L238.85 312.05L238.85 312.05L238.37 312.05z" stroke="none" fill="#000000" fill-rule="evenodd" /><path transform="matrix(1 0 0 -1 0 841)" d="M238.85 311.57L280.73 311.57L280.73 311.57L280.73 312.05L280.73 312.05L238.85 312.05z" stroke="none" fill="#000000" fill-rule="evenodd" /><path transform="matrix(1 0 0 -1 0 841)" d="M280.73 311.57L281.21 311.57L281.21 311.57L281.21 312.05L281.21 312.05L280.73 312.05z" stroke="none" fill="#000000" fill-rule="evenodd" /><path transform="matrix(1 0 0 -1 0 841)" d="M281.21 311.57L338.834 311.57L338.834 311.57L338.834 312.05L338.834 312.05L281.21 312.05z" stroke="none" fill="#000000" fill-rule="evenodd" /><path transform="matrix(1 0 0 -1 0 841)" d="M338.83 311.57L339.31 311.57L339.31 311.57L339.31 312.05L339.31 312.05L338.83 312.05z" stroke="none" fill="#000000" fill-rule="evenodd" /><path transform="matrix(1 0 0 -1 0 841)" d="M339.31 311.57L499.41 311.57L499.41 311.57L499.41 312.05L499.41 312.05L339.31 312.05z" stroke="none" fill="#000000" fill-rule="evenodd" /><path transform="matrix(1 0 0 -1 0 841)" d="M499.42 311.57L499.9 311.57L499.9 311.57L499.9 312.05L499.9 312.05L499.42 312.05z" stroke="none" fill="#000000" fill-rule="evenodd" /><path transform="matrix(1 0 0 -1 0 841)" d="M499.42 311.57L499.9 311.57L499.9 311.57L499.9 312.05L499.9 312.05L499.42 312.05z" stroke="none" fill="#000000" fill-rule="evenodd" /><path transform="matrix(1 0 0 -1 0 841)" d="M84.264 286.49L84.744 286.49L84.744 286.49L84.744 311.57L84.744 311.57L84.264 311.57z" stroke="none" fill="#000000" fill-rule="evenodd" /><path transform="matrix(1 0 0 -1 0 841)" d="M174.14 286.49L174.62 286.49L174.62 286.49L174.62 311.57L174.62 311.57L174.14 311.57z" stroke="none" fill="#000000" fill-rule="evenodd" /><path transform="matrix(1 0 0 -1 0 841)" d="M238.37 286.49L238.85 286.49L238.85 286.49L238.85 311.57L238.85 311.57L238.37 311.57z" stroke="none" fill="#000000" fill-rule="evenodd" /><path transform="matrix(1 0 0 -1 0 841)" d="M280.73 286.49L281.21 286.49L281.21 286.49L281.21 311.57L281.21 311.57L280.73 311.57z" stroke="none" fill="#000000" fill-rule="evenodd" /><path transform="matrix(1 0 0 -1 0 841)" d="M338.83 286.49L339.31 286.49L339.31 286.49L339.31 311.57L339.31 311.57L338.83 311.57z" stroke="none" fill="#000000" fill-rule="evenodd" /><path transform="matrix(1 0 0 -1 0 841)" d="M499.42 286.49L499.9 286.49L499.9 286.49L499.9 311.57L499.9 311.57L499.42 311.57z" stroke="none" fill="#000000" fill-rule="evenodd" /><path transform="matrix(1 0 0 -1 0 841)" d="M84.744 260.93L174.144 260.93L174.144 260.93L174.144 286.01L174.144 286.01L84.744 286.01z" stroke="none" fill="#DAEEF3" fill-rule="evenodd" /><g clip-path="url(#79)"><path transform="matrix(1 0 0 -1 0 841)" d="M89.904 261.41L168.984 261.41L168.984 261.41L168.984 285.53L168.984 285.53L89.904 285.53z" stroke="none" fill="#DAEEF3" fill-rule="evenodd" /><g clip-path="url(#80)"></g><g clip-path="url(#81)"></g></g><path transform="matrix(1 0 0 -1 0 841)" d="M174.62 260.93L238.364 260.93L238.364 260.93L238.364 286.01L238.364 286.01L174.62 286.01z" stroke="none" fill="#DAEEF3" fill-rule="evenodd" /><g clip-path="url(#82)"><path transform="matrix(1 0 0 -1 0 841)" d="M179.78 261.41L233.204 261.41L233.204 261.41L233.204 285.53L233.204 285.53L179.78 285.53z" stroke="none" fill="#DAEEF3" fill-rule="evenodd" /><g clip-path="url(#83)"></g><g clip-path="url(#84)"></g></g><path transform="matrix(1 0 0 -1 0 841)" d="M238.85 260.93L280.73 260.93L280.73 260.93L280.73 286.01L280.73 286.01L238.85 286.01z" stroke="none" fill="#DAEEF3" fill-rule="evenodd" /><g clip-path="url(#85)"><path transform="matrix(1 0 0 -1 0 841)" d="M244.01 260.93L275.57 260.93L275.57 260.93L275.57 286.01L275.57 286.01L244.01 286.01z" stroke="none" fill="#DAEEF3" fill-rule="evenodd" /><g clip-path="url(#86)"></g><g clip-path="url(#87)"></g></g><path transform="matrix(1 0 0 -1 0 841)" d="M281.21 260.93L338.834 260.93L338.834 260.93L338.834 286.01L338.834 286.01L281.21 286.01z" stroke="none" fill="#DAEEF3" fill-rule="evenodd" /><g clip-path="url(#88)"><path transform="matrix(1 0 0 -1 0 841)" d="M286.37 261.41L333.65 261.41L333.65 261.41L333.65 285.53L333.65 285.53L286.37 285.53z" stroke="none" fill="#DAEEF3" fill-rule="evenodd" /><g clip-path="url(#89)"></g><g clip-path="url(#90)"></g><g clip-path="url(#91)"></g></g><path transform="matrix(1 0 0 -1 0 841)" d="M339.31 260.93L499.41 260.93L499.41 260.93L499.41 286.01L499.41 286.01L339.31 286.01z" stroke="none" fill="#DAEEF3" fill-rule="evenodd" /><g clip-path="url(#92)"><path transform="matrix(1 0 0 -1 0 841)" d="M344.47 260.93L494.25 260.93L494.25 260.93L494.25 286.01L494.25 286.01L344.47 286.01z" stroke="none" fill="#DAEEF3" fill-rule="evenodd" /><g clip-path="url(#93)"></g><g clip-path="url(#94)"></g><g clip-path="url(#95)"></g><g clip-path="url(#96)"></g></g><path transform="matrix(1 0 0 -1 0 841)" d="M84.264 286.01L84.744 286.01L84.744 286.01L84.744 286.49L84.744 286.49L84.264 286.49z" stroke="none" fill="#000000" fill-rule="evenodd" /><path transform="matrix(1 0 0 -1 0 841)" d="M84.744 286.01L174.144 286.01L174.144 286.01L174.144 286.49L174.144 286.49L84.744 286.49z" stroke="none" fill="#000000" fill-rule="evenodd" /><path transform="matrix(1 0 0 -1 0 841)" d="M174.14 286.01L174.62 286.01L174.62 286.01L174.62 286.49L174.62 286.49L174.14 286.49z" stroke="none" fill="#000000" fill-rule="evenodd" /><path transform="matrix(1 0 0 -1 0 841)" d="M174.62 286.01L238.364 286.01L238.364 286.01L238.364 286.49L238.364 286.49L174.62 286.49z" stroke="none" fill="#000000" fill-rule="evenodd" /><path transform="matrix(1 0 0 -1 0 841)" d="M238.37 286.01L238.85 286.01L238.85 286.01L238.85 286.49L238.85 286.49L238.37 286.49z" stroke="none" fill="#000000" fill-rule="evenodd" /><path transform="matrix(1 0 0 -1 0 841)" d="M238.85 286.01L280.73 286.01L280.73 286.01L280.73 286.49L280.73 286.49L238.85 286.49z" stroke="none" fill="#000000" fill-rule="evenodd" /><path transform="matrix(1 0 0 -1 0 841)" d="M280.73 286.01L281.21 286.01L281.21 286.01L281.21 286.49L281.21 286.49L280.73 286.49z" stroke="none" fill="#000000" fill-rule="evenodd" /><path transform="matrix(1 0 0 -1 0 841)" d="M281.21 286.01L338.834 286.01L338.834 286.01L338.834 286.49L338.834 286.49L281.21 286.49z" stroke="none" fill="#000000" fill-rule="evenodd" /><path transform="matrix(1 0 0 -1 0 841)" d="M338.83 286.01L339.31 286.01L339.31 286.01L339.31 286.49L339.31 286.49L338.83 286.49z" stroke="none" fill="#000000" fill-rule="evenodd" /><path transform="matrix(1 0 0 -1 0 841)" d="M339.31 286.01L499.41 286.01L499.41 286.01L499.41 286.49L499.41 286.49L339.31 286.49z" stroke="none" fill="#000000" fill-rule="evenodd" /><path transform="matrix(1 0 0 -1 0 841)" d="M499.42 286.01L499.9 286.01L499.9 286.01L499.9 286.49L499.9 286.49L499.42 286.49z" stroke="none" fill="#000000" fill-rule="evenodd" /><path transform="matrix(1 0 0 -1 0 841)" d="M84.264 260.93L84.744 260.93L84.744 260.93L84.744 286.01L84.744 286.01L84.264 286.01z" stroke="none" fill="#000000" fill-rule="evenodd" /><path transform="matrix(1 0 0 -1 0 841)" d="M174.14 260.93L174.62 260.93L174.62 260.93L174.62 286.01L174.62 286.01L174.14 286.01z" stroke="none" fill="#000000" fill-rule="evenodd" /><path transform="matrix(1 0 0 -1 0 841)" d="M238.37 260.93L238.85 260.93L238.85 260.93L238.85 286.01L238.85 286.01L238.37 286.01z" stroke="none" fill="#000000" fill-rule="evenodd" /><path transform="matrix(1 0 0 -1 0 841)" d="M280.73 260.93L281.21 260.93L281.21 260.93L281.21 286.01L281.21 286.01L280.73 286.01z" stroke="none" fill="#000000" fill-rule="evenodd" /><path transform="matrix(1 0 0 -1 0 841)" d="M338.83 260.93L339.31 260.93L339.31 260.93L339.31 286.01L339.31 286.01L338.83 286.01z" stroke="none" fill="#000000" fill-rule="evenodd" /><path transform="matrix(1 0 0 -1 0 841)" d="M499.42 260.93L499.9 260.93L499.9 260.93L499.9 286.01L499.9 286.01L499.42 286.01z" stroke="none" fill="#000000" fill-rule="evenodd" /><g clip-path="url(#97)"><g clip-path="url(#98)"></g><g clip-path="url(#99)"></g></g><g clip-path="url(#100)"><g clip-path="url(#101)"></g><g clip-path="url(#102)"></g></g><g clip-path="url(#103)"><g clip-path="url(#104)"></g><g clip-path="url(#105)"></g></g><g clip-path="url(#106)"><g clip-path="url(#107)"></g></g><g clip-path="url(#108)"><g clip-path="url(#109)"></g><g clip-path="url(#110)"></g></g><path transform="matrix(1 0 0 -1 0 841)" d="M84.264 260.45L84.744 260.45L84.744 260.45L84.744 260.93L84.744 260.93L84.264 260.93z" stroke="none" fill="#000000" fill-rule="evenodd" /><path transform="matrix(1 0 0 -1 0 841)" d="M84.744 260.45L174.144 260.45L174.144 260.45L174.144 260.93L174.144 260.93L84.744 260.93z" stroke="none" fill="#000000" fill-rule="evenodd" /><path transform="matrix(1 0 0 -1 0 841)" d="M174.14 260.45L174.62 260.45L174.62 260.45L174.62 260.93L174.62 260.93L174.14 260.93z" stroke="none" fill="#000000" fill-rule="evenodd" /><path transform="matrix(1 0 0 -1 0 841)" d="M174.62 260.45L238.364 260.45L238.364 260.45L238.364 260.93L238.364 260.93L174.62 260.93z" stroke="none" fill="#000000" fill-rule="evenodd" /><path transform="matrix(1 0 0 -1 0 841)" d="M238.37 260.45L238.85 260.45L238.85 260.45L238.85 260.93L238.85 260.93L238.37 260.93z" stroke="none" fill="#000000" fill-rule="evenodd" /><path transform="matrix(1 0 0 -1 0 841)" d="M238.85 260.45L280.73 260.45L280.73 260.45L280.73 260.93L280.73 260.93L238.85 260.93z" stroke="none" fill="#000000" fill-rule="evenodd" /><path transform="matrix(1 0 0 -1 0 841)" d="M280.73 260.45L281.21 260.45L281.21 260.45L281.21 260.93L281.21 260.93L280.73 260.93z" stroke="none" fill="#000000" fill-rule="evenodd" /><path transform="matrix(1 0 0 -1 0 841)" d="M281.21 260.45L338.834 260.45L338.834 260.45L338.834 260.93L338.834 260.93L281.21 260.93z" stroke="none" fill="#000000" fill-rule="evenodd" /><path transform="matrix(1 0 0 -1 0 841)" d="M338.83 260.45L339.31 260.45L339.31 260.45L339.31 260.93L339.31 260.93L338.83 260.93z" stroke="none" fill="#000000" fill-rule="evenodd" /><path transform="matrix(1 0 0 -1 0 841)" d="M339.31 260.45L499.41 260.45L499.41 260.45L499.41 260.93L499.41 260.93L339.31 260.93z" stroke="none" fill="#000000" fill-rule="evenodd" /><path transform="matrix(1 0 0 -1 0 841)" d="M499.42 260.45L499.9 260.45L499.9 260.45L499.9 260.93L499.9 260.93L499.42 260.93z" stroke="none" fill="#000000" fill-rule="evenodd" /><path transform="matrix(1 0 0 -1 0 841)" d="M84.264 235.37L84.744 235.37L84.744 235.37L84.744 260.45L84.744 260.45L84.264 260.45z" stroke="none" fill="#000000" fill-rule="evenodd" /><path transform="matrix(1 0 0 -1 0 841)" d="M174.14 235.37L174.62 235.37L174.62 235.37L174.62 260.45L174.62 260.45L174.14 260.45z" stroke="none" fill="#000000" fill-rule="evenodd" /><path transform="matrix(1 0 0 -1 0 841)" d="M238.37 235.37L238.85 235.37L238.85 235.37L238.85 260.45L238.85 260.45L238.37 260.45z" stroke="none" fill="#000000" fill-rule="evenodd" /><path transform="matrix(1 0 0 -1 0 841)" d="M280.73 235.37L281.21 235.37L281.21 235.37L281.21 260.45L281.21 260.45L280.73 260.45z" stroke="none" fill="#000000" fill-rule="evenodd" /><path transform="matrix(1 0 0 -1 0 841)" d="M338.83 235.37L339.31 235.37L339.31 235.37L339.31 260.45L339.31 260.45L338.83 260.45z" stroke="none" fill="#000000" fill-rule="evenodd" /><path transform="matrix(1 0 0 -1 0 841)" d="M499.42 235.37L499.9 235.37L499.9 235.37L499.9 260.45L499.9 260.45L499.42 260.45z" stroke="none" fill="#000000" fill-rule="evenodd" /><path transform="matrix(1 0 0 -1 0 841)" d="M84.744 172.46L174.144 172.46L174.144 172.46L174.144 234.884L174.144 234.884L84.744 234.884z" stroke="none" fill="#DAEEF3" fill-rule="evenodd" /><g clip-path="url(#111)"><path transform="matrix(1 0 0 -1 0 841)" d="M89.904 191.69L168.984 191.69L168.984 191.69L168.984 215.81L168.984 215.81L89.904 215.81z" stroke="none" fill="#DAEEF3" fill-rule="evenodd" /><g clip-path="url(#112)"></g><g clip-path="url(#113)"></g></g><path transform="matrix(1 0 0 -1 0 841)" d="M174.62 172.46L238.364 172.46L238.364 172.46L238.364 234.884L238.364 234.884L174.62 234.884z" stroke="none" fill="#DAEEF3" fill-rule="evenodd" /><g clip-path="url(#114)"><path transform="matrix(1 0 0 -1 0 841)" d="M179.78 191.69L233.204 191.69L233.204 191.69L233.204 215.81L233.204 215.81L179.78 215.81z" stroke="none" fill="#DAEEF3" fill-rule="evenodd" /><g clip-path="url(#115)"></g><g clip-path="url(#116)"></g></g><path transform="matrix(1 0 0 -1 0 841)" d="M238.85 172.46L280.73 172.46L280.73 172.46L280.73 234.884L280.73 234.884L238.85 234.884z" stroke="none" fill="#DAEEF3" fill-rule="evenodd" /><g clip-path="url(#117)"><path transform="matrix(1 0 0 -1 0 841)" d="M244.01 191.21L275.57 191.21L275.57 191.21L275.57 216.29L275.57 216.29L244.01 216.29z" stroke="none" fill="#DAEEF3" fill-rule="evenodd" /><g clip-path="url(#118)"></g><g clip-path="url(#119)"></g></g><path transform="matrix(1 0 0 -1 0 841)" d="M281.21 172.46L338.834 172.46L338.834 172.46L338.834 234.884L338.834 234.884L281.21 234.884z" stroke="none" fill="#DAEEF3" fill-rule="evenodd" /><g clip-path="url(#120)"><path transform="matrix(1 0 0 -1 0 841)" d="M286.37 191.69L333.65 191.69L333.65 191.69L333.65 215.81L333.65 215.81L286.37 215.81z" stroke="none" fill="#DAEEF3" fill-rule="evenodd" /><g clip-path="url(#121)"></g></g><path transform="matrix(1 0 0 -1 0 841)" d="M339.31 172.46L499.41 172.46L499.41 172.46L499.41 234.884L499.41 234.884L339.31 234.884z" stroke="none" fill="#DAEEF3" fill-rule="evenodd" /><g clip-path="url(#122)"><path transform="matrix(1 0 0 -1 0 841)" d="M344.47 209.81L494.25 209.81L494.25 209.81L494.25 234.89L494.25 234.89L344.47 234.89z" stroke="none" fill="#DAEEF3" fill-rule="evenodd" /><g clip-path="url(#123)"></g><g clip-path="url(#124)"></g><g clip-path="url(#125)"></g><g clip-path="url(#126)"></g><path transform="matrix(1 0 0 -1 0 841)" d="M344.47 193.61L494.25 193.61L494.25 193.61L494.25 209.81L494.25 209.81L344.47 209.81z" stroke="none" fill="#DAEEF3" fill-rule="evenodd" /><g clip-path="url(#127)"></g><g clip-path="url(#128)"></g><g clip-path="url(#129)"></g><g clip-path="url(#130)"></g><g clip-path="url(#131)"></g><g clip-path="url(#132)"></g><path transform="matrix(1 0 0 -1 0 841)" d="M458.23 195.17L494.254 195.17L494.254 195.17L494.254 195.77L494.254 195.77L458.23 195.77z" stroke="none" fill="#548DD4" fill-rule="evenodd" /><path transform="matrix(1 0 0 -1 0 841)" d="M344.47 172.46L494.25 172.46L494.25 172.46L494.25 193.604L494.25 193.604L344.47 193.604z" stroke="none" fill="#DAEEF3" fill-rule="evenodd" /><g clip-path="url(#133)"></g><g clip-path="url(#134)"></g><g clip-path="url(#135)"></g><path transform="matrix(1 0 0 -1 0 841)" d="M350.47 178.82L362.47 178.82L362.47 178.82L362.47 179.42L362.47 179.42L350.47 179.42z" stroke="none" fill="#548DD4" fill-rule="evenodd" /></g><path transform="matrix(1 0 0 -1 0 841)" d="M84.264 234.89L84.744 234.89L84.744 234.89L84.744 235.37L84.744 235.37L84.264 235.37z" stroke="none" fill="#000000" fill-rule="evenodd" /><path transform="matrix(1 0 0 -1 0 841)" d="M84.744 234.89L174.144 234.89L174.144 234.89L174.144 235.37L174.144 235.37L84.744 235.37z" stroke="none" fill="#000000" fill-rule="evenodd" /><path transform="matrix(1 0 0 -1 0 841)" d="M174.14 234.89L174.62 234.89L174.62 234.89L174.62 235.37L174.62 235.37L174.14 235.37z" stroke="none" fill="#000000" fill-rule="evenodd" /><path transform="matrix(1 0 0 -1 0 841)" d="M174.62 234.89L238.364 234.89L238.364 234.89L238.364 235.37L238.364 235.37L174.62 235.37z" stroke="none" fill="#000000" fill-rule="evenodd" /><path transform="matrix(1 0 0 -1 0 841)" d="M238.37 234.89L238.85 234.89L238.85 234.89L238.85 235.37L238.85 235.37L238.37 235.37z" stroke="none" fill="#000000" fill-rule="evenodd" /><path transform="matrix(1 0 0 -1 0 841)" d="M238.85 234.89L280.73 234.89L280.73 234.89L280.73 235.37L280.73 235.37L238.85 235.37z" stroke="none" fill="#000000" fill-rule="evenodd" /><path transform="matrix(1 0 0 -1 0 841)" d="M280.73 234.89L281.21 234.89L281.21 234.89L281.21 235.37L281.21 235.37L280.73 235.37z" stroke="none" fill="#000000" fill-rule="evenodd" /><path transform="matrix(1 0 0 -1 0 841)" d="M281.21 234.89L338.834 234.89L338.834 234.89L338.834 235.37L338.834 235.37L281.21 235.37z" stroke="none" fill="#000000" fill-rule="evenodd" /><path transform="matrix(1 0 0 -1 0 841)" d="M338.83 234.89L339.31 234.89L339.31 234.89L339.31 235.37L339.31 235.37L338.83 235.37z" stroke="none" fill="#000000" fill-rule="evenodd" /><path transform="matrix(1 0 0 -1 0 841)" d="M339.31 234.89L499.41 234.89L499.41 234.89L499.41 235.37L499.41 235.37L339.31 235.37z" stroke="none" fill="#000000" fill-rule="evenodd" /><path transform="matrix(1 0 0 -1 0 841)" d="M499.42 234.89L499.9 234.89L499.9 234.89L499.9 235.37L499.9 235.37L499.42 235.37z" stroke="none" fill="#000000" fill-rule="evenodd" /><path transform="matrix(1 0 0 -1 0 841)" d="M84.264 172.46L84.744 172.46L84.744 172.46L84.744 234.884L84.744 234.884L84.264 234.884z" stroke="none" fill="#000000" fill-rule="evenodd" /><path transform="matrix(1 0 0 -1 0 841)" d="M174.14 172.46L174.62 172.46L174.62 172.46L174.62 234.884L174.62 234.884L174.14 234.884z" stroke="none" fill="#000000" fill-rule="evenodd" /><path transform="matrix(1 0 0 -1 0 841)" d="M238.37 172.46L238.85 172.46L238.85 172.46L238.85 234.884L238.85 234.884L238.37 234.884z" stroke="none" fill="#000000" fill-rule="evenodd" /><path transform="matrix(1 0 0 -1 0 841)" d="M280.73 172.46L281.21 172.46L281.21 172.46L281.21 234.884L281.21 234.884L280.73 234.884z" stroke="none" fill="#000000" fill-rule="evenodd" /><path transform="matrix(1 0 0 -1 0 841)" d="M338.83 172.46L339.31 172.46L339.31 172.46L339.31 234.884L339.31 234.884L338.83 234.884z" stroke="none" fill="#000000" fill-rule="evenodd" /><path transform="matrix(1 0 0 -1 0 841)" d="M499.42 172.46L499.9 172.46L499.9 172.46L499.9 234.884L499.9 234.884L499.42 234.884z" stroke="none" fill="#000000" fill-rule="evenodd" /><g clip-path="url(#136)"><g clip-path="url(#137)"></g><g clip-path="url(#138)"></g></g><g clip-path="url(#139)"><g clip-path="url(#140)"></g><g clip-path="url(#141)"></g></g><g clip-path="url(#142)"><g clip-path="url(#143)"></g><g clip-path="url(#144)"></g></g><g clip-path="url(#145)"><g clip-path="url(#146)"></g><g clip-path="url(#147)"></g></g><g clip-path="url(#148)"><g clip-path="url(#149)"></g><g clip-path="url(#150)"></g><g clip-path="url(#151)"></g><g clip-path="url(#152)"></g><g clip-path="url(#153)"></g><g clip-path="url(#154)"></g><path transform="matrix(1 0 0 -1 0 841)" d="M346.87 127.34L394.87 127.34L394.87 127.34L394.87 127.94L394.87 127.94L346.87 127.94z" stroke="none" fill="#000000" fill-rule="evenodd" /></g><path transform="matrix(1 0 0 -1 0 841)" d="M84.264 171.98L84.744 171.98L84.744 171.98L84.744 172.46L84.744 172.46L84.264 172.46z" stroke="none" fill="#000000" fill-rule="evenodd" /><path transform="matrix(1 0 0 -1 0 841)" d="M84.744 171.98L174.144 171.98L174.144 171.98L174.144 172.46L174.144 172.46L84.744 172.46z" stroke="none" fill="#000000" fill-rule="evenodd" /><path transform="matrix(1 0 0 -1 0 841)" d="M174.14 171.98L174.62 171.98L174.62 171.98L174.62 172.46L174.62 172.46L174.14 172.46z" stroke="none" fill="#000000" fill-rule="evenodd" /><path transform="matrix(1 0 0 -1 0 841)" d="M174.62 171.98L238.364 171.98L238.364 171.98L238.364 172.46L238.364 172.46L174.62 172.46z" stroke="none" fill="#000000" fill-rule="evenodd" /><path transform="matrix(1 0 0 -1 0 841)" d="M238.37 171.98L238.85 171.98L238.85 171.98L238.85 172.46L238.85 172.46L238.37 172.46z" stroke="none" fill="#000000" fill-rule="evenodd" /><path transform="matrix(1 0 0 -1 0 841)" d="M238.85 171.98L280.73 171.98L280.73 171.98L280.73 172.46L280.73 172.46L238.85 172.46z" stroke="none" fill="#000000" fill-rule="evenodd" /><path transform="matrix(1 0 0 -1 0 841)" d="M280.73 171.98L281.21 171.98L281.21 171.98L281.21 172.46L281.21 172.46L280.73 172.46z" stroke="none" fill="#000000" fill-rule="evenodd" /><path transform="matrix(1 0 0 -1 0 841)" d="M281.21 171.98L338.834 171.98L338.834 171.98L338.834 172.46L338.834 172.46L281.21 172.46z" stroke="none" fill="#000000" fill-rule="evenodd" /><path transform="matrix(1 0 0 -1 0 841)" d="M338.83 171.98L339.31 171.98L339.31 171.98L339.31 172.46L339.31 172.46L338.83 172.46z" stroke="none" fill="#000000" fill-rule="evenodd" /><path transform="matrix(1 0 0 -1 0 841)" d="M339.31 171.98L499.41 171.98L499.41 171.98L499.41 172.46L499.41 172.46L339.31 172.46z" stroke="none" fill="#000000" fill-rule="evenodd" /><path transform="matrix(1 0 0 -1 0 841)" d="M499.42 171.98L499.9 171.98L499.9 171.98L499.9 172.46L499.9 172.46L499.42 172.46z" stroke="none" fill="#000000" fill-rule="evenodd" /><path transform="matrix(1 0 0 -1 0 841)" d="M84.264 121.22L84.744 121.22L84.744 121.22L84.744 171.98L84.744 171.98L84.264 171.98z" stroke="none" fill="#000000" fill-rule="evenodd" /><path transform="matrix(1 0 0 -1 0 841)" d="M84.264 120.74L84.744 120.74L84.744 120.74L84.744 121.22L84.744 121.22L84.264 121.22z" stroke="none" fill="#000000" fill-rule="evenodd" /><path transform="matrix(1 0 0 -1 0 841)" d="M84.264 120.74L84.744 120.74L84.744 120.74L84.744 121.22L84.744 121.22L84.264 121.22z" stroke="none" fill="#000000" fill-rule="evenodd" /><path transform="matrix(1 0 0 -1 0 841)" d="M84.744 120.74L174.144 120.74L174.144 120.74L174.144 121.22L174.144 121.22L84.744 121.22z" stroke="none" fill="#000000" fill-rule="evenodd" /><path transform="matrix(1 0 0 -1 0 841)" d="M174.14 121.22L174.62 121.22L174.62 121.22L174.62 171.98L174.62 171.98L174.14 171.98z" stroke="none" fill="#000000" fill-rule="evenodd" /><path transform="matrix(1 0 0 -1 0 841)" d="M174.14 120.74L174.62 120.74L174.62 120.74L174.62 121.22L174.62 121.22L174.14 121.22z" stroke="none" fill="#000000" fill-rule="evenodd" /><path transform="matrix(1 0 0 -1 0 841)" d="M174.62 120.74L238.364 120.74L238.364 120.74L238.364 121.22L238.364 121.22L174.62 121.22z" stroke="none" fill="#000000" fill-rule="evenodd" /><path transform="matrix(1 0 0 -1 0 841)" d="M238.37 121.22L238.85 121.22L238.85 121.22L238.85 171.98L238.85 171.98L238.37 171.98z" stroke="none" fill="#000000" fill-rule="evenodd" /><path transform="matrix(1 0 0 -1 0 841)" d="M238.37 120.74L238.85 120.74L238.85 120.74L238.85 121.22L238.85 121.22L238.37 121.22z" stroke="none" fill="#000000" fill-rule="evenodd" /><path transform="matrix(1 0 0 -1 0 841)" d="M238.85 120.74L280.73 120.74L280.73 120.74L280.73 121.22L280.73 121.22L238.85 121.22z" stroke="none" fill="#000000" fill-rule="evenodd" /><path transform="matrix(1 0 0 -1 0 841)" d="M280.73 121.22L281.21 121.22L281.21 121.22L281.21 171.98L281.21 171.98L280.73 171.98z" stroke="none" fill="#000000" fill-rule="evenodd" /><path transform="matrix(1 0 0 -1 0 841)" d="M280.73 120.74L281.21 120.74L281.21 120.74L281.21 121.22L281.21 121.22L280.73 121.22z" stroke="none" fill="#000000" fill-rule="evenodd" /><path transform="matrix(1 0 0 -1 0 841)" d="M281.21 120.74L338.834 120.74L338.834 120.74L338.834 121.22L338.834 121.22L281.21 121.22z" stroke="none" fill="#000000" fill-rule="evenodd" /><path transform="matrix(1 0 0 -1 0 841)" d="M338.83 121.22L339.31 121.22L339.31 121.22L339.31 171.98L339.31 171.98L338.83 171.98z" stroke="none" fill="#000000" fill-rule="evenodd" /><path transform="matrix(1 0 0 -1 0 841)" d="M338.83 120.74L339.31 120.74L339.31 120.74L339.31 121.22L339.31 121.22L338.83 121.22z" stroke="none" fill="#000000" fill-rule="evenodd" /><path transform="matrix(1 0 0 -1 0 841)" d="M339.31 120.74L499.41 120.74L499.41 120.74L499.41 121.22L499.41 121.22L339.31 121.22z" stroke="none" fill="#000000" fill-rule="evenodd" /><path transform="matrix(1 0 0 -1 0 841)" d="M499.42 121.22L499.9 121.22L499.9 121.22L499.9 171.98L499.9 171.98L499.42 171.98z" stroke="none" fill="#000000" fill-rule="evenodd" /><path transform="matrix(1 0 0 -1 0 841)" d="M499.42 120.74L499.9 120.74L499.9 120.74L499.9 121.22L499.9 121.22L499.42 121.22z" stroke="none" fill="#000000" fill-rule="evenodd" /><path transform="matrix(1 0 0 -1 0 841)" d="M499.42 120.74L499.9 120.74L499.9 120.74L499.9 121.22L499.9 121.22L499.42 121.22z" stroke="none" fill="#000000" fill-rule="evenodd" /></g></g></g></svg>