<svg xmlns="http://www.w3.org/2000/svg" xmlns:xlink="http://www.w3.org/1999/xlink" id="body_48" preserveAspectRatio="xMinYMin meet" viewBox="0 0 793 1121"><defs><clipPath id="1"><path d="M0 841L0 -0.9199829L0 -0.9199829L595.32 -0.9199829L595.32 -0.9199829L595.32 841L595.32 841L0 841z" /></clipPath><clipPath id="2"><path d="M0.00125 841.0914L595.4112 841.0914L595.4112 841.0914L595.4112 -0.9186401L595.4112 -0.9186401L0.00125 -0.9186401z" /></clipPath><clipPath id="3"><path d="M295.13 780.251L305.21 780.251L305.21 780.251L305.21 768.011L305.21 768.011L295.13 768.011z" /></clipPath><clipPath id="4"><path d="M295.13 780.256L305.21 780.256L305.21 780.256L305.21 768.016L305.21 768.016L295.13 768.016z" /></clipPath><clipPath id="5"><path d="M295.13 780.256L305.21 780.256L305.21 780.256L305.21 768.016L305.21 768.016L295.13 768.016z" /></clipPath><clipPath id="6"><path d="M84.751 494.64L510.691 494.64L510.691 494.64L510.691 475.56L510.691 475.56L84.751 475.56z" /></clipPath><clipPath id="7"><path d="M84.744 494.63L510.694 494.63L510.694 494.63L510.694 475.55L510.694 475.55L84.744 475.55z" /></clipPath><clipPath id="8"><path d="M84.744 494.63L510.694 494.63L510.694 494.63L510.694 475.55L510.694 475.55L84.744 475.55z" /></clipPath><clipPath id="9"><path d="M84.744 494.63L510.694 494.63L510.694 494.63L510.694 475.55L510.694 475.55L84.744 475.55z" /></clipPath><clipPath id="10"><path d="M84.751 647.52L510.691 647.52L510.691 647.52L510.691 495.12L510.691 495.12L84.751 495.12z" /></clipPath><clipPath id="11"><path d="M84.744 647.51L510.694 647.51L510.694 647.51L510.694 495.11L510.694 495.11L84.744 495.11z" /></clipPath><clipPath id="12"><path d="M84.744 647.51L510.694 647.51L510.694 647.51L510.694 495.11L510.694 495.11L84.744 495.11z" /></clipPath><clipPath id="13"><path d="M84.744 647.51L510.694 647.51L510.694 647.51L510.694 495.11L510.694 495.11L84.744 495.11z" /></clipPath><clipPath id="14"><path d="M84.744 647.51L510.694 647.51L510.694 647.51L510.694 495.11L510.694 495.11L84.744 495.11z" /></clipPath><clipPath id="15"><path d="M84.744 647.51L510.694 647.51L510.694 647.51L510.694 495.11L510.694 495.11L84.744 495.11z" /></clipPath><clipPath id="16"><path d="M84.744 647.51L510.694 647.51L510.694 647.51L510.694 495.11L510.694 495.11L84.744 495.11z" /></clipPath><clipPath id="17"><path d="M84.744 647.51L510.694 647.51L510.694 647.51L510.694 495.11L510.694 495.11L84.744 495.11z" /></clipPath><clipPath id="18"><path d="M84.744 647.51L510.694 647.51L510.694 647.51L510.694 495.11L510.694 495.11L84.744 495.11z" /></clipPath><clipPath id="19"><path d="M84.744 647.51L510.694 647.51L510.694 647.51L510.694 495.11L510.694 495.11L84.744 495.11z" /></clipPath><clipPath id="20"><path d="M84.744 647.51L510.694 647.51L510.694 647.51L510.694 495.11L510.694 495.11L84.744 495.11z" /></clipPath><clipPath id="21"><path d="M84.744 647.51L510.694 647.51L510.694 647.51L510.694 495.11L510.694 495.11L84.744 495.11z" /></clipPath><clipPath id="22"><path d="M84.744 647.51L510.694 647.51L510.694 647.51L510.694 495.11L510.694 495.11L84.744 495.11z" /></clipPath><clipPath id="23"><path d="M84.744 647.51L510.694 647.51L510.694 647.51L510.694 495.11L510.694 495.11L84.744 495.11z" /></clipPath><clipPath id="24"><path d="M84.744 647.51L510.694 647.51L510.694 647.51L510.694 495.11L510.694 495.11L84.744 495.11z" /></clipPath><clipPath id="25"><path d="M84.744 647.51L510.694 647.51L510.694 647.51L510.694 495.11L510.694 495.11L84.744 495.11z" /></clipPath><clipPath id="26"><path d="M-1.148E-06 319.72L595.32 319.72L595.32 319.72L595.32 88.95996L595.32 88.95996L-1.148E-06 88.95996z" /></clipPath></defs><g transform="matrix(1.333333 0 0 1.333333 0 0)"><g><g clip-path="url(#1)"><path transform="matrix(1 0 0 -1 0 841)" d="M457.63 53.424L505.534 53.424L505.534 53.424L505.534 54.02404L505.534 54.02404L457.63 54.02404z" stroke="none" fill="#000000" fill-rule="evenodd" /><g clip-path="url(#2)"><path transform="matrix(1 0 0 -1 0 841)" d="M88.464 78.984L506.974 78.984L506.974 78.984L506.974 81.984L506.974 81.984L88.464 81.984z" stroke="none" fill="#000000" fill-rule="evenodd" /><path transform="matrix(1 0 0 -1 0 841)" d="M88.464 77.544L506.974 77.544L506.974 77.544L506.974 78.26397L506.974 78.26397L88.464 78.26397z" stroke="none" fill="#000000" fill-rule="evenodd" /></g><g clip-path="url(#3)"><g clip-path="url(#4)"></g><g clip-path="url(#5)"></g></g><path transform="matrix(1 0 0 -1 0 841)" d="M185.66 430.15L266.084 430.15L266.084 430.15L266.084 430.99L266.084 430.99L185.66 430.99z" stroke="none" fill="#000000" fill-rule="evenodd" /><path transform="matrix(1 0 0 -1 0 841)" d="M282.17 430.15L330.29 430.15L330.29 430.15L330.29 430.99L330.29 430.99L282.17 430.99z" stroke="none" fill="#000000" fill-rule="evenodd" /><path transform="matrix(1 0 0 -1 0 841)" d="M84.744 346.37L510.694 346.37L510.694 346.37L510.694 365.45L510.694 365.45L84.744 365.45z" stroke="none" fill="#0070C0" fill-rule="evenodd" /><g clip-path="url(#6)"><path transform="matrix(1 0 0 -1 0 841)" d="M89.904 346.37L505.534 346.37L505.534 346.37L505.534 365.45L505.534 365.45L89.904 365.45z" stroke="none" fill="#0070C0" fill-rule="evenodd" /><g clip-path="url(#7)"></g><g clip-path="url(#8)"></g><g clip-path="url(#9)"></g></g><path transform="matrix(1 0 0 -1 0 841)" d="M84.264 365.45L84.744 365.45L84.744 365.45L84.744 365.93L84.744 365.93L84.264 365.93z" stroke="none" fill="#000000" fill-rule="evenodd" /><path transform="matrix(1 0 0 -1 0 841)" d="M84.264 365.45L84.744 365.45L84.744 365.45L84.744 365.93L84.744 365.93L84.264 365.93z" stroke="none" fill="#000000" fill-rule="evenodd" /><path transform="matrix(1 0 0 -1 0 841)" d="M84.744 365.45L510.694 365.45L510.694 365.45L510.694 365.93L510.694 365.93L84.744 365.93z" stroke="none" fill="#000000" fill-rule="evenodd" /><path transform="matrix(1 0 0 -1 0 841)" d="M510.7 365.45L511.18 365.45L511.18 365.45L511.18 365.93L511.18 365.93L510.7 365.93z" stroke="none" fill="#000000" fill-rule="evenodd" /><path transform="matrix(1 0 0 -1 0 841)" d="M510.7 365.45L511.18 365.45L511.18 365.45L511.18 365.93L511.18 365.93L510.7 365.93z" stroke="none" fill="#000000" fill-rule="evenodd" /><path transform="matrix(1 0 0 -1 0 841)" d="M84.264 346.37L84.744 346.37L84.744 346.37L84.744 365.45L84.744 365.45L84.264 365.45z" stroke="none" fill="#000000" fill-rule="evenodd" /><path transform="matrix(1 0 0 -1 0 841)" d="M510.7 346.37L511.18 346.37L511.18 346.37L511.18 365.45L511.18 365.45L510.7 365.45z" stroke="none" fill="#000000" fill-rule="evenodd" /><path transform="matrix(1 0 0 -1 0 841)" d="M84.744 193.49L510.694 193.49L510.694 193.49L510.694 345.89L510.694 345.89L84.744 345.89z" stroke="none" fill="#DAEEF3" fill-rule="evenodd" /><g clip-path="url(#10)"><path transform="matrix(1 0 0 -1 0 841)" d="M89.904 326.81L505.534 326.81L505.534 326.81L505.534 345.89L505.534 345.89L89.904 345.89z" stroke="none" fill="#DAEEF3" fill-rule="evenodd" /><g clip-path="url(#11)"></g><g clip-path="url(#12)"></g><path transform="matrix(1 0 0 -1 0 841)" d="M89.904 307.73L505.534 307.73L505.534 307.73L505.534 326.81L505.534 326.81L89.904 326.81z" stroke="none" fill="#DAEEF3" fill-rule="evenodd" /><g clip-path="url(#13)"></g><g clip-path="url(#14)"></g><path transform="matrix(1 0 0 -1 0 841)" d="M89.904 288.65L505.534 288.65L505.534 288.65L505.534 307.73L505.534 307.73L89.904 307.73z" stroke="none" fill="#DAEEF3" fill-rule="evenodd" /><g clip-path="url(#15)"></g><g clip-path="url(#16)"></g><path transform="matrix(1 0 0 -1 0 841)" d="M89.904 269.69L505.534 269.69L505.534 269.69L505.534 288.65L505.534 288.65L89.904 288.65z" stroke="none" fill="#DAEEF3" fill-rule="evenodd" /><g clip-path="url(#17)"></g><g clip-path="url(#18)"></g><path transform="matrix(1 0 0 -1 0 841)" d="M89.904 250.61L505.534 250.61L505.534 250.61L505.534 269.69L505.534 269.69L89.904 269.69z" stroke="none" fill="#DAEEF3" fill-rule="evenodd" /><g clip-path="url(#19)"></g><g clip-path="url(#20)"></g><path transform="matrix(1 0 0 -1 0 841)" d="M89.904 231.53L505.534 231.53L505.534 231.53L505.534 250.61L505.534 250.61L89.904 250.61z" stroke="none" fill="#DAEEF3" fill-rule="evenodd" /><g clip-path="url(#21)"></g><path transform="matrix(1 0 0 -1 0 841)" d="M89.904 212.45L505.534 212.45L505.534 212.45L505.534 231.53L505.534 231.53L89.904 231.53z" stroke="none" fill="#DAEEF3" fill-rule="evenodd" /><g clip-path="url(#22)"></g><g clip-path="url(#23)"></g><path transform="matrix(1 0 0 -1 0 841)" d="M89.904 193.49L505.534 193.49L505.534 193.49L505.534 212.45L505.534 212.45L89.904 212.45z" stroke="none" fill="#DAEEF3" fill-rule="evenodd" /><g clip-path="url(#24)"></g><g clip-path="url(#25)"></g></g><path transform="matrix(1 0 0 -1 0 841)" d="M84.264 345.89L84.744 345.89L84.744 345.89L84.744 346.37L84.744 346.37L84.264 346.37z" stroke="none" fill="#000000" fill-rule="evenodd" /><path transform="matrix(1 0 0 -1 0 841)" d="M84.744 345.89L510.694 345.89L510.694 345.89L510.694 346.37L510.694 346.37L84.744 346.37z" stroke="none" fill="#000000" fill-rule="evenodd" /><path transform="matrix(1 0 0 -1 0 841)" d="M510.7 345.89L511.18 345.89L511.18 345.89L511.18 346.37L511.18 346.37L510.7 346.37z" stroke="none" fill="#000000" fill-rule="evenodd" /><path transform="matrix(1 0 0 -1 0 841)" d="M84.264 193.49L84.744 193.49L84.744 193.49L84.744 345.89L84.744 345.89L84.264 345.89z" stroke="none" fill="#000000" fill-rule="evenodd" /><path transform="matrix(1 0 0 -1 0 841)" d="M84.264 193.01L84.744 193.01L84.744 193.01L84.744 193.49L84.744 193.49L84.264 193.49z" stroke="none" fill="#000000" fill-rule="evenodd" /><path transform="matrix(1 0 0 -1 0 841)" d="M84.264 193.01L84.744 193.01L84.744 193.01L84.744 193.49L84.744 193.49L84.264 193.49z" stroke="none" fill="#000000" fill-rule="evenodd" /><path transform="matrix(1 0 0 -1 0 841)" d="M84.744 193.01L510.694 193.01L510.694 193.01L510.694 193.49L510.694 193.49L84.744 193.49z" stroke="none" fill="#000000" fill-rule="evenodd" /><path transform="matrix(1 0 0 -1 0 841)" d="M510.7 193.49L511.18 193.49L511.18 193.49L511.18 345.89L511.18 345.89L510.7 345.89z" stroke="none" fill="#000000" fill-rule="evenodd" /><path transform="matrix(1 0 0 -1 0 841)" d="M510.7 193.01L511.18 193.01L511.18 193.01L511.18 193.49L511.18 193.49L510.7 193.49z" stroke="none" fill="#000000" fill-rule="evenodd" /><path transform="matrix(1 0 0 -1 0 841)" d="M510.7 193.01L511.18 193.01L511.18 193.01L511.18 193.49L511.18 193.49L510.7 193.49z" stroke="none" fill="#000000" fill-rule="evenodd" /><g clip-path="url(#26)"><g transform="matrix(0.3268636 0 0 0.3266276 181.45 88.94)"><g transform="matrix(1 0 0 1 0 0)"><image x="0" y="0" xlink:href="img_57.png" width="711" height="682" /></g></g></g></g></g></g></svg>