<svg xmlns="http://www.w3.org/2000/svg" xmlns:xlink="http://www.w3.org/1999/xlink" id="body_75" preserveAspectRatio="xMinYMin meet" viewBox="0 0 793 1121"><defs><clipPath id="1"><path d="M0 841L0 -0.9199829L0 -0.9199829L595.32 -0.9199829L595.32 -0.9199829L595.32 841L595.32 841L0 841z" /></clipPath><clipPath id="2"><path d="M0.00125 841.0914L595.4112 841.0914L595.4112 841.0914L595.4112 -0.9186401L595.4112 -0.9186401L0.00125 -0.9186401z" /></clipPath><clipPath id="3"><path d="M288.05 779.771L316.01 779.771L316.01 779.771L316.01 760.691L316.01 760.691L288.05 760.691z" /></clipPath><clipPath id="4"><path d="M288.05 779.776L316.01 779.776L316.01 779.776L316.01 760.696L316.01 760.696L288.05 760.696z" /></clipPath><clipPath id="5"><path d="M288.05 779.776L316.01 779.776L316.01 779.776L316.01 760.696L316.01 760.696L288.05 760.696z" /></clipPath><clipPath id="6"><path d="M84.751 699.49L160.711 699.49L160.711 699.49L160.711 680.41L160.711 680.41L84.751 680.41z" /></clipPath><clipPath id="7"><path d="M84.744 699.5L160.704 699.5L160.704 699.5L160.704 680.42L160.704 680.42L84.744 680.42z" /></clipPath><clipPath id="8"><path d="M84.744 699.5L160.704 699.5L160.704 699.5L160.704 680.42L160.704 680.42L84.744 680.42z" /></clipPath><clipPath id="9"><path d="M161.19 699.49L210.405 699.49L210.405 699.49L210.405 680.41L210.405 680.41L161.19 680.41z" /></clipPath><clipPath id="10"><path d="M161.18 699.5L210.404 699.5L210.404 699.5L210.404 680.42L210.404 680.42L161.18 680.42z" /></clipPath><clipPath id="11"><path d="M161.18 699.5L210.404 699.5L210.404 699.5L210.404 680.42L210.404 680.42L161.18 680.42z" /></clipPath><clipPath id="12"><path d="M211.01 699.49L259.97 699.49L259.97 699.49L259.97 680.41L259.97 680.41L211.01 680.41z" /></clipPath><clipPath id="13"><path d="M211.01 699.5L259.97 699.5L259.97 699.5L259.97 680.42L259.97 680.42L211.01 680.42z" /></clipPath><clipPath id="14"><path d="M211.01 699.5L259.97 699.5L259.97 699.5L259.97 680.42L259.97 680.42L211.01 680.42z" /></clipPath><clipPath id="15"><path d="M260.45 699.49L387.68 699.49L387.68 699.49L387.68 680.41L387.68 680.41L260.45 680.41z" /></clipPath><clipPath id="16"><path d="M260.45 699.5L387.67 699.5L387.67 699.5L387.67 680.42L387.67 680.42L260.45 680.42z" /></clipPath><clipPath id="17"><path d="M260.45 699.5L387.67 699.5L387.67 699.5L387.67 680.42L387.67 680.42L260.45 680.42z" /></clipPath><clipPath id="18"><path d="M388.16 699.49L510.7 699.49L510.7 699.49L510.7 680.41L510.7 680.41L388.16 680.41z" /></clipPath><clipPath id="19"><path d="M388.15 699.5L510.69 699.5L510.69 699.5L510.69 680.42L510.69 680.42L388.15 680.42z" /></clipPath><clipPath id="20"><path d="M388.15 699.5L510.69 699.5L510.69 699.5L510.69 680.42L510.69 680.42L388.15 680.42z" /></clipPath><clipPath id="21"><path d="M84.751 738.01L160.711 738.01L160.711 738.01L160.711 699.97L160.711 699.97L84.751 699.97z" /></clipPath><clipPath id="22"><path d="M84.744 738.02L160.704 738.02L160.704 738.02L160.704 699.98L160.704 699.98L84.744 699.98z" /></clipPath><clipPath id="23"><path d="M84.744 738.02L160.704 738.02L160.704 738.02L160.704 699.98L160.704 699.98L84.744 699.98z" /></clipPath><clipPath id="24"><path d="M161.19 738.01L210.405 738.01L210.405 738.01L210.405 699.97L210.405 699.97L161.19 699.97z" /></clipPath><clipPath id="25"><path d="M161.18 738.02L210.404 738.02L210.404 738.02L210.404 699.98L210.404 699.98L161.18 699.98z" /></clipPath><clipPath id="26"><path d="M161.18 738.02L210.404 738.02L210.404 738.02L210.404 699.98L210.404 699.98L161.18 699.98z" /></clipPath><clipPath id="27"><path d="M211.01 738.01L259.97 738.01L259.97 738.01L259.97 699.97L259.97 699.97L211.01 699.97z" /></clipPath><clipPath id="28"><path d="M211.01 738.02L259.97 738.02L259.97 738.02L259.97 699.98L259.97 699.98L211.01 699.98z" /></clipPath><clipPath id="29"><path d="M211.01 738.02L259.97 738.02L259.97 738.02L259.97 699.98L259.97 699.98L211.01 699.98z" /></clipPath><clipPath id="30"><path d="M260.45 738.01L387.68 738.01L387.68 738.01L387.68 699.97L387.68 699.97L260.45 699.97z" /></clipPath><clipPath id="31"><path d="M260.45 738.02L387.67 738.02L387.67 738.02L387.67 699.98L387.67 699.98L260.45 699.98z" /></clipPath><clipPath id="32"><path d="M260.45 738.02L387.67 738.02L387.67 738.02L387.67 699.98L387.67 699.98L260.45 699.98z" /></clipPath><clipPath id="33"><path d="M260.45 738.02L387.67 738.02L387.67 738.02L387.67 699.98L387.67 699.98L260.45 699.98z" /></clipPath><clipPath id="34"><path d="M388.16 738.01L510.7 738.01L510.7 738.01L510.7 699.97L510.7 699.97L388.16 699.97z" /></clipPath><clipPath id="35"><path d="M388.15 738.02L510.69 738.02L510.69 738.02L510.69 699.98L510.69 699.98L388.15 699.98z" /></clipPath><clipPath id="36"><path d="M388.15 738.02L510.69 738.02L510.69 738.02L510.69 699.98L510.69 699.98L388.15 699.98z" /></clipPath><clipPath id="37"><path d="M2.03E-07 553.12L595.32 553.12L595.32 553.12L595.32 269.2L595.32 269.2L2.03E-07 269.2z" /></clipPath></defs><g transform="matrix(1.333333 0 0 1.333333 0 0)"><g><g clip-path="url(#1)"><path transform="matrix(1 0 0 -1 0 841)" d="M457.51 53.304L505.534 53.304L505.534 53.304L505.534 53.90404L505.534 53.90404L457.51 53.90404z" stroke="none" fill="#000000" fill-rule="evenodd" /><g clip-path="url(#2)"><path transform="matrix(1 0 0 -1 0 841)" d="M88.464 77.904L506.974 77.904L506.974 77.904L506.974 80.904L506.974 80.904L88.464 80.904z" stroke="none" fill="#000000" fill-rule="evenodd" /><path transform="matrix(1 0 0 -1 0 841)" d="M88.464 76.464L506.974 76.464L506.974 76.464L506.974 77.18397L506.974 77.18397L88.464 77.18397z" stroke="none" fill="#000000" fill-rule="evenodd" /></g><g clip-path="url(#3)"><g clip-path="url(#4)"></g><g clip-path="url(#5)"></g></g><path transform="matrix(1 0 0 -1 0 841)" d="M185.66 225.41L266.084 225.41L266.084 225.41L266.084 226.25L266.084 226.25L185.66 226.25z" stroke="none" fill="#000000" fill-rule="evenodd" /><path transform="matrix(1 0 0 -1 0 841)" d="M282.17 225.41L330.29 225.41L330.29 225.41L330.29 226.25L330.29 226.25L282.17 226.25z" stroke="none" fill="#000000" fill-rule="evenodd" /><path transform="matrix(1 0 0 -1 0 841)" d="M84.744 141.5L160.704 141.5L160.704 141.5L160.704 160.58L160.704 160.58L84.744 160.58z" stroke="none" fill="#0070C0" fill-rule="evenodd" /><g clip-path="url(#6)"><path transform="matrix(1 0 0 -1 0 841)" d="M89.904 141.5L155.544 141.5L155.544 141.5L155.544 160.58L155.544 160.58L89.904 160.58z" stroke="none" fill="#0070C0" fill-rule="evenodd" /><g clip-path="url(#7)"></g><g clip-path="url(#8)"></g></g><path transform="matrix(1 0 0 -1 0 841)" d="M161.18 141.5L210.404 141.5L210.404 141.5L210.404 160.58L210.404 160.58L161.18 160.58z" stroke="none" fill="#0070C0" fill-rule="evenodd" /><g clip-path="url(#9)"><path transform="matrix(1 0 0 -1 0 841)" d="M166.34 141.5L205.244 141.5L205.244 141.5L205.244 160.58L205.244 160.58L166.34 160.58z" stroke="none" fill="#0070C0" fill-rule="evenodd" /><g clip-path="url(#10)"></g><g clip-path="url(#11)"></g></g><path transform="matrix(1 0 0 -1 0 841)" d="M211.01 141.5L259.97 141.5L259.97 141.5L259.97 160.58L259.97 160.58L211.01 160.58z" stroke="none" fill="#0070C0" fill-rule="evenodd" /><g clip-path="url(#12)"><path transform="matrix(1 0 0 -1 0 841)" d="M216.05 141.5L254.81 141.5L254.81 141.5L254.81 160.58L254.81 160.58L216.05 160.58z" stroke="none" fill="#0070C0" fill-rule="evenodd" /><g clip-path="url(#13)"></g><g clip-path="url(#14)"></g></g><path transform="matrix(1 0 0 -1 0 841)" d="M260.45 141.5L387.67 141.5L387.67 141.5L387.67 160.58L387.67 160.58L260.45 160.58z" stroke="none" fill="#0070C0" fill-rule="evenodd" /><g clip-path="url(#15)"><path transform="matrix(1 0 0 -1 0 841)" d="M265.61 141.5L382.51 141.5L382.51 141.5L382.51 160.58L382.51 160.58L265.61 160.58z" stroke="none" fill="#0070C0" fill-rule="evenodd" /><g clip-path="url(#16)"></g><g clip-path="url(#17)"></g></g><path transform="matrix(1 0 0 -1 0 841)" d="M388.15 141.5L510.69 141.5L510.69 141.5L510.69 160.58L510.69 160.58L388.15 160.58z" stroke="none" fill="#0070C0" fill-rule="evenodd" /><g clip-path="url(#18)"><path transform="matrix(1 0 0 -1 0 841)" d="M393.31 141.5L505.53 141.5L505.53 141.5L505.53 160.58L505.53 160.58L393.31 160.58z" stroke="none" fill="#0070C0" fill-rule="evenodd" /><g clip-path="url(#19)"></g><g clip-path="url(#20)"></g></g><path transform="matrix(1 0 0 -1 0 841)" d="M84.264 160.58L84.744 160.58L84.744 160.58L84.744 161.06L84.744 161.06L84.264 161.06z" stroke="none" fill="#000000" fill-rule="evenodd" /><path transform="matrix(1 0 0 -1 0 841)" d="M84.264 160.58L84.744 160.58L84.744 160.58L84.744 161.06L84.744 161.06L84.264 161.06z" stroke="none" fill="#000000" fill-rule="evenodd" /><path transform="matrix(1 0 0 -1 0 841)" d="M84.744 160.58L160.704 160.58L160.704 160.58L160.704 161.06L160.704 161.06L84.744 161.06z" stroke="none" fill="#000000" fill-rule="evenodd" /><path transform="matrix(1 0 0 -1 0 841)" d="M160.7 160.58L161.18 160.58L161.18 160.58L161.18 161.06L161.18 161.06L160.7 161.06z" stroke="none" fill="#000000" fill-rule="evenodd" /><path transform="matrix(1 0 0 -1 0 841)" d="M161.18 160.58L210.524 160.58L210.524 160.58L210.524 161.06L210.524 161.06L161.18 161.06z" stroke="none" fill="#000000" fill-rule="evenodd" /><path transform="matrix(1 0 0 -1 0 841)" d="M210.53 160.58L211.01 160.58L211.01 160.58L211.01 161.06L211.01 161.06L210.53 161.06z" stroke="none" fill="#000000" fill-rule="evenodd" /><path transform="matrix(1 0 0 -1 0 841)" d="M211.01 160.58L260.09 160.58L260.09 160.58L260.09 161.06L260.09 161.06L211.01 161.06z" stroke="none" fill="#000000" fill-rule="evenodd" /><path transform="matrix(1 0 0 -1 0 841)" d="M260.09 160.58L260.57 160.58L260.57 160.58L260.57 161.06L260.57 161.06L260.09 161.06z" stroke="none" fill="#000000" fill-rule="evenodd" /><path transform="matrix(1 0 0 -1 0 841)" d="M260.57 160.58L387.67 160.58L387.67 160.58L387.67 161.06L387.67 161.06L260.57 161.06z" stroke="none" fill="#000000" fill-rule="evenodd" /><path transform="matrix(1 0 0 -1 0 841)" d="M387.67 160.58L388.15 160.58L388.15 160.58L388.15 161.06L388.15 161.06L387.67 161.06z" stroke="none" fill="#000000" fill-rule="evenodd" /><path transform="matrix(1 0 0 -1 0 841)" d="M388.15 160.58L510.69 160.58L510.69 160.58L510.69 161.06L510.69 161.06L388.15 161.06z" stroke="none" fill="#000000" fill-rule="evenodd" /><path transform="matrix(1 0 0 -1 0 841)" d="M510.7 160.58L511.18 160.58L511.18 160.58L511.18 161.06L511.18 161.06L510.7 161.06z" stroke="none" fill="#000000" fill-rule="evenodd" /><path transform="matrix(1 0 0 -1 0 841)" d="M510.7 160.58L511.18 160.58L511.18 160.58L511.18 161.06L511.18 161.06L510.7 161.06z" stroke="none" fill="#000000" fill-rule="evenodd" /><path transform="matrix(1 0 0 -1 0 841)" d="M84.264 141.5L84.744 141.5L84.744 141.5L84.744 160.58L84.744 160.58L84.264 160.58z" stroke="none" fill="#000000" fill-rule="evenodd" /><path transform="matrix(1 0 0 -1 0 841)" d="M160.7 141.5L161.18 141.5L161.18 141.5L161.18 160.58L161.18 160.58L160.7 160.58z" stroke="none" fill="#000000" fill-rule="evenodd" /><path transform="matrix(1 0 0 -1 0 841)" d="M210.53 141.5L211.01 141.5L211.01 141.5L211.01 160.58L211.01 160.58L210.53 160.58z" stroke="none" fill="#000000" fill-rule="evenodd" /><path transform="matrix(1 0 0 -1 0 841)" d="M260.09 141.5L260.57 141.5L260.57 141.5L260.57 160.58L260.57 160.58L260.09 160.58z" stroke="none" fill="#000000" fill-rule="evenodd" /><path transform="matrix(1 0 0 -1 0 841)" d="M387.67 141.5L388.15 141.5L388.15 141.5L388.15 160.58L388.15 160.58L387.67 160.58z" stroke="none" fill="#000000" fill-rule="evenodd" /><path transform="matrix(1 0 0 -1 0 841)" d="M510.7 141.5L511.18 141.5L511.18 141.5L511.18 160.58L511.18 160.58L510.7 160.58z" stroke="none" fill="#000000" fill-rule="evenodd" /><path transform="matrix(1 0 0 -1 0 841)" d="M84.744 102.98L160.704 102.98L160.704 102.98L160.704 141.02L160.704 141.02L84.744 141.02z" stroke="none" fill="#DAEEF3" fill-rule="evenodd" /><g clip-path="url(#21)"><path transform="matrix(1 0 0 -1 0 841)" d="M89.904 121.94L155.544 121.94L155.544 121.94L155.544 141.02L155.544 141.02L89.904 141.02z" stroke="none" fill="#DAEEF3" fill-rule="evenodd" /><g clip-path="url(#22)"></g><g clip-path="url(#23)"></g></g><path transform="matrix(1 0 0 -1 0 841)" d="M161.18 102.98L210.404 102.98L210.404 102.98L210.404 141.02L210.404 141.02L161.18 141.02z" stroke="none" fill="#DAEEF3" fill-rule="evenodd" /><g clip-path="url(#24)"><path transform="matrix(1 0 0 -1 0 841)" d="M166.34 121.94L205.244 121.94L205.244 121.94L205.244 141.02L205.244 141.02L166.34 141.02z" stroke="none" fill="#DAEEF3" fill-rule="evenodd" /><g clip-path="url(#25)"></g><g clip-path="url(#26)"></g></g><path transform="matrix(1 0 0 -1 0 841)" d="M211.01 102.98L259.97 102.98L259.97 102.98L259.97 141.02L259.97 141.02L211.01 141.02z" stroke="none" fill="#DAEEF3" fill-rule="evenodd" /><g clip-path="url(#27)"><path transform="matrix(1 0 0 -1 0 841)" d="M216.05 121.94L254.81 121.94L254.81 121.94L254.81 141.02L254.81 141.02L216.05 141.02z" stroke="none" fill="#DAEEF3" fill-rule="evenodd" /><g clip-path="url(#28)"></g><g clip-path="url(#29)"></g></g><path transform="matrix(1 0 0 -1 0 841)" d="M260.45 102.98L387.67 102.98L387.67 102.98L387.67 141.02L387.67 141.02L260.45 141.02z" stroke="none" fill="#DAEEF3" fill-rule="evenodd" /><g clip-path="url(#30)"><path transform="matrix(1 0 0 -1 0 841)" d="M265.61 121.94L382.51 121.94L382.51 121.94L382.51 141.02L382.51 141.02L265.61 141.02z" stroke="none" fill="#DAEEF3" fill-rule="evenodd" /><g clip-path="url(#31)"></g><path transform="matrix(1 0 0 -1 0 841)" d="M265.61 102.98L382.51 102.98L382.51 102.98L382.51 121.94L382.51 121.94L265.61 121.94z" stroke="none" fill="#DAEEF3" fill-rule="evenodd" /><g clip-path="url(#32)"></g><g clip-path="url(#33)"></g></g><path transform="matrix(1 0 0 -1 0 841)" d="M388.15 102.98L510.69 102.98L510.69 102.98L510.69 141.02L510.69 141.02L388.15 141.02z" stroke="none" fill="#DAEEF3" fill-rule="evenodd" /><g clip-path="url(#34)"><path transform="matrix(1 0 0 -1 0 841)" d="M393.31 121.94L505.53 121.94L505.53 121.94L505.53 141.02L505.53 141.02L393.31 141.02z" stroke="none" fill="#DAEEF3" fill-rule="evenodd" /><g clip-path="url(#35)"></g><g clip-path="url(#36)"></g></g><path transform="matrix(1 0 0 -1 0 841)" d="M84.264 141.02L84.744 141.02L84.744 141.02L84.744 141.5L84.744 141.5L84.264 141.5z" stroke="none" fill="#000000" fill-rule="evenodd" /><path transform="matrix(1 0 0 -1 0 841)" d="M84.744 141.02L160.704 141.02L160.704 141.02L160.704 141.5L160.704 141.5L84.744 141.5z" stroke="none" fill="#000000" fill-rule="evenodd" /><path transform="matrix(1 0 0 -1 0 841)" d="M160.7 141.02L161.18 141.02L161.18 141.02L161.18 141.5L161.18 141.5L160.7 141.5z" stroke="none" fill="#000000" fill-rule="evenodd" /><path transform="matrix(1 0 0 -1 0 841)" d="M161.18 141.02L210.524 141.02L210.524 141.02L210.524 141.5L210.524 141.5L161.18 141.5z" stroke="none" fill="#000000" fill-rule="evenodd" /><path transform="matrix(1 0 0 -1 0 841)" d="M210.53 141.02L211.01 141.02L211.01 141.02L211.01 141.5L211.01 141.5L210.53 141.5z" stroke="none" fill="#000000" fill-rule="evenodd" /><path transform="matrix(1 0 0 -1 0 841)" d="M211.01 141.02L260.09 141.02L260.09 141.02L260.09 141.5L260.09 141.5L211.01 141.5z" stroke="none" fill="#000000" fill-rule="evenodd" /><path transform="matrix(1 0 0 -1 0 841)" d="M260.09 141.02L260.57 141.02L260.57 141.02L260.57 141.5L260.57 141.5L260.09 141.5z" stroke="none" fill="#000000" fill-rule="evenodd" /><path transform="matrix(1 0 0 -1 0 841)" d="M260.57 141.02L387.67 141.02L387.67 141.02L387.67 141.5L387.67 141.5L260.57 141.5z" stroke="none" fill="#000000" fill-rule="evenodd" /><path transform="matrix(1 0 0 -1 0 841)" d="M387.67 141.02L388.15 141.02L388.15 141.02L388.15 141.5L388.15 141.5L387.67 141.5z" stroke="none" fill="#000000" fill-rule="evenodd" /><path transform="matrix(1 0 0 -1 0 841)" d="M388.15 141.02L510.69 141.02L510.69 141.02L510.69 141.5L510.69 141.5L388.15 141.5z" stroke="none" fill="#000000" fill-rule="evenodd" /><path transform="matrix(1 0 0 -1 0 841)" d="M510.7 141.02L511.18 141.02L511.18 141.02L511.18 141.5L511.18 141.5L510.7 141.5z" stroke="none" fill="#000000" fill-rule="evenodd" /><path transform="matrix(1 0 0 -1 0 841)" d="M84.264 102.98L84.744 102.98L84.744 102.98L84.744 141.02L84.744 141.02L84.264 141.02z" stroke="none" fill="#000000" fill-rule="evenodd" /><path transform="matrix(1 0 0 -1 0 841)" d="M84.264 102.5L84.744 102.5L84.744 102.5L84.744 102.98L84.744 102.98L84.264 102.98z" stroke="none" fill="#000000" fill-rule="evenodd" /><path transform="matrix(1 0 0 -1 0 841)" d="M84.264 102.5L84.744 102.5L84.744 102.5L84.744 102.98L84.744 102.98L84.264 102.98z" stroke="none" fill="#000000" fill-rule="evenodd" /><path transform="matrix(1 0 0 -1 0 841)" d="M84.744 102.5L160.704 102.5L160.704 102.5L160.704 102.98L160.704 102.98L84.744 102.98z" stroke="none" fill="#000000" fill-rule="evenodd" /><path transform="matrix(1 0 0 -1 0 841)" d="M160.7 102.98L161.18 102.98L161.18 102.98L161.18 141.02L161.18 141.02L160.7 141.02z" stroke="none" fill="#000000" fill-rule="evenodd" /><path transform="matrix(1 0 0 -1 0 841)" d="M160.7 102.5L161.18 102.5L161.18 102.5L161.18 102.98L161.18 102.98L160.7 102.98z" stroke="none" fill="#000000" fill-rule="evenodd" /><path transform="matrix(1 0 0 -1 0 841)" d="M161.18 102.5L210.524 102.5L210.524 102.5L210.524 102.98L210.524 102.98L161.18 102.98z" stroke="none" fill="#000000" fill-rule="evenodd" /><path transform="matrix(1 0 0 -1 0 841)" d="M210.53 102.98L211.01 102.98L211.01 102.98L211.01 141.02L211.01 141.02L210.53 141.02z" stroke="none" fill="#000000" fill-rule="evenodd" /><path transform="matrix(1 0 0 -1 0 841)" d="M210.53 102.5L211.01 102.5L211.01 102.5L211.01 102.98L211.01 102.98L210.53 102.98z" stroke="none" fill="#000000" fill-rule="evenodd" /><path transform="matrix(1 0 0 -1 0 841)" d="M211.01 102.5L260.09 102.5L260.09 102.5L260.09 102.98L260.09 102.98L211.01 102.98z" stroke="none" fill="#000000" fill-rule="evenodd" /><path transform="matrix(1 0 0 -1 0 841)" d="M260.09 102.98L260.57 102.98L260.57 102.98L260.57 141.02L260.57 141.02L260.09 141.02z" stroke="none" fill="#000000" fill-rule="evenodd" /><path transform="matrix(1 0 0 -1 0 841)" d="M260.09 102.5L260.57 102.5L260.57 102.5L260.57 102.98L260.57 102.98L260.09 102.98z" stroke="none" fill="#000000" fill-rule="evenodd" /><path transform="matrix(1 0 0 -1 0 841)" d="M260.57 102.5L387.67 102.5L387.67 102.5L387.67 102.98L387.67 102.98L260.57 102.98z" stroke="none" fill="#000000" fill-rule="evenodd" /><path transform="matrix(1 0 0 -1 0 841)" d="M387.67 102.98L388.15 102.98L388.15 102.98L388.15 141.02L388.15 141.02L387.67 141.02z" stroke="none" fill="#000000" fill-rule="evenodd" /><path transform="matrix(1 0 0 -1 0 841)" d="M387.67 102.5L388.15 102.5L388.15 102.5L388.15 102.98L388.15 102.98L387.67 102.98z" stroke="none" fill="#000000" fill-rule="evenodd" /><path transform="matrix(1 0 0 -1 0 841)" d="M388.15 102.5L510.69 102.5L510.69 102.5L510.69 102.98L510.69 102.98L388.15 102.98z" stroke="none" fill="#000000" fill-rule="evenodd" /><path transform="matrix(1 0 0 -1 0 841)" d="M510.7 102.98L511.18 102.98L511.18 102.98L511.18 141.02L511.18 141.02L510.7 141.02z" stroke="none" fill="#000000" fill-rule="evenodd" /><path transform="matrix(1 0 0 -1 0 841)" d="M510.7 102.5L511.18 102.5L511.18 102.5L511.18 102.98L511.18 102.98L510.7 102.98z" stroke="none" fill="#000000" fill-rule="evenodd" /><path transform="matrix(1 0 0 -1 0 841)" d="M510.7 102.5L511.18 102.5L511.18 102.5L511.18 102.98L511.18 102.98L510.7 102.98z" stroke="none" fill="#000000" fill-rule="evenodd" /><g clip-path="url(#37)"><g transform="matrix(0.3274322 0 0 0.3274021 152.65 269.16)"><g transform="matrix(1 0 0 1 0 0)"><image x="0" y="0" xlink:href="img_89.png" width="884" height="843" /></g></g></g></g></g></g></svg>