<svg xmlns="http://www.w3.org/2000/svg" xmlns:xlink="http://www.w3.org/1999/xlink" id="body_11" preserveAspectRatio="xMinYMin meet" viewBox="0 0 793 1121"><defs><clipPath id="1"><path d="M0 841L0 -0.9199829L0 -0.9199829L595.32 -0.9199829L595.32 -0.9199829L595.32 841L595.32 841L0 841z" /></clipPath><clipPath id="2"><path d="M0.00125 841.0914L595.4112 841.0914L595.4112 841.0914L595.4112 -0.9186401L595.4112 -0.9186401L0.00125 -0.9186401z" /></clipPath><clipPath id="3"><path d="M295.13 780.251L300.17 780.251L300.17 780.251L300.17 768.011L300.17 768.011L295.13 768.011z" /></clipPath><clipPath id="4"><path d="M295.13 780.256L300.17 780.256L300.17 780.256L300.17 768.016L300.17 768.016L295.13 768.016z" /></clipPath><clipPath id="5"><path d="M295.13 780.256L300.17 780.256L300.17 780.256L300.17 768.016L300.17 768.016L295.13 768.016z" /></clipPath><clipPath id="6"><path d="M84.751 117.07L165.031 117.07L165.031 117.07L165.031 89.44L165.031 89.44L84.751 89.44z" /></clipPath><clipPath id="7"><path d="M84.744 117.06L165.024 117.06L165.024 117.06L165.024 89.43597L165.024 89.43597L84.744 89.43597z" /></clipPath><clipPath id="8"><path d="M84.744 117.06L165.024 117.06L165.024 117.06L165.024 89.43597L165.024 89.43597L84.744 89.43597z" /></clipPath><clipPath id="9"><path d="M165.51 117.07L234.405 117.07L234.405 117.07L234.405 89.44L234.405 89.44L165.51 89.44z" /></clipPath><clipPath id="10"><path d="M165.5 117.06L234.404 117.06L234.404 117.06L234.404 89.43597L234.404 89.43597L165.5 89.43597z" /></clipPath><clipPath id="11"><path d="M165.5 117.06L234.404 117.06L234.404 117.06L234.404 89.43597L234.404 89.43597L165.5 89.43597z" /></clipPath><clipPath id="12"><path d="M234.89 117.07L435.44 117.07L435.44 117.07L435.44 89.44L435.44 89.44L234.89 89.44z" /></clipPath><clipPath id="13"><path d="M234.89 117.06L435.43 117.06L435.43 117.06L435.43 89.43597L435.43 89.43597L234.89 89.43597z" /></clipPath><clipPath id="14"><path d="M234.89 117.06L435.43 117.06L435.43 117.06L435.43 89.43597L435.43 89.43597L234.89 89.43597z" /></clipPath><clipPath id="15"><path d="M436.04 117.07L510.695 117.07L510.695 117.07L510.695 89.44L510.695 89.44L436.04 89.44z" /></clipPath><clipPath id="16"><path d="M436.03 117.06L510.694 117.06L510.694 117.06L510.694 89.43597L510.694 89.43597L436.03 89.43597z" /></clipPath><clipPath id="17"><path d="M436.03 117.06L510.694 117.06L510.694 117.06L510.694 89.43597L510.694 89.43597L436.03 89.43597z" /></clipPath><clipPath id="18"><path d="M436.03 117.06L510.694 117.06L510.694 117.06L510.694 89.43597L510.694 89.43597L436.03 89.43597z" /></clipPath><clipPath id="19"><path d="M84.751 161.35L165.031 161.35L165.031 161.35L165.031 117.67L165.031 117.67L84.751 117.67z" /></clipPath><clipPath id="20"><path d="M84.744 161.34L165.024 161.34L165.024 161.34L165.024 117.66L165.024 117.66L84.744 117.66z" /></clipPath><clipPath id="21"><path d="M84.744 161.34L165.024 161.34L165.024 161.34L165.024 117.66L165.024 117.66L84.744 117.66z" /></clipPath><clipPath id="22"><path d="M84.744 161.34L165.024 161.34L165.024 161.34L165.024 117.66L165.024 117.66L84.744 117.66z" /></clipPath><clipPath id="23"><path d="M84.744 161.34L165.024 161.34L165.024 161.34L165.024 117.66L165.024 117.66L84.744 117.66z" /></clipPath><clipPath id="24"><path d="M84.744 161.34L165.024 161.34L165.024 161.34L165.024 117.66L165.024 117.66L84.744 117.66z" /></clipPath><clipPath id="25"><path d="M165.51 161.35L234.405 161.35L234.405 161.35L234.405 117.67L234.405 117.67L165.51 117.67z" /></clipPath><clipPath id="26"><path d="M165.5 161.34L234.404 161.34L234.404 161.34L234.404 117.66L234.404 117.66L165.5 117.66z" /></clipPath><clipPath id="27"><path d="M165.5 161.34L234.404 161.34L234.404 161.34L234.404 117.66L234.404 117.66L165.5 117.66z" /></clipPath><clipPath id="28"><path d="M165.5 161.34L234.404 161.34L234.404 161.34L234.404 117.66L234.404 117.66L165.5 117.66z" /></clipPath><clipPath id="29"><path d="M234.89 161.35L435.44 161.35L435.44 161.35L435.44 117.67L435.44 117.67L234.89 117.67z" /></clipPath><clipPath id="30"><path d="M234.89 161.34L435.43 161.34L435.43 161.34L435.43 117.66L435.43 117.66L234.89 117.66z" /></clipPath><clipPath id="31"><path d="M234.89 161.34L435.43 161.34L435.43 161.34L435.43 117.66L435.43 117.66L234.89 117.66z" /></clipPath><clipPath id="32"><path d="M436.04 161.35L510.695 161.35L510.695 161.35L510.695 117.67L510.695 117.67L436.04 117.67z" /></clipPath><clipPath id="33"><path d="M436.03 161.34L510.694 161.34L510.694 161.34L510.694 117.66L510.694 117.66L436.03 117.66z" /></clipPath><clipPath id="34"><path d="M436.03 161.34L510.694 161.34L510.694 161.34L510.694 117.66L510.694 117.66L436.03 117.66z" /></clipPath><clipPath id="35"><path d="M436.03 161.34L510.694 161.34L510.694 161.34L510.694 117.66L510.694 117.66L436.03 117.66z" /></clipPath><clipPath id="36"><path d="M84.751 276.07L165.031 276.07L165.031 276.07L165.031 161.83L165.031 161.83L84.751 161.83z" /></clipPath><clipPath id="37"><path d="M84.744 276.06L165.024 276.06L165.024 276.06L165.024 161.82L165.024 161.82L84.744 161.82z" /></clipPath><clipPath id="38"><path d="M84.744 276.06L165.024 276.06L165.024 276.06L165.024 161.82L165.024 161.82L84.744 161.82z" /></clipPath><clipPath id="39"><path d="M84.744 276.06L165.024 276.06L165.024 276.06L165.024 161.82L165.024 161.82L84.744 161.82z" /></clipPath><clipPath id="40"><path d="M84.744 276.06L165.024 276.06L165.024 276.06L165.024 161.82L165.024 161.82L84.744 161.82z" /></clipPath><clipPath id="41"><path d="M84.744 276.06L165.024 276.06L165.024 276.06L165.024 161.82L165.024 161.82L84.744 161.82z" /></clipPath><clipPath id="42"><path d="M165.51 276.07L234.405 276.07L234.405 276.07L234.405 161.83L234.405 161.83L165.51 161.83z" /></clipPath><clipPath id="43"><path d="M165.5 276.06L234.404 276.06L234.404 276.06L234.404 161.82L234.404 161.82L165.5 161.82z" /></clipPath><clipPath id="44"><path d="M165.5 276.06L234.404 276.06L234.404 276.06L234.404 161.82L234.404 161.82L165.5 161.82z" /></clipPath><clipPath id="45"><path d="M165.5 276.06L234.404 276.06L234.404 276.06L234.404 161.82L234.404 161.82L165.5 161.82z" /></clipPath><clipPath id="46"><path d="M234.89 276.07L435.44 276.07L435.44 276.07L435.44 161.83L435.44 161.83L234.89 161.83z" /></clipPath><clipPath id="47"><path d="M234.89 276.06L435.43 276.06L435.43 276.06L435.43 161.82L435.43 161.82L234.89 161.82z" /></clipPath><clipPath id="48"><path d="M234.89 276.06L435.43 276.06L435.43 276.06L435.43 161.82L435.43 161.82L234.89 161.82z" /></clipPath><clipPath id="49"><path d="M234.89 276.06L435.43 276.06L435.43 276.06L435.43 161.82L435.43 161.82L234.89 161.82z" /></clipPath><clipPath id="50"><path d="M234.89 276.06L435.43 276.06L435.43 276.06L435.43 161.82L435.43 161.82L234.89 161.82z" /></clipPath><clipPath id="51"><path d="M234.89 276.06L435.43 276.06L435.43 276.06L435.43 161.82L435.43 161.82L234.89 161.82z" /></clipPath><clipPath id="52"><path d="M234.89 276.06L435.43 276.06L435.43 276.06L435.43 161.82L435.43 161.82L234.89 161.82z" /></clipPath><clipPath id="53"><path d="M234.89 276.06L435.43 276.06L435.43 276.06L435.43 161.82L435.43 161.82L234.89 161.82z" /></clipPath><clipPath id="54"><path d="M234.89 276.06L435.43 276.06L435.43 276.06L435.43 161.82L435.43 161.82L234.89 161.82z" /></clipPath><clipPath id="55"><path d="M234.89 276.06L435.43 276.06L435.43 276.06L435.43 161.82L435.43 161.82L234.89 161.82z" /></clipPath><clipPath id="56"><path d="M234.89 276.06L435.43 276.06L435.43 276.06L435.43 161.82L435.43 161.82L234.89 161.82z" /></clipPath><clipPath id="57"><path d="M234.89 276.06L435.43 276.06L435.43 276.06L435.43 161.82L435.43 161.82L234.89 161.82z" /></clipPath><clipPath id="58"><path d="M234.89 276.06L435.43 276.06L435.43 276.06L435.43 161.82L435.43 161.82L234.89 161.82z" /></clipPath><clipPath id="59"><path d="M234.89 276.06L435.43 276.06L435.43 276.06L435.43 161.82L435.43 161.82L234.89 161.82z" /></clipPath><clipPath id="60"><path d="M234.89 276.06L435.43 276.06L435.43 276.06L435.43 161.82L435.43 161.82L234.89 161.82z" /></clipPath><clipPath id="61"><path d="M234.89 276.06L435.43 276.06L435.43 276.06L435.43 161.82L435.43 161.82L234.89 161.82z" /></clipPath><clipPath id="62"><path d="M234.89 276.06L435.43 276.06L435.43 276.06L435.43 161.82L435.43 161.82L234.89 161.82z" /></clipPath><clipPath id="63"><path d="M234.89 276.06L435.43 276.06L435.43 276.06L435.43 161.82L435.43 161.82L234.89 161.82z" /></clipPath><clipPath id="64"><path d="M234.89 276.06L435.43 276.06L435.43 276.06L435.43 161.82L435.43 161.82L234.89 161.82z" /></clipPath><clipPath id="65"><path d="M234.89 276.06L435.43 276.06L435.43 276.06L435.43 161.82L435.43 161.82L234.89 161.82z" /></clipPath><clipPath id="66"><path d="M436.04 276.07L510.695 276.07L510.695 276.07L510.695 161.83L510.695 161.83L436.04 161.83z" /></clipPath><clipPath id="67"><path d="M436.03 276.06L510.694 276.06L510.694 276.06L510.694 161.82L510.694 161.82L436.03 161.82z" /></clipPath><clipPath id="68"><path d="M436.03 276.06L510.694 276.06L510.694 276.06L510.694 161.82L510.694 161.82L436.03 161.82z" /></clipPath><clipPath id="69"><path d="M436.03 276.06L510.694 276.06L510.694 276.06L510.694 161.82L510.694 161.82L436.03 161.82z" /></clipPath><clipPath id="70"><path d="M84.751 320.25L165.031 320.25L165.031 320.25L165.031 276.555L165.031 276.555L84.751 276.555z" /></clipPath><clipPath id="71"><path d="M84.744 320.25L165.024 320.25L165.024 320.25L165.024 276.546L165.024 276.546L84.744 276.546z" /></clipPath><clipPath id="72"><path d="M84.744 320.25L165.024 320.25L165.024 320.25L165.024 276.546L165.024 276.546L84.744 276.546z" /></clipPath><clipPath id="73"><path d="M84.744 320.25L165.024 320.25L165.024 320.25L165.024 276.546L165.024 276.546L84.744 276.546z" /></clipPath><clipPath id="74"><path d="M84.744 320.25L165.024 320.25L165.024 320.25L165.024 276.546L165.024 276.546L84.744 276.546z" /></clipPath><clipPath id="75"><path d="M84.744 320.25L165.024 320.25L165.024 320.25L165.024 276.546L165.024 276.546L84.744 276.546z" /></clipPath><clipPath id="76"><path d="M165.51 320.25L234.405 320.25L234.405 320.25L234.405 276.555L234.405 276.555L165.51 276.555z" /></clipPath><clipPath id="77"><path d="M165.5 320.25L234.404 320.25L234.404 320.25L234.404 276.546L234.404 276.546L165.5 276.546z" /></clipPath><clipPath id="78"><path d="M165.5 320.25L234.404 320.25L234.404 320.25L234.404 276.546L234.404 276.546L165.5 276.546z" /></clipPath><clipPath id="79"><path d="M165.5 320.25L234.404 320.25L234.404 320.25L234.404 276.546L234.404 276.546L165.5 276.546z" /></clipPath><clipPath id="80"><path d="M234.89 320.25L435.44 320.25L435.44 320.25L435.44 276.555L435.44 276.555L234.89 276.555z" /></clipPath><clipPath id="81"><path d="M234.89 320.25L435.43 320.25L435.43 320.25L435.43 276.546L435.43 276.546L234.89 276.546z" /></clipPath><clipPath id="82"><path d="M234.89 320.25L435.43 320.25L435.43 320.25L435.43 276.546L435.43 276.546L234.89 276.546z" /></clipPath><clipPath id="83"><path d="M234.89 320.25L435.43 320.25L435.43 320.25L435.43 276.546L435.43 276.546L234.89 276.546z" /></clipPath><clipPath id="84"><path d="M234.89 320.25L435.43 320.25L435.43 320.25L435.43 276.546L435.43 276.546L234.89 276.546z" /></clipPath><clipPath id="85"><path d="M234.89 320.25L435.43 320.25L435.43 320.25L435.43 276.546L435.43 276.546L234.89 276.546z" /></clipPath><clipPath id="86"><path d="M234.89 320.25L435.43 320.25L435.43 320.25L435.43 276.546L435.43 276.546L234.89 276.546z" /></clipPath><clipPath id="87"><path d="M234.89 320.25L435.43 320.25L435.43 320.25L435.43 276.546L435.43 276.546L234.89 276.546z" /></clipPath><clipPath id="88"><path d="M436.04 320.25L510.695 320.25L510.695 320.25L510.695 276.555L510.695 276.555L436.04 276.555z" /></clipPath><clipPath id="89"><path d="M436.03 320.25L510.694 320.25L510.694 320.25L510.694 276.546L510.694 276.546L436.03 276.546z" /></clipPath><clipPath id="90"><path d="M436.03 320.25L510.694 320.25L510.694 320.25L510.694 276.546L510.694 276.546L436.03 276.546z" /></clipPath><clipPath id="91"><path d="M436.03 320.25L510.694 320.25L510.694 320.25L510.694 276.546L510.694 276.546L436.03 276.546z" /></clipPath><clipPath id="92"><path d="M84.751 377.97L165.031 377.97L165.031 377.97L165.031 320.85L165.031 320.85L84.751 320.85z" /></clipPath><clipPath id="93"><path d="M84.744 377.97L165.024 377.97L165.024 377.97L165.024 320.85L165.024 320.85L84.744 320.85z" /></clipPath><clipPath id="94"><path d="M84.744 377.97L165.024 377.97L165.024 377.97L165.024 320.85L165.024 320.85L84.744 320.85z" /></clipPath><clipPath id="95"><path d="M84.744 377.97L165.024 377.97L165.024 377.97L165.024 320.85L165.024 320.85L84.744 320.85z" /></clipPath><clipPath id="96"><path d="M84.744 377.97L165.024 377.97L165.024 377.97L165.024 320.85L165.024 320.85L84.744 320.85z" /></clipPath><clipPath id="97"><path d="M165.51 377.97L234.405 377.97L234.405 377.97L234.405 320.85L234.405 320.85L165.51 320.85z" /></clipPath><clipPath id="98"><path d="M165.5 377.97L234.404 377.97L234.404 377.97L234.404 320.85L234.404 320.85L165.5 320.85z" /></clipPath><clipPath id="99"><path d="M165.5 377.97L234.404 377.97L234.404 377.97L234.404 320.85L234.404 320.85L165.5 320.85z" /></clipPath><clipPath id="100"><path d="M165.5 377.97L234.404 377.97L234.404 377.97L234.404 320.85L234.404 320.85L165.5 320.85z" /></clipPath><clipPath id="101"><path d="M234.89 377.97L435.44 377.97L435.44 377.97L435.44 320.85L435.44 320.85L234.89 320.85z" /></clipPath><clipPath id="102"><path d="M234.89 377.97L435.43 377.97L435.43 377.97L435.43 320.85L435.43 320.85L234.89 320.85z" /></clipPath><clipPath id="103"><path d="M234.89 377.97L435.43 377.97L435.43 377.97L435.43 320.85L435.43 320.85L234.89 320.85z" /></clipPath><clipPath id="104"><path d="M234.89 377.97L435.43 377.97L435.43 377.97L435.43 320.85L435.43 320.85L234.89 320.85z" /></clipPath><clipPath id="105"><path d="M234.89 377.97L435.43 377.97L435.43 377.97L435.43 320.85L435.43 320.85L234.89 320.85z" /></clipPath><clipPath id="106"><path d="M234.89 377.97L435.43 377.97L435.43 377.97L435.43 320.85L435.43 320.85L234.89 320.85z" /></clipPath><clipPath id="107"><path d="M234.89 377.97L435.43 377.97L435.43 377.97L435.43 320.85L435.43 320.85L234.89 320.85z" /></clipPath><clipPath id="108"><path d="M234.89 377.97L435.43 377.97L435.43 377.97L435.43 320.85L435.43 320.85L234.89 320.85z" /></clipPath><clipPath id="109"><path d="M234.89 377.97L435.43 377.97L435.43 377.97L435.43 320.85L435.43 320.85L234.89 320.85z" /></clipPath><clipPath id="110"><path d="M436.04 377.97L510.695 377.97L510.695 377.97L510.695 320.85L510.695 320.85L436.04 320.85z" /></clipPath><clipPath id="111"><path d="M436.03 377.97L510.694 377.97L510.694 377.97L510.694 320.85L510.694 320.85L436.03 320.85z" /></clipPath><clipPath id="112"><path d="M436.03 377.97L510.694 377.97L510.694 377.97L510.694 320.85L510.694 320.85L436.03 320.85z" /></clipPath><clipPath id="113"><path d="M436.03 377.97L510.694 377.97L510.694 377.97L510.694 320.85L510.694 320.85L436.03 320.85z" /></clipPath></defs><g transform="matrix(1.333333 0 0 1.333333 0 0)"><g><g clip-path="url(#1)"><path transform="matrix(1 0 0 -1 0 841)" d="M457.63 53.424L505.534 53.424L505.534 53.424L505.534 54.02404L505.534 54.02404L457.63 54.02404z" stroke="none" fill="#000000" fill-rule="evenodd" /><g clip-path="url(#2)"><path transform="matrix(1 0 0 -1 0 841)" d="M88.464 78.984L506.974 78.984L506.974 78.984L506.974 81.984L506.974 81.984L88.464 81.984z" stroke="none" fill="#000000" fill-rule="evenodd" /><path transform="matrix(1 0 0 -1 0 841)" d="M88.464 77.544L506.974 77.544L506.974 77.544L506.974 78.26397L506.974 78.26397L88.464 78.26397z" stroke="none" fill="#000000" fill-rule="evenodd" /></g><g clip-path="url(#3)"><g clip-path="url(#4)"></g><g clip-path="url(#5)"></g></g><path transform="matrix(1 0 0 -1 0 841)" d="M84.744 723.94L165.024 723.94L165.024 723.94L165.024 751.564L165.024 751.564L84.744 751.564z" stroke="none" fill="#0070C0" fill-rule="evenodd" /><g clip-path="url(#6)"><path transform="matrix(1 0 0 -1 0 841)" d="M89.904 723.94L159.864 723.94L159.864 723.94L159.864 751.564L159.864 751.564L89.904 751.564z" stroke="none" fill="#0070C0" fill-rule="evenodd" /><g clip-path="url(#7)"></g><g clip-path="url(#8)"></g></g><path transform="matrix(1 0 0 -1 0 841)" d="M165.5 723.94L234.404 723.94L234.404 723.94L234.404 751.564L234.404 751.564L165.5 751.564z" stroke="none" fill="#0070C0" fill-rule="evenodd" /><g clip-path="url(#9)"><path transform="matrix(1 0 0 -1 0 841)" d="M170.66 723.94L229.244 723.94L229.244 723.94L229.244 751.564L229.244 751.564L170.66 751.564z" stroke="none" fill="#0070C0" fill-rule="evenodd" /><g clip-path="url(#10)"></g><g clip-path="url(#11)"></g></g><path transform="matrix(1 0 0 -1 0 841)" d="M234.89 723.94L435.43 723.94L435.43 723.94L435.43 751.564L435.43 751.564L234.89 751.564z" stroke="none" fill="#0070C0" fill-rule="evenodd" /><g clip-path="url(#12)"><path transform="matrix(1 0 0 -1 0 841)" d="M240.05 723.94L430.27 723.94L430.27 723.94L430.27 751.564L430.27 751.564L240.05 751.564z" stroke="none" fill="#0070C0" fill-rule="evenodd" /><g clip-path="url(#13)"></g><g clip-path="url(#14)"></g></g><path transform="matrix(1 0 0 -1 0 841)" d="M436.03 723.94L510.694 723.94L510.694 723.94L510.694 751.564L510.694 751.564L436.03 751.564z" stroke="none" fill="#0070C0" fill-rule="evenodd" /><g clip-path="url(#15)"><path transform="matrix(1 0 0 -1 0 841)" d="M441.07 723.94L505.534 723.94L505.534 723.94L505.534 751.564L505.534 751.564L441.07 751.564z" stroke="none" fill="#0070C0" fill-rule="evenodd" /><g clip-path="url(#16)"></g><g clip-path="url(#17)"></g><g clip-path="url(#18)"></g></g><path transform="matrix(1 0 0 -1 0 841)" d="M84.264 751.56L84.744 751.56L84.744 751.56L84.744 752.04L84.744 752.04L84.264 752.04z" stroke="none" fill="#000000" fill-rule="evenodd" /><path transform="matrix(1 0 0 -1 0 841)" d="M84.264 751.56L84.744 751.56L84.744 751.56L84.744 752.04L84.744 752.04L84.264 752.04z" stroke="none" fill="#000000" fill-rule="evenodd" /><path transform="matrix(1 0 0 -1 0 841)" d="M84.744 751.56L165.024 751.56L165.024 751.56L165.024 752.04L165.024 752.04L84.744 752.04z" stroke="none" fill="#000000" fill-rule="evenodd" /><path transform="matrix(1 0 0 -1 0 841)" d="M165.02 751.56L165.5 751.56L165.5 751.56L165.5 752.04L165.5 752.04L165.02 752.04z" stroke="none" fill="#000000" fill-rule="evenodd" /><path transform="matrix(1 0 0 -1 0 841)" d="M165.5 751.56L234.404 751.56L234.404 751.56L234.404 752.04L234.404 752.04L165.5 752.04z" stroke="none" fill="#000000" fill-rule="evenodd" /><path transform="matrix(1 0 0 -1 0 841)" d="M234.41 751.56L234.89 751.56L234.89 751.56L234.89 752.04L234.89 752.04L234.41 752.04z" stroke="none" fill="#000000" fill-rule="evenodd" /><path transform="matrix(1 0 0 -1 0 841)" d="M234.89 751.56L435.55 751.56L435.55 751.56L435.55 752.04L435.55 752.04L234.89 752.04z" stroke="none" fill="#000000" fill-rule="evenodd" /><path transform="matrix(1 0 0 -1 0 841)" d="M435.55 751.56L436.03 751.56L436.03 751.56L436.03 752.04L436.03 752.04L435.55 752.04z" stroke="none" fill="#000000" fill-rule="evenodd" /><path transform="matrix(1 0 0 -1 0 841)" d="M436.03 751.56L510.694 751.56L510.694 751.56L510.694 752.04L510.694 752.04L436.03 752.04z" stroke="none" fill="#000000" fill-rule="evenodd" /><path transform="matrix(1 0 0 -1 0 841)" d="M510.7 751.56L511.18 751.56L511.18 751.56L511.18 752.04L511.18 752.04L510.7 752.04z" stroke="none" fill="#000000" fill-rule="evenodd" /><path transform="matrix(1 0 0 -1 0 841)" d="M510.7 751.56L511.18 751.56L511.18 751.56L511.18 752.04L511.18 752.04L510.7 752.04z" stroke="none" fill="#000000" fill-rule="evenodd" /><path transform="matrix(1 0 0 -1 0 841)" d="M84.264 723.94L84.744 723.94L84.744 723.94L84.744 751.564L84.744 751.564L84.264 751.564z" stroke="none" fill="#000000" fill-rule="evenodd" /><path transform="matrix(1 0 0 -1 0 841)" d="M165.02 723.94L165.5 723.94L165.5 723.94L165.5 751.564L165.5 751.564L165.02 751.564z" stroke="none" fill="#000000" fill-rule="evenodd" /><path transform="matrix(1 0 0 -1 0 841)" d="M234.41 723.94L234.89 723.94L234.89 723.94L234.89 751.564L234.89 751.564L234.41 751.564z" stroke="none" fill="#000000" fill-rule="evenodd" /><path transform="matrix(1 0 0 -1 0 841)" d="M435.55 723.94L436.03 723.94L436.03 723.94L436.03 751.564L436.03 751.564L435.55 751.564z" stroke="none" fill="#000000" fill-rule="evenodd" /><path transform="matrix(1 0 0 -1 0 841)" d="M510.7 723.94L511.18 723.94L511.18 723.94L511.18 751.564L511.18 751.564L510.7 751.564z" stroke="none" fill="#000000" fill-rule="evenodd" /><path transform="matrix(1 0 0 -1 0 841)" d="M84.744 679.66L165.024 679.66L165.024 679.66L165.024 723.34L165.024 723.34L84.744 723.34z" stroke="none" fill="#DAEEF3" fill-rule="evenodd" /><g clip-path="url(#19)"><path transform="matrix(1 0 0 -1 0 841)" d="M89.904 701.5L159.864 701.5L159.864 701.5L159.864 723.34L159.864 723.34L89.904 723.34z" stroke="none" fill="#DAEEF3" fill-rule="evenodd" /><g clip-path="url(#20)"></g><g clip-path="url(#21)"></g><g clip-path="url(#22)"></g><path transform="matrix(1 0 0 -1 0 841)" d="M89.904 679.66L159.864 679.66L159.864 679.66L159.864 701.5L159.864 701.5L89.904 701.5z" stroke="none" fill="#DAEEF3" fill-rule="evenodd" /><g clip-path="url(#23)"></g><g clip-path="url(#24)"></g></g><path transform="matrix(1 0 0 -1 0 841)" d="M165.5 679.66L234.404 679.66L234.404 679.66L234.404 723.34L234.404 723.34L165.5 723.34z" stroke="none" fill="#DAEEF3" fill-rule="evenodd" /><g clip-path="url(#25)"><path transform="matrix(1 0 0 -1 0 841)" d="M170.66 696.82L229.244 696.82L229.244 696.82L229.244 723.34L229.244 723.34L170.66 723.34z" stroke="none" fill="#DAEEF3" fill-rule="evenodd" /><g clip-path="url(#26)"></g><g clip-path="url(#27)"></g><g clip-path="url(#28)"></g></g><path transform="matrix(1 0 0 -1 0 841)" d="M234.89 679.66L435.43 679.66L435.43 679.66L435.43 723.34L435.43 723.34L234.89 723.34z" stroke="none" fill="#DAEEF3" fill-rule="evenodd" /><g clip-path="url(#29)"><path transform="matrix(1 0 0 -1 0 841)" d="M240.05 704.38L430.27 704.38L430.27 704.38L430.27 723.34L430.27 723.34L240.05 723.34z" stroke="none" fill="#DAEEF3" fill-rule="evenodd" /><g clip-path="url(#30)"></g><g clip-path="url(#31)"></g></g><path transform="matrix(1 0 0 -1 0 841)" d="M436.03 679.66L510.694 679.66L510.694 679.66L510.694 723.34L510.694 723.34L436.03 723.34z" stroke="none" fill="#DAEEF3" fill-rule="evenodd" /><g clip-path="url(#32)"><path transform="matrix(1 0 0 -1 0 841)" d="M441.07 696.82L505.534 696.82L505.534 696.82L505.534 723.34L505.534 723.34L441.07 723.34z" stroke="none" fill="#DAEEF3" fill-rule="evenodd" /><g clip-path="url(#33)"></g><g clip-path="url(#34)"></g><g clip-path="url(#35)"></g></g><path transform="matrix(1 0 0 -1 0 841)" d="M84.264 723.46L84.744 723.46L84.744 723.46L84.744 723.94L84.744 723.94L84.264 723.94z" stroke="none" fill="#000000" fill-rule="evenodd" /><path transform="matrix(1 0 0 -1 0 841)" d="M84.744 723.46L165.024 723.46L165.024 723.46L165.024 723.94L165.024 723.94L84.744 723.94z" stroke="none" fill="#000000" fill-rule="evenodd" /><path transform="matrix(1 0 0 -1 0 841)" d="M165.02 723.46L165.5 723.46L165.5 723.46L165.5 723.94L165.5 723.94L165.02 723.94z" stroke="none" fill="#000000" fill-rule="evenodd" /><path transform="matrix(1 0 0 -1 0 841)" d="M165.5 723.46L234.404 723.46L234.404 723.46L234.404 723.94L234.404 723.94L165.5 723.94z" stroke="none" fill="#000000" fill-rule="evenodd" /><path transform="matrix(1 0 0 -1 0 841)" d="M234.41 723.46L234.89 723.46L234.89 723.46L234.89 723.94L234.89 723.94L234.41 723.94z" stroke="none" fill="#000000" fill-rule="evenodd" /><path transform="matrix(1 0 0 -1 0 841)" d="M234.89 723.46L435.55 723.46L435.55 723.46L435.55 723.94L435.55 723.94L234.89 723.94z" stroke="none" fill="#000000" fill-rule="evenodd" /><path transform="matrix(1 0 0 -1 0 841)" d="M435.55 723.46L436.03 723.46L436.03 723.46L436.03 723.94L436.03 723.94L435.55 723.94z" stroke="none" fill="#000000" fill-rule="evenodd" /><path transform="matrix(1 0 0 -1 0 841)" d="M436.03 723.46L510.694 723.46L510.694 723.46L510.694 723.94L510.694 723.94L436.03 723.94z" stroke="none" fill="#000000" fill-rule="evenodd" /><path transform="matrix(1 0 0 -1 0 841)" d="M510.7 723.46L511.18 723.46L511.18 723.46L511.18 723.94L511.18 723.94L510.7 723.94z" stroke="none" fill="#000000" fill-rule="evenodd" /><path transform="matrix(1 0 0 -1 0 841)" d="M84.264 679.66L84.744 679.66L84.744 679.66L84.744 723.46L84.744 723.46L84.264 723.46z" stroke="none" fill="#000000" fill-rule="evenodd" /><path transform="matrix(1 0 0 -1 0 841)" d="M165.02 679.66L165.5 679.66L165.5 679.66L165.5 723.46L165.5 723.46L165.02 723.46z" stroke="none" fill="#000000" fill-rule="evenodd" /><path transform="matrix(1 0 0 -1 0 841)" d="M234.41 679.66L234.89 679.66L234.89 679.66L234.89 723.46L234.89 723.46L234.41 723.46z" stroke="none" fill="#000000" fill-rule="evenodd" /><path transform="matrix(1 0 0 -1 0 841)" d="M435.55 679.66L436.03 679.66L436.03 679.66L436.03 723.46L436.03 723.46L435.55 723.46z" stroke="none" fill="#000000" fill-rule="evenodd" /><path transform="matrix(1 0 0 -1 0 841)" d="M510.7 679.66L511.18 679.66L511.18 679.66L511.18 723.46L511.18 723.46L510.7 723.46z" stroke="none" fill="#000000" fill-rule="evenodd" /><g clip-path="url(#36)"><g clip-path="url(#37)"></g><g clip-path="url(#38)"></g><g clip-path="url(#39)"></g><g clip-path="url(#40)"></g><g clip-path="url(#41)"></g></g><g clip-path="url(#42)"><g clip-path="url(#43)"></g><g clip-path="url(#44)"></g><g clip-path="url(#45)"></g></g><g clip-path="url(#46)"><g clip-path="url(#47)"></g><g clip-path="url(#48)"></g><g clip-path="url(#49)"></g><g clip-path="url(#50)"></g><g clip-path="url(#51)"></g><g clip-path="url(#52)"></g><g clip-path="url(#53)"></g><g clip-path="url(#54)"></g><g clip-path="url(#55)"></g><g clip-path="url(#56)"></g><g clip-path="url(#57)"></g><g clip-path="url(#58)"></g><g clip-path="url(#59)"></g><g clip-path="url(#60)"></g><g clip-path="url(#61)"></g><g clip-path="url(#62)"></g><g clip-path="url(#63)"></g><g clip-path="url(#64)"></g><g clip-path="url(#65)"></g></g><g clip-path="url(#66)"><g clip-path="url(#67)"></g><g clip-path="url(#68)"></g><g clip-path="url(#69)"></g></g><path transform="matrix(1 0 0 -1 0 841)" d="M84.264 679.18L84.744 679.18L84.744 679.18L84.744 679.66L84.744 679.66L84.264 679.66z" stroke="none" fill="#000000" fill-rule="evenodd" /><path transform="matrix(1 0 0 -1 0 841)" d="M84.744 679.18L165.024 679.18L165.024 679.18L165.024 679.66L165.024 679.66L84.744 679.66z" stroke="none" fill="#000000" fill-rule="evenodd" /><path transform="matrix(1 0 0 -1 0 841)" d="M165.02 679.18L165.5 679.18L165.5 679.18L165.5 679.66L165.5 679.66L165.02 679.66z" stroke="none" fill="#000000" fill-rule="evenodd" /><path transform="matrix(1 0 0 -1 0 841)" d="M165.5 679.18L234.404 679.18L234.404 679.18L234.404 679.66L234.404 679.66L165.5 679.66z" stroke="none" fill="#000000" fill-rule="evenodd" /><path transform="matrix(1 0 0 -1 0 841)" d="M234.41 679.18L234.89 679.18L234.89 679.18L234.89 679.66L234.89 679.66L234.41 679.66z" stroke="none" fill="#000000" fill-rule="evenodd" /><path transform="matrix(1 0 0 -1 0 841)" d="M234.89 679.18L435.55 679.18L435.55 679.18L435.55 679.66L435.55 679.66L234.89 679.66z" stroke="none" fill="#000000" fill-rule="evenodd" /><path transform="matrix(1 0 0 -1 0 841)" d="M435.55 679.18L436.03 679.18L436.03 679.18L436.03 679.66L436.03 679.66L435.55 679.66z" stroke="none" fill="#000000" fill-rule="evenodd" /><path transform="matrix(1 0 0 -1 0 841)" d="M436.03 679.18L510.694 679.18L510.694 679.18L510.694 679.66L510.694 679.66L436.03 679.66z" stroke="none" fill="#000000" fill-rule="evenodd" /><path transform="matrix(1 0 0 -1 0 841)" d="M510.7 679.18L511.18 679.18L511.18 679.18L511.18 679.66L511.18 679.66L510.7 679.66z" stroke="none" fill="#000000" fill-rule="evenodd" /><path transform="matrix(1 0 0 -1 0 841)" d="M84.264 564.94L84.744 564.94L84.744 564.94L84.744 679.18L84.744 679.18L84.264 679.18z" stroke="none" fill="#000000" fill-rule="evenodd" /><path transform="matrix(1 0 0 -1 0 841)" d="M165.02 564.94L165.5 564.94L165.5 564.94L165.5 679.18L165.5 679.18L165.02 679.18z" stroke="none" fill="#000000" fill-rule="evenodd" /><path transform="matrix(1 0 0 -1 0 841)" d="M234.41 564.94L234.89 564.94L234.89 564.94L234.89 679.18L234.89 679.18L234.41 679.18z" stroke="none" fill="#000000" fill-rule="evenodd" /><path transform="matrix(1 0 0 -1 0 841)" d="M435.55 564.94L436.03 564.94L436.03 564.94L436.03 679.18L436.03 679.18L435.55 679.18z" stroke="none" fill="#000000" fill-rule="evenodd" /><path transform="matrix(1 0 0 -1 0 841)" d="M510.7 564.94L511.18 564.94L511.18 564.94L511.18 679.18L511.18 679.18L510.7 679.18z" stroke="none" fill="#000000" fill-rule="evenodd" /><path transform="matrix(1 0 0 -1 0 841)" d="M84.744 520.75L165.024 520.75L165.024 520.75L165.024 564.454L165.024 564.454L84.744 564.454z" stroke="none" fill="#DAEEF3" fill-rule="evenodd" /><g clip-path="url(#70)"><path transform="matrix(1 0 0 -1 0 841)" d="M89.904 542.59L159.864 542.59L159.864 542.59L159.864 564.454L159.864 564.454L89.904 564.454z" stroke="none" fill="#DAEEF3" fill-rule="evenodd" /><g clip-path="url(#71)"></g><g clip-path="url(#72)"></g><g clip-path="url(#73)"></g><path transform="matrix(1 0 0 -1 0 841)" d="M89.904 520.75L159.864 520.75L159.864 520.75L159.864 542.59L159.864 542.59L89.904 542.59z" stroke="none" fill="#DAEEF3" fill-rule="evenodd" /><g clip-path="url(#74)"></g><g clip-path="url(#75)"></g></g><path transform="matrix(1 0 0 -1 0 841)" d="M165.5 520.75L234.404 520.75L234.404 520.75L234.404 564.454L234.404 564.454L165.5 564.454z" stroke="none" fill="#DAEEF3" fill-rule="evenodd" /><g clip-path="url(#76)"><path transform="matrix(1 0 0 -1 0 841)" d="M170.66 537.79L229.244 537.79L229.244 537.79L229.244 564.454L229.244 564.454L170.66 564.454z" stroke="none" fill="#DAEEF3" fill-rule="evenodd" /><g clip-path="url(#77)"></g><g clip-path="url(#78)"></g><g clip-path="url(#79)"></g></g><path transform="matrix(1 0 0 -1 0 841)" d="M234.89 520.75L435.43 520.75L435.43 520.75L435.43 564.454L435.43 564.454L234.89 564.454z" stroke="none" fill="#DAEEF3" fill-rule="evenodd" /><g clip-path="url(#80)"><path transform="matrix(1 0 0 -1 0 841)" d="M240.05 545.35L430.27 545.35L430.27 545.35L430.27 564.454L430.27 564.454L240.05 564.454z" stroke="none" fill="#DAEEF3" fill-rule="evenodd" /><g clip-path="url(#81)"></g><g clip-path="url(#82)"></g><g clip-path="url(#83)"></g><g clip-path="url(#84)"></g><g clip-path="url(#85)"></g><path transform="matrix(1 0 0 -1 0 841)" d="M240.05 526.27L430.27 526.27L430.27 526.27L430.27 545.35L430.27 545.35L240.05 545.35z" stroke="none" fill="#DAEEF3" fill-rule="evenodd" /><g clip-path="url(#86)"></g><g clip-path="url(#87)"></g></g><path transform="matrix(1 0 0 -1 0 841)" d="M436.03 520.75L510.694 520.75L510.694 520.75L510.694 564.454L510.694 564.454L436.03 564.454z" stroke="none" fill="#DAEEF3" fill-rule="evenodd" /><g clip-path="url(#88)"><path transform="matrix(1 0 0 -1 0 841)" d="M441.07 537.79L505.534 537.79L505.534 537.79L505.534 564.454L505.534 564.454L441.07 564.454z" stroke="none" fill="#DAEEF3" fill-rule="evenodd" /><g clip-path="url(#89)"></g><g clip-path="url(#90)"></g><g clip-path="url(#91)"></g></g><path transform="matrix(1 0 0 -1 0 841)" d="M84.264 564.46L84.744 564.46L84.744 564.46L84.744 564.94L84.744 564.94L84.264 564.94z" stroke="none" fill="#000000" fill-rule="evenodd" /><path transform="matrix(1 0 0 -1 0 841)" d="M84.744 564.46L165.024 564.46L165.024 564.46L165.024 564.94L165.024 564.94L84.744 564.94z" stroke="none" fill="#000000" fill-rule="evenodd" /><path transform="matrix(1 0 0 -1 0 841)" d="M165.02 564.46L165.5 564.46L165.5 564.46L165.5 564.94L165.5 564.94L165.02 564.94z" stroke="none" fill="#000000" fill-rule="evenodd" /><path transform="matrix(1 0 0 -1 0 841)" d="M165.5 564.46L234.404 564.46L234.404 564.46L234.404 564.94L234.404 564.94L165.5 564.94z" stroke="none" fill="#000000" fill-rule="evenodd" /><path transform="matrix(1 0 0 -1 0 841)" d="M234.41 564.46L234.89 564.46L234.89 564.46L234.89 564.94L234.89 564.94L234.41 564.94z" stroke="none" fill="#000000" fill-rule="evenodd" /><path transform="matrix(1 0 0 -1 0 841)" d="M234.89 564.46L435.55 564.46L435.55 564.46L435.55 564.94L435.55 564.94L234.89 564.94z" stroke="none" fill="#000000" fill-rule="evenodd" /><path transform="matrix(1 0 0 -1 0 841)" d="M435.55 564.46L436.03 564.46L436.03 564.46L436.03 564.94L436.03 564.94L435.55 564.94z" stroke="none" fill="#000000" fill-rule="evenodd" /><path transform="matrix(1 0 0 -1 0 841)" d="M436.03 564.46L510.694 564.46L510.694 564.46L510.694 564.94L510.694 564.94L436.03 564.94z" stroke="none" fill="#000000" fill-rule="evenodd" /><path transform="matrix(1 0 0 -1 0 841)" d="M510.7 564.46L511.18 564.46L511.18 564.46L511.18 564.94L511.18 564.94L510.7 564.94z" stroke="none" fill="#000000" fill-rule="evenodd" /><path transform="matrix(1 0 0 -1 0 841)" d="M84.264 520.75L84.744 520.75L84.744 520.75L84.744 564.454L84.744 564.454L84.264 564.454z" stroke="none" fill="#000000" fill-rule="evenodd" /><path transform="matrix(1 0 0 -1 0 841)" d="M165.02 520.75L165.5 520.75L165.5 520.75L165.5 564.454L165.5 564.454L165.02 564.454z" stroke="none" fill="#000000" fill-rule="evenodd" /><path transform="matrix(1 0 0 -1 0 841)" d="M234.41 520.75L234.89 520.75L234.89 520.75L234.89 564.454L234.89 564.454L234.41 564.454z" stroke="none" fill="#000000" fill-rule="evenodd" /><path transform="matrix(1 0 0 -1 0 841)" d="M435.55 520.75L436.03 520.75L436.03 520.75L436.03 564.454L436.03 564.454L435.55 564.454z" stroke="none" fill="#000000" fill-rule="evenodd" /><path transform="matrix(1 0 0 -1 0 841)" d="M510.7 520.75L511.18 520.75L511.18 520.75L511.18 564.454L511.18 564.454L510.7 564.454z" stroke="none" fill="#000000" fill-rule="evenodd" /><g clip-path="url(#92)"><g clip-path="url(#93)"></g><g clip-path="url(#94)"></g><g clip-path="url(#95)"></g><g clip-path="url(#96)"></g></g><g clip-path="url(#97)"><g clip-path="url(#98)"></g><g clip-path="url(#99)"></g><g clip-path="url(#100)"></g></g><g clip-path="url(#101)"><g clip-path="url(#102)"></g><g clip-path="url(#103)"></g><g clip-path="url(#104)"></g><g clip-path="url(#105)"></g><g clip-path="url(#106)"></g><g clip-path="url(#107)"></g><g clip-path="url(#108)"></g><g clip-path="url(#109)"></g></g><g clip-path="url(#110)"><g clip-path="url(#111)"></g><g clip-path="url(#112)"></g><g clip-path="url(#113)"></g></g><path transform="matrix(1 0 0 -1 0 841)" d="M84.264 520.27L84.744 520.27L84.744 520.27L84.744 520.75L84.744 520.75L84.264 520.75z" stroke="none" fill="#000000" fill-rule="evenodd" /><path transform="matrix(1 0 0 -1 0 841)" d="M84.744 520.27L165.024 520.27L165.024 520.27L165.024 520.75L165.024 520.75L84.744 520.75z" stroke="none" fill="#000000" fill-rule="evenodd" /><path transform="matrix(1 0 0 -1 0 841)" d="M165.02 520.27L165.5 520.27L165.5 520.27L165.5 520.75L165.5 520.75L165.02 520.75z" stroke="none" fill="#000000" fill-rule="evenodd" /><path transform="matrix(1 0 0 -1 0 841)" d="M165.5 520.27L234.404 520.27L234.404 520.27L234.404 520.75L234.404 520.75L165.5 520.75z" stroke="none" fill="#000000" fill-rule="evenodd" /><path transform="matrix(1 0 0 -1 0 841)" d="M234.41 520.27L234.89 520.27L234.89 520.27L234.89 520.75L234.89 520.75L234.41 520.75z" stroke="none" fill="#000000" fill-rule="evenodd" /><path transform="matrix(1 0 0 -1 0 841)" d="M234.89 520.27L435.55 520.27L435.55 520.27L435.55 520.75L435.55 520.75L234.89 520.75z" stroke="none" fill="#000000" fill-rule="evenodd" /><path transform="matrix(1 0 0 -1 0 841)" d="M435.55 520.27L436.03 520.27L436.03 520.27L436.03 520.75L436.03 520.75L435.55 520.75z" stroke="none" fill="#000000" fill-rule="evenodd" /><path transform="matrix(1 0 0 -1 0 841)" d="M436.03 520.27L510.694 520.27L510.694 520.27L510.694 520.75L510.694 520.75L436.03 520.75z" stroke="none" fill="#000000" fill-rule="evenodd" /><path transform="matrix(1 0 0 -1 0 841)" d="M510.7 520.27L511.18 520.27L511.18 520.27L511.18 520.75L511.18 520.75L510.7 520.75z" stroke="none" fill="#000000" fill-rule="evenodd" /><path transform="matrix(1 0 0 -1 0 841)" d="M84.264 463.03L84.744 463.03L84.744 463.03L84.744 520.27L84.744 520.27L84.264 520.27z" stroke="none" fill="#000000" fill-rule="evenodd" /><path transform="matrix(1 0 0 -1 0 841)" d="M84.264 462.55L84.744 462.55L84.744 462.55L84.744 463.03L84.744 463.03L84.264 463.03z" stroke="none" fill="#000000" fill-rule="evenodd" /><path transform="matrix(1 0 0 -1 0 841)" d="M84.264 462.55L84.744 462.55L84.744 462.55L84.744 463.03L84.744 463.03L84.264 463.03z" stroke="none" fill="#000000" fill-rule="evenodd" /><path transform="matrix(1 0 0 -1 0 841)" d="M84.744 462.55L165.024 462.55L165.024 462.55L165.024 463.03L165.024 463.03L84.744 463.03z" stroke="none" fill="#000000" fill-rule="evenodd" /><path transform="matrix(1 0 0 -1 0 841)" d="M165.02 463.03L165.5 463.03L165.5 463.03L165.5 520.27L165.5 520.27L165.02 520.27z" stroke="none" fill="#000000" fill-rule="evenodd" /><path transform="matrix(1 0 0 -1 0 841)" d="M165.02 462.55L165.5 462.55L165.5 462.55L165.5 463.03L165.5 463.03L165.02 463.03z" stroke="none" fill="#000000" fill-rule="evenodd" /><path transform="matrix(1 0 0 -1 0 841)" d="M165.5 462.55L234.404 462.55L234.404 462.55L234.404 463.03L234.404 463.03L165.5 463.03z" stroke="none" fill="#000000" fill-rule="evenodd" /><path transform="matrix(1 0 0 -1 0 841)" d="M234.41 463.03L234.89 463.03L234.89 463.03L234.89 520.27L234.89 520.27L234.41 520.27z" stroke="none" fill="#000000" fill-rule="evenodd" /><path transform="matrix(1 0 0 -1 0 841)" d="M234.41 462.55L234.89 462.55L234.89 462.55L234.89 463.03L234.89 463.03L234.41 463.03z" stroke="none" fill="#000000" fill-rule="evenodd" /><path transform="matrix(1 0 0 -1 0 841)" d="M234.89 462.55L435.55 462.55L435.55 462.55L435.55 463.03L435.55 463.03L234.89 463.03z" stroke="none" fill="#000000" fill-rule="evenodd" /><path transform="matrix(1 0 0 -1 0 841)" d="M435.55 463.03L436.03 463.03L436.03 463.03L436.03 520.27L436.03 520.27L435.55 520.27z" stroke="none" fill="#000000" fill-rule="evenodd" /><path transform="matrix(1 0 0 -1 0 841)" d="M435.55 462.55L436.03 462.55L436.03 462.55L436.03 463.03L436.03 463.03L435.55 463.03z" stroke="none" fill="#000000" fill-rule="evenodd" /><path transform="matrix(1 0 0 -1 0 841)" d="M436.03 462.55L510.694 462.55L510.694 462.55L510.694 463.03L510.694 463.03L436.03 463.03z" stroke="none" fill="#000000" fill-rule="evenodd" /><path transform="matrix(1 0 0 -1 0 841)" d="M510.7 463.03L511.18 463.03L511.18 463.03L511.18 520.27L511.18 520.27L510.7 520.27z" stroke="none" fill="#000000" fill-rule="evenodd" /><path transform="matrix(1 0 0 -1 0 841)" d="M510.7 462.55L511.18 462.55L511.18 462.55L511.18 463.03L511.18 463.03L510.7 463.03z" stroke="none" fill="#000000" fill-rule="evenodd" /><path transform="matrix(1 0 0 -1 0 841)" d="M510.7 462.55L511.18 462.55L511.18 462.55L511.18 463.03L511.18 463.03L510.7 463.03z" stroke="none" fill="#000000" fill-rule="evenodd" /><path transform="matrix(1 0 0 -1 0 841)" d="M189.5 431.47L405.79 431.47L405.79 431.47L405.79 432.43L405.79 432.43L189.5 432.43z" stroke="none" fill="#000000" fill-rule="evenodd" /></g></g></g></svg>