<svg xmlns="http://www.w3.org/2000/svg" xmlns:xlink="http://www.w3.org/1999/xlink" id="body_167" preserveAspectRatio="xMinYMin meet" viewBox="0 0 793 1121"><defs><clipPath id="1"><path d="M0 841L0 -0.9199829L0 -0.9199829L595.32 -0.9199829L595.32 -0.9199829L595.32 841L595.32 841L0 841z" /></clipPath><clipPath id="2"><path d="M0.00125 841.0914L595.4112 841.0914L595.4112 841.0914L595.4112 -0.9186401L595.4112 -0.9186401L0.00125 -0.9186401z" /></clipPath><clipPath id="3"><path d="M288.05 781.211L316.01 781.211L316.01 781.211L316.01 762.011L316.01 762.011L288.05 762.011z" /></clipPath><clipPath id="4"><path d="M288.05 781.216L316.01 781.216L316.01 781.216L316.01 762.016L316.01 762.016L288.05 762.016z" /></clipPath><clipPath id="5"><path d="M288.05 781.216L316.01 781.216L316.01 781.216L316.01 762.016L316.01 762.016L288.05 762.016z" /></clipPath><clipPath id="6"><path d="M84.751 117.07L180.271 117.07L180.271 117.07L180.271 89.44L180.271 89.44L84.751 89.44z" /></clipPath><clipPath id="7"><path d="M84.744 117.06L180.264 117.06L180.264 117.06L180.264 89.43597L180.264 89.43597L84.744 89.43597z" /></clipPath><clipPath id="8"><path d="M84.744 117.06L180.264 117.06L180.264 117.06L180.264 89.43597L180.264 89.43597L84.744 89.43597z" /></clipPath><clipPath id="9"><path d="M180.75 117.07L231.645 117.07L231.645 117.07L231.645 89.44L231.645 89.44L180.75 89.44z" /></clipPath><clipPath id="10"><path d="M180.74 117.06L231.644 117.06L231.644 117.06L231.644 89.43597L231.644 89.43597L180.74 89.43597z" /></clipPath><clipPath id="11"><path d="M180.74 117.06L231.644 117.06L231.644 117.06L231.644 89.43597L231.644 89.43597L180.74 89.43597z" /></clipPath><clipPath id="12"><path d="M232.13 117.07L282.41 117.07L282.41 117.07L282.41 89.44L282.41 89.44L232.13 89.44z" /></clipPath><clipPath id="13"><path d="M232.13 117.06L282.41 117.06L282.41 117.06L282.41 89.43597L282.41 89.43597L232.13 89.43597z" /></clipPath><clipPath id="14"><path d="M232.13 117.06L282.41 117.06L282.41 117.06L282.41 89.43597L282.41 89.43597L232.13 89.43597z" /></clipPath><clipPath id="15"><path d="M283.01 117.07L346.28 117.07L346.28 117.07L346.28 89.44L346.28 89.44L283.01 89.44z" /></clipPath><clipPath id="16"><path d="M283.01 117.06L346.274 117.06L346.274 117.06L346.274 89.43597L346.274 89.43597L283.01 89.43597z" /></clipPath><clipPath id="17"><path d="M283.01 117.06L346.274 117.06L346.274 117.06L346.274 89.43597L346.274 89.43597L283.01 89.43597z" /></clipPath><clipPath id="18"><path d="M346.76 117.07L537.7 117.07L537.7 117.07L537.7 89.44L537.7 89.44L346.76 89.44z" /></clipPath><clipPath id="19"><path d="M346.75 117.06L537.69 117.06L537.69 117.06L537.69 89.43597L537.69 89.43597L346.75 89.43597z" /></clipPath><clipPath id="20"><path d="M346.75 117.06L537.69 117.06L537.69 117.06L537.69 89.43597L537.69 89.43597L346.75 89.43597z" /></clipPath><clipPath id="21"><path d="M346.76 160.39L537.7 160.39L537.7 160.39L537.7 117.67L537.7 117.67L346.76 117.67z" /></clipPath><clipPath id="22"><path d="M346.75 160.38L537.69 160.38L537.69 160.38L537.69 117.66L537.69 117.66L346.75 117.66z" /></clipPath><clipPath id="23"><path d="M346.75 160.38L537.69 160.38L537.69 160.38L537.69 117.66L537.69 117.66L346.75 117.66z" /></clipPath><clipPath id="24"><path d="M346.75 160.38L537.69 160.38L537.69 160.38L537.69 117.66L537.69 117.66L346.75 117.66z" /></clipPath><clipPath id="25"><path d="M346.75 160.38L537.69 160.38L537.69 160.38L537.69 117.66L537.69 117.66L346.75 117.66z" /></clipPath><clipPath id="26"><path d="M346.75 160.38L537.69 160.38L537.69 160.38L537.69 117.66L537.69 117.66L346.75 117.66z" /></clipPath><clipPath id="27"><path d="M346.75 160.38L537.69 160.38L537.69 160.38L537.69 117.66L537.69 117.66L346.75 117.66z" /></clipPath><clipPath id="28"><path d="M346.75 160.38L537.69 160.38L537.69 160.38L537.69 117.66L537.69 117.66L346.75 117.66z" /></clipPath><clipPath id="29"><path d="M346.75 160.38L537.69 160.38L537.69 160.38L537.69 117.66L537.69 117.66L346.75 117.66z" /></clipPath><clipPath id="30"><path d="M346.75 160.38L537.69 160.38L537.69 160.38L537.69 117.66L537.69 117.66L346.75 117.66z" /></clipPath><clipPath id="31"><path d="M84.751 229.63L180.271 229.63L180.271 229.63L180.271 160.87L180.271 160.87L84.751 160.87z" /></clipPath><clipPath id="32"><path d="M84.744 229.62L180.264 229.62L180.264 229.62L180.264 160.86L180.264 160.86L84.744 160.86z" /></clipPath><clipPath id="33"><path d="M84.744 229.62L180.264 229.62L180.264 229.62L180.264 160.86L180.264 160.86L84.744 160.86z" /></clipPath><clipPath id="34"><path d="M180.75 229.63L231.645 229.63L231.645 229.63L231.645 160.87L231.645 160.87L180.75 160.87z" /></clipPath><clipPath id="35"><path d="M180.74 229.62L231.644 229.62L231.644 229.62L231.644 160.86L231.644 160.86L180.74 160.86z" /></clipPath><clipPath id="36"><path d="M180.74 229.62L231.644 229.62L231.644 229.62L231.644 160.86L231.644 160.86L180.74 160.86z" /></clipPath><clipPath id="37"><path d="M232.13 229.63L282.41 229.63L282.41 229.63L282.41 160.87L282.41 160.87L232.13 160.87z" /></clipPath><clipPath id="38"><path d="M232.13 229.62L282.41 229.62L282.41 229.62L282.41 160.86L282.41 160.86L232.13 160.86z" /></clipPath><clipPath id="39"><path d="M232.13 229.62L282.41 229.62L282.41 229.62L282.41 160.86L282.41 160.86L232.13 160.86z" /></clipPath><clipPath id="40"><path d="M283.01 229.63L346.28 229.63L346.28 229.63L346.28 160.87L346.28 160.87L283.01 160.87z" /></clipPath><clipPath id="41"><path d="M283.01 229.62L346.274 229.62L346.274 229.62L346.274 160.86L346.274 160.86L283.01 160.86z" /></clipPath><clipPath id="42"><path d="M346.76 229.63L537.7 229.63L537.7 229.63L537.7 160.87L537.7 160.87L346.76 160.87z" /></clipPath><clipPath id="43"><path d="M346.75 229.62L537.69 229.62L537.69 229.62L537.69 160.86L537.69 160.86L346.75 160.86z" /></clipPath><clipPath id="44"><path d="M346.75 229.62L537.69 229.62L537.69 229.62L537.69 160.86L537.69 160.86L346.75 160.86z" /></clipPath><clipPath id="45"><path d="M346.75 229.62L537.69 229.62L537.69 229.62L537.69 160.86L537.69 160.86L346.75 160.86z" /></clipPath><clipPath id="46"><path d="M346.75 229.62L537.69 229.62L537.69 229.62L537.69 160.86L537.69 160.86L346.75 160.86z" /></clipPath><clipPath id="47"><path d="M346.75 229.62L537.69 229.62L537.69 229.62L537.69 160.86L537.69 160.86L346.75 160.86z" /></clipPath><clipPath id="48"><path d="M346.75 229.62L537.69 229.62L537.69 229.62L537.69 160.86L537.69 160.86L346.75 160.86z" /></clipPath><clipPath id="49"><path d="M346.75 229.62L537.69 229.62L537.69 229.62L537.69 160.86L537.69 160.86L346.75 160.86z" /></clipPath><clipPath id="50"><path d="M346.75 229.62L537.69 229.62L537.69 229.62L537.69 160.86L537.69 160.86L346.75 160.86z" /></clipPath><clipPath id="51"><path d="M346.75 229.62L537.69 229.62L537.69 229.62L537.69 160.86L537.69 160.86L346.75 160.86z" /></clipPath><clipPath id="52"><path d="M346.75 229.62L537.69 229.62L537.69 229.62L537.69 160.86L537.69 160.86L346.75 160.86z" /></clipPath><clipPath id="53"><path d="M84.751 283.41L180.271 283.41L180.271 283.41L180.271 230.115L180.271 230.115L84.751 230.115z" /></clipPath><clipPath id="54"><path d="M84.744 283.41L180.264 283.41L180.264 283.41L180.264 230.106L180.264 230.106L84.744 230.106z" /></clipPath><clipPath id="55"><path d="M84.744 283.41L180.264 283.41L180.264 283.41L180.264 230.106L180.264 230.106L84.744 230.106z" /></clipPath><clipPath id="56"><path d="M180.75 283.41L231.645 283.41L231.645 283.41L231.645 230.115L231.645 230.115L180.75 230.115z" /></clipPath><clipPath id="57"><path d="M180.74 283.41L231.644 283.41L231.644 283.41L231.644 230.106L231.644 230.106L180.74 230.106z" /></clipPath><clipPath id="58"><path d="M180.74 283.41L231.644 283.41L231.644 283.41L231.644 230.106L231.644 230.106L180.74 230.106z" /></clipPath><clipPath id="59"><path d="M232.13 283.41L282.41 283.41L282.41 283.41L282.41 230.115L282.41 230.115L232.13 230.115z" /></clipPath><clipPath id="60"><path d="M232.13 283.41L282.41 283.41L282.41 283.41L282.41 230.106L282.41 230.106L232.13 230.106z" /></clipPath><clipPath id="61"><path d="M232.13 283.41L282.41 283.41L282.41 283.41L282.41 230.106L282.41 230.106L232.13 230.106z" /></clipPath><clipPath id="62"><path d="M283.01 283.41L346.28 283.41L346.28 283.41L346.28 230.115L346.28 230.115L283.01 230.115z" /></clipPath><clipPath id="63"><path d="M283.01 283.41L346.274 283.41L346.274 283.41L346.274 230.106L346.274 230.106L283.01 230.106z" /></clipPath><clipPath id="64"><path d="M283.01 283.41L346.274 283.41L346.274 283.41L346.274 230.106L346.274 230.106L283.01 230.106z" /></clipPath><clipPath id="65"><path d="M346.76 283.41L537.7 283.41L537.7 283.41L537.7 230.115L537.7 230.115L346.76 230.115z" /></clipPath><clipPath id="66"><path d="M346.75 283.41L537.69 283.41L537.69 283.41L537.69 230.106L537.69 230.106L346.75 230.106z" /></clipPath><clipPath id="67"><path d="M346.75 283.41L537.69 283.41L537.69 283.41L537.69 230.106L537.69 230.106L346.75 230.106z" /></clipPath><clipPath id="68"><path d="M346.75 283.41L537.69 283.41L537.69 283.41L537.69 230.106L537.69 230.106L346.75 230.106z" /></clipPath><clipPath id="69"><path d="M346.75 283.41L537.69 283.41L537.69 283.41L537.69 230.106L537.69 230.106L346.75 230.106z" /></clipPath><clipPath id="70"><path d="M346.75 283.41L537.69 283.41L537.69 283.41L537.69 230.106L537.69 230.106L346.75 230.106z" /></clipPath><clipPath id="71"><path d="M346.75 283.41L537.69 283.41L537.69 283.41L537.69 230.106L537.69 230.106L346.75 230.106z" /></clipPath><clipPath id="72"><path d="M84.751 522.36L162.391 522.36L162.391 522.36L162.391 476.52L162.391 476.52L84.751 476.52z" /></clipPath><clipPath id="73"><path d="M84.744 522.35L162.384 522.35L162.384 522.35L162.384 476.51L162.384 476.51L84.744 476.51z" /></clipPath><clipPath id="74"><path d="M84.744 522.35L162.384 522.35L162.384 522.35L162.384 476.51L162.384 476.51L84.744 476.51z" /></clipPath><clipPath id="75"><path d="M162.87 522.36L211.245 522.36L211.245 522.36L211.245 476.52L211.245 476.52L162.87 476.52z" /></clipPath><clipPath id="76"><path d="M162.86 522.35L211.244 522.35L211.244 522.35L211.244 476.51L211.244 476.51L162.86 476.51z" /></clipPath><clipPath id="77"><path d="M162.86 522.35L211.244 522.35L211.244 522.35L211.244 476.51L211.244 476.51L162.86 476.51z" /></clipPath><clipPath id="78"><path d="M211.73 522.36L251.81 522.36L251.81 522.36L251.81 476.52L251.81 476.52L211.73 476.52z" /></clipPath><clipPath id="79"><path d="M211.73 522.35L251.81 522.35L251.81 522.35L251.81 476.51L251.81 476.51L211.73 476.51z" /></clipPath><clipPath id="80"><path d="M211.73 522.35L251.81 522.35L251.81 522.35L251.81 476.51L251.81 476.51L211.73 476.51z" /></clipPath><clipPath id="81"><path d="M211.73 522.35L251.81 522.35L251.81 522.35L251.81 476.51L251.81 476.51L211.73 476.51z" /></clipPath><clipPath id="82"><path d="M252.41 522.36L319.61 522.36L319.61 522.36L319.61 476.52L319.61 476.52L252.41 476.52z" /></clipPath><clipPath id="83"><path d="M252.41 522.35L319.61 522.35L319.61 522.35L319.61 476.51L319.61 476.51L252.41 476.51z" /></clipPath><clipPath id="84"><path d="M252.41 522.35L319.61 522.35L319.61 522.35L319.61 476.51L319.61 476.51L252.41 476.51z" /></clipPath><clipPath id="85"><path d="M320.21 522.36L510.7 522.36L510.7 522.36L510.7 476.52L510.7 476.52L320.21 476.52z" /></clipPath><clipPath id="86"><path d="M320.21 522.35L510.7 522.35L510.7 522.35L510.7 476.51L510.7 476.51L320.21 476.51z" /></clipPath><clipPath id="87"><path d="M320.21 522.35L510.7 522.35L510.7 522.35L510.7 476.51L510.7 476.51L320.21 476.51z" /></clipPath><clipPath id="88"><path d="M84.751 631.8L162.391 631.8L162.391 631.8L162.391 522.84L162.391 522.84L84.751 522.84z" /></clipPath><clipPath id="89"><path d="M84.744 631.79L162.384 631.79L162.384 631.79L162.384 522.83L162.384 522.83L84.744 522.83z" /></clipPath><clipPath id="90"><path d="M84.744 631.79L162.384 631.79L162.384 631.79L162.384 522.83L162.384 522.83L84.744 522.83z" /></clipPath><clipPath id="91"><path d="M162.87 631.8L211.245 631.8L211.245 631.8L211.245 522.84L211.245 522.84L162.87 522.84z" /></clipPath><clipPath id="92"><path d="M162.86 631.79L211.244 631.79L211.244 631.79L211.244 522.83L211.244 522.83L162.86 522.83z" /></clipPath><clipPath id="93"><path d="M162.86 631.79L211.244 631.79L211.244 631.79L211.244 522.83L211.244 522.83L162.86 522.83z" /></clipPath><clipPath id="94"><path d="M211.73 631.8L251.81 631.8L251.81 631.8L251.81 522.84L251.81 522.84L211.73 522.84z" /></clipPath><clipPath id="95"><path d="M211.73 631.79L251.81 631.79L251.81 631.79L251.81 522.83L251.81 522.83L211.73 522.83z" /></clipPath><clipPath id="96"><path d="M211.73 631.79L251.81 631.79L251.81 631.79L251.81 522.83L251.81 522.83L211.73 522.83z" /></clipPath><clipPath id="97"><path d="M252.41 631.8L319.61 631.8L319.61 631.8L319.61 522.84L319.61 522.84L252.41 522.84z" /></clipPath><clipPath id="98"><path d="M252.41 631.79L319.61 631.79L319.61 631.79L319.61 522.83L319.61 522.83L252.41 522.83z" /></clipPath><clipPath id="99"><path d="M252.41 631.79L319.61 631.79L319.61 631.79L319.61 522.83L319.61 522.83L252.41 522.83z" /></clipPath><clipPath id="100"><path d="M320.21 631.8L510.7 631.8L510.7 631.8L510.7 522.84L510.7 522.84L320.21 522.84z" /></clipPath><clipPath id="101"><path d="M320.21 631.79L510.7 631.79L510.7 631.79L510.7 522.83L510.7 522.83L320.21 522.83z" /></clipPath><clipPath id="102"><path d="M320.21 631.79L510.7 631.79L510.7 631.79L510.7 522.83L510.7 522.83L320.21 522.83z" /></clipPath><clipPath id="103"><path d="M320.21 631.79L510.7 631.79L510.7 631.79L510.7 522.83L510.7 522.83L320.21 522.83z" /></clipPath><clipPath id="104"><path d="M320.21 631.79L510.7 631.79L510.7 631.79L510.7 522.83L510.7 522.83L320.21 522.83z" /></clipPath><clipPath id="105"><path d="M320.21 631.79L510.7 631.79L510.7 631.79L510.7 522.83L510.7 522.83L320.21 522.83z" /></clipPath><clipPath id="106"><path d="M320.21 631.79L510.7 631.79L510.7 631.79L510.7 522.83L510.7 522.83L320.21 522.83z" /></clipPath><clipPath id="107"><path d="M320.21 631.79L510.7 631.79L510.7 631.79L510.7 522.83L510.7 522.83L320.21 522.83z" /></clipPath><clipPath id="108"><path d="M320.21 631.79L510.7 631.79L510.7 631.79L510.7 522.83L510.7 522.83L320.21 522.83z" /></clipPath><clipPath id="109"><path d="M320.21 631.79L510.7 631.79L510.7 631.79L510.7 522.83L510.7 522.83L320.21 522.83z" /></clipPath><clipPath id="110"><path d="M320.21 631.79L510.7 631.79L510.7 631.79L510.7 522.83L510.7 522.83L320.21 522.83z" /></clipPath><clipPath id="111"><path d="M320.21 631.79L510.7 631.79L510.7 631.79L510.7 522.83L510.7 522.83L320.21 522.83z" /></clipPath><clipPath id="112"><path d="M320.21 631.79L510.7 631.79L510.7 631.79L510.7 522.83L510.7 522.83L320.21 522.83z" /></clipPath><clipPath id="113"><path d="M320.21 631.79L510.7 631.79L510.7 631.79L510.7 522.83L510.7 522.83L320.21 522.83z" /></clipPath><clipPath id="114"><path d="M320.21 631.79L510.7 631.79L510.7 631.79L510.7 522.83L510.7 522.83L320.21 522.83z" /></clipPath><clipPath id="115"><path d="M320.21 631.79L510.7 631.79L510.7 631.79L510.7 522.83L510.7 522.83L320.21 522.83z" /></clipPath><clipPath id="116"><path d="M320.21 631.79L510.7 631.79L510.7 631.79L510.7 522.83L510.7 522.83L320.21 522.83z" /></clipPath><clipPath id="117"><path d="M320.21 631.79L510.7 631.79L510.7 631.79L510.7 522.83L510.7 522.83L320.21 522.83z" /></clipPath><clipPath id="118"><path d="M320.21 631.79L510.7 631.79L510.7 631.79L510.7 522.83L510.7 522.83L320.21 522.83z" /></clipPath><clipPath id="119"><path d="M320.21 631.79L510.7 631.79L510.7 631.79L510.7 522.83L510.7 522.83L320.21 522.83z" /></clipPath><clipPath id="120"><path d="M320.21 631.79L510.7 631.79L510.7 631.79L510.7 522.83L510.7 522.83L320.21 522.83z" /></clipPath><clipPath id="121"><path d="M320.21 631.79L510.7 631.79L510.7 631.79L510.7 522.83L510.7 522.83L320.21 522.83z" /></clipPath><clipPath id="122"><path d="M320.21 631.79L510.7 631.79L510.7 631.79L510.7 522.83L510.7 522.83L320.21 522.83z" /></clipPath><clipPath id="123"><path d="M320.21 631.79L510.7 631.79L510.7 631.79L510.7 522.83L510.7 522.83L320.21 522.83z" /></clipPath><clipPath id="124"><path d="M320.21 631.79L510.7 631.79L510.7 631.79L510.7 522.83L510.7 522.83L320.21 522.83z" /></clipPath><clipPath id="125"><path d="M320.21 631.79L510.7 631.79L510.7 631.79L510.7 522.83L510.7 522.83L320.21 522.83z" /></clipPath><clipPath id="126"><path d="M320.21 631.79L510.7 631.79L510.7 631.79L510.7 522.83L510.7 522.83L320.21 522.83z" /></clipPath><clipPath id="127"><path d="M320.21 631.79L510.7 631.79L510.7 631.79L510.7 522.83L510.7 522.83L320.21 522.83z" /></clipPath><clipPath id="128"><path d="M320.21 631.79L510.7 631.79L510.7 631.79L510.7 522.83L510.7 522.83L320.21 522.83z" /></clipPath><clipPath id="129"><path d="M320.21 631.79L510.7 631.79L510.7 631.79L510.7 522.83L510.7 522.83L320.21 522.83z" /></clipPath><clipPath id="130"><path d="M84.751 659.89L162.391 659.89L162.391 659.89L162.391 632.275L162.391 632.275L84.751 632.275z" /></clipPath><clipPath id="131"><path d="M84.744 659.9L162.384 659.9L162.384 659.9L162.384 632.276L162.384 632.276L84.744 632.276z" /></clipPath><clipPath id="132"><path d="M84.744 659.9L162.384 659.9L162.384 659.9L162.384 632.276L162.384 632.276L84.744 632.276z" /></clipPath><clipPath id="133"><path d="M162.87 659.89L211.245 659.89L211.245 659.89L211.245 632.275L211.245 632.275L162.87 632.275z" /></clipPath><clipPath id="134"><path d="M162.86 659.9L211.244 659.9L211.244 659.9L211.244 632.276L211.244 632.276L162.86 632.276z" /></clipPath><clipPath id="135"><path d="M162.86 659.9L211.244 659.9L211.244 659.9L211.244 632.276L211.244 632.276L162.86 632.276z" /></clipPath><clipPath id="136"><path d="M211.73 659.89L251.81 659.89L251.81 659.89L251.81 632.275L251.81 632.275L211.73 632.275z" /></clipPath><clipPath id="137"><path d="M211.73 659.9L251.81 659.9L251.81 659.9L251.81 632.276L251.81 632.276L211.73 632.276z" /></clipPath><clipPath id="138"><path d="M211.73 659.9L251.81 659.9L251.81 659.9L251.81 632.276L251.81 632.276L211.73 632.276z" /></clipPath><clipPath id="139"><path d="M252.41 659.89L319.61 659.89L319.61 659.89L319.61 632.275L319.61 632.275L252.41 632.275z" /></clipPath><clipPath id="140"><path d="M252.41 659.9L319.61 659.9L319.61 659.9L319.61 632.276L319.61 632.276L252.41 632.276z" /></clipPath><clipPath id="141"><path d="M252.41 659.9L319.61 659.9L319.61 659.9L319.61 632.276L319.61 632.276L252.41 632.276z" /></clipPath><clipPath id="142"><path d="M320.21 659.89L510.7 659.89L510.7 659.89L510.7 632.275L510.7 632.275L320.21 632.275z" /></clipPath><clipPath id="143"><path d="M320.21 659.9L510.7 659.9L510.7 659.9L510.7 632.276L510.7 632.276L320.21 632.276z" /></clipPath><clipPath id="144"><path d="M320.21 659.9L510.7 659.9L510.7 659.9L510.7 632.276L510.7 632.276L320.21 632.276z" /></clipPath><clipPath id="145"><path d="M320.21 659.9L510.7 659.9L510.7 659.9L510.7 632.276L510.7 632.276L320.21 632.276z" /></clipPath></defs><g transform="matrix(1.333333 0 0 1.333333 0 0)"><g><g clip-path="url(#1)"><path transform="matrix(1 0 0 -1 0 841)" d="M457.51 53.304L505.534 53.304L505.534 53.304L505.534 53.90404L505.534 53.90404L457.51 53.90404z" stroke="none" fill="#000000" fill-rule="evenodd" /><g clip-path="url(#2)"><path transform="matrix(1 0 0 -1 0 841)" d="M88.464 77.904L506.974 77.904L506.974 77.904L506.974 80.904L506.974 80.904L88.464 80.904z" stroke="none" fill="#000000" fill-rule="evenodd" /><path transform="matrix(1 0 0 -1 0 841)" d="M88.464 76.464L506.974 76.464L506.974 76.464L506.974 77.18397L506.974 77.18397L88.464 77.18397z" stroke="none" fill="#000000" fill-rule="evenodd" /></g><g clip-path="url(#3)"><g clip-path="url(#4)"></g><g clip-path="url(#5)"></g></g><path transform="matrix(1 0 0 -1 0 841)" d="M84.744 723.94L180.264 723.94L180.264 723.94L180.264 751.564L180.264 751.564L84.744 751.564z" stroke="none" fill="#0070C0" fill-rule="evenodd" /><g clip-path="url(#6)"><path transform="matrix(1 0 0 -1 0 841)" d="M89.904 723.94L175.104 723.94L175.104 723.94L175.104 751.564L175.104 751.564L89.904 751.564z" stroke="none" fill="#0070C0" fill-rule="evenodd" /><g clip-path="url(#7)"></g><g clip-path="url(#8)"></g></g><path transform="matrix(1 0 0 -1 0 841)" d="M180.74 723.94L231.644 723.94L231.644 723.94L231.644 751.564L231.644 751.564L180.74 751.564z" stroke="none" fill="#0070C0" fill-rule="evenodd" /><g clip-path="url(#9)"><path transform="matrix(1 0 0 -1 0 841)" d="M185.9 723.94L226.484 723.94L226.484 723.94L226.484 751.564L226.484 751.564L185.9 751.564z" stroke="none" fill="#0070C0" fill-rule="evenodd" /><g clip-path="url(#10)"></g><g clip-path="url(#11)"></g></g><path transform="matrix(1 0 0 -1 0 841)" d="M232.13 723.94L282.41 723.94L282.41 723.94L282.41 751.564L282.41 751.564L232.13 751.564z" stroke="none" fill="#0070C0" fill-rule="evenodd" /><g clip-path="url(#12)"><path transform="matrix(1 0 0 -1 0 841)" d="M237.29 723.94L277.25 723.94L277.25 723.94L277.25 751.564L277.25 751.564L237.29 751.564z" stroke="none" fill="#0070C0" fill-rule="evenodd" /><g clip-path="url(#13)"></g><g clip-path="url(#14)"></g></g><path transform="matrix(1 0 0 -1 0 841)" d="M283.01 723.94L346.274 723.94L346.274 723.94L346.274 751.564L346.274 751.564L283.01 751.564z" stroke="none" fill="#0070C0" fill-rule="evenodd" /><g clip-path="url(#15)"><path transform="matrix(1 0 0 -1 0 841)" d="M288.05 723.94L341.114 723.94L341.114 723.94L341.114 751.564L341.114 751.564L288.05 751.564z" stroke="none" fill="#0070C0" fill-rule="evenodd" /><g clip-path="url(#16)"></g><g clip-path="url(#17)"></g></g><path transform="matrix(1 0 0 -1 0 841)" d="M346.75 723.94L537.69 723.94L537.69 723.94L537.69 751.564L537.69 751.564L346.75 751.564z" stroke="none" fill="#0070C0" fill-rule="evenodd" /><g clip-path="url(#18)"><path transform="matrix(1 0 0 -1 0 841)" d="M351.91 723.94L532.53 723.94L532.53 723.94L532.53 751.564L532.53 751.564L351.91 751.564z" stroke="none" fill="#0070C0" fill-rule="evenodd" /><g clip-path="url(#19)"></g><g clip-path="url(#20)"></g></g><path transform="matrix(1 0 0 -1 0 841)" d="M84.264 751.56L84.744 751.56L84.744 751.56L84.744 752.04L84.744 752.04L84.264 752.04z" stroke="none" fill="#000000" fill-rule="evenodd" /><path transform="matrix(1 0 0 -1 0 841)" d="M84.264 751.56L84.744 751.56L84.744 751.56L84.744 752.04L84.744 752.04L84.264 752.04z" stroke="none" fill="#000000" fill-rule="evenodd" /><path transform="matrix(1 0 0 -1 0 841)" d="M84.744 751.56L180.264 751.56L180.264 751.56L180.264 752.04L180.264 752.04L84.744 752.04z" stroke="none" fill="#000000" fill-rule="evenodd" /><path transform="matrix(1 0 0 -1 0 841)" d="M180.26 751.56L180.74 751.56L180.74 751.56L180.74 752.04L180.74 752.04L180.26 752.04z" stroke="none" fill="#000000" fill-rule="evenodd" /><path transform="matrix(1 0 0 -1 0 841)" d="M180.74 751.56L231.644 751.56L231.644 751.56L231.644 752.04L231.644 752.04L180.74 752.04z" stroke="none" fill="#000000" fill-rule="evenodd" /><path transform="matrix(1 0 0 -1 0 841)" d="M231.65 751.56L232.13 751.56L232.13 751.56L232.13 752.04L232.13 752.04L231.65 752.04z" stroke="none" fill="#000000" fill-rule="evenodd" /><path transform="matrix(1 0 0 -1 0 841)" d="M232.13 751.56L282.53 751.56L282.53 751.56L282.53 752.04L282.53 752.04L232.13 752.04z" stroke="none" fill="#000000" fill-rule="evenodd" /><path transform="matrix(1 0 0 -1 0 841)" d="M282.53 751.56L283.01 751.56L283.01 751.56L283.01 752.04L283.01 752.04L282.53 752.04z" stroke="none" fill="#000000" fill-rule="evenodd" /><path transform="matrix(1 0 0 -1 0 841)" d="M283.01 751.56L346.274 751.56L346.274 751.56L346.274 752.04L346.274 752.04L283.01 752.04z" stroke="none" fill="#000000" fill-rule="evenodd" /><path transform="matrix(1 0 0 -1 0 841)" d="M346.27 751.56L346.75 751.56L346.75 751.56L346.75 752.04L346.75 752.04L346.27 752.04z" stroke="none" fill="#000000" fill-rule="evenodd" /><path transform="matrix(1 0 0 -1 0 841)" d="M346.75 751.56L537.69 751.56L537.69 751.56L537.69 752.04L537.69 752.04L346.75 752.04z" stroke="none" fill="#000000" fill-rule="evenodd" /><path transform="matrix(1 0 0 -1 0 841)" d="M537.7 751.56L538.1801 751.56L538.1801 751.56L538.1801 752.04L538.1801 752.04L537.7 752.04z" stroke="none" fill="#000000" fill-rule="evenodd" /><path transform="matrix(1 0 0 -1 0 841)" d="M537.7 751.56L538.1801 751.56L538.1801 751.56L538.1801 752.04L538.1801 752.04L537.7 752.04z" stroke="none" fill="#000000" fill-rule="evenodd" /><path transform="matrix(1 0 0 -1 0 841)" d="M84.264 723.94L84.744 723.94L84.744 723.94L84.744 751.564L84.744 751.564L84.264 751.564z" stroke="none" fill="#000000" fill-rule="evenodd" /><path transform="matrix(1 0 0 -1 0 841)" d="M180.26 723.94L180.74 723.94L180.74 723.94L180.74 751.564L180.74 751.564L180.26 751.564z" stroke="none" fill="#000000" fill-rule="evenodd" /><path transform="matrix(1 0 0 -1 0 841)" d="M231.65 723.94L232.13 723.94L232.13 723.94L232.13 751.564L232.13 751.564L231.65 751.564z" stroke="none" fill="#000000" fill-rule="evenodd" /><path transform="matrix(1 0 0 -1 0 841)" d="M282.53 723.94L283.01 723.94L283.01 723.94L283.01 751.564L283.01 751.564L282.53 751.564z" stroke="none" fill="#000000" fill-rule="evenodd" /><path transform="matrix(1 0 0 -1 0 841)" d="M346.27 723.94L346.75 723.94L346.75 723.94L346.75 751.564L346.75 751.564L346.27 751.564z" stroke="none" fill="#000000" fill-rule="evenodd" /><path transform="matrix(1 0 0 -1 0 841)" d="M537.7 723.94L538.1801 723.94L538.1801 723.94L538.1801 751.564L538.1801 751.564L537.7 751.564z" stroke="none" fill="#000000" fill-rule="evenodd" /><g clip-path="url(#21)"><g clip-path="url(#22)"></g><g clip-path="url(#23)"></g><g clip-path="url(#24)"></g><g clip-path="url(#25)"></g><g clip-path="url(#26)"></g><g clip-path="url(#27)"></g><path transform="matrix(1 0 0 -1 0 841)" d="M489.46 706.42L532.54 706.42L532.54 706.42L532.54 707.14L532.54 707.14L489.46 707.14z" stroke="none" fill="#548DD4" fill-rule="evenodd" /><g clip-path="url(#28)"></g><g clip-path="url(#29)"></g><g clip-path="url(#30)"></g><path transform="matrix(1 0 0 -1 0 841)" d="M357.91 687.34L371.95 687.34L371.95 687.34L371.95 688.06L371.95 688.06L357.91 688.06z" stroke="none" fill="#548DD4" fill-rule="evenodd" /></g><path transform="matrix(1 0 0 -1 0 841)" d="M84.264 723.46L84.744 723.46L84.744 723.46L84.744 723.94L84.744 723.94L84.264 723.94z" stroke="none" fill="#000000" fill-rule="evenodd" /><path transform="matrix(1 0 0 -1 0 841)" d="M84.744 723.46L180.264 723.46L180.264 723.46L180.264 723.94L180.264 723.94L84.744 723.94z" stroke="none" fill="#000000" fill-rule="evenodd" /><path transform="matrix(1 0 0 -1 0 841)" d="M180.26 723.46L180.74 723.46L180.74 723.46L180.74 723.94L180.74 723.94L180.26 723.94z" stroke="none" fill="#000000" fill-rule="evenodd" /><path transform="matrix(1 0 0 -1 0 841)" d="M180.74 723.46L231.644 723.46L231.644 723.46L231.644 723.94L231.644 723.94L180.74 723.94z" stroke="none" fill="#000000" fill-rule="evenodd" /><path transform="matrix(1 0 0 -1 0 841)" d="M231.65 723.46L232.13 723.46L232.13 723.46L232.13 723.94L232.13 723.94L231.65 723.94z" stroke="none" fill="#000000" fill-rule="evenodd" /><path transform="matrix(1 0 0 -1 0 841)" d="M232.13 723.46L282.53 723.46L282.53 723.46L282.53 723.94L282.53 723.94L232.13 723.94z" stroke="none" fill="#000000" fill-rule="evenodd" /><path transform="matrix(1 0 0 -1 0 841)" d="M282.53 723.46L283.01 723.46L283.01 723.46L283.01 723.94L283.01 723.94L282.53 723.94z" stroke="none" fill="#000000" fill-rule="evenodd" /><path transform="matrix(1 0 0 -1 0 841)" d="M283.01 723.46L346.274 723.46L346.274 723.46L346.274 723.94L346.274 723.94L283.01 723.94z" stroke="none" fill="#000000" fill-rule="evenodd" /><path transform="matrix(1 0 0 -1 0 841)" d="M346.27 723.46L346.75 723.46L346.75 723.46L346.75 723.94L346.75 723.94L346.27 723.94z" stroke="none" fill="#000000" fill-rule="evenodd" /><path transform="matrix(1 0 0 -1 0 841)" d="M346.75 723.46L537.69 723.46L537.69 723.46L537.69 723.94L537.69 723.94L346.75 723.94z" stroke="none" fill="#000000" fill-rule="evenodd" /><path transform="matrix(1 0 0 -1 0 841)" d="M537.7 723.46L538.1801 723.46L538.1801 723.46L538.1801 723.94L538.1801 723.94L537.7 723.94z" stroke="none" fill="#000000" fill-rule="evenodd" /><path transform="matrix(1 0 0 -1 0 841)" d="M84.264 680.62L84.744 680.62L84.744 680.62L84.744 723.46L84.744 723.46L84.264 723.46z" stroke="none" fill="#000000" fill-rule="evenodd" /><path transform="matrix(1 0 0 -1 0 841)" d="M180.26 680.62L180.74 680.62L180.74 680.62L180.74 723.46L180.74 723.46L180.26 723.46z" stroke="none" fill="#000000" fill-rule="evenodd" /><path transform="matrix(1 0 0 -1 0 841)" d="M231.65 680.62L232.13 680.62L232.13 680.62L232.13 723.46L232.13 723.46L231.65 723.46z" stroke="none" fill="#000000" fill-rule="evenodd" /><path transform="matrix(1 0 0 -1 0 841)" d="M282.53 680.62L283.01 680.62L283.01 680.62L283.01 723.46L283.01 723.46L282.53 723.46z" stroke="none" fill="#000000" fill-rule="evenodd" /><path transform="matrix(1 0 0 -1 0 841)" d="M346.27 680.62L346.75 680.62L346.75 680.62L346.75 723.46L346.75 723.46L346.27 723.46z" stroke="none" fill="#000000" fill-rule="evenodd" /><path transform="matrix(1 0 0 -1 0 841)" d="M537.7 680.62L538.1801 680.62L538.1801 680.62L538.1801 723.46L538.1801 723.46L537.7 723.46z" stroke="none" fill="#000000" fill-rule="evenodd" /><path transform="matrix(1 0 0 -1 0 841)" d="M84.744 611.38L180.264 611.38L180.264 611.38L180.264 680.14L180.264 680.14L84.744 680.14z" stroke="none" fill="#DAEEF3" fill-rule="evenodd" /><g clip-path="url(#31)"><path transform="matrix(1 0 0 -1 0 841)" d="M89.904 653.5L175.104 653.5L175.104 653.5L175.104 680.14L175.104 680.14L89.904 680.14z" stroke="none" fill="#DAEEF3" fill-rule="evenodd" /><g clip-path="url(#32)"></g><g clip-path="url(#33)"></g></g><path transform="matrix(1 0 0 -1 0 841)" d="M180.74 611.38L231.644 611.38L231.644 611.38L231.644 680.14L231.644 680.14L180.74 680.14z" stroke="none" fill="#DAEEF3" fill-rule="evenodd" /><g clip-path="url(#34)"><path transform="matrix(1 0 0 -1 0 841)" d="M185.9 653.5L226.484 653.5L226.484 653.5L226.484 680.14L226.484 680.14L185.9 680.14z" stroke="none" fill="#DAEEF3" fill-rule="evenodd" /><g clip-path="url(#35)"></g><g clip-path="url(#36)"></g></g><path transform="matrix(1 0 0 -1 0 841)" d="M232.13 611.38L282.41 611.38L282.41 611.38L282.41 680.14L282.41 680.14L232.13 680.14z" stroke="none" fill="#DAEEF3" fill-rule="evenodd" /><g clip-path="url(#37)"><path transform="matrix(1 0 0 -1 0 841)" d="M237.29 652.42L277.25 652.42L277.25 652.42L277.25 680.14L277.25 680.14L237.29 680.14z" stroke="none" fill="#DAEEF3" fill-rule="evenodd" /><g clip-path="url(#38)"></g><g clip-path="url(#39)"></g></g><path transform="matrix(1 0 0 -1 0 841)" d="M283.01 611.38L346.274 611.38L346.274 611.38L346.274 680.14L346.274 680.14L283.01 680.14z" stroke="none" fill="#DAEEF3" fill-rule="evenodd" /><g clip-path="url(#40)"><path transform="matrix(1 0 0 -1 0 841)" d="M288.05 653.5L341.114 653.5L341.114 653.5L341.114 680.14L341.114 680.14L288.05 680.14z" stroke="none" fill="#DAEEF3" fill-rule="evenodd" /><g clip-path="url(#41)"></g></g><path transform="matrix(1 0 0 -1 0 841)" d="M346.75 611.38L537.69 611.38L537.69 611.38L537.69 680.14L537.69 680.14L346.75 680.14z" stroke="none" fill="#DAEEF3" fill-rule="evenodd" /><g clip-path="url(#42)"><path transform="matrix(1 0 0 -1 0 841)" d="M351.91 657.22L532.53 657.22L532.53 657.22L532.53 680.14L532.53 680.14L351.91 680.14z" stroke="none" fill="#DAEEF3" fill-rule="evenodd" /><g clip-path="url(#43)"></g><g clip-path="url(#44)"></g><g clip-path="url(#45)"></g><g clip-path="url(#46)"></g><path transform="matrix(1 0 0 -1 0 841)" d="M351.91 634.3L532.53 634.3L532.53 634.3L532.53 657.22L532.53 657.22L351.91 657.22z" stroke="none" fill="#DAEEF3" fill-rule="evenodd" /><g clip-path="url(#47)"></g><g clip-path="url(#48)"></g><g clip-path="url(#49)"></g><g clip-path="url(#50)"></g><path transform="matrix(1 0 0 -1 0 841)" d="M351.91 611.38L532.53 611.38L532.53 611.38L532.53 634.3L532.53 634.3L351.91 634.3z" stroke="none" fill="#DAEEF3" fill-rule="evenodd" /><g clip-path="url(#51)"></g><g clip-path="url(#52)"></g></g><path transform="matrix(1 0 0 -1 0 841)" d="M84.264 680.14L84.744 680.14L84.744 680.14L84.744 680.62L84.744 680.62L84.264 680.62z" stroke="none" fill="#000000" fill-rule="evenodd" /><path transform="matrix(1 0 0 -1 0 841)" d="M84.744 680.14L180.264 680.14L180.264 680.14L180.264 680.62L180.264 680.62L84.744 680.62z" stroke="none" fill="#000000" fill-rule="evenodd" /><path transform="matrix(1 0 0 -1 0 841)" d="M180.26 680.14L180.74 680.14L180.74 680.14L180.74 680.62L180.74 680.62L180.26 680.62z" stroke="none" fill="#000000" fill-rule="evenodd" /><path transform="matrix(1 0 0 -1 0 841)" d="M180.74 680.14L231.644 680.14L231.644 680.14L231.644 680.62L231.644 680.62L180.74 680.62z" stroke="none" fill="#000000" fill-rule="evenodd" /><path transform="matrix(1 0 0 -1 0 841)" d="M231.65 680.14L232.13 680.14L232.13 680.14L232.13 680.62L232.13 680.62L231.65 680.62z" stroke="none" fill="#000000" fill-rule="evenodd" /><path transform="matrix(1 0 0 -1 0 841)" d="M232.13 680.14L282.53 680.14L282.53 680.14L282.53 680.62L282.53 680.62L232.13 680.62z" stroke="none" fill="#000000" fill-rule="evenodd" /><path transform="matrix(1 0 0 -1 0 841)" d="M282.53 680.14L283.01 680.14L283.01 680.14L283.01 680.62L283.01 680.62L282.53 680.62z" stroke="none" fill="#000000" fill-rule="evenodd" /><path transform="matrix(1 0 0 -1 0 841)" d="M283.01 680.14L346.274 680.14L346.274 680.14L346.274 680.62L346.274 680.62L283.01 680.62z" stroke="none" fill="#000000" fill-rule="evenodd" /><path transform="matrix(1 0 0 -1 0 841)" d="M346.27 680.14L346.75 680.14L346.75 680.14L346.75 680.62L346.75 680.62L346.27 680.62z" stroke="none" fill="#000000" fill-rule="evenodd" /><path transform="matrix(1 0 0 -1 0 841)" d="M346.75 680.14L537.69 680.14L537.69 680.14L537.69 680.62L537.69 680.62L346.75 680.62z" stroke="none" fill="#000000" fill-rule="evenodd" /><path transform="matrix(1 0 0 -1 0 841)" d="M537.7 680.14L538.1801 680.14L538.1801 680.14L538.1801 680.62L538.1801 680.62L537.7 680.62z" stroke="none" fill="#000000" fill-rule="evenodd" /><path transform="matrix(1 0 0 -1 0 841)" d="M84.264 611.38L84.744 611.38L84.744 611.38L84.744 680.14L84.744 680.14L84.264 680.14z" stroke="none" fill="#000000" fill-rule="evenodd" /><path transform="matrix(1 0 0 -1 0 841)" d="M180.26 611.38L180.74 611.38L180.74 611.38L180.74 680.14L180.74 680.14L180.26 680.14z" stroke="none" fill="#000000" fill-rule="evenodd" /><path transform="matrix(1 0 0 -1 0 841)" d="M231.65 611.38L232.13 611.38L232.13 611.38L232.13 680.14L232.13 680.14L231.65 680.14z" stroke="none" fill="#000000" fill-rule="evenodd" /><path transform="matrix(1 0 0 -1 0 841)" d="M282.53 611.38L283.01 611.38L283.01 611.38L283.01 680.14L283.01 680.14L282.53 680.14z" stroke="none" fill="#000000" fill-rule="evenodd" /><path transform="matrix(1 0 0 -1 0 841)" d="M346.27 611.38L346.75 611.38L346.75 611.38L346.75 680.14L346.75 680.14L346.27 680.14z" stroke="none" fill="#000000" fill-rule="evenodd" /><path transform="matrix(1 0 0 -1 0 841)" d="M537.7 611.38L538.1801 611.38L538.1801 611.38L538.1801 680.14L538.1801 680.14L537.7 680.14z" stroke="none" fill="#000000" fill-rule="evenodd" /><g clip-path="url(#53)"><g clip-path="url(#54)"></g><g clip-path="url(#55)"></g></g><g clip-path="url(#56)"><g clip-path="url(#57)"></g><g clip-path="url(#58)"></g></g><g clip-path="url(#59)"><g clip-path="url(#60)"></g><g clip-path="url(#61)"></g></g><g clip-path="url(#62)"><g clip-path="url(#63)"></g><g clip-path="url(#64)"></g></g><g clip-path="url(#65)"><g clip-path="url(#66)"></g><g clip-path="url(#67)"></g><g clip-path="url(#68)"></g><g clip-path="url(#69)"></g><g clip-path="url(#70)"></g><g clip-path="url(#71)"></g><path transform="matrix(1 0 0 -1 0 841)" d="M354.31 564.1L410.35 564.1L410.35 564.1L410.35 564.8199L410.35 564.8199L354.31 564.8199z" stroke="none" fill="#000000" fill-rule="evenodd" /></g><path transform="matrix(1 0 0 -1 0 841)" d="M84.264 610.9L84.744 610.9L84.744 610.9L84.744 611.38L84.744 611.38L84.264 611.38z" stroke="none" fill="#000000" fill-rule="evenodd" /><path transform="matrix(1 0 0 -1 0 841)" d="M84.744 610.9L180.264 610.9L180.264 610.9L180.264 611.38L180.264 611.38L84.744 611.38z" stroke="none" fill="#000000" fill-rule="evenodd" /><path transform="matrix(1 0 0 -1 0 841)" d="M180.26 610.9L180.74 610.9L180.74 610.9L180.74 611.38L180.74 611.38L180.26 611.38z" stroke="none" fill="#000000" fill-rule="evenodd" /><path transform="matrix(1 0 0 -1 0 841)" d="M180.74 610.9L231.644 610.9L231.644 610.9L231.644 611.38L231.644 611.38L180.74 611.38z" stroke="none" fill="#000000" fill-rule="evenodd" /><path transform="matrix(1 0 0 -1 0 841)" d="M231.65 610.9L232.13 610.9L232.13 610.9L232.13 611.38L232.13 611.38L231.65 611.38z" stroke="none" fill="#000000" fill-rule="evenodd" /><path transform="matrix(1 0 0 -1 0 841)" d="M232.13 610.9L282.53 610.9L282.53 610.9L282.53 611.38L282.53 611.38L232.13 611.38z" stroke="none" fill="#000000" fill-rule="evenodd" /><path transform="matrix(1 0 0 -1 0 841)" d="M282.53 610.9L283.01 610.9L283.01 610.9L283.01 611.38L283.01 611.38L282.53 611.38z" stroke="none" fill="#000000" fill-rule="evenodd" /><path transform="matrix(1 0 0 -1 0 841)" d="M283.01 610.9L346.274 610.9L346.274 610.9L346.274 611.38L346.274 611.38L283.01 611.38z" stroke="none" fill="#000000" fill-rule="evenodd" /><path transform="matrix(1 0 0 -1 0 841)" d="M346.27 610.9L346.75 610.9L346.75 610.9L346.75 611.38L346.75 611.38L346.27 611.38z" stroke="none" fill="#000000" fill-rule="evenodd" /><path transform="matrix(1 0 0 -1 0 841)" d="M346.75 610.9L537.69 610.9L537.69 610.9L537.69 611.38L537.69 611.38L346.75 611.38z" stroke="none" fill="#000000" fill-rule="evenodd" /><path transform="matrix(1 0 0 -1 0 841)" d="M537.7 610.9L538.1801 610.9L538.1801 610.9L538.1801 611.38L538.1801 611.38L537.7 611.38z" stroke="none" fill="#000000" fill-rule="evenodd" /><path transform="matrix(1 0 0 -1 0 841)" d="M84.264 557.59L84.744 557.59L84.744 557.59L84.744 610.894L84.744 610.894L84.264 610.894z" stroke="none" fill="#000000" fill-rule="evenodd" /><path transform="matrix(1 0 0 -1 0 841)" d="M84.264 557.11L84.744 557.11L84.744 557.11L84.744 557.59L84.744 557.59L84.264 557.59z" stroke="none" fill="#000000" fill-rule="evenodd" /><path transform="matrix(1 0 0 -1 0 841)" d="M84.264 557.11L84.744 557.11L84.744 557.11L84.744 557.59L84.744 557.59L84.264 557.59z" stroke="none" fill="#000000" fill-rule="evenodd" /><path transform="matrix(1 0 0 -1 0 841)" d="M84.744 557.11L180.264 557.11L180.264 557.11L180.264 557.59L180.264 557.59L84.744 557.59z" stroke="none" fill="#000000" fill-rule="evenodd" /><path transform="matrix(1 0 0 -1 0 841)" d="M180.26 557.59L180.74 557.59L180.74 557.59L180.74 610.894L180.74 610.894L180.26 610.894z" stroke="none" fill="#000000" fill-rule="evenodd" /><path transform="matrix(1 0 0 -1 0 841)" d="M180.26 557.11L180.74 557.11L180.74 557.11L180.74 557.59L180.74 557.59L180.26 557.59z" stroke="none" fill="#000000" fill-rule="evenodd" /><path transform="matrix(1 0 0 -1 0 841)" d="M180.74 557.11L231.644 557.11L231.644 557.11L231.644 557.59L231.644 557.59L180.74 557.59z" stroke="none" fill="#000000" fill-rule="evenodd" /><path transform="matrix(1 0 0 -1 0 841)" d="M231.65 557.59L232.13 557.59L232.13 557.59L232.13 610.894L232.13 610.894L231.65 610.894z" stroke="none" fill="#000000" fill-rule="evenodd" /><path transform="matrix(1 0 0 -1 0 841)" d="M231.65 557.11L232.13 557.11L232.13 557.11L232.13 557.59L232.13 557.59L231.65 557.59z" stroke="none" fill="#000000" fill-rule="evenodd" /><path transform="matrix(1 0 0 -1 0 841)" d="M232.13 557.11L282.53 557.11L282.53 557.11L282.53 557.59L282.53 557.59L232.13 557.59z" stroke="none" fill="#000000" fill-rule="evenodd" /><path transform="matrix(1 0 0 -1 0 841)" d="M282.53 557.59L283.01 557.59L283.01 557.59L283.01 610.894L283.01 610.894L282.53 610.894z" stroke="none" fill="#000000" fill-rule="evenodd" /><path transform="matrix(1 0 0 -1 0 841)" d="M282.53 557.11L283.01 557.11L283.01 557.11L283.01 557.59L283.01 557.59L282.53 557.59z" stroke="none" fill="#000000" fill-rule="evenodd" /><path transform="matrix(1 0 0 -1 0 841)" d="M283.01 557.11L346.274 557.11L346.274 557.11L346.274 557.59L346.274 557.59L283.01 557.59z" stroke="none" fill="#000000" fill-rule="evenodd" /><path transform="matrix(1 0 0 -1 0 841)" d="M346.27 557.59L346.75 557.59L346.75 557.59L346.75 610.894L346.75 610.894L346.27 610.894z" stroke="none" fill="#000000" fill-rule="evenodd" /><path transform="matrix(1 0 0 -1 0 841)" d="M346.27 557.11L346.75 557.11L346.75 557.11L346.75 557.59L346.75 557.59L346.27 557.59z" stroke="none" fill="#000000" fill-rule="evenodd" /><path transform="matrix(1 0 0 -1 0 841)" d="M346.75 557.11L537.69 557.11L537.69 557.11L537.69 557.59L537.69 557.59L346.75 557.59z" stroke="none" fill="#000000" fill-rule="evenodd" /><path transform="matrix(1 0 0 -1 0 841)" d="M537.7 557.59L538.1801 557.59L538.1801 557.59L538.1801 610.894L538.1801 610.894L537.7 610.894z" stroke="none" fill="#000000" fill-rule="evenodd" /><path transform="matrix(1 0 0 -1 0 841)" d="M537.7 557.11L538.1801 557.11L538.1801 557.11L538.1801 557.59L538.1801 557.59L537.7 557.59z" stroke="none" fill="#000000" fill-rule="evenodd" /><path transform="matrix(1 0 0 -1 0 841)" d="M537.7 557.11L538.1801 557.11L538.1801 557.11L538.1801 557.59L538.1801 557.59L537.7 557.59z" stroke="none" fill="#000000" fill-rule="evenodd" /><path transform="matrix(1 0 0 -1 0 841)" d="M84.744 318.65L162.384 318.65L162.384 318.65L162.384 364.49L162.384 364.49L84.744 364.49z" stroke="none" fill="#0070C0" fill-rule="evenodd" /><g clip-path="url(#72)"><path transform="matrix(1 0 0 -1 0 841)" d="M89.904 336.77L157.224 336.77L157.224 336.77L157.224 364.49L157.224 364.49L89.904 364.49z" stroke="none" fill="#0070C0" fill-rule="evenodd" /><g clip-path="url(#73)"></g><g clip-path="url(#74)"></g></g><path transform="matrix(1 0 0 -1 0 841)" d="M162.86 318.65L211.244 318.65L211.244 318.65L211.244 364.49L211.244 364.49L162.86 364.49z" stroke="none" fill="#0070C0" fill-rule="evenodd" /><g clip-path="url(#75)"><path transform="matrix(1 0 0 -1 0 841)" d="M168.02 336.77L206.084 336.77L206.084 336.77L206.084 364.49L206.084 364.49L168.02 364.49z" stroke="none" fill="#0070C0" fill-rule="evenodd" /><g clip-path="url(#76)"></g><g clip-path="url(#77)"></g></g><path transform="matrix(1 0 0 -1 0 841)" d="M211.73 318.65L251.81 318.65L251.81 318.65L251.81 364.49L251.81 364.49L211.73 364.49z" stroke="none" fill="#0070C0" fill-rule="evenodd" /><g clip-path="url(#78)"><path transform="matrix(1 0 0 -1 0 841)" d="M216.89 341.57L246.65 341.57L246.65 341.57L246.65 364.49L246.65 364.49L216.89 364.49z" stroke="none" fill="#0070C0" fill-rule="evenodd" /><g clip-path="url(#79)"></g><path transform="matrix(1 0 0 -1 0 841)" d="M216.89 318.65L246.65 318.65L246.65 318.65L246.65 341.57L246.65 341.57L216.89 341.57z" stroke="none" fill="#0070C0" fill-rule="evenodd" /><g clip-path="url(#80)"></g><g clip-path="url(#81)"></g></g><path transform="matrix(1 0 0 -1 0 841)" d="M252.41 318.65L319.61 318.65L319.61 318.65L319.61 364.49L319.61 364.49L252.41 364.49z" stroke="none" fill="#0070C0" fill-rule="evenodd" /><g clip-path="url(#82)"><path transform="matrix(1 0 0 -1 0 841)" d="M257.45 336.77L314.45 336.77L314.45 336.77L314.45 364.49L314.45 364.49L257.45 364.49z" stroke="none" fill="#0070C0" fill-rule="evenodd" /><g clip-path="url(#83)"></g><g clip-path="url(#84)"></g></g><path transform="matrix(1 0 0 -1 0 841)" d="M320.21 318.65L510.7 318.65L510.7 318.65L510.7 364.49L510.7 364.49L320.21 364.49z" stroke="none" fill="#0070C0" fill-rule="evenodd" /><g clip-path="url(#85)"><path transform="matrix(1 0 0 -1 0 841)" d="M325.25 336.77L505.54 336.77L505.54 336.77L505.54 364.49L505.54 364.49L325.25 364.49z" stroke="none" fill="#0070C0" fill-rule="evenodd" /><g clip-path="url(#86)"></g><g clip-path="url(#87)"></g></g><path transform="matrix(1 0 0 -1 0 841)" d="M84.264 364.49L84.744 364.49L84.744 364.49L84.744 364.97L84.744 364.97L84.264 364.97z" stroke="none" fill="#000000" fill-rule="evenodd" /><path transform="matrix(1 0 0 -1 0 841)" d="M84.264 364.49L84.744 364.49L84.744 364.49L84.744 364.97L84.744 364.97L84.264 364.97z" stroke="none" fill="#000000" fill-rule="evenodd" /><path transform="matrix(1 0 0 -1 0 841)" d="M84.744 364.49L162.384 364.49L162.384 364.49L162.384 364.97L162.384 364.97L84.744 364.97z" stroke="none" fill="#000000" fill-rule="evenodd" /><path transform="matrix(1 0 0 -1 0 841)" d="M162.38 364.49L162.86 364.49L162.86 364.49L162.86 364.97L162.86 364.97L162.38 364.97z" stroke="none" fill="#000000" fill-rule="evenodd" /><path transform="matrix(1 0 0 -1 0 841)" d="M162.86 364.49L211.244 364.49L211.244 364.49L211.244 364.97L211.244 364.97L162.86 364.97z" stroke="none" fill="#000000" fill-rule="evenodd" /><path transform="matrix(1 0 0 -1 0 841)" d="M211.25 364.49L211.73 364.49L211.73 364.49L211.73 364.97L211.73 364.97L211.25 364.97z" stroke="none" fill="#000000" fill-rule="evenodd" /><path transform="matrix(1 0 0 -1 0 841)" d="M211.73 364.49L251.93 364.49L251.93 364.49L251.93 364.97L251.93 364.97L211.73 364.97z" stroke="none" fill="#000000" fill-rule="evenodd" /><path transform="matrix(1 0 0 -1 0 841)" d="M251.93 364.49L252.41 364.49L252.41 364.49L252.41 364.97L252.41 364.97L251.93 364.97z" stroke="none" fill="#000000" fill-rule="evenodd" /><path transform="matrix(1 0 0 -1 0 841)" d="M252.41 364.49L319.73 364.49L319.73 364.49L319.73 364.97L319.73 364.97L252.41 364.97z" stroke="none" fill="#000000" fill-rule="evenodd" /><path transform="matrix(1 0 0 -1 0 841)" d="M319.73 364.49L320.21 364.49L320.21 364.49L320.21 364.97L320.21 364.97L319.73 364.97z" stroke="none" fill="#000000" fill-rule="evenodd" /><path transform="matrix(1 0 0 -1 0 841)" d="M320.21 364.49L510.7 364.49L510.7 364.49L510.7 364.97L510.7 364.97L320.21 364.97z" stroke="none" fill="#000000" fill-rule="evenodd" /><path transform="matrix(1 0 0 -1 0 841)" d="M510.7 364.49L511.18 364.49L511.18 364.49L511.18 364.97L511.18 364.97L510.7 364.97z" stroke="none" fill="#000000" fill-rule="evenodd" /><path transform="matrix(1 0 0 -1 0 841)" d="M510.7 364.49L511.18 364.49L511.18 364.49L511.18 364.97L511.18 364.97L510.7 364.97z" stroke="none" fill="#000000" fill-rule="evenodd" /><path transform="matrix(1 0 0 -1 0 841)" d="M84.264 318.65L84.744 318.65L84.744 318.65L84.744 364.49L84.744 364.49L84.264 364.49z" stroke="none" fill="#000000" fill-rule="evenodd" /><path transform="matrix(1 0 0 -1 0 841)" d="M162.38 318.65L162.86 318.65L162.86 318.65L162.86 364.49L162.86 364.49L162.38 364.49z" stroke="none" fill="#000000" fill-rule="evenodd" /><path transform="matrix(1 0 0 -1 0 841)" d="M211.25 318.65L211.73 318.65L211.73 318.65L211.73 364.49L211.73 364.49L211.25 364.49z" stroke="none" fill="#000000" fill-rule="evenodd" /><path transform="matrix(1 0 0 -1 0 841)" d="M251.93 318.65L252.41 318.65L252.41 318.65L252.41 364.49L252.41 364.49L251.93 364.49z" stroke="none" fill="#000000" fill-rule="evenodd" /><path transform="matrix(1 0 0 -1 0 841)" d="M319.73 318.65L320.21 318.65L320.21 318.65L320.21 364.49L320.21 364.49L319.73 364.49z" stroke="none" fill="#000000" fill-rule="evenodd" /><path transform="matrix(1 0 0 -1 0 841)" d="M510.7 318.65L511.18 318.65L511.18 318.65L511.18 364.49L511.18 364.49L510.7 364.49z" stroke="none" fill="#000000" fill-rule="evenodd" /><path transform="matrix(1 0 0 -1 0 841)" d="M84.744 209.21L162.384 209.21L162.384 209.21L162.384 318.17L162.384 318.17L84.744 318.17z" stroke="none" fill="#DAEEF3" fill-rule="evenodd" /><g clip-path="url(#88)"><path transform="matrix(1 0 0 -1 0 841)" d="M89.904 291.53L157.224 291.53L157.224 291.53L157.224 318.17L157.224 318.17L89.904 318.17z" stroke="none" fill="#DAEEF3" fill-rule="evenodd" /><g clip-path="url(#89)"></g><g clip-path="url(#90)"></g></g><path transform="matrix(1 0 0 -1 0 841)" d="M162.86 209.21L211.244 209.21L211.244 209.21L211.244 318.17L211.244 318.17L162.86 318.17z" stroke="none" fill="#DAEEF3" fill-rule="evenodd" /><g clip-path="url(#91)"><path transform="matrix(1 0 0 -1 0 841)" d="M168.02 291.53L206.084 291.53L206.084 291.53L206.084 318.17L206.084 318.17L168.02 318.17z" stroke="none" fill="#DAEEF3" fill-rule="evenodd" /><g clip-path="url(#92)"></g><g clip-path="url(#93)"></g></g><path transform="matrix(1 0 0 -1 0 841)" d="M211.73 209.21L251.81 209.21L251.81 209.21L251.81 318.17L251.81 318.17L211.73 318.17z" stroke="none" fill="#DAEEF3" fill-rule="evenodd" /><g clip-path="url(#94)"><path transform="matrix(1 0 0 -1 0 841)" d="M216.89 290.57L246.65 290.57L246.65 290.57L246.65 318.17L246.65 318.17L216.89 318.17z" stroke="none" fill="#DAEEF3" fill-rule="evenodd" /><g clip-path="url(#95)"></g><g clip-path="url(#96)"></g></g><path transform="matrix(1 0 0 -1 0 841)" d="M252.41 209.21L319.61 209.21L319.61 209.21L319.61 318.17L319.61 318.17L252.41 318.17z" stroke="none" fill="#DAEEF3" fill-rule="evenodd" /><g clip-path="url(#97)"><path transform="matrix(1 0 0 -1 0 841)" d="M257.45 291.53L314.45 291.53L314.45 291.53L314.45 318.17L314.45 318.17L257.45 318.17z" stroke="none" fill="#DAEEF3" fill-rule="evenodd" /><g clip-path="url(#98)"></g><g clip-path="url(#99)"></g></g><path transform="matrix(1 0 0 -1 0 841)" d="M320.21 209.21L510.7 209.21L510.7 209.21L510.7 318.17L510.7 318.17L320.21 318.17z" stroke="none" fill="#DAEEF3" fill-rule="evenodd" /><g clip-path="url(#100)"><path transform="matrix(1 0 0 -1 0 841)" d="M325.25 300.05L505.54 300.05L505.54 300.05L505.54 318.17L505.54 318.17L325.25 318.17z" stroke="none" fill="#DAEEF3" fill-rule="evenodd" /><g clip-path="url(#101)"></g><g clip-path="url(#102)"></g><g clip-path="url(#103)"></g><path transform="matrix(1 0 0 -1 0 841)" d="M325.25 281.81L505.54 281.81L505.54 281.81L505.54 300.05L505.54 300.05L325.25 300.05z" stroke="none" fill="#DAEEF3" fill-rule="evenodd" /><g clip-path="url(#104)"></g><g clip-path="url(#105)"></g><g clip-path="url(#106)"></g><g clip-path="url(#107)"></g><g clip-path="url(#108)"></g><path transform="matrix(1 0 0 -1 0 841)" d="M325.25 263.69L505.54 263.69L505.54 263.69L505.54 281.81L505.54 281.81L325.25 281.81z" stroke="none" fill="#DAEEF3" fill-rule="evenodd" /><g clip-path="url(#109)"></g><g clip-path="url(#110)"></g><g clip-path="url(#111)"></g><g clip-path="url(#112)"></g><g clip-path="url(#113)"></g><path transform="matrix(1 0 0 -1 0 841)" d="M325.25 245.57L505.54 245.57L505.54 245.57L505.54 263.69L505.54 263.69L325.25 263.69z" stroke="none" fill="#DAEEF3" fill-rule="evenodd" /><g clip-path="url(#114)"></g><g clip-path="url(#115)"></g><g clip-path="url(#116)"></g><g clip-path="url(#117)"></g><g clip-path="url(#118)"></g><path transform="matrix(1 0 0 -1 0 841)" d="M325.25 227.33L505.54 227.33L505.54 227.33L505.54 245.57L505.54 245.57L325.25 245.57z" stroke="none" fill="#DAEEF3" fill-rule="evenodd" /><g clip-path="url(#119)"></g><g clip-path="url(#120)"></g><g clip-path="url(#121)"></g><g clip-path="url(#122)"></g><g clip-path="url(#123)"></g><path transform="matrix(1 0 0 -1 0 841)" d="M325.25 209.21L505.54 209.21L505.54 209.21L505.54 227.33L505.54 227.33L325.25 227.33z" stroke="none" fill="#DAEEF3" fill-rule="evenodd" /><g clip-path="url(#124)"></g><g clip-path="url(#125)"></g><g clip-path="url(#126)"></g><g clip-path="url(#127)"></g><g clip-path="url(#128)"></g><g clip-path="url(#129)"></g></g><path transform="matrix(1 0 0 -1 0 841)" d="M84.264 318.17L84.744 318.17L84.744 318.17L84.744 318.65L84.744 318.65L84.264 318.65z" stroke="none" fill="#000000" fill-rule="evenodd" /><path transform="matrix(1 0 0 -1 0 841)" d="M84.744 318.17L162.384 318.17L162.384 318.17L162.384 318.65L162.384 318.65L84.744 318.65z" stroke="none" fill="#000000" fill-rule="evenodd" /><path transform="matrix(1 0 0 -1 0 841)" d="M162.38 318.17L162.86 318.17L162.86 318.17L162.86 318.65L162.86 318.65L162.38 318.65z" stroke="none" fill="#000000" fill-rule="evenodd" /><path transform="matrix(1 0 0 -1 0 841)" d="M162.86 318.17L211.244 318.17L211.244 318.17L211.244 318.65L211.244 318.65L162.86 318.65z" stroke="none" fill="#000000" fill-rule="evenodd" /><path transform="matrix(1 0 0 -1 0 841)" d="M211.25 318.17L211.73 318.17L211.73 318.17L211.73 318.65L211.73 318.65L211.25 318.65z" stroke="none" fill="#000000" fill-rule="evenodd" /><path transform="matrix(1 0 0 -1 0 841)" d="M211.73 318.17L251.93 318.17L251.93 318.17L251.93 318.65L251.93 318.65L211.73 318.65z" stroke="none" fill="#000000" fill-rule="evenodd" /><path transform="matrix(1 0 0 -1 0 841)" d="M251.93 318.17L252.41 318.17L252.41 318.17L252.41 318.65L252.41 318.65L251.93 318.65z" stroke="none" fill="#000000" fill-rule="evenodd" /><path transform="matrix(1 0 0 -1 0 841)" d="M252.41 318.17L319.73 318.17L319.73 318.17L319.73 318.65L319.73 318.65L252.41 318.65z" stroke="none" fill="#000000" fill-rule="evenodd" /><path transform="matrix(1 0 0 -1 0 841)" d="M319.73 318.17L320.21 318.17L320.21 318.17L320.21 318.65L320.21 318.65L319.73 318.65z" stroke="none" fill="#000000" fill-rule="evenodd" /><path transform="matrix(1 0 0 -1 0 841)" d="M320.21 318.17L510.7 318.17L510.7 318.17L510.7 318.65L510.7 318.65L320.21 318.65z" stroke="none" fill="#000000" fill-rule="evenodd" /><path transform="matrix(1 0 0 -1 0 841)" d="M510.7 318.17L511.18 318.17L511.18 318.17L511.18 318.65L511.18 318.65L510.7 318.65z" stroke="none" fill="#000000" fill-rule="evenodd" /><path transform="matrix(1 0 0 -1 0 841)" d="M84.264 209.21L84.744 209.21L84.744 209.21L84.744 318.17L84.744 318.17L84.264 318.17z" stroke="none" fill="#000000" fill-rule="evenodd" /><path transform="matrix(1 0 0 -1 0 841)" d="M162.38 209.21L162.86 209.21L162.86 209.21L162.86 318.17L162.86 318.17L162.38 318.17z" stroke="none" fill="#000000" fill-rule="evenodd" /><path transform="matrix(1 0 0 -1 0 841)" d="M211.25 209.21L211.73 209.21L211.73 209.21L211.73 318.17L211.73 318.17L211.25 318.17z" stroke="none" fill="#000000" fill-rule="evenodd" /><path transform="matrix(1 0 0 -1 0 841)" d="M251.93 209.21L252.41 209.21L252.41 209.21L252.41 318.17L252.41 318.17L251.93 318.17z" stroke="none" fill="#000000" fill-rule="evenodd" /><path transform="matrix(1 0 0 -1 0 841)" d="M319.73 209.21L320.21 209.21L320.21 209.21L320.21 318.17L320.21 318.17L319.73 318.17z" stroke="none" fill="#000000" fill-rule="evenodd" /><path transform="matrix(1 0 0 -1 0 841)" d="M510.7 209.21L511.18 209.21L511.18 209.21L511.18 318.17L511.18 318.17L510.7 318.17z" stroke="none" fill="#000000" fill-rule="evenodd" /><g clip-path="url(#130)"><g clip-path="url(#131)"></g><g clip-path="url(#132)"></g></g><g clip-path="url(#133)"><g clip-path="url(#134)"></g><g clip-path="url(#135)"></g></g><g clip-path="url(#136)"><g clip-path="url(#137)"></g><g clip-path="url(#138)"></g></g><g clip-path="url(#139)"><g clip-path="url(#140)"></g><g clip-path="url(#141)"></g></g><g clip-path="url(#142)"><g clip-path="url(#143)"></g><g clip-path="url(#144)"></g><g clip-path="url(#145)"></g></g><path transform="matrix(1 0 0 -1 0 841)" d="M84.264 208.73L84.744 208.73L84.744 208.73L84.744 209.21L84.744 209.21L84.264 209.21z" stroke="none" fill="#000000" fill-rule="evenodd" /><path transform="matrix(1 0 0 -1 0 841)" d="M84.744 208.73L162.384 208.73L162.384 208.73L162.384 209.21L162.384 209.21L84.744 209.21z" stroke="none" fill="#000000" fill-rule="evenodd" /><path transform="matrix(1 0 0 -1 0 841)" d="M162.38 208.73L162.86 208.73L162.86 208.73L162.86 209.21L162.86 209.21L162.38 209.21z" stroke="none" fill="#000000" fill-rule="evenodd" /><path transform="matrix(1 0 0 -1 0 841)" d="M162.86 208.73L211.244 208.73L211.244 208.73L211.244 209.21L211.244 209.21L162.86 209.21z" stroke="none" fill="#000000" fill-rule="evenodd" /><path transform="matrix(1 0 0 -1 0 841)" d="M211.25 208.73L211.73 208.73L211.73 208.73L211.73 209.21L211.73 209.21L211.25 209.21z" stroke="none" fill="#000000" fill-rule="evenodd" /><path transform="matrix(1 0 0 -1 0 841)" d="M211.73 208.73L251.93 208.73L251.93 208.73L251.93 209.21L251.93 209.21L211.73 209.21z" stroke="none" fill="#000000" fill-rule="evenodd" /><path transform="matrix(1 0 0 -1 0 841)" d="M251.93 208.73L252.41 208.73L252.41 208.73L252.41 209.21L252.41 209.21L251.93 209.21z" stroke="none" fill="#000000" fill-rule="evenodd" /><path transform="matrix(1 0 0 -1 0 841)" d="M252.41 208.73L319.73 208.73L319.73 208.73L319.73 209.21L319.73 209.21L252.41 209.21z" stroke="none" fill="#000000" fill-rule="evenodd" /><path transform="matrix(1 0 0 -1 0 841)" d="M319.73 208.73L320.21 208.73L320.21 208.73L320.21 209.21L320.21 209.21L319.73 209.21z" stroke="none" fill="#000000" fill-rule="evenodd" /><path transform="matrix(1 0 0 -1 0 841)" d="M320.21 208.73L510.7 208.73L510.7 208.73L510.7 209.21L510.7 209.21L320.21 209.21z" stroke="none" fill="#000000" fill-rule="evenodd" /><path transform="matrix(1 0 0 -1 0 841)" d="M510.7 208.73L511.18 208.73L511.18 208.73L511.18 209.21L511.18 209.21L510.7 209.21z" stroke="none" fill="#000000" fill-rule="evenodd" /><path transform="matrix(1 0 0 -1 0 841)" d="M84.264 180.98L84.744 180.98L84.744 180.98L84.744 208.724L84.744 208.724L84.264 208.724z" stroke="none" fill="#000000" fill-rule="evenodd" /><path transform="matrix(1 0 0 -1 0 841)" d="M84.264 180.5L84.744 180.5L84.744 180.5L84.744 180.98L84.744 180.98L84.264 180.98z" stroke="none" fill="#000000" fill-rule="evenodd" /><path transform="matrix(1 0 0 -1 0 841)" d="M84.264 180.5L84.744 180.5L84.744 180.5L84.744 180.98L84.744 180.98L84.264 180.98z" stroke="none" fill="#000000" fill-rule="evenodd" /><path transform="matrix(1 0 0 -1 0 841)" d="M84.744 180.5L162.384 180.5L162.384 180.5L162.384 180.98L162.384 180.98L84.744 180.98z" stroke="none" fill="#000000" fill-rule="evenodd" /><path transform="matrix(1 0 0 -1 0 841)" d="M162.38 180.98L162.86 180.98L162.86 180.98L162.86 208.724L162.86 208.724L162.38 208.724z" stroke="none" fill="#000000" fill-rule="evenodd" /><path transform="matrix(1 0 0 -1 0 841)" d="M162.38 180.5L162.86 180.5L162.86 180.5L162.86 180.98L162.86 180.98L162.38 180.98z" stroke="none" fill="#000000" fill-rule="evenodd" /><path transform="matrix(1 0 0 -1 0 841)" d="M162.86 180.5L211.244 180.5L211.244 180.5L211.244 180.98L211.244 180.98L162.86 180.98z" stroke="none" fill="#000000" fill-rule="evenodd" /><path transform="matrix(1 0 0 -1 0 841)" d="M211.25 180.98L211.73 180.98L211.73 180.98L211.73 208.724L211.73 208.724L211.25 208.724z" stroke="none" fill="#000000" fill-rule="evenodd" /><path transform="matrix(1 0 0 -1 0 841)" d="M211.25 180.5L211.73 180.5L211.73 180.5L211.73 180.98L211.73 180.98L211.25 180.98z" stroke="none" fill="#000000" fill-rule="evenodd" /><path transform="matrix(1 0 0 -1 0 841)" d="M211.73 180.5L251.93 180.5L251.93 180.5L251.93 180.98L251.93 180.98L211.73 180.98z" stroke="none" fill="#000000" fill-rule="evenodd" /><path transform="matrix(1 0 0 -1 0 841)" d="M251.93 180.98L252.41 180.98L252.41 180.98L252.41 208.724L252.41 208.724L251.93 208.724z" stroke="none" fill="#000000" fill-rule="evenodd" /><path transform="matrix(1 0 0 -1 0 841)" d="M251.93 180.5L252.41 180.5L252.41 180.5L252.41 180.98L252.41 180.98L251.93 180.98z" stroke="none" fill="#000000" fill-rule="evenodd" /><path transform="matrix(1 0 0 -1 0 841)" d="M252.41 180.5L319.73 180.5L319.73 180.5L319.73 180.98L319.73 180.98L252.41 180.98z" stroke="none" fill="#000000" fill-rule="evenodd" /><path transform="matrix(1 0 0 -1 0 841)" d="M319.73 180.98L320.21 180.98L320.21 180.98L320.21 208.724L320.21 208.724L319.73 208.724z" stroke="none" fill="#000000" fill-rule="evenodd" /><path transform="matrix(1 0 0 -1 0 841)" d="M319.73 180.5L320.21 180.5L320.21 180.5L320.21 180.98L320.21 180.98L319.73 180.98z" stroke="none" fill="#000000" fill-rule="evenodd" /><path transform="matrix(1 0 0 -1 0 841)" d="M320.21 180.5L510.7 180.5L510.7 180.5L510.7 180.98L510.7 180.98L320.21 180.98z" stroke="none" fill="#000000" fill-rule="evenodd" /><path transform="matrix(1 0 0 -1 0 841)" d="M510.7 180.98L511.18 180.98L511.18 180.98L511.18 208.724L511.18 208.724L510.7 208.724z" stroke="none" fill="#000000" fill-rule="evenodd" /><path transform="matrix(1 0 0 -1 0 841)" d="M510.7 180.5L511.18 180.5L511.18 180.5L511.18 180.98L511.18 180.98L510.7 180.98z" stroke="none" fill="#000000" fill-rule="evenodd" /><path transform="matrix(1 0 0 -1 0 841)" d="M510.7 180.5L511.18 180.5L511.18 180.5L511.18 180.98L511.18 180.98L510.7 180.98z" stroke="none" fill="#000000" fill-rule="evenodd" /></g></g></g></svg>