<svg xmlns="http://www.w3.org/2000/svg" xmlns:xlink="http://www.w3.org/1999/xlink" id="body_147" preserveAspectRatio="xMinYMin meet" viewBox="0 0 793 1121"><defs><clipPath id="1"><path d="M0 841L0 -0.9199829L0 -0.9199829L595.32 -0.9199829L595.32 -0.9199829L595.32 841L595.32 841L0 841z" /></clipPath><clipPath id="2"><path d="M0.00125 841.0914L595.4112 841.0914L595.4112 841.0914L595.4112 -0.9186401L595.4112 -0.9186401L0.00125 -0.9186401z" /></clipPath><clipPath id="3"><path d="M288.05 781.211L316.01 781.211L316.01 781.211L316.01 762.011L316.01 762.011L288.05 762.011z" /></clipPath><clipPath id="4"><path d="M288.05 781.216L316.01 781.216L316.01 781.216L316.01 762.016L316.01 762.016L288.05 762.016z" /></clipPath><clipPath id="5"><path d="M288.05 781.216L316.01 781.216L316.01 781.216L316.01 762.016L316.01 762.016L288.05 762.016z" /></clipPath><clipPath id="6"><path d="M84.751 113.59L510.691 113.59L510.691 113.59L510.691 89.44L510.691 89.44L84.751 89.44z" /></clipPath><clipPath id="7"><path d="M84.744 113.58L510.694 113.58L510.694 113.58L510.694 89.43604L510.694 89.43604L84.744 89.43604z" /></clipPath><clipPath id="8"><path d="M84.744 113.58L510.694 113.58L510.694 113.58L510.694 89.43604L510.694 89.43604L84.744 89.43604z" /></clipPath><clipPath id="9"><path d="M84.744 113.58L510.694 113.58L510.694 113.58L510.694 89.43604L510.694 89.43604L84.744 89.43604z" /></clipPath><clipPath id="10"><path d="M84.744 113.58L510.694 113.58L510.694 113.58L510.694 89.43604L510.694 89.43604L84.744 89.43604z" /></clipPath><clipPath id="11"><path d="M84.744 113.58L510.694 113.58L510.694 113.58L510.694 89.43604L510.694 89.43604L84.744 89.43604z" /></clipPath><clipPath id="12"><path d="M84.744 113.58L510.694 113.58L510.694 113.58L510.694 89.43604L510.694 89.43604L84.744 89.43604z" /></clipPath><clipPath id="13"><path d="M84.744 113.58L510.694 113.58L510.694 113.58L510.694 89.43604L510.694 89.43604L84.744 89.43604z" /></clipPath><clipPath id="14"><path d="M84.751 380.85L510.691 380.85L510.691 380.85L510.691 114.07L510.691 114.07L84.751 114.07z" /></clipPath><clipPath id="15"><path d="M84.744 380.85L510.694 380.85L510.694 380.85L510.694 114.07L510.694 114.07L84.744 114.07z" /></clipPath><clipPath id="16"><path d="M84.744 380.85L510.694 380.85L510.694 380.85L510.694 114.07L510.694 114.07L84.744 114.07z" /></clipPath><clipPath id="17"><path d="M84.744 380.85L510.694 380.85L510.694 380.85L510.694 114.07L510.694 114.07L84.744 114.07z" /></clipPath><clipPath id="18"><path d="M84.744 380.85L510.694 380.85L510.694 380.85L510.694 114.07L510.694 114.07L84.744 114.07z" /></clipPath><clipPath id="19"><path d="M84.744 380.85L510.694 380.85L510.694 380.85L510.694 114.07L510.694 114.07L84.744 114.07z" /></clipPath><clipPath id="20"><path d="M84.744 380.85L510.694 380.85L510.694 380.85L510.694 114.07L510.694 114.07L84.744 114.07z" /></clipPath><clipPath id="21"><path d="M84.744 380.85L510.694 380.85L510.694 380.85L510.694 114.07L510.694 114.07L84.744 114.07z" /></clipPath><clipPath id="22"><path d="M84.744 380.85L510.694 380.85L510.694 380.85L510.694 114.07L510.694 114.07L84.744 114.07z" /></clipPath><clipPath id="23"><path d="M84.744 380.85L510.694 380.85L510.694 380.85L510.694 114.07L510.694 114.07L84.744 114.07z" /></clipPath><clipPath id="24"><path d="M84.744 380.85L510.694 380.85L510.694 380.85L510.694 114.07L510.694 114.07L84.744 114.07z" /></clipPath><clipPath id="25"><path d="M84.744 380.85L510.694 380.85L510.694 380.85L510.694 114.07L510.694 114.07L84.744 114.07z" /></clipPath><clipPath id="26"><path d="M84.744 380.85L510.694 380.85L510.694 380.85L510.694 114.07L510.694 114.07L84.744 114.07z" /></clipPath><clipPath id="27"><path d="M84.744 380.85L510.694 380.85L510.694 380.85L510.694 114.07L510.694 114.07L84.744 114.07z" /></clipPath><clipPath id="28"><path d="M84.744 380.85L510.694 380.85L510.694 380.85L510.694 114.07L510.694 114.07L84.744 114.07z" /></clipPath><clipPath id="29"><path d="M84.744 380.85L510.694 380.85L510.694 380.85L510.694 114.07L510.694 114.07L84.744 114.07z" /></clipPath><clipPath id="30"><path d="M84.744 380.85L510.694 380.85L510.694 380.85L510.694 114.07L510.694 114.07L84.744 114.07z" /></clipPath><clipPath id="31"><path d="M84.744 380.85L510.694 380.85L510.694 380.85L510.694 114.07L510.694 114.07L84.744 114.07z" /></clipPath><clipPath id="32"><path d="M84.744 380.85L510.694 380.85L510.694 380.85L510.694 114.07L510.694 114.07L84.744 114.07z" /></clipPath><clipPath id="33"><path d="M84.744 380.85L510.694 380.85L510.694 380.85L510.694 114.07L510.694 114.07L84.744 114.07z" /></clipPath><clipPath id="34"><path d="M84.744 380.85L510.694 380.85L510.694 380.85L510.694 114.07L510.694 114.07L84.744 114.07z" /></clipPath><clipPath id="35"><path d="M84.744 380.85L510.694 380.85L510.694 380.85L510.694 114.07L510.694 114.07L84.744 114.07z" /></clipPath><clipPath id="36"><path d="M84.744 380.85L510.694 380.85L510.694 380.85L510.694 114.07L510.694 114.07L84.744 114.07z" /></clipPath><clipPath id="37"><path d="M84.744 380.85L510.694 380.85L510.694 380.85L510.694 114.07L510.694 114.07L84.744 114.07z" /></clipPath><clipPath id="38"><path d="M84.744 380.85L510.694 380.85L510.694 380.85L510.694 114.07L510.694 114.07L84.744 114.07z" /></clipPath><clipPath id="39"><path d="M84.744 380.85L510.694 380.85L510.694 380.85L510.694 114.07L510.694 114.07L84.744 114.07z" /></clipPath><clipPath id="40"><path d="M84.744 380.85L510.694 380.85L510.694 380.85L510.694 114.07L510.694 114.07L84.744 114.07z" /></clipPath><clipPath id="41"><path d="M84.744 380.85L510.694 380.85L510.694 380.85L510.694 114.07L510.694 114.07L84.744 114.07z" /></clipPath><clipPath id="42"><path d="M84.744 380.85L510.694 380.85L510.694 380.85L510.694 114.07L510.694 114.07L84.744 114.07z" /></clipPath><clipPath id="43"><path d="M84.744 380.85L510.694 380.85L510.694 380.85L510.694 114.07L510.694 114.07L84.744 114.07z" /></clipPath><clipPath id="44"><path d="M84.744 380.85L510.694 380.85L510.694 380.85L510.694 114.07L510.694 114.07L84.744 114.07z" /></clipPath><clipPath id="45"><path d="M84.744 380.85L510.694 380.85L510.694 380.85L510.694 114.07L510.694 114.07L84.744 114.07z" /></clipPath><clipPath id="46"><path d="M84.744 380.85L510.694 380.85L510.694 380.85L510.694 114.07L510.694 114.07L84.744 114.07z" /></clipPath><clipPath id="47"><path d="M84.744 380.85L510.694 380.85L510.694 380.85L510.694 114.07L510.694 114.07L84.744 114.07z" /></clipPath><clipPath id="48"><path d="M84.744 380.85L510.694 380.85L510.694 380.85L510.694 114.07L510.694 114.07L84.744 114.07z" /></clipPath><clipPath id="49"><path d="M84.744 380.85L510.694 380.85L510.694 380.85L510.694 114.07L510.694 114.07L84.744 114.07z" /></clipPath><clipPath id="50"><path d="M84.744 380.85L510.694 380.85L510.694 380.85L510.694 114.07L510.694 114.07L84.744 114.07z" /></clipPath><clipPath id="51"><path d="M84.744 380.85L510.694 380.85L510.694 380.85L510.694 114.07L510.694 114.07L84.744 114.07z" /></clipPath><clipPath id="52"><path d="M84.744 380.85L510.694 380.85L510.694 380.85L510.694 114.07L510.694 114.07L84.744 114.07z" /></clipPath><clipPath id="53"><path d="M84.744 380.85L510.694 380.85L510.694 380.85L510.694 114.07L510.694 114.07L84.744 114.07z" /></clipPath><clipPath id="54"><path d="M84.744 380.85L510.694 380.85L510.694 380.85L510.694 114.07L510.694 114.07L84.744 114.07z" /></clipPath><clipPath id="55"><path d="M84.744 380.85L510.694 380.85L510.694 380.85L510.694 114.07L510.694 114.07L84.744 114.07z" /></clipPath><clipPath id="56"><path d="M84.744 380.85L510.694 380.85L510.694 380.85L510.694 114.07L510.694 114.07L84.744 114.07z" /></clipPath><clipPath id="57"><path d="M84.744 380.85L510.694 380.85L510.694 380.85L510.694 114.07L510.694 114.07L84.744 114.07z" /></clipPath><clipPath id="58"><path d="M84.744 380.85L510.694 380.85L510.694 380.85L510.694 114.07L510.694 114.07L84.744 114.07z" /></clipPath><clipPath id="59"><path d="M84.744 380.85L510.694 380.85L510.694 380.85L510.694 114.07L510.694 114.07L84.744 114.07z" /></clipPath><clipPath id="60"><path d="M84.744 380.85L510.694 380.85L510.694 380.85L510.694 114.07L510.694 114.07L84.744 114.07z" /></clipPath><clipPath id="61"><path d="M84.744 380.85L510.694 380.85L510.694 380.85L510.694 114.07L510.694 114.07L84.744 114.07z" /></clipPath><clipPath id="62"><path d="M84.744 380.85L510.694 380.85L510.694 380.85L510.694 114.07L510.694 114.07L84.744 114.07z" /></clipPath><clipPath id="63"><path d="M84.744 380.85L510.694 380.85L510.694 380.85L510.694 114.07L510.694 114.07L84.744 114.07z" /></clipPath><clipPath id="64"><path d="M84.744 380.85L510.694 380.85L510.694 380.85L510.694 114.07L510.694 114.07L84.744 114.07z" /></clipPath><clipPath id="65"><path d="M84.744 380.85L510.694 380.85L510.694 380.85L510.694 114.07L510.694 114.07L84.744 114.07z" /></clipPath><clipPath id="66"><path d="M84.744 380.85L510.694 380.85L510.694 380.85L510.694 114.07L510.694 114.07L84.744 114.07z" /></clipPath><clipPath id="67"><path d="M84.744 380.85L510.694 380.85L510.694 380.85L510.694 114.07L510.694 114.07L84.744 114.07z" /></clipPath><clipPath id="68"><path d="M84.744 380.85L510.694 380.85L510.694 380.85L510.694 114.07L510.694 114.07L84.744 114.07z" /></clipPath><clipPath id="69"><path d="M84.744 380.85L510.694 380.85L510.694 380.85L510.694 114.07L510.694 114.07L84.744 114.07z" /></clipPath><clipPath id="70"><path d="M84.744 380.85L510.694 380.85L510.694 380.85L510.694 114.07L510.694 114.07L84.744 114.07z" /></clipPath><clipPath id="71"><path d="M84.744 380.85L510.694 380.85L510.694 380.85L510.694 114.07L510.694 114.07L84.744 114.07z" /></clipPath><clipPath id="72"><path d="M84.744 380.85L510.694 380.85L510.694 380.85L510.694 114.07L510.694 114.07L84.744 114.07z" /></clipPath><clipPath id="73"><path d="M84.744 380.85L510.694 380.85L510.694 380.85L510.694 114.07L510.694 114.07L84.744 114.07z" /></clipPath><clipPath id="74"><path d="M84.744 380.85L510.694 380.85L510.694 380.85L510.694 114.07L510.694 114.07L84.744 114.07z" /></clipPath><clipPath id="75"><path d="M84.744 380.85L510.694 380.85L510.694 380.85L510.694 114.07L510.694 114.07L84.744 114.07z" /></clipPath><clipPath id="76"><path d="M84.744 380.85L510.694 380.85L510.694 380.85L510.694 114.07L510.694 114.07L84.744 114.07z" /></clipPath><clipPath id="77"><path d="M84.751 425.01L499.411 425.01L499.411 425.01L499.411 400.89L499.411 400.89L84.751 400.89z" /></clipPath><clipPath id="78"><path d="M84.744 425.01L499.414 425.01L499.414 425.01L499.414 400.89L499.414 400.89L84.744 400.89z" /></clipPath><clipPath id="79"><path d="M84.744 425.01L499.414 425.01L499.414 425.01L499.414 400.89L499.414 400.89L84.744 400.89z" /></clipPath><clipPath id="80"><path d="M84.744 425.01L499.414 425.01L499.414 425.01L499.414 400.89L499.414 400.89L84.744 400.89z" /></clipPath><clipPath id="81"><path d="M84.744 425.01L499.414 425.01L499.414 425.01L499.414 400.89L499.414 400.89L84.744 400.89z" /></clipPath><clipPath id="82"><path d="M84.744 425.01L499.414 425.01L499.414 425.01L499.414 400.89L499.414 400.89L84.744 400.89z" /></clipPath><clipPath id="83"><path d="M84.751 539.88L499.411 539.88L499.411 539.88L499.411 425.49L499.411 425.49L84.751 425.49z" /></clipPath><clipPath id="84"><path d="M84.744 539.87L499.414 539.87L499.414 539.87L499.414 425.49L499.414 425.49L84.744 425.49z" /></clipPath><clipPath id="85"><path d="M84.744 539.87L499.414 539.87L499.414 539.87L499.414 425.49L499.414 425.49L84.744 425.49z" /></clipPath><clipPath id="86"><path d="M84.744 539.87L499.414 539.87L499.414 539.87L499.414 425.49L499.414 425.49L84.744 425.49z" /></clipPath><clipPath id="87"><path d="M84.744 539.87L499.414 539.87L499.414 539.87L499.414 425.49L499.414 425.49L84.744 425.49z" /></clipPath><clipPath id="88"><path d="M84.744 539.87L499.414 539.87L499.414 539.87L499.414 425.49L499.414 425.49L84.744 425.49z" /></clipPath><clipPath id="89"><path d="M84.744 539.87L499.414 539.87L499.414 539.87L499.414 425.49L499.414 425.49L84.744 425.49z" /></clipPath><clipPath id="90"><path d="M84.744 539.87L499.414 539.87L499.414 539.87L499.414 425.49L499.414 425.49L84.744 425.49z" /></clipPath><clipPath id="91"><path d="M84.744 539.87L499.414 539.87L499.414 539.87L499.414 425.49L499.414 425.49L84.744 425.49z" /></clipPath><clipPath id="92"><path d="M84.744 539.87L499.414 539.87L499.414 539.87L499.414 425.49L499.414 425.49L84.744 425.49z" /></clipPath><clipPath id="93"><path d="M84.744 539.87L499.414 539.87L499.414 539.87L499.414 425.49L499.414 425.49L84.744 425.49z" /></clipPath><clipPath id="94"><path d="M84.744 539.87L499.414 539.87L499.414 539.87L499.414 425.49L499.414 425.49L84.744 425.49z" /></clipPath><clipPath id="95"><path d="M84.744 539.87L499.414 539.87L499.414 539.87L499.414 425.49L499.414 425.49L84.744 425.49z" /></clipPath><clipPath id="96"><path d="M84.744 539.87L499.414 539.87L499.414 539.87L499.414 425.49L499.414 425.49L84.744 425.49z" /></clipPath><clipPath id="97"><path d="M84.744 539.87L499.414 539.87L499.414 539.87L499.414 425.49L499.414 425.49L84.744 425.49z" /></clipPath><clipPath id="98"><path d="M84.744 539.87L499.414 539.87L499.414 539.87L499.414 425.49L499.414 425.49L84.744 425.49z" /></clipPath><clipPath id="99"><path d="M84.744 539.87L499.414 539.87L499.414 539.87L499.414 425.49L499.414 425.49L84.744 425.49z" /></clipPath><clipPath id="100"><path d="M84.744 539.87L499.414 539.87L499.414 539.87L499.414 425.49L499.414 425.49L84.744 425.49z" /></clipPath><clipPath id="101"><path d="M84.744 539.87L499.414 539.87L499.414 539.87L499.414 425.49L499.414 425.49L84.744 425.49z" /></clipPath><clipPath id="102"><path d="M84.744 539.87L499.414 539.87L499.414 539.87L499.414 425.49L499.414 425.49L84.744 425.49z" /></clipPath><clipPath id="103"><path d="M84.744 539.87L499.414 539.87L499.414 539.87L499.414 425.49L499.414 425.49L84.744 425.49z" /></clipPath><clipPath id="104"><path d="M84.744 539.87L499.414 539.87L499.414 539.87L499.414 425.49L499.414 425.49L84.744 425.49z" /></clipPath><clipPath id="105"><path d="M84.744 539.87L499.414 539.87L499.414 539.87L499.414 425.49L499.414 425.49L84.744 425.49z" /></clipPath><clipPath id="106"><path d="M84.744 539.87L499.414 539.87L499.414 539.87L499.414 425.49L499.414 425.49L84.744 425.49z" /></clipPath><clipPath id="107"><path d="M84.751 580.68L510.691 580.68L510.691 580.68L510.691 559.92L510.691 559.92L84.751 559.92z" /></clipPath><clipPath id="108"><path d="M84.744 580.67L510.694 580.67L510.694 580.67L510.694 559.91L510.694 559.91L84.744 559.91z" /></clipPath><clipPath id="109"><path d="M84.744 580.67L510.694 580.67L510.694 580.67L510.694 559.91L510.694 559.91L84.744 559.91z" /></clipPath><clipPath id="110"><path d="M84.744 580.67L510.694 580.67L510.694 580.67L510.694 559.91L510.694 559.91L84.744 559.91z" /></clipPath><clipPath id="111"><path d="M84.744 580.67L510.694 580.67L510.694 580.67L510.694 559.91L510.694 559.91L84.744 559.91z" /></clipPath><clipPath id="112"><path d="M84.744 580.67L510.694 580.67L510.694 580.67L510.694 559.91L510.694 559.91L84.744 559.91z" /></clipPath><clipPath id="113"><path d="M84.744 580.67L510.694 580.67L510.694 580.67L510.694 559.91L510.694 559.91L84.744 559.91z" /></clipPath><clipPath id="114"><path d="M84.744 580.67L510.694 580.67L510.694 580.67L510.694 559.91L510.694 559.91L84.744 559.91z" /></clipPath><clipPath id="115"><path d="M84.744 580.67L510.694 580.67L510.694 580.67L510.694 559.91L510.694 559.91L84.744 559.91z" /></clipPath><clipPath id="116"><path d="M84.751 733.57L510.691 733.57L510.691 733.57L510.691 581.15L510.691 581.15L84.751 581.15z" /></clipPath><clipPath id="117"><path d="M84.744 733.58L510.694 733.58L510.694 733.58L510.694 581.16L510.694 581.16L84.744 581.16z" /></clipPath><clipPath id="118"><path d="M84.744 733.58L510.694 733.58L510.694 733.58L510.694 581.16L510.694 581.16L84.744 581.16z" /></clipPath><clipPath id="119"><path d="M84.744 733.58L510.694 733.58L510.694 733.58L510.694 581.16L510.694 581.16L84.744 581.16z" /></clipPath><clipPath id="120"><path d="M84.744 733.58L510.694 733.58L510.694 733.58L510.694 581.16L510.694 581.16L84.744 581.16z" /></clipPath><clipPath id="121"><path d="M84.744 733.58L510.694 733.58L510.694 733.58L510.694 581.16L510.694 581.16L84.744 581.16z" /></clipPath><clipPath id="122"><path d="M84.744 733.58L510.694 733.58L510.694 733.58L510.694 581.16L510.694 581.16L84.744 581.16z" /></clipPath><clipPath id="123"><path d="M84.744 733.58L510.694 733.58L510.694 733.58L510.694 581.16L510.694 581.16L84.744 581.16z" /></clipPath><clipPath id="124"><path d="M84.744 733.58L510.694 733.58L510.694 733.58L510.694 581.16L510.694 581.16L84.744 581.16z" /></clipPath><clipPath id="125"><path d="M84.744 733.58L510.694 733.58L510.694 733.58L510.694 581.16L510.694 581.16L84.744 581.16z" /></clipPath><clipPath id="126"><path d="M84.744 733.58L510.694 733.58L510.694 733.58L510.694 581.16L510.694 581.16L84.744 581.16z" /></clipPath><clipPath id="127"><path d="M84.744 733.58L510.694 733.58L510.694 733.58L510.694 581.16L510.694 581.16L84.744 581.16z" /></clipPath><clipPath id="128"><path d="M84.744 733.58L510.694 733.58L510.694 733.58L510.694 581.16L510.694 581.16L84.744 581.16z" /></clipPath><clipPath id="129"><path d="M84.744 733.58L510.694 733.58L510.694 733.58L510.694 581.16L510.694 581.16L84.744 581.16z" /></clipPath><clipPath id="130"><path d="M84.744 733.58L510.694 733.58L510.694 733.58L510.694 581.16L510.694 581.16L84.744 581.16z" /></clipPath><clipPath id="131"><path d="M84.744 733.58L510.694 733.58L510.694 733.58L510.694 581.16L510.694 581.16L84.744 581.16z" /></clipPath><clipPath id="132"><path d="M84.744 733.58L510.694 733.58L510.694 733.58L510.694 581.16L510.694 581.16L84.744 581.16z" /></clipPath><clipPath id="133"><path d="M84.744 733.58L510.694 733.58L510.694 733.58L510.694 581.16L510.694 581.16L84.744 581.16z" /></clipPath><clipPath id="134"><path d="M84.744 733.58L510.694 733.58L510.694 733.58L510.694 581.16L510.694 581.16L84.744 581.16z" /></clipPath><clipPath id="135"><path d="M84.744 733.58L510.694 733.58L510.694 733.58L510.694 581.16L510.694 581.16L84.744 581.16z" /></clipPath><clipPath id="136"><path d="M84.744 733.58L510.694 733.58L510.694 733.58L510.694 581.16L510.694 581.16L84.744 581.16z" /></clipPath><clipPath id="137"><path d="M84.744 733.58L510.694 733.58L510.694 733.58L510.694 581.16L510.694 581.16L84.744 581.16z" /></clipPath><clipPath id="138"><path d="M84.744 733.58L510.694 733.58L510.694 733.58L510.694 581.16L510.694 581.16L84.744 581.16z" /></clipPath><clipPath id="139"><path d="M84.744 733.58L510.694 733.58L510.694 733.58L510.694 581.16L510.694 581.16L84.744 581.16z" /></clipPath><clipPath id="140"><path d="M84.744 733.58L510.694 733.58L510.694 733.58L510.694 581.16L510.694 581.16L84.744 581.16z" /></clipPath><clipPath id="141"><path d="M84.744 733.58L510.694 733.58L510.694 733.58L510.694 581.16L510.694 581.16L84.744 581.16z" /></clipPath><clipPath id="142"><path d="M84.744 733.58L510.694 733.58L510.694 733.58L510.694 581.16L510.694 581.16L84.744 581.16z" /></clipPath><clipPath id="143"><path d="M84.744 733.58L510.694 733.58L510.694 733.58L510.694 581.16L510.694 581.16L84.744 581.16z" /></clipPath><clipPath id="144"><path d="M84.744 733.58L510.694 733.58L510.694 733.58L510.694 581.16L510.694 581.16L84.744 581.16z" /></clipPath><clipPath id="145"><path d="M84.744 733.58L510.694 733.58L510.694 733.58L510.694 581.16L510.694 581.16L84.744 581.16z" /></clipPath></defs><g transform="matrix(1.333333 0 0 1.333333 0 0)"><g><g clip-path="url(#1)"><path transform="matrix(1 0 0 -1 0 841)" d="M457.51 53.304L505.534 53.304L505.534 53.304L505.534 53.90404L505.534 53.90404L457.51 53.90404z" stroke="none" fill="#000000" fill-rule="evenodd" /><g clip-path="url(#2)"><path transform="matrix(1 0 0 -1 0 841)" d="M88.464 77.904L506.974 77.904L506.974 77.904L506.974 80.904L506.974 80.904L88.464 80.904z" stroke="none" fill="#000000" fill-rule="evenodd" /><path transform="matrix(1 0 0 -1 0 841)" d="M88.464 76.464L506.974 76.464L506.974 76.464L506.974 77.18397L506.974 77.18397L88.464 77.18397z" stroke="none" fill="#000000" fill-rule="evenodd" /></g><g clip-path="url(#3)"><g clip-path="url(#4)"></g><g clip-path="url(#5)"></g></g><path transform="matrix(1 0 0 -1 0 841)" d="M84.744 727.42L510.694 727.42L510.694 727.42L510.694 751.564L510.694 751.564L84.744 751.564z" stroke="none" fill="#0070C0" fill-rule="evenodd" /><g clip-path="url(#6)"><path transform="matrix(1 0 0 -1 0 841)" d="M89.904 727.42L505.534 727.42L505.534 727.42L505.534 751.564L505.534 751.564L89.904 751.564z" stroke="none" fill="#0070C0" fill-rule="evenodd" /><g clip-path="url(#7)"></g><g clip-path="url(#8)"></g><g clip-path="url(#9)"></g><g clip-path="url(#10)"></g><g clip-path="url(#11)"></g><g clip-path="url(#12)"></g><g clip-path="url(#13)"></g></g><path transform="matrix(1 0 0 -1 0 841)" d="M84.264 751.56L84.744 751.56L84.744 751.56L84.744 752.04L84.744 752.04L84.264 752.04z" stroke="none" fill="#000000" fill-rule="evenodd" /><path transform="matrix(1 0 0 -1 0 841)" d="M84.264 751.56L84.744 751.56L84.744 751.56L84.744 752.04L84.744 752.04L84.264 752.04z" stroke="none" fill="#000000" fill-rule="evenodd" /><path transform="matrix(1 0 0 -1 0 841)" d="M84.744 751.56L510.694 751.56L510.694 751.56L510.694 752.04L510.694 752.04L84.744 752.04z" stroke="none" fill="#000000" fill-rule="evenodd" /><path transform="matrix(1 0 0 -1 0 841)" d="M510.7 751.56L511.18 751.56L511.18 751.56L511.18 752.04L511.18 752.04L510.7 752.04z" stroke="none" fill="#000000" fill-rule="evenodd" /><path transform="matrix(1 0 0 -1 0 841)" d="M510.7 751.56L511.18 751.56L511.18 751.56L511.18 752.04L511.18 752.04L510.7 752.04z" stroke="none" fill="#000000" fill-rule="evenodd" /><path transform="matrix(1 0 0 -1 0 841)" d="M84.264 727.42L84.744 727.42L84.744 727.42L84.744 751.564L84.744 751.564L84.264 751.564z" stroke="none" fill="#000000" fill-rule="evenodd" /><path transform="matrix(1 0 0 -1 0 841)" d="M510.7 727.42L511.18 727.42L511.18 727.42L511.18 751.564L511.18 751.564L510.7 751.564z" stroke="none" fill="#000000" fill-rule="evenodd" /><path transform="matrix(1 0 0 -1 0 841)" d="M84.744 460.15L510.694 460.15L510.694 460.15L510.694 726.93L510.694 726.93L84.744 726.93z" stroke="none" fill="#DAEEF3" fill-rule="evenodd" /><g clip-path="url(#14)"><path transform="matrix(1 0 0 -1 0 841)" d="M89.904 707.86L505.534 707.86L505.534 707.86L505.534 726.94L505.534 726.94L89.904 726.94z" stroke="none" fill="#DAEEF3" fill-rule="evenodd" /><g clip-path="url(#15)"></g><g clip-path="url(#16)"></g><g clip-path="url(#17)"></g><g clip-path="url(#18)"></g><path transform="matrix(1 0 0 -1 0 841)" d="M89.904 688.78L505.534 688.78L505.534 688.78L505.534 707.86L505.534 707.86L89.904 707.86z" stroke="none" fill="#DAEEF3" fill-rule="evenodd" /><g clip-path="url(#19)"></g><g clip-path="url(#20)"></g><g clip-path="url(#21)"></g><g clip-path="url(#22)"></g><path transform="matrix(1 0 0 -1 0 841)" d="M89.904 669.7L505.534 669.7L505.534 669.7L505.534 688.78L505.534 688.78L89.904 688.78z" stroke="none" fill="#DAEEF3" fill-rule="evenodd" /><g clip-path="url(#23)"></g><g clip-path="url(#24)"></g><g clip-path="url(#25)"></g><g clip-path="url(#26)"></g><path transform="matrix(1 0 0 -1 0 841)" d="M89.904 650.74L505.534 650.74L505.534 650.74L505.534 669.7L505.534 669.7L89.904 669.7z" stroke="none" fill="#DAEEF3" fill-rule="evenodd" /><g clip-path="url(#27)"></g><g clip-path="url(#28)"></g><g clip-path="url(#29)"></g><g clip-path="url(#30)"></g><path transform="matrix(1 0 0 -1 0 841)" d="M89.904 631.66L505.534 631.66L505.534 631.66L505.534 650.74L505.534 650.74L89.904 650.74z" stroke="none" fill="#DAEEF3" fill-rule="evenodd" /><g clip-path="url(#31)"></g><g clip-path="url(#32)"></g><g clip-path="url(#33)"></g><g clip-path="url(#34)"></g><g clip-path="url(#35)"></g><g clip-path="url(#36)"></g><path transform="matrix(1 0 0 -1 0 841)" d="M89.904 612.58L505.534 612.58L505.534 612.58L505.534 631.66L505.534 631.66L89.904 631.66z" stroke="none" fill="#DAEEF3" fill-rule="evenodd" /><g clip-path="url(#37)"></g><g clip-path="url(#38)"></g><g clip-path="url(#39)"></g><g clip-path="url(#40)"></g><path transform="matrix(1 0 0 -1 0 841)" d="M89.904 593.5L505.534 593.5L505.534 593.5L505.534 612.58L505.534 612.58L89.904 612.58z" stroke="none" fill="#DAEEF3" fill-rule="evenodd" /><g clip-path="url(#41)"></g><g clip-path="url(#42)"></g><g clip-path="url(#43)"></g><g clip-path="url(#44)"></g><path transform="matrix(1 0 0 -1 0 841)" d="M89.904 574.54L505.534 574.54L505.534 574.54L505.534 593.5L505.534 593.5L89.904 593.5z" stroke="none" fill="#DAEEF3" fill-rule="evenodd" /><g clip-path="url(#45)"></g><g clip-path="url(#46)"></g><g clip-path="url(#47)"></g><g clip-path="url(#48)"></g><path transform="matrix(1 0 0 -1 0 841)" d="M89.904 555.43L505.534 555.43L505.534 555.43L505.534 574.534L505.534 574.534L89.904 574.534z" stroke="none" fill="#DAEEF3" fill-rule="evenodd" /><g clip-path="url(#49)"></g><g clip-path="url(#50)"></g><g clip-path="url(#51)"></g><path transform="matrix(1 0 0 -1 0 841)" d="M89.904 536.35L505.534 536.35L505.534 536.35L505.534 555.43L505.534 555.43L89.904 555.43z" stroke="none" fill="#DAEEF3" fill-rule="evenodd" /><g clip-path="url(#52)"></g><g clip-path="url(#53)"></g><g clip-path="url(#54)"></g><g clip-path="url(#55)"></g><g clip-path="url(#56)"></g><path transform="matrix(1 0 0 -1 0 841)" d="M89.904 517.27L505.534 517.27L505.534 517.27L505.534 536.35L505.534 536.35L89.904 536.35z" stroke="none" fill="#DAEEF3" fill-rule="evenodd" /><g clip-path="url(#57)"></g><g clip-path="url(#58)"></g><g clip-path="url(#59)"></g><path transform="matrix(1 0 0 -1 0 841)" d="M89.904 498.31L505.534 498.31L505.534 498.31L505.534 517.27L505.534 517.27L89.904 517.27z" stroke="none" fill="#DAEEF3" fill-rule="evenodd" /><g clip-path="url(#60)"></g><g clip-path="url(#61)"></g><g clip-path="url(#62)"></g><g clip-path="url(#63)"></g><g clip-path="url(#64)"></g><g clip-path="url(#65)"></g><path transform="matrix(1 0 0 -1 0 841)" d="M89.904 479.23L505.534 479.23L505.534 479.23L505.534 498.31L505.534 498.31L89.904 498.31z" stroke="none" fill="#DAEEF3" fill-rule="evenodd" /><g clip-path="url(#66)"></g><g clip-path="url(#67)"></g><g clip-path="url(#68)"></g><g clip-path="url(#69)"></g><path transform="matrix(1 0 0 -1 0 841)" d="M89.904 460.15L505.534 460.15L505.534 460.15L505.534 479.23L505.534 479.23L89.904 479.23z" stroke="none" fill="#DAEEF3" fill-rule="evenodd" /><g clip-path="url(#70)"></g><g clip-path="url(#71)"></g><g clip-path="url(#72)"></g><g clip-path="url(#73)"></g><g clip-path="url(#74)"></g><g clip-path="url(#75)"></g><g clip-path="url(#76)"></g></g><path transform="matrix(1 0 0 -1 0 841)" d="M84.264 726.94L84.744 726.94L84.744 726.94L84.744 727.42L84.744 727.42L84.264 727.42z" stroke="none" fill="#000000" fill-rule="evenodd" /><path transform="matrix(1 0 0 -1 0 841)" d="M84.744 726.94L510.694 726.94L510.694 726.94L510.694 727.42L510.694 727.42L84.744 727.42z" stroke="none" fill="#000000" fill-rule="evenodd" /><path transform="matrix(1 0 0 -1 0 841)" d="M510.7 726.94L511.18 726.94L511.18 726.94L511.18 727.42L511.18 727.42L510.7 727.42z" stroke="none" fill="#000000" fill-rule="evenodd" /><path transform="matrix(1 0 0 -1 0 841)" d="M84.264 460.15L84.744 460.15L84.744 460.15L84.744 726.93L84.744 726.93L84.264 726.93z" stroke="none" fill="#000000" fill-rule="evenodd" /><path transform="matrix(1 0 0 -1 0 841)" d="M84.264 459.67L84.744 459.67L84.744 459.67L84.744 460.15L84.744 460.15L84.264 460.15z" stroke="none" fill="#000000" fill-rule="evenodd" /><path transform="matrix(1 0 0 -1 0 841)" d="M84.264 459.67L84.744 459.67L84.744 459.67L84.744 460.15L84.744 460.15L84.264 460.15z" stroke="none" fill="#000000" fill-rule="evenodd" /><path transform="matrix(1 0 0 -1 0 841)" d="M84.744 459.67L510.694 459.67L510.694 459.67L510.694 460.15L510.694 460.15L84.744 460.15z" stroke="none" fill="#000000" fill-rule="evenodd" /><path transform="matrix(1 0 0 -1 0 841)" d="M510.7 460.15L511.18 460.15L511.18 460.15L511.18 726.93L511.18 726.93L510.7 726.93z" stroke="none" fill="#000000" fill-rule="evenodd" /><path transform="matrix(1 0 0 -1 0 841)" d="M510.7 459.67L511.18 459.67L511.18 459.67L511.18 460.15L511.18 460.15L510.7 460.15z" stroke="none" fill="#000000" fill-rule="evenodd" /><path transform="matrix(1 0 0 -1 0 841)" d="M510.7 459.67L511.18 459.67L511.18 459.67L511.18 460.15L511.18 460.15L510.7 460.15z" stroke="none" fill="#000000" fill-rule="evenodd" /><path transform="matrix(1 0 0 -1 0 841)" d="M84.744 415.99L499.414 415.99L499.414 415.99L499.414 440.11L499.414 440.11L84.744 440.11z" stroke="none" fill="#0070C0" fill-rule="evenodd" /><g clip-path="url(#77)"><path transform="matrix(1 0 0 -1 0 841)" d="M89.904 415.99L494.254 415.99L494.254 415.99L494.254 440.11L494.254 440.11L89.904 440.11z" stroke="none" fill="#0070C0" fill-rule="evenodd" /><g clip-path="url(#78)"></g><g clip-path="url(#79)"></g><g clip-path="url(#80)"></g><g clip-path="url(#81)"></g><g clip-path="url(#82)"></g></g><path transform="matrix(1 0 0 -1 0 841)" d="M84.264 440.11L84.744 440.11L84.744 440.11L84.744 440.59L84.744 440.59L84.264 440.59z" stroke="none" fill="#000000" fill-rule="evenodd" /><path transform="matrix(1 0 0 -1 0 841)" d="M84.264 440.11L84.744 440.11L84.744 440.11L84.744 440.59L84.744 440.59L84.264 440.59z" stroke="none" fill="#000000" fill-rule="evenodd" /><path transform="matrix(1 0 0 -1 0 841)" d="M84.744 440.11L499.414 440.11L499.414 440.11L499.414 440.59L499.414 440.59L84.744 440.59z" stroke="none" fill="#000000" fill-rule="evenodd" /><path transform="matrix(1 0 0 -1 0 841)" d="M499.42 440.11L499.9 440.11L499.9 440.11L499.9 440.59L499.9 440.59L499.42 440.59z" stroke="none" fill="#000000" fill-rule="evenodd" /><path transform="matrix(1 0 0 -1 0 841)" d="M499.42 440.11L499.9 440.11L499.9 440.11L499.9 440.59L499.9 440.59L499.42 440.59z" stroke="none" fill="#000000" fill-rule="evenodd" /><path transform="matrix(1 0 0 -1 0 841)" d="M84.264 415.99L84.744 415.99L84.744 415.99L84.744 440.11L84.744 440.11L84.264 440.11z" stroke="none" fill="#000000" fill-rule="evenodd" /><path transform="matrix(1 0 0 -1 0 841)" d="M499.42 415.99L499.9 415.99L499.9 415.99L499.9 440.11L499.9 440.11L499.42 440.11z" stroke="none" fill="#000000" fill-rule="evenodd" /><path transform="matrix(1 0 0 -1 0 841)" d="M84.744 301.13L499.414 301.13L499.414 301.13L499.414 415.51L499.414 415.51L84.744 415.51z" stroke="none" fill="#DAEEF3" fill-rule="evenodd" /><g clip-path="url(#83)"><path transform="matrix(1 0 0 -1 0 841)" d="M89.904 396.43L494.254 396.43L494.254 396.43L494.254 415.51L494.254 415.51L89.904 415.51z" stroke="none" fill="#DAEEF3" fill-rule="evenodd" /><g clip-path="url(#84)"></g><g clip-path="url(#85)"></g><g clip-path="url(#86)"></g><g clip-path="url(#87)"></g><path transform="matrix(1 0 0 -1 0 841)" d="M89.904 377.35L494.254 377.35L494.254 377.35L494.254 396.43L494.254 396.43L89.904 396.43z" stroke="none" fill="#DAEEF3" fill-rule="evenodd" /><g clip-path="url(#88)"></g><g clip-path="url(#89)"></g><g clip-path="url(#90)"></g><g clip-path="url(#91)"></g><path transform="matrix(1 0 0 -1 0 841)" d="M89.904 358.25L494.254 358.25L494.254 358.25L494.254 377.354L494.254 377.354L89.904 377.354z" stroke="none" fill="#DAEEF3" fill-rule="evenodd" /><g clip-path="url(#92)"></g><g clip-path="url(#93)"></g><g clip-path="url(#94)"></g><g clip-path="url(#95)"></g><path transform="matrix(1 0 0 -1 0 841)" d="M89.904 339.29L494.254 339.29L494.254 339.29L494.254 358.25L494.254 358.25L89.904 358.25z" stroke="none" fill="#DAEEF3" fill-rule="evenodd" /><g clip-path="url(#96)"></g><g clip-path="url(#97)"></g><g clip-path="url(#98)"></g><path transform="matrix(1 0 0 -1 0 841)" d="M89.904 320.21L494.254 320.21L494.254 320.21L494.254 339.29L494.254 339.29L89.904 339.29z" stroke="none" fill="#DAEEF3" fill-rule="evenodd" /><g clip-path="url(#99)"></g><g clip-path="url(#100)"></g><g clip-path="url(#101)"></g><g clip-path="url(#102)"></g><path transform="matrix(1 0 0 -1 0 841)" d="M89.904 301.13L494.254 301.13L494.254 301.13L494.254 320.21L494.254 320.21L89.904 320.21z" stroke="none" fill="#DAEEF3" fill-rule="evenodd" /><g clip-path="url(#103)"></g><g clip-path="url(#104)"></g><g clip-path="url(#105)"></g><g clip-path="url(#106)"></g></g><path transform="matrix(1 0 0 -1 0 841)" d="M84.264 415.51L84.744 415.51L84.744 415.51L84.744 415.99L84.744 415.99L84.264 415.99z" stroke="none" fill="#000000" fill-rule="evenodd" /><path transform="matrix(1 0 0 -1 0 841)" d="M84.744 415.51L499.414 415.51L499.414 415.51L499.414 415.99L499.414 415.99L84.744 415.99z" stroke="none" fill="#000000" fill-rule="evenodd" /><path transform="matrix(1 0 0 -1 0 841)" d="M499.42 415.51L499.9 415.51L499.9 415.51L499.9 415.99L499.9 415.99L499.42 415.99z" stroke="none" fill="#000000" fill-rule="evenodd" /><path transform="matrix(1 0 0 -1 0 841)" d="M84.264 301.13L84.744 301.13L84.744 301.13L84.744 415.51L84.744 415.51L84.264 415.51z" stroke="none" fill="#000000" fill-rule="evenodd" /><path transform="matrix(1 0 0 -1 0 841)" d="M84.264 300.65L84.744 300.65L84.744 300.65L84.744 301.13L84.744 301.13L84.264 301.13z" stroke="none" fill="#000000" fill-rule="evenodd" /><path transform="matrix(1 0 0 -1 0 841)" d="M84.264 300.65L84.744 300.65L84.744 300.65L84.744 301.13L84.744 301.13L84.264 301.13z" stroke="none" fill="#000000" fill-rule="evenodd" /><path transform="matrix(1 0 0 -1 0 841)" d="M84.744 300.65L499.414 300.65L499.414 300.65L499.414 301.13L499.414 301.13L84.744 301.13z" stroke="none" fill="#000000" fill-rule="evenodd" /><path transform="matrix(1 0 0 -1 0 841)" d="M499.42 301.13L499.9 301.13L499.9 301.13L499.9 415.51L499.9 415.51L499.42 415.51z" stroke="none" fill="#000000" fill-rule="evenodd" /><path transform="matrix(1 0 0 -1 0 841)" d="M499.42 300.65L499.9 300.65L499.9 300.65L499.9 301.13L499.9 301.13L499.42 301.13z" stroke="none" fill="#000000" fill-rule="evenodd" /><path transform="matrix(1 0 0 -1 0 841)" d="M499.42 300.65L499.9 300.65L499.9 300.65L499.9 301.13L499.9 301.13L499.42 301.13z" stroke="none" fill="#000000" fill-rule="evenodd" /><path transform="matrix(1 0 0 -1 0 841)" d="M84.744 260.33L510.694 260.33L510.694 260.33L510.694 281.09L510.694 281.09L84.744 281.09z" stroke="none" fill="#0070C0" fill-rule="evenodd" /><g clip-path="url(#107)"><path transform="matrix(1 0 0 -1 0 841)" d="M89.904 262.01L505.534 262.01L505.534 262.01L505.534 281.09L505.534 281.09L89.904 281.09z" stroke="none" fill="#0070C0" fill-rule="evenodd" /><g clip-path="url(#108)"></g><g clip-path="url(#109)"></g><g clip-path="url(#110)"></g><g clip-path="url(#111)"></g><g clip-path="url(#112)"></g><g clip-path="url(#113)"></g><g clip-path="url(#114)"></g><g clip-path="url(#115)"></g></g><path transform="matrix(1 0 0 -1 0 841)" d="M84.264 281.09L84.744 281.09L84.744 281.09L84.744 281.57L84.744 281.57L84.264 281.57z" stroke="none" fill="#000000" fill-rule="evenodd" /><path transform="matrix(1 0 0 -1 0 841)" d="M84.264 281.09L84.744 281.09L84.744 281.09L84.744 281.57L84.744 281.57L84.264 281.57z" stroke="none" fill="#000000" fill-rule="evenodd" /><path transform="matrix(1 0 0 -1 0 841)" d="M84.744 281.09L510.694 281.09L510.694 281.09L510.694 281.57L510.694 281.57L84.744 281.57z" stroke="none" fill="#000000" fill-rule="evenodd" /><path transform="matrix(1 0 0 -1 0 841)" d="M510.7 281.09L511.18 281.09L511.18 281.09L511.18 281.57L511.18 281.57L510.7 281.57z" stroke="none" fill="#000000" fill-rule="evenodd" /><path transform="matrix(1 0 0 -1 0 841)" d="M510.7 281.09L511.18 281.09L511.18 281.09L511.18 281.57L511.18 281.57L510.7 281.57z" stroke="none" fill="#000000" fill-rule="evenodd" /><path transform="matrix(1 0 0 -1 0 841)" d="M84.264 260.33L84.744 260.33L84.744 260.33L84.744 281.09L84.744 281.09L84.264 281.09z" stroke="none" fill="#000000" fill-rule="evenodd" /><path transform="matrix(1 0 0 -1 0 841)" d="M510.7 260.33L511.18 260.33L511.18 260.33L511.18 281.09L511.18 281.09L510.7 281.09z" stroke="none" fill="#000000" fill-rule="evenodd" /><path transform="matrix(1 0 0 -1 0 841)" d="M84.744 107.42L510.694 107.42L510.694 107.42L510.694 259.84L510.694 259.84L84.744 259.84z" stroke="none" fill="#DAEEF3" fill-rule="evenodd" /><g clip-path="url(#116)"><path transform="matrix(1 0 0 -1 0 841)" d="M89.904 240.77L505.534 240.77L505.534 240.77L505.534 259.85L505.534 259.85L89.904 259.85z" stroke="none" fill="#DAEEF3" fill-rule="evenodd" /><g clip-path="url(#117)"></g><g clip-path="url(#118)"></g><g clip-path="url(#119)"></g><path transform="matrix(1 0 0 -1 0 841)" d="M89.904 221.81L505.534 221.81L505.534 221.81L505.534 240.77L505.534 240.77L89.904 240.77z" stroke="none" fill="#DAEEF3" fill-rule="evenodd" /><g clip-path="url(#120)"></g><g clip-path="url(#121)"></g><g clip-path="url(#122)"></g><g clip-path="url(#123)"></g><g clip-path="url(#124)"></g><path transform="matrix(1 0 0 -1 0 841)" d="M89.904 202.73L505.534 202.73L505.534 202.73L505.534 221.81L505.534 221.81L89.904 221.81z" stroke="none" fill="#DAEEF3" fill-rule="evenodd" /><g clip-path="url(#125)"></g><g clip-path="url(#126)"></g><g clip-path="url(#127)"></g><g clip-path="url(#128)"></g><path transform="matrix(1 0 0 -1 0 841)" d="M89.904 183.65L505.534 183.65L505.534 183.65L505.534 202.73L505.534 202.73L89.904 202.73z" stroke="none" fill="#DAEEF3" fill-rule="evenodd" /><g clip-path="url(#129)"></g><g clip-path="url(#130)"></g><g clip-path="url(#131)"></g><g clip-path="url(#132)"></g><path transform="matrix(1 0 0 -1 0 841)" d="M89.904 164.54L505.534 164.54L505.534 164.54L505.534 183.644L505.534 183.644L89.904 183.644z" stroke="none" fill="#DAEEF3" fill-rule="evenodd" /><g clip-path="url(#133)"></g><g clip-path="url(#134)"></g><g clip-path="url(#135)"></g><path transform="matrix(1 0 0 -1 0 841)" d="M89.904 145.58L505.534 145.58L505.534 145.58L505.534 164.54L505.534 164.54L89.904 164.54z" stroke="none" fill="#DAEEF3" fill-rule="evenodd" /><g clip-path="url(#136)"></g><g clip-path="url(#137)"></g><g clip-path="url(#138)"></g><g clip-path="url(#139)"></g><path transform="matrix(1 0 0 -1 0 841)" d="M89.904 126.5L505.534 126.5L505.534 126.5L505.534 145.58L505.534 145.58L89.904 145.58z" stroke="none" fill="#DAEEF3" fill-rule="evenodd" /><g clip-path="url(#140)"></g><g clip-path="url(#141)"></g><g clip-path="url(#142)"></g><g clip-path="url(#143)"></g><path transform="matrix(1 0 0 -1 0 841)" d="M89.904 107.42L505.534 107.42L505.534 107.42L505.534 126.5L505.534 126.5L89.904 126.5z" stroke="none" fill="#DAEEF3" fill-rule="evenodd" /><g clip-path="url(#144)"></g><g clip-path="url(#145)"></g></g><path transform="matrix(1 0 0 -1 0 841)" d="M84.264 259.85L84.744 259.85L84.744 259.85L84.744 260.33L84.744 260.33L84.264 260.33z" stroke="none" fill="#000000" fill-rule="evenodd" /><path transform="matrix(1 0 0 -1 0 841)" d="M84.744 259.85L510.694 259.85L510.694 259.85L510.694 260.33L510.694 260.33L84.744 260.33z" stroke="none" fill="#000000" fill-rule="evenodd" /><path transform="matrix(1 0 0 -1 0 841)" d="M510.7 259.85L511.18 259.85L511.18 259.85L511.18 260.33L511.18 260.33L510.7 260.33z" stroke="none" fill="#000000" fill-rule="evenodd" /><path transform="matrix(1 0 0 -1 0 841)" d="M84.264 107.42L84.744 107.42L84.744 107.42L84.744 259.84L84.744 259.84L84.264 259.84z" stroke="none" fill="#000000" fill-rule="evenodd" /><path transform="matrix(1 0 0 -1 0 841)" d="M84.264 106.94L84.744 106.94L84.744 106.94L84.744 107.42L84.744 107.42L84.264 107.42z" stroke="none" fill="#000000" fill-rule="evenodd" /><path transform="matrix(1 0 0 -1 0 841)" d="M84.264 106.94L84.744 106.94L84.744 106.94L84.744 107.42L84.744 107.42L84.264 107.42z" stroke="none" fill="#000000" fill-rule="evenodd" /><path transform="matrix(1 0 0 -1 0 841)" d="M84.744 106.94L510.694 106.94L510.694 106.94L510.694 107.42L510.694 107.42L84.744 107.42z" stroke="none" fill="#000000" fill-rule="evenodd" /><path transform="matrix(1 0 0 -1 0 841)" d="M510.7 107.42L511.18 107.42L511.18 107.42L511.18 259.84L511.18 259.84L510.7 259.84z" stroke="none" fill="#000000" fill-rule="evenodd" /><path transform="matrix(1 0 0 -1 0 841)" d="M510.7 106.94L511.18 106.94L511.18 106.94L511.18 107.42L511.18 107.42L510.7 107.42z" stroke="none" fill="#000000" fill-rule="evenodd" /><path transform="matrix(1 0 0 -1 0 841)" d="M510.7 106.94L511.18 106.94L511.18 106.94L511.18 107.42L511.18 107.42L510.7 107.42z" stroke="none" fill="#000000" fill-rule="evenodd" /></g></g></g></svg>