<svg xmlns="http://www.w3.org/2000/svg" xmlns:xlink="http://www.w3.org/1999/xlink" id="body_166" preserveAspectRatio="xMinYMin meet" viewBox="0 0 793 1121"><defs><clipPath id="1"><path d="M0 841L0 -0.9199829L0 -0.9199829L595.32 -0.9199829L595.32 -0.9199829L595.32 841L595.32 841L0 841z" /></clipPath><clipPath id="2"><path d="M0.00125 841.0914L595.4112 841.0914L595.4112 841.0914L595.4112 -0.9186401L595.4112 -0.9186401L0.00125 -0.9186401z" /></clipPath><clipPath id="3"><path d="M288.05 781.211L316.01 781.211L316.01 781.211L316.01 762.011L316.01 762.011L288.05 762.011z" /></clipPath><clipPath id="4"><path d="M288.05 781.216L316.01 781.216L316.01 781.216L316.01 762.016L316.01 762.016L288.05 762.016z" /></clipPath><clipPath id="5"><path d="M288.05 781.216L316.01 781.216L316.01 781.216L316.01 762.016L316.01 762.016L288.05 762.016z" /></clipPath><clipPath id="6"><path d="M84.751 292.05L180.271 292.05L180.271 292.05L180.271 264.435L180.271 264.435L84.751 264.435z" /></clipPath><clipPath id="7"><path d="M84.744 292.05L180.264 292.05L180.264 292.05L180.264 264.426L180.264 264.426L84.744 264.426z" /></clipPath><clipPath id="8"><path d="M84.744 292.05L180.264 292.05L180.264 292.05L180.264 264.426L180.264 264.426L84.744 264.426z" /></clipPath><clipPath id="9"><path d="M180.75 292.05L231.645 292.05L231.645 292.05L231.645 264.435L231.645 264.435L180.75 264.435z" /></clipPath><clipPath id="10"><path d="M180.74 292.05L231.644 292.05L231.644 292.05L231.644 264.426L231.644 264.426L180.74 264.426z" /></clipPath><clipPath id="11"><path d="M180.74 292.05L231.644 292.05L231.644 292.05L231.644 264.426L231.644 264.426L180.74 264.426z" /></clipPath><clipPath id="12"><path d="M232.13 292.05L282.41 292.05L282.41 292.05L282.41 264.435L282.41 264.435L232.13 264.435z" /></clipPath><clipPath id="13"><path d="M232.13 292.05L282.41 292.05L282.41 292.05L282.41 264.426L282.41 264.426L232.13 264.426z" /></clipPath><clipPath id="14"><path d="M232.13 292.05L282.41 292.05L282.41 292.05L282.41 264.426L282.41 264.426L232.13 264.426z" /></clipPath><clipPath id="15"><path d="M283.01 292.05L346.28 292.05L346.28 292.05L346.28 264.435L346.28 264.435L283.01 264.435z" /></clipPath><clipPath id="16"><path d="M283.01 292.05L346.274 292.05L346.274 292.05L346.274 264.426L346.274 264.426L283.01 264.426z" /></clipPath><clipPath id="17"><path d="M283.01 292.05L346.274 292.05L346.274 292.05L346.274 264.426L346.274 264.426L283.01 264.426z" /></clipPath><clipPath id="18"><path d="M346.76 292.05L537.7 292.05L537.7 292.05L537.7 264.435L537.7 264.435L346.76 264.435z" /></clipPath><clipPath id="19"><path d="M346.75 292.05L537.69 292.05L537.69 292.05L537.69 264.426L537.69 264.426L346.75 264.426z" /></clipPath><clipPath id="20"><path d="M346.75 292.05L537.69 292.05L537.69 292.05L537.69 264.426L537.69 264.426L346.75 264.426z" /></clipPath><clipPath id="21"><path d="M84.751 320.25L180.271 320.25L180.271 320.25L180.271 292.53L180.271 292.53L84.751 292.53z" /></clipPath><clipPath id="22"><path d="M84.744 320.25L180.264 320.25L180.264 320.25L180.264 292.53L180.264 292.53L84.744 292.53z" /></clipPath><clipPath id="23"><path d="M84.744 320.25L180.264 320.25L180.264 320.25L180.264 292.53L180.264 292.53L84.744 292.53z" /></clipPath><clipPath id="24"><path d="M180.75 320.25L231.645 320.25L231.645 320.25L231.645 292.53L231.645 292.53L180.75 292.53z" /></clipPath><clipPath id="25"><path d="M180.74 320.25L231.644 320.25L231.644 320.25L231.644 292.53L231.644 292.53L180.74 292.53z" /></clipPath><clipPath id="26"><path d="M180.74 320.25L231.644 320.25L231.644 320.25L231.644 292.53L231.644 292.53L180.74 292.53z" /></clipPath><clipPath id="27"><path d="M232.13 320.25L282.41 320.25L282.41 320.25L282.41 292.53L282.41 292.53L232.13 292.53z" /></clipPath><clipPath id="28"><path d="M232.13 320.25L282.41 320.25L282.41 320.25L282.41 292.53L282.41 292.53L232.13 292.53z" /></clipPath><clipPath id="29"><path d="M232.13 320.25L282.41 320.25L282.41 320.25L282.41 292.53L282.41 292.53L232.13 292.53z" /></clipPath><clipPath id="30"><path d="M283.01 320.25L346.28 320.25L346.28 320.25L346.28 292.53L346.28 292.53L283.01 292.53z" /></clipPath><clipPath id="31"><path d="M283.01 320.25L346.274 320.25L346.274 320.25L346.274 292.53L346.274 292.53L283.01 292.53z" /></clipPath><clipPath id="32"><path d="M283.01 320.25L346.274 320.25L346.274 320.25L346.274 292.53L346.274 292.53L283.01 292.53z" /></clipPath><clipPath id="33"><path d="M346.76 320.25L537.7 320.25L537.7 320.25L537.7 292.53L537.7 292.53L346.76 292.53z" /></clipPath><clipPath id="34"><path d="M346.75 320.25L537.69 320.25L537.69 320.25L537.69 292.53L537.69 292.53L346.75 292.53z" /></clipPath><clipPath id="35"><path d="M346.75 320.25L537.69 320.25L537.69 320.25L537.69 292.53L537.69 292.53L346.75 292.53z" /></clipPath><clipPath id="36"><path d="M84.751 348.33L180.271 348.33L180.271 348.33L180.271 320.73L180.271 320.73L84.751 320.73z" /></clipPath><clipPath id="37"><path d="M84.744 348.33L180.264 348.33L180.264 348.33L180.264 320.73L180.264 320.73L84.744 320.73z" /></clipPath><clipPath id="38"><path d="M84.744 348.33L180.264 348.33L180.264 348.33L180.264 320.73L180.264 320.73L84.744 320.73z" /></clipPath><clipPath id="39"><path d="M180.75 348.33L231.645 348.33L231.645 348.33L231.645 320.73L231.645 320.73L180.75 320.73z" /></clipPath><clipPath id="40"><path d="M180.74 348.33L231.644 348.33L231.644 348.33L231.644 320.73L231.644 320.73L180.74 320.73z" /></clipPath><clipPath id="41"><path d="M180.74 348.33L231.644 348.33L231.644 348.33L231.644 320.73L231.644 320.73L180.74 320.73z" /></clipPath><clipPath id="42"><path d="M232.13 348.33L282.41 348.33L282.41 348.33L282.41 320.73L282.41 320.73L232.13 320.73z" /></clipPath><clipPath id="43"><path d="M232.13 348.33L282.41 348.33L282.41 348.33L282.41 320.73L282.41 320.73L232.13 320.73z" /></clipPath><clipPath id="44"><path d="M232.13 348.33L282.41 348.33L282.41 348.33L282.41 320.73L282.41 320.73L232.13 320.73z" /></clipPath><clipPath id="45"><path d="M283.01 348.33L346.28 348.33L346.28 348.33L346.28 320.73L346.28 320.73L283.01 320.73z" /></clipPath><clipPath id="46"><path d="M283.01 348.33L346.274 348.33L346.274 348.33L346.274 320.73L346.274 320.73L283.01 320.73z" /></clipPath><clipPath id="47"><path d="M283.01 348.33L346.274 348.33L346.274 348.33L346.274 320.73L346.274 320.73L283.01 320.73z" /></clipPath><clipPath id="48"><path d="M346.76 348.33L537.7 348.33L537.7 348.33L537.7 320.73L537.7 320.73L346.76 320.73z" /></clipPath><clipPath id="49"><path d="M346.75 348.33L537.69 348.33L537.69 348.33L537.69 320.73L537.69 320.73L346.75 320.73z" /></clipPath><clipPath id="50"><path d="M346.75 348.33L537.69 348.33L537.69 348.33L537.69 320.73L537.69 320.73L346.75 320.73z" /></clipPath><clipPath id="51"><path d="M346.75 348.33L537.69 348.33L537.69 348.33L537.69 320.73L537.69 320.73L346.75 320.73z" /></clipPath><clipPath id="52"><path d="M346.75 348.33L537.69 348.33L537.69 348.33L537.69 320.73L537.69 320.73L346.75 320.73z" /></clipPath><clipPath id="53"><path d="M84.751 720.13L180.271 720.13L180.271 720.13L180.271 348.92L180.271 348.92L84.751 348.92z" /></clipPath><clipPath id="54"><path d="M84.744 720.14L180.264 720.14L180.264 720.14L180.264 348.93L180.264 348.93L84.744 348.93z" /></clipPath><clipPath id="55"><path d="M84.744 720.14L180.264 720.14L180.264 720.14L180.264 348.93L180.264 348.93L84.744 348.93z" /></clipPath><clipPath id="56"><path d="M180.75 720.13L231.645 720.13L231.645 720.13L231.645 348.92L231.645 348.92L180.75 348.92z" /></clipPath><clipPath id="57"><path d="M180.74 720.14L231.644 720.14L231.644 720.14L231.644 348.93L231.644 348.93L180.74 348.93z" /></clipPath><clipPath id="58"><path d="M180.74 720.14L231.644 720.14L231.644 720.14L231.644 348.93L231.644 348.93L180.74 348.93z" /></clipPath><clipPath id="59"><path d="M232.13 720.13L282.41 720.13L282.41 720.13L282.41 348.92L282.41 348.92L232.13 348.92z" /></clipPath><clipPath id="60"><path d="M232.13 720.14L282.41 720.14L282.41 720.14L282.41 348.93L282.41 348.93L232.13 348.93z" /></clipPath><clipPath id="61"><path d="M232.13 720.14L282.41 720.14L282.41 720.14L282.41 348.93L282.41 348.93L232.13 348.93z" /></clipPath><clipPath id="62"><path d="M283.01 720.13L346.28 720.13L346.28 720.13L346.28 348.92L346.28 348.92L283.01 348.92z" /></clipPath><clipPath id="63"><path d="M283.01 720.14L346.274 720.14L346.274 720.14L346.274 348.93L346.274 348.93L283.01 348.93z" /></clipPath><clipPath id="64"><path d="M283.01 720.14L346.274 720.14L346.274 720.14L346.274 348.93L346.274 348.93L283.01 348.93z" /></clipPath><clipPath id="65"><path d="M346.76 720.13L537.7 720.13L537.7 720.13L537.7 348.92L537.7 348.92L346.76 348.92z" /></clipPath><clipPath id="66"><path d="M346.75 720.14L537.69 720.14L537.69 720.14L537.69 348.93L537.69 348.93L346.75 348.93z" /></clipPath><clipPath id="67"><path d="M346.75 720.14L537.69 720.14L537.69 720.14L537.69 348.93L537.69 348.93L346.75 348.93z" /></clipPath><clipPath id="68"><path d="M346.75 720.14L537.69 720.14L537.69 720.14L537.69 348.93L537.69 348.93L346.75 348.93z" /></clipPath><clipPath id="69"><path d="M346.75 720.14L537.69 720.14L537.69 720.14L537.69 348.93L537.69 348.93L346.75 348.93z" /></clipPath><clipPath id="70"><path d="M346.75 720.14L537.69 720.14L537.69 720.14L537.69 348.93L537.69 348.93L346.75 348.93z" /></clipPath><clipPath id="71"><path d="M346.75 720.14L537.69 720.14L537.69 720.14L537.69 348.93L537.69 348.93L346.75 348.93z" /></clipPath><clipPath id="72"><path d="M346.75 720.14L537.69 720.14L537.69 720.14L537.69 348.93L537.69 348.93L346.75 348.93z" /></clipPath><clipPath id="73"><path d="M346.75 720.14L537.69 720.14L537.69 720.14L537.69 348.93L537.69 348.93L346.75 348.93z" /></clipPath><clipPath id="74"><path d="M346.75 720.14L537.69 720.14L537.69 720.14L537.69 348.93L537.69 348.93L346.75 348.93z" /></clipPath><clipPath id="75"><path d="M346.75 720.14L537.69 720.14L537.69 720.14L537.69 348.93L537.69 348.93L346.75 348.93z" /></clipPath><clipPath id="76"><path d="M346.75 720.14L537.69 720.14L537.69 720.14L537.69 348.93L537.69 348.93L346.75 348.93z" /></clipPath><clipPath id="77"><path d="M346.75 720.14L537.69 720.14L537.69 720.14L537.69 348.93L537.69 348.93L346.75 348.93z" /></clipPath><clipPath id="78"><path d="M346.75 720.14L537.69 720.14L537.69 720.14L537.69 348.93L537.69 348.93L346.75 348.93z" /></clipPath><clipPath id="79"><path d="M346.75 720.14L537.69 720.14L537.69 720.14L537.69 348.93L537.69 348.93L346.75 348.93z" /></clipPath><clipPath id="80"><path d="M346.75 720.14L537.69 720.14L537.69 720.14L537.69 348.93L537.69 348.93L346.75 348.93z" /></clipPath><clipPath id="81"><path d="M346.75 720.14L537.69 720.14L537.69 720.14L537.69 348.93L537.69 348.93L346.75 348.93z" /></clipPath><clipPath id="82"><path d="M346.75 720.14L537.69 720.14L537.69 720.14L537.69 348.93L537.69 348.93L346.75 348.93z" /></clipPath><clipPath id="83"><path d="M346.75 720.14L537.69 720.14L537.69 720.14L537.69 348.93L537.69 348.93L346.75 348.93z" /></clipPath><clipPath id="84"><path d="M346.75 720.14L537.69 720.14L537.69 720.14L537.69 348.93L537.69 348.93L346.75 348.93z" /></clipPath><clipPath id="85"><path d="M346.75 720.14L537.69 720.14L537.69 720.14L537.69 348.93L537.69 348.93L346.75 348.93z" /></clipPath><clipPath id="86"><path d="M346.75 720.14L537.69 720.14L537.69 720.14L537.69 348.93L537.69 348.93L346.75 348.93z" /></clipPath><clipPath id="87"><path d="M346.75 720.14L537.69 720.14L537.69 720.14L537.69 348.93L537.69 348.93L346.75 348.93z" /></clipPath><clipPath id="88"><path d="M346.75 720.14L537.69 720.14L537.69 720.14L537.69 348.93L537.69 348.93L346.75 348.93z" /></clipPath><clipPath id="89"><path d="M346.75 720.14L537.69 720.14L537.69 720.14L537.69 348.93L537.69 348.93L346.75 348.93z" /></clipPath><clipPath id="90"><path d="M346.75 720.14L537.69 720.14L537.69 720.14L537.69 348.93L537.69 348.93L346.75 348.93z" /></clipPath><clipPath id="91"><path d="M346.75 720.14L537.69 720.14L537.69 720.14L537.69 348.93L537.69 348.93L346.75 348.93z" /></clipPath><clipPath id="92"><path d="M346.75 720.14L537.69 720.14L537.69 720.14L537.69 348.93L537.69 348.93L346.75 348.93z" /></clipPath><clipPath id="93"><path d="M346.75 720.14L537.69 720.14L537.69 720.14L537.69 348.93L537.69 348.93L346.75 348.93z" /></clipPath><clipPath id="94"><path d="M346.75 720.14L537.69 720.14L537.69 720.14L537.69 348.93L537.69 348.93L346.75 348.93z" /></clipPath><clipPath id="95"><path d="M346.75 720.14L537.69 720.14L537.69 720.14L537.69 348.93L537.69 348.93L346.75 348.93z" /></clipPath><clipPath id="96"><path d="M346.75 720.14L537.69 720.14L537.69 720.14L537.69 348.93L537.69 348.93L346.75 348.93z" /></clipPath><clipPath id="97"><path d="M346.75 720.14L537.69 720.14L537.69 720.14L537.69 348.93L537.69 348.93L346.75 348.93z" /></clipPath><clipPath id="98"><path d="M346.75 720.14L537.69 720.14L537.69 720.14L537.69 348.93L537.69 348.93L346.75 348.93z" /></clipPath><clipPath id="99"><path d="M346.75 720.14L537.69 720.14L537.69 720.14L537.69 348.93L537.69 348.93L346.75 348.93z" /></clipPath><clipPath id="100"><path d="M346.75 720.14L537.69 720.14L537.69 720.14L537.69 348.93L537.69 348.93L346.75 348.93z" /></clipPath><clipPath id="101"><path d="M346.75 720.14L537.69 720.14L537.69 720.14L537.69 348.93L537.69 348.93L346.75 348.93z" /></clipPath><clipPath id="102"><path d="M346.75 720.14L537.69 720.14L537.69 720.14L537.69 348.93L537.69 348.93L346.75 348.93z" /></clipPath><clipPath id="103"><path d="M346.75 720.14L537.69 720.14L537.69 720.14L537.69 348.93L537.69 348.93L346.75 348.93z" /></clipPath><clipPath id="104"><path d="M346.75 720.14L537.69 720.14L537.69 720.14L537.69 348.93L537.69 348.93L346.75 348.93z" /></clipPath><clipPath id="105"><path d="M346.75 720.14L537.69 720.14L537.69 720.14L537.69 348.93L537.69 348.93L346.75 348.93z" /></clipPath><clipPath id="106"><path d="M346.75 720.14L537.69 720.14L537.69 720.14L537.69 348.93L537.69 348.93L346.75 348.93z" /></clipPath><clipPath id="107"><path d="M346.75 720.14L537.69 720.14L537.69 720.14L537.69 348.93L537.69 348.93L346.75 348.93z" /></clipPath><clipPath id="108"><path d="M346.75 720.14L537.69 720.14L537.69 720.14L537.69 348.93L537.69 348.93L346.75 348.93z" /></clipPath><clipPath id="109"><path d="M346.75 720.14L537.69 720.14L537.69 720.14L537.69 348.93L537.69 348.93L346.75 348.93z" /></clipPath><clipPath id="110"><path d="M346.75 720.14L537.69 720.14L537.69 720.14L537.69 348.93L537.69 348.93L346.75 348.93z" /></clipPath><clipPath id="111"><path d="M346.75 720.14L537.69 720.14L537.69 720.14L537.69 348.93L537.69 348.93L346.75 348.93z" /></clipPath><clipPath id="112"><path d="M346.75 720.14L537.69 720.14L537.69 720.14L537.69 348.93L537.69 348.93L346.75 348.93z" /></clipPath><clipPath id="113"><path d="M84.751 748.331L180.271 748.331L180.271 748.331L180.271 720.731L180.271 720.731L84.751 720.731z" /></clipPath><clipPath id="114"><path d="M84.744 748.336L180.264 748.336L180.264 748.336L180.264 720.736L180.264 720.736L84.744 720.736z" /></clipPath><clipPath id="115"><path d="M84.744 748.336L180.264 748.336L180.264 748.336L180.264 720.736L180.264 720.736L84.744 720.736z" /></clipPath><clipPath id="116"><path d="M180.75 748.331L231.645 748.331L231.645 748.331L231.645 720.731L231.645 720.731L180.75 720.731z" /></clipPath><clipPath id="117"><path d="M180.74 748.336L231.644 748.336L231.644 748.336L231.644 720.736L231.644 720.736L180.74 720.736z" /></clipPath><clipPath id="118"><path d="M180.74 748.336L231.644 748.336L231.644 748.336L231.644 720.736L231.644 720.736L180.74 720.736z" /></clipPath><clipPath id="119"><path d="M232.13 748.331L282.41 748.331L282.41 748.331L282.41 720.731L282.41 720.731L232.13 720.731z" /></clipPath><clipPath id="120"><path d="M232.13 748.336L282.41 748.336L282.41 748.336L282.41 720.736L282.41 720.736L232.13 720.736z" /></clipPath><clipPath id="121"><path d="M232.13 748.336L282.41 748.336L282.41 748.336L282.41 720.736L282.41 720.736L232.13 720.736z" /></clipPath><clipPath id="122"><path d="M283.01 748.331L346.28 748.331L346.28 748.331L346.28 720.731L346.28 720.731L283.01 720.731z" /></clipPath><clipPath id="123"><path d="M283.01 748.336L346.274 748.336L346.274 748.336L346.274 720.736L346.274 720.736L283.01 720.736z" /></clipPath><clipPath id="124"><path d="M346.76 748.331L537.7 748.331L537.7 748.331L537.7 720.731L537.7 720.731L346.76 720.731z" /></clipPath><clipPath id="125"><path d="M346.75 748.336L537.69 748.336L537.69 748.336L537.69 720.736L537.69 720.736L346.75 720.736z" /></clipPath><clipPath id="126"><path d="M346.75 748.336L537.69 748.336L537.69 748.336L537.69 720.736L537.69 720.736L346.75 720.736z" /></clipPath><clipPath id="127"><path d="M346.75 748.336L537.69 748.336L537.69 748.336L537.69 720.736L537.69 720.736L346.75 720.736z" /></clipPath><clipPath id="128"><path d="M346.75 748.336L537.69 748.336L537.69 748.336L537.69 720.736L537.69 720.736L346.75 720.736z" /></clipPath><clipPath id="129"><path d="M346.75 748.336L537.69 748.336L537.69 748.336L537.69 720.736L537.69 720.736L346.75 720.736z" /></clipPath></defs><g transform="matrix(1.333333 0 0 1.333333 0 0)"><g><g clip-path="url(#1)"><path transform="matrix(1 0 0 -1 0 841)" d="M457.51 53.304L505.534 53.304L505.534 53.304L505.534 53.90404L505.534 53.90404L457.51 53.90404z" stroke="none" fill="#000000" fill-rule="evenodd" /><g clip-path="url(#2)"><path transform="matrix(1 0 0 -1 0 841)" d="M88.464 77.904L506.974 77.904L506.974 77.904L506.974 80.904L506.974 80.904L88.464 80.904z" stroke="none" fill="#000000" fill-rule="evenodd" /><path transform="matrix(1 0 0 -1 0 841)" d="M88.464 76.464L506.974 76.464L506.974 76.464L506.974 77.18397L506.974 77.18397L88.464 77.18397z" stroke="none" fill="#000000" fill-rule="evenodd" /></g><g clip-path="url(#3)"><g clip-path="url(#4)"></g><g clip-path="url(#5)"></g></g><path transform="matrix(1 0 0 -1 0 841)" d="M84.744 548.95L180.264 548.95L180.264 548.95L180.264 576.574L180.264 576.574L84.744 576.574z" stroke="none" fill="#0070C0" fill-rule="evenodd" /><g clip-path="url(#6)"><path transform="matrix(1 0 0 -1 0 841)" d="M89.904 548.95L175.104 548.95L175.104 548.95L175.104 576.574L175.104 576.574L89.904 576.574z" stroke="none" fill="#0070C0" fill-rule="evenodd" /><g clip-path="url(#7)"></g><g clip-path="url(#8)"></g></g><path transform="matrix(1 0 0 -1 0 841)" d="M180.74 548.95L231.644 548.95L231.644 548.95L231.644 576.574L231.644 576.574L180.74 576.574z" stroke="none" fill="#0070C0" fill-rule="evenodd" /><g clip-path="url(#9)"><path transform="matrix(1 0 0 -1 0 841)" d="M185.9 548.95L226.484 548.95L226.484 548.95L226.484 576.574L226.484 576.574L185.9 576.574z" stroke="none" fill="#0070C0" fill-rule="evenodd" /><g clip-path="url(#10)"></g><g clip-path="url(#11)"></g></g><path transform="matrix(1 0 0 -1 0 841)" d="M232.13 548.95L282.41 548.95L282.41 548.95L282.41 576.574L282.41 576.574L232.13 576.574z" stroke="none" fill="#0070C0" fill-rule="evenodd" /><g clip-path="url(#12)"><path transform="matrix(1 0 0 -1 0 841)" d="M237.29 548.95L277.25 548.95L277.25 548.95L277.25 576.574L277.25 576.574L237.29 576.574z" stroke="none" fill="#0070C0" fill-rule="evenodd" /><g clip-path="url(#13)"></g><g clip-path="url(#14)"></g></g><path transform="matrix(1 0 0 -1 0 841)" d="M283.01 548.95L346.274 548.95L346.274 548.95L346.274 576.574L346.274 576.574L283.01 576.574z" stroke="none" fill="#0070C0" fill-rule="evenodd" /><g clip-path="url(#15)"><path transform="matrix(1 0 0 -1 0 841)" d="M288.05 548.95L341.114 548.95L341.114 548.95L341.114 576.574L341.114 576.574L288.05 576.574z" stroke="none" fill="#0070C0" fill-rule="evenodd" /><g clip-path="url(#16)"></g><g clip-path="url(#17)"></g></g><path transform="matrix(1 0 0 -1 0 841)" d="M346.75 548.95L537.69 548.95L537.69 548.95L537.69 576.574L537.69 576.574L346.75 576.574z" stroke="none" fill="#0070C0" fill-rule="evenodd" /><g clip-path="url(#18)"><path transform="matrix(1 0 0 -1 0 841)" d="M351.91 548.95L532.53 548.95L532.53 548.95L532.53 576.574L532.53 576.574L351.91 576.574z" stroke="none" fill="#0070C0" fill-rule="evenodd" /><g clip-path="url(#19)"></g><g clip-path="url(#20)"></g></g><path transform="matrix(1 0 0 -1 0 841)" d="M84.264 576.58L84.744 576.58L84.744 576.58L84.744 577.06L84.744 577.06L84.264 577.06z" stroke="none" fill="#000000" fill-rule="evenodd" /><path transform="matrix(1 0 0 -1 0 841)" d="M84.264 576.58L84.744 576.58L84.744 576.58L84.744 577.06L84.744 577.06L84.264 577.06z" stroke="none" fill="#000000" fill-rule="evenodd" /><path transform="matrix(1 0 0 -1 0 841)" d="M84.744 576.58L180.264 576.58L180.264 576.58L180.264 577.06L180.264 577.06L84.744 577.06z" stroke="none" fill="#000000" fill-rule="evenodd" /><path transform="matrix(1 0 0 -1 0 841)" d="M180.26 576.58L180.74 576.58L180.74 576.58L180.74 577.06L180.74 577.06L180.26 577.06z" stroke="none" fill="#000000" fill-rule="evenodd" /><path transform="matrix(1 0 0 -1 0 841)" d="M180.74 576.58L231.644 576.58L231.644 576.58L231.644 577.06L231.644 577.06L180.74 577.06z" stroke="none" fill="#000000" fill-rule="evenodd" /><path transform="matrix(1 0 0 -1 0 841)" d="M231.65 576.58L232.13 576.58L232.13 576.58L232.13 577.06L232.13 577.06L231.65 577.06z" stroke="none" fill="#000000" fill-rule="evenodd" /><path transform="matrix(1 0 0 -1 0 841)" d="M232.13 576.58L282.53 576.58L282.53 576.58L282.53 577.06L282.53 577.06L232.13 577.06z" stroke="none" fill="#000000" fill-rule="evenodd" /><path transform="matrix(1 0 0 -1 0 841)" d="M282.53 576.58L283.01 576.58L283.01 576.58L283.01 577.06L283.01 577.06L282.53 577.06z" stroke="none" fill="#000000" fill-rule="evenodd" /><path transform="matrix(1 0 0 -1 0 841)" d="M283.01 576.58L346.274 576.58L346.274 576.58L346.274 577.06L346.274 577.06L283.01 577.06z" stroke="none" fill="#000000" fill-rule="evenodd" /><path transform="matrix(1 0 0 -1 0 841)" d="M346.27 576.58L346.75 576.58L346.75 576.58L346.75 577.06L346.75 577.06L346.27 577.06z" stroke="none" fill="#000000" fill-rule="evenodd" /><path transform="matrix(1 0 0 -1 0 841)" d="M346.75 576.58L537.69 576.58L537.69 576.58L537.69 577.06L537.69 577.06L346.75 577.06z" stroke="none" fill="#000000" fill-rule="evenodd" /><path transform="matrix(1 0 0 -1 0 841)" d="M537.7 576.58L538.1801 576.58L538.1801 576.58L538.1801 577.06L538.1801 577.06L537.7 577.06z" stroke="none" fill="#000000" fill-rule="evenodd" /><path transform="matrix(1 0 0 -1 0 841)" d="M537.7 576.58L538.1801 576.58L538.1801 576.58L538.1801 577.06L538.1801 577.06L537.7 577.06z" stroke="none" fill="#000000" fill-rule="evenodd" /><path transform="matrix(1 0 0 -1 0 841)" d="M84.264 548.95L84.744 548.95L84.744 548.95L84.744 576.574L84.744 576.574L84.264 576.574z" stroke="none" fill="#000000" fill-rule="evenodd" /><path transform="matrix(1 0 0 -1 0 841)" d="M180.26 548.95L180.74 548.95L180.74 548.95L180.74 576.574L180.74 576.574L180.26 576.574z" stroke="none" fill="#000000" fill-rule="evenodd" /><path transform="matrix(1 0 0 -1 0 841)" d="M231.65 548.95L232.13 548.95L232.13 548.95L232.13 576.574L232.13 576.574L231.65 576.574z" stroke="none" fill="#000000" fill-rule="evenodd" /><path transform="matrix(1 0 0 -1 0 841)" d="M282.53 548.95L283.01 548.95L283.01 548.95L283.01 576.574L283.01 576.574L282.53 576.574z" stroke="none" fill="#000000" fill-rule="evenodd" /><path transform="matrix(1 0 0 -1 0 841)" d="M346.27 548.95L346.75 548.95L346.75 548.95L346.75 576.574L346.75 576.574L346.27 576.574z" stroke="none" fill="#000000" fill-rule="evenodd" /><path transform="matrix(1 0 0 -1 0 841)" d="M537.7 548.95L538.1801 548.95L538.1801 548.95L538.1801 576.574L538.1801 576.574L537.7 576.574z" stroke="none" fill="#000000" fill-rule="evenodd" /><path transform="matrix(1 0 0 -1 0 841)" d="M84.744 520.75L180.264 520.75L180.264 520.75L180.264 548.47L180.264 548.47L84.744 548.47z" stroke="none" fill="#DAEEF3" fill-rule="evenodd" /><g clip-path="url(#21)"><path transform="matrix(1 0 0 -1 0 841)" d="M89.904 521.83L175.104 521.83L175.104 521.83L175.104 548.47L175.104 548.47L89.904 548.47z" stroke="none" fill="#DAEEF3" fill-rule="evenodd" /><g clip-path="url(#22)"></g><g clip-path="url(#23)"></g></g><path transform="matrix(1 0 0 -1 0 841)" d="M180.74 520.75L231.644 520.75L231.644 520.75L231.644 548.47L231.644 548.47L180.74 548.47z" stroke="none" fill="#DAEEF3" fill-rule="evenodd" /><g clip-path="url(#24)"><path transform="matrix(1 0 0 -1 0 841)" d="M185.9 521.83L226.484 521.83L226.484 521.83L226.484 548.47L226.484 548.47L185.9 548.47z" stroke="none" fill="#DAEEF3" fill-rule="evenodd" /><g clip-path="url(#25)"></g><g clip-path="url(#26)"></g></g><path transform="matrix(1 0 0 -1 0 841)" d="M232.13 520.75L282.41 520.75L282.41 520.75L282.41 548.47L282.41 548.47L232.13 548.47z" stroke="none" fill="#DAEEF3" fill-rule="evenodd" /><g clip-path="url(#27)"><path transform="matrix(1 0 0 -1 0 841)" d="M237.29 520.75L277.25 520.75L277.25 520.75L277.25 548.47L277.25 548.47L237.29 548.47z" stroke="none" fill="#DAEEF3" fill-rule="evenodd" /><g clip-path="url(#28)"></g><g clip-path="url(#29)"></g></g><path transform="matrix(1 0 0 -1 0 841)" d="M283.01 520.75L346.274 520.75L346.274 520.75L346.274 548.47L346.274 548.47L283.01 548.47z" stroke="none" fill="#DAEEF3" fill-rule="evenodd" /><g clip-path="url(#30)"><path transform="matrix(1 0 0 -1 0 841)" d="M288.05 521.83L341.114 521.83L341.114 521.83L341.114 548.47L341.114 548.47L288.05 548.47z" stroke="none" fill="#DAEEF3" fill-rule="evenodd" /><g clip-path="url(#31)"></g><g clip-path="url(#32)"></g></g><path transform="matrix(1 0 0 -1 0 841)" d="M346.75 520.75L537.69 520.75L537.69 520.75L537.69 548.47L537.69 548.47L346.75 548.47z" stroke="none" fill="#DAEEF3" fill-rule="evenodd" /><g clip-path="url(#33)"><path transform="matrix(1 0 0 -1 0 841)" d="M351.91 520.75L532.53 520.75L532.53 520.75L532.53 548.47L532.53 548.47L351.91 548.47z" stroke="none" fill="#DAEEF3" fill-rule="evenodd" /><g clip-path="url(#34)"></g><g clip-path="url(#35)"></g></g><path transform="matrix(1 0 0 -1 0 841)" d="M84.264 548.47L84.744 548.47L84.744 548.47L84.744 548.95L84.744 548.95L84.264 548.95z" stroke="none" fill="#000000" fill-rule="evenodd" /><path transform="matrix(1 0 0 -1 0 841)" d="M84.744 548.47L180.264 548.47L180.264 548.47L180.264 548.95L180.264 548.95L84.744 548.95z" stroke="none" fill="#000000" fill-rule="evenodd" /><path transform="matrix(1 0 0 -1 0 841)" d="M180.26 548.47L180.74 548.47L180.74 548.47L180.74 548.95L180.74 548.95L180.26 548.95z" stroke="none" fill="#000000" fill-rule="evenodd" /><path transform="matrix(1 0 0 -1 0 841)" d="M180.74 548.47L231.644 548.47L231.644 548.47L231.644 548.95L231.644 548.95L180.74 548.95z" stroke="none" fill="#000000" fill-rule="evenodd" /><path transform="matrix(1 0 0 -1 0 841)" d="M231.65 548.47L232.13 548.47L232.13 548.47L232.13 548.95L232.13 548.95L231.65 548.95z" stroke="none" fill="#000000" fill-rule="evenodd" /><path transform="matrix(1 0 0 -1 0 841)" d="M232.13 548.47L282.53 548.47L282.53 548.47L282.53 548.95L282.53 548.95L232.13 548.95z" stroke="none" fill="#000000" fill-rule="evenodd" /><path transform="matrix(1 0 0 -1 0 841)" d="M282.53 548.47L283.01 548.47L283.01 548.47L283.01 548.95L283.01 548.95L282.53 548.95z" stroke="none" fill="#000000" fill-rule="evenodd" /><path transform="matrix(1 0 0 -1 0 841)" d="M283.01 548.47L346.274 548.47L346.274 548.47L346.274 548.95L346.274 548.95L283.01 548.95z" stroke="none" fill="#000000" fill-rule="evenodd" /><path transform="matrix(1 0 0 -1 0 841)" d="M346.27 548.47L346.75 548.47L346.75 548.47L346.75 548.95L346.75 548.95L346.27 548.95z" stroke="none" fill="#000000" fill-rule="evenodd" /><path transform="matrix(1 0 0 -1 0 841)" d="M346.75 548.47L537.69 548.47L537.69 548.47L537.69 548.95L537.69 548.95L346.75 548.95z" stroke="none" fill="#000000" fill-rule="evenodd" /><path transform="matrix(1 0 0 -1 0 841)" d="M537.7 548.47L538.1801 548.47L538.1801 548.47L538.1801 548.95L538.1801 548.95L537.7 548.95z" stroke="none" fill="#000000" fill-rule="evenodd" /><path transform="matrix(1 0 0 -1 0 841)" d="M84.264 520.75L84.744 520.75L84.744 520.75L84.744 548.47L84.744 548.47L84.264 548.47z" stroke="none" fill="#000000" fill-rule="evenodd" /><path transform="matrix(1 0 0 -1 0 841)" d="M180.26 520.75L180.74 520.75L180.74 520.75L180.74 548.47L180.74 548.47L180.26 548.47z" stroke="none" fill="#000000" fill-rule="evenodd" /><path transform="matrix(1 0 0 -1 0 841)" d="M231.65 520.75L232.13 520.75L232.13 520.75L232.13 548.47L232.13 548.47L231.65 548.47z" stroke="none" fill="#000000" fill-rule="evenodd" /><path transform="matrix(1 0 0 -1 0 841)" d="M282.53 520.75L283.01 520.75L283.01 520.75L283.01 548.47L283.01 548.47L282.53 548.47z" stroke="none" fill="#000000" fill-rule="evenodd" /><path transform="matrix(1 0 0 -1 0 841)" d="M346.27 520.75L346.75 520.75L346.75 520.75L346.75 548.47L346.75 548.47L346.27 548.47z" stroke="none" fill="#000000" fill-rule="evenodd" /><path transform="matrix(1 0 0 -1 0 841)" d="M537.7 520.75L538.1801 520.75L538.1801 520.75L538.1801 548.47L538.1801 548.47L537.7 548.47z" stroke="none" fill="#000000" fill-rule="evenodd" /><g clip-path="url(#36)"><g clip-path="url(#37)"></g><g clip-path="url(#38)"></g></g><g clip-path="url(#39)"><g clip-path="url(#40)"></g><g clip-path="url(#41)"></g></g><g clip-path="url(#42)"><g clip-path="url(#43)"></g><g clip-path="url(#44)"></g></g><g clip-path="url(#45)"><g clip-path="url(#46)"></g><g clip-path="url(#47)"></g></g><g clip-path="url(#48)"><g clip-path="url(#49)"></g><g clip-path="url(#50)"></g><g clip-path="url(#51)"></g><g clip-path="url(#52)"></g></g><path transform="matrix(1 0 0 -1 0 841)" d="M84.264 520.27L84.744 520.27L84.744 520.27L84.744 520.75L84.744 520.75L84.264 520.75z" stroke="none" fill="#000000" fill-rule="evenodd" /><path transform="matrix(1 0 0 -1 0 841)" d="M84.744 520.27L180.264 520.27L180.264 520.27L180.264 520.75L180.264 520.75L84.744 520.75z" stroke="none" fill="#000000" fill-rule="evenodd" /><path transform="matrix(1 0 0 -1 0 841)" d="M180.26 520.27L180.74 520.27L180.74 520.27L180.74 520.75L180.74 520.75L180.26 520.75z" stroke="none" fill="#000000" fill-rule="evenodd" /><path transform="matrix(1 0 0 -1 0 841)" d="M180.74 520.27L231.644 520.27L231.644 520.27L231.644 520.75L231.644 520.75L180.74 520.75z" stroke="none" fill="#000000" fill-rule="evenodd" /><path transform="matrix(1 0 0 -1 0 841)" d="M231.65 520.27L232.13 520.27L232.13 520.27L232.13 520.75L232.13 520.75L231.65 520.75z" stroke="none" fill="#000000" fill-rule="evenodd" /><path transform="matrix(1 0 0 -1 0 841)" d="M232.13 520.27L282.53 520.27L282.53 520.27L282.53 520.75L282.53 520.75L232.13 520.75z" stroke="none" fill="#000000" fill-rule="evenodd" /><path transform="matrix(1 0 0 -1 0 841)" d="M282.53 520.27L283.01 520.27L283.01 520.27L283.01 520.75L283.01 520.75L282.53 520.75z" stroke="none" fill="#000000" fill-rule="evenodd" /><path transform="matrix(1 0 0 -1 0 841)" d="M283.01 520.27L346.274 520.27L346.274 520.27L346.274 520.75L346.274 520.75L283.01 520.75z" stroke="none" fill="#000000" fill-rule="evenodd" /><path transform="matrix(1 0 0 -1 0 841)" d="M346.27 520.27L346.75 520.27L346.75 520.27L346.75 520.75L346.75 520.75L346.27 520.75z" stroke="none" fill="#000000" fill-rule="evenodd" /><path transform="matrix(1 0 0 -1 0 841)" d="M346.75 520.27L537.69 520.27L537.69 520.27L537.69 520.75L537.69 520.75L346.75 520.75z" stroke="none" fill="#000000" fill-rule="evenodd" /><path transform="matrix(1 0 0 -1 0 841)" d="M537.7 520.27L538.1801 520.27L538.1801 520.27L538.1801 520.75L538.1801 520.75L537.7 520.75z" stroke="none" fill="#000000" fill-rule="evenodd" /><path transform="matrix(1 0 0 -1 0 841)" d="M84.264 492.67L84.744 492.67L84.744 492.67L84.744 520.27L84.744 520.27L84.264 520.27z" stroke="none" fill="#000000" fill-rule="evenodd" /><path transform="matrix(1 0 0 -1 0 841)" d="M180.26 492.67L180.74 492.67L180.74 492.67L180.74 520.27L180.74 520.27L180.26 520.27z" stroke="none" fill="#000000" fill-rule="evenodd" /><path transform="matrix(1 0 0 -1 0 841)" d="M231.65 492.67L232.13 492.67L232.13 492.67L232.13 520.27L232.13 520.27L231.65 520.27z" stroke="none" fill="#000000" fill-rule="evenodd" /><path transform="matrix(1 0 0 -1 0 841)" d="M282.53 492.67L283.01 492.67L283.01 492.67L283.01 520.27L283.01 520.27L282.53 520.27z" stroke="none" fill="#000000" fill-rule="evenodd" /><path transform="matrix(1 0 0 -1 0 841)" d="M346.27 492.67L346.75 492.67L346.75 492.67L346.75 520.27L346.75 520.27L346.27 520.27z" stroke="none" fill="#000000" fill-rule="evenodd" /><path transform="matrix(1 0 0 -1 0 841)" d="M537.7 492.67L538.1801 492.67L538.1801 492.67L538.1801 520.27L538.1801 520.27L537.7 520.27z" stroke="none" fill="#000000" fill-rule="evenodd" /><path transform="matrix(1 0 0 -1 0 841)" d="M84.744 120.86L180.264 120.86L180.264 120.86L180.264 492.07L180.264 492.07L84.744 492.07z" stroke="none" fill="#DAEEF3" fill-rule="evenodd" /><g clip-path="url(#53)"><path transform="matrix(1 0 0 -1 0 841)" d="M89.904 465.55L175.104 465.55L175.104 465.55L175.104 492.07L175.104 492.07L89.904 492.07z" stroke="none" fill="#DAEEF3" fill-rule="evenodd" /><g clip-path="url(#54)"></g><g clip-path="url(#55)"></g></g><path transform="matrix(1 0 0 -1 0 841)" d="M180.74 120.86L231.644 120.86L231.644 120.86L231.644 492.07L231.644 492.07L180.74 492.07z" stroke="none" fill="#DAEEF3" fill-rule="evenodd" /><g clip-path="url(#56)"><path transform="matrix(1 0 0 -1 0 841)" d="M185.9 465.55L226.484 465.55L226.484 465.55L226.484 492.07L226.484 492.07L185.9 492.07z" stroke="none" fill="#DAEEF3" fill-rule="evenodd" /><g clip-path="url(#57)"></g><g clip-path="url(#58)"></g></g><path transform="matrix(1 0 0 -1 0 841)" d="M232.13 120.86L282.41 120.86L282.41 120.86L282.41 492.07L282.41 492.07L232.13 492.07z" stroke="none" fill="#DAEEF3" fill-rule="evenodd" /><g clip-path="url(#59)"><path transform="matrix(1 0 0 -1 0 841)" d="M237.29 464.47L277.25 464.47L277.25 464.47L277.25 492.07L277.25 492.07L237.29 492.07z" stroke="none" fill="#DAEEF3" fill-rule="evenodd" /><g clip-path="url(#60)"></g><g clip-path="url(#61)"></g></g><path transform="matrix(1 0 0 -1 0 841)" d="M283.01 120.86L346.274 120.86L346.274 120.86L346.274 492.07L346.274 492.07L283.01 492.07z" stroke="none" fill="#DAEEF3" fill-rule="evenodd" /><g clip-path="url(#62)"><path transform="matrix(1 0 0 -1 0 841)" d="M288.05 465.55L341.114 465.55L341.114 465.55L341.114 492.07L341.114 492.07L288.05 492.07z" stroke="none" fill="#DAEEF3" fill-rule="evenodd" /><g clip-path="url(#63)"></g><g clip-path="url(#64)"></g></g><path transform="matrix(1 0 0 -1 0 841)" d="M346.75 120.86L537.69 120.86L537.69 120.86L537.69 492.07L537.69 492.07L346.75 492.07z" stroke="none" fill="#DAEEF3" fill-rule="evenodd" /><g clip-path="url(#65)"><path transform="matrix(1 0 0 -1 0 841)" d="M351.91 464.47L532.53 464.47L532.53 464.47L532.53 492.07L532.53 492.07L351.91 492.07z" stroke="none" fill="#DAEEF3" fill-rule="evenodd" /><g clip-path="url(#66)"></g><g clip-path="url(#67)"></g><path transform="matrix(1 0 0 -1 0 841)" d="M351.91 441.55L532.53 441.55L532.53 441.55L532.53 464.47L532.53 464.47L351.91 464.47z" stroke="none" fill="#DAEEF3" fill-rule="evenodd" /><g clip-path="url(#68)"></g><g clip-path="url(#69)"></g><g clip-path="url(#70)"></g><path transform="matrix(1 0 0 -1 0 841)" d="M351.91 418.63L532.53 418.63L532.53 418.63L532.53 441.55L532.53 441.55L351.91 441.55z" stroke="none" fill="#DAEEF3" fill-rule="evenodd" /><g clip-path="url(#71)"></g><g clip-path="url(#72)"></g><g clip-path="url(#73)"></g><path transform="matrix(1 0 0 -1 0 841)" d="M351.91 395.71L532.53 395.71L532.53 395.71L532.53 418.63L532.53 418.63L351.91 418.63z" stroke="none" fill="#DAEEF3" fill-rule="evenodd" /><g clip-path="url(#74)"></g><g clip-path="url(#75)"></g><g clip-path="url(#76)"></g><path transform="matrix(1 0 0 -1 0 841)" d="M351.91 372.79L532.53 372.79L532.53 372.79L532.53 395.71L532.53 395.71L351.91 395.71z" stroke="none" fill="#DAEEF3" fill-rule="evenodd" /><g clip-path="url(#77)"></g><g clip-path="url(#78)"></g><g clip-path="url(#79)"></g><path transform="matrix(1 0 0 -1 0 841)" d="M351.91 349.85L532.53 349.85L532.53 349.85L532.53 372.794L532.53 372.794L351.91 372.794z" stroke="none" fill="#DAEEF3" fill-rule="evenodd" /><g clip-path="url(#80)"></g><g clip-path="url(#81)"></g><g clip-path="url(#82)"></g><path transform="matrix(1 0 0 -1 0 841)" d="M351.91 327.05L532.53 327.05L532.53 327.05L532.53 349.85L532.53 349.85L351.91 349.85z" stroke="none" fill="#DAEEF3" fill-rule="evenodd" /><g clip-path="url(#83)"></g><g clip-path="url(#84)"></g><g clip-path="url(#85)"></g><path transform="matrix(1 0 0 -1 0 841)" d="M351.91 304.13L532.53 304.13L532.53 304.13L532.53 327.05L532.53 327.05L351.91 327.05z" stroke="none" fill="#DAEEF3" fill-rule="evenodd" /><g clip-path="url(#86)"></g><g clip-path="url(#87)"></g><g clip-path="url(#88)"></g><path transform="matrix(1 0 0 -1 0 841)" d="M351.91 281.21L532.53 281.21L532.53 281.21L532.53 304.13L532.53 304.13L351.91 304.13z" stroke="none" fill="#DAEEF3" fill-rule="evenodd" /><g clip-path="url(#89)"></g><g clip-path="url(#90)"></g><g clip-path="url(#91)"></g><path transform="matrix(1 0 0 -1 0 841)" d="M351.91 258.29L532.53 258.29L532.53 258.29L532.53 281.21L532.53 281.21L351.91 281.21z" stroke="none" fill="#DAEEF3" fill-rule="evenodd" /><g clip-path="url(#92)"></g><g clip-path="url(#93)"></g><g clip-path="url(#94)"></g><path transform="matrix(1 0 0 -1 0 841)" d="M351.91 235.37L532.53 235.37L532.53 235.37L532.53 258.29L532.53 258.29L351.91 258.29z" stroke="none" fill="#DAEEF3" fill-rule="evenodd" /><g clip-path="url(#95)"></g><g clip-path="url(#96)"></g><g clip-path="url(#97)"></g><path transform="matrix(1 0 0 -1 0 841)" d="M351.91 212.45L532.53 212.45L532.53 212.45L532.53 235.37L532.53 235.37L351.91 235.37z" stroke="none" fill="#DAEEF3" fill-rule="evenodd" /><g clip-path="url(#98)"></g><g clip-path="url(#99)"></g><g clip-path="url(#100)"></g><path transform="matrix(1 0 0 -1 0 841)" d="M351.91 189.53L532.53 189.53L532.53 189.53L532.53 212.45L532.53 212.45L351.91 212.45z" stroke="none" fill="#DAEEF3" fill-rule="evenodd" /><g clip-path="url(#101)"></g><g clip-path="url(#102)"></g><g clip-path="url(#103)"></g><path transform="matrix(1 0 0 -1 0 841)" d="M351.91 166.58L532.53 166.58L532.53 166.58L532.53 189.524L532.53 189.524L351.91 189.524z" stroke="none" fill="#DAEEF3" fill-rule="evenodd" /><g clip-path="url(#104)"></g><g clip-path="url(#105)"></g><g clip-path="url(#106)"></g><path transform="matrix(1 0 0 -1 0 841)" d="M351.91 143.66L532.53 143.66L532.53 143.66L532.53 166.58L532.53 166.58L351.91 166.58z" stroke="none" fill="#DAEEF3" fill-rule="evenodd" /><g clip-path="url(#107)"></g><g clip-path="url(#108)"></g><g clip-path="url(#109)"></g><path transform="matrix(1 0 0 -1 0 841)" d="M351.91 120.86L532.53 120.86L532.53 120.86L532.53 143.66L532.53 143.66L351.91 143.66z" stroke="none" fill="#DAEEF3" fill-rule="evenodd" /><g clip-path="url(#110)"></g><g clip-path="url(#111)"></g><g clip-path="url(#112)"></g></g><path transform="matrix(1 0 0 -1 0 841)" d="M84.264 492.19L84.744 492.19L84.744 492.19L84.744 492.67L84.744 492.67L84.264 492.67z" stroke="none" fill="#000000" fill-rule="evenodd" /><path transform="matrix(1 0 0 -1 0 841)" d="M84.744 492.19L180.264 492.19L180.264 492.19L180.264 492.67L180.264 492.67L84.744 492.67z" stroke="none" fill="#000000" fill-rule="evenodd" /><path transform="matrix(1 0 0 -1 0 841)" d="M180.26 492.19L180.74 492.19L180.74 492.19L180.74 492.67L180.74 492.67L180.26 492.67z" stroke="none" fill="#000000" fill-rule="evenodd" /><path transform="matrix(1 0 0 -1 0 841)" d="M180.74 492.19L231.644 492.19L231.644 492.19L231.644 492.67L231.644 492.67L180.74 492.67z" stroke="none" fill="#000000" fill-rule="evenodd" /><path transform="matrix(1 0 0 -1 0 841)" d="M231.65 492.19L232.13 492.19L232.13 492.19L232.13 492.67L232.13 492.67L231.65 492.67z" stroke="none" fill="#000000" fill-rule="evenodd" /><path transform="matrix(1 0 0 -1 0 841)" d="M232.13 492.19L282.53 492.19L282.53 492.19L282.53 492.67L282.53 492.67L232.13 492.67z" stroke="none" fill="#000000" fill-rule="evenodd" /><path transform="matrix(1 0 0 -1 0 841)" d="M282.53 492.19L283.01 492.19L283.01 492.19L283.01 492.67L283.01 492.67L282.53 492.67z" stroke="none" fill="#000000" fill-rule="evenodd" /><path transform="matrix(1 0 0 -1 0 841)" d="M283.01 492.19L346.274 492.19L346.274 492.19L346.274 492.67L346.274 492.67L283.01 492.67z" stroke="none" fill="#000000" fill-rule="evenodd" /><path transform="matrix(1 0 0 -1 0 841)" d="M346.27 492.19L346.75 492.19L346.75 492.19L346.75 492.67L346.75 492.67L346.27 492.67z" stroke="none" fill="#000000" fill-rule="evenodd" /><path transform="matrix(1 0 0 -1 0 841)" d="M346.75 492.19L537.69 492.19L537.69 492.19L537.69 492.67L537.69 492.67L346.75 492.67z" stroke="none" fill="#000000" fill-rule="evenodd" /><path transform="matrix(1 0 0 -1 0 841)" d="M537.7 492.19L538.1801 492.19L538.1801 492.19L538.1801 492.67L538.1801 492.67L537.7 492.67z" stroke="none" fill="#000000" fill-rule="evenodd" /><path transform="matrix(1 0 0 -1 0 841)" d="M84.264 120.86L84.744 120.86L84.744 120.86L84.744 492.19L84.744 492.19L84.264 492.19z" stroke="none" fill="#000000" fill-rule="evenodd" /><path transform="matrix(1 0 0 -1 0 841)" d="M180.26 120.86L180.74 120.86L180.74 120.86L180.74 492.19L180.74 492.19L180.26 492.19z" stroke="none" fill="#000000" fill-rule="evenodd" /><path transform="matrix(1 0 0 -1 0 841)" d="M231.65 120.86L232.13 120.86L232.13 120.86L232.13 492.19L232.13 492.19L231.65 492.19z" stroke="none" fill="#000000" fill-rule="evenodd" /><path transform="matrix(1 0 0 -1 0 841)" d="M282.53 120.86L283.01 120.86L283.01 120.86L283.01 492.19L283.01 492.19L282.53 492.19z" stroke="none" fill="#000000" fill-rule="evenodd" /><path transform="matrix(1 0 0 -1 0 841)" d="M346.27 120.86L346.75 120.86L346.75 120.86L346.75 492.19L346.75 492.19L346.27 492.19z" stroke="none" fill="#000000" fill-rule="evenodd" /><path transform="matrix(1 0 0 -1 0 841)" d="M537.7 120.86L538.1801 120.86L538.1801 120.86L538.1801 492.19L538.1801 492.19L537.7 492.19z" stroke="none" fill="#000000" fill-rule="evenodd" /><g clip-path="url(#113)"><g clip-path="url(#114)"></g><g clip-path="url(#115)"></g></g><g clip-path="url(#116)"><g clip-path="url(#117)"></g><g clip-path="url(#118)"></g></g><g clip-path="url(#119)"><g clip-path="url(#120)"></g><g clip-path="url(#121)"></g></g><g clip-path="url(#122)"><g clip-path="url(#123)"></g></g><g clip-path="url(#124)"><g clip-path="url(#125)"></g><g clip-path="url(#126)"></g><g clip-path="url(#127)"></g><g clip-path="url(#128)"></g><g clip-path="url(#129)"></g></g><path transform="matrix(1 0 0 -1 0 841)" d="M84.264 120.38L84.744 120.38L84.744 120.38L84.744 120.86L84.744 120.86L84.264 120.86z" stroke="none" fill="#000000" fill-rule="evenodd" /><path transform="matrix(1 0 0 -1 0 841)" d="M84.744 120.38L180.264 120.38L180.264 120.38L180.264 120.86L180.264 120.86L84.744 120.86z" stroke="none" fill="#000000" fill-rule="evenodd" /><path transform="matrix(1 0 0 -1 0 841)" d="M180.26 120.38L180.74 120.38L180.74 120.38L180.74 120.86L180.74 120.86L180.26 120.86z" stroke="none" fill="#000000" fill-rule="evenodd" /><path transform="matrix(1 0 0 -1 0 841)" d="M180.74 120.38L231.644 120.38L231.644 120.38L231.644 120.86L231.644 120.86L180.74 120.86z" stroke="none" fill="#000000" fill-rule="evenodd" /><path transform="matrix(1 0 0 -1 0 841)" d="M231.65 120.38L232.13 120.38L232.13 120.38L232.13 120.86L232.13 120.86L231.65 120.86z" stroke="none" fill="#000000" fill-rule="evenodd" /><path transform="matrix(1 0 0 -1 0 841)" d="M232.13 120.38L282.53 120.38L282.53 120.38L282.53 120.86L282.53 120.86L232.13 120.86z" stroke="none" fill="#000000" fill-rule="evenodd" /><path transform="matrix(1 0 0 -1 0 841)" d="M282.53 120.38L283.01 120.38L283.01 120.38L283.01 120.86L283.01 120.86L282.53 120.86z" stroke="none" fill="#000000" fill-rule="evenodd" /><path transform="matrix(1 0 0 -1 0 841)" d="M283.01 120.38L346.274 120.38L346.274 120.38L346.274 120.86L346.274 120.86L283.01 120.86z" stroke="none" fill="#000000" fill-rule="evenodd" /><path transform="matrix(1 0 0 -1 0 841)" d="M346.27 120.38L346.75 120.38L346.75 120.38L346.75 120.86L346.75 120.86L346.27 120.86z" stroke="none" fill="#000000" fill-rule="evenodd" /><path transform="matrix(1 0 0 -1 0 841)" d="M346.75 120.38L537.69 120.38L537.69 120.38L537.69 120.86L537.69 120.86L346.75 120.86z" stroke="none" fill="#000000" fill-rule="evenodd" /><path transform="matrix(1 0 0 -1 0 841)" d="M537.7 120.38L538.1801 120.38L538.1801 120.38L538.1801 120.86L538.1801 120.86L537.7 120.86z" stroke="none" fill="#000000" fill-rule="evenodd" /><path transform="matrix(1 0 0 -1 0 841)" d="M84.264 92.664L84.744 92.664L84.744 92.664L84.744 120.384L84.744 120.384L84.264 120.384z" stroke="none" fill="#000000" fill-rule="evenodd" /><path transform="matrix(1 0 0 -1 0 841)" d="M84.264 92.184L84.744 92.184L84.744 92.184L84.744 92.66404L84.744 92.66404L84.264 92.66404z" stroke="none" fill="#000000" fill-rule="evenodd" /><path transform="matrix(1 0 0 -1 0 841)" d="M84.264 92.184L84.744 92.184L84.744 92.184L84.744 92.66404L84.744 92.66404L84.264 92.66404z" stroke="none" fill="#000000" fill-rule="evenodd" /><path transform="matrix(1 0 0 -1 0 841)" d="M84.744 92.184L180.264 92.184L180.264 92.184L180.264 92.66404L180.264 92.66404L84.744 92.66404z" stroke="none" fill="#000000" fill-rule="evenodd" /><path transform="matrix(1 0 0 -1 0 841)" d="M180.26 92.664L180.74 92.664L180.74 92.664L180.74 120.384L180.74 120.384L180.26 120.384z" stroke="none" fill="#000000" fill-rule="evenodd" /><path transform="matrix(1 0 0 -1 0 841)" d="M180.26 92.184L180.74 92.184L180.74 92.184L180.74 92.66404L180.74 92.66404L180.26 92.66404z" stroke="none" fill="#000000" fill-rule="evenodd" /><path transform="matrix(1 0 0 -1 0 841)" d="M180.74 92.184L231.644 92.184L231.644 92.184L231.644 92.66404L231.644 92.66404L180.74 92.66404z" stroke="none" fill="#000000" fill-rule="evenodd" /><path transform="matrix(1 0 0 -1 0 841)" d="M231.65 92.664L232.13 92.664L232.13 92.664L232.13 120.384L232.13 120.384L231.65 120.384z" stroke="none" fill="#000000" fill-rule="evenodd" /><path transform="matrix(1 0 0 -1 0 841)" d="M231.65 92.184L232.13 92.184L232.13 92.184L232.13 92.66404L232.13 92.66404L231.65 92.66404z" stroke="none" fill="#000000" fill-rule="evenodd" /><path transform="matrix(1 0 0 -1 0 841)" d="M232.13 92.184L282.53 92.184L282.53 92.184L282.53 92.66404L282.53 92.66404L232.13 92.66404z" stroke="none" fill="#000000" fill-rule="evenodd" /><path transform="matrix(1 0 0 -1 0 841)" d="M282.53 92.664L283.01 92.664L283.01 92.664L283.01 120.384L283.01 120.384L282.53 120.384z" stroke="none" fill="#000000" fill-rule="evenodd" /><path transform="matrix(1 0 0 -1 0 841)" d="M282.53 92.184L283.01 92.184L283.01 92.184L283.01 92.66404L283.01 92.66404L282.53 92.66404z" stroke="none" fill="#000000" fill-rule="evenodd" /><path transform="matrix(1 0 0 -1 0 841)" d="M283.01 92.184L346.274 92.184L346.274 92.184L346.274 92.66404L346.274 92.66404L283.01 92.66404z" stroke="none" fill="#000000" fill-rule="evenodd" /><path transform="matrix(1 0 0 -1 0 841)" d="M346.27 92.664L346.75 92.664L346.75 92.664L346.75 120.384L346.75 120.384L346.27 120.384z" stroke="none" fill="#000000" fill-rule="evenodd" /><path transform="matrix(1 0 0 -1 0 841)" d="M346.27 92.184L346.75 92.184L346.75 92.184L346.75 92.66404L346.75 92.66404L346.27 92.66404z" stroke="none" fill="#000000" fill-rule="evenodd" /><path transform="matrix(1 0 0 -1 0 841)" d="M346.75 92.184L537.69 92.184L537.69 92.184L537.69 92.66404L537.69 92.66404L346.75 92.66404z" stroke="none" fill="#000000" fill-rule="evenodd" /><path transform="matrix(1 0 0 -1 0 841)" d="M537.7 92.664L538.1801 92.664L538.1801 92.664L538.1801 120.384L538.1801 120.384L537.7 120.384z" stroke="none" fill="#000000" fill-rule="evenodd" /><path transform="matrix(1 0 0 -1 0 841)" d="M537.7 92.184L538.1801 92.184L538.1801 92.184L538.1801 92.66404L538.1801 92.66404L537.7 92.66404z" stroke="none" fill="#000000" fill-rule="evenodd" /><path transform="matrix(1 0 0 -1 0 841)" d="M537.7 92.184L538.1801 92.184L538.1801 92.184L538.1801 92.66404L538.1801 92.66404L537.7 92.66404z" stroke="none" fill="#000000" fill-rule="evenodd" /></g></g></g></svg>