<svg xmlns="http://www.w3.org/2000/svg" xmlns:xlink="http://www.w3.org/1999/xlink" id="body_113" preserveAspectRatio="xMinYMin meet" viewBox="0 0 1121 793"><defs><clipPath id="1"><path d="M0 595L0 -0.3200073L0 -0.3200073L841.92 -0.3200073L841.92 -0.3200073L841.92 595L841.92 595L0 595z" /></clipPath><clipPath id="2"><path d="M0.00125 595.0913L842.0112 595.0913L842.0112 595.0913L842.0112 -0.3186646L842.0112 -0.3186646L0.00125 -0.3186646z" /></clipPath><clipPath id="3"><path d="M288.05 535.211L316.01 535.211L316.01 535.211L316.01 516.011L316.01 516.011L288.05 516.011z" /></clipPath><clipPath id="4"><path d="M288.05 535.216L316.01 535.216L316.01 535.216L316.01 516.016L316.01 516.016L288.05 516.016z" /></clipPath><clipPath id="5"><path d="M288.05 535.216L316.01 535.216L316.01 535.216L316.01 516.016L316.01 516.016L288.05 516.016z" /></clipPath><clipPath id="6"><path d="M84.721 289.89L192.031 289.89L192.031 289.89L192.031 252.45L192.031 252.45L84.721 252.45z" /></clipPath><clipPath id="7"><path d="M84.72 289.89L192.02 289.89L192.02 289.89L192.02 252.45L192.02 252.45L84.72 252.45z" /></clipPath><clipPath id="8"><path d="M84.72 289.89L192.02 289.89L192.02 289.89L192.02 252.45L192.02 252.45L84.72 252.45z" /></clipPath><clipPath id="9"><path d="M192.51 289.89L267.75 289.89L267.75 289.89L267.75 252.45L267.75 252.45L192.51 252.45z" /></clipPath><clipPath id="10"><path d="M192.5 289.89L267.74 289.89L267.74 289.89L267.74 252.45L267.74 252.45L192.5 252.45z" /></clipPath><clipPath id="11"><path d="M192.5 289.89L267.74 289.89L267.74 289.89L267.74 252.45L267.74 252.45L192.5 252.45z" /></clipPath><clipPath id="12"><path d="M268.23 289.89L324.405 289.89L324.405 289.89L324.405 252.45L324.405 252.45L268.23 252.45z" /></clipPath><clipPath id="13"><path d="M268.22 289.89L324.404 289.89L324.404 289.89L324.404 252.45L324.404 252.45L268.22 252.45z" /></clipPath><clipPath id="14"><path d="M268.22 289.89L324.404 289.89L324.404 289.89L324.404 252.45L324.404 252.45L268.22 252.45z" /></clipPath><clipPath id="15"><path d="M325.01 289.89L471.29 289.89L471.29 289.89L471.29 252.45L471.29 252.45L325.01 252.45z" /></clipPath><clipPath id="16"><path d="M325.01 289.89L471.29 289.89L471.29 289.89L471.29 252.45L471.29 252.45L325.01 252.45z" /></clipPath><clipPath id="17"><path d="M325.01 289.89L471.29 289.89L471.29 289.89L471.29 252.45L471.29 252.45L325.01 252.45z" /></clipPath><clipPath id="18"><path d="M471.8 289.89L725.86 289.89L725.86 289.89L725.86 252.45L725.86 252.45L471.8 252.45z" /></clipPath><clipPath id="19"><path d="M471.79 289.89L725.85 289.89L725.85 289.89L725.85 252.45L725.85 252.45L471.79 252.45z" /></clipPath><clipPath id="20"><path d="M471.79 289.89L725.85 289.89L725.85 289.89L725.85 252.45L725.85 252.45L471.79 252.45z" /></clipPath><clipPath id="21"><path d="M84.721 317.97L192.031 317.97L192.031 317.97L192.031 290.37L192.031 290.37L84.721 290.37z" /></clipPath><clipPath id="22"><path d="M84.72 317.97L192.02 317.97L192.02 317.97L192.02 290.37L192.02 290.37L84.72 290.37z" /></clipPath><clipPath id="23"><path d="M84.72 317.97L192.02 317.97L192.02 317.97L192.02 290.37L192.02 290.37L84.72 290.37z" /></clipPath><clipPath id="24"><path d="M192.51 317.97L267.75 317.97L267.75 317.97L267.75 290.37L267.75 290.37L192.51 290.37z" /></clipPath><clipPath id="25"><path d="M192.5 317.97L267.74 317.97L267.74 317.97L267.74 290.37L267.74 290.37L192.5 290.37z" /></clipPath><clipPath id="26"><path d="M192.5 317.97L267.74 317.97L267.74 317.97L267.74 290.37L267.74 290.37L192.5 290.37z" /></clipPath><clipPath id="27"><path d="M268.23 317.97L324.405 317.97L324.405 317.97L324.405 290.37L324.405 290.37L268.23 290.37z" /></clipPath><clipPath id="28"><path d="M268.22 317.97L324.404 317.97L324.404 317.97L324.404 290.37L324.404 290.37L268.22 290.37z" /></clipPath><clipPath id="29"><path d="M268.22 317.97L324.404 317.97L324.404 317.97L324.404 290.37L324.404 290.37L268.22 290.37z" /></clipPath><clipPath id="30"><path d="M325.01 317.97L471.29 317.97L471.29 317.97L471.29 290.37L471.29 290.37L325.01 290.37z" /></clipPath><clipPath id="31"><path d="M325.01 317.97L471.29 317.97L471.29 317.97L471.29 290.37L471.29 290.37L325.01 290.37z" /></clipPath><clipPath id="32"><path d="M325.01 317.97L471.29 317.97L471.29 317.97L471.29 290.37L471.29 290.37L325.01 290.37z" /></clipPath><clipPath id="33"><path d="M471.8 317.97L725.86 317.97L725.86 317.97L725.86 290.37L725.86 290.37L471.8 290.37z" /></clipPath><clipPath id="34"><path d="M471.79 317.97L725.85 317.97L725.85 317.97L725.85 290.37L725.85 290.37L471.79 290.37z" /></clipPath><clipPath id="35"><path d="M471.79 317.97L725.85 317.97L725.85 317.97L725.85 290.37L725.85 290.37L471.79 290.37z" /></clipPath><clipPath id="36"><path d="M84.721 492.13L192.031 492.13L192.031 492.13L192.031 318.44L192.031 318.44L84.721 318.44z" /></clipPath><clipPath id="37"><path d="M84.72 492.14L192.02 492.14L192.02 492.14L192.02 318.45L192.02 318.45L84.72 318.45z" /></clipPath><clipPath id="38"><path d="M84.72 492.14L192.02 492.14L192.02 492.14L192.02 318.45L192.02 318.45L84.72 318.45z" /></clipPath><clipPath id="39"><path d="M192.51 492.13L267.75 492.13L267.75 492.13L267.75 318.44L267.75 318.44L192.51 318.44z" /></clipPath><clipPath id="40"><path d="M192.5 492.14L267.74 492.14L267.74 492.14L267.74 318.45L267.74 318.45L192.5 318.45z" /></clipPath><clipPath id="41"><path d="M192.5 492.14L267.74 492.14L267.74 492.14L267.74 318.45L267.74 318.45L192.5 318.45z" /></clipPath><clipPath id="42"><path d="M268.23 492.13L324.405 492.13L324.405 492.13L324.405 318.44L324.405 318.44L268.23 318.44z" /></clipPath><clipPath id="43"><path d="M268.22 492.14L324.404 492.14L324.404 492.14L324.404 318.45L324.404 318.45L268.22 318.45z" /></clipPath><clipPath id="44"><path d="M268.22 492.14L324.404 492.14L324.404 492.14L324.404 318.45L324.404 318.45L268.22 318.45z" /></clipPath><clipPath id="45"><path d="M325.01 492.13L471.29 492.13L471.29 492.13L471.29 318.44L471.29 318.44L325.01 318.44z" /></clipPath><clipPath id="46"><path d="M325.01 492.14L471.29 492.14L471.29 492.14L471.29 318.45L471.29 318.45L325.01 318.45z" /></clipPath><clipPath id="47"><path d="M325.01 492.14L471.29 492.14L471.29 492.14L471.29 318.45L471.29 318.45L325.01 318.45z" /></clipPath><clipPath id="48"><path d="M494.48 492.13L700.66 492.13L700.66 492.13L700.66 350.75L700.66 350.75L494.48 350.75z" /></clipPath><clipPath id="49"><path d="M503.95 378.95L549.31 378.95L549.31 378.95L549.31 351.23L549.31 351.23L503.95 351.23z" /></clipPath><clipPath id="50"><path d="M503.95 378.95L549.31 378.95L549.31 378.95L549.31 351.23L549.31 351.23L503.95 351.23z" /></clipPath><clipPath id="51"><path d="M503.95 378.95L549.31 378.95L549.31 378.95L549.31 351.23L549.31 351.23L503.95 351.23z" /></clipPath><clipPath id="52"><path d="M549.79 378.95L691.05 378.95L691.05 378.95L691.05 351.23L691.05 351.23L549.79 351.23z" /></clipPath><clipPath id="53"><path d="M549.79 378.95L691.05 378.95L691.05 378.95L691.05 351.23L691.05 351.23L549.79 351.23z" /></clipPath><clipPath id="54"><path d="M549.79 378.95L691.05 378.95L691.05 378.95L691.05 351.23L691.05 351.23L549.79 351.23z" /></clipPath><clipPath id="55"><path d="M503.95 407.03L549.31 407.03L549.31 407.03L549.31 379.43L549.31 379.43L503.95 379.43z" /></clipPath><clipPath id="56"><path d="M503.95 407.03L549.31 407.03L549.31 407.03L549.31 379.43L549.31 379.43L503.95 379.43z" /></clipPath><clipPath id="57"><path d="M503.95 407.03L549.31 407.03L549.31 407.03L549.31 379.43L549.31 379.43L503.95 379.43z" /></clipPath><clipPath id="58"><path d="M549.79 407.03L691.05 407.03L691.05 407.03L691.05 379.43L691.05 379.43L549.79 379.43z" /></clipPath><clipPath id="59"><path d="M549.79 407.03L691.05 407.03L691.05 407.03L691.05 379.43L691.05 379.43L549.79 379.43z" /></clipPath><clipPath id="60"><path d="M549.79 407.03L691.05 407.03L691.05 407.03L691.05 379.43L691.05 379.43L549.79 379.43z" /></clipPath><clipPath id="61"><path d="M503.95 435.23L549.31 435.23L549.31 435.23L549.31 407.63L549.31 407.63L503.95 407.63z" /></clipPath><clipPath id="62"><path d="M503.95 435.23L549.31 435.23L549.31 435.23L549.31 407.63L549.31 407.63L503.95 407.63z" /></clipPath><clipPath id="63"><path d="M503.95 435.23L549.31 435.23L549.31 435.23L549.31 407.63L549.31 407.63L503.95 407.63z" /></clipPath><clipPath id="64"><path d="M549.79 435.23L691.05 435.23L691.05 435.23L691.05 407.63L691.05 407.63L549.79 407.63z" /></clipPath><clipPath id="65"><path d="M549.79 435.23L691.05 435.23L691.05 435.23L691.05 407.63L691.05 407.63L549.79 407.63z" /></clipPath><clipPath id="66"><path d="M549.79 435.23L691.05 435.23L691.05 435.23L691.05 407.63L691.05 407.63L549.79 407.63z" /></clipPath><clipPath id="67"><path d="M503.95 463.43L549.31 463.43L549.31 463.43L549.31 435.71L549.31 435.71L503.95 435.71z" /></clipPath><clipPath id="68"><path d="M503.95 463.43L549.31 463.43L549.31 463.43L549.31 435.71L549.31 435.71L503.95 435.71z" /></clipPath><clipPath id="69"><path d="M503.95 463.43L549.31 463.43L549.31 463.43L549.31 435.71L549.31 435.71L503.95 435.71z" /></clipPath><clipPath id="70"><path d="M549.79 463.43L691.05 463.43L691.05 463.43L691.05 435.71L691.05 435.71L549.79 435.71z" /></clipPath><clipPath id="71"><path d="M549.79 463.43L691.05 463.43L691.05 463.43L691.05 435.71L691.05 435.71L549.79 435.71z" /></clipPath><clipPath id="72"><path d="M549.79 463.43L691.05 463.43L691.05 463.43L691.05 435.71L691.05 435.71L549.79 435.71z" /></clipPath><clipPath id="73"><path d="M503.95 491.54L549.31 491.54L549.31 491.54L549.31 463.916L549.31 463.916L503.95 463.916z" /></clipPath><clipPath id="74"><path d="M503.95 491.54L549.31 491.54L549.31 491.54L549.31 463.916L549.31 463.916L503.95 463.916z" /></clipPath><clipPath id="75"><path d="M503.95 491.54L549.31 491.54L549.31 491.54L549.31 463.916L549.31 463.916L503.95 463.916z" /></clipPath><clipPath id="76"><path d="M549.79 491.54L691.05 491.54L691.05 491.54L691.05 463.916L691.05 463.916L549.79 463.916z" /></clipPath><clipPath id="77"><path d="M549.79 491.54L691.05 491.54L691.05 491.54L691.05 463.916L691.05 463.916L549.79 463.916z" /></clipPath><clipPath id="78"><path d="M549.79 491.54L691.05 491.54L691.05 491.54L691.05 463.916L691.05 463.916L549.79 463.916z" /></clipPath><clipPath id="79"><path d="M75.841 168.31L762.811 168.31L762.811 168.31L762.811 89.59L762.811 89.59L75.841 89.59z" /></clipPath><clipPath id="80"><path d="M85.32 109.14L185.66 109.14L185.66 109.14L185.66 90.06003L185.66 90.06003L85.32 90.06003z" /></clipPath><clipPath id="81"><path d="M85.32 109.14L185.66 109.14L185.66 109.14L185.66 90.06003L185.66 90.06003L85.32 90.06003z" /></clipPath><clipPath id="82"><path d="M85.32 109.14L185.66 109.14L185.66 109.14L185.66 90.06003L185.66 90.06003L85.32 90.06003z" /></clipPath><clipPath id="83"><path d="M186.14 109.14L254.3 109.14L254.3 109.14L254.3 90.06003L254.3 90.06003L186.14 90.06003z" /></clipPath><clipPath id="84"><path d="M186.14 109.14L254.3 109.14L254.3 109.14L254.3 90.06003L254.3 90.06003L186.14 90.06003z" /></clipPath><clipPath id="85"><path d="M186.14 109.14L254.3 109.14L254.3 109.14L254.3 90.06003L254.3 90.06003L186.14 90.06003z" /></clipPath><clipPath id="86"><path d="M254.78 109.14L305.924 109.14L305.924 109.14L305.924 90.06003L305.924 90.06003L254.78 90.06003z" /></clipPath><clipPath id="87"><path d="M254.78 109.14L305.924 109.14L305.924 109.14L305.924 90.06003L305.924 90.06003L254.78 90.06003z" /></clipPath><clipPath id="88"><path d="M254.78 109.14L305.924 109.14L305.924 109.14L305.924 90.06003L305.924 90.06003L254.78 90.06003z" /></clipPath><clipPath id="89"><path d="M306.41 109.14L504.19 109.14L504.19 109.14L504.19 90.06003L504.19 90.06003L306.41 90.06003z" /></clipPath><clipPath id="90"><path d="M306.41 109.14L504.19 109.14L504.19 109.14L504.19 90.06003L504.19 90.06003L306.41 90.06003z" /></clipPath><clipPath id="91"><path d="M306.41 109.14L504.19 109.14L504.19 109.14L504.19 90.06003L504.19 90.06003L306.41 90.06003z" /></clipPath><clipPath id="92"><path d="M504.67 109.14L753.33 109.14L753.33 109.14L753.33 90.06003L753.33 90.06003L504.67 90.06003z" /></clipPath><clipPath id="93"><path d="M504.67 109.14L753.33 109.14L753.33 109.14L753.33 90.06003L753.33 90.06003L504.67 90.06003z" /></clipPath><clipPath id="94"><path d="M504.67 109.14L753.33 109.14L753.33 109.14L753.33 90.06003L753.33 90.06003L504.67 90.06003z" /></clipPath><clipPath id="95"><path d="M85.32 128.7L185.66 128.7L185.66 128.7L185.66 109.62L185.66 109.62L85.32 109.62z" /></clipPath><clipPath id="96"><path d="M85.32 128.7L185.66 128.7L185.66 128.7L185.66 109.62L185.66 109.62L85.32 109.62z" /></clipPath><clipPath id="97"><path d="M85.32 128.7L185.66 128.7L185.66 128.7L185.66 109.62L185.66 109.62L85.32 109.62z" /></clipPath><clipPath id="98"><path d="M186.14 128.7L254.3 128.7L254.3 128.7L254.3 109.62L254.3 109.62L186.14 109.62z" /></clipPath><clipPath id="99"><path d="M186.14 128.7L254.3 128.7L254.3 128.7L254.3 109.62L254.3 109.62L186.14 109.62z" /></clipPath><clipPath id="100"><path d="M186.14 128.7L254.3 128.7L254.3 128.7L254.3 109.62L254.3 109.62L186.14 109.62z" /></clipPath><clipPath id="101"><path d="M254.78 128.7L305.924 128.7L305.924 128.7L305.924 109.62L305.924 109.62L254.78 109.62z" /></clipPath><clipPath id="102"><path d="M254.78 128.7L305.924 128.7L305.924 128.7L305.924 109.62L305.924 109.62L254.78 109.62z" /></clipPath><clipPath id="103"><path d="M254.78 128.7L305.924 128.7L305.924 128.7L305.924 109.62L305.924 109.62L254.78 109.62z" /></clipPath><clipPath id="104"><path d="M306.41 128.7L504.19 128.7L504.19 128.7L504.19 109.62L504.19 109.62L306.41 109.62z" /></clipPath><clipPath id="105"><path d="M306.41 128.7L504.19 128.7L504.19 128.7L504.19 109.62L504.19 109.62L306.41 109.62z" /></clipPath><clipPath id="106"><path d="M306.41 128.7L504.19 128.7L504.19 128.7L504.19 109.62L504.19 109.62L306.41 109.62z" /></clipPath><clipPath id="107"><path d="M504.67 128.7L753.33 128.7L753.33 128.7L753.33 109.62L753.33 109.62L504.67 109.62z" /></clipPath><clipPath id="108"><path d="M504.67 128.7L753.33 128.7L753.33 128.7L753.33 109.62L753.33 109.62L504.67 109.62z" /></clipPath><clipPath id="109"><path d="M504.67 128.7L753.33 128.7L753.33 128.7L753.33 109.62L753.33 109.62L504.67 109.62z" /></clipPath><clipPath id="110"><path d="M85.32 148.14L185.66 148.14L185.66 148.14L185.66 129.18L185.66 129.18L85.32 129.18z" /></clipPath><clipPath id="111"><path d="M85.32 148.14L185.66 148.14L185.66 148.14L185.66 129.18L185.66 129.18L85.32 129.18z" /></clipPath><clipPath id="112"><path d="M85.32 148.14L185.66 148.14L185.66 148.14L185.66 129.18L185.66 129.18L85.32 129.18z" /></clipPath><clipPath id="113"><path d="M186.14 148.14L254.3 148.14L254.3 148.14L254.3 129.18L254.3 129.18L186.14 129.18z" /></clipPath><clipPath id="114"><path d="M186.14 148.14L254.3 148.14L254.3 148.14L254.3 129.18L254.3 129.18L186.14 129.18z" /></clipPath><clipPath id="115"><path d="M186.14 148.14L254.3 148.14L254.3 148.14L254.3 129.18L254.3 129.18L186.14 129.18z" /></clipPath><clipPath id="116"><path d="M254.78 148.14L305.924 148.14L305.924 148.14L305.924 129.18L305.924 129.18L254.78 129.18z" /></clipPath><clipPath id="117"><path d="M254.78 148.14L305.924 148.14L305.924 148.14L305.924 129.18L305.924 129.18L254.78 129.18z" /></clipPath><clipPath id="118"><path d="M254.78 148.14L305.924 148.14L305.924 148.14L305.924 129.18L305.924 129.18L254.78 129.18z" /></clipPath><clipPath id="119"><path d="M306.41 148.14L504.19 148.14L504.19 148.14L504.19 129.18L504.19 129.18L306.41 129.18z" /></clipPath><clipPath id="120"><path d="M306.41 148.14L504.19 148.14L504.19 148.14L504.19 129.18L504.19 129.18L306.41 129.18z" /></clipPath><clipPath id="121"><path d="M306.41 148.14L504.19 148.14L504.19 148.14L504.19 129.18L504.19 129.18L306.41 129.18z" /></clipPath><clipPath id="122"><path d="M504.67 148.14L753.33 148.14L753.33 148.14L753.33 129.18L753.33 129.18L504.67 129.18z" /></clipPath><clipPath id="123"><path d="M504.67 148.14L753.33 148.14L753.33 148.14L753.33 129.18L753.33 129.18L504.67 129.18z" /></clipPath><clipPath id="124"><path d="M504.67 148.14L753.33 148.14L753.33 148.14L753.33 129.18L753.33 129.18L504.67 129.18z" /></clipPath><clipPath id="125"><path d="M85.32 167.7L185.66 167.7L185.66 167.7L185.66 148.74L185.66 148.74L85.32 148.74z" /></clipPath><clipPath id="126"><path d="M85.32 167.7L185.66 167.7L185.66 167.7L185.66 148.74L185.66 148.74L85.32 148.74z" /></clipPath><clipPath id="127"><path d="M85.32 167.7L185.66 167.7L185.66 167.7L185.66 148.74L185.66 148.74L85.32 148.74z" /></clipPath><clipPath id="128"><path d="M186.14 167.7L254.3 167.7L254.3 167.7L254.3 148.74L254.3 148.74L186.14 148.74z" /></clipPath><clipPath id="129"><path d="M186.14 167.7L254.3 167.7L254.3 167.7L254.3 148.74L254.3 148.74L186.14 148.74z" /></clipPath><clipPath id="130"><path d="M186.14 167.7L254.3 167.7L254.3 167.7L254.3 148.74L254.3 148.74L186.14 148.74z" /></clipPath><clipPath id="131"><path d="M254.78 167.7L305.924 167.7L305.924 167.7L305.924 148.74L305.924 148.74L254.78 148.74z" /></clipPath><clipPath id="132"><path d="M254.78 167.7L305.924 167.7L305.924 167.7L305.924 148.74L305.924 148.74L254.78 148.74z" /></clipPath><clipPath id="133"><path d="M254.78 167.7L305.924 167.7L305.924 167.7L305.924 148.74L305.924 148.74L254.78 148.74z" /></clipPath><clipPath id="134"><path d="M306.41 167.7L504.19 167.7L504.19 167.7L504.19 148.74L504.19 148.74L306.41 148.74z" /></clipPath><clipPath id="135"><path d="M306.41 167.7L504.19 167.7L504.19 167.7L504.19 148.74L504.19 148.74L306.41 148.74z" /></clipPath><clipPath id="136"><path d="M504.67 167.7L753.33 167.7L753.33 167.7L753.33 148.74L753.33 148.74L504.67 148.74z" /></clipPath><clipPath id="137"><path d="M504.67 167.7L753.33 167.7L753.33 167.7L753.33 148.74L753.33 148.74L504.67 148.74z" /></clipPath><clipPath id="138"><path d="M504.67 167.7L753.33 167.7L753.33 167.7L753.33 148.74L753.33 148.74L504.67 148.74z" /></clipPath></defs><g transform="matrix(1.333333 0 0 1.333333 0 0)"><g><g clip-path="url(#1)"><path transform="matrix(1 0 0 -1 0 595)" d="M704.14 53.304L752.14 53.304L752.14 53.304L752.14 53.90398L752.14 53.90398L704.14 53.90398z" stroke="none" fill="#000000" fill-rule="evenodd" /><g clip-path="url(#2)"><path transform="matrix(1 0 0 -1 0 595)" d="M88.44 77.904L753.58 77.904L753.58 77.904L753.58 80.904L753.58 80.904L88.44 80.904z" stroke="none" fill="#000000" fill-rule="evenodd" /><path transform="matrix(1 0 0 -1 0 595)" d="M88.44 76.464L753.58 76.464L753.58 76.464L753.58 77.18403L753.58 77.18403L88.44 77.18403z" stroke="none" fill="#000000" fill-rule="evenodd" /></g><g clip-path="url(#3)"><g clip-path="url(#4)"></g><g clip-path="url(#5)"></g></g><path transform="matrix(1 0 0 -1 0 595)" d="M84.72 305.11L192.02 305.11L192.02 305.11L192.02 342.55L192.02 342.55L84.72 342.55z" stroke="none" fill="#0070C0" fill-rule="evenodd" /><g clip-path="url(#6)"><path transform="matrix(1 0 0 -1 0 595)" d="M89.88 314.83L186.864 314.83L186.864 314.83L186.864 342.55L186.864 342.55L89.88 342.55z" stroke="none" fill="#0070C0" fill-rule="evenodd" /><g clip-path="url(#7)"></g><g clip-path="url(#8)"></g></g><path transform="matrix(1 0 0 -1 0 595)" d="M192.5 305.11L267.74 305.11L267.74 305.11L267.74 342.55L267.74 342.55L192.5 342.55z" stroke="none" fill="#0070C0" fill-rule="evenodd" /><g clip-path="url(#9)"><path transform="matrix(1 0 0 -1 0 595)" d="M197.66 314.83L262.58 314.83L262.58 314.83L262.58 342.55L262.58 342.55L197.66 342.55z" stroke="none" fill="#0070C0" fill-rule="evenodd" /><g clip-path="url(#10)"></g><g clip-path="url(#11)"></g></g><path transform="matrix(1 0 0 -1 0 595)" d="M268.22 305.11L324.404 305.11L324.404 305.11L324.404 342.55L324.404 342.55L268.22 342.55z" stroke="none" fill="#0070C0" fill-rule="evenodd" /><g clip-path="url(#12)"><path transform="matrix(1 0 0 -1 0 595)" d="M273.38 314.83L319.244 314.83L319.244 314.83L319.244 342.55L319.244 342.55L273.38 342.55z" stroke="none" fill="#0070C0" fill-rule="evenodd" /><g clip-path="url(#13)"></g><g clip-path="url(#14)"></g></g><path transform="matrix(1 0 0 -1 0 595)" d="M325.01 305.11L471.29 305.11L471.29 305.11L471.29 342.55L471.29 342.55L325.01 342.55z" stroke="none" fill="#0070C0" fill-rule="evenodd" /><g clip-path="url(#15)"><path transform="matrix(1 0 0 -1 0 595)" d="M330.05 314.83L466.13 314.83L466.13 314.83L466.13 342.55L466.13 342.55L330.05 342.55z" stroke="none" fill="#0070C0" fill-rule="evenodd" /><g clip-path="url(#16)"></g><g clip-path="url(#17)"></g></g><path transform="matrix(1 0 0 -1 0 595)" d="M471.79 305.11L725.85 305.11L725.85 305.11L725.85 342.55L725.85 342.55L471.79 342.55z" stroke="none" fill="#0070C0" fill-rule="evenodd" /><g clip-path="url(#18)"><path transform="matrix(1 0 0 -1 0 595)" d="M476.95 314.83L720.69 314.83L720.69 314.83L720.69 342.55L720.69 342.55L476.95 342.55z" stroke="none" fill="#0070C0" fill-rule="evenodd" /><g clip-path="url(#19)"></g><g clip-path="url(#20)"></g></g><path transform="matrix(1 0 0 -1 0 595)" d="M84.24 342.55L84.72 342.55L84.72 342.55L84.72 343.03L84.72 343.03L84.24 343.03z" stroke="none" fill="#000000" fill-rule="evenodd" /><path transform="matrix(1 0 0 -1 0 595)" d="M84.24 342.55L84.72 342.55L84.72 342.55L84.72 343.03L84.72 343.03L84.24 343.03z" stroke="none" fill="#000000" fill-rule="evenodd" /><path transform="matrix(1 0 0 -1 0 595)" d="M84.72 342.55L192.02 342.55L192.02 342.55L192.02 343.03L192.02 343.03L84.72 343.03z" stroke="none" fill="#000000" fill-rule="evenodd" /><path transform="matrix(1 0 0 -1 0 595)" d="M192.02 342.55L192.5 342.55L192.5 342.55L192.5 343.03L192.5 343.03L192.02 343.03z" stroke="none" fill="#000000" fill-rule="evenodd" /><path transform="matrix(1 0 0 -1 0 595)" d="M192.5 342.55L267.74 342.55L267.74 342.55L267.74 343.03L267.74 343.03L192.5 343.03z" stroke="none" fill="#000000" fill-rule="evenodd" /><path transform="matrix(1 0 0 -1 0 595)" d="M267.74 342.55L268.22 342.55L268.22 342.55L268.22 343.03L268.22 343.03L267.74 343.03z" stroke="none" fill="#000000" fill-rule="evenodd" /><path transform="matrix(1 0 0 -1 0 595)" d="M268.22 342.55L324.524 342.55L324.524 342.55L324.524 343.03L324.524 343.03L268.22 343.03z" stroke="none" fill="#000000" fill-rule="evenodd" /><path transform="matrix(1 0 0 -1 0 595)" d="M324.53 342.55L325.01 342.55L325.01 342.55L325.01 343.03L325.01 343.03L324.53 343.03z" stroke="none" fill="#000000" fill-rule="evenodd" /><path transform="matrix(1 0 0 -1 0 595)" d="M325.01 342.55L471.29 342.55L471.29 342.55L471.29 343.03L471.29 343.03L325.01 343.03z" stroke="none" fill="#000000" fill-rule="evenodd" /><path transform="matrix(1 0 0 -1 0 595)" d="M471.29 342.55L471.794 342.55L471.794 342.55L471.794 343.03L471.794 343.03L471.29 343.03z" stroke="none" fill="#000000" fill-rule="evenodd" /><path transform="matrix(1 0 0 -1 0 595)" d="M471.79 342.55L725.85 342.55L725.85 342.55L725.85 343.03L725.85 343.03L471.79 343.03z" stroke="none" fill="#000000" fill-rule="evenodd" /><path transform="matrix(1 0 0 -1 0 595)" d="M725.86 342.55L726.34 342.55L726.34 342.55L726.34 343.03L726.34 343.03L725.86 343.03z" stroke="none" fill="#000000" fill-rule="evenodd" /><path transform="matrix(1 0 0 -1 0 595)" d="M725.86 342.55L726.34 342.55L726.34 342.55L726.34 343.03L726.34 343.03L725.86 343.03z" stroke="none" fill="#000000" fill-rule="evenodd" /><path transform="matrix(1 0 0 -1 0 595)" d="M84.24 305.11L84.72 305.11L84.72 305.11L84.72 342.55L84.72 342.55L84.24 342.55z" stroke="none" fill="#000000" fill-rule="evenodd" /><path transform="matrix(1 0 0 -1 0 595)" d="M192.02 305.11L192.5 305.11L192.5 305.11L192.5 342.55L192.5 342.55L192.02 342.55z" stroke="none" fill="#000000" fill-rule="evenodd" /><path transform="matrix(1 0 0 -1 0 595)" d="M267.74 305.11L268.22 305.11L268.22 305.11L268.22 342.55L268.22 342.55L267.74 342.55z" stroke="none" fill="#000000" fill-rule="evenodd" /><path transform="matrix(1 0 0 -1 0 595)" d="M324.53 305.11L325.01 305.11L325.01 305.11L325.01 342.55L325.01 342.55L324.53 342.55z" stroke="none" fill="#000000" fill-rule="evenodd" /><path transform="matrix(1 0 0 -1 0 595)" d="M471.29 305.11L471.794 305.11L471.794 305.11L471.794 342.55L471.794 342.55L471.29 342.55z" stroke="none" fill="#000000" fill-rule="evenodd" /><path transform="matrix(1 0 0 -1 0 595)" d="M725.86 305.11L726.34 305.11L726.34 305.11L726.34 342.55L726.34 342.55L725.86 342.55z" stroke="none" fill="#000000" fill-rule="evenodd" /><path transform="matrix(1 0 0 -1 0 595)" d="M84.72 277.03L192.02 277.03L192.02 277.03L192.02 304.63L192.02 304.63L84.72 304.63z" stroke="none" fill="#DAEEF3" fill-rule="evenodd" /><g clip-path="url(#21)"><path transform="matrix(1 0 0 -1 0 595)" d="M89.88 278.11L186.864 278.11L186.864 278.11L186.864 304.63L186.864 304.63L89.88 304.63z" stroke="none" fill="#DAEEF3" fill-rule="evenodd" /><g clip-path="url(#22)"></g><g clip-path="url(#23)"></g></g><path transform="matrix(1 0 0 -1 0 595)" d="M192.5 277.03L267.74 277.03L267.74 277.03L267.74 304.63L267.74 304.63L192.5 304.63z" stroke="none" fill="#DAEEF3" fill-rule="evenodd" /><g clip-path="url(#24)"><path transform="matrix(1 0 0 -1 0 595)" d="M197.66 278.11L262.58 278.11L262.58 278.11L262.58 304.63L262.58 304.63L197.66 304.63z" stroke="none" fill="#DAEEF3" fill-rule="evenodd" /><g clip-path="url(#25)"></g><g clip-path="url(#26)"></g></g><path transform="matrix(1 0 0 -1 0 595)" d="M268.22 277.03L324.404 277.03L324.404 277.03L324.404 304.63L324.404 304.63L268.22 304.63z" stroke="none" fill="#DAEEF3" fill-rule="evenodd" /><g clip-path="url(#27)"><path transform="matrix(1 0 0 -1 0 595)" d="M273.38 277.03L319.244 277.03L319.244 277.03L319.244 304.63L319.244 304.63L273.38 304.63z" stroke="none" fill="#DAEEF3" fill-rule="evenodd" /><g clip-path="url(#28)"></g><g clip-path="url(#29)"></g></g><path transform="matrix(1 0 0 -1 0 595)" d="M325.01 277.03L471.29 277.03L471.29 277.03L471.29 304.63L471.29 304.63L325.01 304.63z" stroke="none" fill="#DAEEF3" fill-rule="evenodd" /><g clip-path="url(#30)"><path transform="matrix(1 0 0 -1 0 595)" d="M330.05 278.11L466.13 278.11L466.13 278.11L466.13 304.63L466.13 304.63L330.05 304.63z" stroke="none" fill="#DAEEF3" fill-rule="evenodd" /><g clip-path="url(#31)"></g><g clip-path="url(#32)"></g></g><path transform="matrix(1 0 0 -1 0 595)" d="M471.79 277.03L725.85 277.03L725.85 277.03L725.85 304.63L725.85 304.63L471.79 304.63z" stroke="none" fill="#DAEEF3" fill-rule="evenodd" /><g clip-path="url(#33)"><path transform="matrix(1 0 0 -1 0 595)" d="M476.95 277.03L720.69 277.03L720.69 277.03L720.69 304.63L720.69 304.63L476.95 304.63z" stroke="none" fill="#DAEEF3" fill-rule="evenodd" /><g clip-path="url(#34)"></g><g clip-path="url(#35)"></g></g><path transform="matrix(1 0 0 -1 0 595)" d="M84.24 304.63L84.72 304.63L84.72 304.63L84.72 305.11L84.72 305.11L84.24 305.11z" stroke="none" fill="#000000" fill-rule="evenodd" /><path transform="matrix(1 0 0 -1 0 595)" d="M84.72 304.63L192.02 304.63L192.02 304.63L192.02 305.11L192.02 305.11L84.72 305.11z" stroke="none" fill="#000000" fill-rule="evenodd" /><path transform="matrix(1 0 0 -1 0 595)" d="M192.02 304.63L192.5 304.63L192.5 304.63L192.5 305.11L192.5 305.11L192.02 305.11z" stroke="none" fill="#000000" fill-rule="evenodd" /><path transform="matrix(1 0 0 -1 0 595)" d="M192.5 304.63L267.74 304.63L267.74 304.63L267.74 305.11L267.74 305.11L192.5 305.11z" stroke="none" fill="#000000" fill-rule="evenodd" /><path transform="matrix(1 0 0 -1 0 595)" d="M267.74 304.63L268.22 304.63L268.22 304.63L268.22 305.11L268.22 305.11L267.74 305.11z" stroke="none" fill="#000000" fill-rule="evenodd" /><path transform="matrix(1 0 0 -1 0 595)" d="M268.22 304.63L324.524 304.63L324.524 304.63L324.524 305.11L324.524 305.11L268.22 305.11z" stroke="none" fill="#000000" fill-rule="evenodd" /><path transform="matrix(1 0 0 -1 0 595)" d="M324.53 304.63L325.01 304.63L325.01 304.63L325.01 305.11L325.01 305.11L324.53 305.11z" stroke="none" fill="#000000" fill-rule="evenodd" /><path transform="matrix(1 0 0 -1 0 595)" d="M325.01 304.63L471.29 304.63L471.29 304.63L471.29 305.11L471.29 305.11L325.01 305.11z" stroke="none" fill="#000000" fill-rule="evenodd" /><path transform="matrix(1 0 0 -1 0 595)" d="M471.29 304.63L471.794 304.63L471.794 304.63L471.794 305.11L471.794 305.11L471.29 305.11z" stroke="none" fill="#000000" fill-rule="evenodd" /><path transform="matrix(1 0 0 -1 0 595)" d="M471.79 304.63L725.85 304.63L725.85 304.63L725.85 305.11L725.85 305.11L471.79 305.11z" stroke="none" fill="#000000" fill-rule="evenodd" /><path transform="matrix(1 0 0 -1 0 595)" d="M725.86 304.63L726.34 304.63L726.34 304.63L726.34 305.11L726.34 305.11L725.86 305.11z" stroke="none" fill="#000000" fill-rule="evenodd" /><path transform="matrix(1 0 0 -1 0 595)" d="M84.24 277.03L84.72 277.03L84.72 277.03L84.72 304.63L84.72 304.63L84.24 304.63z" stroke="none" fill="#000000" fill-rule="evenodd" /><path transform="matrix(1 0 0 -1 0 595)" d="M192.02 277.03L192.5 277.03L192.5 277.03L192.5 304.63L192.5 304.63L192.02 304.63z" stroke="none" fill="#000000" fill-rule="evenodd" /><path transform="matrix(1 0 0 -1 0 595)" d="M267.74 277.03L268.22 277.03L268.22 277.03L268.22 304.63L268.22 304.63L267.74 304.63z" stroke="none" fill="#000000" fill-rule="evenodd" /><path transform="matrix(1 0 0 -1 0 595)" d="M324.53 277.03L325.01 277.03L325.01 277.03L325.01 304.63L325.01 304.63L324.53 304.63z" stroke="none" fill="#000000" fill-rule="evenodd" /><path transform="matrix(1 0 0 -1 0 595)" d="M471.29 277.03L471.794 277.03L471.794 277.03L471.794 304.63L471.794 304.63L471.29 304.63z" stroke="none" fill="#000000" fill-rule="evenodd" /><path transform="matrix(1 0 0 -1 0 595)" d="M725.86 277.03L726.34 277.03L726.34 277.03L726.34 304.63L726.34 304.63L725.86 304.63z" stroke="none" fill="#000000" fill-rule="evenodd" /><g clip-path="url(#36)"><g clip-path="url(#37)"></g><g clip-path="url(#38)"></g></g><g clip-path="url(#39)"><g clip-path="url(#40)"></g><g clip-path="url(#41)"></g></g><g clip-path="url(#42)"><g clip-path="url(#43)"></g><g clip-path="url(#44)"></g></g><g clip-path="url(#45)"><g clip-path="url(#46)"></g><g clip-path="url(#47)"></g></g><g clip-path="url(#48)"><path transform="matrix(1 0 0 -1 0 595)" d="M503.95 216.05L549.31 216.05L549.31 216.05L549.31 243.77L549.31 243.77L503.95 243.77z" stroke="none" fill="#0070C0" fill-rule="evenodd" /><g clip-path="url(#49)"><path transform="matrix(1 0 0 -1 0 595)" d="M509.11 216.05L544.15 216.05L544.15 216.05L544.15 243.77L544.15 243.77L509.11 243.77z" stroke="none" fill="#0070C0" fill-rule="evenodd" /><g clip-path="url(#50)"></g><g clip-path="url(#51)"></g></g><path transform="matrix(1 0 0 -1 0 595)" d="M549.79 216.05L691.05 216.05L691.05 216.05L691.05 243.77L691.05 243.77L549.79 243.77z" stroke="none" fill="#0070C0" fill-rule="evenodd" /><g clip-path="url(#52)"><path transform="matrix(1 0 0 -1 0 595)" d="M554.95 216.05L685.89 216.05L685.89 216.05L685.89 243.77L685.89 243.77L554.95 243.77z" stroke="none" fill="#0070C0" fill-rule="evenodd" /><g clip-path="url(#53)"></g><g clip-path="url(#54)"></g></g><path transform="matrix(1 0 0 -1 0 595)" d="M503.47 243.77L503.95 243.77L503.95 243.77L503.95 244.25L503.95 244.25L503.47 244.25z" stroke="none" fill="#000000" fill-rule="evenodd" /><path transform="matrix(1 0 0 -1 0 595)" d="M503.47 243.77L503.95 243.77L503.95 243.77L503.95 244.25L503.95 244.25L503.47 244.25z" stroke="none" fill="#000000" fill-rule="evenodd" /><path transform="matrix(1 0 0 -1 0 595)" d="M503.95 243.77L549.31 243.77L549.31 243.77L549.31 244.25L549.31 244.25L503.95 244.25z" stroke="none" fill="#000000" fill-rule="evenodd" /><path transform="matrix(1 0 0 -1 0 595)" d="M549.31 243.77L549.79 243.77L549.79 243.77L549.79 244.25L549.79 244.25L549.31 244.25z" stroke="none" fill="#000000" fill-rule="evenodd" /><path transform="matrix(1 0 0 -1 0 595)" d="M549.79 243.77L691.17 243.77L691.17 243.77L691.17 244.25L691.17 244.25L549.79 244.25z" stroke="none" fill="#000000" fill-rule="evenodd" /><path transform="matrix(1 0 0 -1 0 595)" d="M691.18 243.77L691.66 243.77L691.66 243.77L691.66 244.25L691.66 244.25L691.18 244.25z" stroke="none" fill="#000000" fill-rule="evenodd" /><path transform="matrix(1 0 0 -1 0 595)" d="M691.18 243.77L691.66 243.77L691.66 243.77L691.66 244.25L691.66 244.25L691.18 244.25z" stroke="none" fill="#000000" fill-rule="evenodd" /><path transform="matrix(1 0 0 -1 0 595)" d="M503.47 216.05L503.95 216.05L503.95 216.05L503.95 243.77L503.95 243.77L503.47 243.77z" stroke="none" fill="#000000" fill-rule="evenodd" /><path transform="matrix(1 0 0 -1 0 595)" d="M549.31 216.05L549.79 216.05L549.79 216.05L549.79 243.77L549.79 243.77L549.31 243.77z" stroke="none" fill="#000000" fill-rule="evenodd" /><path transform="matrix(1 0 0 -1 0 595)" d="M691.18 216.05L691.66 216.05L691.66 216.05L691.66 243.77L691.66 243.77L691.18 243.77z" stroke="none" fill="#000000" fill-rule="evenodd" /><path transform="matrix(1 0 0 -1 0 595)" d="M503.95 187.97L549.31 187.97L549.31 187.97L549.31 215.57L549.31 215.57L503.95 215.57z" stroke="none" fill="#DAEEF3" fill-rule="evenodd" /><g clip-path="url(#55)"><path transform="matrix(1 0 0 -1 0 595)" d="M509.11 188.93L544.15 188.93L544.15 188.93L544.15 215.57L544.15 215.57L509.11 215.57z" stroke="none" fill="#DAEEF3" fill-rule="evenodd" /><g clip-path="url(#56)"></g><g clip-path="url(#57)"></g></g><path transform="matrix(1 0 0 -1 0 595)" d="M549.79 187.97L691.05 187.97L691.05 187.97L691.05 215.57L691.05 215.57L549.79 215.57z" stroke="none" fill="#DAEEF3" fill-rule="evenodd" /><g clip-path="url(#58)"><path transform="matrix(1 0 0 -1 0 595)" d="M554.95 187.97L685.89 187.97L685.89 187.97L685.89 215.57L685.89 215.57L554.95 215.57z" stroke="none" fill="#DAEEF3" fill-rule="evenodd" /><g clip-path="url(#59)"></g><g clip-path="url(#60)"></g></g><path transform="matrix(1 0 0 -1 0 595)" d="M503.47 215.57L503.95 215.57L503.95 215.57L503.95 216.05L503.95 216.05L503.47 216.05z" stroke="none" fill="#000000" fill-rule="evenodd" /><path transform="matrix(1 0 0 -1 0 595)" d="M503.95 215.57L549.31 215.57L549.31 215.57L549.31 216.05L549.31 216.05L503.95 216.05z" stroke="none" fill="#000000" fill-rule="evenodd" /><path transform="matrix(1 0 0 -1 0 595)" d="M549.31 215.57L549.79 215.57L549.79 215.57L549.79 216.05L549.79 216.05L549.31 216.05z" stroke="none" fill="#000000" fill-rule="evenodd" /><path transform="matrix(1 0 0 -1 0 595)" d="M549.79 215.57L691.17 215.57L691.17 215.57L691.17 216.05L691.17 216.05L549.79 216.05z" stroke="none" fill="#000000" fill-rule="evenodd" /><path transform="matrix(1 0 0 -1 0 595)" d="M691.18 215.57L691.66 215.57L691.66 215.57L691.66 216.05L691.66 216.05L691.18 216.05z" stroke="none" fill="#000000" fill-rule="evenodd" /><path transform="matrix(1 0 0 -1 0 595)" d="M503.47 187.97L503.95 187.97L503.95 187.97L503.95 215.57L503.95 215.57L503.47 215.57z" stroke="none" fill="#000000" fill-rule="evenodd" /><path transform="matrix(1 0 0 -1 0 595)" d="M549.31 187.97L549.79 187.97L549.79 187.97L549.79 215.57L549.79 215.57L549.31 215.57z" stroke="none" fill="#000000" fill-rule="evenodd" /><path transform="matrix(1 0 0 -1 0 595)" d="M691.18 187.97L691.66 187.97L691.66 187.97L691.66 215.57L691.66 215.57L691.18 215.57z" stroke="none" fill="#000000" fill-rule="evenodd" /><g clip-path="url(#61)"><g clip-path="url(#62)"></g><g clip-path="url(#63)"></g></g><g clip-path="url(#64)"><g clip-path="url(#65)"></g><g clip-path="url(#66)"></g></g><path transform="matrix(1 0 0 -1 0 595)" d="M503.47 187.49L503.95 187.49L503.95 187.49L503.95 187.97L503.95 187.97L503.47 187.97z" stroke="none" fill="#000000" fill-rule="evenodd" /><path transform="matrix(1 0 0 -1 0 595)" d="M503.95 187.49L549.31 187.49L549.31 187.49L549.31 187.97L549.31 187.97L503.95 187.97z" stroke="none" fill="#000000" fill-rule="evenodd" /><path transform="matrix(1 0 0 -1 0 595)" d="M549.31 187.49L549.79 187.49L549.79 187.49L549.79 187.97L549.79 187.97L549.31 187.97z" stroke="none" fill="#000000" fill-rule="evenodd" /><path transform="matrix(1 0 0 -1 0 595)" d="M549.79 187.49L691.17 187.49L691.17 187.49L691.17 187.97L691.17 187.97L549.79 187.97z" stroke="none" fill="#000000" fill-rule="evenodd" /><path transform="matrix(1 0 0 -1 0 595)" d="M691.18 187.49L691.66 187.49L691.66 187.49L691.66 187.97L691.66 187.97L691.18 187.97z" stroke="none" fill="#000000" fill-rule="evenodd" /><path transform="matrix(1 0 0 -1 0 595)" d="M503.47 159.77L503.95 159.77L503.95 159.77L503.95 187.49L503.95 187.49L503.47 187.49z" stroke="none" fill="#000000" fill-rule="evenodd" /><path transform="matrix(1 0 0 -1 0 595)" d="M549.31 159.77L549.79 159.77L549.79 159.77L549.79 187.49L549.79 187.49L549.31 187.49z" stroke="none" fill="#000000" fill-rule="evenodd" /><path transform="matrix(1 0 0 -1 0 595)" d="M691.18 159.77L691.66 159.77L691.66 159.77L691.66 187.49L691.66 187.49L691.18 187.49z" stroke="none" fill="#000000" fill-rule="evenodd" /><path transform="matrix(1 0 0 -1 0 595)" d="M503.95 131.57L549.31 131.57L549.31 131.57L549.31 159.29L549.31 159.29L503.95 159.29z" stroke="none" fill="#DAEEF3" fill-rule="evenodd" /><g clip-path="url(#67)"><path transform="matrix(1 0 0 -1 0 595)" d="M509.11 132.65L544.15 132.65L544.15 132.65L544.15 159.29L544.15 159.29L509.11 159.29z" stroke="none" fill="#DAEEF3" fill-rule="evenodd" /><g clip-path="url(#68)"></g><g clip-path="url(#69)"></g></g><path transform="matrix(1 0 0 -1 0 595)" d="M549.79 131.57L691.05 131.57L691.05 131.57L691.05 159.29L691.05 159.29L549.79 159.29z" stroke="none" fill="#DAEEF3" fill-rule="evenodd" /><g clip-path="url(#70)"><path transform="matrix(1 0 0 -1 0 595)" d="M554.95 131.57L685.89 131.57L685.89 131.57L685.89 159.29L685.89 159.29L554.95 159.29z" stroke="none" fill="#DAEEF3" fill-rule="evenodd" /><g clip-path="url(#71)"></g><g clip-path="url(#72)"></g></g><path transform="matrix(1 0 0 -1 0 595)" d="M503.47 159.29L503.95 159.29L503.95 159.29L503.95 159.77L503.95 159.77L503.47 159.77z" stroke="none" fill="#000000" fill-rule="evenodd" /><path transform="matrix(1 0 0 -1 0 595)" d="M503.95 159.29L549.31 159.29L549.31 159.29L549.31 159.77L549.31 159.77L503.95 159.77z" stroke="none" fill="#000000" fill-rule="evenodd" /><path transform="matrix(1 0 0 -1 0 595)" d="M549.31 159.29L549.79 159.29L549.79 159.29L549.79 159.77L549.79 159.77L549.31 159.77z" stroke="none" fill="#000000" fill-rule="evenodd" /><path transform="matrix(1 0 0 -1 0 595)" d="M549.79 159.29L691.17 159.29L691.17 159.29L691.17 159.77L691.17 159.77L549.79 159.77z" stroke="none" fill="#000000" fill-rule="evenodd" /><path transform="matrix(1 0 0 -1 0 595)" d="M691.18 159.29L691.66 159.29L691.66 159.29L691.66 159.77L691.66 159.77L691.18 159.77z" stroke="none" fill="#000000" fill-rule="evenodd" /><path transform="matrix(1 0 0 -1 0 595)" d="M503.47 131.57L503.95 131.57L503.95 131.57L503.95 159.29L503.95 159.29L503.47 159.29z" stroke="none" fill="#000000" fill-rule="evenodd" /><path transform="matrix(1 0 0 -1 0 595)" d="M549.31 131.57L549.79 131.57L549.79 131.57L549.79 159.29L549.79 159.29L549.31 159.29z" stroke="none" fill="#000000" fill-rule="evenodd" /><path transform="matrix(1 0 0 -1 0 595)" d="M691.18 131.57L691.66 131.57L691.66 131.57L691.66 159.29L691.66 159.29L691.18 159.29z" stroke="none" fill="#000000" fill-rule="evenodd" /><g clip-path="url(#73)"><g clip-path="url(#74)"></g><g clip-path="url(#75)"></g></g><g clip-path="url(#76)"><g clip-path="url(#77)"></g><g clip-path="url(#78)"></g></g><path transform="matrix(1 0 0 -1 0 595)" d="M503.47 131.09L503.95 131.09L503.95 131.09L503.95 131.57L503.95 131.57L503.47 131.57z" stroke="none" fill="#000000" fill-rule="evenodd" /><path transform="matrix(1 0 0 -1 0 595)" d="M503.95 131.09L549.31 131.09L549.31 131.09L549.31 131.57L549.31 131.57L503.95 131.57z" stroke="none" fill="#000000" fill-rule="evenodd" /><path transform="matrix(1 0 0 -1 0 595)" d="M549.31 131.09L549.79 131.09L549.79 131.09L549.79 131.57L549.79 131.57L549.31 131.57z" stroke="none" fill="#000000" fill-rule="evenodd" /><path transform="matrix(1 0 0 -1 0 595)" d="M549.79 131.09L691.17 131.09L691.17 131.09L691.17 131.57L691.17 131.57L549.79 131.57z" stroke="none" fill="#000000" fill-rule="evenodd" /><path transform="matrix(1 0 0 -1 0 595)" d="M691.18 131.09L691.66 131.09L691.66 131.09L691.66 131.57L691.66 131.57L691.18 131.57z" stroke="none" fill="#000000" fill-rule="evenodd" /><path transform="matrix(1 0 0 -1 0 595)" d="M503.47 103.34L503.95 103.34L503.95 103.34L503.95 131.084L503.95 131.084L503.47 131.084z" stroke="none" fill="#000000" fill-rule="evenodd" /><path transform="matrix(1 0 0 -1 0 595)" d="M503.47 102.86L503.95 102.86L503.95 102.86L503.95 103.34L503.95 103.34L503.47 103.34z" stroke="none" fill="#000000" fill-rule="evenodd" /><path transform="matrix(1 0 0 -1 0 595)" d="M503.47 102.86L503.95 102.86L503.95 102.86L503.95 103.34L503.95 103.34L503.47 103.34z" stroke="none" fill="#000000" fill-rule="evenodd" /><path transform="matrix(1 0 0 -1 0 595)" d="M503.95 102.86L549.31 102.86L549.31 102.86L549.31 103.34L549.31 103.34L503.95 103.34z" stroke="none" fill="#000000" fill-rule="evenodd" /><path transform="matrix(1 0 0 -1 0 595)" d="M549.31 103.34L549.79 103.34L549.79 103.34L549.79 131.084L549.79 131.084L549.31 131.084z" stroke="none" fill="#000000" fill-rule="evenodd" /><path transform="matrix(1 0 0 -1 0 595)" d="M549.31 102.86L549.79 102.86L549.79 102.86L549.79 103.34L549.79 103.34L549.31 103.34z" stroke="none" fill="#000000" fill-rule="evenodd" /><path transform="matrix(1 0 0 -1 0 595)" d="M549.79 102.86L691.17 102.86L691.17 102.86L691.17 103.34L691.17 103.34L549.79 103.34z" stroke="none" fill="#000000" fill-rule="evenodd" /><path transform="matrix(1 0 0 -1 0 595)" d="M691.18 103.34L691.66 103.34L691.66 103.34L691.66 131.084L691.66 131.084L691.18 131.084z" stroke="none" fill="#000000" fill-rule="evenodd" /><path transform="matrix(1 0 0 -1 0 595)" d="M691.18 102.86L691.66 102.86L691.66 102.86L691.66 103.34L691.66 103.34L691.18 103.34z" stroke="none" fill="#000000" fill-rule="evenodd" /><path transform="matrix(1 0 0 -1 0 595)" d="M691.18 102.86L691.66 102.86L691.66 102.86L691.66 103.34L691.66 103.34L691.18 103.34z" stroke="none" fill="#000000" fill-rule="evenodd" /></g><path transform="matrix(1 0 0 -1 0 595)" d="M84.24 276.55L84.72 276.55L84.72 276.55L84.72 277.03L84.72 277.03L84.24 277.03z" stroke="none" fill="#000000" fill-rule="evenodd" /><path transform="matrix(1 0 0 -1 0 595)" d="M84.72 276.55L192.02 276.55L192.02 276.55L192.02 277.03L192.02 277.03L84.72 277.03z" stroke="none" fill="#000000" fill-rule="evenodd" /><path transform="matrix(1 0 0 -1 0 595)" d="M192.02 276.55L192.5 276.55L192.5 276.55L192.5 277.03L192.5 277.03L192.02 277.03z" stroke="none" fill="#000000" fill-rule="evenodd" /><path transform="matrix(1 0 0 -1 0 595)" d="M192.5 276.55L267.74 276.55L267.74 276.55L267.74 277.03L267.74 277.03L192.5 277.03z" stroke="none" fill="#000000" fill-rule="evenodd" /><path transform="matrix(1 0 0 -1 0 595)" d="M267.74 276.55L268.22 276.55L268.22 276.55L268.22 277.03L268.22 277.03L267.74 277.03z" stroke="none" fill="#000000" fill-rule="evenodd" /><path transform="matrix(1 0 0 -1 0 595)" d="M268.22 276.55L324.524 276.55L324.524 276.55L324.524 277.03L324.524 277.03L268.22 277.03z" stroke="none" fill="#000000" fill-rule="evenodd" /><path transform="matrix(1 0 0 -1 0 595)" d="M324.53 276.55L325.01 276.55L325.01 276.55L325.01 277.03L325.01 277.03L324.53 277.03z" stroke="none" fill="#000000" fill-rule="evenodd" /><path transform="matrix(1 0 0 -1 0 595)" d="M325.01 276.55L471.29 276.55L471.29 276.55L471.29 277.03L471.29 277.03L325.01 277.03z" stroke="none" fill="#000000" fill-rule="evenodd" /><path transform="matrix(1 0 0 -1 0 595)" d="M471.29 276.55L471.794 276.55L471.794 276.55L471.794 277.03L471.794 277.03L471.29 277.03z" stroke="none" fill="#000000" fill-rule="evenodd" /><path transform="matrix(1 0 0 -1 0 595)" d="M471.79 276.55L725.85 276.55L725.85 276.55L725.85 277.03L725.85 277.03L471.79 277.03z" stroke="none" fill="#000000" fill-rule="evenodd" /><path transform="matrix(1 0 0 -1 0 595)" d="M725.86 276.55L726.34 276.55L726.34 276.55L726.34 277.03L726.34 277.03L725.86 277.03z" stroke="none" fill="#000000" fill-rule="evenodd" /><path transform="matrix(1 0 0 -1 0 595)" d="M84.24 102.86L84.72 102.86L84.72 102.86L84.72 276.55L84.72 276.55L84.24 276.55z" stroke="none" fill="#000000" fill-rule="evenodd" /><path transform="matrix(1 0 0 -1 0 595)" d="M84.24 102.38L84.72 102.38L84.72 102.38L84.72 102.86L84.72 102.86L84.24 102.86z" stroke="none" fill="#000000" fill-rule="evenodd" /><path transform="matrix(1 0 0 -1 0 595)" d="M84.24 102.38L84.72 102.38L84.72 102.38L84.72 102.86L84.72 102.86L84.24 102.86z" stroke="none" fill="#000000" fill-rule="evenodd" /><path transform="matrix(1 0 0 -1 0 595)" d="M84.72 102.38L192.02 102.38L192.02 102.38L192.02 102.86L192.02 102.86L84.72 102.86z" stroke="none" fill="#000000" fill-rule="evenodd" /><path transform="matrix(1 0 0 -1 0 595)" d="M192.02 102.86L192.5 102.86L192.5 102.86L192.5 276.55L192.5 276.55L192.02 276.55z" stroke="none" fill="#000000" fill-rule="evenodd" /><path transform="matrix(1 0 0 -1 0 595)" d="M192.02 102.38L192.5 102.38L192.5 102.38L192.5 102.86L192.5 102.86L192.02 102.86z" stroke="none" fill="#000000" fill-rule="evenodd" /><path transform="matrix(1 0 0 -1 0 595)" d="M192.5 102.38L267.74 102.38L267.74 102.38L267.74 102.86L267.74 102.86L192.5 102.86z" stroke="none" fill="#000000" fill-rule="evenodd" /><path transform="matrix(1 0 0 -1 0 595)" d="M267.74 102.86L268.22 102.86L268.22 102.86L268.22 276.55L268.22 276.55L267.74 276.55z" stroke="none" fill="#000000" fill-rule="evenodd" /><path transform="matrix(1 0 0 -1 0 595)" d="M267.74 102.38L268.22 102.38L268.22 102.38L268.22 102.86L268.22 102.86L267.74 102.86z" stroke="none" fill="#000000" fill-rule="evenodd" /><path transform="matrix(1 0 0 -1 0 595)" d="M268.22 102.38L324.524 102.38L324.524 102.38L324.524 102.86L324.524 102.86L268.22 102.86z" stroke="none" fill="#000000" fill-rule="evenodd" /><path transform="matrix(1 0 0 -1 0 595)" d="M324.53 102.86L325.01 102.86L325.01 102.86L325.01 276.55L325.01 276.55L324.53 276.55z" stroke="none" fill="#000000" fill-rule="evenodd" /><path transform="matrix(1 0 0 -1 0 595)" d="M324.53 102.38L325.01 102.38L325.01 102.38L325.01 102.86L325.01 102.86L324.53 102.86z" stroke="none" fill="#000000" fill-rule="evenodd" /><path transform="matrix(1 0 0 -1 0 595)" d="M325.01 102.38L471.29 102.38L471.29 102.38L471.29 102.86L471.29 102.86L325.01 102.86z" stroke="none" fill="#000000" fill-rule="evenodd" /><path transform="matrix(1 0 0 -1 0 595)" d="M471.29 102.86L471.794 102.86L471.794 102.86L471.794 276.55L471.794 276.55L471.29 276.55z" stroke="none" fill="#000000" fill-rule="evenodd" /><path transform="matrix(1 0 0 -1 0 595)" d="M471.29 102.38L471.794 102.38L471.794 102.38L471.794 102.86L471.794 102.86L471.29 102.86z" stroke="none" fill="#000000" fill-rule="evenodd" /><path transform="matrix(1 0 0 -1 0 595)" d="M471.79 102.38L725.85 102.38L725.85 102.38L725.85 102.86L725.85 102.86L471.79 102.86z" stroke="none" fill="#000000" fill-rule="evenodd" /><path transform="matrix(1 0 0 -1 0 595)" d="M725.86 102.86L726.34 102.86L726.34 102.86L726.34 276.55L726.34 276.55L725.86 276.55z" stroke="none" fill="#000000" fill-rule="evenodd" /><path transform="matrix(1 0 0 -1 0 595)" d="M725.86 102.38L726.34 102.38L726.34 102.38L726.34 102.86L726.34 102.86L725.86 102.86z" stroke="none" fill="#000000" fill-rule="evenodd" /><path transform="matrix(1 0 0 -1 0 595)" d="M725.86 102.38L726.34 102.38L726.34 102.38L726.34 102.86L726.34 102.86L725.86 102.86z" stroke="none" fill="#000000" fill-rule="evenodd" /><g clip-path="url(#79)"><path transform="matrix(1 0 0 -1 0 595)" d="M85.32 485.86L185.66 485.86L185.66 485.86L185.66 504.94L185.66 504.94L85.32 504.94z" stroke="none" fill="#DAEEF3" fill-rule="evenodd" /><g clip-path="url(#80)"><path transform="matrix(1 0 0 -1 0 595)" d="M90.48 485.86L180.504 485.86L180.504 485.86L180.504 504.94L180.504 504.94L90.48 504.94z" stroke="none" fill="#DAEEF3" fill-rule="evenodd" /><g clip-path="url(#81)"></g><g clip-path="url(#82)"></g></g><path transform="matrix(1 0 0 -1 0 595)" d="M186.14 485.86L254.3 485.86L254.3 485.86L254.3 504.94L254.3 504.94L186.14 504.94z" stroke="none" fill="#DAEEF3" fill-rule="evenodd" /><g clip-path="url(#83)"><path transform="matrix(1 0 0 -1 0 595)" d="M191.3 485.86L249.14 485.86L249.14 485.86L249.14 504.94L249.14 504.94L191.3 504.94z" stroke="none" fill="#DAEEF3" fill-rule="evenodd" /><g clip-path="url(#84)"></g><g clip-path="url(#85)"></g></g><path transform="matrix(1 0 0 -1 0 595)" d="M254.78 485.86L305.924 485.86L305.924 485.86L305.924 504.94L305.924 504.94L254.78 504.94z" stroke="none" fill="#DAEEF3" fill-rule="evenodd" /><g clip-path="url(#86)"><path transform="matrix(1 0 0 -1 0 595)" d="M259.94 485.86L300.764 485.86L300.764 485.86L300.764 504.94L300.764 504.94L259.94 504.94z" stroke="none" fill="#DAEEF3" fill-rule="evenodd" /><g clip-path="url(#87)"></g><g clip-path="url(#88)"></g></g><path transform="matrix(1 0 0 -1 0 595)" d="M306.41 485.86L504.19 485.86L504.19 485.86L504.19 504.94L504.19 504.94L306.41 504.94z" stroke="none" fill="#DAEEF3" fill-rule="evenodd" /><g clip-path="url(#89)"><path transform="matrix(1 0 0 -1 0 595)" d="M311.57 485.86L499.03 485.86L499.03 485.86L499.03 504.94L499.03 504.94L311.57 504.94z" stroke="none" fill="#DAEEF3" fill-rule="evenodd" /><g clip-path="url(#90)"></g><g clip-path="url(#91)"></g></g><path transform="matrix(1 0 0 -1 0 595)" d="M504.67 485.86L753.33 485.86L753.33 485.86L753.33 504.94L753.33 504.94L504.67 504.94z" stroke="none" fill="#DAEEF3" fill-rule="evenodd" /><g clip-path="url(#92)"><path transform="matrix(1 0 0 -1 0 595)" d="M509.83 485.86L748.17 485.86L748.17 485.86L748.17 504.94L748.17 504.94L509.83 504.94z" stroke="none" fill="#DAEEF3" fill-rule="evenodd" /><g clip-path="url(#93)"></g><g clip-path="url(#94)"></g><path transform="matrix(1 0 0 -1 0 595)" d="M509.83 487.78L565.87 487.78L565.87 487.78L565.87 488.5L565.87 488.5L509.83 488.5z" stroke="none" fill="#0000FF" fill-rule="evenodd" /></g><path transform="matrix(1 0 0 -1 0 595)" d="M84.84 504.94L85.32 504.94L85.32 504.94L85.32 505.42L85.32 505.42L84.84 505.42z" stroke="none" fill="#000000" fill-rule="evenodd" /><path transform="matrix(1 0 0 -1 0 595)" d="M84.84 504.94L85.32 504.94L85.32 504.94L85.32 505.42L85.32 505.42L84.84 505.42z" stroke="none" fill="#000000" fill-rule="evenodd" /><path transform="matrix(1 0 0 -1 0 595)" d="M85.32 504.94L185.66 504.94L185.66 504.94L185.66 505.42L185.66 505.42L85.32 505.42z" stroke="none" fill="#000000" fill-rule="evenodd" /><path transform="matrix(1 0 0 -1 0 595)" d="M185.66 504.94L186.14 504.94L186.14 504.94L186.14 505.42L186.14 505.42L185.66 505.42z" stroke="none" fill="#000000" fill-rule="evenodd" /><path transform="matrix(1 0 0 -1 0 595)" d="M186.14 504.94L254.42 504.94L254.42 504.94L254.42 505.42L254.42 505.42L186.14 505.42z" stroke="none" fill="#000000" fill-rule="evenodd" /><path transform="matrix(1 0 0 -1 0 595)" d="M254.42 504.94L254.9 504.94L254.9 504.94L254.9 505.42L254.9 505.42L254.42 505.42z" stroke="none" fill="#000000" fill-rule="evenodd" /><path transform="matrix(1 0 0 -1 0 595)" d="M254.9 504.94L306.044 504.94L306.044 504.94L306.044 505.42L306.044 505.42L254.9 505.42z" stroke="none" fill="#000000" fill-rule="evenodd" /><path transform="matrix(1 0 0 -1 0 595)" d="M306.05 504.94L306.53 504.94L306.53 504.94L306.53 505.42L306.53 505.42L306.05 505.42z" stroke="none" fill="#000000" fill-rule="evenodd" /><path transform="matrix(1 0 0 -1 0 595)" d="M306.53 504.94L504.31 504.94L504.31 504.94L504.31 505.42L504.31 505.42L306.53 505.42z" stroke="none" fill="#000000" fill-rule="evenodd" /><path transform="matrix(1 0 0 -1 0 595)" d="M504.31 504.94L504.79 504.94L504.79 504.94L504.79 505.42L504.79 505.42L504.31 505.42z" stroke="none" fill="#000000" fill-rule="evenodd" /><path transform="matrix(1 0 0 -1 0 595)" d="M504.79 504.94L753.33 504.94L753.33 504.94L753.33 505.42L753.33 505.42L504.79 505.42z" stroke="none" fill="#000000" fill-rule="evenodd" /><path transform="matrix(1 0 0 -1 0 595)" d="M753.34 504.94L753.82 504.94L753.82 504.94L753.82 505.42L753.82 505.42L753.34 505.42z" stroke="none" fill="#000000" fill-rule="evenodd" /><path transform="matrix(1 0 0 -1 0 595)" d="M753.34 504.94L753.82 504.94L753.82 504.94L753.82 505.42L753.82 505.42L753.34 505.42z" stroke="none" fill="#000000" fill-rule="evenodd" /><path transform="matrix(1 0 0 -1 0 595)" d="M84.84 485.86L85.32 485.86L85.32 485.86L85.32 504.94L85.32 504.94L84.84 504.94z" stroke="none" fill="#000000" fill-rule="evenodd" /><path transform="matrix(1 0 0 -1 0 595)" d="M185.66 485.86L186.14 485.86L186.14 485.86L186.14 504.94L186.14 504.94L185.66 504.94z" stroke="none" fill="#000000" fill-rule="evenodd" /><path transform="matrix(1 0 0 -1 0 595)" d="M254.42 485.86L254.9 485.86L254.9 485.86L254.9 504.94L254.9 504.94L254.42 504.94z" stroke="none" fill="#000000" fill-rule="evenodd" /><path transform="matrix(1 0 0 -1 0 595)" d="M306.05 485.86L306.53 485.86L306.53 485.86L306.53 504.94L306.53 504.94L306.05 504.94z" stroke="none" fill="#000000" fill-rule="evenodd" /><path transform="matrix(1 0 0 -1 0 595)" d="M504.31 485.86L504.79 485.86L504.79 485.86L504.79 504.94L504.79 504.94L504.31 504.94z" stroke="none" fill="#000000" fill-rule="evenodd" /><path transform="matrix(1 0 0 -1 0 595)" d="M753.34 485.86L753.82 485.86L753.82 485.86L753.82 504.94L753.82 504.94L753.34 504.94z" stroke="none" fill="#000000" fill-rule="evenodd" /><g clip-path="url(#95)"><g clip-path="url(#96)"></g><g clip-path="url(#97)"></g></g><g clip-path="url(#98)"><g clip-path="url(#99)"></g><g clip-path="url(#100)"></g></g><g clip-path="url(#101)"><g clip-path="url(#102)"></g><g clip-path="url(#103)"></g></g><g clip-path="url(#104)"><g clip-path="url(#105)"></g><g clip-path="url(#106)"></g></g><g clip-path="url(#107)"><g clip-path="url(#108)"></g><g clip-path="url(#109)"></g><path transform="matrix(1 0 0 -1 0 595)" d="M509.83 468.22L565.87 468.22L565.87 468.22L565.87 468.94L565.87 468.94L509.83 468.94z" stroke="none" fill="#0000FF" fill-rule="evenodd" /></g><path transform="matrix(1 0 0 -1 0 595)" d="M84.84 485.38L85.32 485.38L85.32 485.38L85.32 485.86L85.32 485.86L84.84 485.86z" stroke="none" fill="#000000" fill-rule="evenodd" /><path transform="matrix(1 0 0 -1 0 595)" d="M85.32 485.38L185.66 485.38L185.66 485.38L185.66 485.86L185.66 485.86L85.32 485.86z" stroke="none" fill="#000000" fill-rule="evenodd" /><path transform="matrix(1 0 0 -1 0 595)" d="M185.66 485.38L186.14 485.38L186.14 485.38L186.14 485.86L186.14 485.86L185.66 485.86z" stroke="none" fill="#000000" fill-rule="evenodd" /><path transform="matrix(1 0 0 -1 0 595)" d="M186.14 485.38L254.42 485.38L254.42 485.38L254.42 485.86L254.42 485.86L186.14 485.86z" stroke="none" fill="#000000" fill-rule="evenodd" /><path transform="matrix(1 0 0 -1 0 595)" d="M254.42 485.38L254.9 485.38L254.9 485.38L254.9 485.86L254.9 485.86L254.42 485.86z" stroke="none" fill="#000000" fill-rule="evenodd" /><path transform="matrix(1 0 0 -1 0 595)" d="M254.9 485.38L306.044 485.38L306.044 485.38L306.044 485.86L306.044 485.86L254.9 485.86z" stroke="none" fill="#000000" fill-rule="evenodd" /><path transform="matrix(1 0 0 -1 0 595)" d="M306.05 485.38L306.53 485.38L306.53 485.38L306.53 485.86L306.53 485.86L306.05 485.86z" stroke="none" fill="#000000" fill-rule="evenodd" /><path transform="matrix(1 0 0 -1 0 595)" d="M306.53 485.38L504.31 485.38L504.31 485.38L504.31 485.86L504.31 485.86L306.53 485.86z" stroke="none" fill="#000000" fill-rule="evenodd" /><path transform="matrix(1 0 0 -1 0 595)" d="M504.31 485.38L504.79 485.38L504.79 485.38L504.79 485.86L504.79 485.86L504.31 485.86z" stroke="none" fill="#000000" fill-rule="evenodd" /><path transform="matrix(1 0 0 -1 0 595)" d="M504.79 485.38L753.33 485.38L753.33 485.38L753.33 485.86L753.33 485.86L504.79 485.86z" stroke="none" fill="#000000" fill-rule="evenodd" /><path transform="matrix(1 0 0 -1 0 595)" d="M753.34 485.38L753.82 485.38L753.82 485.38L753.82 485.86L753.82 485.86L753.34 485.86z" stroke="none" fill="#000000" fill-rule="evenodd" /><path transform="matrix(1 0 0 -1 0 595)" d="M84.84 466.3L85.32 466.3L85.32 466.3L85.32 485.38L85.32 485.38L84.84 485.38z" stroke="none" fill="#000000" fill-rule="evenodd" /><path transform="matrix(1 0 0 -1 0 595)" d="M185.66 466.3L186.14 466.3L186.14 466.3L186.14 485.38L186.14 485.38L185.66 485.38z" stroke="none" fill="#000000" fill-rule="evenodd" /><path transform="matrix(1 0 0 -1 0 595)" d="M254.42 466.3L254.9 466.3L254.9 466.3L254.9 485.38L254.9 485.38L254.42 485.38z" stroke="none" fill="#000000" fill-rule="evenodd" /><path transform="matrix(1 0 0 -1 0 595)" d="M306.05 466.3L306.53 466.3L306.53 466.3L306.53 485.38L306.53 485.38L306.05 485.38z" stroke="none" fill="#000000" fill-rule="evenodd" /><path transform="matrix(1 0 0 -1 0 595)" d="M504.31 466.3L504.79 466.3L504.79 466.3L504.79 485.38L504.79 485.38L504.31 485.38z" stroke="none" fill="#000000" fill-rule="evenodd" /><path transform="matrix(1 0 0 -1 0 595)" d="M753.34 466.3L753.82 466.3L753.82 466.3L753.82 485.38L753.82 485.38L753.34 485.38z" stroke="none" fill="#000000" fill-rule="evenodd" /><path transform="matrix(1 0 0 -1 0 595)" d="M85.32 446.86L185.66 446.86L185.66 446.86L185.66 465.82L185.66 465.82L85.32 465.82z" stroke="none" fill="#DAEEF3" fill-rule="evenodd" /><g clip-path="url(#110)"><path transform="matrix(1 0 0 -1 0 595)" d="M90.48 446.86L180.504 446.86L180.504 446.86L180.504 465.82L180.504 465.82L90.48 465.82z" stroke="none" fill="#DAEEF3" fill-rule="evenodd" /><g clip-path="url(#111)"></g><g clip-path="url(#112)"></g></g><path transform="matrix(1 0 0 -1 0 595)" d="M186.14 446.86L254.3 446.86L254.3 446.86L254.3 465.82L254.3 465.82L186.14 465.82z" stroke="none" fill="#DAEEF3" fill-rule="evenodd" /><g clip-path="url(#113)"><path transform="matrix(1 0 0 -1 0 595)" d="M191.3 446.86L249.14 446.86L249.14 446.86L249.14 465.82L249.14 465.82L191.3 465.82z" stroke="none" fill="#DAEEF3" fill-rule="evenodd" /><g clip-path="url(#114)"></g><g clip-path="url(#115)"></g></g><path transform="matrix(1 0 0 -1 0 595)" d="M254.78 446.86L305.924 446.86L305.924 446.86L305.924 465.82L305.924 465.82L254.78 465.82z" stroke="none" fill="#DAEEF3" fill-rule="evenodd" /><g clip-path="url(#116)"><path transform="matrix(1 0 0 -1 0 595)" d="M259.94 446.86L300.764 446.86L300.764 446.86L300.764 465.82L300.764 465.82L259.94 465.82z" stroke="none" fill="#DAEEF3" fill-rule="evenodd" /><g clip-path="url(#117)"></g><g clip-path="url(#118)"></g></g><path transform="matrix(1 0 0 -1 0 595)" d="M306.41 446.86L504.19 446.86L504.19 446.86L504.19 465.82L504.19 465.82L306.41 465.82z" stroke="none" fill="#DAEEF3" fill-rule="evenodd" /><g clip-path="url(#119)"><path transform="matrix(1 0 0 -1 0 595)" d="M311.57 446.86L499.03 446.86L499.03 446.86L499.03 465.82L499.03 465.82L311.57 465.82z" stroke="none" fill="#DAEEF3" fill-rule="evenodd" /><g clip-path="url(#120)"></g><g clip-path="url(#121)"></g></g><path transform="matrix(1 0 0 -1 0 595)" d="M504.67 446.86L753.33 446.86L753.33 446.86L753.33 465.82L753.33 465.82L504.67 465.82z" stroke="none" fill="#DAEEF3" fill-rule="evenodd" /><g clip-path="url(#122)"><path transform="matrix(1 0 0 -1 0 595)" d="M509.83 446.86L748.17 446.86L748.17 446.86L748.17 465.82L748.17 465.82L509.83 465.82z" stroke="none" fill="#DAEEF3" fill-rule="evenodd" /><g clip-path="url(#123)"></g><g clip-path="url(#124)"></g><path transform="matrix(1 0 0 -1 0 595)" d="M509.83 448.66L565.87 448.66L565.87 448.66L565.87 449.38L565.87 449.38L509.83 449.38z" stroke="none" fill="#0000FF" fill-rule="evenodd" /></g><path transform="matrix(1 0 0 -1 0 595)" d="M84.84 465.82L85.32 465.82L85.32 465.82L85.32 466.3L85.32 466.3L84.84 466.3z" stroke="none" fill="#000000" fill-rule="evenodd" /><path transform="matrix(1 0 0 -1 0 595)" d="M85.32 465.82L185.66 465.82L185.66 465.82L185.66 466.3L185.66 466.3L85.32 466.3z" stroke="none" fill="#000000" fill-rule="evenodd" /><path transform="matrix(1 0 0 -1 0 595)" d="M185.66 465.82L186.14 465.82L186.14 465.82L186.14 466.3L186.14 466.3L185.66 466.3z" stroke="none" fill="#000000" fill-rule="evenodd" /><path transform="matrix(1 0 0 -1 0 595)" d="M186.14 465.82L254.42 465.82L254.42 465.82L254.42 466.3L254.42 466.3L186.14 466.3z" stroke="none" fill="#000000" fill-rule="evenodd" /><path transform="matrix(1 0 0 -1 0 595)" d="M254.42 465.82L254.9 465.82L254.9 465.82L254.9 466.3L254.9 466.3L254.42 466.3z" stroke="none" fill="#000000" fill-rule="evenodd" /><path transform="matrix(1 0 0 -1 0 595)" d="M254.9 465.82L306.044 465.82L306.044 465.82L306.044 466.3L306.044 466.3L254.9 466.3z" stroke="none" fill="#000000" fill-rule="evenodd" /><path transform="matrix(1 0 0 -1 0 595)" d="M306.05 465.82L306.53 465.82L306.53 465.82L306.53 466.3L306.53 466.3L306.05 466.3z" stroke="none" fill="#000000" fill-rule="evenodd" /><path transform="matrix(1 0 0 -1 0 595)" d="M306.53 465.82L504.31 465.82L504.31 465.82L504.31 466.3L504.31 466.3L306.53 466.3z" stroke="none" fill="#000000" fill-rule="evenodd" /><path transform="matrix(1 0 0 -1 0 595)" d="M504.31 465.82L504.79 465.82L504.79 465.82L504.79 466.3L504.79 466.3L504.31 466.3z" stroke="none" fill="#000000" fill-rule="evenodd" /><path transform="matrix(1 0 0 -1 0 595)" d="M504.79 465.82L753.33 465.82L753.33 465.82L753.33 466.3L753.33 466.3L504.79 466.3z" stroke="none" fill="#000000" fill-rule="evenodd" /><path transform="matrix(1 0 0 -1 0 595)" d="M753.34 465.82L753.82 465.82L753.82 465.82L753.82 466.3L753.82 466.3L753.34 466.3z" stroke="none" fill="#000000" fill-rule="evenodd" /><path transform="matrix(1 0 0 -1 0 595)" d="M84.84 446.86L85.32 446.86L85.32 446.86L85.32 465.82L85.32 465.82L84.84 465.82z" stroke="none" fill="#000000" fill-rule="evenodd" /><path transform="matrix(1 0 0 -1 0 595)" d="M185.66 446.86L186.14 446.86L186.14 446.86L186.14 465.82L186.14 465.82L185.66 465.82z" stroke="none" fill="#000000" fill-rule="evenodd" /><path transform="matrix(1 0 0 -1 0 595)" d="M254.42 446.86L254.9 446.86L254.9 446.86L254.9 465.82L254.9 465.82L254.42 465.82z" stroke="none" fill="#000000" fill-rule="evenodd" /><path transform="matrix(1 0 0 -1 0 595)" d="M306.05 446.86L306.53 446.86L306.53 446.86L306.53 465.82L306.53 465.82L306.05 465.82z" stroke="none" fill="#000000" fill-rule="evenodd" /><path transform="matrix(1 0 0 -1 0 595)" d="M504.31 446.86L504.79 446.86L504.79 446.86L504.79 465.82L504.79 465.82L504.31 465.82z" stroke="none" fill="#000000" fill-rule="evenodd" /><path transform="matrix(1 0 0 -1 0 595)" d="M753.34 446.86L753.82 446.86L753.82 446.86L753.82 465.82L753.82 465.82L753.34 465.82z" stroke="none" fill="#000000" fill-rule="evenodd" /><g clip-path="url(#125)"><g clip-path="url(#126)"></g><g clip-path="url(#127)"></g></g><g clip-path="url(#128)"><g clip-path="url(#129)"></g><g clip-path="url(#130)"></g></g><g clip-path="url(#131)"><g clip-path="url(#132)"></g><g clip-path="url(#133)"></g></g><g clip-path="url(#134)"><g clip-path="url(#135)"></g></g><g clip-path="url(#136)"><g clip-path="url(#137)"></g><g clip-path="url(#138)"></g></g><path transform="matrix(1 0 0 -1 0 595)" d="M84.84 446.38L85.32 446.38L85.32 446.38L85.32 446.86L85.32 446.86L84.84 446.86z" stroke="none" fill="#000000" fill-rule="evenodd" /><path transform="matrix(1 0 0 -1 0 595)" d="M85.32 446.38L185.66 446.38L185.66 446.38L185.66 446.86L185.66 446.86L85.32 446.86z" stroke="none" fill="#000000" fill-rule="evenodd" /><path transform="matrix(1 0 0 -1 0 595)" d="M185.66 446.38L186.14 446.38L186.14 446.38L186.14 446.86L186.14 446.86L185.66 446.86z" stroke="none" fill="#000000" fill-rule="evenodd" /><path transform="matrix(1 0 0 -1 0 595)" d="M186.14 446.38L254.42 446.38L254.42 446.38L254.42 446.86L254.42 446.86L186.14 446.86z" stroke="none" fill="#000000" fill-rule="evenodd" /><path transform="matrix(1 0 0 -1 0 595)" d="M254.42 446.38L254.9 446.38L254.9 446.38L254.9 446.86L254.9 446.86L254.42 446.86z" stroke="none" fill="#000000" fill-rule="evenodd" /><path transform="matrix(1 0 0 -1 0 595)" d="M254.9 446.38L306.044 446.38L306.044 446.38L306.044 446.86L306.044 446.86L254.9 446.86z" stroke="none" fill="#000000" fill-rule="evenodd" /><path transform="matrix(1 0 0 -1 0 595)" d="M306.05 446.38L306.53 446.38L306.53 446.38L306.53 446.86L306.53 446.86L306.05 446.86z" stroke="none" fill="#000000" fill-rule="evenodd" /><path transform="matrix(1 0 0 -1 0 595)" d="M306.53 446.38L504.31 446.38L504.31 446.38L504.31 446.86L504.31 446.86L306.53 446.86z" stroke="none" fill="#000000" fill-rule="evenodd" /><path transform="matrix(1 0 0 -1 0 595)" d="M504.31 446.38L504.79 446.38L504.79 446.38L504.79 446.86L504.79 446.86L504.31 446.86z" stroke="none" fill="#000000" fill-rule="evenodd" /><path transform="matrix(1 0 0 -1 0 595)" d="M504.79 446.38L753.33 446.38L753.33 446.38L753.33 446.86L753.33 446.86L504.79 446.86z" stroke="none" fill="#000000" fill-rule="evenodd" /><path transform="matrix(1 0 0 -1 0 595)" d="M753.34 446.38L753.82 446.38L753.82 446.38L753.82 446.86L753.82 446.86L753.34 446.86z" stroke="none" fill="#000000" fill-rule="evenodd" /><path transform="matrix(1 0 0 -1 0 595)" d="M84.84 427.18L85.32 427.18L85.32 427.18L85.32 446.38L85.32 446.38L84.84 446.38z" stroke="none" fill="#000000" fill-rule="evenodd" /><path transform="matrix(1 0 0 -1 0 595)" d="M84.84 426.7L85.32 426.7L85.32 426.7L85.32 427.18L85.32 427.18L84.84 427.18z" stroke="none" fill="#000000" fill-rule="evenodd" /><path transform="matrix(1 0 0 -1 0 595)" d="M84.84 426.7L85.32 426.7L85.32 426.7L85.32 427.18L85.32 427.18L84.84 427.18z" stroke="none" fill="#000000" fill-rule="evenodd" /><path transform="matrix(1 0 0 -1 0 595)" d="M85.32 426.7L185.66 426.7L185.66 426.7L185.66 427.18L185.66 427.18L85.32 427.18z" stroke="none" fill="#000000" fill-rule="evenodd" /><path transform="matrix(1 0 0 -1 0 595)" d="M185.66 427.18L186.14 427.18L186.14 427.18L186.14 446.38L186.14 446.38L185.66 446.38z" stroke="none" fill="#000000" fill-rule="evenodd" /><path transform="matrix(1 0 0 -1 0 595)" d="M185.66 426.7L186.14 426.7L186.14 426.7L186.14 427.18L186.14 427.18L185.66 427.18z" stroke="none" fill="#000000" fill-rule="evenodd" /><path transform="matrix(1 0 0 -1 0 595)" d="M186.14 426.7L254.42 426.7L254.42 426.7L254.42 427.18L254.42 427.18L186.14 427.18z" stroke="none" fill="#000000" fill-rule="evenodd" /><path transform="matrix(1 0 0 -1 0 595)" d="M254.42 427.18L254.9 427.18L254.9 427.18L254.9 446.38L254.9 446.38L254.42 446.38z" stroke="none" fill="#000000" fill-rule="evenodd" /><path transform="matrix(1 0 0 -1 0 595)" d="M254.42 426.7L254.9 426.7L254.9 426.7L254.9 427.18L254.9 427.18L254.42 427.18z" stroke="none" fill="#000000" fill-rule="evenodd" /><path transform="matrix(1 0 0 -1 0 595)" d="M254.9 426.7L306.044 426.7L306.044 426.7L306.044 427.18L306.044 427.18L254.9 427.18z" stroke="none" fill="#000000" fill-rule="evenodd" /><path transform="matrix(1 0 0 -1 0 595)" d="M306.05 427.18L306.53 427.18L306.53 427.18L306.53 446.38L306.53 446.38L306.05 446.38z" stroke="none" fill="#000000" fill-rule="evenodd" /><path transform="matrix(1 0 0 -1 0 595)" d="M306.05 426.7L306.53 426.7L306.53 426.7L306.53 427.18L306.53 427.18L306.05 427.18z" stroke="none" fill="#000000" fill-rule="evenodd" /><path transform="matrix(1 0 0 -1 0 595)" d="M306.53 426.7L504.31 426.7L504.31 426.7L504.31 427.18L504.31 427.18L306.53 427.18z" stroke="none" fill="#000000" fill-rule="evenodd" /><path transform="matrix(1 0 0 -1 0 595)" d="M504.31 427.18L504.79 427.18L504.79 427.18L504.79 446.38L504.79 446.38L504.31 446.38z" stroke="none" fill="#000000" fill-rule="evenodd" /><path transform="matrix(1 0 0 -1 0 595)" d="M504.31 426.7L504.79 426.7L504.79 426.7L504.79 427.18L504.79 427.18L504.31 427.18z" stroke="none" fill="#000000" fill-rule="evenodd" /><path transform="matrix(1 0 0 -1 0 595)" d="M504.79 426.7L753.33 426.7L753.33 426.7L753.33 427.18L753.33 427.18L504.79 427.18z" stroke="none" fill="#000000" fill-rule="evenodd" /><path transform="matrix(1 0 0 -1 0 595)" d="M753.34 427.18L753.82 427.18L753.82 427.18L753.82 446.38L753.82 446.38L753.34 446.38z" stroke="none" fill="#000000" fill-rule="evenodd" /><path transform="matrix(1 0 0 -1 0 595)" d="M753.34 426.7L753.82 426.7L753.82 426.7L753.82 427.18L753.82 427.18L753.34 427.18z" stroke="none" fill="#000000" fill-rule="evenodd" /><path transform="matrix(1 0 0 -1 0 595)" d="M753.34 426.7L753.82 426.7L753.82 426.7L753.82 427.18L753.82 427.18L753.34 427.18z" stroke="none" fill="#000000" fill-rule="evenodd" /></g></g></g></g></svg>