<svg xmlns="http://www.w3.org/2000/svg" xmlns:xlink="http://www.w3.org/1999/xlink" id="body_57" preserveAspectRatio="xMinYMin meet" viewBox="0 0 793 1121"><defs><clipPath id="1"><path d="M0 841L0 -0.9199829L0 -0.9199829L595.32 -0.9199829L595.32 -0.9199829L595.32 841L595.32 841L0 841z" /></clipPath><clipPath id="2"><path d="M0.00125 841.0914L595.4112 841.0914L595.4112 841.0914L595.4112 -0.9186401L595.4112 -0.9186401L0.00125 -0.9186401z" /></clipPath><clipPath id="3"><path d="M295.13 780.251L305.21 780.251L305.21 780.251L305.21 768.011L305.21 768.011L295.13 768.011z" /></clipPath><clipPath id="4"><path d="M295.13 780.256L305.21 780.256L305.21 780.256L305.21 768.016L305.21 768.016L295.13 768.016z" /></clipPath><clipPath id="5"><path d="M295.13 780.256L305.21 780.256L305.21 780.256L305.21 768.016L305.21 768.016L295.13 768.016z" /></clipPath><clipPath id="6"><path d="M84.751 108.55L169.471 108.55L169.471 108.55L169.471 89.44L169.471 89.44L84.751 89.44z" /></clipPath><clipPath id="7"><path d="M84.744 108.54L169.464 108.54L169.464 108.54L169.464 89.43597L169.464 89.43597L84.744 89.43597z" /></clipPath><clipPath id="8"><path d="M84.744 108.54L169.464 108.54L169.464 108.54L169.464 89.43597L169.464 89.43597L84.744 89.43597z" /></clipPath><clipPath id="9"><path d="M169.95 108.55L217.125 108.55L217.125 108.55L217.125 89.44L217.125 89.44L169.95 89.44z" /></clipPath><clipPath id="10"><path d="M169.94 108.54L217.124 108.54L217.124 108.54L217.124 89.43597L217.124 89.43597L169.94 89.43597z" /></clipPath><clipPath id="11"><path d="M169.94 108.54L217.124 108.54L217.124 108.54L217.124 89.43597L217.124 89.43597L169.94 89.43597z" /></clipPath><clipPath id="12"><path d="M217.61 108.55L259.61 108.55L259.61 108.55L259.61 89.44L259.61 89.44L217.61 89.44z" /></clipPath><clipPath id="13"><path d="M217.61 108.54L259.61 108.54L259.61 108.54L259.61 89.43597L259.61 89.43597L217.61 89.43597z" /></clipPath><clipPath id="14"><path d="M217.61 108.54L259.61 108.54L259.61 108.54L259.61 89.43597L259.61 89.43597L217.61 89.43597z" /></clipPath><clipPath id="15"><path d="M260.09 108.55L351.8 108.55L351.8 108.55L351.8 89.44L351.8 89.44L260.09 89.44z" /></clipPath><clipPath id="16"><path d="M260.09 108.54L351.794 108.54L351.794 108.54L351.794 89.43597L351.794 89.43597L260.09 89.43597z" /></clipPath><clipPath id="17"><path d="M260.09 108.54L351.794 108.54L351.794 108.54L351.794 89.43597L351.794 89.43597L260.09 89.43597z" /></clipPath><clipPath id="18"><path d="M352.28 108.55L510.7 108.55L510.7 108.55L510.7 89.44L510.7 89.44L352.28 89.44z" /></clipPath><clipPath id="19"><path d="M352.27 108.54L510.69 108.54L510.69 108.54L510.69 89.43597L510.69 89.43597L352.27 89.43597z" /></clipPath><clipPath id="20"><path d="M352.27 108.54L510.69 108.54L510.69 108.54L510.69 89.43597L510.69 89.43597L352.27 89.43597z" /></clipPath><clipPath id="21"><path d="M352.28 128.11L510.7 128.11L510.7 128.11L510.7 109.03L510.7 109.03L352.28 109.03z" /></clipPath><clipPath id="22"><path d="M352.27 128.1L510.69 128.1L510.69 128.1L510.69 109.02L510.69 109.02L352.27 109.02z" /></clipPath><clipPath id="23"><path d="M352.27 128.1L510.69 128.1L510.69 128.1L510.69 109.02L510.69 109.02L352.27 109.02z" /></clipPath><clipPath id="24"><path d="M84.751 185.71L169.471 185.71L169.471 185.71L169.471 128.59L169.471 128.59L84.751 128.59z" /></clipPath><clipPath id="25"><path d="M84.744 185.7L169.464 185.7L169.464 185.7L169.464 128.58L169.464 128.58L84.744 128.58z" /></clipPath><clipPath id="26"><path d="M84.744 185.7L169.464 185.7L169.464 185.7L169.464 128.58L169.464 128.58L84.744 128.58z" /></clipPath><clipPath id="27"><path d="M84.744 185.7L169.464 185.7L169.464 185.7L169.464 128.58L169.464 128.58L84.744 128.58z" /></clipPath><clipPath id="28"><path d="M169.95 185.71L217.125 185.71L217.125 185.71L217.125 128.59L217.125 128.59L169.95 128.59z" /></clipPath><clipPath id="29"><path d="M169.94 185.7L217.124 185.7L217.124 185.7L217.124 128.58L217.124 128.58L169.94 128.58z" /></clipPath><clipPath id="30"><path d="M169.94 185.7L217.124 185.7L217.124 185.7L217.124 128.58L217.124 128.58L169.94 128.58z" /></clipPath><clipPath id="31"><path d="M217.61 185.71L259.61 185.71L259.61 185.71L259.61 128.59L259.61 128.59L217.61 128.59z" /></clipPath><clipPath id="32"><path d="M217.61 185.7L259.61 185.7L259.61 185.7L259.61 128.58L259.61 128.58L217.61 128.58z" /></clipPath><clipPath id="33"><path d="M217.61 185.7L259.61 185.7L259.61 185.7L259.61 128.58L259.61 128.58L217.61 128.58z" /></clipPath><clipPath id="34"><path d="M260.09 185.71L351.8 185.71L351.8 185.71L351.8 128.59L351.8 128.59L260.09 128.59z" /></clipPath><clipPath id="35"><path d="M260.09 185.7L351.794 185.7L351.794 185.7L351.794 128.58L351.794 128.58L260.09 128.58z" /></clipPath><clipPath id="36"><path d="M260.09 185.7L351.794 185.7L351.794 185.7L351.794 128.58L351.794 128.58L260.09 128.58z" /></clipPath><clipPath id="37"><path d="M260.09 185.7L351.794 185.7L351.794 185.7L351.794 128.58L351.794 128.58L260.09 128.58z" /></clipPath><clipPath id="38"><path d="M260.09 185.7L351.794 185.7L351.794 185.7L351.794 128.58L351.794 128.58L260.09 128.58z" /></clipPath><clipPath id="39"><path d="M352.28 185.71L510.7 185.71L510.7 185.71L510.7 128.59L510.7 128.59L352.28 128.59z" /></clipPath><clipPath id="40"><path d="M352.27 185.7L510.69 185.7L510.69 185.7L510.69 128.58L510.69 128.58L352.27 128.58z" /></clipPath><clipPath id="41"><path d="M352.27 185.7L510.69 185.7L510.69 185.7L510.69 128.58L510.69 128.58L352.27 128.58z" /></clipPath><clipPath id="42"><path d="M84.751 224.35L169.471 224.35L169.471 224.35L169.471 186.19L169.471 186.19L84.751 186.19z" /></clipPath><clipPath id="43"><path d="M84.744 224.34L169.464 224.34L169.464 224.34L169.464 186.1801L169.464 186.1801L84.744 186.1801z" /></clipPath><clipPath id="44"><path d="M84.744 224.34L169.464 224.34L169.464 224.34L169.464 186.1801L169.464 186.1801L84.744 186.1801z" /></clipPath><clipPath id="45"><path d="M84.744 224.34L169.464 224.34L169.464 224.34L169.464 186.1801L169.464 186.1801L84.744 186.1801z" /></clipPath><clipPath id="46"><path d="M169.95 224.35L217.125 224.35L217.125 224.35L217.125 186.19L217.125 186.19L169.95 186.19z" /></clipPath><clipPath id="47"><path d="M169.94 224.34L217.124 224.34L217.124 224.34L217.124 186.1801L217.124 186.1801L169.94 186.1801z" /></clipPath><clipPath id="48"><path d="M169.94 224.34L217.124 224.34L217.124 224.34L217.124 186.1801L217.124 186.1801L169.94 186.1801z" /></clipPath><clipPath id="49"><path d="M217.61 224.35L259.61 224.35L259.61 224.35L259.61 186.19L259.61 186.19L217.61 186.19z" /></clipPath><clipPath id="50"><path d="M217.61 224.34L259.61 224.34L259.61 224.34L259.61 186.1801L259.61 186.1801L217.61 186.1801z" /></clipPath><clipPath id="51"><path d="M217.61 224.34L259.61 224.34L259.61 224.34L259.61 186.1801L259.61 186.1801L217.61 186.1801z" /></clipPath><clipPath id="52"><path d="M260.09 224.35L351.8 224.35L351.8 224.35L351.8 186.19L351.8 186.19L260.09 186.19z" /></clipPath><clipPath id="53"><path d="M260.09 224.34L351.794 224.34L351.794 224.34L351.794 186.1801L351.794 186.1801L260.09 186.1801z" /></clipPath><clipPath id="54"><path d="M260.09 224.34L351.794 224.34L351.794 224.34L351.794 186.1801L351.794 186.1801L260.09 186.1801z" /></clipPath><clipPath id="55"><path d="M352.28 224.35L510.7 224.35L510.7 224.35L510.7 186.19L510.7 186.19L352.28 186.19z" /></clipPath><clipPath id="56"><path d="M352.27 224.34L510.69 224.34L510.69 224.34L510.69 186.1801L510.69 186.1801L352.27 186.1801z" /></clipPath><clipPath id="57"><path d="M352.27 224.34L510.69 224.34L510.69 224.34L510.69 186.1801L510.69 186.1801L352.27 186.1801z" /></clipPath><clipPath id="58"><path d="M352.27 224.34L510.69 224.34L510.69 224.34L510.69 186.1801L510.69 186.1801L352.27 186.1801z" /></clipPath><clipPath id="59"><path d="M352.27 224.34L510.69 224.34L510.69 224.34L510.69 186.1801L510.69 186.1801L352.27 186.1801z" /></clipPath><clipPath id="60"><path d="M352.27 224.34L510.69 224.34L510.69 224.34L510.69 186.1801L510.69 186.1801L352.27 186.1801z" /></clipPath><clipPath id="61"><path d="M84.751 244.87L169.471 244.87L169.471 244.87L169.471 224.83L169.471 224.83L84.751 224.83z" /></clipPath><clipPath id="62"><path d="M84.744 244.86L169.464 244.86L169.464 244.86L169.464 224.82L169.464 224.82L84.744 224.82z" /></clipPath><clipPath id="63"><path d="M84.744 244.86L169.464 244.86L169.464 244.86L169.464 224.82L169.464 224.82L84.744 224.82z" /></clipPath><clipPath id="64"><path d="M169.95 244.87L217.125 244.87L217.125 244.87L217.125 224.83L217.125 224.83L169.95 224.83z" /></clipPath><clipPath id="65"><path d="M169.94 244.86L217.124 244.86L217.124 244.86L217.124 224.82L217.124 224.82L169.94 224.82z" /></clipPath><clipPath id="66"><path d="M169.94 244.86L217.124 244.86L217.124 244.86L217.124 224.82L217.124 224.82L169.94 224.82z" /></clipPath><clipPath id="67"><path d="M217.61 244.87L259.61 244.87L259.61 244.87L259.61 224.83L259.61 224.83L217.61 224.83z" /></clipPath><clipPath id="68"><path d="M217.61 244.86L259.61 244.86L259.61 244.86L259.61 224.82L259.61 224.82L217.61 224.82z" /></clipPath><clipPath id="69"><path d="M217.61 244.86L259.61 244.86L259.61 244.86L259.61 224.82L259.61 224.82L217.61 224.82z" /></clipPath><clipPath id="70"><path d="M260.09 244.87L351.8 244.87L351.8 244.87L351.8 224.83L351.8 224.83L260.09 224.83z" /></clipPath><clipPath id="71"><path d="M260.09 244.86L351.794 244.86L351.794 244.86L351.794 224.82L351.794 224.82L260.09 224.82z" /></clipPath><clipPath id="72"><path d="M260.09 244.86L351.794 244.86L351.794 244.86L351.794 224.82L351.794 224.82L260.09 224.82z" /></clipPath><clipPath id="73"><path d="M352.28 244.87L510.7 244.87L510.7 244.87L510.7 224.83L510.7 224.83L352.28 224.83z" /></clipPath><clipPath id="74"><path d="M352.27 244.86L510.69 244.86L510.69 244.86L510.69 224.82L510.69 224.82L352.27 224.82z" /></clipPath><clipPath id="75"><path d="M352.27 244.86L510.69 244.86L510.69 244.86L510.69 224.82L510.69 224.82L352.27 224.82z" /></clipPath><clipPath id="76"><path d="M84.751 265.39L169.471 265.39L169.471 265.39L169.471 245.35L169.471 245.35L84.751 245.35z" /></clipPath><clipPath id="77"><path d="M84.744 265.38L169.464 265.38L169.464 265.38L169.464 245.34L169.464 245.34L84.744 245.34z" /></clipPath><clipPath id="78"><path d="M84.744 265.38L169.464 265.38L169.464 265.38L169.464 245.34L169.464 245.34L84.744 245.34z" /></clipPath><clipPath id="79"><path d="M169.95 265.39L217.125 265.39L217.125 265.39L217.125 245.35L217.125 245.35L169.95 245.35z" /></clipPath><clipPath id="80"><path d="M169.94 265.38L217.124 265.38L217.124 265.38L217.124 245.34L217.124 245.34L169.94 245.34z" /></clipPath><clipPath id="81"><path d="M169.94 265.38L217.124 265.38L217.124 265.38L217.124 245.34L217.124 245.34L169.94 245.34z" /></clipPath><clipPath id="82"><path d="M217.61 265.39L259.61 265.39L259.61 265.39L259.61 245.35L259.61 245.35L217.61 245.35z" /></clipPath><clipPath id="83"><path d="M217.61 265.38L259.61 265.38L259.61 265.38L259.61 245.34L259.61 245.34L217.61 245.34z" /></clipPath><clipPath id="84"><path d="M217.61 265.38L259.61 265.38L259.61 265.38L259.61 245.34L259.61 245.34L217.61 245.34z" /></clipPath><clipPath id="85"><path d="M260.09 265.39L351.8 265.39L351.8 265.39L351.8 245.35L351.8 245.35L260.09 245.35z" /></clipPath><clipPath id="86"><path d="M260.09 265.38L351.794 265.38L351.794 265.38L351.794 245.34L351.794 245.34L260.09 245.34z" /></clipPath><clipPath id="87"><path d="M260.09 265.38L351.794 265.38L351.794 265.38L351.794 245.34L351.794 245.34L260.09 245.34z" /></clipPath><clipPath id="88"><path d="M352.28 265.39L510.7 265.39L510.7 265.39L510.7 245.35L510.7 245.35L352.28 245.35z" /></clipPath><clipPath id="89"><path d="M352.27 265.38L510.69 265.38L510.69 265.38L510.69 245.34L510.69 245.34L352.27 245.34z" /></clipPath><clipPath id="90"><path d="M352.27 265.38L510.69 265.38L510.69 265.38L510.69 245.34L510.69 245.34L352.27 245.34z" /></clipPath><clipPath id="91"><path d="M84.751 342.81L291.771 342.81L291.771 342.81L291.771 323.73L291.771 323.73L84.751 323.73z" /></clipPath><clipPath id="92"><path d="M84.744 342.81L291.764 342.81L291.764 342.81L291.764 323.73L291.764 323.73L84.744 323.73z" /></clipPath><clipPath id="93"><path d="M84.744 342.81L291.764 342.81L291.764 342.81L291.764 323.73L291.764 323.73L84.744 323.73z" /></clipPath><clipPath id="94"><path d="M292.25 342.81L499.42 342.81L499.42 342.81L499.42 323.73L499.42 323.73L292.25 323.73z" /></clipPath><clipPath id="95"><path d="M292.25 342.81L499.42 342.81L499.42 342.81L499.42 323.73L499.42 323.73L292.25 323.73z" /></clipPath><clipPath id="96"><path d="M292.25 342.81L499.42 342.81L499.42 342.81L499.42 323.73L499.42 323.73L292.25 323.73z" /></clipPath><clipPath id="97"><path d="M84.751 362.37L291.771 362.37L291.771 362.37L291.771 343.29L291.771 343.29L84.751 343.29z" /></clipPath><clipPath id="98"><path d="M84.744 362.37L291.764 362.37L291.764 362.37L291.764 343.29L291.764 343.29L84.744 343.29z" /></clipPath><clipPath id="99"><path d="M84.744 362.37L291.764 362.37L291.764 362.37L291.764 343.29L291.764 343.29L84.744 343.29z" /></clipPath><clipPath id="100"><path d="M84.744 362.37L291.764 362.37L291.764 362.37L291.764 343.29L291.764 343.29L84.744 343.29z" /></clipPath><clipPath id="101"><path d="M292.25 362.37L499.42 362.37L499.42 362.37L499.42 343.29L499.42 343.29L292.25 343.29z" /></clipPath><clipPath id="102"><path d="M292.25 362.37L499.42 362.37L499.42 362.37L499.42 343.29L499.42 343.29L292.25 343.29z" /></clipPath><clipPath id="103"><path d="M292.25 362.37L499.42 362.37L499.42 362.37L499.42 343.29L499.42 343.29L292.25 343.29z" /></clipPath><clipPath id="104"><path d="M84.751 381.93L291.771 381.93L291.771 381.93L291.771 362.85L291.771 362.85L84.751 362.85z" /></clipPath><clipPath id="105"><path d="M84.744 381.93L291.764 381.93L291.764 381.93L291.764 362.85L291.764 362.85L84.744 362.85z" /></clipPath><clipPath id="106"><path d="M84.744 381.93L291.764 381.93L291.764 381.93L291.764 362.85L291.764 362.85L84.744 362.85z" /></clipPath><clipPath id="107"><path d="M292.25 381.93L499.42 381.93L499.42 381.93L499.42 362.85L499.42 362.85L292.25 362.85z" /></clipPath><clipPath id="108"><path d="M292.25 381.93L499.42 381.93L499.42 381.93L499.42 362.85L499.42 362.85L292.25 362.85z" /></clipPath><clipPath id="109"><path d="M292.25 381.93L499.42 381.93L499.42 381.93L499.42 362.85L499.42 362.85L292.25 362.85z" /></clipPath><clipPath id="110"><path d="M84.751 401.37L291.771 401.37L291.771 401.37L291.771 382.41L291.771 382.41L84.751 382.41z" /></clipPath><clipPath id="111"><path d="M84.744 401.37L291.764 401.37L291.764 401.37L291.764 382.41L291.764 382.41L84.744 382.41z" /></clipPath><clipPath id="112"><path d="M84.744 401.37L291.764 401.37L291.764 401.37L291.764 382.41L291.764 382.41L84.744 382.41z" /></clipPath><clipPath id="113"><path d="M292.25 401.37L499.42 401.37L499.42 401.37L499.42 382.41L499.42 382.41L292.25 382.41z" /></clipPath><clipPath id="114"><path d="M292.25 401.37L499.42 401.37L499.42 401.37L499.42 382.41L499.42 382.41L292.25 382.41z" /></clipPath><clipPath id="115"><path d="M292.25 401.37L499.42 401.37L499.42 401.37L499.42 382.41L499.42 382.41L292.25 382.41z" /></clipPath><clipPath id="116"><path d="M84.751 420.93L291.771 420.93L291.771 420.93L291.771 401.97L291.771 401.97L84.751 401.97z" /></clipPath><clipPath id="117"><path d="M84.744 420.93L291.764 420.93L291.764 420.93L291.764 401.97L291.764 401.97L84.744 401.97z" /></clipPath><clipPath id="118"><path d="M84.744 420.93L291.764 420.93L291.764 420.93L291.764 401.97L291.764 401.97L84.744 401.97z" /></clipPath><clipPath id="119"><path d="M292.25 420.93L499.42 420.93L499.42 420.93L499.42 401.97L499.42 401.97L292.25 401.97z" /></clipPath><clipPath id="120"><path d="M292.25 420.93L499.42 420.93L499.42 420.93L499.42 401.97L499.42 401.97L292.25 401.97z" /></clipPath><clipPath id="121"><path d="M292.25 420.93L499.42 420.93L499.42 420.93L499.42 401.97L499.42 401.97L292.25 401.97z" /></clipPath><clipPath id="122"><path d="M84.751 440.49L291.771 440.49L291.771 440.49L291.771 421.53L291.771 421.53L84.751 421.53z" /></clipPath><clipPath id="123"><path d="M84.744 440.49L291.764 440.49L291.764 440.49L291.764 421.53L291.764 421.53L84.744 421.53z" /></clipPath><clipPath id="124"><path d="M84.744 440.49L291.764 440.49L291.764 440.49L291.764 421.53L291.764 421.53L84.744 421.53z" /></clipPath><clipPath id="125"><path d="M292.25 440.49L499.42 440.49L499.42 440.49L499.42 421.53L499.42 421.53L292.25 421.53z" /></clipPath><clipPath id="126"><path d="M292.25 440.49L499.42 440.49L499.42 440.49L499.42 421.53L499.42 421.53L292.25 421.53z" /></clipPath><clipPath id="127"><path d="M292.25 440.49L499.42 440.49L499.42 440.49L499.42 421.53L499.42 421.53L292.25 421.53z" /></clipPath><clipPath id="128"><path d="M84.751 460.05L291.771 460.05L291.771 460.05L291.771 440.97L291.771 440.97L84.751 440.97z" /></clipPath><clipPath id="129"><path d="M84.744 460.05L291.764 460.05L291.764 460.05L291.764 440.97L291.764 440.97L84.744 440.97z" /></clipPath><clipPath id="130"><path d="M84.744 460.05L291.764 460.05L291.764 460.05L291.764 440.97L291.764 440.97L84.744 440.97z" /></clipPath><clipPath id="131"><path d="M292.25 460.05L499.42 460.05L499.42 460.05L499.42 440.97L499.42 440.97L292.25 440.97z" /></clipPath><clipPath id="132"><path d="M292.25 460.05L499.42 460.05L499.42 460.05L499.42 440.97L499.42 440.97L292.25 440.97z" /></clipPath><clipPath id="133"><path d="M292.25 460.05L499.42 460.05L499.42 460.05L499.42 440.97L499.42 440.97L292.25 440.97z" /></clipPath><clipPath id="134"><path d="M84.751 479.64L291.771 479.64L291.771 479.64L291.771 460.53L291.771 460.53L84.751 460.53z" /></clipPath><clipPath id="135"><path d="M84.744 479.63L291.764 479.63L291.764 479.63L291.764 460.526L291.764 460.526L84.744 460.526z" /></clipPath><clipPath id="136"><path d="M84.744 479.63L291.764 479.63L291.764 479.63L291.764 460.526L291.764 460.526L84.744 460.526z" /></clipPath><clipPath id="137"><path d="M292.25 479.64L499.42 479.64L499.42 479.64L499.42 460.53L499.42 460.53L292.25 460.53z" /></clipPath><clipPath id="138"><path d="M292.25 479.63L499.42 479.63L499.42 479.63L499.42 460.526L499.42 460.526L292.25 460.526z" /></clipPath><clipPath id="139"><path d="M292.25 479.63L499.42 479.63L499.42 479.63L499.42 460.526L499.42 460.526L292.25 460.526z" /></clipPath><clipPath id="140"><path d="M84.751 499.2L291.771 499.2L291.771 499.2L291.771 480.12L291.771 480.12L84.751 480.12z" /></clipPath><clipPath id="141"><path d="M84.744 499.19L291.764 499.19L291.764 499.19L291.764 480.11L291.764 480.11L84.744 480.11z" /></clipPath><clipPath id="142"><path d="M84.744 499.19L291.764 499.19L291.764 499.19L291.764 480.11L291.764 480.11L84.744 480.11z" /></clipPath><clipPath id="143"><path d="M292.25 499.2L499.42 499.2L499.42 499.2L499.42 480.12L499.42 480.12L292.25 480.12z" /></clipPath><clipPath id="144"><path d="M292.25 499.19L499.42 499.19L499.42 499.19L499.42 480.11L499.42 480.11L292.25 480.11z" /></clipPath><clipPath id="145"><path d="M292.25 499.19L499.42 499.19L499.42 499.19L499.42 480.11L499.42 480.11L292.25 480.11z" /></clipPath><clipPath id="146"><path d="M84.751 518.76L291.771 518.76L291.771 518.76L291.771 499.68L291.771 499.68L84.751 499.68z" /></clipPath><clipPath id="147"><path d="M84.744 518.75L291.764 518.75L291.764 518.75L291.764 499.67L291.764 499.67L84.744 499.67z" /></clipPath><clipPath id="148"><path d="M84.744 518.75L291.764 518.75L291.764 518.75L291.764 499.67L291.764 499.67L84.744 499.67z" /></clipPath><clipPath id="149"><path d="M292.25 518.76L499.42 518.76L499.42 518.76L499.42 499.68L499.42 499.68L292.25 499.68z" /></clipPath><clipPath id="150"><path d="M292.25 518.75L499.42 518.75L499.42 518.75L499.42 499.67L499.42 499.67L292.25 499.67z" /></clipPath><clipPath id="151"><path d="M292.25 518.75L499.42 518.75L499.42 518.75L499.42 499.67L499.42 499.67L292.25 499.67z" /></clipPath><clipPath id="152"><path d="M84.751 538.32L291.771 538.32L291.771 538.32L291.771 519.24L291.771 519.24L84.751 519.24z" /></clipPath><clipPath id="153"><path d="M84.744 538.31L291.764 538.31L291.764 538.31L291.764 519.23L291.764 519.23L84.744 519.23z" /></clipPath><clipPath id="154"><path d="M84.744 538.31L291.764 538.31L291.764 538.31L291.764 519.23L291.764 519.23L84.744 519.23z" /></clipPath><clipPath id="155"><path d="M292.25 538.32L499.42 538.32L499.42 538.32L499.42 519.24L499.42 519.24L292.25 519.24z" /></clipPath><clipPath id="156"><path d="M292.25 538.31L499.42 538.31L499.42 538.31L499.42 519.23L499.42 519.23L292.25 519.23z" /></clipPath><clipPath id="157"><path d="M292.25 538.31L499.42 538.31L499.42 538.31L499.42 519.23L499.42 519.23L292.25 519.23z" /></clipPath><clipPath id="158"><path d="M84.751 557.88L291.771 557.88L291.771 557.88L291.771 538.8L291.771 538.8L84.751 538.8z" /></clipPath><clipPath id="159"><path d="M84.744 557.87L291.764 557.87L291.764 557.87L291.764 538.79L291.764 538.79L84.744 538.79z" /></clipPath><clipPath id="160"><path d="M84.744 557.87L291.764 557.87L291.764 557.87L291.764 538.79L291.764 538.79L84.744 538.79z" /></clipPath><clipPath id="161"><path d="M292.25 557.88L499.42 557.88L499.42 557.88L499.42 538.8L499.42 538.8L292.25 538.8z" /></clipPath><clipPath id="162"><path d="M292.25 557.87L499.42 557.87L499.42 557.87L499.42 538.79L499.42 538.79L292.25 538.79z" /></clipPath><clipPath id="163"><path d="M292.25 557.87L499.42 557.87L499.42 557.87L499.42 538.79L499.42 538.79L292.25 538.79z" /></clipPath><clipPath id="164"><path d="M292.25 557.87L499.42 557.87L499.42 557.87L499.42 538.79L499.42 538.79L292.25 538.79z" /></clipPath><clipPath id="165"><path d="M84.751 577.44L291.771 577.44L291.771 577.44L291.771 558.36L291.771 558.36L84.751 558.36z" /></clipPath><clipPath id="166"><path d="M84.744 577.43L291.764 577.43L291.764 577.43L291.764 558.35L291.764 558.35L84.744 558.35z" /></clipPath><clipPath id="167"><path d="M84.744 577.43L291.764 577.43L291.764 577.43L291.764 558.35L291.764 558.35L84.744 558.35z" /></clipPath><clipPath id="168"><path d="M292.25 577.44L499.42 577.44L499.42 577.44L499.42 558.36L499.42 558.36L292.25 558.36z" /></clipPath><clipPath id="169"><path d="M292.25 577.43L499.42 577.43L499.42 577.43L499.42 558.35L499.42 558.35L292.25 558.35z" /></clipPath><clipPath id="170"><path d="M292.25 577.43L499.42 577.43L499.42 577.43L499.42 558.35L499.42 558.35L292.25 558.35z" /></clipPath><clipPath id="171"><path d="M84.751 597L291.771 597L291.771 597L291.771 577.92L291.771 577.92L84.751 577.92z" /></clipPath><clipPath id="172"><path d="M84.744 596.99L291.764 596.99L291.764 596.99L291.764 577.91L291.764 577.91L84.744 577.91z" /></clipPath><clipPath id="173"><path d="M84.744 596.99L291.764 596.99L291.764 596.99L291.764 577.91L291.764 577.91L84.744 577.91z" /></clipPath><clipPath id="174"><path d="M292.25 597L499.42 597L499.42 597L499.42 577.92L499.42 577.92L292.25 577.92z" /></clipPath><clipPath id="175"><path d="M292.25 596.99L499.42 596.99L499.42 596.99L499.42 577.91L499.42 577.91L292.25 577.91z" /></clipPath><clipPath id="176"><path d="M292.25 596.99L499.42 596.99L499.42 596.99L499.42 577.91L499.42 577.91L292.25 577.91z" /></clipPath><clipPath id="177"><path d="M84.751 616.56L291.771 616.56L291.771 616.56L291.771 597.48L291.771 597.48L84.751 597.48z" /></clipPath><clipPath id="178"><path d="M84.744 616.55L291.764 616.55L291.764 616.55L291.764 597.47L291.764 597.47L84.744 597.47z" /></clipPath><clipPath id="179"><path d="M84.744 616.55L291.764 616.55L291.764 616.55L291.764 597.47L291.764 597.47L84.744 597.47z" /></clipPath><clipPath id="180"><path d="M292.25 616.56L499.42 616.56L499.42 616.56L499.42 597.48L499.42 597.48L292.25 597.48z" /></clipPath><clipPath id="181"><path d="M292.25 616.55L499.42 616.55L499.42 616.55L499.42 597.47L499.42 597.47L292.25 597.47z" /></clipPath><clipPath id="182"><path d="M292.25 616.55L499.42 616.55L499.42 616.55L499.42 597.47L499.42 597.47L292.25 597.47z" /></clipPath><clipPath id="183"><path d="M84.751 655.56L510.691 655.56L510.691 655.56L510.691 636.6L510.691 636.6L84.751 636.6z" /></clipPath><clipPath id="184"><path d="M84.744 655.55L510.694 655.55L510.694 655.55L510.694 636.59L510.694 636.59L84.744 636.59z" /></clipPath><clipPath id="185"><path d="M84.744 655.55L510.694 655.55L510.694 655.55L510.694 636.59L510.694 636.59L84.744 636.59z" /></clipPath><clipPath id="186"><path d="M84.744 655.55L510.694 655.55L510.694 655.55L510.694 636.59L510.694 636.59L84.744 636.59z" /></clipPath><clipPath id="187"><path d="M84.751 732.37L510.691 732.37L510.691 732.37L510.691 656.155L510.691 656.155L84.751 656.155z" /></clipPath><clipPath id="188"><path d="M84.744 732.38L510.694 732.38L510.694 732.38L510.694 656.156L510.694 656.156L84.744 656.156z" /></clipPath><clipPath id="189"><path d="M84.744 732.38L510.694 732.38L510.694 732.38L510.694 656.156L510.694 656.156L84.744 656.156z" /></clipPath><clipPath id="190"><path d="M84.744 732.38L510.694 732.38L510.694 732.38L510.694 656.156L510.694 656.156L84.744 656.156z" /></clipPath><clipPath id="191"><path d="M84.744 732.38L510.694 732.38L510.694 732.38L510.694 656.156L510.694 656.156L84.744 656.156z" /></clipPath><clipPath id="192"><path d="M84.744 732.38L510.694 732.38L510.694 732.38L510.694 656.156L510.694 656.156L84.744 656.156z" /></clipPath><clipPath id="193"><path d="M84.744 732.38L510.694 732.38L510.694 732.38L510.694 656.156L510.694 656.156L84.744 656.156z" /></clipPath><clipPath id="194"><path d="M84.744 732.38L510.694 732.38L510.694 732.38L510.694 656.156L510.694 656.156L84.744 656.156z" /></clipPath><clipPath id="195"><path d="M84.744 732.38L510.694 732.38L510.694 732.38L510.694 656.156L510.694 656.156L84.744 656.156z" /></clipPath></defs><g transform="matrix(1.333333 0 0 1.333333 0 0)"><g><g clip-path="url(#1)"><path transform="matrix(1 0 0 -1 0 841)" d="M457.63 53.424L505.534 53.424L505.534 53.424L505.534 54.02404L505.534 54.02404L457.63 54.02404z" stroke="none" fill="#000000" fill-rule="evenodd" /><g clip-path="url(#2)"><path transform="matrix(1 0 0 -1 0 841)" d="M88.464 78.984L506.974 78.984L506.974 78.984L506.974 81.984L506.974 81.984L88.464 81.984z" stroke="none" fill="#000000" fill-rule="evenodd" /><path transform="matrix(1 0 0 -1 0 841)" d="M88.464 77.544L506.974 77.544L506.974 77.544L506.974 78.26397L506.974 78.26397L88.464 78.26397z" stroke="none" fill="#000000" fill-rule="evenodd" /></g><g clip-path="url(#3)"><g clip-path="url(#4)"></g><g clip-path="url(#5)"></g></g><path transform="matrix(1 0 0 -1 0 841)" d="M84.744 732.46L169.464 732.46L169.464 732.46L169.464 751.564L169.464 751.564L84.744 751.564z" stroke="none" fill="#0070C0" fill-rule="evenodd" /><g clip-path="url(#6)"><path transform="matrix(1 0 0 -1 0 841)" d="M89.904 732.46L164.304 732.46L164.304 732.46L164.304 751.564L164.304 751.564L89.904 751.564z" stroke="none" fill="#0070C0" fill-rule="evenodd" /><g clip-path="url(#7)"></g><g clip-path="url(#8)"></g></g><path transform="matrix(1 0 0 -1 0 841)" d="M169.94 732.46L217.124 732.46L217.124 732.46L217.124 751.564L217.124 751.564L169.94 751.564z" stroke="none" fill="#0070C0" fill-rule="evenodd" /><g clip-path="url(#9)"><path transform="matrix(1 0 0 -1 0 841)" d="M175.1 732.46L211.964 732.46L211.964 732.46L211.964 751.564L211.964 751.564L175.1 751.564z" stroke="none" fill="#0070C0" fill-rule="evenodd" /><g clip-path="url(#10)"></g><g clip-path="url(#11)"></g></g><path transform="matrix(1 0 0 -1 0 841)" d="M217.61 732.46L259.61 732.46L259.61 732.46L259.61 751.564L259.61 751.564L217.61 751.564z" stroke="none" fill="#0070C0" fill-rule="evenodd" /><g clip-path="url(#12)"><path transform="matrix(1 0 0 -1 0 841)" d="M222.77 732.46L254.45 732.46L254.45 732.46L254.45 751.564L254.45 751.564L222.77 751.564z" stroke="none" fill="#0070C0" fill-rule="evenodd" /><g clip-path="url(#13)"></g><g clip-path="url(#14)"></g></g><path transform="matrix(1 0 0 -1 0 841)" d="M260.09 732.46L351.794 732.46L351.794 732.46L351.794 751.564L351.794 751.564L260.09 751.564z" stroke="none" fill="#0070C0" fill-rule="evenodd" /><g clip-path="url(#15)"><path transform="matrix(1 0 0 -1 0 841)" d="M265.25 732.46L346.634 732.46L346.634 732.46L346.634 751.564L346.634 751.564L265.25 751.564z" stroke="none" fill="#0070C0" fill-rule="evenodd" /><g clip-path="url(#16)"></g><g clip-path="url(#17)"></g></g><path transform="matrix(1 0 0 -1 0 841)" d="M352.27 732.46L510.69 732.46L510.69 732.46L510.69 751.564L510.69 751.564L352.27 751.564z" stroke="none" fill="#0070C0" fill-rule="evenodd" /><g clip-path="url(#18)"><path transform="matrix(1 0 0 -1 0 841)" d="M357.43 732.46L505.53 732.46L505.53 732.46L505.53 751.564L505.53 751.564L357.43 751.564z" stroke="none" fill="#0070C0" fill-rule="evenodd" /><g clip-path="url(#19)"></g><g clip-path="url(#20)"></g></g><path transform="matrix(1 0 0 -1 0 841)" d="M84.264 751.56L84.744 751.56L84.744 751.56L84.744 752.04L84.744 752.04L84.264 752.04z" stroke="none" fill="#000000" fill-rule="evenodd" /><path transform="matrix(1 0 0 -1 0 841)" d="M84.264 751.56L84.744 751.56L84.744 751.56L84.744 752.04L84.744 752.04L84.264 752.04z" stroke="none" fill="#000000" fill-rule="evenodd" /><path transform="matrix(1 0 0 -1 0 841)" d="M84.744 751.56L169.464 751.56L169.464 751.56L169.464 752.04L169.464 752.04L84.744 752.04z" stroke="none" fill="#000000" fill-rule="evenodd" /><path transform="matrix(1 0 0 -1 0 841)" d="M169.46 751.56L169.94 751.56L169.94 751.56L169.94 752.04L169.94 752.04L169.46 752.04z" stroke="none" fill="#000000" fill-rule="evenodd" /><path transform="matrix(1 0 0 -1 0 841)" d="M169.94 751.56L217.124 751.56L217.124 751.56L217.124 752.04L217.124 752.04L169.94 752.04z" stroke="none" fill="#000000" fill-rule="evenodd" /><path transform="matrix(1 0 0 -1 0 841)" d="M217.13 751.56L217.61 751.56L217.61 751.56L217.61 752.04L217.61 752.04L217.13 752.04z" stroke="none" fill="#000000" fill-rule="evenodd" /><path transform="matrix(1 0 0 -1 0 841)" d="M217.61 751.56L259.61 751.56L259.61 751.56L259.61 752.04L259.61 752.04L217.61 752.04z" stroke="none" fill="#000000" fill-rule="evenodd" /><path transform="matrix(1 0 0 -1 0 841)" d="M259.61 751.56L260.09 751.56L260.09 751.56L260.09 752.04L260.09 752.04L259.61 752.04z" stroke="none" fill="#000000" fill-rule="evenodd" /><path transform="matrix(1 0 0 -1 0 841)" d="M260.09 751.56L351.794 751.56L351.794 751.56L351.794 752.04L351.794 752.04L260.09 752.04z" stroke="none" fill="#000000" fill-rule="evenodd" /><path transform="matrix(1 0 0 -1 0 841)" d="M351.79 751.56L352.27 751.56L352.27 751.56L352.27 752.04L352.27 752.04L351.79 752.04z" stroke="none" fill="#000000" fill-rule="evenodd" /><path transform="matrix(1 0 0 -1 0 841)" d="M352.27 751.56L510.69 751.56L510.69 751.56L510.69 752.04L510.69 752.04L352.27 752.04z" stroke="none" fill="#000000" fill-rule="evenodd" /><path transform="matrix(1 0 0 -1 0 841)" d="M510.7 751.56L511.18 751.56L511.18 751.56L511.18 752.04L511.18 752.04L510.7 752.04z" stroke="none" fill="#000000" fill-rule="evenodd" /><path transform="matrix(1 0 0 -1 0 841)" d="M510.7 751.56L511.18 751.56L511.18 751.56L511.18 752.04L511.18 752.04L510.7 752.04z" stroke="none" fill="#000000" fill-rule="evenodd" /><path transform="matrix(1 0 0 -1 0 841)" d="M84.264 732.46L84.744 732.46L84.744 732.46L84.744 751.564L84.744 751.564L84.264 751.564z" stroke="none" fill="#000000" fill-rule="evenodd" /><path transform="matrix(1 0 0 -1 0 841)" d="M169.46 732.46L169.94 732.46L169.94 732.46L169.94 751.564L169.94 751.564L169.46 751.564z" stroke="none" fill="#000000" fill-rule="evenodd" /><path transform="matrix(1 0 0 -1 0 841)" d="M217.13 732.46L217.61 732.46L217.61 732.46L217.61 751.564L217.61 751.564L217.13 751.564z" stroke="none" fill="#000000" fill-rule="evenodd" /><path transform="matrix(1 0 0 -1 0 841)" d="M259.61 732.46L260.09 732.46L260.09 732.46L260.09 751.564L260.09 751.564L259.61 751.564z" stroke="none" fill="#000000" fill-rule="evenodd" /><path transform="matrix(1 0 0 -1 0 841)" d="M351.79 732.46L352.27 732.46L352.27 732.46L352.27 751.564L352.27 751.564L351.79 751.564z" stroke="none" fill="#000000" fill-rule="evenodd" /><path transform="matrix(1 0 0 -1 0 841)" d="M510.7 732.46L511.18 732.46L511.18 732.46L511.18 751.564L511.18 751.564L510.7 751.564z" stroke="none" fill="#000000" fill-rule="evenodd" /><path transform="matrix(1 0 0 -1 0 841)" d="M84.744 712.9L169.464 712.9L169.464 712.9L169.464 731.98L169.464 731.98L84.744 731.98z" stroke="none" fill="#DAEEF3" fill-rule="evenodd" /><path transform="matrix(1 0 0 -1 0 841)" d="M169.94 712.9L217.124 712.9L217.124 712.9L217.124 731.98L217.124 731.98L169.94 731.98z" stroke="none" fill="#DAEEF3" fill-rule="evenodd" /><path transform="matrix(1 0 0 -1 0 841)" d="M217.61 712.9L259.61 712.9L259.61 712.9L259.61 731.98L259.61 731.98L217.61 731.98z" stroke="none" fill="#DAEEF3" fill-rule="evenodd" /><path transform="matrix(1 0 0 -1 0 841)" d="M260.09 712.9L351.794 712.9L351.794 712.9L351.794 731.98L351.794 731.98L260.09 731.98z" stroke="none" fill="#DAEEF3" fill-rule="evenodd" /><path transform="matrix(1 0 0 -1 0 841)" d="M352.27 712.9L510.69 712.9L510.69 712.9L510.69 731.98L510.69 731.98L352.27 731.98z" stroke="none" fill="#DAEEF3" fill-rule="evenodd" /><g clip-path="url(#21)"><path transform="matrix(1 0 0 -1 0 841)" d="M357.43 712.9L505.53 712.9L505.53 712.9L505.53 731.98L505.53 731.98L357.43 731.98z" stroke="none" fill="#DAEEF3" fill-rule="evenodd" /><g clip-path="url(#22)"></g><g clip-path="url(#23)"></g></g><path transform="matrix(1 0 0 -1 0 841)" d="M84.264 731.98L84.744 731.98L84.744 731.98L84.744 732.46L84.744 732.46L84.264 732.46z" stroke="none" fill="#000000" fill-rule="evenodd" /><path transform="matrix(1 0 0 -1 0 841)" d="M84.744 731.98L169.464 731.98L169.464 731.98L169.464 732.46L169.464 732.46L84.744 732.46z" stroke="none" fill="#000000" fill-rule="evenodd" /><path transform="matrix(1 0 0 -1 0 841)" d="M169.46 731.98L169.94 731.98L169.94 731.98L169.94 732.46L169.94 732.46L169.46 732.46z" stroke="none" fill="#000000" fill-rule="evenodd" /><path transform="matrix(1 0 0 -1 0 841)" d="M169.94 731.98L217.124 731.98L217.124 731.98L217.124 732.46L217.124 732.46L169.94 732.46z" stroke="none" fill="#000000" fill-rule="evenodd" /><path transform="matrix(1 0 0 -1 0 841)" d="M217.13 731.98L217.61 731.98L217.61 731.98L217.61 732.46L217.61 732.46L217.13 732.46z" stroke="none" fill="#000000" fill-rule="evenodd" /><path transform="matrix(1 0 0 -1 0 841)" d="M217.61 731.98L259.61 731.98L259.61 731.98L259.61 732.46L259.61 732.46L217.61 732.46z" stroke="none" fill="#000000" fill-rule="evenodd" /><path transform="matrix(1 0 0 -1 0 841)" d="M259.61 731.98L260.09 731.98L260.09 731.98L260.09 732.46L260.09 732.46L259.61 732.46z" stroke="none" fill="#000000" fill-rule="evenodd" /><path transform="matrix(1 0 0 -1 0 841)" d="M260.09 731.98L351.794 731.98L351.794 731.98L351.794 732.46L351.794 732.46L260.09 732.46z" stroke="none" fill="#000000" fill-rule="evenodd" /><path transform="matrix(1 0 0 -1 0 841)" d="M351.79 731.98L352.27 731.98L352.27 731.98L352.27 732.46L352.27 732.46L351.79 732.46z" stroke="none" fill="#000000" fill-rule="evenodd" /><path transform="matrix(1 0 0 -1 0 841)" d="M352.27 731.98L510.69 731.98L510.69 731.98L510.69 732.46L510.69 732.46L352.27 732.46z" stroke="none" fill="#000000" fill-rule="evenodd" /><path transform="matrix(1 0 0 -1 0 841)" d="M510.7 731.98L511.18 731.98L511.18 731.98L511.18 732.46L511.18 732.46L510.7 732.46z" stroke="none" fill="#000000" fill-rule="evenodd" /><path transform="matrix(1 0 0 -1 0 841)" d="M84.264 712.9L84.744 712.9L84.744 712.9L84.744 731.98L84.744 731.98L84.264 731.98z" stroke="none" fill="#000000" fill-rule="evenodd" /><path transform="matrix(1 0 0 -1 0 841)" d="M169.46 712.9L169.94 712.9L169.94 712.9L169.94 731.98L169.94 731.98L169.46 731.98z" stroke="none" fill="#000000" fill-rule="evenodd" /><path transform="matrix(1 0 0 -1 0 841)" d="M217.13 712.9L217.61 712.9L217.61 712.9L217.61 731.98L217.61 731.98L217.13 731.98z" stroke="none" fill="#000000" fill-rule="evenodd" /><path transform="matrix(1 0 0 -1 0 841)" d="M259.61 712.9L260.09 712.9L260.09 712.9L260.09 731.98L260.09 731.98L259.61 731.98z" stroke="none" fill="#000000" fill-rule="evenodd" /><path transform="matrix(1 0 0 -1 0 841)" d="M351.79 712.9L352.27 712.9L352.27 712.9L352.27 731.98L352.27 731.98L351.79 731.98z" stroke="none" fill="#000000" fill-rule="evenodd" /><path transform="matrix(1 0 0 -1 0 841)" d="M510.7 712.9L511.18 712.9L511.18 712.9L511.18 731.98L511.18 731.98L510.7 731.98z" stroke="none" fill="#000000" fill-rule="evenodd" /><g clip-path="url(#24)"><g clip-path="url(#25)"></g><g clip-path="url(#26)"></g><g clip-path="url(#27)"></g></g><g clip-path="url(#28)"><g clip-path="url(#29)"></g><g clip-path="url(#30)"></g></g><g clip-path="url(#31)"><g clip-path="url(#32)"></g><g clip-path="url(#33)"></g></g><g clip-path="url(#34)"><g clip-path="url(#35)"></g><g clip-path="url(#36)"></g><g clip-path="url(#37)"></g><g clip-path="url(#38)"></g></g><g clip-path="url(#39)"><g clip-path="url(#40)"></g><g clip-path="url(#41)"></g></g><path transform="matrix(1 0 0 -1 0 841)" d="M84.264 712.42L84.744 712.42L84.744 712.42L84.744 712.9L84.744 712.9L84.264 712.9z" stroke="none" fill="#000000" fill-rule="evenodd" /><path transform="matrix(1 0 0 -1 0 841)" d="M84.744 712.42L169.464 712.42L169.464 712.42L169.464 712.9L169.464 712.9L84.744 712.9z" stroke="none" fill="#000000" fill-rule="evenodd" /><path transform="matrix(1 0 0 -1 0 841)" d="M169.46 712.42L169.94 712.42L169.94 712.42L169.94 712.9L169.94 712.9L169.46 712.9z" stroke="none" fill="#000000" fill-rule="evenodd" /><path transform="matrix(1 0 0 -1 0 841)" d="M169.94 712.42L217.124 712.42L217.124 712.42L217.124 712.9L217.124 712.9L169.94 712.9z" stroke="none" fill="#000000" fill-rule="evenodd" /><path transform="matrix(1 0 0 -1 0 841)" d="M217.13 712.42L217.61 712.42L217.61 712.42L217.61 712.9L217.61 712.9L217.13 712.9z" stroke="none" fill="#000000" fill-rule="evenodd" /><path transform="matrix(1 0 0 -1 0 841)" d="M217.61 712.42L259.61 712.42L259.61 712.42L259.61 712.9L259.61 712.9L217.61 712.9z" stroke="none" fill="#000000" fill-rule="evenodd" /><path transform="matrix(1 0 0 -1 0 841)" d="M259.61 712.42L260.09 712.42L260.09 712.42L260.09 712.9L260.09 712.9L259.61 712.9z" stroke="none" fill="#000000" fill-rule="evenodd" /><path transform="matrix(1 0 0 -1 0 841)" d="M260.09 712.42L351.794 712.42L351.794 712.42L351.794 712.9L351.794 712.9L260.09 712.9z" stroke="none" fill="#000000" fill-rule="evenodd" /><path transform="matrix(1 0 0 -1 0 841)" d="M351.79 712.42L352.27 712.42L352.27 712.42L352.27 712.9L352.27 712.9L351.79 712.9z" stroke="none" fill="#000000" fill-rule="evenodd" /><path transform="matrix(1 0 0 -1 0 841)" d="M352.27 712.42L510.69 712.42L510.69 712.42L510.69 712.9L510.69 712.9L352.27 712.9z" stroke="none" fill="#000000" fill-rule="evenodd" /><path transform="matrix(1 0 0 -1 0 841)" d="M510.7 712.42L511.18 712.42L511.18 712.42L511.18 712.9L511.18 712.9L510.7 712.9z" stroke="none" fill="#000000" fill-rule="evenodd" /><path transform="matrix(1 0 0 -1 0 841)" d="M84.264 655.3L84.744 655.3L84.744 655.3L84.744 712.42L84.744 712.42L84.264 712.42z" stroke="none" fill="#000000" fill-rule="evenodd" /><path transform="matrix(1 0 0 -1 0 841)" d="M169.46 655.3L169.94 655.3L169.94 655.3L169.94 712.42L169.94 712.42L169.46 712.42z" stroke="none" fill="#000000" fill-rule="evenodd" /><path transform="matrix(1 0 0 -1 0 841)" d="M217.13 655.3L217.61 655.3L217.61 655.3L217.61 712.42L217.61 712.42L217.13 712.42z" stroke="none" fill="#000000" fill-rule="evenodd" /><path transform="matrix(1 0 0 -1 0 841)" d="M259.61 655.3L260.09 655.3L260.09 655.3L260.09 712.42L260.09 712.42L259.61 712.42z" stroke="none" fill="#000000" fill-rule="evenodd" /><path transform="matrix(1 0 0 -1 0 841)" d="M351.79 655.3L352.27 655.3L352.27 655.3L352.27 712.42L352.27 712.42L351.79 712.42z" stroke="none" fill="#000000" fill-rule="evenodd" /><path transform="matrix(1 0 0 -1 0 841)" d="M510.7 655.3L511.18 655.3L511.18 655.3L511.18 712.42L511.18 712.42L510.7 712.42z" stroke="none" fill="#000000" fill-rule="evenodd" /><path transform="matrix(1 0 0 -1 0 841)" d="M84.744 616.66L169.464 616.66L169.464 616.66L169.464 654.8199L169.464 654.8199L84.744 654.8199z" stroke="none" fill="#DAEEF3" fill-rule="evenodd" /><g clip-path="url(#42)"><path transform="matrix(1 0 0 -1 0 841)" d="M89.904 635.74L164.304 635.74L164.304 635.74L164.304 654.82L164.304 654.82L89.904 654.82z" stroke="none" fill="#DAEEF3" fill-rule="evenodd" /><g clip-path="url(#43)"></g><path transform="matrix(1 0 0 -1 0 841)" d="M89.904 616.66L164.304 616.66L164.304 616.66L164.304 635.74L164.304 635.74L89.904 635.74z" stroke="none" fill="#DAEEF3" fill-rule="evenodd" /><g clip-path="url(#44)"></g><g clip-path="url(#45)"></g></g><path transform="matrix(1 0 0 -1 0 841)" d="M169.94 616.66L217.124 616.66L217.124 616.66L217.124 654.8199L217.124 654.8199L169.94 654.8199z" stroke="none" fill="#DAEEF3" fill-rule="evenodd" /><g clip-path="url(#46)"><path transform="matrix(1 0 0 -1 0 841)" d="M175.1 635.74L211.964 635.74L211.964 635.74L211.964 654.82L211.964 654.82L175.1 654.82z" stroke="none" fill="#DAEEF3" fill-rule="evenodd" /><g clip-path="url(#47)"></g><g clip-path="url(#48)"></g></g><path transform="matrix(1 0 0 -1 0 841)" d="M217.61 616.66L259.61 616.66L259.61 616.66L259.61 654.8199L259.61 654.8199L217.61 654.8199z" stroke="none" fill="#DAEEF3" fill-rule="evenodd" /><g clip-path="url(#49)"><path transform="matrix(1 0 0 -1 0 841)" d="M222.77 635.74L254.45 635.74L254.45 635.74L254.45 654.82L254.45 654.82L222.77 654.82z" stroke="none" fill="#DAEEF3" fill-rule="evenodd" /><g clip-path="url(#50)"></g><g clip-path="url(#51)"></g></g><path transform="matrix(1 0 0 -1 0 841)" d="M260.09 616.66L351.794 616.66L351.794 616.66L351.794 654.8199L351.794 654.8199L260.09 654.8199z" stroke="none" fill="#DAEEF3" fill-rule="evenodd" /><g clip-path="url(#52)"><path transform="matrix(1 0 0 -1 0 841)" d="M265.25 635.74L346.634 635.74L346.634 635.74L346.634 654.82L346.634 654.82L265.25 654.82z" stroke="none" fill="#DAEEF3" fill-rule="evenodd" /><g clip-path="url(#53)"></g><g clip-path="url(#54)"></g></g><path transform="matrix(1 0 0 -1 0 841)" d="M352.27 616.66L510.69 616.66L510.69 616.66L510.69 654.8199L510.69 654.8199L352.27 654.8199z" stroke="none" fill="#DAEEF3" fill-rule="evenodd" /><g clip-path="url(#55)"><path transform="matrix(1 0 0 -1 0 841)" d="M357.43 635.74L505.53 635.74L505.53 635.74L505.53 654.82L505.53 654.82L357.43 654.82z" stroke="none" fill="#DAEEF3" fill-rule="evenodd" /><g clip-path="url(#56)"></g><g clip-path="url(#57)"></g><g clip-path="url(#58)"></g><path transform="matrix(1 0 0 -1 0 841)" d="M371.47 637.66L441.55 637.66L441.55 637.66L441.55 638.3799L441.55 638.3799L371.47 638.3799z" stroke="none" fill="#FF0000" fill-rule="evenodd" /><path transform="matrix(1 0 0 -1 0 841)" d="M357.43 616.66L505.53 616.66L505.53 616.66L505.53 635.74L505.53 635.74L357.43 635.74z" stroke="none" fill="#DAEEF3" fill-rule="evenodd" /><g clip-path="url(#59)"></g><g clip-path="url(#60)"></g></g><path transform="matrix(1 0 0 -1 0 841)" d="M84.264 654.82L84.744 654.82L84.744 654.82L84.744 655.3L84.744 655.3L84.264 655.3z" stroke="none" fill="#000000" fill-rule="evenodd" /><path transform="matrix(1 0 0 -1 0 841)" d="M84.744 654.82L169.464 654.82L169.464 654.82L169.464 655.3L169.464 655.3L84.744 655.3z" stroke="none" fill="#000000" fill-rule="evenodd" /><path transform="matrix(1 0 0 -1 0 841)" d="M169.46 654.82L169.94 654.82L169.94 654.82L169.94 655.3L169.94 655.3L169.46 655.3z" stroke="none" fill="#000000" fill-rule="evenodd" /><path transform="matrix(1 0 0 -1 0 841)" d="M169.94 654.82L217.124 654.82L217.124 654.82L217.124 655.3L217.124 655.3L169.94 655.3z" stroke="none" fill="#000000" fill-rule="evenodd" /><path transform="matrix(1 0 0 -1 0 841)" d="M217.13 654.82L217.61 654.82L217.61 654.82L217.61 655.3L217.61 655.3L217.13 655.3z" stroke="none" fill="#000000" fill-rule="evenodd" /><path transform="matrix(1 0 0 -1 0 841)" d="M217.61 654.82L259.61 654.82L259.61 654.82L259.61 655.3L259.61 655.3L217.61 655.3z" stroke="none" fill="#000000" fill-rule="evenodd" /><path transform="matrix(1 0 0 -1 0 841)" d="M259.61 654.82L260.09 654.82L260.09 654.82L260.09 655.3L260.09 655.3L259.61 655.3z" stroke="none" fill="#000000" fill-rule="evenodd" /><path transform="matrix(1 0 0 -1 0 841)" d="M260.09 654.82L351.794 654.82L351.794 654.82L351.794 655.3L351.794 655.3L260.09 655.3z" stroke="none" fill="#000000" fill-rule="evenodd" /><path transform="matrix(1 0 0 -1 0 841)" d="M351.79 654.82L352.27 654.82L352.27 654.82L352.27 655.3L352.27 655.3L351.79 655.3z" stroke="none" fill="#000000" fill-rule="evenodd" /><path transform="matrix(1 0 0 -1 0 841)" d="M352.27 654.82L510.69 654.82L510.69 654.82L510.69 655.3L510.69 655.3L352.27 655.3z" stroke="none" fill="#000000" fill-rule="evenodd" /><path transform="matrix(1 0 0 -1 0 841)" d="M510.7 654.82L511.18 654.82L511.18 654.82L511.18 655.3L511.18 655.3L510.7 655.3z" stroke="none" fill="#000000" fill-rule="evenodd" /><path transform="matrix(1 0 0 -1 0 841)" d="M84.264 616.66L84.744 616.66L84.744 616.66L84.744 654.8199L84.744 654.8199L84.264 654.8199z" stroke="none" fill="#000000" fill-rule="evenodd" /><path transform="matrix(1 0 0 -1 0 841)" d="M169.46 616.66L169.94 616.66L169.94 616.66L169.94 654.8199L169.94 654.8199L169.46 654.8199z" stroke="none" fill="#000000" fill-rule="evenodd" /><path transform="matrix(1 0 0 -1 0 841)" d="M217.13 616.66L217.61 616.66L217.61 616.66L217.61 654.8199L217.61 654.8199L217.13 654.8199z" stroke="none" fill="#000000" fill-rule="evenodd" /><path transform="matrix(1 0 0 -1 0 841)" d="M259.61 616.66L260.09 616.66L260.09 616.66L260.09 654.8199L260.09 654.8199L259.61 654.8199z" stroke="none" fill="#000000" fill-rule="evenodd" /><path transform="matrix(1 0 0 -1 0 841)" d="M351.79 616.66L352.27 616.66L352.27 616.66L352.27 654.8199L352.27 654.8199L351.79 654.8199z" stroke="none" fill="#000000" fill-rule="evenodd" /><path transform="matrix(1 0 0 -1 0 841)" d="M510.7 616.66L511.18 616.66L511.18 616.66L511.18 654.8199L511.18 654.8199L510.7 654.8199z" stroke="none" fill="#000000" fill-rule="evenodd" /><g clip-path="url(#61)"><g clip-path="url(#62)"></g><g clip-path="url(#63)"></g></g><g clip-path="url(#64)"><g clip-path="url(#65)"></g><g clip-path="url(#66)"></g></g><g clip-path="url(#67)"><g clip-path="url(#68)"></g><g clip-path="url(#69)"></g></g><g clip-path="url(#70)"><g clip-path="url(#71)"></g><g clip-path="url(#72)"></g></g><g clip-path="url(#73)"><g clip-path="url(#74)"></g><g clip-path="url(#75)"></g><path transform="matrix(1 0 0 -1 0 841)" d="M357.43 599.02L413.47 599.02L413.47 599.02L413.47 599.74L413.47 599.74L357.43 599.74z" stroke="none" fill="#0000FF" fill-rule="evenodd" /></g><path transform="matrix(1 0 0 -1 0 841)" d="M84.264 616.18L84.744 616.18L84.744 616.18L84.744 616.66L84.744 616.66L84.264 616.66z" stroke="none" fill="#000000" fill-rule="evenodd" /><path transform="matrix(1 0 0 -1 0 841)" d="M84.744 616.18L169.464 616.18L169.464 616.18L169.464 616.66L169.464 616.66L84.744 616.66z" stroke="none" fill="#000000" fill-rule="evenodd" /><path transform="matrix(1 0 0 -1 0 841)" d="M169.46 616.18L169.94 616.18L169.94 616.18L169.94 616.66L169.94 616.66L169.46 616.66z" stroke="none" fill="#000000" fill-rule="evenodd" /><path transform="matrix(1 0 0 -1 0 841)" d="M169.94 616.18L217.124 616.18L217.124 616.18L217.124 616.66L217.124 616.66L169.94 616.66z" stroke="none" fill="#000000" fill-rule="evenodd" /><path transform="matrix(1 0 0 -1 0 841)" d="M217.13 616.18L217.61 616.18L217.61 616.18L217.61 616.66L217.61 616.66L217.13 616.66z" stroke="none" fill="#000000" fill-rule="evenodd" /><path transform="matrix(1 0 0 -1 0 841)" d="M217.61 616.18L259.61 616.18L259.61 616.18L259.61 616.66L259.61 616.66L217.61 616.66z" stroke="none" fill="#000000" fill-rule="evenodd" /><path transform="matrix(1 0 0 -1 0 841)" d="M259.61 616.18L260.09 616.18L260.09 616.18L260.09 616.66L260.09 616.66L259.61 616.66z" stroke="none" fill="#000000" fill-rule="evenodd" /><path transform="matrix(1 0 0 -1 0 841)" d="M260.09 616.18L351.794 616.18L351.794 616.18L351.794 616.66L351.794 616.66L260.09 616.66z" stroke="none" fill="#000000" fill-rule="evenodd" /><path transform="matrix(1 0 0 -1 0 841)" d="M351.79 616.18L352.27 616.18L352.27 616.18L352.27 616.66L352.27 616.66L351.79 616.66z" stroke="none" fill="#000000" fill-rule="evenodd" /><path transform="matrix(1 0 0 -1 0 841)" d="M352.27 616.18L510.69 616.18L510.69 616.18L510.69 616.66L510.69 616.66L352.27 616.66z" stroke="none" fill="#000000" fill-rule="evenodd" /><path transform="matrix(1 0 0 -1 0 841)" d="M510.7 616.18L511.18 616.18L511.18 616.18L511.18 616.66L511.18 616.66L510.7 616.66z" stroke="none" fill="#000000" fill-rule="evenodd" /><path transform="matrix(1 0 0 -1 0 841)" d="M84.264 596.14L84.744 596.14L84.744 596.14L84.744 616.18L84.744 616.18L84.264 616.18z" stroke="none" fill="#000000" fill-rule="evenodd" /><path transform="matrix(1 0 0 -1 0 841)" d="M169.46 596.14L169.94 596.14L169.94 596.14L169.94 616.18L169.94 616.18L169.46 616.18z" stroke="none" fill="#000000" fill-rule="evenodd" /><path transform="matrix(1 0 0 -1 0 841)" d="M217.13 596.14L217.61 596.14L217.61 596.14L217.61 616.18L217.61 616.18L217.13 616.18z" stroke="none" fill="#000000" fill-rule="evenodd" /><path transform="matrix(1 0 0 -1 0 841)" d="M259.61 596.14L260.09 596.14L260.09 596.14L260.09 616.18L260.09 616.18L259.61 616.18z" stroke="none" fill="#000000" fill-rule="evenodd" /><path transform="matrix(1 0 0 -1 0 841)" d="M351.79 596.14L352.27 596.14L352.27 596.14L352.27 616.18L352.27 616.18L351.79 616.18z" stroke="none" fill="#000000" fill-rule="evenodd" /><path transform="matrix(1 0 0 -1 0 841)" d="M510.7 596.14L511.18 596.14L511.18 596.14L511.18 616.18L511.18 616.18L510.7 616.18z" stroke="none" fill="#000000" fill-rule="evenodd" /><path transform="matrix(1 0 0 -1 0 841)" d="M84.744 575.62L169.464 575.62L169.464 575.62L169.464 595.66L169.464 595.66L84.744 595.66z" stroke="none" fill="#DAEEF3" fill-rule="evenodd" /><g clip-path="url(#76)"><path transform="matrix(1 0 0 -1 0 841)" d="M89.904 576.58L164.304 576.58L164.304 576.58L164.304 595.66L164.304 595.66L89.904 595.66z" stroke="none" fill="#DAEEF3" fill-rule="evenodd" /><g clip-path="url(#77)"></g><g clip-path="url(#78)"></g></g><path transform="matrix(1 0 0 -1 0 841)" d="M169.94 575.62L217.124 575.62L217.124 575.62L217.124 595.66L217.124 595.66L169.94 595.66z" stroke="none" fill="#DAEEF3" fill-rule="evenodd" /><g clip-path="url(#79)"><path transform="matrix(1 0 0 -1 0 841)" d="M175.1 576.58L211.964 576.58L211.964 576.58L211.964 595.66L211.964 595.66L175.1 595.66z" stroke="none" fill="#DAEEF3" fill-rule="evenodd" /><g clip-path="url(#80)"></g><g clip-path="url(#81)"></g></g><path transform="matrix(1 0 0 -1 0 841)" d="M217.61 575.62L259.61 575.62L259.61 575.62L259.61 595.66L259.61 595.66L217.61 595.66z" stroke="none" fill="#DAEEF3" fill-rule="evenodd" /><g clip-path="url(#82)"><path transform="matrix(1 0 0 -1 0 841)" d="M222.77 576.58L254.45 576.58L254.45 576.58L254.45 595.66L254.45 595.66L222.77 595.66z" stroke="none" fill="#DAEEF3" fill-rule="evenodd" /><g clip-path="url(#83)"></g><g clip-path="url(#84)"></g></g><path transform="matrix(1 0 0 -1 0 841)" d="M260.09 575.62L351.794 575.62L351.794 575.62L351.794 595.66L351.794 595.66L260.09 595.66z" stroke="none" fill="#DAEEF3" fill-rule="evenodd" /><g clip-path="url(#85)"><path transform="matrix(1 0 0 -1 0 841)" d="M265.25 576.58L346.634 576.58L346.634 576.58L346.634 595.66L346.634 595.66L265.25 595.66z" stroke="none" fill="#DAEEF3" fill-rule="evenodd" /><g clip-path="url(#86)"></g><g clip-path="url(#87)"></g></g><path transform="matrix(1 0 0 -1 0 841)" d="M352.27 575.62L510.69 575.62L510.69 575.62L510.69 595.66L510.69 595.66L352.27 595.66z" stroke="none" fill="#DAEEF3" fill-rule="evenodd" /><g clip-path="url(#88)"><path transform="matrix(1 0 0 -1 0 841)" d="M357.43 576.58L505.53 576.58L505.53 576.58L505.53 595.66L505.53 595.66L357.43 595.66z" stroke="none" fill="#DAEEF3" fill-rule="evenodd" /><g clip-path="url(#89)"></g><g clip-path="url(#90)"></g></g><path transform="matrix(1 0 0 -1 0 841)" d="M84.264 595.66L84.744 595.66L84.744 595.66L84.744 596.14L84.744 596.14L84.264 596.14z" stroke="none" fill="#000000" fill-rule="evenodd" /><path transform="matrix(1 0 0 -1 0 841)" d="M84.744 595.66L169.464 595.66L169.464 595.66L169.464 596.14L169.464 596.14L84.744 596.14z" stroke="none" fill="#000000" fill-rule="evenodd" /><path transform="matrix(1 0 0 -1 0 841)" d="M169.46 595.66L169.94 595.66L169.94 595.66L169.94 596.14L169.94 596.14L169.46 596.14z" stroke="none" fill="#000000" fill-rule="evenodd" /><path transform="matrix(1 0 0 -1 0 841)" d="M169.94 595.66L217.124 595.66L217.124 595.66L217.124 596.14L217.124 596.14L169.94 596.14z" stroke="none" fill="#000000" fill-rule="evenodd" /><path transform="matrix(1 0 0 -1 0 841)" d="M217.13 595.66L217.61 595.66L217.61 595.66L217.61 596.14L217.61 596.14L217.13 596.14z" stroke="none" fill="#000000" fill-rule="evenodd" /><path transform="matrix(1 0 0 -1 0 841)" d="M217.61 595.66L259.61 595.66L259.61 595.66L259.61 596.14L259.61 596.14L217.61 596.14z" stroke="none" fill="#000000" fill-rule="evenodd" /><path transform="matrix(1 0 0 -1 0 841)" d="M259.61 595.66L260.09 595.66L260.09 595.66L260.09 596.14L260.09 596.14L259.61 596.14z" stroke="none" fill="#000000" fill-rule="evenodd" /><path transform="matrix(1 0 0 -1 0 841)" d="M260.09 595.66L351.794 595.66L351.794 595.66L351.794 596.14L351.794 596.14L260.09 596.14z" stroke="none" fill="#000000" fill-rule="evenodd" /><path transform="matrix(1 0 0 -1 0 841)" d="M351.79 595.66L352.27 595.66L352.27 595.66L352.27 596.14L352.27 596.14L351.79 596.14z" stroke="none" fill="#000000" fill-rule="evenodd" /><path transform="matrix(1 0 0 -1 0 841)" d="M352.27 595.66L510.69 595.66L510.69 595.66L510.69 596.14L510.69 596.14L352.27 596.14z" stroke="none" fill="#000000" fill-rule="evenodd" /><path transform="matrix(1 0 0 -1 0 841)" d="M510.7 595.66L511.18 595.66L511.18 595.66L511.18 596.14L511.18 596.14L510.7 596.14z" stroke="none" fill="#000000" fill-rule="evenodd" /><path transform="matrix(1 0 0 -1 0 841)" d="M84.264 575.62L84.744 575.62L84.744 575.62L84.744 595.66L84.744 595.66L84.264 595.66z" stroke="none" fill="#000000" fill-rule="evenodd" /><path transform="matrix(1 0 0 -1 0 841)" d="M84.264 575.14L84.744 575.14L84.744 575.14L84.744 575.62L84.744 575.62L84.264 575.62z" stroke="none" fill="#000000" fill-rule="evenodd" /><path transform="matrix(1 0 0 -1 0 841)" d="M84.264 575.14L84.744 575.14L84.744 575.14L84.744 575.62L84.744 575.62L84.264 575.62z" stroke="none" fill="#000000" fill-rule="evenodd" /><path transform="matrix(1 0 0 -1 0 841)" d="M84.744 575.14L169.464 575.14L169.464 575.14L169.464 575.62L169.464 575.62L84.744 575.62z" stroke="none" fill="#000000" fill-rule="evenodd" /><path transform="matrix(1 0 0 -1 0 841)" d="M169.46 575.62L169.94 575.62L169.94 575.62L169.94 595.66L169.94 595.66L169.46 595.66z" stroke="none" fill="#000000" fill-rule="evenodd" /><path transform="matrix(1 0 0 -1 0 841)" d="M169.46 575.14L169.94 575.14L169.94 575.14L169.94 575.62L169.94 575.62L169.46 575.62z" stroke="none" fill="#000000" fill-rule="evenodd" /><path transform="matrix(1 0 0 -1 0 841)" d="M169.94 575.14L217.124 575.14L217.124 575.14L217.124 575.62L217.124 575.62L169.94 575.62z" stroke="none" fill="#000000" fill-rule="evenodd" /><path transform="matrix(1 0 0 -1 0 841)" d="M217.13 575.62L217.61 575.62L217.61 575.62L217.61 595.66L217.61 595.66L217.13 595.66z" stroke="none" fill="#000000" fill-rule="evenodd" /><path transform="matrix(1 0 0 -1 0 841)" d="M217.13 575.14L217.61 575.14L217.61 575.14L217.61 575.62L217.61 575.62L217.13 575.62z" stroke="none" fill="#000000" fill-rule="evenodd" /><path transform="matrix(1 0 0 -1 0 841)" d="M217.61 575.14L259.61 575.14L259.61 575.14L259.61 575.62L259.61 575.62L217.61 575.62z" stroke="none" fill="#000000" fill-rule="evenodd" /><path transform="matrix(1 0 0 -1 0 841)" d="M259.61 575.62L260.09 575.62L260.09 575.62L260.09 595.66L260.09 595.66L259.61 595.66z" stroke="none" fill="#000000" fill-rule="evenodd" /><path transform="matrix(1 0 0 -1 0 841)" d="M259.61 575.14L260.09 575.14L260.09 575.14L260.09 575.62L260.09 575.62L259.61 575.62z" stroke="none" fill="#000000" fill-rule="evenodd" /><path transform="matrix(1 0 0 -1 0 841)" d="M260.09 575.14L351.794 575.14L351.794 575.14L351.794 575.62L351.794 575.62L260.09 575.62z" stroke="none" fill="#000000" fill-rule="evenodd" /><path transform="matrix(1 0 0 -1 0 841)" d="M351.79 575.62L352.27 575.62L352.27 575.62L352.27 595.66L352.27 595.66L351.79 595.66z" stroke="none" fill="#000000" fill-rule="evenodd" /><path transform="matrix(1 0 0 -1 0 841)" d="M351.79 575.14L352.27 575.14L352.27 575.14L352.27 575.62L352.27 575.62L351.79 575.62z" stroke="none" fill="#000000" fill-rule="evenodd" /><path transform="matrix(1 0 0 -1 0 841)" d="M352.27 575.14L510.69 575.14L510.69 575.14L510.69 575.62L510.69 575.62L352.27 575.62z" stroke="none" fill="#000000" fill-rule="evenodd" /><path transform="matrix(1 0 0 -1 0 841)" d="M510.7 575.62L511.18 575.62L511.18 575.62L511.18 595.66L511.18 595.66L510.7 595.66z" stroke="none" fill="#000000" fill-rule="evenodd" /><path transform="matrix(1 0 0 -1 0 841)" d="M510.7 575.14L511.18 575.14L511.18 575.14L511.18 575.62L511.18 575.62L510.7 575.62z" stroke="none" fill="#000000" fill-rule="evenodd" /><path transform="matrix(1 0 0 -1 0 841)" d="M510.7 575.14L511.18 575.14L511.18 575.14L511.18 575.62L511.18 575.62L510.7 575.62z" stroke="none" fill="#000000" fill-rule="evenodd" /><path transform="matrix(1 0 0 -1 0 841)" d="M84.744 498.19L291.764 498.19L291.764 498.19L291.764 517.27L291.764 517.27L84.744 517.27z" stroke="none" fill="#0070C0" fill-rule="evenodd" /><g clip-path="url(#91)"><path transform="matrix(1 0 0 -1 0 841)" d="M89.904 498.19L286.604 498.19L286.604 498.19L286.604 517.27L286.604 517.27L89.904 517.27z" stroke="none" fill="#0070C0" fill-rule="evenodd" /><g clip-path="url(#92)"></g><g clip-path="url(#93)"></g></g><path transform="matrix(1 0 0 -1 0 841)" d="M292.25 498.19L499.42 498.19L499.42 498.19L499.42 517.27L499.42 517.27L292.25 517.27z" stroke="none" fill="#0070C0" fill-rule="evenodd" /><g clip-path="url(#94)"><path transform="matrix(1 0 0 -1 0 841)" d="M297.41 498.19L494.26 498.19L494.26 498.19L494.26 517.27L494.26 517.27L297.41 517.27z" stroke="none" fill="#0070C0" fill-rule="evenodd" /><g clip-path="url(#95)"></g><g clip-path="url(#96)"></g></g><path transform="matrix(1 0 0 -1 0 841)" d="M84.264 517.27L84.744 517.27L84.744 517.27L84.744 517.75L84.744 517.75L84.264 517.75z" stroke="none" fill="#000000" fill-rule="evenodd" /><path transform="matrix(1 0 0 -1 0 841)" d="M84.264 517.27L84.744 517.27L84.744 517.27L84.744 517.75L84.744 517.75L84.264 517.75z" stroke="none" fill="#000000" fill-rule="evenodd" /><path transform="matrix(1 0 0 -1 0 841)" d="M84.744 517.27L291.884 517.27L291.884 517.27L291.884 517.75L291.884 517.75L84.744 517.75z" stroke="none" fill="#000000" fill-rule="evenodd" /><path transform="matrix(1 0 0 -1 0 841)" d="M291.89 517.27L292.37 517.27L292.37 517.27L292.37 517.75L292.37 517.75L291.89 517.75z" stroke="none" fill="#000000" fill-rule="evenodd" /><path transform="matrix(1 0 0 -1 0 841)" d="M292.37 517.27L499.42 517.27L499.42 517.27L499.42 517.75L499.42 517.75L292.37 517.75z" stroke="none" fill="#000000" fill-rule="evenodd" /><path transform="matrix(1 0 0 -1 0 841)" d="M499.42 517.27L499.9 517.27L499.9 517.27L499.9 517.75L499.9 517.75L499.42 517.75z" stroke="none" fill="#000000" fill-rule="evenodd" /><path transform="matrix(1 0 0 -1 0 841)" d="M499.42 517.27L499.9 517.27L499.9 517.27L499.9 517.75L499.9 517.75L499.42 517.75z" stroke="none" fill="#000000" fill-rule="evenodd" /><path transform="matrix(1 0 0 -1 0 841)" d="M84.264 498.19L84.744 498.19L84.744 498.19L84.744 517.27L84.744 517.27L84.264 517.27z" stroke="none" fill="#000000" fill-rule="evenodd" /><path transform="matrix(1 0 0 -1 0 841)" d="M291.89 498.19L292.37 498.19L292.37 498.19L292.37 517.27L292.37 517.27L291.89 517.27z" stroke="none" fill="#000000" fill-rule="evenodd" /><path transform="matrix(1 0 0 -1 0 841)" d="M499.42 498.19L499.9 498.19L499.9 498.19L499.9 517.27L499.9 517.27L499.42 517.27z" stroke="none" fill="#000000" fill-rule="evenodd" /><path transform="matrix(1 0 0 -1 0 841)" d="M84.744 478.63L291.764 478.63L291.764 478.63L291.764 497.71L291.764 497.71L84.744 497.71z" stroke="none" fill="#DAEEF3" fill-rule="evenodd" /><g clip-path="url(#97)"><path transform="matrix(1 0 0 -1 0 841)" d="M89.904 478.63L286.604 478.63L286.604 478.63L286.604 497.71L286.604 497.71L89.904 497.71z" stroke="none" fill="#DAEEF3" fill-rule="evenodd" /><g clip-path="url(#98)"></g><g clip-path="url(#99)"></g><g clip-path="url(#100)"></g></g><path transform="matrix(1 0 0 -1 0 841)" d="M292.25 478.63L499.42 478.63L499.42 478.63L499.42 497.71L499.42 497.71L292.25 497.71z" stroke="none" fill="#DAEEF3" fill-rule="evenodd" /><g clip-path="url(#101)"><path transform="matrix(1 0 0 -1 0 841)" d="M297.41 478.63L494.26 478.63L494.26 478.63L494.26 497.71L494.26 497.71L297.41 497.71z" stroke="none" fill="#DAEEF3" fill-rule="evenodd" /><g clip-path="url(#102)"></g><g clip-path="url(#103)"></g></g><path transform="matrix(1 0 0 -1 0 841)" d="M84.264 497.71L84.744 497.71L84.744 497.71L84.744 498.19L84.744 498.19L84.264 498.19z" stroke="none" fill="#000000" fill-rule="evenodd" /><path transform="matrix(1 0 0 -1 0 841)" d="M84.744 497.71L291.884 497.71L291.884 497.71L291.884 498.19L291.884 498.19L84.744 498.19z" stroke="none" fill="#000000" fill-rule="evenodd" /><path transform="matrix(1 0 0 -1 0 841)" d="M291.89 497.71L292.37 497.71L292.37 497.71L292.37 498.19L292.37 498.19L291.89 498.19z" stroke="none" fill="#000000" fill-rule="evenodd" /><path transform="matrix(1 0 0 -1 0 841)" d="M292.37 497.71L499.42 497.71L499.42 497.71L499.42 498.19L499.42 498.19L292.37 498.19z" stroke="none" fill="#000000" fill-rule="evenodd" /><path transform="matrix(1 0 0 -1 0 841)" d="M499.42 497.71L499.9 497.71L499.9 497.71L499.9 498.19L499.9 498.19L499.42 498.19z" stroke="none" fill="#000000" fill-rule="evenodd" /><path transform="matrix(1 0 0 -1 0 841)" d="M84.264 478.63L84.744 478.63L84.744 478.63L84.744 497.71L84.744 497.71L84.264 497.71z" stroke="none" fill="#000000" fill-rule="evenodd" /><path transform="matrix(1 0 0 -1 0 841)" d="M291.89 478.63L292.37 478.63L292.37 478.63L292.37 497.71L292.37 497.71L291.89 497.71z" stroke="none" fill="#000000" fill-rule="evenodd" /><path transform="matrix(1 0 0 -1 0 841)" d="M499.42 478.63L499.9 478.63L499.9 478.63L499.9 497.71L499.9 497.71L499.42 497.71z" stroke="none" fill="#000000" fill-rule="evenodd" /><g clip-path="url(#104)"><g clip-path="url(#105)"></g><g clip-path="url(#106)"></g></g><g clip-path="url(#107)"><g clip-path="url(#108)"></g><g clip-path="url(#109)"></g></g><path transform="matrix(1 0 0 -1 0 841)" d="M84.264 478.15L84.744 478.15L84.744 478.15L84.744 478.63L84.744 478.63L84.264 478.63z" stroke="none" fill="#000000" fill-rule="evenodd" /><path transform="matrix(1 0 0 -1 0 841)" d="M84.744 478.15L291.884 478.15L291.884 478.15L291.884 478.63L291.884 478.63L84.744 478.63z" stroke="none" fill="#000000" fill-rule="evenodd" /><path transform="matrix(1 0 0 -1 0 841)" d="M291.89 478.15L292.37 478.15L292.37 478.15L292.37 478.63L292.37 478.63L291.89 478.63z" stroke="none" fill="#000000" fill-rule="evenodd" /><path transform="matrix(1 0 0 -1 0 841)" d="M292.37 478.15L499.42 478.15L499.42 478.15L499.42 478.63L499.42 478.63L292.37 478.63z" stroke="none" fill="#000000" fill-rule="evenodd" /><path transform="matrix(1 0 0 -1 0 841)" d="M499.42 478.15L499.9 478.15L499.9 478.15L499.9 478.63L499.9 478.63L499.42 478.63z" stroke="none" fill="#000000" fill-rule="evenodd" /><path transform="matrix(1 0 0 -1 0 841)" d="M84.264 459.07L84.744 459.07L84.744 459.07L84.744 478.15L84.744 478.15L84.264 478.15z" stroke="none" fill="#000000" fill-rule="evenodd" /><path transform="matrix(1 0 0 -1 0 841)" d="M291.89 459.07L292.37 459.07L292.37 459.07L292.37 478.15L292.37 478.15L291.89 478.15z" stroke="none" fill="#000000" fill-rule="evenodd" /><path transform="matrix(1 0 0 -1 0 841)" d="M499.42 459.07L499.9 459.07L499.9 459.07L499.9 478.15L499.9 478.15L499.42 478.15z" stroke="none" fill="#000000" fill-rule="evenodd" /><path transform="matrix(1 0 0 -1 0 841)" d="M84.744 439.63L291.764 439.63L291.764 439.63L291.764 458.59L291.764 458.59L84.744 458.59z" stroke="none" fill="#DAEEF3" fill-rule="evenodd" /><g clip-path="url(#110)"><path transform="matrix(1 0 0 -1 0 841)" d="M89.904 439.63L286.604 439.63L286.604 439.63L286.604 458.59L286.604 458.59L89.904 458.59z" stroke="none" fill="#DAEEF3" fill-rule="evenodd" /><g clip-path="url(#111)"></g><g clip-path="url(#112)"></g></g><path transform="matrix(1 0 0 -1 0 841)" d="M292.25 439.63L499.42 439.63L499.42 439.63L499.42 458.59L499.42 458.59L292.25 458.59z" stroke="none" fill="#DAEEF3" fill-rule="evenodd" /><g clip-path="url(#113)"><path transform="matrix(1 0 0 -1 0 841)" d="M297.41 439.63L494.26 439.63L494.26 439.63L494.26 458.59L494.26 458.59L297.41 458.59z" stroke="none" fill="#DAEEF3" fill-rule="evenodd" /><g clip-path="url(#114)"></g><g clip-path="url(#115)"></g></g><path transform="matrix(1 0 0 -1 0 841)" d="M84.264 458.59L84.744 458.59L84.744 458.59L84.744 459.07L84.744 459.07L84.264 459.07z" stroke="none" fill="#000000" fill-rule="evenodd" /><path transform="matrix(1 0 0 -1 0 841)" d="M84.744 458.59L291.884 458.59L291.884 458.59L291.884 459.07L291.884 459.07L84.744 459.07z" stroke="none" fill="#000000" fill-rule="evenodd" /><path transform="matrix(1 0 0 -1 0 841)" d="M291.89 458.59L292.37 458.59L292.37 458.59L292.37 459.07L292.37 459.07L291.89 459.07z" stroke="none" fill="#000000" fill-rule="evenodd" /><path transform="matrix(1 0 0 -1 0 841)" d="M292.37 458.59L499.42 458.59L499.42 458.59L499.42 459.07L499.42 459.07L292.37 459.07z" stroke="none" fill="#000000" fill-rule="evenodd" /><path transform="matrix(1 0 0 -1 0 841)" d="M499.42 458.59L499.9 458.59L499.9 458.59L499.9 459.07L499.9 459.07L499.42 459.07z" stroke="none" fill="#000000" fill-rule="evenodd" /><path transform="matrix(1 0 0 -1 0 841)" d="M84.264 439.63L84.744 439.63L84.744 439.63L84.744 458.59L84.744 458.59L84.264 458.59z" stroke="none" fill="#000000" fill-rule="evenodd" /><path transform="matrix(1 0 0 -1 0 841)" d="M291.89 439.63L292.37 439.63L292.37 439.63L292.37 458.59L292.37 458.59L291.89 458.59z" stroke="none" fill="#000000" fill-rule="evenodd" /><path transform="matrix(1 0 0 -1 0 841)" d="M499.42 439.63L499.9 439.63L499.9 439.63L499.9 458.59L499.9 458.59L499.42 458.59z" stroke="none" fill="#000000" fill-rule="evenodd" /><g clip-path="url(#116)"><g clip-path="url(#117)"></g><g clip-path="url(#118)"></g></g><g clip-path="url(#119)"><g clip-path="url(#120)"></g><g clip-path="url(#121)"></g></g><path transform="matrix(1 0 0 -1 0 841)" d="M84.264 439.15L84.744 439.15L84.744 439.15L84.744 439.63L84.744 439.63L84.264 439.63z" stroke="none" fill="#000000" fill-rule="evenodd" /><path transform="matrix(1 0 0 -1 0 841)" d="M84.744 439.15L291.884 439.15L291.884 439.15L291.884 439.63L291.884 439.63L84.744 439.63z" stroke="none" fill="#000000" fill-rule="evenodd" /><path transform="matrix(1 0 0 -1 0 841)" d="M291.89 439.15L292.37 439.15L292.37 439.15L292.37 439.63L292.37 439.63L291.89 439.63z" stroke="none" fill="#000000" fill-rule="evenodd" /><path transform="matrix(1 0 0 -1 0 841)" d="M292.37 439.15L499.42 439.15L499.42 439.15L499.42 439.63L499.42 439.63L292.37 439.63z" stroke="none" fill="#000000" fill-rule="evenodd" /><path transform="matrix(1 0 0 -1 0 841)" d="M499.42 439.15L499.9 439.15L499.9 439.15L499.9 439.63L499.9 439.63L499.42 439.63z" stroke="none" fill="#000000" fill-rule="evenodd" /><path transform="matrix(1 0 0 -1 0 841)" d="M84.264 420.07L84.744 420.07L84.744 420.07L84.744 439.15L84.744 439.15L84.264 439.15z" stroke="none" fill="#000000" fill-rule="evenodd" /><path transform="matrix(1 0 0 -1 0 841)" d="M291.89 420.07L292.37 420.07L292.37 420.07L292.37 439.15L292.37 439.15L291.89 439.15z" stroke="none" fill="#000000" fill-rule="evenodd" /><path transform="matrix(1 0 0 -1 0 841)" d="M499.42 420.07L499.9 420.07L499.9 420.07L499.9 439.15L499.9 439.15L499.42 439.15z" stroke="none" fill="#000000" fill-rule="evenodd" /><path transform="matrix(1 0 0 -1 0 841)" d="M84.744 400.51L291.764 400.51L291.764 400.51L291.764 419.47L291.764 419.47L84.744 419.47z" stroke="none" fill="#DAEEF3" fill-rule="evenodd" /><g clip-path="url(#122)"><path transform="matrix(1 0 0 -1 0 841)" d="M89.904 400.51L286.604 400.51L286.604 400.51L286.604 419.47L286.604 419.47L89.904 419.47z" stroke="none" fill="#DAEEF3" fill-rule="evenodd" /><g clip-path="url(#123)"></g><g clip-path="url(#124)"></g></g><path transform="matrix(1 0 0 -1 0 841)" d="M292.25 400.51L499.42 400.51L499.42 400.51L499.42 419.47L499.42 419.47L292.25 419.47z" stroke="none" fill="#DAEEF3" fill-rule="evenodd" /><g clip-path="url(#125)"><path transform="matrix(1 0 0 -1 0 841)" d="M297.41 400.51L494.26 400.51L494.26 400.51L494.26 419.47L494.26 419.47L297.41 419.47z" stroke="none" fill="#DAEEF3" fill-rule="evenodd" /><g clip-path="url(#126)"></g><g clip-path="url(#127)"></g></g><path transform="matrix(1 0 0 -1 0 841)" d="M84.264 419.59L84.744 419.59L84.744 419.59L84.744 420.07L84.744 420.07L84.264 420.07z" stroke="none" fill="#000000" fill-rule="evenodd" /><path transform="matrix(1 0 0 -1 0 841)" d="M84.744 419.59L291.884 419.59L291.884 419.59L291.884 420.07L291.884 420.07L84.744 420.07z" stroke="none" fill="#000000" fill-rule="evenodd" /><path transform="matrix(1 0 0 -1 0 841)" d="M291.89 419.59L292.37 419.59L292.37 419.59L292.37 420.07L292.37 420.07L291.89 420.07z" stroke="none" fill="#000000" fill-rule="evenodd" /><path transform="matrix(1 0 0 -1 0 841)" d="M292.37 419.59L499.42 419.59L499.42 419.59L499.42 420.07L499.42 420.07L292.37 420.07z" stroke="none" fill="#000000" fill-rule="evenodd" /><path transform="matrix(1 0 0 -1 0 841)" d="M499.42 419.59L499.9 419.59L499.9 419.59L499.9 420.07L499.9 420.07L499.42 420.07z" stroke="none" fill="#000000" fill-rule="evenodd" /><path transform="matrix(1 0 0 -1 0 841)" d="M84.264 400.51L84.744 400.51L84.744 400.51L84.744 419.59L84.744 419.59L84.264 419.59z" stroke="none" fill="#000000" fill-rule="evenodd" /><path transform="matrix(1 0 0 -1 0 841)" d="M291.89 400.51L292.37 400.51L292.37 400.51L292.37 419.59L292.37 419.59L291.89 419.59z" stroke="none" fill="#000000" fill-rule="evenodd" /><path transform="matrix(1 0 0 -1 0 841)" d="M499.42 400.51L499.9 400.51L499.9 400.51L499.9 419.59L499.9 419.59L499.42 419.59z" stroke="none" fill="#000000" fill-rule="evenodd" /><g clip-path="url(#128)"><g clip-path="url(#129)"></g><g clip-path="url(#130)"></g></g><g clip-path="url(#131)"><g clip-path="url(#132)"></g><g clip-path="url(#133)"></g></g><path transform="matrix(1 0 0 -1 0 841)" d="M84.264 400.03L84.744 400.03L84.744 400.03L84.744 400.51L84.744 400.51L84.264 400.51z" stroke="none" fill="#000000" fill-rule="evenodd" /><path transform="matrix(1 0 0 -1 0 841)" d="M84.744 400.03L291.884 400.03L291.884 400.03L291.884 400.51L291.884 400.51L84.744 400.51z" stroke="none" fill="#000000" fill-rule="evenodd" /><path transform="matrix(1 0 0 -1 0 841)" d="M291.89 400.03L292.37 400.03L292.37 400.03L292.37 400.51L292.37 400.51L291.89 400.51z" stroke="none" fill="#000000" fill-rule="evenodd" /><path transform="matrix(1 0 0 -1 0 841)" d="M292.37 400.03L499.42 400.03L499.42 400.03L499.42 400.51L499.42 400.51L292.37 400.51z" stroke="none" fill="#000000" fill-rule="evenodd" /><path transform="matrix(1 0 0 -1 0 841)" d="M499.42 400.03L499.9 400.03L499.9 400.03L499.9 400.51L499.9 400.51L499.42 400.51z" stroke="none" fill="#000000" fill-rule="evenodd" /><path transform="matrix(1 0 0 -1 0 841)" d="M84.264 380.95L84.744 380.95L84.744 380.95L84.744 400.03L84.744 400.03L84.264 400.03z" stroke="none" fill="#000000" fill-rule="evenodd" /><path transform="matrix(1 0 0 -1 0 841)" d="M291.89 380.95L292.37 380.95L292.37 380.95L292.37 400.03L292.37 400.03L291.89 400.03z" stroke="none" fill="#000000" fill-rule="evenodd" /><path transform="matrix(1 0 0 -1 0 841)" d="M499.42 380.95L499.9 380.95L499.9 380.95L499.9 400.03L499.9 400.03L499.42 400.03z" stroke="none" fill="#000000" fill-rule="evenodd" /><path transform="matrix(1 0 0 -1 0 841)" d="M84.744 361.37L291.764 361.37L291.764 361.37L291.764 380.474L291.764 380.474L84.744 380.474z" stroke="none" fill="#DAEEF3" fill-rule="evenodd" /><g clip-path="url(#134)"><path transform="matrix(1 0 0 -1 0 841)" d="M89.904 361.37L286.604 361.37L286.604 361.37L286.604 380.474L286.604 380.474L89.904 380.474z" stroke="none" fill="#DAEEF3" fill-rule="evenodd" /><g clip-path="url(#135)"></g><g clip-path="url(#136)"></g></g><path transform="matrix(1 0 0 -1 0 841)" d="M292.25 361.37L499.42 361.37L499.42 361.37L499.42 380.474L499.42 380.474L292.25 380.474z" stroke="none" fill="#DAEEF3" fill-rule="evenodd" /><g clip-path="url(#137)"><path transform="matrix(1 0 0 -1 0 841)" d="M297.41 361.37L494.26 361.37L494.26 361.37L494.26 380.474L494.26 380.474L297.41 380.474z" stroke="none" fill="#DAEEF3" fill-rule="evenodd" /><g clip-path="url(#138)"></g><g clip-path="url(#139)"></g></g><path transform="matrix(1 0 0 -1 0 841)" d="M84.264 380.47L84.744 380.47L84.744 380.47L84.744 380.95L84.744 380.95L84.264 380.95z" stroke="none" fill="#000000" fill-rule="evenodd" /><path transform="matrix(1 0 0 -1 0 841)" d="M84.744 380.47L291.884 380.47L291.884 380.47L291.884 380.95L291.884 380.95L84.744 380.95z" stroke="none" fill="#000000" fill-rule="evenodd" /><path transform="matrix(1 0 0 -1 0 841)" d="M291.89 380.47L292.37 380.47L292.37 380.47L292.37 380.95L292.37 380.95L291.89 380.95z" stroke="none" fill="#000000" fill-rule="evenodd" /><path transform="matrix(1 0 0 -1 0 841)" d="M292.37 380.47L499.42 380.47L499.42 380.47L499.42 380.95L499.42 380.95L292.37 380.95z" stroke="none" fill="#000000" fill-rule="evenodd" /><path transform="matrix(1 0 0 -1 0 841)" d="M499.42 380.47L499.9 380.47L499.9 380.47L499.9 380.95L499.9 380.95L499.42 380.95z" stroke="none" fill="#000000" fill-rule="evenodd" /><path transform="matrix(1 0 0 -1 0 841)" d="M84.264 361.37L84.744 361.37L84.744 361.37L84.744 380.474L84.744 380.474L84.264 380.474z" stroke="none" fill="#000000" fill-rule="evenodd" /><path transform="matrix(1 0 0 -1 0 841)" d="M291.89 361.37L292.37 361.37L292.37 361.37L292.37 380.474L292.37 380.474L291.89 380.474z" stroke="none" fill="#000000" fill-rule="evenodd" /><path transform="matrix(1 0 0 -1 0 841)" d="M499.42 361.37L499.9 361.37L499.9 361.37L499.9 380.474L499.9 380.474L499.42 380.474z" stroke="none" fill="#000000" fill-rule="evenodd" /><g clip-path="url(#140)"><g clip-path="url(#141)"></g><g clip-path="url(#142)"></g></g><g clip-path="url(#143)"><g clip-path="url(#144)"></g><g clip-path="url(#145)"></g></g><path transform="matrix(1 0 0 -1 0 841)" d="M84.264 360.89L84.744 360.89L84.744 360.89L84.744 361.37L84.744 361.37L84.264 361.37z" stroke="none" fill="#000000" fill-rule="evenodd" /><path transform="matrix(1 0 0 -1 0 841)" d="M84.744 360.89L291.884 360.89L291.884 360.89L291.884 361.37L291.884 361.37L84.744 361.37z" stroke="none" fill="#000000" fill-rule="evenodd" /><path transform="matrix(1 0 0 -1 0 841)" d="M291.89 360.89L292.37 360.89L292.37 360.89L292.37 361.37L292.37 361.37L291.89 361.37z" stroke="none" fill="#000000" fill-rule="evenodd" /><path transform="matrix(1 0 0 -1 0 841)" d="M292.37 360.89L499.42 360.89L499.42 360.89L499.42 361.37L499.42 361.37L292.37 361.37z" stroke="none" fill="#000000" fill-rule="evenodd" /><path transform="matrix(1 0 0 -1 0 841)" d="M499.42 360.89L499.9 360.89L499.9 360.89L499.9 361.37L499.9 361.37L499.42 361.37z" stroke="none" fill="#000000" fill-rule="evenodd" /><path transform="matrix(1 0 0 -1 0 841)" d="M84.264 341.81L84.744 341.81L84.744 341.81L84.744 360.89L84.744 360.89L84.264 360.89z" stroke="none" fill="#000000" fill-rule="evenodd" /><path transform="matrix(1 0 0 -1 0 841)" d="M291.89 341.81L292.37 341.81L292.37 341.81L292.37 360.89L292.37 360.89L291.89 360.89z" stroke="none" fill="#000000" fill-rule="evenodd" /><path transform="matrix(1 0 0 -1 0 841)" d="M499.42 341.81L499.9 341.81L499.9 341.81L499.9 360.89L499.9 360.89L499.42 360.89z" stroke="none" fill="#000000" fill-rule="evenodd" /><path transform="matrix(1 0 0 -1 0 841)" d="M84.744 322.25L291.764 322.25L291.764 322.25L291.764 341.33L291.764 341.33L84.744 341.33z" stroke="none" fill="#DAEEF3" fill-rule="evenodd" /><g clip-path="url(#146)"><path transform="matrix(1 0 0 -1 0 841)" d="M89.904 322.25L286.604 322.25L286.604 322.25L286.604 341.33L286.604 341.33L89.904 341.33z" stroke="none" fill="#DAEEF3" fill-rule="evenodd" /><g clip-path="url(#147)"></g><g clip-path="url(#148)"></g></g><path transform="matrix(1 0 0 -1 0 841)" d="M292.25 322.25L499.42 322.25L499.42 322.25L499.42 341.33L499.42 341.33L292.25 341.33z" stroke="none" fill="#DAEEF3" fill-rule="evenodd" /><g clip-path="url(#149)"><path transform="matrix(1 0 0 -1 0 841)" d="M297.41 322.25L494.26 322.25L494.26 322.25L494.26 341.33L494.26 341.33L297.41 341.33z" stroke="none" fill="#DAEEF3" fill-rule="evenodd" /><g clip-path="url(#150)"></g><g clip-path="url(#151)"></g></g><path transform="matrix(1 0 0 -1 0 841)" d="M84.264 341.33L84.744 341.33L84.744 341.33L84.744 341.81L84.744 341.81L84.264 341.81z" stroke="none" fill="#000000" fill-rule="evenodd" /><path transform="matrix(1 0 0 -1 0 841)" d="M84.744 341.33L291.884 341.33L291.884 341.33L291.884 341.81L291.884 341.81L84.744 341.81z" stroke="none" fill="#000000" fill-rule="evenodd" /><path transform="matrix(1 0 0 -1 0 841)" d="M291.89 341.33L292.37 341.33L292.37 341.33L292.37 341.81L292.37 341.81L291.89 341.81z" stroke="none" fill="#000000" fill-rule="evenodd" /><path transform="matrix(1 0 0 -1 0 841)" d="M292.37 341.33L499.42 341.33L499.42 341.33L499.42 341.81L499.42 341.81L292.37 341.81z" stroke="none" fill="#000000" fill-rule="evenodd" /><path transform="matrix(1 0 0 -1 0 841)" d="M499.42 341.33L499.9 341.33L499.9 341.33L499.9 341.81L499.9 341.81L499.42 341.81z" stroke="none" fill="#000000" fill-rule="evenodd" /><path transform="matrix(1 0 0 -1 0 841)" d="M84.264 322.25L84.744 322.25L84.744 322.25L84.744 341.33L84.744 341.33L84.264 341.33z" stroke="none" fill="#000000" fill-rule="evenodd" /><path transform="matrix(1 0 0 -1 0 841)" d="M291.89 322.25L292.37 322.25L292.37 322.25L292.37 341.33L292.37 341.33L291.89 341.33z" stroke="none" fill="#000000" fill-rule="evenodd" /><path transform="matrix(1 0 0 -1 0 841)" d="M499.42 322.25L499.9 322.25L499.9 322.25L499.9 341.33L499.9 341.33L499.42 341.33z" stroke="none" fill="#000000" fill-rule="evenodd" /><g clip-path="url(#152)"><g clip-path="url(#153)"></g><g clip-path="url(#154)"></g></g><g clip-path="url(#155)"><g clip-path="url(#156)"></g><g clip-path="url(#157)"></g></g><path transform="matrix(1 0 0 -1 0 841)" d="M84.264 321.77L84.744 321.77L84.744 321.77L84.744 322.25L84.744 322.25L84.264 322.25z" stroke="none" fill="#000000" fill-rule="evenodd" /><path transform="matrix(1 0 0 -1 0 841)" d="M84.744 321.77L291.884 321.77L291.884 321.77L291.884 322.25L291.884 322.25L84.744 322.25z" stroke="none" fill="#000000" fill-rule="evenodd" /><path transform="matrix(1 0 0 -1 0 841)" d="M291.89 321.77L292.37 321.77L292.37 321.77L292.37 322.25L292.37 322.25L291.89 322.25z" stroke="none" fill="#000000" fill-rule="evenodd" /><path transform="matrix(1 0 0 -1 0 841)" d="M292.37 321.77L499.42 321.77L499.42 321.77L499.42 322.25L499.42 322.25L292.37 322.25z" stroke="none" fill="#000000" fill-rule="evenodd" /><path transform="matrix(1 0 0 -1 0 841)" d="M499.42 321.77L499.9 321.77L499.9 321.77L499.9 322.25L499.9 322.25L499.42 322.25z" stroke="none" fill="#000000" fill-rule="evenodd" /><path transform="matrix(1 0 0 -1 0 841)" d="M84.264 302.69L84.744 302.69L84.744 302.69L84.744 321.77L84.744 321.77L84.264 321.77z" stroke="none" fill="#000000" fill-rule="evenodd" /><path transform="matrix(1 0 0 -1 0 841)" d="M291.89 302.69L292.37 302.69L292.37 302.69L292.37 321.77L292.37 321.77L291.89 321.77z" stroke="none" fill="#000000" fill-rule="evenodd" /><path transform="matrix(1 0 0 -1 0 841)" d="M499.42 302.69L499.9 302.69L499.9 302.69L499.9 321.77L499.9 321.77L499.42 321.77z" stroke="none" fill="#000000" fill-rule="evenodd" /><path transform="matrix(1 0 0 -1 0 841)" d="M84.744 283.13L291.764 283.13L291.764 283.13L291.764 302.21L291.764 302.21L84.744 302.21z" stroke="none" fill="#DAEEF3" fill-rule="evenodd" /><g clip-path="url(#158)"><path transform="matrix(1 0 0 -1 0 841)" d="M89.904 283.13L286.604 283.13L286.604 283.13L286.604 302.21L286.604 302.21L89.904 302.21z" stroke="none" fill="#DAEEF3" fill-rule="evenodd" /><g clip-path="url(#159)"></g><g clip-path="url(#160)"></g></g><path transform="matrix(1 0 0 -1 0 841)" d="M292.25 283.13L499.42 283.13L499.42 283.13L499.42 302.21L499.42 302.21L292.25 302.21z" stroke="none" fill="#DAEEF3" fill-rule="evenodd" /><g clip-path="url(#161)"><path transform="matrix(1 0 0 -1 0 841)" d="M297.41 283.13L494.26 283.13L494.26 283.13L494.26 302.21L494.26 302.21L297.41 302.21z" stroke="none" fill="#DAEEF3" fill-rule="evenodd" /><g clip-path="url(#162)"></g><g clip-path="url(#163)"></g><g clip-path="url(#164)"></g></g><path transform="matrix(1 0 0 -1 0 841)" d="M84.264 302.21L84.744 302.21L84.744 302.21L84.744 302.69L84.744 302.69L84.264 302.69z" stroke="none" fill="#000000" fill-rule="evenodd" /><path transform="matrix(1 0 0 -1 0 841)" d="M84.744 302.21L291.884 302.21L291.884 302.21L291.884 302.69L291.884 302.69L84.744 302.69z" stroke="none" fill="#000000" fill-rule="evenodd" /><path transform="matrix(1 0 0 -1 0 841)" d="M291.89 302.21L292.37 302.21L292.37 302.21L292.37 302.69L292.37 302.69L291.89 302.69z" stroke="none" fill="#000000" fill-rule="evenodd" /><path transform="matrix(1 0 0 -1 0 841)" d="M292.37 302.21L499.42 302.21L499.42 302.21L499.42 302.69L499.42 302.69L292.37 302.69z" stroke="none" fill="#000000" fill-rule="evenodd" /><path transform="matrix(1 0 0 -1 0 841)" d="M499.42 302.21L499.9 302.21L499.9 302.21L499.9 302.69L499.9 302.69L499.42 302.69z" stroke="none" fill="#000000" fill-rule="evenodd" /><path transform="matrix(1 0 0 -1 0 841)" d="M84.264 283.13L84.744 283.13L84.744 283.13L84.744 302.21L84.744 302.21L84.264 302.21z" stroke="none" fill="#000000" fill-rule="evenodd" /><path transform="matrix(1 0 0 -1 0 841)" d="M291.89 283.13L292.37 283.13L292.37 283.13L292.37 302.21L292.37 302.21L291.89 302.21z" stroke="none" fill="#000000" fill-rule="evenodd" /><path transform="matrix(1 0 0 -1 0 841)" d="M499.42 283.13L499.9 283.13L499.9 283.13L499.9 302.21L499.9 302.21L499.42 302.21z" stroke="none" fill="#000000" fill-rule="evenodd" /><g clip-path="url(#165)"><g clip-path="url(#166)"></g><g clip-path="url(#167)"></g></g><g clip-path="url(#168)"><g clip-path="url(#169)"></g><g clip-path="url(#170)"></g></g><path transform="matrix(1 0 0 -1 0 841)" d="M84.264 282.65L84.744 282.65L84.744 282.65L84.744 283.13L84.744 283.13L84.264 283.13z" stroke="none" fill="#000000" fill-rule="evenodd" /><path transform="matrix(1 0 0 -1 0 841)" d="M84.744 282.65L291.884 282.65L291.884 282.65L291.884 283.13L291.884 283.13L84.744 283.13z" stroke="none" fill="#000000" fill-rule="evenodd" /><path transform="matrix(1 0 0 -1 0 841)" d="M291.89 282.65L292.37 282.65L292.37 282.65L292.37 283.13L292.37 283.13L291.89 283.13z" stroke="none" fill="#000000" fill-rule="evenodd" /><path transform="matrix(1 0 0 -1 0 841)" d="M292.37 282.65L499.42 282.65L499.42 282.65L499.42 283.13L499.42 283.13L292.37 283.13z" stroke="none" fill="#000000" fill-rule="evenodd" /><path transform="matrix(1 0 0 -1 0 841)" d="M499.42 282.65L499.9 282.65L499.9 282.65L499.9 283.13L499.9 283.13L499.42 283.13z" stroke="none" fill="#000000" fill-rule="evenodd" /><path transform="matrix(1 0 0 -1 0 841)" d="M84.264 263.57L84.744 263.57L84.744 263.57L84.744 282.65L84.744 282.65L84.264 282.65z" stroke="none" fill="#000000" fill-rule="evenodd" /><path transform="matrix(1 0 0 -1 0 841)" d="M291.89 263.57L292.37 263.57L292.37 263.57L292.37 282.65L292.37 282.65L291.89 282.65z" stroke="none" fill="#000000" fill-rule="evenodd" /><path transform="matrix(1 0 0 -1 0 841)" d="M499.42 263.57L499.9 263.57L499.9 263.57L499.9 282.65L499.9 282.65L499.42 282.65z" stroke="none" fill="#000000" fill-rule="evenodd" /><path transform="matrix(1 0 0 -1 0 841)" d="M84.744 244.01L291.764 244.01L291.764 244.01L291.764 263.09L291.764 263.09L84.744 263.09z" stroke="none" fill="#DAEEF3" fill-rule="evenodd" /><g clip-path="url(#171)"><path transform="matrix(1 0 0 -1 0 841)" d="M89.904 244.01L286.604 244.01L286.604 244.01L286.604 263.09L286.604 263.09L89.904 263.09z" stroke="none" fill="#DAEEF3" fill-rule="evenodd" /><g clip-path="url(#172)"></g><g clip-path="url(#173)"></g></g><path transform="matrix(1 0 0 -1 0 841)" d="M292.25 244.01L499.42 244.01L499.42 244.01L499.42 263.09L499.42 263.09L292.25 263.09z" stroke="none" fill="#DAEEF3" fill-rule="evenodd" /><g clip-path="url(#174)"><path transform="matrix(1 0 0 -1 0 841)" d="M297.41 244.01L494.26 244.01L494.26 244.01L494.26 263.09L494.26 263.09L297.41 263.09z" stroke="none" fill="#DAEEF3" fill-rule="evenodd" /><g clip-path="url(#175)"></g><g clip-path="url(#176)"></g></g><path transform="matrix(1 0 0 -1 0 841)" d="M84.264 263.09L84.744 263.09L84.744 263.09L84.744 263.57L84.744 263.57L84.264 263.57z" stroke="none" fill="#000000" fill-rule="evenodd" /><path transform="matrix(1 0 0 -1 0 841)" d="M84.744 263.09L291.884 263.09L291.884 263.09L291.884 263.57L291.884 263.57L84.744 263.57z" stroke="none" fill="#000000" fill-rule="evenodd" /><path transform="matrix(1 0 0 -1 0 841)" d="M291.89 263.09L292.37 263.09L292.37 263.09L292.37 263.57L292.37 263.57L291.89 263.57z" stroke="none" fill="#000000" fill-rule="evenodd" /><path transform="matrix(1 0 0 -1 0 841)" d="M292.37 263.09L499.42 263.09L499.42 263.09L499.42 263.57L499.42 263.57L292.37 263.57z" stroke="none" fill="#000000" fill-rule="evenodd" /><path transform="matrix(1 0 0 -1 0 841)" d="M499.42 263.09L499.9 263.09L499.9 263.09L499.9 263.57L499.9 263.57L499.42 263.57z" stroke="none" fill="#000000" fill-rule="evenodd" /><path transform="matrix(1 0 0 -1 0 841)" d="M84.264 244.01L84.744 244.01L84.744 244.01L84.744 263.09L84.744 263.09L84.264 263.09z" stroke="none" fill="#000000" fill-rule="evenodd" /><path transform="matrix(1 0 0 -1 0 841)" d="M291.89 244.01L292.37 244.01L292.37 244.01L292.37 263.09L292.37 263.09L291.89 263.09z" stroke="none" fill="#000000" fill-rule="evenodd" /><path transform="matrix(1 0 0 -1 0 841)" d="M499.42 244.01L499.9 244.01L499.9 244.01L499.9 263.09L499.9 263.09L499.42 263.09z" stroke="none" fill="#000000" fill-rule="evenodd" /><g clip-path="url(#177)"><g clip-path="url(#178)"></g><g clip-path="url(#179)"></g></g><g clip-path="url(#180)"><g clip-path="url(#181)"></g><g clip-path="url(#182)"></g></g><path transform="matrix(1 0 0 -1 0 841)" d="M84.264 243.53L84.744 243.53L84.744 243.53L84.744 244.01L84.744 244.01L84.264 244.01z" stroke="none" fill="#000000" fill-rule="evenodd" /><path transform="matrix(1 0 0 -1 0 841)" d="M84.744 243.53L291.884 243.53L291.884 243.53L291.884 244.01L291.884 244.01L84.744 244.01z" stroke="none" fill="#000000" fill-rule="evenodd" /><path transform="matrix(1 0 0 -1 0 841)" d="M291.89 243.53L292.37 243.53L292.37 243.53L292.37 244.01L292.37 244.01L291.89 244.01z" stroke="none" fill="#000000" fill-rule="evenodd" /><path transform="matrix(1 0 0 -1 0 841)" d="M292.37 243.53L499.42 243.53L499.42 243.53L499.42 244.01L499.42 244.01L292.37 244.01z" stroke="none" fill="#000000" fill-rule="evenodd" /><path transform="matrix(1 0 0 -1 0 841)" d="M499.42 243.53L499.9 243.53L499.9 243.53L499.9 244.01L499.9 244.01L499.42 244.01z" stroke="none" fill="#000000" fill-rule="evenodd" /><path transform="matrix(1 0 0 -1 0 841)" d="M84.264 224.45L84.744 224.45L84.744 224.45L84.744 243.53L84.744 243.53L84.264 243.53z" stroke="none" fill="#000000" fill-rule="evenodd" /><path transform="matrix(1 0 0 -1 0 841)" d="M84.264 223.97L84.744 223.97L84.744 223.97L84.744 224.45L84.744 224.45L84.264 224.45z" stroke="none" fill="#000000" fill-rule="evenodd" /><path transform="matrix(1 0 0 -1 0 841)" d="M84.264 223.97L84.744 223.97L84.744 223.97L84.744 224.45L84.744 224.45L84.264 224.45z" stroke="none" fill="#000000" fill-rule="evenodd" /><path transform="matrix(1 0 0 -1 0 841)" d="M84.744 223.97L291.884 223.97L291.884 223.97L291.884 224.45L291.884 224.45L84.744 224.45z" stroke="none" fill="#000000" fill-rule="evenodd" /><path transform="matrix(1 0 0 -1 0 841)" d="M291.89 224.45L292.37 224.45L292.37 224.45L292.37 243.53L292.37 243.53L291.89 243.53z" stroke="none" fill="#000000" fill-rule="evenodd" /><path transform="matrix(1 0 0 -1 0 841)" d="M291.89 223.97L292.37 223.97L292.37 223.97L292.37 224.45L292.37 224.45L291.89 224.45z" stroke="none" fill="#000000" fill-rule="evenodd" /><path transform="matrix(1 0 0 -1 0 841)" d="M292.37 223.97L499.42 223.97L499.42 223.97L499.42 224.45L499.42 224.45L292.37 224.45z" stroke="none" fill="#000000" fill-rule="evenodd" /><path transform="matrix(1 0 0 -1 0 841)" d="M499.42 224.45L499.9 224.45L499.9 224.45L499.9 243.53L499.9 243.53L499.42 243.53z" stroke="none" fill="#000000" fill-rule="evenodd" /><path transform="matrix(1 0 0 -1 0 841)" d="M499.42 223.97L499.9 223.97L499.9 223.97L499.9 224.45L499.9 224.45L499.42 224.45z" stroke="none" fill="#000000" fill-rule="evenodd" /><path transform="matrix(1 0 0 -1 0 841)" d="M499.42 223.97L499.9 223.97L499.9 223.97L499.9 224.45L499.9 224.45L499.42 224.45z" stroke="none" fill="#000000" fill-rule="evenodd" /><path transform="matrix(1 0 0 -1 0 841)" d="M84.744 185.45L510.694 185.45L510.694 185.45L510.694 204.41L510.694 204.41L84.744 204.41z" stroke="none" fill="#0070C0" fill-rule="evenodd" /><g clip-path="url(#183)"><path transform="matrix(1 0 0 -1 0 841)" d="M89.904 185.45L505.534 185.45L505.534 185.45L505.534 204.41L505.534 204.41L89.904 204.41z" stroke="none" fill="#0070C0" fill-rule="evenodd" /><g clip-path="url(#184)"></g><g clip-path="url(#185)"></g><g clip-path="url(#186)"></g></g><path transform="matrix(1 0 0 -1 0 841)" d="M84.264 204.53L84.744 204.53L84.744 204.53L84.744 205.01L84.744 205.01L84.264 205.01z" stroke="none" fill="#000000" fill-rule="evenodd" /><path transform="matrix(1 0 0 -1 0 841)" d="M84.264 204.53L84.744 204.53L84.744 204.53L84.744 205.01L84.744 205.01L84.264 205.01z" stroke="none" fill="#000000" fill-rule="evenodd" /><path transform="matrix(1 0 0 -1 0 841)" d="M84.744 204.53L510.694 204.53L510.694 204.53L510.694 205.01L510.694 205.01L84.744 205.01z" stroke="none" fill="#000000" fill-rule="evenodd" /><path transform="matrix(1 0 0 -1 0 841)" d="M510.7 204.53L511.18 204.53L511.18 204.53L511.18 205.01L511.18 205.01L510.7 205.01z" stroke="none" fill="#000000" fill-rule="evenodd" /><path transform="matrix(1 0 0 -1 0 841)" d="M510.7 204.53L511.18 204.53L511.18 204.53L511.18 205.01L511.18 205.01L510.7 205.01z" stroke="none" fill="#000000" fill-rule="evenodd" /><path transform="matrix(1 0 0 -1 0 841)" d="M84.264 185.45L84.744 185.45L84.744 185.45L84.744 204.53L84.744 204.53L84.264 204.53z" stroke="none" fill="#000000" fill-rule="evenodd" /><path transform="matrix(1 0 0 -1 0 841)" d="M510.7 185.45L511.18 185.45L511.18 185.45L511.18 204.53L511.18 204.53L510.7 204.53z" stroke="none" fill="#000000" fill-rule="evenodd" /><path transform="matrix(1 0 0 -1 0 841)" d="M84.744 108.62L510.694 108.62L510.694 108.62L510.694 184.844L510.694 184.844L84.744 184.844z" stroke="none" fill="#DAEEF3" fill-rule="evenodd" /><g clip-path="url(#187)"><path transform="matrix(1 0 0 -1 0 841)" d="M89.904 165.86L505.534 165.86L505.534 165.86L505.534 184.844L505.534 184.844L89.904 184.844z" stroke="none" fill="#DAEEF3" fill-rule="evenodd" /><g clip-path="url(#188)"></g><g clip-path="url(#189)"></g><path transform="matrix(1 0 0 -1 0 841)" d="M89.904 146.78L505.534 146.78L505.534 146.78L505.534 165.86L505.534 165.86L89.904 165.86z" stroke="none" fill="#DAEEF3" fill-rule="evenodd" /><g clip-path="url(#190)"></g><g clip-path="url(#191)"></g><path transform="matrix(1 0 0 -1 0 841)" d="M89.904 127.7L505.534 127.7L505.534 127.7L505.534 146.78L505.534 146.78L89.904 146.78z" stroke="none" fill="#DAEEF3" fill-rule="evenodd" /><g clip-path="url(#192)"></g><g clip-path="url(#193)"></g><path transform="matrix(1 0 0 -1 0 841)" d="M89.904 108.62L505.534 108.62L505.534 108.62L505.534 127.7L505.534 127.7L89.904 127.7z" stroke="none" fill="#DAEEF3" fill-rule="evenodd" /><g clip-path="url(#194)"></g><g clip-path="url(#195)"></g></g><path transform="matrix(1 0 0 -1 0 841)" d="M84.264 184.97L84.744 184.97L84.744 184.97L84.744 185.45L84.744 185.45L84.264 185.45z" stroke="none" fill="#000000" fill-rule="evenodd" /><path transform="matrix(1 0 0 -1 0 841)" d="M84.744 184.97L510.694 184.97L510.694 184.97L510.694 185.45L510.694 185.45L84.744 185.45z" stroke="none" fill="#000000" fill-rule="evenodd" /><path transform="matrix(1 0 0 -1 0 841)" d="M510.7 184.97L511.18 184.97L511.18 184.97L511.18 185.45L511.18 185.45L510.7 185.45z" stroke="none" fill="#000000" fill-rule="evenodd" /><path transform="matrix(1 0 0 -1 0 841)" d="M84.264 108.62L84.744 108.62L84.744 108.62L84.744 184.964L84.744 184.964L84.264 184.964z" stroke="none" fill="#000000" fill-rule="evenodd" /><path transform="matrix(1 0 0 -1 0 841)" d="M84.264 108.14L84.744 108.14L84.744 108.14L84.744 108.62L84.744 108.62L84.264 108.62z" stroke="none" fill="#000000" fill-rule="evenodd" /><path transform="matrix(1 0 0 -1 0 841)" d="M84.264 108.14L84.744 108.14L84.744 108.14L84.744 108.62L84.744 108.62L84.264 108.62z" stroke="none" fill="#000000" fill-rule="evenodd" /><path transform="matrix(1 0 0 -1 0 841)" d="M84.744 108.14L510.694 108.14L510.694 108.14L510.694 108.62L510.694 108.62L84.744 108.62z" stroke="none" fill="#000000" fill-rule="evenodd" /><path transform="matrix(1 0 0 -1 0 841)" d="M510.7 108.62L511.18 108.62L511.18 108.62L511.18 184.964L511.18 184.964L510.7 184.964z" stroke="none" fill="#000000" fill-rule="evenodd" /><path transform="matrix(1 0 0 -1 0 841)" d="M510.7 108.14L511.18 108.14L511.18 108.14L511.18 108.62L511.18 108.62L510.7 108.62z" stroke="none" fill="#000000" fill-rule="evenodd" /><path transform="matrix(1 0 0 -1 0 841)" d="M510.7 108.14L511.18 108.14L511.18 108.14L511.18 108.62L511.18 108.62L510.7 108.62z" stroke="none" fill="#000000" fill-rule="evenodd" /></g></g></g></svg>