<svg xmlns="http://www.w3.org/2000/svg" xmlns:xlink="http://www.w3.org/1999/xlink" id="body_158" preserveAspectRatio="xMinYMin meet" viewBox="0 0 793 1121"><defs><clipPath id="1"><path d="M0 841L0 -0.9199829L0 -0.9199829L595.32 -0.9199829L595.32 -0.9199829L595.32 841L595.32 841L0 841z" /></clipPath><clipPath id="2"><path d="M0.00125 841.0914L595.4112 841.0914L595.4112 841.0914L595.4112 -0.9186401L595.4112 -0.9186401L0.00125 -0.9186401z" /></clipPath><clipPath id="3"><path d="M288.05 781.211L316.01 781.211L316.01 781.211L316.01 762.011L316.01 762.011L288.05 762.011z" /></clipPath><clipPath id="4"><path d="M288.05 781.216L316.01 781.216L316.01 781.216L316.01 762.016L316.01 762.016L288.05 762.016z" /></clipPath><clipPath id="5"><path d="M288.05 781.216L316.01 781.216L316.01 781.216L316.01 762.016L316.01 762.016L288.05 762.016z" /></clipPath><clipPath id="6"><path d="M84.751 113.59L510.691 113.59L510.691 113.59L510.691 89.44L510.691 89.44L84.751 89.44z" /></clipPath><clipPath id="7"><path d="M84.744 113.58L510.694 113.58L510.694 113.58L510.694 89.43604L510.694 89.43604L84.744 89.43604z" /></clipPath><clipPath id="8"><path d="M84.744 113.58L510.694 113.58L510.694 113.58L510.694 89.43604L510.694 89.43604L84.744 89.43604z" /></clipPath><clipPath id="9"><path d="M84.744 113.58L510.694 113.58L510.694 113.58L510.694 89.43604L510.694 89.43604L84.744 89.43604z" /></clipPath><clipPath id="10"><path d="M84.744 113.58L510.694 113.58L510.694 113.58L510.694 89.43604L510.694 89.43604L84.744 89.43604z" /></clipPath><clipPath id="11"><path d="M84.744 113.58L510.694 113.58L510.694 113.58L510.694 89.43604L510.694 89.43604L84.744 89.43604z" /></clipPath><clipPath id="12"><path d="M84.744 113.58L510.694 113.58L510.694 113.58L510.694 89.43604L510.694 89.43604L84.744 89.43604z" /></clipPath><clipPath id="13"><path d="M84.744 113.58L510.694 113.58L510.694 113.58L510.694 89.43604L510.694 89.43604L84.744 89.43604z" /></clipPath><clipPath id="14"><path d="M84.744 113.58L510.694 113.58L510.694 113.58L510.694 89.43604L510.694 89.43604L84.744 89.43604z" /></clipPath><clipPath id="15"><path d="M84.751 171.31L510.691 171.31L510.691 171.31L510.691 114.07L510.691 114.07L84.751 114.07z" /></clipPath><clipPath id="16"><path d="M84.744 171.3L510.694 171.3L510.694 171.3L510.694 114.06L510.694 114.06L84.744 114.06z" /></clipPath><clipPath id="17"><path d="M84.744 171.3L510.694 171.3L510.694 171.3L510.694 114.06L510.694 114.06L84.744 114.06z" /></clipPath><clipPath id="18"><path d="M84.744 171.3L510.694 171.3L510.694 171.3L510.694 114.06L510.694 114.06L84.744 114.06z" /></clipPath><clipPath id="19"><path d="M84.744 171.3L510.694 171.3L510.694 171.3L510.694 114.06L510.694 114.06L84.744 114.06z" /></clipPath><clipPath id="20"><path d="M84.744 171.3L510.694 171.3L510.694 171.3L510.694 114.06L510.694 114.06L84.744 114.06z" /></clipPath><clipPath id="21"><path d="M84.751 215.47L510.691 215.47L510.691 215.47L510.691 191.35L510.691 191.35L84.751 191.35z" /></clipPath><clipPath id="22"><path d="M84.744 215.46L510.694 215.46L510.694 215.46L510.694 191.34L510.694 191.34L84.744 191.34z" /></clipPath><clipPath id="23"><path d="M84.744 215.46L510.694 215.46L510.694 215.46L510.694 191.34L510.694 191.34L84.744 191.34z" /></clipPath><clipPath id="24"><path d="M84.744 215.46L510.694 215.46L510.694 215.46L510.694 191.34L510.694 191.34L84.744 191.34z" /></clipPath><clipPath id="25"><path d="M84.744 215.46L510.694 215.46L510.694 215.46L510.694 191.34L510.694 191.34L84.744 191.34z" /></clipPath><clipPath id="26"><path d="M84.744 215.46L510.694 215.46L510.694 215.46L510.694 191.34L510.694 191.34L84.744 191.34z" /></clipPath><clipPath id="27"><path d="M84.744 215.46L510.694 215.46L510.694 215.46L510.694 191.34L510.694 191.34L84.744 191.34z" /></clipPath><clipPath id="28"><path d="M84.744 215.46L510.694 215.46L510.694 215.46L510.694 191.34L510.694 191.34L84.744 191.34z" /></clipPath><clipPath id="29"><path d="M84.751 349.29L510.691 349.29L510.691 349.29L510.691 215.95L510.691 215.95L84.751 215.95z" /></clipPath><clipPath id="30"><path d="M84.744 349.29L510.694 349.29L510.694 349.29L510.694 215.95L510.694 215.95L84.744 215.95z" /></clipPath><clipPath id="31"><path d="M84.744 349.29L510.694 349.29L510.694 349.29L510.694 215.95L510.694 215.95L84.744 215.95z" /></clipPath><clipPath id="32"><path d="M84.744 349.29L510.694 349.29L510.694 349.29L510.694 215.95L510.694 215.95L84.744 215.95z" /></clipPath><clipPath id="33"><path d="M84.744 349.29L510.694 349.29L510.694 349.29L510.694 215.95L510.694 215.95L84.744 215.95z" /></clipPath><clipPath id="34"><path d="M84.744 349.29L510.694 349.29L510.694 349.29L510.694 215.95L510.694 215.95L84.744 215.95z" /></clipPath><clipPath id="35"><path d="M84.744 349.29L510.694 349.29L510.694 349.29L510.694 215.95L510.694 215.95L84.744 215.95z" /></clipPath><clipPath id="36"><path d="M84.744 349.29L510.694 349.29L510.694 349.29L510.694 215.95L510.694 215.95L84.744 215.95z" /></clipPath><clipPath id="37"><path d="M84.744 349.29L510.694 349.29L510.694 349.29L510.694 215.95L510.694 215.95L84.744 215.95z" /></clipPath><clipPath id="38"><path d="M84.744 349.29L510.694 349.29L510.694 349.29L510.694 215.95L510.694 215.95L84.744 215.95z" /></clipPath><clipPath id="39"><path d="M84.744 349.29L510.694 349.29L510.694 349.29L510.694 215.95L510.694 215.95L84.744 215.95z" /></clipPath><clipPath id="40"><path d="M84.744 349.29L510.694 349.29L510.694 349.29L510.694 215.95L510.694 215.95L84.744 215.95z" /></clipPath><clipPath id="41"><path d="M84.744 349.29L510.694 349.29L510.694 349.29L510.694 215.95L510.694 215.95L84.744 215.95z" /></clipPath><clipPath id="42"><path d="M84.744 349.29L510.694 349.29L510.694 349.29L510.694 215.95L510.694 215.95L84.744 215.95z" /></clipPath><clipPath id="43"><path d="M84.744 349.29L510.694 349.29L510.694 349.29L510.694 215.95L510.694 215.95L84.744 215.95z" /></clipPath><clipPath id="44"><path d="M84.744 349.29L510.694 349.29L510.694 349.29L510.694 215.95L510.694 215.95L84.744 215.95z" /></clipPath><clipPath id="45"><path d="M84.744 349.29L510.694 349.29L510.694 349.29L510.694 215.95L510.694 215.95L84.744 215.95z" /></clipPath><clipPath id="46"><path d="M84.744 349.29L510.694 349.29L510.694 349.29L510.694 215.95L510.694 215.95L84.744 215.95z" /></clipPath><clipPath id="47"><path d="M84.744 349.29L510.694 349.29L510.694 349.29L510.694 215.95L510.694 215.95L84.744 215.95z" /></clipPath><clipPath id="48"><path d="M84.744 349.29L510.694 349.29L510.694 349.29L510.694 215.95L510.694 215.95L84.744 215.95z" /></clipPath><clipPath id="49"><path d="M84.744 349.29L510.694 349.29L510.694 349.29L510.694 215.95L510.694 215.95L84.744 215.95z" /></clipPath><clipPath id="50"><path d="M84.751 393.57L510.691 393.57L510.691 393.57L510.691 369.33L510.691 369.33L84.751 369.33z" /></clipPath><clipPath id="51"><path d="M84.744 393.57L510.694 393.57L510.694 393.57L510.694 369.33L510.694 369.33L84.744 369.33z" /></clipPath><clipPath id="52"><path d="M84.744 393.57L510.694 393.57L510.694 393.57L510.694 369.33L510.694 369.33L84.744 369.33z" /></clipPath><clipPath id="53"><path d="M84.744 393.57L510.694 393.57L510.694 393.57L510.694 369.33L510.694 369.33L84.744 369.33z" /></clipPath><clipPath id="54"><path d="M84.744 393.57L510.694 393.57L510.694 393.57L510.694 369.33L510.694 369.33L84.744 369.33z" /></clipPath><clipPath id="55"><path d="M84.744 393.57L510.694 393.57L510.694 393.57L510.694 369.33L510.694 369.33L84.744 369.33z" /></clipPath><clipPath id="56"><path d="M84.744 393.57L510.694 393.57L510.694 393.57L510.694 369.33L510.694 369.33L84.744 369.33z" /></clipPath><clipPath id="57"><path d="M84.751 736.93L510.691 736.93L510.691 736.93L510.691 394.04L510.691 394.04L84.751 394.04z" /></clipPath><clipPath id="58"><path d="M84.744 736.94L510.694 736.94L510.694 736.94L510.694 394.05L510.694 394.05L84.744 394.05z" /></clipPath><clipPath id="59"><path d="M84.744 736.94L510.694 736.94L510.694 736.94L510.694 394.05L510.694 394.05L84.744 394.05z" /></clipPath><clipPath id="60"><path d="M84.744 736.94L510.694 736.94L510.694 736.94L510.694 394.05L510.694 394.05L84.744 394.05z" /></clipPath><clipPath id="61"><path d="M84.744 736.94L510.694 736.94L510.694 736.94L510.694 394.05L510.694 394.05L84.744 394.05z" /></clipPath><clipPath id="62"><path d="M84.744 736.94L510.694 736.94L510.694 736.94L510.694 394.05L510.694 394.05L84.744 394.05z" /></clipPath><clipPath id="63"><path d="M84.744 736.94L510.694 736.94L510.694 736.94L510.694 394.05L510.694 394.05L84.744 394.05z" /></clipPath><clipPath id="64"><path d="M84.744 736.94L510.694 736.94L510.694 736.94L510.694 394.05L510.694 394.05L84.744 394.05z" /></clipPath><clipPath id="65"><path d="M84.744 736.94L510.694 736.94L510.694 736.94L510.694 394.05L510.694 394.05L84.744 394.05z" /></clipPath><clipPath id="66"><path d="M84.744 736.94L510.694 736.94L510.694 736.94L510.694 394.05L510.694 394.05L84.744 394.05z" /></clipPath><clipPath id="67"><path d="M84.744 736.94L510.694 736.94L510.694 736.94L510.694 394.05L510.694 394.05L84.744 394.05z" /></clipPath><clipPath id="68"><path d="M84.744 736.94L510.694 736.94L510.694 736.94L510.694 394.05L510.694 394.05L84.744 394.05z" /></clipPath><clipPath id="69"><path d="M84.744 736.94L510.694 736.94L510.694 736.94L510.694 394.05L510.694 394.05L84.744 394.05z" /></clipPath><clipPath id="70"><path d="M84.744 736.94L510.694 736.94L510.694 736.94L510.694 394.05L510.694 394.05L84.744 394.05z" /></clipPath><clipPath id="71"><path d="M84.744 736.94L510.694 736.94L510.694 736.94L510.694 394.05L510.694 394.05L84.744 394.05z" /></clipPath><clipPath id="72"><path d="M84.744 736.94L510.694 736.94L510.694 736.94L510.694 394.05L510.694 394.05L84.744 394.05z" /></clipPath><clipPath id="73"><path d="M84.744 736.94L510.694 736.94L510.694 736.94L510.694 394.05L510.694 394.05L84.744 394.05z" /></clipPath><clipPath id="74"><path d="M84.744 736.94L510.694 736.94L510.694 736.94L510.694 394.05L510.694 394.05L84.744 394.05z" /></clipPath><clipPath id="75"><path d="M84.744 736.94L510.694 736.94L510.694 736.94L510.694 394.05L510.694 394.05L84.744 394.05z" /></clipPath><clipPath id="76"><path d="M84.744 736.94L510.694 736.94L510.694 736.94L510.694 394.05L510.694 394.05L84.744 394.05z" /></clipPath><clipPath id="77"><path d="M84.744 736.94L510.694 736.94L510.694 736.94L510.694 394.05L510.694 394.05L84.744 394.05z" /></clipPath><clipPath id="78"><path d="M84.744 736.94L510.694 736.94L510.694 736.94L510.694 394.05L510.694 394.05L84.744 394.05z" /></clipPath><clipPath id="79"><path d="M84.744 736.94L510.694 736.94L510.694 736.94L510.694 394.05L510.694 394.05L84.744 394.05z" /></clipPath><clipPath id="80"><path d="M84.744 736.94L510.694 736.94L510.694 736.94L510.694 394.05L510.694 394.05L84.744 394.05z" /></clipPath><clipPath id="81"><path d="M84.744 736.94L510.694 736.94L510.694 736.94L510.694 394.05L510.694 394.05L84.744 394.05z" /></clipPath><clipPath id="82"><path d="M84.744 736.94L510.694 736.94L510.694 736.94L510.694 394.05L510.694 394.05L84.744 394.05z" /></clipPath><clipPath id="83"><path d="M84.744 736.94L510.694 736.94L510.694 736.94L510.694 394.05L510.694 394.05L84.744 394.05z" /></clipPath><clipPath id="84"><path d="M84.744 736.94L510.694 736.94L510.694 736.94L510.694 394.05L510.694 394.05L84.744 394.05z" /></clipPath><clipPath id="85"><path d="M84.744 736.94L510.694 736.94L510.694 736.94L510.694 394.05L510.694 394.05L84.744 394.05z" /></clipPath><clipPath id="86"><path d="M84.744 736.94L510.694 736.94L510.694 736.94L510.694 394.05L510.694 394.05L84.744 394.05z" /></clipPath><clipPath id="87"><path d="M84.744 736.94L510.694 736.94L510.694 736.94L510.694 394.05L510.694 394.05L84.744 394.05z" /></clipPath><clipPath id="88"><path d="M84.744 736.94L510.694 736.94L510.694 736.94L510.694 394.05L510.694 394.05L84.744 394.05z" /></clipPath><clipPath id="89"><path d="M84.744 736.94L510.694 736.94L510.694 736.94L510.694 394.05L510.694 394.05L84.744 394.05z" /></clipPath><clipPath id="90"><path d="M84.744 736.94L510.694 736.94L510.694 736.94L510.694 394.05L510.694 394.05L84.744 394.05z" /></clipPath><clipPath id="91"><path d="M84.744 736.94L510.694 736.94L510.694 736.94L510.694 394.05L510.694 394.05L84.744 394.05z" /></clipPath><clipPath id="92"><path d="M84.744 736.94L510.694 736.94L510.694 736.94L510.694 394.05L510.694 394.05L84.744 394.05z" /></clipPath><clipPath id="93"><path d="M84.744 736.94L510.694 736.94L510.694 736.94L510.694 394.05L510.694 394.05L84.744 394.05z" /></clipPath><clipPath id="94"><path d="M84.744 736.94L510.694 736.94L510.694 736.94L510.694 394.05L510.694 394.05L84.744 394.05z" /></clipPath><clipPath id="95"><path d="M84.744 736.94L510.694 736.94L510.694 736.94L510.694 394.05L510.694 394.05L84.744 394.05z" /></clipPath><clipPath id="96"><path d="M84.744 736.94L510.694 736.94L510.694 736.94L510.694 394.05L510.694 394.05L84.744 394.05z" /></clipPath><clipPath id="97"><path d="M84.744 736.94L510.694 736.94L510.694 736.94L510.694 394.05L510.694 394.05L84.744 394.05z" /></clipPath><clipPath id="98"><path d="M84.744 736.94L510.694 736.94L510.694 736.94L510.694 394.05L510.694 394.05L84.744 394.05z" /></clipPath><clipPath id="99"><path d="M84.744 736.94L510.694 736.94L510.694 736.94L510.694 394.05L510.694 394.05L84.744 394.05z" /></clipPath><clipPath id="100"><path d="M84.744 736.94L510.694 736.94L510.694 736.94L510.694 394.05L510.694 394.05L84.744 394.05z" /></clipPath><clipPath id="101"><path d="M84.744 736.94L510.694 736.94L510.694 736.94L510.694 394.05L510.694 394.05L84.744 394.05z" /></clipPath><clipPath id="102"><path d="M84.744 736.94L510.694 736.94L510.694 736.94L510.694 394.05L510.694 394.05L84.744 394.05z" /></clipPath><clipPath id="103"><path d="M84.744 736.94L510.694 736.94L510.694 736.94L510.694 394.05L510.694 394.05L84.744 394.05z" /></clipPath><clipPath id="104"><path d="M84.744 736.94L510.694 736.94L510.694 736.94L510.694 394.05L510.694 394.05L84.744 394.05z" /></clipPath><clipPath id="105"><path d="M84.744 736.94L510.694 736.94L510.694 736.94L510.694 394.05L510.694 394.05L84.744 394.05z" /></clipPath><clipPath id="106"><path d="M84.744 736.94L510.694 736.94L510.694 736.94L510.694 394.05L510.694 394.05L84.744 394.05z" /></clipPath><clipPath id="107"><path d="M84.744 736.94L510.694 736.94L510.694 736.94L510.694 394.05L510.694 394.05L84.744 394.05z" /></clipPath><clipPath id="108"><path d="M84.744 736.94L510.694 736.94L510.694 736.94L510.694 394.05L510.694 394.05L84.744 394.05z" /></clipPath><clipPath id="109"><path d="M84.744 736.94L510.694 736.94L510.694 736.94L510.694 394.05L510.694 394.05L84.744 394.05z" /></clipPath><clipPath id="110"><path d="M84.744 736.94L510.694 736.94L510.694 736.94L510.694 394.05L510.694 394.05L84.744 394.05z" /></clipPath></defs><g transform="matrix(1.333333 0 0 1.333333 0 0)"><g><g clip-path="url(#1)"><path transform="matrix(1 0 0 -1 0 841)" d="M457.51 53.304L505.534 53.304L505.534 53.304L505.534 53.90404L505.534 53.90404L457.51 53.90404z" stroke="none" fill="#000000" fill-rule="evenodd" /><g clip-path="url(#2)"><path transform="matrix(1 0 0 -1 0 841)" d="M88.464 77.904L506.974 77.904L506.974 77.904L506.974 80.904L506.974 80.904L88.464 80.904z" stroke="none" fill="#000000" fill-rule="evenodd" /><path transform="matrix(1 0 0 -1 0 841)" d="M88.464 76.464L506.974 76.464L506.974 76.464L506.974 77.18397L506.974 77.18397L88.464 77.18397z" stroke="none" fill="#000000" fill-rule="evenodd" /></g><g clip-path="url(#3)"><g clip-path="url(#4)"></g><g clip-path="url(#5)"></g></g><path transform="matrix(1 0 0 -1 0 841)" d="M84.744 727.42L510.694 727.42L510.694 727.42L510.694 751.564L510.694 751.564L84.744 751.564z" stroke="none" fill="#0070C0" fill-rule="evenodd" /><g clip-path="url(#6)"><path transform="matrix(1 0 0 -1 0 841)" d="M89.904 727.42L505.534 727.42L505.534 727.42L505.534 751.564L505.534 751.564L89.904 751.564z" stroke="none" fill="#0070C0" fill-rule="evenodd" /><g clip-path="url(#7)"></g><g clip-path="url(#8)"></g><g clip-path="url(#9)"></g><g clip-path="url(#10)"></g><g clip-path="url(#11)"></g><g clip-path="url(#12)"></g><g clip-path="url(#13)"></g><g clip-path="url(#14)"></g></g><path transform="matrix(1 0 0 -1 0 841)" d="M84.264 751.56L84.744 751.56L84.744 751.56L84.744 752.04L84.744 752.04L84.264 752.04z" stroke="none" fill="#000000" fill-rule="evenodd" /><path transform="matrix(1 0 0 -1 0 841)" d="M84.264 751.56L84.744 751.56L84.744 751.56L84.744 752.04L84.744 752.04L84.264 752.04z" stroke="none" fill="#000000" fill-rule="evenodd" /><path transform="matrix(1 0 0 -1 0 841)" d="M84.744 751.56L510.694 751.56L510.694 751.56L510.694 752.04L510.694 752.04L84.744 752.04z" stroke="none" fill="#000000" fill-rule="evenodd" /><path transform="matrix(1 0 0 -1 0 841)" d="M510.7 751.56L511.18 751.56L511.18 751.56L511.18 752.04L511.18 752.04L510.7 752.04z" stroke="none" fill="#000000" fill-rule="evenodd" /><path transform="matrix(1 0 0 -1 0 841)" d="M510.7 751.56L511.18 751.56L511.18 751.56L511.18 752.04L511.18 752.04L510.7 752.04z" stroke="none" fill="#000000" fill-rule="evenodd" /><path transform="matrix(1 0 0 -1 0 841)" d="M84.264 727.42L84.744 727.42L84.744 727.42L84.744 751.564L84.744 751.564L84.264 751.564z" stroke="none" fill="#000000" fill-rule="evenodd" /><path transform="matrix(1 0 0 -1 0 841)" d="M510.7 727.42L511.18 727.42L511.18 727.42L511.18 751.564L511.18 751.564L510.7 751.564z" stroke="none" fill="#000000" fill-rule="evenodd" /><path transform="matrix(1 0 0 -1 0 841)" d="M84.744 669.7L510.694 669.7L510.694 669.7L510.694 726.94L510.694 726.94L84.744 726.94z" stroke="none" fill="#DAEEF3" fill-rule="evenodd" /><g clip-path="url(#15)"><path transform="matrix(1 0 0 -1 0 841)" d="M89.904 707.86L505.534 707.86L505.534 707.86L505.534 726.94L505.534 726.94L89.904 726.94z" stroke="none" fill="#DAEEF3" fill-rule="evenodd" /><g clip-path="url(#16)"></g><g clip-path="url(#17)"></g><path transform="matrix(1 0 0 -1 0 841)" d="M89.904 688.78L505.534 688.78L505.534 688.78L505.534 707.86L505.534 707.86L89.904 707.86z" stroke="none" fill="#DAEEF3" fill-rule="evenodd" /><g clip-path="url(#18)"></g><path transform="matrix(1 0 0 -1 0 841)" d="M89.904 669.7L505.534 669.7L505.534 669.7L505.534 688.78L505.534 688.78L89.904 688.78z" stroke="none" fill="#DAEEF3" fill-rule="evenodd" /><g clip-path="url(#19)"></g><g clip-path="url(#20)"></g></g><path transform="matrix(1 0 0 -1 0 841)" d="M84.264 726.94L84.744 726.94L84.744 726.94L84.744 727.42L84.744 727.42L84.264 727.42z" stroke="none" fill="#000000" fill-rule="evenodd" /><path transform="matrix(1 0 0 -1 0 841)" d="M84.744 726.94L510.694 726.94L510.694 726.94L510.694 727.42L510.694 727.42L84.744 727.42z" stroke="none" fill="#000000" fill-rule="evenodd" /><path transform="matrix(1 0 0 -1 0 841)" d="M510.7 726.94L511.18 726.94L511.18 726.94L511.18 727.42L511.18 727.42L510.7 727.42z" stroke="none" fill="#000000" fill-rule="evenodd" /><path transform="matrix(1 0 0 -1 0 841)" d="M84.264 669.7L84.744 669.7L84.744 669.7L84.744 726.94L84.744 726.94L84.264 726.94z" stroke="none" fill="#000000" fill-rule="evenodd" /><path transform="matrix(1 0 0 -1 0 841)" d="M84.264 669.22L84.744 669.22L84.744 669.22L84.744 669.7L84.744 669.7L84.264 669.7z" stroke="none" fill="#000000" fill-rule="evenodd" /><path transform="matrix(1 0 0 -1 0 841)" d="M84.264 669.22L84.744 669.22L84.744 669.22L84.744 669.7L84.744 669.7L84.264 669.7z" stroke="none" fill="#000000" fill-rule="evenodd" /><path transform="matrix(1 0 0 -1 0 841)" d="M84.744 669.22L510.694 669.22L510.694 669.22L510.694 669.7L510.694 669.7L84.744 669.7z" stroke="none" fill="#000000" fill-rule="evenodd" /><path transform="matrix(1 0 0 -1 0 841)" d="M510.7 669.7L511.18 669.7L511.18 669.7L511.18 726.94L511.18 726.94L510.7 726.94z" stroke="none" fill="#000000" fill-rule="evenodd" /><path transform="matrix(1 0 0 -1 0 841)" d="M510.7 669.22L511.18 669.22L511.18 669.22L511.18 669.7L511.18 669.7L510.7 669.7z" stroke="none" fill="#000000" fill-rule="evenodd" /><path transform="matrix(1 0 0 -1 0 841)" d="M510.7 669.22L511.18 669.22L511.18 669.22L511.18 669.7L511.18 669.7L510.7 669.7z" stroke="none" fill="#000000" fill-rule="evenodd" /><path transform="matrix(1 0 0 -1 0 841)" d="M84.744 625.54L510.694 625.54L510.694 625.54L510.694 649.66L510.694 649.66L84.744 649.66z" stroke="none" fill="#0070C0" fill-rule="evenodd" /><g clip-path="url(#21)"><path transform="matrix(1 0 0 -1 0 841)" d="M89.904 625.54L505.534 625.54L505.534 625.54L505.534 649.66L505.534 649.66L89.904 649.66z" stroke="none" fill="#0070C0" fill-rule="evenodd" /><g clip-path="url(#22)"></g><g clip-path="url(#23)"></g><g clip-path="url(#24)"></g><g clip-path="url(#25)"></g><g clip-path="url(#26)"></g><g clip-path="url(#27)"></g><g clip-path="url(#28)"></g></g><path transform="matrix(1 0 0 -1 0 841)" d="M84.264 649.78L84.744 649.78L84.744 649.78L84.744 650.26L84.744 650.26L84.264 650.26z" stroke="none" fill="#000000" fill-rule="evenodd" /><path transform="matrix(1 0 0 -1 0 841)" d="M84.264 649.78L84.744 649.78L84.744 649.78L84.744 650.26L84.744 650.26L84.264 650.26z" stroke="none" fill="#000000" fill-rule="evenodd" /><path transform="matrix(1 0 0 -1 0 841)" d="M84.744 649.78L510.694 649.78L510.694 649.78L510.694 650.26L510.694 650.26L84.744 650.26z" stroke="none" fill="#000000" fill-rule="evenodd" /><path transform="matrix(1 0 0 -1 0 841)" d="M510.7 649.78L511.18 649.78L511.18 649.78L511.18 650.26L511.18 650.26L510.7 650.26z" stroke="none" fill="#000000" fill-rule="evenodd" /><path transform="matrix(1 0 0 -1 0 841)" d="M510.7 649.78L511.18 649.78L511.18 649.78L511.18 650.26L511.18 650.26L510.7 650.26z" stroke="none" fill="#000000" fill-rule="evenodd" /><path transform="matrix(1 0 0 -1 0 841)" d="M84.264 625.54L84.744 625.54L84.744 625.54L84.744 649.78L84.744 649.78L84.264 649.78z" stroke="none" fill="#000000" fill-rule="evenodd" /><path transform="matrix(1 0 0 -1 0 841)" d="M510.7 625.54L511.18 625.54L511.18 625.54L511.18 649.78L511.18 649.78L510.7 649.78z" stroke="none" fill="#000000" fill-rule="evenodd" /><path transform="matrix(1 0 0 -1 0 841)" d="M84.744 491.71L510.694 491.71L510.694 491.71L510.694 625.05L510.694 625.05L84.744 625.05z" stroke="none" fill="#DAEEF3" fill-rule="evenodd" /><g clip-path="url(#29)"><path transform="matrix(1 0 0 -1 0 841)" d="M89.904 605.98L505.534 605.98L505.534 605.98L505.534 625.06L505.534 625.06L89.904 625.06z" stroke="none" fill="#DAEEF3" fill-rule="evenodd" /><g clip-path="url(#30)"></g><g clip-path="url(#31)"></g><path transform="matrix(1 0 0 -1 0 841)" d="M89.904 586.9L505.534 586.9L505.534 586.9L505.534 605.98L505.534 605.98L89.904 605.98z" stroke="none" fill="#DAEEF3" fill-rule="evenodd" /><g clip-path="url(#32)"></g><g clip-path="url(#33)"></g><g clip-path="url(#34)"></g><path transform="matrix(1 0 0 -1 0 841)" d="M89.904 567.94L505.534 567.94L505.534 567.94L505.534 586.9L505.534 586.9L89.904 586.9z" stroke="none" fill="#DAEEF3" fill-rule="evenodd" /><g clip-path="url(#35)"></g><g clip-path="url(#36)"></g><g clip-path="url(#37)"></g><path transform="matrix(1 0 0 -1 0 841)" d="M89.904 548.83L505.534 548.83L505.534 548.83L505.534 567.934L505.534 567.934L89.904 567.934z" stroke="none" fill="#DAEEF3" fill-rule="evenodd" /><g clip-path="url(#38)"></g><g clip-path="url(#39)"></g><g clip-path="url(#40)"></g><path transform="matrix(1 0 0 -1 0 841)" d="M89.904 529.75L505.534 529.75L505.534 529.75L505.534 548.83L505.534 548.83L89.904 548.83z" stroke="none" fill="#DAEEF3" fill-rule="evenodd" /><g clip-path="url(#41)"></g><g clip-path="url(#42)"></g><g clip-path="url(#43)"></g><path transform="matrix(1 0 0 -1 0 841)" d="M89.904 510.67L505.534 510.67L505.534 510.67L505.534 529.75L505.534 529.75L89.904 529.75z" stroke="none" fill="#DAEEF3" fill-rule="evenodd" /><g clip-path="url(#44)"></g><g clip-path="url(#45)"></g><g clip-path="url(#46)"></g><path transform="matrix(1 0 0 -1 0 841)" d="M89.904 491.71L505.534 491.71L505.534 491.71L505.534 510.67L505.534 510.67L89.904 510.67z" stroke="none" fill="#DAEEF3" fill-rule="evenodd" /><g clip-path="url(#47)"></g><g clip-path="url(#48)"></g><g clip-path="url(#49)"></g></g><path transform="matrix(1 0 0 -1 0 841)" d="M84.264 625.06L84.744 625.06L84.744 625.06L84.744 625.54L84.744 625.54L84.264 625.54z" stroke="none" fill="#000000" fill-rule="evenodd" /><path transform="matrix(1 0 0 -1 0 841)" d="M84.744 625.06L510.694 625.06L510.694 625.06L510.694 625.54L510.694 625.54L84.744 625.54z" stroke="none" fill="#000000" fill-rule="evenodd" /><path transform="matrix(1 0 0 -1 0 841)" d="M510.7 625.06L511.18 625.06L511.18 625.06L511.18 625.54L511.18 625.54L510.7 625.54z" stroke="none" fill="#000000" fill-rule="evenodd" /><path transform="matrix(1 0 0 -1 0 841)" d="M84.264 491.71L84.744 491.71L84.744 491.71L84.744 625.05L84.744 625.05L84.264 625.05z" stroke="none" fill="#000000" fill-rule="evenodd" /><path transform="matrix(1 0 0 -1 0 841)" d="M84.264 491.23L84.744 491.23L84.744 491.23L84.744 491.71L84.744 491.71L84.264 491.71z" stroke="none" fill="#000000" fill-rule="evenodd" /><path transform="matrix(1 0 0 -1 0 841)" d="M84.264 491.23L84.744 491.23L84.744 491.23L84.744 491.71L84.744 491.71L84.264 491.71z" stroke="none" fill="#000000" fill-rule="evenodd" /><path transform="matrix(1 0 0 -1 0 841)" d="M84.744 491.23L510.694 491.23L510.694 491.23L510.694 491.71L510.694 491.71L84.744 491.71z" stroke="none" fill="#000000" fill-rule="evenodd" /><path transform="matrix(1 0 0 -1 0 841)" d="M510.7 491.71L511.18 491.71L511.18 491.71L511.18 625.05L511.18 625.05L510.7 625.05z" stroke="none" fill="#000000" fill-rule="evenodd" /><path transform="matrix(1 0 0 -1 0 841)" d="M510.7 491.23L511.18 491.23L511.18 491.23L511.18 491.71L511.18 491.71L510.7 491.71z" stroke="none" fill="#000000" fill-rule="evenodd" /><path transform="matrix(1 0 0 -1 0 841)" d="M510.7 491.23L511.18 491.23L511.18 491.23L511.18 491.71L511.18 491.71L510.7 491.71z" stroke="none" fill="#000000" fill-rule="evenodd" /><path transform="matrix(1 0 0 -1 0 841)" d="M84.744 447.43L510.694 447.43L510.694 447.43L510.694 471.67L510.694 471.67L84.744 471.67z" stroke="none" fill="#0070C0" fill-rule="evenodd" /><g clip-path="url(#50)"><path transform="matrix(1 0 0 -1 0 841)" d="M89.904 447.43L505.534 447.43L505.534 447.43L505.534 471.67L505.534 471.67L89.904 471.67z" stroke="none" fill="#0070C0" fill-rule="evenodd" /><g clip-path="url(#51)"></g><g clip-path="url(#52)"></g><g clip-path="url(#53)"></g><g clip-path="url(#54)"></g><g clip-path="url(#55)"></g><g clip-path="url(#56)"></g></g><path transform="matrix(1 0 0 -1 0 841)" d="M84.264 471.67L84.744 471.67L84.744 471.67L84.744 472.15L84.744 472.15L84.264 472.15z" stroke="none" fill="#000000" fill-rule="evenodd" /><path transform="matrix(1 0 0 -1 0 841)" d="M84.264 471.67L84.744 471.67L84.744 471.67L84.744 472.15L84.744 472.15L84.264 472.15z" stroke="none" fill="#000000" fill-rule="evenodd" /><path transform="matrix(1 0 0 -1 0 841)" d="M84.744 471.67L510.694 471.67L510.694 471.67L510.694 472.15L510.694 472.15L84.744 472.15z" stroke="none" fill="#000000" fill-rule="evenodd" /><path transform="matrix(1 0 0 -1 0 841)" d="M510.7 471.67L511.18 471.67L511.18 471.67L511.18 472.15L511.18 472.15L510.7 472.15z" stroke="none" fill="#000000" fill-rule="evenodd" /><path transform="matrix(1 0 0 -1 0 841)" d="M510.7 471.67L511.18 471.67L511.18 471.67L511.18 472.15L511.18 472.15L510.7 472.15z" stroke="none" fill="#000000" fill-rule="evenodd" /><path transform="matrix(1 0 0 -1 0 841)" d="M84.264 447.43L84.744 447.43L84.744 447.43L84.744 471.67L84.744 471.67L84.264 471.67z" stroke="none" fill="#000000" fill-rule="evenodd" /><path transform="matrix(1 0 0 -1 0 841)" d="M510.7 447.43L511.18 447.43L511.18 447.43L511.18 471.67L511.18 471.67L510.7 471.67z" stroke="none" fill="#000000" fill-rule="evenodd" /><path transform="matrix(1 0 0 -1 0 841)" d="M84.744 104.06L510.694 104.06L510.694 104.06L510.694 446.95L510.694 446.95L84.744 446.95z" stroke="none" fill="#DAEEF3" fill-rule="evenodd" /><g clip-path="url(#57)"><path transform="matrix(1 0 0 -1 0 841)" d="M89.904 427.87L505.534 427.87L505.534 427.87L505.534 446.95L505.534 446.95L89.904 446.95z" stroke="none" fill="#DAEEF3" fill-rule="evenodd" /><g clip-path="url(#58)"></g><g clip-path="url(#59)"></g><g clip-path="url(#60)"></g><path transform="matrix(1 0 0 -1 0 841)" d="M89.904 408.91L505.534 408.91L505.534 408.91L505.534 427.87L505.534 427.87L89.904 427.87z" stroke="none" fill="#DAEEF3" fill-rule="evenodd" /><g clip-path="url(#61)"></g><g clip-path="url(#62)"></g><g clip-path="url(#63)"></g><path transform="matrix(1 0 0 -1 0 841)" d="M89.904 389.83L505.534 389.83L505.534 389.83L505.534 408.91L505.534 408.91L89.904 408.91z" stroke="none" fill="#DAEEF3" fill-rule="evenodd" /><g clip-path="url(#64)"></g><g clip-path="url(#65)"></g><g clip-path="url(#66)"></g><path transform="matrix(1 0 0 -1 0 841)" d="M89.904 370.75L505.534 370.75L505.534 370.75L505.534 389.83L505.534 389.83L89.904 389.83z" stroke="none" fill="#DAEEF3" fill-rule="evenodd" /><g clip-path="url(#67)"></g><g clip-path="url(#68)"></g><g clip-path="url(#69)"></g><path transform="matrix(1 0 0 -1 0 841)" d="M89.904 351.65L505.534 351.65L505.534 351.65L505.534 370.754L505.534 370.754L89.904 370.754z" stroke="none" fill="#DAEEF3" fill-rule="evenodd" /><g clip-path="url(#70)"></g><g clip-path="url(#71)"></g><g clip-path="url(#72)"></g><path transform="matrix(1 0 0 -1 0 841)" d="M89.904 332.69L505.534 332.69L505.534 332.69L505.534 351.65L505.534 351.65L89.904 351.65z" stroke="none" fill="#DAEEF3" fill-rule="evenodd" /><g clip-path="url(#73)"></g><g clip-path="url(#74)"></g><g clip-path="url(#75)"></g><path transform="matrix(1 0 0 -1 0 841)" d="M89.904 313.61L505.534 313.61L505.534 313.61L505.534 332.69L505.534 332.69L89.904 332.69z" stroke="none" fill="#DAEEF3" fill-rule="evenodd" /><g clip-path="url(#76)"></g><g clip-path="url(#77)"></g><g clip-path="url(#78)"></g><path transform="matrix(1 0 0 -1 0 841)" d="M89.904 294.53L505.534 294.53L505.534 294.53L505.534 313.61L505.534 313.61L89.904 313.61z" stroke="none" fill="#DAEEF3" fill-rule="evenodd" /><g clip-path="url(#79)"></g><g clip-path="url(#80)"></g><g clip-path="url(#81)"></g><path transform="matrix(1 0 0 -1 0 841)" d="M89.904 275.45L505.534 275.45L505.534 275.45L505.534 294.53L505.534 294.53L89.904 294.53z" stroke="none" fill="#DAEEF3" fill-rule="evenodd" /><g clip-path="url(#82)"></g><g clip-path="url(#83)"></g><g clip-path="url(#84)"></g><path transform="matrix(1 0 0 -1 0 841)" d="M89.904 256.49L505.534 256.49L505.534 256.49L505.534 275.45L505.534 275.45L89.904 275.45z" stroke="none" fill="#DAEEF3" fill-rule="evenodd" /><g clip-path="url(#85)"></g><g clip-path="url(#86)"></g><g clip-path="url(#87)"></g><path transform="matrix(1 0 0 -1 0 841)" d="M89.904 237.41L505.534 237.41L505.534 237.41L505.534 256.49L505.534 256.49L89.904 256.49z" stroke="none" fill="#DAEEF3" fill-rule="evenodd" /><g clip-path="url(#88)"></g><g clip-path="url(#89)"></g><g clip-path="url(#90)"></g><path transform="matrix(1 0 0 -1 0 841)" d="M89.904 218.33L505.534 218.33L505.534 218.33L505.534 237.41L505.534 237.41L89.904 237.41z" stroke="none" fill="#DAEEF3" fill-rule="evenodd" /><g clip-path="url(#91)"></g><g clip-path="url(#92)"></g><g clip-path="url(#93)"></g><path transform="matrix(1 0 0 -1 0 841)" d="M89.904 199.25L505.534 199.25L505.534 199.25L505.534 218.33L505.534 218.33L89.904 218.33z" stroke="none" fill="#DAEEF3" fill-rule="evenodd" /><g clip-path="url(#94)"></g><g clip-path="url(#95)"></g><path transform="matrix(1 0 0 -1 0 841)" d="M89.904 180.26L505.534 180.26L505.534 180.26L505.534 199.244L505.534 199.244L89.904 199.244z" stroke="none" fill="#DAEEF3" fill-rule="evenodd" /><g clip-path="url(#96)"></g><g clip-path="url(#97)"></g><path transform="matrix(1 0 0 -1 0 841)" d="M89.904 161.18L505.534 161.18L505.534 161.18L505.534 180.26L505.534 180.26L89.904 180.26z" stroke="none" fill="#DAEEF3" fill-rule="evenodd" /><g clip-path="url(#98)"></g><g clip-path="url(#99)"></g><g clip-path="url(#100)"></g><path transform="matrix(1 0 0 -1 0 841)" d="M89.904 142.1L505.534 142.1L505.534 142.1L505.534 161.18L505.534 161.18L89.904 161.18z" stroke="none" fill="#DAEEF3" fill-rule="evenodd" /><g clip-path="url(#101)"></g><g clip-path="url(#102)"></g><g clip-path="url(#103)"></g><path transform="matrix(1 0 0 -1 0 841)" d="M89.904 123.14L505.534 123.14L505.534 123.14L505.534 142.1L505.534 142.1L89.904 142.1z" stroke="none" fill="#DAEEF3" fill-rule="evenodd" /><g clip-path="url(#104)"></g><g clip-path="url(#105)"></g><g clip-path="url(#106)"></g><path transform="matrix(1 0 0 -1 0 841)" d="M89.904 104.06L505.534 104.06L505.534 104.06L505.534 123.14L505.534 123.14L89.904 123.14z" stroke="none" fill="#DAEEF3" fill-rule="evenodd" /><g clip-path="url(#107)"></g><g clip-path="url(#108)"></g><g clip-path="url(#109)"></g><g clip-path="url(#110)"></g></g><path transform="matrix(1 0 0 -1 0 841)" d="M84.264 446.95L84.744 446.95L84.744 446.95L84.744 447.43L84.744 447.43L84.264 447.43z" stroke="none" fill="#000000" fill-rule="evenodd" /><path transform="matrix(1 0 0 -1 0 841)" d="M84.744 446.95L510.694 446.95L510.694 446.95L510.694 447.43L510.694 447.43L84.744 447.43z" stroke="none" fill="#000000" fill-rule="evenodd" /><path transform="matrix(1 0 0 -1 0 841)" d="M510.7 446.95L511.18 446.95L511.18 446.95L511.18 447.43L511.18 447.43L510.7 447.43z" stroke="none" fill="#000000" fill-rule="evenodd" /><path transform="matrix(1 0 0 -1 0 841)" d="M84.264 104.06L84.744 104.06L84.744 104.06L84.744 446.95L84.744 446.95L84.264 446.95z" stroke="none" fill="#000000" fill-rule="evenodd" /><path transform="matrix(1 0 0 -1 0 841)" d="M84.264 103.58L84.744 103.58L84.744 103.58L84.744 104.06L84.744 104.06L84.264 104.06z" stroke="none" fill="#000000" fill-rule="evenodd" /><path transform="matrix(1 0 0 -1 0 841)" d="M84.264 103.58L84.744 103.58L84.744 103.58L84.744 104.06L84.744 104.06L84.264 104.06z" stroke="none" fill="#000000" fill-rule="evenodd" /><path transform="matrix(1 0 0 -1 0 841)" d="M84.744 103.58L510.694 103.58L510.694 103.58L510.694 104.06L510.694 104.06L84.744 104.06z" stroke="none" fill="#000000" fill-rule="evenodd" /><path transform="matrix(1 0 0 -1 0 841)" d="M510.7 104.06L511.18 104.06L511.18 104.06L511.18 446.95L511.18 446.95L510.7 446.95z" stroke="none" fill="#000000" fill-rule="evenodd" /><path transform="matrix(1 0 0 -1 0 841)" d="M510.7 103.58L511.18 103.58L511.18 103.58L511.18 104.06L511.18 104.06L510.7 104.06z" stroke="none" fill="#000000" fill-rule="evenodd" /><path transform="matrix(1 0 0 -1 0 841)" d="M510.7 103.58L511.18 103.58L511.18 103.58L511.18 104.06L511.18 104.06L510.7 104.06z" stroke="none" fill="#000000" fill-rule="evenodd" /></g></g></g></svg>