<svg xmlns="http://www.w3.org/2000/svg" xmlns:xlink="http://www.w3.org/1999/xlink" id="body_244" preserveAspectRatio="xMinYMin meet" viewBox="0 0 793 1121"><defs><clipPath id="1"><path d="M0 841L0 -0.9199829L0 -0.9199829L595.32 -0.9199829L595.32 -0.9199829L595.32 841L595.32 841L0 841z" /></clipPath><clipPath id="2"><path d="M0.00125 841.0914L595.4112 841.0914L595.4112 841.0914L595.4112 -0.9186401L595.4112 -0.9186401L0.00125 -0.9186401z" /></clipPath><clipPath id="3"><path d="M288.05 781.211L316.01 781.211L316.01 781.211L316.01 762.011L316.01 762.011L288.05 762.011z" /></clipPath><clipPath id="4"><path d="M288.05 781.216L316.01 781.216L316.01 781.216L316.01 762.016L316.01 762.016L288.05 762.016z" /></clipPath><clipPath id="5"><path d="M288.05 781.216L316.01 781.216L316.01 781.216L316.01 762.016L316.01 762.016L288.05 762.016z" /></clipPath><clipPath id="6"><path d="M84.751 117.07L268.251 117.07L268.251 117.07L268.251 89.44L268.251 89.44L84.751 89.44z" /></clipPath><clipPath id="7"><path d="M84.744 117.06L268.244 117.06L268.244 117.06L268.244 89.43597L268.244 89.43597L84.744 89.43597z" /></clipPath><clipPath id="8"><path d="M84.744 117.06L268.244 117.06L268.244 117.06L268.244 89.43597L268.244 89.43597L84.744 89.43597z" /></clipPath><clipPath id="9"><path d="M268.85 117.07L499.42 117.07L499.42 117.07L499.42 89.44L499.42 89.44L268.85 89.44z" /></clipPath><clipPath id="10"><path d="M268.85 117.06L499.42 117.06L499.42 117.06L499.42 89.43597L499.42 89.43597L268.85 89.43597z" /></clipPath><clipPath id="11"><path d="M268.85 117.06L499.42 117.06L499.42 117.06L499.42 89.43597L499.42 89.43597L268.85 89.43597z" /></clipPath><clipPath id="12"><path d="M268.85 140.47L499.42 140.47L499.42 140.47L499.42 117.67L499.42 117.67L268.85 117.67z" /></clipPath><clipPath id="13"><path d="M268.85 140.46L499.42 140.46L499.42 140.46L499.42 117.66L499.42 117.66L268.85 117.66z" /></clipPath><clipPath id="14"><path d="M268.85 140.46L499.42 140.46L499.42 140.46L499.42 117.66L499.42 117.66L268.85 117.66z" /></clipPath><clipPath id="15"><path d="M84.751 246.07L268.251 246.07L268.251 246.07L268.251 141.07L268.251 141.07L84.751 141.07z" /></clipPath><clipPath id="16"><path d="M84.744 246.06L268.244 246.06L268.244 246.06L268.244 141.06L268.244 141.06L84.744 141.06z" /></clipPath><clipPath id="17"><path d="M84.744 246.06L268.244 246.06L268.244 246.06L268.244 141.06L268.244 141.06L84.744 141.06z" /></clipPath><clipPath id="18"><path d="M84.744 246.06L268.244 246.06L268.244 246.06L268.244 141.06L268.244 141.06L84.744 141.06z" /></clipPath><clipPath id="19"><path d="M84.744 246.06L268.244 246.06L268.244 246.06L268.244 141.06L268.244 141.06L84.744 141.06z" /></clipPath><clipPath id="20"><path d="M84.744 246.06L268.244 246.06L268.244 246.06L268.244 141.06L268.244 141.06L84.744 141.06z" /></clipPath><clipPath id="21"><path d="M84.744 246.06L268.244 246.06L268.244 246.06L268.244 141.06L268.244 141.06L84.744 141.06z" /></clipPath><clipPath id="22"><path d="M268.85 246.07L499.42 246.07L499.42 246.07L499.42 141.07L499.42 141.07L268.85 141.07z" /></clipPath><clipPath id="23"><path d="M268.85 246.06L499.42 246.06L499.42 246.06L499.42 141.06L499.42 141.06L268.85 141.06z" /></clipPath><clipPath id="24"><path d="M268.85 246.06L499.42 246.06L499.42 246.06L499.42 141.06L499.42 141.06L268.85 141.06z" /></clipPath><clipPath id="25"><path d="M268.85 246.06L499.42 246.06L499.42 246.06L499.42 141.06L499.42 141.06L268.85 141.06z" /></clipPath><clipPath id="26"><path d="M268.85 246.06L499.42 246.06L499.42 246.06L499.42 141.06L499.42 141.06L268.85 141.06z" /></clipPath><clipPath id="27"><path d="M268.85 246.06L499.42 246.06L499.42 246.06L499.42 141.06L499.42 141.06L268.85 141.06z" /></clipPath><clipPath id="28"><path d="M268.85 246.06L499.42 246.06L499.42 246.06L499.42 141.06L499.42 141.06L268.85 141.06z" /></clipPath><clipPath id="29"><path d="M268.85 246.06L499.42 246.06L499.42 246.06L499.42 141.06L499.42 141.06L268.85 141.06z" /></clipPath><clipPath id="30"><path d="M268.85 246.06L499.42 246.06L499.42 246.06L499.42 141.06L499.42 141.06L268.85 141.06z" /></clipPath><clipPath id="31"><path d="M268.85 246.06L499.42 246.06L499.42 246.06L499.42 141.06L499.42 141.06L268.85 141.06z" /></clipPath><clipPath id="32"><path d="M268.85 246.06L499.42 246.06L499.42 246.06L499.42 141.06L499.42 141.06L268.85 141.06z" /></clipPath><clipPath id="33"><path d="M268.85 246.06L499.42 246.06L499.42 246.06L499.42 141.06L499.42 141.06L268.85 141.06z" /></clipPath><clipPath id="34"><path d="M268.85 246.06L499.42 246.06L499.42 246.06L499.42 141.06L499.42 141.06L268.85 141.06z" /></clipPath><clipPath id="35"><path d="M268.85 246.06L499.42 246.06L499.42 246.06L499.42 141.06L499.42 141.06L268.85 141.06z" /></clipPath><clipPath id="36"><path d="M268.85 246.06L499.42 246.06L499.42 246.06L499.42 141.06L499.42 141.06L268.85 141.06z" /></clipPath><clipPath id="37"><path d="M268.85 246.06L499.42 246.06L499.42 246.06L499.42 141.06L499.42 141.06L268.85 141.06z" /></clipPath><clipPath id="38"><path d="M268.85 246.06L499.42 246.06L499.42 246.06L499.42 141.06L499.42 141.06L268.85 141.06z" /></clipPath><clipPath id="39"><path d="M268.85 246.06L499.42 246.06L499.42 246.06L499.42 141.06L499.42 141.06L268.85 141.06z" /></clipPath><clipPath id="40"><path d="M268.85 246.06L499.42 246.06L499.42 246.06L499.42 141.06L499.42 141.06L268.85 141.06z" /></clipPath><clipPath id="41"><path d="M268.85 246.06L499.42 246.06L499.42 246.06L499.42 141.06L499.42 141.06L268.85 141.06z" /></clipPath><clipPath id="42"><path d="M84.751 369.81L268.251 369.81L268.251 369.81L268.251 246.55L268.251 246.55L84.751 246.55z" /></clipPath><clipPath id="43"><path d="M84.744 369.81L268.244 369.81L268.244 369.81L268.244 246.55L268.244 246.55L84.744 246.55z" /></clipPath><clipPath id="44"><path d="M84.744 369.81L268.244 369.81L268.244 369.81L268.244 246.55L268.244 246.55L84.744 246.55z" /></clipPath><clipPath id="45"><path d="M84.744 369.81L268.244 369.81L268.244 369.81L268.244 246.55L268.244 246.55L84.744 246.55z" /></clipPath><clipPath id="46"><path d="M84.744 369.81L268.244 369.81L268.244 369.81L268.244 246.55L268.244 246.55L84.744 246.55z" /></clipPath><clipPath id="47"><path d="M84.744 369.81L268.244 369.81L268.244 369.81L268.244 246.55L268.244 246.55L84.744 246.55z" /></clipPath><clipPath id="48"><path d="M84.744 369.81L268.244 369.81L268.244 369.81L268.244 246.55L268.244 246.55L84.744 246.55z" /></clipPath><clipPath id="49"><path d="M84.744 369.81L268.244 369.81L268.244 369.81L268.244 246.55L268.244 246.55L84.744 246.55z" /></clipPath><clipPath id="50"><path d="M84.744 369.81L268.244 369.81L268.244 369.81L268.244 246.55L268.244 246.55L84.744 246.55z" /></clipPath><clipPath id="51"><path d="M84.744 369.81L268.244 369.81L268.244 369.81L268.244 246.55L268.244 246.55L84.744 246.55z" /></clipPath><clipPath id="52"><path d="M84.744 369.81L268.244 369.81L268.244 369.81L268.244 246.55L268.244 246.55L84.744 246.55z" /></clipPath><clipPath id="53"><path d="M84.744 369.81L268.244 369.81L268.244 369.81L268.244 246.55L268.244 246.55L84.744 246.55z" /></clipPath><clipPath id="54"><path d="M268.85 369.81L499.42 369.81L499.42 369.81L499.42 246.55L499.42 246.55L268.85 246.55z" /></clipPath><clipPath id="55"><path d="M268.85 369.81L499.42 369.81L499.42 369.81L499.42 246.55L499.42 246.55L268.85 246.55z" /></clipPath><clipPath id="56"><path d="M268.85 369.81L499.42 369.81L499.42 369.81L499.42 246.55L499.42 246.55L268.85 246.55z" /></clipPath><clipPath id="57"><path d="M268.85 369.81L499.42 369.81L499.42 369.81L499.42 246.55L499.42 246.55L268.85 246.55z" /></clipPath><clipPath id="58"><path d="M268.85 369.81L499.42 369.81L499.42 369.81L499.42 246.55L499.42 246.55L268.85 246.55z" /></clipPath><clipPath id="59"><path d="M268.85 369.81L499.42 369.81L499.42 369.81L499.42 246.55L499.42 246.55L268.85 246.55z" /></clipPath><clipPath id="60"><path d="M268.85 369.81L499.42 369.81L499.42 369.81L499.42 246.55L499.42 246.55L268.85 246.55z" /></clipPath><clipPath id="61"><path d="M268.85 369.81L499.42 369.81L499.42 369.81L499.42 246.55L499.42 246.55L268.85 246.55z" /></clipPath><clipPath id="62"><path d="M268.85 369.81L499.42 369.81L499.42 369.81L499.42 246.55L499.42 246.55L268.85 246.55z" /></clipPath><clipPath id="63"><path d="M268.85 369.81L499.42 369.81L499.42 369.81L499.42 246.55L499.42 246.55L268.85 246.55z" /></clipPath><clipPath id="64"><path d="M268.85 369.81L499.42 369.81L499.42 369.81L499.42 246.55L499.42 246.55L268.85 246.55z" /></clipPath><clipPath id="65"><path d="M268.85 369.81L499.42 369.81L499.42 369.81L499.42 246.55L499.42 246.55L268.85 246.55z" /></clipPath><clipPath id="66"><path d="M268.85 369.81L499.42 369.81L499.42 369.81L499.42 246.55L499.42 246.55L268.85 246.55z" /></clipPath><clipPath id="67"><path d="M268.85 369.81L499.42 369.81L499.42 369.81L499.42 246.55L499.42 246.55L268.85 246.55z" /></clipPath><clipPath id="68"><path d="M268.85 369.81L499.42 369.81L499.42 369.81L499.42 246.55L499.42 246.55L268.85 246.55z" /></clipPath><clipPath id="69"><path d="M268.85 369.81L499.42 369.81L499.42 369.81L499.42 246.55L499.42 246.55L268.85 246.55z" /></clipPath><clipPath id="70"><path d="M268.85 369.81L499.42 369.81L499.42 369.81L499.42 246.55L499.42 246.55L268.85 246.55z" /></clipPath><clipPath id="71"><path d="M268.85 369.81L499.42 369.81L499.42 369.81L499.42 246.55L499.42 246.55L268.85 246.55z" /></clipPath><clipPath id="72"><path d="M268.85 369.81L499.42 369.81L499.42 369.81L499.42 246.55L499.42 246.55L268.85 246.55z" /></clipPath><clipPath id="73"><path d="M268.85 369.81L499.42 369.81L499.42 369.81L499.42 246.55L499.42 246.55L268.85 246.55z" /></clipPath><clipPath id="74"><path d="M268.85 369.81L499.42 369.81L499.42 369.81L499.42 246.55L499.42 246.55L268.85 246.55z" /></clipPath><clipPath id="75"><path d="M84.751 493.44L268.251 493.44L268.251 493.44L268.251 370.29L268.251 370.29L84.751 370.29z" /></clipPath><clipPath id="76"><path d="M84.744 493.43L268.244 493.43L268.244 493.43L268.244 370.29L268.244 370.29L84.744 370.29z" /></clipPath><clipPath id="77"><path d="M84.744 493.43L268.244 493.43L268.244 493.43L268.244 370.29L268.244 370.29L84.744 370.29z" /></clipPath><clipPath id="78"><path d="M84.744 493.43L268.244 493.43L268.244 493.43L268.244 370.29L268.244 370.29L84.744 370.29z" /></clipPath><clipPath id="79"><path d="M84.744 493.43L268.244 493.43L268.244 493.43L268.244 370.29L268.244 370.29L84.744 370.29z" /></clipPath><clipPath id="80"><path d="M268.85 493.44L499.42 493.44L499.42 493.44L499.42 370.29L499.42 370.29L268.85 370.29z" /></clipPath><clipPath id="81"><path d="M268.85 493.43L499.42 493.43L499.42 493.43L499.42 370.29L499.42 370.29L268.85 370.29z" /></clipPath><clipPath id="82"><path d="M268.85 493.43L499.42 493.43L499.42 493.43L499.42 370.29L499.42 370.29L268.85 370.29z" /></clipPath><clipPath id="83"><path d="M268.85 493.43L499.42 493.43L499.42 493.43L499.42 370.29L499.42 370.29L268.85 370.29z" /></clipPath><clipPath id="84"><path d="M268.85 493.43L499.42 493.43L499.42 493.43L499.42 370.29L499.42 370.29L268.85 370.29z" /></clipPath><clipPath id="85"><path d="M268.85 493.43L499.42 493.43L499.42 493.43L499.42 370.29L499.42 370.29L268.85 370.29z" /></clipPath><clipPath id="86"><path d="M268.85 493.43L499.42 493.43L499.42 493.43L499.42 370.29L499.42 370.29L268.85 370.29z" /></clipPath><clipPath id="87"><path d="M268.85 493.43L499.42 493.43L499.42 493.43L499.42 370.29L499.42 370.29L268.85 370.29z" /></clipPath><clipPath id="88"><path d="M268.85 493.43L499.42 493.43L499.42 493.43L499.42 370.29L499.42 370.29L268.85 370.29z" /></clipPath><clipPath id="89"><path d="M268.85 493.43L499.42 493.43L499.42 493.43L499.42 370.29L499.42 370.29L268.85 370.29z" /></clipPath><clipPath id="90"><path d="M268.85 493.43L499.42 493.43L499.42 493.43L499.42 370.29L499.42 370.29L268.85 370.29z" /></clipPath><clipPath id="91"><path d="M268.85 493.43L499.42 493.43L499.42 493.43L499.42 370.29L499.42 370.29L268.85 370.29z" /></clipPath><clipPath id="92"><path d="M268.85 493.43L499.42 493.43L499.42 493.43L499.42 370.29L499.42 370.29L268.85 370.29z" /></clipPath><clipPath id="93"><path d="M268.85 493.43L499.42 493.43L499.42 493.43L499.42 370.29L499.42 370.29L268.85 370.29z" /></clipPath><clipPath id="94"><path d="M268.85 493.43L499.42 493.43L499.42 493.43L499.42 370.29L499.42 370.29L268.85 370.29z" /></clipPath><clipPath id="95"><path d="M268.85 493.43L499.42 493.43L499.42 493.43L499.42 370.29L499.42 370.29L268.85 370.29z" /></clipPath><clipPath id="96"><path d="M84.751 539.76L268.251 539.76L268.251 539.76L268.251 493.92L268.251 493.92L84.751 493.92z" /></clipPath><clipPath id="97"><path d="M84.744 539.75L268.244 539.75L268.244 539.75L268.244 493.91L268.244 493.91L84.744 493.91z" /></clipPath><clipPath id="98"><path d="M84.744 539.75L268.244 539.75L268.244 539.75L268.244 493.91L268.244 493.91L84.744 493.91z" /></clipPath><clipPath id="99"><path d="M268.85 539.76L499.42 539.76L499.42 539.76L499.42 493.92L499.42 493.92L268.85 493.92z" /></clipPath><clipPath id="100"><path d="M268.85 539.75L499.42 539.75L499.42 539.75L499.42 493.91L499.42 493.91L268.85 493.91z" /></clipPath><clipPath id="101"><path d="M268.85 539.75L499.42 539.75L499.42 539.75L499.42 493.91L499.42 493.91L268.85 493.91z" /></clipPath><clipPath id="102"><path d="M268.85 539.75L499.42 539.75L499.42 539.75L499.42 493.91L499.42 493.91L268.85 493.91z" /></clipPath><clipPath id="103"><path d="M268.85 539.75L499.42 539.75L499.42 539.75L499.42 493.91L499.42 493.91L268.85 493.91z" /></clipPath><clipPath id="104"><path d="M268.85 539.75L499.42 539.75L499.42 539.75L499.42 493.91L499.42 493.91L268.85 493.91z" /></clipPath><clipPath id="105"><path d="M84.751 586.08L268.251 586.08L268.251 586.08L268.251 540.24L268.251 540.24L84.751 540.24z" /></clipPath><clipPath id="106"><path d="M84.744 586.07L268.244 586.07L268.244 586.07L268.244 540.23L268.244 540.23L84.744 540.23z" /></clipPath><clipPath id="107"><path d="M84.744 586.07L268.244 586.07L268.244 586.07L268.244 540.23L268.244 540.23L84.744 540.23z" /></clipPath><clipPath id="108"><path d="M84.744 586.07L268.244 586.07L268.244 586.07L268.244 540.23L268.244 540.23L84.744 540.23z" /></clipPath><clipPath id="109"><path d="M268.85 586.08L499.42 586.08L499.42 586.08L499.42 540.24L499.42 540.24L268.85 540.24z" /></clipPath><clipPath id="110"><path d="M268.85 586.07L499.42 586.07L499.42 586.07L499.42 540.23L499.42 540.23L268.85 540.23z" /></clipPath><clipPath id="111"><path d="M268.85 586.07L499.42 586.07L499.42 586.07L499.42 540.23L499.42 540.23L268.85 540.23z" /></clipPath><clipPath id="112"><path d="M268.85 586.07L499.42 586.07L499.42 586.07L499.42 540.23L499.42 540.23L268.85 540.23z" /></clipPath><clipPath id="113"><path d="M268.85 586.07L499.42 586.07L499.42 586.07L499.42 540.23L499.42 540.23L268.85 540.23z" /></clipPath><clipPath id="114"><path d="M268.85 586.07L499.42 586.07L499.42 586.07L499.42 540.23L499.42 540.23L268.85 540.23z" /></clipPath><clipPath id="115"><path d="M268.85 586.07L499.42 586.07L499.42 586.07L499.42 540.23L499.42 540.23L268.85 540.23z" /></clipPath><clipPath id="116"><path d="M84.751 650.52L268.251 650.52L268.251 650.52L268.251 586.56L268.251 586.56L84.751 586.56z" /></clipPath><clipPath id="117"><path d="M84.744 650.51L268.244 650.51L268.244 650.51L268.244 586.55L268.244 586.55L84.744 586.55z" /></clipPath><clipPath id="118"><path d="M84.744 650.51L268.244 650.51L268.244 650.51L268.244 586.55L268.244 586.55L84.744 586.55z" /></clipPath><clipPath id="119"><path d="M268.85 650.52L499.42 650.52L499.42 650.52L499.42 586.56L499.42 586.56L268.85 586.56z" /></clipPath><clipPath id="120"><path d="M268.85 650.51L499.42 650.51L499.42 650.51L499.42 586.55L499.42 586.55L268.85 586.55z" /></clipPath><clipPath id="121"><path d="M268.85 650.51L499.42 650.51L499.42 650.51L499.42 586.55L499.42 586.55L268.85 586.55z" /></clipPath><clipPath id="122"><path d="M268.85 650.51L499.42 650.51L499.42 650.51L499.42 586.55L499.42 586.55L268.85 586.55z" /></clipPath><clipPath id="123"><path d="M268.85 650.51L499.42 650.51L499.42 650.51L499.42 586.55L499.42 586.55L268.85 586.55z" /></clipPath><clipPath id="124"><path d="M268.85 650.51L499.42 650.51L499.42 650.51L499.42 586.55L499.42 586.55L268.85 586.55z" /></clipPath><clipPath id="125"><path d="M268.85 650.51L499.42 650.51L499.42 650.51L499.42 586.55L499.42 586.55L268.85 586.55z" /></clipPath><clipPath id="126"><path d="M268.85 650.51L499.42 650.51L499.42 650.51L499.42 586.55L499.42 586.55L268.85 586.55z" /></clipPath><clipPath id="127"><path d="M268.85 650.51L499.42 650.51L499.42 650.51L499.42 586.55L499.42 586.55L268.85 586.55z" /></clipPath><clipPath id="128"><path d="M268.85 650.51L499.42 650.51L499.42 650.51L499.42 586.55L499.42 586.55L268.85 586.55z" /></clipPath><clipPath id="129"><path d="M268.85 650.51L499.42 650.51L499.42 650.51L499.42 586.55L499.42 586.55L268.85 586.55z" /></clipPath><clipPath id="130"><path d="M268.85 650.51L499.42 650.51L499.42 650.51L499.42 586.55L499.42 586.55L268.85 586.55z" /></clipPath></defs><g transform="matrix(1.333333 0 0 1.333333 0 0)"><g><g clip-path="url(#1)"><path transform="matrix(1 0 0 -1 0 841)" d="M457.51 53.304L505.534 53.304L505.534 53.304L505.534 53.90404L505.534 53.90404L457.51 53.90404z" stroke="none" fill="#000000" fill-rule="evenodd" /><g clip-path="url(#2)"><path transform="matrix(1 0 0 -1 0 841)" d="M88.464 77.904L506.974 77.904L506.974 77.904L506.974 80.904L506.974 80.904L88.464 80.904z" stroke="none" fill="#000000" fill-rule="evenodd" /><path transform="matrix(1 0 0 -1 0 841)" d="M88.464 76.464L506.974 76.464L506.974 76.464L506.974 77.18397L506.974 77.18397L88.464 77.18397z" stroke="none" fill="#000000" fill-rule="evenodd" /></g><g clip-path="url(#3)"><g clip-path="url(#4)"></g><g clip-path="url(#5)"></g></g><path transform="matrix(1 0 0 -1 0 841)" d="M84.744 723.94L268.244 723.94L268.244 723.94L268.244 751.564L268.244 751.564L84.744 751.564z" stroke="none" fill="#D9D9D9" fill-rule="evenodd" /><g clip-path="url(#6)"><path transform="matrix(1 0 0 -1 0 841)" d="M89.904 723.94L263.204 723.94L263.204 723.94L263.204 751.564L263.204 751.564L89.904 751.564z" stroke="none" fill="#D9D9D9" fill-rule="evenodd" /><g clip-path="url(#7)"></g><g clip-path="url(#8)"></g></g><path transform="matrix(1 0 0 -1 0 841)" d="M268.85 723.94L499.42 723.94L499.42 723.94L499.42 751.564L499.42 751.564L268.85 751.564z" stroke="none" fill="#D9D9D9" fill-rule="evenodd" /><g clip-path="url(#9)"><path transform="matrix(1 0 0 -1 0 841)" d="M273.89 723.94L494.26 723.94L494.26 723.94L494.26 751.564L494.26 751.564L273.89 751.564z" stroke="none" fill="#D9D9D9" fill-rule="evenodd" /><g clip-path="url(#10)"></g><g clip-path="url(#11)"></g></g><path transform="matrix(1 0 0 -1 0 841)" d="M84.264 751.56L84.744 751.56L84.744 751.56L84.744 752.04L84.744 752.04L84.264 752.04z" stroke="none" fill="#000000" fill-rule="evenodd" /><path transform="matrix(1 0 0 -1 0 841)" d="M84.264 751.56L84.744 751.56L84.744 751.56L84.744 752.04L84.744 752.04L84.264 752.04z" stroke="none" fill="#000000" fill-rule="evenodd" /><path transform="matrix(1 0 0 -1 0 841)" d="M84.744 751.56L268.364 751.56L268.364 751.56L268.364 752.04L268.364 752.04L84.744 752.04z" stroke="none" fill="#000000" fill-rule="evenodd" /><path transform="matrix(1 0 0 -1 0 841)" d="M268.37 751.56L268.85 751.56L268.85 751.56L268.85 752.04L268.85 752.04L268.37 752.04z" stroke="none" fill="#000000" fill-rule="evenodd" /><path transform="matrix(1 0 0 -1 0 841)" d="M268.85 751.56L499.42 751.56L499.42 751.56L499.42 752.04L499.42 752.04L268.85 752.04z" stroke="none" fill="#000000" fill-rule="evenodd" /><path transform="matrix(1 0 0 -1 0 841)" d="M499.42 751.56L499.9 751.56L499.9 751.56L499.9 752.04L499.9 752.04L499.42 752.04z" stroke="none" fill="#000000" fill-rule="evenodd" /><path transform="matrix(1 0 0 -1 0 841)" d="M499.42 751.56L499.9 751.56L499.9 751.56L499.9 752.04L499.9 752.04L499.42 752.04z" stroke="none" fill="#000000" fill-rule="evenodd" /><path transform="matrix(1 0 0 -1 0 841)" d="M84.264 723.94L84.744 723.94L84.744 723.94L84.744 751.564L84.744 751.564L84.264 751.564z" stroke="none" fill="#000000" fill-rule="evenodd" /><path transform="matrix(1 0 0 -1 0 841)" d="M268.37 723.94L268.85 723.94L268.85 723.94L268.85 751.564L268.85 751.564L268.37 751.564z" stroke="none" fill="#000000" fill-rule="evenodd" /><path transform="matrix(1 0 0 -1 0 841)" d="M499.42 723.94L499.9 723.94L499.9 723.94L499.9 751.564L499.9 751.564L499.42 751.564z" stroke="none" fill="#000000" fill-rule="evenodd" /><g clip-path="url(#12)"><g clip-path="url(#13)"></g><g clip-path="url(#14)"></g></g><path transform="matrix(1 0 0 -1 0 841)" d="M84.264 723.46L84.744 723.46L84.744 723.46L84.744 723.94L84.744 723.94L84.264 723.94z" stroke="none" fill="#000000" fill-rule="evenodd" /><path transform="matrix(1 0 0 -1 0 841)" d="M84.744 723.46L268.364 723.46L268.364 723.46L268.364 723.94L268.364 723.94L84.744 723.94z" stroke="none" fill="#000000" fill-rule="evenodd" /><path transform="matrix(1 0 0 -1 0 841)" d="M268.37 723.46L268.85 723.46L268.85 723.46L268.85 723.94L268.85 723.94L268.37 723.94z" stroke="none" fill="#000000" fill-rule="evenodd" /><path transform="matrix(1 0 0 -1 0 841)" d="M268.85 723.46L499.42 723.46L499.42 723.46L499.42 723.94L499.42 723.94L268.85 723.94z" stroke="none" fill="#000000" fill-rule="evenodd" /><path transform="matrix(1 0 0 -1 0 841)" d="M499.42 723.46L499.9 723.46L499.9 723.46L499.9 723.94L499.9 723.94L499.42 723.94z" stroke="none" fill="#000000" fill-rule="evenodd" /><path transform="matrix(1 0 0 -1 0 841)" d="M84.264 700.54L84.744 700.54L84.744 700.54L84.744 723.46L84.744 723.46L84.264 723.46z" stroke="none" fill="#000000" fill-rule="evenodd" /><path transform="matrix(1 0 0 -1 0 841)" d="M268.37 700.54L268.85 700.54L268.85 700.54L268.85 723.46L268.85 723.46L268.37 723.46z" stroke="none" fill="#000000" fill-rule="evenodd" /><path transform="matrix(1 0 0 -1 0 841)" d="M499.42 700.54L499.9 700.54L499.9 700.54L499.9 723.46L499.9 723.46L499.42 723.46z" stroke="none" fill="#000000" fill-rule="evenodd" /><g clip-path="url(#15)"><g clip-path="url(#16)"></g><g clip-path="url(#17)"></g><g clip-path="url(#18)"></g><g clip-path="url(#19)"></g><g clip-path="url(#20)"></g><g clip-path="url(#21)"></g></g><g clip-path="url(#22)"><g clip-path="url(#23)"></g><g clip-path="url(#24)"></g><g clip-path="url(#25)"></g><path transform="matrix(1 0 0 -1 0 841)" d="M279.89 678.7L326.21 678.7L326.21 678.7L326.21 679.42L326.21 679.42L279.89 679.42z" stroke="none" fill="#000000" fill-rule="evenodd" /><g clip-path="url(#26)"></g><g clip-path="url(#27)"></g><g clip-path="url(#28)"></g><g clip-path="url(#29)"></g><g clip-path="url(#30)"></g><g clip-path="url(#31)"></g><g clip-path="url(#32)"></g><g clip-path="url(#33)"></g><g clip-path="url(#34)"></g><g clip-path="url(#35)"></g><g clip-path="url(#36)"></g><g clip-path="url(#37)"></g><g clip-path="url(#38)"></g><g clip-path="url(#39)"></g><path transform="matrix(1 0 0 -1 0 841)" d="M279.89 619.42L322.01 619.42L322.01 619.42L322.01 620.14L322.01 620.14L279.89 620.14z" stroke="none" fill="#000000" fill-rule="evenodd" /><g clip-path="url(#40)"></g><g clip-path="url(#41)"></g></g><path transform="matrix(1 0 0 -1 0 841)" d="M84.264 700.06L84.744 700.06L84.744 700.06L84.744 700.54L84.744 700.54L84.264 700.54z" stroke="none" fill="#000000" fill-rule="evenodd" /><path transform="matrix(1 0 0 -1 0 841)" d="M84.744 700.06L268.364 700.06L268.364 700.06L268.364 700.54L268.364 700.54L84.744 700.54z" stroke="none" fill="#000000" fill-rule="evenodd" /><path transform="matrix(1 0 0 -1 0 841)" d="M268.37 700.06L268.85 700.06L268.85 700.06L268.85 700.54L268.85 700.54L268.37 700.54z" stroke="none" fill="#000000" fill-rule="evenodd" /><path transform="matrix(1 0 0 -1 0 841)" d="M268.85 700.06L499.42 700.06L499.42 700.06L499.42 700.54L499.42 700.54L268.85 700.54z" stroke="none" fill="#000000" fill-rule="evenodd" /><path transform="matrix(1 0 0 -1 0 841)" d="M499.42 700.06L499.9 700.06L499.9 700.06L499.9 700.54L499.9 700.54L499.42 700.54z" stroke="none" fill="#000000" fill-rule="evenodd" /><path transform="matrix(1 0 0 -1 0 841)" d="M84.264 594.94L84.744 594.94L84.744 594.94L84.744 700.06L84.744 700.06L84.264 700.06z" stroke="none" fill="#000000" fill-rule="evenodd" /><path transform="matrix(1 0 0 -1 0 841)" d="M268.37 594.94L268.85 594.94L268.85 594.94L268.85 700.06L268.85 700.06L268.37 700.06z" stroke="none" fill="#000000" fill-rule="evenodd" /><path transform="matrix(1 0 0 -1 0 841)" d="M499.42 594.94L499.9 594.94L499.9 594.94L499.9 700.06L499.9 700.06L499.42 700.06z" stroke="none" fill="#000000" fill-rule="evenodd" /><g clip-path="url(#42)"><g clip-path="url(#43)"></g><g clip-path="url(#44)"></g><g clip-path="url(#45)"></g><g clip-path="url(#46)"></g><g clip-path="url(#47)"></g><g clip-path="url(#48)"></g><g clip-path="url(#49)"></g><g clip-path="url(#50)"></g><g clip-path="url(#51)"></g><g clip-path="url(#52)"></g><g clip-path="url(#53)"></g></g><g clip-path="url(#54)"><g clip-path="url(#55)"></g><g clip-path="url(#56)"></g><g clip-path="url(#57)"></g><g clip-path="url(#58)"></g><g clip-path="url(#59)"></g><g clip-path="url(#60)"></g><g clip-path="url(#61)"></g><g clip-path="url(#62)"></g><g clip-path="url(#63)"></g><g clip-path="url(#64)"></g><g clip-path="url(#65)"></g><g clip-path="url(#66)"></g><g clip-path="url(#67)"></g><g clip-path="url(#68)"></g><g clip-path="url(#69)"></g><g clip-path="url(#70)"></g><g clip-path="url(#71)"></g><g clip-path="url(#72)"></g><g clip-path="url(#73)"></g><g clip-path="url(#74)"></g></g><path transform="matrix(1 0 0 -1 0 841)" d="M84.264 594.46L84.744 594.46L84.744 594.46L84.744 594.94L84.744 594.94L84.264 594.94z" stroke="none" fill="#000000" fill-rule="evenodd" /><path transform="matrix(1 0 0 -1 0 841)" d="M84.744 594.46L268.364 594.46L268.364 594.46L268.364 594.94L268.364 594.94L84.744 594.94z" stroke="none" fill="#000000" fill-rule="evenodd" /><path transform="matrix(1 0 0 -1 0 841)" d="M268.37 594.46L268.85 594.46L268.85 594.46L268.85 594.94L268.85 594.94L268.37 594.94z" stroke="none" fill="#000000" fill-rule="evenodd" /><path transform="matrix(1 0 0 -1 0 841)" d="M268.85 594.46L499.42 594.46L499.42 594.46L499.42 594.94L499.42 594.94L268.85 594.94z" stroke="none" fill="#000000" fill-rule="evenodd" /><path transform="matrix(1 0 0 -1 0 841)" d="M499.42 594.46L499.9 594.46L499.9 594.46L499.9 594.94L499.9 594.94L499.42 594.94z" stroke="none" fill="#000000" fill-rule="evenodd" /><path transform="matrix(1 0 0 -1 0 841)" d="M84.264 471.19L84.744 471.19L84.744 471.19L84.744 594.45L84.744 594.45L84.264 594.45z" stroke="none" fill="#000000" fill-rule="evenodd" /><path transform="matrix(1 0 0 -1 0 841)" d="M268.37 471.19L268.85 471.19L268.85 471.19L268.85 594.45L268.85 594.45L268.37 594.45z" stroke="none" fill="#000000" fill-rule="evenodd" /><path transform="matrix(1 0 0 -1 0 841)" d="M499.42 471.19L499.9 471.19L499.9 471.19L499.9 594.45L499.9 594.45L499.42 594.45z" stroke="none" fill="#000000" fill-rule="evenodd" /><g clip-path="url(#75)"><g clip-path="url(#76)"></g><g clip-path="url(#77)"></g><g clip-path="url(#78)"></g><g clip-path="url(#79)"></g></g><g clip-path="url(#80)"><g clip-path="url(#81)"></g><g clip-path="url(#82)"></g><g clip-path="url(#83)"></g><g clip-path="url(#84)"></g><g clip-path="url(#85)"></g><g clip-path="url(#86)"></g><g clip-path="url(#87)"></g><g clip-path="url(#88)"></g><g clip-path="url(#89)"></g><g clip-path="url(#90)"></g><g clip-path="url(#91)"></g><g clip-path="url(#92)"></g><g clip-path="url(#93)"></g><g clip-path="url(#94)"></g><g clip-path="url(#95)"></g></g><path transform="matrix(1 0 0 -1 0 841)" d="M84.264 470.71L84.744 470.71L84.744 470.71L84.744 471.19L84.744 471.19L84.264 471.19z" stroke="none" fill="#000000" fill-rule="evenodd" /><path transform="matrix(1 0 0 -1 0 841)" d="M84.744 470.71L268.364 470.71L268.364 470.71L268.364 471.19L268.364 471.19L84.744 471.19z" stroke="none" fill="#000000" fill-rule="evenodd" /><path transform="matrix(1 0 0 -1 0 841)" d="M268.37 470.71L268.85 470.71L268.85 470.71L268.85 471.19L268.85 471.19L268.37 471.19z" stroke="none" fill="#000000" fill-rule="evenodd" /><path transform="matrix(1 0 0 -1 0 841)" d="M268.85 470.71L499.42 470.71L499.42 470.71L499.42 471.19L499.42 471.19L268.85 471.19z" stroke="none" fill="#000000" fill-rule="evenodd" /><path transform="matrix(1 0 0 -1 0 841)" d="M499.42 470.71L499.9 470.71L499.9 470.71L499.9 471.19L499.9 471.19L499.42 471.19z" stroke="none" fill="#000000" fill-rule="evenodd" /><path transform="matrix(1 0 0 -1 0 841)" d="M84.264 347.57L84.744 347.57L84.744 347.57L84.744 470.71L84.744 470.71L84.264 470.71z" stroke="none" fill="#000000" fill-rule="evenodd" /><path transform="matrix(1 0 0 -1 0 841)" d="M268.37 347.57L268.85 347.57L268.85 347.57L268.85 470.71L268.85 470.71L268.37 470.71z" stroke="none" fill="#000000" fill-rule="evenodd" /><path transform="matrix(1 0 0 -1 0 841)" d="M499.42 347.57L499.9 347.57L499.9 347.57L499.9 470.71L499.9 470.71L499.42 470.71z" stroke="none" fill="#000000" fill-rule="evenodd" /><g clip-path="url(#96)"><g clip-path="url(#97)"></g><g clip-path="url(#98)"></g></g><g clip-path="url(#99)"><g clip-path="url(#100)"></g><g clip-path="url(#101)"></g><g clip-path="url(#102)"></g><g clip-path="url(#103)"></g><g clip-path="url(#104)"></g></g><path transform="matrix(1 0 0 -1 0 841)" d="M84.264 347.09L84.744 347.09L84.744 347.09L84.744 347.57L84.744 347.57L84.264 347.57z" stroke="none" fill="#000000" fill-rule="evenodd" /><path transform="matrix(1 0 0 -1 0 841)" d="M84.744 347.09L268.364 347.09L268.364 347.09L268.364 347.57L268.364 347.57L84.744 347.57z" stroke="none" fill="#000000" fill-rule="evenodd" /><path transform="matrix(1 0 0 -1 0 841)" d="M268.37 347.09L268.85 347.09L268.85 347.09L268.85 347.57L268.85 347.57L268.37 347.57z" stroke="none" fill="#000000" fill-rule="evenodd" /><path transform="matrix(1 0 0 -1 0 841)" d="M268.85 347.09L499.42 347.09L499.42 347.09L499.42 347.57L499.42 347.57L268.85 347.57z" stroke="none" fill="#000000" fill-rule="evenodd" /><path transform="matrix(1 0 0 -1 0 841)" d="M499.42 347.09L499.9 347.09L499.9 347.09L499.9 347.57L499.9 347.57L499.42 347.57z" stroke="none" fill="#000000" fill-rule="evenodd" /><path transform="matrix(1 0 0 -1 0 841)" d="M84.264 301.25L84.744 301.25L84.744 301.25L84.744 347.09L84.744 347.09L84.264 347.09z" stroke="none" fill="#000000" fill-rule="evenodd" /><path transform="matrix(1 0 0 -1 0 841)" d="M268.37 301.25L268.85 301.25L268.85 301.25L268.85 347.09L268.85 347.09L268.37 347.09z" stroke="none" fill="#000000" fill-rule="evenodd" /><path transform="matrix(1 0 0 -1 0 841)" d="M499.42 301.25L499.9 301.25L499.9 301.25L499.9 347.09L499.9 347.09L499.42 347.09z" stroke="none" fill="#000000" fill-rule="evenodd" /><g clip-path="url(#105)"><g clip-path="url(#106)"></g><g clip-path="url(#107)"></g><g clip-path="url(#108)"></g></g><g clip-path="url(#109)"><g clip-path="url(#110)"></g><g clip-path="url(#111)"></g><g clip-path="url(#112)"></g><g clip-path="url(#113)"></g><g clip-path="url(#114)"></g><g clip-path="url(#115)"></g></g><path transform="matrix(1 0 0 -1 0 841)" d="M84.264 300.77L84.744 300.77L84.744 300.77L84.744 301.25L84.744 301.25L84.264 301.25z" stroke="none" fill="#000000" fill-rule="evenodd" /><path transform="matrix(1 0 0 -1 0 841)" d="M84.744 300.77L268.364 300.77L268.364 300.77L268.364 301.25L268.364 301.25L84.744 301.25z" stroke="none" fill="#000000" fill-rule="evenodd" /><path transform="matrix(1 0 0 -1 0 841)" d="M268.37 300.77L268.85 300.77L268.85 300.77L268.85 301.25L268.85 301.25L268.37 301.25z" stroke="none" fill="#000000" fill-rule="evenodd" /><path transform="matrix(1 0 0 -1 0 841)" d="M268.85 300.77L499.42 300.77L499.42 300.77L499.42 301.25L499.42 301.25L268.85 301.25z" stroke="none" fill="#000000" fill-rule="evenodd" /><path transform="matrix(1 0 0 -1 0 841)" d="M499.42 300.77L499.9 300.77L499.9 300.77L499.9 301.25L499.9 301.25L499.42 301.25z" stroke="none" fill="#000000" fill-rule="evenodd" /><path transform="matrix(1 0 0 -1 0 841)" d="M84.264 254.93L84.744 254.93L84.744 254.93L84.744 300.77L84.744 300.77L84.264 300.77z" stroke="none" fill="#000000" fill-rule="evenodd" /><path transform="matrix(1 0 0 -1 0 841)" d="M268.37 254.93L268.85 254.93L268.85 254.93L268.85 300.77L268.85 300.77L268.37 300.77z" stroke="none" fill="#000000" fill-rule="evenodd" /><path transform="matrix(1 0 0 -1 0 841)" d="M499.42 254.93L499.9 254.93L499.9 254.93L499.9 300.77L499.9 300.77L499.42 300.77z" stroke="none" fill="#000000" fill-rule="evenodd" /><g clip-path="url(#116)"><g clip-path="url(#117)"></g><g clip-path="url(#118)"></g></g><g clip-path="url(#119)"><g clip-path="url(#120)"></g><g clip-path="url(#121)"></g><g clip-path="url(#122)"></g><g clip-path="url(#123)"></g><g clip-path="url(#124)"></g><g clip-path="url(#125)"></g><g clip-path="url(#126)"></g><g clip-path="url(#127)"></g><g clip-path="url(#128)"></g><g clip-path="url(#129)"></g><g clip-path="url(#130)"></g></g><path transform="matrix(1 0 0 -1 0 841)" d="M84.264 254.45L84.744 254.45L84.744 254.45L84.744 254.93L84.744 254.93L84.264 254.93z" stroke="none" fill="#000000" fill-rule="evenodd" /><path transform="matrix(1 0 0 -1 0 841)" d="M84.744 254.45L268.364 254.45L268.364 254.45L268.364 254.93L268.364 254.93L84.744 254.93z" stroke="none" fill="#000000" fill-rule="evenodd" /><path transform="matrix(1 0 0 -1 0 841)" d="M268.37 254.45L268.85 254.45L268.85 254.45L268.85 254.93L268.85 254.93L268.37 254.93z" stroke="none" fill="#000000" fill-rule="evenodd" /><path transform="matrix(1 0 0 -1 0 841)" d="M268.85 254.45L499.42 254.45L499.42 254.45L499.42 254.93L499.42 254.93L268.85 254.93z" stroke="none" fill="#000000" fill-rule="evenodd" /><path transform="matrix(1 0 0 -1 0 841)" d="M499.42 254.45L499.9 254.45L499.9 254.45L499.9 254.93L499.9 254.93L499.42 254.93z" stroke="none" fill="#000000" fill-rule="evenodd" /><path transform="matrix(1 0 0 -1 0 841)" d="M84.264 190.37L84.744 190.37L84.744 190.37L84.744 254.45L84.744 254.45L84.264 254.45z" stroke="none" fill="#000000" fill-rule="evenodd" /><path transform="matrix(1 0 0 -1 0 841)" d="M84.264 189.89L84.744 189.89L84.744 189.89L84.744 190.37L84.744 190.37L84.264 190.37z" stroke="none" fill="#000000" fill-rule="evenodd" /><path transform="matrix(1 0 0 -1 0 841)" d="M84.264 189.89L84.744 189.89L84.744 189.89L84.744 190.37L84.744 190.37L84.264 190.37z" stroke="none" fill="#000000" fill-rule="evenodd" /><path transform="matrix(1 0 0 -1 0 841)" d="M84.744 189.89L268.364 189.89L268.364 189.89L268.364 190.37L268.364 190.37L84.744 190.37z" stroke="none" fill="#000000" fill-rule="evenodd" /><path transform="matrix(1 0 0 -1 0 841)" d="M268.37 190.37L268.85 190.37L268.85 190.37L268.85 254.45L268.85 254.45L268.37 254.45z" stroke="none" fill="#000000" fill-rule="evenodd" /><path transform="matrix(1 0 0 -1 0 841)" d="M268.37 189.89L268.85 189.89L268.85 189.89L268.85 190.37L268.85 190.37L268.37 190.37z" stroke="none" fill="#000000" fill-rule="evenodd" /><path transform="matrix(1 0 0 -1 0 841)" d="M268.85 189.89L499.42 189.89L499.42 189.89L499.42 190.37L499.42 190.37L268.85 190.37z" stroke="none" fill="#000000" fill-rule="evenodd" /><path transform="matrix(1 0 0 -1 0 841)" d="M499.42 190.37L499.9 190.37L499.9 190.37L499.9 254.45L499.9 254.45L499.42 254.45z" stroke="none" fill="#000000" fill-rule="evenodd" /><path transform="matrix(1 0 0 -1 0 841)" d="M499.42 189.89L499.9 189.89L499.9 189.89L499.9 190.37L499.9 190.37L499.42 190.37z" stroke="none" fill="#000000" fill-rule="evenodd" /><path transform="matrix(1 0 0 -1 0 841)" d="M499.42 189.89L499.9 189.89L499.9 189.89L499.9 190.37L499.9 190.37L499.42 190.37z" stroke="none" fill="#000000" fill-rule="evenodd" /></g></g></g></svg>