<svg xmlns="http://www.w3.org/2000/svg" xmlns:xlink="http://www.w3.org/1999/xlink" id="body_163" preserveAspectRatio="xMinYMin meet" viewBox="0 0 793 1121"><defs><clipPath id="1"><path d="M0 841L0 -0.9199829L0 -0.9199829L595.32 -0.9199829L595.32 -0.9199829L595.32 841L595.32 841L0 841z" /></clipPath><clipPath id="2"><path d="M0.00125 841.0914L595.4112 841.0914L595.4112 841.0914L595.4112 -0.9186401L595.4112 -0.9186401L0.00125 -0.9186401z" /></clipPath><clipPath id="3"><path d="M288.05 781.211L316.01 781.211L316.01 781.211L316.01 762.011L316.01 762.011L288.05 762.011z" /></clipPath><clipPath id="4"><path d="M288.05 781.216L316.01 781.216L316.01 781.216L316.01 762.016L316.01 762.016L288.05 762.016z" /></clipPath><clipPath id="5"><path d="M288.05 781.216L316.01 781.216L316.01 781.216L316.01 762.016L316.01 762.016L288.05 762.016z" /></clipPath><clipPath id="6"><path d="M84.751 110.23L510.691 110.23L510.691 110.23L510.691 89.44L510.691 89.44L84.751 89.44z" /></clipPath><clipPath id="7"><path d="M84.744 110.22L510.694 110.22L510.694 110.22L510.694 89.43597L510.694 89.43597L84.744 89.43597z" /></clipPath><clipPath id="8"><path d="M84.744 110.22L510.694 110.22L510.694 110.22L510.694 89.43597L510.694 89.43597L84.744 89.43597z" /></clipPath><clipPath id="9"><path d="M84.744 110.22L510.694 110.22L510.694 110.22L510.694 89.43597L510.694 89.43597L84.744 89.43597z" /></clipPath><clipPath id="10"><path d="M84.744 110.22L510.694 110.22L510.694 110.22L510.694 89.43597L510.694 89.43597L84.744 89.43597z" /></clipPath><clipPath id="11"><path d="M84.744 110.22L510.694 110.22L510.694 110.22L510.694 89.43597L510.694 89.43597L84.744 89.43597z" /></clipPath><clipPath id="12"><path d="M84.744 110.22L510.694 110.22L510.694 110.22L510.694 89.43597L510.694 89.43597L84.744 89.43597z" /></clipPath><clipPath id="13"><path d="M84.751 186.91L510.691 186.91L510.691 186.91L510.691 110.71L510.691 110.71L84.751 110.71z" /></clipPath><clipPath id="14"><path d="M84.744 186.9L510.694 186.9L510.694 186.9L510.694 110.7L510.694 110.7L84.744 110.7z" /></clipPath><clipPath id="15"><path d="M84.744 186.9L510.694 186.9L510.694 186.9L510.694 110.7L510.694 110.7L84.744 110.7z" /></clipPath><clipPath id="16"><path d="M84.744 186.9L510.694 186.9L510.694 186.9L510.694 110.7L510.694 110.7L84.744 110.7z" /></clipPath><clipPath id="17"><path d="M84.744 186.9L510.694 186.9L510.694 186.9L510.694 110.7L510.694 110.7L84.744 110.7z" /></clipPath><clipPath id="18"><path d="M84.744 186.9L510.694 186.9L510.694 186.9L510.694 110.7L510.694 110.7L84.744 110.7z" /></clipPath><clipPath id="19"><path d="M84.744 186.9L510.694 186.9L510.694 186.9L510.694 110.7L510.694 110.7L84.744 110.7z" /></clipPath><clipPath id="20"><path d="M84.744 186.9L510.694 186.9L510.694 186.9L510.694 110.7L510.694 110.7L84.744 110.7z" /></clipPath><clipPath id="21"><path d="M84.744 186.9L510.694 186.9L510.694 186.9L510.694 110.7L510.694 110.7L84.744 110.7z" /></clipPath></defs><g transform="matrix(1.333333 0 0 1.333333 0 0)"><g><g clip-path="url(#1)"><path transform="matrix(1 0 0 -1 0 841)" d="M457.51 53.304L505.534 53.304L505.534 53.304L505.534 53.90404L505.534 53.90404L457.51 53.90404z" stroke="none" fill="#000000" fill-rule="evenodd" /><g clip-path="url(#2)"><path transform="matrix(1 0 0 -1 0 841)" d="M88.464 77.904L506.974 77.904L506.974 77.904L506.974 80.904L506.974 80.904L88.464 80.904z" stroke="none" fill="#000000" fill-rule="evenodd" /><path transform="matrix(1 0 0 -1 0 841)" d="M88.464 76.464L506.974 76.464L506.974 76.464L506.974 77.18397L506.974 77.18397L88.464 77.18397z" stroke="none" fill="#000000" fill-rule="evenodd" /></g><g clip-path="url(#3)"><g clip-path="url(#4)"></g><g clip-path="url(#5)"></g></g><path transform="matrix(1 0 0 -1 0 841)" d="M84.744 730.78L510.694 730.78L510.694 730.78L510.694 751.564L510.694 751.564L84.744 751.564z" stroke="none" fill="#0070C0" fill-rule="evenodd" /><g clip-path="url(#6)"><path transform="matrix(1 0 0 -1 0 841)" d="M89.904 732.46L505.534 732.46L505.534 732.46L505.534 751.564L505.534 751.564L89.904 751.564z" stroke="none" fill="#0070C0" fill-rule="evenodd" /><g clip-path="url(#7)"></g><g clip-path="url(#8)"></g><g clip-path="url(#9)"></g><g clip-path="url(#10)"></g><g clip-path="url(#11)"></g><g clip-path="url(#12)"></g></g><path transform="matrix(1 0 0 -1 0 841)" d="M84.264 751.56L84.744 751.56L84.744 751.56L84.744 752.04L84.744 752.04L84.264 752.04z" stroke="none" fill="#000000" fill-rule="evenodd" /><path transform="matrix(1 0 0 -1 0 841)" d="M84.264 751.56L84.744 751.56L84.744 751.56L84.744 752.04L84.744 752.04L84.264 752.04z" stroke="none" fill="#000000" fill-rule="evenodd" /><path transform="matrix(1 0 0 -1 0 841)" d="M84.744 751.56L510.694 751.56L510.694 751.56L510.694 752.04L510.694 752.04L84.744 752.04z" stroke="none" fill="#000000" fill-rule="evenodd" /><path transform="matrix(1 0 0 -1 0 841)" d="M510.7 751.56L511.18 751.56L511.18 751.56L511.18 752.04L511.18 752.04L510.7 752.04z" stroke="none" fill="#000000" fill-rule="evenodd" /><path transform="matrix(1 0 0 -1 0 841)" d="M510.7 751.56L511.18 751.56L511.18 751.56L511.18 752.04L511.18 752.04L510.7 752.04z" stroke="none" fill="#000000" fill-rule="evenodd" /><path transform="matrix(1 0 0 -1 0 841)" d="M84.264 730.78L84.744 730.78L84.744 730.78L84.744 751.564L84.744 751.564L84.264 751.564z" stroke="none" fill="#000000" fill-rule="evenodd" /><path transform="matrix(1 0 0 -1 0 841)" d="M510.7 730.78L511.18 730.78L511.18 730.78L511.18 751.564L511.18 751.564L510.7 751.564z" stroke="none" fill="#000000" fill-rule="evenodd" /><path transform="matrix(1 0 0 -1 0 841)" d="M84.744 654.1L510.694 654.1L510.694 654.1L510.694 730.3L510.694 730.3L84.744 730.3z" stroke="none" fill="#DAEEF3" fill-rule="evenodd" /><g clip-path="url(#13)"><path transform="matrix(1 0 0 -1 0 841)" d="M89.904 711.22L505.534 711.22L505.534 711.22L505.534 730.3L505.534 730.3L89.904 730.3z" stroke="none" fill="#DAEEF3" fill-rule="evenodd" /><g clip-path="url(#14)"></g><g clip-path="url(#15)"></g><g clip-path="url(#16)"></g><path transform="matrix(1 0 0 -1 0 841)" d="M89.904 692.26L505.534 692.26L505.534 692.26L505.534 711.22L505.534 711.22L89.904 711.22z" stroke="none" fill="#DAEEF3" fill-rule="evenodd" /><g clip-path="url(#17)"></g><g clip-path="url(#18)"></g><path transform="matrix(1 0 0 -1 0 841)" d="M89.904 673.18L505.534 673.18L505.534 673.18L505.534 692.26L505.534 692.26L89.904 692.26z" stroke="none" fill="#DAEEF3" fill-rule="evenodd" /><g clip-path="url(#19)"></g><path transform="matrix(1 0 0 -1 0 841)" d="M89.904 654.1L505.534 654.1L505.534 654.1L505.534 673.18L505.534 673.18L89.904 673.18z" stroke="none" fill="#DAEEF3" fill-rule="evenodd" /><g clip-path="url(#20)"></g><g clip-path="url(#21)"></g></g><path transform="matrix(1 0 0 -1 0 841)" d="M84.264 730.3L84.744 730.3L84.744 730.3L84.744 730.78L84.744 730.78L84.264 730.78z" stroke="none" fill="#000000" fill-rule="evenodd" /><path transform="matrix(1 0 0 -1 0 841)" d="M84.744 730.3L510.694 730.3L510.694 730.3L510.694 730.78L510.694 730.78L84.744 730.78z" stroke="none" fill="#000000" fill-rule="evenodd" /><path transform="matrix(1 0 0 -1 0 841)" d="M510.7 730.3L511.18 730.3L511.18 730.3L511.18 730.78L511.18 730.78L510.7 730.78z" stroke="none" fill="#000000" fill-rule="evenodd" /><path transform="matrix(1 0 0 -1 0 841)" d="M84.264 654.1L84.744 654.1L84.744 654.1L84.744 730.3L84.744 730.3L84.264 730.3z" stroke="none" fill="#000000" fill-rule="evenodd" /><path transform="matrix(1 0 0 -1 0 841)" d="M84.264 653.62L84.744 653.62L84.744 653.62L84.744 654.1L84.744 654.1L84.264 654.1z" stroke="none" fill="#000000" fill-rule="evenodd" /><path transform="matrix(1 0 0 -1 0 841)" d="M84.264 653.62L84.744 653.62L84.744 653.62L84.744 654.1L84.744 654.1L84.264 654.1z" stroke="none" fill="#000000" fill-rule="evenodd" /><path transform="matrix(1 0 0 -1 0 841)" d="M84.744 653.62L510.694 653.62L510.694 653.62L510.694 654.1L510.694 654.1L84.744 654.1z" stroke="none" fill="#000000" fill-rule="evenodd" /><path transform="matrix(1 0 0 -1 0 841)" d="M510.7 654.1L511.18 654.1L511.18 654.1L511.18 730.3L511.18 730.3L510.7 730.3z" stroke="none" fill="#000000" fill-rule="evenodd" /><path transform="matrix(1 0 0 -1 0 841)" d="M510.7 653.62L511.18 653.62L511.18 653.62L511.18 654.1L511.18 654.1L510.7 654.1z" stroke="none" fill="#000000" fill-rule="evenodd" /><path transform="matrix(1 0 0 -1 0 841)" d="M510.7 653.62L511.18 653.62L511.18 653.62L511.18 654.1L511.18 654.1L510.7 654.1z" stroke="none" fill="#000000" fill-rule="evenodd" /><path transform="matrix(1 0 0 -1 0 841)" d="M134.18 579.7L270.76 579.7L270.76 579.7L270.76 580.54L270.76 580.54L134.18 580.54z" stroke="none" fill="#000000" fill-rule="evenodd" /><path transform="matrix(1 0 0 -1 0 841)" d="M279.89 579.7L410.95 579.7L410.95 579.7L410.95 580.54L410.95 580.54L279.89 580.54z" stroke="none" fill="#000000" fill-rule="evenodd" /></g></g></g></svg>