<svg xmlns="http://www.w3.org/2000/svg" xmlns:xlink="http://www.w3.org/1999/xlink" id="body_23" preserveAspectRatio="xMinYMin meet" viewBox="0 0 793 1121"><defs><clipPath id="1"><path d="M0 841L0 -0.9199829L0 -0.9199829L595.32 -0.9199829L595.32 -0.9199829L595.32 841L595.32 841L0 841z" /></clipPath><clipPath id="2"><path d="M0.00125 841.0914L595.4112 841.0914L595.4112 841.0914L595.4112 -0.9186401L595.4112 -0.9186401L0.00125 -0.9186401z" /></clipPath><clipPath id="3"><path d="M295.13 780.251L305.21 780.251L305.21 780.251L305.21 768.011L305.21 768.011L295.13 768.011z" /></clipPath><clipPath id="4"><path d="M295.13 780.256L305.21 780.256L305.21 780.256L305.21 768.016L305.21 768.016L295.13 768.016z" /></clipPath><clipPath id="5"><path d="M295.13 780.256L305.21 780.256L305.21 780.256L305.21 768.016L305.21 768.016L295.13 768.016z" /></clipPath><clipPath id="6"><path d="M84.751 360.93L181.231 360.93L181.231 360.93L181.231 315.09L181.231 315.09L84.751 315.09z" /></clipPath><clipPath id="7"><path d="M84.744 360.93L181.224 360.93L181.224 360.93L181.224 315.09L181.224 315.09L84.744 315.09z" /></clipPath><clipPath id="8"><path d="M84.744 360.93L181.224 360.93L181.224 360.93L181.224 315.09L181.224 315.09L84.744 315.09z" /></clipPath><clipPath id="9"><path d="M181.83 360.93L231.405 360.93L231.405 360.93L231.405 315.09L231.405 315.09L181.83 315.09z" /></clipPath><clipPath id="10"><path d="M181.82 360.93L231.404 360.93L231.404 360.93L231.404 315.09L231.404 315.09L181.82 315.09z" /></clipPath><clipPath id="11"><path d="M181.82 360.93L231.404 360.93L231.404 360.93L231.404 315.09L231.404 315.09L181.82 315.09z" /></clipPath><clipPath id="12"><path d="M232.01 360.93L274.49 360.93L274.49 360.93L274.49 315.09L274.49 315.09L232.01 315.09z" /></clipPath><clipPath id="13"><path d="M232.01 360.93L274.49 360.93L274.49 360.93L274.49 315.09L274.49 315.09L232.01 315.09z" /></clipPath><clipPath id="14"><path d="M232.01 360.93L274.49 360.93L274.49 360.93L274.49 315.09L274.49 315.09L232.01 315.09z" /></clipPath><clipPath id="15"><path d="M232.01 360.93L274.49 360.93L274.49 360.93L274.49 315.09L274.49 315.09L232.01 315.09z" /></clipPath><clipPath id="16"><path d="M274.97 360.93L331.13 360.93L331.13 360.93L331.13 315.09L331.13 315.09L274.97 315.09z" /></clipPath><clipPath id="17"><path d="M274.97 360.93L331.13 360.93L331.13 360.93L331.13 315.09L331.13 315.09L274.97 315.09z" /></clipPath><clipPath id="18"><path d="M274.97 360.93L331.13 360.93L331.13 360.93L331.13 315.09L331.13 315.09L274.97 315.09z" /></clipPath><clipPath id="19"><path d="M274.97 360.93L331.13 360.93L331.13 360.93L331.13 315.09L331.13 315.09L274.97 315.09z" /></clipPath><clipPath id="20"><path d="M331.61 360.93L510.7 360.93L510.7 360.93L510.7 315.09L510.7 315.09L331.61 315.09z" /></clipPath><clipPath id="21"><path d="M331.61 360.93L510.7 360.93L510.7 360.93L510.7 315.09L510.7 315.09L331.61 315.09z" /></clipPath><clipPath id="22"><path d="M331.61 360.93L510.7 360.93L510.7 360.93L510.7 315.09L510.7 315.09L331.61 315.09z" /></clipPath><clipPath id="23"><path d="M84.751 562.8L181.231 562.8L181.231 562.8L181.231 361.41L181.231 361.41L84.751 361.41z" /></clipPath><clipPath id="24"><path d="M84.744 562.79L181.224 562.79L181.224 562.79L181.224 361.41L181.224 361.41L84.744 361.41z" /></clipPath><clipPath id="25"><path d="M84.744 562.79L181.224 562.79L181.224 562.79L181.224 361.41L181.224 361.41L84.744 361.41z" /></clipPath><clipPath id="26"><path d="M181.83 562.8L231.405 562.8L231.405 562.8L231.405 361.41L231.405 361.41L181.83 361.41z" /></clipPath><clipPath id="27"><path d="M181.82 562.79L231.404 562.79L231.404 562.79L231.404 361.41L231.404 361.41L181.82 361.41z" /></clipPath><clipPath id="28"><path d="M181.82 562.79L231.404 562.79L231.404 562.79L231.404 361.41L231.404 361.41L181.82 361.41z" /></clipPath><clipPath id="29"><path d="M232.01 562.8L274.49 562.8L274.49 562.8L274.49 361.41L274.49 361.41L232.01 361.41z" /></clipPath><clipPath id="30"><path d="M232.01 562.79L274.49 562.79L274.49 562.79L274.49 361.41L274.49 361.41L232.01 361.41z" /></clipPath><clipPath id="31"><path d="M232.01 562.79L274.49 562.79L274.49 562.79L274.49 361.41L274.49 361.41L232.01 361.41z" /></clipPath><clipPath id="32"><path d="M274.97 562.8L331.13 562.8L331.13 562.8L331.13 361.41L331.13 361.41L274.97 361.41z" /></clipPath><clipPath id="33"><path d="M274.97 562.79L331.13 562.79L331.13 562.79L331.13 361.41L331.13 361.41L274.97 361.41z" /></clipPath><clipPath id="34"><path d="M274.97 562.79L331.13 562.79L331.13 562.79L331.13 361.41L331.13 361.41L274.97 361.41z" /></clipPath><clipPath id="35"><path d="M331.61 562.8L510.7 562.8L510.7 562.8L510.7 361.41L510.7 361.41L331.61 361.41z" /></clipPath><clipPath id="36"><path d="M331.61 562.79L510.7 562.79L510.7 562.79L510.7 361.41L510.7 361.41L331.61 361.41z" /></clipPath><clipPath id="37"><path d="M331.61 562.79L510.7 562.79L510.7 562.79L510.7 361.41L510.7 361.41L331.61 361.41z" /></clipPath><clipPath id="38"><path d="M331.61 562.79L510.7 562.79L510.7 562.79L510.7 361.41L510.7 361.41L331.61 361.41z" /></clipPath><clipPath id="39"><path d="M331.61 562.79L510.7 562.79L510.7 562.79L510.7 361.41L510.7 361.41L331.61 361.41z" /></clipPath><clipPath id="40"><path d="M331.61 562.79L510.7 562.79L510.7 562.79L510.7 361.41L510.7 361.41L331.61 361.41z" /></clipPath><clipPath id="41"><path d="M331.61 562.79L510.7 562.79L510.7 562.79L510.7 361.41L510.7 361.41L331.61 361.41z" /></clipPath><clipPath id="42"><path d="M331.61 562.79L510.7 562.79L510.7 562.79L510.7 361.41L510.7 361.41L331.61 361.41z" /></clipPath><clipPath id="43"><path d="M331.61 562.79L510.7 562.79L510.7 562.79L510.7 361.41L510.7 361.41L331.61 361.41z" /></clipPath><clipPath id="44"><path d="M331.61 562.79L510.7 562.79L510.7 562.79L510.7 361.41L510.7 361.41L331.61 361.41z" /></clipPath><clipPath id="45"><path d="M331.61 562.79L510.7 562.79L510.7 562.79L510.7 361.41L510.7 361.41L331.61 361.41z" /></clipPath><clipPath id="46"><path d="M331.61 562.79L510.7 562.79L510.7 562.79L510.7 361.41L510.7 361.41L331.61 361.41z" /></clipPath><clipPath id="47"><path d="M331.61 562.79L510.7 562.79L510.7 562.79L510.7 361.41L510.7 361.41L331.61 361.41z" /></clipPath><clipPath id="48"><path d="M331.61 562.79L510.7 562.79L510.7 562.79L510.7 361.41L510.7 361.41L331.61 361.41z" /></clipPath><clipPath id="49"><path d="M331.61 562.79L510.7 562.79L510.7 562.79L510.7 361.41L510.7 361.41L331.61 361.41z" /></clipPath><clipPath id="50"><path d="M331.61 562.79L510.7 562.79L510.7 562.79L510.7 361.41L510.7 361.41L331.61 361.41z" /></clipPath><clipPath id="51"><path d="M331.61 562.79L510.7 562.79L510.7 562.79L510.7 361.41L510.7 361.41L331.61 361.41z" /></clipPath><clipPath id="52"><path d="M331.61 562.79L510.7 562.79L510.7 562.79L510.7 361.41L510.7 361.41L331.61 361.41z" /></clipPath><clipPath id="53"><path d="M331.61 562.79L510.7 562.79L510.7 562.79L510.7 361.41L510.7 361.41L331.61 361.41z" /></clipPath><clipPath id="54"><path d="M331.61 562.79L510.7 562.79L510.7 562.79L510.7 361.41L510.7 361.41L331.61 361.41z" /></clipPath><clipPath id="55"><path d="M331.61 562.79L510.7 562.79L510.7 562.79L510.7 361.41L510.7 361.41L331.61 361.41z" /></clipPath><clipPath id="56"><path d="M331.61 562.79L510.7 562.79L510.7 562.79L510.7 361.41L510.7 361.41L331.61 361.41z" /></clipPath><clipPath id="57"><path d="M331.61 562.79L510.7 562.79L510.7 562.79L510.7 361.41L510.7 361.41L331.61 361.41z" /></clipPath><clipPath id="58"><path d="M331.61 562.79L510.7 562.79L510.7 562.79L510.7 361.41L510.7 361.41L331.61 361.41z" /></clipPath><clipPath id="59"><path d="M331.61 562.79L510.7 562.79L510.7 562.79L510.7 361.41L510.7 361.41L331.61 361.41z" /></clipPath><clipPath id="60"><path d="M331.61 562.79L510.7 562.79L510.7 562.79L510.7 361.41L510.7 361.41L331.61 361.41z" /></clipPath><clipPath id="61"><path d="M331.61 562.79L510.7 562.79L510.7 562.79L510.7 361.41L510.7 361.41L331.61 361.41z" /></clipPath><clipPath id="62"><path d="M331.61 562.79L510.7 562.79L510.7 562.79L510.7 361.41L510.7 361.41L331.61 361.41z" /></clipPath><clipPath id="63"><path d="M331.61 562.79L510.7 562.79L510.7 562.79L510.7 361.41L510.7 361.41L331.61 361.41z" /></clipPath><clipPath id="64"><path d="M331.61 562.79L510.7 562.79L510.7 562.79L510.7 361.41L510.7 361.41L331.61 361.41z" /></clipPath><clipPath id="65"><path d="M331.61 562.79L510.7 562.79L510.7 562.79L510.7 361.41L510.7 361.41L331.61 361.41z" /></clipPath><clipPath id="66"><path d="M331.61 562.79L510.7 562.79L510.7 562.79L510.7 361.41L510.7 361.41L331.61 361.41z" /></clipPath><clipPath id="67"><path d="M331.61 562.79L510.7 562.79L510.7 562.79L510.7 361.41L510.7 361.41L331.61 361.41z" /></clipPath><clipPath id="68"><path d="M331.61 562.79L510.7 562.79L510.7 562.79L510.7 361.41L510.7 361.41L331.61 361.41z" /></clipPath><clipPath id="69"><path d="M331.61 562.79L510.7 562.79L510.7 562.79L510.7 361.41L510.7 361.41L331.61 361.41z" /></clipPath><clipPath id="70"><path d="M331.61 562.79L510.7 562.79L510.7 562.79L510.7 361.41L510.7 361.41L331.61 361.41z" /></clipPath><clipPath id="71"><path d="M331.61 562.79L510.7 562.79L510.7 562.79L510.7 361.41L510.7 361.41L331.61 361.41z" /></clipPath><clipPath id="72"><path d="M331.61 562.79L510.7 562.79L510.7 562.79L510.7 361.41L510.7 361.41L331.61 361.41z" /></clipPath><clipPath id="73"><path d="M84.751 609.12L181.231 609.12L181.231 609.12L181.231 563.4L181.231 563.4L84.751 563.4z" /></clipPath><clipPath id="74"><path d="M84.744 609.11L181.224 609.11L181.224 609.11L181.224 563.39L181.224 563.39L84.744 563.39z" /></clipPath><clipPath id="75"><path d="M84.744 609.11L181.224 609.11L181.224 609.11L181.224 563.39L181.224 563.39L84.744 563.39z" /></clipPath><clipPath id="76"><path d="M181.83 609.12L231.405 609.12L231.405 609.12L231.405 563.4L231.405 563.4L181.83 563.4z" /></clipPath><clipPath id="77"><path d="M181.82 609.11L231.404 609.11L231.404 609.11L231.404 563.39L231.404 563.39L181.82 563.39z" /></clipPath><clipPath id="78"><path d="M181.82 609.11L231.404 609.11L231.404 609.11L231.404 563.39L231.404 563.39L181.82 563.39z" /></clipPath><clipPath id="79"><path d="M232.01 609.12L274.49 609.12L274.49 609.12L274.49 563.4L274.49 563.4L232.01 563.4z" /></clipPath><clipPath id="80"><path d="M232.01 609.11L274.49 609.11L274.49 609.11L274.49 563.39L274.49 563.39L232.01 563.39z" /></clipPath><clipPath id="81"><path d="M232.01 609.11L274.49 609.11L274.49 609.11L274.49 563.39L274.49 563.39L232.01 563.39z" /></clipPath><clipPath id="82"><path d="M274.97 609.12L331.13 609.12L331.13 609.12L331.13 563.4L331.13 563.4L274.97 563.4z" /></clipPath><clipPath id="83"><path d="M274.97 609.11L331.13 609.11L331.13 609.11L331.13 563.39L331.13 563.39L274.97 563.39z" /></clipPath><clipPath id="84"><path d="M274.97 609.11L331.13 609.11L331.13 609.11L331.13 563.39L331.13 563.39L274.97 563.39z" /></clipPath><clipPath id="85"><path d="M331.61 609.12L510.7 609.12L510.7 609.12L510.7 563.4L510.7 563.4L331.61 563.4z" /></clipPath><clipPath id="86"><path d="M331.61 609.11L510.7 609.11L510.7 609.11L510.7 563.39L510.7 563.39L331.61 563.39z" /></clipPath><clipPath id="87"><path d="M331.61 609.11L510.7 609.11L510.7 609.11L510.7 563.39L510.7 563.39L331.61 563.39z" /></clipPath><clipPath id="88"><path d="M331.61 609.11L510.7 609.11L510.7 609.11L510.7 563.39L510.7 563.39L331.61 563.39z" /></clipPath><clipPath id="89"><path d="M331.61 609.11L510.7 609.11L510.7 609.11L510.7 563.39L510.7 563.39L331.61 563.39z" /></clipPath><clipPath id="90"><path d="M331.61 609.11L510.7 609.11L510.7 609.11L510.7 563.39L510.7 563.39L331.61 563.39z" /></clipPath><clipPath id="91"><path d="M331.61 609.11L510.7 609.11L510.7 609.11L510.7 563.39L510.7 563.39L331.61 563.39z" /></clipPath><clipPath id="92"><path d="M84.751 637.32L181.231 637.32L181.231 637.32L181.231 609.6L181.231 609.6L84.751 609.6z" /></clipPath><clipPath id="93"><path d="M84.744 637.31L181.224 637.31L181.224 637.31L181.224 609.59L181.224 609.59L84.744 609.59z" /></clipPath><clipPath id="94"><path d="M84.744 637.31L181.224 637.31L181.224 637.31L181.224 609.59L181.224 609.59L84.744 609.59z" /></clipPath><clipPath id="95"><path d="M181.83 637.32L231.405 637.32L231.405 637.32L231.405 609.6L231.405 609.6L181.83 609.6z" /></clipPath><clipPath id="96"><path d="M181.82 637.31L231.404 637.31L231.404 637.31L231.404 609.59L231.404 609.59L181.82 609.59z" /></clipPath><clipPath id="97"><path d="M181.82 637.31L231.404 637.31L231.404 637.31L231.404 609.59L231.404 609.59L181.82 609.59z" /></clipPath><clipPath id="98"><path d="M232.01 637.32L274.49 637.32L274.49 637.32L274.49 609.6L274.49 609.6L232.01 609.6z" /></clipPath><clipPath id="99"><path d="M232.01 637.31L274.49 637.31L274.49 637.31L274.49 609.59L274.49 609.59L232.01 609.59z" /></clipPath><clipPath id="100"><path d="M232.01 637.31L274.49 637.31L274.49 637.31L274.49 609.59L274.49 609.59L232.01 609.59z" /></clipPath><clipPath id="101"><path d="M274.97 637.32L331.13 637.32L331.13 637.32L331.13 609.6L331.13 609.6L274.97 609.6z" /></clipPath><clipPath id="102"><path d="M274.97 637.31L331.13 637.31L331.13 637.31L331.13 609.59L331.13 609.59L274.97 609.59z" /></clipPath><clipPath id="103"><path d="M331.61 637.32L510.7 637.32L510.7 637.32L510.7 609.6L510.7 609.6L331.61 609.6z" /></clipPath><clipPath id="104"><path d="M331.61 637.31L510.7 637.31L510.7 637.31L510.7 609.59L510.7 609.59L331.61 609.59z" /></clipPath><clipPath id="105"><path d="M331.61 637.31L510.7 637.31L510.7 637.31L510.7 609.59L510.7 609.59L331.61 609.59z" /></clipPath><clipPath id="106"><path d="M331.61 637.31L510.7 637.31L510.7 637.31L510.7 609.59L510.7 609.59L331.61 609.59z" /></clipPath><clipPath id="107"><path d="M84.751 665.53L181.231 665.53L181.231 665.53L181.231 637.795L181.231 637.795L84.751 637.795z" /></clipPath><clipPath id="108"><path d="M84.744 665.54L181.224 665.54L181.224 665.54L181.224 637.796L181.224 637.796L84.744 637.796z" /></clipPath><clipPath id="109"><path d="M84.744 665.54L181.224 665.54L181.224 665.54L181.224 637.796L181.224 637.796L84.744 637.796z" /></clipPath><clipPath id="110"><path d="M181.83 665.53L231.405 665.53L231.405 665.53L231.405 637.795L231.405 637.795L181.83 637.795z" /></clipPath><clipPath id="111"><path d="M181.82 665.54L231.404 665.54L231.404 665.54L231.404 637.796L231.404 637.796L181.82 637.796z" /></clipPath><clipPath id="112"><path d="M181.82 665.54L231.404 665.54L231.404 665.54L231.404 637.796L231.404 637.796L181.82 637.796z" /></clipPath><clipPath id="113"><path d="M232.01 665.53L274.49 665.53L274.49 665.53L274.49 637.795L274.49 637.795L232.01 637.795z" /></clipPath><clipPath id="114"><path d="M232.01 665.54L274.49 665.54L274.49 665.54L274.49 637.796L274.49 637.796L232.01 637.796z" /></clipPath><clipPath id="115"><path d="M232.01 665.54L274.49 665.54L274.49 665.54L274.49 637.796L274.49 637.796L232.01 637.796z" /></clipPath><clipPath id="116"><path d="M274.97 665.53L331.13 665.53L331.13 665.53L331.13 637.795L331.13 637.795L274.97 637.795z" /></clipPath><clipPath id="117"><path d="M274.97 665.54L331.13 665.54L331.13 665.54L331.13 637.796L331.13 637.796L274.97 637.796z" /></clipPath><clipPath id="118"><path d="M274.97 665.54L331.13 665.54L331.13 665.54L331.13 637.796L331.13 637.796L274.97 637.796z" /></clipPath><clipPath id="119"><path d="M331.61 665.53L510.7 665.53L510.7 665.53L510.7 637.795L510.7 637.795L331.61 637.795z" /></clipPath><clipPath id="120"><path d="M331.61 665.54L510.7 665.54L510.7 665.54L510.7 637.796L510.7 637.796L331.61 637.796z" /></clipPath><clipPath id="121"><path d="M331.61 665.54L510.7 665.54L510.7 665.54L510.7 637.796L510.7 637.796L331.61 637.796z" /></clipPath><clipPath id="122"><path d="M84.751 725.65L181.231 725.65L181.231 725.65L181.231 666.01L181.231 666.01L84.751 666.01z" /></clipPath><clipPath id="123"><path d="M84.744 725.66L181.224 725.66L181.224 725.66L181.224 666.02L181.224 666.02L84.744 666.02z" /></clipPath><clipPath id="124"><path d="M84.744 725.66L181.224 725.66L181.224 725.66L181.224 666.02L181.224 666.02L84.744 666.02z" /></clipPath><clipPath id="125"><path d="M181.83 725.65L231.405 725.65L231.405 725.65L231.405 666.01L231.405 666.01L181.83 666.01z" /></clipPath><clipPath id="126"><path d="M181.82 725.66L231.404 725.66L231.404 725.66L231.404 666.02L231.404 666.02L181.82 666.02z" /></clipPath><clipPath id="127"><path d="M181.82 725.66L231.404 725.66L231.404 725.66L231.404 666.02L231.404 666.02L181.82 666.02z" /></clipPath><clipPath id="128"><path d="M232.01 725.65L274.49 725.65L274.49 725.65L274.49 666.01L274.49 666.01L232.01 666.01z" /></clipPath><clipPath id="129"><path d="M232.01 725.66L274.49 725.66L274.49 725.66L274.49 666.02L274.49 666.02L232.01 666.02z" /></clipPath><clipPath id="130"><path d="M232.01 725.66L274.49 725.66L274.49 725.66L274.49 666.02L274.49 666.02L232.01 666.02z" /></clipPath><clipPath id="131"><path d="M274.97 725.65L331.13 725.65L331.13 725.65L331.13 666.01L331.13 666.01L274.97 666.01z" /></clipPath><clipPath id="132"><path d="M274.97 725.66L331.13 725.66L331.13 725.66L331.13 666.02L331.13 666.02L274.97 666.02z" /></clipPath><clipPath id="133"><path d="M331.61 725.65L510.7 725.65L510.7 725.65L510.7 666.01L510.7 666.01L331.61 666.01z" /></clipPath><clipPath id="134"><path d="M331.61 725.66L510.7 725.66L510.7 725.66L510.7 666.02L510.7 666.02L331.61 666.02z" /></clipPath><clipPath id="135"><path d="M331.61 725.66L510.7 725.66L510.7 725.66L510.7 666.02L510.7 666.02L331.61 666.02z" /></clipPath><clipPath id="136"><path d="M331.61 725.66L510.7 725.66L510.7 725.66L510.7 666.02L510.7 666.02L331.61 666.02z" /></clipPath><clipPath id="137"><path d="M331.61 725.66L510.7 725.66L510.7 725.66L510.7 666.02L510.7 666.02L331.61 666.02z" /></clipPath><clipPath id="138"><path d="M331.61 725.66L510.7 725.66L510.7 725.66L510.7 666.02L510.7 666.02L331.61 666.02z" /></clipPath><clipPath id="139"><path d="M331.61 725.66L510.7 725.66L510.7 725.66L510.7 666.02L510.7 666.02L331.61 666.02z" /></clipPath><clipPath id="140"><path d="M331.61 725.66L510.7 725.66L510.7 725.66L510.7 666.02L510.7 666.02L331.61 666.02z" /></clipPath></defs><g transform="matrix(1.333333 0 0 1.333333 0 0)"><g><g clip-path="url(#1)"><path transform="matrix(1 0 0 -1 0 841)" d="M457.63 53.424L505.534 53.424L505.534 53.424L505.534 54.02404L505.534 54.02404L457.63 54.02404z" stroke="none" fill="#000000" fill-rule="evenodd" /><g clip-path="url(#2)"><path transform="matrix(1 0 0 -1 0 841)" d="M88.464 78.984L506.974 78.984L506.974 78.984L506.974 81.984L506.974 81.984L88.464 81.984z" stroke="none" fill="#000000" fill-rule="evenodd" /><path transform="matrix(1 0 0 -1 0 841)" d="M88.464 77.544L506.974 77.544L506.974 77.544L506.974 78.26397L506.974 78.26397L88.464 78.26397z" stroke="none" fill="#000000" fill-rule="evenodd" /></g><g clip-path="url(#3)"><g clip-path="url(#4)"></g><g clip-path="url(#5)"></g></g><path transform="matrix(1 0 0 -1 0 841)" d="M84.744 480.07L181.224 480.07L181.224 480.07L181.224 525.91L181.224 525.91L84.744 525.91z" stroke="none" fill="#0070C0" fill-rule="evenodd" /><g clip-path="url(#6)"><path transform="matrix(1 0 0 -1 0 841)" d="M89.904 498.19L176.184 498.19L176.184 498.19L176.184 525.91L176.184 525.91L89.904 525.91z" stroke="none" fill="#0070C0" fill-rule="evenodd" /><g clip-path="url(#7)"></g><g clip-path="url(#8)"></g></g><path transform="matrix(1 0 0 -1 0 841)" d="M181.82 480.07L231.404 480.07L231.404 480.07L231.404 525.91L231.404 525.91L181.82 525.91z" stroke="none" fill="#0070C0" fill-rule="evenodd" /><g clip-path="url(#9)"><path transform="matrix(1 0 0 -1 0 841)" d="M186.86 498.19L226.244 498.19L226.244 498.19L226.244 525.91L226.244 525.91L186.86 525.91z" stroke="none" fill="#0070C0" fill-rule="evenodd" /><g clip-path="url(#10)"></g><g clip-path="url(#11)"></g></g><path transform="matrix(1 0 0 -1 0 841)" d="M232.01 480.07L274.49 480.07L274.49 480.07L274.49 525.91L274.49 525.91L232.01 525.91z" stroke="none" fill="#0070C0" fill-rule="evenodd" /><g clip-path="url(#12)"><path transform="matrix(1 0 0 -1 0 841)" d="M237.05 502.99L269.33 502.99L269.33 502.99L269.33 525.91L269.33 525.91L237.05 525.91z" stroke="none" fill="#0070C0" fill-rule="evenodd" /><g clip-path="url(#13)"></g><path transform="matrix(1 0 0 -1 0 841)" d="M237.05 480.07L269.33 480.07L269.33 480.07L269.33 502.99L269.33 502.99L237.05 502.99z" stroke="none" fill="#0070C0" fill-rule="evenodd" /><g clip-path="url(#14)"></g><g clip-path="url(#15)"></g></g><path transform="matrix(1 0 0 -1 0 841)" d="M274.97 480.07L331.13 480.07L331.13 480.07L331.13 525.91L331.13 525.91L274.97 525.91z" stroke="none" fill="#0070C0" fill-rule="evenodd" /><g clip-path="url(#16)"><path transform="matrix(1 0 0 -1 0 841)" d="M280.13 502.99L325.97 502.99L325.97 502.99L325.97 525.91L325.97 525.91L280.13 525.91z" stroke="none" fill="#0070C0" fill-rule="evenodd" /><g clip-path="url(#17)"></g><path transform="matrix(1 0 0 -1 0 841)" d="M280.13 480.07L325.97 480.07L325.97 480.07L325.97 502.99L325.97 502.99L280.13 502.99z" stroke="none" fill="#0070C0" fill-rule="evenodd" /><g clip-path="url(#18)"></g><g clip-path="url(#19)"></g></g><path transform="matrix(1 0 0 -1 0 841)" d="M331.61 480.07L510.7 480.07L510.7 480.07L510.7 525.91L510.7 525.91L331.61 525.91z" stroke="none" fill="#0070C0" fill-rule="evenodd" /><g clip-path="url(#20)"><path transform="matrix(1 0 0 -1 0 841)" d="M336.79 498.19L505.53 498.19L505.53 498.19L505.53 525.91L505.53 525.91L336.79 525.91z" stroke="none" fill="#0070C0" fill-rule="evenodd" /><g clip-path="url(#21)"></g><g clip-path="url(#22)"></g></g><path transform="matrix(1 0 0 -1 0 841)" d="M84.264 525.91L84.744 525.91L84.744 525.91L84.744 526.39L84.744 526.39L84.264 526.39z" stroke="none" fill="#000000" fill-rule="evenodd" /><path transform="matrix(1 0 0 -1 0 841)" d="M84.264 525.91L84.744 525.91L84.744 525.91L84.744 526.39L84.744 526.39L84.264 526.39z" stroke="none" fill="#000000" fill-rule="evenodd" /><path transform="matrix(1 0 0 -1 0 841)" d="M84.744 525.91L181.344 525.91L181.344 525.91L181.344 526.39L181.344 526.39L84.744 526.39z" stroke="none" fill="#000000" fill-rule="evenodd" /><path transform="matrix(1 0 0 -1 0 841)" d="M181.34 525.91L181.82 525.91L181.82 525.91L181.82 526.39L181.82 526.39L181.34 526.39z" stroke="none" fill="#000000" fill-rule="evenodd" /><path transform="matrix(1 0 0 -1 0 841)" d="M181.82 525.91L231.524 525.91L231.524 525.91L231.524 526.39L231.524 526.39L181.82 526.39z" stroke="none" fill="#000000" fill-rule="evenodd" /><path transform="matrix(1 0 0 -1 0 841)" d="M231.53 525.91L232.01 525.91L232.01 525.91L232.01 526.39L232.01 526.39L231.53 526.39z" stroke="none" fill="#000000" fill-rule="evenodd" /><path transform="matrix(1 0 0 -1 0 841)" d="M232.01 525.91L274.49 525.91L274.49 525.91L274.49 526.39L274.49 526.39L232.01 526.39z" stroke="none" fill="#000000" fill-rule="evenodd" /><path transform="matrix(1 0 0 -1 0 841)" d="M274.49 525.91L274.97 525.91L274.97 525.91L274.97 526.39L274.97 526.39L274.49 526.39z" stroke="none" fill="#000000" fill-rule="evenodd" /><path transform="matrix(1 0 0 -1 0 841)" d="M274.97 525.91L331.25 525.91L331.25 525.91L331.25 526.39L331.25 526.39L274.97 526.39z" stroke="none" fill="#000000" fill-rule="evenodd" /><path transform="matrix(1 0 0 -1 0 841)" d="M331.25 525.91L331.73 525.91L331.73 525.91L331.73 526.39L331.73 526.39L331.25 526.39z" stroke="none" fill="#000000" fill-rule="evenodd" /><path transform="matrix(1 0 0 -1 0 841)" d="M331.73 525.91L510.7 525.91L510.7 525.91L510.7 526.39L510.7 526.39L331.73 526.39z" stroke="none" fill="#000000" fill-rule="evenodd" /><path transform="matrix(1 0 0 -1 0 841)" d="M510.7 525.91L511.18 525.91L511.18 525.91L511.18 526.39L511.18 526.39L510.7 526.39z" stroke="none" fill="#000000" fill-rule="evenodd" /><path transform="matrix(1 0 0 -1 0 841)" d="M510.7 525.91L511.18 525.91L511.18 525.91L511.18 526.39L511.18 526.39L510.7 526.39z" stroke="none" fill="#000000" fill-rule="evenodd" /><path transform="matrix(1 0 0 -1 0 841)" d="M84.264 480.07L84.744 480.07L84.744 480.07L84.744 525.91L84.744 525.91L84.264 525.91z" stroke="none" fill="#000000" fill-rule="evenodd" /><path transform="matrix(1 0 0 -1 0 841)" d="M181.34 480.07L181.82 480.07L181.82 480.07L181.82 525.91L181.82 525.91L181.34 525.91z" stroke="none" fill="#000000" fill-rule="evenodd" /><path transform="matrix(1 0 0 -1 0 841)" d="M231.53 480.07L232.01 480.07L232.01 480.07L232.01 525.91L232.01 525.91L231.53 525.91z" stroke="none" fill="#000000" fill-rule="evenodd" /><path transform="matrix(1 0 0 -1 0 841)" d="M274.49 480.07L274.97 480.07L274.97 480.07L274.97 525.91L274.97 525.91L274.49 525.91z" stroke="none" fill="#000000" fill-rule="evenodd" /><path transform="matrix(1 0 0 -1 0 841)" d="M331.25 480.07L331.73 480.07L331.73 480.07L331.73 525.91L331.73 525.91L331.25 525.91z" stroke="none" fill="#000000" fill-rule="evenodd" /><path transform="matrix(1 0 0 -1 0 841)" d="M510.7 480.07L511.18 480.07L511.18 480.07L511.18 525.91L511.18 525.91L510.7 525.91z" stroke="none" fill="#000000" fill-rule="evenodd" /><path transform="matrix(1 0 0 -1 0 841)" d="M84.744 278.21L181.224 278.21L181.224 278.21L181.224 479.59L181.224 479.59L84.744 479.59z" stroke="none" fill="#DAEEF3" fill-rule="evenodd" /><g clip-path="url(#23)"><path transform="matrix(1 0 0 -1 0 841)" d="M89.904 452.95L176.184 452.95L176.184 452.95L176.184 479.59L176.184 479.59L89.904 479.59z" stroke="none" fill="#DAEEF3" fill-rule="evenodd" /><g clip-path="url(#24)"></g><g clip-path="url(#25)"></g></g><path transform="matrix(1 0 0 -1 0 841)" d="M181.82 278.21L231.404 278.21L231.404 278.21L231.404 479.59L231.404 479.59L181.82 479.59z" stroke="none" fill="#DAEEF3" fill-rule="evenodd" /><g clip-path="url(#26)"><path transform="matrix(1 0 0 -1 0 841)" d="M186.86 452.95L226.244 452.95L226.244 452.95L226.244 479.59L226.244 479.59L186.86 479.59z" stroke="none" fill="#DAEEF3" fill-rule="evenodd" /><g clip-path="url(#27)"></g><g clip-path="url(#28)"></g></g><path transform="matrix(1 0 0 -1 0 841)" d="M232.01 278.21L274.49 278.21L274.49 278.21L274.49 479.59L274.49 479.59L232.01 479.59z" stroke="none" fill="#DAEEF3" fill-rule="evenodd" /><g clip-path="url(#29)"><path transform="matrix(1 0 0 -1 0 841)" d="M237.05 451.99L269.33 451.99L269.33 451.99L269.33 479.59L269.33 479.59L237.05 479.59z" stroke="none" fill="#DAEEF3" fill-rule="evenodd" /><g clip-path="url(#30)"></g><g clip-path="url(#31)"></g></g><path transform="matrix(1 0 0 -1 0 841)" d="M274.97 278.21L331.13 278.21L331.13 278.21L331.13 479.59L331.13 479.59L274.97 479.59z" stroke="none" fill="#DAEEF3" fill-rule="evenodd" /><g clip-path="url(#32)"><path transform="matrix(1 0 0 -1 0 841)" d="M280.13 452.95L325.97 452.95L325.97 452.95L325.97 479.59L325.97 479.59L280.13 479.59z" stroke="none" fill="#DAEEF3" fill-rule="evenodd" /><g clip-path="url(#33)"></g><g clip-path="url(#34)"></g></g><path transform="matrix(1 0 0 -1 0 841)" d="M331.61 278.21L510.7 278.21L510.7 278.21L510.7 479.59L510.7 479.59L331.61 479.59z" stroke="none" fill="#DAEEF3" fill-rule="evenodd" /><g clip-path="url(#35)"><path transform="matrix(1 0 0 -1 0 841)" d="M336.79 451.99L505.53 451.99L505.53 451.99L505.53 479.59L505.53 479.59L336.79 479.59z" stroke="none" fill="#DAEEF3" fill-rule="evenodd" /><g clip-path="url(#36)"></g><g clip-path="url(#37)"></g><path transform="matrix(1 0 0 -1 0 841)" d="M336.79 429.07L505.53 429.07L505.53 429.07L505.53 451.99L505.53 451.99L336.79 451.99z" stroke="none" fill="#DAEEF3" fill-rule="evenodd" /><g clip-path="url(#38)"></g><g clip-path="url(#39)"></g><g clip-path="url(#40)"></g><g clip-path="url(#41)"></g><g clip-path="url(#42)"></g><path transform="matrix(1 0 0 -1 0 841)" d="M336.79 406.15L505.53 406.15L505.53 406.15L505.53 429.07L505.53 429.07L336.79 429.07z" stroke="none" fill="#DAEEF3" fill-rule="evenodd" /><g clip-path="url(#43)"></g><g clip-path="url(#44)"></g><g clip-path="url(#45)"></g><g clip-path="url(#46)"></g><g clip-path="url(#47)"></g><path transform="matrix(1 0 0 -1 0 841)" d="M336.79 383.23L505.53 383.23L505.53 383.23L505.53 406.15L505.53 406.15L336.79 406.15z" stroke="none" fill="#DAEEF3" fill-rule="evenodd" /><g clip-path="url(#48)"></g><g clip-path="url(#49)"></g><g clip-path="url(#50)"></g><g clip-path="url(#51)"></g><g clip-path="url(#52)"></g><g clip-path="url(#53)"></g><path transform="matrix(1 0 0 -1 0 841)" d="M336.79 365.09L505.53 365.09L505.53 365.09L505.53 383.234L505.53 383.234L336.79 383.234z" stroke="none" fill="#DAEEF3" fill-rule="evenodd" /><g clip-path="url(#54)"></g><g clip-path="url(#55)"></g><g clip-path="url(#56)"></g><g clip-path="url(#57)"></g><path transform="matrix(1 0 0 -1 0 841)" d="M336.79 342.17L505.53 342.17L505.53 342.17L505.53 365.09L505.53 365.09L336.79 365.09z" stroke="none" fill="#DAEEF3" fill-rule="evenodd" /><g clip-path="url(#58)"></g><g clip-path="url(#59)"></g><path transform="matrix(1 0 0 -1 0 841)" d="M336.79 319.25L505.53 319.25L505.53 319.25L505.53 342.17L505.53 342.17L336.79 342.17z" stroke="none" fill="#DAEEF3" fill-rule="evenodd" /><g clip-path="url(#60)"></g><g clip-path="url(#61)"></g><g clip-path="url(#62)"></g><g clip-path="url(#63)"></g><g clip-path="url(#64)"></g><g clip-path="url(#65)"></g><g clip-path="url(#66)"></g><path transform="matrix(1 0 0 -1 0 841)" d="M336.79 301.13L505.53 301.13L505.53 301.13L505.53 319.25L505.53 319.25L336.79 319.25z" stroke="none" fill="#DAEEF3" fill-rule="evenodd" /><g clip-path="url(#67)"></g><g clip-path="url(#68)"></g><g clip-path="url(#69)"></g><g clip-path="url(#70)"></g><path transform="matrix(1 0 0 -1 0 841)" d="M336.79 278.21L505.53 278.21L505.53 278.21L505.53 301.13L505.53 301.13L336.79 301.13z" stroke="none" fill="#DAEEF3" fill-rule="evenodd" /><g clip-path="url(#71)"></g><g clip-path="url(#72)"></g></g><path transform="matrix(1 0 0 -1 0 841)" d="M84.264 479.59L84.744 479.59L84.744 479.59L84.744 480.07L84.744 480.07L84.264 480.07z" stroke="none" fill="#000000" fill-rule="evenodd" /><path transform="matrix(1 0 0 -1 0 841)" d="M84.744 479.59L181.344 479.59L181.344 479.59L181.344 480.07L181.344 480.07L84.744 480.07z" stroke="none" fill="#000000" fill-rule="evenodd" /><path transform="matrix(1 0 0 -1 0 841)" d="M181.34 479.59L181.82 479.59L181.82 479.59L181.82 480.07L181.82 480.07L181.34 480.07z" stroke="none" fill="#000000" fill-rule="evenodd" /><path transform="matrix(1 0 0 -1 0 841)" d="M181.82 479.59L231.524 479.59L231.524 479.59L231.524 480.07L231.524 480.07L181.82 480.07z" stroke="none" fill="#000000" fill-rule="evenodd" /><path transform="matrix(1 0 0 -1 0 841)" d="M231.53 479.59L232.01 479.59L232.01 479.59L232.01 480.07L232.01 480.07L231.53 480.07z" stroke="none" fill="#000000" fill-rule="evenodd" /><path transform="matrix(1 0 0 -1 0 841)" d="M232.01 479.59L274.49 479.59L274.49 479.59L274.49 480.07L274.49 480.07L232.01 480.07z" stroke="none" fill="#000000" fill-rule="evenodd" /><path transform="matrix(1 0 0 -1 0 841)" d="M274.49 479.59L274.97 479.59L274.97 479.59L274.97 480.07L274.97 480.07L274.49 480.07z" stroke="none" fill="#000000" fill-rule="evenodd" /><path transform="matrix(1 0 0 -1 0 841)" d="M274.97 479.59L331.25 479.59L331.25 479.59L331.25 480.07L331.25 480.07L274.97 480.07z" stroke="none" fill="#000000" fill-rule="evenodd" /><path transform="matrix(1 0 0 -1 0 841)" d="M331.25 479.59L331.73 479.59L331.73 479.59L331.73 480.07L331.73 480.07L331.25 480.07z" stroke="none" fill="#000000" fill-rule="evenodd" /><path transform="matrix(1 0 0 -1 0 841)" d="M331.73 479.59L510.7 479.59L510.7 479.59L510.7 480.07L510.7 480.07L331.73 480.07z" stroke="none" fill="#000000" fill-rule="evenodd" /><path transform="matrix(1 0 0 -1 0 841)" d="M510.7 479.59L511.18 479.59L511.18 479.59L511.18 480.07L511.18 480.07L510.7 480.07z" stroke="none" fill="#000000" fill-rule="evenodd" /><path transform="matrix(1 0 0 -1 0 841)" d="M84.264 278.21L84.744 278.21L84.744 278.21L84.744 479.59L84.744 479.59L84.264 479.59z" stroke="none" fill="#000000" fill-rule="evenodd" /><path transform="matrix(1 0 0 -1 0 841)" d="M181.34 278.21L181.82 278.21L181.82 278.21L181.82 479.59L181.82 479.59L181.34 479.59z" stroke="none" fill="#000000" fill-rule="evenodd" /><path transform="matrix(1 0 0 -1 0 841)" d="M231.53 278.21L232.01 278.21L232.01 278.21L232.01 479.59L232.01 479.59L231.53 479.59z" stroke="none" fill="#000000" fill-rule="evenodd" /><path transform="matrix(1 0 0 -1 0 841)" d="M274.49 278.21L274.97 278.21L274.97 278.21L274.97 479.59L274.97 479.59L274.49 479.59z" stroke="none" fill="#000000" fill-rule="evenodd" /><path transform="matrix(1 0 0 -1 0 841)" d="M331.25 278.21L331.73 278.21L331.73 278.21L331.73 479.59L331.73 479.59L331.25 479.59z" stroke="none" fill="#000000" fill-rule="evenodd" /><path transform="matrix(1 0 0 -1 0 841)" d="M510.7 278.21L511.18 278.21L511.18 278.21L511.18 479.59L511.18 479.59L510.7 479.59z" stroke="none" fill="#000000" fill-rule="evenodd" /><g clip-path="url(#73)"><g clip-path="url(#74)"></g><g clip-path="url(#75)"></g></g><g clip-path="url(#76)"><g clip-path="url(#77)"></g><g clip-path="url(#78)"></g></g><g clip-path="url(#79)"><g clip-path="url(#80)"></g><g clip-path="url(#81)"></g></g><g clip-path="url(#82)"><g clip-path="url(#83)"></g><g clip-path="url(#84)"></g></g><g clip-path="url(#85)"><g clip-path="url(#86)"></g><g clip-path="url(#87)"></g><g clip-path="url(#88)"></g><g clip-path="url(#89)"></g><g clip-path="url(#90)"></g><g clip-path="url(#91)"></g></g><path transform="matrix(1 0 0 -1 0 841)" d="M84.264 277.73L84.744 277.73L84.744 277.73L84.744 278.2101L84.744 278.2101L84.264 278.2101z" stroke="none" fill="#000000" fill-rule="evenodd" /><path transform="matrix(1 0 0 -1 0 841)" d="M84.744 277.73L181.344 277.73L181.344 277.73L181.344 278.2101L181.344 278.2101L84.744 278.2101z" stroke="none" fill="#000000" fill-rule="evenodd" /><path transform="matrix(1 0 0 -1 0 841)" d="M181.34 277.73L181.82 277.73L181.82 277.73L181.82 278.2101L181.82 278.2101L181.34 278.2101z" stroke="none" fill="#000000" fill-rule="evenodd" /><path transform="matrix(1 0 0 -1 0 841)" d="M181.82 277.73L231.524 277.73L231.524 277.73L231.524 278.2101L231.524 278.2101L181.82 278.2101z" stroke="none" fill="#000000" fill-rule="evenodd" /><path transform="matrix(1 0 0 -1 0 841)" d="M231.53 277.73L232.01 277.73L232.01 277.73L232.01 278.2101L232.01 278.2101L231.53 278.2101z" stroke="none" fill="#000000" fill-rule="evenodd" /><path transform="matrix(1 0 0 -1 0 841)" d="M232.01 277.73L274.49 277.73L274.49 277.73L274.49 278.2101L274.49 278.2101L232.01 278.2101z" stroke="none" fill="#000000" fill-rule="evenodd" /><path transform="matrix(1 0 0 -1 0 841)" d="M274.49 277.73L274.97 277.73L274.97 277.73L274.97 278.2101L274.97 278.2101L274.49 278.2101z" stroke="none" fill="#000000" fill-rule="evenodd" /><path transform="matrix(1 0 0 -1 0 841)" d="M274.97 277.73L331.25 277.73L331.25 277.73L331.25 278.2101L331.25 278.2101L274.97 278.2101z" stroke="none" fill="#000000" fill-rule="evenodd" /><path transform="matrix(1 0 0 -1 0 841)" d="M331.25 277.73L331.73 277.73L331.73 277.73L331.73 278.2101L331.73 278.2101L331.25 278.2101z" stroke="none" fill="#000000" fill-rule="evenodd" /><path transform="matrix(1 0 0 -1 0 841)" d="M331.73 277.73L510.7 277.73L510.7 277.73L510.7 278.2101L510.7 278.2101L331.73 278.2101z" stroke="none" fill="#000000" fill-rule="evenodd" /><path transform="matrix(1 0 0 -1 0 841)" d="M510.7 277.73L511.18 277.73L511.18 277.73L511.18 278.2101L511.18 278.2101L510.7 278.2101z" stroke="none" fill="#000000" fill-rule="evenodd" /><path transform="matrix(1 0 0 -1 0 841)" d="M84.264 231.89L84.744 231.89L84.744 231.89L84.744 277.73L84.744 277.73L84.264 277.73z" stroke="none" fill="#000000" fill-rule="evenodd" /><path transform="matrix(1 0 0 -1 0 841)" d="M181.34 231.89L181.82 231.89L181.82 231.89L181.82 277.73L181.82 277.73L181.34 277.73z" stroke="none" fill="#000000" fill-rule="evenodd" /><path transform="matrix(1 0 0 -1 0 841)" d="M231.53 231.89L232.01 231.89L232.01 231.89L232.01 277.73L232.01 277.73L231.53 277.73z" stroke="none" fill="#000000" fill-rule="evenodd" /><path transform="matrix(1 0 0 -1 0 841)" d="M274.49 231.89L274.97 231.89L274.97 231.89L274.97 277.73L274.97 277.73L274.49 277.73z" stroke="none" fill="#000000" fill-rule="evenodd" /><path transform="matrix(1 0 0 -1 0 841)" d="M331.25 231.89L331.73 231.89L331.73 231.89L331.73 277.73L331.73 277.73L331.25 277.73z" stroke="none" fill="#000000" fill-rule="evenodd" /><path transform="matrix(1 0 0 -1 0 841)" d="M510.7 231.89L511.18 231.89L511.18 231.89L511.18 277.73L511.18 277.73L510.7 277.73z" stroke="none" fill="#000000" fill-rule="evenodd" /><path transform="matrix(1 0 0 -1 0 841)" d="M84.744 203.69L181.224 203.69L181.224 203.69L181.224 231.41L181.224 231.41L84.744 231.41z" stroke="none" fill="#DAEEF3" fill-rule="evenodd" /><g clip-path="url(#92)"><path transform="matrix(1 0 0 -1 0 841)" d="M89.904 204.77L176.184 204.77L176.184 204.77L176.184 231.41L176.184 231.41L89.904 231.41z" stroke="none" fill="#DAEEF3" fill-rule="evenodd" /><g clip-path="url(#93)"></g><g clip-path="url(#94)"></g></g><path transform="matrix(1 0 0 -1 0 841)" d="M181.82 203.69L231.404 203.69L231.404 203.69L231.404 231.41L231.404 231.41L181.82 231.41z" stroke="none" fill="#DAEEF3" fill-rule="evenodd" /><g clip-path="url(#95)"><path transform="matrix(1 0 0 -1 0 841)" d="M186.86 204.77L226.244 204.77L226.244 204.77L226.244 231.41L226.244 231.41L186.86 231.41z" stroke="none" fill="#DAEEF3" fill-rule="evenodd" /><g clip-path="url(#96)"></g><g clip-path="url(#97)"></g></g><path transform="matrix(1 0 0 -1 0 841)" d="M232.01 203.69L274.49 203.69L274.49 203.69L274.49 231.41L274.49 231.41L232.01 231.41z" stroke="none" fill="#DAEEF3" fill-rule="evenodd" /><g clip-path="url(#98)"><path transform="matrix(1 0 0 -1 0 841)" d="M237.05 203.69L269.33 203.69L269.33 203.69L269.33 231.41L269.33 231.41L237.05 231.41z" stroke="none" fill="#DAEEF3" fill-rule="evenodd" /><g clip-path="url(#99)"></g><g clip-path="url(#100)"></g></g><path transform="matrix(1 0 0 -1 0 841)" d="M274.97 203.69L331.13 203.69L331.13 203.69L331.13 231.41L331.13 231.41L274.97 231.41z" stroke="none" fill="#DAEEF3" fill-rule="evenodd" /><g clip-path="url(#101)"><path transform="matrix(1 0 0 -1 0 841)" d="M280.13 204.77L325.97 204.77L325.97 204.77L325.97 231.41L325.97 231.41L280.13 231.41z" stroke="none" fill="#DAEEF3" fill-rule="evenodd" /><g clip-path="url(#102)"></g></g><path transform="matrix(1 0 0 -1 0 841)" d="M331.61 203.69L510.7 203.69L510.7 203.69L510.7 231.41L510.7 231.41L331.61 231.41z" stroke="none" fill="#DAEEF3" fill-rule="evenodd" /><g clip-path="url(#103)"><path transform="matrix(1 0 0 -1 0 841)" d="M336.79 203.69L505.53 203.69L505.53 203.69L505.53 231.41L505.53 231.41L336.79 231.41z" stroke="none" fill="#DAEEF3" fill-rule="evenodd" /><g clip-path="url(#104)"></g><g clip-path="url(#105)"></g><g clip-path="url(#106)"></g></g><path transform="matrix(1 0 0 -1 0 841)" d="M84.264 231.41L84.744 231.41L84.744 231.41L84.744 231.89L84.744 231.89L84.264 231.89z" stroke="none" fill="#000000" fill-rule="evenodd" /><path transform="matrix(1 0 0 -1 0 841)" d="M84.744 231.41L181.344 231.41L181.344 231.41L181.344 231.89L181.344 231.89L84.744 231.89z" stroke="none" fill="#000000" fill-rule="evenodd" /><path transform="matrix(1 0 0 -1 0 841)" d="M181.34 231.41L181.82 231.41L181.82 231.41L181.82 231.89L181.82 231.89L181.34 231.89z" stroke="none" fill="#000000" fill-rule="evenodd" /><path transform="matrix(1 0 0 -1 0 841)" d="M181.82 231.41L231.524 231.41L231.524 231.41L231.524 231.89L231.524 231.89L181.82 231.89z" stroke="none" fill="#000000" fill-rule="evenodd" /><path transform="matrix(1 0 0 -1 0 841)" d="M231.53 231.41L232.01 231.41L232.01 231.41L232.01 231.89L232.01 231.89L231.53 231.89z" stroke="none" fill="#000000" fill-rule="evenodd" /><path transform="matrix(1 0 0 -1 0 841)" d="M232.01 231.41L274.49 231.41L274.49 231.41L274.49 231.89L274.49 231.89L232.01 231.89z" stroke="none" fill="#000000" fill-rule="evenodd" /><path transform="matrix(1 0 0 -1 0 841)" d="M274.49 231.41L274.97 231.41L274.97 231.41L274.97 231.89L274.97 231.89L274.49 231.89z" stroke="none" fill="#000000" fill-rule="evenodd" /><path transform="matrix(1 0 0 -1 0 841)" d="M274.97 231.41L331.25 231.41L331.25 231.41L331.25 231.89L331.25 231.89L274.97 231.89z" stroke="none" fill="#000000" fill-rule="evenodd" /><path transform="matrix(1 0 0 -1 0 841)" d="M331.25 231.41L331.73 231.41L331.73 231.41L331.73 231.89L331.73 231.89L331.25 231.89z" stroke="none" fill="#000000" fill-rule="evenodd" /><path transform="matrix(1 0 0 -1 0 841)" d="M331.73 231.41L510.7 231.41L510.7 231.41L510.7 231.89L510.7 231.89L331.73 231.89z" stroke="none" fill="#000000" fill-rule="evenodd" /><path transform="matrix(1 0 0 -1 0 841)" d="M510.7 231.41L511.18 231.41L511.18 231.41L511.18 231.89L511.18 231.89L510.7 231.89z" stroke="none" fill="#000000" fill-rule="evenodd" /><path transform="matrix(1 0 0 -1 0 841)" d="M84.264 203.69L84.744 203.69L84.744 203.69L84.744 231.41L84.744 231.41L84.264 231.41z" stroke="none" fill="#000000" fill-rule="evenodd" /><path transform="matrix(1 0 0 -1 0 841)" d="M181.34 203.69L181.82 203.69L181.82 203.69L181.82 231.41L181.82 231.41L181.34 231.41z" stroke="none" fill="#000000" fill-rule="evenodd" /><path transform="matrix(1 0 0 -1 0 841)" d="M231.53 203.69L232.01 203.69L232.01 203.69L232.01 231.41L232.01 231.41L231.53 231.41z" stroke="none" fill="#000000" fill-rule="evenodd" /><path transform="matrix(1 0 0 -1 0 841)" d="M274.49 203.69L274.97 203.69L274.97 203.69L274.97 231.41L274.97 231.41L274.49 231.41z" stroke="none" fill="#000000" fill-rule="evenodd" /><path transform="matrix(1 0 0 -1 0 841)" d="M331.25 203.69L331.73 203.69L331.73 203.69L331.73 231.41L331.73 231.41L331.25 231.41z" stroke="none" fill="#000000" fill-rule="evenodd" /><path transform="matrix(1 0 0 -1 0 841)" d="M510.7 203.69L511.18 203.69L511.18 203.69L511.18 231.41L511.18 231.41L510.7 231.41z" stroke="none" fill="#000000" fill-rule="evenodd" /><g clip-path="url(#107)"><g clip-path="url(#108)"></g><g clip-path="url(#109)"></g></g><g clip-path="url(#110)"><g clip-path="url(#111)"></g><g clip-path="url(#112)"></g></g><g clip-path="url(#113)"><g clip-path="url(#114)"></g><g clip-path="url(#115)"></g></g><g clip-path="url(#116)"><g clip-path="url(#117)"></g><g clip-path="url(#118)"></g></g><g clip-path="url(#119)"><g clip-path="url(#120)"></g><g clip-path="url(#121)"></g></g><path transform="matrix(1 0 0 -1 0 841)" d="M84.264 203.21L84.744 203.21L84.744 203.21L84.744 203.69L84.744 203.69L84.264 203.69z" stroke="none" fill="#000000" fill-rule="evenodd" /><path transform="matrix(1 0 0 -1 0 841)" d="M84.744 203.21L181.344 203.21L181.344 203.21L181.344 203.69L181.344 203.69L84.744 203.69z" stroke="none" fill="#000000" fill-rule="evenodd" /><path transform="matrix(1 0 0 -1 0 841)" d="M181.34 203.21L181.82 203.21L181.82 203.21L181.82 203.69L181.82 203.69L181.34 203.69z" stroke="none" fill="#000000" fill-rule="evenodd" /><path transform="matrix(1 0 0 -1 0 841)" d="M181.82 203.21L231.524 203.21L231.524 203.21L231.524 203.69L231.524 203.69L181.82 203.69z" stroke="none" fill="#000000" fill-rule="evenodd" /><path transform="matrix(1 0 0 -1 0 841)" d="M231.53 203.21L232.01 203.21L232.01 203.21L232.01 203.69L232.01 203.69L231.53 203.69z" stroke="none" fill="#000000" fill-rule="evenodd" /><path transform="matrix(1 0 0 -1 0 841)" d="M232.01 203.21L274.49 203.21L274.49 203.21L274.49 203.69L274.49 203.69L232.01 203.69z" stroke="none" fill="#000000" fill-rule="evenodd" /><path transform="matrix(1 0 0 -1 0 841)" d="M274.49 203.21L274.97 203.21L274.97 203.21L274.97 203.69L274.97 203.69L274.49 203.69z" stroke="none" fill="#000000" fill-rule="evenodd" /><path transform="matrix(1 0 0 -1 0 841)" d="M274.97 203.21L331.25 203.21L331.25 203.21L331.25 203.69L331.25 203.69L274.97 203.69z" stroke="none" fill="#000000" fill-rule="evenodd" /><path transform="matrix(1 0 0 -1 0 841)" d="M331.25 203.21L331.73 203.21L331.73 203.21L331.73 203.69L331.73 203.69L331.25 203.69z" stroke="none" fill="#000000" fill-rule="evenodd" /><path transform="matrix(1 0 0 -1 0 841)" d="M331.73 203.21L510.7 203.21L510.7 203.21L510.7 203.69L510.7 203.69L331.73 203.69z" stroke="none" fill="#000000" fill-rule="evenodd" /><path transform="matrix(1 0 0 -1 0 841)" d="M510.7 203.21L511.18 203.21L511.18 203.21L511.18 203.69L511.18 203.69L510.7 203.69z" stroke="none" fill="#000000" fill-rule="evenodd" /><path transform="matrix(1 0 0 -1 0 841)" d="M84.264 175.46L84.744 175.46L84.744 175.46L84.744 203.204L84.744 203.204L84.264 203.204z" stroke="none" fill="#000000" fill-rule="evenodd" /><path transform="matrix(1 0 0 -1 0 841)" d="M181.34 175.46L181.82 175.46L181.82 175.46L181.82 203.204L181.82 203.204L181.34 203.204z" stroke="none" fill="#000000" fill-rule="evenodd" /><path transform="matrix(1 0 0 -1 0 841)" d="M231.53 175.46L232.01 175.46L232.01 175.46L232.01 203.204L232.01 203.204L231.53 203.204z" stroke="none" fill="#000000" fill-rule="evenodd" /><path transform="matrix(1 0 0 -1 0 841)" d="M274.49 175.46L274.97 175.46L274.97 175.46L274.97 203.204L274.97 203.204L274.49 203.204z" stroke="none" fill="#000000" fill-rule="evenodd" /><path transform="matrix(1 0 0 -1 0 841)" d="M331.25 175.46L331.73 175.46L331.73 175.46L331.73 203.204L331.73 203.204L331.25 203.204z" stroke="none" fill="#000000" fill-rule="evenodd" /><path transform="matrix(1 0 0 -1 0 841)" d="M510.7 175.46L511.18 175.46L511.18 175.46L511.18 203.204L511.18 203.204L510.7 203.204z" stroke="none" fill="#000000" fill-rule="evenodd" /><path transform="matrix(1 0 0 -1 0 841)" d="M84.744 115.34L181.224 115.34L181.224 115.34L181.224 174.98L181.224 174.98L84.744 174.98z" stroke="none" fill="#DAEEF3" fill-rule="evenodd" /><g clip-path="url(#122)"><path transform="matrix(1 0 0 -1 0 841)" d="M89.904 148.46L176.184 148.46L176.184 148.46L176.184 174.98L176.184 174.98L89.904 174.98z" stroke="none" fill="#DAEEF3" fill-rule="evenodd" /><g clip-path="url(#123)"></g><g clip-path="url(#124)"></g></g><path transform="matrix(1 0 0 -1 0 841)" d="M181.82 115.34L231.404 115.34L231.404 115.34L231.404 174.98L231.404 174.98L181.82 174.98z" stroke="none" fill="#DAEEF3" fill-rule="evenodd" /><g clip-path="url(#125)"><path transform="matrix(1 0 0 -1 0 841)" d="M186.86 150.86L226.244 150.86L226.244 150.86L226.244 174.98L226.244 174.98L186.86 174.98z" stroke="none" fill="#DAEEF3" fill-rule="evenodd" /><g clip-path="url(#126)"></g><g clip-path="url(#127)"></g></g><path transform="matrix(1 0 0 -1 0 841)" d="M232.01 115.34L274.49 115.34L274.49 115.34L274.49 174.98L274.49 174.98L232.01 174.98z" stroke="none" fill="#DAEEF3" fill-rule="evenodd" /><g clip-path="url(#128)"><path transform="matrix(1 0 0 -1 0 841)" d="M237.05 149.9L269.33 149.9L269.33 149.9L269.33 174.98L269.33 174.98L237.05 174.98z" stroke="none" fill="#DAEEF3" fill-rule="evenodd" /><g clip-path="url(#129)"></g><g clip-path="url(#130)"></g></g><path transform="matrix(1 0 0 -1 0 841)" d="M274.97 115.34L331.13 115.34L331.13 115.34L331.13 174.98L331.13 174.98L274.97 174.98z" stroke="none" fill="#DAEEF3" fill-rule="evenodd" /><g clip-path="url(#131)"><path transform="matrix(1 0 0 -1 0 841)" d="M280.13 150.86L325.97 150.86L325.97 150.86L325.97 174.98L325.97 174.98L280.13 174.98z" stroke="none" fill="#DAEEF3" fill-rule="evenodd" /><g clip-path="url(#132)"></g></g><path transform="matrix(1 0 0 -1 0 841)" d="M331.61 115.34L510.7 115.34L510.7 115.34L510.7 174.98L510.7 174.98L331.61 174.98z" stroke="none" fill="#DAEEF3" fill-rule="evenodd" /><g clip-path="url(#133)"><path transform="matrix(1 0 0 -1 0 841)" d="M336.79 155.9L505.53 155.9L505.53 155.9L505.53 174.98L505.53 174.98L336.79 174.98z" stroke="none" fill="#DAEEF3" fill-rule="evenodd" /><g clip-path="url(#134)"></g><g clip-path="url(#135)"></g><g clip-path="url(#136)"></g><path transform="matrix(1 0 0 -1 0 841)" d="M336.79 135.62L505.53 135.62L505.53 135.62L505.53 155.9L505.53 155.9L336.79 155.9z" stroke="none" fill="#DAEEF3" fill-rule="evenodd" /><g clip-path="url(#137)"></g><g clip-path="url(#138)"></g><path transform="matrix(1 0 0 -1 0 841)" d="M336.79 115.34L505.53 115.34L505.53 115.34L505.53 135.62L505.53 135.62L336.79 135.62z" stroke="none" fill="#DAEEF3" fill-rule="evenodd" /><g clip-path="url(#139)"></g><g clip-path="url(#140)"></g></g><path transform="matrix(1 0 0 -1 0 841)" d="M84.264 174.98L84.744 174.98L84.744 174.98L84.744 175.46L84.744 175.46L84.264 175.46z" stroke="none" fill="#000000" fill-rule="evenodd" /><path transform="matrix(1 0 0 -1 0 841)" d="M84.744 174.98L181.344 174.98L181.344 174.98L181.344 175.46L181.344 175.46L84.744 175.46z" stroke="none" fill="#000000" fill-rule="evenodd" /><path transform="matrix(1 0 0 -1 0 841)" d="M181.34 174.98L181.82 174.98L181.82 174.98L181.82 175.46L181.82 175.46L181.34 175.46z" stroke="none" fill="#000000" fill-rule="evenodd" /><path transform="matrix(1 0 0 -1 0 841)" d="M181.82 174.98L231.524 174.98L231.524 174.98L231.524 175.46L231.524 175.46L181.82 175.46z" stroke="none" fill="#000000" fill-rule="evenodd" /><path transform="matrix(1 0 0 -1 0 841)" d="M231.53 174.98L232.01 174.98L232.01 174.98L232.01 175.46L232.01 175.46L231.53 175.46z" stroke="none" fill="#000000" fill-rule="evenodd" /><path transform="matrix(1 0 0 -1 0 841)" d="M232.01 174.98L274.49 174.98L274.49 174.98L274.49 175.46L274.49 175.46L232.01 175.46z" stroke="none" fill="#000000" fill-rule="evenodd" /><path transform="matrix(1 0 0 -1 0 841)" d="M274.49 174.98L274.97 174.98L274.97 174.98L274.97 175.46L274.97 175.46L274.49 175.46z" stroke="none" fill="#000000" fill-rule="evenodd" /><path transform="matrix(1 0 0 -1 0 841)" d="M274.97 174.98L331.25 174.98L331.25 174.98L331.25 175.46L331.25 175.46L274.97 175.46z" stroke="none" fill="#000000" fill-rule="evenodd" /><path transform="matrix(1 0 0 -1 0 841)" d="M331.25 174.98L331.73 174.98L331.73 174.98L331.73 175.46L331.73 175.46L331.25 175.46z" stroke="none" fill="#000000" fill-rule="evenodd" /><path transform="matrix(1 0 0 -1 0 841)" d="M331.73 174.98L510.7 174.98L510.7 174.98L510.7 175.46L510.7 175.46L331.73 175.46z" stroke="none" fill="#000000" fill-rule="evenodd" /><path transform="matrix(1 0 0 -1 0 841)" d="M510.7 174.98L511.18 174.98L511.18 174.98L511.18 175.46L511.18 175.46L510.7 175.46z" stroke="none" fill="#000000" fill-rule="evenodd" /><path transform="matrix(1 0 0 -1 0 841)" d="M84.264 115.34L84.744 115.34L84.744 115.34L84.744 174.98L84.744 174.98L84.264 174.98z" stroke="none" fill="#000000" fill-rule="evenodd" /><path transform="matrix(1 0 0 -1 0 841)" d="M84.264 114.86L84.744 114.86L84.744 114.86L84.744 115.34L84.744 115.34L84.264 115.34z" stroke="none" fill="#000000" fill-rule="evenodd" /><path transform="matrix(1 0 0 -1 0 841)" d="M84.264 114.86L84.744 114.86L84.744 114.86L84.744 115.34L84.744 115.34L84.264 115.34z" stroke="none" fill="#000000" fill-rule="evenodd" /><path transform="matrix(1 0 0 -1 0 841)" d="M84.744 114.86L181.344 114.86L181.344 114.86L181.344 115.34L181.344 115.34L84.744 115.34z" stroke="none" fill="#000000" fill-rule="evenodd" /><path transform="matrix(1 0 0 -1 0 841)" d="M181.34 115.34L181.82 115.34L181.82 115.34L181.82 174.98L181.82 174.98L181.34 174.98z" stroke="none" fill="#000000" fill-rule="evenodd" /><path transform="matrix(1 0 0 -1 0 841)" d="M181.34 114.86L181.82 114.86L181.82 114.86L181.82 115.34L181.82 115.34L181.34 115.34z" stroke="none" fill="#000000" fill-rule="evenodd" /><path transform="matrix(1 0 0 -1 0 841)" d="M181.82 114.86L231.524 114.86L231.524 114.86L231.524 115.34L231.524 115.34L181.82 115.34z" stroke="none" fill="#000000" fill-rule="evenodd" /><path transform="matrix(1 0 0 -1 0 841)" d="M231.53 115.34L232.01 115.34L232.01 115.34L232.01 174.98L232.01 174.98L231.53 174.98z" stroke="none" fill="#000000" fill-rule="evenodd" /><path transform="matrix(1 0 0 -1 0 841)" d="M231.53 114.86L232.01 114.86L232.01 114.86L232.01 115.34L232.01 115.34L231.53 115.34z" stroke="none" fill="#000000" fill-rule="evenodd" /><path transform="matrix(1 0 0 -1 0 841)" d="M232.01 114.86L274.49 114.86L274.49 114.86L274.49 115.34L274.49 115.34L232.01 115.34z" stroke="none" fill="#000000" fill-rule="evenodd" /><path transform="matrix(1 0 0 -1 0 841)" d="M274.49 115.34L274.97 115.34L274.97 115.34L274.97 174.98L274.97 174.98L274.49 174.98z" stroke="none" fill="#000000" fill-rule="evenodd" /><path transform="matrix(1 0 0 -1 0 841)" d="M274.49 114.86L274.97 114.86L274.97 114.86L274.97 115.34L274.97 115.34L274.49 115.34z" stroke="none" fill="#000000" fill-rule="evenodd" /><path transform="matrix(1 0 0 -1 0 841)" d="M274.97 114.86L331.25 114.86L331.25 114.86L331.25 115.34L331.25 115.34L274.97 115.34z" stroke="none" fill="#000000" fill-rule="evenodd" /><path transform="matrix(1 0 0 -1 0 841)" d="M331.25 115.34L331.73 115.34L331.73 115.34L331.73 174.98L331.73 174.98L331.25 174.98z" stroke="none" fill="#000000" fill-rule="evenodd" /><path transform="matrix(1 0 0 -1 0 841)" d="M331.25 114.86L331.73 114.86L331.73 114.86L331.73 115.34L331.73 115.34L331.25 115.34z" stroke="none" fill="#000000" fill-rule="evenodd" /><path transform="matrix(1 0 0 -1 0 841)" d="M331.73 114.86L510.7 114.86L510.7 114.86L510.7 115.34L510.7 115.34L331.73 115.34z" stroke="none" fill="#000000" fill-rule="evenodd" /><path transform="matrix(1 0 0 -1 0 841)" d="M510.7 115.34L511.18 115.34L511.18 115.34L511.18 174.98L511.18 174.98L510.7 174.98z" stroke="none" fill="#000000" fill-rule="evenodd" /><path transform="matrix(1 0 0 -1 0 841)" d="M510.7 114.86L511.18 114.86L511.18 114.86L511.18 115.34L511.18 115.34L510.7 115.34z" stroke="none" fill="#000000" fill-rule="evenodd" /><path transform="matrix(1 0 0 -1 0 841)" d="M510.7 114.86L511.18 114.86L511.18 114.86L511.18 115.34L511.18 115.34L510.7 115.34z" stroke="none" fill="#000000" fill-rule="evenodd" /></g></g></g></svg>