<svg xmlns="http://www.w3.org/2000/svg" xmlns:xlink="http://www.w3.org/1999/xlink" id="body_229" preserveAspectRatio="xMinYMin meet" viewBox="0 0 793 1121"><defs><clipPath id="1"><path d="M0 841L0 -0.9199829L0 -0.9199829L595.32 -0.9199829L595.32 -0.9199829L595.32 841L595.32 841L0 841z" /></clipPath><clipPath id="2"><path d="M0.00125 841.0914L595.4112 841.0914L595.4112 841.0914L595.4112 -0.9186401L595.4112 -0.9186401L0.00125 -0.9186401z" /></clipPath><clipPath id="3"><path d="M288.05 781.211L316.01 781.211L316.01 781.211L316.01 762.011L316.01 762.011L288.05 762.011z" /></clipPath><clipPath id="4"><path d="M288.05 781.216L316.01 781.216L316.01 781.216L316.01 762.016L316.01 762.016L288.05 762.016z" /></clipPath><clipPath id="5"><path d="M288.05 781.216L316.01 781.216L316.01 781.216L316.01 762.016L316.01 762.016L288.05 762.016z" /></clipPath><clipPath id="6"><path d="M84.751 117.79L182.911 117.79L182.911 117.79L182.911 89.44L182.911 89.44L84.751 89.44z" /></clipPath><clipPath id="7"><path d="M84.744 117.78L182.904 117.78L182.904 117.78L182.904 89.43604L182.904 89.43604L84.744 89.43604z" /></clipPath><clipPath id="8"><path d="M84.744 117.78L182.904 117.78L182.904 117.78L182.904 89.43604L182.904 89.43604L84.744 89.43604z" /></clipPath><clipPath id="9"><path d="M183.39 117.79L233.085 117.79L233.085 117.79L233.085 89.44L233.085 89.44L183.39 89.44z" /></clipPath><clipPath id="10"><path d="M183.38 117.78L233.084 117.78L233.084 117.78L233.084 89.43604L233.084 89.43604L183.38 89.43604z" /></clipPath><clipPath id="11"><path d="M183.38 117.78L233.084 117.78L233.084 117.78L233.084 89.43604L233.084 89.43604L183.38 89.43604z" /></clipPath><clipPath id="12"><path d="M233.57 117.79L283.61 117.79L283.61 117.79L283.61 89.44L283.61 89.44L233.57 89.44z" /></clipPath><clipPath id="13"><path d="M233.57 117.78L283.61 117.78L283.61 117.78L283.61 89.43604L283.61 89.43604L233.57 89.43604z" /></clipPath><clipPath id="14"><path d="M233.57 117.78L283.61 117.78L283.61 117.78L283.61 89.43604L283.61 89.43604L233.57 89.43604z" /></clipPath><clipPath id="15"><path d="M284.09 117.79L373.76 117.79L373.76 117.79L373.76 89.44L373.76 89.44L284.09 89.44z" /></clipPath><clipPath id="16"><path d="M284.09 117.78L373.754 117.78L373.754 117.78L373.754 89.43604L373.754 89.43604L284.09 89.43604z" /></clipPath><clipPath id="17"><path d="M284.09 117.78L373.754 117.78L373.754 117.78L373.754 89.43604L373.754 89.43604L284.09 89.43604z" /></clipPath><clipPath id="18"><path d="M374.24 117.79L528.22 117.79L528.22 117.79L528.22 89.44L528.22 89.44L374.24 89.44z" /></clipPath><clipPath id="19"><path d="M374.23 117.78L528.21 117.78L528.21 117.78L528.21 89.43604L528.21 89.43604L374.23 89.43604z" /></clipPath><clipPath id="20"><path d="M374.23 117.78L528.21 117.78L528.21 117.78L528.21 89.43604L528.21 89.43604L374.23 89.43604z" /></clipPath><clipPath id="21"><path d="M84.751 146.71L182.911 146.71L182.911 146.71L182.911 118.27L182.911 118.27L84.751 118.27z" /></clipPath><clipPath id="22"><path d="M84.744 146.7L182.904 146.7L182.904 146.7L182.904 118.26L182.904 118.26L84.744 118.26z" /></clipPath><clipPath id="23"><path d="M84.744 146.7L182.904 146.7L182.904 146.7L182.904 118.26L182.904 118.26L84.744 118.26z" /></clipPath><clipPath id="24"><path d="M183.39 146.71L233.085 146.71L233.085 146.71L233.085 118.27L233.085 118.27L183.39 118.27z" /></clipPath><clipPath id="25"><path d="M183.38 146.7L233.084 146.7L233.084 146.7L233.084 118.26L233.084 118.26L183.38 118.26z" /></clipPath><clipPath id="26"><path d="M183.38 146.7L233.084 146.7L233.084 146.7L233.084 118.26L233.084 118.26L183.38 118.26z" /></clipPath><clipPath id="27"><path d="M233.57 146.71L283.61 146.71L283.61 146.71L283.61 118.27L283.61 118.27L233.57 118.27z" /></clipPath><clipPath id="28"><path d="M233.57 146.7L283.61 146.7L283.61 146.7L283.61 118.26L283.61 118.26L233.57 118.26z" /></clipPath><clipPath id="29"><path d="M233.57 146.7L283.61 146.7L283.61 146.7L283.61 118.26L283.61 118.26L233.57 118.26z" /></clipPath><clipPath id="30"><path d="M284.09 146.71L373.76 146.71L373.76 146.71L373.76 118.27L373.76 118.27L284.09 118.27z" /></clipPath><clipPath id="31"><path d="M284.09 146.7L373.754 146.7L373.754 146.7L373.754 118.26L373.754 118.26L284.09 118.26z" /></clipPath><clipPath id="32"><path d="M374.24 244.39L528.22 244.39L528.22 244.39L528.22 118.27L528.22 118.27L374.24 118.27z" /></clipPath><clipPath id="33"><path d="M374.23 244.38L528.21 244.38L528.21 244.38L528.21 118.26L528.21 118.26L374.23 118.26z" /></clipPath><clipPath id="34"><path d="M374.23 244.38L528.21 244.38L528.21 244.38L528.21 118.26L528.21 118.26L374.23 118.26z" /></clipPath><clipPath id="35"><path d="M374.23 244.38L528.21 244.38L528.21 244.38L528.21 118.26L528.21 118.26L374.23 118.26z" /></clipPath><clipPath id="36"><path d="M374.23 244.38L528.21 244.38L528.21 244.38L528.21 118.26L528.21 118.26L374.23 118.26z" /></clipPath><clipPath id="37"><path d="M374.23 244.38L528.21 244.38L528.21 244.38L528.21 118.26L528.21 118.26L374.23 118.26z" /></clipPath><clipPath id="38"><path d="M374.23 244.38L528.21 244.38L528.21 244.38L528.21 118.26L528.21 118.26L374.23 118.26z" /></clipPath><clipPath id="39"><path d="M374.23 244.38L528.21 244.38L528.21 244.38L528.21 118.26L528.21 118.26L374.23 118.26z" /></clipPath><clipPath id="40"><path d="M374.23 244.38L528.21 244.38L528.21 244.38L528.21 118.26L528.21 118.26L374.23 118.26z" /></clipPath><clipPath id="41"><path d="M374.23 244.38L528.21 244.38L528.21 244.38L528.21 118.26L528.21 118.26L374.23 118.26z" /></clipPath><clipPath id="42"><path d="M374.23 244.38L528.21 244.38L528.21 244.38L528.21 118.26L528.21 118.26L374.23 118.26z" /></clipPath><clipPath id="43"><path d="M374.23 244.38L528.21 244.38L528.21 244.38L528.21 118.26L528.21 118.26L374.23 118.26z" /></clipPath><clipPath id="44"><path d="M374.23 244.38L528.21 244.38L528.21 244.38L528.21 118.26L528.21 118.26L374.23 118.26z" /></clipPath><clipPath id="45"><path d="M374.23 244.38L528.21 244.38L528.21 244.38L528.21 118.26L528.21 118.26L374.23 118.26z" /></clipPath><clipPath id="46"><path d="M374.23 244.38L528.21 244.38L528.21 244.38L528.21 118.26L528.21 118.26L374.23 118.26z" /></clipPath><clipPath id="47"><path d="M374.23 244.38L528.21 244.38L528.21 244.38L528.21 118.26L528.21 118.26L374.23 118.26z" /></clipPath><clipPath id="48"><path d="M374.23 244.38L528.21 244.38L528.21 244.38L528.21 118.26L528.21 118.26L374.23 118.26z" /></clipPath><clipPath id="49"><path d="M374.23 244.38L528.21 244.38L528.21 244.38L528.21 118.26L528.21 118.26L374.23 118.26z" /></clipPath><clipPath id="50"><path d="M374.23 244.38L528.21 244.38L528.21 244.38L528.21 118.26L528.21 118.26L374.23 118.26z" /></clipPath><clipPath id="51"><path d="M374.23 244.38L528.21 244.38L528.21 244.38L528.21 118.26L528.21 118.26L374.23 118.26z" /></clipPath><clipPath id="52"><path d="M374.23 244.38L528.21 244.38L528.21 244.38L528.21 118.26L528.21 118.26L374.23 118.26z" /></clipPath><clipPath id="53"><path d="M374.23 244.38L528.21 244.38L528.21 244.38L528.21 118.26L528.21 118.26L374.23 118.26z" /></clipPath><clipPath id="54"><path d="M374.23 244.38L528.21 244.38L528.21 244.38L528.21 118.26L528.21 118.26L374.23 118.26z" /></clipPath><clipPath id="55"><path d="M374.23 244.38L528.21 244.38L528.21 244.38L528.21 118.26L528.21 118.26L374.23 118.26z" /></clipPath><clipPath id="56"><path d="M374.23 244.38L528.21 244.38L528.21 244.38L528.21 118.26L528.21 118.26L374.23 118.26z" /></clipPath><clipPath id="57"><path d="M374.23 244.38L528.21 244.38L528.21 244.38L528.21 118.26L528.21 118.26L374.23 118.26z" /></clipPath><clipPath id="58"><path d="M374.23 244.38L528.21 244.38L528.21 244.38L528.21 118.26L528.21 118.26L374.23 118.26z" /></clipPath><clipPath id="59"><path d="M84.751 244.39L182.911 244.39L182.911 244.39L182.911 147.19L182.911 147.19L84.751 147.19z" /></clipPath><clipPath id="60"><path d="M84.744 244.38L182.904 244.38L182.904 244.38L182.904 147.18L182.904 147.18L84.744 147.18z" /></clipPath><clipPath id="61"><path d="M84.744 244.38L182.904 244.38L182.904 244.38L182.904 147.18L182.904 147.18L84.744 147.18z" /></clipPath><clipPath id="62"><path d="M183.39 244.39L233.085 244.39L233.085 244.39L233.085 147.19L233.085 147.19L183.39 147.19z" /></clipPath><clipPath id="63"><path d="M183.38 244.38L233.084 244.38L233.084 244.38L233.084 147.18L233.084 147.18L183.38 147.18z" /></clipPath><clipPath id="64"><path d="M183.38 244.38L233.084 244.38L233.084 244.38L233.084 147.18L233.084 147.18L183.38 147.18z" /></clipPath><clipPath id="65"><path d="M233.57 244.39L283.61 244.39L283.61 244.39L283.61 147.19L283.61 147.19L233.57 147.19z" /></clipPath><clipPath id="66"><path d="M233.57 244.38L283.61 244.38L283.61 244.38L283.61 147.18L283.61 147.18L233.57 147.18z" /></clipPath><clipPath id="67"><path d="M233.57 244.38L283.61 244.38L283.61 244.38L283.61 147.18L283.61 147.18L233.57 147.18z" /></clipPath><clipPath id="68"><path d="M284.09 244.39L373.76 244.39L373.76 244.39L373.76 147.19L373.76 147.19L284.09 147.19z" /></clipPath><clipPath id="69"><path d="M284.09 244.38L373.754 244.38L373.754 244.38L373.754 147.18L373.754 147.18L284.09 147.18z" /></clipPath><clipPath id="70"><path d="M84.751 295.41L182.911 295.41L182.911 295.41L182.911 244.875L182.911 244.875L84.751 244.875z" /></clipPath><clipPath id="71"><path d="M84.744 295.41L182.904 295.41L182.904 295.41L182.904 244.866L182.904 244.866L84.744 244.866z" /></clipPath><clipPath id="72"><path d="M84.744 295.41L182.904 295.41L182.904 295.41L182.904 244.866L182.904 244.866L84.744 244.866z" /></clipPath><clipPath id="73"><path d="M183.39 295.41L233.085 295.41L233.085 295.41L233.085 244.875L233.085 244.875L183.39 244.875z" /></clipPath><clipPath id="74"><path d="M183.38 295.41L233.084 295.41L233.084 295.41L233.084 244.866L233.084 244.866L183.38 244.866z" /></clipPath><clipPath id="75"><path d="M183.38 295.41L233.084 295.41L233.084 295.41L233.084 244.866L233.084 244.866L183.38 244.866z" /></clipPath><clipPath id="76"><path d="M233.57 295.41L283.61 295.41L283.61 295.41L283.61 244.875L283.61 244.875L233.57 244.875z" /></clipPath><clipPath id="77"><path d="M233.57 295.41L283.61 295.41L283.61 295.41L283.61 244.866L283.61 244.866L233.57 244.866z" /></clipPath><clipPath id="78"><path d="M233.57 295.41L283.61 295.41L283.61 295.41L283.61 244.866L283.61 244.866L233.57 244.866z" /></clipPath><clipPath id="79"><path d="M284.09 295.41L373.76 295.41L373.76 295.41L373.76 244.875L373.76 244.875L284.09 244.875z" /></clipPath><clipPath id="80"><path d="M284.09 295.41L373.754 295.41L373.754 295.41L373.754 244.866L373.754 244.866L284.09 244.866z" /></clipPath><clipPath id="81"><path d="M284.09 295.41L373.754 295.41L373.754 295.41L373.754 244.866L373.754 244.866L284.09 244.866z" /></clipPath><clipPath id="82"><path d="M374.24 295.41L528.22 295.41L528.22 295.41L528.22 244.875L528.22 244.875L374.24 244.875z" /></clipPath><clipPath id="83"><path d="M374.23 295.41L528.21 295.41L528.21 295.41L528.21 244.866L528.21 244.866L374.23 244.866z" /></clipPath><clipPath id="84"><path d="M374.23 295.41L528.21 295.41L528.21 295.41L528.21 244.866L528.21 244.866L374.23 244.866z" /></clipPath><clipPath id="85"><path d="M374.23 295.41L528.21 295.41L528.21 295.41L528.21 244.866L528.21 244.866L374.23 244.866z" /></clipPath><clipPath id="86"><path d="M374.23 295.41L528.21 295.41L528.21 295.41L528.21 244.866L528.21 244.866L374.23 244.866z" /></clipPath><clipPath id="87"><path d="M374.23 295.41L528.21 295.41L528.21 295.41L528.21 244.866L528.21 244.866L374.23 244.866z" /></clipPath><clipPath id="88"><path d="M374.23 295.41L528.21 295.41L528.21 295.41L528.21 244.866L528.21 244.866L374.23 244.866z" /></clipPath><clipPath id="89"><path d="M374.23 295.41L528.21 295.41L528.21 295.41L528.21 244.866L528.21 244.866L374.23 244.866z" /></clipPath><clipPath id="90"><path d="M374.23 295.41L528.21 295.41L528.21 295.41L528.21 244.866L528.21 244.866L374.23 244.866z" /></clipPath><clipPath id="91"><path d="M374.23 295.41L528.21 295.41L528.21 295.41L528.21 244.866L528.21 244.866L374.23 244.866z" /></clipPath><clipPath id="92"><path d="M374.23 295.41L528.21 295.41L528.21 295.41L528.21 244.866L528.21 244.866L374.23 244.866z" /></clipPath><clipPath id="93"><path d="M84.751 324.33L182.911 324.33L182.911 324.33L182.911 295.89L182.911 295.89L84.751 295.89z" /></clipPath><clipPath id="94"><path d="M84.744 324.33L182.904 324.33L182.904 324.33L182.904 295.89L182.904 295.89L84.744 295.89z" /></clipPath><clipPath id="95"><path d="M84.744 324.33L182.904 324.33L182.904 324.33L182.904 295.89L182.904 295.89L84.744 295.89z" /></clipPath><clipPath id="96"><path d="M183.39 324.33L233.085 324.33L233.085 324.33L233.085 295.89L233.085 295.89L183.39 295.89z" /></clipPath><clipPath id="97"><path d="M183.38 324.33L233.084 324.33L233.084 324.33L233.084 295.89L233.084 295.89L183.38 295.89z" /></clipPath><clipPath id="98"><path d="M183.38 324.33L233.084 324.33L233.084 324.33L233.084 295.89L233.084 295.89L183.38 295.89z" /></clipPath><clipPath id="99"><path d="M233.57 324.33L283.61 324.33L283.61 324.33L283.61 295.89L283.61 295.89L233.57 295.89z" /></clipPath><clipPath id="100"><path d="M233.57 324.33L283.61 324.33L283.61 324.33L283.61 295.89L283.61 295.89L233.57 295.89z" /></clipPath><clipPath id="101"><path d="M233.57 324.33L283.61 324.33L283.61 324.33L283.61 295.89L283.61 295.89L233.57 295.89z" /></clipPath><clipPath id="102"><path d="M284.09 324.33L373.76 324.33L373.76 324.33L373.76 295.89L373.76 295.89L284.09 295.89z" /></clipPath><clipPath id="103"><path d="M284.09 324.33L373.754 324.33L373.754 324.33L373.754 295.89L373.754 295.89L284.09 295.89z" /></clipPath><clipPath id="104"><path d="M284.09 324.33L373.754 324.33L373.754 324.33L373.754 295.89L373.754 295.89L284.09 295.89z" /></clipPath><clipPath id="105"><path d="M374.24 324.33L528.22 324.33L528.22 324.33L528.22 295.89L528.22 295.89L374.24 295.89z" /></clipPath><clipPath id="106"><path d="M374.23 324.33L528.21 324.33L528.21 324.33L528.21 295.89L528.21 295.89L374.23 295.89z" /></clipPath><clipPath id="107"><path d="M374.23 324.33L528.21 324.33L528.21 324.33L528.21 295.89L528.21 295.89L374.23 295.89z" /></clipPath><clipPath id="108"><path d="M84.751 414.21L182.911 414.21L182.911 414.21L182.911 324.81L182.911 324.81L84.751 324.81z" /></clipPath><clipPath id="109"><path d="M84.744 414.21L182.904 414.21L182.904 414.21L182.904 324.81L182.904 324.81L84.744 324.81z" /></clipPath><clipPath id="110"><path d="M84.744 414.21L182.904 414.21L182.904 414.21L182.904 324.81L182.904 324.81L84.744 324.81z" /></clipPath><clipPath id="111"><path d="M183.39 414.21L233.085 414.21L233.085 414.21L233.085 324.81L233.085 324.81L183.39 324.81z" /></clipPath><clipPath id="112"><path d="M183.38 414.21L233.084 414.21L233.084 414.21L233.084 324.81L233.084 324.81L183.38 324.81z" /></clipPath><clipPath id="113"><path d="M183.38 414.21L233.084 414.21L233.084 414.21L233.084 324.81L233.084 324.81L183.38 324.81z" /></clipPath><clipPath id="114"><path d="M233.57 414.21L283.61 414.21L283.61 414.21L283.61 324.81L283.61 324.81L233.57 324.81z" /></clipPath><clipPath id="115"><path d="M233.57 414.21L283.61 414.21L283.61 414.21L283.61 324.81L283.61 324.81L233.57 324.81z" /></clipPath><clipPath id="116"><path d="M233.57 414.21L283.61 414.21L283.61 414.21L283.61 324.81L283.61 324.81L233.57 324.81z" /></clipPath><clipPath id="117"><path d="M284.09 414.21L373.76 414.21L373.76 414.21L373.76 324.81L373.76 324.81L284.09 324.81z" /></clipPath><clipPath id="118"><path d="M284.09 414.21L373.754 414.21L373.754 414.21L373.754 324.81L373.754 324.81L284.09 324.81z" /></clipPath><clipPath id="119"><path d="M374.24 414.21L528.22 414.21L528.22 414.21L528.22 324.81L528.22 324.81L374.24 324.81z" /></clipPath><clipPath id="120"><path d="M374.23 414.21L528.21 414.21L528.21 414.21L528.21 324.81L528.21 324.81L374.23 324.81z" /></clipPath><clipPath id="121"><path d="M374.23 414.21L528.21 414.21L528.21 414.21L528.21 324.81L528.21 324.81L374.23 324.81z" /></clipPath><clipPath id="122"><path d="M374.23 414.21L528.21 414.21L528.21 414.21L528.21 324.81L528.21 324.81L374.23 324.81z" /></clipPath><clipPath id="123"><path d="M374.23 414.21L528.21 414.21L528.21 414.21L528.21 324.81L528.21 324.81L374.23 324.81z" /></clipPath><clipPath id="124"><path d="M374.23 414.21L528.21 414.21L528.21 414.21L528.21 324.81L528.21 324.81L374.23 324.81z" /></clipPath><clipPath id="125"><path d="M374.23 414.21L528.21 414.21L528.21 414.21L528.21 324.81L528.21 324.81L374.23 324.81z" /></clipPath><clipPath id="126"><path d="M374.23 414.21L528.21 414.21L528.21 414.21L528.21 324.81L528.21 324.81L374.23 324.81z" /></clipPath><clipPath id="127"><path d="M374.23 414.21L528.21 414.21L528.21 414.21L528.21 324.81L528.21 324.81L374.23 324.81z" /></clipPath><clipPath id="128"><path d="M374.23 414.21L528.21 414.21L528.21 414.21L528.21 324.81L528.21 324.81L374.23 324.81z" /></clipPath><clipPath id="129"><path d="M374.23 414.21L528.21 414.21L528.21 414.21L528.21 324.81L528.21 324.81L374.23 324.81z" /></clipPath><clipPath id="130"><path d="M374.23 414.21L528.21 414.21L528.21 414.21L528.21 324.81L528.21 324.81L374.23 324.81z" /></clipPath><clipPath id="131"><path d="M374.23 414.21L528.21 414.21L528.21 414.21L528.21 324.81L528.21 324.81L374.23 324.81z" /></clipPath><clipPath id="132"><path d="M374.23 414.21L528.21 414.21L528.21 414.21L528.21 324.81L528.21 324.81L374.23 324.81z" /></clipPath><clipPath id="133"><path d="M84.751 460.77L182.911 460.77L182.911 460.77L182.911 414.81L182.911 414.81L84.751 414.81z" /></clipPath><clipPath id="134"><path d="M84.744 460.77L182.904 460.77L182.904 460.77L182.904 414.81L182.904 414.81L84.744 414.81z" /></clipPath><clipPath id="135"><path d="M84.744 460.77L182.904 460.77L182.904 460.77L182.904 414.81L182.904 414.81L84.744 414.81z" /></clipPath><clipPath id="136"><path d="M183.39 460.77L233.085 460.77L233.085 460.77L233.085 414.81L233.085 414.81L183.39 414.81z" /></clipPath><clipPath id="137"><path d="M183.38 460.77L233.084 460.77L233.084 460.77L233.084 414.81L233.084 414.81L183.38 414.81z" /></clipPath><clipPath id="138"><path d="M183.38 460.77L233.084 460.77L233.084 460.77L233.084 414.81L233.084 414.81L183.38 414.81z" /></clipPath><clipPath id="139"><path d="M233.57 460.77L283.61 460.77L283.61 460.77L283.61 414.81L283.61 414.81L233.57 414.81z" /></clipPath><clipPath id="140"><path d="M233.57 460.77L283.61 460.77L283.61 460.77L283.61 414.81L283.61 414.81L233.57 414.81z" /></clipPath><clipPath id="141"><path d="M233.57 460.77L283.61 460.77L283.61 460.77L283.61 414.81L283.61 414.81L233.57 414.81z" /></clipPath><clipPath id="142"><path d="M284.09 460.77L373.76 460.77L373.76 460.77L373.76 414.81L373.76 414.81L284.09 414.81z" /></clipPath><clipPath id="143"><path d="M284.09 460.77L373.754 460.77L373.754 460.77L373.754 414.81L373.754 414.81L284.09 414.81z" /></clipPath><clipPath id="144"><path d="M284.09 460.77L373.754 460.77L373.754 460.77L373.754 414.81L373.754 414.81L284.09 414.81z" /></clipPath><clipPath id="145"><path d="M374.24 460.77L528.22 460.77L528.22 460.77L528.22 414.81L528.22 414.81L374.24 414.81z" /></clipPath><clipPath id="146"><path d="M374.23 460.77L528.21 460.77L528.21 460.77L528.21 414.81L528.21 414.81L374.23 414.81z" /></clipPath><clipPath id="147"><path d="M374.23 460.77L528.21 460.77L528.21 460.77L528.21 414.81L528.21 414.81L374.23 414.81z" /></clipPath><clipPath id="148"><path d="M374.23 460.77L528.21 460.77L528.21 460.77L528.21 414.81L528.21 414.81L374.23 414.81z" /></clipPath><clipPath id="149"><path d="M374.23 460.77L528.21 460.77L528.21 460.77L528.21 414.81L528.21 414.81L374.23 414.81z" /></clipPath><clipPath id="150"><path d="M374.23 460.77L528.21 460.77L528.21 460.77L528.21 414.81L528.21 414.81L374.23 414.81z" /></clipPath><clipPath id="151"><path d="M374.23 460.77L528.21 460.77L528.21 460.77L528.21 414.81L528.21 414.81L374.23 414.81z" /></clipPath><clipPath id="152"><path d="M84.751 499.92L510.691 499.92L510.691 499.92L510.691 480.84L510.691 480.84L84.751 480.84z" /></clipPath><clipPath id="153"><path d="M84.744 499.91L510.694 499.91L510.694 499.91L510.694 480.83L510.694 480.83L84.744 480.83z" /></clipPath><clipPath id="154"><path d="M84.744 499.91L510.694 499.91L510.694 499.91L510.694 480.83L510.694 480.83L84.744 480.83z" /></clipPath><clipPath id="155"><path d="M84.751 690.85L510.691 690.85L510.691 690.85L510.691 500.4L510.691 500.4L84.751 500.4z" /></clipPath><clipPath id="156"><path d="M84.744 690.86L510.694 690.86L510.694 690.86L510.694 500.4L510.694 500.4L84.744 500.4z" /></clipPath><clipPath id="157"><path d="M84.744 690.86L510.694 690.86L510.694 690.86L510.694 500.4L510.694 500.4L84.744 500.4z" /></clipPath><clipPath id="158"><path d="M84.744 690.86L510.694 690.86L510.694 690.86L510.694 500.4L510.694 500.4L84.744 500.4z" /></clipPath><clipPath id="159"><path d="M84.744 690.86L510.694 690.86L510.694 690.86L510.694 500.4L510.694 500.4L84.744 500.4z" /></clipPath><clipPath id="160"><path d="M84.744 690.86L510.694 690.86L510.694 690.86L510.694 500.4L510.694 500.4L84.744 500.4z" /></clipPath><clipPath id="161"><path d="M84.744 690.86L510.694 690.86L510.694 690.86L510.694 500.4L510.694 500.4L84.744 500.4z" /></clipPath><clipPath id="162"><path d="M84.744 690.86L510.694 690.86L510.694 690.86L510.694 500.4L510.694 500.4L84.744 500.4z" /></clipPath><clipPath id="163"><path d="M84.744 690.86L510.694 690.86L510.694 690.86L510.694 500.4L510.694 500.4L84.744 500.4z" /></clipPath><clipPath id="164"><path d="M84.744 690.86L510.694 690.86L510.694 690.86L510.694 500.4L510.694 500.4L84.744 500.4z" /></clipPath><clipPath id="165"><path d="M84.744 690.86L510.694 690.86L510.694 690.86L510.694 500.4L510.694 500.4L84.744 500.4z" /></clipPath><clipPath id="166"><path d="M84.744 690.86L510.694 690.86L510.694 690.86L510.694 500.4L510.694 500.4L84.744 500.4z" /></clipPath><clipPath id="167"><path d="M84.744 690.86L510.694 690.86L510.694 690.86L510.694 500.4L510.694 500.4L84.744 500.4z" /></clipPath><clipPath id="168"><path d="M84.744 690.86L510.694 690.86L510.694 690.86L510.694 500.4L510.694 500.4L84.744 500.4z" /></clipPath><clipPath id="169"><path d="M84.744 690.86L510.694 690.86L510.694 690.86L510.694 500.4L510.694 500.4L84.744 500.4z" /></clipPath><clipPath id="170"><path d="M84.744 690.86L510.694 690.86L510.694 690.86L510.694 500.4L510.694 500.4L84.744 500.4z" /></clipPath><clipPath id="171"><path d="M84.744 690.86L510.694 690.86L510.694 690.86L510.694 500.4L510.694 500.4L84.744 500.4z" /></clipPath><clipPath id="172"><path d="M84.744 690.86L510.694 690.86L510.694 690.86L510.694 500.4L510.694 500.4L84.744 500.4z" /></clipPath><clipPath id="173"><path d="M84.744 690.86L510.694 690.86L510.694 690.86L510.694 500.4L510.694 500.4L84.744 500.4z" /></clipPath><clipPath id="174"><path d="M84.744 690.86L510.694 690.86L510.694 690.86L510.694 500.4L510.694 500.4L84.744 500.4z" /></clipPath><clipPath id="175"><path d="M84.744 690.86L510.694 690.86L510.694 690.86L510.694 500.4L510.694 500.4L84.744 500.4z" /></clipPath><clipPath id="176"><path d="M84.744 690.86L510.694 690.86L510.694 690.86L510.694 500.4L510.694 500.4L84.744 500.4z" /></clipPath><clipPath id="177"><path d="M84.744 690.86L510.694 690.86L510.694 690.86L510.694 500.4L510.694 500.4L84.744 500.4z" /></clipPath><clipPath id="178"><path d="M84.744 690.86L510.694 690.86L510.694 690.86L510.694 500.4L510.694 500.4L84.744 500.4z" /></clipPath><clipPath id="179"><path d="M84.744 690.86L510.694 690.86L510.694 690.86L510.694 500.4L510.694 500.4L84.744 500.4z" /></clipPath><clipPath id="180"><path d="M84.744 690.86L510.694 690.86L510.694 690.86L510.694 500.4L510.694 500.4L84.744 500.4z" /></clipPath><clipPath id="181"><path d="M84.744 690.86L510.694 690.86L510.694 690.86L510.694 500.4L510.694 500.4L84.744 500.4z" /></clipPath><clipPath id="182"><path d="M84.744 690.86L510.694 690.86L510.694 690.86L510.694 500.4L510.694 500.4L84.744 500.4z" /></clipPath><clipPath id="183"><path d="M84.744 690.86L510.694 690.86L510.694 690.86L510.694 500.4L510.694 500.4L84.744 500.4z" /></clipPath><clipPath id="184"><path d="M84.744 690.86L510.694 690.86L510.694 690.86L510.694 500.4L510.694 500.4L84.744 500.4z" /></clipPath><clipPath id="185"><path d="M84.744 690.86L510.694 690.86L510.694 690.86L510.694 500.4L510.694 500.4L84.744 500.4z" /></clipPath><clipPath id="186"><path d="M84.744 690.86L510.694 690.86L510.694 690.86L510.694 500.4L510.694 500.4L84.744 500.4z" /></clipPath><clipPath id="187"><path d="M84.744 690.86L510.694 690.86L510.694 690.86L510.694 500.4L510.694 500.4L84.744 500.4z" /></clipPath><clipPath id="188"><path d="M84.744 690.86L510.694 690.86L510.694 690.86L510.694 500.4L510.694 500.4L84.744 500.4z" /></clipPath><clipPath id="189"><path d="M84.744 690.86L510.694 690.86L510.694 690.86L510.694 500.4L510.694 500.4L84.744 500.4z" /></clipPath><clipPath id="190"><path d="M84.744 690.86L510.694 690.86L510.694 690.86L510.694 500.4L510.694 500.4L84.744 500.4z" /></clipPath><clipPath id="191"><path d="M84.744 690.86L510.694 690.86L510.694 690.86L510.694 500.4L510.694 500.4L84.744 500.4z" /></clipPath><clipPath id="192"><path d="M84.744 690.86L510.694 690.86L510.694 690.86L510.694 500.4L510.694 500.4L84.744 500.4z" /></clipPath><clipPath id="193"><path d="M84.744 690.86L510.694 690.86L510.694 690.86L510.694 500.4L510.694 500.4L84.744 500.4z" /></clipPath></defs><g transform="matrix(1.333333 0 0 1.333333 0 0)"><g><g clip-path="url(#1)"><path transform="matrix(1 0 0 -1 0 841)" d="M457.51 53.304L505.534 53.304L505.534 53.304L505.534 53.90404L505.534 53.90404L457.51 53.90404z" stroke="none" fill="#000000" fill-rule="evenodd" /><g clip-path="url(#2)"><path transform="matrix(1 0 0 -1 0 841)" d="M88.464 77.904L506.974 77.904L506.974 77.904L506.974 80.904L506.974 80.904L88.464 80.904z" stroke="none" fill="#000000" fill-rule="evenodd" /><path transform="matrix(1 0 0 -1 0 841)" d="M88.464 76.464L506.974 76.464L506.974 76.464L506.974 77.18397L506.974 77.18397L88.464 77.18397z" stroke="none" fill="#000000" fill-rule="evenodd" /></g><g clip-path="url(#3)"><g clip-path="url(#4)"></g><g clip-path="url(#5)"></g></g><path transform="matrix(1 0 0 -1 0 841)" d="M84.744 723.22L182.904 723.22L182.904 723.22L182.904 751.564L182.904 751.564L84.744 751.564z" stroke="none" fill="#0070C0" fill-rule="evenodd" /><g clip-path="url(#6)"><path transform="matrix(1 0 0 -1 0 841)" d="M89.904 723.94L177.744 723.94L177.744 723.94L177.744 751.564L177.744 751.564L89.904 751.564z" stroke="none" fill="#0070C0" fill-rule="evenodd" /><g clip-path="url(#7)"></g><g clip-path="url(#8)"></g></g><path transform="matrix(1 0 0 -1 0 841)" d="M183.38 723.22L233.084 723.22L233.084 723.22L233.084 751.564L233.084 751.564L183.38 751.564z" stroke="none" fill="#0070C0" fill-rule="evenodd" /><g clip-path="url(#9)"><path transform="matrix(1 0 0 -1 0 841)" d="M188.54 723.94L227.924 723.94L227.924 723.94L227.924 751.564L227.924 751.564L188.54 751.564z" stroke="none" fill="#0070C0" fill-rule="evenodd" /><g clip-path="url(#10)"></g><g clip-path="url(#11)"></g></g><path transform="matrix(1 0 0 -1 0 841)" d="M233.57 723.22L283.61 723.22L283.61 723.22L283.61 751.564L283.61 751.564L233.57 751.564z" stroke="none" fill="#0070C0" fill-rule="evenodd" /><g clip-path="url(#12)"><path transform="matrix(1 0 0 -1 0 841)" d="M238.73 723.94L278.45 723.94L278.45 723.94L278.45 751.564L278.45 751.564L238.73 751.564z" stroke="none" fill="#0070C0" fill-rule="evenodd" /><g clip-path="url(#13)"></g><g clip-path="url(#14)"></g></g><path transform="matrix(1 0 0 -1 0 841)" d="M284.09 723.22L373.754 723.22L373.754 723.22L373.754 751.564L373.754 751.564L284.09 751.564z" stroke="none" fill="#0070C0" fill-rule="evenodd" /><g clip-path="url(#15)"><path transform="matrix(1 0 0 -1 0 841)" d="M289.25 723.94L368.594 723.94L368.594 723.94L368.594 751.564L368.594 751.564L289.25 751.564z" stroke="none" fill="#0070C0" fill-rule="evenodd" /><g clip-path="url(#16)"></g><g clip-path="url(#17)"></g></g><path transform="matrix(1 0 0 -1 0 841)" d="M374.23 723.22L528.21 723.22L528.21 723.22L528.21 751.564L528.21 751.564L374.23 751.564z" stroke="none" fill="#0070C0" fill-rule="evenodd" /><g clip-path="url(#18)"><path transform="matrix(1 0 0 -1 0 841)" d="M379.39 723.94L523.05 723.94L523.05 723.94L523.05 751.564L523.05 751.564L379.39 751.564z" stroke="none" fill="#0070C0" fill-rule="evenodd" /><g clip-path="url(#19)"></g><g clip-path="url(#20)"></g></g><path transform="matrix(1 0 0 -1 0 841)" d="M84.264 751.56L84.744 751.56L84.744 751.56L84.744 752.04L84.744 752.04L84.264 752.04z" stroke="none" fill="#000000" fill-rule="evenodd" /><path transform="matrix(1 0 0 -1 0 841)" d="M84.264 751.56L84.744 751.56L84.744 751.56L84.744 752.04L84.744 752.04L84.264 752.04z" stroke="none" fill="#000000" fill-rule="evenodd" /><path transform="matrix(1 0 0 -1 0 841)" d="M84.744 751.56L182.904 751.56L182.904 751.56L182.904 752.04L182.904 752.04L84.744 752.04z" stroke="none" fill="#000000" fill-rule="evenodd" /><path transform="matrix(1 0 0 -1 0 841)" d="M182.9 751.56L183.38 751.56L183.38 751.56L183.38 752.04L183.38 752.04L182.9 752.04z" stroke="none" fill="#000000" fill-rule="evenodd" /><path transform="matrix(1 0 0 -1 0 841)" d="M183.38 751.56L233.084 751.56L233.084 751.56L233.084 752.04L233.084 752.04L183.38 752.04z" stroke="none" fill="#000000" fill-rule="evenodd" /><path transform="matrix(1 0 0 -1 0 841)" d="M233.09 751.56L233.57 751.56L233.57 751.56L233.57 752.04L233.57 752.04L233.09 752.04z" stroke="none" fill="#000000" fill-rule="evenodd" /><path transform="matrix(1 0 0 -1 0 841)" d="M233.57 751.56L283.61 751.56L283.61 751.56L283.61 752.04L283.61 752.04L233.57 752.04z" stroke="none" fill="#000000" fill-rule="evenodd" /><path transform="matrix(1 0 0 -1 0 841)" d="M283.61 751.56L284.09 751.56L284.09 751.56L284.09 752.04L284.09 752.04L283.61 752.04z" stroke="none" fill="#000000" fill-rule="evenodd" /><path transform="matrix(1 0 0 -1 0 841)" d="M284.09 751.56L373.874 751.56L373.874 751.56L373.874 752.04L373.874 752.04L284.09 752.04z" stroke="none" fill="#000000" fill-rule="evenodd" /><path transform="matrix(1 0 0 -1 0 841)" d="M373.87 751.56L374.35 751.56L374.35 751.56L374.35 752.04L374.35 752.04L373.87 752.04z" stroke="none" fill="#000000" fill-rule="evenodd" /><path transform="matrix(1 0 0 -1 0 841)" d="M374.35 751.56L528.21 751.56L528.21 751.56L528.21 752.04L528.21 752.04L374.35 752.04z" stroke="none" fill="#000000" fill-rule="evenodd" /><path transform="matrix(1 0 0 -1 0 841)" d="M528.22 751.56L528.7 751.56L528.7 751.56L528.7 752.04L528.7 752.04L528.22 752.04z" stroke="none" fill="#000000" fill-rule="evenodd" /><path transform="matrix(1 0 0 -1 0 841)" d="M528.22 751.56L528.7 751.56L528.7 751.56L528.7 752.04L528.7 752.04L528.22 752.04z" stroke="none" fill="#000000" fill-rule="evenodd" /><path transform="matrix(1 0 0 -1 0 841)" d="M84.264 723.22L84.744 723.22L84.744 723.22L84.744 751.564L84.744 751.564L84.264 751.564z" stroke="none" fill="#000000" fill-rule="evenodd" /><path transform="matrix(1 0 0 -1 0 841)" d="M182.9 723.22L183.38 723.22L183.38 723.22L183.38 751.564L183.38 751.564L182.9 751.564z" stroke="none" fill="#000000" fill-rule="evenodd" /><path transform="matrix(1 0 0 -1 0 841)" d="M233.09 723.22L233.57 723.22L233.57 723.22L233.57 751.564L233.57 751.564L233.09 751.564z" stroke="none" fill="#000000" fill-rule="evenodd" /><path transform="matrix(1 0 0 -1 0 841)" d="M283.61 723.22L284.09 723.22L284.09 723.22L284.09 751.564L284.09 751.564L283.61 751.564z" stroke="none" fill="#000000" fill-rule="evenodd" /><path transform="matrix(1 0 0 -1 0 841)" d="M373.87 723.22L374.35 723.22L374.35 723.22L374.35 751.564L374.35 751.564L373.87 751.564z" stroke="none" fill="#000000" fill-rule="evenodd" /><path transform="matrix(1 0 0 -1 0 841)" d="M528.22 723.22L528.7 723.22L528.7 723.22L528.7 751.564L528.7 751.564L528.22 751.564z" stroke="none" fill="#000000" fill-rule="evenodd" /><g clip-path="url(#21)"><g clip-path="url(#22)"></g><g clip-path="url(#23)"></g></g><g clip-path="url(#24)"><g clip-path="url(#25)"></g><g clip-path="url(#26)"></g></g><g clip-path="url(#27)"><g clip-path="url(#28)"></g><g clip-path="url(#29)"></g></g><g clip-path="url(#30)"><g clip-path="url(#31)"></g></g><g clip-path="url(#32)"><g clip-path="url(#33)"></g><g clip-path="url(#34)"></g><g clip-path="url(#35)"></g><g clip-path="url(#36)"></g><g clip-path="url(#37)"></g><g clip-path="url(#38)"></g><g clip-path="url(#39)"></g><g clip-path="url(#40)"></g><g clip-path="url(#41)"></g><g clip-path="url(#42)"></g><g clip-path="url(#43)"></g><g clip-path="url(#44)"></g><g clip-path="url(#45)"></g><g clip-path="url(#46)"></g><g clip-path="url(#47)"></g><g clip-path="url(#48)"></g><g clip-path="url(#49)"></g><g clip-path="url(#50)"></g><g clip-path="url(#51)"></g><g clip-path="url(#52)"></g><g clip-path="url(#53)"></g><g clip-path="url(#54)"></g><g clip-path="url(#55)"></g><g clip-path="url(#56)"></g><g clip-path="url(#57)"></g><g clip-path="url(#58)"></g></g><path transform="matrix(1 0 0 -1 0 841)" d="M84.264 722.74L84.744 722.74L84.744 722.74L84.744 723.22L84.744 723.22L84.264 723.22z" stroke="none" fill="#000000" fill-rule="evenodd" /><path transform="matrix(1 0 0 -1 0 841)" d="M84.744 722.74L182.904 722.74L182.904 722.74L182.904 723.22L182.904 723.22L84.744 723.22z" stroke="none" fill="#000000" fill-rule="evenodd" /><path transform="matrix(1 0 0 -1 0 841)" d="M182.9 722.74L183.38 722.74L183.38 722.74L183.38 723.22L183.38 723.22L182.9 723.22z" stroke="none" fill="#000000" fill-rule="evenodd" /><path transform="matrix(1 0 0 -1 0 841)" d="M183.38 722.74L233.084 722.74L233.084 722.74L233.084 723.22L233.084 723.22L183.38 723.22z" stroke="none" fill="#000000" fill-rule="evenodd" /><path transform="matrix(1 0 0 -1 0 841)" d="M233.09 722.74L233.57 722.74L233.57 722.74L233.57 723.22L233.57 723.22L233.09 723.22z" stroke="none" fill="#000000" fill-rule="evenodd" /><path transform="matrix(1 0 0 -1 0 841)" d="M233.57 722.74L283.61 722.74L283.61 722.74L283.61 723.22L283.61 723.22L233.57 723.22z" stroke="none" fill="#000000" fill-rule="evenodd" /><path transform="matrix(1 0 0 -1 0 841)" d="M283.61 722.74L284.09 722.74L284.09 722.74L284.09 723.22L284.09 723.22L283.61 723.22z" stroke="none" fill="#000000" fill-rule="evenodd" /><path transform="matrix(1 0 0 -1 0 841)" d="M284.09 722.74L373.874 722.74L373.874 722.74L373.874 723.22L373.874 723.22L284.09 723.22z" stroke="none" fill="#000000" fill-rule="evenodd" /><path transform="matrix(1 0 0 -1 0 841)" d="M373.87 722.74L374.35 722.74L374.35 722.74L374.35 723.22L374.35 723.22L373.87 723.22z" stroke="none" fill="#000000" fill-rule="evenodd" /><path transform="matrix(1 0 0 -1 0 841)" d="M374.35 722.74L528.21 722.74L528.21 722.74L528.21 723.22L528.21 723.22L374.35 723.22z" stroke="none" fill="#000000" fill-rule="evenodd" /><path transform="matrix(1 0 0 -1 0 841)" d="M528.22 722.74L528.7 722.74L528.7 722.74L528.7 723.22L528.7 723.22L528.22 723.22z" stroke="none" fill="#000000" fill-rule="evenodd" /><path transform="matrix(1 0 0 -1 0 841)" d="M84.264 694.3L84.744 694.3L84.744 694.3L84.744 722.74L84.744 722.74L84.264 722.74z" stroke="none" fill="#000000" fill-rule="evenodd" /><path transform="matrix(1 0 0 -1 0 841)" d="M182.9 694.3L183.38 694.3L183.38 694.3L183.38 722.74L183.38 722.74L182.9 722.74z" stroke="none" fill="#000000" fill-rule="evenodd" /><path transform="matrix(1 0 0 -1 0 841)" d="M233.09 694.3L233.57 694.3L233.57 694.3L233.57 722.74L233.57 722.74L233.09 722.74z" stroke="none" fill="#000000" fill-rule="evenodd" /><path transform="matrix(1 0 0 -1 0 841)" d="M283.61 694.3L284.09 694.3L284.09 694.3L284.09 722.74L284.09 722.74L283.61 722.74z" stroke="none" fill="#000000" fill-rule="evenodd" /><path transform="matrix(1 0 0 -1 0 841)" d="M373.87 694.3L374.35 694.3L374.35 694.3L374.35 722.74L374.35 722.74L373.87 722.74z" stroke="none" fill="#000000" fill-rule="evenodd" /><path transform="matrix(1 0 0 -1 0 841)" d="M528.22 694.3L528.7 694.3L528.7 694.3L528.7 722.74L528.7 722.74L528.22 722.74z" stroke="none" fill="#000000" fill-rule="evenodd" /><path transform="matrix(1 0 0 -1 0 841)" d="M84.744 596.62L182.904 596.62L182.904 596.62L182.904 693.82L182.904 693.82L84.744 693.82z" stroke="none" fill="#DAEEF3" fill-rule="evenodd" /><g clip-path="url(#59)"><path transform="matrix(1 0 0 -1 0 841)" d="M89.904 667.3L177.744 667.3L177.744 667.3L177.744 693.82L177.744 693.82L89.904 693.82z" stroke="none" fill="#DAEEF3" fill-rule="evenodd" /><g clip-path="url(#60)"></g><g clip-path="url(#61)"></g></g><path transform="matrix(1 0 0 -1 0 841)" d="M183.38 596.62L233.084 596.62L233.084 596.62L233.084 693.82L233.084 693.82L183.38 693.82z" stroke="none" fill="#DAEEF3" fill-rule="evenodd" /><g clip-path="url(#62)"><path transform="matrix(1 0 0 -1 0 841)" d="M188.54 667.3L227.924 667.3L227.924 667.3L227.924 693.82L227.924 693.82L188.54 693.82z" stroke="none" fill="#DAEEF3" fill-rule="evenodd" /><g clip-path="url(#63)"></g><g clip-path="url(#64)"></g></g><path transform="matrix(1 0 0 -1 0 841)" d="M233.57 596.62L283.61 596.62L283.61 596.62L283.61 693.82L283.61 693.82L233.57 693.82z" stroke="none" fill="#DAEEF3" fill-rule="evenodd" /><g clip-path="url(#65)"><path transform="matrix(1 0 0 -1 0 841)" d="M238.73 666.22L278.45 666.22L278.45 666.22L278.45 693.8199L278.45 693.8199L238.73 693.8199z" stroke="none" fill="#DAEEF3" fill-rule="evenodd" /><g clip-path="url(#66)"></g><g clip-path="url(#67)"></g></g><path transform="matrix(1 0 0 -1 0 841)" d="M284.09 596.62L373.754 596.62L373.754 596.62L373.754 693.82L373.754 693.82L284.09 693.82z" stroke="none" fill="#DAEEF3" fill-rule="evenodd" /><g clip-path="url(#68)"><path transform="matrix(1 0 0 -1 0 841)" d="M289.25 667.3L368.594 667.3L368.594 667.3L368.594 693.82L368.594 693.82L289.25 693.82z" stroke="none" fill="#DAEEF3" fill-rule="evenodd" /><g clip-path="url(#69)"></g></g><path transform="matrix(1 0 0 -1 0 841)" d="M84.264 693.82L84.744 693.82L84.744 693.82L84.744 694.3L84.744 694.3L84.264 694.3z" stroke="none" fill="#000000" fill-rule="evenodd" /><path transform="matrix(1 0 0 -1 0 841)" d="M84.744 693.82L182.904 693.82L182.904 693.82L182.904 694.3L182.904 694.3L84.744 694.3z" stroke="none" fill="#000000" fill-rule="evenodd" /><path transform="matrix(1 0 0 -1 0 841)" d="M182.9 693.82L183.38 693.82L183.38 693.82L183.38 694.3L183.38 694.3L182.9 694.3z" stroke="none" fill="#000000" fill-rule="evenodd" /><path transform="matrix(1 0 0 -1 0 841)" d="M183.38 693.82L233.084 693.82L233.084 693.82L233.084 694.3L233.084 694.3L183.38 694.3z" stroke="none" fill="#000000" fill-rule="evenodd" /><path transform="matrix(1 0 0 -1 0 841)" d="M233.09 693.82L233.57 693.82L233.57 693.82L233.57 694.3L233.57 694.3L233.09 694.3z" stroke="none" fill="#000000" fill-rule="evenodd" /><path transform="matrix(1 0 0 -1 0 841)" d="M233.57 693.82L283.61 693.82L283.61 693.82L283.61 694.3L283.61 694.3L233.57 694.3z" stroke="none" fill="#000000" fill-rule="evenodd" /><path transform="matrix(1 0 0 -1 0 841)" d="M283.61 693.82L284.09 693.82L284.09 693.82L284.09 694.3L284.09 694.3L283.61 694.3z" stroke="none" fill="#000000" fill-rule="evenodd" /><path transform="matrix(1 0 0 -1 0 841)" d="M284.09 693.82L373.874 693.82L373.874 693.82L373.874 694.3L373.874 694.3L284.09 694.3z" stroke="none" fill="#000000" fill-rule="evenodd" /><path transform="matrix(1 0 0 -1 0 841)" d="M373.87 693.82L374.35 693.82L374.35 693.82L374.35 694.3L374.35 694.3L373.87 694.3z" stroke="none" fill="#000000" fill-rule="evenodd" /><path transform="matrix(1 0 0 -1 0 841)" d="M528.22 693.82L528.7 693.82L528.7 693.82L528.7 694.3L528.7 694.3L528.22 694.3z" stroke="none" fill="#000000" fill-rule="evenodd" /><path transform="matrix(1 0 0 -1 0 841)" d="M84.264 596.62L84.744 596.62L84.744 596.62L84.744 693.82L84.744 693.82L84.264 693.82z" stroke="none" fill="#000000" fill-rule="evenodd" /><path transform="matrix(1 0 0 -1 0 841)" d="M182.9 596.62L183.38 596.62L183.38 596.62L183.38 693.82L183.38 693.82L182.9 693.82z" stroke="none" fill="#000000" fill-rule="evenodd" /><path transform="matrix(1 0 0 -1 0 841)" d="M233.09 596.62L233.57 596.62L233.57 596.62L233.57 693.82L233.57 693.82L233.09 693.82z" stroke="none" fill="#000000" fill-rule="evenodd" /><path transform="matrix(1 0 0 -1 0 841)" d="M283.61 596.62L284.09 596.62L284.09 596.62L284.09 693.82L284.09 693.82L283.61 693.82z" stroke="none" fill="#000000" fill-rule="evenodd" /><path transform="matrix(1 0 0 -1 0 841)" d="M373.87 596.62L374.35 596.62L374.35 596.62L374.35 693.82L374.35 693.82L373.87 693.82z" stroke="none" fill="#000000" fill-rule="evenodd" /><path transform="matrix(1 0 0 -1 0 841)" d="M528.22 596.62L528.7 596.62L528.7 596.62L528.7 693.82L528.7 693.82L528.22 693.82z" stroke="none" fill="#000000" fill-rule="evenodd" /><g clip-path="url(#70)"><g clip-path="url(#71)"></g><g clip-path="url(#72)"></g></g><g clip-path="url(#73)"><g clip-path="url(#74)"></g><g clip-path="url(#75)"></g></g><g clip-path="url(#76)"><g clip-path="url(#77)"></g><g clip-path="url(#78)"></g></g><g clip-path="url(#79)"><g clip-path="url(#80)"></g><g clip-path="url(#81)"></g></g><g clip-path="url(#82)"><g clip-path="url(#83)"></g><g clip-path="url(#84)"></g><g clip-path="url(#85)"></g><g clip-path="url(#86)"></g><g clip-path="url(#87)"></g><g clip-path="url(#88)"></g><g clip-path="url(#89)"></g><g clip-path="url(#90)"></g><g clip-path="url(#91)"></g><g clip-path="url(#92)"></g></g><path transform="matrix(1 0 0 -1 0 841)" d="M84.264 596.14L84.744 596.14L84.744 596.14L84.744 596.62L84.744 596.62L84.264 596.62z" stroke="none" fill="#000000" fill-rule="evenodd" /><path transform="matrix(1 0 0 -1 0 841)" d="M84.744 596.14L182.904 596.14L182.904 596.14L182.904 596.62L182.904 596.62L84.744 596.62z" stroke="none" fill="#000000" fill-rule="evenodd" /><path transform="matrix(1 0 0 -1 0 841)" d="M182.9 596.14L183.38 596.14L183.38 596.14L183.38 596.62L183.38 596.62L182.9 596.62z" stroke="none" fill="#000000" fill-rule="evenodd" /><path transform="matrix(1 0 0 -1 0 841)" d="M183.38 596.14L233.084 596.14L233.084 596.14L233.084 596.62L233.084 596.62L183.38 596.62z" stroke="none" fill="#000000" fill-rule="evenodd" /><path transform="matrix(1 0 0 -1 0 841)" d="M233.09 596.14L233.57 596.14L233.57 596.14L233.57 596.62L233.57 596.62L233.09 596.62z" stroke="none" fill="#000000" fill-rule="evenodd" /><path transform="matrix(1 0 0 -1 0 841)" d="M233.57 596.14L283.61 596.14L283.61 596.14L283.61 596.62L283.61 596.62L233.57 596.62z" stroke="none" fill="#000000" fill-rule="evenodd" /><path transform="matrix(1 0 0 -1 0 841)" d="M283.61 596.14L284.09 596.14L284.09 596.14L284.09 596.62L284.09 596.62L283.61 596.62z" stroke="none" fill="#000000" fill-rule="evenodd" /><path transform="matrix(1 0 0 -1 0 841)" d="M284.09 596.14L373.874 596.14L373.874 596.14L373.874 596.62L373.874 596.62L284.09 596.62z" stroke="none" fill="#000000" fill-rule="evenodd" /><path transform="matrix(1 0 0 -1 0 841)" d="M373.87 596.14L374.35 596.14L374.35 596.14L374.35 596.62L374.35 596.62L373.87 596.62z" stroke="none" fill="#000000" fill-rule="evenodd" /><path transform="matrix(1 0 0 -1 0 841)" d="M374.35 596.14L528.21 596.14L528.21 596.14L528.21 596.62L528.21 596.62L374.35 596.62z" stroke="none" fill="#000000" fill-rule="evenodd" /><path transform="matrix(1 0 0 -1 0 841)" d="M528.22 596.14L528.7 596.14L528.7 596.14L528.7 596.62L528.7 596.62L528.22 596.62z" stroke="none" fill="#000000" fill-rule="evenodd" /><path transform="matrix(1 0 0 -1 0 841)" d="M84.264 545.59L84.744 545.59L84.744 545.59L84.744 596.134L84.744 596.134L84.264 596.134z" stroke="none" fill="#000000" fill-rule="evenodd" /><path transform="matrix(1 0 0 -1 0 841)" d="M182.9 545.59L183.38 545.59L183.38 545.59L183.38 596.134L183.38 596.134L182.9 596.134z" stroke="none" fill="#000000" fill-rule="evenodd" /><path transform="matrix(1 0 0 -1 0 841)" d="M233.09 545.59L233.57 545.59L233.57 545.59L233.57 596.134L233.57 596.134L233.09 596.134z" stroke="none" fill="#000000" fill-rule="evenodd" /><path transform="matrix(1 0 0 -1 0 841)" d="M283.61 545.59L284.09 545.59L284.09 545.59L284.09 596.134L284.09 596.134L283.61 596.134z" stroke="none" fill="#000000" fill-rule="evenodd" /><path transform="matrix(1 0 0 -1 0 841)" d="M373.87 545.59L374.35 545.59L374.35 545.59L374.35 596.134L374.35 596.134L373.87 596.134z" stroke="none" fill="#000000" fill-rule="evenodd" /><path transform="matrix(1 0 0 -1 0 841)" d="M528.22 545.59L528.7 545.59L528.7 545.59L528.7 596.134L528.7 596.134L528.22 596.134z" stroke="none" fill="#000000" fill-rule="evenodd" /><path transform="matrix(1 0 0 -1 0 841)" d="M84.744 516.67L182.904 516.67L182.904 516.67L182.904 545.11L182.904 545.11L84.744 545.11z" stroke="none" fill="#DAEEF3" fill-rule="evenodd" /><g clip-path="url(#93)"><path transform="matrix(1 0 0 -1 0 841)" d="M89.904 518.47L177.744 518.47L177.744 518.47L177.744 545.11L177.744 545.11L89.904 545.11z" stroke="none" fill="#DAEEF3" fill-rule="evenodd" /><g clip-path="url(#94)"></g><g clip-path="url(#95)"></g></g><path transform="matrix(1 0 0 -1 0 841)" d="M183.38 516.67L233.084 516.67L233.084 516.67L233.084 545.11L233.084 545.11L183.38 545.11z" stroke="none" fill="#DAEEF3" fill-rule="evenodd" /><g clip-path="url(#96)"><path transform="matrix(1 0 0 -1 0 841)" d="M188.54 518.47L227.924 518.47L227.924 518.47L227.924 545.11L227.924 545.11L188.54 545.11z" stroke="none" fill="#DAEEF3" fill-rule="evenodd" /><g clip-path="url(#97)"></g><g clip-path="url(#98)"></g></g><path transform="matrix(1 0 0 -1 0 841)" d="M233.57 516.67L283.61 516.67L283.61 516.67L283.61 545.11L283.61 545.11L233.57 545.11z" stroke="none" fill="#DAEEF3" fill-rule="evenodd" /><g clip-path="url(#99)"><path transform="matrix(1 0 0 -1 0 841)" d="M238.73 517.39L278.45 517.39L278.45 517.39L278.45 545.11L278.45 545.11L238.73 545.11z" stroke="none" fill="#DAEEF3" fill-rule="evenodd" /><g clip-path="url(#100)"></g><g clip-path="url(#101)"></g></g><path transform="matrix(1 0 0 -1 0 841)" d="M284.09 516.67L373.754 516.67L373.754 516.67L373.754 545.11L373.754 545.11L284.09 545.11z" stroke="none" fill="#DAEEF3" fill-rule="evenodd" /><g clip-path="url(#102)"><path transform="matrix(1 0 0 -1 0 841)" d="M289.25 518.47L368.594 518.47L368.594 518.47L368.594 545.11L368.594 545.11L289.25 545.11z" stroke="none" fill="#DAEEF3" fill-rule="evenodd" /><g clip-path="url(#103)"></g><g clip-path="url(#104)"></g></g><path transform="matrix(1 0 0 -1 0 841)" d="M374.23 516.67L528.21 516.67L528.21 516.67L528.21 545.11L528.21 545.11L374.23 545.11z" stroke="none" fill="#DAEEF3" fill-rule="evenodd" /><g clip-path="url(#105)"><path transform="matrix(1 0 0 -1 0 841)" d="M379.39 517.39L523.05 517.39L523.05 517.39L523.05 545.11L523.05 545.11L379.39 545.11z" stroke="none" fill="#DAEEF3" fill-rule="evenodd" /><g clip-path="url(#106)"></g><g clip-path="url(#107)"></g></g><path transform="matrix(1 0 0 -1 0 841)" d="M84.264 545.11L84.744 545.11L84.744 545.11L84.744 545.59L84.744 545.59L84.264 545.59z" stroke="none" fill="#000000" fill-rule="evenodd" /><path transform="matrix(1 0 0 -1 0 841)" d="M84.744 545.11L182.904 545.11L182.904 545.11L182.904 545.59L182.904 545.59L84.744 545.59z" stroke="none" fill="#000000" fill-rule="evenodd" /><path transform="matrix(1 0 0 -1 0 841)" d="M182.9 545.11L183.38 545.11L183.38 545.11L183.38 545.59L183.38 545.59L182.9 545.59z" stroke="none" fill="#000000" fill-rule="evenodd" /><path transform="matrix(1 0 0 -1 0 841)" d="M183.38 545.11L233.084 545.11L233.084 545.11L233.084 545.59L233.084 545.59L183.38 545.59z" stroke="none" fill="#000000" fill-rule="evenodd" /><path transform="matrix(1 0 0 -1 0 841)" d="M233.09 545.11L233.57 545.11L233.57 545.11L233.57 545.59L233.57 545.59L233.09 545.59z" stroke="none" fill="#000000" fill-rule="evenodd" /><path transform="matrix(1 0 0 -1 0 841)" d="M233.57 545.11L283.61 545.11L283.61 545.11L283.61 545.59L283.61 545.59L233.57 545.59z" stroke="none" fill="#000000" fill-rule="evenodd" /><path transform="matrix(1 0 0 -1 0 841)" d="M283.61 545.11L284.09 545.11L284.09 545.11L284.09 545.59L284.09 545.59L283.61 545.59z" stroke="none" fill="#000000" fill-rule="evenodd" /><path transform="matrix(1 0 0 -1 0 841)" d="M284.09 545.11L373.874 545.11L373.874 545.11L373.874 545.59L373.874 545.59L284.09 545.59z" stroke="none" fill="#000000" fill-rule="evenodd" /><path transform="matrix(1 0 0 -1 0 841)" d="M373.87 545.11L374.35 545.11L374.35 545.11L374.35 545.59L374.35 545.59L373.87 545.59z" stroke="none" fill="#000000" fill-rule="evenodd" /><path transform="matrix(1 0 0 -1 0 841)" d="M374.35 545.11L528.21 545.11L528.21 545.11L528.21 545.59L528.21 545.59L374.35 545.59z" stroke="none" fill="#000000" fill-rule="evenodd" /><path transform="matrix(1 0 0 -1 0 841)" d="M528.22 545.11L528.7 545.11L528.7 545.11L528.7 545.59L528.7 545.59L528.22 545.59z" stroke="none" fill="#000000" fill-rule="evenodd" /><path transform="matrix(1 0 0 -1 0 841)" d="M84.264 516.67L84.744 516.67L84.744 516.67L84.744 545.11L84.744 545.11L84.264 545.11z" stroke="none" fill="#000000" fill-rule="evenodd" /><path transform="matrix(1 0 0 -1 0 841)" d="M182.9 516.67L183.38 516.67L183.38 516.67L183.38 545.11L183.38 545.11L182.9 545.11z" stroke="none" fill="#000000" fill-rule="evenodd" /><path transform="matrix(1 0 0 -1 0 841)" d="M233.09 516.67L233.57 516.67L233.57 516.67L233.57 545.11L233.57 545.11L233.09 545.11z" stroke="none" fill="#000000" fill-rule="evenodd" /><path transform="matrix(1 0 0 -1 0 841)" d="M283.61 516.67L284.09 516.67L284.09 516.67L284.09 545.11L284.09 545.11L283.61 545.11z" stroke="none" fill="#000000" fill-rule="evenodd" /><path transform="matrix(1 0 0 -1 0 841)" d="M373.87 516.67L374.35 516.67L374.35 516.67L374.35 545.11L374.35 545.11L373.87 545.11z" stroke="none" fill="#000000" fill-rule="evenodd" /><path transform="matrix(1 0 0 -1 0 841)" d="M528.22 516.67L528.7 516.67L528.7 516.67L528.7 545.11L528.7 545.11L528.22 545.11z" stroke="none" fill="#000000" fill-rule="evenodd" /><g clip-path="url(#108)"><g clip-path="url(#109)"></g><g clip-path="url(#110)"></g></g><g clip-path="url(#111)"><g clip-path="url(#112)"></g><g clip-path="url(#113)"></g></g><g clip-path="url(#114)"><g clip-path="url(#115)"></g><g clip-path="url(#116)"></g></g><g clip-path="url(#117)"><g clip-path="url(#118)"></g></g><g clip-path="url(#119)"><g clip-path="url(#120)"></g><g clip-path="url(#121)"></g><g clip-path="url(#122)"></g><g clip-path="url(#123)"></g><g clip-path="url(#124)"></g><g clip-path="url(#125)"></g><g clip-path="url(#126)"></g><g clip-path="url(#127)"></g><g clip-path="url(#128)"></g><g clip-path="url(#129)"></g><path transform="matrix(1 0 0 -1 0 841)" d="M509.02 447.31L523.06 447.31L523.06 447.31L523.06 448.03L523.06 448.03L509.02 448.03z" stroke="none" fill="#548DD4" fill-rule="evenodd" /><g clip-path="url(#130)"></g><g clip-path="url(#131)"></g><g clip-path="url(#132)"></g><path transform="matrix(1 0 0 -1 0 841)" d="M385.39 428.59L427.51 428.59L427.51 428.59L427.51 429.31L427.51 429.31L385.39 429.31z" stroke="none" fill="#548DD4" fill-rule="evenodd" /></g><path transform="matrix(1 0 0 -1 0 841)" d="M84.264 516.19L84.744 516.19L84.744 516.19L84.744 516.67L84.744 516.67L84.264 516.67z" stroke="none" fill="#000000" fill-rule="evenodd" /><path transform="matrix(1 0 0 -1 0 841)" d="M84.744 516.19L182.904 516.19L182.904 516.19L182.904 516.67L182.904 516.67L84.744 516.67z" stroke="none" fill="#000000" fill-rule="evenodd" /><path transform="matrix(1 0 0 -1 0 841)" d="M182.9 516.19L183.38 516.19L183.38 516.19L183.38 516.67L183.38 516.67L182.9 516.67z" stroke="none" fill="#000000" fill-rule="evenodd" /><path transform="matrix(1 0 0 -1 0 841)" d="M183.38 516.19L233.084 516.19L233.084 516.19L233.084 516.67L233.084 516.67L183.38 516.67z" stroke="none" fill="#000000" fill-rule="evenodd" /><path transform="matrix(1 0 0 -1 0 841)" d="M233.09 516.19L233.57 516.19L233.57 516.19L233.57 516.67L233.57 516.67L233.09 516.67z" stroke="none" fill="#000000" fill-rule="evenodd" /><path transform="matrix(1 0 0 -1 0 841)" d="M233.57 516.19L283.61 516.19L283.61 516.19L283.61 516.67L283.61 516.67L233.57 516.67z" stroke="none" fill="#000000" fill-rule="evenodd" /><path transform="matrix(1 0 0 -1 0 841)" d="M283.61 516.19L284.09 516.19L284.09 516.19L284.09 516.67L284.09 516.67L283.61 516.67z" stroke="none" fill="#000000" fill-rule="evenodd" /><path transform="matrix(1 0 0 -1 0 841)" d="M284.09 516.19L373.874 516.19L373.874 516.19L373.874 516.67L373.874 516.67L284.09 516.67z" stroke="none" fill="#000000" fill-rule="evenodd" /><path transform="matrix(1 0 0 -1 0 841)" d="M373.87 516.19L374.35 516.19L374.35 516.19L374.35 516.67L374.35 516.67L373.87 516.67z" stroke="none" fill="#000000" fill-rule="evenodd" /><path transform="matrix(1 0 0 -1 0 841)" d="M374.35 516.19L528.21 516.19L528.21 516.19L528.21 516.67L528.21 516.67L374.35 516.67z" stroke="none" fill="#000000" fill-rule="evenodd" /><path transform="matrix(1 0 0 -1 0 841)" d="M528.22 516.19L528.7 516.19L528.7 516.19L528.7 516.67L528.7 516.67L528.22 516.67z" stroke="none" fill="#000000" fill-rule="evenodd" /><path transform="matrix(1 0 0 -1 0 841)" d="M84.264 426.79L84.744 426.79L84.744 426.79L84.744 516.19L84.744 516.19L84.264 516.19z" stroke="none" fill="#000000" fill-rule="evenodd" /><path transform="matrix(1 0 0 -1 0 841)" d="M182.9 426.79L183.38 426.79L183.38 426.79L183.38 516.19L183.38 516.19L182.9 516.19z" stroke="none" fill="#000000" fill-rule="evenodd" /><path transform="matrix(1 0 0 -1 0 841)" d="M233.09 426.79L233.57 426.79L233.57 426.79L233.57 516.19L233.57 516.19L233.09 516.19z" stroke="none" fill="#000000" fill-rule="evenodd" /><path transform="matrix(1 0 0 -1 0 841)" d="M283.61 426.79L284.09 426.79L284.09 426.79L284.09 516.19L284.09 516.19L283.61 516.19z" stroke="none" fill="#000000" fill-rule="evenodd" /><path transform="matrix(1 0 0 -1 0 841)" d="M373.87 426.79L374.35 426.79L374.35 426.79L374.35 516.19L374.35 516.19L373.87 516.19z" stroke="none" fill="#000000" fill-rule="evenodd" /><path transform="matrix(1 0 0 -1 0 841)" d="M528.22 426.79L528.7 426.79L528.7 426.79L528.7 516.19L528.7 516.19L528.22 516.19z" stroke="none" fill="#000000" fill-rule="evenodd" /><path transform="matrix(1 0 0 -1 0 841)" d="M84.744 380.23L182.904 380.23L182.904 380.23L182.904 426.19L182.904 426.19L84.744 426.19z" stroke="none" fill="#DAEEF3" fill-rule="evenodd" /><g clip-path="url(#133)"><path transform="matrix(1 0 0 -1 0 841)" d="M89.904 402.07L177.744 402.07L177.744 402.07L177.744 426.19L177.744 426.19L89.904 426.19z" stroke="none" fill="#DAEEF3" fill-rule="evenodd" /><g clip-path="url(#134)"></g><g clip-path="url(#135)"></g></g><path transform="matrix(1 0 0 -1 0 841)" d="M183.38 380.23L233.084 380.23L233.084 380.23L233.084 426.19L233.084 426.19L183.38 426.19z" stroke="none" fill="#DAEEF3" fill-rule="evenodd" /><g clip-path="url(#136)"><path transform="matrix(1 0 0 -1 0 841)" d="M188.54 402.07L227.924 402.07L227.924 402.07L227.924 426.19L227.924 426.19L188.54 426.19z" stroke="none" fill="#DAEEF3" fill-rule="evenodd" /><g clip-path="url(#137)"></g><g clip-path="url(#138)"></g></g><path transform="matrix(1 0 0 -1 0 841)" d="M233.57 380.23L283.61 380.23L283.61 380.23L283.61 426.19L283.61 426.19L233.57 426.19z" stroke="none" fill="#DAEEF3" fill-rule="evenodd" /><g clip-path="url(#139)"><path transform="matrix(1 0 0 -1 0 841)" d="M238.73 401.23L278.45 401.23L278.45 401.23L278.45 426.19L278.45 426.19L238.73 426.19z" stroke="none" fill="#DAEEF3" fill-rule="evenodd" /><g clip-path="url(#140)"></g><g clip-path="url(#141)"></g></g><path transform="matrix(1 0 0 -1 0 841)" d="M284.09 380.23L373.754 380.23L373.754 380.23L373.754 426.19L373.754 426.19L284.09 426.19z" stroke="none" fill="#DAEEF3" fill-rule="evenodd" /><g clip-path="url(#142)"><path transform="matrix(1 0 0 -1 0 841)" d="M289.25 402.07L368.594 402.07L368.594 402.07L368.594 426.19L368.594 426.19L289.25 426.19z" stroke="none" fill="#DAEEF3" fill-rule="evenodd" /><g clip-path="url(#143)"></g><g clip-path="url(#144)"></g></g><path transform="matrix(1 0 0 -1 0 841)" d="M374.23 380.23L528.21 380.23L528.21 380.23L528.21 426.19L528.21 426.19L374.23 426.19z" stroke="none" fill="#DAEEF3" fill-rule="evenodd" /><g clip-path="url(#145)"><path transform="matrix(1 0 0 -1 0 841)" d="M379.39 395.83L523.05 395.83L523.05 395.83L523.05 426.19L523.05 426.19L379.39 426.19z" stroke="none" fill="#DAEEF3" fill-rule="evenodd" /><g clip-path="url(#146)"></g><g clip-path="url(#147)"></g><g clip-path="url(#148)"></g><g clip-path="url(#149)"></g><path transform="matrix(1 0 0 -1 0 841)" d="M379.39 380.23L523.05 380.23L523.05 380.23L523.05 395.83L523.05 395.83L379.39 395.83z" stroke="none" fill="#DAEEF3" fill-rule="evenodd" /><g clip-path="url(#150)"></g><g clip-path="url(#151)"></g><path transform="matrix(1 0 0 -1 0 841)" d="M385.39 381.55L433.39 381.55L433.39 381.55L433.39 382.15L433.39 382.15L385.39 382.15z" stroke="none" fill="#000000" fill-rule="evenodd" /></g><path transform="matrix(1 0 0 -1 0 841)" d="M84.264 426.31L84.744 426.31L84.744 426.31L84.744 426.79L84.744 426.79L84.264 426.79z" stroke="none" fill="#000000" fill-rule="evenodd" /><path transform="matrix(1 0 0 -1 0 841)" d="M84.744 426.31L182.904 426.31L182.904 426.31L182.904 426.79L182.904 426.79L84.744 426.79z" stroke="none" fill="#000000" fill-rule="evenodd" /><path transform="matrix(1 0 0 -1 0 841)" d="M182.9 426.31L183.38 426.31L183.38 426.31L183.38 426.79L183.38 426.79L182.9 426.79z" stroke="none" fill="#000000" fill-rule="evenodd" /><path transform="matrix(1 0 0 -1 0 841)" d="M183.38 426.31L233.084 426.31L233.084 426.31L233.084 426.79L233.084 426.79L183.38 426.79z" stroke="none" fill="#000000" fill-rule="evenodd" /><path transform="matrix(1 0 0 -1 0 841)" d="M233.09 426.31L233.57 426.31L233.57 426.31L233.57 426.79L233.57 426.79L233.09 426.79z" stroke="none" fill="#000000" fill-rule="evenodd" /><path transform="matrix(1 0 0 -1 0 841)" d="M233.57 426.31L283.61 426.31L283.61 426.31L283.61 426.79L283.61 426.79L233.57 426.79z" stroke="none" fill="#000000" fill-rule="evenodd" /><path transform="matrix(1 0 0 -1 0 841)" d="M283.61 426.31L284.09 426.31L284.09 426.31L284.09 426.79L284.09 426.79L283.61 426.79z" stroke="none" fill="#000000" fill-rule="evenodd" /><path transform="matrix(1 0 0 -1 0 841)" d="M284.09 426.31L373.874 426.31L373.874 426.31L373.874 426.79L373.874 426.79L284.09 426.79z" stroke="none" fill="#000000" fill-rule="evenodd" /><path transform="matrix(1 0 0 -1 0 841)" d="M373.87 426.31L374.35 426.31L374.35 426.31L374.35 426.79L374.35 426.79L373.87 426.79z" stroke="none" fill="#000000" fill-rule="evenodd" /><path transform="matrix(1 0 0 -1 0 841)" d="M374.35 426.31L528.21 426.31L528.21 426.31L528.21 426.79L528.21 426.79L374.35 426.79z" stroke="none" fill="#000000" fill-rule="evenodd" /><path transform="matrix(1 0 0 -1 0 841)" d="M528.22 426.31L528.7 426.31L528.7 426.31L528.7 426.79L528.7 426.79L528.22 426.79z" stroke="none" fill="#000000" fill-rule="evenodd" /><path transform="matrix(1 0 0 -1 0 841)" d="M84.264 380.23L84.744 380.23L84.744 380.23L84.744 426.31L84.744 426.31L84.264 426.31z" stroke="none" fill="#000000" fill-rule="evenodd" /><path transform="matrix(1 0 0 -1 0 841)" d="M84.264 379.75L84.744 379.75L84.744 379.75L84.744 380.23L84.744 380.23L84.264 380.23z" stroke="none" fill="#000000" fill-rule="evenodd" /><path transform="matrix(1 0 0 -1 0 841)" d="M84.264 379.75L84.744 379.75L84.744 379.75L84.744 380.23L84.744 380.23L84.264 380.23z" stroke="none" fill="#000000" fill-rule="evenodd" /><path transform="matrix(1 0 0 -1 0 841)" d="M84.744 379.75L182.904 379.75L182.904 379.75L182.904 380.23L182.904 380.23L84.744 380.23z" stroke="none" fill="#000000" fill-rule="evenodd" /><path transform="matrix(1 0 0 -1 0 841)" d="M182.9 380.23L183.38 380.23L183.38 380.23L183.38 426.31L183.38 426.31L182.9 426.31z" stroke="none" fill="#000000" fill-rule="evenodd" /><path transform="matrix(1 0 0 -1 0 841)" d="M182.9 379.75L183.38 379.75L183.38 379.75L183.38 380.23L183.38 380.23L182.9 380.23z" stroke="none" fill="#000000" fill-rule="evenodd" /><path transform="matrix(1 0 0 -1 0 841)" d="M183.38 379.75L233.084 379.75L233.084 379.75L233.084 380.23L233.084 380.23L183.38 380.23z" stroke="none" fill="#000000" fill-rule="evenodd" /><path transform="matrix(1 0 0 -1 0 841)" d="M233.09 380.23L233.57 380.23L233.57 380.23L233.57 426.31L233.57 426.31L233.09 426.31z" stroke="none" fill="#000000" fill-rule="evenodd" /><path transform="matrix(1 0 0 -1 0 841)" d="M233.09 379.75L233.57 379.75L233.57 379.75L233.57 380.23L233.57 380.23L233.09 380.23z" stroke="none" fill="#000000" fill-rule="evenodd" /><path transform="matrix(1 0 0 -1 0 841)" d="M233.57 379.75L283.61 379.75L283.61 379.75L283.61 380.23L283.61 380.23L233.57 380.23z" stroke="none" fill="#000000" fill-rule="evenodd" /><path transform="matrix(1 0 0 -1 0 841)" d="M283.61 380.23L284.09 380.23L284.09 380.23L284.09 426.31L284.09 426.31L283.61 426.31z" stroke="none" fill="#000000" fill-rule="evenodd" /><path transform="matrix(1 0 0 -1 0 841)" d="M283.61 379.75L284.09 379.75L284.09 379.75L284.09 380.23L284.09 380.23L283.61 380.23z" stroke="none" fill="#000000" fill-rule="evenodd" /><path transform="matrix(1 0 0 -1 0 841)" d="M284.09 379.75L373.874 379.75L373.874 379.75L373.874 380.23L373.874 380.23L284.09 380.23z" stroke="none" fill="#000000" fill-rule="evenodd" /><path transform="matrix(1 0 0 -1 0 841)" d="M373.87 380.23L374.35 380.23L374.35 380.23L374.35 426.31L374.35 426.31L373.87 426.31z" stroke="none" fill="#000000" fill-rule="evenodd" /><path transform="matrix(1 0 0 -1 0 841)" d="M373.87 379.75L374.35 379.75L374.35 379.75L374.35 380.23L374.35 380.23L373.87 380.23z" stroke="none" fill="#000000" fill-rule="evenodd" /><path transform="matrix(1 0 0 -1 0 841)" d="M374.35 379.75L528.21 379.75L528.21 379.75L528.21 380.23L528.21 380.23L374.35 380.23z" stroke="none" fill="#000000" fill-rule="evenodd" /><path transform="matrix(1 0 0 -1 0 841)" d="M528.22 380.23L528.7 380.23L528.7 380.23L528.7 426.31L528.7 426.31L528.22 426.31z" stroke="none" fill="#000000" fill-rule="evenodd" /><path transform="matrix(1 0 0 -1 0 841)" d="M528.22 379.75L528.7 379.75L528.7 379.75L528.7 380.23L528.7 380.23L528.22 380.23z" stroke="none" fill="#000000" fill-rule="evenodd" /><path transform="matrix(1 0 0 -1 0 841)" d="M528.22 379.75L528.7 379.75L528.7 379.75L528.7 380.23L528.7 380.23L528.22 380.23z" stroke="none" fill="#000000" fill-rule="evenodd" /><path transform="matrix(1 0 0 -1 0 841)" d="M84.744 341.09L510.694 341.09L510.694 341.09L510.694 360.17L510.694 360.17L84.744 360.17z" stroke="none" fill="#0070C0" fill-rule="evenodd" /><g clip-path="url(#152)"><path transform="matrix(1 0 0 -1 0 841)" d="M89.904 341.09L505.534 341.09L505.534 341.09L505.534 360.17L505.534 360.17L89.904 360.17z" stroke="none" fill="#0070C0" fill-rule="evenodd" /><g clip-path="url(#153)"></g><g clip-path="url(#154)"></g></g><path transform="matrix(1 0 0 -1 0 841)" d="M84.264 360.17L84.744 360.17L84.744 360.17L84.744 360.65L84.744 360.65L84.264 360.65z" stroke="none" fill="#000000" fill-rule="evenodd" /><path transform="matrix(1 0 0 -1 0 841)" d="M84.264 360.17L84.744 360.17L84.744 360.17L84.744 360.65L84.744 360.65L84.264 360.65z" stroke="none" fill="#000000" fill-rule="evenodd" /><path transform="matrix(1 0 0 -1 0 841)" d="M84.744 360.17L510.694 360.17L510.694 360.17L510.694 360.65L510.694 360.65L84.744 360.65z" stroke="none" fill="#000000" fill-rule="evenodd" /><path transform="matrix(1 0 0 -1 0 841)" d="M510.7 360.17L511.18 360.17L511.18 360.17L511.18 360.65L511.18 360.65L510.7 360.65z" stroke="none" fill="#000000" fill-rule="evenodd" /><path transform="matrix(1 0 0 -1 0 841)" d="M510.7 360.17L511.18 360.17L511.18 360.17L511.18 360.65L511.18 360.65L510.7 360.65z" stroke="none" fill="#000000" fill-rule="evenodd" /><path transform="matrix(1 0 0 -1 0 841)" d="M84.264 341.09L84.744 341.09L84.744 341.09L84.744 360.17L84.744 360.17L84.264 360.17z" stroke="none" fill="#000000" fill-rule="evenodd" /><path transform="matrix(1 0 0 -1 0 841)" d="M510.7 341.09L511.18 341.09L511.18 341.09L511.18 360.17L511.18 360.17L510.7 360.17z" stroke="none" fill="#000000" fill-rule="evenodd" /><path transform="matrix(1 0 0 -1 0 841)" d="M84.744 150.14L510.694 150.14L510.694 150.14L510.694 340.6L510.694 340.6L84.744 340.6z" stroke="none" fill="#DAEEF3" fill-rule="evenodd" /><g clip-path="url(#155)"><path transform="matrix(1 0 0 -1 0 841)" d="M89.904 321.65L505.534 321.65L505.534 321.65L505.534 340.61L505.534 340.61L89.904 340.61z" stroke="none" fill="#DAEEF3" fill-rule="evenodd" /><g clip-path="url(#156)"></g><g clip-path="url(#157)"></g><path transform="matrix(1 0 0 -1 0 841)" d="M89.904 302.57L505.534 302.57L505.534 302.57L505.534 321.65L505.534 321.65L89.904 321.65z" stroke="none" fill="#DAEEF3" fill-rule="evenodd" /><g clip-path="url(#158)"></g><g clip-path="url(#159)"></g><path transform="matrix(1 0 0 -1 0 841)" d="M89.904 283.49L505.534 283.49L505.534 283.49L505.534 302.57L505.534 302.57L89.904 302.57z" stroke="none" fill="#DAEEF3" fill-rule="evenodd" /><g clip-path="url(#160)"></g><g clip-path="url(#161)"></g><g clip-path="url(#162)"></g><g clip-path="url(#163)"></g><path transform="matrix(1 0 0 -1 0 841)" d="M89.904 264.41L505.534 264.41L505.534 264.41L505.534 283.49L505.534 283.49L89.904 283.49z" stroke="none" fill="#DAEEF3" fill-rule="evenodd" /><g clip-path="url(#164)"></g><g clip-path="url(#165)"></g><path transform="matrix(1 0 0 -1 0 841)" d="M89.904 245.45L505.534 245.45L505.534 245.45L505.534 264.41L505.534 264.41L89.904 264.41z" stroke="none" fill="#DAEEF3" fill-rule="evenodd" /><g clip-path="url(#166)"></g><g clip-path="url(#167)"></g><path transform="matrix(1 0 0 -1 0 841)" d="M89.904 226.37L505.534 226.37L505.534 226.37L505.534 245.45L505.534 245.45L89.904 245.45z" stroke="none" fill="#DAEEF3" fill-rule="evenodd" /><g clip-path="url(#168)"></g><g clip-path="url(#169)"></g><g clip-path="url(#170)"></g><g clip-path="url(#171)"></g><g clip-path="url(#172)"></g><g clip-path="url(#173)"></g><g clip-path="url(#174)"></g><g clip-path="url(#175)"></g><g clip-path="url(#176)"></g><g clip-path="url(#177)"></g><path transform="matrix(1 0 0 -1 0 841)" d="M89.904 207.29L505.534 207.29L505.534 207.29L505.534 226.37L505.534 226.37L89.904 226.37z" stroke="none" fill="#DAEEF3" fill-rule="evenodd" /><g clip-path="url(#178)"></g><g clip-path="url(#179)"></g><g clip-path="url(#180)"></g><g clip-path="url(#181)"></g><g clip-path="url(#182)"></g><g clip-path="url(#183)"></g><g clip-path="url(#184)"></g><g clip-path="url(#185)"></g><g clip-path="url(#186)"></g><g clip-path="url(#187)"></g><path transform="matrix(1 0 0 -1 0 841)" d="M89.904 188.21L505.534 188.21L505.534 188.21L505.534 207.29L505.534 207.29L89.904 207.29z" stroke="none" fill="#DAEEF3" fill-rule="evenodd" /><g clip-path="url(#188)"></g><g clip-path="url(#189)"></g><path transform="matrix(1 0 0 -1 0 841)" d="M89.904 169.22L505.534 169.22L505.534 169.22L505.534 188.204L505.534 188.204L89.904 188.204z" stroke="none" fill="#DAEEF3" fill-rule="evenodd" /><g clip-path="url(#190)"></g><g clip-path="url(#191)"></g><path transform="matrix(1 0 0 -1 0 841)" d="M89.904 150.14L505.534 150.14L505.534 150.14L505.534 169.22L505.534 169.22L89.904 169.22z" stroke="none" fill="#DAEEF3" fill-rule="evenodd" /><g clip-path="url(#192)"></g><g clip-path="url(#193)"></g></g><path transform="matrix(1 0 0 -1 0 841)" d="M84.264 340.61L84.744 340.61L84.744 340.61L84.744 341.09L84.744 341.09L84.264 341.09z" stroke="none" fill="#000000" fill-rule="evenodd" /><path transform="matrix(1 0 0 -1 0 841)" d="M84.744 340.61L510.694 340.61L510.694 340.61L510.694 341.09L510.694 341.09L84.744 341.09z" stroke="none" fill="#000000" fill-rule="evenodd" /><path transform="matrix(1 0 0 -1 0 841)" d="M510.7 340.61L511.18 340.61L511.18 340.61L511.18 341.09L511.18 341.09L510.7 341.09z" stroke="none" fill="#000000" fill-rule="evenodd" /><path transform="matrix(1 0 0 -1 0 841)" d="M84.264 150.14L84.744 150.14L84.744 150.14L84.744 340.6L84.744 340.6L84.264 340.6z" stroke="none" fill="#000000" fill-rule="evenodd" /><path transform="matrix(1 0 0 -1 0 841)" d="M84.264 149.66L84.744 149.66L84.744 149.66L84.744 150.14L84.744 150.14L84.264 150.14z" stroke="none" fill="#000000" fill-rule="evenodd" /><path transform="matrix(1 0 0 -1 0 841)" d="M84.264 149.66L84.744 149.66L84.744 149.66L84.744 150.14L84.744 150.14L84.264 150.14z" stroke="none" fill="#000000" fill-rule="evenodd" /><path transform="matrix(1 0 0 -1 0 841)" d="M84.744 149.66L510.694 149.66L510.694 149.66L510.694 150.14L510.694 150.14L84.744 150.14z" stroke="none" fill="#000000" fill-rule="evenodd" /><path transform="matrix(1 0 0 -1 0 841)" d="M510.7 150.14L511.18 150.14L511.18 150.14L511.18 340.6L511.18 340.6L510.7 340.6z" stroke="none" fill="#000000" fill-rule="evenodd" /><path transform="matrix(1 0 0 -1 0 841)" d="M510.7 149.66L511.18 149.66L511.18 149.66L511.18 150.14L511.18 150.14L510.7 150.14z" stroke="none" fill="#000000" fill-rule="evenodd" /><path transform="matrix(1 0 0 -1 0 841)" d="M510.7 149.66L511.18 149.66L511.18 149.66L511.18 150.14L511.18 150.14L510.7 150.14z" stroke="none" fill="#000000" fill-rule="evenodd" /></g></g></g></svg>