<svg xmlns="http://www.w3.org/2000/svg" xmlns:xlink="http://www.w3.org/1999/xlink" id="body_184" preserveAspectRatio="xMinYMin meet" viewBox="0 0 793 1121"><defs><clipPath id="1"><path d="M0 841L0 -0.9199829L0 -0.9199829L595.32 -0.9199829L595.32 -0.9199829L595.32 841L595.32 841L0 841z" /></clipPath><clipPath id="2"><path d="M0.00125 841.0914L595.4112 841.0914L595.4112 841.0914L595.4112 -0.9186401L595.4112 -0.9186401L0.00125 -0.9186401z" /></clipPath><clipPath id="3"><path d="M288.05 781.211L316.01 781.211L316.01 781.211L316.01 762.011L316.01 762.011L288.05 762.011z" /></clipPath><clipPath id="4"><path d="M288.05 781.216L316.01 781.216L316.01 781.216L316.01 762.016L316.01 762.016L288.05 762.016z" /></clipPath><clipPath id="5"><path d="M288.05 781.216L316.01 781.216L316.01 781.216L316.01 762.016L316.01 762.016L288.05 762.016z" /></clipPath><clipPath id="6"><path d="M84.751 114.55L220.611 114.55L220.611 114.55L220.611 89.44L220.611 89.44L84.751 89.44z" /></clipPath><clipPath id="7"><path d="M84.744 114.54L220.604 114.54L220.604 114.54L220.604 89.43597L220.604 89.43597L84.744 89.43597z" /></clipPath><clipPath id="8"><path d="M84.744 114.54L220.604 114.54L220.604 114.54L220.604 89.43597L220.604 89.43597L84.744 89.43597z" /></clipPath><clipPath id="9"><path d="M221.09 114.55L360.68 114.55L360.68 114.55L360.68 89.44L360.68 89.44L221.09 89.44z" /></clipPath><clipPath id="10"><path d="M221.09 114.54L360.67 114.54L360.67 114.54L360.67 89.43597L360.67 89.43597L221.09 89.43597z" /></clipPath><clipPath id="11"><path d="M221.09 114.54L360.67 114.54L360.67 114.54L360.67 89.43597L360.67 89.43597L221.09 89.43597z" /></clipPath><clipPath id="12"><path d="M361.28 114.55L510.7 114.55L510.7 114.55L510.7 89.44L510.7 89.44L361.28 89.44z" /></clipPath><clipPath id="13"><path d="M361.27 114.54L510.69 114.54L510.69 114.54L510.69 89.43597L510.69 89.43597L361.27 89.43597z" /></clipPath><clipPath id="14"><path d="M361.27 114.54L510.69 114.54L510.69 114.54L510.69 89.43597L510.69 89.43597L361.27 89.43597z" /></clipPath><clipPath id="15"><path d="M84.751 140.11L220.611 140.11L220.611 140.11L220.611 115.03L220.611 115.03L84.751 115.03z" /></clipPath><clipPath id="16"><path d="M84.744 140.1L220.604 140.1L220.604 140.1L220.604 115.02L220.604 115.02L84.744 115.02z" /></clipPath><clipPath id="17"><path d="M84.744 140.1L220.604 140.1L220.604 140.1L220.604 115.02L220.604 115.02L84.744 115.02z" /></clipPath><clipPath id="18"><path d="M221.09 140.11L360.68 140.11L360.68 140.11L360.68 115.03L360.68 115.03L221.09 115.03z" /></clipPath><clipPath id="19"><path d="M221.09 140.1L360.67 140.1L360.67 140.1L360.67 115.02L360.67 115.02L221.09 115.02z" /></clipPath><clipPath id="20"><path d="M221.09 140.1L360.67 140.1L360.67 140.1L360.67 115.02L360.67 115.02L221.09 115.02z" /></clipPath><clipPath id="21"><path d="M361.28 140.11L510.7 140.11L510.7 140.11L510.7 115.03L510.7 115.03L361.28 115.03z" /></clipPath><clipPath id="22"><path d="M361.27 140.1L510.69 140.1L510.69 140.1L510.69 115.02L510.69 115.02L361.27 115.02z" /></clipPath><clipPath id="23"><path d="M361.27 140.1L510.69 140.1L510.69 140.1L510.69 115.02L510.69 115.02L361.27 115.02z" /></clipPath><clipPath id="24"><path d="M361.27 140.1L510.69 140.1L510.69 140.1L510.69 115.02L510.69 115.02L361.27 115.02z" /></clipPath><clipPath id="25"><path d="M361.27 140.1L510.69 140.1L510.69 140.1L510.69 115.02L510.69 115.02L361.27 115.02z" /></clipPath><clipPath id="26"><path d="M84.751 322.65L220.611 322.65L220.611 322.65L220.611 140.59L220.611 140.59L84.751 140.59z" /></clipPath><clipPath id="27"><path d="M84.744 322.65L220.604 322.65L220.604 322.65L220.604 140.59L220.604 140.59L84.744 140.59z" /></clipPath><clipPath id="28"><path d="M84.744 322.65L220.604 322.65L220.604 322.65L220.604 140.59L220.604 140.59L84.744 140.59z" /></clipPath><clipPath id="29"><path d="M221.09 322.65L360.68 322.65L360.68 322.65L360.68 140.59L360.68 140.59L221.09 140.59z" /></clipPath><clipPath id="30"><path d="M221.09 322.65L360.67 322.65L360.67 322.65L360.67 140.59L360.67 140.59L221.09 140.59z" /></clipPath><clipPath id="31"><path d="M221.09 322.65L360.67 322.65L360.67 322.65L360.67 140.59L360.67 140.59L221.09 140.59z" /></clipPath><clipPath id="32"><path d="M361.28 322.65L510.7 322.65L510.7 322.65L510.7 140.59L510.7 140.59L361.28 140.59z" /></clipPath><clipPath id="33"><path d="M361.27 322.65L510.69 322.65L510.69 322.65L510.69 140.59L510.69 140.59L361.27 140.59z" /></clipPath><clipPath id="34"><path d="M361.27 322.65L510.69 322.65L510.69 322.65L510.69 140.59L510.69 140.59L361.27 140.59z" /></clipPath><clipPath id="35"><path d="M361.27 322.65L510.69 322.65L510.69 322.65L510.69 140.59L510.69 140.59L361.27 140.59z" /></clipPath><clipPath id="36"><path d="M361.27 322.65L510.69 322.65L510.69 322.65L510.69 140.59L510.69 140.59L361.27 140.59z" /></clipPath><clipPath id="37"><path d="M361.27 322.65L510.69 322.65L510.69 322.65L510.69 140.59L510.69 140.59L361.27 140.59z" /></clipPath><clipPath id="38"><path d="M361.27 322.65L510.69 322.65L510.69 322.65L510.69 140.59L510.69 140.59L361.27 140.59z" /></clipPath><clipPath id="39"><path d="M361.27 322.65L510.69 322.65L510.69 322.65L510.69 140.59L510.69 140.59L361.27 140.59z" /></clipPath><clipPath id="40"><path d="M361.27 322.65L510.69 322.65L510.69 322.65L510.69 140.59L510.69 140.59L361.27 140.59z" /></clipPath><clipPath id="41"><path d="M361.27 322.65L510.69 322.65L510.69 322.65L510.69 140.59L510.69 140.59L361.27 140.59z" /></clipPath><clipPath id="42"><path d="M361.27 322.65L510.69 322.65L510.69 322.65L510.69 140.59L510.69 140.59L361.27 140.59z" /></clipPath><clipPath id="43"><path d="M361.27 322.65L510.69 322.65L510.69 322.65L510.69 140.59L510.69 140.59L361.27 140.59z" /></clipPath><clipPath id="44"><path d="M361.27 322.65L510.69 322.65L510.69 322.65L510.69 140.59L510.69 140.59L361.27 140.59z" /></clipPath><clipPath id="45"><path d="M361.27 322.65L510.69 322.65L510.69 322.65L510.69 140.59L510.69 140.59L361.27 140.59z" /></clipPath><clipPath id="46"><path d="M361.27 322.65L510.69 322.65L510.69 322.65L510.69 140.59L510.69 140.59L361.27 140.59z" /></clipPath><clipPath id="47"><path d="M361.27 322.65L510.69 322.65L510.69 322.65L510.69 140.59L510.69 140.59L361.27 140.59z" /></clipPath><clipPath id="48"><path d="M361.27 322.65L510.69 322.65L510.69 322.65L510.69 140.59L510.69 140.59L361.27 140.59z" /></clipPath><clipPath id="49"><path d="M361.27 322.65L510.69 322.65L510.69 322.65L510.69 140.59L510.69 140.59L361.27 140.59z" /></clipPath><clipPath id="50"><path d="M361.27 322.65L510.69 322.65L510.69 322.65L510.69 140.59L510.69 140.59L361.27 140.59z" /></clipPath><clipPath id="51"><path d="M361.27 322.65L510.69 322.65L510.69 322.65L510.69 140.59L510.69 140.59L361.27 140.59z" /></clipPath><clipPath id="52"><path d="M361.27 322.65L510.69 322.65L510.69 322.65L510.69 140.59L510.69 140.59L361.27 140.59z" /></clipPath><clipPath id="53"><path d="M361.27 322.65L510.69 322.65L510.69 322.65L510.69 140.59L510.69 140.59L361.27 140.59z" /></clipPath><clipPath id="54"><path d="M361.27 322.65L510.69 322.65L510.69 322.65L510.69 140.59L510.69 140.59L361.27 140.59z" /></clipPath><clipPath id="55"><path d="M361.27 322.65L510.69 322.65L510.69 322.65L510.69 140.59L510.69 140.59L361.27 140.59z" /></clipPath><clipPath id="56"><path d="M361.27 322.65L510.69 322.65L510.69 322.65L510.69 140.59L510.69 140.59L361.27 140.59z" /></clipPath><clipPath id="57"><path d="M361.27 322.65L510.69 322.65L510.69 322.65L510.69 140.59L510.69 140.59L361.27 140.59z" /></clipPath><clipPath id="58"><path d="M361.27 322.65L510.69 322.65L510.69 322.65L510.69 140.59L510.69 140.59L361.27 140.59z" /></clipPath><clipPath id="59"><path d="M361.27 322.65L510.69 322.65L510.69 322.65L510.69 140.59L510.69 140.59L361.27 140.59z" /></clipPath><clipPath id="60"><path d="M361.27 322.65L510.69 322.65L510.69 322.65L510.69 140.59L510.69 140.59L361.27 140.59z" /></clipPath><clipPath id="61"><path d="M361.27 322.65L510.69 322.65L510.69 322.65L510.69 140.59L510.69 140.59L361.27 140.59z" /></clipPath><clipPath id="62"><path d="M361.27 322.65L510.69 322.65L510.69 322.65L510.69 140.59L510.69 140.59L361.27 140.59z" /></clipPath><clipPath id="63"><path d="M361.27 322.65L510.69 322.65L510.69 322.65L510.69 140.59L510.69 140.59L361.27 140.59z" /></clipPath><clipPath id="64"><path d="M361.27 322.65L510.69 322.65L510.69 322.65L510.69 140.59L510.69 140.59L361.27 140.59z" /></clipPath><clipPath id="65"><path d="M361.27 322.65L510.69 322.65L510.69 322.65L510.69 140.59L510.69 140.59L361.27 140.59z" /></clipPath><clipPath id="66"><path d="M84.751 349.77L220.611 349.77L220.611 349.77L220.611 323.13L220.611 323.13L84.751 323.13z" /></clipPath><clipPath id="67"><path d="M84.744 349.77L220.604 349.77L220.604 349.77L220.604 323.13L220.604 323.13L84.744 323.13z" /></clipPath><clipPath id="68"><path d="M84.744 349.77L220.604 349.77L220.604 349.77L220.604 323.13L220.604 323.13L84.744 323.13z" /></clipPath><clipPath id="69"><path d="M221.09 349.77L360.68 349.77L360.68 349.77L360.68 323.13L360.68 323.13L221.09 323.13z" /></clipPath><clipPath id="70"><path d="M221.09 349.77L360.67 349.77L360.67 349.77L360.67 323.13L360.67 323.13L221.09 323.13z" /></clipPath><clipPath id="71"><path d="M221.09 349.77L360.67 349.77L360.67 349.77L360.67 323.13L360.67 323.13L221.09 323.13z" /></clipPath><clipPath id="72"><path d="M361.28 349.77L510.7 349.77L510.7 349.77L510.7 323.13L510.7 323.13L361.28 323.13z" /></clipPath><clipPath id="73"><path d="M361.27 349.77L510.69 349.77L510.69 349.77L510.69 323.13L510.69 323.13L361.27 323.13z" /></clipPath><clipPath id="74"><path d="M361.27 349.77L510.69 349.77L510.69 349.77L510.69 323.13L510.69 323.13L361.27 323.13z" /></clipPath><clipPath id="75"><path d="M84.751 376.89L220.611 376.89L220.611 376.89L220.611 350.25L220.611 350.25L84.751 350.25z" /></clipPath><clipPath id="76"><path d="M84.744 376.89L220.604 376.89L220.604 376.89L220.604 350.25L220.604 350.25L84.744 350.25z" /></clipPath><clipPath id="77"><path d="M84.744 376.89L220.604 376.89L220.604 376.89L220.604 350.25L220.604 350.25L84.744 350.25z" /></clipPath><clipPath id="78"><path d="M84.744 376.89L220.604 376.89L220.604 376.89L220.604 350.25L220.604 350.25L84.744 350.25z" /></clipPath><clipPath id="79"><path d="M221.09 376.89L360.68 376.89L360.68 376.89L360.68 350.25L360.68 350.25L221.09 350.25z" /></clipPath><clipPath id="80"><path d="M221.09 376.89L360.67 376.89L360.67 376.89L360.67 350.25L360.67 350.25L221.09 350.25z" /></clipPath><clipPath id="81"><path d="M221.09 376.89L360.67 376.89L360.67 376.89L360.67 350.25L360.67 350.25L221.09 350.25z" /></clipPath><clipPath id="82"><path d="M221.09 376.89L360.67 376.89L360.67 376.89L360.67 350.25L360.67 350.25L221.09 350.25z" /></clipPath><clipPath id="83"><path d="M361.28 376.89L510.7 376.89L510.7 376.89L510.7 350.25L510.7 350.25L361.28 350.25z" /></clipPath><clipPath id="84"><path d="M361.27 376.89L510.69 376.89L510.69 376.89L510.69 350.25L510.69 350.25L361.27 350.25z" /></clipPath><clipPath id="85"><path d="M361.27 376.89L510.69 376.89L510.69 376.89L510.69 350.25L510.69 350.25L361.27 350.25z" /></clipPath><clipPath id="86"><path d="M84.751 404.01L220.611 404.01L220.611 404.01L220.611 377.37L220.611 377.37L84.751 377.37z" /></clipPath><clipPath id="87"><path d="M84.744 404.01L220.604 404.01L220.604 404.01L220.604 377.37L220.604 377.37L84.744 377.37z" /></clipPath><clipPath id="88"><path d="M84.744 404.01L220.604 404.01L220.604 404.01L220.604 377.37L220.604 377.37L84.744 377.37z" /></clipPath><clipPath id="89"><path d="M221.09 404.01L360.68 404.01L360.68 404.01L360.68 377.37L360.68 377.37L221.09 377.37z" /></clipPath><clipPath id="90"><path d="M221.09 404.01L360.67 404.01L360.67 404.01L360.67 377.37L360.67 377.37L221.09 377.37z" /></clipPath><clipPath id="91"><path d="M221.09 404.01L360.67 404.01L360.67 404.01L360.67 377.37L360.67 377.37L221.09 377.37z" /></clipPath><clipPath id="92"><path d="M361.28 404.01L510.7 404.01L510.7 404.01L510.7 377.37L510.7 377.37L361.28 377.37z" /></clipPath><clipPath id="93"><path d="M361.27 404.01L510.69 404.01L510.69 404.01L510.69 377.37L510.69 377.37L361.27 377.37z" /></clipPath><clipPath id="94"><path d="M361.27 404.01L510.69 404.01L510.69 404.01L510.69 377.37L510.69 377.37L361.27 377.37z" /></clipPath><clipPath id="95"><path d="M84.751 428.61L220.611 428.61L220.611 428.61L220.611 404.49L220.611 404.49L84.751 404.49z" /></clipPath><clipPath id="96"><path d="M84.744 428.61L220.604 428.61L220.604 428.61L220.604 404.49L220.604 404.49L84.744 404.49z" /></clipPath><clipPath id="97"><path d="M84.744 428.61L220.604 428.61L220.604 428.61L220.604 404.49L220.604 404.49L84.744 404.49z" /></clipPath><clipPath id="98"><path d="M84.744 428.61L220.604 428.61L220.604 428.61L220.604 404.49L220.604 404.49L84.744 404.49z" /></clipPath><clipPath id="99"><path d="M221.09 428.61L360.68 428.61L360.68 428.61L360.68 404.49L360.68 404.49L221.09 404.49z" /></clipPath><clipPath id="100"><path d="M221.09 428.61L360.67 428.61L360.67 428.61L360.67 404.49L360.67 404.49L221.09 404.49z" /></clipPath><clipPath id="101"><path d="M221.09 428.61L360.67 428.61L360.67 428.61L360.67 404.49L360.67 404.49L221.09 404.49z" /></clipPath><clipPath id="102"><path d="M361.28 428.61L510.7 428.61L510.7 428.61L510.7 404.49L510.7 404.49L361.28 404.49z" /></clipPath><clipPath id="103"><path d="M361.27 428.61L510.69 428.61L510.69 428.61L510.69 404.49L510.69 404.49L361.27 404.49z" /></clipPath><clipPath id="104"><path d="M361.27 428.61L510.69 428.61L510.69 428.61L510.69 404.49L510.69 404.49L361.27 404.49z" /></clipPath><clipPath id="105"><path d="M361.27 428.61L510.69 428.61L510.69 428.61L510.69 404.49L510.69 404.49L361.27 404.49z" /></clipPath><clipPath id="106"><path d="M361.27 428.61L510.69 428.61L510.69 428.61L510.69 404.49L510.69 404.49L361.27 404.49z" /></clipPath><clipPath id="107"><path d="M84.751 467.85L220.611 467.85L220.611 467.85L220.611 429.09L220.611 429.09L84.751 429.09z" /></clipPath><clipPath id="108"><path d="M84.744 467.85L220.604 467.85L220.604 467.85L220.604 429.09L220.604 429.09L84.744 429.09z" /></clipPath><clipPath id="109"><path d="M84.744 467.85L220.604 467.85L220.604 467.85L220.604 429.09L220.604 429.09L84.744 429.09z" /></clipPath><clipPath id="110"><path d="M84.744 467.85L220.604 467.85L220.604 467.85L220.604 429.09L220.604 429.09L84.744 429.09z" /></clipPath><clipPath id="111"><path d="M221.09 467.85L360.68 467.85L360.68 467.85L360.68 429.09L360.68 429.09L221.09 429.09z" /></clipPath><clipPath id="112"><path d="M221.09 467.85L360.67 467.85L360.67 467.85L360.67 429.09L360.67 429.09L221.09 429.09z" /></clipPath><clipPath id="113"><path d="M221.09 467.85L360.67 467.85L360.67 467.85L360.67 429.09L360.67 429.09L221.09 429.09z" /></clipPath><clipPath id="114"><path d="M221.09 467.85L360.67 467.85L360.67 467.85L360.67 429.09L360.67 429.09L221.09 429.09z" /></clipPath><clipPath id="115"><path d="M361.28 467.85L510.7 467.85L510.7 467.85L510.7 429.09L510.7 429.09L361.28 429.09z" /></clipPath><clipPath id="116"><path d="M361.27 467.85L510.69 467.85L510.69 467.85L510.69 429.09L510.69 429.09L361.27 429.09z" /></clipPath><clipPath id="117"><path d="M361.27 467.85L510.69 467.85L510.69 467.85L510.69 429.09L510.69 429.09L361.27 429.09z" /></clipPath><clipPath id="118"><path d="M361.27 467.85L510.69 467.85L510.69 467.85L510.69 429.09L510.69 429.09L361.27 429.09z" /></clipPath><clipPath id="119"><path d="M361.27 467.85L510.69 467.85L510.69 467.85L510.69 429.09L510.69 429.09L361.27 429.09z" /></clipPath><clipPath id="120"><path d="M361.27 467.85L510.69 467.85L510.69 467.85L510.69 429.09L510.69 429.09L361.27 429.09z" /></clipPath><clipPath id="121"><path d="M84.751 492.6L220.611 492.6L220.611 492.6L220.611 468.45L220.611 468.45L84.751 468.45z" /></clipPath><clipPath id="122"><path d="M84.744 492.59L220.604 492.59L220.604 492.59L220.604 468.446L220.604 468.446L84.744 468.446z" /></clipPath><clipPath id="123"><path d="M84.744 492.59L220.604 492.59L220.604 492.59L220.604 468.446L220.604 468.446L84.744 468.446z" /></clipPath><clipPath id="124"><path d="M221.09 492.6L360.68 492.6L360.68 492.6L360.68 468.45L360.68 468.45L221.09 468.45z" /></clipPath><clipPath id="125"><path d="M221.09 492.59L360.67 492.59L360.67 492.59L360.67 468.446L360.67 468.446L221.09 468.446z" /></clipPath><clipPath id="126"><path d="M221.09 492.59L360.67 492.59L360.67 492.59L360.67 468.446L360.67 468.446L221.09 468.446z" /></clipPath><clipPath id="127"><path d="M361.28 492.6L510.7 492.6L510.7 492.6L510.7 468.45L510.7 468.45L361.28 468.45z" /></clipPath><clipPath id="128"><path d="M361.27 492.59L510.69 492.59L510.69 492.59L510.69 468.446L510.69 468.446L361.27 468.446z" /></clipPath><clipPath id="129"><path d="M361.27 492.59L510.69 492.59L510.69 492.59L510.69 468.446L510.69 468.446L361.27 468.446z" /></clipPath><clipPath id="130"><path d="M84.751 550.2L220.611 550.2L220.611 550.2L220.611 493.08L220.611 493.08L84.751 493.08z" /></clipPath><clipPath id="131"><path d="M84.744 550.19L220.604 550.19L220.604 550.19L220.604 493.07L220.604 493.07L84.744 493.07z" /></clipPath><clipPath id="132"><path d="M84.744 550.19L220.604 550.19L220.604 550.19L220.604 493.07L220.604 493.07L84.744 493.07z" /></clipPath><clipPath id="133"><path d="M84.744 550.19L220.604 550.19L220.604 550.19L220.604 493.07L220.604 493.07L84.744 493.07z" /></clipPath><clipPath id="134"><path d="M221.09 550.2L360.68 550.2L360.68 550.2L360.68 493.08L360.68 493.08L221.09 493.08z" /></clipPath><clipPath id="135"><path d="M221.09 550.19L360.67 550.19L360.67 550.19L360.67 493.07L360.67 493.07L221.09 493.07z" /></clipPath><clipPath id="136"><path d="M221.09 550.19L360.67 550.19L360.67 550.19L360.67 493.07L360.67 493.07L221.09 493.07z" /></clipPath><clipPath id="137"><path d="M361.28 550.2L510.7 550.2L510.7 550.2L510.7 493.08L510.7 493.08L361.28 493.08z" /></clipPath><clipPath id="138"><path d="M361.27 550.19L510.69 550.19L510.69 550.19L510.69 493.07L510.69 493.07L361.27 493.07z" /></clipPath><clipPath id="139"><path d="M361.27 550.19L510.69 550.19L510.69 550.19L510.69 493.07L510.69 493.07L361.27 493.07z" /></clipPath><clipPath id="140"><path d="M361.27 550.19L510.69 550.19L510.69 550.19L510.69 493.07L510.69 493.07L361.27 493.07z" /></clipPath><clipPath id="141"><path d="M361.27 550.19L510.69 550.19L510.69 550.19L510.69 493.07L510.69 493.07L361.27 493.07z" /></clipPath><clipPath id="142"><path d="M361.27 550.19L510.69 550.19L510.69 550.19L510.69 493.07L510.69 493.07L361.27 493.07z" /></clipPath><clipPath id="143"><path d="M361.27 550.19L510.69 550.19L510.69 550.19L510.69 493.07L510.69 493.07L361.27 493.07z" /></clipPath><clipPath id="144"><path d="M361.27 550.19L510.69 550.19L510.69 550.19L510.69 493.07L510.69 493.07L361.27 493.07z" /></clipPath><clipPath id="145"><path d="M361.27 550.19L510.69 550.19L510.69 550.19L510.69 493.07L510.69 493.07L361.27 493.07z" /></clipPath><clipPath id="146"><path d="M361.27 550.19L510.69 550.19L510.69 550.19L510.69 493.07L510.69 493.07L361.27 493.07z" /></clipPath><clipPath id="147"><path d="M84.751 703.09L220.611 703.09L220.611 703.09L220.611 550.68L220.611 550.68L84.751 550.68z" /></clipPath><clipPath id="148"><path d="M84.744 703.1L220.604 703.1L220.604 703.1L220.604 550.68L220.604 550.68L84.744 550.68z" /></clipPath><clipPath id="149"><path d="M84.744 703.1L220.604 703.1L220.604 703.1L220.604 550.68L220.604 550.68L84.744 550.68z" /></clipPath><clipPath id="150"><path d="M84.744 703.1L220.604 703.1L220.604 703.1L220.604 550.68L220.604 550.68L84.744 550.68z" /></clipPath><clipPath id="151"><path d="M84.744 703.1L220.604 703.1L220.604 703.1L220.604 550.68L220.604 550.68L84.744 550.68z" /></clipPath><clipPath id="152"><path d="M221.09 703.09L360.68 703.09L360.68 703.09L360.68 550.68L360.68 550.68L221.09 550.68z" /></clipPath><clipPath id="153"><path d="M221.09 703.1L360.67 703.1L360.67 703.1L360.67 550.68L360.67 550.68L221.09 550.68z" /></clipPath><clipPath id="154"><path d="M221.09 703.1L360.67 703.1L360.67 703.1L360.67 550.68L360.67 550.68L221.09 550.68z" /></clipPath><clipPath id="155"><path d="M361.28 703.09L510.7 703.09L510.7 703.09L510.7 550.68L510.7 550.68L361.28 550.68z" /></clipPath><clipPath id="156"><path d="M361.27 703.1L510.69 703.1L510.69 703.1L510.69 550.68L510.69 550.68L361.27 550.68z" /></clipPath><clipPath id="157"><path d="M361.27 703.1L510.69 703.1L510.69 703.1L510.69 550.68L510.69 550.68L361.27 550.68z" /></clipPath><clipPath id="158"><path d="M361.27 703.1L510.69 703.1L510.69 703.1L510.69 550.68L510.69 550.68L361.27 550.68z" /></clipPath><clipPath id="159"><path d="M361.27 703.1L510.69 703.1L510.69 703.1L510.69 550.68L510.69 550.68L361.27 550.68z" /></clipPath><clipPath id="160"><path d="M361.27 703.1L510.69 703.1L510.69 703.1L510.69 550.68L510.69 550.68L361.27 550.68z" /></clipPath><clipPath id="161"><path d="M361.27 703.1L510.69 703.1L510.69 703.1L510.69 550.68L510.69 550.68L361.27 550.68z" /></clipPath><clipPath id="162"><path d="M361.27 703.1L510.69 703.1L510.69 703.1L510.69 550.68L510.69 550.68L361.27 550.68z" /></clipPath><clipPath id="163"><path d="M361.27 703.1L510.69 703.1L510.69 703.1L510.69 550.68L510.69 550.68L361.27 550.68z" /></clipPath><clipPath id="164"><path d="M361.27 703.1L510.69 703.1L510.69 703.1L510.69 550.68L510.69 550.68L361.27 550.68z" /></clipPath><clipPath id="165"><path d="M361.27 703.1L510.69 703.1L510.69 703.1L510.69 550.68L510.69 550.68L361.27 550.68z" /></clipPath><clipPath id="166"><path d="M361.27 703.1L510.69 703.1L510.69 703.1L510.69 550.68L510.69 550.68L361.27 550.68z" /></clipPath><clipPath id="167"><path d="M361.27 703.1L510.69 703.1L510.69 703.1L510.69 550.68L510.69 550.68L361.27 550.68z" /></clipPath><clipPath id="168"><path d="M361.27 703.1L510.69 703.1L510.69 703.1L510.69 550.68L510.69 550.68L361.27 550.68z" /></clipPath><clipPath id="169"><path d="M361.27 703.1L510.69 703.1L510.69 703.1L510.69 550.68L510.69 550.68L361.27 550.68z" /></clipPath><clipPath id="170"><path d="M361.27 703.1L510.69 703.1L510.69 703.1L510.69 550.68L510.69 550.68L361.27 550.68z" /></clipPath><clipPath id="171"><path d="M361.27 703.1L510.69 703.1L510.69 703.1L510.69 550.68L510.69 550.68L361.27 550.68z" /></clipPath><clipPath id="172"><path d="M361.27 703.1L510.69 703.1L510.69 703.1L510.69 550.68L510.69 550.68L361.27 550.68z" /></clipPath><clipPath id="173"><path d="M361.27 703.1L510.69 703.1L510.69 703.1L510.69 550.68L510.69 550.68L361.27 550.68z" /></clipPath><clipPath id="174"><path d="M361.27 703.1L510.69 703.1L510.69 703.1L510.69 550.68L510.69 550.68L361.27 550.68z" /></clipPath><clipPath id="175"><path d="M361.27 703.1L510.69 703.1L510.69 703.1L510.69 550.68L510.69 550.68L361.27 550.68z" /></clipPath><clipPath id="176"><path d="M361.27 703.1L510.69 703.1L510.69 703.1L510.69 550.68L510.69 550.68L361.27 550.68z" /></clipPath><clipPath id="177"><path d="M361.27 703.1L510.69 703.1L510.69 703.1L510.69 550.68L510.69 550.68L361.27 550.68z" /></clipPath><clipPath id="178"><path d="M361.27 703.1L510.69 703.1L510.69 703.1L510.69 550.68L510.69 550.68L361.27 550.68z" /></clipPath><clipPath id="179"><path d="M361.27 703.1L510.69 703.1L510.69 703.1L510.69 550.68L510.69 550.68L361.27 550.68z" /></clipPath><clipPath id="180"><path d="M361.27 703.1L510.69 703.1L510.69 703.1L510.69 550.68L510.69 550.68L361.27 550.68z" /></clipPath><clipPath id="181"><path d="M84.751 727.81L220.611 727.81L220.611 727.81L220.611 703.69L220.611 703.69L84.751 703.69z" /></clipPath><clipPath id="182"><path d="M84.744 727.82L220.604 727.82L220.604 727.82L220.604 703.7L220.604 703.7L84.744 703.7z" /></clipPath><clipPath id="183"><path d="M84.744 727.82L220.604 727.82L220.604 727.82L220.604 703.7L220.604 703.7L84.744 703.7z" /></clipPath><clipPath id="184"><path d="M221.09 727.81L360.68 727.81L360.68 727.81L360.68 703.69L360.68 703.69L221.09 703.69z" /></clipPath><clipPath id="185"><path d="M221.09 727.82L360.67 727.82L360.67 727.82L360.67 703.7L360.67 703.7L221.09 703.7z" /></clipPath><clipPath id="186"><path d="M221.09 727.82L360.67 727.82L360.67 727.82L360.67 703.7L360.67 703.7L221.09 703.7z" /></clipPath><clipPath id="187"><path d="M361.28 727.81L510.7 727.81L510.7 727.81L510.7 703.69L510.7 703.69L361.28 703.69z" /></clipPath><clipPath id="188"><path d="M361.27 727.82L510.69 727.82L510.69 727.82L510.69 703.7L510.69 703.7L361.27 703.7z" /></clipPath><clipPath id="189"><path d="M361.27 727.82L510.69 727.82L510.69 727.82L510.69 703.7L510.69 703.7L361.27 703.7z" /></clipPath></defs><g transform="matrix(1.333333 0 0 1.333333 0 0)"><g><g clip-path="url(#1)"><path transform="matrix(1 0 0 -1 0 841)" d="M457.51 53.304L505.534 53.304L505.534 53.304L505.534 53.90404L505.534 53.90404L457.51 53.90404z" stroke="none" fill="#000000" fill-rule="evenodd" /><g clip-path="url(#2)"><path transform="matrix(1 0 0 -1 0 841)" d="M88.464 77.904L506.974 77.904L506.974 77.904L506.974 80.904L506.974 80.904L88.464 80.904z" stroke="none" fill="#000000" fill-rule="evenodd" /><path transform="matrix(1 0 0 -1 0 841)" d="M88.464 76.464L506.974 76.464L506.974 76.464L506.974 77.18397L506.974 77.18397L88.464 77.18397z" stroke="none" fill="#000000" fill-rule="evenodd" /></g><g clip-path="url(#3)"><g clip-path="url(#4)"></g><g clip-path="url(#5)"></g></g><path transform="matrix(1 0 0 -1 0 841)" d="M84.744 726.46L220.604 726.46L220.604 726.46L220.604 751.564L220.604 751.564L84.744 751.564z" stroke="none" fill="#0070C0" fill-rule="evenodd" /><g clip-path="url(#6)"><path transform="matrix(1 0 0 -1 0 841)" d="M89.904 726.46L215.444 726.46L215.444 726.46L215.444 751.564L215.444 751.564L89.904 751.564z" stroke="none" fill="#0070C0" fill-rule="evenodd" /><g clip-path="url(#7)"></g><g clip-path="url(#8)"></g></g><path transform="matrix(1 0 0 -1 0 841)" d="M221.09 726.46L360.67 726.46L360.67 726.46L360.67 751.564L360.67 751.564L221.09 751.564z" stroke="none" fill="#0070C0" fill-rule="evenodd" /><g clip-path="url(#9)"><path transform="matrix(1 0 0 -1 0 841)" d="M226.25 726.46L355.63 726.46L355.63 726.46L355.63 751.564L355.63 751.564L226.25 751.564z" stroke="none" fill="#0070C0" fill-rule="evenodd" /><g clip-path="url(#10)"></g><g clip-path="url(#11)"></g></g><path transform="matrix(1 0 0 -1 0 841)" d="M361.27 726.46L510.69 726.46L510.69 726.46L510.69 751.564L510.69 751.564L361.27 751.564z" stroke="none" fill="#0070C0" fill-rule="evenodd" /><g clip-path="url(#12)"><path transform="matrix(1 0 0 -1 0 841)" d="M366.43 726.46L505.53 726.46L505.53 726.46L505.53 751.564L505.53 751.564L366.43 751.564z" stroke="none" fill="#0070C0" fill-rule="evenodd" /><g clip-path="url(#13)"></g><g clip-path="url(#14)"></g></g><path transform="matrix(1 0 0 -1 0 841)" d="M84.264 751.56L84.744 751.56L84.744 751.56L84.744 752.04L84.744 752.04L84.264 752.04z" stroke="none" fill="#000000" fill-rule="evenodd" /><path transform="matrix(1 0 0 -1 0 841)" d="M84.264 751.56L84.744 751.56L84.744 751.56L84.744 752.04L84.744 752.04L84.264 752.04z" stroke="none" fill="#000000" fill-rule="evenodd" /><path transform="matrix(1 0 0 -1 0 841)" d="M84.744 751.56L220.604 751.56L220.604 751.56L220.604 752.04L220.604 752.04L84.744 752.04z" stroke="none" fill="#000000" fill-rule="evenodd" /><path transform="matrix(1 0 0 -1 0 841)" d="M220.61 751.56L221.09 751.56L221.09 751.56L221.09 752.04L221.09 752.04L220.61 752.04z" stroke="none" fill="#000000" fill-rule="evenodd" /><path transform="matrix(1 0 0 -1 0 841)" d="M221.09 751.56L360.79 751.56L360.79 751.56L360.79 752.04L360.79 752.04L221.09 752.04z" stroke="none" fill="#000000" fill-rule="evenodd" /><path transform="matrix(1 0 0 -1 0 841)" d="M360.79 751.56L361.27 751.56L361.27 751.56L361.27 752.04L361.27 752.04L360.79 752.04z" stroke="none" fill="#000000" fill-rule="evenodd" /><path transform="matrix(1 0 0 -1 0 841)" d="M361.27 751.56L510.69 751.56L510.69 751.56L510.69 752.04L510.69 752.04L361.27 752.04z" stroke="none" fill="#000000" fill-rule="evenodd" /><path transform="matrix(1 0 0 -1 0 841)" d="M510.7 751.56L511.18 751.56L511.18 751.56L511.18 752.04L511.18 752.04L510.7 752.04z" stroke="none" fill="#000000" fill-rule="evenodd" /><path transform="matrix(1 0 0 -1 0 841)" d="M510.7 751.56L511.18 751.56L511.18 751.56L511.18 752.04L511.18 752.04L510.7 752.04z" stroke="none" fill="#000000" fill-rule="evenodd" /><path transform="matrix(1 0 0 -1 0 841)" d="M84.264 726.46L84.744 726.46L84.744 726.46L84.744 751.564L84.744 751.564L84.264 751.564z" stroke="none" fill="#000000" fill-rule="evenodd" /><path transform="matrix(1 0 0 -1 0 841)" d="M220.61 726.46L221.09 726.46L221.09 726.46L221.09 751.564L221.09 751.564L220.61 751.564z" stroke="none" fill="#000000" fill-rule="evenodd" /><path transform="matrix(1 0 0 -1 0 841)" d="M360.79 726.46L361.27 726.46L361.27 726.46L361.27 751.564L361.27 751.564L360.79 751.564z" stroke="none" fill="#000000" fill-rule="evenodd" /><path transform="matrix(1 0 0 -1 0 841)" d="M510.7 726.46L511.18 726.46L511.18 726.46L511.18 751.564L511.18 751.564L510.7 751.564z" stroke="none" fill="#000000" fill-rule="evenodd" /><g clip-path="url(#15)"><g clip-path="url(#16)"></g><g clip-path="url(#17)"></g></g><g clip-path="url(#18)"><g clip-path="url(#19)"></g><g clip-path="url(#20)"></g></g><g clip-path="url(#21)"><g clip-path="url(#22)"></g><g clip-path="url(#23)"></g><g clip-path="url(#24)"></g><g clip-path="url(#25)"></g></g><path transform="matrix(1 0 0 -1 0 841)" d="M84.264 725.98L84.744 725.98L84.744 725.98L84.744 726.46L84.744 726.46L84.264 726.46z" stroke="none" fill="#000000" fill-rule="evenodd" /><path transform="matrix(1 0 0 -1 0 841)" d="M84.744 725.98L220.604 725.98L220.604 725.98L220.604 726.46L220.604 726.46L84.744 726.46z" stroke="none" fill="#000000" fill-rule="evenodd" /><path transform="matrix(1 0 0 -1 0 841)" d="M220.61 725.98L221.09 725.98L221.09 725.98L221.09 726.46L221.09 726.46L220.61 726.46z" stroke="none" fill="#000000" fill-rule="evenodd" /><path transform="matrix(1 0 0 -1 0 841)" d="M221.09 725.98L360.79 725.98L360.79 725.98L360.79 726.46L360.79 726.46L221.09 726.46z" stroke="none" fill="#000000" fill-rule="evenodd" /><path transform="matrix(1 0 0 -1 0 841)" d="M360.79 725.98L361.27 725.98L361.27 725.98L361.27 726.46L361.27 726.46L360.79 726.46z" stroke="none" fill="#000000" fill-rule="evenodd" /><path transform="matrix(1 0 0 -1 0 841)" d="M361.27 725.98L510.69 725.98L510.69 725.98L510.69 726.46L510.69 726.46L361.27 726.46z" stroke="none" fill="#000000" fill-rule="evenodd" /><path transform="matrix(1 0 0 -1 0 841)" d="M510.7 725.98L511.18 725.98L511.18 725.98L511.18 726.46L511.18 726.46L510.7 726.46z" stroke="none" fill="#000000" fill-rule="evenodd" /><path transform="matrix(1 0 0 -1 0 841)" d="M84.264 700.9L84.744 700.9L84.744 700.9L84.744 725.98L84.744 725.98L84.264 725.98z" stroke="none" fill="#000000" fill-rule="evenodd" /><path transform="matrix(1 0 0 -1 0 841)" d="M220.61 700.9L221.09 700.9L221.09 700.9L221.09 725.98L221.09 725.98L220.61 725.98z" stroke="none" fill="#000000" fill-rule="evenodd" /><path transform="matrix(1 0 0 -1 0 841)" d="M360.79 700.9L361.27 700.9L361.27 700.9L361.27 725.98L361.27 725.98L360.79 725.98z" stroke="none" fill="#000000" fill-rule="evenodd" /><path transform="matrix(1 0 0 -1 0 841)" d="M510.7 700.9L511.18 700.9L511.18 700.9L511.18 725.98L511.18 725.98L510.7 725.98z" stroke="none" fill="#000000" fill-rule="evenodd" /><path transform="matrix(1 0 0 -1 0 841)" d="M84.744 518.35L220.604 518.35L220.604 518.35L220.604 700.41L220.604 700.41L84.744 700.41z" stroke="none" fill="#DAEEF3" fill-rule="evenodd" /><g clip-path="url(#26)"><path transform="matrix(1 0 0 -1 0 841)" d="M89.904 597.34L215.444 597.34L215.444 597.34L215.444 621.46L215.444 621.46L89.904 621.46z" stroke="none" fill="#DAEEF3" fill-rule="evenodd" /><g clip-path="url(#27)"></g><g clip-path="url(#28)"></g></g><path transform="matrix(1 0 0 -1 0 841)" d="M221.09 518.35L360.67 518.35L360.67 518.35L360.67 700.41L360.67 700.41L221.09 700.41z" stroke="none" fill="#DAEEF3" fill-rule="evenodd" /><g clip-path="url(#29)"><path transform="matrix(1 0 0 -1 0 841)" d="M226.25 597.34L355.63 597.34L355.63 597.34L355.63 621.46L355.63 621.46L226.25 621.46z" stroke="none" fill="#DAEEF3" fill-rule="evenodd" /><g clip-path="url(#30)"></g><g clip-path="url(#31)"></g></g><path transform="matrix(1 0 0 -1 0 841)" d="M361.27 518.35L510.69 518.35L510.69 518.35L510.69 700.41L510.69 700.41L361.27 700.41z" stroke="none" fill="#DAEEF3" fill-rule="evenodd" /><g clip-path="url(#32)"><path transform="matrix(1 0 0 -1 0 841)" d="M366.43 675.34L505.53 675.34L505.53 675.34L505.53 700.42L505.53 700.42L366.43 700.42z" stroke="none" fill="#DAEEF3" fill-rule="evenodd" /><g clip-path="url(#33)"></g><g clip-path="url(#34)"></g><path transform="matrix(1 0 0 -1 0 841)" d="M366.43 656.02L505.53 656.02L505.53 656.02L505.53 675.34L505.53 675.34L366.43 675.34z" stroke="none" fill="#DAEEF3" fill-rule="evenodd" /><g clip-path="url(#35)"></g><g clip-path="url(#36)"></g><path transform="matrix(1 0 0 -1 0 841)" d="M366.43 636.58L505.53 636.58L505.53 636.58L505.53 656.02L505.53 656.02L366.43 656.02z" stroke="none" fill="#DAEEF3" fill-rule="evenodd" /><g clip-path="url(#37)"></g><g clip-path="url(#38)"></g><g clip-path="url(#39)"></g><g clip-path="url(#40)"></g><path transform="matrix(1 0 0 -1 0 841)" d="M366.43 617.14L505.53 617.14L505.53 617.14L505.53 636.58L505.53 636.58L366.43 636.58z" stroke="none" fill="#DAEEF3" fill-rule="evenodd" /><g clip-path="url(#41)"></g><g clip-path="url(#42)"></g><path transform="matrix(1 0 0 -1 0 841)" d="M366.43 597.82L505.53 597.82L505.53 597.82L505.53 617.14L505.53 617.14L366.43 617.14z" stroke="none" fill="#DAEEF3" fill-rule="evenodd" /><g clip-path="url(#43)"></g><g clip-path="url(#44)"></g><g clip-path="url(#45)"></g><g clip-path="url(#46)"></g><path transform="matrix(1 0 0 -1 0 841)" d="M366.43 577.42L505.53 577.42L505.53 577.42L505.53 597.82L505.53 597.82L366.43 597.82z" stroke="none" fill="#DAEEF3" fill-rule="evenodd" /><g clip-path="url(#47)"></g><g clip-path="url(#48)"></g><g clip-path="url(#49)"></g><g clip-path="url(#50)"></g><g clip-path="url(#51)"></g><path transform="matrix(1 0 0 -1 0 841)" d="M366.43 557.11L505.53 557.11L505.53 557.11L505.53 577.414L505.53 577.414L366.43 577.414z" stroke="none" fill="#DAEEF3" fill-rule="evenodd" /><g clip-path="url(#52)"></g><g clip-path="url(#53)"></g><g clip-path="url(#54)"></g><g clip-path="url(#55)"></g><g clip-path="url(#56)"></g><path transform="matrix(1 0 0 -1 0 841)" d="M366.43 537.67L505.53 537.67L505.53 537.67L505.53 557.11L505.53 557.11L366.43 557.11z" stroke="none" fill="#DAEEF3" fill-rule="evenodd" /><g clip-path="url(#57)"></g><g clip-path="url(#58)"></g><g clip-path="url(#59)"></g><g clip-path="url(#60)"></g><path transform="matrix(1 0 0 -1 0 841)" d="M366.43 518.35L505.53 518.35L505.53 518.35L505.53 537.67L505.53 537.67L366.43 537.67z" stroke="none" fill="#DAEEF3" fill-rule="evenodd" /><g clip-path="url(#61)"></g><g clip-path="url(#62)"></g><g clip-path="url(#63)"></g><g clip-path="url(#64)"></g><g clip-path="url(#65)"></g></g><path transform="matrix(1 0 0 -1 0 841)" d="M84.264 700.42L84.744 700.42L84.744 700.42L84.744 700.9L84.744 700.9L84.264 700.9z" stroke="none" fill="#000000" fill-rule="evenodd" /><path transform="matrix(1 0 0 -1 0 841)" d="M84.744 700.42L220.604 700.42L220.604 700.42L220.604 700.9L220.604 700.9L84.744 700.9z" stroke="none" fill="#000000" fill-rule="evenodd" /><path transform="matrix(1 0 0 -1 0 841)" d="M220.61 700.42L221.09 700.42L221.09 700.42L221.09 700.9L221.09 700.9L220.61 700.9z" stroke="none" fill="#000000" fill-rule="evenodd" /><path transform="matrix(1 0 0 -1 0 841)" d="M221.09 700.42L360.79 700.42L360.79 700.42L360.79 700.9L360.79 700.9L221.09 700.9z" stroke="none" fill="#000000" fill-rule="evenodd" /><path transform="matrix(1 0 0 -1 0 841)" d="M360.79 700.42L361.27 700.42L361.27 700.42L361.27 700.9L361.27 700.9L360.79 700.9z" stroke="none" fill="#000000" fill-rule="evenodd" /><path transform="matrix(1 0 0 -1 0 841)" d="M361.27 700.42L510.69 700.42L510.69 700.42L510.69 700.9L510.69 700.9L361.27 700.9z" stroke="none" fill="#000000" fill-rule="evenodd" /><path transform="matrix(1 0 0 -1 0 841)" d="M510.7 700.42L511.18 700.42L511.18 700.42L511.18 700.9L511.18 700.9L510.7 700.9z" stroke="none" fill="#000000" fill-rule="evenodd" /><path transform="matrix(1 0 0 -1 0 841)" d="M84.264 518.35L84.744 518.35L84.744 518.35L84.744 700.41L84.744 700.41L84.264 700.41z" stroke="none" fill="#000000" fill-rule="evenodd" /><path transform="matrix(1 0 0 -1 0 841)" d="M220.61 518.35L221.09 518.35L221.09 518.35L221.09 700.41L221.09 700.41L220.61 700.41z" stroke="none" fill="#000000" fill-rule="evenodd" /><path transform="matrix(1 0 0 -1 0 841)" d="M360.79 518.35L361.27 518.35L361.27 518.35L361.27 700.41L361.27 700.41L360.79 700.41z" stroke="none" fill="#000000" fill-rule="evenodd" /><path transform="matrix(1 0 0 -1 0 841)" d="M510.7 518.35L511.18 518.35L511.18 518.35L511.18 700.41L511.18 700.41L510.7 700.41z" stroke="none" fill="#000000" fill-rule="evenodd" /><g clip-path="url(#66)"><g clip-path="url(#67)"></g><g clip-path="url(#68)"></g></g><g clip-path="url(#69)"><g clip-path="url(#70)"></g><g clip-path="url(#71)"></g></g><g clip-path="url(#72)"><g clip-path="url(#73)"></g><g clip-path="url(#74)"></g><path transform="matrix(1 0 0 -1 0 841)" d="M366.43 500.71L422.47 500.71L422.47 500.71L422.47 501.43L422.47 501.43L366.43 501.43z" stroke="none" fill="#0000FF" fill-rule="evenodd" /></g><path transform="matrix(1 0 0 -1 0 841)" d="M84.264 517.87L84.744 517.87L84.744 517.87L84.744 518.35L84.744 518.35L84.264 518.35z" stroke="none" fill="#000000" fill-rule="evenodd" /><path transform="matrix(1 0 0 -1 0 841)" d="M84.744 517.87L220.604 517.87L220.604 517.87L220.604 518.35L220.604 518.35L84.744 518.35z" stroke="none" fill="#000000" fill-rule="evenodd" /><path transform="matrix(1 0 0 -1 0 841)" d="M220.61 517.87L221.09 517.87L221.09 517.87L221.09 518.35L221.09 518.35L220.61 518.35z" stroke="none" fill="#000000" fill-rule="evenodd" /><path transform="matrix(1 0 0 -1 0 841)" d="M221.09 517.87L360.79 517.87L360.79 517.87L360.79 518.35L360.79 518.35L221.09 518.35z" stroke="none" fill="#000000" fill-rule="evenodd" /><path transform="matrix(1 0 0 -1 0 841)" d="M360.79 517.87L361.27 517.87L361.27 517.87L361.27 518.35L361.27 518.35L360.79 518.35z" stroke="none" fill="#000000" fill-rule="evenodd" /><path transform="matrix(1 0 0 -1 0 841)" d="M361.27 517.87L510.69 517.87L510.69 517.87L510.69 518.35L510.69 518.35L361.27 518.35z" stroke="none" fill="#000000" fill-rule="evenodd" /><path transform="matrix(1 0 0 -1 0 841)" d="M510.7 517.87L511.18 517.87L511.18 517.87L511.18 518.35L511.18 518.35L510.7 518.35z" stroke="none" fill="#000000" fill-rule="evenodd" /><path transform="matrix(1 0 0 -1 0 841)" d="M84.264 491.23L84.744 491.23L84.744 491.23L84.744 517.87L84.744 517.87L84.264 517.87z" stroke="none" fill="#000000" fill-rule="evenodd" /><path transform="matrix(1 0 0 -1 0 841)" d="M220.61 491.23L221.09 491.23L221.09 491.23L221.09 517.87L221.09 517.87L220.61 517.87z" stroke="none" fill="#000000" fill-rule="evenodd" /><path transform="matrix(1 0 0 -1 0 841)" d="M360.79 491.23L361.27 491.23L361.27 491.23L361.27 517.87L361.27 517.87L360.79 517.87z" stroke="none" fill="#000000" fill-rule="evenodd" /><path transform="matrix(1 0 0 -1 0 841)" d="M510.7 491.23L511.18 491.23L511.18 491.23L511.18 517.87L511.18 517.87L510.7 517.87z" stroke="none" fill="#000000" fill-rule="evenodd" /><path transform="matrix(1 0 0 -1 0 841)" d="M84.744 464.11L220.604 464.11L220.604 464.11L220.604 490.75L220.604 490.75L84.744 490.75z" stroke="none" fill="#DAEEF3" fill-rule="evenodd" /><g clip-path="url(#75)"><path transform="matrix(1 0 0 -1 0 841)" d="M89.904 466.63L215.444 466.63L215.444 466.63L215.444 490.75L215.444 490.75L89.904 490.75z" stroke="none" fill="#DAEEF3" fill-rule="evenodd" /><g clip-path="url(#76)"></g><g clip-path="url(#77)"></g><g clip-path="url(#78)"></g></g><path transform="matrix(1 0 0 -1 0 841)" d="M221.09 464.11L360.67 464.11L360.67 464.11L360.67 490.75L360.67 490.75L221.09 490.75z" stroke="none" fill="#DAEEF3" fill-rule="evenodd" /><g clip-path="url(#79)"><path transform="matrix(1 0 0 -1 0 841)" d="M226.25 464.11L355.63 464.11L355.63 464.11L355.63 490.75L355.63 490.75L226.25 490.75z" stroke="none" fill="#DAEEF3" fill-rule="evenodd" /><g clip-path="url(#80)"></g><g clip-path="url(#81)"></g><g clip-path="url(#82)"></g></g><path transform="matrix(1 0 0 -1 0 841)" d="M361.27 464.11L510.69 464.11L510.69 464.11L510.69 490.75L510.69 490.75L361.27 490.75z" stroke="none" fill="#DAEEF3" fill-rule="evenodd" /><g clip-path="url(#83)"><path transform="matrix(1 0 0 -1 0 841)" d="M366.43 471.67L505.53 471.67L505.53 471.67L505.53 490.75L505.53 490.75L366.43 490.75z" stroke="none" fill="#DAEEF3" fill-rule="evenodd" /><g clip-path="url(#84)"></g><g clip-path="url(#85)"></g></g><path transform="matrix(1 0 0 -1 0 841)" d="M84.264 490.75L84.744 490.75L84.744 490.75L84.744 491.23L84.744 491.23L84.264 491.23z" stroke="none" fill="#000000" fill-rule="evenodd" /><path transform="matrix(1 0 0 -1 0 841)" d="M84.744 490.75L220.604 490.75L220.604 490.75L220.604 491.23L220.604 491.23L84.744 491.23z" stroke="none" fill="#000000" fill-rule="evenodd" /><path transform="matrix(1 0 0 -1 0 841)" d="M220.61 490.75L221.09 490.75L221.09 490.75L221.09 491.23L221.09 491.23L220.61 491.23z" stroke="none" fill="#000000" fill-rule="evenodd" /><path transform="matrix(1 0 0 -1 0 841)" d="M221.09 490.75L360.79 490.75L360.79 490.75L360.79 491.23L360.79 491.23L221.09 491.23z" stroke="none" fill="#000000" fill-rule="evenodd" /><path transform="matrix(1 0 0 -1 0 841)" d="M360.79 490.75L361.27 490.75L361.27 490.75L361.27 491.23L361.27 491.23L360.79 491.23z" stroke="none" fill="#000000" fill-rule="evenodd" /><path transform="matrix(1 0 0 -1 0 841)" d="M361.27 490.75L510.69 490.75L510.69 490.75L510.69 491.23L510.69 491.23L361.27 491.23z" stroke="none" fill="#000000" fill-rule="evenodd" /><path transform="matrix(1 0 0 -1 0 841)" d="M510.7 490.75L511.18 490.75L511.18 490.75L511.18 491.23L511.18 491.23L510.7 491.23z" stroke="none" fill="#000000" fill-rule="evenodd" /><path transform="matrix(1 0 0 -1 0 841)" d="M84.264 464.11L84.744 464.11L84.744 464.11L84.744 490.75L84.744 490.75L84.264 490.75z" stroke="none" fill="#000000" fill-rule="evenodd" /><path transform="matrix(1 0 0 -1 0 841)" d="M220.61 464.11L221.09 464.11L221.09 464.11L221.09 490.75L221.09 490.75L220.61 490.75z" stroke="none" fill="#000000" fill-rule="evenodd" /><path transform="matrix(1 0 0 -1 0 841)" d="M360.79 464.11L361.27 464.11L361.27 464.11L361.27 490.75L361.27 490.75L360.79 490.75z" stroke="none" fill="#000000" fill-rule="evenodd" /><path transform="matrix(1 0 0 -1 0 841)" d="M510.7 464.11L511.18 464.11L511.18 464.11L511.18 490.75L511.18 490.75L510.7 490.75z" stroke="none" fill="#000000" fill-rule="evenodd" /><g clip-path="url(#86)"><g clip-path="url(#87)"></g><g clip-path="url(#88)"></g></g><g clip-path="url(#89)"><g clip-path="url(#90)"></g><g clip-path="url(#91)"></g></g><g clip-path="url(#92)"><g clip-path="url(#93)"></g><g clip-path="url(#94)"></g></g><path transform="matrix(1 0 0 -1 0 841)" d="M84.264 463.63L84.744 463.63L84.744 463.63L84.744 464.11L84.744 464.11L84.264 464.11z" stroke="none" fill="#000000" fill-rule="evenodd" /><path transform="matrix(1 0 0 -1 0 841)" d="M84.744 463.63L220.604 463.63L220.604 463.63L220.604 464.11L220.604 464.11L84.744 464.11z" stroke="none" fill="#000000" fill-rule="evenodd" /><path transform="matrix(1 0 0 -1 0 841)" d="M220.61 463.63L221.09 463.63L221.09 463.63L221.09 464.11L221.09 464.11L220.61 464.11z" stroke="none" fill="#000000" fill-rule="evenodd" /><path transform="matrix(1 0 0 -1 0 841)" d="M221.09 463.63L360.79 463.63L360.79 463.63L360.79 464.11L360.79 464.11L221.09 464.11z" stroke="none" fill="#000000" fill-rule="evenodd" /><path transform="matrix(1 0 0 -1 0 841)" d="M360.79 463.63L361.27 463.63L361.27 463.63L361.27 464.11L361.27 464.11L360.79 464.11z" stroke="none" fill="#000000" fill-rule="evenodd" /><path transform="matrix(1 0 0 -1 0 841)" d="M361.27 463.63L510.69 463.63L510.69 463.63L510.69 464.11L510.69 464.11L361.27 464.11z" stroke="none" fill="#000000" fill-rule="evenodd" /><path transform="matrix(1 0 0 -1 0 841)" d="M510.7 463.63L511.18 463.63L511.18 463.63L511.18 464.11L511.18 464.11L510.7 464.11z" stroke="none" fill="#000000" fill-rule="evenodd" /><path transform="matrix(1 0 0 -1 0 841)" d="M84.264 436.99L84.744 436.99L84.744 436.99L84.744 463.63L84.744 463.63L84.264 463.63z" stroke="none" fill="#000000" fill-rule="evenodd" /><path transform="matrix(1 0 0 -1 0 841)" d="M220.61 436.99L221.09 436.99L221.09 436.99L221.09 463.63L221.09 463.63L220.61 463.63z" stroke="none" fill="#000000" fill-rule="evenodd" /><path transform="matrix(1 0 0 -1 0 841)" d="M360.79 436.99L361.27 436.99L361.27 436.99L361.27 463.63L361.27 463.63L360.79 463.63z" stroke="none" fill="#000000" fill-rule="evenodd" /><path transform="matrix(1 0 0 -1 0 841)" d="M510.7 436.99L511.18 436.99L511.18 436.99L511.18 463.63L511.18 463.63L510.7 463.63z" stroke="none" fill="#000000" fill-rule="evenodd" /><path transform="matrix(1 0 0 -1 0 841)" d="M84.744 412.39L220.604 412.39L220.604 412.39L220.604 436.51L220.604 436.51L84.744 436.51z" stroke="none" fill="#DAEEF3" fill-rule="evenodd" /><g clip-path="url(#95)"><path transform="matrix(1 0 0 -1 0 841)" d="M89.904 412.39L215.444 412.39L215.444 412.39L215.444 436.51L215.444 436.51L89.904 436.51z" stroke="none" fill="#DAEEF3" fill-rule="evenodd" /><g clip-path="url(#96)"></g><g clip-path="url(#97)"></g><g clip-path="url(#98)"></g></g><path transform="matrix(1 0 0 -1 0 841)" d="M221.09 412.39L360.67 412.39L360.67 412.39L360.67 436.51L360.67 436.51L221.09 436.51z" stroke="none" fill="#DAEEF3" fill-rule="evenodd" /><g clip-path="url(#99)"><path transform="matrix(1 0 0 -1 0 841)" d="M226.25 412.39L355.63 412.39L355.63 412.39L355.63 436.51L355.63 436.51L226.25 436.51z" stroke="none" fill="#DAEEF3" fill-rule="evenodd" /><g clip-path="url(#100)"></g><g clip-path="url(#101)"></g></g><path transform="matrix(1 0 0 -1 0 841)" d="M361.27 412.39L510.69 412.39L510.69 412.39L510.69 436.51L510.69 436.51L361.27 436.51z" stroke="none" fill="#DAEEF3" fill-rule="evenodd" /><g clip-path="url(#102)"><path transform="matrix(1 0 0 -1 0 841)" d="M366.43 417.55L505.53 417.55L505.53 417.55L505.53 436.51L505.53 436.51L366.43 436.51z" stroke="none" fill="#DAEEF3" fill-rule="evenodd" /><g clip-path="url(#103)"></g><g clip-path="url(#104)"></g><g clip-path="url(#105)"></g><g clip-path="url(#106)"></g></g><path transform="matrix(1 0 0 -1 0 841)" d="M84.264 436.51L84.744 436.51L84.744 436.51L84.744 436.99L84.744 436.99L84.264 436.99z" stroke="none" fill="#000000" fill-rule="evenodd" /><path transform="matrix(1 0 0 -1 0 841)" d="M84.744 436.51L220.604 436.51L220.604 436.51L220.604 436.99L220.604 436.99L84.744 436.99z" stroke="none" fill="#000000" fill-rule="evenodd" /><path transform="matrix(1 0 0 -1 0 841)" d="M220.61 436.51L221.09 436.51L221.09 436.51L221.09 436.99L221.09 436.99L220.61 436.99z" stroke="none" fill="#000000" fill-rule="evenodd" /><path transform="matrix(1 0 0 -1 0 841)" d="M221.09 436.51L360.79 436.51L360.79 436.51L360.79 436.99L360.79 436.99L221.09 436.99z" stroke="none" fill="#000000" fill-rule="evenodd" /><path transform="matrix(1 0 0 -1 0 841)" d="M360.79 436.51L361.27 436.51L361.27 436.51L361.27 436.99L361.27 436.99L360.79 436.99z" stroke="none" fill="#000000" fill-rule="evenodd" /><path transform="matrix(1 0 0 -1 0 841)" d="M361.27 436.51L510.69 436.51L510.69 436.51L510.69 436.99L510.69 436.99L361.27 436.99z" stroke="none" fill="#000000" fill-rule="evenodd" /><path transform="matrix(1 0 0 -1 0 841)" d="M510.7 436.51L511.18 436.51L511.18 436.51L511.18 436.99L511.18 436.99L510.7 436.99z" stroke="none" fill="#000000" fill-rule="evenodd" /><path transform="matrix(1 0 0 -1 0 841)" d="M84.264 412.39L84.744 412.39L84.744 412.39L84.744 436.51L84.744 436.51L84.264 436.51z" stroke="none" fill="#000000" fill-rule="evenodd" /><path transform="matrix(1 0 0 -1 0 841)" d="M220.61 412.39L221.09 412.39L221.09 412.39L221.09 436.51L221.09 436.51L220.61 436.51z" stroke="none" fill="#000000" fill-rule="evenodd" /><path transform="matrix(1 0 0 -1 0 841)" d="M360.79 412.39L361.27 412.39L361.27 412.39L361.27 436.51L361.27 436.51L360.79 436.51z" stroke="none" fill="#000000" fill-rule="evenodd" /><path transform="matrix(1 0 0 -1 0 841)" d="M510.7 412.39L511.18 412.39L511.18 412.39L511.18 436.51L511.18 436.51L510.7 436.51z" stroke="none" fill="#000000" fill-rule="evenodd" /><g clip-path="url(#107)"><g clip-path="url(#108)"></g><g clip-path="url(#109)"></g><g clip-path="url(#110)"></g></g><g clip-path="url(#111)"><g clip-path="url(#112)"></g><g clip-path="url(#113)"></g><g clip-path="url(#114)"></g></g><g clip-path="url(#115)"><g clip-path="url(#116)"></g><g clip-path="url(#117)"></g><g clip-path="url(#118)"></g><g clip-path="url(#119)"></g><g clip-path="url(#120)"></g></g><path transform="matrix(1 0 0 -1 0 841)" d="M84.264 411.91L84.744 411.91L84.744 411.91L84.744 412.39L84.744 412.39L84.264 412.39z" stroke="none" fill="#000000" fill-rule="evenodd" /><path transform="matrix(1 0 0 -1 0 841)" d="M84.744 411.91L220.604 411.91L220.604 411.91L220.604 412.39L220.604 412.39L84.744 412.39z" stroke="none" fill="#000000" fill-rule="evenodd" /><path transform="matrix(1 0 0 -1 0 841)" d="M220.61 411.91L221.09 411.91L221.09 411.91L221.09 412.39L221.09 412.39L220.61 412.39z" stroke="none" fill="#000000" fill-rule="evenodd" /><path transform="matrix(1 0 0 -1 0 841)" d="M221.09 411.91L360.79 411.91L360.79 411.91L360.79 412.39L360.79 412.39L221.09 412.39z" stroke="none" fill="#000000" fill-rule="evenodd" /><path transform="matrix(1 0 0 -1 0 841)" d="M360.79 411.91L361.27 411.91L361.27 411.91L361.27 412.39L361.27 412.39L360.79 412.39z" stroke="none" fill="#000000" fill-rule="evenodd" /><path transform="matrix(1 0 0 -1 0 841)" d="M361.27 411.91L510.69 411.91L510.69 411.91L510.69 412.39L510.69 412.39L361.27 412.39z" stroke="none" fill="#000000" fill-rule="evenodd" /><path transform="matrix(1 0 0 -1 0 841)" d="M510.7 411.91L511.18 411.91L511.18 411.91L511.18 412.39L511.18 412.39L510.7 412.39z" stroke="none" fill="#000000" fill-rule="evenodd" /><path transform="matrix(1 0 0 -1 0 841)" d="M84.264 373.15L84.744 373.15L84.744 373.15L84.744 411.91L84.744 411.91L84.264 411.91z" stroke="none" fill="#000000" fill-rule="evenodd" /><path transform="matrix(1 0 0 -1 0 841)" d="M220.61 373.15L221.09 373.15L221.09 373.15L221.09 411.91L221.09 411.91L220.61 411.91z" stroke="none" fill="#000000" fill-rule="evenodd" /><path transform="matrix(1 0 0 -1 0 841)" d="M360.79 373.15L361.27 373.15L361.27 373.15L361.27 411.91L361.27 411.91L360.79 411.91z" stroke="none" fill="#000000" fill-rule="evenodd" /><path transform="matrix(1 0 0 -1 0 841)" d="M510.7 373.15L511.18 373.15L511.18 373.15L511.18 411.91L511.18 411.91L510.7 411.91z" stroke="none" fill="#000000" fill-rule="evenodd" /><path transform="matrix(1 0 0 -1 0 841)" d="M84.744 348.41L220.604 348.41L220.604 348.41L220.604 372.554L220.604 372.554L84.744 372.554z" stroke="none" fill="#DAEEF3" fill-rule="evenodd" /><g clip-path="url(#121)"><path transform="matrix(1 0 0 -1 0 841)" d="M89.904 348.41L215.444 348.41L215.444 348.41L215.444 372.554L215.444 372.554L89.904 372.554z" stroke="none" fill="#DAEEF3" fill-rule="evenodd" /><g clip-path="url(#122)"></g><g clip-path="url(#123)"></g></g><path transform="matrix(1 0 0 -1 0 841)" d="M221.09 348.41L360.67 348.41L360.67 348.41L360.67 372.554L360.67 372.554L221.09 372.554z" stroke="none" fill="#DAEEF3" fill-rule="evenodd" /><g clip-path="url(#124)"><path transform="matrix(1 0 0 -1 0 841)" d="M226.25 348.41L355.63 348.41L355.63 348.41L355.63 372.554L355.63 372.554L226.25 372.554z" stroke="none" fill="#DAEEF3" fill-rule="evenodd" /><g clip-path="url(#125)"></g><g clip-path="url(#126)"></g></g><path transform="matrix(1 0 0 -1 0 841)" d="M361.27 348.41L510.69 348.41L510.69 348.41L510.69 372.554L510.69 372.554L361.27 372.554z" stroke="none" fill="#DAEEF3" fill-rule="evenodd" /><g clip-path="url(#127)"><path transform="matrix(1 0 0 -1 0 841)" d="M366.43 350.93L505.53 350.93L505.53 350.93L505.53 370.01L505.53 370.01L366.43 370.01z" stroke="none" fill="#DAEEF3" fill-rule="evenodd" /><g clip-path="url(#128)"></g><g clip-path="url(#129)"></g></g><path transform="matrix(1 0 0 -1 0 841)" d="M84.264 372.67L84.744 372.67L84.744 372.67L84.744 373.15L84.744 373.15L84.264 373.15z" stroke="none" fill="#000000" fill-rule="evenodd" /><path transform="matrix(1 0 0 -1 0 841)" d="M84.744 372.67L220.604 372.67L220.604 372.67L220.604 373.15L220.604 373.15L84.744 373.15z" stroke="none" fill="#000000" fill-rule="evenodd" /><path transform="matrix(1 0 0 -1 0 841)" d="M220.61 372.67L221.09 372.67L221.09 372.67L221.09 373.15L221.09 373.15L220.61 373.15z" stroke="none" fill="#000000" fill-rule="evenodd" /><path transform="matrix(1 0 0 -1 0 841)" d="M221.09 372.67L360.79 372.67L360.79 372.67L360.79 373.15L360.79 373.15L221.09 373.15z" stroke="none" fill="#000000" fill-rule="evenodd" /><path transform="matrix(1 0 0 -1 0 841)" d="M360.79 372.67L361.27 372.67L361.27 372.67L361.27 373.15L361.27 373.15L360.79 373.15z" stroke="none" fill="#000000" fill-rule="evenodd" /><path transform="matrix(1 0 0 -1 0 841)" d="M361.27 372.67L510.69 372.67L510.69 372.67L510.69 373.15L510.69 373.15L361.27 373.15z" stroke="none" fill="#000000" fill-rule="evenodd" /><path transform="matrix(1 0 0 -1 0 841)" d="M510.7 372.67L511.18 372.67L511.18 372.67L511.18 373.15L511.18 373.15L510.7 373.15z" stroke="none" fill="#000000" fill-rule="evenodd" /><path transform="matrix(1 0 0 -1 0 841)" d="M84.264 348.41L84.744 348.41L84.744 348.41L84.744 372.674L84.744 372.674L84.264 372.674z" stroke="none" fill="#000000" fill-rule="evenodd" /><path transform="matrix(1 0 0 -1 0 841)" d="M220.61 348.41L221.09 348.41L221.09 348.41L221.09 372.674L221.09 372.674L220.61 372.674z" stroke="none" fill="#000000" fill-rule="evenodd" /><path transform="matrix(1 0 0 -1 0 841)" d="M360.79 348.41L361.27 348.41L361.27 348.41L361.27 372.674L361.27 372.674L360.79 372.674z" stroke="none" fill="#000000" fill-rule="evenodd" /><path transform="matrix(1 0 0 -1 0 841)" d="M510.7 348.41L511.18 348.41L511.18 348.41L511.18 372.674L511.18 372.674L510.7 372.674z" stroke="none" fill="#000000" fill-rule="evenodd" /><g clip-path="url(#130)"><g clip-path="url(#131)"></g><g clip-path="url(#132)"></g><g clip-path="url(#133)"></g></g><g clip-path="url(#134)"><g clip-path="url(#135)"></g><g clip-path="url(#136)"></g></g><g clip-path="url(#137)"><g clip-path="url(#138)"></g><g clip-path="url(#139)"></g><g clip-path="url(#140)"></g><g clip-path="url(#141)"></g><g clip-path="url(#142)"></g><g clip-path="url(#143)"></g><g clip-path="url(#144)"></g><g clip-path="url(#145)"></g><g clip-path="url(#146)"></g></g><path transform="matrix(1 0 0 -1 0 841)" d="M84.264 347.93L84.744 347.93L84.744 347.93L84.744 348.41L84.744 348.41L84.264 348.41z" stroke="none" fill="#000000" fill-rule="evenodd" /><path transform="matrix(1 0 0 -1 0 841)" d="M84.744 347.93L220.604 347.93L220.604 347.93L220.604 348.41L220.604 348.41L84.744 348.41z" stroke="none" fill="#000000" fill-rule="evenodd" /><path transform="matrix(1 0 0 -1 0 841)" d="M220.61 347.93L221.09 347.93L221.09 347.93L221.09 348.41L221.09 348.41L220.61 348.41z" stroke="none" fill="#000000" fill-rule="evenodd" /><path transform="matrix(1 0 0 -1 0 841)" d="M221.09 347.93L360.79 347.93L360.79 347.93L360.79 348.41L360.79 348.41L221.09 348.41z" stroke="none" fill="#000000" fill-rule="evenodd" /><path transform="matrix(1 0 0 -1 0 841)" d="M360.79 347.93L361.27 347.93L361.27 347.93L361.27 348.41L361.27 348.41L360.79 348.41z" stroke="none" fill="#000000" fill-rule="evenodd" /><path transform="matrix(1 0 0 -1 0 841)" d="M361.27 347.93L510.69 347.93L510.69 347.93L510.69 348.41L510.69 348.41L361.27 348.41z" stroke="none" fill="#000000" fill-rule="evenodd" /><path transform="matrix(1 0 0 -1 0 841)" d="M510.7 347.93L511.18 347.93L511.18 347.93L511.18 348.41L511.18 348.41L510.7 348.41z" stroke="none" fill="#000000" fill-rule="evenodd" /><path transform="matrix(1 0 0 -1 0 841)" d="M84.264 290.81L84.744 290.81L84.744 290.81L84.744 347.93L84.744 347.93L84.264 347.93z" stroke="none" fill="#000000" fill-rule="evenodd" /><path transform="matrix(1 0 0 -1 0 841)" d="M220.61 290.81L221.09 290.81L221.09 290.81L221.09 347.93L221.09 347.93L220.61 347.93z" stroke="none" fill="#000000" fill-rule="evenodd" /><path transform="matrix(1 0 0 -1 0 841)" d="M360.79 290.81L361.27 290.81L361.27 290.81L361.27 347.93L361.27 347.93L360.79 347.93z" stroke="none" fill="#000000" fill-rule="evenodd" /><path transform="matrix(1 0 0 -1 0 841)" d="M510.7 290.81L511.18 290.81L511.18 290.81L511.18 347.93L511.18 347.93L510.7 347.93z" stroke="none" fill="#000000" fill-rule="evenodd" /><path transform="matrix(1 0 0 -1 0 841)" d="M84.744 137.9L220.604 137.9L220.604 137.9L220.604 290.32L220.604 290.32L84.744 290.32z" stroke="none" fill="#DAEEF3" fill-rule="evenodd" /><g clip-path="url(#147)"><path transform="matrix(1 0 0 -1 0 841)" d="M89.904 266.09L215.444 266.09L215.444 266.09L215.444 290.33L215.444 290.33L89.904 290.33z" stroke="none" fill="#DAEEF3" fill-rule="evenodd" /><g clip-path="url(#148)"></g><g clip-path="url(#149)"></g><g clip-path="url(#150)"></g><g clip-path="url(#151)"></g></g><path transform="matrix(1 0 0 -1 0 841)" d="M221.09 137.9L360.67 137.9L360.67 137.9L360.67 290.32L360.67 290.32L221.09 290.32z" stroke="none" fill="#DAEEF3" fill-rule="evenodd" /><g clip-path="url(#152)"><path transform="matrix(1 0 0 -1 0 841)" d="M226.25 266.09L355.63 266.09L355.63 266.09L355.63 290.33L355.63 290.33L226.25 290.33z" stroke="none" fill="#DAEEF3" fill-rule="evenodd" /><g clip-path="url(#153)"></g><g clip-path="url(#154)"></g></g><path transform="matrix(1 0 0 -1 0 841)" d="M361.27 137.9L510.69 137.9L510.69 137.9L510.69 290.32L510.69 290.32L361.27 290.32z" stroke="none" fill="#DAEEF3" fill-rule="evenodd" /><g clip-path="url(#155)"><path transform="matrix(1 0 0 -1 0 841)" d="M366.43 271.25L505.53 271.25L505.53 271.25L505.53 290.33L505.53 290.33L366.43 290.33z" stroke="none" fill="#DAEEF3" fill-rule="evenodd" /><g clip-path="url(#156)"></g><g clip-path="url(#157)"></g><path transform="matrix(1 0 0 -1 0 841)" d="M366.43 252.17L505.53 252.17L505.53 252.17L505.53 271.25L505.53 271.25L366.43 271.25z" stroke="none" fill="#DAEEF3" fill-rule="evenodd" /><g clip-path="url(#158)"></g><path transform="matrix(1 0 0 -1 0 841)" d="M366.43 233.09L505.53 233.09L505.53 233.09L505.53 252.17L505.53 252.17L366.43 252.17z" stroke="none" fill="#DAEEF3" fill-rule="evenodd" /><g clip-path="url(#159)"></g><g clip-path="url(#160)"></g><g clip-path="url(#161)"></g><g clip-path="url(#162)"></g><g clip-path="url(#163)"></g><path transform="matrix(1 0 0 -1 0 841)" d="M366.43 214.13L505.53 214.13L505.53 214.13L505.53 233.09L505.53 233.09L366.43 233.09z" stroke="none" fill="#DAEEF3" fill-rule="evenodd" /><g clip-path="url(#164)"></g><path transform="matrix(1 0 0 -1 0 841)" d="M366.43 195.05L505.53 195.05L505.53 195.05L505.53 214.13L505.53 214.13L366.43 214.13z" stroke="none" fill="#DAEEF3" fill-rule="evenodd" /><g clip-path="url(#165)"></g><g clip-path="url(#166)"></g><g clip-path="url(#167)"></g><g clip-path="url(#168)"></g><g clip-path="url(#169)"></g><path transform="matrix(1 0 0 -1 0 841)" d="M366.43 175.94L505.53 175.94L505.53 175.94L505.53 195.044L505.53 195.044L366.43 195.044z" stroke="none" fill="#DAEEF3" fill-rule="evenodd" /><g clip-path="url(#170)"></g><g clip-path="url(#171)"></g><g clip-path="url(#172)"></g><path transform="matrix(1 0 0 -1 0 841)" d="M366.43 156.86L505.53 156.86L505.53 156.86L505.53 175.94L505.53 175.94L366.43 175.94z" stroke="none" fill="#DAEEF3" fill-rule="evenodd" /><g clip-path="url(#173)"></g><g clip-path="url(#174)"></g><g clip-path="url(#175)"></g><g clip-path="url(#176)"></g><path transform="matrix(1 0 0 -1 0 841)" d="M366.43 137.9L505.53 137.9L505.53 137.9L505.53 156.86L505.53 156.86L366.43 156.86z" stroke="none" fill="#DAEEF3" fill-rule="evenodd" /><g clip-path="url(#177)"></g><g clip-path="url(#178)"></g><g clip-path="url(#179)"></g><g clip-path="url(#180)"></g></g><path transform="matrix(1 0 0 -1 0 841)" d="M84.264 290.33L84.744 290.33L84.744 290.33L84.744 290.81L84.744 290.81L84.264 290.81z" stroke="none" fill="#000000" fill-rule="evenodd" /><path transform="matrix(1 0 0 -1 0 841)" d="M84.744 290.33L220.604 290.33L220.604 290.33L220.604 290.81L220.604 290.81L84.744 290.81z" stroke="none" fill="#000000" fill-rule="evenodd" /><path transform="matrix(1 0 0 -1 0 841)" d="M220.61 290.33L221.09 290.33L221.09 290.33L221.09 290.81L221.09 290.81L220.61 290.81z" stroke="none" fill="#000000" fill-rule="evenodd" /><path transform="matrix(1 0 0 -1 0 841)" d="M221.09 290.33L360.79 290.33L360.79 290.33L360.79 290.81L360.79 290.81L221.09 290.81z" stroke="none" fill="#000000" fill-rule="evenodd" /><path transform="matrix(1 0 0 -1 0 841)" d="M360.79 290.33L361.27 290.33L361.27 290.33L361.27 290.81L361.27 290.81L360.79 290.81z" stroke="none" fill="#000000" fill-rule="evenodd" /><path transform="matrix(1 0 0 -1 0 841)" d="M361.27 290.33L510.69 290.33L510.69 290.33L510.69 290.81L510.69 290.81L361.27 290.81z" stroke="none" fill="#000000" fill-rule="evenodd" /><path transform="matrix(1 0 0 -1 0 841)" d="M510.7 290.33L511.18 290.33L511.18 290.33L511.18 290.81L511.18 290.81L510.7 290.81z" stroke="none" fill="#000000" fill-rule="evenodd" /><path transform="matrix(1 0 0 -1 0 841)" d="M84.264 137.9L84.744 137.9L84.744 137.9L84.744 290.32L84.744 290.32L84.264 290.32z" stroke="none" fill="#000000" fill-rule="evenodd" /><path transform="matrix(1 0 0 -1 0 841)" d="M220.61 137.9L221.09 137.9L221.09 137.9L221.09 290.32L221.09 290.32L220.61 290.32z" stroke="none" fill="#000000" fill-rule="evenodd" /><path transform="matrix(1 0 0 -1 0 841)" d="M360.79 137.9L361.27 137.9L361.27 137.9L361.27 290.32L361.27 290.32L360.79 290.32z" stroke="none" fill="#000000" fill-rule="evenodd" /><path transform="matrix(1 0 0 -1 0 841)" d="M510.7 137.9L511.18 137.9L511.18 137.9L511.18 290.32L511.18 290.32L510.7 290.32z" stroke="none" fill="#000000" fill-rule="evenodd" /><g clip-path="url(#181)"><g clip-path="url(#182)"></g><g clip-path="url(#183)"></g></g><g clip-path="url(#184)"><g clip-path="url(#185)"></g><g clip-path="url(#186)"></g></g><g clip-path="url(#187)"><g clip-path="url(#188)"></g><g clip-path="url(#189)"></g></g><path transform="matrix(1 0 0 -1 0 841)" d="M84.264 137.42L84.744 137.42L84.744 137.42L84.744 137.9L84.744 137.9L84.264 137.9z" stroke="none" fill="#000000" fill-rule="evenodd" /><path transform="matrix(1 0 0 -1 0 841)" d="M84.744 137.42L220.604 137.42L220.604 137.42L220.604 137.9L220.604 137.9L84.744 137.9z" stroke="none" fill="#000000" fill-rule="evenodd" /><path transform="matrix(1 0 0 -1 0 841)" d="M220.61 137.42L221.09 137.42L221.09 137.42L221.09 137.9L221.09 137.9L220.61 137.9z" stroke="none" fill="#000000" fill-rule="evenodd" /><path transform="matrix(1 0 0 -1 0 841)" d="M221.09 137.42L360.79 137.42L360.79 137.42L360.79 137.9L360.79 137.9L221.09 137.9z" stroke="none" fill="#000000" fill-rule="evenodd" /><path transform="matrix(1 0 0 -1 0 841)" d="M360.79 137.42L361.27 137.42L361.27 137.42L361.27 137.9L361.27 137.9L360.79 137.9z" stroke="none" fill="#000000" fill-rule="evenodd" /><path transform="matrix(1 0 0 -1 0 841)" d="M361.27 137.42L510.69 137.42L510.69 137.42L510.69 137.9L510.69 137.9L361.27 137.9z" stroke="none" fill="#000000" fill-rule="evenodd" /><path transform="matrix(1 0 0 -1 0 841)" d="M510.7 137.42L511.18 137.42L511.18 137.42L511.18 137.9L511.18 137.9L510.7 137.9z" stroke="none" fill="#000000" fill-rule="evenodd" /><path transform="matrix(1 0 0 -1 0 841)" d="M84.264 113.18L84.744 113.18L84.744 113.18L84.744 137.42L84.744 137.42L84.264 137.42z" stroke="none" fill="#000000" fill-rule="evenodd" /><path transform="matrix(1 0 0 -1 0 841)" d="M84.264 112.7L84.744 112.7L84.744 112.7L84.744 113.18L84.744 113.18L84.264 113.18z" stroke="none" fill="#000000" fill-rule="evenodd" /><path transform="matrix(1 0 0 -1 0 841)" d="M84.264 112.7L84.744 112.7L84.744 112.7L84.744 113.18L84.744 113.18L84.264 113.18z" stroke="none" fill="#000000" fill-rule="evenodd" /><path transform="matrix(1 0 0 -1 0 841)" d="M84.744 112.7L220.604 112.7L220.604 112.7L220.604 113.18L220.604 113.18L84.744 113.18z" stroke="none" fill="#000000" fill-rule="evenodd" /><path transform="matrix(1 0 0 -1 0 841)" d="M220.61 113.18L221.09 113.18L221.09 113.18L221.09 137.42L221.09 137.42L220.61 137.42z" stroke="none" fill="#000000" fill-rule="evenodd" /><path transform="matrix(1 0 0 -1 0 841)" d="M220.61 112.7L221.09 112.7L221.09 112.7L221.09 113.18L221.09 113.18L220.61 113.18z" stroke="none" fill="#000000" fill-rule="evenodd" /><path transform="matrix(1 0 0 -1 0 841)" d="M221.09 112.7L360.79 112.7L360.79 112.7L360.79 113.18L360.79 113.18L221.09 113.18z" stroke="none" fill="#000000" fill-rule="evenodd" /><path transform="matrix(1 0 0 -1 0 841)" d="M360.79 113.18L361.27 113.18L361.27 113.18L361.27 137.42L361.27 137.42L360.79 137.42z" stroke="none" fill="#000000" fill-rule="evenodd" /><path transform="matrix(1 0 0 -1 0 841)" d="M360.79 112.7L361.27 112.7L361.27 112.7L361.27 113.18L361.27 113.18L360.79 113.18z" stroke="none" fill="#000000" fill-rule="evenodd" /><path transform="matrix(1 0 0 -1 0 841)" d="M361.27 112.7L510.69 112.7L510.69 112.7L510.69 113.18L510.69 113.18L361.27 113.18z" stroke="none" fill="#000000" fill-rule="evenodd" /><path transform="matrix(1 0 0 -1 0 841)" d="M510.7 113.18L511.18 113.18L511.18 113.18L511.18 137.42L511.18 137.42L510.7 137.42z" stroke="none" fill="#000000" fill-rule="evenodd" /><path transform="matrix(1 0 0 -1 0 841)" d="M510.7 112.7L511.18 112.7L511.18 112.7L511.18 113.18L511.18 113.18L510.7 113.18z" stroke="none" fill="#000000" fill-rule="evenodd" /><path transform="matrix(1 0 0 -1 0 841)" d="M510.7 112.7L511.18 112.7L511.18 112.7L511.18 113.18L511.18 113.18L510.7 113.18z" stroke="none" fill="#000000" fill-rule="evenodd" /></g></g></g></svg>