<svg xmlns="http://www.w3.org/2000/svg" xmlns:xlink="http://www.w3.org/1999/xlink" id="body_7" preserveAspectRatio="xMinYMin meet" viewBox="0 0 793 1121"><defs><clipPath id="1"><path d="M0 841L0 -0.9199829L0 -0.9199829L595.32 -0.9199829L595.32 -0.9199829L595.32 841L595.32 841L0 841z" /></clipPath><clipPath id="2"><path d="M0.00125 841.0914L595.4112 841.0914L595.4112 841.0914L595.4112 -0.9186401L595.4112 -0.9186401L0.00125 -0.9186401z" /></clipPath><clipPath id="3"><path d="M295.13 780.251L300.17 780.251L300.17 780.251L300.17 768.011L300.17 768.011L295.13 768.011z" /></clipPath><clipPath id="4"><path d="M295.13 780.256L300.17 780.256L300.17 780.256L300.17 768.016L300.17 768.016L295.13 768.016z" /></clipPath><clipPath id="5"><path d="M295.13 780.256L300.17 780.256L300.17 780.256L300.17 768.016L300.17 768.016L295.13 768.016z" /></clipPath><clipPath id="6"><path d="M84.751 164.23L165.031 164.23L165.031 164.23L165.031 136.51L165.031 136.51L84.751 136.51z" /></clipPath><clipPath id="7"><path d="M84.744 164.22L165.024 164.22L165.024 164.22L165.024 136.5L165.024 136.5L84.744 136.5z" /></clipPath><clipPath id="8"><path d="M84.744 164.22L165.024 164.22L165.024 164.22L165.024 136.5L165.024 136.5L84.744 136.5z" /></clipPath><clipPath id="9"><path d="M165.51 164.23L234.405 164.23L234.405 164.23L234.405 136.51L234.405 136.51L165.51 136.51z" /></clipPath><clipPath id="10"><path d="M165.5 164.22L234.404 164.22L234.404 164.22L234.404 136.5L234.404 136.5L165.5 136.5z" /></clipPath><clipPath id="11"><path d="M165.5 164.22L234.404 164.22L234.404 164.22L234.404 136.5L234.404 136.5L165.5 136.5z" /></clipPath><clipPath id="12"><path d="M234.89 164.23L435.44 164.23L435.44 164.23L435.44 136.51L435.44 136.51L234.89 136.51z" /></clipPath><clipPath id="13"><path d="M234.89 164.22L435.43 164.22L435.43 164.22L435.43 136.5L435.43 136.5L234.89 136.5z" /></clipPath><clipPath id="14"><path d="M234.89 164.22L435.43 164.22L435.43 164.22L435.43 136.5L435.43 136.5L234.89 136.5z" /></clipPath><clipPath id="15"><path d="M436.04 164.23L510.695 164.23L510.695 164.23L510.695 136.51L510.695 136.51L436.04 136.51z" /></clipPath><clipPath id="16"><path d="M436.03 164.22L510.694 164.22L510.694 164.22L510.694 136.5L510.694 136.5L436.03 136.5z" /></clipPath><clipPath id="17"><path d="M436.03 164.22L510.694 164.22L510.694 164.22L510.694 136.5L510.694 136.5L436.03 136.5z" /></clipPath><clipPath id="18"><path d="M436.03 164.22L510.694 164.22L510.694 164.22L510.694 136.5L510.694 136.5L436.03 136.5z" /></clipPath><clipPath id="19"><path d="M84.751 300.21L165.031 300.21L165.031 300.21L165.031 164.71L165.031 164.71L84.751 164.71z" /></clipPath><clipPath id="20"><path d="M84.744 300.21L165.024 300.21L165.024 300.21L165.024 164.71L165.024 164.71L84.744 164.71z" /></clipPath><clipPath id="21"><path d="M84.744 300.21L165.024 300.21L165.024 300.21L165.024 164.71L165.024 164.71L84.744 164.71z" /></clipPath><clipPath id="22"><path d="M84.744 300.21L165.024 300.21L165.024 300.21L165.024 164.71L165.024 164.71L84.744 164.71z" /></clipPath><clipPath id="23"><path d="M84.744 300.21L165.024 300.21L165.024 300.21L165.024 164.71L165.024 164.71L84.744 164.71z" /></clipPath><clipPath id="24"><path d="M84.744 300.21L165.024 300.21L165.024 300.21L165.024 164.71L165.024 164.71L84.744 164.71z" /></clipPath><clipPath id="25"><path d="M84.744 300.21L165.024 300.21L165.024 300.21L165.024 164.71L165.024 164.71L84.744 164.71z" /></clipPath><clipPath id="26"><path d="M165.51 300.21L234.405 300.21L234.405 300.21L234.405 164.71L234.405 164.71L165.51 164.71z" /></clipPath><clipPath id="27"><path d="M165.5 300.21L234.404 300.21L234.404 300.21L234.404 164.71L234.404 164.71L165.5 164.71z" /></clipPath><clipPath id="28"><path d="M165.5 300.21L234.404 300.21L234.404 300.21L234.404 164.71L234.404 164.71L165.5 164.71z" /></clipPath><clipPath id="29"><path d="M234.89 300.21L435.44 300.21L435.44 300.21L435.44 164.71L435.44 164.71L234.89 164.71z" /></clipPath><clipPath id="30"><path d="M234.89 300.21L435.43 300.21L435.43 300.21L435.43 164.71L435.43 164.71L234.89 164.71z" /></clipPath><clipPath id="31"><path d="M234.89 300.21L435.43 300.21L435.43 300.21L435.43 164.71L435.43 164.71L234.89 164.71z" /></clipPath><clipPath id="32"><path d="M234.89 300.21L435.43 300.21L435.43 300.21L435.43 164.71L435.43 164.71L234.89 164.71z" /></clipPath><clipPath id="33"><path d="M234.89 300.21L435.43 300.21L435.43 300.21L435.43 164.71L435.43 164.71L234.89 164.71z" /></clipPath><clipPath id="34"><path d="M234.89 300.21L435.43 300.21L435.43 300.21L435.43 164.71L435.43 164.71L234.89 164.71z" /></clipPath><clipPath id="35"><path d="M234.89 300.21L435.43 300.21L435.43 300.21L435.43 164.71L435.43 164.71L234.89 164.71z" /></clipPath><clipPath id="36"><path d="M234.89 300.21L435.43 300.21L435.43 300.21L435.43 164.71L435.43 164.71L234.89 164.71z" /></clipPath><clipPath id="37"><path d="M234.89 300.21L435.43 300.21L435.43 300.21L435.43 164.71L435.43 164.71L234.89 164.71z" /></clipPath><clipPath id="38"><path d="M234.89 300.21L435.43 300.21L435.43 300.21L435.43 164.71L435.43 164.71L234.89 164.71z" /></clipPath><clipPath id="39"><path d="M234.89 300.21L435.43 300.21L435.43 300.21L435.43 164.71L435.43 164.71L234.89 164.71z" /></clipPath><clipPath id="40"><path d="M234.89 300.21L435.43 300.21L435.43 300.21L435.43 164.71L435.43 164.71L234.89 164.71z" /></clipPath><clipPath id="41"><path d="M234.89 300.21L435.43 300.21L435.43 300.21L435.43 164.71L435.43 164.71L234.89 164.71z" /></clipPath><clipPath id="42"><path d="M234.89 300.21L435.43 300.21L435.43 300.21L435.43 164.71L435.43 164.71L234.89 164.71z" /></clipPath><clipPath id="43"><path d="M234.89 300.21L435.43 300.21L435.43 300.21L435.43 164.71L435.43 164.71L234.89 164.71z" /></clipPath><clipPath id="44"><path d="M234.89 300.21L435.43 300.21L435.43 300.21L435.43 164.71L435.43 164.71L234.89 164.71z" /></clipPath><clipPath id="45"><path d="M234.89 300.21L435.43 300.21L435.43 300.21L435.43 164.71L435.43 164.71L234.89 164.71z" /></clipPath><clipPath id="46"><path d="M234.89 300.21L435.43 300.21L435.43 300.21L435.43 164.71L435.43 164.71L234.89 164.71z" /></clipPath><clipPath id="47"><path d="M436.04 300.21L510.695 300.21L510.695 300.21L510.695 164.71L510.695 164.71L436.04 164.71z" /></clipPath><clipPath id="48"><path d="M436.03 300.21L510.694 300.21L510.694 300.21L510.694 164.71L510.694 164.71L436.03 164.71z" /></clipPath><clipPath id="49"><path d="M436.03 300.21L510.694 300.21L510.694 300.21L510.694 164.71L510.694 164.71L436.03 164.71z" /></clipPath><clipPath id="50"><path d="M436.03 300.21L510.694 300.21L510.694 300.21L510.694 164.71L510.694 164.71L436.03 164.71z" /></clipPath><clipPath id="51"><path d="M436.03 300.21L510.694 300.21L510.694 300.21L510.694 164.71L510.694 164.71L436.03 164.71z" /></clipPath><clipPath id="52"><path d="M84.751 349.17L165.031 349.17L165.031 349.17L165.031 300.69L165.031 300.69L84.751 300.69z" /></clipPath><clipPath id="53"><path d="M84.744 349.17L165.024 349.17L165.024 349.17L165.024 300.69L165.024 300.69L84.744 300.69z" /></clipPath><clipPath id="54"><path d="M84.744 349.17L165.024 349.17L165.024 349.17L165.024 300.69L165.024 300.69L84.744 300.69z" /></clipPath><clipPath id="55"><path d="M84.744 349.17L165.024 349.17L165.024 349.17L165.024 300.69L165.024 300.69L84.744 300.69z" /></clipPath><clipPath id="56"><path d="M84.744 349.17L165.024 349.17L165.024 349.17L165.024 300.69L165.024 300.69L84.744 300.69z" /></clipPath><clipPath id="57"><path d="M84.744 349.17L165.024 349.17L165.024 349.17L165.024 300.69L165.024 300.69L84.744 300.69z" /></clipPath><clipPath id="58"><path d="M165.51 349.17L234.405 349.17L234.405 349.17L234.405 300.69L234.405 300.69L165.51 300.69z" /></clipPath><clipPath id="59"><path d="M165.5 349.17L234.404 349.17L234.404 349.17L234.404 300.69L234.404 300.69L165.5 300.69z" /></clipPath><clipPath id="60"><path d="M165.5 349.17L234.404 349.17L234.404 349.17L234.404 300.69L234.404 300.69L165.5 300.69z" /></clipPath><clipPath id="61"><path d="M234.89 349.17L435.44 349.17L435.44 349.17L435.44 300.69L435.44 300.69L234.89 300.69z" /></clipPath><clipPath id="62"><path d="M234.89 349.17L435.43 349.17L435.43 349.17L435.43 300.69L435.43 300.69L234.89 300.69z" /></clipPath><clipPath id="63"><path d="M234.89 349.17L435.43 349.17L435.43 349.17L435.43 300.69L435.43 300.69L234.89 300.69z" /></clipPath><clipPath id="64"><path d="M234.89 349.17L435.43 349.17L435.43 349.17L435.43 300.69L435.43 300.69L234.89 300.69z" /></clipPath><clipPath id="65"><path d="M234.89 349.17L435.43 349.17L435.43 349.17L435.43 300.69L435.43 300.69L234.89 300.69z" /></clipPath><clipPath id="66"><path d="M234.89 349.17L435.43 349.17L435.43 349.17L435.43 300.69L435.43 300.69L234.89 300.69z" /></clipPath><clipPath id="67"><path d="M436.04 349.17L510.695 349.17L510.695 349.17L510.695 300.69L510.695 300.69L436.04 300.69z" /></clipPath><clipPath id="68"><path d="M436.03 349.17L510.694 349.17L510.694 349.17L510.694 300.69L510.694 300.69L436.03 300.69z" /></clipPath><clipPath id="69"><path d="M436.03 349.17L510.694 349.17L510.694 349.17L510.694 300.69L510.694 300.69L436.03 300.69z" /></clipPath><clipPath id="70"><path d="M436.03 349.17L510.694 349.17L510.694 349.17L510.694 300.69L510.694 300.69L436.03 300.69z" /></clipPath><clipPath id="71"><path d="M436.03 349.17L510.694 349.17L510.694 349.17L510.694 300.69L510.694 300.69L436.03 300.69z" /></clipPath><clipPath id="72"><path d="M84.751 395.49L165.031 395.49L165.031 395.49L165.031 349.65L165.031 349.65L84.751 349.65z" /></clipPath><clipPath id="73"><path d="M84.744 395.49L165.024 395.49L165.024 395.49L165.024 349.65L165.024 349.65L84.744 349.65z" /></clipPath><clipPath id="74"><path d="M84.744 395.49L165.024 395.49L165.024 395.49L165.024 349.65L165.024 349.65L84.744 349.65z" /></clipPath><clipPath id="75"><path d="M84.744 395.49L165.024 395.49L165.024 395.49L165.024 349.65L165.024 349.65L84.744 349.65z" /></clipPath><clipPath id="76"><path d="M165.51 395.49L234.405 395.49L234.405 395.49L234.405 349.65L234.405 349.65L165.51 349.65z" /></clipPath><clipPath id="77"><path d="M165.5 395.49L234.404 395.49L234.404 395.49L234.404 349.65L234.404 349.65L165.5 349.65z" /></clipPath><clipPath id="78"><path d="M165.5 395.49L234.404 395.49L234.404 395.49L234.404 349.65L234.404 349.65L165.5 349.65z" /></clipPath><clipPath id="79"><path d="M234.89 395.49L435.44 395.49L435.44 395.49L435.44 349.65L435.44 349.65L234.89 349.65z" /></clipPath><clipPath id="80"><path d="M234.89 395.49L435.43 395.49L435.43 395.49L435.43 349.65L435.43 349.65L234.89 349.65z" /></clipPath><clipPath id="81"><path d="M234.89 395.49L435.43 395.49L435.43 395.49L435.43 349.65L435.43 349.65L234.89 349.65z" /></clipPath><clipPath id="82"><path d="M234.89 395.49L435.43 395.49L435.43 395.49L435.43 349.65L435.43 349.65L234.89 349.65z" /></clipPath><clipPath id="83"><path d="M234.89 395.49L435.43 395.49L435.43 395.49L435.43 349.65L435.43 349.65L234.89 349.65z" /></clipPath><clipPath id="84"><path d="M234.89 395.49L435.43 395.49L435.43 395.49L435.43 349.65L435.43 349.65L234.89 349.65z" /></clipPath><clipPath id="85"><path d="M436.04 395.49L510.695 395.49L510.695 395.49L510.695 349.65L510.695 349.65L436.04 349.65z" /></clipPath><clipPath id="86"><path d="M436.03 395.49L510.694 395.49L510.694 395.49L510.694 349.65L510.694 349.65L436.03 349.65z" /></clipPath><clipPath id="87"><path d="M436.03 395.49L510.694 395.49L510.694 395.49L510.694 349.65L510.694 349.65L436.03 349.65z" /></clipPath><clipPath id="88"><path d="M436.03 395.49L510.694 395.49L510.694 395.49L510.694 349.65L510.694 349.65L436.03 349.65z" /></clipPath><clipPath id="89"><path d="M436.03 395.49L510.694 395.49L510.694 395.49L510.694 349.65L510.694 349.65L436.03 349.65z" /></clipPath><clipPath id="90"><path d="M84.751 550.8L165.031 550.8L165.031 550.8L165.031 395.97L165.031 395.97L84.751 395.97z" /></clipPath><clipPath id="91"><path d="M84.744 550.79L165.024 550.79L165.024 550.79L165.024 395.97L165.024 395.97L84.744 395.97z" /></clipPath><clipPath id="92"><path d="M84.744 550.79L165.024 550.79L165.024 550.79L165.024 395.97L165.024 395.97L84.744 395.97z" /></clipPath><clipPath id="93"><path d="M84.744 550.79L165.024 550.79L165.024 550.79L165.024 395.97L165.024 395.97L84.744 395.97z" /></clipPath><clipPath id="94"><path d="M165.51 550.8L234.405 550.8L234.405 550.8L234.405 395.97L234.405 395.97L165.51 395.97z" /></clipPath><clipPath id="95"><path d="M165.5 550.79L234.404 550.79L234.404 550.79L234.404 395.97L234.404 395.97L165.5 395.97z" /></clipPath><clipPath id="96"><path d="M165.5 550.79L234.404 550.79L234.404 550.79L234.404 395.97L234.404 395.97L165.5 395.97z" /></clipPath><clipPath id="97"><path d="M234.89 550.8L435.44 550.8L435.44 550.8L435.44 395.97L435.44 395.97L234.89 395.97z" /></clipPath><clipPath id="98"><path d="M234.89 550.79L435.43 550.79L435.43 550.79L435.43 395.97L435.43 395.97L234.89 395.97z" /></clipPath><clipPath id="99"><path d="M234.89 550.79L435.43 550.79L435.43 550.79L435.43 395.97L435.43 395.97L234.89 395.97z" /></clipPath><clipPath id="100"><path d="M234.89 550.79L435.43 550.79L435.43 550.79L435.43 395.97L435.43 395.97L234.89 395.97z" /></clipPath><clipPath id="101"><path d="M234.89 550.79L435.43 550.79L435.43 550.79L435.43 395.97L435.43 395.97L234.89 395.97z" /></clipPath><clipPath id="102"><path d="M234.89 550.79L435.43 550.79L435.43 550.79L435.43 395.97L435.43 395.97L234.89 395.97z" /></clipPath><clipPath id="103"><path d="M234.89 550.79L435.43 550.79L435.43 550.79L435.43 395.97L435.43 395.97L234.89 395.97z" /></clipPath><clipPath id="104"><path d="M234.89 550.79L435.43 550.79L435.43 550.79L435.43 395.97L435.43 395.97L234.89 395.97z" /></clipPath><clipPath id="105"><path d="M234.89 550.79L435.43 550.79L435.43 550.79L435.43 395.97L435.43 395.97L234.89 395.97z" /></clipPath><clipPath id="106"><path d="M234.89 550.79L435.43 550.79L435.43 550.79L435.43 395.97L435.43 395.97L234.89 395.97z" /></clipPath><clipPath id="107"><path d="M234.89 550.79L435.43 550.79L435.43 550.79L435.43 395.97L435.43 395.97L234.89 395.97z" /></clipPath><clipPath id="108"><path d="M234.89 550.79L435.43 550.79L435.43 550.79L435.43 395.97L435.43 395.97L234.89 395.97z" /></clipPath><clipPath id="109"><path d="M234.89 550.79L435.43 550.79L435.43 550.79L435.43 395.97L435.43 395.97L234.89 395.97z" /></clipPath><clipPath id="110"><path d="M234.89 550.79L435.43 550.79L435.43 550.79L435.43 395.97L435.43 395.97L234.89 395.97z" /></clipPath><clipPath id="111"><path d="M234.89 550.79L435.43 550.79L435.43 550.79L435.43 395.97L435.43 395.97L234.89 395.97z" /></clipPath><clipPath id="112"><path d="M234.89 550.79L435.43 550.79L435.43 550.79L435.43 395.97L435.43 395.97L234.89 395.97z" /></clipPath><clipPath id="113"><path d="M234.89 550.79L435.43 550.79L435.43 550.79L435.43 395.97L435.43 395.97L234.89 395.97z" /></clipPath><clipPath id="114"><path d="M234.89 550.79L435.43 550.79L435.43 550.79L435.43 395.97L435.43 395.97L234.89 395.97z" /></clipPath><clipPath id="115"><path d="M234.89 550.79L435.43 550.79L435.43 550.79L435.43 395.97L435.43 395.97L234.89 395.97z" /></clipPath><clipPath id="116"><path d="M234.89 550.79L435.43 550.79L435.43 550.79L435.43 395.97L435.43 395.97L234.89 395.97z" /></clipPath><clipPath id="117"><path d="M234.89 550.79L435.43 550.79L435.43 550.79L435.43 395.97L435.43 395.97L234.89 395.97z" /></clipPath><clipPath id="118"><path d="M234.89 550.79L435.43 550.79L435.43 550.79L435.43 395.97L435.43 395.97L234.89 395.97z" /></clipPath><clipPath id="119"><path d="M234.89 550.79L435.43 550.79L435.43 550.79L435.43 395.97L435.43 395.97L234.89 395.97z" /></clipPath><clipPath id="120"><path d="M234.89 550.79L435.43 550.79L435.43 550.79L435.43 395.97L435.43 395.97L234.89 395.97z" /></clipPath><clipPath id="121"><path d="M436.04 550.8L510.695 550.8L510.695 550.8L510.695 395.97L510.695 395.97L436.04 395.97z" /></clipPath><clipPath id="122"><path d="M436.03 550.79L510.694 550.79L510.694 550.79L510.694 395.97L510.694 395.97L436.03 395.97z" /></clipPath><clipPath id="123"><path d="M436.03 550.79L510.694 550.79L510.694 550.79L510.694 395.97L510.694 395.97L436.03 395.97z" /></clipPath><clipPath id="124"><path d="M436.03 550.79L510.694 550.79L510.694 550.79L510.694 395.97L510.694 395.97L436.03 395.97z" /></clipPath><clipPath id="125"><path d="M436.03 550.79L510.694 550.79L510.694 550.79L510.694 395.97L510.694 395.97L436.03 395.97z" /></clipPath><clipPath id="126"><path d="M84.751 633.36L165.031 633.36L165.031 633.36L165.031 551.28L165.031 551.28L84.751 551.28z" /></clipPath><clipPath id="127"><path d="M84.744 633.35L165.024 633.35L165.024 633.35L165.024 551.27L165.024 551.27L84.744 551.27z" /></clipPath><clipPath id="128"><path d="M84.744 633.35L165.024 633.35L165.024 633.35L165.024 551.27L165.024 551.27L84.744 551.27z" /></clipPath><clipPath id="129"><path d="M84.744 633.35L165.024 633.35L165.024 633.35L165.024 551.27L165.024 551.27L84.744 551.27z" /></clipPath><clipPath id="130"><path d="M165.51 633.36L234.405 633.36L234.405 633.36L234.405 551.28L234.405 551.28L165.51 551.28z" /></clipPath><clipPath id="131"><path d="M165.5 633.35L234.404 633.35L234.404 633.35L234.404 551.27L234.404 551.27L165.5 551.27z" /></clipPath><clipPath id="132"><path d="M165.5 633.35L234.404 633.35L234.404 633.35L234.404 551.27L234.404 551.27L165.5 551.27z" /></clipPath><clipPath id="133"><path d="M234.89 633.36L435.44 633.36L435.44 633.36L435.44 551.28L435.44 551.28L234.89 551.28z" /></clipPath><clipPath id="134"><path d="M234.89 633.35L435.43 633.35L435.43 633.35L435.43 551.27L435.43 551.27L234.89 551.27z" /></clipPath><clipPath id="135"><path d="M234.89 633.35L435.43 633.35L435.43 633.35L435.43 551.27L435.43 551.27L234.89 551.27z" /></clipPath><clipPath id="136"><path d="M234.89 633.35L435.43 633.35L435.43 633.35L435.43 551.27L435.43 551.27L234.89 551.27z" /></clipPath><clipPath id="137"><path d="M234.89 633.35L435.43 633.35L435.43 633.35L435.43 551.27L435.43 551.27L234.89 551.27z" /></clipPath><clipPath id="138"><path d="M234.89 633.35L435.43 633.35L435.43 633.35L435.43 551.27L435.43 551.27L234.89 551.27z" /></clipPath><clipPath id="139"><path d="M234.89 633.35L435.43 633.35L435.43 633.35L435.43 551.27L435.43 551.27L234.89 551.27z" /></clipPath><clipPath id="140"><path d="M234.89 633.35L435.43 633.35L435.43 633.35L435.43 551.27L435.43 551.27L234.89 551.27z" /></clipPath><clipPath id="141"><path d="M234.89 633.35L435.43 633.35L435.43 633.35L435.43 551.27L435.43 551.27L234.89 551.27z" /></clipPath><clipPath id="142"><path d="M234.89 633.35L435.43 633.35L435.43 633.35L435.43 551.27L435.43 551.27L234.89 551.27z" /></clipPath><clipPath id="143"><path d="M234.89 633.35L435.43 633.35L435.43 633.35L435.43 551.27L435.43 551.27L234.89 551.27z" /></clipPath><clipPath id="144"><path d="M234.89 633.35L435.43 633.35L435.43 633.35L435.43 551.27L435.43 551.27L234.89 551.27z" /></clipPath><clipPath id="145"><path d="M234.89 633.35L435.43 633.35L435.43 633.35L435.43 551.27L435.43 551.27L234.89 551.27z" /></clipPath><clipPath id="146"><path d="M436.04 633.36L510.695 633.36L510.695 633.36L510.695 551.28L510.695 551.28L436.04 551.28z" /></clipPath><clipPath id="147"><path d="M436.03 633.35L510.694 633.35L510.694 633.35L510.694 551.27L510.694 551.27L436.03 551.27z" /></clipPath><clipPath id="148"><path d="M436.03 633.35L510.694 633.35L510.694 633.35L510.694 551.27L510.694 551.27L436.03 551.27z" /></clipPath><clipPath id="149"><path d="M436.03 633.35L510.694 633.35L510.694 633.35L510.694 551.27L510.694 551.27L436.03 551.27z" /></clipPath><clipPath id="150"><path d="M436.03 633.35L510.694 633.35L510.694 633.35L510.694 551.27L510.694 551.27L436.03 551.27z" /></clipPath><clipPath id="151"><path d="M84.751 697.81L165.031 697.81L165.031 697.81L165.031 633.835L165.031 633.835L84.751 633.835z" /></clipPath><clipPath id="152"><path d="M84.744 697.82L165.024 697.82L165.024 697.82L165.024 633.836L165.024 633.836L84.744 633.836z" /></clipPath><clipPath id="153"><path d="M84.744 697.82L165.024 697.82L165.024 697.82L165.024 633.836L165.024 633.836L84.744 633.836z" /></clipPath><clipPath id="154"><path d="M84.744 697.82L165.024 697.82L165.024 697.82L165.024 633.836L165.024 633.836L84.744 633.836z" /></clipPath><clipPath id="155"><path d="M165.51 697.81L234.405 697.81L234.405 697.81L234.405 633.835L234.405 633.835L165.51 633.835z" /></clipPath><clipPath id="156"><path d="M165.5 697.82L234.404 697.82L234.404 697.82L234.404 633.836L234.404 633.836L165.5 633.836z" /></clipPath><clipPath id="157"><path d="M165.5 697.82L234.404 697.82L234.404 697.82L234.404 633.836L234.404 633.836L165.5 633.836z" /></clipPath><clipPath id="158"><path d="M234.89 697.81L435.44 697.81L435.44 697.81L435.44 633.835L435.44 633.835L234.89 633.835z" /></clipPath><clipPath id="159"><path d="M234.89 697.82L435.43 697.82L435.43 697.82L435.43 633.836L435.43 633.836L234.89 633.836z" /></clipPath><clipPath id="160"><path d="M234.89 697.82L435.43 697.82L435.43 697.82L435.43 633.836L435.43 633.836L234.89 633.836z" /></clipPath><clipPath id="161"><path d="M234.89 697.82L435.43 697.82L435.43 697.82L435.43 633.836L435.43 633.836L234.89 633.836z" /></clipPath><clipPath id="162"><path d="M234.89 697.82L435.43 697.82L435.43 697.82L435.43 633.836L435.43 633.836L234.89 633.836z" /></clipPath><clipPath id="163"><path d="M234.89 697.82L435.43 697.82L435.43 697.82L435.43 633.836L435.43 633.836L234.89 633.836z" /></clipPath><clipPath id="164"><path d="M234.89 697.82L435.43 697.82L435.43 697.82L435.43 633.836L435.43 633.836L234.89 633.836z" /></clipPath><clipPath id="165"><path d="M234.89 697.82L435.43 697.82L435.43 697.82L435.43 633.836L435.43 633.836L234.89 633.836z" /></clipPath><clipPath id="166"><path d="M234.89 697.82L435.43 697.82L435.43 697.82L435.43 633.836L435.43 633.836L234.89 633.836z" /></clipPath><clipPath id="167"><path d="M234.89 697.82L435.43 697.82L435.43 697.82L435.43 633.836L435.43 633.836L234.89 633.836z" /></clipPath><clipPath id="168"><path d="M234.89 697.82L435.43 697.82L435.43 697.82L435.43 633.836L435.43 633.836L234.89 633.836z" /></clipPath><clipPath id="169"><path d="M234.89 697.82L435.43 697.82L435.43 697.82L435.43 633.836L435.43 633.836L234.89 633.836z" /></clipPath><clipPath id="170"><path d="M234.89 697.82L435.43 697.82L435.43 697.82L435.43 633.836L435.43 633.836L234.89 633.836z" /></clipPath><clipPath id="171"><path d="M436.04 697.81L510.695 697.81L510.695 697.81L510.695 633.835L510.695 633.835L436.04 633.835z" /></clipPath><clipPath id="172"><path d="M436.03 697.82L510.694 697.82L510.694 697.82L510.694 633.836L510.694 633.836L436.03 633.836z" /></clipPath><clipPath id="173"><path d="M436.03 697.82L510.694 697.82L510.694 697.82L510.694 633.836L510.694 633.836L436.03 633.836z" /></clipPath><clipPath id="174"><path d="M436.03 697.82L510.694 697.82L510.694 697.82L510.694 633.836L510.694 633.836L436.03 633.836z" /></clipPath><clipPath id="175"><path d="M84.751 742.091L165.031 742.091L165.031 742.091L165.031 698.411L165.031 698.411L84.751 698.411z" /></clipPath><clipPath id="176"><path d="M84.744 742.096L165.024 742.096L165.024 742.096L165.024 698.416L165.024 698.416L84.744 698.416z" /></clipPath><clipPath id="177"><path d="M84.744 742.096L165.024 742.096L165.024 742.096L165.024 698.416L165.024 698.416L84.744 698.416z" /></clipPath><clipPath id="178"><path d="M84.744 742.096L165.024 742.096L165.024 742.096L165.024 698.416L165.024 698.416L84.744 698.416z" /></clipPath><clipPath id="179"><path d="M165.51 742.091L234.405 742.091L234.405 742.091L234.405 698.411L234.405 698.411L165.51 698.411z" /></clipPath><clipPath id="180"><path d="M165.5 742.096L234.404 742.096L234.404 742.096L234.404 698.416L234.404 698.416L165.5 698.416z" /></clipPath><clipPath id="181"><path d="M165.5 742.096L234.404 742.096L234.404 742.096L234.404 698.416L234.404 698.416L165.5 698.416z" /></clipPath><clipPath id="182"><path d="M234.89 742.091L435.44 742.091L435.44 742.091L435.44 698.411L435.44 698.411L234.89 698.411z" /></clipPath><clipPath id="183"><path d="M234.89 742.096L435.43 742.096L435.43 742.096L435.43 698.416L435.43 698.416L234.89 698.416z" /></clipPath><clipPath id="184"><path d="M234.89 742.096L435.43 742.096L435.43 742.096L435.43 698.416L435.43 698.416L234.89 698.416z" /></clipPath><clipPath id="185"><path d="M234.89 742.096L435.43 742.096L435.43 742.096L435.43 698.416L435.43 698.416L234.89 698.416z" /></clipPath><clipPath id="186"><path d="M234.89 742.096L435.43 742.096L435.43 742.096L435.43 698.416L435.43 698.416L234.89 698.416z" /></clipPath><clipPath id="187"><path d="M234.89 742.096L435.43 742.096L435.43 742.096L435.43 698.416L435.43 698.416L234.89 698.416z" /></clipPath><clipPath id="188"><path d="M234.89 742.096L435.43 742.096L435.43 742.096L435.43 698.416L435.43 698.416L234.89 698.416z" /></clipPath><clipPath id="189"><path d="M234.89 742.096L435.43 742.096L435.43 742.096L435.43 698.416L435.43 698.416L234.89 698.416z" /></clipPath><clipPath id="190"><path d="M234.89 742.096L435.43 742.096L435.43 742.096L435.43 698.416L435.43 698.416L234.89 698.416z" /></clipPath><clipPath id="191"><path d="M234.89 742.096L435.43 742.096L435.43 742.096L435.43 698.416L435.43 698.416L234.89 698.416z" /></clipPath><clipPath id="192"><path d="M234.89 742.096L435.43 742.096L435.43 742.096L435.43 698.416L435.43 698.416L234.89 698.416z" /></clipPath><clipPath id="193"><path d="M436.04 742.091L510.695 742.091L510.695 742.091L510.695 698.411L510.695 698.411L436.04 698.411z" /></clipPath><clipPath id="194"><path d="M436.03 742.096L510.694 742.096L510.694 742.096L510.694 698.416L510.694 698.416L436.03 698.416z" /></clipPath><clipPath id="195"><path d="M436.03 742.096L510.694 742.096L510.694 742.096L510.694 698.416L510.694 698.416L436.03 698.416z" /></clipPath><clipPath id="196"><path d="M436.03 742.096L510.694 742.096L510.694 742.096L510.694 698.416L510.694 698.416L436.03 698.416z" /></clipPath></defs><g transform="matrix(1.333333 0 0 1.333333 0 0)"><g><g clip-path="url(#1)"><path transform="matrix(1 0 0 -1 0 841)" d="M457.63 53.424L505.534 53.424L505.534 53.424L505.534 54.02404L505.534 54.02404L457.63 54.02404z" stroke="none" fill="#000000" fill-rule="evenodd" /><g clip-path="url(#2)"><path transform="matrix(1 0 0 -1 0 841)" d="M88.464 78.984L506.974 78.984L506.974 78.984L506.974 81.984L506.974 81.984L88.464 81.984z" stroke="none" fill="#000000" fill-rule="evenodd" /><path transform="matrix(1 0 0 -1 0 841)" d="M88.464 77.544L506.974 77.544L506.974 77.544L506.974 78.26397L506.974 78.26397L88.464 78.26397z" stroke="none" fill="#000000" fill-rule="evenodd" /></g><g clip-path="url(#3)"><g clip-path="url(#4)"></g><g clip-path="url(#5)"></g></g><path transform="matrix(1 0 0 -1 0 841)" d="M84.744 676.78L165.024 676.78L165.024 676.78L165.024 704.5L165.024 704.5L84.744 704.5z" stroke="none" fill="#0070C0" fill-rule="evenodd" /><g clip-path="url(#6)"><path transform="matrix(1 0 0 -1 0 841)" d="M89.904 676.78L159.864 676.78L159.864 676.78L159.864 704.5L159.864 704.5L89.904 704.5z" stroke="none" fill="#0070C0" fill-rule="evenodd" /><g clip-path="url(#7)"></g><g clip-path="url(#8)"></g></g><path transform="matrix(1 0 0 -1 0 841)" d="M165.5 676.78L234.404 676.78L234.404 676.78L234.404 704.5L234.404 704.5L165.5 704.5z" stroke="none" fill="#0070C0" fill-rule="evenodd" /><g clip-path="url(#9)"><path transform="matrix(1 0 0 -1 0 841)" d="M170.66 676.78L229.244 676.78L229.244 676.78L229.244 704.5L229.244 704.5L170.66 704.5z" stroke="none" fill="#0070C0" fill-rule="evenodd" /><g clip-path="url(#10)"></g><g clip-path="url(#11)"></g></g><path transform="matrix(1 0 0 -1 0 841)" d="M234.89 676.78L435.43 676.78L435.43 676.78L435.43 704.5L435.43 704.5L234.89 704.5z" stroke="none" fill="#0070C0" fill-rule="evenodd" /><g clip-path="url(#12)"><path transform="matrix(1 0 0 -1 0 841)" d="M240.05 676.78L430.27 676.78L430.27 676.78L430.27 704.5L430.27 704.5L240.05 704.5z" stroke="none" fill="#0070C0" fill-rule="evenodd" /><g clip-path="url(#13)"></g><g clip-path="url(#14)"></g></g><path transform="matrix(1 0 0 -1 0 841)" d="M436.03 676.78L510.694 676.78L510.694 676.78L510.694 704.5L510.694 704.5L436.03 704.5z" stroke="none" fill="#0070C0" fill-rule="evenodd" /><g clip-path="url(#15)"><path transform="matrix(1 0 0 -1 0 841)" d="M441.07 676.78L505.534 676.78L505.534 676.78L505.534 704.5L505.534 704.5L441.07 704.5z" stroke="none" fill="#0070C0" fill-rule="evenodd" /><g clip-path="url(#16)"></g><g clip-path="url(#17)"></g><g clip-path="url(#18)"></g></g><path transform="matrix(1 0 0 -1 0 841)" d="M84.264 704.5L84.744 704.5L84.744 704.5L84.744 704.98L84.744 704.98L84.264 704.98z" stroke="none" fill="#000000" fill-rule="evenodd" /><path transform="matrix(1 0 0 -1 0 841)" d="M84.264 704.5L84.744 704.5L84.744 704.5L84.744 704.98L84.744 704.98L84.264 704.98z" stroke="none" fill="#000000" fill-rule="evenodd" /><path transform="matrix(1 0 0 -1 0 841)" d="M84.744 704.5L165.024 704.5L165.024 704.5L165.024 704.98L165.024 704.98L84.744 704.98z" stroke="none" fill="#000000" fill-rule="evenodd" /><path transform="matrix(1 0 0 -1 0 841)" d="M165.02 704.5L165.5 704.5L165.5 704.5L165.5 704.98L165.5 704.98L165.02 704.98z" stroke="none" fill="#000000" fill-rule="evenodd" /><path transform="matrix(1 0 0 -1 0 841)" d="M165.5 704.5L234.404 704.5L234.404 704.5L234.404 704.98L234.404 704.98L165.5 704.98z" stroke="none" fill="#000000" fill-rule="evenodd" /><path transform="matrix(1 0 0 -1 0 841)" d="M234.41 704.5L234.89 704.5L234.89 704.5L234.89 704.98L234.89 704.98L234.41 704.98z" stroke="none" fill="#000000" fill-rule="evenodd" /><path transform="matrix(1 0 0 -1 0 841)" d="M234.89 704.5L435.55 704.5L435.55 704.5L435.55 704.98L435.55 704.98L234.89 704.98z" stroke="none" fill="#000000" fill-rule="evenodd" /><path transform="matrix(1 0 0 -1 0 841)" d="M435.55 704.5L436.03 704.5L436.03 704.5L436.03 704.98L436.03 704.98L435.55 704.98z" stroke="none" fill="#000000" fill-rule="evenodd" /><path transform="matrix(1 0 0 -1 0 841)" d="M436.03 704.5L510.694 704.5L510.694 704.5L510.694 704.98L510.694 704.98L436.03 704.98z" stroke="none" fill="#000000" fill-rule="evenodd" /><path transform="matrix(1 0 0 -1 0 841)" d="M510.7 704.5L511.18 704.5L511.18 704.5L511.18 704.98L511.18 704.98L510.7 704.98z" stroke="none" fill="#000000" fill-rule="evenodd" /><path transform="matrix(1 0 0 -1 0 841)" d="M510.7 704.5L511.18 704.5L511.18 704.5L511.18 704.98L511.18 704.98L510.7 704.98z" stroke="none" fill="#000000" fill-rule="evenodd" /><path transform="matrix(1 0 0 -1 0 841)" d="M84.264 676.78L84.744 676.78L84.744 676.78L84.744 704.5L84.744 704.5L84.264 704.5z" stroke="none" fill="#000000" fill-rule="evenodd" /><path transform="matrix(1 0 0 -1 0 841)" d="M165.02 676.78L165.5 676.78L165.5 676.78L165.5 704.5L165.5 704.5L165.02 704.5z" stroke="none" fill="#000000" fill-rule="evenodd" /><path transform="matrix(1 0 0 -1 0 841)" d="M234.41 676.78L234.89 676.78L234.89 676.78L234.89 704.5L234.89 704.5L234.41 704.5z" stroke="none" fill="#000000" fill-rule="evenodd" /><path transform="matrix(1 0 0 -1 0 841)" d="M435.55 676.78L436.03 676.78L436.03 676.78L436.03 704.5L436.03 704.5L435.55 704.5z" stroke="none" fill="#000000" fill-rule="evenodd" /><path transform="matrix(1 0 0 -1 0 841)" d="M510.7 676.78L511.18 676.78L511.18 676.78L511.18 704.5L511.18 704.5L510.7 704.5z" stroke="none" fill="#000000" fill-rule="evenodd" /><path transform="matrix(1 0 0 -1 0 841)" d="M84.744 540.79L165.024 540.79L165.024 540.79L165.024 676.29L165.024 676.29L84.744 676.29z" stroke="none" fill="#DAEEF3" fill-rule="evenodd" /><g clip-path="url(#19)"><path transform="matrix(1 0 0 -1 0 841)" d="M89.904 649.78L159.864 649.78L159.864 649.78L159.864 676.3L159.864 676.3L89.904 676.3z" stroke="none" fill="#DAEEF3" fill-rule="evenodd" /><g clip-path="url(#20)"></g><g clip-path="url(#21)"></g><g clip-path="url(#22)"></g><g clip-path="url(#23)"></g><path transform="matrix(1 0 0 -1 0 841)" d="M89.904 627.94L159.864 627.94L159.864 627.94L159.864 649.78L159.864 649.78L89.904 649.78z" stroke="none" fill="#DAEEF3" fill-rule="evenodd" /><g clip-path="url(#24)"></g><g clip-path="url(#25)"></g></g><path transform="matrix(1 0 0 -1 0 841)" d="M165.5 540.79L234.404 540.79L234.404 540.79L234.404 676.29L234.404 676.29L165.5 676.29z" stroke="none" fill="#DAEEF3" fill-rule="evenodd" /><g clip-path="url(#26)"><path transform="matrix(1 0 0 -1 0 841)" d="M170.66 649.78L229.244 649.78L229.244 649.78L229.244 676.3L229.244 676.3L170.66 676.3z" stroke="none" fill="#DAEEF3" fill-rule="evenodd" /><g clip-path="url(#27)"></g><g clip-path="url(#28)"></g></g><path transform="matrix(1 0 0 -1 0 841)" d="M234.89 540.79L435.43 540.79L435.43 540.79L435.43 676.29L435.43 676.29L234.89 676.29z" stroke="none" fill="#DAEEF3" fill-rule="evenodd" /><g clip-path="url(#29)"><path transform="matrix(1 0 0 -1 0 841)" d="M240.05 653.38L430.27 653.38L430.27 653.38L430.27 676.3L430.27 676.3L240.05 676.3z" stroke="none" fill="#DAEEF3" fill-rule="evenodd" /><g clip-path="url(#30)"></g><g clip-path="url(#31)"></g><g clip-path="url(#32)"></g><g clip-path="url(#33)"></g><path transform="matrix(1 0 0 -1 0 841)" d="M240.05 635.26L430.27 635.26L430.27 635.26L430.27 653.38L430.27 653.38L240.05 653.38z" stroke="none" fill="#DAEEF3" fill-rule="evenodd" /><g clip-path="url(#34)"></g><g clip-path="url(#35)"></g><g clip-path="url(#36)"></g><path transform="matrix(1 0 0 -1 0 841)" d="M240.05 617.14L430.27 617.14L430.27 617.14L430.27 635.26L430.27 635.26L240.05 635.26z" stroke="none" fill="#DAEEF3" fill-rule="evenodd" /><g clip-path="url(#37)"></g><path transform="matrix(1 0 0 -1 0 841)" d="M240.05 598.9L430.27 598.9L430.27 598.9L430.27 617.14L430.27 617.14L240.05 617.14z" stroke="none" fill="#DAEEF3" fill-rule="evenodd" /><g clip-path="url(#38)"></g><g clip-path="url(#39)"></g><path transform="matrix(1 0 0 -1 0 841)" d="M240.05 580.78L430.27 580.78L430.27 580.78L430.27 598.9L430.27 598.9L240.05 598.9z" stroke="none" fill="#DAEEF3" fill-rule="evenodd" /><g clip-path="url(#40)"></g><g clip-path="url(#41)"></g><g clip-path="url(#42)"></g><path transform="matrix(1 0 0 -1 0 841)" d="M240.05 562.66L430.27 562.66L430.27 562.66L430.27 580.78L430.27 580.78L240.05 580.78z" stroke="none" fill="#DAEEF3" fill-rule="evenodd" /><g clip-path="url(#43)"></g><g clip-path="url(#44)"></g><path transform="matrix(1 0 0 -1 0 841)" d="M240.05 540.79L430.27 540.79L430.27 540.79L430.27 562.654L430.27 562.654L240.05 562.654z" stroke="none" fill="#DAEEF3" fill-rule="evenodd" /><g clip-path="url(#45)"></g><g clip-path="url(#46)"></g></g><path transform="matrix(1 0 0 -1 0 841)" d="M436.03 540.79L510.694 540.79L510.694 540.79L510.694 676.29L510.694 676.29L436.03 676.29z" stroke="none" fill="#DAEEF3" fill-rule="evenodd" /><g clip-path="url(#47)"><path transform="matrix(1 0 0 -1 0 841)" d="M441.07 649.78L505.534 649.78L505.534 649.78L505.534 676.3L505.534 676.3L441.07 676.3z" stroke="none" fill="#DAEEF3" fill-rule="evenodd" /><g clip-path="url(#48)"></g><g clip-path="url(#49)"></g><g clip-path="url(#50)"></g><g clip-path="url(#51)"></g></g><path transform="matrix(1 0 0 -1 0 841)" d="M84.264 676.3L84.744 676.3L84.744 676.3L84.744 676.78L84.744 676.78L84.264 676.78z" stroke="none" fill="#000000" fill-rule="evenodd" /><path transform="matrix(1 0 0 -1 0 841)" d="M84.744 676.3L165.024 676.3L165.024 676.3L165.024 676.78L165.024 676.78L84.744 676.78z" stroke="none" fill="#000000" fill-rule="evenodd" /><path transform="matrix(1 0 0 -1 0 841)" d="M165.02 676.3L165.5 676.3L165.5 676.3L165.5 676.78L165.5 676.78L165.02 676.78z" stroke="none" fill="#000000" fill-rule="evenodd" /><path transform="matrix(1 0 0 -1 0 841)" d="M165.5 676.3L234.404 676.3L234.404 676.3L234.404 676.78L234.404 676.78L165.5 676.78z" stroke="none" fill="#000000" fill-rule="evenodd" /><path transform="matrix(1 0 0 -1 0 841)" d="M234.41 676.3L234.89 676.3L234.89 676.3L234.89 676.78L234.89 676.78L234.41 676.78z" stroke="none" fill="#000000" fill-rule="evenodd" /><path transform="matrix(1 0 0 -1 0 841)" d="M234.89 676.3L435.55 676.3L435.55 676.3L435.55 676.78L435.55 676.78L234.89 676.78z" stroke="none" fill="#000000" fill-rule="evenodd" /><path transform="matrix(1 0 0 -1 0 841)" d="M435.55 676.3L436.03 676.3L436.03 676.3L436.03 676.78L436.03 676.78L435.55 676.78z" stroke="none" fill="#000000" fill-rule="evenodd" /><path transform="matrix(1 0 0 -1 0 841)" d="M436.03 676.3L510.694 676.3L510.694 676.3L510.694 676.78L510.694 676.78L436.03 676.78z" stroke="none" fill="#000000" fill-rule="evenodd" /><path transform="matrix(1 0 0 -1 0 841)" d="M510.7 676.3L511.18 676.3L511.18 676.3L511.18 676.78L511.18 676.78L510.7 676.78z" stroke="none" fill="#000000" fill-rule="evenodd" /><path transform="matrix(1 0 0 -1 0 841)" d="M84.264 540.79L84.744 540.79L84.744 540.79L84.744 676.29L84.744 676.29L84.264 676.29z" stroke="none" fill="#000000" fill-rule="evenodd" /><path transform="matrix(1 0 0 -1 0 841)" d="M165.02 540.79L165.5 540.79L165.5 540.79L165.5 676.29L165.5 676.29L165.02 676.29z" stroke="none" fill="#000000" fill-rule="evenodd" /><path transform="matrix(1 0 0 -1 0 841)" d="M234.41 540.79L234.89 540.79L234.89 540.79L234.89 676.29L234.89 676.29L234.41 676.29z" stroke="none" fill="#000000" fill-rule="evenodd" /><path transform="matrix(1 0 0 -1 0 841)" d="M435.55 540.79L436.03 540.79L436.03 540.79L436.03 676.29L436.03 676.29L435.55 676.29z" stroke="none" fill="#000000" fill-rule="evenodd" /><path transform="matrix(1 0 0 -1 0 841)" d="M510.7 540.79L511.18 540.79L511.18 540.79L511.18 676.29L511.18 676.29L510.7 676.29z" stroke="none" fill="#000000" fill-rule="evenodd" /><g clip-path="url(#52)"><g clip-path="url(#53)"></g><g clip-path="url(#54)"></g><g clip-path="url(#55)"></g><g clip-path="url(#56)"></g><g clip-path="url(#57)"></g></g><g clip-path="url(#58)"><g clip-path="url(#59)"></g><g clip-path="url(#60)"></g></g><g clip-path="url(#61)"><g clip-path="url(#62)"></g><g clip-path="url(#63)"></g><g clip-path="url(#64)"></g><g clip-path="url(#65)"></g><g clip-path="url(#66)"></g></g><g clip-path="url(#67)"><g clip-path="url(#68)"></g><g clip-path="url(#69)"></g><g clip-path="url(#70)"></g><g clip-path="url(#71)"></g></g><path transform="matrix(1 0 0 -1 0 841)" d="M84.264 540.31L84.744 540.31L84.744 540.31L84.744 540.79L84.744 540.79L84.264 540.79z" stroke="none" fill="#000000" fill-rule="evenodd" /><path transform="matrix(1 0 0 -1 0 841)" d="M84.744 540.31L165.024 540.31L165.024 540.31L165.024 540.79L165.024 540.79L84.744 540.79z" stroke="none" fill="#000000" fill-rule="evenodd" /><path transform="matrix(1 0 0 -1 0 841)" d="M165.02 540.31L165.5 540.31L165.5 540.31L165.5 540.79L165.5 540.79L165.02 540.79z" stroke="none" fill="#000000" fill-rule="evenodd" /><path transform="matrix(1 0 0 -1 0 841)" d="M165.5 540.31L234.404 540.31L234.404 540.31L234.404 540.79L234.404 540.79L165.5 540.79z" stroke="none" fill="#000000" fill-rule="evenodd" /><path transform="matrix(1 0 0 -1 0 841)" d="M234.41 540.31L234.89 540.31L234.89 540.31L234.89 540.79L234.89 540.79L234.41 540.79z" stroke="none" fill="#000000" fill-rule="evenodd" /><path transform="matrix(1 0 0 -1 0 841)" d="M234.89 540.31L435.55 540.31L435.55 540.31L435.55 540.79L435.55 540.79L234.89 540.79z" stroke="none" fill="#000000" fill-rule="evenodd" /><path transform="matrix(1 0 0 -1 0 841)" d="M435.55 540.31L436.03 540.31L436.03 540.31L436.03 540.79L436.03 540.79L435.55 540.79z" stroke="none" fill="#000000" fill-rule="evenodd" /><path transform="matrix(1 0 0 -1 0 841)" d="M436.03 540.31L510.694 540.31L510.694 540.31L510.694 540.79L510.694 540.79L436.03 540.79z" stroke="none" fill="#000000" fill-rule="evenodd" /><path transform="matrix(1 0 0 -1 0 841)" d="M510.7 540.31L511.18 540.31L511.18 540.31L511.18 540.79L511.18 540.79L510.7 540.79z" stroke="none" fill="#000000" fill-rule="evenodd" /><path transform="matrix(1 0 0 -1 0 841)" d="M84.264 491.83L84.744 491.83L84.744 491.83L84.744 540.31L84.744 540.31L84.264 540.31z" stroke="none" fill="#000000" fill-rule="evenodd" /><path transform="matrix(1 0 0 -1 0 841)" d="M165.02 491.83L165.5 491.83L165.5 491.83L165.5 540.31L165.5 540.31L165.02 540.31z" stroke="none" fill="#000000" fill-rule="evenodd" /><path transform="matrix(1 0 0 -1 0 841)" d="M234.41 491.83L234.89 491.83L234.89 491.83L234.89 540.31L234.89 540.31L234.41 540.31z" stroke="none" fill="#000000" fill-rule="evenodd" /><path transform="matrix(1 0 0 -1 0 841)" d="M435.55 491.83L436.03 491.83L436.03 491.83L436.03 540.31L436.03 540.31L435.55 540.31z" stroke="none" fill="#000000" fill-rule="evenodd" /><path transform="matrix(1 0 0 -1 0 841)" d="M510.7 491.83L511.18 491.83L511.18 491.83L511.18 540.31L511.18 540.31L510.7 540.31z" stroke="none" fill="#000000" fill-rule="evenodd" /><path transform="matrix(1 0 0 -1 0 841)" d="M84.744 445.51L165.024 445.51L165.024 445.51L165.024 491.35L165.024 491.35L84.744 491.35z" stroke="none" fill="#DAEEF3" fill-rule="evenodd" /><g clip-path="url(#72)"><path transform="matrix(1 0 0 -1 0 841)" d="M89.904 469.51L159.864 469.51L159.864 469.51L159.864 491.35L159.864 491.35L89.904 491.35z" stroke="none" fill="#DAEEF3" fill-rule="evenodd" /><g clip-path="url(#73)"></g><path transform="matrix(1 0 0 -1 0 841)" d="M89.904 447.67L159.864 447.67L159.864 447.67L159.864 469.51L159.864 469.51L89.904 469.51z" stroke="none" fill="#DAEEF3" fill-rule="evenodd" /><g clip-path="url(#74)"></g><g clip-path="url(#75)"></g></g><path transform="matrix(1 0 0 -1 0 841)" d="M165.5 445.51L234.404 445.51L234.404 445.51L234.404 491.35L234.404 491.35L165.5 491.35z" stroke="none" fill="#DAEEF3" fill-rule="evenodd" /><g clip-path="url(#76)"><path transform="matrix(1 0 0 -1 0 841)" d="M170.66 464.71L229.244 464.71L229.244 464.71L229.244 491.35L229.244 491.35L170.66 491.35z" stroke="none" fill="#DAEEF3" fill-rule="evenodd" /><g clip-path="url(#77)"></g><g clip-path="url(#78)"></g></g><path transform="matrix(1 0 0 -1 0 841)" d="M234.89 445.51L435.43 445.51L435.43 445.51L435.43 491.35L435.43 491.35L234.89 491.35z" stroke="none" fill="#DAEEF3" fill-rule="evenodd" /><g clip-path="url(#79)"><path transform="matrix(1 0 0 -1 0 841)" d="M240.05 468.43L430.27 468.43L430.27 468.43L430.27 491.35L430.27 491.35L240.05 491.35z" stroke="none" fill="#DAEEF3" fill-rule="evenodd" /><g clip-path="url(#80)"></g><g clip-path="url(#81)"></g><g clip-path="url(#82)"></g><path transform="matrix(1 0 0 -1 0 841)" d="M240.05 445.51L430.27 445.51L430.27 445.51L430.27 468.43L430.27 468.43L240.05 468.43z" stroke="none" fill="#DAEEF3" fill-rule="evenodd" /><g clip-path="url(#83)"></g><g clip-path="url(#84)"></g></g><path transform="matrix(1 0 0 -1 0 841)" d="M436.03 445.51L510.694 445.51L510.694 445.51L510.694 491.35L510.694 491.35L436.03 491.35z" stroke="none" fill="#DAEEF3" fill-rule="evenodd" /><g clip-path="url(#85)"><path transform="matrix(1 0 0 -1 0 841)" d="M441.07 464.71L505.534 464.71L505.534 464.71L505.534 491.35L505.534 491.35L441.07 491.35z" stroke="none" fill="#DAEEF3" fill-rule="evenodd" /><g clip-path="url(#86)"></g><g clip-path="url(#87)"></g><g clip-path="url(#88)"></g><g clip-path="url(#89)"></g></g><path transform="matrix(1 0 0 -1 0 841)" d="M84.264 491.35L84.744 491.35L84.744 491.35L84.744 491.83L84.744 491.83L84.264 491.83z" stroke="none" fill="#000000" fill-rule="evenodd" /><path transform="matrix(1 0 0 -1 0 841)" d="M84.744 491.35L165.024 491.35L165.024 491.35L165.024 491.83L165.024 491.83L84.744 491.83z" stroke="none" fill="#000000" fill-rule="evenodd" /><path transform="matrix(1 0 0 -1 0 841)" d="M165.02 491.35L165.5 491.35L165.5 491.35L165.5 491.83L165.5 491.83L165.02 491.83z" stroke="none" fill="#000000" fill-rule="evenodd" /><path transform="matrix(1 0 0 -1 0 841)" d="M165.5 491.35L234.404 491.35L234.404 491.35L234.404 491.83L234.404 491.83L165.5 491.83z" stroke="none" fill="#000000" fill-rule="evenodd" /><path transform="matrix(1 0 0 -1 0 841)" d="M234.41 491.35L234.89 491.35L234.89 491.35L234.89 491.83L234.89 491.83L234.41 491.83z" stroke="none" fill="#000000" fill-rule="evenodd" /><path transform="matrix(1 0 0 -1 0 841)" d="M234.89 491.35L435.55 491.35L435.55 491.35L435.55 491.83L435.55 491.83L234.89 491.83z" stroke="none" fill="#000000" fill-rule="evenodd" /><path transform="matrix(1 0 0 -1 0 841)" d="M435.55 491.35L436.03 491.35L436.03 491.35L436.03 491.83L436.03 491.83L435.55 491.83z" stroke="none" fill="#000000" fill-rule="evenodd" /><path transform="matrix(1 0 0 -1 0 841)" d="M436.03 491.35L510.694 491.35L510.694 491.35L510.694 491.83L510.694 491.83L436.03 491.83z" stroke="none" fill="#000000" fill-rule="evenodd" /><path transform="matrix(1 0 0 -1 0 841)" d="M510.7 491.35L511.18 491.35L511.18 491.35L511.18 491.83L511.18 491.83L510.7 491.83z" stroke="none" fill="#000000" fill-rule="evenodd" /><path transform="matrix(1 0 0 -1 0 841)" d="M84.264 445.51L84.744 445.51L84.744 445.51L84.744 491.35L84.744 491.35L84.264 491.35z" stroke="none" fill="#000000" fill-rule="evenodd" /><path transform="matrix(1 0 0 -1 0 841)" d="M165.02 445.51L165.5 445.51L165.5 445.51L165.5 491.35L165.5 491.35L165.02 491.35z" stroke="none" fill="#000000" fill-rule="evenodd" /><path transform="matrix(1 0 0 -1 0 841)" d="M234.41 445.51L234.89 445.51L234.89 445.51L234.89 491.35L234.89 491.35L234.41 491.35z" stroke="none" fill="#000000" fill-rule="evenodd" /><path transform="matrix(1 0 0 -1 0 841)" d="M435.55 445.51L436.03 445.51L436.03 445.51L436.03 491.35L436.03 491.35L435.55 491.35z" stroke="none" fill="#000000" fill-rule="evenodd" /><path transform="matrix(1 0 0 -1 0 841)" d="M510.7 445.51L511.18 445.51L511.18 445.51L511.18 491.35L511.18 491.35L510.7 491.35z" stroke="none" fill="#000000" fill-rule="evenodd" /><g clip-path="url(#90)"><g clip-path="url(#91)"></g><g clip-path="url(#92)"></g><g clip-path="url(#93)"></g></g><g clip-path="url(#94)"><g clip-path="url(#95)"></g><g clip-path="url(#96)"></g></g><g clip-path="url(#97)"><g clip-path="url(#98)"></g><g clip-path="url(#99)"></g><g clip-path="url(#100)"></g><g clip-path="url(#101)"></g><g clip-path="url(#102)"></g><g clip-path="url(#103)"></g><g clip-path="url(#104)"></g><g clip-path="url(#105)"></g><g clip-path="url(#106)"></g><g clip-path="url(#107)"></g><g clip-path="url(#108)"></g><g clip-path="url(#109)"></g><g clip-path="url(#110)"></g><g clip-path="url(#111)"></g><g clip-path="url(#112)"></g><g clip-path="url(#113)"></g><g clip-path="url(#114)"></g><g clip-path="url(#115)"></g><g clip-path="url(#116)"></g><g clip-path="url(#117)"></g><g clip-path="url(#118)"></g><g clip-path="url(#119)"></g><g clip-path="url(#120)"></g></g><g clip-path="url(#121)"><g clip-path="url(#122)"></g><g clip-path="url(#123)"></g><g clip-path="url(#124)"></g><g clip-path="url(#125)"></g></g><path transform="matrix(1 0 0 -1 0 841)" d="M84.264 445.03L84.744 445.03L84.744 445.03L84.744 445.51L84.744 445.51L84.264 445.51z" stroke="none" fill="#000000" fill-rule="evenodd" /><path transform="matrix(1 0 0 -1 0 841)" d="M84.744 445.03L165.024 445.03L165.024 445.03L165.024 445.51L165.024 445.51L84.744 445.51z" stroke="none" fill="#000000" fill-rule="evenodd" /><path transform="matrix(1 0 0 -1 0 841)" d="M165.02 445.03L165.5 445.03L165.5 445.03L165.5 445.51L165.5 445.51L165.02 445.51z" stroke="none" fill="#000000" fill-rule="evenodd" /><path transform="matrix(1 0 0 -1 0 841)" d="M165.5 445.03L234.404 445.03L234.404 445.03L234.404 445.51L234.404 445.51L165.5 445.51z" stroke="none" fill="#000000" fill-rule="evenodd" /><path transform="matrix(1 0 0 -1 0 841)" d="M234.41 445.03L234.89 445.03L234.89 445.03L234.89 445.51L234.89 445.51L234.41 445.51z" stroke="none" fill="#000000" fill-rule="evenodd" /><path transform="matrix(1 0 0 -1 0 841)" d="M234.89 445.03L435.55 445.03L435.55 445.03L435.55 445.51L435.55 445.51L234.89 445.51z" stroke="none" fill="#000000" fill-rule="evenodd" /><path transform="matrix(1 0 0 -1 0 841)" d="M435.55 445.03L436.03 445.03L436.03 445.03L436.03 445.51L436.03 445.51L435.55 445.51z" stroke="none" fill="#000000" fill-rule="evenodd" /><path transform="matrix(1 0 0 -1 0 841)" d="M436.03 445.03L510.694 445.03L510.694 445.03L510.694 445.51L510.694 445.51L436.03 445.51z" stroke="none" fill="#000000" fill-rule="evenodd" /><path transform="matrix(1 0 0 -1 0 841)" d="M510.7 445.03L511.18 445.03L511.18 445.03L511.18 445.51L511.18 445.51L510.7 445.51z" stroke="none" fill="#000000" fill-rule="evenodd" /><path transform="matrix(1 0 0 -1 0 841)" d="M84.264 290.21L84.744 290.21L84.744 290.21L84.744 445.03L84.744 445.03L84.264 445.03z" stroke="none" fill="#000000" fill-rule="evenodd" /><path transform="matrix(1 0 0 -1 0 841)" d="M165.02 290.21L165.5 290.21L165.5 290.21L165.5 445.03L165.5 445.03L165.02 445.03z" stroke="none" fill="#000000" fill-rule="evenodd" /><path transform="matrix(1 0 0 -1 0 841)" d="M234.41 290.21L234.89 290.21L234.89 290.21L234.89 445.03L234.89 445.03L234.41 445.03z" stroke="none" fill="#000000" fill-rule="evenodd" /><path transform="matrix(1 0 0 -1 0 841)" d="M435.55 290.21L436.03 290.21L436.03 290.21L436.03 445.03L436.03 445.03L435.55 445.03z" stroke="none" fill="#000000" fill-rule="evenodd" /><path transform="matrix(1 0 0 -1 0 841)" d="M510.7 290.21L511.18 290.21L511.18 290.21L511.18 445.03L511.18 445.03L510.7 445.03z" stroke="none" fill="#000000" fill-rule="evenodd" /><path transform="matrix(1 0 0 -1 0 841)" d="M84.744 207.65L165.024 207.65L165.024 207.65L165.024 289.73L165.024 289.73L84.744 289.73z" stroke="none" fill="#DAEEF3" fill-rule="evenodd" /><g clip-path="url(#126)"><path transform="matrix(1 0 0 -1 0 841)" d="M89.904 267.89L159.864 267.89L159.864 267.89L159.864 289.73L159.864 289.73L89.904 289.73z" stroke="none" fill="#DAEEF3" fill-rule="evenodd" /><g clip-path="url(#127)"></g><path transform="matrix(1 0 0 -1 0 841)" d="M89.904 246.05L159.864 246.05L159.864 246.05L159.864 267.89L159.864 267.89L89.904 267.89z" stroke="none" fill="#DAEEF3" fill-rule="evenodd" /><g clip-path="url(#128)"></g><g clip-path="url(#129)"></g></g><path transform="matrix(1 0 0 -1 0 841)" d="M165.5 207.65L234.404 207.65L234.404 207.65L234.404 289.73L234.404 289.73L165.5 289.73z" stroke="none" fill="#DAEEF3" fill-rule="evenodd" /><g clip-path="url(#130)"><path transform="matrix(1 0 0 -1 0 841)" d="M170.66 263.21L229.244 263.21L229.244 263.21L229.244 289.73L229.244 289.73L170.66 289.73z" stroke="none" fill="#DAEEF3" fill-rule="evenodd" /><g clip-path="url(#131)"></g><g clip-path="url(#132)"></g></g><path transform="matrix(1 0 0 -1 0 841)" d="M234.89 207.65L435.43 207.65L435.43 207.65L435.43 289.73L435.43 289.73L234.89 289.73z" stroke="none" fill="#DAEEF3" fill-rule="evenodd" /><g clip-path="url(#133)"><path transform="matrix(1 0 0 -1 0 841)" d="M240.05 266.81L430.27 266.81L430.27 266.81L430.27 289.73L430.27 289.73L240.05 289.73z" stroke="none" fill="#DAEEF3" fill-rule="evenodd" /><g clip-path="url(#134)"></g><g clip-path="url(#135)"></g><g clip-path="url(#136)"></g><path transform="matrix(1 0 0 -1 0 841)" d="M240.05 248.69L430.27 248.69L430.27 248.69L430.27 266.81L430.27 266.81L240.05 266.81z" stroke="none" fill="#DAEEF3" fill-rule="evenodd" /><g clip-path="url(#137)"></g><g clip-path="url(#138)"></g><g clip-path="url(#139)"></g><path transform="matrix(1 0 0 -1 0 841)" d="M240.05 230.57L430.27 230.57L430.27 230.57L430.27 248.69L430.27 248.69L240.05 248.69z" stroke="none" fill="#DAEEF3" fill-rule="evenodd" /><g clip-path="url(#140)"></g><g clip-path="url(#141)"></g><path transform="matrix(1 0 0 -1 0 841)" d="M240.05 207.65L430.27 207.65L430.27 207.65L430.27 230.57L430.27 230.57L240.05 230.57z" stroke="none" fill="#DAEEF3" fill-rule="evenodd" /><g clip-path="url(#142)"></g><g clip-path="url(#143)"></g><g clip-path="url(#144)"></g><g clip-path="url(#145)"></g></g><path transform="matrix(1 0 0 -1 0 841)" d="M436.03 207.65L510.694 207.65L510.694 207.65L510.694 289.73L510.694 289.73L436.03 289.73z" stroke="none" fill="#DAEEF3" fill-rule="evenodd" /><g clip-path="url(#146)"><path transform="matrix(1 0 0 -1 0 841)" d="M441.07 263.21L505.534 263.21L505.534 263.21L505.534 289.73L505.534 289.73L441.07 289.73z" stroke="none" fill="#DAEEF3" fill-rule="evenodd" /><g clip-path="url(#147)"></g><g clip-path="url(#148)"></g><g clip-path="url(#149)"></g><g clip-path="url(#150)"></g></g><path transform="matrix(1 0 0 -1 0 841)" d="M84.264 289.73L84.744 289.73L84.744 289.73L84.744 290.2101L84.744 290.2101L84.264 290.2101z" stroke="none" fill="#000000" fill-rule="evenodd" /><path transform="matrix(1 0 0 -1 0 841)" d="M84.744 289.73L165.024 289.73L165.024 289.73L165.024 290.2101L165.024 290.2101L84.744 290.2101z" stroke="none" fill="#000000" fill-rule="evenodd" /><path transform="matrix(1 0 0 -1 0 841)" d="M165.02 289.73L165.5 289.73L165.5 289.73L165.5 290.2101L165.5 290.2101L165.02 290.2101z" stroke="none" fill="#000000" fill-rule="evenodd" /><path transform="matrix(1 0 0 -1 0 841)" d="M165.5 289.73L234.404 289.73L234.404 289.73L234.404 290.2101L234.404 290.2101L165.5 290.2101z" stroke="none" fill="#000000" fill-rule="evenodd" /><path transform="matrix(1 0 0 -1 0 841)" d="M234.41 289.73L234.89 289.73L234.89 289.73L234.89 290.2101L234.89 290.2101L234.41 290.2101z" stroke="none" fill="#000000" fill-rule="evenodd" /><path transform="matrix(1 0 0 -1 0 841)" d="M234.89 289.73L435.55 289.73L435.55 289.73L435.55 290.2101L435.55 290.2101L234.89 290.2101z" stroke="none" fill="#000000" fill-rule="evenodd" /><path transform="matrix(1 0 0 -1 0 841)" d="M435.55 289.73L436.03 289.73L436.03 289.73L436.03 290.2101L436.03 290.2101L435.55 290.2101z" stroke="none" fill="#000000" fill-rule="evenodd" /><path transform="matrix(1 0 0 -1 0 841)" d="M436.03 289.73L510.694 289.73L510.694 289.73L510.694 290.2101L510.694 290.2101L436.03 290.2101z" stroke="none" fill="#000000" fill-rule="evenodd" /><path transform="matrix(1 0 0 -1 0 841)" d="M510.7 289.73L511.18 289.73L511.18 289.73L511.18 290.2101L511.18 290.2101L510.7 290.2101z" stroke="none" fill="#000000" fill-rule="evenodd" /><path transform="matrix(1 0 0 -1 0 841)" d="M84.264 207.65L84.744 207.65L84.744 207.65L84.744 289.73L84.744 289.73L84.264 289.73z" stroke="none" fill="#000000" fill-rule="evenodd" /><path transform="matrix(1 0 0 -1 0 841)" d="M165.02 207.65L165.5 207.65L165.5 207.65L165.5 289.73L165.5 289.73L165.02 289.73z" stroke="none" fill="#000000" fill-rule="evenodd" /><path transform="matrix(1 0 0 -1 0 841)" d="M234.41 207.65L234.89 207.65L234.89 207.65L234.89 289.73L234.89 289.73L234.41 289.73z" stroke="none" fill="#000000" fill-rule="evenodd" /><path transform="matrix(1 0 0 -1 0 841)" d="M435.55 207.65L436.03 207.65L436.03 207.65L436.03 289.73L436.03 289.73L435.55 289.73z" stroke="none" fill="#000000" fill-rule="evenodd" /><path transform="matrix(1 0 0 -1 0 841)" d="M510.7 207.65L511.18 207.65L511.18 207.65L511.18 289.73L511.18 289.73L510.7 289.73z" stroke="none" fill="#000000" fill-rule="evenodd" /><g clip-path="url(#151)"><g clip-path="url(#152)"></g><g clip-path="url(#153)"></g><g clip-path="url(#154)"></g></g><g clip-path="url(#155)"><g clip-path="url(#156)"></g><g clip-path="url(#157)"></g></g><g clip-path="url(#158)"><g clip-path="url(#159)"></g><g clip-path="url(#160)"></g><g clip-path="url(#161)"></g><g clip-path="url(#162)"></g><g clip-path="url(#163)"></g><g clip-path="url(#164)"></g><g clip-path="url(#165)"></g><g clip-path="url(#166)"></g><g clip-path="url(#167)"></g><g clip-path="url(#168)"></g><g clip-path="url(#169)"></g><g clip-path="url(#170)"></g></g><g clip-path="url(#171)"><g clip-path="url(#172)"></g><g clip-path="url(#173)"></g><g clip-path="url(#174)"></g></g><path transform="matrix(1 0 0 -1 0 841)" d="M84.264 207.17L84.744 207.17L84.744 207.17L84.744 207.65L84.744 207.65L84.264 207.65z" stroke="none" fill="#000000" fill-rule="evenodd" /><path transform="matrix(1 0 0 -1 0 841)" d="M84.744 207.17L165.024 207.17L165.024 207.17L165.024 207.65L165.024 207.65L84.744 207.65z" stroke="none" fill="#000000" fill-rule="evenodd" /><path transform="matrix(1 0 0 -1 0 841)" d="M165.02 207.17L165.5 207.17L165.5 207.17L165.5 207.65L165.5 207.65L165.02 207.65z" stroke="none" fill="#000000" fill-rule="evenodd" /><path transform="matrix(1 0 0 -1 0 841)" d="M165.5 207.17L234.404 207.17L234.404 207.17L234.404 207.65L234.404 207.65L165.5 207.65z" stroke="none" fill="#000000" fill-rule="evenodd" /><path transform="matrix(1 0 0 -1 0 841)" d="M234.41 207.17L234.89 207.17L234.89 207.17L234.89 207.65L234.89 207.65L234.41 207.65z" stroke="none" fill="#000000" fill-rule="evenodd" /><path transform="matrix(1 0 0 -1 0 841)" d="M234.89 207.17L435.55 207.17L435.55 207.17L435.55 207.65L435.55 207.65L234.89 207.65z" stroke="none" fill="#000000" fill-rule="evenodd" /><path transform="matrix(1 0 0 -1 0 841)" d="M435.55 207.17L436.03 207.17L436.03 207.17L436.03 207.65L436.03 207.65L435.55 207.65z" stroke="none" fill="#000000" fill-rule="evenodd" /><path transform="matrix(1 0 0 -1 0 841)" d="M436.03 207.17L510.694 207.17L510.694 207.17L510.694 207.65L510.694 207.65L436.03 207.65z" stroke="none" fill="#000000" fill-rule="evenodd" /><path transform="matrix(1 0 0 -1 0 841)" d="M510.7 207.17L511.18 207.17L511.18 207.17L511.18 207.65L511.18 207.65L510.7 207.65z" stroke="none" fill="#000000" fill-rule="evenodd" /><path transform="matrix(1 0 0 -1 0 841)" d="M84.264 143.18L84.744 143.18L84.744 143.18L84.744 207.164L84.744 207.164L84.264 207.164z" stroke="none" fill="#000000" fill-rule="evenodd" /><path transform="matrix(1 0 0 -1 0 841)" d="M165.02 143.18L165.5 143.18L165.5 143.18L165.5 207.164L165.5 207.164L165.02 207.164z" stroke="none" fill="#000000" fill-rule="evenodd" /><path transform="matrix(1 0 0 -1 0 841)" d="M234.41 143.18L234.89 143.18L234.89 143.18L234.89 207.164L234.89 207.164L234.41 207.164z" stroke="none" fill="#000000" fill-rule="evenodd" /><path transform="matrix(1 0 0 -1 0 841)" d="M435.55 143.18L436.03 143.18L436.03 143.18L436.03 207.164L436.03 207.164L435.55 207.164z" stroke="none" fill="#000000" fill-rule="evenodd" /><path transform="matrix(1 0 0 -1 0 841)" d="M510.7 143.18L511.18 143.18L511.18 143.18L511.18 207.164L511.18 207.164L510.7 207.164z" stroke="none" fill="#000000" fill-rule="evenodd" /><path transform="matrix(1 0 0 -1 0 841)" d="M84.744 98.904L165.024 98.904L165.024 98.904L165.024 142.584L165.024 142.584L84.744 142.584z" stroke="none" fill="#DAEEF3" fill-rule="evenodd" /><g clip-path="url(#175)"><path transform="matrix(1 0 0 -1 0 841)" d="M89.904 120.74L159.864 120.74L159.864 120.74L159.864 142.58L159.864 142.58L89.904 142.58z" stroke="none" fill="#DAEEF3" fill-rule="evenodd" /><g clip-path="url(#176)"></g><path transform="matrix(1 0 0 -1 0 841)" d="M89.904 98.904L159.864 98.904L159.864 98.904L159.864 120.744L159.864 120.744L89.904 120.744z" stroke="none" fill="#DAEEF3" fill-rule="evenodd" /><g clip-path="url(#177)"></g><g clip-path="url(#178)"></g></g><path transform="matrix(1 0 0 -1 0 841)" d="M165.5 98.904L234.404 98.904L234.404 98.904L234.404 142.584L234.404 142.584L165.5 142.584z" stroke="none" fill="#DAEEF3" fill-rule="evenodd" /><g clip-path="url(#179)"><path transform="matrix(1 0 0 -1 0 841)" d="M170.66 116.06L229.244 116.06L229.244 116.06L229.244 142.58L229.244 142.58L170.66 142.58z" stroke="none" fill="#DAEEF3" fill-rule="evenodd" /><g clip-path="url(#180)"></g><g clip-path="url(#181)"></g></g><path transform="matrix(1 0 0 -1 0 841)" d="M234.89 98.904L435.43 98.904L435.43 98.904L435.43 142.584L435.43 142.584L234.89 142.584z" stroke="none" fill="#DAEEF3" fill-rule="evenodd" /><g clip-path="url(#182)"><path transform="matrix(1 0 0 -1 0 841)" d="M240.05 119.78L430.27 119.78L430.27 119.78L430.27 142.58L430.27 142.58L240.05 142.58z" stroke="none" fill="#DAEEF3" fill-rule="evenodd" /><g clip-path="url(#183)"></g><g clip-path="url(#184)"></g><g clip-path="url(#185)"></g><g clip-path="url(#186)"></g><g clip-path="url(#187)"></g><path transform="matrix(1 0 0 -1 0 841)" d="M240.05 101.54L430.27 101.54L430.27 101.54L430.27 119.78L430.27 119.78L240.05 119.78z" stroke="none" fill="#DAEEF3" fill-rule="evenodd" /><g clip-path="url(#188)"></g><g clip-path="url(#189)"></g><g clip-path="url(#190)"></g><g clip-path="url(#191)"></g><g clip-path="url(#192)"></g></g><path transform="matrix(1 0 0 -1 0 841)" d="M436.03 98.904L510.694 98.904L510.694 98.904L510.694 142.584L510.694 142.584L436.03 142.584z" stroke="none" fill="#DAEEF3" fill-rule="evenodd" /><g clip-path="url(#193)"><path transform="matrix(1 0 0 -1 0 841)" d="M441.07 116.06L505.534 116.06L505.534 116.06L505.534 142.58L505.534 142.58L441.07 142.58z" stroke="none" fill="#DAEEF3" fill-rule="evenodd" /><g clip-path="url(#194)"></g><g clip-path="url(#195)"></g><g clip-path="url(#196)"></g></g><path transform="matrix(1 0 0 -1 0 841)" d="M84.264 142.7L84.744 142.7L84.744 142.7L84.744 143.18L84.744 143.18L84.264 143.18z" stroke="none" fill="#000000" fill-rule="evenodd" /><path transform="matrix(1 0 0 -1 0 841)" d="M84.744 142.7L165.024 142.7L165.024 142.7L165.024 143.18L165.024 143.18L84.744 143.18z" stroke="none" fill="#000000" fill-rule="evenodd" /><path transform="matrix(1 0 0 -1 0 841)" d="M165.02 142.7L165.5 142.7L165.5 142.7L165.5 143.18L165.5 143.18L165.02 143.18z" stroke="none" fill="#000000" fill-rule="evenodd" /><path transform="matrix(1 0 0 -1 0 841)" d="M165.5 142.7L234.404 142.7L234.404 142.7L234.404 143.18L234.404 143.18L165.5 143.18z" stroke="none" fill="#000000" fill-rule="evenodd" /><path transform="matrix(1 0 0 -1 0 841)" d="M234.41 142.7L234.89 142.7L234.89 142.7L234.89 143.18L234.89 143.18L234.41 143.18z" stroke="none" fill="#000000" fill-rule="evenodd" /><path transform="matrix(1 0 0 -1 0 841)" d="M234.89 142.7L435.55 142.7L435.55 142.7L435.55 143.18L435.55 143.18L234.89 143.18z" stroke="none" fill="#000000" fill-rule="evenodd" /><path transform="matrix(1 0 0 -1 0 841)" d="M435.55 142.7L436.03 142.7L436.03 142.7L436.03 143.18L436.03 143.18L435.55 143.18z" stroke="none" fill="#000000" fill-rule="evenodd" /><path transform="matrix(1 0 0 -1 0 841)" d="M436.03 142.7L510.694 142.7L510.694 142.7L510.694 143.18L510.694 143.18L436.03 143.18z" stroke="none" fill="#000000" fill-rule="evenodd" /><path transform="matrix(1 0 0 -1 0 841)" d="M510.7 142.7L511.18 142.7L511.18 142.7L511.18 143.18L511.18 143.18L510.7 143.18z" stroke="none" fill="#000000" fill-rule="evenodd" /><path transform="matrix(1 0 0 -1 0 841)" d="M84.264 98.904L84.744 98.904L84.744 98.904L84.744 142.704L84.744 142.704L84.264 142.704z" stroke="none" fill="#000000" fill-rule="evenodd" /><path transform="matrix(1 0 0 -1 0 841)" d="M84.264 98.424L84.744 98.424L84.744 98.424L84.744 98.90405L84.744 98.90405L84.264 98.90405z" stroke="none" fill="#000000" fill-rule="evenodd" /><path transform="matrix(1 0 0 -1 0 841)" d="M84.264 98.424L84.744 98.424L84.744 98.424L84.744 98.90405L84.744 98.90405L84.264 98.90405z" stroke="none" fill="#000000" fill-rule="evenodd" /><path transform="matrix(1 0 0 -1 0 841)" d="M84.744 98.424L165.024 98.424L165.024 98.424L165.024 98.90405L165.024 98.90405L84.744 98.90405z" stroke="none" fill="#000000" fill-rule="evenodd" /><path transform="matrix(1 0 0 -1 0 841)" d="M165.02 98.904L165.5 98.904L165.5 98.904L165.5 142.704L165.5 142.704L165.02 142.704z" stroke="none" fill="#000000" fill-rule="evenodd" /><path transform="matrix(1 0 0 -1 0 841)" d="M165.02 98.424L165.5 98.424L165.5 98.424L165.5 98.90405L165.5 98.90405L165.02 98.90405z" stroke="none" fill="#000000" fill-rule="evenodd" /><path transform="matrix(1 0 0 -1 0 841)" d="M165.5 98.424L234.404 98.424L234.404 98.424L234.404 98.90405L234.404 98.90405L165.5 98.90405z" stroke="none" fill="#000000" fill-rule="evenodd" /><path transform="matrix(1 0 0 -1 0 841)" d="M234.41 98.904L234.89 98.904L234.89 98.904L234.89 142.704L234.89 142.704L234.41 142.704z" stroke="none" fill="#000000" fill-rule="evenodd" /><path transform="matrix(1 0 0 -1 0 841)" d="M234.41 98.424L234.89 98.424L234.89 98.424L234.89 98.90405L234.89 98.90405L234.41 98.90405z" stroke="none" fill="#000000" fill-rule="evenodd" /><path transform="matrix(1 0 0 -1 0 841)" d="M234.89 98.424L435.55 98.424L435.55 98.424L435.55 98.90405L435.55 98.90405L234.89 98.90405z" stroke="none" fill="#000000" fill-rule="evenodd" /><path transform="matrix(1 0 0 -1 0 841)" d="M435.55 98.904L436.03 98.904L436.03 98.904L436.03 142.704L436.03 142.704L435.55 142.704z" stroke="none" fill="#000000" fill-rule="evenodd" /><path transform="matrix(1 0 0 -1 0 841)" d="M435.55 98.424L436.03 98.424L436.03 98.424L436.03 98.90405L436.03 98.90405L435.55 98.90405z" stroke="none" fill="#000000" fill-rule="evenodd" /><path transform="matrix(1 0 0 -1 0 841)" d="M436.03 98.424L510.694 98.424L510.694 98.424L510.694 98.90405L510.694 98.90405L436.03 98.90405z" stroke="none" fill="#000000" fill-rule="evenodd" /><path transform="matrix(1 0 0 -1 0 841)" d="M510.7 98.904L511.18 98.904L511.18 98.904L511.18 142.704L511.18 142.704L510.7 142.704z" stroke="none" fill="#000000" fill-rule="evenodd" /><path transform="matrix(1 0 0 -1 0 841)" d="M510.7 98.424L511.18 98.424L511.18 98.424L511.18 98.90405L511.18 98.90405L510.7 98.90405z" stroke="none" fill="#000000" fill-rule="evenodd" /><path transform="matrix(1 0 0 -1 0 841)" d="M510.7 98.424L511.18 98.424L511.18 98.424L511.18 98.90405L511.18 98.90405L510.7 98.90405z" stroke="none" fill="#000000" fill-rule="evenodd" /></g></g></g></svg>