<svg xmlns="http://www.w3.org/2000/svg" xmlns:xlink="http://www.w3.org/1999/xlink" id="body_198" preserveAspectRatio="xMinYMin meet" viewBox="0 0 793 1121"><defs><clipPath id="1"><path d="M0 841L0 -0.9199829L0 -0.9199829L595.32 -0.9199829L595.32 -0.9199829L595.32 841L595.32 841L0 841z" /></clipPath><clipPath id="2"><path d="M0.00125 841.0914L595.4112 841.0914L595.4112 841.0914L595.4112 -0.9186401L595.4112 -0.9186401L0.00125 -0.9186401z" /></clipPath><clipPath id="3"><path d="M288.05 781.211L316.01 781.211L316.01 781.211L316.01 762.011L316.01 762.011L288.05 762.011z" /></clipPath><clipPath id="4"><path d="M288.05 781.216L316.01 781.216L316.01 781.216L316.01 762.016L316.01 762.016L288.05 762.016z" /></clipPath><clipPath id="5"><path d="M288.05 781.216L316.01 781.216L316.01 781.216L316.01 762.016L316.01 762.016L288.05 762.016z" /></clipPath><clipPath id="6"><path d="M192.03 478.2L295.25 478.2L295.25 478.2L295.25 452.49L295.25 452.49L192.03 452.49z" /></clipPath><clipPath id="7"><path d="M192.02 478.19L295.24 478.19L295.24 478.19L295.24 452.486L295.24 452.486L192.02 452.486z" /></clipPath><clipPath id="8"><path d="M192.02 478.19L295.24 478.19L295.24 478.19L295.24 452.486L295.24 452.486L192.02 452.486z" /></clipPath><clipPath id="9"><path d="M295.85 478.2L403.4 478.2L403.4 478.2L403.4 452.49L403.4 452.49L295.85 452.49z" /></clipPath><clipPath id="10"><path d="M295.85 478.19L403.39 478.19L403.39 478.19L403.39 452.486L403.39 452.486L295.85 452.486z" /></clipPath><clipPath id="11"><path d="M295.85 478.19L403.39 478.19L403.39 478.19L403.39 452.486L403.39 452.486L295.85 452.486z" /></clipPath><clipPath id="12"><path d="M192.03 504.36L295.25 504.36L295.25 504.36L295.25 478.68L295.25 478.68L192.03 478.68z" /></clipPath><clipPath id="13"><path d="M192.02 504.35L295.24 504.35L295.24 504.35L295.24 478.67L295.24 478.67L192.02 478.67z" /></clipPath><clipPath id="14"><path d="M192.02 504.35L295.24 504.35L295.24 504.35L295.24 478.67L295.24 478.67L192.02 478.67z" /></clipPath><clipPath id="15"><path d="M295.85 504.36L403.4 504.36L403.4 504.36L403.4 478.68L403.4 478.68L295.85 478.68z" /></clipPath><clipPath id="16"><path d="M295.85 504.35L403.39 504.35L403.39 504.35L403.39 478.67L403.39 478.67L295.85 478.67z" /></clipPath><clipPath id="17"><path d="M295.85 504.35L403.39 504.35L403.39 504.35L403.39 478.67L403.39 478.67L295.85 478.67z" /></clipPath><clipPath id="18"><path d="M192.03 530.52L295.25 530.52L295.25 530.52L295.25 504.84L295.25 504.84L192.03 504.84z" /></clipPath><clipPath id="19"><path d="M192.02 530.51L295.24 530.51L295.24 530.51L295.24 504.83L295.24 504.83L192.02 504.83z" /></clipPath><clipPath id="20"><path d="M192.02 530.51L295.24 530.51L295.24 530.51L295.24 504.83L295.24 504.83L192.02 504.83z" /></clipPath><clipPath id="21"><path d="M295.85 530.52L403.4 530.52L403.4 530.52L403.4 504.84L403.4 504.84L295.85 504.84z" /></clipPath><clipPath id="22"><path d="M295.85 530.51L403.39 530.51L403.39 530.51L403.39 504.83L403.39 504.83L295.85 504.83z" /></clipPath><clipPath id="23"><path d="M295.85 530.51L403.39 530.51L403.39 530.51L403.39 504.83L403.39 504.83L295.85 504.83z" /></clipPath><clipPath id="24"><path d="M192.03 556.56L295.25 556.56L295.25 556.56L295.25 531L295.25 531L192.03 531z" /></clipPath><clipPath id="25"><path d="M192.02 556.55L295.24 556.55L295.24 556.55L295.24 530.99L295.24 530.99L192.02 530.99z" /></clipPath><clipPath id="26"><path d="M192.02 556.55L295.24 556.55L295.24 556.55L295.24 530.99L295.24 530.99L192.02 530.99z" /></clipPath><clipPath id="27"><path d="M295.85 556.56L403.4 556.56L403.4 556.56L403.4 531L403.4 531L295.85 531z" /></clipPath><clipPath id="28"><path d="M295.85 556.55L403.39 556.55L403.39 556.55L403.39 530.99L403.39 530.99L295.85 530.99z" /></clipPath><clipPath id="29"><path d="M295.85 556.55L403.39 556.55L403.39 556.55L403.39 530.99L403.39 530.99L295.85 530.99z" /></clipPath><clipPath id="30"><path d="M192.03 582.72L295.25 582.72L295.25 582.72L295.25 557.16L295.25 557.16L192.03 557.16z" /></clipPath><clipPath id="31"><path d="M192.02 582.71L295.24 582.71L295.24 582.71L295.24 557.15L295.24 557.15L192.02 557.15z" /></clipPath><clipPath id="32"><path d="M192.02 582.71L295.24 582.71L295.24 582.71L295.24 557.15L295.24 557.15L192.02 557.15z" /></clipPath><clipPath id="33"><path d="M295.85 582.72L403.4 582.72L403.4 582.72L403.4 557.16L403.4 557.16L295.85 557.16z" /></clipPath><clipPath id="34"><path d="M295.85 582.71L403.39 582.71L403.39 582.71L403.39 557.15L403.39 557.15L295.85 557.15z" /></clipPath><clipPath id="35"><path d="M295.85 582.71L403.39 582.71L403.39 582.71L403.39 557.15L403.39 557.15L295.85 557.15z" /></clipPath><clipPath id="36"><path d="M192.03 608.88L295.25 608.88L295.25 608.88L295.25 583.2L295.25 583.2L192.03 583.2z" /></clipPath><clipPath id="37"><path d="M192.02 608.87L295.24 608.87L295.24 608.87L295.24 583.19L295.24 583.19L192.02 583.19z" /></clipPath><clipPath id="38"><path d="M192.02 608.87L295.24 608.87L295.24 608.87L295.24 583.19L295.24 583.19L192.02 583.19z" /></clipPath><clipPath id="39"><path d="M295.85 608.88L403.4 608.88L403.4 608.88L403.4 583.2L403.4 583.2L295.85 583.2z" /></clipPath><clipPath id="40"><path d="M295.85 608.87L403.39 608.87L403.39 608.87L403.39 583.19L403.39 583.19L295.85 583.19z" /></clipPath><clipPath id="41"><path d="M295.85 608.87L403.39 608.87L403.39 608.87L403.39 583.19L403.39 583.19L295.85 583.19z" /></clipPath><clipPath id="42"><path d="M192.03 635.04L295.25 635.04L295.25 635.04L295.25 609.36L295.25 609.36L192.03 609.36z" /></clipPath><clipPath id="43"><path d="M192.02 635.03L295.24 635.03L295.24 635.03L295.24 609.35L295.24 609.35L192.02 609.35z" /></clipPath><clipPath id="44"><path d="M192.02 635.03L295.24 635.03L295.24 635.03L295.24 609.35L295.24 609.35L192.02 609.35z" /></clipPath><clipPath id="45"><path d="M295.85 635.04L403.4 635.04L403.4 635.04L403.4 609.36L403.4 609.36L295.85 609.36z" /></clipPath><clipPath id="46"><path d="M295.85 635.03L403.39 635.03L403.39 635.03L403.39 609.35L403.39 609.35L295.85 609.35z" /></clipPath><clipPath id="47"><path d="M295.85 635.03L403.39 635.03L403.39 635.03L403.39 609.35L403.39 609.35L295.85 609.35z" /></clipPath><clipPath id="48"><path d="M192.03 661.21L295.25 661.21L295.25 661.21L295.25 635.515L295.25 635.515L192.03 635.515z" /></clipPath><clipPath id="49"><path d="M192.02 661.22L295.24 661.22L295.24 661.22L295.24 635.516L295.24 635.516L192.02 635.516z" /></clipPath><clipPath id="50"><path d="M192.02 661.22L295.24 661.22L295.24 661.22L295.24 635.516L295.24 635.516L192.02 635.516z" /></clipPath><clipPath id="51"><path d="M295.85 661.21L403.4 661.21L403.4 661.21L403.4 635.515L403.4 635.515L295.85 635.515z" /></clipPath><clipPath id="52"><path d="M295.85 661.22L403.39 661.22L403.39 661.22L403.39 635.516L403.39 635.516L295.85 635.516z" /></clipPath><clipPath id="53"><path d="M295.85 661.22L403.39 661.22L403.39 661.22L403.39 635.516L403.39 635.516L295.85 635.516z" /></clipPath><clipPath id="54"><path d="M192.03 687.25L295.25 687.25L295.25 687.25L295.25 661.69L295.25 661.69L192.03 661.69z" /></clipPath><clipPath id="55"><path d="M192.02 687.26L295.24 687.26L295.24 687.26L295.24 661.7L295.24 661.7L192.02 661.7z" /></clipPath><clipPath id="56"><path d="M192.02 687.26L295.24 687.26L295.24 687.26L295.24 661.7L295.24 661.7L192.02 661.7z" /></clipPath><clipPath id="57"><path d="M295.85 687.25L403.4 687.25L403.4 687.25L403.4 661.69L403.4 661.69L295.85 661.69z" /></clipPath><clipPath id="58"><path d="M295.85 687.26L403.39 687.26L403.39 687.26L403.39 661.7L403.39 661.7L295.85 661.7z" /></clipPath><clipPath id="59"><path d="M295.85 687.26L403.39 687.26L403.39 687.26L403.39 661.7L403.39 661.7L295.85 661.7z" /></clipPath><clipPath id="60"><path d="M192.03 713.41L295.25 713.41L295.25 713.41L295.25 687.85L295.25 687.85L192.03 687.85z" /></clipPath><clipPath id="61"><path d="M192.02 713.42L295.24 713.42L295.24 713.42L295.24 687.86L295.24 687.86L192.02 687.86z" /></clipPath><clipPath id="62"><path d="M192.02 713.42L295.24 713.42L295.24 713.42L295.24 687.86L295.24 687.86L192.02 687.86z" /></clipPath><clipPath id="63"><path d="M295.85 713.41L403.4 713.41L403.4 713.41L403.4 687.85L403.4 687.85L295.85 687.85z" /></clipPath><clipPath id="64"><path d="M295.85 713.42L403.39 713.42L403.39 713.42L403.39 687.86L403.39 687.86L295.85 687.86z" /></clipPath><clipPath id="65"><path d="M295.85 713.42L403.39 713.42L403.39 713.42L403.39 687.86L403.39 687.86L295.85 687.86z" /></clipPath><clipPath id="66"><path d="M192.03 739.57L295.25 739.57L295.25 739.57L295.25 713.89L295.25 713.89L192.03 713.89z" /></clipPath><clipPath id="67"><path d="M192.02 739.58L295.24 739.58L295.24 739.58L295.24 713.9L295.24 713.9L192.02 713.9z" /></clipPath><clipPath id="68"><path d="M192.02 739.58L295.24 739.58L295.24 739.58L295.24 713.9L295.24 713.9L192.02 713.9z" /></clipPath><clipPath id="69"><path d="M295.85 739.57L403.4 739.57L403.4 739.57L403.4 713.89L403.4 713.89L295.85 713.89z" /></clipPath><clipPath id="70"><path d="M295.85 739.58L403.39 739.58L403.39 739.58L403.39 713.9L403.39 713.9L295.85 713.9z" /></clipPath><clipPath id="71"><path d="M295.85 739.58L403.39 739.58L403.39 739.58L403.39 713.9L403.39 713.9L295.85 713.9z" /></clipPath><clipPath id="72"><path d="M-7.25E-07 275.8L595.32 275.8L595.32 275.8L595.32 142L595.32 142L-7.25E-07 142z" /></clipPath></defs><g transform="matrix(1.333333 0 0 1.333333 0 0)"><g><g clip-path="url(#1)"><path transform="matrix(1 0 0 -1 0 841)" d="M457.51 53.304L505.534 53.304L505.534 53.304L505.534 53.90404L505.534 53.90404L457.51 53.90404z" stroke="none" fill="#000000" fill-rule="evenodd" /><g clip-path="url(#2)"><path transform="matrix(1 0 0 -1 0 841)" d="M88.464 77.904L506.974 77.904L506.974 77.904L506.974 80.904L506.974 80.904L88.464 80.904z" stroke="none" fill="#000000" fill-rule="evenodd" /><path transform="matrix(1 0 0 -1 0 841)" d="M88.464 76.464L506.974 76.464L506.974 76.464L506.974 77.18397L506.974 77.18397L88.464 77.18397z" stroke="none" fill="#000000" fill-rule="evenodd" /></g><g clip-path="url(#3)"><g clip-path="url(#4)"></g><g clip-path="url(#5)"></g></g><path transform="matrix(1 0 0 -1 0 841)" d="M192.02 362.81L295.24 362.81L295.24 362.81L295.24 388.514L295.24 388.514L192.02 388.514z" stroke="none" fill="#0070C0" fill-rule="evenodd" /><g clip-path="url(#6)"><path transform="matrix(1 0 0 -1 0 841)" d="M197.18 362.81L290.204 362.81L290.204 362.81L290.204 388.514L290.204 388.514L197.18 388.514z" stroke="none" fill="#0070C0" fill-rule="evenodd" /><g clip-path="url(#7)"></g><g clip-path="url(#8)"></g></g><path transform="matrix(1 0 0 -1 0 841)" d="M295.85 362.81L403.39 362.81L403.39 362.81L403.39 388.514L403.39 388.514L295.85 388.514z" stroke="none" fill="#0070C0" fill-rule="evenodd" /><g clip-path="url(#9)"><path transform="matrix(1 0 0 -1 0 841)" d="M300.89 362.81L398.234 362.81L398.234 362.81L398.234 388.514L398.234 388.514L300.89 388.514z" stroke="none" fill="#0070C0" fill-rule="evenodd" /><g clip-path="url(#10)"></g><g clip-path="url(#11)"></g></g><path transform="matrix(1 0 0 -1 0 841)" d="M191.54 388.51L192.02 388.51L192.02 388.51L192.02 388.99L192.02 388.99L191.54 388.99z" stroke="none" fill="#000000" fill-rule="evenodd" /><path transform="matrix(1 0 0 -1 0 841)" d="M191.54 388.51L192.02 388.51L192.02 388.51L192.02 388.99L192.02 388.99L191.54 388.99z" stroke="none" fill="#000000" fill-rule="evenodd" /><path transform="matrix(1 0 0 -1 0 841)" d="M192.02 388.51L295.36 388.51L295.36 388.51L295.36 388.99L295.36 388.99L192.02 388.99z" stroke="none" fill="#000000" fill-rule="evenodd" /><path transform="matrix(1 0 0 -1 0 841)" d="M295.37 388.51L295.85 388.51L295.85 388.51L295.85 388.99L295.85 388.99L295.37 388.99z" stroke="none" fill="#000000" fill-rule="evenodd" /><path transform="matrix(1 0 0 -1 0 841)" d="M295.85 388.51L403.51 388.51L403.51 388.51L403.51 388.99L403.51 388.99L295.85 388.99z" stroke="none" fill="#000000" fill-rule="evenodd" /><path transform="matrix(1 0 0 -1 0 841)" d="M403.51 388.51L403.99 388.51L403.99 388.51L403.99 388.99L403.99 388.99L403.51 388.99z" stroke="none" fill="#000000" fill-rule="evenodd" /><path transform="matrix(1 0 0 -1 0 841)" d="M403.51 388.51L403.99 388.51L403.99 388.51L403.99 388.99L403.99 388.99L403.51 388.99z" stroke="none" fill="#000000" fill-rule="evenodd" /><path transform="matrix(1 0 0 -1 0 841)" d="M191.54 362.81L192.02 362.81L192.02 362.81L192.02 388.514L192.02 388.514L191.54 388.514z" stroke="none" fill="#000000" fill-rule="evenodd" /><path transform="matrix(1 0 0 -1 0 841)" d="M295.37 362.81L295.85 362.81L295.85 362.81L295.85 388.514L295.85 388.514L295.37 388.514z" stroke="none" fill="#000000" fill-rule="evenodd" /><path transform="matrix(1 0 0 -1 0 841)" d="M403.51 362.81L403.99 362.81L403.99 362.81L403.99 388.514L403.99 388.514L403.51 388.514z" stroke="none" fill="#000000" fill-rule="evenodd" /><path transform="matrix(1 0 0 -1 0 841)" d="M192.02 336.65L295.24 336.65L295.24 336.65L295.24 362.33L295.24 362.33L192.02 362.33z" stroke="none" fill="#DAEEF3" fill-rule="evenodd" /><g clip-path="url(#12)"><path transform="matrix(1 0 0 -1 0 841)" d="M197.18 336.65L290.204 336.65L290.204 336.65L290.204 362.33L290.204 362.33L197.18 362.33z" stroke="none" fill="#DAEEF3" fill-rule="evenodd" /><g clip-path="url(#13)"></g><g clip-path="url(#14)"></g></g><path transform="matrix(1 0 0 -1 0 841)" d="M295.85 336.65L403.39 336.65L403.39 336.65L403.39 362.33L403.39 362.33L295.85 362.33z" stroke="none" fill="#DAEEF3" fill-rule="evenodd" /><g clip-path="url(#15)"><path transform="matrix(1 0 0 -1 0 841)" d="M300.89 336.65L398.234 336.65L398.234 336.65L398.234 362.33L398.234 362.33L300.89 362.33z" stroke="none" fill="#DAEEF3" fill-rule="evenodd" /><g clip-path="url(#16)"></g><g clip-path="url(#17)"></g></g><path transform="matrix(1 0 0 -1 0 841)" d="M191.54 362.33L192.02 362.33L192.02 362.33L192.02 362.81L192.02 362.81L191.54 362.81z" stroke="none" fill="#000000" fill-rule="evenodd" /><path transform="matrix(1 0 0 -1 0 841)" d="M192.02 362.33L295.36 362.33L295.36 362.33L295.36 362.81L295.36 362.81L192.02 362.81z" stroke="none" fill="#000000" fill-rule="evenodd" /><path transform="matrix(1 0 0 -1 0 841)" d="M295.37 362.33L295.85 362.33L295.85 362.33L295.85 362.81L295.85 362.81L295.37 362.81z" stroke="none" fill="#000000" fill-rule="evenodd" /><path transform="matrix(1 0 0 -1 0 841)" d="M295.85 362.33L403.51 362.33L403.51 362.33L403.51 362.81L403.51 362.81L295.85 362.81z" stroke="none" fill="#000000" fill-rule="evenodd" /><path transform="matrix(1 0 0 -1 0 841)" d="M403.51 362.33L403.99 362.33L403.99 362.33L403.99 362.81L403.99 362.81L403.51 362.81z" stroke="none" fill="#000000" fill-rule="evenodd" /><path transform="matrix(1 0 0 -1 0 841)" d="M191.54 336.65L192.02 336.65L192.02 336.65L192.02 362.33L192.02 362.33L191.54 362.33z" stroke="none" fill="#000000" fill-rule="evenodd" /><path transform="matrix(1 0 0 -1 0 841)" d="M295.37 336.65L295.85 336.65L295.85 336.65L295.85 362.33L295.85 362.33L295.37 362.33z" stroke="none" fill="#000000" fill-rule="evenodd" /><path transform="matrix(1 0 0 -1 0 841)" d="M403.51 336.65L403.99 336.65L403.99 336.65L403.99 362.33L403.99 362.33L403.51 362.33z" stroke="none" fill="#000000" fill-rule="evenodd" /><g clip-path="url(#18)"><g clip-path="url(#19)"></g><g clip-path="url(#20)"></g></g><g clip-path="url(#21)"><g clip-path="url(#22)"></g><g clip-path="url(#23)"></g></g><path transform="matrix(1 0 0 -1 0 841)" d="M191.54 336.17L192.02 336.17L192.02 336.17L192.02 336.65L192.02 336.65L191.54 336.65z" stroke="none" fill="#000000" fill-rule="evenodd" /><path transform="matrix(1 0 0 -1 0 841)" d="M192.02 336.17L295.36 336.17L295.36 336.17L295.36 336.65L295.36 336.65L192.02 336.65z" stroke="none" fill="#000000" fill-rule="evenodd" /><path transform="matrix(1 0 0 -1 0 841)" d="M295.37 336.17L295.85 336.17L295.85 336.17L295.85 336.65L295.85 336.65L295.37 336.65z" stroke="none" fill="#000000" fill-rule="evenodd" /><path transform="matrix(1 0 0 -1 0 841)" d="M295.85 336.17L403.51 336.17L403.51 336.17L403.51 336.65L403.51 336.65L295.85 336.65z" stroke="none" fill="#000000" fill-rule="evenodd" /><path transform="matrix(1 0 0 -1 0 841)" d="M403.51 336.17L403.99 336.17L403.99 336.17L403.99 336.65L403.99 336.65L403.51 336.65z" stroke="none" fill="#000000" fill-rule="evenodd" /><path transform="matrix(1 0 0 -1 0 841)" d="M191.54 310.49L192.02 310.49L192.02 310.49L192.02 336.17L192.02 336.17L191.54 336.17z" stroke="none" fill="#000000" fill-rule="evenodd" /><path transform="matrix(1 0 0 -1 0 841)" d="M295.37 310.49L295.85 310.49L295.85 310.49L295.85 336.17L295.85 336.17L295.37 336.17z" stroke="none" fill="#000000" fill-rule="evenodd" /><path transform="matrix(1 0 0 -1 0 841)" d="M403.51 310.49L403.99 310.49L403.99 310.49L403.99 336.17L403.99 336.17L403.51 336.17z" stroke="none" fill="#000000" fill-rule="evenodd" /><path transform="matrix(1 0 0 -1 0 841)" d="M192.02 284.45L295.24 284.45L295.24 284.45L295.24 310.01L295.24 310.01L192.02 310.01z" stroke="none" fill="#DAEEF3" fill-rule="evenodd" /><g clip-path="url(#24)"><path transform="matrix(1 0 0 -1 0 841)" d="M197.18 284.45L290.204 284.45L290.204 284.45L290.204 310.01L290.204 310.01L197.18 310.01z" stroke="none" fill="#DAEEF3" fill-rule="evenodd" /><g clip-path="url(#25)"></g><g clip-path="url(#26)"></g></g><path transform="matrix(1 0 0 -1 0 841)" d="M295.85 284.45L403.39 284.45L403.39 284.45L403.39 310.01L403.39 310.01L295.85 310.01z" stroke="none" fill="#DAEEF3" fill-rule="evenodd" /><g clip-path="url(#27)"><path transform="matrix(1 0 0 -1 0 841)" d="M300.89 284.45L398.234 284.45L398.234 284.45L398.234 310.01L398.234 310.01L300.89 310.01z" stroke="none" fill="#DAEEF3" fill-rule="evenodd" /><g clip-path="url(#28)"></g><g clip-path="url(#29)"></g></g><path transform="matrix(1 0 0 -1 0 841)" d="M191.54 310.01L192.02 310.01L192.02 310.01L192.02 310.49L192.02 310.49L191.54 310.49z" stroke="none" fill="#000000" fill-rule="evenodd" /><path transform="matrix(1 0 0 -1 0 841)" d="M192.02 310.01L295.36 310.01L295.36 310.01L295.36 310.49L295.36 310.49L192.02 310.49z" stroke="none" fill="#000000" fill-rule="evenodd" /><path transform="matrix(1 0 0 -1 0 841)" d="M295.37 310.01L295.85 310.01L295.85 310.01L295.85 310.49L295.85 310.49L295.37 310.49z" stroke="none" fill="#000000" fill-rule="evenodd" /><path transform="matrix(1 0 0 -1 0 841)" d="M295.85 310.01L403.51 310.01L403.51 310.01L403.51 310.49L403.51 310.49L295.85 310.49z" stroke="none" fill="#000000" fill-rule="evenodd" /><path transform="matrix(1 0 0 -1 0 841)" d="M403.51 310.01L403.99 310.01L403.99 310.01L403.99 310.49L403.99 310.49L403.51 310.49z" stroke="none" fill="#000000" fill-rule="evenodd" /><path transform="matrix(1 0 0 -1 0 841)" d="M191.54 284.45L192.02 284.45L192.02 284.45L192.02 310.01L192.02 310.01L191.54 310.01z" stroke="none" fill="#000000" fill-rule="evenodd" /><path transform="matrix(1 0 0 -1 0 841)" d="M295.37 284.45L295.85 284.45L295.85 284.45L295.85 310.01L295.85 310.01L295.37 310.01z" stroke="none" fill="#000000" fill-rule="evenodd" /><path transform="matrix(1 0 0 -1 0 841)" d="M403.51 284.45L403.99 284.45L403.99 284.45L403.99 310.01L403.99 310.01L403.51 310.01z" stroke="none" fill="#000000" fill-rule="evenodd" /><g clip-path="url(#30)"><g clip-path="url(#31)"></g><g clip-path="url(#32)"></g></g><g clip-path="url(#33)"><g clip-path="url(#34)"></g><g clip-path="url(#35)"></g></g><path transform="matrix(1 0 0 -1 0 841)" d="M191.54 283.97L192.02 283.97L192.02 283.97L192.02 284.45L192.02 284.45L191.54 284.45z" stroke="none" fill="#000000" fill-rule="evenodd" /><path transform="matrix(1 0 0 -1 0 841)" d="M192.02 283.97L295.36 283.97L295.36 283.97L295.36 284.45L295.36 284.45L192.02 284.45z" stroke="none" fill="#000000" fill-rule="evenodd" /><path transform="matrix(1 0 0 -1 0 841)" d="M295.37 283.97L295.85 283.97L295.85 283.97L295.85 284.45L295.85 284.45L295.37 284.45z" stroke="none" fill="#000000" fill-rule="evenodd" /><path transform="matrix(1 0 0 -1 0 841)" d="M295.85 283.97L403.51 283.97L403.51 283.97L403.51 284.45L403.51 284.45L295.85 284.45z" stroke="none" fill="#000000" fill-rule="evenodd" /><path transform="matrix(1 0 0 -1 0 841)" d="M403.51 283.97L403.99 283.97L403.99 283.97L403.99 284.45L403.99 284.45L403.51 284.45z" stroke="none" fill="#000000" fill-rule="evenodd" /><path transform="matrix(1 0 0 -1 0 841)" d="M191.54 258.29L192.02 258.29L192.02 258.29L192.02 283.97L192.02 283.97L191.54 283.97z" stroke="none" fill="#000000" fill-rule="evenodd" /><path transform="matrix(1 0 0 -1 0 841)" d="M295.37 258.29L295.85 258.29L295.85 258.29L295.85 283.97L295.85 283.97L295.37 283.97z" stroke="none" fill="#000000" fill-rule="evenodd" /><path transform="matrix(1 0 0 -1 0 841)" d="M403.51 258.29L403.99 258.29L403.99 258.29L403.99 283.97L403.99 283.97L403.51 283.97z" stroke="none" fill="#000000" fill-rule="evenodd" /><path transform="matrix(1 0 0 -1 0 841)" d="M192.02 232.13L295.24 232.13L295.24 232.13L295.24 257.81L295.24 257.81L192.02 257.81z" stroke="none" fill="#DAEEF3" fill-rule="evenodd" /><g clip-path="url(#36)"><path transform="matrix(1 0 0 -1 0 841)" d="M197.18 232.13L290.204 232.13L290.204 232.13L290.204 257.81L290.204 257.81L197.18 257.81z" stroke="none" fill="#DAEEF3" fill-rule="evenodd" /><g clip-path="url(#37)"></g><g clip-path="url(#38)"></g></g><path transform="matrix(1 0 0 -1 0 841)" d="M295.85 232.13L403.39 232.13L403.39 232.13L403.39 257.81L403.39 257.81L295.85 257.81z" stroke="none" fill="#DAEEF3" fill-rule="evenodd" /><g clip-path="url(#39)"><path transform="matrix(1 0 0 -1 0 841)" d="M300.89 232.13L398.234 232.13L398.234 232.13L398.234 257.81L398.234 257.81L300.89 257.81z" stroke="none" fill="#DAEEF3" fill-rule="evenodd" /><g clip-path="url(#40)"></g><g clip-path="url(#41)"></g></g><path transform="matrix(1 0 0 -1 0 841)" d="M191.54 257.81L192.02 257.81L192.02 257.81L192.02 258.29L192.02 258.29L191.54 258.29z" stroke="none" fill="#000000" fill-rule="evenodd" /><path transform="matrix(1 0 0 -1 0 841)" d="M192.02 257.81L295.36 257.81L295.36 257.81L295.36 258.29L295.36 258.29L192.02 258.29z" stroke="none" fill="#000000" fill-rule="evenodd" /><path transform="matrix(1 0 0 -1 0 841)" d="M295.37 257.81L295.85 257.81L295.85 257.81L295.85 258.29L295.85 258.29L295.37 258.29z" stroke="none" fill="#000000" fill-rule="evenodd" /><path transform="matrix(1 0 0 -1 0 841)" d="M295.85 257.81L403.51 257.81L403.51 257.81L403.51 258.29L403.51 258.29L295.85 258.29z" stroke="none" fill="#000000" fill-rule="evenodd" /><path transform="matrix(1 0 0 -1 0 841)" d="M403.51 257.81L403.99 257.81L403.99 257.81L403.99 258.29L403.99 258.29L403.51 258.29z" stroke="none" fill="#000000" fill-rule="evenodd" /><path transform="matrix(1 0 0 -1 0 841)" d="M191.54 232.13L192.02 232.13L192.02 232.13L192.02 257.81L192.02 257.81L191.54 257.81z" stroke="none" fill="#000000" fill-rule="evenodd" /><path transform="matrix(1 0 0 -1 0 841)" d="M295.37 232.13L295.85 232.13L295.85 232.13L295.85 257.81L295.85 257.81L295.37 257.81z" stroke="none" fill="#000000" fill-rule="evenodd" /><path transform="matrix(1 0 0 -1 0 841)" d="M403.51 232.13L403.99 232.13L403.99 232.13L403.99 257.81L403.99 257.81L403.51 257.81z" stroke="none" fill="#000000" fill-rule="evenodd" /><g clip-path="url(#42)"><g clip-path="url(#43)"></g><g clip-path="url(#44)"></g></g><g clip-path="url(#45)"><g clip-path="url(#46)"></g><g clip-path="url(#47)"></g></g><path transform="matrix(1 0 0 -1 0 841)" d="M191.54 231.65L192.02 231.65L192.02 231.65L192.02 232.13L192.02 232.13L191.54 232.13z" stroke="none" fill="#000000" fill-rule="evenodd" /><path transform="matrix(1 0 0 -1 0 841)" d="M192.02 231.65L295.36 231.65L295.36 231.65L295.36 232.13L295.36 232.13L192.02 232.13z" stroke="none" fill="#000000" fill-rule="evenodd" /><path transform="matrix(1 0 0 -1 0 841)" d="M295.37 231.65L295.85 231.65L295.85 231.65L295.85 232.13L295.85 232.13L295.37 232.13z" stroke="none" fill="#000000" fill-rule="evenodd" /><path transform="matrix(1 0 0 -1 0 841)" d="M295.85 231.65L403.51 231.65L403.51 231.65L403.51 232.13L403.51 232.13L295.85 232.13z" stroke="none" fill="#000000" fill-rule="evenodd" /><path transform="matrix(1 0 0 -1 0 841)" d="M403.51 231.65L403.99 231.65L403.99 231.65L403.99 232.13L403.99 232.13L403.51 232.13z" stroke="none" fill="#000000" fill-rule="evenodd" /><path transform="matrix(1 0 0 -1 0 841)" d="M191.54 205.97L192.02 205.97L192.02 205.97L192.02 231.65L192.02 231.65L191.54 231.65z" stroke="none" fill="#000000" fill-rule="evenodd" /><path transform="matrix(1 0 0 -1 0 841)" d="M295.37 205.97L295.85 205.97L295.85 205.97L295.85 231.65L295.85 231.65L295.37 231.65z" stroke="none" fill="#000000" fill-rule="evenodd" /><path transform="matrix(1 0 0 -1 0 841)" d="M403.51 205.97L403.99 205.97L403.99 205.97L403.99 231.65L403.99 231.65L403.51 231.65z" stroke="none" fill="#000000" fill-rule="evenodd" /><path transform="matrix(1 0 0 -1 0 841)" d="M192.02 179.78L295.24 179.78L295.24 179.78L295.24 205.484L295.24 205.484L192.02 205.484z" stroke="none" fill="#DAEEF3" fill-rule="evenodd" /><g clip-path="url(#48)"><path transform="matrix(1 0 0 -1 0 841)" d="M197.18 179.78L290.204 179.78L290.204 179.78L290.204 205.484L290.204 205.484L197.18 205.484z" stroke="none" fill="#DAEEF3" fill-rule="evenodd" /><g clip-path="url(#49)"></g><g clip-path="url(#50)"></g></g><path transform="matrix(1 0 0 -1 0 841)" d="M295.85 179.78L403.39 179.78L403.39 179.78L403.39 205.484L403.39 205.484L295.85 205.484z" stroke="none" fill="#DAEEF3" fill-rule="evenodd" /><g clip-path="url(#51)"><path transform="matrix(1 0 0 -1 0 841)" d="M300.89 179.78L398.234 179.78L398.234 179.78L398.234 205.484L398.234 205.484L300.89 205.484z" stroke="none" fill="#DAEEF3" fill-rule="evenodd" /><g clip-path="url(#52)"></g><g clip-path="url(#53)"></g></g><path transform="matrix(1 0 0 -1 0 841)" d="M191.54 205.49L192.02 205.49L192.02 205.49L192.02 205.97L192.02 205.97L191.54 205.97z" stroke="none" fill="#000000" fill-rule="evenodd" /><path transform="matrix(1 0 0 -1 0 841)" d="M192.02 205.49L295.36 205.49L295.36 205.49L295.36 205.97L295.36 205.97L192.02 205.97z" stroke="none" fill="#000000" fill-rule="evenodd" /><path transform="matrix(1 0 0 -1 0 841)" d="M295.37 205.49L295.85 205.49L295.85 205.49L295.85 205.97L295.85 205.97L295.37 205.97z" stroke="none" fill="#000000" fill-rule="evenodd" /><path transform="matrix(1 0 0 -1 0 841)" d="M295.85 205.49L403.51 205.49L403.51 205.49L403.51 205.97L403.51 205.97L295.85 205.97z" stroke="none" fill="#000000" fill-rule="evenodd" /><path transform="matrix(1 0 0 -1 0 841)" d="M403.51 205.49L403.99 205.49L403.99 205.49L403.99 205.97L403.99 205.97L403.51 205.97z" stroke="none" fill="#000000" fill-rule="evenodd" /><path transform="matrix(1 0 0 -1 0 841)" d="M191.54 179.78L192.02 179.78L192.02 179.78L192.02 205.484L192.02 205.484L191.54 205.484z" stroke="none" fill="#000000" fill-rule="evenodd" /><path transform="matrix(1 0 0 -1 0 841)" d="M295.37 179.78L295.85 179.78L295.85 179.78L295.85 205.484L295.85 205.484L295.37 205.484z" stroke="none" fill="#000000" fill-rule="evenodd" /><path transform="matrix(1 0 0 -1 0 841)" d="M403.51 179.78L403.99 179.78L403.99 179.78L403.99 205.484L403.99 205.484L403.51 205.484z" stroke="none" fill="#000000" fill-rule="evenodd" /><g clip-path="url(#54)"><g clip-path="url(#55)"></g><g clip-path="url(#56)"></g></g><g clip-path="url(#57)"><g clip-path="url(#58)"></g><g clip-path="url(#59)"></g></g><path transform="matrix(1 0 0 -1 0 841)" d="M191.54 179.3L192.02 179.3L192.02 179.3L192.02 179.78L192.02 179.78L191.54 179.78z" stroke="none" fill="#000000" fill-rule="evenodd" /><path transform="matrix(1 0 0 -1 0 841)" d="M192.02 179.3L295.36 179.3L295.36 179.3L295.36 179.78L295.36 179.78L192.02 179.78z" stroke="none" fill="#000000" fill-rule="evenodd" /><path transform="matrix(1 0 0 -1 0 841)" d="M295.37 179.3L295.85 179.3L295.85 179.3L295.85 179.78L295.85 179.78L295.37 179.78z" stroke="none" fill="#000000" fill-rule="evenodd" /><path transform="matrix(1 0 0 -1 0 841)" d="M295.85 179.3L403.51 179.3L403.51 179.3L403.51 179.78L403.51 179.78L295.85 179.78z" stroke="none" fill="#000000" fill-rule="evenodd" /><path transform="matrix(1 0 0 -1 0 841)" d="M403.51 179.3L403.99 179.3L403.99 179.3L403.99 179.78L403.99 179.78L403.51 179.78z" stroke="none" fill="#000000" fill-rule="evenodd" /><path transform="matrix(1 0 0 -1 0 841)" d="M191.54 153.74L192.02 153.74L192.02 153.74L192.02 179.3L192.02 179.3L191.54 179.3z" stroke="none" fill="#000000" fill-rule="evenodd" /><path transform="matrix(1 0 0 -1 0 841)" d="M295.37 153.74L295.85 153.74L295.85 153.74L295.85 179.3L295.85 179.3L295.37 179.3z" stroke="none" fill="#000000" fill-rule="evenodd" /><path transform="matrix(1 0 0 -1 0 841)" d="M403.51 153.74L403.99 153.74L403.99 153.74L403.99 179.3L403.99 179.3L403.51 179.3z" stroke="none" fill="#000000" fill-rule="evenodd" /><path transform="matrix(1 0 0 -1 0 841)" d="M192.02 127.58L295.24 127.58L295.24 127.58L295.24 153.14L295.24 153.14L192.02 153.14z" stroke="none" fill="#DAEEF3" fill-rule="evenodd" /><g clip-path="url(#60)"><path transform="matrix(1 0 0 -1 0 841)" d="M197.18 127.58L290.204 127.58L290.204 127.58L290.204 153.14L290.204 153.14L197.18 153.14z" stroke="none" fill="#DAEEF3" fill-rule="evenodd" /><g clip-path="url(#61)"></g><g clip-path="url(#62)"></g></g><path transform="matrix(1 0 0 -1 0 841)" d="M295.85 127.58L403.39 127.58L403.39 127.58L403.39 153.14L403.39 153.14L295.85 153.14z" stroke="none" fill="#DAEEF3" fill-rule="evenodd" /><g clip-path="url(#63)"><path transform="matrix(1 0 0 -1 0 841)" d="M300.89 127.58L398.234 127.58L398.234 127.58L398.234 153.14L398.234 153.14L300.89 153.14z" stroke="none" fill="#DAEEF3" fill-rule="evenodd" /><g clip-path="url(#64)"></g><g clip-path="url(#65)"></g></g><path transform="matrix(1 0 0 -1 0 841)" d="M191.54 153.26L192.02 153.26L192.02 153.26L192.02 153.74L192.02 153.74L191.54 153.74z" stroke="none" fill="#000000" fill-rule="evenodd" /><path transform="matrix(1 0 0 -1 0 841)" d="M192.02 153.26L295.36 153.26L295.36 153.26L295.36 153.74L295.36 153.74L192.02 153.74z" stroke="none" fill="#000000" fill-rule="evenodd" /><path transform="matrix(1 0 0 -1 0 841)" d="M295.37 153.26L295.85 153.26L295.85 153.26L295.85 153.74L295.85 153.74L295.37 153.74z" stroke="none" fill="#000000" fill-rule="evenodd" /><path transform="matrix(1 0 0 -1 0 841)" d="M295.85 153.26L403.51 153.26L403.51 153.26L403.51 153.74L403.51 153.74L295.85 153.74z" stroke="none" fill="#000000" fill-rule="evenodd" /><path transform="matrix(1 0 0 -1 0 841)" d="M403.51 153.26L403.99 153.26L403.99 153.26L403.99 153.74L403.99 153.74L403.51 153.74z" stroke="none" fill="#000000" fill-rule="evenodd" /><path transform="matrix(1 0 0 -1 0 841)" d="M191.54 127.58L192.02 127.58L192.02 127.58L192.02 153.26L192.02 153.26L191.54 153.26z" stroke="none" fill="#000000" fill-rule="evenodd" /><path transform="matrix(1 0 0 -1 0 841)" d="M295.37 127.58L295.85 127.58L295.85 127.58L295.85 153.26L295.85 153.26L295.37 153.26z" stroke="none" fill="#000000" fill-rule="evenodd" /><path transform="matrix(1 0 0 -1 0 841)" d="M403.51 127.58L403.99 127.58L403.99 127.58L403.99 153.26L403.99 153.26L403.51 153.26z" stroke="none" fill="#000000" fill-rule="evenodd" /><g clip-path="url(#66)"><g clip-path="url(#67)"></g><g clip-path="url(#68)"></g></g><g clip-path="url(#69)"><g clip-path="url(#70)"></g><g clip-path="url(#71)"></g></g><path transform="matrix(1 0 0 -1 0 841)" d="M191.54 127.1L192.02 127.1L192.02 127.1L192.02 127.58L192.02 127.58L191.54 127.58z" stroke="none" fill="#000000" fill-rule="evenodd" /><path transform="matrix(1 0 0 -1 0 841)" d="M192.02 127.1L295.36 127.1L295.36 127.1L295.36 127.58L295.36 127.58L192.02 127.58z" stroke="none" fill="#000000" fill-rule="evenodd" /><path transform="matrix(1 0 0 -1 0 841)" d="M295.37 127.1L295.85 127.1L295.85 127.1L295.85 127.58L295.85 127.58L295.37 127.58z" stroke="none" fill="#000000" fill-rule="evenodd" /><path transform="matrix(1 0 0 -1 0 841)" d="M295.85 127.1L403.51 127.1L403.51 127.1L403.51 127.58L403.51 127.58L295.85 127.58z" stroke="none" fill="#000000" fill-rule="evenodd" /><path transform="matrix(1 0 0 -1 0 841)" d="M403.51 127.1L403.99 127.1L403.99 127.1L403.99 127.58L403.99 127.58L403.51 127.58z" stroke="none" fill="#000000" fill-rule="evenodd" /><path transform="matrix(1 0 0 -1 0 841)" d="M191.54 101.42L192.02 101.42L192.02 101.42L192.02 127.1L192.02 127.1L191.54 127.1z" stroke="none" fill="#000000" fill-rule="evenodd" /><path transform="matrix(1 0 0 -1 0 841)" d="M191.54 100.94L192.02 100.94L192.02 100.94L192.02 101.42L192.02 101.42L191.54 101.42z" stroke="none" fill="#000000" fill-rule="evenodd" /><path transform="matrix(1 0 0 -1 0 841)" d="M191.54 100.94L192.02 100.94L192.02 100.94L192.02 101.42L192.02 101.42L191.54 101.42z" stroke="none" fill="#000000" fill-rule="evenodd" /><path transform="matrix(1 0 0 -1 0 841)" d="M192.02 100.94L295.36 100.94L295.36 100.94L295.36 101.42L295.36 101.42L192.02 101.42z" stroke="none" fill="#000000" fill-rule="evenodd" /><path transform="matrix(1 0 0 -1 0 841)" d="M295.37 101.42L295.85 101.42L295.85 101.42L295.85 127.1L295.85 127.1L295.37 127.1z" stroke="none" fill="#000000" fill-rule="evenodd" /><path transform="matrix(1 0 0 -1 0 841)" d="M295.37 100.94L295.85 100.94L295.85 100.94L295.85 101.42L295.85 101.42L295.37 101.42z" stroke="none" fill="#000000" fill-rule="evenodd" /><path transform="matrix(1 0 0 -1 0 841)" d="M295.85 100.94L403.51 100.94L403.51 100.94L403.51 101.42L403.51 101.42L295.85 101.42z" stroke="none" fill="#000000" fill-rule="evenodd" /><path transform="matrix(1 0 0 -1 0 841)" d="M403.51 101.42L403.99 101.42L403.99 101.42L403.99 127.1L403.99 127.1L403.51 127.1z" stroke="none" fill="#000000" fill-rule="evenodd" /><path transform="matrix(1 0 0 -1 0 841)" d="M403.51 100.94L403.99 100.94L403.99 100.94L403.99 101.42L403.99 101.42L403.51 101.42z" stroke="none" fill="#000000" fill-rule="evenodd" /><path transform="matrix(1 0 0 -1 0 841)" d="M403.51 100.94L403.99 100.94L403.99 100.94L403.99 101.42L403.99 101.42L403.51 101.42z" stroke="none" fill="#000000" fill-rule="evenodd" /><g clip-path="url(#72)"><g transform="matrix(0.490566 0 0 0.4910715 89.85 142.06)"><g transform="matrix(1 0 0 1 0 0)"><image x="0" y="0" xlink:href="img_227.png" width="848" height="224" /></g></g></g></g></g></g></svg>