<svg xmlns="http://www.w3.org/2000/svg" xmlns:xlink="http://www.w3.org/1999/xlink" id="body_203" preserveAspectRatio="xMinYMin meet" viewBox="0 0 793 1121"><defs><clipPath id="1"><path d="M0 841L0 -0.9199829L0 -0.9199829L595.32 -0.9199829L595.32 -0.9199829L595.32 841L595.32 841L0 841z" /></clipPath><clipPath id="2"><path d="M0.00125 841.0914L595.4112 841.0914L595.4112 841.0914L595.4112 -0.9186401L595.4112 -0.9186401L0.00125 -0.9186401z" /></clipPath><clipPath id="3"><path d="M288.05 781.211L316.01 781.211L316.01 781.211L316.01 762.011L316.01 762.011L288.05 762.011z" /></clipPath><clipPath id="4"><path d="M288.05 781.216L316.01 781.216L316.01 781.216L316.01 762.016L316.01 762.016L288.05 762.016z" /></clipPath><clipPath id="5"><path d="M288.05 781.216L316.01 781.216L316.01 781.216L316.01 762.016L316.01 762.016L288.05 762.016z" /></clipPath><clipPath id="6"><path d="M84.751 291.69L154.831 291.69L154.831 291.69L154.831 266.595L154.831 266.595L84.751 266.595z" /></clipPath><clipPath id="7"><path d="M84.744 291.69L154.824 291.69L154.824 291.69L154.824 266.586L154.824 266.586L84.744 266.586z" /></clipPath><clipPath id="8"><path d="M84.744 291.69L154.824 291.69L154.824 291.69L154.824 266.586L154.824 266.586L84.744 266.586z" /></clipPath><clipPath id="9"><path d="M155.43 291.69L204.525 291.69L204.525 291.69L204.525 266.595L204.525 266.595L155.43 266.595z" /></clipPath><clipPath id="10"><path d="M155.42 291.69L204.524 291.69L204.524 291.69L204.524 266.586L204.524 266.586L155.42 266.586z" /></clipPath><clipPath id="11"><path d="M155.42 291.69L204.524 291.69L204.524 291.69L204.524 266.586L204.524 266.586L155.42 266.586z" /></clipPath><clipPath id="12"><path d="M205.01 291.69L247.01 291.69L247.01 291.69L247.01 266.595L247.01 266.595L205.01 266.595z" /></clipPath><clipPath id="13"><path d="M205.01 291.69L247.01 291.69L247.01 291.69L247.01 266.586L247.01 266.586L205.01 266.586z" /></clipPath><clipPath id="14"><path d="M205.01 291.69L247.01 291.69L247.01 291.69L247.01 266.586L247.01 266.586L205.01 266.586z" /></clipPath><clipPath id="15"><path d="M247.61 291.69L317.93 291.69L317.93 291.69L317.93 266.595L317.93 266.595L247.61 266.595z" /></clipPath><clipPath id="16"><path d="M247.61 291.69L317.93 291.69L317.93 291.69L317.93 266.586L317.93 266.586L247.61 266.586z" /></clipPath><clipPath id="17"><path d="M247.61 291.69L317.93 291.69L317.93 291.69L317.93 266.586L317.93 266.586L247.61 266.586z" /></clipPath><clipPath id="18"><path d="M318.41 291.69L509.26 291.69L509.26 291.69L509.26 266.595L509.26 266.595L318.41 266.595z" /></clipPath><clipPath id="19"><path d="M318.41 291.69L509.26 291.69L509.26 291.69L509.26 266.586L509.26 266.586L318.41 266.586z" /></clipPath><clipPath id="20"><path d="M318.41 291.69L509.26 291.69L509.26 291.69L509.26 266.586L509.26 266.586L318.41 266.586z" /></clipPath><clipPath id="21"><path d="M84.751 317.25L154.831 317.25L154.831 317.25L154.831 292.17L154.831 292.17L84.751 292.17z" /></clipPath><clipPath id="22"><path d="M84.744 317.25L154.824 317.25L154.824 317.25L154.824 292.17L154.824 292.17L84.744 292.17z" /></clipPath><clipPath id="23"><path d="M84.744 317.25L154.824 317.25L154.824 317.25L154.824 292.17L154.824 292.17L84.744 292.17z" /></clipPath><clipPath id="24"><path d="M155.43 317.25L204.525 317.25L204.525 317.25L204.525 292.17L204.525 292.17L155.43 292.17z" /></clipPath><clipPath id="25"><path d="M155.42 317.25L204.524 317.25L204.524 317.25L204.524 292.17L204.524 292.17L155.42 292.17z" /></clipPath><clipPath id="26"><path d="M155.42 317.25L204.524 317.25L204.524 317.25L204.524 292.17L204.524 292.17L155.42 292.17z" /></clipPath><clipPath id="27"><path d="M205.01 317.25L247.01 317.25L247.01 317.25L247.01 292.17L247.01 292.17L205.01 292.17z" /></clipPath><clipPath id="28"><path d="M205.01 317.25L247.01 317.25L247.01 317.25L247.01 292.17L247.01 292.17L205.01 292.17z" /></clipPath><clipPath id="29"><path d="M205.01 317.25L247.01 317.25L247.01 317.25L247.01 292.17L247.01 292.17L205.01 292.17z" /></clipPath><clipPath id="30"><path d="M247.61 317.25L317.93 317.25L317.93 317.25L317.93 292.17L317.93 292.17L247.61 292.17z" /></clipPath><clipPath id="31"><path d="M247.61 317.25L317.93 317.25L317.93 317.25L317.93 292.17L317.93 292.17L247.61 292.17z" /></clipPath><clipPath id="32"><path d="M247.61 317.25L317.93 317.25L317.93 317.25L317.93 292.17L317.93 292.17L247.61 292.17z" /></clipPath><clipPath id="33"><path d="M318.41 317.25L509.26 317.25L509.26 317.25L509.26 292.17L509.26 292.17L318.41 292.17z" /></clipPath><clipPath id="34"><path d="M318.41 317.25L509.26 317.25L509.26 317.25L509.26 292.17L509.26 292.17L318.41 292.17z" /></clipPath><clipPath id="35"><path d="M318.41 317.25L509.26 317.25L509.26 317.25L509.26 292.17L509.26 292.17L318.41 292.17z" /></clipPath><clipPath id="36"><path d="M84.751 342.81L154.831 342.81L154.831 342.81L154.831 317.73L154.831 317.73L84.751 317.73z" /></clipPath><clipPath id="37"><path d="M84.744 342.81L154.824 342.81L154.824 342.81L154.824 317.73L154.824 317.73L84.744 317.73z" /></clipPath><clipPath id="38"><path d="M84.744 342.81L154.824 342.81L154.824 342.81L154.824 317.73L154.824 317.73L84.744 317.73z" /></clipPath><clipPath id="39"><path d="M155.43 342.81L204.525 342.81L204.525 342.81L204.525 317.73L204.525 317.73L155.43 317.73z" /></clipPath><clipPath id="40"><path d="M155.42 342.81L204.524 342.81L204.524 342.81L204.524 317.73L204.524 317.73L155.42 317.73z" /></clipPath><clipPath id="41"><path d="M155.42 342.81L204.524 342.81L204.524 342.81L204.524 317.73L204.524 317.73L155.42 317.73z" /></clipPath><clipPath id="42"><path d="M205.01 342.81L247.01 342.81L247.01 342.81L247.01 317.73L247.01 317.73L205.01 317.73z" /></clipPath><clipPath id="43"><path d="M205.01 342.81L247.01 342.81L247.01 342.81L247.01 317.73L247.01 317.73L205.01 317.73z" /></clipPath><clipPath id="44"><path d="M205.01 342.81L247.01 342.81L247.01 342.81L247.01 317.73L247.01 317.73L205.01 317.73z" /></clipPath><clipPath id="45"><path d="M247.61 342.81L317.93 342.81L317.93 342.81L317.93 317.73L317.93 317.73L247.61 317.73z" /></clipPath><clipPath id="46"><path d="M247.61 342.81L317.93 342.81L317.93 342.81L317.93 317.73L317.93 317.73L247.61 317.73z" /></clipPath><clipPath id="47"><path d="M247.61 342.81L317.93 342.81L317.93 342.81L317.93 317.73L317.93 317.73L247.61 317.73z" /></clipPath><clipPath id="48"><path d="M318.41 342.81L509.26 342.81L509.26 342.81L509.26 317.73L509.26 317.73L318.41 317.73z" /></clipPath><clipPath id="49"><path d="M318.41 342.81L509.26 342.81L509.26 342.81L509.26 317.73L509.26 317.73L318.41 317.73z" /></clipPath><clipPath id="50"><path d="M318.41 342.81L509.26 342.81L509.26 342.81L509.26 317.73L509.26 317.73L318.41 317.73z" /></clipPath><clipPath id="51"><path d="M318.41 342.81L509.26 342.81L509.26 342.81L509.26 317.73L509.26 317.73L318.41 317.73z" /></clipPath><clipPath id="52"><path d="M318.41 342.81L509.26 342.81L509.26 342.81L509.26 317.73L509.26 317.73L318.41 317.73z" /></clipPath><clipPath id="53"><path d="M84.751 392.13L154.831 392.13L154.831 392.13L154.831 343.29L154.831 343.29L84.751 343.29z" /></clipPath><clipPath id="54"><path d="M84.744 392.13L154.824 392.13L154.824 392.13L154.824 343.29L154.824 343.29L84.744 343.29z" /></clipPath><clipPath id="55"><path d="M84.744 392.13L154.824 392.13L154.824 392.13L154.824 343.29L154.824 343.29L84.744 343.29z" /></clipPath><clipPath id="56"><path d="M155.43 392.13L204.525 392.13L204.525 392.13L204.525 343.29L204.525 343.29L155.43 343.29z" /></clipPath><clipPath id="57"><path d="M155.42 392.13L204.524 392.13L204.524 392.13L204.524 343.29L204.524 343.29L155.42 343.29z" /></clipPath><clipPath id="58"><path d="M155.42 392.13L204.524 392.13L204.524 392.13L204.524 343.29L204.524 343.29L155.42 343.29z" /></clipPath><clipPath id="59"><path d="M205.01 392.13L247.01 392.13L247.01 392.13L247.01 343.29L247.01 343.29L205.01 343.29z" /></clipPath><clipPath id="60"><path d="M205.01 392.13L247.01 392.13L247.01 392.13L247.01 343.29L247.01 343.29L205.01 343.29z" /></clipPath><clipPath id="61"><path d="M205.01 392.13L247.01 392.13L247.01 392.13L247.01 343.29L247.01 343.29L205.01 343.29z" /></clipPath><clipPath id="62"><path d="M247.61 392.13L317.93 392.13L317.93 392.13L317.93 343.29L317.93 343.29L247.61 343.29z" /></clipPath><clipPath id="63"><path d="M247.61 392.13L317.93 392.13L317.93 392.13L317.93 343.29L317.93 343.29L247.61 343.29z" /></clipPath><clipPath id="64"><path d="M318.41 392.13L509.26 392.13L509.26 392.13L509.26 343.29L509.26 343.29L318.41 343.29z" /></clipPath><clipPath id="65"><path d="M318.41 392.13L509.26 392.13L509.26 392.13L509.26 343.29L509.26 343.29L318.41 343.29z" /></clipPath><clipPath id="66"><path d="M318.41 392.13L509.26 392.13L509.26 392.13L509.26 343.29L509.26 343.29L318.41 343.29z" /></clipPath><clipPath id="67"><path d="M318.41 392.13L509.26 392.13L509.26 392.13L509.26 343.29L509.26 343.29L318.41 343.29z" /></clipPath><clipPath id="68"><path d="M318.41 392.13L509.26 392.13L509.26 392.13L509.26 343.29L509.26 343.29L318.41 343.29z" /></clipPath><clipPath id="69"><path d="M318.41 392.13L509.26 392.13L509.26 392.13L509.26 343.29L509.26 343.29L318.41 343.29z" /></clipPath><clipPath id="70"><path d="M318.41 392.13L509.26 392.13L509.26 392.13L509.26 343.29L509.26 343.29L318.41 343.29z" /></clipPath><clipPath id="71"><path d="M318.41 392.13L509.26 392.13L509.26 392.13L509.26 343.29L509.26 343.29L318.41 343.29z" /></clipPath><clipPath id="72"><path d="M318.41 392.13L509.26 392.13L509.26 392.13L509.26 343.29L509.26 343.29L318.41 343.29z" /></clipPath><clipPath id="73"><path d="M318.41 392.13L509.26 392.13L509.26 392.13L509.26 343.29L509.26 343.29L318.41 343.29z" /></clipPath><clipPath id="74"><path d="M318.41 392.13L509.26 392.13L509.26 392.13L509.26 343.29L509.26 343.29L318.41 343.29z" /></clipPath><clipPath id="75"><path d="M318.41 392.13L509.26 392.13L509.26 392.13L509.26 343.29L509.26 343.29L318.41 343.29z" /></clipPath><clipPath id="76"><path d="M84.751 443.37L154.831 443.37L154.831 443.37L154.831 392.61L154.831 392.61L84.751 392.61z" /></clipPath><clipPath id="77"><path d="M84.744 443.37L154.824 443.37L154.824 443.37L154.824 392.61L154.824 392.61L84.744 392.61z" /></clipPath><clipPath id="78"><path d="M84.744 443.37L154.824 443.37L154.824 443.37L154.824 392.61L154.824 392.61L84.744 392.61z" /></clipPath><clipPath id="79"><path d="M155.43 443.37L204.525 443.37L204.525 443.37L204.525 392.61L204.525 392.61L155.43 392.61z" /></clipPath><clipPath id="80"><path d="M155.42 443.37L204.524 443.37L204.524 443.37L204.524 392.61L204.524 392.61L155.42 392.61z" /></clipPath><clipPath id="81"><path d="M155.42 443.37L204.524 443.37L204.524 443.37L204.524 392.61L204.524 392.61L155.42 392.61z" /></clipPath><clipPath id="82"><path d="M205.01 443.37L247.01 443.37L247.01 443.37L247.01 392.61L247.01 392.61L205.01 392.61z" /></clipPath><clipPath id="83"><path d="M205.01 443.37L247.01 443.37L247.01 443.37L247.01 392.61L247.01 392.61L205.01 392.61z" /></clipPath><clipPath id="84"><path d="M205.01 443.37L247.01 443.37L247.01 443.37L247.01 392.61L247.01 392.61L205.01 392.61z" /></clipPath><clipPath id="85"><path d="M247.61 443.37L317.93 443.37L317.93 443.37L317.93 392.61L317.93 392.61L247.61 392.61z" /></clipPath><clipPath id="86"><path d="M247.61 443.37L317.93 443.37L317.93 443.37L317.93 392.61L317.93 392.61L247.61 392.61z" /></clipPath><clipPath id="87"><path d="M247.61 443.37L317.93 443.37L317.93 443.37L317.93 392.61L317.93 392.61L247.61 392.61z" /></clipPath><clipPath id="88"><path d="M318.41 443.37L509.26 443.37L509.26 443.37L509.26 392.61L509.26 392.61L318.41 392.61z" /></clipPath><clipPath id="89"><path d="M318.41 443.37L509.26 443.37L509.26 443.37L509.26 392.61L509.26 392.61L318.41 392.61z" /></clipPath><clipPath id="90"><path d="M318.41 443.37L509.26 443.37L509.26 443.37L509.26 392.61L509.26 392.61L318.41 392.61z" /></clipPath><clipPath id="91"><path d="M318.41 443.37L509.26 443.37L509.26 443.37L509.26 392.61L509.26 392.61L318.41 392.61z" /></clipPath><clipPath id="92"><path d="M318.41 443.37L509.26 443.37L509.26 443.37L509.26 392.61L509.26 392.61L318.41 392.61z" /></clipPath><clipPath id="93"><path d="M318.41 443.37L509.26 443.37L509.26 443.37L509.26 392.61L509.26 392.61L318.41 392.61z" /></clipPath><clipPath id="94"><path d="M318.41 443.37L509.26 443.37L509.26 443.37L509.26 392.61L509.26 392.61L318.41 392.61z" /></clipPath><clipPath id="95"><path d="M84.751 573.96L153.631 573.96L153.631 573.96L153.631 549L153.631 549L84.751 549z" /></clipPath><clipPath id="96"><path d="M84.744 573.95L153.624 573.95L153.624 573.95L153.624 548.99L153.624 548.99L84.744 548.99z" /></clipPath><clipPath id="97"><path d="M84.744 573.95L153.624 573.95L153.624 573.95L153.624 548.99L153.624 548.99L84.744 548.99z" /></clipPath><clipPath id="98"><path d="M154.11 573.96L205.605 573.96L205.605 573.96L205.605 549L205.605 549L154.11 549z" /></clipPath><clipPath id="99"><path d="M154.1 573.95L205.604 573.95L205.604 573.95L205.604 548.99L205.604 548.99L154.1 548.99z" /></clipPath><clipPath id="100"><path d="M154.1 573.95L205.604 573.95L205.604 573.95L205.604 548.99L205.604 548.99L154.1 548.99z" /></clipPath><clipPath id="101"><path d="M206.09 573.96L246.65 573.96L246.65 573.96L246.65 549L246.65 549L206.09 549z" /></clipPath><clipPath id="102"><path d="M206.09 573.95L246.65 573.95L246.65 573.95L246.65 548.99L246.65 548.99L206.09 548.99z" /></clipPath><clipPath id="103"><path d="M206.09 573.95L246.65 573.95L246.65 573.95L246.65 548.99L246.65 548.99L206.09 548.99z" /></clipPath><clipPath id="104"><path d="M247.13 573.96L316.13 573.96L316.13 573.96L316.13 549L316.13 549L247.13 549z" /></clipPath><clipPath id="105"><path d="M247.13 573.95L316.13 573.95L316.13 573.95L316.13 548.99L316.13 548.99L247.13 548.99z" /></clipPath><clipPath id="106"><path d="M247.13 573.95L316.13 573.95L316.13 573.95L316.13 548.99L316.13 548.99L247.13 548.99z" /></clipPath><clipPath id="107"><path d="M316.61 573.96L523.54 573.96L523.54 573.96L523.54 549L523.54 549L316.61 549z" /></clipPath><clipPath id="108"><path d="M316.61 573.95L523.54 573.95L523.54 573.95L523.54 548.99L523.54 548.99L316.61 548.99z" /></clipPath><clipPath id="109"><path d="M316.61 573.95L523.54 573.95L523.54 573.95L523.54 548.99L523.54 548.99L316.61 548.99z" /></clipPath><clipPath id="110"><path d="M84.751 680.89L153.631 680.89L153.631 680.89L153.631 574.55L153.631 574.55L84.751 574.55z" /></clipPath><clipPath id="111"><path d="M84.744 680.9L153.624 680.9L153.624 680.9L153.624 574.56L153.624 574.56L84.744 574.56z" /></clipPath><clipPath id="112"><path d="M84.744 680.9L153.624 680.9L153.624 680.9L153.624 574.56L153.624 574.56L84.744 574.56z" /></clipPath><clipPath id="113"><path d="M154.11 680.89L205.605 680.89L205.605 680.89L205.605 574.55L205.605 574.55L154.11 574.55z" /></clipPath><clipPath id="114"><path d="M154.1 680.9L205.604 680.9L205.604 680.9L205.604 574.56L205.604 574.56L154.1 574.56z" /></clipPath><clipPath id="115"><path d="M154.1 680.9L205.604 680.9L205.604 680.9L205.604 574.56L205.604 574.56L154.1 574.56z" /></clipPath><clipPath id="116"><path d="M206.09 680.89L246.65 680.89L246.65 680.89L246.65 574.55L246.65 574.55L206.09 574.55z" /></clipPath><clipPath id="117"><path d="M206.09 680.9L246.65 680.9L246.65 680.9L246.65 574.56L246.65 574.56L206.09 574.56z" /></clipPath><clipPath id="118"><path d="M206.09 680.9L246.65 680.9L246.65 680.9L246.65 574.56L246.65 574.56L206.09 574.56z" /></clipPath><clipPath id="119"><path d="M247.13 680.89L316.13 680.89L316.13 680.89L316.13 574.55L316.13 574.55L247.13 574.55z" /></clipPath><clipPath id="120"><path d="M247.13 680.9L316.13 680.9L316.13 680.9L316.13 574.56L316.13 574.56L247.13 574.56z" /></clipPath><clipPath id="121"><path d="M247.13 680.9L316.13 680.9L316.13 680.9L316.13 574.56L316.13 574.56L247.13 574.56z" /></clipPath><clipPath id="122"><path d="M316.61 680.89L523.54 680.89L523.54 680.89L523.54 574.55L523.54 574.55L316.61 574.55z" /></clipPath><clipPath id="123"><path d="M316.61 680.9L523.54 680.9L523.54 680.9L523.54 574.56L523.54 574.56L316.61 574.56z" /></clipPath><clipPath id="124"><path d="M316.61 680.9L523.54 680.9L523.54 680.9L523.54 574.56L523.54 574.56L316.61 574.56z" /></clipPath><clipPath id="125"><path d="M316.61 680.9L523.54 680.9L523.54 680.9L523.54 574.56L523.54 574.56L316.61 574.56z" /></clipPath><clipPath id="126"><path d="M316.61 680.9L523.54 680.9L523.54 680.9L523.54 574.56L523.54 574.56L316.61 574.56z" /></clipPath><clipPath id="127"><path d="M316.61 680.9L523.54 680.9L523.54 680.9L523.54 574.56L523.54 574.56L316.61 574.56z" /></clipPath><clipPath id="128"><path d="M316.61 680.9L523.54 680.9L523.54 680.9L523.54 574.56L523.54 574.56L316.61 574.56z" /></clipPath><clipPath id="129"><path d="M316.61 680.9L523.54 680.9L523.54 680.9L523.54 574.56L523.54 574.56L316.61 574.56z" /></clipPath><clipPath id="130"><path d="M316.61 680.9L523.54 680.9L523.54 680.9L523.54 574.56L523.54 574.56L316.61 574.56z" /></clipPath><clipPath id="131"><path d="M316.61 680.9L523.54 680.9L523.54 680.9L523.54 574.56L523.54 574.56L316.61 574.56z" /></clipPath><clipPath id="132"><path d="M316.61 680.9L523.54 680.9L523.54 680.9L523.54 574.56L523.54 574.56L316.61 574.56z" /></clipPath><clipPath id="133"><path d="M316.61 680.9L523.54 680.9L523.54 680.9L523.54 574.56L523.54 574.56L316.61 574.56z" /></clipPath><clipPath id="134"><path d="M316.61 680.9L523.54 680.9L523.54 680.9L523.54 574.56L523.54 574.56L316.61 574.56z" /></clipPath><clipPath id="135"><path d="M316.61 680.9L523.54 680.9L523.54 680.9L523.54 574.56L523.54 574.56L316.61 574.56z" /></clipPath><clipPath id="136"><path d="M316.61 680.9L523.54 680.9L523.54 680.9L523.54 574.56L523.54 574.56L316.61 574.56z" /></clipPath><clipPath id="137"><path d="M316.61 680.9L523.54 680.9L523.54 680.9L523.54 574.56L523.54 574.56L316.61 574.56z" /></clipPath><clipPath id="138"><path d="M316.61 680.9L523.54 680.9L523.54 680.9L523.54 574.56L523.54 574.56L316.61 574.56z" /></clipPath><clipPath id="139"><path d="M316.61 680.9L523.54 680.9L523.54 680.9L523.54 574.56L523.54 574.56L316.61 574.56z" /></clipPath><clipPath id="140"><path d="M316.61 680.9L523.54 680.9L523.54 680.9L523.54 574.56L523.54 574.56L316.61 574.56z" /></clipPath><clipPath id="141"><path d="M316.61 680.9L523.54 680.9L523.54 680.9L523.54 574.56L523.54 574.56L316.61 574.56z" /></clipPath><clipPath id="142"><path d="M316.61 680.9L523.54 680.9L523.54 680.9L523.54 574.56L523.54 574.56L316.61 574.56z" /></clipPath><clipPath id="143"><path d="M316.61 680.9L523.54 680.9L523.54 680.9L523.54 574.56L523.54 574.56L316.61 574.56z" /></clipPath><clipPath id="144"><path d="M316.61 680.9L523.54 680.9L523.54 680.9L523.54 574.56L523.54 574.56L316.61 574.56z" /></clipPath><clipPath id="145"><path d="M316.61 680.9L523.54 680.9L523.54 680.9L523.54 574.56L523.54 574.56L316.61 574.56z" /></clipPath><clipPath id="146"><path d="M316.61 680.9L523.54 680.9L523.54 680.9L523.54 574.56L523.54 574.56L316.61 574.56z" /></clipPath><clipPath id="147"><path d="M84.751 721.93L153.631 721.93L153.631 721.93L153.631 681.37L153.631 681.37L84.751 681.37z" /></clipPath><clipPath id="148"><path d="M84.744 721.94L153.624 721.94L153.624 721.94L153.624 681.38L153.624 681.38L84.744 681.38z" /></clipPath><clipPath id="149"><path d="M84.744 721.94L153.624 721.94L153.624 721.94L153.624 681.38L153.624 681.38L84.744 681.38z" /></clipPath><clipPath id="150"><path d="M154.11 721.93L205.605 721.93L205.605 721.93L205.605 681.37L205.605 681.37L154.11 681.37z" /></clipPath><clipPath id="151"><path d="M154.1 721.94L205.604 721.94L205.604 721.94L205.604 681.38L205.604 681.38L154.1 681.38z" /></clipPath><clipPath id="152"><path d="M154.1 721.94L205.604 721.94L205.604 721.94L205.604 681.38L205.604 681.38L154.1 681.38z" /></clipPath><clipPath id="153"><path d="M206.09 721.93L246.65 721.93L246.65 721.93L246.65 681.37L246.65 681.37L206.09 681.37z" /></clipPath><clipPath id="154"><path d="M206.09 721.94L246.65 721.94L246.65 721.94L246.65 681.38L246.65 681.38L206.09 681.38z" /></clipPath><clipPath id="155"><path d="M206.09 721.94L246.65 721.94L246.65 721.94L246.65 681.38L246.65 681.38L206.09 681.38z" /></clipPath><clipPath id="156"><path d="M247.13 721.93L316.13 721.93L316.13 721.93L316.13 681.37L316.13 681.37L247.13 681.37z" /></clipPath><clipPath id="157"><path d="M247.13 721.94L316.13 721.94L316.13 721.94L316.13 681.38L316.13 681.38L247.13 681.38z" /></clipPath><clipPath id="158"><path d="M247.13 721.94L316.13 721.94L316.13 721.94L316.13 681.38L316.13 681.38L247.13 681.38z" /></clipPath><clipPath id="159"><path d="M316.61 721.93L523.54 721.93L523.54 721.93L523.54 681.37L523.54 681.37L316.61 681.37z" /></clipPath><clipPath id="160"><path d="M316.61 721.94L523.54 721.94L523.54 721.94L523.54 681.38L523.54 681.38L316.61 681.38z" /></clipPath><clipPath id="161"><path d="M316.61 721.94L523.54 721.94L523.54 721.94L523.54 681.38L523.54 681.38L316.61 681.38z" /></clipPath><clipPath id="162"><path d="M316.61 721.94L523.54 721.94L523.54 721.94L523.54 681.38L523.54 681.38L316.61 681.38z" /></clipPath><clipPath id="163"><path d="M84.751 747.491L153.631 747.491L153.631 747.491L153.631 722.411L153.631 722.411L84.751 722.411z" /></clipPath><clipPath id="164"><path d="M84.744 747.496L153.624 747.496L153.624 747.496L153.624 722.416L153.624 722.416L84.744 722.416z" /></clipPath><clipPath id="165"><path d="M84.744 747.496L153.624 747.496L153.624 747.496L153.624 722.416L153.624 722.416L84.744 722.416z" /></clipPath><clipPath id="166"><path d="M154.11 747.491L205.605 747.491L205.605 747.491L205.605 722.411L205.605 722.411L154.11 722.411z" /></clipPath><clipPath id="167"><path d="M154.1 747.496L205.604 747.496L205.604 747.496L205.604 722.416L205.604 722.416L154.1 722.416z" /></clipPath><clipPath id="168"><path d="M154.1 747.496L205.604 747.496L205.604 747.496L205.604 722.416L205.604 722.416L154.1 722.416z" /></clipPath><clipPath id="169"><path d="M206.09 747.491L246.65 747.491L246.65 747.491L246.65 722.411L246.65 722.411L206.09 722.411z" /></clipPath><clipPath id="170"><path d="M206.09 747.496L246.65 747.496L246.65 747.496L246.65 722.416L246.65 722.416L206.09 722.416z" /></clipPath><clipPath id="171"><path d="M206.09 747.496L246.65 747.496L246.65 747.496L246.65 722.416L246.65 722.416L206.09 722.416z" /></clipPath><clipPath id="172"><path d="M247.13 747.491L316.13 747.491L316.13 747.491L316.13 722.411L316.13 722.411L247.13 722.411z" /></clipPath><clipPath id="173"><path d="M247.13 747.496L316.13 747.496L316.13 747.496L316.13 722.416L316.13 722.416L247.13 722.416z" /></clipPath><clipPath id="174"><path d="M247.13 747.496L316.13 747.496L316.13 747.496L316.13 722.416L316.13 722.416L247.13 722.416z" /></clipPath><clipPath id="175"><path d="M316.61 747.491L523.54 747.491L523.54 747.491L523.54 722.411L523.54 722.411L316.61 722.411z" /></clipPath><clipPath id="176"><path d="M316.61 747.496L523.54 747.496L523.54 747.496L523.54 722.416L523.54 722.416L316.61 722.416z" /></clipPath><clipPath id="177"><path d="M316.61 747.496L523.54 747.496L523.54 747.496L523.54 722.416L523.54 722.416L316.61 722.416z" /></clipPath><clipPath id="178"><path d="M316.61 747.496L523.54 747.496L523.54 747.496L523.54 722.416L523.54 722.416L316.61 722.416z" /></clipPath></defs><g transform="matrix(1.333333 0 0 1.333333 0 0)"><g><g clip-path="url(#1)"><path transform="matrix(1 0 0 -1 0 841)" d="M457.51 53.304L505.534 53.304L505.534 53.304L505.534 53.90404L505.534 53.90404L457.51 53.90404z" stroke="none" fill="#000000" fill-rule="evenodd" /><g clip-path="url(#2)"><path transform="matrix(1 0 0 -1 0 841)" d="M88.464 77.904L506.974 77.904L506.974 77.904L506.974 80.904L506.974 80.904L88.464 80.904z" stroke="none" fill="#000000" fill-rule="evenodd" /><path transform="matrix(1 0 0 -1 0 841)" d="M88.464 76.464L506.974 76.464L506.974 76.464L506.974 77.18397L506.974 77.18397L88.464 77.18397z" stroke="none" fill="#000000" fill-rule="evenodd" /></g><g clip-path="url(#3)"><g clip-path="url(#4)"></g><g clip-path="url(#5)"></g></g><path transform="matrix(1 0 0 -1 0 841)" d="M84.744 549.31L154.824 549.31L154.824 549.31L154.824 574.414L154.824 574.414L84.744 574.414z" stroke="none" fill="#0070C0" fill-rule="evenodd" /><g clip-path="url(#6)"><path transform="matrix(1 0 0 -1 0 841)" d="M89.904 549.31L149.784 549.31L149.784 549.31L149.784 574.414L149.784 574.414L89.904 574.414z" stroke="none" fill="#0070C0" fill-rule="evenodd" /><g clip-path="url(#7)"></g><g clip-path="url(#8)"></g></g><path transform="matrix(1 0 0 -1 0 841)" d="M155.42 549.31L204.524 549.31L204.524 549.31L204.524 574.414L204.524 574.414L155.42 574.414z" stroke="none" fill="#0070C0" fill-rule="evenodd" /><g clip-path="url(#9)"><path transform="matrix(1 0 0 -1 0 841)" d="M160.58 549.31L199.34 549.31L199.34 549.31L199.34 574.414L199.34 574.414L160.58 574.414z" stroke="none" fill="#0070C0" fill-rule="evenodd" /><g clip-path="url(#10)"></g><g clip-path="url(#11)"></g></g><path transform="matrix(1 0 0 -1 0 841)" d="M205.01 549.31L247.01 549.31L247.01 549.31L247.01 574.414L247.01 574.414L205.01 574.414z" stroke="none" fill="#0070C0" fill-rule="evenodd" /><g clip-path="url(#12)"><path transform="matrix(1 0 0 -1 0 841)" d="M210.17 549.31L241.85 549.31L241.85 549.31L241.85 574.414L241.85 574.414L210.17 574.414z" stroke="none" fill="#0070C0" fill-rule="evenodd" /><g clip-path="url(#13)"></g><g clip-path="url(#14)"></g></g><path transform="matrix(1 0 0 -1 0 841)" d="M247.61 549.31L317.93 549.31L317.93 549.31L317.93 574.414L317.93 574.414L247.61 574.414z" stroke="none" fill="#0070C0" fill-rule="evenodd" /><g clip-path="url(#15)"><path transform="matrix(1 0 0 -1 0 841)" d="M252.65 549.31L312.77 549.31L312.77 549.31L312.77 574.414L312.77 574.414L252.65 574.414z" stroke="none" fill="#0070C0" fill-rule="evenodd" /><g clip-path="url(#16)"></g><g clip-path="url(#17)"></g></g><path transform="matrix(1 0 0 -1 0 841)" d="M318.41 549.31L509.26 549.31L509.26 549.31L509.26 574.414L509.26 574.414L318.41 574.414z" stroke="none" fill="#0070C0" fill-rule="evenodd" /><g clip-path="url(#18)"><path transform="matrix(1 0 0 -1 0 841)" d="M323.57 549.31L504.1 549.31L504.1 549.31L504.1 574.414L504.1 574.414L323.57 574.414z" stroke="none" fill="#0070C0" fill-rule="evenodd" /><g clip-path="url(#19)"></g><g clip-path="url(#20)"></g></g><path transform="matrix(1 0 0 -1 0 841)" d="M84.264 574.42L84.744 574.42L84.744 574.42L84.744 574.9L84.744 574.9L84.264 574.9z" stroke="none" fill="#000000" fill-rule="evenodd" /><path transform="matrix(1 0 0 -1 0 841)" d="M84.264 574.42L84.744 574.42L84.744 574.42L84.744 574.9L84.744 574.9L84.264 574.9z" stroke="none" fill="#000000" fill-rule="evenodd" /><path transform="matrix(1 0 0 -1 0 841)" d="M84.744 574.42L154.944 574.42L154.944 574.42L154.944 574.9L154.944 574.9L84.744 574.9z" stroke="none" fill="#000000" fill-rule="evenodd" /><path transform="matrix(1 0 0 -1 0 841)" d="M154.94 574.42L155.42 574.42L155.42 574.42L155.42 574.9L155.42 574.9L154.94 574.9z" stroke="none" fill="#000000" fill-rule="evenodd" /><path transform="matrix(1 0 0 -1 0 841)" d="M155.42 574.42L204.524 574.42L204.524 574.42L204.524 574.9L204.524 574.9L155.42 574.9z" stroke="none" fill="#000000" fill-rule="evenodd" /><path transform="matrix(1 0 0 -1 0 841)" d="M204.53 574.42L205.01 574.42L205.01 574.42L205.01 574.9L205.01 574.9L204.53 574.9z" stroke="none" fill="#000000" fill-rule="evenodd" /><path transform="matrix(1 0 0 -1 0 841)" d="M205.01 574.42L247.13 574.42L247.13 574.42L247.13 574.9L247.13 574.9L205.01 574.9z" stroke="none" fill="#000000" fill-rule="evenodd" /><path transform="matrix(1 0 0 -1 0 841)" d="M247.13 574.42L247.61 574.42L247.61 574.42L247.61 574.9L247.61 574.9L247.13 574.9z" stroke="none" fill="#000000" fill-rule="evenodd" /><path transform="matrix(1 0 0 -1 0 841)" d="M247.61 574.42L317.93 574.42L317.93 574.42L317.93 574.9L317.93 574.9L247.61 574.9z" stroke="none" fill="#000000" fill-rule="evenodd" /><path transform="matrix(1 0 0 -1 0 841)" d="M317.93 574.42L318.41 574.42L318.41 574.42L318.41 574.9L318.41 574.9L317.93 574.9z" stroke="none" fill="#000000" fill-rule="evenodd" /><path transform="matrix(1 0 0 -1 0 841)" d="M318.41 574.42L509.38 574.42L509.38 574.42L509.38 574.9L509.38 574.9L318.41 574.9z" stroke="none" fill="#000000" fill-rule="evenodd" /><path transform="matrix(1 0 0 -1 0 841)" d="M509.38 574.42L509.86 574.42L509.86 574.42L509.86 574.9L509.86 574.9L509.38 574.9z" stroke="none" fill="#000000" fill-rule="evenodd" /><path transform="matrix(1 0 0 -1 0 841)" d="M509.38 574.42L509.86 574.42L509.86 574.42L509.86 574.9L509.86 574.9L509.38 574.9z" stroke="none" fill="#000000" fill-rule="evenodd" /><path transform="matrix(1 0 0 -1 0 841)" d="M84.264 549.31L84.744 549.31L84.744 549.31L84.744 574.414L84.744 574.414L84.264 574.414z" stroke="none" fill="#000000" fill-rule="evenodd" /><path transform="matrix(1 0 0 -1 0 841)" d="M154.94 549.31L155.42 549.31L155.42 549.31L155.42 574.414L155.42 574.414L154.94 574.414z" stroke="none" fill="#000000" fill-rule="evenodd" /><path transform="matrix(1 0 0 -1 0 841)" d="M204.53 549.31L205.01 549.31L205.01 549.31L205.01 574.414L205.01 574.414L204.53 574.414z" stroke="none" fill="#000000" fill-rule="evenodd" /><path transform="matrix(1 0 0 -1 0 841)" d="M247.13 549.31L247.61 549.31L247.61 549.31L247.61 574.414L247.61 574.414L247.13 574.414z" stroke="none" fill="#000000" fill-rule="evenodd" /><path transform="matrix(1 0 0 -1 0 841)" d="M317.93 549.31L318.41 549.31L318.41 549.31L318.41 574.414L318.41 574.414L317.93 574.414z" stroke="none" fill="#000000" fill-rule="evenodd" /><path transform="matrix(1 0 0 -1 0 841)" d="M509.38 549.31L509.86 549.31L509.86 549.31L509.86 574.414L509.86 574.414L509.38 574.414z" stroke="none" fill="#000000" fill-rule="evenodd" /><path transform="matrix(1 0 0 -1 0 841)" d="M84.744 523.75L154.824 523.75L154.824 523.75L154.824 548.83L154.824 548.83L84.744 548.83z" stroke="none" fill="#DAEEF3" fill-rule="evenodd" /><g clip-path="url(#21)"><path transform="matrix(1 0 0 -1 0 841)" d="M89.904 524.59L149.784 524.59L149.784 524.59L149.784 548.83L149.784 548.83L89.904 548.83z" stroke="none" fill="#DAEEF3" fill-rule="evenodd" /><g clip-path="url(#22)"></g><g clip-path="url(#23)"></g></g><path transform="matrix(1 0 0 -1 0 841)" d="M155.42 523.75L204.524 523.75L204.524 523.75L204.524 548.83L204.524 548.83L155.42 548.83z" stroke="none" fill="#DAEEF3" fill-rule="evenodd" /><g clip-path="url(#24)"><path transform="matrix(1 0 0 -1 0 841)" d="M160.58 524.59L199.34 524.59L199.34 524.59L199.34 548.83L199.34 548.83L160.58 548.83z" stroke="none" fill="#DAEEF3" fill-rule="evenodd" /><g clip-path="url(#25)"></g><g clip-path="url(#26)"></g></g><path transform="matrix(1 0 0 -1 0 841)" d="M205.01 523.75L247.01 523.75L247.01 523.75L247.01 548.83L247.01 548.83L205.01 548.83z" stroke="none" fill="#DAEEF3" fill-rule="evenodd" /><g clip-path="url(#27)"><path transform="matrix(1 0 0 -1 0 841)" d="M210.17 523.75L241.85 523.75L241.85 523.75L241.85 548.83L241.85 548.83L210.17 548.83z" stroke="none" fill="#DAEEF3" fill-rule="evenodd" /><g clip-path="url(#28)"></g><g clip-path="url(#29)"></g></g><path transform="matrix(1 0 0 -1 0 841)" d="M247.61 523.75L317.93 523.75L317.93 523.75L317.93 548.83L317.93 548.83L247.61 548.83z" stroke="none" fill="#DAEEF3" fill-rule="evenodd" /><g clip-path="url(#30)"><path transform="matrix(1 0 0 -1 0 841)" d="M252.65 524.59L312.77 524.59L312.77 524.59L312.77 548.83L312.77 548.83L252.65 548.83z" stroke="none" fill="#DAEEF3" fill-rule="evenodd" /><g clip-path="url(#31)"></g><g clip-path="url(#32)"></g></g><path transform="matrix(1 0 0 -1 0 841)" d="M318.41 523.75L509.26 523.75L509.26 523.75L509.26 548.83L509.26 548.83L318.41 548.83z" stroke="none" fill="#DAEEF3" fill-rule="evenodd" /><g clip-path="url(#33)"><path transform="matrix(1 0 0 -1 0 841)" d="M323.57 523.75L504.1 523.75L504.1 523.75L504.1 548.83L504.1 548.83L323.57 548.83z" stroke="none" fill="#DAEEF3" fill-rule="evenodd" /><g clip-path="url(#34)"></g><g clip-path="url(#35)"></g></g><path transform="matrix(1 0 0 -1 0 841)" d="M84.264 548.83L84.744 548.83L84.744 548.83L84.744 549.31L84.744 549.31L84.264 549.31z" stroke="none" fill="#000000" fill-rule="evenodd" /><path transform="matrix(1 0 0 -1 0 841)" d="M84.744 548.83L154.944 548.83L154.944 548.83L154.944 549.31L154.944 549.31L84.744 549.31z" stroke="none" fill="#000000" fill-rule="evenodd" /><path transform="matrix(1 0 0 -1 0 841)" d="M154.94 548.83L155.42 548.83L155.42 548.83L155.42 549.31L155.42 549.31L154.94 549.31z" stroke="none" fill="#000000" fill-rule="evenodd" /><path transform="matrix(1 0 0 -1 0 841)" d="M155.42 548.83L204.524 548.83L204.524 548.83L204.524 549.31L204.524 549.31L155.42 549.31z" stroke="none" fill="#000000" fill-rule="evenodd" /><path transform="matrix(1 0 0 -1 0 841)" d="M204.53 548.83L205.01 548.83L205.01 548.83L205.01 549.31L205.01 549.31L204.53 549.31z" stroke="none" fill="#000000" fill-rule="evenodd" /><path transform="matrix(1 0 0 -1 0 841)" d="M205.01 548.83L247.13 548.83L247.13 548.83L247.13 549.31L247.13 549.31L205.01 549.31z" stroke="none" fill="#000000" fill-rule="evenodd" /><path transform="matrix(1 0 0 -1 0 841)" d="M247.13 548.83L247.61 548.83L247.61 548.83L247.61 549.31L247.61 549.31L247.13 549.31z" stroke="none" fill="#000000" fill-rule="evenodd" /><path transform="matrix(1 0 0 -1 0 841)" d="M247.61 548.83L317.93 548.83L317.93 548.83L317.93 549.31L317.93 549.31L247.61 549.31z" stroke="none" fill="#000000" fill-rule="evenodd" /><path transform="matrix(1 0 0 -1 0 841)" d="M317.93 548.83L318.41 548.83L318.41 548.83L318.41 549.31L318.41 549.31L317.93 549.31z" stroke="none" fill="#000000" fill-rule="evenodd" /><path transform="matrix(1 0 0 -1 0 841)" d="M318.41 548.83L509.38 548.83L509.38 548.83L509.38 549.31L509.38 549.31L318.41 549.31z" stroke="none" fill="#000000" fill-rule="evenodd" /><path transform="matrix(1 0 0 -1 0 841)" d="M509.38 548.83L509.86 548.83L509.86 548.83L509.86 549.31L509.86 549.31L509.38 549.31z" stroke="none" fill="#000000" fill-rule="evenodd" /><path transform="matrix(1 0 0 -1 0 841)" d="M84.264 523.75L84.744 523.75L84.744 523.75L84.744 548.83L84.744 548.83L84.264 548.83z" stroke="none" fill="#000000" fill-rule="evenodd" /><path transform="matrix(1 0 0 -1 0 841)" d="M154.94 523.75L155.42 523.75L155.42 523.75L155.42 548.83L155.42 548.83L154.94 548.83z" stroke="none" fill="#000000" fill-rule="evenodd" /><path transform="matrix(1 0 0 -1 0 841)" d="M204.53 523.75L205.01 523.75L205.01 523.75L205.01 548.83L205.01 548.83L204.53 548.83z" stroke="none" fill="#000000" fill-rule="evenodd" /><path transform="matrix(1 0 0 -1 0 841)" d="M247.13 523.75L247.61 523.75L247.61 523.75L247.61 548.83L247.61 548.83L247.13 548.83z" stroke="none" fill="#000000" fill-rule="evenodd" /><path transform="matrix(1 0 0 -1 0 841)" d="M317.93 523.75L318.41 523.75L318.41 523.75L318.41 548.83L318.41 548.83L317.93 548.83z" stroke="none" fill="#000000" fill-rule="evenodd" /><path transform="matrix(1 0 0 -1 0 841)" d="M509.38 523.75L509.86 523.75L509.86 523.75L509.86 548.83L509.86 548.83L509.38 548.83z" stroke="none" fill="#000000" fill-rule="evenodd" /><g clip-path="url(#36)"><g clip-path="url(#37)"></g><g clip-path="url(#38)"></g></g><g clip-path="url(#39)"><g clip-path="url(#40)"></g><g clip-path="url(#41)"></g></g><g clip-path="url(#42)"><g clip-path="url(#43)"></g><g clip-path="url(#44)"></g></g><g clip-path="url(#45)"><g clip-path="url(#46)"></g><g clip-path="url(#47)"></g></g><g clip-path="url(#48)"><g clip-path="url(#49)"></g><g clip-path="url(#50)"></g><g clip-path="url(#51)"></g><g clip-path="url(#52)"></g></g><path transform="matrix(1 0 0 -1 0 841)" d="M84.264 523.27L84.744 523.27L84.744 523.27L84.744 523.75L84.744 523.75L84.264 523.75z" stroke="none" fill="#000000" fill-rule="evenodd" /><path transform="matrix(1 0 0 -1 0 841)" d="M84.744 523.27L154.944 523.27L154.944 523.27L154.944 523.75L154.944 523.75L84.744 523.75z" stroke="none" fill="#000000" fill-rule="evenodd" /><path transform="matrix(1 0 0 -1 0 841)" d="M154.94 523.27L155.42 523.27L155.42 523.27L155.42 523.75L155.42 523.75L154.94 523.75z" stroke="none" fill="#000000" fill-rule="evenodd" /><path transform="matrix(1 0 0 -1 0 841)" d="M155.42 523.27L204.524 523.27L204.524 523.27L204.524 523.75L204.524 523.75L155.42 523.75z" stroke="none" fill="#000000" fill-rule="evenodd" /><path transform="matrix(1 0 0 -1 0 841)" d="M204.53 523.27L205.01 523.27L205.01 523.27L205.01 523.75L205.01 523.75L204.53 523.75z" stroke="none" fill="#000000" fill-rule="evenodd" /><path transform="matrix(1 0 0 -1 0 841)" d="M205.01 523.27L247.13 523.27L247.13 523.27L247.13 523.75L247.13 523.75L205.01 523.75z" stroke="none" fill="#000000" fill-rule="evenodd" /><path transform="matrix(1 0 0 -1 0 841)" d="M247.13 523.27L247.61 523.27L247.61 523.27L247.61 523.75L247.61 523.75L247.13 523.75z" stroke="none" fill="#000000" fill-rule="evenodd" /><path transform="matrix(1 0 0 -1 0 841)" d="M247.61 523.27L317.93 523.27L317.93 523.27L317.93 523.75L317.93 523.75L247.61 523.75z" stroke="none" fill="#000000" fill-rule="evenodd" /><path transform="matrix(1 0 0 -1 0 841)" d="M317.93 523.27L318.41 523.27L318.41 523.27L318.41 523.75L318.41 523.75L317.93 523.75z" stroke="none" fill="#000000" fill-rule="evenodd" /><path transform="matrix(1 0 0 -1 0 841)" d="M318.41 523.27L509.38 523.27L509.38 523.27L509.38 523.75L509.38 523.75L318.41 523.75z" stroke="none" fill="#000000" fill-rule="evenodd" /><path transform="matrix(1 0 0 -1 0 841)" d="M509.38 523.27L509.86 523.27L509.86 523.27L509.86 523.75L509.86 523.75L509.38 523.75z" stroke="none" fill="#000000" fill-rule="evenodd" /><path transform="matrix(1 0 0 -1 0 841)" d="M84.264 498.19L84.744 498.19L84.744 498.19L84.744 523.27L84.744 523.27L84.264 523.27z" stroke="none" fill="#000000" fill-rule="evenodd" /><path transform="matrix(1 0 0 -1 0 841)" d="M154.94 498.19L155.42 498.19L155.42 498.19L155.42 523.27L155.42 523.27L154.94 523.27z" stroke="none" fill="#000000" fill-rule="evenodd" /><path transform="matrix(1 0 0 -1 0 841)" d="M204.53 498.19L205.01 498.19L205.01 498.19L205.01 523.27L205.01 523.27L204.53 523.27z" stroke="none" fill="#000000" fill-rule="evenodd" /><path transform="matrix(1 0 0 -1 0 841)" d="M247.13 498.19L247.61 498.19L247.61 498.19L247.61 523.27L247.61 523.27L247.13 523.27z" stroke="none" fill="#000000" fill-rule="evenodd" /><path transform="matrix(1 0 0 -1 0 841)" d="M317.93 498.19L318.41 498.19L318.41 498.19L318.41 523.27L318.41 523.27L317.93 523.27z" stroke="none" fill="#000000" fill-rule="evenodd" /><path transform="matrix(1 0 0 -1 0 841)" d="M509.38 498.19L509.86 498.19L509.86 498.19L509.86 523.27L509.86 523.27L509.38 523.27z" stroke="none" fill="#000000" fill-rule="evenodd" /><path transform="matrix(1 0 0 -1 0 841)" d="M84.744 448.87L154.824 448.87L154.824 448.87L154.824 497.71L154.824 497.71L84.744 497.71z" stroke="none" fill="#DAEEF3" fill-rule="evenodd" /><g clip-path="url(#53)"><path transform="matrix(1 0 0 -1 0 841)" d="M89.904 473.47L149.784 473.47L149.784 473.47L149.784 497.71L149.784 497.71L89.904 497.71z" stroke="none" fill="#DAEEF3" fill-rule="evenodd" /><g clip-path="url(#54)"></g><g clip-path="url(#55)"></g></g><path transform="matrix(1 0 0 -1 0 841)" d="M155.42 448.87L204.524 448.87L204.524 448.87L204.524 497.71L204.524 497.71L155.42 497.71z" stroke="none" fill="#DAEEF3" fill-rule="evenodd" /><g clip-path="url(#56)"><path transform="matrix(1 0 0 -1 0 841)" d="M160.58 473.47L199.34 473.47L199.34 473.47L199.34 497.71L199.34 497.71L160.58 497.71z" stroke="none" fill="#DAEEF3" fill-rule="evenodd" /><g clip-path="url(#57)"></g><g clip-path="url(#58)"></g></g><path transform="matrix(1 0 0 -1 0 841)" d="M205.01 448.87L247.01 448.87L247.01 448.87L247.01 497.71L247.01 497.71L205.01 497.71z" stroke="none" fill="#DAEEF3" fill-rule="evenodd" /><g clip-path="url(#59)"><path transform="matrix(1 0 0 -1 0 841)" d="M210.17 472.63L241.85 472.63L241.85 472.63L241.85 497.71L241.85 497.71L210.17 497.71z" stroke="none" fill="#DAEEF3" fill-rule="evenodd" /><g clip-path="url(#60)"></g><g clip-path="url(#61)"></g></g><path transform="matrix(1 0 0 -1 0 841)" d="M247.61 448.87L317.93 448.87L317.93 448.87L317.93 497.71L317.93 497.71L247.61 497.71z" stroke="none" fill="#DAEEF3" fill-rule="evenodd" /><g clip-path="url(#62)"><path transform="matrix(1 0 0 -1 0 841)" d="M252.65 473.47L312.77 473.47L312.77 473.47L312.77 497.71L312.77 497.71L252.65 497.71z" stroke="none" fill="#DAEEF3" fill-rule="evenodd" /><g clip-path="url(#63)"></g></g><path transform="matrix(1 0 0 -1 0 841)" d="M318.41 448.87L509.26 448.87L509.26 448.87L509.26 497.71L509.26 497.71L318.41 497.71z" stroke="none" fill="#DAEEF3" fill-rule="evenodd" /><g clip-path="url(#64)"><path transform="matrix(1 0 0 -1 0 841)" d="M323.57 472.63L504.1 472.63L504.1 472.63L504.1 497.71L504.1 497.71L323.57 497.71z" stroke="none" fill="#DAEEF3" fill-rule="evenodd" /><g clip-path="url(#65)"></g><g clip-path="url(#66)"></g><g clip-path="url(#67)"></g><path transform="matrix(1 0 0 -1 0 841)" d="M323.57 448.87L504.1 448.87L504.1 448.87L504.1 472.63L504.1 472.63L323.57 472.63z" stroke="none" fill="#DAEEF3" fill-rule="evenodd" /><g clip-path="url(#68)"></g><g clip-path="url(#69)"></g><g clip-path="url(#70)"></g><g clip-path="url(#71)"></g><g clip-path="url(#72)"></g><g clip-path="url(#73)"></g><g clip-path="url(#74)"></g><g clip-path="url(#75)"></g><path transform="matrix(1 0 0 -1 0 841)" d="M438.31 455.71L494.494 455.71L494.494 455.71L494.494 456.43L494.494 456.43L438.31 456.43z" stroke="none" fill="#548DD4" fill-rule="evenodd" /></g><path transform="matrix(1 0 0 -1 0 841)" d="M84.264 497.71L84.744 497.71L84.744 497.71L84.744 498.19L84.744 498.19L84.264 498.19z" stroke="none" fill="#000000" fill-rule="evenodd" /><path transform="matrix(1 0 0 -1 0 841)" d="M84.744 497.71L154.944 497.71L154.944 497.71L154.944 498.19L154.944 498.19L84.744 498.19z" stroke="none" fill="#000000" fill-rule="evenodd" /><path transform="matrix(1 0 0 -1 0 841)" d="M154.94 497.71L155.42 497.71L155.42 497.71L155.42 498.19L155.42 498.19L154.94 498.19z" stroke="none" fill="#000000" fill-rule="evenodd" /><path transform="matrix(1 0 0 -1 0 841)" d="M155.42 497.71L204.524 497.71L204.524 497.71L204.524 498.19L204.524 498.19L155.42 498.19z" stroke="none" fill="#000000" fill-rule="evenodd" /><path transform="matrix(1 0 0 -1 0 841)" d="M204.53 497.71L205.01 497.71L205.01 497.71L205.01 498.19L205.01 498.19L204.53 498.19z" stroke="none" fill="#000000" fill-rule="evenodd" /><path transform="matrix(1 0 0 -1 0 841)" d="M205.01 497.71L247.13 497.71L247.13 497.71L247.13 498.19L247.13 498.19L205.01 498.19z" stroke="none" fill="#000000" fill-rule="evenodd" /><path transform="matrix(1 0 0 -1 0 841)" d="M247.13 497.71L247.61 497.71L247.61 497.71L247.61 498.19L247.61 498.19L247.13 498.19z" stroke="none" fill="#000000" fill-rule="evenodd" /><path transform="matrix(1 0 0 -1 0 841)" d="M247.61 497.71L317.93 497.71L317.93 497.71L317.93 498.19L317.93 498.19L247.61 498.19z" stroke="none" fill="#000000" fill-rule="evenodd" /><path transform="matrix(1 0 0 -1 0 841)" d="M317.93 497.71L318.41 497.71L318.41 497.71L318.41 498.19L318.41 498.19L317.93 498.19z" stroke="none" fill="#000000" fill-rule="evenodd" /><path transform="matrix(1 0 0 -1 0 841)" d="M318.41 497.71L509.38 497.71L509.38 497.71L509.38 498.19L509.38 498.19L318.41 498.19z" stroke="none" fill="#000000" fill-rule="evenodd" /><path transform="matrix(1 0 0 -1 0 841)" d="M509.38 497.71L509.86 497.71L509.86 497.71L509.86 498.19L509.86 498.19L509.38 498.19z" stroke="none" fill="#000000" fill-rule="evenodd" /><path transform="matrix(1 0 0 -1 0 841)" d="M84.264 448.87L84.744 448.87L84.744 448.87L84.744 497.71L84.744 497.71L84.264 497.71z" stroke="none" fill="#000000" fill-rule="evenodd" /><path transform="matrix(1 0 0 -1 0 841)" d="M154.94 448.87L155.42 448.87L155.42 448.87L155.42 497.71L155.42 497.71L154.94 497.71z" stroke="none" fill="#000000" fill-rule="evenodd" /><path transform="matrix(1 0 0 -1 0 841)" d="M204.53 448.87L205.01 448.87L205.01 448.87L205.01 497.71L205.01 497.71L204.53 497.71z" stroke="none" fill="#000000" fill-rule="evenodd" /><path transform="matrix(1 0 0 -1 0 841)" d="M247.13 448.87L247.61 448.87L247.61 448.87L247.61 497.71L247.61 497.71L247.13 497.71z" stroke="none" fill="#000000" fill-rule="evenodd" /><path transform="matrix(1 0 0 -1 0 841)" d="M317.93 448.87L318.41 448.87L318.41 448.87L318.41 497.71L318.41 497.71L317.93 497.71z" stroke="none" fill="#000000" fill-rule="evenodd" /><path transform="matrix(1 0 0 -1 0 841)" d="M509.38 448.87L509.86 448.87L509.86 448.87L509.86 497.71L509.86 497.71L509.38 497.71z" stroke="none" fill="#000000" fill-rule="evenodd" /><g clip-path="url(#76)"><g clip-path="url(#77)"></g><g clip-path="url(#78)"></g></g><g clip-path="url(#79)"><g clip-path="url(#80)"></g><g clip-path="url(#81)"></g></g><g clip-path="url(#82)"><g clip-path="url(#83)"></g><g clip-path="url(#84)"></g></g><g clip-path="url(#85)"><g clip-path="url(#86)"></g><g clip-path="url(#87)"></g></g><g clip-path="url(#88)"><g clip-path="url(#89)"></g><g clip-path="url(#90)"></g><g clip-path="url(#91)"></g><g clip-path="url(#92)"></g><g clip-path="url(#93)"></g><g clip-path="url(#94)"></g><path transform="matrix(1 0 0 -1 0 841)" d="M325.97 403.63L373.994 403.63L373.994 403.63L373.994 404.23L373.994 404.23L325.97 404.23z" stroke="none" fill="#000000" fill-rule="evenodd" /></g><path transform="matrix(1 0 0 -1 0 841)" d="M84.264 448.39L84.744 448.39L84.744 448.39L84.744 448.87L84.744 448.87L84.264 448.87z" stroke="none" fill="#000000" fill-rule="evenodd" /><path transform="matrix(1 0 0 -1 0 841)" d="M84.744 448.39L154.944 448.39L154.944 448.39L154.944 448.87L154.944 448.87L84.744 448.87z" stroke="none" fill="#000000" fill-rule="evenodd" /><path transform="matrix(1 0 0 -1 0 841)" d="M154.94 448.39L155.42 448.39L155.42 448.39L155.42 448.87L155.42 448.87L154.94 448.87z" stroke="none" fill="#000000" fill-rule="evenodd" /><path transform="matrix(1 0 0 -1 0 841)" d="M155.42 448.39L204.524 448.39L204.524 448.39L204.524 448.87L204.524 448.87L155.42 448.87z" stroke="none" fill="#000000" fill-rule="evenodd" /><path transform="matrix(1 0 0 -1 0 841)" d="M204.53 448.39L205.01 448.39L205.01 448.39L205.01 448.87L205.01 448.87L204.53 448.87z" stroke="none" fill="#000000" fill-rule="evenodd" /><path transform="matrix(1 0 0 -1 0 841)" d="M205.01 448.39L247.13 448.39L247.13 448.39L247.13 448.87L247.13 448.87L205.01 448.87z" stroke="none" fill="#000000" fill-rule="evenodd" /><path transform="matrix(1 0 0 -1 0 841)" d="M247.13 448.39L247.61 448.39L247.61 448.39L247.61 448.87L247.61 448.87L247.13 448.87z" stroke="none" fill="#000000" fill-rule="evenodd" /><path transform="matrix(1 0 0 -1 0 841)" d="M247.61 448.39L317.93 448.39L317.93 448.39L317.93 448.87L317.93 448.87L247.61 448.87z" stroke="none" fill="#000000" fill-rule="evenodd" /><path transform="matrix(1 0 0 -1 0 841)" d="M317.93 448.39L318.41 448.39L318.41 448.39L318.41 448.87L318.41 448.87L317.93 448.87z" stroke="none" fill="#000000" fill-rule="evenodd" /><path transform="matrix(1 0 0 -1 0 841)" d="M318.41 448.39L509.38 448.39L509.38 448.39L509.38 448.87L509.38 448.87L318.41 448.87z" stroke="none" fill="#000000" fill-rule="evenodd" /><path transform="matrix(1 0 0 -1 0 841)" d="M509.38 448.39L509.86 448.39L509.86 448.39L509.86 448.87L509.86 448.87L509.38 448.87z" stroke="none" fill="#000000" fill-rule="evenodd" /><path transform="matrix(1 0 0 -1 0 841)" d="M84.264 397.63L84.744 397.63L84.744 397.63L84.744 448.39L84.744 448.39L84.264 448.39z" stroke="none" fill="#000000" fill-rule="evenodd" /><path transform="matrix(1 0 0 -1 0 841)" d="M84.264 397.15L84.744 397.15L84.744 397.15L84.744 397.63L84.744 397.63L84.264 397.63z" stroke="none" fill="#000000" fill-rule="evenodd" /><path transform="matrix(1 0 0 -1 0 841)" d="M84.264 397.15L84.744 397.15L84.744 397.15L84.744 397.63L84.744 397.63L84.264 397.63z" stroke="none" fill="#000000" fill-rule="evenodd" /><path transform="matrix(1 0 0 -1 0 841)" d="M84.744 397.15L154.944 397.15L154.944 397.15L154.944 397.63L154.944 397.63L84.744 397.63z" stroke="none" fill="#000000" fill-rule="evenodd" /><path transform="matrix(1 0 0 -1 0 841)" d="M154.94 397.63L155.42 397.63L155.42 397.63L155.42 448.39L155.42 448.39L154.94 448.39z" stroke="none" fill="#000000" fill-rule="evenodd" /><path transform="matrix(1 0 0 -1 0 841)" d="M154.94 397.15L155.42 397.15L155.42 397.15L155.42 397.63L155.42 397.63L154.94 397.63z" stroke="none" fill="#000000" fill-rule="evenodd" /><path transform="matrix(1 0 0 -1 0 841)" d="M155.42 397.15L204.524 397.15L204.524 397.15L204.524 397.63L204.524 397.63L155.42 397.63z" stroke="none" fill="#000000" fill-rule="evenodd" /><path transform="matrix(1 0 0 -1 0 841)" d="M204.53 397.63L205.01 397.63L205.01 397.63L205.01 448.39L205.01 448.39L204.53 448.39z" stroke="none" fill="#000000" fill-rule="evenodd" /><path transform="matrix(1 0 0 -1 0 841)" d="M204.53 397.15L205.01 397.15L205.01 397.15L205.01 397.63L205.01 397.63L204.53 397.63z" stroke="none" fill="#000000" fill-rule="evenodd" /><path transform="matrix(1 0 0 -1 0 841)" d="M205.01 397.15L247.13 397.15L247.13 397.15L247.13 397.63L247.13 397.63L205.01 397.63z" stroke="none" fill="#000000" fill-rule="evenodd" /><path transform="matrix(1 0 0 -1 0 841)" d="M247.13 397.63L247.61 397.63L247.61 397.63L247.61 448.39L247.61 448.39L247.13 448.39z" stroke="none" fill="#000000" fill-rule="evenodd" /><path transform="matrix(1 0 0 -1 0 841)" d="M247.13 397.15L247.61 397.15L247.61 397.15L247.61 397.63L247.61 397.63L247.13 397.63z" stroke="none" fill="#000000" fill-rule="evenodd" /><path transform="matrix(1 0 0 -1 0 841)" d="M247.61 397.15L317.93 397.15L317.93 397.15L317.93 397.63L317.93 397.63L247.61 397.63z" stroke="none" fill="#000000" fill-rule="evenodd" /><path transform="matrix(1 0 0 -1 0 841)" d="M317.93 397.63L318.41 397.63L318.41 397.63L318.41 448.39L318.41 448.39L317.93 448.39z" stroke="none" fill="#000000" fill-rule="evenodd" /><path transform="matrix(1 0 0 -1 0 841)" d="M317.93 397.15L318.41 397.15L318.41 397.15L318.41 397.63L318.41 397.63L317.93 397.63z" stroke="none" fill="#000000" fill-rule="evenodd" /><path transform="matrix(1 0 0 -1 0 841)" d="M318.41 397.15L509.38 397.15L509.38 397.15L509.38 397.63L509.38 397.63L318.41 397.63z" stroke="none" fill="#000000" fill-rule="evenodd" /><path transform="matrix(1 0 0 -1 0 841)" d="M509.38 397.63L509.86 397.63L509.86 397.63L509.86 448.39L509.86 448.39L509.38 448.39z" stroke="none" fill="#000000" fill-rule="evenodd" /><path transform="matrix(1 0 0 -1 0 841)" d="M509.38 397.15L509.86 397.15L509.86 397.15L509.86 397.63L509.86 397.63L509.38 397.63z" stroke="none" fill="#000000" fill-rule="evenodd" /><path transform="matrix(1 0 0 -1 0 841)" d="M509.38 397.15L509.86 397.15L509.86 397.15L509.86 397.63L509.86 397.63L509.38 397.63z" stroke="none" fill="#000000" fill-rule="evenodd" /><path transform="matrix(1 0 0 -1 0 841)" d="M84.744 267.05L153.624 267.05L153.624 267.05L153.624 292.01L153.624 292.01L84.744 292.01z" stroke="none" fill="#0070C0" fill-rule="evenodd" /><g clip-path="url(#95)"><path transform="matrix(1 0 0 -1 0 841)" d="M89.904 267.05L148.464 267.05L148.464 267.05L148.464 292.01L148.464 292.01L89.904 292.01z" stroke="none" fill="#0070C0" fill-rule="evenodd" /><g clip-path="url(#96)"></g><g clip-path="url(#97)"></g></g><path transform="matrix(1 0 0 -1 0 841)" d="M154.1 267.05L205.604 267.05L205.604 267.05L205.604 292.01L205.604 292.01L154.1 292.01z" stroke="none" fill="#0070C0" fill-rule="evenodd" /><g clip-path="url(#98)"><path transform="matrix(1 0 0 -1 0 841)" d="M159.26 267.05L200.42 267.05L200.42 267.05L200.42 292.01L200.42 292.01L159.26 292.01z" stroke="none" fill="#0070C0" fill-rule="evenodd" /><g clip-path="url(#99)"></g><g clip-path="url(#100)"></g></g><path transform="matrix(1 0 0 -1 0 841)" d="M206.09 267.05L246.65 267.05L246.65 267.05L246.65 292.01L246.65 292.01L206.09 292.01z" stroke="none" fill="#0070C0" fill-rule="evenodd" /><g clip-path="url(#101)"><path transform="matrix(1 0 0 -1 0 841)" d="M211.25 267.05L241.49 267.05L241.49 267.05L241.49 292.01L241.49 292.01L211.25 292.01z" stroke="none" fill="#0070C0" fill-rule="evenodd" /><g clip-path="url(#102)"></g><g clip-path="url(#103)"></g></g><path transform="matrix(1 0 0 -1 0 841)" d="M247.13 267.05L316.13 267.05L316.13 267.05L316.13 292.01L316.13 292.01L247.13 292.01z" stroke="none" fill="#0070C0" fill-rule="evenodd" /><g clip-path="url(#104)"><path transform="matrix(1 0 0 -1 0 841)" d="M252.29 267.05L310.97 267.05L310.97 267.05L310.97 292.01L310.97 292.01L252.29 292.01z" stroke="none" fill="#0070C0" fill-rule="evenodd" /><g clip-path="url(#105)"></g><g clip-path="url(#106)"></g></g><path transform="matrix(1 0 0 -1 0 841)" d="M316.61 267.05L523.54 267.05L523.54 267.05L523.54 292.01L523.54 292.01L316.61 292.01z" stroke="none" fill="#0070C0" fill-rule="evenodd" /><g clip-path="url(#107)"><path transform="matrix(1 0 0 -1 0 841)" d="M321.77 267.05L518.38 267.05L518.38 267.05L518.38 292.01L518.38 292.01L321.77 292.01z" stroke="none" fill="#0070C0" fill-rule="evenodd" /><g clip-path="url(#108)"></g><g clip-path="url(#109)"></g></g><path transform="matrix(1 0 0 -1 0 841)" d="M84.264 292.13L84.744 292.13L84.744 292.13L84.744 292.61L84.744 292.61L84.264 292.61z" stroke="none" fill="#000000" fill-rule="evenodd" /><path transform="matrix(1 0 0 -1 0 841)" d="M84.264 292.13L84.744 292.13L84.744 292.13L84.744 292.61L84.744 292.61L84.264 292.61z" stroke="none" fill="#000000" fill-rule="evenodd" /><path transform="matrix(1 0 0 -1 0 841)" d="M84.744 292.13L153.624 292.13L153.624 292.13L153.624 292.61L153.624 292.61L84.744 292.61z" stroke="none" fill="#000000" fill-rule="evenodd" /><path transform="matrix(1 0 0 -1 0 841)" d="M153.62 292.13L154.1 292.13L154.1 292.13L154.1 292.61L154.1 292.61L153.62 292.61z" stroke="none" fill="#000000" fill-rule="evenodd" /><path transform="matrix(1 0 0 -1 0 841)" d="M154.1 292.13L205.604 292.13L205.604 292.13L205.604 292.61L205.604 292.61L154.1 292.61z" stroke="none" fill="#000000" fill-rule="evenodd" /><path transform="matrix(1 0 0 -1 0 841)" d="M205.61 292.13L206.09 292.13L206.09 292.13L206.09 292.61L206.09 292.61L205.61 292.61z" stroke="none" fill="#000000" fill-rule="evenodd" /><path transform="matrix(1 0 0 -1 0 841)" d="M206.09 292.13L246.65 292.13L246.65 292.13L246.65 292.61L246.65 292.61L206.09 292.61z" stroke="none" fill="#000000" fill-rule="evenodd" /><path transform="matrix(1 0 0 -1 0 841)" d="M246.65 292.13L247.13 292.13L247.13 292.13L247.13 292.61L247.13 292.61L246.65 292.61z" stroke="none" fill="#000000" fill-rule="evenodd" /><path transform="matrix(1 0 0 -1 0 841)" d="M247.13 292.13L316.13 292.13L316.13 292.13L316.13 292.61L316.13 292.61L247.13 292.61z" stroke="none" fill="#000000" fill-rule="evenodd" /><path transform="matrix(1 0 0 -1 0 841)" d="M316.13 292.13L316.61 292.13L316.61 292.13L316.61 292.61L316.61 292.61L316.13 292.61z" stroke="none" fill="#000000" fill-rule="evenodd" /><path transform="matrix(1 0 0 -1 0 841)" d="M316.61 292.13L523.54 292.13L523.54 292.13L523.54 292.61L523.54 292.61L316.61 292.61z" stroke="none" fill="#000000" fill-rule="evenodd" /><path transform="matrix(1 0 0 -1 0 841)" d="M523.54 292.13L524.02 292.13L524.02 292.13L524.02 292.61L524.02 292.61L523.54 292.61z" stroke="none" fill="#000000" fill-rule="evenodd" /><path transform="matrix(1 0 0 -1 0 841)" d="M523.54 292.13L524.02 292.13L524.02 292.13L524.02 292.61L524.02 292.61L523.54 292.61z" stroke="none" fill="#000000" fill-rule="evenodd" /><path transform="matrix(1 0 0 -1 0 841)" d="M84.264 267.05L84.744 267.05L84.744 267.05L84.744 292.13L84.744 292.13L84.264 292.13z" stroke="none" fill="#000000" fill-rule="evenodd" /><path transform="matrix(1 0 0 -1 0 841)" d="M153.62 267.05L154.1 267.05L154.1 267.05L154.1 292.13L154.1 292.13L153.62 292.13z" stroke="none" fill="#000000" fill-rule="evenodd" /><path transform="matrix(1 0 0 -1 0 841)" d="M205.61 267.05L206.09 267.05L206.09 267.05L206.09 292.13L206.09 292.13L205.61 292.13z" stroke="none" fill="#000000" fill-rule="evenodd" /><path transform="matrix(1 0 0 -1 0 841)" d="M246.65 267.05L247.13 267.05L247.13 267.05L247.13 292.13L247.13 292.13L246.65 292.13z" stroke="none" fill="#000000" fill-rule="evenodd" /><path transform="matrix(1 0 0 -1 0 841)" d="M316.13 267.05L316.61 267.05L316.61 267.05L316.61 292.13L316.61 292.13L316.13 292.13z" stroke="none" fill="#000000" fill-rule="evenodd" /><path transform="matrix(1 0 0 -1 0 841)" d="M523.54 267.05L524.02 267.05L524.02 267.05L524.02 292.13L524.02 292.13L523.54 292.13z" stroke="none" fill="#000000" fill-rule="evenodd" /><path transform="matrix(1 0 0 -1 0 841)" d="M84.744 160.1L153.624 160.1L153.624 160.1L153.624 266.44L153.624 266.44L84.744 266.44z" stroke="none" fill="#DAEEF3" fill-rule="evenodd" /><g clip-path="url(#110)"><path transform="matrix(1 0 0 -1 0 841)" d="M89.904 201.29L148.464 201.29L148.464 201.29L148.464 225.41L148.464 225.41L89.904 225.41z" stroke="none" fill="#DAEEF3" fill-rule="evenodd" /><g clip-path="url(#111)"></g><g clip-path="url(#112)"></g></g><path transform="matrix(1 0 0 -1 0 841)" d="M154.1 160.1L205.604 160.1L205.604 160.1L205.604 266.44L205.604 266.44L154.1 266.44z" stroke="none" fill="#DAEEF3" fill-rule="evenodd" /><g clip-path="url(#113)"><path transform="matrix(1 0 0 -1 0 841)" d="M159.26 201.29L200.42 201.29L200.42 201.29L200.42 225.41L200.42 225.41L159.26 225.41z" stroke="none" fill="#DAEEF3" fill-rule="evenodd" /><g clip-path="url(#114)"></g><g clip-path="url(#115)"></g></g><path transform="matrix(1 0 0 -1 0 841)" d="M206.09 160.1L246.65 160.1L246.65 160.1L246.65 266.44L246.65 266.44L206.09 266.44z" stroke="none" fill="#DAEEF3" fill-rule="evenodd" /><g clip-path="url(#116)"><path transform="matrix(1 0 0 -1 0 841)" d="M211.25 200.81L241.49 200.81L241.49 200.81L241.49 225.89L241.49 225.89L211.25 225.89z" stroke="none" fill="#DAEEF3" fill-rule="evenodd" /><g clip-path="url(#117)"></g><g clip-path="url(#118)"></g></g><path transform="matrix(1 0 0 -1 0 841)" d="M247.13 160.1L316.13 160.1L316.13 160.1L316.13 266.44L316.13 266.44L247.13 266.44z" stroke="none" fill="#DAEEF3" fill-rule="evenodd" /><g clip-path="url(#119)"><path transform="matrix(1 0 0 -1 0 841)" d="M252.29 201.29L310.97 201.29L310.97 201.29L310.97 225.41L310.97 225.41L252.29 225.41z" stroke="none" fill="#DAEEF3" fill-rule="evenodd" /><g clip-path="url(#120)"></g><g clip-path="url(#121)"></g></g><path transform="matrix(1 0 0 -1 0 841)" d="M316.61 160.1L523.54 160.1L523.54 160.1L523.54 266.44L523.54 266.44L316.61 266.44z" stroke="none" fill="#DAEEF3" fill-rule="evenodd" /><g clip-path="url(#122)"><path transform="matrix(1 0 0 -1 0 841)" d="M321.77 241.49L518.38 241.49L518.38 241.49L518.38 266.45L518.38 266.45L321.77 266.45z" stroke="none" fill="#DAEEF3" fill-rule="evenodd" /><g clip-path="url(#123)"></g><g clip-path="url(#124)"></g><g clip-path="url(#125)"></g><path transform="matrix(1 0 0 -1 0 841)" d="M321.77 221.09L518.38 221.09L518.38 221.09L518.38 241.49L518.38 241.49L321.77 241.49z" stroke="none" fill="#DAEEF3" fill-rule="evenodd" /><g clip-path="url(#126)"></g><g clip-path="url(#127)"></g><g clip-path="url(#128)"></g><g clip-path="url(#129)"></g><g clip-path="url(#130)"></g><path transform="matrix(1 0 0 -1 0 841)" d="M321.77 200.81L518.38 200.81L518.38 200.81L518.38 221.09L518.38 221.09L321.77 221.09z" stroke="none" fill="#DAEEF3" fill-rule="evenodd" /><g clip-path="url(#131)"></g><g clip-path="url(#132)"></g><g clip-path="url(#133)"></g><g clip-path="url(#134)"></g><g clip-path="url(#135)"></g><path transform="matrix(1 0 0 -1 0 841)" d="M321.77 180.5L518.38 180.5L518.38 180.5L518.38 200.804L518.38 200.804L321.77 200.804z" stroke="none" fill="#DAEEF3" fill-rule="evenodd" /><g clip-path="url(#136)"></g><g clip-path="url(#137)"></g><g clip-path="url(#138)"></g><g clip-path="url(#139)"></g><g clip-path="url(#140)"></g><path transform="matrix(1 0 0 -1 0 841)" d="M321.77 160.1L518.38 160.1L518.38 160.1L518.38 180.5L518.38 180.5L321.77 180.5z" stroke="none" fill="#DAEEF3" fill-rule="evenodd" /><g clip-path="url(#141)"></g><g clip-path="url(#142)"></g><g clip-path="url(#143)"></g><g clip-path="url(#144)"></g><g clip-path="url(#145)"></g><g clip-path="url(#146)"></g></g><path transform="matrix(1 0 0 -1 0 841)" d="M84.264 266.57L84.744 266.57L84.744 266.57L84.744 267.05L84.744 267.05L84.264 267.05z" stroke="none" fill="#000000" fill-rule="evenodd" /><path transform="matrix(1 0 0 -1 0 841)" d="M84.744 266.57L153.624 266.57L153.624 266.57L153.624 267.05L153.624 267.05L84.744 267.05z" stroke="none" fill="#000000" fill-rule="evenodd" /><path transform="matrix(1 0 0 -1 0 841)" d="M153.62 266.57L154.1 266.57L154.1 266.57L154.1 267.05L154.1 267.05L153.62 267.05z" stroke="none" fill="#000000" fill-rule="evenodd" /><path transform="matrix(1 0 0 -1 0 841)" d="M154.1 266.57L205.604 266.57L205.604 266.57L205.604 267.05L205.604 267.05L154.1 267.05z" stroke="none" fill="#000000" fill-rule="evenodd" /><path transform="matrix(1 0 0 -1 0 841)" d="M205.61 266.57L206.09 266.57L206.09 266.57L206.09 267.05L206.09 267.05L205.61 267.05z" stroke="none" fill="#000000" fill-rule="evenodd" /><path transform="matrix(1 0 0 -1 0 841)" d="M206.09 266.57L246.65 266.57L246.65 266.57L246.65 267.05L246.65 267.05L206.09 267.05z" stroke="none" fill="#000000" fill-rule="evenodd" /><path transform="matrix(1 0 0 -1 0 841)" d="M246.65 266.57L247.13 266.57L247.13 266.57L247.13 267.05L247.13 267.05L246.65 267.05z" stroke="none" fill="#000000" fill-rule="evenodd" /><path transform="matrix(1 0 0 -1 0 841)" d="M247.13 266.57L316.13 266.57L316.13 266.57L316.13 267.05L316.13 267.05L247.13 267.05z" stroke="none" fill="#000000" fill-rule="evenodd" /><path transform="matrix(1 0 0 -1 0 841)" d="M316.13 266.57L316.61 266.57L316.61 266.57L316.61 267.05L316.61 267.05L316.13 267.05z" stroke="none" fill="#000000" fill-rule="evenodd" /><path transform="matrix(1 0 0 -1 0 841)" d="M316.61 266.57L523.54 266.57L523.54 266.57L523.54 267.05L523.54 267.05L316.61 267.05z" stroke="none" fill="#000000" fill-rule="evenodd" /><path transform="matrix(1 0 0 -1 0 841)" d="M523.54 266.57L524.02 266.57L524.02 266.57L524.02 267.05L524.02 267.05L523.54 267.05z" stroke="none" fill="#000000" fill-rule="evenodd" /><path transform="matrix(1 0 0 -1 0 841)" d="M84.264 160.1L84.744 160.1L84.744 160.1L84.744 266.56L84.744 266.56L84.264 266.56z" stroke="none" fill="#000000" fill-rule="evenodd" /><path transform="matrix(1 0 0 -1 0 841)" d="M153.62 160.1L154.1 160.1L154.1 160.1L154.1 266.56L154.1 266.56L153.62 266.56z" stroke="none" fill="#000000" fill-rule="evenodd" /><path transform="matrix(1 0 0 -1 0 841)" d="M205.61 160.1L206.09 160.1L206.09 160.1L206.09 266.56L206.09 266.56L205.61 266.56z" stroke="none" fill="#000000" fill-rule="evenodd" /><path transform="matrix(1 0 0 -1 0 841)" d="M246.65 160.1L247.13 160.1L247.13 160.1L247.13 266.56L247.13 266.56L246.65 266.56z" stroke="none" fill="#000000" fill-rule="evenodd" /><path transform="matrix(1 0 0 -1 0 841)" d="M316.13 160.1L316.61 160.1L316.61 160.1L316.61 266.56L316.61 266.56L316.13 266.56z" stroke="none" fill="#000000" fill-rule="evenodd" /><path transform="matrix(1 0 0 -1 0 841)" d="M523.54 160.1L524.02 160.1L524.02 160.1L524.02 266.56L524.02 266.56L523.54 266.56z" stroke="none" fill="#000000" fill-rule="evenodd" /><g clip-path="url(#147)"><g clip-path="url(#148)"></g><g clip-path="url(#149)"></g></g><g clip-path="url(#150)"><g clip-path="url(#151)"></g><g clip-path="url(#152)"></g></g><g clip-path="url(#153)"><g clip-path="url(#154)"></g><g clip-path="url(#155)"></g></g><g clip-path="url(#156)"><g clip-path="url(#157)"></g><g clip-path="url(#158)"></g></g><g clip-path="url(#159)"><g clip-path="url(#160)"></g><g clip-path="url(#161)"></g><g clip-path="url(#162)"></g></g><path transform="matrix(1 0 0 -1 0 841)" d="M84.264 159.62L84.744 159.62L84.744 159.62L84.744 160.1L84.744 160.1L84.264 160.1z" stroke="none" fill="#000000" fill-rule="evenodd" /><path transform="matrix(1 0 0 -1 0 841)" d="M84.744 159.62L153.624 159.62L153.624 159.62L153.624 160.1L153.624 160.1L84.744 160.1z" stroke="none" fill="#000000" fill-rule="evenodd" /><path transform="matrix(1 0 0 -1 0 841)" d="M153.62 159.62L154.1 159.62L154.1 159.62L154.1 160.1L154.1 160.1L153.62 160.1z" stroke="none" fill="#000000" fill-rule="evenodd" /><path transform="matrix(1 0 0 -1 0 841)" d="M154.1 159.62L205.604 159.62L205.604 159.62L205.604 160.1L205.604 160.1L154.1 160.1z" stroke="none" fill="#000000" fill-rule="evenodd" /><path transform="matrix(1 0 0 -1 0 841)" d="M205.61 159.62L206.09 159.62L206.09 159.62L206.09 160.1L206.09 160.1L205.61 160.1z" stroke="none" fill="#000000" fill-rule="evenodd" /><path transform="matrix(1 0 0 -1 0 841)" d="M206.09 159.62L246.65 159.62L246.65 159.62L246.65 160.1L246.65 160.1L206.09 160.1z" stroke="none" fill="#000000" fill-rule="evenodd" /><path transform="matrix(1 0 0 -1 0 841)" d="M246.65 159.62L247.13 159.62L247.13 159.62L247.13 160.1L247.13 160.1L246.65 160.1z" stroke="none" fill="#000000" fill-rule="evenodd" /><path transform="matrix(1 0 0 -1 0 841)" d="M247.13 159.62L316.13 159.62L316.13 159.62L316.13 160.1L316.13 160.1L247.13 160.1z" stroke="none" fill="#000000" fill-rule="evenodd" /><path transform="matrix(1 0 0 -1 0 841)" d="M316.13 159.62L316.61 159.62L316.61 159.62L316.61 160.1L316.61 160.1L316.13 160.1z" stroke="none" fill="#000000" fill-rule="evenodd" /><path transform="matrix(1 0 0 -1 0 841)" d="M316.61 159.62L523.54 159.62L523.54 159.62L523.54 160.1L523.54 160.1L316.61 160.1z" stroke="none" fill="#000000" fill-rule="evenodd" /><path transform="matrix(1 0 0 -1 0 841)" d="M523.54 159.62L524.02 159.62L524.02 159.62L524.02 160.1L524.02 160.1L523.54 160.1z" stroke="none" fill="#000000" fill-rule="evenodd" /><path transform="matrix(1 0 0 -1 0 841)" d="M84.264 119.06L84.744 119.06L84.744 119.06L84.744 159.62L84.744 159.62L84.264 159.62z" stroke="none" fill="#000000" fill-rule="evenodd" /><path transform="matrix(1 0 0 -1 0 841)" d="M153.62 119.06L154.1 119.06L154.1 119.06L154.1 159.62L154.1 159.62L153.62 159.62z" stroke="none" fill="#000000" fill-rule="evenodd" /><path transform="matrix(1 0 0 -1 0 841)" d="M205.61 119.06L206.09 119.06L206.09 119.06L206.09 159.62L206.09 159.62L205.61 159.62z" stroke="none" fill="#000000" fill-rule="evenodd" /><path transform="matrix(1 0 0 -1 0 841)" d="M246.65 119.06L247.13 119.06L247.13 119.06L247.13 159.62L247.13 159.62L246.65 159.62z" stroke="none" fill="#000000" fill-rule="evenodd" /><path transform="matrix(1 0 0 -1 0 841)" d="M316.13 119.06L316.61 119.06L316.61 119.06L316.61 159.62L316.61 159.62L316.13 159.62z" stroke="none" fill="#000000" fill-rule="evenodd" /><path transform="matrix(1 0 0 -1 0 841)" d="M523.54 119.06L524.02 119.06L524.02 119.06L524.02 159.62L524.02 159.62L523.54 159.62z" stroke="none" fill="#000000" fill-rule="evenodd" /><path transform="matrix(1 0 0 -1 0 841)" d="M84.744 93.504L153.624 93.504L153.624 93.504L153.624 118.584L153.624 118.584L84.744 118.584z" stroke="none" fill="#DAEEF3" fill-rule="evenodd" /><g clip-path="url(#163)"><path transform="matrix(1 0 0 -1 0 841)" d="M89.904 93.984L148.464 93.984L148.464 93.984L148.464 118.104L148.464 118.104L89.904 118.104z" stroke="none" fill="#DAEEF3" fill-rule="evenodd" /><g clip-path="url(#164)"></g><g clip-path="url(#165)"></g></g><path transform="matrix(1 0 0 -1 0 841)" d="M154.1 93.504L205.604 93.504L205.604 93.504L205.604 118.584L205.604 118.584L154.1 118.584z" stroke="none" fill="#DAEEF3" fill-rule="evenodd" /><g clip-path="url(#166)"><path transform="matrix(1 0 0 -1 0 841)" d="M159.26 93.984L200.42 93.984L200.42 93.984L200.42 118.104L200.42 118.104L159.26 118.104z" stroke="none" fill="#DAEEF3" fill-rule="evenodd" /><g clip-path="url(#167)"></g><g clip-path="url(#168)"></g></g><path transform="matrix(1 0 0 -1 0 841)" d="M206.09 93.504L246.65 93.504L246.65 93.504L246.65 118.584L246.65 118.584L206.09 118.584z" stroke="none" fill="#DAEEF3" fill-rule="evenodd" /><g clip-path="url(#169)"><path transform="matrix(1 0 0 -1 0 841)" d="M211.25 93.504L241.49 93.504L241.49 93.504L241.49 118.584L241.49 118.584L211.25 118.584z" stroke="none" fill="#DAEEF3" fill-rule="evenodd" /><g clip-path="url(#170)"></g><g clip-path="url(#171)"></g></g><path transform="matrix(1 0 0 -1 0 841)" d="M247.13 93.504L316.13 93.504L316.13 93.504L316.13 118.584L316.13 118.584L247.13 118.584z" stroke="none" fill="#DAEEF3" fill-rule="evenodd" /><g clip-path="url(#172)"><path transform="matrix(1 0 0 -1 0 841)" d="M252.29 93.984L310.97 93.984L310.97 93.984L310.97 118.104L310.97 118.104L252.29 118.104z" stroke="none" fill="#DAEEF3" fill-rule="evenodd" /><g clip-path="url(#173)"></g><g clip-path="url(#174)"></g></g><path transform="matrix(1 0 0 -1 0 841)" d="M316.61 93.504L523.54 93.504L523.54 93.504L523.54 118.584L523.54 118.584L316.61 118.584z" stroke="none" fill="#DAEEF3" fill-rule="evenodd" /><g clip-path="url(#175)"><path transform="matrix(1 0 0 -1 0 841)" d="M321.77 93.504L518.38 93.504L518.38 93.504L518.38 118.584L518.38 118.584L321.77 118.584z" stroke="none" fill="#DAEEF3" fill-rule="evenodd" /><g clip-path="url(#176)"></g><g clip-path="url(#177)"></g><g clip-path="url(#178)"></g></g><path transform="matrix(1 0 0 -1 0 841)" d="M84.264 118.58L84.744 118.58L84.744 118.58L84.744 119.06L84.744 119.06L84.264 119.06z" stroke="none" fill="#000000" fill-rule="evenodd" /><path transform="matrix(1 0 0 -1 0 841)" d="M84.744 118.58L153.624 118.58L153.624 118.58L153.624 119.06L153.624 119.06L84.744 119.06z" stroke="none" fill="#000000" fill-rule="evenodd" /><path transform="matrix(1 0 0 -1 0 841)" d="M153.62 118.58L154.1 118.58L154.1 118.58L154.1 119.06L154.1 119.06L153.62 119.06z" stroke="none" fill="#000000" fill-rule="evenodd" /><path transform="matrix(1 0 0 -1 0 841)" d="M154.1 118.58L205.604 118.58L205.604 118.58L205.604 119.06L205.604 119.06L154.1 119.06z" stroke="none" fill="#000000" fill-rule="evenodd" /><path transform="matrix(1 0 0 -1 0 841)" d="M205.61 118.58L206.09 118.58L206.09 118.58L206.09 119.06L206.09 119.06L205.61 119.06z" stroke="none" fill="#000000" fill-rule="evenodd" /><path transform="matrix(1 0 0 -1 0 841)" d="M206.09 118.58L246.65 118.58L246.65 118.58L246.65 119.06L246.65 119.06L206.09 119.06z" stroke="none" fill="#000000" fill-rule="evenodd" /><path transform="matrix(1 0 0 -1 0 841)" d="M246.65 118.58L247.13 118.58L247.13 118.58L247.13 119.06L247.13 119.06L246.65 119.06z" stroke="none" fill="#000000" fill-rule="evenodd" /><path transform="matrix(1 0 0 -1 0 841)" d="M247.13 118.58L316.13 118.58L316.13 118.58L316.13 119.06L316.13 119.06L247.13 119.06z" stroke="none" fill="#000000" fill-rule="evenodd" /><path transform="matrix(1 0 0 -1 0 841)" d="M316.13 118.58L316.61 118.58L316.61 118.58L316.61 119.06L316.61 119.06L316.13 119.06z" stroke="none" fill="#000000" fill-rule="evenodd" /><path transform="matrix(1 0 0 -1 0 841)" d="M316.61 118.58L523.54 118.58L523.54 118.58L523.54 119.06L523.54 119.06L316.61 119.06z" stroke="none" fill="#000000" fill-rule="evenodd" /><path transform="matrix(1 0 0 -1 0 841)" d="M523.54 118.58L524.02 118.58L524.02 118.58L524.02 119.06L524.02 119.06L523.54 119.06z" stroke="none" fill="#000000" fill-rule="evenodd" /><path transform="matrix(1 0 0 -1 0 841)" d="M84.264 93.504L84.744 93.504L84.744 93.504L84.744 118.584L84.744 118.584L84.264 118.584z" stroke="none" fill="#000000" fill-rule="evenodd" /><path transform="matrix(1 0 0 -1 0 841)" d="M84.264 93.024L84.744 93.024L84.744 93.024L84.744 93.50398L84.744 93.50398L84.264 93.50398z" stroke="none" fill="#000000" fill-rule="evenodd" /><path transform="matrix(1 0 0 -1 0 841)" d="M84.264 93.024L84.744 93.024L84.744 93.024L84.744 93.50398L84.744 93.50398L84.264 93.50398z" stroke="none" fill="#000000" fill-rule="evenodd" /><path transform="matrix(1 0 0 -1 0 841)" d="M84.744 93.024L153.624 93.024L153.624 93.024L153.624 93.50398L153.624 93.50398L84.744 93.50398z" stroke="none" fill="#000000" fill-rule="evenodd" /><path transform="matrix(1 0 0 -1 0 841)" d="M153.62 93.504L154.1 93.504L154.1 93.504L154.1 118.584L154.1 118.584L153.62 118.584z" stroke="none" fill="#000000" fill-rule="evenodd" /><path transform="matrix(1 0 0 -1 0 841)" d="M153.62 93.024L154.1 93.024L154.1 93.024L154.1 93.50398L154.1 93.50398L153.62 93.50398z" stroke="none" fill="#000000" fill-rule="evenodd" /><path transform="matrix(1 0 0 -1 0 841)" d="M154.1 93.024L205.604 93.024L205.604 93.024L205.604 93.50398L205.604 93.50398L154.1 93.50398z" stroke="none" fill="#000000" fill-rule="evenodd" /><path transform="matrix(1 0 0 -1 0 841)" d="M205.61 93.504L206.09 93.504L206.09 93.504L206.09 118.584L206.09 118.584L205.61 118.584z" stroke="none" fill="#000000" fill-rule="evenodd" /><path transform="matrix(1 0 0 -1 0 841)" d="M205.61 93.024L206.09 93.024L206.09 93.024L206.09 93.50398L206.09 93.50398L205.61 93.50398z" stroke="none" fill="#000000" fill-rule="evenodd" /><path transform="matrix(1 0 0 -1 0 841)" d="M206.09 93.024L246.65 93.024L246.65 93.024L246.65 93.50398L246.65 93.50398L206.09 93.50398z" stroke="none" fill="#000000" fill-rule="evenodd" /><path transform="matrix(1 0 0 -1 0 841)" d="M246.65 93.504L247.13 93.504L247.13 93.504L247.13 118.584L247.13 118.584L246.65 118.584z" stroke="none" fill="#000000" fill-rule="evenodd" /><path transform="matrix(1 0 0 -1 0 841)" d="M246.65 93.024L247.13 93.024L247.13 93.024L247.13 93.50398L247.13 93.50398L246.65 93.50398z" stroke="none" fill="#000000" fill-rule="evenodd" /><path transform="matrix(1 0 0 -1 0 841)" d="M247.13 93.024L316.13 93.024L316.13 93.024L316.13 93.50398L316.13 93.50398L247.13 93.50398z" stroke="none" fill="#000000" fill-rule="evenodd" /><path transform="matrix(1 0 0 -1 0 841)" d="M316.13 93.504L316.61 93.504L316.61 93.504L316.61 118.584L316.61 118.584L316.13 118.584z" stroke="none" fill="#000000" fill-rule="evenodd" /><path transform="matrix(1 0 0 -1 0 841)" d="M316.13 93.024L316.61 93.024L316.61 93.024L316.61 93.50398L316.61 93.50398L316.13 93.50398z" stroke="none" fill="#000000" fill-rule="evenodd" /><path transform="matrix(1 0 0 -1 0 841)" d="M316.61 93.024L523.54 93.024L523.54 93.024L523.54 93.50398L523.54 93.50398L316.61 93.50398z" stroke="none" fill="#000000" fill-rule="evenodd" /><path transform="matrix(1 0 0 -1 0 841)" d="M523.54 93.504L524.02 93.504L524.02 93.504L524.02 118.584L524.02 118.584L523.54 118.584z" stroke="none" fill="#000000" fill-rule="evenodd" /><path transform="matrix(1 0 0 -1 0 841)" d="M523.54 93.024L524.02 93.024L524.02 93.024L524.02 93.50398L524.02 93.50398L523.54 93.50398z" stroke="none" fill="#000000" fill-rule="evenodd" /><path transform="matrix(1 0 0 -1 0 841)" d="M523.54 93.024L524.02 93.024L524.02 93.024L524.02 93.50398L524.02 93.50398L523.54 93.50398z" stroke="none" fill="#000000" fill-rule="evenodd" /></g></g></g></svg>