<svg xmlns="http://www.w3.org/2000/svg" xmlns:xlink="http://www.w3.org/1999/xlink" id="body_34" preserveAspectRatio="xMinYMin meet" viewBox="0 0 793 1121"><defs><clipPath id="1"><path d="M0 841L0 -0.9199829L0 -0.9199829L595.32 -0.9199829L595.32 -0.9199829L595.32 841L595.32 841L0 841z" /></clipPath><clipPath id="2"><path d="M0.00125 841.0914L595.4112 841.0914L595.4112 841.0914L595.4112 -0.9186401L595.4112 -0.9186401L0.00125 -0.9186401z" /></clipPath><clipPath id="3"><path d="M295.13 780.251L305.21 780.251L305.21 780.251L305.21 768.011L305.21 768.011L295.13 768.011z" /></clipPath><clipPath id="4"><path d="M295.13 780.256L305.21 780.256L305.21 780.256L305.21 768.016L305.21 768.016L295.13 768.016z" /></clipPath><clipPath id="5"><path d="M295.13 780.256L305.21 780.256L305.21 780.256L305.21 768.016L305.21 768.016L295.13 768.016z" /></clipPath><clipPath id="6"><path d="M84.751 271.63L171.391 271.63L171.391 271.63L171.391 246.55L171.391 246.55L84.751 246.55z" /></clipPath><clipPath id="7"><path d="M84.744 271.62L171.384 271.62L171.384 271.62L171.384 246.54L171.384 246.54L84.744 246.54z" /></clipPath><clipPath id="8"><path d="M84.744 271.62L171.384 271.62L171.384 271.62L171.384 246.54L171.384 246.54L84.744 246.54z" /></clipPath><clipPath id="9"><path d="M171.87 271.63L216.885 271.63L216.885 271.63L216.885 246.55L216.885 246.55L171.87 246.55z" /></clipPath><clipPath id="10"><path d="M171.86 271.62L216.884 271.62L216.884 271.62L216.884 246.54L216.884 246.54L171.86 246.54z" /></clipPath><clipPath id="11"><path d="M171.86 271.62L216.884 271.62L216.884 271.62L216.884 246.54L216.884 246.54L171.86 246.54z" /></clipPath><clipPath id="12"><path d="M217.37 271.63L259.85 271.63L259.85 271.63L259.85 246.55L259.85 246.55L217.37 246.55z" /></clipPath><clipPath id="13"><path d="M217.37 271.62L259.85 271.62L259.85 271.62L259.85 246.54L259.85 246.54L217.37 246.54z" /></clipPath><clipPath id="14"><path d="M217.37 271.62L259.85 271.62L259.85 271.62L259.85 246.54L259.85 246.54L217.37 246.54z" /></clipPath><clipPath id="15"><path d="M260.33 271.63L316.49 271.63L316.49 271.63L316.49 246.55L316.49 246.55L260.33 246.55z" /></clipPath><clipPath id="16"><path d="M260.33 271.62L316.49 271.62L316.49 271.62L316.49 246.54L316.49 246.54L260.33 246.54z" /></clipPath><clipPath id="17"><path d="M260.33 271.62L316.49 271.62L316.49 271.62L316.49 246.54L316.49 246.54L260.33 246.54z" /></clipPath><clipPath id="18"><path d="M316.97 271.63L510.7 271.63L510.7 271.63L510.7 246.55L510.7 246.55L316.97 246.55z" /></clipPath><clipPath id="19"><path d="M316.97 271.62L510.7 271.62L510.7 271.62L510.7 246.54L510.7 246.54L316.97 246.54z" /></clipPath><clipPath id="20"><path d="M316.97 271.62L510.7 271.62L510.7 271.62L510.7 246.54L510.7 246.54L316.97 246.54z" /></clipPath><clipPath id="21"><path d="M84.751 419.13L171.391 419.13L171.391 419.13L171.391 272.23L171.391 272.23L84.751 272.23z" /></clipPath><clipPath id="22"><path d="M84.744 419.13L171.384 419.13L171.384 419.13L171.384 272.23L171.384 272.23L84.744 272.23z" /></clipPath><clipPath id="23"><path d="M84.744 419.13L171.384 419.13L171.384 419.13L171.384 272.23L171.384 272.23L84.744 272.23z" /></clipPath><clipPath id="24"><path d="M171.87 419.13L216.885 419.13L216.885 419.13L216.885 272.23L216.885 272.23L171.87 272.23z" /></clipPath><clipPath id="25"><path d="M171.86 419.13L216.884 419.13L216.884 419.13L216.884 272.23L216.884 272.23L171.86 272.23z" /></clipPath><clipPath id="26"><path d="M171.86 419.13L216.884 419.13L216.884 419.13L216.884 272.23L216.884 272.23L171.86 272.23z" /></clipPath><clipPath id="27"><path d="M217.37 419.13L259.85 419.13L259.85 419.13L259.85 272.23L259.85 272.23L217.37 272.23z" /></clipPath><clipPath id="28"><path d="M217.37 419.13L259.85 419.13L259.85 419.13L259.85 272.23L259.85 272.23L217.37 272.23z" /></clipPath><clipPath id="29"><path d="M217.37 419.13L259.85 419.13L259.85 419.13L259.85 272.23L259.85 272.23L217.37 272.23z" /></clipPath><clipPath id="30"><path d="M260.33 419.13L316.49 419.13L316.49 419.13L316.49 272.23L316.49 272.23L260.33 272.23z" /></clipPath><clipPath id="31"><path d="M260.33 419.13L316.49 419.13L316.49 419.13L316.49 272.23L316.49 272.23L260.33 272.23z" /></clipPath><clipPath id="32"><path d="M260.33 419.13L316.49 419.13L316.49 419.13L316.49 272.23L316.49 272.23L260.33 272.23z" /></clipPath><clipPath id="33"><path d="M316.97 419.13L510.7 419.13L510.7 419.13L510.7 272.23L510.7 272.23L316.97 272.23z" /></clipPath><clipPath id="34"><path d="M316.97 419.13L510.7 419.13L510.7 419.13L510.7 272.23L510.7 272.23L316.97 272.23z" /></clipPath><clipPath id="35"><path d="M316.97 419.13L510.7 419.13L510.7 419.13L510.7 272.23L510.7 272.23L316.97 272.23z" /></clipPath><clipPath id="36"><path d="M316.97 419.13L510.7 419.13L510.7 419.13L510.7 272.23L510.7 272.23L316.97 272.23z" /></clipPath><clipPath id="37"><path d="M316.97 419.13L510.7 419.13L510.7 419.13L510.7 272.23L510.7 272.23L316.97 272.23z" /></clipPath><clipPath id="38"><path d="M316.97 419.13L510.7 419.13L510.7 419.13L510.7 272.23L510.7 272.23L316.97 272.23z" /></clipPath><clipPath id="39"><path d="M316.97 419.13L510.7 419.13L510.7 419.13L510.7 272.23L510.7 272.23L316.97 272.23z" /></clipPath><clipPath id="40"><path d="M316.97 419.13L510.7 419.13L510.7 419.13L510.7 272.23L510.7 272.23L316.97 272.23z" /></clipPath><clipPath id="41"><path d="M316.97 419.13L510.7 419.13L510.7 419.13L510.7 272.23L510.7 272.23L316.97 272.23z" /></clipPath><clipPath id="42"><path d="M316.97 419.13L510.7 419.13L510.7 419.13L510.7 272.23L510.7 272.23L316.97 272.23z" /></clipPath><clipPath id="43"><path d="M316.97 419.13L510.7 419.13L510.7 419.13L510.7 272.23L510.7 272.23L316.97 272.23z" /></clipPath><clipPath id="44"><path d="M316.97 419.13L510.7 419.13L510.7 419.13L510.7 272.23L510.7 272.23L316.97 272.23z" /></clipPath><clipPath id="45"><path d="M316.97 419.13L510.7 419.13L510.7 419.13L510.7 272.23L510.7 272.23L316.97 272.23z" /></clipPath><clipPath id="46"><path d="M316.97 419.13L510.7 419.13L510.7 419.13L510.7 272.23L510.7 272.23L316.97 272.23z" /></clipPath><clipPath id="47"><path d="M316.97 419.13L510.7 419.13L510.7 419.13L510.7 272.23L510.7 272.23L316.97 272.23z" /></clipPath><clipPath id="48"><path d="M316.97 419.13L510.7 419.13L510.7 419.13L510.7 272.23L510.7 272.23L316.97 272.23z" /></clipPath><clipPath id="49"><path d="M316.97 419.13L510.7 419.13L510.7 419.13L510.7 272.23L510.7 272.23L316.97 272.23z" /></clipPath><clipPath id="50"><path d="M316.97 419.13L510.7 419.13L510.7 419.13L510.7 272.23L510.7 272.23L316.97 272.23z" /></clipPath><clipPath id="51"><path d="M316.97 419.13L510.7 419.13L510.7 419.13L510.7 272.23L510.7 272.23L316.97 272.23z" /></clipPath><clipPath id="52"><path d="M316.97 419.13L510.7 419.13L510.7 419.13L510.7 272.23L510.7 272.23L316.97 272.23z" /></clipPath><clipPath id="53"><path d="M316.97 419.13L510.7 419.13L510.7 419.13L510.7 272.23L510.7 272.23L316.97 272.23z" /></clipPath><clipPath id="54"><path d="M316.97 419.13L510.7 419.13L510.7 419.13L510.7 272.23L510.7 272.23L316.97 272.23z" /></clipPath><clipPath id="55"><path d="M316.97 419.13L510.7 419.13L510.7 419.13L510.7 272.23L510.7 272.23L316.97 272.23z" /></clipPath><clipPath id="56"><path d="M316.97 419.13L510.7 419.13L510.7 419.13L510.7 272.23L510.7 272.23L316.97 272.23z" /></clipPath><clipPath id="57"><path d="M316.97 419.13L510.7 419.13L510.7 419.13L510.7 272.23L510.7 272.23L316.97 272.23z" /></clipPath><clipPath id="58"><path d="M316.97 419.13L510.7 419.13L510.7 419.13L510.7 272.23L510.7 272.23L316.97 272.23z" /></clipPath><clipPath id="59"><path d="M316.97 419.13L510.7 419.13L510.7 419.13L510.7 272.23L510.7 272.23L316.97 272.23z" /></clipPath><clipPath id="60"><path d="M316.97 419.13L510.7 419.13L510.7 419.13L510.7 272.23L510.7 272.23L316.97 272.23z" /></clipPath><clipPath id="61"><path d="M316.97 419.13L510.7 419.13L510.7 419.13L510.7 272.23L510.7 272.23L316.97 272.23z" /></clipPath><clipPath id="62"><path d="M316.97 419.13L510.7 419.13L510.7 419.13L510.7 272.23L510.7 272.23L316.97 272.23z" /></clipPath><clipPath id="63"><path d="M316.97 419.13L510.7 419.13L510.7 419.13L510.7 272.23L510.7 272.23L316.97 272.23z" /></clipPath><clipPath id="64"><path d="M316.97 419.13L510.7 419.13L510.7 419.13L510.7 272.23L510.7 272.23L316.97 272.23z" /></clipPath><clipPath id="65"><path d="M316.97 419.13L510.7 419.13L510.7 419.13L510.7 272.23L510.7 272.23L316.97 272.23z" /></clipPath><clipPath id="66"><path d="M316.97 419.13L510.7 419.13L510.7 419.13L510.7 272.23L510.7 272.23L316.97 272.23z" /></clipPath><clipPath id="67"><path d="M316.97 419.13L510.7 419.13L510.7 419.13L510.7 272.23L510.7 272.23L316.97 272.23z" /></clipPath><clipPath id="68"><path d="M316.97 419.13L510.7 419.13L510.7 419.13L510.7 272.23L510.7 272.23L316.97 272.23z" /></clipPath><clipPath id="69"><path d="M84.751 460.29L171.391 460.29L171.391 460.29L171.391 419.61L171.391 419.61L84.751 419.61z" /></clipPath><clipPath id="70"><path d="M84.744 460.29L171.384 460.29L171.384 460.29L171.384 419.61L171.384 419.61L84.744 419.61z" /></clipPath><clipPath id="71"><path d="M84.744 460.29L171.384 460.29L171.384 460.29L171.384 419.61L171.384 419.61L84.744 419.61z" /></clipPath><clipPath id="72"><path d="M171.87 460.29L216.885 460.29L216.885 460.29L216.885 419.61L216.885 419.61L171.87 419.61z" /></clipPath><clipPath id="73"><path d="M171.86 460.29L216.884 460.29L216.884 460.29L216.884 419.61L216.884 419.61L171.86 419.61z" /></clipPath><clipPath id="74"><path d="M171.86 460.29L216.884 460.29L216.884 460.29L216.884 419.61L216.884 419.61L171.86 419.61z" /></clipPath><clipPath id="75"><path d="M217.37 460.29L259.85 460.29L259.85 460.29L259.85 419.61L259.85 419.61L217.37 419.61z" /></clipPath><clipPath id="76"><path d="M217.37 460.29L259.85 460.29L259.85 460.29L259.85 419.61L259.85 419.61L217.37 419.61z" /></clipPath><clipPath id="77"><path d="M217.37 460.29L259.85 460.29L259.85 460.29L259.85 419.61L259.85 419.61L217.37 419.61z" /></clipPath><clipPath id="78"><path d="M260.33 460.29L316.49 460.29L316.49 460.29L316.49 419.61L316.49 419.61L260.33 419.61z" /></clipPath><clipPath id="79"><path d="M260.33 460.29L316.49 460.29L316.49 460.29L316.49 419.61L316.49 419.61L260.33 419.61z" /></clipPath><clipPath id="80"><path d="M260.33 460.29L316.49 460.29L316.49 460.29L316.49 419.61L316.49 419.61L260.33 419.61z" /></clipPath><clipPath id="81"><path d="M316.97 460.29L510.7 460.29L510.7 460.29L510.7 419.61L510.7 419.61L316.97 419.61z" /></clipPath><clipPath id="82"><path d="M316.97 460.29L510.7 460.29L510.7 460.29L510.7 419.61L510.7 419.61L316.97 419.61z" /></clipPath><clipPath id="83"><path d="M316.97 460.29L510.7 460.29L510.7 460.29L510.7 419.61L510.7 419.61L316.97 419.61z" /></clipPath><clipPath id="84"><path d="M316.97 460.29L510.7 460.29L510.7 460.29L510.7 419.61L510.7 419.61L316.97 419.61z" /></clipPath><clipPath id="85"><path d="M316.97 460.29L510.7 460.29L510.7 460.29L510.7 419.61L510.7 419.61L316.97 419.61z" /></clipPath><clipPath id="86"><path d="M316.97 460.29L510.7 460.29L510.7 460.29L510.7 419.61L510.7 419.61L316.97 419.61z" /></clipPath><clipPath id="87"><path d="M316.97 460.29L510.7 460.29L510.7 460.29L510.7 419.61L510.7 419.61L316.97 419.61z" /></clipPath><clipPath id="88"><path d="M316.97 460.29L510.7 460.29L510.7 460.29L510.7 419.61L510.7 419.61L316.97 419.61z" /></clipPath><clipPath id="89"><path d="M316.97 460.29L510.7 460.29L510.7 460.29L510.7 419.61L510.7 419.61L316.97 419.61z" /></clipPath><clipPath id="90"><path d="M316.97 460.29L510.7 460.29L510.7 460.29L510.7 419.61L510.7 419.61L316.97 419.61z" /></clipPath><clipPath id="91"><path d="M84.751 521.76L171.391 521.76L171.391 521.76L171.391 460.77L171.391 460.77L84.751 460.77z" /></clipPath><clipPath id="92"><path d="M84.744 521.75L171.384 521.75L171.384 521.75L171.384 460.766L171.384 460.766L84.744 460.766z" /></clipPath><clipPath id="93"><path d="M84.744 521.75L171.384 521.75L171.384 521.75L171.384 460.766L171.384 460.766L84.744 460.766z" /></clipPath><clipPath id="94"><path d="M171.87 521.76L216.885 521.76L216.885 521.76L216.885 460.77L216.885 460.77L171.87 460.77z" /></clipPath><clipPath id="95"><path d="M171.86 521.75L216.884 521.75L216.884 521.75L216.884 460.766L216.884 460.766L171.86 460.766z" /></clipPath><clipPath id="96"><path d="M171.86 521.75L216.884 521.75L216.884 521.75L216.884 460.766L216.884 460.766L171.86 460.766z" /></clipPath><clipPath id="97"><path d="M217.37 521.76L259.85 521.76L259.85 521.76L259.85 460.77L259.85 460.77L217.37 460.77z" /></clipPath><clipPath id="98"><path d="M217.37 521.75L259.85 521.75L259.85 521.75L259.85 460.766L259.85 460.766L217.37 460.766z" /></clipPath><clipPath id="99"><path d="M217.37 521.75L259.85 521.75L259.85 521.75L259.85 460.766L259.85 460.766L217.37 460.766z" /></clipPath><clipPath id="100"><path d="M260.33 521.76L316.49 521.76L316.49 521.76L316.49 460.77L316.49 460.77L260.33 460.77z" /></clipPath><clipPath id="101"><path d="M260.33 521.75L316.49 521.75L316.49 521.75L316.49 460.766L316.49 460.766L260.33 460.766z" /></clipPath><clipPath id="102"><path d="M316.97 521.76L510.7 521.76L510.7 521.76L510.7 460.77L510.7 460.77L316.97 460.77z" /></clipPath><clipPath id="103"><path d="M316.97 521.75L510.7 521.75L510.7 521.75L510.7 460.766L510.7 460.766L316.97 460.766z" /></clipPath><clipPath id="104"><path d="M316.97 521.75L510.7 521.75L510.7 521.75L510.7 460.766L510.7 460.766L316.97 460.766z" /></clipPath><clipPath id="105"><path d="M316.97 521.75L510.7 521.75L510.7 521.75L510.7 460.766L510.7 460.766L316.97 460.766z" /></clipPath><clipPath id="106"><path d="M316.97 521.75L510.7 521.75L510.7 521.75L510.7 460.766L510.7 460.766L316.97 460.766z" /></clipPath><clipPath id="107"><path d="M316.97 521.75L510.7 521.75L510.7 521.75L510.7 460.766L510.7 460.766L316.97 460.766z" /></clipPath><clipPath id="108"><path d="M316.97 521.75L510.7 521.75L510.7 521.75L510.7 460.766L510.7 460.766L316.97 460.766z" /></clipPath><clipPath id="109"><path d="M316.97 521.75L510.7 521.75L510.7 521.75L510.7 460.766L510.7 460.766L316.97 460.766z" /></clipPath><clipPath id="110"><path d="M316.97 521.75L510.7 521.75L510.7 521.75L510.7 460.766L510.7 460.766L316.97 460.766z" /></clipPath><clipPath id="111"><path d="M84.751 581.88L171.391 581.88L171.391 581.88L171.391 522.24L171.391 522.24L84.751 522.24z" /></clipPath><clipPath id="112"><path d="M84.744 581.87L171.384 581.87L171.384 581.87L171.384 522.23L171.384 522.23L84.744 522.23z" /></clipPath><clipPath id="113"><path d="M84.744 581.87L171.384 581.87L171.384 581.87L171.384 522.23L171.384 522.23L84.744 522.23z" /></clipPath><clipPath id="114"><path d="M171.87 581.88L216.885 581.88L216.885 581.88L216.885 522.24L216.885 522.24L171.87 522.24z" /></clipPath><clipPath id="115"><path d="M171.86 581.87L216.884 581.87L216.884 581.87L216.884 522.23L216.884 522.23L171.86 522.23z" /></clipPath><clipPath id="116"><path d="M171.86 581.87L216.884 581.87L216.884 581.87L216.884 522.23L216.884 522.23L171.86 522.23z" /></clipPath><clipPath id="117"><path d="M217.37 581.88L259.85 581.88L259.85 581.88L259.85 522.24L259.85 522.24L217.37 522.24z" /></clipPath><clipPath id="118"><path d="M217.37 581.87L259.85 581.87L259.85 581.87L259.85 522.23L259.85 522.23L217.37 522.23z" /></clipPath><clipPath id="119"><path d="M217.37 581.87L259.85 581.87L259.85 581.87L259.85 522.23L259.85 522.23L217.37 522.23z" /></clipPath><clipPath id="120"><path d="M260.33 581.88L316.49 581.88L316.49 581.88L316.49 522.24L316.49 522.24L260.33 522.24z" /></clipPath><clipPath id="121"><path d="M260.33 581.87L316.49 581.87L316.49 581.87L316.49 522.23L316.49 522.23L260.33 522.23z" /></clipPath><clipPath id="122"><path d="M316.97 581.88L510.7 581.88L510.7 581.88L510.7 522.24L510.7 522.24L316.97 522.24z" /></clipPath><clipPath id="123"><path d="M316.97 581.87L510.7 581.87L510.7 581.87L510.7 522.23L510.7 522.23L316.97 522.23z" /></clipPath><clipPath id="124"><path d="M316.97 581.87L510.7 581.87L510.7 581.87L510.7 522.23L510.7 522.23L316.97 522.23z" /></clipPath><clipPath id="125"><path d="M316.97 581.87L510.7 581.87L510.7 581.87L510.7 522.23L510.7 522.23L316.97 522.23z" /></clipPath><clipPath id="126"><path d="M316.97 581.87L510.7 581.87L510.7 581.87L510.7 522.23L510.7 522.23L316.97 522.23z" /></clipPath><clipPath id="127"><path d="M316.97 581.87L510.7 581.87L510.7 581.87L510.7 522.23L510.7 522.23L316.97 522.23z" /></clipPath><clipPath id="128"><path d="M316.97 581.87L510.7 581.87L510.7 581.87L510.7 522.23L510.7 522.23L316.97 522.23z" /></clipPath><clipPath id="129"><path d="M316.97 581.87L510.7 581.87L510.7 581.87L510.7 522.23L510.7 522.23L316.97 522.23z" /></clipPath><clipPath id="130"><path d="M316.97 581.87L510.7 581.87L510.7 581.87L510.7 522.23L510.7 522.23L316.97 522.23z" /></clipPath><clipPath id="131"><path d="M84.751 607.44L171.391 607.44L171.391 607.44L171.391 582.36L171.391 582.36L84.751 582.36z" /></clipPath><clipPath id="132"><path d="M84.744 607.43L171.384 607.43L171.384 607.43L171.384 582.35L171.384 582.35L84.744 582.35z" /></clipPath><clipPath id="133"><path d="M84.744 607.43L171.384 607.43L171.384 607.43L171.384 582.35L171.384 582.35L84.744 582.35z" /></clipPath><clipPath id="134"><path d="M171.87 607.44L216.885 607.44L216.885 607.44L216.885 582.36L216.885 582.36L171.87 582.36z" /></clipPath><clipPath id="135"><path d="M171.86 607.43L216.884 607.43L216.884 607.43L216.884 582.35L216.884 582.35L171.86 582.35z" /></clipPath><clipPath id="136"><path d="M171.86 607.43L216.884 607.43L216.884 607.43L216.884 582.35L216.884 582.35L171.86 582.35z" /></clipPath><clipPath id="137"><path d="M217.37 607.44L259.85 607.44L259.85 607.44L259.85 582.36L259.85 582.36L217.37 582.36z" /></clipPath><clipPath id="138"><path d="M217.37 607.43L259.85 607.43L259.85 607.43L259.85 582.35L259.85 582.35L217.37 582.35z" /></clipPath><clipPath id="139"><path d="M217.37 607.43L259.85 607.43L259.85 607.43L259.85 582.35L259.85 582.35L217.37 582.35z" /></clipPath><clipPath id="140"><path d="M260.33 607.44L316.49 607.44L316.49 607.44L316.49 582.36L316.49 582.36L260.33 582.36z" /></clipPath><clipPath id="141"><path d="M260.33 607.43L316.49 607.43L316.49 607.43L316.49 582.35L316.49 582.35L260.33 582.35z" /></clipPath><clipPath id="142"><path d="M316.97 607.44L510.7 607.44L510.7 607.44L510.7 582.36L510.7 582.36L316.97 582.36z" /></clipPath><clipPath id="143"><path d="M316.97 607.43L510.7 607.43L510.7 607.43L510.7 582.35L510.7 582.35L316.97 582.35z" /></clipPath><clipPath id="144"><path d="M316.97 607.43L510.7 607.43L510.7 607.43L510.7 582.35L510.7 582.35L316.97 582.35z" /></clipPath></defs><g transform="matrix(1.333333 0 0 1.333333 0 0)"><g><g clip-path="url(#1)"><path transform="matrix(1 0 0 -1 0 841)" d="M457.63 53.424L505.534 53.424L505.534 53.424L505.534 54.02404L505.534 54.02404L457.63 54.02404z" stroke="none" fill="#000000" fill-rule="evenodd" /><g clip-path="url(#2)"><path transform="matrix(1 0 0 -1 0 841)" d="M88.464 78.984L506.974 78.984L506.974 78.984L506.974 81.984L506.974 81.984L88.464 81.984z" stroke="none" fill="#000000" fill-rule="evenodd" /><path transform="matrix(1 0 0 -1 0 841)" d="M88.464 77.544L506.974 77.544L506.974 77.544L506.974 78.26397L506.974 78.26397L88.464 78.26397z" stroke="none" fill="#000000" fill-rule="evenodd" /></g><g clip-path="url(#3)"><g clip-path="url(#4)"></g><g clip-path="url(#5)"></g></g><path transform="matrix(1 0 0 -1 0 841)" d="M84.744 569.38L171.384 569.38L171.384 569.38L171.384 594.46L171.384 594.46L84.744 594.46z" stroke="none" fill="#0070C0" fill-rule="evenodd" /><g clip-path="url(#6)"><path transform="matrix(1 0 0 -1 0 841)" d="M89.904 569.38L166.224 569.38L166.224 569.38L166.224 594.46L166.224 594.46L89.904 594.46z" stroke="none" fill="#0070C0" fill-rule="evenodd" /><g clip-path="url(#7)"></g><g clip-path="url(#8)"></g></g><path transform="matrix(1 0 0 -1 0 841)" d="M171.86 569.38L216.884 569.38L216.884 569.38L216.884 594.46L216.884 594.46L171.86 594.46z" stroke="none" fill="#0070C0" fill-rule="evenodd" /><g clip-path="url(#9)"><path transform="matrix(1 0 0 -1 0 841)" d="M177.02 569.38L211.724 569.38L211.724 569.38L211.724 594.46L211.724 594.46L177.02 594.46z" stroke="none" fill="#0070C0" fill-rule="evenodd" /><g clip-path="url(#10)"></g><g clip-path="url(#11)"></g></g><path transform="matrix(1 0 0 -1 0 841)" d="M217.37 569.38L259.85 569.38L259.85 569.38L259.85 594.46L259.85 594.46L217.37 594.46z" stroke="none" fill="#0070C0" fill-rule="evenodd" /><g clip-path="url(#12)"><path transform="matrix(1 0 0 -1 0 841)" d="M222.53 569.38L254.69 569.38L254.69 569.38L254.69 594.46L254.69 594.46L222.53 594.46z" stroke="none" fill="#0070C0" fill-rule="evenodd" /><g clip-path="url(#13)"></g><g clip-path="url(#14)"></g></g><path transform="matrix(1 0 0 -1 0 841)" d="M260.33 569.38L316.49 569.38L316.49 569.38L316.49 594.46L316.49 594.46L260.33 594.46z" stroke="none" fill="#0070C0" fill-rule="evenodd" /><g clip-path="url(#15)"><path transform="matrix(1 0 0 -1 0 841)" d="M265.49 569.38L311.33 569.38L311.33 569.38L311.33 594.46L311.33 594.46L265.49 594.46z" stroke="none" fill="#0070C0" fill-rule="evenodd" /><g clip-path="url(#16)"></g><g clip-path="url(#17)"></g></g><path transform="matrix(1 0 0 -1 0 841)" d="M316.97 569.38L510.7 569.38L510.7 569.38L510.7 594.46L510.7 594.46L316.97 594.46z" stroke="none" fill="#0070C0" fill-rule="evenodd" /><g clip-path="url(#18)"><path transform="matrix(1 0 0 -1 0 841)" d="M322.13 569.38L505.54 569.38L505.54 569.38L505.54 594.46L505.54 594.46L322.13 594.46z" stroke="none" fill="#0070C0" fill-rule="evenodd" /><g clip-path="url(#19)"></g><g clip-path="url(#20)"></g></g><path transform="matrix(1 0 0 -1 0 841)" d="M84.264 594.46L84.744 594.46L84.744 594.46L84.744 594.94L84.744 594.94L84.264 594.94z" stroke="none" fill="#000000" fill-rule="evenodd" /><path transform="matrix(1 0 0 -1 0 841)" d="M84.264 594.46L84.744 594.46L84.744 594.46L84.744 594.94L84.744 594.94L84.264 594.94z" stroke="none" fill="#000000" fill-rule="evenodd" /><path transform="matrix(1 0 0 -1 0 841)" d="M84.744 594.46L171.384 594.46L171.384 594.46L171.384 594.94L171.384 594.94L84.744 594.94z" stroke="none" fill="#000000" fill-rule="evenodd" /><path transform="matrix(1 0 0 -1 0 841)" d="M171.38 594.46L171.86 594.46L171.86 594.46L171.86 594.94L171.86 594.94L171.38 594.94z" stroke="none" fill="#000000" fill-rule="evenodd" /><path transform="matrix(1 0 0 -1 0 841)" d="M171.86 594.46L216.884 594.46L216.884 594.46L216.884 594.94L216.884 594.94L171.86 594.94z" stroke="none" fill="#000000" fill-rule="evenodd" /><path transform="matrix(1 0 0 -1 0 841)" d="M216.89 594.46L217.37 594.46L217.37 594.46L217.37 594.94L217.37 594.94L216.89 594.94z" stroke="none" fill="#000000" fill-rule="evenodd" /><path transform="matrix(1 0 0 -1 0 841)" d="M217.37 594.46L259.85 594.46L259.85 594.46L259.85 594.94L259.85 594.94L217.37 594.94z" stroke="none" fill="#000000" fill-rule="evenodd" /><path transform="matrix(1 0 0 -1 0 841)" d="M259.85 594.46L260.33 594.46L260.33 594.46L260.33 594.94L260.33 594.94L259.85 594.94z" stroke="none" fill="#000000" fill-rule="evenodd" /><path transform="matrix(1 0 0 -1 0 841)" d="M260.33 594.46L316.49 594.46L316.49 594.46L316.49 594.94L316.49 594.94L260.33 594.94z" stroke="none" fill="#000000" fill-rule="evenodd" /><path transform="matrix(1 0 0 -1 0 841)" d="M316.49 594.46L316.97 594.46L316.97 594.46L316.97 594.94L316.97 594.94L316.49 594.94z" stroke="none" fill="#000000" fill-rule="evenodd" /><path transform="matrix(1 0 0 -1 0 841)" d="M316.97 594.46L510.7 594.46L510.7 594.46L510.7 594.94L510.7 594.94L316.97 594.94z" stroke="none" fill="#000000" fill-rule="evenodd" /><path transform="matrix(1 0 0 -1 0 841)" d="M510.7 594.46L511.18 594.46L511.18 594.46L511.18 594.94L511.18 594.94L510.7 594.94z" stroke="none" fill="#000000" fill-rule="evenodd" /><path transform="matrix(1 0 0 -1 0 841)" d="M510.7 594.46L511.18 594.46L511.18 594.46L511.18 594.94L511.18 594.94L510.7 594.94z" stroke="none" fill="#000000" fill-rule="evenodd" /><path transform="matrix(1 0 0 -1 0 841)" d="M84.264 569.38L84.744 569.38L84.744 569.38L84.744 594.46L84.744 594.46L84.264 594.46z" stroke="none" fill="#000000" fill-rule="evenodd" /><path transform="matrix(1 0 0 -1 0 841)" d="M171.38 569.38L171.86 569.38L171.86 569.38L171.86 594.46L171.86 594.46L171.38 594.46z" stroke="none" fill="#000000" fill-rule="evenodd" /><path transform="matrix(1 0 0 -1 0 841)" d="M216.89 569.38L217.37 569.38L217.37 569.38L217.37 594.46L217.37 594.46L216.89 594.46z" stroke="none" fill="#000000" fill-rule="evenodd" /><path transform="matrix(1 0 0 -1 0 841)" d="M259.85 569.38L260.33 569.38L260.33 569.38L260.33 594.46L260.33 594.46L259.85 594.46z" stroke="none" fill="#000000" fill-rule="evenodd" /><path transform="matrix(1 0 0 -1 0 841)" d="M316.49 569.38L316.97 569.38L316.97 569.38L316.97 594.46L316.97 594.46L316.49 594.46z" stroke="none" fill="#000000" fill-rule="evenodd" /><path transform="matrix(1 0 0 -1 0 841)" d="M510.7 569.38L511.18 569.38L511.18 569.38L511.18 594.46L511.18 594.46L510.7 594.46z" stroke="none" fill="#000000" fill-rule="evenodd" /><path transform="matrix(1 0 0 -1 0 841)" d="M84.744 421.87L171.384 421.87L171.384 421.87L171.384 568.77L171.384 568.77L84.744 568.77z" stroke="none" fill="#DAEEF3" fill-rule="evenodd" /><g clip-path="url(#21)"><path transform="matrix(1 0 0 -1 0 841)" d="M89.904 544.63L166.224 544.63L166.224 544.63L166.224 568.774L166.224 568.774L89.904 568.774z" stroke="none" fill="#DAEEF3" fill-rule="evenodd" /><g clip-path="url(#22)"></g><g clip-path="url(#23)"></g></g><path transform="matrix(1 0 0 -1 0 841)" d="M171.86 421.87L216.884 421.87L216.884 421.87L216.884 568.77L216.884 568.77L171.86 568.77z" stroke="none" fill="#DAEEF3" fill-rule="evenodd" /><g clip-path="url(#24)"><path transform="matrix(1 0 0 -1 0 841)" d="M177.02 544.63L211.724 544.63L211.724 544.63L211.724 568.774L211.724 568.774L177.02 568.774z" stroke="none" fill="#DAEEF3" fill-rule="evenodd" /><g clip-path="url(#25)"></g><g clip-path="url(#26)"></g></g><path transform="matrix(1 0 0 -1 0 841)" d="M217.37 421.87L259.85 421.87L259.85 421.87L259.85 568.77L259.85 568.77L217.37 568.77z" stroke="none" fill="#DAEEF3" fill-rule="evenodd" /><g clip-path="url(#27)"><path transform="matrix(1 0 0 -1 0 841)" d="M222.53 543.79L254.69 543.79L254.69 543.79L254.69 568.774L254.69 568.774L222.53 568.774z" stroke="none" fill="#DAEEF3" fill-rule="evenodd" /><g clip-path="url(#28)"></g><g clip-path="url(#29)"></g></g><path transform="matrix(1 0 0 -1 0 841)" d="M260.33 421.87L316.49 421.87L316.49 421.87L316.49 568.77L316.49 568.77L260.33 568.77z" stroke="none" fill="#DAEEF3" fill-rule="evenodd" /><g clip-path="url(#30)"><path transform="matrix(1 0 0 -1 0 841)" d="M265.49 544.63L311.33 544.63L311.33 544.63L311.33 568.774L311.33 568.774L265.49 568.774z" stroke="none" fill="#DAEEF3" fill-rule="evenodd" /><g clip-path="url(#31)"></g><g clip-path="url(#32)"></g></g><path transform="matrix(1 0 0 -1 0 841)" d="M316.97 421.87L510.7 421.87L510.7 421.87L510.7 568.77L510.7 568.77L316.97 568.77z" stroke="none" fill="#DAEEF3" fill-rule="evenodd" /><g clip-path="url(#33)"><path transform="matrix(1 0 0 -1 0 841)" d="M322.13 543.79L505.54 543.79L505.54 543.79L505.54 568.774L505.54 568.774L322.13 568.774z" stroke="none" fill="#DAEEF3" fill-rule="evenodd" /><g clip-path="url(#34)"></g><g clip-path="url(#35)"></g><path transform="matrix(1 0 0 -1 0 841)" d="M322.13 523.39L505.54 523.39L505.54 523.39L505.54 543.79L505.54 543.79L322.13 543.79z" stroke="none" fill="#DAEEF3" fill-rule="evenodd" /><g clip-path="url(#36)"></g><g clip-path="url(#37)"></g><g clip-path="url(#38)"></g><g clip-path="url(#39)"></g><g clip-path="url(#40)"></g><path transform="matrix(1 0 0 -1 0 841)" d="M322.13 503.11L505.54 503.11L505.54 503.11L505.54 523.39L505.54 523.39L322.13 523.39z" stroke="none" fill="#DAEEF3" fill-rule="evenodd" /><g clip-path="url(#41)"></g><g clip-path="url(#42)"></g><g clip-path="url(#43)"></g><g clip-path="url(#44)"></g><g clip-path="url(#45)"></g><path transform="matrix(1 0 0 -1 0 841)" d="M322.13 482.83L505.54 482.83L505.54 482.83L505.54 503.11L505.54 503.11L322.13 503.11z" stroke="none" fill="#DAEEF3" fill-rule="evenodd" /><g clip-path="url(#46)"></g><g clip-path="url(#47)"></g><g clip-path="url(#48)"></g><g clip-path="url(#49)"></g><g clip-path="url(#50)"></g><g clip-path="url(#51)"></g><path transform="matrix(1 0 0 -1 0 841)" d="M322.13 462.55L505.54 462.55L505.54 462.55L505.54 482.83L505.54 482.83L322.13 482.83z" stroke="none" fill="#DAEEF3" fill-rule="evenodd" /><g clip-path="url(#52)"></g><g clip-path="url(#53)"></g><g clip-path="url(#54)"></g><g clip-path="url(#55)"></g><g clip-path="url(#56)"></g><path transform="matrix(1 0 0 -1 0 841)" d="M322.13 442.15L505.54 442.15L505.54 442.15L505.54 462.55L505.54 462.55L322.13 462.55z" stroke="none" fill="#DAEEF3" fill-rule="evenodd" /><g clip-path="url(#57)"></g><g clip-path="url(#58)"></g><g clip-path="url(#59)"></g><g clip-path="url(#60)"></g><g clip-path="url(#61)"></g><g clip-path="url(#62)"></g><g clip-path="url(#63)"></g><path transform="matrix(1 0 0 -1 0 841)" d="M322.13 421.87L505.54 421.87L505.54 421.87L505.54 442.15L505.54 442.15L322.13 442.15z" stroke="none" fill="#DAEEF3" fill-rule="evenodd" /><g clip-path="url(#64)"></g><g clip-path="url(#65)"></g><g clip-path="url(#66)"></g><g clip-path="url(#67)"></g><g clip-path="url(#68)"></g></g><path transform="matrix(1 0 0 -1 0 841)" d="M84.264 568.9L84.744 568.9L84.744 568.9L84.744 569.38L84.744 569.38L84.264 569.38z" stroke="none" fill="#000000" fill-rule="evenodd" /><path transform="matrix(1 0 0 -1 0 841)" d="M84.744 568.9L171.384 568.9L171.384 568.9L171.384 569.38L171.384 569.38L84.744 569.38z" stroke="none" fill="#000000" fill-rule="evenodd" /><path transform="matrix(1 0 0 -1 0 841)" d="M171.38 568.9L171.86 568.9L171.86 568.9L171.86 569.38L171.86 569.38L171.38 569.38z" stroke="none" fill="#000000" fill-rule="evenodd" /><path transform="matrix(1 0 0 -1 0 841)" d="M171.86 568.9L216.884 568.9L216.884 568.9L216.884 569.38L216.884 569.38L171.86 569.38z" stroke="none" fill="#000000" fill-rule="evenodd" /><path transform="matrix(1 0 0 -1 0 841)" d="M216.89 568.9L217.37 568.9L217.37 568.9L217.37 569.38L217.37 569.38L216.89 569.38z" stroke="none" fill="#000000" fill-rule="evenodd" /><path transform="matrix(1 0 0 -1 0 841)" d="M217.37 568.9L259.85 568.9L259.85 568.9L259.85 569.38L259.85 569.38L217.37 569.38z" stroke="none" fill="#000000" fill-rule="evenodd" /><path transform="matrix(1 0 0 -1 0 841)" d="M259.85 568.9L260.33 568.9L260.33 568.9L260.33 569.38L260.33 569.38L259.85 569.38z" stroke="none" fill="#000000" fill-rule="evenodd" /><path transform="matrix(1 0 0 -1 0 841)" d="M260.33 568.9L316.49 568.9L316.49 568.9L316.49 569.38L316.49 569.38L260.33 569.38z" stroke="none" fill="#000000" fill-rule="evenodd" /><path transform="matrix(1 0 0 -1 0 841)" d="M316.49 568.9L316.97 568.9L316.97 568.9L316.97 569.38L316.97 569.38L316.49 569.38z" stroke="none" fill="#000000" fill-rule="evenodd" /><path transform="matrix(1 0 0 -1 0 841)" d="M316.97 568.9L510.7 568.9L510.7 568.9L510.7 569.38L510.7 569.38L316.97 569.38z" stroke="none" fill="#000000" fill-rule="evenodd" /><path transform="matrix(1 0 0 -1 0 841)" d="M510.7 568.9L511.18 568.9L511.18 568.9L511.18 569.38L511.18 569.38L510.7 569.38z" stroke="none" fill="#000000" fill-rule="evenodd" /><path transform="matrix(1 0 0 -1 0 841)" d="M84.264 421.87L84.744 421.87L84.744 421.87L84.744 568.89L84.744 568.89L84.264 568.89z" stroke="none" fill="#000000" fill-rule="evenodd" /><path transform="matrix(1 0 0 -1 0 841)" d="M171.38 421.87L171.86 421.87L171.86 421.87L171.86 568.89L171.86 568.89L171.38 568.89z" stroke="none" fill="#000000" fill-rule="evenodd" /><path transform="matrix(1 0 0 -1 0 841)" d="M216.89 421.87L217.37 421.87L217.37 421.87L217.37 568.89L217.37 568.89L216.89 568.89z" stroke="none" fill="#000000" fill-rule="evenodd" /><path transform="matrix(1 0 0 -1 0 841)" d="M259.85 421.87L260.33 421.87L260.33 421.87L260.33 568.89L260.33 568.89L259.85 568.89z" stroke="none" fill="#000000" fill-rule="evenodd" /><path transform="matrix(1 0 0 -1 0 841)" d="M316.49 421.87L316.97 421.87L316.97 421.87L316.97 568.89L316.97 568.89L316.49 568.89z" stroke="none" fill="#000000" fill-rule="evenodd" /><path transform="matrix(1 0 0 -1 0 841)" d="M510.7 421.87L511.18 421.87L511.18 421.87L511.18 568.89L511.18 568.89L510.7 568.89z" stroke="none" fill="#000000" fill-rule="evenodd" /><g clip-path="url(#69)"><g clip-path="url(#70)"></g><g clip-path="url(#71)"></g></g><g clip-path="url(#72)"><g clip-path="url(#73)"></g><g clip-path="url(#74)"></g></g><g clip-path="url(#75)"><g clip-path="url(#76)"></g><g clip-path="url(#77)"></g></g><g clip-path="url(#78)"><g clip-path="url(#79)"></g><g clip-path="url(#80)"></g></g><g clip-path="url(#81)"><g clip-path="url(#82)"></g><g clip-path="url(#83)"></g><g clip-path="url(#84)"></g><g clip-path="url(#85)"></g><g clip-path="url(#86)"></g><g clip-path="url(#87)"></g><g clip-path="url(#88)"></g><g clip-path="url(#89)"></g><g clip-path="url(#90)"></g></g><path transform="matrix(1 0 0 -1 0 841)" d="M84.264 421.39L84.744 421.39L84.744 421.39L84.744 421.87L84.744 421.87L84.264 421.87z" stroke="none" fill="#000000" fill-rule="evenodd" /><path transform="matrix(1 0 0 -1 0 841)" d="M84.744 421.39L171.384 421.39L171.384 421.39L171.384 421.87L171.384 421.87L84.744 421.87z" stroke="none" fill="#000000" fill-rule="evenodd" /><path transform="matrix(1 0 0 -1 0 841)" d="M171.38 421.39L171.86 421.39L171.86 421.39L171.86 421.87L171.86 421.87L171.38 421.87z" stroke="none" fill="#000000" fill-rule="evenodd" /><path transform="matrix(1 0 0 -1 0 841)" d="M171.86 421.39L216.884 421.39L216.884 421.39L216.884 421.87L216.884 421.87L171.86 421.87z" stroke="none" fill="#000000" fill-rule="evenodd" /><path transform="matrix(1 0 0 -1 0 841)" d="M216.89 421.39L217.37 421.39L217.37 421.39L217.37 421.87L217.37 421.87L216.89 421.87z" stroke="none" fill="#000000" fill-rule="evenodd" /><path transform="matrix(1 0 0 -1 0 841)" d="M217.37 421.39L259.85 421.39L259.85 421.39L259.85 421.87L259.85 421.87L217.37 421.87z" stroke="none" fill="#000000" fill-rule="evenodd" /><path transform="matrix(1 0 0 -1 0 841)" d="M259.85 421.39L260.33 421.39L260.33 421.39L260.33 421.87L260.33 421.87L259.85 421.87z" stroke="none" fill="#000000" fill-rule="evenodd" /><path transform="matrix(1 0 0 -1 0 841)" d="M260.33 421.39L316.49 421.39L316.49 421.39L316.49 421.87L316.49 421.87L260.33 421.87z" stroke="none" fill="#000000" fill-rule="evenodd" /><path transform="matrix(1 0 0 -1 0 841)" d="M316.49 421.39L316.97 421.39L316.97 421.39L316.97 421.87L316.97 421.87L316.49 421.87z" stroke="none" fill="#000000" fill-rule="evenodd" /><path transform="matrix(1 0 0 -1 0 841)" d="M316.97 421.39L510.7 421.39L510.7 421.39L510.7 421.87L510.7 421.87L316.97 421.87z" stroke="none" fill="#000000" fill-rule="evenodd" /><path transform="matrix(1 0 0 -1 0 841)" d="M510.7 421.39L511.18 421.39L511.18 421.39L511.18 421.87L511.18 421.87L510.7 421.87z" stroke="none" fill="#000000" fill-rule="evenodd" /><path transform="matrix(1 0 0 -1 0 841)" d="M84.264 380.71L84.744 380.71L84.744 380.71L84.744 421.39L84.744 421.39L84.264 421.39z" stroke="none" fill="#000000" fill-rule="evenodd" /><path transform="matrix(1 0 0 -1 0 841)" d="M171.38 380.71L171.86 380.71L171.86 380.71L171.86 421.39L171.86 421.39L171.38 421.39z" stroke="none" fill="#000000" fill-rule="evenodd" /><path transform="matrix(1 0 0 -1 0 841)" d="M216.89 380.71L217.37 380.71L217.37 380.71L217.37 421.39L217.37 421.39L216.89 421.39z" stroke="none" fill="#000000" fill-rule="evenodd" /><path transform="matrix(1 0 0 -1 0 841)" d="M259.85 380.71L260.33 380.71L260.33 380.71L260.33 421.39L260.33 421.39L259.85 421.39z" stroke="none" fill="#000000" fill-rule="evenodd" /><path transform="matrix(1 0 0 -1 0 841)" d="M316.49 380.71L316.97 380.71L316.97 380.71L316.97 421.39L316.97 421.39L316.49 421.39z" stroke="none" fill="#000000" fill-rule="evenodd" /><path transform="matrix(1 0 0 -1 0 841)" d="M510.7 380.71L511.18 380.71L511.18 380.71L511.18 421.39L511.18 421.39L510.7 421.39z" stroke="none" fill="#000000" fill-rule="evenodd" /><path transform="matrix(1 0 0 -1 0 841)" d="M84.744 319.25L171.384 319.25L171.384 319.25L171.384 380.234L171.384 380.234L84.744 380.234z" stroke="none" fill="#DAEEF3" fill-rule="evenodd" /><g clip-path="url(#91)"><path transform="matrix(1 0 0 -1 0 841)" d="M89.904 356.09L166.224 356.09L166.224 356.09L166.224 380.234L166.224 380.234L89.904 380.234z" stroke="none" fill="#DAEEF3" fill-rule="evenodd" /><g clip-path="url(#92)"></g><g clip-path="url(#93)"></g></g><path transform="matrix(1 0 0 -1 0 841)" d="M171.86 319.25L216.884 319.25L216.884 319.25L216.884 380.234L216.884 380.234L171.86 380.234z" stroke="none" fill="#DAEEF3" fill-rule="evenodd" /><g clip-path="url(#94)"><path transform="matrix(1 0 0 -1 0 841)" d="M177.02 356.09L211.724 356.09L211.724 356.09L211.724 380.234L211.724 380.234L177.02 380.234z" stroke="none" fill="#DAEEF3" fill-rule="evenodd" /><g clip-path="url(#95)"></g><g clip-path="url(#96)"></g></g><path transform="matrix(1 0 0 -1 0 841)" d="M217.37 319.25L259.85 319.25L259.85 319.25L259.85 380.234L259.85 380.234L217.37 380.234z" stroke="none" fill="#DAEEF3" fill-rule="evenodd" /><g clip-path="url(#97)"><path transform="matrix(1 0 0 -1 0 841)" d="M222.53 355.13L254.69 355.13L254.69 355.13L254.69 380.234L254.69 380.234L222.53 380.234z" stroke="none" fill="#DAEEF3" fill-rule="evenodd" /><g clip-path="url(#98)"></g><g clip-path="url(#99)"></g></g><path transform="matrix(1 0 0 -1 0 841)" d="M260.33 319.25L316.49 319.25L316.49 319.25L316.49 380.234L316.49 380.234L260.33 380.234z" stroke="none" fill="#DAEEF3" fill-rule="evenodd" /><g clip-path="url(#100)"><path transform="matrix(1 0 0 -1 0 841)" d="M265.49 356.09L311.33 356.09L311.33 356.09L311.33 380.234L311.33 380.234L265.49 380.234z" stroke="none" fill="#DAEEF3" fill-rule="evenodd" /><g clip-path="url(#101)"></g></g><path transform="matrix(1 0 0 -1 0 841)" d="M316.97 319.25L510.7 319.25L510.7 319.25L510.7 380.234L510.7 380.234L316.97 380.234z" stroke="none" fill="#DAEEF3" fill-rule="evenodd" /><g clip-path="url(#102)"><path transform="matrix(1 0 0 -1 0 841)" d="M322.13 355.13L505.54 355.13L505.54 355.13L505.54 380.234L505.54 380.234L322.13 380.234z" stroke="none" fill="#DAEEF3" fill-rule="evenodd" /><g clip-path="url(#103)"></g><g clip-path="url(#104)"></g><g clip-path="url(#105)"></g><g clip-path="url(#106)"></g><path transform="matrix(1 0 0 -1 0 841)" d="M322.13 339.65L505.54 339.65L505.54 339.65L505.54 355.13L505.54 355.13L322.13 355.13z" stroke="none" fill="#DAEEF3" fill-rule="evenodd" /><g clip-path="url(#107)"></g><g clip-path="url(#108)"></g><path transform="matrix(1 0 0 -1 0 841)" d="M322.13 319.25L505.54 319.25L505.54 319.25L505.54 339.65L505.54 339.65L322.13 339.65z" stroke="none" fill="#DAEEF3" fill-rule="evenodd" /><g clip-path="url(#109)"></g><g clip-path="url(#110)"></g></g><path transform="matrix(1 0 0 -1 0 841)" d="M84.264 380.23L84.744 380.23L84.744 380.23L84.744 380.71L84.744 380.71L84.264 380.71z" stroke="none" fill="#000000" fill-rule="evenodd" /><path transform="matrix(1 0 0 -1 0 841)" d="M84.744 380.23L171.384 380.23L171.384 380.23L171.384 380.71L171.384 380.71L84.744 380.71z" stroke="none" fill="#000000" fill-rule="evenodd" /><path transform="matrix(1 0 0 -1 0 841)" d="M171.38 380.23L171.86 380.23L171.86 380.23L171.86 380.71L171.86 380.71L171.38 380.71z" stroke="none" fill="#000000" fill-rule="evenodd" /><path transform="matrix(1 0 0 -1 0 841)" d="M171.86 380.23L216.884 380.23L216.884 380.23L216.884 380.71L216.884 380.71L171.86 380.71z" stroke="none" fill="#000000" fill-rule="evenodd" /><path transform="matrix(1 0 0 -1 0 841)" d="M216.89 380.23L217.37 380.23L217.37 380.23L217.37 380.71L217.37 380.71L216.89 380.71z" stroke="none" fill="#000000" fill-rule="evenodd" /><path transform="matrix(1 0 0 -1 0 841)" d="M217.37 380.23L259.85 380.23L259.85 380.23L259.85 380.71L259.85 380.71L217.37 380.71z" stroke="none" fill="#000000" fill-rule="evenodd" /><path transform="matrix(1 0 0 -1 0 841)" d="M259.85 380.23L260.33 380.23L260.33 380.23L260.33 380.71L260.33 380.71L259.85 380.71z" stroke="none" fill="#000000" fill-rule="evenodd" /><path transform="matrix(1 0 0 -1 0 841)" d="M260.33 380.23L316.49 380.23L316.49 380.23L316.49 380.71L316.49 380.71L260.33 380.71z" stroke="none" fill="#000000" fill-rule="evenodd" /><path transform="matrix(1 0 0 -1 0 841)" d="M316.49 380.23L316.97 380.23L316.97 380.23L316.97 380.71L316.97 380.71L316.49 380.71z" stroke="none" fill="#000000" fill-rule="evenodd" /><path transform="matrix(1 0 0 -1 0 841)" d="M316.97 380.23L510.7 380.23L510.7 380.23L510.7 380.71L510.7 380.71L316.97 380.71z" stroke="none" fill="#000000" fill-rule="evenodd" /><path transform="matrix(1 0 0 -1 0 841)" d="M510.7 380.23L511.18 380.23L511.18 380.23L511.18 380.71L511.18 380.71L510.7 380.71z" stroke="none" fill="#000000" fill-rule="evenodd" /><path transform="matrix(1 0 0 -1 0 841)" d="M84.264 319.25L84.744 319.25L84.744 319.25L84.744 380.234L84.744 380.234L84.264 380.234z" stroke="none" fill="#000000" fill-rule="evenodd" /><path transform="matrix(1 0 0 -1 0 841)" d="M171.38 319.25L171.86 319.25L171.86 319.25L171.86 380.234L171.86 380.234L171.38 380.234z" stroke="none" fill="#000000" fill-rule="evenodd" /><path transform="matrix(1 0 0 -1 0 841)" d="M216.89 319.25L217.37 319.25L217.37 319.25L217.37 380.234L217.37 380.234L216.89 380.234z" stroke="none" fill="#000000" fill-rule="evenodd" /><path transform="matrix(1 0 0 -1 0 841)" d="M259.85 319.25L260.33 319.25L260.33 319.25L260.33 380.234L260.33 380.234L259.85 380.234z" stroke="none" fill="#000000" fill-rule="evenodd" /><path transform="matrix(1 0 0 -1 0 841)" d="M316.49 319.25L316.97 319.25L316.97 319.25L316.97 380.234L316.97 380.234L316.49 380.234z" stroke="none" fill="#000000" fill-rule="evenodd" /><path transform="matrix(1 0 0 -1 0 841)" d="M510.7 319.25L511.18 319.25L511.18 319.25L511.18 380.234L511.18 380.234L510.7 380.234z" stroke="none" fill="#000000" fill-rule="evenodd" /><g clip-path="url(#111)"><g clip-path="url(#112)"></g><g clip-path="url(#113)"></g></g><g clip-path="url(#114)"><g clip-path="url(#115)"></g><g clip-path="url(#116)"></g></g><g clip-path="url(#117)"><g clip-path="url(#118)"></g><g clip-path="url(#119)"></g></g><g clip-path="url(#120)"><g clip-path="url(#121)"></g></g><g clip-path="url(#122)"><g clip-path="url(#123)"></g><g clip-path="url(#124)"></g><g clip-path="url(#125)"></g><g clip-path="url(#126)"></g><g clip-path="url(#127)"></g><g clip-path="url(#128)"></g><g clip-path="url(#129)"></g><g clip-path="url(#130)"></g></g><path transform="matrix(1 0 0 -1 0 841)" d="M84.264 318.77L84.744 318.77L84.744 318.77L84.744 319.25L84.744 319.25L84.264 319.25z" stroke="none" fill="#000000" fill-rule="evenodd" /><path transform="matrix(1 0 0 -1 0 841)" d="M84.744 318.77L171.384 318.77L171.384 318.77L171.384 319.25L171.384 319.25L84.744 319.25z" stroke="none" fill="#000000" fill-rule="evenodd" /><path transform="matrix(1 0 0 -1 0 841)" d="M171.38 318.77L171.86 318.77L171.86 318.77L171.86 319.25L171.86 319.25L171.38 319.25z" stroke="none" fill="#000000" fill-rule="evenodd" /><path transform="matrix(1 0 0 -1 0 841)" d="M171.86 318.77L216.884 318.77L216.884 318.77L216.884 319.25L216.884 319.25L171.86 319.25z" stroke="none" fill="#000000" fill-rule="evenodd" /><path transform="matrix(1 0 0 -1 0 841)" d="M216.89 318.77L217.37 318.77L217.37 318.77L217.37 319.25L217.37 319.25L216.89 319.25z" stroke="none" fill="#000000" fill-rule="evenodd" /><path transform="matrix(1 0 0 -1 0 841)" d="M217.37 318.77L259.85 318.77L259.85 318.77L259.85 319.25L259.85 319.25L217.37 319.25z" stroke="none" fill="#000000" fill-rule="evenodd" /><path transform="matrix(1 0 0 -1 0 841)" d="M259.85 318.77L260.33 318.77L260.33 318.77L260.33 319.25L260.33 319.25L259.85 319.25z" stroke="none" fill="#000000" fill-rule="evenodd" /><path transform="matrix(1 0 0 -1 0 841)" d="M260.33 318.77L316.49 318.77L316.49 318.77L316.49 319.25L316.49 319.25L260.33 319.25z" stroke="none" fill="#000000" fill-rule="evenodd" /><path transform="matrix(1 0 0 -1 0 841)" d="M316.49 318.77L316.97 318.77L316.97 318.77L316.97 319.25L316.97 319.25L316.49 319.25z" stroke="none" fill="#000000" fill-rule="evenodd" /><path transform="matrix(1 0 0 -1 0 841)" d="M316.97 318.77L510.7 318.77L510.7 318.77L510.7 319.25L510.7 319.25L316.97 319.25z" stroke="none" fill="#000000" fill-rule="evenodd" /><path transform="matrix(1 0 0 -1 0 841)" d="M510.7 318.77L511.18 318.77L511.18 318.77L511.18 319.25L511.18 319.25L510.7 319.25z" stroke="none" fill="#000000" fill-rule="evenodd" /><path transform="matrix(1 0 0 -1 0 841)" d="M84.264 259.13L84.744 259.13L84.744 259.13L84.744 318.77L84.744 318.77L84.264 318.77z" stroke="none" fill="#000000" fill-rule="evenodd" /><path transform="matrix(1 0 0 -1 0 841)" d="M171.38 259.13L171.86 259.13L171.86 259.13L171.86 318.77L171.86 318.77L171.38 318.77z" stroke="none" fill="#000000" fill-rule="evenodd" /><path transform="matrix(1 0 0 -1 0 841)" d="M216.89 259.13L217.37 259.13L217.37 259.13L217.37 318.77L217.37 318.77L216.89 318.77z" stroke="none" fill="#000000" fill-rule="evenodd" /><path transform="matrix(1 0 0 -1 0 841)" d="M259.85 259.13L260.33 259.13L260.33 259.13L260.33 318.77L260.33 318.77L259.85 318.77z" stroke="none" fill="#000000" fill-rule="evenodd" /><path transform="matrix(1 0 0 -1 0 841)" d="M316.49 259.13L316.97 259.13L316.97 259.13L316.97 318.77L316.97 318.77L316.49 318.77z" stroke="none" fill="#000000" fill-rule="evenodd" /><path transform="matrix(1 0 0 -1 0 841)" d="M510.7 259.13L511.18 259.13L511.18 259.13L511.18 318.77L511.18 318.77L510.7 318.77z" stroke="none" fill="#000000" fill-rule="evenodd" /><path transform="matrix(1 0 0 -1 0 841)" d="M84.744 233.57L171.384 233.57L171.384 233.57L171.384 258.65L171.384 258.65L84.744 258.65z" stroke="none" fill="#DAEEF3" fill-rule="evenodd" /><g clip-path="url(#131)"><path transform="matrix(1 0 0 -1 0 841)" d="M89.904 234.41L166.224 234.41L166.224 234.41L166.224 258.65L166.224 258.65L89.904 258.65z" stroke="none" fill="#DAEEF3" fill-rule="evenodd" /><g clip-path="url(#132)"></g><g clip-path="url(#133)"></g></g><path transform="matrix(1 0 0 -1 0 841)" d="M171.86 233.57L216.884 233.57L216.884 233.57L216.884 258.65L216.884 258.65L171.86 258.65z" stroke="none" fill="#DAEEF3" fill-rule="evenodd" /><g clip-path="url(#134)"><path transform="matrix(1 0 0 -1 0 841)" d="M177.02 234.41L211.724 234.41L211.724 234.41L211.724 258.65L211.724 258.65L177.02 258.65z" stroke="none" fill="#DAEEF3" fill-rule="evenodd" /><g clip-path="url(#135)"></g><g clip-path="url(#136)"></g></g><path transform="matrix(1 0 0 -1 0 841)" d="M217.37 233.57L259.85 233.57L259.85 233.57L259.85 258.65L259.85 258.65L217.37 258.65z" stroke="none" fill="#DAEEF3" fill-rule="evenodd" /><g clip-path="url(#137)"><path transform="matrix(1 0 0 -1 0 841)" d="M222.53 233.57L254.69 233.57L254.69 233.57L254.69 258.65L254.69 258.65L222.53 258.65z" stroke="none" fill="#DAEEF3" fill-rule="evenodd" /><g clip-path="url(#138)"></g><g clip-path="url(#139)"></g></g><path transform="matrix(1 0 0 -1 0 841)" d="M260.33 233.57L316.49 233.57L316.49 233.57L316.49 258.65L316.49 258.65L260.33 258.65z" stroke="none" fill="#DAEEF3" fill-rule="evenodd" /><g clip-path="url(#140)"><path transform="matrix(1 0 0 -1 0 841)" d="M265.49 234.41L311.33 234.41L311.33 234.41L311.33 258.65L311.33 258.65L265.49 258.65z" stroke="none" fill="#DAEEF3" fill-rule="evenodd" /><g clip-path="url(#141)"></g></g><path transform="matrix(1 0 0 -1 0 841)" d="M316.97 233.57L510.7 233.57L510.7 233.57L510.7 258.65L510.7 258.65L316.97 258.65z" stroke="none" fill="#DAEEF3" fill-rule="evenodd" /><g clip-path="url(#142)"><path transform="matrix(1 0 0 -1 0 841)" d="M322.13 233.57L505.54 233.57L505.54 233.57L505.54 258.65L505.54 258.65L322.13 258.65z" stroke="none" fill="#DAEEF3" fill-rule="evenodd" /><g clip-path="url(#143)"></g><g clip-path="url(#144)"></g></g><path transform="matrix(1 0 0 -1 0 841)" d="M84.264 258.65L84.744 258.65L84.744 258.65L84.744 259.13L84.744 259.13L84.264 259.13z" stroke="none" fill="#000000" fill-rule="evenodd" /><path transform="matrix(1 0 0 -1 0 841)" d="M84.744 258.65L171.384 258.65L171.384 258.65L171.384 259.13L171.384 259.13L84.744 259.13z" stroke="none" fill="#000000" fill-rule="evenodd" /><path transform="matrix(1 0 0 -1 0 841)" d="M171.38 258.65L171.86 258.65L171.86 258.65L171.86 259.13L171.86 259.13L171.38 259.13z" stroke="none" fill="#000000" fill-rule="evenodd" /><path transform="matrix(1 0 0 -1 0 841)" d="M171.86 258.65L216.884 258.65L216.884 258.65L216.884 259.13L216.884 259.13L171.86 259.13z" stroke="none" fill="#000000" fill-rule="evenodd" /><path transform="matrix(1 0 0 -1 0 841)" d="M216.89 258.65L217.37 258.65L217.37 258.65L217.37 259.13L217.37 259.13L216.89 259.13z" stroke="none" fill="#000000" fill-rule="evenodd" /><path transform="matrix(1 0 0 -1 0 841)" d="M217.37 258.65L259.85 258.65L259.85 258.65L259.85 259.13L259.85 259.13L217.37 259.13z" stroke="none" fill="#000000" fill-rule="evenodd" /><path transform="matrix(1 0 0 -1 0 841)" d="M259.85 258.65L260.33 258.65L260.33 258.65L260.33 259.13L260.33 259.13L259.85 259.13z" stroke="none" fill="#000000" fill-rule="evenodd" /><path transform="matrix(1 0 0 -1 0 841)" d="M260.33 258.65L316.49 258.65L316.49 258.65L316.49 259.13L316.49 259.13L260.33 259.13z" stroke="none" fill="#000000" fill-rule="evenodd" /><path transform="matrix(1 0 0 -1 0 841)" d="M316.49 258.65L316.97 258.65L316.97 258.65L316.97 259.13L316.97 259.13L316.49 259.13z" stroke="none" fill="#000000" fill-rule="evenodd" /><path transform="matrix(1 0 0 -1 0 841)" d="M316.97 258.65L510.7 258.65L510.7 258.65L510.7 259.13L510.7 259.13L316.97 259.13z" stroke="none" fill="#000000" fill-rule="evenodd" /><path transform="matrix(1 0 0 -1 0 841)" d="M510.7 258.65L511.18 258.65L511.18 258.65L511.18 259.13L511.18 259.13L510.7 259.13z" stroke="none" fill="#000000" fill-rule="evenodd" /><path transform="matrix(1 0 0 -1 0 841)" d="M84.264 233.57L84.744 233.57L84.744 233.57L84.744 258.65L84.744 258.65L84.264 258.65z" stroke="none" fill="#000000" fill-rule="evenodd" /><path transform="matrix(1 0 0 -1 0 841)" d="M84.264 233.09L84.744 233.09L84.744 233.09L84.744 233.57L84.744 233.57L84.264 233.57z" stroke="none" fill="#000000" fill-rule="evenodd" /><path transform="matrix(1 0 0 -1 0 841)" d="M84.264 233.09L84.744 233.09L84.744 233.09L84.744 233.57L84.744 233.57L84.264 233.57z" stroke="none" fill="#000000" fill-rule="evenodd" /><path transform="matrix(1 0 0 -1 0 841)" d="M84.744 233.09L171.384 233.09L171.384 233.09L171.384 233.57L171.384 233.57L84.744 233.57z" stroke="none" fill="#000000" fill-rule="evenodd" /><path transform="matrix(1 0 0 -1 0 841)" d="M171.38 233.57L171.86 233.57L171.86 233.57L171.86 258.65L171.86 258.65L171.38 258.65z" stroke="none" fill="#000000" fill-rule="evenodd" /><path transform="matrix(1 0 0 -1 0 841)" d="M171.38 233.09L171.86 233.09L171.86 233.09L171.86 233.57L171.86 233.57L171.38 233.57z" stroke="none" fill="#000000" fill-rule="evenodd" /><path transform="matrix(1 0 0 -1 0 841)" d="M171.86 233.09L216.884 233.09L216.884 233.09L216.884 233.57L216.884 233.57L171.86 233.57z" stroke="none" fill="#000000" fill-rule="evenodd" /><path transform="matrix(1 0 0 -1 0 841)" d="M216.89 233.57L217.37 233.57L217.37 233.57L217.37 258.65L217.37 258.65L216.89 258.65z" stroke="none" fill="#000000" fill-rule="evenodd" /><path transform="matrix(1 0 0 -1 0 841)" d="M216.89 233.09L217.37 233.09L217.37 233.09L217.37 233.57L217.37 233.57L216.89 233.57z" stroke="none" fill="#000000" fill-rule="evenodd" /><path transform="matrix(1 0 0 -1 0 841)" d="M217.37 233.09L259.85 233.09L259.85 233.09L259.85 233.57L259.85 233.57L217.37 233.57z" stroke="none" fill="#000000" fill-rule="evenodd" /><path transform="matrix(1 0 0 -1 0 841)" d="M259.85 233.57L260.33 233.57L260.33 233.57L260.33 258.65L260.33 258.65L259.85 258.65z" stroke="none" fill="#000000" fill-rule="evenodd" /><path transform="matrix(1 0 0 -1 0 841)" d="M259.85 233.09L260.33 233.09L260.33 233.09L260.33 233.57L260.33 233.57L259.85 233.57z" stroke="none" fill="#000000" fill-rule="evenodd" /><path transform="matrix(1 0 0 -1 0 841)" d="M260.33 233.09L316.49 233.09L316.49 233.09L316.49 233.57L316.49 233.57L260.33 233.57z" stroke="none" fill="#000000" fill-rule="evenodd" /><path transform="matrix(1 0 0 -1 0 841)" d="M316.49 233.57L316.97 233.57L316.97 233.57L316.97 258.65L316.97 258.65L316.49 258.65z" stroke="none" fill="#000000" fill-rule="evenodd" /><path transform="matrix(1 0 0 -1 0 841)" d="M316.49 233.09L316.97 233.09L316.97 233.09L316.97 233.57L316.97 233.57L316.49 233.57z" stroke="none" fill="#000000" fill-rule="evenodd" /><path transform="matrix(1 0 0 -1 0 841)" d="M316.97 233.09L510.7 233.09L510.7 233.09L510.7 233.57L510.7 233.57L316.97 233.57z" stroke="none" fill="#000000" fill-rule="evenodd" /><path transform="matrix(1 0 0 -1 0 841)" d="M510.7 233.57L511.18 233.57L511.18 233.57L511.18 258.65L511.18 258.65L510.7 258.65z" stroke="none" fill="#000000" fill-rule="evenodd" /><path transform="matrix(1 0 0 -1 0 841)" d="M510.7 233.09L511.18 233.09L511.18 233.09L511.18 233.57L511.18 233.57L510.7 233.57z" stroke="none" fill="#000000" fill-rule="evenodd" /><path transform="matrix(1 0 0 -1 0 841)" d="M510.7 233.09L511.18 233.09L511.18 233.09L511.18 233.57L511.18 233.57L510.7 233.57z" stroke="none" fill="#000000" fill-rule="evenodd" /></g></g></g></svg>