<svg xmlns="http://www.w3.org/2000/svg" xmlns:xlink="http://www.w3.org/1999/xlink" id="body_121" preserveAspectRatio="xMinYMin meet" viewBox="0 0 1121 793"><defs><clipPath id="1"><path d="M0 595L0 -0.3200073L0 -0.3200073L841.92 -0.3200073L841.92 -0.3200073L841.92 595L841.92 595L0 595z" /></clipPath><clipPath id="2"><path d="M0.00125 595.0913L842.0112 595.0913L842.0112 595.0913L842.0112 -0.3186646L842.0112 -0.3186646L0.00125 -0.3186646z" /></clipPath><clipPath id="3"><path d="M288.05 535.211L316.01 535.211L316.01 535.211L316.01 516.011L316.01 516.011L288.05 516.011z" /></clipPath><clipPath id="4"><path d="M288.05 535.216L316.01 535.216L316.01 535.216L316.01 516.016L316.01 516.016L288.05 516.016z" /></clipPath><clipPath id="5"><path d="M288.05 535.216L316.01 535.216L316.01 535.216L316.01 516.016L316.01 516.016L288.05 516.016z" /></clipPath><clipPath id="6"><path d="M84.721 109.15L734.851 109.15L734.851 109.15L734.851 90.07001L734.851 90.07001L84.721 90.07001z" /></clipPath><clipPath id="7"><path d="M84.72 109.14L734.86 109.14L734.86 109.14L734.86 90.06003L734.86 90.06003L84.72 90.06003z" /></clipPath><clipPath id="8"><path d="M84.72 109.14L734.86 109.14L734.86 109.14L734.86 90.06003L734.86 90.06003L84.72 90.06003z" /></clipPath><clipPath id="9"><path d="M84.72 109.14L734.86 109.14L734.86 109.14L734.86 90.06003L734.86 90.06003L84.72 90.06003z" /></clipPath><clipPath id="10"><path d="M84.721 246.33L734.851 246.33L734.851 246.33L734.851 109.63L734.851 109.63L84.721 109.63z" /></clipPath><clipPath id="11"><path d="M84.72 246.33L734.86 246.33L734.86 246.33L734.86 109.63L734.86 109.63L84.72 109.63z" /></clipPath><clipPath id="12"><path d="M84.72 246.33L734.86 246.33L734.86 246.33L734.86 109.63L734.86 109.63L84.72 109.63z" /></clipPath><clipPath id="13"><path d="M84.72 246.33L734.86 246.33L734.86 246.33L734.86 109.63L734.86 109.63L84.72 109.63z" /></clipPath><clipPath id="14"><path d="M84.72 246.33L734.86 246.33L734.86 246.33L734.86 109.63L734.86 109.63L84.72 109.63z" /></clipPath><clipPath id="15"><path d="M84.72 246.33L734.86 246.33L734.86 246.33L734.86 109.63L734.86 109.63L84.72 109.63z" /></clipPath><clipPath id="16"><path d="M84.72 246.33L734.86 246.33L734.86 246.33L734.86 109.63L734.86 109.63L84.72 109.63z" /></clipPath><clipPath id="17"><path d="M84.72 246.33L734.86 246.33L734.86 246.33L734.86 109.63L734.86 109.63L84.72 109.63z" /></clipPath><clipPath id="18"><path d="M84.72 246.33L734.86 246.33L734.86 246.33L734.86 109.63L734.86 109.63L84.72 109.63z" /></clipPath><clipPath id="19"><path d="M84.72 246.33L734.86 246.33L734.86 246.33L734.86 109.63L734.86 109.63L84.72 109.63z" /></clipPath><clipPath id="20"><path d="M84.72 246.33L734.86 246.33L734.86 246.33L734.86 109.63L734.86 109.63L84.72 109.63z" /></clipPath><clipPath id="21"><path d="M84.72 246.33L734.86 246.33L734.86 246.33L734.86 109.63L734.86 109.63L84.72 109.63z" /></clipPath><clipPath id="22"><path d="M84.72 246.33L734.86 246.33L734.86 246.33L734.86 109.63L734.86 109.63L84.72 109.63z" /></clipPath><clipPath id="23"><path d="M84.72 246.33L734.86 246.33L734.86 246.33L734.86 109.63L734.86 109.63L84.72 109.63z" /></clipPath><clipPath id="24"><path d="M84.72 246.33L734.86 246.33L734.86 246.33L734.86 109.63L734.86 109.63L84.72 109.63z" /></clipPath><clipPath id="25"><path d="M84.72 246.33L734.86 246.33L734.86 246.33L734.86 109.63L734.86 109.63L84.72 109.63z" /></clipPath><clipPath id="26"><path d="M84.72 246.33L734.86 246.33L734.86 246.33L734.86 109.63L734.86 109.63L84.72 109.63z" /></clipPath><clipPath id="27"><path d="M84.72 246.33L734.86 246.33L734.86 246.33L734.86 109.63L734.86 109.63L84.72 109.63z" /></clipPath><clipPath id="28"><path d="M84.72 246.33L734.86 246.33L734.86 246.33L734.86 109.63L734.86 109.63L84.72 109.63z" /></clipPath><clipPath id="29"><path d="M84.72 246.33L734.86 246.33L734.86 246.33L734.86 109.63L734.86 109.63L84.72 109.63z" /></clipPath><clipPath id="30"><path d="M84.72 246.33L734.86 246.33L734.86 246.33L734.86 109.63L734.86 109.63L84.72 109.63z" /></clipPath><clipPath id="31"><path d="M84.72 246.33L734.86 246.33L734.86 246.33L734.86 109.63L734.86 109.63L84.72 109.63z" /></clipPath><clipPath id="32"><path d="M84.72 246.33L734.86 246.33L734.86 246.33L734.86 109.63L734.86 109.63L84.72 109.63z" /></clipPath><clipPath id="33"><path d="M84.72 246.33L734.86 246.33L734.86 246.33L734.86 109.63L734.86 109.63L84.72 109.63z" /></clipPath><clipPath id="34"><path d="M84.72 246.33L734.86 246.33L734.86 246.33L734.86 109.63L734.86 109.63L84.72 109.63z" /></clipPath><clipPath id="35"><path d="M84.72 246.33L734.86 246.33L734.86 246.33L734.86 109.63L734.86 109.63L84.72 109.63z" /></clipPath><clipPath id="36"><path d="M84.72 246.33L734.86 246.33L734.86 246.33L734.86 109.63L734.86 109.63L84.72 109.63z" /></clipPath><clipPath id="37"><path d="M84.72 246.33L734.86 246.33L734.86 246.33L734.86 109.63L734.86 109.63L84.72 109.63z" /></clipPath><clipPath id="38"><path d="M84.72 246.33L734.86 246.33L734.86 246.33L734.86 109.63L734.86 109.63L84.72 109.63z" /></clipPath><clipPath id="39"><path d="M84.72 246.33L734.86 246.33L734.86 246.33L734.86 109.63L734.86 109.63L84.72 109.63z" /></clipPath><clipPath id="40"><path d="M84.72 246.33L734.86 246.33L734.86 246.33L734.86 109.63L734.86 109.63L84.72 109.63z" /></clipPath><clipPath id="41"><path d="M84.72 246.33L734.86 246.33L734.86 246.33L734.86 109.63L734.86 109.63L84.72 109.63z" /></clipPath><clipPath id="42"><path d="M84.72 246.33L734.86 246.33L734.86 246.33L734.86 109.63L734.86 109.63L84.72 109.63z" /></clipPath><clipPath id="43"><path d="M84.72 246.33L734.86 246.33L734.86 246.33L734.86 109.63L734.86 109.63L84.72 109.63z" /></clipPath><clipPath id="44"><path d="M84.72 246.33L734.86 246.33L734.86 246.33L734.86 109.63L734.86 109.63L84.72 109.63z" /></clipPath><clipPath id="45"><path d="M84.72 246.33L734.86 246.33L734.86 246.33L734.86 109.63L734.86 109.63L84.72 109.63z" /></clipPath><clipPath id="46"><path d="M84.72 246.33L734.86 246.33L734.86 246.33L734.86 109.63L734.86 109.63L84.72 109.63z" /></clipPath><clipPath id="47"><path d="M84.72 246.33L734.86 246.33L734.86 246.33L734.86 109.63L734.86 109.63L84.72 109.63z" /></clipPath><clipPath id="48"><path d="M84.72 246.33L734.86 246.33L734.86 246.33L734.86 109.63L734.86 109.63L84.72 109.63z" /></clipPath><clipPath id="49"><path d="M84.72 246.33L734.86 246.33L734.86 246.33L734.86 109.63L734.86 109.63L84.72 109.63z" /></clipPath><clipPath id="50"><path d="M84.72 246.33L734.86 246.33L734.86 246.33L734.86 109.63L734.86 109.63L84.72 109.63z" /></clipPath><clipPath id="51"><path d="M84.72 246.33L734.86 246.33L734.86 246.33L734.86 109.63L734.86 109.63L84.72 109.63z" /></clipPath><clipPath id="52"><path d="M84.72 246.33L734.86 246.33L734.86 246.33L734.86 109.63L734.86 109.63L84.72 109.63z" /></clipPath><clipPath id="53"><path d="M84.72 246.33L734.86 246.33L734.86 246.33L734.86 109.63L734.86 109.63L84.72 109.63z" /></clipPath><clipPath id="54"><path d="M84.72 246.33L734.86 246.33L734.86 246.33L734.86 109.63L734.86 109.63L84.72 109.63z" /></clipPath><clipPath id="55"><path d="M84.72 246.33L734.86 246.33L734.86 246.33L734.86 109.63L734.86 109.63L84.72 109.63z" /></clipPath><clipPath id="56"><path d="M84.72 246.33L734.86 246.33L734.86 246.33L734.86 109.63L734.86 109.63L84.72 109.63z" /></clipPath><clipPath id="57"><path d="M84.72 246.33L734.86 246.33L734.86 246.33L734.86 109.63L734.86 109.63L84.72 109.63z" /></clipPath><clipPath id="58"><path d="M84.72 246.33L734.86 246.33L734.86 246.33L734.86 109.63L734.86 109.63L84.72 109.63z" /></clipPath><clipPath id="59"><path d="M84.72 246.33L734.86 246.33L734.86 246.33L734.86 109.63L734.86 109.63L84.72 109.63z" /></clipPath><clipPath id="60"><path d="M84.72 246.33L734.86 246.33L734.86 246.33L734.86 109.63L734.86 109.63L84.72 109.63z" /></clipPath><clipPath id="61"><path d="M84.72 246.33L734.86 246.33L734.86 246.33L734.86 109.63L734.86 109.63L84.72 109.63z" /></clipPath><clipPath id="62"><path d="M84.72 246.33L734.86 246.33L734.86 246.33L734.86 109.63L734.86 109.63L84.72 109.63z" /></clipPath><clipPath id="63"><path d="M84.72 246.33L734.86 246.33L734.86 246.33L734.86 109.63L734.86 109.63L84.72 109.63z" /></clipPath><clipPath id="64"><path d="M84.72 246.33L734.86 246.33L734.86 246.33L734.86 109.63L734.86 109.63L84.72 109.63z" /></clipPath><clipPath id="65"><path d="M84.72 246.33L734.86 246.33L734.86 246.33L734.86 109.63L734.86 109.63L84.72 109.63z" /></clipPath><clipPath id="66"><path d="M84.72 246.33L734.86 246.33L734.86 246.33L734.86 109.63L734.86 109.63L84.72 109.63z" /></clipPath><clipPath id="67"><path d="M84.72 246.33L734.86 246.33L734.86 246.33L734.86 109.63L734.86 109.63L84.72 109.63z" /></clipPath><clipPath id="68"><path d="M84.72 246.33L734.86 246.33L734.86 246.33L734.86 109.63L734.86 109.63L84.72 109.63z" /></clipPath><clipPath id="69"><path d="M84.72 246.33L734.86 246.33L734.86 246.33L734.86 109.63L734.86 109.63L84.72 109.63z" /></clipPath><clipPath id="70"><path d="M84.72 246.33L734.86 246.33L734.86 246.33L734.86 109.63L734.86 109.63L84.72 109.63z" /></clipPath><clipPath id="71"><path d="M84.72 246.33L734.86 246.33L734.86 246.33L734.86 109.63L734.86 109.63L84.72 109.63z" /></clipPath><clipPath id="72"><path d="M84.72 246.33L734.86 246.33L734.86 246.33L734.86 109.63L734.86 109.63L84.72 109.63z" /></clipPath><clipPath id="73"><path d="M84.72 246.33L734.86 246.33L734.86 246.33L734.86 109.63L734.86 109.63L84.72 109.63z" /></clipPath><clipPath id="74"><path d="M84.72 246.33L734.86 246.33L734.86 246.33L734.86 109.63L734.86 109.63L84.72 109.63z" /></clipPath><clipPath id="75"><path d="M84.72 246.33L734.86 246.33L734.86 246.33L734.86 109.63L734.86 109.63L84.72 109.63z" /></clipPath><clipPath id="76"><path d="M84.72 246.33L734.86 246.33L734.86 246.33L734.86 109.63L734.86 109.63L84.72 109.63z" /></clipPath></defs><g transform="matrix(1.333333 0 0 1.333333 0 0)"><g><g clip-path="url(#1)"><path transform="matrix(1 0 0 -1 0 595)" d="M704.14 53.304L752.14 53.304L752.14 53.304L752.14 53.90398L752.14 53.90398L704.14 53.90398z" stroke="none" fill="#000000" fill-rule="evenodd" /><g clip-path="url(#2)"><path transform="matrix(1 0 0 -1 0 595)" d="M88.44 77.904L753.58 77.904L753.58 77.904L753.58 80.904L753.58 80.904L88.44 80.904z" stroke="none" fill="#000000" fill-rule="evenodd" /><path transform="matrix(1 0 0 -1 0 595)" d="M88.44 76.464L753.58 76.464L753.58 76.464L753.58 77.18403L753.58 77.18403L88.44 77.18403z" stroke="none" fill="#000000" fill-rule="evenodd" /></g><g clip-path="url(#3)"><g clip-path="url(#4)"></g><g clip-path="url(#5)"></g></g><path transform="matrix(1 0 0 -1 0 595)" d="M84.72 485.86L734.86 485.86L734.86 485.86L734.86 504.94L734.86 504.94L84.72 504.94z" stroke="none" fill="#0070C0" fill-rule="evenodd" /><g clip-path="url(#6)"><path transform="matrix(1 0 0 -1 0 595)" d="M89.88 485.86L729.7 485.86L729.7 485.86L729.7 504.94L729.7 504.94L89.88 504.94z" stroke="none" fill="#0070C0" fill-rule="evenodd" /><g clip-path="url(#7)"></g><g clip-path="url(#8)"></g><g clip-path="url(#9)"></g></g><path transform="matrix(1 0 0 -1 0 595)" d="M84.24 504.94L84.72 504.94L84.72 504.94L84.72 505.42L84.72 505.42L84.24 505.42z" stroke="none" fill="#000000" fill-rule="evenodd" /><path transform="matrix(1 0 0 -1 0 595)" d="M84.24 504.94L84.72 504.94L84.72 504.94L84.72 505.42L84.72 505.42L84.24 505.42z" stroke="none" fill="#000000" fill-rule="evenodd" /><path transform="matrix(1 0 0 -1 0 595)" d="M84.72 504.94L734.98 504.94L734.98 504.94L734.98 505.42L734.98 505.42L84.72 505.42z" stroke="none" fill="#000000" fill-rule="evenodd" /><path transform="matrix(1 0 0 -1 0 595)" d="M734.98 504.94L735.46 504.94L735.46 504.94L735.46 505.42L735.46 505.42L734.98 505.42z" stroke="none" fill="#000000" fill-rule="evenodd" /><path transform="matrix(1 0 0 -1 0 595)" d="M734.98 504.94L735.46 504.94L735.46 504.94L735.46 505.42L735.46 505.42L734.98 505.42z" stroke="none" fill="#000000" fill-rule="evenodd" /><path transform="matrix(1 0 0 -1 0 595)" d="M84.24 485.86L84.72 485.86L84.72 485.86L84.72 504.94L84.72 504.94L84.24 504.94z" stroke="none" fill="#000000" fill-rule="evenodd" /><path transform="matrix(1 0 0 -1 0 595)" d="M734.98 485.86L735.46 485.86L735.46 485.86L735.46 504.94L735.46 504.94L734.98 504.94z" stroke="none" fill="#000000" fill-rule="evenodd" /><path transform="matrix(1 0 0 -1 0 595)" d="M84.72 348.67L734.86 348.67L734.86 348.67L734.86 485.37L734.86 485.37L84.72 485.37z" stroke="none" fill="#DAEEF3" fill-rule="evenodd" /><g clip-path="url(#10)"><path transform="matrix(1 0 0 -1 0 595)" d="M89.88 466.06L729.7 466.06L729.7 466.06L729.7 485.38L729.7 485.38L89.88 485.38z" stroke="none" fill="#DAEEF3" fill-rule="evenodd" /><g clip-path="url(#11)"></g><g clip-path="url(#12)"></g><g clip-path="url(#13)"></g><g clip-path="url(#14)"></g><g clip-path="url(#15)"></g><g clip-path="url(#16)"></g><g clip-path="url(#17)"></g><g clip-path="url(#18)"></g><g clip-path="url(#19)"></g><g clip-path="url(#20)"></g><g clip-path="url(#21)"></g><g clip-path="url(#22)"></g><g clip-path="url(#23)"></g><g clip-path="url(#24)"></g><g clip-path="url(#25)"></g><g clip-path="url(#26)"></g><g clip-path="url(#27)"></g><g clip-path="url(#28)"></g><g clip-path="url(#29)"></g><g clip-path="url(#30)"></g><g clip-path="url(#31)"></g><g clip-path="url(#32)"></g><g clip-path="url(#33)"></g><g clip-path="url(#34)"></g><g clip-path="url(#35)"></g><g clip-path="url(#36)"></g><path transform="matrix(1 0 0 -1 0 595)" d="M89.88 446.62L729.7 446.62L729.7 446.62L729.7 466.06L729.7 466.06L89.88 466.06z" stroke="none" fill="#DAEEF3" fill-rule="evenodd" /><g clip-path="url(#37)"></g><g clip-path="url(#38)"></g><g clip-path="url(#39)"></g><g clip-path="url(#40)"></g><g clip-path="url(#41)"></g><path transform="matrix(1 0 0 -1 0 595)" d="M95.904 452.62L232.104 452.62L232.104 452.62L232.104 453.46L232.104 453.46L95.904 453.46z" stroke="none" fill="#0000FF" fill-rule="evenodd" /><path transform="matrix(1 0 0 -1 0 595)" d="M242.18 452.62L378.16 452.62L378.16 452.62L378.16 453.46L378.16 453.46L242.18 453.46z" stroke="none" fill="#0000FF" fill-rule="evenodd" /><path transform="matrix(1 0 0 -1 0 595)" d="M89.88 427.18L729.7 427.18L729.7 427.18L729.7 446.62L729.7 446.62L89.88 446.62z" stroke="none" fill="#DAEEF3" fill-rule="evenodd" /><g clip-path="url(#42)"></g><g clip-path="url(#43)"></g><g clip-path="url(#44)"></g><g clip-path="url(#45)"></g><g clip-path="url(#46)"></g><path transform="matrix(1 0 0 -1 0 595)" d="M95.904 433.18L190.224 433.18L190.224 433.18L190.224 434.02L190.224 434.02L95.904 434.02z" stroke="none" fill="#0000FF" fill-rule="evenodd" /><path transform="matrix(1 0 0 -1 0 595)" d="M200.3 433.18L294.404 433.18L294.404 433.18L294.404 434.02L294.404 434.02L200.3 434.02z" stroke="none" fill="#0000FF" fill-rule="evenodd" /><path transform="matrix(1 0 0 -1 0 595)" d="M89.88 407.86L729.7 407.86L729.7 407.86L729.7 427.18L729.7 427.18L89.88 427.18z" stroke="none" fill="#DAEEF3" fill-rule="evenodd" /><g clip-path="url(#47)"></g><g clip-path="url(#48)"></g><g clip-path="url(#49)"></g><g clip-path="url(#50)"></g><g clip-path="url(#51)"></g><g clip-path="url(#52)"></g><path transform="matrix(1 0 0 -1 0 595)" d="M95.904 413.74L267.264 413.74L267.264 413.74L267.264 414.58L267.264 414.58L95.904 414.58z" stroke="none" fill="#0000FF" fill-rule="evenodd" /><path transform="matrix(1 0 0 -1 0 595)" d="M277.22 413.74L448.36 413.74L448.36 413.74L448.36 414.58L448.36 414.58L277.22 414.58z" stroke="none" fill="#0000FF" fill-rule="evenodd" /><path transform="matrix(1 0 0 -1 0 595)" d="M89.88 387.43L729.7 387.43L729.7 387.43L729.7 407.854L729.7 407.854L89.88 407.854z" stroke="none" fill="#DAEEF3" fill-rule="evenodd" /><g clip-path="url(#53)"></g><g clip-path="url(#54)"></g><g clip-path="url(#55)"></g><g clip-path="url(#56)"></g><g clip-path="url(#57)"></g><g clip-path="url(#58)"></g><g clip-path="url(#59)"></g><g clip-path="url(#60)"></g><path transform="matrix(1 0 0 -1 0 595)" d="M95.904 393.67L207.744 393.67L207.744 393.67L207.744 394.51L207.744 394.51L95.904 394.51z" stroke="none" fill="#0000FF" fill-rule="evenodd" /><path transform="matrix(1 0 0 -1 0 595)" d="M217.7 393.67L329.56 393.67L329.56 393.67L329.56 394.51L329.56 394.51L217.7 394.51z" stroke="none" fill="#0000FF" fill-rule="evenodd" /><path transform="matrix(1 0 0 -1 0 595)" d="M342.89 393.55L414.89 393.55L414.89 393.55L414.89 394.15L414.89 394.15L342.89 394.15z" stroke="none" fill="#0000FF" fill-rule="evenodd" /><path transform="matrix(1 0 0 -1 0 595)" d="M89.88 368.11L729.7 368.11L729.7 368.11L729.7 387.43L729.7 387.43L89.88 387.43z" stroke="none" fill="#DAEEF3" fill-rule="evenodd" /><g clip-path="url(#61)"></g><g clip-path="url(#62)"></g><g clip-path="url(#63)"></g><g clip-path="url(#64)"></g><g clip-path="url(#65)"></g><g clip-path="url(#66)"></g><g clip-path="url(#67)"></g><g clip-path="url(#68)"></g><path transform="matrix(1 0 0 -1 0 595)" d="M95.904 373.99L231.144 373.99L231.144 373.99L231.144 374.83L231.144 374.83L95.904 374.83z" stroke="none" fill="#0000FF" fill-rule="evenodd" /><path transform="matrix(1 0 0 -1 0 595)" d="M238.58 373.99L378.04 373.99L378.04 373.99L378.04 374.83L378.04 374.83L238.58 374.83z" stroke="none" fill="#0000FF" fill-rule="evenodd" /><path transform="matrix(1 0 0 -1 0 595)" d="M89.88 348.67L729.7 348.67L729.7 348.67L729.7 368.11L729.7 368.11L89.88 368.11z" stroke="none" fill="#DAEEF3" fill-rule="evenodd" /><g clip-path="url(#69)"></g><g clip-path="url(#70)"></g><g clip-path="url(#71)"></g><g clip-path="url(#72)"></g><g clip-path="url(#73)"></g><g clip-path="url(#74)"></g><g clip-path="url(#75)"></g><g clip-path="url(#76)"></g><path transform="matrix(1 0 0 -1 0 595)" d="M95.904 354.67L292.124 354.67L292.124 354.67L292.124 355.51L292.124 355.51L95.904 355.51z" stroke="none" fill="#0000FF" fill-rule="evenodd" /><path transform="matrix(1 0 0 -1 0 595)" d="M302.21 354.67L481.87 354.67L481.87 354.67L481.87 355.51L481.87 355.51L302.21 355.51z" stroke="none" fill="#0000FF" fill-rule="evenodd" /></g><path transform="matrix(1 0 0 -1 0 595)" d="M84.24 485.38L84.72 485.38L84.72 485.38L84.72 485.86L84.72 485.86L84.24 485.86z" stroke="none" fill="#000000" fill-rule="evenodd" /><path transform="matrix(1 0 0 -1 0 595)" d="M84.72 485.38L734.98 485.38L734.98 485.38L734.98 485.86L734.98 485.86L84.72 485.86z" stroke="none" fill="#000000" fill-rule="evenodd" /><path transform="matrix(1 0 0 -1 0 595)" d="M734.98 485.38L735.46 485.38L735.46 485.38L735.46 485.86L735.46 485.86L734.98 485.86z" stroke="none" fill="#000000" fill-rule="evenodd" /><path transform="matrix(1 0 0 -1 0 595)" d="M84.24 348.67L84.72 348.67L84.72 348.67L84.72 485.37L84.72 485.37L84.24 485.37z" stroke="none" fill="#000000" fill-rule="evenodd" /><path transform="matrix(1 0 0 -1 0 595)" d="M84.24 348.19L84.72 348.19L84.72 348.19L84.72 348.67L84.72 348.67L84.24 348.67z" stroke="none" fill="#000000" fill-rule="evenodd" /><path transform="matrix(1 0 0 -1 0 595)" d="M84.24 348.19L84.72 348.19L84.72 348.19L84.72 348.67L84.72 348.67L84.24 348.67z" stroke="none" fill="#000000" fill-rule="evenodd" /><path transform="matrix(1 0 0 -1 0 595)" d="M84.72 348.19L734.98 348.19L734.98 348.19L734.98 348.67L734.98 348.67L84.72 348.67z" stroke="none" fill="#000000" fill-rule="evenodd" /><path transform="matrix(1 0 0 -1 0 595)" d="M734.98 348.67L735.46 348.67L735.46 348.67L735.46 485.37L735.46 485.37L734.98 485.37z" stroke="none" fill="#000000" fill-rule="evenodd" /><path transform="matrix(1 0 0 -1 0 595)" d="M734.98 348.19L735.46 348.19L735.46 348.19L735.46 348.67L735.46 348.67L734.98 348.67z" stroke="none" fill="#000000" fill-rule="evenodd" /><path transform="matrix(1 0 0 -1 0 595)" d="M734.98 348.19L735.46 348.19L735.46 348.19L735.46 348.67L735.46 348.67L734.98 348.67z" stroke="none" fill="#000000" fill-rule="evenodd" /></g></g></g></svg>