<svg xmlns="http://www.w3.org/2000/svg" xmlns:xlink="http://www.w3.org/1999/xlink" id="body_100" preserveAspectRatio="xMinYMin meet" viewBox="0 0 793 1121"><defs><clipPath id="1"><path d="M0 841L0 -0.9199829L0 -0.9199829L595.32 -0.9199829L595.32 -0.9199829L595.32 841L595.32 841L0 841z" /></clipPath><clipPath id="2"><path d="M0.00125 841.0914L595.4112 841.0914L595.4112 841.0914L595.4112 -0.9186401L595.4112 -0.9186401L0.00125 -0.9186401z" /></clipPath><clipPath id="3"><path d="M288.05 779.771L316.01 779.771L316.01 779.771L316.01 760.691L316.01 760.691L288.05 760.691z" /></clipPath><clipPath id="4"><path d="M288.05 779.776L316.01 779.776L316.01 779.776L316.01 760.696L316.01 760.696L288.05 760.696z" /></clipPath><clipPath id="5"><path d="M288.05 779.776L316.01 779.776L316.01 779.776L316.01 760.696L316.01 760.696L288.05 760.696z" /></clipPath><clipPath id="6"><path d="M8E-09 613.96L595.32 613.96L595.32 613.96L595.32 351.64L595.32 351.64L8E-09 351.64z" /></clipPath></defs><g transform="matrix(1.333333 0 0 1.333333 0 0)"><g><g clip-path="url(#1)"><path transform="matrix(1 0 0 -1 0 841)" d="M457.51 53.304L505.534 53.304L505.534 53.304L505.534 53.90404L505.534 53.90404L457.51 53.90404z" stroke="none" fill="#000000" fill-rule="evenodd" /><g clip-path="url(#2)"><path transform="matrix(1 0 0 -1 0 841)" d="M88.464 77.904L506.974 77.904L506.974 77.904L506.974 80.904L506.974 80.904L88.464 80.904z" stroke="none" fill="#000000" fill-rule="evenodd" /><path transform="matrix(1 0 0 -1 0 841)" d="M88.464 76.464L506.974 76.464L506.974 76.464L506.974 77.18397L506.974 77.18397L88.464 77.18397z" stroke="none" fill="#000000" fill-rule="evenodd" /></g><g clip-path="url(#3)"><g clip-path="url(#4)"></g><g clip-path="url(#5)"></g></g><path transform="matrix(1 0 0 -1 0 841)" d="M162.26 514.15L204.404 514.15L204.404 514.15L204.404 514.87L204.404 514.87L162.26 514.87z" stroke="none" fill="#FF0000" fill-rule="evenodd" /><path transform="matrix(1 0 0 -1 0 841)" d="M377.71 514.15L447.79 514.15L447.79 514.15L447.79 514.87L447.79 514.87L377.71 514.87z" stroke="none" fill="#FF0000" fill-rule="evenodd" /><g clip-path="url(#6)"><g transform="matrix(0.3270057 0 0 0.3269923 127.28 351.63)"><g transform="matrix(1 0 0 1 0 0)"><image x="0" y="0" xlink:href="img_117.png" width="1042" height="778" /></g></g></g></g></g></g></svg>