<svg xmlns="http://www.w3.org/2000/svg" xmlns:xlink="http://www.w3.org/1999/xlink" id="body_171" preserveAspectRatio="xMinYMin meet" viewBox="0 0 793 1121"><defs><clipPath id="1"><path d="M0 841L0 -0.9199829L0 -0.9199829L595.32 -0.9199829L595.32 -0.9199829L595.32 841L595.32 841L0 841z" /></clipPath><clipPath id="2"><path d="M0.00125 841.0914L595.4112 841.0914L595.4112 841.0914L595.4112 -0.9186401L595.4112 -0.9186401L0.00125 -0.9186401z" /></clipPath><clipPath id="3"><path d="M288.05 781.211L316.01 781.211L316.01 781.211L316.01 762.011L316.01 762.011L288.05 762.011z" /></clipPath><clipPath id="4"><path d="M288.05 781.216L316.01 781.216L316.01 781.216L316.01 762.016L316.01 762.016L288.05 762.016z" /></clipPath><clipPath id="5"><path d="M288.05 781.216L316.01 781.216L316.01 781.216L316.01 762.016L316.01 762.016L288.05 762.016z" /></clipPath><clipPath id="6"><path d="M84.751 114.55L140.671 114.55L140.671 114.55L140.671 89.44L140.671 89.44L84.751 89.44z" /></clipPath><clipPath id="7"><path d="M84.744 114.54L140.664 114.54L140.664 114.54L140.664 89.43597L140.664 89.43597L84.744 89.43597z" /></clipPath><clipPath id="8"><path d="M84.744 114.54L140.664 114.54L140.664 114.54L140.664 89.43597L140.664 89.43597L84.744 89.43597z" /></clipPath><clipPath id="9"><path d="M141.15 114.55L183.27 114.55L183.27 114.55L183.27 89.44L183.27 89.44L141.15 89.44z" /></clipPath><clipPath id="10"><path d="M141.14 114.54L183.26 114.54L183.26 114.54L183.26 89.43597L183.26 89.43597L141.14 89.43597z" /></clipPath><clipPath id="11"><path d="M141.14 114.54L183.26 114.54L183.26 114.54L183.26 89.43597L183.26 89.43597L141.14 89.43597z" /></clipPath><clipPath id="12"><path d="M183.75 114.55L243.045 114.55L243.045 114.55L243.045 89.44L243.045 89.44L183.75 89.44z" /></clipPath><clipPath id="13"><path d="M183.74 114.54L243.044 114.54L243.044 114.54L243.044 89.43597L243.044 89.43597L183.74 89.43597z" /></clipPath><clipPath id="14"><path d="M183.74 114.54L243.044 114.54L243.044 114.54L243.044 89.43597L243.044 89.43597L183.74 89.43597z" /></clipPath><clipPath id="15"><path d="M243.65 114.55L305.69 114.55L305.69 114.55L305.69 89.44L305.69 89.44L243.65 89.44z" /></clipPath><clipPath id="16"><path d="M243.65 114.54L305.69 114.54L305.69 114.54L305.69 89.43597L305.69 89.43597L243.65 89.43597z" /></clipPath><clipPath id="17"><path d="M243.65 114.54L305.69 114.54L305.69 114.54L305.69 89.43597L305.69 89.43597L243.65 89.43597z" /></clipPath><clipPath id="18"><path d="M306.17 114.55L499.42 114.55L499.42 114.55L499.42 89.44L499.42 89.44L306.17 89.44z" /></clipPath><clipPath id="19"><path d="M306.17 114.54L499.42 114.54L499.42 114.54L499.42 89.43597L499.42 89.43597L306.17 89.43597z" /></clipPath><clipPath id="20"><path d="M306.17 114.54L499.42 114.54L499.42 114.54L499.42 89.43597L499.42 89.43597L306.17 89.43597z" /></clipPath><clipPath id="21"><path d="M84.751 140.11L140.671 140.11L140.671 140.11L140.671 115.03L140.671 115.03L84.751 115.03z" /></clipPath><clipPath id="22"><path d="M84.744 140.1L140.664 140.1L140.664 140.1L140.664 115.02L140.664 115.02L84.744 115.02z" /></clipPath><clipPath id="23"><path d="M84.744 140.1L140.664 140.1L140.664 140.1L140.664 115.02L140.664 115.02L84.744 115.02z" /></clipPath><clipPath id="24"><path d="M141.15 140.11L183.27 140.11L183.27 140.11L183.27 115.03L183.27 115.03L141.15 115.03z" /></clipPath><clipPath id="25"><path d="M141.14 140.1L183.26 140.1L183.26 140.1L183.26 115.02L183.26 115.02L141.14 115.02z" /></clipPath><clipPath id="26"><path d="M141.14 140.1L183.26 140.1L183.26 140.1L183.26 115.02L183.26 115.02L141.14 115.02z" /></clipPath><clipPath id="27"><path d="M183.75 140.11L243.045 140.11L243.045 140.11L243.045 115.03L243.045 115.03L183.75 115.03z" /></clipPath><clipPath id="28"><path d="M183.74 140.1L243.044 140.1L243.044 140.1L243.044 115.02L243.044 115.02L183.74 115.02z" /></clipPath><clipPath id="29"><path d="M183.74 140.1L243.044 140.1L243.044 140.1L243.044 115.02L243.044 115.02L183.74 115.02z" /></clipPath><clipPath id="30"><path d="M243.65 140.11L305.69 140.11L305.69 140.11L305.69 115.03L305.69 115.03L243.65 115.03z" /></clipPath><clipPath id="31"><path d="M243.65 140.1L305.69 140.1L305.69 140.1L305.69 115.02L305.69 115.02L243.65 115.02z" /></clipPath><clipPath id="32"><path d="M243.65 140.1L305.69 140.1L305.69 140.1L305.69 115.02L305.69 115.02L243.65 115.02z" /></clipPath><clipPath id="33"><path d="M306.17 140.11L499.42 140.11L499.42 140.11L499.42 115.03L499.42 115.03L306.17 115.03z" /></clipPath><clipPath id="34"><path d="M306.17 140.1L499.42 140.1L499.42 140.1L499.42 115.02L499.42 115.02L306.17 115.02z" /></clipPath><clipPath id="35"><path d="M306.17 140.1L499.42 140.1L499.42 140.1L499.42 115.02L499.42 115.02L306.17 115.02z" /></clipPath><clipPath id="36"><path d="M306.17 140.1L499.42 140.1L499.42 140.1L499.42 115.02L499.42 115.02L306.17 115.02z" /></clipPath><clipPath id="37"><path d="M306.17 140.1L499.42 140.1L499.42 140.1L499.42 115.02L499.42 115.02L306.17 115.02z" /></clipPath></defs><g transform="matrix(1.333333 0 0 1.333333 0 0)"><g><g clip-path="url(#1)"><path transform="matrix(1 0 0 -1 0 841)" d="M457.51 53.304L505.534 53.304L505.534 53.304L505.534 53.90404L505.534 53.90404L457.51 53.90404z" stroke="none" fill="#000000" fill-rule="evenodd" /><g clip-path="url(#2)"><path transform="matrix(1 0 0 -1 0 841)" d="M88.464 77.904L506.974 77.904L506.974 77.904L506.974 80.904L506.974 80.904L88.464 80.904z" stroke="none" fill="#000000" fill-rule="evenodd" /><path transform="matrix(1 0 0 -1 0 841)" d="M88.464 76.464L506.974 76.464L506.974 76.464L506.974 77.18397L506.974 77.18397L88.464 77.18397z" stroke="none" fill="#000000" fill-rule="evenodd" /></g><g clip-path="url(#3)"><g clip-path="url(#4)"></g><g clip-path="url(#5)"></g></g><path transform="matrix(1 0 0 -1 0 841)" d="M84.744 726.46L140.664 726.46L140.664 726.46L140.664 751.564L140.664 751.564L84.744 751.564z" stroke="none" fill="#0070C0" fill-rule="evenodd" /><g clip-path="url(#6)"><path transform="matrix(1 0 0 -1 0 841)" d="M89.904 726.46L135.504 726.46L135.504 726.46L135.504 751.564L135.504 751.564L89.904 751.564z" stroke="none" fill="#0070C0" fill-rule="evenodd" /><g clip-path="url(#7)"></g><g clip-path="url(#8)"></g></g><path transform="matrix(1 0 0 -1 0 841)" d="M141.14 726.46L183.26 726.46L183.26 726.46L183.26 751.564L183.26 751.564L141.14 751.564z" stroke="none" fill="#0070C0" fill-rule="evenodd" /><g clip-path="url(#9)"><path transform="matrix(1 0 0 -1 0 841)" d="M146.3 726.46L178.1 726.46L178.1 726.46L178.1 751.564L178.1 751.564L146.3 751.564z" stroke="none" fill="#0070C0" fill-rule="evenodd" /><g clip-path="url(#10)"></g><g clip-path="url(#11)"></g></g><path transform="matrix(1 0 0 -1 0 841)" d="M183.74 726.46L243.044 726.46L243.044 726.46L243.044 751.564L243.044 751.564L183.74 751.564z" stroke="none" fill="#0070C0" fill-rule="evenodd" /><g clip-path="url(#12)"><path transform="matrix(1 0 0 -1 0 841)" d="M188.9 726.46L238.004 726.46L238.004 726.46L238.004 751.564L238.004 751.564L188.9 751.564z" stroke="none" fill="#0070C0" fill-rule="evenodd" /><g clip-path="url(#13)"></g><g clip-path="url(#14)"></g></g><path transform="matrix(1 0 0 -1 0 841)" d="M243.65 726.46L305.69 726.46L305.69 726.46L305.69 751.564L305.69 751.564L243.65 751.564z" stroke="none" fill="#0070C0" fill-rule="evenodd" /><g clip-path="url(#15)"><path transform="matrix(1 0 0 -1 0 841)" d="M248.69 726.46L300.53 726.46L300.53 726.46L300.53 751.564L300.53 751.564L248.69 751.564z" stroke="none" fill="#0070C0" fill-rule="evenodd" /><g clip-path="url(#16)"></g><g clip-path="url(#17)"></g></g><path transform="matrix(1 0 0 -1 0 841)" d="M306.17 726.46L499.42 726.46L499.42 726.46L499.42 751.564L499.42 751.564L306.17 751.564z" stroke="none" fill="#0070C0" fill-rule="evenodd" /><g clip-path="url(#18)"><path transform="matrix(1 0 0 -1 0 841)" d="M311.33 726.46L494.26 726.46L494.26 726.46L494.26 751.564L494.26 751.564L311.33 751.564z" stroke="none" fill="#0070C0" fill-rule="evenodd" /><g clip-path="url(#19)"></g><g clip-path="url(#20)"></g></g><path transform="matrix(1 0 0 -1 0 841)" d="M84.264 751.56L84.744 751.56L84.744 751.56L84.744 752.04L84.744 752.04L84.264 752.04z" stroke="none" fill="#000000" fill-rule="evenodd" /><path transform="matrix(1 0 0 -1 0 841)" d="M84.264 751.56L84.744 751.56L84.744 751.56L84.744 752.04L84.744 752.04L84.264 752.04z" stroke="none" fill="#000000" fill-rule="evenodd" /><path transform="matrix(1 0 0 -1 0 841)" d="M84.744 751.56L140.664 751.56L140.664 751.56L140.664 752.04L140.664 752.04L84.744 752.04z" stroke="none" fill="#000000" fill-rule="evenodd" /><path transform="matrix(1 0 0 -1 0 841)" d="M140.66 751.56L141.14 751.56L141.14 751.56L141.14 752.04L141.14 752.04L140.66 752.04z" stroke="none" fill="#000000" fill-rule="evenodd" /><path transform="matrix(1 0 0 -1 0 841)" d="M141.14 751.56L183.26 751.56L183.26 751.56L183.26 752.04L183.26 752.04L141.14 752.04z" stroke="none" fill="#000000" fill-rule="evenodd" /><path transform="matrix(1 0 0 -1 0 841)" d="M183.26 751.56L183.74 751.56L183.74 751.56L183.74 752.04L183.74 752.04L183.26 752.04z" stroke="none" fill="#000000" fill-rule="evenodd" /><path transform="matrix(1 0 0 -1 0 841)" d="M183.74 751.56L243.164 751.56L243.164 751.56L243.164 752.04L243.164 752.04L183.74 752.04z" stroke="none" fill="#000000" fill-rule="evenodd" /><path transform="matrix(1 0 0 -1 0 841)" d="M243.17 751.56L243.65 751.56L243.65 751.56L243.65 752.04L243.65 752.04L243.17 752.04z" stroke="none" fill="#000000" fill-rule="evenodd" /><path transform="matrix(1 0 0 -1 0 841)" d="M243.65 751.56L305.69 751.56L305.69 751.56L305.69 752.04L305.69 752.04L243.65 752.04z" stroke="none" fill="#000000" fill-rule="evenodd" /><path transform="matrix(1 0 0 -1 0 841)" d="M305.69 751.56L306.17 751.56L306.17 751.56L306.17 752.04L306.17 752.04L305.69 752.04z" stroke="none" fill="#000000" fill-rule="evenodd" /><path transform="matrix(1 0 0 -1 0 841)" d="M306.17 751.56L499.42 751.56L499.42 751.56L499.42 752.04L499.42 752.04L306.17 752.04z" stroke="none" fill="#000000" fill-rule="evenodd" /><path transform="matrix(1 0 0 -1 0 841)" d="M499.42 751.56L499.9 751.56L499.9 751.56L499.9 752.04L499.9 752.04L499.42 752.04z" stroke="none" fill="#000000" fill-rule="evenodd" /><path transform="matrix(1 0 0 -1 0 841)" d="M499.42 751.56L499.9 751.56L499.9 751.56L499.9 752.04L499.9 752.04L499.42 752.04z" stroke="none" fill="#000000" fill-rule="evenodd" /><path transform="matrix(1 0 0 -1 0 841)" d="M84.264 726.46L84.744 726.46L84.744 726.46L84.744 751.564L84.744 751.564L84.264 751.564z" stroke="none" fill="#000000" fill-rule="evenodd" /><path transform="matrix(1 0 0 -1 0 841)" d="M140.66 726.46L141.14 726.46L141.14 726.46L141.14 751.564L141.14 751.564L140.66 751.564z" stroke="none" fill="#000000" fill-rule="evenodd" /><path transform="matrix(1 0 0 -1 0 841)" d="M183.26 726.46L183.74 726.46L183.74 726.46L183.74 751.564L183.74 751.564L183.26 751.564z" stroke="none" fill="#000000" fill-rule="evenodd" /><path transform="matrix(1 0 0 -1 0 841)" d="M243.17 726.46L243.65 726.46L243.65 726.46L243.65 751.564L243.65 751.564L243.17 751.564z" stroke="none" fill="#000000" fill-rule="evenodd" /><path transform="matrix(1 0 0 -1 0 841)" d="M305.69 726.46L306.17 726.46L306.17 726.46L306.17 751.564L306.17 751.564L305.69 751.564z" stroke="none" fill="#000000" fill-rule="evenodd" /><path transform="matrix(1 0 0 -1 0 841)" d="M499.42 726.46L499.9 726.46L499.9 726.46L499.9 751.564L499.9 751.564L499.42 751.564z" stroke="none" fill="#000000" fill-rule="evenodd" /><g clip-path="url(#21)"><g clip-path="url(#22)"></g><g clip-path="url(#23)"></g></g><g clip-path="url(#24)"><g clip-path="url(#25)"></g><g clip-path="url(#26)"></g></g><g clip-path="url(#27)"><g clip-path="url(#28)"></g><g clip-path="url(#29)"></g></g><g clip-path="url(#30)"><g clip-path="url(#31)"></g><g clip-path="url(#32)"></g></g><g clip-path="url(#33)"><g clip-path="url(#34)"></g><g clip-path="url(#35)"></g><g clip-path="url(#36)"></g><g clip-path="url(#37)"></g></g><path transform="matrix(1 0 0 -1 0 841)" d="M84.264 725.98L84.744 725.98L84.744 725.98L84.744 726.46L84.744 726.46L84.264 726.46z" stroke="none" fill="#000000" fill-rule="evenodd" /><path transform="matrix(1 0 0 -1 0 841)" d="M84.744 725.98L140.664 725.98L140.664 725.98L140.664 726.46L140.664 726.46L84.744 726.46z" stroke="none" fill="#000000" fill-rule="evenodd" /><path transform="matrix(1 0 0 -1 0 841)" d="M140.66 725.98L141.14 725.98L141.14 725.98L141.14 726.46L141.14 726.46L140.66 726.46z" stroke="none" fill="#000000" fill-rule="evenodd" /><path transform="matrix(1 0 0 -1 0 841)" d="M141.14 725.98L183.26 725.98L183.26 725.98L183.26 726.46L183.26 726.46L141.14 726.46z" stroke="none" fill="#000000" fill-rule="evenodd" /><path transform="matrix(1 0 0 -1 0 841)" d="M183.26 725.98L183.74 725.98L183.74 725.98L183.74 726.46L183.74 726.46L183.26 726.46z" stroke="none" fill="#000000" fill-rule="evenodd" /><path transform="matrix(1 0 0 -1 0 841)" d="M183.74 725.98L243.164 725.98L243.164 725.98L243.164 726.46L243.164 726.46L183.74 726.46z" stroke="none" fill="#000000" fill-rule="evenodd" /><path transform="matrix(1 0 0 -1 0 841)" d="M243.17 725.98L243.65 725.98L243.65 725.98L243.65 726.46L243.65 726.46L243.17 726.46z" stroke="none" fill="#000000" fill-rule="evenodd" /><path transform="matrix(1 0 0 -1 0 841)" d="M243.65 725.98L305.69 725.98L305.69 725.98L305.69 726.46L305.69 726.46L243.65 726.46z" stroke="none" fill="#000000" fill-rule="evenodd" /><path transform="matrix(1 0 0 -1 0 841)" d="M305.69 725.98L306.17 725.98L306.17 725.98L306.17 726.46L306.17 726.46L305.69 726.46z" stroke="none" fill="#000000" fill-rule="evenodd" /><path transform="matrix(1 0 0 -1 0 841)" d="M306.17 725.98L499.42 725.98L499.42 725.98L499.42 726.46L499.42 726.46L306.17 726.46z" stroke="none" fill="#000000" fill-rule="evenodd" /><path transform="matrix(1 0 0 -1 0 841)" d="M499.42 725.98L499.9 725.98L499.9 725.98L499.9 726.46L499.9 726.46L499.42 726.46z" stroke="none" fill="#000000" fill-rule="evenodd" /><path transform="matrix(1 0 0 -1 0 841)" d="M84.264 700.9L84.744 700.9L84.744 700.9L84.744 725.98L84.744 725.98L84.264 725.98z" stroke="none" fill="#000000" fill-rule="evenodd" /><path transform="matrix(1 0 0 -1 0 841)" d="M84.264 700.42L84.744 700.42L84.744 700.42L84.744 700.9L84.744 700.9L84.264 700.9z" stroke="none" fill="#000000" fill-rule="evenodd" /><path transform="matrix(1 0 0 -1 0 841)" d="M84.264 700.42L84.744 700.42L84.744 700.42L84.744 700.9L84.744 700.9L84.264 700.9z" stroke="none" fill="#000000" fill-rule="evenodd" /><path transform="matrix(1 0 0 -1 0 841)" d="M84.744 700.42L140.664 700.42L140.664 700.42L140.664 700.9L140.664 700.9L84.744 700.9z" stroke="none" fill="#000000" fill-rule="evenodd" /><path transform="matrix(1 0 0 -1 0 841)" d="M140.66 700.9L141.14 700.9L141.14 700.9L141.14 725.98L141.14 725.98L140.66 725.98z" stroke="none" fill="#000000" fill-rule="evenodd" /><path transform="matrix(1 0 0 -1 0 841)" d="M140.66 700.42L141.14 700.42L141.14 700.42L141.14 700.9L141.14 700.9L140.66 700.9z" stroke="none" fill="#000000" fill-rule="evenodd" /><path transform="matrix(1 0 0 -1 0 841)" d="M141.14 700.42L183.26 700.42L183.26 700.42L183.26 700.9L183.26 700.9L141.14 700.9z" stroke="none" fill="#000000" fill-rule="evenodd" /><path transform="matrix(1 0 0 -1 0 841)" d="M183.26 700.9L183.74 700.9L183.74 700.9L183.74 725.98L183.74 725.98L183.26 725.98z" stroke="none" fill="#000000" fill-rule="evenodd" /><path transform="matrix(1 0 0 -1 0 841)" d="M183.26 700.42L183.74 700.42L183.74 700.42L183.74 700.9L183.74 700.9L183.26 700.9z" stroke="none" fill="#000000" fill-rule="evenodd" /><path transform="matrix(1 0 0 -1 0 841)" d="M183.74 700.42L243.164 700.42L243.164 700.42L243.164 700.9L243.164 700.9L183.74 700.9z" stroke="none" fill="#000000" fill-rule="evenodd" /><path transform="matrix(1 0 0 -1 0 841)" d="M243.17 700.9L243.65 700.9L243.65 700.9L243.65 725.98L243.65 725.98L243.17 725.98z" stroke="none" fill="#000000" fill-rule="evenodd" /><path transform="matrix(1 0 0 -1 0 841)" d="M243.17 700.42L243.65 700.42L243.65 700.42L243.65 700.9L243.65 700.9L243.17 700.9z" stroke="none" fill="#000000" fill-rule="evenodd" /><path transform="matrix(1 0 0 -1 0 841)" d="M243.65 700.42L305.69 700.42L305.69 700.42L305.69 700.9L305.69 700.9L243.65 700.9z" stroke="none" fill="#000000" fill-rule="evenodd" /><path transform="matrix(1 0 0 -1 0 841)" d="M305.69 700.9L306.17 700.9L306.17 700.9L306.17 725.98L306.17 725.98L305.69 725.98z" stroke="none" fill="#000000" fill-rule="evenodd" /><path transform="matrix(1 0 0 -1 0 841)" d="M305.69 700.42L306.17 700.42L306.17 700.42L306.17 700.9L306.17 700.9L305.69 700.9z" stroke="none" fill="#000000" fill-rule="evenodd" /><path transform="matrix(1 0 0 -1 0 841)" d="M306.17 700.42L499.42 700.42L499.42 700.42L499.42 700.9L499.42 700.9L306.17 700.9z" stroke="none" fill="#000000" fill-rule="evenodd" /><path transform="matrix(1 0 0 -1 0 841)" d="M499.42 700.9L499.9 700.9L499.9 700.9L499.9 725.98L499.9 725.98L499.42 725.98z" stroke="none" fill="#000000" fill-rule="evenodd" /><path transform="matrix(1 0 0 -1 0 841)" d="M499.42 700.42L499.9 700.42L499.9 700.42L499.9 700.9L499.9 700.9L499.42 700.9z" stroke="none" fill="#000000" fill-rule="evenodd" /><path transform="matrix(1 0 0 -1 0 841)" d="M499.42 700.42L499.9 700.42L499.9 700.42L499.9 700.9L499.9 700.9L499.42 700.9z" stroke="none" fill="#000000" fill-rule="evenodd" /></g></g></g></svg>