<svg xmlns="http://www.w3.org/2000/svg" xmlns:xlink="http://www.w3.org/1999/xlink" id="body_169" preserveAspectRatio="xMinYMin meet" viewBox="0 0 793 1121"><defs><clipPath id="1"><path d="M0 841L0 -0.9199829L0 -0.9199829L595.32 -0.9199829L595.32 -0.9199829L595.32 841L595.32 841L0 841z" /></clipPath><clipPath id="2"><path d="M0.00125 841.0914L595.4112 841.0914L595.4112 841.0914L595.4112 -0.9186401L595.4112 -0.9186401L0.00125 -0.9186401z" /></clipPath><clipPath id="3"><path d="M288.05 781.211L316.01 781.211L316.01 781.211L316.01 762.011L316.01 762.011L288.05 762.011z" /></clipPath><clipPath id="4"><path d="M288.05 781.216L316.01 781.216L316.01 781.216L316.01 762.016L316.01 762.016L288.05 762.016z" /></clipPath><clipPath id="5"><path d="M288.05 781.216L316.01 781.216L316.01 781.216L316.01 762.016L316.01 762.016L288.05 762.016z" /></clipPath><clipPath id="6"><path d="M84.751 290.13L163.711 290.13L163.711 290.13L163.711 250.395L163.711 250.395L84.751 250.395z" /></clipPath><clipPath id="7"><path d="M84.744 290.13L163.704 290.13L163.704 290.13L163.704 250.386L163.704 250.386L84.744 250.386z" /></clipPath><clipPath id="8"><path d="M84.744 290.13L163.704 290.13L163.704 290.13L163.704 250.386L163.704 250.386L84.744 250.386z" /></clipPath><clipPath id="9"><path d="M164.19 290.13L212.565 290.13L212.565 290.13L212.565 250.395L212.565 250.395L164.19 250.395z" /></clipPath><clipPath id="10"><path d="M164.18 290.13L212.564 290.13L212.564 290.13L212.564 250.386L212.564 250.386L164.18 250.386z" /></clipPath><clipPath id="11"><path d="M164.18 290.13L212.564 290.13L212.564 290.13L212.564 250.386L212.564 250.386L164.18 250.386z" /></clipPath><clipPath id="12"><path d="M213.05 290.13L264.17 290.13L264.17 290.13L264.17 250.395L264.17 250.395L213.05 250.395z" /></clipPath><clipPath id="13"><path d="M213.05 290.13L264.17 290.13L264.17 290.13L264.17 250.386L264.17 250.386L213.05 250.386z" /></clipPath><clipPath id="14"><path d="M213.05 290.13L264.17 290.13L264.17 290.13L264.17 250.386L264.17 250.386L213.05 250.386z" /></clipPath><clipPath id="15"><path d="M264.65 290.13L325.01 290.13L325.01 290.13L325.01 250.395L325.01 250.395L264.65 250.395z" /></clipPath><clipPath id="16"><path d="M264.65 290.13L325.01 290.13L325.01 290.13L325.01 250.386L325.01 250.386L264.65 250.386z" /></clipPath><clipPath id="17"><path d="M264.65 290.13L325.01 290.13L325.01 290.13L325.01 250.386L325.01 250.386L264.65 250.386z" /></clipPath><clipPath id="18"><path d="M325.49 290.13L499.42 290.13L499.42 290.13L499.42 250.395L499.42 250.395L325.49 250.395z" /></clipPath><clipPath id="19"><path d="M325.49 290.13L499.42 290.13L499.42 290.13L499.42 250.386L499.42 250.386L325.49 250.386z" /></clipPath><clipPath id="20"><path d="M325.49 290.13L499.42 290.13L499.42 290.13L499.42 250.386L499.42 250.386L325.49 250.386z" /></clipPath><clipPath id="21"><path d="M84.751 318.21L163.711 318.21L163.711 318.21L163.711 290.61L163.711 290.61L84.751 290.61z" /></clipPath><clipPath id="22"><path d="M84.744 318.21L163.704 318.21L163.704 318.21L163.704 290.61L163.704 290.61L84.744 290.61z" /></clipPath><clipPath id="23"><path d="M84.744 318.21L163.704 318.21L163.704 318.21L163.704 290.61L163.704 290.61L84.744 290.61z" /></clipPath><clipPath id="24"><path d="M164.19 318.21L212.565 318.21L212.565 318.21L212.565 290.61L212.565 290.61L164.19 290.61z" /></clipPath><clipPath id="25"><path d="M164.18 318.21L212.564 318.21L212.564 318.21L212.564 290.61L212.564 290.61L164.18 290.61z" /></clipPath><clipPath id="26"><path d="M164.18 318.21L212.564 318.21L212.564 318.21L212.564 290.61L212.564 290.61L164.18 290.61z" /></clipPath><clipPath id="27"><path d="M213.05 318.21L264.17 318.21L264.17 318.21L264.17 290.61L264.17 290.61L213.05 290.61z" /></clipPath><clipPath id="28"><path d="M213.05 318.21L264.17 318.21L264.17 318.21L264.17 290.61L264.17 290.61L213.05 290.61z" /></clipPath><clipPath id="29"><path d="M213.05 318.21L264.17 318.21L264.17 318.21L264.17 290.61L264.17 290.61L213.05 290.61z" /></clipPath><clipPath id="30"><path d="M264.65 318.21L325.01 318.21L325.01 318.21L325.01 290.61L325.01 290.61L264.65 290.61z" /></clipPath><clipPath id="31"><path d="M264.65 318.21L325.01 318.21L325.01 318.21L325.01 290.61L325.01 290.61L264.65 290.61z" /></clipPath><clipPath id="32"><path d="M264.65 318.21L325.01 318.21L325.01 318.21L325.01 290.61L325.01 290.61L264.65 290.61z" /></clipPath><clipPath id="33"><path d="M325.49 318.21L499.42 318.21L499.42 318.21L499.42 290.61L499.42 290.61L325.49 290.61z" /></clipPath><clipPath id="34"><path d="M325.49 318.21L499.42 318.21L499.42 318.21L499.42 290.61L499.42 290.61L325.49 290.61z" /></clipPath><clipPath id="35"><path d="M325.49 318.21L499.42 318.21L499.42 318.21L499.42 290.61L499.42 290.61L325.49 290.61z" /></clipPath><clipPath id="36"><path d="M84.751 346.41L163.711 346.41L163.711 346.41L163.711 318.81L163.711 318.81L84.751 318.81z" /></clipPath><clipPath id="37"><path d="M84.744 346.41L163.704 346.41L163.704 346.41L163.704 318.81L163.704 318.81L84.744 318.81z" /></clipPath><clipPath id="38"><path d="M84.744 346.41L163.704 346.41L163.704 346.41L163.704 318.81L163.704 318.81L84.744 318.81z" /></clipPath><clipPath id="39"><path d="M164.19 346.41L212.565 346.41L212.565 346.41L212.565 318.81L212.565 318.81L164.19 318.81z" /></clipPath><clipPath id="40"><path d="M164.18 346.41L212.564 346.41L212.564 346.41L212.564 318.81L212.564 318.81L164.18 318.81z" /></clipPath><clipPath id="41"><path d="M164.18 346.41L212.564 346.41L212.564 346.41L212.564 318.81L212.564 318.81L164.18 318.81z" /></clipPath><clipPath id="42"><path d="M213.05 346.41L264.17 346.41L264.17 346.41L264.17 318.81L264.17 318.81L213.05 318.81z" /></clipPath><clipPath id="43"><path d="M213.05 346.41L264.17 346.41L264.17 346.41L264.17 318.81L264.17 318.81L213.05 318.81z" /></clipPath><clipPath id="44"><path d="M213.05 346.41L264.17 346.41L264.17 346.41L264.17 318.81L264.17 318.81L213.05 318.81z" /></clipPath><clipPath id="45"><path d="M264.65 346.41L325.01 346.41L325.01 346.41L325.01 318.81L325.01 318.81L264.65 318.81z" /></clipPath><clipPath id="46"><path d="M264.65 346.41L325.01 346.41L325.01 346.41L325.01 318.81L325.01 318.81L264.65 318.81z" /></clipPath><clipPath id="47"><path d="M264.65 346.41L325.01 346.41L325.01 346.41L325.01 318.81L325.01 318.81L264.65 318.81z" /></clipPath><clipPath id="48"><path d="M325.49 346.41L499.42 346.41L499.42 346.41L499.42 318.81L499.42 318.81L325.49 318.81z" /></clipPath><clipPath id="49"><path d="M325.49 346.41L499.42 346.41L499.42 346.41L499.42 318.81L499.42 318.81L325.49 318.81z" /></clipPath><clipPath id="50"><path d="M325.49 346.41L499.42 346.41L499.42 346.41L499.42 318.81L499.42 318.81L325.49 318.81z" /></clipPath><clipPath id="51"><path d="M325.49 346.41L499.42 346.41L499.42 346.41L499.42 318.81L499.42 318.81L325.49 318.81z" /></clipPath><clipPath id="52"><path d="M325.49 346.41L499.42 346.41L499.42 346.41L499.42 318.81L499.42 318.81L325.49 318.81z" /></clipPath><clipPath id="53"><path d="M84.751 434.37L163.711 434.37L163.711 434.37L163.711 346.89L163.711 346.89L84.751 346.89z" /></clipPath><clipPath id="54"><path d="M84.744 434.37L163.704 434.37L163.704 434.37L163.704 346.89L163.704 346.89L84.744 346.89z" /></clipPath><clipPath id="55"><path d="M84.744 434.37L163.704 434.37L163.704 434.37L163.704 346.89L163.704 346.89L84.744 346.89z" /></clipPath><clipPath id="56"><path d="M164.19 434.37L212.565 434.37L212.565 434.37L212.565 346.89L212.565 346.89L164.19 346.89z" /></clipPath><clipPath id="57"><path d="M164.18 434.37L212.564 434.37L212.564 434.37L212.564 346.89L212.564 346.89L164.18 346.89z" /></clipPath><clipPath id="58"><path d="M164.18 434.37L212.564 434.37L212.564 434.37L212.564 346.89L212.564 346.89L164.18 346.89z" /></clipPath><clipPath id="59"><path d="M213.05 434.37L264.17 434.37L264.17 434.37L264.17 346.89L264.17 346.89L213.05 346.89z" /></clipPath><clipPath id="60"><path d="M213.05 434.37L264.17 434.37L264.17 434.37L264.17 346.89L264.17 346.89L213.05 346.89z" /></clipPath><clipPath id="61"><path d="M213.05 434.37L264.17 434.37L264.17 434.37L264.17 346.89L264.17 346.89L213.05 346.89z" /></clipPath><clipPath id="62"><path d="M264.65 434.37L325.01 434.37L325.01 434.37L325.01 346.89L325.01 346.89L264.65 346.89z" /></clipPath><clipPath id="63"><path d="M264.65 434.37L325.01 434.37L325.01 434.37L325.01 346.89L325.01 346.89L264.65 346.89z" /></clipPath><clipPath id="64"><path d="M325.49 434.37L499.42 434.37L499.42 434.37L499.42 346.89L499.42 346.89L325.49 346.89z" /></clipPath><clipPath id="65"><path d="M325.49 434.37L499.42 434.37L499.42 434.37L499.42 346.89L499.42 346.89L325.49 346.89z" /></clipPath><clipPath id="66"><path d="M325.49 434.37L499.42 434.37L499.42 434.37L499.42 346.89L499.42 346.89L325.49 346.89z" /></clipPath><clipPath id="67"><path d="M325.49 434.37L499.42 434.37L499.42 434.37L499.42 346.89L499.42 346.89L325.49 346.89z" /></clipPath><clipPath id="68"><path d="M325.49 434.37L499.42 434.37L499.42 434.37L499.42 346.89L499.42 346.89L325.49 346.89z" /></clipPath><clipPath id="69"><path d="M325.49 434.37L499.42 434.37L499.42 434.37L499.42 346.89L499.42 346.89L325.49 346.89z" /></clipPath><clipPath id="70"><path d="M325.49 434.37L499.42 434.37L499.42 434.37L499.42 346.89L499.42 346.89L325.49 346.89z" /></clipPath><clipPath id="71"><path d="M325.49 434.37L499.42 434.37L499.42 434.37L499.42 346.89L499.42 346.89L325.49 346.89z" /></clipPath><clipPath id="72"><path d="M325.49 434.37L499.42 434.37L499.42 434.37L499.42 346.89L499.42 346.89L325.49 346.89z" /></clipPath><clipPath id="73"><path d="M325.49 434.37L499.42 434.37L499.42 434.37L499.42 346.89L499.42 346.89L325.49 346.89z" /></clipPath><clipPath id="74"><path d="M325.49 434.37L499.42 434.37L499.42 434.37L499.42 346.89L499.42 346.89L325.49 346.89z" /></clipPath><clipPath id="75"><path d="M325.49 434.37L499.42 434.37L499.42 434.37L499.42 346.89L499.42 346.89L325.49 346.89z" /></clipPath><clipPath id="76"><path d="M325.49 434.37L499.42 434.37L499.42 434.37L499.42 346.89L499.42 346.89L325.49 346.89z" /></clipPath><clipPath id="77"><path d="M84.751 478.68L163.711 478.68L163.711 478.68L163.711 434.97L163.711 434.97L84.751 434.97z" /></clipPath><clipPath id="78"><path d="M84.744 478.67L163.704 478.67L163.704 478.67L163.704 434.966L163.704 434.966L84.744 434.966z" /></clipPath><clipPath id="79"><path d="M84.744 478.67L163.704 478.67L163.704 478.67L163.704 434.966L163.704 434.966L84.744 434.966z" /></clipPath><clipPath id="80"><path d="M164.19 478.68L212.565 478.68L212.565 478.68L212.565 434.97L212.565 434.97L164.19 434.97z" /></clipPath><clipPath id="81"><path d="M164.18 478.67L212.564 478.67L212.564 478.67L212.564 434.966L212.564 434.966L164.18 434.966z" /></clipPath><clipPath id="82"><path d="M164.18 478.67L212.564 478.67L212.564 478.67L212.564 434.966L212.564 434.966L164.18 434.966z" /></clipPath><clipPath id="83"><path d="M213.05 478.68L264.17 478.68L264.17 478.68L264.17 434.97L264.17 434.97L213.05 434.97z" /></clipPath><clipPath id="84"><path d="M213.05 478.67L264.17 478.67L264.17 478.67L264.17 434.966L264.17 434.966L213.05 434.966z" /></clipPath><clipPath id="85"><path d="M213.05 478.67L264.17 478.67L264.17 478.67L264.17 434.966L264.17 434.966L213.05 434.966z" /></clipPath><clipPath id="86"><path d="M264.65 478.68L325.01 478.68L325.01 478.68L325.01 434.97L325.01 434.97L264.65 434.97z" /></clipPath><clipPath id="87"><path d="M264.65 478.67L325.01 478.67L325.01 478.67L325.01 434.966L325.01 434.966L264.65 434.966z" /></clipPath><clipPath id="88"><path d="M264.65 478.67L325.01 478.67L325.01 478.67L325.01 434.966L325.01 434.966L264.65 434.966z" /></clipPath><clipPath id="89"><path d="M264.65 478.67L325.01 478.67L325.01 478.67L325.01 434.966L325.01 434.966L264.65 434.966z" /></clipPath><clipPath id="90"><path d="M325.49 478.68L499.42 478.68L499.42 478.68L499.42 434.97L499.42 434.97L325.49 434.97z" /></clipPath><clipPath id="91"><path d="M325.49 478.67L499.42 478.67L499.42 478.67L499.42 434.966L499.42 434.966L325.49 434.966z" /></clipPath><clipPath id="92"><path d="M325.49 478.67L499.42 478.67L499.42 478.67L499.42 434.966L499.42 434.966L325.49 434.966z" /></clipPath><clipPath id="93"><path d="M325.49 478.67L499.42 478.67L499.42 478.67L499.42 434.966L499.42 434.966L325.49 434.966z" /></clipPath><clipPath id="94"><path d="M325.49 478.67L499.42 478.67L499.42 478.67L499.42 434.966L499.42 434.966L325.49 434.966z" /></clipPath><clipPath id="95"><path d="M325.49 478.67L499.42 478.67L499.42 478.67L499.42 434.966L499.42 434.966L325.49 434.966z" /></clipPath><clipPath id="96"><path d="M325.49 478.67L499.42 478.67L499.42 478.67L499.42 434.966L499.42 434.966L325.49 434.966z" /></clipPath><clipPath id="97"><path d="M84.751 532.44L163.711 532.44L163.711 532.44L163.711 479.16L163.711 479.16L84.751 479.16z" /></clipPath><clipPath id="98"><path d="M84.744 532.43L163.704 532.43L163.704 532.43L163.704 479.15L163.704 479.15L84.744 479.15z" /></clipPath><clipPath id="99"><path d="M84.744 532.43L163.704 532.43L163.704 532.43L163.704 479.15L163.704 479.15L84.744 479.15z" /></clipPath><clipPath id="100"><path d="M164.19 532.44L212.565 532.44L212.565 532.44L212.565 479.16L212.565 479.16L164.19 479.16z" /></clipPath><clipPath id="101"><path d="M164.18 532.43L212.564 532.43L212.564 532.43L212.564 479.15L212.564 479.15L164.18 479.15z" /></clipPath><clipPath id="102"><path d="M164.18 532.43L212.564 532.43L212.564 532.43L212.564 479.15L212.564 479.15L164.18 479.15z" /></clipPath><clipPath id="103"><path d="M213.05 532.44L264.17 532.44L264.17 532.44L264.17 479.16L264.17 479.16L213.05 479.16z" /></clipPath><clipPath id="104"><path d="M213.05 532.43L264.17 532.43L264.17 532.43L264.17 479.15L264.17 479.15L213.05 479.15z" /></clipPath><clipPath id="105"><path d="M213.05 532.43L264.17 532.43L264.17 532.43L264.17 479.15L264.17 479.15L213.05 479.15z" /></clipPath><clipPath id="106"><path d="M264.65 532.44L325.01 532.44L325.01 532.44L325.01 479.16L325.01 479.16L264.65 479.16z" /></clipPath><clipPath id="107"><path d="M264.65 532.43L325.01 532.43L325.01 532.43L325.01 479.15L325.01 479.15L264.65 479.15z" /></clipPath><clipPath id="108"><path d="M264.65 532.43L325.01 532.43L325.01 532.43L325.01 479.15L325.01 479.15L264.65 479.15z" /></clipPath><clipPath id="109"><path d="M325.49 532.44L499.42 532.44L499.42 532.44L499.42 479.16L499.42 479.16L325.49 479.16z" /></clipPath><clipPath id="110"><path d="M325.49 532.43L499.42 532.43L499.42 532.43L499.42 479.15L499.42 479.15L325.49 479.15z" /></clipPath><clipPath id="111"><path d="M325.49 532.43L499.42 532.43L499.42 532.43L499.42 479.15L499.42 479.15L325.49 479.15z" /></clipPath><clipPath id="112"><path d="M325.49 532.43L499.42 532.43L499.42 532.43L499.42 479.15L499.42 479.15L325.49 479.15z" /></clipPath><clipPath id="113"><path d="M325.49 532.43L499.42 532.43L499.42 532.43L499.42 479.15L499.42 479.15L325.49 479.15z" /></clipPath><clipPath id="114"><path d="M325.49 532.43L499.42 532.43L499.42 532.43L499.42 479.15L499.42 479.15L325.49 479.15z" /></clipPath><clipPath id="115"><path d="M325.49 532.43L499.42 532.43L499.42 532.43L499.42 479.15L499.42 479.15L325.49 479.15z" /></clipPath></defs><g transform="matrix(1.333333 0 0 1.333333 0 0)"><g><g clip-path="url(#1)"><path transform="matrix(1 0 0 -1 0 841)" d="M457.51 53.304L505.534 53.304L505.534 53.304L505.534 53.90404L505.534 53.90404L457.51 53.90404z" stroke="none" fill="#000000" fill-rule="evenodd" /><g clip-path="url(#2)"><path transform="matrix(1 0 0 -1 0 841)" d="M88.464 77.904L506.974 77.904L506.974 77.904L506.974 80.904L506.974 80.904L88.464 80.904z" stroke="none" fill="#000000" fill-rule="evenodd" /><path transform="matrix(1 0 0 -1 0 841)" d="M88.464 76.464L506.974 76.464L506.974 76.464L506.974 77.18397L506.974 77.18397L88.464 77.18397z" stroke="none" fill="#000000" fill-rule="evenodd" /></g><g clip-path="url(#3)"><g clip-path="url(#4)"></g><g clip-path="url(#5)"></g></g><path transform="matrix(1 0 0 -1 0 841)" d="M84.744 550.87L163.704 550.87L163.704 550.87L163.704 590.614L163.704 590.614L84.744 590.614z" stroke="none" fill="#0070C0" fill-rule="evenodd" /><g clip-path="url(#6)"><path transform="matrix(1 0 0 -1 0 841)" d="M89.904 562.9L158.544 562.9L158.544 562.9L158.544 590.62L158.544 590.62L89.904 590.62z" stroke="none" fill="#0070C0" fill-rule="evenodd" /><g clip-path="url(#7)"></g><g clip-path="url(#8)"></g></g><path transform="matrix(1 0 0 -1 0 841)" d="M164.18 550.87L212.564 550.87L212.564 550.87L212.564 590.614L212.564 590.614L164.18 590.614z" stroke="none" fill="#0070C0" fill-rule="evenodd" /><g clip-path="url(#9)"><path transform="matrix(1 0 0 -1 0 841)" d="M169.34 562.9L207.404 562.9L207.404 562.9L207.404 590.62L207.404 590.62L169.34 590.62z" stroke="none" fill="#0070C0" fill-rule="evenodd" /><g clip-path="url(#10)"></g><g clip-path="url(#11)"></g></g><path transform="matrix(1 0 0 -1 0 841)" d="M213.05 550.87L264.17 550.87L264.17 550.87L264.17 590.614L264.17 590.614L213.05 590.614z" stroke="none" fill="#0070C0" fill-rule="evenodd" /><g clip-path="url(#12)"><path transform="matrix(1 0 0 -1 0 841)" d="M218.21 562.9L259.01 562.9L259.01 562.9L259.01 590.62L259.01 590.62L218.21 590.62z" stroke="none" fill="#0070C0" fill-rule="evenodd" /><g clip-path="url(#13)"></g><g clip-path="url(#14)"></g></g><path transform="matrix(1 0 0 -1 0 841)" d="M264.65 550.87L325.01 550.87L325.01 550.87L325.01 590.614L325.01 590.614L264.65 590.614z" stroke="none" fill="#0070C0" fill-rule="evenodd" /><g clip-path="url(#15)"><path transform="matrix(1 0 0 -1 0 841)" d="M269.81 562.9L319.85 562.9L319.85 562.9L319.85 590.62L319.85 590.62L269.81 590.62z" stroke="none" fill="#0070C0" fill-rule="evenodd" /><g clip-path="url(#16)"></g><g clip-path="url(#17)"></g></g><path transform="matrix(1 0 0 -1 0 841)" d="M325.49 550.87L499.42 550.87L499.42 550.87L499.42 590.614L499.42 590.614L325.49 590.614z" stroke="none" fill="#0070C0" fill-rule="evenodd" /><g clip-path="url(#18)"><path transform="matrix(1 0 0 -1 0 841)" d="M330.65 562.9L494.26 562.9L494.26 562.9L494.26 590.62L494.26 590.62L330.65 590.62z" stroke="none" fill="#0070C0" fill-rule="evenodd" /><g clip-path="url(#19)"></g><g clip-path="url(#20)"></g></g><path transform="matrix(1 0 0 -1 0 841)" d="M84.264 590.62L84.744 590.62L84.744 590.62L84.744 591.1L84.744 591.1L84.264 591.1z" stroke="none" fill="#000000" fill-rule="evenodd" /><path transform="matrix(1 0 0 -1 0 841)" d="M84.264 590.62L84.744 590.62L84.744 590.62L84.744 591.1L84.744 591.1L84.264 591.1z" stroke="none" fill="#000000" fill-rule="evenodd" /><path transform="matrix(1 0 0 -1 0 841)" d="M84.744 590.62L163.824 590.62L163.824 590.62L163.824 591.1L163.824 591.1L84.744 591.1z" stroke="none" fill="#000000" fill-rule="evenodd" /><path transform="matrix(1 0 0 -1 0 841)" d="M163.82 590.62L164.3 590.62L164.3 590.62L164.3 591.1L164.3 591.1L163.82 591.1z" stroke="none" fill="#000000" fill-rule="evenodd" /><path transform="matrix(1 0 0 -1 0 841)" d="M164.3 590.62L212.684 590.62L212.684 590.62L212.684 591.1L212.684 591.1L164.3 591.1z" stroke="none" fill="#000000" fill-rule="evenodd" /><path transform="matrix(1 0 0 -1 0 841)" d="M212.69 590.62L213.17 590.62L213.17 590.62L213.17 591.1L213.17 591.1L212.69 591.1z" stroke="none" fill="#000000" fill-rule="evenodd" /><path transform="matrix(1 0 0 -1 0 841)" d="M213.17 590.62L264.17 590.62L264.17 590.62L264.17 591.1L264.17 591.1L213.17 591.1z" stroke="none" fill="#000000" fill-rule="evenodd" /><path transform="matrix(1 0 0 -1 0 841)" d="M264.17 590.62L264.65 590.62L264.65 590.62L264.65 591.1L264.65 591.1L264.17 591.1z" stroke="none" fill="#000000" fill-rule="evenodd" /><path transform="matrix(1 0 0 -1 0 841)" d="M264.65 590.62L325.01 590.62L325.01 590.62L325.01 591.1L325.01 591.1L264.65 591.1z" stroke="none" fill="#000000" fill-rule="evenodd" /><path transform="matrix(1 0 0 -1 0 841)" d="M325.01 590.62L325.49 590.62L325.49 590.62L325.49 591.1L325.49 591.1L325.01 591.1z" stroke="none" fill="#000000" fill-rule="evenodd" /><path transform="matrix(1 0 0 -1 0 841)" d="M325.49 590.62L499.42 590.62L499.42 590.62L499.42 591.1L499.42 591.1L325.49 591.1z" stroke="none" fill="#000000" fill-rule="evenodd" /><path transform="matrix(1 0 0 -1 0 841)" d="M499.42 590.62L499.9 590.62L499.9 590.62L499.9 591.1L499.9 591.1L499.42 591.1z" stroke="none" fill="#000000" fill-rule="evenodd" /><path transform="matrix(1 0 0 -1 0 841)" d="M499.42 590.62L499.9 590.62L499.9 590.62L499.9 591.1L499.9 591.1L499.42 591.1z" stroke="none" fill="#000000" fill-rule="evenodd" /><path transform="matrix(1 0 0 -1 0 841)" d="M84.264 550.87L84.744 550.87L84.744 550.87L84.744 590.614L84.744 590.614L84.264 590.614z" stroke="none" fill="#000000" fill-rule="evenodd" /><path transform="matrix(1 0 0 -1 0 841)" d="M163.82 550.87L164.3 550.87L164.3 550.87L164.3 590.614L164.3 590.614L163.82 590.614z" stroke="none" fill="#000000" fill-rule="evenodd" /><path transform="matrix(1 0 0 -1 0 841)" d="M212.69 550.87L213.17 550.87L213.17 550.87L213.17 590.614L213.17 590.614L212.69 590.614z" stroke="none" fill="#000000" fill-rule="evenodd" /><path transform="matrix(1 0 0 -1 0 841)" d="M264.17 550.87L264.65 550.87L264.65 550.87L264.65 590.614L264.65 590.614L264.17 590.614z" stroke="none" fill="#000000" fill-rule="evenodd" /><path transform="matrix(1 0 0 -1 0 841)" d="M325.01 550.87L325.49 550.87L325.49 550.87L325.49 590.614L325.49 590.614L325.01 590.614z" stroke="none" fill="#000000" fill-rule="evenodd" /><path transform="matrix(1 0 0 -1 0 841)" d="M499.42 550.87L499.9 550.87L499.9 550.87L499.9 590.614L499.9 590.614L499.42 590.614z" stroke="none" fill="#000000" fill-rule="evenodd" /><path transform="matrix(1 0 0 -1 0 841)" d="M84.744 522.79L163.704 522.79L163.704 522.79L163.704 550.39L163.704 550.39L84.744 550.39z" stroke="none" fill="#DAEEF3" fill-rule="evenodd" /><g clip-path="url(#21)"><path transform="matrix(1 0 0 -1 0 841)" d="M89.904 523.87L158.544 523.87L158.544 523.87L158.544 550.39L158.544 550.39L89.904 550.39z" stroke="none" fill="#DAEEF3" fill-rule="evenodd" /><g clip-path="url(#22)"></g><g clip-path="url(#23)"></g></g><path transform="matrix(1 0 0 -1 0 841)" d="M164.18 522.79L212.564 522.79L212.564 522.79L212.564 550.39L212.564 550.39L164.18 550.39z" stroke="none" fill="#DAEEF3" fill-rule="evenodd" /><g clip-path="url(#24)"><path transform="matrix(1 0 0 -1 0 841)" d="M169.34 523.87L207.404 523.87L207.404 523.87L207.404 550.39L207.404 550.39L169.34 550.39z" stroke="none" fill="#DAEEF3" fill-rule="evenodd" /><g clip-path="url(#25)"></g><g clip-path="url(#26)"></g></g><path transform="matrix(1 0 0 -1 0 841)" d="M213.05 522.79L264.17 522.79L264.17 522.79L264.17 550.39L264.17 550.39L213.05 550.39z" stroke="none" fill="#DAEEF3" fill-rule="evenodd" /><g clip-path="url(#27)"><path transform="matrix(1 0 0 -1 0 841)" d="M218.21 522.79L259.01 522.79L259.01 522.79L259.01 550.39L259.01 550.39L218.21 550.39z" stroke="none" fill="#DAEEF3" fill-rule="evenodd" /><g clip-path="url(#28)"></g><g clip-path="url(#29)"></g></g><path transform="matrix(1 0 0 -1 0 841)" d="M264.65 522.79L325.01 522.79L325.01 522.79L325.01 550.39L325.01 550.39L264.65 550.39z" stroke="none" fill="#DAEEF3" fill-rule="evenodd" /><g clip-path="url(#30)"><path transform="matrix(1 0 0 -1 0 841)" d="M269.81 523.87L319.85 523.87L319.85 523.87L319.85 550.39L319.85 550.39L269.81 550.39z" stroke="none" fill="#DAEEF3" fill-rule="evenodd" /><g clip-path="url(#31)"></g><g clip-path="url(#32)"></g></g><path transform="matrix(1 0 0 -1 0 841)" d="M325.49 522.79L499.42 522.79L499.42 522.79L499.42 550.39L499.42 550.39L325.49 550.39z" stroke="none" fill="#DAEEF3" fill-rule="evenodd" /><g clip-path="url(#33)"><path transform="matrix(1 0 0 -1 0 841)" d="M330.65 522.79L494.26 522.79L494.26 522.79L494.26 550.39L494.26 550.39L330.65 550.39z" stroke="none" fill="#DAEEF3" fill-rule="evenodd" /><g clip-path="url(#34)"></g><g clip-path="url(#35)"></g></g><path transform="matrix(1 0 0 -1 0 841)" d="M84.264 550.39L84.744 550.39L84.744 550.39L84.744 550.87L84.744 550.87L84.264 550.87z" stroke="none" fill="#000000" fill-rule="evenodd" /><path transform="matrix(1 0 0 -1 0 841)" d="M84.744 550.39L163.824 550.39L163.824 550.39L163.824 550.87L163.824 550.87L84.744 550.87z" stroke="none" fill="#000000" fill-rule="evenodd" /><path transform="matrix(1 0 0 -1 0 841)" d="M163.82 550.39L164.3 550.39L164.3 550.39L164.3 550.87L164.3 550.87L163.82 550.87z" stroke="none" fill="#000000" fill-rule="evenodd" /><path transform="matrix(1 0 0 -1 0 841)" d="M164.3 550.39L212.684 550.39L212.684 550.39L212.684 550.87L212.684 550.87L164.3 550.87z" stroke="none" fill="#000000" fill-rule="evenodd" /><path transform="matrix(1 0 0 -1 0 841)" d="M212.69 550.39L213.17 550.39L213.17 550.39L213.17 550.87L213.17 550.87L212.69 550.87z" stroke="none" fill="#000000" fill-rule="evenodd" /><path transform="matrix(1 0 0 -1 0 841)" d="M213.17 550.39L264.17 550.39L264.17 550.39L264.17 550.87L264.17 550.87L213.17 550.87z" stroke="none" fill="#000000" fill-rule="evenodd" /><path transform="matrix(1 0 0 -1 0 841)" d="M264.17 550.39L264.65 550.39L264.65 550.39L264.65 550.87L264.65 550.87L264.17 550.87z" stroke="none" fill="#000000" fill-rule="evenodd" /><path transform="matrix(1 0 0 -1 0 841)" d="M264.65 550.39L325.01 550.39L325.01 550.39L325.01 550.87L325.01 550.87L264.65 550.87z" stroke="none" fill="#000000" fill-rule="evenodd" /><path transform="matrix(1 0 0 -1 0 841)" d="M325.01 550.39L325.49 550.39L325.49 550.39L325.49 550.87L325.49 550.87L325.01 550.87z" stroke="none" fill="#000000" fill-rule="evenodd" /><path transform="matrix(1 0 0 -1 0 841)" d="M325.49 550.39L499.42 550.39L499.42 550.39L499.42 550.87L499.42 550.87L325.49 550.87z" stroke="none" fill="#000000" fill-rule="evenodd" /><path transform="matrix(1 0 0 -1 0 841)" d="M499.42 550.39L499.9 550.39L499.9 550.39L499.9 550.87L499.9 550.87L499.42 550.87z" stroke="none" fill="#000000" fill-rule="evenodd" /><path transform="matrix(1 0 0 -1 0 841)" d="M84.264 522.79L84.744 522.79L84.744 522.79L84.744 550.39L84.744 550.39L84.264 550.39z" stroke="none" fill="#000000" fill-rule="evenodd" /><path transform="matrix(1 0 0 -1 0 841)" d="M163.82 522.79L164.3 522.79L164.3 522.79L164.3 550.39L164.3 550.39L163.82 550.39z" stroke="none" fill="#000000" fill-rule="evenodd" /><path transform="matrix(1 0 0 -1 0 841)" d="M212.69 522.79L213.17 522.79L213.17 522.79L213.17 550.39L213.17 550.39L212.69 550.39z" stroke="none" fill="#000000" fill-rule="evenodd" /><path transform="matrix(1 0 0 -1 0 841)" d="M264.17 522.79L264.65 522.79L264.65 522.79L264.65 550.39L264.65 550.39L264.17 550.39z" stroke="none" fill="#000000" fill-rule="evenodd" /><path transform="matrix(1 0 0 -1 0 841)" d="M325.01 522.79L325.49 522.79L325.49 522.79L325.49 550.39L325.49 550.39L325.01 550.39z" stroke="none" fill="#000000" fill-rule="evenodd" /><path transform="matrix(1 0 0 -1 0 841)" d="M499.42 522.79L499.9 522.79L499.9 522.79L499.9 550.39L499.9 550.39L499.42 550.39z" stroke="none" fill="#000000" fill-rule="evenodd" /><g clip-path="url(#36)"><g clip-path="url(#37)"></g><g clip-path="url(#38)"></g></g><g clip-path="url(#39)"><g clip-path="url(#40)"></g><g clip-path="url(#41)"></g></g><g clip-path="url(#42)"><g clip-path="url(#43)"></g><g clip-path="url(#44)"></g></g><g clip-path="url(#45)"><g clip-path="url(#46)"></g><g clip-path="url(#47)"></g></g><g clip-path="url(#48)"><g clip-path="url(#49)"></g><g clip-path="url(#50)"></g><g clip-path="url(#51)"></g><g clip-path="url(#52)"></g></g><path transform="matrix(1 0 0 -1 0 841)" d="M84.264 522.31L84.744 522.31L84.744 522.31L84.744 522.79L84.744 522.79L84.264 522.79z" stroke="none" fill="#000000" fill-rule="evenodd" /><path transform="matrix(1 0 0 -1 0 841)" d="M84.744 522.31L163.824 522.31L163.824 522.31L163.824 522.79L163.824 522.79L84.744 522.79z" stroke="none" fill="#000000" fill-rule="evenodd" /><path transform="matrix(1 0 0 -1 0 841)" d="M163.82 522.31L164.3 522.31L164.3 522.31L164.3 522.79L164.3 522.79L163.82 522.79z" stroke="none" fill="#000000" fill-rule="evenodd" /><path transform="matrix(1 0 0 -1 0 841)" d="M164.3 522.31L212.684 522.31L212.684 522.31L212.684 522.79L212.684 522.79L164.3 522.79z" stroke="none" fill="#000000" fill-rule="evenodd" /><path transform="matrix(1 0 0 -1 0 841)" d="M212.69 522.31L213.17 522.31L213.17 522.31L213.17 522.79L213.17 522.79L212.69 522.79z" stroke="none" fill="#000000" fill-rule="evenodd" /><path transform="matrix(1 0 0 -1 0 841)" d="M213.17 522.31L264.17 522.31L264.17 522.31L264.17 522.79L264.17 522.79L213.17 522.79z" stroke="none" fill="#000000" fill-rule="evenodd" /><path transform="matrix(1 0 0 -1 0 841)" d="M264.17 522.31L264.65 522.31L264.65 522.31L264.65 522.79L264.65 522.79L264.17 522.79z" stroke="none" fill="#000000" fill-rule="evenodd" /><path transform="matrix(1 0 0 -1 0 841)" d="M264.65 522.31L325.01 522.31L325.01 522.31L325.01 522.79L325.01 522.79L264.65 522.79z" stroke="none" fill="#000000" fill-rule="evenodd" /><path transform="matrix(1 0 0 -1 0 841)" d="M325.01 522.31L325.49 522.31L325.49 522.31L325.49 522.79L325.49 522.79L325.01 522.79z" stroke="none" fill="#000000" fill-rule="evenodd" /><path transform="matrix(1 0 0 -1 0 841)" d="M325.49 522.31L499.42 522.31L499.42 522.31L499.42 522.79L499.42 522.79L325.49 522.79z" stroke="none" fill="#000000" fill-rule="evenodd" /><path transform="matrix(1 0 0 -1 0 841)" d="M499.42 522.31L499.9 522.31L499.9 522.31L499.9 522.79L499.9 522.79L499.42 522.79z" stroke="none" fill="#000000" fill-rule="evenodd" /><path transform="matrix(1 0 0 -1 0 841)" d="M84.264 494.59L84.744 494.59L84.744 494.59L84.744 522.31L84.744 522.31L84.264 522.31z" stroke="none" fill="#000000" fill-rule="evenodd" /><path transform="matrix(1 0 0 -1 0 841)" d="M163.82 494.59L164.3 494.59L164.3 494.59L164.3 522.31L164.3 522.31L163.82 522.31z" stroke="none" fill="#000000" fill-rule="evenodd" /><path transform="matrix(1 0 0 -1 0 841)" d="M212.69 494.59L213.17 494.59L213.17 494.59L213.17 522.31L213.17 522.31L212.69 522.31z" stroke="none" fill="#000000" fill-rule="evenodd" /><path transform="matrix(1 0 0 -1 0 841)" d="M264.17 494.59L264.65 494.59L264.65 494.59L264.65 522.31L264.65 522.31L264.17 522.31z" stroke="none" fill="#000000" fill-rule="evenodd" /><path transform="matrix(1 0 0 -1 0 841)" d="M325.01 494.59L325.49 494.59L325.49 494.59L325.49 522.31L325.49 522.31L325.01 522.31z" stroke="none" fill="#000000" fill-rule="evenodd" /><path transform="matrix(1 0 0 -1 0 841)" d="M499.42 494.59L499.9 494.59L499.9 494.59L499.9 522.31L499.9 522.31L499.42 522.31z" stroke="none" fill="#000000" fill-rule="evenodd" /><path transform="matrix(1 0 0 -1 0 841)" d="M84.744 406.63L163.704 406.63L163.704 406.63L163.704 494.11L163.704 494.11L84.744 494.11z" stroke="none" fill="#DAEEF3" fill-rule="evenodd" /><g clip-path="url(#53)"><path transform="matrix(1 0 0 -1 0 841)" d="M89.904 467.47L158.544 467.47L158.544 467.47L158.544 494.11L158.544 494.11L89.904 494.11z" stroke="none" fill="#DAEEF3" fill-rule="evenodd" /><g clip-path="url(#54)"></g><g clip-path="url(#55)"></g></g><path transform="matrix(1 0 0 -1 0 841)" d="M164.18 406.63L212.564 406.63L212.564 406.63L212.564 494.11L212.564 494.11L164.18 494.11z" stroke="none" fill="#DAEEF3" fill-rule="evenodd" /><g clip-path="url(#56)"><path transform="matrix(1 0 0 -1 0 841)" d="M169.34 467.47L207.404 467.47L207.404 467.47L207.404 494.11L207.404 494.11L169.34 494.11z" stroke="none" fill="#DAEEF3" fill-rule="evenodd" /><g clip-path="url(#57)"></g><g clip-path="url(#58)"></g></g><path transform="matrix(1 0 0 -1 0 841)" d="M213.05 406.63L264.17 406.63L264.17 406.63L264.17 494.11L264.17 494.11L213.05 494.11z" stroke="none" fill="#DAEEF3" fill-rule="evenodd" /><g clip-path="url(#59)"><path transform="matrix(1 0 0 -1 0 841)" d="M218.21 466.39L259.01 466.39L259.01 466.39L259.01 494.11L259.01 494.11L218.21 494.11z" stroke="none" fill="#DAEEF3" fill-rule="evenodd" /><g clip-path="url(#60)"></g><g clip-path="url(#61)"></g></g><path transform="matrix(1 0 0 -1 0 841)" d="M264.65 406.63L325.01 406.63L325.01 406.63L325.01 494.11L325.01 494.11L264.65 494.11z" stroke="none" fill="#DAEEF3" fill-rule="evenodd" /><g clip-path="url(#62)"><path transform="matrix(1 0 0 -1 0 841)" d="M269.81 467.47L319.85 467.47L319.85 467.47L319.85 494.11L319.85 494.11L269.81 494.11z" stroke="none" fill="#DAEEF3" fill-rule="evenodd" /><g clip-path="url(#63)"></g></g><path transform="matrix(1 0 0 -1 0 841)" d="M325.49 406.63L499.42 406.63L499.42 406.63L499.42 494.11L499.42 494.11L325.49 494.11z" stroke="none" fill="#DAEEF3" fill-rule="evenodd" /><g clip-path="url(#64)"><path transform="matrix(1 0 0 -1 0 841)" d="M330.65 471.19L494.26 471.19L494.26 471.19L494.26 494.11L494.26 494.11L330.65 494.11z" stroke="none" fill="#DAEEF3" fill-rule="evenodd" /><g clip-path="url(#65)"></g><path transform="matrix(1 0 0 -1 0 841)" d="M330.65 449.35L494.26 449.35L494.26 449.35L494.26 471.19L494.26 471.19L330.65 471.19z" stroke="none" fill="#DAEEF3" fill-rule="evenodd" /><g clip-path="url(#66)"></g><g clip-path="url(#67)"></g><path transform="matrix(1 0 0 -1 0 841)" d="M330.65 430.39L494.26 430.39L494.26 430.39L494.26 449.35L494.26 449.35L330.65 449.35z" stroke="none" fill="#DAEEF3" fill-rule="evenodd" /><g clip-path="url(#68)"></g><g clip-path="url(#69)"></g><g clip-path="url(#70)"></g><g clip-path="url(#71)"></g><g clip-path="url(#72)"></g><g clip-path="url(#73)"></g><path transform="matrix(1 0 0 -1 0 841)" d="M465.91 432.55L494.254 432.55L494.254 432.55L494.254 433.27L494.254 433.27L465.91 433.27z" stroke="none" fill="#548DD4" fill-rule="evenodd" /><path transform="matrix(1 0 0 -1 0 841)" d="M330.65 406.63L494.26 406.63L494.26 406.63L494.26 430.39L494.26 430.39L330.65 430.39z" stroke="none" fill="#DAEEF3" fill-rule="evenodd" /><g clip-path="url(#74)"></g><g clip-path="url(#75)"></g><g clip-path="url(#76)"></g><path transform="matrix(1 0 0 -1 0 841)" d="M336.67 413.35L364.75 413.35L364.75 413.35L364.75 414.07L364.75 414.07L336.67 414.07z" stroke="none" fill="#548DD4" fill-rule="evenodd" /></g><path transform="matrix(1 0 0 -1 0 841)" d="M84.264 494.11L84.744 494.11L84.744 494.11L84.744 494.59L84.744 494.59L84.264 494.59z" stroke="none" fill="#000000" fill-rule="evenodd" /><path transform="matrix(1 0 0 -1 0 841)" d="M84.744 494.11L163.824 494.11L163.824 494.11L163.824 494.59L163.824 494.59L84.744 494.59z" stroke="none" fill="#000000" fill-rule="evenodd" /><path transform="matrix(1 0 0 -1 0 841)" d="M163.82 494.11L164.3 494.11L164.3 494.11L164.3 494.59L164.3 494.59L163.82 494.59z" stroke="none" fill="#000000" fill-rule="evenodd" /><path transform="matrix(1 0 0 -1 0 841)" d="M164.3 494.11L212.684 494.11L212.684 494.11L212.684 494.59L212.684 494.59L164.3 494.59z" stroke="none" fill="#000000" fill-rule="evenodd" /><path transform="matrix(1 0 0 -1 0 841)" d="M212.69 494.11L213.17 494.11L213.17 494.11L213.17 494.59L213.17 494.59L212.69 494.59z" stroke="none" fill="#000000" fill-rule="evenodd" /><path transform="matrix(1 0 0 -1 0 841)" d="M213.17 494.11L264.17 494.11L264.17 494.11L264.17 494.59L264.17 494.59L213.17 494.59z" stroke="none" fill="#000000" fill-rule="evenodd" /><path transform="matrix(1 0 0 -1 0 841)" d="M264.17 494.11L264.65 494.11L264.65 494.11L264.65 494.59L264.65 494.59L264.17 494.59z" stroke="none" fill="#000000" fill-rule="evenodd" /><path transform="matrix(1 0 0 -1 0 841)" d="M264.65 494.11L325.01 494.11L325.01 494.11L325.01 494.59L325.01 494.59L264.65 494.59z" stroke="none" fill="#000000" fill-rule="evenodd" /><path transform="matrix(1 0 0 -1 0 841)" d="M325.01 494.11L325.49 494.11L325.49 494.11L325.49 494.59L325.49 494.59L325.01 494.59z" stroke="none" fill="#000000" fill-rule="evenodd" /><path transform="matrix(1 0 0 -1 0 841)" d="M325.49 494.11L499.42 494.11L499.42 494.11L499.42 494.59L499.42 494.59L325.49 494.59z" stroke="none" fill="#000000" fill-rule="evenodd" /><path transform="matrix(1 0 0 -1 0 841)" d="M499.42 494.11L499.9 494.11L499.9 494.11L499.9 494.59L499.9 494.59L499.42 494.59z" stroke="none" fill="#000000" fill-rule="evenodd" /><path transform="matrix(1 0 0 -1 0 841)" d="M84.264 406.63L84.744 406.63L84.744 406.63L84.744 494.11L84.744 494.11L84.264 494.11z" stroke="none" fill="#000000" fill-rule="evenodd" /><path transform="matrix(1 0 0 -1 0 841)" d="M163.82 406.63L164.3 406.63L164.3 406.63L164.3 494.11L164.3 494.11L163.82 494.11z" stroke="none" fill="#000000" fill-rule="evenodd" /><path transform="matrix(1 0 0 -1 0 841)" d="M212.69 406.63L213.17 406.63L213.17 406.63L213.17 494.11L213.17 494.11L212.69 494.11z" stroke="none" fill="#000000" fill-rule="evenodd" /><path transform="matrix(1 0 0 -1 0 841)" d="M264.17 406.63L264.65 406.63L264.65 406.63L264.65 494.11L264.65 494.11L264.17 494.11z" stroke="none" fill="#000000" fill-rule="evenodd" /><path transform="matrix(1 0 0 -1 0 841)" d="M325.01 406.63L325.49 406.63L325.49 406.63L325.49 494.11L325.49 494.11L325.01 494.11z" stroke="none" fill="#000000" fill-rule="evenodd" /><path transform="matrix(1 0 0 -1 0 841)" d="M499.42 406.63L499.9 406.63L499.9 406.63L499.9 494.11L499.9 494.11L499.42 494.11z" stroke="none" fill="#000000" fill-rule="evenodd" /><g clip-path="url(#77)"><g clip-path="url(#78)"></g><g clip-path="url(#79)"></g></g><g clip-path="url(#80)"><g clip-path="url(#81)"></g><g clip-path="url(#82)"></g></g><g clip-path="url(#83)"><g clip-path="url(#84)"></g><g clip-path="url(#85)"></g></g><g clip-path="url(#86)"><g clip-path="url(#87)"></g><g clip-path="url(#88)"></g><g clip-path="url(#89)"></g></g><g clip-path="url(#90)"><g clip-path="url(#91)"></g><g clip-path="url(#92)"></g><g clip-path="url(#93)"></g><g clip-path="url(#94)"></g><g clip-path="url(#95)"></g><g clip-path="url(#96)"></g></g><path transform="matrix(1 0 0 -1 0 841)" d="M84.264 406.15L84.744 406.15L84.744 406.15L84.744 406.63L84.744 406.63L84.264 406.63z" stroke="none" fill="#000000" fill-rule="evenodd" /><path transform="matrix(1 0 0 -1 0 841)" d="M84.744 406.15L163.824 406.15L163.824 406.15L163.824 406.63L163.824 406.63L84.744 406.63z" stroke="none" fill="#000000" fill-rule="evenodd" /><path transform="matrix(1 0 0 -1 0 841)" d="M163.82 406.15L164.3 406.15L164.3 406.15L164.3 406.63L164.3 406.63L163.82 406.63z" stroke="none" fill="#000000" fill-rule="evenodd" /><path transform="matrix(1 0 0 -1 0 841)" d="M164.3 406.15L212.684 406.15L212.684 406.15L212.684 406.63L212.684 406.63L164.3 406.63z" stroke="none" fill="#000000" fill-rule="evenodd" /><path transform="matrix(1 0 0 -1 0 841)" d="M212.69 406.15L213.17 406.15L213.17 406.15L213.17 406.63L213.17 406.63L212.69 406.63z" stroke="none" fill="#000000" fill-rule="evenodd" /><path transform="matrix(1 0 0 -1 0 841)" d="M213.17 406.15L264.17 406.15L264.17 406.15L264.17 406.63L264.17 406.63L213.17 406.63z" stroke="none" fill="#000000" fill-rule="evenodd" /><path transform="matrix(1 0 0 -1 0 841)" d="M264.17 406.15L264.65 406.15L264.65 406.15L264.65 406.63L264.65 406.63L264.17 406.63z" stroke="none" fill="#000000" fill-rule="evenodd" /><path transform="matrix(1 0 0 -1 0 841)" d="M264.65 406.15L325.01 406.15L325.01 406.15L325.01 406.63L325.01 406.63L264.65 406.63z" stroke="none" fill="#000000" fill-rule="evenodd" /><path transform="matrix(1 0 0 -1 0 841)" d="M325.01 406.15L325.49 406.15L325.49 406.15L325.49 406.63L325.49 406.63L325.01 406.63z" stroke="none" fill="#000000" fill-rule="evenodd" /><path transform="matrix(1 0 0 -1 0 841)" d="M325.49 406.15L499.42 406.15L499.42 406.15L499.42 406.63L499.42 406.63L325.49 406.63z" stroke="none" fill="#000000" fill-rule="evenodd" /><path transform="matrix(1 0 0 -1 0 841)" d="M499.42 406.15L499.9 406.15L499.9 406.15L499.9 406.63L499.9 406.63L499.42 406.63z" stroke="none" fill="#000000" fill-rule="evenodd" /><path transform="matrix(1 0 0 -1 0 841)" d="M84.264 362.33L84.744 362.33L84.744 362.33L84.744 406.154L84.744 406.154L84.264 406.154z" stroke="none" fill="#000000" fill-rule="evenodd" /><path transform="matrix(1 0 0 -1 0 841)" d="M163.82 362.33L164.3 362.33L164.3 362.33L164.3 406.154L164.3 406.154L163.82 406.154z" stroke="none" fill="#000000" fill-rule="evenodd" /><path transform="matrix(1 0 0 -1 0 841)" d="M212.69 362.33L213.17 362.33L213.17 362.33L213.17 406.154L213.17 406.154L212.69 406.154z" stroke="none" fill="#000000" fill-rule="evenodd" /><path transform="matrix(1 0 0 -1 0 841)" d="M264.17 362.33L264.65 362.33L264.65 362.33L264.65 406.154L264.65 406.154L264.17 406.154z" stroke="none" fill="#000000" fill-rule="evenodd" /><path transform="matrix(1 0 0 -1 0 841)" d="M325.01 362.33L325.49 362.33L325.49 362.33L325.49 406.154L325.49 406.154L325.01 406.154z" stroke="none" fill="#000000" fill-rule="evenodd" /><path transform="matrix(1 0 0 -1 0 841)" d="M499.42 362.33L499.9 362.33L499.9 362.33L499.9 406.154L499.9 406.154L499.42 406.154z" stroke="none" fill="#000000" fill-rule="evenodd" /><path transform="matrix(1 0 0 -1 0 841)" d="M84.744 308.57L163.704 308.57L163.704 308.57L163.704 361.85L163.704 361.85L84.744 361.85z" stroke="none" fill="#DAEEF3" fill-rule="evenodd" /><g clip-path="url(#97)"><path transform="matrix(1 0 0 -1 0 841)" d="M89.904 335.33L158.544 335.33L158.544 335.33L158.544 361.85L158.544 361.85L89.904 361.85z" stroke="none" fill="#DAEEF3" fill-rule="evenodd" /><g clip-path="url(#98)"></g><g clip-path="url(#99)"></g></g><path transform="matrix(1 0 0 -1 0 841)" d="M164.18 308.57L212.564 308.57L212.564 308.57L212.564 361.85L212.564 361.85L164.18 361.85z" stroke="none" fill="#DAEEF3" fill-rule="evenodd" /><g clip-path="url(#100)"><path transform="matrix(1 0 0 -1 0 841)" d="M169.34 335.33L207.404 335.33L207.404 335.33L207.404 361.85L207.404 361.85L169.34 361.85z" stroke="none" fill="#DAEEF3" fill-rule="evenodd" /><g clip-path="url(#101)"></g><g clip-path="url(#102)"></g></g><path transform="matrix(1 0 0 -1 0 841)" d="M213.05 308.57L264.17 308.57L264.17 308.57L264.17 361.85L264.17 361.85L213.05 361.85z" stroke="none" fill="#DAEEF3" fill-rule="evenodd" /><g clip-path="url(#103)"><path transform="matrix(1 0 0 -1 0 841)" d="M218.21 334.25L259.01 334.25L259.01 334.25L259.01 361.85L259.01 361.85L218.21 361.85z" stroke="none" fill="#DAEEF3" fill-rule="evenodd" /><g clip-path="url(#104)"></g><g clip-path="url(#105)"></g></g><path transform="matrix(1 0 0 -1 0 841)" d="M264.65 308.57L325.01 308.57L325.01 308.57L325.01 361.85L325.01 361.85L264.65 361.85z" stroke="none" fill="#DAEEF3" fill-rule="evenodd" /><g clip-path="url(#106)"><path transform="matrix(1 0 0 -1 0 841)" d="M269.81 335.33L319.85 335.33L319.85 335.33L319.85 361.85L319.85 361.85L269.81 361.85z" stroke="none" fill="#DAEEF3" fill-rule="evenodd" /><g clip-path="url(#107)"></g><g clip-path="url(#108)"></g></g><path transform="matrix(1 0 0 -1 0 841)" d="M325.49 308.57L499.42 308.57L499.42 308.57L499.42 361.85L499.42 361.85L325.49 361.85z" stroke="none" fill="#DAEEF3" fill-rule="evenodd" /><g clip-path="url(#109)"><path transform="matrix(1 0 0 -1 0 841)" d="M330.65 331.49L494.26 331.49L494.26 331.49L494.26 361.85L494.26 361.85L330.65 361.85z" stroke="none" fill="#DAEEF3" fill-rule="evenodd" /><g clip-path="url(#110)"></g><g clip-path="url(#111)"></g><g clip-path="url(#112)"></g><g clip-path="url(#113)"></g><path transform="matrix(1 0 0 -1 0 841)" d="M330.65 308.57L494.26 308.57L494.26 308.57L494.26 331.49L494.26 331.49L330.65 331.49z" stroke="none" fill="#DAEEF3" fill-rule="evenodd" /><g clip-path="url(#114)"></g><g clip-path="url(#115)"></g><path transform="matrix(1 0 0 -1 0 841)" d="M333.05 315.05L389.114 315.05L389.114 315.05L389.114 315.77L389.114 315.77L333.05 315.77z" stroke="none" fill="#000000" fill-rule="evenodd" /></g><path transform="matrix(1 0 0 -1 0 841)" d="M84.264 361.85L84.744 361.85L84.744 361.85L84.744 362.33L84.744 362.33L84.264 362.33z" stroke="none" fill="#000000" fill-rule="evenodd" /><path transform="matrix(1 0 0 -1 0 841)" d="M84.744 361.85L163.824 361.85L163.824 361.85L163.824 362.33L163.824 362.33L84.744 362.33z" stroke="none" fill="#000000" fill-rule="evenodd" /><path transform="matrix(1 0 0 -1 0 841)" d="M163.82 361.85L164.3 361.85L164.3 361.85L164.3 362.33L164.3 362.33L163.82 362.33z" stroke="none" fill="#000000" fill-rule="evenodd" /><path transform="matrix(1 0 0 -1 0 841)" d="M164.3 361.85L212.684 361.85L212.684 361.85L212.684 362.33L212.684 362.33L164.3 362.33z" stroke="none" fill="#000000" fill-rule="evenodd" /><path transform="matrix(1 0 0 -1 0 841)" d="M212.69 361.85L213.17 361.85L213.17 361.85L213.17 362.33L213.17 362.33L212.69 362.33z" stroke="none" fill="#000000" fill-rule="evenodd" /><path transform="matrix(1 0 0 -1 0 841)" d="M213.17 361.85L264.17 361.85L264.17 361.85L264.17 362.33L264.17 362.33L213.17 362.33z" stroke="none" fill="#000000" fill-rule="evenodd" /><path transform="matrix(1 0 0 -1 0 841)" d="M264.17 361.85L264.65 361.85L264.65 361.85L264.65 362.33L264.65 362.33L264.17 362.33z" stroke="none" fill="#000000" fill-rule="evenodd" /><path transform="matrix(1 0 0 -1 0 841)" d="M264.65 361.85L325.01 361.85L325.01 361.85L325.01 362.33L325.01 362.33L264.65 362.33z" stroke="none" fill="#000000" fill-rule="evenodd" /><path transform="matrix(1 0 0 -1 0 841)" d="M325.01 361.85L325.49 361.85L325.49 361.85L325.49 362.33L325.49 362.33L325.01 362.33z" stroke="none" fill="#000000" fill-rule="evenodd" /><path transform="matrix(1 0 0 -1 0 841)" d="M325.49 361.85L499.42 361.85L499.42 361.85L499.42 362.33L499.42 362.33L325.49 362.33z" stroke="none" fill="#000000" fill-rule="evenodd" /><path transform="matrix(1 0 0 -1 0 841)" d="M499.42 361.85L499.9 361.85L499.9 361.85L499.9 362.33L499.9 362.33L499.42 362.33z" stroke="none" fill="#000000" fill-rule="evenodd" /><path transform="matrix(1 0 0 -1 0 841)" d="M84.264 308.57L84.744 308.57L84.744 308.57L84.744 361.85L84.744 361.85L84.264 361.85z" stroke="none" fill="#000000" fill-rule="evenodd" /><path transform="matrix(1 0 0 -1 0 841)" d="M84.264 308.09L84.744 308.09L84.744 308.09L84.744 308.57L84.744 308.57L84.264 308.57z" stroke="none" fill="#000000" fill-rule="evenodd" /><path transform="matrix(1 0 0 -1 0 841)" d="M84.264 308.09L84.744 308.09L84.744 308.09L84.744 308.57L84.744 308.57L84.264 308.57z" stroke="none" fill="#000000" fill-rule="evenodd" /><path transform="matrix(1 0 0 -1 0 841)" d="M84.744 308.09L163.824 308.09L163.824 308.09L163.824 308.57L163.824 308.57L84.744 308.57z" stroke="none" fill="#000000" fill-rule="evenodd" /><path transform="matrix(1 0 0 -1 0 841)" d="M163.82 308.57L164.3 308.57L164.3 308.57L164.3 361.85L164.3 361.85L163.82 361.85z" stroke="none" fill="#000000" fill-rule="evenodd" /><path transform="matrix(1 0 0 -1 0 841)" d="M163.82 308.09L164.3 308.09L164.3 308.09L164.3 308.57L164.3 308.57L163.82 308.57z" stroke="none" fill="#000000" fill-rule="evenodd" /><path transform="matrix(1 0 0 -1 0 841)" d="M164.3 308.09L212.684 308.09L212.684 308.09L212.684 308.57L212.684 308.57L164.3 308.57z" stroke="none" fill="#000000" fill-rule="evenodd" /><path transform="matrix(1 0 0 -1 0 841)" d="M212.69 308.57L213.17 308.57L213.17 308.57L213.17 361.85L213.17 361.85L212.69 361.85z" stroke="none" fill="#000000" fill-rule="evenodd" /><path transform="matrix(1 0 0 -1 0 841)" d="M212.69 308.09L213.17 308.09L213.17 308.09L213.17 308.57L213.17 308.57L212.69 308.57z" stroke="none" fill="#000000" fill-rule="evenodd" /><path transform="matrix(1 0 0 -1 0 841)" d="M213.17 308.09L264.17 308.09L264.17 308.09L264.17 308.57L264.17 308.57L213.17 308.57z" stroke="none" fill="#000000" fill-rule="evenodd" /><path transform="matrix(1 0 0 -1 0 841)" d="M264.17 308.57L264.65 308.57L264.65 308.57L264.65 361.85L264.65 361.85L264.17 361.85z" stroke="none" fill="#000000" fill-rule="evenodd" /><path transform="matrix(1 0 0 -1 0 841)" d="M264.17 308.09L264.65 308.09L264.65 308.09L264.65 308.57L264.65 308.57L264.17 308.57z" stroke="none" fill="#000000" fill-rule="evenodd" /><path transform="matrix(1 0 0 -1 0 841)" d="M264.65 308.09L325.01 308.09L325.01 308.09L325.01 308.57L325.01 308.57L264.65 308.57z" stroke="none" fill="#000000" fill-rule="evenodd" /><path transform="matrix(1 0 0 -1 0 841)" d="M325.01 308.57L325.49 308.57L325.49 308.57L325.49 361.85L325.49 361.85L325.01 361.85z" stroke="none" fill="#000000" fill-rule="evenodd" /><path transform="matrix(1 0 0 -1 0 841)" d="M325.01 308.09L325.49 308.09L325.49 308.09L325.49 308.57L325.49 308.57L325.01 308.57z" stroke="none" fill="#000000" fill-rule="evenodd" /><path transform="matrix(1 0 0 -1 0 841)" d="M325.49 308.09L499.42 308.09L499.42 308.09L499.42 308.57L499.42 308.57L325.49 308.57z" stroke="none" fill="#000000" fill-rule="evenodd" /><path transform="matrix(1 0 0 -1 0 841)" d="M499.42 308.57L499.9 308.57L499.9 308.57L499.9 361.85L499.9 361.85L499.42 361.85z" stroke="none" fill="#000000" fill-rule="evenodd" /><path transform="matrix(1 0 0 -1 0 841)" d="M499.42 308.09L499.9 308.09L499.9 308.09L499.9 308.57L499.9 308.57L499.42 308.57z" stroke="none" fill="#000000" fill-rule="evenodd" /><path transform="matrix(1 0 0 -1 0 841)" d="M499.42 308.09L499.9 308.09L499.9 308.09L499.9 308.57L499.9 308.57L499.42 308.57z" stroke="none" fill="#000000" fill-rule="evenodd" /></g></g></g></svg>