<svg xmlns="http://www.w3.org/2000/svg" xmlns:xlink="http://www.w3.org/1999/xlink" id="body_104" preserveAspectRatio="xMinYMin meet" viewBox="0 0 793 1121"><defs><clipPath id="1"><path d="M0 841L0 -0.9199829L0 -0.9199829L595.32 -0.9199829L595.32 -0.9199829L595.32 841L595.32 841L0 841z" /></clipPath><clipPath id="2"><path d="M0.00125 841.0914L595.4112 841.0914L595.4112 841.0914L595.4112 -0.9186401L595.4112 -0.9186401L0.00125 -0.9186401z" /></clipPath><clipPath id="3"><path d="M288.05 779.771L316.01 779.771L316.01 779.771L316.01 760.691L316.01 760.691L288.05 760.691z" /></clipPath><clipPath id="4"><path d="M288.05 779.776L316.01 779.776L316.01 779.776L316.01 760.696L316.01 760.696L288.05 760.696z" /></clipPath><clipPath id="5"><path d="M288.05 779.776L316.01 779.776L316.01 779.776L316.01 760.696L316.01 760.696L288.05 760.696z" /></clipPath><clipPath id="6"><path d="M84.751 108.55L510.691 108.55L510.691 108.55L510.691 89.44L510.691 89.44L84.751 89.44z" /></clipPath><clipPath id="7"><path d="M84.744 108.54L510.694 108.54L510.694 108.54L510.694 89.43597L510.694 89.43597L84.744 89.43597z" /></clipPath><clipPath id="8"><path d="M84.744 108.54L510.694 108.54L510.694 108.54L510.694 89.43597L510.694 89.43597L84.744 89.43597z" /></clipPath><clipPath id="9"><path d="M84.744 108.54L510.694 108.54L510.694 108.54L510.694 89.43597L510.694 89.43597L84.744 89.43597z" /></clipPath><clipPath id="10"><path d="M84.751 223.27L510.691 223.27L510.691 223.27L510.691 109.03L510.691 109.03L84.751 109.03z" /></clipPath><clipPath id="11"><path d="M84.744 223.26L510.694 223.26L510.694 223.26L510.694 109.02L510.694 109.02L84.744 109.02z" /></clipPath><clipPath id="12"><path d="M84.744 223.26L510.694 223.26L510.694 223.26L510.694 109.02L510.694 109.02L84.744 109.02z" /></clipPath><clipPath id="13"><path d="M84.744 223.26L510.694 223.26L510.694 223.26L510.694 109.02L510.694 109.02L84.744 109.02z" /></clipPath><clipPath id="14"><path d="M84.744 223.26L510.694 223.26L510.694 223.26L510.694 109.02L510.694 109.02L84.744 109.02z" /></clipPath><clipPath id="15"><path d="M84.744 223.26L510.694 223.26L510.694 223.26L510.694 109.02L510.694 109.02L84.744 109.02z" /></clipPath><clipPath id="16"><path d="M84.744 223.26L510.694 223.26L510.694 223.26L510.694 109.02L510.694 109.02L84.744 109.02z" /></clipPath><clipPath id="17"><path d="M84.744 223.26L510.694 223.26L510.694 223.26L510.694 109.02L510.694 109.02L84.744 109.02z" /></clipPath><clipPath id="18"><path d="M84.744 223.26L510.694 223.26L510.694 223.26L510.694 109.02L510.694 109.02L84.744 109.02z" /></clipPath><clipPath id="19"><path d="M84.744 223.26L510.694 223.26L510.694 223.26L510.694 109.02L510.694 109.02L84.744 109.02z" /></clipPath><clipPath id="20"><path d="M84.744 223.26L510.694 223.26L510.694 223.26L510.694 109.02L510.694 109.02L84.744 109.02z" /></clipPath><clipPath id="21"><path d="M84.744 223.26L510.694 223.26L510.694 223.26L510.694 109.02L510.694 109.02L84.744 109.02z" /></clipPath><clipPath id="22"><path d="M84.744 223.26L510.694 223.26L510.694 223.26L510.694 109.02L510.694 109.02L84.744 109.02z" /></clipPath><clipPath id="23"><path d="M84.744 223.26L510.694 223.26L510.694 223.26L510.694 109.02L510.694 109.02L84.744 109.02z" /></clipPath><clipPath id="24"><path d="M84.744 223.26L510.694 223.26L510.694 223.26L510.694 109.02L510.694 109.02L84.744 109.02z" /></clipPath><clipPath id="25"><path d="M84.744 223.26L510.694 223.26L510.694 223.26L510.694 109.02L510.694 109.02L84.744 109.02z" /></clipPath><clipPath id="26"><path d="M84.744 223.26L510.694 223.26L510.694 223.26L510.694 109.02L510.694 109.02L84.744 109.02z" /></clipPath><clipPath id="27"><path d="M84.744 223.26L510.694 223.26L510.694 223.26L510.694 109.02L510.694 109.02L84.744 109.02z" /></clipPath><clipPath id="28"><path d="M84.744 223.26L510.694 223.26L510.694 223.26L510.694 109.02L510.694 109.02L84.744 109.02z" /></clipPath><clipPath id="29"><path d="M84.751 364.89L169.591 364.89L169.591 364.89L169.591 342.93L169.591 342.93L84.751 342.93z" /></clipPath><clipPath id="30"><path d="M84.744 364.89L169.584 364.89L169.584 364.89L169.584 342.93L169.584 342.93L84.744 342.93z" /></clipPath><clipPath id="31"><path d="M84.744 364.89L169.584 364.89L169.584 364.89L169.584 342.93L169.584 342.93L84.744 342.93z" /></clipPath><clipPath id="32"><path d="M170.19 364.89L224.925 364.89L224.925 364.89L224.925 342.93L224.925 342.93L170.19 342.93z" /></clipPath><clipPath id="33"><path d="M170.18 364.89L224.924 364.89L224.924 364.89L224.924 342.93L224.924 342.93L170.18 342.93z" /></clipPath><clipPath id="34"><path d="M170.18 364.89L224.924 364.89L224.924 364.89L224.924 342.93L224.924 342.93L170.18 342.93z" /></clipPath><clipPath id="35"><path d="M225.41 364.89L274.49 364.89L274.49 364.89L274.49 342.93L274.49 342.93L225.41 342.93z" /></clipPath><clipPath id="36"><path d="M225.41 364.89L274.49 364.89L274.49 364.89L274.49 342.93L274.49 342.93L225.41 342.93z" /></clipPath><clipPath id="37"><path d="M225.41 364.89L274.49 364.89L274.49 364.89L274.49 342.93L274.49 342.93L225.41 342.93z" /></clipPath><clipPath id="38"><path d="M274.97 364.89L394.64 364.89L394.64 364.89L394.64 342.93L394.64 342.93L274.97 342.93z" /></clipPath><clipPath id="39"><path d="M274.97 364.89L394.63 364.89L394.63 364.89L394.63 342.93L394.63 342.93L274.97 342.93z" /></clipPath><clipPath id="40"><path d="M274.97 364.89L394.63 364.89L394.63 364.89L394.63 342.93L394.63 342.93L274.97 342.93z" /></clipPath><clipPath id="41"><path d="M395.24 364.89L520.89 364.89L520.89 364.89L520.89 342.93L520.89 342.93L395.24 342.93z" /></clipPath><clipPath id="42"><path d="M395.23 364.89L520.89 364.89L520.89 364.89L520.89 342.93L520.89 342.93L395.23 342.93z" /></clipPath><clipPath id="43"><path d="M395.23 364.89L520.89 364.89L520.89 364.89L520.89 342.93L520.89 342.93L395.23 342.93z" /></clipPath><clipPath id="44"><path d="M84.751 403.53L169.591 403.53L169.591 403.53L169.591 365.37L169.591 365.37L84.751 365.37z" /></clipPath><clipPath id="45"><path d="M84.744 403.53L169.584 403.53L169.584 403.53L169.584 365.37L169.584 365.37L84.744 365.37z" /></clipPath><clipPath id="46"><path d="M84.744 403.53L169.584 403.53L169.584 403.53L169.584 365.37L169.584 365.37L84.744 365.37z" /></clipPath><clipPath id="47"><path d="M170.19 403.53L224.925 403.53L224.925 403.53L224.925 365.37L224.925 365.37L170.19 365.37z" /></clipPath><clipPath id="48"><path d="M170.18 403.53L224.924 403.53L224.924 403.53L224.924 365.37L224.924 365.37L170.18 365.37z" /></clipPath><clipPath id="49"><path d="M170.18 403.53L224.924 403.53L224.924 403.53L224.924 365.37L224.924 365.37L170.18 365.37z" /></clipPath><clipPath id="50"><path d="M225.41 403.53L274.49 403.53L274.49 403.53L274.49 365.37L274.49 365.37L225.41 365.37z" /></clipPath><clipPath id="51"><path d="M225.41 403.53L274.49 403.53L274.49 403.53L274.49 365.37L274.49 365.37L225.41 365.37z" /></clipPath><clipPath id="52"><path d="M225.41 403.53L274.49 403.53L274.49 403.53L274.49 365.37L274.49 365.37L225.41 365.37z" /></clipPath><clipPath id="53"><path d="M274.97 403.53L394.64 403.53L394.64 403.53L394.64 365.37L394.64 365.37L274.97 365.37z" /></clipPath><clipPath id="54"><path d="M274.97 403.53L394.63 403.53L394.63 403.53L394.63 365.37L394.63 365.37L274.97 365.37z" /></clipPath><clipPath id="55"><path d="M274.97 403.53L394.63 403.53L394.63 403.53L394.63 365.37L394.63 365.37L274.97 365.37z" /></clipPath><clipPath id="56"><path d="M274.97 403.53L394.63 403.53L394.63 403.53L394.63 365.37L394.63 365.37L274.97 365.37z" /></clipPath><clipPath id="57"><path d="M395.24 403.53L520.89 403.53L520.89 403.53L520.89 365.37L520.89 365.37L395.24 365.37z" /></clipPath><clipPath id="58"><path d="M395.23 403.53L520.89 403.53L520.89 403.53L520.89 365.37L520.89 365.37L395.23 365.37z" /></clipPath><clipPath id="59"><path d="M395.23 403.53L520.89 403.53L520.89 403.53L520.89 365.37L520.89 365.37L395.23 365.37z" /></clipPath><clipPath id="60"><path d="M84.751 422.97L169.591 422.97L169.591 422.97L169.591 404.01L169.591 404.01L84.751 404.01z" /></clipPath><clipPath id="61"><path d="M84.744 422.97L169.584 422.97L169.584 422.97L169.584 404.01L169.584 404.01L84.744 404.01z" /></clipPath><clipPath id="62"><path d="M84.744 422.97L169.584 422.97L169.584 422.97L169.584 404.01L169.584 404.01L84.744 404.01z" /></clipPath><clipPath id="63"><path d="M170.19 422.97L224.925 422.97L224.925 422.97L224.925 404.01L224.925 404.01L170.19 404.01z" /></clipPath><clipPath id="64"><path d="M170.18 422.97L224.924 422.97L224.924 422.97L224.924 404.01L224.924 404.01L170.18 404.01z" /></clipPath><clipPath id="65"><path d="M170.18 422.97L224.924 422.97L224.924 422.97L224.924 404.01L224.924 404.01L170.18 404.01z" /></clipPath><clipPath id="66"><path d="M225.41 422.97L274.49 422.97L274.49 422.97L274.49 404.01L274.49 404.01L225.41 404.01z" /></clipPath><clipPath id="67"><path d="M225.41 422.97L274.49 422.97L274.49 422.97L274.49 404.01L274.49 404.01L225.41 404.01z" /></clipPath><clipPath id="68"><path d="M225.41 422.97L274.49 422.97L274.49 422.97L274.49 404.01L274.49 404.01L225.41 404.01z" /></clipPath><clipPath id="69"><path d="M274.97 422.97L394.64 422.97L394.64 422.97L394.64 404.01L394.64 404.01L274.97 404.01z" /></clipPath><clipPath id="70"><path d="M274.97 422.97L394.63 422.97L394.63 422.97L394.63 404.01L394.63 404.01L274.97 404.01z" /></clipPath><clipPath id="71"><path d="M274.97 422.97L394.63 422.97L394.63 422.97L394.63 404.01L394.63 404.01L274.97 404.01z" /></clipPath><clipPath id="72"><path d="M395.24 422.97L520.89 422.97L520.89 422.97L520.89 404.01L520.89 404.01L395.24 404.01z" /></clipPath><clipPath id="73"><path d="M395.23 422.97L520.89 422.97L520.89 422.97L520.89 404.01L520.89 404.01L395.23 404.01z" /></clipPath><clipPath id="74"><path d="M395.23 422.97L520.89 422.97L520.89 422.97L520.89 404.01L520.89 404.01L395.23 404.01z" /></clipPath><clipPath id="75"><path d="M84.751 442.53L169.591 442.53L169.591 442.53L169.591 423.57L169.591 423.57L84.751 423.57z" /></clipPath><clipPath id="76"><path d="M84.744 442.53L169.584 442.53L169.584 442.53L169.584 423.57L169.584 423.57L84.744 423.57z" /></clipPath><clipPath id="77"><path d="M84.744 442.53L169.584 442.53L169.584 442.53L169.584 423.57L169.584 423.57L84.744 423.57z" /></clipPath><clipPath id="78"><path d="M170.19 442.53L224.925 442.53L224.925 442.53L224.925 423.57L224.925 423.57L170.19 423.57z" /></clipPath><clipPath id="79"><path d="M170.18 442.53L224.924 442.53L224.924 442.53L224.924 423.57L224.924 423.57L170.18 423.57z" /></clipPath><clipPath id="80"><path d="M170.18 442.53L224.924 442.53L224.924 442.53L224.924 423.57L224.924 423.57L170.18 423.57z" /></clipPath><clipPath id="81"><path d="M225.41 442.53L274.49 442.53L274.49 442.53L274.49 423.57L274.49 423.57L225.41 423.57z" /></clipPath><clipPath id="82"><path d="M225.41 442.53L274.49 442.53L274.49 442.53L274.49 423.57L274.49 423.57L225.41 423.57z" /></clipPath><clipPath id="83"><path d="M225.41 442.53L274.49 442.53L274.49 442.53L274.49 423.57L274.49 423.57L225.41 423.57z" /></clipPath><clipPath id="84"><path d="M274.97 442.53L394.64 442.53L394.64 442.53L394.64 423.57L394.64 423.57L274.97 423.57z" /></clipPath><clipPath id="85"><path d="M274.97 442.53L394.63 442.53L394.63 442.53L394.63 423.57L394.63 423.57L274.97 423.57z" /></clipPath><clipPath id="86"><path d="M274.97 442.53L394.63 442.53L394.63 442.53L394.63 423.57L394.63 423.57L274.97 423.57z" /></clipPath><clipPath id="87"><path d="M395.24 442.53L520.89 442.53L520.89 442.53L520.89 423.57L520.89 423.57L395.24 423.57z" /></clipPath><clipPath id="88"><path d="M395.23 442.53L520.89 442.53L520.89 442.53L520.89 423.57L520.89 423.57L395.23 423.57z" /></clipPath><clipPath id="89"><path d="M395.23 442.53L520.89 442.53L520.89 442.53L520.89 423.57L520.89 423.57L395.23 423.57z" /></clipPath><clipPath id="90"><path d="M395.23 442.53L520.89 442.53L520.89 442.53L520.89 423.57L520.89 423.57L395.23 423.57z" /></clipPath><clipPath id="91"><path d="M84.751 462.09L169.591 462.09L169.591 462.09L169.591 443.13L169.591 443.13L84.751 443.13z" /></clipPath><clipPath id="92"><path d="M84.744 462.09L169.584 462.09L169.584 462.09L169.584 443.13L169.584 443.13L84.744 443.13z" /></clipPath><clipPath id="93"><path d="M84.744 462.09L169.584 462.09L169.584 462.09L169.584 443.13L169.584 443.13L84.744 443.13z" /></clipPath><clipPath id="94"><path d="M170.19 462.09L224.925 462.09L224.925 462.09L224.925 443.13L224.925 443.13L170.19 443.13z" /></clipPath><clipPath id="95"><path d="M170.18 462.09L224.924 462.09L224.924 462.09L224.924 443.13L224.924 443.13L170.18 443.13z" /></clipPath><clipPath id="96"><path d="M170.18 462.09L224.924 462.09L224.924 462.09L224.924 443.13L224.924 443.13L170.18 443.13z" /></clipPath><clipPath id="97"><path d="M225.41 462.09L274.49 462.09L274.49 462.09L274.49 443.13L274.49 443.13L225.41 443.13z" /></clipPath><clipPath id="98"><path d="M225.41 462.09L274.49 462.09L274.49 462.09L274.49 443.13L274.49 443.13L225.41 443.13z" /></clipPath><clipPath id="99"><path d="M225.41 462.09L274.49 462.09L274.49 462.09L274.49 443.13L274.49 443.13L225.41 443.13z" /></clipPath><clipPath id="100"><path d="M274.97 462.09L394.64 462.09L394.64 462.09L394.64 443.13L394.64 443.13L274.97 443.13z" /></clipPath><clipPath id="101"><path d="M274.97 462.09L394.63 462.09L394.63 462.09L394.63 443.13L394.63 443.13L274.97 443.13z" /></clipPath><clipPath id="102"><path d="M274.97 462.09L394.63 462.09L394.63 462.09L394.63 443.13L394.63 443.13L274.97 443.13z" /></clipPath><clipPath id="103"><path d="M395.24 462.09L520.89 462.09L520.89 462.09L520.89 443.13L520.89 443.13L395.24 443.13z" /></clipPath><clipPath id="104"><path d="M395.23 462.09L520.89 462.09L520.89 462.09L520.89 443.13L520.89 443.13L395.23 443.13z" /></clipPath><clipPath id="105"><path d="M395.23 462.09L520.89 462.09L520.89 462.09L520.89 443.13L520.89 443.13L395.23 443.13z" /></clipPath><clipPath id="106"><path d="M84.751 481.68L169.591 481.68L169.591 481.68L169.591 462.57L169.591 462.57L84.751 462.57z" /></clipPath><clipPath id="107"><path d="M84.744 481.67L169.584 481.67L169.584 481.67L169.584 462.566L169.584 462.566L84.744 462.566z" /></clipPath><clipPath id="108"><path d="M84.744 481.67L169.584 481.67L169.584 481.67L169.584 462.566L169.584 462.566L84.744 462.566z" /></clipPath><clipPath id="109"><path d="M170.19 481.68L224.925 481.68L224.925 481.68L224.925 462.57L224.925 462.57L170.19 462.57z" /></clipPath><clipPath id="110"><path d="M170.18 481.67L224.924 481.67L224.924 481.67L224.924 462.566L224.924 462.566L170.18 462.566z" /></clipPath><clipPath id="111"><path d="M170.18 481.67L224.924 481.67L224.924 481.67L224.924 462.566L224.924 462.566L170.18 462.566z" /></clipPath><clipPath id="112"><path d="M225.41 481.68L274.49 481.68L274.49 481.68L274.49 462.57L274.49 462.57L225.41 462.57z" /></clipPath><clipPath id="113"><path d="M225.41 481.67L274.49 481.67L274.49 481.67L274.49 462.566L274.49 462.566L225.41 462.566z" /></clipPath><clipPath id="114"><path d="M225.41 481.67L274.49 481.67L274.49 481.67L274.49 462.566L274.49 462.566L225.41 462.566z" /></clipPath><clipPath id="115"><path d="M274.97 481.68L394.64 481.68L394.64 481.68L394.64 462.57L394.64 462.57L274.97 462.57z" /></clipPath><clipPath id="116"><path d="M274.97 481.67L394.63 481.67L394.63 481.67L394.63 462.566L394.63 462.566L274.97 462.566z" /></clipPath><clipPath id="117"><path d="M274.97 481.67L394.63 481.67L394.63 481.67L394.63 462.566L394.63 462.566L274.97 462.566z" /></clipPath><clipPath id="118"><path d="M395.24 481.68L520.89 481.68L520.89 481.68L520.89 462.57L520.89 462.57L395.24 462.57z" /></clipPath><clipPath id="119"><path d="M395.23 481.67L520.89 481.67L520.89 481.67L520.89 462.566L520.89 462.566L395.23 462.566z" /></clipPath><clipPath id="120"><path d="M395.23 481.67L520.89 481.67L520.89 481.67L520.89 462.566L520.89 462.566L395.23 462.566z" /></clipPath><clipPath id="121"><path d="M84.751 634.56L169.591 634.56L169.591 634.56L169.591 482.16L169.591 482.16L84.751 482.16z" /></clipPath><clipPath id="122"><path d="M84.744 634.55L169.584 634.55L169.584 634.55L169.584 482.15L169.584 482.15L84.744 482.15z" /></clipPath><clipPath id="123"><path d="M84.744 634.55L169.584 634.55L169.584 634.55L169.584 482.15L169.584 482.15L84.744 482.15z" /></clipPath><clipPath id="124"><path d="M170.19 634.56L224.925 634.56L224.925 634.56L224.925 482.16L224.925 482.16L170.19 482.16z" /></clipPath><clipPath id="125"><path d="M170.18 634.55L224.924 634.55L224.924 634.55L224.924 482.15L224.924 482.15L170.18 482.15z" /></clipPath><clipPath id="126"><path d="M170.18 634.55L224.924 634.55L224.924 634.55L224.924 482.15L224.924 482.15L170.18 482.15z" /></clipPath><clipPath id="127"><path d="M225.41 634.56L274.49 634.56L274.49 634.56L274.49 482.16L274.49 482.16L225.41 482.16z" /></clipPath><clipPath id="128"><path d="M225.41 634.55L274.49 634.55L274.49 634.55L274.49 482.15L274.49 482.15L225.41 482.15z" /></clipPath><clipPath id="129"><path d="M225.41 634.55L274.49 634.55L274.49 634.55L274.49 482.15L274.49 482.15L225.41 482.15z" /></clipPath><clipPath id="130"><path d="M274.97 634.56L394.64 634.56L394.64 634.56L394.64 482.16L394.64 482.16L274.97 482.16z" /></clipPath><clipPath id="131"><path d="M274.97 634.55L394.63 634.55L394.63 634.55L394.63 482.15L394.63 482.15L274.97 482.15z" /></clipPath><clipPath id="132"><path d="M274.97 634.55L394.63 634.55L394.63 634.55L394.63 482.15L394.63 482.15L274.97 482.15z" /></clipPath><clipPath id="133"><path d="M274.97 634.55L394.63 634.55L394.63 634.55L394.63 482.15L394.63 482.15L274.97 482.15z" /></clipPath><clipPath id="134"><path d="M395.24 634.56L520.89 634.56L520.89 634.56L520.89 482.16L520.89 482.16L395.24 482.16z" /></clipPath><clipPath id="135"><path d="M395.23 634.55L520.89 634.55L520.89 634.55L520.89 482.15L520.89 482.15L395.23 482.15z" /></clipPath><clipPath id="136"><path d="M395.23 634.55L520.89 634.55L520.89 634.55L520.89 482.15L520.89 482.15L395.23 482.15z" /></clipPath><clipPath id="137"><path d="M395.23 634.55L520.89 634.55L520.89 634.55L520.89 482.15L520.89 482.15L395.23 482.15z" /></clipPath><clipPath id="138"><path d="M395.23 634.55L520.89 634.55L520.89 634.55L520.89 482.15L520.89 482.15L395.23 482.15z" /></clipPath><clipPath id="139"><path d="M395.23 634.55L520.89 634.55L520.89 634.55L520.89 482.15L520.89 482.15L395.23 482.15z" /></clipPath><clipPath id="140"><path d="M395.23 634.55L520.89 634.55L520.89 634.55L520.89 482.15L520.89 482.15L395.23 482.15z" /></clipPath><clipPath id="141"><path d="M395.23 634.55L520.89 634.55L520.89 634.55L520.89 482.15L520.89 482.15L395.23 482.15z" /></clipPath><clipPath id="142"><path d="M395.23 634.55L520.89 634.55L520.89 634.55L520.89 482.15L520.89 482.15L395.23 482.15z" /></clipPath><clipPath id="143"><path d="M395.23 634.55L520.89 634.55L520.89 634.55L520.89 482.15L520.89 482.15L395.23 482.15z" /></clipPath><clipPath id="144"><path d="M395.23 634.55L520.89 634.55L520.89 634.55L520.89 482.15L520.89 482.15L395.23 482.15z" /></clipPath><clipPath id="145"><path d="M395.23 634.55L520.89 634.55L520.89 634.55L520.89 482.15L520.89 482.15L395.23 482.15z" /></clipPath><clipPath id="146"><path d="M395.23 634.55L520.89 634.55L520.89 634.55L520.89 482.15L520.89 482.15L395.23 482.15z" /></clipPath><clipPath id="147"><path d="M395.23 634.55L520.89 634.55L520.89 634.55L520.89 482.15L520.89 482.15L395.23 482.15z" /></clipPath><clipPath id="148"><path d="M395.23 634.55L520.89 634.55L520.89 634.55L520.89 482.15L520.89 482.15L395.23 482.15z" /></clipPath><clipPath id="149"><path d="M395.23 634.55L520.89 634.55L520.89 634.55L520.89 482.15L520.89 482.15L395.23 482.15z" /></clipPath><clipPath id="150"><path d="M395.23 634.55L520.89 634.55L520.89 634.55L520.89 482.15L520.89 482.15L395.23 482.15z" /></clipPath><clipPath id="151"><path d="M395.23 634.55L520.89 634.55L520.89 634.55L520.89 482.15L520.89 482.15L395.23 482.15z" /></clipPath><clipPath id="152"><path d="M395.23 634.55L520.89 634.55L520.89 634.55L520.89 482.15L520.89 482.15L395.23 482.15z" /></clipPath><clipPath id="153"><path d="M84.751 673.21L169.591 673.21L169.591 673.21L169.591 635.155L169.591 635.155L84.751 635.155z" /></clipPath><clipPath id="154"><path d="M84.744 673.22L169.584 673.22L169.584 673.22L169.584 635.156L169.584 635.156L84.744 635.156z" /></clipPath><clipPath id="155"><path d="M84.744 673.22L169.584 673.22L169.584 673.22L169.584 635.156L169.584 635.156L84.744 635.156z" /></clipPath><clipPath id="156"><path d="M170.19 673.21L224.925 673.21L224.925 673.21L224.925 635.155L224.925 635.155L170.19 635.155z" /></clipPath><clipPath id="157"><path d="M170.18 673.22L224.924 673.22L224.924 673.22L224.924 635.156L224.924 635.156L170.18 635.156z" /></clipPath><clipPath id="158"><path d="M170.18 673.22L224.924 673.22L224.924 673.22L224.924 635.156L224.924 635.156L170.18 635.156z" /></clipPath><clipPath id="159"><path d="M225.41 673.21L274.49 673.21L274.49 673.21L274.49 635.155L274.49 635.155L225.41 635.155z" /></clipPath><clipPath id="160"><path d="M225.41 673.22L274.49 673.22L274.49 673.22L274.49 635.156L274.49 635.156L225.41 635.156z" /></clipPath><clipPath id="161"><path d="M225.41 673.22L274.49 673.22L274.49 673.22L274.49 635.156L274.49 635.156L225.41 635.156z" /></clipPath><clipPath id="162"><path d="M274.97 673.21L394.64 673.21L394.64 673.21L394.64 635.155L394.64 635.155L274.97 635.155z" /></clipPath><clipPath id="163"><path d="M274.97 673.22L394.63 673.22L394.63 673.22L394.63 635.156L394.63 635.156L274.97 635.156z" /></clipPath><clipPath id="164"><path d="M274.97 673.22L394.63 673.22L394.63 673.22L394.63 635.156L394.63 635.156L274.97 635.156z" /></clipPath><clipPath id="165"><path d="M395.24 673.21L520.89 673.21L520.89 673.21L520.89 635.155L520.89 635.155L395.24 635.155z" /></clipPath><clipPath id="166"><path d="M395.23 673.22L520.89 673.22L520.89 673.22L520.89 635.156L520.89 635.156L395.23 635.156z" /></clipPath><clipPath id="167"><path d="M395.23 673.22L520.89 673.22L520.89 673.22L520.89 635.156L520.89 635.156L395.23 635.156z" /></clipPath><clipPath id="168"><path d="M395.23 673.22L520.89 673.22L520.89 673.22L520.89 635.156L520.89 635.156L395.23 635.156z" /></clipPath><clipPath id="169"><path d="M84.751 730.81L169.591 730.81L169.591 730.81L169.591 673.69L169.591 673.69L84.751 673.69z" /></clipPath><clipPath id="170"><path d="M84.744 730.82L169.584 730.82L169.584 730.82L169.584 673.7L169.584 673.7L84.744 673.7z" /></clipPath><clipPath id="171"><path d="M84.744 730.82L169.584 730.82L169.584 730.82L169.584 673.7L169.584 673.7L84.744 673.7z" /></clipPath><clipPath id="172"><path d="M170.19 730.81L224.925 730.81L224.925 730.81L224.925 673.69L224.925 673.69L170.19 673.69z" /></clipPath><clipPath id="173"><path d="M170.18 730.82L224.924 730.82L224.924 730.82L224.924 673.7L224.924 673.7L170.18 673.7z" /></clipPath><clipPath id="174"><path d="M170.18 730.82L224.924 730.82L224.924 730.82L224.924 673.7L224.924 673.7L170.18 673.7z" /></clipPath><clipPath id="175"><path d="M225.41 730.81L274.49 730.81L274.49 730.81L274.49 673.69L274.49 673.69L225.41 673.69z" /></clipPath><clipPath id="176"><path d="M225.41 730.82L274.49 730.82L274.49 730.82L274.49 673.7L274.49 673.7L225.41 673.7z" /></clipPath><clipPath id="177"><path d="M225.41 730.82L274.49 730.82L274.49 730.82L274.49 673.7L274.49 673.7L225.41 673.7z" /></clipPath><clipPath id="178"><path d="M274.97 730.81L394.64 730.81L394.64 730.81L394.64 673.69L394.64 673.69L274.97 673.69z" /></clipPath><clipPath id="179"><path d="M274.97 730.82L394.63 730.82L394.63 730.82L394.63 673.7L394.63 673.7L274.97 673.7z" /></clipPath><clipPath id="180"><path d="M274.97 730.82L394.63 730.82L394.63 730.82L394.63 673.7L394.63 673.7L274.97 673.7z" /></clipPath><clipPath id="181"><path d="M395.24 730.81L520.89 730.81L520.89 730.81L520.89 673.69L520.89 673.69L395.24 673.69z" /></clipPath><clipPath id="182"><path d="M395.23 730.82L520.89 730.82L520.89 730.82L520.89 673.7L520.89 673.7L395.23 673.7z" /></clipPath><clipPath id="183"><path d="M395.23 730.82L520.89 730.82L520.89 730.82L520.89 673.7L520.89 673.7L395.23 673.7z" /></clipPath><clipPath id="184"><path d="M395.23 730.82L520.89 730.82L520.89 730.82L520.89 673.7L520.89 673.7L395.23 673.7z" /></clipPath><clipPath id="185"><path d="M395.23 730.82L520.89 730.82L520.89 730.82L520.89 673.7L520.89 673.7L395.23 673.7z" /></clipPath><clipPath id="186"><path d="M395.23 730.82L520.89 730.82L520.89 730.82L520.89 673.7L520.89 673.7L395.23 673.7z" /></clipPath><clipPath id="187"><path d="M395.23 730.82L520.89 730.82L520.89 730.82L520.89 673.7L520.89 673.7L395.23 673.7z" /></clipPath><clipPath id="188"><path d="M395.23 730.82L520.89 730.82L520.89 730.82L520.89 673.7L520.89 673.7L395.23 673.7z" /></clipPath><clipPath id="189"><path d="M395.23 730.82L520.89 730.82L520.89 730.82L520.89 673.7L520.89 673.7L395.23 673.7z" /></clipPath><clipPath id="190"><path d="M395.23 730.82L520.89 730.82L520.89 730.82L520.89 673.7L520.89 673.7L395.23 673.7z" /></clipPath><clipPath id="191"><path d="M84.751 750.371L169.591 750.371L169.591 750.371L169.591 731.411L169.591 731.411L84.751 731.411z" /></clipPath><clipPath id="192"><path d="M84.744 750.376L169.584 750.376L169.584 750.376L169.584 731.416L169.584 731.416L84.744 731.416z" /></clipPath><clipPath id="193"><path d="M84.744 750.376L169.584 750.376L169.584 750.376L169.584 731.416L169.584 731.416L84.744 731.416z" /></clipPath><clipPath id="194"><path d="M170.19 750.371L224.925 750.371L224.925 750.371L224.925 731.411L224.925 731.411L170.19 731.411z" /></clipPath><clipPath id="195"><path d="M170.18 750.376L224.924 750.376L224.924 750.376L224.924 731.416L224.924 731.416L170.18 731.416z" /></clipPath><clipPath id="196"><path d="M170.18 750.376L224.924 750.376L224.924 750.376L224.924 731.416L224.924 731.416L170.18 731.416z" /></clipPath><clipPath id="197"><path d="M225.41 750.371L274.49 750.371L274.49 750.371L274.49 731.411L274.49 731.411L225.41 731.411z" /></clipPath><clipPath id="198"><path d="M225.41 750.376L274.49 750.376L274.49 750.376L274.49 731.416L274.49 731.416L225.41 731.416z" /></clipPath><clipPath id="199"><path d="M225.41 750.376L274.49 750.376L274.49 750.376L274.49 731.416L274.49 731.416L225.41 731.416z" /></clipPath><clipPath id="200"><path d="M274.97 750.371L394.64 750.371L394.64 750.371L394.64 731.411L394.64 731.411L274.97 731.411z" /></clipPath><clipPath id="201"><path d="M274.97 750.376L394.63 750.376L394.63 750.376L394.63 731.416L394.63 731.416L274.97 731.416z" /></clipPath><clipPath id="202"><path d="M395.24 750.371L520.89 750.371L520.89 750.371L520.89 731.411L520.89 731.411L395.24 731.411z" /></clipPath><clipPath id="203"><path d="M395.23 750.376L520.89 750.376L520.89 750.376L520.89 731.416L520.89 731.416L395.23 731.416z" /></clipPath><clipPath id="204"><path d="M395.23 750.376L520.89 750.376L520.89 750.376L520.89 731.416L520.89 731.416L395.23 731.416z" /></clipPath></defs><g transform="matrix(1.333333 0 0 1.333333 0 0)"><g><g clip-path="url(#1)"><path transform="matrix(1 0 0 -1 0 841)" d="M457.51 53.304L505.534 53.304L505.534 53.304L505.534 53.90404L505.534 53.90404L457.51 53.90404z" stroke="none" fill="#000000" fill-rule="evenodd" /><g clip-path="url(#2)"><path transform="matrix(1 0 0 -1 0 841)" d="M88.464 77.904L506.974 77.904L506.974 77.904L506.974 80.904L506.974 80.904L88.464 80.904z" stroke="none" fill="#000000" fill-rule="evenodd" /><path transform="matrix(1 0 0 -1 0 841)" d="M88.464 76.464L506.974 76.464L506.974 76.464L506.974 77.18397L506.974 77.18397L88.464 77.18397z" stroke="none" fill="#000000" fill-rule="evenodd" /></g><g clip-path="url(#3)"><g clip-path="url(#4)"></g><g clip-path="url(#5)"></g></g><path transform="matrix(1 0 0 -1 0 841)" d="M84.744 732.46L510.694 732.46L510.694 732.46L510.694 751.564L510.694 751.564L84.744 751.564z" stroke="none" fill="#0070C0" fill-rule="evenodd" /><g clip-path="url(#6)"><path transform="matrix(1 0 0 -1 0 841)" d="M89.904 732.46L505.534 732.46L505.534 732.46L505.534 751.564L505.534 751.564L89.904 751.564z" stroke="none" fill="#0070C0" fill-rule="evenodd" /><g clip-path="url(#7)"></g><g clip-path="url(#8)"></g><g clip-path="url(#9)"></g></g><path transform="matrix(1 0 0 -1 0 841)" d="M84.264 751.56L84.744 751.56L84.744 751.56L84.744 752.04L84.744 752.04L84.264 752.04z" stroke="none" fill="#000000" fill-rule="evenodd" /><path transform="matrix(1 0 0 -1 0 841)" d="M84.264 751.56L84.744 751.56L84.744 751.56L84.744 752.04L84.744 752.04L84.264 752.04z" stroke="none" fill="#000000" fill-rule="evenodd" /><path transform="matrix(1 0 0 -1 0 841)" d="M84.744 751.56L510.694 751.56L510.694 751.56L510.694 752.04L510.694 752.04L84.744 752.04z" stroke="none" fill="#000000" fill-rule="evenodd" /><path transform="matrix(1 0 0 -1 0 841)" d="M510.7 751.56L511.18 751.56L511.18 751.56L511.18 752.04L511.18 752.04L510.7 752.04z" stroke="none" fill="#000000" fill-rule="evenodd" /><path transform="matrix(1 0 0 -1 0 841)" d="M510.7 751.56L511.18 751.56L511.18 751.56L511.18 752.04L511.18 752.04L510.7 752.04z" stroke="none" fill="#000000" fill-rule="evenodd" /><path transform="matrix(1 0 0 -1 0 841)" d="M84.264 732.46L84.744 732.46L84.744 732.46L84.744 751.564L84.744 751.564L84.264 751.564z" stroke="none" fill="#000000" fill-rule="evenodd" /><path transform="matrix(1 0 0 -1 0 841)" d="M510.7 732.46L511.18 732.46L511.18 732.46L511.18 751.564L511.18 751.564L510.7 751.564z" stroke="none" fill="#000000" fill-rule="evenodd" /><path transform="matrix(1 0 0 -1 0 841)" d="M84.744 617.74L510.694 617.74L510.694 617.74L510.694 731.98L510.694 731.98L84.744 731.98z" stroke="none" fill="#DAEEF3" fill-rule="evenodd" /><g clip-path="url(#10)"><path transform="matrix(1 0 0 -1 0 841)" d="M89.904 712.9L505.534 712.9L505.534 712.9L505.534 731.98L505.534 731.98L89.904 731.98z" stroke="none" fill="#DAEEF3" fill-rule="evenodd" /><g clip-path="url(#11)"></g><g clip-path="url(#12)"></g><g clip-path="url(#13)"></g><path transform="matrix(1 0 0 -1 0 841)" d="M89.904 693.94L505.534 693.94L505.534 693.94L505.534 712.9L505.534 712.9L89.904 712.9z" stroke="none" fill="#DAEEF3" fill-rule="evenodd" /><g clip-path="url(#14)"></g><g clip-path="url(#15)"></g><path transform="matrix(1 0 0 -1 0 841)" d="M89.904 674.86L505.534 674.86L505.534 674.86L505.534 693.94L505.534 693.94L89.904 693.94z" stroke="none" fill="#DAEEF3" fill-rule="evenodd" /><g clip-path="url(#16)"></g><g clip-path="url(#17)"></g><path transform="matrix(1 0 0 -1 0 841)" d="M89.904 655.78L505.534 655.78L505.534 655.78L505.534 674.86L505.534 674.86L89.904 674.86z" stroke="none" fill="#DAEEF3" fill-rule="evenodd" /><g clip-path="url(#18)"></g><g clip-path="url(#19)"></g><path transform="matrix(1 0 0 -1 0 841)" d="M89.904 636.7L505.534 636.7L505.534 636.7L505.534 655.78L505.534 655.78L89.904 655.78z" stroke="none" fill="#DAEEF3" fill-rule="evenodd" /><g clip-path="url(#20)"></g><g clip-path="url(#21)"></g><g clip-path="url(#22)"></g><g clip-path="url(#23)"></g><g clip-path="url(#24)"></g><g clip-path="url(#25)"></g><g clip-path="url(#26)"></g><path transform="matrix(1 0 0 -1 0 841)" d="M89.904 617.74L505.534 617.74L505.534 617.74L505.534 636.7L505.534 636.7L89.904 636.7z" stroke="none" fill="#DAEEF3" fill-rule="evenodd" /><g clip-path="url(#27)"></g><g clip-path="url(#28)"></g></g><path transform="matrix(1 0 0 -1 0 841)" d="M84.264 731.98L84.744 731.98L84.744 731.98L84.744 732.46L84.744 732.46L84.264 732.46z" stroke="none" fill="#000000" fill-rule="evenodd" /><path transform="matrix(1 0 0 -1 0 841)" d="M84.744 731.98L510.694 731.98L510.694 731.98L510.694 732.46L510.694 732.46L84.744 732.46z" stroke="none" fill="#000000" fill-rule="evenodd" /><path transform="matrix(1 0 0 -1 0 841)" d="M510.7 731.98L511.18 731.98L511.18 731.98L511.18 732.46L511.18 732.46L510.7 732.46z" stroke="none" fill="#000000" fill-rule="evenodd" /><path transform="matrix(1 0 0 -1 0 841)" d="M84.264 617.74L84.744 617.74L84.744 617.74L84.744 731.98L84.744 731.98L84.264 731.98z" stroke="none" fill="#000000" fill-rule="evenodd" /><path transform="matrix(1 0 0 -1 0 841)" d="M84.264 617.26L84.744 617.26L84.744 617.26L84.744 617.74L84.744 617.74L84.264 617.74z" stroke="none" fill="#000000" fill-rule="evenodd" /><path transform="matrix(1 0 0 -1 0 841)" d="M84.264 617.26L84.744 617.26L84.744 617.26L84.744 617.74L84.744 617.74L84.264 617.74z" stroke="none" fill="#000000" fill-rule="evenodd" /><path transform="matrix(1 0 0 -1 0 841)" d="M84.744 617.26L510.694 617.26L510.694 617.26L510.694 617.74L510.694 617.74L84.744 617.74z" stroke="none" fill="#000000" fill-rule="evenodd" /><path transform="matrix(1 0 0 -1 0 841)" d="M510.7 617.74L511.18 617.74L511.18 617.74L511.18 731.98L511.18 731.98L510.7 731.98z" stroke="none" fill="#000000" fill-rule="evenodd" /><path transform="matrix(1 0 0 -1 0 841)" d="M510.7 617.26L511.18 617.26L511.18 617.26L511.18 617.74L511.18 617.74L510.7 617.74z" stroke="none" fill="#000000" fill-rule="evenodd" /><path transform="matrix(1 0 0 -1 0 841)" d="M510.7 617.26L511.18 617.26L511.18 617.26L511.18 617.74L511.18 617.74L510.7 617.74z" stroke="none" fill="#000000" fill-rule="evenodd" /><path transform="matrix(1 0 0 -1 0 841)" d="M264.53 561.46L334.514 561.46L334.514 561.46L334.514 562.18L334.514 562.18L264.53 562.18z" stroke="none" fill="#000000" fill-rule="evenodd" /><path transform="matrix(1 0 0 -1 0 841)" d="M348.55 561.46L390.55 561.46L390.55 561.46L390.55 562.18L390.55 562.18L348.55 562.18z" stroke="none" fill="#000000" fill-rule="evenodd" /><path transform="matrix(1 0 0 -1 0 841)" d="M84.744 476.11L169.584 476.11L169.584 476.11L169.584 498.07L169.584 498.07L84.744 498.07z" stroke="none" fill="#0070C0" fill-rule="evenodd" /><g clip-path="url(#29)"><path transform="matrix(1 0 0 -1 0 841)" d="M89.904 478.99L164.424 478.99L164.424 478.99L164.424 498.07L164.424 498.07L89.904 498.07z" stroke="none" fill="#0070C0" fill-rule="evenodd" /><g clip-path="url(#30)"></g><g clip-path="url(#31)"></g></g><path transform="matrix(1 0 0 -1 0 841)" d="M170.18 476.11L224.924 476.11L224.924 476.11L224.924 498.07L224.924 498.07L170.18 498.07z" stroke="none" fill="#0070C0" fill-rule="evenodd" /><g clip-path="url(#32)"><path transform="matrix(1 0 0 -1 0 841)" d="M175.22 478.99L219.764 478.99L219.764 478.99L219.764 498.07L219.764 498.07L175.22 498.07z" stroke="none" fill="#0070C0" fill-rule="evenodd" /><g clip-path="url(#33)"></g><g clip-path="url(#34)"></g></g><path transform="matrix(1 0 0 -1 0 841)" d="M225.41 476.11L274.49 476.11L274.49 476.11L274.49 498.07L274.49 498.07L225.41 498.07z" stroke="none" fill="#0070C0" fill-rule="evenodd" /><g clip-path="url(#35)"><path transform="matrix(1 0 0 -1 0 841)" d="M230.57 478.99L269.33 478.99L269.33 478.99L269.33 498.07L269.33 498.07L230.57 498.07z" stroke="none" fill="#0070C0" fill-rule="evenodd" /><g clip-path="url(#36)"></g><g clip-path="url(#37)"></g></g><path transform="matrix(1 0 0 -1 0 841)" d="M274.97 476.11L394.63 476.11L394.63 476.11L394.63 498.07L394.63 498.07L274.97 498.07z" stroke="none" fill="#0070C0" fill-rule="evenodd" /><g clip-path="url(#38)"><path transform="matrix(1 0 0 -1 0 841)" d="M280.13 478.99L389.47 478.99L389.47 478.99L389.47 498.07L389.47 498.07L280.13 498.07z" stroke="none" fill="#0070C0" fill-rule="evenodd" /><g clip-path="url(#39)"></g><g clip-path="url(#40)"></g></g><path transform="matrix(1 0 0 -1 0 841)" d="M395.23 476.11L520.89 476.11L520.89 476.11L520.89 498.07L520.89 498.07L395.23 498.07z" stroke="none" fill="#0070C0" fill-rule="evenodd" /><g clip-path="url(#41)"><path transform="matrix(1 0 0 -1 0 841)" d="M400.27 478.99L515.73 478.99L515.73 478.99L515.73 498.07L515.73 498.07L400.27 498.07z" stroke="none" fill="#0070C0" fill-rule="evenodd" /><g clip-path="url(#42)"></g><g clip-path="url(#43)"></g></g><path transform="matrix(1 0 0 -1 0 841)" d="M84.264 498.07L84.744 498.07L84.744 498.07L84.744 498.55L84.744 498.55L84.264 498.55z" stroke="none" fill="#000000" fill-rule="evenodd" /><path transform="matrix(1 0 0 -1 0 841)" d="M84.264 498.07L84.744 498.07L84.744 498.07L84.744 498.55L84.744 498.55L84.264 498.55z" stroke="none" fill="#000000" fill-rule="evenodd" /><path transform="matrix(1 0 0 -1 0 841)" d="M84.744 498.07L169.704 498.07L169.704 498.07L169.704 498.55L169.704 498.55L84.744 498.55z" stroke="none" fill="#000000" fill-rule="evenodd" /><path transform="matrix(1 0 0 -1 0 841)" d="M169.7 498.07L170.18 498.07L170.18 498.07L170.18 498.55L170.18 498.55L169.7 498.55z" stroke="none" fill="#000000" fill-rule="evenodd" /><path transform="matrix(1 0 0 -1 0 841)" d="M170.18 498.07L224.924 498.07L224.924 498.07L224.924 498.55L224.924 498.55L170.18 498.55z" stroke="none" fill="#000000" fill-rule="evenodd" /><path transform="matrix(1 0 0 -1 0 841)" d="M224.93 498.07L225.41 498.07L225.41 498.07L225.41 498.55L225.41 498.55L224.93 498.55z" stroke="none" fill="#000000" fill-rule="evenodd" /><path transform="matrix(1 0 0 -1 0 841)" d="M225.41 498.07L274.49 498.07L274.49 498.07L274.49 498.55L274.49 498.55L225.41 498.55z" stroke="none" fill="#000000" fill-rule="evenodd" /><path transform="matrix(1 0 0 -1 0 841)" d="M274.49 498.07L274.97 498.07L274.97 498.07L274.97 498.55L274.97 498.55L274.49 498.55z" stroke="none" fill="#000000" fill-rule="evenodd" /><path transform="matrix(1 0 0 -1 0 841)" d="M274.97 498.07L394.75 498.07L394.75 498.07L394.75 498.55L394.75 498.55L274.97 498.55z" stroke="none" fill="#000000" fill-rule="evenodd" /><path transform="matrix(1 0 0 -1 0 841)" d="M394.75 498.07L395.23 498.07L395.23 498.07L395.23 498.55L395.23 498.55L394.75 498.55z" stroke="none" fill="#000000" fill-rule="evenodd" /><path transform="matrix(1 0 0 -1 0 841)" d="M395.23 498.07L520.89 498.07L520.89 498.07L520.89 498.55L520.89 498.55L395.23 498.55z" stroke="none" fill="#000000" fill-rule="evenodd" /><path transform="matrix(1 0 0 -1 0 841)" d="M520.9 498.07L521.38 498.07L521.38 498.07L521.38 498.55L521.38 498.55L520.9 498.55z" stroke="none" fill="#000000" fill-rule="evenodd" /><path transform="matrix(1 0 0 -1 0 841)" d="M520.9 498.07L521.38 498.07L521.38 498.07L521.38 498.55L521.38 498.55L520.9 498.55z" stroke="none" fill="#000000" fill-rule="evenodd" /><path transform="matrix(1 0 0 -1 0 841)" d="M84.264 476.11L84.744 476.11L84.744 476.11L84.744 498.07L84.744 498.07L84.264 498.07z" stroke="none" fill="#000000" fill-rule="evenodd" /><path transform="matrix(1 0 0 -1 0 841)" d="M169.7 476.11L170.18 476.11L170.18 476.11L170.18 498.07L170.18 498.07L169.7 498.07z" stroke="none" fill="#000000" fill-rule="evenodd" /><path transform="matrix(1 0 0 -1 0 841)" d="M224.93 476.11L225.41 476.11L225.41 476.11L225.41 498.07L225.41 498.07L224.93 498.07z" stroke="none" fill="#000000" fill-rule="evenodd" /><path transform="matrix(1 0 0 -1 0 841)" d="M274.49 476.11L274.97 476.11L274.97 476.11L274.97 498.07L274.97 498.07L274.49 498.07z" stroke="none" fill="#000000" fill-rule="evenodd" /><path transform="matrix(1 0 0 -1 0 841)" d="M394.75 476.11L395.23 476.11L395.23 476.11L395.23 498.07L395.23 498.07L394.75 498.07z" stroke="none" fill="#000000" fill-rule="evenodd" /><path transform="matrix(1 0 0 -1 0 841)" d="M520.9 476.11L521.38 476.11L521.38 476.11L521.38 498.07L521.38 498.07L520.9 498.07z" stroke="none" fill="#000000" fill-rule="evenodd" /><path transform="matrix(1 0 0 -1 0 841)" d="M84.744 437.47L169.584 437.47L169.584 437.47L169.584 475.63L169.584 475.63L84.744 475.63z" stroke="none" fill="#DAEEF3" fill-rule="evenodd" /><g clip-path="url(#44)"><path transform="matrix(1 0 0 -1 0 841)" d="M89.904 456.55L164.424 456.55L164.424 456.55L164.424 475.63L164.424 475.63L89.904 475.63z" stroke="none" fill="#DAEEF3" fill-rule="evenodd" /><g clip-path="url(#45)"></g><g clip-path="url(#46)"></g></g><path transform="matrix(1 0 0 -1 0 841)" d="M170.18 437.47L224.924 437.47L224.924 437.47L224.924 475.63L224.924 475.63L170.18 475.63z" stroke="none" fill="#DAEEF3" fill-rule="evenodd" /><g clip-path="url(#47)"><path transform="matrix(1 0 0 -1 0 841)" d="M175.22 456.55L219.764 456.55L219.764 456.55L219.764 475.63L219.764 475.63L175.22 475.63z" stroke="none" fill="#DAEEF3" fill-rule="evenodd" /><g clip-path="url(#48)"></g><g clip-path="url(#49)"></g></g><path transform="matrix(1 0 0 -1 0 841)" d="M225.41 437.47L274.49 437.47L274.49 437.47L274.49 475.63L274.49 475.63L225.41 475.63z" stroke="none" fill="#DAEEF3" fill-rule="evenodd" /><g clip-path="url(#50)"><path transform="matrix(1 0 0 -1 0 841)" d="M230.57 456.55L269.33 456.55L269.33 456.55L269.33 475.63L269.33 475.63L230.57 475.63z" stroke="none" fill="#DAEEF3" fill-rule="evenodd" /><g clip-path="url(#51)"></g><g clip-path="url(#52)"></g></g><path transform="matrix(1 0 0 -1 0 841)" d="M274.97 437.47L394.63 437.47L394.63 437.47L394.63 475.63L394.63 475.63L274.97 475.63z" stroke="none" fill="#DAEEF3" fill-rule="evenodd" /><g clip-path="url(#53)"><path transform="matrix(1 0 0 -1 0 841)" d="M280.13 456.55L389.47 456.55L389.47 456.55L389.47 475.63L389.47 475.63L280.13 475.63z" stroke="none" fill="#DAEEF3" fill-rule="evenodd" /><g clip-path="url(#54)"></g><path transform="matrix(1 0 0 -1 0 841)" d="M280.13 437.47L389.47 437.47L389.47 437.47L389.47 456.55L389.47 456.55L280.13 456.55z" stroke="none" fill="#DAEEF3" fill-rule="evenodd" /><g clip-path="url(#55)"></g><g clip-path="url(#56)"></g></g><path transform="matrix(1 0 0 -1 0 841)" d="M395.23 437.47L520.89 437.47L520.89 437.47L520.89 475.63L520.89 475.63L395.23 475.63z" stroke="none" fill="#DAEEF3" fill-rule="evenodd" /><g clip-path="url(#57)"><path transform="matrix(1 0 0 -1 0 841)" d="M400.27 456.55L515.73 456.55L515.73 456.55L515.73 475.63L515.73 475.63L400.27 475.63z" stroke="none" fill="#DAEEF3" fill-rule="evenodd" /><g clip-path="url(#58)"></g><g clip-path="url(#59)"></g></g><path transform="matrix(1 0 0 -1 0 841)" d="M84.264 475.63L84.744 475.63L84.744 475.63L84.744 476.11L84.744 476.11L84.264 476.11z" stroke="none" fill="#000000" fill-rule="evenodd" /><path transform="matrix(1 0 0 -1 0 841)" d="M84.744 475.63L169.704 475.63L169.704 475.63L169.704 476.11L169.704 476.11L84.744 476.11z" stroke="none" fill="#000000" fill-rule="evenodd" /><path transform="matrix(1 0 0 -1 0 841)" d="M169.7 475.63L170.18 475.63L170.18 475.63L170.18 476.11L170.18 476.11L169.7 476.11z" stroke="none" fill="#000000" fill-rule="evenodd" /><path transform="matrix(1 0 0 -1 0 841)" d="M170.18 475.63L224.924 475.63L224.924 475.63L224.924 476.11L224.924 476.11L170.18 476.11z" stroke="none" fill="#000000" fill-rule="evenodd" /><path transform="matrix(1 0 0 -1 0 841)" d="M224.93 475.63L225.41 475.63L225.41 475.63L225.41 476.11L225.41 476.11L224.93 476.11z" stroke="none" fill="#000000" fill-rule="evenodd" /><path transform="matrix(1 0 0 -1 0 841)" d="M225.41 475.63L274.49 475.63L274.49 475.63L274.49 476.11L274.49 476.11L225.41 476.11z" stroke="none" fill="#000000" fill-rule="evenodd" /><path transform="matrix(1 0 0 -1 0 841)" d="M274.49 475.63L274.97 475.63L274.97 475.63L274.97 476.11L274.97 476.11L274.49 476.11z" stroke="none" fill="#000000" fill-rule="evenodd" /><path transform="matrix(1 0 0 -1 0 841)" d="M274.97 475.63L394.75 475.63L394.75 475.63L394.75 476.11L394.75 476.11L274.97 476.11z" stroke="none" fill="#000000" fill-rule="evenodd" /><path transform="matrix(1 0 0 -1 0 841)" d="M394.75 475.63L395.23 475.63L395.23 475.63L395.23 476.11L395.23 476.11L394.75 476.11z" stroke="none" fill="#000000" fill-rule="evenodd" /><path transform="matrix(1 0 0 -1 0 841)" d="M395.23 475.63L520.89 475.63L520.89 475.63L520.89 476.11L520.89 476.11L395.23 476.11z" stroke="none" fill="#000000" fill-rule="evenodd" /><path transform="matrix(1 0 0 -1 0 841)" d="M520.9 475.63L521.38 475.63L521.38 475.63L521.38 476.11L521.38 476.11L520.9 476.11z" stroke="none" fill="#000000" fill-rule="evenodd" /><path transform="matrix(1 0 0 -1 0 841)" d="M84.264 437.47L84.744 437.47L84.744 437.47L84.744 475.63L84.744 475.63L84.264 475.63z" stroke="none" fill="#000000" fill-rule="evenodd" /><path transform="matrix(1 0 0 -1 0 841)" d="M169.7 437.47L170.18 437.47L170.18 437.47L170.18 475.63L170.18 475.63L169.7 475.63z" stroke="none" fill="#000000" fill-rule="evenodd" /><path transform="matrix(1 0 0 -1 0 841)" d="M224.93 437.47L225.41 437.47L225.41 437.47L225.41 475.63L225.41 475.63L224.93 475.63z" stroke="none" fill="#000000" fill-rule="evenodd" /><path transform="matrix(1 0 0 -1 0 841)" d="M274.49 437.47L274.97 437.47L274.97 437.47L274.97 475.63L274.97 475.63L274.49 475.63z" stroke="none" fill="#000000" fill-rule="evenodd" /><path transform="matrix(1 0 0 -1 0 841)" d="M394.75 437.47L395.23 437.47L395.23 437.47L395.23 475.63L395.23 475.63L394.75 475.63z" stroke="none" fill="#000000" fill-rule="evenodd" /><path transform="matrix(1 0 0 -1 0 841)" d="M520.9 437.47L521.38 437.47L521.38 437.47L521.38 475.63L521.38 475.63L520.9 475.63z" stroke="none" fill="#000000" fill-rule="evenodd" /><g clip-path="url(#60)"><g clip-path="url(#61)"></g><g clip-path="url(#62)"></g></g><g clip-path="url(#63)"><g clip-path="url(#64)"></g><g clip-path="url(#65)"></g></g><g clip-path="url(#66)"><g clip-path="url(#67)"></g><g clip-path="url(#68)"></g></g><g clip-path="url(#69)"><g clip-path="url(#70)"></g><g clip-path="url(#71)"></g></g><g clip-path="url(#72)"><g clip-path="url(#73)"></g><g clip-path="url(#74)"></g></g><path transform="matrix(1 0 0 -1 0 841)" d="M84.264 436.99L84.744 436.99L84.744 436.99L84.744 437.47L84.744 437.47L84.264 437.47z" stroke="none" fill="#000000" fill-rule="evenodd" /><path transform="matrix(1 0 0 -1 0 841)" d="M84.744 436.99L169.704 436.99L169.704 436.99L169.704 437.47L169.704 437.47L84.744 437.47z" stroke="none" fill="#000000" fill-rule="evenodd" /><path transform="matrix(1 0 0 -1 0 841)" d="M169.7 436.99L170.18 436.99L170.18 436.99L170.18 437.47L170.18 437.47L169.7 437.47z" stroke="none" fill="#000000" fill-rule="evenodd" /><path transform="matrix(1 0 0 -1 0 841)" d="M170.18 436.99L224.924 436.99L224.924 436.99L224.924 437.47L224.924 437.47L170.18 437.47z" stroke="none" fill="#000000" fill-rule="evenodd" /><path transform="matrix(1 0 0 -1 0 841)" d="M224.93 436.99L225.41 436.99L225.41 436.99L225.41 437.47L225.41 437.47L224.93 437.47z" stroke="none" fill="#000000" fill-rule="evenodd" /><path transform="matrix(1 0 0 -1 0 841)" d="M225.41 436.99L274.49 436.99L274.49 436.99L274.49 437.47L274.49 437.47L225.41 437.47z" stroke="none" fill="#000000" fill-rule="evenodd" /><path transform="matrix(1 0 0 -1 0 841)" d="M274.49 436.99L274.97 436.99L274.97 436.99L274.97 437.47L274.97 437.47L274.49 437.47z" stroke="none" fill="#000000" fill-rule="evenodd" /><path transform="matrix(1 0 0 -1 0 841)" d="M274.97 436.99L394.75 436.99L394.75 436.99L394.75 437.47L394.75 437.47L274.97 437.47z" stroke="none" fill="#000000" fill-rule="evenodd" /><path transform="matrix(1 0 0 -1 0 841)" d="M394.75 436.99L395.23 436.99L395.23 436.99L395.23 437.47L395.23 437.47L394.75 437.47z" stroke="none" fill="#000000" fill-rule="evenodd" /><path transform="matrix(1 0 0 -1 0 841)" d="M395.23 436.99L520.89 436.99L520.89 436.99L520.89 437.47L520.89 437.47L395.23 437.47z" stroke="none" fill="#000000" fill-rule="evenodd" /><path transform="matrix(1 0 0 -1 0 841)" d="M520.9 436.99L521.38 436.99L521.38 436.99L521.38 437.47L521.38 437.47L520.9 437.47z" stroke="none" fill="#000000" fill-rule="evenodd" /><path transform="matrix(1 0 0 -1 0 841)" d="M84.264 418.03L84.744 418.03L84.744 418.03L84.744 436.99L84.744 436.99L84.264 436.99z" stroke="none" fill="#000000" fill-rule="evenodd" /><path transform="matrix(1 0 0 -1 0 841)" d="M169.7 418.03L170.18 418.03L170.18 418.03L170.18 436.99L170.18 436.99L169.7 436.99z" stroke="none" fill="#000000" fill-rule="evenodd" /><path transform="matrix(1 0 0 -1 0 841)" d="M224.93 418.03L225.41 418.03L225.41 418.03L225.41 436.99L225.41 436.99L224.93 436.99z" stroke="none" fill="#000000" fill-rule="evenodd" /><path transform="matrix(1 0 0 -1 0 841)" d="M274.49 418.03L274.97 418.03L274.97 418.03L274.97 436.99L274.97 436.99L274.49 436.99z" stroke="none" fill="#000000" fill-rule="evenodd" /><path transform="matrix(1 0 0 -1 0 841)" d="M394.75 418.03L395.23 418.03L395.23 418.03L395.23 436.99L395.23 436.99L394.75 436.99z" stroke="none" fill="#000000" fill-rule="evenodd" /><path transform="matrix(1 0 0 -1 0 841)" d="M520.9 418.03L521.38 418.03L521.38 418.03L521.38 436.99L521.38 436.99L520.9 436.99z" stroke="none" fill="#000000" fill-rule="evenodd" /><path transform="matrix(1 0 0 -1 0 841)" d="M84.744 398.47L169.584 398.47L169.584 398.47L169.584 417.43L169.584 417.43L84.744 417.43z" stroke="none" fill="#DAEEF3" fill-rule="evenodd" /><g clip-path="url(#75)"><path transform="matrix(1 0 0 -1 0 841)" d="M89.904 398.47L164.424 398.47L164.424 398.47L164.424 417.43L164.424 417.43L89.904 417.43z" stroke="none" fill="#DAEEF3" fill-rule="evenodd" /><g clip-path="url(#76)"></g><g clip-path="url(#77)"></g></g><path transform="matrix(1 0 0 -1 0 841)" d="M170.18 398.47L224.924 398.47L224.924 398.47L224.924 417.43L224.924 417.43L170.18 417.43z" stroke="none" fill="#DAEEF3" fill-rule="evenodd" /><g clip-path="url(#78)"><path transform="matrix(1 0 0 -1 0 841)" d="M175.22 398.47L219.764 398.47L219.764 398.47L219.764 417.43L219.764 417.43L175.22 417.43z" stroke="none" fill="#DAEEF3" fill-rule="evenodd" /><g clip-path="url(#79)"></g><g clip-path="url(#80)"></g></g><path transform="matrix(1 0 0 -1 0 841)" d="M225.41 398.47L274.49 398.47L274.49 398.47L274.49 417.43L274.49 417.43L225.41 417.43z" stroke="none" fill="#DAEEF3" fill-rule="evenodd" /><g clip-path="url(#81)"><path transform="matrix(1 0 0 -1 0 841)" d="M230.57 398.47L269.33 398.47L269.33 398.47L269.33 417.43L269.33 417.43L230.57 417.43z" stroke="none" fill="#DAEEF3" fill-rule="evenodd" /><g clip-path="url(#82)"></g><g clip-path="url(#83)"></g></g><path transform="matrix(1 0 0 -1 0 841)" d="M274.97 398.47L394.63 398.47L394.63 398.47L394.63 417.43L394.63 417.43L274.97 417.43z" stroke="none" fill="#DAEEF3" fill-rule="evenodd" /><g clip-path="url(#84)"><path transform="matrix(1 0 0 -1 0 841)" d="M280.13 398.47L389.47 398.47L389.47 398.47L389.47 417.43L389.47 417.43L280.13 417.43z" stroke="none" fill="#DAEEF3" fill-rule="evenodd" /><g clip-path="url(#85)"></g><g clip-path="url(#86)"></g></g><path transform="matrix(1 0 0 -1 0 841)" d="M395.23 398.47L520.89 398.47L520.89 398.47L520.89 417.43L520.89 417.43L395.23 417.43z" stroke="none" fill="#DAEEF3" fill-rule="evenodd" /><g clip-path="url(#87)"><path transform="matrix(1 0 0 -1 0 841)" d="M400.27 398.47L515.73 398.47L515.73 398.47L515.73 417.43L515.73 417.43L400.27 417.43z" stroke="none" fill="#DAEEF3" fill-rule="evenodd" /><g clip-path="url(#88)"></g><g clip-path="url(#89)"></g><g clip-path="url(#90)"></g></g><path transform="matrix(1 0 0 -1 0 841)" d="M84.264 417.55L84.744 417.55L84.744 417.55L84.744 418.03L84.744 418.03L84.264 418.03z" stroke="none" fill="#000000" fill-rule="evenodd" /><path transform="matrix(1 0 0 -1 0 841)" d="M84.744 417.55L169.704 417.55L169.704 417.55L169.704 418.03L169.704 418.03L84.744 418.03z" stroke="none" fill="#000000" fill-rule="evenodd" /><path transform="matrix(1 0 0 -1 0 841)" d="M169.7 417.55L170.18 417.55L170.18 417.55L170.18 418.03L170.18 418.03L169.7 418.03z" stroke="none" fill="#000000" fill-rule="evenodd" /><path transform="matrix(1 0 0 -1 0 841)" d="M170.18 417.55L224.924 417.55L224.924 417.55L224.924 418.03L224.924 418.03L170.18 418.03z" stroke="none" fill="#000000" fill-rule="evenodd" /><path transform="matrix(1 0 0 -1 0 841)" d="M224.93 417.55L225.41 417.55L225.41 417.55L225.41 418.03L225.41 418.03L224.93 418.03z" stroke="none" fill="#000000" fill-rule="evenodd" /><path transform="matrix(1 0 0 -1 0 841)" d="M225.41 417.55L274.49 417.55L274.49 417.55L274.49 418.03L274.49 418.03L225.41 418.03z" stroke="none" fill="#000000" fill-rule="evenodd" /><path transform="matrix(1 0 0 -1 0 841)" d="M274.49 417.55L274.97 417.55L274.97 417.55L274.97 418.03L274.97 418.03L274.49 418.03z" stroke="none" fill="#000000" fill-rule="evenodd" /><path transform="matrix(1 0 0 -1 0 841)" d="M274.97 417.55L394.75 417.55L394.75 417.55L394.75 418.03L394.75 418.03L274.97 418.03z" stroke="none" fill="#000000" fill-rule="evenodd" /><path transform="matrix(1 0 0 -1 0 841)" d="M394.75 417.55L395.23 417.55L395.23 417.55L395.23 418.03L395.23 418.03L394.75 418.03z" stroke="none" fill="#000000" fill-rule="evenodd" /><path transform="matrix(1 0 0 -1 0 841)" d="M395.23 417.55L520.89 417.55L520.89 417.55L520.89 418.03L520.89 418.03L395.23 418.03z" stroke="none" fill="#000000" fill-rule="evenodd" /><path transform="matrix(1 0 0 -1 0 841)" d="M520.9 417.55L521.38 417.55L521.38 417.55L521.38 418.03L521.38 418.03L520.9 418.03z" stroke="none" fill="#000000" fill-rule="evenodd" /><path transform="matrix(1 0 0 -1 0 841)" d="M84.264 398.47L84.744 398.47L84.744 398.47L84.744 417.55L84.744 417.55L84.264 417.55z" stroke="none" fill="#000000" fill-rule="evenodd" /><path transform="matrix(1 0 0 -1 0 841)" d="M169.7 398.47L170.18 398.47L170.18 398.47L170.18 417.55L170.18 417.55L169.7 417.55z" stroke="none" fill="#000000" fill-rule="evenodd" /><path transform="matrix(1 0 0 -1 0 841)" d="M224.93 398.47L225.41 398.47L225.41 398.47L225.41 417.55L225.41 417.55L224.93 417.55z" stroke="none" fill="#000000" fill-rule="evenodd" /><path transform="matrix(1 0 0 -1 0 841)" d="M274.49 398.47L274.97 398.47L274.97 398.47L274.97 417.55L274.97 417.55L274.49 417.55z" stroke="none" fill="#000000" fill-rule="evenodd" /><path transform="matrix(1 0 0 -1 0 841)" d="M394.75 398.47L395.23 398.47L395.23 398.47L395.23 417.55L395.23 417.55L394.75 417.55z" stroke="none" fill="#000000" fill-rule="evenodd" /><path transform="matrix(1 0 0 -1 0 841)" d="M520.9 398.47L521.38 398.47L521.38 398.47L521.38 417.55L521.38 417.55L520.9 417.55z" stroke="none" fill="#000000" fill-rule="evenodd" /><g clip-path="url(#91)"><g clip-path="url(#92)"></g><g clip-path="url(#93)"></g></g><g clip-path="url(#94)"><g clip-path="url(#95)"></g><g clip-path="url(#96)"></g></g><g clip-path="url(#97)"><g clip-path="url(#98)"></g><g clip-path="url(#99)"></g></g><g clip-path="url(#100)"><g clip-path="url(#101)"></g><g clip-path="url(#102)"></g></g><g clip-path="url(#103)"><g clip-path="url(#104)"></g><g clip-path="url(#105)"></g><path transform="matrix(1 0 0 -1 0 841)" d="M400.27 380.71L456.31 380.71L456.31 380.71L456.31 381.43L456.31 381.43L400.27 381.43z" stroke="none" fill="#0000FF" fill-rule="evenodd" /></g><path transform="matrix(1 0 0 -1 0 841)" d="M84.264 397.99L84.744 397.99L84.744 397.99L84.744 398.47L84.744 398.47L84.264 398.47z" stroke="none" fill="#000000" fill-rule="evenodd" /><path transform="matrix(1 0 0 -1 0 841)" d="M84.744 397.99L169.704 397.99L169.704 397.99L169.704 398.47L169.704 398.47L84.744 398.47z" stroke="none" fill="#000000" fill-rule="evenodd" /><path transform="matrix(1 0 0 -1 0 841)" d="M169.7 397.99L170.18 397.99L170.18 397.99L170.18 398.47L170.18 398.47L169.7 398.47z" stroke="none" fill="#000000" fill-rule="evenodd" /><path transform="matrix(1 0 0 -1 0 841)" d="M170.18 397.99L224.924 397.99L224.924 397.99L224.924 398.47L224.924 398.47L170.18 398.47z" stroke="none" fill="#000000" fill-rule="evenodd" /><path transform="matrix(1 0 0 -1 0 841)" d="M224.93 397.99L225.41 397.99L225.41 397.99L225.41 398.47L225.41 398.47L224.93 398.47z" stroke="none" fill="#000000" fill-rule="evenodd" /><path transform="matrix(1 0 0 -1 0 841)" d="M225.41 397.99L274.49 397.99L274.49 397.99L274.49 398.47L274.49 398.47L225.41 398.47z" stroke="none" fill="#000000" fill-rule="evenodd" /><path transform="matrix(1 0 0 -1 0 841)" d="M274.49 397.99L274.97 397.99L274.97 397.99L274.97 398.47L274.97 398.47L274.49 398.47z" stroke="none" fill="#000000" fill-rule="evenodd" /><path transform="matrix(1 0 0 -1 0 841)" d="M274.97 397.99L394.75 397.99L394.75 397.99L394.75 398.47L394.75 398.47L274.97 398.47z" stroke="none" fill="#000000" fill-rule="evenodd" /><path transform="matrix(1 0 0 -1 0 841)" d="M394.75 397.99L395.23 397.99L395.23 397.99L395.23 398.47L395.23 398.47L394.75 398.47z" stroke="none" fill="#000000" fill-rule="evenodd" /><path transform="matrix(1 0 0 -1 0 841)" d="M395.23 397.99L520.89 397.99L520.89 397.99L520.89 398.47L520.89 398.47L395.23 398.47z" stroke="none" fill="#000000" fill-rule="evenodd" /><path transform="matrix(1 0 0 -1 0 841)" d="M520.9 397.99L521.38 397.99L521.38 397.99L521.38 398.47L521.38 398.47L520.9 398.47z" stroke="none" fill="#000000" fill-rule="evenodd" /><path transform="matrix(1 0 0 -1 0 841)" d="M84.264 378.91L84.744 378.91L84.744 378.91L84.744 397.99L84.744 397.99L84.264 397.99z" stroke="none" fill="#000000" fill-rule="evenodd" /><path transform="matrix(1 0 0 -1 0 841)" d="M169.7 378.91L170.18 378.91L170.18 378.91L170.18 397.99L170.18 397.99L169.7 397.99z" stroke="none" fill="#000000" fill-rule="evenodd" /><path transform="matrix(1 0 0 -1 0 841)" d="M224.93 378.91L225.41 378.91L225.41 378.91L225.41 397.99L225.41 397.99L224.93 397.99z" stroke="none" fill="#000000" fill-rule="evenodd" /><path transform="matrix(1 0 0 -1 0 841)" d="M274.49 378.91L274.97 378.91L274.97 378.91L274.97 397.99L274.97 397.99L274.49 397.99z" stroke="none" fill="#000000" fill-rule="evenodd" /><path transform="matrix(1 0 0 -1 0 841)" d="M394.75 378.91L395.23 378.91L395.23 378.91L395.23 397.99L395.23 397.99L394.75 397.99z" stroke="none" fill="#000000" fill-rule="evenodd" /><path transform="matrix(1 0 0 -1 0 841)" d="M520.9 378.91L521.38 378.91L521.38 378.91L521.38 397.99L521.38 397.99L520.9 397.99z" stroke="none" fill="#000000" fill-rule="evenodd" /><path transform="matrix(1 0 0 -1 0 841)" d="M84.744 359.33L169.584 359.33L169.584 359.33L169.584 378.434L169.584 378.434L84.744 378.434z" stroke="none" fill="#DAEEF3" fill-rule="evenodd" /><g clip-path="url(#106)"><path transform="matrix(1 0 0 -1 0 841)" d="M89.904 359.33L164.424 359.33L164.424 359.33L164.424 378.434L164.424 378.434L89.904 378.434z" stroke="none" fill="#DAEEF3" fill-rule="evenodd" /><g clip-path="url(#107)"></g><g clip-path="url(#108)"></g></g><path transform="matrix(1 0 0 -1 0 841)" d="M170.18 359.33L224.924 359.33L224.924 359.33L224.924 378.434L224.924 378.434L170.18 378.434z" stroke="none" fill="#DAEEF3" fill-rule="evenodd" /><g clip-path="url(#109)"><path transform="matrix(1 0 0 -1 0 841)" d="M175.22 359.33L219.764 359.33L219.764 359.33L219.764 378.434L219.764 378.434L175.22 378.434z" stroke="none" fill="#DAEEF3" fill-rule="evenodd" /><g clip-path="url(#110)"></g><g clip-path="url(#111)"></g></g><path transform="matrix(1 0 0 -1 0 841)" d="M225.41 359.33L274.49 359.33L274.49 359.33L274.49 378.434L274.49 378.434L225.41 378.434z" stroke="none" fill="#DAEEF3" fill-rule="evenodd" /><g clip-path="url(#112)"><path transform="matrix(1 0 0 -1 0 841)" d="M230.57 359.33L269.33 359.33L269.33 359.33L269.33 378.434L269.33 378.434L230.57 378.434z" stroke="none" fill="#DAEEF3" fill-rule="evenodd" /><g clip-path="url(#113)"></g><g clip-path="url(#114)"></g></g><path transform="matrix(1 0 0 -1 0 841)" d="M274.97 359.33L394.63 359.33L394.63 359.33L394.63 378.434L394.63 378.434L274.97 378.434z" stroke="none" fill="#DAEEF3" fill-rule="evenodd" /><g clip-path="url(#115)"><path transform="matrix(1 0 0 -1 0 841)" d="M280.13 359.33L389.47 359.33L389.47 359.33L389.47 378.434L389.47 378.434L280.13 378.434z" stroke="none" fill="#DAEEF3" fill-rule="evenodd" /><g clip-path="url(#116)"></g><g clip-path="url(#117)"></g></g><path transform="matrix(1 0 0 -1 0 841)" d="M395.23 359.33L520.89 359.33L520.89 359.33L520.89 378.434L520.89 378.434L395.23 378.434z" stroke="none" fill="#DAEEF3" fill-rule="evenodd" /><g clip-path="url(#118)"><path transform="matrix(1 0 0 -1 0 841)" d="M400.27 359.33L515.73 359.33L515.73 359.33L515.73 378.434L515.73 378.434L400.27 378.434z" stroke="none" fill="#DAEEF3" fill-rule="evenodd" /><g clip-path="url(#119)"></g><g clip-path="url(#120)"></g></g><path transform="matrix(1 0 0 -1 0 841)" d="M84.264 378.43L84.744 378.43L84.744 378.43L84.744 378.91L84.744 378.91L84.264 378.91z" stroke="none" fill="#000000" fill-rule="evenodd" /><path transform="matrix(1 0 0 -1 0 841)" d="M84.744 378.43L169.704 378.43L169.704 378.43L169.704 378.91L169.704 378.91L84.744 378.91z" stroke="none" fill="#000000" fill-rule="evenodd" /><path transform="matrix(1 0 0 -1 0 841)" d="M169.7 378.43L170.18 378.43L170.18 378.43L170.18 378.91L170.18 378.91L169.7 378.91z" stroke="none" fill="#000000" fill-rule="evenodd" /><path transform="matrix(1 0 0 -1 0 841)" d="M170.18 378.43L224.924 378.43L224.924 378.43L224.924 378.91L224.924 378.91L170.18 378.91z" stroke="none" fill="#000000" fill-rule="evenodd" /><path transform="matrix(1 0 0 -1 0 841)" d="M224.93 378.43L225.41 378.43L225.41 378.43L225.41 378.91L225.41 378.91L224.93 378.91z" stroke="none" fill="#000000" fill-rule="evenodd" /><path transform="matrix(1 0 0 -1 0 841)" d="M225.41 378.43L274.49 378.43L274.49 378.43L274.49 378.91L274.49 378.91L225.41 378.91z" stroke="none" fill="#000000" fill-rule="evenodd" /><path transform="matrix(1 0 0 -1 0 841)" d="M274.49 378.43L274.97 378.43L274.97 378.43L274.97 378.91L274.97 378.91L274.49 378.91z" stroke="none" fill="#000000" fill-rule="evenodd" /><path transform="matrix(1 0 0 -1 0 841)" d="M274.97 378.43L394.75 378.43L394.75 378.43L394.75 378.91L394.75 378.91L274.97 378.91z" stroke="none" fill="#000000" fill-rule="evenodd" /><path transform="matrix(1 0 0 -1 0 841)" d="M394.75 378.43L395.23 378.43L395.23 378.43L395.23 378.91L395.23 378.91L394.75 378.91z" stroke="none" fill="#000000" fill-rule="evenodd" /><path transform="matrix(1 0 0 -1 0 841)" d="M395.23 378.43L520.89 378.43L520.89 378.43L520.89 378.91L520.89 378.91L395.23 378.91z" stroke="none" fill="#000000" fill-rule="evenodd" /><path transform="matrix(1 0 0 -1 0 841)" d="M520.9 378.43L521.38 378.43L521.38 378.43L521.38 378.91L521.38 378.91L520.9 378.91z" stroke="none" fill="#000000" fill-rule="evenodd" /><path transform="matrix(1 0 0 -1 0 841)" d="M84.264 359.33L84.744 359.33L84.744 359.33L84.744 378.434L84.744 378.434L84.264 378.434z" stroke="none" fill="#000000" fill-rule="evenodd" /><path transform="matrix(1 0 0 -1 0 841)" d="M169.7 359.33L170.18 359.33L170.18 359.33L170.18 378.434L170.18 378.434L169.7 378.434z" stroke="none" fill="#000000" fill-rule="evenodd" /><path transform="matrix(1 0 0 -1 0 841)" d="M224.93 359.33L225.41 359.33L225.41 359.33L225.41 378.434L225.41 378.434L224.93 378.434z" stroke="none" fill="#000000" fill-rule="evenodd" /><path transform="matrix(1 0 0 -1 0 841)" d="M274.49 359.33L274.97 359.33L274.97 359.33L274.97 378.434L274.97 378.434L274.49 378.434z" stroke="none" fill="#000000" fill-rule="evenodd" /><path transform="matrix(1 0 0 -1 0 841)" d="M394.75 359.33L395.23 359.33L395.23 359.33L395.23 378.434L395.23 378.434L394.75 378.434z" stroke="none" fill="#000000" fill-rule="evenodd" /><path transform="matrix(1 0 0 -1 0 841)" d="M520.9 359.33L521.38 359.33L521.38 359.33L521.38 378.434L521.38 378.434L520.9 378.434z" stroke="none" fill="#000000" fill-rule="evenodd" /><g clip-path="url(#121)"><g clip-path="url(#122)"></g><g clip-path="url(#123)"></g></g><g clip-path="url(#124)"><g clip-path="url(#125)"></g><g clip-path="url(#126)"></g></g><g clip-path="url(#127)"><g clip-path="url(#128)"></g><g clip-path="url(#129)"></g></g><g clip-path="url(#130)"><g clip-path="url(#131)"></g><g clip-path="url(#132)"></g><g clip-path="url(#133)"></g></g><g clip-path="url(#134)"><g clip-path="url(#135)"></g><g clip-path="url(#136)"></g><g clip-path="url(#137)"></g><g clip-path="url(#138)"></g><g clip-path="url(#139)"></g><g clip-path="url(#140)"></g><g clip-path="url(#141)"></g><g clip-path="url(#142)"></g><g clip-path="url(#143)"></g><g clip-path="url(#144)"></g><g clip-path="url(#145)"></g><g clip-path="url(#146)"></g><g clip-path="url(#147)"></g><g clip-path="url(#148)"></g><g clip-path="url(#149)"></g><g clip-path="url(#150)"></g><g clip-path="url(#151)"></g><g clip-path="url(#152)"></g></g><path transform="matrix(1 0 0 -1 0 841)" d="M84.264 358.85L84.744 358.85L84.744 358.85L84.744 359.33L84.744 359.33L84.264 359.33z" stroke="none" fill="#000000" fill-rule="evenodd" /><path transform="matrix(1 0 0 -1 0 841)" d="M84.744 358.85L169.704 358.85L169.704 358.85L169.704 359.33L169.704 359.33L84.744 359.33z" stroke="none" fill="#000000" fill-rule="evenodd" /><path transform="matrix(1 0 0 -1 0 841)" d="M169.7 358.85L170.18 358.85L170.18 358.85L170.18 359.33L170.18 359.33L169.7 359.33z" stroke="none" fill="#000000" fill-rule="evenodd" /><path transform="matrix(1 0 0 -1 0 841)" d="M170.18 358.85L224.924 358.85L224.924 358.85L224.924 359.33L224.924 359.33L170.18 359.33z" stroke="none" fill="#000000" fill-rule="evenodd" /><path transform="matrix(1 0 0 -1 0 841)" d="M224.93 358.85L225.41 358.85L225.41 358.85L225.41 359.33L225.41 359.33L224.93 359.33z" stroke="none" fill="#000000" fill-rule="evenodd" /><path transform="matrix(1 0 0 -1 0 841)" d="M225.41 358.85L274.49 358.85L274.49 358.85L274.49 359.33L274.49 359.33L225.41 359.33z" stroke="none" fill="#000000" fill-rule="evenodd" /><path transform="matrix(1 0 0 -1 0 841)" d="M274.49 358.85L274.97 358.85L274.97 358.85L274.97 359.33L274.97 359.33L274.49 359.33z" stroke="none" fill="#000000" fill-rule="evenodd" /><path transform="matrix(1 0 0 -1 0 841)" d="M274.97 358.85L394.75 358.85L394.75 358.85L394.75 359.33L394.75 359.33L274.97 359.33z" stroke="none" fill="#000000" fill-rule="evenodd" /><path transform="matrix(1 0 0 -1 0 841)" d="M394.75 358.85L395.23 358.85L395.23 358.85L395.23 359.33L395.23 359.33L394.75 359.33z" stroke="none" fill="#000000" fill-rule="evenodd" /><path transform="matrix(1 0 0 -1 0 841)" d="M395.23 358.85L520.89 358.85L520.89 358.85L520.89 359.33L520.89 359.33L395.23 359.33z" stroke="none" fill="#000000" fill-rule="evenodd" /><path transform="matrix(1 0 0 -1 0 841)" d="M520.9 358.85L521.38 358.85L521.38 358.85L521.38 359.33L521.38 359.33L520.9 359.33z" stroke="none" fill="#000000" fill-rule="evenodd" /><path transform="matrix(1 0 0 -1 0 841)" d="M84.264 206.45L84.744 206.45L84.744 206.45L84.744 358.85L84.744 358.85L84.264 358.85z" stroke="none" fill="#000000" fill-rule="evenodd" /><path transform="matrix(1 0 0 -1 0 841)" d="M169.7 206.45L170.18 206.45L170.18 206.45L170.18 358.85L170.18 358.85L169.7 358.85z" stroke="none" fill="#000000" fill-rule="evenodd" /><path transform="matrix(1 0 0 -1 0 841)" d="M224.93 206.45L225.41 206.45L225.41 206.45L225.41 358.85L225.41 358.85L224.93 358.85z" stroke="none" fill="#000000" fill-rule="evenodd" /><path transform="matrix(1 0 0 -1 0 841)" d="M274.49 206.45L274.97 206.45L274.97 206.45L274.97 358.85L274.97 358.85L274.49 358.85z" stroke="none" fill="#000000" fill-rule="evenodd" /><path transform="matrix(1 0 0 -1 0 841)" d="M394.75 206.45L395.23 206.45L395.23 206.45L395.23 358.85L395.23 358.85L394.75 358.85z" stroke="none" fill="#000000" fill-rule="evenodd" /><path transform="matrix(1 0 0 -1 0 841)" d="M520.9 206.45L521.38 206.45L521.38 206.45L521.38 358.85L521.38 358.85L520.9 358.85z" stroke="none" fill="#000000" fill-rule="evenodd" /><path transform="matrix(1 0 0 -1 0 841)" d="M84.744 167.78L169.584 167.78L169.584 167.78L169.584 205.844L169.584 205.844L84.744 205.844z" stroke="none" fill="#DAEEF3" fill-rule="evenodd" /><g clip-path="url(#153)"><path transform="matrix(1 0 0 -1 0 841)" d="M89.904 186.89L164.424 186.89L164.424 186.89L164.424 205.85L164.424 205.85L89.904 205.85z" stroke="none" fill="#DAEEF3" fill-rule="evenodd" /><g clip-path="url(#154)"></g><g clip-path="url(#155)"></g></g><path transform="matrix(1 0 0 -1 0 841)" d="M170.18 167.78L224.924 167.78L224.924 167.78L224.924 205.844L224.924 205.844L170.18 205.844z" stroke="none" fill="#DAEEF3" fill-rule="evenodd" /><g clip-path="url(#156)"><path transform="matrix(1 0 0 -1 0 841)" d="M175.22 186.89L219.764 186.89L219.764 186.89L219.764 205.85L219.764 205.85L175.22 205.85z" stroke="none" fill="#DAEEF3" fill-rule="evenodd" /><g clip-path="url(#157)"></g><g clip-path="url(#158)"></g></g><path transform="matrix(1 0 0 -1 0 841)" d="M225.41 167.78L274.49 167.78L274.49 167.78L274.49 205.844L274.49 205.844L225.41 205.844z" stroke="none" fill="#DAEEF3" fill-rule="evenodd" /><g clip-path="url(#159)"><path transform="matrix(1 0 0 -1 0 841)" d="M230.57 186.89L269.33 186.89L269.33 186.89L269.33 205.85L269.33 205.85L230.57 205.85z" stroke="none" fill="#DAEEF3" fill-rule="evenodd" /><g clip-path="url(#160)"></g><g clip-path="url(#161)"></g></g><path transform="matrix(1 0 0 -1 0 841)" d="M274.97 167.78L394.63 167.78L394.63 167.78L394.63 205.844L394.63 205.844L274.97 205.844z" stroke="none" fill="#DAEEF3" fill-rule="evenodd" /><g clip-path="url(#162)"><path transform="matrix(1 0 0 -1 0 841)" d="M280.13 186.89L389.47 186.89L389.47 186.89L389.47 205.85L389.47 205.85L280.13 205.85z" stroke="none" fill="#DAEEF3" fill-rule="evenodd" /><g clip-path="url(#163)"></g><g clip-path="url(#164)"></g></g><path transform="matrix(1 0 0 -1 0 841)" d="M395.23 167.78L520.89 167.78L520.89 167.78L520.89 205.844L520.89 205.844L395.23 205.844z" stroke="none" fill="#DAEEF3" fill-rule="evenodd" /><g clip-path="url(#165)"><path transform="matrix(1 0 0 -1 0 841)" d="M400.27 186.89L515.73 186.89L515.73 186.89L515.73 205.85L515.73 205.85L400.27 205.85z" stroke="none" fill="#DAEEF3" fill-rule="evenodd" /><g clip-path="url(#166)"></g><path transform="matrix(1 0 0 -1 0 841)" d="M400.27 167.78L515.73 167.78L515.73 167.78L515.73 186.884L515.73 186.884L400.27 186.884z" stroke="none" fill="#DAEEF3" fill-rule="evenodd" /><g clip-path="url(#167)"></g><g clip-path="url(#168)"></g></g><path transform="matrix(1 0 0 -1 0 841)" d="M84.264 205.97L84.744 205.97L84.744 205.97L84.744 206.45L84.744 206.45L84.264 206.45z" stroke="none" fill="#000000" fill-rule="evenodd" /><path transform="matrix(1 0 0 -1 0 841)" d="M84.744 205.97L169.704 205.97L169.704 205.97L169.704 206.45L169.704 206.45L84.744 206.45z" stroke="none" fill="#000000" fill-rule="evenodd" /><path transform="matrix(1 0 0 -1 0 841)" d="M169.7 205.97L170.18 205.97L170.18 205.97L170.18 206.45L170.18 206.45L169.7 206.45z" stroke="none" fill="#000000" fill-rule="evenodd" /><path transform="matrix(1 0 0 -1 0 841)" d="M170.18 205.97L224.924 205.97L224.924 205.97L224.924 206.45L224.924 206.45L170.18 206.45z" stroke="none" fill="#000000" fill-rule="evenodd" /><path transform="matrix(1 0 0 -1 0 841)" d="M224.93 205.97L225.41 205.97L225.41 205.97L225.41 206.45L225.41 206.45L224.93 206.45z" stroke="none" fill="#000000" fill-rule="evenodd" /><path transform="matrix(1 0 0 -1 0 841)" d="M225.41 205.97L274.49 205.97L274.49 205.97L274.49 206.45L274.49 206.45L225.41 206.45z" stroke="none" fill="#000000" fill-rule="evenodd" /><path transform="matrix(1 0 0 -1 0 841)" d="M274.49 205.97L274.97 205.97L274.97 205.97L274.97 206.45L274.97 206.45L274.49 206.45z" stroke="none" fill="#000000" fill-rule="evenodd" /><path transform="matrix(1 0 0 -1 0 841)" d="M274.97 205.97L394.75 205.97L394.75 205.97L394.75 206.45L394.75 206.45L274.97 206.45z" stroke="none" fill="#000000" fill-rule="evenodd" /><path transform="matrix(1 0 0 -1 0 841)" d="M394.75 205.97L395.23 205.97L395.23 205.97L395.23 206.45L395.23 206.45L394.75 206.45z" stroke="none" fill="#000000" fill-rule="evenodd" /><path transform="matrix(1 0 0 -1 0 841)" d="M395.23 205.97L520.89 205.97L520.89 205.97L520.89 206.45L520.89 206.45L395.23 206.45z" stroke="none" fill="#000000" fill-rule="evenodd" /><path transform="matrix(1 0 0 -1 0 841)" d="M520.9 205.97L521.38 205.97L521.38 205.97L521.38 206.45L521.38 206.45L520.9 206.45z" stroke="none" fill="#000000" fill-rule="evenodd" /><path transform="matrix(1 0 0 -1 0 841)" d="M84.264 167.78L84.744 167.78L84.744 167.78L84.744 205.964L84.744 205.964L84.264 205.964z" stroke="none" fill="#000000" fill-rule="evenodd" /><path transform="matrix(1 0 0 -1 0 841)" d="M169.7 167.78L170.18 167.78L170.18 167.78L170.18 205.964L170.18 205.964L169.7 205.964z" stroke="none" fill="#000000" fill-rule="evenodd" /><path transform="matrix(1 0 0 -1 0 841)" d="M224.93 167.78L225.41 167.78L225.41 167.78L225.41 205.964L225.41 205.964L224.93 205.964z" stroke="none" fill="#000000" fill-rule="evenodd" /><path transform="matrix(1 0 0 -1 0 841)" d="M274.49 167.78L274.97 167.78L274.97 167.78L274.97 205.964L274.97 205.964L274.49 205.964z" stroke="none" fill="#000000" fill-rule="evenodd" /><path transform="matrix(1 0 0 -1 0 841)" d="M394.75 167.78L395.23 167.78L395.23 167.78L395.23 205.964L395.23 205.964L394.75 205.964z" stroke="none" fill="#000000" fill-rule="evenodd" /><path transform="matrix(1 0 0 -1 0 841)" d="M520.9 167.78L521.38 167.78L521.38 167.78L521.38 205.964L521.38 205.964L520.9 205.964z" stroke="none" fill="#000000" fill-rule="evenodd" /><g clip-path="url(#169)"><g clip-path="url(#170)"></g><g clip-path="url(#171)"></g></g><g clip-path="url(#172)"><g clip-path="url(#173)"></g><g clip-path="url(#174)"></g></g><g clip-path="url(#175)"><g clip-path="url(#176)"></g><g clip-path="url(#177)"></g></g><g clip-path="url(#178)"><g clip-path="url(#179)"></g><g clip-path="url(#180)"></g></g><g clip-path="url(#181)"><g clip-path="url(#182)"></g><g clip-path="url(#183)"></g><g clip-path="url(#184)"></g><g clip-path="url(#185)"></g><g clip-path="url(#186)"></g><g clip-path="url(#187)"></g><g clip-path="url(#188)"></g><g clip-path="url(#189)"></g><g clip-path="url(#190)"></g></g><path transform="matrix(1 0 0 -1 0 841)" d="M84.264 167.3L84.744 167.3L84.744 167.3L84.744 167.78L84.744 167.78L84.264 167.78z" stroke="none" fill="#000000" fill-rule="evenodd" /><path transform="matrix(1 0 0 -1 0 841)" d="M84.744 167.3L169.704 167.3L169.704 167.3L169.704 167.78L169.704 167.78L84.744 167.78z" stroke="none" fill="#000000" fill-rule="evenodd" /><path transform="matrix(1 0 0 -1 0 841)" d="M169.7 167.3L170.18 167.3L170.18 167.3L170.18 167.78L170.18 167.78L169.7 167.78z" stroke="none" fill="#000000" fill-rule="evenodd" /><path transform="matrix(1 0 0 -1 0 841)" d="M170.18 167.3L224.924 167.3L224.924 167.3L224.924 167.78L224.924 167.78L170.18 167.78z" stroke="none" fill="#000000" fill-rule="evenodd" /><path transform="matrix(1 0 0 -1 0 841)" d="M224.93 167.3L225.41 167.3L225.41 167.3L225.41 167.78L225.41 167.78L224.93 167.78z" stroke="none" fill="#000000" fill-rule="evenodd" /><path transform="matrix(1 0 0 -1 0 841)" d="M225.41 167.3L274.49 167.3L274.49 167.3L274.49 167.78L274.49 167.78L225.41 167.78z" stroke="none" fill="#000000" fill-rule="evenodd" /><path transform="matrix(1 0 0 -1 0 841)" d="M274.49 167.3L274.97 167.3L274.97 167.3L274.97 167.78L274.97 167.78L274.49 167.78z" stroke="none" fill="#000000" fill-rule="evenodd" /><path transform="matrix(1 0 0 -1 0 841)" d="M274.97 167.3L394.75 167.3L394.75 167.3L394.75 167.78L394.75 167.78L274.97 167.78z" stroke="none" fill="#000000" fill-rule="evenodd" /><path transform="matrix(1 0 0 -1 0 841)" d="M394.75 167.3L395.23 167.3L395.23 167.3L395.23 167.78L395.23 167.78L394.75 167.78z" stroke="none" fill="#000000" fill-rule="evenodd" /><path transform="matrix(1 0 0 -1 0 841)" d="M395.23 167.3L520.89 167.3L520.89 167.3L520.89 167.78L520.89 167.78L395.23 167.78z" stroke="none" fill="#000000" fill-rule="evenodd" /><path transform="matrix(1 0 0 -1 0 841)" d="M520.9 167.3L521.38 167.3L521.38 167.3L521.38 167.78L521.38 167.78L520.9 167.78z" stroke="none" fill="#000000" fill-rule="evenodd" /><path transform="matrix(1 0 0 -1 0 841)" d="M84.264 110.18L84.744 110.18L84.744 110.18L84.744 167.3L84.744 167.3L84.264 167.3z" stroke="none" fill="#000000" fill-rule="evenodd" /><path transform="matrix(1 0 0 -1 0 841)" d="M169.7 110.18L170.18 110.18L170.18 110.18L170.18 167.3L170.18 167.3L169.7 167.3z" stroke="none" fill="#000000" fill-rule="evenodd" /><path transform="matrix(1 0 0 -1 0 841)" d="M224.93 110.18L225.41 110.18L225.41 110.18L225.41 167.3L225.41 167.3L224.93 167.3z" stroke="none" fill="#000000" fill-rule="evenodd" /><path transform="matrix(1 0 0 -1 0 841)" d="M274.49 110.18L274.97 110.18L274.97 110.18L274.97 167.3L274.97 167.3L274.49 167.3z" stroke="none" fill="#000000" fill-rule="evenodd" /><path transform="matrix(1 0 0 -1 0 841)" d="M394.75 110.18L395.23 110.18L395.23 110.18L395.23 167.3L395.23 167.3L394.75 167.3z" stroke="none" fill="#000000" fill-rule="evenodd" /><path transform="matrix(1 0 0 -1 0 841)" d="M520.9 110.18L521.38 110.18L521.38 110.18L521.38 167.3L521.38 167.3L520.9 167.3z" stroke="none" fill="#000000" fill-rule="evenodd" /><path transform="matrix(1 0 0 -1 0 841)" d="M84.744 90.624L169.584 90.624L169.584 90.624L169.584 109.584L169.584 109.584L84.744 109.584z" stroke="none" fill="#DAEEF3" fill-rule="evenodd" /><g clip-path="url(#191)"><path transform="matrix(1 0 0 -1 0 841)" d="M89.904 90.624L164.424 90.624L164.424 90.624L164.424 109.584L164.424 109.584L89.904 109.584z" stroke="none" fill="#DAEEF3" fill-rule="evenodd" /><g clip-path="url(#192)"></g><g clip-path="url(#193)"></g></g><path transform="matrix(1 0 0 -1 0 841)" d="M170.18 90.624L224.924 90.624L224.924 90.624L224.924 109.584L224.924 109.584L170.18 109.584z" stroke="none" fill="#DAEEF3" fill-rule="evenodd" /><g clip-path="url(#194)"><path transform="matrix(1 0 0 -1 0 841)" d="M175.22 90.624L219.764 90.624L219.764 90.624L219.764 109.584L219.764 109.584L175.22 109.584z" stroke="none" fill="#DAEEF3" fill-rule="evenodd" /><g clip-path="url(#195)"></g><g clip-path="url(#196)"></g></g><path transform="matrix(1 0 0 -1 0 841)" d="M225.41 90.624L274.49 90.624L274.49 90.624L274.49 109.584L274.49 109.584L225.41 109.584z" stroke="none" fill="#DAEEF3" fill-rule="evenodd" /><g clip-path="url(#197)"><path transform="matrix(1 0 0 -1 0 841)" d="M230.57 90.624L269.33 90.624L269.33 90.624L269.33 109.584L269.33 109.584L230.57 109.584z" stroke="none" fill="#DAEEF3" fill-rule="evenodd" /><g clip-path="url(#198)"></g><g clip-path="url(#199)"></g></g><path transform="matrix(1 0 0 -1 0 841)" d="M274.97 90.624L394.63 90.624L394.63 90.624L394.63 109.584L394.63 109.584L274.97 109.584z" stroke="none" fill="#DAEEF3" fill-rule="evenodd" /><g clip-path="url(#200)"><path transform="matrix(1 0 0 -1 0 841)" d="M280.13 90.624L389.47 90.624L389.47 90.624L389.47 109.584L389.47 109.584L280.13 109.584z" stroke="none" fill="#DAEEF3" fill-rule="evenodd" /><g clip-path="url(#201)"></g></g><path transform="matrix(1 0 0 -1 0 841)" d="M395.23 90.624L520.89 90.624L520.89 90.624L520.89 109.584L520.89 109.584L395.23 109.584z" stroke="none" fill="#DAEEF3" fill-rule="evenodd" /><g clip-path="url(#202)"><path transform="matrix(1 0 0 -1 0 841)" d="M400.27 90.624L515.73 90.624L515.73 90.624L515.73 109.584L515.73 109.584L400.27 109.584z" stroke="none" fill="#DAEEF3" fill-rule="evenodd" /><g clip-path="url(#203)"></g><g clip-path="url(#204)"></g></g><path transform="matrix(1 0 0 -1 0 841)" d="M84.264 109.7L84.744 109.7L84.744 109.7L84.744 110.18L84.744 110.18L84.264 110.18z" stroke="none" fill="#000000" fill-rule="evenodd" /><path transform="matrix(1 0 0 -1 0 841)" d="M84.744 109.7L169.704 109.7L169.704 109.7L169.704 110.18L169.704 110.18L84.744 110.18z" stroke="none" fill="#000000" fill-rule="evenodd" /><path transform="matrix(1 0 0 -1 0 841)" d="M169.7 109.7L170.18 109.7L170.18 109.7L170.18 110.18L170.18 110.18L169.7 110.18z" stroke="none" fill="#000000" fill-rule="evenodd" /><path transform="matrix(1 0 0 -1 0 841)" d="M170.18 109.7L224.924 109.7L224.924 109.7L224.924 110.18L224.924 110.18L170.18 110.18z" stroke="none" fill="#000000" fill-rule="evenodd" /><path transform="matrix(1 0 0 -1 0 841)" d="M224.93 109.7L225.41 109.7L225.41 109.7L225.41 110.18L225.41 110.18L224.93 110.18z" stroke="none" fill="#000000" fill-rule="evenodd" /><path transform="matrix(1 0 0 -1 0 841)" d="M225.41 109.7L274.49 109.7L274.49 109.7L274.49 110.18L274.49 110.18L225.41 110.18z" stroke="none" fill="#000000" fill-rule="evenodd" /><path transform="matrix(1 0 0 -1 0 841)" d="M274.49 109.7L274.97 109.7L274.97 109.7L274.97 110.18L274.97 110.18L274.49 110.18z" stroke="none" fill="#000000" fill-rule="evenodd" /><path transform="matrix(1 0 0 -1 0 841)" d="M274.97 109.7L394.75 109.7L394.75 109.7L394.75 110.18L394.75 110.18L274.97 110.18z" stroke="none" fill="#000000" fill-rule="evenodd" /><path transform="matrix(1 0 0 -1 0 841)" d="M394.75 109.7L395.23 109.7L395.23 109.7L395.23 110.18L395.23 110.18L394.75 110.18z" stroke="none" fill="#000000" fill-rule="evenodd" /><path transform="matrix(1 0 0 -1 0 841)" d="M395.23 109.7L520.89 109.7L520.89 109.7L520.89 110.18L520.89 110.18L395.23 110.18z" stroke="none" fill="#000000" fill-rule="evenodd" /><path transform="matrix(1 0 0 -1 0 841)" d="M520.9 109.7L521.38 109.7L521.38 109.7L521.38 110.18L521.38 110.18L520.9 110.18z" stroke="none" fill="#000000" fill-rule="evenodd" /><path transform="matrix(1 0 0 -1 0 841)" d="M84.264 90.624L84.744 90.624L84.744 90.624L84.744 109.704L84.744 109.704L84.264 109.704z" stroke="none" fill="#000000" fill-rule="evenodd" /><path transform="matrix(1 0 0 -1 0 841)" d="M84.264 90.144L84.744 90.144L84.744 90.144L84.744 90.62398L84.744 90.62398L84.264 90.62398z" stroke="none" fill="#000000" fill-rule="evenodd" /><path transform="matrix(1 0 0 -1 0 841)" d="M84.264 90.144L84.744 90.144L84.744 90.144L84.744 90.62398L84.744 90.62398L84.264 90.62398z" stroke="none" fill="#000000" fill-rule="evenodd" /><path transform="matrix(1 0 0 -1 0 841)" d="M84.744 90.144L169.704 90.144L169.704 90.144L169.704 90.62398L169.704 90.62398L84.744 90.62398z" stroke="none" fill="#000000" fill-rule="evenodd" /><path transform="matrix(1 0 0 -1 0 841)" d="M169.7 90.624L170.18 90.624L170.18 90.624L170.18 109.704L170.18 109.704L169.7 109.704z" stroke="none" fill="#000000" fill-rule="evenodd" /><path transform="matrix(1 0 0 -1 0 841)" d="M169.7 90.144L170.18 90.144L170.18 90.144L170.18 90.62398L170.18 90.62398L169.7 90.62398z" stroke="none" fill="#000000" fill-rule="evenodd" /><path transform="matrix(1 0 0 -1 0 841)" d="M170.18 90.144L224.924 90.144L224.924 90.144L224.924 90.62398L224.924 90.62398L170.18 90.62398z" stroke="none" fill="#000000" fill-rule="evenodd" /><path transform="matrix(1 0 0 -1 0 841)" d="M224.93 90.624L225.41 90.624L225.41 90.624L225.41 109.704L225.41 109.704L224.93 109.704z" stroke="none" fill="#000000" fill-rule="evenodd" /><path transform="matrix(1 0 0 -1 0 841)" d="M224.93 90.144L225.41 90.144L225.41 90.144L225.41 90.62398L225.41 90.62398L224.93 90.62398z" stroke="none" fill="#000000" fill-rule="evenodd" /><path transform="matrix(1 0 0 -1 0 841)" d="M225.41 90.144L274.49 90.144L274.49 90.144L274.49 90.62398L274.49 90.62398L225.41 90.62398z" stroke="none" fill="#000000" fill-rule="evenodd" /><path transform="matrix(1 0 0 -1 0 841)" d="M274.49 90.624L274.97 90.624L274.97 90.624L274.97 109.704L274.97 109.704L274.49 109.704z" stroke="none" fill="#000000" fill-rule="evenodd" /><path transform="matrix(1 0 0 -1 0 841)" d="M274.49 90.144L274.97 90.144L274.97 90.144L274.97 90.62398L274.97 90.62398L274.49 90.62398z" stroke="none" fill="#000000" fill-rule="evenodd" /><path transform="matrix(1 0 0 -1 0 841)" d="M274.97 90.144L394.75 90.144L394.75 90.144L394.75 90.62398L394.75 90.62398L274.97 90.62398z" stroke="none" fill="#000000" fill-rule="evenodd" /><path transform="matrix(1 0 0 -1 0 841)" d="M394.75 90.624L395.23 90.624L395.23 90.624L395.23 109.704L395.23 109.704L394.75 109.704z" stroke="none" fill="#000000" fill-rule="evenodd" /><path transform="matrix(1 0 0 -1 0 841)" d="M394.75 90.144L395.23 90.144L395.23 90.144L395.23 90.62398L395.23 90.62398L394.75 90.62398z" stroke="none" fill="#000000" fill-rule="evenodd" /><path transform="matrix(1 0 0 -1 0 841)" d="M395.23 90.144L520.89 90.144L520.89 90.144L520.89 90.62398L520.89 90.62398L395.23 90.62398z" stroke="none" fill="#000000" fill-rule="evenodd" /><path transform="matrix(1 0 0 -1 0 841)" d="M520.9 90.624L521.38 90.624L521.38 90.624L521.38 109.704L521.38 109.704L520.9 109.704z" stroke="none" fill="#000000" fill-rule="evenodd" /><path transform="matrix(1 0 0 -1 0 841)" d="M520.9 90.144L521.38 90.144L521.38 90.144L521.38 90.62398L521.38 90.62398L520.9 90.62398z" stroke="none" fill="#000000" fill-rule="evenodd" /><path transform="matrix(1 0 0 -1 0 841)" d="M520.9 90.144L521.38 90.144L521.38 90.144L521.38 90.62398L521.38 90.62398L520.9 90.62398z" stroke="none" fill="#000000" fill-rule="evenodd" /></g></g></g></svg>