<svg xmlns="http://www.w3.org/2000/svg" xmlns:xlink="http://www.w3.org/1999/xlink" id="body_37" preserveAspectRatio="xMinYMin meet" viewBox="0 0 793 1121"><defs><clipPath id="1"><path d="M0 841L0 -0.9199829L0 -0.9199829L595.32 -0.9199829L595.32 -0.9199829L595.32 841L595.32 841L0 841z" /></clipPath><clipPath id="2"><path d="M0.00125 841.0914L595.4112 841.0914L595.4112 841.0914L595.4112 -0.9186401L595.4112 -0.9186401L0.00125 -0.9186401z" /></clipPath><clipPath id="3"><path d="M295.13 780.251L305.21 780.251L305.21 780.251L305.21 768.011L305.21 768.011L295.13 768.011z" /></clipPath><clipPath id="4"><path d="M295.13 780.256L305.21 780.256L305.21 780.256L305.21 768.016L305.21 768.016L295.13 768.016z" /></clipPath><clipPath id="5"><path d="M295.13 780.256L305.21 780.256L305.21 780.256L305.21 768.016L305.21 768.016L295.13 768.016z" /></clipPath><clipPath id="6"><path d="M84.751 309.09L180.271 309.09L180.271 309.09L180.271 263.235L180.271 263.235L84.751 263.235z" /></clipPath><clipPath id="7"><path d="M84.744 309.09L180.264 309.09L180.264 309.09L180.264 263.226L180.264 263.226L84.744 263.226z" /></clipPath><clipPath id="8"><path d="M84.744 309.09L180.264 309.09L180.264 309.09L180.264 263.226L180.264 263.226L84.744 263.226z" /></clipPath><clipPath id="9"><path d="M180.75 309.09L236.685 309.09L236.685 309.09L236.685 263.235L236.685 263.235L180.75 263.235z" /></clipPath><clipPath id="10"><path d="M180.74 309.09L236.684 309.09L236.684 309.09L236.684 263.226L236.684 263.226L180.74 263.226z" /></clipPath><clipPath id="11"><path d="M180.74 309.09L236.684 309.09L236.684 309.09L236.684 263.226L236.684 263.226L180.74 263.226z" /></clipPath><clipPath id="12"><path d="M237.29 309.09L269.21 309.09L269.21 309.09L269.21 263.235L269.21 263.235L237.29 263.235z" /></clipPath><clipPath id="13"><path d="M237.29 309.09L269.21 309.09L269.21 309.09L269.21 263.226L269.21 263.226L237.29 263.226z" /></clipPath><clipPath id="14"><path d="M237.29 309.09L269.21 309.09L269.21 309.09L269.21 263.226L269.21 263.226L237.29 263.226z" /></clipPath><clipPath id="15"><path d="M237.29 309.09L269.21 309.09L269.21 309.09L269.21 263.226L269.21 263.226L237.29 263.226z" /></clipPath><clipPath id="16"><path d="M269.69 309.09L357.08 309.09L357.08 309.09L357.08 263.235L357.08 263.235L269.69 263.235z" /></clipPath><clipPath id="17"><path d="M269.69 309.09L357.074 309.09L357.074 309.09L357.074 263.226L357.074 263.226L269.69 263.226z" /></clipPath><clipPath id="18"><path d="M269.69 309.09L357.074 309.09L357.074 309.09L357.074 263.226L357.074 263.226L269.69 263.226z" /></clipPath><clipPath id="19"><path d="M357.56 309.09L510.7 309.09L510.7 309.09L510.7 263.235L510.7 263.235L357.56 263.235z" /></clipPath><clipPath id="20"><path d="M357.55 309.09L510.69 309.09L510.69 309.09L510.69 263.226L510.69 263.226L357.55 263.226z" /></clipPath><clipPath id="21"><path d="M357.55 309.09L510.69 309.09L510.69 309.09L510.69 263.226L510.69 263.226L357.55 263.226z" /></clipPath><clipPath id="22"><path d="M84.751 337.29L180.271 337.29L180.271 337.29L180.271 309.57L180.271 309.57L84.751 309.57z" /></clipPath><clipPath id="23"><path d="M84.744 337.29L180.264 337.29L180.264 337.29L180.264 309.57L180.264 309.57L84.744 309.57z" /></clipPath><clipPath id="24"><path d="M84.744 337.29L180.264 337.29L180.264 337.29L180.264 309.57L180.264 309.57L84.744 309.57z" /></clipPath><clipPath id="25"><path d="M180.75 337.29L236.685 337.29L236.685 337.29L236.685 309.57L236.685 309.57L180.75 309.57z" /></clipPath><clipPath id="26"><path d="M180.74 337.29L236.684 337.29L236.684 337.29L236.684 309.57L236.684 309.57L180.74 309.57z" /></clipPath><clipPath id="27"><path d="M180.74 337.29L236.684 337.29L236.684 337.29L236.684 309.57L236.684 309.57L180.74 309.57z" /></clipPath><clipPath id="28"><path d="M237.29 337.29L269.21 337.29L269.21 337.29L269.21 309.57L269.21 309.57L237.29 309.57z" /></clipPath><clipPath id="29"><path d="M237.29 337.29L269.21 337.29L269.21 337.29L269.21 309.57L269.21 309.57L237.29 309.57z" /></clipPath><clipPath id="30"><path d="M237.29 337.29L269.21 337.29L269.21 337.29L269.21 309.57L269.21 309.57L237.29 309.57z" /></clipPath><clipPath id="31"><path d="M269.69 337.29L357.08 337.29L357.08 337.29L357.08 309.57L357.08 309.57L269.69 309.57z" /></clipPath><clipPath id="32"><path d="M269.69 337.29L357.074 337.29L357.074 337.29L357.074 309.57L357.074 309.57L269.69 309.57z" /></clipPath><clipPath id="33"><path d="M269.69 337.29L357.074 337.29L357.074 337.29L357.074 309.57L357.074 309.57L269.69 309.57z" /></clipPath><clipPath id="34"><path d="M357.56 337.29L510.7 337.29L510.7 337.29L510.7 309.57L510.7 309.57L357.56 309.57z" /></clipPath><clipPath id="35"><path d="M357.55 337.29L510.69 337.29L510.69 337.29L510.69 309.57L510.69 309.57L357.55 309.57z" /></clipPath><clipPath id="36"><path d="M357.55 337.29L510.69 337.29L510.69 337.29L510.69 309.57L510.69 309.57L357.55 309.57z" /></clipPath><clipPath id="37"><path d="M357.55 337.29L510.69 337.29L510.69 337.29L510.69 309.57L510.69 309.57L357.55 309.57z" /></clipPath><clipPath id="38"><path d="M357.55 337.29L510.69 337.29L510.69 337.29L510.69 309.57L510.69 309.57L357.55 309.57z" /></clipPath><clipPath id="39"><path d="M84.751 365.37L180.271 365.37L180.271 365.37L180.271 337.77L180.271 337.77L84.751 337.77z" /></clipPath><clipPath id="40"><path d="M84.744 365.37L180.264 365.37L180.264 365.37L180.264 337.77L180.264 337.77L84.744 337.77z" /></clipPath><clipPath id="41"><path d="M84.744 365.37L180.264 365.37L180.264 365.37L180.264 337.77L180.264 337.77L84.744 337.77z" /></clipPath><clipPath id="42"><path d="M180.75 365.37L236.685 365.37L236.685 365.37L236.685 337.77L236.685 337.77L180.75 337.77z" /></clipPath><clipPath id="43"><path d="M180.74 365.37L236.684 365.37L236.684 365.37L236.684 337.77L236.684 337.77L180.74 337.77z" /></clipPath><clipPath id="44"><path d="M180.74 365.37L236.684 365.37L236.684 365.37L236.684 337.77L236.684 337.77L180.74 337.77z" /></clipPath><clipPath id="45"><path d="M237.29 365.37L269.21 365.37L269.21 365.37L269.21 337.77L269.21 337.77L237.29 337.77z" /></clipPath><clipPath id="46"><path d="M237.29 365.37L269.21 365.37L269.21 365.37L269.21 337.77L269.21 337.77L237.29 337.77z" /></clipPath><clipPath id="47"><path d="M237.29 365.37L269.21 365.37L269.21 365.37L269.21 337.77L269.21 337.77L237.29 337.77z" /></clipPath><clipPath id="48"><path d="M269.69 365.37L357.08 365.37L357.08 365.37L357.08 337.77L357.08 337.77L269.69 337.77z" /></clipPath><clipPath id="49"><path d="M269.69 365.37L357.074 365.37L357.074 365.37L357.074 337.77L357.074 337.77L269.69 337.77z" /></clipPath><clipPath id="50"><path d="M269.69 365.37L357.074 365.37L357.074 365.37L357.074 337.77L357.074 337.77L269.69 337.77z" /></clipPath><clipPath id="51"><path d="M357.56 365.37L510.7 365.37L510.7 365.37L510.7 337.77L510.7 337.77L357.56 337.77z" /></clipPath><clipPath id="52"><path d="M357.55 365.37L510.69 365.37L510.69 365.37L510.69 337.77L510.69 337.77L357.55 337.77z" /></clipPath><clipPath id="53"><path d="M357.55 365.37L510.69 365.37L510.69 365.37L510.69 337.77L510.69 337.77L357.55 337.77z" /></clipPath><clipPath id="54"><path d="M84.751 393.57L180.271 393.57L180.271 393.57L180.271 365.85L180.271 365.85L84.751 365.85z" /></clipPath><clipPath id="55"><path d="M84.744 393.57L180.264 393.57L180.264 393.57L180.264 365.85L180.264 365.85L84.744 365.85z" /></clipPath><clipPath id="56"><path d="M84.744 393.57L180.264 393.57L180.264 393.57L180.264 365.85L180.264 365.85L84.744 365.85z" /></clipPath><clipPath id="57"><path d="M180.75 393.57L236.685 393.57L236.685 393.57L236.685 365.85L236.685 365.85L180.75 365.85z" /></clipPath><clipPath id="58"><path d="M180.74 393.57L236.684 393.57L236.684 393.57L236.684 365.85L236.684 365.85L180.74 365.85z" /></clipPath><clipPath id="59"><path d="M180.74 393.57L236.684 393.57L236.684 393.57L236.684 365.85L236.684 365.85L180.74 365.85z" /></clipPath><clipPath id="60"><path d="M237.29 393.57L269.21 393.57L269.21 393.57L269.21 365.85L269.21 365.85L237.29 365.85z" /></clipPath><clipPath id="61"><path d="M237.29 393.57L269.21 393.57L269.21 393.57L269.21 365.85L269.21 365.85L237.29 365.85z" /></clipPath><clipPath id="62"><path d="M237.29 393.57L269.21 393.57L269.21 393.57L269.21 365.85L269.21 365.85L237.29 365.85z" /></clipPath><clipPath id="63"><path d="M269.69 393.57L357.08 393.57L357.08 393.57L357.08 365.85L357.08 365.85L269.69 365.85z" /></clipPath><clipPath id="64"><path d="M269.69 393.57L357.074 393.57L357.074 393.57L357.074 365.85L357.074 365.85L269.69 365.85z" /></clipPath><clipPath id="65"><path d="M269.69 393.57L357.074 393.57L357.074 393.57L357.074 365.85L357.074 365.85L269.69 365.85z" /></clipPath><clipPath id="66"><path d="M269.69 393.57L357.074 393.57L357.074 393.57L357.074 365.85L357.074 365.85L269.69 365.85z" /></clipPath><clipPath id="67"><path d="M357.56 393.57L510.7 393.57L510.7 393.57L510.7 365.85L510.7 365.85L357.56 365.85z" /></clipPath><clipPath id="68"><path d="M357.55 393.57L510.69 393.57L510.69 393.57L510.69 365.85L510.69 365.85L357.55 365.85z" /></clipPath><clipPath id="69"><path d="M357.55 393.57L510.69 393.57L510.69 393.57L510.69 365.85L510.69 365.85L357.55 365.85z" /></clipPath><clipPath id="70"><path d="M357.55 393.57L510.69 393.57L510.69 393.57L510.69 365.85L510.69 365.85L357.55 365.85z" /></clipPath><clipPath id="71"><path d="M357.55 393.57L510.69 393.57L510.69 393.57L510.69 365.85L510.69 365.85L357.55 365.85z" /></clipPath><clipPath id="72"><path d="M84.751 421.65L180.271 421.65L180.271 421.65L180.271 394.05L180.271 394.05L84.751 394.05z" /></clipPath><clipPath id="73"><path d="M84.744 421.65L180.264 421.65L180.264 421.65L180.264 394.05L180.264 394.05L84.744 394.05z" /></clipPath><clipPath id="74"><path d="M84.744 421.65L180.264 421.65L180.264 421.65L180.264 394.05L180.264 394.05L84.744 394.05z" /></clipPath><clipPath id="75"><path d="M180.75 421.65L236.685 421.65L236.685 421.65L236.685 394.05L236.685 394.05L180.75 394.05z" /></clipPath><clipPath id="76"><path d="M180.74 421.65L236.684 421.65L236.684 421.65L236.684 394.05L236.684 394.05L180.74 394.05z" /></clipPath><clipPath id="77"><path d="M180.74 421.65L236.684 421.65L236.684 421.65L236.684 394.05L236.684 394.05L180.74 394.05z" /></clipPath><clipPath id="78"><path d="M237.29 421.65L269.21 421.65L269.21 421.65L269.21 394.05L269.21 394.05L237.29 394.05z" /></clipPath><clipPath id="79"><path d="M237.29 421.65L269.21 421.65L269.21 421.65L269.21 394.05L269.21 394.05L237.29 394.05z" /></clipPath><clipPath id="80"><path d="M237.29 421.65L269.21 421.65L269.21 421.65L269.21 394.05L269.21 394.05L237.29 394.05z" /></clipPath><clipPath id="81"><path d="M269.69 421.65L357.08 421.65L357.08 421.65L357.08 394.05L357.08 394.05L269.69 394.05z" /></clipPath><clipPath id="82"><path d="M269.69 421.65L357.074 421.65L357.074 421.65L357.074 394.05L357.074 394.05L269.69 394.05z" /></clipPath><clipPath id="83"><path d="M269.69 421.65L357.074 421.65L357.074 421.65L357.074 394.05L357.074 394.05L269.69 394.05z" /></clipPath><clipPath id="84"><path d="M357.56 421.65L510.7 421.65L510.7 421.65L510.7 394.05L510.7 394.05L357.56 394.05z" /></clipPath><clipPath id="85"><path d="M357.55 421.65L510.69 421.65L510.69 421.65L510.69 394.05L510.69 394.05L357.55 394.05z" /></clipPath><clipPath id="86"><path d="M357.55 421.65L510.69 421.65L510.69 421.65L510.69 394.05L510.69 394.05L357.55 394.05z" /></clipPath><clipPath id="87"><path d="M357.55 421.65L510.69 421.65L510.69 421.65L510.69 394.05L510.69 394.05L357.55 394.05z" /></clipPath><clipPath id="88"><path d="M357.55 421.65L510.69 421.65L510.69 421.65L510.69 394.05L510.69 394.05L357.55 394.05z" /></clipPath><clipPath id="89"><path d="M84.751 449.85L180.271 449.85L180.271 449.85L180.271 422.25L180.271 422.25L84.751 422.25z" /></clipPath><clipPath id="90"><path d="M84.744 449.85L180.264 449.85L180.264 449.85L180.264 422.25L180.264 422.25L84.744 422.25z" /></clipPath><clipPath id="91"><path d="M84.744 449.85L180.264 449.85L180.264 449.85L180.264 422.25L180.264 422.25L84.744 422.25z" /></clipPath><clipPath id="92"><path d="M180.75 449.85L236.685 449.85L236.685 449.85L236.685 422.25L236.685 422.25L180.75 422.25z" /></clipPath><clipPath id="93"><path d="M180.74 449.85L236.684 449.85L236.684 449.85L236.684 422.25L236.684 422.25L180.74 422.25z" /></clipPath><clipPath id="94"><path d="M180.74 449.85L236.684 449.85L236.684 449.85L236.684 422.25L236.684 422.25L180.74 422.25z" /></clipPath><clipPath id="95"><path d="M237.29 449.85L269.21 449.85L269.21 449.85L269.21 422.25L269.21 422.25L237.29 422.25z" /></clipPath><clipPath id="96"><path d="M237.29 449.85L269.21 449.85L269.21 449.85L269.21 422.25L269.21 422.25L237.29 422.25z" /></clipPath><clipPath id="97"><path d="M237.29 449.85L269.21 449.85L269.21 449.85L269.21 422.25L269.21 422.25L237.29 422.25z" /></clipPath><clipPath id="98"><path d="M269.69 449.85L357.08 449.85L357.08 449.85L357.08 422.25L357.08 422.25L269.69 422.25z" /></clipPath><clipPath id="99"><path d="M269.69 449.85L357.074 449.85L357.074 449.85L357.074 422.25L357.074 422.25L269.69 422.25z" /></clipPath><clipPath id="100"><path d="M357.56 449.85L510.7 449.85L510.7 449.85L510.7 422.25L510.7 422.25L357.56 422.25z" /></clipPath><clipPath id="101"><path d="M357.55 449.85L510.69 449.85L510.69 449.85L510.69 422.25L510.69 422.25L357.55 422.25z" /></clipPath><clipPath id="102"><path d="M357.55 449.85L510.69 449.85L510.69 449.85L510.69 422.25L510.69 422.25L357.55 422.25z" /></clipPath><clipPath id="103"><path d="M357.55 449.85L510.69 449.85L510.69 449.85L510.69 422.25L510.69 422.25L357.55 422.25z" /></clipPath><clipPath id="104"><path d="M357.55 449.85L510.69 449.85L510.69 449.85L510.69 422.25L510.69 422.25L357.55 422.25z" /></clipPath><clipPath id="105"><path d="M84.751 478.08L180.271 478.08L180.271 478.08L180.271 450.33L180.271 450.33L84.751 450.33z" /></clipPath><clipPath id="106"><path d="M84.744 478.07L180.264 478.07L180.264 478.07L180.264 450.326L180.264 450.326L84.744 450.326z" /></clipPath><clipPath id="107"><path d="M84.744 478.07L180.264 478.07L180.264 478.07L180.264 450.326L180.264 450.326L84.744 450.326z" /></clipPath><clipPath id="108"><path d="M180.75 478.08L236.685 478.08L236.685 478.08L236.685 450.33L236.685 450.33L180.75 450.33z" /></clipPath><clipPath id="109"><path d="M180.74 478.07L236.684 478.07L236.684 478.07L236.684 450.326L236.684 450.326L180.74 450.326z" /></clipPath><clipPath id="110"><path d="M180.74 478.07L236.684 478.07L236.684 478.07L236.684 450.326L236.684 450.326L180.74 450.326z" /></clipPath><clipPath id="111"><path d="M237.29 478.08L269.21 478.08L269.21 478.08L269.21 450.33L269.21 450.33L237.29 450.33z" /></clipPath><clipPath id="112"><path d="M237.29 478.07L269.21 478.07L269.21 478.07L269.21 450.326L269.21 450.326L237.29 450.326z" /></clipPath><clipPath id="113"><path d="M237.29 478.07L269.21 478.07L269.21 478.07L269.21 450.326L269.21 450.326L237.29 450.326z" /></clipPath><clipPath id="114"><path d="M269.69 478.08L357.08 478.08L357.08 478.08L357.08 450.33L357.08 450.33L269.69 450.33z" /></clipPath><clipPath id="115"><path d="M269.69 478.07L357.074 478.07L357.074 478.07L357.074 450.326L357.074 450.326L269.69 450.326z" /></clipPath><clipPath id="116"><path d="M269.69 478.07L357.074 478.07L357.074 478.07L357.074 450.326L357.074 450.326L269.69 450.326z" /></clipPath><clipPath id="117"><path d="M357.56 478.08L510.7 478.08L510.7 478.08L510.7 450.33L510.7 450.33L357.56 450.33z" /></clipPath><clipPath id="118"><path d="M357.55 478.07L510.69 478.07L510.69 478.07L510.69 450.326L510.69 450.326L357.55 450.326z" /></clipPath><clipPath id="119"><path d="M357.55 478.07L510.69 478.07L510.69 478.07L510.69 450.326L510.69 450.326L357.55 450.326z" /></clipPath><clipPath id="120"><path d="M84.751 506.16L180.271 506.16L180.271 506.16L180.271 478.56L180.271 478.56L84.751 478.56z" /></clipPath><clipPath id="121"><path d="M84.744 506.15L180.264 506.15L180.264 506.15L180.264 478.55L180.264 478.55L84.744 478.55z" /></clipPath><clipPath id="122"><path d="M84.744 506.15L180.264 506.15L180.264 506.15L180.264 478.55L180.264 478.55L84.744 478.55z" /></clipPath><clipPath id="123"><path d="M180.75 506.16L236.685 506.16L236.685 506.16L236.685 478.56L236.685 478.56L180.75 478.56z" /></clipPath><clipPath id="124"><path d="M180.74 506.15L236.684 506.15L236.684 506.15L236.684 478.55L236.684 478.55L180.74 478.55z" /></clipPath><clipPath id="125"><path d="M180.74 506.15L236.684 506.15L236.684 506.15L236.684 478.55L236.684 478.55L180.74 478.55z" /></clipPath><clipPath id="126"><path d="M237.29 506.16L269.21 506.16L269.21 506.16L269.21 478.56L269.21 478.56L237.29 478.56z" /></clipPath><clipPath id="127"><path d="M237.29 506.15L269.21 506.15L269.21 506.15L269.21 478.55L269.21 478.55L237.29 478.55z" /></clipPath><clipPath id="128"><path d="M237.29 506.15L269.21 506.15L269.21 506.15L269.21 478.55L269.21 478.55L237.29 478.55z" /></clipPath><clipPath id="129"><path d="M269.69 506.16L357.08 506.16L357.08 506.16L357.08 478.56L357.08 478.56L269.69 478.56z" /></clipPath><clipPath id="130"><path d="M269.69 506.15L357.074 506.15L357.074 506.15L357.074 478.55L357.074 478.55L269.69 478.55z" /></clipPath><clipPath id="131"><path d="M269.69 506.15L357.074 506.15L357.074 506.15L357.074 478.55L357.074 478.55L269.69 478.55z" /></clipPath><clipPath id="132"><path d="M357.56 506.16L510.7 506.16L510.7 506.16L510.7 478.56L510.7 478.56L357.56 478.56z" /></clipPath><clipPath id="133"><path d="M357.55 506.15L510.69 506.15L510.69 506.15L510.69 478.55L510.69 478.55L357.55 478.55z" /></clipPath><clipPath id="134"><path d="M357.55 506.15L510.69 506.15L510.69 506.15L510.69 478.55L510.69 478.55L357.55 478.55z" /></clipPath><clipPath id="135"><path d="M357.55 506.15L510.69 506.15L510.69 506.15L510.69 478.55L510.69 478.55L357.55 478.55z" /></clipPath><clipPath id="136"><path d="M84.751 534.36L180.271 534.36L180.271 534.36L180.271 506.64L180.271 506.64L84.751 506.64z" /></clipPath><clipPath id="137"><path d="M84.744 534.35L180.264 534.35L180.264 534.35L180.264 506.63L180.264 506.63L84.744 506.63z" /></clipPath><clipPath id="138"><path d="M84.744 534.35L180.264 534.35L180.264 534.35L180.264 506.63L180.264 506.63L84.744 506.63z" /></clipPath><clipPath id="139"><path d="M180.75 534.36L236.685 534.36L236.685 534.36L236.685 506.64L236.685 506.64L180.75 506.64z" /></clipPath><clipPath id="140"><path d="M180.74 534.35L236.684 534.35L236.684 534.35L236.684 506.63L236.684 506.63L180.74 506.63z" /></clipPath><clipPath id="141"><path d="M180.74 534.35L236.684 534.35L236.684 534.35L236.684 506.63L236.684 506.63L180.74 506.63z" /></clipPath><clipPath id="142"><path d="M237.29 534.36L269.21 534.36L269.21 534.36L269.21 506.64L269.21 506.64L237.29 506.64z" /></clipPath><clipPath id="143"><path d="M237.29 534.35L269.21 534.35L269.21 534.35L269.21 506.63L269.21 506.63L237.29 506.63z" /></clipPath><clipPath id="144"><path d="M237.29 534.35L269.21 534.35L269.21 534.35L269.21 506.63L269.21 506.63L237.29 506.63z" /></clipPath><clipPath id="145"><path d="M269.69 534.36L357.08 534.36L357.08 534.36L357.08 506.64L357.08 506.64L269.69 506.64z" /></clipPath><clipPath id="146"><path d="M269.69 534.35L357.074 534.35L357.074 534.35L357.074 506.63L357.074 506.63L269.69 506.63z" /></clipPath><clipPath id="147"><path d="M269.69 534.35L357.074 534.35L357.074 534.35L357.074 506.63L357.074 506.63L269.69 506.63z" /></clipPath><clipPath id="148"><path d="M357.56 534.36L510.7 534.36L510.7 534.36L510.7 506.64L510.7 506.64L357.56 506.64z" /></clipPath><clipPath id="149"><path d="M357.55 534.35L510.69 534.35L510.69 534.35L510.69 506.63L510.69 506.63L357.55 506.63z" /></clipPath><clipPath id="150"><path d="M357.55 534.35L510.69 534.35L510.69 534.35L510.69 506.63L510.69 506.63L357.55 506.63z" /></clipPath><clipPath id="151"><path d="M357.55 534.35L510.69 534.35L510.69 534.35L510.69 506.63L510.69 506.63L357.55 506.63z" /></clipPath><clipPath id="152"><path d="M357.55 534.35L510.69 534.35L510.69 534.35L510.69 506.63L510.69 506.63L357.55 506.63z" /></clipPath><clipPath id="153"><path d="M84.751 608.16L180.271 608.16L180.271 608.16L180.271 534.84L180.271 534.84L84.751 534.84z" /></clipPath><clipPath id="154"><path d="M84.744 608.15L180.264 608.15L180.264 608.15L180.264 534.83L180.264 534.83L84.744 534.83z" /></clipPath><clipPath id="155"><path d="M84.744 608.15L180.264 608.15L180.264 608.15L180.264 534.83L180.264 534.83L84.744 534.83z" /></clipPath><clipPath id="156"><path d="M180.75 608.16L236.685 608.16L236.685 608.16L236.685 534.84L236.685 534.84L180.75 534.84z" /></clipPath><clipPath id="157"><path d="M180.74 608.15L236.684 608.15L236.684 608.15L236.684 534.83L236.684 534.83L180.74 534.83z" /></clipPath><clipPath id="158"><path d="M180.74 608.15L236.684 608.15L236.684 608.15L236.684 534.83L236.684 534.83L180.74 534.83z" /></clipPath><clipPath id="159"><path d="M237.29 608.16L269.21 608.16L269.21 608.16L269.21 534.84L269.21 534.84L237.29 534.84z" /></clipPath><clipPath id="160"><path d="M237.29 608.15L269.21 608.15L269.21 608.15L269.21 534.83L269.21 534.83L237.29 534.83z" /></clipPath><clipPath id="161"><path d="M237.29 608.15L269.21 608.15L269.21 608.15L269.21 534.83L269.21 534.83L237.29 534.83z" /></clipPath><clipPath id="162"><path d="M269.69 608.16L357.08 608.16L357.08 608.16L357.08 534.84L357.08 534.84L269.69 534.84z" /></clipPath><clipPath id="163"><path d="M269.69 608.15L357.074 608.15L357.074 608.15L357.074 534.83L357.074 534.83L269.69 534.83z" /></clipPath><clipPath id="164"><path d="M357.56 608.16L510.7 608.16L510.7 608.16L510.7 534.84L510.7 534.84L357.56 534.84z" /></clipPath><clipPath id="165"><path d="M357.55 608.15L510.69 608.15L510.69 608.15L510.69 534.83L510.69 534.83L357.55 534.83z" /></clipPath><clipPath id="166"><path d="M357.55 608.15L510.69 608.15L510.69 608.15L510.69 534.83L510.69 534.83L357.55 534.83z" /></clipPath><clipPath id="167"><path d="M357.55 608.15L510.69 608.15L510.69 608.15L510.69 534.83L510.69 534.83L357.55 534.83z" /></clipPath><clipPath id="168"><path d="M357.55 608.15L510.69 608.15L510.69 608.15L510.69 534.83L510.69 534.83L357.55 534.83z" /></clipPath><clipPath id="169"><path d="M357.55 608.15L510.69 608.15L510.69 608.15L510.69 534.83L510.69 534.83L357.55 534.83z" /></clipPath><clipPath id="170"><path d="M357.55 608.15L510.69 608.15L510.69 608.15L510.69 534.83L510.69 534.83L357.55 534.83z" /></clipPath><clipPath id="171"><path d="M357.55 608.15L510.69 608.15L510.69 608.15L510.69 534.83L510.69 534.83L357.55 534.83z" /></clipPath><clipPath id="172"><path d="M357.55 608.15L510.69 608.15L510.69 608.15L510.69 534.83L510.69 534.83L357.55 534.83z" /></clipPath><clipPath id="173"><path d="M357.55 608.15L510.69 608.15L510.69 608.15L510.69 534.83L510.69 534.83L357.55 534.83z" /></clipPath><clipPath id="174"><path d="M357.55 608.15L510.69 608.15L510.69 608.15L510.69 534.83L510.69 534.83L357.55 534.83z" /></clipPath><clipPath id="175"><path d="M357.55 608.15L510.69 608.15L510.69 608.15L510.69 534.83L510.69 534.83L357.55 534.83z" /></clipPath><clipPath id="176"><path d="M357.55 608.15L510.69 608.15L510.69 608.15L510.69 534.83L510.69 534.83L357.55 534.83z" /></clipPath><clipPath id="177"><path d="M357.55 608.15L510.69 608.15L510.69 608.15L510.69 534.83L510.69 534.83L357.55 534.83z" /></clipPath><clipPath id="178"><path d="M357.55 608.15L510.69 608.15L510.69 608.15L510.69 534.83L510.69 534.83L357.55 534.83z" /></clipPath><clipPath id="179"><path d="M357.55 608.15L510.69 608.15L510.69 608.15L510.69 534.83L510.69 534.83L357.55 534.83z" /></clipPath><clipPath id="180"><path d="M84.751 729.61L146.191 729.61L146.191 729.61L146.191 710.53L146.191 710.53L84.751 710.53z" /></clipPath><clipPath id="181"><path d="M84.744 729.62L146.184 729.62L146.184 729.62L146.184 710.54L146.184 710.54L84.744 710.54z" /></clipPath><clipPath id="182"><path d="M84.744 729.62L146.184 729.62L146.184 729.62L146.184 710.54L146.184 710.54L84.744 710.54z" /></clipPath><clipPath id="183"><path d="M146.67 729.61L202.845 729.61L202.845 729.61L202.845 710.53L202.845 710.53L146.67 710.53z" /></clipPath><clipPath id="184"><path d="M146.66 729.62L202.844 729.62L202.844 729.62L202.844 710.54L202.844 710.54L146.66 710.54z" /></clipPath><clipPath id="185"><path d="M146.66 729.62L202.844 729.62L202.844 729.62L202.844 710.54L202.844 710.54L146.66 710.54z" /></clipPath><clipPath id="186"><path d="M203.45 729.61L252.65 729.61L252.65 729.61L252.65 710.53L252.65 710.53L203.45 710.53z" /></clipPath><clipPath id="187"><path d="M203.45 729.62L252.65 729.62L252.65 729.62L252.65 710.54L252.65 710.54L203.45 710.54z" /></clipPath><clipPath id="188"><path d="M203.45 729.62L252.65 729.62L252.65 729.62L252.65 710.54L252.65 710.54L203.45 710.54z" /></clipPath><clipPath id="189"><path d="M253.25 729.61L311.45 729.61L311.45 729.61L311.45 710.53L311.45 710.53L253.25 710.53z" /></clipPath><clipPath id="190"><path d="M253.25 729.62L311.45 729.62L311.45 729.62L311.45 710.54L311.45 710.54L253.25 710.54z" /></clipPath><clipPath id="191"><path d="M253.25 729.62L311.45 729.62L311.45 729.62L311.45 710.54L311.45 710.54L253.25 710.54z" /></clipPath><clipPath id="192"><path d="M311.93 729.61L510.7 729.61L510.7 729.61L510.7 710.53L510.7 710.53L311.93 710.53z" /></clipPath><clipPath id="193"><path d="M311.93 729.62L510.7 729.62L510.7 729.62L510.7 710.54L510.7 710.54L311.93 710.54z" /></clipPath><clipPath id="194"><path d="M311.93 729.62L510.7 729.62L510.7 729.62L510.7 710.54L510.7 710.54L311.93 710.54z" /></clipPath></defs><g transform="matrix(1.333333 0 0 1.333333 0 0)"><g><g clip-path="url(#1)"><path transform="matrix(1 0 0 -1 0 841)" d="M457.63 53.424L505.534 53.424L505.534 53.424L505.534 54.02404L505.534 54.02404L457.63 54.02404z" stroke="none" fill="#000000" fill-rule="evenodd" /><g clip-path="url(#2)"><path transform="matrix(1 0 0 -1 0 841)" d="M88.464 78.984L506.974 78.984L506.974 78.984L506.974 81.984L506.974 81.984L88.464 81.984z" stroke="none" fill="#000000" fill-rule="evenodd" /><path transform="matrix(1 0 0 -1 0 841)" d="M88.464 77.544L506.974 77.544L506.974 77.544L506.974 78.26397L506.974 78.26397L88.464 78.26397z" stroke="none" fill="#000000" fill-rule="evenodd" /></g><g clip-path="url(#3)"><g clip-path="url(#4)"></g><g clip-path="url(#5)"></g></g><path transform="matrix(1 0 0 -1 0 841)" d="M84.744 531.91L180.264 531.91L180.264 531.91L180.264 577.774L180.264 577.774L84.744 577.774z" stroke="none" fill="#0070C0" fill-rule="evenodd" /><g clip-path="url(#6)"><path transform="matrix(1 0 0 -1 0 841)" d="M89.904 550.03L175.104 550.03L175.104 550.03L175.104 577.774L175.104 577.774L89.904 577.774z" stroke="none" fill="#0070C0" fill-rule="evenodd" /><g clip-path="url(#7)"></g><g clip-path="url(#8)"></g></g><path transform="matrix(1 0 0 -1 0 841)" d="M180.74 531.91L236.684 531.91L236.684 531.91L236.684 577.774L236.684 577.774L180.74 577.774z" stroke="none" fill="#0070C0" fill-rule="evenodd" /><g clip-path="url(#9)"><path transform="matrix(1 0 0 -1 0 841)" d="M185.9 550.03L231.644 550.03L231.644 550.03L231.644 577.774L231.644 577.774L185.9 577.774z" stroke="none" fill="#0070C0" fill-rule="evenodd" /><g clip-path="url(#10)"></g><g clip-path="url(#11)"></g></g><path transform="matrix(1 0 0 -1 0 841)" d="M237.29 531.91L269.21 531.91L269.21 531.91L269.21 577.774L269.21 577.774L237.29 577.774z" stroke="none" fill="#0070C0" fill-rule="evenodd" /><g clip-path="url(#12)"><path transform="matrix(1 0 0 -1 0 841)" d="M242.45 554.83L264.05 554.83L264.05 554.83L264.05 577.774L264.05 577.774L242.45 577.774z" stroke="none" fill="#0070C0" fill-rule="evenodd" /><g clip-path="url(#13)"></g><path transform="matrix(1 0 0 -1 0 841)" d="M242.45 531.91L264.05 531.91L264.05 531.91L264.05 554.83L264.05 554.83L242.45 554.83z" stroke="none" fill="#0070C0" fill-rule="evenodd" /><g clip-path="url(#14)"></g><g clip-path="url(#15)"></g></g><path transform="matrix(1 0 0 -1 0 841)" d="M269.69 531.91L357.074 531.91L357.074 531.91L357.074 577.774L357.074 577.774L269.69 577.774z" stroke="none" fill="#0070C0" fill-rule="evenodd" /><g clip-path="url(#16)"><path transform="matrix(1 0 0 -1 0 841)" d="M274.85 550.03L351.914 550.03L351.914 550.03L351.914 577.774L351.914 577.774L274.85 577.774z" stroke="none" fill="#0070C0" fill-rule="evenodd" /><g clip-path="url(#17)"></g><g clip-path="url(#18)"></g></g><path transform="matrix(1 0 0 -1 0 841)" d="M357.55 531.91L510.69 531.91L510.69 531.91L510.69 577.774L510.69 577.774L357.55 577.774z" stroke="none" fill="#0070C0" fill-rule="evenodd" /><g clip-path="url(#19)"><path transform="matrix(1 0 0 -1 0 841)" d="M362.71 550.03L505.53 550.03L505.53 550.03L505.53 577.774L505.53 577.774L362.71 577.774z" stroke="none" fill="#0070C0" fill-rule="evenodd" /><g clip-path="url(#20)"></g><g clip-path="url(#21)"></g></g><path transform="matrix(1 0 0 -1 0 841)" d="M84.264 577.78L84.744 577.78L84.744 577.78L84.744 578.26L84.744 578.26L84.264 578.26z" stroke="none" fill="#000000" fill-rule="evenodd" /><path transform="matrix(1 0 0 -1 0 841)" d="M84.264 577.78L84.744 577.78L84.744 577.78L84.744 578.26L84.744 578.26L84.264 578.26z" stroke="none" fill="#000000" fill-rule="evenodd" /><path transform="matrix(1 0 0 -1 0 841)" d="M84.744 577.78L180.264 577.78L180.264 577.78L180.264 578.26L180.264 578.26L84.744 578.26z" stroke="none" fill="#000000" fill-rule="evenodd" /><path transform="matrix(1 0 0 -1 0 841)" d="M180.26 577.78L180.74 577.78L180.74 577.78L180.74 578.26L180.74 578.26L180.26 578.26z" stroke="none" fill="#000000" fill-rule="evenodd" /><path transform="matrix(1 0 0 -1 0 841)" d="M180.74 577.78L236.804 577.78L236.804 577.78L236.804 578.26L236.804 578.26L180.74 578.26z" stroke="none" fill="#000000" fill-rule="evenodd" /><path transform="matrix(1 0 0 -1 0 841)" d="M236.81 577.78L237.29 577.78L237.29 577.78L237.29 578.26L237.29 578.26L236.81 578.26z" stroke="none" fill="#000000" fill-rule="evenodd" /><path transform="matrix(1 0 0 -1 0 841)" d="M237.29 577.78L269.21 577.78L269.21 577.78L269.21 578.26L269.21 578.26L237.29 578.26z" stroke="none" fill="#000000" fill-rule="evenodd" /><path transform="matrix(1 0 0 -1 0 841)" d="M269.21 577.78L269.69 577.78L269.69 577.78L269.69 578.26L269.69 578.26L269.21 578.26z" stroke="none" fill="#000000" fill-rule="evenodd" /><path transform="matrix(1 0 0 -1 0 841)" d="M269.69 577.78L357.074 577.78L357.074 577.78L357.074 578.26L357.074 578.26L269.69 578.26z" stroke="none" fill="#000000" fill-rule="evenodd" /><path transform="matrix(1 0 0 -1 0 841)" d="M357.07 577.78L357.55 577.78L357.55 577.78L357.55 578.26L357.55 578.26L357.07 578.26z" stroke="none" fill="#000000" fill-rule="evenodd" /><path transform="matrix(1 0 0 -1 0 841)" d="M357.55 577.78L510.69 577.78L510.69 577.78L510.69 578.26L510.69 578.26L357.55 578.26z" stroke="none" fill="#000000" fill-rule="evenodd" /><path transform="matrix(1 0 0 -1 0 841)" d="M510.7 577.78L511.18 577.78L511.18 577.78L511.18 578.26L511.18 578.26L510.7 578.26z" stroke="none" fill="#000000" fill-rule="evenodd" /><path transform="matrix(1 0 0 -1 0 841)" d="M510.7 577.78L511.18 577.78L511.18 577.78L511.18 578.26L511.18 578.26L510.7 578.26z" stroke="none" fill="#000000" fill-rule="evenodd" /><path transform="matrix(1 0 0 -1 0 841)" d="M84.264 531.91L84.744 531.91L84.744 531.91L84.744 577.774L84.744 577.774L84.264 577.774z" stroke="none" fill="#000000" fill-rule="evenodd" /><path transform="matrix(1 0 0 -1 0 841)" d="M180.26 531.91L180.74 531.91L180.74 531.91L180.74 577.774L180.74 577.774L180.26 577.774z" stroke="none" fill="#000000" fill-rule="evenodd" /><path transform="matrix(1 0 0 -1 0 841)" d="M236.81 531.91L237.29 531.91L237.29 531.91L237.29 577.774L237.29 577.774L236.81 577.774z" stroke="none" fill="#000000" fill-rule="evenodd" /><path transform="matrix(1 0 0 -1 0 841)" d="M269.21 531.91L269.69 531.91L269.69 531.91L269.69 577.774L269.69 577.774L269.21 577.774z" stroke="none" fill="#000000" fill-rule="evenodd" /><path transform="matrix(1 0 0 -1 0 841)" d="M357.07 531.91L357.55 531.91L357.55 531.91L357.55 577.774L357.55 577.774L357.07 577.774z" stroke="none" fill="#000000" fill-rule="evenodd" /><path transform="matrix(1 0 0 -1 0 841)" d="M510.7 531.91L511.18 531.91L511.18 531.91L511.18 577.774L511.18 577.774L510.7 577.774z" stroke="none" fill="#000000" fill-rule="evenodd" /><path transform="matrix(1 0 0 -1 0 841)" d="M84.744 503.71L180.264 503.71L180.264 503.71L180.264 531.43L180.264 531.43L84.744 531.43z" stroke="none" fill="#DAEEF3" fill-rule="evenodd" /><g clip-path="url(#22)"><path transform="matrix(1 0 0 -1 0 841)" d="M89.904 504.79L175.104 504.79L175.104 504.79L175.104 531.43L175.104 531.43L89.904 531.43z" stroke="none" fill="#DAEEF3" fill-rule="evenodd" /><g clip-path="url(#23)"></g><g clip-path="url(#24)"></g></g><path transform="matrix(1 0 0 -1 0 841)" d="M180.74 503.71L236.684 503.71L236.684 503.71L236.684 531.43L236.684 531.43L180.74 531.43z" stroke="none" fill="#DAEEF3" fill-rule="evenodd" /><g clip-path="url(#25)"><path transform="matrix(1 0 0 -1 0 841)" d="M185.9 504.79L231.644 504.79L231.644 504.79L231.644 531.43L231.644 531.43L185.9 531.43z" stroke="none" fill="#DAEEF3" fill-rule="evenodd" /><g clip-path="url(#26)"></g><g clip-path="url(#27)"></g></g><path transform="matrix(1 0 0 -1 0 841)" d="M237.29 503.71L269.21 503.71L269.21 503.71L269.21 531.43L269.21 531.43L237.29 531.43z" stroke="none" fill="#DAEEF3" fill-rule="evenodd" /><g clip-path="url(#28)"><path transform="matrix(1 0 0 -1 0 841)" d="M242.45 503.71L264.05 503.71L264.05 503.71L264.05 531.43L264.05 531.43L242.45 531.43z" stroke="none" fill="#DAEEF3" fill-rule="evenodd" /><g clip-path="url(#29)"></g><g clip-path="url(#30)"></g></g><path transform="matrix(1 0 0 -1 0 841)" d="M269.69 503.71L357.074 503.71L357.074 503.71L357.074 531.43L357.074 531.43L269.69 531.43z" stroke="none" fill="#DAEEF3" fill-rule="evenodd" /><g clip-path="url(#31)"><path transform="matrix(1 0 0 -1 0 841)" d="M274.85 504.79L351.914 504.79L351.914 504.79L351.914 531.43L351.914 531.43L274.85 531.43z" stroke="none" fill="#DAEEF3" fill-rule="evenodd" /><g clip-path="url(#32)"></g><g clip-path="url(#33)"></g></g><path transform="matrix(1 0 0 -1 0 841)" d="M357.55 503.71L510.69 503.71L510.69 503.71L510.69 531.43L510.69 531.43L357.55 531.43z" stroke="none" fill="#DAEEF3" fill-rule="evenodd" /><g clip-path="url(#34)"><path transform="matrix(1 0 0 -1 0 841)" d="M362.71 503.71L505.53 503.71L505.53 503.71L505.53 531.43L505.53 531.43L362.71 531.43z" stroke="none" fill="#DAEEF3" fill-rule="evenodd" /><g clip-path="url(#35)"></g><g clip-path="url(#36)"></g><g clip-path="url(#37)"></g><g clip-path="url(#38)"></g></g><path transform="matrix(1 0 0 -1 0 841)" d="M84.264 531.43L84.744 531.43L84.744 531.43L84.744 531.91L84.744 531.91L84.264 531.91z" stroke="none" fill="#000000" fill-rule="evenodd" /><path transform="matrix(1 0 0 -1 0 841)" d="M84.744 531.43L180.264 531.43L180.264 531.43L180.264 531.91L180.264 531.91L84.744 531.91z" stroke="none" fill="#000000" fill-rule="evenodd" /><path transform="matrix(1 0 0 -1 0 841)" d="M180.26 531.43L180.74 531.43L180.74 531.43L180.74 531.91L180.74 531.91L180.26 531.91z" stroke="none" fill="#000000" fill-rule="evenodd" /><path transform="matrix(1 0 0 -1 0 841)" d="M180.74 531.43L236.804 531.43L236.804 531.43L236.804 531.91L236.804 531.91L180.74 531.91z" stroke="none" fill="#000000" fill-rule="evenodd" /><path transform="matrix(1 0 0 -1 0 841)" d="M236.81 531.43L237.29 531.43L237.29 531.43L237.29 531.91L237.29 531.91L236.81 531.91z" stroke="none" fill="#000000" fill-rule="evenodd" /><path transform="matrix(1 0 0 -1 0 841)" d="M237.29 531.43L269.21 531.43L269.21 531.43L269.21 531.91L269.21 531.91L237.29 531.91z" stroke="none" fill="#000000" fill-rule="evenodd" /><path transform="matrix(1 0 0 -1 0 841)" d="M269.21 531.43L269.69 531.43L269.69 531.43L269.69 531.91L269.69 531.91L269.21 531.91z" stroke="none" fill="#000000" fill-rule="evenodd" /><path transform="matrix(1 0 0 -1 0 841)" d="M269.69 531.43L357.074 531.43L357.074 531.43L357.074 531.91L357.074 531.91L269.69 531.91z" stroke="none" fill="#000000" fill-rule="evenodd" /><path transform="matrix(1 0 0 -1 0 841)" d="M357.07 531.43L357.55 531.43L357.55 531.43L357.55 531.91L357.55 531.91L357.07 531.91z" stroke="none" fill="#000000" fill-rule="evenodd" /><path transform="matrix(1 0 0 -1 0 841)" d="M357.55 531.43L510.69 531.43L510.69 531.43L510.69 531.91L510.69 531.91L357.55 531.91z" stroke="none" fill="#000000" fill-rule="evenodd" /><path transform="matrix(1 0 0 -1 0 841)" d="M510.7 531.43L511.18 531.43L511.18 531.43L511.18 531.91L511.18 531.91L510.7 531.91z" stroke="none" fill="#000000" fill-rule="evenodd" /><path transform="matrix(1 0 0 -1 0 841)" d="M84.264 503.71L84.744 503.71L84.744 503.71L84.744 531.43L84.744 531.43L84.264 531.43z" stroke="none" fill="#000000" fill-rule="evenodd" /><path transform="matrix(1 0 0 -1 0 841)" d="M180.26 503.71L180.74 503.71L180.74 503.71L180.74 531.43L180.74 531.43L180.26 531.43z" stroke="none" fill="#000000" fill-rule="evenodd" /><path transform="matrix(1 0 0 -1 0 841)" d="M236.81 503.71L237.29 503.71L237.29 503.71L237.29 531.43L237.29 531.43L236.81 531.43z" stroke="none" fill="#000000" fill-rule="evenodd" /><path transform="matrix(1 0 0 -1 0 841)" d="M269.21 503.71L269.69 503.71L269.69 503.71L269.69 531.43L269.69 531.43L269.21 531.43z" stroke="none" fill="#000000" fill-rule="evenodd" /><path transform="matrix(1 0 0 -1 0 841)" d="M357.07 503.71L357.55 503.71L357.55 503.71L357.55 531.43L357.55 531.43L357.07 531.43z" stroke="none" fill="#000000" fill-rule="evenodd" /><path transform="matrix(1 0 0 -1 0 841)" d="M510.7 503.71L511.18 503.71L511.18 503.71L511.18 531.43L511.18 531.43L510.7 531.43z" stroke="none" fill="#000000" fill-rule="evenodd" /><g clip-path="url(#39)"><g clip-path="url(#40)"></g><g clip-path="url(#41)"></g></g><g clip-path="url(#42)"><g clip-path="url(#43)"></g><g clip-path="url(#44)"></g></g><g clip-path="url(#45)"><g clip-path="url(#46)"></g><g clip-path="url(#47)"></g></g><g clip-path="url(#48)"><g clip-path="url(#49)"></g><g clip-path="url(#50)"></g></g><g clip-path="url(#51)"><g clip-path="url(#52)"></g><g clip-path="url(#53)"></g></g><path transform="matrix(1 0 0 -1 0 841)" d="M84.264 503.23L84.744 503.23L84.744 503.23L84.744 503.71L84.744 503.71L84.264 503.71z" stroke="none" fill="#000000" fill-rule="evenodd" /><path transform="matrix(1 0 0 -1 0 841)" d="M84.744 503.23L180.264 503.23L180.264 503.23L180.264 503.71L180.264 503.71L84.744 503.71z" stroke="none" fill="#000000" fill-rule="evenodd" /><path transform="matrix(1 0 0 -1 0 841)" d="M180.26 503.23L180.74 503.23L180.74 503.23L180.74 503.71L180.74 503.71L180.26 503.71z" stroke="none" fill="#000000" fill-rule="evenodd" /><path transform="matrix(1 0 0 -1 0 841)" d="M180.74 503.23L236.804 503.23L236.804 503.23L236.804 503.71L236.804 503.71L180.74 503.71z" stroke="none" fill="#000000" fill-rule="evenodd" /><path transform="matrix(1 0 0 -1 0 841)" d="M236.81 503.23L237.29 503.23L237.29 503.23L237.29 503.71L237.29 503.71L236.81 503.71z" stroke="none" fill="#000000" fill-rule="evenodd" /><path transform="matrix(1 0 0 -1 0 841)" d="M237.29 503.23L269.21 503.23L269.21 503.23L269.21 503.71L269.21 503.71L237.29 503.71z" stroke="none" fill="#000000" fill-rule="evenodd" /><path transform="matrix(1 0 0 -1 0 841)" d="M269.21 503.23L269.69 503.23L269.69 503.23L269.69 503.71L269.69 503.71L269.21 503.71z" stroke="none" fill="#000000" fill-rule="evenodd" /><path transform="matrix(1 0 0 -1 0 841)" d="M269.69 503.23L357.074 503.23L357.074 503.23L357.074 503.71L357.074 503.71L269.69 503.71z" stroke="none" fill="#000000" fill-rule="evenodd" /><path transform="matrix(1 0 0 -1 0 841)" d="M357.07 503.23L357.55 503.23L357.55 503.23L357.55 503.71L357.55 503.71L357.07 503.71z" stroke="none" fill="#000000" fill-rule="evenodd" /><path transform="matrix(1 0 0 -1 0 841)" d="M357.55 503.23L510.69 503.23L510.69 503.23L510.69 503.71L510.69 503.71L357.55 503.71z" stroke="none" fill="#000000" fill-rule="evenodd" /><path transform="matrix(1 0 0 -1 0 841)" d="M510.7 503.23L511.18 503.23L511.18 503.23L511.18 503.71L511.18 503.71L510.7 503.71z" stroke="none" fill="#000000" fill-rule="evenodd" /><path transform="matrix(1 0 0 -1 0 841)" d="M84.264 475.63L84.744 475.63L84.744 475.63L84.744 503.23L84.744 503.23L84.264 503.23z" stroke="none" fill="#000000" fill-rule="evenodd" /><path transform="matrix(1 0 0 -1 0 841)" d="M180.26 475.63L180.74 475.63L180.74 475.63L180.74 503.23L180.74 503.23L180.26 503.23z" stroke="none" fill="#000000" fill-rule="evenodd" /><path transform="matrix(1 0 0 -1 0 841)" d="M236.81 475.63L237.29 475.63L237.29 475.63L237.29 503.23L237.29 503.23L236.81 503.23z" stroke="none" fill="#000000" fill-rule="evenodd" /><path transform="matrix(1 0 0 -1 0 841)" d="M269.21 475.63L269.69 475.63L269.69 475.63L269.69 503.23L269.69 503.23L269.21 503.23z" stroke="none" fill="#000000" fill-rule="evenodd" /><path transform="matrix(1 0 0 -1 0 841)" d="M357.07 475.63L357.55 475.63L357.55 475.63L357.55 503.23L357.55 503.23L357.07 503.23z" stroke="none" fill="#000000" fill-rule="evenodd" /><path transform="matrix(1 0 0 -1 0 841)" d="M510.7 475.63L511.18 475.63L511.18 475.63L511.18 503.23L511.18 503.23L510.7 503.23z" stroke="none" fill="#000000" fill-rule="evenodd" /><path transform="matrix(1 0 0 -1 0 841)" d="M84.744 447.43L180.264 447.43L180.264 447.43L180.264 475.15L180.264 475.15L84.744 475.15z" stroke="none" fill="#DAEEF3" fill-rule="evenodd" /><g clip-path="url(#54)"><path transform="matrix(1 0 0 -1 0 841)" d="M89.904 448.51L175.104 448.51L175.104 448.51L175.104 475.15L175.104 475.15L89.904 475.15z" stroke="none" fill="#DAEEF3" fill-rule="evenodd" /><g clip-path="url(#55)"></g><g clip-path="url(#56)"></g></g><path transform="matrix(1 0 0 -1 0 841)" d="M180.74 447.43L236.684 447.43L236.684 447.43L236.684 475.15L236.684 475.15L180.74 475.15z" stroke="none" fill="#DAEEF3" fill-rule="evenodd" /><g clip-path="url(#57)"><path transform="matrix(1 0 0 -1 0 841)" d="M185.9 448.51L231.644 448.51L231.644 448.51L231.644 475.15L231.644 475.15L185.9 475.15z" stroke="none" fill="#DAEEF3" fill-rule="evenodd" /><g clip-path="url(#58)"></g><g clip-path="url(#59)"></g></g><path transform="matrix(1 0 0 -1 0 841)" d="M237.29 447.43L269.21 447.43L269.21 447.43L269.21 475.15L269.21 475.15L237.29 475.15z" stroke="none" fill="#DAEEF3" fill-rule="evenodd" /><g clip-path="url(#60)"><path transform="matrix(1 0 0 -1 0 841)" d="M242.45 447.43L264.05 447.43L264.05 447.43L264.05 475.15L264.05 475.15L242.45 475.15z" stroke="none" fill="#DAEEF3" fill-rule="evenodd" /><g clip-path="url(#61)"></g><g clip-path="url(#62)"></g></g><path transform="matrix(1 0 0 -1 0 841)" d="M269.69 447.43L357.074 447.43L357.074 447.43L357.074 475.15L357.074 475.15L269.69 475.15z" stroke="none" fill="#DAEEF3" fill-rule="evenodd" /><g clip-path="url(#63)"><path transform="matrix(1 0 0 -1 0 841)" d="M274.85 448.51L351.914 448.51L351.914 448.51L351.914 475.15L351.914 475.15L274.85 475.15z" stroke="none" fill="#DAEEF3" fill-rule="evenodd" /><g clip-path="url(#64)"></g><g clip-path="url(#65)"></g><g clip-path="url(#66)"></g></g><path transform="matrix(1 0 0 -1 0 841)" d="M357.55 447.43L510.69 447.43L510.69 447.43L510.69 475.15L510.69 475.15L357.55 475.15z" stroke="none" fill="#DAEEF3" fill-rule="evenodd" /><g clip-path="url(#67)"><path transform="matrix(1 0 0 -1 0 841)" d="M362.71 447.43L505.53 447.43L505.53 447.43L505.53 475.15L505.53 475.15L362.71 475.15z" stroke="none" fill="#DAEEF3" fill-rule="evenodd" /><g clip-path="url(#68)"></g><g clip-path="url(#69)"></g><g clip-path="url(#70)"></g><g clip-path="url(#71)"></g></g><path transform="matrix(1 0 0 -1 0 841)" d="M84.264 475.15L84.744 475.15L84.744 475.15L84.744 475.63L84.744 475.63L84.264 475.63z" stroke="none" fill="#000000" fill-rule="evenodd" /><path transform="matrix(1 0 0 -1 0 841)" d="M84.744 475.15L180.264 475.15L180.264 475.15L180.264 475.63L180.264 475.63L84.744 475.63z" stroke="none" fill="#000000" fill-rule="evenodd" /><path transform="matrix(1 0 0 -1 0 841)" d="M180.26 475.15L180.74 475.15L180.74 475.15L180.74 475.63L180.74 475.63L180.26 475.63z" stroke="none" fill="#000000" fill-rule="evenodd" /><path transform="matrix(1 0 0 -1 0 841)" d="M180.74 475.15L236.804 475.15L236.804 475.15L236.804 475.63L236.804 475.63L180.74 475.63z" stroke="none" fill="#000000" fill-rule="evenodd" /><path transform="matrix(1 0 0 -1 0 841)" d="M236.81 475.15L237.29 475.15L237.29 475.15L237.29 475.63L237.29 475.63L236.81 475.63z" stroke="none" fill="#000000" fill-rule="evenodd" /><path transform="matrix(1 0 0 -1 0 841)" d="M237.29 475.15L269.21 475.15L269.21 475.15L269.21 475.63L269.21 475.63L237.29 475.63z" stroke="none" fill="#000000" fill-rule="evenodd" /><path transform="matrix(1 0 0 -1 0 841)" d="M269.21 475.15L269.69 475.15L269.69 475.15L269.69 475.63L269.69 475.63L269.21 475.63z" stroke="none" fill="#000000" fill-rule="evenodd" /><path transform="matrix(1 0 0 -1 0 841)" d="M269.69 475.15L357.074 475.15L357.074 475.15L357.074 475.63L357.074 475.63L269.69 475.63z" stroke="none" fill="#000000" fill-rule="evenodd" /><path transform="matrix(1 0 0 -1 0 841)" d="M357.07 475.15L357.55 475.15L357.55 475.15L357.55 475.63L357.55 475.63L357.07 475.63z" stroke="none" fill="#000000" fill-rule="evenodd" /><path transform="matrix(1 0 0 -1 0 841)" d="M357.55 475.15L510.69 475.15L510.69 475.15L510.69 475.63L510.69 475.63L357.55 475.63z" stroke="none" fill="#000000" fill-rule="evenodd" /><path transform="matrix(1 0 0 -1 0 841)" d="M510.7 475.15L511.18 475.15L511.18 475.15L511.18 475.63L511.18 475.63L510.7 475.63z" stroke="none" fill="#000000" fill-rule="evenodd" /><path transform="matrix(1 0 0 -1 0 841)" d="M84.264 447.43L84.744 447.43L84.744 447.43L84.744 475.15L84.744 475.15L84.264 475.15z" stroke="none" fill="#000000" fill-rule="evenodd" /><path transform="matrix(1 0 0 -1 0 841)" d="M180.26 447.43L180.74 447.43L180.74 447.43L180.74 475.15L180.74 475.15L180.26 475.15z" stroke="none" fill="#000000" fill-rule="evenodd" /><path transform="matrix(1 0 0 -1 0 841)" d="M236.81 447.43L237.29 447.43L237.29 447.43L237.29 475.15L237.29 475.15L236.81 475.15z" stroke="none" fill="#000000" fill-rule="evenodd" /><path transform="matrix(1 0 0 -1 0 841)" d="M269.21 447.43L269.69 447.43L269.69 447.43L269.69 475.15L269.69 475.15L269.21 475.15z" stroke="none" fill="#000000" fill-rule="evenodd" /><path transform="matrix(1 0 0 -1 0 841)" d="M357.07 447.43L357.55 447.43L357.55 447.43L357.55 475.15L357.55 475.15L357.07 475.15z" stroke="none" fill="#000000" fill-rule="evenodd" /><path transform="matrix(1 0 0 -1 0 841)" d="M510.7 447.43L511.18 447.43L511.18 447.43L511.18 475.15L511.18 475.15L510.7 475.15z" stroke="none" fill="#000000" fill-rule="evenodd" /><g clip-path="url(#72)"><g clip-path="url(#73)"></g><g clip-path="url(#74)"></g></g><g clip-path="url(#75)"><g clip-path="url(#76)"></g><g clip-path="url(#77)"></g></g><g clip-path="url(#78)"><g clip-path="url(#79)"></g><g clip-path="url(#80)"></g></g><g clip-path="url(#81)"><g clip-path="url(#82)"></g><g clip-path="url(#83)"></g></g><g clip-path="url(#84)"><g clip-path="url(#85)"></g><g clip-path="url(#86)"></g><g clip-path="url(#87)"></g><g clip-path="url(#88)"></g></g><path transform="matrix(1 0 0 -1 0 841)" d="M84.264 446.95L84.744 446.95L84.744 446.95L84.744 447.43L84.744 447.43L84.264 447.43z" stroke="none" fill="#000000" fill-rule="evenodd" /><path transform="matrix(1 0 0 -1 0 841)" d="M84.744 446.95L180.264 446.95L180.264 446.95L180.264 447.43L180.264 447.43L84.744 447.43z" stroke="none" fill="#000000" fill-rule="evenodd" /><path transform="matrix(1 0 0 -1 0 841)" d="M180.26 446.95L180.74 446.95L180.74 446.95L180.74 447.43L180.74 447.43L180.26 447.43z" stroke="none" fill="#000000" fill-rule="evenodd" /><path transform="matrix(1 0 0 -1 0 841)" d="M180.74 446.95L236.804 446.95L236.804 446.95L236.804 447.43L236.804 447.43L180.74 447.43z" stroke="none" fill="#000000" fill-rule="evenodd" /><path transform="matrix(1 0 0 -1 0 841)" d="M236.81 446.95L237.29 446.95L237.29 446.95L237.29 447.43L237.29 447.43L236.81 447.43z" stroke="none" fill="#000000" fill-rule="evenodd" /><path transform="matrix(1 0 0 -1 0 841)" d="M237.29 446.95L269.21 446.95L269.21 446.95L269.21 447.43L269.21 447.43L237.29 447.43z" stroke="none" fill="#000000" fill-rule="evenodd" /><path transform="matrix(1 0 0 -1 0 841)" d="M269.21 446.95L269.69 446.95L269.69 446.95L269.69 447.43L269.69 447.43L269.21 447.43z" stroke="none" fill="#000000" fill-rule="evenodd" /><path transform="matrix(1 0 0 -1 0 841)" d="M269.69 446.95L357.074 446.95L357.074 446.95L357.074 447.43L357.074 447.43L269.69 447.43z" stroke="none" fill="#000000" fill-rule="evenodd" /><path transform="matrix(1 0 0 -1 0 841)" d="M357.07 446.95L357.55 446.95L357.55 446.95L357.55 447.43L357.55 447.43L357.07 447.43z" stroke="none" fill="#000000" fill-rule="evenodd" /><path transform="matrix(1 0 0 -1 0 841)" d="M357.55 446.95L510.69 446.95L510.69 446.95L510.69 447.43L510.69 447.43L357.55 447.43z" stroke="none" fill="#000000" fill-rule="evenodd" /><path transform="matrix(1 0 0 -1 0 841)" d="M510.7 446.95L511.18 446.95L511.18 446.95L511.18 447.43L511.18 447.43L510.7 447.43z" stroke="none" fill="#000000" fill-rule="evenodd" /><path transform="matrix(1 0 0 -1 0 841)" d="M84.264 419.35L84.744 419.35L84.744 419.35L84.744 446.95L84.744 446.95L84.264 446.95z" stroke="none" fill="#000000" fill-rule="evenodd" /><path transform="matrix(1 0 0 -1 0 841)" d="M180.26 419.35L180.74 419.35L180.74 419.35L180.74 446.95L180.74 446.95L180.26 446.95z" stroke="none" fill="#000000" fill-rule="evenodd" /><path transform="matrix(1 0 0 -1 0 841)" d="M236.81 419.35L237.29 419.35L237.29 419.35L237.29 446.95L237.29 446.95L236.81 446.95z" stroke="none" fill="#000000" fill-rule="evenodd" /><path transform="matrix(1 0 0 -1 0 841)" d="M269.21 419.35L269.69 419.35L269.69 419.35L269.69 446.95L269.69 446.95L269.21 446.95z" stroke="none" fill="#000000" fill-rule="evenodd" /><path transform="matrix(1 0 0 -1 0 841)" d="M357.07 419.35L357.55 419.35L357.55 419.35L357.55 446.95L357.55 446.95L357.07 446.95z" stroke="none" fill="#000000" fill-rule="evenodd" /><path transform="matrix(1 0 0 -1 0 841)" d="M510.7 419.35L511.18 419.35L511.18 419.35L511.18 446.95L511.18 446.95L510.7 446.95z" stroke="none" fill="#000000" fill-rule="evenodd" /><path transform="matrix(1 0 0 -1 0 841)" d="M84.744 391.15L180.264 391.15L180.264 391.15L180.264 418.75L180.264 418.75L84.744 418.75z" stroke="none" fill="#DAEEF3" fill-rule="evenodd" /><g clip-path="url(#89)"><path transform="matrix(1 0 0 -1 0 841)" d="M89.904 392.23L175.104 392.23L175.104 392.23L175.104 418.75L175.104 418.75L89.904 418.75z" stroke="none" fill="#DAEEF3" fill-rule="evenodd" /><g clip-path="url(#90)"></g><g clip-path="url(#91)"></g></g><path transform="matrix(1 0 0 -1 0 841)" d="M180.74 391.15L236.684 391.15L236.684 391.15L236.684 418.75L236.684 418.75L180.74 418.75z" stroke="none" fill="#DAEEF3" fill-rule="evenodd" /><g clip-path="url(#92)"><path transform="matrix(1 0 0 -1 0 841)" d="M185.9 392.23L231.644 392.23L231.644 392.23L231.644 418.75L231.644 418.75L185.9 418.75z" stroke="none" fill="#DAEEF3" fill-rule="evenodd" /><g clip-path="url(#93)"></g><g clip-path="url(#94)"></g></g><path transform="matrix(1 0 0 -1 0 841)" d="M237.29 391.15L269.21 391.15L269.21 391.15L269.21 418.75L269.21 418.75L237.29 418.75z" stroke="none" fill="#DAEEF3" fill-rule="evenodd" /><g clip-path="url(#95)"><path transform="matrix(1 0 0 -1 0 841)" d="M242.45 391.15L264.05 391.15L264.05 391.15L264.05 418.75L264.05 418.75L242.45 418.75z" stroke="none" fill="#DAEEF3" fill-rule="evenodd" /><g clip-path="url(#96)"></g><g clip-path="url(#97)"></g></g><path transform="matrix(1 0 0 -1 0 841)" d="M269.69 391.15L357.074 391.15L357.074 391.15L357.074 418.75L357.074 418.75L269.69 418.75z" stroke="none" fill="#DAEEF3" fill-rule="evenodd" /><g clip-path="url(#98)"><path transform="matrix(1 0 0 -1 0 841)" d="M274.85 392.23L351.914 392.23L351.914 392.23L351.914 418.75L351.914 418.75L274.85 418.75z" stroke="none" fill="#DAEEF3" fill-rule="evenodd" /><g clip-path="url(#99)"></g></g><path transform="matrix(1 0 0 -1 0 841)" d="M357.55 391.15L510.69 391.15L510.69 391.15L510.69 418.75L510.69 418.75L357.55 418.75z" stroke="none" fill="#DAEEF3" fill-rule="evenodd" /><g clip-path="url(#100)"><path transform="matrix(1 0 0 -1 0 841)" d="M362.71 391.15L505.53 391.15L505.53 391.15L505.53 418.75L505.53 418.75L362.71 418.75z" stroke="none" fill="#DAEEF3" fill-rule="evenodd" /><g clip-path="url(#101)"></g><g clip-path="url(#102)"></g><g clip-path="url(#103)"></g><g clip-path="url(#104)"></g></g><path transform="matrix(1 0 0 -1 0 841)" d="M84.264 418.87L84.744 418.87L84.744 418.87L84.744 419.35L84.744 419.35L84.264 419.35z" stroke="none" fill="#000000" fill-rule="evenodd" /><path transform="matrix(1 0 0 -1 0 841)" d="M84.744 418.87L180.264 418.87L180.264 418.87L180.264 419.35L180.264 419.35L84.744 419.35z" stroke="none" fill="#000000" fill-rule="evenodd" /><path transform="matrix(1 0 0 -1 0 841)" d="M180.26 418.87L180.74 418.87L180.74 418.87L180.74 419.35L180.74 419.35L180.26 419.35z" stroke="none" fill="#000000" fill-rule="evenodd" /><path transform="matrix(1 0 0 -1 0 841)" d="M180.74 418.87L236.804 418.87L236.804 418.87L236.804 419.35L236.804 419.35L180.74 419.35z" stroke="none" fill="#000000" fill-rule="evenodd" /><path transform="matrix(1 0 0 -1 0 841)" d="M236.81 418.87L237.29 418.87L237.29 418.87L237.29 419.35L237.29 419.35L236.81 419.35z" stroke="none" fill="#000000" fill-rule="evenodd" /><path transform="matrix(1 0 0 -1 0 841)" d="M237.29 418.87L269.21 418.87L269.21 418.87L269.21 419.35L269.21 419.35L237.29 419.35z" stroke="none" fill="#000000" fill-rule="evenodd" /><path transform="matrix(1 0 0 -1 0 841)" d="M269.21 418.87L269.69 418.87L269.69 418.87L269.69 419.35L269.69 419.35L269.21 419.35z" stroke="none" fill="#000000" fill-rule="evenodd" /><path transform="matrix(1 0 0 -1 0 841)" d="M269.69 418.87L357.074 418.87L357.074 418.87L357.074 419.35L357.074 419.35L269.69 419.35z" stroke="none" fill="#000000" fill-rule="evenodd" /><path transform="matrix(1 0 0 -1 0 841)" d="M357.07 418.87L357.55 418.87L357.55 418.87L357.55 419.35L357.55 419.35L357.07 419.35z" stroke="none" fill="#000000" fill-rule="evenodd" /><path transform="matrix(1 0 0 -1 0 841)" d="M357.55 418.87L510.69 418.87L510.69 418.87L510.69 419.35L510.69 419.35L357.55 419.35z" stroke="none" fill="#000000" fill-rule="evenodd" /><path transform="matrix(1 0 0 -1 0 841)" d="M510.7 418.87L511.18 418.87L511.18 418.87L511.18 419.35L511.18 419.35L510.7 419.35z" stroke="none" fill="#000000" fill-rule="evenodd" /><path transform="matrix(1 0 0 -1 0 841)" d="M84.264 391.15L84.744 391.15L84.744 391.15L84.744 418.87L84.744 418.87L84.264 418.87z" stroke="none" fill="#000000" fill-rule="evenodd" /><path transform="matrix(1 0 0 -1 0 841)" d="M180.26 391.15L180.74 391.15L180.74 391.15L180.74 418.87L180.74 418.87L180.26 418.87z" stroke="none" fill="#000000" fill-rule="evenodd" /><path transform="matrix(1 0 0 -1 0 841)" d="M236.81 391.15L237.29 391.15L237.29 391.15L237.29 418.87L237.29 418.87L236.81 418.87z" stroke="none" fill="#000000" fill-rule="evenodd" /><path transform="matrix(1 0 0 -1 0 841)" d="M269.21 391.15L269.69 391.15L269.69 391.15L269.69 418.87L269.69 418.87L269.21 418.87z" stroke="none" fill="#000000" fill-rule="evenodd" /><path transform="matrix(1 0 0 -1 0 841)" d="M357.07 391.15L357.55 391.15L357.55 391.15L357.55 418.87L357.55 418.87L357.07 418.87z" stroke="none" fill="#000000" fill-rule="evenodd" /><path transform="matrix(1 0 0 -1 0 841)" d="M510.7 391.15L511.18 391.15L511.18 391.15L511.18 418.87L511.18 418.87L510.7 418.87z" stroke="none" fill="#000000" fill-rule="evenodd" /><g clip-path="url(#105)"><g clip-path="url(#106)"></g><g clip-path="url(#107)"></g></g><g clip-path="url(#108)"><g clip-path="url(#109)"></g><g clip-path="url(#110)"></g></g><g clip-path="url(#111)"><g clip-path="url(#112)"></g><g clip-path="url(#113)"></g></g><g clip-path="url(#114)"><g clip-path="url(#115)"></g><g clip-path="url(#116)"></g></g><g clip-path="url(#117)"><g clip-path="url(#118)"></g><g clip-path="url(#119)"></g></g><path transform="matrix(1 0 0 -1 0 841)" d="M84.264 390.67L84.744 390.67L84.744 390.67L84.744 391.15L84.744 391.15L84.264 391.15z" stroke="none" fill="#000000" fill-rule="evenodd" /><path transform="matrix(1 0 0 -1 0 841)" d="M84.744 390.67L180.264 390.67L180.264 390.67L180.264 391.15L180.264 391.15L84.744 391.15z" stroke="none" fill="#000000" fill-rule="evenodd" /><path transform="matrix(1 0 0 -1 0 841)" d="M180.26 390.67L180.74 390.67L180.74 390.67L180.74 391.15L180.74 391.15L180.26 391.15z" stroke="none" fill="#000000" fill-rule="evenodd" /><path transform="matrix(1 0 0 -1 0 841)" d="M180.74 390.67L236.804 390.67L236.804 390.67L236.804 391.15L236.804 391.15L180.74 391.15z" stroke="none" fill="#000000" fill-rule="evenodd" /><path transform="matrix(1 0 0 -1 0 841)" d="M236.81 390.67L237.29 390.67L237.29 390.67L237.29 391.15L237.29 391.15L236.81 391.15z" stroke="none" fill="#000000" fill-rule="evenodd" /><path transform="matrix(1 0 0 -1 0 841)" d="M237.29 390.67L269.21 390.67L269.21 390.67L269.21 391.15L269.21 391.15L237.29 391.15z" stroke="none" fill="#000000" fill-rule="evenodd" /><path transform="matrix(1 0 0 -1 0 841)" d="M269.21 390.67L269.69 390.67L269.69 390.67L269.69 391.15L269.69 391.15L269.21 391.15z" stroke="none" fill="#000000" fill-rule="evenodd" /><path transform="matrix(1 0 0 -1 0 841)" d="M269.69 390.67L357.074 390.67L357.074 390.67L357.074 391.15L357.074 391.15L269.69 391.15z" stroke="none" fill="#000000" fill-rule="evenodd" /><path transform="matrix(1 0 0 -1 0 841)" d="M357.07 390.67L357.55 390.67L357.55 390.67L357.55 391.15L357.55 391.15L357.07 391.15z" stroke="none" fill="#000000" fill-rule="evenodd" /><path transform="matrix(1 0 0 -1 0 841)" d="M357.55 390.67L510.69 390.67L510.69 390.67L510.69 391.15L510.69 391.15L357.55 391.15z" stroke="none" fill="#000000" fill-rule="evenodd" /><path transform="matrix(1 0 0 -1 0 841)" d="M510.7 390.67L511.18 390.67L511.18 390.67L511.18 391.15L511.18 391.15L510.7 391.15z" stroke="none" fill="#000000" fill-rule="evenodd" /><path transform="matrix(1 0 0 -1 0 841)" d="M84.264 362.93L84.744 362.93L84.744 362.93L84.744 390.674L84.744 390.674L84.264 390.674z" stroke="none" fill="#000000" fill-rule="evenodd" /><path transform="matrix(1 0 0 -1 0 841)" d="M180.26 362.93L180.74 362.93L180.74 362.93L180.74 390.674L180.74 390.674L180.26 390.674z" stroke="none" fill="#000000" fill-rule="evenodd" /><path transform="matrix(1 0 0 -1 0 841)" d="M236.81 362.93L237.29 362.93L237.29 362.93L237.29 390.674L237.29 390.674L236.81 390.674z" stroke="none" fill="#000000" fill-rule="evenodd" /><path transform="matrix(1 0 0 -1 0 841)" d="M269.21 362.93L269.69 362.93L269.69 362.93L269.69 390.674L269.69 390.674L269.21 390.674z" stroke="none" fill="#000000" fill-rule="evenodd" /><path transform="matrix(1 0 0 -1 0 841)" d="M357.07 362.93L357.55 362.93L357.55 362.93L357.55 390.674L357.55 390.674L357.07 390.674z" stroke="none" fill="#000000" fill-rule="evenodd" /><path transform="matrix(1 0 0 -1 0 841)" d="M510.7 362.93L511.18 362.93L511.18 362.93L511.18 390.674L511.18 390.674L510.7 390.674z" stroke="none" fill="#000000" fill-rule="evenodd" /><path transform="matrix(1 0 0 -1 0 841)" d="M84.744 334.85L180.264 334.85L180.264 334.85L180.264 362.45L180.264 362.45L84.744 362.45z" stroke="none" fill="#DAEEF3" fill-rule="evenodd" /><g clip-path="url(#120)"><path transform="matrix(1 0 0 -1 0 841)" d="M89.904 335.93L175.104 335.93L175.104 335.93L175.104 362.45L175.104 362.45L89.904 362.45z" stroke="none" fill="#DAEEF3" fill-rule="evenodd" /><g clip-path="url(#121)"></g><g clip-path="url(#122)"></g></g><path transform="matrix(1 0 0 -1 0 841)" d="M180.74 334.85L236.684 334.85L236.684 334.85L236.684 362.45L236.684 362.45L180.74 362.45z" stroke="none" fill="#DAEEF3" fill-rule="evenodd" /><g clip-path="url(#123)"><path transform="matrix(1 0 0 -1 0 841)" d="M185.9 335.93L231.644 335.93L231.644 335.93L231.644 362.45L231.644 362.45L185.9 362.45z" stroke="none" fill="#DAEEF3" fill-rule="evenodd" /><g clip-path="url(#124)"></g><g clip-path="url(#125)"></g></g><path transform="matrix(1 0 0 -1 0 841)" d="M237.29 334.85L269.21 334.85L269.21 334.85L269.21 362.45L269.21 362.45L237.29 362.45z" stroke="none" fill="#DAEEF3" fill-rule="evenodd" /><g clip-path="url(#126)"><path transform="matrix(1 0 0 -1 0 841)" d="M242.45 334.85L264.05 334.85L264.05 334.85L264.05 362.45L264.05 362.45L242.45 362.45z" stroke="none" fill="#DAEEF3" fill-rule="evenodd" /><g clip-path="url(#127)"></g><g clip-path="url(#128)"></g></g><path transform="matrix(1 0 0 -1 0 841)" d="M269.69 334.85L357.074 334.85L357.074 334.85L357.074 362.45L357.074 362.45L269.69 362.45z" stroke="none" fill="#DAEEF3" fill-rule="evenodd" /><g clip-path="url(#129)"><path transform="matrix(1 0 0 -1 0 841)" d="M274.85 335.93L351.914 335.93L351.914 335.93L351.914 362.45L351.914 362.45L274.85 362.45z" stroke="none" fill="#DAEEF3" fill-rule="evenodd" /><g clip-path="url(#130)"></g><g clip-path="url(#131)"></g></g><path transform="matrix(1 0 0 -1 0 841)" d="M357.55 334.85L510.69 334.85L510.69 334.85L510.69 362.45L510.69 362.45L357.55 362.45z" stroke="none" fill="#DAEEF3" fill-rule="evenodd" /><g clip-path="url(#132)"><path transform="matrix(1 0 0 -1 0 841)" d="M362.71 334.85L505.53 334.85L505.53 334.85L505.53 362.45L505.53 362.45L362.71 362.45z" stroke="none" fill="#DAEEF3" fill-rule="evenodd" /><g clip-path="url(#133)"></g><g clip-path="url(#134)"></g><g clip-path="url(#135)"></g></g><path transform="matrix(1 0 0 -1 0 841)" d="M84.264 362.45L84.744 362.45L84.744 362.45L84.744 362.93L84.744 362.93L84.264 362.93z" stroke="none" fill="#000000" fill-rule="evenodd" /><path transform="matrix(1 0 0 -1 0 841)" d="M84.744 362.45L180.264 362.45L180.264 362.45L180.264 362.93L180.264 362.93L84.744 362.93z" stroke="none" fill="#000000" fill-rule="evenodd" /><path transform="matrix(1 0 0 -1 0 841)" d="M180.26 362.45L180.74 362.45L180.74 362.45L180.74 362.93L180.74 362.93L180.26 362.93z" stroke="none" fill="#000000" fill-rule="evenodd" /><path transform="matrix(1 0 0 -1 0 841)" d="M180.74 362.45L236.804 362.45L236.804 362.45L236.804 362.93L236.804 362.93L180.74 362.93z" stroke="none" fill="#000000" fill-rule="evenodd" /><path transform="matrix(1 0 0 -1 0 841)" d="M236.81 362.45L237.29 362.45L237.29 362.45L237.29 362.93L237.29 362.93L236.81 362.93z" stroke="none" fill="#000000" fill-rule="evenodd" /><path transform="matrix(1 0 0 -1 0 841)" d="M237.29 362.45L269.21 362.45L269.21 362.45L269.21 362.93L269.21 362.93L237.29 362.93z" stroke="none" fill="#000000" fill-rule="evenodd" /><path transform="matrix(1 0 0 -1 0 841)" d="M269.21 362.45L269.69 362.45L269.69 362.45L269.69 362.93L269.69 362.93L269.21 362.93z" stroke="none" fill="#000000" fill-rule="evenodd" /><path transform="matrix(1 0 0 -1 0 841)" d="M269.69 362.45L357.074 362.45L357.074 362.45L357.074 362.93L357.074 362.93L269.69 362.93z" stroke="none" fill="#000000" fill-rule="evenodd" /><path transform="matrix(1 0 0 -1 0 841)" d="M357.07 362.45L357.55 362.45L357.55 362.45L357.55 362.93L357.55 362.93L357.07 362.93z" stroke="none" fill="#000000" fill-rule="evenodd" /><path transform="matrix(1 0 0 -1 0 841)" d="M357.55 362.45L510.69 362.45L510.69 362.45L510.69 362.93L510.69 362.93L357.55 362.93z" stroke="none" fill="#000000" fill-rule="evenodd" /><path transform="matrix(1 0 0 -1 0 841)" d="M510.7 362.45L511.18 362.45L511.18 362.45L511.18 362.93L511.18 362.93L510.7 362.93z" stroke="none" fill="#000000" fill-rule="evenodd" /><path transform="matrix(1 0 0 -1 0 841)" d="M84.264 334.85L84.744 334.85L84.744 334.85L84.744 362.45L84.744 362.45L84.264 362.45z" stroke="none" fill="#000000" fill-rule="evenodd" /><path transform="matrix(1 0 0 -1 0 841)" d="M180.26 334.85L180.74 334.85L180.74 334.85L180.74 362.45L180.74 362.45L180.26 362.45z" stroke="none" fill="#000000" fill-rule="evenodd" /><path transform="matrix(1 0 0 -1 0 841)" d="M236.81 334.85L237.29 334.85L237.29 334.85L237.29 362.45L237.29 362.45L236.81 362.45z" stroke="none" fill="#000000" fill-rule="evenodd" /><path transform="matrix(1 0 0 -1 0 841)" d="M269.21 334.85L269.69 334.85L269.69 334.85L269.69 362.45L269.69 362.45L269.21 362.45z" stroke="none" fill="#000000" fill-rule="evenodd" /><path transform="matrix(1 0 0 -1 0 841)" d="M357.07 334.85L357.55 334.85L357.55 334.85L357.55 362.45L357.55 362.45L357.07 362.45z" stroke="none" fill="#000000" fill-rule="evenodd" /><path transform="matrix(1 0 0 -1 0 841)" d="M510.7 334.85L511.18 334.85L511.18 334.85L511.18 362.45L511.18 362.45L510.7 362.45z" stroke="none" fill="#000000" fill-rule="evenodd" /><g clip-path="url(#136)"><g clip-path="url(#137)"></g><g clip-path="url(#138)"></g></g><g clip-path="url(#139)"><g clip-path="url(#140)"></g><g clip-path="url(#141)"></g></g><g clip-path="url(#142)"><g clip-path="url(#143)"></g><g clip-path="url(#144)"></g></g><g clip-path="url(#145)"><g clip-path="url(#146)"></g><g clip-path="url(#147)"></g></g><g clip-path="url(#148)"><g clip-path="url(#149)"></g><g clip-path="url(#150)"></g><g clip-path="url(#151)"></g><g clip-path="url(#152)"></g></g><path transform="matrix(1 0 0 -1 0 841)" d="M84.264 334.37L84.744 334.37L84.744 334.37L84.744 334.85L84.744 334.85L84.264 334.85z" stroke="none" fill="#000000" fill-rule="evenodd" /><path transform="matrix(1 0 0 -1 0 841)" d="M84.744 334.37L180.264 334.37L180.264 334.37L180.264 334.85L180.264 334.85L84.744 334.85z" stroke="none" fill="#000000" fill-rule="evenodd" /><path transform="matrix(1 0 0 -1 0 841)" d="M180.26 334.37L180.74 334.37L180.74 334.37L180.74 334.85L180.74 334.85L180.26 334.85z" stroke="none" fill="#000000" fill-rule="evenodd" /><path transform="matrix(1 0 0 -1 0 841)" d="M180.74 334.37L236.804 334.37L236.804 334.37L236.804 334.85L236.804 334.85L180.74 334.85z" stroke="none" fill="#000000" fill-rule="evenodd" /><path transform="matrix(1 0 0 -1 0 841)" d="M236.81 334.37L237.29 334.37L237.29 334.37L237.29 334.85L237.29 334.85L236.81 334.85z" stroke="none" fill="#000000" fill-rule="evenodd" /><path transform="matrix(1 0 0 -1 0 841)" d="M237.29 334.37L269.21 334.37L269.21 334.37L269.21 334.85L269.21 334.85L237.29 334.85z" stroke="none" fill="#000000" fill-rule="evenodd" /><path transform="matrix(1 0 0 -1 0 841)" d="M269.21 334.37L269.69 334.37L269.69 334.37L269.69 334.85L269.69 334.85L269.21 334.85z" stroke="none" fill="#000000" fill-rule="evenodd" /><path transform="matrix(1 0 0 -1 0 841)" d="M269.69 334.37L357.074 334.37L357.074 334.37L357.074 334.85L357.074 334.85L269.69 334.85z" stroke="none" fill="#000000" fill-rule="evenodd" /><path transform="matrix(1 0 0 -1 0 841)" d="M357.07 334.37L357.55 334.37L357.55 334.37L357.55 334.85L357.55 334.85L357.07 334.85z" stroke="none" fill="#000000" fill-rule="evenodd" /><path transform="matrix(1 0 0 -1 0 841)" d="M357.55 334.37L510.69 334.37L510.69 334.37L510.69 334.85L510.69 334.85L357.55 334.85z" stroke="none" fill="#000000" fill-rule="evenodd" /><path transform="matrix(1 0 0 -1 0 841)" d="M510.7 334.37L511.18 334.37L511.18 334.37L511.18 334.85L511.18 334.85L510.7 334.85z" stroke="none" fill="#000000" fill-rule="evenodd" /><path transform="matrix(1 0 0 -1 0 841)" d="M84.264 306.65L84.744 306.65L84.744 306.65L84.744 334.37L84.744 334.37L84.264 334.37z" stroke="none" fill="#000000" fill-rule="evenodd" /><path transform="matrix(1 0 0 -1 0 841)" d="M180.26 306.65L180.74 306.65L180.74 306.65L180.74 334.37L180.74 334.37L180.26 334.37z" stroke="none" fill="#000000" fill-rule="evenodd" /><path transform="matrix(1 0 0 -1 0 841)" d="M236.81 306.65L237.29 306.65L237.29 306.65L237.29 334.37L237.29 334.37L236.81 334.37z" stroke="none" fill="#000000" fill-rule="evenodd" /><path transform="matrix(1 0 0 -1 0 841)" d="M269.21 306.65L269.69 306.65L269.69 306.65L269.69 334.37L269.69 334.37L269.21 334.37z" stroke="none" fill="#000000" fill-rule="evenodd" /><path transform="matrix(1 0 0 -1 0 841)" d="M357.07 306.65L357.55 306.65L357.55 306.65L357.55 334.37L357.55 334.37L357.07 334.37z" stroke="none" fill="#000000" fill-rule="evenodd" /><path transform="matrix(1 0 0 -1 0 841)" d="M510.7 306.65L511.18 306.65L511.18 306.65L511.18 334.37L511.18 334.37L510.7 334.37z" stroke="none" fill="#000000" fill-rule="evenodd" /><path transform="matrix(1 0 0 -1 0 841)" d="M84.744 232.85L180.264 232.85L180.264 232.85L180.264 306.17L180.264 306.17L84.744 306.17z" stroke="none" fill="#DAEEF3" fill-rule="evenodd" /><g clip-path="url(#153)"><path transform="matrix(1 0 0 -1 0 841)" d="M89.904 279.53L175.104 279.53L175.104 279.53L175.104 306.17L175.104 306.17L89.904 306.17z" stroke="none" fill="#DAEEF3" fill-rule="evenodd" /><g clip-path="url(#154)"></g><g clip-path="url(#155)"></g></g><path transform="matrix(1 0 0 -1 0 841)" d="M180.74 232.85L236.684 232.85L236.684 232.85L236.684 306.17L236.684 306.17L180.74 306.17z" stroke="none" fill="#DAEEF3" fill-rule="evenodd" /><g clip-path="url(#156)"><path transform="matrix(1 0 0 -1 0 841)" d="M185.9 279.53L231.644 279.53L231.644 279.53L231.644 306.17L231.644 306.17L185.9 306.17z" stroke="none" fill="#DAEEF3" fill-rule="evenodd" /><g clip-path="url(#157)"></g><g clip-path="url(#158)"></g></g><path transform="matrix(1 0 0 -1 0 841)" d="M237.29 232.85L269.21 232.85L269.21 232.85L269.21 306.17L269.21 306.17L237.29 306.17z" stroke="none" fill="#DAEEF3" fill-rule="evenodd" /><g clip-path="url(#159)"><path transform="matrix(1 0 0 -1 0 841)" d="M242.45 278.45L264.05 278.45L264.05 278.45L264.05 306.17L264.05 306.17L242.45 306.17z" stroke="none" fill="#DAEEF3" fill-rule="evenodd" /><g clip-path="url(#160)"></g><g clip-path="url(#161)"></g></g><path transform="matrix(1 0 0 -1 0 841)" d="M269.69 232.85L357.074 232.85L357.074 232.85L357.074 306.17L357.074 306.17L269.69 306.17z" stroke="none" fill="#DAEEF3" fill-rule="evenodd" /><g clip-path="url(#162)"><path transform="matrix(1 0 0 -1 0 841)" d="M274.85 279.53L351.914 279.53L351.914 279.53L351.914 306.17L351.914 306.17L274.85 306.17z" stroke="none" fill="#DAEEF3" fill-rule="evenodd" /><g clip-path="url(#163)"></g></g><path transform="matrix(1 0 0 -1 0 841)" d="M357.55 232.85L510.69 232.85L510.69 232.85L510.69 306.17L510.69 306.17L357.55 306.17z" stroke="none" fill="#DAEEF3" fill-rule="evenodd" /><g clip-path="url(#164)"><path transform="matrix(1 0 0 -1 0 841)" d="M362.71 288.05L505.53 288.05L505.53 288.05L505.53 306.17L505.53 306.17L362.71 306.17z" stroke="none" fill="#DAEEF3" fill-rule="evenodd" /><g clip-path="url(#165)"></g><g clip-path="url(#166)"></g><g clip-path="url(#167)"></g><g clip-path="url(#168)"></g><path transform="matrix(1 0 0 -1 0 841)" d="M362.71 270.89L505.53 270.89L505.53 270.89L505.53 288.05L505.53 288.05L362.71 288.05z" stroke="none" fill="#DAEEF3" fill-rule="evenodd" /><g clip-path="url(#169)"></g><g clip-path="url(#170)"></g><path transform="matrix(1 0 0 -1 0 841)" d="M362.71 251.93L505.53 251.93L505.53 251.93L505.53 270.89L505.53 270.89L362.71 270.89z" stroke="none" fill="#DAEEF3" fill-rule="evenodd" /><g clip-path="url(#171)"></g><g clip-path="url(#172)"></g><g clip-path="url(#173)"></g><g clip-path="url(#174)"></g><g clip-path="url(#175)"></g><g clip-path="url(#176)"></g><path transform="matrix(1 0 0 -1 0 841)" d="M460.99 253.97L505.534 253.97L505.534 253.97L505.534 254.69L505.534 254.69L460.99 254.69z" stroke="none" fill="#548DD4" fill-rule="evenodd" /><path transform="matrix(1 0 0 -1 0 841)" d="M362.71 232.85L505.53 232.85L505.53 232.85L505.53 251.93L505.53 251.93L362.71 251.93z" stroke="none" fill="#DAEEF3" fill-rule="evenodd" /><g clip-path="url(#177)"></g><g clip-path="url(#178)"></g><g clip-path="url(#179)"></g><path transform="matrix(1 0 0 -1 0 841)" d="M368.71 234.77L382.75 234.77L382.75 234.77L382.75 235.49L382.75 235.49L368.71 235.49z" stroke="none" fill="#548DD4" fill-rule="evenodd" /></g><path transform="matrix(1 0 0 -1 0 841)" d="M84.264 306.17L84.744 306.17L84.744 306.17L84.744 306.65L84.744 306.65L84.264 306.65z" stroke="none" fill="#000000" fill-rule="evenodd" /><path transform="matrix(1 0 0 -1 0 841)" d="M84.744 306.17L180.264 306.17L180.264 306.17L180.264 306.65L180.264 306.65L84.744 306.65z" stroke="none" fill="#000000" fill-rule="evenodd" /><path transform="matrix(1 0 0 -1 0 841)" d="M180.26 306.17L180.74 306.17L180.74 306.17L180.74 306.65L180.74 306.65L180.26 306.65z" stroke="none" fill="#000000" fill-rule="evenodd" /><path transform="matrix(1 0 0 -1 0 841)" d="M180.74 306.17L236.804 306.17L236.804 306.17L236.804 306.65L236.804 306.65L180.74 306.65z" stroke="none" fill="#000000" fill-rule="evenodd" /><path transform="matrix(1 0 0 -1 0 841)" d="M236.81 306.17L237.29 306.17L237.29 306.17L237.29 306.65L237.29 306.65L236.81 306.65z" stroke="none" fill="#000000" fill-rule="evenodd" /><path transform="matrix(1 0 0 -1 0 841)" d="M237.29 306.17L269.21 306.17L269.21 306.17L269.21 306.65L269.21 306.65L237.29 306.65z" stroke="none" fill="#000000" fill-rule="evenodd" /><path transform="matrix(1 0 0 -1 0 841)" d="M269.21 306.17L269.69 306.17L269.69 306.17L269.69 306.65L269.69 306.65L269.21 306.65z" stroke="none" fill="#000000" fill-rule="evenodd" /><path transform="matrix(1 0 0 -1 0 841)" d="M269.69 306.17L357.074 306.17L357.074 306.17L357.074 306.65L357.074 306.65L269.69 306.65z" stroke="none" fill="#000000" fill-rule="evenodd" /><path transform="matrix(1 0 0 -1 0 841)" d="M357.07 306.17L357.55 306.17L357.55 306.17L357.55 306.65L357.55 306.65L357.07 306.65z" stroke="none" fill="#000000" fill-rule="evenodd" /><path transform="matrix(1 0 0 -1 0 841)" d="M357.55 306.17L510.69 306.17L510.69 306.17L510.69 306.65L510.69 306.65L357.55 306.65z" stroke="none" fill="#000000" fill-rule="evenodd" /><path transform="matrix(1 0 0 -1 0 841)" d="M510.7 306.17L511.18 306.17L511.18 306.17L511.18 306.65L511.18 306.65L510.7 306.65z" stroke="none" fill="#000000" fill-rule="evenodd" /><path transform="matrix(1 0 0 -1 0 841)" d="M84.264 232.85L84.744 232.85L84.744 232.85L84.744 306.17L84.744 306.17L84.264 306.17z" stroke="none" fill="#000000" fill-rule="evenodd" /><path transform="matrix(1 0 0 -1 0 841)" d="M84.264 232.37L84.744 232.37L84.744 232.37L84.744 232.85L84.744 232.85L84.264 232.85z" stroke="none" fill="#000000" fill-rule="evenodd" /><path transform="matrix(1 0 0 -1 0 841)" d="M84.264 232.37L84.744 232.37L84.744 232.37L84.744 232.85L84.744 232.85L84.264 232.85z" stroke="none" fill="#000000" fill-rule="evenodd" /><path transform="matrix(1 0 0 -1 0 841)" d="M84.744 232.37L180.264 232.37L180.264 232.37L180.264 232.85L180.264 232.85L84.744 232.85z" stroke="none" fill="#000000" fill-rule="evenodd" /><path transform="matrix(1 0 0 -1 0 841)" d="M180.26 232.85L180.74 232.85L180.74 232.85L180.74 306.17L180.74 306.17L180.26 306.17z" stroke="none" fill="#000000" fill-rule="evenodd" /><path transform="matrix(1 0 0 -1 0 841)" d="M180.26 232.37L180.74 232.37L180.74 232.37L180.74 232.85L180.74 232.85L180.26 232.85z" stroke="none" fill="#000000" fill-rule="evenodd" /><path transform="matrix(1 0 0 -1 0 841)" d="M180.74 232.37L236.804 232.37L236.804 232.37L236.804 232.85L236.804 232.85L180.74 232.85z" stroke="none" fill="#000000" fill-rule="evenodd" /><path transform="matrix(1 0 0 -1 0 841)" d="M236.81 232.85L237.29 232.85L237.29 232.85L237.29 306.17L237.29 306.17L236.81 306.17z" stroke="none" fill="#000000" fill-rule="evenodd" /><path transform="matrix(1 0 0 -1 0 841)" d="M236.81 232.37L237.29 232.37L237.29 232.37L237.29 232.85L237.29 232.85L236.81 232.85z" stroke="none" fill="#000000" fill-rule="evenodd" /><path transform="matrix(1 0 0 -1 0 841)" d="M237.29 232.37L269.21 232.37L269.21 232.37L269.21 232.85L269.21 232.85L237.29 232.85z" stroke="none" fill="#000000" fill-rule="evenodd" /><path transform="matrix(1 0 0 -1 0 841)" d="M269.21 232.85L269.69 232.85L269.69 232.85L269.69 306.17L269.69 306.17L269.21 306.17z" stroke="none" fill="#000000" fill-rule="evenodd" /><path transform="matrix(1 0 0 -1 0 841)" d="M269.21 232.37L269.69 232.37L269.69 232.37L269.69 232.85L269.69 232.85L269.21 232.85z" stroke="none" fill="#000000" fill-rule="evenodd" /><path transform="matrix(1 0 0 -1 0 841)" d="M269.69 232.37L357.074 232.37L357.074 232.37L357.074 232.85L357.074 232.85L269.69 232.85z" stroke="none" fill="#000000" fill-rule="evenodd" /><path transform="matrix(1 0 0 -1 0 841)" d="M357.07 232.85L357.55 232.85L357.55 232.85L357.55 306.17L357.55 306.17L357.07 306.17z" stroke="none" fill="#000000" fill-rule="evenodd" /><path transform="matrix(1 0 0 -1 0 841)" d="M357.07 232.37L357.55 232.37L357.55 232.37L357.55 232.85L357.55 232.85L357.07 232.85z" stroke="none" fill="#000000" fill-rule="evenodd" /><path transform="matrix(1 0 0 -1 0 841)" d="M357.55 232.37L510.69 232.37L510.69 232.37L510.69 232.85L510.69 232.85L357.55 232.85z" stroke="none" fill="#000000" fill-rule="evenodd" /><path transform="matrix(1 0 0 -1 0 841)" d="M510.7 232.85L511.18 232.85L511.18 232.85L511.18 306.17L511.18 306.17L510.7 306.17z" stroke="none" fill="#000000" fill-rule="evenodd" /><path transform="matrix(1 0 0 -1 0 841)" d="M510.7 232.37L511.18 232.37L511.18 232.37L511.18 232.85L511.18 232.85L510.7 232.85z" stroke="none" fill="#000000" fill-rule="evenodd" /><path transform="matrix(1 0 0 -1 0 841)" d="M510.7 232.37L511.18 232.37L511.18 232.37L511.18 232.85L511.18 232.85L510.7 232.85z" stroke="none" fill="#000000" fill-rule="evenodd" /><path transform="matrix(1 0 0 -1 0 841)" d="M84.744 111.38L146.184 111.38L146.184 111.38L146.184 130.46L146.184 130.46L84.744 130.46z" stroke="none" fill="#0070C0" fill-rule="evenodd" /><g clip-path="url(#180)"><path transform="matrix(1 0 0 -1 0 841)" d="M89.904 111.38L141.024 111.38L141.024 111.38L141.024 130.46L141.024 130.46L89.904 130.46z" stroke="none" fill="#0070C0" fill-rule="evenodd" /><g clip-path="url(#181)"></g><g clip-path="url(#182)"></g></g><path transform="matrix(1 0 0 -1 0 841)" d="M146.66 111.38L202.844 111.38L202.844 111.38L202.844 130.46L202.844 130.46L146.66 130.46z" stroke="none" fill="#0070C0" fill-rule="evenodd" /><g clip-path="url(#183)"><path transform="matrix(1 0 0 -1 0 841)" d="M151.82 111.38L197.66 111.38L197.66 111.38L197.66 130.46L197.66 130.46L151.82 130.46z" stroke="none" fill="#0070C0" fill-rule="evenodd" /><g clip-path="url(#184)"></g><g clip-path="url(#185)"></g></g><path transform="matrix(1 0 0 -1 0 841)" d="M203.45 111.38L252.65 111.38L252.65 111.38L252.65 130.46L252.65 130.46L203.45 130.46z" stroke="none" fill="#0070C0" fill-rule="evenodd" /><g clip-path="url(#186)"><path transform="matrix(1 0 0 -1 0 841)" d="M208.61 111.38L247.61 111.38L247.61 111.38L247.61 130.46L247.61 130.46L208.61 130.46z" stroke="none" fill="#0070C0" fill-rule="evenodd" /><g clip-path="url(#187)"></g><g clip-path="url(#188)"></g></g><path transform="matrix(1 0 0 -1 0 841)" d="M253.25 111.38L311.45 111.38L311.45 111.38L311.45 130.46L311.45 130.46L253.25 130.46z" stroke="none" fill="#0070C0" fill-rule="evenodd" /><g clip-path="url(#189)"><path transform="matrix(1 0 0 -1 0 841)" d="M258.41 111.38L306.29 111.38L306.29 111.38L306.29 130.46L306.29 130.46L258.41 130.46z" stroke="none" fill="#0070C0" fill-rule="evenodd" /><g clip-path="url(#190)"></g><g clip-path="url(#191)"></g></g><path transform="matrix(1 0 0 -1 0 841)" d="M311.93 111.38L510.7 111.38L510.7 111.38L510.7 130.46L510.7 130.46L311.93 130.46z" stroke="none" fill="#0070C0" fill-rule="evenodd" /><g clip-path="url(#192)"><path transform="matrix(1 0 0 -1 0 841)" d="M317.09 111.38L505.54 111.38L505.54 111.38L505.54 130.46L505.54 130.46L317.09 130.46z" stroke="none" fill="#0070C0" fill-rule="evenodd" /><g clip-path="url(#193)"></g><g clip-path="url(#194)"></g></g><path transform="matrix(1 0 0 -1 0 841)" d="M84.264 130.46L84.744 130.46L84.744 130.46L84.744 130.94L84.744 130.94L84.264 130.94z" stroke="none" fill="#000000" fill-rule="evenodd" /><path transform="matrix(1 0 0 -1 0 841)" d="M84.264 130.46L84.744 130.46L84.744 130.46L84.744 130.94L84.744 130.94L84.264 130.94z" stroke="none" fill="#000000" fill-rule="evenodd" /><path transform="matrix(1 0 0 -1 0 841)" d="M84.744 130.46L146.184 130.46L146.184 130.46L146.184 130.94L146.184 130.94L84.744 130.94z" stroke="none" fill="#000000" fill-rule="evenodd" /><path transform="matrix(1 0 0 -1 0 841)" d="M146.18 130.46L146.66 130.46L146.66 130.46L146.66 130.94L146.66 130.94L146.18 130.94z" stroke="none" fill="#000000" fill-rule="evenodd" /><path transform="matrix(1 0 0 -1 0 841)" d="M146.66 130.46L202.964 130.46L202.964 130.46L202.964 130.94L202.964 130.94L146.66 130.94z" stroke="none" fill="#000000" fill-rule="evenodd" /><path transform="matrix(1 0 0 -1 0 841)" d="M202.97 130.46L203.45 130.46L203.45 130.46L203.45 130.94L203.45 130.94L202.97 130.94z" stroke="none" fill="#000000" fill-rule="evenodd" /><path transform="matrix(1 0 0 -1 0 841)" d="M203.45 130.46L252.77 130.46L252.77 130.46L252.77 130.94L252.77 130.94L203.45 130.94z" stroke="none" fill="#000000" fill-rule="evenodd" /><path transform="matrix(1 0 0 -1 0 841)" d="M252.77 130.46L253.25 130.46L253.25 130.46L253.25 130.94L253.25 130.94L252.77 130.94z" stroke="none" fill="#000000" fill-rule="evenodd" /><path transform="matrix(1 0 0 -1 0 841)" d="M253.25 130.46L311.45 130.46L311.45 130.46L311.45 130.94L311.45 130.94L253.25 130.94z" stroke="none" fill="#000000" fill-rule="evenodd" /><path transform="matrix(1 0 0 -1 0 841)" d="M311.45 130.46L311.93 130.46L311.93 130.46L311.93 130.94L311.93 130.94L311.45 130.94z" stroke="none" fill="#000000" fill-rule="evenodd" /><path transform="matrix(1 0 0 -1 0 841)" d="M311.93 130.46L510.7 130.46L510.7 130.46L510.7 130.94L510.7 130.94L311.93 130.94z" stroke="none" fill="#000000" fill-rule="evenodd" /><path transform="matrix(1 0 0 -1 0 841)" d="M510.7 130.46L511.18 130.46L511.18 130.46L511.18 130.94L511.18 130.94L510.7 130.94z" stroke="none" fill="#000000" fill-rule="evenodd" /><path transform="matrix(1 0 0 -1 0 841)" d="M510.7 130.46L511.18 130.46L511.18 130.46L511.18 130.94L511.18 130.94L510.7 130.94z" stroke="none" fill="#000000" fill-rule="evenodd" /><path transform="matrix(1 0 0 -1 0 841)" d="M84.264 111.38L84.744 111.38L84.744 111.38L84.744 130.46L84.744 130.46L84.264 130.46z" stroke="none" fill="#000000" fill-rule="evenodd" /><path transform="matrix(1 0 0 -1 0 841)" d="M84.264 110.9L84.744 110.9L84.744 110.9L84.744 111.38L84.744 111.38L84.264 111.38z" stroke="none" fill="#000000" fill-rule="evenodd" /><path transform="matrix(1 0 0 -1 0 841)" d="M84.264 110.9L84.744 110.9L84.744 110.9L84.744 111.38L84.744 111.38L84.264 111.38z" stroke="none" fill="#000000" fill-rule="evenodd" /><path transform="matrix(1 0 0 -1 0 841)" d="M84.744 110.9L146.184 110.9L146.184 110.9L146.184 111.38L146.184 111.38L84.744 111.38z" stroke="none" fill="#000000" fill-rule="evenodd" /><path transform="matrix(1 0 0 -1 0 841)" d="M146.18 111.38L146.66 111.38L146.66 111.38L146.66 130.46L146.66 130.46L146.18 130.46z" stroke="none" fill="#000000" fill-rule="evenodd" /><path transform="matrix(1 0 0 -1 0 841)" d="M146.18 110.9L146.66 110.9L146.66 110.9L146.66 111.38L146.66 111.38L146.18 111.38z" stroke="none" fill="#000000" fill-rule="evenodd" /><path transform="matrix(1 0 0 -1 0 841)" d="M146.66 110.9L202.964 110.9L202.964 110.9L202.964 111.38L202.964 111.38L146.66 111.38z" stroke="none" fill="#000000" fill-rule="evenodd" /><path transform="matrix(1 0 0 -1 0 841)" d="M202.97 111.38L203.45 111.38L203.45 111.38L203.45 130.46L203.45 130.46L202.97 130.46z" stroke="none" fill="#000000" fill-rule="evenodd" /><path transform="matrix(1 0 0 -1 0 841)" d="M202.97 110.9L203.45 110.9L203.45 110.9L203.45 111.38L203.45 111.38L202.97 111.38z" stroke="none" fill="#000000" fill-rule="evenodd" /><path transform="matrix(1 0 0 -1 0 841)" d="M203.45 110.9L252.77 110.9L252.77 110.9L252.77 111.38L252.77 111.38L203.45 111.38z" stroke="none" fill="#000000" fill-rule="evenodd" /><path transform="matrix(1 0 0 -1 0 841)" d="M252.77 111.38L253.25 111.38L253.25 111.38L253.25 130.46L253.25 130.46L252.77 130.46z" stroke="none" fill="#000000" fill-rule="evenodd" /><path transform="matrix(1 0 0 -1 0 841)" d="M252.77 110.9L253.25 110.9L253.25 110.9L253.25 111.38L253.25 111.38L252.77 111.38z" stroke="none" fill="#000000" fill-rule="evenodd" /><path transform="matrix(1 0 0 -1 0 841)" d="M253.25 110.9L311.45 110.9L311.45 110.9L311.45 111.38L311.45 111.38L253.25 111.38z" stroke="none" fill="#000000" fill-rule="evenodd" /><path transform="matrix(1 0 0 -1 0 841)" d="M311.45 111.38L311.93 111.38L311.93 111.38L311.93 130.46L311.93 130.46L311.45 130.46z" stroke="none" fill="#000000" fill-rule="evenodd" /><path transform="matrix(1 0 0 -1 0 841)" d="M311.45 110.9L311.93 110.9L311.93 110.9L311.93 111.38L311.93 111.38L311.45 111.38z" stroke="none" fill="#000000" fill-rule="evenodd" /><path transform="matrix(1 0 0 -1 0 841)" d="M311.93 110.9L510.7 110.9L510.7 110.9L510.7 111.38L510.7 111.38L311.93 111.38z" stroke="none" fill="#000000" fill-rule="evenodd" /><path transform="matrix(1 0 0 -1 0 841)" d="M510.7 111.38L511.18 111.38L511.18 111.38L511.18 130.46L511.18 130.46L510.7 130.46z" stroke="none" fill="#000000" fill-rule="evenodd" /><path transform="matrix(1 0 0 -1 0 841)" d="M510.7 110.9L511.18 110.9L511.18 110.9L511.18 111.38L511.18 111.38L510.7 111.38z" stroke="none" fill="#000000" fill-rule="evenodd" /><path transform="matrix(1 0 0 -1 0 841)" d="M510.7 110.9L511.18 110.9L511.18 110.9L511.18 111.38L511.18 111.38L510.7 111.38z" stroke="none" fill="#000000" fill-rule="evenodd" /></g></g></g></svg>