<svg xmlns="http://www.w3.org/2000/svg" xmlns:xlink="http://www.w3.org/1999/xlink" id="body_53" preserveAspectRatio="xMinYMin meet" viewBox="0 0 793 1121"><defs><clipPath id="1"><path d="M0 841L0 -0.9199829L0 -0.9199829L595.32 -0.9199829L595.32 -0.9199829L595.32 841L595.32 841L0 841z" /></clipPath><clipPath id="2"><path d="M0.00125 841.0914L595.4112 841.0914L595.4112 841.0914L595.4112 -0.9186401L595.4112 -0.9186401L0.00125 -0.9186401z" /></clipPath><clipPath id="3"><path d="M295.13 780.251L305.21 780.251L305.21 780.251L305.21 768.011L305.21 768.011L295.13 768.011z" /></clipPath><clipPath id="4"><path d="M295.13 780.256L305.21 780.256L305.21 780.256L305.21 768.016L305.21 768.016L295.13 768.016z" /></clipPath><clipPath id="5"><path d="M295.13 780.256L305.21 780.256L305.21 780.256L305.21 768.016L305.21 768.016L295.13 768.016z" /></clipPath><clipPath id="6"><path d="M84.751 117.07L162.031 117.07L162.031 117.07L162.031 89.44L162.031 89.44L84.751 89.44z" /></clipPath><clipPath id="7"><path d="M84.744 117.06L162.024 117.06L162.024 117.06L162.024 89.43597L162.024 89.43597L84.744 89.43597z" /></clipPath><clipPath id="8"><path d="M84.744 117.06L162.024 117.06L162.024 117.06L162.024 89.43597L162.024 89.43597L84.744 89.43597z" /></clipPath><clipPath id="9"><path d="M162.51 117.07L222.885 117.07L222.885 117.07L222.885 89.44L222.885 89.44L162.51 89.44z" /></clipPath><clipPath id="10"><path d="M162.5 117.06L222.884 117.06L222.884 117.06L222.884 89.43597L222.884 89.43597L162.5 89.43597z" /></clipPath><clipPath id="11"><path d="M162.5 117.06L222.884 117.06L222.884 117.06L222.884 89.43597L222.884 89.43597L162.5 89.43597z" /></clipPath><clipPath id="12"><path d="M223.37 117.07L268.25 117.07L268.25 117.07L268.25 89.44L268.25 89.44L223.37 89.44z" /></clipPath><clipPath id="13"><path d="M223.37 117.06L268.25 117.06L268.25 117.06L268.25 89.43597L268.25 89.43597L223.37 89.43597z" /></clipPath><clipPath id="14"><path d="M223.37 117.06L268.25 117.06L268.25 117.06L268.25 89.43597L268.25 89.43597L223.37 89.43597z" /></clipPath><clipPath id="15"><path d="M268.85 117.07L374.6 117.07L374.6 117.07L374.6 89.44L374.6 89.44L268.85 89.44z" /></clipPath><clipPath id="16"><path d="M268.85 117.06L374.59 117.06L374.59 117.06L374.59 89.43597L374.59 89.43597L268.85 89.43597z" /></clipPath><clipPath id="17"><path d="M268.85 117.06L374.59 117.06L374.59 117.06L374.59 89.43597L374.59 89.43597L268.85 89.43597z" /></clipPath><clipPath id="18"><path d="M375.08 117.07L530.62 117.07L530.62 117.07L530.62 89.44L530.62 89.44L375.08 89.44z" /></clipPath><clipPath id="19"><path d="M375.07 117.06L530.61 117.06L530.61 117.06L530.61 89.43597L530.61 89.43597L375.07 89.43597z" /></clipPath><clipPath id="20"><path d="M375.07 117.06L530.61 117.06L530.61 117.06L530.61 89.43597L530.61 89.43597L375.07 89.43597z" /></clipPath><clipPath id="21"><path d="M84.751 145.27L162.031 145.27L162.031 145.27L162.031 117.67L162.031 117.67L84.751 117.67z" /></clipPath><clipPath id="22"><path d="M84.744 145.26L162.024 145.26L162.024 145.26L162.024 117.66L162.024 117.66L84.744 117.66z" /></clipPath><clipPath id="23"><path d="M84.744 145.26L162.024 145.26L162.024 145.26L162.024 117.66L162.024 117.66L84.744 117.66z" /></clipPath><clipPath id="24"><path d="M162.51 145.27L222.885 145.27L222.885 145.27L222.885 117.67L222.885 117.67L162.51 117.67z" /></clipPath><clipPath id="25"><path d="M162.5 145.26L222.884 145.26L222.884 145.26L222.884 117.66L222.884 117.66L162.5 117.66z" /></clipPath><clipPath id="26"><path d="M162.5 145.26L222.884 145.26L222.884 145.26L222.884 117.66L222.884 117.66L162.5 117.66z" /></clipPath><clipPath id="27"><path d="M223.37 145.27L268.25 145.27L268.25 145.27L268.25 117.67L268.25 117.67L223.37 117.67z" /></clipPath><clipPath id="28"><path d="M223.37 145.26L268.25 145.26L268.25 145.26L268.25 117.66L268.25 117.66L223.37 117.66z" /></clipPath><clipPath id="29"><path d="M223.37 145.26L268.25 145.26L268.25 145.26L268.25 117.66L268.25 117.66L223.37 117.66z" /></clipPath><clipPath id="30"><path d="M268.85 145.27L374.6 145.27L374.6 145.27L374.6 117.67L374.6 117.67L268.85 117.67z" /></clipPath><clipPath id="31"><path d="M268.85 145.26L374.59 145.26L374.59 145.26L374.59 117.66L374.59 117.66L268.85 117.66z" /></clipPath><clipPath id="32"><path d="M268.85 145.26L374.59 145.26L374.59 145.26L374.59 117.66L374.59 117.66L268.85 117.66z" /></clipPath><clipPath id="33"><path d="M375.08 145.27L530.62 145.27L530.62 145.27L530.62 117.67L530.62 117.67L375.08 117.67z" /></clipPath><clipPath id="34"><path d="M375.07 145.26L530.61 145.26L530.61 145.26L530.61 117.66L530.61 117.66L375.07 117.66z" /></clipPath><clipPath id="35"><path d="M375.07 145.26L530.61 145.26L530.61 145.26L530.61 117.66L530.61 117.66L375.07 117.66z" /></clipPath><clipPath id="36"><path d="M375.07 145.26L530.61 145.26L530.61 145.26L530.61 117.66L530.61 117.66L375.07 117.66z" /></clipPath><clipPath id="37"><path d="M84.751 304.17L162.031 304.17L162.031 304.17L162.031 145.75L162.031 145.75L84.751 145.75z" /></clipPath><clipPath id="38"><path d="M84.744 304.17L162.024 304.17L162.024 304.17L162.024 145.75L162.024 145.75L84.744 145.75z" /></clipPath><clipPath id="39"><path d="M84.744 304.17L162.024 304.17L162.024 304.17L162.024 145.75L162.024 145.75L84.744 145.75z" /></clipPath><clipPath id="40"><path d="M84.744 304.17L162.024 304.17L162.024 304.17L162.024 145.75L162.024 145.75L84.744 145.75z" /></clipPath><clipPath id="41"><path d="M162.51 304.17L222.885 304.17L222.885 304.17L222.885 145.75L222.885 145.75L162.51 145.75z" /></clipPath><clipPath id="42"><path d="M162.5 304.17L222.884 304.17L222.884 304.17L222.884 145.75L222.884 145.75L162.5 145.75z" /></clipPath><clipPath id="43"><path d="M162.5 304.17L222.884 304.17L222.884 304.17L222.884 145.75L222.884 145.75L162.5 145.75z" /></clipPath><clipPath id="44"><path d="M223.37 304.17L268.25 304.17L268.25 304.17L268.25 145.75L268.25 145.75L223.37 145.75z" /></clipPath><clipPath id="45"><path d="M223.37 304.17L268.25 304.17L268.25 304.17L268.25 145.75L268.25 145.75L223.37 145.75z" /></clipPath><clipPath id="46"><path d="M223.37 304.17L268.25 304.17L268.25 304.17L268.25 145.75L268.25 145.75L223.37 145.75z" /></clipPath><clipPath id="47"><path d="M268.85 304.17L374.6 304.17L374.6 304.17L374.6 145.75L374.6 145.75L268.85 145.75z" /></clipPath><clipPath id="48"><path d="M268.85 304.17L374.59 304.17L374.59 304.17L374.59 145.75L374.59 145.75L268.85 145.75z" /></clipPath><clipPath id="49"><path d="M268.85 304.17L374.59 304.17L374.59 304.17L374.59 145.75L374.59 145.75L268.85 145.75z" /></clipPath><clipPath id="50"><path d="M268.85 304.17L374.59 304.17L374.59 304.17L374.59 145.75L374.59 145.75L268.85 145.75z" /></clipPath><clipPath id="51"><path d="M268.85 304.17L374.59 304.17L374.59 304.17L374.59 145.75L374.59 145.75L268.85 145.75z" /></clipPath><clipPath id="52"><path d="M375.08 304.17L530.62 304.17L530.62 304.17L530.62 145.75L530.62 145.75L375.08 145.75z" /></clipPath><clipPath id="53"><path d="M375.07 304.17L530.61 304.17L530.61 304.17L530.61 145.75L530.61 145.75L375.07 145.75z" /></clipPath><clipPath id="54"><path d="M375.07 304.17L530.61 304.17L530.61 304.17L530.61 145.75L530.61 145.75L375.07 145.75z" /></clipPath><clipPath id="55"><path d="M375.07 304.17L530.61 304.17L530.61 304.17L530.61 145.75L530.61 145.75L375.07 145.75z" /></clipPath><clipPath id="56"><path d="M375.07 304.17L530.61 304.17L530.61 304.17L530.61 145.75L530.61 145.75L375.07 145.75z" /></clipPath><clipPath id="57"><path d="M375.07 304.17L530.61 304.17L530.61 304.17L530.61 145.75L530.61 145.75L375.07 145.75z" /></clipPath><clipPath id="58"><path d="M375.07 304.17L530.61 304.17L530.61 304.17L530.61 145.75L530.61 145.75L375.07 145.75z" /></clipPath><clipPath id="59"><path d="M375.07 304.17L530.61 304.17L530.61 304.17L530.61 145.75L530.61 145.75L375.07 145.75z" /></clipPath><clipPath id="60"><path d="M375.07 304.17L530.61 304.17L530.61 304.17L530.61 145.75L530.61 145.75L375.07 145.75z" /></clipPath><clipPath id="61"><path d="M375.07 304.17L530.61 304.17L530.61 304.17L530.61 145.75L530.61 145.75L375.07 145.75z" /></clipPath><clipPath id="62"><path d="M375.07 304.17L530.61 304.17L530.61 304.17L530.61 145.75L530.61 145.75L375.07 145.75z" /></clipPath><clipPath id="63"><path d="M375.07 304.17L530.61 304.17L530.61 304.17L530.61 145.75L530.61 145.75L375.07 145.75z" /></clipPath><clipPath id="64"><path d="M375.07 304.17L530.61 304.17L530.61 304.17L530.61 145.75L530.61 145.75L375.07 145.75z" /></clipPath><clipPath id="65"><path d="M375.07 304.17L530.61 304.17L530.61 304.17L530.61 145.75L530.61 145.75L375.07 145.75z" /></clipPath><clipPath id="66"><path d="M375.07 304.17L530.61 304.17L530.61 304.17L530.61 145.75L530.61 145.75L375.07 145.75z" /></clipPath><clipPath id="67"><path d="M84.751 365.49L162.031 365.49L162.031 365.49L162.031 304.77L162.031 304.77L84.751 304.77z" /></clipPath><clipPath id="68"><path d="M84.744 365.49L162.024 365.49L162.024 365.49L162.024 304.77L162.024 304.77L84.744 304.77z" /></clipPath><clipPath id="69"><path d="M84.744 365.49L162.024 365.49L162.024 365.49L162.024 304.77L162.024 304.77L84.744 304.77z" /></clipPath><clipPath id="70"><path d="M84.744 365.49L162.024 365.49L162.024 365.49L162.024 304.77L162.024 304.77L84.744 304.77z" /></clipPath><clipPath id="71"><path d="M162.51 365.49L222.885 365.49L222.885 365.49L222.885 304.77L222.885 304.77L162.51 304.77z" /></clipPath><clipPath id="72"><path d="M162.5 365.49L222.884 365.49L222.884 365.49L222.884 304.77L222.884 304.77L162.5 304.77z" /></clipPath><clipPath id="73"><path d="M162.5 365.49L222.884 365.49L222.884 365.49L222.884 304.77L222.884 304.77L162.5 304.77z" /></clipPath><clipPath id="74"><path d="M223.37 365.49L268.25 365.49L268.25 365.49L268.25 304.77L268.25 304.77L223.37 304.77z" /></clipPath><clipPath id="75"><path d="M223.37 365.49L268.25 365.49L268.25 365.49L268.25 304.77L268.25 304.77L223.37 304.77z" /></clipPath><clipPath id="76"><path d="M223.37 365.49L268.25 365.49L268.25 365.49L268.25 304.77L268.25 304.77L223.37 304.77z" /></clipPath><clipPath id="77"><path d="M268.85 365.49L374.6 365.49L374.6 365.49L374.6 304.77L374.6 304.77L268.85 304.77z" /></clipPath><clipPath id="78"><path d="M268.85 365.49L374.59 365.49L374.59 365.49L374.59 304.77L374.59 304.77L268.85 304.77z" /></clipPath><clipPath id="79"><path d="M268.85 365.49L374.59 365.49L374.59 365.49L374.59 304.77L374.59 304.77L268.85 304.77z" /></clipPath><clipPath id="80"><path d="M268.85 365.49L374.59 365.49L374.59 365.49L374.59 304.77L374.59 304.77L268.85 304.77z" /></clipPath><clipPath id="81"><path d="M268.85 365.49L374.59 365.49L374.59 365.49L374.59 304.77L374.59 304.77L268.85 304.77z" /></clipPath><clipPath id="82"><path d="M375.08 365.49L530.62 365.49L530.62 365.49L530.62 304.77L530.62 304.77L375.08 304.77z" /></clipPath><clipPath id="83"><path d="M375.07 365.49L530.61 365.49L530.61 365.49L530.61 304.77L530.61 304.77L375.07 304.77z" /></clipPath><clipPath id="84"><path d="M375.07 365.49L530.61 365.49L530.61 365.49L530.61 304.77L530.61 304.77L375.07 304.77z" /></clipPath><clipPath id="85"><path d="M84.751 411.81L162.031 411.81L162.031 411.81L162.031 365.97L162.031 365.97L84.751 365.97z" /></clipPath><clipPath id="86"><path d="M84.744 411.81L162.024 411.81L162.024 411.81L162.024 365.97L162.024 365.97L84.744 365.97z" /></clipPath><clipPath id="87"><path d="M84.744 411.81L162.024 411.81L162.024 411.81L162.024 365.97L162.024 365.97L84.744 365.97z" /></clipPath><clipPath id="88"><path d="M84.744 411.81L162.024 411.81L162.024 411.81L162.024 365.97L162.024 365.97L84.744 365.97z" /></clipPath><clipPath id="89"><path d="M162.51 411.81L222.885 411.81L222.885 411.81L222.885 365.97L222.885 365.97L162.51 365.97z" /></clipPath><clipPath id="90"><path d="M162.5 411.81L222.884 411.81L222.884 411.81L222.884 365.97L222.884 365.97L162.5 365.97z" /></clipPath><clipPath id="91"><path d="M162.5 411.81L222.884 411.81L222.884 411.81L222.884 365.97L222.884 365.97L162.5 365.97z" /></clipPath><clipPath id="92"><path d="M223.37 411.81L268.25 411.81L268.25 411.81L268.25 365.97L268.25 365.97L223.37 365.97z" /></clipPath><clipPath id="93"><path d="M223.37 411.81L268.25 411.81L268.25 411.81L268.25 365.97L268.25 365.97L223.37 365.97z" /></clipPath><clipPath id="94"><path d="M223.37 411.81L268.25 411.81L268.25 411.81L268.25 365.97L268.25 365.97L223.37 365.97z" /></clipPath><clipPath id="95"><path d="M268.85 411.81L374.6 411.81L374.6 411.81L374.6 365.97L374.6 365.97L268.85 365.97z" /></clipPath><clipPath id="96"><path d="M268.85 411.81L374.59 411.81L374.59 411.81L374.59 365.97L374.59 365.97L268.85 365.97z" /></clipPath><clipPath id="97"><path d="M268.85 411.81L374.59 411.81L374.59 411.81L374.59 365.97L374.59 365.97L268.85 365.97z" /></clipPath><clipPath id="98"><path d="M375.08 411.81L530.62 411.81L530.62 411.81L530.62 365.97L530.62 365.97L375.08 365.97z" /></clipPath><clipPath id="99"><path d="M375.07 411.81L530.61 411.81L530.61 411.81L530.61 365.97L530.61 365.97L375.07 365.97z" /></clipPath><clipPath id="100"><path d="M375.07 411.81L530.61 411.81L530.61 411.81L530.61 365.97L530.61 365.97L375.07 365.97z" /></clipPath><clipPath id="101"><path d="M375.07 411.81L530.61 411.81L530.61 411.81L530.61 365.97L530.61 365.97L375.07 365.97z" /></clipPath><clipPath id="102"><path d="M375.07 411.81L530.61 411.81L530.61 411.81L530.61 365.97L530.61 365.97L375.07 365.97z" /></clipPath><clipPath id="103"><path d="M375.07 411.81L530.61 411.81L530.61 411.81L530.61 365.97L530.61 365.97L375.07 365.97z" /></clipPath><clipPath id="104"><path d="M84.751 440.01L162.031 440.01L162.031 440.01L162.031 412.29L162.031 412.29L84.751 412.29z" /></clipPath><clipPath id="105"><path d="M84.744 440.01L162.024 440.01L162.024 440.01L162.024 412.29L162.024 412.29L84.744 412.29z" /></clipPath><clipPath id="106"><path d="M84.744 440.01L162.024 440.01L162.024 440.01L162.024 412.29L162.024 412.29L84.744 412.29z" /></clipPath><clipPath id="107"><path d="M162.51 440.01L222.885 440.01L222.885 440.01L222.885 412.29L222.885 412.29L162.51 412.29z" /></clipPath><clipPath id="108"><path d="M162.5 440.01L222.884 440.01L222.884 440.01L222.884 412.29L222.884 412.29L162.5 412.29z" /></clipPath><clipPath id="109"><path d="M162.5 440.01L222.884 440.01L222.884 440.01L222.884 412.29L222.884 412.29L162.5 412.29z" /></clipPath><clipPath id="110"><path d="M223.37 440.01L268.25 440.01L268.25 440.01L268.25 412.29L268.25 412.29L223.37 412.29z" /></clipPath><clipPath id="111"><path d="M223.37 440.01L268.25 440.01L268.25 440.01L268.25 412.29L268.25 412.29L223.37 412.29z" /></clipPath><clipPath id="112"><path d="M223.37 440.01L268.25 440.01L268.25 440.01L268.25 412.29L268.25 412.29L223.37 412.29z" /></clipPath><clipPath id="113"><path d="M268.85 440.01L374.6 440.01L374.6 440.01L374.6 412.29L374.6 412.29L268.85 412.29z" /></clipPath><clipPath id="114"><path d="M268.85 440.01L374.59 440.01L374.59 440.01L374.59 412.29L374.59 412.29L268.85 412.29z" /></clipPath><clipPath id="115"><path d="M268.85 440.01L374.59 440.01L374.59 440.01L374.59 412.29L374.59 412.29L268.85 412.29z" /></clipPath><clipPath id="116"><path d="M375.08 440.01L530.62 440.01L530.62 440.01L530.62 412.29L530.62 412.29L375.08 412.29z" /></clipPath><clipPath id="117"><path d="M375.07 440.01L530.61 440.01L530.61 440.01L530.61 412.29L530.61 412.29L375.07 412.29z" /></clipPath><clipPath id="118"><path d="M375.07 440.01L530.61 440.01L530.61 440.01L530.61 412.29L530.61 412.29L375.07 412.29z" /></clipPath><clipPath id="119"><path d="M84.751 468.09L162.031 468.09L162.031 468.09L162.031 440.49L162.031 440.49L84.751 440.49z" /></clipPath><clipPath id="120"><path d="M84.744 468.09L162.024 468.09L162.024 468.09L162.024 440.49L162.024 440.49L84.744 440.49z" /></clipPath><clipPath id="121"><path d="M84.744 468.09L162.024 468.09L162.024 468.09L162.024 440.49L162.024 440.49L84.744 440.49z" /></clipPath><clipPath id="122"><path d="M162.51 468.09L222.885 468.09L222.885 468.09L222.885 440.49L222.885 440.49L162.51 440.49z" /></clipPath><clipPath id="123"><path d="M162.5 468.09L222.884 468.09L222.884 468.09L222.884 440.49L222.884 440.49L162.5 440.49z" /></clipPath><clipPath id="124"><path d="M162.5 468.09L222.884 468.09L222.884 468.09L222.884 440.49L222.884 440.49L162.5 440.49z" /></clipPath><clipPath id="125"><path d="M223.37 468.09L268.25 468.09L268.25 468.09L268.25 440.49L268.25 440.49L223.37 440.49z" /></clipPath><clipPath id="126"><path d="M223.37 468.09L268.25 468.09L268.25 468.09L268.25 440.49L268.25 440.49L223.37 440.49z" /></clipPath><clipPath id="127"><path d="M223.37 468.09L268.25 468.09L268.25 468.09L268.25 440.49L268.25 440.49L223.37 440.49z" /></clipPath><clipPath id="128"><path d="M268.85 468.09L374.6 468.09L374.6 468.09L374.6 440.49L374.6 440.49L268.85 440.49z" /></clipPath><clipPath id="129"><path d="M268.85 468.09L374.59 468.09L374.59 468.09L374.59 440.49L374.59 440.49L268.85 440.49z" /></clipPath><clipPath id="130"><path d="M268.85 468.09L374.59 468.09L374.59 468.09L374.59 440.49L374.59 440.49L268.85 440.49z" /></clipPath><clipPath id="131"><path d="M375.08 468.09L530.62 468.09L530.62 468.09L530.62 440.49L530.62 440.49L375.08 440.49z" /></clipPath><clipPath id="132"><path d="M375.07 468.09L530.61 468.09L530.61 468.09L530.61 440.49L530.61 440.49L375.07 440.49z" /></clipPath><clipPath id="133"><path d="M375.07 468.09L530.61 468.09L530.61 468.09L530.61 440.49L530.61 440.49L375.07 440.49z" /></clipPath><clipPath id="134"><path d="M84.751 545.52L291.771 545.52L291.771 545.52L291.771 526.44L291.771 526.44L84.751 526.44z" /></clipPath><clipPath id="135"><path d="M84.744 545.51L291.764 545.51L291.764 545.51L291.764 526.4301L291.764 526.4301L84.744 526.4301z" /></clipPath><clipPath id="136"><path d="M84.744 545.51L291.764 545.51L291.764 545.51L291.764 526.4301L291.764 526.4301L84.744 526.4301z" /></clipPath><clipPath id="137"><path d="M292.25 545.52L499.42 545.52L499.42 545.52L499.42 526.44L499.42 526.44L292.25 526.44z" /></clipPath><clipPath id="138"><path d="M292.25 545.51L499.42 545.51L499.42 545.51L499.42 526.4301L499.42 526.4301L292.25 526.4301z" /></clipPath><clipPath id="139"><path d="M292.25 545.51L499.42 545.51L499.42 545.51L499.42 526.4301L499.42 526.4301L292.25 526.4301z" /></clipPath><clipPath id="140"><path d="M84.751 565.08L291.771 565.08L291.771 565.08L291.771 546L291.771 546L84.751 546z" /></clipPath><clipPath id="141"><path d="M84.744 565.07L291.764 565.07L291.764 565.07L291.764 545.99L291.764 545.99L84.744 545.99z" /></clipPath><clipPath id="142"><path d="M84.744 565.07L291.764 565.07L291.764 565.07L291.764 545.99L291.764 545.99L84.744 545.99z" /></clipPath><clipPath id="143"><path d="M292.25 565.08L499.42 565.08L499.42 565.08L499.42 546L499.42 546L292.25 546z" /></clipPath><clipPath id="144"><path d="M292.25 565.07L499.42 565.07L499.42 565.07L499.42 545.99L499.42 545.99L292.25 545.99z" /></clipPath><clipPath id="145"><path d="M292.25 565.07L499.42 565.07L499.42 565.07L499.42 545.99L499.42 545.99L292.25 545.99z" /></clipPath><clipPath id="146"><path d="M84.751 584.64L291.771 584.64L291.771 584.64L291.771 565.5601L291.771 565.5601L84.751 565.5601z" /></clipPath><clipPath id="147"><path d="M84.744 584.63L291.764 584.63L291.764 584.63L291.764 565.55L291.764 565.55L84.744 565.55z" /></clipPath><clipPath id="148"><path d="M84.744 584.63L291.764 584.63L291.764 584.63L291.764 565.55L291.764 565.55L84.744 565.55z" /></clipPath><clipPath id="149"><path d="M292.25 584.64L499.42 584.64L499.42 584.64L499.42 565.5601L499.42 565.5601L292.25 565.5601z" /></clipPath><clipPath id="150"><path d="M292.25 584.63L499.42 584.63L499.42 584.63L499.42 565.55L499.42 565.55L292.25 565.55z" /></clipPath><clipPath id="151"><path d="M292.25 584.63L499.42 584.63L499.42 584.63L499.42 565.55L499.42 565.55L292.25 565.55z" /></clipPath><clipPath id="152"><path d="M84.751 604.2L291.771 604.2L291.771 604.2L291.771 585.12L291.771 585.12L84.751 585.12z" /></clipPath><clipPath id="153"><path d="M84.744 604.19L291.764 604.19L291.764 604.19L291.764 585.11L291.764 585.11L84.744 585.11z" /></clipPath><clipPath id="154"><path d="M84.744 604.19L291.764 604.19L291.764 604.19L291.764 585.11L291.764 585.11L84.744 585.11z" /></clipPath><clipPath id="155"><path d="M292.25 604.2L499.42 604.2L499.42 604.2L499.42 585.12L499.42 585.12L292.25 585.12z" /></clipPath><clipPath id="156"><path d="M292.25 604.19L499.42 604.19L499.42 604.19L499.42 585.11L499.42 585.11L292.25 585.11z" /></clipPath><clipPath id="157"><path d="M292.25 604.19L499.42 604.19L499.42 604.19L499.42 585.11L499.42 585.11L292.25 585.11z" /></clipPath><clipPath id="158"><path d="M84.751 623.64L291.771 623.64L291.771 623.64L291.771 604.68L291.771 604.68L84.751 604.68z" /></clipPath><clipPath id="159"><path d="M84.744 623.63L291.764 623.63L291.764 623.63L291.764 604.67L291.764 604.67L84.744 604.67z" /></clipPath><clipPath id="160"><path d="M84.744 623.63L291.764 623.63L291.764 623.63L291.764 604.67L291.764 604.67L84.744 604.67z" /></clipPath><clipPath id="161"><path d="M292.25 623.64L499.42 623.64L499.42 623.64L499.42 604.68L499.42 604.68L292.25 604.68z" /></clipPath><clipPath id="162"><path d="M292.25 623.63L499.42 623.63L499.42 623.63L499.42 604.67L499.42 604.67L292.25 604.67z" /></clipPath><clipPath id="163"><path d="M292.25 623.63L499.42 623.63L499.42 623.63L499.42 604.67L499.42 604.67L292.25 604.67z" /></clipPath><clipPath id="164"><path d="M84.751 643.2L291.771 643.2L291.771 643.2L291.771 624.24L291.771 624.24L84.751 624.24z" /></clipPath><clipPath id="165"><path d="M84.744 643.19L291.764 643.19L291.764 643.19L291.764 624.23L291.764 624.23L84.744 624.23z" /></clipPath><clipPath id="166"><path d="M84.744 643.19L291.764 643.19L291.764 643.19L291.764 624.23L291.764 624.23L84.744 624.23z" /></clipPath><clipPath id="167"><path d="M292.25 643.2L499.42 643.2L499.42 643.2L499.42 624.24L499.42 624.24L292.25 624.24z" /></clipPath><clipPath id="168"><path d="M292.25 643.19L499.42 643.19L499.42 643.19L499.42 624.23L499.42 624.23L292.25 624.23z" /></clipPath><clipPath id="169"><path d="M292.25 643.19L499.42 643.19L499.42 643.19L499.42 624.23L499.42 624.23L292.25 624.23z" /></clipPath><clipPath id="170"><path d="M84.751 662.77L291.771 662.77L291.771 662.77L291.771 643.795L291.771 643.795L84.751 643.795z" /></clipPath><clipPath id="171"><path d="M84.744 662.78L291.764 662.78L291.764 662.78L291.764 643.796L291.764 643.796L84.744 643.796z" /></clipPath><clipPath id="172"><path d="M84.744 662.78L291.764 662.78L291.764 662.78L291.764 643.796L291.764 643.796L84.744 643.796z" /></clipPath><clipPath id="173"><path d="M292.25 662.77L499.42 662.77L499.42 662.77L499.42 643.795L499.42 643.795L292.25 643.795z" /></clipPath><clipPath id="174"><path d="M292.25 662.78L499.42 662.78L499.42 662.78L499.42 643.796L499.42 643.796L292.25 643.796z" /></clipPath><clipPath id="175"><path d="M292.25 662.78L499.42 662.78L499.42 662.78L499.42 643.796L499.42 643.796L292.25 643.796z" /></clipPath><clipPath id="176"><path d="M84.751 682.33L291.771 682.33L291.771 682.33L291.771 663.25L291.771 663.25L84.751 663.25z" /></clipPath><clipPath id="177"><path d="M84.744 682.34L291.764 682.34L291.764 682.34L291.764 663.26L291.764 663.26L84.744 663.26z" /></clipPath><clipPath id="178"><path d="M84.744 682.34L291.764 682.34L291.764 682.34L291.764 663.26L291.764 663.26L84.744 663.26z" /></clipPath><clipPath id="179"><path d="M292.25 682.33L499.42 682.33L499.42 682.33L499.42 663.25L499.42 663.25L292.25 663.25z" /></clipPath><clipPath id="180"><path d="M292.25 682.34L499.42 682.34L499.42 682.34L499.42 663.26L499.42 663.26L292.25 663.26z" /></clipPath><clipPath id="181"><path d="M292.25 682.34L499.42 682.34L499.42 682.34L499.42 663.26L499.42 663.26L292.25 663.26z" /></clipPath><clipPath id="182"><path d="M84.751 701.89L291.771 701.89L291.771 701.89L291.771 682.81L291.771 682.81L84.751 682.81z" /></clipPath><clipPath id="183"><path d="M84.744 701.9L291.764 701.9L291.764 701.9L291.764 682.82L291.764 682.82L84.744 682.82z" /></clipPath><clipPath id="184"><path d="M84.744 701.9L291.764 701.9L291.764 701.9L291.764 682.82L291.764 682.82L84.744 682.82z" /></clipPath><clipPath id="185"><path d="M292.25 701.89L499.42 701.89L499.42 701.89L499.42 682.81L499.42 682.81L292.25 682.81z" /></clipPath><clipPath id="186"><path d="M292.25 701.9L499.42 701.9L499.42 701.9L499.42 682.82L499.42 682.82L292.25 682.82z" /></clipPath><clipPath id="187"><path d="M292.25 701.9L499.42 701.9L499.42 701.9L499.42 682.82L499.42 682.82L292.25 682.82z" /></clipPath><clipPath id="188"><path d="M84.751 721.45L291.771 721.45L291.771 721.45L291.771 702.37L291.771 702.37L84.751 702.37z" /></clipPath><clipPath id="189"><path d="M84.744 721.46L291.764 721.46L291.764 721.46L291.764 702.38L291.764 702.38L84.744 702.38z" /></clipPath><clipPath id="190"><path d="M84.744 721.46L291.764 721.46L291.764 721.46L291.764 702.38L291.764 702.38L84.744 702.38z" /></clipPath><clipPath id="191"><path d="M292.25 721.45L499.42 721.45L499.42 721.45L499.42 702.37L499.42 702.37L292.25 702.37z" /></clipPath><clipPath id="192"><path d="M292.25 721.46L499.42 721.46L499.42 721.46L499.42 702.38L499.42 702.38L292.25 702.38z" /></clipPath><clipPath id="193"><path d="M292.25 721.46L499.42 721.46L499.42 721.46L499.42 702.38L499.42 702.38L292.25 702.38z" /></clipPath><clipPath id="194"><path d="M84.751 741.011L291.771 741.011L291.771 741.011L291.771 721.931L291.771 721.931L84.751 721.931z" /></clipPath><clipPath id="195"><path d="M84.744 741.016L291.764 741.016L291.764 741.016L291.764 721.936L291.764 721.936L84.744 721.936z" /></clipPath><clipPath id="196"><path d="M84.744 741.016L291.764 741.016L291.764 741.016L291.764 721.936L291.764 721.936L84.744 721.936z" /></clipPath><clipPath id="197"><path d="M292.25 741.011L499.42 741.011L499.42 741.011L499.42 721.931L499.42 721.931L292.25 721.931z" /></clipPath><clipPath id="198"><path d="M292.25 741.016L499.42 741.016L499.42 741.016L499.42 721.936L499.42 721.936L292.25 721.936z" /></clipPath><clipPath id="199"><path d="M292.25 741.016L499.42 741.016L499.42 741.016L499.42 721.936L499.42 721.936L292.25 721.936z" /></clipPath></defs><g transform="matrix(1.333333 0 0 1.333333 0 0)"><g><g clip-path="url(#1)"><path transform="matrix(1 0 0 -1 0 841)" d="M457.63 53.424L505.534 53.424L505.534 53.424L505.534 54.02404L505.534 54.02404L457.63 54.02404z" stroke="none" fill="#000000" fill-rule="evenodd" /><g clip-path="url(#2)"><path transform="matrix(1 0 0 -1 0 841)" d="M88.464 78.984L506.974 78.984L506.974 78.984L506.974 81.984L506.974 81.984L88.464 81.984z" stroke="none" fill="#000000" fill-rule="evenodd" /><path transform="matrix(1 0 0 -1 0 841)" d="M88.464 77.544L506.974 77.544L506.974 77.544L506.974 78.26397L506.974 78.26397L88.464 78.26397z" stroke="none" fill="#000000" fill-rule="evenodd" /></g><g clip-path="url(#3)"><g clip-path="url(#4)"></g><g clip-path="url(#5)"></g></g><path transform="matrix(1 0 0 -1 0 841)" d="M84.744 723.94L162.024 723.94L162.024 723.94L162.024 751.564L162.024 751.564L84.744 751.564z" stroke="none" fill="#0070C0" fill-rule="evenodd" /><g clip-path="url(#6)"><path transform="matrix(1 0 0 -1 0 841)" d="M89.904 723.94L156.864 723.94L156.864 723.94L156.864 751.564L156.864 751.564L89.904 751.564z" stroke="none" fill="#0070C0" fill-rule="evenodd" /><g clip-path="url(#7)"></g><g clip-path="url(#8)"></g></g><path transform="matrix(1 0 0 -1 0 841)" d="M162.5 723.94L222.884 723.94L222.884 723.94L222.884 751.564L222.884 751.564L162.5 751.564z" stroke="none" fill="#0070C0" fill-rule="evenodd" /><g clip-path="url(#9)"><path transform="matrix(1 0 0 -1 0 841)" d="M167.66 723.94L217.724 723.94L217.724 723.94L217.724 751.564L217.724 751.564L167.66 751.564z" stroke="none" fill="#0070C0" fill-rule="evenodd" /><g clip-path="url(#10)"></g><g clip-path="url(#11)"></g></g><path transform="matrix(1 0 0 -1 0 841)" d="M223.37 723.94L268.25 723.94L268.25 723.94L268.25 751.564L268.25 751.564L223.37 751.564z" stroke="none" fill="#0070C0" fill-rule="evenodd" /><g clip-path="url(#12)"><path transform="matrix(1 0 0 -1 0 841)" d="M228.53 723.94L263.09 723.94L263.09 723.94L263.09 751.564L263.09 751.564L228.53 751.564z" stroke="none" fill="#0070C0" fill-rule="evenodd" /><g clip-path="url(#13)"></g><g clip-path="url(#14)"></g></g><path transform="matrix(1 0 0 -1 0 841)" d="M268.85 723.94L374.59 723.94L374.59 723.94L374.59 751.564L374.59 751.564L268.85 751.564z" stroke="none" fill="#0070C0" fill-rule="evenodd" /><g clip-path="url(#15)"><path transform="matrix(1 0 0 -1 0 841)" d="M273.89 723.94L369.434 723.94L369.434 723.94L369.434 751.564L369.434 751.564L273.89 751.564z" stroke="none" fill="#0070C0" fill-rule="evenodd" /><g clip-path="url(#16)"></g><g clip-path="url(#17)"></g></g><path transform="matrix(1 0 0 -1 0 841)" d="M375.07 723.94L530.61 723.94L530.61 723.94L530.61 751.564L530.61 751.564L375.07 751.564z" stroke="none" fill="#0070C0" fill-rule="evenodd" /><g clip-path="url(#18)"><path transform="matrix(1 0 0 -1 0 841)" d="M380.23 723.94L525.45 723.94L525.45 723.94L525.45 751.564L525.45 751.564L380.23 751.564z" stroke="none" fill="#0070C0" fill-rule="evenodd" /><g clip-path="url(#19)"></g><g clip-path="url(#20)"></g></g><path transform="matrix(1 0 0 -1 0 841)" d="M84.264 751.56L84.744 751.56L84.744 751.56L84.744 752.04L84.744 752.04L84.264 752.04z" stroke="none" fill="#000000" fill-rule="evenodd" /><path transform="matrix(1 0 0 -1 0 841)" d="M84.264 751.56L84.744 751.56L84.744 751.56L84.744 752.04L84.744 752.04L84.264 752.04z" stroke="none" fill="#000000" fill-rule="evenodd" /><path transform="matrix(1 0 0 -1 0 841)" d="M84.744 751.56L162.024 751.56L162.024 751.56L162.024 752.04L162.024 752.04L84.744 752.04z" stroke="none" fill="#000000" fill-rule="evenodd" /><path transform="matrix(1 0 0 -1 0 841)" d="M162.02 751.56L162.5 751.56L162.5 751.56L162.5 752.04L162.5 752.04L162.02 752.04z" stroke="none" fill="#000000" fill-rule="evenodd" /><path transform="matrix(1 0 0 -1 0 841)" d="M162.5 751.56L222.884 751.56L222.884 751.56L222.884 752.04L222.884 752.04L162.5 752.04z" stroke="none" fill="#000000" fill-rule="evenodd" /><path transform="matrix(1 0 0 -1 0 841)" d="M222.89 751.56L223.37 751.56L223.37 751.56L223.37 752.04L223.37 752.04L222.89 752.04z" stroke="none" fill="#000000" fill-rule="evenodd" /><path transform="matrix(1 0 0 -1 0 841)" d="M223.37 751.56L268.37 751.56L268.37 751.56L268.37 752.04L268.37 752.04L223.37 752.04z" stroke="none" fill="#000000" fill-rule="evenodd" /><path transform="matrix(1 0 0 -1 0 841)" d="M268.37 751.56L268.85 751.56L268.85 751.56L268.85 752.04L268.85 752.04L268.37 752.04z" stroke="none" fill="#000000" fill-rule="evenodd" /><path transform="matrix(1 0 0 -1 0 841)" d="M268.85 751.56L374.71 751.56L374.71 751.56L374.71 752.04L374.71 752.04L268.85 752.04z" stroke="none" fill="#000000" fill-rule="evenodd" /><path transform="matrix(1 0 0 -1 0 841)" d="M374.71 751.56L375.19 751.56L375.19 751.56L375.19 752.04L375.19 752.04L374.71 752.04z" stroke="none" fill="#000000" fill-rule="evenodd" /><path transform="matrix(1 0 0 -1 0 841)" d="M375.19 751.56L530.61 751.56L530.61 751.56L530.61 752.04L530.61 752.04L375.19 752.04z" stroke="none" fill="#000000" fill-rule="evenodd" /><path transform="matrix(1 0 0 -1 0 841)" d="M530.62 751.56L531.1 751.56L531.1 751.56L531.1 752.04L531.1 752.04L530.62 752.04z" stroke="none" fill="#000000" fill-rule="evenodd" /><path transform="matrix(1 0 0 -1 0 841)" d="M530.62 751.56L531.1 751.56L531.1 751.56L531.1 752.04L531.1 752.04L530.62 752.04z" stroke="none" fill="#000000" fill-rule="evenodd" /><path transform="matrix(1 0 0 -1 0 841)" d="M84.264 723.94L84.744 723.94L84.744 723.94L84.744 751.564L84.744 751.564L84.264 751.564z" stroke="none" fill="#000000" fill-rule="evenodd" /><path transform="matrix(1 0 0 -1 0 841)" d="M162.02 723.94L162.5 723.94L162.5 723.94L162.5 751.564L162.5 751.564L162.02 751.564z" stroke="none" fill="#000000" fill-rule="evenodd" /><path transform="matrix(1 0 0 -1 0 841)" d="M222.89 723.94L223.37 723.94L223.37 723.94L223.37 751.564L223.37 751.564L222.89 751.564z" stroke="none" fill="#000000" fill-rule="evenodd" /><path transform="matrix(1 0 0 -1 0 841)" d="M268.37 723.94L268.85 723.94L268.85 723.94L268.85 751.564L268.85 751.564L268.37 751.564z" stroke="none" fill="#000000" fill-rule="evenodd" /><path transform="matrix(1 0 0 -1 0 841)" d="M374.71 723.94L375.19 723.94L375.19 723.94L375.19 751.564L375.19 751.564L374.71 751.564z" stroke="none" fill="#000000" fill-rule="evenodd" /><path transform="matrix(1 0 0 -1 0 841)" d="M530.62 723.94L531.1 723.94L531.1 723.94L531.1 751.564L531.1 751.564L530.62 751.564z" stroke="none" fill="#000000" fill-rule="evenodd" /><g clip-path="url(#21)"><g clip-path="url(#22)"></g><g clip-path="url(#23)"></g></g><g clip-path="url(#24)"><g clip-path="url(#25)"></g><g clip-path="url(#26)"></g></g><g clip-path="url(#27)"><g clip-path="url(#28)"></g><g clip-path="url(#29)"></g></g><g clip-path="url(#30)"><g clip-path="url(#31)"></g><g clip-path="url(#32)"></g></g><g clip-path="url(#33)"><g clip-path="url(#34)"></g><g clip-path="url(#35)"></g><g clip-path="url(#36)"></g><path transform="matrix(1 0 0 -1 0 841)" d="M417.79 702.1L470.254 702.1L470.254 702.1L470.254 703.06L470.254 703.06L417.79 703.06z" stroke="none" fill="#000000" fill-rule="evenodd" /></g><path transform="matrix(1 0 0 -1 0 841)" d="M84.264 723.46L84.744 723.46L84.744 723.46L84.744 723.94L84.744 723.94L84.264 723.94z" stroke="none" fill="#000000" fill-rule="evenodd" /><path transform="matrix(1 0 0 -1 0 841)" d="M84.744 723.46L162.024 723.46L162.024 723.46L162.024 723.94L162.024 723.94L84.744 723.94z" stroke="none" fill="#000000" fill-rule="evenodd" /><path transform="matrix(1 0 0 -1 0 841)" d="M162.02 723.46L162.5 723.46L162.5 723.46L162.5 723.94L162.5 723.94L162.02 723.94z" stroke="none" fill="#000000" fill-rule="evenodd" /><path transform="matrix(1 0 0 -1 0 841)" d="M162.5 723.46L222.884 723.46L222.884 723.46L222.884 723.94L222.884 723.94L162.5 723.94z" stroke="none" fill="#000000" fill-rule="evenodd" /><path transform="matrix(1 0 0 -1 0 841)" d="M222.89 723.46L223.37 723.46L223.37 723.46L223.37 723.94L223.37 723.94L222.89 723.94z" stroke="none" fill="#000000" fill-rule="evenodd" /><path transform="matrix(1 0 0 -1 0 841)" d="M223.37 723.46L268.37 723.46L268.37 723.46L268.37 723.94L268.37 723.94L223.37 723.94z" stroke="none" fill="#000000" fill-rule="evenodd" /><path transform="matrix(1 0 0 -1 0 841)" d="M268.37 723.46L268.85 723.46L268.85 723.46L268.85 723.94L268.85 723.94L268.37 723.94z" stroke="none" fill="#000000" fill-rule="evenodd" /><path transform="matrix(1 0 0 -1 0 841)" d="M268.85 723.46L374.71 723.46L374.71 723.46L374.71 723.94L374.71 723.94L268.85 723.94z" stroke="none" fill="#000000" fill-rule="evenodd" /><path transform="matrix(1 0 0 -1 0 841)" d="M374.71 723.46L375.19 723.46L375.19 723.46L375.19 723.94L375.19 723.94L374.71 723.94z" stroke="none" fill="#000000" fill-rule="evenodd" /><path transform="matrix(1 0 0 -1 0 841)" d="M375.19 723.46L530.61 723.46L530.61 723.46L530.61 723.94L530.61 723.94L375.19 723.94z" stroke="none" fill="#000000" fill-rule="evenodd" /><path transform="matrix(1 0 0 -1 0 841)" d="M530.62 723.46L531.1 723.46L531.1 723.46L531.1 723.94L531.1 723.94L530.62 723.94z" stroke="none" fill="#000000" fill-rule="evenodd" /><path transform="matrix(1 0 0 -1 0 841)" d="M84.264 695.74L84.744 695.74L84.744 695.74L84.744 723.46L84.744 723.46L84.264 723.46z" stroke="none" fill="#000000" fill-rule="evenodd" /><path transform="matrix(1 0 0 -1 0 841)" d="M162.02 695.74L162.5 695.74L162.5 695.74L162.5 723.46L162.5 723.46L162.02 723.46z" stroke="none" fill="#000000" fill-rule="evenodd" /><path transform="matrix(1 0 0 -1 0 841)" d="M222.89 695.74L223.37 695.74L223.37 695.74L223.37 723.46L223.37 723.46L222.89 723.46z" stroke="none" fill="#000000" fill-rule="evenodd" /><path transform="matrix(1 0 0 -1 0 841)" d="M268.37 695.74L268.85 695.74L268.85 695.74L268.85 723.46L268.85 723.46L268.37 723.46z" stroke="none" fill="#000000" fill-rule="evenodd" /><path transform="matrix(1 0 0 -1 0 841)" d="M374.71 695.74L375.19 695.74L375.19 695.74L375.19 723.46L375.19 723.46L374.71 723.46z" stroke="none" fill="#000000" fill-rule="evenodd" /><path transform="matrix(1 0 0 -1 0 841)" d="M530.62 695.74L531.1 695.74L531.1 695.74L531.1 723.46L531.1 723.46L530.62 723.46z" stroke="none" fill="#000000" fill-rule="evenodd" /><path transform="matrix(1 0 0 -1 0 841)" d="M84.744 536.83L162.024 536.83L162.024 536.83L162.024 695.25L162.024 695.25L84.744 695.25z" stroke="none" fill="#DAEEF3" fill-rule="evenodd" /><g clip-path="url(#37)"><path transform="matrix(1 0 0 -1 0 841)" d="M89.904 673.42L156.864 673.42L156.864 673.42L156.864 695.26L156.864 695.26L89.904 695.26z" stroke="none" fill="#DAEEF3" fill-rule="evenodd" /><g clip-path="url(#38)"></g><path transform="matrix(1 0 0 -1 0 841)" d="M89.904 651.58L156.864 651.58L156.864 651.58L156.864 673.42L156.864 673.42L89.904 673.42z" stroke="none" fill="#DAEEF3" fill-rule="evenodd" /><g clip-path="url(#39)"></g><g clip-path="url(#40)"></g></g><path transform="matrix(1 0 0 -1 0 841)" d="M162.5 536.83L222.884 536.83L222.884 536.83L222.884 695.25L222.884 695.25L162.5 695.25z" stroke="none" fill="#DAEEF3" fill-rule="evenodd" /><g clip-path="url(#41)"><path transform="matrix(1 0 0 -1 0 841)" d="M167.66 668.62L217.724 668.62L217.724 668.62L217.724 695.26L217.724 695.26L167.66 695.26z" stroke="none" fill="#DAEEF3" fill-rule="evenodd" /><g clip-path="url(#42)"></g><g clip-path="url(#43)"></g></g><path transform="matrix(1 0 0 -1 0 841)" d="M223.37 536.83L268.25 536.83L268.25 536.83L268.25 695.25L268.25 695.25L223.37 695.25z" stroke="none" fill="#DAEEF3" fill-rule="evenodd" /><g clip-path="url(#44)"><path transform="matrix(1 0 0 -1 0 841)" d="M228.53 667.54L263.09 667.54L263.09 667.54L263.09 695.2599L263.09 695.2599L228.53 695.2599z" stroke="none" fill="#DAEEF3" fill-rule="evenodd" /><g clip-path="url(#45)"></g><g clip-path="url(#46)"></g></g><path transform="matrix(1 0 0 -1 0 841)" d="M268.85 536.83L374.59 536.83L374.59 536.83L374.59 695.25L374.59 695.25L268.85 695.25z" stroke="none" fill="#DAEEF3" fill-rule="evenodd" /><g clip-path="url(#47)"><path transform="matrix(1 0 0 -1 0 841)" d="M273.89 673.42L369.434 673.42L369.434 673.42L369.434 695.26L369.434 695.26L273.89 695.26z" stroke="none" fill="#DAEEF3" fill-rule="evenodd" /><g clip-path="url(#48)"></g><path transform="matrix(1 0 0 -1 0 841)" d="M273.89 656.26L369.434 656.26L369.434 656.26L369.434 673.42L369.434 673.42L273.89 673.42z" stroke="none" fill="#DAEEF3" fill-rule="evenodd" /><g clip-path="url(#49)"></g><path transform="matrix(1 0 0 -1 0 841)" d="M273.89 634.42L369.434 634.42L369.434 634.42L369.434 656.26L369.434 656.26L273.89 656.26z" stroke="none" fill="#DAEEF3" fill-rule="evenodd" /><g clip-path="url(#50)"></g><g clip-path="url(#51)"></g></g><path transform="matrix(1 0 0 -1 0 841)" d="M375.07 536.83L530.61 536.83L530.61 536.83L530.61 695.25L530.61 695.25L375.07 695.25z" stroke="none" fill="#DAEEF3" fill-rule="evenodd" /><g clip-path="url(#52)"><path transform="matrix(1 0 0 -1 0 841)" d="M380.23 672.34L525.45 672.34L525.45 672.34L525.45 695.26L525.45 695.26L380.23 695.26z" stroke="none" fill="#DAEEF3" fill-rule="evenodd" /><g clip-path="url(#53)"></g><path transform="matrix(1 0 0 -1 0 841)" d="M380.23 654.22L525.45 654.22L525.45 654.22L525.45 672.34L525.45 672.34L380.23 672.34z" stroke="none" fill="#DAEEF3" fill-rule="evenodd" /><g clip-path="url(#54)"></g><g clip-path="url(#55)"></g><path transform="matrix(1 0 0 -1 0 841)" d="M380.23 635.98L525.45 635.98L525.45 635.98L525.45 654.22L525.45 654.22L380.23 654.22z" stroke="none" fill="#DAEEF3" fill-rule="evenodd" /><g clip-path="url(#56)"></g><g clip-path="url(#57)"></g><path transform="matrix(1 0 0 -1 0 841)" d="M497.38 637.66L525.46 637.66L525.46 637.66L525.46 638.3799L525.46 638.3799L497.38 638.3799z" stroke="none" fill="#FF0000" fill-rule="evenodd" /><path transform="matrix(1 0 0 -1 0 841)" d="M380.23 617.86L525.45 617.86L525.45 617.86L525.45 635.98L525.45 635.98L380.23 635.98z" stroke="none" fill="#DAEEF3" fill-rule="evenodd" /><g clip-path="url(#58)"></g><g clip-path="url(#59)"></g><path transform="matrix(1 0 0 -1 0 841)" d="M386.23 619.42L407.11 619.42L407.11 619.42L407.11 620.14L407.11 620.14L386.23 620.14z" stroke="none" fill="#FF0000" fill-rule="evenodd" /><path transform="matrix(1 0 0 -1 0 841)" d="M380.23 596.02L525.45 596.02L525.45 596.02L525.45 617.86L525.45 617.86L380.23 617.86z" stroke="none" fill="#DAEEF3" fill-rule="evenodd" /><g clip-path="url(#60)"></g><g clip-path="url(#61)"></g><path transform="matrix(1 0 0 -1 0 841)" d="M380.23 577.9L525.45 577.9L525.45 577.9L525.45 596.02L525.45 596.02L380.23 596.02z" stroke="none" fill="#DAEEF3" fill-rule="evenodd" /><g clip-path="url(#62)"></g><g clip-path="url(#63)"></g><path transform="matrix(1 0 0 -1 0 841)" d="M380.23 559.66L525.45 559.66L525.45 559.66L525.45 577.9L525.45 577.9L380.23 577.9z" stroke="none" fill="#DAEEF3" fill-rule="evenodd" /><g clip-path="url(#64)"></g><path transform="matrix(1 0 0 -1 0 841)" d="M380.23 536.83L525.45 536.83L525.45 536.83L525.45 559.654L525.45 559.654L380.23 559.654z" stroke="none" fill="#DAEEF3" fill-rule="evenodd" /><g clip-path="url(#65)"></g><g clip-path="url(#66)"></g></g><path transform="matrix(1 0 0 -1 0 841)" d="M84.264 695.26L84.744 695.26L84.744 695.26L84.744 695.74L84.744 695.74L84.264 695.74z" stroke="none" fill="#000000" fill-rule="evenodd" /><path transform="matrix(1 0 0 -1 0 841)" d="M84.744 695.26L162.024 695.26L162.024 695.26L162.024 695.74L162.024 695.74L84.744 695.74z" stroke="none" fill="#000000" fill-rule="evenodd" /><path transform="matrix(1 0 0 -1 0 841)" d="M162.02 695.26L162.5 695.26L162.5 695.26L162.5 695.74L162.5 695.74L162.02 695.74z" stroke="none" fill="#000000" fill-rule="evenodd" /><path transform="matrix(1 0 0 -1 0 841)" d="M162.5 695.26L222.884 695.26L222.884 695.26L222.884 695.74L222.884 695.74L162.5 695.74z" stroke="none" fill="#000000" fill-rule="evenodd" /><path transform="matrix(1 0 0 -1 0 841)" d="M222.89 695.26L223.37 695.26L223.37 695.26L223.37 695.74L223.37 695.74L222.89 695.74z" stroke="none" fill="#000000" fill-rule="evenodd" /><path transform="matrix(1 0 0 -1 0 841)" d="M223.37 695.26L268.37 695.26L268.37 695.26L268.37 695.74L268.37 695.74L223.37 695.74z" stroke="none" fill="#000000" fill-rule="evenodd" /><path transform="matrix(1 0 0 -1 0 841)" d="M268.37 695.26L268.85 695.26L268.85 695.26L268.85 695.74L268.85 695.74L268.37 695.74z" stroke="none" fill="#000000" fill-rule="evenodd" /><path transform="matrix(1 0 0 -1 0 841)" d="M268.85 695.26L374.71 695.26L374.71 695.26L374.71 695.74L374.71 695.74L268.85 695.74z" stroke="none" fill="#000000" fill-rule="evenodd" /><path transform="matrix(1 0 0 -1 0 841)" d="M374.71 695.26L375.19 695.26L375.19 695.26L375.19 695.74L375.19 695.74L374.71 695.74z" stroke="none" fill="#000000" fill-rule="evenodd" /><path transform="matrix(1 0 0 -1 0 841)" d="M375.19 695.26L530.61 695.26L530.61 695.26L530.61 695.74L530.61 695.74L375.19 695.74z" stroke="none" fill="#000000" fill-rule="evenodd" /><path transform="matrix(1 0 0 -1 0 841)" d="M530.62 695.26L531.1 695.26L531.1 695.26L531.1 695.74L531.1 695.74L530.62 695.74z" stroke="none" fill="#000000" fill-rule="evenodd" /><path transform="matrix(1 0 0 -1 0 841)" d="M84.264 536.83L84.744 536.83L84.744 536.83L84.744 695.25L84.744 695.25L84.264 695.25z" stroke="none" fill="#000000" fill-rule="evenodd" /><path transform="matrix(1 0 0 -1 0 841)" d="M162.02 536.83L162.5 536.83L162.5 536.83L162.5 695.25L162.5 695.25L162.02 695.25z" stroke="none" fill="#000000" fill-rule="evenodd" /><path transform="matrix(1 0 0 -1 0 841)" d="M222.89 536.83L223.37 536.83L223.37 536.83L223.37 695.25L223.37 695.25L222.89 695.25z" stroke="none" fill="#000000" fill-rule="evenodd" /><path transform="matrix(1 0 0 -1 0 841)" d="M268.37 536.83L268.85 536.83L268.85 536.83L268.85 695.25L268.85 695.25L268.37 695.25z" stroke="none" fill="#000000" fill-rule="evenodd" /><path transform="matrix(1 0 0 -1 0 841)" d="M374.71 536.83L375.19 536.83L375.19 536.83L375.19 695.25L375.19 695.25L374.71 695.25z" stroke="none" fill="#000000" fill-rule="evenodd" /><path transform="matrix(1 0 0 -1 0 841)" d="M530.62 536.83L531.1 536.83L531.1 536.83L531.1 695.25L531.1 695.25L530.62 695.25z" stroke="none" fill="#000000" fill-rule="evenodd" /><g clip-path="url(#67)"><g clip-path="url(#68)"></g><g clip-path="url(#69)"></g><g clip-path="url(#70)"></g></g><g clip-path="url(#71)"><g clip-path="url(#72)"></g><g clip-path="url(#73)"></g></g><g clip-path="url(#74)"><g clip-path="url(#75)"></g><g clip-path="url(#76)"></g></g><g clip-path="url(#77)"><g clip-path="url(#78)"></g><g clip-path="url(#79)"></g><g clip-path="url(#80)"></g><g clip-path="url(#81)"></g></g><g clip-path="url(#82)"><g clip-path="url(#83)"></g><g clip-path="url(#84)"></g></g><path transform="matrix(1 0 0 -1 0 841)" d="M84.264 536.35L84.744 536.35L84.744 536.35L84.744 536.83L84.744 536.83L84.264 536.83z" stroke="none" fill="#000000" fill-rule="evenodd" /><path transform="matrix(1 0 0 -1 0 841)" d="M84.744 536.35L162.024 536.35L162.024 536.35L162.024 536.83L162.024 536.83L84.744 536.83z" stroke="none" fill="#000000" fill-rule="evenodd" /><path transform="matrix(1 0 0 -1 0 841)" d="M162.02 536.35L162.5 536.35L162.5 536.35L162.5 536.83L162.5 536.83L162.02 536.83z" stroke="none" fill="#000000" fill-rule="evenodd" /><path transform="matrix(1 0 0 -1 0 841)" d="M162.5 536.35L222.884 536.35L222.884 536.35L222.884 536.83L222.884 536.83L162.5 536.83z" stroke="none" fill="#000000" fill-rule="evenodd" /><path transform="matrix(1 0 0 -1 0 841)" d="M222.89 536.35L223.37 536.35L223.37 536.35L223.37 536.83L223.37 536.83L222.89 536.83z" stroke="none" fill="#000000" fill-rule="evenodd" /><path transform="matrix(1 0 0 -1 0 841)" d="M223.37 536.35L268.37 536.35L268.37 536.35L268.37 536.83L268.37 536.83L223.37 536.83z" stroke="none" fill="#000000" fill-rule="evenodd" /><path transform="matrix(1 0 0 -1 0 841)" d="M268.37 536.35L268.85 536.35L268.85 536.35L268.85 536.83L268.85 536.83L268.37 536.83z" stroke="none" fill="#000000" fill-rule="evenodd" /><path transform="matrix(1 0 0 -1 0 841)" d="M268.85 536.35L374.71 536.35L374.71 536.35L374.71 536.83L374.71 536.83L268.85 536.83z" stroke="none" fill="#000000" fill-rule="evenodd" /><path transform="matrix(1 0 0 -1 0 841)" d="M374.71 536.35L375.19 536.35L375.19 536.35L375.19 536.83L375.19 536.83L374.71 536.83z" stroke="none" fill="#000000" fill-rule="evenodd" /><path transform="matrix(1 0 0 -1 0 841)" d="M375.19 536.35L530.61 536.35L530.61 536.35L530.61 536.83L530.61 536.83L375.19 536.83z" stroke="none" fill="#000000" fill-rule="evenodd" /><path transform="matrix(1 0 0 -1 0 841)" d="M530.62 536.35L531.1 536.35L531.1 536.35L531.1 536.83L531.1 536.83L530.62 536.83z" stroke="none" fill="#000000" fill-rule="evenodd" /><path transform="matrix(1 0 0 -1 0 841)" d="M84.264 475.51L84.744 475.51L84.744 475.51L84.744 536.35L84.744 536.35L84.264 536.35z" stroke="none" fill="#000000" fill-rule="evenodd" /><path transform="matrix(1 0 0 -1 0 841)" d="M162.02 475.51L162.5 475.51L162.5 475.51L162.5 536.35L162.5 536.35L162.02 536.35z" stroke="none" fill="#000000" fill-rule="evenodd" /><path transform="matrix(1 0 0 -1 0 841)" d="M222.89 475.51L223.37 475.51L223.37 475.51L223.37 536.35L223.37 536.35L222.89 536.35z" stroke="none" fill="#000000" fill-rule="evenodd" /><path transform="matrix(1 0 0 -1 0 841)" d="M268.37 475.51L268.85 475.51L268.85 475.51L268.85 536.35L268.85 536.35L268.37 536.35z" stroke="none" fill="#000000" fill-rule="evenodd" /><path transform="matrix(1 0 0 -1 0 841)" d="M374.71 475.51L375.19 475.51L375.19 475.51L375.19 536.35L375.19 536.35L374.71 536.35z" stroke="none" fill="#000000" fill-rule="evenodd" /><path transform="matrix(1 0 0 -1 0 841)" d="M530.62 475.51L531.1 475.51L531.1 475.51L531.1 536.35L531.1 536.35L530.62 536.35z" stroke="none" fill="#000000" fill-rule="evenodd" /><path transform="matrix(1 0 0 -1 0 841)" d="M84.744 429.19L162.024 429.19L162.024 429.19L162.024 475.03L162.024 475.03L84.744 475.03z" stroke="none" fill="#DAEEF3" fill-rule="evenodd" /><g clip-path="url(#85)"><path transform="matrix(1 0 0 -1 0 841)" d="M89.904 453.19L156.864 453.19L156.864 453.19L156.864 475.03L156.864 475.03L89.904 475.03z" stroke="none" fill="#DAEEF3" fill-rule="evenodd" /><g clip-path="url(#86)"></g><path transform="matrix(1 0 0 -1 0 841)" d="M89.904 431.35L156.864 431.35L156.864 431.35L156.864 453.19L156.864 453.19L89.904 453.19z" stroke="none" fill="#DAEEF3" fill-rule="evenodd" /><g clip-path="url(#87)"></g><g clip-path="url(#88)"></g></g><path transform="matrix(1 0 0 -1 0 841)" d="M162.5 429.19L222.884 429.19L222.884 429.19L222.884 475.03L222.884 475.03L162.5 475.03z" stroke="none" fill="#DAEEF3" fill-rule="evenodd" /><g clip-path="url(#89)"><path transform="matrix(1 0 0 -1 0 841)" d="M167.66 448.39L217.724 448.39L217.724 448.39L217.724 475.03L217.724 475.03L167.66 475.03z" stroke="none" fill="#DAEEF3" fill-rule="evenodd" /><g clip-path="url(#90)"></g><g clip-path="url(#91)"></g></g><path transform="matrix(1 0 0 -1 0 841)" d="M223.37 429.19L268.25 429.19L268.25 429.19L268.25 475.03L268.25 475.03L223.37 475.03z" stroke="none" fill="#DAEEF3" fill-rule="evenodd" /><g clip-path="url(#92)"><path transform="matrix(1 0 0 -1 0 841)" d="M228.53 447.31L263.09 447.31L263.09 447.31L263.09 475.03L263.09 475.03L228.53 475.03z" stroke="none" fill="#DAEEF3" fill-rule="evenodd" /><g clip-path="url(#93)"></g><g clip-path="url(#94)"></g></g><path transform="matrix(1 0 0 -1 0 841)" d="M268.85 429.19L374.59 429.19L374.59 429.19L374.59 475.03L374.59 475.03L268.85 475.03z" stroke="none" fill="#DAEEF3" fill-rule="evenodd" /><g clip-path="url(#95)"><path transform="matrix(1 0 0 -1 0 841)" d="M273.89 448.39L369.434 448.39L369.434 448.39L369.434 475.03L369.434 475.03L273.89 475.03z" stroke="none" fill="#DAEEF3" fill-rule="evenodd" /><g clip-path="url(#96)"></g><g clip-path="url(#97)"></g></g><path transform="matrix(1 0 0 -1 0 841)" d="M375.07 429.19L530.61 429.19L530.61 429.19L530.61 475.03L530.61 475.03L375.07 475.03z" stroke="none" fill="#DAEEF3" fill-rule="evenodd" /><g clip-path="url(#98)"><path transform="matrix(1 0 0 -1 0 841)" d="M380.23 452.11L525.45 452.11L525.45 452.11L525.45 475.03L525.45 475.03L380.23 475.03z" stroke="none" fill="#DAEEF3" fill-rule="evenodd" /><g clip-path="url(#99)"></g><g clip-path="url(#100)"></g><g clip-path="url(#101)"></g><path transform="matrix(1 0 0 -1 0 841)" d="M401.95 453.79L480.214 453.79L480.214 453.79L480.214 454.51L480.214 454.51L401.95 454.51z" stroke="none" fill="#FF0000" fill-rule="evenodd" /><path transform="matrix(1 0 0 -1 0 841)" d="M380.23 429.19L525.45 429.19L525.45 429.19L525.45 452.11L525.45 452.11L380.23 452.11z" stroke="none" fill="#DAEEF3" fill-rule="evenodd" /><g clip-path="url(#102)"></g><g clip-path="url(#103)"></g></g><path transform="matrix(1 0 0 -1 0 841)" d="M84.264 475.03L84.744 475.03L84.744 475.03L84.744 475.51L84.744 475.51L84.264 475.51z" stroke="none" fill="#000000" fill-rule="evenodd" /><path transform="matrix(1 0 0 -1 0 841)" d="M84.744 475.03L162.024 475.03L162.024 475.03L162.024 475.51L162.024 475.51L84.744 475.51z" stroke="none" fill="#000000" fill-rule="evenodd" /><path transform="matrix(1 0 0 -1 0 841)" d="M162.02 475.03L162.5 475.03L162.5 475.03L162.5 475.51L162.5 475.51L162.02 475.51z" stroke="none" fill="#000000" fill-rule="evenodd" /><path transform="matrix(1 0 0 -1 0 841)" d="M162.5 475.03L222.884 475.03L222.884 475.03L222.884 475.51L222.884 475.51L162.5 475.51z" stroke="none" fill="#000000" fill-rule="evenodd" /><path transform="matrix(1 0 0 -1 0 841)" d="M222.89 475.03L223.37 475.03L223.37 475.03L223.37 475.51L223.37 475.51L222.89 475.51z" stroke="none" fill="#000000" fill-rule="evenodd" /><path transform="matrix(1 0 0 -1 0 841)" d="M223.37 475.03L268.37 475.03L268.37 475.03L268.37 475.51L268.37 475.51L223.37 475.51z" stroke="none" fill="#000000" fill-rule="evenodd" /><path transform="matrix(1 0 0 -1 0 841)" d="M268.37 475.03L268.85 475.03L268.85 475.03L268.85 475.51L268.85 475.51L268.37 475.51z" stroke="none" fill="#000000" fill-rule="evenodd" /><path transform="matrix(1 0 0 -1 0 841)" d="M268.85 475.03L374.71 475.03L374.71 475.03L374.71 475.51L374.71 475.51L268.85 475.51z" stroke="none" fill="#000000" fill-rule="evenodd" /><path transform="matrix(1 0 0 -1 0 841)" d="M374.71 475.03L375.19 475.03L375.19 475.03L375.19 475.51L375.19 475.51L374.71 475.51z" stroke="none" fill="#000000" fill-rule="evenodd" /><path transform="matrix(1 0 0 -1 0 841)" d="M375.19 475.03L530.61 475.03L530.61 475.03L530.61 475.51L530.61 475.51L375.19 475.51z" stroke="none" fill="#000000" fill-rule="evenodd" /><path transform="matrix(1 0 0 -1 0 841)" d="M530.62 475.03L531.1 475.03L531.1 475.03L531.1 475.51L531.1 475.51L530.62 475.51z" stroke="none" fill="#000000" fill-rule="evenodd" /><path transform="matrix(1 0 0 -1 0 841)" d="M84.264 429.19L84.744 429.19L84.744 429.19L84.744 475.03L84.744 475.03L84.264 475.03z" stroke="none" fill="#000000" fill-rule="evenodd" /><path transform="matrix(1 0 0 -1 0 841)" d="M162.02 429.19L162.5 429.19L162.5 429.19L162.5 475.03L162.5 475.03L162.02 475.03z" stroke="none" fill="#000000" fill-rule="evenodd" /><path transform="matrix(1 0 0 -1 0 841)" d="M222.89 429.19L223.37 429.19L223.37 429.19L223.37 475.03L223.37 475.03L222.89 475.03z" stroke="none" fill="#000000" fill-rule="evenodd" /><path transform="matrix(1 0 0 -1 0 841)" d="M268.37 429.19L268.85 429.19L268.85 429.19L268.85 475.03L268.85 475.03L268.37 475.03z" stroke="none" fill="#000000" fill-rule="evenodd" /><path transform="matrix(1 0 0 -1 0 841)" d="M374.71 429.19L375.19 429.19L375.19 429.19L375.19 475.03L375.19 475.03L374.71 475.03z" stroke="none" fill="#000000" fill-rule="evenodd" /><path transform="matrix(1 0 0 -1 0 841)" d="M530.62 429.19L531.1 429.19L531.1 429.19L531.1 475.03L531.1 475.03L530.62 475.03z" stroke="none" fill="#000000" fill-rule="evenodd" /><g clip-path="url(#104)"><g clip-path="url(#105)"></g><g clip-path="url(#106)"></g></g><g clip-path="url(#107)"><g clip-path="url(#108)"></g><g clip-path="url(#109)"></g></g><g clip-path="url(#110)"><g clip-path="url(#111)"></g><g clip-path="url(#112)"></g></g><g clip-path="url(#113)"><g clip-path="url(#114)"></g><g clip-path="url(#115)"></g></g><g clip-path="url(#116)"><g clip-path="url(#117)"></g><g clip-path="url(#118)"></g><path transform="matrix(1 0 0 -1 0 841)" d="M380.23 407.47L436.27 407.47L436.27 407.47L436.27 408.19L436.27 408.19L380.23 408.19z" stroke="none" fill="#0000FF" fill-rule="evenodd" /></g><path transform="matrix(1 0 0 -1 0 841)" d="M84.264 428.71L84.744 428.71L84.744 428.71L84.744 429.19L84.744 429.19L84.264 429.19z" stroke="none" fill="#000000" fill-rule="evenodd" /><path transform="matrix(1 0 0 -1 0 841)" d="M84.744 428.71L162.024 428.71L162.024 428.71L162.024 429.19L162.024 429.19L84.744 429.19z" stroke="none" fill="#000000" fill-rule="evenodd" /><path transform="matrix(1 0 0 -1 0 841)" d="M162.02 428.71L162.5 428.71L162.5 428.71L162.5 429.19L162.5 429.19L162.02 429.19z" stroke="none" fill="#000000" fill-rule="evenodd" /><path transform="matrix(1 0 0 -1 0 841)" d="M162.5 428.71L222.884 428.71L222.884 428.71L222.884 429.19L222.884 429.19L162.5 429.19z" stroke="none" fill="#000000" fill-rule="evenodd" /><path transform="matrix(1 0 0 -1 0 841)" d="M222.89 428.71L223.37 428.71L223.37 428.71L223.37 429.19L223.37 429.19L222.89 429.19z" stroke="none" fill="#000000" fill-rule="evenodd" /><path transform="matrix(1 0 0 -1 0 841)" d="M223.37 428.71L268.37 428.71L268.37 428.71L268.37 429.19L268.37 429.19L223.37 429.19z" stroke="none" fill="#000000" fill-rule="evenodd" /><path transform="matrix(1 0 0 -1 0 841)" d="M268.37 428.71L268.85 428.71L268.85 428.71L268.85 429.19L268.85 429.19L268.37 429.19z" stroke="none" fill="#000000" fill-rule="evenodd" /><path transform="matrix(1 0 0 -1 0 841)" d="M268.85 428.71L374.71 428.71L374.71 428.71L374.71 429.19L374.71 429.19L268.85 429.19z" stroke="none" fill="#000000" fill-rule="evenodd" /><path transform="matrix(1 0 0 -1 0 841)" d="M374.71 428.71L375.19 428.71L375.19 428.71L375.19 429.19L375.19 429.19L374.71 429.19z" stroke="none" fill="#000000" fill-rule="evenodd" /><path transform="matrix(1 0 0 -1 0 841)" d="M375.19 428.71L530.61 428.71L530.61 428.71L530.61 429.19L530.61 429.19L375.19 429.19z" stroke="none" fill="#000000" fill-rule="evenodd" /><path transform="matrix(1 0 0 -1 0 841)" d="M530.62 428.71L531.1 428.71L531.1 428.71L531.1 429.19L531.1 429.19L530.62 429.19z" stroke="none" fill="#000000" fill-rule="evenodd" /><path transform="matrix(1 0 0 -1 0 841)" d="M84.264 400.99L84.744 400.99L84.744 400.99L84.744 428.71L84.744 428.71L84.264 428.71z" stroke="none" fill="#000000" fill-rule="evenodd" /><path transform="matrix(1 0 0 -1 0 841)" d="M162.02 400.99L162.5 400.99L162.5 400.99L162.5 428.71L162.5 428.71L162.02 428.71z" stroke="none" fill="#000000" fill-rule="evenodd" /><path transform="matrix(1 0 0 -1 0 841)" d="M222.89 400.99L223.37 400.99L223.37 400.99L223.37 428.71L223.37 428.71L222.89 428.71z" stroke="none" fill="#000000" fill-rule="evenodd" /><path transform="matrix(1 0 0 -1 0 841)" d="M268.37 400.99L268.85 400.99L268.85 400.99L268.85 428.71L268.85 428.71L268.37 428.71z" stroke="none" fill="#000000" fill-rule="evenodd" /><path transform="matrix(1 0 0 -1 0 841)" d="M374.71 400.99L375.19 400.99L375.19 400.99L375.19 428.71L375.19 428.71L374.71 428.71z" stroke="none" fill="#000000" fill-rule="evenodd" /><path transform="matrix(1 0 0 -1 0 841)" d="M530.62 400.99L531.1 400.99L531.1 400.99L531.1 428.71L531.1 428.71L530.62 428.71z" stroke="none" fill="#000000" fill-rule="evenodd" /><path transform="matrix(1 0 0 -1 0 841)" d="M84.744 372.91L162.024 372.91L162.024 372.91L162.024 400.51L162.024 400.51L84.744 400.51z" stroke="none" fill="#DAEEF3" fill-rule="evenodd" /><g clip-path="url(#119)"><path transform="matrix(1 0 0 -1 0 841)" d="M89.904 373.99L156.864 373.99L156.864 373.99L156.864 400.51L156.864 400.51L89.904 400.51z" stroke="none" fill="#DAEEF3" fill-rule="evenodd" /><g clip-path="url(#120)"></g><g clip-path="url(#121)"></g></g><path transform="matrix(1 0 0 -1 0 841)" d="M162.5 372.91L222.884 372.91L222.884 372.91L222.884 400.51L222.884 400.51L162.5 400.51z" stroke="none" fill="#DAEEF3" fill-rule="evenodd" /><g clip-path="url(#122)"><path transform="matrix(1 0 0 -1 0 841)" d="M167.66 373.99L217.724 373.99L217.724 373.99L217.724 400.51L217.724 400.51L167.66 400.51z" stroke="none" fill="#DAEEF3" fill-rule="evenodd" /><g clip-path="url(#123)"></g><g clip-path="url(#124)"></g></g><path transform="matrix(1 0 0 -1 0 841)" d="M223.37 372.91L268.25 372.91L268.25 372.91L268.25 400.51L268.25 400.51L223.37 400.51z" stroke="none" fill="#DAEEF3" fill-rule="evenodd" /><g clip-path="url(#125)"><path transform="matrix(1 0 0 -1 0 841)" d="M228.53 372.91L263.09 372.91L263.09 372.91L263.09 400.51L263.09 400.51L228.53 400.51z" stroke="none" fill="#DAEEF3" fill-rule="evenodd" /><g clip-path="url(#126)"></g><g clip-path="url(#127)"></g></g><path transform="matrix(1 0 0 -1 0 841)" d="M268.85 372.91L374.59 372.91L374.59 372.91L374.59 400.51L374.59 400.51L268.85 400.51z" stroke="none" fill="#DAEEF3" fill-rule="evenodd" /><g clip-path="url(#128)"><path transform="matrix(1 0 0 -1 0 841)" d="M273.89 373.99L369.434 373.99L369.434 373.99L369.434 400.51L369.434 400.51L273.89 400.51z" stroke="none" fill="#DAEEF3" fill-rule="evenodd" /><g clip-path="url(#129)"></g><g clip-path="url(#130)"></g></g><path transform="matrix(1 0 0 -1 0 841)" d="M375.07 372.91L530.61 372.91L530.61 372.91L530.61 400.51L530.61 400.51L375.07 400.51z" stroke="none" fill="#DAEEF3" fill-rule="evenodd" /><g clip-path="url(#131)"><path transform="matrix(1 0 0 -1 0 841)" d="M380.23 372.91L525.45 372.91L525.45 372.91L525.45 400.51L525.45 400.51L380.23 400.51z" stroke="none" fill="#DAEEF3" fill-rule="evenodd" /><g clip-path="url(#132)"></g><g clip-path="url(#133)"></g></g><path transform="matrix(1 0 0 -1 0 841)" d="M84.264 400.51L84.744 400.51L84.744 400.51L84.744 400.99L84.744 400.99L84.264 400.99z" stroke="none" fill="#000000" fill-rule="evenodd" /><path transform="matrix(1 0 0 -1 0 841)" d="M84.744 400.51L162.024 400.51L162.024 400.51L162.024 400.99L162.024 400.99L84.744 400.99z" stroke="none" fill="#000000" fill-rule="evenodd" /><path transform="matrix(1 0 0 -1 0 841)" d="M162.02 400.51L162.5 400.51L162.5 400.51L162.5 400.99L162.5 400.99L162.02 400.99z" stroke="none" fill="#000000" fill-rule="evenodd" /><path transform="matrix(1 0 0 -1 0 841)" d="M162.5 400.51L222.884 400.51L222.884 400.51L222.884 400.99L222.884 400.99L162.5 400.99z" stroke="none" fill="#000000" fill-rule="evenodd" /><path transform="matrix(1 0 0 -1 0 841)" d="M222.89 400.51L223.37 400.51L223.37 400.51L223.37 400.99L223.37 400.99L222.89 400.99z" stroke="none" fill="#000000" fill-rule="evenodd" /><path transform="matrix(1 0 0 -1 0 841)" d="M223.37 400.51L268.37 400.51L268.37 400.51L268.37 400.99L268.37 400.99L223.37 400.99z" stroke="none" fill="#000000" fill-rule="evenodd" /><path transform="matrix(1 0 0 -1 0 841)" d="M268.37 400.51L268.85 400.51L268.85 400.51L268.85 400.99L268.85 400.99L268.37 400.99z" stroke="none" fill="#000000" fill-rule="evenodd" /><path transform="matrix(1 0 0 -1 0 841)" d="M268.85 400.51L374.71 400.51L374.71 400.51L374.71 400.99L374.71 400.99L268.85 400.99z" stroke="none" fill="#000000" fill-rule="evenodd" /><path transform="matrix(1 0 0 -1 0 841)" d="M374.71 400.51L375.19 400.51L375.19 400.51L375.19 400.99L375.19 400.99L374.71 400.99z" stroke="none" fill="#000000" fill-rule="evenodd" /><path transform="matrix(1 0 0 -1 0 841)" d="M375.19 400.51L530.61 400.51L530.61 400.51L530.61 400.99L530.61 400.99L375.19 400.99z" stroke="none" fill="#000000" fill-rule="evenodd" /><path transform="matrix(1 0 0 -1 0 841)" d="M530.62 400.51L531.1 400.51L531.1 400.51L531.1 400.99L531.1 400.99L530.62 400.99z" stroke="none" fill="#000000" fill-rule="evenodd" /><path transform="matrix(1 0 0 -1 0 841)" d="M84.264 372.91L84.744 372.91L84.744 372.91L84.744 400.51L84.744 400.51L84.264 400.51z" stroke="none" fill="#000000" fill-rule="evenodd" /><path transform="matrix(1 0 0 -1 0 841)" d="M84.264 372.43L84.744 372.43L84.744 372.43L84.744 372.91L84.744 372.91L84.264 372.91z" stroke="none" fill="#000000" fill-rule="evenodd" /><path transform="matrix(1 0 0 -1 0 841)" d="M84.264 372.43L84.744 372.43L84.744 372.43L84.744 372.91L84.744 372.91L84.264 372.91z" stroke="none" fill="#000000" fill-rule="evenodd" /><path transform="matrix(1 0 0 -1 0 841)" d="M84.744 372.43L162.024 372.43L162.024 372.43L162.024 372.91L162.024 372.91L84.744 372.91z" stroke="none" fill="#000000" fill-rule="evenodd" /><path transform="matrix(1 0 0 -1 0 841)" d="M162.02 372.91L162.5 372.91L162.5 372.91L162.5 400.51L162.5 400.51L162.02 400.51z" stroke="none" fill="#000000" fill-rule="evenodd" /><path transform="matrix(1 0 0 -1 0 841)" d="M162.02 372.43L162.5 372.43L162.5 372.43L162.5 372.91L162.5 372.91L162.02 372.91z" stroke="none" fill="#000000" fill-rule="evenodd" /><path transform="matrix(1 0 0 -1 0 841)" d="M162.5 372.43L222.884 372.43L222.884 372.43L222.884 372.91L222.884 372.91L162.5 372.91z" stroke="none" fill="#000000" fill-rule="evenodd" /><path transform="matrix(1 0 0 -1 0 841)" d="M222.89 372.91L223.37 372.91L223.37 372.91L223.37 400.51L223.37 400.51L222.89 400.51z" stroke="none" fill="#000000" fill-rule="evenodd" /><path transform="matrix(1 0 0 -1 0 841)" d="M222.89 372.43L223.37 372.43L223.37 372.43L223.37 372.91L223.37 372.91L222.89 372.91z" stroke="none" fill="#000000" fill-rule="evenodd" /><path transform="matrix(1 0 0 -1 0 841)" d="M223.37 372.43L268.37 372.43L268.37 372.43L268.37 372.91L268.37 372.91L223.37 372.91z" stroke="none" fill="#000000" fill-rule="evenodd" /><path transform="matrix(1 0 0 -1 0 841)" d="M268.37 372.91L268.85 372.91L268.85 372.91L268.85 400.51L268.85 400.51L268.37 400.51z" stroke="none" fill="#000000" fill-rule="evenodd" /><path transform="matrix(1 0 0 -1 0 841)" d="M268.37 372.43L268.85 372.43L268.85 372.43L268.85 372.91L268.85 372.91L268.37 372.91z" stroke="none" fill="#000000" fill-rule="evenodd" /><path transform="matrix(1 0 0 -1 0 841)" d="M268.85 372.43L374.71 372.43L374.71 372.43L374.71 372.91L374.71 372.91L268.85 372.91z" stroke="none" fill="#000000" fill-rule="evenodd" /><path transform="matrix(1 0 0 -1 0 841)" d="M374.71 372.91L375.19 372.91L375.19 372.91L375.19 400.51L375.19 400.51L374.71 400.51z" stroke="none" fill="#000000" fill-rule="evenodd" /><path transform="matrix(1 0 0 -1 0 841)" d="M374.71 372.43L375.19 372.43L375.19 372.43L375.19 372.91L375.19 372.91L374.71 372.91z" stroke="none" fill="#000000" fill-rule="evenodd" /><path transform="matrix(1 0 0 -1 0 841)" d="M375.19 372.43L530.61 372.43L530.61 372.43L530.61 372.91L530.61 372.91L375.19 372.91z" stroke="none" fill="#000000" fill-rule="evenodd" /><path transform="matrix(1 0 0 -1 0 841)" d="M530.62 372.91L531.1 372.91L531.1 372.91L531.1 400.51L531.1 400.51L530.62 400.51z" stroke="none" fill="#000000" fill-rule="evenodd" /><path transform="matrix(1 0 0 -1 0 841)" d="M530.62 372.43L531.1 372.43L531.1 372.43L531.1 372.91L531.1 372.91L530.62 372.91z" stroke="none" fill="#000000" fill-rule="evenodd" /><path transform="matrix(1 0 0 -1 0 841)" d="M530.62 372.43L531.1 372.43L531.1 372.43L531.1 372.91L531.1 372.91L530.62 372.91z" stroke="none" fill="#000000" fill-rule="evenodd" /><path transform="matrix(1 0 0 -1 0 841)" d="M84.744 295.49L291.764 295.49L291.764 295.49L291.764 314.57L291.764 314.57L84.744 314.57z" stroke="none" fill="#0070C0" fill-rule="evenodd" /><g clip-path="url(#134)"><path transform="matrix(1 0 0 -1 0 841)" d="M89.904 295.49L286.604 295.49L286.604 295.49L286.604 314.57L286.604 314.57L89.904 314.57z" stroke="none" fill="#0070C0" fill-rule="evenodd" /><g clip-path="url(#135)"></g><g clip-path="url(#136)"></g></g><path transform="matrix(1 0 0 -1 0 841)" d="M292.25 295.49L499.42 295.49L499.42 295.49L499.42 314.57L499.42 314.57L292.25 314.57z" stroke="none" fill="#0070C0" fill-rule="evenodd" /><g clip-path="url(#137)"><path transform="matrix(1 0 0 -1 0 841)" d="M297.41 295.49L494.26 295.49L494.26 295.49L494.26 314.57L494.26 314.57L297.41 314.57z" stroke="none" fill="#0070C0" fill-rule="evenodd" /><g clip-path="url(#138)"></g><g clip-path="url(#139)"></g></g><path transform="matrix(1 0 0 -1 0 841)" d="M84.264 314.57L84.744 314.57L84.744 314.57L84.744 315.05L84.744 315.05L84.264 315.05z" stroke="none" fill="#000000" fill-rule="evenodd" /><path transform="matrix(1 0 0 -1 0 841)" d="M84.264 314.57L84.744 314.57L84.744 314.57L84.744 315.05L84.744 315.05L84.264 315.05z" stroke="none" fill="#000000" fill-rule="evenodd" /><path transform="matrix(1 0 0 -1 0 841)" d="M84.744 314.57L291.884 314.57L291.884 314.57L291.884 315.05L291.884 315.05L84.744 315.05z" stroke="none" fill="#000000" fill-rule="evenodd" /><path transform="matrix(1 0 0 -1 0 841)" d="M291.89 314.57L292.37 314.57L292.37 314.57L292.37 315.05L292.37 315.05L291.89 315.05z" stroke="none" fill="#000000" fill-rule="evenodd" /><path transform="matrix(1 0 0 -1 0 841)" d="M292.37 314.57L499.42 314.57L499.42 314.57L499.42 315.05L499.42 315.05L292.37 315.05z" stroke="none" fill="#000000" fill-rule="evenodd" /><path transform="matrix(1 0 0 -1 0 841)" d="M499.42 314.57L499.9 314.57L499.9 314.57L499.9 315.05L499.9 315.05L499.42 315.05z" stroke="none" fill="#000000" fill-rule="evenodd" /><path transform="matrix(1 0 0 -1 0 841)" d="M499.42 314.57L499.9 314.57L499.9 314.57L499.9 315.05L499.9 315.05L499.42 315.05z" stroke="none" fill="#000000" fill-rule="evenodd" /><path transform="matrix(1 0 0 -1 0 841)" d="M84.264 295.49L84.744 295.49L84.744 295.49L84.744 314.57L84.744 314.57L84.264 314.57z" stroke="none" fill="#000000" fill-rule="evenodd" /><path transform="matrix(1 0 0 -1 0 841)" d="M291.89 295.49L292.37 295.49L292.37 295.49L292.37 314.57L292.37 314.57L291.89 314.57z" stroke="none" fill="#000000" fill-rule="evenodd" /><path transform="matrix(1 0 0 -1 0 841)" d="M499.42 295.49L499.9 295.49L499.9 295.49L499.9 314.57L499.9 314.57L499.42 314.57z" stroke="none" fill="#000000" fill-rule="evenodd" /><path transform="matrix(1 0 0 -1 0 841)" d="M84.744 275.93L291.764 275.93L291.764 275.93L291.764 295.01L291.764 295.01L84.744 295.01z" stroke="none" fill="#DAEEF3" fill-rule="evenodd" /><g clip-path="url(#140)"><path transform="matrix(1 0 0 -1 0 841)" d="M89.904 275.93L286.604 275.93L286.604 275.93L286.604 295.01L286.604 295.01L89.904 295.01z" stroke="none" fill="#DAEEF3" fill-rule="evenodd" /><g clip-path="url(#141)"></g><g clip-path="url(#142)"></g></g><path transform="matrix(1 0 0 -1 0 841)" d="M292.25 275.93L499.42 275.93L499.42 275.93L499.42 295.01L499.42 295.01L292.25 295.01z" stroke="none" fill="#DAEEF3" fill-rule="evenodd" /><g clip-path="url(#143)"><path transform="matrix(1 0 0 -1 0 841)" d="M297.41 275.93L494.26 275.93L494.26 275.93L494.26 295.01L494.26 295.01L297.41 295.01z" stroke="none" fill="#DAEEF3" fill-rule="evenodd" /><g clip-path="url(#144)"></g><g clip-path="url(#145)"></g></g><path transform="matrix(1 0 0 -1 0 841)" d="M84.264 295.01L84.744 295.01L84.744 295.01L84.744 295.49L84.744 295.49L84.264 295.49z" stroke="none" fill="#000000" fill-rule="evenodd" /><path transform="matrix(1 0 0 -1 0 841)" d="M84.744 295.01L291.884 295.01L291.884 295.01L291.884 295.49L291.884 295.49L84.744 295.49z" stroke="none" fill="#000000" fill-rule="evenodd" /><path transform="matrix(1 0 0 -1 0 841)" d="M291.89 295.01L292.37 295.01L292.37 295.01L292.37 295.49L292.37 295.49L291.89 295.49z" stroke="none" fill="#000000" fill-rule="evenodd" /><path transform="matrix(1 0 0 -1 0 841)" d="M292.37 295.01L499.42 295.01L499.42 295.01L499.42 295.49L499.42 295.49L292.37 295.49z" stroke="none" fill="#000000" fill-rule="evenodd" /><path transform="matrix(1 0 0 -1 0 841)" d="M499.42 295.01L499.9 295.01L499.9 295.01L499.9 295.49L499.9 295.49L499.42 295.49z" stroke="none" fill="#000000" fill-rule="evenodd" /><path transform="matrix(1 0 0 -1 0 841)" d="M84.264 275.93L84.744 275.93L84.744 275.93L84.744 295.01L84.744 295.01L84.264 295.01z" stroke="none" fill="#000000" fill-rule="evenodd" /><path transform="matrix(1 0 0 -1 0 841)" d="M291.89 275.93L292.37 275.93L292.37 275.93L292.37 295.01L292.37 295.01L291.89 295.01z" stroke="none" fill="#000000" fill-rule="evenodd" /><path transform="matrix(1 0 0 -1 0 841)" d="M499.42 275.93L499.9 275.93L499.9 275.93L499.9 295.01L499.9 295.01L499.42 295.01z" stroke="none" fill="#000000" fill-rule="evenodd" /><g clip-path="url(#146)"><g clip-path="url(#147)"></g><g clip-path="url(#148)"></g></g><g clip-path="url(#149)"><g clip-path="url(#150)"></g><g clip-path="url(#151)"></g></g><path transform="matrix(1 0 0 -1 0 841)" d="M84.264 275.45L84.744 275.45L84.744 275.45L84.744 275.93L84.744 275.93L84.264 275.93z" stroke="none" fill="#000000" fill-rule="evenodd" /><path transform="matrix(1 0 0 -1 0 841)" d="M84.744 275.45L291.884 275.45L291.884 275.45L291.884 275.93L291.884 275.93L84.744 275.93z" stroke="none" fill="#000000" fill-rule="evenodd" /><path transform="matrix(1 0 0 -1 0 841)" d="M291.89 275.45L292.37 275.45L292.37 275.45L292.37 275.93L292.37 275.93L291.89 275.93z" stroke="none" fill="#000000" fill-rule="evenodd" /><path transform="matrix(1 0 0 -1 0 841)" d="M292.37 275.45L499.42 275.45L499.42 275.45L499.42 275.93L499.42 275.93L292.37 275.93z" stroke="none" fill="#000000" fill-rule="evenodd" /><path transform="matrix(1 0 0 -1 0 841)" d="M499.42 275.45L499.9 275.45L499.9 275.45L499.9 275.93L499.9 275.93L499.42 275.93z" stroke="none" fill="#000000" fill-rule="evenodd" /><path transform="matrix(1 0 0 -1 0 841)" d="M84.264 256.37L84.744 256.37L84.744 256.37L84.744 275.45L84.744 275.45L84.264 275.45z" stroke="none" fill="#000000" fill-rule="evenodd" /><path transform="matrix(1 0 0 -1 0 841)" d="M291.89 256.37L292.37 256.37L292.37 256.37L292.37 275.45L292.37 275.45L291.89 275.45z" stroke="none" fill="#000000" fill-rule="evenodd" /><path transform="matrix(1 0 0 -1 0 841)" d="M499.42 256.37L499.9 256.37L499.9 256.37L499.9 275.45L499.9 275.45L499.42 275.45z" stroke="none" fill="#000000" fill-rule="evenodd" /><path transform="matrix(1 0 0 -1 0 841)" d="M84.744 236.81L291.764 236.81L291.764 236.81L291.764 255.89L291.764 255.89L84.744 255.89z" stroke="none" fill="#DAEEF3" fill-rule="evenodd" /><g clip-path="url(#152)"><path transform="matrix(1 0 0 -1 0 841)" d="M89.904 236.81L286.604 236.81L286.604 236.81L286.604 255.89L286.604 255.89L89.904 255.89z" stroke="none" fill="#DAEEF3" fill-rule="evenodd" /><g clip-path="url(#153)"></g><g clip-path="url(#154)"></g></g><path transform="matrix(1 0 0 -1 0 841)" d="M292.25 236.81L499.42 236.81L499.42 236.81L499.42 255.89L499.42 255.89L292.25 255.89z" stroke="none" fill="#DAEEF3" fill-rule="evenodd" /><g clip-path="url(#155)"><path transform="matrix(1 0 0 -1 0 841)" d="M297.41 236.81L494.26 236.81L494.26 236.81L494.26 255.89L494.26 255.89L297.41 255.89z" stroke="none" fill="#DAEEF3" fill-rule="evenodd" /><g clip-path="url(#156)"></g><g clip-path="url(#157)"></g></g><path transform="matrix(1 0 0 -1 0 841)" d="M84.264 255.89L84.744 255.89L84.744 255.89L84.744 256.37L84.744 256.37L84.264 256.37z" stroke="none" fill="#000000" fill-rule="evenodd" /><path transform="matrix(1 0 0 -1 0 841)" d="M84.744 255.89L291.884 255.89L291.884 255.89L291.884 256.37L291.884 256.37L84.744 256.37z" stroke="none" fill="#000000" fill-rule="evenodd" /><path transform="matrix(1 0 0 -1 0 841)" d="M291.89 255.89L292.37 255.89L292.37 255.89L292.37 256.37L292.37 256.37L291.89 256.37z" stroke="none" fill="#000000" fill-rule="evenodd" /><path transform="matrix(1 0 0 -1 0 841)" d="M292.37 255.89L499.42 255.89L499.42 255.89L499.42 256.37L499.42 256.37L292.37 256.37z" stroke="none" fill="#000000" fill-rule="evenodd" /><path transform="matrix(1 0 0 -1 0 841)" d="M499.42 255.89L499.9 255.89L499.9 255.89L499.9 256.37L499.9 256.37L499.42 256.37z" stroke="none" fill="#000000" fill-rule="evenodd" /><path transform="matrix(1 0 0 -1 0 841)" d="M84.264 236.81L84.744 236.81L84.744 236.81L84.744 255.89L84.744 255.89L84.264 255.89z" stroke="none" fill="#000000" fill-rule="evenodd" /><path transform="matrix(1 0 0 -1 0 841)" d="M291.89 236.81L292.37 236.81L292.37 236.81L292.37 255.89L292.37 255.89L291.89 255.89z" stroke="none" fill="#000000" fill-rule="evenodd" /><path transform="matrix(1 0 0 -1 0 841)" d="M499.42 236.81L499.9 236.81L499.9 236.81L499.9 255.89L499.9 255.89L499.42 255.89z" stroke="none" fill="#000000" fill-rule="evenodd" /><g clip-path="url(#158)"><g clip-path="url(#159)"></g><g clip-path="url(#160)"></g></g><g clip-path="url(#161)"><g clip-path="url(#162)"></g><g clip-path="url(#163)"></g></g><path transform="matrix(1 0 0 -1 0 841)" d="M84.264 236.33L84.744 236.33L84.744 236.33L84.744 236.81L84.744 236.81L84.264 236.81z" stroke="none" fill="#000000" fill-rule="evenodd" /><path transform="matrix(1 0 0 -1 0 841)" d="M84.744 236.33L291.884 236.33L291.884 236.33L291.884 236.81L291.884 236.81L84.744 236.81z" stroke="none" fill="#000000" fill-rule="evenodd" /><path transform="matrix(1 0 0 -1 0 841)" d="M291.89 236.33L292.37 236.33L292.37 236.33L292.37 236.81L292.37 236.81L291.89 236.81z" stroke="none" fill="#000000" fill-rule="evenodd" /><path transform="matrix(1 0 0 -1 0 841)" d="M292.37 236.33L499.42 236.33L499.42 236.33L499.42 236.81L499.42 236.81L292.37 236.81z" stroke="none" fill="#000000" fill-rule="evenodd" /><path transform="matrix(1 0 0 -1 0 841)" d="M499.42 236.33L499.9 236.33L499.9 236.33L499.9 236.81L499.9 236.81L499.42 236.81z" stroke="none" fill="#000000" fill-rule="evenodd" /><path transform="matrix(1 0 0 -1 0 841)" d="M84.264 217.37L84.744 217.37L84.744 217.37L84.744 236.33L84.744 236.33L84.264 236.33z" stroke="none" fill="#000000" fill-rule="evenodd" /><path transform="matrix(1 0 0 -1 0 841)" d="M291.89 217.37L292.37 217.37L292.37 217.37L292.37 236.33L292.37 236.33L291.89 236.33z" stroke="none" fill="#000000" fill-rule="evenodd" /><path transform="matrix(1 0 0 -1 0 841)" d="M499.42 217.37L499.9 217.37L499.9 217.37L499.9 236.33L499.9 236.33L499.42 236.33z" stroke="none" fill="#000000" fill-rule="evenodd" /><path transform="matrix(1 0 0 -1 0 841)" d="M84.744 197.81L291.764 197.81L291.764 197.81L291.764 216.77L291.764 216.77L84.744 216.77z" stroke="none" fill="#DAEEF3" fill-rule="evenodd" /><g clip-path="url(#164)"><path transform="matrix(1 0 0 -1 0 841)" d="M89.904 197.81L286.604 197.81L286.604 197.81L286.604 216.77L286.604 216.77L89.904 216.77z" stroke="none" fill="#DAEEF3" fill-rule="evenodd" /><g clip-path="url(#165)"></g><g clip-path="url(#166)"></g></g><path transform="matrix(1 0 0 -1 0 841)" d="M292.25 197.81L499.42 197.81L499.42 197.81L499.42 216.77L499.42 216.77L292.25 216.77z" stroke="none" fill="#DAEEF3" fill-rule="evenodd" /><g clip-path="url(#167)"><path transform="matrix(1 0 0 -1 0 841)" d="M297.41 197.81L494.26 197.81L494.26 197.81L494.26 216.77L494.26 216.77L297.41 216.77z" stroke="none" fill="#DAEEF3" fill-rule="evenodd" /><g clip-path="url(#168)"></g><g clip-path="url(#169)"></g></g><path transform="matrix(1 0 0 -1 0 841)" d="M84.264 216.89L84.744 216.89L84.744 216.89L84.744 217.37L84.744 217.37L84.264 217.37z" stroke="none" fill="#000000" fill-rule="evenodd" /><path transform="matrix(1 0 0 -1 0 841)" d="M84.744 216.89L291.884 216.89L291.884 216.89L291.884 217.37L291.884 217.37L84.744 217.37z" stroke="none" fill="#000000" fill-rule="evenodd" /><path transform="matrix(1 0 0 -1 0 841)" d="M291.89 216.89L292.37 216.89L292.37 216.89L292.37 217.37L292.37 217.37L291.89 217.37z" stroke="none" fill="#000000" fill-rule="evenodd" /><path transform="matrix(1 0 0 -1 0 841)" d="M292.37 216.89L499.42 216.89L499.42 216.89L499.42 217.37L499.42 217.37L292.37 217.37z" stroke="none" fill="#000000" fill-rule="evenodd" /><path transform="matrix(1 0 0 -1 0 841)" d="M499.42 216.89L499.9 216.89L499.9 216.89L499.9 217.37L499.9 217.37L499.42 217.37z" stroke="none" fill="#000000" fill-rule="evenodd" /><path transform="matrix(1 0 0 -1 0 841)" d="M84.264 197.81L84.744 197.81L84.744 197.81L84.744 216.89L84.744 216.89L84.264 216.89z" stroke="none" fill="#000000" fill-rule="evenodd" /><path transform="matrix(1 0 0 -1 0 841)" d="M291.89 197.81L292.37 197.81L292.37 197.81L292.37 216.89L292.37 216.89L291.89 216.89z" stroke="none" fill="#000000" fill-rule="evenodd" /><path transform="matrix(1 0 0 -1 0 841)" d="M499.42 197.81L499.9 197.81L499.9 197.81L499.9 216.89L499.9 216.89L499.42 216.89z" stroke="none" fill="#000000" fill-rule="evenodd" /><g clip-path="url(#170)"><g clip-path="url(#171)"></g><g clip-path="url(#172)"></g></g><g clip-path="url(#173)"><g clip-path="url(#174)"></g><g clip-path="url(#175)"></g></g><path transform="matrix(1 0 0 -1 0 841)" d="M84.264 197.33L84.744 197.33L84.744 197.33L84.744 197.81L84.744 197.81L84.264 197.81z" stroke="none" fill="#000000" fill-rule="evenodd" /><path transform="matrix(1 0 0 -1 0 841)" d="M84.744 197.33L291.884 197.33L291.884 197.33L291.884 197.81L291.884 197.81L84.744 197.81z" stroke="none" fill="#000000" fill-rule="evenodd" /><path transform="matrix(1 0 0 -1 0 841)" d="M291.89 197.33L292.37 197.33L292.37 197.33L292.37 197.81L292.37 197.81L291.89 197.81z" stroke="none" fill="#000000" fill-rule="evenodd" /><path transform="matrix(1 0 0 -1 0 841)" d="M292.37 197.33L499.42 197.33L499.42 197.33L499.42 197.81L499.42 197.81L292.37 197.81z" stroke="none" fill="#000000" fill-rule="evenodd" /><path transform="matrix(1 0 0 -1 0 841)" d="M499.42 197.33L499.9 197.33L499.9 197.33L499.9 197.81L499.9 197.81L499.42 197.81z" stroke="none" fill="#000000" fill-rule="evenodd" /><path transform="matrix(1 0 0 -1 0 841)" d="M84.264 178.22L84.744 178.22L84.744 178.22L84.744 197.324L84.744 197.324L84.264 197.324z" stroke="none" fill="#000000" fill-rule="evenodd" /><path transform="matrix(1 0 0 -1 0 841)" d="M291.89 178.22L292.37 178.22L292.37 178.22L292.37 197.324L292.37 197.324L291.89 197.324z" stroke="none" fill="#000000" fill-rule="evenodd" /><path transform="matrix(1 0 0 -1 0 841)" d="M499.42 178.22L499.9 178.22L499.9 178.22L499.9 197.324L499.9 197.324L499.42 197.324z" stroke="none" fill="#000000" fill-rule="evenodd" /><path transform="matrix(1 0 0 -1 0 841)" d="M84.744 158.66L291.764 158.66L291.764 158.66L291.764 177.74L291.764 177.74L84.744 177.74z" stroke="none" fill="#DAEEF3" fill-rule="evenodd" /><g clip-path="url(#176)"><path transform="matrix(1 0 0 -1 0 841)" d="M89.904 158.66L286.604 158.66L286.604 158.66L286.604 177.74L286.604 177.74L89.904 177.74z" stroke="none" fill="#DAEEF3" fill-rule="evenodd" /><g clip-path="url(#177)"></g><g clip-path="url(#178)"></g></g><path transform="matrix(1 0 0 -1 0 841)" d="M292.25 158.66L499.42 158.66L499.42 158.66L499.42 177.74L499.42 177.74L292.25 177.74z" stroke="none" fill="#DAEEF3" fill-rule="evenodd" /><g clip-path="url(#179)"><path transform="matrix(1 0 0 -1 0 841)" d="M297.41 158.66L494.26 158.66L494.26 158.66L494.26 177.74L494.26 177.74L297.41 177.74z" stroke="none" fill="#DAEEF3" fill-rule="evenodd" /><g clip-path="url(#180)"></g><g clip-path="url(#181)"></g></g><path transform="matrix(1 0 0 -1 0 841)" d="M84.264 177.74L84.744 177.74L84.744 177.74L84.744 178.22L84.744 178.22L84.264 178.22z" stroke="none" fill="#000000" fill-rule="evenodd" /><path transform="matrix(1 0 0 -1 0 841)" d="M84.744 177.74L291.884 177.74L291.884 177.74L291.884 178.22L291.884 178.22L84.744 178.22z" stroke="none" fill="#000000" fill-rule="evenodd" /><path transform="matrix(1 0 0 -1 0 841)" d="M291.89 177.74L292.37 177.74L292.37 177.74L292.37 178.22L292.37 178.22L291.89 178.22z" stroke="none" fill="#000000" fill-rule="evenodd" /><path transform="matrix(1 0 0 -1 0 841)" d="M292.37 177.74L499.42 177.74L499.42 177.74L499.42 178.22L499.42 178.22L292.37 178.22z" stroke="none" fill="#000000" fill-rule="evenodd" /><path transform="matrix(1 0 0 -1 0 841)" d="M499.42 177.74L499.9 177.74L499.9 177.74L499.9 178.22L499.9 178.22L499.42 178.22z" stroke="none" fill="#000000" fill-rule="evenodd" /><path transform="matrix(1 0 0 -1 0 841)" d="M84.264 158.66L84.744 158.66L84.744 158.66L84.744 177.74L84.744 177.74L84.264 177.74z" stroke="none" fill="#000000" fill-rule="evenodd" /><path transform="matrix(1 0 0 -1 0 841)" d="M291.89 158.66L292.37 158.66L292.37 158.66L292.37 177.74L292.37 177.74L291.89 177.74z" stroke="none" fill="#000000" fill-rule="evenodd" /><path transform="matrix(1 0 0 -1 0 841)" d="M499.42 158.66L499.9 158.66L499.9 158.66L499.9 177.74L499.9 177.74L499.42 177.74z" stroke="none" fill="#000000" fill-rule="evenodd" /><g clip-path="url(#182)"><g clip-path="url(#183)"></g><g clip-path="url(#184)"></g></g><g clip-path="url(#185)"><g clip-path="url(#186)"></g><g clip-path="url(#187)"></g></g><path transform="matrix(1 0 0 -1 0 841)" d="M84.264 158.18L84.744 158.18L84.744 158.18L84.744 158.66L84.744 158.66L84.264 158.66z" stroke="none" fill="#000000" fill-rule="evenodd" /><path transform="matrix(1 0 0 -1 0 841)" d="M84.744 158.18L291.884 158.18L291.884 158.18L291.884 158.66L291.884 158.66L84.744 158.66z" stroke="none" fill="#000000" fill-rule="evenodd" /><path transform="matrix(1 0 0 -1 0 841)" d="M291.89 158.18L292.37 158.18L292.37 158.18L292.37 158.66L292.37 158.66L291.89 158.66z" stroke="none" fill="#000000" fill-rule="evenodd" /><path transform="matrix(1 0 0 -1 0 841)" d="M292.37 158.18L499.42 158.18L499.42 158.18L499.42 158.66L499.42 158.66L292.37 158.66z" stroke="none" fill="#000000" fill-rule="evenodd" /><path transform="matrix(1 0 0 -1 0 841)" d="M499.42 158.18L499.9 158.18L499.9 158.18L499.9 158.66L499.9 158.66L499.42 158.66z" stroke="none" fill="#000000" fill-rule="evenodd" /><path transform="matrix(1 0 0 -1 0 841)" d="M84.264 139.1L84.744 139.1L84.744 139.1L84.744 158.18L84.744 158.18L84.264 158.18z" stroke="none" fill="#000000" fill-rule="evenodd" /><path transform="matrix(1 0 0 -1 0 841)" d="M291.89 139.1L292.37 139.1L292.37 139.1L292.37 158.18L292.37 158.18L291.89 158.18z" stroke="none" fill="#000000" fill-rule="evenodd" /><path transform="matrix(1 0 0 -1 0 841)" d="M499.42 139.1L499.9 139.1L499.9 139.1L499.9 158.18L499.9 158.18L499.42 158.18z" stroke="none" fill="#000000" fill-rule="evenodd" /><path transform="matrix(1 0 0 -1 0 841)" d="M84.744 119.54L291.764 119.54L291.764 119.54L291.764 138.62L291.764 138.62L84.744 138.62z" stroke="none" fill="#DAEEF3" fill-rule="evenodd" /><g clip-path="url(#188)"><path transform="matrix(1 0 0 -1 0 841)" d="M89.904 119.54L286.604 119.54L286.604 119.54L286.604 138.62L286.604 138.62L89.904 138.62z" stroke="none" fill="#DAEEF3" fill-rule="evenodd" /><g clip-path="url(#189)"></g><g clip-path="url(#190)"></g></g><path transform="matrix(1 0 0 -1 0 841)" d="M292.25 119.54L499.42 119.54L499.42 119.54L499.42 138.62L499.42 138.62L292.25 138.62z" stroke="none" fill="#DAEEF3" fill-rule="evenodd" /><g clip-path="url(#191)"><path transform="matrix(1 0 0 -1 0 841)" d="M297.41 119.54L494.26 119.54L494.26 119.54L494.26 138.62L494.26 138.62L297.41 138.62z" stroke="none" fill="#DAEEF3" fill-rule="evenodd" /><g clip-path="url(#192)"></g><g clip-path="url(#193)"></g></g><path transform="matrix(1 0 0 -1 0 841)" d="M84.264 138.62L84.744 138.62L84.744 138.62L84.744 139.1L84.744 139.1L84.264 139.1z" stroke="none" fill="#000000" fill-rule="evenodd" /><path transform="matrix(1 0 0 -1 0 841)" d="M84.744 138.62L291.884 138.62L291.884 138.62L291.884 139.1L291.884 139.1L84.744 139.1z" stroke="none" fill="#000000" fill-rule="evenodd" /><path transform="matrix(1 0 0 -1 0 841)" d="M291.89 138.62L292.37 138.62L292.37 138.62L292.37 139.1L292.37 139.1L291.89 139.1z" stroke="none" fill="#000000" fill-rule="evenodd" /><path transform="matrix(1 0 0 -1 0 841)" d="M292.37 138.62L499.42 138.62L499.42 138.62L499.42 139.1L499.42 139.1L292.37 139.1z" stroke="none" fill="#000000" fill-rule="evenodd" /><path transform="matrix(1 0 0 -1 0 841)" d="M499.42 138.62L499.9 138.62L499.9 138.62L499.9 139.1L499.9 139.1L499.42 139.1z" stroke="none" fill="#000000" fill-rule="evenodd" /><path transform="matrix(1 0 0 -1 0 841)" d="M84.264 119.54L84.744 119.54L84.744 119.54L84.744 138.62L84.744 138.62L84.264 138.62z" stroke="none" fill="#000000" fill-rule="evenodd" /><path transform="matrix(1 0 0 -1 0 841)" d="M291.89 119.54L292.37 119.54L292.37 119.54L292.37 138.62L292.37 138.62L291.89 138.62z" stroke="none" fill="#000000" fill-rule="evenodd" /><path transform="matrix(1 0 0 -1 0 841)" d="M499.42 119.54L499.9 119.54L499.9 119.54L499.9 138.62L499.9 138.62L499.42 138.62z" stroke="none" fill="#000000" fill-rule="evenodd" /><g clip-path="url(#194)"><g clip-path="url(#195)"></g><g clip-path="url(#196)"></g></g><g clip-path="url(#197)"><g clip-path="url(#198)"></g><g clip-path="url(#199)"></g></g><path transform="matrix(1 0 0 -1 0 841)" d="M84.264 119.06L84.744 119.06L84.744 119.06L84.744 119.54L84.744 119.54L84.264 119.54z" stroke="none" fill="#000000" fill-rule="evenodd" /><path transform="matrix(1 0 0 -1 0 841)" d="M84.744 119.06L291.884 119.06L291.884 119.06L291.884 119.54L291.884 119.54L84.744 119.54z" stroke="none" fill="#000000" fill-rule="evenodd" /><path transform="matrix(1 0 0 -1 0 841)" d="M291.89 119.06L292.37 119.06L292.37 119.06L292.37 119.54L292.37 119.54L291.89 119.54z" stroke="none" fill="#000000" fill-rule="evenodd" /><path transform="matrix(1 0 0 -1 0 841)" d="M292.37 119.06L499.42 119.06L499.42 119.06L499.42 119.54L499.42 119.54L292.37 119.54z" stroke="none" fill="#000000" fill-rule="evenodd" /><path transform="matrix(1 0 0 -1 0 841)" d="M499.42 119.06L499.9 119.06L499.9 119.06L499.9 119.54L499.9 119.54L499.42 119.54z" stroke="none" fill="#000000" fill-rule="evenodd" /><path transform="matrix(1 0 0 -1 0 841)" d="M84.264 99.984L84.744 99.984L84.744 99.984L84.744 119.064L84.744 119.064L84.264 119.064z" stroke="none" fill="#000000" fill-rule="evenodd" /><path transform="matrix(1 0 0 -1 0 841)" d="M84.264 99.504L84.744 99.504L84.744 99.504L84.744 99.98398L84.744 99.98398L84.264 99.98398z" stroke="none" fill="#000000" fill-rule="evenodd" /><path transform="matrix(1 0 0 -1 0 841)" d="M84.264 99.504L84.744 99.504L84.744 99.504L84.744 99.98398L84.744 99.98398L84.264 99.98398z" stroke="none" fill="#000000" fill-rule="evenodd" /><path transform="matrix(1 0 0 -1 0 841)" d="M84.744 99.504L291.884 99.504L291.884 99.504L291.884 99.98398L291.884 99.98398L84.744 99.98398z" stroke="none" fill="#000000" fill-rule="evenodd" /><path transform="matrix(1 0 0 -1 0 841)" d="M291.89 99.984L292.37 99.984L292.37 99.984L292.37 119.064L292.37 119.064L291.89 119.064z" stroke="none" fill="#000000" fill-rule="evenodd" /><path transform="matrix(1 0 0 -1 0 841)" d="M291.89 99.504L292.37 99.504L292.37 99.504L292.37 99.98398L292.37 99.98398L291.89 99.98398z" stroke="none" fill="#000000" fill-rule="evenodd" /><path transform="matrix(1 0 0 -1 0 841)" d="M292.37 99.504L499.42 99.504L499.42 99.504L499.42 99.98398L499.42 99.98398L292.37 99.98398z" stroke="none" fill="#000000" fill-rule="evenodd" /><path transform="matrix(1 0 0 -1 0 841)" d="M499.42 99.984L499.9 99.984L499.9 99.984L499.9 119.064L499.9 119.064L499.42 119.064z" stroke="none" fill="#000000" fill-rule="evenodd" /><path transform="matrix(1 0 0 -1 0 841)" d="M499.42 99.504L499.9 99.504L499.9 99.504L499.9 99.98398L499.9 99.98398L499.42 99.98398z" stroke="none" fill="#000000" fill-rule="evenodd" /><path transform="matrix(1 0 0 -1 0 841)" d="M499.42 99.504L499.9 99.504L499.9 99.504L499.9 99.98398L499.9 99.98398L499.42 99.98398z" stroke="none" fill="#000000" fill-rule="evenodd" /></g></g></g></svg>