<svg xmlns="http://www.w3.org/2000/svg" xmlns:xlink="http://www.w3.org/1999/xlink" id="body_41" preserveAspectRatio="xMinYMin meet" viewBox="0 0 793 1121"><defs><clipPath id="1"><path d="M0 841L0 -0.9199829L0 -0.9199829L595.32 -0.9199829L595.32 -0.9199829L595.32 841L595.32 841L0 841z" /></clipPath><clipPath id="2"><path d="M0.00125 841.0914L595.4112 841.0914L595.4112 841.0914L595.4112 -0.9186401L595.4112 -0.9186401L0.00125 -0.9186401z" /></clipPath><clipPath id="3"><path d="M295.13 780.251L305.21 780.251L305.21 780.251L305.21 768.011L305.21 768.011L295.13 768.011z" /></clipPath><clipPath id="4"><path d="M295.13 780.256L305.21 780.256L305.21 780.256L305.21 768.016L305.21 768.016L295.13 768.016z" /></clipPath><clipPath id="5"><path d="M295.13 780.256L305.21 780.256L305.21 780.256L305.21 768.016L305.21 768.016L295.13 768.016z" /></clipPath><clipPath id="6"><path d="M84.751 108.55L510.691 108.55L510.691 108.55L510.691 89.44L510.691 89.44L84.751 89.44z" /></clipPath><clipPath id="7"><path d="M84.744 108.54L510.694 108.54L510.694 108.54L510.694 89.43597L510.694 89.43597L84.744 89.43597z" /></clipPath><clipPath id="8"><path d="M84.744 108.54L510.694 108.54L510.694 108.54L510.694 89.43597L510.694 89.43597L84.744 89.43597z" /></clipPath><clipPath id="9"><path d="M84.751 147.55L510.691 147.55L510.691 147.55L510.691 128.59L510.691 128.59L84.751 128.59z" /></clipPath><clipPath id="10"><path d="M84.744 147.54L510.694 147.54L510.694 147.54L510.694 128.58L510.694 128.58L84.744 128.58z" /></clipPath><clipPath id="11"><path d="M84.744 147.54L510.694 147.54L510.694 147.54L510.694 128.58L510.694 128.58L84.744 128.58z" /></clipPath><clipPath id="12"><path d="M84.744 147.54L510.694 147.54L510.694 147.54L510.694 128.58L510.694 128.58L84.744 128.58z" /></clipPath><clipPath id="13"><path d="M84.744 147.54L510.694 147.54L510.694 147.54L510.694 128.58L510.694 128.58L84.744 128.58z" /></clipPath><clipPath id="14"><path d="M84.744 147.54L510.694 147.54L510.694 147.54L510.694 128.58L510.694 128.58L84.744 128.58z" /></clipPath><clipPath id="15"><path d="M84.751 395.73L510.691 395.73L510.691 395.73L510.691 148.15L510.691 148.15L84.751 148.15z" /></clipPath><clipPath id="16"><path d="M84.744 395.73L510.694 395.73L510.694 395.73L510.694 148.15L510.694 148.15L84.744 148.15z" /></clipPath><clipPath id="17"><path d="M84.744 395.73L510.694 395.73L510.694 395.73L510.694 148.15L510.694 148.15L84.744 148.15z" /></clipPath><clipPath id="18"><path d="M84.744 395.73L510.694 395.73L510.694 395.73L510.694 148.15L510.694 148.15L84.744 148.15z" /></clipPath><clipPath id="19"><path d="M84.744 395.73L510.694 395.73L510.694 395.73L510.694 148.15L510.694 148.15L84.744 148.15z" /></clipPath><clipPath id="20"><path d="M84.744 395.73L510.694 395.73L510.694 395.73L510.694 148.15L510.694 148.15L84.744 148.15z" /></clipPath><clipPath id="21"><path d="M84.744 395.73L510.694 395.73L510.694 395.73L510.694 148.15L510.694 148.15L84.744 148.15z" /></clipPath><clipPath id="22"><path d="M84.744 395.73L510.694 395.73L510.694 395.73L510.694 148.15L510.694 148.15L84.744 148.15z" /></clipPath><clipPath id="23"><path d="M84.744 395.73L510.694 395.73L510.694 395.73L510.694 148.15L510.694 148.15L84.744 148.15z" /></clipPath><clipPath id="24"><path d="M84.744 395.73L510.694 395.73L510.694 395.73L510.694 148.15L510.694 148.15L84.744 148.15z" /></clipPath><clipPath id="25"><path d="M84.744 395.73L510.694 395.73L510.694 395.73L510.694 148.15L510.694 148.15L84.744 148.15z" /></clipPath><clipPath id="26"><path d="M84.744 395.73L510.694 395.73L510.694 395.73L510.694 148.15L510.694 148.15L84.744 148.15z" /></clipPath><clipPath id="27"><path d="M84.744 395.73L510.694 395.73L510.694 395.73L510.694 148.15L510.694 148.15L84.744 148.15z" /></clipPath><clipPath id="28"><path d="M84.744 395.73L510.694 395.73L510.694 395.73L510.694 148.15L510.694 148.15L84.744 148.15z" /></clipPath><clipPath id="29"><path d="M84.744 395.73L510.694 395.73L510.694 395.73L510.694 148.15L510.694 148.15L84.744 148.15z" /></clipPath><clipPath id="30"><path d="M84.744 395.73L510.694 395.73L510.694 395.73L510.694 148.15L510.694 148.15L84.744 148.15z" /></clipPath><clipPath id="31"><path d="M84.744 395.73L510.694 395.73L510.694 395.73L510.694 148.15L510.694 148.15L84.744 148.15z" /></clipPath><clipPath id="32"><path d="M84.744 395.73L510.694 395.73L510.694 395.73L510.694 148.15L510.694 148.15L84.744 148.15z" /></clipPath><clipPath id="33"><path d="M84.744 395.73L510.694 395.73L510.694 395.73L510.694 148.15L510.694 148.15L84.744 148.15z" /></clipPath><clipPath id="34"><path d="M84.744 395.73L510.694 395.73L510.694 395.73L510.694 148.15L510.694 148.15L84.744 148.15z" /></clipPath><clipPath id="35"><path d="M84.744 395.73L510.694 395.73L510.694 395.73L510.694 148.15L510.694 148.15L84.744 148.15z" /></clipPath><clipPath id="36"><path d="M84.744 395.73L510.694 395.73L510.694 395.73L510.694 148.15L510.694 148.15L84.744 148.15z" /></clipPath><clipPath id="37"><path d="M84.744 395.73L510.694 395.73L510.694 395.73L510.694 148.15L510.694 148.15L84.744 148.15z" /></clipPath><clipPath id="38"><path d="M84.744 395.73L510.694 395.73L510.694 395.73L510.694 148.15L510.694 148.15L84.744 148.15z" /></clipPath><clipPath id="39"><path d="M84.744 395.73L510.694 395.73L510.694 395.73L510.694 148.15L510.694 148.15L84.744 148.15z" /></clipPath><clipPath id="40"><path d="M84.744 395.73L510.694 395.73L510.694 395.73L510.694 148.15L510.694 148.15L84.744 148.15z" /></clipPath><clipPath id="41"><path d="M84.744 395.73L510.694 395.73L510.694 395.73L510.694 148.15L510.694 148.15L84.744 148.15z" /></clipPath><clipPath id="42"><path d="M84.744 395.73L510.694 395.73L510.694 395.73L510.694 148.15L510.694 148.15L84.744 148.15z" /></clipPath><clipPath id="43"><path d="M84.744 395.73L510.694 395.73L510.694 395.73L510.694 148.15L510.694 148.15L84.744 148.15z" /></clipPath><clipPath id="44"><path d="M84.744 395.73L510.694 395.73L510.694 395.73L510.694 148.15L510.694 148.15L84.744 148.15z" /></clipPath><clipPath id="45"><path d="M84.744 395.73L510.694 395.73L510.694 395.73L510.694 148.15L510.694 148.15L84.744 148.15z" /></clipPath><clipPath id="46"><path d="M84.744 395.73L510.694 395.73L510.694 395.73L510.694 148.15L510.694 148.15L84.744 148.15z" /></clipPath><clipPath id="47"><path d="M84.744 395.73L510.694 395.73L510.694 395.73L510.694 148.15L510.694 148.15L84.744 148.15z" /></clipPath><clipPath id="48"><path d="M84.744 395.73L510.694 395.73L510.694 395.73L510.694 148.15L510.694 148.15L84.744 148.15z" /></clipPath><clipPath id="49"><path d="M84.751 434.85L510.691 434.85L510.691 434.85L510.691 415.77L510.691 415.77L84.751 415.77z" /></clipPath><clipPath id="50"><path d="M84.744 434.85L510.694 434.85L510.694 434.85L510.694 415.77L510.694 415.77L84.744 415.77z" /></clipPath><clipPath id="51"><path d="M84.744 434.85L510.694 434.85L510.694 434.85L510.694 415.77L510.694 415.77L84.744 415.77z" /></clipPath><clipPath id="52"><path d="M84.744 434.85L510.694 434.85L510.694 434.85L510.694 415.77L510.694 415.77L84.744 415.77z" /></clipPath><clipPath id="53"><path d="M84.744 434.85L510.694 434.85L510.694 434.85L510.694 415.77L510.694 415.77L84.744 415.77z" /></clipPath><clipPath id="54"><path d="M84.744 434.85L510.694 434.85L510.694 434.85L510.694 415.77L510.694 415.77L84.744 415.77z" /></clipPath><clipPath id="55"><path d="M84.744 434.85L510.694 434.85L510.694 434.85L510.694 415.77L510.694 415.77L84.744 415.77z" /></clipPath><clipPath id="56"><path d="M84.751 492.6L510.691 492.6L510.691 492.6L510.691 435.33L510.691 435.33L84.751 435.33z" /></clipPath><clipPath id="57"><path d="M84.744 492.59L510.694 492.59L510.694 492.59L510.694 435.326L510.694 435.326L84.744 435.326z" /></clipPath><clipPath id="58"><path d="M84.744 492.59L510.694 492.59L510.694 492.59L510.694 435.326L510.694 435.326L84.744 435.326z" /></clipPath><clipPath id="59"><path d="M84.744 492.59L510.694 492.59L510.694 492.59L510.694 435.326L510.694 435.326L84.744 435.326z" /></clipPath><clipPath id="60"><path d="M84.744 492.59L510.694 492.59L510.694 492.59L510.694 435.326L510.694 435.326L84.744 435.326z" /></clipPath><clipPath id="61"><path d="M84.744 492.59L510.694 492.59L510.694 492.59L510.694 435.326L510.694 435.326L84.744 435.326z" /></clipPath><clipPath id="62"><path d="M84.744 492.59L510.694 492.59L510.694 492.59L510.694 435.326L510.694 435.326L84.744 435.326z" /></clipPath><clipPath id="63"><path d="M84.744 492.59L510.694 492.59L510.694 492.59L510.694 435.326L510.694 435.326L84.744 435.326z" /></clipPath></defs><g transform="matrix(1.333333 0 0 1.333333 0 0)"><g><g clip-path="url(#1)"><path transform="matrix(1 0 0 -1 0 841)" d="M457.63 53.424L505.534 53.424L505.534 53.424L505.534 54.02404L505.534 54.02404L457.63 54.02404z" stroke="none" fill="#000000" fill-rule="evenodd" /><g clip-path="url(#2)"><path transform="matrix(1 0 0 -1 0 841)" d="M88.464 78.984L506.974 78.984L506.974 78.984L506.974 81.984L506.974 81.984L88.464 81.984z" stroke="none" fill="#000000" fill-rule="evenodd" /><path transform="matrix(1 0 0 -1 0 841)" d="M88.464 77.544L506.974 77.544L506.974 77.544L506.974 78.26397L506.974 78.26397L88.464 78.26397z" stroke="none" fill="#000000" fill-rule="evenodd" /></g><g clip-path="url(#3)"><g clip-path="url(#4)"></g><g clip-path="url(#5)"></g></g><path transform="matrix(1 0 0 -1 0 841)" d="M84.744 732.46L510.694 732.46L510.694 732.46L510.694 751.564L510.694 751.564L84.744 751.564z" stroke="none" fill="#DAEEF3" fill-rule="evenodd" /><g clip-path="url(#6)"><path transform="matrix(1 0 0 -1 0 841)" d="M89.904 732.46L505.534 732.46L505.534 732.46L505.534 751.564L505.534 751.564L89.904 751.564z" stroke="none" fill="#DAEEF3" fill-rule="evenodd" /><g clip-path="url(#7)"></g><g clip-path="url(#8)"></g></g><path transform="matrix(1 0 0 -1 0 841)" d="M84.264 751.56L84.744 751.56L84.744 751.56L84.744 752.04L84.744 752.04L84.264 752.04z" stroke="none" fill="#000000" fill-rule="evenodd" /><path transform="matrix(1 0 0 -1 0 841)" d="M84.264 751.56L84.744 751.56L84.744 751.56L84.744 752.04L84.744 752.04L84.264 752.04z" stroke="none" fill="#000000" fill-rule="evenodd" /><path transform="matrix(1 0 0 -1 0 841)" d="M84.744 751.56L510.694 751.56L510.694 751.56L510.694 752.04L510.694 752.04L84.744 752.04z" stroke="none" fill="#000000" fill-rule="evenodd" /><path transform="matrix(1 0 0 -1 0 841)" d="M510.7 751.56L511.18 751.56L511.18 751.56L511.18 752.04L511.18 752.04L510.7 752.04z" stroke="none" fill="#000000" fill-rule="evenodd" /><path transform="matrix(1 0 0 -1 0 841)" d="M510.7 751.56L511.18 751.56L511.18 751.56L511.18 752.04L511.18 752.04L510.7 752.04z" stroke="none" fill="#000000" fill-rule="evenodd" /><path transform="matrix(1 0 0 -1 0 841)" d="M84.264 732.46L84.744 732.46L84.744 732.46L84.744 751.564L84.744 751.564L84.264 751.564z" stroke="none" fill="#000000" fill-rule="evenodd" /><path transform="matrix(1 0 0 -1 0 841)" d="M84.264 731.98L84.744 731.98L84.744 731.98L84.744 732.46L84.744 732.46L84.264 732.46z" stroke="none" fill="#000000" fill-rule="evenodd" /><path transform="matrix(1 0 0 -1 0 841)" d="M84.264 731.98L84.744 731.98L84.744 731.98L84.744 732.46L84.744 732.46L84.264 732.46z" stroke="none" fill="#000000" fill-rule="evenodd" /><path transform="matrix(1 0 0 -1 0 841)" d="M84.744 731.98L510.694 731.98L510.694 731.98L510.694 732.46L510.694 732.46L84.744 732.46z" stroke="none" fill="#000000" fill-rule="evenodd" /><path transform="matrix(1 0 0 -1 0 841)" d="M510.7 732.46L511.18 732.46L511.18 732.46L511.18 751.564L511.18 751.564L510.7 751.564z" stroke="none" fill="#000000" fill-rule="evenodd" /><path transform="matrix(1 0 0 -1 0 841)" d="M510.7 731.98L511.18 731.98L511.18 731.98L511.18 732.46L511.18 732.46L510.7 732.46z" stroke="none" fill="#000000" fill-rule="evenodd" /><path transform="matrix(1 0 0 -1 0 841)" d="M510.7 731.98L511.18 731.98L511.18 731.98L511.18 732.46L511.18 732.46L510.7 732.46z" stroke="none" fill="#000000" fill-rule="evenodd" /><path transform="matrix(1 0 0 -1 0 841)" d="M84.744 693.46L510.694 693.46L510.694 693.46L510.694 712.42L510.694 712.42L84.744 712.42z" stroke="none" fill="#0070C0" fill-rule="evenodd" /><g clip-path="url(#9)"><path transform="matrix(1 0 0 -1 0 841)" d="M89.904 693.46L505.534 693.46L505.534 693.46L505.534 712.42L505.534 712.42L89.904 712.42z" stroke="none" fill="#0070C0" fill-rule="evenodd" /><g clip-path="url(#10)"></g><g clip-path="url(#11)"></g><g clip-path="url(#12)"></g><g clip-path="url(#13)"></g><g clip-path="url(#14)"></g></g><path transform="matrix(1 0 0 -1 0 841)" d="M84.264 712.42L84.744 712.42L84.744 712.42L84.744 712.9L84.744 712.9L84.264 712.9z" stroke="none" fill="#000000" fill-rule="evenodd" /><path transform="matrix(1 0 0 -1 0 841)" d="M84.264 712.42L84.744 712.42L84.744 712.42L84.744 712.9L84.744 712.9L84.264 712.9z" stroke="none" fill="#000000" fill-rule="evenodd" /><path transform="matrix(1 0 0 -1 0 841)" d="M84.744 712.42L510.694 712.42L510.694 712.42L510.694 712.9L510.694 712.9L84.744 712.9z" stroke="none" fill="#000000" fill-rule="evenodd" /><path transform="matrix(1 0 0 -1 0 841)" d="M510.7 712.42L511.18 712.42L511.18 712.42L511.18 712.9L511.18 712.9L510.7 712.9z" stroke="none" fill="#000000" fill-rule="evenodd" /><path transform="matrix(1 0 0 -1 0 841)" d="M510.7 712.42L511.18 712.42L511.18 712.42L511.18 712.9L511.18 712.9L510.7 712.9z" stroke="none" fill="#000000" fill-rule="evenodd" /><path transform="matrix(1 0 0 -1 0 841)" d="M84.264 693.46L84.744 693.46L84.744 693.46L84.744 712.42L84.744 712.42L84.264 712.42z" stroke="none" fill="#000000" fill-rule="evenodd" /><path transform="matrix(1 0 0 -1 0 841)" d="M510.7 693.46L511.18 693.46L511.18 693.46L511.18 712.42L511.18 712.42L510.7 712.42z" stroke="none" fill="#000000" fill-rule="evenodd" /><path transform="matrix(1 0 0 -1 0 841)" d="M84.744 445.27L510.694 445.27L510.694 445.27L510.694 692.85L510.694 692.85L84.744 692.85z" stroke="none" fill="#DAEEF3" fill-rule="evenodd" /><g clip-path="url(#15)"><path transform="matrix(1 0 0 -1 0 841)" d="M89.904 673.9L505.534 673.9L505.534 673.9L505.534 692.86L505.534 692.86L89.904 692.86z" stroke="none" fill="#DAEEF3" fill-rule="evenodd" /><g clip-path="url(#16)"></g><g clip-path="url(#17)"></g><path transform="matrix(1 0 0 -1 0 841)" d="M89.904 654.82L505.534 654.82L505.534 654.82L505.534 673.9L505.534 673.9L89.904 673.9z" stroke="none" fill="#DAEEF3" fill-rule="evenodd" /><g clip-path="url(#18)"></g><g clip-path="url(#19)"></g><g clip-path="url(#20)"></g><path transform="matrix(1 0 0 -1 0 841)" d="M89.904 635.74L505.534 635.74L505.534 635.74L505.534 654.82L505.534 654.82L89.904 654.82z" stroke="none" fill="#DAEEF3" fill-rule="evenodd" /><g clip-path="url(#21)"></g><g clip-path="url(#22)"></g><g clip-path="url(#23)"></g><path transform="matrix(1 0 0 -1 0 841)" d="M89.904 616.66L505.534 616.66L505.534 616.66L505.534 635.74L505.534 635.74L89.904 635.74z" stroke="none" fill="#DAEEF3" fill-rule="evenodd" /><g clip-path="url(#24)"></g><g clip-path="url(#25)"></g><g clip-path="url(#26)"></g><path transform="matrix(1 0 0 -1 0 841)" d="M89.904 597.7L505.534 597.7L505.534 597.7L505.534 616.66L505.534 616.66L89.904 616.66z" stroke="none" fill="#DAEEF3" fill-rule="evenodd" /><g clip-path="url(#27)"></g><g clip-path="url(#28)"></g><g clip-path="url(#29)"></g><path transform="matrix(1 0 0 -1 0 841)" d="M89.904 578.62L505.534 578.62L505.534 578.62L505.534 597.7L505.534 597.7L89.904 597.7z" stroke="none" fill="#DAEEF3" fill-rule="evenodd" /><g clip-path="url(#30)"></g><g clip-path="url(#31)"></g><g clip-path="url(#32)"></g><path transform="matrix(1 0 0 -1 0 841)" d="M89.904 559.54L505.534 559.54L505.534 559.54L505.534 578.62L505.534 578.62L89.904 578.62z" stroke="none" fill="#DAEEF3" fill-rule="evenodd" /><g clip-path="url(#33)"></g><g clip-path="url(#34)"></g><g clip-path="url(#35)"></g><path transform="matrix(1 0 0 -1 0 841)" d="M89.904 540.43L505.534 540.43L505.534 540.43L505.534 559.534L505.534 559.534L89.904 559.534z" stroke="none" fill="#DAEEF3" fill-rule="evenodd" /><g clip-path="url(#36)"></g><g clip-path="url(#37)"></g><g clip-path="url(#38)"></g><path transform="matrix(1 0 0 -1 0 841)" d="M89.904 521.47L505.534 521.47L505.534 521.47L505.534 540.43L505.534 540.43L89.904 540.43z" stroke="none" fill="#DAEEF3" fill-rule="evenodd" /><g clip-path="url(#39)"></g><g clip-path="url(#40)"></g><g clip-path="url(#41)"></g><path transform="matrix(1 0 0 -1 0 841)" d="M89.904 502.39L505.534 502.39L505.534 502.39L505.534 521.47L505.534 521.47L89.904 521.47z" stroke="none" fill="#DAEEF3" fill-rule="evenodd" /><g clip-path="url(#42)"></g><g clip-path="url(#43)"></g><path transform="matrix(1 0 0 -1 0 841)" d="M89.904 483.31L505.534 483.31L505.534 483.31L505.534 502.39L505.534 502.39L89.904 502.39z" stroke="none" fill="#DAEEF3" fill-rule="evenodd" /><g clip-path="url(#44)"></g><path transform="matrix(1 0 0 -1 0 841)" d="M89.904 464.23L505.534 464.23L505.534 464.23L505.534 483.31L505.534 483.31L89.904 483.31z" stroke="none" fill="#DAEEF3" fill-rule="evenodd" /><g clip-path="url(#45)"></g><g clip-path="url(#46)"></g><path transform="matrix(1 0 0 -1 0 841)" d="M89.904 445.27L505.534 445.27L505.534 445.27L505.534 464.23L505.534 464.23L89.904 464.23z" stroke="none" fill="#DAEEF3" fill-rule="evenodd" /><g clip-path="url(#47)"></g><g clip-path="url(#48)"></g></g><path transform="matrix(1 0 0 -1 0 841)" d="M84.264 692.98L84.744 692.98L84.744 692.98L84.744 693.46L84.744 693.46L84.264 693.46z" stroke="none" fill="#000000" fill-rule="evenodd" /><path transform="matrix(1 0 0 -1 0 841)" d="M84.744 692.98L510.694 692.98L510.694 692.98L510.694 693.46L510.694 693.46L84.744 693.46z" stroke="none" fill="#000000" fill-rule="evenodd" /><path transform="matrix(1 0 0 -1 0 841)" d="M510.7 692.98L511.18 692.98L511.18 692.98L511.18 693.46L511.18 693.46L510.7 693.46z" stroke="none" fill="#000000" fill-rule="evenodd" /><path transform="matrix(1 0 0 -1 0 841)" d="M84.264 445.15L84.744 445.15L84.744 445.15L84.744 692.97L84.744 692.97L84.264 692.97z" stroke="none" fill="#000000" fill-rule="evenodd" /><path transform="matrix(1 0 0 -1 0 841)" d="M84.264 444.67L84.744 444.67L84.744 444.67L84.744 445.15L84.744 445.15L84.264 445.15z" stroke="none" fill="#000000" fill-rule="evenodd" /><path transform="matrix(1 0 0 -1 0 841)" d="M84.264 444.67L84.744 444.67L84.744 444.67L84.744 445.15L84.744 445.15L84.264 445.15z" stroke="none" fill="#000000" fill-rule="evenodd" /><path transform="matrix(1 0 0 -1 0 841)" d="M84.744 444.67L510.694 444.67L510.694 444.67L510.694 445.15L510.694 445.15L84.744 445.15z" stroke="none" fill="#000000" fill-rule="evenodd" /><path transform="matrix(1 0 0 -1 0 841)" d="M510.7 445.15L511.18 445.15L511.18 445.15L511.18 692.97L511.18 692.97L510.7 692.97z" stroke="none" fill="#000000" fill-rule="evenodd" /><path transform="matrix(1 0 0 -1 0 841)" d="M510.7 444.67L511.18 444.67L511.18 444.67L511.18 445.15L511.18 445.15L510.7 445.15z" stroke="none" fill="#000000" fill-rule="evenodd" /><path transform="matrix(1 0 0 -1 0 841)" d="M510.7 444.67L511.18 444.67L511.18 444.67L511.18 445.15L511.18 445.15L510.7 445.15z" stroke="none" fill="#000000" fill-rule="evenodd" /><path transform="matrix(1 0 0 -1 0 841)" d="M84.744 406.15L510.694 406.15L510.694 406.15L510.694 425.23L510.694 425.23L84.744 425.23z" stroke="none" fill="#0070C0" fill-rule="evenodd" /><g clip-path="url(#49)"><path transform="matrix(1 0 0 -1 0 841)" d="M89.904 406.15L505.534 406.15L505.534 406.15L505.534 425.23L505.534 425.23L89.904 425.23z" stroke="none" fill="#0070C0" fill-rule="evenodd" /><g clip-path="url(#50)"></g><g clip-path="url(#51)"></g><g clip-path="url(#52)"></g><g clip-path="url(#53)"></g><g clip-path="url(#54)"></g><g clip-path="url(#55)"></g></g><path transform="matrix(1 0 0 -1 0 841)" d="M84.264 425.23L84.744 425.23L84.744 425.23L84.744 425.71L84.744 425.71L84.264 425.71z" stroke="none" fill="#000000" fill-rule="evenodd" /><path transform="matrix(1 0 0 -1 0 841)" d="M84.264 425.23L84.744 425.23L84.744 425.23L84.744 425.71L84.744 425.71L84.264 425.71z" stroke="none" fill="#000000" fill-rule="evenodd" /><path transform="matrix(1 0 0 -1 0 841)" d="M84.744 425.23L510.694 425.23L510.694 425.23L510.694 425.71L510.694 425.71L84.744 425.71z" stroke="none" fill="#000000" fill-rule="evenodd" /><path transform="matrix(1 0 0 -1 0 841)" d="M510.7 425.23L511.18 425.23L511.18 425.23L511.18 425.71L511.18 425.71L510.7 425.71z" stroke="none" fill="#000000" fill-rule="evenodd" /><path transform="matrix(1 0 0 -1 0 841)" d="M510.7 425.23L511.18 425.23L511.18 425.23L511.18 425.71L511.18 425.71L510.7 425.71z" stroke="none" fill="#000000" fill-rule="evenodd" /><path transform="matrix(1 0 0 -1 0 841)" d="M84.264 406.15L84.744 406.15L84.744 406.15L84.744 425.23L84.744 425.23L84.264 425.23z" stroke="none" fill="#000000" fill-rule="evenodd" /><path transform="matrix(1 0 0 -1 0 841)" d="M510.7 406.15L511.18 406.15L511.18 406.15L511.18 425.23L511.18 425.23L510.7 425.23z" stroke="none" fill="#000000" fill-rule="evenodd" /><path transform="matrix(1 0 0 -1 0 841)" d="M84.744 348.41L510.694 348.41L510.694 348.41L510.694 405.674L510.694 405.674L84.744 405.674z" stroke="none" fill="#DAEEF3" fill-rule="evenodd" /><g clip-path="url(#56)"><path transform="matrix(1 0 0 -1 0 841)" d="M89.904 386.59L505.534 386.59L505.534 386.59L505.534 405.67L505.534 405.67L89.904 405.67z" stroke="none" fill="#DAEEF3" fill-rule="evenodd" /><g clip-path="url(#57)"></g><g clip-path="url(#58)"></g><path transform="matrix(1 0 0 -1 0 841)" d="M89.904 367.49L505.534 367.49L505.534 367.49L505.534 386.594L505.534 386.594L89.904 386.594z" stroke="none" fill="#DAEEF3" fill-rule="evenodd" /><g clip-path="url(#59)"></g><g clip-path="url(#60)"></g><g clip-path="url(#61)"></g><path transform="matrix(1 0 0 -1 0 841)" d="M89.904 348.41L505.534 348.41L505.534 348.41L505.534 367.49L505.534 367.49L89.904 367.49z" stroke="none" fill="#DAEEF3" fill-rule="evenodd" /><g clip-path="url(#62)"></g><g clip-path="url(#63)"></g></g><path transform="matrix(1 0 0 -1 0 841)" d="M84.264 405.67L84.744 405.67L84.744 405.67L84.744 406.15L84.744 406.15L84.264 406.15z" stroke="none" fill="#000000" fill-rule="evenodd" /><path transform="matrix(1 0 0 -1 0 841)" d="M84.744 405.67L510.694 405.67L510.694 405.67L510.694 406.15L510.694 406.15L84.744 406.15z" stroke="none" fill="#000000" fill-rule="evenodd" /><path transform="matrix(1 0 0 -1 0 841)" d="M510.7 405.67L511.18 405.67L511.18 405.67L511.18 406.15L511.18 406.15L510.7 406.15z" stroke="none" fill="#000000" fill-rule="evenodd" /><path transform="matrix(1 0 0 -1 0 841)" d="M84.264 348.41L84.744 348.41L84.744 348.41L84.744 405.674L84.744 405.674L84.264 405.674z" stroke="none" fill="#000000" fill-rule="evenodd" /><path transform="matrix(1 0 0 -1 0 841)" d="M84.264 347.93L84.744 347.93L84.744 347.93L84.744 348.41L84.744 348.41L84.264 348.41z" stroke="none" fill="#000000" fill-rule="evenodd" /><path transform="matrix(1 0 0 -1 0 841)" d="M84.264 347.93L84.744 347.93L84.744 347.93L84.744 348.41L84.744 348.41L84.264 348.41z" stroke="none" fill="#000000" fill-rule="evenodd" /><path transform="matrix(1 0 0 -1 0 841)" d="M84.744 347.93L510.694 347.93L510.694 347.93L510.694 348.41L510.694 348.41L84.744 348.41z" stroke="none" fill="#000000" fill-rule="evenodd" /><path transform="matrix(1 0 0 -1 0 841)" d="M510.7 348.41L511.18 348.41L511.18 348.41L511.18 405.674L511.18 405.674L510.7 405.674z" stroke="none" fill="#000000" fill-rule="evenodd" /><path transform="matrix(1 0 0 -1 0 841)" d="M510.7 347.93L511.18 347.93L511.18 347.93L511.18 348.41L511.18 348.41L510.7 348.41z" stroke="none" fill="#000000" fill-rule="evenodd" /><path transform="matrix(1 0 0 -1 0 841)" d="M510.7 347.93L511.18 347.93L511.18 347.93L511.18 348.41L511.18 348.41L510.7 348.41z" stroke="none" fill="#000000" fill-rule="evenodd" /></g></g></g></svg>