<svg xmlns="http://www.w3.org/2000/svg" xmlns:xlink="http://www.w3.org/1999/xlink" id="body_38" preserveAspectRatio="xMinYMin meet" viewBox="0 0 793 1121"><defs><clipPath id="1"><path d="M0 841L0 -0.9199829L0 -0.9199829L595.32 -0.9199829L595.32 -0.9199829L595.32 841L595.32 841L0 841z" /></clipPath><clipPath id="2"><path d="M0.00125 841.0914L595.4112 841.0914L595.4112 841.0914L595.4112 -0.9186401L595.4112 -0.9186401L0.00125 -0.9186401z" /></clipPath><clipPath id="3"><path d="M295.13 780.251L305.21 780.251L305.21 780.251L305.21 768.011L305.21 768.011L295.13 768.011z" /></clipPath><clipPath id="4"><path d="M295.13 780.256L305.21 780.256L305.21 780.256L305.21 768.016L305.21 768.016L295.13 768.016z" /></clipPath><clipPath id="5"><path d="M295.13 780.256L305.21 780.256L305.21 780.256L305.21 768.016L305.21 768.016L295.13 768.016z" /></clipPath><clipPath id="6"><path d="M84.751 165.67L146.191 165.67L146.191 165.67L146.191 89.44L146.191 89.44L84.751 89.44z" /></clipPath><clipPath id="7"><path d="M84.744 165.66L146.184 165.66L146.184 165.66L146.184 89.43597L146.184 89.43597L84.744 89.43597z" /></clipPath><clipPath id="8"><path d="M84.744 165.66L146.184 165.66L146.184 165.66L146.184 89.43597L146.184 89.43597L84.744 89.43597z" /></clipPath><clipPath id="9"><path d="M146.67 165.67L202.845 165.67L202.845 165.67L202.845 89.44L202.845 89.44L146.67 89.44z" /></clipPath><clipPath id="10"><path d="M146.66 165.66L202.844 165.66L202.844 165.66L202.844 89.43597L202.844 89.43597L146.66 89.43597z" /></clipPath><clipPath id="11"><path d="M146.66 165.66L202.844 165.66L202.844 165.66L202.844 89.43597L202.844 89.43597L146.66 89.43597z" /></clipPath><clipPath id="12"><path d="M203.45 165.67L252.65 165.67L252.65 165.67L252.65 89.44L252.65 89.44L203.45 89.44z" /></clipPath><clipPath id="13"><path d="M203.45 165.66L252.65 165.66L252.65 165.66L252.65 89.43597L252.65 89.43597L203.45 89.43597z" /></clipPath><clipPath id="14"><path d="M203.45 165.66L252.65 165.66L252.65 165.66L252.65 89.43597L252.65 89.43597L203.45 89.43597z" /></clipPath><clipPath id="15"><path d="M253.25 165.67L311.45 165.67L311.45 165.67L311.45 89.44L311.45 89.44L253.25 89.44z" /></clipPath><clipPath id="16"><path d="M253.25 165.66L311.45 165.66L311.45 165.66L311.45 89.43597L311.45 89.43597L253.25 89.43597z" /></clipPath><clipPath id="17"><path d="M253.25 165.66L311.45 165.66L311.45 165.66L311.45 89.43597L311.45 89.43597L253.25 89.43597z" /></clipPath><clipPath id="18"><path d="M311.93 165.67L510.7 165.67L510.7 165.67L510.7 89.44L510.7 89.44L311.93 89.44z" /></clipPath><clipPath id="19"><path d="M311.93 165.66L510.7 165.66L510.7 165.66L510.7 89.43597L510.7 89.43597L311.93 89.43597z" /></clipPath><clipPath id="20"><path d="M311.93 165.66L510.7 165.66L510.7 165.66L510.7 89.43597L510.7 89.43597L311.93 89.43597z" /></clipPath><clipPath id="21"><path d="M311.93 165.66L510.7 165.66L510.7 165.66L510.7 89.43597L510.7 89.43597L311.93 89.43597z" /></clipPath><clipPath id="22"><path d="M311.93 165.66L510.7 165.66L510.7 165.66L510.7 89.43597L510.7 89.43597L311.93 89.43597z" /></clipPath><clipPath id="23"><path d="M311.93 165.66L510.7 165.66L510.7 165.66L510.7 89.43597L510.7 89.43597L311.93 89.43597z" /></clipPath><clipPath id="24"><path d="M311.93 165.66L510.7 165.66L510.7 165.66L510.7 89.43597L510.7 89.43597L311.93 89.43597z" /></clipPath><clipPath id="25"><path d="M311.93 165.66L510.7 165.66L510.7 165.66L510.7 89.43597L510.7 89.43597L311.93 89.43597z" /></clipPath><clipPath id="26"><path d="M311.93 165.66L510.7 165.66L510.7 165.66L510.7 89.43597L510.7 89.43597L311.93 89.43597z" /></clipPath><clipPath id="27"><path d="M311.93 165.66L510.7 165.66L510.7 165.66L510.7 89.43597L510.7 89.43597L311.93 89.43597z" /></clipPath><clipPath id="28"><path d="M311.93 165.66L510.7 165.66L510.7 165.66L510.7 89.43597L510.7 89.43597L311.93 89.43597z" /></clipPath><clipPath id="29"><path d="M311.93 165.66L510.7 165.66L510.7 165.66L510.7 89.43597L510.7 89.43597L311.93 89.43597z" /></clipPath><clipPath id="30"><path d="M311.93 165.66L510.7 165.66L510.7 165.66L510.7 89.43597L510.7 89.43597L311.93 89.43597z" /></clipPath></defs><g transform="matrix(1.333333 0 0 1.333333 0 0)"><g><g clip-path="url(#1)"><path transform="matrix(1 0 0 -1 0 841)" d="M457.63 53.424L505.534 53.424L505.534 53.424L505.534 54.02404L505.534 54.02404L457.63 54.02404z" stroke="none" fill="#000000" fill-rule="evenodd" /><g clip-path="url(#2)"><path transform="matrix(1 0 0 -1 0 841)" d="M88.464 78.984L506.974 78.984L506.974 78.984L506.974 81.984L506.974 81.984L88.464 81.984z" stroke="none" fill="#000000" fill-rule="evenodd" /><path transform="matrix(1 0 0 -1 0 841)" d="M88.464 77.544L506.974 77.544L506.974 77.544L506.974 78.26397L506.974 78.26397L88.464 78.26397z" stroke="none" fill="#000000" fill-rule="evenodd" /></g><g clip-path="url(#3)"><g clip-path="url(#4)"></g><g clip-path="url(#5)"></g></g><path transform="matrix(1 0 0 -1 0 841)" d="M84.744 675.34L146.184 675.34L146.184 675.34L146.184 751.564L146.184 751.564L84.744 751.564z" stroke="none" fill="#DAEEF3" fill-rule="evenodd" /><g clip-path="url(#6)"><path transform="matrix(1 0 0 -1 0 841)" d="M89.904 732.46L141.024 732.46L141.024 732.46L141.024 751.564L141.024 751.564L89.904 751.564z" stroke="none" fill="#DAEEF3" fill-rule="evenodd" /><g clip-path="url(#7)"></g><g clip-path="url(#8)"></g></g><path transform="matrix(1 0 0 -1 0 841)" d="M146.66 675.34L202.844 675.34L202.844 675.34L202.844 751.564L202.844 751.564L146.66 751.564z" stroke="none" fill="#DAEEF3" fill-rule="evenodd" /><g clip-path="url(#9)"><path transform="matrix(1 0 0 -1 0 841)" d="M151.82 732.46L197.66 732.46L197.66 732.46L197.66 751.564L197.66 751.564L151.82 751.564z" stroke="none" fill="#DAEEF3" fill-rule="evenodd" /><g clip-path="url(#10)"></g><g clip-path="url(#11)"></g></g><path transform="matrix(1 0 0 -1 0 841)" d="M203.45 675.34L252.65 675.34L252.65 675.34L252.65 751.564L252.65 751.564L203.45 751.564z" stroke="none" fill="#DAEEF3" fill-rule="evenodd" /><g clip-path="url(#12)"><path transform="matrix(1 0 0 -1 0 841)" d="M208.61 732.46L247.61 732.46L247.61 732.46L247.61 751.564L247.61 751.564L208.61 751.564z" stroke="none" fill="#DAEEF3" fill-rule="evenodd" /><g clip-path="url(#13)"></g><g clip-path="url(#14)"></g></g><path transform="matrix(1 0 0 -1 0 841)" d="M253.25 675.34L311.45 675.34L311.45 675.34L311.45 751.564L311.45 751.564L253.25 751.564z" stroke="none" fill="#DAEEF3" fill-rule="evenodd" /><g clip-path="url(#15)"><path transform="matrix(1 0 0 -1 0 841)" d="M258.41 732.46L306.29 732.46L306.29 732.46L306.29 751.564L306.29 751.564L258.41 751.564z" stroke="none" fill="#DAEEF3" fill-rule="evenodd" /><g clip-path="url(#16)"></g><g clip-path="url(#17)"></g></g><path transform="matrix(1 0 0 -1 0 841)" d="M311.93 675.34L510.7 675.34L510.7 675.34L510.7 751.564L510.7 751.564L311.93 751.564z" stroke="none" fill="#DAEEF3" fill-rule="evenodd" /><g clip-path="url(#18)"><path transform="matrix(1 0 0 -1 0 841)" d="M317.09 732.46L505.54 732.46L505.54 732.46L505.54 751.564L505.54 751.564L317.09 751.564z" stroke="none" fill="#DAEEF3" fill-rule="evenodd" /><g clip-path="url(#19)"></g><g clip-path="url(#20)"></g><g clip-path="url(#21)"></g><path transform="matrix(1 0 0 -1 0 841)" d="M317.09 713.5L505.54 713.5L505.54 713.5L505.54 732.46L505.54 732.46L317.09 732.46z" stroke="none" fill="#DAEEF3" fill-rule="evenodd" /><g clip-path="url(#22)"></g><g clip-path="url(#23)"></g><g clip-path="url(#24)"></g><path transform="matrix(1 0 0 -1 0 841)" d="M317.09 694.42L505.54 694.42L505.54 694.42L505.54 713.5L505.54 713.5L317.09 713.5z" stroke="none" fill="#DAEEF3" fill-rule="evenodd" /><g clip-path="url(#25)"></g><g clip-path="url(#26)"></g><g clip-path="url(#27)"></g><path transform="matrix(1 0 0 -1 0 841)" d="M317.09 675.34L505.54 675.34L505.54 675.34L505.54 694.42L505.54 694.42L317.09 694.42z" stroke="none" fill="#DAEEF3" fill-rule="evenodd" /><g clip-path="url(#28)"></g><g clip-path="url(#29)"></g><g clip-path="url(#30)"></g></g><path transform="matrix(1 0 0 -1 0 841)" d="M84.264 751.56L84.744 751.56L84.744 751.56L84.744 752.04L84.744 752.04L84.264 752.04z" stroke="none" fill="#000000" fill-rule="evenodd" /><path transform="matrix(1 0 0 -1 0 841)" d="M84.264 751.56L84.744 751.56L84.744 751.56L84.744 752.04L84.744 752.04L84.264 752.04z" stroke="none" fill="#000000" fill-rule="evenodd" /><path transform="matrix(1 0 0 -1 0 841)" d="M84.744 751.56L146.184 751.56L146.184 751.56L146.184 752.04L146.184 752.04L84.744 752.04z" stroke="none" fill="#000000" fill-rule="evenodd" /><path transform="matrix(1 0 0 -1 0 841)" d="M146.18 751.56L146.66 751.56L146.66 751.56L146.66 752.04L146.66 752.04L146.18 752.04z" stroke="none" fill="#000000" fill-rule="evenodd" /><path transform="matrix(1 0 0 -1 0 841)" d="M146.66 751.56L202.964 751.56L202.964 751.56L202.964 752.04L202.964 752.04L146.66 752.04z" stroke="none" fill="#000000" fill-rule="evenodd" /><path transform="matrix(1 0 0 -1 0 841)" d="M202.97 751.56L203.45 751.56L203.45 751.56L203.45 752.04L203.45 752.04L202.97 752.04z" stroke="none" fill="#000000" fill-rule="evenodd" /><path transform="matrix(1 0 0 -1 0 841)" d="M203.45 751.56L252.77 751.56L252.77 751.56L252.77 752.04L252.77 752.04L203.45 752.04z" stroke="none" fill="#000000" fill-rule="evenodd" /><path transform="matrix(1 0 0 -1 0 841)" d="M252.77 751.56L253.25 751.56L253.25 751.56L253.25 752.04L253.25 752.04L252.77 752.04z" stroke="none" fill="#000000" fill-rule="evenodd" /><path transform="matrix(1 0 0 -1 0 841)" d="M253.25 751.56L311.45 751.56L311.45 751.56L311.45 752.04L311.45 752.04L253.25 752.04z" stroke="none" fill="#000000" fill-rule="evenodd" /><path transform="matrix(1 0 0 -1 0 841)" d="M311.45 751.56L311.93 751.56L311.93 751.56L311.93 752.04L311.93 752.04L311.45 752.04z" stroke="none" fill="#000000" fill-rule="evenodd" /><path transform="matrix(1 0 0 -1 0 841)" d="M311.93 751.56L510.7 751.56L510.7 751.56L510.7 752.04L510.7 752.04L311.93 752.04z" stroke="none" fill="#000000" fill-rule="evenodd" /><path transform="matrix(1 0 0 -1 0 841)" d="M510.7 751.56L511.18 751.56L511.18 751.56L511.18 752.04L511.18 752.04L510.7 752.04z" stroke="none" fill="#000000" fill-rule="evenodd" /><path transform="matrix(1 0 0 -1 0 841)" d="M510.7 751.56L511.18 751.56L511.18 751.56L511.18 752.04L511.18 752.04L510.7 752.04z" stroke="none" fill="#000000" fill-rule="evenodd" /><path transform="matrix(1 0 0 -1 0 841)" d="M84.264 675.34L84.744 675.34L84.744 675.34L84.744 751.564L84.744 751.564L84.264 751.564z" stroke="none" fill="#000000" fill-rule="evenodd" /><path transform="matrix(1 0 0 -1 0 841)" d="M84.264 674.86L84.744 674.86L84.744 674.86L84.744 675.34L84.744 675.34L84.264 675.34z" stroke="none" fill="#000000" fill-rule="evenodd" /><path transform="matrix(1 0 0 -1 0 841)" d="M84.264 674.86L84.744 674.86L84.744 674.86L84.744 675.34L84.744 675.34L84.264 675.34z" stroke="none" fill="#000000" fill-rule="evenodd" /><path transform="matrix(1 0 0 -1 0 841)" d="M84.744 674.86L146.184 674.86L146.184 674.86L146.184 675.34L146.184 675.34L84.744 675.34z" stroke="none" fill="#000000" fill-rule="evenodd" /><path transform="matrix(1 0 0 -1 0 841)" d="M146.18 675.34L146.66 675.34L146.66 675.34L146.66 751.564L146.66 751.564L146.18 751.564z" stroke="none" fill="#000000" fill-rule="evenodd" /><path transform="matrix(1 0 0 -1 0 841)" d="M146.18 674.86L146.66 674.86L146.66 674.86L146.66 675.34L146.66 675.34L146.18 675.34z" stroke="none" fill="#000000" fill-rule="evenodd" /><path transform="matrix(1 0 0 -1 0 841)" d="M146.66 674.86L202.964 674.86L202.964 674.86L202.964 675.34L202.964 675.34L146.66 675.34z" stroke="none" fill="#000000" fill-rule="evenodd" /><path transform="matrix(1 0 0 -1 0 841)" d="M202.97 675.34L203.45 675.34L203.45 675.34L203.45 751.564L203.45 751.564L202.97 751.564z" stroke="none" fill="#000000" fill-rule="evenodd" /><path transform="matrix(1 0 0 -1 0 841)" d="M202.97 674.86L203.45 674.86L203.45 674.86L203.45 675.34L203.45 675.34L202.97 675.34z" stroke="none" fill="#000000" fill-rule="evenodd" /><path transform="matrix(1 0 0 -1 0 841)" d="M203.45 674.86L252.77 674.86L252.77 674.86L252.77 675.34L252.77 675.34L203.45 675.34z" stroke="none" fill="#000000" fill-rule="evenodd" /><path transform="matrix(1 0 0 -1 0 841)" d="M252.77 675.34L253.25 675.34L253.25 675.34L253.25 751.564L253.25 751.564L252.77 751.564z" stroke="none" fill="#000000" fill-rule="evenodd" /><path transform="matrix(1 0 0 -1 0 841)" d="M252.77 674.86L253.25 674.86L253.25 674.86L253.25 675.34L253.25 675.34L252.77 675.34z" stroke="none" fill="#000000" fill-rule="evenodd" /><path transform="matrix(1 0 0 -1 0 841)" d="M253.25 674.86L311.45 674.86L311.45 674.86L311.45 675.34L311.45 675.34L253.25 675.34z" stroke="none" fill="#000000" fill-rule="evenodd" /><path transform="matrix(1 0 0 -1 0 841)" d="M311.45 675.34L311.93 675.34L311.93 675.34L311.93 751.564L311.93 751.564L311.45 751.564z" stroke="none" fill="#000000" fill-rule="evenodd" /><path transform="matrix(1 0 0 -1 0 841)" d="M311.45 674.86L311.93 674.86L311.93 674.86L311.93 675.34L311.93 675.34L311.45 675.34z" stroke="none" fill="#000000" fill-rule="evenodd" /><path transform="matrix(1 0 0 -1 0 841)" d="M311.93 674.86L510.7 674.86L510.7 674.86L510.7 675.34L510.7 675.34L311.93 675.34z" stroke="none" fill="#000000" fill-rule="evenodd" /><path transform="matrix(1 0 0 -1 0 841)" d="M510.7 675.34L511.18 675.34L511.18 675.34L511.18 751.564L511.18 751.564L510.7 751.564z" stroke="none" fill="#000000" fill-rule="evenodd" /><path transform="matrix(1 0 0 -1 0 841)" d="M510.7 674.86L511.18 674.86L511.18 674.86L511.18 675.34L511.18 675.34L510.7 675.34z" stroke="none" fill="#000000" fill-rule="evenodd" /><path transform="matrix(1 0 0 -1 0 841)" d="M510.7 674.86L511.18 674.86L511.18 674.86L511.18 675.34L511.18 675.34L510.7 675.34z" stroke="none" fill="#000000" fill-rule="evenodd" /></g></g></g></svg>