<svg xmlns="http://www.w3.org/2000/svg" xmlns:xlink="http://www.w3.org/1999/xlink" id="body_242" preserveAspectRatio="xMinYMin meet" viewBox="0 0 793 1121"><defs><clipPath id="1"><path d="M0 841L0 -0.9199829L0 -0.9199829L595.32 -0.9199829L595.32 -0.9199829L595.32 841L595.32 841L0 841z" /></clipPath><clipPath id="2"><path d="M0.00125 841.0914L595.4112 841.0914L595.4112 841.0914L595.4112 -0.9186401L595.4112 -0.9186401L0.00125 -0.9186401z" /></clipPath><clipPath id="3"><path d="M288.05 781.211L316.01 781.211L316.01 781.211L316.01 762.011L316.01 762.011L288.05 762.011z" /></clipPath><clipPath id="4"><path d="M288.05 781.216L316.01 781.216L316.01 781.216L316.01 762.016L316.01 762.016L288.05 762.016z" /></clipPath><clipPath id="5"><path d="M288.05 781.216L316.01 781.216L316.01 781.216L316.01 762.016L316.01 762.016L288.05 762.016z" /></clipPath><clipPath id="6"><path d="M84.751 117.07L268.251 117.07L268.251 117.07L268.251 89.44L268.251 89.44L84.751 89.44z" /></clipPath><clipPath id="7"><path d="M84.744 117.06L268.244 117.06L268.244 117.06L268.244 89.43597L268.244 89.43597L84.744 89.43597z" /></clipPath><clipPath id="8"><path d="M84.744 117.06L268.244 117.06L268.244 117.06L268.244 89.43597L268.244 89.43597L84.744 89.43597z" /></clipPath><clipPath id="9"><path d="M268.85 117.07L499.42 117.07L499.42 117.07L499.42 89.44L499.42 89.44L268.85 89.44z" /></clipPath><clipPath id="10"><path d="M268.85 117.06L499.42 117.06L499.42 117.06L499.42 89.43597L499.42 89.43597L268.85 89.43597z" /></clipPath><clipPath id="11"><path d="M268.85 117.06L499.42 117.06L499.42 117.06L499.42 89.43597L499.42 89.43597L268.85 89.43597z" /></clipPath><clipPath id="12"><path d="M84.751 286.65L268.251 286.65L268.251 286.65L268.251 117.67L268.251 117.67L84.751 117.67z" /></clipPath><clipPath id="13"><path d="M84.744 286.65L268.244 286.65L268.244 286.65L268.244 117.67L268.244 117.67L84.744 117.67z" /></clipPath><clipPath id="14"><path d="M84.744 286.65L268.244 286.65L268.244 286.65L268.244 117.67L268.244 117.67L84.744 117.67z" /></clipPath><clipPath id="15"><path d="M84.744 286.65L268.244 286.65L268.244 286.65L268.244 117.67L268.244 117.67L84.744 117.67z" /></clipPath><clipPath id="16"><path d="M268.85 286.65L499.42 286.65L499.42 286.65L499.42 117.67L499.42 117.67L268.85 117.67z" /></clipPath><clipPath id="17"><path d="M268.85 286.65L499.42 286.65L499.42 286.65L499.42 117.67L499.42 117.67L268.85 117.67z" /></clipPath><clipPath id="18"><path d="M268.85 286.65L499.42 286.65L499.42 286.65L499.42 117.67L499.42 117.67L268.85 117.67z" /></clipPath><clipPath id="19"><path d="M268.85 286.65L499.42 286.65L499.42 286.65L499.42 117.67L499.42 117.67L268.85 117.67z" /></clipPath><clipPath id="20"><path d="M268.85 286.65L499.42 286.65L499.42 286.65L499.42 117.67L499.42 117.67L268.85 117.67z" /></clipPath><clipPath id="21"><path d="M268.85 286.65L499.42 286.65L499.42 286.65L499.42 117.67L499.42 117.67L268.85 117.67z" /></clipPath><clipPath id="22"><path d="M268.85 286.65L499.42 286.65L499.42 286.65L499.42 117.67L499.42 117.67L268.85 117.67z" /></clipPath><clipPath id="23"><path d="M268.85 286.65L499.42 286.65L499.42 286.65L499.42 117.67L499.42 117.67L268.85 117.67z" /></clipPath><clipPath id="24"><path d="M268.85 286.65L499.42 286.65L499.42 286.65L499.42 117.67L499.42 117.67L268.85 117.67z" /></clipPath><clipPath id="25"><path d="M268.85 286.65L499.42 286.65L499.42 286.65L499.42 117.67L499.42 117.67L268.85 117.67z" /></clipPath><clipPath id="26"><path d="M268.85 286.65L499.42 286.65L499.42 286.65L499.42 117.67L499.42 117.67L268.85 117.67z" /></clipPath><clipPath id="27"><path d="M268.85 286.65L499.42 286.65L499.42 286.65L499.42 117.67L499.42 117.67L268.85 117.67z" /></clipPath><clipPath id="28"><path d="M268.85 286.65L499.42 286.65L499.42 286.65L499.42 117.67L499.42 117.67L268.85 117.67z" /></clipPath><clipPath id="29"><path d="M268.85 286.65L499.42 286.65L499.42 286.65L499.42 117.67L499.42 117.67L268.85 117.67z" /></clipPath><clipPath id="30"><path d="M268.85 286.65L499.42 286.65L499.42 286.65L499.42 117.67L499.42 117.67L268.85 117.67z" /></clipPath><clipPath id="31"><path d="M268.85 286.65L499.42 286.65L499.42 286.65L499.42 117.67L499.42 117.67L268.85 117.67z" /></clipPath><clipPath id="32"><path d="M268.85 286.65L499.42 286.65L499.42 286.65L499.42 117.67L499.42 117.67L268.85 117.67z" /></clipPath><clipPath id="33"><path d="M268.85 286.65L499.42 286.65L499.42 286.65L499.42 117.67L499.42 117.67L268.85 117.67z" /></clipPath><clipPath id="34"><path d="M268.85 286.65L499.42 286.65L499.42 286.65L499.42 117.67L499.42 117.67L268.85 117.67z" /></clipPath><clipPath id="35"><path d="M268.85 286.65L499.42 286.65L499.42 286.65L499.42 117.67L499.42 117.67L268.85 117.67z" /></clipPath><clipPath id="36"><path d="M268.85 286.65L499.42 286.65L499.42 286.65L499.42 117.67L499.42 117.67L268.85 117.67z" /></clipPath><clipPath id="37"><path d="M268.85 286.65L499.42 286.65L499.42 286.65L499.42 117.67L499.42 117.67L268.85 117.67z" /></clipPath><clipPath id="38"><path d="M268.85 286.65L499.42 286.65L499.42 286.65L499.42 117.67L499.42 117.67L268.85 117.67z" /></clipPath><clipPath id="39"><path d="M268.85 286.65L499.42 286.65L499.42 286.65L499.42 117.67L499.42 117.67L268.85 117.67z" /></clipPath><clipPath id="40"><path d="M268.85 286.65L499.42 286.65L499.42 286.65L499.42 117.67L499.42 117.67L268.85 117.67z" /></clipPath><clipPath id="41"><path d="M268.85 286.65L499.42 286.65L499.42 286.65L499.42 117.67L499.42 117.67L268.85 117.67z" /></clipPath><clipPath id="42"><path d="M84.751 332.97L268.251 332.97L268.251 332.97L268.251 287.13L268.251 287.13L84.751 287.13z" /></clipPath><clipPath id="43"><path d="M84.744 332.97L268.244 332.97L268.244 332.97L268.244 287.13L268.244 287.13L84.744 287.13z" /></clipPath><clipPath id="44"><path d="M84.744 332.97L268.244 332.97L268.244 332.97L268.244 287.13L268.244 287.13L84.744 287.13z" /></clipPath><clipPath id="45"><path d="M84.744 332.97L268.244 332.97L268.244 332.97L268.244 287.13L268.244 287.13L84.744 287.13z" /></clipPath><clipPath id="46"><path d="M84.744 332.97L268.244 332.97L268.244 332.97L268.244 287.13L268.244 287.13L84.744 287.13z" /></clipPath><clipPath id="47"><path d="M268.85 332.97L499.42 332.97L499.42 332.97L499.42 287.13L499.42 287.13L268.85 287.13z" /></clipPath><clipPath id="48"><path d="M268.85 332.97L499.42 332.97L499.42 332.97L499.42 287.13L499.42 287.13L268.85 287.13z" /></clipPath><clipPath id="49"><path d="M268.85 332.97L499.42 332.97L499.42 332.97L499.42 287.13L499.42 287.13L268.85 287.13z" /></clipPath><clipPath id="50"><path d="M268.85 332.97L499.42 332.97L499.42 332.97L499.42 287.13L499.42 287.13L268.85 287.13z" /></clipPath><clipPath id="51"><path d="M268.85 332.97L499.42 332.97L499.42 332.97L499.42 287.13L499.42 287.13L268.85 287.13z" /></clipPath><clipPath id="52"><path d="M268.85 332.97L499.42 332.97L499.42 332.97L499.42 287.13L499.42 287.13L268.85 287.13z" /></clipPath><clipPath id="53"><path d="M84.751 438.45L268.251 438.45L268.251 438.45L268.251 333.45L268.251 333.45L84.751 333.45z" /></clipPath><clipPath id="54"><path d="M84.744 438.45L268.244 438.45L268.244 438.45L268.244 333.45L268.244 333.45L84.744 333.45z" /></clipPath><clipPath id="55"><path d="M84.744 438.45L268.244 438.45L268.244 438.45L268.244 333.45L268.244 333.45L84.744 333.45z" /></clipPath><clipPath id="56"><path d="M84.744 438.45L268.244 438.45L268.244 438.45L268.244 333.45L268.244 333.45L84.744 333.45z" /></clipPath><clipPath id="57"><path d="M268.85 438.45L499.42 438.45L499.42 438.45L499.42 333.45L499.42 333.45L268.85 333.45z" /></clipPath><clipPath id="58"><path d="M268.85 438.45L499.42 438.45L499.42 438.45L499.42 333.45L499.42 333.45L268.85 333.45z" /></clipPath><clipPath id="59"><path d="M268.85 438.45L499.42 438.45L499.42 438.45L499.42 333.45L499.42 333.45L268.85 333.45z" /></clipPath><clipPath id="60"><path d="M268.85 438.45L499.42 438.45L499.42 438.45L499.42 333.45L499.42 333.45L268.85 333.45z" /></clipPath><clipPath id="61"><path d="M268.85 438.45L499.42 438.45L499.42 438.45L499.42 333.45L499.42 333.45L268.85 333.45z" /></clipPath><clipPath id="62"><path d="M268.85 438.45L499.42 438.45L499.42 438.45L499.42 333.45L499.42 333.45L268.85 333.45z" /></clipPath><clipPath id="63"><path d="M268.85 438.45L499.42 438.45L499.42 438.45L499.42 333.45L499.42 333.45L268.85 333.45z" /></clipPath><clipPath id="64"><path d="M268.85 438.45L499.42 438.45L499.42 438.45L499.42 333.45L499.42 333.45L268.85 333.45z" /></clipPath><clipPath id="65"><path d="M268.85 438.45L499.42 438.45L499.42 438.45L499.42 333.45L499.42 333.45L268.85 333.45z" /></clipPath><clipPath id="66"><path d="M84.751 662.53L268.251 662.53L268.251 662.53L268.251 438.92L268.251 438.92L84.751 438.92z" /></clipPath><clipPath id="67"><path d="M84.744 662.54L268.244 662.54L268.244 662.54L268.244 438.93L268.244 438.93L84.744 438.93z" /></clipPath><clipPath id="68"><path d="M84.744 662.54L268.244 662.54L268.244 662.54L268.244 438.93L268.244 438.93L84.744 438.93z" /></clipPath><clipPath id="69"><path d="M84.744 662.54L268.244 662.54L268.244 662.54L268.244 438.93L268.244 438.93L84.744 438.93z" /></clipPath><clipPath id="70"><path d="M84.744 662.54L268.244 662.54L268.244 662.54L268.244 438.93L268.244 438.93L84.744 438.93z" /></clipPath><clipPath id="71"><path d="M84.744 662.54L268.244 662.54L268.244 662.54L268.244 438.93L268.244 438.93L84.744 438.93z" /></clipPath><clipPath id="72"><path d="M84.744 662.54L268.244 662.54L268.244 662.54L268.244 438.93L268.244 438.93L84.744 438.93z" /></clipPath><clipPath id="73"><path d="M268.85 662.53L499.42 662.53L499.42 662.53L499.42 438.92L499.42 438.92L268.85 438.92z" /></clipPath><clipPath id="74"><path d="M268.85 662.54L499.42 662.54L499.42 662.54L499.42 438.93L499.42 438.93L268.85 438.93z" /></clipPath><clipPath id="75"><path d="M268.85 662.54L499.42 662.54L499.42 662.54L499.42 438.93L499.42 438.93L268.85 438.93z" /></clipPath><clipPath id="76"><path d="M268.85 662.54L499.42 662.54L499.42 662.54L499.42 438.93L499.42 438.93L268.85 438.93z" /></clipPath><clipPath id="77"><path d="M268.85 662.54L499.42 662.54L499.42 662.54L499.42 438.93L499.42 438.93L268.85 438.93z" /></clipPath><clipPath id="78"><path d="M268.85 662.54L499.42 662.54L499.42 662.54L499.42 438.93L499.42 438.93L268.85 438.93z" /></clipPath><clipPath id="79"><path d="M268.85 662.54L499.42 662.54L499.42 662.54L499.42 438.93L499.42 438.93L268.85 438.93z" /></clipPath><clipPath id="80"><path d="M268.85 662.54L499.42 662.54L499.42 662.54L499.42 438.93L499.42 438.93L268.85 438.93z" /></clipPath><clipPath id="81"><path d="M268.85 662.54L499.42 662.54L499.42 662.54L499.42 438.93L499.42 438.93L268.85 438.93z" /></clipPath><clipPath id="82"><path d="M268.85 662.54L499.42 662.54L499.42 662.54L499.42 438.93L499.42 438.93L268.85 438.93z" /></clipPath><clipPath id="83"><path d="M268.85 662.54L499.42 662.54L499.42 662.54L499.42 438.93L499.42 438.93L268.85 438.93z" /></clipPath><clipPath id="84"><path d="M268.85 662.54L499.42 662.54L499.42 662.54L499.42 438.93L499.42 438.93L268.85 438.93z" /></clipPath><clipPath id="85"><path d="M268.85 662.54L499.42 662.54L499.42 662.54L499.42 438.93L499.42 438.93L268.85 438.93z" /></clipPath><clipPath id="86"><path d="M268.85 662.54L499.42 662.54L499.42 662.54L499.42 438.93L499.42 438.93L268.85 438.93z" /></clipPath><clipPath id="87"><path d="M268.85 662.54L499.42 662.54L499.42 662.54L499.42 438.93L499.42 438.93L268.85 438.93z" /></clipPath><clipPath id="88"><path d="M268.85 662.54L499.42 662.54L499.42 662.54L499.42 438.93L499.42 438.93L268.85 438.93z" /></clipPath><clipPath id="89"><path d="M268.85 662.54L499.42 662.54L499.42 662.54L499.42 438.93L499.42 438.93L268.85 438.93z" /></clipPath><clipPath id="90"><path d="M268.85 662.54L499.42 662.54L499.42 662.54L499.42 438.93L499.42 438.93L268.85 438.93z" /></clipPath><clipPath id="91"><path d="M268.85 662.54L499.42 662.54L499.42 662.54L499.42 438.93L499.42 438.93L268.85 438.93z" /></clipPath><clipPath id="92"><path d="M268.85 662.54L499.42 662.54L499.42 662.54L499.42 438.93L499.42 438.93L268.85 438.93z" /></clipPath><clipPath id="93"><path d="M268.85 662.54L499.42 662.54L499.42 662.54L499.42 438.93L499.42 438.93L268.85 438.93z" /></clipPath><clipPath id="94"><path d="M268.85 662.54L499.42 662.54L499.42 662.54L499.42 438.93L499.42 438.93L268.85 438.93z" /></clipPath><clipPath id="95"><path d="M268.85 662.54L499.42 662.54L499.42 662.54L499.42 438.93L499.42 438.93L268.85 438.93z" /></clipPath><clipPath id="96"><path d="M268.85 662.54L499.42 662.54L499.42 662.54L499.42 438.93L499.42 438.93L268.85 438.93z" /></clipPath><clipPath id="97"><path d="M268.85 662.54L499.42 662.54L499.42 662.54L499.42 438.93L499.42 438.93L268.85 438.93z" /></clipPath><clipPath id="98"><path d="M268.85 662.54L499.42 662.54L499.42 662.54L499.42 438.93L499.42 438.93L268.85 438.93z" /></clipPath><clipPath id="99"><path d="M268.85 662.54L499.42 662.54L499.42 662.54L499.42 438.93L499.42 438.93L268.85 438.93z" /></clipPath><clipPath id="100"><path d="M268.85 662.54L499.42 662.54L499.42 662.54L499.42 438.93L499.42 438.93L268.85 438.93z" /></clipPath><clipPath id="101"><path d="M268.85 662.54L499.42 662.54L499.42 662.54L499.42 438.93L499.42 438.93L268.85 438.93z" /></clipPath><clipPath id="102"><path d="M268.85 662.54L499.42 662.54L499.42 662.54L499.42 438.93L499.42 438.93L268.85 438.93z" /></clipPath><clipPath id="103"><path d="M268.85 662.54L499.42 662.54L499.42 662.54L499.42 438.93L499.42 438.93L268.85 438.93z" /></clipPath><clipPath id="104"><path d="M268.85 662.54L499.42 662.54L499.42 662.54L499.42 438.93L499.42 438.93L268.85 438.93z" /></clipPath><clipPath id="105"><path d="M268.85 662.54L499.42 662.54L499.42 662.54L499.42 438.93L499.42 438.93L268.85 438.93z" /></clipPath><clipPath id="106"><path d="M268.85 662.54L499.42 662.54L499.42 662.54L499.42 438.93L499.42 438.93L268.85 438.93z" /></clipPath><clipPath id="107"><path d="M268.85 662.54L499.42 662.54L499.42 662.54L499.42 438.93L499.42 438.93L268.85 438.93z" /></clipPath><clipPath id="108"><path d="M268.85 662.54L499.42 662.54L499.42 662.54L499.42 438.93L499.42 438.93L268.85 438.93z" /></clipPath><clipPath id="109"><path d="M84.751 749.891L268.251 749.891L268.251 749.891L268.251 663.011L268.251 663.011L84.751 663.011z" /></clipPath><clipPath id="110"><path d="M84.744 749.896L268.244 749.896L268.244 749.896L268.244 663.016L268.244 663.016L84.744 663.016z" /></clipPath><clipPath id="111"><path d="M84.744 749.896L268.244 749.896L268.244 749.896L268.244 663.016L268.244 663.016L84.744 663.016z" /></clipPath><clipPath id="112"><path d="M84.744 749.896L268.244 749.896L268.244 749.896L268.244 663.016L268.244 663.016L84.744 663.016z" /></clipPath><clipPath id="113"><path d="M84.744 749.896L268.244 749.896L268.244 749.896L268.244 663.016L268.244 663.016L84.744 663.016z" /></clipPath><clipPath id="114"><path d="M84.744 749.896L268.244 749.896L268.244 749.896L268.244 663.016L268.244 663.016L84.744 663.016z" /></clipPath><clipPath id="115"><path d="M268.85 749.891L499.42 749.891L499.42 749.891L499.42 663.011L499.42 663.011L268.85 663.011z" /></clipPath><clipPath id="116"><path d="M268.85 749.896L499.42 749.896L499.42 749.896L499.42 663.016L499.42 663.016L268.85 663.016z" /></clipPath><clipPath id="117"><path d="M268.85 749.896L499.42 749.896L499.42 749.896L499.42 663.016L499.42 663.016L268.85 663.016z" /></clipPath><clipPath id="118"><path d="M268.85 749.896L499.42 749.896L499.42 749.896L499.42 663.016L499.42 663.016L268.85 663.016z" /></clipPath><clipPath id="119"><path d="M268.85 749.896L499.42 749.896L499.42 749.896L499.42 663.016L499.42 663.016L268.85 663.016z" /></clipPath><clipPath id="120"><path d="M268.85 749.896L499.42 749.896L499.42 749.896L499.42 663.016L499.42 663.016L268.85 663.016z" /></clipPath><clipPath id="121"><path d="M268.85 749.896L499.42 749.896L499.42 749.896L499.42 663.016L499.42 663.016L268.85 663.016z" /></clipPath><clipPath id="122"><path d="M268.85 749.896L499.42 749.896L499.42 749.896L499.42 663.016L499.42 663.016L268.85 663.016z" /></clipPath><clipPath id="123"><path d="M268.85 749.896L499.42 749.896L499.42 749.896L499.42 663.016L499.42 663.016L268.85 663.016z" /></clipPath><clipPath id="124"><path d="M268.85 749.896L499.42 749.896L499.42 749.896L499.42 663.016L499.42 663.016L268.85 663.016z" /></clipPath><clipPath id="125"><path d="M268.85 749.896L499.42 749.896L499.42 749.896L499.42 663.016L499.42 663.016L268.85 663.016z" /></clipPath><clipPath id="126"><path d="M268.85 749.896L499.42 749.896L499.42 749.896L499.42 663.016L499.42 663.016L268.85 663.016z" /></clipPath><clipPath id="127"><path d="M268.85 749.896L499.42 749.896L499.42 749.896L499.42 663.016L499.42 663.016L268.85 663.016z" /></clipPath><clipPath id="128"><path d="M268.85 749.896L499.42 749.896L499.42 749.896L499.42 663.016L499.42 663.016L268.85 663.016z" /></clipPath><clipPath id="129"><path d="M268.85 749.896L499.42 749.896L499.42 749.896L499.42 663.016L499.42 663.016L268.85 663.016z" /></clipPath><clipPath id="130"><path d="M268.85 749.896L499.42 749.896L499.42 749.896L499.42 663.016L499.42 663.016L268.85 663.016z" /></clipPath><clipPath id="131"><path d="M268.85 749.896L499.42 749.896L499.42 749.896L499.42 663.016L499.42 663.016L268.85 663.016z" /></clipPath><clipPath id="132"><path d="M268.85 749.896L499.42 749.896L499.42 749.896L499.42 663.016L499.42 663.016L268.85 663.016z" /></clipPath><clipPath id="133"><path d="M268.85 749.896L499.42 749.896L499.42 749.896L499.42 663.016L499.42 663.016L268.85 663.016z" /></clipPath><clipPath id="134"><path d="M268.85 749.896L499.42 749.896L499.42 749.896L499.42 663.016L499.42 663.016L268.85 663.016z" /></clipPath><clipPath id="135"><path d="M268.85 749.896L499.42 749.896L499.42 749.896L499.42 663.016L499.42 663.016L268.85 663.016z" /></clipPath><clipPath id="136"><path d="M268.85 749.896L499.42 749.896L499.42 749.896L499.42 663.016L499.42 663.016L268.85 663.016z" /></clipPath></defs><g transform="matrix(1.333333 0 0 1.333333 0 0)"><g><g clip-path="url(#1)"><path transform="matrix(1 0 0 -1 0 841)" d="M457.51 53.304L505.534 53.304L505.534 53.304L505.534 53.90404L505.534 53.90404L457.51 53.90404z" stroke="none" fill="#000000" fill-rule="evenodd" /><g clip-path="url(#2)"><path transform="matrix(1 0 0 -1 0 841)" d="M88.464 77.904L506.974 77.904L506.974 77.904L506.974 80.904L506.974 80.904L88.464 80.904z" stroke="none" fill="#000000" fill-rule="evenodd" /><path transform="matrix(1 0 0 -1 0 841)" d="M88.464 76.464L506.974 76.464L506.974 76.464L506.974 77.18397L506.974 77.18397L88.464 77.18397z" stroke="none" fill="#000000" fill-rule="evenodd" /></g><g clip-path="url(#3)"><g clip-path="url(#4)"></g><g clip-path="url(#5)"></g></g><path transform="matrix(1 0 0 -1 0 841)" d="M84.744 723.94L268.244 723.94L268.244 723.94L268.244 751.564L268.244 751.564L84.744 751.564z" stroke="none" fill="#D9D9D9" fill-rule="evenodd" /><g clip-path="url(#6)"><path transform="matrix(1 0 0 -1 0 841)" d="M89.904 723.94L263.204 723.94L263.204 723.94L263.204 751.564L263.204 751.564L89.904 751.564z" stroke="none" fill="#D9D9D9" fill-rule="evenodd" /><g clip-path="url(#7)"></g><g clip-path="url(#8)"></g></g><path transform="matrix(1 0 0 -1 0 841)" d="M268.85 723.94L499.42 723.94L499.42 723.94L499.42 751.564L499.42 751.564L268.85 751.564z" stroke="none" fill="#D9D9D9" fill-rule="evenodd" /><g clip-path="url(#9)"><path transform="matrix(1 0 0 -1 0 841)" d="M273.89 723.94L494.26 723.94L494.26 723.94L494.26 751.564L494.26 751.564L273.89 751.564z" stroke="none" fill="#D9D9D9" fill-rule="evenodd" /><g clip-path="url(#10)"></g><g clip-path="url(#11)"></g></g><path transform="matrix(1 0 0 -1 0 841)" d="M84.264 751.56L84.744 751.56L84.744 751.56L84.744 752.04L84.744 752.04L84.264 752.04z" stroke="none" fill="#000000" fill-rule="evenodd" /><path transform="matrix(1 0 0 -1 0 841)" d="M84.264 751.56L84.744 751.56L84.744 751.56L84.744 752.04L84.744 752.04L84.264 752.04z" stroke="none" fill="#000000" fill-rule="evenodd" /><path transform="matrix(1 0 0 -1 0 841)" d="M84.744 751.56L268.364 751.56L268.364 751.56L268.364 752.04L268.364 752.04L84.744 752.04z" stroke="none" fill="#000000" fill-rule="evenodd" /><path transform="matrix(1 0 0 -1 0 841)" d="M268.37 751.56L268.85 751.56L268.85 751.56L268.85 752.04L268.85 752.04L268.37 752.04z" stroke="none" fill="#000000" fill-rule="evenodd" /><path transform="matrix(1 0 0 -1 0 841)" d="M268.85 751.56L499.42 751.56L499.42 751.56L499.42 752.04L499.42 752.04L268.85 752.04z" stroke="none" fill="#000000" fill-rule="evenodd" /><path transform="matrix(1 0 0 -1 0 841)" d="M499.42 751.56L499.9 751.56L499.9 751.56L499.9 752.04L499.9 752.04L499.42 752.04z" stroke="none" fill="#000000" fill-rule="evenodd" /><path transform="matrix(1 0 0 -1 0 841)" d="M499.42 751.56L499.9 751.56L499.9 751.56L499.9 752.04L499.9 752.04L499.42 752.04z" stroke="none" fill="#000000" fill-rule="evenodd" /><path transform="matrix(1 0 0 -1 0 841)" d="M84.264 723.94L84.744 723.94L84.744 723.94L84.744 751.564L84.744 751.564L84.264 751.564z" stroke="none" fill="#000000" fill-rule="evenodd" /><path transform="matrix(1 0 0 -1 0 841)" d="M268.37 723.94L268.85 723.94L268.85 723.94L268.85 751.564L268.85 751.564L268.37 751.564z" stroke="none" fill="#000000" fill-rule="evenodd" /><path transform="matrix(1 0 0 -1 0 841)" d="M499.42 723.94L499.9 723.94L499.9 723.94L499.9 751.564L499.9 751.564L499.42 751.564z" stroke="none" fill="#000000" fill-rule="evenodd" /><g clip-path="url(#12)"><g clip-path="url(#13)"></g><g clip-path="url(#14)"></g><g clip-path="url(#15)"></g></g><g clip-path="url(#16)"><g clip-path="url(#17)"></g><g clip-path="url(#18)"></g><g clip-path="url(#19)"></g><g clip-path="url(#20)"></g><g clip-path="url(#21)"></g><g clip-path="url(#22)"></g><g clip-path="url(#23)"></g><g clip-path="url(#24)"></g><g clip-path="url(#25)"></g><g clip-path="url(#26)"></g><g clip-path="url(#27)"></g><g clip-path="url(#28)"></g><g clip-path="url(#29)"></g><g clip-path="url(#30)"></g><g clip-path="url(#31)"></g><g clip-path="url(#32)"></g><g clip-path="url(#33)"></g><g clip-path="url(#34)"></g><g clip-path="url(#35)"></g><g clip-path="url(#36)"></g><g clip-path="url(#37)"></g><g clip-path="url(#38)"></g><g clip-path="url(#39)"></g><g clip-path="url(#40)"></g><g clip-path="url(#41)"></g></g><path transform="matrix(1 0 0 -1 0 841)" d="M84.264 723.46L84.744 723.46L84.744 723.46L84.744 723.94L84.744 723.94L84.264 723.94z" stroke="none" fill="#000000" fill-rule="evenodd" /><path transform="matrix(1 0 0 -1 0 841)" d="M84.744 723.46L268.364 723.46L268.364 723.46L268.364 723.94L268.364 723.94L84.744 723.94z" stroke="none" fill="#000000" fill-rule="evenodd" /><path transform="matrix(1 0 0 -1 0 841)" d="M268.37 723.46L268.85 723.46L268.85 723.46L268.85 723.94L268.85 723.94L268.37 723.94z" stroke="none" fill="#000000" fill-rule="evenodd" /><path transform="matrix(1 0 0 -1 0 841)" d="M268.85 723.46L499.42 723.46L499.42 723.46L499.42 723.94L499.42 723.94L268.85 723.94z" stroke="none" fill="#000000" fill-rule="evenodd" /><path transform="matrix(1 0 0 -1 0 841)" d="M499.42 723.46L499.9 723.46L499.9 723.46L499.9 723.94L499.9 723.94L499.42 723.94z" stroke="none" fill="#000000" fill-rule="evenodd" /><path transform="matrix(1 0 0 -1 0 841)" d="M84.264 554.35L84.744 554.35L84.744 554.35L84.744 723.45L84.744 723.45L84.264 723.45z" stroke="none" fill="#000000" fill-rule="evenodd" /><path transform="matrix(1 0 0 -1 0 841)" d="M268.37 554.35L268.85 554.35L268.85 554.35L268.85 723.45L268.85 723.45L268.37 723.45z" stroke="none" fill="#000000" fill-rule="evenodd" /><path transform="matrix(1 0 0 -1 0 841)" d="M499.42 554.35L499.9 554.35L499.9 554.35L499.9 723.45L499.9 723.45L499.42 723.45z" stroke="none" fill="#000000" fill-rule="evenodd" /><g clip-path="url(#42)"><g clip-path="url(#43)"></g><g clip-path="url(#44)"></g><g clip-path="url(#45)"></g><g clip-path="url(#46)"></g></g><g clip-path="url(#47)"><g clip-path="url(#48)"></g><g clip-path="url(#49)"></g><g clip-path="url(#50)"></g><g clip-path="url(#51)"></g><g clip-path="url(#52)"></g></g><path transform="matrix(1 0 0 -1 0 841)" d="M84.264 553.87L84.744 553.87L84.744 553.87L84.744 554.35L84.744 554.35L84.264 554.35z" stroke="none" fill="#000000" fill-rule="evenodd" /><path transform="matrix(1 0 0 -1 0 841)" d="M84.744 553.87L268.364 553.87L268.364 553.87L268.364 554.35L268.364 554.35L84.744 554.35z" stroke="none" fill="#000000" fill-rule="evenodd" /><path transform="matrix(1 0 0 -1 0 841)" d="M268.37 553.87L268.85 553.87L268.85 553.87L268.85 554.35L268.85 554.35L268.37 554.35z" stroke="none" fill="#000000" fill-rule="evenodd" /><path transform="matrix(1 0 0 -1 0 841)" d="M268.85 553.87L499.42 553.87L499.42 553.87L499.42 554.35L499.42 554.35L268.85 554.35z" stroke="none" fill="#000000" fill-rule="evenodd" /><path transform="matrix(1 0 0 -1 0 841)" d="M499.42 553.87L499.9 553.87L499.9 553.87L499.9 554.35L499.9 554.35L499.42 554.35z" stroke="none" fill="#000000" fill-rule="evenodd" /><path transform="matrix(1 0 0 -1 0 841)" d="M84.264 508.03L84.744 508.03L84.744 508.03L84.744 553.87L84.744 553.87L84.264 553.87z" stroke="none" fill="#000000" fill-rule="evenodd" /><path transform="matrix(1 0 0 -1 0 841)" d="M268.37 508.03L268.85 508.03L268.85 508.03L268.85 553.87L268.85 553.87L268.37 553.87z" stroke="none" fill="#000000" fill-rule="evenodd" /><path transform="matrix(1 0 0 -1 0 841)" d="M499.42 508.03L499.9 508.03L499.9 508.03L499.9 553.87L499.9 553.87L499.42 553.87z" stroke="none" fill="#000000" fill-rule="evenodd" /><g clip-path="url(#53)"><g clip-path="url(#54)"></g><g clip-path="url(#55)"></g><g clip-path="url(#56)"></g></g><g clip-path="url(#57)"><g clip-path="url(#58)"></g><g clip-path="url(#59)"></g><g clip-path="url(#60)"></g><g clip-path="url(#61)"></g><g clip-path="url(#62)"></g><g clip-path="url(#63)"></g><g clip-path="url(#64)"></g><g clip-path="url(#65)"></g></g><path transform="matrix(1 0 0 -1 0 841)" d="M84.264 507.55L84.744 507.55L84.744 507.55L84.744 508.03L84.744 508.03L84.264 508.03z" stroke="none" fill="#000000" fill-rule="evenodd" /><path transform="matrix(1 0 0 -1 0 841)" d="M84.744 507.55L268.364 507.55L268.364 507.55L268.364 508.03L268.364 508.03L84.744 508.03z" stroke="none" fill="#000000" fill-rule="evenodd" /><path transform="matrix(1 0 0 -1 0 841)" d="M268.37 507.55L268.85 507.55L268.85 507.55L268.85 508.03L268.85 508.03L268.37 508.03z" stroke="none" fill="#000000" fill-rule="evenodd" /><path transform="matrix(1 0 0 -1 0 841)" d="M268.85 507.55L499.42 507.55L499.42 507.55L499.42 508.03L499.42 508.03L268.85 508.03z" stroke="none" fill="#000000" fill-rule="evenodd" /><path transform="matrix(1 0 0 -1 0 841)" d="M499.42 507.55L499.9 507.55L499.9 507.55L499.9 508.03L499.9 508.03L499.42 508.03z" stroke="none" fill="#000000" fill-rule="evenodd" /><path transform="matrix(1 0 0 -1 0 841)" d="M84.264 402.55L84.744 402.55L84.744 402.55L84.744 507.55L84.744 507.55L84.264 507.55z" stroke="none" fill="#000000" fill-rule="evenodd" /><path transform="matrix(1 0 0 -1 0 841)" d="M268.37 402.55L268.85 402.55L268.85 402.55L268.85 507.55L268.85 507.55L268.37 507.55z" stroke="none" fill="#000000" fill-rule="evenodd" /><path transform="matrix(1 0 0 -1 0 841)" d="M499.42 402.55L499.9 402.55L499.9 402.55L499.9 507.55L499.9 507.55L499.42 507.55z" stroke="none" fill="#000000" fill-rule="evenodd" /><g clip-path="url(#66)"><g clip-path="url(#67)"></g><g clip-path="url(#68)"></g><g clip-path="url(#69)"></g><g clip-path="url(#70)"></g><g clip-path="url(#71)"></g><g clip-path="url(#72)"></g></g><g clip-path="url(#73)"><g clip-path="url(#74)"></g><g clip-path="url(#75)"></g><g clip-path="url(#76)"></g><g clip-path="url(#77)"></g><g clip-path="url(#78)"></g><g clip-path="url(#79)"></g><g clip-path="url(#80)"></g><g clip-path="url(#81)"></g><g clip-path="url(#82)"></g><g clip-path="url(#83)"></g><g clip-path="url(#84)"></g><g clip-path="url(#85)"></g><g clip-path="url(#86)"></g><g clip-path="url(#87)"></g><g clip-path="url(#88)"></g><g clip-path="url(#89)"></g><g clip-path="url(#90)"></g><g clip-path="url(#91)"></g><g clip-path="url(#92)"></g><g clip-path="url(#93)"></g><g clip-path="url(#94)"></g><g clip-path="url(#95)"></g><g clip-path="url(#96)"></g><g clip-path="url(#97)"></g><g clip-path="url(#98)"></g><g clip-path="url(#99)"></g><g clip-path="url(#100)"></g><g clip-path="url(#101)"></g><g clip-path="url(#102)"></g><g clip-path="url(#103)"></g><g clip-path="url(#104)"></g><g clip-path="url(#105)"></g><g clip-path="url(#106)"></g><g clip-path="url(#107)"></g><g clip-path="url(#108)"></g></g><path transform="matrix(1 0 0 -1 0 841)" d="M84.264 402.07L84.744 402.07L84.744 402.07L84.744 402.55L84.744 402.55L84.264 402.55z" stroke="none" fill="#000000" fill-rule="evenodd" /><path transform="matrix(1 0 0 -1 0 841)" d="M84.744 402.07L268.364 402.07L268.364 402.07L268.364 402.55L268.364 402.55L84.744 402.55z" stroke="none" fill="#000000" fill-rule="evenodd" /><path transform="matrix(1 0 0 -1 0 841)" d="M268.37 402.07L268.85 402.07L268.85 402.07L268.85 402.55L268.85 402.55L268.37 402.55z" stroke="none" fill="#000000" fill-rule="evenodd" /><path transform="matrix(1 0 0 -1 0 841)" d="M268.85 402.07L499.42 402.07L499.42 402.07L499.42 402.55L499.42 402.55L268.85 402.55z" stroke="none" fill="#000000" fill-rule="evenodd" /><path transform="matrix(1 0 0 -1 0 841)" d="M499.42 402.07L499.9 402.07L499.9 402.07L499.9 402.55L499.9 402.55L499.42 402.55z" stroke="none" fill="#000000" fill-rule="evenodd" /><path transform="matrix(1 0 0 -1 0 841)" d="M84.264 178.46L84.744 178.46L84.744 178.46L84.744 402.07L84.744 402.07L84.264 402.07z" stroke="none" fill="#000000" fill-rule="evenodd" /><path transform="matrix(1 0 0 -1 0 841)" d="M268.37 178.46L268.85 178.46L268.85 178.46L268.85 402.07L268.85 402.07L268.37 402.07z" stroke="none" fill="#000000" fill-rule="evenodd" /><path transform="matrix(1 0 0 -1 0 841)" d="M499.42 178.46L499.9 178.46L499.9 178.46L499.9 402.07L499.9 402.07L499.42 402.07z" stroke="none" fill="#000000" fill-rule="evenodd" /><g clip-path="url(#109)"><g clip-path="url(#110)"></g><g clip-path="url(#111)"></g><g clip-path="url(#112)"></g><g clip-path="url(#113)"></g><g clip-path="url(#114)"></g></g><g clip-path="url(#115)"><g clip-path="url(#116)"></g><g clip-path="url(#117)"></g><g clip-path="url(#118)"></g><g clip-path="url(#119)"></g><g clip-path="url(#120)"></g><g clip-path="url(#121)"></g><g clip-path="url(#122)"></g><g clip-path="url(#123)"></g><g clip-path="url(#124)"></g><g clip-path="url(#125)"></g><g clip-path="url(#126)"></g><g clip-path="url(#127)"></g><g clip-path="url(#128)"></g><g clip-path="url(#129)"></g><g clip-path="url(#130)"></g><g clip-path="url(#131)"></g><g clip-path="url(#132)"></g><g clip-path="url(#133)"></g><g clip-path="url(#134)"></g><g clip-path="url(#135)"></g><g clip-path="url(#136)"></g></g><path transform="matrix(1 0 0 -1 0 841)" d="M84.264 177.98L84.744 177.98L84.744 177.98L84.744 178.46L84.744 178.46L84.264 178.46z" stroke="none" fill="#000000" fill-rule="evenodd" /><path transform="matrix(1 0 0 -1 0 841)" d="M84.744 177.98L268.364 177.98L268.364 177.98L268.364 178.46L268.364 178.46L84.744 178.46z" stroke="none" fill="#000000" fill-rule="evenodd" /><path transform="matrix(1 0 0 -1 0 841)" d="M268.37 177.98L268.85 177.98L268.85 177.98L268.85 178.46L268.85 178.46L268.37 178.46z" stroke="none" fill="#000000" fill-rule="evenodd" /><path transform="matrix(1 0 0 -1 0 841)" d="M268.85 177.98L499.42 177.98L499.42 177.98L499.42 178.46L499.42 178.46L268.85 178.46z" stroke="none" fill="#000000" fill-rule="evenodd" /><path transform="matrix(1 0 0 -1 0 841)" d="M499.42 177.98L499.9 177.98L499.9 177.98L499.9 178.46L499.9 178.46L499.42 178.46z" stroke="none" fill="#000000" fill-rule="evenodd" /><path transform="matrix(1 0 0 -1 0 841)" d="M84.264 91.104L84.744 91.104L84.744 91.104L84.744 177.984L84.744 177.984L84.264 177.984z" stroke="none" fill="#000000" fill-rule="evenodd" /><path transform="matrix(1 0 0 -1 0 841)" d="M84.264 90.624L84.744 90.624L84.744 90.624L84.744 91.10404L84.744 91.10404L84.264 91.10404z" stroke="none" fill="#000000" fill-rule="evenodd" /><path transform="matrix(1 0 0 -1 0 841)" d="M84.264 90.624L84.744 90.624L84.744 90.624L84.744 91.10404L84.744 91.10404L84.264 91.10404z" stroke="none" fill="#000000" fill-rule="evenodd" /><path transform="matrix(1 0 0 -1 0 841)" d="M84.744 90.624L268.364 90.624L268.364 90.624L268.364 91.10404L268.364 91.10404L84.744 91.10404z" stroke="none" fill="#000000" fill-rule="evenodd" /><path transform="matrix(1 0 0 -1 0 841)" d="M268.37 91.104L268.85 91.104L268.85 91.104L268.85 177.984L268.85 177.984L268.37 177.984z" stroke="none" fill="#000000" fill-rule="evenodd" /><path transform="matrix(1 0 0 -1 0 841)" d="M268.37 90.624L268.85 90.624L268.85 90.624L268.85 91.10404L268.85 91.10404L268.37 91.10404z" stroke="none" fill="#000000" fill-rule="evenodd" /><path transform="matrix(1 0 0 -1 0 841)" d="M268.85 90.624L499.42 90.624L499.42 90.624L499.42 91.10404L499.42 91.10404L268.85 91.10404z" stroke="none" fill="#000000" fill-rule="evenodd" /><path transform="matrix(1 0 0 -1 0 841)" d="M499.42 91.104L499.9 91.104L499.9 91.104L499.9 177.984L499.9 177.984L499.42 177.984z" stroke="none" fill="#000000" fill-rule="evenodd" /><path transform="matrix(1 0 0 -1 0 841)" d="M499.42 90.624L499.9 90.624L499.9 90.624L499.9 91.10404L499.9 91.10404L499.42 91.10404z" stroke="none" fill="#000000" fill-rule="evenodd" /><path transform="matrix(1 0 0 -1 0 841)" d="M499.42 90.624L499.9 90.624L499.9 90.624L499.9 91.10404L499.9 91.10404L499.42 91.10404z" stroke="none" fill="#000000" fill-rule="evenodd" /></g></g></g></svg>