<svg xmlns="http://www.w3.org/2000/svg" xmlns:xlink="http://www.w3.org/1999/xlink" id="body_44" preserveAspectRatio="xMinYMin meet" viewBox="0 0 793 1121"><defs><clipPath id="1"><path d="M0 841L0 -0.9199829L0 -0.9199829L595.32 -0.9199829L595.32 -0.9199829L595.32 841L595.32 841L0 841z" /></clipPath><clipPath id="2"><path d="M0.00125 841.0914L595.4112 841.0914L595.4112 841.0914L595.4112 -0.9186401L595.4112 -0.9186401L0.00125 -0.9186401z" /></clipPath><clipPath id="3"><path d="M295.13 780.251L305.21 780.251L305.21 780.251L305.21 768.011L305.21 768.011L295.13 768.011z" /></clipPath><clipPath id="4"><path d="M295.13 780.256L305.21 780.256L305.21 780.256L305.21 768.016L305.21 768.016L295.13 768.016z" /></clipPath><clipPath id="5"><path d="M295.13 780.256L305.21 780.256L305.21 780.256L305.21 768.016L305.21 768.016L295.13 768.016z" /></clipPath><clipPath id="6"><path d="M84.751 161.59L510.691 161.59L510.691 161.59L510.691 134.59L510.691 134.59L84.751 134.59z" /></clipPath><clipPath id="7"><path d="M84.744 161.58L510.694 161.58L510.694 161.58L510.694 134.58L510.694 134.58L84.744 134.58z" /></clipPath><clipPath id="8"><path d="M84.744 161.58L510.694 161.58L510.694 161.58L510.694 134.58L510.694 134.58L84.744 134.58z" /></clipPath><clipPath id="9"><path d="M84.744 161.58L510.694 161.58L510.694 161.58L510.694 134.58L510.694 134.58L84.744 134.58z" /></clipPath><clipPath id="10"><path d="M84.744 161.58L510.694 161.58L510.694 161.58L510.694 134.58L510.694 134.58L84.744 134.58z" /></clipPath><clipPath id="11"><path d="M84.744 161.58L510.694 161.58L510.694 161.58L510.694 134.58L510.694 134.58L84.744 134.58z" /></clipPath><clipPath id="12"><path d="M84.751 215.59L181.591 215.59L181.591 215.59L181.591 162.19L181.591 162.19L84.751 162.19z" /></clipPath><clipPath id="13"><path d="M84.744 215.58L181.584 215.58L181.584 215.58L181.584 162.18L181.584 162.18L84.744 162.18z" /></clipPath><clipPath id="14"><path d="M84.744 215.58L181.584 215.58L181.584 215.58L181.584 162.18L181.584 162.18L84.744 162.18z" /></clipPath><clipPath id="15"><path d="M182.19 215.59L510.69 215.59L510.69 215.59L510.69 162.19L510.69 162.19L182.19 162.19z" /></clipPath><clipPath id="16"><path d="M182.18 215.58L510.69 215.58L510.69 215.58L510.69 162.18L510.69 162.18L182.18 162.18z" /></clipPath><clipPath id="17"><path d="M182.18 215.58L510.69 215.58L510.69 215.58L510.69 162.18L510.69 162.18L182.18 162.18z" /></clipPath><clipPath id="18"><path d="M182.18 215.58L510.69 215.58L510.69 215.58L510.69 162.18L510.69 162.18L182.18 162.18z" /></clipPath><clipPath id="19"><path d="M182.18 215.58L510.69 215.58L510.69 215.58L510.69 162.18L510.69 162.18L182.18 162.18z" /></clipPath><clipPath id="20"><path d="M84.751 386.73L181.591 386.73L181.591 386.73L181.591 216.07L181.591 216.07L84.751 216.07z" /></clipPath><clipPath id="21"><path d="M84.744 386.73L181.584 386.73L181.584 386.73L181.584 216.07L181.584 216.07L84.744 216.07z" /></clipPath><clipPath id="22"><path d="M84.744 386.73L181.584 386.73L181.584 386.73L181.584 216.07L181.584 216.07L84.744 216.07z" /></clipPath><clipPath id="23"><path d="M182.19 386.73L510.69 386.73L510.69 386.73L510.69 216.07L510.69 216.07L182.19 216.07z" /></clipPath><clipPath id="24"><path d="M182.18 386.73L510.69 386.73L510.69 386.73L510.69 216.07L510.69 216.07L182.18 216.07z" /></clipPath><clipPath id="25"><path d="M182.18 386.73L510.69 386.73L510.69 386.73L510.69 216.07L510.69 216.07L182.18 216.07z" /></clipPath><clipPath id="26"><path d="M182.18 386.73L510.69 386.73L510.69 386.73L510.69 216.07L510.69 216.07L182.18 216.07z" /></clipPath><clipPath id="27"><path d="M182.18 386.73L510.69 386.73L510.69 386.73L510.69 216.07L510.69 216.07L182.18 216.07z" /></clipPath><clipPath id="28"><path d="M182.18 386.73L510.69 386.73L510.69 386.73L510.69 216.07L510.69 216.07L182.18 216.07z" /></clipPath><clipPath id="29"><path d="M182.18 386.73L510.69 386.73L510.69 386.73L510.69 216.07L510.69 216.07L182.18 216.07z" /></clipPath><clipPath id="30"><path d="M182.18 386.73L510.69 386.73L510.69 386.73L510.69 216.07L510.69 216.07L182.18 216.07z" /></clipPath><clipPath id="31"><path d="M182.18 386.73L510.69 386.73L510.69 386.73L510.69 216.07L510.69 216.07L182.18 216.07z" /></clipPath><clipPath id="32"><path d="M182.18 386.73L510.69 386.73L510.69 386.73L510.69 216.07L510.69 216.07L182.18 216.07z" /></clipPath><clipPath id="33"><path d="M182.18 386.73L510.69 386.73L510.69 386.73L510.69 216.07L510.69 216.07L182.18 216.07z" /></clipPath><clipPath id="34"><path d="M182.18 386.73L510.69 386.73L510.69 386.73L510.69 216.07L510.69 216.07L182.18 216.07z" /></clipPath><clipPath id="35"><path d="M182.18 386.73L510.69 386.73L510.69 386.73L510.69 216.07L510.69 216.07L182.18 216.07z" /></clipPath><clipPath id="36"><path d="M182.18 386.73L510.69 386.73L510.69 386.73L510.69 216.07L510.69 216.07L182.18 216.07z" /></clipPath></defs><g transform="matrix(1.333333 0 0 1.333333 0 0)"><g><g clip-path="url(#1)"><path transform="matrix(1 0 0 -1 0 841)" d="M457.63 53.424L505.534 53.424L505.534 53.424L505.534 54.02404L505.534 54.02404L457.63 54.02404z" stroke="none" fill="#000000" fill-rule="evenodd" /><g clip-path="url(#2)"><path transform="matrix(1 0 0 -1 0 841)" d="M88.464 78.984L506.974 78.984L506.974 78.984L506.974 81.984L506.974 81.984L88.464 81.984z" stroke="none" fill="#000000" fill-rule="evenodd" /><path transform="matrix(1 0 0 -1 0 841)" d="M88.464 77.544L506.974 77.544L506.974 77.544L506.974 78.26397L506.974 78.26397L88.464 78.26397z" stroke="none" fill="#000000" fill-rule="evenodd" /></g><g clip-path="url(#3)"><g clip-path="url(#4)"></g><g clip-path="url(#5)"></g></g><path transform="matrix(1 0 0 -1 0 841)" d="M84.744 679.42L510.694 679.42L510.694 679.42L510.694 706.42L510.694 706.42L84.744 706.42z" stroke="none" fill="#0070C0" fill-rule="evenodd" /><g clip-path="url(#6)"><path transform="matrix(1 0 0 -1 0 841)" d="M89.904 680.38L505.534 680.38L505.534 680.38L505.534 705.46L505.534 705.46L89.904 705.46z" stroke="none" fill="#0070C0" fill-rule="evenodd" /><g clip-path="url(#7)"></g><g clip-path="url(#8)"></g><g clip-path="url(#9)"></g><g clip-path="url(#10)"></g><g clip-path="url(#11)"></g></g><path transform="matrix(1 0 0 -1 0 841)" d="M84.264 706.42L84.744 706.42L84.744 706.42L84.744 706.9L84.744 706.9L84.264 706.9z" stroke="none" fill="#000000" fill-rule="evenodd" /><path transform="matrix(1 0 0 -1 0 841)" d="M84.264 706.42L84.744 706.42L84.744 706.42L84.744 706.9L84.744 706.9L84.264 706.9z" stroke="none" fill="#000000" fill-rule="evenodd" /><path transform="matrix(1 0 0 -1 0 841)" d="M84.744 706.42L510.694 706.42L510.694 706.42L510.694 706.9L510.694 706.9L84.744 706.9z" stroke="none" fill="#000000" fill-rule="evenodd" /><path transform="matrix(1 0 0 -1 0 841)" d="M510.7 706.42L511.18 706.42L511.18 706.42L511.18 706.9L511.18 706.9L510.7 706.9z" stroke="none" fill="#000000" fill-rule="evenodd" /><path transform="matrix(1 0 0 -1 0 841)" d="M510.7 706.42L511.18 706.42L511.18 706.42L511.18 706.9L511.18 706.9L510.7 706.9z" stroke="none" fill="#000000" fill-rule="evenodd" /><path transform="matrix(1 0 0 -1 0 841)" d="M84.264 679.42L84.744 679.42L84.744 679.42L84.744 706.42L84.744 706.42L84.264 706.42z" stroke="none" fill="#000000" fill-rule="evenodd" /><path transform="matrix(1 0 0 -1 0 841)" d="M510.7 679.42L511.18 679.42L511.18 679.42L511.18 706.42L511.18 706.42L510.7 706.42z" stroke="none" fill="#000000" fill-rule="evenodd" /><path transform="matrix(1 0 0 -1 0 841)" d="M84.744 625.42L181.584 625.42L181.584 625.42L181.584 678.82L181.584 678.82L84.744 678.82z" stroke="none" fill="#DAEEF3" fill-rule="evenodd" /><g clip-path="url(#12)"><path transform="matrix(1 0 0 -1 0 841)" d="M89.904 640.06L176.424 640.06L176.424 640.06L176.424 664.18L176.424 664.18L89.904 664.18z" stroke="none" fill="#DAEEF3" fill-rule="evenodd" /><g clip-path="url(#13)"></g><g clip-path="url(#14)"></g></g><path transform="matrix(1 0 0 -1 0 841)" d="M182.18 625.42L510.69 625.42L510.69 625.42L510.69 678.82L510.69 678.82L182.18 678.82z" stroke="none" fill="#DAEEF3" fill-rule="evenodd" /><g clip-path="url(#15)"><path transform="matrix(1 0 0 -1 0 841)" d="M187.22 659.5L505.53 659.5L505.53 659.5L505.53 678.82L505.53 678.82L187.22 678.82z" stroke="none" fill="#DAEEF3" fill-rule="evenodd" /><g clip-path="url(#16)"></g><path transform="matrix(1 0 0 -1 0 841)" d="M187.22 644.86L505.53 644.86L505.53 644.86L505.53 659.5L505.53 659.5L187.22 659.5z" stroke="none" fill="#DAEEF3" fill-rule="evenodd" /><g clip-path="url(#17)"></g><path transform="matrix(1 0 0 -1 0 841)" d="M187.22 625.42L505.53 625.42L505.53 625.42L505.53 644.86L505.53 644.86L187.22 644.86z" stroke="none" fill="#DAEEF3" fill-rule="evenodd" /><g clip-path="url(#18)"></g><g clip-path="url(#19)"></g></g><path transform="matrix(1 0 0 -1 0 841)" d="M84.264 678.94L84.744 678.94L84.744 678.94L84.744 679.42L84.744 679.42L84.264 679.42z" stroke="none" fill="#000000" fill-rule="evenodd" /><path transform="matrix(1 0 0 -1 0 841)" d="M84.744 678.94L181.704 678.94L181.704 678.94L181.704 679.42L181.704 679.42L84.744 679.42z" stroke="none" fill="#000000" fill-rule="evenodd" /><path transform="matrix(1 0 0 -1 0 841)" d="M181.7 678.94L182.18 678.94L182.18 678.94L182.18 679.42L182.18 679.42L181.7 679.42z" stroke="none" fill="#000000" fill-rule="evenodd" /><path transform="matrix(1 0 0 -1 0 841)" d="M182.18 678.94L510.69 678.94L510.69 678.94L510.69 679.42L510.69 679.42L182.18 679.42z" stroke="none" fill="#000000" fill-rule="evenodd" /><path transform="matrix(1 0 0 -1 0 841)" d="M510.7 678.94L511.18 678.94L511.18 678.94L511.18 679.42L511.18 679.42L510.7 679.42z" stroke="none" fill="#000000" fill-rule="evenodd" /><path transform="matrix(1 0 0 -1 0 841)" d="M84.264 625.42L84.744 625.42L84.744 625.42L84.744 678.94L84.744 678.94L84.264 678.94z" stroke="none" fill="#000000" fill-rule="evenodd" /><path transform="matrix(1 0 0 -1 0 841)" d="M181.7 625.42L182.18 625.42L182.18 625.42L182.18 678.94L182.18 678.94L181.7 678.94z" stroke="none" fill="#000000" fill-rule="evenodd" /><path transform="matrix(1 0 0 -1 0 841)" d="M510.7 625.42L511.18 625.42L511.18 625.42L511.18 678.94L511.18 678.94L510.7 678.94z" stroke="none" fill="#000000" fill-rule="evenodd" /><g clip-path="url(#20)"><g clip-path="url(#21)"></g><g clip-path="url(#22)"></g></g><g clip-path="url(#23)"><g clip-path="url(#24)"></g><g clip-path="url(#25)"></g><g clip-path="url(#26)"></g><g clip-path="url(#27)"></g><g clip-path="url(#28)"></g><g clip-path="url(#29)"></g><g clip-path="url(#30)"></g><g clip-path="url(#31)"></g><g clip-path="url(#32)"></g><g clip-path="url(#33)"></g><g clip-path="url(#34)"></g><g clip-path="url(#35)"></g><g clip-path="url(#36)"></g></g><path transform="matrix(1 0 0 -1 0 841)" d="M84.264 624.94L84.744 624.94L84.744 624.94L84.744 625.42L84.744 625.42L84.264 625.42z" stroke="none" fill="#000000" fill-rule="evenodd" /><path transform="matrix(1 0 0 -1 0 841)" d="M84.744 624.94L181.704 624.94L181.704 624.94L181.704 625.42L181.704 625.42L84.744 625.42z" stroke="none" fill="#000000" fill-rule="evenodd" /><path transform="matrix(1 0 0 -1 0 841)" d="M181.7 624.94L182.18 624.94L182.18 624.94L182.18 625.42L182.18 625.42L181.7 625.42z" stroke="none" fill="#000000" fill-rule="evenodd" /><path transform="matrix(1 0 0 -1 0 841)" d="M182.18 624.94L510.69 624.94L510.69 624.94L510.69 625.42L510.69 625.42L182.18 625.42z" stroke="none" fill="#000000" fill-rule="evenodd" /><path transform="matrix(1 0 0 -1 0 841)" d="M510.7 624.94L511.18 624.94L511.18 624.94L511.18 625.42L511.18 625.42L510.7 625.42z" stroke="none" fill="#000000" fill-rule="evenodd" /><path transform="matrix(1 0 0 -1 0 841)" d="M84.264 454.27L84.744 454.27L84.744 454.27L84.744 624.93L84.744 624.93L84.264 624.93z" stroke="none" fill="#000000" fill-rule="evenodd" /><path transform="matrix(1 0 0 -1 0 841)" d="M84.264 453.79L84.744 453.79L84.744 453.79L84.744 454.27L84.744 454.27L84.264 454.27z" stroke="none" fill="#000000" fill-rule="evenodd" /><path transform="matrix(1 0 0 -1 0 841)" d="M84.264 453.79L84.744 453.79L84.744 453.79L84.744 454.27L84.744 454.27L84.264 454.27z" stroke="none" fill="#000000" fill-rule="evenodd" /><path transform="matrix(1 0 0 -1 0 841)" d="M84.744 453.79L181.704 453.79L181.704 453.79L181.704 454.27L181.704 454.27L84.744 454.27z" stroke="none" fill="#000000" fill-rule="evenodd" /><path transform="matrix(1 0 0 -1 0 841)" d="M181.7 454.27L182.18 454.27L182.18 454.27L182.18 624.93L182.18 624.93L181.7 624.93z" stroke="none" fill="#000000" fill-rule="evenodd" /><path transform="matrix(1 0 0 -1 0 841)" d="M181.7 453.79L182.18 453.79L182.18 453.79L182.18 454.27L182.18 454.27L181.7 454.27z" stroke="none" fill="#000000" fill-rule="evenodd" /><path transform="matrix(1 0 0 -1 0 841)" d="M182.18 453.79L510.69 453.79L510.69 453.79L510.69 454.27L510.69 454.27L182.18 454.27z" stroke="none" fill="#000000" fill-rule="evenodd" /><path transform="matrix(1 0 0 -1 0 841)" d="M510.7 454.27L511.18 454.27L511.18 454.27L511.18 624.93L511.18 624.93L510.7 624.93z" stroke="none" fill="#000000" fill-rule="evenodd" /><path transform="matrix(1 0 0 -1 0 841)" d="M510.7 453.79L511.18 453.79L511.18 453.79L511.18 454.27L511.18 454.27L510.7 454.27z" stroke="none" fill="#000000" fill-rule="evenodd" /><path transform="matrix(1 0 0 -1 0 841)" d="M510.7 453.79L511.18 453.79L511.18 453.79L511.18 454.27L511.18 454.27L510.7 454.27z" stroke="none" fill="#000000" fill-rule="evenodd" /></g></g></g></svg>