<svg xmlns="http://www.w3.org/2000/svg" xmlns:xlink="http://www.w3.org/1999/xlink" id="body_180" preserveAspectRatio="xMinYMin meet" viewBox="0 0 793 1121"><defs><clipPath id="1"><path d="M0 841L0 -0.9199829L0 -0.9199829L595.32 -0.9199829L595.32 -0.9199829L595.32 841L595.32 841L0 841z" /></clipPath><clipPath id="2"><path d="M0.00125 841.0914L595.4112 841.0914L595.4112 841.0914L595.4112 -0.9186401L595.4112 -0.9186401L0.00125 -0.9186401z" /></clipPath><clipPath id="3"><path d="M288.05 781.211L316.01 781.211L316.01 781.211L316.01 762.011L316.01 762.011L288.05 762.011z" /></clipPath><clipPath id="4"><path d="M288.05 781.216L316.01 781.216L316.01 781.216L316.01 762.016L316.01 762.016L288.05 762.016z" /></clipPath><clipPath id="5"><path d="M288.05 781.216L316.01 781.216L316.01 781.216L316.01 762.016L316.01 762.016L288.05 762.016z" /></clipPath><clipPath id="6"><path d="M84.751 158.59L220.611 158.59L220.611 158.59L220.611 133.51L220.611 133.51L84.751 133.51z" /></clipPath><clipPath id="7"><path d="M84.744 158.58L220.604 158.58L220.604 158.58L220.604 133.5L220.604 133.5L84.744 133.5z" /></clipPath><clipPath id="8"><path d="M84.744 158.58L220.604 158.58L220.604 158.58L220.604 133.5L220.604 133.5L84.744 133.5z" /></clipPath><clipPath id="9"><path d="M221.09 158.59L360.68 158.59L360.68 158.59L360.68 133.51L360.68 133.51L221.09 133.51z" /></clipPath><clipPath id="10"><path d="M221.09 158.58L360.67 158.58L360.67 158.58L360.67 133.5L360.67 133.5L221.09 133.5z" /></clipPath><clipPath id="11"><path d="M221.09 158.58L360.67 158.58L360.67 158.58L360.67 133.5L360.67 133.5L221.09 133.5z" /></clipPath><clipPath id="12"><path d="M361.28 158.59L510.7 158.59L510.7 158.59L510.7 133.51L510.7 133.51L361.28 133.51z" /></clipPath><clipPath id="13"><path d="M361.27 158.58L510.69 158.58L510.69 158.58L510.69 133.5L510.69 133.5L361.27 133.5z" /></clipPath><clipPath id="14"><path d="M361.27 158.58L510.69 158.58L510.69 158.58L510.69 133.5L510.69 133.5L361.27 133.5z" /></clipPath><clipPath id="15"><path d="M84.751 347.37L220.611 347.37L220.611 347.37L220.611 159.07L220.611 159.07L84.751 159.07z" /></clipPath><clipPath id="16"><path d="M84.744 347.37L220.604 347.37L220.604 347.37L220.604 159.07L220.604 159.07L84.744 159.07z" /></clipPath><clipPath id="17"><path d="M84.744 347.37L220.604 347.37L220.604 347.37L220.604 159.07L220.604 159.07L84.744 159.07z" /></clipPath><clipPath id="18"><path d="M221.09 347.37L360.68 347.37L360.68 347.37L360.68 159.07L360.68 159.07L221.09 159.07z" /></clipPath><clipPath id="19"><path d="M221.09 347.37L360.67 347.37L360.67 347.37L360.67 159.07L360.67 159.07L221.09 159.07z" /></clipPath><clipPath id="20"><path d="M221.09 347.37L360.67 347.37L360.67 347.37L360.67 159.07L360.67 159.07L221.09 159.07z" /></clipPath><clipPath id="21"><path d="M361.28 347.37L510.7 347.37L510.7 347.37L510.7 159.07L510.7 159.07L361.28 159.07z" /></clipPath><clipPath id="22"><path d="M361.27 347.37L510.69 347.37L510.69 347.37L510.69 159.07L510.69 159.07L361.27 159.07z" /></clipPath><clipPath id="23"><path d="M361.27 347.37L510.69 347.37L510.69 347.37L510.69 159.07L510.69 159.07L361.27 159.07z" /></clipPath><clipPath id="24"><path d="M361.27 347.37L510.69 347.37L510.69 347.37L510.69 159.07L510.69 159.07L361.27 159.07z" /></clipPath><clipPath id="25"><path d="M361.27 347.37L510.69 347.37L510.69 347.37L510.69 159.07L510.69 159.07L361.27 159.07z" /></clipPath><clipPath id="26"><path d="M361.27 347.37L510.69 347.37L510.69 347.37L510.69 159.07L510.69 159.07L361.27 159.07z" /></clipPath><clipPath id="27"><path d="M361.27 347.37L510.69 347.37L510.69 347.37L510.69 159.07L510.69 159.07L361.27 159.07z" /></clipPath><clipPath id="28"><path d="M361.27 347.37L510.69 347.37L510.69 347.37L510.69 159.07L510.69 159.07L361.27 159.07z" /></clipPath><clipPath id="29"><path d="M361.27 347.37L510.69 347.37L510.69 347.37L510.69 159.07L510.69 159.07L361.27 159.07z" /></clipPath><clipPath id="30"><path d="M361.27 347.37L510.69 347.37L510.69 347.37L510.69 159.07L510.69 159.07L361.27 159.07z" /></clipPath><clipPath id="31"><path d="M361.27 347.37L510.69 347.37L510.69 347.37L510.69 159.07L510.69 159.07L361.27 159.07z" /></clipPath><clipPath id="32"><path d="M361.27 347.37L510.69 347.37L510.69 347.37L510.69 159.07L510.69 159.07L361.27 159.07z" /></clipPath><clipPath id="33"><path d="M361.27 347.37L510.69 347.37L510.69 347.37L510.69 159.07L510.69 159.07L361.27 159.07z" /></clipPath><clipPath id="34"><path d="M361.27 347.37L510.69 347.37L510.69 347.37L510.69 159.07L510.69 159.07L361.27 159.07z" /></clipPath><clipPath id="35"><path d="M361.27 347.37L510.69 347.37L510.69 347.37L510.69 159.07L510.69 159.07L361.27 159.07z" /></clipPath><clipPath id="36"><path d="M361.27 347.37L510.69 347.37L510.69 347.37L510.69 159.07L510.69 159.07L361.27 159.07z" /></clipPath><clipPath id="37"><path d="M361.27 347.37L510.69 347.37L510.69 347.37L510.69 159.07L510.69 159.07L361.27 159.07z" /></clipPath><clipPath id="38"><path d="M361.27 347.37L510.69 347.37L510.69 347.37L510.69 159.07L510.69 159.07L361.27 159.07z" /></clipPath><clipPath id="39"><path d="M361.27 347.37L510.69 347.37L510.69 347.37L510.69 159.07L510.69 159.07L361.27 159.07z" /></clipPath><clipPath id="40"><path d="M361.27 347.37L510.69 347.37L510.69 347.37L510.69 159.07L510.69 159.07L361.27 159.07z" /></clipPath><clipPath id="41"><path d="M361.27 347.37L510.69 347.37L510.69 347.37L510.69 159.07L510.69 159.07L361.27 159.07z" /></clipPath><clipPath id="42"><path d="M361.27 347.37L510.69 347.37L510.69 347.37L510.69 159.07L510.69 159.07L361.27 159.07z" /></clipPath><clipPath id="43"><path d="M361.27 347.37L510.69 347.37L510.69 347.37L510.69 159.07L510.69 159.07L361.27 159.07z" /></clipPath><clipPath id="44"><path d="M361.27 347.37L510.69 347.37L510.69 347.37L510.69 159.07L510.69 159.07L361.27 159.07z" /></clipPath><clipPath id="45"><path d="M361.27 347.37L510.69 347.37L510.69 347.37L510.69 159.07L510.69 159.07L361.27 159.07z" /></clipPath><clipPath id="46"><path d="M361.27 347.37L510.69 347.37L510.69 347.37L510.69 159.07L510.69 159.07L361.27 159.07z" /></clipPath><clipPath id="47"><path d="M361.27 347.37L510.69 347.37L510.69 347.37L510.69 159.07L510.69 159.07L361.27 159.07z" /></clipPath><clipPath id="48"><path d="M361.27 347.37L510.69 347.37L510.69 347.37L510.69 159.07L510.69 159.07L361.27 159.07z" /></clipPath><clipPath id="49"><path d="M84.751 388.53L220.611 388.53L220.611 388.53L220.611 347.97L220.611 347.97L84.751 347.97z" /></clipPath><clipPath id="50"><path d="M84.744 388.53L220.604 388.53L220.604 388.53L220.604 347.97L220.604 347.97L84.744 347.97z" /></clipPath><clipPath id="51"><path d="M84.744 388.53L220.604 388.53L220.604 388.53L220.604 347.97L220.604 347.97L84.744 347.97z" /></clipPath><clipPath id="52"><path d="M221.09 388.53L360.68 388.53L360.68 388.53L360.68 347.97L360.68 347.97L221.09 347.97z" /></clipPath><clipPath id="53"><path d="M221.09 388.53L360.67 388.53L360.67 388.53L360.67 347.97L360.67 347.97L221.09 347.97z" /></clipPath><clipPath id="54"><path d="M221.09 388.53L360.67 388.53L360.67 388.53L360.67 347.97L360.67 347.97L221.09 347.97z" /></clipPath><clipPath id="55"><path d="M361.28 388.53L510.7 388.53L510.7 388.53L510.7 347.97L510.7 347.97L361.28 347.97z" /></clipPath><clipPath id="56"><path d="M361.27 388.53L510.69 388.53L510.69 388.53L510.69 347.97L510.69 347.97L361.27 347.97z" /></clipPath><clipPath id="57"><path d="M361.27 388.53L510.69 388.53L510.69 388.53L510.69 347.97L510.69 347.97L361.27 347.97z" /></clipPath><clipPath id="58"><path d="M361.27 388.53L510.69 388.53L510.69 388.53L510.69 347.97L510.69 347.97L361.27 347.97z" /></clipPath><clipPath id="59"><path d="M361.27 388.53L510.69 388.53L510.69 388.53L510.69 347.97L510.69 347.97L361.27 347.97z" /></clipPath><clipPath id="60"><path d="M361.27 388.53L510.69 388.53L510.69 388.53L510.69 347.97L510.69 347.97L361.27 347.97z" /></clipPath><clipPath id="61"><path d="M84.751 739.09L220.611 739.09L220.611 739.09L220.611 389L220.611 389L84.751 389z" /></clipPath><clipPath id="62"><path d="M84.744 739.1L220.604 739.1L220.604 739.1L220.604 389.01L220.604 389.01L84.744 389.01z" /></clipPath><clipPath id="63"><path d="M84.744 739.1L220.604 739.1L220.604 739.1L220.604 389.01L220.604 389.01L84.744 389.01z" /></clipPath><clipPath id="64"><path d="M221.09 739.09L360.68 739.09L360.68 739.09L360.68 389L360.68 389L221.09 389z" /></clipPath><clipPath id="65"><path d="M221.09 739.1L360.67 739.1L360.67 739.1L360.67 389.01L360.67 389.01L221.09 389.01z" /></clipPath><clipPath id="66"><path d="M221.09 739.1L360.67 739.1L360.67 739.1L360.67 389.01L360.67 389.01L221.09 389.01z" /></clipPath><clipPath id="67"><path d="M361.28 739.09L510.7 739.09L510.7 739.09L510.7 389L510.7 389L361.28 389z" /></clipPath><clipPath id="68"><path d="M361.27 739.1L510.69 739.1L510.69 739.1L510.69 389.01L510.69 389.01L361.27 389.01z" /></clipPath><clipPath id="69"><path d="M361.27 739.1L510.69 739.1L510.69 739.1L510.69 389.01L510.69 389.01L361.27 389.01z" /></clipPath><clipPath id="70"><path d="M361.27 739.1L510.69 739.1L510.69 739.1L510.69 389.01L510.69 389.01L361.27 389.01z" /></clipPath><clipPath id="71"><path d="M361.27 739.1L510.69 739.1L510.69 739.1L510.69 389.01L510.69 389.01L361.27 389.01z" /></clipPath><clipPath id="72"><path d="M361.27 739.1L510.69 739.1L510.69 739.1L510.69 389.01L510.69 389.01L361.27 389.01z" /></clipPath><clipPath id="73"><path d="M361.27 739.1L510.69 739.1L510.69 739.1L510.69 389.01L510.69 389.01L361.27 389.01z" /></clipPath><clipPath id="74"><path d="M361.27 739.1L510.69 739.1L510.69 739.1L510.69 389.01L510.69 389.01L361.27 389.01z" /></clipPath><clipPath id="75"><path d="M361.27 739.1L510.69 739.1L510.69 739.1L510.69 389.01L510.69 389.01L361.27 389.01z" /></clipPath><clipPath id="76"><path d="M361.27 739.1L510.69 739.1L510.69 739.1L510.69 389.01L510.69 389.01L361.27 389.01z" /></clipPath><clipPath id="77"><path d="M361.27 739.1L510.69 739.1L510.69 739.1L510.69 389.01L510.69 389.01L361.27 389.01z" /></clipPath><clipPath id="78"><path d="M361.27 739.1L510.69 739.1L510.69 739.1L510.69 389.01L510.69 389.01L361.27 389.01z" /></clipPath><clipPath id="79"><path d="M361.27 739.1L510.69 739.1L510.69 739.1L510.69 389.01L510.69 389.01L361.27 389.01z" /></clipPath><clipPath id="80"><path d="M361.27 739.1L510.69 739.1L510.69 739.1L510.69 389.01L510.69 389.01L361.27 389.01z" /></clipPath><clipPath id="81"><path d="M361.27 739.1L510.69 739.1L510.69 739.1L510.69 389.01L510.69 389.01L361.27 389.01z" /></clipPath><clipPath id="82"><path d="M361.27 739.1L510.69 739.1L510.69 739.1L510.69 389.01L510.69 389.01L361.27 389.01z" /></clipPath><clipPath id="83"><path d="M361.27 739.1L510.69 739.1L510.69 739.1L510.69 389.01L510.69 389.01L361.27 389.01z" /></clipPath><clipPath id="84"><path d="M361.27 739.1L510.69 739.1L510.69 739.1L510.69 389.01L510.69 389.01L361.27 389.01z" /></clipPath><clipPath id="85"><path d="M361.27 739.1L510.69 739.1L510.69 739.1L510.69 389.01L510.69 389.01L361.27 389.01z" /></clipPath><clipPath id="86"><path d="M361.27 739.1L510.69 739.1L510.69 739.1L510.69 389.01L510.69 389.01L361.27 389.01z" /></clipPath><clipPath id="87"><path d="M361.27 739.1L510.69 739.1L510.69 739.1L510.69 389.01L510.69 389.01L361.27 389.01z" /></clipPath><clipPath id="88"><path d="M361.27 739.1L510.69 739.1L510.69 739.1L510.69 389.01L510.69 389.01L361.27 389.01z" /></clipPath><clipPath id="89"><path d="M361.27 739.1L510.69 739.1L510.69 739.1L510.69 389.01L510.69 389.01L361.27 389.01z" /></clipPath><clipPath id="90"><path d="M361.27 739.1L510.69 739.1L510.69 739.1L510.69 389.01L510.69 389.01L361.27 389.01z" /></clipPath><clipPath id="91"><path d="M361.27 739.1L510.69 739.1L510.69 739.1L510.69 389.01L510.69 389.01L361.27 389.01z" /></clipPath><clipPath id="92"><path d="M361.27 739.1L510.69 739.1L510.69 739.1L510.69 389.01L510.69 389.01L361.27 389.01z" /></clipPath><clipPath id="93"><path d="M361.27 739.1L510.69 739.1L510.69 739.1L510.69 389.01L510.69 389.01L361.27 389.01z" /></clipPath><clipPath id="94"><path d="M361.27 739.1L510.69 739.1L510.69 739.1L510.69 389.01L510.69 389.01L361.27 389.01z" /></clipPath><clipPath id="95"><path d="M361.27 739.1L510.69 739.1L510.69 739.1L510.69 389.01L510.69 389.01L361.27 389.01z" /></clipPath><clipPath id="96"><path d="M361.27 739.1L510.69 739.1L510.69 739.1L510.69 389.01L510.69 389.01L361.27 389.01z" /></clipPath><clipPath id="97"><path d="M361.27 739.1L510.69 739.1L510.69 739.1L510.69 389.01L510.69 389.01L361.27 389.01z" /></clipPath><clipPath id="98"><path d="M361.27 739.1L510.69 739.1L510.69 739.1L510.69 389.01L510.69 389.01L361.27 389.01z" /></clipPath><clipPath id="99"><path d="M361.27 739.1L510.69 739.1L510.69 739.1L510.69 389.01L510.69 389.01L361.27 389.01z" /></clipPath><clipPath id="100"><path d="M361.27 739.1L510.69 739.1L510.69 739.1L510.69 389.01L510.69 389.01L361.27 389.01z" /></clipPath><clipPath id="101"><path d="M361.27 739.1L510.69 739.1L510.69 739.1L510.69 389.01L510.69 389.01L361.27 389.01z" /></clipPath><clipPath id="102"><path d="M361.27 739.1L510.69 739.1L510.69 739.1L510.69 389.01L510.69 389.01L361.27 389.01z" /></clipPath><clipPath id="103"><path d="M361.27 739.1L510.69 739.1L510.69 739.1L510.69 389.01L510.69 389.01L361.27 389.01z" /></clipPath><clipPath id="104"><path d="M361.27 739.1L510.69 739.1L510.69 739.1L510.69 389.01L510.69 389.01L361.27 389.01z" /></clipPath><clipPath id="105"><path d="M361.27 739.1L510.69 739.1L510.69 739.1L510.69 389.01L510.69 389.01L361.27 389.01z" /></clipPath><clipPath id="106"><path d="M361.27 739.1L510.69 739.1L510.69 739.1L510.69 389.01L510.69 389.01L361.27 389.01z" /></clipPath><clipPath id="107"><path d="M361.27 739.1L510.69 739.1L510.69 739.1L510.69 389.01L510.69 389.01L361.27 389.01z" /></clipPath><clipPath id="108"><path d="M361.27 739.1L510.69 739.1L510.69 739.1L510.69 389.01L510.69 389.01L361.27 389.01z" /></clipPath><clipPath id="109"><path d="M361.27 739.1L510.69 739.1L510.69 739.1L510.69 389.01L510.69 389.01L361.27 389.01z" /></clipPath><clipPath id="110"><path d="M361.27 739.1L510.69 739.1L510.69 739.1L510.69 389.01L510.69 389.01L361.27 389.01z" /></clipPath><clipPath id="111"><path d="M361.27 739.1L510.69 739.1L510.69 739.1L510.69 389.01L510.69 389.01L361.27 389.01z" /></clipPath><clipPath id="112"><path d="M361.27 739.1L510.69 739.1L510.69 739.1L510.69 389.01L510.69 389.01L361.27 389.01z" /></clipPath><clipPath id="113"><path d="M361.27 739.1L510.69 739.1L510.69 739.1L510.69 389.01L510.69 389.01L361.27 389.01z" /></clipPath><clipPath id="114"><path d="M361.27 739.1L510.69 739.1L510.69 739.1L510.69 389.01L510.69 389.01L361.27 389.01z" /></clipPath><clipPath id="115"><path d="M361.27 739.1L510.69 739.1L510.69 739.1L510.69 389.01L510.69 389.01L361.27 389.01z" /></clipPath><clipPath id="116"><path d="M361.27 739.1L510.69 739.1L510.69 739.1L510.69 389.01L510.69 389.01L361.27 389.01z" /></clipPath><clipPath id="117"><path d="M361.27 739.1L510.69 739.1L510.69 739.1L510.69 389.01L510.69 389.01L361.27 389.01z" /></clipPath><clipPath id="118"><path d="M361.27 739.1L510.69 739.1L510.69 739.1L510.69 389.01L510.69 389.01L361.27 389.01z" /></clipPath></defs><g transform="matrix(1.333333 0 0 1.333333 0 0)"><g><g clip-path="url(#1)"><path transform="matrix(1 0 0 -1 0 841)" d="M457.51 53.304L505.534 53.304L505.534 53.304L505.534 53.90404L505.534 53.90404L457.51 53.90404z" stroke="none" fill="#000000" fill-rule="evenodd" /><g clip-path="url(#2)"><path transform="matrix(1 0 0 -1 0 841)" d="M88.464 77.904L506.974 77.904L506.974 77.904L506.974 80.904L506.974 80.904L88.464 80.904z" stroke="none" fill="#000000" fill-rule="evenodd" /><path transform="matrix(1 0 0 -1 0 841)" d="M88.464 76.464L506.974 76.464L506.974 76.464L506.974 77.18397L506.974 77.18397L88.464 77.18397z" stroke="none" fill="#000000" fill-rule="evenodd" /></g><g clip-path="url(#3)"><g clip-path="url(#4)"></g><g clip-path="url(#5)"></g></g><path transform="matrix(1 0 0 -1 0 841)" d="M84.744 682.42L220.604 682.42L220.604 682.42L220.604 707.5L220.604 707.5L84.744 707.5z" stroke="none" fill="#0070C0" fill-rule="evenodd" /><g clip-path="url(#6)"><path transform="matrix(1 0 0 -1 0 841)" d="M89.904 682.42L215.444 682.42L215.444 682.42L215.444 707.5L215.444 707.5L89.904 707.5z" stroke="none" fill="#0070C0" fill-rule="evenodd" /><g clip-path="url(#7)"></g><g clip-path="url(#8)"></g></g><path transform="matrix(1 0 0 -1 0 841)" d="M221.09 682.42L360.67 682.42L360.67 682.42L360.67 707.5L360.67 707.5L221.09 707.5z" stroke="none" fill="#0070C0" fill-rule="evenodd" /><g clip-path="url(#9)"><path transform="matrix(1 0 0 -1 0 841)" d="M226.25 682.42L355.63 682.42L355.63 682.42L355.63 707.5L355.63 707.5L226.25 707.5z" stroke="none" fill="#0070C0" fill-rule="evenodd" /><g clip-path="url(#10)"></g><g clip-path="url(#11)"></g></g><path transform="matrix(1 0 0 -1 0 841)" d="M361.27 682.42L510.69 682.42L510.69 682.42L510.69 707.5L510.69 707.5L361.27 707.5z" stroke="none" fill="#0070C0" fill-rule="evenodd" /><g clip-path="url(#12)"><path transform="matrix(1 0 0 -1 0 841)" d="M366.43 682.42L505.53 682.42L505.53 682.42L505.53 707.5L505.53 707.5L366.43 707.5z" stroke="none" fill="#0070C0" fill-rule="evenodd" /><g clip-path="url(#13)"></g><g clip-path="url(#14)"></g></g><path transform="matrix(1 0 0 -1 0 841)" d="M84.264 707.5L84.744 707.5L84.744 707.5L84.744 707.98L84.744 707.98L84.264 707.98z" stroke="none" fill="#000000" fill-rule="evenodd" /><path transform="matrix(1 0 0 -1 0 841)" d="M84.264 707.5L84.744 707.5L84.744 707.5L84.744 707.98L84.744 707.98L84.264 707.98z" stroke="none" fill="#000000" fill-rule="evenodd" /><path transform="matrix(1 0 0 -1 0 841)" d="M84.744 707.5L220.604 707.5L220.604 707.5L220.604 707.98L220.604 707.98L84.744 707.98z" stroke="none" fill="#000000" fill-rule="evenodd" /><path transform="matrix(1 0 0 -1 0 841)" d="M220.61 707.5L221.09 707.5L221.09 707.5L221.09 707.98L221.09 707.98L220.61 707.98z" stroke="none" fill="#000000" fill-rule="evenodd" /><path transform="matrix(1 0 0 -1 0 841)" d="M221.09 707.5L360.79 707.5L360.79 707.5L360.79 707.98L360.79 707.98L221.09 707.98z" stroke="none" fill="#000000" fill-rule="evenodd" /><path transform="matrix(1 0 0 -1 0 841)" d="M360.79 707.5L361.27 707.5L361.27 707.5L361.27 707.98L361.27 707.98L360.79 707.98z" stroke="none" fill="#000000" fill-rule="evenodd" /><path transform="matrix(1 0 0 -1 0 841)" d="M361.27 707.5L510.69 707.5L510.69 707.5L510.69 707.98L510.69 707.98L361.27 707.98z" stroke="none" fill="#000000" fill-rule="evenodd" /><path transform="matrix(1 0 0 -1 0 841)" d="M510.7 707.5L511.18 707.5L511.18 707.5L511.18 707.98L511.18 707.98L510.7 707.98z" stroke="none" fill="#000000" fill-rule="evenodd" /><path transform="matrix(1 0 0 -1 0 841)" d="M510.7 707.5L511.18 707.5L511.18 707.5L511.18 707.98L511.18 707.98L510.7 707.98z" stroke="none" fill="#000000" fill-rule="evenodd" /><path transform="matrix(1 0 0 -1 0 841)" d="M84.264 682.42L84.744 682.42L84.744 682.42L84.744 707.5L84.744 707.5L84.264 707.5z" stroke="none" fill="#000000" fill-rule="evenodd" /><path transform="matrix(1 0 0 -1 0 841)" d="M220.61 682.42L221.09 682.42L221.09 682.42L221.09 707.5L221.09 707.5L220.61 707.5z" stroke="none" fill="#000000" fill-rule="evenodd" /><path transform="matrix(1 0 0 -1 0 841)" d="M360.79 682.42L361.27 682.42L361.27 682.42L361.27 707.5L361.27 707.5L360.79 707.5z" stroke="none" fill="#000000" fill-rule="evenodd" /><path transform="matrix(1 0 0 -1 0 841)" d="M510.7 682.42L511.18 682.42L511.18 682.42L511.18 707.5L511.18 707.5L510.7 707.5z" stroke="none" fill="#000000" fill-rule="evenodd" /><path transform="matrix(1 0 0 -1 0 841)" d="M84.744 493.63L220.604 493.63L220.604 493.63L220.604 681.93L220.604 681.93L84.744 681.93z" stroke="none" fill="#DAEEF3" fill-rule="evenodd" /><g clip-path="url(#15)"><path transform="matrix(1 0 0 -1 0 841)" d="M89.904 575.74L215.444 575.74L215.444 575.74L215.444 599.86L215.444 599.86L89.904 599.86z" stroke="none" fill="#DAEEF3" fill-rule="evenodd" /><g clip-path="url(#16)"></g><g clip-path="url(#17)"></g></g><path transform="matrix(1 0 0 -1 0 841)" d="M221.09 493.63L360.67 493.63L360.67 493.63L360.67 681.93L360.67 681.93L221.09 681.93z" stroke="none" fill="#DAEEF3" fill-rule="evenodd" /><g clip-path="url(#18)"><path transform="matrix(1 0 0 -1 0 841)" d="M226.25 575.74L355.63 575.74L355.63 575.74L355.63 599.86L355.63 599.86L226.25 599.86z" stroke="none" fill="#DAEEF3" fill-rule="evenodd" /><g clip-path="url(#19)"></g><g clip-path="url(#20)"></g></g><path transform="matrix(1 0 0 -1 0 841)" d="M361.27 493.63L510.69 493.63L510.69 493.63L510.69 681.93L510.69 681.93L361.27 681.93z" stroke="none" fill="#DAEEF3" fill-rule="evenodd" /><g clip-path="url(#21)"><path transform="matrix(1 0 0 -1 0 841)" d="M366.43 656.86L505.53 656.86L505.53 656.86L505.53 681.94L505.53 681.94L366.43 681.94z" stroke="none" fill="#DAEEF3" fill-rule="evenodd" /><g clip-path="url(#22)"></g><g clip-path="url(#23)"></g><path transform="matrix(1 0 0 -1 0 841)" d="M366.43 636.58L505.53 636.58L505.53 636.58L505.53 656.86L505.53 656.86L366.43 656.86z" stroke="none" fill="#DAEEF3" fill-rule="evenodd" /><g clip-path="url(#24)"></g><g clip-path="url(#25)"></g><g clip-path="url(#26)"></g><path transform="matrix(1 0 0 -1 0 841)" d="M366.43 616.18L505.53 616.18L505.53 616.18L505.53 636.58L505.53 636.58L366.43 636.58z" stroke="none" fill="#DAEEF3" fill-rule="evenodd" /><g clip-path="url(#27)"></g><g clip-path="url(#28)"></g><g clip-path="url(#29)"></g><path transform="matrix(1 0 0 -1 0 841)" d="M366.43 595.9L505.53 595.9L505.53 595.9L505.53 616.1801L505.53 616.1801L366.43 616.1801z" stroke="none" fill="#DAEEF3" fill-rule="evenodd" /><g clip-path="url(#30)"></g><g clip-path="url(#31)"></g><g clip-path="url(#32)"></g><path transform="matrix(1 0 0 -1 0 841)" d="M366.43 575.62L505.53 575.62L505.53 575.62L505.53 595.9L505.53 595.9L366.43 595.9z" stroke="none" fill="#DAEEF3" fill-rule="evenodd" /><g clip-path="url(#33)"></g><g clip-path="url(#34)"></g><g clip-path="url(#35)"></g><path transform="matrix(1 0 0 -1 0 841)" d="M366.43 555.19L505.53 555.19L505.53 555.19L505.53 575.614L505.53 575.614L366.43 575.614z" stroke="none" fill="#DAEEF3" fill-rule="evenodd" /><g clip-path="url(#36)"></g><g clip-path="url(#37)"></g><g clip-path="url(#38)"></g><path transform="matrix(1 0 0 -1 0 841)" d="M366.43 534.91L505.53 534.91L505.53 534.91L505.53 555.19L505.53 555.19L366.43 555.19z" stroke="none" fill="#DAEEF3" fill-rule="evenodd" /><g clip-path="url(#39)"></g><g clip-path="url(#40)"></g><g clip-path="url(#41)"></g><path transform="matrix(1 0 0 -1 0 841)" d="M366.43 514.63L505.53 514.63L505.53 514.63L505.53 534.91L505.53 534.91L366.43 534.91z" stroke="none" fill="#DAEEF3" fill-rule="evenodd" /><g clip-path="url(#42)"></g><g clip-path="url(#43)"></g><g clip-path="url(#44)"></g><path transform="matrix(1 0 0 -1 0 841)" d="M366.43 493.63L505.53 493.63L505.53 493.63L505.53 514.63L505.53 514.63L366.43 514.63z" stroke="none" fill="#DAEEF3" fill-rule="evenodd" /><g clip-path="url(#45)"></g><g clip-path="url(#46)"></g><g clip-path="url(#47)"></g><g clip-path="url(#48)"></g></g><path transform="matrix(1 0 0 -1 0 841)" d="M84.264 681.94L84.744 681.94L84.744 681.94L84.744 682.42L84.744 682.42L84.264 682.42z" stroke="none" fill="#000000" fill-rule="evenodd" /><path transform="matrix(1 0 0 -1 0 841)" d="M84.744 681.94L220.604 681.94L220.604 681.94L220.604 682.42L220.604 682.42L84.744 682.42z" stroke="none" fill="#000000" fill-rule="evenodd" /><path transform="matrix(1 0 0 -1 0 841)" d="M220.61 681.94L221.09 681.94L221.09 681.94L221.09 682.42L221.09 682.42L220.61 682.42z" stroke="none" fill="#000000" fill-rule="evenodd" /><path transform="matrix(1 0 0 -1 0 841)" d="M221.09 681.94L360.79 681.94L360.79 681.94L360.79 682.42L360.79 682.42L221.09 682.42z" stroke="none" fill="#000000" fill-rule="evenodd" /><path transform="matrix(1 0 0 -1 0 841)" d="M360.79 681.94L361.27 681.94L361.27 681.94L361.27 682.42L361.27 682.42L360.79 682.42z" stroke="none" fill="#000000" fill-rule="evenodd" /><path transform="matrix(1 0 0 -1 0 841)" d="M361.27 681.94L510.69 681.94L510.69 681.94L510.69 682.42L510.69 682.42L361.27 682.42z" stroke="none" fill="#000000" fill-rule="evenodd" /><path transform="matrix(1 0 0 -1 0 841)" d="M510.7 681.94L511.18 681.94L511.18 681.94L511.18 682.42L511.18 682.42L510.7 682.42z" stroke="none" fill="#000000" fill-rule="evenodd" /><path transform="matrix(1 0 0 -1 0 841)" d="M84.264 493.63L84.744 493.63L84.744 493.63L84.744 681.93L84.744 681.93L84.264 681.93z" stroke="none" fill="#000000" fill-rule="evenodd" /><path transform="matrix(1 0 0 -1 0 841)" d="M220.61 493.63L221.09 493.63L221.09 493.63L221.09 681.93L221.09 681.93L220.61 681.93z" stroke="none" fill="#000000" fill-rule="evenodd" /><path transform="matrix(1 0 0 -1 0 841)" d="M360.79 493.63L361.27 493.63L361.27 493.63L361.27 681.93L361.27 681.93L360.79 681.93z" stroke="none" fill="#000000" fill-rule="evenodd" /><path transform="matrix(1 0 0 -1 0 841)" d="M510.7 493.63L511.18 493.63L511.18 493.63L511.18 681.93L511.18 681.93L510.7 681.93z" stroke="none" fill="#000000" fill-rule="evenodd" /><g clip-path="url(#49)"><g clip-path="url(#50)"></g><g clip-path="url(#51)"></g></g><g clip-path="url(#52)"><g clip-path="url(#53)"></g><g clip-path="url(#54)"></g></g><g clip-path="url(#55)"><g clip-path="url(#56)"></g><g clip-path="url(#57)"></g><g clip-path="url(#58)"></g><g clip-path="url(#59)"></g><g clip-path="url(#60)"></g></g><path transform="matrix(1 0 0 -1 0 841)" d="M84.264 493.15L84.744 493.15L84.744 493.15L84.744 493.63L84.744 493.63L84.264 493.63z" stroke="none" fill="#000000" fill-rule="evenodd" /><path transform="matrix(1 0 0 -1 0 841)" d="M84.744 493.15L220.604 493.15L220.604 493.15L220.604 493.63L220.604 493.63L84.744 493.63z" stroke="none" fill="#000000" fill-rule="evenodd" /><path transform="matrix(1 0 0 -1 0 841)" d="M220.61 493.15L221.09 493.15L221.09 493.15L221.09 493.63L221.09 493.63L220.61 493.63z" stroke="none" fill="#000000" fill-rule="evenodd" /><path transform="matrix(1 0 0 -1 0 841)" d="M221.09 493.15L360.79 493.15L360.79 493.15L360.79 493.63L360.79 493.63L221.09 493.63z" stroke="none" fill="#000000" fill-rule="evenodd" /><path transform="matrix(1 0 0 -1 0 841)" d="M360.79 493.15L361.27 493.15L361.27 493.15L361.27 493.63L361.27 493.63L360.79 493.63z" stroke="none" fill="#000000" fill-rule="evenodd" /><path transform="matrix(1 0 0 -1 0 841)" d="M361.27 493.15L510.69 493.15L510.69 493.15L510.69 493.63L510.69 493.63L361.27 493.63z" stroke="none" fill="#000000" fill-rule="evenodd" /><path transform="matrix(1 0 0 -1 0 841)" d="M510.7 493.15L511.18 493.15L511.18 493.15L511.18 493.63L511.18 493.63L510.7 493.63z" stroke="none" fill="#000000" fill-rule="evenodd" /><path transform="matrix(1 0 0 -1 0 841)" d="M84.264 452.47L84.744 452.47L84.744 452.47L84.744 493.15L84.744 493.15L84.264 493.15z" stroke="none" fill="#000000" fill-rule="evenodd" /><path transform="matrix(1 0 0 -1 0 841)" d="M220.61 452.47L221.09 452.47L221.09 452.47L221.09 493.15L221.09 493.15L220.61 493.15z" stroke="none" fill="#000000" fill-rule="evenodd" /><path transform="matrix(1 0 0 -1 0 841)" d="M360.79 452.47L361.27 452.47L361.27 452.47L361.27 493.15L361.27 493.15L360.79 493.15z" stroke="none" fill="#000000" fill-rule="evenodd" /><path transform="matrix(1 0 0 -1 0 841)" d="M510.7 452.47L511.18 452.47L511.18 452.47L511.18 493.15L511.18 493.15L510.7 493.15z" stroke="none" fill="#000000" fill-rule="evenodd" /><path transform="matrix(1 0 0 -1 0 841)" d="M84.744 101.9L220.604 101.9L220.604 101.9L220.604 451.99L220.604 451.99L84.744 451.99z" stroke="none" fill="#DAEEF3" fill-rule="evenodd" /><g clip-path="url(#61)"><path transform="matrix(1 0 0 -1 0 841)" d="M89.904 264.89L215.444 264.89L215.444 264.89L215.444 289.01L215.444 289.01L89.904 289.01z" stroke="none" fill="#DAEEF3" fill-rule="evenodd" /><g clip-path="url(#62)"></g><g clip-path="url(#63)"></g></g><path transform="matrix(1 0 0 -1 0 841)" d="M221.09 101.9L360.67 101.9L360.67 101.9L360.67 451.99L360.67 451.99L221.09 451.99z" stroke="none" fill="#DAEEF3" fill-rule="evenodd" /><g clip-path="url(#64)"><path transform="matrix(1 0 0 -1 0 841)" d="M226.25 264.89L355.63 264.89L355.63 264.89L355.63 289.01L355.63 289.01L226.25 289.01z" stroke="none" fill="#DAEEF3" fill-rule="evenodd" /><g clip-path="url(#65)"></g><g clip-path="url(#66)"></g></g><path transform="matrix(1 0 0 -1 0 841)" d="M361.27 101.9L510.69 101.9L510.69 101.9L510.69 451.99L510.69 451.99L361.27 451.99z" stroke="none" fill="#DAEEF3" fill-rule="evenodd" /><g clip-path="url(#67)"><path transform="matrix(1 0 0 -1 0 841)" d="M366.43 426.91L505.53 426.91L505.53 426.91L505.53 451.99L505.53 451.99L366.43 451.99z" stroke="none" fill="#DAEEF3" fill-rule="evenodd" /><g clip-path="url(#68)"></g><g clip-path="url(#69)"></g><path transform="matrix(1 0 0 -1 0 841)" d="M366.43 406.63L505.53 406.63L505.53 406.63L505.53 426.91L505.53 426.91L366.43 426.91z" stroke="none" fill="#DAEEF3" fill-rule="evenodd" /><g clip-path="url(#70)"></g><g clip-path="url(#71)"></g><g clip-path="url(#72)"></g><path transform="matrix(1 0 0 -1 0 841)" d="M366.43 386.23L505.53 386.23L505.53 386.23L505.53 406.63L505.53 406.63L366.43 406.63z" stroke="none" fill="#DAEEF3" fill-rule="evenodd" /><g clip-path="url(#73)"></g><g clip-path="url(#74)"></g><g clip-path="url(#75)"></g><path transform="matrix(1 0 0 -1 0 841)" d="M366.43 365.93L505.53 365.93L505.53 365.93L505.53 386.234L505.53 386.234L366.43 386.234z" stroke="none" fill="#DAEEF3" fill-rule="evenodd" /><g clip-path="url(#76)"></g><g clip-path="url(#77)"></g><g clip-path="url(#78)"></g><path transform="matrix(1 0 0 -1 0 841)" d="M366.43 345.65L505.53 345.65L505.53 345.65L505.53 365.93L505.53 365.93L366.43 365.93z" stroke="none" fill="#DAEEF3" fill-rule="evenodd" /><g clip-path="url(#79)"></g><g clip-path="url(#80)"></g><g clip-path="url(#81)"></g><path transform="matrix(1 0 0 -1 0 841)" d="M366.43 325.37L505.53 325.37L505.53 325.37L505.53 345.65L505.53 345.65L366.43 345.65z" stroke="none" fill="#DAEEF3" fill-rule="evenodd" /><g clip-path="url(#82)"></g><g clip-path="url(#83)"></g><g clip-path="url(#84)"></g><path transform="matrix(1 0 0 -1 0 841)" d="M366.43 304.97L505.53 304.97L505.53 304.97L505.53 325.37L505.53 325.37L366.43 325.37z" stroke="none" fill="#DAEEF3" fill-rule="evenodd" /><g clip-path="url(#85)"></g><g clip-path="url(#86)"></g><g clip-path="url(#87)"></g><path transform="matrix(1 0 0 -1 0 841)" d="M366.43 284.69L505.53 284.69L505.53 284.69L505.53 304.97L505.53 304.97L366.43 304.97z" stroke="none" fill="#DAEEF3" fill-rule="evenodd" /><g clip-path="url(#88)"></g><g clip-path="url(#89)"></g><g clip-path="url(#90)"></g><path transform="matrix(1 0 0 -1 0 841)" d="M366.43 264.41L505.53 264.41L505.53 264.41L505.53 284.69L505.53 284.69L366.43 284.69z" stroke="none" fill="#DAEEF3" fill-rule="evenodd" /><g clip-path="url(#91)"></g><g clip-path="url(#92)"></g><g clip-path="url(#93)"></g><g clip-path="url(#94)"></g><path transform="matrix(1 0 0 -1 0 841)" d="M366.43 244.01L505.53 244.01L505.53 244.01L505.53 264.41L505.53 264.41L366.43 264.41z" stroke="none" fill="#DAEEF3" fill-rule="evenodd" /><g clip-path="url(#95)"></g><g clip-path="url(#96)"></g><g clip-path="url(#97)"></g><g clip-path="url(#98)"></g><path transform="matrix(1 0 0 -1 0 841)" d="M366.43 223.73L505.53 223.73L505.53 223.73L505.53 244.01L505.53 244.01L366.43 244.01z" stroke="none" fill="#DAEEF3" fill-rule="evenodd" /><g clip-path="url(#99)"></g><g clip-path="url(#100)"></g><g clip-path="url(#101)"></g><path transform="matrix(1 0 0 -1 0 841)" d="M366.43 203.45L505.53 203.45L505.53 203.45L505.53 223.73L505.53 223.73L366.43 223.73z" stroke="none" fill="#DAEEF3" fill-rule="evenodd" /><g clip-path="url(#102)"></g><g clip-path="url(#103)"></g><g clip-path="url(#104)"></g><path transform="matrix(1 0 0 -1 0 841)" d="M366.43 183.17L505.53 183.17L505.53 183.17L505.53 203.45L505.53 203.45L366.43 203.45z" stroke="none" fill="#DAEEF3" fill-rule="evenodd" /><g clip-path="url(#105)"></g><g clip-path="url(#106)"></g><g clip-path="url(#107)"></g><path transform="matrix(1 0 0 -1 0 841)" d="M366.43 162.74L505.53 162.74L505.53 162.74L505.53 183.164L505.53 183.164L366.43 183.164z" stroke="none" fill="#DAEEF3" fill-rule="evenodd" /><g clip-path="url(#108)"></g><g clip-path="url(#109)"></g><g clip-path="url(#110)"></g><path transform="matrix(1 0 0 -1 0 841)" d="M366.43 142.46L505.53 142.46L505.53 142.46L505.53 162.74L505.53 162.74L366.43 162.74z" stroke="none" fill="#DAEEF3" fill-rule="evenodd" /><g clip-path="url(#111)"></g><g clip-path="url(#112)"></g><g clip-path="url(#113)"></g><path transform="matrix(1 0 0 -1 0 841)" d="M366.43 122.18L505.53 122.18L505.53 122.18L505.53 142.46L505.53 142.46L366.43 142.46z" stroke="none" fill="#DAEEF3" fill-rule="evenodd" /><g clip-path="url(#114)"></g><g clip-path="url(#115)"></g><path transform="matrix(1 0 0 -1 0 841)" d="M366.43 101.9L505.53 101.9L505.53 101.9L505.53 122.18L505.53 122.18L366.43 122.18z" stroke="none" fill="#DAEEF3" fill-rule="evenodd" /><g clip-path="url(#116)"></g><g clip-path="url(#117)"></g><g clip-path="url(#118)"></g></g><path transform="matrix(1 0 0 -1 0 841)" d="M84.264 451.99L84.744 451.99L84.744 451.99L84.744 452.47L84.744 452.47L84.264 452.47z" stroke="none" fill="#000000" fill-rule="evenodd" /><path transform="matrix(1 0 0 -1 0 841)" d="M84.744 451.99L220.604 451.99L220.604 451.99L220.604 452.47L220.604 452.47L84.744 452.47z" stroke="none" fill="#000000" fill-rule="evenodd" /><path transform="matrix(1 0 0 -1 0 841)" d="M220.61 451.99L221.09 451.99L221.09 451.99L221.09 452.47L221.09 452.47L220.61 452.47z" stroke="none" fill="#000000" fill-rule="evenodd" /><path transform="matrix(1 0 0 -1 0 841)" d="M221.09 451.99L360.79 451.99L360.79 451.99L360.79 452.47L360.79 452.47L221.09 452.47z" stroke="none" fill="#000000" fill-rule="evenodd" /><path transform="matrix(1 0 0 -1 0 841)" d="M360.79 451.99L361.27 451.99L361.27 451.99L361.27 452.47L361.27 452.47L360.79 452.47z" stroke="none" fill="#000000" fill-rule="evenodd" /><path transform="matrix(1 0 0 -1 0 841)" d="M361.27 451.99L510.69 451.99L510.69 451.99L510.69 452.47L510.69 452.47L361.27 452.47z" stroke="none" fill="#000000" fill-rule="evenodd" /><path transform="matrix(1 0 0 -1 0 841)" d="M510.7 451.99L511.18 451.99L511.18 451.99L511.18 452.47L511.18 452.47L510.7 452.47z" stroke="none" fill="#000000" fill-rule="evenodd" /><path transform="matrix(1 0 0 -1 0 841)" d="M84.264 101.78L84.744 101.78L84.744 101.78L84.744 451.99L84.744 451.99L84.264 451.99z" stroke="none" fill="#000000" fill-rule="evenodd" /><path transform="matrix(1 0 0 -1 0 841)" d="M84.264 101.3L84.744 101.3L84.744 101.3L84.744 101.78L84.744 101.78L84.264 101.78z" stroke="none" fill="#000000" fill-rule="evenodd" /><path transform="matrix(1 0 0 -1 0 841)" d="M84.264 101.3L84.744 101.3L84.744 101.3L84.744 101.78L84.744 101.78L84.264 101.78z" stroke="none" fill="#000000" fill-rule="evenodd" /><path transform="matrix(1 0 0 -1 0 841)" d="M84.744 101.3L220.604 101.3L220.604 101.3L220.604 101.78L220.604 101.78L84.744 101.78z" stroke="none" fill="#000000" fill-rule="evenodd" /><path transform="matrix(1 0 0 -1 0 841)" d="M220.61 101.78L221.09 101.78L221.09 101.78L221.09 451.99L221.09 451.99L220.61 451.99z" stroke="none" fill="#000000" fill-rule="evenodd" /><path transform="matrix(1 0 0 -1 0 841)" d="M220.61 101.3L221.09 101.3L221.09 101.3L221.09 101.78L221.09 101.78L220.61 101.78z" stroke="none" fill="#000000" fill-rule="evenodd" /><path transform="matrix(1 0 0 -1 0 841)" d="M221.09 101.3L360.79 101.3L360.79 101.3L360.79 101.78L360.79 101.78L221.09 101.78z" stroke="none" fill="#000000" fill-rule="evenodd" /><path transform="matrix(1 0 0 -1 0 841)" d="M360.79 101.78L361.27 101.78L361.27 101.78L361.27 451.99L361.27 451.99L360.79 451.99z" stroke="none" fill="#000000" fill-rule="evenodd" /><path transform="matrix(1 0 0 -1 0 841)" d="M360.79 101.3L361.27 101.3L361.27 101.3L361.27 101.78L361.27 101.78L360.79 101.78z" stroke="none" fill="#000000" fill-rule="evenodd" /><path transform="matrix(1 0 0 -1 0 841)" d="M361.27 101.3L510.69 101.3L510.69 101.3L510.69 101.78L510.69 101.78L361.27 101.78z" stroke="none" fill="#000000" fill-rule="evenodd" /><path transform="matrix(1 0 0 -1 0 841)" d="M510.7 101.78L511.18 101.78L511.18 101.78L511.18 451.99L511.18 451.99L510.7 451.99z" stroke="none" fill="#000000" fill-rule="evenodd" /><path transform="matrix(1 0 0 -1 0 841)" d="M510.7 101.3L511.18 101.3L511.18 101.3L511.18 101.78L511.18 101.78L510.7 101.78z" stroke="none" fill="#000000" fill-rule="evenodd" /><path transform="matrix(1 0 0 -1 0 841)" d="M510.7 101.3L511.18 101.3L511.18 101.3L511.18 101.78L511.18 101.78L510.7 101.78z" stroke="none" fill="#000000" fill-rule="evenodd" /></g></g></g></svg>