<svg xmlns="http://www.w3.org/2000/svg" xmlns:xlink="http://www.w3.org/1999/xlink" id="body_16" preserveAspectRatio="xMinYMin meet" viewBox="0 0 793 1121"><defs><clipPath id="1"><path d="M0 841L0 -0.9199829L0 -0.9199829L595.32 -0.9199829L595.32 -0.9199829L595.32 841L595.32 841L0 841z" /></clipPath><clipPath id="2"><path d="M0.00125 841.0914L595.4112 841.0914L595.4112 841.0914L595.4112 -0.9186401L595.4112 -0.9186401L0.00125 -0.9186401z" /></clipPath><clipPath id="3"><path d="M295.13 780.251L305.21 780.251L305.21 780.251L305.21 768.011L305.21 768.011L295.13 768.011z" /></clipPath><clipPath id="4"><path d="M295.13 780.256L305.21 780.256L305.21 780.256L305.21 768.016L305.21 768.016L295.13 768.016z" /></clipPath><clipPath id="5"><path d="M295.13 780.256L305.21 780.256L305.21 780.256L305.21 768.016L305.21 768.016L295.13 768.016z" /></clipPath><clipPath id="6"><path d="M84.751 520.08L167.431 520.08L167.431 520.08L167.431 495L167.431 495L84.751 495z" /></clipPath><clipPath id="7"><path d="M84.744 520.07L167.424 520.07L167.424 520.07L167.424 494.99L167.424 494.99L84.744 494.99z" /></clipPath><clipPath id="8"><path d="M84.744 520.07L167.424 520.07L167.424 520.07L167.424 494.99L167.424 494.99L84.744 494.99z" /></clipPath><clipPath id="9"><path d="M168.03 520.08L275.93 520.08L275.93 520.08L275.93 495L275.93 495L168.03 495z" /></clipPath><clipPath id="10"><path d="M168.02 520.07L275.92 520.07L275.92 520.07L275.92 494.99L275.92 494.99L168.02 494.99z" /></clipPath><clipPath id="11"><path d="M168.02 520.07L275.92 520.07L275.92 520.07L275.92 494.99L275.92 494.99L168.02 494.99z" /></clipPath><clipPath id="12"><path d="M276.41 520.08L387.2 520.08L387.2 520.08L387.2 495L387.2 495L276.41 495z" /></clipPath><clipPath id="13"><path d="M276.41 520.07L387.19 520.07L387.19 520.07L387.19 494.99L387.19 494.99L276.41 494.99z" /></clipPath><clipPath id="14"><path d="M276.41 520.07L387.19 520.07L387.19 520.07L387.19 494.99L387.19 494.99L276.41 494.99z" /></clipPath><clipPath id="15"><path d="M387.68 520.08L510.7 520.08L510.7 520.08L510.7 495L510.7 495L387.68 495z" /></clipPath><clipPath id="16"><path d="M387.67 520.07L510.69 520.07L510.69 520.07L510.69 494.99L510.69 494.99L387.67 494.99z" /></clipPath><clipPath id="17"><path d="M387.67 520.07L510.69 520.07L510.69 520.07L510.69 494.99L510.69 494.99L387.67 494.99z" /></clipPath><clipPath id="18"><path d="M84.751 576.84L167.431 576.84L167.431 576.84L167.431 520.56L167.431 520.56L84.751 520.56z" /></clipPath><clipPath id="19"><path d="M84.744 576.83L167.424 576.83L167.424 576.83L167.424 520.55L167.424 520.55L84.744 520.55z" /></clipPath><clipPath id="20"><path d="M84.744 576.83L167.424 576.83L167.424 576.83L167.424 520.55L167.424 520.55L84.744 520.55z" /></clipPath><clipPath id="21"><path d="M84.744 576.83L167.424 576.83L167.424 576.83L167.424 520.55L167.424 520.55L84.744 520.55z" /></clipPath><clipPath id="22"><path d="M84.744 576.83L167.424 576.83L167.424 576.83L167.424 520.55L167.424 520.55L84.744 520.55z" /></clipPath><clipPath id="23"><path d="M168.03 576.84L275.93 576.84L275.93 576.84L275.93 520.56L275.93 520.56L168.03 520.56z" /></clipPath><clipPath id="24"><path d="M168.02 576.83L275.92 576.83L275.92 576.83L275.92 520.55L275.92 520.55L168.02 520.55z" /></clipPath><clipPath id="25"><path d="M168.02 576.83L275.92 576.83L275.92 576.83L275.92 520.55L275.92 520.55L168.02 520.55z" /></clipPath><clipPath id="26"><path d="M276.41 576.84L387.2 576.84L387.2 576.84L387.2 520.56L387.2 520.56L276.41 520.56z" /></clipPath><clipPath id="27"><path d="M276.41 576.83L387.19 576.83L387.19 576.83L387.19 520.55L387.19 520.55L276.41 520.55z" /></clipPath><clipPath id="28"><path d="M276.41 576.83L387.19 576.83L387.19 576.83L387.19 520.55L387.19 520.55L276.41 520.55z" /></clipPath><clipPath id="29"><path d="M276.41 576.83L387.19 576.83L387.19 576.83L387.19 520.55L387.19 520.55L276.41 520.55z" /></clipPath><clipPath id="30"><path d="M387.68 576.84L510.7 576.84L510.7 576.84L510.7 520.56L510.7 520.56L387.68 520.56z" /></clipPath><clipPath id="31"><path d="M387.67 576.83L510.69 576.83L510.69 576.83L510.69 520.55L510.69 520.55L387.67 520.55z" /></clipPath><clipPath id="32"><path d="M387.67 576.83L510.69 576.83L510.69 576.83L510.69 520.55L510.69 520.55L387.67 520.55z" /></clipPath><clipPath id="33"><path d="M387.67 576.83L510.69 576.83L510.69 576.83L510.69 520.55L510.69 520.55L387.67 520.55z" /></clipPath><clipPath id="34"><path d="M387.67 576.83L510.69 576.83L510.69 576.83L510.69 520.55L510.69 520.55L387.67 520.55z" /></clipPath><clipPath id="35"><path d="M387.67 576.83L510.69 576.83L510.69 576.83L510.69 520.55L510.69 520.55L387.67 520.55z" /></clipPath><clipPath id="36"><path d="M387.67 576.83L510.69 576.83L510.69 576.83L510.69 520.55L510.69 520.55L387.67 520.55z" /></clipPath><clipPath id="37"><path d="M84.751 621.72L167.431 621.72L167.431 621.72L167.431 577.32L167.431 577.32L84.751 577.32z" /></clipPath><clipPath id="38"><path d="M84.744 621.71L167.424 621.71L167.424 621.71L167.424 577.31L167.424 577.31L84.744 577.31z" /></clipPath><clipPath id="39"><path d="M84.744 621.71L167.424 621.71L167.424 621.71L167.424 577.31L167.424 577.31L84.744 577.31z" /></clipPath><clipPath id="40"><path d="M84.744 621.71L167.424 621.71L167.424 621.71L167.424 577.31L167.424 577.31L84.744 577.31z" /></clipPath><clipPath id="41"><path d="M84.744 621.71L167.424 621.71L167.424 621.71L167.424 577.31L167.424 577.31L84.744 577.31z" /></clipPath><clipPath id="42"><path d="M84.744 621.71L167.424 621.71L167.424 621.71L167.424 577.31L167.424 577.31L84.744 577.31z" /></clipPath><clipPath id="43"><path d="M84.744 621.71L167.424 621.71L167.424 621.71L167.424 577.31L167.424 577.31L84.744 577.31z" /></clipPath><clipPath id="44"><path d="M84.744 621.71L167.424 621.71L167.424 621.71L167.424 577.31L167.424 577.31L84.744 577.31z" /></clipPath><clipPath id="45"><path d="M168.03 621.72L275.93 621.72L275.93 621.72L275.93 577.32L275.93 577.32L168.03 577.32z" /></clipPath><clipPath id="46"><path d="M168.02 621.71L275.92 621.71L275.92 621.71L275.92 577.31L275.92 577.31L168.02 577.31z" /></clipPath><clipPath id="47"><path d="M168.02 621.71L275.92 621.71L275.92 621.71L275.92 577.31L275.92 577.31L168.02 577.31z" /></clipPath><clipPath id="48"><path d="M276.41 621.72L387.2 621.72L387.2 621.72L387.2 577.32L387.2 577.32L276.41 577.32z" /></clipPath><clipPath id="49"><path d="M276.41 621.71L387.19 621.71L387.19 621.71L387.19 577.31L387.19 577.31L276.41 577.31z" /></clipPath><clipPath id="50"><path d="M276.41 621.71L387.19 621.71L387.19 621.71L387.19 577.31L387.19 577.31L276.41 577.31z" /></clipPath><clipPath id="51"><path d="M276.41 621.71L387.19 621.71L387.19 621.71L387.19 577.31L387.19 577.31L276.41 577.31z" /></clipPath><clipPath id="52"><path d="M387.68 621.72L510.7 621.72L510.7 621.72L510.7 577.32L510.7 577.32L387.68 577.32z" /></clipPath><clipPath id="53"><path d="M387.67 621.71L510.69 621.71L510.69 621.71L510.69 577.31L510.69 577.31L387.67 577.31z" /></clipPath><clipPath id="54"><path d="M387.67 621.71L510.69 621.71L510.69 621.71L510.69 577.31L510.69 577.31L387.67 577.31z" /></clipPath><clipPath id="55"><path d="M387.67 621.71L510.69 621.71L510.69 621.71L510.69 577.31L510.69 577.31L387.67 577.31z" /></clipPath><clipPath id="56"><path d="M387.67 621.71L510.69 621.71L510.69 621.71L510.69 577.31L510.69 577.31L387.67 577.31z" /></clipPath><clipPath id="57"><path d="M-4.26E-07 429.88L595.32 429.88L595.32 429.88L595.32 149.92L595.32 149.92L-4.26E-07 149.92z" /></clipPath></defs><g transform="matrix(1.333333 0 0 1.333333 0 0)"><g><g clip-path="url(#1)"><path transform="matrix(1 0 0 -1 0 841)" d="M457.63 53.424L505.534 53.424L505.534 53.424L505.534 54.02404L505.534 54.02404L457.63 54.02404z" stroke="none" fill="#000000" fill-rule="evenodd" /><g clip-path="url(#2)"><path transform="matrix(1 0 0 -1 0 841)" d="M88.464 78.984L506.974 78.984L506.974 78.984L506.974 81.984L506.974 81.984L88.464 81.984z" stroke="none" fill="#000000" fill-rule="evenodd" /><path transform="matrix(1 0 0 -1 0 841)" d="M88.464 77.544L506.974 77.544L506.974 77.544L506.974 78.26397L506.974 78.26397L88.464 78.26397z" stroke="none" fill="#000000" fill-rule="evenodd" /></g><g clip-path="url(#3)"><g clip-path="url(#4)"></g><g clip-path="url(#5)"></g></g><path transform="matrix(1 0 0 -1 0 841)" d="M84.744 320.93L167.424 320.93L167.424 320.93L167.424 346.01L167.424 346.01L84.744 346.01z" stroke="none" fill="#0070C0" fill-rule="evenodd" /><g clip-path="url(#6)"><path transform="matrix(1 0 0 -1 0 841)" d="M89.904 320.93L162.384 320.93L162.384 320.93L162.384 346.01L162.384 346.01L89.904 346.01z" stroke="none" fill="#0070C0" fill-rule="evenodd" /><g clip-path="url(#7)"></g><g clip-path="url(#8)"></g></g><path transform="matrix(1 0 0 -1 0 841)" d="M168.02 320.93L275.92 320.93L275.92 320.93L275.92 346.01L275.92 346.01L168.02 346.01z" stroke="none" fill="#0070C0" fill-rule="evenodd" /><g clip-path="url(#9)"><path transform="matrix(1 0 0 -1 0 841)" d="M173.18 320.93L270.764 320.93L270.764 320.93L270.764 346.01L270.764 346.01L173.18 346.01z" stroke="none" fill="#0070C0" fill-rule="evenodd" /><g clip-path="url(#10)"></g><g clip-path="url(#11)"></g></g><path transform="matrix(1 0 0 -1 0 841)" d="M276.41 320.93L387.19 320.93L387.19 320.93L387.19 346.01L387.19 346.01L276.41 346.01z" stroke="none" fill="#0070C0" fill-rule="evenodd" /><g clip-path="url(#12)"><path transform="matrix(1 0 0 -1 0 841)" d="M281.57 320.93L382.03 320.93L382.03 320.93L382.03 346.01L382.03 346.01L281.57 346.01z" stroke="none" fill="#0070C0" fill-rule="evenodd" /><g clip-path="url(#13)"></g><g clip-path="url(#14)"></g></g><path transform="matrix(1 0 0 -1 0 841)" d="M387.67 320.93L510.69 320.93L510.69 320.93L510.69 346.01L510.69 346.01L387.67 346.01z" stroke="none" fill="#0070C0" fill-rule="evenodd" /><g clip-path="url(#15)"><path transform="matrix(1 0 0 -1 0 841)" d="M392.83 320.93L505.53 320.93L505.53 320.93L505.53 346.01L505.53 346.01L392.83 346.01z" stroke="none" fill="#0070C0" fill-rule="evenodd" /><g clip-path="url(#16)"></g><g clip-path="url(#17)"></g></g><path transform="matrix(1 0 0 -1 0 841)" d="M84.264 346.01L84.744 346.01L84.744 346.01L84.744 346.49L84.744 346.49L84.264 346.49z" stroke="none" fill="#000000" fill-rule="evenodd" /><path transform="matrix(1 0 0 -1 0 841)" d="M84.264 346.01L84.744 346.01L84.744 346.01L84.744 346.49L84.744 346.49L84.264 346.49z" stroke="none" fill="#000000" fill-rule="evenodd" /><path transform="matrix(1 0 0 -1 0 841)" d="M84.744 346.01L167.544 346.01L167.544 346.01L167.544 346.49L167.544 346.49L84.744 346.49z" stroke="none" fill="#000000" fill-rule="evenodd" /><path transform="matrix(1 0 0 -1 0 841)" d="M167.54 346.01L168.02 346.01L168.02 346.01L168.02 346.49L168.02 346.49L167.54 346.49z" stroke="none" fill="#000000" fill-rule="evenodd" /><path transform="matrix(1 0 0 -1 0 841)" d="M168.02 346.01L276.04 346.01L276.04 346.01L276.04 346.49L276.04 346.49L168.02 346.49z" stroke="none" fill="#000000" fill-rule="evenodd" /><path transform="matrix(1 0 0 -1 0 841)" d="M276.05 346.01L276.53 346.01L276.53 346.01L276.53 346.49L276.53 346.49L276.05 346.49z" stroke="none" fill="#000000" fill-rule="evenodd" /><path transform="matrix(1 0 0 -1 0 841)" d="M276.53 346.01L387.31 346.01L387.31 346.01L387.31 346.49L387.31 346.49L276.53 346.49z" stroke="none" fill="#000000" fill-rule="evenodd" /><path transform="matrix(1 0 0 -1 0 841)" d="M387.31 346.01L387.79 346.01L387.79 346.01L387.79 346.49L387.79 346.49L387.31 346.49z" stroke="none" fill="#000000" fill-rule="evenodd" /><path transform="matrix(1 0 0 -1 0 841)" d="M387.79 346.01L510.69 346.01L510.69 346.01L510.69 346.49L510.69 346.49L387.79 346.49z" stroke="none" fill="#000000" fill-rule="evenodd" /><path transform="matrix(1 0 0 -1 0 841)" d="M510.7 346.01L511.18 346.01L511.18 346.01L511.18 346.49L511.18 346.49L510.7 346.49z" stroke="none" fill="#000000" fill-rule="evenodd" /><path transform="matrix(1 0 0 -1 0 841)" d="M510.7 346.01L511.18 346.01L511.18 346.01L511.18 346.49L511.18 346.49L510.7 346.49z" stroke="none" fill="#000000" fill-rule="evenodd" /><path transform="matrix(1 0 0 -1 0 841)" d="M84.264 320.93L84.744 320.93L84.744 320.93L84.744 346.01L84.744 346.01L84.264 346.01z" stroke="none" fill="#000000" fill-rule="evenodd" /><path transform="matrix(1 0 0 -1 0 841)" d="M167.54 320.93L168.02 320.93L168.02 320.93L168.02 346.01L168.02 346.01L167.54 346.01z" stroke="none" fill="#000000" fill-rule="evenodd" /><path transform="matrix(1 0 0 -1 0 841)" d="M276.05 320.93L276.53 320.93L276.53 320.93L276.53 346.01L276.53 346.01L276.05 346.01z" stroke="none" fill="#000000" fill-rule="evenodd" /><path transform="matrix(1 0 0 -1 0 841)" d="M387.31 320.93L387.79 320.93L387.79 320.93L387.79 346.01L387.79 346.01L387.31 346.01z" stroke="none" fill="#000000" fill-rule="evenodd" /><path transform="matrix(1 0 0 -1 0 841)" d="M510.7 320.93L511.18 320.93L511.18 320.93L511.18 346.01L511.18 346.01L510.7 346.01z" stroke="none" fill="#000000" fill-rule="evenodd" /><path transform="matrix(1 0 0 -1 0 841)" d="M84.744 264.17L167.424 264.17L167.424 264.17L167.424 320.45L167.424 320.45L84.744 320.45z" stroke="none" fill="#DAEEF3" fill-rule="evenodd" /><g clip-path="url(#18)"><path transform="matrix(1 0 0 -1 0 841)" d="M89.904 290.33L162.384 290.33L162.384 290.33L162.384 314.57L162.384 314.57L89.904 314.57z" stroke="none" fill="#DAEEF3" fill-rule="evenodd" /><g clip-path="url(#19)"></g><g clip-path="url(#20)"></g><path transform="matrix(1 0 0 -1 0 841)" d="M89.904 270.05L162.384 270.05L162.384 270.05L162.384 290.33L162.384 290.33L89.904 290.33z" stroke="none" fill="#DAEEF3" fill-rule="evenodd" /><g clip-path="url(#21)"></g><g clip-path="url(#22)"></g></g><path transform="matrix(1 0 0 -1 0 841)" d="M168.02 264.17L275.92 264.17L275.92 264.17L275.92 320.45L275.92 320.45L168.02 320.45z" stroke="none" fill="#DAEEF3" fill-rule="evenodd" /><g clip-path="url(#23)"><path transform="matrix(1 0 0 -1 0 841)" d="M173.18 280.25L270.764 280.25L270.764 280.25L270.764 304.37L270.764 304.37L173.18 304.37z" stroke="none" fill="#DAEEF3" fill-rule="evenodd" /><g clip-path="url(#24)"></g><g clip-path="url(#25)"></g></g><path transform="matrix(1 0 0 -1 0 841)" d="M276.41 264.17L387.19 264.17L387.19 264.17L387.19 320.45L387.19 320.45L276.41 320.45z" stroke="none" fill="#DAEEF3" fill-rule="evenodd" /><g clip-path="url(#26)"><path transform="matrix(1 0 0 -1 0 841)" d="M281.57 292.25L382.03 292.25L382.03 292.25L382.03 312.65L382.03 312.65L281.57 312.65z" stroke="none" fill="#DAEEF3" fill-rule="evenodd" /><g clip-path="url(#27)"></g><path transform="matrix(1 0 0 -1 0 841)" d="M281.57 271.97L382.03 271.97L382.03 271.97L382.03 292.25L382.03 292.25L281.57 292.25z" stroke="none" fill="#DAEEF3" fill-rule="evenodd" /><g clip-path="url(#28)"></g><g clip-path="url(#29)"></g></g><path transform="matrix(1 0 0 -1 0 841)" d="M387.67 264.17L510.69 264.17L510.69 264.17L510.69 320.45L510.69 320.45L387.67 320.45z" stroke="none" fill="#DAEEF3" fill-rule="evenodd" /><g clip-path="url(#30)"><path transform="matrix(1 0 0 -1 0 841)" d="M392.83 300.05L505.53 300.05L505.53 300.05L505.53 320.45L505.53 320.45L392.83 320.45z" stroke="none" fill="#DAEEF3" fill-rule="evenodd" /><g clip-path="url(#31)"></g><g clip-path="url(#32)"></g><path transform="matrix(1 0 0 -1 0 841)" d="M392.83 284.57L505.53 284.57L505.53 284.57L505.53 300.05L505.53 300.05L392.83 300.05z" stroke="none" fill="#DAEEF3" fill-rule="evenodd" /><g clip-path="url(#33)"></g><g clip-path="url(#34)"></g><path transform="matrix(1 0 0 -1 0 841)" d="M392.83 264.17L505.53 264.17L505.53 264.17L505.53 284.57L505.53 284.57L392.83 284.57z" stroke="none" fill="#DAEEF3" fill-rule="evenodd" /><g clip-path="url(#35)"></g><g clip-path="url(#36)"></g></g><path transform="matrix(1 0 0 -1 0 841)" d="M84.264 320.45L84.744 320.45L84.744 320.45L84.744 320.93L84.744 320.93L84.264 320.93z" stroke="none" fill="#000000" fill-rule="evenodd" /><path transform="matrix(1 0 0 -1 0 841)" d="M84.744 320.45L167.544 320.45L167.544 320.45L167.544 320.93L167.544 320.93L84.744 320.93z" stroke="none" fill="#000000" fill-rule="evenodd" /><path transform="matrix(1 0 0 -1 0 841)" d="M167.54 320.45L168.02 320.45L168.02 320.45L168.02 320.93L168.02 320.93L167.54 320.93z" stroke="none" fill="#000000" fill-rule="evenodd" /><path transform="matrix(1 0 0 -1 0 841)" d="M168.02 320.45L276.04 320.45L276.04 320.45L276.04 320.93L276.04 320.93L168.02 320.93z" stroke="none" fill="#000000" fill-rule="evenodd" /><path transform="matrix(1 0 0 -1 0 841)" d="M276.05 320.45L276.53 320.45L276.53 320.45L276.53 320.93L276.53 320.93L276.05 320.93z" stroke="none" fill="#000000" fill-rule="evenodd" /><path transform="matrix(1 0 0 -1 0 841)" d="M276.53 320.45L387.31 320.45L387.31 320.45L387.31 320.93L387.31 320.93L276.53 320.93z" stroke="none" fill="#000000" fill-rule="evenodd" /><path transform="matrix(1 0 0 -1 0 841)" d="M387.31 320.45L387.79 320.45L387.79 320.45L387.79 320.93L387.79 320.93L387.31 320.93z" stroke="none" fill="#000000" fill-rule="evenodd" /><path transform="matrix(1 0 0 -1 0 841)" d="M387.79 320.45L510.69 320.45L510.69 320.45L510.69 320.93L510.69 320.93L387.79 320.93z" stroke="none" fill="#000000" fill-rule="evenodd" /><path transform="matrix(1 0 0 -1 0 841)" d="M510.7 320.45L511.18 320.45L511.18 320.45L511.18 320.93L511.18 320.93L510.7 320.93z" stroke="none" fill="#000000" fill-rule="evenodd" /><path transform="matrix(1 0 0 -1 0 841)" d="M84.264 264.17L84.744 264.17L84.744 264.17L84.744 320.45L84.744 320.45L84.264 320.45z" stroke="none" fill="#000000" fill-rule="evenodd" /><path transform="matrix(1 0 0 -1 0 841)" d="M167.54 264.17L168.02 264.17L168.02 264.17L168.02 320.45L168.02 320.45L167.54 320.45z" stroke="none" fill="#000000" fill-rule="evenodd" /><path transform="matrix(1 0 0 -1 0 841)" d="M276.05 264.17L276.53 264.17L276.53 264.17L276.53 320.45L276.53 320.45L276.05 320.45z" stroke="none" fill="#000000" fill-rule="evenodd" /><path transform="matrix(1 0 0 -1 0 841)" d="M387.31 264.17L387.79 264.17L387.79 264.17L387.79 320.45L387.79 320.45L387.31 320.45z" stroke="none" fill="#000000" fill-rule="evenodd" /><path transform="matrix(1 0 0 -1 0 841)" d="M510.7 264.17L511.18 264.17L511.18 264.17L511.18 320.45L511.18 320.45L510.7 320.45z" stroke="none" fill="#000000" fill-rule="evenodd" /><g clip-path="url(#37)"><g clip-path="url(#38)"></g><g clip-path="url(#39)"></g><g clip-path="url(#40)"></g><g clip-path="url(#41)"></g><g clip-path="url(#42)"></g><g clip-path="url(#43)"></g><g clip-path="url(#44)"></g></g><g clip-path="url(#45)"><g clip-path="url(#46)"></g><g clip-path="url(#47)"></g></g><g clip-path="url(#48)"><g clip-path="url(#49)"></g><g clip-path="url(#50)"></g><g clip-path="url(#51)"></g></g><g clip-path="url(#52)"><g clip-path="url(#53)"></g><g clip-path="url(#54)"></g><g clip-path="url(#55)"></g><g clip-path="url(#56)"></g></g><path transform="matrix(1 0 0 -1 0 841)" d="M84.264 263.69L84.744 263.69L84.744 263.69L84.744 264.17L84.744 264.17L84.264 264.17z" stroke="none" fill="#000000" fill-rule="evenodd" /><path transform="matrix(1 0 0 -1 0 841)" d="M84.744 263.69L167.544 263.69L167.544 263.69L167.544 264.17L167.544 264.17L84.744 264.17z" stroke="none" fill="#000000" fill-rule="evenodd" /><path transform="matrix(1 0 0 -1 0 841)" d="M167.54 263.69L168.02 263.69L168.02 263.69L168.02 264.17L168.02 264.17L167.54 264.17z" stroke="none" fill="#000000" fill-rule="evenodd" /><path transform="matrix(1 0 0 -1 0 841)" d="M168.02 263.69L276.04 263.69L276.04 263.69L276.04 264.17L276.04 264.17L168.02 264.17z" stroke="none" fill="#000000" fill-rule="evenodd" /><path transform="matrix(1 0 0 -1 0 841)" d="M276.05 263.69L276.53 263.69L276.53 263.69L276.53 264.17L276.53 264.17L276.05 264.17z" stroke="none" fill="#000000" fill-rule="evenodd" /><path transform="matrix(1 0 0 -1 0 841)" d="M276.53 263.69L387.31 263.69L387.31 263.69L387.31 264.17L387.31 264.17L276.53 264.17z" stroke="none" fill="#000000" fill-rule="evenodd" /><path transform="matrix(1 0 0 -1 0 841)" d="M387.31 263.69L387.79 263.69L387.79 263.69L387.79 264.17L387.79 264.17L387.31 264.17z" stroke="none" fill="#000000" fill-rule="evenodd" /><path transform="matrix(1 0 0 -1 0 841)" d="M387.79 263.69L510.69 263.69L510.69 263.69L510.69 264.17L510.69 264.17L387.79 264.17z" stroke="none" fill="#000000" fill-rule="evenodd" /><path transform="matrix(1 0 0 -1 0 841)" d="M510.7 263.69L511.18 263.69L511.18 263.69L511.18 264.17L511.18 264.17L510.7 264.17z" stroke="none" fill="#000000" fill-rule="evenodd" /><path transform="matrix(1 0 0 -1 0 841)" d="M84.264 219.17L84.744 219.17L84.744 219.17L84.744 263.69L84.744 263.69L84.264 263.69z" stroke="none" fill="#000000" fill-rule="evenodd" /><path transform="matrix(1 0 0 -1 0 841)" d="M84.264 218.69L84.744 218.69L84.744 218.69L84.744 219.17L84.744 219.17L84.264 219.17z" stroke="none" fill="#000000" fill-rule="evenodd" /><path transform="matrix(1 0 0 -1 0 841)" d="M84.264 218.69L84.744 218.69L84.744 218.69L84.744 219.17L84.744 219.17L84.264 219.17z" stroke="none" fill="#000000" fill-rule="evenodd" /><path transform="matrix(1 0 0 -1 0 841)" d="M84.744 218.69L167.544 218.69L167.544 218.69L167.544 219.17L167.544 219.17L84.744 219.17z" stroke="none" fill="#000000" fill-rule="evenodd" /><path transform="matrix(1 0 0 -1 0 841)" d="M167.54 219.17L168.02 219.17L168.02 219.17L168.02 263.69L168.02 263.69L167.54 263.69z" stroke="none" fill="#000000" fill-rule="evenodd" /><path transform="matrix(1 0 0 -1 0 841)" d="M167.54 218.69L168.02 218.69L168.02 218.69L168.02 219.17L168.02 219.17L167.54 219.17z" stroke="none" fill="#000000" fill-rule="evenodd" /><path transform="matrix(1 0 0 -1 0 841)" d="M168.02 218.69L276.04 218.69L276.04 218.69L276.04 219.17L276.04 219.17L168.02 219.17z" stroke="none" fill="#000000" fill-rule="evenodd" /><path transform="matrix(1 0 0 -1 0 841)" d="M276.05 219.17L276.53 219.17L276.53 219.17L276.53 263.69L276.53 263.69L276.05 263.69z" stroke="none" fill="#000000" fill-rule="evenodd" /><path transform="matrix(1 0 0 -1 0 841)" d="M276.05 218.69L276.53 218.69L276.53 218.69L276.53 219.17L276.53 219.17L276.05 219.17z" stroke="none" fill="#000000" fill-rule="evenodd" /><path transform="matrix(1 0 0 -1 0 841)" d="M276.53 218.69L387.31 218.69L387.31 218.69L387.31 219.17L387.31 219.17L276.53 219.17z" stroke="none" fill="#000000" fill-rule="evenodd" /><path transform="matrix(1 0 0 -1 0 841)" d="M387.31 219.17L387.79 219.17L387.79 219.17L387.79 263.69L387.79 263.69L387.31 263.69z" stroke="none" fill="#000000" fill-rule="evenodd" /><path transform="matrix(1 0 0 -1 0 841)" d="M387.31 218.69L387.79 218.69L387.79 218.69L387.79 219.17L387.79 219.17L387.31 219.17z" stroke="none" fill="#000000" fill-rule="evenodd" /><path transform="matrix(1 0 0 -1 0 841)" d="M387.79 218.69L510.69 218.69L510.69 218.69L510.69 219.17L510.69 219.17L387.79 219.17z" stroke="none" fill="#000000" fill-rule="evenodd" /><path transform="matrix(1 0 0 -1 0 841)" d="M510.7 219.17L511.18 219.17L511.18 219.17L511.18 263.69L511.18 263.69L510.7 263.69z" stroke="none" fill="#000000" fill-rule="evenodd" /><path transform="matrix(1 0 0 -1 0 841)" d="M510.7 218.69L511.18 218.69L511.18 218.69L511.18 219.17L511.18 219.17L510.7 219.17z" stroke="none" fill="#000000" fill-rule="evenodd" /><path transform="matrix(1 0 0 -1 0 841)" d="M510.7 218.69L511.18 218.69L511.18 218.69L511.18 219.17L511.18 219.17L510.7 219.17z" stroke="none" fill="#000000" fill-rule="evenodd" /><g clip-path="url(#57)"><g transform="matrix(0.3266494 0 0 0.3265306 171.4 149.96)"><g transform="matrix(1 0 0 1 0 0)"><image x="0" y="0" xlink:href="img_19.png" width="773" height="833" /></g></g></g></g></g></g></svg>