<svg xmlns="http://www.w3.org/2000/svg" xmlns:xlink="http://www.w3.org/1999/xlink" id="body_28" preserveAspectRatio="xMinYMin meet" viewBox="0 0 793 1121"><defs><clipPath id="1"><path d="M0 841L0 -0.9199829L0 -0.9199829L595.32 -0.9199829L595.32 -0.9199829L595.32 841L595.32 841L0 841z" /></clipPath><clipPath id="2"><path d="M0.00125 841.0914L595.4112 841.0914L595.4112 841.0914L595.4112 -0.9186401L595.4112 -0.9186401L0.00125 -0.9186401z" /></clipPath><clipPath id="3"><path d="M295.13 780.251L305.21 780.251L305.21 780.251L305.21 768.011L305.21 768.011L295.13 768.011z" /></clipPath><clipPath id="4"><path d="M295.13 780.256L305.21 780.256L305.21 780.256L305.21 768.016L305.21 768.016L295.13 768.016z" /></clipPath><clipPath id="5"><path d="M295.13 780.256L305.21 780.256L305.21 780.256L305.21 768.016L305.21 768.016L295.13 768.016z" /></clipPath><clipPath id="6"><path d="M84.751 261.55L190.831 261.55L190.831 261.55L190.831 242.47L190.831 242.47L84.751 242.47z" /></clipPath><clipPath id="7"><path d="M84.744 261.54L190.824 261.54L190.824 261.54L190.824 242.46L190.824 242.46L84.744 242.46z" /></clipPath><clipPath id="8"><path d="M84.744 261.54L190.824 261.54L190.824 261.54L190.824 242.46L190.824 242.46L84.744 242.46z" /></clipPath><clipPath id="9"><path d="M191.31 261.55L297.41 261.55L297.41 261.55L297.41 242.47L297.41 242.47L191.31 242.47z" /></clipPath><clipPath id="10"><path d="M191.3 261.54L297.4 261.54L297.4 261.54L297.4 242.46L297.4 242.46L191.3 242.46z" /></clipPath><clipPath id="11"><path d="M191.3 261.54L297.4 261.54L297.4 261.54L297.4 242.46L297.4 242.46L191.3 242.46z" /></clipPath><clipPath id="12"><path d="M298.01 261.55L404.12 261.55L404.12 261.55L404.12 242.47L404.12 242.47L298.01 242.47z" /></clipPath><clipPath id="13"><path d="M298.01 261.54L404.11 261.54L404.11 261.54L404.11 242.46L404.11 242.46L298.01 242.46z" /></clipPath><clipPath id="14"><path d="M298.01 261.54L404.11 261.54L404.11 261.54L404.11 242.46L404.11 242.46L298.01 242.46z" /></clipPath><clipPath id="15"><path d="M404.6 261.55L510.7 261.55L510.7 261.55L510.7 242.47L510.7 242.47L404.6 242.47z" /></clipPath><clipPath id="16"><path d="M404.59 261.54L510.69 261.54L510.69 261.54L510.69 242.46L510.69 242.46L404.59 242.46z" /></clipPath><clipPath id="17"><path d="M404.59 261.54L510.69 261.54L510.69 261.54L510.69 242.46L510.69 242.46L404.59 242.46z" /></clipPath><clipPath id="18"><path d="M84.751 281.11L190.831 281.11L190.831 281.11L190.831 262.03L190.831 262.03L84.751 262.03z" /></clipPath><clipPath id="19"><path d="M84.744 281.1L190.824 281.1L190.824 281.1L190.824 262.02L190.824 262.02L84.744 262.02z" /></clipPath><clipPath id="20"><path d="M84.744 281.1L190.824 281.1L190.824 281.1L190.824 262.02L190.824 262.02L84.744 262.02z" /></clipPath><clipPath id="21"><path d="M191.31 281.11L297.41 281.11L297.41 281.11L297.41 262.03L297.41 262.03L191.31 262.03z" /></clipPath><clipPath id="22"><path d="M191.3 281.1L297.4 281.1L297.4 281.1L297.4 262.02L297.4 262.02L191.3 262.02z" /></clipPath><clipPath id="23"><path d="M191.3 281.1L297.4 281.1L297.4 281.1L297.4 262.02L297.4 262.02L191.3 262.02z" /></clipPath><clipPath id="24"><path d="M298.01 281.11L404.12 281.11L404.12 281.11L404.12 262.03L404.12 262.03L298.01 262.03z" /></clipPath><clipPath id="25"><path d="M298.01 281.1L404.11 281.1L404.11 281.1L404.11 262.02L404.11 262.02L298.01 262.02z" /></clipPath><clipPath id="26"><path d="M298.01 281.1L404.11 281.1L404.11 281.1L404.11 262.02L404.11 262.02L298.01 262.02z" /></clipPath><clipPath id="27"><path d="M404.6 281.11L510.7 281.11L510.7 281.11L510.7 262.03L510.7 262.03L404.6 262.03z" /></clipPath><clipPath id="28"><path d="M404.59 281.1L510.69 281.1L510.69 281.1L510.69 262.02L510.69 262.02L404.59 262.02z" /></clipPath><clipPath id="29"><path d="M404.59 281.1L510.69 281.1L510.69 281.1L510.69 262.02L510.69 262.02L404.59 262.02z" /></clipPath><clipPath id="30"><path d="M84.751 300.69L190.831 300.69L190.831 300.69L190.831 281.595L190.831 281.595L84.751 281.595z" /></clipPath><clipPath id="31"><path d="M84.744 300.69L190.824 300.69L190.824 300.69L190.824 281.586L190.824 281.586L84.744 281.586z" /></clipPath><clipPath id="32"><path d="M84.744 300.69L190.824 300.69L190.824 300.69L190.824 281.586L190.824 281.586L84.744 281.586z" /></clipPath><clipPath id="33"><path d="M191.31 300.69L297.41 300.69L297.41 300.69L297.41 281.595L297.41 281.595L191.31 281.595z" /></clipPath><clipPath id="34"><path d="M191.3 300.69L297.4 300.69L297.4 300.69L297.4 281.586L297.4 281.586L191.3 281.586z" /></clipPath><clipPath id="35"><path d="M191.3 300.69L297.4 300.69L297.4 300.69L297.4 281.586L297.4 281.586L191.3 281.586z" /></clipPath><clipPath id="36"><path d="M191.3 300.69L297.4 300.69L297.4 300.69L297.4 281.586L297.4 281.586L191.3 281.586z" /></clipPath><clipPath id="37"><path d="M298.01 300.69L404.12 300.69L404.12 300.69L404.12 281.595L404.12 281.595L298.01 281.595z" /></clipPath><clipPath id="38"><path d="M298.01 300.69L404.11 300.69L404.11 300.69L404.11 281.586L404.11 281.586L298.01 281.586z" /></clipPath><clipPath id="39"><path d="M298.01 300.69L404.11 300.69L404.11 300.69L404.11 281.586L404.11 281.586L298.01 281.586z" /></clipPath><clipPath id="40"><path d="M404.6 300.69L510.7 300.69L510.7 300.69L510.7 281.595L510.7 281.595L404.6 281.595z" /></clipPath><clipPath id="41"><path d="M404.59 300.69L510.69 300.69L510.69 300.69L510.69 281.586L510.69 281.586L404.59 281.586z" /></clipPath><clipPath id="42"><path d="M404.59 300.69L510.69 300.69L510.69 300.69L510.69 281.586L510.69 281.586L404.59 281.586z" /></clipPath><clipPath id="43"><path d="M84.751 320.13L190.831 320.13L190.831 320.13L190.831 301.17L190.831 301.17L84.751 301.17z" /></clipPath><clipPath id="44"><path d="M84.744 320.13L190.824 320.13L190.824 320.13L190.824 301.17L190.824 301.17L84.744 301.17z" /></clipPath><clipPath id="45"><path d="M84.744 320.13L190.824 320.13L190.824 320.13L190.824 301.17L190.824 301.17L84.744 301.17z" /></clipPath><clipPath id="46"><path d="M191.31 320.13L297.41 320.13L297.41 320.13L297.41 301.17L297.41 301.17L191.31 301.17z" /></clipPath><clipPath id="47"><path d="M191.3 320.13L297.4 320.13L297.4 320.13L297.4 301.17L297.4 301.17L191.3 301.17z" /></clipPath><clipPath id="48"><path d="M191.3 320.13L297.4 320.13L297.4 320.13L297.4 301.17L297.4 301.17L191.3 301.17z" /></clipPath><clipPath id="49"><path d="M298.01 320.13L404.12 320.13L404.12 320.13L404.12 301.17L404.12 301.17L298.01 301.17z" /></clipPath><clipPath id="50"><path d="M298.01 320.13L404.11 320.13L404.11 320.13L404.11 301.17L404.11 301.17L298.01 301.17z" /></clipPath><clipPath id="51"><path d="M298.01 320.13L404.11 320.13L404.11 320.13L404.11 301.17L404.11 301.17L298.01 301.17z" /></clipPath><clipPath id="52"><path d="M404.6 320.13L510.7 320.13L510.7 320.13L510.7 301.17L510.7 301.17L404.6 301.17z" /></clipPath><clipPath id="53"><path d="M404.59 320.13L510.69 320.13L510.69 320.13L510.69 301.17L510.69 301.17L404.59 301.17z" /></clipPath><clipPath id="54"><path d="M404.59 320.13L510.69 320.13L510.69 320.13L510.69 301.17L510.69 301.17L404.59 301.17z" /></clipPath><clipPath id="55"><path d="M404.59 320.13L510.69 320.13L510.69 320.13L510.69 301.17L510.69 301.17L404.59 301.17z" /></clipPath><clipPath id="56"><path d="M404.59 320.13L510.69 320.13L510.69 320.13L510.69 301.17L510.69 301.17L404.59 301.17z" /></clipPath><clipPath id="57"><path d="M84.751 339.69L190.831 339.69L190.831 339.69L190.831 320.73L190.831 320.73L84.751 320.73z" /></clipPath><clipPath id="58"><path d="M84.744 339.69L190.824 339.69L190.824 339.69L190.824 320.73L190.824 320.73L84.744 320.73z" /></clipPath><clipPath id="59"><path d="M84.744 339.69L190.824 339.69L190.824 339.69L190.824 320.73L190.824 320.73L84.744 320.73z" /></clipPath><clipPath id="60"><path d="M191.31 339.69L297.41 339.69L297.41 339.69L297.41 320.73L297.41 320.73L191.31 320.73z" /></clipPath><clipPath id="61"><path d="M191.3 339.69L297.4 339.69L297.4 339.69L297.4 320.73L297.4 320.73L191.3 320.73z" /></clipPath><clipPath id="62"><path d="M191.3 339.69L297.4 339.69L297.4 339.69L297.4 320.73L297.4 320.73L191.3 320.73z" /></clipPath><clipPath id="63"><path d="M298.01 339.69L404.12 339.69L404.12 339.69L404.12 320.73L404.12 320.73L298.01 320.73z" /></clipPath><clipPath id="64"><path d="M298.01 339.69L404.11 339.69L404.11 339.69L404.11 320.73L404.11 320.73L298.01 320.73z" /></clipPath><clipPath id="65"><path d="M298.01 339.69L404.11 339.69L404.11 339.69L404.11 320.73L404.11 320.73L298.01 320.73z" /></clipPath><clipPath id="66"><path d="M404.6 339.69L510.7 339.69L510.7 339.69L510.7 320.73L510.7 320.73L404.6 320.73z" /></clipPath><clipPath id="67"><path d="M404.59 339.69L510.69 339.69L510.69 339.69L510.69 320.73L510.69 320.73L404.59 320.73z" /></clipPath><clipPath id="68"><path d="M404.59 339.69L510.69 339.69L510.69 339.69L510.69 320.73L510.69 320.73L404.59 320.73z" /></clipPath><clipPath id="69"><path d="M84.751 359.25L190.831 359.25L190.831 359.25L190.831 340.29L190.831 340.29L84.751 340.29z" /></clipPath><clipPath id="70"><path d="M84.744 359.25L190.824 359.25L190.824 359.25L190.824 340.29L190.824 340.29L84.744 340.29z" /></clipPath><clipPath id="71"><path d="M84.744 359.25L190.824 359.25L190.824 359.25L190.824 340.29L190.824 340.29L84.744 340.29z" /></clipPath><clipPath id="72"><path d="M191.31 359.25L297.41 359.25L297.41 359.25L297.41 340.29L297.41 340.29L191.31 340.29z" /></clipPath><clipPath id="73"><path d="M191.3 359.25L297.4 359.25L297.4 359.25L297.4 340.29L297.4 340.29L191.3 340.29z" /></clipPath><clipPath id="74"><path d="M191.3 359.25L297.4 359.25L297.4 359.25L297.4 340.29L297.4 340.29L191.3 340.29z" /></clipPath><clipPath id="75"><path d="M191.3 359.25L297.4 359.25L297.4 359.25L297.4 340.29L297.4 340.29L191.3 340.29z" /></clipPath><clipPath id="76"><path d="M298.01 359.25L404.12 359.25L404.12 359.25L404.12 340.29L404.12 340.29L298.01 340.29z" /></clipPath><clipPath id="77"><path d="M298.01 359.25L404.11 359.25L404.11 359.25L404.11 340.29L404.11 340.29L298.01 340.29z" /></clipPath><clipPath id="78"><path d="M404.6 359.25L510.7 359.25L510.7 359.25L510.7 340.29L510.7 340.29L404.6 340.29z" /></clipPath><clipPath id="79"><path d="M404.59 359.25L510.69 359.25L510.69 359.25L510.69 340.29L510.69 340.29L404.59 340.29z" /></clipPath><clipPath id="80"><path d="M84.751 707.29L190.831 707.29L190.831 707.29L190.831 688.33L190.831 688.33L84.751 688.33z" /></clipPath><clipPath id="81"><path d="M84.744 707.3L190.824 707.3L190.824 707.3L190.824 688.34L190.824 688.34L84.744 688.34z" /></clipPath><clipPath id="82"><path d="M84.744 707.3L190.824 707.3L190.824 707.3L190.824 688.34L190.824 688.34L84.744 688.34z" /></clipPath><clipPath id="83"><path d="M191.31 707.29L297.41 707.29L297.41 707.29L297.41 688.33L297.41 688.33L191.31 688.33z" /></clipPath><clipPath id="84"><path d="M191.3 707.3L297.4 707.3L297.4 707.3L297.4 688.34L297.4 688.34L191.3 688.34z" /></clipPath><clipPath id="85"><path d="M191.3 707.3L297.4 707.3L297.4 707.3L297.4 688.34L297.4 688.34L191.3 688.34z" /></clipPath><clipPath id="86"><path d="M298.01 707.29L404.12 707.29L404.12 707.29L404.12 688.33L404.12 688.33L298.01 688.33z" /></clipPath><clipPath id="87"><path d="M298.01 707.3L404.11 707.3L404.11 707.3L404.11 688.34L404.11 688.34L298.01 688.34z" /></clipPath><clipPath id="88"><path d="M298.01 707.3L404.11 707.3L404.11 707.3L404.11 688.34L404.11 688.34L298.01 688.34z" /></clipPath><clipPath id="89"><path d="M404.6 707.29L510.7 707.29L510.7 707.29L510.7 688.33L510.7 688.33L404.6 688.33z" /></clipPath><clipPath id="90"><path d="M404.59 707.3L510.69 707.3L510.69 707.3L510.69 688.34L510.69 688.34L404.59 688.34z" /></clipPath><clipPath id="91"><path d="M404.59 707.3L510.69 707.3L510.69 707.3L510.69 688.34L510.69 688.34L404.59 688.34z" /></clipPath><clipPath id="92"><path d="M84.751 726.85L190.831 726.85L190.831 726.85L190.831 707.89L190.831 707.89L84.751 707.89z" /></clipPath><clipPath id="93"><path d="M84.744 726.86L190.824 726.86L190.824 726.86L190.824 707.9L190.824 707.9L84.744 707.9z" /></clipPath><clipPath id="94"><path d="M84.744 726.86L190.824 726.86L190.824 726.86L190.824 707.9L190.824 707.9L84.744 707.9z" /></clipPath><clipPath id="95"><path d="M191.31 726.85L297.41 726.85L297.41 726.85L297.41 707.89L297.41 707.89L191.31 707.89z" /></clipPath><clipPath id="96"><path d="M191.3 726.86L297.4 726.86L297.4 726.86L297.4 707.9L297.4 707.9L191.3 707.9z" /></clipPath><clipPath id="97"><path d="M191.3 726.86L297.4 726.86L297.4 726.86L297.4 707.9L297.4 707.9L191.3 707.9z" /></clipPath><clipPath id="98"><path d="M298.01 726.85L404.12 726.85L404.12 726.85L404.12 707.89L404.12 707.89L298.01 707.89z" /></clipPath><clipPath id="99"><path d="M298.01 726.86L404.11 726.86L404.11 726.86L404.11 707.9L404.11 707.9L298.01 707.9z" /></clipPath><clipPath id="100"><path d="M298.01 726.86L404.11 726.86L404.11 726.86L404.11 707.9L404.11 707.9L298.01 707.9z" /></clipPath><clipPath id="101"><path d="M404.6 726.85L510.7 726.85L510.7 726.85L510.7 707.89L510.7 707.89L404.6 707.89z" /></clipPath><clipPath id="102"><path d="M404.59 726.86L510.69 726.86L510.69 726.86L510.69 707.9L510.69 707.9L404.59 707.9z" /></clipPath><clipPath id="103"><path d="M404.59 726.86L510.69 726.86L510.69 726.86L510.69 707.9L510.69 707.9L404.59 707.9z" /></clipPath><clipPath id="104"><path d="M84.751 746.411L190.831 746.411L190.831 746.411L190.831 727.451L190.831 727.451L84.751 727.451z" /></clipPath><clipPath id="105"><path d="M84.744 746.416L190.824 746.416L190.824 746.416L190.824 727.456L190.824 727.456L84.744 727.456z" /></clipPath><clipPath id="106"><path d="M84.744 746.416L190.824 746.416L190.824 746.416L190.824 727.456L190.824 727.456L84.744 727.456z" /></clipPath><clipPath id="107"><path d="M191.31 746.411L297.41 746.411L297.41 746.411L297.41 727.451L297.41 727.451L191.31 727.451z" /></clipPath><clipPath id="108"><path d="M191.3 746.416L297.4 746.416L297.4 746.416L297.4 727.456L297.4 727.456L191.3 727.456z" /></clipPath><clipPath id="109"><path d="M191.3 746.416L297.4 746.416L297.4 746.416L297.4 727.456L297.4 727.456L191.3 727.456z" /></clipPath><clipPath id="110"><path d="M191.3 746.416L297.4 746.416L297.4 746.416L297.4 727.456L297.4 727.456L191.3 727.456z" /></clipPath><clipPath id="111"><path d="M298.01 746.411L404.12 746.411L404.12 746.411L404.12 727.451L404.12 727.451L298.01 727.451z" /></clipPath><clipPath id="112"><path d="M298.01 746.416L404.11 746.416L404.11 746.416L404.11 727.456L404.11 727.456L298.01 727.456z" /></clipPath><clipPath id="113"><path d="M298.01 746.416L404.11 746.416L404.11 746.416L404.11 727.456L404.11 727.456L298.01 727.456z" /></clipPath><clipPath id="114"><path d="M404.6 746.411L510.7 746.411L510.7 746.411L510.7 727.451L510.7 727.451L404.6 727.451z" /></clipPath><clipPath id="115"><path d="M404.59 746.416L510.69 746.416L510.69 746.416L510.69 727.456L510.69 727.456L404.59 727.456z" /></clipPath><clipPath id="116"><path d="M404.59 746.416L510.69 746.416L510.69 746.416L510.69 727.456L510.69 727.456L404.59 727.456z" /></clipPath></defs><g transform="matrix(1.333333 0 0 1.333333 0 0)"><g><g clip-path="url(#1)"><path transform="matrix(1 0 0 -1 0 841)" d="M457.63 53.424L505.534 53.424L505.534 53.424L505.534 54.02404L505.534 54.02404L457.63 54.02404z" stroke="none" fill="#000000" fill-rule="evenodd" /><g clip-path="url(#2)"><path transform="matrix(1 0 0 -1 0 841)" d="M88.464 78.984L506.974 78.984L506.974 78.984L506.974 81.984L506.974 81.984L88.464 81.984z" stroke="none" fill="#000000" fill-rule="evenodd" /><path transform="matrix(1 0 0 -1 0 841)" d="M88.464 77.544L506.974 77.544L506.974 77.544L506.974 78.26397L506.974 78.26397L88.464 78.26397z" stroke="none" fill="#000000" fill-rule="evenodd" /></g><g clip-path="url(#3)"><g clip-path="url(#4)"></g><g clip-path="url(#5)"></g></g><path transform="matrix(1 0 0 -1 0 841)" d="M84.744 579.46L190.824 579.46L190.824 579.46L190.824 598.54L190.824 598.54L84.744 598.54z" stroke="none" fill="#0070C0" fill-rule="evenodd" /><g clip-path="url(#6)"><path transform="matrix(1 0 0 -1 0 841)" d="M89.904 579.46L185.664 579.46L185.664 579.46L185.664 598.54L185.664 598.54L89.904 598.54z" stroke="none" fill="#0070C0" fill-rule="evenodd" /><g clip-path="url(#7)"></g><g clip-path="url(#8)"></g></g><path transform="matrix(1 0 0 -1 0 841)" d="M191.3 579.46L297.4 579.46L297.4 579.46L297.4 598.54L297.4 598.54L191.3 598.54z" stroke="none" fill="#0070C0" fill-rule="evenodd" /><g clip-path="url(#9)"><path transform="matrix(1 0 0 -1 0 841)" d="M196.46 579.46L292.244 579.46L292.244 579.46L292.244 598.54L292.244 598.54L196.46 598.54z" stroke="none" fill="#0070C0" fill-rule="evenodd" /><g clip-path="url(#10)"></g><g clip-path="url(#11)"></g></g><path transform="matrix(1 0 0 -1 0 841)" d="M298.01 579.46L404.11 579.46L404.11 579.46L404.11 598.54L404.11 598.54L298.01 598.54z" stroke="none" fill="#0070C0" fill-rule="evenodd" /><g clip-path="url(#12)"><path transform="matrix(1 0 0 -1 0 841)" d="M303.05 579.46L398.954 579.46L398.954 579.46L398.954 598.54L398.954 598.54L303.05 598.54z" stroke="none" fill="#0070C0" fill-rule="evenodd" /><g clip-path="url(#13)"></g><g clip-path="url(#14)"></g></g><path transform="matrix(1 0 0 -1 0 841)" d="M404.59 579.46L510.69 579.46L510.69 579.46L510.69 598.54L510.69 598.54L404.59 598.54z" stroke="none" fill="#0070C0" fill-rule="evenodd" /><g clip-path="url(#15)"><path transform="matrix(1 0 0 -1 0 841)" d="M409.75 579.46L505.534 579.46L505.534 579.46L505.534 598.54L505.534 598.54L409.75 598.54z" stroke="none" fill="#0070C0" fill-rule="evenodd" /><g clip-path="url(#16)"></g><g clip-path="url(#17)"></g></g><path transform="matrix(1 0 0 -1 0 841)" d="M84.264 598.54L84.744 598.54L84.744 598.54L84.744 599.02L84.744 599.02L84.264 599.02z" stroke="none" fill="#000000" fill-rule="evenodd" /><path transform="matrix(1 0 0 -1 0 841)" d="M84.264 598.54L84.744 598.54L84.744 598.54L84.744 599.02L84.744 599.02L84.264 599.02z" stroke="none" fill="#000000" fill-rule="evenodd" /><path transform="matrix(1 0 0 -1 0 841)" d="M84.744 598.54L190.824 598.54L190.824 598.54L190.824 599.02L190.824 599.02L84.744 599.02z" stroke="none" fill="#000000" fill-rule="evenodd" /><path transform="matrix(1 0 0 -1 0 841)" d="M190.82 598.54L191.3 598.54L191.3 598.54L191.3 599.02L191.3 599.02L190.82 599.02z" stroke="none" fill="#000000" fill-rule="evenodd" /><path transform="matrix(1 0 0 -1 0 841)" d="M191.3 598.54L297.52 598.54L297.52 598.54L297.52 599.02L297.52 599.02L191.3 599.02z" stroke="none" fill="#000000" fill-rule="evenodd" /><path transform="matrix(1 0 0 -1 0 841)" d="M297.53 598.54L298.01 598.54L298.01 598.54L298.01 599.02L298.01 599.02L297.53 599.02z" stroke="none" fill="#000000" fill-rule="evenodd" /><path transform="matrix(1 0 0 -1 0 841)" d="M298.01 598.54L404.11 598.54L404.11 598.54L404.11 599.02L404.11 599.02L298.01 599.02z" stroke="none" fill="#000000" fill-rule="evenodd" /><path transform="matrix(1 0 0 -1 0 841)" d="M404.11 598.54L404.59 598.54L404.59 598.54L404.59 599.02L404.59 599.02L404.11 599.02z" stroke="none" fill="#000000" fill-rule="evenodd" /><path transform="matrix(1 0 0 -1 0 841)" d="M404.59 598.54L510.69 598.54L510.69 598.54L510.69 599.02L510.69 599.02L404.59 599.02z" stroke="none" fill="#000000" fill-rule="evenodd" /><path transform="matrix(1 0 0 -1 0 841)" d="M510.7 598.54L511.18 598.54L511.18 598.54L511.18 599.02L511.18 599.02L510.7 599.02z" stroke="none" fill="#000000" fill-rule="evenodd" /><path transform="matrix(1 0 0 -1 0 841)" d="M510.7 598.54L511.18 598.54L511.18 598.54L511.18 599.02L511.18 599.02L510.7 599.02z" stroke="none" fill="#000000" fill-rule="evenodd" /><path transform="matrix(1 0 0 -1 0 841)" d="M84.264 579.46L84.744 579.46L84.744 579.46L84.744 598.54L84.744 598.54L84.264 598.54z" stroke="none" fill="#000000" fill-rule="evenodd" /><path transform="matrix(1 0 0 -1 0 841)" d="M190.82 579.46L191.3 579.46L191.3 579.46L191.3 598.54L191.3 598.54L190.82 598.54z" stroke="none" fill="#000000" fill-rule="evenodd" /><path transform="matrix(1 0 0 -1 0 841)" d="M297.53 579.46L298.01 579.46L298.01 579.46L298.01 598.54L298.01 598.54L297.53 598.54z" stroke="none" fill="#000000" fill-rule="evenodd" /><path transform="matrix(1 0 0 -1 0 841)" d="M404.11 579.46L404.59 579.46L404.59 579.46L404.59 598.54L404.59 598.54L404.11 598.54z" stroke="none" fill="#000000" fill-rule="evenodd" /><path transform="matrix(1 0 0 -1 0 841)" d="M510.7 579.46L511.18 579.46L511.18 579.46L511.18 598.54L511.18 598.54L510.7 598.54z" stroke="none" fill="#000000" fill-rule="evenodd" /><path transform="matrix(1 0 0 -1 0 841)" d="M84.744 559.9L190.824 559.9L190.824 559.9L190.824 578.98L190.824 578.98L84.744 578.98z" stroke="none" fill="#DAEEF3" fill-rule="evenodd" /><g clip-path="url(#18)"><path transform="matrix(1 0 0 -1 0 841)" d="M89.904 559.9L185.664 559.9L185.664 559.9L185.664 578.98L185.664 578.98L89.904 578.98z" stroke="none" fill="#DAEEF3" fill-rule="evenodd" /><g clip-path="url(#19)"></g><g clip-path="url(#20)"></g></g><path transform="matrix(1 0 0 -1 0 841)" d="M191.3 559.9L297.4 559.9L297.4 559.9L297.4 578.98L297.4 578.98L191.3 578.98z" stroke="none" fill="#DAEEF3" fill-rule="evenodd" /><g clip-path="url(#21)"><path transform="matrix(1 0 0 -1 0 841)" d="M196.46 559.9L292.244 559.9L292.244 559.9L292.244 578.98L292.244 578.98L196.46 578.98z" stroke="none" fill="#DAEEF3" fill-rule="evenodd" /><g clip-path="url(#22)"></g><g clip-path="url(#23)"></g></g><path transform="matrix(1 0 0 -1 0 841)" d="M298.01 559.9L404.11 559.9L404.11 559.9L404.11 578.98L404.11 578.98L298.01 578.98z" stroke="none" fill="#DAEEF3" fill-rule="evenodd" /><g clip-path="url(#24)"><path transform="matrix(1 0 0 -1 0 841)" d="M303.05 559.9L398.954 559.9L398.954 559.9L398.954 578.98L398.954 578.98L303.05 578.98z" stroke="none" fill="#DAEEF3" fill-rule="evenodd" /><g clip-path="url(#25)"></g><g clip-path="url(#26)"></g></g><path transform="matrix(1 0 0 -1 0 841)" d="M404.59 559.9L510.69 559.9L510.69 559.9L510.69 578.98L510.69 578.98L404.59 578.98z" stroke="none" fill="#DAEEF3" fill-rule="evenodd" /><g clip-path="url(#27)"><path transform="matrix(1 0 0 -1 0 841)" d="M409.75 559.9L505.534 559.9L505.534 559.9L505.534 578.98L505.534 578.98L409.75 578.98z" stroke="none" fill="#DAEEF3" fill-rule="evenodd" /><g clip-path="url(#28)"></g><g clip-path="url(#29)"></g></g><path transform="matrix(1 0 0 -1 0 841)" d="M84.264 578.98L84.744 578.98L84.744 578.98L84.744 579.46L84.744 579.46L84.264 579.46z" stroke="none" fill="#000000" fill-rule="evenodd" /><path transform="matrix(1 0 0 -1 0 841)" d="M84.744 578.98L190.824 578.98L190.824 578.98L190.824 579.46L190.824 579.46L84.744 579.46z" stroke="none" fill="#000000" fill-rule="evenodd" /><path transform="matrix(1 0 0 -1 0 841)" d="M190.82 578.98L191.3 578.98L191.3 578.98L191.3 579.46L191.3 579.46L190.82 579.46z" stroke="none" fill="#000000" fill-rule="evenodd" /><path transform="matrix(1 0 0 -1 0 841)" d="M191.3 578.98L297.52 578.98L297.52 578.98L297.52 579.46L297.52 579.46L191.3 579.46z" stroke="none" fill="#000000" fill-rule="evenodd" /><path transform="matrix(1 0 0 -1 0 841)" d="M297.53 578.98L298.01 578.98L298.01 578.98L298.01 579.46L298.01 579.46L297.53 579.46z" stroke="none" fill="#000000" fill-rule="evenodd" /><path transform="matrix(1 0 0 -1 0 841)" d="M298.01 578.98L404.11 578.98L404.11 578.98L404.11 579.46L404.11 579.46L298.01 579.46z" stroke="none" fill="#000000" fill-rule="evenodd" /><path transform="matrix(1 0 0 -1 0 841)" d="M404.11 578.98L404.59 578.98L404.59 578.98L404.59 579.46L404.59 579.46L404.11 579.46z" stroke="none" fill="#000000" fill-rule="evenodd" /><path transform="matrix(1 0 0 -1 0 841)" d="M404.59 578.98L510.69 578.98L510.69 578.98L510.69 579.46L510.69 579.46L404.59 579.46z" stroke="none" fill="#000000" fill-rule="evenodd" /><path transform="matrix(1 0 0 -1 0 841)" d="M510.7 578.98L511.18 578.98L511.18 578.98L511.18 579.46L511.18 579.46L510.7 579.46z" stroke="none" fill="#000000" fill-rule="evenodd" /><path transform="matrix(1 0 0 -1 0 841)" d="M84.264 559.9L84.744 559.9L84.744 559.9L84.744 578.98L84.744 578.98L84.264 578.98z" stroke="none" fill="#000000" fill-rule="evenodd" /><path transform="matrix(1 0 0 -1 0 841)" d="M190.82 559.9L191.3 559.9L191.3 559.9L191.3 578.98L191.3 578.98L190.82 578.98z" stroke="none" fill="#000000" fill-rule="evenodd" /><path transform="matrix(1 0 0 -1 0 841)" d="M297.53 559.9L298.01 559.9L298.01 559.9L298.01 578.98L298.01 578.98L297.53 578.98z" stroke="none" fill="#000000" fill-rule="evenodd" /><path transform="matrix(1 0 0 -1 0 841)" d="M404.11 559.9L404.59 559.9L404.59 559.9L404.59 578.98L404.59 578.98L404.11 578.98z" stroke="none" fill="#000000" fill-rule="evenodd" /><path transform="matrix(1 0 0 -1 0 841)" d="M510.7 559.9L511.18 559.9L511.18 559.9L511.18 578.98L511.18 578.98L510.7 578.98z" stroke="none" fill="#000000" fill-rule="evenodd" /><g clip-path="url(#30)"><g clip-path="url(#31)"></g><g clip-path="url(#32)"></g></g><g clip-path="url(#33)"><g clip-path="url(#34)"></g><g clip-path="url(#35)"></g><g clip-path="url(#36)"></g></g><g clip-path="url(#37)"><g clip-path="url(#38)"></g><g clip-path="url(#39)"></g></g><g clip-path="url(#40)"><g clip-path="url(#41)"></g><g clip-path="url(#42)"></g></g><path transform="matrix(1 0 0 -1 0 841)" d="M84.264 559.42L84.744 559.42L84.744 559.42L84.744 559.9L84.744 559.9L84.264 559.9z" stroke="none" fill="#000000" fill-rule="evenodd" /><path transform="matrix(1 0 0 -1 0 841)" d="M84.744 559.42L190.824 559.42L190.824 559.42L190.824 559.9L190.824 559.9L84.744 559.9z" stroke="none" fill="#000000" fill-rule="evenodd" /><path transform="matrix(1 0 0 -1 0 841)" d="M190.82 559.42L191.3 559.42L191.3 559.42L191.3 559.9L191.3 559.9L190.82 559.9z" stroke="none" fill="#000000" fill-rule="evenodd" /><path transform="matrix(1 0 0 -1 0 841)" d="M191.3 559.42L297.52 559.42L297.52 559.42L297.52 559.9L297.52 559.9L191.3 559.9z" stroke="none" fill="#000000" fill-rule="evenodd" /><path transform="matrix(1 0 0 -1 0 841)" d="M297.53 559.42L298.01 559.42L298.01 559.42L298.01 559.9L298.01 559.9L297.53 559.9z" stroke="none" fill="#000000" fill-rule="evenodd" /><path transform="matrix(1 0 0 -1 0 841)" d="M298.01 559.42L404.11 559.42L404.11 559.42L404.11 559.9L404.11 559.9L298.01 559.9z" stroke="none" fill="#000000" fill-rule="evenodd" /><path transform="matrix(1 0 0 -1 0 841)" d="M404.11 559.42L404.59 559.42L404.59 559.42L404.59 559.9L404.59 559.9L404.11 559.9z" stroke="none" fill="#000000" fill-rule="evenodd" /><path transform="matrix(1 0 0 -1 0 841)" d="M404.59 559.42L510.69 559.42L510.69 559.42L510.69 559.9L510.69 559.9L404.59 559.9z" stroke="none" fill="#000000" fill-rule="evenodd" /><path transform="matrix(1 0 0 -1 0 841)" d="M510.7 559.42L511.18 559.42L511.18 559.42L511.18 559.9L511.18 559.9L510.7 559.9z" stroke="none" fill="#000000" fill-rule="evenodd" /><path transform="matrix(1 0 0 -1 0 841)" d="M84.264 540.31L84.744 540.31L84.744 540.31L84.744 559.414L84.744 559.414L84.264 559.414z" stroke="none" fill="#000000" fill-rule="evenodd" /><path transform="matrix(1 0 0 -1 0 841)" d="M190.82 540.31L191.3 540.31L191.3 540.31L191.3 559.414L191.3 559.414L190.82 559.414z" stroke="none" fill="#000000" fill-rule="evenodd" /><path transform="matrix(1 0 0 -1 0 841)" d="M297.53 540.31L298.01 540.31L298.01 540.31L298.01 559.414L298.01 559.414L297.53 559.414z" stroke="none" fill="#000000" fill-rule="evenodd" /><path transform="matrix(1 0 0 -1 0 841)" d="M404.11 540.31L404.59 540.31L404.59 540.31L404.59 559.414L404.59 559.414L404.11 559.414z" stroke="none" fill="#000000" fill-rule="evenodd" /><path transform="matrix(1 0 0 -1 0 841)" d="M510.7 540.31L511.18 540.31L511.18 540.31L511.18 559.414L511.18 559.414L510.7 559.414z" stroke="none" fill="#000000" fill-rule="evenodd" /><path transform="matrix(1 0 0 -1 0 841)" d="M84.744 520.87L190.824 520.87L190.824 520.87L190.824 539.83L190.824 539.83L84.744 539.83z" stroke="none" fill="#DAEEF3" fill-rule="evenodd" /><g clip-path="url(#43)"><path transform="matrix(1 0 0 -1 0 841)" d="M89.904 520.87L185.664 520.87L185.664 520.87L185.664 539.83L185.664 539.83L89.904 539.83z" stroke="none" fill="#DAEEF3" fill-rule="evenodd" /><g clip-path="url(#44)"></g><g clip-path="url(#45)"></g></g><path transform="matrix(1 0 0 -1 0 841)" d="M191.3 520.87L297.4 520.87L297.4 520.87L297.4 539.83L297.4 539.83L191.3 539.83z" stroke="none" fill="#DAEEF3" fill-rule="evenodd" /><g clip-path="url(#46)"><path transform="matrix(1 0 0 -1 0 841)" d="M196.46 520.87L292.244 520.87L292.244 520.87L292.244 539.83L292.244 539.83L196.46 539.83z" stroke="none" fill="#DAEEF3" fill-rule="evenodd" /><g clip-path="url(#47)"></g><g clip-path="url(#48)"></g></g><path transform="matrix(1 0 0 -1 0 841)" d="M298.01 520.87L404.11 520.87L404.11 520.87L404.11 539.83L404.11 539.83L298.01 539.83z" stroke="none" fill="#DAEEF3" fill-rule="evenodd" /><g clip-path="url(#49)"><path transform="matrix(1 0 0 -1 0 841)" d="M303.05 520.87L398.954 520.87L398.954 520.87L398.954 539.83L398.954 539.83L303.05 539.83z" stroke="none" fill="#DAEEF3" fill-rule="evenodd" /><g clip-path="url(#50)"></g><g clip-path="url(#51)"></g></g><path transform="matrix(1 0 0 -1 0 841)" d="M404.59 520.87L510.69 520.87L510.69 520.87L510.69 539.83L510.69 539.83L404.59 539.83z" stroke="none" fill="#DAEEF3" fill-rule="evenodd" /><g clip-path="url(#52)"><path transform="matrix(1 0 0 -1 0 841)" d="M409.75 520.87L505.534 520.87L505.534 520.87L505.534 539.83L505.534 539.83L409.75 539.83z" stroke="none" fill="#DAEEF3" fill-rule="evenodd" /><g clip-path="url(#53)"></g><g clip-path="url(#54)"></g><g clip-path="url(#55)"></g><g clip-path="url(#56)"></g></g><path transform="matrix(1 0 0 -1 0 841)" d="M84.264 539.83L84.744 539.83L84.744 539.83L84.744 540.31L84.744 540.31L84.264 540.31z" stroke="none" fill="#000000" fill-rule="evenodd" /><path transform="matrix(1 0 0 -1 0 841)" d="M84.744 539.83L190.824 539.83L190.824 539.83L190.824 540.31L190.824 540.31L84.744 540.31z" stroke="none" fill="#000000" fill-rule="evenodd" /><path transform="matrix(1 0 0 -1 0 841)" d="M190.82 539.83L191.3 539.83L191.3 539.83L191.3 540.31L191.3 540.31L190.82 540.31z" stroke="none" fill="#000000" fill-rule="evenodd" /><path transform="matrix(1 0 0 -1 0 841)" d="M191.3 539.83L297.52 539.83L297.52 539.83L297.52 540.31L297.52 540.31L191.3 540.31z" stroke="none" fill="#000000" fill-rule="evenodd" /><path transform="matrix(1 0 0 -1 0 841)" d="M297.53 539.83L298.01 539.83L298.01 539.83L298.01 540.31L298.01 540.31L297.53 540.31z" stroke="none" fill="#000000" fill-rule="evenodd" /><path transform="matrix(1 0 0 -1 0 841)" d="M298.01 539.83L404.11 539.83L404.11 539.83L404.11 540.31L404.11 540.31L298.01 540.31z" stroke="none" fill="#000000" fill-rule="evenodd" /><path transform="matrix(1 0 0 -1 0 841)" d="M404.11 539.83L404.59 539.83L404.59 539.83L404.59 540.31L404.59 540.31L404.11 540.31z" stroke="none" fill="#000000" fill-rule="evenodd" /><path transform="matrix(1 0 0 -1 0 841)" d="M404.59 539.83L510.69 539.83L510.69 539.83L510.69 540.31L510.69 540.31L404.59 540.31z" stroke="none" fill="#000000" fill-rule="evenodd" /><path transform="matrix(1 0 0 -1 0 841)" d="M510.7 539.83L511.18 539.83L511.18 539.83L511.18 540.31L511.18 540.31L510.7 540.31z" stroke="none" fill="#000000" fill-rule="evenodd" /><path transform="matrix(1 0 0 -1 0 841)" d="M84.264 520.87L84.744 520.87L84.744 520.87L84.744 539.83L84.744 539.83L84.264 539.83z" stroke="none" fill="#000000" fill-rule="evenodd" /><path transform="matrix(1 0 0 -1 0 841)" d="M190.82 520.87L191.3 520.87L191.3 520.87L191.3 539.83L191.3 539.83L190.82 539.83z" stroke="none" fill="#000000" fill-rule="evenodd" /><path transform="matrix(1 0 0 -1 0 841)" d="M297.53 520.87L298.01 520.87L298.01 520.87L298.01 539.83L298.01 539.83L297.53 539.83z" stroke="none" fill="#000000" fill-rule="evenodd" /><path transform="matrix(1 0 0 -1 0 841)" d="M404.11 520.87L404.59 520.87L404.59 520.87L404.59 539.83L404.59 539.83L404.11 539.83z" stroke="none" fill="#000000" fill-rule="evenodd" /><path transform="matrix(1 0 0 -1 0 841)" d="M510.7 520.87L511.18 520.87L511.18 520.87L511.18 539.83L511.18 539.83L510.7 539.83z" stroke="none" fill="#000000" fill-rule="evenodd" /><g clip-path="url(#57)"><g clip-path="url(#58)"></g><g clip-path="url(#59)"></g></g><g clip-path="url(#60)"><g clip-path="url(#61)"></g><g clip-path="url(#62)"></g></g><g clip-path="url(#63)"><g clip-path="url(#64)"></g><g clip-path="url(#65)"></g></g><g clip-path="url(#66)"><g clip-path="url(#67)"></g><g clip-path="url(#68)"></g></g><path transform="matrix(1 0 0 -1 0 841)" d="M84.264 520.39L84.744 520.39L84.744 520.39L84.744 520.87L84.744 520.87L84.264 520.87z" stroke="none" fill="#000000" fill-rule="evenodd" /><path transform="matrix(1 0 0 -1 0 841)" d="M84.744 520.39L190.824 520.39L190.824 520.39L190.824 520.87L190.824 520.87L84.744 520.87z" stroke="none" fill="#000000" fill-rule="evenodd" /><path transform="matrix(1 0 0 -1 0 841)" d="M190.82 520.39L191.3 520.39L191.3 520.39L191.3 520.87L191.3 520.87L190.82 520.87z" stroke="none" fill="#000000" fill-rule="evenodd" /><path transform="matrix(1 0 0 -1 0 841)" d="M191.3 520.39L297.52 520.39L297.52 520.39L297.52 520.87L297.52 520.87L191.3 520.87z" stroke="none" fill="#000000" fill-rule="evenodd" /><path transform="matrix(1 0 0 -1 0 841)" d="M297.53 520.39L298.01 520.39L298.01 520.39L298.01 520.87L298.01 520.87L297.53 520.87z" stroke="none" fill="#000000" fill-rule="evenodd" /><path transform="matrix(1 0 0 -1 0 841)" d="M298.01 520.39L404.11 520.39L404.11 520.39L404.11 520.87L404.11 520.87L298.01 520.87z" stroke="none" fill="#000000" fill-rule="evenodd" /><path transform="matrix(1 0 0 -1 0 841)" d="M404.11 520.39L404.59 520.39L404.59 520.39L404.59 520.87L404.59 520.87L404.11 520.87z" stroke="none" fill="#000000" fill-rule="evenodd" /><path transform="matrix(1 0 0 -1 0 841)" d="M404.59 520.39L510.69 520.39L510.69 520.39L510.69 520.87L510.69 520.87L404.59 520.87z" stroke="none" fill="#000000" fill-rule="evenodd" /><path transform="matrix(1 0 0 -1 0 841)" d="M510.7 520.39L511.18 520.39L511.18 520.39L511.18 520.87L511.18 520.87L510.7 520.87z" stroke="none" fill="#000000" fill-rule="evenodd" /><path transform="matrix(1 0 0 -1 0 841)" d="M84.264 501.31L84.744 501.31L84.744 501.31L84.744 520.39L84.744 520.39L84.264 520.39z" stroke="none" fill="#000000" fill-rule="evenodd" /><path transform="matrix(1 0 0 -1 0 841)" d="M190.82 501.31L191.3 501.31L191.3 501.31L191.3 520.39L191.3 520.39L190.82 520.39z" stroke="none" fill="#000000" fill-rule="evenodd" /><path transform="matrix(1 0 0 -1 0 841)" d="M297.53 501.31L298.01 501.31L298.01 501.31L298.01 520.39L298.01 520.39L297.53 520.39z" stroke="none" fill="#000000" fill-rule="evenodd" /><path transform="matrix(1 0 0 -1 0 841)" d="M404.11 501.31L404.59 501.31L404.59 501.31L404.59 520.39L404.59 520.39L404.11 520.39z" stroke="none" fill="#000000" fill-rule="evenodd" /><path transform="matrix(1 0 0 -1 0 841)" d="M510.7 501.31L511.18 501.31L511.18 501.31L511.18 520.39L511.18 520.39L510.7 520.39z" stroke="none" fill="#000000" fill-rule="evenodd" /><path transform="matrix(1 0 0 -1 0 841)" d="M84.744 481.75L190.824 481.75L190.824 481.75L190.824 500.71L190.824 500.71L84.744 500.71z" stroke="none" fill="#DAEEF3" fill-rule="evenodd" /><g clip-path="url(#69)"><path transform="matrix(1 0 0 -1 0 841)" d="M89.904 481.75L185.664 481.75L185.664 481.75L185.664 500.71L185.664 500.71L89.904 500.71z" stroke="none" fill="#DAEEF3" fill-rule="evenodd" /><g clip-path="url(#70)"></g><g clip-path="url(#71)"></g></g><path transform="matrix(1 0 0 -1 0 841)" d="M191.3 481.75L297.4 481.75L297.4 481.75L297.4 500.71L297.4 500.71L191.3 500.71z" stroke="none" fill="#DAEEF3" fill-rule="evenodd" /><g clip-path="url(#72)"><path transform="matrix(1 0 0 -1 0 841)" d="M196.46 481.75L292.244 481.75L292.244 481.75L292.244 500.71L292.244 500.71L196.46 500.71z" stroke="none" fill="#DAEEF3" fill-rule="evenodd" /><g clip-path="url(#73)"></g><g clip-path="url(#74)"></g><g clip-path="url(#75)"></g></g><path transform="matrix(1 0 0 -1 0 841)" d="M298.01 481.75L404.11 481.75L404.11 481.75L404.11 500.71L404.11 500.71L298.01 500.71z" stroke="none" fill="#DAEEF3" fill-rule="evenodd" /><g clip-path="url(#76)"><path transform="matrix(1 0 0 -1 0 841)" d="M303.05 481.75L398.954 481.75L398.954 481.75L398.954 500.71L398.954 500.71L303.05 500.71z" stroke="none" fill="#DAEEF3" fill-rule="evenodd" /><g clip-path="url(#77)"></g></g><path transform="matrix(1 0 0 -1 0 841)" d="M404.59 481.75L510.69 481.75L510.69 481.75L510.69 500.71L510.69 500.71L404.59 500.71z" stroke="none" fill="#DAEEF3" fill-rule="evenodd" /><g clip-path="url(#78)"><path transform="matrix(1 0 0 -1 0 841)" d="M409.75 481.75L505.534 481.75L505.534 481.75L505.534 500.71L505.534 500.71L409.75 500.71z" stroke="none" fill="#DAEEF3" fill-rule="evenodd" /><g clip-path="url(#79)"></g></g><path transform="matrix(1 0 0 -1 0 841)" d="M84.264 500.83L84.744 500.83L84.744 500.83L84.744 501.31L84.744 501.31L84.264 501.31z" stroke="none" fill="#000000" fill-rule="evenodd" /><path transform="matrix(1 0 0 -1 0 841)" d="M84.744 500.83L190.824 500.83L190.824 500.83L190.824 501.31L190.824 501.31L84.744 501.31z" stroke="none" fill="#000000" fill-rule="evenodd" /><path transform="matrix(1 0 0 -1 0 841)" d="M190.82 500.83L191.3 500.83L191.3 500.83L191.3 501.31L191.3 501.31L190.82 501.31z" stroke="none" fill="#000000" fill-rule="evenodd" /><path transform="matrix(1 0 0 -1 0 841)" d="M191.3 500.83L297.52 500.83L297.52 500.83L297.52 501.31L297.52 501.31L191.3 501.31z" stroke="none" fill="#000000" fill-rule="evenodd" /><path transform="matrix(1 0 0 -1 0 841)" d="M297.53 500.83L298.01 500.83L298.01 500.83L298.01 501.31L298.01 501.31L297.53 501.31z" stroke="none" fill="#000000" fill-rule="evenodd" /><path transform="matrix(1 0 0 -1 0 841)" d="M298.01 500.83L404.11 500.83L404.11 500.83L404.11 501.31L404.11 501.31L298.01 501.31z" stroke="none" fill="#000000" fill-rule="evenodd" /><path transform="matrix(1 0 0 -1 0 841)" d="M404.11 500.83L404.59 500.83L404.59 500.83L404.59 501.31L404.59 501.31L404.11 501.31z" stroke="none" fill="#000000" fill-rule="evenodd" /><path transform="matrix(1 0 0 -1 0 841)" d="M404.59 500.83L510.69 500.83L510.69 500.83L510.69 501.31L510.69 501.31L404.59 501.31z" stroke="none" fill="#000000" fill-rule="evenodd" /><path transform="matrix(1 0 0 -1 0 841)" d="M510.7 500.83L511.18 500.83L511.18 500.83L511.18 501.31L511.18 501.31L510.7 501.31z" stroke="none" fill="#000000" fill-rule="evenodd" /><path transform="matrix(1 0 0 -1 0 841)" d="M84.264 481.75L84.744 481.75L84.744 481.75L84.744 500.83L84.744 500.83L84.264 500.83z" stroke="none" fill="#000000" fill-rule="evenodd" /><path transform="matrix(1 0 0 -1 0 841)" d="M84.264 481.27L84.744 481.27L84.744 481.27L84.744 481.75L84.744 481.75L84.264 481.75z" stroke="none" fill="#000000" fill-rule="evenodd" /><path transform="matrix(1 0 0 -1 0 841)" d="M84.264 481.27L84.744 481.27L84.744 481.27L84.744 481.75L84.744 481.75L84.264 481.75z" stroke="none" fill="#000000" fill-rule="evenodd" /><path transform="matrix(1 0 0 -1 0 841)" d="M84.744 481.27L190.824 481.27L190.824 481.27L190.824 481.75L190.824 481.75L84.744 481.75z" stroke="none" fill="#000000" fill-rule="evenodd" /><path transform="matrix(1 0 0 -1 0 841)" d="M190.82 481.75L191.3 481.75L191.3 481.75L191.3 500.83L191.3 500.83L190.82 500.83z" stroke="none" fill="#000000" fill-rule="evenodd" /><path transform="matrix(1 0 0 -1 0 841)" d="M190.82 481.27L191.3 481.27L191.3 481.27L191.3 481.75L191.3 481.75L190.82 481.75z" stroke="none" fill="#000000" fill-rule="evenodd" /><path transform="matrix(1 0 0 -1 0 841)" d="M191.3 481.27L297.52 481.27L297.52 481.27L297.52 481.75L297.52 481.75L191.3 481.75z" stroke="none" fill="#000000" fill-rule="evenodd" /><path transform="matrix(1 0 0 -1 0 841)" d="M297.53 481.75L298.01 481.75L298.01 481.75L298.01 500.83L298.01 500.83L297.53 500.83z" stroke="none" fill="#000000" fill-rule="evenodd" /><path transform="matrix(1 0 0 -1 0 841)" d="M297.53 481.27L298.01 481.27L298.01 481.27L298.01 481.75L298.01 481.75L297.53 481.75z" stroke="none" fill="#000000" fill-rule="evenodd" /><path transform="matrix(1 0 0 -1 0 841)" d="M298.01 481.27L404.11 481.27L404.11 481.27L404.11 481.75L404.11 481.75L298.01 481.75z" stroke="none" fill="#000000" fill-rule="evenodd" /><path transform="matrix(1 0 0 -1 0 841)" d="M404.11 481.75L404.59 481.75L404.59 481.75L404.59 500.83L404.59 500.83L404.11 500.83z" stroke="none" fill="#000000" fill-rule="evenodd" /><path transform="matrix(1 0 0 -1 0 841)" d="M404.11 481.27L404.59 481.27L404.59 481.27L404.59 481.75L404.59 481.75L404.11 481.75z" stroke="none" fill="#000000" fill-rule="evenodd" /><path transform="matrix(1 0 0 -1 0 841)" d="M404.59 481.27L510.69 481.27L510.69 481.27L510.69 481.75L510.69 481.75L404.59 481.75z" stroke="none" fill="#000000" fill-rule="evenodd" /><path transform="matrix(1 0 0 -1 0 841)" d="M510.7 481.75L511.18 481.75L511.18 481.75L511.18 500.83L511.18 500.83L510.7 500.83z" stroke="none" fill="#000000" fill-rule="evenodd" /><path transform="matrix(1 0 0 -1 0 841)" d="M510.7 481.27L511.18 481.27L511.18 481.27L511.18 481.75L511.18 481.75L510.7 481.75z" stroke="none" fill="#000000" fill-rule="evenodd" /><path transform="matrix(1 0 0 -1 0 841)" d="M510.7 481.27L511.18 481.27L511.18 481.27L511.18 481.75L511.18 481.75L510.7 481.75z" stroke="none" fill="#000000" fill-rule="evenodd" /><path transform="matrix(1 0 0 -1 0 841)" d="M84.744 133.7L190.824 133.7L190.824 133.7L190.824 152.66L190.824 152.66L84.744 152.66z" stroke="none" fill="#0070C0" fill-rule="evenodd" /><g clip-path="url(#80)"><path transform="matrix(1 0 0 -1 0 841)" d="M89.904 133.7L185.664 133.7L185.664 133.7L185.664 152.66L185.664 152.66L89.904 152.66z" stroke="none" fill="#0070C0" fill-rule="evenodd" /><g clip-path="url(#81)"></g><g clip-path="url(#82)"></g></g><path transform="matrix(1 0 0 -1 0 841)" d="M191.3 133.7L297.4 133.7L297.4 133.7L297.4 152.66L297.4 152.66L191.3 152.66z" stroke="none" fill="#0070C0" fill-rule="evenodd" /><g clip-path="url(#83)"><path transform="matrix(1 0 0 -1 0 841)" d="M196.46 133.7L292.244 133.7L292.244 133.7L292.244 152.66L292.244 152.66L196.46 152.66z" stroke="none" fill="#0070C0" fill-rule="evenodd" /><g clip-path="url(#84)"></g><g clip-path="url(#85)"></g></g><path transform="matrix(1 0 0 -1 0 841)" d="M298.01 133.7L404.11 133.7L404.11 133.7L404.11 152.66L404.11 152.66L298.01 152.66z" stroke="none" fill="#0070C0" fill-rule="evenodd" /><g clip-path="url(#86)"><path transform="matrix(1 0 0 -1 0 841)" d="M303.05 133.7L398.954 133.7L398.954 133.7L398.954 152.66L398.954 152.66L303.05 152.66z" stroke="none" fill="#0070C0" fill-rule="evenodd" /><g clip-path="url(#87)"></g><g clip-path="url(#88)"></g></g><path transform="matrix(1 0 0 -1 0 841)" d="M404.59 133.7L510.69 133.7L510.69 133.7L510.69 152.66L510.69 152.66L404.59 152.66z" stroke="none" fill="#0070C0" fill-rule="evenodd" /><g clip-path="url(#89)"><path transform="matrix(1 0 0 -1 0 841)" d="M409.75 133.7L505.534 133.7L505.534 133.7L505.534 152.66L505.534 152.66L409.75 152.66z" stroke="none" fill="#0070C0" fill-rule="evenodd" /><g clip-path="url(#90)"></g><g clip-path="url(#91)"></g></g><path transform="matrix(1 0 0 -1 0 841)" d="M84.264 152.66L84.744 152.66L84.744 152.66L84.744 153.14L84.744 153.14L84.264 153.14z" stroke="none" fill="#000000" fill-rule="evenodd" /><path transform="matrix(1 0 0 -1 0 841)" d="M84.264 152.66L84.744 152.66L84.744 152.66L84.744 153.14L84.744 153.14L84.264 153.14z" stroke="none" fill="#000000" fill-rule="evenodd" /><path transform="matrix(1 0 0 -1 0 841)" d="M84.744 152.66L190.824 152.66L190.824 152.66L190.824 153.14L190.824 153.14L84.744 153.14z" stroke="none" fill="#000000" fill-rule="evenodd" /><path transform="matrix(1 0 0 -1 0 841)" d="M190.82 152.66L191.3 152.66L191.3 152.66L191.3 153.14L191.3 153.14L190.82 153.14z" stroke="none" fill="#000000" fill-rule="evenodd" /><path transform="matrix(1 0 0 -1 0 841)" d="M191.3 152.66L297.52 152.66L297.52 152.66L297.52 153.14L297.52 153.14L191.3 153.14z" stroke="none" fill="#000000" fill-rule="evenodd" /><path transform="matrix(1 0 0 -1 0 841)" d="M297.53 152.66L298.01 152.66L298.01 152.66L298.01 153.14L298.01 153.14L297.53 153.14z" stroke="none" fill="#000000" fill-rule="evenodd" /><path transform="matrix(1 0 0 -1 0 841)" d="M298.01 152.66L404.11 152.66L404.11 152.66L404.11 153.14L404.11 153.14L298.01 153.14z" stroke="none" fill="#000000" fill-rule="evenodd" /><path transform="matrix(1 0 0 -1 0 841)" d="M404.11 152.66L404.59 152.66L404.59 152.66L404.59 153.14L404.59 153.14L404.11 153.14z" stroke="none" fill="#000000" fill-rule="evenodd" /><path transform="matrix(1 0 0 -1 0 841)" d="M404.59 152.66L510.69 152.66L510.69 152.66L510.69 153.14L510.69 153.14L404.59 153.14z" stroke="none" fill="#000000" fill-rule="evenodd" /><path transform="matrix(1 0 0 -1 0 841)" d="M510.7 152.66L511.18 152.66L511.18 152.66L511.18 153.14L511.18 153.14L510.7 153.14z" stroke="none" fill="#000000" fill-rule="evenodd" /><path transform="matrix(1 0 0 -1 0 841)" d="M510.7 152.66L511.18 152.66L511.18 152.66L511.18 153.14L511.18 153.14L510.7 153.14z" stroke="none" fill="#000000" fill-rule="evenodd" /><path transform="matrix(1 0 0 -1 0 841)" d="M84.264 133.7L84.744 133.7L84.744 133.7L84.744 152.66L84.744 152.66L84.264 152.66z" stroke="none" fill="#000000" fill-rule="evenodd" /><path transform="matrix(1 0 0 -1 0 841)" d="M190.82 133.7L191.3 133.7L191.3 133.7L191.3 152.66L191.3 152.66L190.82 152.66z" stroke="none" fill="#000000" fill-rule="evenodd" /><path transform="matrix(1 0 0 -1 0 841)" d="M297.53 133.7L298.01 133.7L298.01 133.7L298.01 152.66L298.01 152.66L297.53 152.66z" stroke="none" fill="#000000" fill-rule="evenodd" /><path transform="matrix(1 0 0 -1 0 841)" d="M404.11 133.7L404.59 133.7L404.59 133.7L404.59 152.66L404.59 152.66L404.11 152.66z" stroke="none" fill="#000000" fill-rule="evenodd" /><path transform="matrix(1 0 0 -1 0 841)" d="M510.7 133.7L511.18 133.7L511.18 133.7L511.18 152.66L511.18 152.66L510.7 152.66z" stroke="none" fill="#000000" fill-rule="evenodd" /><path transform="matrix(1 0 0 -1 0 841)" d="M84.744 114.14L190.824 114.14L190.824 114.14L190.824 133.1L190.824 133.1L84.744 133.1z" stroke="none" fill="#DAEEF3" fill-rule="evenodd" /><g clip-path="url(#92)"><path transform="matrix(1 0 0 -1 0 841)" d="M89.904 114.14L185.664 114.14L185.664 114.14L185.664 133.1L185.664 133.1L89.904 133.1z" stroke="none" fill="#DAEEF3" fill-rule="evenodd" /><g clip-path="url(#93)"></g><g clip-path="url(#94)"></g></g><path transform="matrix(1 0 0 -1 0 841)" d="M191.3 114.14L297.4 114.14L297.4 114.14L297.4 133.1L297.4 133.1L191.3 133.1z" stroke="none" fill="#DAEEF3" fill-rule="evenodd" /><g clip-path="url(#95)"><path transform="matrix(1 0 0 -1 0 841)" d="M196.46 114.14L292.244 114.14L292.244 114.14L292.244 133.1L292.244 133.1L196.46 133.1z" stroke="none" fill="#DAEEF3" fill-rule="evenodd" /><g clip-path="url(#96)"></g><g clip-path="url(#97)"></g></g><path transform="matrix(1 0 0 -1 0 841)" d="M298.01 114.14L404.11 114.14L404.11 114.14L404.11 133.1L404.11 133.1L298.01 133.1z" stroke="none" fill="#DAEEF3" fill-rule="evenodd" /><g clip-path="url(#98)"><path transform="matrix(1 0 0 -1 0 841)" d="M303.05 114.14L398.954 114.14L398.954 114.14L398.954 133.1L398.954 133.1L303.05 133.1z" stroke="none" fill="#DAEEF3" fill-rule="evenodd" /><g clip-path="url(#99)"></g><g clip-path="url(#100)"></g></g><path transform="matrix(1 0 0 -1 0 841)" d="M404.59 114.14L510.69 114.14L510.69 114.14L510.69 133.1L510.69 133.1L404.59 133.1z" stroke="none" fill="#DAEEF3" fill-rule="evenodd" /><g clip-path="url(#101)"><path transform="matrix(1 0 0 -1 0 841)" d="M409.75 114.14L505.534 114.14L505.534 114.14L505.534 133.1L505.534 133.1L409.75 133.1z" stroke="none" fill="#DAEEF3" fill-rule="evenodd" /><g clip-path="url(#102)"></g><g clip-path="url(#103)"></g></g><path transform="matrix(1 0 0 -1 0 841)" d="M84.264 133.22L84.744 133.22L84.744 133.22L84.744 133.7L84.744 133.7L84.264 133.7z" stroke="none" fill="#000000" fill-rule="evenodd" /><path transform="matrix(1 0 0 -1 0 841)" d="M84.744 133.22L190.824 133.22L190.824 133.22L190.824 133.7L190.824 133.7L84.744 133.7z" stroke="none" fill="#000000" fill-rule="evenodd" /><path transform="matrix(1 0 0 -1 0 841)" d="M190.82 133.22L191.3 133.22L191.3 133.22L191.3 133.7L191.3 133.7L190.82 133.7z" stroke="none" fill="#000000" fill-rule="evenodd" /><path transform="matrix(1 0 0 -1 0 841)" d="M191.3 133.22L297.52 133.22L297.52 133.22L297.52 133.7L297.52 133.7L191.3 133.7z" stroke="none" fill="#000000" fill-rule="evenodd" /><path transform="matrix(1 0 0 -1 0 841)" d="M297.53 133.22L298.01 133.22L298.01 133.22L298.01 133.7L298.01 133.7L297.53 133.7z" stroke="none" fill="#000000" fill-rule="evenodd" /><path transform="matrix(1 0 0 -1 0 841)" d="M298.01 133.22L404.11 133.22L404.11 133.22L404.11 133.7L404.11 133.7L298.01 133.7z" stroke="none" fill="#000000" fill-rule="evenodd" /><path transform="matrix(1 0 0 -1 0 841)" d="M404.11 133.22L404.59 133.22L404.59 133.22L404.59 133.7L404.59 133.7L404.11 133.7z" stroke="none" fill="#000000" fill-rule="evenodd" /><path transform="matrix(1 0 0 -1 0 841)" d="M404.59 133.22L510.69 133.22L510.69 133.22L510.69 133.7L510.69 133.7L404.59 133.7z" stroke="none" fill="#000000" fill-rule="evenodd" /><path transform="matrix(1 0 0 -1 0 841)" d="M510.7 133.22L511.18 133.22L511.18 133.22L511.18 133.7L511.18 133.7L510.7 133.7z" stroke="none" fill="#000000" fill-rule="evenodd" /><path transform="matrix(1 0 0 -1 0 841)" d="M84.264 114.14L84.744 114.14L84.744 114.14L84.744 133.22L84.744 133.22L84.264 133.22z" stroke="none" fill="#000000" fill-rule="evenodd" /><path transform="matrix(1 0 0 -1 0 841)" d="M190.82 114.14L191.3 114.14L191.3 114.14L191.3 133.22L191.3 133.22L190.82 133.22z" stroke="none" fill="#000000" fill-rule="evenodd" /><path transform="matrix(1 0 0 -1 0 841)" d="M297.53 114.14L298.01 114.14L298.01 114.14L298.01 133.22L298.01 133.22L297.53 133.22z" stroke="none" fill="#000000" fill-rule="evenodd" /><path transform="matrix(1 0 0 -1 0 841)" d="M404.11 114.14L404.59 114.14L404.59 114.14L404.59 133.22L404.59 133.22L404.11 133.22z" stroke="none" fill="#000000" fill-rule="evenodd" /><path transform="matrix(1 0 0 -1 0 841)" d="M510.7 114.14L511.18 114.14L511.18 114.14L511.18 133.22L511.18 133.22L510.7 133.22z" stroke="none" fill="#000000" fill-rule="evenodd" /><g clip-path="url(#104)"><g clip-path="url(#105)"></g><g clip-path="url(#106)"></g></g><g clip-path="url(#107)"><g clip-path="url(#108)"></g><g clip-path="url(#109)"></g><g clip-path="url(#110)"></g></g><g clip-path="url(#111)"><g clip-path="url(#112)"></g><g clip-path="url(#113)"></g></g><g clip-path="url(#114)"><g clip-path="url(#115)"></g><g clip-path="url(#116)"></g></g><path transform="matrix(1 0 0 -1 0 841)" d="M84.264 113.66L84.744 113.66L84.744 113.66L84.744 114.14L84.744 114.14L84.264 114.14z" stroke="none" fill="#000000" fill-rule="evenodd" /><path transform="matrix(1 0 0 -1 0 841)" d="M84.744 113.66L190.824 113.66L190.824 113.66L190.824 114.14L190.824 114.14L84.744 114.14z" stroke="none" fill="#000000" fill-rule="evenodd" /><path transform="matrix(1 0 0 -1 0 841)" d="M190.82 113.66L191.3 113.66L191.3 113.66L191.3 114.14L191.3 114.14L190.82 114.14z" stroke="none" fill="#000000" fill-rule="evenodd" /><path transform="matrix(1 0 0 -1 0 841)" d="M191.3 113.66L297.52 113.66L297.52 113.66L297.52 114.14L297.52 114.14L191.3 114.14z" stroke="none" fill="#000000" fill-rule="evenodd" /><path transform="matrix(1 0 0 -1 0 841)" d="M297.53 113.66L298.01 113.66L298.01 113.66L298.01 114.14L298.01 114.14L297.53 114.14z" stroke="none" fill="#000000" fill-rule="evenodd" /><path transform="matrix(1 0 0 -1 0 841)" d="M298.01 113.66L404.11 113.66L404.11 113.66L404.11 114.14L404.11 114.14L298.01 114.14z" stroke="none" fill="#000000" fill-rule="evenodd" /><path transform="matrix(1 0 0 -1 0 841)" d="M404.11 113.66L404.59 113.66L404.59 113.66L404.59 114.14L404.59 114.14L404.11 114.14z" stroke="none" fill="#000000" fill-rule="evenodd" /><path transform="matrix(1 0 0 -1 0 841)" d="M404.59 113.66L510.69 113.66L510.69 113.66L510.69 114.14L510.69 114.14L404.59 114.14z" stroke="none" fill="#000000" fill-rule="evenodd" /><path transform="matrix(1 0 0 -1 0 841)" d="M510.7 113.66L511.18 113.66L511.18 113.66L511.18 114.14L511.18 114.14L510.7 114.14z" stroke="none" fill="#000000" fill-rule="evenodd" /><path transform="matrix(1 0 0 -1 0 841)" d="M84.264 94.584L84.744 94.584L84.744 94.584L84.744 113.664L84.744 113.664L84.264 113.664z" stroke="none" fill="#000000" fill-rule="evenodd" /><path transform="matrix(1 0 0 -1 0 841)" d="M84.264 94.104L84.744 94.104L84.744 94.104L84.744 94.58398L84.744 94.58398L84.264 94.58398z" stroke="none" fill="#000000" fill-rule="evenodd" /><path transform="matrix(1 0 0 -1 0 841)" d="M84.264 94.104L84.744 94.104L84.744 94.104L84.744 94.58398L84.744 94.58398L84.264 94.58398z" stroke="none" fill="#000000" fill-rule="evenodd" /><path transform="matrix(1 0 0 -1 0 841)" d="M84.744 94.104L190.824 94.104L190.824 94.104L190.824 94.58398L190.824 94.58398L84.744 94.58398z" stroke="none" fill="#000000" fill-rule="evenodd" /><path transform="matrix(1 0 0 -1 0 841)" d="M190.82 94.584L191.3 94.584L191.3 94.584L191.3 113.664L191.3 113.664L190.82 113.664z" stroke="none" fill="#000000" fill-rule="evenodd" /><path transform="matrix(1 0 0 -1 0 841)" d="M190.82 94.104L191.3 94.104L191.3 94.104L191.3 94.58398L191.3 94.58398L190.82 94.58398z" stroke="none" fill="#000000" fill-rule="evenodd" /><path transform="matrix(1 0 0 -1 0 841)" d="M191.3 94.104L297.52 94.104L297.52 94.104L297.52 94.58398L297.52 94.58398L191.3 94.58398z" stroke="none" fill="#000000" fill-rule="evenodd" /><path transform="matrix(1 0 0 -1 0 841)" d="M297.53 94.584L298.01 94.584L298.01 94.584L298.01 113.664L298.01 113.664L297.53 113.664z" stroke="none" fill="#000000" fill-rule="evenodd" /><path transform="matrix(1 0 0 -1 0 841)" d="M297.53 94.104L298.01 94.104L298.01 94.104L298.01 94.58398L298.01 94.58398L297.53 94.58398z" stroke="none" fill="#000000" fill-rule="evenodd" /><path transform="matrix(1 0 0 -1 0 841)" d="M298.01 94.104L404.11 94.104L404.11 94.104L404.11 94.58398L404.11 94.58398L298.01 94.58398z" stroke="none" fill="#000000" fill-rule="evenodd" /><path transform="matrix(1 0 0 -1 0 841)" d="M404.11 94.584L404.59 94.584L404.59 94.584L404.59 113.664L404.59 113.664L404.11 113.664z" stroke="none" fill="#000000" fill-rule="evenodd" /><path transform="matrix(1 0 0 -1 0 841)" d="M404.11 94.104L404.59 94.104L404.59 94.104L404.59 94.58398L404.59 94.58398L404.11 94.58398z" stroke="none" fill="#000000" fill-rule="evenodd" /><path transform="matrix(1 0 0 -1 0 841)" d="M404.59 94.104L510.69 94.104L510.69 94.104L510.69 94.58398L510.69 94.58398L404.59 94.58398z" stroke="none" fill="#000000" fill-rule="evenodd" /><path transform="matrix(1 0 0 -1 0 841)" d="M510.7 94.584L511.18 94.584L511.18 94.584L511.18 113.664L511.18 113.664L510.7 113.664z" stroke="none" fill="#000000" fill-rule="evenodd" /><path transform="matrix(1 0 0 -1 0 841)" d="M510.7 94.104L511.18 94.104L511.18 94.104L511.18 94.58398L511.18 94.58398L510.7 94.58398z" stroke="none" fill="#000000" fill-rule="evenodd" /><path transform="matrix(1 0 0 -1 0 841)" d="M510.7 94.104L511.18 94.104L511.18 94.104L511.18 94.58398L511.18 94.58398L510.7 94.58398z" stroke="none" fill="#000000" fill-rule="evenodd" /></g></g></g></svg>