<svg xmlns="http://www.w3.org/2000/svg" xmlns:xlink="http://www.w3.org/1999/xlink" id="body_27" preserveAspectRatio="xMinYMin meet" viewBox="0 0 793 1121"><defs><clipPath id="1"><path d="M0 841L0 -0.9199829L0 -0.9199829L595.32 -0.9199829L595.32 -0.9199829L595.32 841L595.32 841L0 841z" /></clipPath><clipPath id="2"><path d="M0.00125 841.0914L595.4112 841.0914L595.4112 841.0914L595.4112 -0.9186401L595.4112 -0.9186401L0.00125 -0.9186401z" /></clipPath><clipPath id="3"><path d="M295.13 780.251L305.21 780.251L305.21 780.251L305.21 768.011L305.21 768.011L295.13 768.011z" /></clipPath><clipPath id="4"><path d="M295.13 780.256L305.21 780.256L305.21 780.256L305.21 768.016L305.21 768.016L295.13 768.016z" /></clipPath><clipPath id="5"><path d="M295.13 780.256L305.21 780.256L305.21 780.256L305.21 768.016L305.21 768.016L295.13 768.016z" /></clipPath><clipPath id="6"><path d="M84.751 251.71L291.891 251.71L291.891 251.71L291.891 232.63L291.891 232.63L84.751 232.63z" /></clipPath><clipPath id="7"><path d="M84.744 251.7L291.884 251.7L291.884 251.7L291.884 232.62L291.884 232.62L84.744 232.62z" /></clipPath><clipPath id="8"><path d="M84.744 251.7L291.884 251.7L291.884 251.7L291.884 232.62L291.884 232.62L84.744 232.62z" /></clipPath><clipPath id="9"><path d="M292.37 251.71L499.42 251.71L499.42 251.71L499.42 232.63L499.42 232.63L292.37 232.63z" /></clipPath><clipPath id="10"><path d="M292.37 251.7L499.42 251.7L499.42 251.7L499.42 232.62L499.42 232.62L292.37 232.62z" /></clipPath><clipPath id="11"><path d="M292.37 251.7L499.42 251.7L499.42 251.7L499.42 232.62L499.42 232.62L292.37 232.62z" /></clipPath><clipPath id="12"><path d="M84.751 271.15L291.891 271.15L291.891 271.15L291.891 252.19L291.891 252.19L84.751 252.19z" /></clipPath><clipPath id="13"><path d="M84.744 271.14L291.884 271.14L291.884 271.14L291.884 252.18L291.884 252.18L84.744 252.18z" /></clipPath><clipPath id="14"><path d="M84.744 271.14L291.884 271.14L291.884 271.14L291.884 252.18L291.884 252.18L84.744 252.18z" /></clipPath><clipPath id="15"><path d="M292.37 271.15L499.42 271.15L499.42 271.15L499.42 252.19L499.42 252.19L292.37 252.19z" /></clipPath><clipPath id="16"><path d="M292.37 271.14L499.42 271.14L499.42 271.14L499.42 252.18L499.42 252.18L292.37 252.18z" /></clipPath><clipPath id="17"><path d="M292.37 271.14L499.42 271.14L499.42 271.14L499.42 252.18L499.42 252.18L292.37 252.18z" /></clipPath><clipPath id="18"><path d="M292.37 271.14L499.42 271.14L499.42 271.14L499.42 252.18L499.42 252.18L292.37 252.18z" /></clipPath><clipPath id="19"><path d="M84.751 290.73L291.891 290.73L291.891 290.73L291.891 271.755L291.891 271.755L84.751 271.755z" /></clipPath><clipPath id="20"><path d="M84.744 290.73L291.884 290.73L291.884 290.73L291.884 271.746L291.884 271.746L84.744 271.746z" /></clipPath><clipPath id="21"><path d="M84.744 290.73L291.884 290.73L291.884 290.73L291.884 271.746L291.884 271.746L84.744 271.746z" /></clipPath><clipPath id="22"><path d="M292.37 290.73L499.42 290.73L499.42 290.73L499.42 271.755L499.42 271.755L292.37 271.755z" /></clipPath><clipPath id="23"><path d="M292.37 290.73L499.42 290.73L499.42 290.73L499.42 271.746L499.42 271.746L292.37 271.746z" /></clipPath><clipPath id="24"><path d="M292.37 290.73L499.42 290.73L499.42 290.73L499.42 271.746L499.42 271.746L292.37 271.746z" /></clipPath></defs><g transform="matrix(1.333333 0 0 1.333333 0 0)"><g><g clip-path="url(#1)"><path transform="matrix(1 0 0 -1 0 841)" d="M457.63 53.424L505.534 53.424L505.534 53.424L505.534 54.02404L505.534 54.02404L457.63 54.02404z" stroke="none" fill="#000000" fill-rule="evenodd" /><g clip-path="url(#2)"><path transform="matrix(1 0 0 -1 0 841)" d="M88.464 78.984L506.974 78.984L506.974 78.984L506.974 81.984L506.974 81.984L88.464 81.984z" stroke="none" fill="#000000" fill-rule="evenodd" /><path transform="matrix(1 0 0 -1 0 841)" d="M88.464 77.544L506.974 77.544L506.974 77.544L506.974 78.26397L506.974 78.26397L88.464 78.26397z" stroke="none" fill="#000000" fill-rule="evenodd" /></g><g clip-path="url(#3)"><g clip-path="url(#4)"></g><g clip-path="url(#5)"></g></g><path transform="matrix(1 0 0 -1 0 841)" d="M84.744 589.3L291.884 589.3L291.884 589.3L291.884 608.38L291.884 608.38L84.744 608.38z" stroke="none" fill="#0070C0" fill-rule="evenodd" /><g clip-path="url(#6)"><path transform="matrix(1 0 0 -1 0 841)" d="M89.904 589.3L286.724 589.3L286.724 589.3L286.724 608.38L286.724 608.38L89.904 608.38z" stroke="none" fill="#0070C0" fill-rule="evenodd" /><g clip-path="url(#7)"></g><g clip-path="url(#8)"></g></g><path transform="matrix(1 0 0 -1 0 841)" d="M292.37 589.3L499.42 589.3L499.42 589.3L499.42 608.38L499.42 608.38L292.37 608.38z" stroke="none" fill="#0070C0" fill-rule="evenodd" /><g clip-path="url(#9)"><path transform="matrix(1 0 0 -1 0 841)" d="M297.53 589.3L494.26 589.3L494.26 589.3L494.26 608.38L494.26 608.38L297.53 608.38z" stroke="none" fill="#0070C0" fill-rule="evenodd" /><g clip-path="url(#10)"></g><g clip-path="url(#11)"></g></g><path transform="matrix(1 0 0 -1 0 841)" d="M84.264 608.38L84.744 608.38L84.744 608.38L84.744 608.86L84.744 608.86L84.264 608.86z" stroke="none" fill="#000000" fill-rule="evenodd" /><path transform="matrix(1 0 0 -1 0 841)" d="M84.264 608.38L84.744 608.38L84.744 608.38L84.744 608.86L84.744 608.86L84.264 608.86z" stroke="none" fill="#000000" fill-rule="evenodd" /><path transform="matrix(1 0 0 -1 0 841)" d="M84.744 608.38L291.884 608.38L291.884 608.38L291.884 608.86L291.884 608.86L84.744 608.86z" stroke="none" fill="#000000" fill-rule="evenodd" /><path transform="matrix(1 0 0 -1 0 841)" d="M291.89 608.38L292.37 608.38L292.37 608.38L292.37 608.86L292.37 608.86L291.89 608.86z" stroke="none" fill="#000000" fill-rule="evenodd" /><path transform="matrix(1 0 0 -1 0 841)" d="M292.37 608.38L499.42 608.38L499.42 608.38L499.42 608.86L499.42 608.86L292.37 608.86z" stroke="none" fill="#000000" fill-rule="evenodd" /><path transform="matrix(1 0 0 -1 0 841)" d="M499.42 608.38L499.9 608.38L499.9 608.38L499.9 608.86L499.9 608.86L499.42 608.86z" stroke="none" fill="#000000" fill-rule="evenodd" /><path transform="matrix(1 0 0 -1 0 841)" d="M499.42 608.38L499.9 608.38L499.9 608.38L499.9 608.86L499.9 608.86L499.42 608.86z" stroke="none" fill="#000000" fill-rule="evenodd" /><path transform="matrix(1 0 0 -1 0 841)" d="M84.264 589.3L84.744 589.3L84.744 589.3L84.744 608.38L84.744 608.38L84.264 608.38z" stroke="none" fill="#000000" fill-rule="evenodd" /><path transform="matrix(1 0 0 -1 0 841)" d="M291.89 589.3L292.37 589.3L292.37 589.3L292.37 608.38L292.37 608.38L291.89 608.38z" stroke="none" fill="#000000" fill-rule="evenodd" /><path transform="matrix(1 0 0 -1 0 841)" d="M499.42 589.3L499.9 589.3L499.9 589.3L499.9 608.38L499.9 608.38L499.42 608.38z" stroke="none" fill="#000000" fill-rule="evenodd" /><path transform="matrix(1 0 0 -1 0 841)" d="M84.744 569.86L291.884 569.86L291.884 569.86L291.884 588.82L291.884 588.82L84.744 588.82z" stroke="none" fill="#DAEEF3" fill-rule="evenodd" /><g clip-path="url(#12)"><path transform="matrix(1 0 0 -1 0 841)" d="M89.904 569.86L286.724 569.86L286.724 569.86L286.724 588.82L286.724 588.82L89.904 588.82z" stroke="none" fill="#DAEEF3" fill-rule="evenodd" /><g clip-path="url(#13)"></g><g clip-path="url(#14)"></g></g><path transform="matrix(1 0 0 -1 0 841)" d="M292.37 569.86L499.42 569.86L499.42 569.86L499.42 588.82L499.42 588.82L292.37 588.82z" stroke="none" fill="#DAEEF3" fill-rule="evenodd" /><g clip-path="url(#15)"><path transform="matrix(1 0 0 -1 0 841)" d="M297.53 569.86L494.26 569.86L494.26 569.86L494.26 588.82L494.26 588.82L297.53 588.82z" stroke="none" fill="#DAEEF3" fill-rule="evenodd" /><g clip-path="url(#16)"></g><g clip-path="url(#17)"></g><g clip-path="url(#18)"></g></g><path transform="matrix(1 0 0 -1 0 841)" d="M84.264 588.82L84.744 588.82L84.744 588.82L84.744 589.3L84.744 589.3L84.264 589.3z" stroke="none" fill="#000000" fill-rule="evenodd" /><path transform="matrix(1 0 0 -1 0 841)" d="M84.744 588.82L291.884 588.82L291.884 588.82L291.884 589.3L291.884 589.3L84.744 589.3z" stroke="none" fill="#000000" fill-rule="evenodd" /><path transform="matrix(1 0 0 -1 0 841)" d="M291.89 588.82L292.37 588.82L292.37 588.82L292.37 589.3L292.37 589.3L291.89 589.3z" stroke="none" fill="#000000" fill-rule="evenodd" /><path transform="matrix(1 0 0 -1 0 841)" d="M292.37 588.82L499.42 588.82L499.42 588.82L499.42 589.3L499.42 589.3L292.37 589.3z" stroke="none" fill="#000000" fill-rule="evenodd" /><path transform="matrix(1 0 0 -1 0 841)" d="M499.42 588.82L499.9 588.82L499.9 588.82L499.9 589.3L499.9 589.3L499.42 589.3z" stroke="none" fill="#000000" fill-rule="evenodd" /><path transform="matrix(1 0 0 -1 0 841)" d="M84.264 569.86L84.744 569.86L84.744 569.86L84.744 588.82L84.744 588.82L84.264 588.82z" stroke="none" fill="#000000" fill-rule="evenodd" /><path transform="matrix(1 0 0 -1 0 841)" d="M291.89 569.86L292.37 569.86L292.37 569.86L292.37 588.82L292.37 588.82L291.89 588.82z" stroke="none" fill="#000000" fill-rule="evenodd" /><path transform="matrix(1 0 0 -1 0 841)" d="M499.42 569.86L499.9 569.86L499.9 569.86L499.9 588.82L499.9 588.82L499.42 588.82z" stroke="none" fill="#000000" fill-rule="evenodd" /><g clip-path="url(#19)"><g clip-path="url(#20)"></g><g clip-path="url(#21)"></g></g><g clip-path="url(#22)"><g clip-path="url(#23)"></g><g clip-path="url(#24)"></g></g><path transform="matrix(1 0 0 -1 0 841)" d="M84.264 569.38L84.744 569.38L84.744 569.38L84.744 569.86L84.744 569.86L84.264 569.86z" stroke="none" fill="#000000" fill-rule="evenodd" /><path transform="matrix(1 0 0 -1 0 841)" d="M84.744 569.38L291.884 569.38L291.884 569.38L291.884 569.86L291.884 569.86L84.744 569.86z" stroke="none" fill="#000000" fill-rule="evenodd" /><path transform="matrix(1 0 0 -1 0 841)" d="M291.89 569.38L292.37 569.38L292.37 569.38L292.37 569.86L292.37 569.86L291.89 569.86z" stroke="none" fill="#000000" fill-rule="evenodd" /><path transform="matrix(1 0 0 -1 0 841)" d="M292.37 569.38L499.42 569.38L499.42 569.38L499.42 569.86L499.42 569.86L292.37 569.86z" stroke="none" fill="#000000" fill-rule="evenodd" /><path transform="matrix(1 0 0 -1 0 841)" d="M499.42 569.38L499.9 569.38L499.9 569.38L499.9 569.86L499.9 569.86L499.42 569.86z" stroke="none" fill="#000000" fill-rule="evenodd" /><path transform="matrix(1 0 0 -1 0 841)" d="M84.264 550.15L84.744 550.15L84.744 550.15L84.744 569.374L84.744 569.374L84.264 569.374z" stroke="none" fill="#000000" fill-rule="evenodd" /><path transform="matrix(1 0 0 -1 0 841)" d="M84.264 549.67L84.744 549.67L84.744 549.67L84.744 550.15L84.744 550.15L84.264 550.15z" stroke="none" fill="#000000" fill-rule="evenodd" /><path transform="matrix(1 0 0 -1 0 841)" d="M84.264 549.67L84.744 549.67L84.744 549.67L84.744 550.15L84.744 550.15L84.264 550.15z" stroke="none" fill="#000000" fill-rule="evenodd" /><path transform="matrix(1 0 0 -1 0 841)" d="M84.744 549.67L291.884 549.67L291.884 549.67L291.884 550.15L291.884 550.15L84.744 550.15z" stroke="none" fill="#000000" fill-rule="evenodd" /><path transform="matrix(1 0 0 -1 0 841)" d="M291.89 550.15L292.37 550.15L292.37 550.15L292.37 569.374L292.37 569.374L291.89 569.374z" stroke="none" fill="#000000" fill-rule="evenodd" /><path transform="matrix(1 0 0 -1 0 841)" d="M291.89 549.67L292.37 549.67L292.37 549.67L292.37 550.15L292.37 550.15L291.89 550.15z" stroke="none" fill="#000000" fill-rule="evenodd" /><path transform="matrix(1 0 0 -1 0 841)" d="M292.37 549.67L499.42 549.67L499.42 549.67L499.42 550.15L499.42 550.15L292.37 550.15z" stroke="none" fill="#000000" fill-rule="evenodd" /><path transform="matrix(1 0 0 -1 0 841)" d="M499.42 550.15L499.9 550.15L499.9 550.15L499.9 569.374L499.9 569.374L499.42 569.374z" stroke="none" fill="#000000" fill-rule="evenodd" /><path transform="matrix(1 0 0 -1 0 841)" d="M499.42 549.67L499.9 549.67L499.9 549.67L499.9 550.15L499.9 550.15L499.42 550.15z" stroke="none" fill="#000000" fill-rule="evenodd" /><path transform="matrix(1 0 0 -1 0 841)" d="M499.42 549.67L499.9 549.67L499.9 549.67L499.9 550.15L499.9 550.15L499.42 550.15z" stroke="none" fill="#000000" fill-rule="evenodd" /></g></g></g></svg>