<svg xmlns="http://www.w3.org/2000/svg" xmlns:xlink="http://www.w3.org/1999/xlink" id="body_9" preserveAspectRatio="xMinYMin meet" viewBox="0 0 793 1121"><defs><clipPath id="1"><path d="M0 841L0 -0.9199829L0 -0.9199829L595.32 -0.9199829L595.32 -0.9199829L595.32 841L595.32 841L0 841z" /></clipPath><clipPath id="2"><path d="M0.00125 841.0914L595.4112 841.0914L595.4112 841.0914L595.4112 -0.9186401L595.4112 -0.9186401L0.00125 -0.9186401z" /></clipPath><clipPath id="3"><path d="M295.13 780.251L300.17 780.251L300.17 780.251L300.17 768.011L300.17 768.011L295.13 768.011z" /></clipPath><clipPath id="4"><path d="M295.13 780.256L300.17 780.256L300.17 780.256L300.17 768.016L300.17 768.016L295.13 768.016z" /></clipPath><clipPath id="5"><path d="M295.13 780.256L300.17 780.256L300.17 780.256L300.17 768.016L300.17 768.016L295.13 768.016z" /></clipPath><clipPath id="6"><path d="M84.751 117.07L165.031 117.07L165.031 117.07L165.031 89.44L165.031 89.44L84.751 89.44z" /></clipPath><clipPath id="7"><path d="M84.744 117.06L165.024 117.06L165.024 117.06L165.024 89.43597L165.024 89.43597L84.744 89.43597z" /></clipPath><clipPath id="8"><path d="M84.744 117.06L165.024 117.06L165.024 117.06L165.024 89.43597L165.024 89.43597L84.744 89.43597z" /></clipPath><clipPath id="9"><path d="M165.51 117.07L234.405 117.07L234.405 117.07L234.405 89.44L234.405 89.44L165.51 89.44z" /></clipPath><clipPath id="10"><path d="M165.5 117.06L234.404 117.06L234.404 117.06L234.404 89.43597L234.404 89.43597L165.5 89.43597z" /></clipPath><clipPath id="11"><path d="M165.5 117.06L234.404 117.06L234.404 117.06L234.404 89.43597L234.404 89.43597L165.5 89.43597z" /></clipPath><clipPath id="12"><path d="M234.89 117.07L435.44 117.07L435.44 117.07L435.44 89.44L435.44 89.44L234.89 89.44z" /></clipPath><clipPath id="13"><path d="M234.89 117.06L435.43 117.06L435.43 117.06L435.43 89.43597L435.43 89.43597L234.89 89.43597z" /></clipPath><clipPath id="14"><path d="M234.89 117.06L435.43 117.06L435.43 117.06L435.43 89.43597L435.43 89.43597L234.89 89.43597z" /></clipPath><clipPath id="15"><path d="M436.04 117.07L510.695 117.07L510.695 117.07L510.695 89.44L510.695 89.44L436.04 89.44z" /></clipPath><clipPath id="16"><path d="M436.03 117.06L510.694 117.06L510.694 117.06L510.694 89.43597L510.694 89.43597L436.03 89.43597z" /></clipPath><clipPath id="17"><path d="M436.03 117.06L510.694 117.06L510.694 117.06L510.694 89.43597L510.694 89.43597L436.03 89.43597z" /></clipPath><clipPath id="18"><path d="M436.03 117.06L510.694 117.06L510.694 117.06L510.694 89.43597L510.694 89.43597L436.03 89.43597z" /></clipPath><clipPath id="19"><path d="M84.751 306.57L165.031 306.57L165.031 306.57L165.031 117.67L165.031 117.67L84.751 117.67z" /></clipPath><clipPath id="20"><path d="M84.744 306.57L165.024 306.57L165.024 306.57L165.024 117.67L165.024 117.67L84.744 117.67z" /></clipPath><clipPath id="21"><path d="M84.744 306.57L165.024 306.57L165.024 306.57L165.024 117.67L165.024 117.67L84.744 117.67z" /></clipPath><clipPath id="22"><path d="M84.744 306.57L165.024 306.57L165.024 306.57L165.024 117.67L165.024 117.67L84.744 117.67z" /></clipPath><clipPath id="23"><path d="M84.744 306.57L165.024 306.57L165.024 306.57L165.024 117.67L165.024 117.67L84.744 117.67z" /></clipPath><clipPath id="24"><path d="M84.744 306.57L165.024 306.57L165.024 306.57L165.024 117.67L165.024 117.67L84.744 117.67z" /></clipPath><clipPath id="25"><path d="M84.744 306.57L165.024 306.57L165.024 306.57L165.024 117.67L165.024 117.67L84.744 117.67z" /></clipPath><clipPath id="26"><path d="M165.51 306.57L234.405 306.57L234.405 306.57L234.405 117.67L234.405 117.67L165.51 117.67z" /></clipPath><clipPath id="27"><path d="M165.5 306.57L234.404 306.57L234.404 306.57L234.404 117.67L234.404 117.67L165.5 117.67z" /></clipPath><clipPath id="28"><path d="M165.5 306.57L234.404 306.57L234.404 306.57L234.404 117.67L234.404 117.67L165.5 117.67z" /></clipPath><clipPath id="29"><path d="M234.89 306.57L435.44 306.57L435.44 306.57L435.44 117.67L435.44 117.67L234.89 117.67z" /></clipPath><clipPath id="30"><path d="M234.89 306.57L435.43 306.57L435.43 306.57L435.43 117.67L435.43 117.67L234.89 117.67z" /></clipPath><clipPath id="31"><path d="M234.89 306.57L435.43 306.57L435.43 306.57L435.43 117.67L435.43 117.67L234.89 117.67z" /></clipPath><clipPath id="32"><path d="M234.89 306.57L435.43 306.57L435.43 306.57L435.43 117.67L435.43 117.67L234.89 117.67z" /></clipPath><clipPath id="33"><path d="M234.89 306.57L435.43 306.57L435.43 306.57L435.43 117.67L435.43 117.67L234.89 117.67z" /></clipPath><clipPath id="34"><path d="M234.89 306.57L435.43 306.57L435.43 306.57L435.43 117.67L435.43 117.67L234.89 117.67z" /></clipPath><clipPath id="35"><path d="M234.89 306.57L435.43 306.57L435.43 306.57L435.43 117.67L435.43 117.67L234.89 117.67z" /></clipPath><clipPath id="36"><path d="M234.89 306.57L435.43 306.57L435.43 306.57L435.43 117.67L435.43 117.67L234.89 117.67z" /></clipPath><clipPath id="37"><path d="M234.89 306.57L435.43 306.57L435.43 306.57L435.43 117.67L435.43 117.67L234.89 117.67z" /></clipPath><clipPath id="38"><path d="M234.89 306.57L435.43 306.57L435.43 306.57L435.43 117.67L435.43 117.67L234.89 117.67z" /></clipPath><clipPath id="39"><path d="M234.89 306.57L435.43 306.57L435.43 306.57L435.43 117.67L435.43 117.67L234.89 117.67z" /></clipPath><clipPath id="40"><path d="M234.89 306.57L435.43 306.57L435.43 306.57L435.43 117.67L435.43 117.67L234.89 117.67z" /></clipPath><clipPath id="41"><path d="M234.89 306.57L435.43 306.57L435.43 306.57L435.43 117.67L435.43 117.67L234.89 117.67z" /></clipPath><clipPath id="42"><path d="M234.89 306.57L435.43 306.57L435.43 306.57L435.43 117.67L435.43 117.67L234.89 117.67z" /></clipPath><clipPath id="43"><path d="M234.89 306.57L435.43 306.57L435.43 306.57L435.43 117.67L435.43 117.67L234.89 117.67z" /></clipPath><clipPath id="44"><path d="M234.89 306.57L435.43 306.57L435.43 306.57L435.43 117.67L435.43 117.67L234.89 117.67z" /></clipPath><clipPath id="45"><path d="M234.89 306.57L435.43 306.57L435.43 306.57L435.43 117.67L435.43 117.67L234.89 117.67z" /></clipPath><clipPath id="46"><path d="M234.89 306.57L435.43 306.57L435.43 306.57L435.43 117.67L435.43 117.67L234.89 117.67z" /></clipPath><clipPath id="47"><path d="M234.89 306.57L435.43 306.57L435.43 306.57L435.43 117.67L435.43 117.67L234.89 117.67z" /></clipPath><clipPath id="48"><path d="M234.89 306.57L435.43 306.57L435.43 306.57L435.43 117.67L435.43 117.67L234.89 117.67z" /></clipPath><clipPath id="49"><path d="M234.89 306.57L435.43 306.57L435.43 306.57L435.43 117.67L435.43 117.67L234.89 117.67z" /></clipPath><clipPath id="50"><path d="M234.89 306.57L435.43 306.57L435.43 306.57L435.43 117.67L435.43 117.67L234.89 117.67z" /></clipPath><clipPath id="51"><path d="M234.89 306.57L435.43 306.57L435.43 306.57L435.43 117.67L435.43 117.67L234.89 117.67z" /></clipPath><clipPath id="52"><path d="M234.89 306.57L435.43 306.57L435.43 306.57L435.43 117.67L435.43 117.67L234.89 117.67z" /></clipPath><clipPath id="53"><path d="M234.89 306.57L435.43 306.57L435.43 306.57L435.43 117.67L435.43 117.67L234.89 117.67z" /></clipPath><clipPath id="54"><path d="M234.89 306.57L435.43 306.57L435.43 306.57L435.43 117.67L435.43 117.67L234.89 117.67z" /></clipPath><clipPath id="55"><path d="M234.89 306.57L435.43 306.57L435.43 306.57L435.43 117.67L435.43 117.67L234.89 117.67z" /></clipPath><clipPath id="56"><path d="M234.89 306.57L435.43 306.57L435.43 306.57L435.43 117.67L435.43 117.67L234.89 117.67z" /></clipPath><clipPath id="57"><path d="M234.89 306.57L435.43 306.57L435.43 306.57L435.43 117.67L435.43 117.67L234.89 117.67z" /></clipPath><clipPath id="58"><path d="M234.89 306.57L435.43 306.57L435.43 306.57L435.43 117.67L435.43 117.67L234.89 117.67z" /></clipPath><clipPath id="59"><path d="M234.89 306.57L435.43 306.57L435.43 306.57L435.43 117.67L435.43 117.67L234.89 117.67z" /></clipPath><clipPath id="60"><path d="M436.04 306.57L510.695 306.57L510.695 306.57L510.695 117.67L510.695 117.67L436.04 117.67z" /></clipPath><clipPath id="61"><path d="M436.03 306.57L510.694 306.57L510.694 306.57L510.694 117.67L510.694 117.67L436.03 117.67z" /></clipPath><clipPath id="62"><path d="M436.03 306.57L510.694 306.57L510.694 306.57L510.694 117.67L510.694 117.67L436.03 117.67z" /></clipPath><clipPath id="63"><path d="M436.03 306.57L510.694 306.57L510.694 306.57L510.694 117.67L510.694 117.67L436.03 117.67z" /></clipPath><clipPath id="64"><path d="M436.03 306.57L510.694 306.57L510.694 306.57L510.694 117.67L510.694 117.67L436.03 117.67z" /></clipPath><clipPath id="65"><path d="M84.751 350.73L165.031 350.73L165.031 350.73L165.031 307.05L165.031 307.05L84.751 307.05z" /></clipPath><clipPath id="66"><path d="M84.744 350.73L165.024 350.73L165.024 350.73L165.024 307.05L165.024 307.05L84.744 307.05z" /></clipPath><clipPath id="67"><path d="M84.744 350.73L165.024 350.73L165.024 350.73L165.024 307.05L165.024 307.05L84.744 307.05z" /></clipPath><clipPath id="68"><path d="M84.744 350.73L165.024 350.73L165.024 350.73L165.024 307.05L165.024 307.05L84.744 307.05z" /></clipPath><clipPath id="69"><path d="M84.744 350.73L165.024 350.73L165.024 350.73L165.024 307.05L165.024 307.05L84.744 307.05z" /></clipPath><clipPath id="70"><path d="M84.744 350.73L165.024 350.73L165.024 350.73L165.024 307.05L165.024 307.05L84.744 307.05z" /></clipPath><clipPath id="71"><path d="M84.744 350.73L165.024 350.73L165.024 350.73L165.024 307.05L165.024 307.05L84.744 307.05z" /></clipPath><clipPath id="72"><path d="M165.51 350.73L234.405 350.73L234.405 350.73L234.405 307.05L234.405 307.05L165.51 307.05z" /></clipPath><clipPath id="73"><path d="M165.5 350.73L234.404 350.73L234.404 350.73L234.404 307.05L234.404 307.05L165.5 307.05z" /></clipPath><clipPath id="74"><path d="M165.5 350.73L234.404 350.73L234.404 350.73L234.404 307.05L234.404 307.05L165.5 307.05z" /></clipPath><clipPath id="75"><path d="M234.89 350.73L435.44 350.73L435.44 350.73L435.44 307.05L435.44 307.05L234.89 307.05z" /></clipPath><clipPath id="76"><path d="M234.89 350.73L435.43 350.73L435.43 350.73L435.43 307.05L435.43 307.05L234.89 307.05z" /></clipPath><clipPath id="77"><path d="M234.89 350.73L435.43 350.73L435.43 350.73L435.43 307.05L435.43 307.05L234.89 307.05z" /></clipPath><clipPath id="78"><path d="M234.89 350.73L435.43 350.73L435.43 350.73L435.43 307.05L435.43 307.05L234.89 307.05z" /></clipPath><clipPath id="79"><path d="M234.89 350.73L435.43 350.73L435.43 350.73L435.43 307.05L435.43 307.05L234.89 307.05z" /></clipPath><clipPath id="80"><path d="M234.89 350.73L435.43 350.73L435.43 350.73L435.43 307.05L435.43 307.05L234.89 307.05z" /></clipPath><clipPath id="81"><path d="M436.04 350.73L510.695 350.73L510.695 350.73L510.695 307.05L510.695 307.05L436.04 307.05z" /></clipPath><clipPath id="82"><path d="M436.03 350.73L510.694 350.73L510.694 350.73L510.694 307.05L510.694 307.05L436.03 307.05z" /></clipPath><clipPath id="83"><path d="M436.03 350.73L510.694 350.73L510.694 350.73L510.694 307.05L510.694 307.05L436.03 307.05z" /></clipPath><clipPath id="84"><path d="M436.03 350.73L510.694 350.73L510.694 350.73L510.694 307.05L510.694 307.05L436.03 307.05z" /></clipPath><clipPath id="85"><path d="M436.03 350.73L510.694 350.73L510.694 350.73L510.694 307.05L510.694 307.05L436.03 307.05z" /></clipPath><clipPath id="86"><path d="M84.751 422.73L165.031 422.73L165.031 422.73L165.031 351.21L165.031 351.21L84.751 351.21z" /></clipPath><clipPath id="87"><path d="M84.744 422.73L165.024 422.73L165.024 422.73L165.024 351.21L165.024 351.21L84.744 351.21z" /></clipPath><clipPath id="88"><path d="M84.744 422.73L165.024 422.73L165.024 422.73L165.024 351.21L165.024 351.21L84.744 351.21z" /></clipPath><clipPath id="89"><path d="M84.744 422.73L165.024 422.73L165.024 422.73L165.024 351.21L165.024 351.21L84.744 351.21z" /></clipPath><clipPath id="90"><path d="M84.744 422.73L165.024 422.73L165.024 422.73L165.024 351.21L165.024 351.21L84.744 351.21z" /></clipPath><clipPath id="91"><path d="M84.744 422.73L165.024 422.73L165.024 422.73L165.024 351.21L165.024 351.21L84.744 351.21z" /></clipPath><clipPath id="92"><path d="M84.744 422.73L165.024 422.73L165.024 422.73L165.024 351.21L165.024 351.21L84.744 351.21z" /></clipPath><clipPath id="93"><path d="M165.51 422.73L234.405 422.73L234.405 422.73L234.405 351.21L234.405 351.21L165.51 351.21z" /></clipPath><clipPath id="94"><path d="M165.5 422.73L234.404 422.73L234.404 422.73L234.404 351.21L234.404 351.21L165.5 351.21z" /></clipPath><clipPath id="95"><path d="M165.5 422.73L234.404 422.73L234.404 422.73L234.404 351.21L234.404 351.21L165.5 351.21z" /></clipPath><clipPath id="96"><path d="M234.89 422.73L435.44 422.73L435.44 422.73L435.44 351.21L435.44 351.21L234.89 351.21z" /></clipPath><clipPath id="97"><path d="M234.89 422.73L435.43 422.73L435.43 422.73L435.43 351.21L435.43 351.21L234.89 351.21z" /></clipPath><clipPath id="98"><path d="M234.89 422.73L435.43 422.73L435.43 422.73L435.43 351.21L435.43 351.21L234.89 351.21z" /></clipPath><clipPath id="99"><path d="M234.89 422.73L435.43 422.73L435.43 422.73L435.43 351.21L435.43 351.21L234.89 351.21z" /></clipPath><clipPath id="100"><path d="M234.89 422.73L435.43 422.73L435.43 422.73L435.43 351.21L435.43 351.21L234.89 351.21z" /></clipPath><clipPath id="101"><path d="M234.89 422.73L435.43 422.73L435.43 422.73L435.43 351.21L435.43 351.21L234.89 351.21z" /></clipPath><clipPath id="102"><path d="M234.89 422.73L435.43 422.73L435.43 422.73L435.43 351.21L435.43 351.21L234.89 351.21z" /></clipPath><clipPath id="103"><path d="M234.89 422.73L435.43 422.73L435.43 422.73L435.43 351.21L435.43 351.21L234.89 351.21z" /></clipPath><clipPath id="104"><path d="M234.89 422.73L435.43 422.73L435.43 422.73L435.43 351.21L435.43 351.21L234.89 351.21z" /></clipPath><clipPath id="105"><path d="M234.89 422.73L435.43 422.73L435.43 422.73L435.43 351.21L435.43 351.21L234.89 351.21z" /></clipPath><clipPath id="106"><path d="M234.89 422.73L435.43 422.73L435.43 422.73L435.43 351.21L435.43 351.21L234.89 351.21z" /></clipPath><clipPath id="107"><path d="M234.89 422.73L435.43 422.73L435.43 422.73L435.43 351.21L435.43 351.21L234.89 351.21z" /></clipPath><clipPath id="108"><path d="M234.89 422.73L435.43 422.73L435.43 422.73L435.43 351.21L435.43 351.21L234.89 351.21z" /></clipPath><clipPath id="109"><path d="M234.89 422.73L435.43 422.73L435.43 422.73L435.43 351.21L435.43 351.21L234.89 351.21z" /></clipPath><clipPath id="110"><path d="M234.89 422.73L435.43 422.73L435.43 422.73L435.43 351.21L435.43 351.21L234.89 351.21z" /></clipPath><clipPath id="111"><path d="M234.89 422.73L435.43 422.73L435.43 422.73L435.43 351.21L435.43 351.21L234.89 351.21z" /></clipPath><clipPath id="112"><path d="M234.89 422.73L435.43 422.73L435.43 422.73L435.43 351.21L435.43 351.21L234.89 351.21z" /></clipPath><clipPath id="113"><path d="M234.89 422.73L435.43 422.73L435.43 422.73L435.43 351.21L435.43 351.21L234.89 351.21z" /></clipPath><clipPath id="114"><path d="M436.04 422.73L510.695 422.73L510.695 422.73L510.695 351.21L510.695 351.21L436.04 351.21z" /></clipPath><clipPath id="115"><path d="M436.03 422.73L510.694 422.73L510.694 422.73L510.694 351.21L510.694 351.21L436.03 351.21z" /></clipPath><clipPath id="116"><path d="M436.03 422.73L510.694 422.73L510.694 422.73L510.694 351.21L510.694 351.21L436.03 351.21z" /></clipPath><clipPath id="117"><path d="M436.03 422.73L510.694 422.73L510.694 422.73L510.694 351.21L510.694 351.21L436.03 351.21z" /></clipPath><clipPath id="118"><path d="M436.03 422.73L510.694 422.73L510.694 422.73L510.694 351.21L510.694 351.21L436.03 351.21z" /></clipPath><clipPath id="119"><path d="M84.751 466.89L165.031 466.89L165.031 466.89L165.031 423.21L165.031 423.21L84.751 423.21z" /></clipPath><clipPath id="120"><path d="M84.744 466.89L165.024 466.89L165.024 466.89L165.024 423.21L165.024 423.21L84.744 423.21z" /></clipPath><clipPath id="121"><path d="M84.744 466.89L165.024 466.89L165.024 466.89L165.024 423.21L165.024 423.21L84.744 423.21z" /></clipPath><clipPath id="122"><path d="M84.744 466.89L165.024 466.89L165.024 466.89L165.024 423.21L165.024 423.21L84.744 423.21z" /></clipPath><clipPath id="123"><path d="M84.744 466.89L165.024 466.89L165.024 466.89L165.024 423.21L165.024 423.21L84.744 423.21z" /></clipPath><clipPath id="124"><path d="M84.744 466.89L165.024 466.89L165.024 466.89L165.024 423.21L165.024 423.21L84.744 423.21z" /></clipPath><clipPath id="125"><path d="M84.744 466.89L165.024 466.89L165.024 466.89L165.024 423.21L165.024 423.21L84.744 423.21z" /></clipPath><clipPath id="126"><path d="M84.744 466.89L165.024 466.89L165.024 466.89L165.024 423.21L165.024 423.21L84.744 423.21z" /></clipPath><clipPath id="127"><path d="M165.51 466.89L234.405 466.89L234.405 466.89L234.405 423.21L234.405 423.21L165.51 423.21z" /></clipPath><clipPath id="128"><path d="M165.5 466.89L234.404 466.89L234.404 466.89L234.404 423.21L234.404 423.21L165.5 423.21z" /></clipPath><clipPath id="129"><path d="M165.5 466.89L234.404 466.89L234.404 466.89L234.404 423.21L234.404 423.21L165.5 423.21z" /></clipPath><clipPath id="130"><path d="M234.89 466.89L435.44 466.89L435.44 466.89L435.44 423.21L435.44 423.21L234.89 423.21z" /></clipPath><clipPath id="131"><path d="M234.89 466.89L435.43 466.89L435.43 466.89L435.43 423.21L435.43 423.21L234.89 423.21z" /></clipPath><clipPath id="132"><path d="M234.89 466.89L435.43 466.89L435.43 466.89L435.43 423.21L435.43 423.21L234.89 423.21z" /></clipPath><clipPath id="133"><path d="M234.89 466.89L435.43 466.89L435.43 466.89L435.43 423.21L435.43 423.21L234.89 423.21z" /></clipPath><clipPath id="134"><path d="M234.89 466.89L435.43 466.89L435.43 466.89L435.43 423.21L435.43 423.21L234.89 423.21z" /></clipPath><clipPath id="135"><path d="M234.89 466.89L435.43 466.89L435.43 466.89L435.43 423.21L435.43 423.21L234.89 423.21z" /></clipPath><clipPath id="136"><path d="M234.89 466.89L435.43 466.89L435.43 466.89L435.43 423.21L435.43 423.21L234.89 423.21z" /></clipPath><clipPath id="137"><path d="M234.89 466.89L435.43 466.89L435.43 466.89L435.43 423.21L435.43 423.21L234.89 423.21z" /></clipPath><clipPath id="138"><path d="M234.89 466.89L435.43 466.89L435.43 466.89L435.43 423.21L435.43 423.21L234.89 423.21z" /></clipPath><clipPath id="139"><path d="M234.89 466.89L435.43 466.89L435.43 466.89L435.43 423.21L435.43 423.21L234.89 423.21z" /></clipPath><clipPath id="140"><path d="M436.04 466.89L510.695 466.89L510.695 466.89L510.695 423.21L510.695 423.21L436.04 423.21z" /></clipPath><clipPath id="141"><path d="M436.03 466.89L510.694 466.89L510.694 466.89L510.694 423.21L510.694 423.21L436.03 423.21z" /></clipPath><clipPath id="142"><path d="M436.03 466.89L510.694 466.89L510.694 466.89L510.694 423.21L510.694 423.21L436.03 423.21z" /></clipPath><clipPath id="143"><path d="M436.03 466.89L510.694 466.89L510.694 466.89L510.694 423.21L510.694 423.21L436.03 423.21z" /></clipPath><clipPath id="144"><path d="M436.03 466.89L510.694 466.89L510.694 466.89L510.694 423.21L510.694 423.21L436.03 423.21z" /></clipPath><clipPath id="145"><path d="M84.751 537.96L165.031 537.96L165.031 537.96L165.031 467.49L165.031 467.49L84.751 467.49z" /></clipPath><clipPath id="146"><path d="M84.744 537.95L165.024 537.95L165.024 537.95L165.024 467.486L165.024 467.486L84.744 467.486z" /></clipPath><clipPath id="147"><path d="M84.744 537.95L165.024 537.95L165.024 537.95L165.024 467.486L165.024 467.486L84.744 467.486z" /></clipPath><clipPath id="148"><path d="M84.744 537.95L165.024 537.95L165.024 537.95L165.024 467.486L165.024 467.486L84.744 467.486z" /></clipPath><clipPath id="149"><path d="M84.744 537.95L165.024 537.95L165.024 537.95L165.024 467.486L165.024 467.486L84.744 467.486z" /></clipPath><clipPath id="150"><path d="M84.744 537.95L165.024 537.95L165.024 537.95L165.024 467.486L165.024 467.486L84.744 467.486z" /></clipPath><clipPath id="151"><path d="M84.744 537.95L165.024 537.95L165.024 537.95L165.024 467.486L165.024 467.486L84.744 467.486z" /></clipPath><clipPath id="152"><path d="M84.744 537.95L165.024 537.95L165.024 537.95L165.024 467.486L165.024 467.486L84.744 467.486z" /></clipPath><clipPath id="153"><path d="M165.51 537.96L234.405 537.96L234.405 537.96L234.405 467.49L234.405 467.49L165.51 467.49z" /></clipPath><clipPath id="154"><path d="M165.5 537.95L234.404 537.95L234.404 537.95L234.404 467.486L234.404 467.486L165.5 467.486z" /></clipPath><clipPath id="155"><path d="M165.5 537.95L234.404 537.95L234.404 537.95L234.404 467.486L234.404 467.486L165.5 467.486z" /></clipPath><clipPath id="156"><path d="M234.89 537.96L435.44 537.96L435.44 537.96L435.44 467.49L435.44 467.49L234.89 467.49z" /></clipPath><clipPath id="157"><path d="M234.89 537.95L435.43 537.95L435.43 537.95L435.43 467.486L435.43 467.486L234.89 467.486z" /></clipPath><clipPath id="158"><path d="M234.89 537.95L435.43 537.95L435.43 537.95L435.43 467.486L435.43 467.486L234.89 467.486z" /></clipPath><clipPath id="159"><path d="M234.89 537.95L435.43 537.95L435.43 537.95L435.43 467.486L435.43 467.486L234.89 467.486z" /></clipPath><clipPath id="160"><path d="M234.89 537.95L435.43 537.95L435.43 537.95L435.43 467.486L435.43 467.486L234.89 467.486z" /></clipPath><clipPath id="161"><path d="M234.89 537.95L435.43 537.95L435.43 537.95L435.43 467.486L435.43 467.486L234.89 467.486z" /></clipPath><clipPath id="162"><path d="M234.89 537.95L435.43 537.95L435.43 537.95L435.43 467.486L435.43 467.486L234.89 467.486z" /></clipPath><clipPath id="163"><path d="M234.89 537.95L435.43 537.95L435.43 537.95L435.43 467.486L435.43 467.486L234.89 467.486z" /></clipPath><clipPath id="164"><path d="M234.89 537.95L435.43 537.95L435.43 537.95L435.43 467.486L435.43 467.486L234.89 467.486z" /></clipPath><clipPath id="165"><path d="M234.89 537.95L435.43 537.95L435.43 537.95L435.43 467.486L435.43 467.486L234.89 467.486z" /></clipPath><clipPath id="166"><path d="M234.89 537.95L435.43 537.95L435.43 537.95L435.43 467.486L435.43 467.486L234.89 467.486z" /></clipPath><clipPath id="167"><path d="M234.89 537.95L435.43 537.95L435.43 537.95L435.43 467.486L435.43 467.486L234.89 467.486z" /></clipPath><clipPath id="168"><path d="M234.89 537.95L435.43 537.95L435.43 537.95L435.43 467.486L435.43 467.486L234.89 467.486z" /></clipPath><clipPath id="169"><path d="M234.89 537.95L435.43 537.95L435.43 537.95L435.43 467.486L435.43 467.486L234.89 467.486z" /></clipPath><clipPath id="170"><path d="M234.89 537.95L435.43 537.95L435.43 537.95L435.43 467.486L435.43 467.486L234.89 467.486z" /></clipPath><clipPath id="171"><path d="M234.89 537.95L435.43 537.95L435.43 537.95L435.43 467.486L435.43 467.486L234.89 467.486z" /></clipPath><clipPath id="172"><path d="M234.89 537.95L435.43 537.95L435.43 537.95L435.43 467.486L435.43 467.486L234.89 467.486z" /></clipPath><clipPath id="173"><path d="M436.04 537.96L510.695 537.96L510.695 537.96L510.695 467.49L510.695 467.49L436.04 467.49z" /></clipPath><clipPath id="174"><path d="M436.03 537.95L510.694 537.95L510.694 537.95L510.694 467.486L510.694 467.486L436.03 467.486z" /></clipPath><clipPath id="175"><path d="M436.03 537.95L510.694 537.95L510.694 537.95L510.694 467.486L510.694 467.486L436.03 467.486z" /></clipPath><clipPath id="176"><path d="M436.03 537.95L510.694 537.95L510.694 537.95L510.694 467.486L510.694 467.486L436.03 467.486z" /></clipPath><clipPath id="177"><path d="M436.03 537.95L510.694 537.95L510.694 537.95L510.694 467.486L510.694 467.486L436.03 467.486z" /></clipPath><clipPath id="178"><path d="M84.751 611.04L165.031 611.04L165.031 611.04L165.031 538.44L165.031 538.44L84.751 538.44z" /></clipPath><clipPath id="179"><path d="M84.744 611.03L165.024 611.03L165.024 611.03L165.024 538.43L165.024 538.43L84.744 538.43z" /></clipPath><clipPath id="180"><path d="M84.744 611.03L165.024 611.03L165.024 611.03L165.024 538.43L165.024 538.43L84.744 538.43z" /></clipPath><clipPath id="181"><path d="M84.744 611.03L165.024 611.03L165.024 611.03L165.024 538.43L165.024 538.43L84.744 538.43z" /></clipPath><clipPath id="182"><path d="M84.744 611.03L165.024 611.03L165.024 611.03L165.024 538.43L165.024 538.43L84.744 538.43z" /></clipPath><clipPath id="183"><path d="M84.744 611.03L165.024 611.03L165.024 611.03L165.024 538.43L165.024 538.43L84.744 538.43z" /></clipPath><clipPath id="184"><path d="M84.744 611.03L165.024 611.03L165.024 611.03L165.024 538.43L165.024 538.43L84.744 538.43z" /></clipPath><clipPath id="185"><path d="M84.744 611.03L165.024 611.03L165.024 611.03L165.024 538.43L165.024 538.43L84.744 538.43z" /></clipPath><clipPath id="186"><path d="M165.51 611.04L234.405 611.04L234.405 611.04L234.405 538.44L234.405 538.44L165.51 538.44z" /></clipPath><clipPath id="187"><path d="M165.5 611.03L234.404 611.03L234.404 611.03L234.404 538.43L234.404 538.43L165.5 538.43z" /></clipPath><clipPath id="188"><path d="M165.5 611.03L234.404 611.03L234.404 611.03L234.404 538.43L234.404 538.43L165.5 538.43z" /></clipPath><clipPath id="189"><path d="M234.89 611.04L435.44 611.04L435.44 611.04L435.44 538.44L435.44 538.44L234.89 538.44z" /></clipPath><clipPath id="190"><path d="M234.89 611.03L435.43 611.03L435.43 611.03L435.43 538.43L435.43 538.43L234.89 538.43z" /></clipPath><clipPath id="191"><path d="M234.89 611.03L435.43 611.03L435.43 611.03L435.43 538.43L435.43 538.43L234.89 538.43z" /></clipPath><clipPath id="192"><path d="M234.89 611.03L435.43 611.03L435.43 611.03L435.43 538.43L435.43 538.43L234.89 538.43z" /></clipPath><clipPath id="193"><path d="M234.89 611.03L435.43 611.03L435.43 611.03L435.43 538.43L435.43 538.43L234.89 538.43z" /></clipPath><clipPath id="194"><path d="M234.89 611.03L435.43 611.03L435.43 611.03L435.43 538.43L435.43 538.43L234.89 538.43z" /></clipPath><clipPath id="195"><path d="M234.89 611.03L435.43 611.03L435.43 611.03L435.43 538.43L435.43 538.43L234.89 538.43z" /></clipPath><clipPath id="196"><path d="M234.89 611.03L435.43 611.03L435.43 611.03L435.43 538.43L435.43 538.43L234.89 538.43z" /></clipPath><clipPath id="197"><path d="M234.89 611.03L435.43 611.03L435.43 611.03L435.43 538.43L435.43 538.43L234.89 538.43z" /></clipPath><clipPath id="198"><path d="M234.89 611.03L435.43 611.03L435.43 611.03L435.43 538.43L435.43 538.43L234.89 538.43z" /></clipPath><clipPath id="199"><path d="M234.89 611.03L435.43 611.03L435.43 611.03L435.43 538.43L435.43 538.43L234.89 538.43z" /></clipPath><clipPath id="200"><path d="M234.89 611.03L435.43 611.03L435.43 611.03L435.43 538.43L435.43 538.43L234.89 538.43z" /></clipPath><clipPath id="201"><path d="M234.89 611.03L435.43 611.03L435.43 611.03L435.43 538.43L435.43 538.43L234.89 538.43z" /></clipPath><clipPath id="202"><path d="M234.89 611.03L435.43 611.03L435.43 611.03L435.43 538.43L435.43 538.43L234.89 538.43z" /></clipPath><clipPath id="203"><path d="M234.89 611.03L435.43 611.03L435.43 611.03L435.43 538.43L435.43 538.43L234.89 538.43z" /></clipPath><clipPath id="204"><path d="M234.89 611.03L435.43 611.03L435.43 611.03L435.43 538.43L435.43 538.43L234.89 538.43z" /></clipPath><clipPath id="205"><path d="M234.89 611.03L435.43 611.03L435.43 611.03L435.43 538.43L435.43 538.43L234.89 538.43z" /></clipPath><clipPath id="206"><path d="M234.89 611.03L435.43 611.03L435.43 611.03L435.43 538.43L435.43 538.43L234.89 538.43z" /></clipPath><clipPath id="207"><path d="M234.89 611.03L435.43 611.03L435.43 611.03L435.43 538.43L435.43 538.43L234.89 538.43z" /></clipPath><clipPath id="208"><path d="M234.89 611.03L435.43 611.03L435.43 611.03L435.43 538.43L435.43 538.43L234.89 538.43z" /></clipPath><clipPath id="209"><path d="M234.89 611.03L435.43 611.03L435.43 611.03L435.43 538.43L435.43 538.43L234.89 538.43z" /></clipPath><clipPath id="210"><path d="M234.89 611.03L435.43 611.03L435.43 611.03L435.43 538.43L435.43 538.43L234.89 538.43z" /></clipPath><clipPath id="211"><path d="M234.89 611.03L435.43 611.03L435.43 611.03L435.43 538.43L435.43 538.43L234.89 538.43z" /></clipPath><clipPath id="212"><path d="M234.89 611.03L435.43 611.03L435.43 611.03L435.43 538.43L435.43 538.43L234.89 538.43z" /></clipPath><clipPath id="213"><path d="M234.89 611.03L435.43 611.03L435.43 611.03L435.43 538.43L435.43 538.43L234.89 538.43z" /></clipPath><clipPath id="214"><path d="M234.89 611.03L435.43 611.03L435.43 611.03L435.43 538.43L435.43 538.43L234.89 538.43z" /></clipPath><clipPath id="215"><path d="M234.89 611.03L435.43 611.03L435.43 611.03L435.43 538.43L435.43 538.43L234.89 538.43z" /></clipPath><clipPath id="216"><path d="M234.89 611.03L435.43 611.03L435.43 611.03L435.43 538.43L435.43 538.43L234.89 538.43z" /></clipPath><clipPath id="217"><path d="M234.89 611.03L435.43 611.03L435.43 611.03L435.43 538.43L435.43 538.43L234.89 538.43z" /></clipPath><clipPath id="218"><path d="M234.89 611.03L435.43 611.03L435.43 611.03L435.43 538.43L435.43 538.43L234.89 538.43z" /></clipPath><clipPath id="219"><path d="M436.04 611.04L510.695 611.04L510.695 611.04L510.695 538.44L510.695 538.44L436.04 538.44z" /></clipPath><clipPath id="220"><path d="M436.03 611.03L510.694 611.03L510.694 611.03L510.694 538.43L510.694 538.43L436.03 538.43z" /></clipPath><clipPath id="221"><path d="M436.03 611.03L510.694 611.03L510.694 611.03L510.694 538.43L510.694 538.43L436.03 538.43z" /></clipPath><clipPath id="222"><path d="M436.03 611.03L510.694 611.03L510.694 611.03L510.694 538.43L510.694 538.43L436.03 538.43z" /></clipPath><clipPath id="223"><path d="M84.751 702.37L165.031 702.37L165.031 702.37L165.031 611.635L165.031 611.635L84.751 611.635z" /></clipPath><clipPath id="224"><path d="M84.744 702.38L165.024 702.38L165.024 702.38L165.024 611.636L165.024 611.636L84.744 611.636z" /></clipPath><clipPath id="225"><path d="M84.744 702.38L165.024 702.38L165.024 702.38L165.024 611.636L165.024 611.636L84.744 611.636z" /></clipPath><clipPath id="226"><path d="M84.744 702.38L165.024 702.38L165.024 702.38L165.024 611.636L165.024 611.636L84.744 611.636z" /></clipPath><clipPath id="227"><path d="M84.744 702.38L165.024 702.38L165.024 702.38L165.024 611.636L165.024 611.636L84.744 611.636z" /></clipPath><clipPath id="228"><path d="M84.744 702.38L165.024 702.38L165.024 702.38L165.024 611.636L165.024 611.636L84.744 611.636z" /></clipPath><clipPath id="229"><path d="M84.744 702.38L165.024 702.38L165.024 702.38L165.024 611.636L165.024 611.636L84.744 611.636z" /></clipPath><clipPath id="230"><path d="M84.744 702.38L165.024 702.38L165.024 702.38L165.024 611.636L165.024 611.636L84.744 611.636z" /></clipPath><clipPath id="231"><path d="M165.51 702.37L234.405 702.37L234.405 702.37L234.405 611.635L234.405 611.635L165.51 611.635z" /></clipPath><clipPath id="232"><path d="M165.5 702.38L234.404 702.38L234.404 702.38L234.404 611.636L234.404 611.636L165.5 611.636z" /></clipPath><clipPath id="233"><path d="M165.5 702.38L234.404 702.38L234.404 702.38L234.404 611.636L234.404 611.636L165.5 611.636z" /></clipPath><clipPath id="234"><path d="M234.89 702.37L435.44 702.37L435.44 702.37L435.44 611.635L435.44 611.635L234.89 611.635z" /></clipPath><clipPath id="235"><path d="M234.89 702.38L435.43 702.38L435.43 702.38L435.43 611.636L435.43 611.636L234.89 611.636z" /></clipPath><clipPath id="236"><path d="M234.89 702.38L435.43 702.38L435.43 702.38L435.43 611.636L435.43 611.636L234.89 611.636z" /></clipPath><clipPath id="237"><path d="M234.89 702.38L435.43 702.38L435.43 702.38L435.43 611.636L435.43 611.636L234.89 611.636z" /></clipPath><clipPath id="238"><path d="M234.89 702.38L435.43 702.38L435.43 702.38L435.43 611.636L435.43 611.636L234.89 611.636z" /></clipPath><clipPath id="239"><path d="M234.89 702.38L435.43 702.38L435.43 702.38L435.43 611.636L435.43 611.636L234.89 611.636z" /></clipPath><clipPath id="240"><path d="M234.89 702.38L435.43 702.38L435.43 702.38L435.43 611.636L435.43 611.636L234.89 611.636z" /></clipPath><clipPath id="241"><path d="M234.89 702.38L435.43 702.38L435.43 702.38L435.43 611.636L435.43 611.636L234.89 611.636z" /></clipPath><clipPath id="242"><path d="M234.89 702.38L435.43 702.38L435.43 702.38L435.43 611.636L435.43 611.636L234.89 611.636z" /></clipPath><clipPath id="243"><path d="M234.89 702.38L435.43 702.38L435.43 702.38L435.43 611.636L435.43 611.636L234.89 611.636z" /></clipPath><clipPath id="244"><path d="M234.89 702.38L435.43 702.38L435.43 702.38L435.43 611.636L435.43 611.636L234.89 611.636z" /></clipPath><clipPath id="245"><path d="M234.89 702.38L435.43 702.38L435.43 702.38L435.43 611.636L435.43 611.636L234.89 611.636z" /></clipPath><clipPath id="246"><path d="M234.89 702.38L435.43 702.38L435.43 702.38L435.43 611.636L435.43 611.636L234.89 611.636z" /></clipPath><clipPath id="247"><path d="M234.89 702.38L435.43 702.38L435.43 702.38L435.43 611.636L435.43 611.636L234.89 611.636z" /></clipPath><clipPath id="248"><path d="M234.89 702.38L435.43 702.38L435.43 702.38L435.43 611.636L435.43 611.636L234.89 611.636z" /></clipPath><clipPath id="249"><path d="M234.89 702.38L435.43 702.38L435.43 702.38L435.43 611.636L435.43 611.636L234.89 611.636z" /></clipPath><clipPath id="250"><path d="M234.89 702.38L435.43 702.38L435.43 702.38L435.43 611.636L435.43 611.636L234.89 611.636z" /></clipPath><clipPath id="251"><path d="M234.89 702.38L435.43 702.38L435.43 702.38L435.43 611.636L435.43 611.636L234.89 611.636z" /></clipPath><clipPath id="252"><path d="M234.89 702.38L435.43 702.38L435.43 702.38L435.43 611.636L435.43 611.636L234.89 611.636z" /></clipPath><clipPath id="253"><path d="M234.89 702.38L435.43 702.38L435.43 702.38L435.43 611.636L435.43 611.636L234.89 611.636z" /></clipPath><clipPath id="254"><path d="M234.89 702.38L435.43 702.38L435.43 702.38L435.43 611.636L435.43 611.636L234.89 611.636z" /></clipPath><clipPath id="255"><path d="M234.89 702.38L435.43 702.38L435.43 702.38L435.43 611.636L435.43 611.636L234.89 611.636z" /></clipPath><clipPath id="256"><path d="M234.89 702.38L435.43 702.38L435.43 702.38L435.43 611.636L435.43 611.636L234.89 611.636z" /></clipPath><clipPath id="257"><path d="M234.89 702.38L435.43 702.38L435.43 702.38L435.43 611.636L435.43 611.636L234.89 611.636z" /></clipPath><clipPath id="258"><path d="M234.89 702.38L435.43 702.38L435.43 702.38L435.43 611.636L435.43 611.636L234.89 611.636z" /></clipPath><clipPath id="259"><path d="M436.04 702.37L510.695 702.37L510.695 702.37L510.695 611.635L510.695 611.635L436.04 611.635z" /></clipPath><clipPath id="260"><path d="M436.03 702.38L510.694 702.38L510.694 702.38L510.694 611.636L510.694 611.636L436.03 611.636z" /></clipPath><clipPath id="261"><path d="M436.03 702.38L510.694 702.38L510.694 702.38L510.694 611.636L510.694 611.636L436.03 611.636z" /></clipPath><clipPath id="262"><path d="M436.03 702.38L510.694 702.38L510.694 702.38L510.694 611.636L510.694 611.636L436.03 611.636z" /></clipPath><clipPath id="263"><path d="M436.03 702.38L510.694 702.38L510.694 702.38L510.694 611.636L510.694 611.636L436.03 611.636z" /></clipPath><clipPath id="264"><path d="M84.751 746.531L165.031 746.531L165.031 746.531L165.031 702.851L165.031 702.851L84.751 702.851z" /></clipPath><clipPath id="265"><path d="M84.744 746.536L165.024 746.536L165.024 746.536L165.024 702.856L165.024 702.856L84.744 702.856z" /></clipPath><clipPath id="266"><path d="M84.744 746.536L165.024 746.536L165.024 746.536L165.024 702.856L165.024 702.856L84.744 702.856z" /></clipPath><clipPath id="267"><path d="M84.744 746.536L165.024 746.536L165.024 746.536L165.024 702.856L165.024 702.856L84.744 702.856z" /></clipPath><clipPath id="268"><path d="M84.744 746.536L165.024 746.536L165.024 746.536L165.024 702.856L165.024 702.856L84.744 702.856z" /></clipPath><clipPath id="269"><path d="M84.744 746.536L165.024 746.536L165.024 746.536L165.024 702.856L165.024 702.856L84.744 702.856z" /></clipPath><clipPath id="270"><path d="M84.744 746.536L165.024 746.536L165.024 746.536L165.024 702.856L165.024 702.856L84.744 702.856z" /></clipPath><clipPath id="271"><path d="M84.744 746.536L165.024 746.536L165.024 746.536L165.024 702.856L165.024 702.856L84.744 702.856z" /></clipPath><clipPath id="272"><path d="M84.744 746.536L165.024 746.536L165.024 746.536L165.024 702.856L165.024 702.856L84.744 702.856z" /></clipPath><clipPath id="273"><path d="M165.51 746.531L234.405 746.531L234.405 746.531L234.405 702.851L234.405 702.851L165.51 702.851z" /></clipPath><clipPath id="274"><path d="M165.5 746.536L234.404 746.536L234.404 746.536L234.404 702.856L234.404 702.856L165.5 702.856z" /></clipPath><clipPath id="275"><path d="M165.5 746.536L234.404 746.536L234.404 746.536L234.404 702.856L234.404 702.856L165.5 702.856z" /></clipPath><clipPath id="276"><path d="M165.5 746.536L234.404 746.536L234.404 746.536L234.404 702.856L234.404 702.856L165.5 702.856z" /></clipPath><clipPath id="277"><path d="M234.89 746.531L435.44 746.531L435.44 746.531L435.44 702.851L435.44 702.851L234.89 702.851z" /></clipPath><clipPath id="278"><path d="M234.89 746.536L435.43 746.536L435.43 746.536L435.43 702.856L435.43 702.856L234.89 702.856z" /></clipPath><clipPath id="279"><path d="M234.89 746.536L435.43 746.536L435.43 746.536L435.43 702.856L435.43 702.856L234.89 702.856z" /></clipPath><clipPath id="280"><path d="M234.89 746.536L435.43 746.536L435.43 746.536L435.43 702.856L435.43 702.856L234.89 702.856z" /></clipPath><clipPath id="281"><path d="M234.89 746.536L435.43 746.536L435.43 746.536L435.43 702.856L435.43 702.856L234.89 702.856z" /></clipPath><clipPath id="282"><path d="M234.89 746.536L435.43 746.536L435.43 746.536L435.43 702.856L435.43 702.856L234.89 702.856z" /></clipPath><clipPath id="283"><path d="M234.89 746.536L435.43 746.536L435.43 746.536L435.43 702.856L435.43 702.856L234.89 702.856z" /></clipPath><clipPath id="284"><path d="M234.89 746.536L435.43 746.536L435.43 746.536L435.43 702.856L435.43 702.856L234.89 702.856z" /></clipPath><clipPath id="285"><path d="M234.89 746.536L435.43 746.536L435.43 746.536L435.43 702.856L435.43 702.856L234.89 702.856z" /></clipPath><clipPath id="286"><path d="M234.89 746.536L435.43 746.536L435.43 746.536L435.43 702.856L435.43 702.856L234.89 702.856z" /></clipPath><clipPath id="287"><path d="M234.89 746.536L435.43 746.536L435.43 746.536L435.43 702.856L435.43 702.856L234.89 702.856z" /></clipPath><clipPath id="288"><path d="M234.89 746.536L435.43 746.536L435.43 746.536L435.43 702.856L435.43 702.856L234.89 702.856z" /></clipPath><clipPath id="289"><path d="M436.04 746.531L510.695 746.531L510.695 746.531L510.695 702.851L510.695 702.851L436.04 702.851z" /></clipPath><clipPath id="290"><path d="M436.03 746.536L510.694 746.536L510.694 746.536L510.694 702.856L510.694 702.856L436.03 702.856z" /></clipPath><clipPath id="291"><path d="M436.03 746.536L510.694 746.536L510.694 746.536L510.694 702.856L510.694 702.856L436.03 702.856z" /></clipPath><clipPath id="292"><path d="M436.03 746.536L510.694 746.536L510.694 746.536L510.694 702.856L510.694 702.856L436.03 702.856z" /></clipPath><clipPath id="293"><path d="M436.03 746.536L510.694 746.536L510.694 746.536L510.694 702.856L510.694 702.856L436.03 702.856z" /></clipPath></defs><g transform="matrix(1.333333 0 0 1.333333 0 0)"><g><g clip-path="url(#1)"><path transform="matrix(1 0 0 -1 0 841)" d="M457.63 53.424L505.534 53.424L505.534 53.424L505.534 54.02404L505.534 54.02404L457.63 54.02404z" stroke="none" fill="#000000" fill-rule="evenodd" /><g clip-path="url(#2)"><path transform="matrix(1 0 0 -1 0 841)" d="M88.464 78.984L506.974 78.984L506.974 78.984L506.974 81.984L506.974 81.984L88.464 81.984z" stroke="none" fill="#000000" fill-rule="evenodd" /><path transform="matrix(1 0 0 -1 0 841)" d="M88.464 77.544L506.974 77.544L506.974 77.544L506.974 78.26397L506.974 78.26397L88.464 78.26397z" stroke="none" fill="#000000" fill-rule="evenodd" /></g><g clip-path="url(#3)"><g clip-path="url(#4)"></g><g clip-path="url(#5)"></g></g><path transform="matrix(1 0 0 -1 0 841)" d="M84.744 723.94L165.024 723.94L165.024 723.94L165.024 751.564L165.024 751.564L84.744 751.564z" stroke="none" fill="#0070C0" fill-rule="evenodd" /><g clip-path="url(#6)"><path transform="matrix(1 0 0 -1 0 841)" d="M89.904 723.94L159.864 723.94L159.864 723.94L159.864 751.564L159.864 751.564L89.904 751.564z" stroke="none" fill="#0070C0" fill-rule="evenodd" /><g clip-path="url(#7)"></g><g clip-path="url(#8)"></g></g><path transform="matrix(1 0 0 -1 0 841)" d="M165.5 723.94L234.404 723.94L234.404 723.94L234.404 751.564L234.404 751.564L165.5 751.564z" stroke="none" fill="#0070C0" fill-rule="evenodd" /><g clip-path="url(#9)"><path transform="matrix(1 0 0 -1 0 841)" d="M170.66 723.94L229.244 723.94L229.244 723.94L229.244 751.564L229.244 751.564L170.66 751.564z" stroke="none" fill="#0070C0" fill-rule="evenodd" /><g clip-path="url(#10)"></g><g clip-path="url(#11)"></g></g><path transform="matrix(1 0 0 -1 0 841)" d="M234.89 723.94L435.43 723.94L435.43 723.94L435.43 751.564L435.43 751.564L234.89 751.564z" stroke="none" fill="#0070C0" fill-rule="evenodd" /><g clip-path="url(#12)"><path transform="matrix(1 0 0 -1 0 841)" d="M240.05 723.94L430.27 723.94L430.27 723.94L430.27 751.564L430.27 751.564L240.05 751.564z" stroke="none" fill="#0070C0" fill-rule="evenodd" /><g clip-path="url(#13)"></g><g clip-path="url(#14)"></g></g><path transform="matrix(1 0 0 -1 0 841)" d="M436.03 723.94L510.694 723.94L510.694 723.94L510.694 751.564L510.694 751.564L436.03 751.564z" stroke="none" fill="#0070C0" fill-rule="evenodd" /><g clip-path="url(#15)"><path transform="matrix(1 0 0 -1 0 841)" d="M441.07 723.94L505.534 723.94L505.534 723.94L505.534 751.564L505.534 751.564L441.07 751.564z" stroke="none" fill="#0070C0" fill-rule="evenodd" /><g clip-path="url(#16)"></g><g clip-path="url(#17)"></g><g clip-path="url(#18)"></g></g><path transform="matrix(1 0 0 -1 0 841)" d="M84.264 751.56L84.744 751.56L84.744 751.56L84.744 752.04L84.744 752.04L84.264 752.04z" stroke="none" fill="#000000" fill-rule="evenodd" /><path transform="matrix(1 0 0 -1 0 841)" d="M84.264 751.56L84.744 751.56L84.744 751.56L84.744 752.04L84.744 752.04L84.264 752.04z" stroke="none" fill="#000000" fill-rule="evenodd" /><path transform="matrix(1 0 0 -1 0 841)" d="M84.744 751.56L165.024 751.56L165.024 751.56L165.024 752.04L165.024 752.04L84.744 752.04z" stroke="none" fill="#000000" fill-rule="evenodd" /><path transform="matrix(1 0 0 -1 0 841)" d="M165.02 751.56L165.5 751.56L165.5 751.56L165.5 752.04L165.5 752.04L165.02 752.04z" stroke="none" fill="#000000" fill-rule="evenodd" /><path transform="matrix(1 0 0 -1 0 841)" d="M165.5 751.56L234.404 751.56L234.404 751.56L234.404 752.04L234.404 752.04L165.5 752.04z" stroke="none" fill="#000000" fill-rule="evenodd" /><path transform="matrix(1 0 0 -1 0 841)" d="M234.41 751.56L234.89 751.56L234.89 751.56L234.89 752.04L234.89 752.04L234.41 752.04z" stroke="none" fill="#000000" fill-rule="evenodd" /><path transform="matrix(1 0 0 -1 0 841)" d="M234.89 751.56L435.55 751.56L435.55 751.56L435.55 752.04L435.55 752.04L234.89 752.04z" stroke="none" fill="#000000" fill-rule="evenodd" /><path transform="matrix(1 0 0 -1 0 841)" d="M435.55 751.56L436.03 751.56L436.03 751.56L436.03 752.04L436.03 752.04L435.55 752.04z" stroke="none" fill="#000000" fill-rule="evenodd" /><path transform="matrix(1 0 0 -1 0 841)" d="M436.03 751.56L510.694 751.56L510.694 751.56L510.694 752.04L510.694 752.04L436.03 752.04z" stroke="none" fill="#000000" fill-rule="evenodd" /><path transform="matrix(1 0 0 -1 0 841)" d="M510.7 751.56L511.18 751.56L511.18 751.56L511.18 752.04L511.18 752.04L510.7 752.04z" stroke="none" fill="#000000" fill-rule="evenodd" /><path transform="matrix(1 0 0 -1 0 841)" d="M510.7 751.56L511.18 751.56L511.18 751.56L511.18 752.04L511.18 752.04L510.7 752.04z" stroke="none" fill="#000000" fill-rule="evenodd" /><path transform="matrix(1 0 0 -1 0 841)" d="M84.264 723.94L84.744 723.94L84.744 723.94L84.744 751.564L84.744 751.564L84.264 751.564z" stroke="none" fill="#000000" fill-rule="evenodd" /><path transform="matrix(1 0 0 -1 0 841)" d="M165.02 723.94L165.5 723.94L165.5 723.94L165.5 751.564L165.5 751.564L165.02 751.564z" stroke="none" fill="#000000" fill-rule="evenodd" /><path transform="matrix(1 0 0 -1 0 841)" d="M234.41 723.94L234.89 723.94L234.89 723.94L234.89 751.564L234.89 751.564L234.41 751.564z" stroke="none" fill="#000000" fill-rule="evenodd" /><path transform="matrix(1 0 0 -1 0 841)" d="M435.55 723.94L436.03 723.94L436.03 723.94L436.03 751.564L436.03 751.564L435.55 751.564z" stroke="none" fill="#000000" fill-rule="evenodd" /><path transform="matrix(1 0 0 -1 0 841)" d="M510.7 723.94L511.18 723.94L511.18 723.94L511.18 751.564L511.18 751.564L510.7 751.564z" stroke="none" fill="#000000" fill-rule="evenodd" /><path transform="matrix(1 0 0 -1 0 841)" d="M84.744 534.43L165.024 534.43L165.024 534.43L165.024 723.33L165.024 723.33L84.744 723.33z" stroke="none" fill="#DAEEF3" fill-rule="evenodd" /><g clip-path="url(#19)"><path transform="matrix(1 0 0 -1 0 841)" d="M89.904 701.5L159.864 701.5L159.864 701.5L159.864 723.34L159.864 723.34L89.904 723.34z" stroke="none" fill="#DAEEF3" fill-rule="evenodd" /><g clip-path="url(#20)"></g><g clip-path="url(#21)"></g><g clip-path="url(#22)"></g><g clip-path="url(#23)"></g><path transform="matrix(1 0 0 -1 0 841)" d="M89.904 679.66L159.864 679.66L159.864 679.66L159.864 701.5L159.864 701.5L89.904 701.5z" stroke="none" fill="#DAEEF3" fill-rule="evenodd" /><g clip-path="url(#24)"></g><g clip-path="url(#25)"></g></g><path transform="matrix(1 0 0 -1 0 841)" d="M165.5 534.43L234.404 534.43L234.404 534.43L234.404 723.33L234.404 723.33L165.5 723.33z" stroke="none" fill="#DAEEF3" fill-rule="evenodd" /><g clip-path="url(#26)"><path transform="matrix(1 0 0 -1 0 841)" d="M170.66 696.82L229.244 696.82L229.244 696.82L229.244 723.34L229.244 723.34L170.66 723.34z" stroke="none" fill="#DAEEF3" fill-rule="evenodd" /><g clip-path="url(#27)"></g><g clip-path="url(#28)"></g></g><path transform="matrix(1 0 0 -1 0 841)" d="M234.89 534.43L435.43 534.43L435.43 534.43L435.43 723.33L435.43 723.33L234.89 723.33z" stroke="none" fill="#DAEEF3" fill-rule="evenodd" /><g clip-path="url(#29)"><path transform="matrix(1 0 0 -1 0 841)" d="M240.05 698.98L430.27 698.98L430.27 698.98L430.27 723.34L430.27 723.34L240.05 723.34z" stroke="none" fill="#DAEEF3" fill-rule="evenodd" /><g clip-path="url(#30)"></g><g clip-path="url(#31)"></g><g clip-path="url(#32)"></g><g clip-path="url(#33)"></g><path transform="matrix(1 0 0 -1 0 841)" d="M240.05 674.62L430.27 674.62L430.27 674.62L430.27 698.98L430.27 698.98L240.05 698.98z" stroke="none" fill="#DAEEF3" fill-rule="evenodd" /><g clip-path="url(#34)"></g><g clip-path="url(#35)"></g><g clip-path="url(#36)"></g><g clip-path="url(#37)"></g><g clip-path="url(#38)"></g><g clip-path="url(#39)"></g><path transform="matrix(1 0 0 -1 0 841)" d="M240.05 650.26L430.27 650.26L430.27 650.26L430.27 674.62L430.27 674.62L240.05 674.62z" stroke="none" fill="#DAEEF3" fill-rule="evenodd" /><g clip-path="url(#40)"></g><g clip-path="url(#41)"></g><g clip-path="url(#42)"></g><path transform="matrix(1 0 0 -1 0 841)" d="M240.05 625.78L430.27 625.78L430.27 625.78L430.27 650.26L430.27 650.26L240.05 650.26z" stroke="none" fill="#DAEEF3" fill-rule="evenodd" /><g clip-path="url(#43)"></g><g clip-path="url(#44)"></g><g clip-path="url(#45)"></g><g clip-path="url(#46)"></g><g clip-path="url(#47)"></g><g clip-path="url(#48)"></g><path transform="matrix(1 0 0 -1 0 841)" d="M240.05 601.42L430.27 601.42L430.27 601.42L430.27 625.78L430.27 625.78L240.05 625.78z" stroke="none" fill="#DAEEF3" fill-rule="evenodd" /><g clip-path="url(#49)"></g><g clip-path="url(#50)"></g><g clip-path="url(#51)"></g><path transform="matrix(1 0 0 -1 0 841)" d="M240.05 577.06L430.27 577.06L430.27 577.06L430.27 601.42L430.27 601.42L240.05 601.42z" stroke="none" fill="#DAEEF3" fill-rule="evenodd" /><g clip-path="url(#52)"></g><g clip-path="url(#53)"></g><path transform="matrix(1 0 0 -1 0 841)" d="M240.05 552.67L430.27 552.67L430.27 552.67L430.27 577.054L430.27 577.054L240.05 577.054z" stroke="none" fill="#DAEEF3" fill-rule="evenodd" /><g clip-path="url(#54)"></g><g clip-path="url(#55)"></g><g clip-path="url(#56)"></g><path transform="matrix(1 0 0 -1 0 841)" d="M240.05 534.43L430.27 534.43L430.27 534.43L430.27 552.67L430.27 552.67L240.05 552.67z" stroke="none" fill="#DAEEF3" fill-rule="evenodd" /><g clip-path="url(#57)"></g><g clip-path="url(#58)"></g><g clip-path="url(#59)"></g></g><path transform="matrix(1 0 0 -1 0 841)" d="M436.03 534.43L510.694 534.43L510.694 534.43L510.694 723.33L510.694 723.33L436.03 723.33z" stroke="none" fill="#DAEEF3" fill-rule="evenodd" /><g clip-path="url(#60)"><path transform="matrix(1 0 0 -1 0 841)" d="M441.07 696.82L505.534 696.82L505.534 696.82L505.534 723.34L505.534 723.34L441.07 723.34z" stroke="none" fill="#DAEEF3" fill-rule="evenodd" /><g clip-path="url(#61)"></g><g clip-path="url(#62)"></g><g clip-path="url(#63)"></g><g clip-path="url(#64)"></g></g><path transform="matrix(1 0 0 -1 0 841)" d="M84.264 723.46L84.744 723.46L84.744 723.46L84.744 723.94L84.744 723.94L84.264 723.94z" stroke="none" fill="#000000" fill-rule="evenodd" /><path transform="matrix(1 0 0 -1 0 841)" d="M84.744 723.46L165.024 723.46L165.024 723.46L165.024 723.94L165.024 723.94L84.744 723.94z" stroke="none" fill="#000000" fill-rule="evenodd" /><path transform="matrix(1 0 0 -1 0 841)" d="M165.02 723.46L165.5 723.46L165.5 723.46L165.5 723.94L165.5 723.94L165.02 723.94z" stroke="none" fill="#000000" fill-rule="evenodd" /><path transform="matrix(1 0 0 -1 0 841)" d="M165.5 723.46L234.404 723.46L234.404 723.46L234.404 723.94L234.404 723.94L165.5 723.94z" stroke="none" fill="#000000" fill-rule="evenodd" /><path transform="matrix(1 0 0 -1 0 841)" d="M234.41 723.46L234.89 723.46L234.89 723.46L234.89 723.94L234.89 723.94L234.41 723.94z" stroke="none" fill="#000000" fill-rule="evenodd" /><path transform="matrix(1 0 0 -1 0 841)" d="M234.89 723.46L435.55 723.46L435.55 723.46L435.55 723.94L435.55 723.94L234.89 723.94z" stroke="none" fill="#000000" fill-rule="evenodd" /><path transform="matrix(1 0 0 -1 0 841)" d="M435.55 723.46L436.03 723.46L436.03 723.46L436.03 723.94L436.03 723.94L435.55 723.94z" stroke="none" fill="#000000" fill-rule="evenodd" /><path transform="matrix(1 0 0 -1 0 841)" d="M436.03 723.46L510.694 723.46L510.694 723.46L510.694 723.94L510.694 723.94L436.03 723.94z" stroke="none" fill="#000000" fill-rule="evenodd" /><path transform="matrix(1 0 0 -1 0 841)" d="M510.7 723.46L511.18 723.46L511.18 723.46L511.18 723.94L511.18 723.94L510.7 723.94z" stroke="none" fill="#000000" fill-rule="evenodd" /><path transform="matrix(1 0 0 -1 0 841)" d="M84.264 534.43L84.744 534.43L84.744 534.43L84.744 723.45L84.744 723.45L84.264 723.45z" stroke="none" fill="#000000" fill-rule="evenodd" /><path transform="matrix(1 0 0 -1 0 841)" d="M165.02 534.43L165.5 534.43L165.5 534.43L165.5 723.45L165.5 723.45L165.02 723.45z" stroke="none" fill="#000000" fill-rule="evenodd" /><path transform="matrix(1 0 0 -1 0 841)" d="M234.41 534.43L234.89 534.43L234.89 534.43L234.89 723.45L234.89 723.45L234.41 723.45z" stroke="none" fill="#000000" fill-rule="evenodd" /><path transform="matrix(1 0 0 -1 0 841)" d="M435.55 534.43L436.03 534.43L436.03 534.43L436.03 723.45L436.03 723.45L435.55 723.45z" stroke="none" fill="#000000" fill-rule="evenodd" /><path transform="matrix(1 0 0 -1 0 841)" d="M510.7 534.43L511.18 534.43L511.18 534.43L511.18 723.45L511.18 723.45L510.7 723.45z" stroke="none" fill="#000000" fill-rule="evenodd" /><g clip-path="url(#65)"><g clip-path="url(#66)"></g><g clip-path="url(#67)"></g><g clip-path="url(#68)"></g><g clip-path="url(#69)"></g><g clip-path="url(#70)"></g><g clip-path="url(#71)"></g></g><g clip-path="url(#72)"><g clip-path="url(#73)"></g><g clip-path="url(#74)"></g></g><g clip-path="url(#75)"><g clip-path="url(#76)"></g><g clip-path="url(#77)"></g><g clip-path="url(#78)"></g><g clip-path="url(#79)"></g><g clip-path="url(#80)"></g></g><g clip-path="url(#81)"><g clip-path="url(#82)"></g><g clip-path="url(#83)"></g><g clip-path="url(#84)"></g><g clip-path="url(#85)"></g></g><path transform="matrix(1 0 0 -1 0 841)" d="M84.264 533.95L84.744 533.95L84.744 533.95L84.744 534.43L84.744 534.43L84.264 534.43z" stroke="none" fill="#000000" fill-rule="evenodd" /><path transform="matrix(1 0 0 -1 0 841)" d="M84.744 533.95L165.024 533.95L165.024 533.95L165.024 534.43L165.024 534.43L84.744 534.43z" stroke="none" fill="#000000" fill-rule="evenodd" /><path transform="matrix(1 0 0 -1 0 841)" d="M165.02 533.95L165.5 533.95L165.5 533.95L165.5 534.43L165.5 534.43L165.02 534.43z" stroke="none" fill="#000000" fill-rule="evenodd" /><path transform="matrix(1 0 0 -1 0 841)" d="M165.5 533.95L234.404 533.95L234.404 533.95L234.404 534.43L234.404 534.43L165.5 534.43z" stroke="none" fill="#000000" fill-rule="evenodd" /><path transform="matrix(1 0 0 -1 0 841)" d="M234.41 533.95L234.89 533.95L234.89 533.95L234.89 534.43L234.89 534.43L234.41 534.43z" stroke="none" fill="#000000" fill-rule="evenodd" /><path transform="matrix(1 0 0 -1 0 841)" d="M234.89 533.95L435.55 533.95L435.55 533.95L435.55 534.43L435.55 534.43L234.89 534.43z" stroke="none" fill="#000000" fill-rule="evenodd" /><path transform="matrix(1 0 0 -1 0 841)" d="M435.55 533.95L436.03 533.95L436.03 533.95L436.03 534.43L436.03 534.43L435.55 534.43z" stroke="none" fill="#000000" fill-rule="evenodd" /><path transform="matrix(1 0 0 -1 0 841)" d="M436.03 533.95L510.694 533.95L510.694 533.95L510.694 534.43L510.694 534.43L436.03 534.43z" stroke="none" fill="#000000" fill-rule="evenodd" /><path transform="matrix(1 0 0 -1 0 841)" d="M510.7 533.95L511.18 533.95L511.18 533.95L511.18 534.43L511.18 534.43L510.7 534.43z" stroke="none" fill="#000000" fill-rule="evenodd" /><path transform="matrix(1 0 0 -1 0 841)" d="M84.264 490.27L84.744 490.27L84.744 490.27L84.744 533.95L84.744 533.95L84.264 533.95z" stroke="none" fill="#000000" fill-rule="evenodd" /><path transform="matrix(1 0 0 -1 0 841)" d="M165.02 490.27L165.5 490.27L165.5 490.27L165.5 533.95L165.5 533.95L165.02 533.95z" stroke="none" fill="#000000" fill-rule="evenodd" /><path transform="matrix(1 0 0 -1 0 841)" d="M234.41 490.27L234.89 490.27L234.89 490.27L234.89 533.95L234.89 533.95L234.41 533.95z" stroke="none" fill="#000000" fill-rule="evenodd" /><path transform="matrix(1 0 0 -1 0 841)" d="M435.55 490.27L436.03 490.27L436.03 490.27L436.03 533.95L436.03 533.95L435.55 533.95z" stroke="none" fill="#000000" fill-rule="evenodd" /><path transform="matrix(1 0 0 -1 0 841)" d="M510.7 490.27L511.18 490.27L511.18 490.27L511.18 533.95L511.18 533.95L510.7 533.95z" stroke="none" fill="#000000" fill-rule="evenodd" /><path transform="matrix(1 0 0 -1 0 841)" d="M84.744 418.27L165.024 418.27L165.024 418.27L165.024 489.79L165.024 489.79L84.744 489.79z" stroke="none" fill="#DAEEF3" fill-rule="evenodd" /><g clip-path="url(#86)"><path transform="matrix(1 0 0 -1 0 841)" d="M89.904 467.95L159.864 467.95L159.864 467.95L159.864 489.79L159.864 489.79L89.904 489.79z" stroke="none" fill="#DAEEF3" fill-rule="evenodd" /><g clip-path="url(#87)"></g><g clip-path="url(#88)"></g><g clip-path="url(#89)"></g><g clip-path="url(#90)"></g><path transform="matrix(1 0 0 -1 0 841)" d="M89.904 446.11L159.864 446.11L159.864 446.11L159.864 467.95L159.864 467.95L89.904 467.95z" stroke="none" fill="#DAEEF3" fill-rule="evenodd" /><g clip-path="url(#91)"></g><g clip-path="url(#92)"></g></g><path transform="matrix(1 0 0 -1 0 841)" d="M165.5 418.27L234.404 418.27L234.404 418.27L234.404 489.79L234.404 489.79L165.5 489.79z" stroke="none" fill="#DAEEF3" fill-rule="evenodd" /><g clip-path="url(#93)"><path transform="matrix(1 0 0 -1 0 841)" d="M170.66 463.15L229.244 463.15L229.244 463.15L229.244 489.79L229.244 489.79L170.66 489.79z" stroke="none" fill="#DAEEF3" fill-rule="evenodd" /><g clip-path="url(#94)"></g><g clip-path="url(#95)"></g></g><path transform="matrix(1 0 0 -1 0 841)" d="M234.89 418.27L435.43 418.27L435.43 418.27L435.43 489.79L435.43 489.79L234.89 489.79z" stroke="none" fill="#DAEEF3" fill-rule="evenodd" /><g clip-path="url(#96)"><path transform="matrix(1 0 0 -1 0 841)" d="M240.05 471.67L430.27 471.67L430.27 471.67L430.27 489.79L430.27 489.79L240.05 489.79z" stroke="none" fill="#DAEEF3" fill-rule="evenodd" /><g clip-path="url(#97)"></g><g clip-path="url(#98)"></g><g clip-path="url(#99)"></g><g clip-path="url(#100)"></g><g clip-path="url(#101)"></g><g clip-path="url(#102)"></g><path transform="matrix(1 0 0 -1 0 841)" d="M240.05 454.51L430.27 454.51L430.27 454.51L430.27 471.67L430.27 471.67L240.05 471.67z" stroke="none" fill="#DAEEF3" fill-rule="evenodd" /><g clip-path="url(#103)"></g><g clip-path="url(#104)"></g><path transform="matrix(1 0 0 -1 0 841)" d="M240.05 436.39L430.27 436.39L430.27 436.39L430.27 454.51L430.27 454.51L240.05 454.51z" stroke="none" fill="#DAEEF3" fill-rule="evenodd" /><g clip-path="url(#105)"></g><g clip-path="url(#106)"></g><g clip-path="url(#107)"></g><g clip-path="url(#108)"></g><g clip-path="url(#109)"></g><path transform="matrix(1 0 0 -1 0 841)" d="M240.05 418.27L430.27 418.27L430.27 418.27L430.27 436.39L430.27 436.39L240.05 436.39z" stroke="none" fill="#DAEEF3" fill-rule="evenodd" /><g clip-path="url(#110)"></g><g clip-path="url(#111)"></g><g clip-path="url(#112)"></g><g clip-path="url(#113)"></g></g><path transform="matrix(1 0 0 -1 0 841)" d="M436.03 418.27L510.694 418.27L510.694 418.27L510.694 489.79L510.694 489.79L436.03 489.79z" stroke="none" fill="#DAEEF3" fill-rule="evenodd" /><g clip-path="url(#114)"><path transform="matrix(1 0 0 -1 0 841)" d="M441.07 463.15L505.534 463.15L505.534 463.15L505.534 489.79L505.534 489.79L441.07 489.79z" stroke="none" fill="#DAEEF3" fill-rule="evenodd" /><g clip-path="url(#115)"></g><g clip-path="url(#116)"></g><g clip-path="url(#117)"></g><g clip-path="url(#118)"></g></g><path transform="matrix(1 0 0 -1 0 841)" d="M84.264 489.79L84.744 489.79L84.744 489.79L84.744 490.27L84.744 490.27L84.264 490.27z" stroke="none" fill="#000000" fill-rule="evenodd" /><path transform="matrix(1 0 0 -1 0 841)" d="M84.744 489.79L165.024 489.79L165.024 489.79L165.024 490.27L165.024 490.27L84.744 490.27z" stroke="none" fill="#000000" fill-rule="evenodd" /><path transform="matrix(1 0 0 -1 0 841)" d="M165.02 489.79L165.5 489.79L165.5 489.79L165.5 490.27L165.5 490.27L165.02 490.27z" stroke="none" fill="#000000" fill-rule="evenodd" /><path transform="matrix(1 0 0 -1 0 841)" d="M165.5 489.79L234.404 489.79L234.404 489.79L234.404 490.27L234.404 490.27L165.5 490.27z" stroke="none" fill="#000000" fill-rule="evenodd" /><path transform="matrix(1 0 0 -1 0 841)" d="M234.41 489.79L234.89 489.79L234.89 489.79L234.89 490.27L234.89 490.27L234.41 490.27z" stroke="none" fill="#000000" fill-rule="evenodd" /><path transform="matrix(1 0 0 -1 0 841)" d="M234.89 489.79L435.55 489.79L435.55 489.79L435.55 490.27L435.55 490.27L234.89 490.27z" stroke="none" fill="#000000" fill-rule="evenodd" /><path transform="matrix(1 0 0 -1 0 841)" d="M435.55 489.79L436.03 489.79L436.03 489.79L436.03 490.27L436.03 490.27L435.55 490.27z" stroke="none" fill="#000000" fill-rule="evenodd" /><path transform="matrix(1 0 0 -1 0 841)" d="M436.03 489.79L510.694 489.79L510.694 489.79L510.694 490.27L510.694 490.27L436.03 490.27z" stroke="none" fill="#000000" fill-rule="evenodd" /><path transform="matrix(1 0 0 -1 0 841)" d="M510.7 489.79L511.18 489.79L511.18 489.79L511.18 490.27L511.18 490.27L510.7 490.27z" stroke="none" fill="#000000" fill-rule="evenodd" /><path transform="matrix(1 0 0 -1 0 841)" d="M84.264 418.27L84.744 418.27L84.744 418.27L84.744 489.79L84.744 489.79L84.264 489.79z" stroke="none" fill="#000000" fill-rule="evenodd" /><path transform="matrix(1 0 0 -1 0 841)" d="M165.02 418.27L165.5 418.27L165.5 418.27L165.5 489.79L165.5 489.79L165.02 489.79z" stroke="none" fill="#000000" fill-rule="evenodd" /><path transform="matrix(1 0 0 -1 0 841)" d="M234.41 418.27L234.89 418.27L234.89 418.27L234.89 489.79L234.89 489.79L234.41 489.79z" stroke="none" fill="#000000" fill-rule="evenodd" /><path transform="matrix(1 0 0 -1 0 841)" d="M435.55 418.27L436.03 418.27L436.03 418.27L436.03 489.79L436.03 489.79L435.55 489.79z" stroke="none" fill="#000000" fill-rule="evenodd" /><path transform="matrix(1 0 0 -1 0 841)" d="M510.7 418.27L511.18 418.27L511.18 418.27L511.18 489.79L511.18 489.79L510.7 489.79z" stroke="none" fill="#000000" fill-rule="evenodd" /><g clip-path="url(#119)"><g clip-path="url(#120)"></g><g clip-path="url(#121)"></g><g clip-path="url(#122)"></g><g clip-path="url(#123)"></g><g clip-path="url(#124)"></g><g clip-path="url(#125)"></g><g clip-path="url(#126)"></g></g><g clip-path="url(#127)"><g clip-path="url(#128)"></g><g clip-path="url(#129)"></g></g><g clip-path="url(#130)"><g clip-path="url(#131)"></g><g clip-path="url(#132)"></g><g clip-path="url(#133)"></g><g clip-path="url(#134)"></g><g clip-path="url(#135)"></g><g clip-path="url(#136)"></g><g clip-path="url(#137)"></g><g clip-path="url(#138)"></g><g clip-path="url(#139)"></g></g><g clip-path="url(#140)"><g clip-path="url(#141)"></g><g clip-path="url(#142)"></g><g clip-path="url(#143)"></g><g clip-path="url(#144)"></g></g><path transform="matrix(1 0 0 -1 0 841)" d="M84.264 417.79L84.744 417.79L84.744 417.79L84.744 418.27L84.744 418.27L84.264 418.27z" stroke="none" fill="#000000" fill-rule="evenodd" /><path transform="matrix(1 0 0 -1 0 841)" d="M84.744 417.79L165.024 417.79L165.024 417.79L165.024 418.27L165.024 418.27L84.744 418.27z" stroke="none" fill="#000000" fill-rule="evenodd" /><path transform="matrix(1 0 0 -1 0 841)" d="M165.02 417.79L165.5 417.79L165.5 417.79L165.5 418.27L165.5 418.27L165.02 418.27z" stroke="none" fill="#000000" fill-rule="evenodd" /><path transform="matrix(1 0 0 -1 0 841)" d="M165.5 417.79L234.404 417.79L234.404 417.79L234.404 418.27L234.404 418.27L165.5 418.27z" stroke="none" fill="#000000" fill-rule="evenodd" /><path transform="matrix(1 0 0 -1 0 841)" d="M234.41 417.79L234.89 417.79L234.89 417.79L234.89 418.27L234.89 418.27L234.41 418.27z" stroke="none" fill="#000000" fill-rule="evenodd" /><path transform="matrix(1 0 0 -1 0 841)" d="M234.89 417.79L435.55 417.79L435.55 417.79L435.55 418.27L435.55 418.27L234.89 418.27z" stroke="none" fill="#000000" fill-rule="evenodd" /><path transform="matrix(1 0 0 -1 0 841)" d="M435.55 417.79L436.03 417.79L436.03 417.79L436.03 418.27L436.03 418.27L435.55 418.27z" stroke="none" fill="#000000" fill-rule="evenodd" /><path transform="matrix(1 0 0 -1 0 841)" d="M436.03 417.79L510.694 417.79L510.694 417.79L510.694 418.27L510.694 418.27L436.03 418.27z" stroke="none" fill="#000000" fill-rule="evenodd" /><path transform="matrix(1 0 0 -1 0 841)" d="M510.7 417.79L511.18 417.79L511.18 417.79L511.18 418.27L511.18 418.27L510.7 418.27z" stroke="none" fill="#000000" fill-rule="evenodd" /><path transform="matrix(1 0 0 -1 0 841)" d="M84.264 374.11L84.744 374.11L84.744 374.11L84.744 417.79L84.744 417.79L84.264 417.79z" stroke="none" fill="#000000" fill-rule="evenodd" /><path transform="matrix(1 0 0 -1 0 841)" d="M165.02 374.11L165.5 374.11L165.5 374.11L165.5 417.79L165.5 417.79L165.02 417.79z" stroke="none" fill="#000000" fill-rule="evenodd" /><path transform="matrix(1 0 0 -1 0 841)" d="M234.41 374.11L234.89 374.11L234.89 374.11L234.89 417.79L234.89 417.79L234.41 417.79z" stroke="none" fill="#000000" fill-rule="evenodd" /><path transform="matrix(1 0 0 -1 0 841)" d="M435.55 374.11L436.03 374.11L436.03 374.11L436.03 417.79L436.03 417.79L435.55 417.79z" stroke="none" fill="#000000" fill-rule="evenodd" /><path transform="matrix(1 0 0 -1 0 841)" d="M510.7 374.11L511.18 374.11L511.18 374.11L511.18 417.79L511.18 417.79L510.7 417.79z" stroke="none" fill="#000000" fill-rule="evenodd" /><path transform="matrix(1 0 0 -1 0 841)" d="M84.744 303.05L165.024 303.05L165.024 303.05L165.024 373.514L165.024 373.514L84.744 373.514z" stroke="none" fill="#DAEEF3" fill-rule="evenodd" /><g clip-path="url(#145)"><path transform="matrix(1 0 0 -1 0 841)" d="M89.904 351.65L159.864 351.65L159.864 351.65L159.864 373.514L159.864 373.514L89.904 373.514z" stroke="none" fill="#DAEEF3" fill-rule="evenodd" /><g clip-path="url(#146)"></g><g clip-path="url(#147)"></g><g clip-path="url(#148)"></g><g clip-path="url(#149)"></g><g clip-path="url(#150)"></g><path transform="matrix(1 0 0 -1 0 841)" d="M89.904 329.81L159.864 329.81L159.864 329.81L159.864 351.65L159.864 351.65L89.904 351.65z" stroke="none" fill="#DAEEF3" fill-rule="evenodd" /><g clip-path="url(#151)"></g><g clip-path="url(#152)"></g></g><path transform="matrix(1 0 0 -1 0 841)" d="M165.5 303.05L234.404 303.05L234.404 303.05L234.404 373.514L234.404 373.514L165.5 373.514z" stroke="none" fill="#DAEEF3" fill-rule="evenodd" /><g clip-path="url(#153)"><path transform="matrix(1 0 0 -1 0 841)" d="M170.66 346.97L229.244 346.97L229.244 346.97L229.244 373.514L229.244 373.514L170.66 373.514z" stroke="none" fill="#DAEEF3" fill-rule="evenodd" /><g clip-path="url(#154)"></g><g clip-path="url(#155)"></g></g><path transform="matrix(1 0 0 -1 0 841)" d="M234.89 303.05L435.43 303.05L435.43 303.05L435.43 373.514L435.43 373.514L234.89 373.514z" stroke="none" fill="#DAEEF3" fill-rule="evenodd" /><g clip-path="url(#156)"><path transform="matrix(1 0 0 -1 0 841)" d="M240.05 355.37L430.27 355.37L430.27 355.37L430.27 373.514L430.27 373.514L240.05 373.514z" stroke="none" fill="#DAEEF3" fill-rule="evenodd" /><g clip-path="url(#157)"></g><g clip-path="url(#158)"></g><g clip-path="url(#159)"></g><g clip-path="url(#160)"></g><g clip-path="url(#161)"></g><g clip-path="url(#162)"></g><g clip-path="url(#163)"></g><g clip-path="url(#164)"></g><path transform="matrix(1 0 0 -1 0 841)" d="M240.05 338.33L430.27 338.33L430.27 338.33L430.27 355.37L430.27 355.37L240.05 355.37z" stroke="none" fill="#DAEEF3" fill-rule="evenodd" /><g clip-path="url(#165)"></g><g clip-path="url(#166)"></g><path transform="matrix(1 0 0 -1 0 841)" d="M240.05 321.17L430.27 321.17L430.27 321.17L430.27 338.33L430.27 338.33L240.05 338.33z" stroke="none" fill="#DAEEF3" fill-rule="evenodd" /><g clip-path="url(#167)"></g><g clip-path="url(#168)"></g><path transform="matrix(1 0 0 -1 0 841)" d="M240.05 303.05L430.27 303.05L430.27 303.05L430.27 321.17L430.27 321.17L240.05 321.17z" stroke="none" fill="#DAEEF3" fill-rule="evenodd" /><g clip-path="url(#169)"></g><g clip-path="url(#170)"></g><g clip-path="url(#171)"></g><g clip-path="url(#172)"></g></g><path transform="matrix(1 0 0 -1 0 841)" d="M436.03 303.05L510.694 303.05L510.694 303.05L510.694 373.514L510.694 373.514L436.03 373.514z" stroke="none" fill="#DAEEF3" fill-rule="evenodd" /><g clip-path="url(#173)"><path transform="matrix(1 0 0 -1 0 841)" d="M441.07 346.97L505.534 346.97L505.534 346.97L505.534 373.514L505.534 373.514L441.07 373.514z" stroke="none" fill="#DAEEF3" fill-rule="evenodd" /><g clip-path="url(#174)"></g><g clip-path="url(#175)"></g><g clip-path="url(#176)"></g><g clip-path="url(#177)"></g></g><path transform="matrix(1 0 0 -1 0 841)" d="M84.264 373.63L84.744 373.63L84.744 373.63L84.744 374.11L84.744 374.11L84.264 374.11z" stroke="none" fill="#000000" fill-rule="evenodd" /><path transform="matrix(1 0 0 -1 0 841)" d="M84.744 373.63L165.024 373.63L165.024 373.63L165.024 374.11L165.024 374.11L84.744 374.11z" stroke="none" fill="#000000" fill-rule="evenodd" /><path transform="matrix(1 0 0 -1 0 841)" d="M165.02 373.63L165.5 373.63L165.5 373.63L165.5 374.11L165.5 374.11L165.02 374.11z" stroke="none" fill="#000000" fill-rule="evenodd" /><path transform="matrix(1 0 0 -1 0 841)" d="M165.5 373.63L234.404 373.63L234.404 373.63L234.404 374.11L234.404 374.11L165.5 374.11z" stroke="none" fill="#000000" fill-rule="evenodd" /><path transform="matrix(1 0 0 -1 0 841)" d="M234.41 373.63L234.89 373.63L234.89 373.63L234.89 374.11L234.89 374.11L234.41 374.11z" stroke="none" fill="#000000" fill-rule="evenodd" /><path transform="matrix(1 0 0 -1 0 841)" d="M234.89 373.63L435.55 373.63L435.55 373.63L435.55 374.11L435.55 374.11L234.89 374.11z" stroke="none" fill="#000000" fill-rule="evenodd" /><path transform="matrix(1 0 0 -1 0 841)" d="M435.55 373.63L436.03 373.63L436.03 373.63L436.03 374.11L436.03 374.11L435.55 374.11z" stroke="none" fill="#000000" fill-rule="evenodd" /><path transform="matrix(1 0 0 -1 0 841)" d="M436.03 373.63L510.694 373.63L510.694 373.63L510.694 374.11L510.694 374.11L436.03 374.11z" stroke="none" fill="#000000" fill-rule="evenodd" /><path transform="matrix(1 0 0 -1 0 841)" d="M510.7 373.63L511.18 373.63L511.18 373.63L511.18 374.11L511.18 374.11L510.7 374.11z" stroke="none" fill="#000000" fill-rule="evenodd" /><path transform="matrix(1 0 0 -1 0 841)" d="M84.264 303.05L84.744 303.05L84.744 303.05L84.744 373.634L84.744 373.634L84.264 373.634z" stroke="none" fill="#000000" fill-rule="evenodd" /><path transform="matrix(1 0 0 -1 0 841)" d="M165.02 303.05L165.5 303.05L165.5 303.05L165.5 373.634L165.5 373.634L165.02 373.634z" stroke="none" fill="#000000" fill-rule="evenodd" /><path transform="matrix(1 0 0 -1 0 841)" d="M234.41 303.05L234.89 303.05L234.89 303.05L234.89 373.634L234.89 373.634L234.41 373.634z" stroke="none" fill="#000000" fill-rule="evenodd" /><path transform="matrix(1 0 0 -1 0 841)" d="M435.55 303.05L436.03 303.05L436.03 303.05L436.03 373.634L436.03 373.634L435.55 373.634z" stroke="none" fill="#000000" fill-rule="evenodd" /><path transform="matrix(1 0 0 -1 0 841)" d="M510.7 303.05L511.18 303.05L511.18 303.05L511.18 373.634L511.18 373.634L510.7 373.634z" stroke="none" fill="#000000" fill-rule="evenodd" /><g clip-path="url(#178)"><g clip-path="url(#179)"></g><g clip-path="url(#180)"></g><g clip-path="url(#181)"></g><g clip-path="url(#182)"></g><g clip-path="url(#183)"></g><g clip-path="url(#184)"></g><g clip-path="url(#185)"></g></g><g clip-path="url(#186)"><g clip-path="url(#187)"></g><g clip-path="url(#188)"></g></g><g clip-path="url(#189)"><g clip-path="url(#190)"></g><g clip-path="url(#191)"></g><g clip-path="url(#192)"></g><g clip-path="url(#193)"></g><g clip-path="url(#194)"></g><g clip-path="url(#195)"></g><g clip-path="url(#196)"></g><g clip-path="url(#197)"></g><g clip-path="url(#198)"></g><g clip-path="url(#199)"></g><g clip-path="url(#200)"></g><g clip-path="url(#201)"></g><g clip-path="url(#202)"></g><g clip-path="url(#203)"></g><g clip-path="url(#204)"></g><g clip-path="url(#205)"></g><g clip-path="url(#206)"></g><g clip-path="url(#207)"></g><g clip-path="url(#208)"></g><g clip-path="url(#209)"></g><g clip-path="url(#210)"></g><g clip-path="url(#211)"></g><path transform="matrix(1 0 0 -1 0 841)" d="M274.13 249.65L336.554 249.65L336.554 249.65L336.554 250.61L336.554 250.61L274.13 250.61z" stroke="none" fill="#000000" fill-rule="evenodd" /><g clip-path="url(#212)"></g><g clip-path="url(#213)"></g><g clip-path="url(#214)"></g><g clip-path="url(#215)"></g><g clip-path="url(#216)"></g><g clip-path="url(#217)"></g><g clip-path="url(#218)"></g><path transform="matrix(1 0 0 -1 0 841)" d="M274.13 231.53L358.754 231.53L358.754 231.53L358.754 232.49L358.754 232.49L274.13 232.49z" stroke="none" fill="#000000" fill-rule="evenodd" /></g><g clip-path="url(#219)"><g clip-path="url(#220)"></g><g clip-path="url(#221)"></g><g clip-path="url(#222)"></g></g><path transform="matrix(1 0 0 -1 0 841)" d="M84.264 302.57L84.744 302.57L84.744 302.57L84.744 303.05L84.744 303.05L84.264 303.05z" stroke="none" fill="#000000" fill-rule="evenodd" /><path transform="matrix(1 0 0 -1 0 841)" d="M84.744 302.57L165.024 302.57L165.024 302.57L165.024 303.05L165.024 303.05L84.744 303.05z" stroke="none" fill="#000000" fill-rule="evenodd" /><path transform="matrix(1 0 0 -1 0 841)" d="M165.02 302.57L165.5 302.57L165.5 302.57L165.5 303.05L165.5 303.05L165.02 303.05z" stroke="none" fill="#000000" fill-rule="evenodd" /><path transform="matrix(1 0 0 -1 0 841)" d="M165.5 302.57L234.404 302.57L234.404 302.57L234.404 303.05L234.404 303.05L165.5 303.05z" stroke="none" fill="#000000" fill-rule="evenodd" /><path transform="matrix(1 0 0 -1 0 841)" d="M234.41 302.57L234.89 302.57L234.89 302.57L234.89 303.05L234.89 303.05L234.41 303.05z" stroke="none" fill="#000000" fill-rule="evenodd" /><path transform="matrix(1 0 0 -1 0 841)" d="M234.89 302.57L435.55 302.57L435.55 302.57L435.55 303.05L435.55 303.05L234.89 303.05z" stroke="none" fill="#000000" fill-rule="evenodd" /><path transform="matrix(1 0 0 -1 0 841)" d="M435.55 302.57L436.03 302.57L436.03 302.57L436.03 303.05L436.03 303.05L435.55 303.05z" stroke="none" fill="#000000" fill-rule="evenodd" /><path transform="matrix(1 0 0 -1 0 841)" d="M436.03 302.57L510.694 302.57L510.694 302.57L510.694 303.05L510.694 303.05L436.03 303.05z" stroke="none" fill="#000000" fill-rule="evenodd" /><path transform="matrix(1 0 0 -1 0 841)" d="M510.7 302.57L511.18 302.57L511.18 302.57L511.18 303.05L511.18 303.05L510.7 303.05z" stroke="none" fill="#000000" fill-rule="evenodd" /><path transform="matrix(1 0 0 -1 0 841)" d="M84.264 229.97L84.744 229.97L84.744 229.97L84.744 302.57L84.744 302.57L84.264 302.57z" stroke="none" fill="#000000" fill-rule="evenodd" /><path transform="matrix(1 0 0 -1 0 841)" d="M165.02 229.97L165.5 229.97L165.5 229.97L165.5 302.57L165.5 302.57L165.02 302.57z" stroke="none" fill="#000000" fill-rule="evenodd" /><path transform="matrix(1 0 0 -1 0 841)" d="M234.41 229.97L234.89 229.97L234.89 229.97L234.89 302.57L234.89 302.57L234.41 302.57z" stroke="none" fill="#000000" fill-rule="evenodd" /><path transform="matrix(1 0 0 -1 0 841)" d="M435.55 229.97L436.03 229.97L436.03 229.97L436.03 302.57L436.03 302.57L435.55 302.57z" stroke="none" fill="#000000" fill-rule="evenodd" /><path transform="matrix(1 0 0 -1 0 841)" d="M510.7 229.97L511.18 229.97L511.18 229.97L511.18 302.57L511.18 302.57L510.7 302.57z" stroke="none" fill="#000000" fill-rule="evenodd" /><path transform="matrix(1 0 0 -1 0 841)" d="M84.744 138.62L165.024 138.62L165.024 138.62L165.024 229.364L165.024 229.364L84.744 229.364z" stroke="none" fill="#DAEEF3" fill-rule="evenodd" /><g clip-path="url(#223)"><path transform="matrix(1 0 0 -1 0 841)" d="M89.904 207.53L159.864 207.53L159.864 207.53L159.864 229.37L159.864 229.37L89.904 229.37z" stroke="none" fill="#DAEEF3" fill-rule="evenodd" /><g clip-path="url(#224)"></g><g clip-path="url(#225)"></g><g clip-path="url(#226)"></g><g clip-path="url(#227)"></g><g clip-path="url(#228)"></g><path transform="matrix(1 0 0 -1 0 841)" d="M89.904 185.69L159.864 185.69L159.864 185.69L159.864 207.53L159.864 207.53L89.904 207.53z" stroke="none" fill="#DAEEF3" fill-rule="evenodd" /><g clip-path="url(#229)"></g><g clip-path="url(#230)"></g></g><path transform="matrix(1 0 0 -1 0 841)" d="M165.5 138.62L234.404 138.62L234.404 138.62L234.404 229.364L234.404 229.364L165.5 229.364z" stroke="none" fill="#DAEEF3" fill-rule="evenodd" /><g clip-path="url(#231)"><path transform="matrix(1 0 0 -1 0 841)" d="M170.66 202.85L229.244 202.85L229.244 202.85L229.244 229.37L229.244 229.37L170.66 229.37z" stroke="none" fill="#DAEEF3" fill-rule="evenodd" /><g clip-path="url(#232)"></g><g clip-path="url(#233)"></g></g><path transform="matrix(1 0 0 -1 0 841)" d="M234.89 138.62L435.43 138.62L435.43 138.62L435.43 229.364L435.43 229.364L234.89 229.364z" stroke="none" fill="#DAEEF3" fill-rule="evenodd" /><g clip-path="url(#234)"><path transform="matrix(1 0 0 -1 0 841)" d="M240.05 211.25L430.27 211.25L430.27 211.25L430.27 229.37L430.27 229.37L240.05 229.37z" stroke="none" fill="#DAEEF3" fill-rule="evenodd" /><g clip-path="url(#235)"></g><g clip-path="url(#236)"></g><g clip-path="url(#237)"></g><path transform="matrix(1 0 0 -1 0 841)" d="M240.05 193.13L430.27 193.13L430.27 193.13L430.27 211.25L430.27 211.25L240.05 211.25z" stroke="none" fill="#DAEEF3" fill-rule="evenodd" /><g clip-path="url(#238)"></g><g clip-path="url(#239)"></g><g clip-path="url(#240)"></g><g clip-path="url(#241)"></g><g clip-path="url(#242)"></g><g clip-path="url(#243)"></g><path transform="matrix(1 0 0 -1 0 841)" d="M240.05 174.86L430.27 174.86L430.27 174.86L430.27 193.124L430.27 193.124L240.05 193.124z" stroke="none" fill="#DAEEF3" fill-rule="evenodd" /><g clip-path="url(#244)"></g><g clip-path="url(#245)"></g><g clip-path="url(#246)"></g><g clip-path="url(#247)"></g><g clip-path="url(#248)"></g><g clip-path="url(#249)"></g><path transform="matrix(1 0 0 -1 0 841)" d="M240.05 156.74L430.27 156.74L430.27 156.74L430.27 174.86L430.27 174.86L240.05 174.86z" stroke="none" fill="#DAEEF3" fill-rule="evenodd" /><g clip-path="url(#250)"></g><g clip-path="url(#251)"></g><g clip-path="url(#252)"></g><g clip-path="url(#253)"></g><g clip-path="url(#254)"></g><g clip-path="url(#255)"></g><path transform="matrix(1 0 0 -1 0 841)" d="M240.05 138.62L430.27 138.62L430.27 138.62L430.27 156.74L430.27 156.74L240.05 156.74z" stroke="none" fill="#DAEEF3" fill-rule="evenodd" /><g clip-path="url(#256)"></g><g clip-path="url(#257)"></g><g clip-path="url(#258)"></g></g><path transform="matrix(1 0 0 -1 0 841)" d="M436.03 138.62L510.694 138.62L510.694 138.62L510.694 229.364L510.694 229.364L436.03 229.364z" stroke="none" fill="#DAEEF3" fill-rule="evenodd" /><g clip-path="url(#259)"><path transform="matrix(1 0 0 -1 0 841)" d="M441.07 202.85L505.534 202.85L505.534 202.85L505.534 229.37L505.534 229.37L441.07 229.37z" stroke="none" fill="#DAEEF3" fill-rule="evenodd" /><g clip-path="url(#260)"></g><g clip-path="url(#261)"></g><g clip-path="url(#262)"></g><g clip-path="url(#263)"></g></g><path transform="matrix(1 0 0 -1 0 841)" d="M84.264 229.49L84.744 229.49L84.744 229.49L84.744 229.97L84.744 229.97L84.264 229.97z" stroke="none" fill="#000000" fill-rule="evenodd" /><path transform="matrix(1 0 0 -1 0 841)" d="M84.744 229.49L165.024 229.49L165.024 229.49L165.024 229.97L165.024 229.97L84.744 229.97z" stroke="none" fill="#000000" fill-rule="evenodd" /><path transform="matrix(1 0 0 -1 0 841)" d="M165.02 229.49L165.5 229.49L165.5 229.49L165.5 229.97L165.5 229.97L165.02 229.97z" stroke="none" fill="#000000" fill-rule="evenodd" /><path transform="matrix(1 0 0 -1 0 841)" d="M165.5 229.49L234.404 229.49L234.404 229.49L234.404 229.97L234.404 229.97L165.5 229.97z" stroke="none" fill="#000000" fill-rule="evenodd" /><path transform="matrix(1 0 0 -1 0 841)" d="M234.41 229.49L234.89 229.49L234.89 229.49L234.89 229.97L234.89 229.97L234.41 229.97z" stroke="none" fill="#000000" fill-rule="evenodd" /><path transform="matrix(1 0 0 -1 0 841)" d="M234.89 229.49L435.55 229.49L435.55 229.49L435.55 229.97L435.55 229.97L234.89 229.97z" stroke="none" fill="#000000" fill-rule="evenodd" /><path transform="matrix(1 0 0 -1 0 841)" d="M435.55 229.49L436.03 229.49L436.03 229.49L436.03 229.97L436.03 229.97L435.55 229.97z" stroke="none" fill="#000000" fill-rule="evenodd" /><path transform="matrix(1 0 0 -1 0 841)" d="M436.03 229.49L510.694 229.49L510.694 229.49L510.694 229.97L510.694 229.97L436.03 229.97z" stroke="none" fill="#000000" fill-rule="evenodd" /><path transform="matrix(1 0 0 -1 0 841)" d="M510.7 229.49L511.18 229.49L511.18 229.49L511.18 229.97L511.18 229.97L510.7 229.97z" stroke="none" fill="#000000" fill-rule="evenodd" /><path transform="matrix(1 0 0 -1 0 841)" d="M84.264 138.62L84.744 138.62L84.744 138.62L84.744 229.484L84.744 229.484L84.264 229.484z" stroke="none" fill="#000000" fill-rule="evenodd" /><path transform="matrix(1 0 0 -1 0 841)" d="M165.02 138.62L165.5 138.62L165.5 138.62L165.5 229.484L165.5 229.484L165.02 229.484z" stroke="none" fill="#000000" fill-rule="evenodd" /><path transform="matrix(1 0 0 -1 0 841)" d="M234.41 138.62L234.89 138.62L234.89 138.62L234.89 229.484L234.89 229.484L234.41 229.484z" stroke="none" fill="#000000" fill-rule="evenodd" /><path transform="matrix(1 0 0 -1 0 841)" d="M435.55 138.62L436.03 138.62L436.03 138.62L436.03 229.484L436.03 229.484L435.55 229.484z" stroke="none" fill="#000000" fill-rule="evenodd" /><path transform="matrix(1 0 0 -1 0 841)" d="M510.7 138.62L511.18 138.62L511.18 138.62L511.18 229.484L511.18 229.484L510.7 229.484z" stroke="none" fill="#000000" fill-rule="evenodd" /><g clip-path="url(#264)"><g clip-path="url(#265)"></g><g clip-path="url(#266)"></g><g clip-path="url(#267)"></g><g clip-path="url(#268)"></g><g clip-path="url(#269)"></g><g clip-path="url(#270)"></g><g clip-path="url(#271)"></g><g clip-path="url(#272)"></g></g><g clip-path="url(#273)"><g clip-path="url(#274)"></g><g clip-path="url(#275)"></g><g clip-path="url(#276)"></g></g><g clip-path="url(#277)"><g clip-path="url(#278)"></g><g clip-path="url(#279)"></g><g clip-path="url(#280)"></g><g clip-path="url(#281)"></g><g clip-path="url(#282)"></g><g clip-path="url(#283)"></g><g clip-path="url(#284)"></g><g clip-path="url(#285)"></g><g clip-path="url(#286)"></g><g clip-path="url(#287)"></g><g clip-path="url(#288)"></g></g><g clip-path="url(#289)"><g clip-path="url(#290)"></g><g clip-path="url(#291)"></g><g clip-path="url(#292)"></g><g clip-path="url(#293)"></g></g><path transform="matrix(1 0 0 -1 0 841)" d="M84.264 138.14L84.744 138.14L84.744 138.14L84.744 138.62L84.744 138.62L84.264 138.62z" stroke="none" fill="#000000" fill-rule="evenodd" /><path transform="matrix(1 0 0 -1 0 841)" d="M84.744 138.14L165.024 138.14L165.024 138.14L165.024 138.62L165.024 138.62L84.744 138.62z" stroke="none" fill="#000000" fill-rule="evenodd" /><path transform="matrix(1 0 0 -1 0 841)" d="M165.02 138.14L165.5 138.14L165.5 138.14L165.5 138.62L165.5 138.62L165.02 138.62z" stroke="none" fill="#000000" fill-rule="evenodd" /><path transform="matrix(1 0 0 -1 0 841)" d="M165.5 138.14L234.404 138.14L234.404 138.14L234.404 138.62L234.404 138.62L165.5 138.62z" stroke="none" fill="#000000" fill-rule="evenodd" /><path transform="matrix(1 0 0 -1 0 841)" d="M234.41 138.14L234.89 138.14L234.89 138.14L234.89 138.62L234.89 138.62L234.41 138.62z" stroke="none" fill="#000000" fill-rule="evenodd" /><path transform="matrix(1 0 0 -1 0 841)" d="M234.89 138.14L435.55 138.14L435.55 138.14L435.55 138.62L435.55 138.62L234.89 138.62z" stroke="none" fill="#000000" fill-rule="evenodd" /><path transform="matrix(1 0 0 -1 0 841)" d="M435.55 138.14L436.03 138.14L436.03 138.14L436.03 138.62L436.03 138.62L435.55 138.62z" stroke="none" fill="#000000" fill-rule="evenodd" /><path transform="matrix(1 0 0 -1 0 841)" d="M436.03 138.14L510.694 138.14L510.694 138.14L510.694 138.62L510.694 138.62L436.03 138.62z" stroke="none" fill="#000000" fill-rule="evenodd" /><path transform="matrix(1 0 0 -1 0 841)" d="M510.7 138.14L511.18 138.14L511.18 138.14L511.18 138.62L511.18 138.62L510.7 138.62z" stroke="none" fill="#000000" fill-rule="evenodd" /><path transform="matrix(1 0 0 -1 0 841)" d="M84.264 94.464L84.744 94.464L84.744 94.464L84.744 138.144L84.744 138.144L84.264 138.144z" stroke="none" fill="#000000" fill-rule="evenodd" /><path transform="matrix(1 0 0 -1 0 841)" d="M84.264 93.984L84.744 93.984L84.744 93.984L84.744 94.46404L84.744 94.46404L84.264 94.46404z" stroke="none" fill="#000000" fill-rule="evenodd" /><path transform="matrix(1 0 0 -1 0 841)" d="M84.264 93.984L84.744 93.984L84.744 93.984L84.744 94.46404L84.744 94.46404L84.264 94.46404z" stroke="none" fill="#000000" fill-rule="evenodd" /><path transform="matrix(1 0 0 -1 0 841)" d="M84.744 93.984L165.024 93.984L165.024 93.984L165.024 94.46404L165.024 94.46404L84.744 94.46404z" stroke="none" fill="#000000" fill-rule="evenodd" /><path transform="matrix(1 0 0 -1 0 841)" d="M165.02 94.464L165.5 94.464L165.5 94.464L165.5 138.144L165.5 138.144L165.02 138.144z" stroke="none" fill="#000000" fill-rule="evenodd" /><path transform="matrix(1 0 0 -1 0 841)" d="M165.02 93.984L165.5 93.984L165.5 93.984L165.5 94.46404L165.5 94.46404L165.02 94.46404z" stroke="none" fill="#000000" fill-rule="evenodd" /><path transform="matrix(1 0 0 -1 0 841)" d="M165.5 93.984L234.404 93.984L234.404 93.984L234.404 94.46404L234.404 94.46404L165.5 94.46404z" stroke="none" fill="#000000" fill-rule="evenodd" /><path transform="matrix(1 0 0 -1 0 841)" d="M234.41 94.464L234.89 94.464L234.89 94.464L234.89 138.144L234.89 138.144L234.41 138.144z" stroke="none" fill="#000000" fill-rule="evenodd" /><path transform="matrix(1 0 0 -1 0 841)" d="M234.41 93.984L234.89 93.984L234.89 93.984L234.89 94.46404L234.89 94.46404L234.41 94.46404z" stroke="none" fill="#000000" fill-rule="evenodd" /><path transform="matrix(1 0 0 -1 0 841)" d="M234.89 93.984L435.55 93.984L435.55 93.984L435.55 94.46404L435.55 94.46404L234.89 94.46404z" stroke="none" fill="#000000" fill-rule="evenodd" /><path transform="matrix(1 0 0 -1 0 841)" d="M435.55 94.464L436.03 94.464L436.03 94.464L436.03 138.144L436.03 138.144L435.55 138.144z" stroke="none" fill="#000000" fill-rule="evenodd" /><path transform="matrix(1 0 0 -1 0 841)" d="M435.55 93.984L436.03 93.984L436.03 93.984L436.03 94.46404L436.03 94.46404L435.55 94.46404z" stroke="none" fill="#000000" fill-rule="evenodd" /><path transform="matrix(1 0 0 -1 0 841)" d="M436.03 93.984L510.694 93.984L510.694 93.984L510.694 94.46404L510.694 94.46404L436.03 94.46404z" stroke="none" fill="#000000" fill-rule="evenodd" /><path transform="matrix(1 0 0 -1 0 841)" d="M510.7 94.464L511.18 94.464L511.18 94.464L511.18 138.144L511.18 138.144L510.7 138.144z" stroke="none" fill="#000000" fill-rule="evenodd" /><path transform="matrix(1 0 0 -1 0 841)" d="M510.7 93.984L511.18 93.984L511.18 93.984L511.18 94.46404L511.18 94.46404L510.7 94.46404z" stroke="none" fill="#000000" fill-rule="evenodd" /><path transform="matrix(1 0 0 -1 0 841)" d="M510.7 93.984L511.18 93.984L511.18 93.984L511.18 94.46404L511.18 94.46404L510.7 94.46404z" stroke="none" fill="#000000" fill-rule="evenodd" /></g></g></g></svg>